<?xml version="1.0" encoding="utf-8"?>
<!-- Generator: Adobe Illustrator 19.0.0, SVG Export Plug-In . SVG Version: 6.00 Build 0)  -->
<svg version="1.1" id="Layer_1" xmlns="http://www.w3.org/2000/svg" xmlns:xlink="http://www.w3.org/1999/xlink" x="0px" y="0px"
	 viewBox="96 11 512 512" style="enable-background:new 96 11 512 512;" xml:space="preserve">
<style type="text/css">
	.st0{display:none;fill:#9BAAAB;}
	.st1{display:none;fill:#CDD4D5;}
	.st2{fill:#CDD4D5;}
	.st3{fill:#9BAAAB;}
	.st4{fill:#365558;}
	.st5{display:none;}
	.st6{display:inline;fill:#365558;}
	.st7{fill:#FFFFFF;}
	.st8{display:none;fill:#F0353D;}
</style>
<path class="st0" d="M570.7,350H737v-78H570.7c-4.7,0-7.6-7.9-5.5-14.6c2.1-6.7-35.2-12.8-35.2-12.8l-8.4,36.8v59.2l4.1,16l6.2,20
	c0,0,35.3-4.6,33.2-12.1S564.9,350,570.7,350z"/>
<path class="st1" d="M901.4,350H735.1v-78h166.3c4.7,0,7.6-7.9,5.5-14.6c-2.1-6.7,35.1-12.8,35.1-12.8l8.4,36.8v59.2l-4.1,16
	l-6.2,20c0,0-35.3-4.6-33.2-12.1C909.1,357.1,907.2,350,901.4,350z"/>
<path class="st2" d="M352,11v77c98.9,0,179,80.1,179,179s-80.1,179-179,179v77c141.4,0,256-114.6,256-256S493.4,11,352,11z"/>
<path class="st3" d="M173,267c0-98.9,80.1-179,179-179V11C210.6,11,96,125.6,96,267s114.6,256,256,256v-77
	C253.1,446,173,365.9,173,267z"/>
<g>
	<path class="st4" d="M568.2,251.9h-37.9c0.4,5,0.6,10,0.6,15.1s-0.2,10.1-0.6,15.1h37.9c8.3,0,15.1-6.8,15.1-15.1
		S576.5,251.9,568.2,251.9z"/>
	<path class="st4" d="M569.4,187.9c-2.1-6-7.8-10-14.2-10c-1.8,0-3.6,0.3-5.3,1l-35.5,12.9c4.2,9.1,7.7,18.5,10.3,28.3l35.6-13
		c3.8-1.4,6.8-4.1,8.5-7.8C570.6,195.8,570.7,191.7,569.4,187.9z"/>
	<path class="st4" d="M527.4,139.5c6.4-5.4,7.2-15,1.8-21.3c-2.9-3.4-7.1-5.4-11.6-5.4c-3.6,0-7,1.3-9.7,3.5l-29.1,24.4
		c7.1,7.1,13.6,14.9,19.4,23.1L527.4,139.5z"/>
	<path class="st4" d="M473.2,87.2c2-3.5,2.5-7.6,1.4-11.4c-1.1-3.9-3.6-7.1-7.1-9.1c-2.3-1.3-4.9-2-7.5-2c-5.4,0-10.4,2.9-13,7.6
		L428.2,105c9.2,4.3,17.9,9.4,26.1,15.1L473.2,87.2z"/>
	<path class="st4" d="M404.4,56.7c1.5-8.2-4-16-12.2-17.5c-0.9-0.2-1.8-0.2-2.7-0.2c-7.3,0-13.5,5.2-14.9,12.5L368,88.7
		c10.2,0.9,20.1,2.6,29.7,5.2L404.4,56.7z"/>
	<path class="st4" d="M329.2,51.5C328,44.3,321.8,39,314.5,39c-0.9,0-1.8,0.1-2.7,0.2c-8.1,1.5-13.6,9.3-12.3,17.4l6.6,37.4
		c9.6-2.5,19.5-4.3,29.7-5.2L329.2,51.5z"/>
	<path class="st4" d="M256.9,72.1c-2.7-4.6-7.6-7.5-13-7.5c-2.6,0-5.2,0.7-7.5,2c-3.5,2-6,5.2-7.1,9.1s-0.5,8,1.5,11.5l19,32.9
		c8.2-5.7,17-10.8,26.1-15.1L256.9,72.1z"/>
	<path class="st4" d="M196.1,116.4c-2.7-2.3-6.2-3.5-9.7-3.5c-4.5,0-8.7,2-11.5,5.4c-5.3,6.3-4.5,15.8,1.9,21.3l29,24.3
		c5.8-8.2,12.3-16,19.4-23.1L196.1,116.4z"/>
	<path class="st4" d="M154,178.9c-1.7-0.6-3.4-1-5.2-1c-6.3,0-12,4-14.1,10c-2.8,7.9,1.1,16.3,8.9,19.3l35.7,13
		c2.6-9.8,6.1-19.3,10.3-28.4L154,178.9z"/>
	<path class="st4" d="M173.7,251.9h-37.9c-8.3,0-15.1,6.8-15.1,15.1s6.8,15.1,15.1,15.1h37.9c-0.4-5-0.6-10-0.6-15.1
		C173,261.9,173.2,256.9,173.7,251.9z"/>
	<path class="st4" d="M143.6,326.8c-3.8,1.4-6.9,4.2-8.6,7.9c-1.7,3.7-1.8,7.8-0.4,11.5c2.1,5.9,7.8,9.9,14.1,9.9l0,0
		c1.8,0,3.6-0.3,5.3-1l35.5-13c-4.2-9.1-7.7-18.5-10.3-28.3L143.6,326.8z"/>
	<path class="st4" d="M176.6,394.5c-6.4,5.4-7.2,15-1.8,21.3c2.9,3.4,7.1,5.4,11.6,5.4l0,0c3.6,0,7-1.3,9.7-3.5l29.1-24.4
		c-7.1-7.1-13.6-14.9-19.4-23.1L176.6,394.5z"/>
	<path class="st4" d="M230.8,446.8c-4.1,7.3-1.6,16.5,5.7,20.5c2.3,1.3,4.9,2,7.5,2l0,0c5.4,0,10.4-2.9,13-7.6l18.9-32.7
		c-9.2-4.3-17.9-9.4-26.1-15.1L230.8,446.8z"/>
	<path class="st4" d="M299.6,477.3c-1.5,8.2,4,16,12.2,17.5c0.9,0.2,1.8,0.2,2.7,0.2l0,0c7.3,0,13.5-5.2,14.9-12.5l6.6-37.4
		c-10.2-0.9-20.1-2.6-29.7-5.2L299.6,477.3z"/>
	<path class="st4" d="M374.7,482.7c1.3,7.2,7.6,12.4,15,12.5l0,0c0.8,0,1.6-0.1,2.4-0.2c8.2-1.3,13.7-9.1,12.4-17.4l-6.6-37.5
		c-9.6,2.5-19.5,4.3-29.7,5.2L374.7,482.7z"/>
	<path class="st4" d="M447,461.7c2.7,4.7,7.7,7.6,13.1,7.6l0,0c2.6,0,5.2-0.7,7.4-2c3.5-2,6-5.2,7.1-9.1s0.5-8-1.5-11.5l-19-32.9
		c-8.2,5.7-17,10.8-26.1,15.1L447,461.7z"/>
	<path class="st4" d="M527.4,394.4l-29-24.4c-5.8,8.2-12.3,16-19.4,23.1l29,24.4c2.7,2.3,6.1,3.6,9.7,3.6c4.5,0,8.7-2,11.6-5.4
		l0.1-0.1C534.5,409.3,533.7,399.8,527.4,394.4z"/>
	<path class="st4" d="M560.4,326.8l-35.6-13c-2.7,9.8-6.1,19.3-10.3,28.3l35.7,13c1.7,0.6,3.4,0.9,5.1,0.9c6.3,0,11.9-3.8,14.2-9.8
		l0.1-0.2l0.1-0.2C572.2,338,568.1,329.6,560.4,326.8z"/>
</g>
<g class="st5">
	<path class="st6" d="M952.2,302.9h-37.4c0,0.9,0.1,1.7,0.1,2.6c0,0.3,0,0.7,0,1c0,1.5,0.1,3,0.1,4.5s0,3-0.1,4.5c0,0.3,0,0.7,0,1
		c0,0.9-0.1,1.7-0.1,2.6h37.4c4.5,0,8.1-3.6,8.1-8.1S956.7,302.9,952.2,302.9z"/>
	<path class="st6" d="M914.9,305.5c0,0.3,0,0.7,0,1C914.9,306.2,914.9,305.9,914.9,305.5z"/>
	<path class="st6" d="M914.9,316.5c0-0.3,0-0.7,0-1C914.9,315.8,914.9,316.1,914.9,316.5z"/>
	<path class="st6" d="M946.8,234.3c-1.5-4.2-6.2-6.4-10.4-4.8l-35.1,12.8c2.1,5,3.9,10,5.5,15.2l35.2-12.9
		C946.2,243.1,948.3,238.5,946.8,234.3z"/>
	<path class="st6" d="M901.3,242.3c2.1,5,3.9,10,5.5,15.2l0,0C905.2,252.3,903.4,247.3,901.3,242.3L901.3,242.3z"/>
	<path class="st6" d="M875.8,199.2c0.6,0.8,1.3,1.6,1.9,2.4c0.2,0.2,0.4,0.4,0.5,0.7l28.7-24.1c3.4-2.9,3.9-8,1-11.4s-8-3.9-11.4-1
		l-28.7,24.1c0.1,0.2,0.3,0.3,0.4,0.5c2.6,2.8,5,5.7,7.4,8.6C875.7,199.1,875.7,199.1,875.8,199.2z"/>
	<path class="st6" d="M877.7,201.6c-0.6-0.8-1.3-1.6-1.9-2.4C876.4,200,877,200.8,877.7,201.6z"/>
	<path class="st6" d="M868.2,190.4c2.5,2.8,5,5.7,7.4,8.6C873.2,196.1,870.8,193.2,868.2,190.4z"/>
	<path class="st6" d="M851.1,127.8c2.2-3.9,0.9-8.8-3-11s-8.8-0.9-11,3l-18.6,32.3c4.8,2.5,9.5,5.2,14,8.1L851.1,127.8z"/>
	<path class="st6" d="M832.4,160.3L832.4,160.3c-4.5-3-9.2-5.7-13.9-8.2l-0.1,0.1C823.2,154.7,827.9,157.4,832.4,160.3z"/>
	<path class="st6" d="M781.5,99.4c0.8-4.4-2.2-8.6-6.6-9.4c-4.4-0.8-8.6,2.2-9.4,6.6l-6.5,36.8c5.4,0.7,10.7,1.6,15.9,2.8
		L781.5,99.4z"/>
	<path class="st6" d="M696.9,136.3c5.2-1.2,10.5-2.1,15.9-2.8l-6.5-36.8c-0.7-4.5-4.9-7.4-9.3-6.6s-7.3,5-6.6,9.4L696.9,136.3z"/>
	<path class="st6" d="M639.5,160.1c4.5-2.9,9.2-5.6,14-8.1l-18.7-32.4c-2.2-3.8-7.1-5.1-11-2.9s-5.2,7.2-3,11L639.5,160.1z"/>
	<path class="st6" d="M575.6,165.8c-3.5-2.9-8.6-2.4-11.4,1c-2.9,3.4-2.4,8.5,1,11.4l28.6,24.1c3.3-4.3,6.8-8.4,10.4-12.4
		L575.6,165.8z"/>
	<path class="st6" d="M604.3,189.9L604.3,189.9c-3.7,3.9-7.2,8.1-10.5,12.4h0.1C597.2,198,600.6,193.9,604.3,189.9z"/>
	<path class="st6" d="M570.6,242.3l-35.1-12.8c-4.1-1.6-8.8,0.6-10.3,4.8s0.6,8.8,4.8,10.4l35.1,12.8
		C566.7,252.3,568.6,247.3,570.6,242.3z"/>
	<path class="st6" d="M557,311c0-1.5,0-3,0.1-4.5c0-0.3,0-0.7,0-1c0-0.9,0.1-1.7,0.1-2.6h-37.4c-4.5,0-8.1,3.6-8.1,8.1
		s3.6,8.1,8.1,8.1h37.4c0-0.9-0.1-1.7-0.1-2.6c0-0.3,0-0.7,0-1C557,314,557,312.5,557,311z"/>
	<path class="st6" d="M557.1,305.5c0,0.3,0,0.7,0,1C557.1,306.2,557.1,305.9,557.1,305.5z"/>
	<path class="st6" d="M557.1,316.5c0-0.3,0-0.7,0-1C557.1,315.8,557.1,316.1,557.1,316.5z"/>
	<path class="st6" d="M530,377.4c-4.2,1.5-6.4,6.2-4.8,10.4c1.5,4.2,6.2,6.4,10.4,4.8l35.1-12.8c-1.7-4.1-3.3-8.3-4.6-12.5
		c-0.3-0.9-0.6-1.8-0.9-2.7L530,377.4z"/>
	<path class="st6" d="M565.2,364.6c0.3,0.9,0.6,1.8,0.9,2.7C565.8,366.4,565.5,365.5,565.2,364.6L565.2,364.6z"/>
	<path class="st6" d="M596.2,422.8c-0.6-0.8-1.3-1.6-1.9-2.4c-0.2-0.2-0.4-0.4-0.5-0.7l-28.7,24.1c-3.4,2.9-3.9,8-1,11.4
		c2.9,3.4,8,3.9,11.4,1l28.7-24.1c-0.1-0.2-0.3-0.3-0.4-0.5c-2.6-2.8-5-5.7-7.4-8.6C596.3,422.9,596.3,422.9,596.2,422.8z"/>
	<path class="st6" d="M603.8,431.6c-2.5-2.8-5-5.7-7.4-8.6C598.8,425.9,601.2,428.8,603.8,431.6z"/>
	<path class="st6" d="M594.3,420.4c0.6,0.8,1.3,1.6,1.9,2.4C595.6,422,595,421.2,594.3,420.4z"/>
	<path class="st6" d="M620.9,494.2c-2.2,3.9-0.9,8.8,3,11s8.8,0.9,11-3l18.6-32.3c-4.8-2.5-9.5-5.2-14-8.1L620.9,494.2z"/>
	<path class="st6" d="M639.6,461.7L639.6,461.7c4.5,3,9.2,5.7,13.9,8.2l0.1-0.1C648.8,467.3,644.1,464.6,639.6,461.7z"/>
	<path class="st6" d="M690.5,522.6c-0.8,4.4,2.2,8.6,6.6,9.4c4.4,0.8,8.6-2.2,9.4-6.6l6.5-36.8c-5.4-0.7-10.7-1.6-15.9-2.8
		L690.5,522.6z"/>
	<path class="st6" d="M775.1,485.8c-5.2,1.2-10.5,2.1-15.9,2.8l6.4,36.8c0.8,4.4,5,7.3,9.4,6.6s7.3-5,6.6-9.4L775.1,485.8z"/>
	<path class="st6" d="M832.4,461.9c-4.5,2.9-9.2,5.6-14,8.1l18.7,32.3c2.2,3.9,7.2,5.2,11,3c3.9-2.2,5.2-7.2,3-11L832.4,461.9z"/>
	<path class="st6" d="M906.9,443.8l-28.7-24.1c-0.2,0.3-0.4,0.6-0.7,0.8c-0.4,0.5-0.9,1.1-1.3,1.6c-0.5,0.7-1.1,1.3-1.6,2
		c-0.3,0.3-0.5,0.6-0.8,0.9c-1.7,2.1-3.5,4.1-5.3,6.1l-0.1,0.1c-0.2,0.2-0.4,0.5-0.6,0.7l28.7,24.1c3.4,2.9,8.5,2.4,11.4-1
		C910.7,451.8,910.3,446.7,906.9,443.8z"/>
	<path class="st6" d="M877.5,420.5c-0.4,0.6-0.9,1.1-1.3,1.6C876.7,421.6,877.1,421.1,877.5,420.5z"/>
	<path class="st6" d="M874.6,424.2c-0.3,0.3-0.5,0.6-0.8,0.9C874.1,424.8,874.4,424.5,874.6,424.2z"/>
	<path class="st6" d="M868.4,431.4l0.1-0.1C868.5,431.3,868.5,431.3,868.4,431.4z"/>
	<path class="st6" d="M942,377.4l-35.1-12.8c-1.6,5.2-3.5,10.2-5.5,15.2l35.1,12.8c4.2,1.5,8.8-0.6,10.4-4.8
		C948.3,383.5,946.2,378.9,942,377.4z"/>
</g>
<g class="st5">
	<path class="st6" d="M956.9,272c-0.8-4.4-5-7.3-9.4-6.6l-36.8,6.6c0.3,1.1,0.5,2.3,0.7,3.4c0.2,1.2,0.5,2.3,0.7,3.5
		c0,0.2,0.1,0.3,0.1,0.5c0.2,1.2,0.4,2.4,0.6,3.7c0,0.3,0.1,0.5,0.1,0.8c0.2,1.3,0.4,2.7,0.6,4.1l36.8-6.5
		C954.8,280.6,957.7,276.4,956.9,272z"/>
	<path class="st6" d="M912.1,278.9c0,0.2,0.1,0.3,0.1,0.5C912.2,279.2,912.1,279.1,912.1,278.9z"/>
	<path class="st6" d="M911.4,275.4c-0.2-1.1-0.5-2.3-0.7-3.4l0,0C911,273.1,911.2,274.3,911.4,275.4z"/>
	<path class="st6" d="M912.9,283.8c0-0.3-0.1-0.5-0.1-0.8C912.8,283.3,912.9,283.6,912.9,283.8z"/>
	<path class="st6" d="M930.3,198.8c-2.2-3.9-7.2-5.2-11-3l-32.4,18.7c2.9,4.5,5.6,9.2,8.1,14l32.4-18.7
		C931.2,207.6,932.5,202.7,930.3,198.8z"/>
	<path class="st6" d="M849.2,172.4c0.3,0.3,0.6,0.5,0.9,0.8c2.1,1.7,4.1,3.5,6.1,5.3l0.1,0.1c0.2,0.2,0.5,0.4,0.7,0.6l24.1-28.7
		c2.9-3.4,2.4-8.5-1-11.4c-3.4-2.9-8.5-2.4-11.4,1l-24.1,28.7c0.3,0.2,0.6,0.4,0.9,0.7c0.5,0.4,1.1,0.9,1.6,1.3
		C847.9,171.3,848.5,171.8,849.2,172.4z"/>
	<path class="st6" d="M845.6,169.5c0.5,0.4,1.1,0.9,1.6,1.3C846.6,170.3,846.1,169.9,845.6,169.5z"/>
	<path class="st6" d="M856.4,178.6l-0.1-0.1C856.3,178.5,856.3,178.5,856.4,178.6z"/>
	<path class="st6" d="M850.1,173.1c-0.3-0.3-0.6-0.5-0.9-0.8C849.5,172.6,849.8,172.9,850.1,173.1z"/>
	<path class="st6" d="M817.6,110.6c1.5-4.2-0.6-8.8-4.8-10.4c-4.2-1.5-8.8,0.6-10.4,4.8l-12.8,35.1c5.2,1.6,10.2,3.5,15.2,5.5
		L817.6,110.6z"/>
	<path class="st6" d="M744.1,132.2V94.8c0-4.5-3.6-8.1-8.1-8.1V132c1.5,0,3,0,4.5,0.1c0.3,0,0.7,0,1,0
		C742.4,132.1,743.2,132.2,744.1,132.2z"/>
	<path class="st6" d="M740.5,132.1c0.3,0,0.7,0,1,0C741.1,132.1,740.8,132.1,740.5,132.1z"/>
	<path class="st6" d="M736,132V86.7c-4.5,0-8.1,3.6-8.1,8.1v37.4c0.9,0,1.7-0.1,2.6-0.1c0.3,0,0.7,0,1,0C733,132,734.5,132,736,132z
		"/>
	<path class="st6" d="M730.5,132.1c0.3,0,0.7,0,1,0C731.2,132.1,730.9,132.1,730.5,132.1z"/>
	<path class="st6" d="M669.6,105c-1.5-4.2-6.1-6.3-10.3-4.8s-6.4,6.2-4.8,10.4l12.8,35.1c5-2.1,10-3.9,15.2-5.5L669.6,105z"/>
	<path class="st6" d="M682.5,140.2L682.5,140.2c-5.2,1.6-10.2,3.4-15.2,5.5l0,0C672.3,143.6,677.3,141.8,682.5,140.2z"/>
	<path class="st6" d="M603.2,140.2c-2.9-3.5-8-3.9-11.4-1c-3.4,2.9-3.9,8-1,11.4l24.1,28.7c4-3.7,8.1-7.1,12.4-10.4L603.2,140.2z"/>
	<path class="st6" d="M627.3,168.9L627.3,168.9c-4.3,3.2-8.5,6.7-12.4,10.4l0,0C618.9,175.7,623,172.2,627.3,168.9z"/>
	<path class="st6" d="M585.2,214.5l-32.4-18.7c-3.9-2.2-8.8-0.8-11.1,3c-2.2,3.9-0.9,8.8,3,11l32.4,18.7
		C579.6,223.7,582.3,219,585.2,214.5z"/>
	<path class="st6" d="M559.8,279.4c0-0.2,0.1-0.3,0.1-0.5c0.2-1.2,0.4-2.3,0.7-3.5c0.2-1.1,0.5-2.3,0.7-3.4l-36.8-6.5
		c-4.5-0.8-8.6,2.1-9.4,6.5s2.2,8.6,6.6,9.4l36.8,6.5c0.2-1.4,0.4-2.7,0.6-4.1c0-0.3,0.1-0.5,0.1-0.8
		C559.4,281.8,559.6,280.6,559.8,279.4z"/>
	<path class="st6" d="M561.3,272L561.3,272c-0.3,1.1-0.5,2.3-0.7,3.4C560.8,274.3,561,273.1,561.3,272z"/>
	<path class="st6" d="M559.1,283.8c0-0.3,0.1-0.5,0.1-0.8C559.2,283.3,559.1,283.6,559.1,283.8z"/>
	<path class="st6" d="M559.9,278.9c0,0.2-0.1,0.3-0.1,0.5C559.8,279.2,559.9,279.1,559.9,278.9z"/>
	<path class="st6" d="M521.6,340.6c-4.4,0.8-7.3,5-6.6,9.4c0.8,4.4,5,7.3,9.4,6.6l36.8-6.5c-1.2-5.2-2.1-10.5-2.8-15.9L521.6,340.6z
		"/>
	<path class="st6" d="M544.7,412.1c-3.9,2.2-5.2,7.2-3,11c2.2,3.9,7.2,5.2,11,3l32.4-18.7c-2.9-4.5-5.6-9.2-8.1-14L544.7,412.1z"/>
	<path class="st6" d="M622.8,449.6c-0.3-0.3-0.6-0.5-0.9-0.8c-2.1-1.7-4.1-3.5-6.1-5.3l-0.1-0.1c-0.2-0.2-0.5-0.4-0.7-0.6
		l-24.1,28.7c-2.9,3.4-2.4,8.5,1,11.4c3.4,2.9,8.5,2.4,11.4-1l24.1-28.7c-0.3-0.2-0.6-0.4-0.8-0.7c-0.6-0.4-1.1-0.9-1.6-1.3
		C624.1,450.7,623.5,450.2,622.8,449.6z"/>
	<path class="st6" d="M626.5,452.5c-0.6-0.4-1.1-0.9-1.6-1.3C625.4,451.7,625.9,452.1,626.5,452.5z"/>
	<path class="st6" d="M615.6,443.4l0.1,0.1C615.7,443.5,615.7,443.5,615.6,443.4z"/>
	<path class="st6" d="M621.9,448.9c0.3,0.3,0.6,0.5,0.9,0.8C622.5,449.4,622.2,449.1,621.9,448.9z"/>
	<path class="st6" d="M654.4,511.4c-1.5,4.2,0.6,8.8,4.8,10.4c4.2,1.6,8.8-0.6,10.4-4.8l12.8-35.1c-5.2-1.6-10.2-3.5-15.2-5.5
		L654.4,511.4z"/>
	<path class="st6" d="M736,490v45.3c4.5,0,8.1-3.6,8.1-8.1v-37.4c-0.9,0-1.7,0.1-2.6,0.1c-0.3,0-0.7,0-1,0
		C739,490,737.5,490,736,490z"/>
	<path class="st6" d="M741.5,489.9c-0.3,0-0.7,0-1,0C740.8,489.9,741.1,489.9,741.5,489.9z"/>
	<path class="st6" d="M727.9,489.8v37.4c0,4.5,3.6,8.1,8.1,8.1V490c-1.5,0-3,0-4.5-0.1c-0.3,0-0.7,0-1,0
		C729.6,489.9,728.8,489.8,727.9,489.8z"/>
	<path class="st6" d="M731.5,489.9c-0.3,0-0.7,0-1,0C730.9,489.9,731.2,489.9,731.5,489.9z"/>
	<path class="st6" d="M802.4,517c1.5,4.2,6.2,6.4,10.4,4.8c4.2-1.5,6.4-6.2,4.8-10.4l-12.8-35.1c-4.1,1.7-8.3,3.3-12.5,4.6
		c-0.9,0.3-1.8,0.6-2.7,0.9L802.4,517z"/>
	<path class="st6" d="M789.6,481.8c0.9-0.3,1.8-0.6,2.7-0.9C791.4,481.2,790.5,481.5,789.6,481.8L789.6,481.8z"/>
	<path class="st6" d="M857.1,442.8c-0.2,0.1-0.3,0.3-0.5,0.4c-2.8,2.6-5.7,5-8.6,7.4c-0.1,0-0.1,0.1-0.2,0.1
		c-0.8,0.6-1.6,1.3-2.4,1.9c-0.2,0.2-0.4,0.4-0.7,0.5l24.1,28.7c2.9,3.4,8,3.9,11.4,1s3.9-8,1-11.4L857.1,442.8z"/>
	<path class="st6" d="M845.4,452.7c0.8-0.6,1.6-1.3,2.4-1.9C847,451.4,846.2,452,845.4,452.7z"/>
	<path class="st6" d="M856.6,443.2c-2.8,2.5-5.7,5-8.6,7.4C850.9,448.2,853.8,445.8,856.6,443.2z"/>
	<path class="st6" d="M927.3,412.1l-32.4-18.7c-2.5,4.8-5.2,9.5-8.1,14l32.4,18.7c3.9,2.2,8.8,0.9,11-3
		C932.5,419.3,931.2,414.4,927.3,412.1z"/>
	<path class="st6" d="M894.9,393.4c-2.5,4.8-5.2,9.5-8.1,14l0,0C889.7,402.9,892.4,398.2,894.9,393.4L894.9,393.4z"/>
	<path class="st6" d="M950.4,340.6l-36.8-6.5c-0.7,5.4-1.6,10.7-2.8,15.9l36.8,6.5c4.4,0.8,8.6-2.2,9.4-6.6
		C957.8,345.5,954.8,341.4,950.4,340.6z"/>
</g>
<path class="st7" d="M382.7,399.1L382.7,399.1c-0.1-0.1-0.1-0.1-0.1-0.1L382.7,399.1z"/>
<path class="st7" d="M278.1,491.9c-17-5.8-33.5-13.5-49.1-23.1c-1.3-0.8-3-1.1-4.6-0.7c-1.7,0.4-3,1.3-3.9,2.7
	c-1.5,2.5-0.9,6.2,1.4,8.1c0.2,0.2,0.4,0.3,0.6,0.4c16.5,10.2,33.8,18.3,51.8,24.3c18,5.8,36.8,9.6,56.1,11.2c0.2,0,0.5,0,0.7,0
	c3-0.2,5.7-2.7,5.9-5.6c0.1-1.5-0.4-3.1-1.5-4.4s-2.6-2.1-4.1-2.2C313,501,295.2,497.4,278.1,491.9z"/>
<path class="st7" d="M432.2,43.6c-16.9-6.1-34.6-10.4-52.8-12.5c-1.5-0.2-3-1-4-2.4c-1.1-1.3-1.5-2.9-1.4-4.5
	c0.3-2.9,3.1-5.4,6.1-5.4c0.2,0,0.5,0,0.7,0c19.2,2.3,37.8,6.8,55.6,13.3c17.7,6.7,34.8,15.4,50.9,26.2c0.2,0.1,0.4,0.3,0.6,0.4
	c2.2,2,2.7,5.7,1.1,8.1c-0.9,1.3-2.3,2.2-3.9,2.5c-1.7,0.3-3.3,0-4.6-0.8C465.2,58.3,449,50,432.2,43.6z"/>
<path class="st8" d="M820.9,543.3L395.7,118.1c-16.9-16.9-16.9-44.4,0-61.4l0,0c16.9-16.9,44.4-16.9,61.4,0l425.2,425.2
	c16.9,16.9,16.9,44.4,0,61.4l0,0C865.3,560.2,837.9,560.2,820.9,543.3z"/>
</svg>
