<?xml version="1.0" encoding="utf-8"?>
<!-- Generator: Adobe Illustrator 19.0.0, SVG Export Plug-In . SVG Version: 6.00 Build 0)  -->
<svg version="1.1" id="Layer_1" xmlns="http://www.w3.org/2000/svg" xmlns:xlink="http://www.w3.org/1999/xlink" x="0px" y="0px"
	 viewBox="96 11 512 512" style="enable-background:new 96 11 512 512;" xml:space="preserve">
<style type="text/css">
	.st0{display:none;}
	.st1{fill:#F0353D;}
	.st2{fill:#FD6A33;}
	.st3{fill:#FF8C29;}
	.st4{fill:#FFD1A9;}
	.st5{fill:#365558;}
	.st6{fill:#0295AA;}
	.st7{fill:#4ACFD9;}
	.st8{fill:none;stroke:#000000;stroke-miterlimit:10;}
	.st9{fill:#9BAAAB;}
	.st10{fill:#CDD4D5;}
	.st11{fill:#E6EAEA;}
	.st12{fill:#FFFFFF;}
	.st13{fill:#BCD643;}
	.st14{fill:none;stroke:#4ACFD9;stroke-miterlimit:10;}
	.st15{fill:none;stroke:#FFFFFF;stroke-width:10;stroke-linecap:round;stroke-miterlimit:10;}
	.st16{fill:none;stroke:#FFD1A9;stroke-width:10;stroke-linecap:round;stroke-linejoin:round;stroke-miterlimit:10;}
	
		.st17{fill:none;stroke:#BCD643;stroke-width:30;stroke-linecap:round;stroke-linejoin:round;stroke-miterlimit:10;stroke-dasharray:30;}
	
		.st18{fill:none;stroke:#BCD643;stroke-width:30;stroke-linecap:round;stroke-linejoin:round;stroke-miterlimit:10;stroke-dasharray:35;}
</style>
<polygon class="st0" points="1260.7,-574 1002,-574 1002,-62 1514,-62 1514,-225.9 1260.7,-225.9 "/>
<rect x="1260.7" y="-574" class="st0" width="253.3" height="348.1"/>
<g class="st0">
	
		<text transform="matrix(1 0 0 1 1038.4224 -443.0488)" style="display:inline;fill:#CDD4D5; font-family:'Saira-Black'; font-size:64.1866px;">E = mc</text>
	
		<text transform="matrix(1 0 0 1 1231.1074 -464.4227)" style="display:inline;fill:#CDD4D5; font-family:'Saira-Black'; font-size:37.4208px;">2</text>
</g>
<g>
	<rect x="-890" y="23" class="st1" width="128" height="128"/>
	<rect x="-762" y="23" class="st2" width="128" height="128"/>
	<rect x="-634" y="23" class="st3" width="128" height="128"/>
	<rect x="-506" y="23" class="st4" width="128" height="128"/>
	<rect x="-890" y="151" class="st5" width="128" height="128"/>
	<rect x="-762" y="151" class="st6" width="128" height="128"/>
	<rect x="-634" y="151" class="st7" width="128" height="128"/>
	<rect x="-506" y="151" class="st8" width="128" height="128"/>
	<rect x="-890" y="279" class="st9" width="128" height="128"/>
	<rect x="-762" y="279" class="st10" width="128" height="128"/>
	<rect x="-634" y="279" class="st11" width="128" height="128"/>
	<rect x="-506" y="279" class="st12" width="128" height="128"/>
	<rect x="-890" y="407" class="st13" width="128" height="128"/>
	<rect x="-762" y="407" class="st8" width="128" height="128"/>
	<rect x="-634" y="407" class="st8" width="128" height="128"/>
	<rect x="-506" y="407" class="st8" width="128" height="128"/>
</g>
<path class="st14" d="M124.5,75.5"/>
<path class="st3" d="M168.5,194.4v145.1c40,0,72.5-32.5,72.5-72.5S208.8,194.4,168.5,194.4z"/>
<path class="st2" d="M96,266.9c0,40,32.5,72.5,72.5,72.5v-145C128.5,194.4,96,226.9,96,266.9z"/>
<path class="st7" d="M535.5,378v145c40,0,72.5-32.5,72.5-72.5S575.5,378,535.5,378z"/>
<path class="st6" d="M463,450.5c0,40,32.5,72.5,72.5,72.5V378C495.5,378,463,410.5,463,450.5z"/>
<path class="st15" d="M589,437c6.9,28.2-10.3,56.6-38.4,63.5"/>
<path class="st16" d="M221.5,250c9.1,27.5-6,57.2-33.5,66.3"/>
<path class="st7" d="M535.5,12v145c40,0,72.5-32.5,72.5-72.5S575.5,12,535.5,12z"/>
<path class="st6" d="M463,84.5c0,40,32.5,72.5,72.5,72.5V12C495.5,12,463,44.5,463,84.5z"/>
<line class="st17" x1="251.9" y1="317" x2="438.5" y2="413.5"/>
<line class="st17" x1="255.3" y1="218.3" x2="441.8" y2="121.8"/>
<path class="st7" d="M535.5,192v145c40,0,72.5-32.5,72.5-72.5S575.5,192,535.5,192z"/>
<path class="st6" d="M463,264.5c0,40,32.5,72.5,72.5,72.5V192C495.5,192,463,224.5,463,264.5z"/>
<line class="st18" x1="264" y1="267" x2="438.5" y2="267"/>
<path class="st15" d="M590.2,251.3c6.9,28.2-10.3,56.6-38.4,63.5"/>
<path class="st15" d="M587.5,72.1c6.9,28.2-10.3,56.6-38.4,63.5"/>
</svg>
