<?xml version="1.0" encoding="utf-8"?>
<!-- Generator: Adobe Illustrator 19.0.0, SVG Export Plug-In . SVG Version: 6.00 Build 0)  -->
<svg version="1.1" id="Layer_1" xmlns="http://www.w3.org/2000/svg" xmlns:xlink="http://www.w3.org/1999/xlink" x="0px" y="0px"
	 viewBox="96 11 512 512" style="enable-background:new 96 11 512 512;" xml:space="preserve">
<style type="text/css">
	.st0{display:none;}
	.st1{fill:#F0353D;}
	.st2{fill:#FD6A33;}
	.st3{fill:#FF8C29;}
	.st4{fill:#FFD1A9;}
	.st5{fill:#365558;}
	.st6{fill:#0295AA;}
	.st7{fill:#4ACFD9;}
	.st8{fill:none;stroke:#000000;stroke-miterlimit:10;}
	.st9{fill:#9BAAAB;}
	.st10{fill:#CDD4D5;}
	.st11{fill:#E6EAEA;}
	.st12{fill:#FFFFFF;}
	.st13{fill:#BCD643;}
	.st14{display:none;fill:none;stroke:#4ACFD9;stroke-miterlimit:10;}
	.st15{display:none;fill:#CDD4D5;}
	.st16{display:none;fill:#E6EAEA;}
	.st17{display:none;fill:#9BAAAB;}
	.st18{display:none;fill:#0295AA;}
	.st19{display:none;fill:#4ACFD9;}
	.st20{display:none;fill:#365558;}
</style>
<polygon class="st0" points="1164.7,-585 906,-585 906,-73 1418,-73 1418,-236.9 1164.7,-236.9 "/>
<rect x="1164.7" y="-585" class="st0" width="253.3" height="348.1"/>
<g class="st0">
	
		<text transform="matrix(1 0 0 1 942.4224 -454.0488)" style="display:inline;fill:#CDD4D5; font-family:'Saira-Black'; font-size:64.1866px;">E = mc</text>
	
		<text transform="matrix(1 0 0 1 1135.1074 -475.4227)" style="display:inline;fill:#CDD4D5; font-family:'Saira-Black'; font-size:37.4208px;">2</text>
</g>
<g>
	<rect x="-605" y="25.3" class="st1" width="128" height="128"/>
	<rect x="-477" y="25.3" class="st2" width="128" height="128"/>
	<rect x="-349" y="25.3" class="st3" width="128" height="128"/>
	<rect x="-221" y="25.3" class="st4" width="128" height="128"/>
	<rect x="-605" y="153.3" class="st5" width="128" height="128"/>
	<rect x="-477" y="153.3" class="st6" width="128" height="128"/>
	<rect x="-349" y="153.3" class="st7" width="128" height="128"/>
	<rect x="-221" y="153.3" class="st8" width="128" height="128"/>
	<rect x="-605" y="281.3" class="st9" width="128" height="128"/>
	<rect x="-477" y="281.3" class="st10" width="128" height="128"/>
	<rect x="-349" y="281.3" class="st11" width="128" height="128"/>
	<rect x="-221" y="281.3" class="st12" width="128" height="128"/>
	<rect x="-605" y="409.3" class="st13" width="128" height="128"/>
	<rect x="-477" y="409.3" class="st8" width="128" height="128"/>
	<rect x="-349" y="409.3" class="st8" width="128" height="128"/>
	<rect x="-221" y="409.3" class="st8" width="128" height="128"/>
</g>
<path class="st14" d="M570.5,71.9"/>
<path class="st15" d="M385.5,29.5v352.6c0,4.1,3.4,7.5,7.5,7.5h218c2,0,3.9-0.8,5.3-2.2l75.3-75.3c1.4-1.5,2.2-3.3,2.2-5.3V29.5
	c0-4.1-3.4-7.5-7.5-7.5H393C388.9,22,385.5,25.4,385.5,29.5z"/>
<path class="st16" d="M539.6,22v367.6H611c2,0,3.9-0.8,5.3-2.2l75.3-75.3c1.4-1.5,2.2-3.3,2.2-5.3V29.5c0-4.1-3.4-7.5-7.5-7.5H539.6
	z"/>
<path class="st17" d="M693.6,306.7h-75.3c-4.1,0-7.5,3.4-7.5,7.5v75.3c2,0,3.8-0.7,5.3-2.2l75.3-75.3
	C692.9,310.6,693.6,308.7,693.6,306.7L693.6,306.7z"/>
<path class="st18" d="M192,127.7v397.9c0,4.6,3.8,8.4,8.4,8.4h245.9c2.3,0,4.4-0.9,6-2.5l84.9-84.9c1.5-1.6,2.5-3.7,2.5-6v-313
	c0-4.6-3.8-8.4-8.4-8.4H200.4C195.8,119.3,192,123.1,192,127.7z"/>
<path class="st19" d="M365.9,119.3V534h80.5c2.3,0,4.4-0.9,6-2.5l84.9-84.9c1.5-1.6,2.5-3.7,2.5-6v-313c0-4.6-3.8-8.4-8.4-8.4
	L365.9,119.3L365.9,119.3z"/>
<path class="st20" d="M539.6,440.5h-84.9c-4.6,0-8.4,3.8-8.4,8.4v84.9c2.3,0,4.3-0.8,6-2.5l84.9-84.9
	C538.8,444.9,539.6,442.7,539.6,440.5L539.6,440.5z"/>
<g>
	<path class="st12" d="M581.9,201.9H351.2v130.2h230.7c10.3,0,18.7-8.4,18.7-18.7v-92.7C600.7,210.3,592.2,201.9,581.9,201.9z"/>
	<path class="st11" d="M124.3,201.9c-10.3,0-18.7,8.4-18.7,18.7v92.7c0,10.3,8.4,18.7,18.7,18.7h227.1V201.9L124.3,201.9
		L124.3,201.9z"/>
	<circle class="st2" cx="207.6" cy="267" r="18"/>
	<circle class="st2" cx="351.2" cy="267" r="18"/>
	<circle class="st3" cx="494.8" cy="267" r="18"/>
	<path class="st7" d="M352,341.1h226.3c16.4,0,29.7-13.3,29.7-29.7v-89c0-16.4-13.3-29.7-29.7-29.7H352v15.6h226.3
		c7.8,0,14,6.2,14,14v89c0,7.8-6.2,14-14,14H352V341.1z"/>
	<path class="st6" d="M352,325.5H125.7c-7.8,0-14-6.2-14-14v-89c0-7.8,6.2-14,14-14H352v-15.6H125.7c-16.4,0-29.7,13.3-29.7,29.7v89
		c0,16.4,13.3,29.7,29.7,29.7H352V325.5z"/>
	<path class="st3" d="M352,285c9.5-0.5,17.2-8.3,17.2-18s-7.6-17.5-17.2-18V285z"/>
</g>
</svg>
