<?xml version="1.0" encoding="utf-8"?>
<!-- Generator: Adobe Illustrator 19.0.0, SVG Export Plug-In . SVG Version: 6.00 Build 0)  -->
<svg version="1.1" id="Layer_1" xmlns="http://www.w3.org/2000/svg" xmlns:xlink="http://www.w3.org/1999/xlink" x="0px" y="0px"
	 viewBox="206 -206 512 512" style="enable-background:new 206 -206 512 512;" xml:space="preserve">
<style type="text/css">
	.st0{fill:#0295AA;}
	.st1{fill:#4ACFD9;}
	.st2{fill:#687F82;}
	.st3{fill:#E6EAEA;}
	.st4{fill:#CDD4D5;}
	.st5{fill:none;stroke:#FFFFFF;stroke-width:30;stroke-linecap:round;stroke-miterlimit:10;}
</style>
<path class="st0" d="M292.3-70.7l1.2,363c0,7.5,6.2,13.7,13.7,13.7h143.2V-70.7H292.3z"/>
<path class="st1" d="M607.4,292.3l1.2-363H450.4V306h143.2C601.2,306,607.4,299.8,607.4,292.3z"/>
<path class="st2" d="M287.9-168.3c-7.9,0-14.3,6.4-14.3,14.3l-0.7,46.6h177.7v-60.9H287.9z"/>
<path class="st3" d="M627.6-154c0-7.9-6.4-14.3-14.3-14.3H450.6v60.9h177.7L627.6-154z"/>
<path class="st4" d="M414.7-205c-2.1,0-8.6,5.4-8.6,12.1l-0.2,24.8h44.7v-37L414.7-205L414.7-205z"/>
<path class="st3" d="M495.1-192.9c0-6.7-6.5-12.1-8.6-12.1h-35.9v37h44.7L495.1-192.9z"/>
<line class="st5" x1="450.6" y1="-6" x2="450.6" y2="246.7"/>
<line class="st5" x1="530.8" y1="-5.8" x2="530.8" y2="246.8"/>
<line class="st5" x1="370.6" y1="-6" x2="370.6" y2="246.7"/>
</svg>
