<?xml version="1.0" encoding="utf-8"?>
<!-- Generator: Adobe Illustrator 19.0.0, SVG Export Plug-In . SVG Version: 6.00 Build 0)  -->
<svg version="1.1" id="Layer_1" xmlns="http://www.w3.org/2000/svg" xmlns:xlink="http://www.w3.org/1999/xlink" x="0px" y="0px"
	 viewBox="96 11 512 512" style="enable-background:new 96 11 512 512;" xml:space="preserve">
<style type="text/css">
	.st0{display:none;}
	.st1{display:none;fill:#CDD4D5;}
	.st2{display:none;fill:#FD6A33;}
	.st3{display:none;fill:#FFD1A9;}
	.st4{fill:#0295AA;}
	.st5{display:none;fill:#0295AA;}
	.st6{fill:#4ACFD9;}
	.st7{display:none;fill:#4ACFD9;}
	.st8{fill:#CDD4D5;}
	.st9{fill:#9BAAAB;}
	.st10{display:none;fill:#9BAAAB;}
	.st11{fill:#365558;}
	.st12{fill:#F0353D;}
</style>
<rect x="576" y="66" class="st0" width="512" height="512"/>
<path class="st1" d="M1004.4,69.5l1.8-1.8c1.6-1.6,4.2-1.6,5.8,0l74.3,74.3c1.6,1.6,1.6,4.2,0,5.8l-1.8,1.8c-1.6,1.6-4.2,1.6-5.8,0
	l-74.3-74.3C1002.8,73.6,1002.8,71.1,1004.4,69.5z"/>
<rect x="999" y="82.1" transform="matrix(0.7071 -0.7071 0.7071 0.7071 207.9633 762.1424)" class="st2" width="49.9" height="95.8"/>
<rect x="867.7" y="180.1" transform="matrix(0.7071 -0.7071 0.7071 0.7071 109.9861 721.5685)" class="st2" width="116.7" height="95.8"/>
<rect x="959" y="119.3" transform="matrix(0.7071 -0.7071 0.7071 0.7071 170.7332 746.6513)" class="st3" width="55.3" height="95.8"/>
<rect x="788.8" y="261" transform="matrix(0.7071 -0.7071 0.7071 0.7071 29.0467 687.926)" class="st3" width="112.2" height="95.8"/>
<rect x="712.2" y="339.3" transform="matrix(0.7071 -0.7071 0.7071 0.7071 -49.1915 655.6431)" class="st2" width="109.3" height="95.8"/>
<path class="st4" d="M145.9,239.2c-15.1,14.9-15.1,38.9,0,53.8l177.3,174.7c15.1,14.9,39.4,14.9,54.5,0l43-42.4L190.5,195.2
	L145.9,239.2z"/>
<path class="st4" d="M554.5,293.4c15.1-14.8,15.1-38.8,0-53.7L377.2,65c-15.1-14.9-39.4-14.9-54.5,0l-41.8,41.2L511,336.3
	L554.5,293.4z"/>
<polygon class="st5" points="472.9,128.2 382.5,217.2 612.7,447.3 703,358.3 "/>
<path class="st6" d="M562.8,248.5c9.7-9.5,9.7-24.7,0-34.2L405.1,58.9c-9.7-9.5-25-9.5-34.7,0l-68.9,67.9l191,191L562.8,248.5z"/>
<path class="st6" d="M139.8,286.2c-9.7,9.6-9.7,24.7,0,34.2l157.7,155.4c9.7,9.5,25,9.5,34.7,0l70-69l-191-191L139.8,286.2z"/>
<polygon class="st7" points="493.5,148.8 403.2,237.9 594.2,428.8 684.5,339.8 "/>
<path class="st8" d="M147.3,184.3c-4.2,4.2-4.2,10.7,0,14.9s10.9,4.2,15.1,0l16.2-15.9l-15-15L147.3,184.3z"/>
<path class="st8" d="M284.4,78.9c4.2-4.2,4.2-10.7,0-14.9s-10.9-4.2-15.1,0l-15.4,15.2l15,15L284.4,78.9z"/>
<polygon class="st1" points="445.9,101.2 355.6,190.3 370.6,205.3 460.9,116.2 "/>
<path class="st9" d="M304.5,125.2l-23.6-23.3c-2.3-2.3-5.2-3.6-8.3-4l35.9,35.9C308.2,130.7,306.9,127.6,304.5,125.2z"/>
<path class="st9" d="M183.4,198l23.6,23.3c3.5,3.6,8.6,4.8,13.2,3.6l-40.3-40.3C178.6,189.2,179.7,194.3,183.4,198z"/>
<path class="st10" d="M496.5,166.5c3-2.9,4.3-6.8,4-10.7l-35.9-35.9c-4-0.4-8.2,0.9-11.3,4l-77.9,76.8c-1.7,1.7-2.9,3.7-3.5,5.9
	l40.3,40.3c2.3-0.6,4.6-1.8,6.4-3.6L496.5,166.5z"/>
<path class="st11" d="M332.2,422.3L201.6,293.7c-1.7-1.6-4.5-1.6-6.1,0l-14.4,23.5c-1.7,1.6-1.7,4.4,0,6l121.1,119.4
	c1.7,1.6,4.5,1.6,6.1,0l26.2-16.5C336.2,424.4,333.8,424.2,332.2,422.3z"/>
<path class="st4" d="M227.8,261.6c-2.1,2.1-2.1,5.6,0,7.7l127,125.2c2.1,2.1,5.7,2.1,7.8,0l13.7-13.5L242.5,247.1L227.8,261.6z"/>
<path class="st5" d="M589.5,373.8L462.8,248.9c-2.1-2.1-5.7-2.1-7.8,0l-20.5,20.2L568.3,403l21.5-21.2
	C591.7,379.4,591.7,375.9,589.5,373.8z"/>
<path class="st4" d="M473.1,285.3c2.1-2.1,2.1-5.6,0-7.7l-127-125.2c-2.1-2.1-5.7-2.1-7.8,0l-5.6,5.6l133.8,133.8L473.1,285.3z"/>
<path class="st5" d="M495.4,217l126.7,125c2.1,2.1,5.7,2.1,7.8,0l28.6-28.2L524.7,180l-29.6,29.1C493.2,211.4,493.2,214.9,495.4,217
	z"/>
<path class="st11" d="M371.1,124.8l130.5,128.7c1.7,1.6,4.5,1.6,6.1,0l14.4-23.5c1.7-1.6,1.7-4.4,0-6l-121-119.5
	c-1.7-1.6-4.5-1.6-6.1,0L368.7,121C367.1,122.7,369.5,122.9,371.1,124.8z"/>
<path class="st8" d="M583.3,204.4c3.8,3.7,9.9,3.7,13.7,0l4.2-4.2c3.8-3.7,3.8-9.8,0-13.5L425.8,13.8c-3.8-3.7-9.9-3.7-13.7,0
	l-4.2,4.2c-3.7,3.7-3.7,9.5,0,13.5L583.3,204.4z"/>
<path class="st12" d="M170.1,23.7c-17-16.9-44.5-16.9-61.4,0c-16.9,17-16.9,44.5,0,61.4l425.2,425.2c17,16.9,44.4,16.9,61.4,0
	c16.9-17,16.9-44.5,0-61.4L170.1,23.7z"/>
</svg>
