<?xml version="1.0" encoding="utf-8"?>
<!-- Generator: Adobe Illustrator 19.0.0, SVG Export Plug-In . SVG Version: 6.00 Build 0)  -->
<svg version="1.1" id="Layer_1" xmlns="http://www.w3.org/2000/svg" xmlns:xlink="http://www.w3.org/1999/xlink" x="0px" y="0px"
	 viewBox="96 11 512 512" style="enable-background:new 96 11 512 512;" xml:space="preserve">
<style type="text/css">
	.st0{fill:#FFD1A9;}
	.st1{fill:#FF8C29;}
	.st2{fill:#FFFFFF;}
	.st3{fill:#F0353D;}
	.st4{fill:#FD6A33;}
	.st5{fill:#365558;}
	.st6{fill:#0295AA;}
	.st7{fill:#4ACFD9;}
	.st8{fill:#9BAAAB;}
	.st9{fill:#CDD4D5;}
	.st10{fill:#E6EAEA;}
	.st11{fill:#BCD643;}
</style>
<path class="st0" d="M352,11C210.8,11,96,125.8,96,267s114.8,256,256,256s256-114.8,256-256S493.2,11,352,11z"/>
<path class="st1" d="M96,267c0,141.2,114.8,256,256,256V11C210.8,11,96,125.8,96,267z"/>
<path class="st2" d="M513.7,227.7c-7.4,0-14.2-4.6-16.8-11.9c-13.2-37.3-41.1-68.8-76.6-86.4c-8.8-4.4-12.4-15.1-8-23.9
	c4.4-8.8,15.1-12.4,23.9-8c43.7,21.7,78.1,60.6,94.4,106.5c3.3,9.3-1.6,19.5-10.9,22.8C517.7,227.4,515.7,227.7,513.7,227.7z"/>
<rect x="654.5" y="11" class="st3" width="128" height="128"/>
<rect x="782.5" y="11" class="st4" width="128" height="128"/>
<rect x="910.5" y="11" class="st1" width="128" height="128"/>
<rect x="1038.5" y="11" class="st0" width="128" height="128"/>
<rect x="654.5" y="139" class="st5" width="128" height="128"/>
<rect x="782.5" y="139" class="st6" width="128" height="128"/>
<rect x="910.5" y="139" class="st7" width="128" height="128"/>
<rect x="654.5" y="267" class="st8" width="128" height="128"/>
<rect x="782.5" y="267" class="st9" width="128" height="128"/>
<rect x="910.5" y="267" class="st10" width="128" height="128"/>
<rect x="1038.5" y="267" class="st2" width="128" height="128"/>
<rect x="654.5" y="395" class="st11" width="128" height="128"/>
<path class="st3" d="M426,370H278c-16,0-29-13.1-29-29V193c0-16,13.1-29,29-29h148c16,0,29,13.1,29,29v148C455,357,442,370,426,370z
	"/>
<path class="st4" d="M291.2,227.9c2.8,2.4,4,6.3,2.6,10c-7,18.5-6.4,39.6,1.5,57.7c2,4.5-0.1,9.8-4.6,11.8c-4.5,2-9.8-0.1-11.8-4.6
	c-9.7-22.4-10.4-48.3-1.9-71.1c1.7-4.6,6.9-7,11.5-5.2C289.5,226.8,290.4,227.3,291.2,227.9z"/>
<path class="st0" d="M166.2,326.9c7.4,0,14.2,4.6,16.8,11.9c13.2,37.3,41.1,68.8,76.6,86.4c8.8,4.4,12.4,15.1,8,23.9
	c-4.4,8.8-15.1,12.4-23.9,8c-43.7-21.7-78.1-60.6-94.4-106.5c-3.3-9.3,1.6-19.5,10.9-22.8C162.2,327.2,164.2,326.9,166.2,326.9z"/>
</svg>
