<svg width="512" height="512" viewBox="0 0 512 512" fill="none" xmlns="http://www.w3.org/2000/svg">
<g clip-path="url(#clip0_265_386)">
<path d="M220.817 217H216.051H211.203C205.016 217 200 221.909 200 227.783V274.217C200 280.172 205.1 285 211.203 285H216.051H220.817C223.576 285 226 282.827 226 280.011V221.909C225.916 219.334 223.659 217 220.817 217Z" fill="#FD6A33"/>
<path d="M404.566 285H399.984C397.331 285 395 282.83 395 280.017V221.983C395 219.331 397.17 217 399.984 217H404.566H409.228C415.177 217 420 221.903 420 227.771V274.229C420 280.177 415.096 285 409.228 285H404.566Z" fill="#FF8C29"/>
<path d="M362.588 174.966H329.091C325.773 174.966 322.692 171.939 322.692 168.514V167H311V273.346H313.37H317.794C319.137 273.346 320.164 274.461 320.164 275.656V280.117C320.164 281.472 319.058 282.507 317.794 282.507H313.37V282.587H311V317H362.588C376.019 317 387 305.927 387 292.385V199.422C387 185.879 375.94 174.807 362.588 174.966ZM353.74 280.038C353.74 281.472 352.555 282.587 351.212 282.587H337.861C336.518 282.587 335.333 281.392 335.333 280.038V275.895C335.333 274.462 336.518 273.346 337.861 273.346H351.133C352.555 273.346 353.661 274.541 353.661 275.895V280.038H353.74ZM344.497 242.04C337.782 242.04 332.331 236.543 332.331 229.772C332.331 223.001 337.782 217.505 344.497 217.505C351.212 217.505 356.663 223.001 356.663 229.772C356.663 236.543 351.212 242.04 344.497 242.04Z" fill="#FF8C29"/>
<path d="M325.784 163.029C330.916 159.602 329.46 151.893 324.558 148C324.558 148 311 158.201 311 167C314.983 167 322.337 167 322.337 167C322.337 167 321.647 165.832 325.784 163.029Z" fill="#FF8C29"/>
<path d="M310.921 167H299.229V168.354C299.229 172.096 295.437 174.803 291.881 174.803H259.412C245.981 174.803 235 185.869 235 199.404V292.398C235 305.933 245.981 317 259.412 317H310.921V282.525H304.127C302.784 282.525 301.757 281.411 301.757 280.137V275.678C301.757 274.325 302.863 273.29 304.127 273.29H307.761H311V167H310.921ZM286.588 280.137C286.588 281.49 285.482 282.525 284.218 282.525H270.63C269.287 282.525 268.26 281.411 268.26 280.137V275.678C268.26 274.325 269.366 273.29 270.63 273.29H284.218C285.482 273.29 286.588 274.404 286.588 275.678V280.137ZM277.424 241.92C270.709 241.92 265.258 236.427 265.258 229.659C265.258 222.892 270.709 217.398 277.424 217.398C284.139 217.398 289.59 222.971 289.59 229.659C289.59 236.427 284.139 241.92 277.424 241.92Z" fill="#FD6A33"/>
<path d="M306.508 150.514C301.976 153.25 298 157.907 298 167C303.486 167 305.633 167 309.768 167C309.768 158.498 324 148.814 324 148.814C318.911 145.118 310.96 147.779 306.508 150.514Z" fill="#FD6A33"/>
<path d="M211.309 257.957C211.801 258.67 212.047 259.621 211.719 260.493C210.489 265.565 211.473 270.875 214.423 274.996C215.406 276.344 215.079 278.325 213.849 279.355C212.456 280.386 210.489 280.148 209.506 278.88C205.327 273.332 204.015 266.199 205.736 259.383C206.146 257.719 207.785 256.689 209.506 257.085C210.408 257.006 210.817 257.402 211.309 257.957Z" fill="#FFD1A9"/>
<path d="M411.49 257.081C413.118 256.684 414.826 257.794 415.233 259.38C417.023 266.197 415.64 273.331 411.49 278.88C410.514 280.148 408.642 280.386 407.178 279.355C405.957 278.325 405.55 276.422 406.608 274.995C409.537 270.794 410.595 265.562 409.293 260.489C408.968 259.617 409.212 258.666 409.7 257.953C410.188 257.477 410.677 257.081 411.49 257.081Z" fill="#FFD1A9"/>
<path d="M360.629 123.682L346.979 136.721C345.164 138.439 342.245 138.439 340.351 136.643C338.537 134.847 338.537 132.036 340.43 130.318L354.08 117.279C355.895 115.561 358.814 115.561 360.708 117.357C362.444 119.075 362.444 121.886 360.629 123.682Z" fill="#F0353D"/>
<path d="M371.64 152.636C370.764 153.568 369.649 154.076 368.216 153.991L350.698 153.906C348.07 153.906 346 151.789 346 148.911C346 146.286 348.07 144.085 350.778 144L368.295 144.085C370.923 144.085 372.993 146.201 372.993 149.08C373.073 150.519 372.436 151.789 371.64 152.636Z" fill="#F0353D"/>
<path d="M331.65 129.735C330.825 130.599 329.775 131.07 328.425 130.992C325.95 130.992 324 129.028 324 126.359L324.075 109.554C324.075 107.12 326.025 105.079 328.575 105C331.05 105 333 106.963 333 109.633V126.437C332.925 127.772 332.55 128.871 331.65 129.735Z" fill="#F0353D"/>
<path d="M311.078 330C319.621 330 322.051 331.639 324.794 337.416C329.104 346.314 333.728 355.369 329.026 360.131C324.245 364.892 316.486 367 311 367V330H311.078Z" fill="#4ACFD9"/>
<path d="M311 448.318V443.053L296.365 423.512L270.101 368L257.128 370.313L233 387.78L246.527 429.016L290.195 474L311 473.761V448.318Z" fill="#E6EAEA"/>
<path d="M311 465.559C278.767 465.559 252.678 411.512 252.678 375H228.025C228.025 420.079 217.732 491.502 178 491.502V512H311V465.559Z" fill="#F0353D"/>
<path d="M310.918 330C301.948 330 299.397 331.639 296.517 337.416C291.991 346.314 287.136 355.369 292.073 360.131C297.093 364.892 305.24 367 311 367V330H310.918Z" fill="#0295AA"/>
<path d="M311 370.702C311 370.702 302.588 370.384 300.232 369.035C297.961 367.687 291.231 405.296 292.072 416.325C292.914 427.354 296.531 425.529 296.531 425.529L311 446V370.702Z" fill="#0295AA"/>
<path d="M252.395 352C257.936 352 263.959 356.384 265.726 361.564L310.457 443.418C311.421 446.606 311.019 450.113 309.895 451.468C309.333 452.105 309.413 452.185 306.121 451.627C306.121 451.627 283.072 428.912 273.837 416C265.967 404.842 260.265 393.046 252.556 380.135C244.846 367.223 208.627 386.75 208.627 386.75C205.736 381.968 213.606 375.99 216.658 374.077C223.564 369.933 241.473 355.108 252.395 352Z" fill="#9BAAAB"/>
<path d="M311 492C314.314 492 317 489.314 317 486C317 482.686 314.314 480 311 480C307.686 480 305 482.686 305 486C305 489.314 307.686 492 311 492Z" fill="#365558"/>
<path fill-rule="evenodd" clip-rule="evenodd" d="M310.314 443.378V448.858V474.195H325.405V423.086L325.008 423.919L310.314 443.378ZM350.429 370.626H362.61L351.377 368.64L350.429 370.626Z" fill="white"/>
<path fill-rule="evenodd" clip-rule="evenodd" d="M395.739 368.84C387.465 362.784 376.083 354.455 368.294 352.278C362.734 352.278 356.857 356.647 355.03 361.889L350.292 370.625H398.184C397.406 370.06 396.589 369.462 395.739 368.84ZM325.405 441.077V416.512L310.791 443.458C309.838 446.555 310.235 450.526 311.347 451.479C312.141 452.035 312.538 452.194 315.08 451.638C315.08 451.638 319.592 447.174 325.405 441.077Z" fill="#CDD4D5"/>
<path fill-rule="evenodd" clip-rule="evenodd" d="M320.481 369.591C318.257 370.862 310.314 371.18 310.314 371.18V446.712L323.975 426.141C323.975 426.141 324.615 426.483 325.405 425.977V388.464C323.653 377.928 321.547 368.959 320.481 369.591Z" fill="#4ACFD9"/>
<rect x="116.526" y="16.8447" width="87" height="178" fill="#E6EAEA"/>
<path fill-rule="evenodd" clip-rule="evenodd" d="M116.475 16.9863H30.6622V122.106V193.062L18.7136 221.444L60.8053 193.062H116.475V16.9863Z" fill="#C4C4C4"/>
<path fill-rule="evenodd" clip-rule="evenodd" d="M26.448 7.52577H116.259V18.0381H188.932C196.111 18.0381 201.932 23.8584 201.932 31.0381V178.486C201.932 185.665 196.111 191.486 188.932 191.486H116.259V203.574H202.546C209.173 203.574 214.546 198.201 214.546 191.574V19C214.546 12.3726 209.173 7 202.546 7H29.972C28.7457 7 27.5623 7.18395 26.448 7.52577Z" fill="#0295AA"/>
<path fill-rule="evenodd" clip-rule="evenodd" d="M29.2296 7H116.475L116.475 18.0381H42.8025C36.1751 18.0381 30.8025 23.4107 30.8025 30.0381V189.363C30.8025 190.767 30.5561 192.161 30.0743 193.48L22.1507 215.175C21.4619 217.061 23.671 218.673 25.2565 217.441L55.4106 194.01C57.5162 192.374 60.1068 191.486 62.7734 191.486H116.475V203.883H64.3327C62.0969 203.883 59.9142 204.565 58.0754 205.836L27.2935 227.126C18.5631 233.165 7.18952 224.556 10.63 214.514L17.6358 194.066C18.029 192.918 18.2296 191.714 18.2296 190.501V18C18.2296 11.9249 23.1545 7 29.2296 7Z" fill="#365558"/>
<path d="M117.74 104.41C117.424 109.532 121.367 114.049 126.426 113.192C131.05 112.408 135.525 110.824 139.645 108.487C146.475 104.612 152.032 98.8358 155.638 91.8604C159.245 84.8851 160.746 77.0118 159.959 69.1987C159.172 61.3857 156.131 53.9699 151.206 47.8539C146.281 41.7379 139.684 37.1856 132.218 34.7509C124.753 32.3162 116.74 32.1042 109.156 34.1406C101.572 36.1771 94.7441 40.3742 89.5023 46.2212C86.3407 49.7479 83.8385 53.783 82.0873 58.1332C80.1712 62.8934 83.7435 67.7084 88.8147 68.4919V68.4919C93.8859 69.2755 98.4907 65.5972 101.291 61.297C101.901 60.3591 102.585 59.4656 103.339 58.6254C106.175 55.4609 109.871 53.1894 113.976 52.0873C118.08 50.9851 122.416 51.0999 126.457 52.4175C130.497 53.7352 134.068 56.199 136.733 59.509C139.399 62.819 141.045 66.8325 141.47 71.061C141.896 75.2895 141.084 79.5506 139.132 83.3257C137.18 87.1008 134.173 90.2271 130.476 92.324C129.495 92.8808 128.476 93.3586 127.429 93.7553C122.631 95.574 118.056 99.2886 117.74 104.41V104.41Z" fill="#F0353D"/>
<path d="M105.762 107.098C105.762 100.47 111.135 95.0977 117.762 95.0977H119.617C122.93 95.0977 125.617 97.7839 125.617 101.098V137.189C125.617 142.672 121.172 147.116 115.689 147.116V147.116C110.207 147.116 105.762 142.672 105.762 137.189V107.098Z" fill="#F0353D"/>
<circle cx="116.484" cy="165.382" r="11.9126" fill="#F0353D"/>
<path d="M392.991 378H339.008C337.347 378 336 379.313 336 380.933V437.067C336 438.687 337.347 440 339.008 440H392.992C394.653 440 396 438.687 396 437.067V380.933C396 379.313 394.653 378 392.991 378Z" fill="#4ACFD9"/>
<path d="M392.991 450H339.008C337.347 450 336 451.313 336 452.933V509.067C336 510.687 337.347 512 339.008 512H392.992C394.653 512 396 510.687 396 509.067V452.933C396 451.313 394.653 450 392.991 450Z" fill="#687F82"/>
<path d="M463.041 378H409.958C408.324 378 407 379.313 407 380.933V437.067C407 438.687 408.324 440 409.958 440H463.042C464.676 440 466 438.687 466 437.067V380.933C466 379.313 464.676 378 463.041 378Z" fill="#FF8C29"/>
<path d="M463.041 450H409.958C408.324 450 407 451.313 407 452.933V509.067C407 510.687 408.324 512 409.958 512H463.042C464.676 512 466 510.687 466 509.067V452.933C466 451.313 464.676 450 463.041 450Z" fill="#F0353D"/>
<path d="M492.131 373.064L469.755 350.862C468.597 349.713 466.718 349.713 465.56 350.862L389.482 426.35C389.334 426.496 389.203 426.658 389.089 426.832L364.476 464.577C363.716 465.742 363.88 467.276 364.869 468.257L373.819 477.138C374.392 477.707 375.152 478 375.918 478C376.474 478 377.034 477.845 377.529 477.528L415.568 453.105C415.743 452.992 415.906 452.862 416.054 452.715L492.131 377.227C493.29 376.078 493.29 374.214 492.131 373.064Z" fill="#CDD4D5"/>
<path d="M508.48 335.404C501.132 328.199 489.176 328.199 481.827 335.404L463.871 353.011C462.71 354.15 462.71 355.998 463.871 357.138L486.316 379.146C486.897 379.715 487.659 380 488.42 380C489.182 380 489.944 379.715 490.525 379.146L508.48 361.539C512.04 358.049 514 353.408 514 348.472C514 343.535 512.04 338.894 508.48 335.404Z" fill="#FF8C29"/>
<path d="M483.815 354C483.095 354 482.374 353.702 481.824 353.107C480.725 351.916 480.725 349.985 481.824 348.794L488.194 341.893C489.294 340.702 491.076 340.702 492.175 341.893C493.275 343.084 493.275 345.015 492.175 346.206L485.806 353.107C485.256 353.702 484.535 354 483.815 354Z" fill="white"/>
<path d="M506.129 381.977L461.285 337.857C460.124 336.714 458.242 336.714 457.081 337.857L445.871 348.886C444.71 350.029 444.71 351.88 445.871 353.023L490.714 397.144C491.295 397.715 492.055 398 492.816 398C493.577 398 494.338 397.715 494.918 397.144L506.129 386.114C506.687 385.565 507 384.822 507 384.045C507 383.27 506.687 382.526 506.129 381.977Z" fill="#FD6A33"/>
<path d="M483.567 360L468 375.168L490.554 397.144C491.14 397.715 491.908 398 492.677 398C493.445 398 494.214 397.715 494.8 397.144L506.121 386.113C506.684 385.564 507 384.821 507 384.044C507 383.269 506.684 382.525 506.121 381.976L483.567 360Z" fill="#F0353D"/>
<path d="M402.677 433.346C401.913 433.346 401.149 433.06 400.566 432.487C399.401 431.342 399.401 429.485 400.566 428.339L409.57 419.491C410.735 418.345 412.625 418.345 413.79 419.491C414.956 420.636 414.956 422.493 413.79 423.638L404.787 432.487C404.204 433.06 403.44 433.346 402.677 433.346Z" fill="white"/>
<path d="M420.684 415.649C419.92 415.649 419.156 415.363 418.573 414.79C417.408 413.645 417.408 411.788 418.573 410.643L450.086 379.673C451.252 378.528 453.141 378.529 454.306 379.673C455.472 380.819 455.472 382.676 454.306 383.821L422.794 414.79C422.212 415.363 421.448 415.649 420.684 415.649Z" fill="white"/>
</g>
<defs>
<clipPath id="clip0_265_386">
<rect width="512" height="512" fill="white"/>
</clipPath>
</defs>
</svg>
