<?xml version="1.0" encoding="utf-8"?>
<!-- Generator: Adobe Illustrator 25.4.1, SVG Export Plug-In . SVG Version: 6.00 Build 0)  -->
<svg version="1.1" id="Layer_1" xmlns="http://www.w3.org/2000/svg" xmlns:xlink="http://www.w3.org/1999/xlink" x="0px" y="0px"
	 viewBox="0 0 512 512" style="enable-background:new 0 0 512 512;" xml:space="preserve">
<style type="text/css">
	.st0{fill:#687F82;}
	.st1{fill:#FFFFFF;}
	.st2{fill:#4ACFD9;}
	.st3{fill:#0295AA;}
	.st4{fill:#FF8C29;}
	.st5{fill:#FD6A33;}
</style>
<g>
	<path class="st0" d="M359.4,42.7C331.6,15.1,294.9,0,255.9,0c-0.3,0-0.6,0-0.9,0c-80.4,0.5-145.8,66.9-145.8,148.2v74.4
		c0,4.4,3.5,7.9,7.9,7.9h42.1c4.4,0,7.9-3.5,7.9-7.9v-74.7c0-49.2,39.5-89.6,88-90.1c23.9-0.2,46.4,8.9,63.4,25.7
		s26.4,39.2,26.4,63.1v75.2c0,15.7,12.5,28.9,27.9,29.4c0.4,0,0.7,0,1.1,0c7.5,0,14.6-2.9,20.1-8.1c5.7-5.5,8.8-12.9,8.8-20.8v-75.7
		C402.6,107.4,387.2,70.5,359.4,42.7z"/>
	<g>
		<path class="st1" d="M381.6,188.2c-4.4,0-7.9-3.5-7.9-7.9v-33.6c0-18-3.9-35.2-11.7-51.2c-1.9-3.9-0.3-8.6,3.6-10.5
			s8.6-0.3,10.5,3.7c8.8,18.2,13.3,37.7,13.3,58.1v33.6C389.5,184.7,385.9,188.2,381.6,188.2z"/>
		<path class="st1" d="M344.5,65.5c-2,0-4-0.8-5.6-2.3c-8.3-8.2-17.6-15.2-27.8-20.6c-16.8-9-35.9-13.7-55.2-13.7
			c-4.4,0-7.9-3.5-7.9-7.9s3.5-7.9,7.9-7.9c21.8,0,43.5,5.4,62.6,15.6c11.5,6.1,22.1,14,31.5,23.3c3.1,3.1,3.1,8.1,0,11.2
			C348.5,64.7,346.5,65.5,344.5,65.5z"/>
	</g>
	<path class="st2" d="M405.2,214.5H106.6c-21.7,0-39.4,17.7-39.4,39.4v250.2c0,4.4,3.5,7.9,7.9,7.9h361.7c4.4,0,7.9-3.5,7.9-7.9
		V253.9C444.6,232.2,427,214.5,405.2,214.5z"/>
	<path class="st3" d="M106.6,214.5c-21.7,0-39.4,17.7-39.4,39.4v250.2c0,4.4,3.5,7.9,7.9,7.9h180.8V214.5H106.6z"/>
	<g>
		<g>
			<path class="st4" d="M255.9,259.8v209c57.7,0,104.4-46.8,104.4-104.4S313.4,259.8,255.9,259.8z"/>
			<path class="st5" d="M151.3,364.2c0,57.7,46.8,104.4,104.4,104.4v-209C198.1,259.8,151.3,306.4,151.3,364.2z"/>
			<g>
				<path class="st1" d="M225.8,386.2l-9,18.8c-1.2,2.6-1.9,4.7-1.9,6.2c0,2.9,2.2,4.9,6.5,6v3.1h-44.1v-3.1c2.6-0.5,4.6-1.4,6-2.7
					c1.4-1.3,2.9-3.8,4.7-7.6l49-102.5c1.6-3.3,2.3-5.9,2.3-7.8c0-3-1.9-5.1-5.7-6.4v-3.1h47.3v3.1c-3.8,1.1-5.8,3-5.8,5.8
					c0,1.9,0.6,4,1.9,6.4l50.8,102.7c2.1,4.4,4,7.3,5.7,8.9c1.6,1.6,3.8,2.7,6.5,3.2v3.1h-49.1v-3.1c4.3-0.7,6.5-2.7,6.5-6.1
					c0-1.4-0.7-3.4-2-6.1l-9-18.8 M286.4,386.2l-30-65.8l-30.6,65.8"/>
			</g>
			<path class="st1" d="M326.4,377.1H184.9c-1.4,0-2.5,1.1-2.5,2.5v6.5c0,1.4,1.1,2.5,2.5,2.5h141.5c1.4,0,2.5-1.1,2.5-2.5v-6.5
				C328.9,378.2,327.9,377.1,326.4,377.1z"/>
			<path class="st1" d="M318.9,360.8h-126c-1.1,0-2,0.9-2,2v5.6c0,1.1,0.9,2,2,2h126c1.1,0,2-0.9,2-2v-5.6
				C320.9,361.7,320,360.8,318.9,360.8z"/>
		</g>
	</g>
</g>
</svg>
