<svg width="512" height="512" viewBox="0 0 512 512" fill="none" xmlns="http://www.w3.org/2000/svg">
<g clip-path="url(#clip0_438_171)">
<rect width="512" height="512" fill="white"/>
<path d="M12.0637 278.511C13.4559 338.75 37.5981 396.242 79.6568 439.476C121.716 482.709 178.587 508.494 238.884 511.668L242.813 437.34C201.294 435.155 162.134 417.4 133.174 387.63C104.213 357.861 87.5896 318.274 86.631 276.794L12.0637 278.511Z" fill="#0295AA"/>
<path d="M472.686 365.859C484.776 336.911 491 305.861 491 274.5H414.5L425.002 274.889C426.675 274.951 428 276.325 428 278V300C428 303.5 423.5 303.5 423.5 303.5V316C427.5 316 429.5 317 429.5 320.5V341C429.5 345.5 423.5 345.314 423.5 345.314V355.5C423.5 359.814 423.5 361 420.5 361V373.5C426 373.5 426 377 426 377V390C425.12 397.969 418.386 404 410.368 404H351.477C338.506 414.801 330.439 419.622 314.738 425.994C294.691 434.13 273.229 438.222 251.589 438.036L250.951 511.991C282.377 512.261 313.545 506.318 342.657 494.504C371.769 482.689 398.248 465.239 420.565 443.159C442.883 421.079 460.597 394.807 472.686 365.859Z" fill="#4ACFD9"/>
<path d="M490.964 267.392C489.933 207.91 466.57 150.981 425.495 107.864L371.78 158.82C400.064 188.511 416.152 227.712 416.862 268.671L490.964 267.392Z" fill="#FF8C29"/>
<path d="M436.763 71.4101C388.791 25.6703 324.866 0.086374 258.337 0.000218026L258.232 79.7186C304.044 79.7779 348.063 97.395 381.096 128.891L436.763 71.4101Z" fill="#FFD1A9"/>
<path d="M12.0347 267.438C13.0753 206.476 37.4722 148.249 80.1734 104.816C122.875 61.3835 180.609 36.0713 241.421 34.1215L243.781 108.041C201.906 109.384 162.15 126.814 132.746 156.722C103.342 186.63 86.5422 226.724 85.8257 268.703L12.0347 267.438Z" fill="#F0353D"/>
<path d="M414.381 380.25H370.188V397.422H414.381C415.238 397.422 415.98 396.686 415.98 395.705V381.906C415.923 380.986 415.238 380.25 414.381 380.25Z" fill="#FF8C29"/>
<path d="M370.188 380.25H357.596V397.422H370.188V380.25Z" fill="#FD6A33"/>
<path d="M325.964 380.25C325.124 380.25 324.396 380.983 324.396 381.961V395.711C324.396 396.627 325.068 397.422 325.964 397.422H357.595V380.311L325.964 380.25Z" fill="#FD6A33"/>
<path d="M403.387 385.977H397.663V397.424H403.387V385.977Z" fill="#687F82"/>
<path d="M411.401 385.977H407.967V397.424H411.401V385.977Z" fill="#687F82"/>
<path d="M390.795 385.977H382.781V397.424H390.795V385.977Z" fill="#687F82"/>
<path d="M342.714 385.977H336.99V397.424H342.714V385.977Z" fill="#365558"/>
<path d="M332.411 385.977H327.832V397.424H332.411V385.977Z" fill="#365558"/>
<path d="M357.597 385.977H349.583V397.424H357.597V385.977Z" fill="#365558"/>
<path d="M373.623 385.977H370.188V397.424H373.623V385.977Z" fill="#687F82"/>
<path d="M370.188 385.977H366.754V397.424H370.188V385.977Z" fill="#365558"/>
<path d="M408.658 360.789H364.465V376.816H408.658C409.514 376.816 410.256 376.129 410.256 375.213V362.335C410.256 361.533 409.571 360.789 408.658 360.789Z" fill="#FF8C29"/>
<path d="M364.464 360.789H357.596V376.816H364.464V360.789Z" fill="#FD6A33"/>
<path d="M320.255 360.789C319.407 360.789 318.673 361.473 318.673 362.386V375.219C318.673 376.075 319.351 376.816 320.255 376.816H357.596V360.846L320.255 360.789Z" fill="#FD6A33"/>
<path d="M397.663 366.512H391.939V376.815H397.663V366.512Z" fill="#687F82"/>
<path d="M405.677 366.512H402.242V376.815H405.677V366.512Z" fill="#687F82"/>
<path d="M385.071 366.512H377.058V376.815H385.071V366.512Z" fill="#687F82"/>
<path d="M336.99 366.512H331.266V376.815H336.99V366.512Z" fill="#365558"/>
<path d="M326.687 366.512H322.107V376.815H326.687V366.512Z" fill="#365558"/>
<path d="M351.872 366.512H343.858V376.815H351.872V366.512Z" fill="#365558"/>
<path d="M369.044 366.512H364.465V376.815H369.044V366.512Z" fill="#687F82"/>
<path d="M364.465 366.512H361.03V376.815H364.465V366.512Z" fill="#365558"/>
<path d="M412.092 340.184H367.899V356.211H412.092C412.949 356.211 413.691 355.524 413.691 354.608V341.729C413.634 340.87 412.949 340.184 412.092 340.184Z" fill="#FF8C29"/>
<path d="M367.899 340.184H357.596V356.211H367.899V340.184Z" fill="#FD6A33"/>
<path d="M323.695 340.184C322.844 340.184 322.107 340.868 322.107 341.781V354.614C322.107 355.469 322.788 356.211 323.695 356.211H357.596V340.241H323.695V340.184Z" fill="#FD6A33"/>
<path d="M401.098 345.906H395.374V356.209H401.098V345.906Z" fill="#687F82"/>
<path d="M410.257 345.906H405.678V356.209H410.257V345.906Z" fill="#687F82"/>
<path d="M388.505 345.906H380.491V356.209H388.505V345.906Z" fill="#687F82"/>
<path d="M340.424 345.906H334.7V356.209H340.424V345.906Z" fill="#365558"/>
<path d="M330.121 345.906H326.687V356.209H330.121V345.906Z" fill="#365558"/>
<path d="M355.306 345.906H347.293V356.209H355.306V345.906Z" fill="#365558"/>
<path d="M372.479 345.906H367.899V356.209H372.479V345.906Z" fill="#687F82"/>
<path d="M367.899 345.906H364.465V356.209H367.899V345.906Z" fill="#365558"/>
<path d="M417.816 320.723H373.623V336.75H417.816C418.672 336.75 419.415 336.063 419.415 335.147V322.268C419.357 321.41 418.672 320.723 417.816 320.723Z" fill="#FF8C29"/>
<path d="M373.623 320.723H362.175V336.75H373.623V320.723Z" fill="#FD6A33"/>
<path d="M329.454 320.723C328.585 320.723 327.832 321.407 327.832 322.32V335.153C327.832 336.008 328.527 336.75 329.454 336.75H362.176V320.78L329.454 320.723Z" fill="#FD6A33"/>
<path d="M406.823 325.301H401.099V336.749H406.823V325.301Z" fill="#687F82"/>
<path d="M414.835 325.301H411.4V336.749H414.835V325.301Z" fill="#687F82"/>
<path d="M394.229 325.301H386.216V336.749H394.229V325.301Z" fill="#687F82"/>
<path d="M346.148 325.301H340.424V336.749H346.148V325.301Z" fill="#365558"/>
<path d="M335.845 325.301H331.266V336.749H335.845V325.301Z" fill="#365558"/>
<path d="M361.03 325.301H353.017V336.749H361.03V325.301Z" fill="#365558"/>
<path d="M378.202 325.301H373.623V336.749H378.202V325.301Z" fill="#687F82"/>
<path d="M373.623 325.301H370.188V336.749H373.623V325.301Z" fill="#365558"/>
<path d="M412.092 300.117H367.899V316.144H412.092C412.949 316.144 413.691 315.457 413.691 314.541V301.663C413.691 300.861 413.006 300.117 412.092 300.117Z" fill="#FF8C29"/>
<path d="M367.899 300.117H362.175V316.144H367.899V300.117Z" fill="#FD6A33"/>
<path d="M323.736 300.117C322.863 300.117 322.107 300.802 322.107 301.714V314.547C322.107 315.403 322.805 316.144 323.736 316.144H362.175V300.174H323.736V300.117Z" fill="#FD6A33"/>
<path d="M401.098 305.84H395.374V316.143H401.098V305.84Z" fill="#687F82"/>
<path d="M410.257 305.84H405.678V316.143H410.257V305.84Z" fill="#687F82"/>
<path d="M388.505 305.84H380.491V316.143H388.505V305.84Z" fill="#687F82"/>
<path d="M340.424 305.84H334.7V316.143H340.424V305.84Z" fill="#365558"/>
<path d="M330.121 305.84H326.687V316.143H330.121V305.84Z" fill="#365558"/>
<path d="M355.306 305.84H347.293V316.143H355.306V305.84Z" fill="#365558"/>
<path d="M372.479 305.84H367.899V316.143H372.479V305.84Z" fill="#687F82"/>
<path d="M367.899 305.84H364.465V316.143H367.899V305.84Z" fill="#365558"/>
<path d="M416.631 279.508H371.333V295.535H416.631C417.508 295.535 418.269 294.848 418.269 293.932V281.111C418.211 280.195 417.508 279.508 416.631 279.508Z" fill="#FF8C29"/>
<path d="M371.333 279.508H362.175V295.535H371.333V279.508Z" fill="#FD6A33"/>
<path d="M327.181 279.508C326.303 279.508 325.542 280.192 325.542 281.105V293.938C325.542 294.793 326.244 295.535 327.181 295.535H362.175V279.565L327.181 279.508Z" fill="#FD6A33"/>
<path d="M404.533 285.234H398.809V295.537H404.533V285.234Z" fill="#687F82"/>
<path d="M413.69 285.234H409.111V295.537H413.69V285.234Z" fill="#687F82"/>
<path d="M391.939 285.234H383.926V295.537H391.939V285.234Z" fill="#687F82"/>
<path d="M343.858 285.234H338.134V295.537H343.858V285.234Z" fill="#365558"/>
<path d="M333.555 285.234H330.121V295.537H333.555V285.234Z" fill="#365558"/>
<path d="M358.741 285.234H350.728V295.537H358.741V285.234Z" fill="#365558"/>
<path d="M375.912 285.234H371.333V295.537H375.912V285.234Z" fill="#687F82"/>
<path d="M371.334 285.234H367.899V295.537H371.334V285.234Z" fill="#365558"/>
<path d="M194.542 185.642C178.9 190.283 168.282 213.311 165.427 230.496C165.427 230.496 154.181 314.017 152.754 320.833C151.327 327.65 149.329 332.348 145.332 340.597C142.535 346.382 137.797 353.371 137.797 369.697C137.797 386.023 150.756 398.568 166.569 398.568H245.407V179.914H225.483C225.426 179.914 210.127 181.002 194.542 185.642Z" fill="#0295AA"/>
<path d="M315.578 384.194C312.27 382.476 310.006 379.097 310.006 375.145V362.26C310.006 359.167 311.457 356.361 313.663 354.471V342.101C313.663 338.206 315.926 334.828 319.177 333.109V323.775C315.868 322.057 313.605 318.678 313.605 314.726V301.84C313.605 298.748 315.056 295.942 317.261 294.052V281.853C317.203 276.241 321.847 271.66 327.535 271.66H332.41C329.45 250.47 326.722 230.483 326.722 230.483C323.82 213.302 313.024 190.28 297.121 185.641C281.218 181.002 265.663 179.914 265.663 179.914H245.406V398.568H316.042C315.694 397.537 315.52 396.449 315.52 395.304V384.194H315.578Z" fill="#4ACFD9"/>
<path d="M229.217 158.164C226.133 158.164 223.655 161.454 223.655 165.475V172.604C223.655 176.625 226.188 179.915 229.217 179.915H245.406V158.164H229.217Z" fill="#365558"/>
<path d="M262.448 158.164C265.694 158.164 268.302 161.454 268.302 165.475V172.604C268.302 176.625 265.636 179.915 262.448 179.915H245.406V158.164H262.448Z" fill="#0295AA"/>
<path d="M223.845 113.832C215.725 112.149 205.588 117.423 209.733 123.877C215.165 132.462 224.685 140.991 224.685 146.378C224.685 151.765 228.774 158.162 235.214 158.162H245.407C245.407 158.162 245.407 120.959 245.407 116.357C241.318 116.47 230.734 115.235 223.845 113.832Z" fill="#0295AA"/>
<path d="M268.315 113.832C276.943 112.149 287.713 117.423 283.31 123.877C277.538 132.462 267.422 140.991 267.422 146.378C267.422 151.765 263.079 158.162 256.236 158.162H245.406C245.406 158.162 245.406 120.959 245.406 116.357C249.75 116.47 260.996 115.235 268.315 113.832Z" fill="#4ACFD9"/>
<path d="M163.681 351.77C164.583 352.746 165.061 354.008 164.955 355.558C164.318 363.479 166.865 371.228 172.012 376.796C173.71 378.633 173.71 381.618 172.012 383.454C170.314 385.291 167.555 385.291 165.857 383.454C158.853 375.878 155.351 365.374 156.253 354.755C156.465 352.172 158.587 350.278 161.028 350.507C161.983 350.507 162.938 351.024 163.681 351.77Z" fill="#E6EAEA"/>
<path d="M316.228 228.293C317.241 217.646 313.249 207.17 305.324 199.597C303.417 197.775 300.259 197.775 298.352 199.597C296.445 201.419 296.445 204.437 298.352 206.259C304.192 211.838 307.111 219.639 306.337 227.496C306.218 228.976 306.754 230.229 307.767 231.254C308.601 231.994 309.674 232.506 310.806 232.563C313.606 232.734 315.93 230.855 316.228 228.293Z" fill="white"/>
<path d="M246.552 205.098V325.3C279.452 325.3 306.081 298.384 306.081 265.256C306.081 232.129 279.338 205.098 246.552 205.098Z" fill="#FF8C29"/>
<path d="M185.878 265.256C185.878 298.442 213.076 325.3 246.552 325.3V205.098C213.076 205.213 185.878 232.014 185.878 265.256Z" fill="#FD6A33"/>
<path d="M228.743 278.194L223.55 289.019C222.858 290.517 222.454 291.726 222.454 292.59C222.454 294.259 223.723 295.411 226.204 296.045V297.83H200.76V296.045C202.26 295.757 203.414 295.238 204.222 294.49C205.029 293.741 205.895 292.302 206.933 290.113L235.205 231.091C236.128 229.191 236.532 227.693 236.532 226.599C236.532 224.872 235.435 223.663 233.243 222.914V221.129H260.534V222.914C258.341 223.547 257.187 224.641 257.187 226.254C257.187 227.348 257.533 228.557 258.283 229.939L287.593 289.077C288.805 291.611 289.901 293.281 290.882 294.202C291.805 295.123 293.074 295.757 294.632 296.045V297.83H266.303V296.045C268.784 295.641 270.053 294.49 270.053 292.532C270.053 291.726 269.65 290.574 268.9 289.019L263.707 278.194H228.743ZM263.707 278.194L246.398 240.304L228.743 278.194" fill="white"/>
<path d="M286.338 272.645H205.62C204.822 272.645 204.194 273.302 204.194 274.138V278.02C204.194 278.856 204.822 279.513 205.62 279.513H286.338C287.136 279.513 287.764 278.856 287.764 278.02V274.138C287.764 273.302 287.136 272.645 286.338 272.645Z" fill="white"/>
<path d="M282.04 263.48H209.918C209.289 263.48 208.773 264.017 208.773 264.673V268.012C208.773 268.668 209.289 269.204 209.918 269.204H282.04C282.669 269.204 283.185 268.668 283.185 268.012V264.673C283.185 264.017 282.669 263.48 282.04 263.48Z" fill="white"/>
</g>
<defs>
<clipPath id="clip0_438_171">
<rect width="512" height="512" fill="white"/>
</clipPath>
</defs>
</svg>
