<svg width="512" height="512" viewBox="0 0 512 512" fill="none" xmlns="http://www.w3.org/2000/svg">
<g clip-path="url(#clip0_438_51)">
<path d="M20.3452 107C14.1248 107 3 116.254 3 127.5C3 138.746 14.1248 148 20.3452 148H256V107H20.3452Z" fill="#365558"/>
<path d="M21.4137 470C15.1688 470 4 479.48 4 491C4 502.52 15.1688 512 21.4137 512H258V470H21.4137Z" fill="#365558"/>
<path d="M508 127.5C508 116.254 496.919 107 490.723 107H256V148H490.723C496.919 148 508 138.746 508 127.5Z" fill="#0295AA"/>
<path d="M510 491C510 479.48 498.919 470 492.723 470H258V512H492.723C498.919 512 510 502.52 510 491Z" fill="#0295AA"/>
<path d="M256 126H241.119C230.048 126 221 131.602 221 138.515V511H256V126Z" fill="#0295AA"/>
<path d="M290 138.515C290 131.602 281.211 126 270.456 126H256V511H290V138.515Z" fill="#4ACFD9"/>
<path d="M483.904 121H255V133H484.023C487.37 133 490 130.36 490 127C490 123.64 487.251 121 483.904 121Z" fill="#4ACFD9"/>
<path d="M24.9566 121C21.6209 121 19 123.64 19 127C19 130.36 21.6209 133 24.9566 133H255V121H24.9566Z" fill="#0295AA"/>
<path d="M486.93 486H259V498H487.049C490.381 498 493 495.36 493 492C493 488.64 490.262 486 486.93 486Z" fill="#4ACFD9"/>
<path d="M27.0071 486C23.6431 486 21 488.64 21 492C21 495.36 23.6431 498 27.0071 498H259V486H27.0071Z" fill="#0295AA"/>
<path d="M257.346 340.677L259.907 369.547C263.515 369.198 266.309 366.054 265.96 362.329L264.097 340.794C264.097 340.561 264.097 340.445 264.097 340.328C261.769 340.445 259.557 340.445 257.346 340.677Z" fill="#FFD1A9"/>
<path d="M251.525 341.26C251.525 341.493 251.525 341.726 251.525 341.842L253.387 363.378C253.737 366.754 256.53 369.431 259.906 369.315L257.345 340.445C255.483 340.795 253.504 341.027 251.525 341.26Z" fill="#FF8C29"/>
<path d="M278.648 504.348C278.182 500.74 275.039 497.946 271.431 498.295L272.362 508.772H278.997L278.648 504.348Z" fill="#FD6A33"/>
<path d="M271.314 498.527C267.939 499.109 265.727 502.136 265.96 505.512L266.309 508.888H272.246L271.314 498.527Z" fill="#FFD1A9"/>
<path d="M246.402 494.917C242.91 493.869 239.068 495.731 238.021 499.107L234.994 508.769H241.979L246.402 494.917Z" fill="#FFD1A9"/>
<path d="M250.71 503.183C251.757 499.691 249.895 495.966 246.403 494.918L241.979 508.887H248.964L250.71 503.183Z" fill="#FF8C29"/>
<path d="M280.975 363.258C279.928 366.751 281.79 370.476 285.283 371.523L293.78 344.633C291.685 344.051 289.59 343.352 287.378 342.887L280.975 363.258Z" fill="#FD6A33"/>
<path d="M255.599 197.844C169.908 197.844 100.193 268.342 100.193 354.995C100.193 441.649 169.908 512.147 255.599 512.147C341.29 512.147 411.005 441.649 411.005 354.996C411.005 268.343 341.29 197.844 255.599 197.844Z" fill="#4ACFD9"/>
<path d="M100.193 354.996C100.193 441.649 169.647 512.147 255.017 512.147V197.844C169.646 197.844 100.193 268.342 100.193 354.996Z" fill="#0295AA"/>
<path d="M255.017 237.422C191.47 237.422 139.772 289.904 139.772 354.413C139.772 418.921 191.47 471.403 255.017 471.403C318.563 471.403 370.261 418.921 370.261 354.413C370.261 289.904 318.563 237.422 255.017 237.422ZM255.017 425.843C216.218 425.843 184.652 393.8 184.652 354.413C184.652 315.025 216.217 282.982 255.017 282.982C293.816 282.982 325.381 315.025 325.381 354.413C325.381 393.8 293.816 425.843 255.017 425.843Z" fill="#E6EAEA"/>
<path d="M184.652 354.413C184.652 315.026 216.217 282.982 255.017 282.982V237.422C191.47 237.422 139.772 289.904 139.772 354.413C139.772 418.921 191.47 471.403 255.017 471.403V425.843C216.218 425.842 184.652 393.799 184.652 354.413Z" fill="#C4C4C4"/>
<path d="M139.772 354.995V360.815H184.652V354.995C184.652 315.412 216.217 283.209 255.017 283.209V237.422C191.47 237.421 139.772 290.165 139.772 354.995Z" fill="#FD6A33"/>
<path d="M256.153 360.814C254.657 360.814 253.16 360.243 252.018 359.102L183.393 290.477C181.109 288.192 181.109 284.489 183.393 282.205C185.678 279.921 189.381 279.921 191.664 282.205L260.289 350.83C262.573 353.115 262.573 356.817 260.289 359.102C259.147 360.243 257.65 360.814 256.153 360.814Z" fill="#365558"/>
<path d="M255.598 315.418C234.096 315.418 216.602 333.172 216.602 354.997C216.602 376.822 234.096 394.576 255.598 394.576C277.101 394.576 294.595 376.821 294.595 354.997C294.595 333.174 277.101 315.418 255.598 315.418Z" fill="#687F82"/>
<path d="M273.642 360.817C270.428 360.817 267.822 358.211 267.822 354.997C267.822 347.936 262.078 342.191 255.017 342.191C251.802 342.191 249.196 339.586 249.196 336.371C249.196 333.156 251.803 330.551 255.017 330.551C268.496 330.551 279.463 341.517 279.463 354.997C279.463 358.211 276.857 360.817 273.642 360.817Z" fill="white"/>
<path d="M273 154V226" stroke="white" stroke-width="10" stroke-miterlimit="10" stroke-linecap="round" stroke-linejoin="round"/>
<path d="M328.267 81.8984H262.531V105.679H328.267C329.541 105.679 330.645 104.66 330.645 103.301V84.1916C330.56 82.9176 329.541 81.8984 328.267 81.8984Z" fill="#FF8C29"/>
<path d="M262.531 81.8984H244.781V105.679H262.531V81.8984Z" fill="#FD6A33"/>
<path d="M196.794 81.8984C195.52 81.8984 194.416 82.9176 194.416 84.2765V103.386C194.416 104.66 195.435 105.764 196.794 105.764H244.78V81.9834L196.794 81.8984Z" fill="#FD6A33"/>
<path d="M312 90H303V106H312V90Z" fill="#687F82"/>
<path d="M324 90H318V106H324V90Z" fill="#687F82"/>
<path d="M293 90H280V106H293V90Z" fill="#687F82"/>
<path d="M222 90H213V106H222V90Z" fill="#365558"/>
<path d="M206 90H200V106H206V90Z" fill="#365558"/>
<path d="M244 90H233V106H244V90Z" fill="#365558"/>
<path d="M269 90H263V106H269V90Z" fill="#687F82"/>
<path d="M263 90H258V106H263V90Z" fill="#365558"/>
<path d="M320.031 52H254.294V75.7807H320.031C321.305 75.7807 322.409 74.7615 322.409 73.4026V54.2931C322.409 53.1041 321.39 52 320.031 52Z" fill="#FF8C29"/>
<path d="M254.38 52H244.783V75.7807H254.38V52Z" fill="#FD6A33"/>
<path d="M188.643 52C187.369 52 186.265 53.0192 186.265 54.3781V73.4875C186.265 74.7615 187.284 75.8656 188.643 75.8656H244.782V52.0849L188.643 52Z" fill="#FD6A33"/>
<path d="M303 60H295V76H303V60Z" fill="#687F82"/>
<path d="M316 60H311V76H316V60Z" fill="#687F82"/>
<path d="M284 60H272V76H284V60Z" fill="#687F82"/>
<path d="M213 60H205V76H213V60Z" fill="#365558"/>
<path d="M198 60H192V76H198V60Z" fill="#365558"/>
<path d="M236 60H224V76H236V60Z" fill="#365558"/>
<path d="M261 60H254V76H261V60Z" fill="#687F82"/>
<path d="M254 60H248V76H254V60Z" fill="#365558"/>
<path d="M488.003 82.8984H422.266V106.679H488.003C489.277 106.679 490.381 105.66 490.381 104.301V85.1916C490.296 83.9176 489.277 82.8984 488.003 82.8984Z" fill="#FF8C29"/>
<path d="M422.267 82.8984H404.516V106.679H422.267V82.8984Z" fill="#FD6A33"/>
<path d="M356.529 82.8984C355.255 82.8984 354.151 83.9176 354.151 85.2765V104.386C354.151 105.66 355.171 106.764 356.529 106.764H404.515V82.9834L356.529 82.8984Z" fill="#FD6A33"/>
<path d="M471.735 91H462.735V107H471.735V91Z" fill="#687F82"/>
<path d="M483.735 91H477.735V107H483.735V91Z" fill="#687F82"/>
<path d="M452.735 91H439.735V107H452.735V91Z" fill="#687F82"/>
<path d="M381.735 91H372.735V107H381.735V91Z" fill="#365558"/>
<path d="M365.735 91H359.735V107H365.735V91Z" fill="#365558"/>
<path d="M403.735 91H392.735V107H403.735V91Z" fill="#365558"/>
<path d="M428.735 91H422.735V107H428.735V91Z" fill="#687F82"/>
<path d="M422.735 91H417.735V107H422.735V91Z" fill="#365558"/>
<path d="M479.766 53H414.03V76.7807H479.766C481.04 76.7807 482.144 75.7615 482.144 74.4026V55.2931C482.144 54.1041 481.125 53 479.766 53Z" fill="#FF8C29"/>
<path d="M414.115 53H404.518V76.7807H414.115V53Z" fill="#FD6A33"/>
<path d="M348.378 53C347.104 53 346 54.0192 346 55.3781V74.4875C346 75.7615 347.019 76.8656 348.378 76.8656H404.517V53.0849L348.378 53Z" fill="#FD6A33"/>
<path d="M462.735 61H454.735V77H462.735V61Z" fill="#687F82"/>
<path d="M475.735 61H470.735V77H475.735V61Z" fill="#687F82"/>
<path d="M443.735 61H431.735V77H443.735V61Z" fill="#687F82"/>
<path d="M372.735 61H364.735V77H372.735V61Z" fill="#365558"/>
<path d="M357.735 61H351.735V77H357.735V61Z" fill="#365558"/>
<path d="M395.735 61H383.735V77H395.735V61Z" fill="#365558"/>
<path d="M420.735 61H413.735V77H420.735V61Z" fill="#687F82"/>
<path d="M413.735 61H407.735V77H413.735V61Z" fill="#365558"/>
<path d="M169.003 81.8984H103.266V105.679H169.003C170.277 105.679 171.381 104.66 171.381 103.301V84.1916C171.296 82.9176 170.277 81.8984 169.003 81.8984Z" fill="#FF8C29"/>
<path d="M103.267 81.8984H85.5161V105.679H103.267V81.8984Z" fill="#FD6A33"/>
<path d="M37.5294 81.8984C36.2555 81.8984 35.1514 82.9176 35.1514 84.2765V103.386C35.1514 104.66 36.1705 105.764 37.5294 105.764H85.5154V81.9834L37.5294 81.8984Z" fill="#FD6A33"/>
<path d="M152.735 90H143.735V106H152.735V90Z" fill="#687F82"/>
<path d="M164.735 90H158.735V106H164.735V90Z" fill="#687F82"/>
<path d="M133.735 90H120.735V106H133.735V90Z" fill="#687F82"/>
<path d="M62.7354 90H53.7354V106H62.7354V90Z" fill="#365558"/>
<path d="M46.7354 90H40.7354V106H46.7354V90Z" fill="#365558"/>
<path d="M84.7354 90H73.7354V106H84.7354V90Z" fill="#365558"/>
<path d="M109.735 90H103.735V106H109.735V90Z" fill="#687F82"/>
<path d="M103.735 90H98.7354V106H103.735V90Z" fill="#365558"/>
<path d="M160.766 52H95.0298V75.7807H160.766C162.04 75.7807 163.144 74.7615 163.144 73.4026V54.2931C163.144 53.1041 162.125 52 160.766 52Z" fill="#FF8C29"/>
<path d="M95.1152 52H85.5181V75.7807H95.1152V52Z" fill="#FD6A33"/>
<path d="M29.3781 52C28.1041 52 27 53.0192 27 54.3781V73.4875C27 74.7615 28.0192 75.8656 29.3781 75.8656H85.5174V52.0849L29.3781 52Z" fill="#FD6A33"/>
<path d="M143.735 60H135.735V76H143.735V60Z" fill="#687F82"/>
<path d="M156.735 60H151.735V76H156.735V60Z" fill="#687F82"/>
<path d="M124.735 60H112.735V76H124.735V60Z" fill="#687F82"/>
<path d="M53.7354 60H45.7354V76H53.7354V60Z" fill="#365558"/>
<path d="M38.7354 60H32.7354V76H38.7354V60Z" fill="#365558"/>
<path d="M76.7354 60H64.7354V76H76.7354V60Z" fill="#365558"/>
<path d="M101.735 60H94.7354V76H101.735V60Z" fill="#687F82"/>
<path d="M94.7354 60H88.7354V76H94.7354V60Z" fill="#365558"/>
</g>
<defs>
<clipPath id="clip0_438_51">
<rect width="512" height="512" fill="white"/>
</clipPath>
</defs>
</svg>
