<svg width="512" height="512" viewBox="0 0 512 512" fill="none" xmlns="http://www.w3.org/2000/svg">
<g clip-path="url(#clip0_438_173)">
<path d="M204.565 264.637H149.217V284.659H204.565C205.638 284.659 206.567 283.801 206.567 282.657V266.567C206.496 265.495 205.638 264.637 204.565 264.637Z" fill="#4ACFD9"/>
<path d="M149.216 264.637H134.271V284.659H149.216V264.637Z" fill="#0295AA"/>
<path d="M93.8675 264.637C92.7948 264.637 91.8652 265.495 91.8652 266.639V282.729C91.8652 283.801 92.7233 284.731 93.8675 284.731H134.27V264.708L93.8675 264.637Z" fill="#0295AA"/>
<path d="M190.332 271.504H182.967V284.662H190.332V271.504Z" fill="#687F82"/>
<path d="M201.129 271.504H196.195V284.662H201.129V271.504Z" fill="#687F82"/>
<path d="M174.386 271.504H164.518V284.662H174.386V271.504Z" fill="#687F82"/>
<path d="M115.105 271.504H107.739V284.662H115.105V271.504Z" fill="#365558"/>
<path d="M101.946 271.504H97.0117V284.662H101.946V271.504Z" fill="#365558"/>
<path d="M133.625 271.504H123.757V284.662H133.625V271.504Z" fill="#365558"/>
<path d="M154.291 271.504H149.214V284.662H154.291V271.504Z" fill="#687F82"/>
<path d="M149.214 271.504H144.423V284.662H149.214V271.504Z" fill="#365558"/>
<path d="M197.626 239.469H142.278V259.491H197.626C198.699 259.491 199.629 258.633 199.629 257.489V241.4C199.629 240.398 198.771 239.469 197.626 239.469Z" fill="#4ACFD9"/>
<path d="M142.35 239.469H134.27V259.491H142.35V239.469Z" fill="#0295AA"/>
<path d="M87.0023 239.469C85.9297 239.469 85 240.327 85 241.471V257.561C85 258.633 85.8581 259.563 87.0023 259.563H134.27V239.54L87.0023 239.469Z" fill="#0295AA"/>
<path d="M183.397 246.406H176.031V259.564H183.397V246.406Z" fill="#687F82"/>
<path d="M194.192 246.406H189.258V259.564H194.192V246.406Z" fill="#687F82"/>
<path d="M167.449 246.406H157.581V259.564H167.449V246.406Z" fill="#687F82"/>
<path d="M108.239 246.406H100.874V259.564H108.239V246.406Z" fill="#365558"/>
<path d="M95.0093 246.406H90.0752V259.564H95.0093V246.406Z" fill="#365558"/>
<path d="M126.76 246.406H116.892V259.564H126.76V246.406Z" fill="#365558"/>
<path d="M147.427 246.406H142.35V259.564H147.427V246.406Z" fill="#687F82"/>
<path d="M142.349 246.406H137.558V259.564H142.349V246.406Z" fill="#365558"/>
<path d="M202.203 214.367H146.854V234.39H202.203C203.275 234.39 204.205 233.532 204.205 232.388V216.298C204.133 215.225 203.275 214.367 202.203 214.367Z" fill="#4ACFD9"/>
<path d="M146.854 214.367H134.269V234.39H146.854V214.367Z" fill="#0295AA"/>
<path d="M91.5052 214.367C90.4325 214.367 89.5029 215.225 89.5029 216.369V232.459C89.5029 233.532 90.361 234.461 91.5052 234.461H134.268V214.439H91.5052V214.367Z" fill="#0295AA"/>
<path d="M187.974 221.301H180.608V234.458H187.974V221.301Z" fill="#687F82"/>
<path d="M198.699 221.301H193.765V234.458H198.699V221.301Z" fill="#687F82"/>
<path d="M171.954 221.301H162.086V234.458H171.954V221.301Z" fill="#687F82"/>
<path d="M112.745 221.301H105.38V234.458H112.745V221.301Z" fill="#365558"/>
<path d="M99.5162 221.301H94.582V234.458H99.5162V221.301Z" fill="#365558"/>
<path d="M131.267 221.301H121.398V234.458H131.267V221.301Z" fill="#365558"/>
<path d="M151.933 221.301H146.855V234.458H151.933V221.301Z" fill="#687F82"/>
<path d="M146.855 221.301H142.063V234.458H146.855V221.301Z" fill="#365558"/>
<path d="M208.999 189.27H153.65V209.292H208.999C210.071 209.292 211.001 208.434 211.001 207.29V191.2C210.929 190.128 210.071 189.27 208.999 189.27Z" fill="#4ACFD9"/>
<path d="M153.649 189.27H138.703V209.292H153.649V189.27Z" fill="#0295AA"/>
<path d="M98.3011 189.27C97.2284 189.27 96.2988 190.128 96.2988 191.272V207.361C96.2988 208.434 97.1569 209.364 98.3011 209.364H138.704V189.341L98.3011 189.27Z" fill="#0295AA"/>
<path d="M194.766 196.133H187.4V209.291H194.766V196.133Z" fill="#687F82"/>
<path d="M205.563 196.133H200.629V209.291H205.563V196.133Z" fill="#687F82"/>
<path d="M178.819 196.133H168.951V209.291H178.819V196.133Z" fill="#687F82"/>
<path d="M119.539 196.133H112.174V209.291H119.539V196.133Z" fill="#365558"/>
<path d="M106.38 196.133H101.446V209.291H106.38V196.133Z" fill="#365558"/>
<path d="M138.059 196.133H128.19V209.291H138.059V196.133Z" fill="#365558"/>
<path d="M158.726 196.133H153.648V209.291H158.726V196.133Z" fill="#687F82"/>
<path d="M153.648 196.133H148.856V209.291H153.648V196.133Z" fill="#365558"/>
<path d="M202.06 164.098H146.712V184.12H202.06C203.133 184.12 204.062 183.262 204.062 182.118V166.028C204.062 165.027 203.204 164.098 202.06 164.098Z" fill="#4ACFD9"/>
<path d="M146.784 164.098H138.703V184.12H146.784V164.098Z" fill="#0295AA"/>
<path d="M91.4358 164.098C90.3632 164.098 89.4336 164.956 89.4336 166.1V182.19C89.4336 183.262 90.2917 184.192 91.4358 184.192H138.704V164.169H91.4358V164.098Z" fill="#0295AA"/>
<path d="M187.829 171.035H180.464V184.193H187.829V171.035Z" fill="#687F82"/>
<path d="M198.628 171.035H193.693V184.193H198.628V171.035Z" fill="#687F82"/>
<path d="M171.883 171.035H162.015V184.193H171.883V171.035Z" fill="#687F82"/>
<path d="M112.675 171.035H105.31V184.193H112.675V171.035Z" fill="#365558"/>
<path d="M99.4439 171.035H94.5098V184.193H99.4439V171.035Z" fill="#365558"/>
<path d="M131.193 171.035H121.325V184.193H131.193V171.035Z" fill="#365558"/>
<path d="M151.86 171.035H146.783V184.193H151.86V171.035Z" fill="#687F82"/>
<path d="M146.783 171.035H141.992V184.193H146.783V171.035Z" fill="#365558"/>
<path d="M206.637 139H151.289V159.023H206.637C207.71 159.023 208.64 158.164 208.64 157.02V141.002C208.568 139.858 207.71 139 206.637 139Z" fill="#4ACFD9"/>
<path d="M151.289 139H138.703V159.023H151.289V139Z" fill="#0295AA"/>
<path d="M95.9398 139C94.8672 139 93.9375 139.858 93.9375 141.002V157.092C93.9375 158.164 94.7956 159.094 95.9398 159.094H138.702V139.072L95.9398 139Z" fill="#0295AA"/>
<path d="M192.407 145.863H185.042V159.021H192.407V145.863Z" fill="#687F82"/>
<path d="M203.133 145.863H198.199V159.021H203.133V145.863Z" fill="#687F82"/>
<path d="M176.389 145.863H166.521V159.021H176.389V145.863Z" fill="#687F82"/>
<path d="M117.177 145.863H109.812V159.021H117.177V145.863Z" fill="#365558"/>
<path d="M103.95 145.863H99.0156V159.021H103.95V145.863Z" fill="#365558"/>
<path d="M135.7 145.863H125.832V159.021H135.7V145.863Z" fill="#365558"/>
<path d="M156.366 145.863H151.289V159.021H156.366V145.863Z" fill="#687F82"/>
<path d="M151.289 145.863H146.498V159.021H151.289V145.863Z" fill="#365558"/>
<path d="M414.565 261.637H359.217V281.659H414.565C415.638 281.659 416.567 280.801 416.567 279.657V263.567C416.496 262.495 415.638 261.637 414.565 261.637Z" fill="#4ACFD9"/>
<path d="M359.216 261.637H344.271V281.659H359.216V261.637Z" fill="#0295AA"/>
<path d="M303.867 261.637C302.795 261.637 301.865 262.495 301.865 263.639V279.729C301.865 280.801 302.723 281.731 303.867 281.731H344.27V261.708L303.867 261.637Z" fill="#0295AA"/>
<path d="M400.332 268.504H392.967V281.662H400.332V268.504Z" fill="#687F82"/>
<path d="M411.129 268.504H406.195V281.662H411.129V268.504Z" fill="#687F82"/>
<path d="M384.386 268.504H374.518V281.662H384.386V268.504Z" fill="#687F82"/>
<path d="M325.105 268.504H317.739V281.662H325.105V268.504Z" fill="#365558"/>
<path d="M311.946 268.504H307.012V281.662H311.946V268.504Z" fill="#365558"/>
<path d="M343.625 268.504H333.757V281.662H343.625V268.504Z" fill="#365558"/>
<path d="M364.291 268.504H359.214V281.662H364.291V268.504Z" fill="#687F82"/>
<path d="M359.214 268.504H354.423V281.662H359.214V268.504Z" fill="#365558"/>
<path d="M407.626 236.469H352.278V256.491H407.626C408.699 256.491 409.629 255.633 409.629 254.489V238.4C409.629 237.398 408.771 236.469 407.626 236.469Z" fill="#4ACFD9"/>
<path d="M352.35 236.469H344.27V256.491H352.35V236.469Z" fill="#0295AA"/>
<path d="M297.002 236.469C295.93 236.469 295 237.327 295 238.471V254.561C295 255.633 295.858 256.563 297.002 256.563H344.27V236.54L297.002 236.469Z" fill="#0295AA"/>
<path d="M393.397 243.406H386.031V256.564H393.397V243.406Z" fill="#687F82"/>
<path d="M404.192 243.406H399.258V256.564H404.192V243.406Z" fill="#687F82"/>
<path d="M377.449 243.406H367.581V256.564H377.449V243.406Z" fill="#687F82"/>
<path d="M318.239 243.406H310.874V256.564H318.239V243.406Z" fill="#365558"/>
<path d="M305.009 243.406H300.075V256.564H305.009V243.406Z" fill="#365558"/>
<path d="M336.76 243.406H326.892V256.564H336.76V243.406Z" fill="#365558"/>
<path d="M357.427 243.406H352.35V256.564H357.427V243.406Z" fill="#687F82"/>
<path d="M352.349 243.406H347.558V256.564H352.349V243.406Z" fill="#365558"/>
<path d="M412.203 211.367H356.854V231.39H412.203C413.275 231.39 414.205 230.532 414.205 229.388V213.298C414.133 212.225 413.275 211.367 412.203 211.367Z" fill="#4ACFD9"/>
<path d="M356.854 211.367H344.269V231.39H356.854V211.367Z" fill="#0295AA"/>
<path d="M301.505 211.367C300.433 211.367 299.503 212.225 299.503 213.369V229.459C299.503 230.532 300.361 231.461 301.505 231.461H344.268V211.439H301.505V211.367Z" fill="#0295AA"/>
<path d="M397.974 218.301H390.608V231.458H397.974V218.301Z" fill="#687F82"/>
<path d="M408.699 218.301H403.765V231.458H408.699V218.301Z" fill="#687F82"/>
<path d="M381.954 218.301H372.086V231.458H381.954V218.301Z" fill="#687F82"/>
<path d="M322.745 218.301H315.38V231.458H322.745V218.301Z" fill="#365558"/>
<path d="M309.516 218.301H304.582V231.458H309.516V218.301Z" fill="#365558"/>
<path d="M341.267 218.301H331.398V231.458H341.267V218.301Z" fill="#365558"/>
<path d="M361.933 218.301H356.855V231.458H361.933V218.301Z" fill="#687F82"/>
<path d="M356.855 218.301H352.063V231.458H356.855V218.301Z" fill="#365558"/>
<path d="M418.999 186.27H363.65V206.292H418.999C420.071 206.292 421.001 205.434 421.001 204.29V188.2C420.929 187.128 420.071 186.27 418.999 186.27Z" fill="#4ACFD9"/>
<path d="M363.649 186.27H348.703V206.292H363.649V186.27Z" fill="#0295AA"/>
<path d="M308.301 186.27C307.228 186.27 306.299 187.128 306.299 188.272V204.361C306.299 205.434 307.157 206.364 308.301 206.364H348.704V186.341L308.301 186.27Z" fill="#0295AA"/>
<path d="M404.766 193.133H397.4V206.291H404.766V193.133Z" fill="#687F82"/>
<path d="M415.563 193.133H410.629V206.291H415.563V193.133Z" fill="#687F82"/>
<path d="M388.819 193.133H378.951V206.291H388.819V193.133Z" fill="#687F82"/>
<path d="M329.539 193.133H322.174V206.291H329.539V193.133Z" fill="#365558"/>
<path d="M316.38 193.133H311.446V206.291H316.38V193.133Z" fill="#365558"/>
<path d="M348.059 193.133H338.19V206.291H348.059V193.133Z" fill="#365558"/>
<path d="M368.726 193.133H363.648V206.291H368.726V193.133Z" fill="#687F82"/>
<path d="M363.648 193.133H358.856V206.291H363.648V193.133Z" fill="#365558"/>
<path d="M412.06 161.098H356.712V181.12H412.06C413.133 181.12 414.062 180.262 414.062 179.118V163.028C414.062 162.027 413.204 161.098 412.06 161.098Z" fill="#4ACFD9"/>
<path d="M356.784 161.098H348.703V181.12H356.784V161.098Z" fill="#0295AA"/>
<path d="M301.436 161.098C300.363 161.098 299.434 161.956 299.434 163.1V179.19C299.434 180.262 300.292 181.192 301.436 181.192H348.704V161.169H301.436V161.098Z" fill="#0295AA"/>
<path d="M397.829 168.035H390.464V181.193H397.829V168.035Z" fill="#687F82"/>
<path d="M408.628 168.035H403.693V181.193H408.628V168.035Z" fill="#687F82"/>
<path d="M381.883 168.035H372.015V181.193H381.883V168.035Z" fill="#687F82"/>
<path d="M322.675 168.035H315.31V181.193H322.675V168.035Z" fill="#365558"/>
<path d="M309.444 168.035H304.51V181.193H309.444V168.035Z" fill="#365558"/>
<path d="M341.193 168.035H331.325V181.193H341.193V168.035Z" fill="#365558"/>
<path d="M361.86 168.035H356.783V181.193H361.86V168.035Z" fill="#687F82"/>
<path d="M356.783 168.035H351.992V181.193H356.783V168.035Z" fill="#365558"/>
<path d="M416.637 136H361.289V156.023H416.637C417.71 156.023 418.64 155.164 418.64 154.02V138.002C418.568 136.858 417.71 136 416.637 136Z" fill="#4ACFD9"/>
<path d="M361.289 136H348.703V156.023H361.289V136Z" fill="#0295AA"/>
<path d="M305.94 136C304.867 136 303.938 136.858 303.938 138.002V154.092C303.938 155.164 304.796 156.094 305.94 156.094H348.702V136.072L305.94 136Z" fill="#0295AA"/>
<path d="M402.407 142.863H395.042V156.021H402.407V142.863Z" fill="#687F82"/>
<path d="M413.133 142.863H408.199V156.021H413.133V142.863Z" fill="#687F82"/>
<path d="M386.389 142.863H376.521V156.021H386.389V142.863Z" fill="#687F82"/>
<path d="M327.177 142.863H319.812V156.021H327.177V142.863Z" fill="#365558"/>
<path d="M313.95 142.863H309.016V156.021H313.95V142.863Z" fill="#365558"/>
<path d="M345.7 142.863H335.832V156.021H345.7V142.863Z" fill="#365558"/>
<path d="M366.366 142.863H361.289V156.021H366.366V142.863Z" fill="#687F82"/>
<path d="M361.289 142.863H356.498V156.021H361.289V142.863Z" fill="#365558"/>
<path d="M93.5177 276C89.3872 276 82 282.094 82 289.5C82 296.906 89.3872 303 93.5177 303H250V276H93.5177Z" fill="#365558"/>
<path d="M44.74 476C39.4539 476 30 484.126 30 494C30 503.874 39.4539 512 44.74 512H245V476H44.74Z" fill="#365558"/>
<path d="M417 289.5C417 282.094 409.657 276 405.551 276H250V303H405.551C409.657 303 417 296.906 417 289.5Z" fill="#0295AA"/>
<path d="M465 494C465 484.126 455.59 476 450.329 476H251V512H450.329C455.59 512 465 503.874 465 494Z" fill="#0295AA"/>
<path d="M250 291H241.497C235.17 291 230 294.216 230 298.184V512H250V291Z" fill="#0295AA"/>
<path d="M269 298.152C269 294.201 264.088 291 258.078 291H250V511H269V298.152Z" fill="#4ACFD9"/>
<path d="M401.953 285H250V293H402.033C404.254 293 406 291.24 406 289C406 286.76 404.175 285 401.953 285Z" fill="#4ACFD9"/>
<path d="M96.9626 285C94.7436 285 93 286.76 93 289C93 291.24 94.7436 293 96.9626 293H250V285H96.9626Z" fill="#0295AA"/>
<path d="M442.864 489H250V498H442.964C445.784 498 448 496.02 448 493.5C448 490.98 445.684 489 442.864 489Z" fill="#4ACFD9"/>
<path d="M53.0984 489C50.2433 489 48 490.98 48 493.5C48 496.02 50.2433 498 53.0984 498H250V489H53.0984Z" fill="#0295AA"/>
<path d="M252.148 398.404L253.851 417.598C256.25 417.366 258.108 415.277 257.876 412.8L256.637 398.481C256.637 398.327 256.637 398.249 256.637 398.172C255.09 398.249 253.619 398.249 252.148 398.404Z" fill="#FFD1A9"/>
<path d="M248.277 398.796C248.277 398.95 248.277 399.105 248.277 399.183L249.516 413.501C249.748 415.746 251.605 417.526 253.85 417.448L252.147 398.254C250.909 398.486 249.593 398.641 248.277 398.796Z" fill="#FF8C29"/>
<path d="M266.312 507.228C266.003 504.829 263.913 502.971 261.514 503.203L262.133 510.169H266.544L266.312 507.228Z" fill="#FD6A33"/>
<path d="M261.436 503.355C259.191 503.742 257.721 505.755 257.875 507.999L258.108 510.244H262.055L261.436 503.355Z" fill="#FFD1A9"/>
<path d="M244.872 500.96C242.55 500.263 239.996 501.501 239.299 503.746L237.287 510.17H241.931L244.872 500.96Z" fill="#FFD1A9"/>
<path d="M247.736 506.452C248.433 504.13 247.195 501.654 244.873 500.957L241.932 510.245H246.575L247.736 506.452Z" fill="#FF8C29"/>
<path d="M267.858 413.423C267.162 415.745 268.4 418.222 270.722 418.919L276.372 401.04C274.979 400.653 273.586 400.188 272.115 399.879L267.858 413.423Z" fill="#FD6A33"/>
<path d="M250.987 303.441C194.014 303.441 147.662 350.314 147.662 407.927C147.662 465.54 194.014 512.413 250.987 512.413C307.96 512.413 354.312 465.541 354.312 407.927C354.312 350.314 307.96 303.441 250.987 303.441Z" fill="#4ACFD9"/>
<path d="M147.662 407.728C147.662 465.232 193.579 512.014 250.017 512.014V303.441C193.578 303.441 147.662 350.224 147.662 407.728Z" fill="#0295AA"/>
<path d="M250.017 329.512C207.766 329.512 173.977 364.649 173.977 407.539C173.977 450.428 208.349 485.323 250.599 485.323C292.849 485.323 327.222 450.428 327.222 407.539C327.222 364.649 292.267 329.512 250.017 329.512ZM250.599 455.031C224.803 455.031 203.816 433.726 203.816 407.539C203.816 381.351 224.22 359.929 250.017 359.929C275.814 359.929 297.382 381.351 297.382 407.539C297.382 433.726 276.396 455.031 250.599 455.031Z" fill="#E6EAEA"/>
<path d="M203.816 407.539C203.816 381.352 224.22 359.928 250.017 359.928V329.512C207.766 329.512 173.977 364.649 173.977 407.539C173.977 450.428 207.767 485.459 250.017 485.459V455.042C224.221 455.041 203.816 433.726 203.816 407.539Z" fill="#C4C4C4"/>
<path d="M173.733 407.718V411.589H203.441V407.718C203.441 381.388 224.335 359.929 250.017 359.929V329.512C207.954 329.511 173.733 364.595 173.733 407.718Z" fill="#F0353D"/>
<path d="M251.356 411.794C250.361 411.794 249.366 411.415 248.606 410.656L202.98 365.029C201.461 363.51 201.461 361.048 202.98 359.529C204.499 358.011 206.961 358.011 208.479 359.529L254.106 405.156C255.624 406.675 255.624 409.137 254.106 410.656C253.346 411.415 252.351 411.794 251.356 411.794Z" fill="#365558"/>
<path d="M250.987 381.613C236.69 381.613 225.059 393.418 225.059 407.928C225.059 422.439 236.69 434.243 250.987 434.243C265.283 434.243 276.914 422.438 276.914 407.928C276.914 393.419 265.283 381.613 250.987 381.613Z" fill="#687F82"/>
<path d="M262.984 411.799C260.847 411.799 259.114 410.067 259.114 407.929C259.114 403.235 255.295 399.415 250.6 399.415C248.463 399.415 246.73 397.683 246.73 395.546C246.73 393.408 248.463 391.676 250.6 391.676C259.562 391.676 266.854 398.967 266.854 407.929C266.854 410.067 265.121 411.799 262.984 411.799Z" fill="white"/>
<path d="M260 306V323" stroke="white" stroke-width="10" stroke-miterlimit="10" stroke-linecap="round" stroke-linejoin="round"/>
<path d="M305.141 35.9683C290.061 20.4759 270.081 12 248.849 12C248.686 12 248.523 12 248.359 12C204.589 12.2807 168.984 49.5522 168.984 95.1874L168.984 115.563C168.984 118.033 170.89 119.998 173.285 119.998H196.205C198.6 119.998 200.506 118.033 200.506 115.563L200.506 95.019C200.506 67.4021 222.01 44.7249 248.414 44.4442C261.425 44.332 273.674 49.44 282.929 58.8701C292.184 68.3003 297.302 80.8738 297.302 94.2893L297.737 163.714C297.737 172.527 304.542 184.689 312.926 184.969C313.144 180.217 313.307 184.969 313.525 184.969C317.608 184.969 321.474 183.341 324.468 180.423C327.571 177.335 329.259 168.429 329.259 163.995L328.823 94.2893C328.714 72.2856 320.33 51.573 305.141 35.9683Z" fill="#C4C4C4"/>
<path d="M315.977 116.407C313.593 116.407 311.696 114.51 311.696 112.126V93.9178C311.696 84.1636 309.583 74.843 305.356 66.1727C304.326 64.0593 305.193 61.5123 307.307 60.4827C309.42 59.4531 311.967 60.3202 312.997 62.4878C317.765 72.3503 320.204 82.9173 320.204 93.972V112.18C320.258 114.51 318.307 116.407 315.977 116.407Z" fill="white"/>
<path d="M295.869 49.915C294.785 49.915 293.702 49.4814 292.835 48.6686C288.337 44.225 283.297 40.4318 277.77 37.5055C268.666 32.6284 258.316 30.0815 247.857 30.0815C245.473 30.0815 243.576 28.1849 243.576 25.8005C243.576 23.4162 245.473 21.5195 247.857 21.5195C259.671 21.5195 271.43 24.4458 281.78 29.9731C288.012 33.2787 293.756 37.5597 298.85 42.5993C300.53 44.2792 300.53 46.9887 298.85 48.6686C298.037 49.4814 296.953 49.915 295.869 49.915Z" fill="white"/>
<path d="M327.388 115.715L167.977 115.715C156.392 115.715 146.942 125.25 146.942 136.941L146.942 271.733C146.942 274.104 148.811 275.989 151.16 275.989H344.258C346.607 275.989 348.475 274.104 348.475 271.733V136.941C348.422 125.25 339.026 115.715 327.388 115.715Z" fill="#687F82"/>
<path d="M167.715 116C155.755 116 146 124.776 146 136.446L146 270.998C146 273.364 147.929 276 150.354 276H250L250 116L167.715 116Z" fill="#365558"/>
<path d="M250 128V247C282.63 247 309.039 219.726 309.039 187.153C309.039 154.579 282.517 128 250 128Z" fill="#FF8C29"/>
<path d="M190 187.557C190 220.41 216.897 247 250 247V128C216.897 128.114 190 154.647 190 187.557Z" fill="#FD6A33"/>
<path d="M232.168 199.999L227.078 210.631C226.399 212.101 226.003 213.289 226.003 214.137C226.003 215.777 227.248 216.908 229.679 217.53V219.283H204.74V217.53C206.211 217.247 207.342 216.738 208.133 216.003C208.925 215.268 209.773 213.854 210.791 211.705L238.501 153.74C239.406 151.874 239.802 150.404 239.802 149.329C239.802 147.633 238.728 146.445 236.579 145.71V143.957H263.327V145.71C261.178 146.332 260.047 147.407 260.047 148.99C260.047 150.065 260.387 151.252 261.122 152.609L289.85 210.687C291.037 213.176 292.112 214.816 293.073 215.721C293.978 216.625 295.222 217.247 296.749 217.53V219.283H268.982V217.53C271.414 217.134 272.658 216.003 272.658 214.081C272.658 213.289 272.262 212.158 271.527 210.631L266.438 199.999H232.168ZM266.438 199.999L249.472 162.789L232.168 199.999" fill="white"/>
<path d="M289.114 194.848H209.094C208.303 194.848 207.681 195.47 207.681 196.261V199.937C207.681 200.729 208.303 201.351 209.094 201.351H289.114C289.906 201.351 290.528 200.729 290.528 199.937V196.261C290.528 195.47 289.906 194.848 289.114 194.848Z" fill="white"/>
<path d="M284.874 185.633H213.619C212.997 185.633 212.488 186.142 212.488 186.764V189.931C212.488 190.553 212.997 191.062 213.619 191.062H284.874C285.496 191.062 286.005 190.553 286.005 189.931V186.764C286.005 186.142 285.496 185.633 284.874 185.633Z" fill="white"/>
</g>
<defs>
<clipPath id="clip0_438_173">
<rect width="512" height="512" fill="white"/>
</clipPath>
</defs>
</svg>
