<svg width="512" height="512" viewBox="0 0 512 512" fill="none" xmlns="http://www.w3.org/2000/svg">
<g clip-path="url(#clip0_392_2514)">
<path d="M435.602 251.367H393.938V266.439H435.602C436.41 266.439 437.11 265.793 437.11 264.932V252.821C437.056 252.013 436.41 251.367 435.602 251.367Z" fill="#FF8C29"/>
<path d="M393.938 251.367H382.688V266.439H393.938V251.367Z" fill="#FD6A33"/>
<path d="M352.275 251.367C351.467 251.367 350.768 252.013 350.768 252.874V264.986C350.768 265.793 351.414 266.493 352.275 266.493H382.688V251.421L352.275 251.367Z" fill="#FD6A33"/>
<path d="M424.889 256.535H419.345V266.44H424.889V256.535Z" fill="#687F82"/>
<path d="M433.017 256.535H429.303V266.44H433.017V256.535Z" fill="#687F82"/>
<path d="M412.885 256.535H405.457V266.44H412.885V256.535Z" fill="#687F82"/>
<path d="M368.262 256.535H362.718V266.44H368.262V256.535Z" fill="#365558"/>
<path d="M358.356 256.535H354.642V266.44H358.356V256.535Z" fill="#365558"/>
<path d="M382.203 256.535H374.774V266.44H382.203V256.535Z" fill="#365558"/>
<path d="M397.759 256.535H393.938V266.44H397.759V256.535Z" fill="#687F82"/>
<path d="M393.938 256.535H390.331V266.44H393.938V256.535Z" fill="#365558"/>
<path d="M430.381 232.422H388.717V247.494H430.381C431.188 247.494 431.888 246.848 431.888 245.987V233.875C431.888 233.122 431.242 232.422 430.381 232.422Z" fill="#FF8C29"/>
<path d="M388.769 232.422H382.687V247.494H388.769V232.422Z" fill="#FD6A33"/>
<path d="M347.106 232.422C346.298 232.422 345.599 233.068 345.599 233.929V246.041C345.599 246.848 346.245 247.548 347.106 247.548H382.687V232.476L347.106 232.422Z" fill="#FD6A33"/>
<path d="M419.668 237.641H414.124V247.545H419.668V237.641Z" fill="#687F82"/>
<path d="M427.796 237.641H424.082V247.545H427.796V237.641Z" fill="#687F82"/>
<path d="M407.664 237.641H400.235V247.545H407.664V237.641Z" fill="#687F82"/>
<path d="M363.095 237.641H357.551V247.545H363.095V237.641Z" fill="#365558"/>
<path d="M353.134 237.641H349.42V247.545H353.134V237.641Z" fill="#365558"/>
<path d="M377.035 237.641H369.606V247.545H377.035V237.641Z" fill="#365558"/>
<path d="M392.592 237.641H388.771V247.545H392.592V237.641Z" fill="#687F82"/>
<path d="M388.771 237.641H385.164V247.545H388.771V237.641Z" fill="#365558"/>
<path d="M433.824 213.527H392.16V228.6H433.824C434.632 228.6 435.331 227.954 435.331 227.092V214.981C435.278 214.173 434.632 213.527 433.824 213.527Z" fill="#FF8C29"/>
<path d="M392.161 213.527H382.687V228.6H392.161V213.527Z" fill="#FD6A33"/>
<path d="M350.496 213.527C349.689 213.527 348.989 214.173 348.989 215.035V227.146C348.989 227.954 349.635 228.653 350.496 228.653H382.687V213.581H350.496V213.527Z" fill="#FD6A33"/>
<path d="M423.115 218.746H417.57V228.651H423.115V218.746Z" fill="#687F82"/>
<path d="M431.189 218.746H427.475V228.651H431.189V218.746Z" fill="#687F82"/>
<path d="M411.055 218.746H403.627V228.651H411.055V218.746Z" fill="#687F82"/>
<path d="M366.486 218.746H360.941V228.651H366.486V218.746Z" fill="#365558"/>
<path d="M356.528 218.746H352.813V228.651H356.528V218.746Z" fill="#365558"/>
<path d="M380.426 218.746H372.997V228.651H380.426V218.746Z" fill="#365558"/>
<path d="M395.983 218.746H392.161V228.651H395.983V218.746Z" fill="#687F82"/>
<path d="M392.161 218.746H388.555V228.651H392.161V218.746Z" fill="#365558"/>
<path d="M438.94 194.633H397.276V209.705H438.94C439.748 209.705 440.448 209.059 440.448 208.198V196.086C440.394 195.279 439.748 194.633 438.94 194.633Z" fill="#FF8C29"/>
<path d="M397.276 194.633H386.025V209.705H397.276V194.633Z" fill="#FD6A33"/>
<path d="M355.613 194.633C354.805 194.633 354.105 195.279 354.105 196.14V208.252C354.105 209.059 354.751 209.759 355.613 209.759H386.026V194.687L355.613 194.633Z" fill="#FD6A33"/>
<path d="M428.228 199.797H422.684V209.702H428.228V199.797Z" fill="#687F82"/>
<path d="M436.356 199.797H432.642V209.702H436.356V199.797Z" fill="#687F82"/>
<path d="M416.224 199.797H408.796V209.702H416.224V199.797Z" fill="#687F82"/>
<path d="M371.598 199.797H366.054V209.702H371.598V199.797Z" fill="#365558"/>
<path d="M361.695 199.797H357.98V209.702H361.695V199.797Z" fill="#365558"/>
<path d="M385.541 199.797H378.112V209.702H385.541V199.797Z" fill="#365558"/>
<path d="M401.098 199.797H397.276V209.702H401.098V199.797Z" fill="#687F82"/>
<path d="M397.274 199.797H393.667V209.702H397.274V199.797Z" fill="#365558"/>
<path d="M433.717 175.684H392.053V190.756H433.717C434.524 190.756 435.224 190.11 435.224 189.249V177.137C435.224 176.383 434.578 175.684 433.717 175.684Z" fill="#FF8C29"/>
<path d="M392.106 175.684H386.023V190.756H392.106V175.684Z" fill="#FD6A33"/>
<path d="M350.443 175.684C349.635 175.684 348.936 176.33 348.936 177.191V189.302C348.936 190.11 349.581 190.81 350.443 190.81H386.024V175.737H350.443V175.684Z" fill="#FD6A33"/>
<path d="M423.006 180.902H417.462V190.807H423.006V180.902Z" fill="#687F82"/>
<path d="M431.135 180.902H427.421V190.807H431.135V180.902Z" fill="#687F82"/>
<path d="M411.004 180.902H403.575V190.807H411.004V180.902Z" fill="#687F82"/>
<path d="M366.432 180.902H360.888V190.807H366.432V180.902Z" fill="#365558"/>
<path d="M356.473 180.902H352.759V190.807H356.473V180.902Z" fill="#365558"/>
<path d="M380.373 180.902H372.944V190.807H380.373V180.902Z" fill="#365558"/>
<path d="M395.93 180.902H392.108V190.807H395.93V180.902Z" fill="#687F82"/>
<path d="M392.107 180.902H388.5V190.807H392.107V180.902Z" fill="#365558"/>
<path d="M437.162 156.789H395.498V171.861H437.162C437.97 171.861 438.669 171.215 438.669 170.354V158.296C438.615 157.435 437.97 156.789 437.162 156.789Z" fill="#FF8C29"/>
<path d="M395.498 156.789H386.024V171.861H395.498V156.789Z" fill="#FD6A33"/>
<path d="M353.834 156.789C353.027 156.789 352.327 157.435 352.327 158.296V170.408C352.327 171.215 352.973 171.915 353.834 171.915H386.024V156.843L353.834 156.789Z" fill="#FD6A33"/>
<path d="M426.452 161.957H420.907V171.862H426.452V161.957Z" fill="#687F82"/>
<path d="M434.525 161.957H430.811V171.862H434.525V161.957Z" fill="#687F82"/>
<path d="M414.394 161.957H406.966V171.862H414.394V161.957Z" fill="#687F82"/>
<path d="M369.822 161.957H364.277V171.862H369.822V161.957Z" fill="#365558"/>
<path d="M359.864 161.957H356.149V171.862H359.864V161.957Z" fill="#365558"/>
<path d="M383.764 161.957H376.336V171.862H383.764V161.957Z" fill="#365558"/>
<path d="M399.321 161.957H395.499V171.862H399.321V161.957Z" fill="#687F82"/>
<path d="M395.5 161.957H391.894V171.862H395.5V161.957Z" fill="#365558"/>
<path d="M229.292 68.1133C214.602 72.4765 204.63 94.131 201.949 110.291C201.949 110.291 191.387 188.829 190.047 195.239C188.707 201.649 186.83 206.066 183.077 213.823C180.45 219.264 176 225.835 176 241.188C176 256.54 188.17 268.336 203.021 268.336H277.062V62.7266H258.351C258.298 62.7266 243.929 63.75 229.292 68.1133Z" fill="#0295AA"/>
<path d="M342.646 254.819C339.554 253.204 337.438 250.027 337.438 246.311V234.194C337.438 231.286 338.794 228.647 340.856 226.87V215.238C340.856 211.576 342.971 208.398 346.009 206.783V198.005C342.917 196.389 340.801 193.212 340.801 189.496V177.379C340.801 174.471 342.158 171.832 344.219 170.055V158.585C344.165 153.307 348.504 148.999 353.821 148.999H358.377C355.611 129.073 353.061 110.279 353.061 110.279C350.349 94.1227 340.259 72.4739 325.396 68.1118C310.532 63.7498 295.994 62.7266 295.994 62.7266H277.062V268.336H343.08C342.754 267.367 342.592 266.344 342.592 265.267V254.819H342.646Z" fill="#4ACFD9"/>
<path d="M261.499 44.1445C258.534 44.1445 256.152 46.9559 256.152 50.392V56.4833C256.152 59.9194 258.587 62.7307 261.499 62.7307H277.062V44.1445H261.499Z" fill="#365558"/>
<path d="M293.49 44.1445C296.619 44.1445 299.134 46.9559 299.134 50.392V56.4833C299.134 59.9194 296.563 62.7307 293.49 62.7307H277.062V44.1445H293.49Z" fill="#0295AA"/>
<path d="M256.551 0.312973C248.826 -1.35143 239.183 3.86369 243.125 10.2439C248.293 18.7324 257.35 27.1653 257.35 32.4914C257.35 37.8175 261.239 44.1422 267.366 44.1422H277.062C277.062 44.1422 277.062 7.35894 277.062 2.80958C273.173 2.92054 263.104 1.69998 256.551 0.312973Z" fill="#0295AA"/>
<path d="M298.257 0.312973C306.24 -1.35143 316.204 3.86369 312.13 10.2439C306.79 18.7324 297.432 27.1653 297.432 32.4914C297.432 37.8175 293.413 44.1422 287.082 44.1422H277.062C277.062 44.1422 277.062 7.35894 277.062 2.80958C281.081 2.92054 291.486 1.69998 298.257 0.312973Z" fill="#4ACFD9"/>
<path d="M343.128 108.624C344.095 98.5401 340.282 88.6183 332.714 81.4465C330.892 79.721 327.876 79.721 326.055 81.4465C324.234 83.172 324.234 86.03 326.055 87.7555C331.632 93.04 334.421 100.427 333.681 107.869C333.567 109.271 334.079 110.457 335.047 111.428C335.843 112.129 336.868 112.614 337.949 112.668C340.624 112.83 342.843 111.05 343.128 108.624Z" fill="white"/>
<path d="M70.74 476C65.4539 476 56 484.126 56 494C56 503.874 65.4539 512 70.74 512H271V476H70.74Z" fill="#365558"/>
<path d="M491 494C491 484.126 481.59 476 476.329 476H277V512H476.329C481.59 512 491 503.874 491 494Z" fill="#0295AA"/>
<path d="M468.864 489H276V498H468.964C471.784 498 474 496.02 474 493.5C474 490.98 471.684 489 468.864 489Z" fill="#4ACFD9"/>
<path d="M79.0984 489C76.2433 489 74 490.98 74 493.5C74 496.02 76.2433 498 79.0984 498H276V489H79.0984Z" fill="#0295AA"/>
<path d="M112.929 268C108.651 268 101 274.32 101 282C101 289.68 108.651 296 112.929 296H275V268H112.929Z" fill="#365558"/>
<path d="M448 282C448 274.32 440.393 268 436.139 268H275V296H436.139C440.393 296 448 289.68 448 282Z" fill="#0295AA"/>
<path d="M275 283H266.071C259.429 283 254 286.332 254 290.444V512H275V283Z" fill="#0295AA"/>
<path d="M295 290.412C295 286.318 289.83 283 283.503 283H275V511H295V290.412Z" fill="#4ACFD9"/>
<path d="M432.798 277H275V285H432.88C435.187 285 437 283.24 437 281C437 278.76 435.105 277 432.798 277Z" fill="#4ACFD9"/>
<path d="M116.114 277C113.81 277 112 278.76 112 281C112 283.24 113.81 285 116.114 285H275V277H116.114Z" fill="#0295AA"/>
<path d="M277.207 394.346L278.97 414.224C281.455 413.983 283.379 411.819 283.138 409.254L281.856 394.426C281.856 394.266 281.856 394.186 281.856 394.105C280.253 394.186 278.73 394.186 277.207 394.346Z" fill="#FFD1A9"/>
<path d="M273.198 394.749C273.198 394.909 273.198 395.069 273.198 395.149L274.481 409.978C274.721 412.302 276.645 414.146 278.969 414.065L277.206 394.188C275.923 394.428 274.561 394.588 273.198 394.749Z" fill="#FF8C29"/>
<path d="M291.875 507.044C291.554 504.559 289.39 502.635 286.905 502.876L287.546 510.09H292.115L291.875 507.044Z" fill="#FD6A33"/>
<path d="M286.825 503.031C284.5 503.432 282.977 505.516 283.138 507.84L283.378 510.165H287.466L286.825 503.031Z" fill="#FFD1A9"/>
<path d="M269.671 500.552C267.267 499.831 264.622 501.113 263.9 503.438L261.816 510.09H266.626L269.671 500.552Z" fill="#FFD1A9"/>
<path d="M272.637 506.242C273.359 503.837 272.076 501.272 269.672 500.551L266.626 510.169H271.435L272.637 506.242Z" fill="#FF8C29"/>
<path d="M293.477 409.898C292.755 412.302 294.038 414.867 296.442 415.589L302.293 397.073C300.851 396.673 299.408 396.192 297.885 395.871L293.477 409.898Z" fill="#FD6A33"/>
<path d="M276.004 296C217.002 296 169 344.541 169 404.206C169 463.871 217.002 512.412 276.004 512.412C335.006 512.412 383.008 463.871 383.008 404.206C383.008 344.542 335.006 296 276.004 296Z" fill="#4ACFD9"/>
<path d="M169 404C169 463.551 216.552 512 275 512V296C216.551 296 169 344.449 169 404Z" fill="#0295AA"/>
<path d="M275 323C231.245 323 196.252 359.389 196.252 403.805C196.252 448.222 231.849 484.359 275.603 484.359C319.358 484.359 354.954 448.222 354.954 403.805C354.954 359.389 318.754 323 275 323ZM275.603 452.988C248.888 452.988 227.154 430.925 227.154 403.805C227.154 376.685 248.285 354.5 275 354.5C301.715 354.5 324.052 376.685 324.052 403.805C324.052 430.925 302.318 452.988 275.603 452.988Z" fill="#E6EAEA"/>
<path d="M227.154 403.805C227.154 376.686 248.285 354.5 275 354.5V323C231.245 323 196.252 359.388 196.252 403.805C196.252 448.222 231.246 484.5 275 484.5V453C248.285 452.999 227.154 430.925 227.154 403.805Z" fill="#C4C4C4"/>
<path d="M196 403.991V408H226.766V403.991C226.766 376.724 248.403 354.5 275 354.5V323C231.439 322.999 196 359.332 196 403.991Z" fill="#BCD643"/>
<path d="M276.386 408.212C275.356 408.212 274.325 407.819 273.539 407.032L226.288 359.781C224.715 358.208 224.715 355.658 226.288 354.085C227.861 352.513 230.411 352.513 231.983 354.085L279.234 401.337C280.807 402.91 280.807 405.46 279.234 407.032C278.448 407.819 277.417 408.212 276.386 408.212Z" fill="#365558"/>
<path d="M276.004 376.957C261.198 376.957 249.152 389.182 249.152 404.209C249.152 419.236 261.198 431.461 276.004 431.461C290.809 431.461 302.855 419.236 302.855 404.209C302.855 389.183 290.809 376.957 276.004 376.957Z" fill="#687F82"/>
<path d="M288.428 408.215C286.214 408.215 284.42 406.421 284.42 404.207C284.42 399.346 280.465 395.39 275.603 395.39C273.39 395.39 271.596 393.596 271.596 391.383C271.596 389.169 273.39 387.375 275.603 387.375C284.885 387.375 292.435 394.926 292.435 404.207C292.435 406.421 290.641 408.215 288.428 408.215Z" fill="white"/>
<path d="M285 299V316" stroke="white" stroke-width="10" stroke-miterlimit="10" stroke-linecap="round" stroke-linejoin="round"/>
<path d="M233.588 45.2463L168.888 83.3463L216.788 162.646L281.488 124.546C294.288 116.846 316.588 74.1463 308.888 61.3463L299.688 46.1463C291.888 33.4463 246.288 37.5463 233.588 45.2463ZM282.488 80.8463C276.688 84.3463 269.088 82.4463 265.588 76.6463C262.088 70.8463 263.988 63.2463 269.788 59.7463C275.588 56.2463 283.088 58.1463 286.588 63.9463C290.188 69.8463 288.288 77.3463 282.488 80.8463Z" fill="#FD6A33"/>
<path d="M168.788 83.3438L216.688 162.644L126.888 215.444C114.088 223.144 97.5877 219.044 89.8877 206.244L69.8877 173.144C62.1877 160.344 66.2877 143.744 78.9877 136.044L168.788 83.3438Z" fill="#F0353D"/>
<path d="M131.856 184.777L108.828 146.691L134.521 131.156L137.239 135.65L116.585 148.138L123.717 159.933L141.591 149.126L144.308 153.62L126.435 164.427L136.896 181.729L131.856 184.777ZM164.2 165.22L141.172 127.135L158.058 116.924C161.453 114.872 164.243 113.658 166.428 113.282C168.603 112.89 170.743 113.24 172.846 114.333C174.95 115.426 176.635 117.021 177.902 119.116C179.536 121.818 180.039 124.624 179.41 127.535C178.781 130.446 176.791 133.257 173.441 135.969C175.162 135.804 176.557 135.823 177.627 136.028C179.916 136.489 182.331 137.334 184.873 138.565L197.765 144.925L191.426 148.758L181.595 143.881C178.741 142.485 176.471 141.469 174.785 140.833C173.099 140.196 171.729 139.866 170.674 139.842C169.636 139.807 168.669 139.93 167.775 140.211C167.13 140.435 166.158 140.94 164.859 141.726L159.014 145.26L169.24 162.172L164.2 165.22ZM156.375 140.896L167.208 134.345C169.512 132.953 171.172 131.63 172.188 130.377C173.193 129.106 173.72 127.747 173.767 126.3C173.804 124.835 173.45 123.488 172.707 122.258C171.618 120.457 170.064 119.374 168.046 119.009C166.046 118.634 163.634 119.3 160.811 121.007L148.757 128.296L156.375 140.896Z" fill="#E6EAEA"/>
<path d="M210.154 136.175L187.126 98.0903L214.664 81.4396L217.381 85.934L194.884 99.5373L201.937 111.202L223.006 98.4625L225.707 102.931L204.638 115.67L212.477 128.634L235.858 114.496L238.575 118.991L210.154 136.175ZM245.642 114.718L222.614 76.6329L250.151 59.9822L252.869 64.4765L230.371 78.0798L237.424 89.7444L258.493 77.005L261.195 81.4734L240.126 94.2128L247.964 107.176L271.345 93.0389L274.063 97.5333L245.642 114.718Z" fill="white"/>
<path d="M274.553 145.098V246.107C302.439 246.107 325.009 223.489 325.009 195.651C325.009 167.813 302.342 145.098 274.553 145.098Z" fill="#FF8C29"/>
<path d="M224 195.553C224 223.439 246.618 246.01 274.456 246.01V145C246.618 145.097 224 167.618 224 195.553Z" fill="#FD6A33"/>
<path d="M259.958 206.188L255.608 215.274C255.028 216.531 254.69 217.545 254.69 218.27C254.69 219.672 255.753 220.639 257.831 221.17V222.668H236.518V221.17C237.774 220.929 238.741 220.494 239.417 219.865C240.094 219.237 240.819 218.029 241.689 216.192L265.371 166.654C266.144 165.059 266.482 163.803 266.482 162.884C266.482 161.434 265.564 160.419 263.727 159.791V158.293H286.587V159.791C284.751 160.323 283.784 161.241 283.784 162.594C283.784 163.513 284.074 164.528 284.703 165.687L309.254 215.322C310.269 217.449 311.187 218.85 312.009 219.624C312.782 220.397 313.845 220.929 315.15 221.17V222.668H291.42V221.17C293.499 220.832 294.562 219.865 294.562 218.222C294.562 217.545 294.223 216.579 293.595 215.274L289.246 206.188H259.958ZM289.246 206.188L274.747 174.387L259.958 206.188" fill="white"/>
<path d="M308.626 201.789H240.239C239.563 201.789 239.031 202.321 239.031 202.997V206.139C239.031 206.815 239.563 207.347 240.239 207.347H308.626C309.303 207.347 309.835 206.815 309.835 206.139V202.997C309.835 202.321 309.303 201.789 308.626 201.789Z" fill="white"/>
<path d="M305.001 193.91H244.105C243.574 193.91 243.139 194.345 243.139 194.877V197.583C243.139 198.115 243.574 198.55 244.105 198.55H305.001C305.533 198.55 305.968 198.115 305.968 197.583V194.877C305.968 194.345 305.533 193.91 305.001 193.91Z" fill="white"/>
</g>
<defs>
<clipPath id="clip0_392_2514">
<rect width="512" height="512" fill="white"/>
</clipPath>
</defs>
</svg>
