<?xml version="1.0" encoding="utf-8"?>
<!-- Generator: Adobe Illustrator 25.4.1, SVG Export Plug-In . SVG Version: 6.00 Build 0)  -->
<svg version="1.1" id="Balance" xmlns="http://www.w3.org/2000/svg" xmlns:xlink="http://www.w3.org/1999/xlink" x="0px" y="0px"
	 viewBox="0 0 508.5 512" style="enable-background:new 0 0 508.5 512;" xml:space="preserve">
<style type="text/css">
	.st0{fill:#365558;}
	.st1{fill:#0295AA;}
	.st2{fill:#9BAAAB;}
	.st3{fill:#CDD4D5;}
	.st4{fill:none;stroke:#0295AA;stroke-width:9;stroke-linecap:round;stroke-linejoin:round;}
	.st5{fill:#FD6A33;}
	.st6{fill:#FF8C29;}
	.st7{fill:#F0353D;}
	.st8{fill:#4ACFD9;}
	.st9{fill:#E6EAEA;}
	.st10{fill:#FFFFFF;}
	.st11{font-family:'ArialMT';}
	.st12{font-size:62.1771px;}
</style>
<path class="st0" d="M141.5,481.3c-5.5,0-10,6.9-10,15.4V512h125v-30.7H141.5z"/>
<path class="st1" d="M381.5,496.6c0-8.5-4.5-15.4-10-15.4h-115V512h125V496.6z"/>
<path class="st1" d="M336.5,454.4c0-8.5-4.5-15.4-10-15.4h-70v30.7h80V454.4z"/>
<path class="st0" d="M186.5,439c-5.5,0-10,6.9-10,15.4v15.4h80V439H186.5z"/>
<path class="st2" d="M231.5,429h25V170.5c-7.2,0-14.3-1.7-20.7-5L231.5,429z"/>
<path class="st3" d="M256.5,170.5V429h25l-4.3-263.5C270.8,168.8,263.7,170.5,256.5,170.5z"/>
<path class="st2" d="M234.5,78.2c6.7-3.7,14.3-5.7,22-5.7V0h-19.7c-2.8,0-5,2.2-5,5c0,0.1,0,0.2,0,0.3L234.5,78.2z"/>
<path class="st3" d="M281.1,5.3c0.2-2.8-1.9-5.1-4.7-5.3c-0.1,0-0.2,0-0.3,0h-19.6v72.5c7.7,0,15.3,2,22,5.7L281.1,5.3z"/>
<polyline class="st4" points="156.5,208.6 80.5,78.1 4.5,208.6 "/>
<line class="st4" x1="80.5" y1="78.1" x2="80.5" y2="54.5"/>
<path id="plato" class="st5" d="M160.5,205.3H0.5v10.4c0,11.5,4.5,20.7,10,20.7h140c5.5,0,10-9.4,10-20.7V205.3z"/>
<path id="plato-2" class="st6" d="M495.1,415h-160v10.3c0,11.3,4.5,20.8,10,20.8h140c5.5,0,10-9.3,10-20.8V415z"/>
<path class="st1" d="M217.5,121.5c0,21.5,17.5,39,39,39v-78C235,82.5,217.5,100,217.5,121.5z"/>
<path class="st5" d="M180.1,79.4c-30.8-7.7-62.8-15.7-99.7-42.2c-4.5-3.2-10.8-2.2-14,2.3c-3.2,4.5-2.2,10.8,2.3,14l0,0
	c7.2,5.2,14.6,10,22.3,14.4c31,17.7,58.9,24.7,84.2,30.9c22.1,5.5,42.9,10.7,63.3,22.3l9.9-17.4C225.7,90.8,203.5,85.3,180.1,79.4z"
	/>
<path class="st7" d="M232.5,121.5c0,13.2,10.7,24,23.9,24c0,0,0.1,0,0.1,0v-48c-13.2,0-24,10.7-24,23.9
	C232.5,121.4,232.5,121.5,232.5,121.5z"/>
<path class="st8" d="M256.5,82.5v78c21.5,0,39-17.5,39-39S278,82.5,256.5,82.5z"/>
<path class="st6" d="M426.9,216.9c1.6-5.3-1.3-10.9-6.6-12.5c-43.1-13.2-68.2-33.4-92.4-53c-19-15.4-37.1-29.9-62.2-40.6l-7.8,18.4
	c22.6,9.6,39.6,23.2,57.5,37.7c19.8,15.9,41.9,33.7,74.4,47.5c8.1,3.4,16.4,6.4,24.8,9c5.1,1.7,10.5-1.1,12.2-6.1
	C426.8,217.2,426.9,217,426.9,216.9z"/>
<path class="st5" d="M256.5,97.5v48c13.3,0,24-10.7,24-24S269.8,97.5,256.5,97.5z"/>
<path class="st1" d="M369,245.2c-13.8,4.1-23.1,24.3-25.6,39.4c0,0-9.9,73.3-11.2,79.3s-3,10.1-6.5,17.3c-2.5,5.1-6.6,11.2-6.6,25.5
	c-0.1,13.9,11.1,25.2,25,25.3c0.1,0,0.2,0,0.3,0h69.4V240.1h-17.5C387.1,240.9,377.9,242.6,369,245.2z"/>
<path class="st8" d="M431.3,240.1h-17.5V432h69.4c13.9,0.1,25.2-11.1,25.3-25c0-0.1,0-0.2,0-0.3c0-14.3-4.2-20.5-6.6-25.5
	c-3.5-7.2-5.3-11.4-6.5-17.3s-11.2-79.3-11.2-79.3c-2.5-15.1-11.9-35.3-25.6-39.4C449.7,242.6,440.5,240.9,431.3,240.1z"/>
<path class="st0" d="M398.9,222.2c-2.8,0-5.1,2.7-5.1,6v5.9c0,3.3,2.3,6,5.1,6h14.8v-17.9H398.9z"/>
<path class="st1" d="M428.5,222.2c2.8,0,5.1,2.7,5.1,6v5.9c0,3.3-2.3,6-5.1,6h-14.8v-17.9H428.5z"/>
<path class="st1" d="M394.3,182.5c-7.3-1.5-16.4,3.2-12.7,9c4.9,7.7,13.4,15.3,13.4,20.2s3.7,10.6,9.4,10.6h9.1v-37.4
	C407.1,184.5,400.6,183.7,394.3,182.5z"/>
<path class="st8" d="M433.1,182.5c7.3-1.5,16.4,3.2,12.7,9c-4.9,7.7-13.4,15.3-13.4,20.2s-3.7,10.6-9.4,10.6h-9.1v-37.4
	C420.3,184.5,426.8,183.7,433.1,182.5z"/>
<path class="st9" d="M341.6,391c0.9,0.9,1.3,2.1,1.2,3.3c-0.6,6.9,1.8,13.7,6.7,18.6c1.6,1.6,1.6,4.2,0,5.8s-4.2,1.6-5.8,0
	c-6.6-6.6-10-15.8-9.1-25.1c0.2-2.2,2.2-3.9,4.4-3.7c0,0,0.1,0,0.1,0C340,389.9,340.9,390.3,341.6,391z"/>
<path class="st10" d="M474.6,283.1c0.9-9.4-2.5-18.7-9.2-25.3c-1.6-1.6-4.3-1.6-5.9,0s-1.6,4.3,0,5.9c4.9,4.9,7.4,11.8,6.7,18.7
	c-0.1,1.2,0.4,2.4,1.2,3.3c0.7,0.7,1.6,1.1,2.6,1.2C472.3,287.1,474.4,285.4,474.6,283.1z"/>
<path class="st6" d="M413.7,263.1v105.1c29,0,52.5-23.5,52.5-52.5C466.2,286.6,442.7,263.1,413.7,263.1z"/>
<path class="st5" d="M361.2,315.6c0,29,23.5,52.5,52.5,52.5c0,0,0,0,0,0V263C384.7,263,361.2,286.6,361.2,315.6z"/>
<path class="st10" d="M398.6,326.6l-4.5,9.4c-0.5,1-0.9,2-1,3.1c0,1.5,1.1,2.5,3.3,3v1.6h-22.2v-1.6c1.1-0.2,2.2-0.7,3-1.4
	c1-1.1,1.8-2.4,2.4-3.8l24.6-51.5c0.7-1.2,1.1-2.5,1.2-3.9c0-1.5-1-2.6-2.9-3.2v-1.6h23.8v1.6c-1.9,0.6-2.9,1.5-2.9,2.9
	c0,1.1,0.4,2.2,1,3.2l25.5,51.6c0.7,1.7,1.7,3.2,2.9,4.5c0.9,0.9,2.1,1.4,3.3,1.6v1.6h-24.7v-1.6c2.2-0.4,3.3-1.4,3.3-3.1
	c-0.2-1.1-0.5-2.1-1-3.1l-4.5-9.4 M429,326.6l-15.1-33.1l-15.4,33.1"/>
<path class="st10" d="M449.2,322.1h-71.1c-0.7,0-1.3,0.6-1.3,1.3v3.3c0,0.7,0.6,1.3,1.3,1.3h71.1c0.7,0,1.3-0.6,1.3-1.3v-3.3
	C450.5,322.7,449.9,322.1,449.2,322.1z"/>
<path class="st10" d="M445.4,313.9h-63.3c-0.6,0-1,0.4-1,1v2.8c0,0.6,0.4,1,1,1h63.3c0.6,0,1-0.4,1-1v-2.8c0-0.5-0.4-1-0.9-1
	C445.5,313.9,445.4,313.9,445.4,313.9z"/>
<path class="st5" d="M215.2,226.6l-64.7,38.1l47.9,79.3l64.7-38.1c12.8-7.7,35.1-50.4,27.4-63.2l-9.2-15.2
	C273.5,214.8,227.9,218.9,215.2,226.6z M264.1,262.2c-5.8,3.5-13.4,1.6-16.9-4.2c-3.5-5.8-1.6-13.4,4.2-16.9
	c5.8-3.5,13.3-1.6,16.8,4.2C271.8,251.2,269.9,258.7,264.1,262.2L264.1,262.2z"/>
<path class="st7" d="M150.4,264.7l47.9,79.3l-89.8,52.8c-12.8,7.7-29.3,3.6-37-9.2l-20-33.1c-7.7-12.8-3.6-29.4,9.1-37.1
	L150.4,264.7z"/>
<text transform="matrix(0.8557 -0.5174 0.5174 0.8557 106.503 365.1992)" class="st2 st11 st12">FR</text>
<text transform="matrix(0.8557 -0.5174 0.5174 0.8557 186.2372 318.8081)" class="st3 st11 st12">EE</text>
</svg>
