<?xml version="1.0" encoding="utf-8"?>
<!-- Generator: Adobe Illustrator 25.4.1, SVG Export Plug-In . SVG Version: 6.00 Build 0)  -->
<svg version="1.1" id="Layer_1" xmlns="http://www.w3.org/2000/svg" xmlns:xlink="http://www.w3.org/1999/xlink" x="0px" y="0px"
	 viewBox="0 0 595.3 841.9" style="enable-background:new 0 0 595.3 841.9;" xml:space="preserve">
<style type="text/css">
	.st0{fill:#9EA8AA;}
	.st1{fill:#E7E9E9;}
	.st2{fill:#DF6A3A;}
	.st3{fill:#E58B35;}
	.st4{fill:none;}
	.st5{fill:#F0353D;}
	.st6{fill:#FFFFFF;}
	.st7{fill:#365558;}
</style>
<path class="st0" d="M349.9,243.8v1H233.3v-1h-20v1.3h156.6v-1.3H349.9z"/>
<path class="st1" d="M369.9,221v22.8h-20v-14.5c0-5.1-4.1-9.2-9.2-9.2h-47.6v-18.3h57.6C361.3,201.8,369.9,210.4,369.9,221z"/>
<path class="st0" d="M293.1,201.8v18.3h-50.6c-5.1,0-9.2,4.1-9.2,9.2v14.5h-20V221c0-10.6,8.6-19.2,19.2-19.2H293.1z"/>
<path class="st0" d="M293,245.2v350.1H76.7c-14.8,0-26.8-12-26.8-26.8V264.3c0-10.5,8.5-19.1,19.1-19.1H293z"/>
<path class="st1" d="M538,264.3v304.3c0,14.8-12,26.8-26.8,26.8H293.1V245.2H519C529.5,245.2,538,253.7,538,264.3z"/>
<path class="st2" d="M293.1,474.2l-123.8-0.9c-22.7,0-42.9-14.4-50.2-35.9l-52.7-154c-1.9-5.5-2.9-11.4-2.9-17.2v-14.3
	c0-3.8,3-6.8,6.8-6.8h143v18.5c0,10.6,8.6,19.2,19.2,19.2h60.6V443V474.2z"/>
<path class="st2" d="M293.1,245.1v37.7h-60.6c-10.6,0-19.2-8.6-19.2-19.2v-18.5H293.1z"/>
<path class="st3" d="M519.7,251.9v6.7c0,6.4-1.2,12.8-3.5,18.9L454.9,439c-7.8,20.6-27.6,34.2-49.7,34.2l-112.1,1L293,443V282.8
	h57.6c10.6,0,19.2-8.6,19.2-19.2v-18.5h143C516.7,245.1,519.7,248.2,519.7,251.9z"/>
<path class="st3" d="M369.9,245.1v18.5c0,10.6-8.6,19.2-19.2,19.2h-57.6v-37.7L369.9,245.1L369.9,245.1z"/>
<line class="st4" x1="292.1" y1="244.8" x2="292.1" y2="186.3"/>
<path class="st5" d="M290.1,365.3c0.3,0,0.8-0.1,1.1-0.2c1-0.4,1.6-1.4,1.6-2.5v-85.8c0-0.8-0.3-1.4-0.8-1.9l-0.4-0.4
	c-0.5-0.5-1.2-0.8-2-0.8s-1.4,0.2-2,0.8l-44.4,43.3c-0.5,0.5-0.8,1.2-0.8,1.9c0,0.8,0.3,1.4,0.9,1.9l44.8,42.9
	C288.7,365.1,289.3,365.3,290.1,365.3z"/>
<path class="st1" d="M193.7,435.7c0-27.2,10.8-51.9,28.5-70.1l70.7,70v101.3C237.8,535.3,193.7,490.6,193.7,435.7z"/>
<path class="st0" d="M293,435.7V334.5c1,0,1.9,0,2.9,0c56.5,0,102.2,45.3,102.2,101.2s-45.8,101.2-102.2,101.2c-1,0-2,0-3,0V435.6
	L293,435.7z"/>
<path class="st6" d="M349.1,448.7c-4.4,0-8.1,3.6-8.1,8c0,9.6-7.9,17.5-17.7,17.5c-4.4,0-8,3.6-8,8s3.6,8,8,8
	c18.6,0,33.7-15,33.7-33.4C357.1,452.2,353.5,448.7,349.1,448.7z"/>
<path class="st7" d="M297.6,441.3L297.6,441.3c3.2-3.1,3.2-8.3,0-11.4l-52.7-52.2c-3.2-3.1-8.3-3.1-11.5,0l0,0
	c-3.2,3.1-3.2,8.3,0,11.4l52.7,52.2C289.3,444.4,294.5,444.4,297.6,441.3z"/>
<path class="st7" d="M291.9,443.8L291.9,443.8c-4.4,0-8.1-3.6-8.1-8.1v-44.8c0-4.4,3.6-8.1,8.1-8.1l0,0c4.4,0,8.1,3.6,8.1,8.1v44.8
	C300,440.2,296.3,443.8,291.9,443.8z"/>
<path class="st5" d="M394.1,435.7c0-55.1-45.8-99.9-102.1-99.9h-5.2v-31.1h5.2c73.8,0,133.8,58.8,133.8,131
	c0,71.9-59.5,130.5-132.9,131v-31.1C348.8,535.1,394.1,490.5,394.1,435.7z"/>
</svg>
