<?xml version="1.0" encoding="utf-8"?>
<!-- Generator: Adobe Illustrator 25.4.1, SVG Export Plug-In . SVG Version: 6.00 Build 0)  -->
<svg version="1.1" id="Layer_1" xmlns="http://www.w3.org/2000/svg" xmlns:xlink="http://www.w3.org/1999/xlink" x="0px" y="0px"
	 viewBox="0 0 512 512" style="enable-background:new 0 0 512 512;" xml:space="preserve">
<style type="text/css">
	.st0{display:none;fill:#020202;}
	.st1{fill:#9EA8AA;}
	.st2{fill:#E7E9E9;}
	.st3{fill:#FD6A33;}
	.st4{fill:#FF8C29;}
	.st5{fill:none;}
	.st6{fill:#F0353D;}
	.st7{fill:#FFFFFF;}
	.st8{fill:#365558;}
	.st9{fill:#FFD1A9;}
	.st10{fill:#0295AA;}
	.st11{fill:#4ACFD9;}
	.st12{fill:#9BAAAB;}
	.st13{fill:#CDD4D5;}
	.st14{fill:#E6EAEA;}
	.st15{fill:#BCD643;}
</style>
<rect x="192" y="22" class="st0" width="512" height="512"/>
<path class="st1" d="M311.9,108.5v1H195.4v-1h-20v1.3H332v-1.3H311.9z"/>
<path class="st2" d="M331.9,85.7v22.8h-20V94c0-5.1-4.1-9.2-9.2-9.2h-47.6V66.5h57.6C323.3,66.5,331.9,75.1,331.9,85.7z"/>
<path class="st1" d="M255.2,66.5v18.3h-50.6c-5.1,0-9.2,4.1-9.2,9.2v14.5h-20V85.7c0-10.6,8.6-19.2,19.2-19.2H255.2z"/>
<path class="st1" d="M255.1,109.9V460H38.8c-14.8,0-26.8-12-26.8-26.8V129c0-10.5,8.5-19.1,19.1-19.1L255.1,109.9L255.1,109.9z"/>
<path class="st2" d="M500,129v304.3c0,14.8-12,26.8-26.8,26.8H255.2V109.9H481C491.5,109.9,500,118.4,500,129z"/>
<path class="st3" d="M255.2,338.9L131.4,338c-22.7,0-42.9-14.4-50.2-35.9l-52.7-154c-1.9-5.5-2.9-11.4-2.9-17.2v-14.3
	c0-3.8,3-6.8,6.8-6.8h143v18.5c0,10.6,8.6,19.2,19.2,19.2h60.6v160.2V338.9z"/>
<path class="st3" d="M255.2,109.8v37.7h-60.6c-10.6,0-19.2-8.6-19.2-19.2v-18.5H255.2z"/>
<path class="st4" d="M481.8,116.6v6.7c0,6.4-1.2,12.8-3.5,18.9l-61.3,161.5c-7.8,20.6-27.6,34.2-49.7,34.2l-112.1,1l-0.1-31.2V147.5
	h57.6c10.6,0,19.2-8.6,19.2-19.2v-18.5h143C478.8,109.8,481.8,112.9,481.8,116.6z"/>
<path class="st4" d="M331.9,109.8v18.5c0,10.6-8.6,19.2-19.2,19.2h-57.6v-37.7L331.9,109.8L331.9,109.8z"/>
<line class="st5" x1="254.2" y1="109.5" x2="254.2" y2="51"/>
<path class="st6" d="M252.2,230c0.3,0,0.8-0.1,1.1-0.2c1-0.4,1.6-1.4,1.6-2.5v-85.8c0-0.8-0.3-1.4-0.8-1.9l-0.4-0.4
	c-0.5-0.5-1.2-0.8-2-0.8s-1.4,0.2-2,0.8l-44.4,43.3c-0.5,0.5-0.8,1.2-0.8,1.9c0,0.8,0.3,1.4,0.9,1.9l44.8,42.9
	C250.8,229.8,251.3,230,252.2,230z"/>
<path class="st2" d="M155.8,300.4c0-27.2,10.8-51.9,28.5-70.1l70.7,70v101.3C199.9,400,155.8,355.3,155.8,300.4z"/>
<path class="st1" d="M255.1,300.4V199.2c1,0,1.9,0,2.9,0c56.5,0,102.2,45.3,102.2,101.2s-45.8,101.2-102.2,101.2c-1,0-2,0-3,0V300.3
	L255.1,300.4z"/>
<path class="st7" d="M311.1,313.4c-4.4,0-8.1,3.6-8.1,8c0,9.6-7.9,17.5-17.7,17.5c-4.4,0-8,3.6-8,8s3.6,8,8,8
	c18.6,0,33.7-15,33.7-33.4C319.1,316.9,315.5,313.4,311.1,313.4z"/>
<path class="st8" d="M259.6,306L259.6,306c3.2-3.1,3.2-8.3,0-11.4L207,242.4c-3.2-3.1-8.3-3.1-11.5,0l0,0c-3.2,3.1-3.2,8.3,0,11.4
	l52.7,52.2C251.3,309.1,256.5,309.1,259.6,306z"/>
<path class="st8" d="M253.9,308.5L253.9,308.5c-4.4,0-8.1-3.6-8.1-8.1v-44.8c0-4.4,3.6-8.1,8.1-8.1l0,0c4.4,0,8.1,3.6,8.1,8.1v44.8
	C262,304.9,258.3,308.5,253.9,308.5z"/>
<path class="st6" d="M356.1,300.4c0-55.1-45.8-99.9-102.1-99.9h-5.2v-31.1h5.2c73.8,0,133.8,58.8,133.8,131
	c0,71.9-59.5,130.5-132.9,131v-31.1C310.8,399.8,356.1,355.2,356.1,300.4z"/>
<rect x="-602" y="44.4" class="st6" width="128" height="128"/>
<rect x="-474" y="44.4" class="st3" width="128" height="128"/>
<rect x="-346" y="44.4" class="st4" width="128" height="128"/>
<rect x="-218" y="44.4" class="st9" width="128" height="128"/>
<rect x="-602" y="172.4" class="st8" width="128" height="128"/>
<rect x="-474" y="172.4" class="st10" width="128" height="128"/>
<rect x="-346" y="172.4" class="st11" width="128" height="128"/>
<rect x="-602" y="300.4" class="st12" width="128" height="128"/>
<rect x="-474" y="300.4" class="st13" width="128" height="128"/>
<rect x="-346" y="300.4" class="st14" width="128" height="128"/>
<rect x="-218" y="300.4" class="st7" width="128" height="128"/>
<rect x="-602" y="428.4" class="st15" width="128" height="128"/>
</svg>
