<svg width="512" height="512" viewBox="0 0 512 512" fill="none" xmlns="http://www.w3.org/2000/svg">
<rect x="34" y="171" width="449" height="310" fill="white"/>
<rect x="120" width="35" height="96" rx="17.5" fill="#0295AA"/>
<rect x="356" width="35" height="96" rx="17.5" fill="#4ACFD9"/>
<path fill-rule="evenodd" clip-rule="evenodd" d="M256 38H177V82C177 102.435 160.435 119 140 119H135C114.565 119 98 102.435 98 82V38H64C28.6538 38 0 66.6538 0 102V448C0 483.346 28.6538 512 64 512H256V472H55C43.9543 472 35 463.046 35 452V175H256V38Z" fill="#0295AA"/>
<path fill-rule="evenodd" clip-rule="evenodd" d="M256 38H335V82C335 102.435 351.565 119 372 119H377C397.435 119 414 102.435 414 82V38H448C483.346 38 512 66.6538 512 102V448C512 483.346 483.346 512 448 512H256V472H457C468.046 472 477 463.046 477 452V175H256V38Z" fill="#4ACFD9"/>
<path d="M168.326 207.663H146.573V218.874H168.326C177.197 218.874 184.419 226.138 184.419 235.062V278.828C184.419 287.751 177.197 295.016 168.326 295.016H146.573V306.226H168.326C183.393 306.226 195.563 293.94 195.563 278.828V235.062C195.607 219.905 183.393 207.663 168.326 207.663Z" fill="#CDD4D5"/>
<path d="M168.326 347.318H146.573V358.529H168.326C177.197 358.529 184.419 365.793 184.419 374.717V418.483C184.419 427.407 177.197 434.671 168.326 434.671H146.573V445.882H168.326C183.393 445.882 195.563 433.595 195.563 418.483V374.717C195.607 359.56 183.393 347.318 168.326 347.318Z" fill="#CDD4D5"/>
<path d="M124.561 295.016C115.584 295.016 108.277 287.751 108.277 278.828V235.062C108.277 226.138 115.584 218.874 124.561 218.874H146.573V207.663H124.561C109.314 207.663 97 219.95 97 235.062V278.828C97 293.985 109.359 306.226 124.561 306.226H146.573V295.016H124.561Z" fill="#9BAAAB"/>
<path d="M124.561 434.671C115.584 434.671 108.277 427.407 108.277 418.483V374.717C108.277 365.793 115.584 358.529 124.561 358.529H146.573V347.318H124.561C109.314 347.318 97 359.605 97 374.717V418.483C97 433.64 109.359 445.882 124.561 445.882H146.573V434.671H124.561Z" fill="#9BAAAB"/>
<g filter="url(#filter0_d_227_336)">
<path d="M358.848 147H314V167.132H358.848C377.136 167.132 392.024 180.177 392.024 196.202V274.798C392.024 290.823 377.136 303.868 358.848 303.868H314V324H358.848C389.911 324 415 301.935 415 274.798V196.202C415.092 168.984 389.911 147 358.848 147Z" fill="#CDD4D5"/>
<path d="M383.327 347.654H361.573V358.865H383.327C392.197 358.865 399.419 366.129 399.419 375.053V418.819C399.419 427.743 392.197 435.007 383.327 435.007H361.573V446.218H383.327C398.393 446.218 410.563 433.931 410.563 418.819V375.053C410.608 359.896 398.393 347.654 383.327 347.654Z" fill="#CDD4D5"/>
<path d="M269.596 303.868C251.489 303.868 236.748 290.823 236.748 274.798V196.202C236.748 180.177 251.489 167.132 269.596 167.132H314V147H269.596C238.841 147 214 169.065 214 196.202V274.798C214 302.016 238.932 324 269.596 324H314V303.868H269.596Z" fill="#9BAAAB"/>
<path d="M339.561 435.007C330.584 435.007 323.277 427.743 323.277 418.819V375.053C323.277 366.129 330.584 358.865 339.561 358.865H361.573V347.654H339.561C324.314 347.654 312 359.941 312 375.053V418.819C312 433.976 324.359 446.218 339.561 446.218H361.573V435.007H339.561Z" fill="#9BAAAB"/>
</g>
<path d="M156.398 225.862C160.698 223.305 168.703 225.298 167.512 227.605C157.379 242.504 144.368 265.834 142.305 271.36C140.242 276.885 134.957 290.072 134.315 291.995C133.672 293.917 122.198 295.418 122.546 289.026C122.895 282.634 152.097 228.419 156.398 225.862Z" fill="#F0353D"/>
<path d="M155.398 363.862C159.698 361.305 167.703 363.298 166.512 365.605C156.379 380.504 143.368 403.834 141.305 409.36C139.242 414.885 133.957 428.072 133.315 429.995C132.672 431.917 121.198 433.418 121.546 427.026C121.895 420.634 151.097 366.419 155.398 363.862Z" fill="#F0353D"/>
<path d="M340.911 182.714C349.652 178.142 365.921 181.705 363.501 185.83C342.907 212.467 316.462 254.175 312.27 264.054C308.077 273.932 297.336 297.508 296.03 300.945C294.725 304.382 271.404 307.066 272.113 295.638C272.821 284.209 332.171 187.285 340.911 182.714Z" fill="#F0353D"/>
<path d="M123.887 231.274C120.342 229.829 132.918 225.368 135.319 228.319C137.72 231.27 143.469 241.726 151.897 254.866L145.505 255.332L139.387 256.146C139.405 256.145 138.049 253.248 137.992 253.124C137.304 251.822 136.407 250.137 135.319 248.28C134.248 246.453 133.046 244.461 131.832 242.503C128.768 237.557 125.636 232.836 124.394 231.581C124.141 231.325 127.432 232.718 123.887 231.274Z" fill="#F0353D"/>
<path d="M122.887 369.274C119.342 367.829 131.918 363.368 134.319 366.319C136.72 369.27 142.469 379.726 150.897 392.866L144.505 393.332L138.387 394.146C138.405 394.145 137.049 391.248 136.992 391.124C136.304 389.822 135.407 388.137 134.319 386.28C133.248 384.453 132.046 382.461 130.832 380.503C127.768 375.557 124.636 370.836 123.394 369.581C123.141 369.325 126.432 370.718 122.887 369.274Z" fill="#F0353D"/>
<path d="M274.838 192.388C267.633 189.806 293.193 181.829 298.073 187.105C302.952 192.381 314.636 211.075 331.766 234.566L318.774 235.399L306.341 236.855C306.376 236.853 303.622 231.674 303.506 231.453C302.107 229.124 300.285 226.111 298.073 222.791C295.896 219.526 293.452 215.963 290.987 212.464C284.758 203.622 278.393 195.181 275.869 192.938C275.354 192.481 282.043 194.97 274.838 192.388Z" fill="#F0353D"/>
<path d="M166.99 278.439C170.535 279.884 157.958 284.345 155.558 281.394C153.157 278.443 147.408 267.987 138.98 254.847L145.372 254.381L151.489 253.567C151.472 253.568 152.827 256.465 152.884 256.588C153.572 257.891 154.469 259.576 155.558 261.433C156.628 263.26 157.831 265.252 159.044 267.21C162.109 272.155 165.241 276.877 166.482 278.132C166.736 278.387 163.444 276.995 166.99 278.439Z" fill="#F0353D"/>
<path d="M165.99 416.439C169.535 417.884 156.958 422.345 154.558 419.394C152.157 416.443 146.408 405.987 137.98 392.847L144.372 392.381L150.489 391.567C150.472 391.568 151.827 394.465 151.884 394.588C152.572 395.891 153.469 397.576 154.558 399.433C155.628 401.26 156.831 403.252 158.044 405.21C161.109 410.155 164.241 414.877 165.482 416.132C165.736 416.387 162.444 414.995 165.99 416.439Z" fill="#F0353D"/>
<path d="M362.439 276.711C369.645 279.293 344.084 287.269 339.205 281.993C334.325 276.717 322.641 258.023 305.512 234.532L318.504 233.7L330.936 232.243C330.901 232.246 333.655 237.425 333.771 237.646C335.17 239.974 336.992 242.988 339.205 246.307C341.381 249.573 343.825 253.135 346.291 256.635C352.52 265.477 358.885 273.918 361.409 276.161C361.923 276.618 355.234 274.129 362.439 276.711Z" fill="#F0353D"/>
<path d="M352.148 415.14C352.148 412.006 375.26 368.69 379.371 366.563C383.483 364.437 390.484 366.117 389.817 368.243C374.02 390.656 367.308 404.122 357.927 430.362C353.863 432.44 351.837 431.464 348.149 430.362C343.808 418.329 333.21 403.742 332.036 403.052C330.863 402.363 335.753 397.838 341.926 400.702C343.986 400.928 352.148 418.273 352.148 415.14Z" fill="#BCD444"/>
<path d="M187.913 350.354L203.47 365.911L214.368 355.1C214.281 355.013 214.105 354.837 214.017 354.749C212.962 353.87 211.995 352.903 210.941 352.024C210.413 351.585 209.974 351.145 209.447 350.618C208.656 349.915 207.865 349.124 207.161 348.421C206.634 347.894 206.019 347.278 205.491 346.751C204.7 345.96 203.997 345.169 203.206 344.378C202.767 343.938 202.327 343.411 201.888 342.972C200.921 341.917 200.042 340.95 199.076 339.896C198.988 339.808 198.9 339.632 198.724 339.544L187.913 350.354Z" fill="#365558"/>
<path d="M201.888 342.884C202.327 343.323 202.767 343.85 203.206 344.29C203.997 345.081 204.7 345.872 205.491 346.663C206.019 347.19 206.634 347.806 207.161 348.333C207.952 349.124 208.655 349.827 209.446 350.53C209.974 350.97 210.413 351.409 210.941 351.936C211.907 352.903 212.962 353.782 214.017 354.661C214.105 354.749 214.28 354.837 214.368 355.013L226.497 342.884L210.941 327.327L198.812 339.456C198.9 339.544 198.987 339.72 199.163 339.808C200.042 340.862 200.921 341.917 201.888 342.884Z" fill="#365558"/>
<path d="M214.368 355.101C214.281 355.013 214.105 354.837 214.017 354.749C214.105 354.837 214.281 355.013 214.368 355.101Z" fill="#365558"/>
<path d="M317.727 376.194C394.895 376.194 457.824 313.265 457.824 236.097C457.824 158.929 394.983 96 317.727 96C240.472 96 177.63 158.929 177.63 236.097C177.63 313.265 240.56 376.194 317.727 376.194ZM208.392 236.185C208.392 175.892 257.435 126.849 317.727 126.849C378.02 126.849 427.063 175.892 427.063 236.185C427.063 296.478 378.02 345.52 317.727 345.52C257.523 345.52 208.48 296.39 208.392 236.185Z" fill="#365558"/>
<path d="M212.523 390.169C216.83 385.862 216.83 378.919 212.523 374.612L179.3 341.39C177.279 339.28 174.467 338.138 171.566 338.138C168.666 338.138 165.853 339.28 163.832 341.39L64.1644 440.969C62.1429 443.079 61.0003 445.803 61.0003 448.791C61.0003 451.692 62.1429 454.504 64.2523 456.526L97.4747 489.748C99.5841 491.946 102.397 493 105.209 493C107.934 493 110.834 491.946 112.943 489.748L212.523 390.169Z" fill="#4ACFD9"/>
<path d="M165.589 386.301C169.896 381.995 169.896 375.051 165.589 370.745C161.283 366.438 154.339 366.438 150.033 370.745L97.2106 423.567C92.904 427.873 92.904 434.817 97.2106 439.123C99.3199 441.233 102.22 442.375 105.033 442.375C107.845 442.375 110.658 441.32 112.767 439.123L165.589 386.301Z" fill="white"/>
<path d="M253.04 189.603C254.71 190.745 256.555 191.009 258.665 190.745C261.126 190.394 263.323 189.076 264.729 186.702C272.2 174.398 284.592 165.96 298.831 163.763C303.401 163.06 306.653 158.578 306.038 154.007C305.334 149.437 300.852 146.185 296.282 146.8C276.946 149.789 260.159 161.039 250.139 177.738C247.678 181.869 248.997 187.142 253.04 189.603Z" fill="white"/>
<defs>
<filter id="filter0_d_227_336" x="210" y="147" width="209" height="307.218" filterUnits="userSpaceOnUse" color-interpolation-filters="sRGB">
<feFlood flood-opacity="0" result="BackgroundImageFix"/>
<feColorMatrix in="SourceAlpha" type="matrix" values="0 0 0 0 0 0 0 0 0 0 0 0 0 0 0 0 0 0 127 0" result="hardAlpha"/>
<feOffset dy="4"/>
<feGaussianBlur stdDeviation="2"/>
<feComposite in2="hardAlpha" operator="out"/>
<feColorMatrix type="matrix" values="0 0 0 0 0 0 0 0 0 0 0 0 0 0 0 0 0 0 0.25 0"/>
<feBlend mode="normal" in2="BackgroundImageFix" result="effect1_dropShadow_227_336"/>
<feBlend mode="normal" in="SourceGraphic" in2="effect1_dropShadow_227_336" result="shape"/>
</filter>
</defs>
</svg>
