<svg width="450" height="450" viewBox="0 0 450 450" fill="none" xmlns="http://www.w3.org/2000/svg">
<g clip-path="url(#clip0_247_728)">
<path d="M146.142 296.453H16.1425C12.1405 296.453 8.89746 299.697 8.89746 303.698V442.366C8.89746 446.368 12.1405 449.611 16.1425 449.611H146.143C150.145 449.611 153.388 446.368 153.388 442.366V303.698C153.387 299.697 150.145 296.453 146.142 296.453Z" fill="#687F82"/>
<path d="M146.142 118.702H16.1425C12.1405 118.702 8.89746 121.945 8.89746 125.947V264.615C8.89746 268.617 12.1405 271.86 16.1425 271.86H146.143C150.145 271.86 153.388 268.617 153.388 264.615V125.947C153.387 121.945 150.145 118.702 146.142 118.702Z" fill="#4ACFD9"/>
<path d="M54.1385 240.286C42.1943 240.286 32.471 231.43 32.471 220.552V167.198C32.471 156.32 42.1943 147.464 54.1385 147.464H83.4286V133.798H54.1385C33.8515 133.798 17.4658 148.776 17.4658 167.198V220.552C17.4658 239.029 33.9115 253.953 54.1385 253.953H83.4286V240.286H54.1385Z" fill="#9BAAAB"/>
<path d="M55.1385 421.285C43.1943 421.285 33.471 412.429 33.471 401.551V348.197C33.471 337.319 43.1943 328.463 55.1385 328.463H84.4286V314.797H55.1385C34.8515 314.797 18.4658 329.775 18.4658 348.197V401.551C18.4658 420.028 34.9115 434.952 55.1385 434.952H84.4286V421.285H55.1385Z" fill="#9BAAAB"/>
<path d="M112.373 133.798H83.4277V147.464H112.373C124.177 147.464 133.786 156.32 133.786 167.198V220.552C133.786 231.43 124.177 240.286 112.373 240.286H83.4277V253.953H112.373C132.421 253.953 148.614 238.974 148.614 220.552V167.198C148.674 148.722 132.421 133.798 112.373 133.798Z" fill="#CDD4D5"/>
<path d="M113.373 314.797H84.4277V328.463H113.373C125.177 328.463 134.786 337.319 134.786 348.198V401.551C134.786 412.429 125.177 421.285 113.373 421.285H84.4277V434.952H113.373C133.421 434.952 149.614 419.973 149.614 401.551V348.198C149.674 329.721 133.421 314.797 113.373 314.797Z" fill="#CDD4D5"/>
<path d="M5.96547 261.34C-1.14344 254.827 -1.14344 243.935 5.96547 237.422L125.622 127.797C132.731 121.284 144.619 121.284 151.728 127.797C158.837 134.31 158.837 145.201 151.728 151.714L32.0713 261.34C24.8429 267.962 13.1939 267.962 5.96547 261.34Z" fill="#F0353D"/>
<path d="M6.96547 442.339C-0.143439 435.826 -0.143439 424.934 6.96547 418.421L126.622 308.796C133.731 302.283 145.619 302.283 152.728 308.796C159.837 315.309 159.837 326.2 152.728 332.713L33.0713 442.339C25.8429 448.961 14.1939 448.961 6.96547 442.339Z" fill="#F0353D"/>
<path d="M150.615 260.319C143.404 266.926 133.492 268.868 122.849 259.117L7.6572 153.582C-2.86104 143.945 -2.06923 133.804 5.22689 127.119C12.4377 120.513 22.4186 119.566 33.6023 129.812L149.303 234.881C159.549 244.425 157.826 253.713 150.615 260.319Z" fill="#F0353D"/>
<path d="M151.615 441.318C144.404 447.925 134.492 449.867 123.849 440.116L8.6572 334.581C-1.86104 324.944 -1.06923 314.803 6.22689 308.118C13.4377 301.512 23.4186 300.565 34.6023 310.811L150.303 415.88C160.549 425.424 158.826 434.712 151.615 441.318Z" fill="#F0353D"/>
<path d="M317.545 118.702H187.545C183.543 118.702 180.3 121.945 180.3 125.947V264.615C180.3 268.617 183.543 271.86 187.545 271.86H317.546C321.548 271.86 324.791 268.617 324.791 264.615V125.947C324.791 121.945 321.548 118.702 317.545 118.702Z" fill="#FF8C29"/>
<path d="M317.545 296.453H187.545C183.543 296.453 180.3 299.697 180.3 303.698V442.366C180.3 446.368 183.543 449.611 187.545 449.611H317.546C321.548 449.611 324.791 446.368 324.791 442.366V303.698C324.791 299.697 321.548 296.453 317.545 296.453Z" fill="#F0353D"/>
<path d="M389.022 106.318L334.375 51.6706C331.545 48.8416 326.958 48.8416 324.128 51.6706L138.326 237.471C137.966 237.832 137.644 238.23 137.367 238.658L77.2553 331.56C75.3993 334.428 75.7993 338.203 78.2143 340.619L100.073 362.478C101.473 363.877 103.328 364.599 105.2 364.599C106.558 364.599 107.926 364.217 109.133 363.437L202.034 303.324C202.462 303.047 202.86 302.725 203.221 302.365L389.023 116.565C391.852 113.735 391.852 109.148 389.022 106.318Z" fill="#CDD4D5"/>
<path d="M427.276 13.4183C409.384 -4.47275 380.274 -4.47275 362.381 13.4183L318.663 57.1363C315.834 59.9663 315.834 64.5533 318.663 67.3833L373.31 122.03C374.725 123.444 376.58 124.151 378.434 124.151C380.288 124.151 382.143 123.444 383.558 122.03L427.276 78.3122C435.943 69.6452 440.715 58.1223 440.715 45.8653C440.715 33.6073 435.942 22.0853 427.276 13.4183Z" fill="#FF8C29"/>
<path d="M367.505 58.5752C365.651 58.5752 363.796 57.8682 362.381 56.4542C359.552 53.6242 359.552 49.0372 362.381 46.2072L378.776 29.8122C381.606 26.9832 386.193 26.9832 389.023 29.8122C391.853 32.6422 391.853 37.2292 389.023 40.0592L372.629 56.4542C371.214 57.8672 369.359 58.5752 367.505 58.5752Z" fill="white"/>
<path d="M421.812 128.178L312.516 18.8815C309.685 16.0525 305.099 16.0525 302.269 18.8815L274.946 46.2045C272.117 49.0345 272.117 53.6215 274.946 56.4515L384.241 165.748C385.656 167.162 387.51 167.869 389.365 167.869C391.219 167.869 393.074 167.162 394.488 165.748L421.812 138.425C423.171 137.066 423.934 135.224 423.934 133.301C423.933 131.379 423.17 129.537 421.812 128.178Z" fill="#FD6A33"/>
<path d="M367.376 73.7422L329.805 111.313L384.239 165.747C385.654 167.161 387.508 167.868 389.363 167.868C391.217 167.868 393.072 167.161 394.486 165.747L421.81 138.424C423.169 137.065 423.932 135.223 423.932 133.3C423.932 131.379 423.169 129.536 421.811 128.176L367.376 73.7422Z" fill="#F0353D"/>
<path d="M170.774 255.305C168.92 255.305 167.065 254.598 165.651 253.184C162.821 250.355 162.821 245.767 165.65 242.937L187.509 221.078C190.339 218.248 194.927 218.248 197.755 221.077C200.585 223.907 200.585 228.494 197.756 231.323L175.897 253.182C174.483 254.598 172.628 255.305 170.774 255.305Z" fill="white"/>
<path d="M214.492 211.587C212.638 211.587 210.783 210.88 209.368 209.466C206.538 206.636 206.538 202.049 209.368 199.219L285.873 122.713C288.704 119.883 293.291 119.885 296.12 122.713C298.95 125.543 298.95 130.13 296.12 132.96L219.615 209.466C218.201 210.88 216.346 211.587 214.492 211.587Z" fill="white"/>
<path d="M282.908 315.071H253.963V328.738H282.908C294.712 328.738 304.321 337.593 304.321 348.472V401.825C304.321 412.704 294.712 421.56 282.908 421.56H253.963V435.226H282.908C302.957 435.226 319.149 420.248 319.149 401.825V348.472C319.209 329.995 302.957 315.071 282.908 315.071Z" fill="#CDD4D5"/>
<path d="M224.673 421.56C212.729 421.56 203.005 412.704 203.005 401.825V348.472C203.005 337.593 212.729 328.738 224.673 328.738H253.963V315.071H224.673C204.386 315.071 188 330.05 188 348.472V401.825C188 420.302 204.446 435.226 224.673 435.226H253.963V421.56H224.673Z" fill="#9BAAAB"/>
<path d="M239.762 403.428C232.653 396.915 232.653 386.023 239.762 379.51L359.419 269.885C366.528 263.372 378.416 263.372 385.525 269.885C392.634 276.398 392.634 287.289 385.525 293.802L265.868 403.428C258.64 410.05 246.991 410.05 239.762 403.428Z" fill="#BCD643"/>
<path d="M252.906 408.519C242.81 408.519 234.387 400.911 234.387 391.552V297.634C234.387 288.385 242.69 280.668 252.906 280.668C263.002 280.668 271.425 288.276 271.425 297.634V391.826C271.305 400.911 263.002 408.519 252.906 408.519Z" fill="#BCD643"/>
</g>
<defs>
<clipPath id="clip0_247_728">
<rect width="449.611" height="449.611" fill="white"/>
</clipPath>
</defs>
</svg>
