<svg width="512" height="512" viewBox="0 0 512 512" fill="none" xmlns="http://www.w3.org/2000/svg">
<rect x="34" y="171" width="449" height="310" fill="white"/>
<g filter="url(#filter0_d_230_1096)">
<path d="M308.167 168H257.184V194.274H308.167C328.957 194.274 345.882 211.299 345.882 232.213V334.787C345.882 355.701 328.957 372.726 308.167 372.726H257.184V399H308.167C343.479 399 372 370.204 372 334.787V232.213C372.104 196.691 343.479 168 308.167 168Z" fill="#CDD4D5"/>
<path d="M205.593 372.726C184.556 372.726 167.429 355.701 167.429 334.787V232.213C167.429 211.299 184.556 194.274 205.593 194.274H257.183V168H205.593C169.861 168 141 196.796 141 232.213V334.787C141 370.309 169.967 399 205.593 399H257.183V372.726H205.593Z" fill="#9BAAAB"/>
</g>
<path d="M238.722 319.626C238.722 312.883 288.531 219.688 297.392 215.114C306.254 210.539 321.341 214.153 319.904 218.727C285.859 266.949 271.393 295.922 251.176 352.377C242.418 356.847 238.052 354.748 230.102 352.377C220.746 326.489 197.906 295.103 195.377 293.62C192.848 292.136 203.386 282.401 216.691 288.563C221.13 289.049 238.722 326.369 238.722 319.626Z" fill="#BCD444"/>
<rect x="120" width="35" height="96" rx="17.5" fill="#0295AA"/>
<rect x="356" width="35" height="96" rx="17.5" fill="#4ACFD9"/>
<path fill-rule="evenodd" clip-rule="evenodd" d="M256 38H177V82C177 102.435 160.435 119 140 119H135C114.565 119 98 102.435 98 82V38H64C28.6538 38 0 66.6538 0 102V448C0 483.346 28.6538 512 64 512H256V472H55C43.9543 472 35 463.046 35 452V175H256V38Z" fill="#0295AA"/>
<path fill-rule="evenodd" clip-rule="evenodd" d="M256 38H335V82C335 102.435 351.565 119 372 119H377C397.435 119 414 102.435 414 82V38H448C483.346 38 512 66.6538 512 102V448C512 483.346 483.346 512 448 512H256V472H457C468.046 472 477 463.046 477 452V175H256V38Z" fill="#4ACFD9"/>
<path d="M150.167 375.805L164.038 389.676L173.756 380.037C173.678 379.958 173.521 379.802 173.443 379.723C172.502 378.939 171.64 378.077 170.7 377.294C170.23 376.902 169.838 376.51 169.368 376.04C168.662 375.413 167.957 374.707 167.33 374.08C166.86 373.61 166.311 373.062 165.841 372.591C165.136 371.886 164.509 371.181 163.803 370.475C163.411 370.084 163.02 369.613 162.628 369.221C161.766 368.281 160.982 367.419 160.12 366.479C160.041 366.4 159.963 366.243 159.806 366.165L150.167 375.805Z" fill="#365558"/>
<path d="M162.628 369.143C163.02 369.535 163.411 370.005 163.803 370.397C164.509 371.102 165.136 371.808 165.841 372.513C166.311 372.983 166.86 373.532 167.33 374.002C168.035 374.707 168.662 375.334 169.368 375.961C169.838 376.353 170.23 376.745 170.7 377.215C171.562 378.077 172.502 378.861 173.443 379.645C173.521 379.723 173.678 379.801 173.756 379.958L184.572 369.143L170.7 355.271L159.885 366.087C159.963 366.165 160.042 366.322 160.198 366.4C160.982 367.341 161.766 368.281 162.628 369.143Z" fill="#365558"/>
<path d="M173.757 380.037C173.678 379.959 173.521 379.802 173.443 379.724C173.521 379.802 173.678 379.959 173.757 380.037Z" fill="#365558"/>
<path d="M265.92 398.845C334.73 398.845 390.843 342.732 390.843 273.923C390.843 205.113 334.808 149 265.92 149C197.033 149 140.998 205.113 140.998 273.923C140.998 342.732 197.111 398.845 265.92 398.845ZM168.427 274.001C168.427 220.239 212.158 176.508 265.92 176.508C319.683 176.508 363.413 220.239 363.413 274.001C363.413 327.763 319.683 371.494 265.92 371.494C212.236 371.494 168.506 327.685 168.427 274.001Z" fill="#365558"/>
<path d="M172.111 411.307C175.951 407.466 175.951 401.275 172.111 397.435L142.487 367.811C140.684 365.93 138.176 364.911 135.59 364.911C133.004 364.911 130.496 365.93 128.694 367.811L39.8213 456.605C38.0188 458.486 37 460.915 37 463.58C37 466.166 38.0188 468.674 39.8997 470.476L69.5238 500.1C71.4047 502.06 73.9125 503 76.4204 503C78.8499 503 81.4361 502.06 83.317 500.1L172.111 411.307Z" fill="#4ACFD9"/>
<path d="M130.261 407.858C134.101 404.018 134.101 397.827 130.261 393.987C126.42 390.146 120.229 390.146 116.389 393.987L69.2882 441.087C65.448 444.927 65.448 451.119 69.2882 454.959C71.1691 456.84 73.7553 457.859 76.2632 457.859C78.771 457.859 81.2789 456.918 83.1598 454.959L130.261 407.858Z" fill="white"/>
<path d="M208.239 232.465C209.728 233.483 211.374 233.719 213.255 233.483C215.449 233.17 217.409 231.994 218.663 229.878C225.324 218.906 236.374 211.383 249.07 209.424C253.146 208.797 256.045 204.8 255.497 200.724C254.87 196.649 250.873 193.75 246.798 194.298C229.556 196.963 214.587 206.994 205.653 221.885C203.459 225.568 204.634 230.27 208.239 232.465Z" fill="white"/>
<defs>
<filter id="filter0_d_230_1096" x="137" y="168" width="239" height="239" filterUnits="userSpaceOnUse" color-interpolation-filters="sRGB">
<feFlood flood-opacity="0" result="BackgroundImageFix"/>
<feColorMatrix in="SourceAlpha" type="matrix" values="0 0 0 0 0 0 0 0 0 0 0 0 0 0 0 0 0 0 127 0" result="hardAlpha"/>
<feOffset dy="4"/>
<feGaussianBlur stdDeviation="2"/>
<feComposite in2="hardAlpha" operator="out"/>
<feColorMatrix type="matrix" values="0 0 0 0 0 0 0 0 0 0 0 0 0 0 0 0 0 0 0.25 0"/>
<feBlend mode="normal" in2="BackgroundImageFix" result="effect1_dropShadow_230_1096"/>
<feBlend mode="normal" in="SourceGraphic" in2="effect1_dropShadow_230_1096" result="shape"/>
</filter>
</defs>
</svg>
