<svg width="512" height="512" viewBox="0 0 512 512" fill="none" xmlns="http://www.w3.org/2000/svg">
<rect x="285.836" y="94.2388" width="98.7249" height="199.693" fill="#F0353D"/>
<rect x="187.111" y="94.2388" width="98.7249" height="199.693" fill="#F0353D"/>
<path d="M340.472 70.6792H285.724V98.726H340.472C362.797 98.726 380.971 116.9 380.971 139.226V248.721C380.971 271.046 362.797 289.22 340.472 289.22H285.724V317.267H340.472C378.391 317.267 409.018 286.528 409.018 248.721V139.226C409.13 101.306 378.391 70.6792 340.472 70.6792Z" fill="#CDD4D5"/>
<path d="M230.977 289.332C208.651 289.332 190.477 271.158 190.477 248.832V139.337C190.477 117.012 208.651 98.8379 230.977 98.8379H285.724V70.791H230.977C193.057 70.791 162.43 101.53 162.43 139.337V248.832C162.43 286.752 193.17 317.379 230.977 317.379H285.724V289.332H230.977Z" fill="#9BAAAB"/>
<path d="M264.254 244.795C252.737 233.277 252.737 214.017 264.254 202.5L458.116 8.63811C469.633 -2.87937 488.894 -2.87937 500.411 8.63811C511.929 20.1556 511.929 39.4159 500.411 50.9334L306.55 244.795C294.839 256.506 275.965 256.506 264.254 244.795Z" fill="#BCD643"/>
<path d="M285.546 253.796C269.19 253.796 255.543 240.343 255.543 223.793V57.7086C255.543 41.3518 268.996 27.7051 285.546 27.7051C301.903 27.7051 315.55 41.1583 315.55 57.7086V224.276C315.356 240.343 301.903 253.796 285.546 253.796Z" fill="#BCD643"/>
<path d="M184.08 344.528L164.223 324.671L178.022 310.759C178.134 310.871 178.358 311.096 178.471 311.208C179.592 312.554 180.826 313.788 181.948 315.135C182.509 315.808 183.07 316.369 183.743 317.042C184.641 318.051 185.65 319.061 186.548 319.959C187.221 320.632 188.006 321.417 188.68 322.09C189.689 323.1 190.699 323.997 191.709 325.007C192.27 325.568 192.943 326.129 193.504 326.69C194.85 327.924 196.084 329.046 197.43 330.28C197.542 330.392 197.767 330.504 197.879 330.729L184.08 344.528Z" fill="#365558"/>
<path d="M193.616 326.689C193.055 326.128 192.382 325.567 191.821 325.007C190.811 323.997 189.802 323.099 188.792 322.09C188.119 321.417 187.333 320.631 186.66 319.958C185.651 318.948 184.753 318.051 183.856 317.041C183.295 316.368 182.734 315.807 182.061 315.134C180.827 313.9 179.705 312.554 178.583 311.207C178.471 311.095 178.359 310.871 178.134 310.759L193.616 295.277L213.473 315.134L197.991 330.616C197.879 330.504 197.655 330.391 197.543 330.167C196.196 329.045 194.85 327.923 193.616 326.689Z" fill="#365558"/>
<path d="M178.022 310.759C178.135 310.871 178.359 311.096 178.471 311.208C178.359 311.096 178.135 310.871 178.022 310.759Z" fill="#365558"/>
<path d="M151.097 178.827C151.097 80.3261 231.423 0 329.924 0C428.424 0 508.75 80.214 508.75 178.827C508.75 277.439 428.424 357.653 329.924 357.653C231.423 357.653 151.097 277.327 151.097 178.827ZM329.812 318.388C406.772 318.388 469.373 255.787 469.373 178.827C469.373 101.866 406.772 39.2656 329.812 39.2656C252.851 39.2656 190.251 101.866 190.251 178.827C190.251 255.675 252.963 318.276 329.812 318.388Z" fill="#365558"/>
<path d="M133.259 313.115C138.757 307.618 147.619 307.618 153.117 313.115L195.523 355.522C198.216 358.102 199.674 361.692 199.674 365.394C199.674 369.097 198.216 372.687 195.523 375.267L68.4151 502.487C65.7226 505.068 62.2448 506.526 58.4304 506.526C54.7283 506.526 51.1382 505.068 48.5579 502.375L6.15112 459.968C3.34643 457.276 2.00017 453.686 2.00017 450.096C2.00017 446.618 3.34643 442.916 6.15112 440.223L133.259 313.115Z" fill="#4ACFD9"/>
<path d="M138.196 373.023C143.693 367.526 152.556 367.526 158.053 373.023C163.551 378.52 163.551 387.383 158.053 392.88L90.6288 460.305C85.1316 465.802 76.2688 465.802 70.7716 460.305C68.0791 457.613 66.6207 453.91 66.6207 450.32C66.6207 446.73 67.9669 443.14 70.7716 440.448L138.196 373.023Z" fill="white"/>
<path d="M389.271 261.397C387.812 259.265 387.476 256.909 387.812 254.217C388.261 251.076 389.944 248.271 392.973 246.476C408.679 236.94 419.449 221.121 422.254 202.947C423.151 197.113 428.873 192.962 434.707 193.748C440.54 194.645 444.691 200.367 443.906 206.201C440.092 230.882 425.732 252.31 404.416 265.099C399.143 268.24 392.412 266.557 389.271 261.397Z" fill="white"/>
</svg>
