<svg width="512" height="512" viewBox="0 0 512 512" fill="none" xmlns="http://www.w3.org/2000/svg">
<rect x="31" y="170" width="449" height="310" fill="white"/>
<rect x="120" width="35" height="96" rx="17.5" fill="#0295AA"/>
<rect x="356" width="35" height="96" rx="17.5" fill="#4ACFD9"/>
<path fill-rule="evenodd" clip-rule="evenodd" d="M256 38H177V82C177 102.435 160.435 119 140 119H135C114.565 119 98 102.435 98 82V38H64C28.6538 38 0 66.6538 0 102V448C0 483.346 28.6538 512 64 512H256V472H55C43.9543 472 35 463.046 35 452V175H256V38Z" fill="#0295AA"/>
<path fill-rule="evenodd" clip-rule="evenodd" d="M256 38H335V82C335 102.435 351.565 119 372 119H377C397.435 119 414 102.435 414 82V38H448C483.346 38 512 66.6538 512 102V448C512 483.346 483.346 512 448 512H256V472H457C468.046 472 477 463.046 477 452V175H256V38Z" fill="#4ACFD9"/>
<g filter="url(#filter0_d_232_27)">
<path d="M162.088 217H125.768V235.717H162.088C176.899 235.717 188.956 247.846 188.956 262.745V335.818C188.956 350.717 176.899 362.846 162.088 362.846H125.768V381.563H162.088C187.244 381.563 207.562 361.049 207.562 335.818V262.745C207.637 237.439 187.244 217 162.088 217Z" fill="#CDD4D5"/>
<path d="M424.218 217H387.898V235.717H424.218C439.029 235.717 451.086 247.846 451.086 262.745V335.818C451.086 350.717 439.029 362.846 424.218 362.846H387.898V381.563H424.218C449.374 381.563 469.693 361.049 469.693 335.818V262.745C469.767 237.439 449.374 217 424.218 217Z" fill="#CDD4D5"/>
<path d="M89.016 362.846C74.0288 362.846 61.8281 350.717 61.8281 335.818V262.745C61.8281 247.846 74.0288 235.717 89.016 235.717H125.769V217H89.016C63.5603 217 43 237.514 43 262.745V335.818C43 361.124 63.6356 381.563 89.016 381.563H125.769V362.846H89.016Z" fill="#9BAAAB"/>
<path d="M351.146 362.846C336.159 362.846 323.958 350.717 323.958 335.818V262.745C323.958 247.846 336.159 235.717 351.146 235.717H387.899V217H351.146C325.69 217 305.13 237.514 305.13 262.745V335.818C305.13 361.124 325.766 381.563 351.146 381.563H387.899V362.846H351.146Z" fill="#9BAAAB"/>
</g>
<path d="M147.18 250.163C154.36 245.893 167.726 249.221 165.737 253.073C148.819 277.949 127.095 316.901 123.651 326.126C120.207 335.352 111.382 357.369 110.31 360.579C109.238 363.789 90.0796 366.296 90.6617 355.623C91.2438 344.95 140 254.432 147.18 250.163Z" fill="#F0353D"/>
<path d="M92.8994 259.196C86.9801 256.785 107.978 249.336 111.987 254.263C115.995 259.19 125.594 276.648 139.666 298.587L128.993 299.364L118.779 300.724C118.808 300.722 116.546 295.885 116.45 295.679C115.301 293.504 113.804 290.69 111.987 287.59C110.199 284.54 108.191 281.213 106.166 277.945C101.049 269.688 95.8195 261.805 93.7462 259.71C93.3236 259.283 98.8187 261.608 92.8994 259.196Z" fill="#F0353D"/>
<path d="M164.865 337.945C170.784 340.357 149.786 347.806 145.778 342.879C141.769 337.952 132.171 320.493 118.099 298.555L128.772 297.778L138.985 296.417C138.956 296.42 141.219 301.257 141.314 301.463C142.463 303.637 143.96 306.451 145.778 309.552C147.565 312.601 149.573 315.928 151.599 319.197C156.716 327.454 161.945 335.337 164.018 337.432C164.441 337.859 158.946 335.534 164.865 337.945Z" fill="#F0353D"/>
<path d="M371.928 330.348C371.928 325.078 410.58 252.228 417.457 248.652C424.333 245.076 436.041 247.901 434.926 251.477C408.507 289.172 397.281 311.819 381.593 355.95C374.797 359.444 371.408 357.803 365.239 355.95C357.979 335.713 340.255 311.179 338.293 310.02C336.33 308.86 344.508 301.25 354.833 306.067C358.277 306.446 371.928 335.619 371.928 330.348Z" fill="#BCD444"/>
<defs>
<filter id="filter0_d_232_27" x="39" y="217" width="434.693" height="172.563" filterUnits="userSpaceOnUse" color-interpolation-filters="sRGB">
<feFlood flood-opacity="0" result="BackgroundImageFix"/>
<feColorMatrix in="SourceAlpha" type="matrix" values="0 0 0 0 0 0 0 0 0 0 0 0 0 0 0 0 0 0 127 0" result="hardAlpha"/>
<feOffset dy="4"/>
<feGaussianBlur stdDeviation="2"/>
<feComposite in2="hardAlpha" operator="out"/>
<feColorMatrix type="matrix" values="0 0 0 0 0 0 0 0 0 0 0 0 0 0 0 0 0 0 0.25 0"/>
<feBlend mode="normal" in2="BackgroundImageFix" result="effect1_dropShadow_232_27"/>
<feBlend mode="normal" in="SourceGraphic" in2="effect1_dropShadow_232_27" result="shape"/>
</filter>
</defs>
</svg>
