<svg width="512" height="512" viewBox="0 0 512 512" fill="none" xmlns="http://www.w3.org/2000/svg">
<g clip-path="url(#clip0_438_363)">
<ellipse rx="14" ry="2" transform="matrix(-1 0 0 1 455 147)" fill="#365558"/>
<rect width="3" height="33" rx="1.5" transform="matrix(3.0598e-07 1 1 -6.24448e-09 400 146)" fill="#365558"/>
<rect width="3" height="33" rx="1.5" transform="matrix(3.0598e-07 1 1 -6.24448e-09 195 146)" fill="#365558"/>
<rect width="25" height="33" rx="5" transform="matrix(-1 0 0 1 270 249)" fill="#365558"/>
<rect width="3" height="33" rx="1.5" transform="matrix(3.0598e-07 1 1 -6.24448e-09 359 146)" fill="#365558"/>
<rect width="3" height="33" rx="1.5" transform="matrix(3.0598e-07 1 1 -6.24448e-09 154 146)" fill="#365558"/>
<rect width="3" height="33" rx="1.5" transform="matrix(3.0598e-07 1 1 -6.24448e-09 318 146)" fill="#365558"/>
<rect width="3" height="33" rx="1.5" transform="matrix(3.0598e-07 1 1 -6.24448e-09 113 146)" fill="#365558"/>
<rect width="3" height="33" rx="1.5" transform="matrix(-1 0 0 1 34 158)" fill="#365558"/>
<rect width="3" height="33" rx="1.5" transform="matrix(-1 0 0 1 34 281)" fill="#365558"/>
<rect width="3" height="33" rx="1.5" transform="matrix(-1 0 0 1 34 199)" fill="#365558"/>
<rect width="3" height="33" rx="1.5" transform="matrix(-1 0 0 1 34 322)" fill="#365558"/>
<rect width="3" height="33" rx="1.5" transform="matrix(-1 0 0 1 34 240)" fill="#365558"/>
<rect width="3" height="33" rx="1.5" transform="matrix(-1 0 0 1 34 363)" fill="#365558"/>
<rect width="3" height="33" rx="1.5" transform="matrix(1.19249e-08 -1 -1 -1.19249e-08 76 395)" fill="#365558"/>
<rect width="3" height="33" rx="1.5" transform="matrix(3.0598e-07 1 1 -6.24448e-09 277 146)" fill="#365558"/>
<rect width="3" height="33" rx="1.5" transform="matrix(3.0598e-07 1 1 -6.24448e-09 72 146)" fill="#365558"/>
<rect width="3" height="33" rx="1.5" transform="matrix(8.34742e-08 -1 -1 -1.70355e-09 269 149)" fill="#365558"/>
<rect width="4" height="33" rx="2" transform="matrix(8.34742e-08 -1 -1 -1.70355e-09 64 149)" fill="#365558"/>
<path d="M354.713 230.113V230.915H256.881V230.113H240.1V231.156H371.494V230.113H354.713Z" fill="#9EA8AA"/>
<path d="M371.495 211.832V230.119H354.714V218.489C354.714 214.399 351.273 211.111 346.994 211.111H307.056V196.434H355.385C364.279 196.434 371.495 203.331 371.495 211.832Z" fill="#C4C4C4"/>
<path d="M307.056 196.434V211.111H264.6C260.321 211.111 256.881 214.399 256.881 218.489V230.119H240.1V211.832C240.1 203.331 247.315 196.434 256.209 196.434H307.056Z" fill="#9EA8AA"/>
<path d="M306.972 231.242V512.031H125.486C113.069 512.031 103 502.407 103 490.537V246.561C103 238.14 110.132 231.242 119.026 231.242H306.972Z" fill="#9EA8AA"/>
<path d="M512.538 246.561V490.617C512.538 502.487 502.47 512.112 490.052 512.112H307.056V231.242H496.596C505.406 231.242 512.538 238.059 512.538 246.561Z" fill="#C4C4C4"/>
<path d="M307.057 414.9L203.183 414.179C184.136 414.179 167.188 402.629 161.063 385.386L116.845 261.874C115.251 257.463 114.412 252.731 114.412 248.079V236.61C114.412 233.562 116.929 231.156 120.117 231.156H240.101V245.994C240.101 254.495 247.317 261.393 256.211 261.393H307.057V389.877V414.9V414.9Z" fill="#F0353D"/>
<path d="M307.056 231.156V261.393H256.209C247.315 261.393 240.1 254.495 240.1 245.994V231.156H307.056Z" fill="#F0353D"/>
<path d="M497.185 236.61V241.984C497.185 247.117 496.178 252.25 494.248 257.142L442.814 386.669C436.27 403.191 419.657 414.098 401.114 414.098L307.057 414.9L306.973 389.877V261.393H355.302C364.196 261.393 371.411 254.495 371.411 245.994V231.156H491.395C494.668 231.156 497.185 233.643 497.185 236.61Z" fill="#FD6A33"/>
<path d="M371.495 231.156V245.994C371.495 254.495 364.279 261.393 355.385 261.393H307.056V231.156H371.495Z" fill="#FD6A33"/>
<path d="M426.689 385.142C426.85 385.142 426.986 385.739 427.083 387.021C427.179 388.302 427.218 390.096 427.197 391.976L427.105 398.384C426.967 403.339 426.656 407.099 426.437 407.1L389.685 407.2C389.525 407.2 389.388 406.603 389.292 405.321C389.196 404.04 389.157 402.246 389.177 400.366L389.269 393.958C389.324 389.345 389.634 385.243 390.039 385.242L426.689 385.142Z" fill="#365558"/>
<path d="M222.031 384.255C222.191 384.255 222.328 384.853 222.424 386.134C222.52 387.415 222.559 389.209 222.539 391.089L222.446 397.497C222.308 402.453 221.998 406.213 221.778 406.213L185.026 406.313C184.866 406.313 184.73 405.716 184.633 404.435C184.537 403.153 184.498 401.359 184.519 399.48L184.611 393.072C184.666 388.458 184.975 384.356 185.38 384.355L222.031 384.255Z" fill="#365558"/>
<path d="M455.767 0C426.512 0 403 23.5284 403 52.4688C403 75.3831 442.653 120.713 456 136.91C456 126.931 455.845 120.981 455.806 115.57L455.767 0Z" fill="#365558"/>
<path d="M455.767 0C485.022 0 509 23.5284 509 52.4688C509 75.3831 469.347 120.713 456 136.91C456 126.931 455.767 120.981 455.806 115.57L455.767 0Z" fill="#0295AA"/>
<path d="M415.416 50.0911C415.416 72.3702 433.49 90.5846 455.767 90.5846V9.59766C433.528 9.59766 415.416 27.7354 415.416 50.0911Z" fill="#9BAAAB"/>
<path d="M497.671 50.0911C497.671 72.3702 478.902 90.5846 455.768 90.5846V9.59766C478.862 9.59766 497.671 27.7354 497.671 50.0911Z" fill="#C4C4C4"/>
<path d="M306 322H415C421.075 322 426 326.925 426 333V477C426 483.075 421.075 488 415 488H306V322Z" fill="white"/>
<path d="M187 333C187 326.925 191.925 322 198 322H306V488H198C191.925 488 187 483.075 187 477V333Z" fill="#E6EAEA"/>
<rect x="233.502" y="233" width="18.939" height="51.2466" rx="9.46948" fill="#0295AA"/>
<rect x="359.39" y="233" width="18.939" height="51.2466" rx="9.46948" fill="#4ACFD9"/>
<path fill-rule="evenodd" clip-rule="evenodd" d="M306.473 253.262H264.359V275.385C264.359 287.015 254.931 296.442 243.301 296.442C231.672 296.442 222.244 287.015 222.244 275.385V253.262H185.001C176.717 253.262 170.001 259.977 170.001 268.262V490.948C170.001 499.232 176.717 505.948 185.001 505.948H427.945C428.032 505.948 428.118 505.947 428.204 505.946H306.473V484.625H208.659C197.613 484.625 188.659 475.671 188.659 464.625V326.297H306.473V253.262ZM442.945 491.063C442.945 491.024 442.945 490.986 442.945 490.948V268.262C442.945 268.224 442.945 268.185 442.945 268.147V491.063Z" fill="#0295AA"/>
<path fill-rule="evenodd" clip-rule="evenodd" d="M306.472 253.262H348.586V275.385C348.586 287.015 358.014 296.442 369.643 296.442C381.273 296.442 390.701 287.015 390.701 275.385V253.262H427.944C436.228 253.262 442.944 259.977 442.944 268.262V490.948C442.944 499.232 436.228 505.948 427.944 505.948H185C184.913 505.948 184.827 505.947 184.741 505.946H306.472V484.625H404.286C415.331 484.625 424.286 475.671 424.286 464.625V326.297H306.472V253.262ZM170 491.054C170 491.019 170 490.983 170 490.948V268.262C170 268.226 170 268.191 170 268.156V491.054Z" fill="#4ACFD9"/>
<path d="M89.3087 391.049C91.3912 391.516 91.3912 394.484 89.3087 394.951L73.4381 398.515C72.188 398.795 71 397.845 71 396.563L71 389.437C71 388.155 72.188 387.205 73.4381 387.485L89.3087 391.049Z" fill="#C4C4C4"/>
</g>
<defs>
<clipPath id="clip0_438_363">
<rect width="512" height="512" fill="white"/>
</clipPath>
</defs>
</svg>
