<?xml version="1.0" encoding="utf-8"?>
<!-- Generator: Adobe Illustrator 25.4.1, SVG Export Plug-In . SVG Version: 6.00 Build 0)  -->
<svg version="1.1" id="Layer_1" xmlns="http://www.w3.org/2000/svg" xmlns:xlink="http://www.w3.org/1999/xlink" x="0px" y="0px"
	 viewBox="0 0 512 512" style="enable-background:new 0 0 512 512;" xml:space="preserve">
<style type="text/css">
	.st0{fill:#CDD4D5;}
	.st1{fill:#9BAAAB;}
	.st2{fill:#E6EAEA;}
	.st3{fill:none;stroke:#CDD4D5;stroke-width:3.3018;stroke-linejoin:round;stroke-miterlimit:10;}
	.st4{fill:none;stroke:#E6EAEA;stroke-width:3.3018;stroke-linejoin:round;stroke-miterlimit:10;}
	.st5{fill:#FF8C29;}
	.st6{fill:#FD6A33;}
	.st7{fill:#FFD1A9;}
	.st8{fill:#FFFFFF;}
	.st9{fill:#365558;}
	.st10{fill:#687F82;}
	.st11{fill:#4ACFD9;}
	.st12{fill:#0295AA;}
	.st13{display:none;fill:#020202;}
	.st14{fill:#F0353D;}
	.st15{fill:none;stroke:#CDD4D5;stroke-width:5.2895;stroke-linejoin:round;stroke-miterlimit:10;}
	.st16{fill:none;stroke:#E6EAEA;stroke-width:5.2895;stroke-linejoin:round;stroke-miterlimit:10;}
</style>
<path class="st0" d="M207.9,175.1h-70.9v10.7h70.9"/>
<path class="st1" d="M60.6,181.3c0,2.5,2,4.5,4.5,4.5h72v-10.7h-72l0,0c-2.5,0-4.5,2-4.5,4.5"/>
<path class="st0" d="M218,77.7l-66.7-33.1c-3.9-2.3-9-3.4-14.2-3.4V86h78.7"/>
<path class="st1" d="M56.9,86H137V41.2c-5.1,0-10.3,1.2-14.2,3.4L54.7,77.7"/>
<path class="st0" d="M215.8,189.9h-78.7v14.4h78.7"/>
<path class="st1" d="M56.5,204.3H137v-14.4H56.5"/>
<path class="st0" d="M207.9,90.9h-70.9v12h70.9"/>
<path class="st1" d="M60.6,98.4c0,2.5,2,4.5,4.5,4.5h72v-12l-72,0l0,0c-2.5,0-4.5,2-4.5,4.5"/>
<circle class="st0" cx="119.2" cy="97" r="4.1"/>
<circle class="st0" cx="85.5" cy="97" r="4.1"/>
<circle class="st2" cx="153.7" cy="96.9" r="4.1"/>
<polyline class="st3" points="119.2,97 119.2,75.9 137.1,75.9 "/>
<polyline class="st3" points="85.5,97 85.5,75.9 106.7,75.9 106.7,64.9 137.1,64.9 "/>
<polyline class="st4" points="153.9,97 153.9,75.9 136,75.9 "/>
<polyline class="st4" points="187.6,75.9 166.4,75.9 166.4,64.9 136,64.9 "/>
<path class="st5" d="M137.1,46.9V83c10,0,18-8.1,18-18S147,46.9,137.1,46.9z"/>
<path class="st6" d="M119,64.9c0,10,8.1,18,18,18V46.9C127.1,46.9,119,55,119,64.9z"/>
<path class="st7" d="M167.6,103.2"/>
<g>
	<path class="st8" d="M131.9,68.7l-1.6,3.2c-0.2,0.5-0.3,0.8-0.3,1.1c0,0.5,0.4,0.8,1.1,1v0.5h-7.6V74c0.5-0.1,0.8-0.2,1-0.5
		c0.2-0.2,0.5-0.7,0.8-1.3l8.5-17.7c0.3-0.6,0.4-1,0.4-1.4c0-0.5-0.3-0.9-1-1.1v-0.5h8.2v0.5c-0.7,0.2-1,0.5-1,1
		c0,0.3,0.1,0.7,0.3,1.1l8.8,17.7c0.4,0.8,0.7,1.3,1,1.6c0.3,0.3,0.7,0.5,1.1,0.6v0.5h-8.5V74c0.8-0.1,1.1-0.5,1.1-1.1
		c0-0.2-0.1-0.6-0.3-1.1l-1.6-3.2 M142.3,68.7l-5.2-11.4l-5.3,11.4"/>
</g>
<path class="st8" d="M148.9,67.1h-23.6c-0.5,0-0.8,0.4-0.8,0.8v0.3c0,0.5,0.4,0.8,0.8,0.8h23.6c0.5,0,0.8-0.4,0.8-0.8V68
	C149.7,67.5,149.3,67.1,148.9,67.1z"/>
<path class="st8" d="M147.6,64.3h-21.1c-0.4,0-0.7,0.3-0.7,0.7v0.3c0,0.4,0.3,0.7,0.7,0.7h21.1c0.4,0,0.7-0.3,0.7-0.7V65
	C148.3,64.6,148,64.3,147.6,64.3z"/>
<g>
	<g>
		<path class="st5" d="M119.3,106.8H96.4v8.8h22.9c0.8,0,1.5-0.8,1.5-1.7v-5.5C120.7,107.6,120.1,106.8,119.3,106.8z"/>
		<path class="st6" d="M73.6,106.8c-0.8,0-1.5,0.8-1.5,1.7v5.5c0,0.9,0.7,1.7,1.5,1.7h22.8v-8.8H73.6z"/>
		<rect x="74.3" y="110.1" class="st9" width="2.1" height="5.5"/>
		<rect x="78.9" y="110.1" class="st9" width="3.1" height="5.5"/>
		<rect x="85.7" y="110.1" class="st9" width="4.2" height="5.5"/>
		<rect x="96.4" y="110.1" class="st9" width="0" height="5.5"/>
		<rect x="94.5" y="110.1" class="st9" width="2" height="5.5"/>
		<rect x="116.5" y="110.1" class="st10" width="2.1" height="5.5"/>
		<rect x="110.9" y="110.1" class="st10" width="3.1" height="5.5"/>
		<rect x="103" y="110.1" class="st10" width="4.2" height="5.5"/>
		<rect x="96.5" y="110.1" class="st10" width="2" height="5.5"/>
	</g>
	<g>
		<path class="st5" d="M122.1,118H99.2v8.8h22.9c0.8,0,1.5-0.8,1.5-1.7v-5.5C123.5,118.7,122.9,118,122.1,118z"/>
		<path class="st6" d="M76.4,118c-0.8,0-1.5,0.8-1.5,1.7v5.5c0,0.9,0.7,1.7,1.5,1.7h22.8V118H76.4z"/>
		<rect x="77.1" y="121.3" class="st9" width="2.1" height="5.5"/>
		<rect x="81.6" y="121.3" class="st9" width="3.1" height="5.5"/>
		<rect x="88.4" y="121.3" class="st9" width="4.2" height="5.5"/>
		<rect x="99.2" y="121.3" class="st9" width="0" height="5.5"/>
		<rect x="97.2" y="121.3" class="st9" width="2" height="5.5"/>
		<rect x="119.3" y="121.3" class="st10" width="2.1" height="5.5"/>
		<rect x="113.6" y="121.3" class="st10" width="3.1" height="5.5"/>
		<rect x="105.8" y="121.3" class="st10" width="4.2" height="5.5"/>
		<rect x="99.2" y="121.3" class="st10" width="2" height="5.5"/>
	</g>
	<g>
		<path class="st5" d="M120.7,129.1H97.8v8.8h22.9c0.8,0,1.5-0.8,1.5-1.7v-5.5C122.1,129.8,121.5,129.1,120.7,129.1z"/>
		<path class="st6" d="M75,129.1c-0.8,0-1.5,0.8-1.5,1.7v5.5c0,0.9,0.7,1.7,1.5,1.7h22.8v-8.8H75z"/>
		<rect x="75.7" y="132.4" class="st9" width="2.1" height="5.5"/>
		<rect x="80.3" y="132.4" class="st9" width="3.1" height="5.5"/>
		<rect x="87.1" y="132.4" class="st9" width="4.2" height="5.5"/>
		<rect x="97.8" y="132.4" class="st9" width="0" height="5.5"/>
		<rect x="95.8" y="132.4" class="st9" width="2" height="5.5"/>
		<rect x="117.9" y="132.4" class="st10" width="2.1" height="5.5"/>
		<rect x="112.2" y="132.4" class="st10" width="3.1" height="5.5"/>
		<rect x="104.4" y="132.4" class="st10" width="4.2" height="5.5"/>
		<rect x="97.9" y="132.4" class="st10" width="2" height="5.5"/>
	</g>
	<g>
		<path class="st5" d="M118.9,140.2H96v8.8h22.9c0.8,0,1.5-0.8,1.5-1.7v-5.5C120.3,141,119.7,140.2,118.9,140.2z"/>
		<path class="st6" d="M73.2,140.2c-0.8,0-1.5,0.8-1.5,1.7v5.5c0,0.9,0.7,1.7,1.5,1.7H96v-8.8L73.2,140.2L73.2,140.2z"/>
		<rect x="73.9" y="143.5" class="st9" width="2.1" height="5.5"/>
		<rect x="78.4" y="143.5" class="st9" width="3.1" height="5.5"/>
		<rect x="85.2" y="143.5" class="st9" width="4.2" height="5.5"/>
		<rect x="96" y="143.5" class="st9" width="0" height="5.5"/>
		<rect x="94" y="143.5" class="st9" width="2" height="5.5"/>
		<rect x="116.1" y="143.5" class="st10" width="2.1" height="5.5"/>
		<rect x="110.5" y="143.5" class="st10" width="3.1" height="5.5"/>
		<rect x="102.6" y="143.5" class="st10" width="4.2" height="5.5"/>
		<rect x="96" y="143.5" class="st10" width="2" height="5.5"/>
	</g>
	<g>
		<path class="st5" d="M121.5,151.3H98.6v8.8h22.9c0.8,0,1.5-0.8,1.5-1.7V153C122.9,152.1,122.3,151.3,121.5,151.3z"/>
		<path class="st6" d="M75.8,151.3c-0.8,0-1.5,0.8-1.5,1.7v5.5c0,0.9,0.7,1.7,1.5,1.7h22.8v-8.8H75.8z"/>
		<rect x="76.5" y="154.6" class="st9" width="2.1" height="5.5"/>
		<rect x="81" y="154.6" class="st9" width="3.1" height="5.5"/>
		<rect x="87.8" y="154.6" class="st9" width="4.2" height="5.5"/>
		<rect x="98.6" y="154.6" class="st9" width="0" height="5.5"/>
		<rect x="96.6" y="154.6" class="st9" width="2" height="5.5"/>
		<rect x="118.7" y="154.6" class="st10" width="2.1" height="5.5"/>
		<rect x="113.1" y="154.6" class="st10" width="3.1" height="5.5"/>
		<rect x="105.2" y="154.6" class="st10" width="4.2" height="5.5"/>
		<rect x="98.6" y="154.6" class="st10" width="2" height="5.5"/>
	</g>
	<g>
		<path class="st5" d="M119.7,162.4H96.8v8.8h22.9c0.8,0,1.5-0.8,1.5-1.7v-5.5C121.1,163.2,120.5,162.4,119.7,162.4z"/>
		<path class="st6" d="M73.9,162.4c-0.8,0-1.5,0.8-1.5,1.7v5.5c0,0.9,0.7,1.7,1.5,1.7h22.8v-8.8L73.9,162.4L73.9,162.4z"/>
		<rect x="74.7" y="165.7" class="st9" width="2.1" height="5.5"/>
		<rect x="79.3" y="165.7" class="st9" width="3.1" height="5.5"/>
		<rect x="86" y="165.7" class="st9" width="4.2" height="5.5"/>
		<rect x="96.8" y="165.7" class="st9" width="0" height="5.5"/>
		<rect x="94.8" y="165.7" class="st9" width="2" height="5.5"/>
		<rect x="116.9" y="165.7" class="st10" width="2.1" height="5.5"/>
		<rect x="111.3" y="165.7" class="st10" width="3.1" height="5.5"/>
		<rect x="103.4" y="165.7" class="st10" width="4.2" height="5.5"/>
		<rect x="96.8" y="165.7" class="st10" width="2" height="5.5"/>
	</g>
</g>
<path class="st11" d="M199.5,106.8h-22.9v8.8h22.9"/>
<path class="st12" d="M153.8,106.8c-0.8,0-1.5,0.8-1.5,1.7v5.5c0,0.9,0.7,1.7,1.5,1.7h22.8v-8.8H153.8z"/>
<rect x="154.5" y="110.1" class="st9" width="2.1" height="5.5"/>
<rect x="159.1" y="110.1" class="st9" width="3.1" height="5.5"/>
<rect x="165.9" y="110.1" class="st9" width="4.2" height="5.5"/>
<rect x="176.7" y="110.1" class="st9" width="0" height="5.5"/>
<rect x="174.7" y="110.1" class="st9" width="2" height="5.5"/>
<rect x="176.7" y="110.1" class="st10" width="2" height="5.5"/>
<path class="st11" d="M200.6,118h-22.9v8.8h22.9"/>
<path class="st12" d="M154.8,118c-0.8,0-1.5,0.8-1.5,1.7v5.5c0,0.9,0.7,1.7,1.5,1.7h22.8V118H154.8z"/>
<rect x="155.6" y="121.3" class="st9" width="2.1" height="5.5"/>
<rect x="160.2" y="121.3" class="st9" width="3.1" height="5.5"/>
<rect x="166.9" y="121.3" class="st9" width="4.2" height="5.5"/>
<rect x="177.7" y="121.3" class="st9" width="0" height="5.5"/>
<rect x="175.7" y="121.3" class="st9" width="2" height="5.5"/>
<rect x="177.7" y="121.3" class="st10" width="2" height="5.5"/>
<path class="st11" d="M200.8,129.1H178v8.8h22.9"/>
<path class="st12" d="M155.1,129.1c-0.8,0-1.5,0.8-1.5,1.7v5.5c0,0.9,0.7,1.7,1.5,1.7H178v-8.8H155.1z"/>
<rect x="155.8" y="132.4" class="st9" width="2.1" height="5.5"/>
<rect x="160.4" y="132.4" class="st9" width="3.1" height="5.5"/>
<rect x="167.2" y="132.4" class="st9" width="4.2" height="5.5"/>
<rect x="178" y="132.4" class="st9" width="0" height="5.5"/>
<rect x="176" y="132.4" class="st9" width="2" height="5.5"/>
<rect x="178" y="132.4" class="st10" width="2" height="5.5"/>
<path class="st11" d="M199.6,140.2h-22.9v8.8h22.9"/>
<path class="st12" d="M153.9,140.2c-0.8,0-1.5,0.8-1.5,1.7v5.5c0,0.9,0.7,1.7,1.5,1.7h22.8v-8.8L153.9,140.2L153.9,140.2z"/>
<rect x="154.6" y="143.5" class="st9" width="2.1" height="5.5"/>
<rect x="159.2" y="143.5" class="st9" width="3.1" height="5.5"/>
<rect x="165.9" y="143.5" class="st9" width="4.2" height="5.5"/>
<rect x="176.7" y="143.5" class="st9" width="0" height="5.5"/>
<rect x="174.7" y="143.5" class="st9" width="2" height="5.5"/>
<rect x="176.7" y="143.5" class="st10" width="2" height="5.5"/>
<path class="st11" d="M198.1,151.4h-22.9v8.8h22.9"/>
<path class="st12" d="M152.4,151.4c-0.8,0-1.5,0.8-1.5,1.7v5.5c0,0.9,0.7,1.7,1.5,1.7h22.8v-8.8L152.4,151.4L152.4,151.4z"/>
<rect x="153.1" y="154.6" class="st9" width="2.1" height="5.5"/>
<rect x="157.6" y="154.6" class="st9" width="3.1" height="5.5"/>
<rect x="164.5" y="154.6" class="st9" width="4.2" height="5.5"/>
<rect x="175.2" y="154.6" class="st9" width="0" height="5.5"/>
<rect x="173.2" y="154.6" class="st9" width="2" height="5.5"/>
<polyline class="st10" points="186,160.2 181.8,160.2 181.8,154.6 186,154.6 "/>
<rect x="175.2" y="154.6" class="st10" width="2" height="5.5"/>
<path class="st11" d="M199.1,162.5h-22.9v8.8h22.9"/>
<path class="st12" d="M153.4,162.5c-0.8,0-1.5,0.8-1.5,1.7v5.5c0,0.9,0.7,1.7,1.5,1.7h22.8v-8.8L153.4,162.5L153.4,162.5z"/>
<rect x="154.1" y="165.8" class="st9" width="2.1" height="5.5"/>
<rect x="158.7" y="165.8" class="st9" width="3.1" height="5.5"/>
<rect x="165.5" y="165.8" class="st9" width="4.2" height="5.5"/>
<rect x="176.2" y="165.8" class="st9" width="0" height="5.5"/>
<rect x="174.3" y="165.8" class="st9" width="2" height="5.5"/>
<rect x="176.3" y="165.8" class="st10" width="2" height="5.5"/>
<rect x="192" y="22" class="st13" width="512" height="512"/>
<path class="st6" d="M256.4,141.8h-5.7h-5.8c-7.4,0-13.4,6.1-13.4,13.4v57.7c0,7.4,6.1,13.4,13.4,13.4h5.8h5.7
	c3.3,0,6.2-2.7,6.2-6.2v-72.2C262.5,144.7,259.8,141.8,256.4,141.8z"/>
<path class="st5" d="M488.1,226.2h-5.7c-3.3,0-6.2-2.7-6.2-6.2v-72.2c0-3.3,2.7-6.2,6.2-6.2h5.7h5.8c7.4,0,13.4,6.1,13.4,13.4v57.8
	c0,7.4-6.1,13.4-13.4,13.4H488.1L488.1,226.2z"/>
<path class="st5" d="M434.7,88h-42.4c-4.2,0-8.1-3.8-8.1-8.1V78h-14.8v133.5h3h5.6c1.7,0,3,1.4,3,2.9v5.6c0,1.7-1.4,3-3,3h-5.6v0.1
	h-3v43.2h65.3c17,0,30.9-13.9,30.9-30.9V118.7C465.6,101.7,451.6,87.8,434.7,88z M423.5,219.9c0,1.8-1.5,3.2-3.2,3.2h-16.9
	c-1.7,0-3.2-1.5-3.2-3.2v-5.2c0-1.8,1.5-3.2,3.2-3.2h16.8c1.8,0,3.2,1.5,3.2,3.2v5.2H423.5z M411.8,172.2c-8.5,0-15.4-6.9-15.4-15.4
	s6.9-15.4,15.4-15.4s15.4,6.9,15.4,15.4C427.2,165.2,420.3,172.2,411.8,172.2z"/>
<rect x="369.4" y="222.9" class="st5" width="3" height="0.1"/>
<path class="st5" d="M388.8,72.8c6.7-4.4,4.8-14.3-1.6-19.3c0,0-17.7,13.1-17.7,24.4c5.2,0,14.8,0,14.8,0S383.4,76.4,388.8,72.8z"/>
<path class="st6" d="M369.4,78h-14.8v1.7c0,4.7-4.8,8.1-9.3,8.1h-41.1c-17,0-30.9,13.9-30.9,30.9v116.8c0,17,13.9,30.9,30.9,30.9
	h65.2v-43.3h-8.6c-1.7,0-3-1.4-3-3v-5.6c0-1.7,1.4-3,3-3h4.6h4.1V78H369.4z M338.6,220.1c0,1.7-1.4,3-3,3h-17.2c-1.7,0-3-1.4-3-3
	v-5.6c0-1.7,1.4-3,3-3h17.2c1.6,0,3,1.4,3,3V220.1z M327,172.1c-8.5,0-15.4-6.9-15.4-15.4s6.9-15.4,15.4-15.4s15.4,7,15.4,15.4
	C342.4,165.2,335.5,172.1,327,172.1z"/>
<path class="st6" d="M365.3,55.6c-5.7,3.7-10.7,10-10.7,22.3c6.9,0,9.6,0,14.8,0c0-11.5,17.9-24.6,17.9-24.6
	C380.9,48.3,370.9,52,365.3,55.6z"/>
<path class="st7" d="M244.8,192.6c0.6,0.9,0.9,2.1,0.5,3.2c-1.5,6.4-0.3,13.1,3.3,18.3c1.2,1.7,0.8,4.2-0.7,5.5
	c-1.7,1.3-4.1,1-5.3-0.6c-5.1-7-6.7-16-4.6-24.6c0.5-2.1,2.5-3.4,4.6-2.9C243.7,191.4,244.2,191.9,244.8,192.6z"/>
<path class="st7" d="M496.6,191.4c2-0.5,4.1,0.9,4.6,2.9c2.2,8.6,0.5,17.6-4.6,24.6c-1.2,1.6-3.5,1.9-5.3,0.6
	c-1.5-1.3-2-3.7-0.7-5.5c3.6-5.3,4.9-11.9,3.3-18.3c-0.4-1.1-0.1-2.3,0.5-3.2C495,191.9,495.6,191.4,496.6,191.4z"/>
<path class="st14" d="M432.8,24l-17.3,16.7c-2.3,2.2-6,2.2-8.4-0.1c-2.3-2.3-2.3-5.9,0.1-8.1l17.3-16.7c2.3-2.2,6-2.2,8.4,0.1
	C435.1,18.1,435.1,21.6,432.8,24z"/>
<path class="st14" d="M446.7,59.2c-1.1,1.1-2.5,1.7-4.3,1.6l-22-0.1c-3.3,0-5.9-2.5-5.9-5.9c0-3.1,2.6-5.7,6-5.8l22,0.1
	c3.3,0,5.9,2.5,5.9,5.9C448.5,56.7,447.7,58.2,446.7,59.2z"/>
<path class="st14" d="M396.6,31.5c-1.1,1.1-2.5,1.7-4.3,1.6c-3.3,0-5.9-2.5-5.9-5.9l0.1-21.4c0-3.1,2.6-5.7,6-5.8
	c3.3,0,5.9,2.5,5.9,5.9l0,21.4C398.3,29,397.8,30.4,396.6,31.5z"/>
<polygon class="st8" points="369.4,432.5 369.4,425.6 387.9,401.1 421.1,331.5 437.5,334.4 468,356.3 450.9,408 395.7,464.4 
	369.4,464.4 "/>
<path class="st11" d="M369.4,282.6c10.9,0,14,2.1,17.5,9.5c5.5,11.4,11.4,23,5.4,29.1c-6.1,6.1-16,8.8-23,8.8L369.4,282.6
	L369.4,282.6L369.4,282.6z"/>
<path class="st11" d="M369.4,334.8c0,0,10-0.4,12.8-2c2.7-1.6,10.7,45.7,9.7,59.6s-5.3,11.6-5.3,11.6l-17.2,25.9V334.8z"/>
<polygon class="st2" points="369.4,432.2 369.4,425.6 350.9,401.1 317.7,331.5 301.3,334.4 270.8,356.3 287.9,408 343.1,464.4 
	369.4,464.1 "/>
<path class="st6" d="M369.4,454c40.4,0,73.1-67.5,73.1-113.1h30.9c0,56.3-11.2,145.7,38.6,145.7v25.6L369.4,512V454z"/>
<path class="st14" d="M369.4,454c-40.4,0-73.1-67.5-73.1-113.1h-30.9c0,56.3,17.3,145.7-32.5,145.7v25.6l136.5-0.2V454z"/>
<path class="st0" d="M442.4,310.9c13.6,3.8,35.9,22.5,44.4,27.8c3.8,2.3,13.8,9.9,10,15.9c0,0-45.1-24.5-54.7-8.3
	c-9.6,16.2-16.7,31.1-26.5,45c-11.5,16.3-40.2,44.7-40.2,44.7c-3.2,0.7-3.7,0.5-4.7-0.2c-1.4-1.2-1.9-6.2-0.7-10.1L425.7,323
	C428,316.4,435.4,310.9,442.4,310.9"/>
<path class="st12" d="M369.4,282.6c-10.9,0-14,2.1-17.5,9.5c-5.5,11.4-11.4,23-5.4,29.1c6.1,6.1,16,8.8,23,8.8v-47.4H369.4
	L369.4,282.6z"/>
<path class="st12" d="M369.4,334.9c0,0-10-0.4-12.8-2.1c-2.7-1.7-10.7,45.7-9.7,59.6s5.3,11.6,5.3,11.6l17.2,25.8V334.9z"/>
<path class="st1" d="M296.4,310.9c6.9,0,14.4,5.5,16.6,12l55.7,102.7c1.2,4,0.7,8.4-0.7,10.1c-0.7,0.8-0.6,0.9-4.7,0.2
	c0,0-28.7-28.5-40.2-44.7c-9.8-14-16.9-28.8-26.5-45c-9.6-16.2-54.7,8.3-54.7,8.3c-3.6-6,6.2-13.5,10-15.9
	C260.5,333.4,282.8,314.8,296.4,310.9"/>
<circle class="st9" cx="369.4" cy="478.9" r="7.7"/>
<path class="st0" d="M249.8,465.2H136.3v17.1h113.5c4,0,7.2-3.2,7.2-7.2v-2.7C257,468.5,253.7,465.2,249.8,465.2z"/>
<path class="st1" d="M21,465.2c-4,0-7.2,3.2-7.2,7.2v2.7c0,4,3.2,7.2,7.2,7.2h115.3v-17.1L21,465.2L21,465.2z"/>
<path class="st0" d="M266,309.2l-106.9-53.1c-6.2-3.6-14.5-5.5-22.7-5.5v71.8h126C269.7,322.5,273.1,313.8,266,309.2z"/>
<path class="st1" d="M113.6,256.1L4.3,309.2c-6.7,3.9-5.2,13.3,3.6,13.3h128.4v-71.8C128.1,250.6,119.8,252.5,113.6,256.1z"/>
<path class="st0" d="M262.4,488.9h-126v23h126.1c4,0,7.2-3.2,7.2-7.2v-8.6C269.6,492.3,266.3,488.9,262.4,488.9z"/>
<path class="st1" d="M7.2,488.9c-4,0-7.2,3.2-7.2,7.2v8.6c0,4,3.2,7.2,7.2,7.2h129.1v-23H7.2z"/>
<path class="st0" d="M249.8,330.3H136.3v19.1h113.5c4,0,7.2-3.2,7.2-7.2v-4.8C257,333.5,253.7,330.3,249.8,330.3z"/>
<path class="st1" d="M21,330.3c-4,0-7.2,3.2-7.2,7.2v4.8c0,4,3.2,7.2,7.2,7.2h115.3v-19.1L21,330.3L21,330.3z"/>
<circle class="st0" cx="107.6" cy="340" r="6.6"/>
<circle class="st0" cx="53.6" cy="340" r="6.6"/>
<circle class="st2" cx="216.9" cy="339.9" r="6.6"/>
<circle class="st2" cx="162.9" cy="339.9" r="6.6"/>
<polyline class="st15" points="107.6,340 107.6,306.3 136.3,306.3 "/>
<polyline class="st15" points="53.6,340 53.6,306.3 87.6,306.3 87.6,288.7 136.3,288.7 "/>
<polyline class="st16" points="163.2,340 163.2,306.3 134.6,306.3 "/>
<polyline class="st16" points="217.2,340 217.2,306.3 183.2,306.3 183.2,288.7 134.6,288.7 "/>
<path class="st5" d="M136.3,259.8v57.8c16,0,28.9-13,28.9-28.9C165.2,272.8,152.2,259.8,136.3,259.8z"/>
<path class="st6" d="M107.4,288.7c0,16,13,28.9,28.9,28.9v-57.8C120.3,259.8,107.4,272.7,107.4,288.7z"/>
<path class="st7" d="M185.1,350"/>
<g>
	<path class="st8" d="M128,294.8l-2.5,5.2c-0.3,0.7-0.5,1.3-0.5,1.7c0,0.8,0.6,1.3,1.8,1.6v0.8h-12.2v-0.8c0.7-0.2,1.3-0.4,1.6-0.7
		s0.8-1.1,1.3-2.1l13.5-28.4c0.4-0.9,0.6-1.6,0.6-2.2c0-0.8-0.5-1.4-1.6-1.8v-0.8h13.1v0.8c-1.1,0.3-1.6,0.8-1.6,1.6
		c0,0.5,0.2,1.1,0.5,1.8l14.1,28.4c0.6,1.2,1.1,2,1.6,2.5c0.5,0.4,1.1,0.7,1.8,0.9v0.8h-13.6v-0.8c1.2-0.2,1.8-0.7,1.8-1.7
		c0-0.4-0.2-1-0.5-1.7l-2.5-5.2 M144.7,294.8l-8.3-18.2l-8.5,18.2"/>
</g>
<path class="st8" d="M155.2,292.3h-37.9c-0.7,0-1.3,0.6-1.3,1.3v0.5c0,0.7,0.6,1.3,1.3,1.3h37.9c0.7,0,1.3-0.6,1.3-1.3v-0.5
	C156.5,292.9,155.9,292.3,155.2,292.3z"/>
<path class="st8" d="M153.2,287.8h-33.9c-0.6,0-1.1,0.5-1.1,1.1v0.5c0,0.6,0.5,1.1,1.1,1.1h33.9c0.6,0,1.1-0.5,1.1-1.1v-0.5
	C154.3,288.2,153.8,287.8,153.2,287.8z"/>
<g>
	<g>
		<path class="st5" d="M107.9,355.8H71.2V370h36.7c1.3,0,2.3-1.2,2.3-2.6v-8.8C110.1,357.1,109.1,355.8,107.9,355.8z"/>
		<path class="st6" d="M34.6,355.8c-1.3,0-2.3,1.2-2.3,2.6v8.8c0,1.5,1.1,2.6,2.3,2.6h36.6v-14.1H34.6z"/>
		<rect x="35.8" y="361.1" class="st9" width="3.3" height="8.9"/>
		<rect x="43.1" y="361.1" class="st9" width="5" height="8.9"/>
		<rect x="54" y="361.1" class="st9" width="6.7" height="8.9"/>
		<rect x="71.2" y="361.1" class="st9" width="0.1" height="8.9"/>
		<rect x="68" y="361.1" class="st9" width="3.2" height="8.9"/>
		<rect x="103.4" y="361.1" class="st10" width="3.3" height="8.9"/>
		<rect x="94.4" y="361.1" class="st10" width="5" height="8.9"/>
		<rect x="81.8" y="361.1" class="st10" width="6.7" height="8.9"/>
		<rect x="71.2" y="361.1" class="st10" width="3.2" height="8.9"/>
	</g>
	<g>
		<path class="st5" d="M112.3,373.7H75.6v14.1h36.7c1.3,0,2.3-1.2,2.3-2.6v-8.8C114.6,374.9,113.6,373.7,112.3,373.7z"/>
		<path class="st6" d="M39,373.7c-1.3,0-2.3,1.2-2.3,2.6v8.8c0,1.5,1.1,2.6,2.3,2.6h36.6v-14.1H39z"/>
		<rect x="40.1" y="379" class="st9" width="3.3" height="8.9"/>
		<rect x="47.5" y="379" class="st9" width="5" height="8.9"/>
		<rect x="58.4" y="379" class="st9" width="6.7" height="8.9"/>
		<rect x="75.6" y="379" class="st9" width="0.1" height="8.9"/>
		<rect x="72.4" y="379" class="st9" width="3.2" height="8.9"/>
		<rect x="107.8" y="379" class="st10" width="3.3" height="8.9"/>
		<rect x="98.8" y="379" class="st10" width="5" height="8.9"/>
		<rect x="86.2" y="379" class="st10" width="6.7" height="8.9"/>
		<rect x="75.7" y="379" class="st10" width="3.2" height="8.9"/>
	</g>
	<g>
		<path class="st5" d="M110.1,391.5H73.4v14.2h36.7c1.3,0,2.3-1.2,2.3-2.6v-8.9C112.3,392.7,111.3,391.5,110.1,391.5z"/>
		<path class="st6" d="M36.8,391.5c-1.3,0-2.3,1.2-2.3,2.6v8.8c0,1.5,1.1,2.6,2.3,2.6h36.6v-14.1H36.8z"/>
		<rect x="37.9" y="396.8" class="st9" width="3.3" height="8.9"/>
		<rect x="45.3" y="396.8" class="st9" width="5" height="8.9"/>
		<rect x="56.2" y="396.8" class="st9" width="6.7" height="8.9"/>
		<rect x="73.4" y="396.8" class="st9" width="0.1" height="8.9"/>
		<rect x="70.2" y="396.8" class="st9" width="3.2" height="8.9"/>
		<rect x="105.6" y="396.8" class="st10" width="3.3" height="8.9"/>
		<rect x="96.5" y="396.8" class="st10" width="5" height="8.9"/>
		<rect x="84" y="396.8" class="st10" width="6.7" height="8.9"/>
		<rect x="73.5" y="396.8" class="st10" width="3.2" height="8.9"/>
	</g>
	<g>
		<path class="st5" d="M107.2,409.4H70.5v14.2h36.7c1.3,0,2.3-1.2,2.3-2.6v-8.8C109.5,410.5,108.4,409.4,107.2,409.4z"/>
		<path class="st6" d="M33.9,409.4c-1.3,0-2.3,1.2-2.3,2.6v8.8c0,1.5,1.1,2.6,2.3,2.6h36.6v-14.2L33.9,409.4L33.9,409.4z"/>
		<rect x="35.1" y="414.6" class="st9" width="3.3" height="8.9"/>
		<rect x="42.4" y="414.6" class="st9" width="5" height="8.9"/>
		<rect x="53.3" y="414.6" class="st9" width="6.7" height="8.9"/>
		<rect x="70.5" y="414.6" class="st9" width="0.1" height="8.9"/>
		<rect x="67.3" y="414.6" class="st9" width="3.2" height="8.9"/>
		<rect x="102.7" y="414.6" class="st10" width="3.3" height="8.9"/>
		<rect x="93.7" y="414.6" class="st10" width="5" height="8.9"/>
		<rect x="81.1" y="414.6" class="st10" width="6.7" height="8.9"/>
		<rect x="70.6" y="414.6" class="st10" width="3.2" height="8.9"/>
	</g>
	<g>
		<path class="st5" d="M111.3,427.1H74.7v14.2h36.7c1.3,0,2.3-1.2,2.3-2.6v-8.8C113.7,428.3,112.6,427.1,111.3,427.1z"/>
		<path class="st6" d="M38.1,427.1c-1.3,0-2.3,1.2-2.3,2.6v8.9c0,1.5,1.1,2.6,2.3,2.6h36.6v-14.2H38.1z"/>
		<rect x="39.2" y="432.4" class="st9" width="3.3" height="8.9"/>
		<rect x="46.5" y="432.4" class="st9" width="5" height="8.9"/>
		<rect x="57.4" y="432.4" class="st9" width="6.7" height="8.9"/>
		<rect x="74.7" y="432.4" class="st9" width="0.1" height="8.9"/>
		<rect x="71.5" y="432.4" class="st9" width="3.2" height="8.9"/>
		<rect x="106.8" y="432.4" class="st10" width="3.3" height="8.9"/>
		<rect x="97.9" y="432.4" class="st10" width="5" height="8.9"/>
		<rect x="85.3" y="432.4" class="st10" width="6.7" height="8.9"/>
		<rect x="74.7" y="432.4" class="st10" width="3.2" height="8.9"/>
	</g>
	<g>
		<path class="st5" d="M108.4,444.9H71.8v14.2h36.7c1.3,0,2.3-1.2,2.3-2.6v-8.8C110.8,446.1,109.7,444.9,108.4,444.9z"/>
		<path class="st6" d="M35.2,444.9c-1.3,0-2.3,1.2-2.3,2.6v8.8c0,1.5,1.1,2.6,2.3,2.6h36.6v-14.2L35.2,444.9L35.2,444.9z"/>
		<rect x="36.3" y="450.2" class="st9" width="3.3" height="8.9"/>
		<rect x="43.7" y="450.2" class="st9" width="5" height="8.9"/>
		<rect x="54.5" y="450.2" class="st9" width="6.7" height="8.9"/>
		<rect x="71.8" y="450.2" class="st9" width="0.1" height="8.9"/>
		<rect x="68.6" y="450.2" class="st9" width="3.2" height="8.9"/>
		<rect x="103.9" y="450.2" class="st10" width="3.3" height="8.9"/>
		<rect x="94.9" y="450.2" class="st10" width="5" height="8.9"/>
		<rect x="82.4" y="450.2" class="st10" width="6.7" height="8.9"/>
		<rect x="71.8" y="450.2" class="st10" width="3.2" height="8.9"/>
	</g>
</g>
<g>
	<path class="st11" d="M236.4,355.8h-36.7V370h36.7c1.3,0,2.3-1.2,2.3-2.6v-8.8C238.7,357.1,237.7,355.8,236.4,355.8z"/>
	<path class="st12" d="M163.1,355.8c-1.3,0-2.3,1.2-2.3,2.6v8.8c0,1.5,1.1,2.6,2.3,2.6h36.6v-14.1H163.1z"/>
	<rect x="164.3" y="361.1" class="st9" width="3.3" height="8.9"/>
	<rect x="171.6" y="361.1" class="st9" width="5" height="8.9"/>
	<rect x="182.5" y="361.1" class="st9" width="6.7" height="8.9"/>
	<rect x="199.7" y="361.1" class="st9" width="0.1" height="8.9"/>
	<rect x="196.6" y="361.1" class="st9" width="3.2" height="8.9"/>
	<rect x="231.9" y="361.1" class="st10" width="3.3" height="8.9"/>
	<rect x="222.9" y="361.1" class="st10" width="5" height="8.9"/>
	<rect x="210.3" y="361.1" class="st10" width="6.7" height="8.9"/>
	<rect x="199.8" y="361.1" class="st10" width="3.2" height="8.9"/>
</g>
<g>
	<path class="st11" d="M238,373.7h-36.7v14.1H238c1.3,0,2.3-1.2,2.3-2.6v-8.8C240.4,374.9,239.3,373.7,238,373.7z"/>
	<path class="st12" d="M164.8,373.7c-1.3,0-2.3,1.2-2.3,2.6v8.8c0,1.5,1.1,2.6,2.3,2.6h36.6v-14.1H164.8z"/>
	<rect x="165.9" y="379" class="st9" width="3.3" height="8.9"/>
	<rect x="173.3" y="379" class="st9" width="5" height="8.9"/>
	<rect x="184.1" y="379" class="st9" width="6.7" height="8.9"/>
	<rect x="201.4" y="379" class="st9" width="0.1" height="8.9"/>
	<rect x="198.2" y="379" class="st9" width="3.2" height="8.9"/>
	<rect x="233.5" y="379" class="st10" width="3.3" height="8.9"/>
	<rect x="224.5" y="379" class="st10" width="5" height="8.9"/>
	<rect x="212" y="379" class="st10" width="6.7" height="8.9"/>
	<rect x="201.4" y="379" class="st10" width="3.2" height="8.9"/>
</g>
<g>
	<path class="st11" d="M238.4,391.5h-36.7v14.2h36.7c1.3,0,2.3-1.2,2.3-2.6v-8.9C240.7,392.7,239.7,391.5,238.4,391.5z"/>
	<path class="st12" d="M165.2,391.5c-1.3,0-2.3,1.2-2.3,2.6v8.8c0,1.5,1.1,2.6,2.3,2.6h36.6v-14.1H165.2z"/>
	<rect x="166.4" y="396.8" class="st9" width="3.3" height="8.9"/>
	<rect x="173.7" y="396.8" class="st9" width="5" height="8.9"/>
	<rect x="184.5" y="396.8" class="st9" width="6.7" height="8.9"/>
	<rect x="201.8" y="396.8" class="st9" width="0.1" height="8.9"/>
	<rect x="198.6" y="396.8" class="st9" width="3.2" height="8.9"/>
	<rect x="234" y="396.8" class="st10" width="3.3" height="8.9"/>
	<rect x="225" y="396.8" class="st10" width="5" height="8.9"/>
	<rect x="212.4" y="396.8" class="st10" width="6.7" height="8.9"/>
	<rect x="201.8" y="396.8" class="st10" width="3.2" height="8.9"/>
</g>
<g>
	<path class="st11" d="M236.4,409.4h-36.7v14.2h36.7c1.3,0,2.3-1.2,2.3-2.6v-8.8C238.8,410.5,237.7,409.4,236.4,409.4z"/>
	<path class="st12" d="M163.2,409.4c-1.3,0-2.3,1.2-2.3,2.6v8.8c0,1.5,1.1,2.6,2.3,2.6h36.6v-14.2L163.2,409.4L163.2,409.4z"/>
	<rect x="164.3" y="414.6" class="st9" width="3.3" height="8.9"/>
	<rect x="171.7" y="414.6" class="st9" width="5" height="8.9"/>
	<rect x="182.5" y="414.6" class="st9" width="6.7" height="8.9"/>
	<rect x="199.8" y="414.6" class="st9" width="0.1" height="8.9"/>
	<rect x="196.6" y="414.6" class="st9" width="3.2" height="8.9"/>
	<rect x="231.9" y="414.6" class="st10" width="3.3" height="8.9"/>
	<rect x="223" y="414.6" class="st10" width="5" height="8.9"/>
	<rect x="210.4" y="414.6" class="st10" width="6.7" height="8.9"/>
	<rect x="199.8" y="414.6" class="st10" width="3.2" height="8.9"/>
</g>
<g>
	<path class="st11" d="M234.1,427.2h-36.7v14.2h36.7c1.3,0,2.3-1.2,2.3-2.6v-8.8C236.3,428.4,235.3,427.2,234.1,427.2z"/>
	<path class="st12" d="M160.8,427.2c-1.3,0-2.3,1.2-2.3,2.6v8.8c0,1.5,1.1,2.6,2.3,2.6h36.6v-14.2L160.8,427.2L160.8,427.2z"/>
	<rect x="162" y="432.4" class="st9" width="3.3" height="8.9"/>
	<rect x="169.3" y="432.4" class="st9" width="5" height="8.9"/>
	<rect x="180.2" y="432.4" class="st9" width="6.7" height="8.9"/>
	<rect x="197.4" y="432.4" class="st9" width="0.1" height="8.9"/>
	<rect x="194.2" y="432.4" class="st9" width="3.2" height="8.9"/>
	<rect x="229.6" y="432.4" class="st10" width="3.3" height="8.9"/>
	<rect x="220.5" y="432.4" class="st10" width="5" height="8.9"/>
	<rect x="208" y="432.4" class="st10" width="6.7" height="8.9"/>
	<rect x="197.5" y="432.4" class="st10" width="3.2" height="8.9"/>
</g>
<g>
	<path class="st11" d="M235.7,445H199v14.2h36.7c1.3,0,2.3-1.2,2.3-2.6v-8.8C238,446.2,237,445,235.7,445z"/>
	<path class="st12" d="M162.4,445c-1.3,0-2.3,1.2-2.3,2.6v8.8c0,1.5,1.1,2.6,2.3,2.6H199V445L162.4,445L162.4,445z"/>
	<rect x="163.6" y="450.3" class="st9" width="3.3" height="8.9"/>
	<rect x="171" y="450.3" class="st9" width="5" height="8.9"/>
	<rect x="181.8" y="450.3" class="st9" width="6.7" height="8.9"/>
	<rect x="199" y="450.3" class="st9" width="0.1" height="8.9"/>
	<rect x="195.9" y="450.3" class="st9" width="3.2" height="8.9"/>
	<rect x="231.2" y="450.3" class="st10" width="3.3" height="8.9"/>
	<rect x="222.2" y="450.3" class="st10" width="5" height="8.9"/>
	<rect x="209.7" y="450.3" class="st10" width="6.7" height="8.9"/>
	<rect x="199.1" y="450.3" class="st10" width="3.2" height="8.9"/>
</g>
</svg>
