<?xml version="1.0" encoding="utf-8"?>
<!-- Generator: Adobe Illustrator 25.4.1, SVG Export Plug-In . SVG Version: 6.00 Build 0)  -->
<svg version="1.1" id="Layer_1" xmlns="http://www.w3.org/2000/svg" xmlns:xlink="http://www.w3.org/1999/xlink" x="0px" y="0px"
	 viewBox="0 0 512 512" style="enable-background:new 0 0 512 512;" xml:space="preserve">
<style type="text/css">
	.st0{fill:#CDD4D5;}
	.st1{fill:#9BAAAB;}
	.st2{fill:#E6EAEA;}
	.st3{fill:none;stroke:#CDD4D5;stroke-width:10;stroke-linejoin:round;stroke-miterlimit:10;}
	.st4{fill:none;stroke:#E6EAEA;stroke-width:10;stroke-linejoin:round;stroke-miterlimit:10;}
	.st5{fill:#FF8C29;}
	.st6{fill:#FD6A33;}
	.st7{fill:#FFD1A9;}
	.st8{fill:#FFFFFF;}
	.st9{fill:#E7E9E9;}
	.st10{fill:#9EA8AA;}
	.st11{fill:#F0353D;}
	.st12{fill:#365558;}
	.st13{fill:#0295AA;}
	.st14{fill:none;stroke:#CDD4D5;stroke-width:1.8451;stroke-linejoin:round;stroke-miterlimit:10;}
	.st15{fill:none;stroke:#E6EAEA;stroke-width:1.8451;stroke-linejoin:round;stroke-miterlimit:10;}
	.st16{fill:#687F82;}
	.st17{fill:#4ACFD9;}
</style>
<g>
	<path class="st0" d="M473.2,414.7H258.6V447h214.6c7.5,0,13.6-6.1,13.6-13.6v-5.1C486.7,420.8,480.6,414.7,473.2,414.7z"/>
	<path class="st1" d="M40.6,414.7c-7.5,0-13.6,6.1-13.6,13.6v5.1c0,7.5,6.1,13.6,13.6,13.6h218v-32.3L40.6,414.7L40.6,414.7z"/>
	<path class="st0" d="M503.7,119.7L301.6,19.4C289.8,12.5,274.2,9,258.6,9v135.8h238.3C510.8,144.8,517.3,128.5,503.7,119.7z"/>
	<path class="st1" d="M215.6,19.4L9,119.7c-12.6,7.3-9.8,25.1,6.8,25.1h242.7V9C243,9,227.4,12.5,215.6,19.4z"/>
	<path class="st0" d="M496.9,459.5H258.6V503H497c7.5,0,13.6-6.1,13.6-13.6v-16.3C510.5,465.8,504.4,459.5,496.9,459.5z"/>
	<path class="st1" d="M14.5,459.5c-7.5,0-13.6,6.1-13.6,13.6v16.3c0,7.5,6.1,13.6,13.6,13.6h244v-43.5H14.5z"/>
	<path class="st0" d="M473.2,159.6H258.6v36.2h214.6c7.5,0,13.6-6.1,13.6-13.6v-9.1C486.7,165.7,480.6,159.6,473.2,159.6z"/>
	<path class="st1" d="M40.6,159.6c-7.5,0-13.6,6.1-13.6,13.6v9.1c0,7.5,6.1,13.6,13.6,13.6h218v-36.2L40.6,159.6L40.6,159.6z"/>
	<circle class="st0" cx="204.3" cy="178" r="12.5"/>
	<circle class="st0" cx="102.3" cy="178" r="12.5"/>
	
		<ellipse transform="matrix(0.1602 -0.9871 0.9871 0.1602 169.6757 554.8298)" class="st2" cx="410.9" cy="177.7" rx="12.5" ry="12.5"/>
	<circle class="st2" cx="308.8" cy="177.7" r="12.5"/>
	<polyline class="st3" points="204.3,178 204.3,114.3 258.6,114.3 	"/>
	<polyline class="st3" points="102.3,178 102.3,114.3 166.5,114.3 166.5,81 258.6,81 	"/>
	<polyline class="st4" points="309.5,178 309.5,114.3 255.3,114.3 	"/>
	<polyline class="st4" points="411.6,178 411.6,114.3 347.3,114.3 347.3,81 255.3,81 	"/>
	<path class="st5" d="M258.6,26.4v109.3c30.2,0,54.6-24.5,54.6-54.6S288.7,26.4,258.6,26.4z"/>
	<path class="st6" d="M203.9,81c0,30.2,24.5,54.6,54.6,54.6V26.3C228.4,26.4,203.9,50.8,203.9,81z"/>
	<path class="st7" d="M350.9,196.8"/>
	<g>
		<path class="st8" d="M242.8,92.5l-4.7,9.8c-0.6,1.4-1,2.4-1,3.2c0,1.5,1.1,2.5,3.4,3.1v1.6h-23.1v-1.6c1.4-0.3,2.4-0.7,3.1-1.4
			c0.7-0.7,1.5-2,2.5-4l25.6-53.6c0.8-1.7,1.2-3.1,1.2-4.1c0-1.6-1-2.7-3-3.4v-1.6h24.7v1.6c-2,0.6-3,1.6-3,3c0,1,0.3,2.1,1,3.4
			l26.6,53.7c1.1,2.3,2.1,3.8,3,4.7c0.9,0.8,2,1.4,3.4,1.7v1.6h-25.7v-1.6c2.3-0.4,3.4-1.4,3.4-3.2c0-0.7-0.3-1.8-1-3.2l-4.8-9.8
			 M274.5,92.5l-15.7-34.4l-16,34.4"/>
	</g>
	<path class="st8" d="M294.3,87.7h-71.6c-1.4,0-2.5,1.1-2.5,2.5v1c0,1.4,1.1,2.5,2.5,2.5h71.6c1.4,0,2.5-1.1,2.5-2.5v-1
		C296.8,88.9,295.6,87.7,294.3,87.7z"/>
	<path class="st8" d="M290.6,79.2h-64c-1.1,0-2,0.9-2,2v1c0,1.1,0.9,2,2,2h64c1.1,0,2-0.9,2-2v-1C292.6,80.1,291.7,79.2,290.6,79.2z
		"/>
</g>
<polyline class="st8" points="258.6,222.2 297.9,176.4 418.3,222.9 378.4,268.9 "/>
<path class="st9" d="M347,185l-6.6,5.9l-5.2-5.8l4.2-3.8c1.5-1.3,1.6-3.6,0.3-5.1l-12.3-13.8l5.3-4.7l14.9,16.7
	C350.3,177.6,350.1,182.3,347,185z"/>
<path class="st10" d="M332.7,157.8l-5.3,4.7l-13.1-14.7c-1.3-1.5-3.6-1.6-5.1-0.3l-4.2,3.8l-5.2-5.8l6.6-5.9
	c3.1-2.7,7.8-2.5,10.5,0.6L332.7,157.8z"/>
<path class="st10" d="M320.1,169l-101.5,90.7l-56-62.7c-3.8-4.3-3.5-10.9,0.8-14.7l88.2-78.8c3.1-2.7,7.7-2.5,10.5,0.6L320.1,169z"
	/>
<path class="st9" d="M378,245l-88.2,78.8c-4.3,3.8-10.9,3.5-14.7-0.8l-56.5-63.2L320.1,169l58.5,65.5
	C381.3,237.6,381.1,242.2,378,245z"/>
<path class="st6" d="M253.7,228.4l-31.8-36.1c-5.9-6.6-6.9-16.2-2.6-23.9l31-55.2c1.1-2,2.6-3.8,4.2-5.3l4.1-3.7
	c1.1-1,2.7-0.9,3.7,0.2l37,41.4l-5.4,4.8c-3.1,2.7-3.3,7.5-0.6,10.5l15.7,17.6l-46.4,41.5L253.7,228.4z"/>
<path class="st5" d="M376.9,236.5l-1.9,1.7c-1.9,1.7-4,3-6.4,3.9l-62.7,24.1c-8,3.1-17.1,0.9-22.8-5.5l-29.3-32.2l9-8.1l46.4-41.5
	l14.9,16.7c2.7,3.1,7.5,3.3,10.5,0.6l5.4-4.8l37,41.4C378,233.8,377.9,235.5,376.9,236.5z"/>
<polygon class="st0" points="258.6,370.4 378.4,416.6 378.4,268.5 258.6,222.2 "/>
<polygon class="st1" points="258.6,370.4 138.9,416.6 138.9,268.5 258.6,222.2 "/>
<polyline class="st0" points="138.9,268.9 92,222.6 212.1,175.7 258.6,222.6 "/>
<path class="st11" d="M437.7,121.7l-24.2,10.1c-3.2,1.3-6.9-0.2-8.3-3.4c-1.3-3.2,0.2-6.9,3.4-8.3l24.1-10.1
	c3.2-1.3,6.9,0.2,8.3,3.4C442.4,116.7,441,120.3,437.7,121.7z"/>
<path class="st11" d="M436.8,163.2c-1.5,0.6-3.2,0.6-4.9,0l-21.8-9c-3.2-1.3-4.7-5-3.4-8.3c1.3-3.2,5-4.7,8.3-3.4l21.8,9
	c3.2,1.3,4.7,5,3.4,8.3C439.7,161.5,438.4,162.7,436.8,163.2z"/>
<path class="st11" d="M398.7,114.8c-1.5,0.6-3.2,0.6-4.9,0c-3.2-1.3-4.7-5-3.4-8.3l9-21.8c1.3-3.2,5-4.7,8.3-3.4
	c3.2,1.3,4.7,5,3.4,8.3l-9,21.8C401.4,112.9,400.3,114.1,398.7,114.8z"/>
<g>
	<path id="SVGCleanerId_0_7_" class="st1" d="M187.9,295.6l-33.1-12l36,52.6v-36.3C190.9,298.2,189.6,296.2,187.9,295.6z"/>
</g>
<path class="st9" d="M317.9,212.2l-6.6,5.9l-5.2-5.8l4.2-3.8c1.5-1.3,1.6-3.6,0.3-5.1l-12.3-13.8l5.3-4.7l14.9,16.7
	C321.2,204.8,321,209.5,317.9,212.2z"/>
<path class="st10" d="M303.6,185l-5.3,4.7l-13.1-14.7c-1.3-1.5-3.6-1.6-5.1-0.3l-4.2,3.8l-5.2-5.8l6.6-5.9c3.1-2.7,7.8-2.5,10.5,0.6
	L303.6,185z"/>
<path class="st10" d="M291,196.2l-101.5,90.7l-56-62.7c-3.8-4.3-3.5-10.9,0.8-14.7l88.2-78.8c3.1-2.7,7.7-2.5,10.5,0.6L291,196.2z"
	/>
<path class="st9" d="M348.9,272.2L260.7,351c-4.3,3.8-10.9,3.5-14.7-0.8l-56.5-63.2L291,196.2l58.5,65.5
	C352.2,264.8,352,269.4,348.9,272.2z"/>
<path class="st6" d="M224.6,255.6l-31.8-36.1c-5.9-6.6-6.9-16.2-2.6-23.9l31-55.2c1.1-2,2.6-3.8,4.2-5.3l4.1-3.7
	c1.1-1,2.7-0.9,3.7,0.2l37,41.4l-5.4,4.8c-3.1,2.7-3.3,7.5-0.6,10.5l15.7,17.6l-46.4,41.5L224.6,255.6z"/>
<path class="st5" d="M347.7,263.7l-1.9,1.7c-1.9,1.7-4,3-6.4,3.9l-62.7,24.1c-8,3.1-17.1,0.9-22.8-5.5l-29.3-32.2l9-8.1l46.4-41.5
	l14.9,16.7c2.7,3.1,7.5,3.3,10.5,0.6l5.4-4.8l37,41.4C348.9,261,348.8,262.7,347.7,263.7z"/>
<polygon class="st5" points="378.4,417.1 258.6,463.4 258.6,315.2 378.4,268.9 "/>
<polygon class="st6" points="138.9,417.1 258.6,463.4 258.6,315.2 138.9,268.9 "/>
<polyline class="st7" points="258.6,315.6 297.7,275.9 417.8,228.9 378.4,269.3 "/>
<polyline class="st5" points="138.9,268.8 92.2,229.6 212.6,276.1 258.6,315.6 "/>
<polygon class="st12" points="138.9,402.3 258.6,448.5 258.6,426 138.9,379.8 "/>
<polygon class="st13" points="378.4,402.3 258.6,448.5 258.6,426 378.4,379.8 "/>
<g>
	<path class="st0" d="M363.7,360.8l-41.9,14.5l0.3,5.6l42-14.7"/>
	<path class="st1" d="M275.3,394.8c0,1.4,1.3,2,2.9,1.5l44.1-15.4l-0.3-5.6L278,390.5l0,0c-1.6,0.5-2.8,2-2.7,3.4"/>
	<path class="st0" d="M365.8,310.2l-39.2-3.7c-2.3-0.4-5.3,0-8.3,1l1.2,22.1l45.4-15"/>
	<path class="st1" d="M271.7,345.5l47.8-15.8l-1.2-22.1c-3,1-6,2.5-8.2,4.3l-39.9,29.8"/>
	<path class="st0" d="M368.9,366.8l-46.6,16.3l0.4,7.7l46.8-16.5"/>
	<path class="st1" d="M273,408.3l49.6-17.5l-0.4-7.7l-49.4,17.3"/>
	<path class="st0" d="M360.6,318.6l-41,13.6l0.3,6l41.1-13.7"/>
	<path class="st1" d="M274.1,351.1c0,1.3,1.3,1.9,2.8,1.4l43.1-14.4l-0.3-6l-42.9,14.2l0,0c-1.5,0.5-2.7,1.9-2.7,3.2"/>
	<path class="st0" d="M309.1,336.6c1.3-0.4,2.5,0.1,2.5,1.3c0.1,1.1-1,2.4-2.3,2.9c-1.3,0.4-2.5-0.1-2.5-1.3
		C306.7,338.4,307.8,337.1,309.1,336.6z"/>
	<path class="st0" d="M289,343.3c1.4-0.5,2.5,0.1,2.5,1.3c0,1.2-1,2.5-2.4,2.9c-1.4,0.5-2.5-0.1-2.5-1.3
		C286.6,345,287.7,343.7,289,343.3z"/>
	<path class="st2" d="M329.4,329.9c1.3-0.4,2.4,0.1,2.5,1.3c0.1,1.1-1,2.4-2.3,2.8c-1.3,0.4-2.5-0.1-2.5-1.3
		C327,331.6,328.1,330.3,329.4,329.9z"/>
	<polyline class="st14" points="309.2,338.7 308.7,328.1 319.2,324.6 	"/>
	<polyline class="st14" points="289.1,345.4 288.7,334.7 301.3,330.5 301.1,325 318.9,319.2 	"/>
	<polyline class="st15" points="329.6,331.9 329,321.4 318.6,324.9 	"/>
	<polyline class="st15" points="348.4,315 336.3,319.1 335.9,313.7 318.3,319.4 	"/>
	<path class="st5" d="M318.5,310.3l0.9,17.8c5.8-1.9,10.3-7.5,10-12.3C329.1,311,324.2,308.5,318.5,310.3z"/>
	<path class="st6" d="M308.3,322.6c0.2,5,5.2,7.4,11,5.5l-0.9-17.8C312.7,312.2,308.1,317.7,308.3,322.6z"/>
	<path class="st7" d="M337.8,332.4"/>
	<g>
		<path class="st8" d="M316,322.1l-0.9,1.9c-0.1,0.3-0.2,0.5-0.1,0.6c0,0.2,0.3,0.3,0.7,0.3l0,0.2l-4.5,1.5l0-0.2
			c0.3-0.1,0.5-0.3,0.6-0.4c0.1-0.1,0.3-0.4,0.4-0.8l4.5-10.4c0.2-0.4,0.2-0.6,0.2-0.8c0-0.2-0.2-0.4-0.6-0.4l0-0.2l4.8-1.5l0,0.2
			c-0.4,0.2-0.6,0.4-0.6,0.7c0,0.1,0.1,0.3,0.2,0.5l5.6,7c0.3,0.3,0.4,0.5,0.6,0.6c0.2,0.1,0.4,0.1,0.7,0.1l0,0.2l-4.9,1.6l0-0.2
			c0.5-0.2,0.6-0.5,0.6-0.8c0-0.1-0.1-0.3-0.2-0.5l-1-1.3 M322.1,320.1l-3.3-4.6l-2.8,6.6"/>
	</g>
	<path class="st8" d="M325.9,318l-13.8,4.5c-0.3,0.1-0.5,0.4-0.5,0.6l0,0.1c0,0.2,0.3,0.3,0.5,0.2l13.8-4.5c0.3-0.1,0.5-0.3,0.4-0.5
		l0-0.1C326.3,318.1,326.1,318,325.9,318z"/>
	<path class="st8" d="M325,316.9l-12.3,4c-0.2,0.1-0.4,0.3-0.4,0.5l0,0.1c0,0.2,0.2,0.3,0.4,0.2l12.3-4c0.2-0.1,0.4-0.3,0.4-0.5
		l0-0.1C325.4,316.9,325.3,316.8,325,316.9z"/>
	<g>
		<g>
			<path class="st5" d="M309.5,343.6l-13.7,4.6l0.2,4.5l13.7-4.6c0.5-0.2,0.9-0.7,0.9-1.2l-0.1-2.8
				C310.4,343.8,310,343.5,309.5,343.6z"/>
			<path class="st6" d="M282.1,352.8c-0.5,0.2-0.9,0.7-0.9,1.2l0.1,2.8c0,0.5,0.5,0.7,0.9,0.6l13.8-4.6l-0.2-4.5L282.1,352.8
				L282.1,352.8z"/>
			<polygon class="st12" points="282.6,354.4 283.8,353.9 283.9,356.8 282.7,357.2 			"/>
			<polygon class="st12" points="285.3,353.4 287.2,352.8 287.3,355.6 285.4,356.3 			"/>
			<polygon class="st12" points="289.5,352.1 292,351.2 292.1,354 289.6,354.9 			"/>
			<rect x="296" y="349.9" class="st12" width="0" height="2.8"/>
			<polygon class="st12" points="294.8,350.3 296,349.9 296.1,352.7 294.9,353.1 			"/>
			<polygon class="st16" points="307.9,345.9 309.2,345.5 309.3,348.3 308,348.7 			"/>
			<polygon class="st16" points="304.6,347 306.4,346.4 306.6,349.2 304.7,349.8 			"/>
			<polygon class="st16" points="299.9,348.6 302.4,347.7 302.5,350.5 300,351.4 			"/>
			<polygon class="st16" points="296,349.9 297.2,349.5 297.3,352.3 296.1,352.7 			"/>
		</g>
		<g>
			<path class="st5" d="M311.4,348.8l-13.7,4.6l0.2,4.5l13.7-4.6c0.5-0.2,0.9-0.7,0.9-1.2l-0.1-2.8
				C312.3,348.9,311.9,348.6,311.4,348.8z"/>
			<path class="st6" d="M284,358c-0.5,0.2-0.9,0.7-0.9,1.2l0.1,2.9c0,0.5,0.5,0.7,0.9,0.6l13.8-4.7l-0.2-4.6L284,358z"/>
			<polygon class="st12" points="284.4,359.6 285.7,359.2 285.8,362 284.5,362.5 			"/>
			<polygon class="st12" points="287.2,358.7 289.1,358 289.2,360.9 287.3,361.5 			"/>
			<polygon class="st12" points="291.3,357.3 293.8,356.4 293.9,359.3 291.4,360.1 			"/>
			<rect x="297.9" y="355.1" class="st12" width="0" height="2.8"/>
			<polygon class="st12" points="296.6,355.5 297.8,355.1 297.9,357.9 296.7,358.3 			"/>
			<polygon class="st16" points="309.8,351 311.1,350.6 311.2,353.4 310,353.9 			"/>
			<polygon class="st16" points="306.4,352.2 308.3,351.6 308.4,354.4 306.6,355 			"/>
			<polygon class="st16" points="301.8,353.8 304.3,352.9 304.4,355.7 301.9,356.6 			"/>
			<polygon class="st16" points="297.8,355.1 299,354.7 299.1,357.5 297.9,357.9 			"/>
		</g>
		<g>
			<path class="st5" d="M310.9,354.8l-13.7,4.6l0.2,4.6l13.8-4.7c0.5-0.2,0.9-0.7,0.9-1.2l-0.1-2.8
				C311.7,354.8,311.3,354.6,310.9,354.8z"/>
			<path class="st6" d="M283.3,364.1c-0.5,0.2-0.9,0.7-0.9,1.2l0.1,2.9c0,0.5,0.5,0.7,0.9,0.6l13.9-4.7l-0.2-4.6L283.3,364.1
				L283.3,364.1z"/>
			<polygon class="st12" points="283.8,365.7 285.1,365.2 285.2,368.1 283.9,368.5 			"/>
			<polygon class="st12" points="286.6,364.7 288.5,364.1 288.6,366.9 286.7,367.6 			"/>
			<polygon class="st12" points="290.7,363.3 293.3,362.5 293.4,365.3 290.8,366.2 			"/>
			<rect x="297.2" y="361.1" class="st12" width="0" height="2.9"/>
			<polygon class="st12" points="296,361.5 297.2,361.1 297.3,364 296.1,364.4 			"/>
			<polygon class="st16" points="309.3,357 310.5,356.6 310.7,359.4 309.4,359.9 			"/>
			<polygon class="st16" points="305.9,358.2 307.7,357.6 307.8,360.4 306,361 			"/>
			<polygon class="st16" points="301.2,359.8 303.7,358.9 303.8,361.8 301.3,362.6 			"/>
			<polygon class="st16" points="297.3,361.1 298.5,360.7 298.6,363.5 297.4,364 			"/>
		</g>
		<g>
			<path class="st5" d="M310.1,360.9l-13.8,4.7l0.2,4.6l13.8-4.7c0.5-0.2,0.9-0.7,0.9-1.2l-0.1-2.9
				C310.9,361,310.5,360.7,310.1,360.9z"/>
			<path class="st6" d="M282.4,370.3c-0.5,0.2-0.9,0.7-0.9,1.2l0.1,2.9c0,0.5,0.5,0.8,0.9,0.6l13.9-4.8l-0.2-4.6L282.4,370.3
				L282.4,370.3z"/>
			<polygon class="st12" points="282.9,371.9 284.2,371.4 284.2,374.3 283,374.8 			"/>
			<polygon class="st12" points="285.6,370.9 287.5,370.3 287.6,373.2 285.7,373.8 			"/>
			<polygon class="st12" points="289.8,369.5 292.3,368.6 292.4,371.5 289.9,372.4 			"/>
			<rect x="296.4" y="367.3" class="st12" width="0" height="2.9"/>
			<polygon class="st12" points="295.1,367.7 296.3,367.3 296.4,370.2 295.2,370.6 			"/>
			<polygon class="st16" points="308.5,363.1 309.7,362.7 309.9,365.6 308.6,366 			"/>
			<polygon class="st16" points="305.1,364.3 307,363.7 307.1,366.5 305.2,367.2 			"/>
			<polygon class="st16" points="300.3,365.9 302.9,365 303,367.9 300.4,368.8 			"/>
			<polygon class="st16" points="296.3,367.3 297.5,366.9 297.7,369.7 296.4,370.2 			"/>
		</g>
		<g>
			<path class="st5" d="M311.9,366.1l-13.8,4.7l0.2,4.6l13.9-4.8c0.5-0.2,0.9-0.7,0.9-1.2l-0.1-2.8
				C312.8,366.2,312.4,365.9,311.9,366.1z"/>
			<path class="st6" d="M284.2,375.6c-0.5,0.2-0.9,0.7-0.9,1.2l0.1,2.9c0,0.5,0.5,0.8,1,0.6l13.9-4.8l-0.2-4.6L284.2,375.6
				L284.2,375.6z"/>
			<polygon class="st12" points="284.7,377.2 285.9,376.7 286,379.6 284.7,380.1 			"/>
			<polygon class="st12" points="287.4,376.2 289.3,375.6 289.4,378.5 287.5,379.1 			"/>
			<polygon class="st12" points="291.6,374.8 294.1,373.9 294.2,376.8 291.7,377.7 			"/>
			<rect x="298.2" y="372.5" class="st12" width="0" height="2.9"/>
			<polygon class="st12" points="296.9,373 298.1,372.5 298.3,375.4 297,375.9 			"/>
			<polygon class="st16" points="310.3,368.4 311.6,367.9 311.7,370.8 310.4,371.3 			"/>
			<polygon class="st16" points="306.9,369.5 308.8,368.9 308.9,371.8 307,372.4 			"/>
			<polygon class="st16" points="302.1,371.2 304.7,370.3 304.8,373.2 302.3,374.1 			"/>
			<polygon class="st16" points="298.1,372.5 299.4,372.1 299.5,375 298.3,375.4 			"/>
		</g>
		<g>
			<path class="st5" d="M311.1,372.3l-13.9,4.8l0.2,4.7l13.9-4.8c0.5-0.2,0.9-0.7,0.9-1.2l-0.1-2.9
				C311.9,372.4,311.6,372.1,311.1,372.3z"/>
			<path class="st6" d="M283.2,381.9c-0.5,0.2-0.9,0.7-0.9,1.2l0.1,2.9c0,0.5,0.5,0.8,1,0.6l14-4.8l-0.2-4.7L283.2,381.9
				L283.2,381.9z"/>
			<polygon class="st12" points="283.7,383.5 285,383 285.1,385.9 283.8,386.4 			"/>
			<polygon class="st12" points="286.6,382.5 288.5,381.8 288.6,384.7 286.7,385.4 			"/>
			<polygon class="st12" points="290.7,381.1 293.2,380.2 293.4,383.1 290.8,384 			"/>
			<rect x="297.3" y="378.8" class="st12" width="0" height="2.9"/>
			<polygon class="st12" points="296.1,379.2 297.3,378.8 297.4,381.7 296.2,382.1 			"/>
			<polygon class="st16" points="309.5,374.6 310.7,374.1 310.9,377 309.6,377.5 			"/>
			<polygon class="st16" points="306.1,375.7 308,375.1 308.1,378 306.2,378.6 			"/>
			<polygon class="st16" points="301.3,377.4 303.8,376.5 304,379.4 301.4,380.3 			"/>
			<polygon class="st16" points="297.3,378.8 298.5,378.4 298.6,381.3 297.4,381.7 			"/>
		</g>
	</g>
	<path class="st17" d="M356.3,328l-13.2,4.4l0.3,4.4l13.2-4.4"/>
	<path class="st13" d="M329.8,336.8c-0.5,0.2-0.9,0.7-0.8,1.1l0.2,2.8c0,0.5,0.5,0.7,0.9,0.6l13.3-4.5l-0.3-4.4L329.8,336.8
		L329.8,336.8z"/>
	<polygon class="st12" points="330.4,338.4 331.6,338 331.7,340.7 330.5,341.1 	"/>
	<polygon class="st12" points="333,337.5 334.9,336.9 335,339.6 333.2,340.2 	"/>
	<polygon class="st12" points="337,336.1 339.5,335.3 339.6,338.1 337.2,338.9 	"/>
	<rect x="343.4" y="334" class="st12" width="0" height="2.8"/>
	<polygon class="st12" points="342.1,334.4 343.3,334 343.5,336.8 342.3,337.2 	"/>
	<polygon class="st16" points="343.3,334 344.5,333.7 344.6,336.4 343.5,336.8 	"/>
	<path class="st17" d="M357.4,333.4l-13.2,4.5l0.3,4.4l13.3-4.5"/>
	<path class="st13" d="M330.8,342.3c-0.5,0.2-0.9,0.7-0.8,1.2l0.2,2.8c0,0.5,0.5,0.7,0.9,0.6l13.3-4.5l-0.3-4.5L330.8,342.3z"/>
	<polygon class="st12" points="331.3,343.8 332.6,343.4 332.7,346.2 331.5,346.6 	"/>
	<polygon class="st12" points="334,342.9 335.8,342.3 336,345.1 334.2,345.7 	"/>
	<polygon class="st12" points="337.9,341.6 340.4,340.8 340.6,343.5 338.1,344.4 	"/>
	<rect x="344.3" y="339.5" class="st12" width="0" height="2.8"/>
	<polygon class="st12" points="343.1,339.9 344.2,339.5 344.4,342.2 343.3,342.6 	"/>
	<polygon class="st16" points="344.2,339.5 345.4,339.1 345.6,341.8 344.4,342.2 	"/>
	<path class="st17" d="M357.9,338.9l-13.2,4.5l0.3,4.5l13.3-4.5"/>
	<path class="st13" d="M331.3,347.9c-0.5,0.2-0.9,0.7-0.8,1.2l0.2,2.8c0,0.5,0.5,0.7,0.9,0.6l13.4-4.6l-0.3-4.5L331.3,347.9
		L331.3,347.9z"/>
	<polygon class="st12" points="331.8,349.4 333,349 333.2,351.8 331.9,352.2 	"/>
	<polygon class="st12" points="334.5,348.5 336.3,347.9 336.5,350.7 334.7,351.3 	"/>
	<polygon class="st12" points="338.5,347.1 340.9,346.3 341.1,349.1 338.6,349.9 	"/>
	<rect x="344.9" y="345" class="st12" width="0" height="2.8"/>
	<polygon class="st12" points="343.6,345.4 344.8,345 345,347.8 343.8,348.2 	"/>
	<polygon class="st16" points="344.8,345 346,344.6 346.1,347.4 345,347.8 	"/>
	<path class="st17" d="M357.6,344.7l-13.3,4.5l0.3,4.5l13.4-4.6"/>
	<path class="st13" d="M330.9,353.8c-0.5,0.2-0.9,0.7-0.8,1.2l0.2,2.8c0,0.5,0.5,0.7,0.9,0.6l13.4-4.6l-0.3-4.5L330.9,353.8
		L330.9,353.8z"/>
	<polygon class="st12" points="331.4,355.3 332.6,354.9 332.8,357.7 331.6,358.1 	"/>
	<polygon class="st12" points="334.1,354.4 335.9,353.8 336.1,356.6 334.3,357.2 	"/>
	<polygon class="st12" points="338.1,353 340.5,352.2 340.7,355 338.2,355.9 	"/>
	<rect x="344.5" y="350.9" class="st12" width="0" height="2.8"/>
	<polygon class="st12" points="343.2,351.3 344.4,350.9 344.6,353.7 343.4,354.1 	"/>
	<polygon class="st16" points="344.4,350.9 345.6,350.5 345.8,353.3 344.6,353.7 	"/>
	<path class="st17" d="M357.2,350.6l-13.4,4.6l0.3,4.5l13.4-4.6"/>
	<path class="st13" d="M330.3,359.8c-0.5,0.2-0.9,0.7-0.8,1.2l0.2,2.8c0,0.5,0.5,0.7,0.9,0.6l13.5-4.6l-0.3-4.5L330.3,359.8
		L330.3,359.8z"/>
	<polygon class="st12" points="330.8,361.3 332.1,360.9 332.3,363.7 331,364.2 	"/>
	<polygon class="st12" points="333.5,360.4 335.3,359.8 335.5,362.6 333.7,363.3 	"/>
	<polygon class="st12" points="337.6,359 340.1,358.2 340.2,361 337.8,361.9 	"/>
	<rect x="344" y="356.9" class="st12" width="0" height="2.8"/>
	<polygon class="st12" points="342.7,357.3 343.9,356.9 344.1,359.7 342.9,360.1 	"/>
	<polyline class="st16" points="350.4,357.6 347.9,358.4 347.8,355.5 350.2,354.7 	"/>
	<polygon class="st16" points="343.9,356.9 345.1,356.5 345.2,359.3 344.1,359.7 	"/>
	<path class="st17" d="M358.1,356.1l-13.4,4.6l0.3,4.5l13.4-4.7"/>
	<path class="st13" d="M331.3,365.4c-0.5,0.2-0.9,0.7-0.8,1.2l0.2,2.9c0,0.5,0.5,0.7,0.9,0.6l13.5-4.7l-0.3-4.5L331.3,365.4
		L331.3,365.4z"/>
	<polygon class="st12" points="331.8,366.9 333,366.5 333.2,369.4 331.9,369.8 	"/>
	<polygon class="st12" points="334.5,366 336.3,365.3 336.5,368.2 334.7,368.8 	"/>
	<polygon class="st12" points="338.5,364.6 341,363.7 341.2,366.6 338.7,367.4 	"/>
	<rect x="344.9" y="362.4" class="st12" width="0" height="2.8"/>
	<polygon class="st12" points="343.7,362.8 344.9,362.4 345.1,365.2 343.9,365.6 	"/>
	<polygon class="st16" points="344.9,362.4 346.1,362 346.3,364.8 345.1,365.2 	"/>
</g>
</svg>
