<svg width="514" height="520" viewBox="0 0 514 520" fill="none" xmlns="http://www.w3.org/2000/svg">
<g clip-path="url(#clip0_193_810)" filter="url(#filter0_dd_193_810)">
<path d="M143 141.7H137.3H131.5C124.1 141.7 118.1 147.8 118.1 155.1V212.8C118.1 220.2 124.2 226.2 131.5 226.2H137.3H143C146.3 226.2 149.2 223.5 149.2 220V147.8C149.1 144.6 146.4 141.7 143 141.7Z" fill="#FD6A33"/>
<path d="M374.7 226.2H369C365.7 226.2 362.8 223.5 362.8 220V147.8C362.8 144.5 365.5 141.6 369 141.6H374.7H380.5C387.9 141.6 393.9 147.7 393.9 155V212.8C393.9 220.2 387.8 226.2 380.5 226.2H374.7Z" fill="#FF8C29"/>
<path d="M321.3 87.9004H278.9C274.7 87.9004 270.8 84.1004 270.8 79.8004V77.9004H256V211.4H259H264.6C266.3 211.4 267.6 212.8 267.6 214.3V219.9C267.6 221.6 266.2 222.9 264.6 222.9H259V223H256V266.2H321.3C338.3 266.2 352.2 252.3 352.2 235.3V118.6C352.2 101.6 338.2 87.7004 321.3 87.9004ZM310.1 219.8C310.1 221.6 308.6 223 306.9 223H290C288.3 223 286.8 221.5 286.8 219.8V214.6C286.8 212.8 288.3 211.4 290 211.4H306.8C308.6 211.4 310 212.9 310 214.6V219.8H310.1ZM298.4 172.1C289.9 172.1 283 165.2 283 156.7C283 148.2 289.9 141.3 298.4 141.3C306.9 141.3 313.8 148.2 313.8 156.7C313.8 165.2 306.9 172.1 298.4 172.1Z" fill="#FF8C29"/>
<path d="M259 222.9H256V223H259V222.9Z" fill="#FF8C29"/>
<path d="M275.4 72.7004C282.1 68.3004 280.2 58.4004 273.8 53.4004C273.8 53.4004 256.1 66.5004 256.1 77.8004C261.3 77.8004 270.9 77.8004 270.9 77.8004C270.9 77.8004 270 76.3004 275.4 72.7004Z" fill="#FF8C29"/>
<path d="M256 77.9004H241.2V79.6004C241.2 84.3004 236.4 87.7004 231.9 87.7004H190.8C173.8 87.7004 159.9 101.6 159.9 118.6V235.4C159.9 252.4 173.8 266.3 190.8 266.3H256V223H247.4C245.7 223 244.4 221.6 244.4 220V214.4C244.4 212.7 245.8 211.4 247.4 211.4H252H256.1V77.9004H256ZM225.2 220C225.2 221.7 223.8 223 222.2 223H205C203.3 223 202 221.6 202 220V214.4C202 212.7 203.4 211.4 205 211.4H222.2C223.8 211.4 225.2 212.8 225.2 214.4V220ZM213.6 172C205.1 172 198.2 165.1 198.2 156.6C198.2 148.1 205.1 141.2 213.6 141.2C222.1 141.2 229 148.2 229 156.6C229 165.1 222.1 172 213.6 172Z" fill="#FD6A33"/>
<path d="M251.9 55.5997C246.2 59.2997 241.2 65.5997 241.2 77.8997C248.1 77.8997 250.8 77.8997 256 77.8997C256 66.3997 273.9 53.2997 273.9 53.2997C267.5 48.2997 257.5 51.8997 251.9 55.5997Z" fill="#FD6A33"/>
<path d="M131.4 192.5C132 193.4 132.3 194.6 131.9 195.7C130.4 202.1 131.6 208.8 135.2 214C136.4 215.7 136 218.2 134.5 219.5C132.8 220.8 130.4 220.5 129.2 218.9C124.1 211.9 122.5 202.9 124.6 194.3C125.1 192.2 127.1 190.9 129.2 191.4C130.3 191.3 130.8 191.8 131.4 192.5Z" fill="#FFD1A9"/>
<path d="M383.2 191.3C385.2 190.8 387.3 192.2 387.8 194.2C390 202.8 388.3 211.8 383.2 218.8C382 220.4 379.7 220.7 377.9 219.4C376.4 218.1 375.9 215.7 377.2 213.9C380.8 208.6 382.1 202 380.5 195.6C380.1 194.5 380.4 193.3 381 192.4C381.6 191.8 382.2 191.3 383.2 191.3Z" fill="#FFD1A9"/>
<path d="M319.4 23.9002L302.1 40.6002C299.8 42.8002 296.1 42.8002 293.7 40.5002C291.4 38.2002 291.4 34.6002 293.8 32.4002L311.1 15.7002C313.4 13.5002 317.1 13.5002 319.5 15.8002C321.7 18.0002 321.7 21.6002 319.4 23.9002Z" fill="#F0353D"/>
<path d="M333.3 59.2C332.2 60.3 330.8 60.9 329 60.8L307 60.7C303.7 60.7 301.1 58.2 301.1 54.8C301.1 51.7 303.7 49.1 307.1 49L329.1 49.1C332.4 49.1 335 51.6 335 55C335.1 56.7 334.3 58.2 333.3 59.2Z" fill="#F0353D"/>
<path d="M283.2 31.4004C282.1 32.5004 280.7 33.1004 278.9 33.0004C275.6 33.0004 273 30.5004 273 27.1004L273.1 5.70039C273.1 2.60039 275.7 0.000390626 279.1 -0.0996094C282.4 -0.0996094 285 2.40039 285 5.80039V27.2004C284.9 28.9004 284.4 30.3004 283.2 31.4004Z" fill="#F0353D"/>
<path d="M256 282.6C266.9 282.6 270 284.7 273.5 292.1C279 303.5 284.9 315.1 278.9 321.2C272.8 327.3 262.9 330 255.9 330V282.6H256Z" fill="#4ACFD9"/>
<path d="M256 432.2V425.6L237.5 401.1L204.3 331.5L187.9 334.4L157.4 356.3L174.5 408L229.7 464.4L256 464.1V432.2Z" fill="#E6EAEA"/>
<path d="M256 454C215.6 454 182.9 386.5 182.9 340.9H152C152 397.2 139.1 486.4 89.3 486.4V512H256V454Z" fill="#F0353D"/>
<path d="M256 282.6C245.1 282.6 242 284.7 238.5 292.1C233 303.5 227.1 315.1 233.1 321.2C239.2 327.3 249.1 330 256.1 330V282.6H256Z" fill="#0295AA"/>
<path d="M256 334.9C256 334.9 246 334.5 243.2 332.8C240.5 331.1 232.5 378.5 233.5 392.4C234.5 406.3 238.8 404 238.8 404L256 429.8V334.9Z" fill="#0295AA"/>
<path d="M183 310.9C189.9 310.9 197.4 316.4 199.6 322.9L255.3 425.6C256.5 429.6 256 434 254.6 435.7C253.9 436.5 254 436.6 249.9 435.9C249.9 435.9 221.2 407.4 209.7 391.2C199.9 377.2 192.8 362.4 183.2 346.2C173.6 330 128.5 354.5 128.5 354.5C124.9 348.5 134.7 341 138.5 338.6C147.1 333.4 169.4 314.8 183 310.9Z" fill="#9BAAAB"/>
<path d="M256 486.6C260.253 486.6 263.7 483.153 263.7 478.9C263.7 474.648 260.253 471.2 256 471.2C251.747 471.2 248.3 474.648 248.3 478.9C248.3 483.153 251.747 486.6 256 486.6Z" fill="#365558"/>
<path fill-rule="evenodd" clip-rule="evenodd" d="M256 425.6V432.5V464.4H275V400.052L274.5 401.1L256 425.6ZM306.507 334H321.838L307.7 331.5L306.507 334Z" fill="white"/>
<path fill-rule="evenodd" clip-rule="evenodd" d="M275 449.025C268.942 452.214 262.573 454.001 256 454.001V512.001H422.7V512H275V449.025Z" fill="#FD6A33"/>
<path fill-rule="evenodd" clip-rule="evenodd" d="M363.555 331.752C353.137 324.128 338.807 313.64 329 310.9C322 310.9 314.6 316.4 312.3 323L306.334 334H366.633C365.654 333.289 364.625 332.536 363.555 331.752ZM275 422.703V391.775L256.6 425.7C255.4 429.6 255.9 434.6 257.3 435.8C258.3 436.5 258.8 436.7 262 436C262 436 267.681 430.379 275 422.703Z" fill="#CDD4D5"/>
<path fill-rule="evenodd" clip-rule="evenodd" d="M268.8 332.7C266 334.3 256 334.7 256 334.7V429.8L273.2 403.9C273.2 403.9 274.005 404.331 275 403.693V356.461C272.795 343.196 270.142 331.904 268.8 332.7Z" fill="#4ACFD9"/>
<g clip-path="url(#clip1_193_810)">
<path d="M362.184 353.026H298.863C296.913 353.026 295.334 354.584 295.334 356.507V423.125C295.334 425.048 296.913 426.606 298.863 426.606H362.184C364.134 426.606 365.713 425.048 365.713 423.125V356.507C365.713 354.584 364.134 353.026 362.184 353.026Z" fill="#4ACFD9"/>
<path d="M362.184 438.421H298.863C296.913 438.421 295.334 439.979 295.334 441.902V508.52C295.334 510.442 296.913 512 298.863 512H362.184C364.134 512 365.713 510.442 365.713 508.52V441.902C365.713 439.979 364.134 438.421 362.184 438.421Z" fill="#687F82"/>
<path d="M445.672 353.026H382.351C380.402 353.026 378.822 354.584 378.822 356.507V423.125C378.822 425.048 380.402 426.606 382.351 426.606H445.673C447.622 426.606 449.202 425.048 449.202 423.125V356.507C449.202 354.584 447.622 353.026 445.672 353.026Z" fill="#FF8C29"/>
<path d="M445.672 438.421H382.351C380.402 438.421 378.822 439.979 378.822 441.902V508.52C378.822 510.442 380.402 512 382.351 512H445.673C447.622 512 449.202 510.442 449.202 508.52V441.902C449.202 439.979 447.622 438.421 445.672 438.421Z" fill="#F0353D"/>
<path d="M480.488 347.077L453.87 320.824C452.492 319.465 450.257 319.465 448.879 320.824L358.377 410.085C358.202 410.259 358.045 410.45 357.91 410.655L328.63 455.287C327.726 456.665 327.921 458.478 329.097 459.639L339.744 470.14C340.426 470.813 341.33 471.159 342.242 471.159C342.903 471.159 343.569 470.976 344.157 470.601L389.408 441.722C389.617 441.589 389.811 441.434 389.986 441.261L480.488 352C481.866 350.641 481.866 348.437 480.488 347.077Z" fill="#CDD4D5"/>
<path d="M499.121 302.446C490.406 293.851 476.227 293.851 467.511 302.446L446.217 323.449C444.839 324.809 444.839 327.012 446.217 328.372L472.835 354.625C473.524 355.305 474.427 355.644 475.331 355.644C476.234 355.644 477.137 355.305 477.826 354.625L499.121 333.622C503.342 329.459 505.667 323.923 505.667 318.034C505.667 312.145 503.342 306.61 499.121 302.446Z" fill="#FF8C29"/>
<path d="M470.007 324.14C469.104 324.14 468.201 323.801 467.511 323.121C466.133 321.762 466.133 319.558 467.511 318.198L475.497 310.322C476.876 308.963 479.11 308.963 480.488 310.322C481.867 311.682 481.867 313.885 480.488 315.245L472.503 323.121C471.814 323.8 470.91 324.14 470.007 324.14Z" fill="white"/>
<path d="M496.459 357.579L443.223 305.071C441.844 303.712 439.61 303.712 438.231 305.071L424.923 318.197C423.545 319.557 423.545 321.761 424.923 323.12L478.159 375.628C478.848 376.307 479.751 376.647 480.655 376.647C481.558 376.647 482.461 376.307 483.15 375.628L496.459 362.501C497.121 361.848 497.493 360.964 497.493 360.04C497.493 359.116 497.121 358.231 496.459 357.579Z" fill="#FD6A33"/>
<path d="M469.944 331.427L451.644 349.476L478.158 375.627C478.847 376.307 479.75 376.646 480.654 376.646C481.557 376.646 482.46 376.307 483.149 375.627L496.458 362.501C497.12 361.848 497.492 360.963 497.492 360.039C497.492 359.116 497.12 358.231 496.459 357.578L469.944 331.427Z" fill="#F0353D"/>
<path d="M374.182 418.652C373.279 418.652 372.375 418.313 371.687 417.633C370.308 416.274 370.308 414.07 371.686 412.711L382.333 402.209C383.712 400.85 385.947 400.85 387.324 402.209C388.703 403.568 388.703 405.772 387.325 407.131L376.677 417.632C375.989 418.313 375.085 418.652 374.182 418.652Z" fill="white"/>
<path d="M395.476 397.649C394.573 397.649 393.67 397.31 392.981 396.63C391.602 395.271 391.602 393.067 392.981 391.708L430.245 354.953C431.624 353.593 433.858 353.594 435.236 354.953C436.615 356.312 436.615 358.516 435.236 359.876L397.972 396.63C397.283 397.31 396.38 397.649 395.476 397.649Z" fill="white"/>
</g>
</g>
<defs>
<filter id="filter0_dd_193_810" x="-4" y="0" width="520" height="520" filterUnits="userSpaceOnUse" color-interpolation-filters="sRGB">
<feFlood flood-opacity="0" result="BackgroundImageFix"/>
<feColorMatrix in="SourceAlpha" type="matrix" values="0 0 0 0 0 0 0 0 0 0 0 0 0 0 0 0 0 0 127 0" result="hardAlpha"/>
<feOffset dy="4"/>
<feGaussianBlur stdDeviation="2"/>
<feComposite in2="hardAlpha" operator="out"/>
<feColorMatrix type="matrix" values="0 0 0 0 0 0 0 0 0 0 0 0 0 0 0 0 0 0 0.25 0"/>
<feBlend mode="normal" in2="BackgroundImageFix" result="effect1_dropShadow_193_810"/>
<feColorMatrix in="SourceAlpha" type="matrix" values="0 0 0 0 0 0 0 0 0 0 0 0 0 0 0 0 0 0 127 0" result="hardAlpha"/>
<feOffset dy="4"/>
<feGaussianBlur stdDeviation="2"/>
<feComposite in2="hardAlpha" operator="out"/>
<feColorMatrix type="matrix" values="0 0 0 0 0 0 0 0 0 0 0 0 0 0 0 0 0 0 0.25 0"/>
<feBlend mode="normal" in2="effect1_dropShadow_193_810" result="effect2_dropShadow_193_810"/>
<feBlend mode="normal" in="SourceGraphic" in2="effect2_dropShadow_193_810" result="shape"/>
</filter>
<clipPath id="clip0_193_810">
<rect width="512" height="512" fill="white"/>
</clipPath>
<clipPath id="clip1_193_810">
<rect width="219" height="216" fill="white" transform="translate(291 296)"/>
</clipPath>
</defs>
</svg>
