<?xml version="1.0" encoding="utf-8"?>
<!-- Generator: Adobe Illustrator 25.4.1, SVG Export Plug-In . SVG Version: 6.00 Build 0)  -->
<svg version="1.1" id="Layer_1" xmlns="http://www.w3.org/2000/svg" xmlns:xlink="http://www.w3.org/1999/xlink" x="0px" y="0px"
	 viewBox="0 0 512 512" style="enable-background:new 0 0 512 512;" xml:space="preserve">
<style type="text/css">
	.st0{display:none;fill:#020202;}
	.st1{fill:#FD6A33;}
	.st2{fill:#FF8C29;}
	.st3{fill:#FFD1A9;}
	.st4{fill:#F0353D;}
	.st5{fill:#FFFFFF;}
	.st6{fill:#4ACFD9;}
	.st7{fill:#CDD4D5;}
	.st8{fill:#0295AA;}
	.st9{fill:#9BAAAB;}
	.st10{fill:#365558;}
</style>
<rect x="192" y="22" class="st0" width="512" height="512"/>
<path class="st1" d="M161.9,118h-4.7h-4.8c-6.2,0-11.2,5.1-11.2,11.2v48.1c0,6.2,5.1,11.2,11.2,11.2h4.8h4.7c2.7,0,5.2-2.2,5.2-5.2
	v-60.1C167,120.4,164.7,118,161.9,118z"/>
<path class="st2" d="M354.9,188.4h-4.7c-2.7,0-5.2-2.2-5.2-5.2v-60.1c0-2.7,2.2-5.2,5.2-5.2h4.7h4.8c6.2,0,11.2,5.1,11.2,11.2v48.1
	c0,6.2-5.1,11.2-11.2,11.2L354.9,188.4L354.9,188.4z"/>
<path class="st2" d="M310.4,73.2h-35.3c-3.5,0-6.7-3.2-6.7-6.7v-1.6H256v111.2h2.5h4.7c1.4,0,2.5,1.2,2.5,2.4v4.7
	c0,1.4-1.2,2.5-2.5,2.5h-4.7v0.1H256v36h54.4c14.2,0,25.7-11.6,25.7-25.7V98.8C336.1,84.6,324.5,73,310.4,73.2z M301.1,183.1
	c0,1.5-1.2,2.7-2.7,2.7h-14.1c-1.4,0-2.7-1.2-2.7-2.7v-4.3c0-1.5,1.2-2.7,2.7-2.7h14c1.5,0,2.7,1.2,2.7,2.7L301.1,183.1L301.1,183.1
	z M291.3,143.3c-7.1,0-12.8-5.7-12.8-12.8c0-7.1,5.7-12.8,12.8-12.8s12.8,5.7,12.8,12.8C304.1,137.6,298.4,143.3,291.3,143.3z"/>
<rect x="256" y="185.6" class="st2" width="2.5" height="0.1"/>
<path class="st2" d="M272.2,60.5c5.6-3.7,4-11.9-1.3-16.1c0,0-14.7,10.9-14.7,20.3c4.3,0,12.3,0,12.3,0S267.7,63.5,272.2,60.5z"/>
<path class="st1" d="M256,64.9h-12.3v1.4c0,3.9-4,6.7-7.7,6.7h-34.2C187.5,73,176,84.6,176,98.8v97.3c0,14.2,11.6,25.7,25.7,25.7
	H256v-36.1h-7.2c-1.4,0-2.5-1.2-2.5-2.5v-4.7c0-1.4,1.2-2.5,2.5-2.5h3.8h3.4V64.9L256,64.9z M230.3,183.2c0,1.4-1.2,2.5-2.5,2.5
	h-14.3c-1.4,0-2.5-1.2-2.5-2.5v-4.7c0-1.4,1.2-2.5,2.5-2.5h14.3c1.3,0,2.5,1.2,2.5,2.5V183.2z M220.7,143.2
	c-7.1,0-12.8-5.7-12.8-12.8c0-7.1,5.7-12.8,12.8-12.8s12.8,5.8,12.8,12.8C233.5,137.5,227.8,143.2,220.7,143.2z"/>
<path class="st1" d="M252.6,46.3c-4.7,3.1-8.9,8.3-8.9,18.6c5.7,0,8,0,12.3,0c0-9.6,14.9-20.5,14.9-20.5
	C265.6,40.2,257.2,43.2,252.6,46.3z"/>
<path class="st3" d="M152.2,160.3c0.5,0.7,0.7,1.7,0.4,2.7c-1.2,5.3-0.2,10.9,2.7,15.2c1,1.4,0.7,3.5-0.6,4.6
	c-1.4,1.1-3.4,0.8-4.4-0.5c-4.2-5.8-5.6-13.3-3.8-20.5c0.4-1.7,2.1-2.8,3.8-2.4C151.3,159.3,151.7,159.7,152.2,160.3z"/>
<path class="st3" d="M362,159.3c1.7-0.4,3.4,0.7,3.8,2.4c1.8,7.2,0.4,14.7-3.8,20.5c-1,1.3-2.9,1.6-4.4,0.5
	c-1.2-1.1-1.7-3.1-0.6-4.6c3-4.4,4.1-9.9,2.7-15.2c-0.3-0.9-0.1-1.9,0.4-2.7C360.6,159.7,361.1,159.3,362,159.3z"/>
<path class="st4" d="M308.8,19.9l-14.4,13.9c-1.9,1.8-5,1.8-7-0.1c-1.9-1.9-1.9-4.9,0.1-6.7l14.4-13.9c1.9-1.8,5-1.8,7,0.1
	C310.7,15,310.7,18,308.8,19.9z"/>
<path class="st4" d="M320.4,49.3c-0.9,0.9-2.1,1.4-3.6,1.3l-18.3-0.1c-2.7,0-4.9-2.1-4.9-4.9c0-2.6,2.2-4.7,5-4.8l18.3,0.1
	c2.7,0,4.9,2.1,4.9,4.9C321.9,47.2,321.2,48.5,320.4,49.3z"/>
<path class="st4" d="M278.7,26.1c-0.9,0.9-2.1,1.4-3.6,1.3c-2.7,0-4.9-2.1-4.9-4.9l0.1-17.8c0-2.6,2.2-4.7,5-4.8
	c2.7,0,4.9,2.1,4.9,4.9v17.8C280.1,24.1,279.7,25.2,278.7,26.1z"/>
<polyline class="st5" points="256,360.2 256,354.5 271.4,334.1 299.1,276.1 312.7,278.5 338.1,296.8 323.9,339.8 "/>
<path class="st6" d="M256,235.4c9.1,0,11.7,1.7,14.6,7.9c4.6,9.5,9.5,19.2,4.5,24.2c-5.1,5.1-13.3,7.3-19.2,7.3L256,235.4L256,235.4
	L256,235.4z"/>
<path class="st6" d="M256,278.8c0,0,8.3-0.3,10.7-1.7c2.2-1.3,8.9,38.1,8.1,49.6c-0.8,11.6-4.4,9.7-4.4,9.7L256,358V278.8z"/>
<path class="st7" d="M316.8,258.9c11.3,3.2,29.9,18.7,37,23.2c3.2,1.9,11.5,8.2,8.3,13.2c0,0-37.6-20.4-45.6-6.9
	s-13.9,25.9-22.1,37.5c-9.6,13.6-33.5,37.2-33.5,37.2c-2.7,0.6-3.1,0.4-3.9-0.2c-1.2-1-1.6-5.2-0.6-8.4l46.4-85.5
	C304.8,263.5,311,258.9,316.8,258.9"/>
<path class="st8" d="M256,235.4c-9.1,0-11.7,1.7-14.6,7.9c-4.6,9.5-9.5,19.2-4.5,24.2c5.1,5.1,13.3,7.3,19.2,7.3L256,235.4
	L256,235.4L256,235.4z"/>
<path class="st8" d="M256,278.9c0,0-8.3-0.3-10.7-1.7c-2.2-1.4-8.9,38.1-8.1,49.6c0.8,11.6,4.4,9.7,4.4,9.7L256,358V278.9z"/>
<path class="st9" d="M195.2,258.9c5.7,0,12,4.6,13.8,10l46.4,85.5c1,3.3,0.6,7-0.6,8.4c-0.6,0.7-0.5,0.7-3.9,0.2
	c0,0-23.9-23.7-33.5-37.2c-8.2-11.7-14.1-24-22.1-37.5s-45.6,6.9-45.6,6.9c-3-5,5.2-11.2,8.3-13.2
	C165.3,277.7,183.9,262.2,195.2,258.9"/>
<path class="st8" d="M281.8,341.3c3.5,2.8,6.9,5.6,10.2,8.3c0.3,0.3,1.4,0.3,1.9,0.1c4.3-1.6,8.6-3.3,12.7-5.1
	c0.9-0.3,1.6-0.2,2.3,0.3c2.3,1.9,4.6,3.7,7,5.6c1.8,1.4,3.5,3,5.3,4.4c-1.1,1.6-2.1,3-3.3,4.3c-4.9,6-9.5,12.1-14.6,18.1
	c-6.7,8.1-14.9,15-23.3,21.1c-2.3,1.6-4.9,2.7-7.3,3.7c-3.3,1.2-6.3,0.5-9.1-1.6c-1.4-1.1-3-2.1-4.5-3V433c0.3,0,0.8-0.1,1.2-0.1
	c11.1,0,20,9.1,20,20.3c0,11.1-9,20-20.2,20c-0.3,0-0.7,0-1,0v25.5c1.4,0.8,3,2.1,4.2,3.3c0.7,0.7,1.6,1.2,2.5,1.9
	c3.7,2.5,7.7,3.6,11.9,2.3c2.7-0.8,4.5-3,6.3-4.9c6.9-7.4,13.7-14.8,20.3-22.3c5.1-5.8,9.7-11.9,13.3-18.8c3.2-6,4.1-9.8-1.4-16.1
	c-1.6-1.8-3.4-3.3-4.9-4.9c-1.4-1.6-3-3.3-3.5-5.2c-0.5-2.1-0.5-4.5,0.1-6.5c1.4-4.4,3.5-8.6,5.4-12.8c4.1-8.6,9.5-16.2,15.3-23.5
	c4.9-6,9.8-11.8,14.9-17.9c4.4,3.6,8.6,7,12.7,10.5c0.3,0.3,0.5,1.2,0.3,1.9c-0.5,3.9-1.2,7.9-2.1,11.8c-0.3,2.1-0.2,3.5,1.8,4.6
	c1.1,0.5,1.9,1.6,3,2.3c1.9,1.6,3.9,3.2,5.8,4.9c14-17.2,27.8-34.3,41.7-51.4c-27.7-22.7-55.5-45.2-83.4-67.8
	C309.5,307,295.6,324.1,281.8,341.3z M343.3,339.1c6.5,0,11.4,4.6,11.4,10.9c0.1,6-4.7,10.7-10.6,10.7c-6.1,0-11.1-4.9-11.1-10.9
	C333,344.3,338.1,339.1,343.3,339.1z"/>
<path class="st10" d="M240,453c0.1-10.6,8.6-19.2,19-19.8v-35.5c-1.2-0.7-2.3-1.4-3.6-2.1c-3.6-1.9-7.3-2.1-10.6,0.5
	c-3.3,2.3-6.5,4.9-9.1,7.9c-5.4,5.8-10.6,11.9-15.3,18.4c-5.1,6.7-9.7,13.7-14.3,20.9c-1.9,3-1.8,6.2-0.7,9.3
	c1.1,3.3,3.5,5.8,6.2,7.6c4.9,3.4,8.1,7.9,9.3,13.7c0.2,1.4,0.8,2.6,1.4,3.8c2.1,5.3,6.1,8.9,10.5,12.3c4.6,3.6,9.8,5.8,15.7,6
	c3.9,0.1,7.6,1.1,10.7,3v-25.5C248.2,472.9,240,464.1,240,453z"/>
<path class="st6" d="M260.3,433.1c-0.3,0-0.8,0-1.2,0.1v40.2c0.3,0,0.7,0,1,0c11.2,0,20.2-8.9,20.2-20
	C280.2,442.2,271.2,433.2,260.3,433.1z"/>
<path class="st8" d="M240,453c-0.1,11.1,8.2,20,19,20.4v-40.2C248.5,433.7,240,442.5,240,453z"/>
<path class="st10" d="M354.8,350c0,5.8-4.9,10.7-10.7,10.7c-6.1,0-11.1-4.9-11.1-10.9c0-5.5,5.1-10.7,10.2-10.7
	C349.9,339.1,354.8,343.8,354.8,350z"/>
<path class="st1" d="M206.4,308.9c-26.9,23.9-53.6,47.6-80.5,71.3c14.6,16.5,29.3,33,43.9,49.6c3.4-3,6.7-5.8,9.8-8.8
	c0.3-0.3,0.5-1.2,0.5-1.8c-0.9-4.5-1.9-8.9-3-13.3c-0.2-1-0.1-1.6,0.7-2.3c2.3-1.9,4.4-3.9,6.7-6c1.7-1.4,3.4-3,5.2-4.5
	c1.2,1.4,2.5,2.6,3.7,3.8c5.2,5.8,4.6,6,8.9,12.5c3.3,4.9,1.8,3.7,3.7,6.3l22.2-24.9c-4.3-3.5-4.6-3-8.1-7c-5.1-5.8-3.8-4.1-9-10
	c4.2-3.7,8.2-7.4,12.4-10.9c0.3-0.3,1.4-0.2,1.9-0.1c3.8,1.2,7.7,2.5,11.4,4.1c1.9,0.7,3.4,0.8,4.9-0.9c0.7-0.9,1.9-1.7,2.8-2.5
	c1.9-1.7,3.7-3.4,5.8-5.1C235.7,341.9,221,325.5,206.4,308.9z M199,371.5c-1,6-6.5,10-12.6,9.1c-5.4-0.8-9.7-6.7-8.9-11.8
	c1.1-6.5,6.5-10.5,12.6-9.5C196.1,360.1,199.9,365.7,199,371.5z"/>
<path class="st1" d="M174.2,310.1v0.1c0,3.8-1.5,7.3-4.1,10c-1.3,1.3-2.7,2.3-4.3,3c0.7,2.2,0.8,4.5,0.3,6.7
	c10.9-9.7,21.8-19.4,32.8-29c-5.8-6.7-11.6-13.2-17.4-19.7c-6.2,3.9-12.3,8-18.2,12.3l6.8,6.8C172.7,302.8,174.2,306.3,174.2,310.1z
	"/>
<path class="st1" d="M148.7,341.1c-0.5,0.7-1,1.3-1.6,1.9l-1.1,1.1c-5.2,5.2-13.7,5.2-18.9,0L117,334c-5.6,5.9-10.9,12-16.1,18.4
	c5.8,6.7,11.6,13,17.4,19.7c11.5-10.2,23-20.5,34.5-30.6C151.5,341.6,150.1,341.5,148.7,341.1z"/>
<path class="st10" d="M186.4,380.6c6,0.9,11.6-3,12.6-9.1c0.9-5.8-3-11.3-8.9-12.3c-6.2-1-11.5,3-12.6,9.5
	C176.7,373.9,181.1,379.6,186.4,380.6z"/>
<path class="st4" d="M201.4,251.1l-8.4,20.5c-1.1,2.7-4.2,4.1-7,3c-2.7-1.1-4.1-4.2-3-7l8.3-20.5c1.1-2.7,4.2-4.1,7-3
	C201.2,245.4,202.4,248.4,201.4,251.1z"/>
<path class="st4" d="M225.7,276.5c-0.5,1.2-1.6,2.3-3,3l-18.3,7.7c-2.7,1.1-5.8-0.1-7-3c-1.1-2.7,0.1-5.8,3-7l18.4-7.7
	c2.7-1.1,5.8,0.1,7,3C226.4,273.7,226.3,275.3,225.7,276.5z"/>
<path class="st4" d="M164,270.2c1.1,2.8,4.3,4.1,7,3c1.4-0.5,2.3-1.7,3-3c0.5-1.2,0.5-2.6,0-4.1l-7.8-18.3c-1.1-2.8-4.3-4.1-7-3
	c-2.8,1.1-4.1,4.3-3,7L164,270.2z"/>
<path class="st5" d="M230.6,446.4c1,1,1.6,2.3,1.4,3.8c-0.7,8.1,2.1,16.2,7.9,22c1.9,1.9,1.9,4.9,0,6.9c-1.9,1.9-4.9,1.9-6.9,0
	c-7.9-7.9-11.7-18.7-10.7-29.7c0.2-2.7,2.6-4.6,5.3-4.4C228.7,445.1,229.7,445.6,230.6,446.4z"/>
<path class="st2" d="M117,334l-3.3,3.6C114.8,336.4,115.9,335.2,117,334L117,334z"/>
<path class="st2" d="M166.2,329.9c0,0,0-0.1,0-0.1l-33.2,29.4l0,0c-4.9,4.3-9.7,8.6-14.6,13c-5.8-6.7-11.6-13-17.4-19.7
	c4.1-5.1,8.3-10,12.7-14.7l0.1-0.1l3.3-3.6l12.9-13.8c5.9-6.2,12.3-11.9,19.3-16.9l19.9-14.1l0,0c4-2.8,8.1-5.5,12.4-8.2
	c5.8,6.5,11.6,13,17.4,19.7C188,310.5,177.1,320.2,166.2,329.9z"/>
<path class="st3" d="M184.8,300l-9.3,8.2l-1.4,1.2l-42.4,37.6l-5.8,5.1l-6.6,5.8l-5.1-5.8c1.5-1.8,3.7-4.1,6-6.5l0.1-0.1l26.2-26.2
	l24-18.9c3-2.2,6.1-4.3,9.3-6.4L184.8,300z"/>
<path class="st3" d="M131.7,347.1l-0.7,0.6l-5.1,4.5L131.7,347.1C131.7,347.1,131.7,347.1,131.7,347.1z"/>
<path class="st3" d="M146.5,319.5l-26.2,26.2c2.6-2.8,5.3-5.5,7.1-7.5L146.5,319.5z"/>
<g>
	<path class="st8" d="M379.3,322c0,0,0.1,0,0.1,0l-34.6-27.7l0,0c-5.1-4-10.2-8.1-15.3-12.1c5.6-6.9,10.9-13.7,16.4-20.5
		c5.7,3.2,11.2,6.5,16.7,10l0.1,0.1l4.1,2.7l15.8,10.4c7.2,4.7,13.8,10.1,19.9,16.2l17.3,17.2l0,0c3.4,3.5,6.8,7.1,10.1,10.8
		c-5.4,6.9-10.9,13.7-16.4,20.5C402.1,340.2,390.7,331.1,379.3,322z"/>
	<path class="st6" d="M411.9,335.3l-9.7-7.8l-1.5-1.2L356.4,291l-6-4.8l-6.9-5.5l4.8-6c2,1.2,4.7,2.9,7.4,4.8l0.1,0.1l30.2,21.3
		l22.7,20.4c2.7,2.6,5.3,5.3,7.9,8L411.9,335.3z"/>
</g>
</svg>
