<?xml version="1.0" encoding="utf-8"?>
<!-- Generator: Adobe Illustrator 25.4.1, SVG Export Plug-In . SVG Version: 6.00 Build 0)  -->
<svg version="1.1" id="Layer_1" xmlns="http://www.w3.org/2000/svg" xmlns:xlink="http://www.w3.org/1999/xlink" x="0px" y="0px"
	 viewBox="0 0 512 512" style="enable-background:new 0 0 512 512;" xml:space="preserve">
<style type="text/css">
	.st0{fill:#FD6A33;}
	.st1{fill:#FF8C29;}
	.st2{fill:#FFD1A9;}
	.st3{fill:#F0353D;}
	.st4{fill:#FFFFFF;}
	.st5{fill:#4ACFD9;}
	.st6{fill:#E6EAEA;}
	.st7{fill:#CDD4D5;}
	.st8{fill:#0295AA;}
	.st9{fill:#9BAAAB;}
	.st10{fill:#365558;}
	.st11{fill:#687F82;}
</style>
<g>
	<path class="st0" d="M165.9,112.4h-9.2c-5.9,0-10.7,4.8-10.7,10.7v46c0,5.9,4.8,10.7,10.7,10.7h9.2c2.7,0,4.9-2.2,4.9-4.9v-57.6
		C170.7,114.6,168.6,112.5,165.9,112.4z"/>
	<path class="st1" d="M350.6,179.8h-4.5c-2.7,0-4.9-2.2-4.9-4.9v-57.6c0-2.7,2.2-4.9,4.9-4.9h9.2c5.9,0,10.6,4.8,10.7,10.7v46.1
		c0,5.9-4.8,10.7-10.7,10.7L350.6,179.8L350.6,179.8z"/>
	<path class="st1" d="M308,69.5h-33.8c-3.5-0.1-6.3-2.9-6.5-6.5v-1.5h-11.8v106.4h6.9c1.3,0,2.4,1,2.4,2.3v4.5
		c0,1.3-1.1,2.4-2.4,2.4h-4.5v0.1h-2.4v34.4h52c13.6,0,24.6-11,24.6-24.6V94C332.5,80.5,321.5,69.5,308,69.5
		C308.1,69.5,308.1,69.5,308,69.5z M299.1,174.7c0,1.4-1.1,2.5-2.5,2.6h-13.5c-1.4,0-2.5-1.2-2.5-2.6v-4.1c0-1.4,1.1-2.5,2.5-2.6
		h13.4c1.4,0,2.5,1.1,2.5,2.6L299.1,174.7L299.1,174.7z M289.8,136.7c-6.8,0-12.3-5.5-12.3-12.3s5.5-12.3,12.3-12.3
		c6.8,0,12.3,5.5,12.3,12.3l0,0C302,131.2,296.5,136.6,289.8,136.7L289.8,136.7z"/>
	<rect x="256" y="177.1" class="st1" width="2.4" height="0.1"/>
	<path class="st1" d="M271.4,57.4c5.3-3.5,3.8-11.4-1.3-15.4c0,0-14.1,10.4-14.1,19.5h11.8C267.9,61.5,267.1,60.3,271.4,57.4z"/>
	<path class="st0" d="M256,61.6h-11.8V63c0,3.7-3.8,6.5-7.4,6.5H204c-13.6-0.1-24.6,10.9-24.6,24.5v93.1c0,13.6,11,24.6,24.6,24.6
		h52v-34.5h-6.9c-1.3,0-2.4-1.1-2.4-2.4v-4.4c0-1.3,1.1-2.4,2.4-2.4h6.9V61.6L256,61.6z M231.4,174.8c0,1.3-1.1,2.4-2.4,2.4h-13.7
		c-1.3,0-2.4-1.1-2.4-2.4v-4.4c0-1.3,1.1-2.4,2.4-2.4H229c1.3,0,2.4,1.1,2.4,2.4L231.4,174.8z M222.2,136.6
		c-6.8,0-12.3-5.5-12.3-12.3s5.5-12.3,12.3-12.3s12.3,5.5,12.3,12.3l0,0C234.4,131.1,228.9,136.6,222.2,136.6L222.2,136.6z"/>
	<path class="st0" d="M252.7,43.8c-4.5,3-8.5,8-8.5,17.8H256c0-9.2,14.3-19.6,14.3-19.6C265.1,38,257.2,40.8,252.7,43.8z"/>
	<path class="st2" d="M156.7,152.9c0.5,0.7,0.7,1.7,0.4,2.6c-1.2,5-0.3,10.3,2.6,14.6c0.9,1.4,0.7,3.3-0.6,4.4
		c-1.3,1-3.2,0.8-4.2-0.5l0,0c-4-5.7-5.4-12.9-3.7-19.6c0.3-1.6,1.9-2.7,3.5-2.3h0.1C155.6,152,156.3,152.3,156.7,152.9z"/>
	<path class="st2" d="M357.4,152c1.6-0.3,3.3,0.7,3.7,2.3c1.8,6.8,0.4,13.9-3.7,19.6c-1,1.3-2.9,1.5-4.2,0.5l0,0
		c-1.3-1.1-1.5-3-0.6-4.4c2.9-4.3,3.9-9.6,2.6-14.6c-0.3-0.9-0.1-1.8,0.4-2.6C356,152.3,356.7,152,357.4,152z"/>
	<path class="st3" d="M306.5,18.5l-13.8,13.3c-1.9,1.8-4.8,1.7-6.7-0.1c-1.8-1.7-1.8-4.5-0.1-6.2c0.1-0.1,0.1-0.1,0.2-0.2L299.9,12
		c1.9-1.8,4.8-1.7,6.7,0.1C308.3,13.9,308.3,16.7,306.5,18.5L306.5,18.5z"/>
	<path class="st3" d="M317.6,46.7c-0.9,0.9-2.1,1.4-3.4,1.3l-17.5-0.1c-2.5,0.1-4.6-2-4.7-4.5c0-0.1,0-0.1,0-0.2
		c0.1-2.6,2.2-4.6,4.8-4.6l17.5,0.1c2.5-0.1,4.7,2,4.7,4.5c0,0.1,0,0.1,0,0.2C319,44.6,318.5,45.8,317.6,46.7z"/>
	<path class="st3" d="M277.6,24.5c-0.9,0.9-2.2,1.4-3.4,1.3c-2.5,0.1-4.6-2-4.7-4.5c0-0.1,0-0.1,0-0.2L269.6,4
		c0.1-2.6,2.2-4.6,4.8-4.6c2.5-0.1,4.6,2,4.7,4.5c0,0.1,0,0.1,0,0.2v17C279.1,22.4,278.6,23.6,277.6,24.5z"/>
	<polygon class="st4" points="256,344.2 256,338.7 270.7,319.2 297.2,263.7 310.2,266 334.6,283.5 320.9,324.7 276.9,369.6 
		256,369.6 	"/>
	<path class="st5" d="M256,224.7c8.7,0,11.2,1.7,14,7.6c4.4,9.1,9.1,18.3,4.3,23.2c-4.8,4.9-12.8,7-18.3,7V224.7L256,224.7z"/>
	<path class="st5" d="M256,266.2c0,0,8-0.3,10.2-1.6c2.2-1.3,8.5,36.4,7.7,47.5c-0.8,11.1-4.2,9.2-4.2,9.2L256,341.9V266.2z"/>
	<polygon class="st6" points="256,344 256,338.7 241.2,319.2 214.8,263.7 201.7,266 177.4,283.5 191,324.7 235,369.6 256,369.4 	"/>
	<path class="st7" d="M314.2,247.3c10.8,3,28.6,17.9,35.4,22.2c3,1.8,11,7.9,8,12.7c0,0-36-19.5-43.6-6.6s-13.3,24.8-21.1,35.9
		c-9.2,13-32,35.6-32,35.6c-2.5,0.5-3,0.4-3.7-0.2c-1.1-1-1.5-4.9-0.6-8L301,257C302.7,251.7,308.6,247.3,314.2,247.3"/>
	<path class="st8" d="M256,224.7c-8.7,0-11.2,1.7-13.9,7.6c-4.4,9.1-9.1,18.3-4.3,23.2c4.8,4.9,12.8,7,18.3,7L256,224.7L256,224.7z"
		/>
	<path class="st8" d="M256,266.4c0,0-8-0.3-10.2-1.7s-8.5,36.4-7.7,47.5s4.2,9.2,4.2,9.2l13.7,20.5V266.4z"/>
	<path class="st9" d="M197.8,247.3c5.5,0,11.5,4.4,13.2,9.6l44.4,81.9c1,3.2,0.6,6.7-0.6,8c-0.5,0.6-0.5,0.7-3.7,0.2
		c0,0-22.9-22.7-32-35.6c-7.8-11.2-13.5-23-21.1-35.9c-7.6-12.9-43.6,6.6-43.6,6.6c-2.9-4.8,4.9-10.8,8-12.7
		C169.2,265.2,187,250.4,197.8,247.3"/>
	<circle class="st10" cx="256" cy="381.2" r="6.1"/>
	<path class="st11" d="M344.6,277.8H167.2c-2.2,0-4,1.8-4,4v225.9c0,2.2,1.8,4,4,4h177.4c2.2,0,4-1.8,4-4V281.8
		C348.6,279.6,346.8,277.8,344.6,277.8z M255.9,443.5c-27.8,0-50.4-22.6-50.4-50.4s22.6-50.4,50.4-50.4s50.4,22.6,50.4,50.4l0,0
		C306.3,420.9,283.7,443.5,255.9,443.5L255.9,443.5z"/>
	<path class="st10" d="M205.5,393.1c0-27.8,22.6-50.4,50.4-50.4l0,0v-64.9h-88.7c-2.2,0-4,1.8-4,4v225.9c0,2.2,1.8,4,4,4h88.7v-68.2
		C228.1,443.5,205.5,421,205.5,393.1L205.5,393.1z"/>
	<path class="st6" d="M327.4,294.7H183.8c-2.2,0-3.9,1.8-3.9,4V493c0,2.2,1.7,4,3.9,4h103.5c1,0,2.1-0.4,2.8-1.1l40.1-40.1
		c0.7-0.7,1.2-1.7,1.1-2.8V298.7C331.3,296.5,329.6,294.7,327.4,294.7z"/>
	<path class="st1" d="M298.1,277.8H284c-4.5-15.5-20.8-24.5-36.3-19.9c-9.6,2.8-17.1,10.3-19.9,19.9h-14.1c-2.2,0-4,1.7-4,3.9v31.7
		c0,2.2,1.8,3.9,4,3.9h84.4c2.2,0,4-1.7,4-3.9v-31.7C302.1,279.6,300.3,277.8,298.1,277.8z"/>
	<path class="st3" d="M227.8,277.8h-14.1c-2.2,0-4,1.7-4,3.9v31.7c0,2.2,1.8,3.9,4,3.9h42.2v-60.7
		C242.8,256.7,231.4,265.3,227.8,277.8z"/>
	<path class="st4" d="M270.4,287.4c-1.9,0-3.5-1.4-3.9-3.3c-0.9-5.2-5.4-9-10.7-9c-2.2,0-4-1.8-4-4s1.8-4,4-4
		c9.1,0,17,6.6,18.5,15.6c0.4,2.2-1.1,4.2-3.2,4.6C270.9,287.4,270.7,287.5,270.4,287.4z"/>
	<path class="st9" d="M287.6,456.8v40.1l0,0c1,0,2.1-0.4,2.8-1.1l40.1-40.1c0.7-0.7,1.1-1.7,1.1-2.8h-40.1
		C289.3,452.9,287.6,454.6,287.6,456.8L287.6,456.8z"/>
</g>
</svg>
