<svg width="520" height="514" viewBox="0 0 520 514" fill="none" xmlns="http://www.w3.org/2000/svg">
<g filter="url(#filter0_dd_384_1538)">
<path d="M357.376 247.945H354.152H350.871C346.685 247.945 343.291 251.513 343.291 255.783V289.534C343.291 293.862 346.742 297.372 350.871 297.372H354.152H357.376C359.243 297.372 360.883 295.792 360.883 293.745V251.513C360.827 249.642 359.299 247.945 357.376 247.945Z" fill="#0295AA"/>
<path d="M488.441 297.368H485.217C483.35 297.368 481.709 295.788 481.709 293.741V251.509C481.709 249.579 483.237 247.883 485.217 247.883H488.441H491.722C495.908 247.883 499.302 251.451 499.302 255.721V289.53C499.302 293.858 495.851 297.368 491.722 297.368H488.441Z" fill="#4ACFD9"/>
<path d="M458.234 216.474H434.25C431.874 216.474 429.668 214.252 429.668 211.736V210.625H421.296V288.713H422.993H426.161C427.123 288.713 427.858 289.532 427.858 290.409V293.685C427.858 294.679 427.066 295.439 426.161 295.439H422.993V295.498H421.296V320.767H458.234C467.851 320.767 475.713 312.636 475.713 302.693V234.432C475.713 224.488 467.794 216.357 458.234 216.474ZM451.899 293.626C451.899 294.679 451.05 295.498 450.089 295.498H440.529C439.567 295.498 438.719 294.621 438.719 293.626V290.585C438.719 289.532 439.567 288.713 440.529 288.713H450.032C451.05 288.713 451.842 289.59 451.842 290.585V293.626H451.899ZM445.281 265.725C440.472 265.725 436.569 261.689 436.569 256.717C436.569 251.745 440.472 247.709 445.281 247.709C450.089 247.709 453.992 251.745 453.992 256.717C453.992 261.689 450.089 265.725 445.281 265.725Z" fill="#4ACFD9"/>
<path d="M422.993 295.438H421.296V295.496H422.993V295.438Z" fill="#4ACFD9"/>
<path d="M432.271 207.582C436.061 205.008 434.986 199.218 431.366 196.293C431.366 196.293 421.354 203.956 421.354 210.565C424.295 210.565 429.725 210.565 429.725 210.565C429.725 210.565 429.216 209.688 432.271 207.582Z" fill="#4ACFD9"/>
<path d="M421.297 210.625H412.925V211.619C412.925 214.369 410.209 216.357 407.664 216.357H384.415C374.799 216.357 366.936 224.488 366.936 234.432V302.751C366.936 312.695 374.799 320.825 384.415 320.825H421.297V295.498H416.432C415.47 295.498 414.735 294.679 414.735 293.743V290.468C414.735 289.473 415.527 288.713 416.432 288.713H419.034H421.353V210.625H421.297ZM403.874 293.743C403.874 294.738 403.082 295.498 402.177 295.498H392.448C391.486 295.498 390.751 294.679 390.751 293.743V290.468C390.751 289.473 391.543 288.713 392.448 288.713H402.177C403.082 288.713 403.874 289.532 403.874 290.468V293.743ZM397.312 265.667C392.504 265.667 388.601 261.631 388.601 256.659C388.601 251.687 392.504 247.651 397.312 247.651C402.12 247.651 406.024 251.745 406.024 256.659C406.024 261.631 402.12 265.667 397.312 265.667Z" fill="#0295AA"/>
<path d="M418.978 197.578C415.754 199.742 412.925 203.427 412.925 210.622C416.828 210.622 418.356 210.622 421.297 210.622C421.297 203.895 431.423 196.232 431.423 196.232C427.802 193.308 422.146 195.413 418.978 197.578Z" fill="#0295AA"/>
<path d="M350.814 277.659C351.154 278.186 351.323 278.887 351.097 279.531C350.249 283.274 350.927 287.193 352.964 290.235C353.643 291.229 353.416 292.692 352.568 293.452C351.606 294.213 350.249 294.037 349.57 293.101C346.685 289.007 345.78 283.742 346.968 278.712C347.251 277.484 348.382 276.723 349.57 277.016C350.192 276.957 350.475 277.25 350.814 277.659Z" fill="#FFD1A9"/>
<path d="M493.249 276.954C494.381 276.662 495.569 277.481 495.851 278.65C497.096 283.681 496.134 288.945 493.249 293.04C492.571 293.976 491.269 294.151 490.251 293.391C489.403 292.63 489.12 291.226 489.855 290.173C491.892 287.073 492.627 283.213 491.722 279.469C491.496 278.826 491.665 278.124 492.005 277.598C492.344 277.247 492.684 276.954 493.249 276.954Z" fill="#FFD1A9"/>
<path d="M457.16 179.036L447.374 188.804C446.073 190.091 443.98 190.091 442.622 188.745C441.321 187.4 441.321 185.294 442.679 184.007L452.465 174.239C453.766 172.952 455.859 172.952 457.216 174.298C458.461 175.585 458.461 177.69 457.16 179.036Z" fill="#FD6A33"/>
<path d="M465.023 199.689C464.4 200.332 463.608 200.683 462.59 200.625L450.146 200.566C448.279 200.566 446.808 199.104 446.808 197.115C446.808 195.302 448.279 193.781 450.202 193.723L462.647 193.781C464.513 193.781 465.984 195.243 465.984 197.232C466.041 198.227 465.588 199.104 465.023 199.689Z" fill="#FD6A33"/>
<path d="M436.682 183.425C436.06 184.069 435.268 184.42 434.25 184.361C432.383 184.361 430.913 182.899 430.913 180.91L430.969 168.393C430.969 166.579 432.44 165.058 434.363 165C436.23 165 437.701 166.462 437.701 168.451V180.969C437.644 181.963 437.361 182.782 436.682 183.425Z" fill="#FD6A33"/>
<path d="M421.296 418.039V414.003L431.761 399.672L450.541 358.961L459.818 360.657L477.071 373.467L467.398 403.708L436.173 436.698H421.296V418.039Z" fill="white"/>
<path d="M421.297 330.359C427.463 330.359 429.216 331.588 431.196 335.916C434.307 342.584 437.645 349.37 434.251 352.938C430.8 356.506 425.2 358.085 421.24 358.085V330.359H421.297Z" fill="#0295AA"/>
<path d="M421.296 360.834C421.296 360.834 426.953 360.6 428.537 359.664C430.064 358.728 434.59 386.395 434.024 394.525C433.458 402.656 431.026 401.311 431.026 401.311L421.296 416.46V360.834Z" fill="#0295AA"/>
<path d="M421.297 417.863V414.003L410.832 399.672L392.052 358.961L382.775 360.657L365.522 373.467L375.195 403.708L406.42 436.698L421.297 436.522V417.863Z" fill="#E6EAEA"/>
<path d="M421.296 430.616C444.149 430.616 462.647 391.134 462.647 364.461H480.126C480.126 397.392 487.423 449.568 515.593 449.568V464.542H421.296V430.616Z" fill="#0295AA"/>
<path d="M421.297 430.616C398.444 430.616 379.946 391.134 379.946 364.461H362.467C362.467 397.392 355.17 449.568 327 449.568V464.542H421.297V430.616Z" fill="#FD6A33"/>
<path d="M462.59 346.91C470.283 349.133 482.897 360.071 487.705 363.171C489.855 364.516 495.512 368.962 493.362 372.471C493.362 372.471 467.851 358.141 462.42 367.617C456.99 377.092 452.974 385.808 447.43 393.938C440.925 403.473 424.69 420.085 424.69 420.085C422.88 420.494 422.597 420.377 422.032 419.968C421.24 419.266 420.957 416.341 421.636 414.06L453.143 353.988C454.444 350.127 458.63 346.91 462.59 346.91Z" fill="#CDD4D5"/>
<path d="M421.296 330.359C415.13 330.359 413.377 331.588 411.397 335.916C408.286 342.584 404.949 349.37 408.343 352.938C411.793 356.506 417.393 358.085 421.353 358.085V330.359H421.296Z" fill="#0295AA"/>
<path d="M421.297 360.95C421.297 360.95 415.64 360.716 414.057 359.721C412.529 358.727 408.004 386.453 408.57 394.583C409.135 402.714 411.568 401.368 411.568 401.368L421.297 416.459V360.95Z" fill="#0295AA"/>
<path d="M380.003 346.91C383.906 346.91 388.149 350.127 389.393 353.929L420.901 414.001C421.579 416.341 421.297 418.915 420.505 419.909C420.109 420.377 420.165 420.436 417.846 420.026C417.846 420.026 401.611 403.356 395.106 393.88C389.563 385.691 385.547 377.034 380.116 367.558C374.686 358.082 349.174 372.413 349.174 372.413C347.138 368.903 352.681 364.516 354.831 363.113C359.696 360.071 372.31 349.191 380.003 346.91Z" fill="#9BAAAB"/>
<path d="M421.297 449.684C423.702 449.684 425.652 447.667 425.652 445.18C425.652 442.692 423.702 440.676 421.297 440.676C418.891 440.676 416.941 442.692 416.941 445.18C416.941 447.667 418.891 449.684 421.297 449.684Z" fill="#365558"/>
<path d="M38.9989 237.352H35.1076H31.148C26.0961 237.352 22 241.161 22 245.721V281.758C22 286.38 26.1644 290.127 31.148 290.127H35.1076H38.9989C41.2518 290.127 43.2316 288.441 43.2316 286.255V241.161C43.1633 239.163 41.3201 237.352 38.9989 237.352Z" fill="#9BAAAB"/>
<path d="M181.689 290.127H178.131C176.071 290.127 174.261 288.443 174.261 286.26V241.219C174.261 239.161 175.947 237.352 178.131 237.352H181.689H185.309C189.928 237.352 193.673 241.157 193.673 245.711V281.768C193.673 286.384 189.866 290.127 185.309 290.127H181.689Z" fill="#C4C4C4"/>
<path d="M148.905 204.717H122.436C119.814 204.717 117.379 202.366 117.379 199.706V198.531H108.14V281.106H110.012H113.508C114.57 281.106 115.381 281.972 115.381 282.9V286.364C115.381 287.415 114.507 288.219 113.508 288.219H110.012V288.281H108.14V315.002H148.905C159.517 315.002 168.195 306.404 168.195 295.889V223.706C168.195 213.191 159.455 204.593 148.905 204.717ZM141.913 286.302C141.913 287.415 140.976 288.281 139.915 288.281H129.365C128.304 288.281 127.367 287.353 127.367 286.302V283.085C127.367 281.972 128.304 281.106 129.365 281.106H139.853C140.976 281.106 141.85 282.034 141.85 283.085V286.302H141.913ZM134.609 256.797C129.303 256.797 124.995 252.53 124.995 247.272C124.995 242.014 129.303 237.747 134.609 237.747C139.915 237.747 144.223 242.014 144.223 247.272C144.223 252.53 139.915 256.797 134.609 256.797Z" fill="#C4C4C4"/>
<path d="M120.097 195.485C124.248 192.859 123.071 186.952 119.106 183.969C119.106 183.969 108.14 191.785 108.14 198.528C111.361 198.528 117.309 198.528 117.309 198.528C117.309 198.528 116.751 197.633 120.097 195.485Z" fill="#C4C4C4"/>
<path d="M108.079 198.531H99.1198V199.582C99.1198 202.488 96.2141 204.59 93.49 204.59H68.6098C58.3187 204.59 49.9043 213.183 49.9043 223.692V295.899C49.9043 306.409 58.3187 315.002 68.6098 315.002H108.079V288.233H102.873C101.844 288.233 101.057 287.368 101.057 286.379V282.917C101.057 281.866 101.904 281.062 102.873 281.062H105.658H108.14V198.531H108.079ZM89.4341 286.379C89.4341 287.43 88.5866 288.233 87.618 288.233H77.2059C76.1768 288.233 75.3898 287.368 75.3898 286.379V282.917C75.3898 281.866 76.2373 281.062 77.2059 281.062H87.618C88.5866 281.062 89.4341 281.928 89.4341 282.917V286.379ZM82.4119 256.705C77.2664 256.705 73.0895 252.439 73.0895 247.184C73.0895 241.93 77.2664 237.664 82.4119 237.664C87.5575 237.664 91.7344 241.991 91.7344 247.184C91.7344 252.439 87.5575 256.705 82.4119 256.705Z" fill="#9BAAAB"/>
<path d="M105.591 185.529C102.101 187.686 99.0405 191.359 99.0405 198.53C103.265 198.53 104.917 198.53 108.101 198.53C108.101 191.826 119.059 184.188 119.059 184.188C115.141 181.274 109.019 183.372 105.591 185.529Z" fill="#9BAAAB"/>
<path d="M31.4456 269.63C31.8035 270.176 31.9825 270.903 31.7439 271.57C30.849 275.45 31.5649 279.511 33.7125 282.663C34.4283 283.694 34.1897 285.209 33.2949 285.997C32.2808 286.785 30.849 286.603 30.1332 285.633C27.0908 281.39 26.1363 275.934 27.3891 270.721C27.6873 269.448 28.8804 268.66 30.1332 268.963C30.7894 268.903 31.0877 269.206 31.4456 269.63Z" fill="#FFD1A9"/>
<path d="M187.357 268.96C188.542 268.657 189.785 269.506 190.082 270.718C191.385 275.933 190.378 281.389 187.357 285.633C186.646 286.603 185.284 286.785 184.218 285.997C183.329 285.209 183.033 283.754 183.803 282.662C185.935 279.449 186.705 275.448 185.758 271.567C185.521 270.9 185.698 270.173 186.054 269.627C186.409 269.263 186.765 268.96 187.357 268.96Z" fill="#FFD1A9"/>
<path d="M147.128 164.423L136.687 174.49C135.299 175.816 133.066 175.816 131.618 174.43C130.23 173.043 130.23 170.873 131.678 169.547L142.119 159.479C143.507 158.153 145.74 158.153 147.188 159.54C148.516 160.866 148.516 163.036 147.128 164.423Z" fill="#FFD1A9"/>
<path d="M156.206 186.7C155.517 187.322 154.64 187.661 153.513 187.604L139.738 187.548C137.672 187.548 136.044 186.135 136.044 184.214C136.044 182.463 137.672 180.994 139.801 180.938L153.576 180.994C155.642 180.994 157.27 182.406 157.27 184.327C157.333 185.288 156.832 186.135 156.206 186.7Z" fill="#FFD1A9"/>
<path d="M124.73 169.045C124.119 169.71 123.34 170.072 122.339 170.012C120.504 170.012 119.059 168.5 119.059 166.445L119.114 153.507C119.114 151.632 120.56 150.06 122.451 150C124.286 150 125.731 151.511 125.731 153.567V166.505C125.676 167.533 125.398 168.379 124.73 169.045Z" fill="#FFD1A9"/>
<path d="M181.938 139.223H177.168H172.315C166.122 139.223 161.101 144.327 161.101 150.436V198.721C161.101 204.914 166.206 209.935 172.315 209.935H177.168H181.938C184.7 209.935 187.127 207.676 187.127 204.747V144.327C187.043 141.649 184.783 139.223 181.938 139.223Z" fill="#FD6A33"/>
<path d="M375.832 209.933H371.062C368.3 209.933 365.874 207.673 365.874 204.744V144.325C365.874 141.564 368.133 139.137 371.062 139.137H375.832H380.685C386.878 139.137 391.899 144.241 391.899 150.35V198.719C391.899 204.912 386.794 209.933 380.685 209.933H375.832Z" fill="#FF8C29"/>
<path d="M331.145 94.2004H295.663C292.149 94.2004 288.885 91.0204 288.885 87.422V85.832H276.5V197.549H279.01H283.697C285.119 197.549 286.207 198.721 286.207 199.976V204.662C286.207 206.085 285.036 207.173 283.697 207.173H279.01V207.256H276.5V243.408H331.145C345.371 243.408 357.003 231.776 357.003 217.549V119.891C357.003 105.665 345.288 94.033 331.145 94.2004ZM321.773 204.578C321.773 206.085 320.517 207.256 319.095 207.256H304.952C303.53 207.256 302.274 206.001 302.274 204.578V200.227C302.274 198.721 303.53 197.549 304.952 197.549H319.011C320.517 197.549 321.689 198.804 321.689 200.227V204.578H321.773ZM311.982 164.662C304.869 164.662 299.094 158.887 299.094 151.774C299.094 144.661 304.869 138.887 311.982 138.887C319.095 138.887 324.869 144.661 324.869 151.774C324.869 158.887 319.095 164.662 311.982 164.662Z" fill="#FF8C29"/>
<path d="M279.01 207.172H276.5V207.256H279.01V207.172Z" fill="#FF8C29"/>
<path d="M292.735 81.479C298.342 77.7969 296.752 69.5123 291.396 65.3281C291.396 65.3281 276.584 76.2906 276.584 85.7468C280.936 85.7468 288.969 85.7468 288.969 85.7468C288.969 85.7468 288.216 84.4916 292.735 81.479Z" fill="#FF8C29"/>
<path d="M276.5 85.832H264.115V87.2546C264.115 91.1878 260.098 94.033 256.332 94.033H221.939C207.713 94.033 196.081 105.665 196.081 119.891V217.633C196.081 231.859 207.713 243.491 221.939 243.491H276.5V207.256H269.303C267.881 207.256 266.793 206.085 266.793 204.746V200.06C266.793 198.637 267.964 197.549 269.303 197.549H273.153H276.584V85.832H276.5ZM250.726 204.746C250.726 206.168 249.554 207.256 248.215 207.256H233.822C232.399 207.256 231.311 206.085 231.311 204.746V200.06C231.311 198.637 232.483 197.549 233.822 197.549H248.215C249.554 197.549 250.726 198.721 250.726 200.06V204.746ZM241.018 164.578C233.905 164.578 228.131 158.804 228.131 151.691C228.131 144.578 233.905 138.803 241.018 138.803C248.132 138.803 253.906 144.661 253.906 151.691C253.906 158.804 248.132 164.578 241.018 164.578Z" fill="#FD6A33"/>
<path d="M273.069 67.1697C268.299 70.266 264.115 75.538 264.115 85.8311C269.889 85.8311 272.149 85.8311 276.5 85.8311C276.5 76.2075 291.48 65.245 291.48 65.245C286.124 61.0608 277.756 64.0734 273.069 67.1697Z" fill="#FD6A33"/>
<path d="M172.231 181.733C172.733 182.486 172.984 183.49 172.649 184.411C171.394 189.766 172.398 195.373 175.411 199.725C176.415 201.147 176.08 203.239 174.825 204.327C173.403 205.415 171.394 205.164 170.39 203.825C166.122 197.967 164.783 190.436 166.541 183.239C166.959 181.482 168.633 180.394 170.39 180.812C171.31 180.729 171.729 181.147 172.231 181.733Z" fill="#FFD1A9"/>
<path d="M382.945 180.726C384.619 180.307 386.376 181.479 386.795 183.153C388.636 190.349 387.213 197.881 382.945 203.739C381.941 205.078 380.016 205.329 378.51 204.241C377.255 203.153 376.836 201.145 377.924 199.638C380.937 195.203 382.025 189.68 380.686 184.324C380.351 183.404 380.602 182.4 381.104 181.646C381.606 181.144 382.108 180.726 382.945 180.726Z" fill="#FFD1A9"/>
<path d="M329.556 40.6427L315.078 54.6178C313.154 56.4588 310.057 56.4588 308.049 54.5341C306.124 52.6094 306.124 49.5968 308.133 47.7557L322.61 33.7806C324.535 31.9396 327.631 31.9396 329.639 33.8643C331.48 35.7054 331.48 38.718 329.556 40.6427Z" fill="#F0353D"/>
<path d="M341.187 70.1841C340.267 71.1046 339.095 71.6067 337.589 71.5231L319.179 71.4394C316.417 71.4394 314.241 69.3473 314.241 66.5021C314.241 63.9079 316.417 61.7321 319.262 61.6484L337.673 61.7321C340.434 61.7321 342.61 63.8242 342.61 66.6694C342.693 68.092 342.024 69.3473 341.187 70.1841Z" fill="#F0353D"/>
<path d="M299.261 46.9188C298.341 47.8393 297.169 48.3414 295.663 48.2577C292.901 48.2577 290.726 46.1657 290.726 43.3204L290.809 25.4122C290.809 22.818 292.985 20.6423 295.83 20.5586C298.592 20.5586 300.768 22.6507 300.768 25.4959V43.4041C300.684 44.8267 300.265 45.9983 299.261 46.9188Z" fill="#F0353D"/>
<path d="M276.5 382.571V376.797L291.981 356.294L319.764 298.051L333.488 300.478L359.012 318.804L344.702 362.068L298.509 409.266H276.5V382.571Z" fill="white"/>
<path d="M276.5 257.129C285.622 257.129 288.216 258.886 291.145 265.079C295.747 274.619 300.685 284.326 295.664 289.431C290.559 294.535 282.274 296.795 276.417 296.795V257.129H276.5Z" fill="#4ACFD9"/>
<path d="M276.5 300.726C276.5 300.726 284.868 300.392 287.211 299.053C289.471 297.714 296.166 337.296 295.329 348.928C294.492 360.56 290.894 358.635 290.894 358.635L276.5 380.309V300.726Z" fill="#4ACFD9"/>
<path d="M276.5 382.32V376.797L261.019 356.294L233.236 298.051L219.512 300.478L193.988 318.804L208.298 362.068L254.491 409.266L276.5 409.015V382.32Z" fill="#E6EAEA"/>
<path d="M276.5 400.564C310.308 400.564 337.672 344.078 337.672 305.918H363.531C363.531 353.032 374.326 427.677 416 427.677V449.1H276.5V400.564Z" fill="#FD6A33"/>
<path d="M276.5 400.564C242.692 400.564 215.327 344.078 215.327 305.918H189.469C189.469 353.032 178.674 427.677 137 427.677V449.1H276.5V400.564Z" fill="#F0353D"/>
<path d="M337.589 280.812C348.97 283.992 367.631 299.641 374.744 304.076C377.924 306.001 386.292 312.361 383.112 317.382C383.112 317.382 345.371 296.88 337.338 310.436C329.304 323.993 323.363 336.462 315.162 348.094C305.538 361.734 281.521 385.5 281.521 385.5C278.843 386.086 278.425 385.919 277.588 385.333C276.416 384.329 275.998 380.144 277.002 376.881L323.614 290.938C325.538 285.415 331.731 280.812 337.589 280.812Z" fill="#CDD4D5"/>
<path d="M276.5 257.129C267.379 257.129 264.784 258.886 261.856 265.079C257.253 274.619 252.316 284.326 257.337 289.431C262.441 294.535 270.726 296.795 276.584 296.795V257.129H276.5Z" fill="#0295AA"/>
<path d="M276.5 300.896C276.5 300.896 268.132 300.561 265.789 299.139C263.529 297.716 256.835 337.382 257.672 349.014C258.508 360.646 262.107 358.721 262.107 358.721L276.5 380.312V300.896Z" fill="#0295AA"/>
<path d="M215.411 280.812C221.185 280.812 227.462 285.415 229.303 290.854L275.914 376.797C276.918 380.144 276.5 383.827 275.328 385.249C274.743 385.919 274.826 386.002 271.395 385.416C271.395 385.416 247.378 361.567 237.755 348.01C229.554 336.294 223.612 323.909 215.579 310.353C207.545 296.796 169.804 317.298 169.804 317.298C166.791 312.277 174.992 306.001 178.172 303.993C185.369 299.641 204.03 284.076 215.411 280.812Z" fill="#9BAAAB"/>
<path d="M276.5 427.844C280.059 427.844 282.944 424.959 282.944 421.401C282.944 417.842 280.059 414.957 276.5 414.957C272.942 414.957 270.057 417.842 270.057 421.401C270.057 424.959 272.942 427.844 276.5 427.844Z" fill="#365558"/>
<path d="M427.375 72.5702C400.869 97.5134 428.994 131.436 428.994 131.436C428.994 131.436 497.182 206.066 516 235V96.3161C508.109 91.3275 500.622 85.9398 492.933 80.9511C472.295 67.1825 443.36 57.6044 427.375 72.5702Z" fill="#FFD1A9"/>
<path d="M491.885 302.636C466.162 323.494 455.712 325.901 425.768 330.313C404.668 333.522 323.077 338.335 287.306 340.943C251.535 343.55 220.185 349.566 220.185 349.566C220.185 349.566 122.518 301.433 83.9337 277.166C42.5357 256.107 30.4781 264.731 12.9945 285.188C-4.48912 305.645 6.16178 336.731 22.4396 350.369C28.8704 355.583 82.527 417.755 132.164 444.83C142.815 455.66 171.754 467.694 203.104 473.71C212.75 473.911 298.761 484.34 361.863 487.749C391.203 489.554 469.779 496.173 516 506V292.609L509.368 282.18C503.54 289.199 496.909 298.224 491.885 302.636Z" fill="#FFD1A9"/>
<path d="M516 465V423.649C467.95 413.765 431.409 405.495 410.816 400.049C374.072 390.568 359.738 388.753 329.455 393.594C299.172 398.637 297.556 433.331 328.445 434.34C359.133 435.147 347.221 425.263 400.923 439.383C422.727 445.434 463.509 454.511 516 465Z" fill="#FF8C29"/>
</g>
<defs>
<filter id="filter0_dd_384_1538" x="0" y="0" width="520" height="520" filterUnits="userSpaceOnUse" color-interpolation-filters="sRGB">
<feFlood flood-opacity="0" result="BackgroundImageFix"/>
<feColorMatrix in="SourceAlpha" type="matrix" values="0 0 0 0 0 0 0 0 0 0 0 0 0 0 0 0 0 0 127 0" result="hardAlpha"/>
<feOffset dy="4"/>
<feGaussianBlur stdDeviation="2"/>
<feComposite in2="hardAlpha" operator="out"/>
<feColorMatrix type="matrix" values="0 0 0 0 0 0 0 0 0 0 0 0 0 0 0 0 0 0 0.25 0"/>
<feBlend mode="normal" in2="BackgroundImageFix" result="effect1_dropShadow_384_1538"/>
<feColorMatrix in="SourceAlpha" type="matrix" values="0 0 0 0 0 0 0 0 0 0 0 0 0 0 0 0 0 0 127 0" result="hardAlpha"/>
<feOffset dy="4"/>
<feGaussianBlur stdDeviation="2"/>
<feComposite in2="hardAlpha" operator="out"/>
<feColorMatrix type="matrix" values="0 0 0 0 0 0 0 0 0 0 0 0 0 0 0 0 0 0 0.25 0"/>
<feBlend mode="normal" in2="effect1_dropShadow_384_1538" result="effect2_dropShadow_384_1538"/>
<feBlend mode="normal" in="SourceGraphic" in2="effect2_dropShadow_384_1538" result="shape"/>
</filter>
</defs>
</svg>
