<svg width="512" height="512" viewBox="0 0 512 512" fill="none" xmlns="http://www.w3.org/2000/svg">
<g clip-path="url(#clip0_384_1718)">
<path d="M271 333.755V325.916L250.173 298.079L212.798 219L194.336 222.295L160 247.178L179.251 305.919L241.393 370H271V333.755Z" fill="white"/>
<path d="M236 333.415L236 325.916L256.827 298.079L294.202 219L312.664 222.295L347 247.178L327.749 305.919L265.607 370L236 369.659L236 333.415Z" fill="#E6EAEA"/>
<path d="M256 486.599C260.252 486.599 263.7 483.152 263.7 478.899C263.7 474.647 260.252 471.199 256 471.199C251.747 471.199 248.3 474.647 248.3 478.899C248.3 483.152 251.747 486.599 256 486.599Z" fill="#365558"/>
<path d="M426.309 219.635C395.296 241.497 428.203 271.229 428.203 271.229C428.203 271.229 507.983 336.64 530 362V240.448C520.767 236.075 512.008 231.353 503.012 226.981C478.865 214.913 445.011 206.518 426.309 219.635Z" fill="#FFD1A9"/>
<path d="M252.5 334C247.806 334 244 330.194 244 325.5C244 320.806 247.806 317 252.5 317C257.194 317 261 320.806 261 325.5C261 330.194 257.194 334 252.5 334Z" fill="#365558"/>
<path d="M307.769 266.465C296.019 280.947 284.27 295.374 272.575 309.856C275.526 312.206 278.368 314.611 281.209 316.851C281.537 317.124 282.357 317.124 282.794 316.96C286.401 315.594 290.008 314.173 293.56 312.698C294.325 312.37 294.872 312.479 295.473 312.971C297.385 314.611 299.353 316.141 301.375 317.726C302.85 318.928 304.326 320.185 305.801 321.387C304.818 322.699 303.998 323.901 303.069 324.994C298.97 330.076 295.036 335.213 290.828 340.241C285.089 347.072 278.313 352.919 271.099 358.056C269.241 359.368 267.055 360.352 264.924 361.171C262.192 362.264 259.623 361.609 257.219 359.86C255.962 358.931 254.705 358.111 253.448 357.291V387.239C253.776 387.239 254.104 387.184 254.486 387.184C263.831 387.184 271.373 394.89 271.373 404.289C271.373 413.634 263.776 421.231 254.322 421.176C254.049 421.176 253.776 421.176 253.448 421.176V442.708C254.705 443.418 255.907 444.402 257 445.495C257.601 446.096 258.366 446.588 259.077 447.08C262.192 449.211 265.525 450.14 269.187 448.938C271.427 448.282 272.957 446.478 274.488 444.894C280.28 438.664 285.964 432.434 291.647 426.094C295.965 421.231 299.845 415.984 302.905 410.192C305.583 405.164 306.293 401.94 301.648 396.584C300.337 395.108 298.752 393.852 297.495 392.376C296.347 391.01 294.981 389.644 294.544 388.004C294.052 386.31 294.107 384.179 294.653 382.485C295.91 378.768 297.604 375.162 299.244 371.609C302.632 364.396 307.222 357.893 312.195 351.717C316.349 346.689 320.502 341.716 324.765 336.579C328.481 339.585 332.088 342.427 335.53 345.378C335.858 345.651 335.913 346.471 335.858 346.963C335.367 350.296 334.765 353.63 334.11 356.964C333.782 358.658 333.891 359.915 335.585 360.844C336.514 361.335 337.225 362.155 338.044 362.811C339.684 364.177 341.378 365.489 343.017 366.855C354.767 352.318 366.516 337.946 378.211 323.464C354.767 304.555 331.322 285.537 307.769 266.465ZM325.147 326.251C320.01 326.251 315.857 322.207 315.857 317.015C315.857 312.37 320.119 307.998 324.546 307.998C330.011 307.998 334.164 311.933 334.164 317.234C334.164 322.261 330.12 326.251 325.147 326.251Z" fill="#0295AA"/>
<path d="M237.327 404.071C237.381 395.164 244.54 387.895 253.393 387.349V357.401C252.355 356.8 251.371 356.199 250.333 355.652C247.327 354.068 244.158 353.958 241.371 356.035C238.638 358.057 235.96 360.188 233.665 362.648C229.129 367.621 224.757 372.758 220.713 378.168C216.451 383.851 212.571 389.808 208.636 395.71C206.996 398.169 207.106 400.902 208.089 403.634C209.073 406.421 211.04 408.443 213.281 410.028C217.489 412.87 220.112 416.641 221.205 421.614C221.424 422.761 221.861 423.8 222.353 424.838C224.156 429.265 227.49 432.38 231.151 435.221C235.031 438.282 239.403 440.14 244.376 440.249C247.71 440.304 250.716 441.178 253.393 442.763V421.231C244.267 420.903 237.272 413.416 237.327 404.071Z" fill="#365558"/>
<path d="M313.562 259.363C318.261 253.57 322.906 247.887 327.606 242.094C354.275 257.232 377.719 276.195 398.049 299.257C393.404 304.995 388.758 310.678 384.059 316.526C360.505 297.508 337.061 278.49 313.562 259.363Z" fill="#0295AA"/>
<path d="M254.432 387.352C254.104 387.352 253.776 387.352 253.394 387.406V421.343C253.667 421.343 253.94 421.343 254.268 421.343C263.722 421.343 271.318 413.802 271.318 404.457C271.264 395.002 263.668 387.406 254.432 387.352Z" fill="#4ACFD9"/>
<path d="M237.326 404.074C237.272 413.419 244.267 420.906 253.393 421.289V387.352C244.485 387.898 237.326 395.166 237.326 404.074Z" fill="#0295AA"/>
<path d="M334.164 317.236C334.164 322.209 330.12 326.253 325.147 326.307C320.01 326.307 315.857 322.263 315.857 317.072C315.857 312.427 320.12 308.055 324.546 308.055C330.066 308.055 334.164 311.989 334.164 317.236Z" fill="#365558"/>
<path d="M213.554 328.276C209.236 323.412 210.329 324.887 205.957 319.86C209.51 316.69 212.898 313.63 216.395 310.624C216.723 310.351 217.543 310.405 217.98 310.569C221.204 311.662 224.429 312.701 227.598 313.958C229.183 314.559 230.495 314.668 231.697 313.193C232.298 312.427 233.282 311.772 234.047 311.116C235.632 309.695 237.217 308.274 238.856 306.799C226.451 292.809 214.1 278.928 201.749 264.992C179.07 285.103 156.445 305.105 133.821 325.215C146.226 339.205 158.577 353.086 170.873 367.022C173.715 364.453 176.502 362.103 179.179 359.59C179.507 359.316 179.617 358.497 179.562 358.059C178.797 354.289 177.977 350.518 177.048 346.802C176.884 345.927 176.993 345.49 177.649 344.944C179.562 343.304 181.365 341.61 183.333 339.916C184.754 338.659 186.229 337.402 187.705 336.145C188.798 337.293 189.836 338.331 190.82 339.424C195.192 344.233 194.7 344.452 198.307 349.971C201.039 354.125 199.837 353.086 201.422 355.272L220.166 334.287C216.833 331.281 216.505 331.664 213.554 328.276ZM195.629 317.838C194.754 322.92 190.164 326.308 185.027 325.543C180.436 324.833 176.83 319.914 177.54 315.542C178.469 310.132 182.95 306.689 188.197 307.564C193.17 308.274 196.448 312.919 195.629 317.838Z" fill="#FD6A33"/>
<path d="M185.028 325.486C190.11 326.251 194.81 322.917 195.629 317.78C196.394 312.862 193.061 308.271 188.143 307.397C182.951 306.523 178.415 309.966 177.486 315.376C176.83 319.857 180.492 324.721 185.028 325.486Z" fill="#365558"/>
<path d="M229.403 398.553C230.277 399.428 230.714 400.521 230.605 401.832C230.004 408.718 232.408 415.495 237.272 420.358C238.857 421.943 238.857 424.566 237.272 426.151C235.687 427.736 233.064 427.736 231.479 426.151C224.867 419.539 221.588 410.412 222.407 401.122C222.626 398.881 224.593 397.242 226.889 397.406C227.818 397.46 228.692 397.898 229.403 398.553Z" fill="white"/>
<path d="M313.562 259.363C318.261 253.57 322.906 247.887 327.606 242.094C354.275 257.232 377.719 276.195 398.049 299.257C393.404 304.995 388.758 310.678 384.059 316.526C360.505 297.508 337.061 278.49 313.562 259.363Z" fill="#0295AA"/>
<path d="M325.476 258.106L329.574 253.078C350.723 265.866 369.96 281.441 386.846 299.53L382.748 304.557L325.476 258.106Z" fill="#4ACFD9"/>
<path d="M180.874 241.547C154.861 257.887 132.236 277.943 113 301.77C117.918 307.399 122.782 312.809 127.755 318.383C150.38 298.272 172.95 278.271 195.629 258.16C190.656 252.586 185.792 247.066 180.874 241.547Z" fill="#FF8C29"/>
<path d="M124.203 301.606C140.215 282.807 158.741 266.358 179.399 252.641L183.716 257.45L128.466 306.415L124.203 301.606Z" fill="#FFD1A9"/>
<path d="M175.96 97.1211H172.056H168.083C163.015 97.1211 158.905 101.299 158.905 106.299V145.819C158.905 150.887 163.083 154.997 168.083 154.997H172.056H175.96C178.22 154.997 180.206 153.147 180.206 150.75V101.299C180.138 99.1074 178.288 97.1211 175.96 97.1211Z" fill="#FD6A33"/>
<path d="M334.655 154.999H330.751C328.491 154.999 326.504 153.149 326.504 150.752V101.301C326.504 99.0409 328.354 97.0547 330.751 97.0547H334.655H338.627C343.696 97.0547 347.805 101.233 347.805 106.233V145.821C347.805 150.889 343.627 154.999 338.627 154.999H334.655Z" fill="#FF8C29"/>
<path d="M298.081 60.2711H269.04C266.163 60.2711 263.492 57.6684 263.492 54.7232V53.4219H253.355V144.858H255.41H259.246C260.41 144.858 261.301 145.817 261.301 146.845V150.68C261.301 151.845 260.342 152.735 259.246 152.735H255.41V152.803H253.355V182.392H298.081C309.724 182.392 319.245 172.872 319.245 161.228V81.298C319.245 69.6544 309.656 60.1341 298.081 60.2711ZM290.41 150.612C290.41 151.845 289.382 152.803 288.218 152.803H276.643C275.478 152.803 274.451 151.776 274.451 150.612V147.05C274.451 145.817 275.478 144.858 276.643 144.858H288.149C289.382 144.858 290.341 145.886 290.341 147.05V150.612H290.41ZM282.396 117.941C276.574 117.941 271.848 113.215 271.848 107.393C271.848 101.572 276.574 96.8457 282.396 96.8457C288.218 96.8457 292.944 101.572 292.944 107.393C292.944 113.215 288.218 117.941 282.396 117.941Z" fill="#FF8C29"/>
<path d="M255.41 152.738H253.355V152.807H255.41V152.738Z" fill="#FF8C29"/>
<path d="M266.643 49.8595C271.232 46.8459 269.93 40.0652 265.547 36.6406C265.547 36.6406 253.424 45.613 253.424 53.3526C256.985 53.3526 263.561 53.3526 263.561 53.3526C263.561 53.3526 262.944 52.3252 266.643 49.8595Z" fill="#FF8C29"/>
<path d="M253.356 53.4219H243.219V54.5862C243.219 57.8053 239.932 60.1341 236.85 60.1341H208.7C197.056 60.1341 187.536 69.6544 187.536 81.298V161.296C187.536 172.94 197.056 182.46 208.7 182.46H253.356V152.803H247.466C246.302 152.803 245.411 151.845 245.411 150.749V146.913C245.411 145.749 246.37 144.858 247.466 144.858H250.617H253.425V53.4219H253.356ZM232.261 150.749C232.261 151.913 231.302 152.803 230.206 152.803H218.425C217.261 152.803 216.371 151.845 216.371 150.749V146.913C216.371 145.749 217.33 144.858 218.425 144.858H230.206C231.302 144.858 232.261 145.817 232.261 146.913V150.749ZM224.316 117.873C218.494 117.873 213.768 113.147 213.768 107.325C213.768 101.503 218.494 96.7772 224.316 96.7772C230.138 96.7772 234.863 101.572 234.863 107.325C234.863 113.147 230.138 117.873 224.316 117.873Z" fill="#FD6A33"/>
<path d="M250.548 38.1506C246.644 40.6848 243.219 44.9998 243.219 53.4243C247.945 53.4243 249.794 53.4243 253.356 53.4243C253.356 45.5477 265.616 36.5753 265.616 36.5753C261.233 33.1507 254.383 35.6164 250.548 38.1506Z" fill="#FD6A33"/>
<path d="M168.015 131.917C168.426 132.533 168.631 133.355 168.357 134.108C167.33 138.492 168.152 143.081 170.617 146.642C171.439 147.807 171.165 149.519 170.138 150.409C168.973 151.3 167.33 151.094 166.508 149.998C163.015 145.204 161.919 139.04 163.357 133.149C163.7 131.711 165.069 130.821 166.508 131.163C167.261 131.095 167.604 131.437 168.015 131.917Z" fill="#FFD1A9"/>
<path d="M340.478 131.093C341.848 130.751 343.286 131.71 343.628 133.079C345.135 138.97 343.971 145.134 340.478 149.928C339.656 151.024 338.081 151.23 336.848 150.339C335.82 149.449 335.478 147.805 336.368 146.572C338.834 142.942 339.724 138.422 338.628 134.038C338.355 133.285 338.56 132.463 338.971 131.847C339.382 131.436 339.793 131.093 340.478 131.093Z" fill="#FFD1A9"/>
<path d="M296.78 16.4372L284.931 27.8754C283.355 29.3822 280.821 29.3822 279.177 27.8069C277.602 26.2316 277.602 23.7659 279.246 22.259L291.095 10.8209C292.67 9.3141 295.205 9.31409 296.848 10.8894C298.355 12.3962 298.355 14.8619 296.78 16.4372Z" fill="#F0353D"/>
<path d="M306.299 40.6151C305.546 41.3685 304.587 41.7794 303.354 41.7109L288.286 41.6424C286.026 41.6424 284.245 39.9302 284.245 37.6014C284.245 35.4782 286.026 33.6974 288.355 33.6289L303.423 33.6974C305.683 33.6974 307.464 35.4097 307.464 37.7384C307.532 38.9028 306.984 39.9301 306.299 40.6151Z" fill="#F0353D"/>
<path d="M271.986 21.5749C271.232 22.3283 270.273 22.7393 269.041 22.6708C266.78 22.6708 265 20.9585 265 18.6298L265.068 3.97252C265.068 1.84928 266.849 0.0684918 269.178 0C271.438 0 273.219 1.71229 273.219 4.04101V18.6983C273.15 19.8626 272.808 20.8215 271.986 21.5749Z" fill="#F0353D"/>
<path d="M253.356 193.625C260.821 193.625 262.944 195.063 265.342 200.132C269.109 207.94 273.15 215.885 269.04 220.063C264.862 224.241 258.082 226.09 253.287 226.09V193.625H253.356Z" fill="#4ACFD9"/>
<path d="M253.355 229.311C253.355 229.311 260.205 229.037 262.122 227.941C263.972 226.845 269.451 259.242 268.766 268.762C268.081 278.283 265.136 276.707 265.136 276.707L253.355 294.447V229.311Z" fill="#4ACFD9"/>
<path d="M253.356 193.625C245.89 193.625 243.767 195.063 241.37 200.132C237.603 207.94 233.562 215.885 237.671 220.063C241.849 224.241 248.63 226.09 253.424 226.09V193.625H253.356Z" fill="#0295AA"/>
<path d="M253.356 229.449C253.356 229.449 246.507 229.175 244.589 228.011C242.74 226.847 237.26 259.312 237.945 268.832C238.63 278.352 241.575 276.777 241.575 276.777L253.356 294.448V229.449Z" fill="#0295AA"/>
<path d="M203.357 213.008C208.083 213.008 213.219 216.775 214.726 221.227L252.876 291.568C253.698 294.308 253.356 297.321 252.397 298.486C251.917 299.033 251.986 299.102 249.178 298.623C249.178 298.623 229.52 279.102 221.644 268.007C214.932 258.418 210.069 248.281 203.494 237.185C196.918 226.09 166.029 242.87 166.029 242.87C163.563 238.761 170.275 233.624 172.878 231.98C178.768 228.418 194.042 215.679 203.357 213.008Z" fill="#9BAAAB"/>
<path d="M303.354 213.008C312.669 215.61 327.943 228.418 333.764 232.049C336.367 233.624 343.216 238.829 340.614 242.939C340.614 242.939 309.724 226.158 303.149 237.254C296.573 248.35 291.711 258.555 284.998 268.075C277.122 279.239 257.465 298.691 257.465 298.691C255.273 299.17 254.93 299.033 254.245 298.554C253.287 297.732 252.944 294.308 253.766 291.636L291.916 221.295C293.491 216.775 298.56 213.008 303.354 213.008Z" fill="#CDD4D5"/>
<path d="M491.685 407.77C466.816 419.281 456.713 420.609 427.764 423.044C407.364 424.815 328.483 427.471 293.9 428.91C259.316 430.349 229.007 433.669 229.007 433.669C229.007 433.669 134.583 407.106 97.2797 393.714C57.2562 382.093 45.5989 386.852 28.6958 398.141C11.7927 409.431 22.09 426.586 37.8274 434.112C44.0446 436.99 95.9197 471.301 143.909 486.243C154.206 492.219 182.184 498.86 212.493 502.18C221.819 502.291 304.974 508.047 365.981 509.928C394.347 510.924 470.314 514.577 515 520V402.236L508.589 396.481C502.954 400.355 496.543 405.335 491.685 407.77Z" fill="#FFD1A9"/>
<path d="M515 497V474.089C468.552 468.613 433.228 464.031 413.322 461.014C377.803 455.761 363.947 454.755 334.673 457.437C305.399 460.231 303.838 479.454 333.697 480.013C363.361 480.46 351.847 474.983 403.759 482.807C424.836 486.159 464.259 491.189 515 497Z" fill="#FF8C29"/>
</g>
<defs>
<clipPath id="clip0_384_1718">
<rect width="512" height="512" fill="white"/>
</clipPath>
</defs>
</svg>
