<?xml version="1.0" encoding="utf-8"?>
<!-- Generator: Adobe Illustrator 25.4.1, SVG Export Plug-In . SVG Version: 6.00 Build 0)  -->
<svg version="1.1" id="Layer_1" xmlns="http://www.w3.org/2000/svg" xmlns:xlink="http://www.w3.org/1999/xlink" x="0px" y="0px"
	 viewBox="0 0 512 512" style="enable-background:new 0 0 512 512;" xml:space="preserve">
<style type="text/css">
	.st0{fill:#ED6A3B;}
	.st1{fill:#F28A32;}
	.st2{fill:#FCD1AA;}
	.st3{fill:#E83A40;}
	.st4{fill:#FFFFFF;}
	.st5{fill:#5DC1D0;}
	.st6{fill:#E7EAEA;}
	.st7{fill:#CDD4D5;}
	.st8{fill:#0295AA;}
	.st9{fill:#9BAAAB;}
	.st10{fill:#375659;}
	.st11{fill:#697F83;}
</style>
<g>
	<path class="st0" d="M16.3,59.5H8.7c-4.8,0-8.7,3.9-8.7,8.7v37.7c0,4.8,3.9,8.7,8.7,8.7h7.5c2.2,0,4-1.8,4-4V63.5
		C20.2,61.3,18.4,59.6,16.3,59.5z"/>
	<path class="st1" d="M167.5,114.7h-3.7c-2.2,0-4-1.8-4-4V63.5c0-2.2,1.8-4,4-4h7.5c4.8,0,8.7,3.9,8.7,8.7v37.7
		c0,4.8-3.9,8.7-8.7,8.7H167.5z"/>
	<path class="st1" d="M132.7,24.4H105c-2.9-0.1-5.2-2.4-5.3-5.3v-1.2H90V105h5.6c1.1,0,1.9,0.8,2,1.9v3.7c0,1.1-0.9,2-2,2H92v0.1h-2
		v28.2h42.6c11.1,0,20.1-9,20.2-20.2V44.4C152.8,33.3,143.8,24.4,132.7,24.4C132.7,24.4,132.7,24.4,132.7,24.4z M125.4,110.5
		c0,1.2-0.9,2.1-2.1,2.1h-11c-1.1,0-2.1-0.9-2.1-2.1v-3.4c0-1.2,0.9-2.1,2.1-2.1h11c1.2,0,2.1,0.9,2.1,2.1L125.4,110.5L125.4,110.5z
		 M117.7,79.4c-5.6,0-10.1-4.5-10.1-10.1c0-5.6,4.5-10.1,10.1-10.1c5.6,0,10.1,4.5,10.1,10.1c0,0,0,0,0,0
		C127.8,74.9,123.3,79.3,117.7,79.4L117.7,79.4z"/>
	<rect x="90" y="112.5" class="st1" width="2" height="0.1"/>
	<path class="st1" d="M102.7,14.5c4.4-2.9,3.1-9.3-1-12.6c0,0-11.6,8.6-11.6,15.9h9.7C99.8,17.8,99.2,16.8,102.7,14.5z"/>
	<path class="st0" d="M90,17.8h-9.7V19c0,3.1-3.1,5.3-6.1,5.3H47.4c-11.1,0-20.1,9.1-20.2,20.2v76.3c0,11.1,9,20.1,20.2,20.2H90
		v-28.3h-5.6c-1.1,0-2-0.9-2-2V107c0-1.1,0.9-2,2-2h5.7L90,17.8L90,17.8z M69.9,110.6c0,1.1-0.9,2-2,2H56.7c-1.1,0-2-0.9-2-2V107
		c0-1.1,0.9-2,2-2H68c1.1,0,1.9,0.9,2,2L69.9,110.6z M62.3,79.3c-5.6,0-10.1-4.5-10.1-10.1c0-5.6,4.5-10.1,10.1-10.1
		c5.6,0,10.1,4.5,10.1,10.1c0,0,0,0,0,0C72.4,74.8,67.9,79.3,62.3,79.3L62.3,79.3z"/>
	<path class="st0" d="M87.4,3.3c-3.7,2.4-7,6.6-7,14.6H90c0-7.5,11.7-16.1,11.7-16.1C97.5-1.5,91,0.9,87.4,3.3z"/>
	<path class="st2" d="M8.7,92.7C9.1,93.3,9.2,94,9,94.8c-1,4.1-0.2,8.4,2.2,12c0.7,1.1,0.6,2.7-0.5,3.6c-1.1,0.9-2.6,0.7-3.5-0.4
		c0,0,0,0,0,0c-3.3-4.7-4.4-10.5-3-16.1c0.3-1.3,1.6-2.2,2.9-1.9c0,0,0.1,0,0.1,0C7.8,91.9,8.4,92.2,8.7,92.7z"/>
	<path class="st2" d="M173.1,91.9c1.3-0.3,2.7,0.6,3,1.9c1.4,5.5,0.3,11.4-3,16.1c-0.8,1.1-2.4,1.2-3.5,0.4c0,0,0,0,0,0
		c-1-0.9-1.2-2.4-0.5-3.6c2.4-3.5,3.2-7.8,2.2-12c-0.2-0.7-0.1-1.5,0.3-2.1C172,92.2,172.5,91.9,173.1,91.9z"/>
</g>
<g>
	<path class="st0" d="M348.2,60.7h-7.5c-4.8,0-8.7,3.9-8.7,8.7v37.7c0,4.8,3.9,8.7,8.7,8.7h7.5c2.2,0,4-1.8,4-4V64.7
		C352.1,62.5,350.4,60.8,348.2,60.7z"/>
	<path class="st1" d="M499.5,115.9h-3.7c-2.2,0-4-1.8-4-4V64.7c0-2.2,1.8-4,4-4h7.5c4.8,0,8.7,3.9,8.7,8.7v37.7
		c0,4.8-3.9,8.7-8.7,8.7H499.5z"/>
	<path class="st1" d="M464.6,25.6h-27.7c-2.9-0.1-5.2-2.4-5.3-5.3v-1.2H422v87.2h5.6c1.1,0,1.9,0.8,2,1.9v3.7c0,1.1-0.9,2-2,2h-3.7
		v0.1h-2V142h42.6c11.1,0,20.1-9,20.2-20.2V45.6C484.8,34.6,475.8,25.6,464.6,25.6C464.7,25.6,464.6,25.6,464.6,25.6z M457.3,111.7
		c0,1.2-0.9,2.1-2.1,2.1h-11c-1.1,0-2.1-0.9-2.1-2.1v-3.4c0-1.2,0.9-2.1,2.1-2.1h11c1.2,0,2.1,0.9,2.1,2.1L457.3,111.7L457.3,111.7z
		 M449.7,80.6c-5.6,0-10.1-4.5-10.1-10.1c0-5.6,4.5-10.1,10.1-10.1c5.6,0,10.1,4.5,10.1,10.1c0,0,0,0,0,0
		C459.7,76.1,455.2,80.6,449.7,80.6L449.7,80.6z"/>
	<rect x="422" y="113.7" class="st1" width="2" height="0.1"/>
	<path class="st1" d="M434.6,15.7c4.4-2.9,3.1-9.3-1-12.6c0,0-11.6,8.6-11.6,15.9h9.7C431.7,19,431.1,18,434.6,15.7z"/>
	<path class="st0" d="M422,19.1h-9.7v1.1c0,3.1-3.1,5.3-6.1,5.3h-26.9c-11.1,0-20.1,9.1-20.2,20.2v76.3c0,11.1,9,20.1,20.2,20.2H422
		v-28.3h-5.6c-1.1,0-2-0.9-2-2v-3.7c0-1.1,0.9-2,2-2h5.7L422,19.1L422,19.1z M401.9,111.8c0,1.1-0.9,2-2,2h-11.2c-1.1,0-2-0.9-2-2
		v-3.7c0-1.1,0.9-2,2-2h11.2c1.1,0,1.9,0.9,2,2L401.9,111.8z M394.3,80.5c-5.6,0-10.1-4.5-10.1-10.1c0-5.6,4.5-10.1,10.1-10.1
		c5.6,0,10.1,4.5,10.1,10.1c0,0,0,0,0,0C404.3,76,399.8,80.5,394.3,80.5L394.3,80.5z"/>
	<path class="st0" d="M419.3,4.5c-3.7,2.4-7,6.6-7,14.6h9.7C422,11.5,433.7,3,433.7,3C429.5-0.3,422.9,2.1,419.3,4.5z"/>
	<path class="st2" d="M340.6,93.9c0.4,0.6,0.5,1.4,0.3,2.1c-1,4.1-0.2,8.4,2.2,12c0.7,1.1,0.6,2.7-0.5,3.6c-1.1,0.9-2.6,0.7-3.5-0.4
		c0,0,0,0,0,0c-3.3-4.7-4.4-10.5-3-16.1c0.3-1.3,1.6-2.2,2.9-1.9c0,0,0.1,0,0.1,0C339.7,93.1,340.3,93.4,340.6,93.9z"/>
	<path class="st2" d="M505,93.1c1.3-0.3,2.7,0.6,3,1.9c1.4,5.5,0.3,11.4-3,16.1c-0.8,1.1-2.4,1.2-3.5,0.4c0,0,0,0,0,0
		c-1-0.9-1.2-2.4-0.5-3.6c2.4-3.5,3.2-7.8,2.2-12c-0.2-0.7-0.1-1.5,0.3-2.1C503.9,93.4,504.5,93.1,505,93.1z"/>
</g>
<path class="st0" d="M167,109.5h-9.2c-5.9,0-10.7,4.6-10.7,10.4v44.6c0,5.7,4.8,10.3,10.7,10.4h9.2c2.7,0,4.9-2.2,4.9-4.8v-55.9
	C171.8,111.6,169.7,109.5,167,109.5z"/>
<path class="st1" d="M351.7,174.8h-4.5c-2.7,0-4.9-2.2-4.9-4.8v-55.8c0-2.6,2.2-4.8,4.9-4.8h9.2c5.9,0,10.6,4.7,10.7,10.4v44.7
	c0,5.7-4.8,10.3-10.7,10.4H351.7z"/>
<path class="st1" d="M309.1,67.8h-33.8c-3.5-0.1-6.3-2.9-6.5-6.3v-1.5h-11.8v103.2h6.9c1.3,0,2.4,1,2.4,2.2v4.3
	c0,1.3-1.1,2.3-2.4,2.3h-4.5v0.1h-2.4v33.4h52c13.6,0,24.6-10.7,24.6-23.9V91.6c0-13.1-11-23.8-24.5-23.8
	C309.2,67.8,309.2,67.8,309.1,67.8z M300.2,169.8c0,1.4-1.1,2.5-2.5,2.5h-13.5c-1.4,0-2.5-1.1-2.5-2.5v-4c0-1.4,1.1-2.5,2.5-2.5
	h13.4c1.4,0,2.5,1.1,2.5,2.5L300.2,169.8L300.2,169.8z M290.9,133c-6.8,0-12.3-5.3-12.3-11.9c0-6.6,5.5-11.9,12.3-11.9
	c6.8,0,12.3,5.3,12.3,11.9c0,0,0,0,0,0C303.1,127.6,297.6,132.9,290.9,133L290.9,133z"/>
<rect x="272.1" y="172.2" class="st1" width="2.4" height="0.1"/>
<path class="st1" d="M287.5,56.1c5.3-3.4,3.8-11.1-1.3-14.9c0,0-14.1,10.1-14.1,18.9h11.8C283.9,60.1,283.2,58.9,287.5,56.1z"/>
<path class="st0" d="M257.1,60.1h-11.8v1.3c0,3.6-3.8,6.3-7.4,6.3h-32.8c-13.6,0.1-24.6,10.7-24.6,23.9v90.3
	c0,13.2,11,23.8,24.6,23.9h52v-33.5h-6.8c-1.3,0-2.4-1-2.4-2.3v-4.3c0-1.3,1.1-2.3,2.4-2.3h6.9L257.1,60.1L257.1,60.1z M232.5,170
	c0,1.3-1.1,2.3-2.4,2.3h-13.7c-1.3,0-2.4-1-2.4-2.3v-4.3c0-1.3,1.1-2.3,2.4-2.3h13.7c1.3,0,2.4,1.1,2.4,2.3L232.5,170z M223.3,132.9
	c-6.8,0-12.3-5.3-12.3-11.9c0-6.6,5.5-11.9,12.3-11.9c6.8,0,12.3,5.3,12.3,11.9c0,0,0,0,0,0C235.5,127.5,230,132.9,223.3,132.9
	L223.3,132.9z"/>
<path class="st0" d="M268.8,42.9c-4.5,2.9-8.5,7.8-8.5,17.2h11.8c0-8.9,14.3-19,14.3-19C281.2,37.2,273.3,40,268.8,42.9z"/>
<path class="st2" d="M157.8,148.7c0.5,0.7,0.7,1.6,0.4,2.5c-1.2,4.9-0.3,10,2.6,14.2c0.9,1.4,0.7,3.2-0.6,4.2
	c-1.3,1-3.2,0.8-4.2-0.4c0,0,0,0,0,0c-4-5.5-5.4-12.5-3.7-19c0.3-1.6,1.9-2.6,3.5-2.3c0,0,0.1,0,0.1,0
	C156.7,147.8,157.4,148.1,157.8,148.7z"/>
<path class="st2" d="M358.5,147.8c1.6-0.3,3.3,0.7,3.7,2.2c1.8,6.6,0.4,13.5-3.7,19c-1,1.3-2.9,1.5-4.2,0.5c0,0,0,0,0,0
	c-1.3-1.1-1.5-2.9-0.6-4.2c2.9-4.1,3.9-9.3,2.6-14.2c-0.3-0.8-0.1-1.8,0.4-2.5C357.1,148.1,357.8,147.8,358.5,147.8z"/>
<path class="st3" d="M307.6,18.4l-13.8,12.9c-1.9,1.7-4.8,1.7-6.7-0.1c-1.8-1.6-1.8-4.4-0.1-6.1c0.1-0.1,0.1-0.1,0.2-0.2L301,12
	c1.9-1.7,4.8-1.7,6.7,0.1C309.4,13.8,309.4,16.6,307.6,18.4C307.6,18.3,307.6,18.4,307.6,18.4z"/>
<path class="st3" d="M318.7,45.7c-0.9,0.9-2.1,1.3-3.4,1.2l-17.5-0.1c-2.5,0-4.6-1.9-4.7-4.4c0-0.1,0-0.1,0-0.2
	c0.1-2.5,2.2-4.5,4.8-4.5l17.5,0.1c2.5-0.1,4.7,1.9,4.7,4.4c0,0.1,0,0.1,0,0.2C320.1,43.6,319.6,44.8,318.7,45.7z"/>
<path class="st3" d="M278.7,24.2c-0.9,0.9-2.2,1.3-3.4,1.2c-2.5,0-4.6-1.9-4.7-4.4c0-0.1,0-0.1,0-0.2l0.1-16.5
	c0.1-2.5,2.2-4.4,4.8-4.4c2.5,0,4.6,1.9,4.7,4.4c0,0.1,0,0.1,0,0.2v16.5C280.2,22.1,279.7,23.3,278.7,24.2z"/>
<polygon class="st4" points="264.1,334.3 264.1,329 278.8,310 305.3,256.2 318.3,258.4 349.2,263.9 329,315.3 285,358.9 
	264.1,358.9 "/>
<path class="st5" d="M257.1,218.4c8.7,0,11.2,1.6,14,7.3c4.4,8.8,9.1,17.8,4.3,22.5c-4.8,4.7-12.8,6.8-18.3,6.8L257.1,218.4
	L257.1,218.4z"/>
<polygon class="st6" points="264.1,334.1 264.1,329 249.3,310 222.9,256.2 209.8,258.4 177.7,263.9 199.1,315.3 243.1,358.9 
	264.1,358.7 "/>
<path class="st7" d="M315.3,240.3c10.8,2.9,28.6,17.4,35.4,21.5c3,1.8,11,7.7,8,12.3c0,0-36-18.9-43.6-6.4
	c-7.6,12.5-13.3,24-21.1,34.8c-9.2,12.6-32,34.6-32,34.6c-2.5,0.5-3,0.4-3.7-0.2c-1.1-1-1.5-4.8-0.6-7.8l44.4-79.4
	C303.8,244.5,309.7,240.3,315.3,240.3"/>
<path class="st8" d="M257.1,218.4c-8.7,0-11.2,1.6-13.9,7.3c-4.4,8.8-9.1,17.8-4.3,22.5c4.8,4.7,12.8,6.8,18.3,6.8L257.1,218.4
	L257.1,218.4z"/>
<path class="st9" d="M198.9,240.3c5.5,0,11.5,4.3,13.2,9.3l44.4,79.4c1,3.1,0.6,6.5-0.6,7.8c-0.6,0.6-0.5,0.7-3.7,0.2
	c0,0-22.9-22-32-34.6c-7.8-10.8-13.5-22.3-21.1-34.8c-7.7-12.5-43.6,6.4-43.6,6.4c-2.9-4.6,4.9-10.4,8-12.3
	C170.3,257.7,188.1,243.3,198.9,240.3"/>
<g>
	<circle class="st10" cx="257.9" cy="380.8" r="6.1"/>
	<path class="st11" d="M346.5,277.4H169.1c-2.2,0-4,1.8-4,4v225.9c0,2.2,1.8,4,4,4h177.4c2.2,0,4-1.8,4-4V281.4
		C350.5,279.2,348.7,277.4,346.5,277.4z M257.8,443.1c-27.8,0-50.4-22.6-50.4-50.4c0-27.8,22.6-50.4,50.4-50.4
		c27.8,0,50.4,22.6,50.4,50.4c0,0,0,0,0,0C308.3,420.5,285.7,443.1,257.8,443.1C257.9,443.1,257.9,443.1,257.8,443.1z"/>
	<path class="st10" d="M207.4,392.7c0-27.8,22.6-50.4,50.4-50.4c0,0,0,0,0,0v-64.9h-88.7c-2.2,0-4,1.8-4,4v225.9c0,2.2,1.8,4,4,4
		h88.7v-68.2C230,443.1,207.5,420.5,207.4,392.7C207.4,392.7,207.4,392.7,207.4,392.7z"/>
	<path class="st6" d="M329.3,294.3H185.7c-2.2,0-3.9,1.8-3.9,4v194.3c0,2.2,1.7,4,3.9,4h103.5c1,0,2.1-0.4,2.8-1.1l40.1-40.1
		c0.7-0.7,1.2-1.7,1.1-2.8V298.2C333.3,296,331.5,294.3,329.3,294.3z"/>
	<path class="st1" d="M300.1,277.4H286c-4.5-15.5-20.8-24.5-36.3-19.9c-9.6,2.8-17.1,10.3-19.9,19.9h-14.1c-2.2,0-4,1.7-4,3.9V313
		c0,2.2,1.8,3.9,4,3.9h84.5c2.2,0,4-1.7,4-3.9v-31.7C304.1,279.2,302.3,277.4,300.1,277.4z"/>
	<path class="st3" d="M229.7,277.4h-14.1c-2.2,0-4,1.7-4,3.9V313c0,2.2,1.8,3.9,4,3.9h42.2v-60.7
		C244.8,256.2,233.3,264.9,229.7,277.4z"/>
	<path class="st4" d="M272.4,287c-1.9,0-3.5-1.4-3.9-3.3c-0.9-5.2-5.4-9-10.7-9c-2.2,0-4-1.8-4-4s1.8-4,4-4c9.1,0,17,6.6,18.5,15.6
		c0.4,2.2-1.1,4.2-3.2,4.6C272.9,287,272.6,287,272.4,287z"/>
	<path class="st9" d="M289.5,456.4v40.1l0,0c1,0,2.1-0.4,2.8-1.1l40.1-40.1c0.7-0.7,1.1-1.7,1.1-2.8h-40.1
		C291.3,452.4,289.5,454.2,289.5,456.4C289.5,456.4,289.5,456.4,289.5,456.4z"/>
</g>
</svg>
