<?xml version="1.0" encoding="utf-8"?>
<!-- Generator: Adobe Illustrator 25.4.1, SVG Export Plug-In . SVG Version: 6.00 Build 0)  -->
<svg version="1.1" id="Layer_1" xmlns="http://www.w3.org/2000/svg" xmlns:xlink="http://www.w3.org/1999/xlink" x="0px" y="0px"
	 viewBox="0 0 512 512" style="enable-background:new 0 0 512 512;" xml:space="preserve">
<style type="text/css">
	.st0{display:none;fill:#020202;}
	.st1{fill:#FD6A33;}
	.st2{fill:#FF8C29;}
	.st3{fill:#FFD1A9;}
	.st4{fill:#F0353D;}
	.st5{fill:#FFFFFF;}
	.st6{fill:#4ACFD9;}
	.st7{fill:#E6EAEA;}
	.st8{fill:#CDD4D5;}
	.st9{fill:#0295AA;}
	.st10{fill:#9BAAAB;}
	.st11{fill:#365558;}
	.st12{fill:#687F82;}
</style>
<rect x="192" y="22" class="st0" width="512" height="512"/>
<path class="st1" d="M143,141.7h-5.7h-5.8c-7.4,0-13.4,6.1-13.4,13.4v57.7c0,7.4,6.1,13.4,13.4,13.4h5.8h5.7c3.3,0,6.2-2.7,6.2-6.2
	v-72.2C149.1,144.6,146.4,141.7,143,141.7z"/>
<path class="st2" d="M374.7,226.2H369c-3.3,0-6.2-2.7-6.2-6.2v-72.2c0-3.3,2.7-6.2,6.2-6.2h5.7h5.8c7.4,0,13.4,6.1,13.4,13.4v57.8
	c0,7.4-6.1,13.4-13.4,13.4H374.7L374.7,226.2z"/>
<path class="st2" d="M321.3,87.9h-42.4c-4.2,0-8.1-3.8-8.1-8.1v-1.9H256v133.5h3h5.6c1.7,0,3,1.4,3,2.9v5.6c0,1.7-1.4,3-3,3H259v0.1
	h-3v43.2h65.3c17,0,30.9-13.9,30.9-30.9V118.6C352.2,101.6,338.2,87.7,321.3,87.9z M310.1,219.8c0,1.8-1.5,3.2-3.2,3.2H290
	c-1.7,0-3.2-1.5-3.2-3.2v-5.2c0-1.8,1.5-3.2,3.2-3.2h16.8c1.8,0,3.2,1.5,3.2,3.2v5.2H310.1z M298.4,172.1c-8.5,0-15.4-6.9-15.4-15.4
	s6.9-15.4,15.4-15.4s15.4,6.9,15.4,15.4C313.8,165.2,306.9,172.1,298.4,172.1z"/>
<rect x="256" y="222.9" class="st2" width="3" height="0.1"/>
<path class="st2" d="M275.4,72.7c6.7-4.4,4.8-14.3-1.6-19.3c0,0-17.7,13.1-17.7,24.4c5.2,0,14.8,0,14.8,0S270,76.3,275.4,72.7z"/>
<path class="st1" d="M256,77.9h-14.8v1.7c0,4.7-4.8,8.1-9.3,8.1h-41.1c-17,0-30.9,13.9-30.9,30.9v116.8c0,17,13.9,30.9,30.9,30.9
	H256V223h-8.6c-1.7,0-3-1.4-3-3v-5.6c0-1.7,1.4-3,3-3h4.6h4.1V77.9H256z M225.2,220c0,1.7-1.4,3-3,3H205c-1.7,0-3-1.4-3-3v-5.6
	c0-1.7,1.4-3,3-3h17.2c1.6,0,3,1.4,3,3V220z M213.6,172c-8.5,0-15.4-6.9-15.4-15.4s6.9-15.4,15.4-15.4s15.4,7,15.4,15.4
	C229,165.1,222.1,172,213.6,172z"/>
<path class="st1" d="M251.9,55.6c-5.7,3.7-10.7,10-10.7,22.3c6.9,0,9.6,0,14.8,0c0-11.5,17.9-24.6,17.9-24.6
	C267.5,48.3,257.5,51.9,251.9,55.6z"/>
<path class="st3" d="M131.4,192.5c0.6,0.9,0.9,2.1,0.5,3.2c-1.5,6.4-0.3,13.1,3.3,18.3c1.2,1.7,0.8,4.2-0.7,5.5
	c-1.7,1.3-4.1,1-5.3-0.6c-5.1-7-6.7-16-4.6-24.6c0.5-2.1,2.5-3.4,4.6-2.9C130.3,191.3,130.8,191.8,131.4,192.5z"/>
<path class="st3" d="M383.2,191.3c2-0.5,4.1,0.9,4.6,2.9c2.2,8.6,0.5,17.6-4.6,24.6c-1.2,1.6-3.5,1.9-5.3,0.6
	c-1.5-1.3-2-3.7-0.7-5.5c3.6-5.3,4.9-11.9,3.3-18.3c-0.4-1.1-0.1-2.3,0.5-3.2C381.6,191.8,382.2,191.3,383.2,191.3z"/>
<path class="st4" d="M319.4,23.9l-17.3,16.7c-2.3,2.2-6,2.2-8.4-0.1c-2.3-2.3-2.3-5.9,0.1-8.1l17.3-16.7c2.3-2.2,6-2.2,8.4,0.1
	C321.7,18,321.7,21.6,319.4,23.9z"/>
<path class="st4" d="M333.3,59.2c-1.1,1.1-2.5,1.7-4.3,1.6l-22-0.1c-3.3,0-5.9-2.5-5.9-5.9c0-3.1,2.6-5.7,6-5.8l22,0.1
	c3.3,0,5.9,2.5,5.9,5.9C335.1,56.7,334.3,58.2,333.3,59.2z"/>
<path class="st4" d="M283.2,31.4c-1.1,1.1-2.5,1.7-4.3,1.6c-3.3,0-5.9-2.5-5.9-5.9l0.1-21.4c0-3.1,2.6-5.7,6-5.8
	c3.3,0,5.9,2.5,5.9,5.9l0,21.4C284.9,28.9,284.4,30.3,283.2,31.4z"/>
<polygon class="st5" points="256,432.5 256,425.6 274.5,401.1 307.7,331.5 324.1,334.4 354.6,356.3 337.5,408 282.3,464.4 
	256,464.4 "/>
<path class="st6" d="M256,282.6c10.9,0,14,2.1,17.5,9.5c5.5,11.4,11.4,23,5.4,29.1c-6.1,6.1-16,8.8-23,8.8v-47.4H256L256,282.6z"/>
<path class="st6" d="M256,334.7c0,0,10-0.4,12.8-2c2.7-1.6,10.7,45.7,9.7,59.6s-5.3,11.6-5.3,11.6L256,429.8V334.7z"/>
<polygon class="st7" points="256,432.2 256,425.6 237.5,401.1 204.3,331.5 187.9,334.4 157.4,356.3 174.5,408 229.7,464.4 
	256,464.1 "/>
<path class="st1" d="M256,454c40.4,0,73.1-67.5,73.1-113.1H360c0,56.3,12.9,145.5,62.7,145.5V512H256V454z"/>
<path class="st4" d="M256,454c-40.4,0-73.1-67.5-73.1-113.1H152c0,56.3-12.9,145.5-62.7,145.5V512H256V454z"/>
<path class="st8" d="M329,310.9c13.6,3.8,35.9,22.5,44.4,27.8c3.8,2.3,13.8,9.9,10,15.9c0,0-45.1-24.5-54.7-8.3s-16.7,31.1-26.5,45
	C290.7,407.6,262,436,262,436c-3.2,0.7-3.7,0.5-4.7-0.2c-1.4-1.2-1.9-6.2-0.7-10.1L312.3,323C314.6,316.4,322,310.9,329,310.9"/>
<path class="st9" d="M256,282.6c-10.9,0-14,2.1-17.5,9.5c-5.5,11.4-11.4,23-5.4,29.1c6.1,6.1,16,8.8,23,8.8v-47.4H256L256,282.6z"/>
<path class="st9" d="M256,334.9c0,0-10-0.4-12.8-2.1c-2.7-1.7-10.7,45.7-9.7,59.6s5.3,11.6,5.3,11.6l17.2,25.8V334.9z"/>
<path class="st10" d="M183,310.9c6.9,0,14.4,5.5,16.6,12l55.7,102.7c1.2,4,0.7,8.4-0.7,10.1c-0.7,0.8-0.6,0.9-4.7,0.2
	c0,0-28.7-28.5-40.2-44.7c-9.8-14-16.9-28.8-26.5-45s-54.7,8.3-54.7,8.3c-3.6-6,6.2-13.5,10-15.9C147.1,333.4,169.4,314.8,183,310.9
	"/>
<circle class="st11" cx="256" cy="478.9" r="7.7"/>
<path class="st3" d="M395.3,283.3"/>
<g>
	<g>
		<path class="st2" d="M160.2,295.2H83.3v29.7h76.9c2.7,0,4.8-2.5,4.8-5.4v-18.4C164.8,297.9,162.7,295.2,160.2,295.2z"/>
		<path class="st1" d="M6.7,295.2c-2.7,0-4.8,2.5-4.8,5.4v18.4c0,3.1,2.3,5.4,4.8,5.4h76.7V295H6.7V295.2z"/>
		<rect x="9.2" y="306.3" class="st11" width="6.9" height="18.6"/>
		<rect x="24.5" y="306.3" class="st11" width="10.5" height="18.6"/>
		<rect x="47.3" y="306.3" class="st11" width="14" height="18.6"/>
		<rect x="83.3" y="306.3" class="st11" width="0.2" height="18.6"/>
		<rect x="76.6" y="306.3" class="st11" width="6.7" height="18.6"/>
		<rect x="150.8" y="306.3" class="st12" width="6.9" height="18.6"/>
		<rect x="131.9" y="306.3" class="st12" width="10.5" height="18.6"/>
		<rect x="105.5" y="306.3" class="st12" width="14" height="18.6"/>
		<rect x="83.3" y="306.3" class="st12" width="6.7" height="18.6"/>
	</g>
	<g>
		<path class="st2" d="M169.4,332.7H92.5v29.5h76.9c2.7,0,4.8-2.5,4.8-5.4v-18.4C174.2,335.2,172.1,332.7,169.4,332.7z"/>
		<path class="st1" d="M15.9,332.7c-2.7,0-4.8,2.5-4.8,5.4v18.4c0,3.1,2.3,5.4,4.8,5.4h76.7v-29.5H15.9V332.7z"/>
		<rect x="18.2" y="343.8" class="st11" width="6.9" height="18.6"/>
		<rect x="33.7" y="343.8" class="st11" width="10.5" height="18.6"/>
		<rect x="56.5" y="343.8" class="st11" width="14" height="18.6"/>
		<rect x="92.5" y="343.8" class="st11" width="0.2" height="18.6"/>
		<rect x="85.8" y="343.8" class="st11" width="6.7" height="18.6"/>
		<rect x="160" y="343.8" class="st12" width="6.9" height="18.6"/>
		<rect x="141.1" y="343.8" class="st12" width="10.5" height="18.6"/>
		<rect x="114.7" y="343.8" class="st12" width="14" height="18.6"/>
		<rect x="92.7" y="343.8" class="st12" width="6.7" height="18.6"/>
	</g>
	<g>
		<path class="st2" d="M164.8,370H87.9v29.7h76.9c2.7,0,4.8-2.5,4.8-5.4v-18.6C169.4,372.5,167.3,370,164.8,370z"/>
		<path class="st1" d="M11.3,370c-2.7,0-4.8,2.5-4.8,5.4v18.4c0,3.1,2.3,5.4,4.8,5.4h76.7v-29.5H11.3V370z"/>
		<rect x="13.6" y="381.1" class="st11" width="6.9" height="18.6"/>
		<rect x="29.1" y="381.1" class="st11" width="10.5" height="18.6"/>
		<rect x="51.9" y="381.1" class="st11" width="14" height="18.6"/>
		<rect x="87.9" y="381.1" class="st11" width="0.2" height="18.6"/>
		<rect x="81.2" y="381.1" class="st11" width="6.7" height="18.6"/>
		<rect x="155.4" y="381.1" class="st12" width="6.9" height="18.6"/>
		<rect x="136.3" y="381.1" class="st12" width="10.5" height="18.6"/>
		<rect x="110.1" y="381.1" class="st12" width="14" height="18.6"/>
		<rect x="88.1" y="381.1" class="st12" width="6.7" height="18.6"/>
	</g>
	<g>
		<path class="st2" d="M158.7,407.5H81.9v29.7h76.9c2.7,0,4.8-2.5,4.8-5.4v-18.4C163.5,409.8,161.2,407.5,158.7,407.5z"/>
		<path class="st1" d="M5.2,407.5c-2.7,0-4.8,2.5-4.8,5.4v18.4c0,3.1,2.3,5.4,4.8,5.4h76.7V407L5.2,407.5L5.2,407.5z"/>
		<rect x="7.7" y="418.4" class="st11" width="6.9" height="18.6"/>
		<rect x="23" y="418.4" class="st11" width="10.5" height="18.6"/>
		<rect x="45.8" y="418.4" class="st11" width="14" height="18.6"/>
		<rect x="81.9" y="418.4" class="st11" width="0.2" height="18.6"/>
		<rect x="75.2" y="418.4" class="st11" width="6.7" height="18.6"/>
		<rect x="149.3" y="418.4" class="st12" width="6.9" height="18.6"/>
		<rect x="130.4" y="418.4" class="st12" width="10.5" height="18.6"/>
		<rect x="104.1" y="418.4" class="st12" width="14" height="18.6"/>
		<rect x="82.1" y="418.4" class="st12" width="6.7" height="18.6"/>
	</g>
	<g>
		<path class="st2" d="M167.3,444.5H90.7v29.7h76.9c2.7,0,4.8-2.5,4.8-5.4v-18.4C172.3,447,170,444.5,167.3,444.5z"/>
		<path class="st1" d="M14,444.5c-2.7,0-4.8,2.5-4.8,5.4v18.6c0,3.1,2.3,5.4,4.8,5.4h76.7v-29.7H14V444.5z"/>
		<rect x="16.3" y="455.6" class="st11" width="6.9" height="18.6"/>
		<rect x="31.6" y="455.6" class="st11" width="10.5" height="18.6"/>
		<rect x="54.4" y="455.6" class="st11" width="14" height="18.6"/>
		<rect x="90.7" y="455.6" class="st11" width="0.2" height="18.6"/>
		<rect x="83.9" y="455.6" class="st11" width="6.7" height="18.6"/>
		<rect x="157.9" y="455.6" class="st12" width="6.9" height="18.6"/>
		<rect x="139.2" y="455.6" class="st12" width="10.5" height="18.6"/>
		<rect x="112.9" y="455.6" class="st12" width="14" height="18.6"/>
		<rect x="90.7" y="455.6" class="st12" width="6.7" height="18.6"/>
	</g>
	<g>
		<path class="st2" d="M161.2,481.8H84.6v29.7h76.9c2.7,0,4.8-2.5,4.8-5.4v-18.4C166.3,484.3,164,481.8,161.2,481.8z"/>
		<path class="st1" d="M7.9,481.8c-2.7,0-4.8,2.5-4.8,5.4v18.4c0,3.1,2.3,5.4,4.8,5.4h76.7v-29.7L7.9,481.8L7.9,481.8z"/>
		<rect x="10.2" y="492.9" class="st11" width="6.9" height="18.6"/>
		<rect x="25.7" y="492.9" class="st11" width="10.5" height="18.6"/>
		<rect x="48.3" y="492.9" class="st11" width="14" height="18.6"/>
		<rect x="84.6" y="492.9" class="st11" width="0.2" height="18.6"/>
		<rect x="77.9" y="492.9" class="st11" width="6.7" height="18.6"/>
		<rect x="151.8" y="492.9" class="st12" width="6.9" height="18.6"/>
		<rect x="133" y="492.9" class="st12" width="10.5" height="18.6"/>
		<rect x="106.8" y="492.9" class="st12" width="14" height="18.6"/>
		<rect x="84.6" y="492.9" class="st12" width="6.7" height="18.6"/>
	</g>
</g>
<g>
	<path class="st6" d="M502.8,295.4h-76.9v29.7h76.9c2.7,0,4.8-2.5,4.8-5.4v-18.4C507.6,298.2,505.5,295.4,502.8,295.4z"/>
	<path class="st9" d="M349.2,295.4c-2.7,0-4.8,2.5-4.8,5.4v18.4c0,3.1,2.3,5.4,4.8,5.4h76.7v-29.5h-76.7V295.4z"/>
	<rect x="351.8" y="306.5" class="st11" width="6.9" height="18.6"/>
	<rect x="367" y="306.5" class="st11" width="10.5" height="18.6"/>
	<rect x="389.9" y="306.5" class="st11" width="14" height="18.6"/>
	<rect x="425.9" y="306.5" class="st11" width="0.2" height="18.6"/>
	<rect x="419.4" y="306.5" class="st11" width="6.7" height="18.6"/>
	<rect x="493.3" y="306.5" class="st12" width="6.9" height="18.6"/>
	<rect x="474.5" y="306.5" class="st12" width="10.5" height="18.6"/>
	<rect x="448.1" y="306.5" class="st12" width="14" height="18.6"/>
	<rect x="426.1" y="306.5" class="st12" width="6.7" height="18.6"/>
</g>
<g>
	<path class="st6" d="M506.1,332.9h-76.9v29.5h76.9c2.7,0,4.8-2.5,4.8-5.4v-18.4C511.1,335.4,508.8,332.9,506.1,332.9z"/>
	<path class="st9" d="M352.8,332.9c-2.7,0-4.8,2.5-4.8,5.4v18.4c0,3.1,2.3,5.4,4.8,5.4h76.7v-29.5h-76.7V332.9z"/>
	<rect x="355.1" y="344" class="st11" width="6.9" height="18.6"/>
	<rect x="370.6" y="344" class="st11" width="10.5" height="18.6"/>
	<rect x="393.2" y="344" class="st11" width="14" height="18.6"/>
	<rect x="429.5" y="344" class="st11" width="0.2" height="18.6"/>
	<rect x="422.8" y="344" class="st11" width="6.7" height="18.6"/>
	<rect x="496.7" y="344" class="st12" width="6.9" height="18.6"/>
	<rect x="477.8" y="344" class="st12" width="10.5" height="18.6"/>
	<rect x="451.7" y="344" class="st12" width="14" height="18.6"/>
	<rect x="429.5" y="344" class="st12" width="6.7" height="18.6"/>
</g>
<g>
	<path class="st6" d="M506.9,370.2h-76.9v29.7h76.9c2.7,0,4.8-2.5,4.8-5.4v-18.6C511.8,372.7,509.7,370.2,506.9,370.2z"/>
	<path class="st9" d="M353.6,370.2c-2.7,0-4.8,2.5-4.8,5.4v18.4c0,3.1,2.3,5.4,4.8,5.4h76.7V370h-76.7V370.2z"/>
	<rect x="356.2" y="381.3" class="st11" width="6.9" height="18.6"/>
	<rect x="371.4" y="381.3" class="st11" width="10.5" height="18.6"/>
	<rect x="394.1" y="381.3" class="st11" width="14" height="18.6"/>
	<rect x="430.3" y="381.3" class="st11" width="0.2" height="18.6"/>
	<rect x="423.6" y="381.3" class="st11" width="6.7" height="18.6"/>
	<rect x="497.7" y="381.3" class="st12" width="6.9" height="18.6"/>
	<rect x="478.9" y="381.3" class="st12" width="10.5" height="18.6"/>
	<rect x="452.5" y="381.3" class="st12" width="14" height="18.6"/>
	<rect x="430.3" y="381.3" class="st12" width="6.7" height="18.6"/>
</g>
<g>
	<path class="st6" d="M502.8,407.7h-76.9v29.7h76.9c2.7,0,4.8-2.5,4.8-5.4v-18.4C507.8,410,505.5,407.7,502.8,407.7z"/>
	<path class="st9" d="M349.5,407.7c-2.7,0-4.8,2.5-4.8,5.4v18.4c0,3.1,2.3,5.4,4.8,5.4h76.7v-29.7L349.5,407.7L349.5,407.7z"/>
	<rect x="351.8" y="418.6" class="st11" width="6.9" height="18.6"/>
	<rect x="367.3" y="418.6" class="st11" width="10.5" height="18.6"/>
	<rect x="389.9" y="418.6" class="st11" width="14" height="18.6"/>
	<rect x="426.1" y="418.6" class="st11" width="0.2" height="18.6"/>
	<rect x="419.4" y="418.6" class="st11" width="6.7" height="18.6"/>
	<rect x="493.3" y="418.6" class="st12" width="6.9" height="18.6"/>
	<rect x="474.7" y="418.6" class="st12" width="10.5" height="18.6"/>
	<rect x="448.3" y="418.6" class="st12" width="14" height="18.6"/>
	<rect x="426.1" y="418.6" class="st12" width="6.7" height="18.6"/>
</g>
<g>
	<path class="st6" d="M497.9,445h-76.9v29.7h76.9c2.7,0,4.8-2.5,4.8-5.4v-18.4C502.5,447.5,500.5,445,497.9,445z"/>
	<path class="st9" d="M344.4,445c-2.7,0-4.8,2.5-4.8,5.4v18.4c0,3.1,2.3,5.4,4.8,5.4h76.7v-29.7L344.4,445L344.4,445z"/>
	<rect x="346.9" y="455.9" class="st11" width="6.9" height="18.6"/>
	<rect x="362.2" y="455.9" class="st11" width="10.5" height="18.6"/>
	<rect x="385.1" y="455.9" class="st11" width="14" height="18.6"/>
	<rect x="421.1" y="455.9" class="st11" width="0.2" height="18.6"/>
	<rect x="414.4" y="455.9" class="st11" width="6.7" height="18.6"/>
	<rect x="488.5" y="455.9" class="st12" width="6.9" height="18.6"/>
	<rect x="469.5" y="455.9" class="st12" width="10.5" height="18.6"/>
	<rect x="443.3" y="455.9" class="st12" width="14" height="18.6"/>
	<rect x="421.3" y="455.9" class="st12" width="6.7" height="18.6"/>
</g>
<g>
	<path class="st6" d="M501.3,482.3h-76.9V512h76.9c2.7,0,4.8-2.5,4.8-5.4v-18.4C506.1,484.8,504,482.3,501.3,482.3z"/>
	<path class="st9" d="M347.8,482.3c-2.7,0-4.8,2.5-4.8,5.4v18.4c0,3.1,2.3,5.4,4.8,5.4h76.7v-29.3H347.8L347.8,482.3z"/>
	<rect x="350.3" y="493.4" class="st11" width="6.9" height="18.6"/>
	<rect x="365.8" y="493.4" class="st11" width="10.5" height="18.6"/>
	<rect x="388.4" y="493.4" class="st11" width="14" height="18.6"/>
	<rect x="424.4" y="493.4" class="st11" width="0.2" height="18.6"/>
	<rect x="417.9" y="493.4" class="st11" width="6.7" height="18.6"/>
	<rect x="491.9" y="493.4" class="st12" width="6.9" height="18.6"/>
	<rect x="473" y="493.4" class="st12" width="10.5" height="18.6"/>
	<rect x="446.8" y="493.4" class="st12" width="14" height="18.6"/>
	<rect x="424.6" y="493.4" class="st12" width="6.7" height="18.6"/>
</g>
</svg>
