<svg width="512" height="512" viewBox="0 0 512 512" fill="none" xmlns="http://www.w3.org/2000/svg">
<g clip-path="url(#clip0_390_2003)">
<path d="M503.875 43.8906H142.125C137.656 43.8906 134 47.6172 134 52.1719V521.719C134 526.274 137.656 530.001 142.125 530.001H503.875C508.344 530.001 512 526.274 512 521.719V52.1719C511.898 47.6172 508.344 43.8906 503.875 43.8906ZM323 388.287C266.229 388.287 220.223 341.395 220.223 283.53C220.223 225.664 266.229 178.772 323 178.772C379.771 178.772 425.777 225.664 425.777 283.53C425.777 341.395 379.771 388.287 323 388.287Z" fill="#687F82"/>
<path d="M220.223 283.53C220.223 225.664 266.229 178.772 323 178.772V43.8906H142.125C137.656 43.8906 134 47.6172 134 52.1719V521.719C134 526.274 137.656 530.001 142.125 530.001H323V388.287C266.229 388.287 220.223 341.395 220.223 283.53Z" fill="#365558"/>
<path d="M468.939 96.2695H176.147C171.678 96.2695 168.124 99.9961 168.124 104.551V508.366C168.124 512.92 171.78 516.647 176.147 516.647H387.185C389.318 516.647 391.349 515.819 392.872 514.266L474.728 430.832C476.251 429.28 477.064 427.209 477.064 425.035V104.551C476.962 99.9961 473.408 96.2695 468.939 96.2695Z" fill="#E6EAEA"/>
<path d="M409.122 43.8907H380.381C373.069 18.1152 349.913 0 323 0C296.088 0 272.932 18.1152 265.62 43.8907H236.879C232.41 43.8907 228.754 47.6172 228.754 52.0684V118.008C228.754 122.563 232.41 126.186 236.879 126.186H409.122C413.59 126.186 417.247 122.459 417.247 118.008V52.1719C417.247 47.6172 413.59 43.8907 409.122 43.8907Z" fill="#FF8C29"/>
<path d="M265.62 43.8907H236.879C232.41 43.8907 228.754 47.6172 228.754 52.0684V118.008C228.754 122.563 232.41 126.186 236.879 126.186H323V0C296.088 0 272.932 18.1152 265.62 43.8907Z" fill="#F0353D"/>
<path d="M352.655 63.9707C348.795 63.9707 345.342 61.0723 344.733 57.1387C342.905 46.2695 333.765 38.4024 323 38.4024C318.531 38.4024 314.875 34.6758 314.875 30.1211C314.875 25.5664 318.531 21.8398 323 21.8398C341.686 21.8398 357.529 35.5039 360.678 54.2403C361.389 58.6914 358.444 62.9356 354.077 63.7637C353.569 63.9707 353.162 63.9707 352.655 63.9707Z" fill="white"/>
<path d="M387.59 415.926V499.36C389.723 499.36 391.754 498.532 393.277 496.979L475.133 413.545C476.656 411.992 477.469 409.922 477.469 407.748H395.613C391.246 407.645 387.59 411.371 387.59 415.926Z" fill="#9BAAAB"/>
<rect x="201" y="402" width="13" height="17" fill="#F0353D"/>
<path d="M194.874 485.188C207.503 482.525 274.29 440.247 272.067 417.181C272.067 377.217 283.628 288.442 225.378 345.71C224.488 356.357 243.609 375.448 228.935 388.41C217.374 401.202 212.483 399.698 211.149 410.523C197.809 423.38 189.449 424.736 189.449 424.736C173.442 424.736 177.088 425.979 168.55 424.736C156.545 423.049 153.877 421.536 141.871 410.883C138.759 408.398 134.401 401.828 132 399.698L132.8 493C151.476 488.916 182.958 485.987 194.874 485.188C220.131 483.501 190.961 485.277 194.874 485.188Z" fill="#FD6A33"/>
<path d="M211.241 336.985L228.604 353.681L240.769 342.079C240.67 341.985 240.474 341.796 240.376 341.702C239.199 340.758 238.12 339.721 236.943 338.777C236.354 338.306 235.864 337.834 235.275 337.268C234.392 336.514 233.509 335.665 232.725 334.91C232.136 334.344 231.449 333.684 230.861 333.118C229.978 332.269 229.193 331.42 228.31 330.571C227.82 330.099 227.329 329.533 226.839 329.062C225.76 327.93 224.779 326.892 223.7 325.76C223.601 325.666 223.503 325.477 223.307 325.383L211.241 336.985Z" fill="#365558"/>
<path d="M226.839 328.97C227.33 329.441 227.82 330.007 228.311 330.479C229.194 331.328 229.978 332.177 230.861 333.026C231.45 333.592 232.137 334.252 232.725 334.818C233.608 335.667 234.393 336.421 235.276 337.176C235.864 337.648 236.355 338.119 236.943 338.685C238.022 339.723 239.2 340.666 240.377 341.61C240.475 341.704 240.671 341.798 240.769 341.987L254.307 328.97L236.943 312.273L223.406 325.291C223.504 325.385 223.602 325.574 223.798 325.668C224.779 326.8 225.76 327.932 226.839 328.97Z" fill="#365558"/>
<path d="M240.769 342.081C240.67 341.987 240.474 341.798 240.375 341.703C240.474 341.798 240.67 341.987 240.769 342.081Z" fill="#365558"/>
<path d="M238.709 379.717C243.516 375.095 243.516 367.643 238.709 363.021L201.628 327.365C199.372 325.101 196.233 323.875 192.996 323.875C189.759 323.875 186.619 325.101 184.363 327.365L73.1203 434.239C70.8641 436.503 69.5888 439.427 69.5888 442.634C69.5888 445.747 70.8641 448.766 73.2184 450.935L110.299 486.591C112.654 488.95 115.793 490.081 118.932 490.081C121.973 490.081 125.21 488.95 127.565 486.591L238.709 379.717Z" fill="#4ACFD9"/>
<path d="M186.325 375.565C191.131 370.943 191.131 363.491 186.325 358.869C181.518 354.247 173.768 354.247 168.961 358.869L110.005 415.56C105.198 420.182 105.198 427.634 110.005 432.256C112.359 434.52 115.596 435.746 118.735 435.746C121.874 435.746 125.013 434.615 127.368 432.256L186.325 375.565Z" fill="white"/>
<path d="M283.932 164.46C285.796 165.686 287.856 165.969 290.21 165.686C292.957 165.308 295.41 163.894 296.979 161.347C305.317 148.141 319.149 139.085 335.041 136.727C340.142 135.972 343.772 131.162 343.085 126.257C342.3 121.351 337.297 117.861 332.196 118.522C310.615 121.729 291.878 133.803 280.695 151.725C277.948 156.159 279.42 161.818 283.932 164.46Z" fill="white"/>
<path d="M356.132 364.719C442.262 364.719 512.5 297.18 512.5 214.359C512.5 131.539 442.36 64 356.132 64C269.904 64 199.764 131.539 199.764 214.359C199.764 297.18 270.002 364.719 356.132 364.719ZM234.099 214.454C234.098 149.744 288.837 97.1093 356.132 97.1093C423.427 97.1092 478.166 149.744 478.166 214.454C478.166 279.163 423.427 331.798 356.132 331.798C288.935 331.798 234.197 279.069 234.099 214.454Z" fill="#365558"/>
<path d="M62 530L81.8467 508.436C81.8467 508.436 85.7627 503.999 90.9246 502.934C93.6836 502.401 112.818 498.497 134 493.882L131.953 402.656C128.66 399.727 128.749 392.717 132.042 386.505C132.309 386.061 132.576 385.528 133.021 384.996L132.576 329C122.697 335.744 109.169 340.714 102.049 345.772C91.1916 353.315 59.063 374.879 37.4363 397.065C23.4635 406.028 14.4747 434.248 8.60074 441.17C2.72682 448.091 -10 461.758 -10 461.758L62 530Z" fill="#FF8C29"/>
<path d="M166.882 342.902C166.882 342.902 178.094 329.136 167.327 319.011C160.831 312.972 149.174 316.968 141.077 322.653C138.051 324.873 135.026 326.916 132 328.958L132.445 385C139.742 373.365 166.882 342.902 166.882 342.902Z" fill="#FF8C29"/>
<path d="M49.7316 519L69.0492 497.873L69.1374 497.784L69.2256 497.694C70.9897 495.725 77.5171 489.101 86.7789 487.131L87.661 486.952C104.244 483.461 119.681 480.068 133 477.113L132.735 461C118.798 464.044 102.392 467.168 84.4855 470.839L83.6034 471.018C69.7548 473.882 60.5812 482.834 57.2293 486.684L38 507.721L49.7316 519Z" fill="#FFD1A9"/>
<path d="M178.966 466.593C200.357 460.909 203.893 444.556 216.092 444.032C228.379 443.594 225.462 428.028 213.44 426.105C201.418 424.268 189.396 447.179 174.811 451.027C166.59 453.213 152.005 456.624 133 460.647L133.088 477C154.038 472.627 170.303 468.867 178.966 466.593Z" fill="#FFD1A9"/>
<path fill-rule="evenodd" clip-rule="evenodd" d="M201.575 414.858C192.482 421.96 187.048 422.843 187.048 422.843C179.947 422.843 176.729 423.089 174.592 423.252C171.931 423.456 170.948 423.531 166.231 422.843C154.273 421.16 151.615 419.651 139.657 409.021C137.923 407.633 135.8 404.971 133.848 402.522L133.848 402.522C132.31 400.593 130.878 398.796 129.824 397.859L130.705 461.642C149.563 457.596 165.762 453.402 173.937 451.204C180.731 449.393 186.97 443.408 192.912 437.709C195.863 434.879 198.74 432.12 201.575 429.976V414.858ZM201.575 452.207C201.459 452.32 201.343 452.433 201.227 452.546C195.929 457.706 189.58 463.889 178.1 466.972C169.51 469.251 151.64 473.169 130.925 477.542L131.153 494.069C149.755 489.994 180.582 483.961 192.452 483.164C194.377 482.757 197.564 481.425 201.575 479.378V452.207Z" fill="#FD6A33"/>
<path d="M355.904 191.164V237.673C368.719 237.673 379.158 227.234 379.158 214.418C379.158 201.603 368.719 191.164 355.904 191.164Z" fill="#0295AA"/>
<path d="M332.617 214.45C332.617 227.266 343.056 237.705 355.871 237.705V191.164C343.056 191.164 332.617 201.603 332.617 214.45Z" fill="#365558"/>
<path d="M355.904 153.426V172.665C378.965 172.665 397.691 191.391 397.691 214.452C397.691 237.514 378.965 256.207 355.904 256.207V275.446C389.565 275.446 416.93 248.081 416.93 214.42C416.93 180.759 389.532 153.426 355.904 153.426Z" fill="#FF8C29"/>
<path d="M362.424 160.33C357.96 159.912 358.024 165.79 362.424 166.529C386 169.709 404.211 189.976 404.211 214.418C404.211 218.754 410.378 219.333 410.378 214.418C410.378 186.603 389.372 163.574 362.424 160.33Z" fill="#FFD1A9"/>
<path d="M314.117 214.452C314.117 191.391 332.843 172.665 355.904 172.665V153.426C322.243 153.426 294.878 180.791 294.878 214.452C294.878 248.113 322.243 275.478 355.904 275.478V256.239C332.811 256.207 314.117 237.514 314.117 214.452Z" fill="#FD6A33"/>
<path d="M355.936 172.664L355.904 191.197H355.936C358.281 191.197 360.208 189.141 360.208 186.7V177.193C360.176 174.688 358.281 172.664 355.936 172.664Z" fill="#FFD1A9"/>
<path d="M355.84 172.664C353.495 172.664 351.568 174.72 351.568 177.161V186.668C351.568 189.141 353.495 191.165 355.84 191.165H355.872L355.84 172.664Z" fill="#FF8C29"/>
<path d="M414.296 156.312L414.168 156.184L399.586 170.766L399.714 170.894C402.412 173.592 406.781 173.592 409.479 170.894L414.232 166.141C416.994 163.378 416.994 159.01 414.296 156.312Z" fill="#4ACFD9"/>
<path d="M414.008 156.024C411.31 153.325 406.941 153.325 404.243 156.024L399.49 160.777C396.792 163.475 396.792 167.843 399.49 170.541L399.618 170.67L414.168 156.12L414.008 156.024Z" fill="#0295AA"/>
<path d="M297.479 272.519L297.607 272.647L312.157 258.097L312.029 257.969C309.331 255.271 304.963 255.271 302.265 257.969L297.511 262.722C294.813 265.453 294.813 269.885 297.479 272.519Z" fill="#4ACFD9"/>
<path d="M297.8 272.81C300.498 275.508 304.866 275.508 307.564 272.81L312.318 268.057C315.016 265.359 315.016 260.991 312.318 258.293L312.189 258.164L297.639 272.714L297.8 272.81Z" fill="#0295AA"/>
<path d="M414.007 272.81L414.136 272.682L399.586 258.164L399.457 258.293C396.759 260.991 396.759 265.359 399.457 268.057L404.211 272.81C406.941 275.54 411.309 275.54 414.007 272.81Z" fill="#4ACFD9"/>
<path d="M414.297 272.521C416.995 269.823 416.995 265.455 414.297 262.757L409.544 258.035C406.846 255.337 402.477 255.337 399.779 258.035L399.651 258.164L414.201 272.714L414.297 272.521Z" fill="#0295AA"/>
<path d="M297.801 156.027L297.673 156.155L312.223 170.705L312.351 170.577C315.049 167.879 315.049 163.51 312.351 160.812L307.598 156.059C304.868 153.361 300.467 153.361 297.801 156.027Z" fill="#4ACFD9"/>
<path d="M297.479 156.313C294.781 159.011 294.781 163.379 297.479 166.077L302.233 170.831C304.931 173.529 309.299 173.529 311.997 170.831L312.125 170.702L297.575 156.152L297.479 156.313Z" fill="#0295AA"/>
<path d="M355.84 256.205L355.872 237.672H355.84C353.495 237.672 351.568 239.727 351.568 242.169V251.676C351.6 254.181 353.495 256.205 355.84 256.205Z" fill="#FFD1A9"/>
<path d="M355.936 256.204C358.281 256.204 360.208 254.148 360.208 251.707V242.2C360.208 239.727 358.281 237.703 355.936 237.703H355.904L355.936 256.204Z" fill="#FF8C29"/>
<path d="M397.658 214.481L379.125 214.449V214.481C379.125 216.826 381.181 218.753 383.622 218.753H393.162C395.635 218.721 397.658 216.826 397.658 214.481Z" fill="#FFD1A9"/>
<path d="M397.659 214.389C397.659 212.044 395.604 210.117 393.163 210.117H383.655C381.182 210.117 379.159 212.044 379.159 214.389V214.421L397.659 214.389Z" fill="#FF8C29"/>
<path d="M314.116 214.389L332.649 214.421V214.389C332.649 212.044 330.593 210.117 328.152 210.117H318.645C316.14 210.149 314.116 212.044 314.116 214.389Z" fill="#FFD1A9"/>
<path d="M314.116 214.481C314.116 216.826 316.172 218.753 318.613 218.753H328.12C330.593 218.753 332.617 216.826 332.617 214.481V214.449L314.116 214.481Z" fill="#FF8C29"/>
<path d="M385.453 185.156L372.316 198.261L372.349 198.293C374.019 199.963 376.813 199.867 378.548 198.1L385.26 191.387C387.027 189.653 387.123 186.859 385.453 185.156Z" fill="#FFD1A9"/>
<path d="M385.421 185.124C383.751 183.454 380.957 183.551 379.222 185.317L372.509 192.03C370.743 193.797 370.647 196.559 372.317 198.229L372.349 198.261L385.421 185.124Z" fill="#FF8C29"/>
<path d="M326.322 244.226L339.459 231.121L339.427 231.089C337.757 229.419 334.962 229.515 333.228 231.282L326.515 237.995C324.748 239.761 324.652 242.588 326.322 244.226Z" fill="#FFD1A9"/>
<path d="M326.354 244.289C328.024 245.959 330.819 245.863 332.553 244.096L339.266 237.383C341.032 235.617 341.129 232.855 339.459 231.184L339.426 231.152L326.354 244.289Z" fill="#FF8C29"/>
<path d="M385.421 244.289L372.317 231.152L372.285 231.184C370.614 232.855 370.711 235.649 372.477 237.383L379.19 244.096C380.957 245.863 383.751 245.927 385.421 244.289Z" fill="#FFD1A9"/>
<path d="M385.453 244.225C387.123 242.555 387.027 239.761 385.26 238.026L378.548 231.313C376.781 229.547 374.019 229.45 372.349 231.12L372.316 231.153L385.453 244.225Z" fill="#FF8C29"/>
<path d="M326.354 185.128L339.459 198.264L339.491 198.232C341.161 196.562 341.065 193.768 339.298 192.033L332.585 185.32C330.819 183.554 328.024 183.489 326.354 185.128Z" fill="#FFD1A9"/>
<path d="M326.322 185.156C324.652 186.826 324.748 189.621 326.515 191.355L333.228 198.068C334.994 199.835 337.757 199.931 339.427 198.261L339.459 198.229L326.322 185.156Z" fill="#FF8C29"/>
<path d="M348.645 267.447C353.11 267.864 353.046 261.987 348.645 261.248C325.07 258.068 306.858 237.801 306.858 213.358C306.858 209.022 300.691 208.476 300.691 213.358C300.724 241.206 321.697 264.203 348.645 267.447Z" fill="#FF8C29"/>
<path d="M355.904 198.777V230.093C364.544 230.093 371.578 223.091 371.578 214.419C371.546 205.747 364.512 198.777 355.904 198.777Z" fill="#4ACFD9"/>
<path d="M340.229 214.451C340.229 223.091 347.231 230.125 355.904 230.125V198.809C347.264 198.777 340.229 205.811 340.229 214.451Z" fill="#0295AA"/>
<path d="M437.936 214.642V214.449H417.348V214.642C417.348 218.464 420.431 221.548 424.253 221.548H430.966C434.853 221.548 437.968 218.432 437.936 214.642Z" fill="#4ACFD9"/>
<path d="M437.936 214.226C437.936 210.404 434.852 207.32 431.03 207.32H424.317C420.495 207.32 417.412 210.404 417.412 214.226V214.419H438L437.936 214.226Z" fill="#0295AA"/>
<path d="M274.033 214.226V214.419H294.621V214.226C294.621 210.404 291.538 207.32 287.715 207.32H281.003C277.148 207.32 274.033 210.436 274.033 214.226Z" fill="#4ACFD9"/>
<path d="M274.032 214.642C274.032 218.464 277.116 221.548 280.938 221.548H287.651C291.473 221.548 294.556 218.464 294.556 214.642V214.449H274L274.032 214.642Z" fill="#0295AA"/>
<path d="M355.358 296.803H355.55V276.215H355.358C351.536 276.215 348.452 279.298 348.452 283.12V289.833C348.452 293.72 351.568 296.835 355.358 296.803Z" fill="#4ACFD9"/>
<path d="M355.775 296.805C359.597 296.805 362.68 293.722 362.68 289.9V283.187C362.68 279.365 359.597 276.281 355.775 276.281H355.582V296.87L355.775 296.805Z" fill="#0295AA"/>
<path d="M355.775 132.067H355.582V152.655H355.775C359.597 152.655 362.68 149.572 362.68 145.749V139.004C362.68 135.15 359.565 132.035 355.775 132.067Z" fill="#4ACFD9"/>
<path d="M355.358 132.064C351.536 132.064 348.452 135.148 348.452 138.97V145.683C348.452 149.505 351.536 152.588 355.358 152.588H355.55V132L355.358 132.064Z" fill="#0295AA"/>
</g>
<defs>
<clipPath id="clip0_390_2003">
<rect width="512" height="512" fill="white"/>
</clipPath>
</defs>
</svg>
