<svg width="512" height="513" viewBox="0 0 512 513" fill="none" xmlns="http://www.w3.org/2000/svg">
<g clip-path="url(#clip0_351_916)">
<path d="M484.636 332.336H429.646V352.229H484.636C485.702 352.229 486.625 351.376 486.625 350.24V334.254C486.554 333.188 485.702 332.336 484.636 332.336Z" fill="#FF8C29"/>
<path d="M429.645 332.336H414.796V352.229H429.645V332.336Z" fill="#FD6A33"/>
<path d="M374.655 332.336C373.59 332.336 372.666 333.188 372.666 334.325V350.311C372.666 351.376 373.519 352.3 374.655 352.3H414.797V332.407L374.655 332.336Z" fill="#FD6A33"/>
<path d="M470.498 339.156H463.18V352.229H470.498V339.156Z" fill="#687F82"/>
<path d="M481.224 339.156H476.322V352.229H481.224V339.156Z" fill="#687F82"/>
<path d="M454.654 339.156H444.849V352.229H454.654V339.156Z" fill="#687F82"/>
<path d="M395.757 339.156H388.439V352.229H395.757V339.156Z" fill="#365558"/>
<path d="M382.683 339.156H377.781V352.229H382.683V339.156Z" fill="#365558"/>
<path d="M414.157 339.156H404.353V352.229H414.157V339.156Z" fill="#365558"/>
<path d="M434.69 339.156H429.646V352.229H434.69V339.156Z" fill="#687F82"/>
<path d="M429.645 339.156H424.885V352.229H429.645V339.156Z" fill="#365558"/>
<path d="M477.745 307.328H422.755V327.221H477.745C478.81 327.221 479.734 326.369 479.734 325.232V309.246C479.734 308.252 478.882 307.328 477.745 307.328Z" fill="#FF8C29"/>
<path d="M422.826 307.328H414.798V327.221H422.826V307.328Z" fill="#FD6A33"/>
<path d="M367.836 307.328C366.77 307.328 365.847 308.181 365.847 309.317V325.303C365.847 326.369 366.699 327.292 367.836 327.292H414.798V307.399L367.836 307.328Z" fill="#FD6A33"/>
<path d="M463.606 314.219H456.289V327.291H463.606V314.219Z" fill="#687F82"/>
<path d="M474.333 314.219H469.431V327.291H474.333V314.219Z" fill="#687F82"/>
<path d="M447.762 314.219H437.958V327.291H447.762V314.219Z" fill="#687F82"/>
<path d="M388.936 314.219H381.619V327.291H388.936V314.219Z" fill="#365558"/>
<path d="M375.792 314.219H370.89V327.291H375.792V314.219Z" fill="#365558"/>
<path d="M407.337 314.219H397.532V327.291H407.337V314.219Z" fill="#365558"/>
<path d="M427.87 314.219H422.825V327.291H427.87V314.219Z" fill="#687F82"/>
<path d="M422.825 314.219H418.064V327.291H422.825V314.219Z" fill="#365558"/>
<path d="M482.291 282.391H427.301V302.284H482.291C483.356 302.284 484.28 301.431 484.28 300.294V284.309C484.209 283.243 483.356 282.391 482.291 282.391Z" fill="#FF8C29"/>
<path d="M427.3 282.391H414.796V302.284H427.3V282.391Z" fill="#FD6A33"/>
<path d="M372.31 282.391C371.244 282.391 370.321 283.243 370.321 284.38V300.365C370.321 301.431 371.173 302.355 372.31 302.355H414.796V282.462H372.31V282.391Z" fill="#FD6A33"/>
<path d="M468.153 289.281H460.835V302.354H468.153V289.281Z" fill="#687F82"/>
<path d="M478.809 289.281H473.907V302.354H478.809V289.281Z" fill="#687F82"/>
<path d="M452.238 289.281H442.434V302.354H452.238V289.281Z" fill="#687F82"/>
<path d="M393.413 289.281H386.095V302.354H393.413V289.281Z" fill="#365558"/>
<path d="M380.269 289.281H375.367V302.354H380.269V289.281Z" fill="#365558"/>
<path d="M411.813 289.281H402.008V302.354H411.813V289.281Z" fill="#365558"/>
<path d="M432.346 289.281H427.301V302.354H432.346V289.281Z" fill="#687F82"/>
<path d="M427.301 289.281H422.541V302.354H427.301V289.281Z" fill="#365558"/>
<path d="M489.042 257.453H434.052V277.346H489.042C490.107 277.346 491.031 276.494 491.031 275.357V259.371C490.96 258.306 490.107 257.453 489.042 257.453Z" fill="#FF8C29"/>
<path d="M434.05 257.453H419.201V277.346H434.05V257.453Z" fill="#FD6A33"/>
<path d="M379.061 257.453C377.995 257.453 377.072 258.306 377.072 259.442V275.428C377.072 276.494 377.924 277.417 379.061 277.417H419.202V257.524L379.061 257.453Z" fill="#FD6A33"/>
<path d="M474.902 264.273H467.584V277.346H474.902V264.273Z" fill="#687F82"/>
<path d="M485.63 264.273H480.728V277.346H485.63V264.273Z" fill="#687F82"/>
<path d="M459.059 264.273H449.255V277.346H459.059V264.273Z" fill="#687F82"/>
<path d="M400.162 264.273H392.844V277.346H400.162V264.273Z" fill="#365558"/>
<path d="M387.089 264.273H382.187V277.346H387.089V264.273Z" fill="#365558"/>
<path d="M418.562 264.273H408.758V277.346H418.562V264.273Z" fill="#365558"/>
<path d="M439.095 264.273H434.05V277.346H439.095V264.273Z" fill="#687F82"/>
<path d="M434.05 264.273H429.29V277.346H434.05V264.273Z" fill="#365558"/>
<path d="M482.149 232.445H427.159V252.338H482.149C483.214 252.338 484.138 251.486 484.138 250.349V234.364C484.138 233.369 483.285 232.445 482.149 232.445Z" fill="#FF8C29"/>
<path d="M427.23 232.445H419.202V252.338H427.23V232.445Z" fill="#FD6A33"/>
<path d="M372.24 232.445C371.174 232.445 370.25 233.298 370.25 234.435V250.42C370.25 251.486 371.103 252.409 372.24 252.409H419.201V232.516H372.24V232.445Z" fill="#FD6A33"/>
<path d="M468.011 239.34H460.693V252.412H468.011V239.34Z" fill="#687F82"/>
<path d="M478.739 239.34H473.836V252.412H478.739V239.34Z" fill="#687F82"/>
<path d="M452.168 239.34H442.363V252.412H452.168V239.34Z" fill="#687F82"/>
<path d="M393.342 239.34H386.024V252.412H393.342V239.34Z" fill="#365558"/>
<path d="M380.197 239.34H375.295V252.412H380.197V239.34Z" fill="#365558"/>
<path d="M411.742 239.34H401.938V252.412H411.742V239.34Z" fill="#365558"/>
<path d="M432.275 239.34H427.23V252.412H432.275V239.34Z" fill="#687F82"/>
<path d="M427.23 239.34H422.47V252.412H427.23V239.34Z" fill="#365558"/>
<path d="M486.696 207.508H431.707V227.401H486.696C487.762 227.401 488.686 226.548 488.686 225.412V209.497C488.615 208.36 487.762 207.508 486.696 207.508Z" fill="#FF8C29"/>
<path d="M431.706 207.508H419.202V227.401H431.706V207.508Z" fill="#FD6A33"/>
<path d="M376.716 207.508C375.65 207.508 374.727 208.36 374.727 209.497V225.483C374.727 226.548 375.579 227.472 376.716 227.472H419.202V207.579L376.716 207.508Z" fill="#FD6A33"/>
<path d="M472.559 214.328H465.241V227.401H472.559V214.328Z" fill="#687F82"/>
<path d="M483.215 214.328H478.313V227.401H483.215V214.328Z" fill="#687F82"/>
<path d="M456.644 214.328H446.84V227.401H456.644V214.328Z" fill="#687F82"/>
<path d="M397.816 214.328H390.499V227.401H397.816V214.328Z" fill="#365558"/>
<path d="M384.674 214.328H379.771V227.401H384.674V214.328Z" fill="#365558"/>
<path d="M416.218 214.328H406.414V227.401H416.218V214.328Z" fill="#365558"/>
<path d="M436.751 214.328H431.707V227.401H436.751V214.328Z" fill="#687F82"/>
<path d="M431.706 214.328H426.946V227.401H431.706V214.328Z" fill="#365558"/>
<path d="M212.661 89.8604C193.183 95.6325 179.961 124.279 176.406 145.657C176.406 145.657 162.402 249.554 160.625 258.034C158.848 266.514 156.36 272.358 151.384 282.619C147.9 289.816 142 298.51 142 318.819C142 339.128 158.137 354.734 177.828 354.734H276V82.7344H251.19C251.119 82.7344 232.068 84.0883 212.661 89.8604Z" fill="#0295AA"/>
<path d="M362.3 336.853C358.231 334.716 355.447 330.512 355.447 325.597V309.567C355.447 305.72 357.231 302.229 359.944 299.878V284.49C359.944 279.646 362.728 275.443 366.725 273.305V261.693C362.656 259.556 359.873 255.353 359.873 250.437V234.408C359.873 230.56 361.657 227.07 364.37 224.719V209.544C364.298 202.563 370.009 196.863 377.004 196.863H383C379.36 170.504 376.005 145.641 376.005 145.641C372.436 124.268 359.159 95.6291 339.6 89.8585C320.042 84.088 300.912 82.7344 300.912 82.7344H276V354.734H362.871C362.442 353.452 362.228 352.098 362.228 350.674V336.853H362.3Z" fill="#4ACFD9"/>
<path d="M255.159 58.7344C251.19 58.7344 248 62.3646 248 66.8016V74.6671C248 79.1041 251.261 82.7344 255.159 82.7344H276V58.7344H255.159Z" fill="#365558"/>
<path d="M296.841 58.7344C300.81 58.7344 304 62.3646 304 66.8016V74.6671C304 79.1041 300.739 82.7344 296.841 82.7344H276V58.7344H296.841Z" fill="#0295AA"/>
<path d="M248.337 1.1456C237.919 -1.04131 224.914 5.81102 230.231 14.1942C237.2 25.3475 249.415 36.4278 249.415 43.426C249.415 50.4241 254.66 58.7344 262.923 58.7344H276C276 58.7344 276 10.4035 276 4.42597C270.755 4.57177 257.175 2.96803 248.337 1.1456Z" fill="#0295AA"/>
<path d="M303.663 1.1456C314.081 -1.04131 327.086 5.81102 321.769 14.1942C314.8 25.3475 302.585 36.4278 302.585 43.426C302.585 50.4241 297.34 58.7344 289.077 58.7344H276C276 58.7344 276 10.4035 276 4.42597C281.245 4.57177 294.825 2.96803 303.663 1.1456Z" fill="#4ACFD9"/>
<path d="M362.809 144.374C364.058 131.043 359.135 117.927 349.361 108.445C347.01 106.164 343.115 106.164 340.764 108.445C338.412 110.726 338.412 114.505 340.764 116.786C347.965 123.772 351.566 133.539 350.611 143.376C350.464 145.23 351.125 146.798 352.374 148.081C353.403 149.008 354.726 149.65 356.122 149.721C359.576 149.935 362.442 147.582 362.809 144.374Z" fill="white"/>
<path d="M423.391 78.812C397.076 103.921 424.998 138.07 424.998 138.07C424.998 138.07 492.692 213.196 511.373 242.323V102.716C503.539 97.6941 496.107 92.2705 488.474 87.2487C467.985 73.3885 439.26 63.7466 423.391 78.812Z" fill="#FFD1A9"/>
<path d="M487.671 308.813C461.959 329.704 451.514 332.114 421.584 336.534C400.492 339.748 318.938 344.569 283.182 347.18C247.427 349.791 216.091 355.817 216.091 355.817C216.091 355.817 118.466 307.608 79.8987 283.302C38.5189 262.211 26.4665 270.848 8.99055 291.337C-8.4854 311.826 2.16083 342.962 18.4316 356.621C24.8595 361.844 78.4926 424.114 128.108 451.232C138.755 462.079 167.68 474.132 199.016 480.158C208.658 480.359 294.632 490.804 357.706 494.219C387.034 496.027 465.575 502.656 511.776 512.498V279.234L505.147 288.324C499.322 295.355 492.693 304.394 487.671 308.813Z" fill="#FFD1A9"/>
<path d="M511.373 471.317V430.138C463.565 420.296 427.207 412.06 406.718 406.636C370.16 397.195 355.898 395.387 325.767 400.208C295.636 405.23 294.029 439.78 324.762 440.785C355.295 441.588 343.443 431.745 396.876 445.806C418.57 451.833 459.146 460.872 511.373 471.317Z" fill="#FF8C29"/>
<path d="M276.064 116.621V260.343C315.742 260.343 347.856 228.16 347.856 188.551C347.856 148.941 315.605 116.621 276.064 116.621Z" fill="#FF8C29"/>
<path d="M204.134 188.414C204.134 228.092 236.317 260.206 275.927 260.206V116.484C236.317 116.622 204.134 148.667 204.134 188.414Z" fill="#FD6A33"/>
<path d="M255.297 203.542L249.108 216.47C248.282 218.258 247.801 219.702 247.801 220.734C247.801 222.728 249.314 224.103 252.271 224.86V226.992H221.945V224.86C223.733 224.516 225.108 223.897 226.071 223.003C227.034 222.109 228.065 220.39 229.303 217.777L262.998 147.291C264.099 145.022 264.58 143.234 264.58 141.927C264.58 139.864 263.274 138.42 260.66 137.526V135.395H293.187V137.526C290.574 138.283 289.199 139.589 289.199 141.515C289.199 142.821 289.611 144.265 290.505 145.916L325.438 216.539C326.883 219.565 328.189 221.559 329.358 222.659C330.458 223.76 331.971 224.516 333.828 224.86V226.992H300.064V224.86C303.021 224.378 304.533 223.003 304.533 220.665C304.533 219.702 304.052 218.327 303.158 216.47L296.969 203.542H255.297ZM296.969 203.542L276.339 158.294L255.297 203.542" fill="white"/>
<path d="M324.545 197.285H227.24C226.277 197.285 225.521 198.042 225.521 199.004V203.474C225.521 204.437 226.277 205.193 227.24 205.193H324.545C325.508 205.193 326.264 204.437 326.264 203.474V199.004C326.264 198.042 325.508 197.285 324.545 197.285Z" fill="white"/>
<path d="M319.387 186.074H232.741C231.985 186.074 231.366 186.693 231.366 187.45V191.3C231.366 192.057 231.985 192.676 232.741 192.676H319.387C320.143 192.676 320.762 192.057 320.762 191.3V187.45C320.762 186.693 320.143 186.074 319.387 186.074Z" fill="white"/>
</g>
<defs>
<clipPath id="clip0_351_916">
<rect width="512" height="512" fill="white" transform="translate(0 0.734375)"/>
</clipPath>
</defs>
</svg>
