<svg width="512" height="513" viewBox="0 0 512 513" fill="none" xmlns="http://www.w3.org/2000/svg">
<g clip-path="url(#clip0_351_601)">
<path d="M192.259 149.079C177.578 153.408 167.612 174.893 164.933 190.926C164.933 190.926 154.378 268.849 153.038 275.209C151.699 281.569 149.823 285.952 146.073 293.648C143.447 299.046 139 305.566 139 320.798C139 336.03 151.163 347.734 166.005 347.734H240V143.734H221.3C221.247 143.734 206.887 144.75 192.259 149.079Z" fill="#F0353D"/>
<path d="M303.523 334.323C300.481 332.72 298.4 329.568 298.4 325.881V313.859C298.4 310.974 299.734 308.356 301.762 306.592V295.051C301.762 291.418 303.843 288.266 306.832 286.663V277.953C303.79 276.35 301.708 273.198 301.708 269.511V257.489C301.708 254.604 303.043 251.986 305.071 250.223V238.842C305.017 233.606 309.287 229.331 314.517 229.331H319C316.278 209.562 313.77 190.914 313.77 190.914C311.101 174.885 301.175 153.405 286.552 149.077C271.929 144.75 257.626 143.734 257.626 143.734H239V347.734H303.95C303.63 346.773 303.47 345.757 303.47 344.689V334.323H303.523Z" fill="#FD6A33"/>
<path d="M223.37 124.734C220.392 124.734 218 127.608 218 131.121V137.348C218 140.86 220.446 143.734 223.37 143.734H239V124.734H223.37Z" fill="#0295AA"/>
<path d="M255.375 124.734C258.494 124.734 261 127.608 261 131.121V137.348C261 140.86 258.438 143.734 255.375 143.734H239V124.734H255.375Z" fill="#4ACFD9"/>
<path d="M218.989 83.0322C211.452 81.4485 202.044 86.4106 205.89 92.4811C210.932 100.558 219.768 108.581 219.768 113.649C219.768 118.717 223.563 124.734 229.54 124.734H239C239 124.734 239 89.7362 239 85.4076C235.206 85.5132 225.382 84.3518 218.989 83.0322Z" fill="#F0353D"/>
<path d="M259.6 83.0322C267.358 81.4485 277.043 86.4106 273.084 92.4811C267.893 100.558 258.797 108.581 258.797 113.649C258.797 118.717 254.891 124.734 248.738 124.734H239C239 124.734 239 89.7362 239 85.4076C242.906 85.5132 253.019 84.3518 259.6 83.0322Z" fill="#FD6A33"/>
<path d="M303.865 189.745C304.75 179.825 301.262 170.063 294.339 163.008C292.674 161.31 289.915 161.31 288.249 163.008C286.584 164.705 286.584 167.517 288.249 169.215C293.35 174.414 295.901 181.682 295.224 189.003C295.12 190.382 295.588 191.549 296.473 192.504C297.202 193.194 298.139 193.671 299.128 193.724C301.574 193.883 303.604 192.133 303.865 189.745Z" fill="white"/>
<path d="M239.519 168.566V280.018C270.288 280.018 295.191 255.061 295.191 224.345C295.191 193.63 270.181 168.566 239.519 168.566Z" fill="#4ACFD9"/>
<path d="M183.74 224.24C183.74 255.009 208.697 279.912 239.413 279.912V168.461C208.697 168.568 183.74 193.417 183.74 224.24Z" fill="#0295AA"/>
<path d="M223.414 235.971L218.615 245.996C217.975 247.383 217.602 248.503 217.602 249.303C217.602 250.849 218.775 251.916 221.068 252.502V254.155H197.551V252.502C198.938 252.235 200.004 251.756 200.751 251.062C201.497 250.369 202.297 249.036 203.257 247.01L229.387 192.35C230.24 190.591 230.613 189.204 230.613 188.191C230.613 186.591 229.6 185.471 227.574 184.778V183.125H252.797V184.778C250.771 185.365 249.704 186.378 249.704 187.871C249.704 188.884 250.024 190.004 250.717 191.284L277.807 246.05C278.927 248.396 279.94 249.942 280.846 250.796C281.7 251.649 282.873 252.235 284.313 252.502V254.155H258.13V252.502C260.423 252.129 261.596 251.062 261.596 249.249C261.596 248.503 261.222 247.436 260.529 245.996L255.73 235.971H223.414ZM255.73 235.971L239.732 200.883L223.414 235.971" fill="white"/>
<path d="M277.114 231.117H201.657C200.911 231.117 200.324 231.704 200.324 232.45V235.917C200.324 236.663 200.911 237.25 201.657 237.25H277.114C277.86 237.25 278.447 236.663 278.447 235.917V232.45C278.447 231.704 277.86 231.117 277.114 231.117Z" fill="white"/>
<path d="M273.114 222.426H205.923C205.337 222.426 204.857 222.906 204.857 223.492V226.479C204.857 227.065 205.337 227.545 205.923 227.545H273.114C273.701 227.545 274.181 227.065 274.181 226.479V223.492C274.181 222.906 273.701 222.426 273.114 222.426Z" fill="white"/>
<path d="M382.404 175.372C369.613 179.128 360.929 197.769 358.595 211.68C358.595 211.68 349.398 279.29 348.231 284.808C347.064 290.326 345.43 294.129 342.162 300.806C339.875 305.49 336 311.147 336 324.363C336 337.579 346.597 347.734 359.529 347.734H424V170.734H407.707C407.66 170.734 395.149 171.615 382.404 175.372Z" fill="#365558"/>
<path d="M479.651 336.098C477.027 334.707 475.232 331.972 475.232 328.773V318.343C475.232 315.839 476.383 313.568 478.132 312.038V302.024C478.132 298.872 479.927 296.136 482.505 294.746V287.189C479.881 285.798 478.086 283.063 478.086 279.864V269.433C478.086 266.93 479.237 264.658 480.986 263.129V253.254C480.94 248.711 484.622 245.002 489.133 245.002H493C490.652 227.849 488.489 211.67 488.489 211.67C486.187 197.762 477.626 179.125 465.013 175.37C452.401 171.615 440.065 170.734 440.065 170.734H424V347.734H480.019C479.743 346.9 479.605 346.019 479.605 345.092V336.098H479.651Z" fill="#0295AA"/>
<path d="M409.858 154.734C407.165 154.734 405 157.155 405 160.113V165.356C405 168.314 407.213 170.734 409.858 170.734H424V154.734H409.858Z" fill="#9BAAAB"/>
<path d="M437.397 154.734C439.949 154.734 442 157.155 442 160.113V165.356C442 168.314 439.904 170.734 437.397 170.734H424V154.734H437.397Z" fill="#C4C4C4"/>
<path d="M405.754 117.997C398.883 116.602 390.305 120.973 393.812 126.321C398.409 133.436 406.465 140.504 406.465 144.969C406.465 149.433 409.925 154.734 415.375 154.734H424C424 154.734 424 123.903 424 120.089C420.54 120.182 411.583 119.159 405.754 117.997Z" fill="#365558"/>
<path d="M441.657 117.997C448.307 116.602 456.608 120.973 453.214 126.321C448.766 133.436 440.969 140.504 440.969 144.969C440.969 149.433 437.621 154.734 432.347 154.734H424C424 154.734 424 123.903 424 120.089C427.348 120.182 436.016 119.159 441.657 117.997Z" fill="#0295AA"/>
<path d="M478.881 210.244C479.661 201.564 476.584 193.022 470.476 186.848C469.006 185.363 466.572 185.363 465.102 186.848C463.633 188.334 463.633 190.794 465.102 192.28C469.603 196.829 471.854 203.188 471.257 209.594C471.165 210.801 471.578 211.822 472.359 212.658C473.002 213.261 473.829 213.679 474.701 213.726C476.86 213.865 478.651 212.333 478.881 210.244Z" fill="white"/>
<path d="M423.383 191.973V288.86C450.132 288.86 471.781 267.165 471.781 240.463C471.781 213.761 450.039 191.973 423.383 191.973Z" fill="#C4C4C4"/>
<path d="M374.894 240.373C374.894 267.121 396.589 288.77 423.291 288.77V191.883C396.589 191.976 374.894 213.578 374.894 240.373Z" fill="#9BAAAB"/>
<path d="M409.384 250.573L405.212 259.288C404.656 260.494 404.331 261.467 404.331 262.163C404.331 263.507 405.351 264.434 407.345 264.944V266.381H386.901V264.944C388.106 264.712 389.033 264.295 389.682 263.692C390.331 263.09 391.027 261.931 391.861 260.169L414.576 212.653C415.318 211.123 415.643 209.918 415.643 209.037C415.643 207.646 414.762 206.673 413 206.07V204.633H434.927V206.07C433.166 206.58 432.239 207.461 432.239 208.759C432.239 209.639 432.517 210.613 433.119 211.726L456.669 259.335C457.643 261.375 458.523 262.719 459.311 263.461C460.053 264.202 461.073 264.712 462.325 264.944V266.381H439.563V264.944C441.557 264.62 442.576 263.692 442.576 262.116C442.576 261.467 442.252 260.54 441.649 259.288L437.477 250.573H409.384ZM437.477 250.573L423.57 220.07L409.384 250.573" fill="white"/>
<path d="M456.066 246.352H390.469C389.82 246.352 389.311 246.861 389.311 247.511V250.524C389.311 251.173 389.82 251.683 390.469 251.683H456.066C456.715 251.683 457.224 251.173 457.224 250.524V247.511C457.224 246.861 456.715 246.352 456.066 246.352Z" fill="white"/>
<path d="M452.589 238.797H394.178C393.668 238.797 393.251 239.214 393.251 239.724V242.32C393.251 242.83 393.668 243.247 394.178 243.247H452.589C453.099 243.247 453.516 242.83 453.516 242.32V239.724C453.516 239.214 453.099 238.797 452.589 238.797Z" fill="white"/>
<path d="M329.871 333.32H288.597V348.252H329.871C330.671 348.252 331.364 347.612 331.364 346.758V334.76C331.311 333.96 330.671 333.32 329.871 333.32Z" fill="#4ACFD9"/>
<path d="M288.596 333.32H277.451V348.252H288.596V333.32Z" fill="#0295AA"/>
<path d="M247.322 333.32C246.522 333.32 245.829 333.96 245.829 334.813V346.812C245.829 347.612 246.469 348.305 247.322 348.305H277.451V333.374L247.322 333.32Z" fill="#0295AA"/>
<path d="M319.259 338.441H313.766V348.253H319.259V338.441Z" fill="#687F82"/>
<path d="M327.311 338.441H323.632V348.253H327.311V338.441Z" fill="#687F82"/>
<path d="M307.367 338.441H300.008V348.253H307.367V338.441Z" fill="#687F82"/>
<path d="M263.16 338.441H257.667V348.253H263.16V338.441Z" fill="#365558"/>
<path d="M253.348 338.441H249.668V348.253H253.348V338.441Z" fill="#365558"/>
<path d="M276.971 338.441H269.612V348.253H276.971V338.441Z" fill="#365558"/>
<path d="M292.382 338.441H288.596V348.253H292.382V338.441Z" fill="#687F82"/>
<path d="M288.596 338.441H285.023V348.253H288.596V338.441Z" fill="#365558"/>
<path d="M324.698 314.551H283.424V329.482H324.698C325.498 329.482 326.191 328.842 326.191 327.989V315.991C326.191 315.244 325.551 314.551 324.698 314.551Z" fill="#4ACFD9"/>
<path d="M283.477 314.551H277.452V329.482H283.477V314.551Z" fill="#0295AA"/>
<path d="M242.203 314.551C241.403 314.551 240.71 315.191 240.71 316.044V328.042C240.71 328.842 241.35 329.535 242.203 329.535H277.452V314.604L242.203 314.551Z" fill="#0295AA"/>
<path d="M314.086 319.723H308.594V329.535H314.086V319.723Z" fill="#687F82"/>
<path d="M322.138 319.723H318.459V329.535H322.138V319.723Z" fill="#687F82"/>
<path d="M302.194 319.723H294.835V329.535H302.194V319.723Z" fill="#687F82"/>
<path d="M258.041 319.723H252.548V329.535H258.041V319.723Z" fill="#365558"/>
<path d="M248.175 319.723H244.496V329.535H248.175V319.723Z" fill="#365558"/>
<path d="M271.852 319.723H264.493V329.535H271.852V319.723Z" fill="#365558"/>
<path d="M287.263 319.723H283.477V329.535H287.263V319.723Z" fill="#687F82"/>
<path d="M283.477 319.723H279.904V329.535H283.477V319.723Z" fill="#365558"/>
<path d="M328.111 295.832H286.837V310.763H328.111C328.911 310.763 329.604 310.123 329.604 309.27V297.272C329.551 296.472 328.911 295.832 328.111 295.832Z" fill="#4ACFD9"/>
<path d="M286.837 295.832H277.451V310.763H286.837V295.832Z" fill="#0295AA"/>
<path d="M245.562 295.832C244.763 295.832 244.069 296.472 244.069 297.325V309.324C244.069 310.123 244.709 310.817 245.562 310.817H277.451V295.885H245.562V295.832Z" fill="#0295AA"/>
<path d="M317.499 301.008H312.007V310.82H317.499V301.008Z" fill="#687F82"/>
<path d="M325.498 301.008H321.818V310.82H325.498V301.008Z" fill="#687F82"/>
<path d="M305.554 301.008H298.195V310.82H305.554V301.008Z" fill="#687F82"/>
<path d="M261.4 301.008H255.908V310.82H261.4V301.008Z" fill="#365558"/>
<path d="M251.535 301.008H247.855V310.82H251.535V301.008Z" fill="#365558"/>
<path d="M275.212 301.008H267.853V310.82H275.212V301.008Z" fill="#365558"/>
<path d="M290.623 301.008H286.837V310.82H290.623V301.008Z" fill="#687F82"/>
<path d="M286.836 301.008H283.264V310.82H286.836V301.008Z" fill="#365558"/>
<path d="M333.177 277.117H291.902V292.048H333.177C333.977 292.048 334.67 291.409 334.67 290.555V278.557C334.616 277.757 333.977 277.117 333.177 277.117Z" fill="#4ACFD9"/>
<path d="M291.902 277.117H280.757V292.048H291.902V277.117Z" fill="#0295AA"/>
<path d="M250.628 277.117C249.828 277.117 249.135 277.757 249.135 278.61V290.609C249.135 291.409 249.775 292.102 250.628 292.102H280.757V277.171L250.628 277.117Z" fill="#0295AA"/>
<path d="M322.565 282.234H317.073V292.046H322.565V282.234Z" fill="#687F82"/>
<path d="M330.617 282.234H326.938V292.046H330.617V282.234Z" fill="#687F82"/>
<path d="M310.673 282.234H303.314V292.046H310.673V282.234Z" fill="#687F82"/>
<path d="M266.466 282.234H260.974V292.046H266.466V282.234Z" fill="#365558"/>
<path d="M256.654 282.234H252.975V292.046H256.654V282.234Z" fill="#365558"/>
<path d="M280.278 282.234H272.919V292.046H280.278V282.234Z" fill="#365558"/>
<path d="M295.689 282.234H291.903V292.046H295.689V282.234Z" fill="#687F82"/>
<path d="M291.902 282.234H288.33V292.046H291.902V282.234Z" fill="#365558"/>
<path d="M328.004 258.344H286.73V273.275H328.004C328.804 273.275 329.497 272.635 329.497 271.782V259.784C329.497 259.037 328.857 258.344 328.004 258.344Z" fill="#4ACFD9"/>
<path d="M286.784 258.344H280.758V273.275H286.784V258.344Z" fill="#0295AA"/>
<path d="M245.509 258.344C244.709 258.344 244.016 258.984 244.016 259.837V271.835C244.016 272.635 244.656 273.328 245.509 273.328H280.758V258.397H245.509V258.344Z" fill="#0295AA"/>
<path d="M317.393 263.52H311.9V273.332H317.393V263.52Z" fill="#687F82"/>
<path d="M325.445 263.52H321.765V273.332H325.445V263.52Z" fill="#687F82"/>
<path d="M305.501 263.52H298.142V273.332H305.501V263.52Z" fill="#687F82"/>
<path d="M261.347 263.52H255.854V273.332H261.347V263.52Z" fill="#365558"/>
<path d="M251.481 263.52H247.802V273.332H251.481V263.52Z" fill="#365558"/>
<path d="M275.158 263.52H267.799V273.332H275.158V263.52Z" fill="#365558"/>
<path d="M290.57 263.52H286.784V273.332H290.57V263.52Z" fill="#687F82"/>
<path d="M286.783 263.52H283.21V273.332H286.783V263.52Z" fill="#365558"/>
<path d="M331.417 239.629H290.143V254.56H331.417C332.217 254.56 332.911 253.92 332.911 253.067V241.122C332.857 240.269 332.217 239.629 331.417 239.629Z" fill="#4ACFD9"/>
<path d="M290.143 239.629H280.757V254.56H290.143V239.629Z" fill="#0295AA"/>
<path d="M248.869 239.629C248.069 239.629 247.375 240.269 247.375 241.122V253.12C247.375 253.92 248.015 254.614 248.869 254.614H280.758V239.682L248.869 239.629Z" fill="#0295AA"/>
<path d="M320.806 244.746H315.313V254.558H320.806V244.746Z" fill="#687F82"/>
<path d="M328.804 244.746H325.125V254.558H328.804V244.746Z" fill="#687F82"/>
<path d="M308.86 244.746H301.501V254.558H308.86V244.746Z" fill="#687F82"/>
<path d="M264.706 244.746H259.214V254.558H264.706V244.746Z" fill="#365558"/>
<path d="M254.841 244.746H251.162V254.558H254.841V244.746Z" fill="#365558"/>
<path d="M278.518 244.746H271.159V254.558H278.518V244.746Z" fill="#365558"/>
<path d="M293.929 244.746H290.143V254.558H293.929V244.746Z" fill="#687F82"/>
<path d="M290.143 244.746H286.57V254.558H290.143V244.746Z" fill="#365558"/>
<path d="M126.259 151.079C111.578 155.408 101.612 176.893 98.9332 192.926C98.9332 192.926 88.3777 270.849 87.0382 277.209C85.6987 283.569 83.8233 287.952 80.0727 295.648C77.4472 301.046 73 307.566 73 322.798C73 338.03 85.1629 349.734 100.005 349.734H174V145.734H155.3C155.247 145.734 140.887 146.75 126.259 151.079Z" fill="#F0353D"/>
<path d="M237.523 336.323C234.481 334.72 232.4 331.568 232.4 327.881V315.859C232.4 312.974 233.734 310.356 235.762 308.592V297.051C235.762 293.418 237.843 290.266 240.832 288.663V279.953C237.79 278.35 235.708 275.198 235.708 271.511V259.489C235.708 256.604 237.043 253.986 239.071 252.223V240.842C239.017 235.606 243.287 231.331 248.517 231.331H253C250.278 211.562 247.77 192.914 247.77 192.914C245.101 176.885 235.175 155.405 220.552 151.077C205.929 146.75 191.626 145.734 191.626 145.734H173V349.734H237.95C237.63 348.773 237.47 347.757 237.47 346.689V336.323H237.523Z" fill="#FD6A33"/>
<path d="M157.37 126.734C154.392 126.734 152 129.608 152 133.121V139.348C152 142.86 154.446 145.734 157.37 145.734H173V126.734H157.37Z" fill="#0295AA"/>
<path d="M189.375 126.734C192.494 126.734 195 129.608 195 133.121V139.348C195 142.86 192.438 145.734 189.375 145.734H173V126.734H189.375Z" fill="#4ACFD9"/>
<path d="M152.989 85.0322C145.452 83.4485 136.044 88.4106 139.89 94.4811C144.932 102.558 153.768 110.581 153.768 115.649C153.768 120.717 157.563 126.734 163.54 126.734H173C173 126.734 173 91.7362 173 87.4076C169.206 87.5132 159.382 86.3518 152.989 85.0322Z" fill="#F0353D"/>
<path d="M193.6 85.0322C201.358 83.4485 211.043 88.4106 207.084 94.4811C201.893 102.558 192.797 110.581 192.797 115.649C192.797 120.717 188.891 126.734 182.738 126.734H173C173 126.734 173 91.7362 173 87.4076C176.906 87.5132 187.019 86.3518 193.6 85.0322Z" fill="#FD6A33"/>
<path d="M96.9329 305.929C97.8785 306.838 98.379 308.014 98.2678 309.458C97.6004 316.839 100.27 324.059 105.665 329.247C107.445 330.958 107.445 333.739 105.665 335.451C103.885 337.162 100.993 337.162 99.2133 335.451C91.8716 328.391 88.2008 318.604 89.1463 308.71C89.3688 306.303 91.5935 304.538 94.152 304.752C95.1531 304.752 96.1543 305.233 96.9329 305.929Z" fill="#E6EAEA"/>
<path d="M237.865 191.745C238.75 181.825 235.262 172.063 228.339 165.008C226.674 163.31 223.915 163.31 222.249 165.008C220.584 166.705 220.584 169.517 222.249 171.215C227.35 176.414 229.901 183.682 229.224 191.003C229.12 192.382 229.588 193.549 230.473 194.504C231.202 195.194 232.139 195.671 233.128 195.724C235.574 195.883 237.604 194.133 237.865 191.745Z" fill="white"/>
<path d="M173.519 170.566V282.018C204.288 282.018 229.191 257.061 229.191 226.345C229.191 195.63 204.181 170.566 173.519 170.566Z" fill="#4ACFD9"/>
<path d="M117.74 226.24C117.74 257.009 142.697 281.912 173.413 281.912V170.461C142.697 170.568 117.74 195.417 117.74 226.24Z" fill="#0295AA"/>
<path d="M157.414 237.971L152.615 247.996C151.975 249.383 151.602 250.503 151.602 251.303C151.602 252.849 152.775 253.916 155.068 254.502V256.155H131.551V254.502C132.938 254.235 134.004 253.756 134.751 253.062C135.497 252.369 136.297 251.036 137.257 249.01L163.387 194.35C164.24 192.591 164.613 191.204 164.613 190.191C164.613 188.591 163.6 187.471 161.574 186.778V185.125H186.797V186.778C184.771 187.365 183.704 188.378 183.704 189.871C183.704 190.884 184.024 192.004 184.717 193.284L211.807 248.05C212.927 250.396 213.94 251.942 214.846 252.796C215.7 253.649 216.873 254.235 218.313 254.502V256.155H192.13V254.502C194.423 254.129 195.596 253.062 195.596 251.249C195.596 250.503 195.222 249.436 194.529 247.996L189.73 237.971H157.414ZM189.73 237.971L173.732 202.883L157.414 237.971" fill="white"/>
<path d="M211.114 233.117H135.657C134.911 233.117 134.324 233.704 134.324 234.45V237.917C134.324 238.663 134.911 239.25 135.657 239.25H211.114C211.86 239.25 212.447 238.663 212.447 237.917V234.45C212.447 233.704 211.86 233.117 211.114 233.117Z" fill="white"/>
<path d="M207.114 224.426H139.923C139.337 224.426 138.857 224.906 138.857 225.492V228.479C138.857 229.065 139.337 229.545 139.923 229.545H207.114C207.701 229.545 208.181 229.065 208.181 228.479V225.492C208.181 224.906 207.701 224.426 207.114 224.426Z" fill="white"/>
<path d="M495.104 368.641H449.792V385.033H495.104C495.982 385.033 496.744 384.33 496.744 383.394V370.221C496.685 369.343 495.982 368.641 495.104 368.641Z" fill="#FF8C29"/>
<path d="M449.791 368.641H437.556V385.033H449.791V368.641Z" fill="#FD6A33"/>
<path d="M404.479 368.641C403.6 368.641 402.839 369.343 402.839 370.28V383.452C402.839 384.33 403.542 385.091 404.479 385.091H437.556V368.699L404.479 368.641Z" fill="#FD6A33"/>
<path d="M483.455 374.262H477.425V385.034H483.455V374.262Z" fill="#687F82"/>
<path d="M492.295 374.262H488.255V385.034H492.295V374.262Z" fill="#687F82"/>
<path d="M470.4 374.262H462.321V385.034H470.4V374.262Z" fill="#687F82"/>
<path d="M421.866 374.262H415.836V385.034H421.866V374.262Z" fill="#365558"/>
<path d="M411.095 374.262H407.055V385.034H411.095V374.262Z" fill="#365558"/>
<path d="M437.03 374.262H428.951V385.034H437.03V374.262Z" fill="#365558"/>
<path d="M453.949 374.262H449.792V385.034H453.949V374.262Z" fill="#687F82"/>
<path d="M449.792 374.262H445.87V385.034H449.792V374.262Z" fill="#365558"/>
<path d="M489.426 348.035H444.113V364.427H489.426C490.304 364.427 491.065 363.725 491.065 362.788V349.616C491.065 348.796 490.362 348.035 489.426 348.035Z" fill="#FF8C29"/>
<path d="M444.172 348.035H437.557V364.427H444.172V348.035Z" fill="#FD6A33"/>
<path d="M398.859 348.035C397.981 348.035 397.22 348.738 397.22 349.674V362.847C397.22 363.725 397.922 364.486 398.859 364.486H437.556V348.094L398.859 348.035Z" fill="#FD6A33"/>
<path d="M477.776 353.715H471.746V364.487H477.776V353.715Z" fill="#687F82"/>
<path d="M486.616 353.715H482.577V364.487H486.616V353.715Z" fill="#687F82"/>
<path d="M464.721 353.715H456.642V364.487H464.721V353.715Z" fill="#687F82"/>
<path d="M416.247 353.715H410.217V364.487H416.247V353.715Z" fill="#365558"/>
<path d="M405.416 353.715H401.376V364.487H405.416V353.715Z" fill="#365558"/>
<path d="M431.409 353.715H423.33V364.487H431.409V353.715Z" fill="#365558"/>
<path d="M448.329 353.715H444.172V364.487H448.329V353.715Z" fill="#687F82"/>
<path d="M444.172 353.715H440.25V364.487H444.172V353.715Z" fill="#365558"/>
<path d="M493.173 327.488H447.86V343.881H493.173C494.051 343.881 494.812 343.178 494.812 342.241V329.069C494.753 328.191 494.051 327.488 493.173 327.488Z" fill="#FF8C29"/>
<path d="M447.859 327.488H437.556V343.881H447.859V327.488Z" fill="#FD6A33"/>
<path d="M402.547 327.488C401.669 327.488 400.908 328.191 400.908 329.128V342.3C400.908 343.178 401.61 343.939 402.547 343.939H437.556V327.547H402.547V327.488Z" fill="#FD6A33"/>
<path d="M481.523 333.164H475.493V343.936H481.523V333.164Z" fill="#687F82"/>
<path d="M490.304 333.164H486.265V343.936H490.304V333.164Z" fill="#687F82"/>
<path d="M468.409 333.164H460.33V343.936H468.409V333.164Z" fill="#687F82"/>
<path d="M419.935 333.164H413.905V343.936H419.935V333.164Z" fill="#365558"/>
<path d="M409.104 333.164H405.065V343.936H409.104V333.164Z" fill="#365558"/>
<path d="M435.098 333.164H427.019V343.936H435.098V333.164Z" fill="#365558"/>
<path d="M452.017 333.164H447.86V343.936H452.017V333.164Z" fill="#687F82"/>
<path d="M447.86 333.164H443.938V343.936H447.86V333.164Z" fill="#365558"/>
<path d="M498.734 306.938H453.421V323.33H498.734C499.612 323.33 500.373 322.627 500.373 321.691V308.518C500.315 307.64 499.612 306.938 498.734 306.938Z" fill="#FF8C29"/>
<path d="M453.421 306.938H441.186V323.33H453.421V306.938Z" fill="#FD6A33"/>
<path d="M408.108 306.938C407.23 306.938 406.469 307.64 406.469 308.577V321.749C406.469 322.627 407.172 323.388 408.108 323.388H441.186V306.996L408.108 306.938Z" fill="#FD6A33"/>
<path d="M487.085 312.559H481.055V323.331H487.085V312.559Z" fill="#687F82"/>
<path d="M495.925 312.559H491.885V323.331H495.925V312.559Z" fill="#687F82"/>
<path d="M474.029 312.559H465.95V323.331H474.029V312.559Z" fill="#687F82"/>
<path d="M425.496 312.559H419.466V323.331H425.496V312.559Z" fill="#365558"/>
<path d="M414.725 312.559H410.685V323.331H414.725V312.559Z" fill="#365558"/>
<path d="M440.66 312.559H432.581V323.331H440.66V312.559Z" fill="#365558"/>
<path d="M457.579 312.559H453.422V323.331H457.579V312.559Z" fill="#687F82"/>
<path d="M453.422 312.559H449.5V323.331H453.422V312.559Z" fill="#365558"/>
<path d="M493.055 286.328H447.743V302.72H493.055C493.934 302.72 494.695 302.018 494.695 301.081V287.909C494.695 287.089 493.992 286.328 493.055 286.328Z" fill="#FF8C29"/>
<path d="M447.802 286.328H441.187V302.72H447.802V286.328Z" fill="#FD6A33"/>
<path d="M402.489 286.328C401.611 286.328 400.85 287.031 400.85 287.967V301.14C400.85 302.018 401.552 302.779 402.489 302.779H441.186V286.387H402.489V286.328Z" fill="#FD6A33"/>
<path d="M481.406 292.008H475.375V302.78H481.406V292.008Z" fill="#687F82"/>
<path d="M490.246 292.008H486.206V302.78H490.246V292.008Z" fill="#687F82"/>
<path d="M468.351 292.008H460.271V302.78H468.351V292.008Z" fill="#687F82"/>
<path d="M419.877 292.008H413.847V302.78H419.877V292.008Z" fill="#365558"/>
<path d="M409.045 292.008H405.006V302.78H409.045V292.008Z" fill="#365558"/>
<path d="M435.039 292.008H426.96V302.78H435.039V292.008Z" fill="#365558"/>
<path d="M451.958 292.008H447.802V302.78H451.958V292.008Z" fill="#687F82"/>
<path d="M447.802 292.008H443.879V302.78H447.802V292.008Z" fill="#365558"/>
<path d="M496.803 265.781H451.49V282.173H496.803C497.681 282.173 498.442 281.471 498.442 280.534V267.42C498.384 266.484 497.681 265.781 496.803 265.781Z" fill="#FF8C29"/>
<path d="M451.49 265.781H441.186V282.173H451.49V265.781Z" fill="#FD6A33"/>
<path d="M406.177 265.781C405.299 265.781 404.538 266.484 404.538 267.42V280.593C404.538 281.471 405.241 282.232 406.177 282.232H441.186V265.84L406.177 265.781Z" fill="#FD6A33"/>
<path d="M485.153 271.402H479.123V282.174H485.153V271.402Z" fill="#687F82"/>
<path d="M493.934 271.402H489.895V282.174H493.934V271.402Z" fill="#687F82"/>
<path d="M472.039 271.402H463.959V282.174H472.039V271.402Z" fill="#687F82"/>
<path d="M423.565 271.402H417.535V282.174H423.565V271.402Z" fill="#365558"/>
<path d="M412.734 271.402H408.694V282.174H412.734V271.402Z" fill="#365558"/>
<path d="M438.727 271.402H430.648V282.174H438.727V271.402Z" fill="#365558"/>
<path d="M455.647 271.402H451.49V282.174H455.647V271.402Z" fill="#687F82"/>
<path d="M451.49 271.402H447.567V282.174H451.49V271.402Z" fill="#365558"/>
<path d="M271.005 168.603C255.016 173.356 244.162 196.948 241.244 214.553C241.244 214.553 229.748 300.116 228.289 307.099C226.83 314.083 224.788 318.895 220.703 327.345C217.843 333.272 213 340.432 213 357.157C213 373.882 226.247 386.734 242.411 386.734H323V162.734H302.634C302.576 162.734 286.936 163.849 271.005 168.603Z" fill="#0295AA"/>
<path d="M393.975 372.008C390.629 370.248 388.34 366.787 388.34 362.739V349.538C388.34 346.37 389.807 343.495 392.038 341.559V328.886C392.038 324.897 394.328 321.435 397.615 319.675V310.112C394.269 308.352 391.979 304.89 391.979 300.842V287.642C391.979 284.474 393.447 281.599 395.678 279.663V267.166C395.619 261.416 400.316 256.723 406.069 256.723H411C408.006 235.015 405.247 214.54 405.247 214.54C402.312 196.939 391.392 173.354 375.307 168.601C359.221 163.849 343.488 162.734 343.488 162.734H323V386.734H394.445C394.093 385.678 393.917 384.564 393.917 383.39V372.008H393.975Z" fill="#4ACFD9"/>
<path d="M305.881 142.734C302.62 142.734 300 145.76 300 149.457V156.012C300 159.709 302.678 162.734 305.881 162.734H323V142.734H305.881Z" fill="#365558"/>
<path d="M340.863 142.734C344.266 142.734 347 145.76 347 149.457V156.012C347 159.709 344.205 162.734 340.863 162.734H323V142.734H340.863Z" fill="#0295AA"/>
<path d="M300.634 96.0676C292.211 94.2955 281.696 99.8482 285.995 106.641C291.63 115.679 301.506 124.658 301.506 130.329C301.506 136 305.746 142.734 312.427 142.734H323C323 142.734 323 103.57 323 98.7258C318.759 98.844 307.78 97.5444 300.634 96.0676Z" fill="#0295AA"/>
<path d="M345.954 96.0676C354.599 94.2955 365.391 99.8482 360.979 106.641C355.196 115.679 345.06 124.658 345.06 130.329C345.06 136 340.708 142.734 333.851 142.734H323C323 142.734 323 103.57 323 98.7258C327.352 98.844 338.621 97.5444 345.954 96.0676Z" fill="#4ACFD9"/>
<path d="M394.841 213.372C395.882 202.521 391.779 191.844 383.634 184.127C381.675 182.27 378.429 182.27 376.47 184.127C374.51 185.984 374.51 189.059 376.47 190.916C382.471 196.602 385.472 204.552 384.675 212.559C384.553 214.068 385.104 215.344 386.145 216.389C387.002 217.143 388.105 217.665 389.268 217.723C392.146 217.897 394.535 215.983 394.841 213.372Z" fill="white"/>
<path d="M430.126 111.864C405.817 135.06 431.611 166.606 431.611 166.606C431.611 166.606 494.147 236.007 511.404 262.914V133.946C504.167 129.307 497.301 124.297 490.25 119.658C471.322 106.854 444.786 97.9467 430.126 111.864Z" fill="#FFD1A9"/>
<path d="M489.508 324.335C465.755 343.634 456.106 345.861 428.457 349.943C408.972 352.912 333.633 357.366 300.602 359.778C267.572 362.19 238.623 367.757 238.623 367.757C238.623 367.757 148.439 323.222 112.81 300.768C74.5835 281.284 63.4496 289.263 47.3054 308.191C31.1612 327.119 40.9962 355.881 56.027 368.5C61.9651 373.324 111.511 430.85 157.346 455.901C167.181 465.921 193.902 477.055 222.85 482.622C231.757 482.808 311.179 492.457 369.447 495.612C396.54 497.282 469.096 503.406 511.776 512.498V299.734L505.652 305.407C500.271 311.902 494.147 320.253 489.508 324.335Z" fill="#FFD1A9"/>
<path d="M511.404 474.459V436.418C467.239 427.326 433.652 419.718 414.724 414.707C380.951 405.986 367.776 404.316 339.941 408.769C312.106 413.408 310.622 445.326 339.013 446.253C367.219 446.996 356.271 437.903 405.631 450.893C425.672 456.459 463.157 464.81 511.404 474.459Z" fill="#FF8C29"/>
<path d="M322.552 189.836V298.836C352.645 298.836 377 274.428 377 244.388C377 214.348 352.54 189.836 322.552 189.836Z" fill="#FF8C29"/>
<path d="M268 244.287C268 274.379 292.408 298.734 322.448 298.734V189.734C292.408 189.839 268 214.142 268 244.287Z" fill="#FD6A33"/>
<path d="M306.804 255.762L302.11 265.567C301.484 266.923 301.119 268.018 301.119 268.8C301.119 270.313 302.266 271.356 304.509 271.929V273.546H281.509V271.929C282.865 271.669 283.908 271.199 284.638 270.521C285.369 269.843 286.151 268.539 287.09 266.558L312.645 213.101C313.479 211.38 313.844 210.024 313.844 209.033C313.844 207.468 312.853 206.373 310.872 205.695V204.078H335.54V205.695C333.558 206.269 332.515 207.259 332.515 208.72C332.515 209.711 332.828 210.806 333.506 212.058L360 265.619C361.095 267.914 362.086 269.426 362.973 270.26C363.807 271.095 364.954 271.669 366.362 271.929V273.546H340.755V271.929C342.998 271.564 344.145 270.521 344.145 268.748C344.145 268.018 343.78 266.975 343.102 265.567L338.408 255.762H306.804ZM338.408 255.762L322.762 221.445L306.804 255.762" fill="white"/>
<path d="M359.32 251.016H285.523C284.793 251.016 284.219 251.589 284.219 252.319V255.709C284.219 256.44 284.793 257.013 285.523 257.013H359.32C360.05 257.013 360.624 256.44 360.624 255.709V252.319C360.624 251.589 360.05 251.016 359.32 251.016Z" fill="white"/>
<path d="M355.408 242.512H289.695C289.122 242.512 288.652 242.981 288.652 243.555V246.475C288.652 247.049 289.122 247.518 289.695 247.518H355.408C355.982 247.518 356.451 247.049 356.451 246.475V243.555C356.451 242.981 355.982 242.512 355.408 242.512Z" fill="white"/>
</g>
<defs>
<clipPath id="clip0_351_601">
<rect width="512" height="512" fill="white" transform="translate(0 0.734375)"/>
</clipPath>
</defs>
</svg>
