<?xml version="1.0" encoding="utf-8"?>
<!-- Generator: Adobe Illustrator 25.4.1, SVG Export Plug-In . SVG Version: 6.00 Build 0)  -->
<svg version="1.1" id="Layer_1" xmlns="http://www.w3.org/2000/svg" xmlns:xlink="http://www.w3.org/1999/xlink" x="0px" y="0px"
	 viewBox="0 0 512 512" style="enable-background:new 0 0 512 512;" xml:space="preserve">
<style type="text/css">
	.st0{fill:#FFD1A9;}
	.st1{fill:#4ACFD9;}
	.st2{fill:#E7E9E9;}
	.st3{fill:#9EA8AA;}
	.st4{fill:#FD6A33;}
	.st5{fill:#FF8C29;}
	.st6{fill:none;}
	.st7{fill:#365558;}
	.st8{fill:#687F82;}
	.st9{fill:#0295AA;}
</style>
<path class="st0" d="M463.3,290"/>
<g>
	<path class="st1" d="M315.9,264.7c-9.1,0-16.5,7.4-16.5,16.5c0,9.1,7.4,16.5,16.5,16.5c9.1,0,16.5-7.4,16.5-16.5
		C332.5,272.1,325,264.7,315.9,264.7z"/>
	<path class="st1" d="M368.9,206.9c-9.1,0-16.5,7.4-16.5,16.5c0,9.1,7.4,16.5,16.5,16.5s16.5-7.4,16.5-16.5
		C385.4,214.4,378,206.9,368.9,206.9z"/>
</g>
<path class="st2" d="M331.9,89v22.8h-20V97.3c0-5.1-4.1-9.2-9.2-9.2h-47.6V69.8h57.6C323.3,69.8,331.9,78.4,331.9,89z"/>
<path class="st3" d="M255.2,69.8v18.3h-50.6c-5.1,0-9.2,4.1-9.2,9.2v14.5h-20V89c0-10.6,8.6-19.2,19.2-19.2H255.2z"/>
<path class="st3" d="M255.1,111.2v350.1H38.8c-14.8,0-26.8-12-26.8-26.8V130.3c0-10.5,8.5-19.1,19.1-19.1H255.1L255.1,111.2z"/>
<path class="st2" d="M500,130.2v304.3c0,14.8-12,26.8-26.8,26.8h-218V111.1H481C491.5,111.1,500,119.6,500,130.2z"/>
<path class="st4" d="M256.6,112.4v229.1l-123.8-0.9c-22.7,0-42.9-14.4-50.2-35.9l-52.7-154c-1.9-5.5-2.9-11.4-2.9-17.2v-14.3
	c0-3.8,3-6.8,6.8-6.8H256.6z"/>
<path class="st5" d="M481.8,117.9v6.7c0,6.4-1.2,12.8-3.5,18.9L417,305c-7.8,20.6-27.6,34.2-49.7,34.2l-112.1,1l-0.1-31.2V111.1H475
	C478.8,111.1,481.8,114.2,481.8,117.9z"/>
<line class="st6" x1="254.2" y1="110.8" x2="254.2" y2="52.3"/>
<g>
	<g>
		<g>
			<path class="st5" d="M585.5,139.5H485.3v38.8h100.2c3.5,0,6.3-3.3,6.3-7.3v-24.2C591.8,142.8,589,139.5,585.5,139.5z"/>
			<path class="st4" d="M385.1,139.5c-3.5,0-6.3,3.3-6.3,7.3V171c0,4,2.8,7.3,6.3,7.3h100.2v-38.8H385.1z"/>
			<rect x="388.3" y="154" class="st7" width="9.2" height="24.3"/>
			<rect x="408.4" y="154" class="st7" width="13.8" height="24.3"/>
			<rect x="438.1" y="154" class="st7" width="18.3" height="24.3"/>
			<rect x="485.3" y="154" class="st7" width="0.1" height="24.3"/>
			<rect x="476.6" y="154" class="st7" width="8.7" height="24.3"/>
			<rect x="573.2" y="154" class="st8" width="9.2" height="24.3"/>
			<rect x="548.6" y="154" class="st8" width="13.8" height="24.3"/>
			<rect x="514.3" y="154" class="st8" width="18.3" height="24.3"/>
			<rect x="485.4" y="154" class="st8" width="8.7" height="24.3"/>
		</g>
		<g>
			<path class="st5" d="M597.6,188.2H497.4V227h100.2c3.5,0,6.3-3.3,6.3-7.3v-24.2C603.9,191.5,601.1,188.2,597.6,188.2z"/>
			<path class="st4" d="M397.2,188.2c-3.5,0-6.3,3.3-6.3,7.3v24.2c0,4,2.8,7.3,6.3,7.3h100.2v-38.8
				C497.4,188.2,397.2,188.2,397.2,188.2z"/>
			<rect x="400.4" y="202.7" class="st7" width="9.2" height="24.3"/>
			<rect x="420.5" y="202.7" class="st7" width="13.8" height="24.3"/>
			<rect x="450.2" y="202.7" class="st7" width="18.3" height="24.3"/>
			<rect x="497.4" y="202.7" class="st7" width="0.1" height="24.3"/>
			<rect x="488.7" y="202.7" class="st7" width="8.7" height="24.3"/>
			<rect x="585.3" y="202.7" class="st8" width="9.2" height="24.3"/>
			<rect x="560.7" y="202.7" class="st8" width="13.8" height="24.3"/>
			<rect x="526.4" y="202.7" class="st8" width="18.3" height="24.3"/>
			<rect x="497.5" y="202.7" class="st8" width="8.7" height="24.3"/>
		</g>
		<g>
			<path class="st5" d="M591.5,237H491.3v38.8h100.2c3.5,0,6.3-3.3,6.3-7.3v-24.2C597.8,240.3,595,237,591.5,237z"/>
			<path class="st4" d="M391.2,237c-3.5,0-6.3,3.3-6.3,7.3v24.2c0,4,2.8,7.3,6.3,7.3h100.2V237H391.2z"/>
			<rect x="394.3" y="251.5" class="st7" width="9.2" height="24.3"/>
			<rect x="414.4" y="251.5" class="st7" width="13.8" height="24.3"/>
			<rect x="444.1" y="251.5" class="st7" width="18.3" height="24.3"/>
			<rect x="491.3" y="251.5" class="st7" width="0.1" height="24.3"/>
			<rect x="482.6" y="251.5" class="st7" width="8.7" height="24.3"/>
			<rect x="579.2" y="251.5" class="st8" width="9.2" height="24.3"/>
			<rect x="554.6" y="251.5" class="st8" width="13.8" height="24.3"/>
			<rect x="520.3" y="251.5" class="st8" width="18.3" height="24.3"/>
			<rect x="491.4" y="251.5" class="st8" width="8.7" height="24.3"/>
		</g>
		<g>
			<path class="st5" d="M583.6,285.7H483.4v38.8h100.2c3.5,0,6.3-3.3,6.3-7.3V293C589.9,289,587.1,285.7,583.6,285.7z"/>
			<path class="st4" d="M383.3,285.7c-3.5,0-6.3,3.3-6.3,7.3v24.2c0,4,2.8,7.3,6.3,7.3h100.2v-38.8H383.3z"/>
			<rect x="386.5" y="300.2" class="st7" width="9.2" height="24.3"/>
			<rect x="406.5" y="300.2" class="st7" width="13.8" height="24.3"/>
			<rect x="436.2" y="300.2" class="st7" width="18.3" height="24.3"/>
			<rect x="483.4" y="300.2" class="st7" width="0.1" height="24.3"/>
			<rect x="474.7" y="300.2" class="st7" width="8.7" height="24.3"/>
			<rect x="571.4" y="300.2" class="st8" width="9.2" height="24.3"/>
			<rect x="546.7" y="300.2" class="st8" width="13.8" height="24.3"/>
			<rect x="512.4" y="300.2" class="st8" width="18.3" height="24.3"/>
			<rect x="483.5" y="300.2" class="st8" width="8.7" height="24.3"/>
		</g>
		<g>
			<path class="st5" d="M595,334.3H494.8v38.8H595c3.5,0,6.3-3.3,6.3-7.3v-24.2C601.4,337.6,598.5,334.3,595,334.3z"/>
			<path class="st4" d="M394.7,334.3c-3.5,0-6.3,3.3-6.3,7.3v24.2c0,4,2.8,7.3,6.3,7.3h100.2v-38.8H394.7z"/>
			<rect x="397.9" y="348.8" class="st7" width="9.2" height="24.3"/>
			<rect x="417.9" y="348.8" class="st7" width="13.8" height="24.3"/>
			<rect x="447.6" y="348.8" class="st7" width="18.3" height="24.3"/>
			<rect x="494.8" y="348.8" class="st7" width="0.1" height="24.3"/>
			<rect x="486.1" y="348.8" class="st7" width="8.7" height="24.3"/>
			<rect x="582.8" y="348.8" class="st8" width="9.2" height="24.3"/>
			<rect x="558.1" y="348.8" class="st8" width="13.8" height="24.3"/>
			<rect x="523.8" y="348.8" class="st8" width="18.3" height="24.3"/>
			<rect x="495" y="348.8" class="st8" width="8.7" height="24.3"/>
		</g>
		<g>
			<path class="st5" d="M587.2,383.1H487v38.8h100.2c3.5,0,6.3-3.3,6.3-7.3v-24.2C593.5,386.4,590.6,383.1,587.2,383.1z"/>
			<path class="st4" d="M386.8,383.1c-3.5,0-6.3,3.3-6.3,7.3v24.1c0,4,2.8,7.3,6.3,7.3H487v-38.7L386.8,383.1L386.8,383.1z"/>
			<rect x="390" y="397.5" class="st7" width="9.2" height="24.3"/>
			<rect x="410" y="397.5" class="st7" width="13.8" height="24.3"/>
			<rect x="439.8" y="397.5" class="st7" width="18.3" height="24.3"/>
			<rect x="487" y="397.5" class="st7" width="0.1" height="24.3"/>
			<rect x="478.2" y="397.5" class="st7" width="8.7" height="24.3"/>
			<rect x="574.9" y="397.5" class="st8" width="9.2" height="24.3"/>
			<rect x="550.2" y="397.5" class="st8" width="13.8" height="24.3"/>
			<rect x="515.9" y="397.5" class="st8" width="18.3" height="24.3"/>
			<rect x="487.1" y="397.5" class="st8" width="8.7" height="24.3"/>
		</g>
	</g>
	<path class="st0" d="M508.8,438.9"/>
	<path class="st0" d="M755.9,418.2c-7.4-8.4-18.9-43.4-36.1-54.4c-26.9-27.2-66.9-53.5-80.3-62.8c-5.6-3.8-14.3-7.7-23.1-12v112.5
		l-14.9-23.4v106.6c26.1,5.4,49.9,10.1,53.3,10.8c6.4,1.3,11.2,6.8,11.2,6.8l24.7,26.5l88.1-85.3C779,443.5,763.2,426.7,755.9,418.2
		z"/>
	<path class="st0" d="M616.5,289c-5.2-2.6-10.3-5.3-14.9-8.4V350c0.5,0.7,0.9,1.3,1.2,1.9c4.2,7.5,2.9,13.5-1.2,17.2v9l14.9,23.4
		V289z"/>
	<path class="st0" d="M557.7,268.6c-13.1,12.5,0.8,29.5,0.8,29.5s33.7,37.4,43,51.9v-69.5c-3.9-2.5-7.6-5.2-11.4-7.7
		C579.9,265.9,565.6,261.1,557.7,268.6z"/>
	<path class="st0" d="M589.7,383.1c-12.8,10.4-18,11.6-32.9,13.8c-10.5,1.6-51.1,4-68.9,5.3c-17.8,1.3-33.4,4.3-33.4,4.3
		s-48.6-24-67.8-36.1c-20.6-10.5-26.6-6.2-35.3,4c-8.7,10.2-3.4,25.7,4.7,32.5c3.2,2.6,29.9,33.6,54.6,47.1
		c5.3,5.4,19.7,11.4,35.3,14.4c4.8,0.1,47.6,5.3,79,7c14.6,0.9,53.7,4.2,76.7,9.1V378.1l-3.3-5.2
		C595.5,376.4,592.2,380.9,589.7,383.1z"/>
	<path class="st0" d="M598.3,372.9l3.3,5.2v-9C600.7,369.9,599.6,371.3,598.3,372.9z"/>
	<path class="st5" d="M719.8,500.6l-24.1-25.5c-4.2-4.6-15.8-15.5-33-18.9l-1.1-0.2c-22.3-4.5-42.7-8.7-60.1-12.3v20.5
		c16.6,3.5,35.6,7.4,56.2,11.5l1.1,0.2c11.7,2.3,19.8,10.3,22,12.8l0.1,0.1l0.1,0.1l24.3,25.7L719.8,500.6z"/>
	<path class="st5" d="M601.5,464v-20.5c-23.8-4.9-41.9-9-52.1-11.7c-18.2-4.7-25.3-5.6-40.3-3.2c-15,2.5-15.8,19.7-0.5,20.2
		c15.2,0.4,9.3-4.5,35.9,2.5C555.3,454.3,575.5,458.8,601.5,464z"/>
	<path class="st8" d="M755.1,609.8h101V454.9c0,0-36.3-40.4-39.1-43.2c-2.8-2.8-7.4-4.6-12,0S687.9,524.8,687.9,524.8l-6.8,6.7
		L755.1,609.8z"/>
	<path class="st9" d="M758.2,613.9h101V459c0,0-20.7-24.5-23.6-27.4c-2.8-2.8-7.5-4.6-12,0c-4.6,4.6-117.1,113.1-117.1,113.1
		l-6.8,6.7L758.2,613.9z"/>
	<circle class="st0" cx="739.5" cy="551.9" r="14.3"/>
	<circle class="st0" cx="771.2" cy="523.3" r="14.3"/>
</g>
<g>
	<g>
		<g>
			<path class="st1" d="M140,168.8H39.8v38.8H140c3.5,0,6.3-3.3,6.3-7.3v-24.2C146.3,172.1,143.4,168.8,140,168.8z"/>
			<path class="st9" d="M-60.4,168.8c-3.5,0-6.3,3.3-6.3,7.3v24.2c0,4,2.8,7.3,6.3,7.3H39.8v-38.8H-60.4z"/>
			<rect x="-57.2" y="183.2" class="st7" width="9.2" height="24.3"/>
			<rect x="-37.2" y="183.2" class="st7" width="13.8" height="24.3"/>
			<rect x="-7.4" y="183.2" class="st7" width="18.3" height="24.3"/>
			<rect x="39.8" y="183.2" class="st7" width="0.1" height="24.3"/>
			<rect x="31" y="183.2" class="st7" width="8.7" height="24.3"/>
			<rect x="127.7" y="183.2" class="st8" width="9.2" height="24.3"/>
			<rect x="103.1" y="183.2" class="st8" width="13.8" height="24.3"/>
			<rect x="68.7" y="183.2" class="st8" width="18.3" height="24.3"/>
			<rect x="39.9" y="183.2" class="st8" width="8.7" height="24.3"/>
		</g>
		<g>
			<path class="st1" d="M130.1,217.5H29.9v38.8h100.2c3.5,0,6.3-3.3,6.3-7.3v-24.2C136.4,220.8,133.5,217.5,130.1,217.5z"/>
			<path class="st9" d="M-70.3,217.5c-3.5,0-6.3,3.3-6.3,7.3V249c0,4,2.8,7.3,6.3,7.3H29.9v-38.8H-70.3z"/>
			<rect x="-67.1" y="232" class="st7" width="9.2" height="24.3"/>
			<rect x="-47.1" y="232" class="st7" width="13.8" height="24.3"/>
			<rect x="-17.3" y="232" class="st7" width="18.3" height="24.3"/>
			<rect x="29.9" y="232" class="st7" width="0.1" height="24.3"/>
			<rect x="21.1" y="232" class="st7" width="8.7" height="24.3"/>
			<rect x="117.8" y="232" class="st8" width="9.2" height="24.3"/>
			<rect x="93.2" y="232" class="st8" width="13.8" height="24.3"/>
			<rect x="58.8" y="232" class="st8" width="18.3" height="24.3"/>
			<rect x="30" y="232" class="st8" width="8.7" height="24.3"/>
		</g>
		<g>
			<path class="st1" d="M145.6,266.3H45.4v38.8h100.2c3.5,0,6.3-3.3,6.3-7.3v-24.2C151.9,269.6,149.1,266.3,145.6,266.3z"/>
			<path class="st9" d="M-54.7,266.3c-3.5,0-6.3,3.3-6.3,7.3v24.2c0,4,2.8,7.3,6.3,7.3H45.5v-38.8H-54.7z"/>
			<rect x="-51.6" y="280.7" class="st7" width="9.2" height="24.3"/>
			<rect x="-31.5" y="280.7" class="st7" width="13.8" height="24.3"/>
			<rect x="-1.8" y="280.7" class="st7" width="18.3" height="24.3"/>
			<rect x="45.4" y="280.7" class="st7" width="0.1" height="24.3"/>
			<rect x="36.7" y="280.7" class="st7" width="8.7" height="24.3"/>
			<rect x="133.3" y="280.7" class="st8" width="9.2" height="24.3"/>
			<rect x="108.7" y="280.7" class="st8" width="13.8" height="24.3"/>
			<rect x="74.4" y="280.7" class="st8" width="18.3" height="24.3"/>
			<rect x="45.5" y="280.7" class="st8" width="8.7" height="24.3"/>
		</g>
		<g>
			<path class="st1" d="M125.7,315H25.5v38.8h100.2c3.5,0,6.3-3.3,6.3-7.3v-24.2C132,318.3,129.2,315,125.7,315z"/>
			<path class="st9" d="M-74.7,315c-3.5,0-6.3,3.3-6.3,7.3v24.2c0,4,2.8,7.3,6.3,7.3H25.5V315H-74.7z"/>
			<rect x="-71.5" y="329.5" class="st7" width="9.2" height="24.3"/>
			<rect x="-51.4" y="329.5" class="st7" width="13.8" height="24.3"/>
			<rect x="-21.7" y="329.5" class="st7" width="18.3" height="24.3"/>
			<rect x="25.5" y="329.5" class="st7" width="0.1" height="24.3"/>
			<rect x="16.8" y="329.5" class="st7" width="8.7" height="24.3"/>
			<rect x="113.4" y="329.5" class="st8" width="9.2" height="24.3"/>
			<rect x="88.8" y="329.5" class="st8" width="13.8" height="24.3"/>
			<rect x="54.5" y="329.5" class="st8" width="18.3" height="24.3"/>
			<rect x="25.6" y="329.5" class="st8" width="8.7" height="24.3"/>
		</g>
		<g>
			<path class="st1" d="M133.6,363.8H33.4v38.8h100.2c3.5,0,6.3-3.3,6.3-7.3v-24.2C139.9,367.1,137.1,363.8,133.6,363.8z"/>
			<path class="st9" d="M-66.8,363.8c-3.5,0-6.3,3.3-6.3,7.3v24.2c0,4,2.8,7.3,6.3,7.3H33.4v-38.8H-66.8z"/>
			<rect x="-63.6" y="378.2" class="st7" width="9.2" height="24.3"/>
			<rect x="-43.5" y="378.2" class="st7" width="13.8" height="24.3"/>
			<rect x="-13.8" y="378.2" class="st7" width="18.3" height="24.3"/>
			<rect x="33.4" y="378.2" class="st7" width="0.1" height="24.3"/>
			<rect x="24.7" y="378.2" class="st7" width="8.7" height="24.3"/>
			<rect x="121.3" y="378.2" class="st8" width="9.2" height="24.3"/>
			<rect x="96.7" y="378.2" class="st8" width="13.8" height="24.3"/>
			<rect x="62.4" y="378.2" class="st8" width="18.3" height="24.3"/>
			<rect x="33.5" y="378.2" class="st8" width="8.7" height="24.3"/>
		</g>
		<g>
			<path class="st1" d="M123.7,412.5H23.5v38.8h100.2c3.5,0,6.3-3.3,6.3-7.3v-24.2C130,415.8,127.2,412.5,123.7,412.5z"/>
			<path class="st9" d="M-76.7,412.5c-3.5,0-6.3,3.3-6.3,7.3V444c0,4,2.8,7.3,6.3,7.3H23.5v-38.8H-76.7z"/>
			<rect x="-73.5" y="427" class="st7" width="9.2" height="24.3"/>
			<rect x="-53.5" y="427" class="st7" width="13.8" height="24.3"/>
			<rect x="-23.7" y="427" class="st7" width="18.3" height="24.3"/>
			<rect x="23.5" y="427" class="st7" width="0.1" height="24.3"/>
			<rect x="14.7" y="427" class="st7" width="8.7" height="24.3"/>
			<rect x="111.4" y="427" class="st8" width="9.2" height="24.3"/>
			<rect x="86.8" y="427" class="st8" width="13.8" height="24.3"/>
			<rect x="52.5" y="427" class="st8" width="18.3" height="24.3"/>
			<rect x="23.6" y="427" class="st8" width="8.7" height="24.3"/>
		</g>
	</g>
	<path class="st5" d="M-151.5,565.4l22.3-24.3c0,0,4.4-5,10.2-6.2c3.1-0.6,24.6-5,48.4-10.2l-0.9-105.3c-3.7-3.3-5-8.7-1.3-15.7
		c0.3-0.5,0.6-1.1,1.1-1.7l-0.5-63.1c-11.1,7.6-26.3,13.2-34.3,18.9c-12.2,8.5-48.3,32.8-72.6,57.8c-15.7,10.1-25.8,41.9-32.4,49.7
		s-20.9,23.2-20.9,23.2L-151.5,565.4z"/>
	<path class="st5" d="M-32.8,354.4c0,0,12.6-15.5,0.5-26.9c-7.3-6.8-20.4-2.3-29.5,4.1c-3.4,2.5-6.8,4.8-10.2,7.1l0.5,63.1
		C-63.3,388.7-32.8,354.4-32.8,354.4z"/>
	<path class="st4" d="M70.9,508.7c14.2-3,27.3-8.4,32-13.4c22.4-12.5,46.5-40.9,49.4-43.3c7.4-6.3,12-20.4,4.1-29.6
		c-8-9.3-13.4-13.1-32.2-3.4c-17.4,11.1-61.4,33.4-61.4,33.4s-14.2-2.7-30.4-3.7c-16.2-1.1-53.1-3-62.7-4.4
		c-13.5-1.9-18.3-2.9-30.1-12.3c-3.5-2.8-8.4-10.2-11.1-12.6l0.9,105.1c21-4.6,56.4-7.9,69.8-8.8C27.6,513.8,66.5,508.8,70.9,508.7z
		"/>
	<path class="st0" d="M13.4,482.2"/>
	<path class="st0" d="M-164.8,552.4l21.9-23.6l0.1-0.1l0.1-0.1c2-2.2,9.4-9.6,19.9-11.8l1-0.2c18.8-3.9,36-7.6,51.1-10.9l-0.1-18.7
		c-15.8,3.4-34.3,7.5-54.6,11.6l-1,0.2c-15.7,3.2-26.1,13.2-29.9,17.5l-21.8,23.5L-164.8,552.4z"/>
	<path class="st0" d="M-18.9,493.9c24.2-6.5,18.8-2,32.6-2.6c13.9-0.5,13-16.1-0.6-18.3c-13.6-2.1-20.2-1.3-36.7,3.1
		c-9.3,2.5-25.8,6.4-47.3,11l0.1,18.7C-47.1,500.8-28.7,496.5-18.9,493.9z"/>
	<path class="st8" d="M-142.6,567.6l-6.3-6c0,0-103.2-97.8-107.4-102c-4.3-4.2-8.3-2.5-10.9,0.1c-2.6,2.6-35.3,39.7-35.3,39.7
		l1.2,141l91.9-0.7L-142.6,567.6z"/>
	<path class="st9" d="M-159.3,586l-6.3-6c0,0-103.2-97.8-107.4-102s-8.3-2.5-10.9,0.1s-21.2,25.1-21.2,25.1l1.1,141l91.9-0.7
		L-159.3,586z"/>
	<circle class="st0" cx="-195.6" cy="586.7" r="13"/>
	<circle class="st0" cx="-224.6" cy="561" r="13"/>
	<path class="st0" d="M13.3,484.7"/>
</g>
</svg>
