<svg width="512" height="520" viewBox="0 0 512 520" fill="none" xmlns="http://www.w3.org/2000/svg">
<g clip-path="url(#clip0_363_439)" filter="url(#filter0_dd_363_439)">
<path fill-rule="evenodd" clip-rule="evenodd" d="M249.832 455.742C243.651 458.996 237.152 460.819 230.444 460.819V520.003H400.548V520.002H249.832V455.742Z" fill="#FD6A33"/>
<path fill-rule="evenodd" clip-rule="evenodd" d="M230.444 431.838V438.878V471.43H249.832V405.768L249.322 406.837L230.444 431.838ZM281.982 338.369H297.634L283.2 335.816L281.982 338.369Z" fill="white"/>
<path opacity="0.4" fill-rule="evenodd" clip-rule="evenodd" d="M340.195 336.074C329.565 328.294 314.942 317.593 304.935 314.797C297.792 314.797 290.241 320.409 287.894 327.144L281.807 338.368H343.335C342.337 337.642 341.287 336.874 340.195 336.074ZM249.832 428.882V397.322L231.057 431.941C229.832 435.92 230.342 441.022 231.771 442.247C232.791 442.961 233.302 443.165 236.567 442.451C236.567 442.451 242.364 436.715 249.832 428.882Z" fill="#CDD4D5"/>
<path d="M116.023 141H109.608H103.08C94.7524 141 88 147.28 88 154.796V214.204C88 221.822 94.8649 228 103.08 228H109.608H116.023C119.736 228 123 225.22 123 221.617V147.28C122.887 143.986 119.849 141 116.023 141Z" fill="#FD6A33"/>
<path d="M351.244 228H345.379C341.984 228 339 225.223 339 221.624V147.376C339 143.982 341.778 141 345.379 141H351.244H357.212C364.826 141 371 147.273 371 154.78V214.22C371 221.83 364.723 228 357.212 228H351.244Z" fill="#FF8C29"/>
<path d="M297.201 87.1965H253.567C249.244 87.1965 245.231 83.3218 245.231 78.9373V77H230V213.123H233.087H238.85C240.6 213.123 241.938 214.551 241.938 216.08V221.79C241.938 223.524 240.497 224.849 238.85 224.849H233.087V224.951H230V269H297.201C314.695 269 329 254.827 329 237.493V118.5C329 101.166 314.592 86.9926 297.201 87.1965ZM285.675 221.688C285.675 223.524 284.131 224.951 282.381 224.951H264.99C263.24 224.951 261.696 223.422 261.696 221.688V216.386C261.696 214.551 263.24 213.123 264.99 213.123H282.279C284.131 213.123 285.572 214.653 285.572 216.386V221.688H285.675ZM273.634 173.051C264.887 173.051 257.786 166.015 257.786 157.348C257.786 148.681 264.887 141.646 273.634 141.646C282.381 141.646 289.482 148.681 289.482 157.348C289.482 166.015 282.381 173.051 273.634 173.051Z" fill="#FF8C29"/>
<path d="M249.711 71.9836C256.554 67.6557 254.614 57.918 248.077 53C248.077 53 230 65.8852 230 77C235.311 77 245.116 77 245.116 77C245.116 77 244.196 75.5246 249.711 71.9836Z" fill="#FF8C29"/>
<path d="M229.9 77H215.131V78.7325C215.131 83.5223 210.341 86.9873 205.85 86.9873H164.836C147.871 86.9873 134 101.153 134 118.478V237.51C134 254.834 147.871 269 164.836 269H229.9V224.873H221.318C219.622 224.873 218.324 223.446 218.324 221.815V216.108C218.324 214.376 219.721 213.051 221.318 213.051H225.909H230V77H229.9ZM199.164 221.815C199.164 223.548 197.767 224.873 196.17 224.873H179.006C177.31 224.873 176.012 223.446 176.012 221.815V216.108C176.012 214.376 177.41 213.051 179.006 213.051H196.17C197.767 213.051 199.164 214.478 199.164 216.108V221.815ZM187.588 172.898C179.106 172.898 172.22 165.866 172.22 157.204C172.22 148.541 179.106 141.51 187.588 141.51C196.071 141.51 202.956 148.643 202.956 157.204C202.956 165.866 196.071 172.898 187.588 172.898Z" fill="#FD6A33"/>
<path d="M225.798 55.5688C220.046 59.1246 215 65.1792 215 77C221.963 77 224.688 77 229.936 77C229.936 65.948 248 53.3584 248 53.3584C241.541 48.5532 231.45 52.0129 225.798 55.5688Z" fill="#FD6A33"/>
<path d="M103.571 194.206C104.161 195.106 104.456 196.305 104.062 197.404C102.587 203.799 103.767 210.495 107.308 215.691C108.488 217.39 108.094 219.888 106.619 221.187C104.948 222.486 102.587 222.186 101.407 220.587C96.3919 213.592 94.8185 204.599 96.8836 196.005C97.3753 193.906 99.3421 192.607 101.407 193.107C102.489 193.007 102.981 193.507 103.571 194.206Z" fill="#FFD1A9"/>
<path d="M360.588 193.102C362.541 192.602 364.592 194.001 365.08 196C367.228 204.596 365.568 213.591 360.588 220.587C359.417 222.186 357.171 222.486 355.413 221.187C353.949 219.888 353.46 217.489 354.73 215.69C358.245 210.393 359.514 203.796 357.952 197.4C357.561 196.3 357.854 195.101 358.44 194.201C359.026 193.602 359.612 193.102 360.588 193.102Z" fill="#FFD1A9"/>
<path d="M294.271 20.7765L277.061 37.3725C274.772 39.5588 271.091 39.5588 268.704 37.2731C266.416 34.9874 266.416 31.4098 268.803 29.2235L286.014 12.6275C288.302 10.4412 291.983 10.4412 294.371 12.7269C296.559 14.9132 296.559 18.4908 294.271 20.7765Z" fill="#F0353D"/>
<path d="M309.237 57.4998C308.101 58.5243 306.656 59.0831 304.798 58.99L282.09 58.8968C278.684 58.8968 276 56.5684 276 53.4018C276 50.5147 278.684 48.0931 282.193 48L304.901 48.0931C308.308 48.0931 310.991 50.4215 310.991 53.5881C311.094 55.1714 310.269 56.5684 309.237 57.4998Z" fill="#F0353D"/>
<path d="M257.35 28.3946C256.342 29.4909 255.058 30.0889 253.408 29.9892C250.383 29.9892 248 27.4976 248 24.109L248.092 2.78059C248.092 -0.309033 250.475 -2.90033 253.592 -3C256.617 -3 259 -0.508366 259 2.88026V24.2087C258.908 25.903 258.45 27.2983 257.35 28.3946Z" fill="#F0353D"/>
<path d="M230.102 286C241.207 286 244.366 288.127 247.932 295.62C253.535 307.165 259.546 318.911 253.433 325.089C247.218 331.266 237.132 334 230 334V286H230.102Z" fill="#4ACFD9"/>
<path d="M230 438.807V432.003L211.425 406.747L178.09 335L161.624 337.989L131 360.565L148.169 413.86L203.593 472L230 471.691V438.807Z" fill="#E6EAEA"/>
<path d="M230 460.339C188.8 460.339 155.453 390.906 155.453 344H123.941C123.941 401.912 110.786 493.667 60 493.667V520H230V460.339Z" fill="#F0353D"/>
<path d="M229.902 286C219.224 286 216.187 288.127 212.758 295.62C207.37 307.165 201.59 318.911 207.468 325.089C213.444 331.266 223.142 334 230 334V286H229.902Z" fill="#0295AA"/>
<path d="M230 338.188C230 338.188 219.817 337.78 216.965 336.045C214.216 334.311 206.069 382.666 207.088 396.846C208.106 411.026 212.485 408.68 212.485 408.68L230 435V338.188Z" fill="#0295AA"/>
<path d="M155.463 314C162.511 314 170.171 319.699 172.418 326.433L229.31 432.843C230.535 436.987 230.025 441.546 228.595 443.308C227.88 444.137 227.982 444.24 223.794 443.515C223.794 443.515 194.48 413.986 182.734 397.2C172.725 382.695 165.473 367.36 155.668 350.575C145.862 333.79 99.7977 359.175 99.7977 359.175C96.1207 352.958 106.13 345.187 110.012 342.701C118.796 337.313 141.572 318.041 155.463 314Z" fill="#9BAAAB"/>
<path d="M231.5 494C235.642 494 239 490.642 239 486.5C239 482.358 235.642 479 231.5 479C227.358 479 224 482.358 224 486.5C224 490.642 227.358 494 231.5 494Z" fill="#365558"/>
<path fill-rule="evenodd" clip-rule="evenodd" d="M243.506 337.037C240.648 338.669 230.444 339.077 230.444 339.077V436.119L247.996 409.69C247.996 409.69 248.817 410.13 249.832 409.479V361.284C247.582 347.748 244.875 336.225 243.506 337.037Z" fill="#4ACFD9"/>
<path d="M418.511 342.328V342.811H363.152V342.328H353.656V342.956H428.006V342.328H418.511Z" fill="#9EA8AA"/>
<path d="M428.007 331.319V342.329H418.511V335.327C418.511 332.864 416.565 330.884 414.143 330.884H391.544V322.047H418.891C423.924 322.047 428.007 326.2 428.007 331.319Z" fill="#C4C4C4"/>
<path d="M391.543 322.047V330.884H367.52C365.098 330.884 363.152 332.864 363.152 335.327V342.329H353.656V331.319C353.656 326.2 357.739 322.047 362.772 322.047H391.543Z" fill="#9EA8AA"/>
<path d="M391.496 343.004V512.069H288.802C281.775 512.069 276.078 506.274 276.078 499.127V352.227C276.078 347.157 280.114 343.004 285.146 343.004H391.496Z" fill="#9EA8AA"/>
<path d="M507.817 352.227V499.175C507.817 506.322 502.12 512.117 495.093 512.117H391.544V343.004H498.796C503.781 343.004 507.817 347.109 507.817 352.227Z" fill="#C4C4C4"/>
<path d="M391.545 453.591L332.768 453.156C321.99 453.156 312.4 446.202 308.934 435.82L283.913 361.452C283.011 358.796 282.536 355.947 282.536 353.146V346.241C282.536 344.406 283.96 342.957 285.765 342.957H353.658V351.891C353.658 357.01 357.741 361.163 362.774 361.163H391.545V438.524V453.591V453.591Z" fill="#F0353D"/>
<path d="M391.543 342.957V361.163H362.772C357.739 361.163 353.656 357.01 353.656 351.891V342.957H391.543Z" fill="#F0353D"/>
<path d="M499.128 346.241V349.476C499.128 352.567 498.558 355.657 497.466 358.603L468.363 436.592C464.659 446.54 455.259 453.108 444.766 453.108L391.544 453.591L391.496 438.524V361.163H418.843C423.876 361.163 427.959 357.01 427.959 351.891V342.957H495.852C497.704 342.957 499.128 344.454 499.128 346.241Z" fill="#FD6A33"/>
<path d="M428.007 342.957V351.891C428.007 357.01 423.924 361.163 418.891 361.163H391.544V342.957H428.007Z" fill="#FD6A33"/>
</g>
<defs>
<filter id="filter0_dd_363_439" x="-4" y="0" width="520" height="520" filterUnits="userSpaceOnUse" color-interpolation-filters="sRGB">
<feFlood flood-opacity="0" result="BackgroundImageFix"/>
<feColorMatrix in="SourceAlpha" type="matrix" values="0 0 0 0 0 0 0 0 0 0 0 0 0 0 0 0 0 0 127 0" result="hardAlpha"/>
<feOffset dy="4"/>
<feGaussianBlur stdDeviation="2"/>
<feComposite in2="hardAlpha" operator="out"/>
<feColorMatrix type="matrix" values="0 0 0 0 0 0 0 0 0 0 0 0 0 0 0 0 0 0 0.25 0"/>
<feBlend mode="normal" in2="BackgroundImageFix" result="effect1_dropShadow_363_439"/>
<feColorMatrix in="SourceAlpha" type="matrix" values="0 0 0 0 0 0 0 0 0 0 0 0 0 0 0 0 0 0 127 0" result="hardAlpha"/>
<feOffset dy="4"/>
<feGaussianBlur stdDeviation="2"/>
<feComposite in2="hardAlpha" operator="out"/>
<feColorMatrix type="matrix" values="0 0 0 0 0 0 0 0 0 0 0 0 0 0 0 0 0 0 0.25 0"/>
<feBlend mode="normal" in2="effect1_dropShadow_363_439" result="effect2_dropShadow_363_439"/>
<feBlend mode="normal" in="SourceGraphic" in2="effect2_dropShadow_363_439" result="shape"/>
</filter>
<clipPath id="clip0_363_439">
<rect width="512" height="512" fill="white"/>
</clipPath>
</defs>
</svg>
