<?xml version="1.0" encoding="utf-8"?>
<!-- Generator: Adobe Illustrator 25.4.1, SVG Export Plug-In . SVG Version: 6.00 Build 0)  -->
<svg version="1.1" id="Layer_1" xmlns="http://www.w3.org/2000/svg" xmlns:xlink="http://www.w3.org/1999/xlink" x="0px" y="0px"
	 viewBox="0 0 512 512" style="enable-background:new 0 0 512 512;" xml:space="preserve">
<style type="text/css">
	.st0{fill:#9EA8AA;}
	.st1{fill:#E7E9E9;}
	.st2{fill:#FD6A33;}
	.st3{fill:#FF8C29;}
	.st4{fill:none;}
	.st5{fill:#687F82;}
	.st6{fill:#365558;}
	.st7{fill:#E6EAEA;}
	.st8{fill:#F0353D;}
	.st9{fill:#FFFFFF;}
	.st10{fill:#4ACFD9;}
	.st11{fill:#0295AA;}
	.st12{fill:#9BAAAB;}
</style>
<path class="st0" d="M310.9,108.5v1H194.4v-1h-20v1.3H331v-1.3H310.9z"/>
<path class="st1" d="M330.9,85.7v22.8h-20V94c0-5.1-4.1-9.2-9.2-9.2h-47.6V66.5h57.6C322.3,66.5,330.9,75.1,330.9,85.7z"/>
<path class="st0" d="M254.2,66.5v18.3h-50.6c-5.1,0-9.2,4.1-9.2,9.2v14.5h-20V85.7c0-10.6,8.6-19.2,19.2-19.2H254.2z"/>
<path class="st0" d="M254.1,109.9V460H37.8c-14.8,0-26.8-12-26.8-26.8V129c0-10.5,8.5-19.1,19.1-19.1L254.1,109.9L254.1,109.9z"/>
<path class="st1" d="M499,129v304.3c0,14.8-12,26.8-26.8,26.8H254.2V109.9H480C490.5,109.9,499,118.4,499,129z"/>
<path class="st2" d="M254.2,338.9L130.4,338c-22.7,0-42.9-14.4-50.2-35.9l-52.7-154c-1.9-5.5-2.9-11.4-2.9-17.2v-14.3
	c0-3.8,3-6.8,6.8-6.8h143v18.5c0,10.6,8.6,19.2,19.2,19.2h60.6v160.2V338.9z"/>
<path class="st2" d="M254.2,109.8v37.7h-60.6c-10.6,0-19.2-8.6-19.2-19.2v-18.5H254.2z"/>
<path class="st3" d="M480.8,116.6v6.7c0,6.4-1.2,12.8-3.5,18.9l-61.3,161.5c-7.8,20.6-27.6,34.2-49.7,34.2l-112.1,1l-0.1-31.2V147.5
	h57.6c10.6,0,19.2-8.6,19.2-19.2v-18.5h143C477.8,109.8,480.8,112.9,480.8,116.6z"/>
<path class="st3" d="M330.9,109.8v18.5c0,10.6-8.6,19.2-19.2,19.2h-57.6v-37.7L330.9,109.8L330.9,109.8z"/>
<line class="st4" x1="253.2" y1="109.5" x2="253.2" y2="51"/>
<path class="st5" d="M349.8,207.3H158.5c-2.4,0-4.3,1.9-4.3,4.3v243.6c0,2.4,1.9,4.3,4.3,4.3h191.3c2.4,0,4.3-1.9,4.3-4.3V211.6
	C354,209.2,352.2,207.3,349.8,207.3z M254.2,386c-30,0-54.3-24.3-54.3-54.3c0-30,24.3-54.3,54.3-54.3s54.3,24.3,54.3,54.3
	S284.2,386,254.2,386z"/>
<path class="st6" d="M199.8,331.6c0-30,24.3-54.3,54.3-54.3v-70h-95.6c-2.4,0-4.3,1.9-4.3,4.3v243.6c0,2.4,1.9,4.3,4.3,4.3h95.6V386
	C224.1,386,199.8,361.6,199.8,331.6z"/>
<path class="st7" d="M331.2,225.5H176.4c-2.4,0-4.2,1.9-4.2,4.3v209.5c0,2.4,1.9,4.3,4.2,4.3H288c1.1,0,2.2-0.4,3-1.2l43.3-43.3
	c0.8-0.8,1.2-1.9,1.2-3V229.8C335.5,227.4,333.6,225.5,331.2,225.5z"/>
<path class="st2" d="M299.7,207.3h-15.2c-3.9-13.4-16.1-22.8-30.3-22.8c-14.2,0-26.5,9.4-30.3,22.8h-15.2c-2.4,0-4.3,1.9-4.3,4.2
	v34.2c0,2.4,1.9,4.2,4.3,4.2h91.1c2.4,0,4.3-1.9,4.3-4.2v-34.2C304,209.2,302.1,207.3,299.7,207.3z"/>
<path class="st8" d="M223.8,207.3h-15.2c-2.4,0-4.3,1.9-4.3,4.2v34.2c0,2.4,1.9,4.2,4.3,4.2h45.5v-65.5
	C239.9,184.5,227.7,193.9,223.8,207.3z"/>
<path class="st9" d="M269.8,217.7c-2,0-3.9-1.5-4.2-3.5c-1-5.6-5.8-9.7-11.5-9.7c-2.4,0-4.3-1.9-4.3-4.3c0-2.4,1.9-4.3,4.3-4.3
	c9.9,0,18.3,7.1,19.9,16.8c0.4,2.3-1.2,4.5-3.5,4.9C270.3,217.7,270.1,217.7,269.8,217.7z"/>
<path class="st10" d="M247.1,291.8l-25.4-25.4c-5.1-5.1-11.9-7.9-19.1-7.9c-7.2,0-14,2.8-19.1,7.9c-10.6,10.6-10.6,27.7,0,38.3
	l25.4,25.4c5.1,5.1,11.9,7.9,19.1,7.9s14-2.8,19.1-7.9c5.1-5.1,7.9-11.9,7.9-19.1C255,303.7,252.2,296.9,247.1,291.8z M212.2,276
	l25.4,25.4c5.3,5.3,5.3,14,0,19.2c-5.3,5.3-14,5.3-19.2,0l-12.7-12.7l0,0l-12.7-12.7c-5.3-5.3-5.3-14,0-19.2
	C198.2,270.7,206.9,270.7,212.2,276z"/>
<path class="st10" d="M322.5,367.3l-25.4-25.4c-5.1-5.1-11.9-7.9-19.1-7.9c-7.2,0-14,2.8-19.1,7.9c-5.1,5.1-7.9,11.9-7.9,19.1
	c0,7.2,2.8,14,7.9,19.1l25.4,25.4c5.1,5.1,11.9,7.9,19.1,7.9c7.2,0,14-2.8,19.1-7.9c5.1-5.1,7.9-11.9,7.9-19.1
	C330.5,379.2,327.6,372.4,322.5,367.3z M293.8,396.1l-12.7-12.7l-12.7-12.7c-5.3-5.3-5.3-14,0-19.2c5.3-5.3,14-5.3,19.2,0l25.4,25.4
	c5.3,5.3,5.3,14,0,19.2C307.7,401.4,299.1,401.4,293.8,396.1z"/>
<path class="st11" d="M285.1,358.4L229.7,303c-2.7-2.7-7-2.7-9.7,0c-1.3,1.3-2,3-2,4.9c0,1.8,0.7,3.5,2,4.9l55.4,55.4
	c1.3,1.3,3,2,4.9,2c1.8,0,3.5-0.7,4.9-2c1.3-1.3,2-3,2-4.9C287.1,361.4,286.4,359.7,285.1,358.4z"/>
<path class="st12" d="M288.3,400.3v43.3l0,0c1.1,0,2.2-0.4,3-1.2l43.3-43.3c0.8-0.8,1.2-1.9,1.2-3l0,0h-43.3
	C290.2,396,288.3,397.9,288.3,400.3z"/>
<g>
	<path class="st2" d="M287.8,305.2c-1,0-2.1-0.4-2.8-1.2c-1.6-1.6-1.6-4.1,0-5.7l22.7-22.7c1.6-1.6,4.1-1.6,5.7,0
		c1.6,1.6,1.6,4.1,0,5.7l-22.7,22.7C289.9,304.9,288.8,305.2,287.8,305.2z"/>
	<path class="st2" d="M270.5,298.1c-2.3,0-4.1-1.8-4.1-4.1v-32.1c0-2.3,1.8-4.1,4.1-4.1s4.1,1.8,4.1,4.1V294
		C274.6,296.3,272.7,298.1,270.5,298.1z"/>
	<path class="st2" d="M327.1,322.5H295c-2.3,0-4.1-1.8-4.1-4.1s1.8-4.1,4.1-4.1h32.1c2.3,0,4.1,1.8,4.1,4.1
		C331.2,320.8,329.3,322.5,327.1,322.5z"/>
</g>
<g>
	<path class="st2" d="M218.9,366.1c1,0,2.1,0.4,2.8,1.2c1.6,1.6,1.6,4.1,0,5.7L199,395.7c-1.6,1.6-4.1,1.6-5.7,0
		c-1.6-1.6-1.6-4.1,0-5.7l22.7-22.7C216.8,366.5,217.8,366.1,218.9,366.1z"/>
	<path class="st2" d="M236.2,373.2c2.3,0,4.1,1.8,4.1,4.1v32.1c0,2.3-1.8,4.1-4.1,4.1s-4.1-1.8-4.1-4.1v-32.1
		C232.1,375.1,233.9,373.2,236.2,373.2z"/>
	<path class="st2" d="M179.6,348.7h32.1c2.3,0,4.1,1.8,4.1,4.1s-1.8,4.1-4.1,4.1h-32.1c-2.3,0-4.1-1.8-4.1-4.1
		S177.3,348.7,179.6,348.7z"/>
</g>
</svg>
