<?xml version="1.0" encoding="utf-8"?>
<!-- Generator: Adobe Illustrator 25.4.1, SVG Export Plug-In . SVG Version: 6.00 Build 0)  -->
<svg version="1.1" id="Layer_1" xmlns="http://www.w3.org/2000/svg" xmlns:xlink="http://www.w3.org/1999/xlink" x="0px" y="0px"
	 viewBox="0 0 512 512" style="enable-background:new 0 0 512 512;" xml:space="preserve">
<style type="text/css">
	.st0{fill:#E7E9E9;}
	.st1{fill:#9EA8AA;}
	.st2{fill:#FD6A33;}
	.st3{fill:#FF8C29;}
	.st4{fill:none;}
	.st5{fill:#E6EAEA;}
	.st6{fill:#CDD4D5;}
	.st7{fill:#FFD1A9;}
	.st8{fill:#9BAAAB;}
	.st9{fill:#687F82;}
	.st10{fill:#365558;}
	.st11{fill:#F0353D;}
	.st12{fill:#0295AA;}
	.st13{fill:#4ACFD9;}
</style>
<path class="st0" d="M330.9,87.7v22.8h-20V96c0-5.1-4.1-9.2-9.2-9.2h-47.6V68.5h57.6C322.3,68.5,330.9,77.1,330.9,87.7z"/>
<path class="st1" d="M254.2,68.5v18.3h-50.6c-5.1,0-9.2,4.1-9.2,9.2v14.5h-20V87.7c0-10.6,8.6-19.2,19.2-19.2H254.2z"/>
<path class="st1" d="M254.1,109.9V460H37.8C23,460,11,448,11,433.2V129c0-10.5,8.5-19.1,19.1-19.1H254.1L254.1,109.9z"/>
<path class="st0" d="M498.9,128.9v304.3c0,14.8-12,26.8-26.8,26.8h-218V109.8h225.8C490.4,109.8,498.9,118.3,498.9,128.9z"/>
<path class="st2" d="M255.5,111.1v229.1l-123.8-0.9c-22.7,0-42.9-14.4-50.2-35.9l-52.7-154c-1.9-5.5-2.9-11.4-2.9-17.2v-14.3
	c0-3.8,3-6.8,6.8-6.8H255.5z"/>
<path class="st3" d="M480.8,116.6v6.7c0,6.4-1.2,12.8-3.5,18.9L416,303.7c-7.8,20.6-27.6,34.2-49.7,34.2l-112.1,1l-0.1-31.2V109.8
	h219.8C477.8,109.8,480.8,112.9,480.8,116.6z"/>
<line class="st4" x1="253.2" y1="109.5" x2="253.2" y2="51"/>
<path class="st5" d="M368.9,167.3H139.1c-2.1,0-3.7,1.6-3.7,3.7V394c0,2,1.7,3.7,3.7,3.7h229.8c2.1,0,3.7-1.6,3.7-3.7V171
	C372.6,168.9,371,167.3,368.9,167.3z"/>
<path class="st6" d="M140.5,167.9c-2,0-3.7,1.7-3.7,3.7v224.6c0,2,1.7,3.7,3.7,3.7h113.6v-232H140.5z"/>
<polygon class="st7" points="136.8,337.7 136.8,397.9 372.6,397.9 372.6,212.6 314.9,280 254.7,332.9 192.1,275.2 "/>
<polygon class="st3" points="192.1,275.2 136.8,337.7 136.8,397.9 254.1,397.9 254.1,332.4 "/>
<path class="st8" d="M370.2,164.8h-231c-2.5,0-4.5,2-4.5,4.5v226.2c0,2.5,2,4.5,4.5,4.5h231c2.5,0,4.5-2,4.5-4.5V169.3
	C374.7,166.8,372.7,164.8,370.2,164.8z M310.4,275.5h-51.1v-48.7h51.1V275.5z M319.4,226.7h46.3v48.7h-46.3V226.7z M259.2,217.7
	v-43.9h51.1v43.9H259.2z M250.2,217.7h-51.1v-43.9h51.1V217.7z M250.2,226.7v48.7h-51.1v-48.7H250.2z M190,275.5h-46.3v-48.7H190
	V275.5z M143.7,284.5H190v48.7h-46.3V284.5z M199.1,284.5h51.1v48.7h-51.1V284.5z M250.2,342.2V391h-51.1v-48.7L250.2,342.2
	L250.2,342.2z M259.2,342.2h51.1V391h-51.1L259.2,342.2L259.2,342.2z M259.2,333.2v-48.7h51.1v48.7L259.2,333.2L259.2,333.2z
	 M319.4,284.5h46.3v48.7h-46.3V284.5z M365.7,217.7h-46.3v-43.9h46.3V217.7z M190,173.8v43.9h-46.3v-43.9H190z M143.7,342.2H190V391
	h-46.3V342.2z M319.4,391v-48.7h46.3V391H319.4z"/>
<path class="st9" d="M139.2,164.8c-2.5,0-4.5,2-4.5,4.5v226.2c0,2.5,2,4.5,4.5,4.5h114.9V164.8H139.2z M190,391h-46.3v-48.7H190V391
	z M190,333.2h-46.3v-48.7H190V333.2z M190,275.5h-46.3v-48.7H190V275.5z M190,217.7h-46.3v-43.9H190V217.7z M250.2,391h-51.1v-48.7
	h51.1V391z M250.2,333.2h-51.1v-48.7h51.1V333.2z M250.2,275.5h-51.1v-48.7h51.1V275.5z M199.1,217.7v-43.9h51.1v43.9H199.1z"/>
<path class="st10" d="M139.2,344.7c-1.1,0-2.2-0.4-3.1-1.2c-1.8-1.7-2-4.5-0.3-6.4l55.4-60.2c0.8-0.9,2-1.4,3.2-1.5
	c1.2,0,2.4,0.4,3.3,1.3l57,54.8l56.9-54.7l52.8-57.7c1.7-1.8,4.5-2,6.4-0.3c1.8,1.7,2,4.5,0.3,6.4L318.2,283
	c-0.1,0.1-0.1,0.1-0.2,0.2L257.8,341c-1.7,1.7-4.5,1.7-6.3,0l-56.8-54.6l-52.2,56.8C141.6,344.2,140.4,344.7,139.2,344.7z"/>
<path class="st11" d="M139.2,321.2c-9.1,0-16.5,7.4-16.5,16.5s7.4,16.5,16.5,16.5s16.5-7.4,16.5-16.5S148.3,321.2,139.2,321.2z"/>
<path class="st12" d="M194.5,263.4c-9.1,0-16.5,7.4-16.5,16.5c0,9.1,7.4,16.5,16.5,16.5c9.1,0,16.5-7.4,16.5-16.5
	C211.1,270.9,203.7,263.4,194.5,263.4z"/>
<path class="st2" d="M254.7,321.2c-9.1,0-16.5,7.4-16.5,16.5s7.4,16.5,16.5,16.5c9.1,0,16.5-7.4,16.5-16.5S263.8,321.2,254.7,321.2z
	"/>
<path class="st11" d="M238.2,337.7c0,8.9,7.1,16.2,15.9,16.5v-33.1C245.3,321.5,238.2,328.8,238.2,337.7z"/>
<g>
	<path class="st13" d="M314.9,263.4c-9.1,0-16.5,7.4-16.5,16.5c0,9.1,7.4,16.5,16.5,16.5s16.5-7.4,16.5-16.5
		C331.4,270.9,324,263.4,314.9,263.4z"/>
	<path class="st13" d="M367.8,205.7c-9.1,0-16.5,7.4-16.5,16.5c0,9.1,7.4,16.5,16.5,16.5s16.5-7.4,16.5-16.5
		C384.4,213.1,376.9,205.7,367.8,205.7z"/>
</g>
</svg>
