<svg width="512" height="512" viewBox="0 0 512 512" fill="none" xmlns="http://www.w3.org/2000/svg">
<g clip-path="url(#clip0_418_3015)">
<path d="M314.69 143.316V144.365H192.381V143.316H171.401V144.68H335.67V143.316H314.69Z" fill="#9EA8AA"/>
<path d="M335.669 119.402V143.318H314.69V128.108C314.69 122.759 310.389 118.458 305.039 118.458H255.108V99.2617H315.529C326.648 99.2617 335.669 108.283 335.669 119.402Z" fill="#C4C4C4"/>
<path d="M255.109 99.2617V118.458H202.031C196.681 118.458 192.381 122.759 192.381 128.108V143.318H171.401V119.402C171.401 108.283 180.422 99.2617 191.542 99.2617H255.109Z" fill="#9EA8AA"/>
<path d="M255.004 144.781V512.024H28.1123C12.5876 512.024 0 499.437 0 483.912V164.817C0 153.802 8.91622 144.781 20.0353 144.781H255.004Z" fill="#9EA8AA"/>
<path d="M512 164.817V484.017C512 499.542 499.413 512.129 483.888 512.129H255.108V144.781H492.07C503.084 144.781 512 153.697 512 164.817Z" fill="#C4C4C4"/>
<path d="M255.11 384.998L125.248 384.054C101.436 384.054 80.2471 368.949 72.5896 346.396L17.3091 184.855C15.3161 179.086 14.2671 172.897 14.2671 166.813V151.813C14.2671 147.827 17.414 144.68 21.4001 144.68H171.402V164.086C171.402 175.205 180.423 184.226 191.542 184.226H255.11V352.27V384.998Z" fill="#F0353D"/>
<path d="M255.109 144.68V184.226H191.542C180.422 184.226 171.401 175.205 171.401 164.086V144.68H255.109Z" fill="#F0353D"/>
<path d="M492.804 151.813V158.841C492.804 165.554 491.545 172.267 489.133 178.666L424.831 348.074C416.649 369.683 395.88 383.949 372.697 383.949L255.108 384.998L255.003 352.27V184.226H315.424C326.543 184.226 335.564 175.205 335.564 164.086V144.68H485.566C489.657 144.68 492.804 147.931 492.804 151.813Z" fill="#FD6A33"/>
<path d="M335.669 144.68V164.086C335.669 175.205 326.648 184.226 315.529 184.226H255.108V144.68H335.669Z" fill="#FD6A33"/>
<path d="M255.821 512.384C250.649 512.384 246.457 508.193 246.457 503.019V193.364C246.457 188.191 250.65 184 255.821 184C260.994 184 265.186 188.191 265.186 193.364V503.019C265.186 508.193 260.994 512.384 255.821 512.384Z" fill="#365558"/>
<path d="M400.66 512.384C395.488 512.384 391.295 508.193 391.295 503.019V193.364C391.295 188.191 395.489 184 400.66 184C405.831 184 410.024 188.191 410.024 193.364V503.019C410.024 508.193 405.831 512.384 400.66 512.384Z" fill="#365558"/>
<path d="M110.982 512.384C105.81 512.384 101.618 508.193 101.618 503.019V193.364C101.618 188.191 105.811 184 110.982 184C116.155 184 120.347 188.191 120.347 193.364V503.019C120.347 508.193 116.155 512.384 110.982 512.384Z" fill="#365558"/>
<path d="M52.5 418C52.5 385.744 78.7443 359.5 111 359.5C143.256 359.5 169.5 385.744 169.5 418C169.5 450.256 143.256 476.5 111 476.5C78.7443 476.5 52.5 450.256 52.5 418Z" fill="#FF8C29" stroke="#687F82"/>
<path d="M52 418C52 450.532 78.4682 477 111 477V359C78.4682 359 52 385.468 52 418Z" fill="#FD6A33"/>
<path d="M256 219C223.468 219 197 245.692 197 278.5C197 311.308 223.468 338 256 338C288.532 338 315 311.308 315 278.5C315 245.692 288.532 219 256 219Z" fill="#9BAAAB"/>
<path d="M256 338V219C223.468 219 197 245.692 197 278.5C197 311.308 223.468 338 256 338Z" fill="#687F82"/>
<path d="M400.66 333.836C367.957 333.836 341.351 360.443 341.351 393.145C341.351 425.847 367.957 452.454 400.66 452.454C433.362 452.454 459.968 425.847 459.968 393.145C459.968 360.443 433.362 333.836 400.66 333.836Z" fill="#4ACFD9"/>
<path d="M341 393C341 425.532 367.917 452 401 452V334C367.917 334 341 360.467 341 393Z" fill="#0295AA"/>
</g>
<defs>
<clipPath id="clip0_418_3015">
<rect width="512" height="512" fill="white"/>
</clipPath>
</defs>
</svg>
