<svg width="512" height="512" viewBox="0 0 512 512" fill="none" xmlns="http://www.w3.org/2000/svg">
<g clip-path="url(#clip0_438_557)">
<path fill-rule="evenodd" clip-rule="evenodd" d="M258.5 0H240.5V132.93L193 132.93L259.167 183.738V132.93H258.5V0Z" fill="#BCD643"/>
<path fill-rule="evenodd" clip-rule="evenodd" d="M276.5 0H258.5V134H258.5V183.809L324.667 133L276.5 133.001V0Z" fill="#BCD643"/>
<path d="M305.665 230.105V230.907H207.851V230.105H191.073V231.148H322.443V230.105H305.665Z" fill="#9EA8AA"/>
<path d="M322.442 211.826V230.109H305.665V218.482C305.665 214.392 302.225 211.104 297.947 211.104H258.016V196.43H306.336C315.228 196.43 322.442 203.326 322.442 211.826Z" fill="#C4C4C4"/>
<path d="M258.016 196.43V211.104H215.569C211.29 211.104 207.851 214.392 207.851 218.482V230.109H191.073V211.826C191.073 203.326 198.288 196.43 207.18 196.43H258.016Z" fill="#9EA8AA"/>
<path d="M258 231V512H76.4895C64.0699 512 54 502.368 54 490.49V246.33C54 237.903 61.1329 231 70.028 231H258Z" fill="#9EA8AA"/>
<path d="M463 246.326V490.496C463 502.371 452.955 512 440.566 512H258V231H447.096C455.885 231 463 237.82 463 246.326Z" fill="#C4C4C4"/>
<path d="M258 415L153.935 414.277C134.853 414.277 117.873 402.712 111.737 385.444L67.4377 261.76C65.8406 257.343 65 252.605 65 247.946V236.461C65 233.409 67.5218 231 70.716 231H190.921V245.858C190.921 254.371 198.15 261.278 207.06 261.278H258V389.942V415Z" fill="#F0353D"/>
<path d="M258.016 231.148V261.38H207.18C198.288 261.38 191.073 254.483 191.073 245.983V231.148H258.016Z" fill="#F0353D"/>
<path d="M448 236.461V241.842C448 246.983 446.994 252.123 445.067 257.022L393.69 386.729C387.153 403.274 370.558 414.197 352.036 414.197L258 415V389.942V261.278H306.275C315.159 261.278 322.367 254.371 322.367 245.858V231H442.217C445.486 231 448 233.49 448 236.461Z" fill="#FD6A33"/>
<path d="M322.442 231.148V245.983C322.442 254.483 315.228 261.38 306.336 261.38H258.016V231.148H322.442Z" fill="#FD6A33"/>
</g>
<defs>
<clipPath id="clip0_438_557">
<rect width="512" height="512" fill="white"/>
</clipPath>
</defs>
</svg>
