<?xml version="1.0" encoding="utf-8"?>
<!-- Generator: Adobe Illustrator 25.4.1, SVG Export Plug-In . SVG Version: 6.00 Build 0)  -->
<svg version="1.1" id="Layer_1" xmlns="http://www.w3.org/2000/svg" xmlns:xlink="http://www.w3.org/1999/xlink" x="0px" y="0px"
	 viewBox="0 0 512 512" style="enable-background:new 0 0 512 512;" xml:space="preserve">
<style type="text/css">
	.st0{fill:#9EA8AA;}
	.st1{fill:#E7E9E9;}
	.st2{fill:#FD6A33;}
	.st3{fill:#FF8C29;}
	.st4{fill:none;}
	.st5{fill:#F0353D;}
	.st6{fill:#FFD1A9;}
	.st7{fill:#365558;}
	.st8{fill:#0295AA;}
	.st9{fill:#4ACFD9;}
	.st10{fill:#9BAAAB;}
	.st11{fill:#CDD4D5;}
	.st12{fill:#E6EAEA;}
	.st13{fill:#FFFFFF;}
	.st14{fill:#BCD643;}
	.st15{fill:#687F82;}
</style>
<g>
	<path class="st0" d="M311.1,103.5v1H194.5v-1h-20v1.3h156.6v-1.3H311.1z"/>
	<path class="st1" d="M331.1,80.7v22.8h-20V89c0-5.1-4.1-9.2-9.2-9.2h-47.6V61.5h57.6C322.5,61.5,331.1,70.1,331.1,80.7z"/>
	<path class="st0" d="M254.3,61.5v18.3h-50.6c-5.1,0-9.2,4.1-9.2,9.2v14.5h-20V80.7c0-10.6,8.6-19.2,19.2-19.2H254.3z"/>
	<path class="st0" d="M254.2,104.9V455H37.9c-14.8,0-26.8-12-26.8-26.8V124c0-10.5,8.5-19.1,19.1-19.1L254.2,104.9L254.2,104.9z"/>
	<path class="st1" d="M499.2,124v304.3c0,14.8-12,26.8-26.8,26.8H254.3V104.9h225.9C490.7,104.9,499.2,113.4,499.2,124z"/>
	<path class="st2" d="M254.3,333.9L130.5,333c-22.7,0-42.9-14.4-50.2-35.9l-52.7-154c-1.9-5.5-2.9-11.4-2.9-17.2v-14.3
		c0-3.8,3-6.8,6.8-6.8h143v18.5c0,10.6,8.6,19.2,19.2,19.2h60.6v160.2V333.9z"/>
	<path class="st2" d="M254.3,104.8v37.7h-60.6c-10.6,0-19.2-8.6-19.2-19.2v-18.5H254.3z"/>
	<path class="st3" d="M480.9,111.6v6.7c0,6.4-1.2,12.8-3.5,18.9l-61.3,161.5c-7.8,20.6-27.6,34.2-49.7,34.2l-112.1,1l-0.1-31.2
		V142.5h57.6c10.6,0,19.2-8.6,19.2-19.2v-18.5h143C477.9,104.8,480.9,107.9,480.9,111.6z"/>
	<path class="st3" d="M331.1,104.8v18.5c0,10.6-8.6,19.2-19.2,19.2h-57.6v-37.7L331.1,104.8L331.1,104.8z"/>
	<line class="st4" x1="253.3" y1="104.5" x2="253.3" y2="46"/>
</g>
<rect x="-717" class="st5" width="128" height="128"/>
<rect x="-589" class="st2" width="128" height="128"/>
<rect x="-461" class="st3" width="128" height="128"/>
<rect x="-333" class="st6" width="128" height="128"/>
<rect x="-717" y="128" class="st7" width="128" height="128"/>
<rect x="-589" y="128" class="st8" width="128" height="128"/>
<rect x="-461" y="128" class="st9" width="128" height="128"/>
<rect x="-717" y="256" class="st10" width="128" height="128"/>
<rect x="-589" y="256" class="st11" width="128" height="128"/>
<rect x="-461" y="256" class="st12" width="128" height="128"/>
<rect x="-333" y="256" class="st13" width="128" height="128"/>
<rect x="-717" y="384" class="st14" width="128" height="128"/>
<path class="st3" d="M405.5,484.8H98.8c-3.5,0-6.4-3.7-6.4-8.2v-15c0-4.5,2.9-8.2,6.4-8.2h306.8c3.5,0,6.4,3.7,6.4,8.2v15
	C412,481.1,409.1,484.8,405.5,484.8z"/>
<path class="st15" d="M215.4,511h-27.2c-2.9,0-5.1-2.4-5.1-5.1v-16.1c0-2.9,2.4-5.1,5.1-5.1h27.2c2.9,0,5.1,2.4,5.1,5.1v16.1
	C220.7,508.6,218.3,511,215.4,511z"/>
<path class="st15" d="M326.9,511h-27.2c-2.9,0-5.1-2.4-5.1-5.1v-16.1c0-2.9,2.4-5.1,5.1-5.1h27.2c2.9,0,5.1,2.4,5.1,5.1v16.1
	C332,508.6,329.6,511,326.9,511z"/>
<path class="st15" d="M405.2,511H378c-2.9,0-5.1-2.4-5.1-5.1v-16.1c0-2.9,2.4-5.1,5.1-5.1h27.2c2.9,0,5.1,2.4,5.1,5.1v16.1
	C410.3,508.6,408,511,405.2,511z"/>
<path class="st15" d="M125.3,511.1H98.1c-2.9,0-5.1-2.4-5.1-5.1v-16.1c0-2.9,2.4-5.1,5.1-5.1h27.2c2.9,0,5.1,2.4,5.1,5.1V506
	C130.5,508.7,128.1,511.1,125.3,511.1z"/>
<g>
	<path class="st10" d="M277.1,322.7l64.2-24.3l74.1-95.4c1.4-1.8,1.2-4.3-0.3-5.6l-57.9-44.9l-115,148.3l29.6,23
		C273.3,325,275.7,324.6,277.1,322.7z"/>
	<path class="st7" d="M303.4,110.8c-1.6-1.2-4.1-0.8-5.5,0.9l-81.9,105.4l5.4,67.5l20.5,16l115-148.2L303.4,110.8z"/>
	<g>
		<path class="st8" d="M300.7,150.2c-1.6-1.2-4.1-0.8-5.5,0.9s-1.2,4.3,0.4,5.5l36.3,28.2l5-6.5L300.7,150.2z"/>
		<path class="st8" d="M279.2,177.9c-1.6-1.2-4.1-0.8-5.5,0.9c-1.4,1.7-1.2,4.3,0.4,5.5l36.3,28.2l5-6.5L279.2,177.9L279.2,177.9z"
			/>
		<path class="st8" d="M252.2,206.5c-1.4,1.8-1.2,4.3,0.4,5.5l36.3,28.2l5-6.5l-36.3-28.2C256.1,204.3,253.6,204.7,252.2,206.5z"/>
		<path class="st8" d="M230.8,234.1c-1.4,1.8-1.2,4.3,0.4,5.5l36.3,28.2l5-6.5l-36.3-28.2C234.7,231.9,232.1,232.4,230.8,234.1z"/>
	</g>
	<g>
		<path class="st7" d="M373.7,212.1c1.4-1.8,1.2-4.3-0.4-5.5L337,178.4l-5,6.5l36.3,28.2C369.9,214.4,372.4,213.9,373.7,212.1z"/>
		<path class="st7" d="M352.3,239.8c1.4-1.8,1.2-4.3-0.4-5.5l0.1-0.1L315.5,206l-5,6.5l36.3,28.2C348.5,242,350.9,241.7,352.3,239.8
			z"/>
		<path class="st7" d="M330.8,267.6c1.4-1.8,1.2-4.3-0.3-5.6l-36.3-28.2l-5,6.5l36.3,28.2C326.9,269.7,329.4,269.2,330.8,267.6z"/>
		<path class="st7" d="M309.4,295.1c1.4-1.7,1.2-4.2-0.3-5.6l-36.4-28.2l-5,6.5l36.3,28.2C305.5,297.3,308,296.9,309.4,295.1z"/>
	</g>
</g>
<g>
	<path id="SVGCleanerId_0_2_" class="st10" d="M285,118.2h-42l45.7,50.1v-45.9C288.7,120.1,287.1,118.2,285,118.2z"/>
</g>
<g>
	<path class="st11" d="M324.5,276.9l51.1-172c0.7-2.2-0.4-4.5-2.4-5.1L303,78.9l-53.5,179.9l70.2,20.9
		C321.7,280.3,323.8,279.1,324.5,276.9z"/>
	<path class="st10" d="M237.9,59.7c-1.9-0.6-4.1,0.7-4.7,2.8l-38.1,128l29.5,61l24.9,7.4L303,79L237.9,59.7z"/>
	<g>
		<path class="st8" d="M249.6,97.3c-1.9-0.6-4.1,0.7-4.7,2.8c-0.7,2.2,0.4,4.5,2.4,5l44.1,13.2l2.3-7.9L249.6,97.3z"/>
		<path class="st8" d="M239.6,130.9c-1.9-0.6-4.1,0.7-4.7,2.8c-0.7,2.2,0.4,4.5,2.4,5l44.1,13.2l2.4-7.9L239.6,130.9L239.6,130.9z"
			/>
		<path class="st8" d="M224.9,167.3c-0.7,2.2,0.4,4.5,2.4,5l44.1,13.2l2.4-7.9l-44.2-13.2C227.6,163.9,225.6,165.2,224.9,167.3z"/>
		<path class="st8" d="M215,200.8c-0.7,2.2,0.4,4.5,2.4,5l44.1,13.2l2.4-7.9l-44.2-13.2C217.7,197.4,215.5,198.7,215,200.8z"/>
	</g>
	<g>
		<path class="st8" d="M340.2,128.6c0.7-2.2-0.4-4.5-2.4-5l-44.1-13.2l-2.3,7.9l44.1,13.2C337.5,132,339.5,130.8,340.2,128.6z"/>
		<path class="st8" d="M330.3,162.1c0.7-2.2-0.4-4.5-2.4-5l0,0l-44.1-13.2l-2.4,7.9l44.1,13.2C327.4,165.7,329.6,164.4,330.3,162.1z
			"/>
		<path class="st8" d="M320.2,195.7c0.7-2.2-0.4-4.5-2.4-5.1l-44.1-13.2l-2.4,7.9l44.1,13.2C317.5,199.1,319.6,198,320.2,195.7z"/>
		<path class="st8" d="M310.2,229.3c0.7-2.2-0.4-4.4-2.4-5.1L263.7,211l-2.4,7.9l44.1,13.2C307.5,232.7,309.6,231.5,310.2,229.3z"/>
	</g>
</g>
<g>
	<path id="SVGCleanerId_0_5_" class="st10" d="M246.4,148.5h-42l45.7,50.1v-45.9C250.2,150.4,248.6,148.6,246.4,148.5z"/>
</g>
<g>
	<path class="st12" d="M325,251.9L261.6,84.1c-0.8-2.2-3-3.3-5-2.6l-68.4,26L254.5,283l68.5-25.9C325,256.4,325.9,254.1,325,251.9z"
		/>
	<path class="st11" d="M124.6,131.5c-1.8,0.7-2.8,3-2.1,5.1l47.2,124.9l60.4,30.7l24.3-9.3l-66.3-175.5L124.6,131.5z"/>
	<g>
		<path class="st8" d="M156.8,154.4c-1.8,0.7-2.8,3-2.1,5.1c0.8,2.2,3,3.3,5,2.6l43-16.2l-2.9-7.7L156.8,154.4z"/>
		<path class="st8" d="M169.1,187.2c-1.8,0.7-2.8,3-2.1,5.1c0.8,2.1,3,3.3,5,2.6l43-16.2l-2.9-7.8L169.1,187.2L169.1,187.2z"/>
		<path class="st8" d="M179.4,225.2c0.8,2.2,3,3.3,5,2.6l43-16.2l-2.9-7.8l-43,16.2C179.5,220.6,178.6,223,179.4,225.2z"/>
		<path class="st8" d="M191.8,257.8c0.8,2.2,3,3.3,5,2.6l43-16.2l-2.9-7.8l-43,16.2C192,253.3,191,255.7,191.8,257.8z"/>
	</g>
	<g>
		<path class="st9" d="M247.6,124.1c-0.8-2.2-3-3.3-5-2.6l-43,16.2l2.9,7.7l43-16.2C247.5,128.5,248.4,126.2,247.6,124.1z"/>
		<path class="st9" d="M259.9,156.7c-0.8-2.2-3-3.3-5-2.6v-0.1l-43,16.3l2.9,7.8l43-16.2C259.8,161.2,260.7,159,259.9,156.7z"/>
		<path class="st9" d="M272.3,189.6c-0.8-2.2-3-3.3-5-2.6l-43,16.2l2.9,7.8l43-16.2C272.2,194,273.2,191.7,272.3,189.6z"/>
		<path class="st9" d="M284.7,222.3c-0.8-2.1-3-3.2-5-2.6l-43,16.2l2.9,7.8l43-16.2C284.6,226.7,285.5,224.4,284.7,222.3z"/>
	</g>
</g>
<g>
	<path class="st13" d="M328.9,236L202.1,109.1c-1.7-1.7-4.1-1.7-5.6-0.3l-51.8,51.9l132.7,132.7l51.8-51.8
		C330.7,240.1,330.6,237.6,328.9,236z"/>
	<path class="st12" d="M96.6,208.7c-1.4,1.4-1.3,3.9,0.2,5.5l94.4,94.4l67.7,3.1l18.4-18.4L144.6,160.7L96.6,208.7z"/>
	<g>
		<path class="st8" d="M135.4,216.4c-1.4,1.4-1.3,3.9,0.2,5.5c1.6,1.6,4.1,1.7,5.5,0.3l32.5-32.5l-5.8-5.8L135.4,216.4z"/>
		<path class="st8" d="M160.2,241.3c-1.4,1.4-1.3,3.9,0.2,5.5c1.6,1.6,4.1,1.7,5.5,0.3l32.5-32.5l-5.9-5.9L160.2,241.3L160.2,241.3z
			"/>
		<path class="st8" d="M185.3,271.4c1.7,1.7,4.1,1.7,5.5,0.3l32.5-32.5l-5.9-5.9l-32.5,32.5C183.5,267.4,183.7,269.8,185.3,271.4z"
			/>
		<path class="st8" d="M210,296.2c1.7,1.7,4.1,1.7,5.5,0.3l32.5-32.5l-5.9-5.9l-32.5,32.5C208.2,292.2,208.4,294.6,210,296.2z"/>
	</g>
	<g>
		<path class="st9" d="M206.1,151.7c-1.7-1.7-4.1-1.7-5.5-0.3L168,183.9l5.8,5.8l32.5-32.5C207.8,155.8,207.7,153.3,206.1,151.7z"/>
		<path class="st9" d="M230.8,176.4c-1.7-1.7-4.1-1.7-5.5-0.3l-0.1-0.1l-32.5,32.5l5.9,5.9l32.5-32.5
			C232.5,180.5,232.4,178,230.8,176.4z"/>
		<path class="st9" d="M255.6,201.2c-1.7-1.7-4.1-1.7-5.6-0.3l-32.5,32.5l5.9,5.9l32.5-32.5C257.3,205.2,257.3,202.8,255.6,201.2z"
			/>
		<path class="st9" d="M280.3,225.9c-1.6-1.6-4.1-1.7-5.6-0.3l-32.5,32.5l5.9,5.9l32.5-32.5C282,229.9,281.8,227.4,280.3,225.9z"/>
	</g>
</g>
<g>
	<g>
		<path id="SVGCleanerId_0_1_" class="st10" d="M179.1,310.2H141l41.4,45.4v-41.7C182.5,312,181,310.2,179.1,310.2z"/>
	</g>
	<path class="st9" d="M387,246.6H254.4V423h67.6c20.1,0,20.1-23.7,20.1-41.7l64.9-114.8C407.1,255.6,398,246.6,387,246.6z"/>
	<path class="st8" d="M125.2,246.6c-11,0-20.1,9.1-20.1,20.1l43.3,114.8c0,15.3,3.6,41.7,20.1,41.7h86V246.6H125.2L125.2,246.6z"/>
	<path class="st6" d="M199.4,393c-16.6,0-30,13.4-30,30c0,16.6,13.4,30,30,30s30-13.4,30-30C229.4,406.4,215.9,393,199.4,393z"/>
	<circle class="st3" cx="199.4" cy="423" r="17.1"/>
	<path class="st6" d="M294.5,453c-16.6,0-30-13.4-30-30c0-16.6,13.5-30,30-30c16.6,0,30,13.4,30,30C324.5,439.6,311.1,453,294.5,453
		z"/>
	<circle class="st3" cx="294.5" cy="423" r="17.1"/>
	<polygon class="st3" points="395.5,287 250.2,287 250.2,314.8 380,314.8 	"/>
	<polygon class="st2" points="112.7,287 123.2,314.8 254.4,314.8 254.4,287 	"/>
</g>
</svg>
