<?xml version="1.0" encoding="utf-8"?>
<!-- Generator: Adobe Illustrator 25.4.1, SVG Export Plug-In . SVG Version: 6.00 Build 0)  -->
<svg version="1.1" id="Layer_1" xmlns="http://www.w3.org/2000/svg" xmlns:xlink="http://www.w3.org/1999/xlink" x="0px" y="0px"
	 viewBox="0 0 512 512" style="enable-background:new 0 0 512 512;" xml:space="preserve">
<style type="text/css">
	.st0{fill:#9EA8AA;}
	.st1{fill:#E7E9E9;}
	.st2{fill:#FD6A33;}
	.st3{fill:#FF8C29;}
	.st4{fill:none;}
	.st5{display:none;fill:#9BAAAB;}
	.st6{fill:#CDD4D5;}
	.st7{fill:#9BAAAB;}
	.st8{fill:#FFFFFF;}
	.st9{fill:#FFD1A9;}
	.st10{fill:#0295AA;}
	.st11{fill:#365558;}
	.st12{display:none;fill:#F0353D;}
	.st13{fill:#F0353D;}
	.st14{fill:#4ACFD9;}
	.st15{fill:#E6EAEA;}
	.st16{fill:#BCD643;}
	.st17{fill:#687F82;}
</style>
<g>
	<path class="st0" d="M311.9,159.2v1H195.4v-1h-20v1.3H332v-1.3H311.9z"/>
	<path class="st1" d="M331.9,136.4v22.8h-20v-14.5c0-5.1-4.1-9.2-9.2-9.2h-47.6v-18.3h57.6C323.3,117.2,331.9,125.8,331.9,136.4z"/>
	<path class="st0" d="M255.2,117.2v18.3h-50.6c-5.1,0-9.2,4.1-9.2,9.2v14.5h-20v-22.8c0-10.6,8.6-19.2,19.2-19.2H255.2z"/>
	<path class="st0" d="M255.1,160.6v350.1H38.8c-14.8,0-26.8-12-26.8-26.8V179.7c0-10.5,8.5-19.1,19.1-19.1L255.1,160.6L255.1,160.6z
		"/>
	<path class="st1" d="M500,179.7V484c0,14.8-12,26.8-26.8,26.8H255.2V160.6H481C491.5,160.6,500,169.1,500,179.7z"/>
	<path class="st2" d="M255.2,389.6l-123.8-0.9c-22.7,0-42.9-14.4-50.2-35.9l-52.7-154c-1.9-5.5-2.9-11.4-2.9-17.2v-14.3
		c0-3.8,3-6.8,6.8-6.8h143V179c0,10.6,8.6,19.2,19.2,19.2h60.6v160.2V389.6z"/>
	<path class="st2" d="M255.2,160.5v37.7h-60.6c-10.6,0-19.2-8.6-19.2-19.2v-18.5H255.2z"/>
	<path class="st3" d="M481.8,167.3v6.7c0,6.4-1.2,12.8-3.5,18.9l-61.3,161.5c-7.8,20.6-27.6,34.2-49.7,34.2l-112.1,1l-0.1-31.2
		V198.2h57.6c10.6,0,19.2-8.6,19.2-19.2v-18.5h143C478.8,160.5,481.8,163.6,481.8,167.3z"/>
	<path class="st3" d="M331.9,160.5V179c0,10.6-8.6,19.2-19.2,19.2h-57.6v-37.7L331.9,160.5L331.9,160.5z"/>
	<line class="st4" x1="254.2" y1="160.2" x2="254.2" y2="101.7"/>
</g>
<g id="Layer_2_2_">
	<polygon class="st5" points="205.2,79.9 275.2,184.5 153.4,154.9 83.3,51 	"/>
	<polygon class="st6" points="208.3,77.3 102.9,51.8 31.5,154.3 136.8,180.1 	"/>
	<polygon class="st3" points="102.8,51.9 163.4,141.9 91.9,244.5 31.4,154.6 	"/>
	<polygon class="st7" points="208.3,77.3 268.8,167.3 197.5,269.8 136.8,180.1 	"/>
	<polygon class="st2" points="268.7,167.4 163.4,141.9 91.9,244.5 197.2,270.1 	"/>
	<polyline class="st6" points="208,77.7 263,67.7 323.6,158.1 268.7,167.4 	"/>
	<polyline class="st8" points="102.8,51.9 97.4,0.9 203.3,26.7 208.3,77.3 	"/>
	<polyline class="st9" points="102.6,52.3 94.8,5.2 155.4,95.7 163.2,142.1 	"/>
	<polyline class="st3" points="163.2,142.1 214.2,137 320.1,162.8 268.7,167.4 	"/>
	<path class="st8" d="M101,183.9c-3.4-5-6.7-9.8-10.1-14.9l-4-5.8c-1.4-2-2.9-4.1-4.1-6.1c-3.1-4.7-6.3-9.6-9.7-14.1
		c-3-4-2.6-11.7-0.2-14.8c5.2-7.2,10.4-14.6,15.4-22c2.2-3.2,4.5-6.3,6.7-9.6c2.5-3.6,5.7-4.5,8.8-2.2c1,0.7,2,1.7,2.7,3l1,1.5
		c2.2,3.2,4.5,6.6,6.7,10.1c0.5,0.7,1,1.2,1.5,1.6c0.7,0.5,1.4,0.5,1.9,0.4c1-0.2,1.7-1.2,2.2-1.9c1.1-1.7,2.4-3.5,3.6-5.2
		c1-1.4,1.7-0.9,2.1-0.6c0.4,0.2,0.7,0.6,1.2,1.2c1.5,2.2,1.6,4.7,0.4,6.6l-0.4,0.5c-1,1.4-1.9,2.9-3,4.1c-2,2.4-2,4.5-0.1,7.1
		c2.5,3.4,4.8,7.1,7.2,10.7l0.6,0.9c3.5,5.3,3.5,13.3,0.2,18c-7.6,10.8-15.1,21.7-22.6,32.4c-1.9,2.5-4.1,3-6.3,1.5
		C102,185.6,101.3,184.9,101,183.9z M99.5,158.5c-1.9,2.7-0.2,4.7,0.4,5.6c0.1,0.2,0.4,0.5,0.6,0.7c0,0.1,0.1,0.2,0.2,0.4
		c0.1,0.2,0.2,0.4,0.4,0.6c0.4,0.4,0.5,0.7,0.7,1.1c0.5,0.6,0.9,1.1,1.2,1.4c0.5,0.4,2,1.2,3.6-1c1.2-1.7,1.2-3.6-0.2-5.3
		c-0.6-0.7-1.2-1.7-2-2.9c-0.4-0.6-0.9-1.1-1.4-1.5C102.6,157.2,101,156.4,99.5,158.5z M92.9,144.7c-0.6,0.1-1.4,0.6-2,1.5
		c-1.6,2.5-0.2,4.5,0.4,5.3c0.2,0.2,1,1.5,1,1.5c0.1,0.1,0.5,0.7,1.1,1.1l0.1,0.1c1.1,0.6,2.6,0.6,3.6-0.1c1.2-1,2-3,0.6-5
		c0,0-1.1-1.4-1.9-2.5c-0.5-0.7-0.9-1.2-1.4-1.5C94,144.7,93.3,144.8,92.9,144.7z M84.8,132.9c-0.6,0.1-1.4,0.6-2,1.5
		c-1.6,2.5-0.5,4.3,0.4,5.3l1.5,1.6c0.5,0.6,0.9,1.4,1.5,1.9l0,0c0.6,0.4,1.2,0.5,1.7,0.4c0.7-0.2,1.4-0.6,2-1.5
		c1.6-2.5,0.4-4.2-0.4-5.3c0,0-2.4-2.9-3-3.4C85.8,132.8,85.2,132.8,84.8,132.9z M110.3,140.7c-2,2.9-1.9,7.3,0.1,10.5
		c0.6,0.7,1.1,1.4,1.9,1.9l0,0c2.2,1.6,5.1,1,6.7-1.4c2-2.9,1.9-7.3-0.1-10.5c-0.6-0.7-1.1-1.4-1.9-1.9
		C114.7,137.8,112,138.3,110.3,140.7z M97,114.2c-1.4,0.2-2.4,1.1-3.2,2.4c-2,3-1.9,7.3,0.4,10.4c0.5,0.6,1,1.4,1.6,1.7l0,0
		c1.1,0.7,2.4,1.1,3.6,0.9c1.4-0.2,2.4-1.1,3.2-2.4c2-3,1.9-7.3-0.4-10.4c-0.5-0.6-1-1.4-1.6-1.7C99.5,114.2,98.2,113.9,97,114.2z"
		/>
	<path class="st8" d="M118.6,186.5c-0.2-0.2-0.5-0.6-0.6-0.9c-0.2-0.5-0.6-1-1-1.5c-0.6-0.7-0.6-1.2,0-2.1c1.6-2.2,3.2-4.6,4.8-6.9
		c0.6-0.9,2.6-3.7,2.6-3.7l0,0l1.1-1.5c1.2-1.7,2.5-3.6,3.7-5.5c0.2-0.2,0.4-0.6,0.6-0.9c0.2-0.4,0.6-0.9,0.9-1.1
		c0.2,0.4,0.6,0.9,0.9,1.2c0.2,0.2,0.5,0.7,0.9,1.1c1.7,2.6,1.7,5.6,0.2,7.9c-3.6,5.2-6.8,9.9-9.9,14.4c-1.4,1.7-2.4,1-2.7,0.7
		C119.3,187.6,118.8,187.3,118.6,186.5z"/>
	<path class="st8" d="M70.6,117.7c-1.7-2.6-1.9-5.7-0.4-7.8c3.1-4.7,6.5-9.6,9.9-14.4c1.4-2,2.5-1.2,2.9-0.9
		c0.4,0.2,0.7,0.6,1.2,1.2c0.2,0.2,0.5,0.6,0.6,0.9c0.2,0.5,0.6,1,1,1.5c0.7,0.9,0.6,1.4,0,2.4c-1.6,2.2-3.2,4.6-4.7,6.8
		c-0.6,0.9-1.2,1.7-1.9,2.6c-1.9,2.6-3.7,5.3-5.6,8.1c-0.5,0.7-1,1.5-1.5,1.9C71.8,119.4,71.2,118.5,70.6,117.7z"/>
	<polygon class="st10" points="49.3,128.8 110,218.5 99.1,234.2 38.4,144.3 	"/>
	<polygon class="st11" points="215.2,244.3 110,218.5 99.1,234.2 204.4,259.8 	"/>
	<path class="st12" d="M-21.9,137.3c0.6-2.9,3.5-4.7,6.5-4.1L6,138c2.9,0.6,4.7,3.5,4.1,6.5c-0.6,2.9-3.5,4.7-6.5,4.1l-21.6-4.8
		C-20.8,143-22.5,140.1-21.9,137.3z"/>
	<path class="st12" d="M-14.3,175.7c-1.6-2.5-0.9-5.8,1.6-7.4l16.8-10.7c2.5-1.6,5.8-0.9,7.4,1.6c1.6,2.5,0.9,5.8-1.6,7.4
		l-16.8,10.7c-1.2,0.7-2.7,1-4.1,0.7C-12.3,177.7-13.6,177-14.3,175.7z"/>
	<path class="st12" d="M10.1,129.8l-10.7-16.8c-1.6-2.5-0.9-5.8,1.6-7.4s5.8-0.9,7.4,1.6L19.2,124c1.6,2.5,0.9,5.8-1.6,7.4
		c-1.2,0.7-2.7,1-4.1,0.7C12.1,131.8,11,131.1,10.1,129.8z"/>
</g>
<g id="Layer_2_1_">
	<polygon class="st5" points="274.5,98.1 398.9,117.4 294.6,186.9 170.7,168.3 	"/>
	<polygon class="st6" points="274.7,94.1 184.6,154.3 211.8,276.2 302,216.2 	"/>
	<polygon class="st3" points="184.6,154.5 291.8,170.6 319.1,292.7 211.9,276.6 	"/>
	<polygon class="st7" points="274.7,94.1 381.9,110.2 409.2,232.2 302,216.2 	"/>
	<polygon class="st2" points="382,110.5 291.8,170.6 319.1,292.7 409.2,232.5 	"/>
	<polyline class="st6" points="274.8,94.5 304.6,47.2 412,63.8 382,110.5 	"/>
	<polyline class="st8" points="184.6,154.5 143.3,124 234,63.4 274.7,94.1 	"/>
	<polyline class="st9" points="184.7,154.9 144.8,128.8 252.5,145.4 291.9,171 	"/>
	<polyline class="st3" points="291.9,171 322.6,130.1 413.3,69.5 382,110.5 	"/>
	<path class="st8" d="M280.5,245.2c-6-0.9-11.8-1.7-17.7-2.6l-7.1-1c-2.4-0.4-4.8-0.6-7.2-1.1c-5.6-0.9-11.3-1.7-17-2.4
		c-5-0.5-10.3-6-11-9.8c-1.7-8.7-3.7-17.6-5.7-26.2c-0.9-3.7-1.7-7.6-2.5-11.3c-1-4.2,0.6-7.2,4.3-8.1c1.2-0.2,2.6-0.2,4.1,0
		l1.9,0.2c3.8,0.6,7.9,1.1,11.9,1.7c0.9,0.1,1.6,0.1,2.1,0c0.9-0.2,1.2-0.6,1.5-1.1c0.6-0.9,0.2-2.1,0.1-2.9c-0.5-2-1-4.1-1.4-6.2
		c-0.2-1.7,0.5-1.9,0.9-2c0.5-0.1,1-0.1,1.7,0c2.6,0.4,4.5,2,5.1,4.2l0.1,0.5c0.4,1.6,0.9,3.4,1,5c0.4,3.1,2,4.5,5.1,4.8
		c4.2,0.4,8.4,1.2,12.8,1.9l1,0.1c6.2,1,12.2,6.3,13.4,11.9c2.9,12.9,5.7,25.8,8.6,38.6c0.6,3-0.5,5.1-3.2,5.7
		C282.5,245.7,281.5,245.6,280.5,245.2z M260.8,229.1c0.7,3.2,3.2,3.5,4.3,3.5c0.2,0,0.6,0,1,0.1c0.1,0.1,0.2,0,0.5,0.1
		c0.2,0,0.5,0.1,0.7,0.1c0.5,0,0.9,0.1,1.2,0.2c0.7,0.1,1.4,0.1,1.9,0.1c0.5-0.1,2.2-0.7,1.7-3.2c-0.5-2.1-1.7-3.2-4.1-3.5
		c-1-0.1-2.1-0.2-3.4-0.5c-0.7-0.1-1.4-0.1-2,0C262,226,260.3,226.5,260.8,229.1z M246.3,224.6c-0.4,0.6-0.5,1.5-0.2,2.5
		c0.7,3,3.1,3.2,4.2,3.4c0.4,0,1.9,0.2,1.9,0.2c0.2,0,0.9,0.1,1.6-0.1h0.1c1.2-0.4,2.2-1.5,2.4-2.7c0.1-1.6-0.9-3.5-3.2-3.8
		c0,0-1.7-0.1-3.1-0.2c-0.9-0.1-1.5-0.1-2,0C247,223.7,246.5,224.4,246.3,224.6z M232,222.6c-0.4,0.6-0.5,1.5-0.2,2.5
		c0.7,2.9,2.9,3.2,4.2,3.4h2.2c0.7,0.1,1.6,0.4,2.4,0.1l0,0c0.7-0.1,1.2-0.6,1.4-1c0.4-0.6,0.5-1.5,0.2-2.5
		c-0.7-2.9-2.9-3.1-4.2-3.4c0,0-3.7-0.2-4.5-0.1C232.7,221.8,232.2,222.1,232,222.6z M255.1,209.1c0.7,3.4,4.1,6.3,7.8,6.9
		c1,0.1,1.7,0.1,2.6-0.1l0,0c2.7-0.6,4.2-3.1,3.5-6c-0.7-3.4-4.1-6.3-7.8-6.9c-1-0.1-1.7-0.1-2.6,0.1
		C255.8,203.8,254.4,206.1,255.1,209.1z M226.5,200.9c-0.7,1.1-0.7,2.5-0.5,4c0.9,3.5,4.1,6.3,7.9,6.8c0.7,0.1,1.6,0.1,2.4,0l0,0
		c1.2-0.2,2.4-1,3-2c0.7-1.1,0.7-2.5,0.5-4c-0.9-3.5-4.1-6.3-7.9-6.8c-0.7-0.1-1.6-0.1-2.4,0C228.3,199,227.1,199.8,226.5,200.9z"/>
	<path class="st8" d="M294.4,234c-0.4,0-0.7-0.1-1.1-0.1c-0.5-0.1-1.2-0.2-1.9-0.2c-1-0.1-1.4-0.4-1.6-1.4c-0.6-2.7-1.2-5.5-1.9-8.2
		c-0.2-1.1-1-4.5-1-4.5l0,0l-0.4-1.9c-0.5-2.1-1-4.2-1.5-6.5c-0.1-0.4-0.1-0.7-0.2-1.1c-0.1-0.5-0.2-1-0.2-1.4
		c0.4,0.1,1,0.1,1.5,0.2c0.4,0,0.9,0.1,1.4,0.1c3,0.5,5.3,2.5,6,5.1c1.5,6.2,2.7,11.8,3.8,17c0.4,2.1-0.9,2.4-1.2,2.5
		C295.8,234.2,295.1,234.3,294.4,234z"/>
	<path class="st8" d="M211.3,222.7c-3.1-0.5-5.5-2.5-6.1-5.1c-1.4-5.5-2.6-11.3-3.8-17c-0.5-2.4,0.7-2.6,1.2-2.7s1-0.1,1.7-0.1
		c0.4,0,0.7,0.1,1.1,0.1c0.5,0.1,1.2,0.2,1.9,0.2c1.1,0,1.5,0.5,1.7,1.6c0.6,2.7,1.2,5.5,1.9,8.1c0.2,1.1,0.5,2.1,0.7,3.1
		c0.7,3.1,1.4,6.3,2.1,9.6c0.2,0.9,0.4,1.7,0.4,2.4C213.4,223,212.3,222.9,211.3,222.7z"/>
	<polygon class="st10" points="205.1,245.9 312.1,262 316.4,280.6 209.2,264.4 	"/>
	<polygon class="st11" points="402.3,201.9 312.1,262 316.4,280.6 406.4,220.4 	"/>
	<path class="st12" d="M163.1,304c-1.7-2.5-1.1-5.7,1.4-7.4l18.1-12.5c2.5-1.7,5.7-1.1,7.4,1.4c1.7,2.5,1.1,5.7-1.4,7.4l-18.2,12.7
		C168.1,307.1,164.7,306.5,163.1,304z"/>
	<path class="st12" d="M196.5,324.5c-3-0.5-4.8-3.2-4.3-6.2l3.5-19.6c0.5-3,3.2-4.8,6.2-4.3c3,0.5,4.8,3.2,4.3,6.2l-3.5,19.6
		c-0.2,1.4-1,2.6-2.2,3.5C199.4,324.4,198,324.9,196.5,324.5z"/>
	<path class="st12" d="M179.3,275.4l-19.6-3.5c-3-0.5-4.8-3.2-4.3-6.2s3.2-4.8,6.2-4.3l19.6,3.5c3,0.5,4.8,3.2,4.3,6.2
		c-0.2,1.4-1,2.6-2.2,3.5C182,275.4,180.7,275.6,179.3,275.4z"/>
</g>
<rect x="-717" class="st13" width="128" height="128"/>
<rect x="-589" class="st2" width="128" height="128"/>
<rect x="-461" class="st3" width="128" height="128"/>
<rect x="-333" class="st9" width="128" height="128"/>
<rect x="-717" y="128" class="st11" width="128" height="128"/>
<rect x="-589" y="128" class="st10" width="128" height="128"/>
<rect x="-461" y="128" class="st14" width="128" height="128"/>
<rect x="-717" y="256" class="st7" width="128" height="128"/>
<rect x="-589" y="256" class="st6" width="128" height="128"/>
<rect x="-461" y="256" class="st15" width="128" height="128"/>
<rect x="-333" y="256" class="st8" width="128" height="128"/>
<rect x="-717" y="384" class="st16" width="128" height="128"/>
<path class="st3" d="M405.5,484.8H98.8c-3.5,0-6.4-3.7-6.4-8.2v-15c0-4.5,2.9-8.2,6.4-8.2h306.8c3.5,0,6.4,3.7,6.4,8.2v15
	C412,481.1,409.1,484.8,405.5,484.8z"/>
<path class="st17" d="M215.4,511h-27.2c-2.9,0-5.1-2.4-5.1-5.1v-16.1c0-2.9,2.4-5.1,5.1-5.1h27.2c2.9,0,5.1,2.4,5.1,5.1v16.1
	C220.7,508.6,218.3,511,215.4,511z"/>
<path class="st17" d="M326.9,511h-27.2c-2.9,0-5.1-2.4-5.1-5.1v-16.1c0-2.9,2.4-5.1,5.1-5.1h27.2c2.9,0,5.1,2.4,5.1,5.1v16.1
	C332,508.6,329.6,511,326.9,511z"/>
<path class="st17" d="M405.2,511H378c-2.9,0-5.1-2.4-5.1-5.1v-16.1c0-2.9,2.4-5.1,5.1-5.1h27.2c2.9,0,5.1,2.4,5.1,5.1v16.1
	C410.3,508.6,408,511,405.2,511z"/>
<path class="st17" d="M125.3,511.1H98.1c-2.9,0-5.1-2.4-5.1-5.1v-16.1c0-2.9,2.4-5.1,5.1-5.1h27.2c2.9,0,5.1,2.4,5.1,5.1V506
	C130.5,508.7,128.1,511.1,125.3,511.1z"/>
<g>
	<g>
		<path id="SVGCleanerId_0_1_" class="st7" d="M179.1,310.2H141l41.4,45.4v-41.7C182.5,312,181,310.2,179.1,310.2z"/>
	</g>
	<path class="st14" d="M387,246.6H254.4V423h67.6c20.1,0,20.1-23.7,20.1-41.7l64.9-114.8C407.1,255.6,398,246.6,387,246.6z"/>
	<path class="st10" d="M125.2,246.6c-11,0-20.1,9.1-20.1,20.1l43.3,114.8c0,15.3,3.6,41.7,20.1,41.7h86V246.6H125.2L125.2,246.6z"/>
	<path class="st9" d="M199.4,393c-16.6,0-30,13.4-30,30c0,16.6,13.4,30,30,30s30-13.4,30-30C229.4,406.4,215.9,393,199.4,393z"/>
	<circle class="st3" cx="199.4" cy="423" r="17.1"/>
	<path class="st9" d="M294.5,453c-16.6,0-30-13.4-30-30c0-16.6,13.5-30,30-30c16.6,0,30,13.4,30,30C324.5,439.6,311.1,453,294.5,453
		z"/>
	<circle class="st3" cx="294.5" cy="423" r="17.1"/>
	<polygon class="st3" points="395.5,287 250.2,287 250.2,314.8 380,314.8 	"/>
	<polygon class="st2" points="112.7,287 123.2,314.8 254.4,314.8 254.4,287 	"/>
</g>
</svg>
