<?xml version="1.0" encoding="utf-8"?>
<!-- Generator: Adobe Illustrator 25.4.1, SVG Export Plug-In . SVG Version: 6.00 Build 0)  -->
<svg version="1.1" id="Layer_1" xmlns="http://www.w3.org/2000/svg" xmlns:xlink="http://www.w3.org/1999/xlink" x="0px" y="0px"
	 viewBox="0 0 512 512" style="enable-background:new 0 0 512 512;" xml:space="preserve">
<style type="text/css">
	.st0{fill:#F0353D;}
	.st1{fill:#0295AA;}
	.st2{fill:#365558;}
	.st3{fill:#FD6A33;}
	.st4{fill:#FF8C29;}
	.st5{fill:#FFD1A9;}
	.st6{fill:#4ACFD9;}
	.st7{fill:#9BAAAB;}
	.st8{fill:#CDD4D5;}
	.st9{fill:#E6EAEA;}
	.st10{fill:#FFFFFF;}
	.st11{fill:#BCD643;}
</style>
<rect x="-641" y="-40.8" class="st0" width="128" height="128"/>
<path class="st1" d="M473.5,470.1H256v41.6h217.5c6.6,0,12-8.8,12-19.6v-2.5C485.5,478.9,480.1,470.1,473.5,470.1z"/>
<path class="st2" d="M38.5,470.1c-6.6,0-12,8.8-12,19.6v2.5c0,10.8,5.4,19.6,12,19.6H256v-41.6L38.5,470.1L38.5,470.1z"/>
<circle class="st2" cx="346" cy="75.2" r="14.8"/>
<circle class="st2" cx="386" cy="75.2" r="14.8"/>
<path class="st2" d="M260.3,78.4l-0.9,0.9c-2.1,2.1-5.6,2.1-7.7,0l-68.9-68.9c-2.1-2.1-2.1-5.6,0-7.7l0.9-0.9c2.1-2.1,5.6-2.1,7.7,0
	l68.9,68.9C262.4,72.8,262.4,76.3,260.3,78.4z"/>
<path class="st1" d="M251.6,78.4l0.9,0.9c2.1,2.1,5.6,2.1,7.7,0l68.9-68.9c2.1-2.1,2.1-5.6,0-7.7l-0.9-0.9c-2.1-2.1-5.6-2.1-7.7,0
	l-68.9,68.9C249.5,72.8,249.5,76.3,251.6,78.4z"/>
<circle class="st2" cx="256" cy="75.7" r="14.8"/>
<rect x="-513" y="-40.8" class="st3" width="128" height="128"/>
<rect x="-385" y="-40.8" class="st4" width="128" height="128"/>
<rect x="-257" y="-40.8" class="st5" width="128" height="128"/>
<rect x="-641" y="87.2" class="st2" width="128" height="128"/>
<rect x="-513" y="87.2" class="st1" width="128" height="128"/>
<rect x="-385" y="87.2" class="st6" width="128" height="128"/>
<rect x="-641" y="215.2" class="st7" width="128" height="128"/>
<rect x="-513" y="215.2" class="st8" width="128" height="128"/>
<rect x="-385" y="215.2" class="st9" width="128" height="128"/>
<rect x="-257" y="215.2" class="st10" width="128" height="128"/>
<rect x="-641" y="343.2" class="st11" width="128" height="128"/>
<path class="st4" d="M422.5,75.2H256v411h166.5c49.2,0,89.5-40.3,89.5-89.5v-232C512,115.5,471.7,75.2,422.5,75.2z"/>
<path class="st3" d="M89.5,75.2C40.3,75.2,0,115.5,0,164.7v232c0,49.2,40.3,89.5,89.5,89.5H256v-411L89.5,75.2L89.5,75.2z"/>
<path class="st2" d="M359.2,441l-12.1-12.1c-6.8,10.3-5.7,24.3,3.3,33.4c10.3,10.4,27.1,10.4,37.5,0l0,0L366.7,441
	C364.6,443,361.4,443,359.2,441z"/>
<path class="st1" d="M388.1,424.7c-9-9.1-23-10.2-33.4-3.4l12.1,12.1c2,2.1,2,5.5,0,7.5l0,0l21.3,21.3
	C398.4,451.9,398.4,435.2,388.1,424.7z"/>
<path class="st6" d="M161,443.2c0.1-12.5-10-22.8-22.4-22.9h-0.1v45.1C150.8,465.4,161,455.4,161,443.2z"/>
<path class="st1" d="M116.7,442.8c-0.1,12.5,10,22.6,22.5,22.7c0.1,0,0.1,0,0.2,0v-45.2C126.9,420.3,116.8,430.4,116.7,442.8z"/>
<path class="st6" d="M220,459.8c8.9-8.8,9-23.2,0.3-32l0,0l-31.9,31.9C197.1,468.3,211.3,468.4,220,459.8z"/>
<path class="st1" d="M189,428.2c-8.9,8.8-8.9,23-0.1,31.9l0.1,0.1l31.9-31.9C212.1,419.5,197.8,419.5,189,428.2z"/>
<path class="st5" d="M481.6,161.1c-3.3,0-6.4-2.1-7.6-5.3c-5.9-16.7-18.4-30.9-34.4-38.8c-4-2-5.6-6.8-3.6-10.7
	c2-4,6.8-5.6,10.7-3.6c19.6,9.8,35.1,27.2,42.4,47.8c1.5,4.2-0.7,8.8-4.9,10.2C483.4,160.9,482.5,161.1,481.6,161.1z"/>
<path class="st4" d="M34.5,394c3.3,0,6.4,2.1,7.6,5.3c5.9,16.7,18.4,30.9,34.4,38.8c4,2,5.6,6.8,3.6,10.7c-2,4-6.8,5.6-10.7,3.6
	c-19.6-9.8-35.1-27.2-42.4-47.8c-1.5-4.2,0.7-8.8,4.9-10.2C32.7,394.2,33.6,394,34.5,394z"/>
<path class="st2" d="M484,226.5c-0.5-6.6-1-14.1-1.5-22.9c-2.8-50.6-59.4-90.5-97.4-98.7C362.6,100,302,98.3,257,98.3h-10v0.1
	c-54.2,0.3-97.8,2.7-118,6.6c-55.6,10.6-92.1,47.3-97.6,98.2c-0.5,4.1-0.9,8-1.3,11.6c-4.5,40.9-5.7,51.9,1.4,94.1
	c8.7,51.5,51.1,93.6,98.5,97.8c22.3,2,74.5,3.5,126.9,3.7l8.9,0.1h1.1c2.6,0,5.1,0,7.7,0c31,0,86.6-0.5,109.8-4
	c44.1-6.4,91.9-42.3,98-98.3C486.9,267.2,485.9,252.7,484,226.5z M472.4,303.5c-5.5,50.5-48.5,83.5-89.5,89.5
	c-19.4,2.8-66.7,3.9-116,3.7c-3.3,0-6.7,0-10,0c-3.3,0-6.6,0-9.9,0c-48.4-0.3-95.2-1.8-116.1-3.7c-45-4-82-45-89.5-89.5
	s-5.5-52.5,0-103S83.9,120,130.9,111c21.4-4.1,68.2-6.1,116.1-6.4c3.3,0,6.6,0,9.9,0c3.3,0,6.7,0,10,0c50.3,0.3,98.3,2.5,116,6.4
	c36.9,8,87.1,46,89.5,89.5C474.9,244,477.9,253,472.4,303.5z"/>
<g>
	<path class="st7" d="M247,104.4c-1.7,0-3.4,0-5.1,0c-5.9,0-11.8,0.1-17.6,0.2c-6.5,0.1-12.9,0.3-19.1,0.4v68.1h50.1v-68.8
		C252.5,104.4,249.7,104.4,247,104.4z M205.2,175.7v147.7h50.1V175.7H205.2z M205.2,326.1v69.8c13.4,0.3,27.5,0.5,41.8,0.6
		c1.1,0,2.1,0,3.1,0c1.7,0,3.5,0,5.2,0v-70.4H205.2z"/>
	<path class="st8" d="M283.4,104.5c-5.4-0.1-10.9-0.1-16.5-0.2h-0.8c-3,0-6.1,0-9.2,0h-1.6v68.8h50.1V105
		C298.2,104.8,290.9,104.6,283.4,104.5z M255.3,175.7v147.7h50.1V175.7H255.3z M255.3,326.1v70.4c0.5,0,1.1,0,1.6,0
		c3.3,0,6.7,0,10,0h0.8c12.9,0,25.6,0,37.8-0.2v-70.3H255.3z"/>
	<path class="st8" d="M405.3,118.6c-5.4-2.6-10.9-4.6-16.1-6.2c-2.2-0.6-4.3-1.2-6.4-1.6c-9-1.9-25.6-3.5-46.4-4.6v88.5h108.8v-48
		C433.6,134.9,419.4,125.2,405.3,118.6z M336.5,197.3v147.7h108.8V197.3H336.5z M366.1,394.4c6.8-0.5,12.5-1,16.8-1.6
		c11.5-1.7,23.1-5.5,34-11.2c10.4-5.4,20.2-12.5,28.5-21.2v-12.7H336.5"/>
	<path class="st7" d="M149.8,108.2c-6.8,0.7-12.7,1.4-17.4,2.3c-0.5,0.1-1,0.2-1.5,0.3c-7.3,1.4-14.3,3.3-21.1,5.7
		c-5.6,2-10.9,4.3-16,7c-10.9,5.7-20.6,13.1-28.6,21.9v27.8h108.8v-66.8C165.2,106.9,157,107.5,149.8,108.2z M65.2,175.7v147.7
		h108.8V175.7H65.2z M65.2,326.1v29.4c13.3,16.5,31,29.1,51,34.6c4.8,1.3,9.7,2.2,14.7,2.7c0.9,0.1,1.9,0.2,2.9,0.2
		c9.7,0.8,23.7,1.5,40.3,2v-69H65.2z"/>
	<path class="st8" d="M336.5,395.7c-2.3,0.1-4.6,0.1-6.9,0.2c-5.5,0.1-11.3,0.2-17.3,0.3c-2.3,0-4.6,0.1-6.9,0.1
		c-12.1,0.1-24.9,0.2-37.8,0.2h-0.8c-3.3,0-6.7,0-10,0c-0.5,0-1.1,0-1.6,0V104.4h1.6c3.1,0,6.1,0,9.2,0h0.8c5.5,0,11,0.1,16.5,0.2
		c7.5,0.1,14.9,0.2,22.1,0.5v-6.2c2.3,0.1,4.6,0.1,6.9,0.2v6.2c6,0.2,11.7,0.4,17.3,0.7c2.4,0.1,4.7,0.2,6.9,0.3
		c20.8,1.1,37.4,2.6,46.4,4.6c2.1,0.4,4.2,1,6.4,1.6c5.2,1.5,10.7,3.6,16.1,6.2c14.1,6.6,28.3,16.4,40,28.2c2.4,2.4,4.7,5,6.9,7.6
		v198.1c-2.2,2.8-4.5,5.4-6.9,7.9c-8.4,8.7-18.1,15.8-28.5,21.2c-10.9,5.7-22.5,9.5-34,11.2c-4.3,0.6-10,1.2-16.8,1.6"/>
	<path class="st7" d="M255.3,104.4v292.1c-1.7,0-3.5,0-5.2,0c-1,0-2.1,0-3.1,0c-14.3-0.1-28.4-0.3-41.8-0.6c-2.3,0-4.6-0.1-6.9-0.2
		c-6-0.1-11.7-0.3-17.3-0.5c-2.3-0.1-4.7-0.1-6.9-0.2c-16.6-0.6-30.7-1.2-40.3-2c-1-0.1-2-0.2-2.9-0.2c-5-0.4-9.9-1.3-14.7-2.7
		c-20-5.5-37.7-18.1-51-34.6c-2.5-3-4.8-6.2-6.9-9.5V154c2.1-3,4.4-5.9,6.9-8.6c8-8.9,17.7-16.2,28.6-21.9c5.1-2.7,10.4-5,16-7
		c6.7-2.4,13.8-4.3,21.1-5.7c0.5-0.1,1-0.2,1.5-0.3c4.8-0.8,10.7-1.6,17.4-2.3c7.2-0.7,15.4-1.3,24.3-1.8c2.3-0.1,4.6-0.3,6.9-0.4
		c5.5-0.3,11.3-0.5,17.3-0.7c2.3-0.1,4.6-0.2,6.9-0.2c6.2-0.2,12.6-0.3,19.1-0.4c5.8-0.1,11.7-0.2,17.6-0.2c1.7,0,3.4,0,5.1,0
		C249.7,104.4,252.5,104.4,255.3,104.4z"/>
	<path class="st9" d="M329.6,105.9v290c-5.5,0.1-11.3,0.2-17.3,0.3v-291C318.3,105.4,324.1,105.6,329.6,105.9z"/>
	<path class="st8" d="M198.3,105.3v290.4c-6-0.1-11.7-0.3-17.3-0.5V106C186.6,105.7,192.3,105.5,198.3,105.3z"/>
	<path class="st2" d="M267.7,350.2v46.2h-0.8c-3.3,0-6.7,0-10,0c-0.5,0-1.1,0-1.6,0c-1.7,0-3.5,0-5.2,0v-25.3l-21,6.5v-14.2
		l26.2-9.4l10.5-3.8H267.7z"/>
	<path class="st4" d="M416.8,381.6c-10.9,5.7-22.5,9.5-34,11.2c-4.3,0.6-10,1.2-16.8,1.6l1.5-12.8H416.8z"/>
	<path class="st2" d="M283.4,104.5c-5.4-0.1-10.9-0.1-16.5-0.2h-0.8c0.1,1.3,0.2,2.7,0.2,4.2v7.2c-1,2.1-2.6,3.8-4.7,5.3
		c-1.8,1.3-3.9,2-6.3,2.1c-0.3,0-0.6,0-1,0c-4,0-7.1-1.5-9.3-4.6c-2.2-3.1-3.3-7.1-3.3-11.9c0-0.8,0-1.6,0.1-2.4
		c-5.9,0-11.8,0.1-17.6,0.2c-0.1,0.8-0.1,1.6-0.1,2.3c0,9.2,2.4,16.4,7.1,21.8c4.7,5.4,11,8,18.7,8c1.8,0,3.6-0.2,5.3-0.6
		c4-0.9,7.6-3,10.8-6.1c-0.8,8.6-4.4,14.7-10.8,18.1c-3.7,2-8.4,3.1-14.1,3.3l-3.9,0.1v14.7l4.3-0.1c5-0.2,9.5-0.9,13.6-2.2
		c7.1-2.2,12.9-5.9,17.5-11.3c7.3-8.4,11-20,11-34.7v-6.5C283.8,109.1,283.7,106.8,283.4,104.5z"/>
	<path class="st2" d="M149.8,108.2c-6.8,0.7-12.7,1.4-17.4,2.3v5.4c-1,2.1-2.6,3.8-4.7,5.3c-2,1.5-4.4,2.2-7.3,2.2
		c-4,0-7.1-1.5-9.3-4.6c-0.5-0.7-0.9-1.5-1.3-2.3c-5.6,2-10.9,4.3-16,7c1,1.9,2.2,3.7,3.6,5.3c4.7,5.4,11,8,18.8,8
		c6.1,0,11.5-2.2,16.1-6.7c-1.3,13.7-9.5,20.8-24.9,21.4l-3.9,0.1v14.7l4.3-0.1c13.5-0.5,23.8-5,31.2-13.5c7.3-8.4,11-20,11-34.7
		v-6.5C149.9,110.4,149.9,109.3,149.8,108.2z"/>
	<path class="st4" d="M419.2,139.7c0,7.9-2.8,14.2-8.6,18.9c-5.7,4.8-13.3,7.1-22.7,7.1c-8.8,0-16.1-2.3-21.7-7
		c-5.6-4.7-8.4-10.8-8.4-18.5h17.5c0,3.3,1.2,6,3.7,8.1c2.5,2.1,5.6,3.2,9.2,3.2c4.2,0,7.4-1.1,9.8-3.3c2.4-2.2,3.5-5.2,3.5-8.8
		c0-8.8-4.8-13.2-14.6-13.2h-9.3v-13.7h9.3c0.8,0,1.6,0,2.3-0.1c5.2,1.5,10.7,3.6,16.1,6.2c-0.3,0.2-0.7,0.3-1,0.5
		c5,1.8,8.7,4.5,11.2,8C418,130.6,419.2,134.9,419.2,139.7z"/>
	<path class="st1" d="M142.9,211.5c-5.1-6.3-12.4-9.5-22.1-9.5c-9.7,0-17,3.2-22.2,9.6c-5.1,6.5-7.7,15.8-7.7,28.2V256
		c0.2,11.8,2.8,20.9,7.9,27.3c5.1,6.3,12.4,9.5,22.1,9.5c9.8,0,17.1-3.3,22.2-9.8c5.1-6.5,7.6-15.8,7.6-28.1l0.1-16.1
		C150.6,226.9,148,217.8,142.9,211.5z M130.2,273.5c-1.9,3.4-5,5-9.3,5s-7.5-1.7-9.5-5.2c-2-3.5-2.9-8.9-2.9-16.1v-21.5
		c0.2-6.7,1.1-11.7,3.1-14.9c2-3.2,5-4.8,9.2-4.8c4.2,0,7.3,1.6,9.3,5c2,3.4,3,8.6,3,16l0.1,21C133.1,265.1,132.1,270.2,130.2,273.5
		z"/>
	<path class="st0" d="M411.7,284.2V229H394l-36.9,58.2l0.8,11.1h36.3v19.1h17.5v-19.1h10v-14.2H411.7z M394.1,284.2h-19.5L393,255
		l1.1-2V284.2z"/>
	<path class="st9" d="M472.4,303.3c-2.1,19-9.5,35.6-20.1,49.2V154.4c11.4,13.6,19.2,29.3,20.1,45.9
		C474.9,243.8,477.9,252.8,472.4,303.3z"/>
	<path class="st8" d="M58.3,154v192c-8.5-13-14.4-27.7-17-42.7c-7.5-44.5-5.5-52.5,0-103C43.3,182.2,49.3,166.8,58.3,154z"/>
	<path class="st1" d="M280.3,211.5c-0.3-0.4-0.7-0.8-1-1.2c0,0,0,0,0,0c-5-5.5-12-8.3-21-8.3c-1,0-1.9,0-2.9,0.1c0,0,0,0-0.1,0
		c-8.2,0.6-14.6,3.8-19.3,9.5c-5.1,6.5-7.7,15.8-7.7,28.2V256c0.2,11.8,2.8,20.9,7.9,27.3c4.6,5.7,10.9,8.8,19.2,9.4
		c1,0.1,1.9,0.1,2.9,0.1c9.8,0,17.1-3.3,22.2-9.8c5.1-6.5,7.6-15.8,7.6-28.1l0.1-16.1C288,226.9,285.4,217.8,280.3,211.5z
		 M248.7,273.4c-2-3.5-2.9-8.9-2.9-16.1v-21.5c0.2-6.7,1.1-11.7,3.1-14.9c1.5-2.4,3.6-4,6.4-4.6c0.3-0.1,0.6-0.1,1-0.2
		c0.2,0,0.3,0,0.5-0.1c0.4,0,0.8-0.1,1.2-0.1c0.3,0,0.5,0,0.8,0c0.2,0,0.5,0,0.7,0.1c0.3,0,0.5,0,0.8,0.1c3.1,0.5,5.5,2.1,7.2,4.8
		c2,3.4,3,8.6,3,16l0.1,21c0,7-1,12.1-2.9,15.5c-1.8,3.2-4.7,4.8-8.7,5c-0.3,0-0.5,0-0.8,0c-0.2,0-0.4,0-0.6,0
		c-0.8,0-1.5-0.1-2.1-0.3C252.4,277.6,250.2,276,248.7,273.4z"/>
	<path class="st6" d="M255.3,292.6c1,0.1,1.9,0.1,2.9,0.1c9.8,0,17.2-3.3,22.2-9.8c5.1-6.5,7.6-15.8,7.6-28.1v-16.2
		c-0.1-11.8-2.8-21-7.9-27.3c-5.1-6.4-12.4-9.5-22.1-9.5c-1,0-1.9,0-2.8,0.1v14.4c0.9-0.2,1.8-0.3,2.8-0.3c4.2,0,7.3,1.6,9.3,5
		c2,3.3,3,8.6,3,16v21c-0.1,6.9-1,12.1-2.9,15.5c-1.9,3.4-5,5-9.3,5c-1,0-2-0.1-2.9-0.3L255.3,292.6L255.3,292.6z"/>
	<path class="st2" d="M133.8,350.2V393c-1-0.1-2-0.2-2.9-0.2c-5-0.4-9.9-1.3-14.7-2.7v-19l-21,6.5v-14.2l36.6-13.1H133.8z"/>
</g>
<path class="st2" d="M366.1,394.4c-8.4,0.6-18.4,1-29.5,1.3 M366.1,394.4c-8.4,0.6-18.4,1-29.5,1.3 M366.1,394.4
	c-8.4,0.6-18.4,1-29.5,1.3 M366.1,394.4c-8.4,0.6-18.4,1-29.5,1.3 M305.4,98.8v6.2c2.3,0.1,4.6,0.1,6.9,0.2V99
	C310,98.9,307.7,98.8,305.4,98.8z M366.1,394.4c-8.4,0.6-18.4,1-29.5,1.3 M366.1,394.4c-8.4,0.6-18.4,1-29.5,1.3 M366.1,394.4
	c-8.4,0.6-18.4,1-29.5,1.3 M366.1,394.4c-8.4,0.6-18.4,1-29.5,1.3"/>
</svg>
