<?xml version="1.0" encoding="utf-8"?>
<!-- Generator: Adobe Illustrator 25.4.1, SVG Export Plug-In . SVG Version: 6.00 Build 0)  -->
<svg version="1.1" id="Layer_1" xmlns="http://www.w3.org/2000/svg" xmlns:xlink="http://www.w3.org/1999/xlink" x="0px" y="0px"
	 viewBox="0 0 512 512" style="enable-background:new 0 0 512 512;" xml:space="preserve">
<style type="text/css">
	.st0{display:none;fill:#0295AA;}
	.st1{fill:#E7E9E9;}
	.st2{fill:#9EA8AA;}
	.st3{fill:#CDD4D5;}
	.st4{fill:#FD6A33;}
	.st5{fill:#FF8C29;}
	.st6{fill:#E6EAEA;}
	.st7{fill:#FFD1A9;}
	.st8{fill:#9BAAAB;}
	.st9{fill:#687F82;}
	.st10{fill:none;}
	.st11{fill:#365558;}
	.st12{fill:#0295AA;}
	.st13{fill:#F0353D;}
	.st14{fill:#4ACFD9;}
	.st15{fill:#FFFFFF;}
</style>
<path class="st0" d="M280,76.5c-72.4,0-131.1,58.8-131.1,131.1S207.7,338.8,280,338.8c72.1,0,130.9-58.9,131.1-131.1
	C411.1,135.3,352.4,76.5,280,76.5z"/>
<path class="st1" d="M330.9,85.7v24.7h-20V94c0-5.1-4.1-9.2-9.2-9.2h-47.6V66.5h57.6C322.3,66.5,330.9,75.1,330.9,85.7z"/>
<path class="st2" d="M254.2,66.5v18.3h-50.6c-5.1,0-9.2,4.1-9.2,9.2l0,15.8h-20l0-24.1c0-10.6,8.6-19.2,19.2-19.2H254.2z"/>
<path class="st2" d="M88.4,253c0,32.9,13.2,62.7,34.6,84.5c21.9,22.3,52.3,36.1,86,36.1c15.9,0,31.1-3.1,45-8.7V460H37.8
	C23,460,11,448,11,433.2V129c0-10.5,8.5-19.1,19.1-19.1h224v31.2c-13.9-5.6-29.1-8.7-45-8.7c-11.3,0-22.2,1.5-32.6,4.5
	C125.7,151.1,88.4,197.7,88.4,253z"/>
<path class="st3" d="M309.9,325.2c-0.1,0.1-0.1,0.1-0.1,0.1C309.8,325.2,309.8,325.2,309.9,325.2z"/>
<path class="st3" d="M499,129v304.3c0,14.8-12,26.8-26.8,26.8h-87.5c2.3-1.1,4.5-2.6,6.4-4.5l6.4-6.4l15.5-15.5c1.6-1.6,3-3.4,4-5.3
	c3.9-7.1,3.9-15.7,0-22.8c-1-1.9-2.4-3.7-4-5.3l-23.4-23.4l0,0.8v-0.8l-2.1-2.1l-7.8-7.8l0,0l-9.8-9.9l-30.1-30.1
	c-3.4-3.4-7.7-5.6-12.2-6.5c-3.3-0.6-6.8-0.6-10.1,0.2c-2.4,0.6-4.8,1.5-6.9,2.9c-1.5,0.9-2.9,2-4.2,3.3l-21.9,21.9
	c-1.4,1.4-2.6,2.9-3.5,4.5c0,0,0,0,0,0c-0.7,1.1-1.3,2.3-1.7,3.6c-0.4,1-0.7,2.1-1,3.2c0,0,0,0,0,0c-0.1,0.3-0.1,0.6-0.2,0.9
	c-0.4,1.7-0.7,3.4-0.7,5.2c0,5.6,2.2,10.8,6.1,14.8c0,0,0.1,0.1,0.1,0.1l35.8,35.8l2.6,2.6l35.8,35.8c1.9,1.9,4.1,3.4,6.4,4.5H254.2
	v-95.3c0.7-0.3,1.4-0.6,2.1-0.9c4.7-2,9.3-4.3,13.7-6.9c1.1-0.6,2.1-1.3,3.2-1.9c1.9-1.2,3.8-2.5,5.6-3.8l0,0
	c5.4-3.8,10.5-8.1,15.2-12.8c5.3-5.3,10.1-11,14.4-17.2c3.4-5,6.5-10.2,9.2-15.7c1.8-3.8,3.5-7.6,4.9-11.6v0
	c1.3-3.6,2.4-7.2,3.4-10.9c0.7-2.7,1.3-5.5,1.8-8.2c0.1-0.4,0.1-0.8,0.2-1.2v0c1.2-6.7,1.8-13.6,1.8-20.7c0-0.8,0-1.6,0-2.3
	c0-1.1,0-2.2-0.1-3.2c0-0.6-0.1-1.2-0.1-1.9c0-0.2,0-0.3,0-0.5c0-0.7-0.1-1.4-0.2-2.1c0-0.4-0.1-0.8-0.1-1.2c0-0.4-0.1-0.8-0.1-1.2
	c-0.1-0.6-0.1-1.2-0.2-1.8c-0.1-0.8-0.2-1.6-0.3-2.5c-0.1-0.5-0.1-1.1-0.2-1.6c-0.1-0.5-0.2-1.1-0.3-1.6c-0.1-0.7-0.2-1.3-0.3-2
	c-0.1-0.7-0.2-1.4-0.4-2c-0.1-0.6-0.2-1.1-0.3-1.7c-0.2-0.8-0.3-1.6-0.5-2.4c-0.2-0.7-0.3-1.3-0.5-2c-0.2-0.9-0.5-1.9-0.8-2.8
	c-0.3-1-0.6-2.1-0.9-3.1c-0.2-0.7-0.4-1.3-0.6-1.9c-0.2-0.5-0.3-1-0.5-1.5c-0.2-0.5-0.4-1-0.5-1.5c-0.4-1.2-0.9-2.3-1.3-3.5
	c-0.5-1.2-1-2.4-1.5-3.6c-0.3-0.6-0.5-1.2-0.8-1.8c-0.2-0.4-0.3-0.7-0.5-1.1c0,0,0,0,0,0c-0.3-0.6-0.6-1.2-0.9-1.9
	c-0.7-1.5-1.5-3-2.3-4.5c-0.4-0.7-0.8-1.4-1.1-2c-0.2-0.4-0.4-0.7-0.6-1.1c-0.2-0.4-0.4-0.7-0.6-1.1c0-0.1-0.1-0.2-0.1-0.2
	c-0.2-0.3-0.4-0.6-0.6-1c-0.2-0.4-0.5-0.8-0.7-1.2c-0.3-0.6-0.7-1.1-1.1-1.7c-0.4-0.6-0.7-1.1-1.1-1.7c-0.2-0.3-0.5-0.7-0.7-1
	c-0.5-0.7-1-1.4-1.4-2.1c-0.7-1-1.5-2-2.2-3c-0.3-0.4-0.6-0.8-0.9-1.1c-0.5-0.7-1-1.3-1.6-2c-1.1-1.3-2.2-2.6-3.3-3.8
	c-0.2-0.2-0.4-0.5-0.6-0.7c-0.2-0.2-0.4-0.5-0.6-0.7c-0.3-0.4-0.7-0.7-1-1.1c-0.4-0.5-0.9-1-1.4-1.4c-0.5-0.5-1.1-1.1-1.6-1.6
	c-0.3-0.3-0.5-0.5-0.8-0.8c-0.3-0.3-0.5-0.5-0.8-0.8c-0.1-0.1-0.2-0.2-0.3-0.3c-0.1-0.1-0.2-0.2-0.3-0.3c-0.3-0.3-0.7-0.6-1-1
	c-0.3-0.3-0.7-0.6-1-0.9c-0.9-0.8-1.7-1.5-2.6-2.3c-0.2-0.1-0.4-0.3-0.6-0.5c-0.4-0.3-0.7-0.6-1.1-0.9c-1-0.8-2-1.7-3.1-2.5
	c0,0,0,0,0,0c-0.1,0-0.2-0.1-0.2-0.2c-1-0.7-1.9-1.4-2.9-2.1c-0.8-0.6-1.7-1.2-2.5-1.8c-0.6-0.4-1.1-0.8-1.7-1.1
	c-0.3-0.2-0.7-0.4-1-0.7c-0.9-0.6-1.8-1.1-2.6-1.6c-0.4-0.2-0.8-0.5-1.2-0.7c-0.9-0.5-1.8-1-2.6-1.5c-4.3-2.4-8.7-4.5-13.2-6.3
	v-31.3H480C490.5,109.8,499,118.3,499,129z"/>
<path class="st4" d="M88.4,253c0,32.9,13.2,62.7,34.6,84.5c-19.6-2.7-36.3-16.2-42.8-35.4L27.5,148c-1.9-5.5-2.9-11.4-2.9-17.2
	v-14.3c0-3.4,2.4-6.2,5.7-6.7c0.4-0.1,0.7-0.1,1.1-0.1h143v18.5c0,3.1,0.7,6,2,8.6C125.7,151.1,88.4,197.7,88.4,253z"/>
<path class="st4" d="M254.2,109.8v31.4c0,0-0.1,0-0.1,0c-13.9-5.6-29.1-8.7-45-8.7c-11.3,0-22.2,1.5-32.6,4.5c-1.3-2.6-2-5.5-2-8.6
	v-18.5H254.2z"/>
<path class="st5" d="M480.8,116.5v6.7c0,6.4-1.2,12.8-3.5,18.9L416,303.7c-7.8,20.6-27.6,34.2-49.7,34.2l-49.9-24.6
	c22-21.8,13.2-26.8,13.2-60.3c0-45.4-25.1-85-62.2-105.5h44.4c0.3,0,0.6,0,0.9,0c0.3,0,0.6,0,1-0.1c0.3,0,0.6-0.1,0.9-0.1
	c9.2-1.4,16.3-9.4,16.3-19v-18.5h143c0.4,0,0.8,0,1.1,0.1C478.3,110.4,480.8,113.2,480.8,116.5z"/>
<path class="st6" d="M303.7,324.2L303.7,324.2z"/>
<path class="st6" d="M309.9,325.2c-0.1,0.1-0.1,0.1-0.1,0.1C309.8,325.2,309.8,325.2,309.9,325.2z"/>
<path class="st5" d="M331,109.8v18.5c0,9.7-7.2,17.7-16.5,19c-0.3,0-0.6,0.1-0.9,0.1c-0.3,0-0.6,0.1-1,0.1c-0.3,0-0.6,0-0.9,0h-44.4
	c-4.3-2.4-8.7-4.5-13.2-6.3v-31.4H331z"/>
<path class="st6" d="M417,135.2v270.3c-1-1.9-2.4-3.7-4-5.3l-23.4-23.4l0,0.8v-0.8l-2.1-2.1l-7.8-7.8l0,0l-9.8-9.9l-30.1-30.1
	c-3.4-3.4-7.7-5.6-12.2-6.5c-3.3-0.6-6.8-0.6-10.1,0.2c-2.4,0.6-4.8,1.5-6.9,2.9l-2.2-2.2l-1.4-1.4c0.5-0.6,0.9-1.3,1.3-1.9
	c0.8-1.2,1.6-2.4,2.3-3.6c0.4-0.6,0.8-1.3,1.2-1.9c0.8-1.3,1.5-2.5,2.2-3.8c0.3-0.7,0.7-1.3,1-2c0.7-1.3,1.3-2.6,2-4
	c0.3-0.7,0.6-1.3,0.9-2c0.3-0.6,0.6-1.2,0.8-1.9c0.1-0.2,0.2-0.4,0.3-0.6c0.2-0.4,0.3-0.7,0.5-1.1c0-0.1,0.1-0.2,0.1-0.2h0l0,0
	c0,0,0-0.1,0-0.1c0.2-0.4,0.3-0.9,0.5-1.3c0.1-0.2,0.1-0.4,0.2-0.5c0.1-0.1,0.1-0.3,0.2-0.4c0.6-1.6,1.2-3.2,1.7-4.8
	c0-0.1,0.1-0.2,0.1-0.4c0-0.1,0-0.1,0-0.1c0.1-0.2,0.1-0.4,0.2-0.7c0.2-0.4,0.3-0.9,0.4-1.3c0.1-0.2,0.1-0.4,0.2-0.6c0,0,0,0,0-0.1
	c0.1-0.4,0.3-0.8,0.4-1.2c0,0,0,0,0-0.1c0.1-0.5,0.3-0.9,0.4-1.4c0,0,0-0.1,0-0.2c0.2-0.8,0.4-1.6,0.6-2.5c0-0.1,0.1-0.2,0.1-0.3
	c0-0.1,0-0.2,0.1-0.3c0.1-0.4,0.2-0.8,0.3-1.1c0.1-0.2,0.1-0.4,0.2-0.6c0-0.1,0-0.2,0.1-0.3c0-0.1,0.1-0.3,0.1-0.4
	c0-0.2,0.1-0.4,0.2-0.7c0-0.2,0.1-0.3,0.1-0.5c0-0.2,0.1-0.4,0.1-0.6c0-0.2,0.1-0.4,0.1-0.5c0.1-0.5,0.2-0.9,0.3-1.4
	c0.1-0.6,0.2-1.2,0.3-1.8c0.1-0.6,0.2-1.2,0.3-1.8c0-0.1,0-0.3,0.1-0.5c0.1-0.4,0.1-0.9,0.2-1.3c0.1-0.5,0.2-1.1,0.2-1.6
	c0-0.2,0-0.3,0.1-0.5c0.1-0.5,0.1-1,0.2-1.6c0.5-4.4,0.8-8.9,0.8-13.4c0-4.9-0.3-9.6-0.9-14.4c-0.1-1.1-0.3-2.2-0.4-3.4
	c-0.1-0.5-0.2-0.9-0.2-1.4c-0.1-0.5-0.2-1-0.2-1.5c-0.1-0.6-0.2-1.2-0.3-1.9c0,0,0-0.1,0-0.1c-0.1-0.7-0.3-1.3-0.4-2
	c-0.1-0.3-0.1-0.7-0.2-1c-0.1-0.5-0.2-1.1-0.4-1.7c-0.2-0.8-0.4-1.5-0.6-2.3c-0.2-0.6-0.3-1.2-0.5-1.8c-0.1-0.3-0.1-0.5-0.2-0.8
	c-0.1-0.5-0.2-0.9-0.4-1.4c-0.1-0.4-0.2-0.9-0.4-1.3c-0.1-0.4-0.2-0.8-0.4-1.2c-0.2-0.6-0.3-1.1-0.5-1.7c-0.6-1.9-1.3-3.7-2-5.5
	c-0.3-0.7-0.5-1.4-0.8-2c0-0.1,0-0.1-0.1-0.1c-0.2-0.6-0.5-1.2-0.7-1.7c-0.2-0.3-0.3-0.7-0.5-1c-0.2-0.5-0.5-1-0.7-1.5
	c-6-13.1-14.3-24.9-24.4-34.9c-3.7-3.7-7.6-7.1-11.7-10.2c-8.3-6.3-17.4-11.6-27.2-15.6c-1.6-0.7-3.3-1.3-5-1.9
	c-0.3-0.1-0.7-0.2-1-0.4c-0.3-0.1-0.6-0.2-0.9-0.3c-0.1,0-0.2-0.1-0.2-0.1c-0.5-0.2-0.9-0.3-1.4-0.5c-1.4-0.5-2.8-0.9-4.3-1.3
	c-0.6-0.2-1.1-0.3-1.7-0.5c0,0,0,0-0.1,0c-0.3-0.1-0.5-0.1-0.8-0.2c0,0-0.1,0-0.1,0c-0.4-0.1-0.8-0.2-1.1-0.3
	c-0.6-0.1-1.2-0.3-1.8-0.4c-0.3-0.1-0.7-0.1-1-0.2c0,0-0.1,0-0.1,0c-0.4-0.1-0.8-0.2-1.2-0.3c-0.1,0-0.1,0-0.2,0
	c-0.7-0.1-1.4-0.3-2.1-0.4c-0.3-0.1-0.7-0.1-1-0.2c-0.5-0.1-1-0.2-1.4-0.2c-0.5-0.1-1-0.2-1.5-0.2c-0.9-0.1-1.9-0.3-2.8-0.4
	c-0.5-0.1-1-0.1-1.5-0.2c-0.4,0-0.8-0.1-1.2-0.1c-0.4,0-0.8-0.1-1.2-0.1c-0.7-0.1-1.4-0.1-2.1-0.2c-0.2,0-0.4,0-0.6,0
	c-0.7,0-1.4-0.1-2.1-0.1c-0.3,0-0.6,0-0.8,0c0,0-0.1,0-0.2,0c-0.7,0-1.4-0.1-2.1-0.1c-0.2,0-0.3,0-0.5,0c-0.9,0-1.8,0-2.8,0
	c-0.8,0-1.5,0-2.3,0c-0.7,0-1.4,0-2.1,0.1h0c0,0-0.1,0-0.1,0c-0.6,0-1.2,0-1.8,0.1c-0.6,0-1.1,0.1-1.7,0.1c0,0,0,0,0,0
	c-0.9,0.1-1.8,0.1-2.6,0.2c-0.8,0.1-1.5,0.1-2.3,0.2c-0.4,0-0.7,0.1-1.1,0.1c-0.9,0.1-1.8,0.2-2.7,0.4c-1.5,0.2-3,0.5-4.5,0.7
	c-0.2,0-0.4,0.1-0.6,0.1c-0.6,0.1-1.2,0.2-1.8,0.3c0,0,0,0-0.1,0c-0.8,0.2-1.7,0.3-2.5,0.5c-0.7,0.1-1.4,0.3-2.1,0.5
	c-0.8,0.2-1.5,0.4-2.3,0.6c-0.3,0.1-0.6,0.2-0.9,0.2c-1.4,0.4-2.8,0.8-4.2,1.2c-0.7,0.2-1.3,0.4-2,0.6c-0.3,0.1-0.6,0.2-0.9,0.3
	c-0.3,0.1-0.6,0.2-0.9,0.3c-1.2,0.4-2.3,0.8-3.4,1.3c-0.7,0.2-1.3,0.5-1.9,0.8c-0.4,0.2-0.9,0.3-1.3,0.5c-0.4,0.2-0.8,0.3-1.3,0.5
	c-0.3,0.1-0.6,0.3-0.9,0.4c-0.3,0.1-0.6,0.3-1,0.4c-0.6,0.2-1.1,0.5-1.7,0.8c-0.2,0.1-0.3,0.2-0.5,0.2c-0.5,0.2-1,0.5-1.5,0.7
	c-0.6,0.3-1.2,0.6-1.9,0.9c-0.5,0.3-1.1,0.6-1.6,0.8c-0.1,0-0.2,0.1-0.2,0.1c-0.6,0.3-1.2,0.6-1.8,1c-0.5,0.3-1,0.6-1.5,0.8
	c-0.2,0.1-0.5,0.3-0.7,0.4c-0.5,0.3-0.9,0.5-1.3,0.8c-2,1.2-3.9,2.4-5.8,3.7c-0.3,0.2-0.6,0.4-1,0.7c-0.3,0.2-0.6,0.4-0.9,0.7
	c-0.3,0.2-0.5,0.4-0.8,0.6c-0.4,0.3-0.8,0.6-1.2,0.9c-0.3,0.2-0.6,0.4-0.9,0.7c-1,0.8-2.1,1.6-3.1,2.4c-0.2,0.2-0.4,0.3-0.6,0.5
	c-0.6,0.5-1.3,1-1.9,1.6c-0.5,0.4-1,0.8-1.5,1.3c-0.7,0.6-1.4,1.2-2,1.8c-0.3,0.2-0.5,0.5-0.8,0.7c-1,0.9-2,1.9-2.9,2.8
	c-0.2,0.2-0.4,0.4-0.6,0.6c-0.8,0.8-1.6,1.6-2.3,2.4c-0.7,0.7-1.3,1.4-2,2.1c-0.4,0.4-0.7,0.8-1.1,1.2c-0.4,0.4-0.8,0.9-1.1,1.3
	c-0.5,0.5-0.9,1.1-1.4,1.6c-0.3,0.4-0.6,0.8-0.9,1.2c-0.3,0.4-0.6,0.7-0.9,1.1c-0.5,0.7-1,1.3-1.5,2c-1,1.3-1.9,2.5-2.7,3.8
	c-1,1.4-1.9,2.8-2.8,4.2c-0.4,0.6-0.8,1.2-1.1,1.9c-0.1,0.2-0.3,0.5-0.4,0.7c-0.8,1.3-1.5,2.6-2.2,3.9c-0.4,0.7-0.8,1.5-1.2,2.2
	c-0.3,0.6-0.6,1.2-0.9,1.8c-0.2,0.3-0.3,0.7-0.5,1c0,0,0,0.1-0.1,0.1c0,0,0,0.1-0.1,0.1c-0.1,0.1-0.1,0.3-0.2,0.4
	c0,0-0.1,0.1-0.1,0.2c-0.2,0.5-0.4,0.9-0.7,1.4c-0.2,0.5-0.5,1-0.7,1.5c-0.2,0.5-0.4,1-0.7,1.5c-0.2,0.5-0.4,1-0.6,1.5
	c-0.1,0.2-0.1,0.3-0.2,0.5c-0.2,0.5-0.4,1-0.6,1.5c-0.6,1.5-1.1,3.1-1.6,4.6c0,0.2-0.1,0.3-0.2,0.5c-0.5,1.5-1,3.1-1.4,4.6
	c-0.5,1.6-0.9,3.2-1.3,4.9c0,0.1,0,0.2-0.1,0.3c-0.2,0.8-0.4,1.6-0.5,2.4l1.4-92.3c0-2.8,2.3-5.1,5.1-5.1h314.3
	C414.7,130.1,417,132.4,417,135.2z"/>
<path class="st6" d="M351.2,449.1H97.6c-2.8,0-5.1-2.3-5.1-5.1l-0.6-122.6v0l-0.2-40.4c0,0.2,0.1,0.3,0.1,0.5v0
	c0.1,0.7,0.3,1.3,0.5,2c4.5,19.4,13.9,36.3,26.8,50c1.2,1.3,2.5,2.6,3.7,3.8c1,1,2.1,2,3.2,3c0,0,0,0,0,0c1,0.9,1.9,1.7,2.9,2.5
	c0.3,0.2,0.5,0.5,0.8,0.7c1.4,1.1,2.8,2.2,4.2,3.3c5.1,3.8,10.5,7.1,16.1,10.1c9.8,5.1,20.5,8.9,31.8,11.3c3.3,0.7,6.7,1.3,10.1,1.7
	c0.5,0.1,1.1,0.1,1.7,0.2c0,0,0.1,0,0.1,0c1,0.1,1.9,0.2,2.8,0.3c0,0,0.1,0,0.1,0c2.6,0.2,5.1,0.4,7.7,0.5c0.6,0,1.3,0,1.9,0.1h0.4
	c0.8,0,1.5,0,2.3,0c0.6,0,1.1,0,1.7,0c0.1,0,0.2,0,0.3,0c0.3,0,0.7,0,1,0c0.4,0,0.9,0,1.3,0c0.3,0,0.7,0,1,0c0.4,0,0.8,0,1.2-0.1
	c0,0,0,0,0,0c0.4,0,0.8,0,1.2-0.1c0,0,0,0,0,0h0c0.2,0,0.3,0,0.5,0c0,0,0,0,0.1,0c0,0,0,0,0,0c0,0,0,0,0.1,0v0c0,0,0,0,0,0
	c0,0,0,0,0,0c0,0,0,0,0,0c0.5,0,1-0.1,1.5-0.1c0.5,0,1-0.1,1.4-0.1c0.1,0,0.3,0,0.4,0c0,0,0,0,0.1,0c0.9-0.1,1.8-0.2,2.7-0.3
	c0.1,0,0.1,0,0.2,0c0.1,0,0.2,0,0.3,0c0.9-0.1,1.7-0.2,2.6-0.4c1-0.1,1.9-0.3,2.9-0.5c0.3,0,0.6-0.1,1-0.2c0.1,0,0.2,0,0.3,0
	c0,0,0.1,0,0.2,0c0.1,0,0.1,0,0.2,0c0.3,0,0.5-0.1,0.8-0.1c0,0,0,0,0.1,0c0.2,0,0.4-0.1,0.7-0.1c0.1,0,0.2,0,0.2,0
	c0.2,0,0.3-0.1,0.5-0.1c0.1,0,0.3,0,0.4-0.1c0.8-0.2,1.7-0.3,2.5-0.5c0.3-0.1,0.5-0.1,0.8-0.2c0.1,0,0.2,0,0.3-0.1
	c0.1,0,0.2,0,0.2-0.1c0.4-0.1,0.8-0.2,1.2-0.3c0.1,0,0.2-0.1,0.4-0.1c0.6-0.2,1.2-0.3,1.8-0.5c0.6-0.2,1.2-0.3,1.8-0.5
	c0.8-0.2,1.7-0.5,2.5-0.8c1.3-0.4,2.6-0.9,3.9-1.3c0.4-0.1,0.7-0.2,1.1-0.4c0.2-0.1,0.3-0.1,0.5-0.2c0.3-0.1,0.6-0.2,0.9-0.3
	c0.1,0,0.2-0.1,0.4-0.2c0.1,0,0.2-0.1,0.3-0.1c0,0,0.1,0,0.1,0c0,0,0,0,0,0l0.9-0.4c0.2-0.1,0.4-0.2,0.6-0.2c0.5-0.2,1-0.4,1.4-0.6
	c0.5-0.2,1-0.4,1.4-0.6c0.9-0.4,1.9-0.8,2.8-1.3c0.5-0.2,0.9-0.4,1.4-0.7c0.4-0.2,0.8-0.4,1.2-0.6h0c0,0,0,0,0,0c0,0,0,0,0.1,0
	c0.1-0.1,0.2-0.1,0.3-0.2c0.8-0.4,1.6-0.8,2.4-1.2c0,0,0.1,0,0.1-0.1c0,0,0,0,0.1,0c0.5-0.3,1-0.5,1.5-0.8c0,0,0,0,0,0c0,0,0,0,0,0
	l0,0c0,0,0,0,0,0c0.1,0,0.1-0.1,0.2-0.1c0.4-0.2,0.8-0.5,1.3-0.7c1-0.6,2-1.2,3-1.8c0.8-0.5,1.5-0.9,2.2-1.4
	c0.6-0.4,1.2-0.8,1.8-1.2c0.6-0.4,1.2-0.8,1.8-1.2l3.7,3.7c-0.7,1.1-1.3,2.3-1.7,3.6c-0.4,1-0.7,2.1-1,3.2c0,0,0,0,0,0
	c-0.6,2-0.9,4-0.9,6.1c0,5.6,2.2,10.9,6.2,14.9l0.8,0.8c0.1,0.1,0.1,0.1,0.2,0.2l8.7,8.7l21.8,21.8l7,7l2.8,2.8L351.2,449.1z"/>
<path class="st6" d="M417,428.3v15.8c0,2.8-2.3,5.1-5.1,5.1h-14.5l15.5-15.5C414.6,432,416,430.2,417,428.3z"/>
<path class="st6" d="M311.2,324.2L311.2,324.2z"/>
<path class="st3" d="M91.7,281.1l0.8,163c0,2.8,2.3,5.1,5.1,5.1h156.5v-86.9c-13.9,5.6-23.1,9.6-39,9.6
	C157.7,371.9,103.1,335.1,91.7,281.1z"/>
<path class="st3" d="M209.1,132.8c15.9,0,31.1,3.1,44.9,8.8v-11.5H97.6c-2.8,0-5.1,2.3-5.1,5.1l-1.4,92.3
	C102.5,173.5,151.8,132.8,209.1,132.8z"/>
<path class="st7" d="M289.4,339.9c0.1-0.1,0.1-0.1,0.2-0.1C289.5,339.8,289.4,339.8,289.4,339.9z"/>
<path class="st7" d="M287.3,341.7c0.1-0.1,0.2-0.2,0.3-0.3C287.5,341.5,287.5,341.6,287.3,341.7z"/>
<path class="st7" d="M295.1,334.2c0.1-0.1,0.1-0.1,0.1-0.2C295.3,334.2,295.2,334.2,295.1,334.2z"/>
<path class="st7" d="M298.6,330.6c0.1-0.2,0.3-0.4,0.4-0.5C298.9,330.2,298.7,330.4,298.6,330.6z"/>
<path class="st7" d="M296.8,332.4c0.1-0.1,0.3-0.3,0.4-0.4C297.1,332.1,297,332.3,296.8,332.4z"/>
<path class="st7" d="M321.9,419.7H122V352l6.9-8.9l0.1-0.1l0.6-0.7l0.3-0.3c0.1,0.1,0.2,0.1,0.3,0.2c1.9,1.7,3.9,3.3,6,4.8
	c5,3.8,10.3,7.1,16,10.1c0.2,0.1,0.4,0.2,0.7,0.3c0.3,0.2,0.6,0.3,1,0.5c8.9,4.5,18.4,7.9,28.3,10.2c2.8,0.6,5.7,1.2,8.6,1.6
	c0,0,0,0,0,0c0,0,0,0,0.1,0c0.4,0.1,0.8,0.1,1.2,0.2c0.1,0,0.2,0,0.3,0c0.1,0,0.3,0,0.4,0.1c2.7,0.4,5.5,0.7,8.3,0.8c0,0,0,0,0,0
	c0.8,0,1.5,0.1,2.3,0.1c0.2,0,0.3,0,0.5,0h0.1c0.2,0,0.4,0,0.6,0c0,0,0.1,0,0.1,0c0.7,0,1.4,0,2.1,0.1h0.4v0c0.8,0,1.5,0,2.3,0
	c0.6,0,1.1,0,1.7,0c0.1,0,0.2,0,0.3,0c0.3,0,0.7,0,1,0c0.4,0,0.9,0,1.3,0c0.3,0,0.7,0,1,0c0.4,0,0.8,0,1.2-0.1c0,0,0,0,0,0
	c0.4,0,0.8,0,1.2-0.1c0,0,0,0,0,0h0c0.2,0,0.3,0,0.5,0c0,0,0,0,0.1,0c0,0,0,0,0,0c0,0,0,0,0.1,0v0c0,0,0,0,0,0c0,0,0,0,0,0
	c0,0,0,0,0,0c0.4,0,0.8,0,1.1-0.1c0.1,0,0.2,0,0.3,0c0.5,0,1-0.1,1.4-0.1c0.1,0,0.3,0,0.4,0c0,0,0,0,0.1,0c0.9-0.1,1.8-0.2,2.7-0.3
	c0.1,0,0.1,0,0.2,0c0.1,0,0.2,0,0.3,0c0.9-0.1,1.7-0.2,2.6-0.4c1-0.1,1.9-0.3,2.9-0.5c0.3-0.1,0.6-0.1,1-0.2c0.1,0,0.2,0,0.3,0
	c0,0,0.1,0,0.2,0c0.1,0,0.1,0,0.2,0c0.3,0,0.5-0.1,0.8-0.1c0,0,0,0,0.1,0c0.1,0,0.3-0.1,0.4-0.1c0.1,0,0.2,0,0.2,0
	c0.1,0,0.2,0,0.2,0c0.2,0,0.3-0.1,0.5-0.1c0.1,0,0.3,0,0.4-0.1c0.8-0.2,1.7-0.3,2.5-0.5c0.3-0.1,0.5-0.1,0.8-0.2
	c0.1,0,0.2,0,0.3-0.1c0.1,0,0.2,0,0.2-0.1c0.4-0.1,0.8-0.2,1.2-0.3c0.1,0,0.2-0.1,0.4-0.1c0.6-0.2,1.2-0.3,1.8-0.5
	c0.6-0.2,1.2-0.3,1.8-0.5c0.8-0.2,1.7-0.5,2.5-0.8c1.3-0.4,2.6-0.9,3.9-1.3c0.2-0.1,0.4-0.2,0.6-0.2c0.2,0,0.3-0.1,0.5-0.2
	c0.2-0.1,0.3-0.1,0.5-0.2c0.3-0.1,0.6-0.2,0.9-0.3c0.1,0,0.2-0.1,0.4-0.2c0.1,0,0.2-0.1,0.3-0.1c0,0,0.1,0,0.1,0c0,0,0,0,0,0
	l0.9-0.4c0.2-0.1,0.4-0.2,0.6-0.2c0.5-0.2,1-0.4,1.4-0.6c0.5-0.2,1-0.4,1.4-0.6c0.9-0.4,1.9-0.8,2.8-1.3c0.5-0.2,0.9-0.4,1.4-0.7
	c0.4-0.2,0.8-0.4,1.2-0.6h0c0,0,0,0,0,0c0,0,0,0,0.1,0c0.1-0.1,0.2-0.1,0.3-0.2c0.8-0.4,1.6-0.8,2.4-1.2c0,0,0.1,0,0.1-0.1
	c0,0,0,0,0.1,0c0.5-0.3,1-0.5,1.5-0.8c0,0,0,0,0,0c0,0,0,0,0,0l0,0c0,0,0,0,0,0c0.1,0,0.1-0.1,0.2-0.1c0.4-0.2,0.8-0.5,1.3-0.7
	c1-0.6,2-1.2,3-1.8c0.8-0.5,1.5-0.9,2.2-1.4c0.6-0.4,1.2-0.8,1.8-1.2c0.6-0.4,1.2-0.8,1.8-1.2l1.6,1.6l2.1,2.1c0,0,0,0,0,0
	c-0.7,1.1-1.3,2.3-1.7,3.6c-0.4,1-0.7,2.1-1,3.2c0,0,0,0,0,0c-0.1,0.3-0.1,0.6-0.2,0.9c-0.4,1.7-0.7,3.4-0.7,5.2
	c0,5.6,2.2,10.8,6.1,14.8c0,0,0.1,0.1,0.1,0.1l35.8,35.8L321.9,419.7z"/>
<path class="st7" d="M387.5,211v163.7l-7.8-7.8l0,0l-9.8-9.9l-30.1-30.1c-3.4-3.4-7.7-5.6-12.2-6.5c-3.3-0.6-6.8-0.6-10.1,0.2
	c-2.4,0.6-4.8,1.5-6.9,2.9l-2.2-2.2l-1.4-1.4c0.5-0.6,0.9-1.3,1.3-1.9c0.8-1.2,1.6-2.4,2.3-3.6c0.4-0.6,0.8-1.3,1.2-1.9
	c0.8-1.3,1.5-2.5,2.2-3.8c0.4-0.7,0.7-1.3,1-2c0.7-1.3,1.4-2.6,2-4c0.2-0.4,0.4-0.8,0.6-1.3c0.1-0.2,0.2-0.5,0.3-0.7
	c0.3-0.6,0.6-1.2,0.8-1.9c0.1-0.2,0.2-0.4,0.3-0.6c0.2-0.4,0.3-0.7,0.5-1.1c0-0.1,0.1-0.2,0.1-0.2l0,0c0,0,0-0.1,0-0.1
	c0.2-0.4,0.3-0.9,0.5-1.3c0.1-0.2,0.1-0.4,0.2-0.5c0.1-0.1,0.1-0.3,0.2-0.4c1.1-2.8,2.1-5.6,2.9-8.5l2.4-2.9l1.8-2.1l3.3-3.9
	l43-50.2l8.7-10.1L387.5,211z"/>
<path class="st7" d="M281.4,353.9L281.4,353.9z"/>
<path class="st7" d="M311.2,324.2L311.2,324.2z"/>
<path class="st7" d="M289.6,339.8c1.9-1.8,3.8-3.6,5.6-5.5C293.4,336.1,291.5,338,289.6,339.8z"/>
<path class="st7" d="M298.6,330.6c-0.4,0.5-0.9,1-1.3,1.5C297.7,331.5,298.1,331,298.6,330.6z"/>
<path class="st3" d="M211,371.4c-56.9-0.5-107.5-36.8-119.2-90.3l0.8,163L211,371.4z"/>
<path class="st7" d="M289.4,339.9c-0.6,0.5-1.1,1-1.7,1.6C288.2,341,288.8,340.4,289.4,339.9z"/>
<path class="st7" d="M296.8,332.4c-0.5,0.6-1,1.1-1.6,1.6C295.8,333.5,296.3,333,296.8,332.4z"/>
<path class="st5" d="M129.8,341.8L122,352v67.7h132.1v-57.5c-13.9,5.6-29,8.8-44.9,8.8C179.3,371.1,152.1,359.7,129.8,341.8z"/>
<path class="st8" d="M384.8,157.2H281.2c4.1,3.2,8,6.5,11.7,10.2h24.5v34.9c0.2,0.5,0.5,1,0.7,1.5c0.2,0.3,0.3,0.7,0.5,1
	c0.2,0.6,0.5,1.2,0.7,1.7c0,0,0,0.1,0.1,0.1c0.3,0.7,0.5,1.3,0.8,2c0.7,1.8,1.4,3.7,2,5.5c0.2,0.6,0.4,1.1,0.5,1.7
	c0.1,0.4,0.3,0.8,0.4,1.2c0.1,0.4,0.3,0.8,0.4,1.3c0.1,0.5,0.3,0.9,0.4,1.4c0.1,0.3,0.1,0.5,0.2,0.8c0.2,0.6,0.3,1.2,0.5,1.8
	c0.2,0.8,0.4,1.5,0.6,2.3c0.1,0.6,0.3,1.1,0.4,1.7c0.1,0.3,0.1,0.7,0.2,1c0.1,0.7,0.3,1.4,0.4,2c0,0,0,0.1,0,0.1
	c0.1,0.6,0.2,1.2,0.3,1.9c0.1,0.5,0.2,1,0.2,1.5c0.1,0.5,0.2,0.9,0.2,1.4c0.2,1.1,0.3,2.2,0.4,3.4c0.1,0.5,0.1,1,0.2,1.5v-12.1h52.1
	v54.9h-52.1v-17c0,0.2,0,0.4-0.1,0.5c0,0.5-0.1,1-0.2,1.6c0,0.2,0,0.3-0.1,0.5c-0.1,0.5-0.1,1-0.2,1.6c-0.1,0.4-0.1,0.9-0.2,1.3
	c0,0.2,0,0.3-0.1,0.5c-0.1,0.6-0.2,1.2-0.3,1.8c-0.1,0.6-0.2,1.2-0.3,1.8c-0.1,0.5-0.2,0.9-0.3,1.4c0,0.2-0.1,0.4-0.1,0.5
	c0,0.2-0.1,0.4-0.1,0.6c0,0.2-0.1,0.3-0.1,0.5c-0.1,0.2-0.1,0.5-0.2,0.7c0,0.2-0.1,0.3-0.1,0.4c0,0.1-0.1,0.2-0.1,0.3
	c0,0.2-0.1,0.4-0.2,0.6c-0.1,0.4-0.2,0.8-0.3,1.1c0,0.1,0,0.2-0.1,0.3c-0.1,0.5-0.3,1.1-0.4,1.6c-0.1,0.4-0.2,0.8-0.3,1.2
	c0,0.1,0,0.1,0,0.2c0,0,0,0,0,0.1c-0.1,0.4-0.2,0.9-0.4,1.3c0,0,0,0.1,0,0.1c-0.1,0.4-0.2,0.8-0.4,1.2c0,0,0,0,0,0.1
	c-0.1,0.2-0.1,0.4-0.2,0.6s-0.1,0.4-0.2,0.6c-0.1,0.2-0.1,0.5-0.2,0.7c-0.1,0.2-0.1,0.4-0.2,0.7c0,0,0,0.1,0,0.1
	c0,0.1-0.1,0.2-0.1,0.4c-0.5,1.6-1.1,3.2-1.7,4.8c0,0.1-0.1,0.3-0.2,0.4c-0.1,0.2-0.1,0.4-0.2,0.5c-0.2,0.4-0.3,0.9-0.5,1.3
	c0,0,0,0.1,0,0.1l0,0h0c0,0.1-0.1,0.2-0.1,0.2c-0.2,0.4-0.3,0.7-0.5,1.1c-0.1,0.2-0.2,0.4-0.3,0.6c-0.3,0.6-0.5,1.2-0.8,1.9
	c-0.1,0.2-0.2,0.5-0.3,0.7v19.3c3.3-0.8,6.8-0.9,10.1-0.2V292h52.1v54.9h-20l10.1,10.1h9.9v9.9l7.8,7.8l2.1,2.1l0.1-43.8v0l0-0.5v0
	l0.2-170.2C389.9,159.5,387.7,157.2,384.8,157.2z M327.6,216.8v-49.4h52.1v49.4H327.6z"/>
<path class="st9" d="M249.7,411.9h-57.6v-42c-3.4-0.5-6.8-1.1-10.1-1.9v43.9h-52.2V357H153c-5.5-3-11.6-6.3-16.5-10.1h-6.7l0-5.1
	c-3.6-3.2-7.5-6.4-10.7-10l0.6,85.2c0,2.8,2.3,5.1,5.1,5.1h129.4v-59.8c-1.5,0.6-2.9,1.2-4.4,1.7V411.9z"/>
<path class="st10" d="M181.9,411.9h-52.2"/>
<path class="st8" d="M280.8,353.4c-0.7,1.1-1.3,2.3-1.7,3.6h-13.9c2.1-1.1,4.1-2.3,6.1-3.5c0.8-0.5,1.5-0.9,2.2-1.4
	c0.6-0.4,1.2-0.8,1.8-1.2c0.6-0.4,1.2-0.8,1.8-1.2L280.8,353.4z"/>
<path class="st9" d="M135.8,157.4h-12.3c-2.8,0-5.1,2.3-5.1,5.1v11.1C123.6,167.6,129.5,162.2,135.8,157.4z"/>
<path class="st11" d="M385.6,218.1c-2.1-1.9-5.3-1.8-7.2,0.3l-52.5,57.3c-1.5,7.4-3.7,14.4-6.5,21.2l6.6-6.3
	c0.1-0.1,0.1-0.1,0.3-0.3l59.7-65C387.8,223.3,387.6,220,385.6,218.1z"/>
<g>
	<path class="st6" d="M209.1,168.8c-45.9,0-83.1,37.3-83.1,83.1s37.3,83.1,83.1,83.1c45.7,0,83-37.3,83.1-83.1
		C292.2,206.1,255,168.8,209.1,168.8z"/>
	<path class="st3" d="M281.2,210.6c-14.3-24.9-41.3-41.8-72.1-41.8c-45.9,0-83.1,37.3-83.1,83.1s37.3,83.1,83.1,83.1
		c30.7,0,57.7-16.9,72.1-42V210.6z"/>
	<path class="st7" d="M147.7,307.8c15.2,16.7,37.1,27.3,61.5,27.3c15,0,29-4,41.1-11l-64.4-59.4L147.7,307.8z"/>
	<path class="st5" d="M147.7,307.8c15.2,16.7,37.1,27.3,61.5,27.3c15,0,29-4,41.1-11l-64.4-59.4L147.7,307.8z"/>
	<path class="st8" d="M291.2,265H289v0.1V265v-35.8c-2.9-10.1-7.7-19.5-13.9-27.6v63.5h-78.6v-75h68.1c-6.3-5.6-13.4-10.3-21.2-13.9
		h-46.8v-6.4c-4.8,0.7-9.4,1.8-13.9,3.4v3h-7.7c-7.8,3.5-15,8.2-21.2,13.9h29v75h-55.5c0.8,4.8,1.9,9.4,3.5,13.9h52.1v51.7
		c4.5,1.5,9.1,2.7,13.9,3.4v-55.1h78.6v23.2C283.3,291.5,289,278.8,291.2,265z"/>
	<path class="st9" d="M281.3,293v-82.5h-0.1c-1.8-3.2-3.8-6.1-6-9v63.5h-78.6v-75h68.1c-6.3-5.6-13.4-10.3-21.2-13.9h-46.8v-6.4
		c-4.8,0.7-9.4,1.8-13.9,3.4v3h-7.7c-7.8,3.5-15,8.2-21.2,13.9h29v75h-55.5c0.8,4.8,1.9,9.4,3.5,13.9h52.1v51.7
		c4.5,1.5,9.1,2.7,13.9,3.4v-55.1h78.6v23.2C277.4,299.3,279.4,296.2,281.3,293z"/>
	<path class="st11" d="M189.4,265.1c-1.8,0.1-3.6,0.9-4.9,2.2l-37,40.2c3.1,3.4,6.5,6.6,10.1,9.5l32.3-35.1l49.4,47.4
		c4.6-1.8,9-4,13.2-6.6L194.4,267C193,265.7,191.2,265,189.4,265.1z"/>
	<path class="st12" d="M189.5,246.6c-14,0-25.5,11.4-25.5,25.5c0,14,11.4,25.5,25.5,25.5c14.1,0,25.5-11.4,25.5-25.5
		C215,258,203.6,246.6,189.5,246.6z"/>
</g>
<path class="st13" d="M254.1,370.6v-8.3c-3.7,1.5-7.4,2.8-11.2,3.9C245.9,368.8,249.8,370.4,254.1,370.6z"/>
<path class="st11" d="M296.7,332.6c0.7-0.8,1.4-1.5,2.1-2.3C298.1,331.1,297.4,331.8,296.7,332.6z"/>
<path class="st11" d="M294,335.4c0.6-0.6,1.1-1.1,1.7-1.8C295.1,334.3,294.6,334.9,294,335.4z"/>
<path class="st11" d="M290.9,338.4c0.6-0.6,1.1-1.1,1.8-1.7C292.1,337.3,291.5,337.9,290.9,338.4z"/>
<path class="st11" d="M287.5,341.6c0.8-0.7,1.5-1.4,2.3-2.1C289,340.2,288.3,340.9,287.5,341.6z"/>
<polygon class="st11" points="302,333 302,333 297.2,337.8 "/>
<polygon class="st11" points="290.2,344.8 290.2,344.8 297.2,337.8 "/>
<path class="st11" d="M299.1,330L299.1,330c-0.1,0.1-0.2,0.2-0.3,0.3C298.9,330.2,299,330.1,299.1,330z"/>
<path class="st11" d="M287.5,341.6c-0.1,0.1-0.2,0.2-0.3,0.3l0,0C287.3,341.8,287.4,341.7,287.5,341.6z"/>
<path class="st11" d="M290.9,338.4c-0.4,0.3-0.8,0.7-1.1,1C290.2,339.1,290.6,338.8,290.9,338.4z"/>
<path class="st11" d="M292.7,336.8c0.4-0.4,0.9-0.9,1.3-1.3C293.5,335.9,293.1,336.3,292.7,336.8z"/>
<path class="st11" d="M296.7,332.6c-0.3,0.4-0.7,0.8-1,1.1C296,333.3,296.3,333,296.7,332.6z"/>
<path class="st8" d="M314.9,412.8l9.8,9.8l-70.5-0.5l-0.1-58.9c1.5,0.6,3.8,1.2,5.3,1.7v47.9H314.9z"/>
<path class="st8" d="M389.9,332.7l-0.3,44.1l0,0.8v-0.8l-2.1-2.1l-7.8-7.8l0,0l0-5l0-3.8l-0.1-10.5v-0.8l0-4.3c0,0,0,0,0,0
	c2.7-2.4,5.3-4.7,7.8-7.2c0.7-0.8,1.4-1.5,2.2-2.3v0C389.8,332.9,389.9,332.8,389.9,332.7z"/>
<g>
	<g>
		<g>
			<path class="st11" d="M312.9,355.7c-1.8,1.7-3.9,2.5-6,2.5c-2.2,0-4.3-0.8-5.9-2.5l-11.2-11.2l-3-3l-13.8-13.8
				c-3.3-3.3-3.3-8.5,0-11.8c3.3-3.3,8.5-3.3,11.8,0l27.9,27.9C316.2,347.2,316.2,352.4,312.9,355.7z"/>
			<g>
				<path class="st12" d="M208.8,145.2c-58.7,0-106.5,47.8-106.5,106.5c0,58.7,47.8,106.5,106.5,106.5c26.3,0,50.5-9.6,69.1-25.5
					c4.3-3.6,8.2-7.6,11.8-11.8c15.9-18.6,25.5-42.8,25.5-69.1C315.3,193,267.5,145.2,208.8,145.2z M208.8,334.9
					c-45.8,0-83.1-37.3-83.1-83.1s37.2-83.1,83.1-83.1s83.1,37.3,83.1,83.1C291.8,297.5,254.5,334.9,208.8,334.9z"/>
				<path class="st14" d="M404.8,410.7L329.1,335c-1.6-1.6-3.7-2.5-5.9-2.5c-2.2,0-4.4,0.9-5.9,2.5l-25.2,25.2
					c-3.3,3.3-3.3,8.6,0,11.9l75.7,75.7c1.6,1.6,3.8,2.5,5.9,2.5c2.2,0,4.3-0.8,5.9-2.5l25.2-25.2c1.6-1.6,2.5-3.7,2.5-5.9
					C407.2,414.4,406.3,412.3,404.8,410.7z"/>
			</g>
		</g>
	</g>
	<path class="st15" d="M339.6,357.3c-3.3-3.3-8.6-3.3-11.9,0c-3.3,3.3-3.3,8.6,0,11.9l40.1,40.1c1.6,1.6,3.7,2.5,5.9,2.5
		c2.1,0,4.3-0.8,6-2.5c3.3-3.3,3.3-8.6,0-11.9L339.6,357.3z"/>
</g>
<g>
	<path class="st15" d="M176,188c-1.7,0-3.5,0.6-4.8,2L153,208.1c-2.7,2.7-2.7,7,0,9.6c2.7,2.7,7,2.7,9.6,0l18.1-18.1
		c2.7-2.7,2.7-7,0-9.6C179.5,188.7,177.8,188,176,188z"/>
	<path class="st15" d="M185,215.2c-1.7,0-3.5,0.6-4.8,2L160.3,237c-2.7,2.7-2.7,7,0,9.6c2.7,2.7,7,2.7,9.6,0l19.9-19.9
		c2.7-2.7,2.7-7,0-9.6C188.5,215.8,186.8,215.2,185,215.2z"/>
</g>
<path class="st15" d="M245.3,196.1c-11.3-9.6-26.1-13.6-40.7-11c-3.5,0.6-5.9,4.1-5.3,7.5c0.6,3.5,4.1,5.9,7.5,5.3
	c10.7-1.8,21.7,1.2,30.1,8.2c1.6,1.3,3.4,1.7,5.3,1.4c1.5-0.3,2.9-1,3.8-2.2C248.3,202.5,248,198.6,245.3,196.1z"/>
<line class="st10" x1="253.2" y1="109.5" x2="253.2" y2="51"/>
<path class="st4" d="M254.8,370.6c10.1,0,18.4-8.2,18.6-18.3c-9.4,6-19.6,10.8-30.5,14C246.1,368.9,250.2,370.6,254.8,370.6z"/>
<path class="st8" d="M309.9,325.2c-0.1,0.1-0.1,0.1-0.1,0.1C309.8,325.2,309.8,325.2,309.9,325.2z"/>
<path class="st8" d="M319.3,417.1l-4.4-4.3L293.1,391l-8.7-8.7c-0.1-0.1-0.1-0.1-0.2-0.2c-0.3-0.3-0.6-0.6-0.9-0.9
	c0,0,0.1,0.1,0.1,0.1L319.3,417.1z"/>
<polygon class="st8" points="389.6,376.8 389.6,377.6 389.6,376.8 "/>
</svg>
