<?xml version="1.0" encoding="utf-8"?>
<!-- Generator: Adobe Illustrator 25.4.1, SVG Export Plug-In . SVG Version: 6.00 Build 0)  -->
<svg version="1.1" id="Layer_1" xmlns="http://www.w3.org/2000/svg" xmlns:xlink="http://www.w3.org/1999/xlink" x="0px" y="0px"
	 viewBox="0 0 512 512" style="enable-background:new 0 0 512 512;" xml:space="preserve">
<style type="text/css">
	.st0{fill:#9EA8AA;}
	.st1{fill:#E7E9E9;}
	.st2{fill:#FD6A33;}
	.st3{fill:#FF8C29;}
	.st4{fill:none;}
	.st5{display:none;}
	.st6{display:inline;}
	.st7{fill:#CDD4D5;}
	.st8{fill:#0295AA;}
	.st9{fill:#FFFFFF;}
	.st10{fill:#9BAAAB;}
	.st11{fill:#365558;}
</style>
<path class="st0" d="M310.9,43.5v1H194.4v-1h-20v1.3H331v-1.3H310.9z"/>
<path class="st1" d="M330.9,19.7v22.8h-20V28c0-5.1-4.1-9.2-9.2-9.2h-47.6V0.5h57.6C322.3,0.5,330.9,9.1,330.9,19.7z"/>
<path class="st0" d="M254.2,0.5v18.3h-50.6c-5.1,0-9.2,4.1-9.2,9.2v14.5h-20V19.7c0-10.6,8.6-19.2,19.2-19.2H254.2z"/>
<path class="st0" d="M254.1,43.9V394H37.8C23,394,11,382,11,367.2V63c0-10.5,8.5-19.1,19.1-19.1H254.1L254.1,43.9z"/>
<path class="st1" d="M499,63v304.3c0,14.8-12,26.8-26.8,26.8h-218V43.9H480C490.5,43.9,499,52.4,499,63z"/>
<path class="st2" d="M254.2,272.9L130.4,272c-22.7,0-42.9-14.4-50.2-35.9l-52.7-154c-1.9-5.5-2.9-11.4-2.9-17.2V50.6
	c0-3.8,3-6.8,6.8-6.8h143v18.5c0,10.6,8.6,19.2,19.2,19.2h60.6v160.2L254.2,272.9L254.2,272.9z"/>
<path class="st2" d="M254.2,43.8v37.7h-60.6c-10.6,0-19.2-8.6-19.2-19.2V43.8H254.2z"/>
<path class="st3" d="M480.8,50.6v6.7c0,6.4-1.2,12.8-3.5,18.9L416,237.7c-7.8,20.6-27.6,34.2-49.7,34.2l-112.1,1l-0.1-31.2V81.5
	h57.6c10.6,0,19.2-8.6,19.2-19.2V43.8h143C477.8,43.8,480.8,46.9,480.8,50.6z"/>
<path class="st3" d="M330.9,43.8v18.5c0,10.6-8.6,19.2-19.2,19.2h-57.6V43.8H330.9L330.9,43.8z"/>
<line class="st4" x1="253.2" y1="44.5" x2="253.2" y2="-14"/>
<g id="Layer_3" class="st5">
	<rect x="206" y="-207.9" class="st6" width="512" height="512.8"/>
</g>
<g>
	<path class="st7" d="M296,241.6c-2.3-2.4-4.5-4.7-6.7-6.9c-0.3-0.3-0.8-0.5-1.1-0.5c-3.4,0.6-6.7,1.2-10.5,1.9
		c-2-4.9-3.9-9.8-5.9-14.9c2.5-1.7,4.7-3.3,7.1-4.7c1.8-1,2.5-2,2.2-4.2c-0.3-2.2,0.2-4.5,0.2-6.8c0-0.4-0.3-0.8-0.6-1
		c-2.5-1.8-4.9-3.5-7.4-5.2c-0.8-0.5-1.1-1-0.8-1.9c1.2-3,2.3-5.9,3.5-8.9c0.5-1.2,1.1-2.4,1.7-3.6c0.5-0.9,0.9-1.6,2.4-1.2
		c2.8,0.8,5.7,1.2,8.6,1.7c0.4,0.1,1-0.1,1.3-0.3c2.1-2,4.4-3.8,6.2-6c0.6-0.7,0.3-2.3,0.1-3.4c-0.4-2.4-1-4.8-1.4-7.1
		c-0.1-0.4,0.5-1.1,0.9-1.3c2.7-1.3,5.4-2.5,8.1-3.6c1.6-0.7,3.3-1.2,4.9-1.7c0.4-0.1,1.2,0.3,1.5,0.7c1.7,2.5,3.1,5,4.8,7.4
		c0.4,0.5,1.3,0.7,2,0.8c2.6,0.2,5.3,0.2,7.9,0.2c0.5,0,1.2-0.4,1.4-0.7c1.8-2.4,3.5-4.9,5.2-7.4c0.4-0.6,0.7-0.9,1.5-0.6
		c3,1.2,6,2.2,8.9,3.4c1.5,0.6,2.8,1.6,4.3,2.2c1,0.4,0.9,1,0.7,1.8c-0.6,3-1.3,5.9-1.8,8.9c-0.1,0.4,0.1,1,0.4,1.3
		c1.9,2,3.7,3.8,5.6,5.7c0.6,0.6,1.1,1,2.2,0.7c3.1-0.7,6.3-1.2,9.9-1.8c2,4.9,3.9,9.9,6,14.9c-2.8,1.8-5.3,3.4-7.9,5
		c-1.1,0.7-1.7,1.3-1.6,2.8c0.2,2.4,0,4.9-0.2,7.3c-0.1,1,0.2,1.6,1,2.1c2.5,1.6,4.9,3.2,7.2,4.8c0.3,0.2,0.7,0.8,0.6,1.1
		c-1.5,3.8-3,7.5-4.6,11.3c-0.3,0.7-0.9,1.3-1,1.9c-0.4,1.3-1.1,1.2-2.1,1c-2.7-0.6-5.4-1.2-8.1-1.7c-0.7-0.1-1.7,0.2-2.2,0.6
		c-1.9,1.8-3.5,3.8-5.5,5.4c-0.9,0.7-0.9,1.3-0.7,2.1c0.5,2.9,1.2,5.8,1.7,8.7c0.1,0.5-0.6,1.3-1.2,1.6c-1.5,0.9-3,1.6-4.6,2.2
		c-3.1,1.2-6.1,2.2-9.2,3.2c-1.9-3-3.6-5.8-5.4-8.5c-0.3-0.5-0.8-0.9-1.8-0.8c-2.7,0.2-5.5-0.1-8.2-0.1c-0.6,0-1.2,0.5-1.6,0.9
		c-1.6,2.2-3.1,4.4-4.6,6.6c-0.6,1-1.1,1.3-2.4,0.9c-4.7-1.3-8.9-3.4-12.9-5.7c-0.3-0.2-0.6-0.9-0.5-1.2
		C294.5,247.9,295.3,244.6,296,241.6z M291.5,221.9c5.4,14.6,22.9,24.6,40.6,17.5c17.9-7.2,22.9-26.3,17.5-40.3
		c-5.8-15-23.5-24.5-40.5-17.8C291.9,188,285.2,207.2,291.5,221.9z"/>
	<path class="st8" d="M291.5,221.9c-6.3-14.7,0.4-33.8,17.6-40.6c17.1-6.7,34.8,2.8,40.5,17.8c5.4,14,0.4,33.1-17.5,40.3
		C314.4,246.5,296.9,236.5,291.5,221.9z M326.8,226.2c8.3-3.3,13.3-12.8,9.6-22.2c-4.1-10.2-14.9-12.5-22.2-9.6
		c-7.4,2.9-13.5,12.2-9.6,22.2C308,225.5,318.1,229.7,326.8,226.2z"/>
	<path class="st9" d="M337.5,196.1c-0.8,0-1.6-0.4-2.1-1c-3-3.6-7.4-5.7-12.1-5.7c-1.6,0-2.8-1.3-2.8-2.8s1.3-2.8,2.8-2.8
		c6.3,0,12.3,2.8,16.4,7.7c1,1.2,0.8,2.9-0.4,3.9C338.8,195.9,338.1,196.1,337.5,196.1z"/>
</g>
<g>
	<g>
		<path class="st3" d="M331.2,417.9c1-3,2.5-3.6,5-4.1c6.1-1.1,12.2-2.3,18.8-3.5c0-11.3,0-22.1,0-32.9c-7.2-1.6-13.6-3.2-20-4.2
			c-2.3-0.4-3-1.4-3.6-3c-2.2-5-4.3-10.1-6.3-15.2c-0.4-0.7-0.1-2,0.4-2.8c3.4-5.3,6.7-10.4,10.2-15.4c0.8-1.3,1.6-2.4,0-3.8
			c-2.4-2.4-4.2-5.3-6.5-7.5c-4.8-4.5-9.6-8.9-14.4-13.4c-1.2-1.2-2-0.7-3.2,0.1c-5.1,3.5-10.3,6.8-15.4,10.1
			c-1,0.6-2.4,0.7-3.4,0.4c-5-2-9.9-4.2-15-6.5c-1.3-0.6-2.9-1.8-3.1-2.9c-1.3-5.9-2.3-11.8-3.5-17.7c-0.2-1-1.4-2.2-2.3-2.3
			c-3.6-0.5-7.1-0.7-10.7-0.6c-1.4,0-2.8,0.1-4.1,0.1v37c0.1,0,0.2,0,0.4,0c37.7,0.2,64.2,31.6,63.8,64.6
			c-0.4,30.9-24.3,63.3-63.9,63.4c-0.4,0-0.4,0-0.4,0l0,37.2c1.1,0.1,2.4,0.1,3.5,0.1c3.5,0.1,6.9-0.2,10.4-0.7
			c1.3-0.2,3.2-1.2,3.5-2.2c1.4-5.9,2.3-11.8,3.5-17.7c0.4-1.6,0.7-2.6,3-3.4c5-1.6,9.6-4.2,14.6-6.1c1.3-0.5,3.4-0.4,4.5,0.5
			c4.8,3,9.5,6.1,14.1,9.3c1.7,1.2,3.1,1.9,4.7-0.2c0.8-1.2,2.4-1.8,3.5-2.9c5.9-6,11.6-12,17.4-18c0.4-0.4,0.1-1.8-0.4-2.5
			c-3.4-4.9-6.7-9.8-10.2-14.7c-1.2-1.7-1.2-3-0.4-4.8C327.5,427.3,329.8,422.7,331.2,417.9z"/>
		<g>
			<g>
				<path class="st7" d="M254.5,329.8c-0.1,0-0.2,0-0.4,0v29h0.1c16,0.1,35,12.7,35,35.2c0,20.7-16.6,35-35.1,35v29
					c0.1,0,0.1,0,0.1,0c39.6-0.2,63.7-32.7,63.9-63.6C318.6,361.4,292.1,330,254.5,329.8z"/>
				<g>
					<path class="st2" d="M190.2,393.6c-0.8-32.7,26.2-63.9,63.9-63.9v-37c-4.8,0.1-9.5,0.4-14.2,0.6c-1,0.1-2.6,1.1-2.8,1.8
						c-1.1,4.8-1.7,9.8-2.8,14.7c-0.5,2.3-1.2,5.5-2.8,6.3c-5.3,2.8-10.9,4.7-16.4,6.7c-0.8,0.4-2,0.1-2.8-0.4
						c-5-3.1-10.3-6.1-15-9.7c-2.4-1.9-3.7-1-5.4,0.5c-2,1.8-4.1,3.5-6,5.5c-4.5,4.7-8.9,9.6-13.3,14.4c-1.4,1.6-1.1,2.5,0,4.1
						c3.5,5,6.8,10.3,10.2,15.4c0.5,0.7,0.7,1.8,0.4,2.4c-1.8,4.3-4.4,8.3-5.6,12.8c-1.1,4.3-3.4,5.7-7.4,6.2
						c-5.6,0.7-11.1,2.3-17.2,3.5c0,11.3,0,22.1,0,32.9c7.7,1.6,14.5,2.9,21.4,4.3c0.7,0.1,1.4,1,1.7,1.7c2.5,6,4.9,12,7.4,18.3
						c-3.6,5.3-7.5,11-11.4,16.8c-0.5,0.7-0.5,2.2,0,2.8c6,7.5,12.4,14.7,20.2,20.5c2.3,1.7,3.4,1.3,5.1,0c4.5-3.1,9.1-6.2,13.9-9.1
						c1-0.6,2.6-1,3.7-0.6c5.3,2,10.3,4.7,15.6,6.3c1.9,0.6,2.5,1.7,2.8,2.8c1.4,6.5,2.5,13.2,3.8,20.2c5.5,0.2,11.3,0.5,16.8,0.7
						l0-37.2C215.1,457.9,189.4,425.7,190.2,393.6z"/>
					<path class="st10" d="M254,428.8c-19.3,0-35.2-15.8-35-35.1c0.2-22.1,18.8-35,35.1-35v-29c-37.6,0-64.6,31.2-63.9,63.9
						c-0.8,32,24.8,64.3,63.9,64.2L254,428.8C254.2,428.8,254,428.8,254,428.8z"/>
					<path class="st9" d="M287.4,364.3c-1.4,0-2.8-0.6-3.7-1.8c-5.3-6.2-12.8-9.7-20.9-9.7c-2.6,0-4.8-2.2-4.8-4.8s2.2-4.8,4.8-4.8
						c10.9,0,21.2,4.8,28.1,13.3c1.7,2,1.4,5-0.6,6.7C289.7,364,288.5,364.3,287.4,364.3z"/>
					<path class="st8" d="M263,318.8c-0.4-0.7-0.6-1.6-0.8-2.4c-0.8-3.5-1.4-7.1-2.2-10.4c-0.1-0.4-0.1-0.7-0.2-1.1
						c-0.6,0-1.2,0-1.8,0h-0.6c-1.1,0-2.3,0-3.4,0.1v13.3C257.2,318.4,260.1,318.5,263,318.8z"/>
					<path class="st8" d="M312,327c-0.1-0.1-0.2-0.2-0.4-0.4c-3.5,2.3-6.6,4.3-9.8,6.3c-0.6,0.4-1.2,0.7-1.9,1.1
						c2.8,2,5.3,4.3,7.7,6.8c2.3,2.4,4.4,4.8,6.5,7.4c0.2-0.6,0.6-1.1,0.8-1.6c2.3-3.5,4.5-7.1,6.8-10.5c-0.5-0.6-1-1.2-1.4-1.6
						C317.6,332,314.8,329.6,312,327z"/>
					<path class="st8" d="M314,441.8c-3.8,5.1-8.4,9.8-13.6,13.9c0.8,0.4,1.6,0.7,2.2,1.1c3.2,2,6.3,4.1,9.5,6.1
						c3-3,6.2-6.3,9.5-9.8c-1.9-2.6-3.8-5.4-5.7-8.3C315.1,443.8,314.5,442.7,314,441.8z"/>
					<path class="st8" d="M343,387.9c-3.5-0.8-6.8-1.4-9.9-1.9c-1.3-0.2-2.5-0.5-3.7-1c0.5,3.5,0.7,6.9,0.7,10.4c0,3-0.2,6-0.6,9
						c1.4-0.6,3-1.1,4.7-1.3c3-0.6,5.9-1.1,9-1.7L343,387.9z"/>
					<path class="st11" d="M170.7,386.9c-2.3,0.4-4.4,0.7-6.8,1.3v13.6c4.1,0.8,8,1.7,12,2.5c0.6,0.1,1.2,0.4,1.7,0.5
						c-0.4-3.2-0.6-6.6-0.5-9.8c-0.1-3.2,0.1-6.6,0.5-9.8C175.5,386,173.2,386.6,170.7,386.9z"/>
					<path class="st11" d="M253.7,471.3h-0.5c-3.1,0-6.2-0.2-9.2-0.6c0.4,0.8,0.5,1.6,0.7,2.4c0.8,3.8,1.6,7.5,2.3,11.4
						c2.4,0.1,4.8,0.2,7.2,0.4v-13.5C254,471.3,253.8,471.3,253.7,471.3z"/>
					<path class="st11" d="M193,442.1c0,0-2.2,3.1-2.9,4.3c-1.7,2.4-3.2,4.8-4.9,7.2c2.8,3.2,5.9,6.5,9.5,9.6
						c3.4-2.3,6.6-4.3,9.8-6.3c0.7-0.5,1.4-0.8,2.2-1.1c-2.8-2.2-5.4-4.4-7.9-6.9C196.6,446.7,194.8,444.4,193,442.1z"/>
					<path class="st11" d="M202,331.4c-2.5-1.6-5-3-7.4-4.7c-0.4,0.2-0.6,0.6-0.8,0.8c-2.4,2.5-4.7,5-6.9,7.5
						c-0.5,0.5-1,1.1-1.4,1.6c2.3,3.5,4.5,6.9,6.7,10.3c0.2,0.5,0.5,0.8,0.7,1.3c1.9-2.4,3.8-4.7,6-6.9c2.5-2.6,5.1-4.9,7.9-7.1
						c-0.6-0.2-1.1-0.6-1.6-0.8C204,332.6,202.9,332,202,331.4z"/>
				</g>
			</g>
			<path class="st11" d="M245.2,312.8l-0.1,0.2c-0.4,1.6-0.8,3.6-1.7,5.9c3.4-0.5,6.6-0.7,9.9-0.7h0.4c0.1,0,0.2,0,0.4,0v-13.3
				c-2.5,0.1-5,0.1-7.5,0.2C246.1,307.7,245.8,310.2,245.2,312.8z"/>
		</g>
	</g>
	<path class="st8" d="M254.2,484.9c1,0,1.9,0.1,2.9,0.1c0.2,0,0.6,0,0.8,0c0.8,0,1.6,0,2.4-0.1c0.2-1.2,0.5-2.4,0.7-3.6
		c0.5-2.5,1-5,1.4-7.5c0.2-1.1,0.5-2,0.8-3c-2.9,0.4-5.9,0.6-9,0.6L254.2,484.9L254.2,484.9z"/>
</g>
</svg>
