<svg width="512" height="512" viewBox="0 0 512 512" fill="none" xmlns="http://www.w3.org/2000/svg">
<path d="M258.4 1C173.3 1 104.1 70.3 104.1 155.3C104.1 240.3 173.4 309.6 258.4 309.6C343.4 309.6 412.7 240.3 412.7 155.3C412.7 70.3 343.4 1 258.4 1Z" fill="#4ACFD9"/>
<path d="M104 155.3C104 240 172.5 308.8 257 309.6V1C172.5 1.8 104 70.6 104 155.3Z" fill="#0295AA"/>
<path d="M258 24.8008C257.6 24.8008 257.3 24.8008 256.9 24.8008V284.801C257.3 284.801 257.6 284.801 258 284.801C329.7 284.801 388 226.401 388 154.801C388 83.2008 329.7 24.8008 258 24.8008Z" fill="#E6EAEA"/>
<path d="M127.9 154.898C127.9 226.198 185.6 284.398 256.8 284.898V24.8984C185.6 25.4984 127.9 83.5984 127.9 154.898Z" fill="#CDD4D5"/>
<path d="M312.8 156.7C310.5 150.5 307.1 146 302.6 143.3C298.1 140.6 291.9 138.7 284 137.6L257 134.5V169.6L263.6 170.5C268.6 171.1 272 171.7 274 172.4C275.9 173.1 277.2 174.2 277.9 175.8C278.6 177.4 278.9 180.3 278.9 184.3C278.9 188.6 278.3 191.6 277.2 193.6C276.1 195.6 273.4 197 269.4 197.8C266.6 198.4 262.4 198.8 257.1 198.9V253.5H270.3V231.6C285.7 230.9 297.2 227 304.9 220.2C312.6 213.4 316.4 201 316.4 183.1C316.2 171.7 315.1 163 312.8 156.7Z" fill="#FF8C29"/>
<path d="M262.001 105.5C274.501 105.5 289.801 106.4 307.901 108.1V77.6C303.301 76.6 297.301 75.7 290.101 74.7C282.901 73.7 276.201 73.1 270.001 73V50.5H256.801V105.6C258.501 105.5 260.201 105.5 262.001 105.5Z" fill="#FF8C29"/>
<path d="M249.3 198.902C234.5 198.902 217.9 198.202 199.4 196.602V227.102C211.9 229.402 226.1 230.902 242.1 231.402V253.302H256.9V198.702C254.7 198.902 252.1 198.902 249.3 198.902Z" fill="#FD6A33"/>
<path d="M242.1 73.0984C226.5 74.1984 214.7 78.1984 206.6 84.8984C198.5 91.5984 194.5 102.998 194.5 118.998C194.5 133.198 196.9 144.098 201.5 151.598C206.2 159.098 215.5 163.798 229.3 165.798L256.8 169.598V134.498L246.3 133.298C241.5 132.698 238.2 132.098 236.3 131.398C234.5 130.698 233.3 129.598 232.7 127.998C232.1 126.398 231.8 123.498 231.8 119.498C231.8 115.198 232.7 112.198 234.5 110.198C236.3 108.298 239.2 106.998 243.2 106.398C246.3 105.898 250.8 105.698 256.7 105.598V50.3984H241.9L242.1 73.0984Z" fill="#FD6A33"/>
<path d="M476.3 286.8C496.9 244.3 497.6 183.5 450.5 148" stroke="#F0353D" stroke-width="22" stroke-miterlimit="10" stroke-linecap="round"/>
<path d="M511.6 300.702L440 328.502L451.7 252.602L511.6 300.702Z" fill="#F0353D"/>
<path d="M34.9993 176.5C10.3993 229.5 31.2993 301.9 81.2993 320" stroke="#F0353D" stroke-width="22" stroke-miterlimit="10" stroke-linecap="round"/>
<path d="M0 162.8L71.5 135L59.9 210.9L0 162.8Z" fill="#F0353D"/>
<path d="M314.689 362.457V363.369H192.38V362.457H171.4V363.643H335.669V362.457H314.689Z" fill="#9EA8AA"/>
<path d="M335.67 341.662V362.463H314.691V349.234C314.691 344.581 310.39 340.841 305.04 340.841H255.109V324.145H315.53C326.649 324.145 335.67 331.991 335.67 341.662Z" fill="#C4C4C4"/>
<path d="M255.108 324.145V340.841H202.03C196.68 340.841 192.38 344.581 192.38 349.234V362.463H171.4V341.662C171.4 331.991 180.421 324.145 191.541 324.145H255.108Z" fill="#9EA8AA"/>
<path d="M255 363.684V511.999H28.1119C12.5874 511.999 0 506.915 0 500.645V371.775C0 367.327 8.91608 363.684 20.035 363.684H255Z" fill="#9EA8AA"/>
<path d="M512 371.773V500.649C512 506.917 499.407 511.999 483.876 511.999H255V363.684H492.061C503.08 363.684 512 367.283 512 371.773Z" fill="#C4C4C4"/>
<path d="M254.658 511.999L125.592 511.738C101.864 511.738 80.7491 502.396 73.1185 488.447L18.0314 388.532C16.0453 384.964 15 381.136 15 377.373V368.095C15 365.63 18.1359 363.684 22.108 363.684H171.585V375.686C171.585 382.563 180.575 388.143 191.655 388.143H255V492.08L254.658 511.999Z" fill="#F0353D"/>
<path d="M255.108 363.641V398.036H191.541C180.421 398.036 171.4 390.19 171.4 380.519V363.641H255.108Z" fill="#F0353D"/>
<path d="M493 368.099V372.449C493 376.604 491.74 380.759 489.326 384.72L424.971 489.577C416.783 502.952 395.996 511.782 372.795 511.782L255 511.999L255.005 492.174V388.161H315.475C326.603 388.161 335.631 382.577 335.631 375.695V363.684H485.756C489.851 363.684 493 365.696 493 368.099Z" fill="#FD6A33"/>
<path d="M335.67 363.641V380.519C335.67 390.19 326.649 398.036 315.53 398.036H255.109V363.641H335.67Z" fill="#FD6A33"/>
</svg>
