<svg width="512" height="512" viewBox="0 0 512 512" fill="none" xmlns="http://www.w3.org/2000/svg">
<g clip-path="url(#clip0_741_2789)">
<path d="M314.689 159.652V160.655H192.38V159.652H171.4V160.956H335.669V159.652H314.689Z" fill="#9EA8AA"/>
<path d="M256 161V512H28.2221C12.6368 512 0 499.969 0 485.131V180.149C0 169.622 8.95105 161 20.1135 161H256Z" fill="#365558"/>
<path d="M512 180.144V485.139C512 499.973 499.456 512 483.985 512H256V161H492.139C503.115 161 512 169.519 512 180.144Z" fill="#9EA8AA"/>
<path d="M256 48H126.56C102.839 48 81.7302 55.1306 74.1017 65.7769L19.0305 142.035C17.045 144.758 16 147.68 16 150.552V157.633C16 159.514 19.135 161 23.106 161H172.54H256V48Z" fill="#F0353D"/>
<path d="M495 157.636V154.322C495 151.156 493.735 147.99 491.31 144.973L426.686 65.0831C418.463 54.8929 397.589 48.1653 374.29 48.1653L256 48L256.005 63.1044V142.351V161H336.97H487.726C491.837 161 495 159.467 495 157.636Z" fill="#FD6A33"/>
<rect x="124" y="36" width="46" height="24" fill="#365558"/>
<rect x="319" y="36" width="46" height="24" fill="#365558"/>
<circle cx="147.5" cy="371.5" r="11.5" fill="#F0353D"/>
<circle cx="353.5" cy="371.5" r="11.5" fill="#FF8C29"/>
<path d="M378.744 167H133.875C130.169 167 127.137 170.032 127.137 173.806V505.194C127.137 508.9 130.169 512 133.875 512H310.418C312.17 512 313.922 511.326 315.202 510.046L383.663 441.585C384.943 440.305 385.617 438.62 385.617 436.801V173.806C385.482 170.032 382.518 167 378.744 167Z" fill="#E6EAEA"/>
<path d="M133.726 167C130.027 167 127 170.032 127 173.806V505.194C127 508.9 130.027 512 133.726 512H256V167H133.726Z" fill="#CDD4D5"/>
<path d="M322.072 269.219H293.502C283.597 269.219 275.578 261.2 275.578 251.295V222.725C275.578 212.819 283.597 204.801 293.502 204.801H322.072C331.978 204.801 339.996 212.819 339.996 222.725V251.295C339.929 261.2 331.91 269.219 322.072 269.219Z" fill="#CDD4D5"/>
<path d="M299.096 248.801C295.525 245.229 295.525 239.232 299.096 235.661L359.337 175.421C362.908 171.849 368.905 171.849 372.476 175.421C376.048 178.992 376.048 184.989 372.476 188.56L312.236 248.801C308.597 252.372 302.668 252.372 299.096 248.801Z" fill="#F0353D"/>
<path d="M305.701 251.096C300.647 251.096 296.402 246.918 296.402 241.797V190.182C296.402 185.128 300.58 180.883 305.701 180.883C310.755 180.883 315 185.061 315 190.182V241.932C314.865 246.985 310.755 251.096 305.701 251.096Z" fill="#F0353D"/>
<path d="M193.373 411.805H139.871C138.995 411.805 138.254 412.815 138.254 414.028V432.02C138.254 433.232 138.995 434.243 139.871 434.243H193.373C194.249 434.243 194.99 433.232 194.99 432.02V414.028C194.99 412.815 194.249 411.805 193.373 411.805Z" fill="#FD6A33"/>
<path d="M208.062 441.855H139.871C138.995 441.855 138.254 442.866 138.254 444.079V462.07C138.254 463.283 138.995 464.294 139.871 464.294H208.062C208.938 464.294 209.68 463.283 209.68 462.07V444.079C209.68 442.866 208.938 441.855 208.062 441.855Z" fill="#FF8C29"/>
<path d="M221 471.84H139.871C138.995 471.84 138.254 472.851 138.254 474.063V492.055C138.254 493.268 138.995 494.278 139.871 494.278H221C221.876 494.278 222.617 493.268 222.617 492.055V474.063C222.617 472.851 221.876 471.84 221 471.84Z" fill="#4ACFD9"/>
<path d="M139.332 411.798C138.726 411.798 138.254 412.809 138.254 414.021V432.013C138.254 433.226 138.726 434.236 139.332 434.236H168.037V411.73L139.332 411.798Z" fill="#F0353D"/>
<path d="M139.602 441.856C138.86 441.856 138.254 442.867 138.254 444.08V462.071C138.254 463.284 138.86 464.295 139.602 464.295H175.247V441.789L139.602 441.856Z" fill="#FD6A33"/>
<path d="M139.868 471.841C138.925 471.841 138.184 472.852 138.184 474.064V492.056C138.184 493.269 138.925 494.279 139.868 494.279H183.263V471.773L139.868 471.841Z" fill="#0295AA"/>
<path d="M244.45 192.336H143.578C142.702 192.336 141.961 193.347 141.961 194.56V212.551C141.961 213.764 142.702 214.774 143.578 214.774H244.45C245.326 214.774 246.067 213.764 246.067 212.551V194.627C246.067 193.347 245.326 192.336 244.45 192.336Z" fill="#FD6A33"/>
<path d="M244.72 222.32H143.578C142.702 222.32 141.961 223.331 141.961 224.544V242.535C141.961 243.748 142.702 244.759 143.578 244.759H244.72C245.596 244.759 246.337 243.748 246.337 242.535V224.611C246.337 223.331 245.596 222.32 244.72 222.32Z" fill="#FF8C29"/>
<path d="M245.326 252.371H143.578C142.702 252.371 141.961 253.382 141.961 254.595V272.586C141.961 273.799 142.702 274.81 143.578 274.81H245.326C246.202 274.81 246.943 273.799 246.943 272.586V254.595C246.943 253.382 246.202 252.371 245.326 252.371Z" fill="#4ACFD9"/>
<path d="M139.465 192.336C138.589 192.336 137.848 193.347 137.848 194.56V212.551C137.848 213.764 138.589 214.774 139.465 214.774H198.223V192.336H139.465Z" fill="#F0353D"/>
<path d="M139.465 222.32C138.589 222.32 137.848 223.331 137.848 224.544V242.535C137.848 243.748 138.589 244.759 139.465 244.759H198.223V222.32H139.465Z" fill="#FD6A33"/>
<path d="M139.465 252.376C138.589 252.376 137.848 253.387 137.848 254.6V272.591C137.848 273.804 138.589 274.814 139.465 274.814H198.223V252.309L139.465 252.376Z" fill="#0295AA"/>
<path d="M322.072 377.707H293.502C283.597 377.707 275.578 369.688 275.578 359.783V331.213C275.578 321.308 283.597 313.289 293.502 313.289H322.072C331.978 313.289 339.996 321.308 339.996 331.213V359.783C339.929 369.688 331.91 377.707 322.072 377.707Z" fill="#CDD4D5"/>
<path d="M299.096 354.73C295.525 351.159 295.525 345.162 299.096 341.591L359.337 281.35C362.908 277.779 368.905 277.779 372.476 281.35C376.048 284.922 376.048 290.919 372.476 294.49L312.236 354.73C308.597 358.302 302.668 358.302 299.096 354.73Z" fill="#F0353D"/>
<path d="M305.701 357.423C300.647 357.423 296.402 353.245 296.402 348.124V296.576C296.402 291.522 300.58 287.277 305.701 287.277C310.755 287.277 315 291.455 315 296.576V348.259C314.865 353.38 310.755 357.423 305.701 357.423Z" fill="#F0353D"/>
<path d="M244.45 302.777H143.578C142.702 302.777 141.961 303.788 141.961 305.001V322.992C141.961 324.205 142.702 325.216 143.578 325.216H244.45C245.326 325.216 246.067 324.205 246.067 322.992V305.001C246.067 303.788 245.326 302.777 244.45 302.777Z" fill="#FD6A33"/>
<path d="M244.72 332.762H143.578C142.702 332.762 141.961 333.772 141.961 334.985V352.977C141.961 354.189 142.702 355.2 143.578 355.2H244.72C245.596 355.2 246.337 354.189 246.337 352.977V334.985C246.337 333.772 245.596 332.762 244.72 332.762Z" fill="#FF8C29"/>
<path d="M245.326 362.746H143.578C142.702 362.746 141.961 363.757 141.961 364.97V382.961C141.961 384.174 142.702 385.185 143.578 385.185H245.326C246.202 385.185 246.943 384.174 246.943 382.961V364.97C246.943 363.757 246.202 362.746 245.326 362.746Z" fill="#4ACFD9"/>
<path d="M139.465 302.774C138.589 302.774 137.848 303.785 137.848 304.998V322.989C137.848 324.202 138.589 325.213 139.465 325.213H198.223V302.707L139.465 302.774Z" fill="#F0353D"/>
<path d="M139.465 332.762C138.589 332.762 137.848 333.772 137.848 334.985V352.977C137.848 354.189 138.589 355.2 139.465 355.2H198.223V332.762H139.465Z" fill="#FD6A33"/>
<path d="M139.465 362.747C138.589 362.747 137.848 363.758 137.848 364.971V382.962C137.848 384.175 138.589 385.186 139.465 385.186H198.223V362.68L139.465 362.747Z" fill="#0295AA"/>
<path d="M322.072 484.574H293.502C283.597 484.574 275.578 476.556 275.578 466.65V438.08C275.578 428.175 283.597 420.156 293.502 420.156H322.072C331.978 420.156 339.996 428.175 339.996 438.08V466.65C339.929 476.556 331.91 484.574 322.072 484.574Z" fill="#CDD4D5"/>
<path d="M310.281 443.54V512.001C312.033 512.001 313.785 511.327 315.065 510.047L383.526 441.586C384.807 440.306 385.48 438.621 385.48 436.802H317.02C313.381 436.735 310.281 439.767 310.281 443.54Z" fill="#9BAAAB"/>
<path d="M441 351L453.209 162H494.215C506.521 162 512 173.5 512 182L511.59 317.5L512 487.5C512 503.5 495.564 513 486.101 513H256V351H441Z" fill="#CDD4D5"/>
<path d="M71.2468 350.54L58.7034 161H17.0591C2.3349 161.858 -0.0037039 167.446 0 181.057V315.941V488.5C0 503 18 512 27.5956 512H256V351L71.2468 350.54Z" fill="#9EA8AA"/>
</g>
<defs>
<clipPath id="clip0_741_2789">
<rect width="512" height="512" fill="white"/>
</clipPath>
</defs>
</svg>
