<svg width="512" height="512" viewBox="0 0 512 512" fill="none" xmlns="http://www.w3.org/2000/svg">
<rect x="34" y="171" width="449" height="310" fill="white"/>
<rect x="120" width="35" height="96" rx="17.5" fill="#0295AA"/>
<rect x="356" width="35" height="96" rx="17.5" fill="#4ACFD9"/>
<path fill-rule="evenodd" clip-rule="evenodd" d="M256 38H177V82C177 102.435 160.435 119 140 119H135C114.565 119 98 102.435 98 82V38H64C28.6538 38 0 66.6538 0 102V448C0 483.346 28.6538 512 64 512H256V472H55C43.9543 472 35 463.046 35 452V175H256V38Z" fill="#0295AA"/>
<path fill-rule="evenodd" clip-rule="evenodd" d="M256 38H335V82C335 102.435 351.565 119 372 119H377C397.435 119 414 102.435 414 82V38H448C483.346 38 512 66.6538 512 102V448C512 483.346 483.346 512 448 512H256V472H457C468.046 472 477 463.046 477 452V175H256V38Z" fill="#4ACFD9"/>
<path d="M258.5 192C184.919 192 125 251.919 125 325.5C125 399.081 184.919 459 258.5 459C332.081 459 392 399.081 392 325.5C392 251.919 332.081 192 258.5 192Z" fill="#FF8C29"/>
<path d="M125 325.5C125 398.769 184.241 458.322 257.301 459V192C184.241 192.678 125 252.231 125 325.5Z" fill="#F0353D"/>
<path d="M258.187 212.65C257.874 212.65 257.509 212.65 257.196 212.65V437.619C257.509 437.619 257.874 437.619 258.187 437.619C320.192 437.619 370.671 387.139 370.671 325.135C370.671 263.13 320.244 212.65 258.187 212.65Z" fill="white"/>
<path d="M145.703 325.135C145.703 386.826 195.609 437.097 257.196 437.619V212.65C195.609 213.172 145.703 263.443 145.703 325.135Z" fill="#F5F5F5"/>
<path d="M276.804 425.104V224.332H257.196V425.104H276.804Z" fill="#BCD643"/>
<path d="M237.588 425.104H257.196V224.332H237.588V425.104Z" fill="#BCD643"/>
<path d="M357.582 343.909V304.745H257.196V343.909H357.582Z" fill="#BCD643"/>
<path d="M156.811 343.909H257.196V304.745H156.811V343.909Z" fill="#BCD643"/>
</svg>
