<svg width="512" height="512" viewBox="0 0 512 512" fill="none" xmlns="http://www.w3.org/2000/svg">
<path d="M402.5 305C345.454 305 299 351.454 299 408.5C299 465.546 345.454 512 402.5 512C459.546 512 506 465.546 506 408.5C506 351.454 459.546 305 402.5 305Z" fill="#FF8C29"/>
<path d="M299 408.5C299 465.304 344.928 511.474 401.57 512V305C344.928 305.526 299 351.696 299 408.5Z" fill="#F0353D"/>
<path d="M402.257 321.01C402.015 321.01 401.732 321.01 401.489 321.01V495.423C401.732 495.423 402.015 495.423 402.257 495.423C450.328 495.423 489.464 456.287 489.464 408.217C489.464 360.146 450.369 321.01 402.257 321.01Z" fill="white"/>
<path d="M315.051 408.217C315.051 456.045 353.742 495.019 401.489 495.423V321.01C353.742 321.414 315.051 360.388 315.051 408.217Z" fill="#F5F5F5"/>
<path d="M416.691 485.721V330.066H401.489V485.721H416.691Z" fill="#BCD643"/>
<path d="M386.288 485.721H401.489V330.066H386.288V485.721Z" fill="#BCD643"/>
<path d="M479.316 422.772V392.409H401.489V422.772H479.316Z" fill="#BCD643"/>
<path d="M323.662 422.772H401.489V392.409H323.662V422.772Z" fill="#BCD643"/>
<path d="M195.5 305C138.454 305 92 351.454 92 408.5C92 465.546 138.454 512 195.5 512C252.546 512 299 465.546 299 408.5C299 351.454 252.546 305 195.5 305Z" fill="#0295AA"/>
<path d="M92 408.5C92 465.304 137.928 511.474 194.57 512V305C137.928 305.526 92 351.696 92 408.5Z" fill="#365558"/>
<path d="M195.257 321.01C195.015 321.01 194.732 321.01 194.489 321.01V495.423C194.732 495.423 195.015 495.423 195.257 495.423C243.328 495.423 282.464 456.287 282.464 408.217C282.464 360.146 243.369 321.01 195.257 321.01Z" fill="white"/>
<path d="M108.051 408.217C108.051 456.045 146.742 495.019 194.489 495.423V321.01C146.742 321.414 108.051 360.388 108.051 408.217Z" fill="#F5F5F5"/>
<path d="M272.316 422.772V392.409H194.489V422.772H272.316Z" fill="#F0353D"/>
<path d="M116.662 422.772H194.489V392.409H116.662V422.772Z" fill="#F0353D"/>
<path d="M52.3318 103.519L105.54 50.311C108.296 47.5565 112.762 47.5565 115.517 50.311L296.427 231.219C296.778 231.571 297.091 231.958 297.361 232.375L355.891 322.831C357.698 325.623 357.308 329.299 354.957 331.651L333.673 352.935C332.31 354.297 330.504 355 328.681 355C327.359 355 326.027 354.628 324.852 353.869L234.397 295.338C233.98 295.069 233.592 294.755 233.241 294.405L52.3308 113.496C49.5763 110.741 49.5763 106.275 52.3318 103.519Z" fill="#CDD4D5"/>
<path d="M15.085 13.065C32.5059 -4.35499 60.8495 -4.35499 78.2714 13.065L120.838 55.632C123.593 58.3874 123.593 62.8537 120.838 65.6092L67.6302 118.817C66.2524 120.194 64.4463 120.883 62.6411 120.883C60.8359 120.883 59.0297 120.194 57.652 118.817L15.085 76.2504C6.64617 67.8116 1.99981 56.592 1.99981 44.6577C1.99981 32.7224 6.64714 21.5038 15.085 13.065Z" fill="#FF8C29"/>
<path d="M73.2819 57.0335C75.0871 57.0335 76.8933 56.3451 78.271 54.9684C81.0255 52.2129 81.0255 47.7466 78.271 44.9912L62.3077 29.0278C59.5522 26.2733 55.0859 26.2733 52.3304 29.0278C49.5749 31.7833 49.5749 36.2495 52.3304 39.005L68.2928 54.9684C69.6706 56.3442 71.4767 57.0335 73.2819 57.0335Z" fill="white"/>
<path d="M20.4051 124.802L126.824 18.3833C129.58 15.6288 134.045 15.6288 136.801 18.3833L163.404 44.9869C166.159 47.7424 166.159 52.2086 163.404 54.9641L56.9869 161.383C55.6092 162.759 53.804 163.448 51.9978 163.448C50.1926 163.448 48.3864 162.759 47.0097 161.383L20.4051 134.779C19.0818 133.456 18.339 131.662 18.339 129.79C18.3399 127.918 19.0828 126.125 20.4051 124.802Z" fill="#FD6A33"/>
<path d="M73.4074 71.8008L109.989 108.383L56.9884 161.383C55.6106 162.76 53.8055 163.449 51.9993 163.449C50.1941 163.449 48.388 162.76 47.0112 161.383L20.4066 134.78C19.0834 133.457 18.3404 131.663 18.3404 129.791C18.3404 127.92 19.0834 126.126 20.4056 124.802L73.4074 71.8008Z" fill="#F0353D"/>
<path d="M264.833 248.583C266.639 248.583 268.445 247.895 269.821 246.518C272.577 243.763 272.577 239.296 269.822 236.541L248.539 215.257C245.783 212.502 241.316 212.502 238.563 215.256C235.807 218.012 235.807 222.478 238.562 225.232L259.845 246.516C261.222 247.895 263.028 248.583 264.833 248.583Z" fill="white"/>
<path d="M222.267 206.015C224.072 206.015 225.878 205.327 227.256 203.95C230.012 201.194 230.012 196.728 227.256 193.973L152.765 119.481C150.009 116.725 145.543 116.727 142.788 119.481C140.033 122.236 140.033 126.703 142.788 129.458L217.279 203.95C218.656 205.327 220.462 206.015 222.267 206.015Z" fill="white"/>
</svg>
