<svg width="512" height="512" viewBox="0 0 512 512" fill="none" xmlns="http://www.w3.org/2000/svg">
<rect x="110" y="140" width="368" height="255" fill="white"/>
<rect x="180" width="29" height="79" rx="14.5" fill="#0295AA"/>
<rect x="374" width="29" height="79" rx="14.5" fill="#4ACFD9"/>
<path fill-rule="evenodd" clip-rule="evenodd" d="M292 31.1719H227.195V65.2148C227.195 83.1102 212.688 97.6172 194.793 97.6172C176.898 97.6172 162.391 83.1102 162.391 65.2148V31.1719H146C110.654 31.1719 82 59.8257 82 95.1719V356C82 391.346 110.654 420 146 420H292V387.188H130.711C119.665 387.188 110.711 378.233 110.711 367.188V143.555H292V31.1719Z" fill="#0295AA"/>
<path fill-rule="evenodd" clip-rule="evenodd" d="M292 31.1719H356.805V65.2148C356.805 83.1102 371.312 97.6172 389.207 97.6172C407.102 97.6172 421.609 83.1102 421.609 65.2148V31.1719H438C473.346 31.1719 502 59.8257 502 95.1719V356C502 391.346 473.346 420 438 420H292V387.188H453.289C464.335 387.188 473.289 378.233 473.289 367.188V143.555H292V31.1719Z" fill="#4ACFD9"/>
<path d="M125 362.504L140.323 377.826L151.057 367.179C150.97 367.092 150.797 366.919 150.71 366.832C149.672 365.967 148.719 365.014 147.681 364.149C147.161 363.716 146.728 363.283 146.209 362.764C145.43 362.071 144.651 361.292 143.958 360.6C143.439 360.08 142.833 359.474 142.314 358.955C141.534 358.176 140.842 357.397 140.063 356.618C139.63 356.185 139.197 355.665 138.764 355.232C137.812 354.194 136.946 353.241 135.994 352.203C135.908 352.116 135.821 351.943 135.648 351.856L125 362.504Z" fill="#365558"/>
<path d="M138.764 355.146C139.197 355.579 139.63 356.099 140.063 356.531C140.842 357.31 141.534 358.09 142.313 358.869C142.833 359.388 143.439 359.994 143.958 360.513C144.737 361.292 145.43 361.985 146.209 362.677C146.728 363.11 147.161 363.543 147.68 364.063C148.633 365.015 149.671 365.88 150.71 366.746C150.797 366.833 150.97 366.919 151.056 367.092L163.002 355.146L147.68 339.824L135.734 351.77C135.821 351.857 135.907 352.03 136.081 352.117C136.946 353.155 137.812 354.194 138.764 355.146Z" fill="#365558"/>
<path d="M151.057 367.179C150.97 367.093 150.797 366.92 150.71 366.833C150.797 366.92 150.97 367.093 151.057 367.179Z" fill="#365558"/>
<path d="M252.857 387.954C328.862 387.954 390.843 325.973 390.843 249.969C390.843 173.964 328.948 111.983 252.857 111.983C176.766 111.983 114.872 173.964 114.872 249.969C114.872 325.973 176.853 387.954 252.857 387.954ZM145.17 250.055C145.17 190.671 193.474 142.368 252.857 142.368C312.241 142.368 360.545 190.671 360.545 250.055C360.545 309.439 312.241 357.743 252.857 357.743C193.56 357.743 145.257 309.353 145.17 250.055Z" fill="#365558"/>
<path d="M149.239 401.718C153.48 397.477 153.48 390.638 149.239 386.396L116.517 353.675C114.526 351.597 111.756 350.472 108.899 350.472C106.042 350.472 103.272 351.597 101.281 353.675L3.11619 451.753C1.12518 453.831 -0.000171283 456.514 -0.000170874 459.458C-0.000170477 462.314 1.12519 465.084 3.20276 467.075L35.9245 499.797C38.0021 501.961 40.7722 503 43.5422 503C46.2258 503 49.0824 501.961 51.16 499.797L149.239 401.718Z" fill="#4ACFD9"/>
<path d="M103.013 397.91C107.254 393.668 107.254 386.829 103.013 382.588C98.7709 378.346 91.9322 378.346 87.6905 382.588L35.6647 434.613C31.423 438.855 31.423 445.694 35.6647 449.935C37.7422 452.013 40.5989 453.138 43.369 453.138C46.1391 453.138 48.9092 452.1 50.9867 449.935L103.013 397.91Z" fill="white"/>
<path d="M189.145 204.175C190.79 205.301 192.608 205.56 194.685 205.301C197.109 204.954 199.273 203.656 200.658 201.319C208.016 189.2 220.222 180.889 234.246 178.725C238.747 178.033 241.95 173.618 241.344 169.116C240.651 164.615 236.236 161.412 231.735 162.018C212.691 164.961 196.157 176.042 186.288 192.489C183.864 196.558 185.163 201.752 189.145 204.175Z" fill="white"/>
<path d="M405.5 310C352.312 310 309 353.312 309 406.5C309 459.688 352.312 503 405.5 503C458.688 503 502 459.688 502 406.5C502 353.312 458.688 310 405.5 310Z" fill="#FF8C29"/>
<path d="M309 406.5C309 459.462 351.822 502.51 404.633 503V310C351.822 310.49 309 353.538 309 406.5Z" fill="#F0353D"/>
<path d="M405.274 324.928C405.048 324.928 404.784 324.928 404.558 324.928V487.545C404.784 487.545 405.048 487.545 405.274 487.545C450.094 487.545 486.583 451.056 486.583 406.237C486.583 361.417 450.131 324.928 405.274 324.928Z" fill="white"/>
<path d="M323.965 406.237C323.965 450.83 360.039 487.168 404.557 487.545V324.928C360.039 325.305 323.965 361.643 323.965 406.237Z" fill="#F5F5F5"/>
<path d="M418.731 478.498V333.371H404.558V478.498H418.731Z" fill="#BCD643"/>
<path d="M390.384 478.498H404.558V333.371H390.384V478.498Z" fill="#BCD643"/>
<path d="M477.121 419.806V391.497H404.558V419.806H477.121Z" fill="#BCD643"/>
<path d="M331.994 419.806H404.558V391.497H331.994V419.806Z" fill="#BCD643"/>
<path d="M252.5 146C195.454 146 149 192.454 149 249.5C149 306.546 195.454 353 252.5 353C309.546 353 356 306.546 356 249.5C356 192.454 309.546 146 252.5 146Z" fill="#0295AA"/>
<path d="M149 249.5C149 306.304 194.928 352.474 251.57 353V146C194.928 146.526 149 192.696 149 249.5Z" fill="#365558"/>
<path d="M252.257 162.01C252.015 162.01 251.732 162.01 251.489 162.01V336.423C251.732 336.423 252.015 336.423 252.257 336.423C300.328 336.423 339.464 297.287 339.464 249.217C339.464 201.146 300.369 162.01 252.257 162.01Z" fill="#E6EAEA"/>
<path d="M165.051 249.217C165.051 297.045 203.742 336.019 251.489 336.423V162.01C203.742 162.414 165.051 201.388 165.051 249.217Z" fill="#C4C4C4"/>
<path d="M329.316 263.772V233.409H251.489V263.772H329.316Z" fill="#F0353D"/>
<path d="M173.662 263.772H251.489V233.409H173.662V263.772Z" fill="#F0353D"/>
</svg>
