<svg width="512" height="512" viewBox="0 0 512 512" fill="none" xmlns="http://www.w3.org/2000/svg">
<rect x="64" y="147" width="382" height="269" fill="white"/>
<rect x="137" width="29" height="83" rx="14.5" fill="#0295AA"/>
<rect x="339" width="30" height="83" rx="15" fill="#4ACFD9"/>
<path fill-rule="evenodd" clip-rule="evenodd" d="M253.358 32.7471H185.974V68.9359C185.974 87.5435 170.89 102.628 152.282 102.628C133.674 102.628 118.59 87.5435 118.59 68.9359V32.7471H99C63.6538 32.7471 35 61.4008 35 96.747V377.678C35 413.025 63.6538 441.678 99 441.678H407.717C407.908 441.678 408.098 441.678 408.289 441.676H253.358V407.169H84.8538C73.8081 407.169 64.8538 398.215 64.8538 387.169V150.94H253.358V32.7471Z" fill="#0295AA"/>
<path fill-rule="evenodd" clip-rule="evenodd" d="M253.358 32.7471H320.743V68.9359C320.743 87.5435 335.827 102.628 354.435 102.628C373.042 102.628 388.127 87.5435 388.127 68.9359V32.7471H407.717C443.063 32.7471 471.717 61.4008 471.717 96.747V377.678C471.717 413.025 443.063 441.678 407.717 441.678H99.0001C98.8092 441.678 98.6186 441.678 98.4281 441.676H253.358V407.169H421.864C432.909 407.169 441.864 398.215 441.864 387.169V150.94H253.358V32.7471Z" fill="#4ACFD9"/>
<path d="M171 177C147.3 177 128 196.524 128 220.5C128 244.476 147.3 264 171 264C194.7 264 214 244.476 214 220.5C214 196.524 194.7 177 171 177Z" fill="#0295AA"/>
<path d="M128 220.5C128 244.374 147.081 263.779 170.614 264V177C147.081 177.221 128 196.626 128 220.5Z" fill="#365558"/>
<path d="M170.899 183.729C170.798 183.729 170.681 183.729 170.58 183.729V257.033C170.681 257.033 170.798 257.033 170.899 257.033C190.871 257.033 207.13 240.584 207.13 220.381C207.13 200.177 190.887 183.729 170.899 183.729Z" fill="white"/>
<path d="M134.668 220.381C134.668 240.482 150.743 256.863 170.58 257.033V183.729C150.743 183.898 134.668 200.279 134.668 220.381Z" fill="#F5F5F5"/>
<path d="M202.914 226.498V213.737H170.58V226.498H202.914Z" fill="#F0353D"/>
<path d="M138.246 226.498H170.58V213.737H138.246V226.498Z" fill="#F0353D"/>
<path d="M353.5 385C331.729 385 314 367.271 314 345.5C314 323.729 331.729 306 353.5 306C375.271 306 393 323.729 393 345.5C393 367.271 375.271 385 353.5 385Z" fill="#FF8C29"/>
<path d="M314 345.5C314 323.821 331.528 306.201 353.145 306V385C331.528 384.799 314 367.179 314 345.5Z" fill="#F0353D"/>
<path d="M353.407 378.89C353.315 378.89 353.207 378.89 353.114 378.89V312.326C353.207 312.326 353.315 312.326 353.407 312.326C371.753 312.326 386.689 327.262 386.689 345.608C386.689 363.954 371.769 378.89 353.407 378.89Z" fill="white"/>
<path d="M320.125 345.608C320.125 327.354 334.892 312.48 353.114 312.326V378.89C334.892 378.735 320.125 363.861 320.125 345.608Z" fill="#F5F5F5"/>
<path d="M358.916 316.029V375.434H353.114V316.029H358.916Z" fill="#BCD643"/>
<path d="M347.312 316.029H353.114V375.434H347.312V316.029Z" fill="#BCD643"/>
<path d="M382.816 340.053V351.641H353.114V340.053H382.816Z" fill="#BCD643"/>
<path d="M323.412 340.053H353.114V351.641H323.412V340.053Z" fill="#BCD643"/>
<path d="M163.5 298C139.524 298 120 317.524 120 341.5C120 365.476 139.524 385 163.5 385C187.476 385 207 365.476 207 341.5C207 317.524 187.476 298 163.5 298Z" fill="#FF8C29"/>
<path d="M120 341.5C120 365.374 139.303 384.779 163.109 385V298C139.303 298.221 120 317.626 120 341.5Z" fill="#F0353D"/>
<path d="M163.398 304.729C163.296 304.729 163.177 304.729 163.075 304.729V378.033C163.177 378.033 163.296 378.033 163.398 378.033C183.602 378.033 200.05 361.584 200.05 341.381C200.05 321.177 183.619 304.729 163.398 304.729Z" fill="white"/>
<path d="M126.746 341.381C126.746 361.482 143.008 377.863 163.075 378.033V304.729C143.008 304.898 126.746 321.279 126.746 341.381Z" fill="#F5F5F5"/>
<path d="M169.464 373.955V308.535H163.075V373.955H169.464Z" fill="#BCD643"/>
<path d="M156.686 373.955H163.075V308.535H156.686V373.955Z" fill="#BCD643"/>
<path d="M195.785 347.498V334.737H163.075V347.498H195.785Z" fill="#BCD643"/>
<path d="M130.365 347.498H163.075V334.737H130.365V347.498Z" fill="#BCD643"/>
<path d="M350 264C326.3 264 307 244.476 307 220.5C307 196.524 326.3 177 350 177C373.7 177 393 196.524 393 220.5C393 244.476 373.7 264 350 264Z" fill="#0295AA"/>
<path d="M307 220.5C307 196.626 326.081 177.221 349.614 177V264C326.081 263.779 307 244.374 307 220.5Z" fill="#365558"/>
<path d="M349.899 257.271C349.798 257.271 349.681 257.271 349.58 257.271V183.967C349.681 183.967 349.798 183.967 349.899 183.967C369.871 183.967 386.13 200.416 386.13 220.619C386.13 240.823 369.887 257.271 349.899 257.271Z" fill="white"/>
<path d="M313.668 220.619C313.668 200.518 329.743 184.137 349.58 183.967V257.271C329.743 257.102 313.668 240.721 313.668 220.619Z" fill="#F5F5F5"/>
<path d="M381.914 214.502V227.263H349.58V214.502H381.914Z" fill="#F0353D"/>
<path d="M317.246 214.502H349.58V227.263H317.246V214.502Z" fill="#F0353D"/>
<path d="M407 300C349.127 300 302 347.576 302 406C302 464.424 349.127 512 407 512C464.873 512 512 464.424 512 406C512 347.576 464.873 300 407 300Z" fill="#FF8C29"/>
<path d="M302 406C302 464.176 348.594 511.462 406.057 512V300C348.594 300.538 302 347.824 302 406Z" fill="#F0353D"/>
<path d="M406.754 316.396C406.508 316.396 406.221 316.396 405.975 316.396V495.023C406.221 495.023 406.508 495.023 406.754 495.023C455.521 495.023 495.225 454.942 495.225 405.71C495.225 356.478 455.562 316.396 406.754 316.396Z" fill="white"/>
<path d="M318.283 405.71C318.283 454.693 357.535 494.609 405.975 495.023V316.396C357.535 316.811 318.283 356.726 318.283 405.71Z" fill="#F5F5F5"/>
<path d="M421.396 485.086V325.672H405.975V485.086H421.396Z" fill="#BCD643"/>
<path d="M390.553 485.086H405.975V325.672H390.553V485.086Z" fill="#BCD643"/>
<path d="M484.93 420.617V389.521H405.975V420.617H484.93Z" fill="#BCD643"/>
<path d="M327.02 420.617H405.975V389.521H327.02V420.617Z" fill="#BCD643"/>
</svg>
