<svg width="512" height="512" viewBox="0 0 512 512" fill="none" xmlns="http://www.w3.org/2000/svg">
<g clip-path="url(#clip0_229_469)">
<g clip-path="url(#clip1_229_469)">
<path d="M378.714 245C452.296 245 512.214 304.919 512.214 378.5C512.214 452.081 452.296 512 378.714 512C305.133 512 245.214 452.081 245.214 378.5C245.214 304.919 305.133 245 378.714 245Z" fill="#FF8C29"/>
<path d="M512.214 378.5C512.214 451.769 452.974 511.322 379.914 512V245C452.974 245.678 512.214 305.231 512.214 378.5Z" fill="#F0353D"/>
<path d="M379.027 265.65C379.34 265.65 379.705 265.65 380.018 265.65V490.619C379.705 490.619 379.34 490.619 379.027 490.619C317.023 490.619 266.543 440.139 266.543 378.135C266.543 316.13 316.971 265.65 379.027 265.65Z" fill="white"/>
<path d="M491.511 378.135C491.511 439.826 441.605 490.097 380.018 490.619V265.65C441.605 266.172 491.511 316.443 491.511 378.135Z" fill="#F5F5F5"/>
<path d="M360.41 478.104V277.332H380.018V478.104H360.41Z" fill="#BCD643"/>
<path d="M399.626 478.104H380.018V277.332H399.626V478.104Z" fill="#BCD643"/>
<path d="M279.632 396.909V357.745H380.018V396.909H279.632Z" fill="#BCD643"/>
<path d="M480.404 396.909H380.018V357.745H480.404V396.909Z" fill="#BCD643"/>
</g>
<path d="M50.3318 103.519L103.54 50.311C106.296 47.5565 110.762 47.5565 113.517 50.311L294.427 231.219C294.778 231.571 295.091 231.958 295.361 232.375L353.891 322.831C355.698 325.623 355.308 329.299 352.957 331.651L331.673 352.935C330.31 354.297 328.504 355 326.681 355C325.359 355 324.027 354.628 322.852 353.869L232.397 295.338C231.98 295.069 231.592 294.755 231.241 294.405L50.3308 113.496C47.5763 110.741 47.5763 106.275 50.3318 103.519Z" fill="#CDD4D5"/>
<path d="M13.085 13.065C30.5059 -4.35499 58.8495 -4.35499 76.2714 13.065L118.838 55.632C121.593 58.3874 121.593 62.8537 118.838 65.6092L65.6302 118.817C64.2524 120.194 62.4463 120.883 60.6411 120.883C58.8359 120.883 57.0297 120.194 55.652 118.817L13.085 76.2504C4.64617 67.8116 -0.000190232 56.592 -0.000190232 44.6577C-0.000190232 32.7224 4.64714 21.5038 13.085 13.065Z" fill="#FF8C29"/>
<path d="M71.2819 57.0335C73.0871 57.0335 74.8933 56.3451 76.271 54.9684C79.0255 52.2129 79.0255 47.7466 76.271 44.9912L60.3077 29.0278C57.5522 26.2733 53.0859 26.2733 50.3304 29.0278C47.5749 31.7833 47.5749 36.2495 50.3304 39.005L66.2928 54.9684C67.6706 56.3442 69.4767 57.0335 71.2819 57.0335Z" fill="white"/>
<path d="M18.4051 124.802L124.824 18.3833C127.58 15.6288 132.045 15.6288 134.801 18.3833L161.404 44.9869C164.159 47.7424 164.159 52.2086 161.404 54.9641L54.9869 161.383C53.6092 162.759 51.804 163.448 49.9978 163.448C48.1926 163.448 46.3864 162.759 45.0097 161.383L18.4051 134.779C17.0818 133.456 16.339 131.662 16.339 129.79C16.3399 127.918 17.0828 126.125 18.4051 124.802Z" fill="#FD6A33"/>
<path d="M71.4074 71.8008L107.989 108.383L54.9884 161.383C53.6106 162.76 51.8055 163.449 49.9993 163.449C48.1941 163.449 46.388 162.76 45.0112 161.383L18.4066 134.78C17.0834 133.457 16.3404 131.663 16.3404 129.791C16.3404 127.92 17.0834 126.126 18.4056 124.802L71.4074 71.8008Z" fill="#F0353D"/>
<path d="M262.833 248.583C264.639 248.583 266.445 247.895 267.821 246.518C270.577 243.763 270.577 239.296 267.822 236.541L246.539 215.257C243.783 212.502 239.316 212.502 236.563 215.256C233.807 218.012 233.807 222.478 236.562 225.232L257.845 246.516C259.222 247.895 261.028 248.583 262.833 248.583Z" fill="white"/>
<path d="M220.267 206.015C222.072 206.015 223.878 205.327 225.256 203.95C228.012 201.194 228.012 196.728 225.256 193.973L150.765 119.481C148.009 116.725 143.543 116.727 140.788 119.481C138.033 122.236 138.033 126.703 140.788 129.458L215.279 203.95C216.656 205.327 218.462 206.015 220.267 206.015Z" fill="white"/>
</g>
<defs>
<clipPath id="clip0_229_469">
<rect width="512" height="512" fill="white"/>
</clipPath>
<clipPath id="clip1_229_469">
<rect width="267" height="267" fill="white" transform="matrix(-1 0 0 1 512.214 245)"/>
</clipPath>
</defs>
</svg>
