<?xml version="1.0" encoding="utf-8"?>
<!-- Generator: Adobe Illustrator 19.0.0, SVG Export Plug-In . SVG Version: 6.00 Build 0)  -->
<svg version="1.1" id="Layer_1" xmlns="http://www.w3.org/2000/svg" xmlns:xlink="http://www.w3.org/1999/xlink" x="0px" y="0px"
	 viewBox="96 11 512 512" style="enable-background:new 96 11 512 512;" xml:space="preserve">
<style type="text/css">
	.st0{display:none;}
	.st1{display:inline;}
	.st2{display:none;fill:#FFFFFF;}
	.st3{display:none;fill:#FFFFFF;enable-background:new    ;}
	.st4{font-family:'SegoeUIBlack';}
	.st5{font-size:317.871px;}
	.st6{display:none;fill:#365558;enable-background:new    ;}
	.st7{font-size:278.7243px;}
	.st8{fill:#F0353D;}
	.st9{fill:#FD6A33;}
	.st10{fill:#FF8C29;}
	.st11{fill:#FFD1A9;}
	.st12{fill:#365558;}
	.st13{fill:#0295AA;}
	.st14{fill:#4ACFD9;}
	.st15{fill:#9BAAAB;}
	.st16{fill:#CDD4D5;}
	.st17{fill:#E6EAEA;}
	.st18{fill:#FFFFFF;}
	.st19{fill:#BCD643;}
	.st20{fill:none;}
	.st21{font-size:422.6153px;}
</style>
<g id="Layer_3" class="st0">
	<path class="st1" d="M2774.7,110.1c-44.6-34.5-86.6-67.1-161.3-67.1c-19.3,0-36.6,2.5-52.4,7v205.8h512v-97.6
		c-31.9,14-69.9,24.6-120.5,24.6C2868.5,182.8,2820.8,145.9,2774.7,110.1z"/>
	<path class="st1" d="M2789.4,91.2c44.9,34.8,87.3,67.6,163.1,67.6c51.6,0,88.6-11.7,120.5-27V-257h-512V25.3
		c16.8-4.2,34.3-6.3,52.4-6.3C2696.3,19,2743.6,55.7,2789.4,91.2z"/>
	<path class="st1" d="M2952.5,158.8c-75.8,0-118.2-32.9-163.1-67.7c-45.8-35.5-93.1-72.2-176-72.2c-18.2,0-35.6,2.1-52.4,6.3v24.7
		c15.8-4.5,33.1-7,52.4-7c74.6,0,116.7,32.6,161.3,67.1c46.1,35.7,93.8,72.7,177.8,72.7c50.5,0,88.6-10.6,120.5-24.6v-26.4
		C3041.2,147.1,3004.2,158.8,2952.5,158.8z"/>
</g>
<g id="Layer_5" class="st0">
</g>
<path class="st2" d="M544,445c-86,0-156-70-156-156s70-156,156-156s156,70,156,156S630,445,544,445z"/>
<text transform="matrix(1 0 0 1 290.7202 387.1513)" class="st3 st4 st5">M</text>
<text transform="matrix(1 0 0 1 466.0356 386.4248)" class="st6 st4 st7">L</text>
<rect x="-434" y="22" class="st8" width="128" height="128"/>
<rect x="-306" y="22" class="st9" width="128" height="128"/>
<rect x="-178" y="22" class="st10" width="128" height="128"/>
<rect x="-50" y="22" class="st11" width="128" height="128"/>
<rect x="-434" y="150" class="st12" width="128" height="128"/>
<rect x="-306" y="150" class="st13" width="128" height="128"/>
<rect x="-178" y="150" class="st14" width="128" height="128"/>
<rect x="-434" y="278" class="st15" width="128" height="128"/>
<rect x="-306" y="278" class="st16" width="128" height="128"/>
<rect x="-178" y="278" class="st17" width="128" height="128"/>
<rect x="-50" y="278" class="st18" width="128" height="128"/>
<rect x="-434" y="406" class="st19" width="128" height="128"/>
<path class="st11" d="M600.9,966L397.7,614.1c-10.2-17.6-27.9-26.4-45.7-26.4v104.7h45.6l-10.9,196.3H352V911
	c14.6,0,26.4,3.8,35.4,11.3c9,7.5,13.5,17.3,13.5,29.4c0,12.3-4.4,22.3-13.3,30.1c-8.9,7.8-20.7,11.8-35.6,11.8v51.5h203.2
	C595.8,1045.1,621.2,1001.2,600.9,966z"/>
<path class="st10" d="M302.9,951.7c0-12.1,4.4-21.9,13.3-29.4c8.9-7.5,20.8-11.3,35.8-11.3v-22.3h-35.9l-11.1-196.3H352V587.7
	c-17.8,0-35.5,8.8-45.7,26.4L103.1,966c-20.3,35.2,5.1,79.1,45.7,79.1H352v-51.5c-14.5,0-26.3-4-35.4-12
	C307.4,973.6,302.9,963.7,302.9,951.7z"/>
<g>
	<path class="st12" d="M352,609.7c11.1,0,21.1,5.7,26.6,15.4L581.8,977c5.6,9.6,5.6,21.1,0,30.8c-5.6,9.6-15.5,15.4-26.6,15.4H148.8
		c-11.1,0-21.1-5.7-26.6-15.4c-5.6-9.6-5.6-21.1,0-30.8l203.2-351.9C330.9,615.5,340.9,609.7,352,609.7 M352,587.7
		c-17.8,0-35.5,8.8-45.7,26.4L103.1,966c-20.3,35.2,5.1,79.1,45.7,79.1h406.3c40.6,0,66-44,45.7-79.1L397.7,614.1
		C387.5,596.5,369.8,587.7,352,587.7L352,587.7z"/>
</g>
<text transform="matrix(1 0 0 1 273.4541 988.2084)" class="st12 st4 st21">!</text>
<path class="st8" d="M1065.2,323.4c-2.9,9.4-4.7,15.1-5.6,17.2c-0.8,2.1-8.9,19.8-24.1,52.9H935l70.2-106.5l-66-104.8h101.5
	l22.7,49.1c1.2,2.3,2.5,4.9,3.7,7.9V11H961L811,161V373l150,150h106V326.3c-0.3-0.9-0.7-1.9-1-2.8H1065.2z"/>
<path class="st20" d="M1130.6,281.1l68.1,112.5h-101.1l-22.7-48.1c-2.6-5.4-5.6-12.7-8.9-22.1h-0.8c-2.9,9.4-4.7,15.1-5.6,17.2
	c-0.8,2.1-8.9,19.8-24.1,52.9H935l70.2-106.5l-66-104.8h101.5l22.7,49.1c3,5.6,6.1,13.3,9.1,23.1h0.8c4-12,6.8-19.8,8.5-23.5
	l21.5-48.7h96L1130.6,281.1z"/>
<path class="st20" d="M1130.6,281.1l68.1,112.5h-101.1l-22.7-48.1c-2.6-5.4-5.6-12.7-8.9-22.1h-0.8c-2.9,9.4-4.7,15.1-5.6,17.2
	c-0.8,2.1-8.9,19.8-24.1,52.9H935l70.2-106.5l-66-104.8h101.5l22.7,49.1c3,5.6,6.1,13.3,9.1,23.1h0.8c4-12,6.8-19.8,8.5-23.5
	l21.5-48.7h96L1130.6,281.1z"/>
<path class="st9" d="M1173,11h-106v228.3c1.8,4.3,3.6,9.4,5.4,15.2h0.8c4-12,6.8-19.8,8.5-23.5l21.5-48.7h96l-68.5,98.8l68.1,112.5
	h-101.1l-22.7-48.1c-2.3-4.8-5-11.2-7.9-19.3V523h106l150-150V161L1173,11z"/>
<g>
	<path class="st12" d="M1164.3,32L1302,169.7v194.7L1164.3,502H969.7L832,364.3V169.7L969.7,32H1164.3 M1173,11H961L811,161V373
		l150,150H1173l150-150V161L1173,11L1173,11z"/>
</g>
<g>
	<circle class="st14" cx="352" cy="267" r="256"/>
</g>
<g>
	<path class="st12" d="M352,32c31.7,0,62.5,6.2,91.5,18.5c28,11.8,53.1,28.8,74.7,50.4c21.6,21.6,38.5,46.7,50.4,74.7
		c12.2,29,18.5,59.7,18.5,91.5s-6.2,62.5-18.5,91.5c-11.8,28-28.8,53.1-50.4,74.7c-21.6,21.6-46.7,38.5-74.7,50.4
		c-29,12.2-59.7,18.5-91.5,18.5s-62.5-6.2-91.5-18.5c-28-11.8-53.1-28.8-74.7-50.4c-21.6-21.6-38.5-46.7-50.4-74.7
		c-12.2-29-18.5-59.7-18.5-91.5s6.2-62.5,18.5-91.5c11.8-28,28.8-53.1,50.4-74.7c21.6-21.6,46.7-38.5,74.7-50.4
		C289.5,38.2,320.3,32,352,32 M352,11C210.6,11,96,125.6,96,267s114.6,256,256,256s256-114.6,256-256S493.4,11,352,11L352,11z"/>
</g>
<text transform="matrix(1 0 0 1 286.895 423.5991)" class="st18 st4 st21">i</text>
</svg>
