<?xml version="1.0" encoding="utf-8"?>
<!-- Generator: Adobe Illustrator 19.0.0, SVG Export Plug-In . SVG Version: 6.00 Build 0)  -->
<svg version="1.1" id="Layer_1" xmlns="http://www.w3.org/2000/svg" xmlns:xlink="http://www.w3.org/1999/xlink" x="0px" y="0px"
	 viewBox="96 11 512 512" style="enable-background:new 96 11 512 512;" xml:space="preserve">
<style type="text/css">
	.st0{display:none;}
	.st1{fill:#F0353D;}
	.st2{fill:#FD6A33;}
	.st3{fill:#FF8C29;}
	.st4{fill:#FFD1A9;}
	.st5{fill:#365558;}
	.st6{fill:#0295AA;}
	.st7{fill:#4ACFD9;}
	.st8{fill:#9BAAAB;}
	.st9{fill:#CDD4D5;}
	.st10{fill:#E6EAEA;}
	.st11{fill:#FFFFFF;}
	.st12{fill:#BCD643;}
</style>
<polygon class="st0" points="1260.7,-574 1002,-574 1002,-62 1514,-62 1514,-225.9 1260.7,-225.9 "/>
<rect x="1260.7" y="-574" class="st0" width="253.3" height="348.1"/>
<g class="st0">
	
		<text transform="matrix(1 0 0 1 1038.4224 -443.0488)" style="display:inline;fill:#CDD4D5; font-family:'Saira-Black'; font-size:64.1866px;">E = mc</text>
	
		<text transform="matrix(1 0 0 1 1231.1074 -464.4227)" style="display:inline;fill:#CDD4D5; font-family:'Saira-Black'; font-size:37.4208px;">2</text>
</g>
<rect x="96" y="11" class="st1" width="128" height="128"/>
<rect x="224" y="11" class="st2" width="128" height="128"/>
<rect x="352" y="11" class="st3" width="128" height="128"/>
<rect x="480" y="11" class="st4" width="128" height="128"/>
<rect x="96" y="139" class="st5" width="128" height="128"/>
<rect x="224" y="139" class="st6" width="128" height="128"/>
<rect x="352" y="139" class="st7" width="128" height="128"/>
<rect x="96" y="267" class="st8" width="128" height="128"/>
<rect x="224" y="267" class="st9" width="128" height="128"/>
<rect x="352" y="267" class="st10" width="128" height="128"/>
<rect x="480" y="267" class="st11" width="128" height="128"/>
<rect x="96" y="395" class="st12" width="128" height="128"/>
</svg>
