<?xml version="1.0" encoding="utf-8"?>
<!-- Generator: Adobe Illustrator 19.0.0, SVG Export Plug-In . SVG Version: 6.00 Build 0)  -->
<svg version="1.1" id="Layer_1" xmlns="http://www.w3.org/2000/svg" xmlns:xlink="http://www.w3.org/1999/xlink" x="0px" y="0px"
	 viewBox="206 -206 512 512" style="enable-background:new 206 -206 512 512;" xml:space="preserve">
<style type="text/css">
	.st0{display:none;}
	.st1{display:inline;}
	.st2{display:none;fill:#FFFFFF;}
	.st3{fill:#BCD643;}
</style>
<g id="Layer_3" class="st0">
	<rect x="1236" y="-1236.4" class="st1" width="512" height="512.8"/>
</g>
<polygon id="Fill-612" class="st2" points="554.3,-114.1 664.1,-59.1 664.1,29.3 "/>
<polygon id="Fill-613" class="st2" points="781,-114.1 670.8,29.3 670.8,-59.1 "/>
<path class="st3" d="M711.6-200.7L711.6-200.7c-1.4-0.6-113.1-15.9-249.6,31.4V44.8C607.6-57.2,707.5-195,711.6-200.7z"/>
<path class="st3" d="M711.6-200.7C708.1-193,621.8-3.8,462,123.1v171.5c36.5-9.5,76.6-27.4,120.2-57.2
	C729.4,122.9,725.7-125.6,711.6-200.7z"/>
<path class="st3" d="M225.4,231.7L225.4,231.7c18.5,19.7,102.6,97.9,236.6,62.9V123.1C395.6,175.9,316.5,217.9,225.4,231.7z"/>
<path class="st3" d="M206.9,150.9c92.6-10.4,180-53.5,255.1-106.1v-214.1c-41.4,14.4-85.2,34.5-128.8,62.6
	C217-31.9,201.6,77.7,206.9,150.9z"/>
<path class="st3" d="M711.6-200.7L711.6-200.7c-1.4-0.6-113.1-15.9-249.6,31.4V44.8C607.6-57.2,707.5-195,711.6-200.7z"/>
<path class="st3" d="M333.2-106.7C217-31.9,201.6,77.7,206.9,150.9c92.6-10.4,180-53.5,255.1-106.1v-214.1
	C420.6-154.9,376.8-134.8,333.2-106.7z"/>
</svg>
