<?xml version="1.0" encoding="utf-8"?>
<!-- Generator: Adobe Illustrator 19.0.0, SVG Export Plug-In . SVG Version: 6.00 Build 0)  -->
<svg version="1.1" id="Layer_1" xmlns="http://www.w3.org/2000/svg" xmlns:xlink="http://www.w3.org/1999/xlink" x="0px" y="0px"
	 viewBox="206 -206 512 512" style="enable-background:new 206 -206 512 512;" xml:space="preserve">
<style type="text/css">
	.st0{display:none;}
	.st1{display:inline;}
	.st2{display:none;fill:#FFFFFF;}
	.st3{fill:#4ACFD9;}
	.st4{fill:#365558;}
	.st5{fill:#0295AA;}
	.st6{fill:#9BAAAB;}
	.st7{fill:#E6EAEA;}
	.st8{fill:#CDD4D5;}
</style>
<g id="Layer_3" class="st0">
	<rect x="1442" y="-1442.4" class="st1" width="512" height="512.8"/>
</g>
<polygon id="Fill-612" class="st2" points="760.3,-320.1 870.1,-265.1 870.1,-176.7 "/>
<polygon id="Fill-613" class="st2" points="987,-320.1 876.8,-176.7 876.8,-265.1 "/>
<polygon class="st3" points="211.5,-128.8 330.8,50 379.6,63.1 438.4,50 316.5,-128.8 "/>
<polygon class="st4" points="438.4,50 330.8,50 206,228.8 311,228.8 "/>
<polygon class="st5" points="470.6,-128.8 462,-128.8 462,15.9 484.7,50 534.8,63.8 592.5,50 "/>
<polygon class="st3" points="365.6,-128.8 462,15.9 462,-128.8 "/>
<path class="st6" d="M606.9-128.8h105L616.3,15.4l-53.9-78.9L606.9-128.8z"/>
<path class="st7" d="M518-128.8h40.4l-19.9,30.1L518-128.8z"/>
<path class="st6" d="M613,228.8h105L616.7,82.9l-54.3,75.4L613,228.8z"/>
<path class="st8" d="M511.7,228.8h52.7l-26-37L511.7,228.8z"/>
<polygon class="st5" points="592.5,50 484.7,50 462,82.6 462,228.8 464,228.8 "/>
<polygon class="st4" points="360.1,228.8 462,228.8 462,82.6 "/>
</svg>
