<?xml version="1.0" standalone="yes"?>
<svg xmlns="http://www.w3.org/2000/svg" width="504" height="504">
<path style="fill:#fefefe; stroke:none;" d="M0 0L0 504L167 504L190 501.054L209 503.985L504 504L504 0L0 0z"/>
<path style="fill:#8397cb; stroke:none;" d="M233 20L233 21L241 21L233 20z"/>
<path style="fill:#4b72b8; stroke:none;" d="M241 20L241 21L260 21L241 20z"/>
<path style="fill:#8397cb; stroke:none;" d="M260 20L260 21L268 21L260 20M223 21L223 22L227 22L223 21z"/>
<path style="fill:#4b72b8; stroke:none;" d="M227 21L227 22L230 22L227 21z"/>
<path style="fill:#165fad; stroke:none;" d="M174 33L174 121L250 121L250 70L392 70C381.464 59.256 366.351 51.4284 353 44.7531C316.215 26.3607 273.158 17.253 232 21.1698C211.982 23.0748 193.473 28.5359 174 33z"/>
<path style="fill:#4b72b8; stroke:none;" d="M270 21L270 22L274 22L270 21z"/>
<path style="fill:#8397cb; stroke:none;" d="M274 21L274 22L278 22L274 21M215 22L215 23L219 23L215 22z"/>
<path style="fill:#4b72b8; stroke:none;" d="M219.667 22.3333L220.333 22.6667L219.667 22.3333M280.667 22.3333L281.333 22.6667L280.667 22.3333z"/>
<path style="fill:#8397cb; stroke:none;" d="M282 22L282 23L285 23L282 22M209 23L209 24L212 24L209 23z"/>
<path style="fill:#4b72b8; stroke:none;" d="M212.667 23.3333L213.333 23.6667L212.667 23.3333M287.667 23.3333L288.333 23.6667L287.667 23.3333z"/>
<path style="fill:#8397cb; stroke:none;" d="M289 23L289 24L292 24L289 23M204.667 24.3333L205.333 24.6667L204.667 24.3333z"/>
<path style="fill:#4b72b8; stroke:none;" d="M206.667 24.3333L207.333 24.6667L206.667 24.3333M293 24L294 25L293 24z"/>
<path style="fill:#8397cb; stroke:none;" d="M294 24L294 25L297 25L294 24M199 25L199 26L202 26L199 25z"/>
<path style="fill:#4b72b8; stroke:none;" d="M202 25L203 26L202 25M298 25L299 26L298 25z"/>
<path style="fill:#8397cb; stroke:none;" d="M299.667 25.3333L300.333 25.6667L299.667 25.3333M195.667 26.3333L196.333 26.6667L195.667 26.3333z"/>
<path style="fill:#4b72b8; stroke:none;" d="M197.667 26.3333L198.333 26.6667L197.667 26.3333M302 26L303 27L302 26z"/>
<path style="fill:#8397cb; stroke:none;" d="M303.667 26.3333L304.333 26.6667L303.667 26.3333M191.667 27.3333L192.333 27.6667L191.667 27.3333z"/>
<path style="fill:#4b72b8; stroke:none;" d="M193.667 27.3333L194.333 27.6667L193.667 27.3333M306 27L307 28L306 27z"/>
<path style="fill:#8397cb; stroke:none;" d="M307.667 27.3333L308.333 27.6667L307.667 27.3333M188 28L189 29L188 28z"/>
<path style="fill:#4b72b8; stroke:none;" d="M189.667 28.3333L190.333 28.6667L189.667 28.3333M310 28L311 29L310 28z"/>
<path style="fill:#8397cb; stroke:none;" d="M311.667 28.3333L312.333 28.6667L311.667 28.3333M184.667 29.3333L185.333 29.6667L184.667 29.3333z"/>
<path style="fill:#4b72b8; stroke:none;" d="M186 29L187 30L186 29M314 29L315 30L314 29z"/>
<path style="fill:#8397cb; stroke:none;" d="M315 29L316 30L315 29M181.667 30.3333L182.333 30.6667L181.667 30.3333z"/>
<path style="fill:#4b72b8; stroke:none;" d="M183 30L184 31L183 30M317 30L318 31L317 30z"/>
<path style="fill:#8397cb; stroke:none;" d="M318.667 30.3333L319.333 30.6667L318.667 30.3333M178 31L179 32L178 31z"/>
<path style="fill:#4b72b8; stroke:none;" d="M179 31L180 32L179 31M320 31L321 32L320 31z"/>
<path style="fill:#8397cb; stroke:none;" d="M321.667 31.3333L322.333 31.6667L321.667 31.3333M175 32L176 33L175 32z"/>
<path style="fill:#4b72b8; stroke:none;" d="M176 32L177 33L176 32M323 32L324 33L323 32z"/>
<path style="fill:#8397cb; stroke:none;" d="M324 32L325 33L324 32M173 33L173 122L250 122L250 172L175 172L175 173L250 173L250 223L251 223L251 122L440 122L440 121L251 121L251 71L250 71L250 121L174 121L174 60L173 33z"/>
<path style="fill:#4b72b8; stroke:none;" d="M326 33L327 34L326 33z"/>
<path style="fill:#8397cb; stroke:none;" d="M327 33L328 34L327 33z"/>
<path style="fill:#4b72b8; stroke:none;" d="M329 34L330 35L329 34z"/>
<path style="fill:#8397cb; stroke:none;" d="M330 34L331 35L330 34M332.667 35.3333L333.333 35.6667L332.667 35.3333z"/>
<path style="fill:#4b72b8; stroke:none;" d="M334 36L335 37L334 36z"/>
<path style="fill:#8397cb; stroke:none;" d="M335 36L336 37L335 36M337.667 37.3333L338.333 37.6667L337.667 37.3333z"/>
<path style="fill:#4b72b8; stroke:none;" d="M339 38L340 39L339 38z"/>
<path style="fill:#8397cb; stroke:none;" d="M340 38L341 39L340 38z"/>
<path style="fill:#4b72b8; stroke:none;" d="M341 39L342 40L341 39z"/>
<path style="fill:#8397cb; stroke:none;" d="M342 39L343 40L342 39M344 40L345 41L344 40z"/>
<path style="fill:#4b72b8; stroke:none;" d="M346 41L347 42L346 41z"/>
<path style="fill:#8397cb; stroke:none;" d="M347 41L348 42L347 41z"/>
<path style="fill:#4b72b8; stroke:none;" d="M348 42L349 43L348 42z"/>
<path style="fill:#8397cb; stroke:none;" d="M349 42L350 43L349 42z"/>
<path style="fill:#4b72b8; stroke:none;" d="M350 43L351 44L350 43z"/>
<path style="fill:#8397cb; stroke:none;" d="M351 43L352 44L351 43z"/>
<path style="fill:#4b72b8; stroke:none;" d="M352 44L353 45L352 44z"/>
<path style="fill:#8397cb; stroke:none;" d="M353 44L354 45L353 44z"/>
<path style="fill:#4b72b8; stroke:none;" d="M354 45L355 46L354 45z"/>
<path style="fill:#8397cb; stroke:none;" d="M355 45L356 46L355 45z"/>
<path style="fill:#4b72b8; stroke:none;" d="M356 46L357 47L356 46z"/>
<path style="fill:#8397cb; stroke:none;" d="M357 46L358 47L357 46z"/>
<path style="fill:#4b72b8; stroke:none;" d="M358 47L359 48L358 47z"/>
<path style="fill:#8397cb; stroke:none;" d="M360 48L361 49L360 48M362 49L363 50L362 49z"/>
<path style="fill:#4b72b8; stroke:none;" d="M363 50L364 51L363 50z"/>
<path style="fill:#8397cb; stroke:none;" d="M364 50L365 51L364 50z"/>
<path style="fill:#4b72b8; stroke:none;" d="M365 51L366 52L365 51z"/>
<path style="fill:#8397cb; stroke:none;" d="M367 52L368 53L367 52M369 53L370 54L369 53z"/>
<path style="fill:#4b72b8; stroke:none;" d="M370 54L371 55L370 54z"/>
<path style="fill:#8397cb; stroke:none;" d="M372 55L373 56L372 55M126.667 56.3333L127.333 56.6667L126.667 56.3333z"/>
<path style="fill:#4b72b8; stroke:none;" d="M373 56L374 57L373 56M125 57L126 58L125 57z"/>
<path style="fill:#165fad; stroke:none;" d="M126 57C103.649 72.0805 72.0504 94.872 62 121L127 121L127 77L126 57z"/>
<path style="fill:#4b72b8; stroke:none;" d="M127 57L127 121L128 121L128 77L127 57z"/>
<path style="fill:#8397cb; stroke:none;" d="M375 57L376 58L375 57M123 58L124 59L123 58z"/>
<path style="fill:#4b72b8; stroke:none;" d="M376 58L377 59L376 58M122 59L123 60L122 59z"/>
<path style="fill:#8397cb; stroke:none;" d="M378 59L379 60L378 59M120 60L121 61L120 60z"/>
<path style="fill:#4b72b8; stroke:none;" d="M379 60L380 61L379 60M119 61L120 62L119 61z"/>
<path style="fill:#8397cb; stroke:none;" d="M381 61L382 62L381 61M117 62L118 63L117 62z"/>
<path style="fill:#4b72b8; stroke:none;" d="M382 62L383 63L382 62z"/>
<path style="fill:#8397cb; stroke:none;" d="M116 63L117 64L116 63M384 63L385 64L384 63z"/>
<path style="fill:#4b72b8; stroke:none;" d="M115 64L116 65L115 64z"/>
<path style="fill:#8397cb; stroke:none;" d="M385 64L386 65L385 64M113 65L114 66L113 65z"/>
<path style="fill:#4b72b8; stroke:none;" d="M386 65L387 66L386 65z"/>
<path style="fill:#8397cb; stroke:none;" d="M112 66L113 67L112 66M388 66L389 67L388 66z"/>
<path style="fill:#4b72b8; stroke:none;" d="M111 67L112 68L111 67z"/>
<path style="fill:#8397cb; stroke:none;" d="M389 67L390 68L389 67M109 68L110 69L109 68z"/>
<path style="fill:#4b72b8; stroke:none;" d="M390 68L391 69L390 68z"/>
<path style="fill:#8397cb; stroke:none;" d="M108 69L109 70L108 69M392 69L393 70L392 69z"/>
<path style="fill:#4b72b8; stroke:none;" d="M107 70L108 71L107 70M250 70L250 71L393 71C381.782 66.2928 362.206 70 350 70L250 70M106 71L107 72L106 71z"/>
<path style="fill:#8397cb; stroke:none;" d="M104 72L105 73L104 72M103 73L104 74L103 73M102 74L103 75L102 74z"/>
<path style="fill:#4b72b8; stroke:none;" d="M101 75L102 76L101 75M100 76L101 77L100 76M99 77L100 78L99 77z"/>
<path style="fill:#8397cb; stroke:none;" d="M96 79L97 80L96 79M95 80L96 81L95 80M94 81L95 82L94 81M93 82L94 83L93 82M92 83L93 84L92 83M91 84L92 85L91 84M90 85L91 86L90 85M89 86L90 87L89 86M88 87L89 88L88 87M87 88L88 89L87 88M86 89L87 90L86 89M85 90L86 91L85 90M84 91L85 92L84 91M83 92L84 93L83 92M82 93L83 94L82 93M81 94L82 95L81 94z"/>
<path style="fill:#4b72b8; stroke:none;" d="M79 97L80 98L79 97M78 98L79 99L78 98M77 99L78 100L77 99z"/>
<path style="fill:#8397cb; stroke:none;" d="M76 100L77 101L76 100M75 101L76 102L75 101M74 102L75 103L74 102z"/>
<path style="fill:#4b72b8; stroke:none;" d="M73 104L74 105L73 104M72 105L73 106L72 105z"/>
<path style="fill:#8397cb; stroke:none;" d="M71 106L72 107L71 106M70 107L71 108L70 107z"/>
<path style="fill:#4b72b8; stroke:none;" d="M69 109L70 110L69 109z"/>
<path style="fill:#8397cb; stroke:none;" d="M68 110L69 111L68 110M67 111L68 112L67 111z"/>
<path style="fill:#4b72b8; stroke:none;" d="M66 113L67 114L66 113z"/>
<path style="fill:#8397cb; stroke:none;" d="M65 114L66 115L65 114M64 115L65 116L64 115z"/>
<path style="fill:#4b72b8; stroke:none;" d="M63 117L64 118L63 117z"/>
<path style="fill:#8397cb; stroke:none;" d="M62 118L63 119L62 118z"/>
<path style="fill:#4b72b8; stroke:none;" d="M61 120L62 121L61 120z"/>
<path style="fill:#8397cb; stroke:none;" d="M61 121L61 122L128 122L107 121L61 121z"/>
<path style="fill:#165fad; stroke:none;" d="M251 122L251 172L465 172L448.85 136L439.815 123.028L424 122L387 122L251 122z"/>
<path style="fill:#4b72b8; stroke:none;" d="M440 122L441 123L440 122z"/>
<path style="fill:#8397cb; stroke:none;" d="M441 123L442 124L441 123z"/>
<path style="fill:#4b72b8; stroke:none;" d="M442 125L443 126L442 125z"/>
<path style="fill:#8397cb; stroke:none;" d="M443 126L444 127L443 126M444 128L445 129L444 128M445 129L446 130L445 129z"/>
<path style="fill:#4b72b8; stroke:none;" d="M445 130L446 131L445 130z"/>
<path style="fill:#8397cb; stroke:none;" d="M446 131L447 132L446 131M447 133L448 134L447 133M448 134L449 135L448 134z"/>
<path style="fill:#4b72b8; stroke:none;" d="M448 135L449 136L448 135z"/>
<path style="fill:#8397cb; stroke:none;" d="M449 136L450 137L449 136z"/>
<path style="fill:#4b72b8; stroke:none;" d="M449 137L450 138L449 137z"/>
<path style="fill:#8397cb; stroke:none;" d="M450 138L451 139L450 138M451 140L452 141L451 140M452 142L453 143L452 142M453 144L454 145L453 144M454 146L455 147L454 146M455 148L456 149L455 148M456 150L457 151L456 150M457 152L458 153L457 152M458 154L459 155L458 154z"/>
<path style="fill:#4b72b8; stroke:none;" d="M458 155L459 156L458 155z"/>
<path style="fill:#8397cb; stroke:none;" d="M459 156L460 157L459 156z"/>
<path style="fill:#4b72b8; stroke:none;" d="M459 157L460 158L459 157z"/>
<path style="fill:#8397cb; stroke:none;" d="M460.333 158.667L460.667 159.333L460.333 158.667M461 161L462 162L461 161z"/>
<path style="fill:#4b72b8; stroke:none;" d="M461 162L462 163L461 162z"/>
<path style="fill:#8397cb; stroke:none;" d="M462.333 163.667L462.667 164.333L462.333 163.667M463 166L464 167L463 166z"/>
<path style="fill:#4b72b8; stroke:none;" d="M463 167L464 168L463 167z"/>
<path style="fill:#8397cb; stroke:none;" d="M464.333 168.667L464.667 169.333L464.333 168.667M465 171L466 172L465 171M34 173L34 174L66 173L126 173C118.841 169.996 107.744 172 100 172C79.9871 172 53.1538 167.338 34 173z"/>
<path style="fill:#4b72b8; stroke:none;" d="M126 172L127 207L127 273L24 273L24 269L23 269C24.1704 276.013 32.4125 274 38 274L83 274L114 274C117.328 274 123.615 275.175 126.397 272.972C130.455 269.758 128 254.813 128 250L128 194C128 187.577 129.996 177.274 126 172z"/>
<path style="fill:#8397cb; stroke:none;" d="M127 172L128 173L127 172M173 172L173 274L174 274L174 203L173 172z"/>
<path style="fill:#4b72b8; stroke:none;" d="M174 172L175 173L174 172z"/>
<path style="fill:#8397cb; stroke:none;" d="M252 172L252 173L465 173L445 172L402 172L252 172z"/>
<path style="fill:#165fad; stroke:none;" d="M24 273L127 273L127 173L60 173C54.2089 173 40.4386 170.458 35.7029 174.028C30.7007 177.798 29.4656 192.151 28.1188 198C22.5687 222.104 20.8962 248.44 24 273M174 173L174 273L477 273L477 223L418 224L307 224L266 224L251.603 222.397L250 209L250 173L174 173z"/>
<path style="fill:#4b72b8; stroke:none;" d="M34 174L35 175L34 174z"/>
<path style="fill:#8397cb; stroke:none;" d="M33 176L34 177L33 176z"/>
<path style="fill:#4b72b8; stroke:none;" d="M33 177L34 178L33 177z"/>
<path style="fill:#8397cb; stroke:none;" d="M32 179L33 180L32 179z"/>
<path style="fill:#4b72b8; stroke:none;" d="M32.3333 180.667L32.6667 181.333L32.3333 180.667z"/>
<path style="fill:#8397cb; stroke:none;" d="M31.3333 182.667L31.6667 183.333L31.3333 182.667z"/>
<path style="fill:#4b72b8; stroke:none;" d="M31 184L32 185L31 184z"/>
<path style="fill:#8397cb; stroke:none;" d="M30 186L31 187L30 186z"/>
<path style="fill:#4b72b8; stroke:none;" d="M30.3333 187.667L30.6667 188.333L30.3333 187.667z"/>
<path style="fill:#8397cb; stroke:none;" d="M29.3333 189.667L29.6667 190.333L29.3333 189.667z"/>
<path style="fill:#4b72b8; stroke:none;" d="M29 191L30 192L29 191z"/>
<path style="fill:#8397cb; stroke:none;" d="M28.3333 193.667L28.6667 194.333L28.3333 193.667z"/>
<path style="fill:#4b72b8; stroke:none;" d="M28.3333 195.667L28.6667 196.333L28.3333 195.667z"/>
<path style="fill:#8397cb; stroke:none;" d="M27 197L27 200L28 200L27 197z"/>
<path style="fill:#4b72b8; stroke:none;" d="M27 200L28 201L27 200z"/>
<path style="fill:#8397cb; stroke:none;" d="M26.3333 202.667L26.6667 203.333L26.3333 202.667z"/>
<path style="fill:#4b72b8; stroke:none;" d="M26.3333 204.667L26.6667 205.333L26.3333 204.667z"/>
<path style="fill:#8397cb; stroke:none;" d="M25 207L25 210L26 210L25 207z"/>
<path style="fill:#4b72b8; stroke:none;" d="M25.3333 210.667L25.6667 211.333L25.3333 210.667z"/>
<path style="fill:#8397cb; stroke:none;" d="M24 213L24 216L25 216L24 213z"/>
<path style="fill:#4b72b8; stroke:none;" d="M24 216L24 219L25 219L24 216z"/>
<path style="fill:#8397cb; stroke:none;" d="M23 220L23 225L24 225L23 220z"/>
<path style="fill:#4b72b8; stroke:none;" d="M251 223L251 224L475 224L454 223L409 223L251 223z"/>
<path style="fill:#8397cb; stroke:none;" d="M477 223L477 228L478 228L477 223z"/>
<path style="fill:#4b72b8; stroke:none;" d="M23 225L23 228L24 228L23 225M477 228L477 232L478 232L477 228z"/>
<path style="fill:#8397cb; stroke:none;" d="M22 230L22 238L23 238L22 230M478 234L478 263L479 263L478 234z"/>
<path style="fill:#4b72b8; stroke:none;" d="M22 238L22 259L23 259L22 238z"/>
<path style="fill:#8397cb; stroke:none;" d="M22 259L22 266L23 266L22 259z"/>
<path style="fill:#4b72b8; stroke:none;" d="M477 265L477 269L478 269L477 265z"/>
<path style="fill:#8397cb; stroke:none;" d="M477 269L477 273L478 273L477 269M23 273L24 274L23 273M127 273L128 274L127 273z"/>
<path style="fill:#4b72b8; stroke:none;" d="M174 273L174 274L251 274L227 273L174 273z"/>
<path style="fill:#8397cb; stroke:none;" d="M251 273L251 274L476 274L455 273L409 273L251 273z"/>
<path style="fill:#4b72b8; stroke:none;" d="M476 273L477 274L476 273z"/>
<path style="fill:#8397cb; stroke:none;" d="M35 326L66 325L124 325L309 325L414 325L466 326C462.019 321.444 447.833 324 442 324L373 324L119 324L57 324C51.4727 324 38.7963 321.656 35 326z"/>
<path style="fill:#165fad; stroke:none;" d="M36 325L52.5787 362L62.0934 374.397L87 375L145 375L344 375L410 375L438.816 374.397L448.138 362L465 325L36 325z"/>
<path style="fill:#4b72b8; stroke:none;" d="M464 326L465 327L464 326M36 327L37 328L36 327z"/>
<path style="fill:#8397cb; stroke:none;" d="M464 327L465 328L464 327M36 328L37 329L36 328z"/>
<path style="fill:#4b72b8; stroke:none;" d="M463 329L464 330L463 329M37 330L38 331L37 330z"/>
<path style="fill:#8397cb; stroke:none;" d="M463 330L464 331L463 330M37 331L38 332L37 331z"/>
<path style="fill:#4b72b8; stroke:none;" d="M462 331L463 332L462 331M38 332L39 333L38 332z"/>
<path style="fill:#8397cb; stroke:none;" d="M462 332L463 333L462 332M38 333L39 334L38 333z"/>
<path style="fill:#4b72b8; stroke:none;" d="M461 334L462 335L461 334M39 335L40 336L39 335z"/>
<path style="fill:#8397cb; stroke:none;" d="M461 335L462 336L461 335M39 336L40 337L39 336z"/>
<path style="fill:#4b72b8; stroke:none;" d="M460 336L461 337L460 336M40 337L41 338L40 337z"/>
<path style="fill:#8397cb; stroke:none;" d="M460 337L461 338L460 337M40 338L41 339L40 338M459.333 339.667L459.667 340.333L459.333 339.667M41 340L42 341L41 340z"/>
<path style="fill:#4b72b8; stroke:none;" d="M458 341L459 342L458 341M42 342L43 343L42 342z"/>
<path style="fill:#8397cb; stroke:none;" d="M458 342L459 343L458 342M42 343L43 344L42 343z"/>
<path style="fill:#4b72b8; stroke:none;" d="M457 343L458 344L457 343M43 344L44 345L43 344z"/>
<path style="fill:#8397cb; stroke:none;" d="M457 344L458 345L457 344M43 345L44 346L43 345z"/>
<path style="fill:#4b72b8; stroke:none;" d="M456 345L457 346L456 345M44 346L45 347L44 346z"/>
<path style="fill:#8397cb; stroke:none;" d="M456 346L457 347L456 346M44 347L45 348L44 347z"/>
<path style="fill:#4b72b8; stroke:none;" d="M455 347L456 348L455 347M45 348L46 349L45 348z"/>
<path style="fill:#8397cb; stroke:none;" d="M455 348L456 349L455 348M45 349L46 350L45 349z"/>
<path style="fill:#4b72b8; stroke:none;" d="M46 350L47 351L46 350z"/>
<path style="fill:#8397cb; stroke:none;" d="M454 350L455 351L454 350M46 351L47 352L46 351z"/>
<path style="fill:#4b72b8; stroke:none;" d="M47 352L48 353L47 352z"/>
<path style="fill:#8397cb; stroke:none;" d="M453 352L454 353L453 352M47 353L48 354L47 353z"/>
<path style="fill:#4b72b8; stroke:none;" d="M452 353L453 354L452 353M48 354L49 355L48 354z"/>
<path style="fill:#8397cb; stroke:none;" d="M452 354L453 355L452 354M48 355L49 356L48 355z"/>
<path style="fill:#4b72b8; stroke:none;" d="M451 355L452 356L451 355M49 356L50 357L49 356z"/>
<path style="fill:#8397cb; stroke:none;" d="M451 356L452 357L451 356z"/>
<path style="fill:#4b72b8; stroke:none;" d="M450 357L451 358L450 357z"/>
<path style="fill:#8397cb; stroke:none;" d="M50 358L51 359L50 358M450 358L451 359L450 358z"/>
<path style="fill:#4b72b8; stroke:none;" d="M449 359L450 360L449 359z"/>
<path style="fill:#8397cb; stroke:none;" d="M51 360L52 361L51 360M449 360L450 361L449 360z"/>
<path style="fill:#4b72b8; stroke:none;" d="M52 361L53 362L52 361z"/>
<path style="fill:#8397cb; stroke:none;" d="M448 361L449 362L448 361M52 362L53 363L52 362z"/>
<path style="fill:#4b72b8; stroke:none;" d="M53 363L54 364L53 363z"/>
<path style="fill:#8397cb; stroke:none;" d="M447 363L448 364L447 363M53 364L54 365L53 364z"/>
<path style="fill:#4b72b8; stroke:none;" d="M446 364L447 365L446 364z"/>
<path style="fill:#8397cb; stroke:none;" d="M54 365L55 366L54 365M446 365L447 366L446 365M445 366L446 367L445 366M55 367L56 368L55 367z"/>
<path style="fill:#4b72b8; stroke:none;" d="M56 368L57 369L56 368z"/>
<path style="fill:#8397cb; stroke:none;" d="M444 368L445 369L444 368z"/>
<path style="fill:#4b72b8; stroke:none;" d="M443 369L444 370L443 369z"/>
<path style="fill:#8397cb; stroke:none;" d="M57 370L58 371L57 370z"/>
<path style="fill:#4b72b8; stroke:none;" d="M58 371L59 372L58 371z"/>
<path style="fill:#8397cb; stroke:none;" d="M442 371L443 372L442 371M58 372L59 373L58 372z"/>
<path style="fill:#4b72b8; stroke:none;" d="M441 372L442 373L441 372z"/>
<path style="fill:#8397cb; stroke:none;" d="M59 373L60 374L59 373M441 373L442 374L441 373z"/>
<path style="fill:#4b72b8; stroke:none;" d="M60 374L61 375L60 374z"/>
<path style="fill:#8397cb; stroke:none;" d="M440 374L441 375L440 374M392 425L393 426L392 425M107 426L109 428L107 426z"/>
<path style="fill:#165fad; stroke:none;" d="M108 426L108 427C172.696 473.473 249.598 488.806 326 463.333C347.11 456.295 378.091 444.133 392 426L108 426z"/>
<path style="fill:#4b72b8; stroke:none;" d="M392 426L393 427L392 426M391 427L392 428L391 427M110 428L111 429L110 428z"/>
<path style="fill:#8397cb; stroke:none;" d="M390 428L391 429L390 428M111 429L112 430L111 429M389 429L390 430L389 429M112 430L113 431L112 430z"/>
<path style="fill:#4b72b8; stroke:none;" d="M387 430L388 431L387 430M114 431L115 432L114 431z"/>
<path style="fill:#8397cb; stroke:none;" d="M386 431L387 432L386 431M115 432L116 433L115 432M385 432L386 433L385 432M116 433L117 434L116 433z"/>
<path style="fill:#4b72b8; stroke:none;" d="M383 433L384 434L383 433M118 434L119 435L118 434z"/>
<path style="fill:#8397cb; stroke:none;" d="M382 434L383 435L382 434M119 435L120 436L119 435z"/>
<path style="fill:#4b72b8; stroke:none;" d="M380 435L381 436L380 435M121 436L122 437L121 436z"/>
<path style="fill:#8397cb; stroke:none;" d="M379 436L380 437L379 436M122 437L123 438L122 437z"/>
<path style="fill:#4b72b8; stroke:none;" d="M377 437L378 438L377 437z"/>
<path style="fill:#8397cb; stroke:none;" d="M378 437L379 438L378 437z"/>
<path style="fill:#4b72b8; stroke:none;" d="M124 438L125 439L124 438z"/>
<path style="fill:#8397cb; stroke:none;" d="M376 438L377 439L376 438M125 439L126 440L125 439z"/>
<path style="fill:#4b72b8; stroke:none;" d="M374 439L375 440L374 439z"/>
<path style="fill:#8397cb; stroke:none;" d="M375 439L376 440L375 439z"/>
<path style="fill:#4b72b8; stroke:none;" d="M127 440L128 441L127 440z"/>
<path style="fill:#8397cb; stroke:none;" d="M373 440L374 441L373 440M128 441L129 442L128 441z"/>
<path style="fill:#4b72b8; stroke:none;" d="M371 441L372 442L371 441M130 442L131 443L130 442z"/>
<path style="fill:#8397cb; stroke:none;" d="M370 442L371 443L370 442M131 443L132 444L131 443z"/>
<path style="fill:#4b72b8; stroke:none;" d="M132 443L133 444L132 443M368 443L369 444L368 443z"/>
<path style="fill:#8397cb; stroke:none;" d="M133 444L134 445L133 444z"/>
<path style="fill:#4b72b8; stroke:none;" d="M366 444L367 445L366 444z"/>
<path style="fill:#8397cb; stroke:none;" d="M367 444L368 445L367 444M135 445L136 446L135 445M365 445L366 446L365 445M136 446L137 447L136 446z"/>
<path style="fill:#4b72b8; stroke:none;" d="M137 446L138 447L137 446z"/>
<path style="fill:#8397cb; stroke:none;" d="M363 446L364 447L363 446M138 447L139 448L138 447z"/>
<path style="fill:#4b72b8; stroke:none;" d="M139 447L140 448L139 447M361 447L362 448L361 447z"/>
<path style="fill:#8397cb; stroke:none;" d="M362 447L363 448L362 447M140 448L141 449L140 448z"/>
<path style="fill:#4b72b8; stroke:none;" d="M359 448L360 449L359 448z"/>
<path style="fill:#8397cb; stroke:none;" d="M360 448L361 449L360 448M142 449L143 450L142 449z"/>
<path style="fill:#4b72b8; stroke:none;" d="M357 449L358 450L357 449z"/>
<path style="fill:#8397cb; stroke:none;" d="M358 449L359 450L358 449M144 450L145 451L144 450M356 450L357 451L356 450M146 451L147 452L146 451M354 451L355 452L354 451z"/>
<path style="fill:#4b72b8; stroke:none;" d="M148 452L149 453L148 452z"/>
<path style="fill:#8397cb; stroke:none;" d="M352 452L353 453L352 452M150 453L151 454L150 453M350 453L351 454L350 453M152 454L153 455L152 454z"/>
<path style="fill:#4b72b8; stroke:none;" d="M347 454L348 455L347 454z"/>
<path style="fill:#8397cb; stroke:none;" d="M348 454L349 455L348 454M154 455L155 456L154 455z"/>
<path style="fill:#4b72b8; stroke:none;" d="M345 455L346 456L345 455z"/>
<path style="fill:#8397cb; stroke:none;" d="M346 455L347 456L346 455M156 456L157 457L156 456z"/>
<path style="fill:#4b72b8; stroke:none;" d="M157 456L158 457L157 456M343 456L344 457L343 456z"/>
<path style="fill:#8397cb; stroke:none;" d="M344 456L345 457L344 456M158 457L159 458L158 457z"/>
<path style="fill:#4b72b8; stroke:none;" d="M159 457L160 458L159 457z"/>
<path style="fill:#8397cb; stroke:none;" d="M341.667 457.333L342.333 457.667L341.667 457.333M160.667 458.333L161.333 458.667L160.667 458.333M339 458L340 459L339 458M163 459L164 460L163 459z"/>
<path style="fill:#4b72b8; stroke:none;" d="M164 459L165 460L164 459M336 459L337 460L336 459z"/>
<path style="fill:#8397cb; stroke:none;" d="M337 459L338 460L337 459M165 460L166 461L165 460z"/>
<path style="fill:#4b72b8; stroke:none;" d="M166 460L167 461L166 460z"/>
<path style="fill:#8397cb; stroke:none;" d="M334 460L335 461L334 460M168 461L169 462L168 461z"/>
<path style="fill:#4b72b8; stroke:none;" d="M169 461L170 462L169 461M331 461L332 462L331 461z"/>
<path style="fill:#8397cb; stroke:none;" d="M332 461L333 462L332 461M170.667 462.333L171.333 462.667L170.667 462.333z"/>
<path style="fill:#4b72b8; stroke:none;" d="M328 462L329 463L328 462z"/>
<path style="fill:#8397cb; stroke:none;" d="M329 462L330 463L329 462M173 463L174 464L173 463z"/>
<path style="fill:#4b72b8; stroke:none;" d="M174 463L175 464L174 463M325 463L326 464L325 463z"/>
<path style="fill:#8397cb; stroke:none;" d="M326.667 463.333L327.333 463.667L326.667 463.333M176 464L177 465L176 464z"/>
<path style="fill:#4b72b8; stroke:none;" d="M177 464L178 465L177 464M322 464L323 465L322 464z"/>
<path style="fill:#8397cb; stroke:none;" d="M323.667 464.333L324.333 464.667L323.667 464.333M179 465L180 466L179 465z"/>
<path style="fill:#4b72b8; stroke:none;" d="M180 465L181 466L180 465M319 465L320 466L319 465z"/>
<path style="fill:#8397cb; stroke:none;" d="M320.667 465.333L321.333 465.667L320.667 465.333M182.667 466.333L183.333 466.667L182.667 466.333z"/>
<path style="fill:#4b72b8; stroke:none;" d="M184 466L185 467L184 466M316 466L317 467L316 466z"/>
<path style="fill:#8397cb; stroke:none;" d="M317.667 466.333L318.333 466.667L317.667 466.333M185.667 467.333L186.333 467.667L185.667 467.333z"/>
<path style="fill:#4b72b8; stroke:none;" d="M187 467L188 468L187 467M313 467L314 468L313 467z"/>
<path style="fill:#8397cb; stroke:none;" d="M314 467L315 468L314 467M189.667 468.333L190.333 468.667L189.667 468.333z"/>
<path style="fill:#4b72b8; stroke:none;" d="M191 468L192 469L191 468M309 468L310 469L309 468z"/>
<path style="fill:#8397cb; stroke:none;" d="M310.667 468.333L311.333 468.667L310.667 468.333M192.667 469.333L193.333 469.667L192.667 469.333z"/>
<path style="fill:#4b72b8; stroke:none;" d="M194.667 469.333L195.333 469.667L194.667 469.333M305 469L306 470L305 469z"/>
<path style="fill:#8397cb; stroke:none;" d="M306.667 469.333L307.333 469.667L306.667 469.333M196.667 470.333L197.333 470.667L196.667 470.333z"/>
<path style="fill:#4b72b8; stroke:none;" d="M198.667 470.333L199.333 470.667L198.667 470.333M301 470L302 471L301 470z"/>
<path style="fill:#8397cb; stroke:none;" d="M302.667 470.333L303.333 470.667L302.667 470.333M201.667 471.333L202.333 471.667L201.667 471.333z"/>
<path style="fill:#4b72b8; stroke:none;" d="M203 471L204 472L203 471M296.667 471.333L297.333 471.667L296.667 471.333z"/>
<path style="fill:#8397cb; stroke:none;" d="M298.667 471.333L299.333 471.667L298.667 471.333M205 472L205 473L208 473L205 472z"/>
<path style="fill:#4b72b8; stroke:none;" d="M208.667 472.333L209.333 472.667L208.667 472.333M291.667 472.333L292.333 472.667L291.667 472.333z"/>
<path style="fill:#8397cb; stroke:none;" d="M293.667 472.333L294.333 472.667L293.667 472.333M211 473L211 474L214 474L211 473z"/>
<path style="fill:#4b72b8; stroke:none;" d="M214.667 473.333L215.333 473.667L214.667 473.333M285.667 473.333L286.333 473.667L285.667 473.333z"/>
<path style="fill:#8397cb; stroke:none;" d="M287 473L287 474L290 474L287 473M217 474L217 475L221 475L217 474z"/>
<path style="fill:#4b72b8; stroke:none;" d="M221.667 474.333L222.333 474.667L221.667 474.333M277 474L277 475L280 475L277 474z"/>
<path style="fill:#8397cb; stroke:none;" d="M280 474L280 475L284 475L280 474M225 475L225 476L230 476L225 475z"/>
<path style="fill:#4b72b8; stroke:none;" d="M230 475L230 476L234 476L230 475M267 475L267 476L271 476L267 475z"/>
<path style="fill:#8397cb; stroke:none;" d="M271 475L271 476L276 476L271 475M236 476L236 477L264 477L236 476z"/>
<path style="fill:#010101; stroke:none;" d="M178 503L178 504L204 504C195.827 499.647 186.573 501.04 178 503z"/>
</svg>
