<svg id="Layer_1" data-name="Layer 1" xmlns="http://www.w3.org/2000/svg" xmlns:xlink="http://www.w3.org/1999/xlink" viewBox="0 0 958.03 479.02"><defs><style>.cls-1{fill:none;}.cls-2{fill:#f80000;}.cls-3{clip-path:url(#clip-path);}.cls-4{fill:#fff;}</style><clipPath id="clip-path" transform="translate(228.2 -16.79)"><circle class="cls-1" cx="250.82" cy="256.29" r="239.51"/></clipPath></defs><path class="cls-2" d="M451,.05" transform="translate(228.2 -16.79)"/><g class="cls-3"><rect class="cls-2" width="958.03" height="479.02"/><rect class="cls-4" x="339.3" width="279.43" height="479.02"/><path class="cls-2" d="M250.81,138,231.29,176c-2.22,4.12-6.19,3.74-10.16,1.42L207,169.77,217.54,228c2.21,10.63-4.91,10.63-8.4,6l-24.67-28.77-4,14.6a4.77,4.77,0,0,1-5.54,3.46l-31.2-6.83,8.2,31c1.76,6.9,3.12,9.78-1.77,11.6l-11.11,5.42L192.74,310a7.49,7.49,0,0,1,2.43,7.6l-4.7,16.07L244,327.26c1.64,0,4.37,1.45,4.36,3.42l-2.46,58.84h9l-1.41-58.73c0-2,2.46-3.55,4.1-3.53l53.55,6.43-4.7-16.07a7.49,7.49,0,0,1,2.44-7.6l53.7-45.44-11.12-5.42c-4.9-1.82-3.53-4.7-1.78-11.6l8.2-31-31.19,6.83a4.74,4.74,0,0,1-5.53-3.46l-4-14.6-24.67,28.77c-3.51,4.59-10.62,4.59-8.39-6l10.52-58.27-14.12,7.62c-4,2.32-7.95,2.7-10.16-1.42Z" transform="translate(228.2 -16.79)"/></g></svg>