<svg xmlns="http://www.w3.org/2000/svg" xmlns:xlink="http://www.w3.org/1999/xlink" viewBox="0 0 682.6 526.92"><defs><style>.cls-1{fill:none;}.cls-2{isolation:isolate;}.cls-3{mix-blend-mode:multiply;opacity:0.06;fill:url(#radial-gradient);}.cls-4{clip-path:url(#clip-path);}.cls-5{fill:#ea1e20;}.cls-6{fill:#fff;}.cls-7{fill:#002868;}</style><radialGradient id="radial-gradient" cx="263.46" cy="263.46" r="263.46" gradientUnits="userSpaceOnUse"><stop offset="0.9"/><stop offset="1" stop-color="#fff" stop-opacity="0"/></radialGradient><clipPath id="clip-path" transform="translate(11.74)"><circle class="cls-1" cx="251.72" cy="258.67" r="239.51"/></clipPath></defs><g class="cls-2"><g id="Layer_1" data-name="Layer 1"><circle class="cls-3" cx="263.46" cy="263.46" r="263.46"/><g class="cls-4"><rect class="cls-5" x="23.95" y="19.16" width="658.65" height="479.02"/><polygon class="cls-6" points="682.6 198.79 323.34 198.79 323.34 19.16 203.58 19.16 203.58 198.79 23.95 198.79 23.95 318.55 203.58 318.55 203.58 498.18 323.34 498.18 323.34 318.55 682.6 318.55 682.6 198.79"/><polygon class="cls-7" points="682.6 228.73 293.4 228.73 293.4 19.16 233.52 19.16 233.52 228.73 23.95 228.73 23.95 288.61 233.52 288.61 233.52 498.18 293.4 498.18 293.4 288.61 682.6 288.61 682.6 228.73"/></g></g></g></svg>