<svg id="Layer_1" data-name="Layer 1" xmlns="http://www.w3.org/2000/svg" xmlns:xlink="http://www.w3.org/1999/xlink" viewBox="0 0 838.28 479.02"><defs><style>.cls-1{fill:none;}.cls-2{clip-path:url(#clip-path);}.cls-3{fill:#da0000;}.cls-4{fill:#fff;}.cls-5{fill:#188e34;}</style><clipPath id="clip-path" transform="translate(168.38 -20.51)"><circle class="cls-1" cx="250.75" cy="260.02" r="239.51"/></clipPath></defs><g class="cls-2"><rect id="red" class="cls-3" y="319.34" width="838.28" height="159.67"/><rect id="white" class="cls-4" y="159.67" width="838.28" height="159.67"/><rect id="green" class="cls-5" width="838.28" height="159.67"/><polygon class="cls-4" points="387.46 144.1 398.83 144.1 398.83 151.56 417.17 151.56 417.17 140.62 406.26 140.62 406.26 144.1 413.69 144.1 413.69 148.07 402.31 148.07 402.31 140.62 383.98 140.62 383.98 151.56 387.46 151.56 387.46 144.1"/><polygon class="cls-4" points="450.82 148.07 446.87 148.07 446.87 133.17 443.39 133.17 443.39 148.07 439.45 148.07 439.45 133.17 435.96 133.17 435.96 140.62 421.11 140.62 421.11 151.56 432.02 151.56 432.02 148.07 424.59 148.07 424.59 144.1 435.96 144.1 435.96 151.56 454.3 151.56 454.3 133.17 450.82 133.17 450.82 148.07"/><rect class="cls-4" x="383.98" y="133.17" width="48.04" height="3.48"/><rect class="cls-4" x="421.11" y="156.32" width="33.19" height="3.48"/><rect class="cls-4" x="383.98" y="156.32" width="33.19" height="3.48"/><polygon class="cls-4" points="461.73 144.1 473.1 144.1 473.1 151.56 491.43 151.56 491.43 140.62 480.52 140.62 480.52 144.1 487.95 144.1 487.95 148.07 476.58 148.07 476.58 140.62 458.25 140.62 458.25 151.56 461.73 151.56 461.73 144.1"/><polygon class="cls-4" points="525.09 148.07 521.14 148.07 521.14 133.17 517.66 133.17 517.66 148.07 513.71 148.07 513.71 133.17 510.23 133.17 510.23 140.62 495.38 140.62 495.38 151.56 506.29 151.56 506.29 148.07 498.86 148.07 498.86 144.1 510.23 144.1 510.23 151.56 528.57 151.56 528.57 133.17 525.09 133.17 525.09 148.07"/><rect class="cls-4" x="458.25" y="133.17" width="48.04" height="3.48"/><rect class="cls-4" x="495.38" y="156.32" width="33.19" height="3.48"/><rect class="cls-4" x="458.25" y="156.32" width="33.19" height="3.48"/><polygon class="cls-4" points="238.93 144.1 250.3 144.1 250.3 151.56 268.63 151.56 268.63 140.62 257.73 140.62 257.73 144.1 265.15 144.1 265.15 148.07 253.78 148.07 253.78 140.62 235.45 140.62 235.45 151.56 238.93 151.56 238.93 144.1"/><polygon class="cls-4" points="302.29 148.07 298.34 148.07 298.34 133.17 294.86 133.17 294.86 148.07 290.92 148.07 290.92 133.17 287.43 133.17 287.43 140.62 272.58 140.62 272.58 151.56 283.49 151.56 283.49 148.07 276.06 148.07 276.06 144.1 287.43 144.1 287.43 151.56 305.77 151.56 305.77 133.17 302.29 133.17 302.29 148.07"/><rect class="cls-4" x="235.45" y="133.17" width="48.04" height="3.48"/><rect class="cls-4" x="235.45" y="156.32" width="33.19" height="3.48"/><rect class="cls-4" x="272.58" y="156.32" width="33.19" height="3.48"/><rect class="cls-4" x="309.71" y="133.17" width="48.04" height="3.48"/><polygon class="cls-4" points="313.19 144.1 324.57 144.1 324.57 151.56 342.9 151.56 342.9 140.62 331.99 140.62 331.99 144.1 339.42 144.1 339.42 148.07 328.05 148.07 328.05 140.62 309.71 140.62 309.71 151.56 313.19 151.56 313.19 144.1"/><polygon class="cls-4" points="376.55 148.07 372.61 148.07 372.61 133.17 369.13 133.17 369.13 148.07 365.18 148.07 365.18 133.17 361.7 133.17 361.7 140.62 346.85 140.62 346.85 151.56 357.75 151.56 357.75 148.07 350.33 148.07 350.33 144.1 361.7 144.1 361.7 151.56 380.03 151.56 380.03 133.17 376.55 133.17 376.55 148.07"/><rect class="cls-4" x="346.85" y="156.32" width="33.19" height="3.48"/><rect class="cls-4" x="309.71" y="156.32" width="33.19" height="3.48"/><polygon class="cls-4" points="684.52 144.1 695.9 144.1 695.9 151.56 714.23 151.56 714.23 140.62 703.32 140.62 703.32 144.1 710.75 144.1 710.75 148.07 699.38 148.07 699.38 140.62 681.04 140.62 681.04 151.56 684.52 151.56 684.52 144.1"/><rect class="cls-4" x="681.04" y="133.17" width="48.04" height="3.48"/><polygon class="cls-4" points="747.88 148.07 743.94 148.07 743.94 133.17 740.46 133.17 740.46 148.07 736.51 148.07 736.51 133.17 733.03 133.17 733.03 140.62 718.18 140.62 718.18 151.56 729.09 151.56 729.09 148.07 721.66 148.07 721.66 144.1 733.03 144.1 733.03 151.56 751.37 151.56 751.37 133.17 747.88 133.17 747.88 148.07"/><rect class="cls-4" x="681.04" y="156.32" width="33.19" height="3.48"/><rect class="cls-4" x="718.18" y="156.32" width="33.19" height="3.48"/><polygon class="cls-4" points="758.79 144.1 770.16 144.1 770.16 151.56 788.5 151.56 788.5 140.62 777.59 140.62 777.59 144.1 785.02 144.1 785.02 148.07 773.64 148.07 773.64 140.62 755.31 140.62 755.31 151.56 758.79 151.56 758.79 144.1"/><polygon class="cls-4" points="822.15 133.17 822.15 148.07 818.2 148.07 818.2 133.17 814.72 133.17 814.72 148.07 810.78 148.07 810.78 133.17 807.3 133.17 807.3 140.62 792.44 140.62 792.44 151.56 803.35 151.56 803.35 148.07 795.92 148.07 795.92 144.1 807.3 144.1 807.3 151.56 825.63 151.56 825.63 133.17 822.15 133.17"/><rect class="cls-4" x="755.31" y="133.17" width="48.04" height="3.48"/><rect class="cls-4" x="755.31" y="156.32" width="33.19" height="3.48"/><rect class="cls-4" x="792.44" y="156.32" width="33.19" height="3.48"/><rect class="cls-4" x="532.51" y="133.17" width="48.04" height="3.48"/><polygon class="cls-4" points="535.99 144.1 547.37 144.1 547.37 151.56 565.7 151.56 565.7 140.62 554.79 140.62 554.79 144.1 562.22 144.1 562.22 148.07 550.85 148.07 550.85 140.62 532.51 140.62 532.51 151.56 535.99 151.56 535.99 144.1"/><polygon class="cls-4" points="599.35 148.07 595.41 148.07 595.41 133.17 591.92 133.17 591.92 148.07 587.98 148.07 587.98 133.17 584.5 133.17 584.5 140.62 569.64 140.62 569.64 151.56 580.55 151.56 580.55 148.07 573.13 148.07 573.13 144.1 584.5 144.1 584.5 151.56 602.83 151.56 602.83 133.17 599.35 133.17 599.35 148.07"/><rect class="cls-4" x="569.64" y="156.32" width="33.19" height="3.48"/><rect class="cls-4" x="532.51" y="156.32" width="33.19" height="3.48"/><polygon class="cls-4" points="610.26 144.1 621.63 144.1 621.63 151.56 639.97 151.56 639.97 140.62 629.06 140.62 629.06 144.1 636.48 144.1 636.48 148.07 625.11 148.07 625.11 140.62 606.78 140.62 606.78 151.56 610.26 151.56 610.26 144.1"/><polygon class="cls-4" points="673.62 148.07 669.67 148.07 669.67 133.17 666.19 133.17 666.19 148.07 662.25 148.07 662.25 133.17 658.76 133.17 658.76 140.62 643.91 140.62 643.91 151.56 654.82 151.56 654.82 148.07 647.39 148.07 647.39 144.1 658.76 144.1 658.76 151.56 677.1 151.56 677.1 133.17 673.62 133.17 673.62 148.07"/><rect class="cls-4" x="606.78" y="133.17" width="48.04" height="3.48"/><rect class="cls-4" x="643.91" y="156.32" width="33.19" height="3.48"/><rect class="cls-4" x="606.78" y="156.32" width="33.19" height="3.48"/><polygon class="cls-4" points="164.66 144.1 176.03 144.1 176.03 151.56 194.37 151.56 194.37 140.62 183.46 140.62 183.46 144.1 190.89 144.1 190.89 148.07 179.52 148.07 179.52 140.62 161.18 140.62 161.18 151.56 164.66 151.56 164.66 144.1"/><polygon class="cls-4" points="228.02 148.07 224.07 148.07 224.07 133.17 220.59 133.17 220.59 148.07 216.65 148.07 216.65 133.17 213.17 133.17 213.17 140.62 198.31 140.62 198.31 151.56 209.22 151.56 209.22 148.07 201.8 148.07 201.8 144.1 213.17 144.1 213.17 151.56 231.5 151.56 231.5 133.17 228.02 133.17 228.02 148.07"/><rect class="cls-4" x="161.18" y="133.17" width="48.04" height="3.48"/><rect class="cls-4" x="198.31" y="156.32" width="33.19" height="3.48"/><rect class="cls-4" x="161.18" y="156.32" width="33.19" height="3.48"/><polygon class="cls-4" points="79.49 148.07 75.54 148.07 75.54 133.17 72.06 133.17 72.06 148.07 68.12 148.07 68.12 133.17 64.64 133.17 64.64 140.62 49.78 140.62 49.78 151.56 60.69 151.56 60.69 148.07 53.26 148.07 53.26 144.1 64.64 144.1 64.64 151.56 82.97 151.56 82.97 133.17 79.49 133.17 79.49 148.07"/><polygon class="cls-4" points="16.13 144.1 27.5 144.1 27.5 151.56 45.84 151.56 45.84 140.62 34.93 140.62 34.93 144.1 42.35 144.1 42.35 148.07 30.98 148.07 30.98 140.62 12.65 140.62 12.65 151.56 16.13 151.56 16.13 144.1"/><rect class="cls-4" x="12.65" y="133.17" width="48.04" height="3.48"/><rect class="cls-4" x="49.78" y="156.32" width="33.19" height="3.48"/><rect class="cls-4" x="12.65" y="156.32" width="33.19" height="3.48"/><polygon class="cls-4" points="153.75 148.07 149.81 148.07 149.81 133.17 146.33 133.17 146.33 148.07 142.38 148.07 142.38 133.17 138.9 133.17 138.9 140.62 124.05 140.62 124.05 151.56 134.96 151.56 134.96 148.07 127.53 148.07 127.53 144.1 138.9 144.1 138.9 151.56 157.24 151.56 157.24 133.17 153.75 133.17 153.75 148.07"/><rect class="cls-4" x="86.92" y="133.17" width="48.04" height="3.48"/><polygon class="cls-4" points="90.4 144.1 101.77 144.1 101.77 151.56 120.1 151.56 120.1 140.62 109.19 140.62 109.19 144.1 116.62 144.1 116.62 148.07 105.25 148.07 105.25 140.62 86.92 140.62 86.92 151.56 90.4 151.56 90.4 144.1"/><rect class="cls-4" x="86.92" y="156.32" width="33.19" height="3.48"/><rect class="cls-4" x="124.05" y="156.32" width="33.19" height="3.48"/><rect class="cls-4" x="383.98" y="327.46" width="48.04" height="3.48"/><polygon class="cls-4" points="450.82 342.36 446.87 342.36 446.87 327.46 443.39 327.46 443.39 342.36 439.45 342.36 439.45 327.46 435.96 327.46 435.96 334.91 421.11 334.91 421.11 345.85 432.02 345.85 432.02 342.36 424.59 342.36 424.59 338.39 435.96 338.39 435.96 345.85 454.3 345.85 454.3 327.46 450.82 327.46 450.82 342.36"/><polygon class="cls-4" points="406.26 338.39 413.69 338.39 413.69 342.36 402.31 342.36 402.31 334.91 383.98 334.91 383.98 345.85 387.46 345.85 387.46 338.39 398.83 338.39 398.83 345.85 417.17 345.85 417.17 334.91 406.26 334.91 406.26 338.39"/><rect class="cls-4" x="383.98" y="319.21" width="33.19" height="3.48"/><rect class="cls-4" x="421.11" y="319.21" width="33.19" height="3.48"/><polygon class="cls-4" points="480.52 338.39 487.95 338.39 487.95 342.36 476.58 342.36 476.58 334.91 458.25 334.91 458.25 345.85 461.73 345.85 461.73 338.39 473.1 338.39 473.1 345.85 491.43 345.85 491.43 334.91 480.52 334.91 480.52 338.39"/><polygon class="cls-4" points="525.09 342.36 521.14 342.36 521.14 327.46 517.66 327.46 517.66 342.36 513.71 342.36 513.71 327.46 510.23 327.46 510.23 334.91 495.38 334.91 495.38 345.85 506.29 345.85 506.29 342.36 498.86 342.36 498.86 338.39 510.23 338.39 510.23 345.85 528.57 345.85 528.57 327.46 525.09 327.46 525.09 342.36"/><rect class="cls-4" x="458.25" y="327.46" width="48.04" height="3.48"/><rect class="cls-4" x="458.25" y="319.21" width="33.19" height="3.48"/><rect class="cls-4" x="495.38" y="319.21" width="33.19" height="3.48"/><polygon class="cls-4" points="302.29 342.36 298.34 342.36 298.34 327.46 294.86 327.46 294.86 342.36 290.92 342.36 290.92 327.46 287.43 327.46 287.43 334.91 272.58 334.91 272.58 345.85 283.49 345.85 283.49 342.36 276.06 342.36 276.06 338.39 287.43 338.39 287.43 345.85 305.77 345.85 305.77 327.46 302.29 327.46 302.29 342.36"/><polygon class="cls-4" points="257.73 338.39 265.15 338.39 265.15 342.36 253.78 342.36 253.78 334.91 235.45 334.91 235.45 345.85 238.93 345.85 238.93 338.39 250.3 338.39 250.3 345.85 268.63 345.85 268.63 334.91 257.73 334.91 257.73 338.39"/><rect class="cls-4" x="235.45" y="327.46" width="48.04" height="3.48"/><rect class="cls-4" x="235.45" y="319.21" width="33.19" height="3.48"/><rect class="cls-4" x="272.58" y="319.21" width="33.19" height="3.48"/><polygon class="cls-4" points="331.99 338.39 339.42 338.39 339.42 342.36 328.05 342.36 328.05 334.91 309.71 334.91 309.71 345.85 313.19 345.85 313.19 338.39 324.57 338.39 324.57 345.85 342.9 345.85 342.9 334.91 331.99 334.91 331.99 338.39"/><polygon class="cls-4" points="376.55 342.36 372.61 342.36 372.61 327.46 369.13 327.46 369.13 342.36 365.18 342.36 365.18 327.46 361.7 327.46 361.7 334.91 346.85 334.91 346.85 345.85 357.75 345.85 357.75 342.36 350.33 342.36 350.33 338.39 361.7 338.39 361.7 345.85 380.03 345.85 380.03 327.46 376.55 327.46 376.55 342.36"/><rect class="cls-4" x="309.71" y="327.46" width="48.04" height="3.48"/><rect class="cls-4" x="346.85" y="319.21" width="33.19" height="3.48"/><rect class="cls-4" x="309.71" y="319.21" width="33.19" height="3.48"/><polygon class="cls-4" points="747.88 342.36 743.94 342.36 743.94 327.46 740.46 327.46 740.46 342.36 736.51 342.36 736.51 327.46 733.03 327.46 733.03 334.91 718.18 334.91 718.18 345.85 729.09 345.85 729.09 342.36 721.66 342.36 721.66 338.39 733.03 338.39 733.03 345.85 751.37 345.85 751.37 327.46 747.88 327.46 747.88 342.36"/><rect class="cls-4" x="681.04" y="327.46" width="48.04" height="3.48"/><polygon class="cls-4" points="703.32 338.39 710.75 338.39 710.75 342.36 699.38 342.36 699.38 334.91 681.04 334.91 681.04 345.85 684.52 345.85 684.52 338.39 695.9 338.39 695.9 345.85 714.23 345.85 714.23 334.91 703.32 334.91 703.32 338.39"/><rect class="cls-4" x="681.04" y="319.21" width="33.19" height="3.48"/><rect class="cls-4" x="718.18" y="319.21" width="33.19" height="3.48"/><rect class="cls-4" x="755.31" y="327.46" width="48.04" height="3.48"/><polygon class="cls-4" points="822.15 342.36 818.2 342.36 818.2 327.46 814.72 327.46 814.72 342.36 810.78 342.36 810.78 327.46 807.3 327.46 807.3 334.91 792.44 334.91 792.44 345.85 803.35 345.85 803.35 342.36 795.92 342.36 795.92 338.39 807.3 338.39 807.3 345.85 825.63 345.85 825.63 327.46 822.15 327.46 822.15 342.36"/><polygon class="cls-4" points="777.59 338.39 785.02 338.39 785.02 342.36 773.64 342.36 773.64 334.91 755.31 334.91 755.31 345.85 758.79 345.85 758.79 338.39 770.16 338.39 770.16 345.85 788.5 345.85 788.5 334.91 777.59 334.91 777.59 338.39"/><rect class="cls-4" x="792.44" y="319.21" width="33.19" height="3.48"/><rect class="cls-4" x="755.31" y="319.21" width="33.19" height="3.48"/><rect class="cls-4" x="532.51" y="327.46" width="48.04" height="3.48"/><polygon class="cls-4" points="599.35 342.36 595.41 342.36 595.41 327.46 591.92 327.46 591.92 342.36 587.98 342.36 587.98 327.46 584.5 327.46 584.5 334.91 569.64 334.91 569.64 345.85 580.55 345.85 580.55 342.36 573.13 342.36 573.13 338.39 584.5 338.39 584.5 345.85 602.83 345.85 602.83 327.46 599.35 327.46 599.35 342.36"/><polygon class="cls-4" points="554.79 338.39 562.22 338.39 562.22 342.36 550.85 342.36 550.85 334.91 532.51 334.91 532.51 345.85 535.99 345.85 535.99 338.39 547.37 338.39 547.37 345.85 565.7 345.85 565.7 334.91 554.79 334.91 554.79 338.39"/><rect class="cls-4" x="532.51" y="319.21" width="33.19" height="3.48"/><rect class="cls-4" x="569.64" y="319.21" width="33.19" height="3.48"/><polygon class="cls-4" points="629.06 338.39 636.48 338.39 636.48 342.36 625.11 342.36 625.11 334.91 606.78 334.91 606.78 345.85 610.26 345.85 610.26 338.39 621.63 338.39 621.63 345.85 639.97 345.85 639.97 334.91 629.06 334.91 629.06 338.39"/><polygon class="cls-4" points="673.62 342.36 669.67 342.36 669.67 327.46 666.19 327.46 666.19 342.36 662.25 342.36 662.25 327.46 658.76 327.46 658.76 334.91 643.91 334.91 643.91 345.85 654.82 345.85 654.82 342.36 647.39 342.36 647.39 338.39 658.76 338.39 658.76 345.85 677.1 345.85 677.1 327.46 673.62 327.46 673.62 342.36"/><rect class="cls-4" x="606.78" y="327.46" width="48.04" height="3.48"/><rect class="cls-4" x="606.78" y="319.21" width="33.19" height="3.48"/><rect class="cls-4" x="643.91" y="319.21" width="33.19" height="3.48"/><polygon class="cls-4" points="228.02 342.36 224.07 342.36 224.07 327.46 220.59 327.46 220.59 342.36 216.65 342.36 216.65 327.46 213.17 327.46 213.17 334.91 198.31 334.91 198.31 345.85 209.22 345.85 209.22 342.36 201.8 342.36 201.8 338.39 213.17 338.39 213.17 345.85 231.5 345.85 231.5 327.46 228.02 327.46 228.02 342.36"/><polygon class="cls-4" points="183.46 338.39 190.89 338.39 190.89 342.36 179.52 342.36 179.52 334.91 161.18 334.91 161.18 345.85 164.66 345.85 164.66 338.39 176.03 338.39 176.03 345.85 194.37 345.85 194.37 334.91 183.46 334.91 183.46 338.39"/><rect class="cls-4" x="161.18" y="327.46" width="48.04" height="3.48"/><rect class="cls-4" x="161.18" y="319.21" width="33.19" height="3.48"/><rect class="cls-4" x="198.31" y="319.21" width="33.19" height="3.48"/><polygon class="cls-4" points="34.93 338.39 42.35 338.39 42.35 342.36 30.98 342.36 30.98 334.91 12.65 334.91 12.65 345.85 16.13 345.85 16.13 338.39 27.5 338.39 27.5 345.85 45.84 345.85 45.84 334.91 34.93 334.91 34.93 338.39"/><polygon class="cls-4" points="79.49 342.36 75.54 342.36 75.54 327.46 72.06 327.46 72.06 342.36 68.12 342.36 68.12 327.46 64.64 327.46 64.64 334.91 49.78 334.91 49.78 345.85 60.69 345.85 60.69 342.36 53.26 342.36 53.26 338.39 64.64 338.39 64.64 345.85 82.97 345.85 82.97 327.46 79.49 327.46 79.49 342.36"/><rect class="cls-4" x="12.65" y="327.46" width="48.04" height="3.48"/><rect class="cls-4" x="49.78" y="319.21" width="33.19" height="3.48"/><rect class="cls-4" x="12.65" y="319.21" width="33.19" height="3.48"/><rect class="cls-4" x="86.92" y="327.46" width="48.04" height="3.48"/><polygon class="cls-4" points="153.75 342.36 149.81 342.36 149.81 327.46 146.33 327.46 146.33 342.36 142.38 342.36 142.38 327.46 138.9 327.46 138.9 334.91 124.05 334.91 124.05 345.85 134.96 345.85 134.96 342.36 127.53 342.36 127.53 338.39 138.9 338.39 138.9 345.85 157.24 345.85 157.24 327.46 153.75 327.46 153.75 342.36"/><polygon class="cls-4" points="109.19 338.39 116.62 338.39 116.62 342.36 105.25 342.36 105.25 334.91 86.92 334.91 86.92 345.85 90.4 345.85 90.4 338.39 101.77 338.39 101.77 345.85 120.1 345.85 120.1 334.91 109.19 334.91 109.19 338.39"/><rect class="cls-4" x="124.05" y="319.21" width="33.19" height="3.48"/><rect class="cls-4" x="86.92" y="319.21" width="33.19" height="3.48"/><path class="cls-3" d="M275.07,216.94s43.18,33.89,11.44,82.58C316.4,281.19,319,230.78,275.07,216.94Z" transform="translate(168.38 -20.51)"/><path class="cls-3" d="M226.44,216.94c-43.92,13.84-41.33,64.25-11.44,82.58C183.26,250.83,226.44,216.94,226.44,216.94Z" transform="translate(168.38 -20.51)"/><path class="cls-3" d="M288.35,259.53c-1.66-31.66-18.45-41.29-18.45-41.29s29.89,43.69-14,80.21l1.93-45.17V220.09c-2.49-.6-7.06-5.88-7.06-5.88s-4.56,5.28-7.05,5.88v33.19l1.93,45.17c-43.91-36.52-14-80.21-14-80.21s-16.79,9.63-18.45,41.29C212.6,290.82,241,306.19,241,306.19c-2.58,1.29-9.59,3.51-22.14,3.51,15.31,5.37,26.94,1.49,26.94,1.49l4.93,6.47,4.94-6.48s11.62,3.89,26.94-1.48c-12.55,0-19.56-2.22-22.14-3.52C260.49,306.18,288.9,290.82,288.35,259.53Z" transform="translate(168.38 -20.51)"/><path class="cls-3" d="M250.76,212.13c6.87,7.78,18.68.05,14.62-8.42-7.1,12.77-14.62,2.45-14.62,2.45s-7.52,10.32-14.63-2.45C232.07,212.18,243.88,219.91,250.76,212.13Z" transform="translate(168.38 -20.51)"/></g></svg>