<svg id="Layer_1" data-name="Layer 1" xmlns="http://www.w3.org/2000/svg" xmlns:xlink="http://www.w3.org/1999/xlink" viewBox="0 0 718.53 479.02"><defs><style>.cls-1{fill:none;}.cls-2{clip-path:url(#clip-path);}.cls-3{fill:#e00000;}.cls-4{fill:#ecd000;}</style><clipPath id="clip-path" transform="translate(-18.44 -23.43)"><circle class="cls-1" cx="257.95" cy="262.94" r="239.51"/></clipPath></defs><g class="cls-2"><rect class="cls-3" width="718.53" height="479.02"/><polygon class="cls-4" points="150.86 97.56 134.72 47.9 118.59 97.56 66.38 97.56 108.62 128.25 92.49 177.9 134.72 147.21 176.96 177.9 160.83 128.25 203.07 97.56 150.86 97.56"/><polygon class="cls-4" points="295.8 102.16 298.22 119.39 306.39 104.03 323.53 107.05 311.44 94.53 319.61 79.16 303.97 86.79 291.88 74.27 294.31 91.51 278.66 99.14 295.8 102.16"/><polygon class="cls-4" points="250.91 56.32 259.87 71.24 261.39 53.9 278.34 49.99 262.32 43.19 263.84 25.85 252.42 38.99 236.4 32.19 245.37 47.1 233.95 60.24 250.91 56.32"/><polygon class="cls-4" points="262.91 193.14 252.05 206.74 235.76 200.62 245.34 215.15 234.48 228.75 251.26 224.13 260.84 238.65 261.63 221.27 278.41 216.65 262.12 210.52 262.91 193.14"/><polygon class="cls-4" points="324.89 159.47 307.5 160.07 301.55 143.72 296.75 160.45 279.36 161.06 293.79 170.78 288.99 187.51 302.7 176.8 317.13 186.53 311.18 170.18 324.89 159.47"/></g></svg>