<svg id="Layer_1" data-name="Layer 1" xmlns="http://www.w3.org/2000/svg" xmlns:xlink="http://www.w3.org/1999/xlink" viewBox="0 0 958.03 479.02"><defs><style>.cls-1{fill:none;}.cls-2{clip-path:url(#clip-path);}.cls-3{fill:#fff;}.cls-4{opacity:0.1;}.cls-5{fill:#c00;}.cls-6{fill:#0c106c;}.cls-7{fill:#fcc600;}</style><clipPath id="clip-path" transform="translate(224.56 -19.16)"><circle class="cls-1" cx="254.46" cy="258.67" r="239.51"/></clipPath></defs><g class="cls-2"><rect class="cls-3" x="14.95" y="-220.35" width="479.02" height="958.03" transform="translate(737.69 -14.95) rotate(90)"/><polygon class="cls-4" points="954.04 444.8 954.04 475.03 3.99 475.03 3.99 444.8 0 444.8 0 479.02 958.03 479.02 958.03 444.8 954.04 444.8"/><rect class="cls-5" x="237.35" y="-32.16" width="34.22" height="958.03" transform="translate(925.87 173.23) rotate(90)"/><rect class="cls-5" x="237.35" y="-100.59" width="34.22" height="958.03" transform="translate(857.44 104.8) rotate(90)"/><rect class="cls-5" x="237.35" y="-169.02" width="34.22" height="958.03" transform="translate(789.01 36.37) rotate(90)"/><rect class="cls-5" x="237.35" y="-237.46" width="34.22" height="958.03" transform="translate(720.58 -32.06) rotate(90)"/><rect class="cls-5" x="237.35" y="-305.89" width="34.22" height="958.03" transform="translate(652.15 -100.49) rotate(90)"/><rect class="cls-5" x="237.35" y="-374.32" width="34.22" height="958.03" transform="translate(583.72 -168.92) rotate(90)"/><rect class="cls-5" x="237.35" y="-442.75" width="34.22" height="958.03" transform="translate(515.29 -237.35) rotate(90)"/><rect class="cls-6" width="479.02" height="273.72"/><polygon class="cls-7" points="428.41 187.35 461.05 174.72 426.17 177.5 450.09 151.95 419.86 169.59 430.34 136.2 410.76 165.21 405.7 130.57 400.65 165.21 381.07 136.2 391.55 169.59 361.32 151.95 385.24 177.5 350.35 174.72 383 187.35 350.35 199.98 385.24 197.2 361.32 222.75 391.55 205.1 381.07 238.5 400.65 209.49 405.7 244.12 410.76 209.49 430.34 238.5 419.86 205.1 450.09 222.75 426.17 197.2 461.05 199.98 428.41 187.35"/><path class="cls-7" d="M67.6,206.51a60.59,60.59,0,0,1,85.12-55.37,68.14,68.14,0,1,0,0,110.73A60.57,60.57,0,0,1,67.6,206.51Z" transform="translate(224.56 -19.16)"/></g></svg>