<svg xmlns="http://www.w3.org/2000/svg" xmlns:xlink="http://www.w3.org/1999/xlink" viewBox="0 0 929.7 514.99"><defs><style>.cls-1{fill:none;}.cls-2{isolation:isolate;}.cls-10,.cls-11,.cls-12,.cls-3,.cls-4,.cls-5{mix-blend-mode:multiply;opacity:0.06;}.cls-3{fill:url(#radial-gradient);}.cls-4{fill:url(#radial-gradient-2);}.cls-5{fill:url(#radial-gradient-3);}.cls-6{fill:#00a452;}.cls-7{fill:#e0002a;}.cls-8{fill:#0098c4;}.cls-9{fill:#0c1288;}.cls-10{fill:url(#radial-gradient-4);}.cls-11{fill:url(#radial-gradient-5);}.cls-12{fill:url(#radial-gradient-6);}.cls-13{fill:#e00000;}.cls-14{fill:#f80000;}.cls-15{fill:#2a9a42;}.cls-16{fill:#d01224;}.cls-17{clip-path:url(#clip-path);}.cls-18{fill:#fff;}</style><radialGradient id="radial-gradient" cx="610.48" cy="257.46" r="0" gradientUnits="userSpaceOnUse"><stop offset="0.9"/><stop offset="1" stop-color="#fff" stop-opacity="0"/></radialGradient><radialGradient id="radial-gradient-2" cx="864.94" cy="508.92" xlink:href="#radial-gradient"/><radialGradient id="radial-gradient-3" cx="448.22" cy="257.45" r="254.46" xlink:href="#radial-gradient"/><radialGradient id="radial-gradient-4" cx="884.54" cy="508.35" xlink:href="#radial-gradient"/><radialGradient id="radial-gradient-5" cx="464.85" cy="255.67" r="255.67" xlink:href="#radial-gradient"/><radialGradient id="radial-gradient-6" cx="-370.56" cy="-2.99" xlink:href="#radial-gradient"/><clipPath id="clip-path" transform="translate(207.86 -0.01)"><circle class="cls-1" cx="256.99" cy="251.03" r="232.43"/></clipPath></defs><g class="cls-2"><g id="Layer_1" data-name="Layer 1"><path class="cls-3" d="M610.48,257.46" transform="translate(207.86 -0.01)"/><path class="cls-4" d="M864.94,508.92" transform="translate(207.86 -0.01)"/><circle class="cls-5" cx="448.22" cy="257.45" r="254.46"/><path class="cls-6" d="M1155.17,319.08" transform="translate(207.86 -0.01)"/><path class="cls-6" d="M402.29,329.94" transform="translate(207.86 -0.01)"/><path class="cls-6" d="M1155.17,452.4" transform="translate(207.86 -0.01)"/><path class="cls-7" d="M1155.17,185.77" transform="translate(207.86 -0.01)"/><line class="cls-7" x1="610.15" y1="329.93" x2="610.15" y2="175.71"/><path class="cls-7" d="M1155.17,319.08" transform="translate(207.86 -0.01)"/><path class="cls-8" d="M1155.17,52.45" transform="translate(207.86 -0.01)"/><line class="cls-8" x1="610.15" y1="175.71" x2="610.15" y2="21.5"/><path class="cls-8" d="M1155.17,185.77" transform="translate(207.86 -0.01)"/><circle class="cls-1" cx="448.22" cy="252.82" r="231.33"/><line class="cls-9" x1="193.76" y1="21.5" x2="193.76" y2="514.99"/><path class="cls-10" d="M884.54,508.35" transform="translate(207.86 -0.01)"/><circle class="cls-11" cx="464.85" cy="255.67" r="255.67"/><path class="cls-12" d="M-370.56-3" transform="translate(207.86 -0.01)"/><path class="cls-13" d="M24.56,1061.52" transform="translate(207.86 -0.01)"/><path class="cls-13" d="M721.84,1061.52" transform="translate(207.86 -0.01)"/><path class="cls-14" d="M94.29,1061.52" transform="translate(207.86 -0.01)"/><path class="cls-14" d="M-835.41,596.67" transform="translate(207.86 -0.01)"/><path class="cls-15" d="M1581.82,325.51" transform="translate(207.86 -0.01)"/><path class="cls-15" d="M1581.82,480.46" transform="translate(207.86 -0.01)"/><path class="cls-16" d="M1581.82,15.6" transform="translate(207.86 -0.01)"/><path class="cls-16" d="M1581.82,325.51" transform="translate(207.86 -0.01)"/><g class="cls-17"><rect class="cls-6" x="179.51" y="-58.87" width="154.95" height="929.7" transform="translate(870.83 148.98) rotate(90)"/><rect class="cls-7" x="179.51" y="-213.82" width="154.95" height="929.7" transform="translate(715.88 -5.97) rotate(90)"/><rect class="cls-8" x="179.51" y="-368.77" width="154.95" height="929.7" transform="translate(560.93 -160.92) rotate(90)"/><polygon class="cls-18" points="565.76 251.02 546.39 243 554.42 223.63 535.05 231.65 527.02 212.28 519 231.65 499.63 223.63 507.66 243 488.29 251.02 507.66 259.04 499.63 278.41 519 270.39 527.03 289.76 535.05 270.39 554.42 278.41 546.39 259.04 565.76 251.02"/><path class="cls-18" d="M257,309.14a58.11,58.11,0,1,1,44.73-95.2,70.89,70.89,0,1,0,0,74.18A58,58,0,0,1,257,309.14Z" transform="translate(207.86 -0.01)"/></g><path class="cls-1" d="M-370.56,15.6" transform="translate(207.86 -0.01)"/></g></g></svg>