<svg xmlns="http://www.w3.org/2000/svg" xmlns:xlink="http://www.w3.org/1999/xlink" viewBox="0 0 693.98 512"><defs><style>.cls-1{isolation:isolate;}.cls-2,.cls-3,.cls-4,.cls-5{mix-blend-mode:multiply;opacity:0.06;}.cls-2{fill:url(#radial-gradient);}.cls-3{fill:url(#radial-gradient-2);}.cls-4{fill:url(#radial-gradient-3);}.cls-5{fill:url(#radial-gradient-4);}.cls-6{fill:#00a452;}.cls-7{fill:#e0002a;}.cls-8{fill:#0098c4;}.cls-9{fill:none;}.cls-10{fill:#d4080c;}.cls-11{fill:#fff;}.cls-12{fill:#0c1288;}</style><radialGradient id="radial-gradient" cx="864.94" cy="0" r="0" gradientUnits="userSpaceOnUse"><stop offset="0.9"/><stop offset="1" stop-color="#fff" stop-opacity="0"/></radialGradient><radialGradient id="radial-gradient-2" cx="610.48" cy="254.46" xlink:href="#radial-gradient"/><radialGradient id="radial-gradient-3" cx="864.94" cy="508.92" xlink:href="#radial-gradient"/><radialGradient id="radial-gradient-4" cx="346.99" cy="254.46" r="254.46" xlink:href="#radial-gradient"/></defs><g class="cls-1"><g id="Layer_1" data-name="Layer 1"><path class="cls-2" d="M864.94,0" transform="translate(106.63)"/><path class="cls-3" d="M610.48,254.46" transform="translate(106.63)"/><path class="cls-4" d="M864.94,508.92" transform="translate(106.63)"/><circle class="cls-5" cx="346.99" cy="254.46" r="254.46"/><path class="cls-6" d="M1155.17,319.08" transform="translate(106.63)"/><line class="cls-6" x1="508.92" y1="481.16" x2="508.92" y2="326.94"/><path class="cls-6" d="M1155.17,452.4" transform="translate(106.63)"/><path class="cls-7" d="M1155.17,185.77" transform="translate(106.63)"/><line class="cls-7" x1="508.92" y1="326.94" x2="508.92" y2="172.72"/><path class="cls-7" d="M1155.17,319.08" transform="translate(106.63)"/><path class="cls-8" d="M1155.17,52.45" transform="translate(106.63)"/><line class="cls-8" x1="508.92" y1="172.72" x2="508.92" y2="18.51"/><path class="cls-8" d="M1155.17,185.77" transform="translate(106.63)"/><path class="cls-9" d="M864.94,18.51" transform="translate(106.63)"/><path class="cls-9" d="M633.61,249.83" transform="translate(106.63)"/><path class="cls-9" d="M864.94,481.16" transform="translate(106.63)"/><rect class="cls-10" x="9.04" y="-97.16" width="462.65" height="693.98" transform="translate(596.82 9.47) rotate(90)"/><rect class="cls-11" x="163.25" y="-97.16" width="154.22" height="693.98" transform="translate(596.82 9.47) rotate(90)"/><circle class="cls-9" cx="346.99" cy="249.83" r="231.33"/><path class="cls-12" d="M-644.63,479.07" transform="translate(106.63)"/><line class="cls-12" x1="92.53" y1="18.51" x2="92.53" y2="512"/><path class="cls-12" d="M-644.63,52.45" transform="translate(106.63)"/><path d="M181.05,510.87h4.72" transform="translate(106.63)"/><path d="M256,511.62" transform="translate(106.63)"/></g></g></svg>