<svg xmlns="http://www.w3.org/2000/svg" xmlns:xlink="http://www.w3.org/1999/xlink" viewBox="0 0 684.31 526.92"><defs><style>.cls-1{fill:none;}.cls-2{isolation:isolate;}.cls-3{mix-blend-mode:multiply;opacity:0.06;fill:url(#radial-gradient);}.cls-4{clip-path:url(#clip-path);}.cls-5{fill:#009b3a;}.cls-6{fill:#fed800;}.cls-7{fill:#002776;}.cls-8{fill:#fff;}.cls-9{clip-path:url(#clip-path-2);}</style><radialGradient id="radial-gradient" cx="342.16" cy="263.46" r="263.46" gradientUnits="userSpaceOnUse"><stop offset="0.9"/><stop offset="1" stop-color="#fff" stop-opacity="0"/></radialGradient><clipPath id="clip-path" transform="translate(80.7 2.37)"><circle class="cls-1" cx="261.46" cy="256.29" r="239.51"/></clipPath><clipPath id="clip-path-2" transform="translate(80.7 2.37)"><circle class="cls-1" cx="261.46" cy="256.29" r="112.98"/></clipPath></defs><g class="cls-2"><g id="Layer_1" data-name="Layer 1"><circle class="cls-3" cx="342.16" cy="263.46" r="263.46"/><g class="cls-4"><rect class="cls-5" y="19.16" width="684.31" height="479.02"/><polygon class="cls-6" points="342.15 87.59 74.24 258.67 342.15 429.75 610.07 258.67 342.15 87.59"/><circle class="cls-7" cx="342.16" cy="258.67" r="112.98"/><polygon class="cls-8" points="378.38 221.9 377.29 218.54 376.19 221.9 372.67 221.9 375.52 223.97 374.43 227.33 377.29 225.25 380.14 227.33 379.05 223.97 381.9 221.9 378.38 221.9"/><polygon class="cls-8" points="373.09 254.37 375.06 255.79 374.31 253.49 376.27 252.06 373.84 252.06 373.09 249.75 372.34 252.06 369.91 252.06 371.88 253.49 371.13 255.79 373.09 254.37"/><polygon class="cls-8" points="300.31 262.21 299.35 259.26 298.39 262.21 295.29 262.21 297.8 264.04 296.84 266.99 299.35 265.17 301.86 266.99 300.9 264.04 303.41 262.21 300.31 262.21"/><polygon class="cls-8" points="251.3 237.36 250.15 233.8 248.99 237.36 245.25 237.36 248.28 239.56 247.12 243.11 250.15 240.91 253.17 243.11 252.02 239.56 255.04 237.36 251.3 237.36"/><polygon class="cls-8" points="261.08 284.3 259.93 280.75 258.77 284.3 255.05 284.3 258.06 286.49 256.91 290.03 259.93 287.84 262.94 290.03 261.79 286.49 264.8 284.3 261.08 284.3"/><polygon class="cls-8" points="247.02 294.85 246.22 292.4 245.42 294.85 242.84 294.85 244.93 296.37 244.13 298.82 246.22 297.3 248.31 298.82 247.51 296.37 249.6 294.85 247.02 294.85"/><polygon class="cls-8" points="271.52 278.27 271.02 276.73 270.52 278.27 268.9 278.27 270.21 279.23 269.71 280.77 271.02 279.81 272.33 280.77 271.83 279.23 273.14 278.27 271.52 278.27"/><polygon class="cls-8" points="284.47 295.71 283.56 292.88 282.64 295.71 279.67 295.71 282.07 297.45 281.15 300.27 283.56 298.53 285.96 300.27 285.04 297.45 287.44 295.71 284.47 295.71"/><polygon class="cls-8" points="280.9 307.14 279.98 304.31 279.06 307.14 276.1 307.14 278.5 308.88 277.58 311.7 279.98 309.96 282.38 311.7 281.46 308.88 283.87 307.14 280.9 307.14"/><polygon class="cls-8" points="297.89 317.08 296.8 313.71 295.7 317.08 292.17 317.08 295.03 319.15 293.93 322.52 296.8 320.44 299.65 322.52 298.56 319.15 301.42 317.08 297.89 317.08"/><polygon class="cls-8" points="343.25 307.9 342.16 304.53 341.07 307.9 337.53 307.9 340.39 309.97 339.3 313.34 342.16 311.26 345.02 313.34 343.93 309.97 346.79 307.9 343.25 307.9"/><polygon class="cls-8" points="337.49 295.05 338.84 294.07 337.18 294.07 336.66 292.49 336.14 294.07 334.48 294.07 335.83 295.05 335.31 296.64 336.66 295.66 338.01 296.64 337.49 295.05"/><polygon class="cls-8" points="331.41 285.92 330.64 283.54 329.87 285.92 327.38 285.92 329.4 287.38 328.63 289.75 330.64 288.29 332.66 289.75 331.89 287.38 333.91 285.92 331.41 285.92"/><polygon class="cls-8" points="339.86 280.25 342.29 278.48 344.73 280.25 343.8 277.38 346.24 275.61 343.23 275.61 342.29 272.75 341.36 275.61 338.35 275.61 340.79 277.38 339.86 280.25"/><polygon class="cls-8" points="356.23 285.7 355.3 282.84 354.37 285.7 351.35 285.7 353.79 287.48 352.86 290.34 355.3 288.57 357.74 290.34 356.81 287.48 359.24 285.7 356.23 285.7"/><polygon class="cls-8" points="418.34 302.36 421.32 300.19 424.3 302.36 423.16 298.86 426.14 296.69 422.46 296.69 421.32 293.19 420.18 296.69 416.49 296.69 419.47 298.86 418.34 302.36"/><polygon class="cls-8" points="439.96 298.42 437.72 298.42 437.03 296.29 436.34 298.42 434.1 298.42 435.91 299.73 435.22 301.86 437.03 300.55 438.84 301.86 438.15 299.73 439.96 298.42"/><polygon class="cls-8" points="426.91 306.9 425.95 303.94 424.99 306.9 421.88 306.9 424.39 308.73 423.43 311.68 425.95 309.86 428.46 311.68 427.5 308.73 430.02 306.9 426.91 306.9"/><polygon class="cls-8" points="420.11 316.04 419.11 312.94 418.1 316.04 414.85 316.04 417.48 317.95 416.48 321.04 419.11 319.13 421.74 321.04 420.73 317.95 423.36 316.04 420.11 316.04"/><polygon class="cls-8" points="410.64 322.03 409.92 319.81 409.2 322.03 406.86 322.03 408.75 323.41 408.03 325.63 409.92 324.25 411.81 325.63 411.09 323.41 412.98 322.03 410.64 322.03"/><polygon class="cls-8" points="396.35 323.56 398.27 322.16 400.19 323.56 399.46 321.3 401.38 319.91 399 319.91 398.27 317.65 397.54 319.91 395.17 319.91 397.09 321.3 396.35 323.56"/><polygon class="cls-8" points="398.76 327.88 397.82 330.75 394.81 330.75 397.25 332.52 396.32 335.39 398.76 333.62 401.19 335.39 400.26 332.52 402.7 330.75 399.69 330.75 398.76 327.88"/><polygon class="cls-8" points="399.28 342.44 398.58 340.28 397.88 342.44 395.6 342.44 397.44 343.77 396.74 345.93 398.58 344.6 400.42 345.94 399.71 343.77 401.55 342.44 399.28 342.44"/><polygon class="cls-8" points="386.27 323.8 385.6 321.73 384.93 323.8 382.75 323.8 384.51 325.08 383.84 327.14 385.6 325.87 387.36 327.14 386.69 325.08 388.45 323.8 386.27 323.8"/><polygon class="cls-8" points="367.82 320.98 367.11 318.77 366.39 320.98 364.08 320.98 365.95 322.34 365.24 324.54 367.11 323.18 368.98 324.54 368.27 322.34 370.14 320.98 367.82 320.98"/><polygon class="cls-8" points="376.89 333.46 375.94 330.52 374.98 333.46 371.89 333.46 374.39 335.28 373.43 338.22 375.94 336.4 378.44 338.22 377.48 335.28 379.98 333.46 376.89 333.46"/><polygon class="cls-8" points="342.56 346.49 342.13 345.18 341.71 346.49 340.34 346.49 341.45 347.3 341.02 348.6 342.13 347.79 343.25 348.6 342.82 347.3 343.93 346.49 342.56 346.49"/><g class="cls-9"><path class="cls-8" d="M150,211.84a119,119,0,0,0-5.44,17.29A259.83,259.83,0,0,1,375.11,295a120.44,120.44,0,0,0,4.53-17.55,274.35,274.35,0,0,0-182.92-69.52A277.15,277.15,0,0,0,150,211.84Z" transform="translate(80.7 2.37)"/></g><path class="cls-5" d="M168.59,213.12a4.92,4.92,0,0,0-3.72-.92,4.87,4.87,0,0,0-3.41,1.75,6.59,6.59,0,0,0,1,8.54,5.46,5.46,0,0,0,7.13-.83,6.59,6.59,0,0,0-1-8.54Zm-.76,7.42a3.06,3.06,0,0,1-3.93.46,4.66,4.66,0,0,1-.69-5.93,2.92,2.92,0,0,1,1.88-.95,2.89,2.89,0,0,1,2,.5,4.68,4.68,0,0,1,.69,5.92Z" transform="translate(80.7 2.37)"/><path class="cls-5" d="M184.5,220.26c0-.54-.15-1.95-.25-2.39a2,2,0,0,0-1.28-1.41,2.66,2.66,0,0,0,1.35-1.79,3.58,3.58,0,0,0-.24-2.16A2.47,2.47,0,0,0,181.5,211l-6,.36.66,10.74,2.21-.14-.26-4.24,2.59-.16c.77,0,1.3.28,1.39,1,0,.4,0,.78,0,1.18s.06.72.09,1a2.73,2.73,0,0,0,.36,1l2.37-.15,0-.4C184.72,221,184.54,220.87,184.5,220.26Zm-3.45-4.6-3,.18-.17-2.81,3-.18c1-.07,1.37.35,1.42,1.12A1.44,1.44,0,0,1,181.05,215.66Z" transform="translate(80.7 2.37)"/><path class="cls-5" d="M194.87,210.54l-5,.08.17,10.76,4.86-.08a3.86,3.86,0,0,0,3-1.94,7.16,7.16,0,0,0,.92-4,5.67,5.67,0,0,0-.51-2.39A3.78,3.78,0,0,0,194.87,210.54Zm1.42,7.45a2.31,2.31,0,0,1-2.29,1.48l-1.78,0-.11-7.07,2,0a2,2,0,0,1,2,1,4.19,4.19,0,0,1,.59,2.33A5.59,5.59,0,0,1,196.29,218Z" transform="translate(80.7 2.37)"/><polygon class="cls-5" points="284.63 223.75 292.67 224.07 292.74 222.23 286.92 221.99 287.03 219.22 292.18 219.43 292.25 217.59 287.1 217.38 287.2 214.93 292.78 215.16 292.86 213.31 285.07 212.99 284.63 223.75"/><polygon class="cls-5" points="302.95 222.4 301.74 213.98 298.52 213.68 297.5 224.38 299.7 224.59 300.53 215.93 301.61 224.78 303.81 224.99 306.55 216.5 305.72 225.17 307.93 225.38 308.95 214.67 305.73 214.37 302.95 222.4"/><polygon class="cls-5" points="320.27 227.15 327.1 228.35 327.37 226.79 322.43 225.91 322.85 223.56 327.21 224.33 327.49 222.77 323.12 221.99 323.49 219.91 328.22 220.75 328.5 219.19 321.89 218.02 320.27 227.15"/><path class="cls-5" d="M265.27,219.24l-4.63-1.19L258,228.47l2.14.55.95-3.72,2.56.66a3,3,0,0,0,3.45-1.1,4.74,4.74,0,0,0,.82-3.16A3.06,3.06,0,0,0,265.27,219.24Zm.05,4.32a1.33,1.33,0,0,1-1.39.57l-2.4-.61.8-3.13,2.3.58c.53.14,1.08.4,1.15,1.15A2.4,2.4,0,0,1,265.32,223.56Z" transform="translate(80.7 2.37)"/><path class="cls-5" d="M279.57,223.35l-5.7-1.77-3.2,10.27,2.11.66,1.27-4.06,2.48.77c.73.23,1.12.72,1,1.42-.14.38-.27.74-.38,1.12s-.2.7-.27,1a2.61,2.61,0,0,0,0,1l2.27.71.12-.38c-.18-.23-.31-.39-.13-1s.56-1.88.62-2.33A2,2,0,0,0,279,229a2.61,2.61,0,0,0,1.9-1.18,3.64,3.64,0,0,0,.54-2.11A2.49,2.49,0,0,0,279.57,223.35Zm-.35,3.09a1.44,1.44,0,0,1-1.74,1.15l-2.89-.9.84-2.69,2.86.89C279.25,225.18,279.44,225.71,279.22,226.44Z" transform="translate(80.7 2.37)"/><path class="cls-5" d="M291.85,227.41a4.81,4.81,0,0,0-3.83,0,6.58,6.58,0,0,0-3,8.05,5.46,5.46,0,0,0,6.72,2.49,6.58,6.58,0,0,0,3-8.05A4.81,4.81,0,0,0,291.85,227.41Zm.9,6.34a4.15,4.15,0,0,1-2.05,2.42A3.07,3.07,0,0,1,287,234.8a4.67,4.67,0,0,1,2.08-5.59,2.82,2.82,0,0,1,2.1,0,2.86,2.86,0,0,1,1.61,1.36A4.24,4.24,0,0,1,292.75,233.75Z" transform="translate(80.7 2.37)"/><path class="cls-5" d="M305.76,233a5.15,5.15,0,0,0-2-.47c-3.94,0-6.47,4.89-5.15,8.14a4.21,4.21,0,0,0,2.32,2.51,3.82,3.82,0,0,0,3.9-.09l-.3,1.34,1.22.53,2.33-5.33-3.95-1.72-.73,1.68,2.24,1a2.16,2.16,0,0,1-1.15,1.12,2.9,2.9,0,0,1-2.64-.07,3.18,3.18,0,0,1-1.48-2.76c0-1.36,1.12-3.83,2.81-4.34a3.09,3.09,0,0,1,2,.2,2.51,2.51,0,0,1,1.7,2.67l1.85.81a3.6,3.6,0,0,0-.15-2.71A4.74,4.74,0,0,0,305.76,233Z" transform="translate(80.7 2.37)"/><path class="cls-5" d="M320.79,240.33l-5.34-2.69-4.83,9.61,2,1,1.92-3.8,2.32,1.17a1.15,1.15,0,0,1,.7,1.56c-.19.35-.38.69-.56,1s-.31.65-.42.9a2.47,2.47,0,0,0-.18,1l2.12,1.07.18-.36c-.14-.25-.25-.44,0-1s.85-1.76,1-2.19a2,2,0,0,0-.4-1.87,2.66,2.66,0,0,0,2.07-.86,3.58,3.58,0,0,0,.88-2A2.46,2.46,0,0,0,320.79,240.33Zm-.85,3a1.43,1.43,0,0,1-1.9.84l-2.71-1.36,1.27-2.52,2.68,1.35C320.18,242.08,320.28,242.63,319.94,243.32Z" transform="translate(80.7 2.37)"/><polygon class="cls-5" points="414.82 252.12 415.74 250.52 408.97 246.66 403.64 256.01 410.63 259.99 411.54 258.39 406.48 255.5 407.85 253.09 412.33 255.64 413.24 254.04 408.77 251.49 409.98 249.36 414.82 252.12"/><path class="cls-5" d="M343.14,252.93c-2.24-1.43-3.92-1-5,.34a2.6,2.6,0,0,0,0,3.56c.91,1.15,2.72,2.3,2.91,3.29a1.29,1.29,0,0,1-1,1.51,2.67,2.67,0,0,1-1.71-.5,2.5,2.5,0,0,1-1.36-1.62,1.59,1.59,0,0,1,.21-1.18l-1.82-1.16a3.7,3.7,0,0,0-.22,3.15,4.94,4.94,0,0,0,1.82,2.06,6.46,6.46,0,0,0,3.24,1.17c1.6,0,3.47-1.84,3.11-3.61a5,5,0,0,0-1.57-2.27c-.3-.29-1.87-1.65-1.92-2-.31-.44-.43-.66,0-1.27s1.41-.59,2.31,0c1.26.86,1.47,1.9.95,2.62l1.76,1.12a3,3,0,0,0,.6-2.09C345.3,254.36,343.63,253.24,343.14,252.93Z" transform="translate(80.7 2.37)"/><path class="cls-5" d="M354.45,260.53c-2.17-1.53-3.87-1.2-5,.09a2.59,2.59,0,0,0-.13,3.56c.85,1.19,2.6,2.43,2.74,3.43a1.29,1.29,0,0,1-1.09,1.46,2.76,2.76,0,0,1-1.69-.58A2.59,2.59,0,0,1,348,266.8a1.65,1.65,0,0,1,.27-1.17l-1.76-1.25a3.71,3.71,0,0,0-.37,3.14,4.94,4.94,0,0,0,1.71,2.14A6.57,6.57,0,0,0,351,271c1.6.06,3.56-1.68,3.29-3.46a5,5,0,0,0-1.45-2.34c-.29-.31-1.79-1.74-1.82-2.1-.29-.46-.4-.69.07-1.28s1.43-.51,2.3.12c1.22.92,1.38,2,.83,2.67l1.69,1.2a3,3,0,0,0,.7-2.05C356.53,262.07,354.92,260.87,354.45,260.53Z" transform="translate(80.7 2.37)"/><path class="cls-5" d="M368.15,272.62a5.46,5.46,0,0,0-5.62-4.45,6.31,6.31,0,0,0-3.92,2.37,6.4,6.4,0,0,0-1.42,4.35,5.48,5.48,0,0,0,5.62,4.46,6.57,6.57,0,0,0,5.34-6.73Zm-3.09,3a4.15,4.15,0,0,1-2.69,1.66,3.06,3.06,0,0,1-3.1-2.46,4.68,4.68,0,0,1,3.7-4.67,2.91,2.91,0,0,1,2,.67,2.86,2.86,0,0,1,1.1,1.79A4.15,4.15,0,0,1,365.06,275.66Z" transform="translate(80.7 2.37)"/></g></g></g></svg>