<svg id="Layer_1" data-name="Layer 1" xmlns="http://www.w3.org/2000/svg" xmlns:xlink="http://www.w3.org/1999/xlink" viewBox="0 0 1044.23 515.21"><defs><style>.cls-1{fill:none;}.cls-2{clip-path:url(#clip-path);}.cls-3{fill:#0c1288;}.cls-4{clip-path:url(#clip-path-2);}.cls-5{fill:#fff;}.cls-6{fill:#ec060c;}</style><clipPath id="clip-path" transform="translate(153.87 0.45)"><circle class="cls-1" cx="262.4" cy="251.18" r="232.58"/></clipPath><clipPath id="clip-path-2" transform="translate(153.87 0.45)"><rect class="cls-1" x="-109.72" y="18.61" width="372.12" height="217.07"/></clipPath></defs><path class="cls-1" d="M890.35,483.76c-128.44,0-232.57-104.13-232.57-232.58S761.91,18.61,890.35,18.61" transform="translate(153.87 0.45)"/><g class="cls-2"><rect class="cls-3" x="44.15" y="19.05" width="744.24" height="496.16"/><rect class="cls-3" x="44.15" y="34.56" width="372.12" height="186.06"/><g class="cls-4"><rect class="cls-5" x="-171.74" y="108.54" width="496.16" height="37.21" transform="translate(218.79 -20.27) rotate(26.56)"/><rect class="cls-6" x="-43.58" y="-46.82" width="12.4" height="248.08" transform="translate(64.15 9.7) rotate(-63.44)"/><rect class="cls-6" x="183.86" y="53.03" width="12.4" height="248.08" transform="translate(100.56 268.32) rotate(-63.44)"/><rect class="cls-5" x="-171.74" y="108.54" width="496.16" height="37.21" transform="translate(105.07 48.01) rotate(-26.56)"/><rect class="cls-6" x="-155.87" y="181.96" width="248.08" height="12.4" transform="translate(66.36 6.07) rotate(-26.56)"/><rect class="cls-6" x="60.47" y="59.92" width="248.08" height="12.4" transform="translate(143.78 89.94) rotate(-26.56)"/><polygon class="cls-5" points="447.28 96.58 261.22 96.58 261.22 3.55 199.2 3.55 199.2 96.58 13.14 96.58 13.14 158.6 199.2 158.6 199.2 251.63 261.22 251.63 261.22 158.6 447.28 158.6 447.28 96.58"/><polygon class="cls-6" points="447.28 108.98 248.82 108.98 248.82 3.55 211.6 3.55 211.6 108.98 13.14 108.98 13.14 146.19 211.6 146.19 211.6 251.63 248.82 251.63 248.82 146.19 447.28 146.19 447.28 108.98"/></g><polygon class="cls-5" points="590.05 341.8 600.03 326.76 583.05 333.2 577.49 315.99 571.92 333.2 555.01 326.76 564.92 341.8 549.55 351 567.43 352.59 565.02 370.46 577.49 357.36 590.03 370.46 587.54 352.59 605.5 351 590.05 341.8"/><polygon class="cls-5" points="254.6 298.79 274.03 269.5 240.97 282.04 230.14 248.53 219.3 282.04 186.39 269.5 205.67 298.79 175.75 316.69 210.56 319.78 205.87 354.59 230.14 329.08 254.56 354.59 249.71 319.78 284.67 316.69 254.6 298.79"/><polygon class="cls-5" points="618.22 231.33 614.74 220.62 611.26 231.33 599.99 231.33 609.1 237.96 605.62 248.67 614.74 242.05 623.85 248.67 620.37 237.96 629.49 231.33 618.22 231.33"/><polygon class="cls-5" points="497.27 194.51 507.25 179.46 490.27 185.9 484.7 168.69 479.14 185.9 462.23 179.46 472.13 194.51 456.77 203.7 474.65 205.29 472.23 223.17 484.7 210.06 497.25 223.17 494.76 205.29 512.71 203.7 497.27 194.51"/><polygon class="cls-5" points="688.19 178.89 672.75 169.7 682.73 154.65 665.75 161.09 660.18 143.88 654.61 161.09 637.71 154.65 647.61 169.7 632.25 178.89 650.12 180.48 647.71 198.36 660.18 185.26 672.72 198.36 670.23 180.48 688.19 178.89"/><polygon class="cls-5" points="567.43 104.51 565.02 122.38 577.49 109.28 590.03 122.38 587.54 104.51 605.5 102.92 590.05 93.72 600.03 78.68 583.05 85.12 577.49 67.91 571.92 85.12 555.01 78.68 564.92 93.72 549.55 102.92 567.43 104.51"/></g></svg>