<svg xmlns="http://www.w3.org/2000/svg" xmlns:xlink="http://www.w3.org/1999/xlink" viewBox="0 0 718.53 533.79"><defs><style>.cls-1{fill:none;}.cls-2{isolation:isolate;}.cls-3{mix-blend-mode:multiply;opacity:0.06;fill:url(#radial-gradient);}.cls-4{clip-path:url(#clip-path);}.cls-5{fill:#006634;}.cls-6{fill:#fff;}</style><radialGradient id="radial-gradient" cx="359.26" cy="263.46" r="263.46" gradientUnits="userSpaceOnUse"><stop offset="0.9"/><stop offset="1" stop-color="#fff" stop-opacity="0"/></radialGradient><clipPath id="clip-path" transform="translate(97.73 12.73)"><circle class="cls-1" cx="261.54" cy="245.94" r="239.51"/></clipPath></defs><g class="cls-2"><g id="Layer_1" data-name="Layer 1"><circle class="cls-3" cx="359.26" cy="263.46" r="263.46"/><g class="cls-4"><rect class="cls-5" y="19.16" width="718.53" height="479.02"/><path class="cls-6" d="M91.27,131.89c2.87-2.15,2.64,3.79.23,10.45,1.43-2.37,4.31-7.37,4.07-11.41-.72-5.23-3.83-4.28-6.23-1.19C87.43,131.89,88.87,133.78,91.27,131.89Z" transform="translate(97.73 12.73)"/><path class="cls-6" d="M92.22,174.43c3.59-6.41,2.15-12.12,5.51-21.64,1.91-5.93,2.63-1.42,1.91,2.15-1.67,9.5-1.19,25,12.47,24.72.72,8.56,3.11,24.49,3.11,29.94.24,5.72,1,4.05,2.4,1s1.2-6.42.95-10.95c-.47-4.74-.72-12.59-1.67-23.28a16.73,16.73,0,0,0,4.31-5.24c1.92-3.56,2.39-3.33,3.11-.47,1.43,5.71,7.19,9.5,14.86,4,7.19-5,4.07-15.45.95-26.86,2.64.47,3.6-1.67,1.92-4.51a19.55,19.55,0,0,0-3.35-4.52c-1.21-1.44-2.39-2.62-3.59-1.19-1,1.42-2.16,2.61-2.89,3.56s-.71,1.9.26,4.27a74.41,74.41,0,0,1,5.27,17.84c.71,3.8-.72,4.76-3.36,4.76s-6.24-.72-7.66-6.42-2.17-8.32-1.93-12.14.72-6.41-1.92-10.2c-2.87-3.82-3.11-3.1-3.83-1.2-.48,2.14-1.43,5.24-.48,8.8,1.2,5.22,1.92,9.74,2.64,12.83.48,2.14-1.67,6.66-4.79,9-.73-7.13-1.92-16.65-2.4-24.25,4.08-1.43,1.92-6.89-1.44-12.83-2.39-4.52-3.35-2.63-5,.24s-.47,4,.72,6.41c-1,1.9.72,4.75,1.44,10,.24,3.32,1,12.85,1.68,21.16-3.36,0-5.28-2.14-6.47-5a20.54,20.54,0,0,1-.72-15c1.2-3.55,2.39-9,.24-10.45-1.92-1.42-4.55.25-6.23,2.85a33.76,33.76,0,0,0-5.75,16.88c-.24,2.61-1,7.61-2.16,9.51-1,1.91-2.63,2.14-4.3-.71-2.88-4.52-3.83-15.94-3.6-21.87,0-2.86-.72-3.33-1.68,0-3.12,11.41.48,23.77,3.12,29S89.82,178.71,92.22,174.43Z" transform="translate(97.73 12.73)"/><path class="cls-6" d="M128.15,135.92c1.2-1.43,1.2-1.66,2.41.24.71,1.43,3.11,1,3.83-.48.48-1.19,1.2-2.37.48-4s-.72-1.2-1.2.71c-.47,3.08-3.35,2.37-3.6-1.43,0-3.56-.72-1.66-1.68.72-1.66,3.55-4.07,2.84-4.07-.25,0-2.61-.72-4.75-1.91-1.66a6,6,0,0,0,1,5.7A3.22,3.22,0,0,0,128.15,135.92Z" transform="translate(97.73 12.73)"/><path class="cls-6" d="M105.64,191.55c2.39-.71,2.63-1,2.39-3.57,0-2.84-1.44-1.66-4.31-.71a46.52,46.52,0,0,0-20.36,14c-2.88,3.33-.49,1.66,1.44.23C88.63,198.67,100.12,193,105.64,191.55Z" transform="translate(97.73 12.73)"/><path class="cls-6" d="M91,238.14c-2.39,3.8-6.7-1.19-3.84-11.41.49-2.14,1.45-3.8,1.45-5.47a44.47,44.47,0,0,0-.25-5c-.47-1.66-1.43.71-2.15,3.8-1,4.52-4.06,6.66-2.87,20.21.72,8.56,10.55,7.85,10.78-2.37C94.37,234.81,93.18,234.33,91,238.14Z" transform="translate(97.73 12.73)"/><path class="cls-6" d="M156.9,207.72c0-3.57-.23-7.38-.47-11.42.47-.23.72-.71,1-1,2.15,6.9,12.23,5,15.33,1,1.68-1.9,1.68-2.14,3.11,0,2.16,3.09,9.59,4,11.51-.23a24.29,24.29,0,0,0,.95-12.13c-.47-3.33-1.2-3.1-3.35-1.42-2.4,1.9-.48,2.13-.24,4.51,1,9-6.95,8.32-7.9-.95-.48-5.7-1.45-3.56-2.17-.94-3.35,11.16-13.17,13.3-12.2.47.23-3.8-2.17-2.62-3.36-1.19a35.36,35.36,0,0,1-3.36,2.85c-.73-10.47-1.43-22.35-2.64-36.61,2.88,3.57,5.51-.48,3.6-4.52-1.43-3.09-3.6-10-5-13.78-1.2-3.8-1.92-2.62-5,.47-2.87,3.33-2.4,4-.95,7.37-.48,4.05.23,8.08,1.2,16.4.71,5.94,2.63,18.3,3.59,34-1.44.7-3.59,2.14-5,2.85a25,25,0,0,0-5.51-7.37c-4.31-4.27-7.91-4.53-11.51.71-3.35,5-3.1,6.18-2.87,10.71s-.72,6.17,2.87,7.35a8.61,8.61,0,0,0,7,0,66.57,66.57,0,0,0,6.48-2.13,8.67,8.67,0,0,1-1.2,6.88c-8.87,10.47-22.52,18.08-28.51,11.19-3.36-3.81-4.8-9.75-3.84-16.88,1-5.95-1-3.32-1.68-1.19-2.15,6.88-2.87,16.88,0,21.87,4.08,6.89,10.55,10,20.85,5.46s20.35-12.59,19.89-23.76c0-2.14-.24-4-.24-5.46,1-.49,2.63-1.68,3.83-2.16.23,3.82-.23,8.57,0,12.37.47,12.12-4.32,15.69-8.63,19-6,4.76-14.14,7.86-21.08,9-16.54,2.36-20.37-8.1-20.12-22.12,0-2.14,1-3.56,1-6.65-.23-6-1-5-2.87.95-1.67,5.7-3.84,19,1.67,29.95,5.75,10.93,25.17,7.84,40.25.71C156,234.81,157.62,221.26,156.9,207.72Zm-20.59-10.94c-4.32,1.18-5-.48-4.8-3.09s.48-3.33,3.36-2.14c1.19.47,2.62,2.14,4.07,4.27C138,196.07,137,196.53,136.31,196.78Z" transform="translate(97.73 12.73)"/><path class="cls-6" d="M174.16,220.07a14.44,14.44,0,0,0,1.67-9.5c-.23-2.39-.23-3.1-2.38-4-2.41-1-3.13.47-3.83,2.36-1,2.39.23,5,3.59,3.58a14.44,14.44,0,0,1-.49,7.13C171.77,221.73,172.72,222.69,174.16,220.07Z" transform="translate(97.73 12.73)"/><path class="cls-6" d="M179.67,160.16c-2.87,3.57-5,8.81-1,11.89,2.16,1.91,6.71-.24,8.38-3.8,1.68-3.81,1-4.28-1.91-1.19-4.08,4.52-8.14.48-3.83-5.71C184.23,157.08,182.54,156.12,179.67,160.16Z" transform="translate(97.73 12.73)"/><path class="cls-6" d="M167.69,160.88c10.3-4.52,16.29-10,19.4-15,2.88.47,3.61-1.91,2.16-3.81a20.13,20.13,0,0,0,1.92-5.22c2.64-9.51-6.94-10.46-9.82-3.1-1.2,3.33-1.2,7.14,1.91,9.75-4.07,5.71-10.54,11.17-17.49,15.69C162.17,161.35,162.89,163,167.69,160.88Zm17.73-25.68c1-2.13,2.15-.71,1.67.72A16.78,16.78,0,0,1,185.9,139C184.46,138.06,184.7,136.88,185.42,135.2Z" transform="translate(97.73 12.73)"/><path class="cls-6" d="M211.05,166.83c2.15-5.23,3.6-10.47,5-14s2.64-2.84,2.4.49c-.72,6.64-1.19,17.35,5.51,21.39s17-2.86,20.61-10c10.78,14.26,20.38,7.6,21.57-6.19.24-4.27-1.68-13.54-2.89-16.16-1.2-2.85-.48-2.85,1.21-1.42,1.68,1.66,4.55,2.61,3.11-2.14-1.68-4.52-3.6-7.13-6.24-9.28-2.38-2.13-2.87-.94-3.83.71s-.72,2.15-2.15,3.34c-1.44,1.42-1.2,2.13,0,4.75,4.07,10.45,7.9,25.67,1.43,27.1-6,1.18-9.81-11.64-10.06-17.36-.24-7.61-1.2-14-2.64-18.06-1.67-4-2.15-4.75-3.34-2.61-1,1.65-1.21,2.84-2.17,4.52s0,2.13.72,5.45c3.6,16.65,3.12,24.26-4.54,28.53-7.66,4.52-11.74.25-11.74-5a90.51,90.51,0,0,1,.48-16.4c.47-4.76,1.67-5.47,0-7.85-1.68-2.61-3.12-1.66-5.28,1.43-4.79,6.65-9.58,17.83-11.26,23.07-1.68,5.45-5,3.56-7.42-1-2.64-5.46-2.4-15.2-1.44-19s.47-5.47-1.2-1.18c-3.83,10.69-3.59,20.91,4.31,29.71C205.79,174.67,209.14,172.29,211.05,166.83Z" transform="translate(97.73 12.73)"/><path class="cls-6" d="M232.14,147.09c-.24,2.37.23,4.76,1.43.48a29.31,29.31,0,0,0-.48-13.79c-1.19-3.57-2.63-4.51-3.6-3.1-1.66,1.68-1.66,1.92-.23,4C230.7,136.4,232.86,141.63,232.14,147.09Z" transform="translate(97.73 12.73)"/><path class="cls-6" d="M192.84,219.83c-1.19,1.19-3.59,2.62-5.27,4-.23-3.08.25-7.36.25-9,0-2.14-.73-3.08-1.92-.48a70,70,0,0,0-5.27,14.51A242,242,0,0,1,151.15,246c-3.59,1.67-1.43,2.86,1.2,1.91,11.5-3.33,20.37-6.43,28-10,.49,6.17,3.13,11.16,8.63,12.36,11,2.84,22.76-6.43,34.75-23.3,3.1,8.31,10.06,19,29.46,22.1,7.91,1.2,7.91.24,8.86-3.33,1.2-3.8,1.92-4.51-4.55-6.18-8.37-3.09-11.26-9-3.12-12.35a158,158,0,0,1,27.08-8.09c4.8-.71,6.72-.23,8.4-5,1.67-5,2.63-5.95-3.13-5.47-5.74.71-34.5,1.19-41.45.71a149.7,149.7,0,0,1,20.13-8.31c2.16,1.43,3.11.95,2.4-.72a44.34,44.34,0,0,0,6.47-2.84c6.95-4.05,9.82-11.89,2.64-16.89s-13.42-6.65-17.26-1.18c-3.11,4.51-5.75,8.79-1.68,14.73-6.47,1.91-12.7,4.28-18.92,6.67-4.56,1.89-6.47,2.6-8.14,8.06s-2.41,6.19,3.83,6.43c8.37.48,15.81-.24,20.6,4.28-7.91,2.85-13.89,9-11,17.11a23.64,23.64,0,0,1-10.3-5.23c-6.22-5.7-5.75-16.16-8.38-28.29-2.39-12.12-7.67-22.35-9.34-26.39-1.68-4.27-2.4-2.37-3.84.71-1.2,3.1-2.63,4.76-1.2,8.57,2.88,7.61,7.67,22.58,9.83,30.9C216.33,227,205.06,240,195,241.46c-7.66,1.2-9.35-2.84-8.86-6.89a56.32,56.32,0,0,0,14.13-10.93c9.34-9,10.78-16.88,4.79-32.09,3.84.47,3.12-2.38-2.39-8.8-3.83-4.52-4.55-3.56-6.47.48s-3.11,6.41,1.2,8.07c.72,1.91,2.39,5,4.55,9.29C207,210.09,199.56,213.9,192.84,219.83Zm75.48-32.56c3.35,2.14,6.23,2.61,1.2,3.8-1.92.48-3.6.71-5.27,1.19a46,46,0,0,1-.72-4.76C263.28,185.14,264.72,185.14,268.32,187.27Z" transform="translate(97.73 12.73)"/><path class="cls-6" d="M247.71,181.55c0,5.95-1.92,5.95-4.07.26-.72-2.15-1.68-2.15-1.93.71,0,5.46-2.39,6.18-3.81.71-.48-2.39-1-4.28-1.45-.71-.48,3.33.23,5.46,1.45,7.12a2.41,2.41,0,0,0,4.3-.47c.72-2.14,1.21-2.38,2.64-.71,1.67,1.66,7.19.24,4.55-8.08C248.19,177,247.71,177.76,247.71,181.55Z" transform="translate(97.73 12.73)"/><path class="cls-6" d="M307.61,135.44c1.92,1.44,4.79,5.24,3.6,9.52-.72,3.32,0,5.93,2.15,1.18,2.16-5,.48-10.94-1.69-14.74-1.91-3.32-3.1-2.61-4.3-.72C306.42,132.6,305.7,134,307.61,135.44Z" transform="translate(97.73 12.73)"/><path class="cls-6" d="M270.24,137.34c-.24,2.15.48,3.58,3.59,4.76,6.23,8.08,12.46,16.4,18.21,25,.72,7.13,2.15,15,2.88,21.4,1.91,15.21,4.78,34.93,2.39,43.5-1.92,6.43,0,9.27,3.11-.48,2.88-9.75,2.64-19,.72-33.52-.72-5.7-1-12.82-1.67-19.48,10.06,15.44,19.16,30.18,23.23,40.41,2.16,5.46,4.08,6.65,2.64-1.43-2.16-10.7-12-27.82-26.59-50.16-.48-6-.72-11.41-.72-16.41,2.15,2.39,3.59,1,2.86-2.14-1.42-5.45-3.58-10-6.21-16.15-1-2.62-3.6-3.33-4.79.47-1.68,4.52-1.92,5.47.23,8.56-.23,3.33,1,9,1.44,14.26-2.64-3.81-6-8.56-8.63-12.59,4.08,1.66,6.47.46,2.88-3.33-3.6-4.05-8.62-8.08-11.74-10.95s-4.55-.94-4.07,1.66A32.73,32.73,0,0,1,270.24,137.34Z" transform="translate(97.73 12.73)"/><path class="cls-6" d="M312.16,158.27c-.72,3.56-1.91,2.13-2.87-.72-.47-1.89-1.45-.72-1.19,2.14.47,3.33,1.43,5,4.06,2.62,1.2-1.18,1.68-1.18,3.36.23a2.2,2.2,0,0,0,3.59-.71c.47-1.19.72-2.38.24-5.94-.49-3.33-1.44-1.66-2.15,1.43-.48,3.08-2.4,3.56-3.12.23C313.6,154.23,312.65,155.18,312.16,158.27Z" transform="translate(97.73 12.73)"/><path class="cls-6" d="M280.06,247.41c2.15-.47,6-3.33,8.63-5.47,3.35-2.61.95-2.61-1.2-1.66-2.4.95-4.08,2.13-6.95,3.09-3.11,1.19-3.83-.24-2.4-5,1.43-4.06,0-4.3-1.92-3.34-1.91.71-3.11,1.9-5.5,3.34-1.2.71-1.45,2.13,1.91.71,2.88-1.19,2.16.23,1.2,3.8C272.87,246.69,275.26,248.6,280.06,247.41Z" transform="translate(97.73 12.73)"/><path class="cls-6" d="M329.17,206.29c.71,13.31,2.63,19.49-5.75,28.52-9.1,9.75-14.6,12.13-18.68,13.08-5,1.42-6.95,3.56.72,3.08,11.26-.7,12.93-.94,22.05-11.64,5.26-5.7,7.9-13.31,7.42-30.9-.48-30.92-4.79-44.22-4.07-60.86,1.91,1.67,4.07,1.67,2.87-1.9s-2.16-7.85-3.36-11.89-1.91-5-3.35-3.1c-1.68,2.15-2.88,2.87-4.07,4.29-1.21,1.19-1.44,3.81,0,6.18A555.64,555.64,0,0,1,329.17,206.29Z" transform="translate(97.73 12.73)"/><path class="cls-6" d="M348.82,209.37c1,7.61,2.16,12.6.25,20.93-.73,2.6.23,3.33,1.91.24,6.7-12.6,2.16-23.54,1.44-30.67-1.21-10.94-5-40-5.76-51.59l.72.47c3.35,1.68,6.95,2.62,4.31-1.42-2.62-3.8-4.79-10.22-6.22-15-1.69-4.76-2.16-4.52-4.8-.47-4.07,6.17-.47,12.11.48,19.25C344.52,176.57,347.86,202.49,348.82,209.37Z" transform="translate(97.73 12.73)"/><path class="cls-6" d="M363.91,168c2.4,2.37,4.08,6.41,5.27,8.78,1.69,3.58,2.64.48,2.64-1.65.24-2.38-.48-9,.24-11.42,1.43-3.33,3.59,1.42,4.56-.95.72-1.65-.72-1.9-1.21-3.79-.72-2.16-1.67-1.91-3.35-.72a6.73,6.73,0,0,0-2.4,3.79c-.23,2.15.24,5,.49,8.1,0,2.61-.49,3.08-1.45,1.18-.71-1.9-3.12-7.13-4.54-8.8A1.88,1.88,0,0,0,360.8,164a19.93,19.93,0,0,1,0,3.8C360.56,170.16,363.43,170.16,363.91,168Z" transform="translate(97.73 12.73)"/><path class="cls-6" d="M378.06,183.94c-2.16,2.14-8.88,6.9-11.26,8.8-2.89,2.37-3.6,2.85-3.6,4.51s3.11-.72,5.5-2.62a99,99,0,0,1,11.75-7.13c2.63-1.42,2.15-2.36,1.91-5C381.89,179.9,380.2,181.81,378.06,183.94Z" transform="translate(97.73 12.73)"/><path class="cls-6" d="M394.83,175.15c4.78,6.66,9.1,12.59,12.45,17.34,1.67,9.52,2.64,18.08,2.16,25-.49,7.84,1.2,7.84,2.87-.24.47-3.32.47-10.22-.25-18.55,6.48,8.57,10.31,14.27,12.95,18.31,2.87,5,4.55,9.27,3.83-.95-.48-3.33-1.42-6.66-5.75-13.08-4.31-6.17-8.14-11.88-12-17.34-1.19-14.27-2.88-29.49-2.88-37.57,1.93,1.91,3.36,0,2.41-3.08s-2.88-11.41-4.31-15c-1.22-3.33-2.65-2.61-4.57.47-1.67,3.1-2.87,4.52-1.67,6.89a279.47,279.47,0,0,0,4.55,39.23c-3.83-5.23-7.43-10.22-10.78-14.74-.23-5.23-.72-10.46-.95-15.69,2.15,1.67,3.11,1.19,1.92-1.89-1-3.33-3.6-10.23-4.8-13.32s-1.92-3.09-3.59-.72c-2.65,4-3.36,6.9-1.2,10.71.24,3.33.72,6.89.95,10-2.15-2.85-4.07-5.7-5.74-8.31,2.15,1.18,3.83-.72,1.44-2.86-2.16-2.13-6.72-5.7-8.63-8.32-2.17-2.61-4.08-2.61-4.08-.23a59,59,0,0,1,0,6.65c-.48,1.9-.48,3.81,2.4,7.14,5.52,6.64,10.78,13.54,15.81,20,1.92,23.78,3.11,39,2.64,48.5-.24,5.7-2.16,9-5.27,10-3.12,1.2-6.23-.94-9.11-5.21-5.28-7.61-7.19-6.19-11.26.46a156.53,156.53,0,0,0-8.61,15.93c-1.93,4.28-5.29,8.09-8.4,2.38a34.1,34.1,0,0,1-3.12-16.64c0-4.51-.71-8.09-2.38-1-4.32,17.6-1.68,21.4,3.11,25.21,6,5.22,7.9,5.71,11,1.18,6.23-8.55,7.9-16.15,11.5-20.44,2.86-3.33,2.86-.71,4.31.95,3.59,4.52,6.71,6.19,11.73,6.9,5,.94,14.14-3.33,13.43-20C396.5,203.19,395.78,189.64,394.83,175.15Z" transform="translate(97.73 12.73)"/><path class="cls-6" d="M418.54,154.94c0,4.05,1.43,3.56,2.15-.24A30.9,30.9,0,0,0,419,139c-2.16-5.23-2.87-3.33-4.07-1.67-1.44,2.38-1.2,2.86.47,5.47A27.36,27.36,0,0,1,418.54,154.94Z" transform="translate(97.73 12.73)"/><path class="cls-6" d="M438.67,201.06c-1.21-30.9-5.28-44.46-4.33-56.1,2.64,2.37,4.09,1.66,2.4-2.38-1.91-4-3.83-8.32-5.5-12.13-1.91-4-2.4-3.08-4.55-.24-2.39,2.86-2.64,5-1.68,6.67,4.55,37.79,6.71,57.52,7.19,68.94.95,16.63-3.12,25.89-19.42,36.59-5.26,3.57-11.25,7.62,1.44,4.53C426.69,243.84,440.1,235.52,438.67,201.06Z" transform="translate(97.73 12.73)"/><path class="cls-6" d="M382,206.86c2.16-3.71.49-8.13-1.67-11-1.91-2.47-3.12-1.95-4.31-.53-1,1.42-1.69,2.47.23,3.53s4.79,3.88,3.6,7.07C379.1,208.44,379.82,210.38,382,206.86Z" transform="translate(97.73 12.73)"/><path class="cls-6" d="M393,242.63c-.49,0-.77-1,0-2.34a9.4,9.4,0,0,0,1.26-2.42c.46-1,.07-1.7-1.62-2.26a13.59,13.59,0,0,0-4.32,0c-1,.21-1.39.67-1.57,1.91.07,1.89,1.22,1.77,2.4,2.52.71.86,1.15,1.68,0,3.09-1.14,1-1.93,1.59-3.06,2.61-.53.91-.87,2.26.75,2.7,3,.84,8.68-2.88,8.68-3a2.2,2.2,0,0,0,.66-2.43C395.48,242.3,394,242.75,393,242.63Z" transform="translate(97.73 12.73)"/><path class="cls-6" d="M380.47,343.85c-9.31.17-18.81.32-28.45.41l0-3.1c2.58-2.89,2.64-4,.51-7.14-1.06-1.37-1.42-1.7-2-1.7s-1.31.56-2.21,1.83c-1.82,2.55-2.28,3.58.83,7.17l0,2.93c-73.29.66-154.63-.42-224.1-1.49,7.62,12.62,33.72,12.75,87.23,12.94,21.88.08,66.63-.75,137.13-2.22l.08,3.37c-3.13,3.55-2.35,4.66-1,6.64.94,1.35,1.69,2.2,2.6,2.21s1.52-1.06,2-1.71a7.05,7.05,0,0,0,.91-1.67l11.26-.21c0,1.15,1.82,2.16,2.77,2.16a2.69,2.69,0,0,0,2.52-2.38l12.34-.13a5.62,5.62,0,0,0,4.89,2.81c4.55-.21,6.48-5.44,6-11.86C393.14,345.1,389.33,343.65,380.47,343.85Zm1.39,15.07L370.6,359a2.88,2.88,0,0,0-2.64-2.12,2.8,2.8,0,0,0-2.65,2.34l-11.15.19a6.34,6.34,0,0,0-2-2.83l0-3.18q14.68-.35,30.25-.77A12.43,12.43,0,0,0,381.86,358.92Z" transform="translate(97.73 12.73)"/></g><path d="M240.77,521.06v-4.84H245v4.84Z" transform="translate(97.73 12.73)"/><path d="M363.26,521.06v-4.84h4.21v4.84Z" transform="translate(97.73 12.73)"/></g></g></svg>