<svg id="Layer_1" data-name="Layer 1" xmlns="http://www.w3.org/2000/svg" xmlns:xlink="http://www.w3.org/1999/xlink" viewBox="0 0 808 505"><defs><style>.cls-1{fill:none;}.cls-2{clip-path:url(#clip-path);}.cls-3{fill:#74ace0;}.cls-4{fill:#fff;}.cls-5{fill:#fcc030;}.cls-6{fill:#7c300c;}</style><clipPath id="clip-path" transform="translate(146.51 -4.28)"><circle class="cls-1" cx="257.49" cy="256.78" r="252.5"/></clipPath></defs><g class="cls-2"><rect class="cls-3" width="808" height="505"/><rect class="cls-4" x="173.32" y="-147.22" width="168.33" height="808" transform="translate(660.78 -4.99) rotate(90)"/><path class="cls-5" d="M327.57,257.06a.61.61,0,0,0,.06-.28c0-.87-1.3-.87-1.3-.87l-43.92-1.65c8.36-.4,13.46-5.44,21.38-4.73a19.42,19.42,0,0,0,4.41-.08c5.84-.78,9.52-4,12.21-4.9a7.08,7.08,0,0,1,4.88.36c.43.13.73.14.88-.17a.74.74,0,0,0-.06-.64c-.53-1-3-2.33-6.79-1.76-4.7.69-6.09,4.26-16.48,3.42-9.5-.77-12.35,3.41-20,3.19l38.59-17.72s1.2-.49.87-1.29-1.52-.31-1.52-.31l-41.25,15.3c4.39-2.07,7.18-5.14,10.21-7.83l.31-.29,0,0a21.7,21.7,0,0,1,5.86-3.84c.5-.21,1-.4,1.56-.57a19.65,19.65,0,0,0,5.16-2.47c4.31-2.92,6.3-6.8,8.28-8.5,2.48-2.13,5-1.1,5.35-1.84a.34.34,0,0,0,0-.18c.07-1.08-3.16-2-7.24.39-3.06,1.83-3.78,4.44-8.13,7a29.62,29.62,0,0,1-5.79,2.48,25.49,25.49,0,0,0-3.3,1.31c-5.24,2.5-7.19,5.77-11.47,8.14a18.6,18.6,0,0,1-2.49,1.15l28.87-31.13.13-.15a1.53,1.53,0,0,0,.39-.88.68.68,0,0,0-.21-.5.71.71,0,0,0-.5-.21,1.81,1.81,0,0,0-1,.52l-32.23,29.89a32.53,32.53,0,0,0,5.39-8.95c1.58-3.45,3.11-6.78,6.39-9.52,6.55-5.47,6.65-12.17,8.22-15.28a7.18,7.18,0,0,1,3.71-3.19c.4-.21.62-.41.5-.73-.35-1-3.7-.68-6.54,3.13s-1.3,7.33-9.23,14.08c-7.26,6.17-6.32,11.14-11.9,16.4l14.76-39.82s.5-1.19-.3-1.52-1.29.86-1.29.86l-18.35,40a23.15,23.15,0,0,0,.95-3.5c1.21-6.41-.26-12.1,2.88-18.08a19.64,19.64,0,0,0,2.27-9c0-1.15-.06-2.23-.15-3.23-.16-1.67-.38-3.12-.39-4.31a5.2,5.2,0,0,1,0-.69c.26-3.47,3.1-4.43,2.38-5.24a.85.85,0,0,0-.89-.14l-.24.1a3.43,3.43,0,0,0-.41.18l-.08.06a4.29,4.29,0,0,0-.63.47l-.1.11a9.42,9.42,0,0,0-2.49,4.63,10.2,10.2,0,0,0-.31,2.44c0,1.3.11,2.58.08,4.07a20.19,20.19,0,0,1-2.11,8.36c-.24.53-.51,1.08-.8,1.66-4.35,8.48-1.58,12.71-4.72,19.7l-1.6-42.43s0-1.29-.86-1.3-.86,1.3-.86,1.3L255,231.86c-.4-8.37-5.44-13.46-4.73-21.39.77-8.5-3.9-13.31-5-16.62s1.17-5.28.2-5.75-3.11,2.14-2.41,6.84,4.26,6.1,3.42,16.49c-.77,9.49,3.41,12.35,3.19,20l-17.72-38.6s-.49-1.19-1.29-.86-.3,1.52-.3,1.52l15.29,41.24c-3.57-7.59-10.19-10.37-12.56-18-2.55-8.15-8.71-10.8-11-13.44a5.79,5.79,0,0,1-1.12-2c-.64-1.87-.09-3.4-.9-3.45-1-.06-1.92,2.78,0,6.49a8.33,8.33,0,0,0,.42.76c2.43,4.08,6.26,4,9.47,13.92,2.4,7.43,6.16,9.45,8.94,13.89a18.89,18.89,0,0,1,1.65,3.37l-31.13-28.87a.12.12,0,0,0,0,0c-.18-.17-.95-.81-1.49-.27a.68.68,0,0,0-.21.5,1.77,1.77,0,0,0,.52,1l29.89,32.24a32.63,32.63,0,0,0-8.94-5.39c-3.46-1.58-6.79-3.11-9.53-6.39-5.46-6.55-12.17-6.65-15.27-8.23a7.07,7.07,0,0,1-3.19-3.7c-.22-.4-.42-.62-.74-.51-1,.36-.68,3.71,3.14,6.55s7.32,1.29,14.07,9.23c6.18,7.26,11.14,6.32,16.4,11.9l-39.81-14.77s-1.2-.49-1.53.3.86,1.3.86,1.3l40,18.35c-7.89-2.85-14.53-.13-21.59-3.83a19.64,19.64,0,0,0-9-2.27c-2.68,0-5,.39-6.8.51a11.45,11.45,0,0,1-1.43,0,6.17,6.17,0,0,1-.62-.08,5.88,5.88,0,0,1-1.45-.46l-.1,0a8.28,8.28,0,0,1-1.79-1.28c-.57-.5-.94-.83-1.28-.53h0c-.8.72.8,3.69,5.41,4.85a11.75,11.75,0,0,0,3.22.31c3.13-.07,6.36-.73,13.31,2.83,8.48,4.34,12.71,1.58,19.7,4.72l-42.43,1.59s-1.29,0-1.29.87a.69.69,0,0,0,.2.5,1.51,1.51,0,0,0,.86.34l.18,0h0l43.92,1.65c-8.36.41-13.45,5.44-21.37,4.73a19.59,19.59,0,0,0-7,.6c-4.41,1.21-7.39,3.65-9.66,4.39a7.12,7.12,0,0,1-4.88-.37l-.24-.06a1,1,0,0,0-.39,0,.43.43,0,0,0-.25.23c-.17.37.08.89.72,1.37,1.06.8,3.19,1.47,6.13,1,4.7-.7,6.09-4.26,16.48-3.42,9.5.76,12.35-3.42,20-3.19l-38.6,17.71s-1.19.5-.86,1.3,1.52.3,1.52.3l41.24-15.29c-6.06,2.85-9.06,7.65-13.89,10.67a17.59,17.59,0,0,1-4.08,1.89c-8.15,2.55-10.8,8.7-13.44,11a6.18,6.18,0,0,1-3.75,1.46,3.45,3.45,0,0,0-1.5.25.36.36,0,0,0-.14.3.61.61,0,0,0,.15.43c.67.85,3.56,1.29,7.09-.82,4.08-2.44,4-6.27,13.92-9.47,6.81-2.2,9.08-5.55,12.83-8.23a19.15,19.15,0,0,1,4.43-2.37L208.2,304.85l0,0c-.17.18-.8.95-.27,1.48s1.53-.3,1.53-.3l32.23-29.9a32.68,32.68,0,0,0-5.39,8.95c-1.58,3.46-3.11,6.79-6.39,9.52-6.55,5.47-6.65,12.17-8.22,15.28a7.17,7.17,0,0,1-3.71,3.19c-.4.22-.62.42-.51.74.36,1,3.71.68,6.55-3.14s1.3-7.32,9.23-14.08c.5-.42.95-.83,1.38-1.24,5.78-5.61,5.32-10.25,10.52-15.15l-14.76,39.81s-.5,1.2.3,1.53,1.29-.87,1.29-.87l18.35-40c-2.85,7.89-.13,14.53-3.83,21.59-.25.47-.47.94-.67,1.4-3,6.85-.88,12.48-1.08,15.75v.11a7.11,7.11,0,0,1-2.2,4.37c-.29.35-.41.62-.19.87a.6.6,0,0,0,.37.19c1.07.17,3.46-1.56,4.48-5.59.07-.29.13-.57.17-.84.49-3-.53-5.38.64-9.85a29.91,29.91,0,0,1,2.33-5.85c3.12-6.09,2.57-10,3.17-14.29a19.16,19.16,0,0,1,1.55-5.4l1.6,42.42s0,1.3.86,1.3.86-1.3.86-1.3L260,281.7c.41,8.37,5.45,13.46,4.73,21.38-.76,8.5,3.91,13.31,5,16.62s-1.17,5.28-.2,5.76,3.1-2.14,2.41-6.85-4.26-6.1-3.42-16.48c.76-9.5-3.41-12.35-3.19-20L283,320.71s.5,1.2,1.3.87.3-1.52.3-1.52l-15.29-41.25c3.06,6.51,8.34,9.48,11.29,15l.11.17.13.3a15.81,15.81,0,0,1,1,2.52,19.44,19.44,0,0,0,2.14,4.65c2.95,4.66,7.06,6.74,8.83,8.8,2.27,2.64.94,5.33,2,5.39h0c.74.05,1.43-1.47,1-3.74a10.86,10.86,0,0,0-1.39-3.5,11.46,11.46,0,0,0-2.06-2.5c-2.25-2.17-5-4-7.41-11.42a23.81,23.81,0,0,0-3.37-6.79c-2.55-3.59-5.39-5.65-7.22-10.47l31.13,28.87,0,0c.18.16.95.8,1.49.26s-.31-1.52-.31-1.52l-29.9-32.24a32.47,32.47,0,0,0,8.95,5.4c3.46,1.58,6.79,3.11,9.52,6.38,5.47,6.56,12.18,6.66,15.28,8.23a7.08,7.08,0,0,1,3.19,3.71c.22.4.42.61.74.5,1-.35.68-3.71-3.14-6.54s-7.32-1.3-14.07-9.23c-.43-.5-.84-1-1.25-1.38-5.61-5.78-10.25-5.33-15.15-10.52l39.81,14.76s1.2.5,1.53-.3-.87-1.29-.87-1.29l-40-18.35c7.36,2.66,13.64.47,20.18,3.16.46.2.94.42,1.41.66a19.37,19.37,0,0,0,6.66,2.11c4.53.58,8.22-.54,10.6-.35a6,6,0,0,1,3.62,1.56c.78.65,1.22,1.18,1.63.82a.57.57,0,0,0,.18-.37,1.38,1.38,0,0,0,0-.44c-.26-1.18-2-3.14-5.56-4-3.18-.8-5.44.27-9.6-.56A27,27,0,0,1,303.6,264a24.07,24.07,0,0,0-8.34-2.59c-3.82-.47-7.07-.2-11.35-2.12l8.66-.33,33.76-1.27a2.31,2.31,0,0,0,.59-.09A.9.9,0,0,0,327.57,257.06Z" transform="translate(146.51 -4.28)"/><path class="cls-6" d="M257.49,327.3c-1,0-1.25-1.1-1.24-1.68L254.72,285a19.15,19.15,0,0,0-.86,3.64c-.15,1-.22,2-.3,3.08a26.35,26.35,0,0,1-2.91,11.34,28.41,28.41,0,0,0-2.3,5.77,18.58,18.58,0,0,0-.53,6.22,16.71,16.71,0,0,1-.11,3.59,7.49,7.49,0,0,1-.18.87c-1,4.12-3.54,6.1-4.9,5.88a1,1,0,0,1-.59-.31c-.48-.55,0-1.14.17-1.37l.34-.4a6,6,0,0,0,1.78-3.76l.38-.08-.37,0a20.72,20.72,0,0,0-.21-3.21c-.36-3.22-.86-7.64,1.32-12.67.2-.47.43-.95.68-1.43,1.94-3.71,2.07-7.3,2.21-11.1a49.52,49.52,0,0,1,.52-6.29l-16.58,36.11a2.12,2.12,0,0,1-.95,1.06,1.09,1.09,0,0,1-1.42-.58,2.07,2.07,0,0,1,.09-1.44l14.13-38.11a25.83,25.83,0,0,0-3.65,5.77,26.88,26.88,0,0,1-5.63,8.09c-.44.42-.91.85-1.39,1.26-5.17,4.4-6.26,7.38-7.21,10a14.47,14.47,0,0,1-2,4c-2.15,2.9-4.71,4-6.18,3.75a1.17,1.17,0,0,1-1-.72c-.24-.69.42-1.05.67-1.19l.47-.24a6.05,6.05,0,0,0,3.09-2.79,19,19,0,0,0,1.08-3.13c1-3.46,2.36-8.2,7.24-12.27,3.22-2.69,4.71-5.94,6.29-9.39a47.69,47.69,0,0,1,2.89-5.63l-29.14,27c-.39.39-1.35,1-2,.29s-.26-1.43.26-2l27.69-29.86a19,19,0,0,0-2.71,1.62c-1,.73-1.92,1.5-2.88,2.32a26.13,26.13,0,0,1-10.06,6c-6.45,2.08-8.59,4.42-10.48,6.48a14.52,14.52,0,0,1-3.36,3c-3.62,2.16-6.72,1.81-7.58.72a1,1,0,0,1-.23-.68.74.74,0,0,1,.28-.57,2.33,2.33,0,0,1,1.33-.31l.38,0a5.71,5.71,0,0,0,3.53-1.37,18.61,18.61,0,0,0,2.2-2.48c2.24-2.81,5.31-6.66,11.38-8.56a17.14,17.14,0,0,0,4-1.85,36.77,36.77,0,0,0,5.43-4.43,50.14,50.14,0,0,1,4.81-4.09l-37.26,13.82c-.52.21-1.62.39-2-.52a1,1,0,0,1,0-.83,2.19,2.19,0,0,1,1.08-1l36.94-17a25.82,25.82,0,0,0-6.65,1.5,26.31,26.31,0,0,1-11.59,1.65c-6.77-.54-9.64.79-12.17,2a14.75,14.75,0,0,1-4.23,1.44c-3.83.57-5.87-.7-6.41-1.1-.78-.59-1.09-1.3-.83-1.84a.78.78,0,0,1,.48-.43,1.2,1.2,0,0,1,.57,0l.27.07c.16,0,.32.1.51.16a6,6,0,0,0,4.15.21,19.08,19.08,0,0,0,3-1.46,30.27,30.27,0,0,1,6.7-2.93,19.84,19.84,0,0,1,7.09-.62c4.17.37,7.54-.87,11.11-2.2a49,49,0,0,1,6-1.93L188.63,258l-.27,0a1.88,1.88,0,0,1-1.08-.45,1.11,1.11,0,0,1-.31-.77c0-1,1.09-1.24,1.67-1.24h0L229.25,254a25.17,25.17,0,0,0-6.72-1.16,26.43,26.43,0,0,1-11.33-2.91c-6-3.09-9.2-3-12-2.83l-1.13,0a12.15,12.15,0,0,1-3.32-.33c-3.51-.88-5.49-2.83-5.84-4.26a1.28,1.28,0,0,1,.14-1.09v0l.13-.11c.59-.52,1.19,0,1.77.52a8,8,0,0,0,1.72,1.23l-.07.38.17-.34a5.06,5.06,0,0,0,1.35.43,5.11,5.11,0,0,0,.58.07,9.17,9.17,0,0,0,1.38,0c.59,0,1.24-.11,1.93-.19a39.34,39.34,0,0,1,4.89-.32,20,20,0,0,1,9.22,2.32c3.71,1.94,7.3,2.07,11.1,2.21a49.52,49.52,0,0,1,6.29.52L193.4,231.57a2.17,2.17,0,0,1-1.07-.95,1,1,0,0,1,0-.83,1,1,0,0,1,.58-.59,2.16,2.16,0,0,1,1.44.08l38.11,14.14a25.47,25.47,0,0,0-5.77-3.65,26.47,26.47,0,0,1-9.36-7c-4.39-5.17-7.37-6.26-10-7.21a14.76,14.76,0,0,1-4-2c-2.9-2.15-4-4.71-3.75-6.18a1.19,1.19,0,0,1,.72-1c.68-.24,1,.43,1.19.68l.24.47a6,6,0,0,0,2.79,3.09,20.71,20.71,0,0,0,3.13,1.08c3.46,1,8.19,2.36,12.26,7.24,2.69,3.22,6,4.71,9.39,6.28a48.67,48.67,0,0,1,5.64,2.9l-27-29.14a2.16,2.16,0,0,1-.62-1.28,1.07,1.07,0,0,1,.32-.77c.61-.61,1.44-.26,2,.26l29.87,27.7a16.84,16.84,0,0,0-.92-1.68,31.17,31.17,0,0,0-3-3.92,26.46,26.46,0,0,1-6-10.06c-2.08-6.45-4.41-8.59-6.47-10.48a14.73,14.73,0,0,1-3-3.36c-.16-.26-.3-.52-.43-.77-1.46-2.86-1.35-5.34-.64-6.43a1.13,1.13,0,0,1,1-.61c.78,0,.83.84.88,1.6a7.77,7.77,0,0,0,.35,2.1,5.3,5.3,0,0,0,1.05,1.82,18,18,0,0,0,2.48,2.2c2.81,2.24,6.66,5.31,8.56,11.38,1.25,4,3.69,6.63,6.28,9.42a49,49,0,0,1,4.09,4.81L230,193.63c-.22-.52-.39-1.63.52-2a1,1,0,0,1,.83,0,2.1,2.1,0,0,1,.95,1.08l17,36.94a25.49,25.49,0,0,0-1.51-6.66,26.41,26.41,0,0,1-1.65-11.58c.55-6.77-.79-9.64-2-12.17a14.45,14.45,0,0,1-1.44-4.23c-.53-3.57.51-6.15,1.71-7a1.16,1.16,0,0,1,1.23-.22c.71.34.45,1.1.2,1.83a6.07,6.07,0,0,0-.2,4.15,18.92,18.92,0,0,0,1.45,3c1.74,3.15,4.12,7.47,3.55,13.79-.37,4.17.88,7.54,2.2,11.11a47.35,47.35,0,0,1,1.93,6l1.5-39.7c0-.57.26-1.66,1.24-1.66s1.24,1.1,1.24,1.67l1.53,40.61a25.57,25.57,0,0,0,1.16-6.72,26.28,26.28,0,0,1,2.91-11.33c.29-.57.56-1.12.79-1.65a19.88,19.88,0,0,0,2.09-8.2c0-.76,0-1.46,0-2.14s-.05-1.3,0-1.94a11.22,11.22,0,0,1,.32-2.53,10,10,0,0,1,2.6-4.81l.1-.11a7.87,7.87,0,0,1,.68-.51l.09-.06a1.92,1.92,0,0,1,.4-.18l.14-.06a1,1,0,0,1,.21-.09,1.19,1.19,0,0,1,1.28.26c.52.59,0,1.18-.52,1.76a6.06,6.06,0,0,0-1.78,3.76c0,.21,0,.43,0,.65a24,24,0,0,0,.22,2.67c0,.51.11,1.05.17,1.61.07.79.16,2,.15,3.27a20,20,0,0,1-2.32,9.21c-1.94,3.72-2.08,7.31-2.22,11.11a50,50,0,0,1-.52,6.31l16.59-36.13a2,2,0,0,1,.95-1.07,1.11,1.11,0,0,1,1.42.59,2.08,2.08,0,0,1-.09,1.44l-14.13,38.11A26.05,26.05,0,0,0,274.5,226a26.35,26.35,0,0,1,7-9.36c5.17-4.39,6.25-7.37,7.21-10a14.34,14.34,0,0,1,2-4c2.15-2.9,4.72-4,6.18-3.76a1.19,1.19,0,0,1,1,.72c.24.69-.42,1.06-.68,1.2l-.46.23a6.08,6.08,0,0,0-3.09,2.8,18.71,18.71,0,0,0-1.08,3.13c-1,3.46-2.36,8.19-7.24,12.26-3.22,2.69-4.71,6-6.29,9.39a48.6,48.6,0,0,1-2.89,5.64l29.14-27a2,2,0,0,1,1.28-.62,1.11,1.11,0,0,1,1.09,1.09,1.88,1.88,0,0,1-.47,1.11,1.94,1.94,0,0,1-.16.19L279.4,238.79c.28-.14.56-.28.82-.43a28,28,0,0,0,4.77-3.52,28.57,28.57,0,0,1,6.71-4.63,27,27,0,0,1,3.36-1.33,28.76,28.76,0,0,0,5.71-2.45,18.72,18.72,0,0,0,4.77-4,14.49,14.49,0,0,1,3.36-3c3.09-1.86,5.87-1.88,7.14-1.11a1.18,1.18,0,0,1,.67,1.06,1.07,1.07,0,0,1-.07.32c-.24.48-.81.52-1.54.57a6,6,0,0,0-3.92,1.4,18.7,18.7,0,0,0-2.19,2.48,27.54,27.54,0,0,1-6.11,6,20.17,20.17,0,0,1-5.27,2.52c-.5.15-1,.34-1.53.56a21.93,21.93,0,0,0-5.75,3.77l-.35.32c-.6.53-1.18,1.07-1.77,1.62a49.24,49.24,0,0,1-4.83,4.09l37.26-13.81a2.65,2.65,0,0,1,.74-.17,1.15,1.15,0,0,1,1.26.68,1,1,0,0,1,0,.83,2.08,2.08,0,0,1-1.07,1l-36.95,17a25.4,25.4,0,0,0,6.66-1.51,26.46,26.46,0,0,1,11.59-1.65c6.77.55,9.64-.79,12.17-2a14.76,14.76,0,0,1,4.23-1.45c4.18-.61,6.62.88,7.18,2a1.07,1.07,0,0,1,.06,1c-.32.66-1.05.44-1.33.36l-.5-.16a6,6,0,0,0-4.15-.2,18.92,18.92,0,0,0-3,1.45,25.38,25.38,0,0,1-9.3,3.46,19.77,19.77,0,0,1-4.49.09c-4.17-.38-7.55.88-11.11,2.2a47.35,47.35,0,0,1-6,1.93l39.7,1.5h0c.57,0,1.66.26,1.66,1.24a1.12,1.12,0,0,1-.09.44,1.31,1.31,0,0,1-.9.7,3.16,3.16,0,0,1-.68.1l-40.62,1.53a25.69,25.69,0,0,0,6.78,1.17c.91.07,1.84.15,2.81.27a24.08,24.08,0,0,1,8.47,2.63,26.56,26.56,0,0,0,6.84,2.54,19.73,19.73,0,0,0,5.15.29,14.85,14.85,0,0,1,4.46.28c3.57.9,5.53,2.87,5.84,4.32a1.83,1.83,0,0,1,0,.58,1,1,0,0,1-.31.59c-.59.53-1.19,0-1.77-.51l-.35-.31a5.72,5.72,0,0,0-3.4-1.47,19.74,19.74,0,0,0-3.32.2,29.77,29.77,0,0,1-7.31.16,19.86,19.86,0,0,1-6.79-2.15c-.44-.23-.91-.45-1.38-.64-3.23-1.34-6.38-1.45-9.72-1.58a47.69,47.69,0,0,1-6.29-.51L321.58,282a2.11,2.11,0,0,1,1.06,1,1.09,1.09,0,0,1-.58,1.41,2.09,2.09,0,0,1-1.44-.08l-38.11-14.13a25.83,25.83,0,0,0,5.77,3.65,27,27,0,0,1,8.09,5.62c.42.43.84.9,1.27,1.4,4.39,5.17,7.37,6.25,10,7.21a14.72,14.72,0,0,1,4,2c2.9,2.16,4,4.72,3.75,6.18a1.17,1.17,0,0,1-.72,1c-.68.24-1.05-.43-1.19-.68l-.24-.46a6,6,0,0,0-2.79-3.09,18.71,18.71,0,0,0-3.13-1.08c-3.46-1-8.2-2.36-12.27-7.24-2.69-3.22-5.94-4.71-9.39-6.29a47.69,47.69,0,0,1-5.63-2.89l27,29.13c.4.4,1,1.36.3,2.05s-1.44.27-2-.25L275.49,278.7a26.18,26.18,0,0,0,3.95,5.61,40.17,40.17,0,0,1,2.52,3.14,24.39,24.39,0,0,1,3.42,6.89c2.09,6.46,4.42,8.6,6.48,10.49l.84.77a12.48,12.48,0,0,1,2.12,2.58,11.24,11.24,0,0,1,1.43,3.63,4.72,4.72,0,0,1-.52,3.78,1.09,1.09,0,0,1-.87.41c-.78-.05-.83-.84-.88-1.61a6.06,6.06,0,0,0-1.4-3.92,19.9,19.9,0,0,0-2.47-2.19,26.56,26.56,0,0,1-6.39-6.65,19.91,19.91,0,0,1-2.18-4.73,15.87,15.87,0,0,0-1-2.47l-.06-.14-.07-.15-.1-.18a31.57,31.57,0,0,0-5.05-6.48,50.29,50.29,0,0,1-4.08-4.81L285,319.92c.21.53.39,1.63-.52,2a1.09,1.09,0,0,1-.83,0,2.18,2.18,0,0,1-1-1.07l-16.95-36.95a25.49,25.49,0,0,0,1.51,6.66,26.45,26.45,0,0,1,1.64,11.59c-.54,6.76.8,9.64,2,12.17a14.45,14.45,0,0,1,1.44,4.23c.53,3.57-.51,6.14-1.71,7a1.19,1.19,0,0,1-1.23.22c-.71-.35-.45-1.1-.21-1.83a6,6,0,0,0,.21-4.15,19,19,0,0,0-1.45-3c-1.74-3.15-4.12-7.46-3.55-13.78.37-4.18-.88-7.55-2.2-11.11a47.89,47.89,0,0,1-1.94-6l-1.49,39.7C258.73,326.2,258.47,327.3,257.49,327.3ZM254.68,283l.73.14L257,325.61s0,.93.49.93.48-.91.48-.92l1.66-43.93h.75a32.61,32.61,0,0,0,2.48,10c1.36,3.65,2.64,7.1,2.25,11.45-.55,6.09,1.77,10.28,3.46,13.35a19.28,19.28,0,0,1,1.51,3.11,6.77,6.77,0,0,1-.21,4.63,2.76,2.76,0,0,0-.21.89.49.49,0,0,0,.48-.13c.85-.63,1.93-2.82,1.41-6.3a13.55,13.55,0,0,0-1.38-4c-1.22-2.62-2.6-5.59-2-12.55a25.85,25.85,0,0,0-1.61-11.29,23.46,23.46,0,0,1-1.58-8.7l.72-.15,17.72,38.59s.37.86.8.68.11-1,.1-1L269,279l.7-.3a32.25,32.25,0,0,0,6.13,8.31,32.46,32.46,0,0,1,5.16,6.65l.1.18.09.19,0,.11a16.66,16.66,0,0,1,1.05,2.58,19.27,19.27,0,0,0,2.1,4.56,25.92,25.92,0,0,0,6.22,6.46,19.93,19.93,0,0,1,2.58,2.29,6.8,6.8,0,0,1,1.58,4.36,2.41,2.41,0,0,0,.14.9.42.42,0,0,0,.28-.15,4,4,0,0,0,.35-3.14,10.5,10.5,0,0,0-1.34-3.38,11.39,11.39,0,0,0-2-2.42c-.26-.26-.54-.51-.82-.76-2.13-2-4.54-4.17-6.69-10.81a23.76,23.76,0,0,0-3.31-6.69c-.81-1.13-1.66-2.13-2.48-3.09a23.71,23.71,0,0,1-4.8-7.47l.61-.41,31.14,28.87c.1.1.69.62,1,.32s-.3-1-.31-1l-29.9-32.25.53-.54a32.2,32.2,0,0,0,8.85,5.33c3.53,1.62,6.86,3.14,9.66,6.49,3.92,4.7,8.52,6,11.89,7a19.71,19.71,0,0,1,3.26,1.13,6.79,6.79,0,0,1,3.13,3.43l.22.44c.17.3.24.33.25.33s.22-.2.25-.43c.16-1-.62-3.36-3.45-5.46a14.19,14.19,0,0,0-3.82-1.86c-2.72-1-5.8-2.11-10.32-7.43-.42-.49-.83-.94-1.23-1.36a26.72,26.72,0,0,0-7.89-5.48,23.62,23.62,0,0,1-7.27-5l.41-.62,39.81,14.77s.87.34,1.05-.09a.28.28,0,0,0,0-.25,1.37,1.37,0,0,0-.66-.55l-40-18.36.29-.7a32.07,32.07,0,0,0,10.21,1.55c3.41.12,6.62.24,10,1.63.49.2,1,.43,1.44.67a19.15,19.15,0,0,0,6.53,2.07,29.45,29.45,0,0,0,7.14-.16,19,19,0,0,1,3.45-.2,6.48,6.48,0,0,1,3.84,1.65l.36.31c.26.23.61.54.73.54h0a.22.22,0,0,0,.09-.17,1,1,0,0,0,0-.3c-.22-1-1.84-2.88-5.28-3.74a14.37,14.37,0,0,0-4.25-.27,20.43,20.43,0,0,1-5.33-.29,27.65,27.65,0,0,1-7-2.62,23.57,23.57,0,0,0-8.21-2.55c-1-.12-1.88-.19-2.78-.26a23.7,23.7,0,0,1-8.69-1.9l.14-.72,42.43-1.6a1.94,1.94,0,0,0,.49-.07.64.64,0,0,0,.42-.27h0a.51.51,0,0,0,0-.13c0-.47-.91-.49-.92-.49l-43.94-1.65v-.76a32.18,32.18,0,0,0,10-2.48c3.64-1.35,7.09-2.63,11.44-2.24a19.44,19.44,0,0,0,4.32-.09,25,25,0,0,0,9-3.37,19.28,19.28,0,0,1,3.11-1.51,6.78,6.78,0,0,1,4.63.2l.47.16a.92.92,0,0,0,.42.06.4.4,0,0,0,0-.33c-.49-.94-2.85-2.09-6.4-1.57a14.24,14.24,0,0,0-4,1.38c-2.62,1.22-5.59,2.61-12.55,2a25.87,25.87,0,0,0-11.29,1.61,23.5,23.5,0,0,1-8.7,1.57l-.15-.72,38.6-17.71s.85-.37.67-.81c0-.07-.11-.25-.51-.21a1.77,1.77,0,0,0-.52.11l-41.25,15.3-.3-.7a32.16,32.16,0,0,0,8.33-6.14l1.78-1.63.33-.28a22.28,22.28,0,0,1,6-3.94c.55-.23,1.07-.42,1.59-.59a19,19,0,0,0,5.07-2.42,26.56,26.56,0,0,0,5.95-5.89,19.28,19.28,0,0,1,2.29-2.58,6.81,6.81,0,0,1,4.37-1.58,2.39,2.39,0,0,0,.89-.14c0-.14-.11-.28-.3-.4-.9-.54-3.34-.7-6.37,1.11a14,14,0,0,0-3.18,2.82,19.83,19.83,0,0,1-5,4.16,29.43,29.43,0,0,1-5.86,2.52,25.44,25.44,0,0,0-3.26,1.29,28,28,0,0,0-6.55,4.53,28.37,28.37,0,0,1-4.89,3.6A19.33,19.33,0,0,1,278,240.2l-.41-.62,28.87-31.13.12-.13a1.17,1.17,0,0,0,.3-.64.3.3,0,0,0-.1-.23c-.28-.28-.85.17-1,.3l-32.25,29.91-.53-.53a32.4,32.4,0,0,0,5.32-8.85c1.62-3.53,3.14-6.86,6.49-9.66,4.7-3.92,6-8.53,7-11.89a19.53,19.53,0,0,1,1.13-3.27,6.81,6.81,0,0,1,3.43-3.12l.44-.23c.3-.16.33-.24.33-.24s-.2-.22-.43-.26c-1-.16-3.35.63-5.46,3.46a14.19,14.19,0,0,0-1.86,3.82c-1,2.71-2.11,5.79-7.43,10.32a25.83,25.83,0,0,0-6.84,9.12,23.62,23.62,0,0,1-5,7.27l-.62-.41,14.77-39.82s.34-.87-.09-1-.8.65-.8.66L265,233l-.7-.29a21.6,21.6,0,0,0,.92-3.44,43.18,43.18,0,0,0,.61-6.75c.15-3.9.29-7.57,2.31-11.44a19.37,19.37,0,0,0,2.23-8.87,29.74,29.74,0,0,0-.15-3.19c-.05-.55-.11-1.09-.17-1.59-.11-1-.21-1.94-.22-2.75,0-.25,0-.49,0-.72a6.79,6.79,0,0,1,2-4.2c.23-.26.55-.62.54-.73s-.29-.12-.53-.06a.88.88,0,0,1-.2.09,2.64,2.64,0,0,0-.36.16l-.08.06a4.43,4.43,0,0,0-.57.42l-.09.1a9,9,0,0,0-2.38,4.45,10.22,10.22,0,0,0-.3,2.36c0,.62,0,1.24,0,1.88s.06,1.41,0,2.19a20.35,20.35,0,0,1-2.15,8.51q-.36.79-.81,1.68a25.84,25.84,0,0,0-2.83,11,23.29,23.29,0,0,1-1.87,8.63l-.73-.14L258,188s0-.93-.48-.94-.49.91-.49.92l-1.65,43.94h-.75a32.39,32.39,0,0,0-2.49-10c-1.35-3.65-2.63-7.09-2.24-11.44.55-6.09-1.77-10.29-3.46-13.35A19.34,19.34,0,0,1,244.9,194a6.77,6.77,0,0,1,.21-4.63,2.72,2.72,0,0,0,.21-.88c-.13-.07-.3,0-.49.13-.84.62-1.92,2.81-1.41,6.3a14,14,0,0,0,1.39,4c1.22,2.62,2.6,5.58,2,12.55a25.87,25.87,0,0,0,1.61,11.29,23.42,23.42,0,0,1,1.58,8.7l-.73.15L231.6,193s-.38-.85-.8-.67-.11,1-.1,1L246,234.61l-.69.29a32.19,32.19,0,0,0-6.13-8.3c-2.65-2.86-5.15-5.55-6.45-9.72-1.83-5.84-5.58-8.83-8.31-11a21,21,0,0,1-2.59-2.29,6.38,6.38,0,0,1-1.19-2.08,8.54,8.54,0,0,1-.39-2.29,2.35,2.35,0,0,0-.14-.89c-.14,0-.26.09-.37.26-.5.77-.74,2.91.68,5.67.12.24.25.49.4.73a13.87,13.87,0,0,0,2.82,3.19c2.13,2,4.54,4.16,6.69,10.81a25.48,25.48,0,0,0,5.81,9.8,32.24,32.24,0,0,1,3.09,4,19.66,19.66,0,0,1,1.69,3.44l-.61.41-31.14-28.88c-.14-.13-.7-.61-1-.31a.29.29,0,0,0-.1.23,1.43,1.43,0,0,0,.4.76l29.91,32.24-.53.54a32.55,32.55,0,0,0-8.85-5.33c-3.53-1.61-6.86-3.14-9.66-6.49-3.92-4.7-8.53-6-11.89-7a19.53,19.53,0,0,1-3.27-1.13,6.76,6.76,0,0,1-3.12-3.42c-.08-.17-.16-.31-.23-.44-.16-.3-.24-.34-.24-.34s-.22.21-.26.44c-.16,1,.63,3.35,3.46,5.45a13.9,13.9,0,0,0,3.82,1.86c2.72,1,5.79,2.11,10.32,7.43A25.88,25.88,0,0,0,227,239.1a23.62,23.62,0,0,1,7.27,5l-.41.61L194.08,230s-.87-.34-1,.09.65.79.66.8l40,18.35-.29.7a32,32,0,0,0-10.21-1.54c-3.89-.14-7.56-.28-11.43-2.3a19.12,19.12,0,0,0-8.87-2.23,40,40,0,0,0-4.79.31c-.71.08-1.37.16-2,.2a10.54,10.54,0,0,1-1.48,0l-.66-.08a6.23,6.23,0,0,1-1.55-.5l.06-.38-.16.34a8.83,8.83,0,0,1-1.88-1.33,2.79,2.79,0,0,0-.75-.55c-.11.09-.12.27-.07.49.26,1,1.87,2.86,5.29,3.72a11.28,11.28,0,0,0,3.12.3l1.12,0c2.89-.13,6.16-.27,12.38,2.92a25.84,25.84,0,0,0,11,2.83,23.29,23.29,0,0,1,8.63,1.87l-.14.72-42.42,1.6s-.93,0-.94.49a.28.28,0,0,0,.1.23,1.2,1.2,0,0,0,.64.24h.14l44,1.65v.76a32.4,32.4,0,0,0-10,2.48c-3.64,1.36-7.09,2.64-11.44,2.25a19,19,0,0,0-6.82.59,29.29,29.29,0,0,0-6.53,2.87,19,19,0,0,1-3.12,1.51,6.74,6.74,0,0,1-4.62-.21l-.47-.15-.22-.05c-.13,0-.18,0-.2,0-.09.19.09.56.59.93a8.05,8.05,0,0,0,5.84,1,14.24,14.24,0,0,0,4-1.38c2.62-1.22,5.58-2.6,12.55-2a25.83,25.83,0,0,0,11.29-1.62,23.63,23.63,0,0,1,8.7-1.57l.15.72-38.6,17.72s-.85.37-.67.8,1,.1,1,.1l41.25-15.3.29.7a32.19,32.19,0,0,0-8.3,6.13,36.92,36.92,0,0,1-5.55,4.52,17.21,17.21,0,0,1-4.16,1.93c-5.85,1.83-8.84,5.58-11,8.31a19.35,19.35,0,0,1-2.29,2.58,6.48,6.48,0,0,1-4,1.56l-.39,0a2.66,2.66,0,0,0-.9.13.29.29,0,0,0,.06.2c.57.73,3.34,1.05,6.61-.91a13.75,13.75,0,0,0,3.18-2.81c2-2.13,4.16-4.55,10.81-6.69a25.73,25.73,0,0,0,9.8-5.81c.92-.8,1.88-1.61,2.93-2.37a19.2,19.2,0,0,1,4.52-2.41l.41.61L208.47,305.1c-.13.15-.61.71-.31,1s1-.3,1-.31l32.24-29.91.54.54a32.4,32.4,0,0,0-5.33,8.85c-1.61,3.52-3.13,6.86-6.49,9.65-4.69,3.93-6,8.53-7,11.9a19.71,19.71,0,0,1-1.13,3.26,6.75,6.75,0,0,1-3.42,3.13l-.44.22c-.3.17-.33.24-.34.25a.51.51,0,0,0,.44.25c1,.17,3.35-.63,5.45-3.46a13.75,13.75,0,0,0,1.87-3.81c1-2.72,2.11-5.8,7.43-10.32.49-.42.94-.83,1.35-1.24a26.43,26.43,0,0,0,5.49-7.88,23.62,23.62,0,0,1,5-7.27l.61.41L230.7,320.18s-.34.87.09,1.05a.28.28,0,0,0,.25,0,1.37,1.37,0,0,0,.55-.66l18.35-40,.7.28a32.43,32.43,0,0,0-1.54,10.22c-.14,3.89-.28,7.56-2.3,11.42-.25.47-.46.93-.66,1.38-2.09,4.85-1.61,9.15-1.26,12.29a19.68,19.68,0,0,1,.21,3.34v.11a6.71,6.71,0,0,1-2,4.2l-.32.38c-.21.27-.21.35-.21.36a.29.29,0,0,0,.16.09c.74.09,3-1.29,4.05-5.31.07-.28.12-.55.17-.81a16.53,16.53,0,0,0,.09-3.44,19.76,19.76,0,0,1,.56-6.45,28.73,28.73,0,0,1,2.36-5.92,25.73,25.73,0,0,0,2.82-11.05c.08-1,.16-2.07.31-3.12A20,20,0,0,1,254.68,283Z" transform="translate(146.51 -4.28)"/><path class="cls-6" d="M253.05,231.13c-.77-8.45-5.52-12.51-4.54-20.53-2.19,6.46,2.93,11.51,2.85,20.88C251.92,231.34,252.48,231.22,253.05,231.13Z" transform="translate(146.51 -4.28)"/><path class="cls-6" d="M243.57,234.77c-3.94-7.5-9.88-9.44-12-17.22.45,6.81,7.12,9.51,10.62,18.2C242.61,235.41,243.08,235.08,243.57,234.77Z" transform="translate(146.51 -4.28)"/><path class="cls-6" d="M235.27,243.22c.3-.49.61-1,.94-1.45-6.51-5.42-12.75-4.94-17.73-11.3C221.51,236.59,228.7,236.54,235.27,243.22Z" transform="translate(146.51 -4.28)"/><path class="cls-6" d="M232.08,251.05c-8.09-2.51-13.66.32-20.69-3.65,5.13,4.5,11.76,1.69,20.38,5.36C231.86,252.19,232,251.62,232.08,251.05Z" transform="translate(146.51 -4.28)"/><path class="cls-6" d="M231.84,261.22c-8.45.76-12.51,5.52-20.53,4.53,6.46,2.2,11.51-2.93,20.88-2.84C232.05,262.35,231.94,261.79,231.84,261.22Z" transform="translate(146.51 -4.28)"/><path class="cls-6" d="M235.49,270.69c-7.51,3.94-9.45,9.89-17.23,12.05,6.81-.44,9.51-7.11,18.2-10.62C236.12,271.66,235.8,271.18,235.49,270.69Z" transform="translate(146.51 -4.28)"/><path class="cls-6" d="M231.18,295.78c6.12-3,6.07-10.21,12.75-16.78-.49-.3-1-.61-1.45-.94C237.06,284.57,237.55,290.8,231.18,295.78Z" transform="translate(146.51 -4.28)"/><path class="cls-6" d="M248.11,302.88c4.5-5.13,1.69-11.76,5.36-20.39-.57-.08-1.14-.18-1.7-.31C249.25,290.27,252.08,295.85,248.11,302.88Z" transform="translate(146.51 -4.28)"/><path class="cls-6" d="M261.93,282.43c.77,8.44,5.52,12.51,4.53,20.53,2.2-6.46-2.93-11.51-2.84-20.88C263.06,282.21,262.5,282.33,261.93,282.43Z" transform="translate(146.51 -4.28)"/><path class="cls-6" d="M271.41,278.78c3.94,7.5,9.88,9.45,12,17.23-.44-6.81-7.11-9.51-10.61-18.21C272.37,278.14,271.9,278.47,271.41,278.78Z" transform="translate(146.51 -4.28)"/><path class="cls-6" d="M279.71,270.33c-.3.5-.61,1-.94,1.45,6.51,5.42,12.75,4.94,17.72,11.3C293.47,277,286.28,277,279.71,270.33Z" transform="translate(146.51 -4.28)"/><path class="cls-6" d="M282.9,262.5c8.09,2.51,13.66-.32,20.69,3.66-5.13-4.5-11.76-1.7-20.38-5.37C283.12,261.37,283,261.94,282.9,262.5Z" transform="translate(146.51 -4.28)"/><path class="cls-6" d="M283.14,252.34c8.44-.77,12.51-5.52,20.53-4.54-6.46-2.19-11.51,2.93-20.88,2.85C282.93,251.2,283,251.77,283.14,252.34Z" transform="translate(146.51 -4.28)"/><path class="cls-6" d="M279.49,242.86c7.51-3.94,9.45-9.88,17.23-12.05-6.81.45-9.51,7.12-18.2,10.62C278.86,241.9,279.18,242.37,279.49,242.86Z" transform="translate(146.51 -4.28)"/><path class="cls-6" d="M283.79,217.77c-6.11,3-6.06,10.22-12.75,16.78.5.31,1,.61,1.46.95C277.92,229,277.43,222.75,283.79,217.77Z" transform="translate(146.51 -4.28)"/><path class="cls-6" d="M266.87,210.68c-4.5,5.13-1.69,11.75-5.37,20.38.58.09,1.15.18,1.71.31C265.72,223.28,262.89,217.71,266.87,210.68Z" transform="translate(146.51 -4.28)"/><path class="cls-6" d="M304.84,256.81l-40-1.46,36.4-16.66-37.52,14L291,223.32l-29.31,27.25,14-37.52L259,249.44l-1.47-40-1.46,40L239.41,213l14,37.51L224,223.27l27.26,29.32-37.53-14,36.39,16.66-40,1.46,40,1.46-36.4,16.66,37.52-14L224,290.23,253.3,263l-14,37.53L256,264.11l1.47,40,1.46-40,16.65,36.4L261.62,263,291,290.28,263.69,261l37.53,14-36.4-16.66Zm-47.3,0h-.1l0,0,0,0v0l0,0,0,0h.06l0,0,0,0v.1Z" transform="translate(146.51 -4.28)"/><path class="cls-5" d="M285.9,256.78a28.41,28.41,0,1,1-28.41-28.41,28.4,28.4,0,0,1,28.41,28.41" transform="translate(146.51 -4.28)"/><path class="cls-6" d="M257.49,285.59a28.82,28.82,0,1,1,28.82-28.81A28.85,28.85,0,0,1,257.49,285.59Zm0-56.81a28,28,0,1,0,28,28A28,28,0,0,0,257.49,228.78Z" transform="translate(146.51 -4.28)"/><path class="cls-6" d="M261.38,276.63a3.89,3.89,0,0,0-7.77,0,4,4,0,0,1,7.77,0" transform="translate(146.51 -4.28)"/><path class="cls-6" d="M251.18,269.62l-.82,0c4.53.44,2.35,3,7.1,3h0c4.75,0,2.6-2.6,7.13-3-4.74-.43-3.24,2.37-7.13,2.37h0c-3.64,0-2.52-2.44-6.28-2.4" transform="translate(146.51 -4.28)"/><path class="cls-6" d="M254.58,269a15.19,15.19,0,0,0-3.6.69c3.89-.86,4.74.44,6.48.44h0c1.73,0,2.59-1.3,6.47-.44-4.31-1.29-5.17-.44-6.47-.44h0a24.38,24.38,0,0,0-2.88-.25" transform="translate(146.51 -4.28)"/><path class="cls-6" d="M255.31,266.4c-2.16,0-3,2-5,3.25a39.2,39.2,0,0,0,3.44-2.14c1.51-.86,2.8.19,3.67.19h0c.87,0,2.15-1.05,3.67-.19a39.05,39.05,0,0,0,3.47,2.14c-1.94-1.29-2.83-3.25-5-3.25a6,6,0,0,0-2.15.66h0a6,6,0,0,0-2.15-.66" transform="translate(146.51 -4.28)"/><path class="cls-6" d="M262,260.65a1.32,1.32,0,0,1,.84,1.24,1.29,1.29,0,0,1-1.29,1.29A1.3,1.3,0,0,1,260.3,262a3.24,3.24,0,0,1-2.68,1.74,3.2,3.2,0,0,1-2.68-1.74,1.31,1.31,0,0,1-1.3,1.23,1.29,1.29,0,0,1-1.29-1.29,1.31,1.31,0,0,1,.85-1.24,2,2,0,0,0-1.58,1.93,1.94,1.94,0,0,0,3.53,1.11,4.13,4.13,0,0,0,2.34.63h.25a4.13,4.13,0,0,0,2.34-.63,1.94,1.94,0,0,0,3.53-1.11A2,2,0,0,0,262,260.65Z" transform="translate(146.51 -4.28)"/><path class="cls-6" d="M260.51,249c3.45-3.24,9.71-2.59,14.67,1.73-4.75-6.48-11.22-6-16-2.16a14,14,0,0,0-.68,2.46,15.33,15.33,0,0,0,1.77,9.84,1.56,1.56,0,0,1,.86-.43c-1.92-2.72-2.69-5.37-2.26-7.83A8.35,8.35,0,0,1,260.51,249Z" transform="translate(146.51 -4.28)"/><path class="cls-6" d="M256.7,251a14,14,0,0,0-.68-2.46c-4.75-3.88-11.22-4.32-16,2.14,5-4.3,11.21-4.94,14.66-1.71a8.35,8.35,0,0,1,1.61,3.61c.43,2.46-.33,5.11-2.26,7.83a1.62,1.62,0,0,1,.87.43A15.39,15.39,0,0,0,256.7,251Z" transform="translate(146.51 -4.28)"/><path class="cls-6" d="M264,255.06c-1.72-.87-2.16-1.3-2.58-1.3s-.43.43,1.72,1.73,5.83,1.51,9.5-1.3h0C268.28,255.92,265.69,255.92,264,255.06Z" transform="translate(146.51 -4.28)"/><path class="cls-6" d="M267.42,249.44a5.76,5.76,0,0,0-4.75,1.73,5.6,5.6,0,0,1-2.16,1.08c-.21.22,0,.86.43.65a12.28,12.28,0,0,0,2.59-1.73,5.4,5.4,0,0,1,3.89-1.08c3.88,0,6,3.24,6.47,3S271.73,249.44,267.42,249.44Z" transform="translate(146.51 -4.28)"/><path class="cls-6" d="M267,251.22c1.87,0,3.61.82,3.85,1.67a5.67,5.67,0,0,1-7.76.44,4.54,4.54,0,0,1,3.91-2.11m0-.44a5.57,5.57,0,0,0-4.83,2.55c2.16,1.95,6.93,2.16,10.17-.22A7.4,7.4,0,0,0,267.05,250.78Z" transform="translate(146.51 -4.28)"/><path class="cls-6" d="M268.93,252.89A1.95,1.95,0,1,1,267,251a1.94,1.94,0,0,1,1.94,1.94" transform="translate(146.51 -4.28)"/><path class="cls-6" d="M251.27,255.06c-1.73.86-4.32.86-8.64-.87h0c3.67,2.81,7.34,2.59,9.5,1.3s2.15-1.73,1.72-1.73S253,254.19,251.27,255.06Z" transform="translate(146.51 -4.28)"/><path class="cls-6" d="M254.72,252.25a5.75,5.75,0,0,1-2.16-1.08,5.75,5.75,0,0,0-4.75-1.73c-4.31,0-6.9,3.46-6.47,3.67s2.59-3,6.47-3a5.4,5.4,0,0,1,3.89,1.08,12.55,12.55,0,0,0,2.59,1.73C254.72,253.11,254.94,252.47,254.72,252.25Z" transform="translate(146.51 -4.28)"/><path class="cls-6" d="M247.65,251.22c1.87,0,3.61.82,3.85,1.67a5.69,5.69,0,0,1-7.77.44,4.57,4.57,0,0,1,3.92-2.11m0-.44a5.57,5.57,0,0,0-4.83,2.55c2.16,1.95,6.93,2.16,10.17-.22A7.42,7.42,0,0,0,247.68,250.78Z" transform="translate(146.51 -4.28)"/><path class="cls-6" d="M249.87,252.89a1.94,1.94,0,1,1-1.93-1.94,1.93,1.93,0,0,1,1.93,1.94" transform="translate(146.51 -4.28)"/></g></svg>