<svg xmlns="http://www.w3.org/2000/svg" xmlns:xlink="http://www.w3.org/1999/xlink" viewBox="0 0 718.53 533.79"><defs><style>.cls-1{fill:none;}.cls-2{isolation:isolate;}.cls-3{mix-blend-mode:multiply;opacity:0.06;fill:url(#radial-gradient);}.cls-4{clip-path:url(#clip-path);}.cls-5{fill:#088004;}.cls-6{fill:#fff;}.cls-7{fill:#f48e20;}.cls-8{fill:#081084;}</style><radialGradient id="radial-gradient" cx="359.26" cy="263.46" r="263.46" gradientUnits="userSpaceOnUse"><stop offset="0.9"/><stop offset="1" stop-color="#fff" stop-opacity="0"/></radialGradient><clipPath id="clip-path" transform="translate(108.51 11.38)"><circle class="cls-1" cx="250.75" cy="247.29" r="239.51"/></clipPath></defs><g class="cls-2"><g id="Layer_1" data-name="Layer 1"><circle class="cls-3" cx="359.26" cy="263.46" r="263.46"/><g class="cls-4"><rect class="cls-5" x="170.92" y="47.7" width="159.67" height="718.53" transform="translate(766.23 167.59) rotate(90)"/><rect class="cls-6" x="170.92" y="-111.97" width="159.67" height="718.53" transform="translate(606.55 7.91) rotate(90)"/><rect class="cls-7" x="170.92" y="-271.64" width="159.67" height="718.53" transform="translate(446.88 -151.76) rotate(90)"/><path class="cls-8" d="M325,247.29a74.25,74.25,0,1,0-74.25,74.25A74.25,74.25,0,0,0,325,247.29Z" transform="translate(108.51 11.38)"/><path class="cls-6" d="M300.34,290.53a4.07,4.07,0,0,1,5.26-6.18,65.4,65.4,0,0,0,4.61-8l-.38-.19a4.07,4.07,0,0,1,3.51-7.32,65.56,65.56,0,0,0,2.36-8.78,4.07,4.07,0,0,1,.6-8.09,3.71,3.71,0,0,1,.47,0c.11-1.57.17-3.15.17-4.75s-.05-3-.15-4.43a3.89,3.89,0,0,1-.49,0,4.07,4.07,0,0,1-.54-8.11,66.16,66.16,0,0,0-2.36-8.9,4.56,4.56,0,0,1-.52.18,4.07,4.07,0,0,1-2.58-7.7,64.56,64.56,0,0,0-4.56-7.92,4.07,4.07,0,0,1-5.4-6.08,5.58,5.58,0,0,1,.46-.39,66.77,66.77,0,0,0-6.5-6.53,3.64,3.64,0,0,1-.4.48,4.07,4.07,0,0,1-6-5.45,64.69,64.69,0,0,0-8-4.64,3.77,3.77,0,0,1-.29.61,4.07,4.07,0,0,1-7.22-3.73,65.66,65.66,0,0,0-8.86-2.38,4.07,4.07,0,0,1-8.12-.37,4.14,4.14,0,0,1,.06-.7c-1.55-.11-3.11-.16-4.69-.16s-3,0-4.55.15a4.27,4.27,0,0,1,.07.71,4.07,4.07,0,0,1-8.13.34,67.06,67.06,0,0,0-9,2.41,4.82,4.82,0,0,1,.26.7,4.07,4.07,0,0,1-7.77,2.43,66.35,66.35,0,0,0-7.89,4.57,4.07,4.07,0,0,1-6,5.51,3.87,3.87,0,0,1-.45-.55,66.09,66.09,0,0,0-6.53,6.54,4.6,4.6,0,0,1,.54.45,4.07,4.07,0,0,1-5.49,6,65.17,65.17,0,0,0-4.62,8,3.54,3.54,0,0,1,.63.29,4.07,4.07,0,0,1-3.73,7.23,66.6,66.6,0,0,0-2.33,8.83,4.08,4.08,0,0,1-.42,8.13,3.18,3.18,0,0,1-.62-.06c-.1,1.47-.15,3-.15,4.45s.06,3.19.17,4.77a4.07,4.07,0,1,1,1.08,8.06,65.88,65.88,0,0,0,2.4,8.9,5.1,5.1,0,0,1,.55-.19,4.07,4.07,0,0,1,2.6,7.7,66.42,66.42,0,0,0,4.58,7.89,4.07,4.07,0,0,1,5.35,6.11,3.8,3.8,0,0,1-.37.33,68.44,68.44,0,0,0,6.5,6.47l.31-.36a4.07,4.07,0,0,1,6.16,5.3,65.2,65.2,0,0,0,8,4.58c.06-.13.13-.27.2-.4a4.07,4.07,0,0,1,7.32,3.5,66.17,66.17,0,0,0,8.8,2.33,4.07,4.07,0,0,1,8.09.65c0,.13,0,.26,0,.39,1.49.1,3,.16,4.5.16s3.11-.06,4.65-.17a2.36,2.36,0,0,1,0-.38,4.07,4.07,0,0,1,8.08-.68,65.06,65.06,0,0,0,8.92-2.39,2.29,2.29,0,0,1-.12-.37,4.07,4.07,0,0,1,7.63-2.76,65.78,65.78,0,0,0,7.81-4.52,4.07,4.07,0,0,1,6.2-5.24,3.58,3.58,0,0,1,.26.29,67,67,0,0,0,6.47-6.47Z" transform="translate(108.51 11.38)"/><path class="cls-8" d="M253.32,219.15l-2.51-38-2.62,38a173.73,173.73,0,0,1,2.62,28.09A181.09,181.09,0,0,1,253.32,219.15Z" transform="translate(108.51 11.38)"/><path class="cls-8" d="M250.71,247.34a174.42,174.42,0,0,1-28.1-2.61l-38,2.61,38,2.51A181.13,181.13,0,0,1,250.71,247.34Z" transform="translate(108.51 11.38)"/><path class="cls-8" d="M250.82,247.29a182.1,182.1,0,0,1,21.64-18.09l25.11-28.65-28.73,25A173.51,173.51,0,0,1,250.82,247.29Z" transform="translate(108.51 11.38)"/><path class="cls-8" d="M250.68,247.29a174,174,0,0,1-18-21.71l-28.73-25L229,229.2A181.2,181.2,0,0,1,250.68,247.29Z" transform="translate(108.51 11.38)"/><path class="cls-8" d="M260.63,220.82l7.59-37.33-12.53,36a173.8,173.8,0,0,1-4.87,27.79A181.88,181.88,0,0,1,260.63,220.82Z" transform="translate(108.51 11.38)"/><path class="cls-8" d="M277.23,257.17l37.33,7.59-36-12.53a173.56,173.56,0,0,1-27.77-4.87v0a180.87,180.87,0,0,1,28.08,2.51l38-2.51-38-2.61a174.17,174.17,0,0,1-28.08,2.61h0v0h0v0h0v0l0,0h0v0h0a173.78,173.78,0,0,1-27.81,4.73l-36,12.34L224.23,257a181.48,181.48,0,0,1,26.49-9.68h0A173.66,173.66,0,0,1,225.05,259l-31.71,21.12,34.25-16.67a180.91,180.91,0,0,1,23.13-16.1v0a174.42,174.42,0,0,1-21.69,18L204,294.1,232.67,269a181.43,181.43,0,0,1,18.06-21.61v0a175.2,175.2,0,0,1-16.29,22.95l-16.76,34.21,21.2-31.65a180.78,180.78,0,0,1,11.85-25.51v.06a173.86,173.86,0,0,1-9.88,26.27l-7.48,37.36,12.43-36a180,180,0,0,1,4.94-27.62c0,.06,0,.12,0,.19a174.52,174.52,0,0,1-2.61,27.75l2.62,38,2.51-38a181.41,181.41,0,0,1-2.51-27.74,181.21,181.21,0,0,1,4.74,27.45l12.24,36.07-7.29-37.39a173.86,173.86,0,0,1-9.69-26.14v-.19A181.68,181.68,0,0,1,262.49,273l21,31.76-16.58-34.3a173.93,173.93,0,0,1-16.13-23v-.06a180.77,180.77,0,0,1,18,21.58l28.65,25.1-25-28.72a174.1,174.1,0,0,1-21.65-18v0a181.92,181.92,0,0,1,23,16.22L308,280.45l-31.6-21.29a174,174,0,0,1-25.59-11.78v0A181.64,181.64,0,0,1,277.23,257.17Zm-26.45-9.8h0v0h0Zm0,0v0Zm0,0,0,0v0l0,0Zm0,0h0v0h0Zm0,0h0l0,0,0,0Zm0,0,0,0v.08Zm.06.23c0-.06,0-.12,0-.17v-.06l0,.06A.91.91,0,0,0,250.8,247.66Zm0-.18,0,0v0l0,0Zm0-.07,0,0v0h0Zm0,0h0v0h0Z" transform="translate(108.51 11.38)"/><path class="cls-8" d="M250.69,247.33a174.2,174.2,0,0,1-26.41-9.92l-37.35-7.49,36,12.43A181.23,181.23,0,0,1,250.69,247.33Z" transform="translate(108.51 11.38)"/><path class="cls-8" d="M250.82,247.31a181.5,181.5,0,0,1,25.64-11.75l31.76-21-34.3,16.58A173.78,173.78,0,0,1,250.82,247.31Z" transform="translate(108.51 11.38)"/><path class="cls-8" d="M250.69,247.28A174.35,174.35,0,0,1,239,221.58l-21.12-31.7,16.67,34.25A181.27,181.27,0,0,1,250.69,247.28Z" transform="translate(108.51 11.38)"/><path class="cls-8" d="M250.83,247.28a181.3,181.3,0,0,1,16.23-23.06l16.85-34.17-21.29,31.6A173.9,173.9,0,0,1,250.83,247.28Z" transform="translate(108.51 11.38)"/><path class="cls-8" d="M250.69,247.32a173.17,173.17,0,0,1-23-16.33l-34.21-16.76,31.64,21.2A181,181,0,0,1,250.69,247.32Z" transform="translate(108.51 11.38)"/><path class="cls-8" d="M250.82,247.33a180.67,180.67,0,0,1,27.78-4.83l36.07-12.24-37.39,7.29A174.39,174.39,0,0,1,250.82,247.33Z" transform="translate(108.51 11.38)"/><path class="cls-8" d="M250.7,247.26A173.78,173.78,0,0,1,246,219.45l-12.34-36L241,220.77A181.48,181.48,0,0,1,250.7,247.26Z" transform="translate(108.51 11.38)"/></g><path d="M268.59,522.41v-4.84h4.21v4.84Z" transform="translate(108.51 11.38)"/></g></g></svg>