<svg id="Layer_1" data-name="Layer 1" xmlns="http://www.w3.org/2000/svg" xmlns:xlink="http://www.w3.org/1999/xlink" viewBox="0 0 479.02 479.02"><defs><style>.cls-1{fill:none;}.cls-2{clip-path:url(#clip-path);}.cls-3{fill:#fff;}.cls-4{fill:#003478;}.cls-5{fill:#c60c30;}</style><clipPath id="clip-path" transform="translate(-14.65 -22.43)"><circle class="cls-1" cx="254.16" cy="261.94" r="239.51"/></clipPath></defs><g class="cls-2"><rect class="cls-3" width="479.02" height="479.02"/><rect x="362.26" y="365.54" width="36.59" height="13.31" transform="translate(-154.87 459.95) rotate(-56.31)"/><rect x="345.65" y="354.47" width="36.59" height="13.31" transform="translate(-153.05 441.2) rotate(-56.31)"/><rect x="329.05" y="343.4" width="36.59" height="13.31" transform="translate(-151.24 422.45) rotate(-56.31)"/><rect x="386.25" y="329.56" width="36.59" height="13.31" transform="translate(-114.25 463.88) rotate(-56.31)"/><rect x="369.64" y="318.49" width="36.59" height="13.31" transform="translate(-112.43 445.13) rotate(-56.31)"/><rect x="353.03" y="307.42" width="36.59" height="13.31" transform="translate(-110.62 426.39) rotate(-56.31)"/><rect x="142.33" y="292.14" width="13.31" height="79.84" transform="matrix(0.83, -0.55, 0.55, 0.83, -173.82, 115.98)"/><rect x="137.71" y="342.83" width="13.31" height="36.59" transform="matrix(0.83, -0.55, 0.55, 0.83, -190.72, 118.3)"/><rect x="113.73" y="306.84" width="13.31" height="36.59" transform="translate(-174.79 98.95) rotate(-33.69)"/><rect x="109.11" y="314.28" width="13.31" height="79.84" transform="translate(-191.68 101.27) rotate(-33.69)"/><rect x="397.89" y="169.38" width="13.31" height="36.59" transform="translate(-50.81 233.49) rotate(-33.69)"/><rect x="373.9" y="133.39" width="13.31" height="36.59" transform="translate(-34.88 214.14) rotate(-33.69)"/><rect x="369.29" y="140.83" width="13.31" height="79.84" transform="translate(-51.77 216.46) rotate(-33.69)"/><rect x="364.68" y="191.52" width="13.31" height="36.59" transform="translate(-68.67 218.78) rotate(-33.69)"/><rect x="340.69" y="155.54" width="13.31" height="36.59" transform="translate(-52.74 199.43) rotate(-33.69)"/><rect x="109.06" y="185.17" width="79.84" height="13.31" transform="translate(-107.92 186.95) rotate(-56.31)"/><rect x="92.46" y="174.1" width="79.84" height="13.31" transform="translate(-106.1 168.2) rotate(-56.31)"/><rect x="75.85" y="163.03" width="79.84" height="13.31" transform="translate(-104.28 149.45) rotate(-56.31)"/><path class="cls-4" d="M187.73,217.66a79.84,79.84,0,0,0,132.86,88.57,39.92,39.92,0,0,0-66.43-44.29,39.92,39.92,0,0,1-66.43-44.28Z" transform="translate(-14.65 -22.43)"/><path class="cls-5" d="M187.73,217.66a39.92,39.92,0,0,0,66.43,44.28,39.92,39.92,0,0,1,66.43,44.29,79.84,79.84,0,1,0-132.86-88.57Z" transform="translate(-14.65 -22.43)"/></g></svg>