<svg id="Layer_1" data-name="Layer 1" xmlns="http://www.w3.org/2000/svg" xmlns:xlink="http://www.w3.org/1999/xlink" viewBox="0 0 718.53 479.02"><defs><style>.cls-1{fill:none;}.cls-2{clip-path:url(#clip-path);}.cls-3,.cls-7{fill:#e00c10;}.cls-4{fill:#10662a;}.cls-5{fill:#fcf800;}.cls-5,.cls-6,.cls-7,.cls-8{fill-rule:evenodd;}.cls-6{fill:#fff;}.cls-9{fill:#003494;}</style><clipPath id="clip-path" transform="translate(31.97 -24.37)"><circle class="cls-1" cx="255.44" cy="263.88" r="239.51"/></clipPath></defs><g class="cls-2"><rect class="cls-3" x="287.41" width="431.12" height="479.02"/><rect class="cls-4" width="287.41" height="479.02"/><path class="cls-5" d="M348.78,337.31c-36-1.09-201-103.7-202.16-120l9.11-15.14c16.37,23.69,185.08,123.49,201.66,120l-8.62,15.22" transform="translate(31.97 -24.37)"/><path class="cls-5" d="M349.62,337.77c-.61,1.1-1.75,1.14-3.91.9-13.46-1.48-54.31-21.27-102.65-50.1-56.24-33.53-102.7-64.09-97.65-72.08l1.38-2.42.26.09c-4.53,13.53,91.67,68.32,97.34,71.82,55.66,34.35,102.59,54.42,106.74,49.2l-1.51,2.59M153.81,200.07c-3.23,8.65,43.07,37.17,98.77,70.91s103.72,54.6,107.28,51.61a29.81,29.81,0,0,0,1.61-3c-.67,1-2.29,1.31-4.82.58-15-4.32-54.3-22.26-102.91-51.63s-90.89-56.41-97.46-67.91a7.11,7.11,0,0,1-.72-3.38h-.16L154,199.69Z" transform="translate(31.97 -24.37)"/><path d="M347.4,339.14a16.08,16.08,0,0,1-1.72-.12c-13.74-1.52-55.05-21.67-102.79-50.14-63.81-38-95.89-60.95-98.07-70a3.17,3.17,0,0,1,.3-2.53l1.36-2.41a.35.35,0,0,1,.41-.15l.27.08a.34.34,0,0,1,.22.43c-3.51,10.46,57.05,47.86,93.45,69.22,1.92,1.13,3.21,1.88,3.73,2.21,55,33.91,102.27,54.34,106.3,49.28a.34.34,0,0,1,.46-.07.33.33,0,0,1,.1.45l-1.5,2.59,0,0A2.53,2.53,0,0,1,347.4,339.14Zm-200.84-124-.86,1.5a2.51,2.51,0,0,0-.22,2c2.14,8.89,34.12,31.65,97.76,69.59,47.66,28.43,88.86,48.55,102.51,50.06,2.11.23,3.07.17,3.57-.73l0-.05.82-1.41c-9.79,2.94-62.08-22.79-106-49.88l-3.72-2.19C178.14,247.51,146.57,224.34,146.56,215.17Zm212.08,108c-9.55,0-57.7-22.51-106.24-51.92C192.46,235,150.27,208.59,153.49,200l0,0,.19-.38,1.41-2.46a.36.36,0,0,1,.31-.17h.16a.32.32,0,0,1,.24.11.38.38,0,0,1,.09.25,6.59,6.59,0,0,0,.67,3.19c6.95,12.16,55.67,42.62,97.34,67.79,45.71,27.62,86.33,46.86,102.82,51.6,2.21.64,3.83.47,4.45-.45a.34.34,0,0,1,.22-.15.36.36,0,0,1,.35.15c.15.22.18.26-1.56,3.27l-.05.08a.28.28,0,0,1-.07.09A2.31,2.31,0,0,1,358.64,323.19Zm-204.51-123c-3.21,8.8,50.89,41.57,98.63,70.48,57.23,34.68,103.3,54.15,106.84,51.67v0c.41-.71.71-1.24.93-1.64a6.71,6.71,0,0,1-4-.19c-16.53-4.75-57.22-24-103-51.67-79.46-48-93.89-61.57-97.59-68a7.05,7.05,0,0,1-.73-2.59Z" transform="translate(31.97 -24.37)"/><path class="cls-5" d="M255.77,227.16c36-.28,80.47-4.9,106-15.06l-5.51-8.92c-15.12,8.34-59.82,13.82-100.85,14.64-48.53-.44-82.78-4.94-100-16.41l-5.2,9.49c31.55,13.3,63.88,16.13,105.46,16.26" transform="translate(31.97 -24.37)"/><path class="cls-5" d="M358.47,203.26c-2.73,2.18-16.34,7-40.29,10.8a434.63,434.63,0,0,1-62.27,4.35,419.35,419.35,0,0,1-60.14-3.86c-24.32-3.15-37.26-8.86-41.93-10.53.46-.8.93-1.59,1.42-2.39,3.63,1.82,16.13,6.87,40.78,10.35a431.39,431.39,0,0,0,59.87,3.71,427.3,427.3,0,0,0,61.82-4.38c24.07-3.29,37-9.42,39-11l1.75,2.91m4.84,9.05c-.88,1.4-17.56,7.13-42.14,11.36a438,438,0,0,1-65.53,4.72,466.09,466.09,0,0,1-62.77-4c-25.79-4-39.11-9.63-44-11.61.48-.94.78-1.59,1.23-2.46a191.14,191.14,0,0,0,43.22,11.41,461.39,461.39,0,0,0,62.28,4,440.38,440.38,0,0,0,65.07-4.81c25.2-4.05,39-9.27,40.9-11.68Z" transform="translate(31.97 -24.37)"/><path d="M255.14,228.73a467.24,467.24,0,0,1-62.31-4c-25-3.9-38.49-9.36-43.58-11.42l-.54-.22a.32.32,0,0,1-.19-.19.39.39,0,0,1,0-.28l.53-1c.22-.46.44-.9.7-1.41a.35.35,0,0,1,.43-.16,191.33,191.33,0,0,0,43.15,11.4,465.91,465.91,0,0,0,61.74,4h.49a442.62,442.62,0,0,0,65-4.81c24.89-4,38.77-9.16,40.69-11.56a.38.38,0,0,1,.29-.12.35.35,0,0,1,.27.17l1.78,3a.36.36,0,0,1,0,.35l-.06.07c-1.43,1.71-18.58,7.37-42.32,11.45a440.4,440.4,0,0,1-65.59,4.73ZM149.31,212.64l.19.08c5.08,2.05,18.55,7.49,43.43,11.38a467.32,467.32,0,0,0,62.21,4h.5a440.27,440.27,0,0,0,65.48-4.72c24.35-4.19,40.08-9.69,41.77-11.07l-1.43-2.45c-2.75,2.45-15.55,7.4-40.78,11.45a442.61,442.61,0,0,1-65.11,4.82,466.27,466.27,0,0,1-62.33-4,192.36,192.36,0,0,1-43-11.32l-.56,1.12Zm106.1,6.11a427.84,427.84,0,0,1-59.69-3.85c-21.55-2.81-34-7.55-40.05-9.83l-1.94-.73a.35.35,0,0,1-.21-.2.33.33,0,0,1,0-.29c.46-.8.94-1.59,1.43-2.4a.33.33,0,0,1,.44-.12c2.13,1.06,14.08,6.56,40.67,10.31,12,1.7,32,3.71,59.29,3.71h.54A428.08,428.08,0,0,0,317.68,211c23-3.15,36.51-9.09,38.83-10.9a.32.32,0,0,1,.27-.06.3.3,0,0,1,.23.16l1.76,2.91a.34.34,0,0,1-.08.44c-2.68,2.14-16,7-40.46,10.87a439.19,439.19,0,0,1-62.31,4.35ZM154.34,203.84l1.57.59c6,2.27,18.43,7,39.91,9.79a426.24,426.24,0,0,0,59.59,3.85h.51a437.67,437.67,0,0,0,62.21-4.35c23.62-3.75,36.77-8.37,39.89-10.55l-1.41-2.33c-2.62,1.72-15.05,7.55-38.84,10.81A427.4,427.4,0,0,1,255.92,216h-.54A427.36,427.36,0,0,1,196,212.32c-25.69-3.62-37.81-8.9-40.59-10.25C155,202.66,154.69,203.25,154.34,203.84Z" transform="translate(31.97 -24.37)"/><path class="cls-5" d="M137.48,270.4c22.16,11.87,71.37,17.85,117.93,18.26,42.4.07,97.64-6.52,118.3-17.43l-.56-11.88c-6.47,10-65.67,19.71-118.2,19.32s-101.3-8.48-117.56-18.95l.09,10.68" transform="translate(31.97 -24.37)"/><path class="cls-5" d="M374.85,258.61v2.83c-3.1,3.7-22.56,9.29-47,13.23-18.58,2.84-42.8,5-73,5-28.67,0-51.54-2-69.28-4.75-28-4.06-46-11.18-49.56-13.31l0-3.3c10.82,7.16,40.1,12.4,49.94,14C203.62,275,226.36,277,254.89,277c30,0,54.12-2.13,72.59-4.95,17.51-2.52,42.46-9.08,47.37-13.44m0,10.08v2.84c-3.1,3.69-22.57,9.28-47,13.21-18.58,2.84-42.8,5-73,5-28.68,0-51.54-2-69.28-4.75-28-4.06-46-11.18-49.56-13.3l0-3.31c10.81,7.16,40.1,12.4,49.94,14,17.61,2.7,40.35,4.71,68.88,4.71,30,0,54.13-2.12,72.58-4.94,17.52-2.52,42.47-9.07,47.38-13.44Z" transform="translate(31.97 -24.37)"/><path d="M254.88,290.06a463.42,463.42,0,0,1-69.33-4.75c-26.85-3.9-45.36-10.81-49.68-13.36a.32.32,0,0,1-.17-.29l0-3.3a.34.34,0,0,1,.18-.3.36.36,0,0,1,.35,0c10.85,7.2,40.86,12.5,49.8,13.95,20.44,3.13,43.6,4.71,68.82,4.71,26.65,0,51.05-1.66,72.54-4.93,17.38-2.51,42.3-9,47.19-13.35a.35.35,0,0,1,.58.24v2.83a.34.34,0,0,1-.07.22c-3.23,3.84-23.08,9.45-47.2,13.34C306.28,288.39,281.71,290.06,254.88,290.06Zm-118.5-18.6c3.2,1.79,20.43,9,49.27,13.18,20.58,3.15,43.87,4.74,69.23,4.74,26.79,0,51.33-1.67,72.93-5,23.38-3.77,43.36-9.34,46.69-13v-2c-6.06,4.4-30.09,10.65-47,13.08-21.52,3.28-46,4.94-72.64,4.94A460.61,460.61,0,0,1,186,282.69c-8.84-1.43-38.18-6.62-49.55-13.71ZM254.89,280a463.52,463.52,0,0,1-69.33-4.75c-26.84-3.89-45.35-10.8-49.68-13.36a.34.34,0,0,1-.17-.29l0-3.3a.34.34,0,0,1,.53-.28c10.85,7.18,40.87,12.48,49.81,13.94a458.79,458.79,0,0,0,68.81,4.72c26.67,0,51.08-1.67,72.54-5,17.39-2.5,42.32-9,47.2-13.35a.36.36,0,0,1,.58.25v2.83a.35.35,0,0,1-.08.22c-3.23,3.84-23.08,9.45-47.19,13.34C306.29,278.3,281.72,280,254.89,280ZM136.4,261.39c3.2,1.78,20.43,9,49.26,13.17a463.54,463.54,0,0,0,69.23,4.74c26.8,0,51.33-1.67,72.93-5,23.39-3.77,43.36-9.34,46.7-13v-2c-6.07,4.4-30.1,10.64-47,13.07-21.5,3.29-45.94,5-72.65,5-25.27,0-48.46-1.59-68.92-4.73-8.84-1.44-38.18-6.62-49.55-13.71Z" transform="translate(31.97 -24.37)"/><path class="cls-5" d="M255.32,335.27c-51-.31-94.62-13.84-103.84-16.08l6.72,10.48c16.29,6.83,58.88,17,97.6,15.87s72.57-4.11,96.42-15.67L359.11,319c-16.25,7.63-71.56,16.19-103.79,16.27" transform="translate(31.97 -24.37)"/><path class="cls-5" d="M360.78,317.61l.08.09c-.76,1.27-1.54,2.57-2.34,3.87-6,2.14-22.28,6.89-46.06,10.2-15.66,2.12-25.4,4.18-56.56,4.78-58.39-1.47-96.2-12.85-105.18-15.65l-1.33-2.55c33.84,8.8,68.41,14.95,106.51,15.57,28.51-.6,40.64-2.69,56.17-4.8,27.73-4.29,41.69-8.84,45.89-10.15,0-.08-.12-.16-.18-.24l3-1.12m-6,9.82q-1.51,2.31-3.09,4.55a272.45,272.45,0,0,1-36.45,9.3c-15.28,3.14-38.92,5.45-59.89,5.47-45.14-.66-82.09-9.47-99.47-17l-1.41-2.4.23-.35,2.38.91c30.91,11,65.63,15.41,98.52,16.2a335.74,335.74,0,0,0,58.72-5.4c25.94-5.17,36.43-9.07,39.64-10.85l.82-.45Z" transform="translate(31.97 -24.37)"/><path d="M255.37,347.07c-46-.67-82.43-9.57-99.61-17a.4.4,0,0,1-.15-.14l-1.4-2.4a.32.32,0,0,1,0-.34l.22-.36a.33.33,0,0,1,.4-.13l2.38.92c27.58,9.83,60.69,15.27,98.41,16.18h.94a338.12,338.12,0,0,0,57.71-5.39c29-5.79,37.59-9.74,39.55-10.81l.81-.46a.33.33,0,0,1,.4.06.32.32,0,0,1,0,.4c-1.05,1.6-2.09,3.13-3.1,4.55a.31.31,0,0,1-.16.12,271,271,0,0,1-36.51,9.33C299.44,344.87,275.35,347.06,255.37,347.07Zm-99.25-17.55c25.66,11.05,68.32,16.45,99.25,16.9,19.94,0,44-2.2,59.82-5.45a270.51,270.51,0,0,0,36.31-9.27c.75-1.06,1.52-2.18,2.3-3.34-2.55,1.3-11.78,5.18-39.39,10.7a339.61,339.61,0,0,1-57.85,5.4h-.94c-37.8-.91-71-6.36-98.63-16.22l-2.08-.8Zm99.79,7.36c-52.17-1.32-88.36-10.39-105.29-15.67a.38.38,0,0,1-.19-.16l-1.33-2.55a.32.32,0,0,1,0-.35.31.31,0,0,1,.34-.11c38.67,10,72.49,15,106.44,15.56a375.71,375.71,0,0,0,51.18-4.12c1.63-.23,3.26-.46,4.94-.68,26.69-4.14,40.72-8.54,45.34-10l.08,0a.57.57,0,0,1,0-.13.33.33,0,0,1,.2-.23l3-1.11h0a.35.35,0,0,1,.11,0h0a.33.33,0,0,1,.28.15l0,.05a.35.35,0,0,1,0,.39c-.76,1.27-1.54,2.57-2.34,3.87a.29.29,0,0,1-.17.14c-8,2.87-24.95,7.26-46.12,10.21-2.3.31-4.47.62-6.61.93C293.35,334.82,282.51,336.37,255.91,336.88ZM151,320.63c17,5.28,53,14.28,105,15.6,26.55-.52,37.37-2.07,49.9-3.86l6.61-.93c21-2.92,37.82-7.28,45.88-10.13l1.9-3.13-1.92.71a.28.28,0,0,1,0,.18.32.32,0,0,1-.21.21l-.5.15c-4.62,1.45-18.69,5.87-45.43,10l-4.95.68a374.87,374.87,0,0,1-51.27,4.13c-33.8-.56-67.46-5.45-105.89-15.4Z" transform="translate(31.97 -24.37)"/><path class="cls-5" d="M255.14,146.69c64.91,0,118.3,52.62,118.3,117.14S320.05,381,255.14,381,137.29,328.34,137.29,263.83s52.94-117.14,117.85-117.14M361.39,261c.17,33.4-17,63.36-30.8,76.58a111.1,111.1,0,0,1-75.74,31.28c-33.79.62-65.66-21.33-74.21-31-16.71-18.85-30.32-42.79-30.75-75.05,2.07-36.44,16.43-61.83,37.24-79.24s48.55-25.89,71.63-25.28c26.63.7,57.75,13.72,79.25,39.55C352.09,214.83,358.2,233.2,361.39,261Z" transform="translate(31.97 -24.37)"/><path d="M255.46,381.65c-65.23,0-118.3-52.87-118.3-117.85S190.23,146,255.46,146,373.75,198.82,373.75,263.8,320.69,381.65,255.46,381.65Zm0-235c-64.85,0-117.62,52.56-117.62,117.17S190.61,381,255.46,381,373.07,328.41,373.07,263.8,320.31,146.63,255.46,146.63Zm0,232.44a116,116,0,1,1,81.64-33.86A115.12,115.12,0,0,1,255.46,379.07Zm0-229.86a115.27,115.27,0,1,0,81.16,33.66A114.44,114.44,0,0,0,255.46,149.21Zm.09,222.47A108.63,108.63,0,1,1,332,340,107.85,107.85,0,0,1,255.55,371.68Zm0-215.28a107.94,107.94,0,1,0,76,31.52A107.14,107.14,0,0,0,255.55,156.4Zm0,212.69a106,106,0,1,1,74.65-31A105.28,105.28,0,0,1,255.55,369.09Zm0-210.11a105.33,105.33,0,1,0,74.17,30.76A104.57,104.57,0,0,0,255.55,159Z" transform="translate(31.97 -24.37)"/><polyline class="cls-5" points="291.25 120.08 291.25 121.37 283.8 121.37 283.8 120.11 281.23 120.11 281.23 358.91 283.8 358.91 283.8 357.79 291.29 357.79 291.29 358.95 293.86 358.95 293.82 120.08"/><path d="M259.23,382.26H252a.34.34,0,0,1-.34-.33.35.35,0,0,1,.34-.35h7.2a.35.35,0,0,1,.34.35A.34.34,0,0,1,259.23,382.26Zm-.05-236.11H252a.34.34,0,0,1,0-.68h7.16a.34.34,0,1,1,0,.68Z" transform="translate(31.97 -24.37)"/><path d="M261.89,383.64h-2.58a.34.34,0,0,1-.34-.34l0-238.83a.35.35,0,0,1,.1-.24.33.33,0,0,1,.24-.1h2.57a.35.35,0,0,1,.35.34l0,238.83a.34.34,0,0,1-.34.34Zm-2.24-.68h1.9l0-238.15h-1.89Zm-7.79.68h-2.59a.34.34,0,0,1-.34-.34V144.53a.13.13,0,0,1,0-.06.34.34,0,0,1,.34-.34h2.59a.34.34,0,0,1,.34.34V383.3a.31.31,0,0,1-.1.24A.35.35,0,0,1,251.86,383.64Zm-2.25-.68h1.91V144.81h-1.9Z" transform="translate(31.97 -24.37)"/><path class="cls-5" d="M137.08,258.79c14.78-13.56,69.36-22.36,117.79-22.13s105.76,10.13,118.24,21.84l.12,10.12c-10.44-9.79-55-21.47-118.27-21.59s-109.21,11.86-117.89,21.85V258.79" transform="translate(31.97 -24.37)"/><path d="M373.49,268.69a.34.34,0,0,1-.34-.34v-8.73a.35.35,0,0,1,.69,0v8.73A.35.35,0,0,1,373.49,268.69Zm-236.44-.35a.34.34,0,0,1-.34-.34v-8.74a.34.34,0,0,1,.68,0V268A.34.34,0,0,1,137.05,268.34Z" transform="translate(31.97 -24.37)"/><path class="cls-5" d="M255.52,235.53c27.86-.05,54.88,2.63,76.32,6.79,22.12,4.4,37.69,9.92,43,16.1v3.06c-6.41-7.7-27.36-13.34-43.5-16.57-21.27-4.12-48.12-6.78-75.82-6.73-29.24,0-56.33,2.81-77.29,6.88C162,248.13,138.64,255,136,261.51v-3.19c1.54-4.46,18.58-11.44,41.68-15.92,21.12-4.11,48.39-6.82,77.8-6.87m0,10.08c27.86-.06,54.88,2.63,76.32,6.78,22.12,4.41,37.69,9.92,43,16.11v3.06c-6.41-7.69-27.37-13.34-43.5-16.57-21.28-4.13-48.12-6.79-75.82-6.73-29.24.05-56.46,2.81-77.42,6.88-16.82,3.32-39.26,9.94-42.06,16.45V268.4c1.54-4.51,18.24-11.26,41.68-15.93C198.82,248.37,226.1,245.66,255.51,245.61Z" transform="translate(31.97 -24.37)"/><path d="M136,271.92H136a.34.34,0,0,1-.27-.34V268.4a.2.2,0,0,1,0-.11c1.65-4.85,19.29-11.64,41.93-16.15s50.22-6.82,77.87-6.87v0h.78c26.16,0,53,2.4,75.6,6.79,23.1,4.6,38,10.21,43.21,16.22a.27.27,0,0,1,.08.22v3.06a.33.33,0,0,1-.23.32.33.33,0,0,1-.37-.1c-6.79-8.14-30.05-13.81-43.31-16.46-22.63-4.39-49.49-6.77-75.76-6.72-27.31,0-54.78,2.49-77.36,6.87-18.32,3.63-39.23,10.25-41.81,16.25A.33.33,0,0,1,136,271.92Zm120.3-24c26,0,52.63,2.38,75.07,6.74,13,2.59,35.51,8.07,43.1,16v-2c-5.14-5.86-19.92-11.36-42.74-15.9-22.58-4.38-49.35-6.78-75.47-6.78h-.78c-27.6.05-55.21,2.48-77.73,6.86-18.7,3.72-39.52,10.46-41.41,15.65v1.88c5-6.72,28.13-12.86,41.65-15.53,22.62-4.4,50.13-6.85,77.49-6.89ZM136,261.85H136a.34.34,0,0,1-.28-.34v-3.19a.43.43,0,0,1,0-.11c1.69-4.9,19.71-11.84,41.94-16.15,22.56-4.38,50.21-6.82,77.86-6.87v0h.79c26.16,0,53,2.41,75.59,6.79C355,246.59,370,252.19,375.11,258.2a.31.31,0,0,1,.09.22v3.07a.32.32,0,0,1-.23.31.33.33,0,0,1-.37-.1c-6.79-8.14-30-13.8-43.31-16.45-22.39-4.35-49-6.73-74.94-6.73h-.82c-27.22,0-54.65,2.49-77.23,6.88-18.58,3.51-39.59,10.39-41.93,16.24A.34.34,0,0,1,136,261.85Zm120.3-24c26,0,52.64,2.39,75.07,6.74,13,2.6,35.51,8.08,43.1,16v-2.06c-5.14-5.85-19.91-11.34-42.74-15.89s-49.88-6.81-76.25-6.78h0c-27.6,0-55.21,2.49-77.73,6.86-24.06,4.66-39.9,11.6-41.41,15.65v1.85c4.77-6.46,27.1-12.73,41.78-15.5,22.63-4.4,50.1-6.84,77.36-6.89Z" transform="translate(31.97 -24.37)"/><path class="cls-5" d="M255,184.12c43.89-.22,82.19,6.11,99.7,15.06l6.4,11c-15.23-8.17-56.54-16.67-106-15.4-40.33.25-83.43,4.43-105,15.92L157.59,198c17.75-9.16,59.59-13.82,97.36-13.86" transform="translate(31.97 -24.37)"/><path d="M359.42,208.07a.35.35,0,0,1-.3-.18l-3.65-6.77a.34.34,0,0,1,.6-.32l3.65,6.77a.34.34,0,0,1-.14.46A.29.29,0,0,1,359.42,208.07Z" transform="translate(31.97 -24.37)"/><path class="cls-5" d="M255.52,183.15c24-.07,47.62,1.26,66.06,4.56,14.55,2.82,28.93,7.23,34.2,11.15l2.76,4.38c-4.7-5.21-22.43-10.16-38.09-12.93-18.3-3.14-41-4.38-64.93-4.58-25.15.06-48.39,1.6-66.42,4.87-17.21,3.27-28.31,7.13-33,10.14l2.44-3.66c6.48-3.4,17-6.52,30.14-9.08,18.17-3.29,41.56-4.79,66.85-4.85m0,10.06c25-.07,49.23,1.34,68.47,4.8,17.93,3.32,35,8.31,37.45,11l1.9,3.33c-6-3.86-20.73-8.16-39.72-11.75s-43.25-4.75-68.15-4.68c-28.26-.1-50.21,1.38-69.06,4.65-19.92,3.72-33.75,9-37.16,11.55l1.85-3.53c6.63-3.36,17.15-7.42,34.82-10.59C205.42,194.43,227.6,193.36,255.53,193.21Z" transform="translate(31.97 -24.37)"/><path d="M363.35,212.68a.35.35,0,0,1-.19-.06c-5.82-3.79-20.25-8.05-39.59-11.71-17-3.18-39.91-4.74-68.09-4.68H253c-27,0-48.23,1.48-66.51,4.66-19.82,3.69-33.58,8.94-37,11.48a.33.33,0,0,1-.42,0,.33.33,0,0,1-.08-.42l1.85-3.52a.31.31,0,0,1,.15-.15c8.93-4.54,20.35-8,34.91-10.63,17.66-3.21,37.84-4.6,69.66-4.77h0c27-.06,50.67,1.59,68.53,4.8,18.27,3.39,35.16,8.37,37.65,11.1l1.94,3.4a.34.34,0,0,1-.07.41A.34.34,0,0,1,363.35,212.68Zm-106-17.13c27.39,0,49.71,1.58,66.36,4.69,18.28,3.46,32.22,7.47,38.72,11.13l-1.25-2.2c-2.32-2.53-19.39-7.52-37.22-10.83s-41.5-4.88-68.41-4.79h0c-31.77.17-51.92,1.55-69.54,4.76-14.44,2.59-25.77,6-34.62,10.52l-1.21,2.28c4.78-2.76,18-7.49,36.2-10.89,18.88-3.28,40.85-4.77,69.12-4.67Zm101.21,8a.36.36,0,0,1-.25-.11c-4.85-5.37-23.44-10.26-37.9-12.82-16.6-2.86-37.83-4.36-64.87-4.58-26.25.07-49.2,1.75-66.36,4.87-15.25,2.89-27.54,6.66-32.88,10.08a.34.34,0,0,1-.47-.47l2.44-3.66a.25.25,0,0,1,.12-.11c6.43-3.37,16.88-6.52,30.24-9.11,17.15-3.11,40.28-4.8,66.91-4.87h0c26.16-.08,49,1.52,66.12,4.58,15.6,3,29.4,7.53,34.34,11.2l.09.09,2.76,4.39a.33.33,0,0,1-.08.45A.31.31,0,0,1,358.54,203.58Zm-103-18.19c27.09.22,48.35,1.73,65,4.59,13.17,2.33,29.77,6.61,36.5,11.47l-1.49-2.36c-4.91-3.61-18.55-8.05-34-11-17-3.05-39.86-4.65-66-4.57h0c-26.58.07-49.68,1.75-66.78,4.86-13.24,2.56-23.6,5.67-30,9l-1.57,2.35c5.94-3.26,17.62-6.72,31.84-9.42C206.24,187.15,229.23,185.46,255.52,185.39Z" transform="translate(31.97 -24.37)"/><path class="cls-5" d="M314.12,312.65c-21.7-4-43.45-4.63-58.64-4.45-73.15.86-96.78,15-99.67,19.24l-5.46-8.88c18.62-13.45,58.46-21,105.53-20.22,24.44.4,45.54,2,63.28,5.44l-5,8.87" transform="translate(31.97 -24.37)"/><path d="M155.15,326.28a.32.32,0,0,1-.29-.17L151.27,320a.33.33,0,0,1,.12-.46.34.34,0,0,1,.47.12l3.59,6.15a.36.36,0,0,1-.13.47A.33.33,0,0,1,155.15,326.28Z" transform="translate(31.97 -24.37)"/><path class="cls-5" d="M256,296.74c21.08.4,42.85,1.37,64,5.55l-1.45,2.56c-19.11-3.78-37.38-5.05-62.45-5.43-27.08.05-55.81,2-81.93,9.54-8.44,2.45-23,7.73-23.48,11.92l-1.39-2.45c.32-3.8,12.92-8.76,24.26-12.05,26.32-7.62,55.13-9.58,82.42-9.64M255.06,307c20.35.3,40.33,1.14,59.61,4.72l-1.39,2.46c-17.91-3.3-37-4.56-58.15-4.46-27-.21-54.3,2.31-78.08,9.11-7.5,2.07-19.92,6.88-21.18,10.85l-1.39-2.28c.4-2.35,7.9-7.22,21.93-11.15C203.64,308.43,229.11,307.12,255.06,307Z" transform="translate(31.97 -24.37)"/><path d="M155.87,330a.31.31,0,0,1-.28-.15l-1.39-2.28a.37.37,0,0,1,0-.23c.46-2.64,8.38-7.54,22.17-11.4,26-7.43,50.31-9.08,78.74-9.27h0c19.3.29,39.88,1.06,59.66,4.73a.34.34,0,0,1,.24.18.35.35,0,0,1,0,.3l-1.4,2.46a.33.33,0,0,1-.34.16c-16.84-3.1-35.83-4.53-58.08-4.45-29.85-.25-56.08,2.82-78,9.09-8,2.22-19.8,7-21,10.64a.32.32,0,0,1-.27.22Zm-1.05-2.66,1,1.64c2.25-4,13.93-8.47,21.14-10.47,22-6.28,48.27-9.35,78.18-9.11h2.3c21.2,0,39.43,1.44,55.67,4.41l1.05-1.85c-19.59-3.59-40-4.35-59.1-4.64-28.38.2-52.6,1.84-78.56,9.25C162.54,320.43,155.41,325.19,154.82,327.29Zm-4.12-6.08a.31.31,0,0,1-.28-.16L149,318.59a.29.29,0,0,1-.05-.18c.42-5,18.86-10.71,24.5-12.34,22.5-6.52,48.72-9.59,82.51-9.65h0c20.62.38,42.66,1.32,64.08,5.55a.33.33,0,0,1,.23.18.35.35,0,0,1,0,.3L318.84,305a.34.34,0,0,1-.35.16c-20.28-4-39.61-5.07-62.38-5.42-33.6.06-59.61,3.08-81.85,9.52-10.91,3.17-22.83,8.16-23.23,11.65a.34.34,0,0,1-.26.29Zm-1-2.84,1,1.69c2.37-5.16,21.23-10.76,23.47-11.41,22.3-6.46,48.36-9.5,82-9.55,22.73.34,42,1.39,62.28,5.38l1.11-2c-21.22-4.14-43.06-5.07-63.51-5.45-33.73.07-59.89,3.12-82.33,9.62C159.47,310.81,150.09,315.37,149.65,318.37Z" transform="translate(31.97 -24.37)"/><path class="cls-5" d="M156.57,197.84c36.23-.47,203.6,101.88,204.09,120.73L350.3,334.4c-4.69-21.88-174.51-121.49-202.53-119.6l8.79-17" transform="translate(31.97 -24.37)"/><path d="M351.11,333.84a.3.3,0,0,1-.18-.06.34.34,0,0,1-.11-.47l8.79-13.59a.34.34,0,0,1,.58.37l-8.79,13.59A.36.36,0,0,1,351.11,333.84Z" transform="translate(31.97 -24.37)"/><path d="M156.45,198.43a.33.33,0,0,0-.46.14l-8,15a.35.35,0,0,0,.15.46.29.29,0,0,0,.16,0,.35.35,0,0,0,.3-.18l7.94-15A.33.33,0,0,0,156.45,198.43Z" transform="translate(31.97 -24.37)"/><path class="cls-5" d="M361.7,319.73c4.26-8.37-41.59-42.78-98.44-76.28-58.15-32.83-100.06-52.16-107.72-46.4l-1.7,3.09c0,.17.06-.21.42-.49,1.39-1.21,3.69-1.13,4.74-1.15,13.18.2,50.83,17.46,103.65,47.62,23.15,13.43,97.77,61.11,97.49,74.52,0,1.15.1,1.39-.34,1.95l1.9-2.87m-215-105.53c6.72-4.54,56.16,17.39,107.88,48.46s100.88,66.36,96.43,73l-1.46,2.3-.68.53c.15-.11.89-1-.07-3.45-2.2-7.21-37.16-35-95.18-69.9C197.1,231.49,150,211.24,145.25,217l1.49-2.84h0Z" transform="translate(31.97 -24.37)"/><path d="M348.91,338.75a.34.34,0,0,1-.27-.13.34.34,0,0,1,.06-.47h0s.7-.79-.19-3.05c-2.26-7.42-39.24-36.17-95-69.73-59.33-35.24-103.72-53.34-108-48.13a.34.34,0,0,1-.46.07.35.35,0,0,1-.11-.44l1.46-2.78a.32.32,0,0,1,.18-.2c7.18-4.65,56.66,17.51,108.2,48.47,46.44,28,94.6,61.63,96.8,71.55a2.4,2.4,0,0,1-.26,1.88l-1.46,2.29a.27.27,0,0,1-.07.08l-.68.53h0A.36.36,0,0,1,348.91,338.75Zm-200.47-123c13,0,56.78,20.17,105.39,49,56.69,34.1,93,62.41,95.34,70.09a6.13,6.13,0,0,1,.49,2.26l1.1-1.72a1.73,1.73,0,0,0,.16-1.36c-2.13-9.64-51.3-43.83-96.48-71.12C204.07,232.67,154,210.06,147,214.42l-.86,1.63A7.1,7.1,0,0,1,148.44,215.74ZM359.8,322.93a.36.36,0,0,1-.2-.06.33.33,0,0,1-.08-.46l.19-.29a2.13,2.13,0,0,0,.1-1.06v-.42c.29-13.36-75.78-61.73-97.32-74.23-52.59-30-90.31-47.38-103.48-47.57h-.25c-1.07,0-3.07,0-4.26,1.06a1,1,0,0,0-.32.38.42.42,0,0,1-.43.22.4.4,0,0,1-.24-.39.23.23,0,0,1,0-.14l1.7-3.09a.52.52,0,0,1,.1-.11c9.19-6.91,63.86,21.4,108.09,46.37,51.32,30.25,103.31,67.42,98.58,76.73l0,0-1.7,2.58a3.74,3.74,0,0,1-.22.32A.32.32,0,0,1,359.8,322.93ZM159,198.16c13.29.19,51.13,17.57,103.82,47.66,15.24,8.84,98,60.18,97.66,74.82v.29l.92-1.39c3.85-7.75-39.31-41-98.32-75.81C201,208.67,162.9,192.18,155.8,197.27l-.83,1.52a9.17,9.17,0,0,1,3.77-.63Z" transform="translate(31.97 -24.37)"/><path class="cls-6" d="M184.8,276.75a69.58,69.58,0,0,0,20.8,49.54,70.61,70.61,0,0,0,120.65-49.48h0v-94l-141.46-.16,0,94.08" transform="translate(31.97 -24.37)"/><path d="M255.41,347.54a70.88,70.88,0,0,1-50.1-21,69.83,69.83,0,0,1-20.91-49.82l0-94.48h.4l141.86.17v94.37a70,70,0,0,1-20.9,50A71,71,0,0,1,255.41,347.54ZM185.18,183.07l0,93.68A69,69,0,0,0,205.88,326a70,70,0,0,0,99.3.23,69.24,69.24,0,0,0,20.66-49.42V183.23Z" transform="translate(31.97 -24.37)"/><path class="cls-7" d="M295.88,213.09v58l0,6.14a44,44,0,0,1-.29,5,39.33,39.33,0,0,1-11.61,23.38,40.56,40.56,0,0,1-69-28.61l0-64.11,80.94.15M187.45,276.88v.05a66.8,66.8,0,0,0,20,47.48,67.91,67.91,0,0,0,95.82.1A66.73,66.73,0,0,0,323.15,277V185.82l-135.63,0-.08,91.09" transform="translate(31.97 -24.37)"/><path d="M255.34,344.54a67.94,67.94,0,0,1-48.12-19.92,66.77,66.77,0,0,1-20.08-47.69l.61-.06v.06a66.2,66.2,0,0,0,19.89,47.27,67.62,67.62,0,0,0,95.4.1A66.24,66.24,0,0,0,322.85,277V186.12l-135,0-.09,90.77h-.6l.08-91.38,136.23,0V277a66.85,66.85,0,0,1-20,47.74A67.93,67.93,0,0,1,255.34,344.54Zm-.05-26.78a41.17,41.17,0,0,1-40.64-40.71V212.64h.3l81,.15.91.6h-.7v57.72l-.05,6.14a45.63,45.63,0,0,1-.29,5.06,39.69,39.69,0,0,1-11.7,23.57A40.72,40.72,0,0,1,255.29,317.76Zm-40-104.52,0,63.81a40.14,40.14,0,0,0,68.47,28.4,39,39,0,0,0,11.52-23.21,44.28,44.28,0,0,0,.28-5l.05-6.14V213.39Z" transform="translate(31.97 -24.37)"/><path class="cls-5" d="M211.24,209.16H211l-.86-7.33h.27a.85.85,0,0,0,0-1.68h.44a.79.79,0,0,0,.74-.83.8.8,0,0,0-.74-.84h-.93l-.15-4.16H210a.61.61,0,0,0,.64-.62v-2.38h-1.47v1.05h-1v-1.05H206.7v1.05h-1v-1h-1.43v2.36a.66.66,0,0,0,.67.62h.24l-.14,4.16h-1.3l-.33-7.91h.38a.61.61,0,0,0,.64-.61v-2.39h-1.46v1.06h-1.05v-1.05h-1.47v1.06h-1v-1h-1.43v2.35a.66.66,0,0,0,.66.63h.33l-.35,7.91h-1.31l-.15-4.16h.28a.61.61,0,0,0,.64-.62v-2.38h-1.47v1.05h-1v-1.05h-1.46v1.05h-1v-1h-1.43v2.36a.66.66,0,0,0,.66.62h.24l-.14,4.16h-.88a.8.8,0,0,0-.74.84.79.79,0,0,0,.74.83h.41a.85.85,0,0,0,0,1.68h.28l-.79,7.33h-.33a.95.95,0,0,0,0,1.86h20.19a.95.95,0,0,0,0-1.86Z" transform="translate(31.97 -24.37)"/><path class="cls-8" d="M211.25,208.86l-.82-6.74a1.09,1.09,0,0,0,1-1.13,1.14,1.14,0,0,1,.46-1.68,1.09,1.09,0,0,0-1-1.14h-.64L210,194.6h0a.91.91,0,0,0,.94-.91V191h-2.06v1.06h-.45v-1H206.4v1.05H206v-1h-2v2.66a1,1,0,0,0,.93.91l-.15,3.57H204l-.31-7.3h.13a.92.92,0,0,0,.95-.91v-2.69h-2.1v1.06h-.47v-1.06H200.1v1.06h-.47v-1h-2.06v2.65a1,1,0,0,0,1,.93h.07l-.33,7.3h-.73l-.16-3.55a.9.9,0,0,0,.94-.92V191h-2.06v1.06h-.45V191h-2.06v1.06h-.45v-1h-2v2.66a1,1,0,0,0,.88.91l-.11,3.56h-.59a1.1,1.1,0,0,0-1,1.14,1.14,1.14,0,0,0,.64,1,1.23,1.23,0,0,0-.19.64,1.08,1.08,0,0,0,1,1.13l-.73,6.74h-.07a1.24,1.24,0,0,0,0,2.46h20.19a1.16,1.16,0,0,0,1.08-1.23A1.17,1.17,0,0,0,211.25,208.86Zm-.6,0h-4.32a8,8,0,0,0-2.48-5.69,6.68,6.68,0,0,0-1.45-1h7.46Zm-9.55-5.05c-.25,0-2.84,1.24-3,5.07h-1.49c.19-5.8,4.43-6.65,4.49-6.67s4.34,1.23,4.61,6.67h-1.54C204,205,201.45,203.94,201.1,203.79Zm2.51,5H198.7a4.92,4.92,0,0,1,2.4-4.42A5,5,0,0,1,203.61,208.83Zm.92-15.14v-2.07h.83v1H207V191.6h.87v1h1.64V191.6h.87v2.09a.31.31,0,0,1-.34.32H204.9A.37.37,0,0,1,204.53,193.69Zm5.07,4.47h-4.29l.12-3.53h4Zm-11-7.89a.37.37,0,0,1-.38-.33v-2.06H199v1h1.66v-1.06h.9v1.06h1.67v-1.06h.9V190a.32.32,0,0,1-.35.31Zm4.84,7.87-4.5,0,.32-7.25h3.88Zm-11.5-4.44v-2.07h.83v1h1.65v-1.07h.86v1.06h1.64v-1.07h.87v2.09a.32.32,0,0,1-.34.33h-5.14A.37.37,0,0,1,191.89,193.7Zm5.07,4.46h-4.29l.12-3.53h4ZM191,199.31a.51.51,0,0,1,.44-.55h19.36a.56.56,0,0,1,0,1.09H191.48A.51.51,0,0,1,191,199.31Zm.44,1.68c0-.29.19-.54.41-.54H210.4c.22,0,.41.25.41.54s-.19.54-.41.54H191.89C191.67,201.53,191.48,201.28,191.48,201Zm1,1.14h7.31a6,6,0,0,0-1,.64,7.66,7.66,0,0,0-2.71,6.07h-4.31Zm18.8,8.59H191.05c-.25,0-.47-.29-.47-.63s.22-.63.47-.63h20.19c.26,0,.48.29.48.63S211.5,210.72,211.24,210.72Z" transform="translate(31.97 -24.37)"/><path class="cls-8" d="M201.68,195V193.2a.52.52,0,1,0-1,0V195Z" transform="translate(31.97 -24.37)"/><path class="cls-8" d="M207,195.85v1.41h1v-1.41A.5.5,0,1,0,207,195.85Z" transform="translate(31.97 -24.37)"/><path class="cls-8" d="M194.29,195.85v1.41h1v-1.41A.5.5,0,1,0,194.29,195.85Z" transform="translate(31.97 -24.37)"/><path class="cls-5" d="M211.24,264.12H211l-.86-7.33h.27a.85.85,0,0,0,0-1.67h.44a.85.85,0,0,0,0-1.68h-.93l-.15-4.15H210a.61.61,0,0,0,.64-.62v-2.39h-1.47v1.06h-1v-1.05H206.7v1.06h-1v-1h-1.43v2.35a.66.66,0,0,0,.67.63h.24l-.14,4.15h-1.3l-.33-7.9h.38a.62.62,0,0,0,.64-.62v-2.39h-1.46v1.06h-1.05v-1.06h-1.47v1.06h-1v-1h-1.43v2.36a.66.66,0,0,0,.66.63h.33l-.35,7.9h-1.31l-.15-4.15h.28a.61.61,0,0,0,.64-.62v-2.39h-1.47v1.06h-1v-1.05h-1.46v1.06h-1v-1h-1.43v2.35a.66.66,0,0,0,.66.63h.24l-.14,4.15h-.88a.85.85,0,0,0,0,1.68h.41a.85.85,0,0,0,0,1.67h.28l-.79,7.33h-.33a.88.88,0,0,0-.77.94.86.86,0,0,0,.77.92h20.19a.85.85,0,0,0,.77-.92A.87.87,0,0,0,211.24,264.12Z" transform="translate(31.97 -24.37)"/><path class="cls-8" d="M211.25,263.83l-.82-6.74a1.09,1.09,0,0,0,1-1.14,1.14,1.14,0,0,1,.46-1.68,1.09,1.09,0,0,0-1-1.13h-.64l-.16-3.57h0a.91.91,0,0,0,.94-.91V246h-2.06V247h-.45V246H206.4V247H206v-1h-2v2.66a.94.94,0,0,0,.93.91l-.15,3.58H204l-.31-7.31h.13a.92.92,0,0,0,.95-.91v-2.68h-2.1v1h-.47v-1H200.1v1h-.47v-1h-2.06v2.66a1,1,0,0,0,1,.92h.07l-.33,7.31h-.73l-.16-3.55a.92.92,0,0,0,.94-.92V246h-2.06v1.06h-.45V246h-2.06v1.07h-.45v-1h-2v2.65a.94.94,0,0,0,.88.91l-.11,3.57h-.59a1.09,1.09,0,0,0-1,1.13,1.17,1.17,0,0,0,.64,1,1.2,1.2,0,0,0-.19.63,1.07,1.07,0,0,0,1,1.13l-.73,6.75h-.07a1.24,1.24,0,0,0,0,2.45h20.19a1.24,1.24,0,0,0,0-2.45Zm-.6,0h-4.32a8,8,0,0,0-2.48-5.69,6.75,6.75,0,0,0-1.45-1h7.46Zm-9.55-5.06c-.25,0-2.84,1.24-3,5.08h-1.49c.19-5.8,4.43-6.66,4.49-6.67s4.34,1.22,4.61,6.67h-1.54C204,260,201.45,258.9,201.1,258.75Zm2.51,5H198.7a4.92,4.92,0,0,1,2.4-4.42A5,5,0,0,1,203.61,263.79Zm.92-15.14v-2.06h.83v1H207v-1.05h.87v1.06h1.64v-1.06h.87v2.09a.31.31,0,0,1-.34.31H204.9A.36.36,0,0,1,204.53,248.65Zm5.07,4.47h-4.29l.12-3.53h4Zm-11-7.88a.37.37,0,0,1-.38-.33v-2.06H199v1h1.66v-1h.9v1h1.67v-1h.9v2.09a.32.32,0,0,1-.35.32Zm4.84,7.86h-4.5l.32-7.26h3.88Zm-11.5-4.44V246.6h.83v1h1.65v-1.06h.86v1.06h1.64v-1.06h.87v2.09a.32.32,0,0,1-.34.32h-5.14A.37.37,0,0,1,191.89,248.66Zm5.07,4.46h-4.29l.12-3.53h4ZM191,254.27a.51.51,0,0,1,.44-.54h19.36a.51.51,0,0,1,.44.54.5.5,0,0,1-.44.54H191.48A.5.5,0,0,1,191,254.27Zm.44,1.68a.49.49,0,0,1,.41-.53H210.4a.49.49,0,0,1,.41.53c0,.3-.19.55-.41.55H191.89C191.67,256.5,191.48,256.25,191.48,256Zm1,1.14h7.31a6.12,6.12,0,0,0-1,.65,7.64,7.64,0,0,0-2.71,6.07h-4.31Zm18.8,8.6H191.05c-.25,0-.47-.29-.47-.63s.22-.64.47-.64h20.19c.26,0,.48.29.48.64S211.5,265.69,211.24,265.69Z" transform="translate(31.97 -24.37)"/><path class="cls-8" d="M201.68,250v-1.82a.52.52,0,1,0-1,0V250Z" transform="translate(31.97 -24.37)"/><path class="cls-8" d="M207,250.81v1.41h1v-1.41A.5.5,0,1,0,207,250.81Z" transform="translate(31.97 -24.37)"/><path class="cls-8" d="M194.29,250.81v1.41h1v-1.41A.5.5,0,1,0,194.29,250.81Z" transform="translate(31.97 -24.37)"/><path class="cls-5" d="M228.07,311l-.18.18-5.81-4.58.2-.19a.85.85,0,0,0-1.19-1.19l.31-.3a.85.85,0,0,0-1.19-1.19l-.66.66-3.06-2.83.2-.2a.61.61,0,0,0,0-.89l-1.7-1.69-1,1,.74.75-.74.74-.74-.75-1,1,.75.75-.74.73-.73-.73-1,1,1.67,1.67a.68.68,0,0,0,.92,0l.17-.17,2.85,3-.92.91-5.85-5.36.27-.27a.6.6,0,0,0,0-.88l-1.69-1.69-1,1,.75.75-.74.73-.74-.74-1,1,.75.75-.74.73-.74-.73-1,1,1.68,1.67a.66.66,0,0,0,.91,0l.23-.23,5.37,5.84-.93.92-3.05-2.83.19-.2a.61.61,0,0,0,0-.89l-1.7-1.69-1,1,.75.74-.74.74-.75-.74-1,1,.75.75-.74.74-.73-.74-1,1,1.68,1.67a.67.67,0,0,0,.91,0l.17-.17,2.85,3-.62.61a.85.85,0,0,0,1.19,1.19l.28-.28a.85.85,0,0,0,1.19,1.18l.21-.2L214,325l-.23.24a.95.95,0,0,0,1.32,1.31l14.28-14.22a.85.85,0,0,0-.12-1.19A.88.88,0,0,0,228.07,311Z" transform="translate(31.97 -24.37)"/><path class="cls-8" d="M227.87,310.75l-5.37-4.18a1.07,1.07,0,0,0-.11-1.49,1.21,1.21,0,0,0-.59-.31,1.12,1.12,0,0,0-.27-1.21,1.09,1.09,0,0,0-1.54-.07l-.46.45-2.64-2.41h0a.91.91,0,0,0,0-1.3l-1.91-1.9-1.46,1.45.76.75-.32.32-.75-.74-1.46,1.44.75.75-.32.31-.73-.72L210,303.3l1.89,1.88a1,1,0,0,0,1.3,0l2.44,2.63-.52.51-5.4-4.95.09-.09a.91.91,0,0,0,0-1.31l-1.91-1.9-1.48,1.47.75.75-.34.33-.75-.74-1.47,1.47.74.75-.33.33-.73-.73-1.46,1.45,1.89,1.87a1,1,0,0,0,1.35,0l0,0,5,5.39-.51.52-2.63-2.4a.91.91,0,0,0,0-1.31l-1.91-1.9-1.45,1.45.75.76-.32.31-.75-.74-1.46,1.44.76.75-.32.32-.74-.73-1.44,1.42,1.9,1.88a1,1,0,0,0,1.27,0l2.45,2.59-.42.42a1.09,1.09,0,0,0,.07,1.53,1.15,1.15,0,0,0,1.2.29,1.13,1.13,0,0,0,.31.59,1.08,1.08,0,0,0,1.48.12l4.27,5.29,0,0a1.15,1.15,0,0,0,.11,1.62,1.16,1.16,0,0,0,1.63.11l14.28-14.22a1.17,1.17,0,0,0-.11-1.62A1.18,1.18,0,0,0,227.87,310.75Zm-.44.41-3.05,3a8,8,0,0,0-5.8-2.28,7.09,7.09,0,0,0-1.75.29L222.1,307Zm-10.34,3.16c-.18.17-1.13,2.87,1.49,5.68l-1.05,1.05c-4-4.23-1.59-7.83-1.56-7.88s3.94-2.19,8,1.47l-1.09,1.09C220.06,313.13,217.44,314.18,217.09,314.32Zm5.35,1.79L219,319.57a4.9,4.9,0,0,1-1.44-4.82A5,5,0,0,1,222.44,316.11Zm-10.1-11.35-1.46-1.46.59-.59.73.73,1.16-1.15-.75-.75.62-.61.75.75,1.16-1.16-.75-.75.61-.61,1.49,1.48a.31.31,0,0,1,0,.46l-3.64,3.63A.37.37,0,0,1,212.34,304.76Zm6.77-.41-3,3-2.42-2.58,2.85-2.85Zm-13.42,2.2a.36.36,0,0,1-.5,0l-1.47-1.45.62-.61.73.73,1.18-1.17-.75-.75.63-.63.75.74,1.18-1.17-.75-.75.64-.63,1.48,1.48a.32.32,0,0,1,0,.47Zm9,2.16-3.2,3.16-4.92-5.36,2.74-2.73Zm-11.28,5L202,312.21l.59-.59.74.74,1.16-1.16-.75-.75.61-.6.75.74,1.16-1.15-.75-.76.61-.61,1.49,1.48a.32.32,0,0,1,0,.47l-3.63,3.62A.37.37,0,0,1,203.42,313.67Zm6.75-.42-3,3-2.42-2.57,2.86-2.86Zm-3.38,5a.51.51,0,0,1-.07-.7l13.69-13.64a.52.52,0,0,1,.7.08.51.51,0,0,1,.07.69L207.49,318.3A.52.52,0,0,1,206.79,318.24Zm1.51.87a.49.49,0,0,1-.1-.66l13.1-13.05a.57.57,0,0,1,.77.77l-13.1,13A.49.49,0,0,1,208.3,319.11Zm1.49.13,5.16-5.15a6.51,6.51,0,0,0-.25,1.17,7.65,7.65,0,0,0,2.39,6.2l-3.05,3Zm19.39-7.17-14.27,14.22a.57.57,0,0,1-.79-.11.58.58,0,0,1-.11-.78l14.28-14.22a.58.58,0,0,1,.78.11A.56.56,0,0,1,229.18,312.07Z" transform="translate(31.97 -24.37)"/><path class="cls-8" d="M211.28,307.71l-1.3-1.29a.52.52,0,1,0-.73.73l1.3,1.29Z" transform="translate(31.97 -24.37)"/><path class="cls-8" d="M215.6,304.57l1,1,.7-.69-1-1A.5.5,0,1,0,215.6,304.57Z" transform="translate(31.97 -24.37)"/><path class="cls-8" d="M206.64,313.5l1,1,.7-.69-1-1A.5.5,0,1,0,206.64,313.5Z" transform="translate(31.97 -24.37)"/><path class="cls-5" d="M265.7,209.16h-.25l-.86-7.33h.27a.85.85,0,0,0,0-1.68h.44a.79.79,0,0,0,.74-.83.8.8,0,0,0-.74-.84h-.93l-.16-4.16h.29a.61.61,0,0,0,.64-.62v-2.38h-1.47v1.05h-1v-1.05h-1.47v1.05h-1v-1h-1.43v2.36a.66.66,0,0,0,.67.62h.24l-.14,4.16h-1.3l-.33-7.91h.38a.61.61,0,0,0,.64-.61v-2.39h-1.47v1.06h-1v-1.05h-1.47v1.06h-1v-1H252.4v2.35a.66.66,0,0,0,.66.63h.33l-.36,7.91h-1.3l-.15-4.16h.28a.61.61,0,0,0,.64-.62v-2.38H251v1.05h-1v-1.05h-1.46v1.05h-1.05v-1h-1.43v2.36a.66.66,0,0,0,.67.62H247l-.15,4.16h-.87a.8.8,0,0,0-.74.84.79.79,0,0,0,.74.83h.4a.85.85,0,0,0,0,1.68h.29l-.79,7.33h-.33a.95.95,0,0,0,0,1.86H265.7a.95.95,0,0,0,0-1.86Z" transform="translate(31.97 -24.37)"/><path class="cls-8" d="M265.71,208.86l-.82-6.74a1.09,1.09,0,0,0,1-1.13,1.14,1.14,0,0,1,.46-1.68,1.09,1.09,0,0,0-1-1.14h-.64l-.17-3.57h0a.91.91,0,0,0,.94-.91V191h-2.06v1.06h-.46v-1h-2.06v1.05h-.44v-1h-2v2.66a1,1,0,0,0,.93.91l-.15,3.57h-.72l-.32-7.3h.13a.92.92,0,0,0,.95-.91v-2.69h-2.1v1.06h-.47v-1.06h-2.09v1.06h-.47v-1H252v2.65a1,1,0,0,0,1,.93h.07l-.33,7.3H252l-.16-3.55a.9.9,0,0,0,.94-.92V191h-2.06v1.06h-.45V191h-2.06v1.06h-.45v-1h-2v2.66a1,1,0,0,0,.88.91l-.11,3.56h-.59a1.1,1.1,0,0,0-1,1.14,1.14,1.14,0,0,0,.64,1,1.24,1.24,0,0,0-.2.64,1.09,1.09,0,0,0,1,1.13l-.74,6.74h-.06a1.24,1.24,0,0,0,0,2.46H265.7a1.24,1.24,0,0,0,0-2.46Zm-.6,0h-4.32a8,8,0,0,0-2.48-5.69,6.92,6.92,0,0,0-1.45-1h7.46Zm-9.55-5.05c-.25,0-2.84,1.24-3,5.07h-1.49c.18-5.8,4.43-6.65,4.49-6.67s4.34,1.23,4.61,6.67h-1.54C258.5,205,255.9,203.94,255.56,203.79Zm2.51,5h-4.91a4.92,4.92,0,0,1,2.4-4.42A5,5,0,0,1,258.07,208.83Zm.92-15.14v-2.07h.83v1h1.64V191.6h.87v1H264V191.6h.87v2.09a.32.32,0,0,1-.34.32h-5.14A.37.37,0,0,1,259,193.69Zm5.07,4.47h-4.29l.12-3.53h4ZM253,190.27a.37.37,0,0,1-.38-.33v-2.06h.87v1h1.66v-1.06h.9v1.06h1.67v-1.06h.9V190a.33.33,0,0,1-.36.31Zm4.84,7.87-4.51,0,.33-7.25h3.87Zm-11.5-4.44v-2.07h.83v1h1.64v-1.07h.87v1.06h1.64v-1.07h.87v2.09a.32.32,0,0,1-.34.33h-5.14A.37.37,0,0,1,246.35,193.7Zm5.07,4.46h-4.29l.11-3.53h4Zm-5.92,1.15a.51.51,0,0,1,.44-.55H265.3a.56.56,0,0,1,0,1.09H245.94A.51.51,0,0,1,245.5,199.31Zm.44,1.68c0-.29.18-.54.4-.54h18.52c.22,0,.41.25.41.54s-.19.54-.41.54H246.34C246.12,201.53,245.94,201.28,245.94,201Zm1,1.14h7.3a6.4,6.4,0,0,0-1,.64,7.66,7.66,0,0,0-2.71,6.07h-4.32Zm18.8,8.59H245.51c-.25,0-.47-.29-.47-.63s.22-.63.47-.63H265.7c.26,0,.48.29.48.63S266,210.72,265.7,210.72Z" transform="translate(31.97 -24.37)"/><path class="cls-8" d="M256.14,195V193.2a.52.52,0,1,0-1,0V195Z" transform="translate(31.97 -24.37)"/><path class="cls-8" d="M261.43,195.85v1.41h1v-1.41A.5.5,0,1,0,261.43,195.85Z" transform="translate(31.97 -24.37)"/><path class="cls-8" d="M248.75,195.85v1.41h1v-1.41A.5.5,0,1,0,248.75,195.85Z" transform="translate(31.97 -24.37)"/><path class="cls-5" d="M319.56,209.16h-.26l-.86-7.33h.28a.85.85,0,0,0,0-1.68h.43a.79.79,0,0,0,.74-.83.8.8,0,0,0-.74-.84h-.92l-.16-4.16h.29a.61.61,0,0,0,.63-.62v-2.38h-1.46v1.05h-1v-1.05H315v1.05h-1v-1h-1.43v2.36a.66.66,0,0,0,.67.62h.24l-.14,4.16H312l-.34-7.91h.39a.61.61,0,0,0,.63-.61v-2.39h-1.47v1.06h-1.05v-1.05h-1.46v1.06h-1.05v-1h-1.42v2.35a.66.66,0,0,0,.66.63h.32l-.35,7.91h-1.3l-.15-4.16h.27a.61.61,0,0,0,.64-.62v-2.38h-1.46v1.05h-1.05v-1.05h-1.46v1.05h-1.05v-1H299.9v2.36a.66.66,0,0,0,.66.62h.24l-.14,4.16h-.87a.8.8,0,0,0-.75.84.79.79,0,0,0,.75.83h.4a.85.85,0,0,0,0,1.68h.29l-.79,7.33h-.33a.94.94,0,0,0,0,1.86h20.19a.95.95,0,0,0,0-1.86Z" transform="translate(31.97 -24.37)"/><path class="cls-8" d="M319.57,208.86l-.83-6.74a1.09,1.09,0,0,0,1-1.13,1.2,1.2,0,0,0-.19-.63,1.14,1.14,0,0,0,.66-1.05,1.1,1.1,0,0,0-1-1.14h-.64l-.16-3.57h0a.91.91,0,0,0,.93-.91V191h-2.06v1.06h-.45v-1h-2.06v1.05h-.45v-1h-2v2.66a1,1,0,0,0,.93.91l-.14,3.57h-.73l-.31-7.3h.13a.92.92,0,0,0,.95-.91v-2.69H311v1.06h-.48v-1.06h-2.09v1.06h-.47v-1h-2.06v2.65a1,1,0,0,0,1,.93h.06l-.33,7.3h-.73l-.15-3.55a.9.9,0,0,0,.93-.92V191h-2.06v1.06h-.45V191h-2.06v1.06h-.45v-1h-2v2.66a1,1,0,0,0,.89.91l-.11,3.56h-.59a1.09,1.09,0,0,0-1,1.14,1.12,1.12,0,0,0,.64,1,1.16,1.16,0,0,0-.2.64,1.08,1.08,0,0,0,1,1.13l-.73,6.74h-.06a1.24,1.24,0,0,0,0,2.46h20.19a1.16,1.16,0,0,0,1.07-1.23A1.17,1.17,0,0,0,319.57,208.86Zm-.6,0h-4.32a8,8,0,0,0-2.48-5.69,6.92,6.92,0,0,0-1.45-1h7.46Zm-9.56-5.05c-.24,0-2.84,1.24-3,5.07h-1.49c.19-5.8,4.44-6.65,4.5-6.67s4.33,1.23,4.6,6.67H312.5C312.35,205,309.76,203.94,309.41,203.79Zm2.51,5H307a4.94,4.94,0,0,1,2.4-4.42A4.94,4.94,0,0,1,311.92,208.83Zm.92-15.14v-2.07h.84v1h1.63V191.6h.87v1h1.65V191.6h.87v2.09a.32.32,0,0,1-.34.32h-5.15A.37.37,0,0,1,312.84,193.69Zm5.08,4.47h-4.3l.12-3.53h4Zm-11.05-7.89a.38.38,0,0,1-.39-.33v-2.06h.87v1H309v-1.06h.9v1.06h1.66v-1.06h.91V190a.32.32,0,0,1-.35.31Zm4.83,7.87-4.5,0,.33-7.25h3.87Zm-11.49-4.44v-2.07H301v1h1.64v-1.07h.86v1.06h1.65v-1.07h.87v2.09a.32.32,0,0,1-.35.33h-5.14A.36.36,0,0,1,300.21,193.7Zm5.07,4.46H301l.11-3.53h4Zm-5.93,1.15a.52.52,0,0,1,.45-.55h19.35a.56.56,0,0,1,0,1.09H299.8A.51.51,0,0,1,299.35,199.31Zm.44,1.68c0-.29.19-.54.41-.54h18.52c.22,0,.41.25.41.54s-.19.54-.41.54H300.2C300,201.53,299.79,201.28,299.79,201Zm1,1.14h7.3a6,6,0,0,0-1,.64,7.66,7.66,0,0,0-2.71,6.07H300Zm18.8,8.59H299.37c-.26,0-.48-.29-.48-.63s.22-.63.48-.63h20.19c.26,0,.47.29.47.63S319.82,210.72,319.56,210.72Z" transform="translate(31.97 -24.37)"/><path class="cls-8" d="M310,195V193.2a.52.52,0,1,0-1,0V195Z" transform="translate(31.97 -24.37)"/><path class="cls-8" d="M315.28,195.85v1.41h1v-1.41A.5.5,0,1,0,315.28,195.85Z" transform="translate(31.97 -24.37)"/><path class="cls-8" d="M302.61,195.85v1.41h1v-1.41A.49.49,0,1,0,302.61,195.85Z" transform="translate(31.97 -24.37)"/><path class="cls-5" d="M319.56,264.13h-.26l-.86-7.33h.28a.78.78,0,0,0,.7-.84.77.77,0,0,0-.7-.83h.43a.85.85,0,0,0,0-1.68h-.92l-.16-4.15h.29a.61.61,0,0,0,.63-.62v-2.39h-1.46v1.05h-1v-1.05H315v1.05h-1v-1h-1.43v2.36a.67.67,0,0,0,.67.63h.24l-.14,4.15H312l-.34-7.91h.39a.61.61,0,0,0,.63-.61v-2.39h-1.47v1.06h-1.05v-1.05h-1.46v1.06h-1.05v-1h-1.42v2.36a.66.66,0,0,0,.66.62h.32l-.35,7.91h-1.3l-.15-4.15h.27a.62.62,0,0,0,.64-.62v-2.39h-1.46v1.05h-1.05v-1.05h-1.46v1.05h-1.05v-1H299.9v2.36a.67.67,0,0,0,.66.63h.24l-.14,4.15h-.87a.85.85,0,0,0,0,1.68h.4a.77.77,0,0,0-.7.83.78.78,0,0,0,.7.84h.29l-.79,7.33h-.33a.94.94,0,0,0,0,1.86h20.19a.95.95,0,0,0,0-1.86Z" transform="translate(31.97 -24.37)"/><path class="cls-8" d="M319.57,263.83l-.83-6.74a1.08,1.08,0,0,0,1-1.13,1.2,1.2,0,0,0-.19-.63,1.14,1.14,0,0,0,.66-1.05,1.1,1.1,0,0,0-1-1.14h-.64l-.16-3.57h0a.91.91,0,0,0,.93-.91V246h-2.06V247h-.45v-1h-2.06V247h-.45v-1h-2v2.66a1,1,0,0,0,.93.91l-.14,3.57h-.73l-.31-7.3h.13a.92.92,0,0,0,.95-.91v-2.69H311v1.06h-.48v-1.06h-2.09v1.06h-.47v-1h-2.06v2.66a1,1,0,0,0,1,.92h.06l-.33,7.3h-.73l-.15-3.55a.9.9,0,0,0,.93-.91V246h-2.06v1.06h-.45V246h-2.06v1.06h-.45v-1h-2v2.66a1,1,0,0,0,.89.91l-.11,3.56h-.59a1.09,1.09,0,0,0-1,1.14,1.12,1.12,0,0,0,.64,1,1.18,1.18,0,0,0-.2.64,1.08,1.08,0,0,0,1,1.13l-.73,6.74h-.06a1.24,1.24,0,0,0,0,2.46h20.19a1.16,1.16,0,0,0,1.07-1.23A1.17,1.17,0,0,0,319.57,263.83Zm-.6,0h-4.32a8.07,8.07,0,0,0-2.48-5.7,7.32,7.32,0,0,0-1.45-1h7.46Zm-9.56-5.06c-.24,0-2.84,1.24-3,5.07h-1.49c.19-5.8,4.44-6.65,4.5-6.67s4.33,1.23,4.6,6.67H312.5C312.35,260,309.76,258.91,309.41,258.76Zm2.51,5H307a4.94,4.94,0,0,1,2.4-4.42A4.94,4.94,0,0,1,311.92,263.8Zm.92-15.14v-2.07h.84v1h1.63v-1.06h.87v1h1.65v-1.06h.87v2.09a.32.32,0,0,1-.34.32h-5.15A.37.37,0,0,1,312.84,248.66Zm5.08,4.47h-4.3l.12-3.53h4Zm-11.05-7.89a.38.38,0,0,1-.39-.33v-2.06h.87v1H309v-1h.9v1h1.66v-1h.91v2.09a.32.32,0,0,1-.35.31Zm4.83,7.87-4.5,0,.33-7.25h3.87Zm-11.49-4.44V246.6H301v1h1.64v-1.06h.86v1.06h1.65v-1.06h.87v2.09a.32.32,0,0,1-.35.32h-5.14A.36.36,0,0,1,300.21,248.67Zm5.07,4.46H301l.11-3.53h4Zm-5.93,1.15a.51.51,0,0,1,.45-.54h19.35a.5.5,0,0,1,.44.54.51.51,0,0,1-.44.54H299.8A.51.51,0,0,1,299.35,254.28Zm.44,1.68c0-.29.19-.54.41-.54h18.52c.22,0,.41.25.41.54s-.19.54-.41.54H300.2C300,256.5,299.79,256.25,299.79,256Zm1,1.14h7.3a6,6,0,0,0-1,.64,7.66,7.66,0,0,0-2.71,6.08H300Zm18.8,8.59H299.37c-.26,0-.48-.29-.48-.63s.22-.63.48-.63h20.19c.26,0,.47.29.47.63S319.82,265.69,319.56,265.69Z" transform="translate(31.97 -24.37)"/><path class="cls-8" d="M310,250v-1.83a.52.52,0,1,0-1,0V250Z" transform="translate(31.97 -24.37)"/><path class="cls-8" d="M315.28,250.82v1.41h1v-1.41A.5.5,0,1,0,315.28,250.82Z" transform="translate(31.97 -24.37)"/><path class="cls-8" d="M302.61,250.82v1.41h1v-1.41A.49.49,0,1,0,302.61,250.82Z" transform="translate(31.97 -24.37)"/><path class="cls-5" d="M297.08,325.26l-.17-.18,4.59-5.79.19.19a.85.85,0,0,0,1.19-1.18l.31.31a.85.85,0,0,0,1.19-1.19l-.66-.65,2.84-3,.2.2a.63.63,0,0,0,.9,0l1.69-1.69-1-1-.75.74-.74-.74.75-.74-1-1-.75.74-.74-.73.73-.73-1-1-1.67,1.67a.65.65,0,0,0,0,.91l.17.17-3.05,2.84-.92-.91,5.38-5.83.27.27a.62.62,0,0,0,.89,0l1.7-1.68-1-1-.75.75-.74-.74.75-.74-1-1-.76.75-.74-.74.74-.73-1-1-1.67,1.66a.66.66,0,0,0,0,.91l.23.23-5.86,5.35-.93-.92,2.85-3,.19.19a.62.62,0,0,0,.9,0l1.69-1.68-1-1-.75.75-.74-.74.74-.74-1-1-.75.74-.74-.74.74-.73-1-1-1.67,1.67a.67.67,0,0,0,0,.91l.17.17-3.05,2.83-.62-.61a.8.8,0,0,0-1.12.07.8.8,0,0,0-.07,1.12l.29.28a.85.85,0,0,0-1.19,1.18l.2.21L283,311.27l-.23-.23a.95.95,0,0,0-1.32,1.32l14.27,14.22a.88.88,0,0,0,1.21-.12A.86.86,0,0,0,297.08,325.26Z" transform="translate(31.97 -24.37)"/><path class="cls-8" d="M297.3,325.06l4.2-5.35a1.09,1.09,0,0,0,1.5-.11,1.21,1.21,0,0,0,.31-.59,1.12,1.12,0,0,0,1.21-.27,1.08,1.08,0,0,0,.08-1.53l-.46-.46,2.42-2.63h0a.91.91,0,0,0,1.3,0l1.91-1.9-1.46-1.45-.75.75-.32-.32.75-.74L306.55,309l-.75.74-.32-.31.73-.73-1.43-1.43-1.88,1.88a.94.94,0,0,0,0,1.3l-2.65,2.42-.51-.51,5-5.38.09.09a.93.93,0,0,0,1.32,0l1.91-1.89-1.49-1.48-.75.75-.33-.34.75-.74-1.48-1.48-.75.75-.33-.33.73-.73-1.45-1.46L301.06,302a1,1,0,0,0,0,1.35l.05,0-5.42,4.94-.52-.52,2.42-2.62a.9.9,0,0,0,1.31,0l1.9-1.9-1.45-1.45-.76.75-.32-.31.75-.75-1.45-1.45-.75.75-.32-.32.74-.73-1.44-1.43L294,300.28a1,1,0,0,0,0,1.26l-2.6,2.45-.42-.42a1.1,1.1,0,0,0-1.54.07,1.13,1.13,0,0,0-.29,1.19,1.21,1.21,0,0,0-.59.31,1.07,1.07,0,0,0-.12,1.48l-5.31,4.25,0,0a1.24,1.24,0,0,0-1.74,1.74l14.27,14.22a1.18,1.18,0,0,0,1.63-.11A1.16,1.16,0,0,0,297.3,325.06Zm-.41-.44-3.06-3a7.94,7.94,0,0,0,2.29-5.77,7,7,0,0,0-.29-1.75l5.27,5.25Zm-3.17-10.3c-.17-.18-2.88-1.13-5.7,1.49L287,314.76c4.25-4,7.86-1.59,7.91-1.55s2.2,3.91-1.48,8l-1.09-1.09C294.91,317.27,293.86,314.67,293.72,314.32Zm-1.8,5.33-3.47-3.46a4.93,4.93,0,0,1,4.83-1.43A4.94,4.94,0,0,1,291.92,319.65Zm11.4-10.06,1.46-1.46.59.59-.73.73,1.16,1.15.74-.74.62.61-.75.75,1.16,1.16.75-.75.62.61-1.49,1.48a.31.31,0,0,1-.46,0l-3.64-3.62A.37.37,0,0,1,303.32,309.59Zm.41,6.74-3-3,2.59-2.41,2.86,2.85ZM301.52,303a.37.37,0,0,1,0-.51l1.46-1.46.61.62-.73.73,1.17,1.17.75-.75.64.64-.75.74,1.17,1.18.75-.75.64.64-1.48,1.47a.33.33,0,0,1-.48,0Zm-2.17,9-3.17-3.19,5.38-4.9,2.74,2.73Zm-5-11.24,1.46-1.47.59.59-.74.74,1.16,1.16.75-.75.61.61-.75.75,1.16,1.15.76-.75.61.61-1.48,1.48a.31.31,0,0,1-.47,0l-3.64-3.62A.36.36,0,0,1,294.38,300.7Zm.41,6.72-3-3,2.59-2.42,2.86,2.86Zm-5-3.36a.51.51,0,0,1,.7-.07l13.69,13.63a.52.52,0,0,1-.08.7.5.5,0,0,1-.69.07l-13.69-13.63A.51.51,0,0,1,289.79,304.06Zm-.88,1.5a.5.5,0,0,1,.67-.09l13.09,13a.49.49,0,0,1-.09.67.51.51,0,0,1-.68.1l-13.09-13A.49.49,0,0,1,288.91,305.56Zm-.13,1.48,5.17,5.15a6.45,6.45,0,0,0-1.18-.25,7.68,7.68,0,0,0-6.22,2.38l-3.05-3ZM296,326.37,281.7,312.15a.66.66,0,0,1,.9-.9l14.27,14.22a.58.58,0,0,1-.11.79A.59.59,0,0,1,296,326.37Z" transform="translate(31.97 -24.37)"/><path class="cls-8" d="M300.35,308.53l1.3-1.29a.52.52,0,1,0-.73-.73l-1.3,1.29Z" transform="translate(31.97 -24.37)"/><path class="cls-8" d="M303.51,312.84l-1,1,.7.7,1-1A.49.49,0,1,0,303.51,312.84Z" transform="translate(31.97 -24.37)"/><path class="cls-8" d="M294.55,303.91l-1,1,.69.69,1-1A.49.49,0,1,0,294.55,303.91Z" transform="translate(31.97 -24.37)"/><path class="cls-9" d="M246.6,284.35l0,12.78h0a9.88,9.88,0,0,0,2.63,6.75,8.51,8.51,0,0,0,12.64,0,9.88,9.88,0,0,0,2.62-6.76V284.37Zm4,16.34a1.77,1.77,0,1,1,1.77-1.77A1.77,1.77,0,0,1,250.6,300.69Zm0-9.71a1.76,1.76,0,1,1,1.77-1.76A1.78,1.78,0,0,1,250.6,291Zm4.87,4.75a1.77,1.77,0,1,1,1.77-1.76A1.77,1.77,0,0,1,255.47,295.73Zm5,4.95a1.77,1.77,0,1,1,1.77-1.77A1.77,1.77,0,0,1,260.42,300.68Zm0-9.69a1.77,1.77,0,1,1,1.77-1.76A1.77,1.77,0,0,1,260.43,291Z" transform="translate(31.97 -24.37)"/><path class="cls-9" d="M271.53,253.81l0,12.77h0a9.94,9.94,0,0,0,2.64,6.76,8.51,8.51,0,0,0,12.63,0,9.89,9.89,0,0,0,2.63-6.76V253.82Zm4,16.33a1.77,1.77,0,1,1,1.77-1.77A1.77,1.77,0,0,1,275.54,270.14Zm0-9.71a1.76,1.76,0,1,1,1.77-1.76A1.76,1.76,0,0,1,275.54,260.43Zm4.86,4.75a1.77,1.77,0,1,1,1.77-1.76A1.76,1.76,0,0,1,280.4,265.18Zm5,4.95a1.77,1.77,0,1,1,1.77-1.77A1.77,1.77,0,0,1,285.35,270.13Zm0-9.69a1.77,1.77,0,1,1,1.77-1.76A1.77,1.77,0,0,1,285.36,260.44Z" transform="translate(31.97 -24.37)"/><path class="cls-9" d="M246.6,253.81l0,12.77h0a9.93,9.93,0,0,0,2.63,6.76,8.52,8.52,0,0,0,12.64,0,9.88,9.88,0,0,0,2.62-6.76V253.82Zm4,16.33a1.77,1.77,0,1,1,1.77-1.77A1.77,1.77,0,0,1,250.6,270.14Zm0-9.71a1.76,1.76,0,1,1,1.77-1.76A1.77,1.77,0,0,1,250.6,260.43Zm4.87,4.75a1.77,1.77,0,1,1,1.77-1.76A1.77,1.77,0,0,1,255.47,265.18Zm5,4.95a1.77,1.77,0,1,1,1.77-1.77A1.77,1.77,0,0,1,260.42,270.13Zm0-9.69a1.77,1.77,0,1,1,1.77-1.76A1.77,1.77,0,0,1,260.43,260.44Z" transform="translate(31.97 -24.37)"/><path class="cls-9" d="M222,253.81l0,12.77h0a9.89,9.89,0,0,0,2.64,6.76,8.51,8.51,0,0,0,12.63,0,9.89,9.89,0,0,0,2.63-6.76V253.82Zm4,16.33a1.77,1.77,0,1,1,1.76-1.77A1.77,1.77,0,0,1,226.05,270.14Zm0-9.71a1.76,1.76,0,1,1,1.76-1.76A1.76,1.76,0,0,1,226.05,260.43Zm4.86,4.75a1.77,1.77,0,1,1,1.77-1.76A1.76,1.76,0,0,1,230.91,265.18Zm5,4.95a1.77,1.77,0,1,1,1.77-1.77A1.77,1.77,0,0,1,235.86,270.13Zm0-9.69a1.77,1.77,0,1,1,1.77-1.76A1.76,1.76,0,0,1,235.87,260.44Z" transform="translate(31.97 -24.37)"/><path class="cls-9" d="M246.6,222.89l0,12.77h0a9.93,9.93,0,0,0,2.63,6.76,8.52,8.52,0,0,0,12.64,0,9.88,9.88,0,0,0,2.62-6.76V222.9Zm4,16.33a1.77,1.77,0,1,1,1.77-1.77A1.77,1.77,0,0,1,250.6,239.22Zm0-9.71a1.76,1.76,0,1,1,1.77-1.76A1.77,1.77,0,0,1,250.6,229.51Zm4.87,4.75a1.77,1.77,0,1,1,1.77-1.76A1.77,1.77,0,0,1,255.47,234.26Zm5,5a1.77,1.77,0,1,1,1.77-1.77A1.77,1.77,0,0,1,260.42,239.21Zm0-9.69a1.77,1.77,0,1,1,1.77-1.76A1.77,1.77,0,0,1,260.43,229.52Z" transform="translate(31.97 -24.37)"/></g></svg>