<svg id="Layer_1" data-name="Layer 1" xmlns="http://www.w3.org/2000/svg" xmlns:xlink="http://www.w3.org/1999/xlink" viewBox="0 0 718.53 479.02"><defs><style>.cls-1{fill:none;}.cls-2{clip-path:url(#clip-path);}.cls-3{fill:#007640;}.cls-4{fill:#fff;}.cls-5{fill:#002a8a;}.cls-6{fill:#d42422;}.cls-7{fill:#fcb612;}</style><clipPath id="clip-path" transform="translate(22.22 -19.16)"><circle class="cls-1" cx="253.21" cy="258.67" r="239.51"/></clipPath></defs><g class="cls-2"><rect class="cls-3" x="97.53" y="-100.59" width="479.02" height="718.53" transform="translate(617.93 -97.53) rotate(90)"/><polygon class="cls-4" points="86.22 479.02 373.63 287.41 718.53 287.41 718.53 479.02 86.22 479.02"/><polygon class="cls-4" points="86.22 0 373.63 191.61 718.53 191.61 718.53 0 86.22 0"/><polygon class="cls-5" points="143.71 479.02 383.21 319.35 718.53 319.35 718.53 479.02 143.71 479.02"/><polygon class="cls-6" points="143.71 0 383.21 159.67 718.53 159.67 718.53 0 143.71 0"/><polygon class="cls-7" points="0 421.54 0 57.48 273.04 239.51 0 421.54"/><polygon points="0 383.21 0 95.8 215.56 239.51 0 383.21"/></g></svg>