<svg id="Layer_1" data-name="Layer 1" xmlns="http://www.w3.org/2000/svg" xmlns:xlink="http://www.w3.org/1999/xlink" viewBox="0 0 718.53 479.02"><defs><style>.cls-1{fill:none;}.cls-2{clip-path:url(#clip-path);}.cls-3{fill:#c60c1a;}.cls-4{fill:#00247c;}.cls-5{fill:#feca00;}.cls-6{fill:#fff;}</style><clipPath id="clip-path" transform="translate(107.17 -19.16)"><circle class="cls-1" cx="252.09" cy="258.67" r="239.51"/></clipPath></defs><g class="cls-2"><rect class="cls-3" x="172.26" y="59.08" width="159.67" height="718.53" transform="translate(777.6 147.09) rotate(90)"/><rect class="cls-4" x="172.26" y="-100.59" width="159.67" height="718.53" transform="translate(617.93 -12.58) rotate(90)"/><rect class="cls-5" x="172.26" y="-260.27" width="159.67" height="718.53" transform="translate(458.26 -172.26) rotate(90)"/><polygon class="cls-6" points="337.72 186.8 330.77 173.74 328.71 188.39 314.15 190.96 327.44 197.44 325.38 212.09 335.66 201.45 348.95 207.94 342.01 194.88 352.29 184.23 337.72 186.8"/><polygon class="cls-6" points="301.04 195.73 288.23 203.13 277.23 193.23 280.31 207.7 267.5 215.09 282.21 216.64 285.28 231.11 291.3 217.6 306.01 219.14 295.02 209.25 301.04 195.73"/><polygon class="cls-6" points="256.81 224.06 247.3 235.4 233.58 229.85 241.42 242.4 231.91 253.73 246.27 250.15 254.11 262.7 255.14 247.94 269.49 244.36 255.78 238.82 256.81 224.06"/><polygon class="cls-6" points="229.01 280.04 224.94 265.81 219.88 279.72 205.09 279.2 216.75 288.31 211.69 302.21 223.96 293.94 235.61 303.04 231.53 288.82 243.8 280.55 229.01 280.04"/><polygon class="cls-6" points="389.81 188.39 387.75 173.74 380.81 186.8 366.24 184.23 376.51 194.88 369.57 207.94 382.87 201.45 393.14 212.09 391.08 197.44 404.38 190.96 389.81 188.39"/><polygon class="cls-6" points="438.22 207.7 441.29 193.23 430.3 203.13 417.49 195.73 423.51 209.25 412.51 219.14 427.23 217.6 433.24 231.11 436.32 216.64 451.03 215.09 438.22 207.7"/><polygon class="cls-6" points="477.1 242.4 484.94 229.85 471.23 235.4 461.72 224.06 462.75 238.82 449.04 244.36 463.39 247.94 464.42 262.7 472.26 250.15 486.61 253.73 477.1 242.4"/><polygon class="cls-6" points="513.43 279.2 498.65 279.72 493.59 265.81 489.51 280.04 474.73 280.55 486.99 288.82 482.91 303.04 494.57 293.94 506.83 302.21 501.77 288.31 513.43 279.2"/></g></svg>