<svg id="Layer_1" data-name="Layer 1" xmlns="http://www.w3.org/2000/svg" xmlns:xlink="http://www.w3.org/1999/xlink" viewBox="0 0 718.53 479.02"><defs><style>.cls-1{fill:none;}.cls-2{clip-path:url(#clip-path);}.cls-3{fill:#fff;}.cls-4{fill:#d41820;}</style><clipPath id="clip-path" transform="translate(-13.7 -19.16)"><circle class="cls-1" cx="253.21" cy="258.67" r="239.51"/></clipPath></defs><g class="cls-2"><rect class="cls-3" x="253.21" y="19.16" width="239.51" height="718.53" transform="translate(737.69 -13.7) rotate(90)"/><rect class="cls-4" x="253.21" y="-220.35" width="239.51" height="718.53" transform="translate(498.18 -253.21) rotate(90)"/><path class="cls-3" d="M191.87,138.91a89.84,89.84,0,0,1,65.49-86.45,88.16,88.16,0,1,0,0,172.91A89.84,89.84,0,0,1,191.87,138.91Z" transform="translate(-13.7 -19.16)"/><polygon class="cls-3" points="307.77 152.19 302.99 137.48 298.21 152.19 282.74 152.19 295.26 161.29 290.48 176 302.99 166.91 315.51 176 310.73 161.29 323.24 152.19 307.77 152.19"/><polygon class="cls-3" points="251.07 152.19 246.29 137.48 241.51 152.19 226.04 152.19 238.56 161.29 233.78 176 246.29 166.91 258.81 176 254.03 161.29 266.54 152.19 251.07 152.19"/><polygon class="cls-3" points="340.76 98.27 325.29 98.27 320.51 83.56 315.73 98.27 300.26 98.27 312.78 107.36 308 122.07 320.51 112.98 333.03 122.08 328.25 107.36 340.76 98.27"/><polygon class="cls-3" points="233.55 98.27 228.77 83.56 223.99 98.27 208.52 98.27 221.04 107.36 216.26 122.08 228.77 112.98 241.28 122.07 236.5 107.36 249.02 98.27 233.55 98.27"/><polygon class="cls-3" points="282.38 74.03 294.89 64.94 279.42 64.94 274.64 50.23 269.86 64.94 254.39 64.94 266.91 74.03 262.13 88.75 274.64 79.66 287.16 88.75 282.38 74.03"/></g></svg>