<svg xmlns="http://www.w3.org/2000/svg" viewBox="0 0 240 216"><defs><style>.cls-1{fill:#fff;}.cls-2{fill:#e3493c;}</style></defs><title>Superalgos-logo-vert-dark</title><g id="Layer_4" data-name="Layer 4"><path class="cls-1" d="M13.23,207.58A28.44,28.44,0,0,1,10,207v-4a44.92,44.92,0,0,0,5.33.37,10.47,10.47,0,0,0,2.22-.18,2.42,2.42,0,0,0,1.23-.7,3.21,3.21,0,0,0,.59-1.48,15.56,15.56,0,0,0,.16-2.54,21.51,21.51,0,0,0-.16-3.25,1.91,1.91,0,0,0-.73-1.3,5.88,5.88,0,0,0-2-.73l-4-.79a3.17,3.17,0,0,1-2.5-2.36,20.78,20.78,0,0,1-.63-5.91,14.52,14.52,0,0,1,.86-5.6A5.4,5.4,0,0,1,13,175.75a10,10,0,0,1,4.41-.84,22.82,22.82,0,0,1,3.57.26c1.08.17,1.85.32,2.32.44v4a14.8,14.8,0,0,0-1.87-.26c-.88-.08-1.76-.12-2.66-.12a9.88,9.88,0,0,0-2.5.24,2,2,0,0,0-1.24.84,3.14,3.14,0,0,0-.56,1.42,15.61,15.61,0,0,0-.14,2.31,18.37,18.37,0,0,0,.14,2.69,1.94,1.94,0,0,0,.54,1.17,2.83,2.83,0,0,0,1.33.53l3.5.75a6.46,6.46,0,0,1,2.5,1,4.4,4.4,0,0,1,1.47,2.33,17.51,17.51,0,0,1,.51,5.18,19,19,0,0,1-.77,6.15,5.21,5.21,0,0,1-2.4,3,9.52,9.52,0,0,1-4.44.86A33.32,33.32,0,0,1,13.23,207.58Z"/><path class="cls-1" d="M47.9,175.29v18.07a66.38,66.38,0,0,1-.44,9.1,6.09,6.09,0,0,1-2.08,4.06q-1.64,1.26-5.42,1.26t-5.41-1.26a6,6,0,0,1-2.06-4,69.05,69.05,0,0,1-.42-9.13V175.29h4.76v20.07c0,2.62.06,4.44.17,5.47a3.11,3.11,0,0,0,.79,2.07,3.38,3.38,0,0,0,2.17.54,3.46,3.46,0,0,0,2.22-.54,3.11,3.11,0,0,0,.79-2.07c.11-1,.17-2.85.17-5.47V175.29Z"/><path class="cls-1" d="M56.53,175.29H64.8a7.32,7.32,0,0,1,4.62,1.23,5.85,5.85,0,0,1,2,3.43,28,28,0,0,1,.49,5.89,28.72,28.72,0,0,1-.46,5.74,6,6,0,0,1-2,3.5,7,7,0,0,1-4.64,1.31H61.3v11H56.53Zm7.52,16.81a3.2,3.2,0,0,0,2.08-.54,2.93,2.93,0,0,0,.84-1.8,26.3,26.3,0,0,0,.21-3.92,25.81,25.81,0,0,0-.21-3.9,2.86,2.86,0,0,0-.84-1.77,3.2,3.2,0,0,0-2.08-.54H61.3V192.1Z"/><path class="cls-1" d="M79.69,207.41V175.29H92.35v4.34H84.5V189h6.87v4.35H84.5v9.71h7.85v4.34Z"/><path class="cls-1" d="M111.61,207.41l-2.94-11.95h-3.6v11.95h-4.76V175.29h8.45a7.6,7.6,0,0,1,4.62,1.16,5.5,5.5,0,0,1,2,3.29,25.84,25.84,0,0,1,.49,5.63,23.83,23.83,0,0,1-.56,5.79,5.11,5.11,0,0,1-2.33,3.27l3.5,13Zm-1.52-16.67a2.69,2.69,0,0,0,.84-1.68,22.64,22.64,0,0,0,.21-3.64,22.33,22.33,0,0,0-.21-3.6,2.7,2.7,0,0,0-.86-1.68,3.35,3.35,0,0,0-2.06-.51h-2.94v11.63H108A3.25,3.25,0,0,0,110.09,190.74Z"/><path class="cls-2" d="M137.14,207.41l-1.35-7.7h-6.26l-1.31,7.7h-4.76l5.79-32.12h6.91L142,207.41Zm-4.34-26.9h-.28l-2.47,15h5.23Z"/><path class="cls-2" d="M149.53,207.41V175.29h4.8V203h7.06v4.39Z"/><path class="cls-2" d="M176.41,193.68v-4.2h7.28v17.37a20,20,0,0,1-3.27.68,27.12,27.12,0,0,1-3.59.25,9.24,9.24,0,0,1-5.42-1.28c-1.18-.86-2-2.43-2.47-4.72a56.38,56.38,0,0,1-.7-10.43,54.83,54.83,0,0,1,.72-10.41c.48-2.28,1.35-3.85,2.59-4.72a10,10,0,0,1,5.7-1.31,23.71,23.71,0,0,1,3.29.26,23,23,0,0,1,3.1.63v4c-.9-.15-1.83-.28-2.8-.39a21.18,21.18,0,0,0-2.19-.17,8.38,8.38,0,0,0-3.81.61c-.7.41-1.19,1.41-1.47,3a57.35,57.35,0,0,0-.42,8.48c0,3.8.09,6.5.26,8.12a5.8,5.8,0,0,0,1,3.27,3.55,3.55,0,0,0,2.66.84,9.17,9.17,0,0,0,2.43-.28v-9.62Z"/><path class="cls-2" d="M194.2,206.43a6.66,6.66,0,0,1-2.15-4.53,85.84,85.84,0,0,1-.44-10.55,85.73,85.73,0,0,1,.44-10.55,6.66,6.66,0,0,1,2.15-4.53c1.13-.91,3-1.36,5.62-1.36s4.54.45,5.68,1.36a6.75,6.75,0,0,1,2.15,4.53,87.83,87.83,0,0,1,.44,10.55,88,88,0,0,1-.44,10.55,6.75,6.75,0,0,1-2.15,4.53q-1.71,1.35-5.68,1.35C197.21,207.78,195.33,207.33,194.2,206.43Zm8-3.59a5.19,5.19,0,0,0,.88-3q.24-2.39.24-8.5t-.24-8.5a5.16,5.16,0,0,0-.88-3,3.58,3.58,0,0,0-2.39-.61,3.44,3.44,0,0,0-2.35.61,5.34,5.34,0,0,0-.87,3q-.22,2.39-.23,8.5t.23,8.5a5.37,5.37,0,0,0,.87,3,3.44,3.44,0,0,0,2.35.6A3.59,3.59,0,0,0,202.21,202.84Z"/><path class="cls-2" d="M219.4,207.58a27.86,27.86,0,0,1-3.22-.54v-4a44.63,44.63,0,0,0,5.32.37,10.47,10.47,0,0,0,2.22-.18,2.42,2.42,0,0,0,1.23-.7,3.21,3.21,0,0,0,.59-1.48,15.56,15.56,0,0,0,.16-2.54,21.51,21.51,0,0,0-.16-3.25,1.91,1.91,0,0,0-.73-1.3,5.89,5.89,0,0,0-2-.73l-4-.79a3.17,3.17,0,0,1-2.5-2.36,20.78,20.78,0,0,1-.63-5.91,14.71,14.71,0,0,1,.86-5.6,5.4,5.4,0,0,1,2.57-2.85,10,10,0,0,1,4.41-.84,23.05,23.05,0,0,1,3.58.26c1.07.17,1.84.32,2.31.44v4a14.8,14.8,0,0,0-1.87-.26c-.87-.08-1.76-.12-2.66-.12a9.88,9.88,0,0,0-2.5.24,2,2,0,0,0-1.24.84,3.14,3.14,0,0,0-.56,1.42,15.61,15.61,0,0,0-.14,2.31,18.37,18.37,0,0,0,.14,2.69,1.94,1.94,0,0,0,.54,1.17,2.88,2.88,0,0,0,1.33.53l3.5.75a6.46,6.46,0,0,1,2.5,1,4.4,4.4,0,0,1,1.47,2.33,17.51,17.51,0,0,1,.51,5.18,19,19,0,0,1-.77,6.15,5.21,5.21,0,0,1-2.4,3,9.52,9.52,0,0,1-4.44.86A33.32,33.32,0,0,1,219.4,207.58Z"/><path class="cls-2" d="M115.74,91.81c2.19-.67,16.14,1.56,18,2.88,5.86,4.13,14.45,6.37,17.9,2.14s-.16-11.49-5.67-17c-1.64-1.65-6.92-14.51-6.66-16.82.79-7.26-1.6-15.93-7-16.79S121.82,53,120.52,59.59c-.45,2.29-9.45,13.32-11.51,14.28-6.52,3-12.68,9.31-10.73,14.41S109.4,93.75,115.74,91.81Z"/><path class="cls-2" d="M140,16.85c8.77.37,12.46,18.21,11,32.2-.45,4.44,9.88,29.43,11.69,33.54,1.64,3.72,5.35,5.34,5.68,5.68-6.67-18.1-7.26-32.62-6-36,5.7-15.73,3.2-36.89-5.33-41.81C151.27,7.13,138.68,5.8,130.67,19,134.45,16.5,136.88,16.71,140,16.85Z"/><path class="cls-2" d="M69.9,92.89C65.84,85.11,79.44,73,92.26,67.23c4.07-1.83,20.55-23.27,23.2-26.89,2.41-3.28,2-7.31,2.09-7.77C105.21,47.4,92.93,55.17,89.38,55.81,72.91,58.74,55.83,71.49,55.84,81.33,55.85,88,61,99.56,76.41,99.9,72.37,97.87,71.34,95.65,69.9,92.89Z"/><path class="cls-2" d="M171.26,117.09c-4.71,7.41-22,1.69-33.41-6.54-3.62-2.61-30.42-6.15-34.88-6.64-4-.44-7.31,2-7.77,2.08,19,3.27,31.88,10,34.2,12.78,10.78,12.79,30.36,21.21,38.88,16.28,5.76-3.33,13.21-13.57,5.8-27.11C174.33,112.46,172.93,114.47,171.26,117.09Z"/></g></svg>