<?xml version="1.0" encoding="utf-8"?>
<!-- Generator: Adobe Illustrator 19.0.0, SVG Export Plug-In . SVG Version: 6.00 Build 0)  -->
<svg version="1.1" id="Layer_1" focusable="false" xmlns="http://www.w3.org/2000/svg" xmlns:xlink="http://www.w3.org/1999/xlink"
	 x="0px" y="0px" viewBox="1163 -778.1 2645.8 2645.8" style="enable-background:new 1163 -778.1 2645.8 2645.8;"
	 xml:space="preserve">
<image style="overflow:visible;enable-background:new    ;" width="512" height="512" id="XMLID_1_" xlink:href="../png512/key-alt.png"  transform="matrix(1 0 0 1 3296.7842 1353.75)">
</image>
<image style="overflow:visible;enable-background:new    ;" width="512" height="512" id="XMLID_4_" xlink:href="../png512/key-arrows.png"  transform="matrix(1 0 0 1 2744.7842 1353.75)">
</image>
<image style="overflow:visible;enable-background:new    ;" width="512" height="512" id="XMLID_20_" xlink:href="../png512/key-ctrl.png"  transform="matrix(1 0 0 1 1163.0157 1353.75)">
</image>
<image style="overflow:visible;enable-background:new    ;" width="512" height="512" id="XMLID_23_" xlink:href="../png512/key-down.png"  transform="matrix(1 0 0 1 2231.0925 1355.75)">
</image>
<image style="overflow:visible;enable-background:new    ;" width="512" height="512" id="XMLID_26_" xlink:href="../png512/key-left.png"  transform="matrix(1 0 0 1 1725.0925 1353.75)">
</image>
<image style="overflow:visible;enable-background:new    ;" width="512" height="512" id="XMLID_32_" xlink:href="../png512/key-shift.png"  transform="matrix(1 0 0 1 1163.0157 941.7499)">
</image>
<image style="overflow:visible;enable-background:new    ;" width="512" height="512" id="XMLID_35_" xlink:href="../png512/key-up.png"  transform="matrix(5.859961e-003 0 0 5.859961e-003 1428.8564 -233.2644)">
</image>
<image style="overflow:visible;enable-background:new    ;" width="512" height="512" id="XMLID_38_" xlink:href="../png512/mouse-pointer.png"  transform="matrix(1 0 0 1 1720.8 83.95)">
</image>
<image style="overflow:visible;enable-background:new    ;" width="512" height="512" id="XMLID_29_" xlink:href="../png512/key-up.png"  transform="matrix(1 0 0 1 2231.0925 931.7499)">
</image>
<image style="overflow:visible;" width="512" height="512" xlink:href="../png512/hand-drag.png"  transform="matrix(1 0 0 1 2744.7842 83.95)">
</image>
<image style="overflow:visible;" width="512" height="512" xlink:href="../png512/mouse-left-click.png"  transform="matrix(1 0 0 1 1208.8 -778.05)">
</image>
<image style="overflow:visible;" width="512" height="512" xlink:href="../png512/mouse-right-click.png"  transform="matrix(1 0 0 1 1720.8 -778.05)">
</image>
<image style="overflow:visible;" width="512" height="512" xlink:href="../png512/mouse-wheel-click.png"  transform="matrix(1 0 0 1 2232.8 -778.05)">
</image>
<image style="overflow:visible;" width="512" height="512" xlink:href="../png512/mouse-wheel-down.png"  transform="matrix(1 0 0 1 2744.8 -778.05)">
</image>
<image style="overflow:visible;" width="512" height="512" xlink:href="../png512/mouse-wheel-up.png"  transform="matrix(1 0 0 1 3256.8 -778.05)">
</image>
</svg>
