<?xml version="1.0" encoding="utf-8"?>
<!-- Generator: Adobe Illustrator 19.0.0, SVG Export Plug-In . SVG Version: 6.00 Build 0)  -->
<svg version="1.1" id="Layer_1" focusable="false" xmlns="http://www.w3.org/2000/svg" xmlns:xlink="http://www.w3.org/1999/xlink"
	 x="0px" y="0px" viewBox="32 11 512 512" style="enable-background:new 32 11 512 512;" xml:space="preserve">
<style type="text/css">
	.st0{fill:#365558;}
	.st1{fill:#E6EAEA;}
	.st2{fill:#F0353D;}
	.st3{fill:#FD6A33;}
	.st4{fill:#FF8C29;}
	.st5{fill:#FFD1A9;}
	.st6{fill:#0295AA;}
	.st7{fill:#4ACFD9;}
	.st8{fill:none;stroke:#000000;stroke-miterlimit:10;}
	.st9{fill:#9BAAAB;}
	.st10{fill:#CDD4D5;}
	.st11{fill:#FFFFFF;}
	.st12{fill:#BCD643;}
</style>
<path class="st0" d="M116.4,254.5c-10.5,0-20.7,3.4-29.2,9.7c-10.7,7.9-17.7,19.6-19.8,32.9c-2.1,13.3,1.1,26.6,8.8,37.5
	l119.2,167.4c9.3,13.1,24.4,20.9,40.3,20.9h193.8c11.1,0,22.1-3.9,30.8-10.9c8.8-7.1,15.1-17.1,17.6-28.1l29.8-129.4
	c0.9-3.8,1.3-7.7,1.3-11.5v-91.3c0-26.5-1.8-46-11.1-58.2c-6.7-8.7-17.7-15.2-31.2-16.3c-7.1-0.6-14.6-1-22.8,2.2
	c-5.6,2.2-10.2,6.1-14.3,1.8c-2.4-2.5-2.3-8-5.2-13.6c-10.2-19.8-35.5-25.3-45.2-25.3s-15.9,1.8-22.9,5.1c-3,1.4-6.2,2.1-9.5,2.1
	c-6,0-11.9-2.5-16-6.8c-9.5-9.8-22.9-15.2-35.5-15.2c-12.7,0-24.4,5.7-32.3,14.1c0-8.9,0.1-26.2,0.1-32.6V61.5
	c0-27.9-22.3-50.5-49.8-50.5c-27.4,0-49.8,22.7-49.8,50.5v175.2c0,2.4,0,7.2,0,12.4c0,6.4,0,13.5,0,17.9c0,2.3-1.3,4.4-3.4,5.4
	c-2.1,1-4.5,0.7-6.3-0.7c-4.9-3.9-14.7-11.2-20.6-14.2C127.9,255.5,122.2,254.5,116.4,254.5z"/>
<path class="st1" d="M132.5,292.8l29.5,41.4c9.8,13.7,31.6,6.8,31.6-10.1V61.5c0-27.3,39.8-27.4,39.8,0v190.2
	c0,9.6,7.8,17.4,17.4,17.4h7.5c9.6,0,17.4-7.8,17.4-17.4v-70.7c0-27.3,39.8-27.4,39.8,0v70.7c0,9.6,7.8,17.4,17.4,17.4h7.5
	c9.6,0,17.4-7.8,17.4-17.4v-55.4c0-27.3,39.8-27.4,39.8,0v55.4c0,9.6,7.8,17.4,17.4,17.4h7.5c9.6,0,17.4-7.8,17.4-17.4
	c0-2,0.1-21.3,0.1-23.2c0-25,39.5-25.4,39.5,0.4c0,1.9,0.1,20.8,0.1,22.8v91.3c0,1.6-0.2,3.2-0.5,4.8L449,477.3
	c-2.2,9.3-10.1,15.8-19.3,15.8H235.8c-6.3,0-12.2-3.1-16-8.4L100.6,317.3C84.9,295.4,116.9,270.8,132.5,292.8L132.5,292.8z"/>
<path class="st0" d="M236,423.5V319.2c0-9.6,6.8-17.4,15.2-17.4h6.5c8.4,0,15.2,7.8,15.2,17.4v104.4c0,9.6-6.8,17.4-15.2,17.4h-6.5
	C242.8,440.9,236,433.1,236,423.5z"/>
<path class="st0" d="M318,423.5V319.2c0-9.6,6.8-17.4,15.2-17.4h6.5c8.4,0,15.2,7.8,15.2,17.4v104.4c0,9.6-6.8,17.4-15.2,17.4h-6.5
	C324.8,440.9,318,433.1,318,423.5z"/>
<path class="st0" d="M400,423.5V319.2c0-9.6,6.8-17.4,15.2-17.4h6.5c8.4,0,15.2,7.8,15.2,17.4v104.4c0,9.6-6.8,17.4-15.2,17.4h-6.5
	C406.8,440.9,400,433.1,400,423.5z"/>
<g>
	<g>
		<path class="st0" d="M834.9,464c-3.8,0-7.6-0.7-11.2-2.2c-7.7-3.1-14-9.3-17.3-17c0-0.1,0-0.1-0.1-0.2l-41.9-102l-66.8,68.7
			c-8.9,9.1-21.7,11.9-33.3,7.1c-11.9-4.8-19.6-16.3-19.6-29.2V-16.5c0-13.2,7.9-24.7,20.2-29.4c11.7-4.5,24.6-1.5,32.9,7.5
			l268.4,276.1c8.9,8.8,11.6,22.1,6.8,33.9c-4.9,11.9-16.1,19.6-28.6,19.6h-79.1l44.7,108.9c6.6,15.9-0.6,33.9-16.2,41
			c-0.1,0-0.1,0-0.2,0.1l-46.4,20.2C843.2,463.2,839,464,834.9,464z"/>
	</g>
	<path class="st1" d="M832.4,433.8c0.4,0.8,1,1.4,1.7,1.7c0.7,0.3,1.3,0.1,1.6,0l46.3-20.2c1.4-0.6,2.4-2.5,1.6-4.3l-52.7-128.5
		c-1.8-4.4-1.3-9.3,1.3-13.3c2.6-3.9,7-6.3,11.8-6.3h100.2c1.4,0,2.1-1.4,2.4-2c0.5-1.3,0.4-2.3-0.4-3.1c-0.1-0.1-0.2-0.2-0.3-0.3
		L677.2-18.8c-0.1-0.1-0.3-0.3-0.4-0.4c-0.2-0.2-0.6-0.7-1.9-0.2c-0.9,0.3-2,1.1-2,2.9v405.9c0,2,1.5,2.7,1.9,2.9
		c0.9,0.4,1.5,0.2,2.3-0.6l81.9-84.2c3.3-3.4,8.2-4.9,12.8-4c4.7,0.9,8.6,4.1,10.4,8.5L832.4,433.8z"/>
</g>
<g>
	<rect x="-564" y="-71.1" class="st2" width="128" height="128"/>
	<rect x="-436" y="-71.1" class="st3" width="128" height="128"/>
	<rect x="-308" y="-71.1" class="st4" width="128" height="128"/>
	<rect x="-180" y="-71.1" class="st5" width="128" height="128"/>
	<rect x="-564" y="56.9" class="st0" width="128" height="128"/>
	<rect x="-436" y="56.9" class="st6" width="128" height="128"/>
	<rect x="-308" y="56.9" class="st7" width="128" height="128"/>
	<rect x="-180" y="56.9" class="st8" width="128" height="128"/>
	<rect x="-564" y="184.9" class="st9" width="128" height="128"/>
	<rect x="-436" y="184.9" class="st10" width="128" height="128"/>
	<rect x="-308" y="184.9" class="st1" width="128" height="128"/>
	<rect x="-180" y="184.9" class="st11" width="128" height="128"/>
	<rect x="-564" y="312.9" class="st12" width="128" height="128"/>
	<rect x="-436" y="312.9" class="st8" width="128" height="128"/>
	<rect x="-308" y="312.9" class="st8" width="128" height="128"/>
	<rect x="-180" y="312.9" class="st8" width="128" height="128"/>
</g>
</svg>
