<?xml version="1.0" encoding="utf-8"?>
<!-- Generator: Adobe Illustrator 19.0.0, SVG Export Plug-In . SVG Version: 6.00 Build 0)  -->
<svg version="1.1" id="Layer_1" focusable="false" xmlns="http://www.w3.org/2000/svg" xmlns:xlink="http://www.w3.org/1999/xlink"
	 x="0px" y="0px" viewBox="-32 -74.5 512 512" style="enable-background:new -32 -74.5 512 512;" xml:space="preserve">
<style type="text/css">
	.st0{fill:#F0353D;}
	.st1{fill:#FD6A33;}
	.st2{fill:#FF8C29;}
	.st3{fill:#FFD1A9;}
	.st4{fill:#365558;}
	.st5{fill:#0295AA;}
	.st6{fill:#4ACFD9;}
	.st7{fill:none;stroke:#000000;stroke-miterlimit:10;}
	.st8{fill:#9BAAAB;}
	.st9{fill:#CDD4D5;}
	.st10{fill:#E6EAEA;}
	.st11{fill:#FFFFFF;}
	.st12{fill:#BCD643;}
	.st13{display:none;fill:#FD6A33;}
	.st14{display:none;fill:#FF8C29;}
	.st15{display:none;}
	.st16{font-family:'LaoUI-Bold';}
	.st17{font-size:175px;}
	.st18{letter-spacing:8;}
</style>
<g>
	<rect x="-614" y="-109.5" class="st0" width="128" height="128"/>
	<rect x="-486" y="-109.5" class="st1" width="128" height="128"/>
	<rect x="-358" y="-109.5" class="st2" width="128" height="128"/>
	<rect x="-230" y="-109.5" class="st3" width="128" height="128"/>
	<rect x="-614" y="18.5" class="st4" width="128" height="128"/>
	<rect x="-486" y="18.5" class="st5" width="128" height="128"/>
	<rect x="-358" y="18.5" class="st6" width="128" height="128"/>
	<rect x="-230" y="18.5" class="st7" width="128" height="128"/>
	<rect x="-614" y="146.5" class="st8" width="128" height="128"/>
	<rect x="-486" y="146.5" class="st9" width="128" height="128"/>
	<rect x="-358" y="146.5" class="st10" width="128" height="128"/>
	<rect x="-230" y="146.5" class="st11" width="128" height="128"/>
	<rect x="-614" y="274.5" class="st12" width="128" height="128"/>
	<rect x="-486" y="274.5" class="st7" width="128" height="128"/>
	<rect x="-358" y="274.5" class="st7" width="128" height="128"/>
	<rect x="-230" y="274.5" class="st7" width="128" height="128"/>
</g>
<path class="st11" d="M371.5,9.5H224v344h147.5c37.7,0,68.5-30.8,68.5-68.5V78C440,40.3,409.2,9.5,371.5,9.5z"/>
<path class="st10" d="M76.5,9.5C38.8,9.5,8,40.3,8,78v207c0,37.7,30.8,68.5,68.5,68.5H224V9.5H76.5z"/>
<path class="st6" d="M371.5,9.5H224v29h147.5c10.5,0,20.4,4.1,27.9,11.6C406.9,57.6,411,67.5,411,78v207c0,10.5-4.1,20.4-11.6,27.9
	c-7.5,7.5-17.4,11.6-27.9,11.6H224v29h147.5c37.7,0,68.5-30.8,68.5-68.5V78C440,40.3,409.2,9.5,371.5,9.5z"/>
<path class="st5" d="M76.5,324.5c-10.5,0-20.4-4.1-27.9-11.6C41.1,305.4,37,295.5,37,285V78c0-10.5,4.1-20.4,11.6-27.9
	c7.5-7.5,17.4-11.6,27.9-11.6H224v-29H76.5C38.8,9.5,8,40.3,8,78v207c0,37.7,30.8,68.5,68.5,68.5H224v-29H76.5z"/>
<path class="st13" d="M91.1,187.7c-2.8-2.9-6.1-5.5-10-7.8c-3.9-2.3-8.3-4.5-13.2-6.5c-3.6-1.5-6.8-2.9-9.7-4.3
	c-2.8-1.4-5.3-2.8-7.3-4.3c-2-1.5-3.5-3-4.6-4.6c-1.1-1.6-1.6-3.5-1.6-5.5c0-1.9,0.5-3.6,1.5-5.1c1-1.5,2.3-2.8,4.1-3.9
	c1.8-1.1,3.9-1.9,6.5-2.5c2.6-0.6,5.4-0.9,8.5-0.9c2.3,0,4.7,0.2,7.2,0.5c2.5,0.3,5.1,0.9,7.6,1.6c2.6,0.7,5.1,1.6,7.5,2.7
	c2.4,1.1,4.7,2.3,6.7,3.8v-25.5c-4.2-1.6-8.7-2.8-13.6-3.5c-4.9-0.8-10.6-1.2-17-1.2c-6.5,0-12.6,0.7-18.5,2.1
	c-5.8,1.4-10.9,3.6-15.3,6.5c-4.4,3-7.9,6.7-10.5,11.3c-2.6,4.6-3.8,10.1-3.8,16.4c0,8.1,2.3,15.1,7,20.8
	c4.7,5.8,11.8,10.6,21.4,14.6c3.8,1.5,7.3,3,10.5,4.5c3.2,1.5,6.1,3,8.4,4.6c2.4,1.6,4.2,3.3,5.6,5.2s2.1,4,2.1,6.4
	c0,1.8-0.4,3.4-1.3,4.9c-0.9,1.5-2.2,2.8-3.9,3.9c-1.7,1.1-3.9,2-6.5,2.6c-2.6,0.6-5.6,0.9-9.1,0.9c-5.9,0-11.8-1-17.6-3.1
	c-5.8-2.1-11.2-5.2-16.1-9.4v27.3c4.4,2.3,9.7,4,15.8,5.1c6.1,1.1,12.5,1.7,19.2,1.7c6.6,0,12.8-0.6,18.7-1.9
	c5.9-1.3,11.1-3.3,15.5-6.2c4.4-2.9,8-6.6,10.6-11.3c2.6-4.6,3.9-10.4,3.9-17.2c0-5-0.7-9.3-2.2-13C96,193.9,93.8,190.6,91.1,187.7z
	"/>
<path class="st13" d="M180.2,155.5c-11.3,0-20.3,5-26.9,15.1H153v-55h-27v129.5h27v-49.9c0-5.5,1.5-10.1,4.4-13.7
	c3-3.6,6.8-5.4,11.6-5.4c9.3,0,14,6.4,14,19.2v49.7h26.9v-53.7C209.9,167.4,200,155.5,180.2,155.5z"/>
<path class="st14" d="M253.7,143.7c-4.6,0-8.3-1.4-11.2-4.1c-2.9-2.7-4.4-6-4.4-10c0-4,1.5-7.3,4.4-9.9s6.6-3.8,11.2-3.8
	c4.6,0,8.4,1.3,11.2,3.8c2.9,2.6,4.3,5.9,4.3,9.9c0,4.1-1.4,7.5-4.3,10.1C262.1,142.4,258.3,143.7,253.7,143.7z M267.1,245.1h-27
	v-87.5h27V245.1z"/>
<path class="st14" d="M355.6,136.2c-3.5-1.4-6.8-2.1-10-2.1c-8.7,0-13,4.7-13,14.1v9.3h20v19.9h-20v67.6h-26.9v-67.6H291v-19.9h14.7
	v-10.9c0-10,3.2-18,9.7-24.1c6.5-6.1,15.3-9.1,26.5-9.1c5.5,0,10,0.6,13.7,1.7V136.2z"/>
<path class="st14" d="M430.4,244.1c-4,2.1-10,3.2-18,3.2c-19,0-28.5-9.9-28.5-29.7v-40.1h-14.2v-19.9h14.2v-18.9l26.9-7.7v26.6h19.7
	v19.9h-19.7v35.4c0,9.1,3.6,13.7,10.9,13.7c2.8,0,5.8-0.8,8.8-2.5V244.1z"/>
<path class="st13" d="M84,138.8c-12.1,12.2-18.2,28.1-18.2,47.7c0,18.4,5.4,33.1,16.1,44.2c10.8,11.1,25.5,16.6,44.3,16.6
	c14.4,0,26.1-2.2,35-6.5v-25.2c-8.9,5.2-18.8,7.9-29.6,7.9c-11.3,0-20.3-3.5-26.9-10.6c-6.7-7-10-16.5-10-28.3
	c0-12.4,3.5-22.2,10.6-29.4c7.1-7.2,16.3-10.9,27.9-10.9c10.5,0,19.8,2.5,28,7.3V125c-8.2-3-18.3-4.5-30.2-4.5
	C111.8,120.5,96.1,126.6,84,138.8z"/>
<rect x="224" y="157.6" class="st14" width="17.7" height="19.9"/>
<path class="st14" d="M241.8,244.1v-20c-3,1.7-6,2.5-8.8,2.5c-4.2,0-7.2-1.6-8.9-4.6v25.3C231.9,247.2,237.8,246.1,241.8,244.1z"/>
<path class="st13" d="M222.1,177.5h1.9v-19.9h-1.9V131l-26.9,7.7v18.9H181v19.9h14.2v40.1c0,19.8,9.5,29.7,28.5,29.7
	c0.1,0,0.2,0,0.3,0v-25.3c-1.3-2.2-1.9-5.2-1.9-9V177.5z"/>
<path class="st14" d="M322.8,181.9c-3.2-1.8-7-2.6-11.4-2.6c-5.9,0-10.5,2.2-13.8,6.5c-3.3,4.3-5,10.2-5,17.6v41.8h-27v-87.5h27
	v16.2h0.3c4.3-11.8,12-17.8,23.1-17.8c2.8,0,5.1,0.3,6.7,1V181.9z"/>
<path class="st14" d="M371.1,245.1h-27V115.5h27V245.1z"/>
<path class="st13" d="M213.6,245.1h-30.1l-8.7-27.3h-43.6l-8.6,27.3H92.7l44.6-122.5H170L213.6,245.1z M168.5,196.6l-13.2-41.2
	c-1-3.1-1.7-6.8-2.1-11h-0.7c-0.3,3.6-1,7.1-2.1,10.7l-13.3,41.5H168.5z"/>
<path class="st14" d="M262,245.1h-27V115.5h27V245.1z"/>
<path class="st14" d="M346.3,244.1c-4,2.1-10,3.2-18,3.2c-19,0-28.5-9.9-28.5-29.7v-40.1h-14.2v-19.9h14.2v-18.9l26.9-7.7v26.6h19.7
	v19.9h-19.7v35.4c0,9.1,3.6,13.7,10.9,13.7c2.8,0,5.8-0.8,8.8-2.5V244.1z"/>
<text transform="matrix(1 0 0 1 9.3198 245.0881)" class="st15 st16 st17 st18">Shift</text>
<text transform="matrix(1 0 0 1 9.3198 245.0884)" class="st15 st16 st17 st18">Shift</text>
<rect x="208.5" y="55.5" class="st13" width="15.5" height="134.8"/>
<rect x="224" y="55.5" class="st14" width="15.5" height="134.8"/>
<polygon class="st13" points="160.6,189.7 224,299.5 224,189.7 "/>
<polygon class="st14" points="224,189.7 224,299.5 287.4,189.7 "/>
<rect x="210.7" y="162.5" class="st1" width="12.3" height="31"/>
<rect x="223" y="162.5" class="st2" width="122.5" height="31"/>
<g>
	<polygon class="st1" points="211.3,114.6 101.5,178 211.3,241.4 	"/>
</g>
</svg>
