<?xml version="1.0" encoding="utf-8"?>
<!-- Generator: Adobe Illustrator 25.4.1, SVG Export Plug-In . SVG Version: 6.00 Build 0)  -->
<svg version="1.1" id="Layer_1" xmlns="http://www.w3.org/2000/svg" xmlns:xlink="http://www.w3.org/1999/xlink" x="0px" y="0px"
	 viewBox="206 -206 512 512" style="enable-background:new 206 -206 512 512;" xml:space="preserve">
<style type="text/css">
	.st0{fill:#0295AA;}
	.st1{fill:#4ACFD9;}
	.st2{fill:#9BAAAB;}
	.st3{fill:#CDD4D5;}
	.st4{fill:#365558;}
	.st5{fill:#F0353D;}
	.st6{fill:#FF8C29;}
</style>
<g>
	<path class="st0" d="M368-181.4c-2.8,2.8-4.5,6.7-4.5,10.9c0,8.5,7,15.5,15.5,15.5h83v28H312c-6.6,0-12,5.4-12,12v330
		c0,6.6,5.4,12,12,12h150v11c-18.2,0-33,14.8-33,33c0,18.2,14.8,33,33,33v2H348c-32.7,0-59.5-26.8-59.5-59.5v-393
		c0-32.7,26.8-59.5,59.5-59.5h114v20h-83C374.7-186,370.9-184.2,368-181.4z"/>
	<path class="st1" d="M635.5-146.5v393c0,32.7-26.8,59.5-59.5,59.5H462v-2c18.2,0,33-14.8,33-33s-14.8-33-33-33v-11h150
		c6.6,0,12-5.4,12-12v-330c0-6.6-5.4-12-12-12H462v-28h83c4.3,0,8.1-1.7,11-4.5s4.5-6.7,4.5-11c0-8.5-7-15.5-15.5-15.5h-83v-20h114
		C608.7-206,635.5-179.2,635.5-146.5z"/>
	<path class="st2" d="M462-186v31h-83c-8.5,0-15.5-7-15.5-15.5c0-4.3,1.7-8.1,4.5-10.9s6.7-4.6,11-4.6H462z"/>
	<path class="st3" d="M560.5-170.5c0,4.3-1.7,8.1-4.5,11c-2.8,2.9-6.7,4.5-11,4.5h-83v-31h83C553.5-186,560.5-179,560.5-170.5z"/>
	<path class="st2" d="M462-127v354H312c-6.6,0-12-5.4-12-12v-330c0-6.6,5.4-12,12-12C312-127,462-127,462-127z"/>
	<path class="st3" d="M624-115v330c0,6.6-5.4,12-12,12H462v-354h150C618.6-127,624-121.6,624-115z"/>
	<path class="st2" d="M462,238v66c-18.2,0-33-14.8-33-33C429,252.8,443.8,238,462,238z"/>
	<path class="st3" d="M495,271c0,18.2-14.8,33-33,33v-66C480.2,238,495,252.8,495,271z"/>
	<path class="st0" d="M612.9,40.1c0,83.2-67.7,150.9-150.9,150.9v-25c69.4,0,125.9-56.5,125.9-125.9S531.4-85.8,462-85.8v-25
		C545.2-110.8,612.9-43.1,612.9,40.1z"/>
	<path class="st4" d="M336.1,40.1c0,69.4,56.5,125.9,125.9,125.9v25c-83.2,0-150.9-67.7-150.9-150.9S378.8-110.8,462-110.8v25
		C392.6-85.8,336.1-29.3,336.1,40.1z"/>
	<path class="st5" d="M462,32.2v52.7l-14,16.5c-3.4,4-8.2,6-13,6c-2.5,0-5.1-0.6-7.4-1.7c-2.5-0.8-5-2.2-7-4.2l-45.5-45.2
		c-6.7-6.6-6.7-17.4-0.1-24c6.6-6.7,17.4-6.7,24-0.1l34.1,33.9L462,32.2z"/>
	<path class="st6" d="M531.4,2.7L462,84.9V32.2l43.4-51.4c6-7.2,16.8-8.1,24-2C536.5-15.2,537.4-4.4,531.4,2.7z"/>
</g>
</svg>
