<?xml version="1.0" encoding="utf-8"?>
<!-- Generator: Adobe Illustrator 25.4.1, SVG Export Plug-In . SVG Version: 6.00 Build 0)  -->
<svg version="1.1" id="Layer_1" xmlns="http://www.w3.org/2000/svg" xmlns:xlink="http://www.w3.org/1999/xlink" x="0px" y="0px"
	 viewBox="0 0 512 512" style="enable-background:new 0 0 512 512;" xml:space="preserve">
<style type="text/css">
	.st0{fill:#0295AA;}
	.st1{fill:#4ACFD9;}
	.st2{fill:#9BAAAB;}
	.st3{fill:#CDD4D5;}
	.st4{fill:#F0353D;}
	.st5{fill:#FFD1A9;}
	.st6{fill:#FF8C29;}
	.st7{fill:#FD6A33;}
</style>
<g>
	<path class="st0" d="M162,24.6c-2.8,2.8-4.5,6.7-4.5,10.9c0,8.5,7,15.5,15.5,15.5h83v28H106c-6.6,0-12,5.4-12,12v330
		c0,6.6,5.4,12,12,12h150v11c-18.2,0-33,14.8-33,33c0,18.2,14.8,33,33,33v2H142c-32.7,0-59.5-26.8-59.5-59.5v-393
		C82.5,26.8,109.3,0,142,0h114v20h-83C168.7,20,164.9,21.8,162,24.6z"/>
	<path class="st1" d="M429.5,59.5v393c0,32.7-26.8,59.5-59.5,59.5H256v-2c18.2,0,33-14.8,33-33s-14.8-33-33-33v-11h150
		c6.6,0,12-5.4,12-12V91c0-6.6-5.4-12-12-12H256V51h83c4.3,0,8.1-1.7,11-4.5s4.5-6.7,4.5-11c0-8.5-7-15.5-15.5-15.5h-83V0h114
		C402.7,0,429.5,26.8,429.5,59.5z"/>
	<path class="st2" d="M256,20v31h-83c-8.5,0-15.5-7-15.5-15.5c0-4.3,1.7-8.1,4.5-10.9c2.8-2.8,6.7-4.6,11-4.6H256z"/>
	<path class="st3" d="M354.5,35.5c0,4.3-1.7,8.1-4.5,11s-6.7,4.5-11,4.5h-83V20h83C347.5,20,354.5,27,354.5,35.5z"/>
	<path class="st2" d="M256,79v354H106c-6.6,0-12-5.4-12-12V91c0-6.6,5.4-12,12-12C106,79,256,79,256,79z"/>
	<path class="st3" d="M418,91v330c0,6.6-5.4,12-12,12H256V79h150C412.6,79,418,84.4,418,91z"/>
	<path class="st2" d="M256,444v66c-18.2,0-33-14.8-33-33C223,458.8,237.8,444,256,444z"/>
	<path class="st3" d="M289,477c0,18.2-14.8,33-33,33v-66C274.2,444,289,458.8,289,477z"/>
	<path class="st4" d="M144.5,106.9c-10.4-10.4-27.3-10.4-37.6,0c-10.4,10.4-10.4,27.3,0,37.6l260.6,260.6
		c10.4,10.4,27.2,10.4,37.6,0c10.4-10.4,10.4-27.3,0-37.6L144.5,106.9z"/>
	<path class="st5" d="M138.4,406.7c0,3.4,2.8,6.1,6.1,6.1h160.6c1.5,0,3.2-0.6,4.4-1.8l23.2-23.2L138.4,193.5V406.7L138.4,406.7z"/>
	<path class="st5" d="M373.6,105.3c-0.1-3.5-2.9-6.3-6.3-6.3H154l219.6,219.6V105.3z"/>
	<path class="st6" d="M138.4,406.7c0,3.4,2.8,6.1,6.1,6.1H256V311L138.4,193.4V406.7z"/>
	<polygon class="st6" points="256,99.1 154,99.1 256,201.1 	"/>
	<path class="st7" d="M305.1,413c1.5,0,3.2-0.6,4.4-1.8l23.4-23.4l-27.7-27.7V413H305.1z"/>
	<path class="st5" d="M312,168.4"/>
</g>
</svg>
