<svg id="Layer_1" data-name="Layer 1" xmlns="http://www.w3.org/2000/svg" viewBox="0 0 512 512"><defs><style>.cls-1{fill:#0295aa;}.cls-2{fill:#4acfd9;}.cls-3{fill:#9baaab;}.cls-4{fill:#cdd4d5;}.cls-5{fill:#365558;}.cls-6{fill:#687f82;}.cls-7{fill:#ff8c29;}.cls-8{fill:#fff;}.cls-9{fill:#f0353d;}.cls-10{fill:#ffd1a9;}.cls-11{fill:#fd6a33;}</style></defs><path class="cls-1" d="M48.06,217.37A9.29,9.29,0,0,0,45.34,224a9.42,9.42,0,0,0,9.37,9.37h50.17v16.92H14.21A7.29,7.29,0,0,0,7,257.51V457a7.29,7.29,0,0,0,7.26,7.26h90.67v6.64a19.95,19.95,0,1,0,0,39.9V512H36A36.09,36.09,0,0,1,0,476V238.47a36.09,36.09,0,0,1,36-36h68.91v12.09H54.71A9.53,9.53,0,0,0,48.06,217.37Z" transform="translate(0 0)"/><path class="cls-2" d="M209.76,238.47V476a36.09,36.09,0,0,1-36,36H104.88v-1.21a19.95,19.95,0,0,0,0-39.9v-6.64h90.67a7.29,7.29,0,0,0,7.26-7.26V257.51a7.29,7.29,0,0,0-7.26-7.26H104.88V233.33h50.17a9.48,9.48,0,0,0,6.65-2.72,9.13,9.13,0,0,0,2.72-6.65,9.42,9.42,0,0,0-9.37-9.37H104.88V202.5h68.91A36.09,36.09,0,0,1,209.76,238.47Z" transform="translate(0 0)"/><path class="cls-3" d="M104.88,214.59v18.74H54.71A9.42,9.42,0,0,1,45.34,224a9.19,9.19,0,0,1,2.72-6.59,9.42,9.42,0,0,1,6.65-2.78Z" transform="translate(0 0)"/><path class="cls-4" d="M164.42,224a9.48,9.48,0,0,1-2.72,6.65,9.13,9.13,0,0,1-6.65,2.72H104.88V214.59h50.17A9.42,9.42,0,0,1,164.42,224Z" transform="translate(0 0)"/><path class="cls-3" d="M104.88,250.25v214H14.21A7.29,7.29,0,0,1,7,457V257.51a7.29,7.29,0,0,1,7.26-7.26Z" transform="translate(0 0)"/><path class="cls-4" d="M202.81,257.51V457a7.29,7.29,0,0,1-7.26,7.26H104.88v-214h90.67A7.29,7.29,0,0,1,202.81,257.51Z" transform="translate(0 0)"/><path class="cls-3" d="M104.88,470.89v39.9a20,20,0,1,1,0-39.9Z" transform="translate(0 0)"/><path class="cls-4" d="M124.83,490.84a20,20,0,0,1-20,20v-39.9A20,20,0,0,1,124.83,490.84Z" transform="translate(0 0)"/><path class="cls-1" d="M106,349c-3.21-.06-10.28-.06-13.48,0A1.75,1.75,0,0,0,90.55,351c-.06,1.82-.06,3.63,0,5.44.06,1.39.73,2.06,2.24,2.06s6.89,0,8.4,0h4.6c1.63-.06,2.23-.67,2.23-2.24v-5.14A1.87,1.87,0,0,0,106,349Z" transform="translate(0 0)"/><path class="cls-2" d="M109,371.88c-1.57,0-3.14.06-4.72,0s-2.17-.67-2.17-2.06c-.06-1.75-.06-3.56,0-5.32a1.78,1.78,0,0,1,2-2c3.21-.06,10.28-.06,13.48,0a1.79,1.79,0,0,1,2,2c.06,1.76.06,3.57,0,5.32a1.89,1.89,0,0,1-2.18,2.06C115.82,371.94,110.5,371.88,109,371.88Z" transform="translate(0 0)"/><path class="cls-1" d="M106,375.87c-3.21-.06-10.28-.06-13.48,0a1.75,1.75,0,0,0-1.94,1.93c-.06,1.82-.06,3.63,0,5.44.06,1.39.73,2.06,2.24,2.06s6.89,0,8.4,0h4.6c1.63-.06,2.23-.67,2.23-2.24v-5.14A1.87,1.87,0,0,0,106,375.87Z" transform="translate(0 0)"/><path class="cls-2" d="M109,398.72c-1.57,0-3.14.06-4.72,0s-2.17-.67-2.17-2.06c-.06-1.75-.06-3.56,0-5.32a1.78,1.78,0,0,1,2-2c3.21-.06,10.28-.06,13.48,0a1.79,1.79,0,0,1,2,2c.06,1.76.06,3.57,0,5.32a1.89,1.89,0,0,1-2.18,2.06Z" transform="translate(0 0)"/><path class="cls-1" d="M106,402.71c-3.21-.06-10.28-.06-13.48,0a1.75,1.75,0,0,0-1.94,1.93c-.06,1.82-.06,3.63,0,5.44.06,1.39.73,2.06,2.24,2.06s6.89,0,8.4,0h4.6c1.63-.06,2.23-.67,2.23-2.24v-5.14A1.84,1.84,0,0,0,106,402.71Z" transform="translate(0 0)"/><path class="cls-2" d="M109.05,425.5c-1.57,0-3.14.06-4.71,0s-2.18-.67-2.18-2.06c-.06-1.75-.06-3.56,0-5.32a1.78,1.78,0,0,1,2-2c3.21-.06,10.28-.06,13.48,0a1.79,1.79,0,0,1,2,2c.06,1.76.06,3.57,0,5.32a1.89,1.89,0,0,1-2.18,2.06C115.94,425.56,110.56,425.5,109.05,425.5Z" transform="translate(0 0)"/><path class="cls-1" d="M106,429.49c-3.21-.06-10.28-.06-13.48,0a1.75,1.75,0,0,0-1.94,1.93c-.06,1.81-.06,3.63,0,5.44.06,1.39.73,2.06,2.24,2.06s6.89,0,8.4,0h4.6c1.63-.06,2.23-.67,2.23-2.24v-5.14A1.9,1.9,0,0,0,106,429.49Z" transform="translate(0 0)"/><path class="cls-2" d="M109.05,452.34c-1.57,0-3.14.06-4.71,0s-2.18-.67-2.18-2.06c-.06-1.75-.06-3.57,0-5.32a1.78,1.78,0,0,1,2-2c3.21-.06,10.28-.06,13.48,0a1.79,1.79,0,0,1,2,2c.06,1.75.06,3.57,0,5.32a1.89,1.89,0,0,1-2.18,2.06C115.94,452.4,110.56,452.34,109.05,452.34Z" transform="translate(0 0)"/><path class="cls-5" d="M92.79,361.54a8.51,8.51,0,0,1,3.81-.72h8V316.87c-.79.36-10.1.3-14.69,2.12s-7.62,6.95-9.37,12.21a12.2,12.2,0,0,0-.24,7.92c2.41,7.79,4.11,15.65,3.81,23.93A5.08,5.08,0,0,0,86,367h2.66C88.74,364.75,90.79,362.45,92.79,361.54Z" transform="translate(0 0)"/><path class="cls-6" d="M128.58,331.14c-1.82-5.26-4.84-10.4-9.37-12.21-4.11-1.64-12.15-1.76-14.21-2.06v43.89h8.46a8,8,0,0,1,4.66,1.14,5.66,5.66,0,0,1,2.36,4.48c0,.36,2.72.48,2.72.48a5.06,5.06,0,0,0,1.81-3.93c-.3-8.28,1.39-16.14,3.81-23.94A12.56,12.56,0,0,0,128.58,331.14Z" transform="translate(0 0)"/><path class="cls-7" d="M118.66,269.9c-.66-4.9-3.32-7.74-8.52-8.34a48.48,48.48,0,0,0-5.2-.3,50.56,50.56,0,0,0-5.26.3c-5.56.66-8.52,4.05-8.64,9.37-.06,3.5.18,7.07.3,10.58.48,10.76.91,21.52,1.39,32.28.18,3.38.42,8.4.48,8.94.12,2,1.82,2.18,3.39,2.18h16.74c2.6,0,3.15-.67,3.21-1.93s.12-1.88.18-3.75q1-23.31,2-46.49A9,9,0,0,0,118.66,269.9Zm-6.47,8a8.38,8.38,0,0,1-3,2.72,7.46,7.46,0,0,1-3.5.91h-.85a9.3,9.3,0,0,1-5-1.39c-4.23-2.66-4.53-7.8-.78-10.94a9,9,0,0,1,5.68-1.94h.06a9,9,0,0,1,5.74,2,6.8,6.8,0,0,1,1.57,1.75A5.9,5.9,0,0,1,112.19,277.88Z" transform="translate(0 0)"/><path class="cls-7" d="M105.67,281.51a8.47,8.47,0,0,0,3.5-.91,7.64,7.64,0,0,1-3.5.91Z" transform="translate(0 0)"/><path class="cls-7" d="M112.25,271.05a6.8,6.8,0,0,0-1.57-1.75,9,9,0,0,0-5.74-2h0a8.68,8.68,0,0,1,5.68,2A7.07,7.07,0,0,1,112.25,271.05Z" transform="translate(0 0)"/><path class="cls-8" d="M118.78,269.78c-.66-4.9-3.32-7.74-8.52-8.34a50.36,50.36,0,0,0-5.2-.3h-.12a49.41,49.41,0,0,0-5.2.3c-5.56.66-8.52,4.05-8.64,9.37-.06,3.5.18,7.07.3,10.58.48,10.76.91,21.52,1.39,32.28.12,3.38.42,8.4.48,8.94.12,1.94,1.82,2.18,3.39,2.18H113.4c2.54,0,3.15-.67,3.21-1.94s.12-1.87.18-3.74c.66-15.42,1.33-30.95,2-46.49A15.08,15.08,0,0,0,118.78,269.78Zm-6.59,8.1a8,8,0,0,1-6.46,3.63H105a9.3,9.3,0,0,1-5-1.39c-4.23-2.66-4.53-7.8-.78-10.94a8.85,8.85,0,0,1,5.68-1.94,9,9,0,0,1,5.74,2C113.4,271.59,114.07,275,112.19,277.88Z" transform="translate(0 0)"/><path class="cls-9" d="M104.94,316.93a2.72,2.72,0,0,1-.48-.12v28.65h.48Z" transform="translate(0 0)"/><path class="cls-9" d="M104.94,307.38v21.4h-.48v-21.4Z" transform="translate(0 0)"/><path class="cls-10" d="M118.72,269.78c-.66-4.9-3.32-7.74-8.52-8.34a50.36,50.36,0,0,0-5.2-.3v6.1a9.08,9.08,0,0,1,5.74,2,6.35,6.35,0,0,1,1.51,8.64,8.82,8.82,0,0,1-1.81,1.93,8.11,8.11,0,0,1-4.71,1.76H105v43.28h8.4c2.54,0,3.15-.67,3.21-1.94s.12-1.87.18-3.74q1-23.13,2-46.55A22.49,22.49,0,0,0,118.72,269.78Z" transform="translate(0 0)"/><path class="cls-10" d="M105.67,281.51a8,8,0,0,0,4.71-1.76,7.83,7.83,0,0,1-4.71,1.76,3,3,0,0,0-.73-.06v.06h.73Z" transform="translate(0 0)"/><path class="cls-7" d="M99.2,269.24a8.85,8.85,0,0,1,5.68-1.94h0v-6.1a38.66,38.66,0,0,0-5.26.3c-5.56.66-8.52,4.05-8.64,9.37-.06,3.5.18,7.07.3,10.58.48,10.76.91,21.52,1.39,32.28.12,3.38.42,8.4.48,8.94.12,1.94,1.82,2.18,3.39,2.24h8.34V281.57a9.3,9.3,0,0,1-5-1.39,6.71,6.71,0,0,1-3.38-5.68A7.07,7.07,0,0,1,99.2,269.24Z" transform="translate(0 0)"/><path class="cls-7" d="M99.2,269.3a8.74,8.74,0,0,1,5.68-1.94v-.06h0a8.7,8.7,0,0,0-5.68,2,6.53,6.53,0,0,0-2.66,5.26A7,7,0,0,1,99.2,269.3Z" transform="translate(0 0)"/><path class="cls-7" d="M111.35,345.46v-9.13h0v-21c0-1.88-.85-2.66-2.78-2.66h-3.63v32.76h6.41Z" transform="translate(0 0)"/><path class="cls-7" d="M108.08,359.85c2.54,0,3.33-.67,3.33-3.08V345.46H105v14.39Z" transform="translate(0 0)"/><path class="cls-11" d="M104.94,312.76h-3.2c-2.54,0-3.33.66-3.33,3.08v29.68h6.53Z" transform="translate(0 0)"/><path class="cls-11" d="M98.47,357.07c0,2,.85,2.78,2.9,2.78H105V345.46H98.47Z" transform="translate(0 0)"/><path class="cls-1" d="M350.3,217.37a9.36,9.36,0,0,0,6.65,16h50.17v16.92H316.45a7.29,7.29,0,0,0-7.26,7.26V457a7.29,7.29,0,0,0,7.26,7.26h90.67v6.64a19.95,19.95,0,1,0,0,39.9V512H338.21a36.09,36.09,0,0,1-36-36V238.47a36.09,36.09,0,0,1,36-36h68.91v12.09H357A9.53,9.53,0,0,0,350.3,217.37Z" transform="translate(0 0)"/><path class="cls-2" d="M512,238.47V476a36.09,36.09,0,0,1-36,36H407.12v-1.21a19.95,19.95,0,0,0,0-39.9v-6.64h90.67a7.29,7.29,0,0,0,7.26-7.26V257.51a7.29,7.29,0,0,0-7.26-7.26H407.12V233.33h50.17a9.48,9.48,0,0,0,6.65-2.72,9.09,9.09,0,0,0,2.72-6.65,9.42,9.42,0,0,0-9.37-9.37H407.12V202.5H476A36.09,36.09,0,0,1,512,238.47Z" transform="translate(0 0)"/><path class="cls-3" d="M407.12,214.59v18.74H357a9.42,9.42,0,0,1-9.37-9.37,9.23,9.23,0,0,1,2.72-6.59,9.42,9.42,0,0,1,6.65-2.78Z" transform="translate(0 0)"/><path class="cls-4" d="M466.66,224a9.43,9.43,0,0,1-2.72,6.65,9.13,9.13,0,0,1-6.65,2.72H407.12V214.59h50.17A9.42,9.42,0,0,1,466.66,224Z" transform="translate(0 0)"/><path class="cls-3" d="M407.12,250.25v214H316.45a7.29,7.29,0,0,1-7.26-7.26V257.51a7.29,7.29,0,0,1,7.26-7.26Z" transform="translate(0 0)"/><path class="cls-4" d="M505.05,257.51V457a7.29,7.29,0,0,1-7.26,7.26H407.12v-214h90.67A7.29,7.29,0,0,1,505.05,257.51Z" transform="translate(0 0)"/><path class="cls-3" d="M407.12,470.89v39.9a20,20,0,1,1,0-39.9Z" transform="translate(0 0)"/><path class="cls-4" d="M427.07,490.84a20,20,0,0,1-19.95,20v-39.9A20,20,0,0,1,427.07,490.84Z" transform="translate(0 0)"/><path class="cls-1" d="M408.21,349c-3.21-.06-10.28-.06-13.48,0a1.75,1.75,0,0,0-1.94,1.93c-.06,1.82-.06,3.63,0,5.44.06,1.39.73,2.06,2.24,2.06s6.89,0,8.4,0H408c1.63-.06,2.23-.67,2.23-2.24v-5.14A1.87,1.87,0,0,0,408.21,349Z" transform="translate(0 0)"/><path class="cls-2" d="M411.23,371.88c-1.57,0-3.14.06-4.71,0s-2.18-.67-2.18-2.06c-.06-1.75-.06-3.56,0-5.32a1.78,1.78,0,0,1,2-2c3.21-.06,10.28-.06,13.48,0a1.79,1.79,0,0,1,2,2c.06,1.76.06,3.57,0,5.32a1.89,1.89,0,0,1-2.18,2.06C418.06,371.94,412.74,371.88,411.23,371.88Z" transform="translate(0 0)"/><path class="cls-1" d="M408.21,375.87c-3.21-.06-10.28-.06-13.48,0a1.75,1.75,0,0,0-1.94,1.93c-.06,1.82-.06,3.63,0,5.44.06,1.39.73,2.06,2.24,2.06s6.89,0,8.4,0H408c1.63-.06,2.23-.67,2.23-2.24v-5.14A1.87,1.87,0,0,0,408.21,375.87Z" transform="translate(0 0)"/><path class="cls-2" d="M411.23,398.72c-1.57,0-3.14.06-4.71,0s-2.18-.67-2.18-2.06c-.06-1.75-.06-3.56,0-5.32a1.78,1.78,0,0,1,2-2c3.21-.06,10.28-.06,13.48,0a1.79,1.79,0,0,1,2,2c.06,1.76.06,3.57,0,5.32a1.89,1.89,0,0,1-2.18,2.06Z" transform="translate(0 0)"/><path class="cls-1" d="M408.27,402.71c-3.2-.06-10.28-.06-13.48,0a1.75,1.75,0,0,0-1.94,1.93c-.06,1.82-.06,3.63,0,5.44.07,1.39.73,2.06,2.24,2.06s6.89,0,8.4,0h4.6c1.63-.06,2.23-.67,2.23-2.24v-5.14A1.84,1.84,0,0,0,408.27,402.71Z" transform="translate(0 0)"/><path class="cls-2" d="M411.29,425.5c-1.57,0-3.14.06-4.71,0s-2.18-.67-2.18-2.06c-.06-1.75-.06-3.56,0-5.32a1.79,1.79,0,0,1,2-2c3.2-.06,10.27-.06,13.48,0a1.78,1.78,0,0,1,2,2c.06,1.76.06,3.57,0,5.32a1.89,1.89,0,0,1-2.18,2.06C418.18,425.56,412.8,425.5,411.29,425.5Z" transform="translate(0 0)"/><path class="cls-1" d="M408.27,429.49c-3.2-.06-10.28-.06-13.48,0a1.75,1.75,0,0,0-1.94,1.93c-.06,1.81-.06,3.63,0,5.44.07,1.39.73,2.06,2.24,2.06s6.89,0,8.4,0h4.6c1.63-.06,2.23-.67,2.23-2.24v-5.14A1.9,1.9,0,0,0,408.27,429.49Z" transform="translate(0 0)"/><path class="cls-2" d="M411.29,452.34c-1.57,0-3.14.06-4.71,0s-2.18-.67-2.18-2.06c-.06-1.75-.06-3.57,0-5.32a1.79,1.79,0,0,1,2-2c3.2-.06,10.27-.06,13.48,0a1.78,1.78,0,0,1,2,2c.06,1.75.06,3.57,0,5.32a1.89,1.89,0,0,1-2.18,2.06C418.18,452.4,412.8,452.34,411.29,452.34Z" transform="translate(0 0)"/><path class="cls-5" d="M395,361.54a8.51,8.51,0,0,1,3.81-.72h8V316.87c-.79.36-10.1.3-14.69,2.12s-7.62,6.95-9.37,12.21a12.2,12.2,0,0,0-.24,7.92c2.42,7.79,4.11,15.65,3.81,23.93A5.11,5.11,0,0,0,388.2,367h2.66C391,364.75,393,362.45,395,361.54Z" transform="translate(0 0)"/><path class="cls-6" d="M430.82,331.14c-1.82-5.26-4.84-10.4-9.37-12.21-4.11-1.64-12.15-1.76-14.21-2.06v43.89h8.46a8,8,0,0,1,4.66,1.14,5.6,5.6,0,0,1,2.36,4.48c0,.36,2.72.48,2.72.48a5,5,0,0,0,1.81-3.93c-.3-8.28,1.39-16.14,3.81-23.94A12.56,12.56,0,0,0,430.82,331.14Z" transform="translate(0 0)"/><path class="cls-7" d="M420.9,269.9c-.66-4.9-3.32-7.74-8.52-8.34a48.48,48.48,0,0,0-5.2-.3,50.56,50.56,0,0,0-5.26.3c-5.56.66-8.52,4.05-8.64,9.37-.06,3.5.18,7.07.3,10.58.48,10.76.91,21.52,1.39,32.28.18,3.38.42,8.4.48,8.94.12,2,1.82,2.18,3.39,2.18h16.74c2.6,0,3.15-.67,3.21-1.93s.12-1.88.18-3.75q1-23.31,2-46.49A9,9,0,0,0,420.9,269.9Zm-6.47,8a8.38,8.38,0,0,1-3,2.72,7.46,7.46,0,0,1-3.5.91h-.85a9.3,9.3,0,0,1-5-1.39c-4.23-2.66-4.53-7.8-.78-10.94a9,9,0,0,1,5.68-1.94h.06a9,9,0,0,1,5.74,2,6.8,6.8,0,0,1,1.57,1.75A5.87,5.87,0,0,1,414.43,277.88Z" transform="translate(0 0)"/><path class="cls-7" d="M407.91,281.51a8.47,8.47,0,0,0,3.5-.91,7.64,7.64,0,0,1-3.5.91Z" transform="translate(0 0)"/><path class="cls-7" d="M414.5,271.05a7,7,0,0,0-1.58-1.75,9,9,0,0,0-5.74-2h0a8.68,8.68,0,0,1,5.68,2A7.31,7.31,0,0,1,414.5,271.05Z" transform="translate(0 0)"/><path class="cls-8" d="M421,269.78c-.66-4.9-3.32-7.74-8.52-8.34a50.36,50.36,0,0,0-5.2-.3h-.12a49.41,49.41,0,0,0-5.2.3c-5.56.66-8.52,4.05-8.64,9.37-.06,3.5.18,7.07.3,10.58.48,10.76.91,21.52,1.39,32.28.12,3.38.42,8.4.48,8.94.13,1.94,1.82,2.18,3.39,2.18h16.74c2.54,0,3.15-.67,3.21-1.94s.12-1.87.18-3.74c.66-15.42,1.33-30.95,2.05-46.49A15.08,15.08,0,0,0,421,269.78Zm-6.59,8.1a8,8,0,0,1-6.46,3.63h-.73a9.32,9.32,0,0,1-5-1.39c-4.23-2.66-4.53-7.8-.78-10.94a9.26,9.26,0,0,1,11.42.06C415.64,271.59,416.31,275,414.43,277.88Z" transform="translate(0 0)"/><path class="cls-9" d="M407.18,316.93a2.72,2.72,0,0,1-.48-.12v28.65h.48Z" transform="translate(0 0)"/><path class="cls-9" d="M407.18,307.38v21.4h-.48v-21.4Z" transform="translate(0 0)"/><path class="cls-10" d="M421,269.78c-.66-4.9-3.32-7.74-8.52-8.34a50.36,50.36,0,0,0-5.2-.3v6.1a9.08,9.08,0,0,1,5.74,2,6.36,6.36,0,0,1,1.52,8.64,9.1,9.1,0,0,1-1.82,1.93,8.11,8.11,0,0,1-4.71,1.76h-.73v43.28h8.4c2.54,0,3.15-.67,3.21-1.94s.12-1.87.18-3.74q1-23.13,2.05-46.55A22.49,22.49,0,0,0,421,269.78Z" transform="translate(0 0)"/><path class="cls-10" d="M407.91,281.51a8,8,0,0,0,4.71-1.76,7.83,7.83,0,0,1-4.71,1.76,3,3,0,0,0-.73-.06v.06h.73Z" transform="translate(0 0)"/><path class="cls-7" d="M401.44,269.24a8.87,8.87,0,0,1,5.68-1.94h0v-6.1a38.66,38.66,0,0,0-5.26.3c-5.56.66-8.52,4.05-8.64,9.37-.06,3.5.18,7.07.3,10.58.48,10.76.91,21.52,1.39,32.28.12,3.38.42,8.4.48,8.94.12,1.94,1.82,2.18,3.39,2.24h8.34V281.57a9.3,9.3,0,0,1-5-1.39,6.71,6.71,0,0,1-3.38-5.68A7.11,7.11,0,0,1,401.44,269.24Z" transform="translate(0 0)"/><path class="cls-7" d="M401.44,269.3a8.76,8.76,0,0,1,5.68-1.94v-.06h0a8.72,8.72,0,0,0-5.68,2,6.53,6.53,0,0,0-2.66,5.26A7,7,0,0,1,401.44,269.3Z" transform="translate(0 0)"/><path class="cls-7" d="M413.59,345.46v-9.13h0v-21c0-1.88-.85-2.66-2.78-2.66h-3.63v32.76h6.41Z" transform="translate(0 0)"/><path class="cls-7" d="M410.32,359.85c2.54,0,3.33-.67,3.33-3.08V345.46h-6.41v14.39Z" transform="translate(0 0)"/><path class="cls-11" d="M407.18,312.76H404c-2.54,0-3.33.66-3.33,3.08v29.68h6.53Z" transform="translate(0 0)"/><path class="cls-11" d="M400.71,357.07c0,2,.85,2.78,2.9,2.78h3.63V345.46h-6.53Z" transform="translate(0 0)"/><path class="cls-1" d="M178.74,20.22a12.67,12.67,0,0,0-3.7,9,12.81,12.81,0,0,0,12.74,12.74H256v23H132.72a9.89,9.89,0,0,0-9.86,9.86V346a9.88,9.88,0,0,0,9.86,9.86H256v9.05a27.12,27.12,0,1,0,0,54.24v1.64H162.31a49.07,49.07,0,0,1-48.91-48.9V48.9A49.08,49.08,0,0,1,162.31,0H256V16.44H187.78A13,13,0,0,0,178.74,20.22Z" transform="translate(0 0)"/><path class="cls-2" d="M398.6,48.9v323a49.07,49.07,0,0,1-48.91,48.9H256v-1.64a27.12,27.12,0,0,0,0-54.24v-9.05H379.28a9.88,9.88,0,0,0,9.86-9.86V74.79a9.89,9.89,0,0,0-9.86-9.86H256v-23h68.22a12.9,12.9,0,0,0,9-3.7,12.41,12.41,0,0,0,3.7-9,12.81,12.81,0,0,0-12.74-12.74H256V0h93.69A49.08,49.08,0,0,1,398.6,48.9Z" transform="translate(0 0)"/><path class="cls-3" d="M256,16.44V41.92H187.78A12.81,12.81,0,0,1,175,29.18a12.53,12.53,0,0,1,3.7-9,12.81,12.81,0,0,1,9-3.78Z" transform="translate(0 0)"/><path class="cls-4" d="M337,29.18a12.9,12.9,0,0,1-3.7,9,12.41,12.41,0,0,1-9,3.7H256V16.44h68.22A12.81,12.81,0,0,1,337,29.18Z" transform="translate(0 0)"/><path class="cls-3" d="M256,64.93V355.87H132.72a9.88,9.88,0,0,1-9.86-9.86V74.79a9.89,9.89,0,0,1,9.86-9.86Z" transform="translate(0 0)"/><path class="cls-4" d="M389.14,74.79V346a9.88,9.88,0,0,1-9.86,9.86H256V64.93H379.28A9.89,9.89,0,0,1,389.14,74.79Z" transform="translate(0 0)"/><path class="cls-3" d="M256,364.92v54.24a27.12,27.12,0,1,1,0-54.24Z" transform="translate(0 0)"/><path class="cls-4" d="M283.12,392A27.14,27.14,0,0,1,256,419.16V364.92A27.14,27.14,0,0,1,283.12,392Z" transform="translate(0 0)"/><path class="cls-1" d="M257.48,199.22c-4.36-.08-14-.08-18.33,0a2.39,2.39,0,0,0-2.63,2.63q-.12,3.71,0,7.4c.08,1.89,1,2.8,3,2.8s9.37,0,11.43,0h6.24c2.22-.09,3-.91,3-3.05v-7C260.27,200.29,259.37,199.31,257.48,199.22Z" transform="translate(0 0)"/><path class="cls-2" d="M261.59,230.29c-2.14,0-4.28.08-6.41,0-2-.08-3-.9-3-2.79-.08-2.39-.08-4.85,0-7.24a2.43,2.43,0,0,1,2.71-2.71c4.36-.08,14-.08,18.33,0a2.43,2.43,0,0,1,2.71,2.71c.08,2.39.08,4.85,0,7.24-.08,1.89-1,2.79-3,2.79S263.64,230.29,261.59,230.29Z" transform="translate(0 0)"/><path class="cls-1" d="M257.48,235.72c-4.36-.09-14-.09-18.33,0a2.38,2.38,0,0,0-2.63,2.63c-.08,2.46-.08,4.93,0,7.39.08,1.89,1,2.8,3,2.8s9.37,0,11.43,0h6.24c2.22-.09,3-.91,3-3v-7C260.27,236.78,259.37,235.8,257.48,235.72Z" transform="translate(0 0)"/><path class="cls-2" d="M261.59,266.78c-2.14,0-4.28.08-6.41,0-2-.08-3-.9-3-2.79-.08-2.39-.08-4.85,0-7.23a2.43,2.43,0,0,1,2.71-2.72c4.36-.08,14-.08,18.33,0a2.43,2.43,0,0,1,2.71,2.72c.08,2.38.08,4.84,0,7.23-.08,1.89-1,2.79-3,2.79Z" transform="translate(0 0)"/><path class="cls-1" d="M257.56,272.21c-4.35-.09-14-.09-18.33,0a2.38,2.38,0,0,0-2.63,2.63c-.08,2.46-.08,4.93,0,7.39.09,1.89,1,2.8,3,2.8s9.37,0,11.43,0h6.24c2.22-.08,3.05-.91,3.05-3v-7A2.51,2.51,0,0,0,257.56,272.21Z" transform="translate(0 0)"/><path class="cls-2" d="M261.67,303.19c-2.14,0-4.27.08-6.41,0-2-.08-3-.9-3-2.79-.08-2.39-.08-4.85,0-7.24a2.43,2.43,0,0,1,2.71-2.71c4.36-.08,14-.08,18.33,0a2.43,2.43,0,0,1,2.71,2.71c.09,2.39.09,4.85,0,7.24-.08,1.89-1,2.79-2.95,2.79S263.73,303.19,261.67,303.19Z" transform="translate(0 0)"/><path class="cls-1" d="M257.56,308.62c-4.35-.09-14-.09-18.33,0a2.38,2.38,0,0,0-2.63,2.63c-.08,2.46-.08,4.93,0,7.39.09,1.89,1,2.8,3,2.8s9.37,0,11.43,0h6.24c2.22-.08,3.05-.91,3.05-3v-7A2.59,2.59,0,0,0,257.56,308.62Z" transform="translate(0 0)"/><path class="cls-2" d="M261.67,339.68c-2.14,0-4.27.09-6.41,0-2-.08-3-.9-3-2.79-.08-2.38-.08-4.85,0-7.23a2.44,2.44,0,0,1,2.71-2.72c4.36-.08,14-.08,18.33,0a2.43,2.43,0,0,1,2.71,2.72c.09,2.38.09,4.85,0,7.23-.08,1.89-1,2.79-2.95,2.79S263.73,339.68,261.67,339.68Z" transform="translate(0 0)"/><path class="cls-5" d="M239.56,216.24a11.43,11.43,0,0,1,5.18-1h10.93V155.5c-1.07.49-13.72.41-20,2.88S225.34,167.83,223,175a16.68,16.68,0,0,0-.33,10.77c3.29,10.6,5.59,21.28,5.18,32.54a6.92,6.92,0,0,0,2.47,5.34h3.61C234.06,220.59,236.85,217.47,239.56,216.24Z" transform="translate(0 0)"/><path class="cls-6" d="M288.22,174.9c-2.47-7.15-6.58-14.14-12.74-16.61-5.59-2.21-16.52-2.38-19.32-2.79v59.67h11.51a10.8,10.8,0,0,1,6.33,1.56,7.59,7.59,0,0,1,3.2,6.08c0,.5,3.7.66,3.7.66,1.65-1.64,2.55-3.21,2.47-5.34-.41-11.26,1.89-21.95,5.18-32.55A17,17,0,0,0,288.22,174.9Z" transform="translate(0 0)"/><path class="cls-7" d="M274.74,91.64c-.91-6.66-4.52-10.52-11.59-11.34a64.47,64.47,0,0,0-7.07-.41,67.46,67.46,0,0,0-7.15.41c-7.56.9-11.59,5.5-11.75,12.74-.08,4.76.25,9.61.41,14.38.66,14.63,1.23,29.26,1.89,43.89.25,4.6.58,11.42.66,12.16.16,2.71,2.46,3,4.6,3h22.77c3.53,0,4.27-.9,4.35-2.63s.17-2.55.25-5.09q1.35-31.69,2.71-63.21A11.86,11.86,0,0,0,274.74,91.64Zm-8.8,10.85a11.66,11.66,0,0,1-4.1,3.7,10.09,10.09,0,0,1-4.77,1.23h-1.15a12.55,12.55,0,0,1-6.74-1.89c-5.75-3.62-6.17-10.6-1.07-14.88A12.26,12.26,0,0,1,255.84,88h.08a12.22,12.22,0,0,1,7.81,2.72,9.7,9.7,0,0,1,2.13,2.38A8,8,0,0,1,265.94,102.49Z" transform="translate(0 0)"/><path class="cls-7" d="M257.07,107.42a11.45,11.45,0,0,0,4.77-1.23,10.36,10.36,0,0,1-4.77,1.23Z" transform="translate(0 0)"/><path class="cls-7" d="M266,93.2a10,10,0,0,0-2.14-2.38,12.19,12.19,0,0,0-7.81-2.71h0a11.82,11.82,0,0,1,7.73,2.71A10.35,10.35,0,0,1,266,93.2Z" transform="translate(0 0)"/><path class="cls-8" d="M274.9,91.48c-.9-6.66-4.52-10.52-11.59-11.35a69.62,69.62,0,0,0-7.06-.41h-.17a68.66,68.66,0,0,0-7.07.41c-7.56.91-11.58,5.51-11.75,12.74-.08,4.77.25,9.62.41,14.39.66,14.62,1.23,29.25,1.89,43.88.17,4.61.58,11.43.66,12.17.16,2.63,2.47,3,4.6,3h22.77c3.45,0,4.27-.91,4.35-2.63s.17-2.55.25-5.1c.91-21,1.81-42.08,2.8-63.2A20.07,20.07,0,0,0,274.9,91.48Zm-9,11a10.8,10.8,0,0,1-8.79,4.93h-1a12.58,12.58,0,0,1-6.74-1.89c-5.75-3.62-6.16-10.6-1.06-14.88a12.61,12.61,0,0,1,15.53.09C267.59,93.94,268.49,98.63,265.94,102.49Z" transform="translate(0 0)"/><path class="cls-9" d="M256.08,155.58a4,4,0,0,1-.66-.16v39h.66Z" transform="translate(0 0)"/><path class="cls-9" d="M256.08,142.6v29.09h-.66V142.6Z" transform="translate(0 0)"/><path class="cls-10" d="M274.82,91.48c-.9-6.66-4.52-10.52-11.59-11.35a69.65,69.65,0,0,0-7.07-.41V88A12.35,12.35,0,0,1,264,90.74c3.78,3.12,4.6,7.89,2.06,11.75a12.46,12.46,0,0,1-2.47,2.63,11,11,0,0,1-6.41,2.38h-1v58.85h11.43c3.45,0,4.27-.91,4.35-2.63s.17-2.55.25-5.1q1.37-31.43,2.8-63.28A29.26,29.26,0,0,0,274.82,91.48Z" transform="translate(0 0)"/><path class="cls-10" d="M257.07,107.42a10.84,10.84,0,0,0,6.41-2.38,10.65,10.65,0,0,1-6.41,2.38,4.14,4.14,0,0,0-1-.08v.08h1Z" transform="translate(0 0)"/><path class="cls-7" d="M248.27,90.74A12.07,12.07,0,0,1,256,88.11h0V79.8a52,52,0,0,0-7.15.42c-7.56.9-11.59,5.5-11.75,12.73-.09,4.77.24,9.62.41,14.39.66,14.63,1.23,29.26,1.89,43.89.16,4.6.57,11.42.66,12.16.16,2.63,2.46,3,4.6,3H256V107.5a12.55,12.55,0,0,1-6.74-1.89,9.1,9.1,0,0,1-4.6-7.72A9.65,9.65,0,0,1,248.27,90.74Z" transform="translate(0 0)"/><path class="cls-7" d="M248.27,90.82A11.92,11.92,0,0,1,256,88.19v-.08h0a11.86,11.86,0,0,0-7.73,2.71A8.92,8.92,0,0,0,244.66,98,9.52,9.52,0,0,1,248.27,90.82Z" transform="translate(0 0)"/><path class="cls-7" d="M264.79,194.37V182h0V153.45c0-2.55-1.15-3.62-3.78-3.62h-4.93v44.54h8.71Z" transform="translate(0 0)"/><path class="cls-7" d="M260.36,213.94c3.45,0,4.52-.91,4.52-4.2V194.37h-8.72v19.57Z" transform="translate(0 0)"/><path class="cls-11" d="M256.08,149.91h-4.35c-3.46,0-4.52.91-4.52,4.19v40.36h8.87Z" transform="translate(0 0)"/><path class="cls-11" d="M247.29,210.15c0,2.72,1.15,3.79,3.94,3.79h4.93V194.37h-8.87Z" transform="translate(0 0)"/></svg>