<?xml version="1.0" encoding="utf-8"?>
<!-- Generator: Adobe Illustrator 25.4.1, SVG Export Plug-In . SVG Version: 6.00 Build 0)  -->
<svg version="1.1" id="Layer_1" xmlns="http://www.w3.org/2000/svg" xmlns:xlink="http://www.w3.org/1999/xlink" x="0px" y="0px"
	 viewBox="0 0 512 512" style="enable-background:new 0 0 512 512;" xml:space="preserve">
<style type="text/css">
	.st0{fill:#0295AA;}
	.st1{fill:#4ACFD9;}
	.st2{fill:#9BAAAB;}
	.st3{fill:#CDD4D5;}
	.st4{fill:#FFD1A9;}
	.st5{fill:#365558;}
	.st6{fill:#FF8C29;}
	.st7{fill:#FD6A33;}
	.st8{fill:#E6EAEA;}
</style>
<g>
	<path class="st0" d="M162,24.6c-2.8,2.8-4.5,6.7-4.5,10.9c0,8.5,7,15.5,15.5,15.5h83v28H106c-6.6,0-12,5.4-12,12v330
		c0,6.6,5.4,12,12,12h150v11c-18.2,0-33,14.8-33,33c0,18.2,14.8,33,33,33v2H142c-32.7,0-59.5-26.8-59.5-59.5v-393
		C82.5,26.8,109.3,0,142,0h114v20h-83C168.7,20,164.9,21.8,162,24.6z"/>
	<path class="st1" d="M429.5,59.5v393c0,32.7-26.8,59.5-59.5,59.5H256v-2c18.2,0,33-14.8,33-33s-14.8-33-33-33v-11h150
		c6.6,0,12-5.4,12-12V91c0-6.6-5.4-12-12-12H256V51h83c4.3,0,8.1-1.7,11-4.5s4.5-6.7,4.5-11c0-8.5-7-15.5-15.5-15.5h-83V0h114
		C402.7,0,429.5,26.8,429.5,59.5z"/>
	<path class="st2" d="M256,20v31h-83c-8.5,0-15.5-7-15.5-15.5c0-4.3,1.7-8.1,4.5-10.9c2.8-2.8,6.7-4.6,11-4.6H256z"/>
	<path class="st3" d="M354.5,35.5c0,4.3-1.7,8.1-4.5,11s-6.7,4.5-11,4.5h-83V20h83C347.5,20,354.5,27,354.5,35.5z"/>
	<path class="st2" d="M256,79v354H106c-6.6,0-12-5.4-12-12V91c0-6.6,5.4-12,12-12C106,79,256,79,256,79z"/>
	<path class="st3" d="M418,91v330c0,6.6-5.4,12-12,12H256V79h150C412.6,79,418,84.4,418,91z"/>
	<path class="st2" d="M256,444v66c-18.2,0-33-14.8-33-33C223,458.8,237.8,444,256,444z"/>
	<path class="st3" d="M289,477c0,18.2-14.8,33-33,33v-66C274.2,444,289,458.8,289,477z"/>
	<path class="st4" d="M169.5,214.8"/>
	<path class="st0" d="M341.3,240.1h-85.2v66.7h85.2c6.4,0,11.7-5.3,11.7-11.7v-43.3C353,245.4,347.8,240.1,341.3,240.1z"/>
	<path class="st5" d="M163.6,240.1c-6.4,0-11.7,5.3-11.7,11.7v43.3c0,6.4,5.3,11.7,11.7,11.7H256v-66.7H163.6z"/>
	<g>
		<path class="st4" d="M331.3,192.5H180.8c-2.3,0-4.2,1.9-4.2,4.2v203.6c0,2.3,1.9,4.2,4.2,4.2h108.5c1.1,0,2.2-0.4,2.9-1.2
			l42.1-42.1c0.8-0.8,1.2-1.8,1.2-2.9V196.7C335.4,194.4,333.6,192.5,331.3,192.5z"/>
		<path class="st6" d="M180.8,192.5c-2.3,0-4.2,1.9-4.2,4.2v203.6c0,2.3,1.9,4.2,4.2,4.2h75.3v-212H180.8z"/>
		<path class="st7" d="M289.2,362.4v42.1l0,0c1.1,0,2.2-0.4,2.9-1.2l42.1-42.1c0.8-0.8,1.2-1.8,1.2-2.9l0,0h-42.1
			C291.1,358.2,289.2,360.1,289.2,362.4z"/>
	</g>
	<path class="st4" d="M310.1,127.3"/>
	<path class="st2" d="M385.3,134.2H256.1v100h91.6c6.4,0,11.7,5.3,11.7,11.7V281h25.9c9.4,0,17-7.6,17-17V151.2
		C402.2,141.8,394.6,134.2,385.3,134.2z"/>
	<path class="st5" d="M119.7,134.2c-9.4,0-17,7.6-17,17v112.9c0,9.4,7.6,17,17,17h25.9V246c0-6.4,5.3-11.7,11.7-11.7h98.8v-100
		L119.7,134.2L119.7,134.2z"/>
	<path class="st1" d="M385.3,145.9H256.1v76.6h91.6c12.9,0,23.4,10.5,23.4,23.4v23.5h14.2c2.9,0,5.3-2.4,5.3-5.3V151.2
		C390.5,148.3,388.1,145.9,385.3,145.9z"/>
	<path class="st0" d="M119.7,145.9c-2.9,0-5.3,2.4-5.3,5.3v112.9c0,2.9,2.4,5.3,5.3,5.3h14.2V246c0-12.9,10.5-23.4,23.4-23.4h98.8
		V146H119.7V145.9z"/>
	<path class="st0" d="M341,105h-84.9v22.3h85c3.9,0,7-3.2,7-7V112C348.1,108.1,344.9,105,341,105z"/>
	<path class="st5" d="M163.9,105c-3.9,0-7,3.2-7,7v8.3c0,3.9,3.2,7,7,7h92.2V105H163.9z"/>
	<g>
		<path class="st8" d="M250.1,195.4v-25.1c0-3.4,2.7-6.1,6-6s6.1,2.7,6,6v25.1c0,3.4-2.7,6.1-6,6C252.7,201.4,250,198.8,250.1,195.4
			z"/>
		<path class="st8" d="M213.6,186.4c0-1.6,0.6-3.1,1.8-4.3c2.3-2.3,6.1-2.3,8.5,0l15.9,15.9c2.3,2.3,2.3,6.1,0,8.5s-6.1,2.3-8.5,0
			l-15.9-15.9C214.2,189.5,213.6,188,213.6,186.4z"/>
		<path class="st8" d="M270.5,202.2c0-1.6,0.6-3.1,1.8-4.3l15.9-15.9c2.3-2.3,6.1-2.3,8.5,0s2.3,6.1,0,8.5l-16,15.9
			c-2.3,2.3-6.1,2.3-8.5,0C271.1,205.2,270.6,203.7,270.5,202.2z"/>
	</g>
</g>
</svg>
