<?xml version="1.0" encoding="utf-8"?>
<!-- Generator: Adobe Illustrator 25.4.1, SVG Export Plug-In . SVG Version: 6.00 Build 0)  -->
<svg version="1.1" id="Layer_1" xmlns="http://www.w3.org/2000/svg" xmlns:xlink="http://www.w3.org/1999/xlink" x="0px" y="0px"
	 viewBox="0 0 512 512" style="enable-background:new 0 0 512 512;" xml:space="preserve">
<style type="text/css">
	.st0{fill:#0295AA;}
	.st1{fill:#4ACFD9;}
	.st2{fill:#9BAAAB;}
	.st3{fill:#CDD4D5;}
	.st4{fill:#F0353D;}
	.st5{fill:#365558;}
	.st6{fill:none;}
	.st7{fill:#FFFFFF;}
</style>
<g>
	<path class="st0" d="M46,140.3c3.2-6.1,6.9-12,10.8-17.5v182.8C52.9,300,49.2,294,46,288V140.3z"/>
	<path class="st0" d="M209.6,58v26.4H95.3C114.2,71.2,136.2,62,160,58H209.6z"/>
	<path class="st0" d="M209.6,10v18.9h-78.2c-4.1,0-7.6,1.6-10.4,4.3c-2.6,2.6-4.2,6.3-4.2,10.3c0,0.3,0,0.6,0,0.8
		c0,0.2,0,0.5,0.1,0.7c0,0.2,0.1,0.5,0.1,0.8c0.2,0.9,0.4,1.8,0.7,2.6c0.1,0.1,0.1,0.3,0.2,0.4c0,0.1,0.1,0.3,0.2,0.4
		c0.1,0.3,0.2,0.5,0.4,0.8c0.1,0.2,0.2,0.4,0.3,0.6c0.1,0.2,0.2,0.3,0.3,0.5c0.1,0.3,0.3,0.5,0.5,0.8c0,0.1,0.1,0.2,0.2,0.2
		c0.2,0.3,0.4,0.6,0.6,0.8c0.2,0.2,0.4,0.4,0.5,0.7c0.4,0.4,0.8,0.8,1.1,1.1c0.2,0.2,0.4,0.4,0.7,0.5C104.5,62,88.1,72.1,73.9,84.4
		h-5.8c-6.2,0-11.3,5.1-11.3,11.3v5.5c-3.9,4.4-7.4,9-10.8,13.8V66.1C46,35.2,71.3,10,102.1,10L209.6,10L209.6,10z"/>
	<path class="st0" d="M68.1,418.2h141.4v10.4c-17.2,0-31.1,14-31.1,31.1c0,17.2,14,31.1,31.1,31.1v1.9H102.1
		c-30.8,0-56.1-25.3-56.1-56.1V312.7c3.4,4.8,7,9.3,10.8,13.8v80.4C56.8,413.1,61.9,418.2,68.1,418.2z"/>
	<path class="st1" d="M211.6,58c23.8,4,45.7,13.1,64.7,26.4h-66.7V58H211.6z"/>
	<path class="st1" d="M373.1,66.1v258.3c-3.1-2.7-6.9-4.5-10.8-5.4V95.8c0-6.2-5.1-11.3-11.3-11.3h-53.1c-12.3-10.7-26-19.5-41-26.4
		h30.9c4.1,0,7.6-1.6,10.4-4.2c2.7-2.6,4.2-6.3,4.2-10.4c0-8-6.6-14.6-14.6-14.6h-78.2V10H317C347.9,10,373.1,35.2,373.1,66.1z"/>
	<path class="st1" d="M314.7,418.2l49.2,49.2c-10.1,15.2-27.3,25.3-46.8,25.3H209.6v-1.9c17.2,0,31.1-14,31.1-31.1
		s-14-31.1-31.1-31.1v-10.4L314.7,418.2L314.7,418.2z"/>
	<path class="st1" d="M373.1,343.1v93.4c0,6.3-1,12.4-3,18.2c0,0.1-0.1,0.2-0.1,0.3l-36.9-36.9H351c6.2,0,11.3-5.1,11.3-11.3V333
		c1,0.5,2,1.2,2.8,2.1L373.1,343.1z"/>
	<path class="st2" d="M209.6,28.8v15.5c-7.7-1.1-15.7-1.7-23.8-1.7c-22.4,0-43.9,4.3-63.6,12.3c-0.2-0.2-0.4-0.4-0.7-0.5
		c-0.4-0.4-0.8-0.8-1.1-1.1c-0.2-0.2-0.4-0.4-0.5-0.7c-0.2-0.3-0.4-0.6-0.6-0.8c-0.1-0.1-0.1-0.2-0.2-0.2c-0.2-0.2-0.3-0.5-0.5-0.8
		c-0.1-0.2-0.2-0.3-0.3-0.5c-0.1-0.2-0.2-0.4-0.3-0.6c-0.1-0.3-0.2-0.5-0.4-0.8c0-0.1-0.1-0.3-0.2-0.4c-0.1-0.1-0.1-0.3-0.2-0.4
		c-0.3-0.8-0.6-1.8-0.7-2.6c0-0.2-0.1-0.5-0.1-0.8c0-0.2-0.1-0.5-0.1-0.7c0-0.3,0-0.6,0-0.8c0-4.1,1.6-7.6,4.2-10.3
		c2.6-2.6,6.3-4.3,10.4-4.3C131.1,28.8,209.6,28.8,209.6,28.8z"/>
	<path class="st2" d="M185.8,56c8.1,0,16,0.6,23.8,1.8V58H160C168.4,56.7,177,56,185.8,56z"/>
	<path class="st3" d="M209.6,57.8c0.7,0.1,1.4,0.2,2.1,0.3h-2.1V57.8z"/>
	<path class="st3" d="M302.4,43.4c0,4.1-1.6,7.6-4.2,10.4c-2.6,2.7-6.3,4.2-10.4,4.2h-30.9c-14.8-6.8-30.6-11.5-47.3-13.8V28.8h78.2
		C295.8,28.8,302.4,35.4,302.4,43.4z"/>
	<path class="st2" d="M209.6,105.9v214.4c-7.8,1.8-15.9,2.7-24.2,2.7c-60.6,0-109.9-49.3-109.9-109.9c0-59.7,47.8-108.4,107.1-109.8
		c0.9,0,1.9,0,2.8,0C193.6,103.3,201.7,104.2,209.6,105.9z"/>
	<path class="st2" d="M56.8,101.3v-5.5c0-6.2,5.1-11.3,11.3-11.3h5.6C67.7,89.7,62,95.3,56.8,101.3z"/>
	<path class="st2" d="M209.6,84.4v8c-7.9-1.6-16-2.5-24.4-2.5c-32,0-61,12.2-83,32.1c-0.8,0.7-1.4,1.3-2.1,2c-1.4,1.3-2.7,2.6-4,4
		c-0.7,0.7-1.3,1.4-2,2.1c-19.9,21.9-32.1,51-32.1,83c0,68.1,55.2,123.3,123.3,123.3c8.3,0,16.4-0.8,24.2-2.4v36.1
		c-7.8,1.2-15.8,1.8-23.9,1.8c-53.2,0-100.1-26.3-128.8-66.5V122.6c3.9-5.5,8.1-10.7,12.7-15.6c0.7-0.8,1.3-1.4,2-2.1
		c1.7-1.8,3.4-3.5,5.2-5.2c0.8-0.7,1.5-1.4,2.2-2.1c0.7-0.6,1.3-1.2,2-1.8c4.6-4.1,9.4-7.9,14.4-11.4L209.6,84.4L209.6,84.4z"/>
	<path class="st2" d="M185.8,385.2c8,0,15.9-0.6,23.8-1.7v34.7H68.1c-6.2,0-11.3-5.1-11.3-11.3v-80.4
		C88.2,362.5,134.4,385.2,185.8,385.2z"/>
	<path class="st3" d="M362.3,95.8V319c-1.7-0.4-3.4-0.6-5.2-0.6c-6.6,0-12.8,2.5-17.4,7.3l-1.2,1.2l-13.3-13.5
		c20.6-28.9,32-63.8,32-99.6c0-51.7-22.9-98-59.2-129.4H351C357.2,84.4,362.3,89.5,362.3,95.8z"/>
	<path class="st3" d="M295.2,213.2c0,52.3-36.7,96.2-85.7,107.2V105.9c25.3,5.8,47.3,20.2,62.7,40
		C286.7,164.6,295.2,187.9,295.2,213.2z"/>
	<path class="st3" d="M314.7,418.2H209.6v-34.7c27.7-3.9,54.1-14.5,76.8-31l13.1,13.3l-1.1,1.1c-4.6,4.6-7.2,10.8-7.2,17.4
		c0,6.6,2.5,12.8,7.2,17.4L314.7,418.2z"/>
	<path class="st3" d="M362.3,333v73.8c0,6.2-5.1,11.3-11.3,11.3h-17.8l-25.5-25.5c-4.3-4.3-4.4-11.3-0.2-15.7
		c0.1-0.1,0.2-0.2,0.3-0.3l0.1-0.1l10.4-10.4l-30.7-31.3c-21.7,18.3-48.5,30.9-77.8,35.4v-36.1c20.6-4.1,39.2-13.3,54.7-26.2
		c0.5-0.4,1-0.8,1.5-1.2c0.5-0.5,1-0.8,1.5-1.3c0.5-0.5,1-0.9,1.5-1.4c0.6-0.5,1-0.9,1.6-1.5c1.4-1.3,2.7-2.6,4-4
		c21.1-22.2,34-52,34-85c0-59.7-42.4-109.5-98.8-120.9v-8h66.7c40.7,28.6,67.4,75.9,67.4,129.4c0,38.3-13.6,73.3-36.2,100.7
		l30.8,31.4l10.7-10.6l0.2-0.2C352.7,331.5,358,330.9,362.3,333z"/>
	<path class="st2" d="M209.6,428.5v62.2c-17.2,0-31.1-14-31.1-31.1C178.4,442.5,192.4,428.5,209.6,428.5z"/>
	<path class="st3" d="M240.7,459.7c0,17.2-14,31.1-31.1,31.1v-62.2C226.7,428.5,240.7,442.5,240.7,459.7z"/>
	<path class="st4" d="M124.5,372.7l-83.9,29.7c-3.3,1.1-6.6-1.7-5.9-5.1l14.9-80.6C69.1,342.3,95.2,361.5,124.5,372.7z"/>
	<path class="st4" d="M237.2,254.2l32.6,27.9c-1.7,2-3.4,4-5.2,5.8c-1,1.1-2.2,2.3-3.5,3.5c-0.5,0.5-0.9,0.9-1.4,1.4
		c-0.5,0.4-0.8,0.8-1.3,1.2c-0.5,0.4-0.9,0.8-1.4,1.2c-0.4,0.4-0.8,0.8-1.3,1.1c-14,11.8-30.9,19.9-48.7,23.5
		c-7.1,1.4-14.4,2.2-21.8,2.2c-60.6,0-109.9-49.3-109.9-109.9c0-26.9,9.7-52.6,27.5-72.7l46.6,39.8c1.9,1.7,4.8,1.3,6.4-0.7l0,0
		l31.2-36.6l7.8-9.1l20.8-24.4l1.2-1.5c22.2,6.7,41.4,20.3,55.2,38c8.9,11.5,15.6,24.8,19.3,39l-54.4,63.7l0,0
		C235.2,249.7,235.3,252.5,237.2,254.2z"/>
	<path class="st4" d="M294.9,312.4l-7,2.5l0.5-0.5c0.6-0.6,1-1.1,1.6-1.6l0.5-0.6c0.6-0.6,1-1.1,1.6-1.7l0.2-0.2l0.3-0.4l0.2-0.1
		l0.8-0.9l0,0l1.1-1.3c0.1-0.1,0.4-0.5,0.4-0.5c0.6-0.7,1-1.2,1.6-1.9C298.8,307.5,298,311.3,294.9,312.4z"/>
	<path class="st4" d="M386,73.1l-49.8,58.3c-12.5-23.2-30.5-43.6-52.8-59.1c-7.8-5.5-16.1-10.3-24.8-14.3l46.2-54
		c4.1-4.7,11.2-5.3,15.9-1.2l63.9,54.6C389.4,61.2,390,68.3,386,73.1z"/>
	<g>
		<path class="st5" d="M275.8,84.4c-19.1-13.4-41.5-22.6-65.5-26.4c-0.3,0-0.5-0.1-0.8-0.1c-7.8-1.2-15.8-1.8-23.9-1.8
			c-8.4,0-16.7,0.7-24.7,1.9c-24.1,3.8-46.4,13-65.5,26.4c-5.1,3.5-9.9,7.4-14.5,11.4c-0.7,0.6-1.3,1.1-2,1.8
			c-0.8,0.7-1.5,1.4-2.2,2.1c-1.8,1.7-3.5,3.4-5.2,5.2c-0.7,0.7-1.3,1.4-2,2.1c-4.5,4.9-8.8,10.2-12.7,15.6
			c-4,5.6-7.6,11.5-10.8,17.5c-11.7,22.1-18.3,47.1-18.3,73.8s6.6,51.9,18.3,73.8c3.2,6.1,6.9,12,10.8,17.5
			c28.7,40.3,75.6,66.5,128.8,66.5c8.1,0,16.1-0.7,23.9-1.8c29.4-4.4,56.1-17.1,77.8-35.4c0.1-0.1,0.1-0.1,0.2-0.2
			c0.2-0.2,0.4-0.3,0.6-0.5c0.1-0.1,0.3-0.2,0.4-0.4c0.2-0.2,0.4-0.3,0.6-0.5c0.1-0.1,0.3-0.2,0.4-0.3c0.1-0.1,0.2-0.2,0.3-0.3
			c0.2-0.1,0.3-0.2,0.4-0.4c0.4-0.4,0.8-0.8,1.2-1.1c0,0,0,0,0.1-0.1c0.4-0.4,0.8-0.7,1.1-1c0.1-0.1,0.1-0.1,0.2-0.2
			c0.1,0,0.1-0.1,0.2-0.2c0.1-0.1,0.1-0.1,0.2-0.2c0.1,0,0.1-0.1,0.1-0.1l0,0l0.1-0.1c0.1-0.1,0.2-0.2,0.3-0.3
			c0.1-0.1,0.1-0.1,0.2-0.2c0.5-0.5,0.9-0.9,1.4-1.4c0.1-0.1,0.1-0.1,0.2-0.2c0.8-0.8,1.4-1.4,2.2-2.2l0.2-0.2
			c0.6-0.6,1.2-1.2,1.8-1.8c0.2-0.2,0.4-0.4,0.5-0.6c0.5-0.5,0.8-0.9,1.3-1.3c0.2-0.2,0.3-0.3,0.4-0.5c0,0,0.1-0.1,0.1-0.2
			c0.1-0.1,0.3-0.3,0.4-0.4c0.1-0.1,0.2-0.2,0.2-0.3c0.1-0.1,0.1-0.1,0.2-0.2l0,0l0.1-0.2c0.1-0.1,0.2-0.2,0.3-0.3
			c0.2-0.2,0.4-0.4,0.6-0.7c0.1-0.1,0.2-0.2,0.3-0.3l0.1-0.1c0.1-0.1,0.2-0.2,0.2-0.3l0.1-0.1c0.3-0.3,0.6-0.6,0.8-0.8
			c0.7-0.8,1.3-1.6,2-2.4c22.6-27.3,36.2-62.4,36.2-100.7C343.5,160.4,316.7,113,275.8,84.4z M94.2,130.3c0.7-0.8,1.3-1.4,2-2.1
			c1.3-1.4,2.6-2.7,4-4c0.7-0.7,1.4-1.3,2.1-2c21.9-19.9,51-32.1,83-32.1c8.4,0,16.5,0.8,24.4,2.5c56.4,11.3,98.8,61.1,98.8,120.9
			c0,33-12.9,62.9-34,85c-1.3,1.3-2.6,2.7-4,4c-0.5,0.5-1,0.9-1.6,1.5c-0.5,0.5-1,0.9-1.5,1.4c-0.5,0.5-1,0.8-1.5,1.3
			c-0.5,0.5-0.9,0.8-1.5,1.2c-15.5,13-34.1,22.2-54.7,26.3c-7.9,1.6-16,2.5-24.4,2.5c-68.1,0-123.3-55.2-123.3-123.3
			C61.8,181.4,74.1,152.1,94.2,130.3z"/>
		<g>
			<line class="st6" x1="340.3" y1="368.5" x2="297.8" y2="325.2"/>
			<path class="st2" d="M350.4,358.6l-9.9,9.7l-0.2,0.2l-9.9,9.7l-0.2,0.2L318.1,366l0,0l-30.7-31.3c0.1-0.1,0.1-0.1,0.2-0.2
				c0.2-0.2,0.4-0.3,0.6-0.5c0.1-0.1,0.3-0.2,0.4-0.4c0.1-0.1,0.2-0.2,0.3-0.3c0.1-0.1,0.2-0.2,0.3-0.2c0.1-0.1,0.3-0.2,0.4-0.3
				c0.1-0.1,0.2-0.2,0.3-0.3c0.2-0.1,0.3-0.2,0.4-0.4c0.4-0.4,0.8-0.8,1.2-1.1c0,0,0,0,0.1-0.1c0.4-0.4,0.8-0.7,1.1-1
				c0.1-0.1,0.2-0.2,0.4-0.3c0.1-0.1,0.1-0.1,0.2-0.2c0.1,0,0.1-0.1,0.1-0.1l0,0l0.1-0.1c0.1-0.1,0.2-0.2,0.3-0.3
				c0.1-0.1,0.1-0.1,0.2-0.2c0.5-0.5,0.9-0.9,1.4-1.4c0.1-0.1,0.1-0.1,0.2-0.2c0.8-0.8,1.4-1.4,2.2-2.2l0.2-0.2
				c0.6-0.6,1.2-1.2,1.8-1.8c0.2-0.2,0.4-0.4,0.5-0.6c0.7-0.7,1.2-1.3,1.8-2c0.1-0.1,0.3-0.3,0.4-0.4c0.1-0.1,0.2-0.2,0.2-0.3
				c0.1-0.1,0.2-0.3,0.4-0.4c0.3-0.3,0.6-0.7,0.8-0.9c0.1-0.2,0.3-0.3,0.4-0.4c0.1-0.1,0.2-0.2,0.2-0.3l0.1-0.1
				c0.2-0.2,0.3-0.4,0.5-0.6c0.1-0.1,0.2-0.2,0.3-0.4c0.7-0.8,1.3-1.6,2-2.4l0,0l30.8,31.3l0,0L350.4,358.6z"/>
		</g>
		<path class="st1" d="M481,467.4l-41.3,41.3c-4.4,4.4-11.6,4.4-16,0L307.6,392.6c-4.3-4.3-4.4-11.3-0.2-15.7
			c0.1-0.1,0.2-0.2,0.3-0.3l10.7-10.7l9.8-9.8l20.8-20.8c3.6-3.6,9.1-4.2,13.4-2c0.9,0.5,1.9,1.1,2.6,2l116.1,116.1
			C485.4,455.8,485.4,463,481,467.4z"/>
		<g>
			<line class="st6" x1="370.1" y1="379.3" x2="433.2" y2="441.6"/>
			<path class="st7" d="M433.2,453.4c-3,0-5.9-1.1-8.3-3.4l-63.1-62.3c-4.6-4.6-4.7-12.1-0.1-16.7c4.5-4.6,12.1-4.7,16.7-0.1
				l63.1,62.3c4.6,4.6,4.7,12.1,0.1,16.7C439.2,452.3,436.2,453.4,433.2,453.4z"/>
		</g>
		<g>
			<path class="st7" d="M199.8,121.5c4.5-0.2,15.6,0,27.2,6.6c12,6.9,17.8,16.6,19.9,20.6L199.8,121.5z"/>
			<path class="st7" d="M247,160.6c-4.2,0-8.4-2.3-10.5-6.3c-2-3.8-6.6-10.9-15.3-15.8c-8.5-4.8-16.8-5.3-20.9-5.1
				c-6.5,0.3-12-4.8-12.3-11.3c-0.3-6.5,4.8-12,11.3-12.3c8.2-0.4,20.6,0.8,33.6,8.2c13.2,7.5,20.6,18,24.5,25.5
				c3,5.8,0.8,12.9-5,15.9C250.8,160.1,248.9,160.6,247,160.6z"/>
		</g>
	</g>
</g>
</svg>
