<?xml version="1.0" encoding="utf-8"?>
<!-- Generator: Adobe Illustrator 25.4.1, SVG Export Plug-In . SVG Version: 6.00 Build 0)  -->
<svg version="1.1" id="Layer_1" xmlns="http://www.w3.org/2000/svg" xmlns:xlink="http://www.w3.org/1999/xlink" x="0px" y="0px"
	 viewBox="0 0 512.4 512" style="enable-background:new 0 0 512.4 512;" xml:space="preserve">
<style type="text/css">
	.st0{fill:#0295AA;}
	.st1{fill:#4ACFD9;}
	.st2{fill:#9BAAAB;}
	.st3{fill:#CDD4D5;}
	.st4{fill:#F0353D;}
</style>
<g>
	<path class="st0" d="M71.3,453.4l5.8-31c0.7,6.1,5.8,10.6,11.9,10.6h61.4l-72.8,25.8c-2.5,0.9-5.2-0.4-6.1-2.9
		C71.2,455.1,71.2,454.2,71.3,453.4z"/>
	<path class="st0" d="M145.1,24.6c-6.1,6-6.1,15.8,0,21.9c2.9,2.9,6.9,4.6,11,4.5h83v28H89c-6.6,0-12,5.4-12,12v254l-11.5,62V59.5
		C65.6,26.7,92.2,0.1,125,0h114v20h-83C151.9,20,148,21.6,145.1,24.6z"/>
	<path class="st0" d="M192.9,433H239v11c-18.2,0-33,14.8-33,33s14.8,33,33,33v2H125c-25.4-0.1-48-16.2-56.3-40.2
		c4.3,1.8,9.2,1.9,13.6,0.4L192.9,433z"/>
	<path class="st1" d="M327.3,50l-24.7,29H239V51h83c0.4,0,0.7,0,1.1,0h0.5c0.5,0,1.1-0.1,1.6-0.2c0.2,0,0.5-0.1,0.7-0.2
		s0.5-0.1,0.7-0.2l0.7-0.2L327.3,50z"/>
	<path class="st1" d="M411.1,46.9l-27-23.1c-11-9.4-27.5-8.1-36.9,2.9l-10,11.8c0-0.2,0.1-0.5,0.1-0.7s0.1-0.5,0.1-0.8
		c0-0.5,0.1-1,0.1-1.5c0-8.6-7-15.5-15.6-15.5h-83V0h114C381,0.1,405.1,19.6,411.1,46.9z"/>
	<path class="st1" d="M412.5,66.7v79.6L401,159.8V91c0-6.6-5.4-12-12-12h-67.8L358,36c4.3-5,11.9-5.6,16.9-1.3c0,0,0,0,0,0
		L412.5,66.7z"/>
	<path class="st1" d="M401,181.7l11.5-13.5v284.3c-0.1,32.8-26.7,59.4-59.5,59.5H239v-2c18.2,0,33-14.8,33-33s-14.8-33-33-33v-11
		h150c6.6,0,12-5.4,12-12V181.7z"/>
	<path class="st2" d="M239,20v31h-83c-8.6,0-15.5-6.9-15.5-15.5S147.4,20,156,20H239z"/>
	<path class="st3" d="M337.5,35.5c0,0.5,0,1-0.1,1.5c0,0.3,0,0.5-0.1,0.8c0,0.2-0.1,0.5-0.1,0.7L327.3,50l0,0l-0.7,0.2
		c-0.2,0.1-0.5,0.1-0.7,0.2s-0.5,0.1-0.7,0.2c-0.5,0.1-1.1,0.2-1.6,0.2h-0.5c-0.3,0-0.7,0-1.1,0h-83v-31h83
		C330.6,19.9,337.5,26.9,337.5,35.5z"/>
	<path class="st2" d="M239,79v74.5L195,205l-54.5-46.6c-8-6.8-20-5.8-26.8,2.1c-2.2,2.5-3.6,5.6-4.2,8.9L77,345V91
		c0-6.6,5.4-12,12-12L239,79z"/>
	<path class="st2" d="M239,175.3v226.4l-26.5,9.4l-62.1,22H89c-6.1,0-11.2-4.6-11.9-10.6l20.3-109.7L123.5,172
		c0.5-2.6,3-4.3,5.6-3.8c0.8,0.2,1.6,0.5,2.3,1.1l61.7,52.7c2,1.7,5,1.4,6.7-0.6c0,0,0,0,0.1-0.1l0,0L239,175.3z"/>
	<polygon class="st2" points="192.9,433 239,416.7 239,433 	"/>
	<polygon class="st3" points="302.6,79 239,153.5 239,79 	"/>
	<path class="st3" d="M401,91v68.8L285.8,294.6l0,0c-1.8,2-1.6,5,0.3,6.8c0,0,0,0,0.1,0L349,355c2,1.7,2.3,4.7,0.5,6.8
		c-0.5,0.6-1.3,1.1-2,1.4L239,401.6V175.3L321.2,79H389C395.6,79,401,84.4,401,91C401,91,401,91,401,91z"/>
	<path class="st3" d="M302.6,296.9L401,181.7V421c0,6.6-5.4,12-12,12H239v-16.3l113.2-40.1c9.9-3.5,15-14.4,11.5-24.3
		c-1.1-3.1-3-5.9-5.5-8L302.6,296.9z"/>
	<path class="st2" d="M239,444v66c-18.2,0-33-14.8-33-33S220.8,444,239,444z"/>
	<path class="st3" d="M272,477c0,18.2-14.8,33-33,33v-66C257.2,444,272,458.8,272,477z"/>
	<path class="st0" d="M65.5,138.5c3.4-6.5,7.3-12.7,11.5-18.6v193.9c-4.2-6-8.1-12.2-11.5-18.6V138.5z"/>
	<path class="st4" d="M444.1,109.4l-31.5,36.9L401,159.8L285.8,294.6l0,0c-1.8,2-1.6,5,0.3,6.8c0,0,0,0,0.1,0L349,355
		c2,1.7,2.3,4.7,0.5,6.8c-0.5,0.6-1.3,1.1-2,1.4L239,401.6l-26.5,9.4l-62.1,22l-72.8,25.8c-2.5,0.9-5.2-0.4-6.1-2.9
		c-0.3-0.8-0.3-1.6-0.2-2.5l5.8-31l20.3-109.7L123.5,172c0.5-2.6,3-4.3,5.6-3.8c0.8,0.2,1.6,0.5,2.3,1.1l61.7,52.7
		c2,1.7,5,1.4,6.7-0.6c0,0,0,0,0.1-0.1l0,0l39.2-45.9L321.2,79L358,36c4.3-5,11.9-5.6,16.9-1.3c0,0,0,0,0,0l37.6,32.1l30.2,25.8
		C447.7,96.9,448.3,104.4,444.1,109.4z"/>
	<path class="st4" d="M444.1,109.4l-31.5,36.9L401,159.8L285.8,294.6l0,0c-1.8,2-1.6,5,0.3,6.8c0,0,0,0,0.1,0L349,355
		c2,1.7,2.3,4.7,0.5,6.8c-0.5,0.6-1.3,1.1-2,1.4L239,401.6l-26.5,9.4l-62.1,22l-72.8,25.8c-2.5,0.9-5.2-0.4-6.1-2.9
		c-0.3-0.8-0.3-1.6-0.2-2.5l5.8-31l20.3-109.7L123.5,172c0.5-2.6,3-4.3,5.6-3.8c0.8,0.2,1.6,0.5,2.3,1.1l61.7,52.7
		c2,1.7,5,1.4,6.7-0.6c0,0,0,0,0.1-0.1l0,0l39.2-45.9L321.2,79L358,36c4.3-5,11.9-5.6,16.9-1.3c0,0,0,0,0,0l37.6,32.1l30.2,25.8
		C447.7,96.9,448.3,104.4,444.1,109.4z"/>
</g>
</svg>
