<svg id="Layer_1" data-name="Layer 1" xmlns="http://www.w3.org/2000/svg" viewBox="0 0 347 512"><defs><style>.cls-1{fill:#0295aa;}.cls-2{fill:#4acfd9;}.cls-3{fill:#9baaab;}.cls-4{fill:#cdd4d5;}.cls-5{fill:#ffd1a9;}.cls-6{fill:#bcd643;}.cls-7{fill:#ff8c29;}.cls-8{fill:#fd6a33;}</style></defs><path class="cls-1" d="M353.05,66.2A15.48,15.48,0,0,0,364,92.64h83v28H297a12,12,0,0,0-12,12v330a12,12,0,0,0,12,12H447v11a33,33,0,0,0,0,66v2H333a59.67,59.67,0,0,1-59.5-59.5v-393A59.68,59.68,0,0,1,333,41.64H447v20H364A15.43,15.43,0,0,0,353.05,66.2Z" transform="translate(-273.5 -41.64)"/><path class="cls-2" d="M620.5,101.14v393a59.67,59.67,0,0,1-59.5,59.5H447v-2a33,33,0,0,0,0-66v-11H597a12,12,0,0,0,12-12v-330a12,12,0,0,0-12-12H447v-28h83a15.5,15.5,0,0,0,0-31H447v-20H561A59.68,59.68,0,0,1,620.5,101.14Z" transform="translate(-273.5 -41.64)"/><path class="cls-3" d="M447,61.64v31H364a15.5,15.5,0,0,1,0-31Z" transform="translate(-273.5 -41.64)"/><path class="cls-4" d="M545.5,77.14A15.53,15.53,0,0,1,530,92.64H447v-31h83A15.55,15.55,0,0,1,545.5,77.14Z" transform="translate(-273.5 -41.64)"/><path class="cls-3" d="M447,120.64v354H297a12,12,0,0,1-12-12v-330a12,12,0,0,1,12-12Z" transform="translate(-273.5 -41.64)"/><path class="cls-4" d="M609,132.64v330a12,12,0,0,1-12,12H447v-354H597A12,12,0,0,1,609,132.64Z" transform="translate(-273.5 -41.64)"/><path class="cls-3" d="M447,485.64v66a33,33,0,0,1,0-66Z" transform="translate(-273.5 -41.64)"/><path class="cls-4" d="M480,518.64a33,33,0,0,1-33,33v-66A33,33,0,0,1,480,518.64Z" transform="translate(-273.5 -41.64)"/><path class="cls-5" d="M519.34,159.27" transform="translate(-273.5 -41.64)"/><path class="cls-6" d="M301.09,439.24h293c3.59,0,6.58,3.94,6.58,8.85h0c0,4.82-2.94,8.85-6.58,8.85h-293c-3.58,0-6.57-3.95-6.57-8.85h0C294.52,443.18,297.51,439.24,301.09,439.24Z" transform="translate(-273.5 -41.64)"/><path class="cls-5" d="M550.46,128.54H343.54a5.73,5.73,0,0,0-5.71,5.71V256.86L447.88,146.8,556.25,255.33v-121A5.87,5.87,0,0,0,550.46,128.54Z" transform="translate(-273.5 -41.64)"/><path class="cls-5" d="M496.4,270.53V395.15H399.53V270.53h-61.7V414.22a5.73,5.73,0,0,0,5.71,5.71H492.7a5.54,5.54,0,0,0,4-1.69l57.84-57.84a5.73,5.73,0,0,0,1.69-4V270.53Z" transform="translate(-273.5 -41.64)"/><path class="cls-7" d="M447,128.54H343.46a5.73,5.73,0,0,0-5.71,5.71V256.94L447,147.68Z" transform="translate(-273.5 -41.64)"/><path class="cls-7" d="M399.53,270.53H337.75V414.22a5.73,5.73,0,0,0,5.71,5.71H447V395.15H399.53Z" transform="translate(-273.5 -41.64)"/><path class="cls-8" d="M492.62,362.25v57.84h0a5.54,5.54,0,0,0,4-1.69l57.84-57.84a5.73,5.73,0,0,0,1.69-4H498.33A5.64,5.64,0,0,0,492.62,362.25Z" transform="translate(-273.5 -41.64)"/><rect class="cls-6" x="142.12" y="211.28" width="64.6" height="126.15"/><polygon class="cls-6" points="259.02 212.81 174.38 127.93 89.59 212.81 259.02 212.81"/></svg>