<?xml version="1.0" encoding="utf-8"?>
<!-- Generator: Adobe Illustrator 25.4.1, SVG Export Plug-In . SVG Version: 6.00 Build 0)  -->
<svg version="1.1" id="Layer_1" xmlns="http://www.w3.org/2000/svg" xmlns:xlink="http://www.w3.org/1999/xlink" x="0px" y="0px"
	 viewBox="206 -206 512 512" style="enable-background:new 206 -206 512 512;" xml:space="preserve">
<style type="text/css">
	.st0{fill:#0295AA;}
	.st1{fill:#4ACFD9;}
	.st2{fill:#9BAAAB;}
	.st3{fill:#CDD4D5;}
	.st4{fill:#FFD1A9;}
	.st5{fill:#F0353D;}
	.st6{fill:#FD6A33;}
	.st7{fill:#FFFFFF;}
	.st8{fill:#E6EAEA;}
</style>
<path class="st0" d="M355.5-181.4c-2.8,2.8-4.5,6.7-4.5,10.9c0,8.5,7,15.5,15.5,15.5h83v28h-150c-6.6,0-12,5.4-12,12v330
	c0,6.6,5.4,12,12,12h150v11c-18.2,0-33,14.8-33,33c0,18.2,14.8,33,33,33v2h-114c-32.7,0-59.5-26.8-59.5-59.5v-393
	c0-32.7,26.8-59.5,59.5-59.5h114v20h-83C362.2-186,358.4-184.3,355.5-181.4z"/>
<path class="st1" d="M623-146.5v393c0,32.7-26.8,59.5-59.5,59.5h-114v-2c18.2,0,33-14.8,33-33c0-18.2-14.8-33-33-33v-11h150
	c6.6,0,12-5.4,12-12v-330c0-6.6-5.4-12-12-12h-150v-28h83c4.3,0,8.1-1.7,11-4.5s4.5-6.7,4.5-11c0-8.5-7-15.5-15.5-15.5h-83v-20h114
	C596.2-206,623-179.2,623-146.5z"/>
<path class="st2" d="M449.5-186v31h-83c-8.5,0-15.5-7-15.5-15.5c0-4.3,1.7-8.1,4.5-10.9c2.8-2.8,6.7-4.6,11-4.6H449.5z"/>
<path class="st3" d="M548-170.5c0,4.3-1.7,8.1-4.5,11s-6.7,4.5-11,4.5h-83v-31h83C541-186,548-179,548-170.5z"/>
<path class="st2" d="M449.5-127v354h-150c-6.6,0-12-5.4-12-12v-330c0-6.6,5.4-12,12-12H449.5z"/>
<path class="st3" d="M611.5-115v330c0,6.6-5.4,12-12,12h-150v-354h150C606.1-127,611.5-121.6,611.5-115z"/>
<path class="st2" d="M449.5,238v66c-18.2,0-33-14.8-33-33C416.5,252.8,431.3,238,449.5,238z"/>
<path class="st3" d="M482.5,271c0,18.2-14.8,33-33,33v-66C467.7,238,482.5,252.8,482.5,271z"/>
<path class="st4" d="M521.8-88.4"/>
<path class="st4" d="M526.1-52.4"/>
<polygon class="st5" points="368.5,-90.3 287.5,50 368.5,190.3 449.5,190.3 449.5,-90.3 "/>
<polygon class="st6" points="611.5,50 530.5,-90.3 449.5,-90.3 449.5,190.3 530.5,190.3 "/>
<rect x="449.4" y="-70.5" class="st7" width="0.1" height="240.9"/>
<polygon class="st8" points="380,-70.5 310.4,50 380,170.5 449.4,170.5 449.4,-70.5 "/>
<polygon class="st7" points="588.6,50 519,-70.5 449.5,-70.5 449.5,170.5 519,170.5 "/>
<polygon class="st5" points="387.6,-57.3 325.6,50 387.6,157.3 449.5,157.3 449.5,-57.3 "/>
<polygon class="st6" points="573.3,50 511.4,-57.3 449.5,-57.3 449.5,157.3 511.4,157.3 "/>
<path class="st8" d="M409.1,5c-4.1,0-7.4,3.1-7.4,6.8v54.5h14.9V11.8C416.5,8,413.2,5,409.1,5z"/>
<path class="st8" d="M429.3-21.6c-4.1,0-7.4,3.1-7.4,6.8v81.1h14.9v-81.1C436.7-18.5,433.4-21.6,429.3-21.6z"/>
<path class="st7" d="M456.8-30.5c0-3.8-3.3-6.8-7.4-6.8V66.3h7.4V-30.5z"/>
<path class="st8" d="M441.9-30.5v96.8h7.4V-37.3C445.2-37.3,441.9-34.2,441.9-30.5z"/>
<path class="st7" d="M462,66.3v-76.7c0-3.8,3.3-6.8,7.4-6.8c4.1,0,7.4,3.1,7.4,6.8v76.7"/>
<path class="st7" d="M500.6,61.5c0-4.7-4.2-8.5-9.4-8.5c-5.2,0-9.3,3.8-9.3,8.5l0.1,14.6c-0.1,0.1-0.1,0.3-0.2,0.4l-2,2.4
	c-1,1-2.9,0.3-2.9-1V66.3c0-4.5-6.7-6.7-11.9-8.2c-3.4-1-9.4-1.7-15.7-2.1v78.1h9c15.7,0,24.2-7,28-14.1
	c2.9-5.5,11.1-20.9,11.1-20.8c1.5-2.5,3.2-6.2,3.2-10.1L500.6,61.5z"/>
<path class="st8" d="M439.4,55.7c-9.3,0-21.1,1.5-28.7,3.8c-7.6,2.2-9,3.7-9,8.2v44.6c0,13.6,14.9,21.8,31.3,21.8h16.4V56
	C446,55.8,442.6,55.7,439.4,55.7z"/>
</svg>
