<?xml version="1.0" encoding="utf-8"?>
<!-- Generator: Adobe Illustrator 25.4.1, SVG Export Plug-In . SVG Version: 6.00 Build 0)  -->
<svg version="1.1" id="Layer_1" xmlns="http://www.w3.org/2000/svg" xmlns:xlink="http://www.w3.org/1999/xlink" x="0px" y="0px"
	 viewBox="206 -206 512 512" style="enable-background:new 206 -206 512 512;" xml:space="preserve">
<style type="text/css">
	.st0{fill:#0295AA;}
	.st1{fill:#4ACFD9;}
	.st2{fill:#9BAAAB;}
	.st3{fill:#CDD4D5;}
	.st4{fill:#FFD1A9;}
	.st5{fill:#FD6A33;}
	.st6{fill:#FF8C29;}
	.st7{fill:#E6EAEA;}
	.st8{fill:#FFFFFF;}
	.st9{fill:#E34C40;}
	.st10{fill:#365558;}
	.st11{fill:none;stroke:#E6EAEA;stroke-width:10;stroke-linecap:round;stroke-linejoin:round;stroke-miterlimit:10;}
</style>
<path class="st0" d="M355.5-181.4c-2.8,2.8-4.5,6.7-4.5,10.9c0,8.5,7,15.5,15.5,15.5h83v28h-150c-6.6,0-12,5.4-12,12v330
	c0,6.6,5.4,12,12,12h150v11c-18.2,0-33,14.8-33,33c0,18.2,14.8,33,33,33v2h-114c-32.7,0-59.5-26.8-59.5-59.5v-393
	c0-32.7,26.8-59.5,59.5-59.5h114v20h-83C362.2-186,358.4-184.3,355.5-181.4z"/>
<path class="st1" d="M623-146.5v393c0,32.7-26.8,59.5-59.5,59.5h-114v-2c18.2,0,33-14.8,33-33c0-18.2-14.8-33-33-33v-11h150
	c6.6,0,12-5.4,12-12v-330c0-6.6-5.4-12-12-12h-150v-28h83c4.3,0,8.1-1.7,11-4.5s4.5-6.7,4.5-11c0-8.5-7-15.5-15.5-15.5h-83v-20h114
	C596.2-206,623-179.2,623-146.5z"/>
<path class="st2" d="M449.5-186v31h-83c-8.5,0-15.5-7-15.5-15.5c0-4.3,1.7-8.1,4.5-10.9c2.8-2.8,6.7-4.6,11-4.6H449.5z"/>
<path class="st3" d="M548-170.5c0,4.3-1.7,8.1-4.5,11s-6.7,4.5-11,4.5h-83v-31h83C541-186,548-179,548-170.5z"/>
<path class="st2" d="M449.5-127v354h-150c-6.6,0-12-5.4-12-12v-330c0-6.6,5.4-12,12-12H449.5z"/>
<path class="st3" d="M611.5-115v330c0,6.6-5.4,12-12,12h-150v-354h150C606.1-127,611.5-121.6,611.5-115z"/>
<path class="st2" d="M449.5,238v66c-18.2,0-33-14.8-33-33C416.5,252.8,431.3,238,449.5,238z"/>
<path class="st3" d="M482.5,271c0,18.2-14.8,33-33,33v-66C467.7,238,482.5,252.8,482.5,271z"/>
<path class="st4" d="M521.8-88.4"/>
<path class="st4" d="M526.1-52.4"/>
<g>
	<path class="st5" d="M340.3,95.3c0,27.4,22.2,49.6,49.6,49.6V45.7C362.5,45.7,340.3,67.9,340.3,95.3z"/>
	<path class="st6" d="M439.5,95.3c0-27.4-22.2-49.6-49.6-49.6V145C417.3,144.9,439.5,122.7,439.5,95.3z"/>
	<path class="st2" d="M358.8,95.3c0,17.1,13.9,31,31,31V64.3C372.7,64.3,358.8,78.2,358.8,95.3z"/>
	<path class="st3" d="M420.9,95.3c0-17.1-13.9-31-31-31v62.2C407,126.4,420.9,112.5,420.9,95.3z"/>
	<path class="st7" d="M365,95.3c0,13.7,11.1,24.9,24.9,24.9V70.4C376.1,70.5,365,81.6,365,95.3z"/>
	<path class="st8" d="M414.7,95.3c0-13.7-11.1-24.9-24.9-24.9v49.8C403.6,120.2,414.7,109.1,414.7,95.3z"/>
	<path class="st4" d="M389.8,45.7v15.4c1.9,0,3.5-1.5,3.5-3.5V46.1c0-0.1,0-0.2,0-0.2C392.2,45.8,391,45.7,389.8,45.7z"/>
	<path class="st6" d="M386.7,45.8c0,0.1,0,0.2,0,0.3v11.5c0,1.8,1.4,3.3,3.2,3.5V45.7C388.8,45.7,387.8,45.7,386.7,45.8z"/>
	<path class="st5" d="M389.9,129.8v15.1c1.2,0,2.4-0.1,3.5-0.1v-11.4C393.4,131.5,391.9,129.8,389.9,129.8z"/>
	<path class="st4" d="M386.7,133.4v11.5c1.1,0.1,2.1,0.1,3.2,0.1v-15.1C388.1,130,386.7,131.6,386.7,133.4z"/>
	<path class="st4" d="M352.4,91.8h-11.5c-0.2,0-0.3,0-0.5,0.1c-0.1,1.2-0.1,2.3-0.1,3.5h15.6C355.9,93.4,354.3,91.8,352.4,91.8z"/>
	<path class="st6" d="M352.4,98.9c1.9,0,3.5-1.5,3.5-3.5h-15.6c0,1.2,0.1,2.4,0.1,3.5c0.2,0,0.3,0.1,0.5,0.1H352.4z"/>
	<path class="st5" d="M428.1,91.8c-1.9,0-3.5,1.5-3.5,3.5h14.9l0,0c0-1.2-0.1-2.4-0.1-3.5H428.1z"/>
	<path class="st4" d="M428.1,98.9h11.3c0.1-1.2,0.1-2.4,0.1-3.5h-14.9C424.6,97.3,426.2,98.9,428.1,98.9z"/>
	<path class="st4" d="M365.9,66.1l-8.1-8.1c-0.1-0.1-0.2-0.1-0.3-0.2c-0.9,0.7-1.7,1.5-2.5,2.4L365.9,71
		C367.3,69.7,367.3,67.4,365.9,66.1z"/>
	<path class="st6" d="M361,71c1.4,1.4,3.6,1.4,4.9,0L355,60.1c-0.8,0.8-1.6,1.7-2.4,2.5c0.1,0.1,0.2,0.2,0.2,0.3L361,71z"/>
	<path class="st5" d="M414.5,119.6l10.6,10.6c0.8-0.8,1.6-1.7,2.4-2.6l-8-8C418.1,118.3,415.8,118.3,414.5,119.6z"/>
	<path class="st4" d="M414.5,124.6l8,8c0.9-0.7,1.7-1.5,2.5-2.4l-10.6-10.6C413.1,121,413.1,123.2,414.5,124.6z"/>
	<path class="st4" d="M360.9,119.5l-8.1,8.1c-0.1,0.1-0.2,0.2-0.2,0.3c0.7,0.9,1.5,1.7,2.4,2.5l10.9-10.9
		C364.5,118.2,362.2,118.2,360.9,119.5z"/>
	<path class="st6" d="M365.8,124.5c1.4-1.4,1.4-3.6,0-4.9l-10.9,10.9c0.8,0.8,1.7,1.6,2.5,2.4c0.1-0.1,0.2-0.1,0.3-0.2L365.8,124.5z
		"/>
	<path class="st5" d="M414.4,66c-1.4,1.4-1.4,3.6,0,4.9L425,60.3c-0.8-0.8-1.7-1.6-2.6-2.4L414.4,66z"/>
	<path class="st4" d="M414.4,70.9c1.4,1.4,3.6,1.4,4.9,0l8-8c-0.7-0.9-1.5-1.7-2.4-2.6L414.4,70.9z"/>
	<path class="st4" d="M379,59l-4.4-10.6c-0.1-0.1-0.1-0.2-0.1-0.2c-1.1,0.4-2.2,0.7-3.3,1.2l5.9,14.2C378.9,62.9,379.7,60.8,379,59z
		"/>
	<path class="st6" d="M372.5,61.7c0.7,1.8,2.8,2.7,4.6,1.9l-5.9-14.2c-1.1,0.4-2.2,0.9-3.2,1.4c0,0.1,0.1,0.2,0.1,0.3L372.5,61.7z"
		/>
	<path class="st5" d="M403.4,127.1l5.8,14c1.1-0.4,2.2-1,3.2-1.5l-4.4-10.6C407.2,127.2,405.1,126.3,403.4,127.1z"/>
	<path class="st4" d="M401.5,131.6l4.4,10.6l0,0c1.1-0.4,2.2-0.8,3.3-1.2l-5.8-14C401.6,127.8,400.8,129.8,401.5,131.6z"/>
	<path class="st4" d="M353.8,106.4l-10.6,4.4c-0.1,0.1-0.3,0.1-0.4,0.2c0.4,1.1,0.7,2.2,1.2,3.3l14.4-5.9
		C357.7,106.5,355.6,105.7,353.8,106.4z"/>
	<path class="st6" d="M356.5,112.9c1.8-0.7,2.7-2.8,1.9-4.6l-14.4,5.9c0.4,1.1,0.9,2.1,1.4,3.2c0.1-0.1,0.3-0.1,0.4-0.1L356.5,112.9
		z"/>
	<path class="st5" d="M423.8,77.5c-1.8,0.7-2.7,2.8-1.9,4.6l13.8-5.8c-0.4-1.1-0.9-2.2-1.5-3.2L423.8,77.5z"/>
	<path class="st4" d="M421.9,82c0.7,1.8,2.8,2.7,4.6,1.9l10.5-4.3c-0.4-1.1-0.8-2.2-1.2-3.3L421.9,82z"/>
	<path class="st4" d="M356.5,77.5l-10.6-4.4c-0.1-0.1-0.2-0.1-0.3-0.1c-0.5,1.1-1.1,2.1-1.5,3.2l14.3,5.9
		C359.1,80.3,358.3,78.2,356.5,77.5z"/>
	<path class="st6" d="M353.8,84c1.8,0.7,3.8-0.1,4.6-1.9l-14.3-5.9c-0.4,1.1-0.9,2.2-1.2,3.3c0.1,0.1,0.2,0.1,0.3,0.2L353.8,84z"/>
	<path class="st5" d="M421.9,108.3l13.9,5.8c0.4-1.1,0.9-2.2,1.2-3.3l-10.6-4.4C424.7,105.7,422.6,106.5,421.9,108.3z"/>
	<path class="st4" d="M423.8,112.9l10.6,4.4c0.5-1.1,1-2.1,1.4-3.2l-13.9-5.8C421.2,110.1,422,112.2,423.8,112.9z"/>
	<path class="st4" d="M372.2,128.7l-4.4,10.6c-0.1,0.1-0.1,0.2-0.1,0.4c1.1,0.5,2.1,1,3.2,1.4l6-14.3
		C375.1,126.1,373,126.9,372.2,128.7z"/>
	<path class="st6" d="M378.7,131.5c0.7-1.8-0.1-3.8-1.9-4.6l-5.9,14.3c1.1,0.4,2.2,0.9,3.3,1.2c0.1-0.1,0.1-0.2,0.2-0.4L378.7,131.5
		z"/>
	<path class="st5" d="M401.3,58.8c-0.7,1.8,0.1,3.8,1.9,4.6l5.8-13.9c-1.1-0.4-2.2-0.9-3.3-1.2L401.3,58.8z"/>
	<path class="st4" d="M403.2,63.4c1.8,0.7,3.8-0.1,4.6-1.9l4.3-10.5c-1.1-0.5-2.1-1-3.2-1.5L403.2,63.4z"/>
	<g>
		<path id="XMLID_4_" class="st9" d="M386.5,100c0.6-0.2,4.6,0.4,5.1,0.8c1.7,1.2,4.1,1.8,5.1,0.6c1-1.2-0.1-3.3-1.6-4.8
			c-0.4-0.5-2-4.1-1.9-4.8c0.2-2-0.4-4.5-2-4.8c-1.5-0.2-3,1.9-3.3,3.8c-0.1,0.6-2.7,3.8-3.3,4c-1.9,0.9-3.6,2.7-3,4.1
			C382.1,100.5,384.7,100.6,386.5,100z"/>
		<path id="XMLID_3_" class="st9" d="M393.3,78.8c2.5,0.1,3.5,5.1,3.1,9.1c-0.1,1.2,2.8,8.3,3.3,9.5c0.4,0.7,0.9,1.2,1.6,1.6
			c-1.9-5.1-2-9.3-1.7-10.2c1.6-4.5,0.9-10.5-1.5-11.8c-1.6-0.9-5.2-1.3-7.5,2.4C391.5,78.9,392.4,78.7,393.3,78.8z"/>
		<path id="XMLID_2_" class="st9" d="M373.5,100.3c-1.2-2.2,2.7-5.6,6.3-7.3c1.2-0.5,5.8-6.6,6.6-7.6c0.4-0.7,0.6-1.4,0.6-2.2
			c-3.5,4.2-7,6.4-8,6.6c-4.6,0.8-9.5,4.5-9.5,7.2c0,1.9,1.5,5.1,5.8,5.3C374.5,101.9,373.9,101.2,373.5,100.3z"/>
		<path id="XMLID_1_" class="st9" d="M402.2,107.2c-1.4,2.1-6.2,0.5-9.5-1.9c-1.1-0.7-8.7-1.8-9.9-1.9c-0.8-0.1-1.5,0.2-2.2,0.6
			c5.4,0.9,9,2.8,9.7,3.6c3,3.6,8.6,6,11,4.6c1.6-0.9,3.7-3.8,1.7-7.7C403,105.5,402.8,106.5,402.2,107.2z"/>
	</g>
</g>
<g>
	<path class="st5" d="M478.1,60.3c-19.4,19.4-19.4,50.8,0,70.1l70.1-70.1C528.9,40.9,497.5,40.9,478.1,60.3z"/>
	<path class="st6" d="M478.1,130.5c19.4,19.4,50.8,19.4,70.2-0.1s19.4-50.8,0-70.1L478.1,130.5z"/>
	<path class="st2" d="M491.2,73.4c-12.1,12.1-12.1,31.8,0,43.9l43.9-43.9C523,61.3,503.4,61.3,491.2,73.4z"/>
	<path class="st3" d="M491.2,117.4c12.2,12.1,31.8,12.1,44-0.1c12.1-12.1,12.1-31.8,0-43.9L491.2,117.4z"/>
	<path class="st7" d="M495.6,77.8c-9.7,9.7-9.7,25.5,0,35.2l35.2-35.2C521,68.1,505.3,68.1,495.6,77.8z"/>
	<path class="st8" d="M495.6,113c9.8,9.6,25.5,9.6,35.2-0.1c9.7-9.7,9.7-25.5,0-35.2L495.6,113z"/>
	<path class="st4" d="M537.3,71.2c1.4,1.4,3.6,1.4,5,0l8.2-8.2c0.1-0.1,0.1-0.1,0.2-0.2c-0.8-0.9-1.5-1.7-2.4-2.6L537.3,71.2z"/>
	<path class="st6" d="M545.8,58.3l-8.2,8.2c-1.3,1.3-1.4,3.3-0.2,4.7l10.9-10.9c-0.8-0.7-1.5-1.4-2.3-2.2
		C545.9,58.2,545.8,58.3,545.8,58.3z"/>
	<path class="st5" d="M478.2,130.5c0.8,0.8,1.7,1.6,2.6,2.4l8.1-8.1c1.3-1.4,1.4-3.6,0-5L478.2,130.5z"/>
	<path class="st4" d="M484.1,120l-8.2,8.2c0.7,0.8,1.4,1.5,2.2,2.3l10.7-10.7C487.4,118.6,485.4,118.8,484.1,120z"/>
	<path class="st4" d="M481,58.2c-0.1-0.1-0.2-0.2-0.4-0.3c-0.9,0.8-1.7,1.5-2.5,2.4l11,11c1.4-1.4,1.4-3.6,0.1-4.9L481,58.2z"/>
	<path class="st6" d="M475.8,62.9c0.1,0.1,0.2,0.2,0.3,0.4l8.1,8.1c1.4,1.4,3.6,1.4,5,0l-11-11C477.3,61.1,476.6,62,475.8,62.9z"/>
	<path class="st5" d="M537.7,119.9l10.5,10.5c0.8-0.8,1.6-1.7,2.4-2.6l-8-8C541.4,118.5,539.1,118.5,537.7,119.9z"/>
	<path class="st4" d="M537.7,124.9l8,8c0.9-0.8,1.7-1.5,2.6-2.4L537.8,120C536.4,121.3,536.4,123.5,537.7,124.9z"/>
	<path class="st4" d="M513.4,45.7v15.5c1.9,0,3.5-1.5,3.5-3.5V46.2c0-0.1-0.1-0.2-0.1-0.4C515.8,45.8,514.6,45.7,513.4,45.7z"/>
	<path class="st6" d="M510,46.3v11.4c0,1.9,1.5,3.5,3.5,3.5V45.8c-1.1,0-2.3,0.1-3.5,0.1C510,46.1,510,46.2,510,46.3z"/>
	<path class="st5" d="M513.4,130v15c1.1,0,2.3-0.1,3.5-0.2v-11.4C516.9,131.5,515.4,130,513.4,130z"/>
	<path class="st4" d="M509.9,133.4v11.4c1.1,0.1,2.3,0.1,3.5,0.1v-15C511.5,130,509.9,131.5,509.9,133.4z"/>
	<path class="st4" d="M475.6,91.9h-11.4c-0.2,0-0.2,0-0.4,0.1c-0.1,1.1-0.1,2.3-0.1,3.5h15.5C479.1,93.5,477.5,91.9,475.6,91.9z"/>
	<path class="st6" d="M463.7,98.9c0.1,0.1,0.2,0.1,0.4,0.1h11.4c1.9,0,3.5-1.5,3.5-3.5h-15.5C463.6,96.6,463.7,97.8,463.7,98.9z"/>
	<path class="st5" d="M551.3,91.9c-1.9,0-3.5,1.5-3.5,3.5h15c0-1.1-0.1-2.3-0.1-3.5H551.3z"/>
	<path class="st4" d="M551.3,98.9h11.4c0.1-1.1,0.1-2.3,0.2-3.5h-15C547.8,97.3,549.4,98.9,551.3,98.9z"/>
	<path class="st4" d="M526.6,63.8c1.7,0.8,3.8-0.1,4.6-1.9l4.4-10.6c0-0.1,0.1-0.2,0.1-0.2c-1.1-0.5-2.1-1.1-3.2-1.5L526.6,63.8z"/>
	<path class="st6" d="M529.1,48.7l-4.4,10.6c-0.7,1.8,0.1,3.8,1.9,4.6l5.9-14.2c-1.1-0.4-2.2-0.9-3.3-1.3
		C529.1,48.5,529.1,48.6,529.1,48.7z"/>
	<path class="st5" d="M500.3,127.3l-5.8,14c1.1,0.4,2.2,0.8,3.3,1.2l4.4-10.6C502.9,130.1,502.1,128.1,500.3,127.3z"/>
	<path class="st4" d="M495.7,129.2l-4.4,10.6c1.1,0.5,2.2,1,3.2,1.4l5.8-14C498.5,126.6,496.5,127.4,495.7,129.2z"/>
	<path class="st4" d="M479.9,77.7l-10.6-4.4c-0.1-0.1-0.3-0.1-0.4-0.2c-0.5,1.1-1,2-1.4,3.2l14.4,6
		C482.5,80.6,481.6,78.5,479.9,77.7z"/>
	<path class="st6" d="M466.2,79.6c0.1,0.1,0.2,0.2,0.4,0.2l10.6,4.4c1.8,0.7,3.8-0.1,4.6-1.9l-14.4-6
		C467,77.4,466.6,78.5,466.2,79.6z"/>
	<path class="st5" d="M545.2,108.6l13.8,5.7c0.5-1.1,0.9-2.2,1.2-3.3l-10.5-4.3C548,105.9,546,106.8,545.2,108.6z"/>
	<path class="st4" d="M547.1,113.2l10.5,4.3c0.5-1.1,1-2.2,1.4-3.2l-13.8-5.8C544.5,110.4,545.3,112.5,547.1,113.2z"/>
	<path class="st4" d="M497.8,48.5c-0.1-0.1-0.1-0.2-0.1-0.3c-1.1,0.4-2.2,0.7-3.3,1.2l5.9,14.3c1.8-0.7,2.7-2.8,1.9-4.6L497.8,48.5z
		"/>
	<path class="st6" d="M491.2,50.8c0.1,0.1,0.1,0.2,0.1,0.4l4.4,10.6c0.7,1.8,2.8,2.6,4.6,1.9l-5.9-14.3
		C493.4,49.8,492.3,50.3,491.2,50.8z"/>
	<path class="st5" d="M526.7,127.2l5.8,13.9c1.1-0.4,2.2-0.9,3.2-1.4l-4.4-10.6C530.5,127.3,528.5,126.4,526.7,127.2z"/>
	<path class="st4" d="M524.8,131.8l4.4,10.6c1.1-0.4,2.2-0.8,3.3-1.3l-5.8-13.9C524.9,127.9,524.1,130,524.8,131.8z"/>
	<path class="st4" d="M477.1,106.5l-10.6,4.4c-0.1,0.1-0.2,0.1-0.4,0.2c0.4,1.1,0.8,2.2,1.2,3.2l14.3-5.9
		C481,106.7,478.9,105.8,477.1,106.5z"/>
	<path class="st6" d="M467.3,114.4c0.4,1.1,0.9,2.2,1.4,3.2c0.1-0.1,0.2-0.1,0.4-0.1l10.6-4.4c1.8-0.7,2.6-2.8,1.9-4.6L467.3,114.4z
		"/>
	<path class="st5" d="M547.1,77.5c-1.8,0.7-2.6,2.8-1.9,4.6l13.9-5.8c-0.4-1.1-0.9-2.2-1.4-3.2L547.1,77.5z"/>
	<path class="st4" d="M545.2,82.2c0.7,1.8,2.8,2.6,4.6,1.9l10.5-4.4c-0.4-1.1-0.8-2.2-1.2-3.3L545.2,82.2z"/>
	<g>
		<path class="st9" d="M514.9,90.8c-0.5,0.4-4.6,0.8-5.1,0.5c-1.9-0.7-4.4-0.7-5,0.7c-0.6,1.5,1.1,3.3,2.8,4.3
			c0.6,0.3,2.9,3.5,3,4.1c0.4,2,1.6,4.1,3.2,4c1.5-0.1,2.3-2.4,2.3-4.6c0.1-0.7,1.5-4.3,2-4.7c1.6-1.3,2.9-3.5,2-4.8
			C519,89.2,516.5,89.7,514.9,90.8z"/>
		<path class="st9" d="M525.1,84.7c0.9,0.1,1.7,0.7,2.3,1.4c1.7,1.9-1.1,6.1-4.3,8.6c-1,0.8-4,7.9-4.4,9.1c-0.2,0.7-0.2,1.5,0,2.3
			c2.3-5,5.1-8,6.1-8.4c4.3-2,8-6.7,7.3-9.4C531.6,86.5,529.3,83.7,525.1,84.7z"/>
		<path class="st9" d="M509.4,83.7c-3.8-2.7-9.9-3.6-11.9-1.6c-1.3,1.3-2.6,4.7,0.4,7.9c-0.3-0.8-0.2-1.7,0.1-2.6
			c0.7-2.4,5.9-2,9.6-0.7c1.2,0.5,8.8-0.6,10-0.7c0.8-0.2,1.4-0.6,2-1.1C514.2,85.2,510.3,84.3,509.4,83.7z"/>
		<path class="st9" d="M513.5,112.5c-2.5,0.5-4.8-4.1-5.4-8c-0.2-1.3-4.8-7.4-5.7-8.3c-0.5-0.6-1.2-1-2-1.1c3.2,4.5,4.4,8.4,4.3,9.4
			c-0.4,4.7,1.9,10.3,4.5,11.1c1.8,0.5,5.3-0.1,6.6-4.3C515.3,111.9,514.5,112.3,513.5,112.5z"/>
	</g>
</g>
<path class="st5" d="M447.1,137.6c-27.3,2.4-47.4,26.5-45.1,53.7c1.3,14.8,9,27.5,20,35.6h32.9L447.1,137.6z"/>
<path class="st6" d="M500.8,182.7c-2.4-27.3-26.5-47.4-53.7-45.1l7.9,89.4h25.9C494.3,217,502.4,200.6,500.8,182.7z"/>
<path class="st2" d="M420.5,189.8c1.5,17.1,16.6,29.7,33.6,28.2l-5.4-61.8C431.6,157.6,419,172.7,420.5,189.8z"/>
<path class="st3" d="M482.3,184.3c-1.5-17.1-16.6-29.7-33.6-28.2l5.4,61.9C471.2,216.5,483.8,201.4,482.3,184.3z"/>
<path class="st7" d="M426.7,189.2c1.2,13.7,13.3,23.8,27,22.6l-4.3-49.6C435.6,163.5,425.4,175.6,426.7,189.2z"/>
<path class="st8" d="M476.1,184.9c-1.2-13.7-13.3-23.8-27-22.6l4.3,49.6C467.2,210.6,477.4,198.6,476.1,184.9z"/>
<path class="st4" d="M447,137.6l1.4,15.3c1.9-0.2,3.4-1.9,3.2-3.8l-1-11.4c0-0.1,0-0.2,0-0.2C449.4,137.5,448.2,137.5,447,137.6z"/>
<path class="st6" d="M443.9,137.9c0,0.1,0,0.2,0,0.3l1,11.4c0.2,1.8,1.7,3.2,3.5,3.2l-1.4-15.3C446,137.7,445,137.8,443.9,137.9z"/>
<path class="st5" d="M458.3,224.6c-0.2-1.9-1.9-3.4-3.8-3.2l0.5,5.6h3.5L458.3,224.6z"/>
<path class="st4" d="M454.4,221.5c-1.8,0.3-3,1.9-2.8,3.7l0.2,1.8h3.2L454.4,221.5z"/>
<path class="st4" d="M413.7,186.8l-11.4,1c-0.2,0-0.3,0-0.5,0.1c0.1,1.2,0.1,2.3,0.2,3.5l15.5-1.4
	C417.3,188.1,415.7,186.6,413.7,186.8z"/>
<path class="st6" d="M414.4,193.9c1.9-0.2,3.4-1.9,3.2-3.8l-15.5,1.4c0.1,1.2,0.2,2.4,0.4,3.5c0.2,0,0.3,0.1,0.5,0L414.4,193.9z"/>
<path class="st5" d="M489.2,180.2c-1.9,0.2-3.4,1.9-3.2,3.8l14.8-1.3l0,0c-0.1-1.2-0.2-2.4-0.4-3.5L489.2,180.2z"/>
<path class="st4" d="M489.8,187.2l11.2-1c-0.1-1.2-0.1-2.4-0.2-3.5L486,184C486.2,185.9,487.9,187.4,489.8,187.2z"/>
<path class="st4" d="M425,160l-8.8-7.4c-0.1-0.1-0.2-0.1-0.3-0.2c-0.8,0.8-1.6,1.7-2.4,2.5l11.9,10C426.7,163.4,426.5,161.3,425,160
	z"/>
<path class="st6" d="M420.5,165.3c1.5,1.2,3.7,1.1,4.9-0.4l-11.9-10c-0.7,0.9-1.5,1.8-2.1,2.7c0.1,0.1,0.2,0.2,0.2,0.3L420.5,165.3z
	"/>
<path class="st5" d="M478.1,209.1l11.5,9.6c0.7-0.9,1.5-1.8,2.1-2.8l-8.7-7.3C481.5,207.4,479.3,207.6,478.1,209.1z"/>
<path class="st4" d="M478.5,214l8.7,7.3c0.8-0.8,1.6-1.7,2.3-2.6l-11.5-9.6C476.8,210.6,477,212.8,478.5,214z"/>
<path class="st4" d="M424.6,213.6l-7.4,8.8c-0.1,0.1-0.2,0.2-0.2,0.3c0.8,0.8,1.7,1.6,2.5,2.4l10-11.9
	C428.1,212,425.9,212.2,424.6,213.6z"/>
<path class="st6" d="M422.6,226.9l7.4-8.8c1.2-1.5,1.1-3.7-0.4-4.9l-10,11.9c0.8,0.7,1.6,1.3,2.5,1.9L422.6,226.9
	C422.6,227,422.6,226.9,422.6,226.9z"/>
<path class="st6" d="M422.6,227h-0.5c0.1,0.1,0.2,0.1,0.3,0.2C422.5,227.2,422.5,227.1,422.6,227z"/>
<path class="st5" d="M473.2,155.6c-1.2,1.5-1.1,3.7,0.4,4.9l9.6-11.5c-0.9-0.7-1.8-1.5-2.8-2.2L473.2,155.6z"/>
<path class="st4" d="M473.7,160.6c1.5,1.2,3.7,1.1,4.9-0.4l7.3-8.7c-0.8-0.8-1.7-1.6-2.6-2.4L473.7,160.6z"/>
<path class="st4" d="M437.4,151.8l-5.3-10.2c-0.1-0.1-0.1-0.2-0.1-0.2c-1.1,0.5-2.2,0.9-3.2,1.5l7.1,13.7
	C437.6,155.6,438.3,153.5,437.4,151.8z"/>
<path class="st6" d="M431.1,155.1c0.9,1.7,3,2.4,4.7,1.5l-7.1-13.7c-1,0.5-2.1,1.1-3.1,1.7c0,0.1,0.1,0.2,0.1,0.3L431.1,155.1z"/>
<path class="st5" d="M472.4,219c-0.9-1.7-3-2.4-4.7-1.5l5,9.5h4L472.4,219z"/>
<path class="st4" d="M467.6,217.5c-1.7,0.9-2.4,3-1.4,4.7l2.5,4.8h4L467.6,217.5z"/>
<path class="st4" d="M416.5,201.2l-10.2,5.3c-0.1,0.1-0.3,0.1-0.4,0.2c0.5,1.1,0.9,2.1,1.5,3.2l13.9-7.2
	C420.4,201,418.2,200.3,416.5,201.2z"/>
<path class="st6" d="M419.7,207.5c1.7-0.9,2.4-3,1.5-4.7l-13.8,7.2c0.5,1,1.1,2,1.7,3c0.1-0.1,0.3-0.1,0.4-0.2L419.7,207.5z"/>
<path class="st5" d="M483.6,166.3c-1.7,0.9-2.4,3-1.5,4.7l13.2-6.9c-0.6-1.1-1.1-2.1-1.7-3.1L483.6,166.3z"/>
<path class="st4" d="M482.1,171c0.9,1.7,3,2.4,4.7,1.5l10-5.3c-0.5-1.1-1-2.2-1.5-3.2L482.1,171z"/>
<path class="st4" d="M416.7,172.1l-11-3.5c-0.1-0.1-0.2-0.1-0.3-0.1c-0.4,1.1-0.9,2.2-1.2,3.3l14.8,4.6
	C419.5,174.7,418.5,172.8,416.7,172.1z"/>
<path class="st6" d="M414.5,178.9c1.9,0.6,3.8-0.4,4.4-2.3l-14.8-4.6c-0.3,1.1-0.7,2.2-0.9,3.4c0.1,0.1,0.2,0.1,0.3,0.2L414.5,178.9
	z"/>
<path class="st5" d="M484.4,197.2l14.3,4.5c0.3-1.1,0.7-2.2,0.9-3.4l-10.9-3.5C487,194.3,485,195.3,484.4,197.2z"/>
<path class="st4" d="M486.7,201.6l10.9,3.5c0.4-1.1,0.8-2.2,1.1-3.3l-14.3-4.5C483.9,199.1,484.9,201,486.7,201.6z"/>
<path class="st4" d="M441.2,219.6c-1.9-0.6-3.9,0.4-4.5,2.2l-1.6,5.1h3.7L441.2,219.6z"/>
<path class="st6" d="M443.5,224c0.6-1.9-0.4-3.8-2.3-4.4l-2.4,7.4h3.7L443.5,224z"/>
<path class="st5" d="M459.6,149.6c-0.6,1.9,0.4,3.8,2.3,4.4l4.5-14.3c-1.1-0.3-2.2-0.7-3.4-0.9L459.6,149.6z"/>
<path class="st4" d="M461.9,154c1.9,0.6,3.8-0.4,4.4-2.3l3.4-10.8c-1.1-0.4-2.2-0.8-3.3-1.2L461.9,154z"/>
<g>
	<path id="XMLID_12_" class="st9" d="M448.4,192c0.6-0.2,4.6,0,5.1,0.4c1.8,1.1,4.2,1.4,5.1,0.2c0.9-1.2-0.4-3.3-2-4.6
		c-0.5-0.4-2.4-4-2.3-4.6c0.1-2-0.8-4.5-2.4-4.6c-1.6-0.1-2.8,2.2-3,4c-0.1,0.6-2.3,4-2.9,4.3c-1.8,1.1-3.3,3-2.7,4.3
		C444.2,192.8,446.7,192.7,448.4,192z"/>
	<path id="XMLID_11_" class="st9" d="M453.4,170.3c2.5-0.1,4,4.8,3.9,8.8c0,1.2,3.5,8.1,4.1,9.2c0.4,0.6,1.1,1.2,1.7,1.5
		c-2.4-4.9-2.8-9.1-2.5-10c1.2-4.6,0-10.5-2.5-11.6c-1.7-0.8-5.3-0.9-7.2,3C451.6,170.5,452.5,170.2,453.4,170.3z"/>
	<path id="XMLID_10_" class="st9" d="M435.5,193.5c-1.4-2.1,2.2-5.9,5.6-7.8c1.1-0.6,5.2-7.1,5.9-8.2c0.4-0.7,0.5-1.5,0.4-2.3
		c-3.2,4.5-6.4,7-7.4,7.2c-4.6,1.2-9.1,5.3-8.8,8c0.2,1.9,1.9,5,6.2,4.7C436.6,194.9,435.9,194.3,435.5,193.5z"/>
	<path id="XMLID_9_" class="st9" d="M464.7,197.8c-1.2,2.2-6.2,1.1-9.6-1c-1.1-0.6-8.8-1.1-10-1c-0.8,0-1.5,0.3-2.2,0.8
		c5.4,0.4,9.2,2,10,2.7c3.3,3.3,9.1,5.2,11.4,3.6c1.5-1.1,3.3-4.1,1-7.8C465.4,196.1,465.3,197,464.7,197.8z"/>
</g>
<path class="st10" d="M327.7,17.4c-3.2,0-9,4.9-9,10.8s5.8,10.8,9,10.8h121.8V17.4H327.7z"/>
<path class="st0" d="M580.3,28.2c0-5.9-5.8-10.8-9-10.8H449.5V39h121.8C574.5,39,580.3,34.1,580.3,28.2z"/>
<path class="st0" d="M449.5,27.3h-7.7c-5.8,0-10.5,2.9-10.5,6.5v193.8h18.2V27.3z"/>
<path class="st1" d="M467.7,33.8c0-3.6-4.7-6.5-10.5-6.5h-7.7v200.3h18.2V33.8z"/>
<path class="st5" d="M338.4,145.8c-27.3,2.4-47.4,26.5-45.1,53.7c0.9,10.5,5.1,19.9,11.3,27.5h40.9L338.4,145.8z"/>
<path class="st6" d="M392.2,190.9c-2.4-27.3-26.5-47.4-53.7-45.1l7.1,81.2h35.3C388.9,217.3,393.3,204.5,392.2,190.9z"/>
<path class="st2" d="M311.8,197.9c1.5,17.1,16.6,29.7,33.6,28.2l-5.4-61.8C323,165.8,310.3,180.9,311.8,197.9z"/>
<path class="st3" d="M373.7,192.5c-1.5-17.1-16.6-29.7-33.6-28.2l5.4,61.9C362.5,224.7,375.2,209.6,373.7,192.5z"/>
<path class="st7" d="M317.9,197.4c1.2,13.7,13.3,23.8,27,22.6l-4.3-49.6C326.9,171.7,316.8,183.7,317.9,197.4z"/>
<path class="st8" d="M367.5,193.1c-1.2-13.7-13.3-23.8-27-22.6l4.3,49.6C358.6,218.8,368.7,206.7,367.5,193.1z"/>
<path class="st4" d="M338.4,145.8l1.4,15.3c1.9-0.2,3.4-1.9,3.2-3.8l-1-11.4c0-0.1,0-0.2,0-0.2C340.7,145.7,339.5,145.7,338.4,145.8
	z"/>
<path class="st6" d="M335.3,146.2c0,0.1,0,0.2,0,0.3l1,11.4c0.2,1.8,1.7,3.2,3.5,3.2l-1.4-15.3C337.4,145.9,336.3,146,335.3,146.2z"
	/>
<path class="st4" d="M305.1,195l-11.4,1c-0.2,0-0.3,0-0.5,0.1c0.1,1.2,0.1,2.3,0.2,3.5l15.5-1.4C308.7,196.3,307,194.8,305.1,195z"
	/>
<path class="st6" d="M305.7,202c1.9-0.2,3.4-1.9,3.2-3.8l-15.5,1.4c0.1,1.2,0.2,2.4,0.4,3.5c0.2,0,0.3,0.1,0.5,0L305.7,202z"/>
<path class="st5" d="M380.5,188.4c-1.9,0.2-3.4,1.9-3.2,3.8l14.8-1.3l0,0c-0.1-1.2-0.2-2.4-0.4-3.5L380.5,188.4z"/>
<path class="st4" d="M381.1,195.4l11.2-1c-0.1-1.2-0.1-2.4-0.2-3.5l-14.8,1.3C377.4,194.1,379.2,195.5,381.1,195.4z"/>
<path class="st4" d="M316.3,168.2l-8.8-7.4c-0.1-0.1-0.2-0.1-0.3-0.2c-0.8,0.8-1.6,1.7-2.4,2.5l11.9,10
	C318,171.7,317.8,169.4,316.3,168.2z"/>
<path class="st6" d="M311.8,173.6c1.5,1.2,3.7,1.1,4.9-0.4l-11.9-10c-0.7,0.9-1.5,1.8-2.1,2.7c0.1,0.1,0.2,0.2,0.2,0.3L311.8,173.6z
	"/>
<path class="st5" d="M369.4,217.3l11.5,9.6c0.7-0.9,1.5-1.8,2.1-2.8l-8.7-7.3C372.9,215.6,370.6,215.8,369.4,217.3z"/>
<path class="st4" d="M380.8,226.9l-11.5-9.6c-1.2,1.5-1,3.8,0.5,5l5.7,4.8h5.2C380.8,226.9,380.8,226.9,380.8,226.9z"/>
<path class="st4" d="M320.9,221.4c-1.5-1.2-3.7-1.1-4.9,0.4l-4.3,5.1h4.6L320.9,221.4z"/>
<path class="st6" d="M321.4,226.3c1.2-1.5,1.1-3.7-0.4-4.9l-4.7,5.6h4.6L321.4,226.3z"/>
<path class="st5" d="M364.6,163.8c-1.2,1.5-1.1,3.7,0.4,4.9l9.6-11.5c-0.9-0.7-1.8-1.5-2.8-2.2L364.6,163.8z"/>
<path class="st4" d="M365,168.7c1.5,1.2,3.7,1.1,4.9-0.4l7.3-8.7c-0.8-0.8-1.7-1.6-2.6-2.4L365,168.7z"/>
<path class="st4" d="M328.7,160l-5.3-10.2c-0.1-0.1-0.1-0.2-0.1-0.2c-1.1,0.5-2.2,0.9-3.2,1.5l7.1,13.7
	C329,163.9,329.6,161.8,328.7,160z"/>
<path class="st6" d="M322.5,163.2c0.9,1.7,3,2.4,4.7,1.5l-7.1-13.7c-1,0.5-2.1,1.1-3.1,1.7c0,0.1,0.1,0.2,0.1,0.3L322.5,163.2z"/>
<path class="st5" d="M359,225.6l0.7,1.4h4C362.7,225.4,360.6,224.8,359,225.6z"/>
<path class="st4" d="M359,225.6c-0.6,0.3-1.1,0.8-1.4,1.4h2.1L359,225.6z"/>
<path class="st4" d="M307.8,209.4l-10.2,5.3c-0.1,0.1-0.3,0.1-0.4,0.2c0.5,1.1,0.9,2.1,1.5,3.2l13.9-7.2
	C311.7,209.2,309.5,208.5,307.8,209.4z"/>
<path class="st6" d="M311.1,215.6c1.7-0.9,2.4-3,1.5-4.7l-13.9,7.2c0.5,1,1.1,2,1.7,3c0.1-0.1,0.3-0.1,0.4-0.2L311.1,215.6z"/>
<path class="st5" d="M374.9,174.4c-1.7,0.9-2.4,3-1.5,4.7l13.2-6.9c-0.6-1.1-1.1-2.1-1.7-3.1L374.9,174.4z"/>
<path class="st4" d="M373.5,179.2c0.9,1.7,3,2.4,4.7,1.5l10-5.3c-0.5-1.1-1-2.2-1.5-3.2L373.5,179.2z"/>
<path class="st4" d="M308,180.3l-11-3.5c-0.1-0.1-0.2-0.1-0.3-0.1c-0.4,1.1-0.9,2.2-1.2,3.3l14.8,4.6
	C310.8,182.9,309.8,180.9,308,180.3z"/>
<path class="st6" d="M305.8,187.1c1.9,0.6,3.8-0.4,4.4-2.3l-14.8-4.6c-0.3,1.1-0.7,2.2-0.9,3.4c0.1,0.1,0.2,0.1,0.3,0.2L305.8,187.1
	z"/>
<path class="st5" d="M375.8,205.4l14.3,4.5c0.3-1.1,0.7-2.2,0.9-3.4l-10.9-3.5C378.3,202.5,376.4,203.5,375.8,205.4z"/>
<path class="st4" d="M378.1,209.7l10.9,3.5c0.4-1.1,0.8-2.2,1.1-3.3l-14.3-4.5C375.2,207.2,376.3,209.2,378.1,209.7z"/>
<path class="st5" d="M350.8,157.8c-0.6,1.9,0.4,3.8,2.3,4.4l4.5-14.3c-1.1-0.3-2.2-0.7-3.4-0.9L350.8,157.8z"/>
<path class="st4" d="M353.2,162.2c1.9,0.6,3.8-0.4,4.4-2.3l3.4-10.8c-1.1-0.4-2.2-0.8-3.3-1.2L353.2,162.2z"/>
<g>
	<path id="XMLID_8_" class="st9" d="M339.8,200.2c0.6-0.2,4.6,0,5.1,0.4c1.8,1.1,4.2,1.4,5.1,0.2c0.9-1.2-0.4-3.3-2-4.6
		c-0.5-0.4-2.4-4-2.3-4.6c0.1-2-0.8-4.5-2.4-4.6c-1.5-0.1-2.8,2.2-3,4c-0.1,0.6-2.3,4-2.9,4.3c-1.8,1.1-3.3,3-2.7,4.3
		C335.5,201,338,200.9,339.8,200.2z"/>
	<path id="XMLID_7_" class="st9" d="M344.7,178.5c2.5-0.1,4,4.8,3.9,8.8c0,1.2,3.5,8.1,4.1,9.2c0.4,0.6,1.1,1.2,1.7,1.5
		c-2.4-4.9-2.8-9.1-2.5-10c1.2-4.6,0-10.5-2.5-11.6c-1.7-0.8-5.3-0.9-7.2,3C342.9,178.7,343.8,178.5,344.7,178.5z"/>
	<path id="XMLID_6_" class="st9" d="M326.9,201.6c-1.4-2.1,2.2-5.9,5.6-7.8c1.1-0.6,5.2-7.1,5.9-8.2c0.4-0.7,0.5-1.5,0.4-2.3
		c-3.2,4.5-6.4,7-7.4,7.2c-4.6,1.2-9.1,5.3-8.8,8c0.2,1.9,1.9,5,6.2,4.7C328,203.1,327.3,202.5,326.9,201.6z"/>
	<path id="XMLID_5_" class="st9" d="M356,206c-1.2,2.2-6.2,1.1-9.6-1c-1.1-0.6-8.8-1.1-10-1c-0.8,0-1.5,0.3-2.2,0.8
		c5.4,0.4,9.2,2,10,2.7c3.3,3.3,9.1,5.2,11.4,3.6c1.5-1.1,3.3-4.1,1-7.8C356.7,204.2,356.6,205.2,356,206z"/>
</g>
<path class="st5" d="M544,189.1c-21.8,1.9-39.1,17.7-43.9,37.9h47.2L544,189.1z"/>
<path class="st6" d="M544,189.1l3.3,37.9h49.2C591,203.4,568.8,186.9,544,189.1z"/>
<path class="st2" d="M545.6,207.6c-12.1,1.1-21.9,8.9-26.1,19.4h27.8L545.6,207.6z"/>
<path class="st3" d="M545.6,207.6l1.7,19.4h29.9C572.2,214.6,559.6,206.3,545.6,207.6z"/>
<path class="st7" d="M546.1,213.6c-8.8,0.8-16.1,6.1-19.9,13.4h21L546.1,213.6z"/>
<path class="st8" d="M546.1,213.7l1.2,13.3h23.1C565.8,218.3,556.5,212.8,546.1,213.7z"/>
<path class="st4" d="M543.9,189.1l1.4,15.3c1.9-0.2,3.4-1.9,3.2-3.8l-1-11.4c0-0.1,0-0.2,0-0.2C546.3,189,545.1,189,543.9,189.1z"/>
<path class="st6" d="M540.8,189.4c0,0.1,0,0.2,0,0.3l1,11.4c0.2,1.8,1.7,3.2,3.5,3.2l-1.4-15.3C542.9,189.2,541.9,189.3,540.8,189.4
	z"/>
<path class="st4" d="M521.9,211.5l-8.8-7.4c-0.1-0.1-0.2-0.1-0.3-0.2c-0.8,0.8-1.6,1.7-2.4,2.5l11.9,10
	C523.6,214.9,523.4,212.7,521.9,211.5z"/>
<path class="st6" d="M517.4,216.8c1.5,1.2,3.7,1.1,4.9-0.4l-11.9-10c-0.7,0.9-1.5,1.8-2.1,2.7c0.1,0.1,0.2,0.2,0.2,0.3L517.4,216.8z
	"/>
<path class="st5" d="M570.1,207.1c-1.2,1.5-1.1,3.7,0.4,4.9l9.6-11.5c-0.9-0.7-1.8-1.5-2.8-2.2L570.1,207.1z"/>
<path class="st4" d="M570.6,212c1.5,1.2,3.7,1.1,4.9-0.4l7.3-8.7c-0.8-0.8-1.7-1.6-2.6-2.4L570.6,212z"/>
<path class="st4" d="M534.3,203.3l-5.3-10.2c-0.1-0.1-0.1-0.2-0.1-0.2c-1.1,0.5-2.2,0.9-3.2,1.5l7.1,13.7
	C534.5,207.1,535.2,205,534.3,203.3z"/>
<path class="st6" d="M528,206.5c0.9,1.7,3,2.4,4.7,1.5l-7.1-13.7c-1,0.5-2.1,1.1-3.1,1.7c0,0.1,0.1,0.2,0.1,0.3L528,206.5z"/>
<path class="st5" d="M580.5,217.7c-1.7,0.9-2.4,3-1.5,4.7l13.2-6.9c-0.6-1.1-1.1-2.1-1.7-3.1L580.5,217.7z"/>
<path class="st4" d="M579,222.4c0.9,1.7,3,2.4,4.7,1.5l10-5.3c-0.5-1.1-1-2.2-1.5-3.2L579,222.4z"/>
<path class="st4" d="M513.6,223.6l-11-3.5c-0.1-0.1-0.2-0.1-0.3-0.1c-0.4,1.1-0.9,2.2-1.2,3.3l11.6,3.6h3.3
	C516,225.5,515,224.1,513.6,223.6z"/>
<path class="st4" d="M516,227h-3.3l3.2,1C515.9,227.7,516,227.3,516,227z"/>
<path class="st6" d="M501.1,223.4c-0.3,1.1-0.7,2.2-0.9,3.4c0.1,0.1,0.2,0.1,0.3,0.2l0.4,0.1h11.8L501.1,223.4z"/>
<path class="st5" d="M556.4,201.1c-0.6,1.9,0.4,3.8,2.3,4.4l4.5-14.3c-1.1-0.3-2.2-0.7-3.4-0.9L556.4,201.1z"/>
<path class="st4" d="M558.8,205.5c1.9,0.6,3.8-0.4,4.4-2.3l3.4-10.8c-1.1-0.4-2.2-0.8-3.3-1.2L558.8,205.5z"/>
<path class="st9" d="M555.1,219.5c-1.7-0.8-5.3-0.9-7.2,3c0.7-0.6,1.6-0.9,2.5-0.9c1.7-0.1,3,2.4,3.6,5.3h4.1
	C558,223.5,556.8,220.3,555.1,219.5z"/>
<path class="st9" d="M544.4,226.7c-0.1,0.1-0.2,0.2-0.2,0.3h0.2C544.4,226.9,544.4,226.8,544.4,226.7z"/>
<line class="st11" x1="458.6" y1="42.1" x2="458.6" y2="92.7"/>
<path class="st1" d="M567.8,25.1H449.4v6.2h118.5c1.7,0,3.1-1.4,3.1-3.1C570.9,26.4,569.5,25.1,567.8,25.1z"/>
<path class="st0" d="M329.9,25.1c-1.7,0-3.1,1.4-3.1,3.1c0,1.7,1.4,3.1,3.1,3.1h119.4v-6.2H329.9z"/>
</svg>
