<?xml version="1.0" encoding="utf-8"?>
<!-- Generator: Adobe Illustrator 25.4.1, SVG Export Plug-In . SVG Version: 6.00 Build 0)  -->
<svg version="1.1" id="Layer_1" xmlns="http://www.w3.org/2000/svg" xmlns:xlink="http://www.w3.org/1999/xlink" x="0px" y="0px"
	 viewBox="206 -206 512 512" style="enable-background:new 206 -206 512 512;" xml:space="preserve">
<style type="text/css">
	.st0{fill:#0295AA;}
	.st1{fill:#4ACFD9;}
	.st2{fill:#9BAAAB;}
	.st3{fill:#CDD4D5;}
	.st4{fill:#FFD1A9;}
	.st5{fill:#F0353D;}
	.st6{fill:#BCD643;}
	.st7{fill:#FF8C29;}
	.st8{fill:#FD6A33;}
</style>
<path class="st0" d="M355.5-181.4c-2.8,2.8-4.5,6.7-4.5,10.9c0,8.5,7,15.5,15.5,15.5h83v28h-150c-6.6,0-12,5.4-12,12v330
	c0,6.6,5.4,12,12,12h150v11c-18.2,0-33,14.8-33,33c0,18.2,14.8,33,33,33v2h-114c-32.7,0-59.5-26.8-59.5-59.5v-393
	c0-32.7,26.8-59.5,59.5-59.5h114v20h-83C362.2-186,358.4-184.3,355.5-181.4z"/>
<path class="st1" d="M623-146.5v393c0,32.7-26.8,59.5-59.5,59.5h-114v-2c18.2,0,33-14.8,33-33c0-18.2-14.8-33-33-33v-11h150
	c6.6,0,12-5.4,12-12v-330c0-6.6-5.4-12-12-12h-150v-28h83c4.3,0,8.1-1.7,11-4.5s4.5-6.7,4.5-11c0-8.5-7-15.5-15.5-15.5h-83v-20h114
	C596.2-206,623-179.2,623-146.5z"/>
<path class="st2" d="M449.5-186v31h-83c-8.5,0-15.5-7-15.5-15.5c0-4.3,1.7-8.1,4.5-10.9c2.8-2.8,6.7-4.6,11-4.6H449.5z"/>
<path class="st3" d="M548-170.5c0,4.3-1.7,8.1-4.5,11s-6.7,4.5-11,4.5h-83v-31h83C541-186,548-179,548-170.5z"/>
<path class="st2" d="M449.5-127v354h-150c-6.6,0-12-5.4-12-12v-330c0-6.6,5.4-12,12-12H449.5z"/>
<path class="st3" d="M611.5-115v330c0,6.6-5.4,12-12,12h-150v-354h150C606.1-127,611.5-121.6,611.5-115z"/>
<path class="st2" d="M449.5,238v66c-18.2,0-33-14.8-33-33C416.5,252.8,431.3,238,449.5,238z"/>
<path class="st3" d="M482.5,271c0,18.2-14.8,33-33,33v-66C467.7,238,482.5,252.8,482.5,271z"/>
<polygon class="st5" points="610.5,27.4 610.5,188.2 493.3,188.2 534.5,153.4 554.9,150.6 566,133.2 573.3,124.2 580.6,91.9 
	590.6,76.2 593.7,54.4 603.9,36.9 "/>
<polygon class="st6" points="289.7,32.1 289.7,188.2 400.7,188.2 364.4,155.9 347.9,144.6 344.2,124.9 325.9,102.6 321.6,77.5 
	307.8,66.8 295.9,43.7 "/>
<g>
	<path class="st4" d="M530.1-86.1H368.9c-2.4,0-4.4,2-4.4,4.4v95.5l85.7-85.7l84.4,84.5v-94.3C534.5-84.1,532.5-86.1,530.1-86.1z"/>
	<path class="st4" d="M488,24.5v97.1h-75.5V24.5h-48.1v111.9c0,2.4,2,4.4,4.4,4.4h116.2c1.1,0,2.3-0.4,3.1-1.3l45.1-45.1
		c0.8-0.8,1.3-1.9,1.3-3.1V24.5H488z"/>
	<path class="st7" d="M449.5-86.1h-80.7c-2.4,0-4.4,2-4.4,4.4v95.6l85.1-85.1V-86.1z"/>
	<path class="st7" d="M412.5,24.5h-48.1v111.9c0,2.4,2,4.4,4.4,4.4h80.7v-19.3h-37V24.5z"/>
	<path class="st8" d="M485,95.9V141l0,0c1.1,0,2.3-0.4,3.1-1.3l45.1-45.1c0.8-0.8,1.3-1.9,1.3-3.1l0,0h-45.1
		C487,91.4,485,93.4,485,95.9z"/>
	<rect x="425" y="10.8" class="st6" width="50.3" height="98.3"/>
	<polygon class="st6" points="516.1,11.9 450.2,-54.2 384.1,11.9 	"/>
</g>
</svg>
