<?xml version="1.0" encoding="utf-8"?>
<!-- Generator: Adobe Illustrator 25.4.1, SVG Export Plug-In . SVG Version: 6.00 Build 0)  -->
<svg version="1.1" id="Layer_1" xmlns="http://www.w3.org/2000/svg" xmlns:xlink="http://www.w3.org/1999/xlink" x="0px" y="0px"
	 viewBox="206 -206 512 512" style="enable-background:new 206 -206 512 512;" xml:space="preserve">
<style type="text/css">
	.st0{fill:#0295AA;}
	.st1{fill:#4ACFD9;}
	.st2{fill:#9BAAAB;}
	.st3{fill:#CDD4D5;}
	.st4{fill:#FFD1A9;}
	.st5{fill:#E6EAEA;}
	.st6{fill:#FD6A33;}
	.st7{fill:#FF8C29;}
	.st8{fill:#FFFFFF;}
	.st9{fill:#F0353D;}
	.st10{fill:#BCD643;}
</style>
<path class="st0" d="M355.5-181.4c-2.8,2.8-4.5,6.7-4.5,10.9c0,8.5,7,15.5,15.5,15.5h83v28h-150c-6.6,0-12,5.4-12,12v330
	c0,6.6,5.4,12,12,12h150v11c-18.2,0-33,14.8-33,33c0,18.2,14.8,33,33,33v2h-114c-32.7,0-59.5-26.8-59.5-59.5v-393
	c0-32.7,26.8-59.5,59.5-59.5h114v20h-83C362.2-186,358.4-184.3,355.5-181.4z"/>
<path class="st1" d="M623-146.5v393c0,32.7-26.8,59.5-59.5,59.5h-114v-2c18.2,0,33-14.8,33-33c0-18.2-14.8-33-33-33v-11h150
	c6.6,0,12-5.4,12-12v-330c0-6.6-5.4-12-12-12h-150v-28h83c4.3,0,8.1-1.7,11-4.5s4.5-6.7,4.5-11c0-8.5-7-15.5-15.5-15.5h-83v-20h114
	C596.2-206,623-179.2,623-146.5z"/>
<path class="st2" d="M449.5-186v31h-83c-8.5,0-15.5-7-15.5-15.5c0-4.3,1.7-8.1,4.5-10.9c2.8-2.8,6.7-4.6,11-4.6H449.5z"/>
<path class="st3" d="M548-170.5c0,4.3-1.7,8.1-4.5,11s-6.7,4.5-11,4.5h-83v-31h83C541-186,548-179,548-170.5z"/>
<path class="st2" d="M449.5-127v354h-150c-6.6,0-12-5.4-12-12v-330c0-6.6,5.4-12,12-12H449.5z"/>
<path class="st3" d="M611.5-115v330c0,6.6-5.4,12-12,12h-150v-354h150C606.1-127,611.5-121.6,611.5-115z"/>
<path class="st2" d="M449.5,238v66c-18.2,0-33-14.8-33-33C416.5,252.8,431.3,238,449.5,238z"/>
<path class="st3" d="M482.5,271c0,18.2-14.8,33-33,33v-66C467.7,238,482.5,252.8,482.5,271z"/>
<path class="st4" d="M521.8-88.4"/>
<path class="st4" d="M526.1-52.4"/>
<path class="st4" d="M532.2,12.4c-36.4,0-66.1,29.6-66.1,66.1c0,35.6,61.3,107.3,63.9,110.3c0.5,0.6,1.3,1,2.1,1s1.6-0.3,2.1-1
	c2.6-3,63.9-74.7,63.9-110.3C598.2,42,568.6,12.4,532.2,12.4z"/>
<path class="st5" d="M532.2,27.4c-28.1,0-51,22.9-51,51s22.9,51,51,51s51-22.9,51-51S560.3,27.4,532.2,27.4z"/>
<path class="st6" d="M466.1,78.4c0,35.6,61.3,107.3,63.9,110.3c0.5,0.6,1.3,1,2.1,1V12.4C495.8,12.4,466.1,42,466.1,78.4z"/>
<path class="st3" d="M481.2,78.4c0,28.1,22.9,51,51,51v-102C504.1,27.4,481.2,50.3,481.2,78.4z"/>
<path class="st7" d="M566.9,61.1c0.2-1.2-0.5-2.5-1.8-3s-2.6,0-3.4,1.1L540.5,91c-0.6,0.9-0.7,1.9-0.2,2.9c0.5,0.9,1.5,1.5,2.6,1.5
	h16.6c1.5,0,2.6-1,2.8-2.5L566.9,61.1z"/>
<path class="st4" d="M544.2,92l-9-43.8c-0.2-1.3-1.5-2.2-2.7-2.2s-2.6,0.9-2.7,2.2l-9,43.8c-0.2,0.9,0.1,1.7,0.6,2.4
	c0.5,0.7,1.3,1,2.2,1h18.1c0.9,0,1.6-0.3,2.2-1C544.1,93.7,544.3,92.8,544.2,92z"/>
<g>
	<path class="st7" d="M529.2,51.3l-9.1,43.8c-0.2,0.9,0.1,1.7,0.6,2.4c0.5,0.7,1.3,1,2.2,1h9.1V49C530.6,49,529.4,49.9,529.2,51.3z"
		/>
	<path class="st7" d="M532,39.9c-5.8,0-10.4,4.7-10.4,10.4s4.7,10.4,10.4,10.4c5.7,0,10.4-4.8,10.4-10.5S537.6,39.9,532,39.9z"/>
</g>
<path class="st4" d="M562.3,106.1V89.5h-60v16.6c0,1.6,1.3,2.8,2.8,2.8h54.4C561.1,108.9,562.3,107.7,562.3,106.1z"/>
<g>
	<path class="st4" d="M564,50.5c-5.8,0-10.4,4.7-10.4,10.4s4.7,10.4,10.4,10.4c5.8,0,10.4-4.7,10.4-10.4
		C574.4,55.1,569.9,50.5,564,50.5z"/>
	<path class="st4" d="M524,91l-21.2-31.7c-0.8-1.1-2.1-1.6-3.4-1.1c-1.3,0.5-1.9,1.7-1.8,3.1l4.5,31.7c0.2,1.5,1.5,2.5,2.8,2.5h16.6
		c1,0,1.9-0.6,2.6-1.5C524.7,93,524.7,91.9,524,91z"/>
</g>
<path class="st7" d="M500.6,50.5c-5.8,0-10.4,4.7-10.4,10.4s4.7,10.4,10.4,10.4c5.7,0,10.4-4.7,10.4-10.4
	C511.1,55.1,506.4,50.5,500.6,50.5z"/>
<path class="st8" d="M555,106c-1.6,0-2.8-1.3-2.8-2.8v-7.6c0-1.6,1.3-2.8,2.8-2.8s2.8,1.3,2.8,2.8v7.6
	C557.8,104.6,556.6,106,555,106z"/>
<g>
	<path class="st1" d="M449.5-106.7c-27.5,0-50,22.4-50,50c0,26.9,46.4,81.1,48.3,83.4c0.4,0.5,1,0.8,1.6,0.8s1.2-0.3,1.6-0.8
		c2-2.3,48.3-56.5,48.3-83.4C499.5-84.3,477-106.7,449.5-106.7z"/>
	<path class="st5" d="M449.5-95.3c-21.3,0-38.6,17.3-38.6,38.6s17.3,38.6,38.6,38.6s38.6-17.3,38.6-38.6S470.8-95.3,449.5-95.3z"/>
	<path class="st0" d="M399.5-56.7c0,26.9,46.4,81.1,48.3,83.4c0.4,0.5,1,0.8,1.6,0.8v-134.1C422-106.7,399.5-84.3,399.5-56.7z"/>
	<path class="st3" d="M410.9-56.7c0,21.3,17.3,38.6,38.6,38.6v-77.2C428.2-95.3,410.9-78,410.9-56.7z"/>
	<path class="st6" d="M475.8-69.8c0.2-0.9-0.4-1.9-1.3-2.3c-0.9-0.3-2,0-2.6,0.9l-16,24c-0.5,0.6-0.5,1.5-0.2,2.2
		c0.4,0.6,1.1,1.1,1.9,1.1h12.6c1.1,0,1.9-0.8,2.1-1.9L475.8-69.8z"/>
	<path class="st7" d="M458.6-46.4l-6.8-33.1c-0.2-1-1.1-1.7-2-1.7s-1.9,0.7-2,1.7L441-46.4c-0.2,0.6,0.1,1.3,0.5,1.8s1,0.8,1.7,0.8
		h13.7c0.6,0,1.2-0.2,1.7-0.8C458.5-45.2,458.7-45.9,458.6-46.4z"/>
	<g>
		<path class="st6" d="M447.3-77.2l-6.9,33.1c-0.2,0.6,0.1,1.3,0.5,1.8c0.4,0.5,1,0.8,1.7,0.8h6.8v-37.4
			C448.3-79,447.4-78.3,447.3-77.2z"/>
		<path class="st6" d="M449.3-85.8c-4.4,0-7.8,3.5-7.8,7.8c0,4.3,3.5,7.8,7.8,7.8s7.8-3.6,7.8-7.9S453.6-85.8,449.3-85.8z"/>
	</g>
	<path class="st7" d="M472.3-35.8v-12.6H427v12.6c0,1.2,0.9,2.1,2.1,2.1h41.1C471.3-33.7,472.3-34.6,472.3-35.8z"/>
	<g>
		<path class="st7" d="M473.6-77.9c-4.4,0-7.8,3.5-7.8,7.8c0,4.3,3.5,7.8,7.8,7.8c4.4,0,7.8-3.5,7.8-7.8
			C481.4-74.4,478-77.9,473.6-77.9z"/>
		<path class="st7" d="M443.4-47.3l-16-24c-0.6-0.9-1.6-1.2-2.6-0.9c-0.9,0.3-1.5,1.3-1.3,2.3l3.4,24c0.2,1.1,1.1,1.9,2.1,1.9h12.6
			c0.8,0,1.5-0.5,1.9-1.1C443.9-45.7,443.9-46.6,443.4-47.3z"/>
	</g>
	<path class="st9" d="M425.7-77.9c-4.4,0-7.8,3.5-7.8,7.8c0,4.3,3.5,7.8,7.8,7.8s7.8-3.5,7.8-7.8C433.5-74.4,430-77.9,425.7-77.9z"
		/>
	<path class="st8" d="M466.8-35.9c-1.2,0-2.1-0.9-2.1-2.1v-5.8c0-1.2,0.9-2.1,2.1-2.1c1.2,0,2.1,0.9,2.1,2.1v5.8
		C468.9-36.9,468-35.9,466.8-35.9z"/>
</g>
<g>
	<path class="st1" d="M366.8,12.4c-36.4,0-66.1,29.6-66.1,66.1c0,35.6,61.3,107.3,63.9,110.3c0.5,0.6,1.3,1,2.1,1
		c0.8,0,1.6-0.3,2.1-1c2.6-3,63.9-74.7,63.9-110.3C432.9,42,403.2,12.4,366.8,12.4z"/>
	<path class="st5" d="M366.8,27.4c-28.1,0-51,22.9-51,51s22.9,51,51,51s51-22.9,51-51S394.9,27.4,366.8,27.4z"/>
	<path class="st0" d="M300.8,78.4c0,35.6,61.3,107.3,63.9,110.3c0.5,0.6,1.3,1,2.1,1V12.4C330.4,12.4,300.8,42,300.8,78.4z"/>
	<path class="st3" d="M315.8,78.4c0,28.1,22.9,51,51,51v-102C338.7,27.4,315.8,50.3,315.8,78.4z"/>
	<path class="st6" d="M401.5,61.1c0.2-1.2-0.5-2.5-1.8-3s-2.6,0-3.4,1.1L375.1,91c-0.6,0.9-0.7,1.9-0.2,2.9c0.5,0.9,1.5,1.5,2.6,1.5
		h16.6c1.5,0,2.6-1,2.8-2.5L401.5,61.1z"/>
	<path class="st7" d="M378.8,92l-9-43.8c-0.2-1.3-1.5-2.2-2.7-2.2c-1.3,0-2.6,0.9-2.7,2.2l-9,43.8c-0.2,0.9,0.1,1.7,0.6,2.4
		c0.5,0.7,1.3,1,2.2,1h18.1c0.9,0,1.6-0.3,2.2-1C378.8,93.7,379,92.8,378.8,92z"/>
	<g>
		<path class="st6" d="M363.9,51.3l-9.1,43.8c-0.2,0.9,0.1,1.7,0.6,2.4c0.5,0.7,1.3,1,2.2,1h9V49C365.2,49,364,49.9,363.9,51.3z"/>
		<path class="st6" d="M366.6,39.9c-5.8,0-10.4,4.7-10.4,10.4s4.8,10.4,10.4,10.4c5.7,0,10.4-4.8,10.4-10.5S372.3,39.9,366.6,39.9z"
			/>
	</g>
	<path class="st7" d="M397,106.1V89.5h-60v16.6c0,1.6,1.3,2.8,2.8,2.8h54.4C395.8,108.9,397,107.7,397,106.1z"/>
	<g>
		<path class="st7" d="M398.7,50.5c-5.8,0-10.4,4.7-10.4,10.4s4.7,10.4,10.4,10.4c5.8,0,10.4-4.7,10.4-10.4
			C409.1,55.1,404.5,50.5,398.7,50.5z"/>
		<path class="st7" d="M358.7,91l-21.2-31.7c-0.8-1.1-2.1-1.6-3.4-1.1c-1.3,0.5-1.9,1.7-1.8,3.1l4.5,31.7c0.2,1.5,1.5,2.5,2.8,2.5
			h16.6c1,0,1.9-0.6,2.6-1.5C359.4,93,359.4,91.9,358.7,91z"/>
	</g>
	<path class="st9" d="M335.3,50.5c-5.8,0-10.4,4.7-10.4,10.4s4.7,10.4,10.4,10.4s10.4-4.7,10.4-10.4C345.7,55.1,341,50.5,335.3,50.5
		z"/>
	<path class="st8" d="M389.7,106c-1.6,0-2.8-1.3-2.8-2.8v-7.6c0-1.6,1.3-2.8,2.8-2.8c1.6,0,2.8,1.3,2.8,2.8v7.6
		C392.5,104.6,391.2,106,389.7,106z"/>
</g>
<path class="st10" d="M343.3,6.5c0,0-2.3-24.9,6-46.2c11.6-29.8,38.3-33.9,38.3-33.9s-11.3,15.4-9.8,37.6
	c1.5,21.7,11.9,42.5,11.9,42.5s-9.5-3.5-23.2-3.5C354.2,3.1,343.3,6.5,343.3,6.5z"/>
<polygon class="st10" points="357.4,-79.4 388.7,-76.8 395.1,-46 "/>
</svg>
