<?xml version="1.0" encoding="utf-8"?>
<!-- Generator: Adobe Illustrator 25.4.1, SVG Export Plug-In . SVG Version: 6.00 Build 0)  -->
<svg version="1.1" id="Layer_1" xmlns="http://www.w3.org/2000/svg" xmlns:xlink="http://www.w3.org/1999/xlink" x="0px" y="0px"
	 viewBox="206 -206 512 512" style="enable-background:new 206 -206 512 512;" xml:space="preserve">
<style type="text/css">
	.st0{fill:#0295AA;}
	.st1{fill:#4ACFD9;}
	.st2{fill:#9BAAAB;}
	.st3{fill:#CDD4D5;}
	.st4{fill:#FFD1A9;}
	.st5{fill:#E6EAEA;}
	.st6{fill:#FD6A33;}
	.st7{fill:#FF8C29;}
	.st8{fill:#F0353D;}
	.st9{fill:#FFFFFF;}
	.st10{fill:#BCD643;}
</style>
<path class="st0" d="M355.5-181.4c-2.8,2.8-4.5,6.7-4.5,10.9c0,8.5,7,15.5,15.5,15.5h83v28h-150c-6.6,0-12,5.4-12,12v330
	c0,6.6,5.4,12,12,12h150v11c-18.2,0-33,14.8-33,33c0,18.2,14.8,33,33,33v2h-114c-32.7,0-59.5-26.8-59.5-59.5v-393
	c0-32.7,26.8-59.5,59.5-59.5h114v20h-83C362.2-186,358.4-184.3,355.5-181.4z"/>
<path class="st1" d="M623-146.5v393c0,32.7-26.8,59.5-59.5,59.5h-114v-2c18.2,0,33-14.8,33-33c0-18.2-14.8-33-33-33v-11h150
	c6.6,0,12-5.4,12-12v-330c0-6.6-5.4-12-12-12h-150v-28h83c4.3,0,8.1-1.7,11-4.5s4.5-6.7,4.5-11c0-8.5-7-15.5-15.5-15.5h-83v-20h114
	C596.2-206,623-179.2,623-146.5z"/>
<path class="st2" d="M449.5-186v31h-83c-8.5,0-15.5-7-15.5-15.5c0-4.3,1.7-8.1,4.5-10.9c2.8-2.8,6.7-4.6,11-4.6H449.5z"/>
<path class="st3" d="M548-170.5c0,4.3-1.7,8.1-4.5,11s-6.7,4.5-11,4.5h-83v-31h83C541-186,548-179,548-170.5z"/>
<path class="st2" d="M449.5-127v354h-150c-6.6,0-12-5.4-12-12v-330c0-6.6,5.4-12,12-12H449.5z"/>
<path class="st3" d="M611.5-115v330c0,6.6-5.4,12-12,12h-150v-354h150C606.1-127,611.5-121.6,611.5-115z"/>
<path class="st2" d="M449.5,238v66c-18.2,0-33-14.8-33-33C416.5,252.8,431.3,238,449.5,238z"/>
<path class="st3" d="M482.5,271c0,18.2-14.8,33-33,33v-66C467.7,238,482.5,252.8,482.5,271z"/>
<path class="st4" d="M521.8-88.4"/>
<path class="st4" d="M526.1-52.4"/>
<path class="st1" d="M449.5-5.7c3.8,0,7.4,0.6,10.7,1.8c3.5-9.3,5.5-17.9,5.5-25.3c0.1-47.5-38.7-86.3-86.3-86.3
	s-86.4,38.7-86.4,86.3c0,37.7,52.7,106.5,74.5,133.2c1.9-26,23.4-46.7,49.8-47.4V26.6C417.3,8.8,431.8-5.7,449.5-5.7z"/>
<path class="st1" d="M418.6,56.6c-0.4,0-0.9,0-1.3,0.1l0,0C417.8,56.6,418.2,56.6,418.6,56.6z"/>
<path class="st5" d="M441.6-4.7c3-7.5,4.6-15.7,4.6-24.3c0-36.8-30-66.7-66.7-66.7S312.7-65.8,312.7-29s29.9,66.7,66.7,66.7
	c14.1,0,27.1-4.4,37.9-11.8C417.6,11.2,427.9-1.2,441.6-4.7z"/>
<path class="st0" d="M379.5-115.4c-47.7,0-86.4,38.7-86.4,86.4c0,37.7,52.7,106.5,74.5,133.2c0.8-11.1,5.1-21.2,11.9-29.3
	L379.5-115.4L379.5-115.4z"/>
<path class="st3" d="M312.7-29c0,36.7,29.9,66.7,66.7,66.7V-95.7C342.7-95.7,312.7-65.8,312.7-29z"/>
<path class="st6" d="M424.4-46.3c0.3-1.6-0.7-3.2-2.3-3.9c-1.6-0.6-3.4,0-4.4,1.5L390.1-7.4c-0.8,1.1-0.9,2.5-0.3,3.8
	c0.7,1.1,1.9,1.9,3.3,1.9h21.7c1.9,0,3.3-1.3,3.7-3.2L424.4-46.3z"/>
<g>
	<path class="st7" d="M420.7-60.2c-7.5,0-13.5,6.1-13.5,13.5s6.1,13.5,13.5,13.5c7.5,0,13.5-6.1,13.5-13.5
		C434.2-54.2,428.3-60.2,420.7-60.2z"/>
	<path class="st7" d="M368.6-7.4L341-48.8c-1-1.5-2.8-2-4.4-1.5c-1.6,0.6-2.5,2.2-2.3,4l5.9,41.3c0.3,1.9,1.9,3.2,3.7,3.2h21.7
		c1.3,0,2.5-0.8,3.3-1.9C369.5-4.8,369.5-6.2,368.6-7.4z"/>
</g>
<path class="st8" d="M338.1-60.2c-7.5,0-13.5,6.1-13.5,13.5s6.1,13.5,13.5,13.5s13.5-6.1,13.5-13.5
	C351.7-54.2,345.6-60.2,338.1-60.2z"/>
<path class="st7" d="M394.9-6.1l-11.8-57.1c-0.3-1.8-1.9-2.9-3.5-2.9c-1.6,0-3.3,1.2-3.5,2.9L364.3-6.1C364-5,364.4-3.9,365-3
	c0.7,0.9,1.8,1.3,2.9,1.3h23.6c1.1,0,2.1-0.4,2.9-1.3C394.7-3.9,395.1-5,394.9-6.1z"/>
<g>
	<path class="st6" d="M375.9-63.2L364.1-6.1c-0.3,1.1,0.1,2.2,0.8,3.1c0.7,0.9,1.8,1.3,2.9,1.3h11.8v-64.4
		C377.7-66.2,376.1-65,375.9-63.2z"/>
	<path class="st6" d="M379.5-78c-7.5,0-13.5,6.1-13.5,13.5s6.1,13.5,13.5,13.5S393-57.1,393-64.6C393-72,386.8-78,379.5-78z"/>
</g>
<path class="st7" d="M418.5,12.3V-9.4h-78.2v21.7c0,2,1.6,3.7,3.7,3.7h70.9C416.9,15.9,418.5,14.3,418.5,12.3z"/>
<path class="st9" d="M409,12.1c-2,0-3.7-1.6-3.7-3.7v-9.9c0-2,1.6-3.7,3.7-3.7c2,0,3.7,1.6,3.7,3.7v9.9
	C412.6,10.4,411,12.1,409,12.1z"/>
<path class="st2" d="M480.3,69.2h-30.8V85h30.8c12.6,0,22.8,10.2,22.8,22.8v61.7c0,12.6-10.2,22.8-22.8,22.8h-30.8v15.8h30.8
	c21.4,0,38.6-17.3,38.6-38.6v-61.7C519,86.5,501.7,69.2,480.3,69.2z"/>
<path class="st3" d="M418.6,192.4c-12.6,0-22.8-10.2-22.8-22.8v-61.7c0-12.6,10.2-22.8,22.8-22.8h30.8V69.3h-30.8
	c-21.4,0-38.6,17.3-38.6,38.6v61.7c0,21.4,17.3,38.6,38.6,38.6h30.8v-15.8H418.6z"/>
<path class="st10" d="M435.6,148.7L435.6,148.7c-7.5-7.5-7.5-20.1,0-27.6L562.2-5.5c7.5-7.5,20.1-7.5,27.6,0l0,0
	c7.5,7.5,7.5,20.1,0,27.6L463.3,148.7C455.6,156.4,443.3,156.4,435.6,148.7z"/>
<path class="st10" d="M449.5,154.6L449.5,154.6c-10.7,0-19.6-8.8-19.6-19.6V26.6C430,15.9,438.7,7,449.5,7l0,0
	c10.7,0,19.6,8.8,19.6,19.6v108.8C469,145.8,460.2,154.6,449.5,154.6z"/>
</svg>
