<?xml version="1.0" encoding="utf-8"?>
<!-- Generator: Adobe Illustrator 25.4.1, SVG Export Plug-In . SVG Version: 6.00 Build 0)  -->
<svg version="1.1" id="Layer_1" xmlns="http://www.w3.org/2000/svg" xmlns:xlink="http://www.w3.org/1999/xlink" x="0px" y="0px"
	 viewBox="206 -206 512 512" style="enable-background:new 206 -206 512 512;" xml:space="preserve">
<style type="text/css">
	.st0{fill:#0295AA;}
	.st1{fill:#4ACFD9;}
	.st2{fill:#9BAAAB;}
	.st3{fill:#CDD4D5;}
	.st4{fill:#FFD1A9;}
	.st5{fill:#BCD643;}
</style>
<path class="st0" d="M355.5-181.4c-2.8,2.8-4.5,6.7-4.5,10.9c0,8.5,7,15.5,15.5,15.5h83v28h-150c-6.6,0-12,5.4-12,12v252.7L276,151
	v-297.5c0-32.7,26.8-59.5,59.5-59.5h114v20h-83C362.2-186,358.4-184.3,355.5-181.4z"/>
<path class="st0" d="M397.3,227h52.2v11c-18.2,0-33,14.8-33,33c0,18.2,14.8,33,33,33v2h-114c-32.7,0-59.5-26.8-59.5-59.5v-8.2
	l42.4,36.6c5.2,4.5,11.8,6.9,18.6,6.9c8.3,0,16.2-3.6,21.6-9.9L397.3,227z"/>
<path class="st1" d="M504.5-127h-55v-28h83c4.3,0,8.1-1.7,11-4.5s4.5-6.7,4.5-11c0-8.5-7-15.5-15.5-15.5h-83v-20h114
	c26.7,0,49.4,17.8,56.9,42c-1.8-0.4-3.7-0.6-5.6-0.6c-3.2,0-6.5,0.6-9.6,1.7L504.5-127z"/>
<path class="st1" d="M623-23.5v270c0,32.7-26.8,59.5-59.5,59.5h-114v-2c18.2,0,33-14.8,33-33c0-18.2-14.8-33-33-33v-11h150
	c6.6,0,12-5.4,12-12V39.1l8.9-48.4L623-23.5z"/>
<path class="st2" d="M449.5-186v31h-83c-8.5,0-15.5-7-15.5-15.5c0-4.3,1.7-8.1,4.5-10.9c2.8-2.8,6.7-4.6,11-4.6H449.5z"/>
<path class="st3" d="M548-170.5c0,4.3-1.7,8.1-4.5,11s-6.7,4.5-11,4.5h-83v-31h83C541-186,548-179,548-170.5z"/>
<path class="st2" d="M449.5-127v19.6l-77.3,27.5c-9.7,3.4-16.6,11.5-18.5,21.7c-1.8,10.1,1.7,20.1,9.6,26.8l40.3,34.3
	c0,0,0,0.1,0,0.1L287.5,137.7V-115c0-6.6,5.4-12,12-12H449.5z"/>
<polygon class="st2" points="397.3,227 449.5,166.4 449.5,227 "/>
<polygon class="st3" points="504.5,-127 449.5,-107.4 449.5,-127 "/>
<path class="st3" d="M611.5,39.1V215c0,6.6-5.4,12-12,12h-150v-60.6l61.8-71.7c0,0,0,0,0,0c0,0,0.1,0,0.1,0l40.1,34.2
	c5.2,4.4,11.7,6.8,18.4,6.8c13.8,0,25.6-9.8,28-23.3L611.5,39.1z"/>
<path class="st2" d="M449.5,238v66c-18.2,0-33-14.8-33-33C416.5,252.8,431.3,238,449.5,238z"/>
<path class="st3" d="M482.5,271c0,18.2-14.8,33-33,33v-66C467.7,238,482.5,252.8,482.5,271z"/>
<path class="st4" d="M521.8-88.4L521.8-88.4z"/>
<path class="st4" d="M526.1-52.4L526.1-52.4z"/>
<path class="st5" d="M413.1-9l-40.3-34.3c-8.4-7.1-5.9-20.6,4.5-24.3l116.5-41.5l116.5-41.5c10.4-3.7,20.8,5.2,18.8,16L606.8-12.9
	l-22.3,121.6c-2,10.8-14.9,15.4-23.3,8.3L521,82.8c-6-5.1-15-4.4-20.1,1.6L348.2,261.5c-5.2,6-14.2,6.6-20.1,1.5l-64-55.2
	c-6-5.2-6.6-14.2-1.5-20.1L414.7,11.2C419.9,5.2,419.2-3.9,413.1-9z"/>
</svg>
