<?xml version="1.0" encoding="utf-8"?>
<!-- Generator: Adobe Illustrator 25.4.1, SVG Export Plug-In . SVG Version: 6.00 Build 0)  -->
<svg version="1.1" id="Layer_1" xmlns="http://www.w3.org/2000/svg" xmlns:xlink="http://www.w3.org/1999/xlink" x="0px" y="0px"
	 viewBox="206 -206 512 512" style="enable-background:new 206 -206 512 512;" xml:space="preserve">
<style type="text/css">
	.st0{fill:#0295AA;}
	.st1{fill:#4ACFD9;}
	.st2{fill:#9BAAAB;}
	.st3{fill:#CDD4D5;}
	.st4{fill:#BCD643;}
	.st5{fill:#F0353D;}
	.st6{fill:#365558;}
	.st7{fill:none;}
	.st8{fill:#FFFFFF;}
</style>
<path class="st0" d="M275.1-66.2c3.2-6.1,6.9-12,10.8-17.5V98.8c-4-5.6-7.6-11.5-10.8-17.5V-66.2z"/>
<path class="st0" d="M438.4-148.3v26.4H324.3c18.9-13.3,40.9-22.4,64.6-26.4H438.4z"/>
<path class="st0" d="M438.4-196.3v18.8h-78.1c-4,0-7.6,1.6-10.4,4.3c-2.6,2.6-4.2,6.3-4.2,10.3c0,0.3,0,0.6,0,0.8
	c0,0.2,0,0.5,0.1,0.7c0,0.2,0.1,0.5,0.1,0.8c0.2,0.9,0.4,1.8,0.7,2.6c0.1,0.1,0.1,0.3,0.2,0.4c0,0.1,0.1,0.3,0.2,0.4
	c0.1,0.3,0.2,0.5,0.4,0.8c0.1,0.2,0.2,0.4,0.3,0.6c0.1,0.2,0.2,0.3,0.3,0.5c0.1,0.3,0.3,0.5,0.5,0.8c0,0.1,0.1,0.2,0.2,0.2
	c0.2,0.3,0.4,0.6,0.6,0.8c0.2,0.2,0.4,0.4,0.5,0.7c0.4,0.4,0.8,0.8,1.1,1.1c0.2,0.2,0.4,0.4,0.7,0.5c-17.8,7.2-34.2,17.2-48.4,29.6
	h-5.7c-6.2,0-11.3,5.1-11.3,11.3v5.5c-3.9,4.4-7.4,8.9-10.8,13.7v-48.9c0-30.8,25.2-56,56-56L438.4-196.3L438.4-196.3z"/>
<path class="st0" d="M297.2,211.3h141.2v10.4c-17.1,0-17.1,58.1,0,58.1v5.9H331.1c-30.8,0-56-25.2-56-56V106
	c3.4,4.8,7,9.3,10.8,13.7V200C285.9,206.2,291,211.3,297.2,211.3z"/>
<path class="st1" d="M440.5-148.3c23.7,4,45.7,13.1,64.6,26.4h-66.7v-26.4H440.5z"/>
<path class="st1" d="M601.7-140.3v258c-3.1-2.7-6.9-4.5-10.8-5.4v-222.9c0-6.2-5.1-11.3-11.3-11.3h-53c-12.2-10.6-26-19.5-41-26.4
	h30.9c4,0,7.6-1.6,10.4-4.2c2.7-2.6,4.2-6.3,4.2-10.4c0-8-6.6-14.6-14.6-14.6h-78.1v-18.8h107.3
	C576.5-196.3,601.7-171.1,601.7-140.3z"/>
<path class="st1" d="M543.4,211.3l49.1,49.1c-10.1,15.2-27.3,25.2-46.7,25.2H438.4v-5.9c17.1,0,17.1-58.1,0-58.1v-10.4L543.4,211.3
	L543.4,211.3z"/>
<path class="st1" d="M601.7,136.4v93.3c0,6.3-1,12.4-3,18.2c0,0.1-0.1,0.2-0.1,0.3l-36.8-36.8h17.8c6.2,0,11.3-5.1,11.3-11.3v-73.7
	c1,0.5,2,1.2,2.8,2.1L601.7,136.4z"/>
<path class="st2" d="M438.4-177.5v15.4c-7.7-1.1-15.7-1.7-23.7-1.7c-22.4,0-43.9,4.3-63.5,12.2c-0.2-0.2-0.4-0.4-0.7-0.5
	c-0.4-0.4-0.8-0.8-1.1-1.1c-0.2-0.2-0.4-0.4-0.5-0.7c-0.2-0.3-0.4-0.6-0.6-0.8c-0.1-0.1-0.1-0.2-0.2-0.2c-0.2-0.2-0.3-0.5-0.5-0.8
	c-0.1-0.2-0.2-0.3-0.3-0.5c-0.1-0.2-0.2-0.4-0.3-0.6c-0.1-0.3-0.2-0.5-0.4-0.8c0-0.1-0.1-0.3-0.2-0.4c-0.1-0.1-0.1-0.3-0.2-0.4
	c-0.3-0.8-0.6-1.8-0.7-2.6c0-0.2-0.1-0.5-0.1-0.8c0-0.2-0.1-0.5-0.1-0.7c0-0.3,0-0.6,0-0.8c0-4,1.6-7.6,4.2-10.3
	c2.6-2.6,6.3-4.3,10.4-4.3C360.1-177.5,438.4-177.5,438.4-177.5z"/>
<path class="st2" d="M414.7-150.4c8.1,0,16,0.6,23.7,1.8v0.3h-49.5C397.3-149.6,405.9-150.4,414.7-150.4z"/>
<path class="st3" d="M438.4-148.6c0.7,0.1,1.4,0.2,2.1,0.3h-2.1V-148.6z"/>
<path class="st3" d="M531.1-162.9c0,4-1.6,7.6-4.2,10.4c-2.6,2.7-6.3,4.2-10.4,4.2h-30.9c-14.8-6.8-30.6-11.5-47.3-13.7v-15.4h78.1
	C524.6-177.5,531.1-170.9,531.1-162.9z"/>
<path class="st2" d="M438.4-100.5v214.1c-7.8,1.8-15.9,2.7-24.2,2.7c-60.5,0-109.8-49.2-109.8-109.8c0-59.6,47.7-108.3,106.9-109.7
	c0.9,0,1.9,0,2.8,0C422.5-103.1,430.6-102.2,438.4-100.5z"/>
<path class="st2" d="M285.9-105.1v-5.5c0-6.2,5.1-11.3,11.3-11.3h5.6C296.7-116.7,291.1-111.1,285.9-105.1z"/>
<path class="st2" d="M438.4-122v8c-7.9-1.6-16-2.4-24.4-2.4c-31.9,0-60.9,12.1-82.8,32c-0.8,0.7-1.4,1.3-2.1,2c-1.4,1.3-2.7,2.6-4,4
	c-0.7,0.7-1.3,1.4-2,2.1c-19.9,21.8-32,50.9-32,82.8c0,68,55.1,123.1,123.1,123.1c8.3,0,16.4-0.8,24.2-2.4v36.1
	c-7.8,1.2-15.8,1.8-23.9,1.8c-53.1,0-100-26.3-128.6-66.4V-83.8c3.9-5.5,8.1-10.6,12.7-15.6c0.7-0.8,1.3-1.4,2-2.1
	c1.7-1.8,3.4-3.5,5.2-5.2c0.8-0.7,1.5-1.4,2.2-2.1c0.7-0.6,1.3-1.2,2-1.8c4.6-4,9.4-7.9,14.4-11.4L438.4-122L438.4-122z"/>
<path class="st2" d="M414.7,178.4c8,0,15.9-0.6,23.7-1.7v34.6H297.2c-6.2,0-11.3-5.1-11.3-11.3v-80.3
	C317.2,155.7,363.4,178.4,414.7,178.4z"/>
<path class="st3" d="M590.9-110.7v222.9c-1.7-0.4-3.4-0.6-5.2-0.6c-6.6,0-12.8,2.5-17.4,7.2l-1.2,1.2l-13.3-13.5
	c20.6-28.9,31.9-63.7,31.9-99.4c0-51.6-22.9-97.8-59.1-129.3h53C585.8-122,590.9-116.9,590.9-110.7z"/>
<path class="st3" d="M524,6.6c0,52.2-36.6,96-85.6,107v-214.2c25.2,5.7,47.3,20.1,62.6,39.9C515.4-41.9,524-18.7,524,6.6z"/>
<path class="st3" d="M543.4,211.3h-105v-34.6c27.7-3.9,54-14.5,76.7-31l13.1,13.3l-1.1,1.1c-4.6,4.6-7.2,10.8-7.2,17.4
	s2.5,12.8,7.2,17.4L543.4,211.3z"/>
<path class="st3" d="M590.9,126.3V200c0,6.2-5.1,11.3-11.3,11.3h-17.8l-25.5-25.5c-4.3-4.3-4.4-11.3-0.2-15.7
	c0.1-0.1,0.2-0.2,0.3-0.3l0.1-0.1l10.4-10.4l-30.7-31.3c-21.7,18.3-48.4,30.9-77.7,35.3v-36.1c20.5-4,39.2-13.3,54.6-26.2
	c0.5-0.4,1-0.8,1.5-1.2c0.5-0.5,1-0.8,1.5-1.3c0.5-0.5,1-0.9,1.5-1.4c0.6-0.5,1-0.9,1.6-1.5c1.4-1.3,2.7-2.6,4-4
	c21.1-22.1,34-52,34-84.9c0-59.6-42.4-109.4-98.7-120.7v-8h66.7c40.7,28.5,67.3,75.8,67.3,129.3c0,38.2-13.6,73.2-36.2,100.5
	l30.8,31.3l10.6-10.5l0.2-0.2C581.3,124.8,586.7,124.1,590.9,126.3z"/>
<path class="st2" d="M438.4,217.7v62.1c-17.1,0-31.1-13.9-31.1-31.1S421.3,217.7,438.4,217.7z"/>
<path class="st3" d="M469.5,248.7c0,17.1-13.9,31.1-31.1,31.1v-62.1C455.5,217.7,469.5,231.6,469.5,248.7z"/>
<path class="st4" d="M363.7,169.6l-11.9,13.8c-4.8,5.6-13.3,6.3-19,1.4l-60.3-51.9c-5.6-4.8-6.3-13.3-1.4-19l5.5-6.3
	C298.5,137.3,329.2,158.9,363.7,169.6z"/>
<path class="st4" d="M523.7,6c0,5.4-0.4,10.8-1.2,16.1l-8-6.8c-5.6-4.8-14.1-4.1-18.9,1.5l-85.3,99c-39.6-1.3-73.9-23.7-92.1-56.2
	l96.2-111.6c4.9-5.6,4.2-14.2-1.5-19l-32.2-27.4c10.7-3.4,21.9-5.1,33.3-5.1c7.4,0,14.5,0.7,21.8,2.2C486.7-91.4,523.7-46.2,523.7,6
	z"/>
<path class="st4" d="M616.3-189.4l-21,114.5L584-13.7c-5.4-48-31.3-91.9-71.8-120.2c-14.4-10.1-30.5-17.9-47.3-23.1l24-8.5l109.6-39
	C608.3-208,618.2-199.6,616.3-189.4z"/>
<path class="st5" d="M523.6,105.7l-7,2.4l0.5-0.5c0.6-0.6,1-1.1,1.6-1.6l0.5-0.6c0.6-0.6,1-1.1,1.6-1.7l0.2-0.2l0.3-0.4l0.2-0.1
	l0.8-0.9l0,0l1.1-1.3c0.1-0.1,0.4-0.5,0.4-0.5c0.6-0.7,1-1.2,1.6-1.9C527.6,100.8,526.7,104.5,523.6,105.7z"/>
<g>
	<path class="st6" d="M504.6-122c-19.1-13.4-41.4-22.6-65.4-26.4c-0.3,0-0.5-0.1-0.8-0.1c-7.8-1.2-15.8-1.8-23.9-1.8
		c-8.4,0-16.7,0.7-24.7,1.9c-24.1,3.8-46.3,13-65.4,26.4c-5.1,3.5-9.9,7.3-14.5,11.4c-0.7,0.6-1.3,1.1-2,1.8
		c-0.8,0.7-1.5,1.4-2.2,2.1c-1.8,1.7-3.5,3.4-5.2,5.2c-0.7,0.7-1.3,1.4-2,2.1c-4.5,4.9-8.8,10.2-12.7,15.6
		c-4,5.6-7.6,11.5-10.8,17.5c-11.7,22-18.3,47.1-18.3,73.7s6.6,51.8,18.3,73.7c3.2,6.1,6.9,12,10.8,17.5
		c28.6,40.2,75.5,66.4,128.6,66.4c8.1,0,16.1-0.7,23.9-1.8c29.4-4.4,56-17,77.7-35.3c0.1-0.1,0.1-0.1,0.2-0.2
		c0.2-0.2,0.4-0.3,0.6-0.5c0.1-0.1,0.3-0.2,0.4-0.4c0.2-0.2,0.4-0.3,0.6-0.5c0.1-0.1,0.3-0.2,0.4-0.3c0.1-0.1,0.2-0.2,0.3-0.3
		c0.2-0.1,0.3-0.2,0.4-0.4c0.4-0.4,0.8-0.8,1.2-1.1c0,0,0,0,0.1-0.1c0.4-0.4,0.8-0.7,1.1-1c0.1-0.1,0.1-0.1,0.2-0.2
		c0.1,0,0.1-0.1,0.2-0.2c0.1-0.1,0.1-0.1,0.2-0.2c0.1,0,0.1-0.1,0.1-0.1l0,0l0.1-0.1c0.1-0.1,0.2-0.2,0.3-0.3
		c0.1-0.1,0.1-0.1,0.2-0.2c0.5-0.5,0.9-0.9,1.4-1.4c0.1-0.1,0.1-0.1,0.2-0.2c0.8-0.8,1.4-1.4,2.2-2.2l0.2-0.2
		c0.6-0.6,1.2-1.2,1.8-1.8c0.2-0.2,0.4-0.4,0.5-0.6c0.5-0.5,0.8-0.9,1.3-1.3c0.2-0.2,0.3-0.3,0.4-0.5c0,0,0.1-0.1,0.1-0.2
		c0.1-0.1,0.3-0.3,0.4-0.4c0.1-0.1,0.2-0.2,0.2-0.3c0.1-0.1,0.1-0.1,0.2-0.2l0,0l0.1-0.2c0.1-0.1,0.2-0.2,0.3-0.3
		c0.2-0.2,0.4-0.4,0.6-0.7c0.1-0.1,0.2-0.2,0.3-0.3l0.1-0.1c0.1-0.1,0.2-0.2,0.2-0.3l0.1-0.1c0.3-0.3,0.6-0.6,0.8-0.8
		c0.7-0.8,1.3-1.6,2-2.4c22.6-27.3,36.2-62.3,36.2-100.5C572.2-46.1,545.5-93.4,504.6-122z M323.2-76.2c0.7-0.8,1.3-1.4,2-2.1
		c1.3-1.4,2.6-2.7,4-4c0.7-0.7,1.4-1.3,2.1-2c21.8-19.9,50.9-32,82.8-32c8.4,0,16.5,0.8,24.4,2.4c56.3,11.3,98.7,61,98.7,120.7
		c0,32.9-12.9,62.8-34,84.9c-1.3,1.3-2.6,2.7-4,4c-0.5,0.5-1,0.9-1.6,1.5c-0.5,0.5-1,0.9-1.5,1.4c-0.5,0.5-1,0.8-1.5,1.3
		c-0.5,0.5-0.9,0.8-1.5,1.2c-15.4,13-34.1,22.2-54.6,26.3c-7.9,1.6-16,2.4-24.4,2.4c-68,0-123.1-55.1-123.1-123.1
		C290.9-25.2,303.1-54.4,323.2-76.2z"/>
	<g>
		<line class="st7" x1="569" y1="161.7" x2="526.5" y2="118.5"/>
		<path class="st2" d="M579.1,151.8l-9.9,9.7l-0.2,0.2l-9.9,9.7l-0.2,0.2l-12.1-12.3l0,0L516.1,128c0.1-0.1,0.1-0.1,0.2-0.2
			c0.2-0.2,0.4-0.3,0.6-0.5c0.1-0.1,0.3-0.2,0.4-0.4c0.1-0.1,0.2-0.2,0.3-0.3c0.1-0.1,0.2-0.2,0.3-0.2c0.1-0.1,0.3-0.2,0.4-0.3
			c0.1-0.1,0.2-0.2,0.3-0.3c0.2-0.1,0.3-0.2,0.4-0.4c0.4-0.4,0.8-0.8,1.2-1.1c0,0,0,0,0.1-0.1c0.4-0.4,0.8-0.7,1.1-1
			c0.1-0.1,0.2-0.2,0.4-0.3c0.1-0.1,0.1-0.1,0.2-0.2c0.1,0,0.1-0.1,0.1-0.1l0,0l0.1-0.1c0.1-0.1,0.2-0.2,0.3-0.3
			c0.1-0.1,0.1-0.1,0.2-0.2c0.5-0.5,0.9-0.9,1.4-1.4c0.1-0.1,0.1-0.1,0.2-0.2c0.8-0.8,1.4-1.4,2.2-2.2l0.2-0.2
			c0.6-0.6,1.2-1.2,1.8-1.8c0.2-0.2,0.4-0.4,0.5-0.6c0.7-0.7,1.2-1.3,1.8-2c0.1-0.1,0.3-0.3,0.4-0.4c0.1-0.1,0.2-0.2,0.2-0.3
			c0.1-0.1,0.2-0.3,0.4-0.4c0.3-0.3,0.6-0.7,0.8-0.9c0.1-0.2,0.3-0.3,0.4-0.4c0.1-0.1,0.2-0.2,0.2-0.3l0.1-0.1
			c0.2-0.2,0.3-0.4,0.5-0.6c0.1-0.1,0.2-0.2,0.3-0.4c0.7-0.8,1.3-1.6,2-2.4l0,0l30.8,31.3l0,0L579.1,151.8z"/>
	</g>
	<path class="st1" d="M709.4,260.4l-41.2,41.2c-4.4,4.4-11.6,4.4-16,0L536.3,185.8c-4.3-4.3-4.4-11.3-0.2-15.7
		c0.1-0.1,0.2-0.2,0.3-0.3l10.6-10.6l9.8-9.8l20.8-20.8c3.6-3.6,9-4.2,13.4-2c0.9,0.5,1.9,1.1,2.6,2l115.9,115.9
		C713.9,248.9,713.9,256,709.4,260.4z"/>
	<g>
		<line class="st7" x1="598.7" y1="172.5" x2="661.7" y2="234.7"/>
		<path class="st8" d="M661.7,246.5c-3,0-5.9-1.1-8.3-3.4l-63-62.2c-4.6-4.6-4.7-12.1-0.1-16.7c4.5-4.6,12.1-4.7,16.7-0.1l63,62.2
			c4.6,4.6,4.7,12.1,0.1,16.7C667.7,245.4,664.7,246.5,661.7,246.5z"/>
	</g>
	<g>
		<path class="st8" d="M428.7-85c4.5-0.2,15.5,0,27.2,6.6c12,6.9,17.8,16.6,19.9,20.6L428.7-85z"/>
		<path class="st8" d="M475.8-45.9c-4.2,0-8.4-2.3-10.4-6.3c-2-3.8-6.6-10.9-15.3-15.8c-8.5-4.8-16.8-5.3-20.9-5.1
			c-6.5,0.3-12-4.8-12.2-11.3c-0.3-6.5,4.8-12,11.3-12.2c8.2-0.4,20.6,0.8,33.5,8.2c13.2,7.5,20.6,18,24.5,25.4
			c3,5.7,0.8,12.9-5,15.9C479.6-46.4,477.7-45.9,475.8-45.9z"/>
	</g>
</g>
</svg>
