<?xml version="1.0" encoding="utf-8"?>
<!-- Generator: Adobe Illustrator 25.4.1, SVG Export Plug-In . SVG Version: 6.00 Build 0)  -->
<svg version="1.1" id="Layer_1" xmlns="http://www.w3.org/2000/svg" xmlns:xlink="http://www.w3.org/1999/xlink" x="0px" y="0px"
	 viewBox="206 -206 512 512" style="enable-background:new 206 -206 512 512;" xml:space="preserve">
<style type="text/css">
	.st0{fill:#0295AA;}
	.st1{fill:#4ACFD9;}
	.st2{fill:#9BAAAB;}
	.st3{fill:#CDD4D5;}
	.st4{fill:#FFD1A9;}
	.st5{fill:#E6EAEA;}
	.st6{fill:#FD6A33;}
	.st7{fill:#FF8C29;}
	.st8{fill:#F0353D;}
	.st9{fill:#FFFFFF;}
</style>
<path class="st0" d="M355.5-181.4c-2.8,2.8-4.5,6.7-4.5,10.9c0,8.5,7,15.5,15.5,15.5h83v28h-150c-6.6,0-12,5.4-12,12v330
	c0,6.6,5.4,12,12,12h150v11c-18.2,0-33,14.8-33,33c0,18.2,14.8,33,33,33v2h-114c-32.7,0-59.5-26.8-59.5-59.5v-393
	c0-32.7,26.8-59.5,59.5-59.5h114v20h-83C362.2-186,358.4-184.3,355.5-181.4z"/>
<path class="st1" d="M623-146.5v393c0,32.7-26.8,59.5-59.5,59.5h-114v-2c18.2,0,33-14.8,33-33c0-18.2-14.8-33-33-33v-11h150
	c6.6,0,12-5.4,12-12v-330c0-6.6-5.4-12-12-12h-150v-28h83c4.3,0,8.1-1.7,11-4.5s4.5-6.7,4.5-11c0-8.5-7-15.5-15.5-15.5h-83v-20h114
	C596.2-206,623-179.2,623-146.5z"/>
<path class="st2" d="M449.5-186v31h-83c-8.5,0-15.5-7-15.5-15.5c0-4.3,1.7-8.1,4.5-10.9c2.8-2.8,6.7-4.6,11-4.6H449.5z"/>
<path class="st3" d="M548-170.5c0,4.3-1.7,8.1-4.5,11s-6.7,4.5-11,4.5h-83v-31h83C541-186,548-179,548-170.5z"/>
<path class="st2" d="M449.5-127v354h-150c-6.6,0-12-5.4-12-12v-330c0-6.6,5.4-12,12-12H449.5z"/>
<path class="st3" d="M611.5-115v330c0,6.6-5.4,12-12,12h-150v-354h150C606.1-127,611.5-121.6,611.5-115z"/>
<path class="st2" d="M449.5,238v66c-18.2,0-33-14.8-33-33C416.5,252.8,431.3,238,449.5,238z"/>
<path class="st3" d="M482.5,271c0,18.2-14.8,33-33,33v-66C467.7,238,482.5,252.8,482.5,271z"/>
<path class="st4" d="M521.8-88.4"/>
<path class="st4" d="M526.1-52.4"/>
<path class="st1" d="M449.5-113.1c-67,0-121.6,54.5-121.6,121.6c0,65.4,112.8,197.3,117.6,202.9c1,1.1,2.4,1.8,3.9,1.8
	s3-0.7,3.9-1.8c4.8-5.6,117.6-137.4,117.6-202.9C571.1-58.6,516.5-113.1,449.5-113.1z"/>
<path class="st5" d="M449.5-85.4c-51.7,0-93.8,42.1-93.8,93.8s42.1,93.8,93.8,93.8s93.8-42.1,93.8-93.8S501.2-85.4,449.5-85.4z"/>
<path class="st0" d="M327.9,8.4c0,65.4,112.8,197.3,117.6,202.9c1,1.1,2.4,1.8,3.9,1.8v-326.2C382.5-113.1,327.9-58.6,327.9,8.4z"/>
<path class="st3" d="M355.7,8.4c0,51.7,42.1,93.8,93.8,93.8V-85.4C397.8-85.4,355.7-43.3,355.7,8.4z"/>
<path class="st6" d="M509.5-21.3c-2.3-0.9-4.8,0-6.2,2l-38.8,58.2c-1.1,1.6-1.2,3.6-0.3,5.3c0.9,1.7,2.7,2.7,4.6,2.7h30.5
	c2.6,0,4.8-1.9,5.1-4.5l8.3-58.2C513.2-18.2,511.8-20.5,509.5-21.3z"/>
<g>
	<path class="st7" d="M507.7-35.5c-10.5,0-19,8.5-19,19s8.5,19,19,19s19-8.5,19-19S518.2-35.5,507.7-35.5z"/>
	<path class="st7" d="M434.4,38.8l-38.8-58.2c-1.3-2-3.9-2.8-6.2-2c-2.3,0.9-3.6,3.2-3.3,5.6l8.3,58.2c0.4,2.6,2.6,4.5,5.1,4.5h30.5
		c1.9,0,3.7-1.1,4.6-2.7C435.6,42.5,435.5,40.4,434.4,38.8z"/>
</g>
<path class="st8" d="M391.3-35.5c-10.5,0-19,8.5-19,19s8.5,19,19,19s19-8.5,19-19S401.8-35.5,391.3-35.5z"/>
<path class="st7" d="M471.2,40.6l-16.6-80.3c-0.5-2.4-2.6-4.1-5.1-4.1c-2.5,0-4.6,1.7-5.1,4.1l-16.6,80.3c-0.3,1.5,0.1,3.1,1.1,4.3
	c1,1.2,2.5,1.9,4,1.9h33.2c1.6,0,3-0.7,4-1.9C471.1,43.8,471.5,42.2,471.2,40.6z"/>
<g>
	<path class="st6" d="M444.4-39.7l-16.6,80.3c-0.3,1.5,0.1,3.1,1.1,4.3c1,1.2,2.5,1.9,4,1.9h16.6v-90.7
		C447-43.8,444.9-42.1,444.4-39.7z"/>
	<path class="st6" d="M449.5-60.5c-10.5,0-19,8.5-19,19s8.5,19,19,19s19-8.5,19-19S460-60.5,449.5-60.5z"/>
</g>
<path class="st8" d="M430.5-41.4c0,10.5,8.5,19,19,19v-38.1C439-60.5,430.5-51.9,430.5-41.4z"/>
<path class="st7" d="M394.4,66.6c0,2.9,2.3,5.2,5.2,5.2h99.7c2.9,0,5.2-2.3,5.2-5.2V36.1H394.4V66.6z"/>
<path class="st6" d="M394.4,36.1v30.5c0,2.9,2.3,5.2,5.2,5.2h49.9V36.1H394.4z"/>
<path class="st9" d="M491.1,66.3c-2.9,0-5.2-2.3-5.2-5.2V47.2c0-2.9,2.3-5.2,5.2-5.2s5.2,2.3,5.2,5.2v13.9
	C496.3,64,493.9,66.3,491.1,66.3z"/>
</svg>
