<?xml version="1.0" encoding="utf-8"?>
<!-- Generator: Adobe Illustrator 25.4.1, SVG Export Plug-In . SVG Version: 6.00 Build 0)  -->
<svg version="1.1" id="Layer_1" xmlns="http://www.w3.org/2000/svg" xmlns:xlink="http://www.w3.org/1999/xlink" x="0px" y="0px"
	 viewBox="206 -206 512 512" style="enable-background:new 206 -206 512 512;" xml:space="preserve">
<style type="text/css">
	.st0{fill:#0295AA;}
	.st1{fill:#4ACFD9;}
	.st2{fill:#9BAAAB;}
	.st3{fill:#CDD4D5;}
	.st4{fill:#FFD1A9;}
	.st5{fill:#687F82;}
	.st6{fill:#FF8C29;}
	.st7{fill:#F0353D;}
	.st8{fill:#E6EAEA;}
	.st9{fill:#FFFFFF;}
	.st10{fill:#FD6A33;}
</style>
<path class="st0" d="M355.5-181.4c-2.8,2.8-4.5,6.7-4.5,10.9c0,8.5,7,15.5,15.5,15.5h83v28h-150c-6.6,0-12,5.4-12,12v330
	c0,6.6,5.4,12,12,12h150v11c-18.2,0-33,14.8-33,33c0,18.2,14.8,33,33,33v2h-114c-32.7,0-59.5-26.8-59.5-59.5v-393
	c0-32.7,26.8-59.5,59.5-59.5h114v20h-83C362.2-186,358.4-184.3,355.5-181.4z"/>
<path class="st1" d="M623-146.5v393c0,32.7-26.8,59.5-59.5,59.5h-114v-2c18.2,0,33-14.8,33-33c0-18.2-14.8-33-33-33v-11h150
	c6.6,0,12-5.4,12-12v-330c0-6.6-5.4-12-12-12h-150v-28h83c4.3,0,8.1-1.7,11-4.5s4.5-6.7,4.5-11c0-8.5-7-15.5-15.5-15.5h-83v-20h114
	C596.2-206,623-179.2,623-146.5z"/>
<path class="st2" d="M449.5-186v31h-83c-8.5,0-15.5-7-15.5-15.5c0-4.3,1.7-8.1,4.5-10.9c2.8-2.8,6.7-4.6,11-4.6H449.5z"/>
<path class="st3" d="M548-170.5c0,4.3-1.7,8.1-4.5,11s-6.7,4.5-11,4.5h-83v-31h83C541-186,548-179,548-170.5z"/>
<path class="st2" d="M449.5-127v354h-150c-6.6,0-12-5.4-12-12v-330c0-6.6,5.4-12,12-12H449.5z"/>
<path class="st3" d="M611.5-115v330c0,6.6-5.4,12-12,12h-150v-354h150C606.1-127,611.5-121.6,611.5-115z"/>
<path class="st2" d="M449.5,238v66c-18.2,0-33-14.8-33-33C416.5,252.8,431.3,238,449.5,238z"/>
<path class="st3" d="M482.5,271c0,18.2-14.8,33-33,33v-66C467.7,238,482.5,252.8,482.5,271z"/>
<path class="st4" d="M521.8-88.4"/>
<path class="st4" d="M526.1-52.4"/>
<path class="st1" d="M393.5-17h-92.6c-2.9,0-5.2,2.3-5.2,5.2v98.8c0,2.9,2.3,5.2,5.2,5.2h92.6c2.9,0,5.2-2.3,5.2-5.2v-98.8
	C398.6-14.7,396.3-17,393.5-17z"/>
<path class="st5" d="M393.5,109.6h-92.6c-2.9,0-5.2,2.3-5.2,5.2v98.8c0,2.9,2.3,5.2,5.2,5.2h92.6c2.9,0,5.2-2.3,5.2-5.2v-98.8
	C398.6,111.9,396.3,109.6,393.5,109.6z"/>
<path class="st6" d="M515.6-17H423c-2.9,0-5.2,2.3-5.2,5.2v98.8c0,2.9,2.3,5.2,5.2,5.2h92.6c2.9,0,5.2-2.3,5.2-5.2v-98.8
	C520.7-14.7,518.4-17,515.6-17z"/>
<path class="st7" d="M515.6,109.6H423c-2.9,0-5.2,2.3-5.2,5.2v98.8c0,2.9,2.3,5.2,5.2,5.2h92.6c2.9,0,5.2-2.3,5.2-5.2v-98.8
	C520.7,111.9,518.4,109.6,515.6,109.6z"/>
<path class="st8" d="M566.5-25.8l-38.9-38.9c-2-2-5.3-2-7.3,0L387.9,67.6c-0.3,0.3-0.5,0.5-0.7,0.8l-42.8,66.2c-1.3,2-1,4.7,0.7,6.5
	l15.6,15.6c1,1,2.3,1.5,3.7,1.5c1,0,1.9-0.3,2.8-0.8l66.2-42.8c0.3-0.2,0.6-0.4,0.8-0.7L566.5-18.5
	C568.5-20.6,568.5-23.8,566.5-25.8z"/>
<path class="st6" d="M593.7-92c-12.7-12.7-33.5-12.7-46.2,0l-31.1,31.1c-2,2-2,5.3,0,7.3l38.9,38.9c1,1,2.3,1.5,3.7,1.5
	s2.6-0.5,3.7-1.5l31.1-31.1c6.2-6.2,9.6-14.4,9.6-23.1C603.3-77.6,599.9-85.9,593.7-92z"/>
<path class="st9" d="M551.2-59.9c-1.3,0-2.6-0.5-3.7-1.5c-2-2-2-5.3,0-7.3l11.7-11.7c2-2,5.3-2,7.3,0c2,2,2,5.3,0,7.3l-11.7,11.7
	C553.8-60.4,552.5-59.9,551.2-59.9z"/>
<path class="st10" d="M589.9-10.3L512-88.1c-2-2-5.3-2-7.3,0l-19.5,19.5c-2,2-2,5.3,0,7.3l77.9,77.9c1,1,2.3,1.5,3.7,1.5
	c1.3,0,2.6-0.5,3.6-1.5L589.9-3c1-1,1.5-2.3,1.5-3.7C591.4-8,590.8-9.3,589.9-10.3z"/>
<path class="st7" d="M551.1-49.1l-26.8,26.8l38.8,38.8c1,1,2.3,1.5,3.7,1.5c1.3,0,2.6-0.5,3.6-1.5L589.9-3c1-1,1.5-2.3,1.5-3.7
	c0-1.4-0.5-2.7-1.5-3.7L551.1-49.1z"/>
<g>
	<path class="st9" d="M411,80.3c-1.3,0-2.6-0.5-3.6-1.5c-2-2-2-5.3,0-7.3l15.6-15.6c2-2,5.3-2,7.3,0c2,2,2,5.3,0,7.3l-15.6,15.6
		C413.6,79.8,412.3,80.3,411,80.3z"/>
	<path class="st9" d="M442.2,49.2c-1.3,0-2.6-0.5-3.7-1.5c-2-2-2-5.3,0-7.3L493-14.2c2-2,5.3-2,7.3,0c2,2,2,5.3,0,7.3l-54.5,54.5
		C444.8,48.7,443.5,49.2,442.2,49.2z"/>
</g>
</svg>
