<?xml version="1.0" encoding="utf-8"?>
<!-- Generator: Adobe Illustrator 25.4.1, SVG Export Plug-In . SVG Version: 6.00 Build 0)  -->
<svg version="1.1" id="Layer_1" xmlns="http://www.w3.org/2000/svg" xmlns:xlink="http://www.w3.org/1999/xlink" x="0px" y="0px"
	 viewBox="206 -206 512 512" style="enable-background:new 206 -206 512 512;" xml:space="preserve">
<style type="text/css">
	.st0{fill:#0295AA;}
	.st1{fill:#4ACFD9;}
	.st2{fill:#9BAAAB;}
	.st3{fill:#CDD4D5;}
	.st4{fill:#FFD1A9;}
	.st5{fill:#FD6A33;}
	.st6{fill:#FF8C29;}
	.st7{fill:#E6EAEA;}
	.st8{fill:#365558;}
</style>
<path class="st0" d="M355.5-181.4c-2.8,2.8-4.5,6.7-4.5,10.9c0,8.5,7,15.5,15.5,15.5h83v28h-150c-6.6,0-12,5.4-12,12v330
	c0,6.6,5.4,12,12,12h150v11c-18.2,0-33,14.8-33,33c0,18.2,14.8,33,33,33v2h-114c-32.7,0-59.5-26.8-59.5-59.5v-393
	c0-32.7,26.8-59.5,59.5-59.5h114v20h-83C362.2-186,358.4-184.3,355.5-181.4z"/>
<path class="st1" d="M623-146.5v393c0,32.7-26.8,59.5-59.5,59.5h-114v-2c18.2,0,33-14.8,33-33c0-18.2-14.8-33-33-33v-11h150
	c6.6,0,12-5.4,12-12v-330c0-6.6-5.4-12-12-12h-150v-28h83c4.3,0,8.1-1.7,11-4.5s4.5-6.7,4.5-11c0-8.5-7-15.5-15.5-15.5h-83v-20h114
	C596.2-206,623-179.2,623-146.5z"/>
<path class="st2" d="M449.5-186v31h-83c-8.5,0-15.5-7-15.5-15.5c0-4.3,1.7-8.1,4.5-10.9c2.8-2.8,6.7-4.6,11-4.6H449.5z"/>
<path class="st3" d="M548-170.5c0,4.3-1.7,8.1-4.5,11s-6.7,4.5-11,4.5h-83v-31h83C541-186,548-179,548-170.5z"/>
<path class="st2" d="M449.5-127v354h-150c-6.6,0-12-5.4-12-12v-330c0-6.6,5.4-12,12-12H449.5z"/>
<path class="st3" d="M611.5-115v330c0,6.6-5.4,12-12,12h-150v-354h150C606.1-127,611.5-121.6,611.5-115z"/>
<path class="st2" d="M449.5,238v66c-18.2,0-33-14.8-33-33C416.5,252.8,431.3,238,449.5,238z"/>
<path class="st3" d="M482.5,271c0,18.2-14.8,33-33,33v-66C467.7,238,482.5,252.8,482.5,271z"/>
<path class="st4" d="M521.8-88.4"/>
<path class="st4" d="M526.1-52.4"/>
<path class="st5" d="M449.5,227v-56c-27.4,0-52.5-10.9-71.8-28.9L300,227H449.5z"/>
<path class="st5" d="M449.5-127H300l77.7,84.9C397-60.1,422.1-71,449.5-71V-127z"/>
<path class="st5" d="M287.5,213.3l77.7-84.9c-16.5-21.1-26.5-48.5-26.5-78.4s9.9-57.3,26.5-78.4l-77.7-84.9V213.3z"/>
<path class="st6" d="M449.5,171v56H599l-77.7-84.9C501.9,160.1,476.9,171,449.5,171z"/>
<path class="st6" d="M449.5-127v56c27.4,0,52.5,10.9,71.8,28.9L599-127H449.5z"/>
<path class="st6" d="M533.8-28.4c16.5,21.1,26.5,48.5,26.5,78.4s-9.9,57.3-26.5,78.4l77.7,84.9v-326.6L533.8-28.4z"/>
<path class="st4" d="M513.1-127h-63.7v56c27.4,0,52.5,10.9,71.8,28.9l44.9-49C550.7-106.3,532.8-118.6,513.1-127z"/>
<path class="st4" d="M533.8-28.4c16.5,21.1,26.5,48.5,26.5,78.4s-9.9,57.3-26.5,78.4l44.9,49c13.9-16.8,25.1-36.4,32.8-57.9V-19.6
	c-7.7-21.4-18.9-41-32.8-57.9L533.8-28.4z"/>
<path class="st4" d="M449.5,171v56h63.7c19.6-8.4,37.5-20.7,53-35.9l-44.9-49C501.9,160.1,476.9,171,449.5,171z"/>
<path class="st7" d="M560.2,50c0,66.7-49.7,121-110.7,121C510.6,171,560.2,116.8,560.2,50z"/>
<path class="st7" d="M560.2,50c0-66.8-49.6-121-110.7-121C510.6-71,560.2-16.7,560.2,50z"/>
<path class="st6" d="M385.8,227h63.7v-56c-27.4,0-52.5-10.9-71.8-28.9l-44.9,49C348.2,206.3,366.2,218.6,385.8,227z"/>
<path class="st6" d="M287.5-19.6v139.2c7.7,21.4,18.9,41,32.8,57.9l44.9-49c-16.5-21.1-26.5-48.5-26.5-78.4s9.9-57.3,26.5-78.4
	l-44.9-49C306.4-60.6,295.2-41.1,287.5-19.6z"/>
<path class="st6" d="M449.5-127h-63.7c-19.6,8.4-37.5,20.7-53,35.9l44.9,49C397-60.1,422.1-71,449.5-71V-127z"/>
<path class="st3" d="M338.8,50c0-66.7,49.7-121,110.7-121C388.4-71,338.8-16.8,338.8,50z"/>
<path class="st3" d="M338.8,50c0,66.8,49.6,121,110.7,121C388.4,171,338.8,116.7,338.8,50z"/>
<path class="st6" d="M542.8,50c0-56.3-41.8-102-93.3-102v204C501.1,152,542.8,106.3,542.8,50z"/>
<path class="st5" d="M356.2,50c0,56.3,41.8,102,93.3,102V-52C397.9-52,356.2-6.3,356.2,50z"/>
<g>
	<path class="st1" d="M594.7,7.1c0-67.6-28.7-122.4-64-122.4S471.5-60.6,471.5,7.1c0,30.7,15.6,67.8,31.4,93h69.5
		C586,77.6,594.7,44.3,594.7,7.1z"/>
	<path class="st0" d="M506.2,93.1C492.1,69.6,477.8,35.7,477.8,7c0-65.8,22.7-115.5,52.9-115.5c14.7,0,28.9,11.5,39.8,32.4
		c11.6,22.1,17.9,51.6,17.9,83.1c0,32.9-7.1,64-19.6,86.1H506.2z"/>
	<path class="st1" d="M492.5,154.3c0,33.7,15.7,61,42,61s43.5-27.3,43.5-61c0-11.1-1.9-21.4-5.3-30.4h-75.2
		C494.2,132.9,492.5,143.3,492.5,154.3z"/>
	<path class="st0" d="M534.4,208.4c-13.2,0-21.2-8.2-25.7-14.9c-6.4-9.8-9.9-23.7-9.9-39.1c0-8.3,1.1-16.3,3.1-23.5h66.3
		c2.2,7.2,3.4,15.2,3.4,23.5C571.6,185.7,555.9,208.4,534.4,208.4z"/>
</g>
<g>
	<path class="st0" d="M304.3,7.1c0-67.6,28.7-122.4,64-122.4s59.2,54.8,59.2,122.4c0,30.7-15.6,67.8-31.4,93h-69.4
		C312.9,77.6,304.3,44.3,304.3,7.1z"/>
	<path class="st8" d="M330.1,93.1C317.7,71,310.6,39.9,310.6,7c0-31.5,6.4-61,17.9-83.1c10.9-20.9,25.1-32.4,39.8-32.4
		c30.1,0,52.8,49.6,52.8,115.5c0,28.6-14.4,62.6-28.4,86.1H330.1z"/>
	<path class="st0" d="M406.5,154.3c0,33.7-15.7,61-42,61c-26.3,0-43.5-27.3-43.5-61c0-11.1,1.9-21.4,5.3-30.4h75.2
		C404.8,132.9,406.5,143.3,406.5,154.3z"/>
	<path class="st8" d="M364.6,208.4c-21.5,0-37.1-22.7-37.1-54.1c0-8.3,1.1-16.3,3.4-23.5h66.3c2,7.1,3.1,15.2,3.1,23.5
		c0,15.4-3.5,29.3-9.9,39.1C385.8,200.3,377.7,208.4,364.6,208.4z"/>
</g>
</svg>
