<?xml version="1.0" encoding="utf-8"?>
<!-- Generator: Adobe Illustrator 25.4.1, SVG Export Plug-In . SVG Version: 6.00 Build 0)  -->
<svg version="1.1" id="Layer_1" xmlns="http://www.w3.org/2000/svg" xmlns:xlink="http://www.w3.org/1999/xlink" x="0px" y="0px"
	 viewBox="206 -206 512 512" style="enable-background:new 206 -206 512 512;" xml:space="preserve">
<style type="text/css">
	.st0{fill:#0295AA;}
	.st1{fill:#4ACFD9;}
	.st2{fill:#9BAAAB;}
	.st3{fill:#CDD4D5;}
	.st4{fill:#FFD1A9;}
	.st5{fill:#E6EAEA;}
	.st6{fill:#365558;}
	.st7{fill:#F0353D;}
	.st8{fill:#FD6A33;}
</style>
<path class="st0" d="M355.5-181.4c-2.8,2.8-4.5,6.7-4.5,10.9c0,8.5,7,15.5,15.5,15.5h83v28h-150c-6.6,0-12,5.4-12,12v330
	c0,6.6,5.4,12,12,12h150v11c-18.2,0-33,14.8-33,33c0,18.2,14.8,33,33,33v2h-114c-32.7,0-59.5-26.8-59.5-59.5v-393
	c0-32.7,26.8-59.5,59.5-59.5h114v20h-83C362.2-186,358.4-184.3,355.5-181.4z"/>
<path class="st1" d="M623-146.5v393c0,32.7-26.8,59.5-59.5,59.5h-114v-2c18.2,0,33-14.8,33-33c0-18.2-14.8-33-33-33v-11h150
	c6.6,0,12-5.4,12-12v-330c0-6.6-5.4-12-12-12h-150v-28h83c4.3,0,8.1-1.7,11-4.5s4.5-6.7,4.5-11c0-8.5-7-15.5-15.5-15.5h-83v-20h114
	C596.2-206,623-179.2,623-146.5z"/>
<path class="st2" d="M449.5-186v31h-83c-8.5,0-15.5-7-15.5-15.5c0-4.3,1.7-8.1,4.5-10.9c2.8-2.8,6.7-4.6,11-4.6H449.5z"/>
<path class="st3" d="M548-170.5c0,4.3-1.7,8.1-4.5,11s-6.7,4.5-11,4.5h-83v-31h83C541-186,548-179,548-170.5z"/>
<path class="st2" d="M449.5-127v354h-150c-6.6,0-12-5.4-12-12v-330c0-6.6,5.4-12,12-12H449.5z"/>
<path class="st3" d="M611.5-115v330c0,6.6-5.4,12-12,12h-150v-354h150C606.1-127,611.5-121.6,611.5-115z"/>
<path class="st2" d="M449.5,238v66c-18.2,0-33-14.8-33-33C416.5,252.8,431.3,238,449.5,238z"/>
<path class="st3" d="M482.5,271c0,18.2-14.8,33-33,33v-66C467.7,238,482.5,252.8,482.5,271z"/>
<path class="st4" d="M521.8-88.4"/>
<path class="st4" d="M526.1-52.4"/>
<path class="st3" d="M332.7-18.5c-0.1-0.4-0.1-0.9-0.1-1.3C332.7-19.4,332.7-19,332.7-18.5z"/>
<path class="st3" d="M333-16.7c-0.1-0.5-0.1-1-0.2-1.6C332.9-17.7,332.9-17.2,333-16.7z"/>
<path class="st3" d="M332.5-22.1c0-0.6,0-1.1,0-1.7C332.5-23.2,332.5-22.7,332.5-22.1z"/>
<path class="st3" d="M332.5-23.8c0-0.7,0-1.4,0.1-2C332.5-25.2,332.5-24.5,332.5-23.8z"/>
<path class="st3" d="M332.6-20.5c0-0.4-0.1-0.8-0.1-1.2C332.5-21.2,332.5-20.8,332.6-20.5z"/>
<path class="st3" d="M333.2-15.1c-0.1-0.3-0.1-0.7-0.2-1C333.1-15.8,333.2-15.4,333.2-15.1z"/>
<path class="st3" d="M332.5-26.5c0-0.5,0.1-1,0.1-1.5C332.6-27.4,332.5-27,332.5-26.5z"/>
<path class="st3" d="M336.2-4.8c-0.1-0.2-0.1-0.3-0.3-0.6C336.1-5.2,336.2-5,336.2-4.8z"/>
<path class="st3" d="M336.8-3.4c-0.1-0.2-0.2-0.3-0.3-0.6C336.7-3.8,336.8-3.7,336.8-3.4z"/>
<path class="st3" d="M334-11.4c-0.1-0.5-0.3-1-0.3-1.4C333.8-12.4,333.9-11.9,334-11.4z"/>
<path class="st3" d="M333.6-13.4c-0.1-0.3-0.1-0.6-0.2-1C333.4-14.1,333.5-13.7,333.6-13.4z"/>
<path class="st3" d="M334.9-8.4c-0.1-0.2-0.1-0.5-0.2-0.7C334.8-8.8,334.8-8.6,334.9-8.4z"/>
<path class="st3" d="M334.4-9.9c-0.1-0.3-0.1-0.5-0.2-0.8C334.3-10.4,334.4-10.2,334.4-9.9z"/>
<path class="st3" d="M333.2-33.4c0.1-0.4,0.1-0.8,0.2-1.2C333.4-34.2,333.3-33.8,333.2-33.4z"/>
<path class="st3" d="M332.7-28.6c0.1-0.6,0.1-1,0.1-1.6C332.7-29.6,332.7-29.2,332.7-28.6z"/>
<path class="st3" d="M333.6-35.5c0.1-0.4,0.2-0.8,0.3-1.2C333.7-36.3,333.7-35.9,333.6-35.5z"/>
<path class="st3" d="M334.1-37.5L334.1-37.5c-0.1,0.3-0.1,0.6-0.2,0.8C333.9-36.9,334-37.2,334.1-37.5z"/>
<path class="st3" d="M337.3-2.5c-0.1-0.3-0.3-0.6-0.4-0.9C337-3.2,337.1-2.8,337.3-2.5z"/>
<path class="st3" d="M333.6-13.4c0.1,0.2,0.1,0.4,0.1,0.6C333.6-13,333.6-13.2,333.6-13.4z"/>
<path class="st3" d="M332.7-18.5c0,0.1,0,0.2,0,0.3C332.7-18.3,332.7-18.4,332.7-18.5z"/>
<path class="st3" d="M333-16.7c0,0.2,0.1,0.4,0.1,0.6C333.1-16.3,333-16.4,333-16.7z"/>
<path class="st3" d="M334.4-9.9c0.1,0.3,0.2,0.6,0.3,0.8C334.6-9.3,334.5-9.6,334.4-9.9z"/>
<path class="st3" d="M332.5-26.5c0,0.2,0,0.4,0,0.6C332.5-26.1,332.5-26.3,332.5-26.5z"/>
<path class="st3" d="M334-11.4c0.1,0.3,0.1,0.5,0.2,0.8C334.1-10.9,334.1-11.1,334-11.4z"/>
<path class="st3" d="M333.2-15.1c0.1,0.2,0.1,0.4,0.1,0.7C333.3-14.6,333.2-14.9,333.2-15.1z"/>
<path class="st3" d="M332.6-20.5c0,0.2,0,0.3,0.1,0.6C332.6-20,332.6-20.2,332.6-20.5z"/>
<path class="st3" d="M332.5-22.1c0,0.1,0,0.3,0,0.5C332.5-21.8,332.5-22,332.5-22.1z"/>
<path class="st3" d="M336.2-4.8c0.1,0.3,0.3,0.6,0.4,0.9C336.5-4.3,336.3-4.6,336.2-4.8z"/>
<path class="st3" d="M334.9-8.4c0.3,1,0.7,2,1.1,3C335.6-6.4,335.2-7.4,334.9-8.4z"/>
<path class="st5" d="M581.1-28.3c-2.8,2.7-6.4,4.1-10,4.1c-5,0-9.6-2.6-13.7-7.8l-0.1-0.2c-3.2-4.3-4.8-8.6-4.8-13.2
	c0-5.6,2.5-10.8,7-14.2l0.3-0.2l0.3-0.2c9.8-7,14.5-12.8,15.9-16.6c-4.2-2.5-7.7-5.3-10.3-8.2c-4.4,19.5-18.3,38.4-41.5,56.5
	c-2.8,2.7-6.4,4.1-10,4.1c-5,0-9.6-2.6-13.7-7.8l-0.1-0.2c-3.2-4.3-4.8-8.6-4.8-13.2c0-5.6,2.5-10.8,7-14.2l0.3-0.2l0.3-0.2
	c9.8-7,14.5-12.8,15.9-16.6c-11.5-6.9-17.4-15.5-17.4-25.4c0-9.1,3-17.6,8.7-25h-60.9v353.9h70.1c40.9-19.4,73.8-55.4,91.6-100.1
	V-26.8c-2.7-6.9-5.9-13.6-9.3-20.1C595.7-40.6,589-34.4,581.1-28.3z"/>
<path class="st2" d="M332.8-18.2c0.1,0.6,0.1,1,0.2,1.6C332.9-17.2,332.9-17.7,332.8-18.2z"/>
<path class="st2" d="M333.4-14.4c0.1,0.3,0.1,0.6,0.2,1C333.5-13.7,333.4-14.1,333.4-14.4z"/>
<path class="st2" d="M332.6-19.9c0.1,0.5,0.1,0.9,0.1,1.3C332.7-19,332.7-19.4,332.6-19.9z"/>
<path class="st2" d="M333.1-16.1c0.1,0.3,0.1,0.7,0.2,1C333.2-15.4,333.1-15.8,333.1-16.1z"/>
<path class="st2" d="M332.5-25.7c0,0.6,0,1.2,0,1.9C332.5-24.5,332.5-25.1,332.5-25.7z"/>
<path class="st2" d="M333.7-12.8c0.1,0.5,0.2,1,0.3,1.4C333.9-11.9,333.8-12.4,333.7-12.8z"/>
<path class="st2" d="M332.5-23.8c0,0.6,0,1.1,0,1.7C332.5-22.7,332.5-23.2,332.5-23.8z"/>
<path class="st2" d="M332.5-21.6c0,0.4,0.1,0.8,0.1,1.2C332.5-20.8,332.5-21.2,332.5-21.6z"/>
<path class="st2" d="M336.6-4c0.1,0.2,0.2,0.3,0.3,0.6C336.8-3.7,336.7-3.8,336.6-4z"/>
<path class="st2" d="M334.7-9.1c0.1,0.2,0.1,0.5,0.2,0.7C334.8-8.6,334.8-8.8,334.7-9.1z"/>
<path class="st2" d="M398.7-90.6c0.1,0.1,0.3,0.3,0.4,0.5l0.1,0.2c3.2,4.2,4.8,8.6,4.8,13.2c0,3.2-0.9,9.5-7,14.2l-0.3,0.2l-0.3,0.2
	c-11.2,8-14.7,13.6-15.9,16.5c11.5,6.9,17.3,15.5,17.3,25.4c0,10.2-3.9,19.9-11.1,27.8c-8.4,9.1-17,11.1-22.7,11.1
	c-6.3,0-15.4-2.6-23.6-15.1c-1.3-1.9-2.5-4-3.5-6.1l0,0c-1.8,3.7-4.1,7.1-7,10.3c-5.4,6-11.1,8.9-15.9,10.2
	c-2,10.4-3.1,21.1-3.1,32.1c0,83.5,61.8,151.1,137.9,151.1v-302.1C431.4-101.1,414.4-97.4,398.7-90.6z"/>
<path class="st2" d="M336-5.4c0.1,0.2,0.1,0.3,0.3,0.6C336.2-5,336.1-5.2,336-5.4z"/>
<path class="st2" d="M334.3-10.6c0.1,0.3,0.1,0.5,0.2,0.8C334.4-10.2,334.3-10.4,334.3-10.6z"/>
<path class="st2" d="M332.6-20.5c0,0.2,0,0.3,0.1,0.6C332.6-20,332.6-20.2,332.6-20.5z"/>
<path class="st2" d="M332.5-22.1c0,0.1,0,0.3,0,0.5C332.5-21.8,332.5-22,332.5-22.1z"/>
<path class="st2" d="M332.5-25.9c0,0.1,0,0.1,0,0.2C332.5-25.8,332.5-25.8,332.5-25.9z"/>
<path class="st2" d="M332.7-18.5c0,0.1,0,0.2,0,0.3C332.7-18.3,332.7-18.4,332.7-18.5z"/>
<path class="st2" d="M333-16.7c0,0.2,0.1,0.4,0.1,0.6C333.1-16.3,333-16.4,333-16.7z"/>
<path class="st2" d="M336.2-4.8c0.1,0.3,0.3,0.6,0.4,0.9C336.5-4.3,336.3-4.6,336.2-4.8z"/>
<path class="st2" d="M334.9-8.4c0.3,1,0.7,2,1.1,3C335.6-6.4,335.2-7.4,334.9-8.4z"/>
<path class="st2" d="M337.3-2.5c-0.1-0.3-0.3-0.6-0.4-0.9C337-3.2,337.1-2.8,337.3-2.5z"/>
<path class="st2" d="M334-11.4c0.1,0.3,0.1,0.5,0.2,0.8C334.1-10.9,334.1-11.1,334-11.4z"/>
<path class="st2" d="M333.6-13.4c0.1,0.2,0.1,0.4,0.1,0.6C333.6-13,333.6-13.2,333.6-13.4z"/>
<path class="st2" d="M333.2-15.1c0.1,0.2,0.1,0.4,0.1,0.7C333.3-14.6,333.2-14.9,333.2-15.1z"/>
<path class="st2" d="M334.4-9.9c0.1,0.3,0.2,0.6,0.3,0.8C334.6-9.3,334.5-9.6,334.4-9.9z"/>
<path class="st3" d="M557.4-32l-0.1-0.2c-3.2-4.3-4.8-8.6-4.8-13.2c0-1.4,0.2-2.8,0.5-4.1c-1-1.3-2.1-2.6-3.2-3.8
	c-6.7,8.5-15.2,16.9-25.8,25.1c-2.8,2.7-6.4,4.1-10,4.1c-5,0-9.6-2.6-13.7-7.8l-0.1-0.2c-3.2-4.3-4.8-8.6-4.8-13.2
	c0-5.6,2.5-10.8,7-14.2l0.3-0.2l0.3-0.2c9.8-7,14.5-12.8,15.9-16.6c-5.5-3.3-9.7-7-12.6-11c-17.4-8.6-36.7-13.5-57-13.5v302.1
	c76.2,0,137.9-67.6,137.9-151.1c0-27-6.5-52.3-17.8-74.3C565-24.8,561-27.4,557.4-32z"/>
<path class="st3" d="M389.9-38.7c5.5,5.5,8.3,11.6,8.3,18.5c0,10.2-3.9,19.9-11.1,27.8c-8.4,9.1-17,11.1-22.7,11.1
	c-3,0-6.7-0.6-10.6-2.6c-3.2,10.7-4.9,22.1-4.9,34c0,60.7,44.9,109.9,100.3,109.9V-59.9C427-59.9,406.5-52.1,389.9-38.7z"/>
<path class="st5" d="M500.3-32l-0.1-0.2c-3.2-4.3-4.8-8.6-4.8-13.2c0-0.7,0.1-1.5,0.1-2.1c-13.9-8-29.6-12.4-46.4-12.4v219.9
	c55.4,0,100.3-49.2,100.3-109.9c0-29.7-10.7-56.6-28.2-76.3c-2.3,1.4-4.8,2.1-7.4,2.1C509.1-24.1,504.4-26.8,500.3-32z"/>
<path class="st2" d="M387.3,50c0,37.4,27.7,67.8,61.9,67.8V-17.8C415-17.8,387.3,12.6,387.3,50z"/>
<path class="st3" d="M511,50c0-37.4-27.7-67.8-61.9-67.8v135.5C483.3,117.8,511,87.4,511,50z"/>
<path class="st1" d="M575.9-76.6c-4.2-2.5-7.7-5.3-10.3-8.2c-0.7,3-1.6,6.2-2.8,9.2l0.6,0.6l6.3,7C573.1-71.5,575-74.4,575.9-76.6z"
	/>
<path class="st1" d="M594.9-40.2l4.2,4.6c3,3.3,5.9,4.6,8.2,3.6c0.3-0.1,0.6-0.3,0.9-0.6c-2.1-4.8-4.4-9.5-6.8-14.2
	C599.4-44.7,597.2-42.4,594.9-40.2z"/>
<path class="st1" d="M563.2-75l-0.4-0.5c-0.3,0.6-0.5,1.2-0.8,1.9L563.2-75z"/>
<path class="st1" d="M559.4-59.7l0.3-0.2l0.3-0.2c4-2.9,7.3-5.6,9.7-8l-6.4-7l-1.3,1.5c-2.8,6.8-6.8,13.4-12,20.1
	c1.1,1.2,2.1,2.5,3.1,3.7C554-53.6,556.2-57.1,559.4-59.7z"/>
<path class="st1" d="M500.3-32l-0.1-0.2c-2.2-2.9-3.6-5.8-4.3-8.9l-24.6,27c16.7,6.9,30.1,21.5,36.4,39.8l28.3-31
	c-4.1-7.7-9-14.7-14.6-21.1c-2.3,1.4-4.7,2.1-7.3,2.1C509.1-24.1,504.4-26.8,500.3-32z"/>
<path class="st1" d="M599.1,135.7l-10.1,11L563.3,175l-25.9,28.2l-10.1,11c-3,3.3-4.2,6.5-3.3,9c0.1,0.3,0.3,0.7,0.6,1
	c36.6-19.1,66.2-51.5,83.6-91.5c-0.3-0.3-0.6-0.5-0.9-0.6C605,131,602.1,132.3,599.1,135.7z"/>
<path class="st1" d="M570.3,142.6L570.3,142.6l-6.9-7.5c-9.9,15.8-22.1,29.2-36.4,40l6.9,7.5h0.1l11.2,12.2l18.2-19.9l-11.2-12.2
	v-0.1h0.1l11.2,12.2l18.2-19.9L570.3,142.6L570.3,142.6z"/>
<path class="st1" d="M471.2,114l28.3,31c15-9.6,27.6-23.4,36.4-39.8l-28.3-31C501.3,92.5,488,107.1,471.2,114z"/>
<path class="st0" d="M559.1-125.6c1.3,2,2.4,4.1,3.4,6.2c1.3-2.6,2.8-5.2,4.7-7.5h-9c0.3,0.3,0.6,0.8,0.8,1.2L559.1-125.6z"/>
<path class="st0" d="M601.4-46.9c2.5,4.6,4.7,9.3,6.8,14.2c1.6-1.4,2.5-4.3,2.5-8.3v-17.7C608.1-54.7,604.9-50.8,601.4-46.9z"/>
<path class="st0" d="M557.3-32.1c-3.2-4.3-4.8-8.6-4.8-13.2c0-1.5,0.2-3,0.6-4.4c-1-1.2-2-2.5-3.1-3.7c-6.7,8.6-15.4,17-25.9,25.3
	c-0.8,0.8-1.7,1.4-2.6,2c5.6,6.4,10.5,13.4,14.6,21l22.9-25.1c-0.5-0.6-0.9-1.1-1.5-1.7L557.3-32.1z"/>
<path class="st0" d="M471.2-14l-3.7,4.1c-2.6,2.8-2.6,7.5,0,10.2L481,15.1l13.5,14.8c2.5,2.8,6.8,2.8,9.4,0l3.7-4.1
	C501.3,7.5,488-7.1,471.2-14z"/>
<path class="st0" d="M608.3,132.7c-17.4,40-47,72.5-83.6,91.5c1.3,1.8,3.9,2.8,7.6,2.8h62.6c4.3,0,8.3-1.9,11.4-5
	c2.9-3.4,4.6-7.7,4.6-12.4V141C610.8,137,609.9,134.1,608.3,132.7z"/>
<path class="st0" d="M499.6,145.1l27.4,30c14.2-10.6,26.6-24.2,36.4-39.8l-27.4-30C527.2,121.7,514.6,135.5,499.6,145.1z"/>
<path class="st0" d="M494.6,70.1L481,84.9l-13.5,14.8c-2.6,2.8-2.6,7.4,0,10.2l3.7,4.1c16.7-6.9,30.1-21.5,36.4-39.8l-3.7-4.1
	C501.3,67.3,497.1,67.3,494.6,70.1z"/>
<path class="st0" d="M340.2-62.5l-0.3,0.2l-0.3,0.2c-8.8,6.3-13.5,11.5-15.4,15.3l3.6,3.9c2.3,1.7,4.4,3.5,6.1,5.3
	c-0.1,0.4-0.2,0.8-0.3,1.2l0,0c1.9-9.1,5.9-18,11.9-26.9l-2.3-2.6C342.5-64.6,341.5-63.5,340.2-62.5z"/>
<path class="st0" d="M316.9-55l7.5,8.2c1.9-3.8,6.6-9.1,15.4-15.3l0.3-0.2l0.3-0.2c1.3-1,2.3-2.1,3.2-3.2l-8.4-9.1L316.9-55z"/>
<path class="st0" d="M327.9-42.9l0.1,0.1v0.1l5.8,6.3c0.1-0.4,0.2-0.8,0.3-1.2C332.3-39.3,330.3-41.1,327.9-42.9z"/>
<path class="st0" d="M353.2-94.8l-8.3,9.1c1.5,2.9,2.2,5.9,2.2,9c0,2.6-0.6,6.9-3.7,11l2.3,2.5c4.7-6.8,10.6-13.6,17.7-20.3
	L353.2-94.8z"/>
<path class="st0" d="M344.9-85.8L335-74.9l8.4,9.1c3.1-4.1,3.7-8.4,3.7-11C347.1-79.8,346.4-82.8,344.9-85.8z"/>
<path class="st0" d="M374.2-123.2c-0.1-0.3-0.3-0.7-0.6-1c-14.1,7.4-27.1,16.7-38.9,27.7c2.6,1.3,5.1,3.4,7.4,6.4l0.1,0.2
	c1.1,1.4,1.9,2.8,2.6,4.2l16-17.4l10.1-11C374-117.5,375.2-120.7,374.2-123.2z"/>
<path class="st0" d="M398.8-45c-3,1.9-6,4.1-8.9,6.4c5.4,5.5,8.2,11.6,8.2,18.4c0,10.2-3.9,19.9-11.1,27.8c-2.4,2.6-4.9,4.7-7.2,6.2
	l10.9,12C397,7.5,410.3-7.1,427.1-14L398.8-45z"/>
<path class="st0" d="M360.9,203.2L335,175l-25.8-28.3l-10.1-11c-3-3.3-5.9-4.6-8.2-3.6c-0.3,0.1-0.6,0.3-0.9,0.6
	c17.4,40,47,72.5,83.6,91.5c0.3-0.3,0.4-0.7,0.6-1c0.9-2.5-0.3-5.7-3.3-9L360.9,203.2z"/>
<path class="st0" d="M335,135.3l-6.9,7.5v0.1l-11.1,12.2l18.2,19.9l11.2-12.3h0.1v0.1L335.1,175l18.2,19.9l11.2-12.2h0.1l6.9-7.5
	C357.1,164.4,344.8,150.9,335,135.3z"/>
<path class="st0" d="M390.7,74.2l-28.3,31c8.8,16.5,21.3,30.2,36.4,39.8l28.3-31C410.4,107.1,397,92.5,390.7,74.2z"/>
<path class="st6" d="M318.5-93.9c2.8-2.7,6.4-4.1,10-4.1c2.2,0,4.2,0.5,6.3,1.5c11.7-11,24.8-20.4,38.9-27.7
	c-1.3-1.8-3.9-2.8-7.6-2.8h-62.6c-4.3,0-8.3,1.9-11.4,5c-2.9,3.4-4.6,7.7-4.6,12.4v47.9C294.6-72.4,305-83.3,318.5-93.9z"/>
<path class="st6" d="M430.8-9.9l-3.7-4.1C410.4-7.1,397,7.5,390.7,25.8l3.7,4.1c2.6,2.8,6.8,2.8,9.4,0l13.5-14.8l13.5-14.8
	C433.4-2.5,433.4-7.1,430.8-9.9z"/>
<path class="st6" d="M373.7,224.2c-36.6-19.1-66.2-51.5-83.6-91.5c-1.6,1.4-2.5,4.3-2.5,8.3v68.5c0,4.7,1.7,9.1,4.6,12.4
	c3.1,3.2,7.1,5,11.4,5h62.6C369.7,227,372.4,226,373.7,224.2z"/>
<path class="st6" d="M362.3,105.2l-27.4,30c9.7,15.6,22.1,29.2,36.4,39.8l27.4-30C383.7,135.5,371.1,121.7,362.3,105.2z"/>
<path class="st6" d="M380.8-45.6c3.6,2.1,6.6,4.5,9.1,6.9c2.8-2.3,5.8-4.4,8.9-6.4l-9.9-10.9C383.7-51.2,381.6-47.8,380.8-45.6z"/>
<path class="st6" d="M417.3,84.9l-13.5-14.8c-2.5-2.8-6.8-2.8-9.4,0l-3.7,4.1c6.3,18.3,19.6,32.9,36.4,39.8l3.7-4.1
	c2.6-2.8,2.6-7.5,0-10.2L417.3,84.9z"/>
<path class="st7" d="M316.6-34c-4-2.4-6-5.5-6-9.2c0-9.8,7.4-20,22.1-30.5c1.1-0.9,1.7-1.9,1.7-3c0-1.2-0.6-2.7-1.9-4.4
	c-1.6-2-3-3-4.1-3c-0.7,0-1.4,0.3-2.1,1.1c-25.5,19.9-38.3,39.7-38.3,59.4c0,7.1,2,13.4,5.9,19.2c4.1,6.3,8.7,9.4,13.6,9.4
	c4.9,0,9.6-2.4,13.8-7c4.9-5.4,7.4-11.4,7.4-18C328.6-24.8,324.6-29.5,316.6-34z"/>
<path class="st7" d="M389.8-73.7c1.1-0.9,1.7-1.9,1.7-3c0-1.2-0.6-2.7-1.9-4.4c-1.6-2-3-3-4.1-3c-0.7,0-1.4,0.3-2.1,1.1
	c-25.6,19.8-38.3,39.6-38.3,59.3c0,7.1,2,13.4,5.9,19.2c4.1,6.3,8.6,9.4,13.4,9.4c4.9,0,9.6-2.4,13.8-7c4.9-5.4,7.4-11.4,7.4-18
	c0-4.8-4-9.4-11.9-13.9c-4-2.4-6-5.5-6-9.2C367.7-53,375-63.2,389.8-73.7z"/>
<path class="st8" d="M554.4-98.3c0,19.7-12.8,39.5-38.3,59.3c-0.7,0.8-1.4,1.1-2.1,1.1c-1.1,0-2.5-1-4.1-3c-1.3-1.7-1.9-3-1.9-4.4
	c0-1.1,0.6-2.1,1.7-3c14.7-10.5,22.1-20.7,22.1-30.5c0-3.7-2-6.8-6-9.2c-7.9-4.5-11.9-9.1-11.9-13.9c0-6.6,2.5-12.7,7.4-18
	c4.2-4.6,8.9-7,13.8-7c4.8,0,9.4,3.1,13.6,9.4C552.5-111.7,554.4-105.4,554.4-98.3z M611.5-98.3c0,19.7-12.8,39.5-38.3,59.3
	c-0.7,0.8-1.4,1.1-2.1,1.1c-1.1,0-2.5-1-4.1-3c-1.3-1.7-1.9-3-1.9-4.4c0-1.1,0.6-2.1,1.7-3c14.7-10.5,22.1-20.7,22.1-30.5
	c0-3.7-2-6.8-6-9.2C575-92.6,571-97.2,571-102c0-6.6,2.5-12.7,7.4-18c4.2-4.6,8.9-7,13.8-7c4.8,0,9.3,3.1,13.4,9.4
	C609.5-111.7,611.5-105.4,611.5-98.3z"/>
</svg>
