<?xml version="1.0" encoding="utf-8"?>
<!-- Generator: Adobe Illustrator 25.4.1, SVG Export Plug-In . SVG Version: 6.00 Build 0)  -->
<svg version="1.1" id="Layer_1" xmlns="http://www.w3.org/2000/svg" xmlns:xlink="http://www.w3.org/1999/xlink" x="0px" y="0px"
	 viewBox="206 -206 512 512" style="enable-background:new 206 -206 512 512;" xml:space="preserve">
<style type="text/css">
	.st0{fill:#0295AA;}
	.st1{fill:#4ACFD9;}
	.st2{fill:#9BAAAB;}
	.st3{fill:#CDD4D5;}
	.st4{fill:#FFD1A9;}
	.st5{fill:#FD6A33;}
	.st6{fill:#FF8C29;}
	.st7{fill:#E6EAEA;}
	.st8{fill:none;stroke:#FFD1A9;stroke-width:16;stroke-linecap:round;stroke-miterlimit:10;}
	.st9{fill:none;stroke:#FF8C29;stroke-width:15;stroke-linecap:round;stroke-miterlimit:10;}
	.st10{fill:none;stroke:#E6EAEA;stroke-width:15;stroke-linecap:round;stroke-miterlimit:10;}
	.st11{fill:none;stroke:#CDD4D5;stroke-width:15;stroke-linecap:round;stroke-miterlimit:10;}
</style>
<path class="st0" d="M355.5-181.4c-2.8,2.8-4.5,6.7-4.5,10.9c0,8.5,7,15.5,15.5,15.5h83v28h-150c-6.6,0-12,5.4-12,12v330
	c0,6.6,5.4,12,12,12h150v11c-18.2,0-33,14.8-33,33c0,18.2,14.8,33,33,33v2h-114c-32.7,0-59.5-26.8-59.5-59.5v-393
	c0-32.7,26.8-59.5,59.5-59.5h114v20h-83C362.2-186,358.4-184.3,355.5-181.4z"/>
<path class="st1" d="M623-146.5v393c0,32.7-26.8,59.5-59.5,59.5h-114v-2c18.2,0,33-14.8,33-33c0-18.2-14.8-33-33-33v-11h150
	c6.6,0,12-5.4,12-12v-330c0-6.6-5.4-12-12-12h-150v-28h83c4.3,0,8.1-1.7,11-4.5s4.5-6.7,4.5-11c0-8.5-7-15.5-15.5-15.5h-83v-20h114
	C596.2-206,623-179.2,623-146.5z"/>
<path class="st2" d="M449.5-186v31h-83c-8.5,0-15.5-7-15.5-15.5c0-4.3,1.7-8.1,4.5-10.9c2.8-2.8,6.7-4.6,11-4.6H449.5z"/>
<path class="st3" d="M548-170.5c0,4.3-1.7,8.1-4.5,11s-6.7,4.5-11,4.5h-83v-31h83C541-186,548-179,548-170.5z"/>
<path class="st2" d="M449.5-127v354h-150c-6.6,0-12-5.4-12-12v-330c0-6.6,5.4-12,12-12H449.5z"/>
<path class="st3" d="M611.5-115v330c0,6.6-5.4,12-12,12h-150v-354h150C606.1-127,611.5-121.6,611.5-115z"/>
<path class="st2" d="M449.5,238v66c-18.2,0-33-14.8-33-33C416.5,252.8,431.3,238,449.5,238z"/>
<path class="st3" d="M482.5,271c0,18.2-14.8,33-33,33v-66C467.7,238,482.5,252.8,482.5,271z"/>
<path class="st4" d="M521.8-88.4"/>
<path class="st4" d="M526.1-52.4"/>
<path class="st0" d="M291.4,50c0,87.3,70.8,158.1,158.1,158.1v-316.2C362.2-108.1,291.4-37.3,291.4,50z"/>
<path class="st1" d="M449.5-108.1v316.2c87.3,0,158.1-70.8,158.1-158.1S536.8-108.1,449.5-108.1z"/>
<path class="st5" d="M341.4,50c0,59.7,48.4,108.1,108.1,108.1V-58.1C389.8-58.1,341.4-9.7,341.4,50z"/>
<path class="st6" d="M557.6,50c0-59.7-48.4-108.1-108.1-108.1v216.2C509.2,158.1,557.6,109.7,557.6,50z"/>
<path class="st1" d="M450.1-11.8c-34,0-61.8,27.7-61.8,61.8s27.7,61.8,61.8,61.8S511.9,84,511.9,50S484.1-11.8,450.1-11.8z"/>
<path class="st0" d="M388.4,50c0,33.9,27.4,61.5,61.2,61.8V-11.8C415.8-11.5,388.4,16.1,388.4,50z"/>
<path class="st7" d="M450-1.6c-0.2,0-0.3,0-0.4,0v104.1c0.2,0,0.3,0,0.4,0c28.7,0,52-23.3,52-52S478.7-1.6,450-1.6z"/>
<path class="st3" d="M397.9,50.4c0,28.5,23.1,51.8,51.6,52v-104C421-1.3,397.9,21.9,397.9,50.4z"/>
<path class="st6" d="M471.9,51.1c-0.9-2.5-2.3-4.3-4.1-5.4c-1.8-1.1-4.3-1.9-7.4-2.3l-10.8-1.2v14.1l2.6,0.4c2,0.2,3.4,0.5,4.1,0.7
	c0.7,0.2,1.3,0.7,1.5,1.4c0.2,0.7,0.4,1.8,0.4,3.4c0,1.7-0.2,2.9-0.7,3.7s-1.5,1.4-3.1,1.7c-1.1,0.2-2.8,0.4-4.9,0.4v21.9h5.2v-8.8
	c6.2-0.3,10.8-1.9,13.8-4.6c3.1-2.7,4.6-7.7,4.6-14.8C473.3,57.2,472.8,53.6,471.9,51.1z"/>
<path class="st6" d="M451.6,30.7c5,0,11.1,0.4,18.3,1V19.5c-1.9-0.4-4.2-0.7-7.1-1.2c-2.9-0.4-5.6-0.6-8-0.7v-9h-5.3v22
	C450.2,30.7,450.9,30.7,451.6,30.7z"/>
<path class="st5" d="M446.5,68c-5.9,0-12.6-0.3-20-0.9v12.2c5,0.9,10.7,1.5,17,1.7v8.8h5.9V68C448.6,68,447.6,68,446.5,68z"/>
<path class="st5" d="M443.6,17.7c-6.2,0.4-11,2-14.2,4.7c-3.3,2.7-4.9,7.2-4.9,13.6c0,5.7,0.9,10.1,2.8,13c1.9,3,5.6,4.9,11.1,5.7
	l11,1.5V42.2l-4.2-0.5c-1.9-0.2-3.3-0.5-4-0.7c-0.7-0.2-1.2-0.7-1.4-1.4c-0.2-0.7-0.4-1.8-0.4-3.4c0-1.7,0.4-2.9,1.1-3.7
	c0.7-0.7,1.9-1.3,3.5-1.5c1.2-0.2,3-0.3,5.4-0.3v-22h-5.9L443.6,17.7L443.6,17.7z"/>
<path class="st8" d="M475.1-33.3C496.9-26.6,515-11.6,525.8,8"/>
<path class="st9" d="M425.9,132.4c-21.7-6.7-39.9-21.7-50.6-41.3"/>
<path class="st10" d="M488.4-80.8c34.3,10.6,62.9,34.2,80,65.2"/>
<path class="st11" d="M410.6,180.8c-34.3-10.6-62.9-34.2-80-65.2"/>
</svg>
