<?xml version="1.0" encoding="utf-8"?>
<!-- Generator: Adobe Illustrator 25.4.1, SVG Export Plug-In . SVG Version: 6.00 Build 0)  -->
<svg version="1.1" id="Layer_1" xmlns="http://www.w3.org/2000/svg" xmlns:xlink="http://www.w3.org/1999/xlink" x="0px" y="0px"
	 viewBox="206 -206 512 512" style="enable-background:new 206 -206 512 512;" xml:space="preserve">
<style type="text/css">
	.st0{fill:#0295AA;}
	.st1{fill:#4ACFD9;}
	.st2{fill:#9BAAAB;}
	.st3{fill:#CDD4D5;}
	.st4{fill:#FFD1A9;}
	.st5{fill:#FF8C29;}
	.st6{fill:#FD6A33;}
	.st7{fill:#687F82;}
	.st8{fill:#365558;}
	.st9{fill:#E6EAEA;}
</style>
<path class="st0" d="M355.5-181.4c-2.8,2.8-4.5,6.7-4.5,10.9c0,8.5,7,15.5,15.5,15.5h83v28h-150c-6.6,0-12,5.4-12,12v330
	c0,6.6,5.4,12,12,12h150v11c-18.2,0-33,14.8-33,33c0,18.2,14.8,33,33,33v2h-114c-32.7,0-59.5-26.8-59.5-59.5v-393
	c0-32.7,26.8-59.5,59.5-59.5h114v20h-83C362.2-186,358.4-184.3,355.5-181.4z"/>
<path class="st1" d="M623-146.5v393c0,32.7-26.8,59.5-59.5,59.5h-114v-2c18.2,0,33-14.8,33-33c0-18.2-14.8-33-33-33v-11h150
	c6.6,0,12-5.4,12-12v-330c0-6.6-5.4-12-12-12h-150v-28h83c4.3,0,8.1-1.7,11-4.5s4.5-6.7,4.5-11c0-8.5-7-15.5-15.5-15.5h-83v-20h114
	C596.2-206,623-179.2,623-146.5z"/>
<path class="st2" d="M449.5-186v31h-83c-8.5,0-15.5-7-15.5-15.5c0-4.3,1.7-8.1,4.5-10.9c2.8-2.8,6.7-4.6,11-4.6H449.5z"/>
<path class="st3" d="M548-170.5c0,4.3-1.7,8.1-4.5,11s-6.7,4.5-11,4.5h-83v-31h83C541-186,548-179,548-170.5z"/>
<path class="st2" d="M449.5-127v354h-150c-6.6,0-12-5.4-12-12v-330c0-6.6,5.4-12,12-12H449.5z"/>
<path class="st3" d="M611.5-115v330c0,6.6-5.4,12-12,12h-150v-354h150C606.1-127,611.5-121.6,611.5-115z"/>
<path class="st2" d="M449.5,238v66c-18.2,0-33-14.8-33-33C416.5,252.8,431.3,238,449.5,238z"/>
<path class="st3" d="M482.5,271c0,18.2-14.8,33-33,33v-66C467.7,238,482.5,252.8,482.5,271z"/>
<path class="st4" d="M521.8-88.4"/>
<path class="st4" d="M526.1-52.4"/>
<g>
	<g>
		<path class="st5" d="M498.7,189.3h-45.8v16.6h45.8c0.9,0,1.6-0.7,1.6-1.6v-13.3C500.3,190,499.6,189.3,498.7,189.3z"/>
		<rect x="440.5" y="189.3" class="st6" width="12.4" height="16.6"/>
		<path class="st6" d="M407.1,189.3c-0.9,0-1.6,0.7-1.6,1.6v13.3c0,0.9,0.7,1.6,1.6,1.6h33.4v-16.6H407.1L407.1,189.3z"/>
	</g>
	<rect x="480.8" y="194.9" class="st7" width="6.1" height="10.9"/>
	<rect x="491.8" y="194.9" class="st7" width="4.1" height="10.9"/>
	<rect x="465.6" y="194.9" class="st7" width="8.2" height="10.9"/>
	<rect x="418.6" y="194.9" class="st8" width="6.1" height="10.9"/>
	<rect x="409.7" y="194.9" class="st8" width="4.1" height="10.9"/>
	<rect x="431.8" y="194.9" class="st8" width="8.2" height="10.9"/>
	<rect x="452.9" y="194.9" class="st7" width="4.2" height="10.9"/>
	<rect x="449" y="194.9" class="st8" width="4" height="10.9"/>
	<g>
		<path class="st5" d="M492.9,168.4h-45.8V185h45.8c0.9,0,1.6-0.7,1.6-1.6v-13.3C494.6,169.2,493.9,168.4,492.9,168.4z"/>
		<rect x="440.5" y="168.4" class="st6" width="6.7" height="16.6"/>
		<path class="st6" d="M401.4,168.4c-0.9,0-1.6,0.7-1.6,1.6v13.3c0,0.9,0.7,1.6,1.6,1.6h39.1v-16.5L401.4,168.4L401.4,168.4z"/>
	</g>
	<rect x="475.1" y="174.2" class="st7" width="6.1" height="10.9"/>
	<rect x="486" y="174.2" class="st7" width="4.1" height="10.9"/>
	<rect x="459.8" y="174.2" class="st7" width="8.2" height="10.9"/>
	<rect x="412.9" y="174.2" class="st8" width="6.1" height="10.9"/>
	<rect x="404" y="174.2" class="st8" width="4.1" height="10.9"/>
	<rect x="426.2" y="174.2" class="st8" width="8.2" height="10.9"/>
	<rect x="447.2" y="174.2" class="st7" width="4.2" height="10.9"/>
	<rect x="443.3" y="174.2" class="st8" width="4" height="10.9"/>
	<g>
		<path class="st5" d="M496.7,147.7h-45.8v16.6h45.8c0.9,0,1.6-0.7,1.6-1.6v-13.3C498.4,148.4,497.6,147.7,496.7,147.7z"/>
		<rect x="440.5" y="147.7" class="st6" width="10.4" height="16.6"/>
		<path class="st6" d="M405.2,147.7c-0.9,0-1.6,0.7-1.6,1.6v13.3c0,0.9,0.7,1.6,1.6,1.6h35.4v-16.6H405.2L405.2,147.7z"/>
	</g>
	<rect x="478.9" y="153.5" class="st7" width="6.1" height="10.9"/>
	<rect x="489.8" y="153.5" class="st7" width="4.1" height="10.9"/>
	<rect x="463.6" y="153.5" class="st7" width="8.2" height="10.9"/>
	<rect x="416.7" y="153.5" class="st8" width="6.1" height="10.9"/>
	<rect x="407.7" y="153.5" class="st8" width="4.1" height="10.9"/>
	<rect x="429.9" y="153.5" class="st8" width="8.2" height="10.9"/>
	<rect x="451" y="153.5" class="st7" width="4.2" height="10.9"/>
	<rect x="447" y="153.5" class="st8" width="4" height="10.9"/>
</g>
<g>
	<g>
		<path class="st5" d="M392.4,189h-45.8v16.6h45.8c0.9,0,1.6-0.7,1.6-1.6v-13.3C394.1,189.7,393.3,189,392.4,189z"/>
		<rect x="334.3" y="189" class="st6" width="12.4" height="16.6"/>
		<path class="st6" d="M300.9,189c-0.9,0-1.6,0.7-1.6,1.6V204c0,0.9,0.7,1.6,1.6,1.6h33.4V189L300.9,189L300.9,189z"/>
	</g>
	<rect x="374.6" y="194.7" class="st7" width="6.1" height="10.9"/>
	<rect x="385.5" y="194.7" class="st7" width="4.1" height="10.9"/>
	<rect x="359.3" y="194.7" class="st7" width="8.2" height="10.9"/>
	<rect x="312.4" y="194.7" class="st8" width="6.1" height="10.9"/>
	<rect x="303.5" y="194.7" class="st8" width="4.1" height="10.9"/>
	<rect x="325.6" y="194.7" class="st8" width="8.2" height="10.9"/>
	<rect x="346.7" y="194.7" class="st7" width="4.2" height="10.9"/>
	<rect x="342.7" y="194.7" class="st8" width="4" height="10.9"/>
	<g>
		<path class="st5" d="M386.7,168.2h-45.8v16.6h45.8c0.9,0,1.6-0.7,1.6-1.6v-13.3C388.3,168.9,387.7,168.2,386.7,168.2z"/>
		<rect x="334.3" y="168.2" class="st6" width="6.7" height="16.6"/>
		<path class="st6" d="M295.2,168.2c-0.9,0-1.6,0.7-1.6,1.6v13.3c0,0.9,0.7,1.6,1.6,1.6h39.1v-16.6H295.2L295.2,168.2z"/>
	</g>
	<rect x="368.9" y="173.9" class="st7" width="6.1" height="10.9"/>
	<rect x="379.8" y="173.9" class="st7" width="4.1" height="10.9"/>
	<rect x="353.6" y="173.9" class="st7" width="8.2" height="10.9"/>
	<rect x="306.7" y="173.9" class="st8" width="6.1" height="10.9"/>
	<rect x="297.8" y="173.9" class="st8" width="4.1" height="10.9"/>
	<rect x="319.9" y="173.9" class="st8" width="8.2" height="10.9"/>
	<rect x="341" y="173.9" class="st7" width="4.2" height="10.9"/>
	<rect x="337.1" y="173.9" class="st8" width="4" height="10.9"/>
	<g>
		<path class="st4" d="M332.4,142.8"/>
		<path class="st5" d="M390.5,147.4h-45.7V164h45.8c0.9,0,1.6-0.7,1.6-1.6v-13.3C392.1,148.2,391.4,147.4,390.5,147.4z"/>
		<rect x="334.3" y="147.4" class="st6" width="10.4" height="16.6"/>
		<path class="st6" d="M298.9,147.4c-0.9,0-1.6,0.7-1.6,1.6v13.3c0,0.9,0.7,1.6,1.6,1.6h35.4v-16.6L298.9,147.4L298.9,147.4z"/>
	</g>
	<rect x="372.6" y="153.1" class="st7" width="6.1" height="10.9"/>
	<rect x="383.5" y="153.1" class="st7" width="4.1" height="10.9"/>
	<rect x="357.3" y="153.1" class="st7" width="8.2" height="10.9"/>
	<rect x="310.4" y="153.1" class="st8" width="6.1" height="10.9"/>
	<rect x="301.5" y="153.1" class="st8" width="4.1" height="10.9"/>
	<rect x="323.7" y="153.1" class="st8" width="8.2" height="10.9"/>
	<rect x="344.7" y="153.1" class="st7" width="4.2" height="10.9"/>
	<rect x="340.8" y="153.1" class="st8" width="4" height="10.9"/>
</g>
<g>
	<g>
		<path class="st5" d="M603.8,188.7H558v16.6h45.8c0.9,0,1.6-0.7,1.6-1.6v-13.3C605.4,189.4,604.6,188.7,603.8,188.7z"/>
		<rect x="545.6" y="188.7" class="st6" width="12.4" height="16.6"/>
		<path class="st6" d="M512.2,188.7c-0.9,0-1.6,0.7-1.6,1.6v13.3c0,0.9,0.7,1.6,1.6,1.6h33.4v-16.6L512.2,188.7L512.2,188.7z"/>
	</g>
	<rect x="585.9" y="194.4" class="st7" width="6.1" height="10.9"/>
	<rect x="596.8" y="194.4" class="st7" width="4.1" height="10.9"/>
	<rect x="570.7" y="194.4" class="st7" width="8.2" height="10.9"/>
	<rect x="523.7" y="194.4" class="st8" width="6.1" height="10.9"/>
	<rect x="514.8" y="194.4" class="st8" width="4.1" height="10.9"/>
	<rect x="537" y="194.4" class="st8" width="8.2" height="10.9"/>
	<rect x="558" y="194.4" class="st7" width="4.2" height="10.9"/>
	<rect x="554" y="194.4" class="st8" width="4" height="10.9"/>
	<g>
		<path class="st5" d="M598.1,167.9h-45.8v16.6h45.8c0.9,0,1.6-0.7,1.6-1.6v-13.3C599.7,168.7,599,167.9,598.1,167.9z"/>
		<rect x="545.6" y="167.9" class="st6" width="6.7" height="16.6"/>
		<path class="st6" d="M506.6,167.9c-0.9,0-1.6,0.7-1.6,1.6v13.3c0,0.9,0.7,1.6,1.6,1.6h39.1v-16.6H506.6L506.6,167.9z"/>
	</g>
	<rect x="580.2" y="173.6" class="st7" width="6.1" height="10.9"/>
	<rect x="591.1" y="173.6" class="st7" width="4.1" height="10.9"/>
	<rect x="564.9" y="173.6" class="st7" width="8.2" height="10.9"/>
	<rect x="518" y="173.6" class="st8" width="6.1" height="10.9"/>
	<rect x="509.1" y="173.6" class="st8" width="4.1" height="10.9"/>
	<rect x="531.2" y="173.6" class="st8" width="8.2" height="10.9"/>
	<rect x="552.3" y="173.6" class="st7" width="4.2" height="10.9"/>
	<rect x="548.4" y="173.6" class="st8" width="4" height="10.9"/>
	<g>
		<path class="st4" d="M543.7,142.5"/>
		<path class="st5" d="M601.8,147.1H556v16.6h45.8c0.9,0,1.6-0.7,1.6-1.6v-13.3C603.4,147.9,602.7,147.1,601.8,147.1z"/>
		<rect x="545.6" y="147.1" class="st6" width="10.4" height="16.6"/>
		<path class="st6" d="M510.3,147.1c-0.9,0-1.6,0.7-1.6,1.6V162c0,0.9,0.7,1.6,1.6,1.6h35.4v-16.5L510.3,147.1L510.3,147.1z"/>
	</g>
	<rect x="584" y="152.8" class="st7" width="6.1" height="10.9"/>
	<rect x="594.8" y="152.8" class="st7" width="4.1" height="10.9"/>
	<rect x="568.6" y="152.8" class="st7" width="8.2" height="10.9"/>
	<rect x="521.7" y="152.8" class="st8" width="6.1" height="10.9"/>
	<rect x="512.8" y="152.8" class="st8" width="4.1" height="10.9"/>
	<rect x="535" y="152.8" class="st8" width="8.2" height="10.9"/>
	<rect x="556" y="152.8" class="st7" width="4.2" height="10.9"/>
	<rect x="552.1" y="152.8" class="st8" width="4" height="10.9"/>
</g>
<path class="st3" d="M397-105.8c-30.6,13.3-55.2,37.9-68.5,68.5v105c13.3,30.6,37.9,55.2,68.5,68.5h52.5v-241.9H397z"/>
<path class="st9" d="M502-105.8h-52.5V136h52.4c30.6-13.2,55.2-37.8,68.5-68.4v-105C557.2-68,532.6-92.6,502-105.8z"/>
<path class="st2" d="M346.3,15.1c0,57,46.2,103.2,103.2,103.2V-88.1C392.5-88.1,346.3-41.9,346.3,15.1z"/>
<path class="st3" d="M552.7,15.1c0-57-46.2-103.2-103.2-103.2v206.5C506.5,118.4,552.7,72.2,552.7,15.1z"/>
<path class="st3" d="M374.3,15.1c0,41.5,33.6,75.2,75.2,75.2V-60C408-60,374.3-26.4,374.3,15.1z"/>
<path class="st9" d="M524.7,15.1c0-41.5-33.6-75.2-75.2-75.2V90.3C491,90.3,524.7,56.6,524.7,15.1z"/>
<path class="st2" d="M403.2,15.1c0,25.6,20.8,46.3,46.3,46.3v-92.6C423.9-31.2,403.2-10.5,403.2,15.1z"/>
<path class="st3" d="M495.8,15.1c0-25.6-20.8-46.3-46.3-46.3v92.6C475.1,61.4,495.8,40.7,495.8,15.1z"/>
<g>
	<path class="st1" d="M506-104c-0.2,0.2-0.3,0.5-0.4,0.7c-0.7,1.7,0.2,3.9,2.4,6.2l7.5,7.5l19.4,19.3l19.3,19.4l7.5,7.5
		c2.3,2.3,4.4,3.2,6.2,2.4c0.2-0.1,0.5-0.2,0.7-0.4C555.5-68.7,533.4-90.9,506-104z"/>
	<path class="st1" d="M526.6-61.9l8.3-8.4l-13.6-13.6l-8.4,8.3l0,0l-5.2,5.2c10.8,7.4,20,16.6,27.3,27.3l5.2-5.2v-0.1l8.3-8.3
		l-13.6-13.6L526.6-61.9z"/>
	<path class="st1" d="M487.2-49.8L466-28.6c12.5,4.8,22.5,14.7,27.2,27.2l21.2-21.2C507.9-33.8,498.5-43.2,487.2-49.8z"/>
	<path class="st1" d="M561.8,73.7l-7.5,7.5L535,100.5l-19.4,19.3l-7.5,7.5c-2.3,2.3-3.2,4.4-2.4,6.2c0.1,0.2,0.2,0.5,0.4,0.7
		c27.3-13,49.5-35.2,62.6-62.6c-0.2-0.2-0.5-0.3-0.7-0.4C566.2,70.5,564,71.4,561.8,73.7z"/>
	<path class="st1" d="M540.2,78.5L540.2,78.5l-5.2-5.2c-7.4,10.8-16.6,20-27.3,27.3l5.2,5.2h0.1l8.3,8.3l13.6-13.6l-8.4-8.3v-0.1
		h0.1l8.3,8.3l13.6-13.6L540.2,78.5L540.2,78.5z"/>
	<path class="st1" d="M466.1,58.9l21.2,21.2c11.3-6.6,20.6-16,27.2-27.2l-21.2-21.2C488.5,44.2,478.6,54.2,466.1,58.9z"/>
</g>
<g>
	<path class="st0" d="M558.5-105.8h-46.8c-2.7,0-4.8,0.7-5.7,1.9c27.3,13,49.5,35.2,62.6,62.6c1.2-1,1.9-2.9,1.9-5.7v-46.8
		c0-3.2-1.3-6.2-3.5-8.5C564.7-104.6,561.8-105.8,558.5-105.8z"/>
	<path class="st0" d="M507.8-70.3l-20.5,20.5c11.3,6.6,20.6,16,27.2,27.2L535-43.2C527.7-53.8,518.5-63.1,507.8-70.3z"/>
	<path class="st0" d="M466.1-28.6l-2.8,2.8c-1.9,1.9-1.9,5.1,0,7l10.1,10.1l10.1,10.1c1.9,1.9,5.1,1.9,7,0l2.8-2.8
		C488.5-13.9,478.6-23.9,466.1-28.6z"/>
	<path class="st0" d="M568.6,71.7c-13,27.3-35.2,49.5-62.6,62.6c1,1.2,2.9,1.9,5.7,1.9h46.8c3.2,0,6.2-1.3,8.5-3.5
		c2.2-2.3,3.5-5.3,3.5-8.5V77.3C570.5,74.6,569.8,72.6,568.6,71.7z"/>
	<path class="st0" d="M487.3,80.1l20.5,20.5c10.7-7.2,19.9-16.6,27.2-27.2l-20.5-20.5C507.9,64.2,498.5,73.5,487.3,80.1z"/>
	<path class="st0" d="M483.5,28.9L473.4,39l-10.1,10.1c-1.9,1.9-1.9,5.1,0,7l2.8,2.8c12.5-4.8,22.5-14.7,27.2-27.2l-2.8-2.8
		C488.5,26.9,485.4,26.9,483.5,28.9z"/>
</g>
<g>
	<path class="st0" d="M386-75.5l-8.3-8.3l-13.6,13.6l8.4,8.3v0.1h-0.1l-8.3-8.3l-13.6,13.6l8.3,8.3v0.1L364-43
		c7.4-10.8,16.6-20,27.3-27.3L386-75.5L386-75.5z"/>
	<path class="st0" d="M393-104c-27.3,13-49.5,35.2-62.6,62.6c0.2,0.2,0.5,0.3,0.7,0.4c1.7,0.7,3.9-0.2,6.2-2.4l7.5-7.5l19.3-19.4
		l19.4-19.3l7.5-7.5c2.3-2.3,3.2-4.4,2.4-6.2C393.3-103.5,393.2-103.7,393-104z"/>
	<path class="st0" d="M384.6-22.6l21.2,21.2c4.8-12.5,14.7-22.5,27.2-27.2l-21.2-21.2C400.5-43.2,391.1-33.8,384.6-22.6z"/>
	<path class="st0" d="M383.4,119.8L364,100.5l-19.3-19.4l-7.5-7.5c-2.3-2.3-4.4-3.2-6.2-2.4c-0.2,0.1-0.5,0.2-0.7,0.4
		c13,27.3,35.2,49.5,62.6,62.6c0.2-0.2,0.3-0.5,0.4-0.7c0.7-1.7-0.2-3.9-2.4-6.2L383.4,119.8z"/>
	<path class="st0" d="M364,73.4l-5.2,5.2v0.1l-8.3,8.3l13.6,13.6l8.3-8.4h0.1v0.1l-8.3,8.3l13.6,13.6l8.3-8.3h0.1l5.2-5.2
		C380.5,93.3,371.3,84.1,364,73.4z"/>
	<path class="st0" d="M405.8,31.7l-21.2,21.2c6.6,11.3,16,20.6,27.2,27.2L433,58.9C420.4,54.2,410.5,44.2,405.8,31.7z"/>
</g>
<g>
	<path class="st8" d="M330.4-41.4c13-27.3,35.2-49.5,62.6-62.6c-1-1.2-2.9-1.9-5.7-1.9h-46.8c-3.2,0-6.2,1.3-8.5,3.5
		c-2.2,2.3-3.5,5.3-3.5,8.5V-47C328.5-44.3,329.2-42.3,330.4-41.4z"/>
	<path class="st8" d="M432.9-28.6c-12.5,4.8-22.5,14.7-27.2,27.2l2.8,2.8c1.9,1.9,5.1,1.9,7,0l10.1-10.1l10.1-10.1
		c1.9-1.9,1.9-5.1,0-7L432.9-28.6z"/>
	<path class="st8" d="M393,134.2c-27.3-13-49.5-35.2-62.6-62.6c-1.2,1-1.9,2.9-1.9,5.7v46.8c0,3.2,1.3,6.2,3.5,8.5
		c2.3,2.2,5.3,3.5,8.5,3.5h46.8C390,136.1,392.1,135.4,393,134.2z"/>
	<path class="st8" d="M384.5,52.9L364,73.4c7.2,10.7,16.6,19.9,27.2,27.2l20.5-20.5C400.5,73.5,391.1,64.2,384.5,52.9z"/>
	<path class="st8" d="M364-43.1l20.5,20.5c6.6-11.3,16-20.6,27.2-27.2l-20.5-20.5C380.5-63.1,371.3-53.8,364-43.1z"/>
	<path class="st8" d="M425.6,39l-10.1-10.1c-1.9-1.9-5.1-1.9-7,0l-2.8,2.8c4.8,12.5,14.7,22.5,27.2,27.2l2.8-2.8
		c1.9-1.9,1.9-5.1,0-7L425.6,39z"/>
</g>
</svg>
