<?xml version="1.0" encoding="utf-8"?>
<!-- Generator: Adobe Illustrator 25.4.1, SVG Export Plug-In . SVG Version: 6.00 Build 0)  -->
<svg version="1.1" id="Layer_1" xmlns="http://www.w3.org/2000/svg" xmlns:xlink="http://www.w3.org/1999/xlink" x="0px" y="0px"
	 viewBox="206 -206 512 512" style="enable-background:new 206 -206 512 512;" xml:space="preserve">
<style type="text/css">
	.st0{fill:#0295AA;}
	.st1{fill:#4ACFD9;}
	.st2{fill:#9BAAAB;}
	.st3{fill:#CDD4D5;}
	.st4{fill:#FFD1A9;}
	.st5{fill:#FF8C29;}
	.st6{fill:#687F82;}
	.st7{fill:#365558;}
	.st8{fill:#F0353D;}
	.st9{fill:#FD6A33;}
</style>
<path class="st0" d="M355.5-181.4c-2.8,2.8-4.5,6.7-4.5,10.9c0,8.5,7,15.5,15.5,15.5h83v28h-150c-6.6,0-12,5.4-12,12v330
	c0,6.6,5.4,12,12,12h150v11c-18.2,0-33,14.8-33,33c0,18.2,14.8,33,33,33v2h-114c-32.7,0-59.5-26.8-59.5-59.5v-393
	c0-32.7,26.8-59.5,59.5-59.5h114v20h-83C362.2-186,358.4-184.3,355.5-181.4z"/>
<path class="st1" d="M623-146.5v393c0,32.7-26.8,59.5-59.5,59.5h-114v-2c18.2,0,33-14.8,33-33c0-18.2-14.8-33-33-33v-11h150
	c6.6,0,12-5.4,12-12v-330c0-6.6-5.4-12-12-12h-150v-28h83c4.3,0,8.1-1.7,11-4.5s4.5-6.7,4.5-11c0-8.5-7-15.5-15.5-15.5h-83v-20h114
	C596.2-206,623-179.2,623-146.5z"/>
<path class="st2" d="M449.5-186v31h-83c-8.5,0-15.5-7-15.5-15.5c0-4.3,1.7-8.1,4.5-10.9c2.8-2.8,6.7-4.6,11-4.6H449.5z"/>
<path class="st3" d="M548-170.5c0,4.3-1.7,8.1-4.5,11s-6.7,4.5-11,4.5h-83v-31h83C541-186,548-179,548-170.5z"/>
<path class="st2" d="M449.5-127v354h-150c-6.6,0-12-5.4-12-12v-330c0-6.6,5.4-12,12-12H449.5z"/>
<path class="st3" d="M611.5-115v330c0,6.6-5.4,12-12,12h-150v-354h150C606.1-127,611.5-121.6,611.5-115z"/>
<path class="st2" d="M449.5,238v66c-18.2,0-33-14.8-33-33C416.5,252.8,431.3,238,449.5,238z"/>
<path class="st3" d="M482.5,271c0,18.2-14.8,33-33,33v-66C467.7,238,482.5,252.8,482.5,271z"/>
<path class="st4" d="M521.8-88.4"/>
<path class="st4" d="M526.1-52.4"/>
<polygon class="st4" points="308.1,116.5 308.1,188.6 590.9,188.6 590.9,-33.6 521.7,47.2 449.5,110.7 374.5,41.4 "/>
<polygon class="st5" points="374.5,41.4 308.1,116.5 308.1,188.6 448.8,188.6 448.8,110 "/>
<path class="st2" d="M588-91H311c-3,0-5.4,2.4-5.4,5.4v271.3c0,3,2.4,5.4,5.4,5.4H588c3,0,5.4-2.4,5.4-5.4V-85.6
	C593.5-88.6,591-91,588-91z M516.2,41.8h-61.3v-58.4h61.3V41.8z M527.1-16.7h55.6v58.4h-55.6V-16.7z M454.9-27.5v-52.7h61.3v52.7
	H454.9z M444.1-27.5h-61.3v-52.7h61.3V-27.5z M444.1-16.7v58.4h-61.3v-58.4H444.1z M371.9,41.8h-55.6v-58.4h55.6V41.8z M316.4,52.6
	h55.6V111h-55.6V52.6z M382.8,52.6h61.3V111h-61.3V52.6z M444.1,121.9v58.4h-61.3v-58.4L444.1,121.9L444.1,121.9z M454.9,121.9h61.3
	v58.4h-61.3V121.9L454.9,121.9z M454.9,111V52.6h61.3V111L454.9,111L454.9,111z M527.1,52.6h55.6V111h-55.6V52.6z M582.6-27.5h-55.6
	v-52.7h55.6V-27.5z M371.9-80.2v52.7h-55.6v-52.7H371.9z M316.4,121.9h55.6v58.4h-55.6V121.9z M527.1,180.3v-58.4h55.6v58.4H527.1z"
	/>
<path class="st6" d="M311-91c-3,0-5.4,2.4-5.4,5.4v271.3c0,3,2.4,5.4,5.4,5.4h137.8V-91H311z M371.9,180.3h-55.6v-58.4h55.6V180.3z
	 M371.9,111h-55.6V52.6h55.6V111z M371.9,41.8h-55.6v-58.4h55.6V41.8z M371.9-27.5h-55.6v-52.7h55.6V-27.5z M444.1,180.3h-61.3
	v-58.4h61.3V180.3z M444.1,111h-61.3V52.6h61.3V111z M444.1,41.8h-61.3v-58.4h61.3V41.8z M382.8-27.5v-52.7h61.3v52.7H382.8z"/>
<path class="st7" d="M311,124.8c-1.3,0-2.6-0.5-3.7-1.4c-2.2-2-2.3-5.4-0.3-7.6l66.4-72.2c1-1.1,2.4-1.7,3.8-1.7
	c1.5,0,2.9,0.5,3.9,1.5l68.4,65.7l68.3-65.6l63.4-69.1c2-2.2,5.4-2.4,7.6-0.3c2.2,2,2.4,5.4,0.3,7.6l-63.5,69.3
	c-0.1,0.1-0.2,0.2-0.2,0.2l-72.2,69.3c-2.1,2-5.4,2-7.5,0l-68.2-65.4L314.9,123C313.9,124.2,312.4,124.8,311,124.8z"/>
<path class="st8" d="M311,96.6c-10.9,0-19.8,8.9-19.8,19.8s8.9,19.8,19.8,19.8s19.8-8.9,19.8-19.8S321.9,96.6,311,96.6z"/>
<path class="st0" d="M377.3,27.3c-10.9,0-19.8,8.9-19.8,19.8c0,10.9,8.9,19.8,19.8,19.8s19.8-8.9,19.8-19.8S388.3,27.3,377.3,27.3z"
	/>
<path class="st9" d="M449.5,96.6c-10.9,0-19.8,8.9-19.8,19.8s8.9,19.8,19.8,19.8c10.9,0,19.8-8.9,19.8-19.8S460.4,96.6,449.5,96.6z"
	/>
<path class="st8" d="M429.7,116.5c0,10.7,8.5,19.4,19.1,19.8V96.6C438.2,97,429.7,105.8,429.7,116.5z"/>
<g>
	<path class="st1" d="M521.7,27.3c-10.9,0-19.8,8.9-19.8,19.8c0,10.9,8.9,19.8,19.8,19.8c10.9,0,19.8-8.9,19.8-19.8
		S532.6,27.3,521.7,27.3z"/>
	<path class="st1" d="M585.2-41.9c-10.9,0-19.8,8.9-19.8,19.8s8.9,19.8,19.8,19.8c10.9,0,19.8-8.9,19.8-19.8S596.1-41.9,585.2-41.9z
		"/>
</g>
</svg>
