<?xml version="1.0" encoding="utf-8"?>
<!-- Generator: Adobe Illustrator 25.4.1, SVG Export Plug-In . SVG Version: 6.00 Build 0)  -->
<svg version="1.1" id="Layer_1" xmlns="http://www.w3.org/2000/svg" xmlns:xlink="http://www.w3.org/1999/xlink" x="0px" y="0px"
	 viewBox="206 -206 512 512" style="enable-background:new 206 -206 512 512;" xml:space="preserve">
<style type="text/css">
	.st0{fill:#0295AA;}
	.st1{fill:#4ACFD9;}
	.st2{fill:#9BAAAB;}
	.st3{fill:#CDD4D5;}
	.st4{fill:#FFD1A9;}
	.st5{fill:#FF8C29;}
	.st6{fill:#FD6A33;}
	.st7{fill:#FFFFFF;}
	.st8{fill:#F0353D;}
</style>
<path class="st0" d="M355.5-181.4c-2.8,2.8-4.5,6.7-4.5,10.9c0,8.5,7,15.5,15.5,15.5h83v28h-150c-6.6,0-12,5.4-12,12v330
	c0,6.6,5.4,12,12,12h150v11c-18.2,0-33,14.8-33,33c0,18.2,14.8,33,33,33v2h-114c-32.7,0-59.5-26.8-59.5-59.5v-393
	c0-32.7,26.8-59.5,59.5-59.5h114v20h-83C362.2-186,358.4-184.3,355.5-181.4z"/>
<path class="st1" d="M623-146.5v393c0,32.7-26.8,59.5-59.5,59.5h-114v-2c18.2,0,33-14.8,33-33c0-18.2-14.8-33-33-33v-11h150
	c6.6,0,12-5.4,12-12v-330c0-6.6-5.4-12-12-12h-150v-28h83c4.3,0,8.1-1.7,11-4.5s4.5-6.7,4.5-11c0-8.5-7-15.5-15.5-15.5h-83v-20h114
	C596.2-206,623-179.2,623-146.5z"/>
<path class="st2" d="M449.5-186v31h-83c-8.5,0-15.5-7-15.5-15.5c0-4.3,1.7-8.1,4.5-10.9c2.8-2.8,6.7-4.6,11-4.6H449.5z"/>
<path class="st3" d="M548-170.5c0,4.3-1.7,8.1-4.5,11s-6.7,4.5-11,4.5h-83v-31h83C541-186,548-179,548-170.5z"/>
<path class="st2" d="M449.5-127v354h-150c-6.6,0-12-5.4-12-12v-330c0-6.6,5.4-12,12-12H449.5z"/>
<path class="st3" d="M611.5-115v330c0,6.6-5.4,12-12,12h-150v-354h150C606.1-127,611.5-121.6,611.5-115z"/>
<path class="st2" d="M449.5,238v66c-18.2,0-33-14.8-33-33C416.5,252.8,431.3,238,449.5,238z"/>
<path class="st3" d="M482.5,271c0,18.2-14.8,33-33,33v-66C467.7,238,482.5,252.8,482.5,271z"/>
<path class="st4" d="M521.8-88.4"/>
<path class="st4" d="M526.1-52.4"/>
<path class="st5" d="M608.1,162.3L483.9,37.9c-2.1-2.1-5.6-2.1-7.8,0l-53.9,53.9c-1,1-1.6,2.4-1.6,3.9c0,1.4,0.6,2.8,1.6,3.9
	l124.3,124.3c1,1,2.5,1.6,3.9,1.6c0.6,0,1.3-0.1,1.9-0.3c2-0.8,3.4-2.5,3.6-4.7l3.8-45.1l45.1-3.8c2.1-0.2,4-1.6,4.7-3.6
	C610.1,166.1,609.7,163.8,608.1,162.3z"/>
<path class="st6" d="M450,64l-27.8,27.8c-1,1-1.6,2.4-1.6,3.9c0,1.4,0.6,2.8,1.6,3.9l124.3,124.3c1,1,2.5,1.6,3.9,1.6
	c0.6,0,1.3-0.1,1.9-0.3c2-0.8,3.4-2.5,3.6-4.7l3.8-45.1l1.6-0.1L450,64z"/>
<path class="st5" d="M476.8,91.8l-53.9-53.9c-2.1-2.1-5.6-2.1-7.8,0L290.9,162.3c-1.5,1.5-2,3.8-1.2,5.8c0.8,2,2.5,3.4,4.7,3.6
	l45.1,3.8l3.8,45.1c0.2,2.1,1.6,4,3.6,4.7c0.6,0.2,1.2,0.3,1.9,0.3c1.4,0,2.8-0.6,3.9-1.6L476.8,99.6c1-1,1.6-2.4,1.6-3.9
	C478.4,94.3,477.9,92.8,476.8,91.8z"/>
<path class="st6" d="M450.5,65.5l-111,111l3.6,44c0.2,2.1,1.6,4,3.6,4.7c0.6,0.2,1.2,0.3,1.9,0.3c1.4,0,2.8-0.6,3.9-1.6L476.8,99.6
	c1-1,1.6-2.4,1.6-3.9c0-1.4-0.6-2.8-1.6-3.9L450.5,65.5z"/>
<path class="st1" d="M582-18.1l-34.8-29.1l-7.8-44.7c-0.5-2.6-2.8-4.5-5.4-4.5h-45.4l-34.8-29.1c-2.1-1.7-5-1.7-7.1,0L412-96.4
	h-45.4c-2.7,0-5,1.9-5.4,4.5l-7.8,44.7l-34.6,29.1c-2.1,1.7-2.5,4.7-1.2,7l22.6,39.3l-7.8,44.7c-0.5,2.6,1,5.2,3.5,6.1l42.6,15.5
	l22.6,39.3c1.3,2.3,4.1,3.3,6.6,2.4l42.6-15.5l42.6,15.5c0.6,0.2,1.2,0.3,1.9,0.3c1.9,0,3.8-1,4.7-2.8l22.6-39.3l42.6-15.5
	c2.5-0.9,4-3.5,3.5-6.1l-7.8-44.7L583-11.1C584.5-13.4,584-16.4,582-18.1z"/>
<path class="st6" d="M449.5-79.7c-48.2,0-87.5,39.3-87.5,87.5s39.3,87.5,87.5,87.5s87.5-39.3,87.5-87.5S497.8-79.7,449.5-79.7z"/>
<path class="st7" d="M512.8-9.6c-0.8-2.3-2.8-3.8-5.2-3.8H467L454.5-52c-0.8-2.3-2.8-3.8-5.2-3.8s-4.5,1.5-5.2,3.8l-12.5,38.5h-40.5
	c-2.4,0-4.5,1.5-5.2,3.8c-0.8,2.3,0.1,4.7,2,6.1l32.8,23.8L408,58.8c-0.8,2.3,0.1,4.7,2,6.1c1,0.7,2.1,1,3.2,1c1.1,0,2.3-0.3,3.2-1
	l32.8-23.8L482.1,65c1.9,1.4,4.5,1.4,6.5,0c1.9-1.4,2.8-3.9,2-6.1l-12.5-38.5l32.8-23.8C512.7-4.9,513.4-7.4,512.8-9.6z"/>
<path class="st0" d="M446.8-125.5l-34.8,29.1h-45.4c-2.7,0-5,1.9-5.4,4.5l-7.8,44.7l-34.7,29.1c-2.1,1.7-2.5,4.7-1.2,7l22.6,39.3
	l-7.8,44.7c-0.5,2.6,1,5.2,3.5,6.1l42.6,15.5l22.6,39.3c1.3,2.3,4.1,3.3,6.6,2.4l41.8-15.2v-247.7
	C448.5-126.6,447.6-126.2,446.8-125.5z"/>
<path class="st8" d="M362,7.8c0,48.2,39.3,87.5,87.5,87.5V-79.7C401.3-79.7,362-40.4,362,7.8z"/>
<path class="st4" d="M449.2-55.8c-2.4,0-4.5,1.5-5.2,3.8l-12.5,38.5h-40.5c-2.4,0-4.5,1.5-5.2,3.8c-0.8,2.3,0.1,4.7,2,6.1l32.8,23.8
	L408,58.8c-0.8,2.3,0.1,4.7,2,6.1c1,0.7,2.1,1,3.2,1c1.1,0,2.3-0.3,3.2-1l32.8-23.8l0.3,0.2v-97C449.4-55.7,449.3-55.8,449.2-55.8z"
	/>
</svg>
