<?xml version="1.0" encoding="utf-8"?>
<!-- Generator: Adobe Illustrator 25.4.1, SVG Export Plug-In . SVG Version: 6.00 Build 0)  -->
<svg version="1.1" id="Layer_1" xmlns="http://www.w3.org/2000/svg" xmlns:xlink="http://www.w3.org/1999/xlink" x="0px" y="0px"
	 viewBox="206 -206 512 512" style="enable-background:new 206 -206 512 512;" xml:space="preserve">
<style type="text/css">
	.st0{fill:#0295AA;}
	.st1{fill:#4ACFD9;}
	.st2{fill:#9BAAAB;}
	.st3{fill:#CDD4D5;}
	.st4{fill:#FFD1A9;}
	.st5{fill:#687F82;}
	.st6{fill:#FFFFFF;}
	.st7{fill:#E6EAEA;}
</style>
<path class="st0" d="M355.5-181.4c-2.8,2.8-4.5,6.7-4.5,10.9c0,8.5,7,15.5,15.5,15.5h83v28h-150c-6.6,0-12,5.4-12,12v330
	c0,6.6,5.4,12,12,12h150v11c-18.2,0-33,14.8-33,33c0,18.2,14.8,33,33,33v2h-114c-32.7,0-59.5-26.8-59.5-59.5v-393
	c0-32.7,26.8-59.5,59.5-59.5h114v20h-83C362.2-186,358.4-184.3,355.5-181.4z"/>
<path class="st1" d="M623-146.5v393c0,32.7-26.8,59.5-59.5,59.5h-114v-2c18.2,0,33-14.8,33-33c0-18.2-14.8-33-33-33v-11h150
	c6.6,0,12-5.4,12-12v-330c0-6.6-5.4-12-12-12h-150v-28h83c4.3,0,8.1-1.7,11-4.5s4.5-6.7,4.5-11c0-8.5-7-15.5-15.5-15.5h-83v-20h114
	C596.2-206,623-179.2,623-146.5z"/>
<path class="st2" d="M449.5-186v31h-83c-8.5,0-15.5-7-15.5-15.5c0-4.3,1.7-8.1,4.5-10.9c2.8-2.8,6.7-4.6,11-4.6H449.5z"/>
<path class="st3" d="M548-170.5c0,4.3-1.7,8.1-4.5,11s-6.7,4.5-11,4.5h-83v-31h83C541-186,548-179,548-170.5z"/>
<path class="st2" d="M449.5-127v354h-150c-6.6,0-12-5.4-12-12v-330c0-6.6,5.4-12,12-12H449.5z"/>
<path class="st3" d="M611.5-115v330c0,6.6-5.4,12-12,12h-150v-354h150C606.1-127,611.5-121.6,611.5-115z"/>
<path class="st2" d="M449.5,238v66c-18.2,0-33-14.8-33-33C416.5,252.8,431.3,238,449.5,238z"/>
<path class="st3" d="M482.5,271c0,18.2-14.8,33-33,33v-66C467.7,238,482.5,252.8,482.5,271z"/>
<path class="st4" d="M521.8-88.4"/>
<path class="st4" d="M526.1-52.4"/>
<path class="st5" d="M461.1-104.2H438c-3,0-5.5,2.5-5.5,5.4v31.8c0,3,2.5,5.4,5.5,5.4h23.1c3,0,5.5-2.5,5.5-5.4v-31.8
	C466.5-101.8,464.1-104.2,461.1-104.2z"/>
<path class="st2" d="M478.4-124.4h-57.8c-3,0-5.4,2.5-5.4,5.4v23.1c0,3,2.5,5.4,5.4,5.4h57.8c3,0,5.5-2.5,5.5-5.4V-119
	C483.8-122,481.4-124.4,478.4-124.4z"/>
<path class="st3" d="M420.6-124.4c-3,0-5.4,2.5-5.4,5.4v23.1c0,3,2.5,5.4,5.4,5.4h28.9v-33.9H420.6z"/>
<path class="st6" d="M472.6-96.3c-3,0-5.5-2.5-5.5-5.4v-11.6c0-3,2.5-5.4,5.5-5.4c3,0,5.5,2.5,5.5,5.4v11.6
	C478-98.7,475.6-96.3,472.6-96.3z"/>
<path class="st7" d="M449.5-69.5c-81,0-147,66-147,147s66,147,147,147s147-66,147-147S530.6-69.5,449.5-69.5z"/>
<path class="st3" d="M302.5,77.5c0,81,66,147,147,147V-69.5C368.5-69.5,302.5-3.6,302.5,77.5z"/>
<path class="st1" d="M449.5-32c-60.4,0-109.4,49.1-109.4,109.4s49.1,109.4,109.4,109.4s109.4-49.1,109.4-109.4S509.9-32,449.5-32z
	 M449.5,144.2c-36.9,0-66.8-30-66.8-66.8s30-66.8,66.8-66.8s66.8,30,66.8,66.8S486.4,144.2,449.5,144.2z"/>
<path class="st0" d="M382.7,77.5c0-36.9,30-66.8,66.8-66.8V-32c-60.4,0-109.4,49.1-109.4,109.4s49.1,109.4,109.4,109.4v-42.6
	C412.6,144.2,382.7,114.3,382.7,77.5z"/>
<path class="st5" d="M340.1,77.5v5.5h42.6v-5.5c0-36.9,30-66.8,66.8-66.8V-32C389.2-32,340.1,17.1,340.1,77.5z"/>
<path class="st5" d="M449.5,40.3c-20.5,0-37.2,16.7-37.2,37.2s16.7,37.2,37.2,37.2c20.5,0,37.2-16.7,37.2-37.2S470,40.3,449.5,40.3z
	"/>
<path class="st6" d="M466.8,82.8c-3,0-5.5-2.5-5.5-5.5c0-6.5-5.3-11.9-11.9-11.9c-3,0-5.4-2.5-5.4-5.5s2.5-5.5,5.4-5.5
	c12.5,0,22.8,10.2,22.8,22.8C472.3,80.5,469.8,82.8,466.8,82.8z"/>
</svg>
