<?xml version="1.0" encoding="utf-8"?>
<!-- Generator: Adobe Illustrator 25.4.1, SVG Export Plug-In . SVG Version: 6.00 Build 0)  -->
<svg version="1.1" id="Layer_1" xmlns="http://www.w3.org/2000/svg" xmlns:xlink="http://www.w3.org/1999/xlink" x="0px" y="0px"
	 viewBox="206 -206 512 512" style="enable-background:new 206 -206 512 512;" xml:space="preserve">
<style type="text/css">
	.st0{fill:#0295AA;}
	.st1{fill:#4ACFD9;}
	.st2{fill:#9BAAAB;}
	.st3{fill:#CDD4D5;}
	.st4{fill:#FFD1A9;}
	.st5{fill:#FF8C29;}
	.st6{fill:#687F82;}
	.st7{fill:#FFFFFF;}
	.st8{fill:#E6EAEA;}
	.st9{fill:#FD6A33;}
	.st10{fill:#365558;}
	.st11{fill:#F0353D;}
</style>
<path class="st0" d="M355.5-181.4c-2.8,2.8-4.5,6.7-4.5,10.9c0,8.5,7,15.5,15.5,15.5h83v28h-150c-6.6,0-12,5.4-12,12v330
	c0,6.6,5.4,12,12,12h150v11c-18.2,0-33,14.8-33,33c0,18.2,14.8,33,33,33v2h-114c-32.7,0-59.5-26.8-59.5-59.5v-393
	c0-32.7,26.8-59.5,59.5-59.5h114v20h-83C362.2-186,358.4-184.3,355.5-181.4z"/>
<path class="st1" d="M623-146.5v393c0,32.7-26.8,59.5-59.5,59.5h-114v-2c18.2,0,33-14.8,33-33c0-18.2-14.8-33-33-33v-11h150
	c6.6,0,12-5.4,12-12v-330c0-6.6-5.4-12-12-12h-150v-28h83c4.3,0,8.1-1.7,11-4.5s4.5-6.7,4.5-11c0-8.5-7-15.5-15.5-15.5h-83v-20h114
	C596.2-206,623-179.2,623-146.5z"/>
<path class="st2" d="M449.5-186v31h-83c-8.5,0-15.5-7-15.5-15.5c0-4.3,1.7-8.1,4.5-10.9c2.8-2.8,6.7-4.6,11-4.6H449.5z"/>
<path class="st3" d="M548-170.5c0,4.3-1.7,8.1-4.5,11s-6.7,4.5-11,4.5h-83v-31h83C541-186,548-179,548-170.5z"/>
<path class="st2" d="M449.5-127v354h-150c-6.6,0-12-5.4-12-12v-330c0-6.6,5.4-12,12-12H449.5z"/>
<path class="st3" d="M611.5-115v330c0,6.6-5.4,12-12,12h-150v-354h150C606.1-127,611.5-121.6,611.5-115z"/>
<path class="st2" d="M449.5,238v66c-18.2,0-33-14.8-33-33C416.5,252.8,431.3,238,449.5,238z"/>
<path class="st3" d="M482.5,271c0,18.2-14.8,33-33,33v-66C467.7,238,482.5,252.8,482.5,271z"/>
<path class="st4" d="M521.8-88.4"/>
<path class="st4" d="M526.1-52.4"/>
<path class="st5" d="M570-45.8l-25.7-25.7c-1-1-2.3-1.5-3.7-1.5c-1.4,0-2.7,0.6-3.7,1.5l-29.6,29.6c-2,2-2,5.4,0,7.4L533-8.7
	c1,1,2.3,1.5,3.7,1.5c1.4,0,2.7-0.6,3.7-1.5L570-38.4C572-40.4,572-43.7,570-45.8z"/>
<path class="st4" d="M570-38.4c2-2,2-5.4,0-7.4l-25.7-25.7c-1-1-2.3-1.5-3.7-1.5c-1.4,0-2.7,0.6-3.7,1.5l-4.8,4.8l33.1,33.1
	L570-38.4z"/>
<path class="st6" d="M460.7-98.7h-22.4c-2.9,0-5.2,2.3-5.2,5.2v30.7c0,2.9,2.3,5.2,5.2,5.2h22.4c2.9,0,5.2-2.3,5.2-5.2v-30.7
	C465.9-96.4,463.6-98.7,460.7-98.7z"/>
<path class="st2" d="M477.4-118.3h-55.9c-2.9,0-5.2,2.3-5.2,5.2v22.4c0,2.9,2.3,5.2,5.2,5.2h55.9c2.9,0,5.2-2.3,5.2-5.2V-113
	C482.7-115.9,480.3-118.3,477.4-118.3z"/>
<path class="st3" d="M421.6-118.3c-2.9,0-5.2,2.3-5.2,5.2v22.4c0,2.9,2.3,5.2,5.2,5.2h27.9v-32.8H421.6z"/>
<path class="st7" d="M471.9-91c-2.9,0-5.2-2.3-5.2-5.2v-11.2c0-2.9,2.3-5.2,5.2-5.2s5.2,2.3,5.2,5.2v11.2
	C477.1-93.4,474.7-91,471.9-91z"/>
<path class="st8" d="M449.5-65.2C371.1-65.2,307.3-1.4,307.3,77s63.8,142.2,142.2,142.2S591.7,155.4,591.7,77S527.9-65.2,449.5-65.2
	z"/>
<path class="st3" d="M307.3,77c0,78.4,63.8,142.2,142.2,142.2V-65.2C371.1-65.2,307.3-1.4,307.3,77z"/>
<path class="st1" d="M449.5-28.9c-58.4,0-105.8,47.5-105.8,105.8s47.5,105.8,105.8,105.8S555.3,135.3,555.3,77
	S507.9-28.9,449.5-28.9z M449.5,141.6c-35.6,0-64.6-29-64.6-64.6s29-64.6,64.6-64.6s64.6,29,64.6,64.6S485.1,141.6,449.5,141.6z"/>
<path class="st0" d="M384.9,77c0-35.6,29-64.6,64.6-64.6v-41.2c-58.4,0-105.8,47.5-105.8,105.8s47.5,105.8,105.8,105.8v-41.2
	C413.9,141.6,384.9,112.6,384.9,77z"/>
<path class="st9" d="M343.7,77v5.2h41.2V77c0-35.6,29-64.6,64.6-64.6v-41.2C391.1-28.9,343.7,18.6,343.7,77z"/>
<path class="st10" d="M449.5,82.2c-1.3,0-2.7-0.5-3.7-1.5l-61.5-61.5c-2-2-2-5.4,0-7.4c2-2,5.4-2,7.4,0l61.5,61.5c2,2,2,5.4,0,7.4
	C452.2,81.7,450.8,82.2,449.5,82.2z"/>
<path class="st6" d="M449.5,41c-19.8,0-36,16.1-36,36s16.1,36,36,36c19.8,0,36-16.1,36-36C485.5,57.1,469.3,41,449.5,41z"/>
<path class="st7" d="M466.3,82.2c-2.9,0-5.2-2.3-5.2-5.2c0-6.4-5.2-11.5-11.5-11.5c-2.9,0-5.2-2.3-5.2-5.2c0-2.9,2.3-5.2,5.2-5.2
	c12.1,0,22,9.9,22,22C471.5,79.9,469.2,82.2,466.3,82.2z"/>
<g>
	<path class="st11" d="M302.8,6.8c-0.8,0-1.6-0.2-2.4-0.6c-2.6-1.3-3.6-4.5-2.3-7.1c8-15.6,18.5-29.9,31.1-42.4
		c18-18,39-31.4,62.6-39.8c2.7-1,5.7,0.4,6.7,3.2c1,2.7-0.4,5.7-3.2,6.7c-22.1,8-41.9,20.5-58.8,37.4C324.8-24.1,315-10.7,307.5,3.9
		C306.5,5.7,304.7,6.8,302.8,6.8z"/>
	<path class="st11" d="M303.8-37.9c-1.2,0-2.4-0.4-3.3-1.2c-2.2-1.8-2.5-5.1-0.7-7.4c16.2-19.5,35.6-35.6,57.8-47.7
		c2.5-1.4,5.7-0.5,7.1,2.1c1.4,2.5,0.5,5.7-2.1,7.1c-21,11.5-39.5,26.7-54.8,45.2C306.8-38.6,305.3-37.9,303.8-37.9z"/>
</g>
</svg>
