<?xml version="1.0" encoding="utf-8"?>
<!-- Generator: Adobe Illustrator 25.4.1, SVG Export Plug-In . SVG Version: 6.00 Build 0)  -->
<svg version="1.1" id="Layer_1" xmlns="http://www.w3.org/2000/svg" xmlns:xlink="http://www.w3.org/1999/xlink" x="0px" y="0px"
	 viewBox="206 -206 512 512" style="enable-background:new 206 -206 512 512;" xml:space="preserve">
<style type="text/css">
	.st0{fill:#0295AA;}
	.st1{fill:#4ACFD9;}
	.st2{fill:#9BAAAB;}
	.st3{fill:#CDD4D5;}
	.st4{fill:#FFD1A9;}
	.st5{fill:#FF8C29;}
	.st6{fill:#FD6A33;}
	.st7{fill:#E6EAEA;}
	.st8{fill:#FFFFFF;}
</style>
<path class="st0" d="M355.5-181.4c-2.8,2.8-4.5,6.7-4.5,10.9c0,8.5,7,15.5,15.5,15.5h83v28h-150c-6.6,0-12,5.4-12,12v330
	c0,6.6,5.4,12,12,12h150v11c-18.2,0-33,14.8-33,33c0,18.2,14.8,33,33,33v2h-114c-32.7,0-59.5-26.8-59.5-59.5v-393
	c0-32.7,26.8-59.5,59.5-59.5h114v20h-83C362.2-186,358.4-184.3,355.5-181.4z"/>
<path class="st1" d="M623-146.5v393c0,32.7-26.8,59.5-59.5,59.5h-114v-2c18.2,0,33-14.8,33-33c0-18.2-14.8-33-33-33v-11h150
	c6.6,0,12-5.4,12-12v-330c0-6.6-5.4-12-12-12h-150v-28h83c4.3,0,8.1-1.7,11-4.5s4.5-6.7,4.5-11c0-8.5-7-15.5-15.5-15.5h-83v-20h114
	C596.2-206,623-179.2,623-146.5z"/>
<path class="st2" d="M449.5-186v31h-83c-8.5,0-15.5-7-15.5-15.5c0-4.3,1.7-8.1,4.5-10.9c2.8-2.8,6.7-4.6,11-4.6H449.5z"/>
<path class="st3" d="M548-170.5c0,4.3-1.7,8.1-4.5,11s-6.7,4.5-11,4.5h-83v-31h83C541-186,548-179,548-170.5z"/>
<path class="st2" d="M449.5-127v354h-150c-6.6,0-12-5.4-12-12v-330c0-6.6,5.4-12,12-12H449.5z"/>
<path class="st3" d="M611.5-115v330c0,6.6-5.4,12-12,12h-150v-354h150C606.1-127,611.5-121.6,611.5-115z"/>
<path class="st2" d="M449.5,238v66c-18.2,0-33-14.8-33-33C416.5,252.8,431.3,238,449.5,238z"/>
<path class="st3" d="M482.5,271c0,18.2-14.8,33-33,33v-66C467.7,238,482.5,252.8,482.5,271z"/>
<path class="st4" d="M521.8-88.4"/>
<path class="st4" d="M526.1-52.4"/>
<path class="st1" d="M591.2-47.3c-7.3,0-73.9,0-141.9,0V3.6c5.2,0.5,10.1,1.1,15.7,2.3c15.4,3.2,50,12.3,57,17.5c0,0,3.8,2.6,7,5.2
	c3.2,2.6,14.7,13.6,21.8,32.4c7,18.8-0.6,53.2-13.5,70.7c-12.8,17.5-34,26.6-66,29.2c-6.7,0.5-14.2,0.4-22.1-0.4v21.8
	c35.3,3.4,54-1.6,77.9-13.6c34.6-17.4,34.4-29.8,51.2-37.6c19.4-9,23.7-139.5,28.2-158.3C611-46,606.6-47.3,591.2-47.3z"/>
<path class="st0" d="M358.3,129.1c-20.4-14.1-33.6-33.7-37.5-61.5c-3.8-27.8,15.4-44.9,30.1-54.6c14.7-9.7,39.7-13,64.7-11.7
	c14.7,1.2,24.5,1.4,33.6,2.2v-50.9c-75.2,0-152.1,0-152.1,0c-3.9,0-7.2,0.9-9.7,2.7V7.9c3.1,26.7,6.8,58.3,8.3,66.7
	c2.6,14.3,15.4,46.7,42.9,68.1c27.6,21.4,73.9,36.1,110.4,39.6c0,0,0.1,0,0.1,0v-21.8C419.1,157.6,382.4,145.8,358.3,129.1z"/>
<path class="st5" d="M465,5.9c-5.6-1.2-10.5-1.8-15.7-2.3V68c2.7,10.4,2.2,18.5,0,25.2v29.3c11.4-9.5,23.3-22.3,27.9-33.7
	c7-17.5,2.6-44.8,1.9-50c-0.6-5.2,1.3-3.2,3.8-3.2c2.6,0,14.1-1.9,23.1-4.5c9-2.6,16-7.8,16-7.8C514.9,18.2,480.3,9.1,465,5.9z"/>
<path class="st6" d="M433.6,115.5c-10.9,11-26.8,17.2-32.4,19.8c-3.2,1.5-1,6.7,1.9,7.1c5.7,0.8,17.4-2,29.2-8.1
	c4.7-2.4,10.8-6.6,17-11.8V93.3C446.2,102.5,439.8,109.2,433.6,115.5z"/>
<path class="st6" d="M415.6,6.5c-0.4,4.1-0.6,9.4,8.3,22.7c11.5,17,18.6,13.6,25.2,38.4c0,0.1,0.1,0.3,0.1,0.4V3.6
	c-9.1-0.8-18.9-1-33.6-2.2C415.6,1.3,415.9,3.5,415.6,6.5z"/>
<path class="st7" d="M449.3-115.1v89.6c11.4,0,22.5,0,32.4,0c27,0,61,9.2,85.7,39.7s8.2,104.8,10.1,151.6
	c0.6,38.4,1.3,46.7,7.6,46.7c6.3,0,25.9,0,25.9,0v-327.5H449.3z"/>
<path class="st3" d="M287.5-115.1v89.6h55.2c0,0,56.7,0,106.6,0v-89.6H287.5z"/>
<path class="st8" d="M479.3-64h-30v19.2h30c4.3,0,7.9-4.3,7.9-9.6S483.6-64,479.3-64z"/>
<path class="st7" d="M318.7-64c-4.3,0-7.9,4.3-7.9,9.6s3.5,9.6,7.9,9.6h130.6V-64H318.7z"/>
<path class="st8" d="M479.3-99.1h-30V-80h30c4.3,0,7.9-4.3,7.9-9.6S483.6-99.1,479.3-99.1z"/>
<path class="st7" d="M318.7-99.1c-4.3,0-7.9,4.3-7.9,9.6s3.5,9.6,7.9,9.6h130.6v-19.2H318.7z"/>
<ellipse class="st6" cx="580" cy="-58.8" rx="20.9" ry="21.1"/>
</svg>
