<svg version="1" xmlns="http://www.w3.org/2000/svg" width="1365.333" height="1365.333" viewBox="0 0 1024.000000 1024.000000"><path d="M685.9 27.4c-.2.2-3 .7-6.1 1-12.6 1.5-34.6 8.5-45.2 14.5-2 1.2-5.3 3.1-7.3 4.2-14.3 8.1-30.2 22.3-43.5 38.8-5.9 7.4-16.2 22.1-15.5 22.1.2 0 3.6-1.7 7.5-3.9 17.4-9.6 28.8-12.1 52.2-11.7 13.4.3 17.7.8 23.1 2.5 25.1 8 45.2 36.6 58.9 83.7 1.8 6 3.3 11.6 3.5 12.4 2.3 10.8 3.5 17.1 4 20 .3 1.9 1 6 1.5 9 1.2 7.3 1.8 11.3 2.5 18.5.4 3.3.8 7.6 1.1 9.5 1.6 14.3 2.2 51.4 1 69.5-1.4 21.3-1.5 26-.5 31 .5 2.7 1.2 6.3 1.5 8 2.3 12.9 20.6 69 33.4 102.5 1.6 4.1 4.8 12.4 7.1 18.5 17.1 45.2 47.3 118.6 49.1 119.3.4.2.8.9.8 1.5.1 3.8 18.3 22 29.2 29.1 4.7 3.1 8.8 5.6 9 5.6.3 0-3.2-10.9-7.7-24.3-4.5-13.3-8.4-25.3-8.7-26.7-.4-1.4-2-7.2-3.7-13-4.3-14.5-12.2-45.3-13.7-54-.3-1.4-.7-3.3-1-4.2-.3-1-.7-3-1-4.5-.2-1.6-.9-4.8-1.4-7.3-.5-2.5-1.4-7.2-2-10.5-.5-3.3-1.2-7.1-1.5-8.5-.3-1.4-1-5.7-1.5-9.5-.6-3.9-1.2-8.1-1.5-9.5-.3-2.3-.7-5.4-2-16.3-3.1-25.8-3.8-58.6-1.5-73.2.7-4.4 2.2-10.7 3.5-14 2.3-6.1 9-28.9 9.9-33.5.3-1.4 1.2-5.2 2-8.5s1.7-7.4 1.9-9c.3-1.7 1.4-8.2 2.6-14.6 1.1-6.3 2.3-14.7 2.6-18.5.4-3.8.9-8.3 1.1-9.9 2.2-16.2 2.2-69.4 0-83.5-.2-1.4-.7-5-1.1-8-6.7-56.6-26.4-102.4-53.1-123.1-11.1-8.5-31-16.4-49.9-19.7-9.6-1.7-38.4-2.9-39.6-1.8zM465 215.4c-2.3 3-9.7 11.7-14.5 17-1.1 1.2-5.6 6.2-10 11.1-8.3 9.3-43.9 45.2-53.5 54-51.1 46.9-108.8 86-132.5 90-2.2.4-4.4.8-5 .9-.5.2-2.8.6-5 1.1-24.5 4.7-70 20.4-91 31.3-2.7 1.4-5.2 2.6-5.5 2.7-.7.1-12.3 6.2-16.7 8.7-2.1 1.2-5.4 3.1-7.5 4.2C62.4 471.4 16.3 519 4.3 559.8.9 571.3.5 590 3.4 603.5c2.6 12.1 7.2 25.6 11.8 35 19.6 39.1 52.7 65.8 95.3 76.8 5.5 1.4 12 2.9 14.5 3.2 2.5.4 5.4.9 6.5 1.1 2.8.5 11.7 1.4 19.5 1.9l6.4.4-3.4-2.1c-20.8-12.5-29.7-21.3-39-38.3-1.8-3.3-4.3-7.8-5.5-10-6.1-11.2-8.2-22.8-6.4-35.1 7.4-48 72.3-111.2 159.4-155 10.5-5.3 21-11.2 23.5-13.1 8.7-6.7 26.9-25.3 45.4-46.3 1.7-2 4.9-5.6 7.1-8.1 2.2-2.4 6-6.9 8.5-9.8 2.5-3 5-5.9 5.5-6.5.6-.6 3-3.6 5.5-6.6 6.5-8 7.1-8.6 15.2-18.5 12.7-15.4 51.5-64.5 61.3-77.6 1.1-1.5 5.9-7.8 10.6-14 11.5-15.2 13.3-18.1 16.8-26.9 3-7.7 3.5-9.3 5.1-19 1.2-7.1 1.9-21.9 1.1-22.4-.3-.2-1.7 1.1-3.1 2.8zM563.9 315c-21.5 5.4-43.9 28.6-59.4 61.3-5.2 11-10.1 24.9-12.5 35.7-2 8.8-6.1 16.2-21 37.4-1.8 2.6-17.8 23.2-20.7 26.6-14.7 17.6-22.4 26.2-31.2 35.1-8.7 8.6-12.2 11.3-19.6 15.2-16.7 8.7-25.6 14.5-37 23.8-22.2 18.1-36.8 38.2-41 56.4-1.6 6.6-2.2 17.6-1.1 19.3.3.5.7 2.1 1 3.7.8 4.3 5.3 12.7 9.1 16.8 10.1 11.1 27.7 18.5 50.5 21.3 12.2 1.5 36.1.8 49-1.6 11.6-2 12.6-2.3 20.5-4.5s31.7-2.2 43.5 0c.8.2 4.4.6 8 1 3.6.4 7.4.9 8.4 1.1 1.1.2 4.2.6 6.9.9 2.8.3 5.3.8 5.6.9.3.2 2.9.7 5.6 1 9.1 1.3 39 7.5 47.9 10.1 8.9 2.6 18.5 7 20.6 9.6 1.9 2.3 30.1 16.5 39.5 20 9.1 3.3 26.6 7.7 33.7 8.6 9.2 1.1 23.9.7 30-.7 19.5-4.6 33.3-18.5 36.3-36.7.7-4.2.8-19 .1-20.1-.2-.4-.7-2.4-1-4.6-1-6.1-5.5-18.3-10.3-28.1-4.2-8.3-15.4-26.1-20.1-31.6-5.8-7-14.5-17-18.6-21.4-2.6-2.8-6.5-8-8.7-11.7-6.3-10.8-17.6-35.1-25.4-55.3-1.5-3.9-3.3-8.4-4-10-1.4-3.5-4.9-12.8-5-13.5 0-.3-1.2-3.7-2.5-7.5-1.3-3.9-2.5-7.5-2.6-8-.1-.6-.9-3.5-1.8-6.6-2.6-8.9-2.8-10-2.6-17.4.7-25.5.3-39.3-1.3-49.5-.3-1.4-.8-4.5-1.2-7-.3-2.4-.8-4.7-1-5.1-.2-.3-.7-2.1-1-4-.9-5.4-6.3-20.6-9.7-27.3-7.5-14.9-16.6-24.9-27.5-30.3-6.3-3.1-8.3-3.6-16-3.9-4.8-.2-10.4.1-12.4.6zM340 752.1c-12.3 2.1-18.9 4.4-31.5 10.7-10.5 5.3-11.8 4.4 13 9.2 69 13.5 135.5 34.9 186.8 60.2 24.5 12.1 41 22.8 49.7 32.3 24.3 26.6 37.9 39.4 60 56.6 50.3 39.2 116.2 69.8 162.5 75.5 2.8.3 6.8.9 9 1.3 4.8.9 28.3.6 34-.3 23.2-4 37.1-11.8 56.6-31.7 33-33.8 46.8-81.2 37.4-128.4-3.2-16-8-29.9-16.2-46.5l-4.2-8.5-.1 8c-.1 4.4-.3 8.7-.4 9.5-.2.8-.6 3.8-1 6.6-1.8 14.4-15.1 40.8-26.4 52.7-17.8 18.7-53.6 23.1-99.2 12.2-5.8-1.4-11.5-2.7-12.6-3-1.2-.3-7.7-2.3-14.5-4.6-36.3-12-78-32.8-111.4-55.7-6-4.1-13-8.4-15.5-9.4-2.5-1.1-5.4-2.3-6.5-2.8-5.6-2.4-39.7-11.2-52.5-13.5-1.9-.3-4.2-.7-5-.9-.8-.1-4-.8-7-1.4-9.8-2-26.4-5.1-30-5.6-3-.5-29.1-4.8-37-6.1-1.4-.2-4.3-.7-6.5-1-6.9-1.1-9.8-1.5-15.5-2.5-3-.5-8.2-1.2-11.5-1.6-3.3-.3-6.2-.7-6.5-.9-.3-.2-4.4-.9-9-1.5-4.7-.6-9.6-1.3-11-1.5-1.4-.2-6.3-.9-11-1.5s-9.6-1.3-11-1.5c-5.9-.8-10.8-1.5-15-2-5.1-.6-9.4-1.2-16-2.1-7.1-.9-20.1-1.1-25-.3z"/></svg>