<?xml version="1.0" encoding="utf-8"?>
<!-- Generator: Adobe Illustrator 19.0.0, SVG Export Plug-In . SVG Version: 6.00 Build 0)  -->
<svg version="1.1" id="Layer_1" focusable="false" xmlns="http://www.w3.org/2000/svg" xmlns:xlink="http://www.w3.org/1999/xlink"
	 x="0px" y="0px" viewBox="-15 -3 350 540" style="enable-background:new -15 -3 350 540;" xml:space="preserve">
<style type="text/css">
	.st0{fill:#FFFFFF;stroke:#000000;stroke-width:30;stroke-linecap:round;stroke-linejoin:round;stroke-miterlimit:10;}
	.st1{display:none;fill:#FFFFFF;}
</style>
<path class="st0" d="M302.2,340.1H196.1l55.8,136c3.9,9.4-0.6,20-9.4,24l-49.2,21.4c-9.2,4-19.4-0.6-23.3-9.7l-53.1-129.1
	l-86.7,89.1C18.7,483.7,0,474.6,0,459V29.3C0,12.9,19.9,4.9,30.3,16.4L314.7,309C326.2,320.2,317.7,340.1,302.2,340.1L302.2,340.1z"
	/>
<path class="st1" d="M241.9,309.5h-84.3l63.1,151.2c2.7,6.6-0.4,14-6.6,16.8l-14.4,5c-6.4,2.8-13.6-0.4-16.3-6.8l-61.1-146.4
	l-70.7,72.4c-8.1,8.3-21.2,1.9-21.2-9V91.9c0-11.5,13.9-17.1,21.2-9l199.1,204.8C258.6,295.5,252.7,309.5,241.9,309.5L241.9,309.5z"
	/>
</svg>
