<?xml version="1.0" encoding="utf-8"?>
<!-- Generator: Adobe Illustrator 19.0.0, SVG Export Plug-In . SVG Version: 6.00 Build 0)  -->
<svg version="1.1" id="Layer_1" xmlns="http://www.w3.org/2000/svg" xmlns:xlink="http://www.w3.org/1999/xlink" x="0px" y="0px"
	 viewBox="96 11 512 512" style="enable-background:new 96 11 512 512;" xml:space="preserve">
<style type="text/css">
	.st0{fill:#0295AA;}
	.st1{fill:#365558;}
	.st2{fill:none;}
	.st3{fill:#4ACFD9;}
</style>
<g>
	<path class="st0" d="M584.8,476.2H352V523h232.6c12.9,0,23.4-10.5,23.4-23.4C608,486.8,597.8,476.5,584.8,476.2z"/>
	<path class="st1" d="M119.4,476.2c-12.9,0-23.4,10.5-23.4,23.4s10.5,23.4,23.4,23.4H352v-46.8H119.4z"/>
	<path class="st0" d="M584.8,11H352v46.8h232.6c12.9,0,23.4-10.5,23.4-23.4C608,21.6,597.8,11.3,584.8,11z"/>
	<path class="st1" d="M119.4,11C106.5,11,96,21.5,96,34.4s10.5,23.4,23.4,23.4H352V11H119.4z"/>
	<path class="st0" d="M112.3,97.5c-8.9,0-16.3,7.3-16.3,16.3v306.5c0,8.9,7.3,16.3,16.3,16.3H352v-339L112.3,97.5L112.3,97.5z
		 M315.8,375h-36v-93.7h-92.3V375h-35.8V159h35.8v90.8h92.3V159h36V375z"/>
	<polygon class="st2" points="315.8,375 279.8,375 279.8,281.3 187.5,281.3 187.5,375 151.6,375 151.6,159 187.5,159 187.5,249.8 
		279.8,249.8 279.8,159 315.8,159 	"/>
	<polygon class="st2" points="315.8,375 279.8,375 279.8,281.3 187.5,281.3 187.5,375 151.6,375 151.6,159 187.5,159 187.5,249.8 
		279.8,249.8 279.8,159 315.8,159 	"/>
	<path class="st2" d="M538.7,376.8H403.2v-16.7c0-6.8,1-13.2,2.9-19.2s4.5-11.6,7.7-16.9s7-10.2,11.3-14.9
		c4.3-4.7,8.9-9.2,13.9-13.6c4.9-4.4,9.9-8.6,15.1-12.6c5.1-4.1,10.1-8.2,15.1-12.3c4.6-3.9,8.8-7.8,12.7-11.5
		c3.8-3.8,7.1-7.7,9.8-11.7c2.7-4,4.8-8.3,6.3-12.7c1.5-4.5,2.3-9.3,2.3-14.5c0-5.7-0.9-10.7-2.6-15c-1.8-4.3-4.2-7.8-7.4-10.7
		s-6.9-5-11.2-6.5c-4.3-1.5-9-2.2-14.2-2.2c-8.8,0-17.8,2.1-27,6.2c-9.1,4.1-17.9,10.3-26.4,18.5v-33.6c4.4-3.3,8.9-6.2,13.4-8.7
		s9.2-4.5,14-6.2s9.9-2.9,15.2-3.7c5.3-0.8,11-1.2,17-1.2c9.7,0,18.6,1.3,26.5,3.8c7.9,2.6,14.7,6.3,20.3,11.3s10,11.2,13,18.6
		c3.1,7.4,4.6,16,4.6,25.6c0,8.7-1.1,16.6-3.2,23.6c-2.2,7-5.2,13.5-9.2,19.5s-8.8,11.7-14.4,17.2c-5.6,5.4-11.9,11-18.8,16.7
		c-5.8,4.7-11.6,9.3-17.4,13.8s-11,8.8-15.6,13.1c-4.6,4.3-8.4,8.5-11.2,12.8c-2.9,4.3-4.3,8.6-4.3,12.9v0.8h97.4L538.7,376.8
		L538.7,376.8z"/>
	<path class="st2" d="M538.7,376.8H403.2v-16.7c0-6.8,1-13.2,2.9-19.2s4.5-11.6,7.7-16.9s7-10.2,11.3-14.9
		c4.3-4.7,8.9-9.2,13.9-13.6c4.9-4.4,9.9-8.6,15.1-12.6c5.1-4.1,10.1-8.2,15.1-12.3c4.6-3.9,8.8-7.8,12.7-11.5
		c3.8-3.8,7.1-7.7,9.8-11.7c2.7-4,4.8-8.3,6.3-12.7c1.5-4.5,2.3-9.3,2.3-14.5c0-5.7-0.9-10.7-2.6-15c-1.8-4.3-4.2-7.8-7.4-10.7
		s-6.9-5-11.2-6.5c-4.3-1.5-9-2.2-14.2-2.2c-8.8,0-17.8,2.1-27,6.2c-9.1,4.1-17.9,10.3-26.4,18.5v-33.6c4.4-3.3,8.9-6.2,13.4-8.7
		s9.2-4.5,14-6.2s9.9-2.9,15.2-3.7c5.3-0.8,11-1.2,17-1.2c9.7,0,18.6,1.3,26.5,3.8c7.9,2.6,14.7,6.3,20.3,11.3s10,11.2,13,18.6
		c3.1,7.4,4.6,16,4.6,25.6c0,8.7-1.1,16.6-3.2,23.6c-2.2,7-5.2,13.5-9.2,19.5s-8.8,11.7-14.4,17.2c-5.6,5.4-11.9,11-18.8,16.7
		c-5.8,4.7-11.6,9.3-17.4,13.8s-11,8.8-15.6,13.1c-4.6,4.3-8.4,8.5-11.2,12.8c-2.9,4.3-4.3,8.6-4.3,12.9v0.8h97.4L538.7,376.8
		L538.7,376.8z"/>
	<path class="st3" d="M591.8,97.5H352v339h239.8c8.9,0,16.3-7.3,16.3-16.3V113.8C608,104.8,600.7,97.5,591.8,97.5z M538.7,376.8
		H403.2v-16.7c0-6.8,1-13.2,2.9-19.2s4.5-11.6,7.7-16.9s7-10.2,11.3-14.9c4.3-4.7,8.9-9.2,13.9-13.6c4.9-4.4,9.9-8.6,15.1-12.6
		c5.1-4.1,10.1-8.2,15.1-12.3c4.6-3.9,8.8-7.8,12.7-11.5c3.8-3.8,7.1-7.7,9.8-11.7c2.7-4,4.8-8.3,6.3-12.7c1.5-4.5,2.3-9.3,2.3-14.5
		c0-5.7-0.9-10.7-2.6-15c-1.8-4.3-4.2-7.8-7.4-10.7s-6.9-5-11.2-6.5c-4.3-1.5-9-2.2-14.2-2.2c-8.8,0-17.8,2.1-27,6.2
		c-9.1,4.1-17.9,10.3-26.4,18.5v-33.6c4.4-3.3,8.9-6.2,13.4-8.7s9.2-4.5,14-6.2s9.9-2.9,15.2-3.7c5.3-0.8,11-1.2,17-1.2
		c9.7,0,18.6,1.3,26.5,3.8c7.9,2.6,14.7,6.3,20.3,11.3s10,11.2,13,18.6c3.1,7.4,4.6,16,4.6,25.6c0,8.7-1.1,16.6-3.2,23.6
		c-2.2,7-5.2,13.5-9.2,19.5s-8.8,11.7-14.4,17.2c-5.6,5.4-11.9,11-18.8,16.7c-5.8,4.7-11.6,9.3-17.4,13.8s-11,8.8-15.6,13.1
		c-4.6,4.3-8.4,8.5-11.2,12.8c-2.9,4.3-4.3,8.6-4.3,12.9v0.8h97.4L538.7,376.8L538.7,376.8z"/>
</g>
</svg>
