<?xml version="1.0" encoding="utf-8"?>
<!-- Generator: Adobe Illustrator 19.0.0, SVG Export Plug-In . SVG Version: 6.00 Build 0)  -->
<svg version="1.1" id="Layer_1" xmlns="http://www.w3.org/2000/svg" xmlns:xlink="http://www.w3.org/1999/xlink" x="0px" y="0px"
	 viewBox="96 11 512 512" style="enable-background:new 96 11 512 512;" xml:space="preserve">
<style type="text/css">
	.st0{fill:#FD6A33;}
	.st1{fill:none;}
	.st2{fill:#F0353D;}
</style>
<g>
	<polygon class="st0" points="458.1,11 352,11 352,212 434.6,129.4 489.4,184.2 406.7,266.9 489.4,349.6 434.4,404.6 352,322.2 
		352,523 458.1,523 608,373.1 608,160.9 	"/>
	<polygon class="st1" points="406.7,266.9 489.4,349.6 434.4,404.6 351.7,321.9 269.6,403.9 214.9,349.2 296.9,267.1 214.6,184.8 
		269.6,129.9 351.9,212.1 434.6,129.4 489.4,184.2 	"/>
	<polygon class="st1" points="406.7,266.9 489.4,349.6 434.4,404.6 351.7,321.9 269.6,403.9 214.9,349.2 296.9,267.1 214.6,184.8 
		269.6,129.9 351.9,212.1 434.6,129.4 489.4,184.2 	"/>
	<polygon class="st2" points="269.6,403.9 214.9,349.2 296.9,267.1 214.6,184.8 269.6,129.9 351.9,212.1 352,212 352,11 245.9,11 
		96,160.9 96,373.1 245.9,523 352,523 352,322.2 351.7,321.9 	"/>
</g>
</svg>
