<?xml version="1.0" encoding="utf-8"?>
<!-- Generator: Adobe Illustrator 19.0.0, SVG Export Plug-In . SVG Version: 6.00 Build 0)  -->
<svg version="1.1" id="Layer_1" xmlns="http://www.w3.org/2000/svg" xmlns:xlink="http://www.w3.org/1999/xlink" x="0px" y="0px"
	 viewBox="96 11 512 512" style="enable-background:new 96 11 512 512;" xml:space="preserve">
<style type="text/css">
	.st0{fill:#FF8C29;}
	.st1{fill:#0295AA;}
	.st2{fill:#FD6A33;}
	.st3{fill:#365558;}
	.st4{fill:#4ACFD9;}
	.st5{fill:#F0353D;}
	.st6{fill:#FFFFFF;}
</style>
<path class="st0" d="M604,11H355.6c-2.2,0-4,3.6-4,8v496c0,4.4,1.8,8,4,8H604c2.2,0,4-3.6,4-8V19C608,14.6,606.2,11,604,11z"/>
<path class="st1" d="M600,11H104c-4.4,0-8,3.6-8,8v149.2h512V19C608,14.6,604.4,11,600,11z"/>
<path class="st2" d="M104,11c-4.4,0-8,3.6-8,8v496c0,4.4,3.6,8,8,8h248V11H104z"/>
<path class="st3" d="M104,11c-4.4,0-8,3.6-8,8v149.2h256V11H104z"/>
<path class="st4" d="M351.6,55.6c-18.6,0-33.7,15.1-33.7,33.7S333,123,351.6,123s33.7-15.1,33.7-33.7S370.1,55.6,351.6,55.6z"/>
<path class="st0" d="M257.5,55.6c-18.6,0-33.7,15.1-33.7,33.7s15.1,33.7,33.7,33.7s33.7-15.1,33.7-33.7S276.1,55.6,257.5,55.6z"/>
<path class="st5" d="M163.4,55.6c-18.6,0-33.7,15.1-33.7,33.7s15.1,33.7,33.7,33.7s33.7-15.1,33.7-33.7S182,55.6,163.4,55.6z"/>
<g>
	<path class="st6" d="M495.3,86.7h-59c-8.4,0-15.2-6.9-15.2-15.2s6.9-15.2,15.2-15.2h59c8.4,0,15.2,6.9,15.2,15.2
		S503.8,86.7,495.3,86.7z"/>
	<path class="st6" d="M576.8,86.7h-32.6c-8.4,0-15.2-6.9-15.2-15.2s6.9-15.2,15.2-15.2h32.6c8.4,0,15.2,6.9,15.2,15.2
		S585.1,86.7,576.8,86.7z"/>
</g>
<path class="st6" d="M293.7,451.6l33.4-20.2c6.4,11.4,12.3,21.1,26.4,21.1c13.5,0,22-5.3,22-25.8V287.3h41v140
	c0,42.5-24.9,61.8-61.2,61.8C322.4,489.1,303.3,472.1,293.7,451.6"/>
<path class="st6" d="M438.7,447.2l33.4-19.3c8.8,14.4,20.2,24.9,40.4,24.9c17,0,27.8-8.5,27.8-20.2c0-14.1-11.1-19-29.9-27.2
	l-10.2-4.4c-29.6-12.6-49.2-28.4-49.2-61.8c0-30.8,23.4-54.2,60-54.2c26.1,0,44.8,9.1,58.3,32.8l-31.9,20.5
	c-7-12.6-14.6-17.6-26.4-17.6c-12,0-19.6,7.6-19.6,17.6c0,12.3,7.6,17.3,25.2,24.9l10.2,4.4c34.9,14.9,54.5,30.2,54.5,64.4
	c0,36.9-29,57.1-67.9,57.1C475.3,489.1,450.7,471,438.7,447.2"/>
</svg>
