<?xml version="1.0" encoding="utf-8"?>
<!-- Generator: Adobe Illustrator 19.0.0, SVG Export Plug-In . SVG Version: 6.00 Build 0)  -->
<svg version="1.1" id="Layer_1" xmlns="http://www.w3.org/2000/svg" xmlns:xlink="http://www.w3.org/1999/xlink" x="0px" y="0px"
	 viewBox="96 11 512 512" style="enable-background:new 96 11 512 512;" xml:space="preserve">
<style type="text/css">
	.st0{display:none;}
	.st1{fill:#F0353D;}
	.st2{fill:#FD6A33;}
</style>
<g id="Layer_1_1_">
	<rect x="603" y="-390" class="st0" width="513" height="512"/>
</g>
<g>
	<path class="st1" d="M299.6,343.5L299.6,343.5V191.2L352,221V87c0,0-160.1,0-200,10.8c-22,5.9-39.4,23.4-45.3,45.6
		C96,183.5,96,267.4,96,267.4s0,83.8,10.7,124c5.9,22.2,23.2,38.9,45.3,44.8C191.9,447,352,447,352,447V313.7L299.6,343.5z"/>
	<path class="st2" d="M552,97.8C512.1,87,352,87,352,87v134l81.5,46.3L352,313.7V447c0,0,160.1,0,200-10.8
		c22-5.9,39.4-22.7,45.3-44.8c10.7-40.2,10.7-124,10.7-124s0-83.8-10.7-124C591.4,121.2,574.1,103.7,552,97.8z"/>
</g>
</svg>
