<?xml version="1.0" encoding="utf-8"?>
<!-- Generator: Adobe Illustrator 19.0.0, SVG Export Plug-In . SVG Version: 6.00 Build 0)  -->
<svg version="1.1" id="Layer_1" xmlns="http://www.w3.org/2000/svg" xmlns:xlink="http://www.w3.org/1999/xlink" x="0px" y="0px"
	 viewBox="96 11 512 512" style="enable-background:new 96 11 512 512;" xml:space="preserve">
<style type="text/css">
	.st0{fill:#FFFFFF;}
	.st1{fill:none;}
	.st2{fill:#FF8C29;}
	.st3{fill:#FD6A33;}
	.st4{fill:#F0353D;}
</style>
<g>
	<g>
		<path class="st0" d="M322.7,320.2h-0.4V333h-34.1V169.6h34.1v69.6h0.4c7.1-10.9,16.9-17.2,29.1-18.8V97.5H108c-6.6,0-12,5.4-12,12
			v315c0,6.6,5.4,12,12,12h243.8V335.7C339,335.3,329.3,330.1,322.7,320.2z M234.3,333l-11-34.4h-55L157.4,333h-37.7L176,178.5h41.3
			l55,154.6h-38L234.3,333L234.3,333z"/>
		<path class="st0" d="M196.1,206.1h-0.9c-0.4,4.5-1.3,9-2.7,13.5l-16.7,52.3h39.6l-16.6-52C197.5,216.1,196.6,211.5,196.1,206.1z"
			/>
		<path class="st0" d="M362.2,253.8c-2.7-3.5-6.1-5.8-10.4-6.9v61.5c3.9-1.4,7.2-4,9.8-7.6c4.3-6,6.4-14.5,6.4-25.5
			C368,266,366,258.9,362.2,253.8z"/>
		<path class="st0" d="M345.4,246c-6.8,0-12.5,2.6-17,7.7s-6.7,11.7-6.7,19.9v11.3c0,7.1,2,13,6.1,17.7s9.3,7,15.7,7
			c3,0,5.7-0.5,8.2-1.4v-61.5C349.8,246.3,347.7,246,345.4,246z"/>
		<path class="st1" d="M508.7,329c-7.7,4.5-18.8,6.7-33.3,6.7c-17,0-30.7-5.1-41.2-15.4s-15.7-23.5-15.7-39.8
			c0-18.8,5.6-33.5,16.9-44.4c11.2-10.8,26.3-16.2,45.1-16.2c13,0,22.4,1.7,28.2,5.2V254c-7.1-5.3-15.1-8-23.8-8
			c-9.8,0-17.5,2.9-23.2,8.6s-8.6,13.6-8.6,23.7c0,9.8,2.7,17.4,8.2,23s13,8.4,22.5,8.4c8.5,0,16.8-2.7,24.9-8V329z"/>
		<path class="st2" d="M596,97.5H351.8v122.9c2.2-0.3,4.4-0.5,6.8-0.5c14.2,0,25.2,4.9,32.9,14.7c7.7,9.8,11.5,23.1,11.5,40.1
			c0,18.4-4.5,33.2-13.5,44.3c-9,11.1-21,16.7-36,16.7c-0.6,0-1.1,0-1.7,0v100.8H596c6.6,0,12-5.4,12-12v-315
			C608,102.9,602.6,97.5,596,97.5z M508.7,254c-7.1-5.3-15.1-8-23.8-8c-9.8,0-17.5,2.9-23.2,8.6s-8.6,13.6-8.6,23.7
			c0,9.8,2.7,17.4,8.2,23s13,8.4,22.5,8.4c8.5,0,16.8-2.7,24.9-8v27.4c-7.7,4.5-18.8,6.7-33.3,6.7c-17,0-30.7-5.1-41.2-15.4
			s-15.7-23.5-15.7-39.8c0-18.8,5.6-33.5,16.9-44.4c11.2-10.8,26.3-16.2,45.1-16.2c13,0,22.4,1.7,28.2,5.2V254z M584.5,166.3h-12.6
			c-3.4,0-6.2,2.8-6.2,6.2v171.2c0,3.7,3,6.6,6.6,6.6h12.2v17.8H545h-17.8v-17.8h10.3c3.7,0,6.8-3,6.8-6.8V172.1
			c0-3.2-2.6-5.8-5.8-5.8h-11.2v-17.8H545h39.6L584.5,166.3L584.5,166.3z"/>
		<path class="st3" d="M322.7,320.2h-0.4V333h-34.1V169.6h34.1v69.6h0.4c7.1-10.9,16.9-17.2,29.1-18.8V97.5H108c-6.6,0-12,5.4-12,12
			v315c0,6.6,5.4,12,12,12h243.8V335.7C339,335.3,329.3,330.1,322.7,320.2z M234.3,333l-11-34.4h-55L157.4,333h-37.7L176,178.5h41.3
			l55,154.6h-38L234.3,333L234.3,333z"/>
		<path class="st3" d="M196.1,206.1h-0.9c-0.4,4.5-1.3,9-2.7,13.5l-16.7,52.3h39.6l-16.6-52C197.5,216.1,196.6,211.5,196.1,206.1z"
			/>
		<path class="st2" d="M362.2,253.8c-2.7-3.5-6.1-5.8-10.4-6.9v61.5c3.9-1.4,7.2-4,9.8-7.6c4.3-6,6.4-14.5,6.4-25.5
			C368,266,366,258.9,362.2,253.8z"/>
		<path class="st3" d="M345.4,246c-6.8,0-12.5,2.6-17,7.7s-6.7,11.7-6.7,19.9v11.3c0,7.1,2,13,6.1,17.7s9.3,7,15.7,7
			c3,0,5.7-0.5,8.2-1.4v-61.5C349.8,246.3,347.7,246,345.4,246z"/>
	</g>
	<g>
		<path class="st3" d="M584.8,476.2H352V523h232.6c12.9,0,23.4-10.5,23.4-23.4C608,486.8,597.8,476.5,584.8,476.2z"/>
		<path class="st4" d="M119.4,476.2c-12.9,0-23.4,10.5-23.4,23.4s10.5,23.4,23.4,23.4H352v-46.8H119.4z"/>
	</g>
	<g>
		<path class="st3" d="M584.8,11H352v46.8h232.6c12.9,0,23.4-10.5,23.4-23.4C608,21.6,597.8,11.3,584.8,11z"/>
		<path class="st4" d="M119.4,11C106.5,11,96,21.5,96,34.4s10.5,23.4,23.4,23.4H352V11H119.4z"/>
	</g>
</g>
</svg>
