<?xml version="1.0" encoding="utf-8"?>
<!-- Generator: Adobe Illustrator 19.0.0, SVG Export Plug-In . SVG Version: 6.00 Build 0)  -->
<svg version="1.1" id="Layer_1" xmlns="http://www.w3.org/2000/svg" xmlns:xlink="http://www.w3.org/1999/xlink" x="0px" y="0px"
	 viewBox="-2208 -757 5000 2905" style="enable-background:new -2208 -757 5000 2905;" xml:space="preserve">
<style type="text/css">
	.st0{fill:#365558;}
	.st1{fill:#9BAAAB;}
	.st2{display:none;}
	.st3{fill:#E6EAEA;}
	.st4{fill:#CDD4D5;}
	.st5{fill:#FD6A33;}
	.st6{fill:#F0353D;}
	.st7{fill:#FFFFFF;}
	.st8{fill:#4ACFD9;}
	.st9{fill:#0295AA;}
	.st10{fill:#FF8C29;}
	.st11{fill:#FFD1A9;}
	.st12{fill:#687F82;}
	.st13{fill:none;}
	.st14{fill:#BCD643;}
	.st15{fill:#FFBA7E;}
	.st16{fill:#CCCCCC;}
</style>
<g>
	<path class="st0" d="M-596.4,1831.3h-25.2c-8.3,0-12.5-10-6.6-15.9l52.1-52.1c3.6-3.6,9.5-3.6,13.2,0l52.1,52.1
		c5.9,5.9,1.7,15.9-6.6,15.9h-27.3c15.8,42.2,66.2,67.3,112,73v-147.6h-40.4c-5.1,0-9.3-4.2-9.3-9.3v-31.1c0-5.1,4.2-9.3,9.3-9.3
		h40.4v-4.3c-29-10.2-49.7-37.9-49.7-70.3c0-41.2,33.4-74.6,74.6-74.6v-57.1c-141.3,0-256.1,114.8-256.1,256s114.8,256,256,256
		v-57.1C-490.3,1955.6-579.5,1911.1-596.4,1831.3z"/>
	<path class="st0" d="M-432.8,1632.4c0,13.7,11.2,24.9,24.9,24.9v-49.7C-421.6,1607.5-432.8,1618.7-432.8,1632.4z"/>
	<path class="st1" d="M-407.9,1500.7v57.1c0.4,0,0.7,0,1.1,0c40.6,0.6,73.5,34,73.5,74.6c0,32.5-20.8,60.1-49.7,70.3v4.2h40.4
		c5.1,0,9.3,4.2,9.3,9.3v31.1c0,5.1-4.2,9.3-9.3,9.3H-383v147.6c46-5.8,96.2-30.8,112-73h-27.3c-8.3,0-12.5-10-6.6-15.9l52.1-52.1
		c3.6-3.6,9.5-3.6,13.2,0l52.1,52.1c5.9,5.9,1.7,15.9-6.6,15.9h-25.2c-16.9,79.7-106,124.3-188.5,124.3l0,0v57.2
		c141.2,0,256-114.8,256-256S-266.7,1500.7-407.9,1500.7z"/>
	<path class="st1" d="M-383,1632.4c0-13.7-11.2-24.9-24.9-24.9l0,0v49.7l0,0C-394.2,1657.3-383,1646.1-383,1632.4z"/>
</g>
<g id="Layer_1_10_">
	<rect x="869" y="-373.5" class="st2" width="513" height="512"/>
</g>
<g>
	<path class="st3" d="M2577.3-602.7h-371.6c-5.5,0-9.9,5-9.9,11.2v364.1l124.7,136.3h256.8c5.5,0,9.9-5,9.9-11.2v-489.3
		C2587.1-597.7,2582.8-602.7,2577.3-602.7z"/>
	<path class="st4" d="M2206-602.7c-5.7,0-10.2,5-10.2,11.2v364.1l124.7,136.3h70.9v-511.8L2206-602.7L2206-602.7z"/>
	<rect x="2391.1" y="-452.8" class="st5" width="196.1" height="191.1"/>
	<rect x="2195" y="-452.9" class="st6" width="196.1" height="191.1"/>
	<path class="st3" d="M2258.1-408.4c-5.7,0-10.2,5-10.2,11.2c0,6.1,4.6,11.2,10.2,11.2h133.3v-22.3L2258.1-408.4L2258.1-408.4z"/>
	<path class="st7" d="M2535.5-397.3c0-6.1-4.6-11.2-10.2-11.2h-133.9v22.3h133.8C2530.9-386.1,2535.5-391,2535.5-397.3z"/>
	<path class="st3" d="M2258.1-332.9c-5.7,0-10.2,5-10.2,11.2c0,6.1,4.6,11.2,10.2,11.2h133.3v-22.4H2258.1z"/>
	<path class="st7" d="M2535.5-321.7c0-6.1-4.6-11.2-10.2-11.2h-133.9v22.3h133.8C2530.9-310.6,2535.5-315.6,2535.5-321.7z"/>
	<path class="st1" d="M2258.1-227.4c-5.7,0-10.2,5-10.2,11.2c0,6.1,4.6,11.2,10.2,11.2h133.3v-22.3h-133.3V-227.4z"/>
	<path class="st4" d="M2535.5-216.2c0-6.1-4.6-11.2-10.2-11.2h-133.9v22.3h133.8C2530.9-205.1,2535.5-210.1,2535.5-216.2z"/>
	<g>
		<path id="SVGCleanerId_0_8_" class="st1" d="M2310.4-227.4h-114.5l124.8,136.5v-125.3C2320.8-222.5,2316.1-227.4,2310.4-227.4z"/>
	</g>
	<path class="st1" d="M2257.8-513.9c-5.7,0-10.2,5-10.2,11.2c0,6.1,4.6,11.2,10.2,11.2h133.3v-22.3L2257.8-513.9L2257.8-513.9z"/>
	<path class="st4" d="M2535.3-502.8c0-6.1-4.6-11.2-10.2-11.2h-133.9v22.3h133.8C2530.6-491.6,2535.3-496.5,2535.3-502.8z"/>
</g>
<g id="Layer_1_1_">
	<rect x="2114.2" y="-443.5" class="st2" width="513" height="512"/>
</g>
<g>
	<path class="st3" d="M-242.5,794.1h-371.6c-5.5,0-9.9,5-9.9,11.2v364.1l124.7,136.3h256.8c5.5,0,9.9-5,9.9-11.2V805.2
		C-232.7,799.1-237,794.1-242.5,794.1z"/>
	<path class="st4" d="M-613.8,794.1c-5.7,0-10.2,5-10.2,11.2v364.1l124.7,136.3h70.9V793.9L-613.8,794.1L-613.8,794.1z"/>
	<path class="st1" d="M-561.7,878.4c-5.7,0-10.2,5-10.2,11.2c0,6.1,4.6,11.2,10.2,11.2h133.3v-22.4H-561.7z"/>
	<path class="st4" d="M-284.3,889.5c0-6.1-4.6-11.2-10.2-11.2h-133.9v22.3h133.8C-288.9,900.7-284.3,895.8-284.3,889.5z"/>
	<path class="st1" d="M-561.7,1073.9c-5.7,0-10.2,5-10.2,11.2c0,6.1,4.6,11.2,10.2,11.2h133.3v-22.4H-561.7z"/>
	<path class="st4" d="M-284.3,1085.1c0-6.1-4.6-11.2-10.2-11.2h-133.9v22.3h133.8C-288.9,1096.2-284.3,1091.2-284.3,1085.1z"/>
	<path class="st1" d="M-561.7,1169.4c-5.7,0-10.2,5-10.2,11.2c0,6.1,4.6,11.2,10.2,11.2h133.3v-22.3L-561.7,1169.4L-561.7,1169.4z"
		/>
	<path class="st4" d="M-284.3,1180.6c0-6.1-4.6-11.2-10.2-11.2h-133.9v22.3h133.8C-288.9,1191.7-284.3,1186.7-284.3,1180.6z"/>
	<g>
		<path id="SVGCleanerId_0_1_" class="st1" d="M-509.4,1169.4h-114.5l124.8,136.5v-125.3C-499.1,1174.3-503.7,1169.4-509.4,1169.4z"
			/>
	</g>
	<path class="st8" d="M-296.5,962.9h-131.9v46.8h131.7c12.9,0,23.4-10.5,23.4-23.4C-273.3,973.5-283.5,963.2-296.5,962.9z"/>
	<path class="st9" d="M-583.5,986.3c0,12.9,10.5,23.4,23.4,23.4h131.7v-46.8h-131.9C-573.3,963.2-583.5,973.5-583.5,986.3z"/>
</g>
<g id="Layer_1_2_">
	<rect x="-222.9" y="-1814.9" class="st2" width="513" height="512"/>
</g>
<g>
	<path class="st0" d="M-1765.9,191.9h-300.5c-4.4,0-8,4-8,9.1v294.4l100.8,110.2h207.6c4.4,0,8-4,8-9.1V200.9
		C-1758,195.9-1761.5,191.9-1765.9,191.9z"/>
	<path class="st0" d="M-2066.2,191.9c-4.6,0-8.2,4-8.2,9.1v294.4l100.8,110.2h57.3V191.7L-2066.2,191.9L-2066.2,191.9z"/>
	<path class="st4" d="M-2024,340.9c-4.6,0-8.2,4-8.2,9.1c0,4.9,3.7,9.1,8.2,9.1h107.8v-18L-2024,340.9L-2024,340.9z"/>
	<path class="st3" d="M-1799.7,349.9c0-4.9-3.7-9.1-8.2-9.1h-108.3v18h108.2C-1803.5,358.9-1799.7,355-1799.7,349.9z"/>
	<path class="st4" d="M-2024,418.1c-4.6,0-8.2,4-8.2,9.1c0,4.9,3.7,9.1,8.2,9.1h107.8v-18.1H-2024V418.1z"/>
	<path class="st3" d="M-1799.7,427.2c0-4.9-3.7-9.1-8.2-9.1h-108.3v18h108.2C-1803.5,436.1-1799.7,432.1-1799.7,427.2z"/>
	<path class="st4" d="M-2024,495.3c-4.6,0-8.2,4-8.2,9.1c0,4.9,3.7,9.1,8.2,9.1h107.8v-18L-2024,495.3L-2024,495.3z"/>
	<path class="st3" d="M-1799.7,504.4c0-4.9-3.7-9.1-8.2-9.1h-108.3v18h108.2C-1803.5,513.4-1799.7,509.3-1799.7,504.4z"/>
	<g>
		<path id="SVGCleanerId_0_9_" class="st1" d="M-1981.7,495.3h-92.6l100.9,110.4V504.4C-1973.4,499.3-1977.1,495.3-1981.7,495.3z"/>
	</g>
	<path class="st4" d="M-2024.3,263.7c-4.6,0-8.2,4-8.2,9.1c0,4.9,3.7,9.1,8.2,9.1h107.8v-18L-2024.3,263.7L-2024.3,263.7z"/>
	<path class="st3" d="M-1800,272.7c0-4.9-3.7-9.1-8.2-9.1h-108.3v18h108.2C-1803.7,281.7-1800,277.8-1800,272.7z"/>
	<g>
		<path class="st3" d="M-1570.9,93.9h-320.8c-4.7,0-8.5,4.3-8.5,9.7v314.3l107.7,117.7h221.7c4.7,0,8.5-4.3,8.5-9.7V103.5
			C-1562.5,98.2-1566.2,93.9-1570.9,93.9z"/>
		<path class="st4" d="M-1891.5,93.9c-4.9,0-8.8,4.3-8.8,9.7v314.3l107.7,117.7h61.2V93.7L-1891.5,93.9L-1891.5,93.9z"/>
		<path class="st5" d="M-1846.5,253c-4.9,0-8.8,4.3-8.8,9.7c0,5.3,4,9.7,8.8,9.7h115.1v-19.3L-1846.5,253L-1846.5,253z"/>
		<path class="st10" d="M-1607,262.6c0-5.3-4-9.7-8.8-9.7h-115.6v19.3h115.5C-1611,272.2-1607,268-1607,262.6z"/>
		<path class="st5" d="M-1846.5,335.4c-4.9,0-8.8,4.3-8.8,9.7c0,5.3,4,9.7,8.8,9.7h115.1v-19.3h-115.1V335.4z"/>
		<path class="st10" d="M-1607,345.1c0-5.3-4-9.7-8.8-9.7h-115.6v19.3h115.5C-1611,354.7-1607,350.4-1607,345.1z"/>
		<path class="st5" d="M-1846.5,417.9c-4.9,0-8.8,4.3-8.8,9.7c0,5.3,4,9.7,8.8,9.7h115.1V418L-1846.5,417.9L-1846.5,417.9z"/>
		<path class="st10" d="M-1607,427.5c0-5.3-4-9.7-8.8-9.7h-115.6v19.3h115.5C-1611,437.1-1607,432.8-1607,427.5z"/>
		<g>
			<path id="SVGCleanerId_0_2_" class="st1" d="M-1801.4,417.9h-98.8l107.7,117.8V427.5C-1792.5,422.1-1796.4,417.9-1801.4,417.9z"
				/>
		</g>
		<path class="st5" d="M-1846.8,170.5c-4.9,0-8.8,4.3-8.8,9.7c0,5.3,4,9.7,8.8,9.7h115.1v-19.3L-1846.8,170.5L-1846.8,170.5z"/>
		<path class="st10" d="M-1607.3,180.1c0-5.3-4-9.7-8.8-9.7h-115.6v19.3h115.5C-1611.3,189.8-1607.3,185.6-1607.3,180.1z"/>
	</g>
</g>
<g>
	<g>
		<path class="st5" d="M-1753.3-512.4c-2.1-2.1-4.9-3.3-7.9-3.3s-5.8,1.2-7.9,3.3l-256.6,258.1c-2.1,2.1-3.3,4.9-3.3,7.9
			s1.2,5.8,3.3,7.9l118,117.4c2.1,2.1,4.9,3.3,7.9,3.3s5.8-1.2,7.9-3.3l256.8-258c2.2-2.2,3.3-5.1,3.3-7.9s-1-5.6-3.3-7.9
			L-1753.3-512.4z"/>
		<path class="st6" d="M-1694.8-454.1l-272.4,273.8l59.6,59.3c2.1,2.1,4.9,3.3,7.9,3.3s5.8-1.2,7.9-3.3l256.6-258.1
			c2.2-2.2,3.3-5.1,3.3-7.9s-1-5.6-3.3-7.9L-1694.8-454.1z"/>
		<path class="st8" d="M-1715.3-474.6c-2.1-2.1-4.9-3.3-7.9-3.3s-5.8,1.2-7.9,3.3l-256.7,258.1c-4.3,4.3-4.3,11.4,0,15.8l42.2,41.9
			c2.1,2.1,4.9,3.3,7.9,3.3s5.8-1.2,7.9-3.3l256.8-258c2.2-2.2,3.3-5.1,3.3-7.9s-1-5.6-3.3-7.9L-1715.3-474.6z"/>
		<path class="st9" d="M-1694.8-454.1l-272.4,273.8l21.5,21.5c2.1,2.1,4.9,3.3,7.9,3.3s5.8-1.2,7.9-3.3l256.8-258.1
			c2.2-2.2,3.3-5.1,3.3-7.9s-1-5.6-3.3-7.9L-1694.8-454.1z"/>
		<g>
			<path class="st11" d="M-2057.8-101.2c-0.7,3.7,0.4,7.4,3.1,10.1c2.7,2.7,6.4,3.7,10.1,3l147.1-29.9l-131.2-130.5L-2057.8-101.2z"
				/>
			<path class="st11" d="M-2055.3-91.7c0.1,0.1,0.3,0.3,0.4,0.6c2.7,2.7,6.4,3.7,10.1,3l147.1-29.9l-66.1-65.8L-2055.3-91.7z"/>
		</g>
		<path class="st12" d="M-2057.8-101.2c-0.7,3.7,0.4,7.4,3.1,10.1c2.7,2.7,6.4,3.7,10.1,3l63-12.8l-63.7-63.5L-2057.8-101.2z"/>
		<path class="st0" d="M-2055.3-91.7c0.1,0.1,0.3,0.3,0.4,0.6c2.7,2.7,6.4,3.7,10.1,3l63-12.8l-32.4-32.2L-2055.3-91.7z"/>
		<path class="st4" d="M-1548-471.4c0-2.8-1-5.6-3.3-7.9l-118-117.4c-2.1-2.1-4.9-3.3-7.9-3.3s-5.8,1.2-7.9,3.3l-60.3,60.6
			l125.9,125.3c2.7,2.7,4.9,5.8,6.5,9.2l61.7-62C-1549.2-465.6-1548-468.5-1548-471.4z"/>
		<path class="st4" d="M-1745.5-536l-23.6,23.8l133.9,133.1l22.3-22.3c-1.6-3.4-3.9-6.5-6.5-9.2L-1745.5-536z"/>
		<path class="st1" d="M-1548-471.4c0-2.8-1-5.6-3.3-7.9l-59.6-59.3L-1679-470l59.6,59.3c2.7,2.7,4.9,5.8,6.5,9.2l61.7-62
			C-1549.2-465.6-1548-468.5-1548-471.4z"/>
		<path class="st1" d="M-1679-469.9l-23.6,23.8l67.5,67.2l22.3-22.3c-1.6-3.4-3.9-6.5-6.5-9.2L-1679-469.9z"/>
		<path class="st7" d="M-1695.1-491.6l29.7-29.9c2.2-2.2,3.3-5.1,3.3-7.9c0-2.8-1-5.6-3.3-7.9c-4.3-4.3-11.4-4.3-15.8,0l-29.7,29.9
			c-1,1-1.8,2.2-2.4,3.4l14.7,14.7C-1697.3-489.8-1696.1-490.7-1695.1-491.6z"/>
		<path class="st7" d="M-1710.8-491.6c3.4,3.3,8.3,4.2,12.3,2.2l-14.7-14.7C-1715-499.9-1714.3-495-1710.8-491.6z"/>
	</g>
</g>
<g>
	<polygon class="st5" points="2498.1,1500.7 2391.9,1500.7 2391.9,1701.7 2474.6,1619.1 2529.4,1673.9 2446.7,1756.6 2529.4,1839.3 
		2474.4,1894.3 2391.9,1811.9 2391.9,2012.7 2498.1,2012.7 2647.9,1862.8 2647.9,1650.6 	"/>
	<polygon class="st13" points="2446.7,1756.6 2529.4,1839.3 2474.4,1894.3 2391.7,1811.6 2309.6,1893.6 2254.9,1838.9 
		2336.9,1756.8 2254.6,1674.5 2309.6,1619.6 2391.9,1701.8 2474.6,1619.1 2529.4,1673.9 	"/>
	<polygon class="st13" points="2446.7,1756.6 2529.4,1839.3 2474.4,1894.3 2391.7,1811.6 2309.6,1893.6 2254.9,1838.9 
		2336.9,1756.8 2254.6,1674.5 2309.6,1619.6 2391.9,1701.8 2474.6,1619.1 2529.4,1673.9 	"/>
	<polygon class="st6" points="2309.6,1893.6 2254.9,1838.9 2336.9,1756.8 2254.6,1674.5 2309.6,1619.6 2391.9,1701.8 2391.9,1701.7 
		2391.9,1500.7 2285.9,1500.7 2135.9,1650.6 2135.9,1862.8 2285.9,2012.7 2391.9,2012.7 2391.9,1811.9 2391.7,1811.6 	"/>
</g>
<g>
	<path class="st14" d="M1697.8,93.8c-141.2,0-256,114.8-256,256s114.8,256,256,256s256-114.8,256-256S1839,93.8,1697.8,93.8z"/>
	<path class="st14" d="M1441.8,349.8c0,141.2,114.8,256,256,256v-512C1556.6,93.8,1441.8,208.6,1441.8,349.8z"/>
	<path class="st7" d="M1859.5,310.5c-7.4,0-14.2-4.6-16.8-11.9c-13.2-37.3-41.1-68.8-76.6-86.4c-8.8-4.4-12.4-15.1-8-23.9
		s15.1-12.4,23.9-8c43.7,21.7,78.1,60.6,94.4,106.5c3.3,9.3-1.6,19.5-10.9,22.8C1863.5,310.2,1861.5,310.5,1859.5,310.5z"/>
	<path class="st0" d="M1794.5,333.6l-144.9-112.2c-5.4-4.2-12.7-4.9-18.8-1.9c-6.1,3-10,9.2-10,16v228.6c0,6.9,3.9,13.1,10.1,16.1
		c2.5,1.2,5.1,1.8,7.7,1.8c4,0,8-1.3,11.2-3.9l144.9-116.3c4.3-3.4,6.7-8.6,6.7-14.1C1801.3,342.1,1798.8,337,1794.5,333.6z"/>
	<path class="st8" d="M1665,310.7c2.8,2.4,4,6.3,2.6,10c-7,18.5-6.4,39.6,1.5,57.7c2,4.5-0.1,9.8-4.6,11.8s-9.8-0.1-11.8-4.6
		c-9.7-22.4-10.4-48.3-1.9-71.1c1.7-4.6,6.9-7,11.5-5.2C1663.3,309.6,1664.2,310.1,1665,310.7z"/>
	<path class="st3" d="M1512.1,409c7.4,0,14.2,4.6,16.8,11.9c13.2,37.3,41.1,68.8,76.6,86.4c8.8,4.4,12.4,15.1,8,23.9
		s-15.1,12.4-23.9,8c-43.7-21.7-78.1-60.6-94.4-106.5c-3.3-9.3,1.6-19.5,10.9-22.8C1508.1,409.3,1510.1,409,1512.1,409z"/>
</g>
<g id="Layer_1_3_">
	<rect x="1868.6" y="-2898.4" class="st2" width="513" height="512"/>
</g>
<g>
	<path class="st9" d="M991.1,1579.2v-38.4h-43.7c-16.9,0-30.7,0-30.7,0h-33.6v38.4h33.6v351.3c0,16.9,13.8,30.7,30.7,30.7h43.7
		v-38.4h-36v-153.6h36v-38.4h-36v-151.6H991.1z"/>
	<path class="st6" d="M863.1,1519.6c0-14.1-11.5-25.6-25.6-25.6h-76.8c-14.1,0-25.6,11.5-25.6,25.6v81.6c0,14.1,11.5,25.6,25.6,25.6
		h76.8c14.1,0,25.6-11.5,25.6-25.6v-22v-38.4V1519.6z"/>
	<rect x="991.1" y="1730.8" class="st8" width="102.4" height="38.4"/>
	<rect x="991.1" y="1540.8" class="st8" width="102.4" height="38.4"/>
	<rect x="991.1" y="1922.8" class="st8" width="102.4" height="38.4"/>
	<path class="st5" d="M1221.6,1878h-76.8c-14.1,0-25.6,11.5-25.6,25.6v76.8c0,14.1,11.5,25.6,25.6,25.6h76.8
		c14.1,0,25.6-11.5,25.6-25.6v-76.8C1247.2,1889.5,1235.7,1878,1221.6,1878z"/>
	<path class="st10" d="M1221.6,1686h-76.8c-14.1,0-25.6,11.5-25.6,25.6v76.8c0,14.1,11.5,25.6,25.6,25.6h76.8
		c14.1,0,25.6-11.5,25.6-25.6v-76.8C1247.2,1697.5,1235.7,1686,1221.6,1686z"/>
	<path class="st11" d="M1221.6,1494h-76.8c-14.1,0-25.6,11.5-25.6,25.6v76.8c0,14.1,11.5,25.6,25.6,25.6h76.8
		c14.1,0,25.6-11.5,25.6-25.6v-76.8C1247.2,1505.5,1235.7,1494,1221.6,1494z"/>
</g>
<g>
	<path class="st10" d="M244.5,1149.1c0-26.2,21.3-47.5,47.5-47.5V1083h-25.1c-6.6,0-12-5.1-12.4-11.7l-7.7-140.4l0,0
		c-0.4-7.1,5.3-13.1,12.4-13.1H292V794c-141.4,0-256,114.7-256,256c0,141.4,114.6,256,256,256v-109.4
		C265.8,1196.6,244.5,1175.3,244.5,1149.1z"/>
	<path class="st11" d="M292,794v123.9h32.7c7.1,0,12.8,6,12.4,13.1l-7.7,140.4c-0.4,6.6-5.8,11.7-12.4,11.7h-25v18.6
		c26.2,0,47.5,21.3,47.5,47.5c0,26.2-21.3,47.5-47.5,47.5V1306c141.4,0,256-114.6,256-256C548,908.7,433.4,794,292,794z"/>
</g>
<g id="Layer_1_4_">
	<rect x="-2893.6" y="-2441" class="st2" width="513" height="512"/>
</g>
<g>
	<path class="st3" d="M2577.8,99h-371.6c-5.5,0-9.9,5-9.9,11.2v364.1l124.7,136.3h256.8c5.5,0,9.9-5,9.9-11.2V110.1
		C2587.6,104,2583.3,99,2577.8,99z M2464.1,361h-55.3v55.3h-34.3V361h-55.6v-34.4h55.6V271h34.3v55.6h55.3V361L2464.1,361z"/>
	<path class="st4" d="M2374.6,361h-55.6v-34.4h55.6V271h17.3V98.8L2206.4,99c-5.7,0-10.2,5-10.2,11.2v364.1l124.7,136.3h70.9V416.3
		h-17.3V361z"/>
	<polygon class="st5" points="2391.6,248.9 2391.6,271 2408.9,271 2408.9,326.6 2464.1,326.6 2464.1,361 2408.9,361 2408.9,416.3 
		2391.6,416.3 2391.6,439.9 2587.6,439.9 2587.6,248.9 	"/>
	<polygon class="st6" points="2374.6,361 2318.9,361 2318.9,326.6 2374.6,326.6 2374.6,271 2391.6,271 2391.6,248.8 2195.4,248.8 
		2195.4,439.9 2391.6,439.9 2391.6,416.3 2374.6,416.3 	"/>
	<path class="st1" d="M2258.6,474.3c-5.7,0-10.2,5-10.2,11.2c0,6.1,4.6,11.2,10.2,11.2h133.3v-22.3h-133.3V474.3z"/>
	<path class="st4" d="M2535.9,485.5c0-6.1-4.6-11.2-10.2-11.2h-133.9v22.3h133.8C2531.4,496.6,2535.9,491.6,2535.9,485.5z"/>
	<g>
		<path id="SVGCleanerId_0_3_" class="st1" d="M2310.9,474.3h-114.5l124.8,136.5V485.5C2321.1,479.2,2316.6,474.3,2310.9,474.3z"/>
	</g>
	<path class="st1" d="M2258.3,187.8c-5.7,0-10.2,5-10.2,11.2c0,6.1,4.6,11.2,10.2,11.2h133.3v-22.3L2258.3,187.8L2258.3,187.8z"/>
	<path class="st4" d="M2535.6,198.9c0-6.1-4.6-11.2-10.2-11.2h-133.9V210h133.8C2531.1,210.1,2535.6,205.2,2535.6,198.9z"/>
	<polygon class="st13" points="2464.1,361 2408.9,361 2408.9,416.3 2374.6,416.3 2374.6,361 2318.9,361 2318.9,326.6 2374.6,326.6 
		2374.6,271 2408.9,271 2408.9,326.6 2464.1,326.6 	"/>
	<polygon class="st13" points="2464.1,361 2408.9,361 2408.9,416.3 2374.6,416.3 2374.6,361 2318.9,361 2318.9,326.6 2374.6,326.6 
		2374.6,271 2408.9,271 2408.9,326.6 2464.1,326.6 	"/>
</g>
<g>
	<path class="st3" d="M1239.2-602.9h-496c-4.4,0-8,3.6-8,8v496c0,4.4,3.6,8,8,8h496c4.4,0,8-3.6,8-8v-496
		C1247.2-599.3,1243.6-602.9,1239.2-602.9z"/>
	<path class="st1" d="M1239.2-602.9h-496c-4.4,0-8,3.6-8,8v149.2h512v-149.2C1247.2-599.3,1243.6-602.9,1239.2-602.9z"/>
	<path class="st4" d="M743.2-602.9c-4.4,0-8,3.6-8,8v496c0,4.4,3.6,8,8,8h248v-512H743.2z"/>
	<path class="st12" d="M743.2-602.9c-4.4,0-8,3.6-8,8v149.2h256v-157.2H743.2z"/>
	<path class="st8" d="M990.8-558.3c-18.6,0-33.7,15.1-33.7,33.7c0,18.6,15.1,33.7,33.7,33.7c18.6,0,33.7-15.1,33.7-33.7
		C1024.5-543.2,1009.3-558.3,990.8-558.3z"/>
	<path class="st10" d="M896.7-558.3c-18.6,0-33.7,15.1-33.7,33.7c0,18.6,15.1,33.7,33.7,33.7s33.7-15.1,33.7-33.7
		C930.4-543.2,915.3-558.3,896.7-558.3z"/>
	<path class="st6" d="M802.6-558.3c-18.6,0-33.7,15.1-33.7,33.7c0,18.6,15.1,33.7,33.7,33.7s33.7-15.1,33.7-33.7
		C836.3-543.2,821.2-558.3,802.6-558.3z"/>
	<g>
		<path class="st7" d="M1134.5-527.2h-59c-8.4,0-15.2-6.9-15.2-15.2s6.9-15.2,15.2-15.2h59c8.4,0,15.2,6.9,15.2,15.2
			S1143-527.2,1134.5-527.2z"/>
		<path class="st7" d="M1216-527.2h-32.6c-8.4,0-15.2-6.9-15.2-15.2s6.9-15.2,15.2-15.2h32.6c8.4,0,15.2,6.9,15.2,15.2
			S1224.3-527.2,1216-527.2z"/>
	</g>
	<g>
		<path class="st6" d="M812.4-365.1c-3.8,7.4-5.7,19.1-5.7,35v22.7c0,16.4-6.1,24.6-18.2,24.6v30.3c12.2,0,18.2,8.1,18.2,24.3v24.3
			c0,15.1,1.9,26.4,5.8,33.7c3.9,7.3,10.2,12.8,18.9,16.2c8.7,3.5,20.6,5.2,35.7,5.2v-30.3c-7,0-12-1.7-15.1-5.1
			c-3-3.4-4.5-9.1-4.5-17.2v-17.2c0-13.1-1.5-23.6-4.6-31.6c-3.1-8-8-13.8-14.7-17.4v-0.5c6.9-3.6,11.8-9.3,14.8-17
			c3-7.8,4.5-17.8,4.5-30v-19.2c0-8,1.6-13.7,4.8-17c3.2-3.3,8.1-5,14.8-5v-30.3c-15.3,0-27.3,1.7-36,5.2
			C822.4-378,816.2-372.5,812.4-365.1z"/>
		<polygon class="st5" points="990.3,-160.6 996.3,-160.6 1013.8,-229.5 990.3,-229.5 		"/>
		<path class="st5" d="M1011.5-284.8c5.3-5,7.9-11.6,7.9-19.8c0-7.9-2.7-14.4-8-19.3s-12.3-7.4-21-7.4c0,0,0,0-0.1,0v53.9
			C999.2-277.4,1006.3-279.9,1011.5-284.8z"/>
		<polygon class="st6" points="966.7,-229.5 954.3,-160.6 990.3,-160.6 990.3,-229.5 		"/>
		<path class="st6" d="M961.2-304.6c0,7.8,2.7,14.2,8.1,19.5c5.4,5.2,12.2,7.8,20.6,7.8c0.1,0,0.3,0,0.4,0v-53.9
			c-8.9,0-15.9,2.5-21.2,7.4C963.9-319,961.2-312.5,961.2-304.6z"/>
		<path class="st5" d="M1189.7-252.5c-12.2,0-18.2,8.2-18.2,24.6v22.7c0,15.9-1.9,27.5-5.7,35c-3.8,7.4-10,12.9-18.7,16.4
			c-8.7,3.5-20.7,5.2-36,5.2v-30.3c6.8,0,11.7-1.7,14.9-5c3.1-3.3,4.7-9,4.7-17v-19.2c0-12.2,1.5-22.1,4.5-29.9
			c3-7.8,7.9-13.5,14.9-17.2v-0.5c-6.8-3.7-11.7-9.6-14.7-17.7c-3.1-8.1-4.6-18.6-4.6-31.4v-17c0-8-1.5-13.8-4.4-17.2
			c-2.9-3.5-8-5.2-15.2-5.2v-30.3c15.2,0,27.1,1.7,35.8,5.2c8.7,3.5,15,8.9,18.8,16.2c3.9,7.3,5.8,18.6,5.8,33.7v24.3
			c0,16.2,6.1,24.3,18.2,24.3L1189.7-252.5L1189.7-252.5z"/>
	</g>
</g>
<g>
	<path class="st3" d="M1239.1,94.4h-496c-4.4,0-8,3.6-8,8v496c0,4.4,3.6,8,8,8h496c4.4,0,8-3.6,8-8v-496
		C1247.1,98,1243.5,94.4,1239.1,94.4z"/>
	<path class="st1" d="M1239.1,94.4h-496c-4.4,0-8,3.6-8,8v149.2h512V102.4C1247.1,98,1243.5,94.4,1239.1,94.4z"/>
	<path class="st4" d="M743.1,94.4c-4.4,0-8,3.6-8,8v496c0,4.4,3.6,8,8,8h248v-512H743.1z"/>
	<path class="st12" d="M743.1,94.4c-4.4,0-8,3.6-8,8v149.2h256V94.4H743.1z"/>
	<path class="st8" d="M990.7,139c-18.6,0-33.7,15.1-33.7,33.7s15.1,33.7,33.7,33.7c18.6,0,33.7-15.1,33.7-33.7S1009.2,139,990.7,139
		z"/>
	<path class="st10" d="M896.6,139c-18.6,0-33.7,15.1-33.7,33.7s15.1,33.7,33.7,33.7s33.7-15.1,33.7-33.7S915.2,139,896.6,139z"/>
	<path class="st6" d="M802.5,139c-18.6,0-33.7,15.1-33.7,33.7s15.1,33.7,33.7,33.7s33.7-15.1,33.7-33.7S821.1,139,802.5,139z"/>
	<g>
		<path class="st7" d="M1134.4,170.1h-59c-8.4,0-15.2-6.9-15.2-15.2c0-8.3,6.9-15.2,15.2-15.2h59c8.4,0,15.2,6.9,15.2,15.2
			S1142.9,170.1,1134.4,170.1z"/>
		<path class="st7" d="M1215.9,170.1h-32.6c-8.4,0-15.2-6.9-15.2-15.2c0-8.3,6.9-15.2,15.2-15.2h32.6c8.4,0,15.2,6.9,15.2,15.2
			S1224.2,170.1,1215.9,170.1z"/>
	</g>
	<g>
		<path class="st6" d="M802.4,333.2c-3.8,7.4-5.7,19.1-5.7,35v22.7c0,16.4-6.1,24.6-18.2,24.6v30.3c12.2,0,18.2,8.1,18.2,24.3v24.3
			c0,15.1,1.9,26.4,5.8,33.7c3.9,7.3,10.2,12.8,18.9,16.2c8.7,3.5,20.6,5.2,35.7,5.2v-30.3c-7,0-12-1.7-15.1-5.1
			c-3-3.4-4.5-9.1-4.5-17.2v-17.2c0-13.1-1.5-23.6-4.6-31.6c-3.1-8-8-13.8-14.7-17.4v-0.5c6.9-3.6,11.8-9.3,14.8-17
			c3-7.8,4.5-17.8,4.5-30v-19.3c0-8,1.6-13.7,4.8-17s8.1-5,14.8-5v-30.3c-15.3,0-27.3,1.7-36,5.2
			C812.5,320.3,806.2,325.7,802.4,333.2z"/>
		<path class="st6" d="M930.6,462.2c-5.3-4.9-12.3-7.4-21-7.4c-8.9,0-16,2.5-21.2,7.4c-5.3,4.9-7.9,11.3-7.9,19.3
			c0,7.8,2.7,14.3,8,19.5c5.3,5.3,12.2,7.9,20.6,7.9c9.2,0,16.4-2.5,21.7-7.6c5.2-5,7.8-11.7,7.8-19.9
			C938.6,473.5,935.9,467.1,930.6,462.2z"/>
		<path class="st5" d="M1018.7,481.4c0-7.9-2.7-14.4-8-19.3c-5.1-4.7-11.7-7.1-19.8-7.3v54c8.4-0.3,15.1-2.8,20-7.5
			C1016.1,496.3,1018.7,489.6,1018.7,481.4z"/>
		<path class="st6" d="M989.7,454.8c-8.9,0-16,2.5-21.2,7.4c-5.3,4.9-7.9,11.3-7.9,19.3c0,7.8,2.7,14.3,8,19.5
			c5.3,5.3,12.2,7.9,20.6,7.9c0.6,0,1.1,0,1.7,0v-54C990.5,454.8,990.1,454.8,989.7,454.8z"/>
		<path class="st5" d="M1098.9,481.4c0,8.2-2.6,14.8-7.8,19.9c-5.2,5-12.4,7.6-21.7,7.6c-8.4,0-15.3-2.6-20.6-7.9
			c-5.3-5.3-8-11.8-8-19.5c0-7.9,2.6-14.4,7.9-19.3c5.3-4.9,12.3-7.4,21.2-7.4c8.6,0,15.6,2.5,21,7.4
			C1096.2,467.1,1098.9,473.5,1098.9,481.4z"/>
		<path class="st5" d="M1200.8,445.7c-12.2,0-18.2,8.2-18.2,24.6V493c0,15.9-1.9,27.5-5.7,35c-3.8,7.4-10,12.9-18.7,16.4
			c-8.7,3.5-20.7,5.2-36,5.2v-30.3c6.8,0,11.7-1.7,14.9-5c3.1-3.3,4.7-9,4.7-17v-19.2c0-12.2,1.5-22.1,4.5-29.9s7.9-13.5,14.9-17.2
			v-0.5c-6.8-3.7-11.7-9.6-14.7-17.7c-3.1-8.1-4.6-18.6-4.6-31.4v-17c0-8-1.5-13.8-4.4-17.2c-2.9-3.5-8-5.2-15.2-5.2v-30.3
			c15.2,0,27.1,1.7,35.8,5.2c8.7,3.5,15,8.9,18.8,16.2c3.9,7.3,5.8,18.6,5.8,33.7v24.3c0,16.2,6.1,24.3,18.2,24.3L1200.8,445.7
			L1200.8,445.7L1200.8,445.7z"/>
	</g>
</g>
<g>
	<g>
		<path class="st8" d="M-1127.4,1604.8l-83.5-83.5c-16.8-16.8-39.2-26-62.9-26c-23.8,0-46.1,9.2-62.9,26
			c-34.8,34.8-34.8,91.1,0,125.9l83.5,83.5c16.8,16.8,39.2,26,62.9,26c23.7,0,46.1-9.2,62.9-26c16.8-16.8,26-39.2,26-62.9
			C-1101.2,1644-1110.6,1621.6-1127.4,1604.8z M-1242.2,1552.7l83.5,83.5c17.5,17.5,17.5,45.9,0,63.2c-17.5,17.5-45.9,17.5-63.2,0
			l-41.7-41.7l0,0l-41.8-41.7c-17.5-17.5-17.5-45.9,0-63.2C-1287.9,1535.2-1259.5,1535.2-1242.2,1552.7z"/>
		<path class="st8" d="M-879.2,1853l-83.5-83.5c-16.8-16.8-39.2-26-62.9-26c-23.8,0-46.1,9.2-62.9,26c-16.8,16.8-26,39.2-26,62.9
			c0,23.8,9.2,46.1,26,62.9l83.5,83.5c16.8,16.8,39.2,26,62.9,26c23.8,0,46.1-9.2,62.9-26c16.8-16.8,26-39.2,26-62.9
			C-853.1,1892.2-862.4,1869.7-879.2,1853z M-973.7,1947.6l-41.7-41.7l-41.7-41.7c-17.5-17.5-17.5-45.9,0-63.2
			c17.5-17.5,45.9-17.5,63.2,0l83.5,83.5c17.5,17.5,17.5,45.9,0,63.2C-928,1965.1-956.2,1965.1-973.7,1947.6z"/>
		<path class="st9" d="M-1002.3,1823.8l-182.3-182.2c-8.8-8.8-23.1-8.8-32,0c-4.2,4.2-6.7,9.9-6.7,16.1c0,6,2.3,11.7,6.7,16.1
			l182.3,182.2c4.2,4.2,9.9,6.7,16.1,6.7c6,0,11.7-2.3,16.1-6.7c4.2-4.2,6.7-9.9,6.7-16.1C-995.6,1833.7-998.1,1828.1-1002.3,1823.8
			z"/>
	</g>
	<path class="st5" d="M-1164.4,2006c-12.9,0-23.4-10.5-23.4-23.4v-85.9c0.3-13,10.6-23.2,23.4-23.2c12.9,0,23.4,10.5,23.4,23.4v85.6
		C-1141,1995.5-1151.5,2006-1164.4,2006z"/>
	<path class="st5" d="M-1364,1806.4c0-12.9,10.5-23.4,23.4-23.4h85.9c13,0.3,23.2,10.6,23.2,23.4c0,12.9-10.5,23.4-23.4,23.4h-85.6
		C-1353.5,1829.9-1364,1819.3-1364,1806.4z"/>
	<path class="st5" d="M-1305.6,1947.6c-9.1-9.1-9.1-24,0-33.1l60.7-60.7c9.4-9,23.9-8.9,33,0.2c9.1,9.1,9.1,24,0,33.1l-60.5,60.5
		C-1281.6,1956.7-1296.4,1956.7-1305.6,1947.6z"/>
	<g>
		<path class="st5" d="M-1051.6,1494c12.9,0,23.4,10.5,23.4,23.4v85.9c-0.3,13-10.6,23.2-23.4,23.2c-12.9,0-23.4-10.5-23.4-23.4
			v-85.7C-1075,1504.5-1064.5,1494-1051.6,1494z"/>
		<path class="st5" d="M-852,1693.6c0,12.9-10.5,23.4-23.4,23.4h-85.9c-13-0.3-23.2-10.6-23.2-23.4c0-12.9,10.5-23.4,23.4-23.4h85.6
			C-862.5,1670.1-852,1680.7-852,1693.6z"/>
		<path class="st5" d="M-910.4,1552.4c9.1,9.1,9.1,24,0,33.1l-60.7,60.7c-9.4,9-23.9,8.9-33-0.2c-9.1-9.1-9.1-24,0-33.1l60.5-60.5
			C-934.4,1543.3-919.6,1543.3-910.4,1552.4z"/>
	</g>
</g>
<g>
	<path class="st10" d="M-164.1,189.6h-244.2V343l29,81.6h-29v104h244.2c6.6,0,12-5.4,12-12v-315C-152.1,195-157.5,189.6-164.1,189.6
		z M-262.4,411.3c-9,11.2-21.1,16.8-36.2,16.8c-13.6,0-24-5.2-31-15.6h-0.4v12.9h-34.2V261.2h34.2v70h0.4
		c8.4-12.9,20.5-19.4,36.1-19.4c14.3,0,25.3,4.9,33,14.7c7.7,9.8,11.6,23.3,11.6,40.3C-248.8,385.3-253.4,400.2-262.4,411.3z
		 M-175.5,258.4L-175.5,258.4h-12.7c-3.4,0-6.2,2.8-6.2,6.2v171.2c0,3.7,3,6.6,6.6,6.6h12.2v17.8h-39.5h-17.8v-17.8h10.3
		c3.7,0,6.8-3,6.8-6.8V264.2c0-3.2-2.6-5.8-5.8-5.8h-11.2v-17.8h17.7h39.6V258.4z"/>
	<path class="st10" d="M-306.7,338c-6.9,0-12.5,2.6-17.1,7.7c-4.5,5.1-6.8,11.8-6.8,20v11.4c0,7.1,2.1,13.1,6.2,17.8
		c4.1,4.7,9.4,7,15.8,7c7.8,0,13.8-3,18.1-9c4.3-6,6.4-14.6,6.4-25.6c0-9.2-2-16.3-5.9-21.5C-293.8,340.6-299.4,338-306.7,338z"/>
	<g>
		<path class="st5" d="M-175.3,568.3h-232.8v46.8h232.6c12.9,0,23.4-10.5,23.4-23.4C-152.1,578.9-162.3,568.6-175.3,568.3z"/>
		<path class="st6" d="M-640.7,568.3c-12.9,0-23.4,10.5-23.4,23.4c0,12.9,10.5,23.4,23.4,23.4h232.6v-46.8H-640.7z"/>
	</g>
	<g>
		<path class="st5" d="M-175.3,103.1h-232.8v46.8h232.6c12.9,0,23.4-10.5,23.4-23.4C-152.1,113.7-162.3,103.4-175.3,103.1z"/>
		<path class="st6" d="M-640.7,103.1c-12.9,0-23.4,10.5-23.4,23.4s10.5,23.4,23.4,23.4h232.6v-46.8H-640.7z"/>
	</g>
	<path class="st13" d="M-594.7,373.6c-8.4,0-15.4-2.6-21-7.7c-5.6-5.2-8.4-11.5-8.4-19.1c0-7.7,2.9-14.1,8.6-19.1
		c5.8-4.9,12.9-7.4,21.6-7.4s15.8,2.5,21.4,7.5c5.5,5,8.3,11.3,8.3,19c0,7.9-2.8,14.3-8.5,19.3
		C-578.3,371.1-585.7,373.6-594.7,373.6z"/>
	<path class="st13" d="M-594.7,373.6c-8.4,0-15.4-2.6-21-7.7c-5.6-5.2-8.4-11.5-8.4-19.1c0-7.7,2.9-14.1,8.6-19.1
		c5.8-4.9,12.9-7.4,21.6-7.4s15.8,2.5,21.4,7.5c5.5,5,8.3,11.3,8.3,19c0,7.9-2.8,14.3-8.5,19.3
		C-578.3,371.1-585.7,373.6-594.7,373.6z"/>
	<path class="st5" d="M-407.9,344.1V189.6h-244.2c-6.6,0-12,5.4-12,12v315c0,6.6,5.4,12,12,12h244.2v-104h-9.5l-11-34.6h-55.2
		l-10.9,34.6h-37.9l56.5-155.3h41.5L-407.9,344.1z M-572.7,366.1c-5.7,5-13,7.5-22,7.5c-8.4,0-15.4-2.6-21-7.7
		c-5.6-5.2-8.4-11.5-8.4-19.1c0-7.7,2.9-14.1,8.6-19.1c5.8-4.9,12.9-7.4,21.6-7.4s15.8,2.5,21.4,7.5c5.5,5,8.3,11.3,8.3,19
		C-564.2,354.6-567,361.1-572.7,366.1z"/>
	<path class="st5" d="M-455.7,297h-0.9c-0.4,4.5-1.3,9.1-2.7,13.5l-16.9,52.6h39.8l-16.7-52.1C-454.4,307.1-455.2,302.4-455.7,297z"
		/>
</g>
<g>
	<path class="st9" d="M246.6-218c-6.8,0-12.4-5.5-12.4-12.4v-24.7c0-6.8,5.5-12.4,12.4-12.4H259v-66.1h-12.4
		c-6.8,0-12.4-5.5-12.4-12.4v-24.8c0-6.8,5.5-12.4,12.4-12.4H292v-22.7c-23.9,0-43.4-19.4-43.4-43.4c0-23.9,19.4-43.4,43.4-43.4
		v-113.4c-141.4,0-256,114.7-256,256c0,141.4,114.6,256,256,256V-218H246.6z"/>
	<path class="st8" d="M292-606.1v113.5c23.9,0,43.4,19.4,43.4,43.4c0,23.9-19.4,43.4-43.4,43.4v22.7h20.6c6.8,0,12.4,5.5,12.4,12.4
		v103.2h12.4c6.8,0,12.4,5.5,12.4,12.4v24.8c0,6.8-5.5,12.4-12.4,12.4H292v123.8c141.4,0,256-114.6,256-256
		C548-491.4,433.4-606.1,292-606.1z"/>
</g>
<g>
	<g>
		<path class="st1" d="M1556.3,860.5h-60.8c-4.5,0-8.1,3.6-8.1,8.1v43.5c0,4.5,3.6,8.1,8.1,8.1h60.8c4.5,0,8.1-3.6,8.1-8.1v-43.5
			C1564.5,864.2,1560.8,860.5,1556.3,860.5z"/>
		<path class="st1" d="M1777.4,910.8l-13.1-82.6c-0.6-4-4.1-6.9-8-6.9h-130.4c-4.1,0-7.4,2.9-8,6.9l-13.1,82.6
			c-0.4,2.3,0.3,4.8,1.8,6.6c1.5,1.8,3.9,2.8,6.2,2.8h156.5c2.4,0,4.7-1,6.2-2.8C1777.1,915.6,1777.8,913.3,1777.4,910.8z"/>
	</g>
	<path class="st12" d="M1625.9,821.4c-4.1,0-7.4,2.9-8,6.9l-13.1,82.6c-0.4,2.3,0.3,4.8,1.8,6.6s3.9,2.8,6.2,2.8h78.3v-99
		L1625.9,821.4L1625.9,821.4z"/>
	<path class="st5" d="M1939,920h-495.8c-4.5,0-8.1,3.6-8.1,8.1v369.7c0,4.5,3.6,8.1,8.1,8.1h495.7c4.5,0,8.1-3.6,8.1-8.1V928.1
		C1947.1,923.7,1943.5,920,1939,920z"/>
	<path class="st6" d="M1443.3,920c-4.5,0-8.1,3.6-8.1,8.1v369.7c0,4.5,3.6,8.1,8.1,8.1h247.9V920H1443.3z"/>
	<path class="st15" d="M1939,920h-495.8c-4.5,0-8.1,3.6-8.1,8.1v99.5h512v-99.5C1947.1,923.7,1943.5,920,1939,920z"/>
	<path class="st10" d="M1443.3,920c-4.5,0-8.1,3.6-8.1,8.1v99.5h256V920H1443.3z"/>
	<path class="st4" d="M1576.8,1180.4c-24.4,0-44.3,19.9-44.3,44.3s19.9,44.3,44.3,44.3c24.4,0,44.3-19.9,44.3-44.3
		S1601,1180.4,1576.8,1180.4z"/>
	<path class="st8" d="M1691.4,960.9c-84.9,0-154,69.1-154,154c0,84.9,69.1,154,154,154s154-69.1,154-154
		C1845.4,1030,1776.3,960.9,1691.4,960.9z"/>
	<path class="st9" d="M1537.4,1114.9c0,84.9,69.1,154,154,154v-308C1606.5,960.9,1537.4,1030,1537.4,1114.9z"/>
	<path class="st1" d="M1691.4,1010.8c-57.5,0-104.1,46.8-104.1,104.1c0,57.3,46.8,104.1,104.1,104.1c57.3,0,104.1-46.8,104.1-104.1
		C1795.5,1057.6,1748.9,1010.8,1691.4,1010.8z"/>
	<path class="st0" d="M1587.3,1114.9c0,57.5,46.8,104.1,104.1,104.1v-208.2C1634,1010.8,1587.3,1057.5,1587.3,1114.9z"/>
	<path class="st7" d="M1717.4,1174.2c-1.4-1-2.7-2.3-3.8-3.7c-6.6-8.3-5.3-20.3,3-27.1c2.7-2.2,5.1-4.7,7-7.4
		c12.4-16.9,8.7-40.8-8.3-53.2c-8.6-6.3-10.5-18.4-4.2-27c6.3-8.6,18.4-10.5,27-4.2c34.2,25,41.7,73.1,16.7,107.3
		c-3.9,5.3-8.6,10.2-13.9,14.6C1734.3,1179.1,1724.5,1179.4,1717.4,1174.2z"/>
	<polygon class="st7" points="1638.3,891.4 1644.5,852.3 1737.8,852.3 1743.9,891.4 	"/>
	<g>
		<path class="st6" d="M1863.6,866.1h-37c-4.9,0-8.9-4-8.9-8.9c0-4.9,4-8.9,8.9-8.9h37.2c4.9,0,8.9,4,8.9,8.9
			C1872.6,862.1,1868.6,866.1,1863.6,866.1z"/>
		<path class="st6" d="M1839.8,920c-2.3,0-4.6-0.9-6.3-2.7l-23.6-23.6c-3.4-3.4-3.4-9.1,0-12.7c3.4-3.4,9.1-3.4,12.7,0l23.6,23.6
			c3.4,3.4,3.4,9.1,0,12.7C1844.3,919.1,1842,920,1839.8,920z"/>
		<path class="st6" d="M1816.4,835.7c-2.3,0-4.6-0.9-6.3-2.7c-3.4-3.4-3.4-9.1,0-12.7l23.6-23.6c3.4-3.4,9.1-3.4,12.7,0
			c3.4,3.4,3.4,9.1,0,12.7l-23.7,23.7C1821,834.8,1818.6,835.7,1816.4,835.7z"/>
	</g>
</g>
<g id="Layer_1_5_">
	<rect x="-4264" y="-551.5" class="st2" width="513" height="512"/>
</g>
<g>
	<path class="st10" d="M2196.3,1169.5l124.7,136.3h256.8c5.5,0,9.9-5,9.9-11.2V1050h-391.4V1169.5z"/>
	<path class="st8" d="M2577.8,794.2h-371.6c-5.5,0-9.9,5-9.9,11.2V1050h391.4V805.3C2587.6,799.2,2583.3,794.2,2577.8,794.2z"/>
	<polygon class="st5" points="2196.3,1169.5 2321,1305.8 2391.9,1305.8 2391.9,1050 2196.3,1050 	"/>
	<path class="st9" d="M2206.5,794.2c-5.7,0-10.2,5-10.2,11.2V1050h195.6V794L2206.5,794.2z"/>
	<path class="st3" d="M2248.4,949.7c0,6.1,4.6,11.2,10.2,11.2h133.3v-22.3l-133.3-0.1C2252.9,938.5,2248.4,943.5,2248.4,949.7z"/>
	<path class="st7" d="M2525.8,938.4h-133.9v22.3h133.8c5.7,0.1,10.3-4.8,10.3-11.1C2536,943.5,2531.4,938.4,2525.8,938.4z"/>
	<path class="st3" d="M2258.6,1104c-5.7,0-10.2,5-10.2,11.2c0,6.1,4.6,11.2,10.2,11.2h133.3V1104H2258.6z"/>
	<path class="st7" d="M2536,1115.2c0-6.1-4.6-11.2-10.2-11.2h-133.9v22.3h133.8C2531.4,1126.3,2536,1121.3,2536,1115.2z"/>
	<path class="st3" d="M2258.6,1169.5c-5.7,0-10.2,5-10.2,11.2c0,6.1,4.6,11.2,10.2,11.2h133.3v-22.3h-133.3V1169.5z"/>
	<path class="st7" d="M2536,1180.7c0-6.1-4.6-11.2-10.2-11.2h-133.9v22.3h133.8C2531.4,1191.8,2536,1186.8,2536,1180.7z"/>
	<g>
		<path id="SVGCleanerId_0_4_" class="st6" d="M2310.9,1169.5h-114.5l124.8,136.5v-125.3C2321.2,1174.4,2316.6,1169.5,2310.9,1169.5
			z"/>
	</g>
	<path class="st3" d="M2248.1,884.2c0,6.1,4.6,11.2,10.2,11.2h133.3v-22.3l-133.3-0.1C2252.6,873,2248.1,878,2248.1,884.2z"/>
	<path class="st7" d="M2525.5,872.9h-133.9v22.3h133.8c5.7,0.1,10.3-4.8,10.3-11.1C2535.7,878,2531.1,872.9,2525.5,872.9z"/>
</g>
<g>
	<path class="st9" d="M-175.2-134.8H-408V-88h232.6c12.9,0,23.4-10.5,23.4-23.4C-152-124.2-162.2-134.5-175.2-134.8z"/>
	<path class="st0" d="M-640.6-134.8c-12.9,0-23.4,10.5-23.4,23.4S-653.5-88-640.6-88H-408v-46.8H-640.6z"/>
	<path class="st9" d="M-175.2-600H-408v46.8h232.6c12.9,0,23.4-10.5,23.4-23.4C-152-589.4-162.2-599.7-175.2-600z"/>
	<path class="st0" d="M-640.6-600c-12.9,0-23.4,10.5-23.4,23.4c0,12.9,10.5,23.4,23.4,23.4H-408V-600H-640.6z"/>
	<path class="st9" d="M-647.7-513.5c-8.9,0-16.3,7.3-16.3,16.3v306.5c0,8.9,7.3,16.3,16.3,16.3H-408v-339L-647.7-513.5L-647.7-513.5
		z M-444.2-236h-36v-93.7h-92.3v93.7h-35.8v-216h35.8v90.8h92.3V-452h36V-236z"/>
	<polygon class="st13" points="-444.2,-236 -480.2,-236 -480.2,-329.7 -572.5,-329.7 -572.5,-236 -608.4,-236 -608.4,-452 
		-572.5,-452 -572.5,-361.2 -480.2,-361.2 -480.2,-452 -444.2,-452 	"/>
	<polygon class="st13" points="-444.2,-236 -480.2,-236 -480.2,-329.7 -572.5,-329.7 -572.5,-236 -608.4,-236 -608.4,-452 
		-572.5,-452 -572.5,-361.2 -480.2,-361.2 -480.2,-452 -444.2,-452 	"/>
	<path class="st13" d="M-221.3-234.2h-135.5v-16.7c0-6.8,1-13.2,2.9-19.2s4.5-11.6,7.7-16.9s7-10.2,11.3-14.9
		c4.3-4.7,8.9-9.2,13.9-13.6c4.9-4.4,9.9-8.6,15.1-12.6c5.1-4.1,10.1-8.2,15.1-12.3c4.6-3.9,8.8-7.8,12.7-11.5
		c3.8-3.8,7.1-7.7,9.8-11.7c2.7-4,4.8-8.3,6.3-12.7c1.5-4.5,2.3-9.3,2.3-14.5c0-5.7-0.9-10.7-2.6-15c-1.8-4.3-4.2-7.8-7.4-10.7
		s-6.9-5-11.2-6.5c-4.3-1.5-9-2.2-14.2-2.2c-8.8,0-17.8,2.1-27,6.2c-9.1,4.1-17.9,10.3-26.4,18.5v-33.6c4.4-3.3,8.9-6.2,13.4-8.7
		s9.2-4.5,14-6.2c4.8-1.7,9.9-2.9,15.2-3.7c5.3-0.8,11-1.2,17-1.2c9.7,0,18.6,1.3,26.5,3.8c7.9,2.6,14.7,6.3,20.3,11.3
		s10,11.2,13,18.6c3.1,7.4,4.6,16,4.6,25.6c0,8.7-1.1,16.6-3.2,23.6c-2.2,7-5.2,13.5-9.2,19.5s-8.8,11.7-14.4,17.2
		c-5.6,5.4-11.9,11-18.8,16.7c-5.8,4.7-11.6,9.3-17.4,13.8s-11,8.8-15.6,13.1c-4.6,4.3-8.4,8.5-11.2,12.8c-2.9,4.3-4.3,8.6-4.3,12.9
		v0.8h97.4L-221.3-234.2L-221.3-234.2z"/>
	<path class="st13" d="M-221.3-234.2h-135.5v-16.7c0-6.8,1-13.2,2.9-19.2s4.5-11.6,7.7-16.9s7-10.2,11.3-14.9
		c4.3-4.7,8.9-9.2,13.9-13.6c4.9-4.4,9.9-8.6,15.1-12.6c5.1-4.1,10.1-8.2,15.1-12.3c4.6-3.9,8.8-7.8,12.7-11.5
		c3.8-3.8,7.1-7.7,9.8-11.7c2.7-4,4.8-8.3,6.3-12.7c1.5-4.5,2.3-9.3,2.3-14.5c0-5.7-0.9-10.7-2.6-15c-1.8-4.3-4.2-7.8-7.4-10.7
		s-6.9-5-11.2-6.5c-4.3-1.5-9-2.2-14.2-2.2c-8.8,0-17.8,2.1-27,6.2c-9.1,4.1-17.9,10.3-26.4,18.5v-33.6c4.4-3.3,8.9-6.2,13.4-8.7
		s9.2-4.5,14-6.2c4.8-1.7,9.9-2.9,15.2-3.7c5.3-0.8,11-1.2,17-1.2c9.7,0,18.6,1.3,26.5,3.8c7.9,2.6,14.7,6.3,20.3,11.3
		s10,11.2,13,18.6c3.1,7.4,4.6,16,4.6,25.6c0,8.7-1.1,16.6-3.2,23.6c-2.2,7-5.2,13.5-9.2,19.5s-8.8,11.7-14.4,17.2
		c-5.6,5.4-11.9,11-18.8,16.7c-5.8,4.7-11.6,9.3-17.4,13.8s-11,8.8-15.6,13.1c-4.6,4.3-8.4,8.5-11.2,12.8c-2.9,4.3-4.3,8.6-4.3,12.9
		v0.8h97.4L-221.3-234.2L-221.3-234.2z"/>
	<path class="st8" d="M-168.2-513.5H-408v339h239.8c8.9,0,16.3-7.3,16.3-16.3v-306.4C-152-506.2-159.3-513.5-168.2-513.5z
		 M-221.3-234.2h-135.5v-16.7c0-6.8,1-13.2,2.9-19.2s4.5-11.6,7.7-16.9s7-10.2,11.3-14.9c4.3-4.7,8.9-9.2,13.9-13.6
		c4.9-4.4,9.9-8.6,15.1-12.6c5.1-4.1,10.1-8.2,15.1-12.3c4.6-3.9,8.8-7.8,12.7-11.5c3.8-3.8,7.1-7.7,9.8-11.7
		c2.7-4,4.8-8.3,6.3-12.7c1.5-4.5,2.3-9.3,2.3-14.5c0-5.7-0.9-10.7-2.6-15c-1.8-4.3-4.2-7.8-7.4-10.7s-6.9-5-11.2-6.5
		c-4.3-1.5-9-2.2-14.2-2.2c-8.8,0-17.8,2.1-27,6.2c-9.1,4.1-17.9,10.3-26.4,18.5v-33.6c4.4-3.3,8.9-6.2,13.4-8.7s9.2-4.5,14-6.2
		c4.8-1.7,9.9-2.9,15.2-3.7c5.3-0.8,11-1.2,17-1.2c9.7,0,18.6,1.3,26.5,3.8c7.9,2.6,14.7,6.3,20.3,11.3s10,11.2,13,18.6
		c3.1,7.4,4.6,16,4.6,25.6c0,8.7-1.1,16.6-3.2,23.6c-2.2,7-5.2,13.5-9.2,19.5s-8.8,11.7-14.4,17.2c-5.6,5.4-11.9,11-18.8,16.7
		c-5.8,4.7-11.6,9.3-17.4,13.8s-11,8.8-15.6,13.1c-4.6,4.3-8.4,8.5-11.2,12.8c-2.9,4.3-4.3,8.6-4.3,12.9v0.8h97.4L-221.3-234.2
		L-221.3-234.2z"/>
</g>
<g>
	<path class="st1" d="M280.4,427L280.4,427L280.4,427c-5,3.8-11.1,6.1-17.8,6.1c-16,0-29.3-13.1-29.3-29.3v-45.4h-28.1
		c-13.6,0-24.7,11.1-24.7,24.7v92.3c0,13.6,11.1,24.7,24.7,24.7H242h18.8H292v-84.7l-6.3,6.2C284.2,423.7,282.4,425.5,280.4,427z"/>
	<path class="st14" d="M292,103.1c-141.4,0-256,114.6-256,256s114.6,256,256,256v-72.4h-31.2H242h-36.8c-37.1,0-67.3-30.2-67.3-67.3
		v-92.3c-0.1-17.9,6.9-34.8,19.6-47.5c12.7-12.8,29.7-19.8,47.7-19.8h28.1v-74.4c0-16,13.1-29.3,29.3-29.3c16,0,29.3,13.1,29.3,29.3
		v74.3h0.1V103.1z"/>
	<path class="st6" d="M280.4,427C280.3,427,280.3,427,280.4,427L280.4,427L280.4,427z"/>
	<path class="st6" d="M290.2,413.5c0,0.1-0.1,0.2-0.1,0.2C290.2,413.7,290.2,413.6,290.2,413.5z"/>
	<path class="st6" d="M287,419.9L287,419.9L287,419.9z"/>
	<path class="st6" d="M289.3,415.8c0,0,0,0.1-0.1,0.1C289.3,415.9,289.3,415.8,289.3,415.8z"/>
	<path class="st1" d="M296.3,411.1l-4.3,4.3v84.7h5.6c13.6,0,24.7-11.1,24.7-24.7v-90.3L296.3,411.1z"/>
	<path class="st14" d="M292,103.1v212.8h4.3l0,0h1.3c3.5,0,7,0.3,10.5,0.8l0,0l123.2-123.2c11.3-11.3,30.1-11.3,41.3,0
		c11.3,11.3,11.3,30.1,0,41.3l-116,116c5.4,9.8,8.2,20.9,8.2,32.4v92.3c0,37.1-30.2,67.3-67.3,67.3H292v72.3
		c141.4,0,256-114.6,256-256S433.4,103.1,292,103.1z"/>
	<polygon class="st6" points="292,315.9 296.3,315.9 296.3,315.9 	"/>
</g>
<g id="Layer_1_6_">
	<rect x="-2694.1" y="-3721" class="st2" width="513" height="512"/>
</g>
<g>
	<path class="st3" d="M-923,794.2h-371.6c-5.5,0-9.9,5-9.9,11.2v364.1l124.7,136.3H-923c5.5,0,9.9-5,9.9-11.2V805.3
		C-913.2,799.2-917.5,794.2-923,794.2z"/>
	<path class="st4" d="M-1294.3,794.2c-5.7,0-10.2,5-10.2,11.2v364.1l124.7,136.3h70.9V794L-1294.3,794.2L-1294.3,794.2z"/>
	<path class="st1" d="M-1242.2,978.5c-5.7,0-10.2,5-10.2,11.2c0,6.1,4.6,11.2,10.2,11.2h133.3v-22.3L-1242.2,978.5L-1242.2,978.5z"
		/>
	<path class="st4" d="M-964.8,989.6c0-6.1-4.6-11.2-10.2-11.2h-133.9v22.3h133.8C-969.4,1000.8-964.8,995.9-964.8,989.6z"/>
	<path class="st1" d="M-1242.2,1074c-5.7,0-10.2,5-10.2,11.2c0,6.1,4.6,11.2,10.2,11.2h133.3V1074H-1242.2z"/>
	<path class="st4" d="M-964.8,1085.2c0-6.1-4.6-11.2-10.2-11.2h-133.9v22.3h133.8C-969.4,1096.3-964.8,1091.3-964.8,1085.2z"/>
	<path class="st1" d="M-1242.2,1169.5c-5.7,0-10.2,5-10.2,11.2c0,6.1,4.6,11.2,10.2,11.2h133.3v-22.3L-1242.2,1169.5L-1242.2,1169.5
		z"/>
	<path class="st4" d="M-964.8,1180.7c0-6.1-4.6-11.2-10.2-11.2h-133.9v22.3h133.8C-969.4,1191.8-964.8,1186.8-964.8,1180.7z"/>
	<g>
		<path id="SVGCleanerId_0_5_" class="st1" d="M-1189.9,1169.5h-114.5l124.8,136.5v-125.3
			C-1179.6,1174.4-1184.2,1169.5-1189.9,1169.5z"/>
	</g>
	<path class="st10" d="M-977,868h-131.9v46.8h131.7c12.9,0,23.4-10.5,23.4-23.4C-953.8,878.6-964,868.3-977,868z"/>
	<path class="st5" d="M-1264,891.4c0,12.9,10.5,23.4,23.4,23.4h131.7V868h-131.9C-1253.8,868.3-1264,878.6-1264,891.4z"/>
</g>
<g id="Layer_1_7_">
	<rect x="-705.2" y="-3850.8" class="st2" width="513" height="512"/>
</g>
<path class="st9" d="M782.3,794c-26.5,0-48,21.5-48,48v416c0,26.5,21.5,48,48,48h208V794H782.3z M965.3,1236.1
	c0,16.8-13.7,30.5-30.5,30.5h-110c-16.8,0-30.5-13.7-30.5-30.5v-38c0-16.8,13.7-30.5,30.5-30.5h110c16.8,0,30.5,13.7,30.5,30.5
	V1236.1z M965.3,1097.1c0,16.8-13.7,30.5-30.5,30.5h-110c-16.8,0-30.5-13.7-30.5-30.5v-38c0-16.8,13.7-30.5,30.5-30.5h110
	c16.8,0,30.5,13.7,30.5,30.5V1097.1z M934.8,988.6h-110c-16.8,0-30.5-13.7-30.5-30.5v-38c0-16.8,13.7-30.5,30.5-30.5h110
	c16.8,0,30.5,13.7,30.5,30.5v38C965.3,974.9,951.5,988.6,934.8,988.6z"/>
<path class="st8" d="M1198.3,794h-208v512h208c26.5,0,48-21.5,48-48V842C1246.3,815.5,1224.8,794,1198.3,794z M1186.3,1236.1
	c0,16.8-13.7,30.5-30.5,30.5h-110c-16.8,0-30.5-13.7-30.5-30.5v-38c0-16.8,13.7-30.5,30.5-30.5h110c16.8,0,30.5,13.7,30.5,30.5
	V1236.1z M1186.3,1097.1c0,16.8-13.7,30.5-30.5,30.5h-110c-16.8,0-30.5-13.7-30.5-30.5v-38c0-16.8,13.7-30.5,30.5-30.5h110
	c16.8,0,30.5,13.7,30.5,30.5V1097.1z M1186.3,958.1c0,16.8-13.7,30.5-30.5,30.5h-110c-16.8,0-30.5-13.7-30.5-30.5v-38
	c0-16.8,13.7-30.5,30.5-30.5h110c16.8,0,30.5,13.7,30.5,30.5V958.1z"/>
<g>
	<g>
		<path class="st7" d="M-1137.3,411.6h-0.4v12.8h-34.1V261h34.1v69.6h0.4c7.1-10.9,16.9-17.2,29.1-18.8V188.9H-1352
			c-6.6,0-12,5.4-12,12v315c0,6.6,5.4,12,12,12h243.8V427.1C-1121,426.7-1130.7,421.5-1137.3,411.6z M-1225.7,424.4l-11-34.4h-55
			l-10.9,34.4h-37.7l56.3-154.5h41.3l55,154.6h-38V424.4L-1225.7,424.4z"/>
		<path class="st7" d="M-1263.9,297.5h-0.9c-0.4,4.5-1.3,9-2.7,13.5l-16.7,52.3h39.6l-16.6-52
			C-1262.5,307.5-1263.4,302.9-1263.9,297.5z"/>
		<path class="st7" d="M-1097.8,345.2c-2.7-3.5-6.1-5.8-10.4-6.9v61.5c3.9-1.4,7.2-4,9.8-7.6c4.3-6,6.4-14.5,6.4-25.5
			C-1092,357.4-1094,350.3-1097.8,345.2z"/>
		<path class="st7" d="M-1114.6,337.4c-6.8,0-12.5,2.6-17,7.7c-4.5,5.1-6.7,11.7-6.7,19.9v11.3c0,7.1,2,13,6.1,17.7s9.3,7,15.7,7
			c3,0,5.7-0.5,8.2-1.4v-61.5C-1110.2,337.7-1112.3,337.4-1114.6,337.4z"/>
		<path class="st13" d="M-951.3,420.4c-7.7,4.5-18.8,6.7-33.3,6.7c-17,0-30.7-5.1-41.2-15.4s-15.7-23.5-15.7-39.8
			c0-18.8,5.6-33.5,16.9-44.4c11.2-10.8,26.3-16.2,45.1-16.2c13,0,22.4,1.7,28.2,5.2v28.9c-7.1-5.3-15.1-8-23.8-8
			c-9.8,0-17.5,2.9-23.2,8.6s-8.6,13.6-8.6,23.7c0,9.8,2.7,17.4,8.2,23s13,8.4,22.5,8.4c8.5,0,16.8-2.7,24.9-8V420.4z"/>
		<path class="st10" d="M-864,188.9h-244.2v122.9c2.2-0.3,4.4-0.5,6.8-0.5c14.2,0,25.2,4.9,32.9,14.7c7.7,9.8,11.5,23.1,11.5,40.1
			c0,18.4-4.5,33.2-13.5,44.3c-9,11.1-21,16.7-36,16.7c-0.6,0-1.1,0-1.7,0v100.8H-864c6.6,0,12-5.4,12-12v-315
			C-852,194.3-857.4,188.9-864,188.9z M-951.3,345.4c-7.1-5.3-15.1-8-23.8-8c-9.8,0-17.5,2.9-23.2,8.6s-8.6,13.6-8.6,23.7
			c0,9.8,2.7,17.4,8.2,23s13,8.4,22.5,8.4c8.5,0,16.8-2.7,24.9-8v27.4c-7.7,4.5-18.8,6.7-33.3,6.7c-17,0-30.7-5.1-41.2-15.4
			s-15.7-23.5-15.7-39.8c0-18.8,5.6-33.5,16.9-44.4c11.2-10.8,26.3-16.2,45.1-16.2c13,0,22.4,1.7,28.2,5.2V345.4z M-875.5,257.7
			h-12.6c-3.4,0-6.2,2.8-6.2,6.2v171.2c0,3.7,3,6.6,6.6,6.6h12.2v17.8H-915h-17.8v-17.8h10.3c3.7,0,6.8-3,6.8-6.8V263.5
			c0-3.2-2.6-5.8-5.8-5.8h-11.2v-17.8h17.7h39.6L-875.5,257.7L-875.5,257.7z"/>
		<path class="st5" d="M-1137.3,411.6h-0.4v12.8h-34.1V261h34.1v69.6h0.4c7.1-10.9,16.9-17.2,29.1-18.8V188.9H-1352
			c-6.6,0-12,5.4-12,12v315c0,6.6,5.4,12,12,12h243.8V427.1C-1121,426.7-1130.7,421.5-1137.3,411.6z M-1225.7,424.4l-11-34.4h-55
			l-10.9,34.4h-37.7l56.3-154.5h41.3l55,154.6h-38V424.4L-1225.7,424.4z"/>
		<path class="st5" d="M-1263.9,297.5h-0.9c-0.4,4.5-1.3,9-2.7,13.5l-16.7,52.3h39.6l-16.6-52
			C-1262.5,307.5-1263.4,302.9-1263.9,297.5z"/>
		<path class="st10" d="M-1097.8,345.2c-2.7-3.5-6.1-5.8-10.4-6.9v61.5c3.9-1.4,7.2-4,9.8-7.6c4.3-6,6.4-14.5,6.4-25.5
			C-1092,357.4-1094,350.3-1097.8,345.2z"/>
		<path class="st5" d="M-1114.6,337.4c-6.8,0-12.5,2.6-17,7.7c-4.5,5.1-6.7,11.7-6.7,19.9v11.3c0,7.1,2,13,6.1,17.7s9.3,7,15.7,7
			c3,0,5.7-0.5,8.2-1.4v-61.5C-1110.2,337.7-1112.3,337.4-1114.6,337.4z"/>
	</g>
	<g>
		<path class="st5" d="M-875.2,567.6H-1108v46.8h232.6c12.9,0,23.4-10.5,23.4-23.4C-852,578.2-862.2,567.9-875.2,567.6z"/>
		<path class="st6" d="M-1340.6,567.6c-12.9,0-23.4,10.5-23.4,23.4c0,12.9,10.5,23.4,23.4,23.4h232.6v-46.8H-1340.6z"/>
	</g>
	<g>
		<path class="st5" d="M-875.2,102.4H-1108v46.8h232.6c12.9,0,23.4-10.5,23.4-23.4C-852,113-862.2,102.7-875.2,102.4z"/>
		<path class="st6" d="M-1340.6,102.4c-12.9,0-23.4,10.5-23.4,23.4s10.5,23.4,23.4,23.4h232.6v-46.8H-1340.6z"/>
	</g>
</g>
<g>
	<path class="st9" d="M-875.3-140.8h-232.8V-94h232.6c12.9,0,23.4-10.5,23.4-23.4C-852.1-130.2-862.3-140.5-875.3-140.8z"/>
	<path class="st0" d="M-1340.7-140.8c-12.9,0-23.4,10.5-23.4,23.4s10.5,23.4,23.4,23.4h232.6v-46.8H-1340.7z"/>
	<path class="st9" d="M-875.3-606h-232.8v46.8h232.6c12.9,0,23.4-10.5,23.4-23.4C-852.1-595.4-862.3-605.7-875.3-606z"/>
	<path class="st0" d="M-1340.7-606c-12.9,0-23.4,10.5-23.4,23.4c0,12.9,10.5,23.4,23.4,23.4h232.6V-606H-1340.7z"/>
	<path class="st9" d="M-1138.3-321.8h-112.3v110.4h-61.1v-271.1h61.1v108.1h112.3v-108.1h30.3v-37h-239.7c-8.9,0-16.3,7.3-16.3,16.3
		v306.5c0,8.9,7.3,16.3,16.3,16.3h239.7v-30.9h-30.3V-321.8z"/>
	<polygon class="st13" points="-1077.1,-211.4 -1138.3,-211.4 -1138.3,-321.8 -1250.7,-321.8 -1250.7,-211.4 -1311.7,-211.4 
		-1311.7,-482.5 -1250.7,-482.5 -1250.7,-374.4 -1138.3,-374.4 -1138.3,-482.5 -1077.1,-482.5 	"/>
	<polygon class="st13" points="-1077.1,-211.4 -1138.3,-211.4 -1138.3,-321.8 -1250.7,-321.8 -1250.7,-211.4 -1311.7,-211.4 
		-1311.7,-482.5 -1250.7,-482.5 -1250.7,-374.4 -1138.3,-374.4 -1138.3,-482.5 -1077.1,-482.5 	"/>
	<path class="st13" d="M-899.7-488.6v277.1h-59.5v-209.8c-3.3,2.9-7.2,5.6-11.6,8.2c-4.5,2.6-9.2,4.9-14.3,7
		c-5,2.1-10.3,3.8-15.7,5.3s-10.8,2.5-16.1,3.1V-448c15.5-4.5,30.1-10.3,43.9-17.4c13.7-7.1,26.2-14.8,37.2-23.3L-899.7-488.6
		L-899.7-488.6z"/>
	<path class="st13" d="M-899.7-488.6v277.1h-59.5v-209.8c-3.3,2.9-7.2,5.6-11.6,8.2c-4.5,2.6-9.2,4.9-14.3,7
		c-5,2.1-10.3,3.8-15.7,5.3s-10.8,2.5-16.1,3.1V-448c15.5-4.5,30.1-10.3,43.9-17.4c13.7-7.1,26.2-14.8,37.2-23.3L-899.7-488.6
		L-899.7-488.6z"/>
	<path class="st8" d="M-868.3-519.5h-239.8v37h31v271.1h-31v30.9h239.8c8.9,0,16.3-7.3,16.3-16.3v-306.4
		C-852.1-512.2-859.4-519.5-868.3-519.5z M-899.7-211.4h-59.5v-209.9c-3.3,2.9-7.2,5.6-11.6,8.2c-4.5,2.6-9.2,4.9-14.3,7
		c-5,2.1-10.3,3.8-15.7,5.3s-10.8,2.5-16.1,3.1V-448c15.5-4.5,30.1-10.3,43.9-17.4c13.7-7.1,26.2-14.8,37.2-23.3h36.1L-899.7-211.4
		L-899.7-211.4z"/>
</g>
<g>
	<path class="st6" d="M259.6,1868.3c0-26.2,21.3-47.5,47.5-47.5v-18.6H282c-6.6,0-12-5.1-12.4-11.7l-7.7-140.4l0,0
		c-0.4-7.1,5.3-13.1,12.4-13.1h32.8v-123.8c-141.4,0-256,114.7-256,256c0,141.4,114.6,256,256,256v-109.4
		C280.9,1915.8,259.6,1894.5,259.6,1868.3z"/>
	<path class="st5" d="M307.1,1513.2v123.9h32.7c7.1,0,12.8,6,12.4,13.1l-7.7,140.4c-0.4,6.6-5.8,11.7-12.4,11.7h-25v18.6
		c26.2,0,47.5,21.3,47.5,47.5c0,26.2-21.3,47.5-47.5,47.5v109.3c141.4,0,256-114.6,256-256C563.1,1627.9,448.5,1513.2,307.1,1513.2z
		"/>
</g>
<g id="Layer_1_8_">
	<rect x="-3608.7" y="-4876.6" class="st2" width="513" height="512"/>
</g>
<g>
	<path class="st6" d="M1645.4-276.3L1645.4-276.3v-152.3l52.4,29.8v-134c0,0-160.1,0-200,10.8c-22,5.9-39.4,23.4-45.3,45.6
		c-10.7,40.1-10.7,124-10.7,124s0,83.8,10.7,124c5.9,22.2,23.2,38.9,45.3,44.8c39.9,10.8,200,10.8,200,10.8v-133.3L1645.4-276.3z"/>
	<path class="st5" d="M1897.8-522c-39.9-10.8-200-10.8-200-10.8v134l81.5,46.3l-81.5,46.4v133.3c0,0,160.1,0,200-10.8
		c22-5.9,39.4-22.7,45.3-44.8c10.7-40.2,10.7-124,10.7-124s0-83.8-10.7-124C1937.2-498.6,1919.9-516.1,1897.8-522z"/>
</g>
<g>
	<g>
		<path class="st16" d="M-879.1-645c36.4,0,66.1,29.6,66.1,66.1V-121c0,36.4-29.6,66.1-66.1,66.1h-457.8
			c-36.4,0-66.1-29.6-66.1-66.1v-457.8c0-36.4,29.6-66.1,66.1-66.1H-879.1 M-879.1-650h-457.8c-39.3,0-71.1,31.8-71.1,71.1V-121
			c0,39.3,31.8,71.1,71.1,71.1h457.8c39.3,0,71.1-31.8,71.1-71.1v-457.8C-808-618.1-839.8-650-879.1-650L-879.1-650z"/>
	</g>
	<g>
		<path class="st16" d="M-1579.1-645c36.4,0,66.1,29.6,66.1,66.1V-121c0,36.4-29.6,66.1-66.1,66.1h-457.8
			c-36.4,0-66.1-29.6-66.1-66.1v-457.8c0-36.4,29.6-66.1,66.1-66.1H-1579.1 M-1579.1-650h-457.8c-39.3,0-71.1,31.8-71.1,71.1V-121
			c0,39.3,31.8,71.1,71.1,71.1h457.8c39.3,0,71.1-31.8,71.1-71.1v-457.8C-1508-618.1-1539.8-650-1579.1-650L-1579.1-650z"/>
	</g>
	<g>
		<path class="st16" d="M-179.1-645c36.4,0,66.1,29.6,66.1,66.1V-121c0,36.4-29.6,66.1-66.1,66.1h-457.8C-673.4-55-703-84.6-703-121
			v-457.8c0-36.4,29.6-66.1,66.1-66.1H-179.1 M-179.1-650h-457.8c-39.3,0-71.1,31.8-71.1,71.1V-121c0,39.3,31.8,71.1,71.1,71.1
			h457.8c39.3,0,71.1-31.8,71.1-71.1v-457.8C-108-618.1-139.8-650-179.1-650L-179.1-650z"/>
	</g>
	<g>
		<path class="st16" d="M520.9-645c36.4,0,66.1,29.6,66.1,66.1V-121c0,36.4-29.6,66.1-66.1,66.1H63.1C26.6-55-3-84.6-3-121v-457.8
			c0-36.4,29.6-66.1,66.1-66.1H520.9 M520.9-650H63.1C23.8-650-8-618.1-8-578.9V-121C-8-81.8,23.8-50,63.1-50h457.8
			C560.2-50,592-81.8,592-121v-457.8C592-618.1,560.2-650,520.9-650L520.9-650z"/>
	</g>
	<g>
		<path class="st16" d="M1220.9-645c36.4,0,66.1,29.6,66.1,66.1V-121c0,36.4-29.6,66.1-66.1,66.1H763.1C726.6-55,697-84.6,697-121
			v-457.8c0-36.4,29.6-66.1,66.1-66.1H1220.9 M1220.9-650H763.1c-39.3,0-71.1,31.8-71.1,71.1V-121c0,39.3,31.8,71.1,71.1,71.1h457.8
			c39.3,0,71.1-31.8,71.1-71.1v-457.8C1292-618.1,1260.2-650,1220.9-650L1220.9-650z"/>
	</g>
	<g>
		<path class="st16" d="M1920.9-645c36.4,0,66.1,29.6,66.1,66.1V-121c0,36.4-29.6,66.1-66.1,66.1h-457.8
			c-36.4,0-66.1-29.6-66.1-66.1v-457.8c0-36.4,29.6-66.1,66.1-66.1H1920.9 M1920.9-650h-457.8c-39.3,0-71.1,31.8-71.1,71.1V-121
			c0,39.3,31.8,71.1,71.1,71.1h457.8c39.3,0,71.1-31.8,71.1-71.1v-457.8C1992-618.1,1960.2-650,1920.9-650L1920.9-650z"/>
	</g>
	<g>
		<path class="st16" d="M2620.9-645c36.4,0,66.1,29.6,66.1,66.1V-121c0,36.4-29.6,66.1-66.1,66.1h-457.8
			c-36.4,0-66.1-29.6-66.1-66.1v-457.8c0-36.4,29.6-66.1,66.1-66.1H2620.9 M2620.9-650h-457.8c-39.3,0-71.1,31.8-71.1,71.1V-121
			c0,39.3,31.8,71.1,71.1,71.1h457.8c39.3,0,71.1-31.8,71.1-71.1v-457.8C2692-618.1,2660.2-650,2620.9-650L2620.9-650z"/>
	</g>
	<g>
		<path class="st16" d="M-1579.1,55c36.4,0,66.1,29.6,66.1,66.1V579c0,36.4-29.6,66.1-66.1,66.1h-457.8c-36.4,0-66.1-29.6-66.1-66.1
			V121.1c0-36.4,29.6-66.1,66.1-66.1H-1579.1 M-1579.1,50h-457.8c-39.3,0-71.1,31.8-71.1,71.1V579c0,39.3,31.8,71.1,71.1,71.1h457.8
			c39.3,0,71.1-31.8,71.1-71.1V121.1C-1508,81.9-1539.8,50-1579.1,50L-1579.1,50z"/>
	</g>
	<g>
		<path class="st16" d="M-879.1,55c36.4,0,66.1,29.6,66.1,66.1V579c0,36.4-29.6,66.1-66.1,66.1h-457.8c-36.4,0-66.1-29.6-66.1-66.1
			V121.1c0-36.4,29.6-66.1,66.1-66.1H-879.1 M-879.1,50h-457.8c-39.3,0-71.1,31.8-71.1,71.1V579c0,39.3,31.8,71.1,71.1,71.1h457.8
			c39.3,0,71.1-31.8,71.1-71.1V121.1C-808,81.9-839.8,50-879.1,50L-879.1,50z"/>
	</g>
	<g>
		<path class="st16" d="M-179.1,55c36.4,0,66.1,29.6,66.1,66.1V579c0,36.4-29.6,66.1-66.1,66.1h-457.8c-36.4,0-66.1-29.6-66.1-66.1
			V121.1c0-36.4,29.6-66.1,66.1-66.1H-179.1 M-179.1,50h-457.8c-39.3,0-71.1,31.8-71.1,71.1V579c0,39.3,31.8,71.1,71.1,71.1h457.8
			c39.3,0,71.1-31.8,71.1-71.1V121.1C-108,81.9-139.8,50-179.1,50L-179.1,50z"/>
	</g>
	<g>
		<path class="st16" d="M520.9,55c36.4,0,66.1,29.6,66.1,66.1V579c0,36.4-29.6,66.1-66.1,66.1H63.1C26.6,645-3,615.4-3,579V121.1
			C-3,84.7,26.6,55,63.1,55H520.9 M520.9,50H63.1C23.8,50-8,81.9-8,121.1V579c0,39.3,31.8,71.1,71.1,71.1h457.8
			c39.3,0,71.1-31.8,71.1-71.1V121.1C592,81.9,560.2,50,520.9,50L520.9,50z"/>
	</g>
	<g>
		<path class="st16" d="M1220.9,55c36.4,0,66.1,29.6,66.1,66.1V579c0,36.4-29.6,66.1-66.1,66.1H763.1c-36.4,0-66.1-29.6-66.1-66.1
			V121.1c0-36.4,29.6-66.1,66.1-66.1H1220.9 M1220.9,50H763.1c-39.3,0-71.1,31.8-71.1,71.1V579c0,39.3,31.8,71.1,71.1,71.1h457.8
			c39.3,0,71.1-31.8,71.1-71.1V121.1C1292,81.9,1260.2,50,1220.9,50L1220.9,50z"/>
	</g>
	<g>
		<path class="st16" d="M1920.9,55c36.4,0,66.1,29.6,66.1,66.1V579c0,36.4-29.6,66.1-66.1,66.1h-457.8c-36.4,0-66.1-29.6-66.1-66.1
			V121.1c0-36.4,29.6-66.1,66.1-66.1H1920.9 M1920.9,50h-457.8c-39.3,0-71.1,31.8-71.1,71.1V579c0,39.3,31.8,71.1,71.1,71.1h457.8
			c39.3,0,71.1-31.8,71.1-71.1V121.1C1992,81.9,1960.2,50,1920.9,50L1920.9,50z"/>
	</g>
	<g>
		<path class="st16" d="M2620.9,55c36.4,0,66.1,29.6,66.1,66.1V579c0,36.4-29.6,66.1-66.1,66.1h-457.8c-36.4,0-66.1-29.6-66.1-66.1
			V121.1c0-36.4,29.6-66.1,66.1-66.1H2620.9 M2620.9,50h-457.8c-39.3,0-71.1,31.8-71.1,71.1V579c0,39.3,31.8,71.1,71.1,71.1h457.8
			c39.3,0,71.1-31.8,71.1-71.1V121.1C2692,81.9,2660.2,50,2620.9,50L2620.9,50z"/>
	</g>
	<g>
		<path class="st16" d="M-1579.1,755c36.4,0,66.1,29.6,66.1,66.1V1279c0,36.4-29.6,66.1-66.1,66.1h-457.8
			c-36.4,0-66.1-29.6-66.1-66.1V821.1c0-36.4,29.6-66.1,66.1-66.1H-1579.1 M-1579.1,750h-457.8c-39.3,0-71.1,31.8-71.1,71.1V1279
			c0,39.3,31.8,71.1,71.1,71.1h457.8c39.3,0,71.1-31.8,71.1-71.1V821.1C-1508,781.9-1539.8,750-1579.1,750L-1579.1,750z"/>
	</g>
	<g>
		<path class="st16" d="M-879.1,755c36.4,0,66.1,29.6,66.1,66.1V1279c0,36.4-29.6,66.1-66.1,66.1h-457.8
			c-36.4,0-66.1-29.6-66.1-66.1V821.1c0-36.4,29.6-66.1,66.1-66.1H-879.1 M-879.1,750h-457.8c-39.3,0-71.1,31.8-71.1,71.1V1279
			c0,39.3,31.8,71.1,71.1,71.1h457.8c39.3,0,71.1-31.8,71.1-71.1V821.1C-808,781.9-839.8,750-879.1,750L-879.1,750z"/>
	</g>
	<g>
		<path class="st16" d="M-179.1,755c36.4,0,66.1,29.6,66.1,66.1V1279c0,36.4-29.6,66.1-66.1,66.1h-457.8
			c-36.4,0-66.1-29.6-66.1-66.1V821.1c0-36.4,29.6-66.1,66.1-66.1H-179.1 M-179.1,750h-457.8c-39.3,0-71.1,31.8-71.1,71.1V1279
			c0,39.3,31.8,71.1,71.1,71.1h457.8c39.3,0,71.1-31.8,71.1-71.1V821.1C-108,781.9-139.8,750-179.1,750L-179.1,750z"/>
	</g>
	<g>
		<path class="st16" d="M520.9,755c36.4,0,66.1,29.6,66.1,66.1V1279c0,36.4-29.6,66.1-66.1,66.1H63.1C26.6,1345-3,1315.4-3,1279
			V821.1c0-36.4,29.6-66.1,66.1-66.1H520.9 M520.9,750H63.1C23.8,750-8,781.9-8,821.1V1279c0,39.3,31.8,71.1,71.1,71.1h457.8
			c39.3,0,71.1-31.8,71.1-71.1V821.1C592,781.9,560.2,750,520.9,750L520.9,750z"/>
	</g>
	<g>
		<path class="st16" d="M1220.9,755c36.4,0,66.1,29.6,66.1,66.1V1279c0,36.4-29.6,66.1-66.1,66.1H763.1c-36.4,0-66.1-29.6-66.1-66.1
			V821.1c0-36.4,29.6-66.1,66.1-66.1H1220.9 M1220.9,750H763.1c-39.3,0-71.1,31.8-71.1,71.1V1279c0,39.3,31.8,71.1,71.1,71.1h457.8
			c39.3,0,71.1-31.8,71.1-71.1V821.1C1292,781.9,1260.2,750,1220.9,750L1220.9,750z"/>
	</g>
	<g>
		<path class="st16" d="M1920.9,755c36.4,0,66.1,29.6,66.1,66.1V1279c0,36.4-29.6,66.1-66.1,66.1h-457.8
			c-36.4,0-66.1-29.6-66.1-66.1V821.1c0-36.4,29.6-66.1,66.1-66.1H1920.9 M1920.9,750h-457.8c-39.3,0-71.1,31.8-71.1,71.1V1279
			c0,39.3,31.8,71.1,71.1,71.1h457.8c39.3,0,71.1-31.8,71.1-71.1V821.1C1992,781.9,1960.2,750,1920.9,750L1920.9,750z"/>
	</g>
	<g>
		<path class="st16" d="M2620.9,755c36.4,0,66.1,29.6,66.1,66.1V1279c0,36.4-29.6,66.1-66.1,66.1h-457.8
			c-36.4,0-66.1-29.6-66.1-66.1V821.1c0-36.4,29.6-66.1,66.1-66.1H2620.9 M2620.9,750h-457.8c-39.3,0-71.1,31.8-71.1,71.1V1279
			c0,39.3,31.8,71.1,71.1,71.1h457.8c39.3,0,71.1-31.8,71.1-71.1V821.1C2692,781.9,2660.2,750,2620.9,750L2620.9,750z"/>
	</g>
	<g>
		<path class="st16" d="M-1579.1,1455c36.4,0,66.1,29.6,66.1,66.1V1979c0,36.4-29.6,66.1-66.1,66.1h-457.8
			c-36.4,0-66.1-29.6-66.1-66.1v-457.8c0-36.4,29.6-66.1,66.1-66.1H-1579.1 M-1579.1,1450h-457.8c-39.3,0-71.1,31.8-71.1,71.1V1979
			c0,39.3,31.8,71.1,71.1,71.1h457.8c39.3,0,71.1-31.8,71.1-71.1v-457.8C-1508,1481.9-1539.8,1450-1579.1,1450L-1579.1,1450z"/>
	</g>
	<g>
		<path class="st16" d="M-879.1,1455c36.4,0,66.1,29.6,66.1,66.1V1979c0,36.4-29.6,66.1-66.1,66.1h-457.8
			c-36.4,0-66.1-29.6-66.1-66.1v-457.8c0-36.4,29.6-66.1,66.1-66.1H-879.1 M-879.1,1450h-457.8c-39.3,0-71.1,31.8-71.1,71.1V1979
			c0,39.3,31.8,71.1,71.1,71.1h457.8c39.3,0,71.1-31.8,71.1-71.1v-457.8C-808,1481.9-839.8,1450-879.1,1450L-879.1,1450z"/>
	</g>
	<g>
		<path class="st16" d="M-179.1,1455c36.4,0,66.1,29.6,66.1,66.1V1979c0,36.4-29.6,66.1-66.1,66.1h-457.8
			c-36.4,0-66.1-29.6-66.1-66.1v-457.8c0-36.4,29.6-66.1,66.1-66.1H-179.1 M-179.1,1450h-457.8c-39.3,0-71.1,31.8-71.1,71.1V1979
			c0,39.3,31.8,71.1,71.1,71.1h457.8c39.3,0,71.1-31.8,71.1-71.1v-457.8C-108,1481.9-139.8,1450-179.1,1450L-179.1,1450z"/>
	</g>
	<g>
		<path class="st16" d="M520.9,1455c36.4,0,66.1,29.6,66.1,66.1V1979c0,36.4-29.6,66.1-66.1,66.1H63.1C26.6,2045-3,2015.4-3,1979
			v-457.8c0-36.4,29.6-66.1,66.1-66.1H520.9 M520.9,1450H63.1c-39.3,0-71.1,31.8-71.1,71.1V1979c0,39.3,31.8,71.1,71.1,71.1h457.8
			c39.3,0,71.1-31.8,71.1-71.1v-457.8C592,1481.9,560.2,1450,520.9,1450L520.9,1450z"/>
	</g>
	<g>
		<path class="st16" d="M1220.9,1455c36.4,0,66.1,29.6,66.1,66.1V1979c0,36.4-29.6,66.1-66.1,66.1H763.1
			c-36.4,0-66.1-29.6-66.1-66.1v-457.8c0-36.4,29.6-66.1,66.1-66.1H1220.9 M1220.9,1450H763.1c-39.3,0-71.1,31.8-71.1,71.1V1979
			c0,39.3,31.8,71.1,71.1,71.1h457.8c39.3,0,71.1-31.8,71.1-71.1v-457.8C1292,1481.9,1260.2,1450,1220.9,1450L1220.9,1450z"/>
	</g>
	<g>
		<path class="st16" d="M1920.9,1455c36.4,0,66.1,29.6,66.1,66.1V1979c0,36.4-29.6,66.1-66.1,66.1h-457.8
			c-36.4,0-66.1-29.6-66.1-66.1v-457.8c0-36.4,29.6-66.1,66.1-66.1H1920.9 M1920.9,1450h-457.8c-39.3,0-71.1,31.8-71.1,71.1V1979
			c0,39.3,31.8,71.1,71.1,71.1h457.8c39.3,0,71.1-31.8,71.1-71.1v-457.8C1992,1481.9,1960.2,1450,1920.9,1450L1920.9,1450z"/>
	</g>
	<g>
		<path class="st16" d="M2620.9,1455c36.4,0,66.1,29.6,66.1,66.1V1979c0,36.4-29.6,66.1-66.1,66.1h-457.8
			c-36.4,0-66.1-29.6-66.1-66.1v-457.8c0-36.4,29.6-66.1,66.1-66.1H2620.9 M2620.9,1450h-457.8c-39.3,0-71.1,31.8-71.1,71.1V1979
			c0,39.3,31.8,71.1,71.1,71.1h457.8c39.3,0,71.1-31.8,71.1-71.1v-457.8C2692,1481.9,2660.2,1450,2620.9,1450L2620.9,1450z"/>
	</g>
</g>
</svg>
