<svg xmlns="http://www.w3.org/2000/svg" viewBox="0 0 512 512"><defs><style>.cls-1{fill:#fff;}.cls-2{fill:#cdd4d5;}.cls-3{fill:#e6eaea;}.cls-4{fill:#365558;}.cls-5{fill:#fd6a33;}.cls-6{fill:#e3493c;}.cls-7{fill:none;}.cls-8{fill:#0295aa;}.cls-9{fill:#4acfd9;}</style></defs><title>airdrop-program</title><g id="Layer_15" data-name="Layer 15"><path class="cls-1" d="M166.66,502.09A14,14,0,0,0,180,512h2.34A17.34,17.34,0,0,1,166.66,502.09Z"/><path class="cls-1" d="M182.38,376.58H180a14,14,0,0,0-13.38,9.9A17.35,17.35,0,0,1,182.38,376.58Z"/><path class="cls-2" d="M170.05,390.57V498a10,10,0,0,0,10,10h76V380.57H180A10,10,0,0,0,170.05,390.57Z"/><path class="cls-3" d="M332,508a10,10,0,0,0,10-10V390.57a10,10,0,0,0-10-10H256V508Z"/><path class="cls-1" d="M332,376.58h-3.33a17.17,17.17,0,0,1,17.32,17V495a17.18,17.18,0,0,1-17.32,17H332a14,14,0,0,0,14-14V390.57A14,14,0,0,0,332,376.58Z"/><path class="cls-4" d="M166.05,390.57a14.2,14.2,0,0,1,.61-4.09,16.66,16.66,0,0,0-1.6,7.08V495a16.66,16.66,0,0,0,1.6,7.08,14.08,14.08,0,0,1-.61-4.08Z"/><path class="cls-4" d="M180,508a10,10,0,0,1-10-10V390.57a10,10,0,0,1,10-10h76v-4H182.38a17.35,17.35,0,0,0-15.72,9.9,14.2,14.2,0,0,0-.61,4.09V498a14.08,14.08,0,0,0,.61,4.08A17.34,17.34,0,0,0,182.38,512H256v-4Z"/><path class="cls-4" d="M346,495V393.56a17.17,17.17,0,0,0-17.32-17H256v4h76a10,10,0,0,1,10,10V498a10,10,0,0,1-10,10H256v4h72.63A17.18,17.18,0,0,0,346,495Z"/><path class="cls-1" d="M256,399.13v96.26a48.13,48.13,0,0,0,0-96.26Z"/><path class="cls-3" d="M207.87,447.26A48.12,48.12,0,0,0,256,495.39V399.13A48.13,48.13,0,0,0,207.87,447.26Z"/><path class="cls-5" d="M266.32,449.52a30.19,30.19,0,0,1-3.87-9.4c.45-4-1-8.92-4.16-9.4a3.57,3.57,0,0,0-2.29.47v25.75a31.72,31.72,0,0,1,3.21.89c3.41,2.31,8.31,3.55,10.4,1.2S269.61,452.58,266.32,449.52Z"/><path class="cls-6" d="M251.45,438.24a29.62,29.62,0,0,1-6.69,8c-3.75,1.67-7.36,5.19-6.19,8s6.52,3.08,10.19,2a32.12,32.12,0,0,1,7.26.72V431.17C253.78,432.41,252,435.6,251.45,438.24Z"/><path class="cls-5" d="M262.82,414.38c5.19.2,7.24,10.3,6.4,17.95A101.36,101.36,0,0,0,276,451.08a7.72,7.72,0,0,0,3.29,3.16,40.75,40.75,0,0,1-3.5-20c3.3-8.76,1.83-20.59-3.12-23.35a11.49,11.49,0,0,0-15.19,4.61.76.76,0,0,0-.09.18A7.69,7.69,0,0,1,262.82,414.38Z"/><path class="cls-6" d="M233.46,436.11c-9.55,1.64-19.46,8.76-19.46,14.23a11.1,11.1,0,0,0,11.77,10.33h.15a7.56,7.56,0,0,1-3.61-4c-2.5-4,5.39-10.94,12.84-14.19,2.37-1,12.09-13,13.46-15a7.74,7.74,0,0,0,1.2-4.36A43.34,43.34,0,0,1,233.46,436.11Z"/><path class="cls-5" d="M282.81,465.52a2,2,0,0,0-.21-.3,7.16,7.16,0,0,1-1.61,5.11c-2.75,4-12.77.92-19.41-3.68q-2.76-.76-5.58-1.41v5.56c.22.15.45.28.68.43,6.28,7.17,17.61,12,22.56,9.08A10.48,10.48,0,0,0,282.81,465.52Z"/><path class="cls-6" d="M241.35,463a7.63,7.63,0,0,0-4.49,1.17A44,44,0,0,1,256,470.82v-5.57A112.68,112.68,0,0,0,241.35,463Z"/><path class="cls-7" d="M73.94,197.32l170.45,155L175.44,199.91C125.06,158.21,84.92,187.52,73.94,197.32Z"/><path class="cls-7" d="M336.66,199.69,267.61,352.34,437.77,197.59C383.41,155.17,341.58,194.68,336.66,199.69Z"/><path class="cls-8" d="M230.08,9.88C143.71,22.49,76.44,97.11,72.29,188.45c15.56-12,55-34.3,102.48.78C176.13,104.33,198.58,34.8,230.08,9.88Z"/><path class="cls-9" d="M337.22,188.67c15.34-12,54.87-34.67,102.52.37C435.85,97.43,368.48,22.51,281.92,9.88,313.35,34.75,335.77,104,337.22,188.67Z"/><path class="cls-9" d="M256,170.3h.94l.65,0,1.43,0,.81,0,1.31.05.88,0,1.25.07.94.06,1.22.08,1,.08,1.22.1,1,.1,1.22.12,1,.11,1.22.14,1,.13,1.23.17,1,.14,1.24.19,1.05.17,1.25.2,1.05.19,1.27.23,1.05.2,1.29.26,1.06.22,1.3.28L287,174l1.32.31,1.06.25,1.34.34,1.06.28,1.37.37,1,.29,1.39.4,1,.31,1.44.44,1,.32,1.51.49,1,.32,1.57.54.92.32,1.72.63.78.28c.7.26,1.39.53,2.09.81l.43.16,2.56,1,.1,0,2.44,1,.78.34,1.78.8,1,.45,1.59.74,1.07.52,1.52.74,1.12.57c.49.25,1,.49,1.48.75l1.17.61,1.44.76,1.2.66,1,.55C327.77,90.84,294.83,8,256,8h0Z"/><path class="cls-8" d="M184.72,188.82l.7-.39.71-.4,1.21-.66.73-.39c.36-.2.73-.39,1.1-.58l.92-.48,1.11-.56.73-.36,1.61-.78.76-.35c.51-.25,1-.49,1.58-.73l.79-.36,1.55-.68.73-.31,2-.84.76-.31,2-.8.64-.24,2-.75.72-.25c.78-.28,1.58-.56,2.4-.83l.72-.24,2.54-.82.37-.11,2.58-.77.65-.19,2.82-.76.63-.16c1-.26,2-.52,3.07-.76a140.84,140.84,0,0,1,32-3.67H256V8c-38.77,0-71.67,82.58-73.25,182l.35-.2.62-.37Z"/><path class="cls-4" d="M258,371.78l-.42.2Z"/><path class="cls-4" d="M257.3,372.07a3.17,3.17,0,0,1-.44.12A3.17,3.17,0,0,0,257.3,372.07Z"/><path class="cls-4" d="M256.66,372.23a3.68,3.68,0,0,1-.66.06A3.68,3.68,0,0,0,256.66,372.23Z"/><path class="cls-4" d="M253.88,371.68a4.19,4.19,0,0,1-.54-.4A4.19,4.19,0,0,0,253.88,371.68Z"/><path class="cls-4" d="M254.48,372a3.42,3.42,0,0,1-.43-.21A3.42,3.42,0,0,0,254.48,372Z"/><path class="cls-4" d="M255.14,372.19a3.17,3.17,0,0,1-.44-.12A3.17,3.17,0,0,0,255.14,372.19Z"/><path class="cls-4" d="M336.23,200.13l-.06.05a3.7,3.7,0,0,1-.46.42h0a3.07,3.07,0,0,1-.42.28l-.08,0L335,201l-.41.17-.18.06-.48.11-.12,0a4.29,4.29,0,0,1-.62,0h-.1a4.43,4.43,0,0,1-.51-.06l-.19,0a3.45,3.45,0,0,1-.43-.12l-.18-.07a5,5,0,0,1-.57-.28c-1-.62-2-1.21-3-1.79L256,358.59,183.72,198.81c-1.64,1.06-2.53,1.73-2.61,1.78l-.15.1a3,3,0,0,1-.42.26l-.15.07a4.47,4.47,0,0,1-.46.19l-.21,0-.43.1-.25,0-.34,0h0a4.36,4.36,0,0,1-.8-.09l-.18-.06A3.62,3.62,0,0,1,177,201l-.12,0-.13-.08a1.06,1.06,0,0,1-.2-.12,2.31,2.31,0,0,1-.36-.25l-.1-.07-.69-.56,68.95,152.43L256,362.89l11.61-10.55,69.05-152.65Z"/><path class="cls-4" d="M256,372.29a3.68,3.68,0,0,1-.66-.06A3.68,3.68,0,0,0,256,372.29Z"/><path class="cls-4" d="M258.65,371.28a3.51,3.51,0,0,1-.53.4A3.51,3.51,0,0,0,258.65,371.28Z"/><path class="cls-4" d="M447.19,199.68l-.12.16Z"/><path class="cls-4" d="M252.36,369.94l-8-17.6-170.45-155c-1.68,1.5-2.68,2.55-2.93,2.81a4,4,0,0,1-4.39,1,3.73,3.73,0,0,1-1.31-.86.81.81,0,0,0,.09.1L253.31,371.25l0,0A4,4,0,0,1,252.36,369.94Z"/><path class="cls-4" d="M254.05,371.77l-.17-.09Z"/><path class="cls-4" d="M254.7,372.07l-.22-.09Z"/><path class="cls-4" d="M443.91,201.4h0a4,4,0,0,1-2.57-.93c-1.19-1-2.38-2-3.57-2.88L267.61,352.34l-8,17.6a3.87,3.87,0,0,1-1,1.34l0,0L446.55,200.41a3.8,3.8,0,0,1-.95.62A4,4,0,0,1,443.91,201.4Z"/><path class="cls-4" d="M64.24,198.45a1.55,1.55,0,0,1,0-.23A1.55,1.55,0,0,0,64.24,198.45Z"/><path class="cls-4" d="M446.6,200.36l0,0a.27.27,0,0,0-.07.08Z"/><path class="cls-4" d="M64.48,199.12c0-.06,0-.11-.07-.17S64.45,199.06,64.48,199.12Z"/><path class="cls-4" d="M65,199.87l-.14-.16Z"/><path class="cls-4" d="M64.12,197.74a1.64,1.64,0,0,1,0-.23A1.64,1.64,0,0,0,64.12,197.74Z"/><path class="cls-4" d="M255.34,372.23l-.2,0Z"/><path class="cls-4" d="M447.81,198.24a1.16,1.16,0,0,1,0,.18A1.16,1.16,0,0,0,447.81,198.24Z"/><path class="cls-4" d="M257.53,372l-.23.09Z"/><path class="cls-4" d="M256.86,372.19l-.2,0Z"/><path class="cls-4" d="M258.12,371.68a1.51,1.51,0,0,0-.17.1A1.51,1.51,0,0,1,258.12,371.68Z"/><path class="cls-4" d="M447.55,199.07l0,.07Z"/><path class="cls-4" d="M447.9,197.53c0,.06,0,.12,0,.19S447.9,197.59,447.9,197.53Z"/><path class="cls-4" d="M267.61,352.34,256,362.89l-11.61-10.55,8,17.6a4,4,0,0,0,1,1.34,4.19,4.19,0,0,0,.54.4l.17.09a3.42,3.42,0,0,0,.43.21l.22.09a3.17,3.17,0,0,0,.44.12l.2,0a3.66,3.66,0,0,0,1.32,0l.2,0a3.17,3.17,0,0,0,.44-.12l.23-.09.42-.2a1.51,1.51,0,0,1,.17-.1,3.51,3.51,0,0,0,.53-.4,3.87,3.87,0,0,0,1-1.34Z"/><path class="cls-4" d="M447.77,198.42a4.51,4.51,0,0,1-.22.65A4.51,4.51,0,0,0,447.77,198.42Z"/><path class="cls-4" d="M447.89,197.72a5.06,5.06,0,0,1-.08.52A5.06,5.06,0,0,0,447.89,197.72Z"/><path class="cls-4" d="M64.19,198.22a2.53,2.53,0,0,1-.07-.48A2.41,2.41,0,0,0,64.19,198.22Z"/><path class="cls-4" d="M447.51,199.14a3.65,3.65,0,0,1-.32.54A3.65,3.65,0,0,0,447.51,199.14Z"/><path class="cls-4" d="M68.14,193.43C70.07,94.84,143.66,14.37,237.5,4.93A38.34,38.34,0,0,1,256,0h0C150.18,0,64.09,88.56,64.09,197.41c0,0,0,.07,0,.1a4,4,0,0,1,4-4.08Z"/><path class="cls-4" d="M446.57,200.4h0Z"/><path class="cls-4" d="M443.86,193.43a3.94,3.94,0,0,1,3,1.29,4,4,0,0,1,1,2.81s0-.08,0-.12C447.91,88.56,361.82,0,256,0a38.34,38.34,0,0,1,18.5,4.93C368.34,14.37,441.93,94.84,443.86,193.43Z"/><path class="cls-4" d="M446.64,200.32a3.89,3.89,0,0,0,.43-.48A3.89,3.89,0,0,1,446.64,200.32Z"/><path class="cls-4" d="M64.41,199a3,3,0,0,1-.17-.5A3,3,0,0,0,64.41,199Z"/><path class="cls-4" d="M183.72,198.81h0c8.05-5.2,34.12-20,70-20.44C217.84,178.78,191.77,193.61,183.72,198.81Z"/><path class="cls-4" d="M175.44,199.91l-.39-.86h0a4,4,0,0,1-.23-.69,1.16,1.16,0,0,0,0-.18,5,5,0,0,1-.07-.56c0-.05,0-.1,0-.16v-.05c0-1.07,0-2.14,0-3.2C123.33,154.35,82,184.83,71,194.64l3,2.68C84.92,187.52,125.06,158.21,175.44,199.91Z"/><path class="cls-4" d="M64.82,199.71a3.91,3.91,0,0,1-.34-.59A5,5,0,0,0,64.82,199.71Z"/><path class="cls-4" d="M65.31,200.26a2.57,2.57,0,0,1-.35-.39A2.57,2.57,0,0,0,65.31,200.26Z"/><path class="cls-4" d="M337.28,193.7c0,1.23,0,2.47,0,3.71v.05s0,.1,0,.15a5.22,5.22,0,0,1-.07.57c0,.06,0,.11,0,.17a4,4,0,0,1-.22.67l0,0-.28.64c4.92-5,46.75-44.52,101.11-2.1l3-2.73C390.55,155.23,349.8,183,337.28,193.7Z"/><path class="cls-4" d="M274.5,4.93a53.5,53.5,0,0,1,7.42,5C368.48,22.51,435.85,97.43,439.74,189c-47.65-35-87.18-12.33-102.52-.37,0,1.67,0,3.35.06,5,12.52-10.7,53.27-38.47,103.49,1.16l.45-.41a3.93,3.93,0,0,1,2.64-1C441.93,94.84,368.34,14.37,274.5,4.93Z"/><path class="cls-4" d="M174.72,194.21c0-1.67,0-3.33.05-5-47.47-35.08-86.92-12.81-102.48-.78,4.15-91.34,71.42-166,157.79-178.57a53.5,53.5,0,0,1,7.42-5C143.66,14.37,70.07,94.84,68.14,193.43a4,4,0,0,1,2.64,1l.21.19C82,184.83,123.33,154.35,174.72,194.21Z"/><path class="cls-4" d="M305.71,179.56l.78.28Z"/><path class="cls-4" d="M300.54,177.75l1,.32Z"/><path class="cls-4" d="M293.1,175.5l1,.29Z"/><path class="cls-4" d="M298,176.94l1,.32Z"/><path class="cls-4" d="M295.54,176.19l1,.31Z"/><path class="cls-4" d="M308.58,180.65l.43.16Z"/><path class="cls-4" d="M290.67,174.85l1.06.28Z"/><path class="cls-4" d="M324.43,187.84l1.17.61Z"/><path class="cls-4" d="M327,189.21l1.2.66Z"/><path class="cls-4" d="M311.57,181.85l.1,0Z"/><path class="cls-4" d="M321.83,186.52l1.12.57Z"/><path class="cls-4" d="M314.11,182.93l.78.34Z"/><path class="cls-4" d="M316.67,184.07l1,.45Z"/><path class="cls-4" d="M319.24,185.26l1.07.52Z"/><path class="cls-4" d="M272.05,171.33l1,.13Z"/><path class="cls-4" d="M261.14,170.43l.88,0Z"/><path class="cls-4" d="M263.27,170.54l.94.06Z"/><path class="cls-4" d="M265.43,170.68l1,.08Z"/><path class="cls-4" d="M256.94,170.3l.65,0Z"/><path class="cls-4" d="M259,170.35l.81,0Z"/><path class="cls-4" d="M222.92,174c-1,.24-2.06.5-3.07.76C220.86,174.46,221.88,174.2,222.92,174Z"/><path class="cls-4" d="M267.61,170.86l1,.1Z"/><path class="cls-4" d="M281.19,172.75l1.05.2Z"/><path class="cls-4" d="M283.53,173.21l1.06.22Z"/><path class="cls-4" d="M269.82,171.08l1,.11Z"/><path class="cls-4" d="M285.89,173.71,287,174Z"/><path class="cls-4" d="M288.27,174.26l1.06.25Z"/><path class="cls-4" d="M274.3,171.63l1,.14Z"/><path class="cls-4" d="M276.57,172l1.05.17Z"/><path class="cls-4" d="M278.87,172.33l1.05.19Z"/><path class="cls-4" d="M303.07,178.61l.92.32Z"/><path class="cls-4" d="M212.8,176.71l-2.54.82Z"/><path class="cls-4" d="M195.88,183.14c-.54.24-1.07.48-1.58.73C194.81,183.62,195.34,183.38,195.88,183.14Z"/><path class="cls-4" d="M215.75,175.83l-2.58.77Z"/><path class="cls-4" d="M193.54,184.22l-1.61.78Z"/><path class="cls-4" d="M206.42,178.85l-2,.75Z"/><path class="cls-4" d="M203.76,179.84l-2,.8Z"/><path class="cls-4" d="M198.22,182.1l-1.55.68Z"/><path class="cls-4" d="M201,181l-2,.84Z"/><path class="cls-4" d="M209.54,177.77c-.82.27-1.62.55-2.4.83C207.92,178.32,208.72,178,209.54,177.77Z"/><path class="cls-4" d="M189.17,186.4c-.37.19-.74.38-1.1.58C188.43,186.78,188.8,186.59,189.17,186.4Z"/><path class="cls-4" d="M185.42,188.43l-.7.39Z"/><path class="cls-4" d="M187.34,187.37l-1.21.66Z"/><path class="cls-4" d="M191.2,185.36l-1.11.56Z"/><path class="cls-4" d="M219.22,174.88l-2.82.76Z"/><path class="cls-4" d="M183.1,189.77l.62-.37Z"/><path class="cls-4" d="M174.71,197.62c0-.05,0-.1,0-.16S174.71,197.57,174.71,197.62Z"/><path class="cls-4" d="M333.2,201.4h0Z"/><path class="cls-4" d="M332.59,201.33l-.19,0Z"/><path class="cls-4" d="M333.94,201.35l-.12,0Z"/><path class="cls-4" d="M179.29,201.36l-.25,0Z"/><path class="cls-4" d="M332,201.17l-.18-.07Z"/><path class="cls-4" d="M179.93,201.21l-.21,0Z"/><path class="cls-4" d="M334.6,201.18l-.18.06Z"/><path class="cls-4" d="M175.05,199.05h0l.39.86.69.56.1.07A4.07,4.07,0,0,1,175.05,199.05Z"/><path class="cls-4" d="M176.79,200.91a2.12,2.12,0,0,1-.2-.12A1.06,1.06,0,0,0,176.79,200.91Z"/><path class="cls-4" d="M180.54,201l-.15.07Z"/><path class="cls-4" d="M178.65,201.4a4.36,4.36,0,0,1-.8-.09A4.36,4.36,0,0,0,178.65,201.4Z"/><path class="cls-4" d="M337.3,197.46s0,.1,0,.15S337.3,197.51,337.3,197.46Z"/><path class="cls-4" d="M174.82,198.36a1.16,1.16,0,0,0,0-.18A1.16,1.16,0,0,1,174.82,198.36Z"/><path class="cls-4" d="M177.67,201.25A3.62,3.62,0,0,1,177,201,3.62,3.62,0,0,0,177.67,201.25Z"/><path class="cls-4" d="M181.11,200.59l-.15.1.15-.1c.08-.05,1-.72,2.61-1.78h0C182.08,199.87,181.18,200.54,181.11,200.59Z"/><path class="cls-4" d="M337.22,198.18c0,.06,0,.11,0,.17S337.2,198.24,337.22,198.18Z"/><path class="cls-4" d="M335.71,200.6h0Z"/><path class="cls-4" d="M336.23,200.13l.43-.44.28-.64,0,0a4,4,0,0,1-.79,1.16Z"/><path class="cls-4" d="M335.18,200.93,335,201Z"/><path class="cls-4" d="M447.19,199.68a3.65,3.65,0,0,0,.32-.54l0-.07a4.51,4.51,0,0,0,.22-.65,1.16,1.16,0,0,0,0-.18,5.06,5.06,0,0,0,.08-.52c0-.07,0-.13,0-.19a4,4,0,0,0-1-2.81,3.94,3.94,0,0,0-3-1.29c0,1.32.05,2.65.05,4-1.05-.89-2.09-1.73-3.14-2.55l-3,2.73c1.19.92,2.38,1.87,3.57,2.88a4,4,0,0,0,2.57.93h0a4,4,0,0,0,1.69-.37,3.8,3.8,0,0,0,.95-.62h0a.27.27,0,0,1,.07-.08,3.89,3.89,0,0,0,.43-.48Z"/><path class="cls-4" d="M71,200.13c.25-.26,1.25-1.31,2.93-2.81l-3-2.68c-1.9,1.69-2.9,2.77-2.9,2.77,0-1.33,0-2.66,0-4a4,4,0,0,0-4,4.08,1.64,1.64,0,0,0,0,.23,2.53,2.53,0,0,0,.07.48,1.55,1.55,0,0,0,0,.23,3,3,0,0,0,.17.5c0,.06,0,.11.07.17a3.91,3.91,0,0,0,.34.59l.14.16a2.57,2.57,0,0,0,.35.39,3.73,3.73,0,0,0,1.31.86A4,4,0,0,0,71,200.13Z"/><path class="cls-4" d="M440.77,194.86c1.05.82,2.09,1.66,3.14,2.55,0-1.33,0-2.66-.05-4a3.93,3.93,0,0,0-2.64,1Z"/><path class="cls-4" d="M68.14,193.43c0,1.32,0,2.65,0,4,0,0,1-1.08,2.9-2.77l-.21-.19A4,4,0,0,0,68.14,193.43Z"/><path class="cls-4" d="M256,178.37h0c21.3.12,45.91,5.39,72.18,20.66h0C301.91,183.76,277.3,178.49,256,178.37Z"/><path class="cls-4" d="M253.72,178.37h0Z"/><path class="cls-4" d="M333.27,192c1.05-.93,2.37-2,4-3.28C335.77,104,313.35,34.75,281.92,9.88c-2.87-.42-5.77-.77-8.68-1.05C307,28,332.28,102.38,333.27,192Z"/><path class="cls-4" d="M238.76,8.83c-2.91.28-5.81.63-8.68,1.05-31.5,24.92-54,94.45-55.31,179.35q2,1.46,3.95,3C179.66,102.56,205,28.06,238.76,8.83Z"/><path class="cls-4" d="M186.13,188l-.71.4Z"/><path class="cls-4" d="M262,170.47l1.25.07Z"/><path class="cls-4" d="M329.25,190.42l-1-.55q2.25,1.23,4.5,2.55l.53-.47c-1-89.57-26.32-163.91-60-183.12Q264.72,8,256,8C294.83,8,327.77,90.84,329.25,190.42Z"/><path class="cls-4" d="M264.21,170.6l1.22.08Z"/><path class="cls-4" d="M257.59,170.32l1.43,0Z"/><path class="cls-4" d="M184.72,188.82l-1,.58Z"/><path class="cls-4" d="M178.72,192.27a1.09,1.09,0,0,1,.17.13c1.09-.72,2.5-1.62,4.21-2.63l-.35.2C184.33,90.58,217.23,8,256,8h0q-8.72,0-17.24.83C205,28.06,179.66,102.56,178.72,192.27Z"/><path class="cls-4" d="M259.83,170.38l1.31.05Z"/><path class="cls-4" d="M268.6,171l1.22.12Z"/><path class="cls-4" d="M309,180.81l2.56,1Z"/><path class="cls-4" d="M301.5,178.07l1.57.54Z"/><path class="cls-4" d="M204.4,179.6l-.64.24Z"/><path class="cls-4" d="M304,178.93l1.72.63Z"/><path class="cls-4" d="M306.49,179.84c.7.26,1.39.53,2.09.81C307.88,180.37,307.19,180.1,306.49,179.84Z"/><path class="cls-4" d="M207.14,178.6l-.72.25Z"/><path class="cls-4" d="M299,177.26l1.51.49Z"/><path class="cls-4" d="M199,181.79l-.73.31Z"/><path class="cls-4" d="M291.73,175.13l1.37.37Z"/><path class="cls-4" d="M266.39,170.76l1.22.1Z"/><path class="cls-4" d="M296.58,176.5l1.44.44Z"/><path class="cls-4" d="M289.33,174.51l1.34.34Z"/><path class="cls-4" d="M294.15,175.79l1.39.4Z"/><path class="cls-4" d="M323,187.09c.49.25,1,.49,1.48.75C323.94,187.58,323.44,187.34,323,187.09Z"/><path class="cls-4" d="M216.4,175.64l-.65.19Z"/><path class="cls-4" d="M210.26,177.53l-.72.24Z"/><path class="cls-4" d="M256.94,170.3h0Z"/><path class="cls-4" d="M219.85,174.72l-.63.16Z"/><path class="cls-4" d="M325.6,188.45l1.44.76Z"/><path class="cls-4" d="M314.89,183.27l1.78.8Z"/><path class="cls-4" d="M311.67,181.89l2.44,1Z"/><path class="cls-4" d="M317.65,184.52l1.59.74Z"/><path class="cls-4" d="M320.31,185.78l1.52.74Z"/><path class="cls-4" d="M213.17,176.6l-.37.11Z"/><path class="cls-4" d="M201.72,180.64,201,181Z"/><path class="cls-4" d="M256,170.3Z"/><path class="cls-4" d="M279.92,172.52l1.27.23Z"/><path class="cls-4" d="M270.83,171.19l1.22.14Z"/><path class="cls-4" d="M194.3,183.87l-.76.35Z"/><path class="cls-4" d="M188.07,187l-.73.39Z"/><path class="cls-4" d="M282.24,173l1.29.26Z"/><path class="cls-4" d="M277.62,172.13l1.25.2Z"/><path class="cls-4" d="M273.07,171.46l1.23.17Z"/><path class="cls-4" d="M191.93,185l-.73.36Z"/><path class="cls-4" d="M275.33,171.77l1.24.19Z"/><path class="cls-4" d="M190.09,185.92l-.92.48Z"/><path class="cls-4" d="M284.59,173.43l1.3.28Z"/><path class="cls-4" d="M196.67,182.78l-.79.36Z"/><path class="cls-4" d="M287,174l1.32.31Z"/><path class="cls-4" d="M333.1,201.39a4.43,4.43,0,0,1-.51-.06A4.43,4.43,0,0,0,333.1,201.39Z"/><path class="cls-4" d="M332.4,201.29a3.45,3.45,0,0,1-.43-.12A3.45,3.45,0,0,0,332.4,201.29Z"/><path class="cls-4" d="M177.85,201.31l-.18-.06Z"/><path class="cls-4" d="M180.39,201a4.47,4.47,0,0,1-.46.19A4.47,4.47,0,0,0,180.39,201Z"/><path class="cls-4" d="M328.18,199h0c1,.58,2,1.17,3,1.79a5,5,0,0,0,.57.28,4.18,4.18,0,0,1-.56-.28C330.21,200.2,329.2,199.61,328.18,199Z"/><path class="cls-4" d="M179.72,201.26l-.43.1Z"/><path class="cls-4" d="M181,200.69a3.66,3.66,0,0,1-.42.26A3,3,0,0,0,181,200.69Z"/><path class="cls-4" d="M336.17,200.18a4.58,4.58,0,0,1-.46.42A3.7,3.7,0,0,0,336.17,200.18Z"/><path class="cls-4" d="M176.92,201l.12,0c-.08,0-.17-.07-.25-.12Z"/><path class="cls-4" d="M335.26,200.89a3.07,3.07,0,0,0,.42-.28,3.27,3.27,0,0,1-.5.32Z"/><path class="cls-4" d="M335,201l-.41.17Z"/><path class="cls-4" d="M334.42,201.24l-.48.11Z"/><path class="cls-4" d="M176.59,200.79a2.9,2.9,0,0,1-.36-.25A2.31,2.31,0,0,0,176.59,200.79Z"/><path class="cls-4" d="M178.7,201.4h0l.34,0-.39,0Z"/><path class="cls-4" d="M333.82,201.37a4.29,4.29,0,0,1-.62,0A4.29,4.29,0,0,0,333.82,201.37Z"/><path class="cls-4" d="M256,4h0q9.36,0,18.5.93A38.34,38.34,0,0,0,256,0h0Z"/><path class="cls-4" d="M337.3,197.46v-.05c0-1.24,0-2.48,0-3.71l-1.09,1A4,4,0,0,1,337.3,197.46Z"/><path class="cls-4" d="M174.72,194.21c0,1.06,0,2.13,0,3.2v.05a4,4,0,0,1,.91-2.57Z"/><path class="cls-4" d="M256,0a38.34,38.34,0,0,0-18.5,4.93Q246.64,4,256,4Z"/><path class="cls-4" d="M256,174.24v4.13c21.3.12,45.91,5.39,72.18,20.65l1.48-3.26c.06-.14.15-.25.22-.38C303,179.8,277.78,174.38,256,174.24Z"/><path class="cls-4" d="M337.29,197.61a5.54,5.54,0,0,1-.07.57A5.22,5.22,0,0,0,337.29,197.61Z"/><path class="cls-4" d="M175.05,199.05a4.65,4.65,0,0,1-.23-.69A4,4,0,0,0,175.05,199.05Z"/><path class="cls-4" d="M174.78,198.18a5.35,5.35,0,0,1-.07-.56A5,5,0,0,0,174.78,198.18Z"/><path class="cls-4" d="M182,195.16a3.93,3.93,0,0,1,.35.6l1.38,3.05c8.05-5.2,34.12-20,70-20.44H256v-4.13A138.84,138.84,0,0,0,182,195.16Z"/><path class="cls-4" d="M337.18,198.35a4.37,4.37,0,0,1-.22.67A4,4,0,0,0,337.18,198.35Z"/><path class="cls-4" d="M238.76,8.83A34.52,34.52,0,0,1,256,4h0q-9.36,0-18.5.93a53.5,53.5,0,0,0-7.42,5C233,9.46,235.85,9.11,238.76,8.83Z"/><path class="cls-4" d="M177.05,193.76a3.93,3.93,0,0,1,1.67-.34v-1.15q-2-1.59-3.95-3c0,1.65,0,3.31-.05,5l.89.68A4.05,4.05,0,0,1,177.05,193.76Z"/><path class="cls-4" d="M333.28,193.42a3.93,3.93,0,0,1,1.67.34,4,4,0,0,1,1.24.89l1.09-1c0-1.68,0-3.36-.06-5-1.58,1.23-2.9,2.35-4,3.28C333.28,192.44,333.28,192.93,333.28,193.42Z"/><path class="cls-4" d="M281.92,9.88a53.5,53.5,0,0,0-7.42-5Q265.37,4,256,4a34.52,34.52,0,0,1,17.24,4.83C276.15,9.11,279.05,9.46,281.92,9.88Z"/><path class="cls-4" d="M328.24,189.87l-1.2-.66-1.44-.76-1.17-.61c-.49-.26-1-.5-1.48-.75l-1.12-.57-1.52-.74-1.07-.52-1.59-.74-1-.45-1.78-.8-.78-.34-2.44-1-.1,0-2.56-1-.43-.16c-.7-.28-1.39-.55-2.09-.81l-.78-.28-1.72-.63-.92-.32-1.57-.54-1-.32-1.51-.49-1-.32-1.44-.44-1-.31-1.39-.4-1-.29-1.37-.37-1.06-.28-1.34-.34-1.06-.25L287,174l-1.06-.24-1.3-.28-1.06-.22-1.29-.26-1.05-.2-1.27-.23-1.05-.19-1.25-.2-1.05-.17-1.24-.19-1-.14-1.23-.17-1-.13-1.22-.14-1-.11L268.6,171l-1-.1-1.22-.1-1-.08-1.22-.08-.94-.06-1.25-.07-.88,0-1.31-.05-.81,0-1.43,0-.65,0H256v3.94c21.78.14,46.95,5.56,73.88,21.14a4,4,0,0,1,3.4-2c0-.49,0-1,0-1.47l-.53.47Q330.49,191.1,328.24,189.87Z"/><path class="cls-4" d="M256,170.3h-1.13a140.84,140.84,0,0,0-32,3.67c-1,.24-2.06.5-3.07.76l-.63.16-2.82.76-.65.19-2.58.77-.37.11-2.54.82-.72.24c-.82.27-1.62.55-2.4.83l-.72.25-2,.75-.64.24-2,.8L201,181l-2,.84-.73.31-1.55.68-.79.36c-.54.24-1.07.48-1.58.73l-.76.35-1.61.78-.73.36-1.11.56-.92.48c-.37.19-.74.38-1.1.58l-.73.39-1.21.66-.71.4-.7.39-1,.58-.62.37c-1.71,1-3.12,1.91-4.21,2.63a1.09,1.09,0,0,0-.17-.13v1.15a4,4,0,0,1,3.27,1.74,138.84,138.84,0,0,1,74-20.92Z"/><path class="cls-4" d="M256,8h0q8.72,0,17.24.83A34.52,34.52,0,0,0,256,4h0Z"/><path class="cls-4" d="M256,4a34.52,34.52,0,0,0-17.24,4.83Q247.28,8,256,8Z"/><path class="cls-4" d="M183.72,198.81l-1.38-3.05a3.93,3.93,0,0,0-.35-.6c-2.15,1.38-3.29,2.25-3.29,2.25q-1.56-1.31-3.09-2.52a4,4,0,0,0-.91,2.57c0,.06,0,.11,0,.16a5.35,5.35,0,0,0,.07.56,1.16,1.16,0,0,1,0,.18,4.65,4.65,0,0,0,.23.69,4.07,4.07,0,0,0,1.18,1.49,2.9,2.9,0,0,0,.36.25,2.12,2.12,0,0,0,.2.12c.08.05.17.08.25.12a3.62,3.62,0,0,0,.63.22l.18.06a4.36,4.36,0,0,0,.8.09l.39,0,.25,0,.43-.1.21,0a4.47,4.47,0,0,0,.46-.19l.15-.07a3.66,3.66,0,0,0,.42-.26l.15-.1C181.18,200.54,182.08,199.87,183.72,198.81Z"/><path class="cls-4" d="M336.19,194.65c-1.89,1.68-2.89,2.76-2.89,2.76-1.14-.7-2.28-1.37-3.42-2-.07.13-.16.24-.22.38L328.18,199c1,.59,2,1.18,3.05,1.8a4.18,4.18,0,0,0,.56.28l.18.07a3.45,3.45,0,0,0,.43.12l.19,0a4.43,4.43,0,0,0,.51.06h.1a4.29,4.29,0,0,0,.62,0l.12,0,.48-.11.18-.06L335,201l.17-.08a3.27,3.27,0,0,0,.5-.32h0a4.58,4.58,0,0,0,.46-.42A4,4,0,0,0,337,199a4.37,4.37,0,0,0,.22-.67c0-.06,0-.11,0-.17a5.54,5.54,0,0,0,.07-.57c0-.05,0-.1,0-.15A4,4,0,0,0,336.19,194.65Z"/><path class="cls-4" d="M177.05,193.76a4.05,4.05,0,0,0-1.44,1.13q1.53,1.22,3.09,2.52c0-1.34,0-2.67,0-4A3.93,3.93,0,0,0,177.05,193.76Z"/><path class="cls-4" d="M336.19,194.65a4,4,0,0,0-1.24-.89,3.93,3.93,0,0,0-1.67-.34c0,1.32,0,2.65,0,4C333.3,197.41,334.3,196.33,336.19,194.65Z"/><path class="cls-4" d="M329.88,195.38c1.14.66,2.28,1.33,3.42,2,0-1.34,0-2.67,0-4A4,4,0,0,0,329.88,195.38Z"/><path class="cls-4" d="M178.72,193.42c0,1.32,0,2.65,0,4,0,0,1.14-.87,3.29-2.25A4,4,0,0,0,178.72,193.42Z"/></g></svg>