<svg width="512" height="512" viewBox="0 0 512 512" fill="none" xmlns="http://www.w3.org/2000/svg">
<g clip-path="url(#clip0_187_130)">
<rect width="512" height="512" fill="white"/>
<path d="M253 14H482C487.523 14 492 18.4772 492 24V242C492 247.523 487.523 252 482 252H253V14Z" fill="#CED3D4"/>
<path d="M26 24C26 18.4772 30.4772 14 36 14H253V247H26V24Z" fill="#E7E9E9"/>
<path d="M482.64 94H27.3593C23.2937 94 20 95.0479 20 96.3406V238.659C20 239.952 23.2937 241 27.3593 241H482.641C486.705 241 490 239.952 490 238.659V96.3406C489.999 95.0479 486.705 94 482.64 94Z" fill="#E6EAEA"/>
<path d="M24.4376 93.644C20.3287 93.644 17 94.8015 17 96.2291L19 241C19 242.428 26.3911 251.5 30.5 251.5L253.508 256V93.644H24.4376Z" fill="#CDD4D5"/>
<path d="M60.1367 206.535V241.005H448.863V134.836L353.664 173.443L254.5 203.777L151.368 170.685L60.1367 206.535Z" fill="#FFD1A9"/>
<path d="M151.368 170.685L60.1367 206.534V241.005H253.508V203.459L151.368 170.685Z" fill="#FF8C29"/>
<path d="M444.897 107.432H64.1027C59.9947 107.432 56.665 108.59 56.665 110.018V239.627C56.665 241.054 59.9937 242.212 64.1027 242.212H444.896C449.004 242.212 452.334 241.055 452.334 239.627V110.018C452.334 108.59 449.005 107.432 444.897 107.432ZM346.228 170.858H261.937V142.937H346.228V170.858ZM361.102 142.937H437.459V170.858H361.102V142.937ZM261.937 137.766V112.603H346.228V137.766H261.937ZM247.062 137.766H162.772V112.603H247.062V137.766ZM247.062 142.937V170.858H162.772V142.937H247.062ZM147.898 170.858H71.5403V142.937H147.898V170.858ZM71.5403 176.029H147.898V203.95H71.5403V176.029ZM162.772 176.029H247.062V203.95H162.772V176.029ZM247.062 209.12V237.041H162.772V209.12H247.062ZM261.937 209.12H346.228V237.041H261.937V209.12ZM261.937 203.95V176.029H346.228V203.95H261.937ZM361.102 176.029H437.459V203.95H361.102V176.029ZM437.459 137.766H361.102V112.603H437.459V137.766ZM147.898 112.603V137.766H71.5403V112.603H147.898ZM71.5403 209.12H147.898V237.041H71.5403V209.12ZM361.102 237.041V209.12H437.459V237.041H361.102Z" fill="#9BAAAB"/>
<path d="M64.1027 107.432C59.9947 107.432 56.665 108.59 56.665 110.018V239.627C56.665 241.054 59.9937 242.212 64.1027 242.212H253.508V107.432H64.1027ZM147.897 237.041H71.5403V209.12H147.897V237.041ZM147.897 203.95H71.5403V176.029H147.897V203.95ZM147.897 170.858H71.5403V142.937H147.897V170.858ZM147.897 137.766H71.5403V112.603H147.897V137.766ZM247.062 237.041H162.772V209.12H247.062V237.041ZM247.062 203.95H162.772V176.029H247.062V203.95ZM247.062 170.858H162.772V142.937H247.062V170.858ZM162.772 137.766V112.603H247.062V137.766H162.772Z" fill="#687F82"/>
<path d="M64.1012 210.498C62.3014 210.498 60.4969 210.273 59.0673 209.816C56.0447 208.849 55.8481 207.214 58.6303 206.163L149.862 171.692C151.215 171.181 153.105 170.88 155.105 170.859C157.113 170.837 159.044 171.097 160.486 171.578L254.501 202.951L348.344 171.635L435.45 138.604C438.225 137.552 442.93 137.48 445.959 138.445C448.986 139.41 449.191 141.045 446.415 142.098L359.149 175.19C359.043 175.23 358.932 175.27 358.817 175.308L259.653 208.399C256.775 209.36 252.229 209.36 249.35 208.399L155.666 177.137L69.5776 209.664C68.1109 210.218 66.1088 210.498 64.1012 210.498Z" fill="#365558"/>
<path d="M64.1033 197.056C49.0666 197.056 36.8325 201.308 36.8325 206.535C36.8325 211.762 49.0666 216.015 64.1033 216.015C79.14 216.015 91.374 211.762 91.374 206.535C91.374 201.308 79.14 197.056 64.1033 197.056Z" fill="#F0353D"/>
<path d="M155.336 163.964C140.299 163.964 128.065 168.216 128.065 173.443C128.065 178.671 140.299 182.923 155.336 182.923C170.372 182.923 182.606 178.671 182.606 173.443C182.606 168.216 170.371 163.964 155.336 163.964Z" fill="#0295AA"/>
<path d="M254.5 197.056C239.463 197.056 227.229 201.308 227.229 206.535C227.229 211.762 239.463 216.015 254.5 216.015C269.536 216.015 281.771 211.762 281.771 206.535C281.771 201.308 269.536 197.056 254.5 197.056Z" fill="#FD6A33"/>
<path d="M227.229 206.535C227.229 211.646 238.93 215.823 253.508 216.006V197.064C238.93 197.247 227.229 201.424 227.229 206.535Z" fill="#F0353D"/>
<path d="M353.665 163.964C338.628 163.964 326.394 168.216 326.394 173.443C326.394 178.671 338.628 182.923 353.665 182.923C368.702 182.923 380.936 178.671 380.936 173.443C380.936 168.216 368.702 163.964 353.665 163.964Z" fill="#4ACFD9"/>
<path d="M440.93 130.872C425.894 130.872 413.66 135.124 413.66 140.352C413.66 145.579 425.894 149.831 440.93 149.831C455.967 149.831 468.201 145.579 468.201 140.352C468.201 135.124 455.967 130.872 440.93 130.872Z" fill="#4ACFD9"/>
<rect x="220" y="266" width="36" height="36" fill="#5494A7"/>
<rect x="256" y="266" width="40" height="36" fill="#82CDD8"/>
<path d="M120 339C120 318.565 136.565 302 157 302H256V339H120V339Z" fill="#5494A7"/>
<path d="M256 302H363C383.435 302 400 318.565 400 339V339H256V302Z" fill="#82CDD8"/>
<path d="M17 34C17 22.9543 25.9543 14 37 14H256V94H17V34Z" fill="#687F82"/>
<path d="M256 14H480C485.523 14 490 18.4772 490 24V94H256V14Z" fill="#687F82"/>
<path fill-rule="evenodd" clip-rule="evenodd" d="M442 0H256V14.4068H420C458.66 14.4068 490 45.7468 490 84.4068V182.119C490 220.779 458.66 252.119 420 252.119H256V266.525H442C480.66 266.525 512 235.185 512 196.525V70C512 31.3401 480.66 0 442 0Z" fill="#82CDD8"/>
<path fill-rule="evenodd" clip-rule="evenodd" d="M70 0C31.3401 0 0 31.3401 0 70V196.525C0 235.185 31.3401 266.525 70 266.525H256V252.119H90C51.3401 252.119 20 220.779 20 182.119V84.4068C20 45.7468 51.3401 14.4068 90 14.4068H256V0H70Z" fill="#5494A7"/>
<ellipse cx="86" cy="54" rx="34" ry="24" fill="#F0353D"/>
<ellipse cx="176" cy="55" rx="34" ry="24" fill="#FF8C29"/>
<ellipse cx="262" cy="53" rx="34" ry="24" fill="#4ACFD9"/>
<rect x="314" y="37" width="110" height="13" rx="6.5" fill="white"/>
<rect x="432" y="38" width="33" height="12" rx="6" fill="white"/>
<path d="M19.8691 369.863H15.5497H11.1544C5.54676 369.863 1 374.589 1 380.245V424.949C1 430.683 5.62254 435.331 11.1544 435.331H15.5497H19.8691C22.3698 435.331 24.5674 433.239 24.5674 430.528V374.589C24.4916 372.11 22.4456 369.863 19.8691 369.863Z" fill="#FD6A33"/>
<path d="M455.484 327.748H423.354C420.171 327.748 418.5 324.832 418.5 321.5V320H406V432.42C406 431.258 406 430.567 406 432.42V429.067C406 430.385 406 431.067 406 432.42V465.89H455.484C468.367 465.89 478.9 455.121 478.9 441.95V351.533C478.9 338.362 468.291 327.593 455.484 327.748Z" fill="#FF8C29"/>
<path d="M152.484 335.677H120.354C117.171 335.677 115.5 332.761 115.5 329.43V327.93H103V440.35C103 439.187 103 438.497 103 440.35V436.997C103 438.314 103 438.997 103 440.35V473.82H152.484C165.367 473.82 175.9 463.05 175.9 449.879V359.463C175.9 346.292 165.291 335.522 152.484 335.677Z" fill="#FF8C29"/>
<path d="M107.773 432.775H105.5V432.852H107.773V432.775Z" fill="#FF8C29"/>
<path d="M11.0785 409.222C11.5332 409.919 11.7606 410.849 11.4574 411.701C10.3207 416.66 11.2301 421.851 13.9582 425.879C14.8675 427.197 14.5644 429.134 13.4277 430.141C12.1395 431.148 10.3207 430.915 9.41139 429.676C5.54664 424.252 4.33417 417.279 5.92554 410.616C6.30444 408.989 7.82002 407.982 9.41139 408.37C10.245 408.292 10.6239 408.679 11.0785 409.222Z" fill="#FFD1A9"/>
<path d="M153.544 278.595L140.434 291.533C138.691 293.238 135.888 293.238 134.069 291.456C132.326 289.674 132.326 286.885 134.145 285.18L147.255 272.242C148.997 270.537 151.801 270.537 153.62 272.319C155.287 274.023 155.287 276.813 153.544 278.595Z" fill="#F0353D"/>
<path d="M164.077 305.944C163.244 306.796 162.183 307.261 160.819 307.184L144.147 307.106C141.647 307.106 139.676 305.169 139.676 302.535C139.676 300.133 141.647 298.119 144.223 298.042L160.895 298.119C163.395 298.119 165.366 300.056 165.366 302.69C165.441 304.007 164.835 305.169 164.077 305.944Z" fill="#F0353D"/>
<path d="M126.112 284.405C125.278 285.258 124.217 285.723 122.853 285.645C120.353 285.645 118.382 283.708 118.382 281.074L118.458 264.494C118.458 262.092 120.428 260.077 123.005 260C125.506 260 127.476 261.937 127.476 264.571V281.151C127.4 282.468 127.021 283.553 126.112 284.405Z" fill="#F0353D"/>
<path d="M321.869 370.863H317.55H313.154C307.547 370.863 303 375.589 303 381.245V425.949C303 431.683 307.623 436.331 313.154 436.331H317.55H321.869C324.37 436.331 326.567 434.239 326.567 431.528V375.589C326.492 373.11 324.446 370.863 321.869 370.863Z" fill="#FD6A33"/>
<path d="M497.45 436.332H493.131C490.63 436.332 488.433 434.24 488.433 431.528V375.589C488.433 373.032 490.479 370.786 493.131 370.786H497.45H501.846C507.453 370.786 512 375.512 512 381.168V425.95C512 431.683 507.377 436.332 501.846 436.332H497.45Z" fill="#FF8C29"/>
<path d="M409.773 433.775H407.5V433.852H409.773V433.775Z" fill="#FF8C29"/>
<path d="M422.625 316.953C427.703 313.544 425.85 305.874 421 302C421 302 407 312 407 321C410.941 321 418.5 321 418.5 321C418.5 321 418.5 319 422.625 316.953Z" fill="#FF8C29"/>
<path d="M119.625 324.883C124.703 321.474 122.85 313.804 118 309.93C118 309.93 104 319.93 104 328.93C107.941 328.93 115.5 328.93 115.5 328.93C115.5 328.93 115.5 326.93 119.625 324.883Z" fill="#FF8C29"/>
<path d="M406.924 321H395.5V322C395.5 325.642 392.051 328.594 388.636 328.594H357.448C344.548 328.594 334 339.366 334 352.54V443.054C334 456.228 344.548 467 357.448 467H406.924V433.445L407 424.455V321H406.924Z" fill="#FD6A33"/>
<path d="M103.924 328.93H92.5V329.93C92.5 333.572 89.0509 336.524 85.6362 336.524H54.448C41.5478 336.524 31 347.296 31 360.47V450.984C31 464.158 41.5478 474.93 54.448 474.93H103.924V441.374L104 432.385V328.93H103.924Z" fill="#FD6A33"/>
<path d="M404.108 303.683C399.789 306.55 395.5 311.47 395.5 321C400.729 321 403.059 321 407 321C407 312.09 421 302 421 302C416.15 298.126 408.352 300.817 404.108 303.683Z" fill="#FD6A33"/>
<path d="M101.108 311.613C96.789 314.48 92.5 319.4 92.5 328.93C97.7288 328.93 100.059 328.93 104 328.93C104 320.02 118 309.93 118 309.93C113.15 306.056 105.352 308.746 101.108 311.613Z" fill="#FD6A33"/>
<path d="M313.079 410.222C313.533 410.919 313.761 411.849 313.457 412.701C312.321 417.66 313.23 422.851 315.958 426.879C316.868 428.197 316.564 430.134 315.428 431.141C314.139 432.148 312.321 431.915 311.411 430.676C307.547 425.252 306.334 418.279 307.926 411.616C308.304 409.989 309.82 408.982 311.411 409.37C312.245 409.292 312.624 409.679 313.079 410.222Z" fill="#FFD1A9"/>
<path d="M503.891 409.292C505.407 408.904 506.998 409.989 507.377 411.539C509.044 418.202 507.756 425.175 503.891 430.598C502.982 431.838 501.239 432.07 499.875 431.063C498.738 430.056 498.359 428.196 499.345 426.802C502.073 422.695 503.058 417.582 501.845 412.623C501.542 411.771 501.77 410.841 502.224 410.144C502.679 409.679 503.134 409.292 503.891 409.292Z" fill="#FFD1A9"/>
<path d="M455.544 279.595L442.434 292.533C440.691 294.238 437.888 294.238 436.069 292.456C434.326 290.674 434.326 287.885 436.145 286.18L449.255 273.242C450.997 271.537 453.801 271.537 455.62 273.319C457.287 275.023 457.287 277.813 455.544 279.595Z" fill="#F0353D"/>
<path d="M466.077 306.944C465.244 307.796 464.183 308.261 462.819 308.184L446.147 308.106C443.647 308.106 441.676 306.169 441.676 303.535C441.676 301.133 443.647 299.119 446.223 299.042L462.895 299.119C465.395 299.119 467.366 301.056 467.366 303.69C467.441 305.007 466.835 306.169 466.077 306.944Z" fill="#F0353D"/>
<path d="M428.112 285.405C427.278 286.258 426.217 286.723 424.853 286.645C422.353 286.645 420.382 284.708 420.382 282.074L420.458 265.494C420.458 263.092 422.428 261.077 425.005 261C427.506 261 429.476 262.937 429.476 265.571V282.151C429.4 283.468 429.021 284.553 428.112 285.405Z" fill="#F0353D"/>
<g filter="url(#filter0_d_187_130)">
<path d="M151.411 397.483H146.28H141.06C134.4 397.483 129 403.096 129 409.813V462.908C129 469.718 134.49 475.239 141.06 475.239H146.28H151.411C154.381 475.239 156.991 472.754 156.991 469.534V403.096C156.901 400.151 154.471 397.483 151.411 397.483Z" fill="#FD6A33"/>
<path d="M359.946 475.239H354.816C351.846 475.239 349.236 472.755 349.236 469.534V403.096C349.236 400.06 351.666 397.391 354.816 397.391H359.946H365.166C371.826 397.391 377.227 403.004 377.227 409.722V462.909C377.227 469.718 371.736 475.239 365.166 475.239H359.946Z" fill="#FF8C29"/>
<path d="M311.885 347.977H273.724C269.944 347.977 266.434 344.481 266.434 340.524V338.775H253.113V461.621H255.813H260.853C262.384 461.621 263.554 462.909 263.554 464.289V469.442C263.554 471.007 262.294 472.203 260.853 472.203H255.813V472.295H253.113V512.047H311.885C327.185 512.047 339.696 499.257 339.696 483.613V376.227C339.696 360.584 327.095 347.793 311.885 347.977ZM301.805 469.35C301.805 471.007 300.455 472.295 298.924 472.295H283.714C282.184 472.295 280.834 470.915 280.834 469.35V464.565C280.834 462.909 282.184 461.621 283.714 461.621H298.834C300.455 461.621 301.715 463.001 301.715 464.565V469.35H301.805ZM291.274 425.457C283.624 425.457 277.414 419.108 277.414 411.286C277.414 403.465 283.624 397.115 291.274 397.115C298.924 397.115 305.135 403.465 305.135 411.286C305.135 419.108 298.924 425.457 291.274 425.457Z" fill="#FF8C29"/>
<path d="M255.813 472.203H253.113V472.295H255.813V472.203Z" fill="#FF8C29"/>
<path d="M270.574 333.99C276.604 329.941 274.894 320.831 269.134 316.23C269.134 316.23 253.204 328.285 253.204 338.683C257.884 338.683 266.524 338.683 266.524 338.683C266.524 338.683 265.714 337.303 270.574 333.99Z" fill="#FF8C29"/>
<path d="M253.113 338.775H239.793V340.34C239.793 344.665 235.472 347.793 231.422 347.793H194.431C179.131 347.793 166.621 360.584 166.621 376.227V483.705C166.621 499.349 179.131 512.139 194.431 512.139H253.113V472.295H245.373C243.843 472.295 242.673 471.007 242.673 469.534V464.381C242.673 462.817 243.933 461.621 245.373 461.621H249.513H253.203V338.775H253.113ZM225.392 469.534C225.392 471.099 224.132 472.295 222.692 472.295H207.212C205.682 472.295 204.512 471.007 204.512 469.534V464.381C204.512 462.817 205.772 461.621 207.212 461.621H222.692C224.132 461.621 225.392 462.909 225.392 464.381V469.534ZM214.952 425.365C207.302 425.365 201.092 419.016 201.092 411.194C201.092 403.373 207.302 397.023 214.952 397.023C222.602 397.023 228.812 403.465 228.812 411.194C228.812 419.016 222.602 425.365 214.952 425.365Z" fill="#FD6A33"/>
<path d="M249.423 318.254C244.293 321.659 239.793 327.456 239.793 338.775C246.003 338.775 248.433 338.775 253.113 338.775C253.113 328.193 269.224 316.138 269.224 316.138C263.464 311.537 254.463 314.85 249.423 318.254Z" fill="#FD6A33"/>
<path d="M140.97 444.229C141.51 445.057 141.78 446.161 141.42 447.173C140.07 453.063 141.15 459.228 144.39 464.013C145.47 465.577 145.11 467.878 143.76 469.074C142.23 470.27 140.07 469.994 138.99 468.522C134.4 462.081 132.96 453.799 134.85 445.885C135.3 443.953 137.1 442.757 138.99 443.217C139.98 443.125 140.43 443.585 140.97 444.229Z" fill="#FFD1A9"/>
<path d="M367.596 443.124C369.396 442.664 371.286 443.952 371.736 445.793C373.716 453.706 372.186 461.988 367.596 468.429C366.516 469.902 364.446 470.178 362.826 468.981C361.476 467.785 361.026 465.577 362.196 463.92C365.436 459.043 366.606 452.97 365.166 447.081C364.806 446.069 365.076 444.964 365.616 444.136C366.156 443.584 366.696 443.124 367.596 443.124Z" fill="#FFD1A9"/>
<path d="M310.175 289.085L294.605 304.452C292.535 306.476 289.204 306.476 287.044 304.36C284.974 302.244 284.974 298.931 287.134 296.906L302.705 281.539C304.775 279.515 308.105 279.515 310.265 281.631C312.245 283.656 312.245 286.968 310.175 289.085Z" fill="#F0353D"/>
<path d="M322.685 321.567C321.695 322.579 320.435 323.131 318.815 323.039L299.014 322.947C296.044 322.947 293.704 320.647 293.704 317.518C293.704 314.666 296.044 312.273 299.104 312.181L318.905 312.273C321.875 312.273 324.215 314.574 324.215 317.702C324.305 319.267 323.585 320.647 322.685 321.567Z" fill="#F0353D"/>
<path d="M277.594 295.986C276.604 296.998 275.344 297.55 273.724 297.458C270.754 297.458 268.414 295.158 268.414 292.029L268.504 272.337C268.504 269.485 270.844 267.092 273.904 267C276.874 267 279.214 269.3 279.214 272.429V292.121C279.124 293.686 278.674 294.974 277.594 295.986Z" fill="#F0353D"/>
</g>
</g>
<defs>
<filter id="filter0_d_187_130" x="125" y="267" width="256.227" height="253.139" filterUnits="userSpaceOnUse" color-interpolation-filters="sRGB">
<feFlood flood-opacity="0" result="BackgroundImageFix"/>
<feColorMatrix in="SourceAlpha" type="matrix" values="0 0 0 0 0 0 0 0 0 0 0 0 0 0 0 0 0 0 127 0" result="hardAlpha"/>
<feOffset dy="4"/>
<feGaussianBlur stdDeviation="2"/>
<feComposite in2="hardAlpha" operator="out"/>
<feColorMatrix type="matrix" values="0 0 0 0 0 0 0 0 0 0 0 0 0 0 0 0 0 0 0.25 0"/>
<feBlend mode="normal" in2="BackgroundImageFix" result="effect1_dropShadow_187_130"/>
<feBlend mode="normal" in="SourceGraphic" in2="effect1_dropShadow_187_130" result="shape"/>
</filter>
<clipPath id="clip0_187_130">
<rect width="512" height="512" fill="white"/>
</clipPath>
</defs>
</svg>
