<svg width="512" height="512" viewBox="0 0 512 512" fill="none" xmlns="http://www.w3.org/2000/svg">
<path d="M170.355 490H363V381H242.826H190.677C179.454 381 170.355 390.098 170.355 401.322C170.355 412.546 179.454 421.644 190.677 421.644H251.083V433.653H170.355L73.3536 389.814C62.2635 384.802 49.179 388.962 43.0195 399.458C35.9981 411.423 40.6547 426.833 53.1272 432.907L170.355 490Z" fill="#FFD1A9"/>
<rect x="357" y="374" width="125" height="125" fill="#4ACFD9"/>
<circle cx="391" cy="463" r="19" fill="#365558"/>
<path d="M262.5 23.5V73.5" stroke="#BCD643" stroke-width="11"/>
<path d="M362.824 49L332.999 89.1305" stroke="#BCD643" stroke-width="11"/>
<path d="M426.047 112.711L383.778 139.419" stroke="#BCD643" stroke-width="11"/>
<path d="M454.875 217L405.001 220.543" stroke="#BCD643" stroke-width="11"/>
<path d="M362.824 394.543L332.999 354.412" stroke="#BCD643" stroke-width="11"/>
<path d="M426.047 330.832L383.778 304.124" stroke="#BCD643" stroke-width="11"/>
<path d="M155.051 49L184.876 89.1305" stroke="#BCD643" stroke-width="11"/>
<path d="M91.8281 112.711L134.097 139.419" stroke="#BCD643" stroke-width="11"/>
<path d="M63 217L112.874 220.543" stroke="#BCD643" stroke-width="11"/>
<path d="M155.051 394.543L184.876 354.412" stroke="#BCD643" stroke-width="11"/>
<path d="M91.8281 330.832L134.097 304.124" stroke="#BCD643" stroke-width="11"/>
<path d="M187 266.762H310.761V282.109C310.761 295.893 312.84 302.008 316.719 305.2C319.103 306.635 320.313 307.58 324.04 308.331C327.634 309.057 336.372 310.54 342.074 310.993C342.524 311.029 342.976 310.919 343.329 310.64C345.153 309.201 346 307.187 346 304.599V147.144C346 142.646 342.342 139 337.829 139H195.171C190.658 139 187 142.646 187 147.144L187 266.762Z" fill="#FD6A33"/>
<path d="M187 273.549V304.599C187 305.08 187.042 305.552 187.122 306.01C191.369 308.663 196.398 310.198 201.791 310.198H313.561C313.058 309.867 312.572 309.51 312.104 309.125C306.246 304.306 304.244 295.918 304.244 282.109V273.549H187Z" fill="#FD6A33"/>
<path fill-rule="evenodd" clip-rule="evenodd" d="M266.449 310.466H313.581C313.078 310.135 312.593 309.778 312.126 309.392C306.281 304.567 304.282 296.169 304.282 282.344V273.774H266.449V310.466ZM266.449 266.979H310.786V282.344C310.786 296.145 312.907 302.267 316.778 305.462C318.753 307.092 321.421 308.169 325.14 308.922C328.727 309.648 336.342 310.809 342.033 311.263C342.481 311.299 342.932 311.188 343.285 310.909C345.105 309.468 345.95 307.452 345.95 304.86V147.217C345.95 142.714 342.3 139.063 337.796 139.063H266.449V266.979Z" fill="#FD6A33"/>
<path fill-rule="evenodd" clip-rule="evenodd" d="M332.427 156.842H201.573C199.33 156.842 197.512 158.793 197.512 161.2V188.8C197.512 191.207 199.33 193.158 201.573 193.158H332.427C334.67 193.158 336.488 191.207 336.488 188.8V161.2C336.488 158.793 334.67 156.842 332.427 156.842ZM201.573 152C196.838 152 193 156.119 193 161.2V188.8C193 193.881 196.838 198 201.573 198H332.427C337.162 198 341 193.881 341 188.8V161.2C341 156.119 337.162 152 332.427 152H201.573Z" fill="#365558"/>
<path d="M267 198H332.427C337.162 198 341 193.881 341 188.8V161.2C341 156.119 337.162 152 332.427 152H267V156.842H332.427C334.67 156.842 336.488 158.793 336.488 161.2V188.8C336.488 191.207 334.67 193.158 332.427 193.158H267V198Z" fill="#0295AA"/>
<path d="M240.481 179.805H237.766L236.754 186H234.18L235.193 179.805H232V177.206H235.615L236.318 172.915H233.055V170.286H236.754L237.78 164H240.34L239.313 170.286H242.042L243.069 164H245.642L244.616 170.286H247.696V172.915H244.18L243.477 177.206H246.627V179.805H243.055L242.042 186H239.468L240.481 179.805ZM238.188 177.206H240.903L241.606 172.915H238.877L238.188 177.206Z" fill="#365558"/>
<path d="M257.414 171.585L261.254 164H266.106L260.143 174.909L266.261 186H261.352L257.414 178.294L253.476 186H248.568L254.686 174.909L248.723 164H253.575L257.414 171.585Z" fill="#365558"/>
<path d="M275.459 173.912L279.721 164H284.334L277.611 178.022V186H273.321V178.022L266.598 164H271.226L275.459 173.912Z" fill="#365558"/>
<path d="M290.677 182.359H301V186H285.403V183.341L295.529 167.672H285.417V164H300.775V166.599L290.677 182.359Z" fill="#365558"/>
<rect x="193" y="211" width="74" height="5" fill="#365558"/>
<rect x="193" y="236" width="74" height="5" fill="#365558"/>
<rect x="267" y="211" width="74" height="5" fill="#0295AA"/>
<rect x="267" y="236" width="74" height="5" fill="#0295AA"/>
<rect x="193" y="224" width="74" height="5" fill="#365558"/>
<rect x="193" y="248" width="74" height="6" fill="#365558"/>
<rect x="267" y="224" width="74" height="5" fill="#0295AA"/>
<rect x="267" y="248" width="74" height="6" fill="#0295AA"/>
<path d="M172 272V283.661C172 299.864 185.416 313 201.965 313H337C314.675 311.4 306.459 310.013 306.459 282.908V272H172Z" fill="#FD6A33"/>
<path fill-rule="evenodd" clip-rule="evenodd" d="M266.789 164.009L273.505 177.724V185.609H277.834V177.724L284.62 163.865H279.964L275.662 173.662L271.389 163.865H266.789V164.009ZM301.443 182.01H291.023L301.216 166.434V163.865H285.714V167.494H295.921L285.699 182.981V185.609H301.443V182.01Z" fill="#0295AA"/>
<path fill-rule="evenodd" clip-rule="evenodd" d="M266.449 313.015H337.457C315.07 311.384 306.831 309.971 306.831 282.344V271.226H266.449V313.015Z" fill="#FD6A33"/>
</svg>
