<svg width="512" height="512" viewBox="0 0 512 512" fill="none" xmlns="http://www.w3.org/2000/svg">
<path d="M23 133.021H120.297V145.156C120.297 156.055 121.931 160.89 124.981 163.414C126.854 164.548 127.806 165.296 130.736 165.89C133.561 166.463 140.43 167.636 144.914 167.995C145.267 168.023 145.622 167.936 145.9 167.715C147.334 166.577 148 164.985 148 162.938V38.4396C148 34.8831 145.124 32 141.576 32H29.424C25.8761 32 23 34.8831 23 38.4396L23 133.021Z" fill="#FD6A33"/>
<path d="M23 138.388V162.938C23 163.319 23.033 163.692 23.0962 164.055C26.4346 166.152 30.3882 167.366 34.628 167.366H122.498C122.102 167.104 121.72 166.822 121.352 166.518C116.747 162.707 115.173 156.074 115.173 145.156V138.388H23Z" fill="#FD6A33"/>
<path fill-rule="evenodd" clip-rule="evenodd" d="M84.8848 167.599H122.042C121.646 167.338 121.264 167.056 120.896 166.753C116.287 162.948 114.711 156.327 114.711 145.427V138.67H84.8848V167.599ZM84.8848 133.313H119.839V145.427C119.839 156.308 121.511 161.135 124.563 163.654C126.12 164.939 128.224 165.788 131.156 166.381C133.984 166.954 139.988 167.87 144.474 168.227C144.828 168.256 145.184 168.169 145.462 167.948C146.897 166.812 147.563 165.223 147.563 163.18V38.8907C147.563 35.3402 144.685 32.4619 141.134 32.4619H84.8848V133.313Z" fill="#FD6A33"/>
<path fill-rule="evenodd" clip-rule="evenodd" d="M137.223 45.8947H33.7774C32.0044 45.8947 30.5671 47.4641 30.5671 49.4V71.6C30.5671 73.5359 32.0044 75.1053 33.7774 75.1053H137.223C138.996 75.1053 140.433 73.5359 140.433 71.6V49.4C140.433 47.4641 138.996 45.8947 137.223 45.8947ZM33.7774 42C30.0344 42 27 45.3131 27 49.4V71.6C27 75.6869 30.0344 79 33.7774 79H137.223C140.966 79 144 75.6869 144 71.6V49.4C144 45.3131 140.966 42 137.223 42H33.7774Z" fill="#365558"/>
<path d="M85 79H137.165C140.94 79 144 75.6869 144 71.6V49.4C144 45.3131 140.94 42 137.165 42H85V45.8947H137.165C138.953 45.8947 140.402 47.4641 140.402 49.4V71.6C140.402 73.5359 138.953 75.1053 137.165 75.1053H85V79Z" fill="#0295AA"/>
<path d="M63.7601 65.2129H61.5964L60.7892 70H58.7377L59.5448 65.2129H57V63.2047H59.8812L60.4417 59.8887H57.8408V57.8571H60.7892L61.6076 53H63.648L62.8296 57.8571H65.0045L65.8229 53H67.8744L67.0561 57.8571H69.5112V59.8887H66.7085L66.148 63.2047H68.6592V65.2129H65.8117L65.0045 70H62.9529L63.7601 65.2129ZM61.9327 63.2047H64.0964L64.657 59.8887H62.4821L61.9327 63.2047Z" fill="#365558"/>
<path d="M77.2578 58.8613L80.3184 53H84.1861L79.4327 61.4299L84.3094 70H80.3969L77.2578 64.0453L74.1188 70H70.2063L75.083 61.4299L70.3296 53H74.1973L77.2578 58.8613Z" fill="#365558"/>
<path d="M91.6413 60.6593L95.0381 53H98.7152L93.3565 63.8352V70H89.9372V63.8352L84.5785 53H88.2668L91.6413 60.6593Z" fill="#365558"/>
<path d="M103.771 67.1861H112V70H99.5673V67.9451L107.639 55.8372H99.5785V53H111.821V55.0082L103.771 67.1861Z" fill="#365558"/>
<rect x="27" y="89" width="58" height="4" fill="#365558"/>
<rect x="27" y="110" width="58" height="3" fill="#365558"/>
<rect x="85" y="89" width="59" height="4" fill="#0295AA"/>
<rect x="85" y="110" width="59" height="3" fill="#0295AA"/>
<rect x="27" y="99" width="58" height="5" fill="#365558"/>
<rect x="27" y="119" width="58" height="3" fill="#365558"/>
<rect x="85" y="99" width="59" height="5" fill="#0295AA"/>
<rect x="85" y="119" width="59" height="3" fill="#0295AA"/>
<path d="M11 137V146.385C11 159.427 21.57 170 34.6088 170H141C123.411 168.712 116.937 167.596 116.937 145.78V137H11Z" fill="#FD6A33"/>
<path fill-rule="evenodd" clip-rule="evenodd" d="M85.1523 52.1275L90.4477 62.9421V69.1589H93.8615V62.9421L99.2117 52.0156H95.5405L92.149 59.7395L88.78 52.0156H85.1523V52.1275ZM112.475 66.3213H104.26L112.296 54.0408V52.0156H100.074V54.8768H108.121L100.062 67.0867V69.1589H112.475V66.3213Z" fill="#0295AA"/>
<path fill-rule="evenodd" clip-rule="evenodd" d="M84.8848 169.607H140.868C123.218 168.322 116.722 167.207 116.722 145.426V136.66H84.8848V169.607Z" fill="#FD6A33"/>
<rect x="187.855" y="32.4619" width="68.5732" height="103.717" fill="#F0353D"/>
<rect x="256.428" y="32.4619" width="68.5732" height="103.717" fill="#FD6A33"/>
<path d="M290.715 84.7494L244.428 117.412L244.428 52.0871L290.715 84.7494Z" fill="#E6EAEA"/>
<path d="M155.83 283.555L160.244 288L179.895 268.211L175.481 263.766L161.352 277.994L155.83 283.555Z" fill="#0295AA"/>
<path d="M241.283 197.502C232.121 189.629 220.437 184.642 207.621 183.942V200.357H201.379V183.942C188.629 184.639 176.999 189.578 167.857 197.382L179.765 209.373L175.351 213.818L163.322 201.705C154.848 210.717 149.261 222.511 148.05 235.584H166.398V241.869H147.81C148.025 255.647 153.086 268.239 161.352 277.994L155.82 283.565C145.966 272.16 140 257.258 140 240.953C140 205.08 168.878 176 204.5 176C240.122 176 269 205.08 269 240.953C269 257.191 263.083 272.038 253.301 283.425L253.263 283.387L248.849 287.832L229.235 268.08L233.649 263.635L247.767 277.853C255.963 268.117 260.976 255.58 261.19 241.869H242.602V235.584H260.95C259.745 222.576 254.207 210.835 245.804 201.839L233.779 213.949L229.365 209.504L241.283 197.502Z" fill="#0295AA"/>
<path d="M222.719 227.815C222.719 227.815 203.142 235.977 197.581 244.769C192.968 252.066 193.327 260.572 199.453 264.446C205.578 268.32 213.418 264.998 218.032 257.701C218.066 257.648 218.099 257.594 218.133 257.54C223.413 249.002 222.719 227.815 222.719 227.815Z" fill="#0295AA"/>
<ellipse cx="206.2" cy="253.774" rx="7.36401" ry="7.36401" transform="rotate(-147.692 206.2 253.774)" fill="#F0353D"/>
<path fill-rule="evenodd" clip-rule="evenodd" d="M204.22 174.753C168.198 174.753 138.996 203.955 138.996 239.977C138.996 256.35 145.029 271.314 154.994 282.768L155.004 282.758L159.467 287.221L179.339 267.349L174.876 262.886L160.588 277.173C152.229 267.378 147.111 254.732 146.893 240.898H165.691V234.586H147.136C148.361 221.458 154.011 209.615 162.58 200.565L174.744 212.729L179.207 208.266L167.166 196.224C176.41 188.387 188.171 183.428 201.064 182.728V199.212H204.22V174.753Z" fill="#F0353D"/>
<path d="M293.047 290.299C293.047 298.529 286.354 305.2 278.098 305.2H163.949C155.693 305.2 149 311.871 149 320.101V447.099C149 455.329 155.693 462 163.949 462H391.051C399.307 462 406 455.329 406 447.099V280.901C406 272.671 399.307 266 391.051 266H307.995C299.74 266 293.047 272.671 293.047 280.901V290.299Z" fill="#365558"/>
<path fill-rule="evenodd" clip-rule="evenodd" d="M278 462H391.051C399.307 462 406 455.329 406 447.099V280.901C406 272.671 399.307 266 391.051 266H307.995C299.74 266 293.047 272.671 293.047 280.901V290.299C293.047 298.529 286.354 305.2 278.098 305.2H278V462Z" fill="#9BAAAB"/>
<path d="M325.868 491H430V432H365.041H336.868C330.793 432 325.868 436.925 325.868 443C325.868 449.075 330.793 454 336.868 454H369.504V460.5H325.868L273.456 436.78C267.451 434.063 260.363 436.317 257.03 442.003C253.237 448.476 255.755 456.807 262.498 460.095L325.868 491Z" fill="#FFD1A9"/>
<rect x="427" y="428" width="67" height="68" fill="#4ACFD9"/>
<ellipse cx="445" cy="476.5" rx="10" ry="10.5" fill="#365558"/>
</svg>
