<svg width="512" height="512" viewBox="0 0 512 512" fill="none" xmlns="http://www.w3.org/2000/svg">
<path d="M316.926 194.043C303.705 159.608 281.655 129.258 252.991 106.042C224.328 82.8266 190.06 67.5621 153.63 61.7819L137.16 165.585C155.375 168.475 172.509 176.108 186.841 187.716C201.173 199.323 212.198 214.498 218.808 231.716L316.926 194.043Z" fill="#0295AA"/>
<path d="M253.126 110.567L288.623 66.7399L340.163 66.7399" stroke="#0295AA" stroke-width="14"/>
<path d="M285.924 41.2529H355.291" stroke="#F0353D" stroke-width="12" stroke-linecap="round" stroke-linejoin="round"/>
<circle cx="114.47" cy="275.53" r="99.4697" fill="#E6EAEA"/>
<path d="M136.62 309.347H92.237L83.7993 334.426H56.8828L102.615 212.707H126.072L172.058 334.426H145.142L136.62 309.347ZM99.0716 289.032H129.785L114.344 243.471L99.0716 289.032Z" fill="#365558"/>
<mask id="path-6-outside-1" maskUnits="userSpaceOnUse" x="202" y="192" width="309" height="316" fill="black">
<rect fill="white" x="202" y="192" width="309" height="316"/>
<path fill-rule="evenodd" clip-rule="evenodd" d="M339.802 280.006H373.412C377.955 275.612 380.779 269.451 380.779 262.632C380.779 249.282 369.957 238.46 356.607 238.46C343.257 238.46 332.435 249.282 332.435 262.632C332.435 269.451 335.259 275.612 339.802 280.006ZM305.852 280.006C303.987 274.557 302.975 268.713 302.975 262.632C302.975 233.012 326.987 209 356.607 209C386.227 209 410.239 233.012 410.239 262.632C410.239 268.713 409.227 274.557 407.362 280.006H450.707C467.489 280.006 481.42 292.971 482.624 309.71L493.128 455.705C494.461 474.234 479.788 490.001 461.21 490.001H252.002C233.424 490.001 218.751 474.234 220.084 455.705L230.587 309.71C231.792 292.971 245.723 280.006 262.505 280.006H305.852Z"/>
</mask>
<path fill-rule="evenodd" clip-rule="evenodd" d="M339.802 280.006H373.412C377.955 275.612 380.779 269.451 380.779 262.632C380.779 249.282 369.957 238.46 356.607 238.46C343.257 238.46 332.435 249.282 332.435 262.632C332.435 269.451 335.259 275.612 339.802 280.006ZM305.852 280.006C303.987 274.557 302.975 268.713 302.975 262.632C302.975 233.012 326.987 209 356.607 209C386.227 209 410.239 233.012 410.239 262.632C410.239 268.713 409.227 274.557 407.362 280.006H450.707C467.489 280.006 481.42 292.971 482.624 309.71L493.128 455.705C494.461 474.234 479.788 490.001 461.21 490.001H252.002C233.424 490.001 218.751 474.234 220.084 455.705L230.587 309.71C231.792 292.971 245.723 280.006 262.505 280.006H305.852Z" fill="#9BAAAB"/>
<path d="M339.802 280.006L327.982 292.225L332.925 297.006H339.802V280.006ZM373.412 280.006V297.006H380.289L385.232 292.225L373.412 280.006ZM305.852 280.006V297.006H329.638L321.936 274.502L305.852 280.006ZM407.362 280.006L391.278 274.502L383.576 297.006H407.362V280.006ZM482.624 309.71L499.581 308.49V308.49L482.624 309.71ZM493.128 455.705L510.084 454.485V454.485L493.128 455.705ZM220.084 455.705L203.128 454.485L220.084 455.705ZM230.587 309.71L213.631 308.49L230.587 309.71ZM339.802 297.006H373.412V263.006H339.802V297.006ZM385.232 292.225C392.948 284.76 397.779 274.245 397.779 262.632H363.779C363.779 264.658 362.961 266.464 361.592 267.788L385.232 292.225ZM397.779 262.632C397.779 239.893 379.346 221.46 356.607 221.46V255.46C360.568 255.46 363.779 258.671 363.779 262.632H397.779ZM356.607 221.46C333.868 221.46 315.435 239.893 315.435 262.632H349.435C349.435 258.671 352.646 255.46 356.607 255.46V221.46ZM315.435 262.632C315.435 274.245 320.265 284.76 327.982 292.225L351.622 267.788C350.253 266.464 349.435 264.658 349.435 262.632H315.435ZM285.975 262.632C285.975 270.61 287.305 278.314 289.768 285.511L321.936 274.502C320.67 270.801 319.975 266.815 319.975 262.632H285.975ZM356.607 192C317.598 192 285.975 223.623 285.975 262.632H319.975C319.975 242.401 336.376 226 356.607 226V192ZM427.239 262.632C427.239 223.623 395.616 192 356.607 192V226C376.838 226 393.239 242.401 393.239 262.632H427.239ZM423.446 285.511C425.909 278.314 427.239 270.61 427.239 262.632H393.239C393.239 266.815 392.544 270.801 391.278 274.502L423.446 285.511ZM407.362 297.006H450.707V263.006H407.362V297.006ZM450.707 297.006C458.574 297.006 465.104 303.084 465.668 310.93L499.581 308.49C497.737 282.859 476.405 263.006 450.707 263.006V297.006ZM465.668 310.93L476.171 456.924L510.084 454.485L499.581 308.49L465.668 310.93ZM476.171 456.924C476.796 465.61 469.918 473.001 461.21 473.001V507.001C489.657 507.001 512.125 482.858 510.084 454.485L476.171 456.924ZM461.21 473.001H252.002V507.001H461.21V473.001ZM252.002 473.001C243.293 473.001 236.415 465.61 237.04 456.924L203.128 454.485C201.087 482.858 223.555 507.001 252.002 507.001V473.001ZM237.04 456.924L247.544 310.93L213.631 308.49L203.128 454.485L237.04 456.924ZM247.544 310.93C248.108 303.084 254.638 297.006 262.505 297.006V263.006C236.807 263.006 215.475 282.859 213.631 308.49L247.544 310.93ZM262.505 297.006H305.852V263.006H262.505V297.006Z" fill="#2E2E2E" mask="url(#path-6-outside-1)"/>
<path fill-rule="evenodd" clip-rule="evenodd" d="M356.895 209.001C356.799 209 356.703 209 356.607 209C326.987 209 302.975 233.012 302.975 262.632C302.975 268.713 303.987 274.557 305.852 280.006H262.505C245.723 280.006 231.792 292.971 230.587 309.71L220.084 455.705C218.751 474.234 233.424 490.001 252.002 490.001H356.895V280.006H339.802C335.259 275.612 332.435 269.451 332.435 262.632C332.435 249.282 343.257 238.46 356.607 238.46C356.703 238.46 356.799 238.46 356.895 238.461V209.001Z" fill="#FD6A33"/>
<path fill-rule="evenodd" clip-rule="evenodd" d="M356.894 209.002C356.991 209.001 357.087 209.001 357.184 209.001C386.804 209.001 410.816 233.013 410.816 262.633C410.816 268.714 409.804 274.558 407.939 280.007H451.286C468.068 280.007 481.999 292.972 483.204 309.711L493.707 455.706C495.04 474.235 480.367 490.002 461.789 490.002H356.894V280.007H373.989C378.532 275.613 381.356 269.452 381.356 262.633C381.356 249.283 370.534 238.461 357.184 238.461C357.087 238.461 356.991 238.461 356.894 238.462V209.002Z" fill="#CDD4D5"/>
<mask id="path-10-outside-2" maskUnits="userSpaceOnUse" x="243.547" y="296.149" width="227.111" height="189.544" fill="black">
<rect fill="white" x="243.547" y="296.149" width="227.111" height="189.544"/>
<path fill-rule="evenodd" clip-rule="evenodd" d="M340.541 425.736L288.341 387.561L277.432 402.476L329.633 440.652L329.633 440.652L344.549 451.561L344.549 451.56L344.553 451.563L355.461 436.648L355.457 436.645L430.327 334.269L415.411 323.361L340.541 425.736Z"/>
</mask>
<path fill-rule="evenodd" clip-rule="evenodd" d="M340.541 425.736L288.341 387.561L277.432 402.476L329.633 440.652L329.633 440.652L344.549 451.561L344.549 451.56L344.553 451.563L355.461 436.648L355.457 436.645L430.327 334.269L415.411 323.361L340.541 425.736Z" fill="#E6EAEA"/>
<path d="M288.341 387.561L276.233 378.706L285.088 366.598L297.195 375.453L288.341 387.561ZM340.541 425.736L352.649 434.591L343.794 446.699L331.687 437.844L340.541 425.736ZM277.432 402.476L268.578 414.584L256.47 405.729L265.325 393.622L277.432 402.476ZM329.633 440.652L338.488 428.544L350.617 437.415L341.725 449.528L329.633 440.652ZM329.633 440.652L320.778 452.76L308.649 443.89L317.541 431.776L329.633 440.652ZM344.549 451.561L356.633 460.447L347.77 472.5L335.694 463.668L344.549 451.561ZM344.549 451.56L332.465 442.674L341.329 430.619L353.406 439.454L344.549 451.56ZM344.553 451.563L356.661 460.418L347.804 472.528L335.696 463.669L344.553 451.563ZM355.461 436.648L364.319 424.542L376.421 433.398L367.569 445.502L355.461 436.648ZM355.457 436.645L346.599 448.75L334.497 439.894L343.349 427.79L355.457 436.645ZM430.327 334.269L439.181 322.161L451.289 331.016L442.435 343.124L430.327 334.269ZM415.411 323.361L403.304 314.506L412.158 302.398L424.266 311.253L415.411 323.361ZM297.195 375.453L349.396 413.629L331.687 437.844L279.486 399.668L297.195 375.453ZM265.325 393.622L276.233 378.706L300.448 396.415L289.54 411.331L265.325 393.622ZM320.779 452.76L268.578 414.584L286.287 390.369L338.488 428.544L320.779 452.76ZM317.541 431.776L317.541 431.776L341.725 449.528L341.725 449.528L317.541 431.776ZM335.694 463.668L320.778 452.76L338.488 428.545L353.403 439.453L335.694 463.668ZM356.633 460.447L356.633 460.447L332.464 442.674L332.465 442.674L356.633 460.447ZM335.696 463.669L335.692 463.666L353.406 439.454L353.41 439.457L335.696 463.669ZM367.569 445.502L356.661 460.418L332.445 442.709L343.354 427.793L367.569 445.502ZM364.315 424.539L364.319 424.542L346.603 448.753L346.599 448.75L364.315 424.539ZM442.435 343.124L367.565 445.499L343.349 427.79L418.219 325.414L442.435 343.124ZM424.266 311.253L439.181 322.161L421.472 346.377L406.557 335.468L424.266 311.253ZM328.434 416.882L403.304 314.506L427.519 332.215L352.649 434.591L328.434 416.882Z" fill="#2E2E2E" mask="url(#path-10-outside-2)"/>
</svg>
