<svg width="512" height="512" viewBox="0 0 512 512" fill="none" xmlns="http://www.w3.org/2000/svg">
<path d="M465.597 170.772C451.908 135.12 429.079 103.698 399.402 79.6613C369.726 55.625 334.247 39.8209 296.529 33.8364L279.477 141.309C298.336 144.301 316.075 152.203 330.914 164.221C345.752 176.239 357.167 191.95 364.011 209.776L465.597 170.772Z" fill="#0295AA"/>
<path d="M279.701 37.7552C242.02 31.7765 203.418 36.4398 168.244 51.2195C133.071 65.9993 102.723 90.3081 80.6219 121.407L164.111 180.741C175.162 165.192 190.335 153.037 207.922 145.647C225.509 138.258 244.81 135.926 263.651 138.915L279.701 37.7552Z" fill="#F0353D"/>
<path d="M72.5959 143.961C55.063 168.632 43.6372 197.112 39.2582 227.06C34.8793 257.008 37.6722 287.567 47.4074 316.225L137.929 285.474C133.061 271.145 131.665 255.866 133.854 240.892C136.044 225.918 141.757 211.678 150.523 199.342L72.5959 143.961Z" fill="#BCD643"/>
<path d="M56.1413 336.123C70.7195 379.037 99.5975 415.641 137.941 439.805C176.284 463.97 221.765 474.229 266.769 468.865L255.067 370.694C232.565 373.376 209.825 368.246 190.653 356.164C171.482 344.082 157.043 325.78 149.753 304.323L56.1413 336.123Z" fill="#9BAAAB"/>
<path d="M291.535 481.549C325.262 477.529 357.626 465.862 386.161 447.438C414.695 429.014 438.647 404.319 456.191 375.235C473.735 346.151 484.408 313.446 487.396 279.612C490.384 245.778 485.609 211.709 473.434 180L369.28 219.991C375.367 235.845 377.755 252.88 376.261 269.797C374.767 286.714 369.43 303.066 360.658 317.608C351.886 332.15 339.91 344.498 325.643 353.71C311.376 362.922 295.194 368.755 278.33 370.765L291.535 481.549Z" fill="#4ACFD9"/>
<path d="M399.544 84.3453L436.296 38.9697L489.657 38.9697" stroke="#0295AA" stroke-width="14"/>
<path d="M422 21H493" stroke="#F0353D" stroke-width="12" stroke-linecap="round" stroke-linejoin="round"/>
<circle cx="256" cy="256" r="103" fill="#E6EAEA"/>
<path d="M278.692 290.038H233.221L224.577 316H197L243.854 190H267.886L315 316H287.423L278.692 290.038ZM240.223 269.01H271.69L255.87 221.846L240.223 269.01Z" fill="#365558"/>
</svg>
