<svg width="512" height="519" viewBox="0 0 512 519" fill="none" xmlns="http://www.w3.org/2000/svg">
<path d="M446.303 241.906C427.504 192.944 396.151 149.79 355.395 116.78C314.639 83.77 265.914 62.0656 214.115 53.8469L190.697 201.443C216.597 205.552 240.959 216.405 261.337 232.91C281.715 249.415 297.391 270.991 306.791 295.473L446.303 241.906Z" fill="#0295AA"/>
<path d="M355.588 123.213L406.061 60.8971L479.344 60.8971" stroke="#0295AA" stroke-width="14"/>
<path d="M386 36.1309H484" stroke="#F0353D" stroke-width="12" stroke-linecap="round" stroke-linejoin="round"/>
<circle cx="158.5" cy="358.631" r="141.5" fill="#E6EAEA"/>
<path d="M189.154 405.485H126.727L114.859 441.131H77L141.325 268.131H174.319L239 441.131H201.141L189.154 405.485ZM136.341 376.612H179.541L157.822 311.856L136.341 376.612Z" fill="#365558"/>
</svg>
