<svg width="512" height="512" viewBox="0 0 512 512" fill="none" xmlns="http://www.w3.org/2000/svg">
<g clip-path="url(#clip0)">
<path d="M274.687 355.259C264.586 328.949 247.738 305.76 225.838 288.022C203.938 270.284 177.755 258.621 149.921 254.205L137.337 333.516C151.254 335.724 164.345 341.555 175.295 350.424C186.246 359.294 194.669 370.888 199.72 384.043L274.687 355.259Z" fill="#0295AA"/>
<path d="M225.941 291.479L253.063 257.993L292.442 257.993" stroke="#0295AA" stroke-width="14"/>
<path d="M251 238.52H304" stroke="#F0353D" stroke-width="12" stroke-linecap="round" stroke-linejoin="round"/>
<circle cx="120" cy="417.52" r="76" fill="#E6EAEA"/>
<path d="M136.923 443.357H103.012L96.5656 462.52H76L110.942 369.52H128.864L164 462.52H143.434L136.923 443.357ZM108.234 427.836H131.701L119.903 393.025L108.234 427.836Z" fill="#365558"/>
<path fill-rule="evenodd" clip-rule="evenodd" d="M340.5 321.922C340.5 321.922 340.5 321.922 340.499 321.922C294.341 321.922 256.922 359.341 256.922 405.499C256.922 451.658 294.341 489.077 340.499 489.077C340.5 489.077 340.5 489.077 340.5 489.077V444.808C340.5 444.808 340.5 444.808 340.499 444.808C318.79 444.808 301.191 427.209 301.191 405.499C301.191 383.79 318.79 366.191 340.499 366.191C340.5 366.191 340.5 366.191 340.5 366.191V321.922Z" fill="#BCD643"/>
<path fill-rule="evenodd" clip-rule="evenodd" d="M340.5 321.922C340.5 321.922 340.5 321.922 340.501 321.922C386.659 321.922 424.078 359.341 424.078 405.499C424.078 451.658 386.659 489.077 340.501 489.077C340.5 489.077 340.5 489.077 340.5 489.077V444.808C340.5 444.808 340.5 444.808 340.501 444.808C362.21 444.808 379.809 427.209 379.809 405.499C379.809 383.79 362.21 366.191 340.501 366.191C340.5 366.191 340.5 366.191 340.5 366.191V321.922Z" fill="#E6EAEA"/>
<path d="M417.367 405.5C417.367 447.953 382.953 482.367 340.5 482.367C298.047 482.367 263.633 447.953 263.633 405.5C263.633 363.047 298.047 328.633 340.5 328.633C382.953 328.633 417.367 363.047 417.367 405.5ZM340.5 508C397.109 508 443 462.109 443 405.5C443 348.891 397.109 303 340.5 303C283.891 303 238 348.891 238 405.5C238 462.109 283.891 508 340.5 508Z" fill="#0295AA" stroke="#2E2E2E" stroke-width="18"/>
<path fill-rule="evenodd" clip-rule="evenodd" d="M340.499 481.444C382.443 481.444 416.444 447.443 416.444 405.499C416.444 363.556 382.443 329.555 340.499 329.555C298.556 329.555 264.555 363.556 264.555 405.499C264.555 447.443 298.556 481.444 340.499 481.444ZM340.499 489.077C386.658 489.077 424.077 451.658 424.077 405.499C424.077 359.341 386.658 321.922 340.499 321.922C294.341 321.922 256.922 359.341 256.922 405.499C256.922 451.658 294.341 489.077 340.499 489.077Z" fill="#0295AA"/>
<path fill-rule="evenodd" clip-rule="evenodd" d="M340.5 437.175C357.993 437.175 372.175 422.993 372.175 405.5C372.175 388.006 357.993 373.824 340.5 373.824C323.006 373.824 308.824 388.006 308.824 405.5C308.824 422.993 323.006 437.175 340.5 437.175ZM340.5 444.808C362.209 444.808 379.808 427.209 379.808 405.5C379.808 383.79 362.209 366.191 340.5 366.191C318.79 366.191 301.191 383.79 301.191 405.5C301.191 427.209 318.79 444.808 340.5 444.808Z" fill="#0295AA"/>
<path d="M340.308 332.988L344.293 345.25H357.186L346.755 352.829L350.739 365.091L340.308 357.513L329.878 365.091L333.862 352.829L323.431 345.25H336.324L340.308 332.988Z" fill="#365558"/>
<path d="M340.308 444.808L344.293 457.07H357.186L346.755 464.648L350.739 476.91L340.308 469.332L329.878 476.91L333.862 464.648L323.431 457.07H336.324L340.308 444.808Z" fill="#365558"/>
<path d="M266.654 406.645L278.916 402.66L278.916 389.767L286.495 400.198L298.757 396.214L291.179 406.645L298.757 417.075L286.495 413.091L278.916 423.522L278.916 410.629L266.654 406.645Z" fill="#365558"/>
<path d="M378.473 406.645L390.735 402.66L390.735 389.767L398.313 400.198L410.575 396.214L402.997 406.645L410.575 417.075L398.313 413.091L390.735 423.522L390.735 410.629L378.473 406.645Z" fill="#365558"/>
<path d="M288.226 354.561L299.714 360.414L308.831 351.298L306.814 364.032L318.302 369.885L305.567 371.902L303.55 384.637L297.697 373.149L284.963 375.166L294.079 366.049L288.226 354.561Z" fill="#365558"/>
<path d="M367.294 433.63L378.782 439.484L387.899 430.367L385.882 443.101L397.37 448.955L384.636 450.972L382.619 463.706L376.765 452.218L364.031 454.235L373.148 445.118L367.294 433.63Z" fill="#365558"/>
<path d="M288.227 458.727L294.081 447.239L284.964 438.122L297.698 440.139L303.551 428.651L305.568 441.386L318.303 443.403L306.815 449.256L308.832 461.991L299.715 452.874L288.227 458.727Z" fill="#365558"/>
<path d="M367.295 379.659L373.149 368.171L364.032 359.054L376.766 361.071L382.62 349.583L384.637 362.318L397.371 364.334L385.883 370.188L387.9 382.922L378.783 373.805L367.295 379.659Z" fill="#365558"/>
<rect x="203" y="113.372" width="234.725" height="234.725" transform="rotate(-32.2845 203 113.372)" fill="#2E2E2E"/>
<rect x="231.271" y="119.751" width="193.743" height="193.743" transform="rotate(-32.2845 231.271 119.751)" fill="#E6EAEA"/>
<rect x="309.529" y="171.156" width="72.4878" height="16.1084" transform="rotate(12.7155 309.529 171.156)" fill="#F0353D"/>
<rect x="360.979" y="199.278" width="126.671" height="16.1084" transform="rotate(-77.2845 360.979 199.278)" fill="#F0353D"/>
</g>
<defs>
<clipPath id="clip0">
<rect width="512" height="512" fill="white" transform="matrix(1 0 0 -1 0 512)"/>
</clipPath>
</defs>
</svg>
