<svg width="512" height="527" viewBox="0 0 512 527" fill="none" xmlns="http://www.w3.org/2000/svg">
<path d="M429.303 241.906C410.504 192.944 379.151 149.79 338.395 116.78C297.639 83.77 248.914 62.0656 197.115 53.8469L173.697 201.443C199.597 205.552 223.959 216.405 244.337 232.91C264.715 249.415 280.391 270.991 289.791 295.473L429.303 241.906Z" fill="#0295AA"/>
<path d="M338.588 123.213L389.061 60.8971L462.344 60.8971" stroke="#0295AA" stroke-width="14"/>
<path d="M369 36.1309H467" stroke="#F0353D" stroke-width="12" stroke-linecap="round" stroke-linejoin="round"/>
<circle cx="141.5" cy="358.631" r="141.5" fill="#E6EAEA"/>
<path d="M172.154 405.485H109.727L97.8593 441.131H60L124.325 268.131H157.319L222 441.131H184.141L172.154 405.485ZM119.341 376.612H162.541L140.822 311.856L119.341 376.612Z" fill="#365558"/>
<path d="M361.556 304.754C361.556 314.831 353.352 323 343.233 323H203.322C193.203 323 185 331.169 185 341.246V496.754C185 506.831 193.203 515 203.322 515H481.678C491.797 515 500 506.831 500 496.754V293.246C500 283.169 491.797 275 481.678 275H379.878C369.759 275 361.556 283.169 361.556 293.246V304.754Z" fill="#FF8C29"/>
<path fill-rule="evenodd" clip-rule="evenodd" d="M342.959 515H481.389C491.499 515 499.694 506.831 499.694 496.754V293.246C499.694 283.169 491.499 275 481.389 275H379.688C369.579 275 361.384 283.169 361.384 293.246V304.754C361.384 314.831 353.189 323 343.079 323H342.959V515Z" fill="#FFD1A9"/>
</svg>
