<svg width="512" height="512" viewBox="0 0 512 512" fill="none" xmlns="http://www.w3.org/2000/svg">
<g clip-path="url(#clip0_765_157)">
<path d="M504 4H8C3.6 4 0 7.6 0 12V499.4C0 503.8 3.6 507.4 8 507.4H504C508.4 507.4 512 503.8 512 499.4V12C512 7.6 508.4 4 504 4Z" fill="#E6EAEA"/>
<path d="M504 4H8C3.6 4 0 7.6 0 12V122.6H512V12C512 7.6 508.4 4 504 4Z" fill="#9BAAAB"/>
<path d="M8 4C3.6 4 0 7.6 0 12V499.4C0 503.8 3.6 507.4 8 507.4H256V4H8Z" fill="#CDD4D5"/>
<path d="M8 4C3.6 4 0 7.6 0 12V122.6H256V4H8Z" fill="#687F82"/>
<path d="M264.6 29.6001C246 29.6001 230.9 44.7001 230.9 63.3001C230.9 81.9001 246 97.0001 264.6 97.0001C283.2 97.0001 298.3 81.9001 298.3 63.3001C298.3 44.7001 283.1 29.6001 264.6 29.6001Z" fill="#4ACFD9"/>
<path d="M170.501 29.6001C151.901 29.6001 136.801 44.7001 136.801 63.3001C136.801 81.9001 151.901 97.0001 170.501 97.0001C189.101 97.0001 204.201 81.9001 204.201 63.3001C204.201 44.7001 189.101 29.6001 170.501 29.6001Z" fill="#FF8C29"/>
<path d="M76.3992 29.6001C57.7992 29.6001 42.6992 44.7001 42.6992 63.3001C42.6992 81.9001 57.7992 97.0001 76.3992 97.0001C94.9992 97.0001 110.099 81.9001 110.099 63.3001C110.099 44.7001 94.9992 29.6001 76.3992 29.6001Z" fill="#F0353D"/>
<path d="M427 54.2002H333C328.6 54.2002 325 50.6002 325 46.2002C325 41.8002 328.6 38.2002 333 38.2002H427C431.4 38.2002 435 41.8002 435 46.2002C435 50.6002 431.5 54.2002 427 54.2002Z" fill="white"/>
<path d="M469.799 54.2002H452.699C448.299 54.2002 444.699 50.6002 444.699 46.2002C444.699 41.8002 448.299 38.2002 452.699 38.2002H469.799C474.199 38.2002 477.799 41.8002 477.799 46.2002C477.799 50.6002 474.199 54.2002 469.799 54.2002Z" fill="white"/>
<path d="M324.746 197.198C325.939 198.391 327.133 199.585 328.327 200.779C291.994 237.111 233.057 237.111 196.725 200.779C197.918 199.585 199.112 198.391 200.306 197.198C234.698 231.59 290.353 231.59 324.746 197.198Z" fill="#9BAAAB"/>
<path d="M303.856 196.302C310.048 205.479 316.166 214.655 322.358 223.831C286.399 248.152 238.876 248.152 202.842 223.906C209.034 214.73 215.152 205.553 221.344 196.377C246.187 213.088 279.013 213.088 303.856 196.302Z" fill="#FD6A33"/>
<path d="M303.857 196.302C306.916 200.853 310.049 205.479 313.108 210.029C282.67 230.546 242.532 230.62 212.094 210.104C215.153 205.553 218.286 200.928 221.345 196.377C246.188 213.088 279.014 213.088 303.857 196.302Z" fill="#F0353D"/>
<path d="M186.801 185.484C152.408 151.091 96.753 151.091 62.3603 185.484C61.1666 184.29 59.973 183.097 58.7793 181.903C95.1117 145.571 154.049 145.571 190.382 181.903C189.188 183.097 187.994 184.29 186.801 185.484Z" fill="#9BAAAB"/>
<path d="M161.882 183.843C136.218 168.848 103.541 170.563 79.5186 189.065C72.8042 180.337 66.0898 171.533 59.3008 162.805C94.0664 136.022 141.44 133.485 178.593 155.269C173.073 164.744 167.477 174.294 161.882 183.843Z" fill="#0295AA"/>
<path d="M161.884 183.843C136.22 168.847 103.543 170.563 79.5208 189.065C76.1636 184.664 72.8064 180.337 69.4492 175.935C98.8434 153.33 138.906 151.166 170.24 169.519C167.479 174.294 164.644 179.068 161.884 183.843Z" fill="#4ACFD9"/>
<path d="M226.48 367.068L221.643 383.442L238.832 388.602L221.197 448.195L204.008 443.11L199.171 459.485L216.36 464.644L211.747 480.197L215.244 481.244L228 484.815L233 468.315L246.571 472.944L241 488.315L256 493.5V507C251.312 507 246.05 506.741 241.362 506.741C178.262 506.741 115.237 506.815 52.137 506.815C51.2441 506.815 50.5 506.068 50.5 505.096C52.0626 369.012 50.3512 338.654 51.8394 202.794C51.8394 201.897 52.5091 201.224 53.402 201.15C58.3875 200.776 73.716 200.701 79.0735 201C79.9664 201.075 80.6361 201.748 80.6361 202.645C81.0082 225.675 81.157 248.854 81.4546 271.958C81.7523 295.511 81.9755 319.139 82.2731 342.692C82.4964 365.049 82.2731 355.627 82.422 375.068C82.422 376.489 84.059 377.236 85.1751 376.339C116.874 349.421 151.326 321.532 183.769 294.39C191.21 288.184 202.371 293.492 202.371 303.213C202.371 303.287 202.371 303.362 202.371 303.437C202.371 311.587 202.371 319.662 202.371 327.812V373.199C202.371 374.619 204.008 375.442 205.124 374.47C222.09 359.964 239.332 345.281 256 331V355.845L249.101 353.833L243.5 372.5L226.48 367.068Z" fill="#0295AA"/>
<path d="M430.777 506.662C430.777 506.737 430.703 506.812 430.703 506.812C430.629 506.886 430.629 506.886 430.554 506.886C372.16 506.886 314.394 507 256 507V493.502H256.999L257.973 487.562L261.414 476.742L265.5 478C268.1 478.746 270.775 479.119 273.375 479.119C277.833 479.119 281.821 478.758 285.981 476.52C292.445 473.013 297.125 467.194 299.279 460.106C301.508 452.645 300.394 445.034 296.902 438.767C303.291 435.484 308.752 430.401 310.981 423.015C313.477 415.016 313.122 406.644 308.485 400.019C304.664 393.248 298.794 389.46 292.013 387.521L289.018 386.522L294.509 367.525L280.034 363.026L274.044 382.522L261.565 378.523L266.981 359.674L256 356.099V355.713L256 331.032C256 331.032 258.047 329.388 259.384 328.195C273.797 315.884 288.136 303.499 302.697 291.039C308.12 286.338 316.515 290.293 316.515 297.53V373.558C316.515 374.975 318.15 375.796 319.264 374.826C351.953 346.847 384.419 318.943 416.884 291.113C422.308 286.413 430.703 290.367 430.777 297.604C431.074 351.249 431.074 503.678 430.777 506.662Z" fill="#4ACFD9"/>
<path d="M311.431 422.025C309.193 429.411 304.12 435.305 297.704 438.587C301.21 444.854 302.329 452.538 300.091 459.924C298.002 467.011 293.228 472.831 286.737 476.337C282.634 478.575 278.158 479.694 273.607 479.694C270.995 479.694 268.31 479.321 265.699 478.575L261.5 477L258.611 487.378L257 493.8L256 493.5V459.327L258.611 460.073L270.175 463.505C273.234 464.475 276.516 464.102 279.277 462.61C282.112 461.043 284.2 458.581 285.096 455.522C286.961 449.181 283.38 442.541 277.038 440.601L258.611 435.081L256 434.335V417.996L258.611 418.742L281.44 425.531C287.781 427.396 294.496 423.815 296.361 417.474C297.256 414.415 296.958 411.207 295.391 408.372C293.824 405.537 291.363 403.523 288.304 402.553L258.686 393.75L257.716 393.451L256 398.5L255 355.5L263.908 358.313L267.5 359.5L261.745 378.456L274.203 382.186L279.948 363.087L294.571 367.414L288.901 386.513L292.929 387.707C300.017 389.87 305.836 394.57 309.342 401.061C312.774 407.477 313.52 414.938 311.431 422.025Z" fill="#FD6A33"/>
<path d="M256 398.5L251 416.5L256 418V434.5L246.5 431.5L239.5 454.5L256 459.5V493.5L241.388 488.901L246.123 472.728L233.769 469.001L228.96 485.249L214.979 481.001L211.502 479.957L216.089 464.455L199 459.312L203.808 442.99L220.971 448.058L238.503 388.657L221.415 383.514L226.223 367.192L243.312 372.335L249 353.5L256 355.804V398.5Z" fill="#F0353D"/>
<path d="M256 398.5L255.961 417.803L250.738 416.236L256 398.5Z" fill="#0295AA"/>
<path d="M256 434.3V459.5L239.5 454.5L246.336 431.232L256 434.3Z" fill="#0295AA"/>
<path d="M296.396 417.356C294.531 423.697 287.817 427.278 281.475 425.413L258.646 418.624L256.035 417.878L256 398.5L257.676 393.258L258.646 393.557L288.339 402.435C291.398 403.33 293.934 405.419 295.426 408.254C296.993 411.014 297.291 414.297 296.396 417.356Z" fill="#4ACFD9"/>
<path d="M285.057 455.613C284.161 458.672 282.072 461.209 279.238 462.701C276.403 464.193 273.195 464.566 270.136 463.596L258.572 460.239L255.961 459.493L256 434.3L277 440.5C283.341 442.365 286.922 449.347 285.057 455.613Z" fill="#4ACFD9"/>
<path d="M157.483 507.104H96.9043V438.766C96.9043 431.679 102.723 425.86 109.811 425.86H144.577C151.664 425.86 157.483 431.679 157.483 438.766V507.104Z" fill="#D9D9D9"/>
<path d="M406.067 427.65H389.355C386.893 427.65 384.879 425.636 384.879 423.174V408.999C384.879 406.537 386.893 404.523 389.355 404.523H406.067C408.529 404.523 410.543 406.537 410.543 408.999V423.174C410.543 425.636 408.529 427.65 406.067 427.65Z" fill="#D9D9D9"/>
<path d="M365.406 427.65H348.695C346.233 427.65 344.219 425.636 344.219 423.174V408.999C344.219 406.537 346.233 404.523 348.695 404.523H365.406C367.868 404.523 369.883 406.537 369.883 408.999V423.174C369.883 425.636 367.868 427.65 365.406 427.65Z" fill="#D9D9D9"/>
<path d="M406.067 465.923H389.355C386.893 465.923 384.879 463.908 384.879 461.447V447.272C384.879 444.81 386.893 442.795 389.355 442.795H406.067C408.529 442.795 410.543 444.81 410.543 447.272V461.447C410.543 463.908 408.529 465.923 406.067 465.923Z" fill="#D9D9D9"/>
<path d="M365.406 465.923H348.695C346.233 465.923 344.219 463.908 344.219 461.447V447.272C344.219 444.81 346.233 442.795 348.695 442.795H365.406C367.868 442.795 369.883 444.81 369.883 447.272V461.447C369.883 463.908 367.868 465.923 365.406 465.923Z" fill="#D9D9D9"/>
</g>
<defs>
<clipPath id="clip0_765_157">
<rect width="512" height="512" fill="white"/>
</clipPath>
</defs>
</svg>
