<?xml version="1.0" encoding="utf-8"?>
<!-- Generator: Adobe Illustrator 25.4.1, SVG Export Plug-In . SVG Version: 6.00 Build 0)  -->
<svg version="1.1" id="Layer_1" xmlns="http://www.w3.org/2000/svg" xmlns:xlink="http://www.w3.org/1999/xlink" x="0px" y="0px"
	 viewBox="0 0 512 512" style="enable-background:new 0 0 512 512;" xml:space="preserve">
<style type="text/css">
	.st0{fill:none;}
	.st1{fill:#F0353D;}
	.st2{fill:#E6EAEA;}
	.st3{fill:#FD6A33;}
	.st4{fill:#0295AA;}
	.st5{fill:#4ACFD9;}
	.st6{fill:#CDD4D5;}
	.st7{fill:#9BAAAB;}
	.st8{fill:url(#New_Pattern_Swatch_6);}
	.st9{fill:url(#New_Pattern_Swatch_7);}
	.st10{fill:url(#New_Pattern_Swatch_2);}
	.st11{fill:url(#New_Pattern_Swatch_1);}
	.st12{fill:url(#New_Pattern_Swatch_9);}
	.st13{fill:url(#New_Pattern_Swatch_10);}
</style>
<pattern  y="512" width="128" height="128" patternUnits="userSpaceOnUse" id="New_Pattern_Swatch_1" viewBox="0 -128 128 128" style="overflow:visible;">
	<g>
		<rect y="-128" class="st0" width="128" height="128"/>
		<rect y="-128" class="st1" width="128" height="128"/>
	</g>
</pattern>
<pattern  y="512" width="128" height="128" patternUnits="userSpaceOnUse" id="New_Pattern_Swatch_10" viewBox="0 -128 128 128" style="overflow:visible;">
	<g>
		<rect y="-128" class="st0" width="128" height="128"/>
		<rect y="-128" class="st2" width="128" height="128"/>
	</g>
</pattern>
<pattern  y="512" width="128" height="128" patternUnits="userSpaceOnUse" id="New_Pattern_Swatch_2" viewBox="0 -128 128 128" style="overflow:visible;">
	<g>
		<rect y="-128" class="st0" width="128" height="128"/>
		<rect y="-128" class="st3" width="128" height="128"/>
	</g>
</pattern>
<pattern  y="512" width="128" height="128" patternUnits="userSpaceOnUse" id="New_Pattern_Swatch_6" viewBox="0 -128 128 128" style="overflow:visible;">
	<g>
		<rect y="-128" class="st0" width="128" height="128"/>
		<rect y="-128" class="st4" width="128" height="128"/>
	</g>
</pattern>
<pattern  y="512" width="128" height="128" patternUnits="userSpaceOnUse" id="New_Pattern_Swatch_7" viewBox="0 -128 128 128" style="overflow:visible;">
	<g>
		<rect y="-128" class="st0" width="128" height="128"/>
		<rect y="-128" class="st5" width="128" height="128"/>
	</g>
</pattern>
<pattern  y="512" width="128" height="128" patternUnits="userSpaceOnUse" id="New_Pattern_Swatch_9" viewBox="0 -128 128 128" style="overflow:visible;">
	<g>
		<rect y="-128" class="st0" width="128" height="128"/>
		<rect y="-128" class="st6" width="128" height="128"/>
	</g>
</pattern>
<image style="display:none;overflow:visible;" width="2126" height="2137" xlink:href="6EA206C831E6C9CB.png"  transform="matrix(0.24 0 0 0.24 1 0)">
</image>
<g>
	<g>
		<path class="st7" d="M367.7,97.9c1.6,1.6,3.2,3.2,4.8,4.8c-48.7,48.7-127.7,48.7-176.4,0c1.6-1.6,3.2-3.2,4.8-4.8
			C247,144,321.6,144,367.7,97.9z"/>
		<path class="st3" d="M339.7,96.7c8.3,12.3,16.5,24.6,24.8,36.9c-48.2,32.6-111.9,32.6-160.2,0.1c8.3-12.3,16.5-24.6,24.8-36.9
			C262.4,119.2,306.4,119.2,339.7,96.7z"/>
		<path class="st1" d="M339.7,96.7c4.1,6.1,8.3,12.3,12.4,18.4c-40.8,27.5-94.6,27.6-135.4,0.1c4.1-6.1,8.3-12.3,12.4-18.4
			C262.4,119.2,306.4,119.2,339.7,96.7z"/>
	</g>
</g>
<g>
	<g>
		<path class="st7" d="M182.8,82.2C136.7,36.1,62.1,36.1,16,82.2c-1.6-1.6-3.2-3.2-4.8-4.8c48.7-48.7,127.7-48.7,176.4,0
			C186,79,184.4,80.6,182.8,82.2z"/>
		<path class="st4" d="M149.4,80C115,59.9,71.2,62.2,39,87c-9-11.7-18-23.5-27.1-35.2c46.6-35.9,110.1-39.3,159.9-10.1
			C164.4,54.4,156.9,67.2,149.4,80z"/>
		<path class="st5" d="M149.4,80C115,59.9,71.2,62.2,39,87c-4.5-5.9-9-11.7-13.5-17.6c39.4-30.3,93.1-33.2,135.1-8.6
			C156.9,67.2,153.1,73.6,149.4,80z"/>
	</g>
</g>
<line class="st0" x1="256.5" y1="627.6" x2="256.5" y2="512"/>
<path class="st8" d="M236.6,325.7l-6.5,21.9l23.1,6.9l-23.7,79.7l-23.1-6.8l-6.5,21.9l23.1,6.9l-6.2,20.8l4.7,1.4l18.9,5.7l6.5-21.8
	l16.7,5l-6.4,21.7l18.4,5.5v18c-6.3,0-12.7,0-19,0c-84.8,0-169.5,0.1-254.3,0.1c0,0,0,0,0,0c-1.2,0-2.2-1-2.2-2.3
	c2.1-182-0.2-222.6,1.8-404.3c0-1.2,0.9-2.1,2.1-2.2c6.7-0.5,27.3-0.6,34.5-0.2c1.2,0.1,2.1,1,2.1,2.2c0.5,30.8,0.7,61.8,1.1,92.7
	c0.4,31.5,0.7,63.1,1.1,94.6c0.3,29.9,0,17.3,0.2,43.3c0,1.9,2.2,2.9,3.7,1.7c42.6-36,88.9-73.3,132.5-109.6c10-8.3,25-1.2,25,11.8
	c0,0.1,0,0.2,0,0.3c0,10.9,0,21.7,0,32.6v60.7c0,1.9,2.2,3,3.7,1.7c22.8-19.4,45.3-38.6,67.7-57.7v32.7L267,308l-7.4,24.6
	L236.6,325.7z"/>
<path class="st9" d="M511.7,512c0,0.1-0.1,0.2-0.1,0.2c-0.1,0.1-0.1,0.1-0.2,0.1c-78.6,0-157.2,0.1-235.8,0.1v-18l1,0.3l2.5-8.3
	l4-13.5l5.5,1.7c3.5,1,7.1,1.5,10.6,1.5c6,0,12-1.5,17.6-4.5c8.7-4.7,15-12.5,17.9-22c3-10,1.5-20.2-3.2-28.6
	c8.6-4.4,15.4-12.3,18.4-22.2c2.8-9.5,1.8-19.5-3-28.2c-4.7-8.7-12.5-15-22-17.9l-5.4-1.6l7.6-25.6l-19.6-5.8l-7.7,25.6l-16.7-5
	l7.6-25.6l-4.7-1.4l-7-2.1l-3.5-1v-32.7c1.9-1.6,3.7-3.1,5.5-4.7c19.4-16.5,38.7-33.1,58.3-49.8c7.3-6.3,18.6-1,18.6,8.7v101.9
	c0,1.9,2.2,3,3.7,1.7c44-37.5,87.7-74.9,131.4-112.2c7.3-6.3,18.6-1,18.7,8.7C512.1,303.7,512.1,508,511.7,512z"/>
<path class="st10" d="M349.7,399c-3,9.9-9.8,17.8-18.4,22.2c4.7,8.4,6.2,18.7,3.2,28.6c-2.8,9.5-9.2,17.3-17.9,22
	c-5.5,3-11.5,4.5-17.6,4.5c-3.5,0-7.1-0.5-10.6-1.5l-5.5-1.7l-4,13.5l-2.5,8.3l-1-0.3V449l3.5,1l15.5,4.6c4.1,1.3,8.5,0.8,12.2-1.2
	c3.8-2.1,6.6-5.4,7.8-9.5c2.5-8.5-2.3-17.4-10.8-20l-24.7-7.4l-3.5-1v-21.9l3.5,1l30.6,9.1c8.5,2.5,17.5-2.3,20-10.8
	c1.2-4.1,0.8-8.4-1.3-12.2c-2.1-3.8-5.4-6.5-9.5-7.8L279,361.1l-1.3-0.4l-2.2,7.3v-57.5l3.5,1l7,2.1l4.7,1.4l-7.6,25.6l16.7,5
	l7.7-25.6l19.6,5.8l-7.6,25.6l5.4,1.6c9.5,2.9,17.3,9.2,22,17.9C351.5,379.5,352.5,389.5,349.7,399z"/>
<polygon class="st11" points="275.5,368 268.5,391.5 275.5,393.6 275.5,415.5 262.6,411.6 253.4,442.3 275.5,449 275.5,494.5 
	257.1,489 263.5,467.3 246.8,462.3 240.3,484.1 221.4,478.4 216.7,477 222.9,456.2 199.8,449.3 206.3,427.4 229.5,434.2 
	253.2,354.5 230.1,347.6 236.6,325.7 259.7,332.6 267,308 275.5,310.5 "/>
<polygon class="st8" points="275.5,368 275.5,393.6 268.5,391.5 "/>
<polygon class="st8" points="275.5,415.5 275.5,449 253.4,442.3 262.6,411.6 "/>
<path class="st9" d="M329.7,393c-2.5,8.5-11.5,13.3-20,10.8l-30.6-9.1l-3.5-1V368l2.2-7.3l1.3,0.4l39.8,11.9c4.1,1.2,7.5,4,9.5,7.8
	C330.5,384.5,330.9,388.9,329.7,393z"/>
<path class="st9" d="M314.5,443.8c-1.2,4.1-4,7.5-7.8,9.5c-3.8,2-8.1,2.5-12.2,1.2L279,450l-3.5-1v-33.5l3.5,1l24.7,7.4
	C312.2,426.4,317,435.4,314.5,443.8z"/>
<line class="st0" x1="275.5" y1="548.5" x2="275.5" y2="512.5"/>
<polyline class="st0" points="275.5,277.8 275.5,129 275.5,110.2 275.5,106.8 275.5,103.4 275.5,84.6 275.5,-86 "/>
<path class="st12" d="M143.5,513.3H62.3v-91.6c0-9.5,7.8-17.3,17.3-17.3h46.6c9.5,0,17.3,7.8,17.3,17.3V513.3z"/>
<path class="st13" d="M476.7,406.8h-22.4c-3.3,0-6-2.7-6-6v-19c0-3.3,2.7-6,6-6h22.4c3.3,0,6,2.7,6,6v19
	C482.7,404.1,480,406.8,476.7,406.8z"/>
<path class="st13" d="M422.2,406.8h-22.4c-3.3,0-6-2.7-6-6v-19c0-3.3,2.7-6,6-6h22.4c3.3,0,6,2.7,6,6v19
	C428.2,404.1,425.5,406.8,422.2,406.8z"/>
<path class="st13" d="M476.7,458.1h-22.4c-3.3,0-6-2.7-6-6v-19c0-3.3,2.7-6,6-6h22.4c3.3,0,6,2.7,6,6v19
	C482.7,455.4,480,458.1,476.7,458.1z"/>
<path class="st13" d="M422.2,458.1h-22.4c-3.3,0-6-2.7-6-6v-19c0-3.3,2.7-6,6-6h22.4c3.3,0,6,2.7,6,6v19
	C428.2,455.4,425.5,458.1,422.2,458.1z"/>
</svg>
