<svg id="Capa_1" data-name="Capa 1" xmlns="http://www.w3.org/2000/svg" viewBox="0 0 512 512"><defs><style>.cls-1{fill:#0295aa;}.cls-2{fill:#4acfd9;}.cls-3{fill:#365558;}.cls-4{fill:#ff8c29;}.cls-5{fill:#bcd643;}.cls-6{fill:#fd6a33;}.cls-7{fill:#ffd1a9;}.cls-8{fill:#f0353d;}.cls-9{fill:#f0f7ff;}.cls-10{fill:#dfe7f4;}</style></defs><title>community-building-programs</title><path class="cls-1" d="M512,52.79V157.51a52.85,52.85,0,0,1-52.79,52.79h-145l-48.57,40.91a14.91,14.91,0,0,1-9.66,3.53h0a14.88,14.88,0,0,1-9.65-3.53L197.77,210.3h-145A52.85,52.85,0,0,1,0,157.51V52.79A52.85,52.85,0,0,1,52.79,0H459.21A52.85,52.85,0,0,1,512,52.79Z"/><path class="cls-2" d="M512,52.79V157.51a52.85,52.85,0,0,1-52.79,52.79h-145l-48.57,40.91a14.91,14.91,0,0,1-9.66,3.53h0V0H459.21A52.85,52.85,0,0,1,512,52.79Z"/><path class="cls-3" d="M512,485.13v12.22A14.66,14.66,0,0,1,497.35,512H350.41a14.66,14.66,0,0,1-14.66-14.65V485.13a88.13,88.13,0,0,1,176.25,0Z"/><ellipse class="cls-4" cx="423.95" cy="346.46" rx="50.63" ry="50.65" transform="translate(76.64 769.71) rotate(-89.89)"/><path class="cls-4" d="M474.52,346.4A50.69,50.69,0,0,1,423.87,397V295.76A50.7,50.7,0,0,1,474.52,346.4Z"/><path class="cls-5" d="M512,485.13v12.22A14.66,14.66,0,0,1,497.35,512H423.87V397A88.22,88.22,0,0,1,512,485.13Z"/><path class="cls-6" d="M176.25,485.13v12.22A14.66,14.66,0,0,1,161.59,512H14.65A14.65,14.65,0,0,1,0,497.35V485.13a88.13,88.13,0,0,1,176.25,0Z"/><ellipse class="cls-7" cx="88.14" cy="346.46" rx="50.63" ry="50.65" transform="translate(-258.5 433.91) rotate(-89.89)"/><path class="cls-7" d="M138.77,346.4A50.69,50.69,0,0,1,88.12,397V295.76A50.7,50.7,0,0,1,138.77,346.4Z"/><path class="cls-8" d="M176.25,485.13v12.22A14.66,14.66,0,0,1,161.59,512H88.12V397a88.22,88.22,0,0,1,88.13,88.1Z"/><path class="cls-1" d="M351.86,482.77V512H160.14V484c0-52.77,42.14-96.55,94.91-97.07A96,96,0,0,1,351.86,482.77Z"/><ellipse class="cls-7" cx="256.04" cy="331.92" rx="55.08" ry="55.1" transform="translate(-76.36 587.33) rotate(-89.89)"/><path class="cls-7" d="M311.09,331.86A55.15,55.15,0,0,1,256,386.94V276.78A55.15,55.15,0,0,1,311.09,331.86Z"/><path class="cls-2" d="M351.86,482.77V512H256V386.94A96,96,0,0,1,351.86,482.77Z"/><path class="cls-9" d="M452,70.15a15,15,0,0,1-15,15H373a15,15,0,1,1,0-30h64A15,15,0,0,1,452,70.15Z"/><path class="cls-9" d="M328,70.15a15,15,0,0,1-15,15H75a15,15,0,0,1,0-30H313A15,15,0,0,1,328,70.15Z"/><path class="cls-9" d="M452,140.15a15,15,0,0,1-15,15H243.89a15,15,0,0,1,0-30H437A15,15,0,0,1,452,140.15Z"/><path class="cls-9" d="M184.38,155.15H75a15,15,0,0,1,0-30H184.38a15,15,0,0,1,0,30Z"/><path class="cls-10" d="M358,70.15a15,15,0,0,1,15-15h64a15,15,0,0,1,0,30H373A15,15,0,0,1,358,70.15Z"/><path class="cls-10" d="M313,85.15H256v-30h57a15,15,0,0,1,0,30Z"/><path class="cls-10" d="M452,140.15a15,15,0,0,1-15,15H256v-30H437A15,15,0,0,1,452,140.15Z"/></svg>