<svg id="Layer_1" data-name="Layer 1" xmlns="http://www.w3.org/2000/svg" viewBox="0 0 512 512"><defs><style>.cls-1{fill:#4acfd9;}.cls-2{fill:#0295aa;}.cls-3{fill:#f0353d;}.cls-4{fill:#fd6a33;}.cls-5{fill:#365558;}.cls-6{fill:#d7e6f0;}.cls-7{fill:#cdd4d5;}.cls-8{fill:#9baaab;}.cls-9{fill:#ff8c29;}.cls-10{fill:#ffd1a9;}.cls-11{fill:#e6eaea;}</style></defs><title>delegation-program</title><path class="cls-1" d="M440,120H408V104a8,8,0,0,0-13.66-5.66l-24,24a8,8,0,0,0,0,11.32l24,24A8,8,0,0,0,408,152V136h24V320a8,8,0,0,0,16,0V128A8,8,0,0,0,440,120Z"/><path class="cls-2" d="M141.66,122.34l-24-24A8,8,0,0,0,104,104v16H72a8,8,0,0,0-8,8V320a8,8,0,0,0,16,0V136h24v16a8,8,0,0,0,13.66,5.66l24-24a8,8,0,0,0,0-11.32Z"/><path class="cls-3" d="M252.17,191.9c-.42,0-.84-.07-1.26-.1-.84-.06-1.68-.11-2.51-.2-.5,0-1-.13-1.48-.19-.75-.09-1.5-.19-2.24-.3l-1.55-.28c-.71-.13-1.41-.25-2.11-.4l-1.57-.36c-.67-.16-1.35-.32-2-.5l-1.57-.44c-.65-.2-1.3-.39-2-.6s-1-.34-1.55-.52-1.27-.45-1.89-.69l-1.52-.59c-.62-.26-1.24-.51-1.85-.78s-1-.44-1.47-.67-1.21-.58-1.81-.88-1-.48-1.43-.73-1.18-.64-1.77-1l-1.37-.78c-.58-.35-1.16-.72-1.74-1.08l-1.29-.83-1.73-1.19c-.4-.29-.81-.57-1.2-.86-.59-.44-1.16-.88-1.73-1.33-.37-.29-.74-.57-1.1-.87-.6-.49-1.18-1-1.77-1.51l-.94-.81c-.67-.61-1.33-1.25-2-1.88l-.61-.58c-.85-.85-1.68-1.71-2.48-2.6h0A72,72,0,0,1,256,48V16a104.23,104.23,0,0,0-24.71,3c-1.35.33-2.69.68-4,1.06s-2.66.8-4,1.24c-.89.29-1.78.6-2.66.91-1.37.5-2.72,1-4.06,1.57q-4,1.67-7.92,3.64l-.26.14A104.29,104.29,0,0,0,156.69,89c-.31,1-.59,2-.87,3q-.54,1.91-1,3.84c-.13.52-.24,1-.36,1.55-.23,1-.44,2.07-.64,3.12q-.22,1.18-.42,2.37c-.38,2.3-.69,4.61-.91,7-.15,1.54-.27,3.08-.35,4.64q-.08,1.41-.12,2.85c0,.89,0,1.78,0,2.68A104,104,0,0,0,256,224V192C254.72,192,253.44,192,252.17,191.9Z"/><path class="cls-4" d="M360,117.32q0-1.44-.12-2.85c-.08-1.56-.2-3.1-.35-4.64-.22-2.34-.53-4.65-.91-7q-.19-1.18-.42-2.37c-.2-1.05-.41-2.09-.64-3.12-.12-.52-.23-1-.36-1.55q-.45-1.94-1-3.84c-.28-1-.56-2-.87-3a104.29,104.29,0,0,0-51.7-61.51l-.26-.14q-3.87-2-7.92-3.64c-1.34-.55-2.69-1.07-4.06-1.57-.88-.31-1.77-.62-2.66-.91-1.31-.44-2.64-.85-4-1.24s-2.68-.73-4-1.06A104.23,104.23,0,0,0,256,16h0V48h0a72,72,0,0,1,50.83,123l-.49.47c-.69.67-1.39,1.34-2.1,2-.29.27-.59.51-.89.77-.6.53-1.2,1-1.82,1.56-.35.29-.71.56-1.07.84-.58.46-1.16.91-1.75,1.35-.39.29-.79.56-1.19.85-.58.4-1.15.81-1.74,1.2l-1.29.82c-.58.37-1.16.74-1.75,1.09l-1.36.78-1.77,1-1.42.72c-.6.3-1.21.6-1.82.88l-1.47.67c-.61.27-1.23.52-1.85.78l-1.52.59c-.62.24-1.26.47-1.89.69s-1,.36-1.55.52-1.3.4-1.95.6l-1.57.44c-.67.18-1.35.34-2,.5l-1.57.36c-.7.15-1.4.27-2.11.4l-1.55.28c-.74.11-1.49.21-2.24.3-.49.06-1,.14-1.48.19-.83.09-1.67.14-2.51.2-.42,0-.84.08-1.26.1-1.27.06-2.55.1-3.83.1h0v32h0A104,104,0,0,0,360,120C360,119.1,360,118.21,360,117.32Z"/><path class="cls-5" d="M229,186.73c-.62-.26-1.24-.51-1.85-.78C227.71,186.22,228.33,186.47,229,186.73Z"/><path class="cls-5" d="M291.38,182.7l-1.77,1Z"/><path class="cls-5" d="M259.83,191.9c-1.27.06-2.55.1-3.83.1C257.28,192,258.56,192,259.83,191.9Z"/><path class="cls-5" d="M271,190.43c-.7.15-1.4.27-2.11.4C269.58,190.7,270.28,190.58,271,190.43Z"/><path class="cls-5" d="M219.25,181.92c-.58-.35-1.16-.72-1.74-1.08C218.09,181.2,218.67,181.57,219.25,181.92Z"/><path class="cls-5" d="M294.49,180.83c-.58.37-1.16.74-1.75,1.09C293.33,181.57,293.91,181.2,294.49,180.83Z"/><path class="cls-5" d="M216.22,180l-1.73-1.19Z"/><path class="cls-5" d="M222.39,183.67c-.59-.31-1.18-.64-1.77-1C221.21,183,221.8,183.36,222.39,183.67Z"/><path class="cls-5" d="M225.63,185.28c-.61-.28-1.21-.58-1.81-.88C224.42,184.7,225,185,225.63,185.28Z"/><path class="cls-5" d="M239.45,190.07c-.67-.16-1.35-.32-2-.5C238.1,189.75,238.78,189.91,239.45,190.07Z"/><path class="cls-5" d="M284.9,186c-.61.27-1.23.52-1.85.78C283.67,186.47,284.29,186.22,284.9,186Z"/><path class="cls-5" d="M288.19,184.4c-.6.3-1.21.6-1.82.88C287,185,287.59,184.7,288.19,184.4Z"/><path class="cls-5" d="M243.13,190.83c-.71-.13-1.41-.25-2.11-.4C241.72,190.58,242.42,190.7,243.13,190.83Z"/><path class="cls-5" d="M250.91,191.8c-.84-.06-1.68-.11-2.51-.2C249.23,191.69,250.07,191.74,250.91,191.8Z"/><path class="cls-5" d="M235.86,189.13c-.65-.2-1.3-.39-2-.6C234.56,188.74,235.21,188.93,235.86,189.13Z"/><path class="cls-5" d="M232.36,188c-.63-.22-1.27-.45-1.89-.69C231.09,187.56,231.73,187.79,232.36,188Z"/><path class="cls-5" d="M278.09,188.53q-1,.32-1.95.6C276.79,188.93,277.44,188.74,278.09,188.53Z"/><path class="cls-5" d="M306.34,171.46c-.69.67-1.39,1.34-2.1,2C305,172.8,305.65,172.13,306.34,171.46Z"/><path class="cls-5" d="M303.35,174.21c-.6.53-1.2,1-1.82,1.56C302.15,175.26,302.75,174.74,303.35,174.21Z"/><path class="cls-5" d="M281.53,187.32c-.62.24-1.26.47-1.89.69C280.27,187.79,280.91,187.56,281.53,187.32Z"/><path class="cls-5" d="M267.32,191.11c-.74.11-1.49.21-2.24.3C265.83,191.32,266.58,191.22,267.32,191.11Z"/><path class="cls-5" d="M252.17,191.9c1.27.06,2.55.1,3.83.1h0C254.72,192,253.44,192,252.17,191.9Z"/><path class="cls-5" d="M184,120a71.73,71.73,0,0,0,18.67,48.37V160a24,24,0,0,1,24-24H256v-8a32,32,0,0,1,0-64V48A72,72,0,0,0,184,120Z"/><path class="cls-5" d="M246.92,191.41c-.75-.09-1.5-.19-2.24-.3C245.42,191.22,246.17,191.32,246.92,191.41Z"/><path class="cls-2" d="M256,64a32,32,0,0,1,0,64h0v8h29.33a24,24,0,0,1,24,24v8.37c-.81.89-1.64,1.77-2.5,2.62A72,72,0,0,0,256,48h0V64Z"/><path class="cls-5" d="M210.46,175.76c-.6-.49-1.18-1-1.77-1.51C209.28,174.76,209.86,175.27,210.46,175.76Z"/><path class="cls-5" d="M297.52,178.81c-.58.4-1.15.81-1.74,1.2C296.37,179.62,296.94,179.21,297.52,178.81Z"/><path class="cls-5" d="M213.29,178c-.59-.44-1.16-.88-1.73-1.33C212.13,177.08,212.7,177.52,213.29,178Z"/><path class="cls-5" d="M263.6,191.6c-.83.09-1.67.14-2.51.2C261.93,191.74,262.77,191.69,263.6,191.6Z"/><path class="cls-5" d="M300.46,176.61c-.58.46-1.16.91-1.75,1.35C299.3,177.52,299.88,177.07,300.46,176.61Z"/><path class="cls-5" d="M274.57,189.57c-.67.18-1.35.34-2,.5C273.22,189.91,273.9,189.75,274.57,189.57Z"/><path class="cls-5" d="M205.16,171c-.85-.85-1.68-1.71-2.48-2.6C203.48,169.27,204.31,170.13,205.16,171Z"/><path class="cls-5" d="M207.75,173.44c-.67-.61-1.33-1.25-2-1.88C206.42,172.19,207.08,172.83,207.75,173.44Z"/><path class="cls-6" d="M276.14,189.13l-1.57.44Z"/><path class="cls-6" d="M272.55,190.07l-1.57.36Z"/><path class="cls-6" d="M279.64,188c-.52.18-1,.36-1.55.52C278.61,188.37,279.12,188.19,279.64,188Z"/><path class="cls-6" d="M298.71,178c-.39.29-.79.56-1.19.85C297.92,178.52,298.32,178.25,298.71,178Z"/><path class="cls-6" d="M283.05,186.73l-1.52.59Z"/><path class="cls-6" d="M295.78,180l-1.29.82Z"/><path class="cls-6" d="M306.83,171l-.49.47Z"/><path class="cls-6" d="M304.24,173.44c-.29.27-.59.51-.89.77C303.65,174,304,173.71,304.24,173.44Z"/><path class="cls-6" d="M292.74,181.92l-1.36.78Z"/><path class="cls-6" d="M286.37,185.28c-.48.23-1,.45-1.47.67Z"/><path class="cls-6" d="M289.61,183.68l-1.42.72Z"/><path class="cls-6" d="M301.53,175.77c-.35.29-.71.56-1.07.84C300.82,176.33,301.18,176.06,301.53,175.77Z"/><path class="cls-6" d="M214.49,178.82c-.4-.29-.81-.57-1.2-.86C213.68,178.25,214.09,178.53,214.49,178.82Z"/><path class="cls-6" d="M227.1,186c-.49-.22-1-.44-1.47-.67C226.11,185.51,226.61,185.73,227.1,186Z"/><path class="cls-6" d="M220.62,182.7l-1.37-.78Z"/><path class="cls-6" d="M223.82,184.4c-.48-.23-1-.48-1.43-.73C222.86,183.92,223.34,184.17,223.82,184.4Z"/><path class="cls-6" d="M268.87,190.83l-1.55.28Z"/><path class="cls-6" d="M211.56,176.63c-.37-.29-.74-.57-1.1-.87C210.82,176.06,211.19,176.34,211.56,176.63Z"/><path class="cls-6" d="M205.77,171.56l-.61-.58Z"/><polygon class="cls-6" points="202.67 168.37 202.68 168.38 202.67 168.37 202.67 168.37"/><path class="cls-6" d="M208.69,174.25l-.94-.81Z"/><path class="cls-6" d="M217.51,180.84l-1.29-.83Z"/><path class="cls-6" d="M252.17,191.9c-.42,0-.84-.07-1.26-.1C251.33,191.83,251.75,191.88,252.17,191.9Z"/><path class="cls-6" d="M261.09,191.8c-.42,0-.84.08-1.26.1C260.25,191.88,260.67,191.83,261.09,191.8Z"/><path class="cls-6" d="M265.08,191.41c-.49.06-1,.14-1.48.19C264.1,191.55,264.59,191.47,265.08,191.41Z"/><path class="cls-6" d="M230.47,187.32l-1.52-.59Z"/><path class="cls-6" d="M248.4,191.6c-.5,0-1-.13-1.48-.19C247.41,191.47,247.9,191.55,248.4,191.6Z"/><path class="cls-6" d="M244.68,191.11l-1.55-.28Z"/><path class="cls-6" d="M233.91,188.53c-.52-.16-1-.34-1.55-.52C232.88,188.19,233.39,188.37,233.91,188.53Z"/><path class="cls-6" d="M237.43,189.57l-1.57-.44Z"/><path class="cls-6" d="M241,190.43l-1.57-.36Z"/><path class="cls-7" d="M309.33,160a24,24,0,0,0-24-24H256v56h0c1.28,0,2.56,0,3.83-.1.42,0,.84-.07,1.26-.1.84-.06,1.68-.11,2.51-.2.5,0,1-.13,1.48-.19.75-.09,1.5-.19,2.24-.3l1.55-.28c.71-.13,1.41-.25,2.11-.4l1.57-.36c.67-.16,1.35-.32,2-.5l1.57-.44q1-.28,1.95-.6c.52-.16,1-.34,1.55-.52s1.27-.45,1.89-.69l1.52-.59c.62-.26,1.24-.51,1.85-.78s1-.44,1.47-.67,1.22-.58,1.82-.88l1.42-.72,1.77-1,1.36-.78c.59-.35,1.17-.72,1.75-1.09l1.29-.82c.59-.39,1.16-.8,1.74-1.2.4-.29.8-.56,1.19-.85.59-.44,1.17-.89,1.75-1.35.36-.28.72-.55,1.07-.84.62-.51,1.22-1,1.82-1.56.3-.26.6-.5.89-.77.71-.64,1.41-1.31,2.1-2l.49-.47c.86-.85,1.69-1.73,2.5-2.62Z"/><path class="cls-8" d="M256,136H226.67a24,24,0,0,0-24,24v8.37h0c.8.89,1.63,1.75,2.48,2.6l.61.58c.65.63,1.31,1.27,2,1.88l.94.81c.59.51,1.17,1,1.77,1.51.36.3.73.58,1.1.87.57.45,1.14.89,1.73,1.33.39.29.8.57,1.2.86l1.73,1.19,1.29.83c.58.36,1.16.73,1.74,1.08l1.37.78c.59.33,1.18.66,1.77,1s1,.5,1.43.73,1.2.6,1.81.88,1,.45,1.47.67,1.23.52,1.85.78l1.52.59c.62.24,1.26.47,1.89.69s1,.36,1.55.52,1.3.4,2,.6l1.57.44c.67.18,1.35.34,2,.5l1.57.36c.7.15,1.4.27,2.11.4l1.55.28c.74.11,1.49.21,2.24.3.49.06,1,.14,1.48.19.83.09,1.67.14,2.51.2.42,0,.84.08,1.26.1,1.27.06,2.55.1,3.83.1Z"/><path class="cls-9" d="M224,96a32,32,0,0,0,32,32V64A32,32,0,0,0,224,96Z"/><path class="cls-10" d="M288,96a32,32,0,0,0-32-32h0v64h0A32,32,0,0,0,288,96Z"/><path class="cls-7" d="M132.17,463.9c-.42,0-.84-.07-1.26-.1-.84-.06-1.68-.11-2.51-.2-.5-.05-1-.13-1.48-.19-.75-.09-1.5-.19-2.24-.3l-1.55-.28c-.71-.13-1.41-.25-2.11-.4l-1.57-.36c-.67-.16-1.35-.32-2-.5l-1.57-.44q-1-.28-2-.6c-.52-.16-1-.34-1.55-.52s-1.27-.45-1.89-.69l-1.52-.59c-.62-.26-1.24-.51-1.85-.78s-1-.44-1.47-.67-1.21-.58-1.81-.88-1-.48-1.43-.73-1.18-.64-1.77-1l-1.37-.79c-.58-.34-1.16-.71-1.74-1.07L96.22,452c-.58-.39-1.15-.79-1.72-1.19-.41-.29-.82-.57-1.21-.87-.59-.43-1.16-.87-1.73-1.32-.36-.29-.74-.57-1.1-.87-.6-.49-1.19-1-1.77-1.51l-.94-.81c-.67-.61-1.33-1.25-2-1.88-.19-.2-.4-.38-.6-.58-.85-.85-1.68-1.71-2.48-2.6h0A72,72,0,0,1,136,320V288a104.23,104.23,0,0,0-24.71,3c-1.35.33-2.69.68-4,1.06s-2.66.8-4,1.24c-.89.29-1.78.6-2.66.91-1.37.5-2.72,1-4.06,1.57q-4,1.67-7.92,3.64l-.26.14A104.29,104.29,0,0,0,36.69,361c-.31,1-.59,2-.87,3q-.54,1.9-1,3.84c-.13.52-.24,1-.36,1.55-.23,1-.44,2.07-.64,3.12q-.22,1.19-.42,2.37c-.38,2.3-.69,4.61-.91,6.95-.15,1.54-.27,3.08-.35,4.64q-.07,1.41-.12,2.85c0,.89,0,1.78,0,2.68A104,104,0,0,0,136,496V464C134.72,464,133.44,464,132.17,463.9Z"/><path class="cls-11" d="M240,389.32A104,104,0,0,0,138.68,288c-.89,0-1.78,0-2.68,0v32a72,72,0,0,1,50.83,123l-.49.47c-.69.67-1.39,1.34-2.1,2-.29.27-.59.51-.89.77-.6.53-1.2,1.05-1.82,1.56-.35.29-.71.56-1.07.84-.58.46-1.16.91-1.75,1.35-.39.29-.79.56-1.19.85-.58.4-1.15.81-1.74,1.2l-1.29.82c-.58.37-1.16.74-1.75,1.09l-1.36.78-1.77,1-1.42.72c-.6.3-1.21.6-1.82.88l-1.47.67c-.61.27-1.23.52-1.85.78l-1.52.59c-.62.24-1.26.47-1.89.69s-1,.36-1.55.52-1.3.4-2,.6l-1.57.44c-.67.18-1.35.34-2,.5l-1.57.36c-.7.15-1.4.27-2.11.4l-1.55.28c-.74.11-1.49.21-2.24.3-.49.06-1,.14-1.48.19-.83.09-1.67.14-2.51.2-.42,0-.84.08-1.26.1-1.27.06-2.55.1-3.83.1v32A104,104,0,0,0,240,392C240,391.1,240,390.21,240,389.32Z"/><path class="cls-5" d="M151,462.43c-.7.15-1.4.27-2.11.4C149.58,462.7,150.28,462.58,151,462.43Z"/><path class="cls-5" d="M136,464c-1.28,0-2.56,0-3.83-.1C133.44,464,134.72,464,136,464Z"/><path class="cls-5" d="M139.83,463.9c-1.27.06-2.55.1-3.83.1C137.28,464,138.56,464,139.83,463.9Z"/><path class="cls-5" d="M143.6,463.6c-.83.09-1.67.14-2.51.2C141.93,463.74,142.77,463.69,143.6,463.6Z"/><path class="cls-5" d="M147.32,463.11c-.74.11-1.49.21-2.24.3C145.83,463.32,146.58,463.22,147.32,463.11Z"/><path class="cls-5" d="M119.45,462.07c-.67-.16-1.35-.32-2-.5C118.1,461.75,118.78,461.91,119.45,462.07Z"/><path class="cls-5" d="M112.36,460c-.63-.22-1.27-.45-1.89-.69C111.09,459.56,111.73,459.79,112.36,460Z"/><path class="cls-5" d="M115.86,461.13c-.65-.2-1.3-.39-2-.6Q114.89,460.85,115.86,461.13Z"/><path class="cls-5" d="M123.13,462.83c-.71-.13-1.41-.25-2.11-.4C121.72,462.58,122.42,462.7,123.13,462.83Z"/><path class="cls-5" d="M126.92,463.41c-.75-.09-1.5-.19-2.24-.3C125.42,463.22,126.17,463.32,126.92,463.41Z"/><path class="cls-5" d="M130.91,463.8c-.84-.06-1.68-.11-2.51-.2C129.23,463.69,130.07,463.74,130.91,463.8Z"/><path class="cls-5" d="M154.57,461.57c-.67.18-1.35.34-2,.5C153.22,461.91,153.9,461.75,154.57,461.57Z"/><path class="cls-5" d="M180.46,448.61c-.58.46-1.16.91-1.75,1.35C179.3,449.52,179.88,449.07,180.46,448.61Z"/><path class="cls-5" d="M177.52,450.81c-.58.4-1.15.81-1.74,1.2C176.37,451.62,176.94,451.21,177.52,450.81Z"/><path class="cls-5" d="M183.35,446.21c-.6.53-1.2,1.05-1.82,1.56C182.15,447.26,182.75,446.74,183.35,446.21Z"/><path class="cls-5" d="M186.34,443.46c-.69.67-1.39,1.34-2.1,2C185,444.8,185.65,444.13,186.34,443.46Z"/><path class="cls-5" d="M174.49,452.83c-.58.37-1.16.74-1.75,1.09C173.33,453.57,173.91,453.2,174.49,452.83Z"/><path class="cls-5" d="M158.09,460.53q-1,.32-2,.6C156.79,460.93,157.44,460.74,158.09,460.53Z"/><path class="cls-5" d="M171.38,454.7l-1.77,1Z"/><path class="cls-5" d="M161.53,459.32c-.62.24-1.26.47-1.89.69C160.27,459.79,160.91,459.56,161.53,459.32Z"/><path class="cls-5" d="M109,458.73c-.62-.26-1.24-.51-1.85-.78C107.71,458.22,108.33,458.47,109,458.73Z"/><path class="cls-5" d="M164.9,458c-.61.27-1.23.52-1.85.78C163.67,458.47,164.29,458.22,164.9,458Z"/><path class="cls-5" d="M168.19,456.4c-.6.3-1.21.6-1.82.88C167,457,167.59,456.7,168.19,456.4Z"/><path class="cls-5" d="M87.75,445.44c-.67-.61-1.33-1.25-2-1.88C86.42,444.19,87.08,444.83,87.75,445.44Z"/><path class="cls-5" d="M90.46,447.76c-.6-.49-1.19-1-1.77-1.51C89.27,446.76,89.86,447.27,90.46,447.76Z"/><path class="cls-5" d="M96.22,452c-.58-.39-1.15-.79-1.72-1.19C95.07,451.22,95.64,451.62,96.22,452Z"/><path class="cls-5" d="M99.25,453.91c-.58-.34-1.16-.71-1.74-1.07C98.09,453.2,98.67,453.57,99.25,453.91Z"/><path class="cls-5" d="M64,392a71.73,71.73,0,0,0,18.67,48.37V432a24,24,0,0,1,24-24H136v-8a32,32,0,0,1,0-64V320A72,72,0,0,0,64,392Z"/><path class="cls-5" d="M85.16,443c-.85-.85-1.68-1.71-2.48-2.6C83.48,441.27,84.31,442.13,85.16,443Z"/><path class="cls-5" d="M168,368a32,32,0,0,1-32,32v8h29.33a24,24,0,0,1,24,24v8.37c-.81.89-1.64,1.77-2.5,2.62A72,72,0,0,0,136,320v16A32,32,0,0,1,168,368Z"/><path class="cls-5" d="M93.29,450c-.59-.43-1.16-.87-1.73-1.32C92.13,449.08,92.7,449.52,93.29,450Z"/><path class="cls-5" d="M102.39,455.67c-.59-.31-1.18-.64-1.77-1C101.21,455,101.8,455.36,102.39,455.67Z"/><path class="cls-5" d="M105.63,457.28c-.61-.28-1.21-.58-1.81-.88C104.42,456.7,105,457,105.63,457.28Z"/><polygon class="cls-11" points="82.67 440.37 82.68 440.38 82.67 440.37 82.67 440.37"/><path class="cls-11" d="M103.82,456.4c-.48-.23-1-.48-1.43-.73C102.86,455.92,103.34,456.17,103.82,456.4Z"/><path class="cls-11" d="M113.91,460.53c-.52-.16-1-.34-1.55-.52C112.88,460.19,113.39,460.37,113.91,460.53Z"/><path class="cls-11" d="M159.64,460c-.52.18-1,.36-1.55.52C158.61,460.37,159.12,460.19,159.64,460Z"/><path class="cls-11" d="M163.05,458.73l-1.52.59Z"/><path class="cls-11" d="M169.61,455.68l-1.42.72Z"/><path class="cls-11" d="M85.76,443.56c-.19-.2-.4-.38-.6-.58C85.36,443.18,85.57,443.36,85.76,443.56Z"/><path class="cls-11" d="M166.37,457.28c-.48.23-1,.45-1.47.67Z"/><path class="cls-11" d="M181.53,447.77c-.35.29-.71.56-1.07.84C180.82,448.33,181.18,448.06,181.53,447.77Z"/><path class="cls-11" d="M178.71,450c-.39.29-.79.56-1.19.85C177.92,450.52,178.32,450.25,178.71,450Z"/><path class="cls-11" d="M172.74,453.92l-1.36.78Z"/><path class="cls-11" d="M184.24,445.44c-.29.27-.59.51-.89.77C183.65,446,184,445.71,184.24,445.44Z"/><path class="cls-11" d="M100.62,454.7l-1.37-.79Z"/><path class="cls-11" d="M186.83,443l-.49.47Z"/><path class="cls-11" d="M175.78,452l-1.29.82Z"/><path class="cls-11" d="M117.43,461.57l-1.57-.44Z"/><path class="cls-11" d="M107.1,458c-.49-.22-1-.44-1.47-.67C106.11,457.51,106.61,457.73,107.1,458Z"/><path class="cls-11" d="M94.5,450.82c-.41-.29-.82-.57-1.21-.87C93.68,450.25,94.09,450.53,94.5,450.82Z"/><path class="cls-11" d="M97.51,452.84,96.22,452Z"/><path class="cls-11" d="M141.09,463.8c-.42,0-.84.08-1.26.1C140.25,463.88,140.67,463.83,141.09,463.8Z"/><path class="cls-11" d="M132.17,463.9c-.42,0-.84-.07-1.26-.1C131.33,463.83,131.75,463.88,132.17,463.9Z"/><path class="cls-11" d="M124.68,463.11l-1.55-.28Z"/><path class="cls-11" d="M128.4,463.6c-.5-.05-1-.13-1.48-.19C127.41,463.47,127.9,463.55,128.4,463.6Z"/><path class="cls-11" d="M121,462.43l-1.57-.36Z"/><path class="cls-11" d="M148.87,462.83l-1.55.28Z"/><path class="cls-11" d="M110.47,459.32l-1.52-.59Z"/><path class="cls-11" d="M88.69,446.25l-.94-.81Z"/><path class="cls-11" d="M156.14,461.13l-1.57.44Z"/><path class="cls-11" d="M152.55,462.07l-1.57.36Z"/><path class="cls-11" d="M91.56,448.63c-.36-.29-.74-.57-1.1-.87C90.82,448.06,91.2,448.34,91.56,448.63Z"/><path class="cls-11" d="M145.08,463.41c-.49.06-1,.14-1.48.19C144.1,463.55,144.59,463.47,145.08,463.41Z"/><path class="cls-8" d="M112,408h-5.33a24,24,0,0,0-24,24v8.37h0c.8.89,1.63,1.75,2.48,2.6.2.2.41.38.6.58.66.63,1.32,1.27,2,1.88l.94.81c.58.51,1.17,1,1.77,1.51.36.3.74.58,1.1.87.57.45,1.14.89,1.73,1.32.39.3.8.58,1.21.87.57.4,1.14.8,1.72,1.19l1.29.83c.58.36,1.16.73,1.74,1.07l1.37.79c.59.33,1.18.66,1.77,1s1,.5,1.43.73,1.2.6,1.81.88,1,.45,1.47.67,1.23.52,1.85.78l1.52.59c.62.24,1.26.47,1.89.69s1,.36,1.55.52,1.3.4,2,.6l1.57.44c.67.18,1.35.34,2,.5l1.57.36c.7.15,1.4.27,2.11.4l1.55.28c.74.11,1.49.21,2.24.3.49.06,1,.14,1.48.19.83.09,1.67.14,2.51.2.42,0,.84.08,1.26.1,1.27.06,2.55.1,3.83.1V408Z"/><path class="cls-11" d="M189.33,432a24,24,0,0,0-24-24H136v56c1.28,0,2.56,0,3.83-.1.42,0,.84-.07,1.26-.1.84-.06,1.68-.11,2.51-.2.5-.05,1-.13,1.48-.19.75-.09,1.5-.19,2.24-.3l1.55-.28c.71-.13,1.41-.25,2.11-.4l1.57-.36c.67-.16,1.35-.32,2-.5l1.57-.44q1-.28,2-.6c.52-.16,1-.34,1.55-.52s1.27-.45,1.89-.69l1.52-.59c.62-.26,1.24-.51,1.85-.78s1-.44,1.47-.67,1.22-.58,1.82-.88l1.42-.72,1.77-1,1.36-.78c.59-.35,1.17-.72,1.75-1.09l1.29-.82c.59-.39,1.16-.8,1.74-1.2.4-.29.8-.56,1.19-.85.59-.44,1.17-.89,1.75-1.35.36-.28.72-.55,1.07-.84.62-.51,1.22-1,1.82-1.56.3-.26.6-.5.89-.77.71-.64,1.41-1.31,2.1-2l.49-.47c.86-.85,1.69-1.73,2.5-2.62Z"/><path class="cls-9" d="M104,368a32,32,0,0,0,32,32V336A32,32,0,0,0,104,368Z"/><path class="cls-10" d="M168,368a32,32,0,0,0-32-32v64A32,32,0,0,0,168,368Z"/><path class="cls-7" d="M372.17,463.9c-.42,0-.84-.07-1.26-.1-.84-.06-1.68-.11-2.51-.2-.5-.05-1-.13-1.48-.19-.75-.09-1.5-.19-2.24-.3l-1.55-.28c-.71-.13-1.41-.25-2.11-.4l-1.57-.36c-.67-.16-1.35-.32-2-.5l-1.57-.44c-.65-.2-1.3-.39-1.95-.6s-1-.34-1.55-.52-1.27-.45-1.89-.69l-1.52-.59c-.62-.26-1.24-.51-1.85-.78s-1-.44-1.47-.67-1.21-.58-1.81-.88-1-.48-1.43-.73-1.18-.64-1.77-1l-1.37-.78-1.74-1.08-1.29-.83-1.73-1.19c-.4-.29-.81-.57-1.2-.86-.59-.44-1.16-.88-1.73-1.33-.37-.29-.74-.57-1.1-.87-.6-.49-1.18-1-1.77-1.51l-.94-.81c-.67-.61-1.33-1.25-2-1.88l-.61-.58c-.85-.85-1.68-1.71-2.48-2.6h0A72,72,0,0,1,376,320V288a104.23,104.23,0,0,0-24.71,3c-1.35.33-2.69.68-4,1.06s-2.66.8-4,1.24c-.89.29-1.78.6-2.66.91-1.37.5-2.72,1-4.06,1.57q-4.05,1.67-7.92,3.64l-.26.14A104.29,104.29,0,0,0,276.69,361c-.31,1-.59,2-.87,3q-.54,1.9-1,3.84c-.13.52-.24,1-.36,1.55-.23,1-.44,2.07-.64,3.12q-.22,1.19-.42,2.37c-.38,2.3-.69,4.61-.91,6.95-.15,1.54-.27,3.08-.35,4.64q-.07,1.41-.12,2.85c0,.89,0,1.78,0,2.68A104,104,0,0,0,376,496V464C374.72,464,373.44,464,372.17,463.9Z"/><path class="cls-11" d="M480,389.32q0-1.44-.12-2.85c-.08-1.56-.2-3.1-.35-4.64-.22-2.34-.53-4.65-.91-6.95q-.19-1.19-.42-2.37c-.2-1.05-.41-2.09-.64-3.12-.12-.52-.23-1-.36-1.55q-.45-1.93-1-3.84c-.28-1-.56-2-.87-3a104.29,104.29,0,0,0-51.7-61.51l-.26-.14q-3.87-2-7.92-3.64c-1.34-.55-2.69-1.07-4.06-1.57-.88-.31-1.77-.62-2.66-.91-1.31-.44-2.64-.85-4-1.24s-2.68-.73-4-1.06A104.23,104.23,0,0,0,376,288v32a72,72,0,0,1,50.83,123l-.49.47c-.69.67-1.39,1.34-2.1,2-.29.27-.59.51-.89.77-.6.53-1.2,1.05-1.82,1.56-.35.29-.71.56-1.07.84-.58.46-1.16.91-1.75,1.35-.39.29-.79.56-1.19.85-.58.4-1.15.81-1.74,1.2l-1.29.82c-.58.37-1.16.74-1.75,1.09l-1.36.78-1.77,1-1.42.72c-.6.3-1.21.6-1.82.88l-1.47.67c-.61.27-1.23.52-1.85.78l-1.52.59c-.62.24-1.26.47-1.89.69s-1,.36-1.55.52-1.3.4-1.95.6l-1.57.44c-.67.18-1.35.34-2,.5l-1.57.36c-.7.15-1.4.27-2.11.4l-1.55.28c-.74.11-1.49.21-2.24.3-.49.06-1,.14-1.48.19-.83.09-1.67.14-2.51.2-.42,0-.84.08-1.26.1-1.27.06-2.55.1-3.83.1v32A104,104,0,0,0,480,392C480,391.1,480,390.21,480,389.32Z"/><path class="cls-5" d="M349,458.73c-.62-.26-1.24-.51-1.85-.78C347.71,458.22,348.33,458.47,349,458.73Z"/><path class="cls-5" d="M379.83,463.9c-1.27.06-2.55.1-3.83.1C377.28,464,378.56,464,379.83,463.9Z"/><path class="cls-5" d="M370.91,463.8c-.84-.06-1.68-.11-2.51-.2C369.23,463.69,370.07,463.74,370.91,463.8Z"/><path class="cls-5" d="M387.32,463.11c-.74.11-1.49.21-2.24.3C385.83,463.32,386.58,463.22,387.32,463.11Z"/><path class="cls-5" d="M383.6,463.6c-.83.09-1.67.14-2.51.2C381.93,463.74,382.77,463.69,383.6,463.6Z"/><path class="cls-5" d="M363.13,462.83c-.71-.13-1.41-.25-2.11-.4C361.72,462.58,362.42,462.7,363.13,462.83Z"/><path class="cls-5" d="M366.92,463.41c-.75-.09-1.5-.19-2.24-.3C365.42,463.22,366.17,463.32,366.92,463.41Z"/><path class="cls-5" d="M355.86,461.13c-.65-.2-1.3-.39-1.95-.6C354.56,460.74,355.21,460.93,355.86,461.13Z"/><path class="cls-5" d="M352.36,460c-.63-.22-1.27-.45-1.89-.69C351.09,459.56,351.73,459.79,352.36,460Z"/><path class="cls-5" d="M391,462.43c-.7.15-1.4.27-2.11.4C389.58,462.7,390.28,462.58,391,462.43Z"/><path class="cls-5" d="M359.45,462.07c-.67-.16-1.35-.32-2-.5C358.1,461.75,358.78,461.91,359.45,462.07Z"/><path class="cls-5" d="M376,464c-1.28,0-2.56,0-3.83-.1C373.44,464,374.72,464,376,464Z"/><path class="cls-5" d="M420.46,448.61c-.58.46-1.16.91-1.75,1.35C419.3,449.52,419.88,449.07,420.46,448.61Z"/><path class="cls-5" d="M414.49,452.83c-.58.37-1.16.74-1.75,1.09C413.33,453.57,413.91,453.2,414.49,452.83Z"/><path class="cls-5" d="M417.52,450.81c-.58.4-1.15.81-1.74,1.2C416.37,451.62,416.94,451.21,417.52,450.81Z"/><path class="cls-5" d="M423.35,446.21c-.6.53-1.2,1.05-1.82,1.56C422.15,447.26,422.75,446.74,423.35,446.21Z"/><path class="cls-5" d="M426.34,443.46c-.69.67-1.39,1.34-2.1,2C425,444.8,425.65,444.13,426.34,443.46Z"/><path class="cls-5" d="M411.38,454.7l-1.77,1Z"/><path class="cls-5" d="M401.53,459.32c-.62.24-1.26.47-1.89.69C400.27,459.79,400.91,459.56,401.53,459.32Z"/><path class="cls-5" d="M398.09,460.53q-1,.32-1.95.6C396.79,460.93,397.44,460.74,398.09,460.53Z"/><path class="cls-5" d="M394.57,461.57c-.67.18-1.35.34-2,.5C393.22,461.91,393.9,461.75,394.57,461.57Z"/><path class="cls-5" d="M404.9,458c-.61.27-1.23.52-1.85.78C403.67,458.47,404.29,458.22,404.9,458Z"/><path class="cls-5" d="M408.19,456.4c-.6.3-1.21.6-1.82.88C407,457,407.59,456.7,408.19,456.4Z"/><path class="cls-5" d="M327.75,445.44c-.67-.61-1.33-1.25-2-1.88C326.42,444.19,327.08,444.83,327.75,445.44Z"/><path class="cls-5" d="M336.22,452l-1.73-1.19Z"/><path class="cls-5" d="M342.39,455.67c-.59-.31-1.18-.64-1.77-1C341.21,455,341.8,455.36,342.39,455.67Z"/><path class="cls-5" d="M339.25,453.92l-1.74-1.08Z"/><path class="cls-5" d="M330.46,447.76c-.6-.49-1.18-1-1.77-1.51C329.28,446.76,329.86,447.27,330.46,447.76Z"/><path class="cls-5" d="M333.29,450c-.59-.44-1.16-.88-1.73-1.33C332.13,449.08,332.7,449.52,333.29,450Z"/><path class="cls-5" d="M325.16,443c-.85-.85-1.68-1.71-2.48-2.6C323.48,441.27,324.31,442.13,325.16,443Z"/><path class="cls-5" d="M345.63,457.28c-.61-.28-1.21-.58-1.81-.88C344.42,456.7,345,457,345.63,457.28Z"/><path class="cls-5" d="M304,392a71.73,71.73,0,0,0,18.67,48.37V432a24,24,0,0,1,24-24H376v-8a32,32,0,0,1,0-64V320A72,72,0,0,0,304,392Z"/><path class="cls-5" d="M408,368a32,32,0,0,1-32,32v8h29.33a24,24,0,0,1,24,24v8.37c-.81.89-1.64,1.77-2.5,2.62A72,72,0,0,0,376,320v16A32,32,0,0,1,408,368Z"/><path class="cls-11" d="M396.14,461.13l-1.57.44Z"/><path class="cls-11" d="M403.05,458.73l-1.52.59Z"/><path class="cls-11" d="M325.77,443.56l-.61-.58Z"/><path class="cls-11" d="M399.64,460c-.52.18-1,.36-1.55.52C398.61,460.37,399.12,460.19,399.64,460Z"/><path class="cls-11" d="M426.83,443l-.49.47Z"/><path class="cls-11" d="M328.69,446.25l-.94-.81Z"/><path class="cls-11" d="M409.61,455.68l-1.42.72Z"/><path class="cls-11" d="M406.37,457.28c-.48.23-1,.45-1.47.67Z"/><path class="cls-11" d="M418.71,450c-.39.29-.79.56-1.19.85C417.92,450.52,418.32,450.25,418.71,450Z"/><path class="cls-11" d="M412.74,453.92l-1.36.78Z"/><path class="cls-11" d="M350.47,459.32l-1.52-.59Z"/><path class="cls-11" d="M424.24,445.44c-.29.27-.59.51-.89.77C423.65,446,424,445.71,424.24,445.44Z"/><polygon class="cls-11" points="322.67 440.37 322.68 440.38 322.67 440.37 322.67 440.37"/><path class="cls-11" d="M421.53,447.77c-.35.29-.71.56-1.07.84C420.82,448.33,421.18,448.06,421.53,447.77Z"/><path class="cls-11" d="M415.78,452l-1.29.82Z"/><path class="cls-11" d="M361,462.43l-1.57-.36Z"/><path class="cls-11" d="M392.55,462.07l-1.57.36Z"/><path class="cls-11" d="M340.62,454.7l-1.37-.78Z"/><path class="cls-11" d="M343.82,456.4c-.48-.23-1-.48-1.43-.73C342.86,455.92,343.34,456.17,343.82,456.4Z"/><path class="cls-11" d="M347.1,458c-.49-.22-1-.44-1.47-.67C346.11,457.51,346.61,457.73,347.1,458Z"/><path class="cls-11" d="M368.4,463.6c-.5-.05-1-.13-1.48-.19C367.41,463.47,367.9,463.55,368.4,463.6Z"/><path class="cls-11" d="M353.91,460.53c-.52-.16-1-.34-1.55-.52C352.88,460.19,353.39,460.37,353.91,460.53Z"/><path class="cls-11" d="M357.43,461.57l-1.57-.44Z"/><path class="cls-11" d="M364.68,463.11l-1.55-.28Z"/><path class="cls-11" d="M381.09,463.8c-.42,0-.84.08-1.26.1C380.25,463.88,380.67,463.83,381.09,463.8Z"/><path class="cls-11" d="M337.51,452.84l-1.29-.83Z"/><path class="cls-11" d="M334.49,450.82c-.4-.29-.81-.57-1.2-.86C333.68,450.25,334.09,450.53,334.49,450.82Z"/><path class="cls-11" d="M388.87,462.83l-1.55.28Z"/><path class="cls-11" d="M385.08,463.41c-.49.06-1,.14-1.48.19C384.1,463.55,384.59,463.47,385.08,463.41Z"/><path class="cls-11" d="M331.56,448.63c-.37-.29-.74-.57-1.1-.87C330.82,448.06,331.19,448.34,331.56,448.63Z"/><path class="cls-11" d="M372.17,463.9c-.42,0-.84-.07-1.26-.1C371.33,463.83,371.75,463.88,372.17,463.9Z"/><path class="cls-8" d="M352,408h-5.33a24,24,0,0,0-24,24v8.37h0c.8.89,1.63,1.75,2.48,2.6l.61.58c.65.63,1.31,1.27,2,1.88l.94.81c.59.51,1.17,1,1.77,1.51.36.3.73.58,1.1.87.57.45,1.14.89,1.73,1.33.39.29.8.57,1.2.86l1.73,1.19,1.29.83,1.74,1.08,1.37.78c.59.33,1.18.66,1.77,1s.95.5,1.43.73,1.2.6,1.81.88,1,.45,1.47.67,1.23.52,1.85.78l1.52.59c.62.24,1.26.47,1.89.69s1,.36,1.55.52,1.3.4,1.95.6l1.57.44c.67.18,1.35.34,2,.5l1.57.36c.7.15,1.4.27,2.11.4l1.55.28c.74.11,1.49.21,2.24.3.49.06,1,.14,1.48.19.83.09,1.67.14,2.51.2.42,0,.84.08,1.26.1,1.27.06,2.55.1,3.83.1V408Z"/><path class="cls-11" d="M429.33,432a24,24,0,0,0-24-24H376v56c1.28,0,2.56,0,3.83-.1.42,0,.84-.07,1.26-.1.84-.06,1.68-.11,2.51-.2.5-.05,1-.13,1.48-.19.75-.09,1.5-.19,2.24-.3l1.55-.28c.71-.13,1.41-.25,2.11-.4l1.57-.36c.67-.16,1.35-.32,2-.5l1.57-.44q1-.28,1.95-.6c.52-.16,1-.34,1.55-.52s1.27-.45,1.89-.69l1.52-.59c.62-.26,1.24-.51,1.85-.78s1-.44,1.47-.67,1.22-.58,1.82-.88l1.42-.72,1.77-1,1.36-.78c.59-.35,1.17-.72,1.75-1.09l1.29-.82c.59-.39,1.16-.8,1.74-1.2.4-.29.8-.56,1.19-.85.59-.44,1.17-.89,1.75-1.35.36-.28.72-.55,1.07-.84.62-.51,1.22-1,1.82-1.56.3-.26.6-.5.89-.77.71-.64,1.41-1.31,2.1-2l.49-.47c.86-.85,1.69-1.73,2.5-2.62Z"/><path class="cls-9" d="M344,368a32,32,0,0,0,32,32V336A32,32,0,0,0,344,368Z"/><path class="cls-10" d="M408,368a32,32,0,0,0-32-32v64A32,32,0,0,0,408,368Z"/></svg>