<svg width="512" height="512" viewBox="0 0 512 512" fill="none" xmlns="http://www.w3.org/2000/svg">
<path d="M20.9423 14C18.2127 14 16 16.1285 16 18.754V296.305C16 298.931 18.2127 301.059 20.9423 301.059H175.87V241.123L238.999 237.969L239 237.969V18.754C239 16.1285 236.787 14 234.058 14H20.9423Z" fill="#9BAAAB"/>
<path d="M16 18.4853C16 16.0081 18.0963 14 20.6823 14H127.963V301.059H20.6823C18.0963 301.059 16 299.051 16 296.574V18.4853Z" fill="#365558"/>
<rect x="84.4746" y="62.1396" width="138.797" height="11.5894" fill="#E6EAEA"/>
<path fill-rule="evenodd" clip-rule="evenodd" d="M81.3567 53.8322L48.8276 84.9176L31.9102 72.6772L40.8006 61.2715L47.4864 66.109L70.9308 43.7051L81.3567 53.8322Z" fill="#BCD643"/>
<path fill-rule="evenodd" clip-rule="evenodd" d="M40.0566 109.527C40.0566 105.02 43.8761 101.367 48.5876 101.367H206.409C211.121 101.367 214.94 105.02 214.94 109.527V253.676C214.94 258.182 211.121 261.835 206.409 261.835H48.5876C43.8761 261.835 40.0566 258.182 40.0566 253.676V109.527ZM47.1657 134.005H207.831V255.376H47.1657V134.005ZM207.831 112.246H196.457V123.126H207.831V112.246ZM177.973 112.246H189.348V123.126H177.973V112.246ZM170.864 112.246H159.489V123.126H170.864V112.246Z" fill="#0295AA"/>
<path fill-rule="evenodd" clip-rule="evenodd" d="M127.387 262.151H206.185C210.89 262.151 214.704 258.476 214.704 253.943V108.941C214.704 104.408 210.89 100.733 206.185 100.733H127.387V133.564H207.605V255.653H127.387V262.151ZM196.246 111.677H207.605V122.621H196.246V111.677ZM189.147 111.677H177.788V122.621H189.147V111.677ZM159.33 111.677H170.689V122.621H159.33V111.677Z" fill="#E6EAEA"/>
<path fill-rule="evenodd" clip-rule="evenodd" d="M70.4773 139.606L119.627 164.401L153.75 147.11L171.622 156.943L196.615 145.444L206.948 151.766L199.599 162.917L199.967 163.66L198.736 164.227L197.028 166.817L195.345 165.787L170.856 177.054L153.384 167.441L119.646 184.537L73.3677 161.191L59.2457 173.588L46.7812 160.409L70.4773 139.606Z" fill="#BCD643"/>
<path fill-rule="evenodd" clip-rule="evenodd" d="M58.3061 221.627L47.4798 213.846L55.0066 204.125L54.4936 203.244L56.5488 202.133L58.5449 199.555L59.7356 200.41L84.1941 187.191L103.181 199.463L149.21 188.43L182.112 197.199L197.873 189.661L206.102 205.632L184 216.202L148.961 206.863L99.686 218.674L83.3292 208.102L58.3061 221.627Z" fill="#BCD643"/>
<path fill-rule="evenodd" clip-rule="evenodd" d="M120.811 254.901L87.6638 251.108L65.4257 245.904L57.478 250.125L48.5436 234.511L62.7967 226.941L90.9509 233.529L118.416 236.672L149.349 225.112L188.3 228.923L204.258 236.574L196.012 252.537L183.074 246.333L151.899 243.283L120.811 254.901Z" fill="#F0353D"/>
<path d="M173.305 243.765V301.06L175.8 300.269L238.17 240.929L239.002 237.765H179.305C175.991 237.765 173.305 240.451 173.305 243.765Z" fill="#4ACFD9"/>
<rect x="152.945" y="105.823" width="58.2946" height="25.8532" fill="#E6EAEA"/>
<mask id="path-12-outside-1" maskUnits="userSpaceOnUse" x="194" y="182" width="309" height="316" fill="black">
<rect fill="white" x="194" y="182" width="309" height="316"/>
<path fill-rule="evenodd" clip-rule="evenodd" d="M331.802 270.006H365.412C369.955 265.612 372.779 259.451 372.779 252.632C372.779 239.282 361.957 228.46 348.607 228.46C335.257 228.46 324.435 239.282 324.435 252.632C324.435 259.451 327.259 265.612 331.802 270.006ZM297.852 270.006C295.987 264.557 294.975 258.713 294.975 252.632C294.975 223.012 318.987 199 348.607 199C378.227 199 402.239 223.012 402.239 252.632C402.239 258.713 401.227 264.557 399.362 270.006H442.707C459.489 270.006 473.42 282.971 474.624 299.71L485.128 445.705C486.461 464.234 471.788 480.001 453.21 480.001H244.002C225.424 480.001 210.751 464.234 212.084 445.705L222.587 299.71C223.792 282.971 237.723 270.006 254.505 270.006H297.852Z"/>
</mask>
<path fill-rule="evenodd" clip-rule="evenodd" d="M331.802 270.006H365.412C369.955 265.612 372.779 259.451 372.779 252.632C372.779 239.282 361.957 228.46 348.607 228.46C335.257 228.46 324.435 239.282 324.435 252.632C324.435 259.451 327.259 265.612 331.802 270.006ZM297.852 270.006C295.987 264.557 294.975 258.713 294.975 252.632C294.975 223.012 318.987 199 348.607 199C378.227 199 402.239 223.012 402.239 252.632C402.239 258.713 401.227 264.557 399.362 270.006H442.707C459.489 270.006 473.42 282.971 474.624 299.71L485.128 445.705C486.461 464.234 471.788 480.001 453.21 480.001H244.002C225.424 480.001 210.751 464.234 212.084 445.705L222.587 299.71C223.792 282.971 237.723 270.006 254.505 270.006H297.852Z" fill="#9BAAAB"/>
<path d="M331.802 270.006L319.982 282.225L324.925 287.006H331.802V270.006ZM365.412 270.006V287.006H372.289L377.232 282.225L365.412 270.006ZM297.852 270.006V287.006H321.638L313.936 264.502L297.852 270.006ZM399.362 270.006L383.278 264.502L375.576 287.006H399.362V270.006ZM474.624 299.71L491.581 298.49V298.49L474.624 299.71ZM485.128 445.705L468.171 446.924V446.924L485.128 445.705ZM212.084 445.705L195.128 444.485L212.084 445.705ZM222.587 299.71L205.631 298.49L222.587 299.71ZM331.802 287.006H365.412V253.006H331.802V287.006ZM377.232 282.225C384.948 274.76 389.779 264.245 389.779 252.632H355.779C355.779 254.658 354.961 256.464 353.592 257.788L377.232 282.225ZM389.779 252.632C389.779 229.893 371.346 211.46 348.607 211.46V245.46C352.568 245.46 355.779 248.671 355.779 252.632H389.779ZM348.607 211.46C325.868 211.46 307.435 229.893 307.435 252.632H341.435C341.435 248.671 344.646 245.46 348.607 245.46V211.46ZM307.435 252.632C307.435 264.245 312.265 274.76 319.982 282.225L343.622 257.788C342.253 256.464 341.435 254.658 341.435 252.632H307.435ZM277.975 252.632C277.975 260.61 279.305 268.314 281.768 275.511L313.936 264.502C312.67 260.801 311.975 256.815 311.975 252.632H277.975ZM348.607 182C309.598 182 277.975 213.623 277.975 252.632H311.975C311.975 232.401 328.376 216 348.607 216V182ZM419.239 252.632C419.239 213.623 387.616 182 348.607 182V216C368.838 216 385.239 232.401 385.239 252.632H419.239ZM415.446 275.511C417.909 268.314 419.239 260.61 419.239 252.632H385.239C385.239 256.815 384.544 260.801 383.278 264.502L415.446 275.511ZM399.362 287.006H442.707V253.006H399.362V287.006ZM442.707 287.006C450.574 287.006 457.104 293.084 457.668 300.93L491.581 298.49C489.737 272.859 468.405 253.006 442.707 253.006V287.006ZM457.668 300.93L468.171 446.924L502.084 444.485L491.581 298.49L457.668 300.93ZM468.171 446.924C468.796 455.61 461.918 463.001 453.21 463.001V497.001C481.657 497.001 504.125 472.858 502.084 444.485L468.171 446.924ZM453.21 463.001H244.002V497.001H453.21V463.001ZM244.002 463.001C235.293 463.001 228.415 455.61 229.04 446.924L195.128 444.485C193.087 472.858 215.555 497.001 244.002 497.001V463.001ZM229.04 446.924L239.544 300.93L205.631 298.49L195.128 444.485L229.04 446.924ZM239.544 300.93C240.108 293.084 246.638 287.006 254.505 287.006V253.006C228.807 253.006 207.475 272.859 205.631 298.49L239.544 300.93ZM254.505 287.006H297.852V253.006H254.505V287.006Z" fill="#2E2E2E" mask="url(#path-12-outside-1)"/>
<path fill-rule="evenodd" clip-rule="evenodd" d="M348.895 199.001C348.799 199 348.703 199 348.607 199C318.987 199 294.975 223.012 294.975 252.632C294.975 258.713 295.987 264.557 297.852 270.006H254.505C237.723 270.006 223.792 282.971 222.587 299.71L212.084 445.705C210.751 464.234 225.424 480.001 244.002 480.001H348.895V270.006H331.802C327.259 265.612 324.435 259.451 324.435 252.632C324.435 239.282 335.257 228.46 348.607 228.46C348.703 228.46 348.799 228.46 348.895 228.461V199.001Z" fill="#FD6A33"/>
<path fill-rule="evenodd" clip-rule="evenodd" d="M348.894 199.002C348.991 199.001 349.087 199.001 349.184 199.001C378.804 199.001 402.816 223.013 402.816 252.633C402.816 258.714 401.804 264.558 399.939 270.007H443.286C460.068 270.007 473.999 282.972 475.204 299.711L485.707 445.706C487.04 464.235 472.367 480.002 453.789 480.002H348.894V270.007H365.989C370.532 265.613 373.356 259.452 373.356 252.633C373.356 239.283 362.534 228.461 349.184 228.461C349.087 228.461 348.991 228.461 348.894 228.462V199.002Z" fill="#CDD4D5"/>
<mask id="path-16-outside-2" maskUnits="userSpaceOnUse" x="235.547" y="286.149" width="227.111" height="189.544" fill="black">
<rect fill="white" x="235.547" y="286.149" width="227.111" height="189.544"/>
<path fill-rule="evenodd" clip-rule="evenodd" d="M332.541 415.736L280.341 377.561L269.432 392.476L321.633 430.652L321.633 430.652L336.549 441.561L336.549 441.56L336.553 441.563L347.461 426.648L347.457 426.645L422.327 324.269L407.411 313.361L332.541 415.736Z"/>
</mask>
<path fill-rule="evenodd" clip-rule="evenodd" d="M332.541 415.736L280.341 377.561L269.432 392.476L321.633 430.652L321.633 430.652L336.549 441.561L336.549 441.56L336.553 441.563L347.461 426.648L347.457 426.645L422.327 324.269L407.411 313.361L332.541 415.736Z" fill="#E6EAEA"/>
<path d="M280.341 377.561L268.233 368.706L277.088 356.598L289.195 365.453L280.341 377.561ZM332.541 415.736L344.649 424.591L335.794 436.699L323.687 427.844L332.541 415.736ZM269.432 392.476L260.578 404.584L248.47 395.729L257.325 383.622L269.432 392.476ZM321.633 430.652L330.488 418.544L342.574 427.383L333.757 439.485L321.633 430.652ZM321.633 430.652L312.778 442.76L300.692 433.921L309.51 421.819L321.633 430.652ZM336.549 441.561L348.672 450.393L339.824 462.539L327.694 453.668L336.549 441.561ZM336.549 441.56L324.425 432.727L333.273 420.584L345.402 429.451L336.549 441.56ZM336.553 441.563L348.661 450.418L339.807 462.524L327.7 453.672L336.553 441.563ZM347.461 426.648L356.309 414.535L368.428 423.388L359.569 435.502L347.461 426.648ZM347.457 426.645L338.609 438.757L326.49 429.904L335.349 417.79L347.457 426.645ZM422.327 324.269L431.181 312.161L443.289 321.016L434.435 333.124L422.327 324.269ZM407.411 313.361L395.304 304.506L404.158 292.398L416.266 301.253L407.411 313.361ZM289.195 365.453L341.396 403.629L323.687 427.844L271.486 389.668L289.195 365.453ZM257.325 383.622L268.233 368.706L292.448 386.415L281.54 401.331L257.325 383.622ZM312.779 442.76L260.578 404.584L278.287 380.369L330.488 418.544L312.779 442.76ZM309.51 421.819L309.51 421.819L333.757 439.485L333.756 439.485L309.51 421.819ZM327.694 453.668L312.778 442.76L330.488 418.545L345.403 429.453L327.694 453.668ZM348.672 450.393L348.672 450.393L324.425 432.728L324.425 432.727L348.672 450.393ZM327.7 453.672L327.696 453.669L345.402 429.451L345.406 429.454L327.7 453.672ZM359.569 435.502L348.661 450.418L324.445 432.709L335.354 417.793L359.569 435.502ZM356.305 414.532L356.309 414.535L338.613 438.76L338.609 438.757L356.305 414.532ZM434.435 333.124L359.565 435.499L335.349 417.79L410.219 315.414L434.435 333.124ZM416.266 301.253L431.181 312.161L413.472 336.377L398.557 325.468L416.266 301.253ZM320.434 406.882L395.304 304.506L419.519 322.215L344.649 424.591L320.434 406.882Z" fill="#2E2E2E" mask="url(#path-16-outside-2)"/>
</svg>
