<svg width="512" height="512" viewBox="0 0 512 512" fill="none" xmlns="http://www.w3.org/2000/svg">
<path d="M83.0332 13.9707C78.6149 13.9707 75.0332 17.5524 75.0332 21.9707V489.03C75.0332 493.448 78.6149 497.03 83.0332 497.03H333.813V396.17L435.999 390.862L436 390.862V21.9707C436 17.5524 432.419 13.9707 428 13.9707H83.0332Z" fill="#E6EAEA"/>
<path d="M75 21.5469C75 17.3789 78.3889 14 82.5694 14H256V497H82.5694C78.3889 497 75 493.621 75 489.453V21.5469Z" fill="#9BAAAB"/>
<rect x="186" y="95" width="225" height="20" fill="#365558"/>
<path d="M108 103.313L127.28 118L173 72" stroke="#BCD643" stroke-width="16"/>
<path fill-rule="evenodd" clip-rule="evenodd" d="M114 174.276C114 166.665 120.181 160.496 127.805 160.496H383.195C390.819 160.496 397 166.665 397 174.276V417.716C397 425.327 390.819 431.496 383.195 431.496H127.805C120.181 431.496 114 425.327 114 417.716V174.276ZM125.504 215.615H385.496V420.587H125.504V215.615ZM385.496 178.869H367.089V197.242H385.496V178.869ZM337.179 178.869H355.585V197.242H337.179V178.869ZM325.675 178.869H307.268V197.242H325.675V178.869Z" fill="#0295AA"/>
<path fill-rule="evenodd" clip-rule="evenodd" d="M255.5 431.496H383.195C390.819 431.496 397 425.315 397 417.691V173.805C397 166.181 390.819 160 383.195 160H255.5V215.22H385.496V420.567H255.5V431.496ZM367.089 178.407H385.496V196.813H367.089V178.407ZM355.585 178.407H337.179V196.813H355.585V178.407ZM307.268 178.407H325.675V196.813H307.268V178.407Z" fill="#4ACFD9"/>
<path d="M134 271.772L164.716 243.496L242.225 284.496L297.343 255.21L326.05 271.772L366.24 252.383L376 258.644" stroke="#BCD643" stroke-width="20"/>
<path d="M376 322.496L345.247 338.069L290.064 322.496L212.657 342.142L183.95 322.496L143.76 345.496L134 338.069" stroke="#BCD643" stroke-width="20"/>
<path d="M374 401.477L350.431 390.12L293.234 384.496L242.647 403.496L193.21 397.81L152.108 388.144L134 397.81" stroke="#F0353D" stroke-width="20"/>
<path d="M134 225.496H214V231.496H134V225.496Z" fill="#E6EAEA"/>
<path d="M134 299.496H214V305.496H134V299.496Z" fill="#E6EAEA"/>
<path d="M134 372.496H214V378.496H134V372.496Z" fill="#E6EAEA"/>
<path d="M331 396V497L334.987 495.662L434.671 395.35L436 390H337C333.686 390 331 392.686 331 396Z" fill="#4ACFD9"/>
</svg>
