<svg width="512" height="512" viewBox="0 0 512 512" fill="none" xmlns="http://www.w3.org/2000/svg">
<path fill-rule="evenodd" clip-rule="evenodd" d="M27.0273 11C22.6091 11 19.0273 14.5817 19.0273 19V397.029C19.0273 401.448 22.6091 405.029 27.0274 405.029H230.113V322.758L313.465 318.428L313.467 318.428V19C313.467 14.5817 309.885 11 305.467 11H27.0273Z" fill="#0295AA"/>
<path d="M19 17.1855C19 13.7855 21.7523 11.0293 25.1475 11.0293H166V405.029H25.1475C21.7523 405.029 19 402.273 19 398.873V17.1855Z" fill="#365558"/>
<rect x="109" y="77.0293" width="184" height="16" fill="#CDD4D5"/>
<rect x="109" y="130.029" width="184" height="16" fill="#CDD4D5"/>
<rect x="109" y="182.029" width="184" height="17" fill="#CDD4D5"/>
<rect x="109" y="234.029" width="184" height="17" fill="#CDD4D5"/>
<rect x="109" y="286.029" width="184" height="18" fill="#CDD4D5"/>
<rect x="109" y="339.029" width="147" height="17" fill="#CDD4D5"/>
<path d="M228 323.029V405.029L231.228 403.929L311.924 321.429L313 317.029H234C230.686 317.029 228 319.716 228 323.029Z" fill="#4ACFD9"/>
<path d="M46 83.216L61.7203 95.0293L99 58.0293" stroke="#BCD643" stroke-width="16"/>
<path d="M46 135.535L61.7203 147.029L99 111.029" stroke="#BCD643" stroke-width="16"/>
<path d="M46 188.216L61.7203 200.029L99 163.029" stroke="#BCD643" stroke-width="16"/>
<path d="M46 241.216L61.7203 253.029L99 216.029" stroke="#BCD643" stroke-width="16"/>
<path d="M46 293.535L61.7203 305.029L99 269.029" stroke="#BCD643" stroke-width="16"/>
<path d="M46 345.897L61.7203 358.029L99 320.029" stroke="#BCD643" stroke-width="16"/>
<path d="M301.047 296.299C301.047 304.529 294.354 311.2 286.098 311.2H171.949C163.693 311.2 157 317.871 157 326.101V453.099C157 461.329 163.693 468 171.949 468H399.051C407.307 468 414 461.329 414 453.099V286.901C414 278.671 407.307 272 399.051 272H315.995C307.74 272 301.047 278.671 301.047 286.901V296.299Z" fill="#365558"/>
<path fill-rule="evenodd" clip-rule="evenodd" d="M286 468H399.051C407.307 468 414 461.329 414 453.099V286.901C414 278.671 407.307 272 399.051 272H315.995C307.74 272 301.047 278.671 301.047 286.901V296.299C301.047 304.529 294.354 311.2 286.098 311.2H286V468Z" fill="#9BAAAB"/>
<path d="M333.868 497H438V438H373.041H344.868C338.793 438 333.868 442.925 333.868 449C333.868 455.075 338.793 460 344.868 460H377.504V466.5H333.868L281.456 442.78C275.451 440.063 268.363 442.317 265.03 448.003C261.237 454.476 263.755 462.807 270.498 466.095L333.868 497Z" fill="#FFD1A9"/>
<rect x="435" y="434" width="67" height="68" fill="#4ACFD9"/>
<ellipse cx="453" cy="482.5" rx="10" ry="10.5" fill="#365558"/>
</svg>
