<svg width="512" height="512" viewBox="0 0 512 512" fill="none" xmlns="http://www.w3.org/2000/svg">
<g clip-path="url(#clip0)">
<path d="M19.8731 167C16.6295 167 14 169.529 14 172.649V502.475C14 505.595 16.6295 508.125 19.8731 508.125H203.981V436.9L278.999 433.152L279 433.152V172.649C279 169.529 276.371 167 273.127 167H19.8731Z" fill="#9BAAAB"/>
<path d="M14 172.33C14 169.386 16.4911 167 19.5641 167H147.05V508.125H19.5641C16.4911 508.125 14 505.738 14 502.795V172.33Z" fill="#365558"/>
<rect x="95.3691" y="224.207" width="164.938" height="13.7721" fill="#E6EAEA"/>
<path fill-rule="evenodd" clip-rule="evenodd" d="M91.6676 214.333L53.0119 251.273L32.9082 236.728L43.4731 223.174L51.4182 228.922L79.2781 202.299L91.6676 214.333Z" fill="#BCD643"/>
<path fill-rule="evenodd" clip-rule="evenodd" d="M42.5879 280.516C42.5879 275.161 47.1267 270.82 52.7255 270.82H240.272C245.871 270.82 250.409 275.161 250.409 280.516V451.815C250.409 457.17 245.871 461.511 240.272 461.511H52.7255C47.1267 461.511 42.5879 457.17 42.5879 451.815V280.516ZM51.0359 309.605H241.961V453.835H51.0359V309.605ZM241.961 283.749H228.445V296.677H241.961V283.749ZM206.48 283.749H219.997V296.677H206.48V283.749ZM198.032 283.749H184.515V296.677H198.032V283.749Z" fill="#0295AA"/>
<path fill-rule="evenodd" clip-rule="evenodd" d="M146.367 461.887H240.01C245.601 461.887 250.133 457.521 250.133 452.134V279.822C250.133 274.435 245.601 270.068 240.01 270.068H146.367V309.082H241.697V454.166H146.367V461.887ZM228.199 283.073H241.697V296.078H228.199V283.073ZM219.763 283.073H206.264V296.078H219.763V283.073ZM184.33 283.073H197.828V296.078H184.33V283.073Z" fill="#E6EAEA"/>
<path fill-rule="evenodd" clip-rule="evenodd" d="M78.7371 316.263L137.144 345.727L177.694 325.18L198.932 336.865L228.632 323.2L240.911 330.712L232.178 343.964L232.616 344.847L231.152 345.52L229.123 348.599L227.122 347.374L198.022 360.763L177.259 349.34L137.167 369.655L82.1719 341.912L65.3901 356.645L50.5781 340.983L78.7371 316.263Z" fill="#BCD643"/>
<path fill-rule="evenodd" clip-rule="evenodd" d="M64.2747 413.733L51.4093 404.487L60.3538 392.935L59.7441 391.888L62.1865 390.568L64.5585 387.504L65.9734 388.521L95.0385 372.811L117.602 387.395L172.299 374.284L211.398 384.705L230.128 375.747L239.906 394.725L213.642 407.287L172.003 396.189L113.448 410.224L94.0107 397.661L64.2747 413.733Z" fill="#BCD643"/>
<path fill-rule="evenodd" clip-rule="evenodd" d="M138.551 453.274L99.1613 448.766L72.7348 442.583L63.2903 447.599L52.6731 429.044L69.6107 420.048L103.068 427.877L135.705 431.612L172.464 417.874L218.751 422.403L237.715 431.496L227.917 450.464L212.542 443.092L175.495 439.468L138.551 453.274Z" fill="#F0353D"/>
<path d="M200.93 438.907V508.124L203.894 507.184L278.012 436.668L279 432.907H206.93C203.616 432.907 200.93 435.594 200.93 438.907Z" fill="#4ACFD9"/>
<rect x="176.738" y="276.118" width="69.2739" height="30.7224" fill="#E6EAEA"/>
<path fill-rule="evenodd" clip-rule="evenodd" d="M323 306.295C275.114 306.295 236.295 345.115 236.295 393.001C236.295 440.887 275.114 479.707 323 479.707V433.779C323 433.779 323 433.779 322.999 433.779C300.478 433.779 282.22 415.521 282.22 392.999C282.22 370.478 300.478 352.22 322.999 352.22C323 352.22 323 352.22 323 352.22V306.295Z" fill="#BCD643"/>
<path fill-rule="evenodd" clip-rule="evenodd" d="M323 306.295C370.886 306.295 409.705 345.115 409.705 393.001C409.705 440.887 370.886 479.707 323 479.707V433.779C323 433.779 323 433.779 323.001 433.779C345.522 433.779 363.78 415.521 363.78 392.999C363.78 370.478 345.522 352.22 323.001 352.22C323 352.22 323 352.22 323 352.22V306.295Z" fill="#E6EAEA"/>
<path d="M403.082 393C403.082 437.228 367.228 473.082 323 473.082C278.772 473.082 242.918 437.228 242.918 393C242.918 348.772 278.772 312.918 323 312.918C367.228 312.918 403.082 348.772 403.082 393ZM323 499C381.542 499 429 451.542 429 393C429 334.458 381.542 287 323 287C264.458 287 217 334.458 217 393C217 451.542 264.458 499 323 499Z" fill="#0295AA" stroke="#2E2E2E" stroke-width="18"/>
<path fill-rule="evenodd" clip-rule="evenodd" d="M323.001 471.789C366.514 471.789 401.789 436.514 401.789 393.001C401.789 349.488 366.514 314.213 323.001 314.213C279.488 314.213 244.213 349.488 244.213 393.001C244.213 436.514 279.488 471.789 323.001 471.789ZM323.001 479.707C370.887 479.707 409.707 440.887 409.707 393.001C409.707 345.115 370.887 306.295 323.001 306.295C275.115 306.295 236.295 345.115 236.295 393.001C236.295 440.887 275.115 479.707 323.001 479.707Z" fill="#0295AA"/>
<path fill-rule="evenodd" clip-rule="evenodd" d="M323 425.861C341.149 425.861 355.862 411.148 355.862 392.999C355.862 374.851 341.149 360.138 323 360.138C304.852 360.138 290.139 374.851 290.139 392.999C290.139 411.148 304.852 425.861 323 425.861ZM323 433.779C345.522 433.779 363.78 415.521 363.78 392.999C363.78 370.477 345.522 352.22 323 352.22C300.478 352.22 282.221 370.477 282.221 392.999C282.221 415.521 300.478 433.779 323 433.779Z" fill="#0295AA"/>
<path d="M322.801 317.773L326.934 330.495H340.31L329.489 338.357L333.622 351.078L322.801 343.216L311.98 351.078L316.113 338.357L305.292 330.495H318.667L322.801 317.773Z" fill="#365558"/>
<path d="M322.801 433.778L326.934 446.499H340.31L329.489 454.362L333.622 467.083L322.801 459.221L311.98 467.083L316.113 454.362L305.292 446.499H318.667L322.801 433.778Z" fill="#365558"/>
<path d="M246.389 394.186L259.11 390.053L259.11 376.677L266.972 387.499L279.693 383.365L271.831 394.186L279.693 405.008L266.972 400.874L259.11 411.696L259.11 398.32L246.389 394.186Z" fill="#365558"/>
<path d="M362.393 394.186L375.114 390.053L375.114 376.677L382.976 387.499L395.697 383.365L387.835 394.186L395.697 405.008L382.976 400.874L375.114 411.696L375.114 398.32L362.393 394.186Z" fill="#365558"/>
<path d="M268.768 340.154L280.686 346.226L290.144 336.768L288.052 349.979L299.97 356.052L286.758 358.144L284.666 371.355L278.593 359.437L265.382 361.53L274.84 352.072L268.768 340.154Z" fill="#365558"/>
<path d="M350.797 422.183L362.715 428.256L372.173 418.798L370.081 432.009L381.999 438.081L368.788 440.174L366.695 453.385L360.623 441.467L347.412 443.559L356.87 434.101L350.797 422.183Z" fill="#365558"/>
<path d="M268.769 448.218L274.842 436.3L265.383 426.842L278.595 428.935L284.667 417.017L286.76 430.228L299.971 432.32L288.053 438.393L290.145 451.604L280.687 442.146L268.769 448.218Z" fill="#365558"/>
<path d="M350.798 366.192L356.871 354.274L347.413 344.816L360.624 346.908L366.696 334.99L368.789 348.202L382 350.294L370.082 356.366L372.174 369.578L362.716 360.119L350.798 366.192Z" fill="#365558"/>
<circle cx="323" cy="393" r="33" fill="#2E2E2E"/>
<rect x="152" y="128.441" width="274.171" height="274.171" transform="rotate(-32.2845 152 128.441)" fill="#2E2E2E"/>
<rect x="185.021" y="135.892" width="226.301" height="226.301" transform="rotate(-32.2845 185.021 135.892)" fill="#E6EAEA"/>
<rect x="276.432" y="195.936" width="84.6693" height="18.8154" transform="rotate(12.7155 276.432 195.936)" fill="#F0353D"/>
<rect x="336.525" y="228.784" width="147.957" height="18.8154" transform="rotate(-77.2845 336.525 228.784)" fill="#F0353D"/>
</g>
<defs>
<clipPath id="clip0">
<rect width="512" height="512" fill="white" transform="matrix(1 0 0 -1 0 512)"/>
</clipPath>
</defs>
</svg>
