<svg width="512" height="512" viewBox="0 0 512 512" fill="none" xmlns="http://www.w3.org/2000/svg">
<g clip-path="url(#clip0_757_61)">
<path d="M33.98 306.439L33.8342 324.045C33.8286 324.733 34.292 325.337 34.9584 325.51L49.8462 329.363C50.3985 329.506 50.3191 330.313 49.7496 330.346L34.3965 331.226C33.7093 331.266 33.1371 331.768 33.0087 332.444L29.7235 349.741C29.6098 350.34 28.7272 350.253 28.7323 349.644L28.8781 332.038C28.8838 331.35 28.4203 330.746 27.754 330.573L12.8661 326.72C12.3138 326.577 12.3933 325.77 12.9627 325.737L28.3159 324.857C29.0031 324.817 29.5752 324.315 29.7037 323.639L32.9888 306.342C33.1025 305.743 33.9851 305.83 33.98 306.439Z" fill="#E6EAEA" stroke="#0295AA"/>
<path d="M262.004 29C233.735 29 205.742 34.5681 179.625 45.3863C153.507 56.2045 129.776 72.061 109.787 92.0504C89.7973 112.04 73.9408 135.771 63.1226 161.888C52.3044 188.006 46.7363 215.998 46.7363 244.268C46.7363 272.537 52.3044 300.529 63.1226 326.647C73.9408 352.764 89.7973 376.495 109.787 396.485C129.776 416.474 153.507 432.331 179.625 443.149C205.742 453.967 233.735 459.535 262.004 459.535V448.772C235.148 448.772 208.555 443.482 183.744 433.205C158.932 422.927 136.388 407.864 117.398 388.874C98.4076 369.884 83.344 347.339 73.0667 322.528C62.7894 297.716 57.4997 271.123 57.4997 244.268C57.4997 217.412 62.7894 190.819 73.0667 166.007C83.344 141.196 98.4076 118.651 117.398 99.6613C136.388 80.6713 158.932 65.6076 183.744 55.3303C208.555 45.053 235.148 39.7634 262.004 39.7634V29Z" fill="#E6EAEA"/>
<path d="M262.504 29V28.5H262.004C233.669 28.5 205.611 34.081 179.433 44.9243C153.255 55.7677 129.469 71.661 109.433 91.6968C89.3973 111.733 73.504 135.519 62.6607 161.697C51.8173 187.875 46.2363 215.933 46.2363 244.268C46.2363 272.603 51.8173 300.66 62.6607 326.838C73.504 353.016 89.3973 376.802 109.433 396.838C129.469 416.874 153.255 432.767 179.433 443.611C205.611 454.454 233.669 460.035 262.004 460.035H262.504V459.535V448.772V448.272H262.004C235.214 448.272 208.686 442.995 183.935 432.743C159.184 422.491 136.695 407.464 117.751 388.52C98.8076 369.577 83.7808 347.087 73.5286 322.337C63.2764 297.586 57.9997 271.058 57.9997 244.268C57.9997 217.477 63.2764 190.949 73.5286 166.199C83.7808 141.448 98.8076 118.958 117.751 100.015C136.695 81.0713 159.184 66.0444 183.935 55.7923C208.686 45.5401 235.214 40.2634 262.004 40.2634H262.504V39.7634V29Z" stroke="#0295AA" stroke-opacity="0.4"/>
<mask id="path-4-outside-1_757_61" maskUnits="userSpaceOnUse" x="259.211" y="28" width="218" height="433" fill="black">
<rect fill="white" x="259.211" y="28" width="218" height="433"/>
<path d="M260.943 29C289.213 29 317.205 34.5681 343.323 45.3863C369.44 56.2045 393.171 72.061 413.161 92.0504C433.15 112.04 449.006 135.771 459.825 161.888C470.643 188.006 476.211 215.998 476.211 244.268C476.211 272.537 470.643 300.529 459.825 326.647C449.006 352.764 433.15 376.495 413.161 396.485C393.171 416.474 369.44 432.331 343.323 443.149C317.205 453.967 289.213 459.535 260.943 459.535L260.943 448.772C287.799 448.772 314.392 443.482 339.204 433.205C364.015 422.927 386.56 407.864 405.55 388.874C424.54 369.884 439.603 347.34 449.881 322.528C460.158 297.716 465.448 271.123 465.448 244.268C465.448 217.412 460.158 190.819 449.881 166.007C439.603 141.196 424.54 118.651 405.55 99.6613C386.56 80.6713 364.015 65.6076 339.204 55.3303C314.392 45.053 287.799 39.7634 260.943 39.7634L260.943 29Z"/>
</mask>
<path d="M260.943 29C289.213 29 317.205 34.5681 343.323 45.3863C369.44 56.2045 393.171 72.061 413.161 92.0504C433.15 112.04 449.006 135.771 459.825 161.888C470.643 188.006 476.211 215.998 476.211 244.268C476.211 272.537 470.643 300.529 459.825 326.647C449.006 352.764 433.15 376.495 413.161 396.485C393.171 416.474 369.44 432.331 343.323 443.149C317.205 453.967 289.213 459.535 260.943 459.535L260.943 448.772C287.799 448.772 314.392 443.482 339.204 433.205C364.015 422.927 386.56 407.864 405.55 388.874C424.54 369.884 439.603 347.34 449.881 322.528C460.158 297.716 465.448 271.123 465.448 244.268C465.448 217.412 460.158 190.819 449.881 166.007C439.603 141.196 424.54 118.651 405.55 99.6613C386.56 80.6713 364.015 65.6076 339.204 55.3303C314.392 45.053 287.799 39.7634 260.943 39.7634L260.943 29Z" fill="white"/>
<path d="M260.943 29C289.213 29 317.205 34.5681 343.323 45.3863C369.44 56.2045 393.171 72.061 413.161 92.0504C433.15 112.04 449.006 135.771 459.825 161.888C470.643 188.006 476.211 215.998 476.211 244.268C476.211 272.537 470.643 300.529 459.825 326.647C449.006 352.764 433.15 376.495 413.161 396.485C393.171 416.474 369.44 432.331 343.323 443.149C317.205 453.967 289.213 459.535 260.943 459.535L260.943 448.772C287.799 448.772 314.392 443.482 339.204 433.205C364.015 422.927 386.56 407.864 405.55 388.874C424.54 369.884 439.603 347.34 449.881 322.528C460.158 297.716 465.448 271.123 465.448 244.268C465.448 217.412 460.158 190.819 449.881 166.007C439.603 141.196 424.54 118.651 405.55 99.6613C386.56 80.6713 364.015 65.6076 339.204 55.3303C314.392 45.053 287.799 39.7634 260.943 39.7634L260.943 29Z" stroke="#4ACFD9" stroke-opacity="0.4" stroke-width="2" mask="url(#path-4-outside-1_757_61)"/>
<path d="M261.474 29C233.274 29 205.35 34.5543 179.297 45.3459C153.244 56.1375 129.572 71.9549 109.631 91.8951C89.6912 111.835 73.8738 135.508 63.0822 161.561C52.2907 187.614 46.7363 215.538 46.7363 243.737C46.7363 271.937 52.2907 299.861 63.0822 325.914C73.8738 351.967 89.6912 375.639 109.631 395.58C129.572 415.52 153.244 431.337 179.297 442.129C205.35 452.92 233.274 458.475 261.474 458.475L261.474 447.738C234.684 447.738 208.157 442.461 183.406 432.209C158.656 421.957 136.167 406.931 117.224 387.987C98.2804 369.044 83.2538 346.555 73.0018 321.805C62.7498 297.054 57.4732 270.527 57.4732 243.737C57.4732 216.948 62.7498 190.42 73.0018 165.67C83.2538 140.919 98.2803 118.43 117.224 99.4872C136.167 80.544 158.656 65.5175 183.406 55.2655C208.157 45.0135 234.684 39.7369 261.474 39.7369L261.474 29Z" fill="#E6EAEA" fill-opacity="0.7"/>
<path d="M261.474 29C289.673 29 317.597 34.5543 343.65 45.3459C369.703 56.1375 393.376 71.9549 413.316 91.8951C433.256 111.835 449.073 135.508 459.865 161.561C470.657 187.614 476.211 215.538 476.211 243.737C476.211 271.937 470.657 299.861 459.865 325.914C449.073 351.967 433.256 375.639 413.316 395.58C393.376 415.52 369.703 431.337 343.65 442.129C317.597 452.92 289.673 458.475 261.474 458.475L261.474 447.738C288.263 447.738 314.791 442.461 339.541 432.209C364.292 421.957 386.781 406.931 405.724 387.987C424.667 369.044 439.693 346.555 449.945 321.805C460.197 297.054 465.474 270.527 465.474 243.737C465.474 216.948 460.197 190.42 449.945 165.67C439.693 140.919 424.667 118.43 405.724 99.4872C386.781 80.544 364.292 65.5175 339.541 55.2655C314.791 45.0135 288.263 39.7369 261.474 39.7369L261.474 29Z" fill="white" fill-opacity="0.7"/>
<path d="M87.0332 439.722C87.0332 433.095 92.4058 427.722 99.0332 427.722H262.004V471.2H99.0332C92.4058 471.2 87.0332 465.827 87.0332 459.2V439.722Z" fill="#9BAAAB"/>
<path d="M262 428H425C431.627 428 437 433.373 437 440V459C437 465.627 431.627 471 425 471H262V428Z" fill="#CDD4D5"/>
<path d="M169.634 82.8476L169.489 100.454C169.483 101.142 169.946 101.746 170.613 101.918L185.501 105.771C186.053 105.914 185.973 106.722 185.404 106.754L170.051 107.635C169.364 107.674 168.791 108.176 168.663 108.852L165.378 126.15C165.264 126.748 164.382 126.662 164.387 126.052L164.532 108.446C164.538 107.758 164.075 107.154 163.408 106.982L148.52 103.129C147.968 102.986 148.048 102.178 148.617 102.146L163.97 101.265C164.657 101.226 165.23 100.724 165.358 100.048L168.643 82.7502C168.757 82.1515 169.639 82.2383 169.634 82.8476Z" fill="#E6EAEA" fill-opacity="0.6" stroke="#0295AA"/>
<path d="M160.091 354.318L159.946 371.924C159.94 372.612 160.403 373.216 161.07 373.389L175.958 377.242C176.51 377.385 176.43 378.192 175.861 378.225L160.508 379.105C159.821 379.145 159.248 379.647 159.12 380.323L155.835 397.62C155.721 398.219 154.839 398.132 154.844 397.523L154.989 379.917C154.995 379.228 154.532 378.625 153.865 378.452L138.977 374.599C138.425 374.456 138.505 373.649 139.074 373.616L154.427 372.736C155.114 372.696 155.687 372.194 155.815 371.518L159.1 354.221C159.214 353.622 160.096 353.709 160.091 354.318Z" fill="#E6EAEA" fill-opacity="0.4" stroke="#0295AA"/>
<path d="M470.654 380.082L470.435 380.475L470.804 380.734L488.852 393.425L469.4 383.012L469.003 382.8L468.75 383.172L455.2 403.116L466.92 382.044L467.138 381.651L466.77 381.392L448.721 368.701L468.174 379.114L468.571 379.326L468.823 378.954L482.373 359.01L470.654 380.082Z" fill="white" stroke="#4ACFD9"/>
<rect x="192.016" y="230.482" width="19.0878" height="84.8345" fill="#F0353D"/>
<rect x="245.035" y="400.151" width="19.0878" height="21.2086" fill="#F0353D"/>
<line x1="59.4662" y1="245.888" x2="462.43" y2="250.153" stroke="#365558"/>
<rect x="141.115" y="230.482" width="19.0878" height="37.1151" fill="#F0353D"/>
<rect x="150.66" y="201.85" width="1.06043" height="34.9942" fill="#F0353D"/>
<rect x="166.564" y="230.482" width="19.0878" height="1.06043" fill="#BCD643"/>
<rect x="175.047" y="232.603" width="1.06043" height="34.9942" fill="#BCD643"/>
<rect x="175.047" y="135.043" width="1.06043" height="96.4992" fill="#BCD643"/>
<rect x="272.607" y="353.492" width="19.0878" height="46.659" fill="#BCD643"/>
<rect x="281.09" y="261.234" width="1.06043" height="96.4992" fill="#BCD643"/>
<rect x="299.117" y="311.075" width="19.0878" height="42.4173" fill="#BCD643"/>
<rect x="308.662" y="218.817" width="1.06043" height="96.4992" fill="#BCD643"/>
<rect x="325.627" y="161.554" width="19.0878" height="150.581" fill="#BCD643"/>
<rect x="334.111" y="73.5381" width="1.06043" height="96.4992" fill="#BCD643"/>
<rect x="352.139" y="132.922" width="19.0878" height="28.6316" fill="#BCD643"/>
<rect x="360.621" y="98.9885" width="1.06043" height="96.4992" fill="#BCD643"/>
<rect x="378.65" y="132.922" width="19.0878" height="28.6316" fill="#F0353D"/>
<rect x="387.133" y="132.922" width="1.06043" height="96.4992" fill="#F0353D"/>
<rect x="405.162" y="163.675" width="19.0878" height="3.18129" fill="#F0353D"/>
<rect x="413.645" y="138.224" width="1.06043" height="96.4992" fill="#F0353D"/>
<rect x="430.611" y="171.098" width="19.0878" height="108.164" fill="#F0353D"/>
<rect x="440.156" y="155.191" width="1.06043" height="96.4992" fill="#F0353D"/>
<rect x="89.1543" y="231.542" width="19.0878" height="48.7798" fill="#BCD643"/>
<rect x="97.6367" y="199.729" width="1.06043" height="34.9942" fill="#BCD643"/>
<rect x="97.6367" y="280.322" width="1.06043" height="34.9942" fill="#BCD643"/>
<rect x="218.523" y="315.316" width="19.0878" height="84.8345" fill="#F0353D"/>
<rect x="225.947" y="283.503" width="1.06043" height="34.9942" fill="#F0353D"/>
<rect x="227.01" y="376.821" width="1.06043" height="34.9942" fill="#F0353D"/>
<rect x="115.662" y="146.708" width="19.0878" height="84.8345" fill="#F0353D"/>
<rect x="125.205" y="210.334" width="1.06043" height="34.9942" fill="#F0353D"/>
<path d="M474.428 97.9268L474.452 98.343L474.865 98.3945L492.398 100.579L474.865 102.764L474.452 102.815L474.428 103.231L473.113 126.271L471.797 103.231L471.774 102.815L471.36 102.764L453.827 100.579L471.36 98.3945L471.774 98.343L471.797 97.9268L473.113 74.8869L474.428 97.9268Z" fill="white" stroke="#4ACFD9"/>
<path d="M424.524 291.904C432.5 285.58 435.326 252.716 433.075 228.032C430.824 203.348 423.446 177.502 411.953 154.042C400.459 130.582 385.415 110.658 368.884 97.0045C352.354 83.3512 335.147 76.6382 319.627 77.7871C305.344 90.8483 313.206 94.7474 328.174 110.183C334.326 111.328 352.252 114.277 364.414 124.322C376.577 134.367 387.645 149.026 396.101 166.287C404.557 183.547 409.986 202.563 411.642 220.724C413.298 238.885 406.691 250.695 405.35 267.716C404.009 284.738 416.548 298.228 424.524 291.904Z" fill="white" fill-opacity="0.5"/>
<path d="M0 483C0 476.373 5.37258 471 12 471H262V512H12C5.37258 512 0 506.627 0 500V483Z" fill="#365558"/>
<path d="M262 471H500C506.627 471 512 476.373 512 483V500C512 506.627 506.627 512 500 512H262V471Z" fill="#9BAAAB"/>
</g>
<defs>
<clipPath id="clip0_757_61">
<rect width="512" height="512" fill="white"/>
</clipPath>
</defs>
</svg>
