<?xml version="1.0" encoding="utf-8"?>
<!-- Generator: Adobe Illustrator 25.4.1, SVG Export Plug-In . SVG Version: 6.00 Build 0)  -->
<svg version="1.1" id="Layer_1" xmlns="http://www.w3.org/2000/svg" xmlns:xlink="http://www.w3.org/1999/xlink" x="0px" y="0px"
	 viewBox="0 0 512 512" style="enable-background:new 0 0 512 512;" xml:space="preserve">
<style type="text/css">
	.st0{fill:none;}
	.st1{fill:#E6EAEA;}
	.st2{fill:#365559;}
	.st3{fill:#0095AA;}
	.st4{fill:#5BC1D0;}
	.st5{fill:#CDD4D5;}
	.st6{fill:url(#New_Pattern_Swatch_5);}
	.st7{fill:#FFFFFF;}
	.st8{fill:url(#New_Pattern_Swatch_10);}
	.st9{fill:url(#New_Pattern_Swatch_9);}
	.st10{fill:url(#New_Pattern_Swatch_7);}
	.st11{fill:url(#New_Pattern_Swatch_6);}
	.st12{fill:#FCD1AA;}
	.st13{fill:#9BAAAB;}
	.st14{fill:#697F83;}
	.st15{fill:#375659;}
	.st16{fill:#E83A40;}
	.st17{fill:#0295AA;}
	.st18{fill:#ED6A3B;}
	.st19{fill:#5DC1D0;}
</style>
<pattern  width="128" height="128" patternUnits="userSpaceOnUse" id="New_Pattern_Swatch_10" viewBox="0 -128 128 128" style="overflow:visible;">
	<g>
		<rect y="-128" class="st0" width="128" height="128"/>
		<rect y="-128" class="st1" width="128" height="128"/>
	</g>
</pattern>
<pattern  width="128" height="128" patternUnits="userSpaceOnUse" id="New_Pattern_Swatch_5" viewBox="0 -128 128 128" style="overflow:visible;">
	<g>
		<rect y="-128" class="st0" width="128" height="128"/>
		<rect y="-128" class="st2" width="128" height="128"/>
	</g>
</pattern>
<pattern  width="128" height="128" patternUnits="userSpaceOnUse" id="New_Pattern_Swatch_6" viewBox="0 -128 128 128" style="overflow:visible;">
	<g>
		<rect y="-128" class="st0" width="128" height="128"/>
		<rect y="-128" class="st3" width="128" height="128"/>
	</g>
</pattern>
<pattern  width="128" height="128" patternUnits="userSpaceOnUse" id="New_Pattern_Swatch_7" viewBox="0 -128 128 128" style="overflow:visible;">
	<g>
		<rect y="-128" class="st0" width="128" height="128"/>
		<rect y="-128" class="st4" width="128" height="128"/>
	</g>
</pattern>
<pattern  width="128" height="128" patternUnits="userSpaceOnUse" id="New_Pattern_Swatch_9" viewBox="0 -128 128 128" style="overflow:visible;">
	<g>
		<rect y="-128" class="st0" width="128" height="128"/>
		<rect y="-128" class="st5" width="128" height="128"/>
	</g>
</pattern>
<rect x="214.4" y="406.4" class="st6" width="83.1" height="0.1"/>
<g>
	<path class="st7" d="M214.4,406.4L214.4,406.4l83.1,0.1v-0.1H214.4z"/>
	<path class="st8" d="M458.4,406.4H297.6v0.1H256v23h11.4c11.4,0,20.7,9.3,20.7,20.7c0,5.7-2.3,10.8-6.1,14.6
		c-3.8,3.8-8.9,6.1-14.6,6.1H256v23h202.4c18.8,0,34.2-15.3,34.2-34.2v-19C492.6,421.7,477.3,406.4,458.4,406.4z M434.6,487.6
		c-20.8,0-37.6-16.8-37.6-37.6c0-20.7,16.8-37.6,37.6-37.6c20.7,0,37.5,16.8,37.5,37.6C472.1,470.8,455.3,487.6,434.6,487.6z"/>
	<path class="st9" d="M53.7,435.5c-3.7,3.7-6.1,8.9-6.1,14.6c0,11.4,9.3,20.7,20.7,20.7H256v23H53.6c-18.8,0-34.2-15.3-34.2-34.2
		v-19c0-18.8,15.3-34.2,34.2-34.2h160.9v0.1H256v23H68.3C62.7,429.4,57.5,431.7,53.7,435.5z"/>
</g>
<path class="st10" d="M472.1,450.1c0,20.8-16.8,37.6-37.5,37.6c-20.8,0-37.6-16.8-37.6-37.6c0-20.7,16.8-37.6,37.6-37.6
	C455.3,412.5,472.1,429.3,472.1,450.1z"/>
<path class="st11" d="M256,429.4v41.3H68.3c-11.4,0-20.7-9.3-20.7-20.7c0-5.7,2.3-10.9,6.1-14.6s8.9-6.1,14.6-6.1H256z"/>
<path class="st10" d="M288.1,450.1c0,5.7-2.3,10.8-6.1,14.6c-3.8,3.8-8.9,6.1-14.6,6.1H256v-41.3h11.4
	C278.8,429.4,288.1,438.7,288.1,450.1z"/>
<g>
	<path class="st9" d="M46.3,252.8c0,8.7,5.8,15.9,13.8,18.1v47.4c0,2.8,2.3,5.1,5.1,5.1H256V357H52.9c-18.6,0-33.7-15.1-33.7-33.7
		V51.4c0-18.6,15.1-33.7,33.7-33.7H256v39H65.2c-2.8,0-5.1,2.3-5.1,5.1v173C52.2,236.9,46.3,244.3,46.3,252.8z"/>
	<path class="st8" d="M492.8,51.4v271.9c0,18.6-15.1,33.7-33.7,33.7H256v-33.5h70.8v0.3h130.3c2.8,0,5.1-2.3,5.1-5.1V62
		c0-2.8-2.3-5.1-5.1-5.1H329c-0.5-0.2-1.1-0.3-1.7-0.3H256v-39h203.1C477.7,17.7,492.8,32.8,492.8,51.4z"/>
	<path class="st7" d="M462.2,62v256.6c0,2.8-2.3,5.1-5.1,5.1H326.8v-0.3H65.2c-2.8,0-5.1-2.3-5.1-5.1V271c-8-2.2-13.8-9.5-13.8-18.1
		c0-8.6,5.8-15.9,13.8-18.1v-173c0-2.8,2.3-5.1,5.1-5.1h262c0.6,0,1.2,0.1,1.7,0.3h128.2C460,57,462.2,59.2,462.2,62z"/>
	<path class="st11" d="M511,440.5v19c0,29-23.6,52.6-52.6,52.6H256v-18.4h202.4c18.8,0,34.2-15.3,34.2-34.2v-19
		c0-18.8-15.3-34.2-34.2-34.2H256V357h203.1c18.6,0,33.7-15.1,33.7-33.7V51.4c0-18.6-15.1-33.7-33.7-33.7H256v-18h203.1
		c28.5,0,51.7,23.2,51.7,51.7v271.9c0,28.5-23.2,51.7-51.7,51.7H297.6v13h160.9C487.4,388,511,411.6,511,440.5z"/>
	<path class="st6" d="M19.2,51.4v271.9c0,18.6,15.1,33.7,33.7,33.7H256v49.4H53.6c-18.8,0-34.2,15.3-34.2,34.2v19
		c0,18.8,15.3,34.2,34.2,34.2H256v18.4H53.6c-29,0-52.6-23.6-52.6-52.6v-19c0-29,23.6-52.6,52.6-52.6h160.9v-13H52.9
		c-28.5,0-51.7-23.2-51.7-51.7V51.4c0-28.5,23.2-51.7,51.7-51.7H256v18H52.9C34.3,17.7,19.2,32.8,19.2,51.4z"/>
</g>
<polygon class="st12" points="62.6,252.9 62.6,321.1 397.5,321.1 394.6,181.9 322.2,127 264.5,187.4 196.3,247.4 125.3,181.9 "/>
<polygon class="st12" points="125.3,181.9 62.6,252.9 62.6,321.1 195.6,321.1 195.6,246.8 "/>
<path class="st13" d="M325.7,145.7l-3.5-3.6L322,142v40.1h-52.5v-55.3H307l-10.2-10.2h-27.3V89.2L259.3,79v37.7h-58V66.8h46
	l-10.2-10.2H65.2c-2.8,0-5.1,2.3-5.1,5.1v256.6c0,2.8,2.3,5.1,5.1,5.1h262c1.8,0,0.5-0.3,1.4-1.7c0.5-0.8,0.8-1.7,0.8-2.7V153
	L325.7,145.7z M70.3,192.5h52.5v55.3H70.3V192.5z M191.2,247.8h-58v-55.3h58V247.8z M70.3,258h52.5v55.3H70.3V258z M191.2,182.2h-58
	V127h58V182.2z M191.2,313.2h-58V258h58V313.2z M201.3,258h58v55.3h-58V258z M269.5,258H322v55.3h-52.5V258z M322,192.5v55.3h-52.5
	v-55.3H322z M201.3,127h58v55.3h-58V127z M201.3,192.5h58v55.3h-58V192.5z M133.2,66.8h58v49.8h-58V66.8z M70.3,66.8h52.5v49.8H70.3
	V66.8z M70.3,127h52.5v55.3H70.3V127z"/>
<path class="st13" d="M326,57.6c-0.5-0.2,1.8-1,1.2-1H155.3l-10.2,10.2h46v49.8h-58V79L123,89.2v27.4H95.7l-10.2,10.2H123v55.3H70.5
	V142l-0.1,0.1l-10.2,10.2v166c0,2.8,2.3,5.1,5.1,5.1h262c1.8,0,0.5-0.3,1.4-1.7c0.5-0.8,0.8-1.7,0.8-2.7V62.4
	C329.4,60.2,328,58.3,326,57.6z M70.5,192.5H123v55.3H70.5V192.5z M191.2,192.5v55.3h-58v-55.3H191.2z M70.5,258H123v55.3H70.5V258z
	 M191.2,313.2h-58V258h58V313.2z M201.3,258h58v55.3h-58V258z M322.2,127v55.3h-52.5V127H322.2z M269.7,258h52.5v55.3h-52.5V258z
	 M269.7,247.8v-55.3h52.5v55.3H269.7z M269.7,66.8h52.5v49.8h-52.5V66.8z M201.3,66.8h58v49.8h-58V66.8z M201.3,127h58v55.3h-58V127
	z M201.3,192.5h58v55.3h-58V192.5z M133.2,127h58v55.3h-58V127z"/>
<path class="st14" d="M65.2,56.6c-2.8,0-5.1,2.3-5.1,5.1v256.6c0,2.8,2.3,5.1,5.1,5.1h130.3V56.6H65.2z M133.2,182.2V127h58v55.3
	H133.2z M70.3,258h52.5v55.3H70.3V258z M70.3,247.8v-55.3h52.5v55.3H70.3z M133.2,66.8h58v49.8h-58V66.8z M70.3,66.8h52.5v49.8H70.3
	V66.8z M70.3,127h52.5v55.3H70.3V127z M191.2,313.2h-58V258h58V313.2z M191.2,247.8h-58v-55.3h58V247.8z"/>
<path class="st14" d="M374.5,192.5h-42.2v0.3h42.4C374.7,192.6,374.6,192.5,374.5,192.5z M457.2,57H326.8v266.8h130.3
	c2.8,0,5.1-2.3,5.1-5.1V62C462.2,59.2,460,57,457.2,57z M399.5,67.1H452V117h-52.5V67.1z M452,258.2v55.3h-52.5v-55.3H452z
	 M399.5,248v-55.3H452V248H399.5z M389.2,192.8V248h-58v-55.3H389.2z M389.2,258.2v55.3h-58v-55.3H389.2z M331.2,67.1h58V117h-58
	V67.1z M331.2,127.2h58v55.3h-58V127.2z M452,182.5h-52.5v-55.3H452V182.5z"/>
<path class="st14" d="M452,180.6v1.6h-52.5v-10.9l-10.2-2.1v13h-58.1v-30.9l-4.4-4.5v176.6h130.3c2.8,0,5.1-2.3,5.1-5.1V176.5
	C459.2,178.8,455.8,180.1,452,180.6z M331.3,258h58v55.3h-58V258z M331.3,192.5h58v55.3h-58V192.5z M452,313.2h-52.5V258H452V313.2z
	 M452,247.8h-52.5v-55.3H452V247.8z"/>
<path class="st15" d="M61.8,259.1c1,1,2.3,1.4,3.5,1.4c1.4,0,2.8-0.6,3.8-1.7l59.2-64.4l64.5,61.9c2,1.9,5.1,1.9,7.1,0l68.2-65.5
	c0.1,0,0.1-0.1,0.2-0.2l49.1-53.5l-7.2-7.3l-49.3,53.8l-64.6,62l-64.7-62.1c-1-0.9-2.3-1.4-3.7-1.4c-1.4,0.1-2.7,0.7-3.6,1.7
	l-62.8,68.2C59.6,254.2,59.7,257.5,61.8,259.1z"/>
<path class="st15" d="M320.8,132.4l69.6,56.1c2.2,1.7,5.2,1.5,7.1-0.6l-4.5-10.4l-69.8-56.3c-1.1-0.8-2.4-1.2-3.8-1.1
	c-1.4,0.2-2.6,0.9-3.4,2L320.8,132.4z"/>
<path class="st16" d="M84,252.8c0,1.8-0.2,3.5-0.7,5.1c-1.8,6.2-6.6,11.1-12.8,12.9c0,0-0.1,0-0.1,0c-1.6,0.5-3.4,0.7-5.2,0.7
	c-0.9,0-1.8-0.1-2.6-0.2c-0.8-0.1-1.6-0.3-2.4-0.5c-8-2.2-13.8-9.5-13.8-18.1c0-8.6,5.8-15.9,13.8-18.1c1.6-0.4,3.3-0.7,5-0.7
	c1.8,0,3.5,0.2,5.2,0.7c0,0,0.1,0,0.1,0c1.7,0.5,3.4,1.2,4.8,2.2c0.3,0.2,0.5,0.3,0.8,0.5c2.6,1.8,4.6,4.3,6,7.1
	c0.5,1,0.9,2,1.2,3.1C83.7,249.4,84,251.1,84,252.8z"/>
<path class="st16" d="M195.6,228.3c-10.4,0-18.8,8.5-18.8,18.8c0,10.4,8.4,18.8,18.8,18.8s18.8-8.5,18.8-18.8
	C214.4,236.7,206,228.3,195.6,228.3z"/>
<path class="st17" d="M128,168.6c-10.4,0-18.8,8.5-18.8,18.8c0,10.4,8.4,18.8,18.8,18.8s18.8-8.5,18.8-18.8
	C146.8,177,138.4,168.6,128,168.6z"/>
<path class="st18" d="M320.5,111.1c-10.4,0-18.8,8.5-18.8,18.8c0,10.4,8.4,18.8,18.8,18.8s18.8-8.5,18.8-18.8
	C339.3,119.5,330.9,111.1,320.5,111.1z"/>
<path class="st19" d="M245.7,187.4c0,10.4,8.5,18.8,18.8,18.8c10.4,0,18.8-8.5,18.8-18.8c0-10.4-8.5-18.8-18.8-18.8
	C254.2,168.6,245.8,177,245.7,187.4z"/>
<path class="st19" d="M372.2,183.4c0,10.4,8.5,18.8,18.8,18.8c10.4,0,18.8-8.5,18.8-18.8c0-10.4-8.5-18.8-18.8-18.8
	C380.7,164.6,372.3,173,372.2,183.4z"/>
<line class="st0" x1="256" y1="406.5" x2="256" y2="406.4"/>
<polyline class="st0" points="256,56.7 256,66.8 256,116.7 256,126.9 256,170.6 256,182.2 256,188.3 256,192.4 256,194.8 256,202.4 
	256,204.1 256,247.8 256,258 256,313.2 256,321 256,323.5 "/>
<line class="st0" x1="-22.9" y1="388.2" x2="594.7" y2="388.2"/>
</svg>
