<svg id="Layer_1" data-name="Layer 1" xmlns="http://www.w3.org/2000/svg" viewBox="0 0 512 512"><defs><style>.cls-1{fill:#fd6a33;}.cls-2{fill:#ff8c29;}</style></defs><title>github</title><path class="cls-1" d="M252.7,6.4C109.5,6.4,0,115.1,0,258.3,0,372.8,72.1,470.7,175,505.2c13.2,2.4,17.9-5.8,17.9-12.5,0-6.4-.3-41.7-.3-63.4,0,0-72.3,15.5-87.4-30.8,0,0-11.8-30-28.7-37.8,0,0-23.6-16.2,1.7-15.9,0,0,25.7,2.1,39.8,26.6,22.6,39.8,60.5,28.4,75.3,21.6,2.4-16.5,9.1-28,16.5-34.8-57.7-6.4-115.9-14.8-115.9-114.1,0-28.4,7.8-42.6,24.4-60.8-2.7-6.7-11.5-34.4,2.7-70.1,21.6-6.7,71.2,27.9,71.2,27.9a244.06,244.06,0,0,1,64-8.8V6.3C254.9,6.4,253.8,6.4,252.7,6.4Z"/><path class="cls-2" d="M256,6.4v126h.8a241.26,241.26,0,0,1,64.8,8.8s49.7-34.7,71.2-27.9c14.1,35.8,5.4,63.4,2.7,70.1,16.5,18.3,26.6,32.5,26.6,60.8,0,99.6-60.8,107.6-118.5,114.1,9.5,8.2,17.5,23.6,17.5,47.9,0,34.8-.3,77.8-.3,86.3,0,6.7,4.7,14.9,17.9,12.5C442,470.7,512,372.7,512,258.3,512,116.2,397.7,8.1,256,6.4Z"/></svg>