<svg id="Layer_1" data-name="Layer 1" xmlns="http://www.w3.org/2000/svg" viewBox="0 0 512 512"><defs><style>.cls-1{fill:#365558;fill-rule:evenodd;}.cls-2{fill:#e6eaea;}.cls-3{fill:#fff;}</style></defs><title>github-program</title><path class="cls-1" d="M384,512H128A128,128,0,0,1,0,384V128A128,128,0,0,1,128,0H384A128,128,0,0,1,512,128V384A128,128,0,0,1,384,512"/><path class="cls-1" d="M240,144H384A72,72,0,0,0,391.36.37C388.91.23,386.49,0,384,0H128A128,128,0,0,0,0,128V384C0,251.45,107.45,144,240,144"/><path class="cls-1" d="M384,256A128,128,0,1,0,512,384V128A128,128,0,0,1,384,256"/><path class="cls-2" d="M94.22,185.82a176.16,176.16,0,0,0,91.51,231.72A16,16,0,0,0,208,402.81V376h-3.76a64,64,0,0,1-54.88-31.07l-1.25-2.07A14.11,14.11,0,0,0,136,336a8,8,0,0,1,0-16h0a32,32,0,0,1,25.59,12.79h0A48,48,0,0,0,200,352h8.67a48,48,0,0,1,13.39-25.94c1-1,2-1.95,3.11-2.85A1.82,1.82,0,0,0,224,320h0a80,80,0,0,1-63.91-128.12,77.29,77.29,0,0,1,.77-36.87l1.36-5.08a8,8,0,0,1,9.8-5.66l5.08,1.36a77.38,77.38,0,0,1,30.4,16.07A80.85,80.85,0,0,1,224,160h32V79.72A176.19,176.19,0,0,0,94.22,185.82Z"/><path class="cls-3" d="M325.93,94.3A175.57,175.57,0,0,0,256,79.72V160h32a81,81,0,0,1,16.51,1.7,77.32,77.32,0,0,1,30.4-16.07l5.08-1.36a8,8,0,0,1,9.79,5.66l1.36,5.08a77.12,77.12,0,0,1,.77,36.86A80,80,0,0,1,288,320h0a1.82,1.82,0,0,0-1.16,3.21c1.07.9,2.11,1.85,3.11,2.85A48,48,0,0,1,304,360s0,23.91.13,42.81a15.86,15.86,0,0,0,22.08,14.6,176.16,176.16,0,0,0-.28-323.11Z"/></svg>