<svg id="Layer_1" data-name="Layer 1" xmlns="http://www.w3.org/2000/svg" viewBox="0 0 512 512"><defs><style>.cls-1{fill:#faab18;}.cls-2{fill:none;}.cls-3{fill:#0295aa;}.cls-4{fill:#e6eaea;}.cls-5{fill:#f0353d;}.cls-6{fill:#ff8c29;}.cls-7{fill:#9baaab;}.cls-8{fill:#4acfd9;}.cls-9{fill:#fd6a33;}.cls-10{fill:#ffd1a9;}</style></defs><title>mentorship-program</title><path class="cls-1" d="M250.08,381a50.32,50.32,0,0,0,5.92.36h.29V381Z"/><path class="cls-2" d="M256,488.57l-27.22,20.76a13,13,0,0,1-7.87,2.67h35.21l0-23.31Z"/><path class="cls-3" d="M171.71,376.86a18.91,18.91,0,0,1-15.41-12.8,18.49,18.49,0,0,1,4.84-19.27,3.52,3.52,0,0,0-.6-5.57,19,19,0,0,1-6.14-6.15H132.89a7.67,7.67,0,0,1-7.72,7.62H88.08A13.88,13.88,0,0,1,74.33,329a28.16,28.16,0,0,0-23.86-23.51A13.79,13.79,0,0,1,38.64,292V86.76A13.79,13.79,0,0,1,50.47,73.22,28.16,28.16,0,0,0,74.33,49.71,13.87,13.87,0,0,1,88.07,38.06H256.73l0-30.45H20.6A12.8,12.8,0,0,0,7.73,20.3V358.45A12.8,12.8,0,0,0,20.6,371.13H134.81a7.67,7.67,0,0,1,7.73,7.61h31.87c0-.05,0-.1-.08-.14A3.54,3.54,0,0,0,171.71,376.86Z"/><path class="cls-4" d="M151.75,321.36a18.71,18.71,0,0,1,12.37-15.67,3.52,3.52,0,0,0,2.19-2.25,3.46,3.46,0,0,0-.43-3.08,18.46,18.46,0,0,1-.67-19.84A19.05,19.05,0,0,1,183,271.16a3.55,3.55,0,0,0,2.93-1.17,3.47,3.47,0,0,0,.88-3,18.54,18.54,0,0,1,7.58-18.39,19.19,19.19,0,0,1,20.1-1.43,3.59,3.59,0,0,0,3.16.1,3.53,3.53,0,0,0,2-2.38,18.84,18.84,0,0,1,14.53-13.76,19.13,19.13,0,0,1,18.95,6.75,3.58,3.58,0,0,0,2.84,1.36l.47,0,.07-51.88H99.41a7.61,7.61,0,1,1,0-15.22H256.56l0-22.27H99.41a7.61,7.61,0,1,1,0-15.22h157.2l0-28H153.06a7.61,7.61,0,1,1,0-15.22h103.6l0-38.1H89.4A43.63,43.63,0,0,1,54.08,88.07V290.68A43.63,43.63,0,0,1,89.4,325.46h35.77a7.66,7.66,0,0,1,7.72,7.61H154.4A18.47,18.47,0,0,1,151.75,321.36Z"/><path class="cls-5" d="M238.89,424.93a3.65,3.65,0,0,0-5.56-1.16,19.18,19.18,0,0,1-9.86,4.22v66.14l24.65-18.8a13,13,0,0,1,7.88-2.65h.17l.05-37.28H256A19,19,0,0,1,238.89,424.93Z"/><path class="cls-6" d="M211.21,378.74h-21a18.48,18.48,0,0,1-1.28,8.62,3.46,3.46,0,0,0,.67,3.71,3.57,3.57,0,0,0,3.68,1.05A19.16,19.16,0,0,1,209.65,395a18.63,18.63,0,0,1,6.09,7.33V382.68C214.17,381.44,212.65,380.12,211.21,378.74Z"/><path class="cls-6" d="M191.49,333.07H175.24a18.51,18.51,0,0,1-3.32,22.63,3.44,3.44,0,0,0-.92,3.66,3.52,3.52,0,0,0,2.93,2.43,19,19,0,0,1,13.78,9.2,18.52,18.52,0,0,1,2.48,7.75h21A62.87,62.87,0,0,1,191.49,333.07Z"/><path class="cls-6" d="M256,269.52l.43,0,0-15.09-.45,0a19,19,0,0,1-15-7.17,3.59,3.59,0,0,0-3.6-1.28,3.53,3.53,0,0,0-2.76,2.62,18.77,18.77,0,0,1-10.73,12.54,19.2,19.2,0,0,1-16.64-.54,3.58,3.58,0,0,0-3.82.27,3.46,3.46,0,0,0-1.44,3.5,18.48,18.48,0,0,1-4.63,15.76A19.08,19.08,0,0,1,182,286.35a3.55,3.55,0,0,0-3.38,1.78,3.42,3.42,0,0,0,.13,3.77A18.47,18.47,0,0,1,181,308.15,18.82,18.82,0,0,1,169.46,320a3.54,3.54,0,0,0-.67,6.37,18.76,18.76,0,0,1,6.45,6.72h16.25C191.49,298,220.43,269.52,256,269.52Z"/><path class="cls-6" d="M256,396.62a64.84,64.84,0,0,1-40.26-13.94v19.65a18.44,18.44,0,0,1,1.76,7.13,3.49,3.49,0,0,0,2.15,3.13,3.58,3.58,0,0,0,3.79-.52,19.15,19.15,0,0,1,12.16-4.35,20.29,20.29,0,0,1,4,.41,18.94,18.94,0,0,1,13.14,10.08,3.55,3.55,0,0,0,3.25,2h.24l0-23.57Z"/><path class="cls-5" d="M256.29,378.74H240a49.76,49.76,0,0,0,10.1,2.3h6.21Z"/><path class="cls-5" d="M256.35,333.07H206.94a48.46,48.46,0,0,0,33,45.67h16.31Z"/><path class="cls-5" d="M256.41,284.76H256c-27.05,0-49.06,21.67-49.06,48.32h49.41Z"/><path class="cls-3" d="M0,20.3V358.45a20.45,20.45,0,0,0,20.6,20.29H142.54a7.67,7.67,0,0,0-7.73-7.61H20.6A12.8,12.8,0,0,1,7.73,358.45V20.3A12.8,12.8,0,0,1,20.6,7.61H256.77V0H20.6A20.46,20.46,0,0,0,0,20.3Z"/><path class="cls-3" d="M74.33,49.71A28.16,28.16,0,0,1,50.47,73.22,13.79,13.79,0,0,0,38.64,86.76V292a13.79,13.79,0,0,0,11.83,13.54A28.16,28.16,0,0,1,74.33,329a13.88,13.88,0,0,0,13.75,11.66h37.09a7.67,7.67,0,0,0,7.72-7.62H88.07A6.1,6.1,0,0,1,82,327.94a35.77,35.77,0,0,0-30.41-30,6.07,6.07,0,0,1-5.21-6V86.76a6.07,6.07,0,0,1,5.21-6A35.76,35.76,0,0,0,82,50.81a6.1,6.1,0,0,1,6.09-5.14H256.72V38.06H88.07A13.87,13.87,0,0,0,74.33,49.71Z"/><path class="cls-4" d="M125.17,325.46H89.4a43.63,43.63,0,0,0-35.32-34.78V88.07A43.63,43.63,0,0,0,89.4,53.28H256.71V45.67H88.07A6.1,6.1,0,0,0,82,50.81a35.76,35.76,0,0,1-30.41,30,6.07,6.07,0,0,0-5.21,6V292a6.07,6.07,0,0,0,5.21,6,35.77,35.77,0,0,1,30.41,30,6.1,6.1,0,0,0,6.09,5.13h44.82A7.66,7.66,0,0,0,125.17,325.46Z"/><path class="cls-3" d="M226.77,381c-1.21-.72-2.39-1.49-3.54-2.3h-12c1.44,1.38,3,2.7,4.53,3.94V381Z"/><path class="cls-3" d="M199.22,333.07h-7.73a62.87,62.87,0,0,0,19.72,45.67h12A55.61,55.61,0,0,1,199.22,333.07Z"/><path class="cls-3" d="M256,277.14h.42v-7.61l-.43,0c-35.57,0-64.51,28.51-64.51,63.55h7.73C199.22,302.18,224.64,277.14,256,277.14Z"/><path class="cls-3" d="M256,389a57.17,57.17,0,0,1-29.23-8h-11v1.64A64.84,64.84,0,0,0,256,396.62h.27V389Z"/><path class="cls-3" d="M240,378.74H223.23c1.15.81,2.33,1.58,3.54,2.3h23.31A49.76,49.76,0,0,1,240,378.74Z"/><path class="cls-3" d="M206.94,333.07h-7.72a55.61,55.61,0,0,0,24,45.67H240A48.46,48.46,0,0,1,206.94,333.07Z"/><path class="cls-3" d="M256,284.75h.41v-7.61H256c-31.36,0-56.78,25-56.78,55.93h7.72C206.94,306.42,229,284.75,256,284.75Z"/><path class="cls-3" d="M256,381.4a50.32,50.32,0,0,1-5.92-.36H226.77A57.17,57.17,0,0,0,256,389h.28v-7.62Z"/><path class="cls-6" d="M256,488.57l.15.12v-8.38a5.2,5.2,0,0,0-3.32,1l-28.8,22a5.16,5.16,0,0,1-8.3-4V419.15a11,11,0,0,1-6-9.39,11.32,11.32,0,0,0-14.42-10.32c-9.06,2.52-17.11-6.29-13.62-14.9a10.94,10.94,0,0,0,.67-5.8h-8a3.49,3.49,0,0,1,.15,3,18.48,18.48,0,0,0,3.54,19.54,19.14,19.14,0,0,0,19.36,5.51,3.63,3.63,0,0,1,3.11.55,3.52,3.52,0,0,1,1.5,2.75A18.49,18.49,0,0,0,208,423v76.3a12.62,12.62,0,0,0,7.2,11.4,13.19,13.19,0,0,0,5.69,1.31,13,13,0,0,0,7.87-2.67Z"/><path class="cls-6" d="M172.82,369.32a11.13,11.13,0,0,1-6.29-19.07,11.08,11.08,0,0,0-1.44-17.18H154.4a19,19,0,0,0,6.14,6.15,3.52,3.52,0,0,1,.6,5.57,18.49,18.49,0,0,0-4.84,19.27,18.91,18.91,0,0,0,15.41,12.8,3.54,3.54,0,0,1,2.62,1.74s0,.09.08.14h8A11.27,11.27,0,0,0,172.82,369.32Z"/><path class="cls-6" d="M166.79,312.83a11.1,11.1,0,0,0,5.51-16.7c-5.23-7.71.79-18,10.19-17.37a11.24,11.24,0,0,0,11.92-13.05c-1.59-9.14,8.15-16.11,16.48-11.8a11.38,11.38,0,0,0,16.28-7.14c2.32-9,14.09-11.45,19.92-4.17a11.32,11.32,0,0,0,9.37,4.24v-7.62l-.47,0a3.58,3.58,0,0,1-2.84-1.36,19.13,19.13,0,0,0-18.95-6.75,18.84,18.84,0,0,0-14.53,13.76,3.53,3.53,0,0,1-2,2.38,3.59,3.59,0,0,1-3.16-.1,19.19,19.19,0,0,0-20.1,1.43A18.54,18.54,0,0,0,186.8,267a3.47,3.47,0,0,1-.88,3,3.55,3.55,0,0,1-2.93,1.17,19.05,19.05,0,0,0-17.78,9.36,18.46,18.46,0,0,0,.67,19.84,3.46,3.46,0,0,1,.43,3.08,3.52,3.52,0,0,1-2.19,2.25,18.71,18.71,0,0,0-12.37,15.67,18.47,18.47,0,0,0,2.65,11.71h10.69c-.14-.09-.27-.2-.42-.29A11.11,11.11,0,0,1,166.79,312.83Z"/><path class="cls-6" d="M256,472.68a13,13,0,0,0-7.88,2.65l-24.65,18.8V428a19.18,19.18,0,0,0,9.86-4.22,3.65,3.65,0,0,1,5.56,1.16A19,19,0,0,0,256,435.42h.22v-7.62a11.22,11.22,0,0,1-10.41-6.22,11.44,11.44,0,0,0-17.44-3.65,11.36,11.36,0,0,1-12.64,1.23V499.3a5.16,5.16,0,0,0,8.3,4l28.8-22a5.2,5.2,0,0,1,3.32-1v-7.62Z"/><path class="cls-6" d="M209.65,395a19.16,19.16,0,0,0-16.39-2.88,3.57,3.57,0,0,1-3.68-1.05,3.46,3.46,0,0,1-.67-3.71,18.48,18.48,0,0,0,1.28-8.62h-7.78a10.94,10.94,0,0,1-.67,5.8c-3.49,8.61,4.56,17.42,13.62,14.9a11.32,11.32,0,0,1,14.42,10.32,11,11,0,0,0,6,9.39V402.33A18.63,18.63,0,0,0,209.65,395Z"/><path class="cls-6" d="M187.71,371a19,19,0,0,0-13.78-9.2,3.52,3.52,0,0,1-2.93-2.43,3.44,3.44,0,0,1,.92-3.66,18.51,18.51,0,0,0,3.32-22.63H165.09a11.08,11.08,0,0,1,1.44,17.18,11.13,11.13,0,0,0,6.29,19.07,11.27,11.27,0,0,1,9.59,9.42h7.78A18.52,18.52,0,0,0,187.71,371Z"/><path class="cls-6" d="M168.79,326.35a3.54,3.54,0,0,1,.67-6.37A18.82,18.82,0,0,0,181,308.15a18.47,18.47,0,0,0-2.28-16.25,3.42,3.42,0,0,1-.13-3.77,3.55,3.55,0,0,1,3.38-1.78,19.08,19.08,0,0,0,15.42-6.17A18.48,18.48,0,0,0,202,264.42a3.46,3.46,0,0,1,1.44-3.5,3.58,3.58,0,0,1,3.82-.27,19.2,19.2,0,0,0,16.64.54,18.77,18.77,0,0,0,10.73-12.54,3.53,3.53,0,0,1,2.76-2.62,3.59,3.59,0,0,1,3.6,1.28,19,19,0,0,0,15,7.17l.45,0v-7.61a11.32,11.32,0,0,1-9.37-4.24c-5.83-7.28-17.6-4.81-19.92,4.17a11.38,11.38,0,0,1-16.28,7.14c-8.33-4.31-18.07,2.66-16.48,11.8a11.24,11.24,0,0,1-11.92,13.05c-9.4-.61-15.42,9.66-10.19,17.37a11.1,11.1,0,0,1-5.51,16.7,11.11,11.11,0,0,0-2.12,19.95c.15.09.28.2.42.29h10.15A18.76,18.76,0,0,0,168.79,326.35Z"/><path class="cls-6" d="M228.38,417.92a11.44,11.44,0,0,1,17.44,3.65,11.22,11.22,0,0,0,10.41,6.22v-7.6H256a3.55,3.55,0,0,1-3.25-2,18.94,18.94,0,0,0-13.14-10.08,20.29,20.29,0,0,0-4-.41,19.15,19.15,0,0,0-12.16,4.35,3.58,3.58,0,0,1-3.79.52,3.49,3.49,0,0,1-2.15-3.13,18.44,18.44,0,0,0-1.76-7.13v16.82A11.36,11.36,0,0,0,228.38,417.92Z"/><path class="cls-7" d="M145.33,99a7.67,7.67,0,0,0,7.73,7.61H256.64l0-15.22H153.06A7.67,7.67,0,0,0,145.33,99Z"/><path class="cls-7" d="M91.69,142.24a7.66,7.66,0,0,0,7.72,7.61H256.59l0-15.22H99.41A7.67,7.67,0,0,0,91.69,142.24Z"/><path class="cls-7" d="M91.69,179.73a7.67,7.67,0,0,0,7.72,7.61H256.54l0-15.22H99.41A7.67,7.67,0,0,0,91.69,179.73Z"/><path class="cls-8" d="M504.27,99V20.3A12.79,12.79,0,0,0,491.4,7.61H256.77l0,30.45h167.2a13.87,13.87,0,0,1,13.74,11.65,28.16,28.16,0,0,0,23.87,23.51,13.8,13.8,0,0,1,11.83,13.54V292a13.8,13.8,0,0,1-11.83,13.54A28.16,28.16,0,0,0,437.67,329a13.88,13.88,0,0,1-13.74,11.66H387.74a7.67,7.67,0,0,1-7.73-7.62H357.6a19,19,0,0,1-6.14,6.15,3.54,3.54,0,0,0-.6,5.57,18.49,18.49,0,0,1,4.84,19.27,18.91,18.91,0,0,1-15.41,12.8,3.54,3.54,0,0,0-2.62,1.74s-.05.09-.08.14h31.3a7.67,7.67,0,0,1,7.72-7.61H491.4a12.79,12.79,0,0,0,12.87-12.68V136.25a7.67,7.67,0,0,1,7.73-7.61v-22A7.67,7.67,0,0,1,504.27,99Z"/><path class="cls-4" d="M387.74,325.46H422.6a43.63,43.63,0,0,1,35.32-34.78V88.07a43.6,43.6,0,0,1-35.31-34.79H256.71l0,38.1H358.94a7.61,7.61,0,1,1,0,15.22H256.64l0,28h156a7.61,7.61,0,1,1,0,15.22h-156l0,22.27h156a7.61,7.61,0,1,1,0,15.22h-156l-.07,51.88a3.54,3.54,0,0,0,2.37-1.33,19.13,19.13,0,0,1,19-6.75,18.85,18.85,0,0,1,14.53,13.76,3.53,3.53,0,0,0,2,2.38,3.59,3.59,0,0,0,3.16-.1,19.19,19.19,0,0,1,20.1,1.43A18.54,18.54,0,0,1,325.2,267a3.47,3.47,0,0,0,.88,3,3.57,3.57,0,0,0,2.93,1.17,19.06,19.06,0,0,1,17.78,9.36,18.45,18.45,0,0,1-.67,19.84,3.48,3.48,0,0,0-.43,3.09,3.53,3.53,0,0,0,2.19,2.24,18.71,18.71,0,0,1,12.37,15.67,18.45,18.45,0,0,1-2.65,11.71H380A7.67,7.67,0,0,1,387.74,325.46Zm-8.06-74.23-1.24-5.14-3.58,15a7.74,7.74,0,0,1-9.29,5.68,7.62,7.62,0,0,1-5.75-9.15l6.43-27a12.41,12.41,0,0,1,12.15-9.5h0a12.41,12.41,0,0,1,12.16,9.47l4.13,17.12a7.39,7.39,0,0,0,7.23,5.63h10.65a7.61,7.61,0,1,1,0,15.22H401.94A22.73,22.73,0,0,1,379.68,251.23Z"/><path class="cls-9" d="M263.88,475.33l24.65,18.8V428a19.18,19.18,0,0,1-9.86-4.22,3.61,3.61,0,0,0-3.06-.75,3.57,3.57,0,0,0-2.5,1.91,19,19,0,0,1-16.89,10.48l-.05,37.28A13,13,0,0,1,263.88,475.33Z"/><path class="cls-10" d="M296.26,382.68v19.65a18.63,18.63,0,0,1,6.09-7.33,19.16,19.16,0,0,1,16.39-2.88,3.57,3.57,0,0,0,3.68-1.05,3.46,3.46,0,0,0,.67-3.71,18.48,18.48,0,0,1-1.28-8.62h-21C299.35,380.12,297.83,381.44,296.26,382.68Z"/><path class="cls-10" d="M300.79,378.74h21a18.52,18.52,0,0,1,2.48-7.75,19,19,0,0,1,13.79-9.2,3.53,3.53,0,0,0,2.92-2.43,3.44,3.44,0,0,0-.92-3.66,18.55,18.55,0,0,1-3.33-22.63H320.51A62.87,62.87,0,0,1,300.79,378.74Z"/><path class="cls-10" d="M320.51,333.07h16.24a18.9,18.9,0,0,1,6.46-6.73,3.54,3.54,0,0,0-.67-6.36A18.85,18.85,0,0,1,331,308.15a18.47,18.47,0,0,1,2.28-16.25,3.42,3.42,0,0,0,.13-3.77,3.54,3.54,0,0,0-3.37-1.78,19.12,19.12,0,0,1-15.43-6.17A18.47,18.47,0,0,1,310,264.42a3.48,3.48,0,0,0-1.45-3.5,3.57,3.57,0,0,0-3.81-.27,19.17,19.17,0,0,1-16.64.54,18.75,18.75,0,0,1-10.74-12.54,3.51,3.51,0,0,0-2.75-2.62,3.58,3.58,0,0,0-3.6,1.28,19,19,0,0,1-14.54,7.14l0,15.09C291.81,269.77,320.51,298.17,320.51,333.07Z"/><path class="cls-10" d="M259.25,418.21a18.94,18.94,0,0,1,13.14-10.08,19.19,19.19,0,0,1,16.17,3.94,3.58,3.58,0,0,0,3.79.52,3.49,3.49,0,0,0,2.15-3.13,18.44,18.44,0,0,1,1.76-7.13V382.68a64.8,64.8,0,0,1-40,13.94l0,23.57A3.52,3.52,0,0,0,259.25,418.21Z"/><path class="cls-5" d="M256.29,381h5.63a49.76,49.76,0,0,0,10.1-2.3H256.29Z"/><path class="cls-9" d="M256.29,378.74H272a48.46,48.46,0,0,0,33-45.67H256.35Z"/><path class="cls-9" d="M256.41,284.76l-.06,48.31h48.71C305.06,306.56,283.28,285,256.41,284.76Z"/><path class="cls-1" d="M256.29,381.39a49.91,49.91,0,0,0,5.63-.35h-5.63Z"/><path class="cls-8" d="M504.27,136.25v222.2a12.79,12.79,0,0,1-12.87,12.68H376.61a7.67,7.67,0,0,0-7.72,7.61H491.4A20.45,20.45,0,0,0,512,358.45V128.64A7.67,7.67,0,0,0,504.27,136.25Z"/><path class="cls-8" d="M491.4,7.61A12.79,12.79,0,0,1,504.27,20.3V99A7.67,7.67,0,0,0,512,106.6V20.3A20.46,20.46,0,0,0,491.4,0H256.78V7.61Z"/><path class="cls-8" d="M423.92,45.67a6.11,6.11,0,0,1,6.1,5.14,35.76,35.76,0,0,0,30.41,30,6.08,6.08,0,0,1,5.21,6V292a6.08,6.08,0,0,1-5.21,6,35.77,35.77,0,0,0-30.41,30,6.11,6.11,0,0,1-6.1,5.13H380a7.67,7.67,0,0,0,7.73,7.62h36.19A13.88,13.88,0,0,0,437.67,329a28.16,28.16,0,0,1,23.87-23.51A13.8,13.8,0,0,0,473.37,292V86.76a13.8,13.8,0,0,0-11.83-13.54,28.16,28.16,0,0,1-23.87-23.51,13.87,13.87,0,0,0-13.74-11.65H256.73v7.61Z"/><path class="cls-4" d="M430,327.94a35.77,35.77,0,0,1,30.41-30,6.08,6.08,0,0,0,5.21-6V86.76a6.08,6.08,0,0,0-5.21-6A35.76,35.76,0,0,1,430,50.81a6.11,6.11,0,0,0-6.1-5.14H256.72v7.61h165.9a43.6,43.6,0,0,0,35.31,34.79V290.68a43.63,43.63,0,0,0-35.32,34.78H387.74a7.67,7.67,0,0,0-7.73,7.61h43.91A6.11,6.11,0,0,0,430,327.94Z"/><path class="cls-8" d="M288.77,378.74c-1.15.81-2.33,1.58-3.54,2.3h11v1.64c1.57-1.24,3.09-2.56,4.53-3.94Z"/><path class="cls-8" d="M288.77,378.74h12a62.87,62.87,0,0,0,19.72-45.67h-7.73A55.61,55.61,0,0,1,288.77,378.74Z"/><path class="cls-8" d="M312.78,333.07h7.73c0-34.9-28.7-63.3-64.08-63.53v7.61C287.59,277.37,312.78,302.32,312.78,333.07Z"/><path class="cls-8" d="M285.23,381a57.21,57.21,0,0,1-29,8v7.61a64.8,64.8,0,0,0,40-13.94V381Z"/><path class="cls-8" d="M261.92,381h23.31c1.21-.72,2.39-1.49,3.54-2.3H272A49.76,49.76,0,0,1,261.92,381Z"/><path class="cls-8" d="M312.78,333.07h-7.72a48.46,48.46,0,0,1-33,45.67h16.75A55.61,55.61,0,0,0,312.78,333.07Z"/><path class="cls-8" d="M305.06,333.07h7.72c0-30.75-25.19-55.7-56.36-55.92v7.61C283.28,285,305.06,306.56,305.06,333.07Z"/><path class="cls-8" d="M256.29,381.39V389a57.21,57.21,0,0,0,29-8H261.92A49.91,49.91,0,0,1,256.29,381.39Z"/><path class="cls-10" d="M330.26,384.54c3.5,8.61-4.56,17.42-13.62,14.9a11.32,11.32,0,0,0-14.42,10.32,11,11,0,0,1-6,9.39V499.3a5.16,5.16,0,0,1-8.3,4l-28.8-22a5.21,5.21,0,0,0-3-1v8.38l27.08,20.64a13,13,0,0,0,13.55,1.36,12.6,12.6,0,0,0,7.2-11.4V423a18.54,18.54,0,0,0,6-12.93,3.52,3.52,0,0,1,1.49-2.75,3.63,3.63,0,0,1,3.11-.55,19.13,19.13,0,0,0,19.36-5.51,18.44,18.44,0,0,0,3.54-19.54,3.49,3.49,0,0,1,.15-3h-8A10.94,10.94,0,0,0,330.26,384.54Z"/><path class="cls-10" d="M340.29,376.86a18.91,18.91,0,0,0,15.41-12.8,18.49,18.49,0,0,0-4.84-19.27,3.54,3.54,0,0,1,.6-5.57,19,19,0,0,0,6.14-6.15H346.92a11.08,11.08,0,0,0-1.45,17.18,11.13,11.13,0,0,1-6.29,19.07,11.27,11.27,0,0,0-9.59,9.42h8c0-.05.05-.1.08-.14A3.54,3.54,0,0,1,340.29,376.86Z"/><path class="cls-10" d="M360.25,321.36a18.71,18.71,0,0,0-12.37-15.67,3.53,3.53,0,0,1-2.19-2.24,3.48,3.48,0,0,1,.43-3.09,18.45,18.45,0,0,0,.67-19.84A19.06,19.06,0,0,0,329,271.16a3.57,3.57,0,0,1-2.93-1.17,3.47,3.47,0,0,1-.88-3,18.54,18.54,0,0,0-7.58-18.39,19.19,19.19,0,0,0-20.1-1.43,3.59,3.59,0,0,1-3.16.1,3.53,3.53,0,0,1-2-2.38,18.85,18.85,0,0,0-14.53-13.76,19.13,19.13,0,0,0-19,6.75,3.54,3.54,0,0,1-2.37,1.33v7.62a11.31,11.31,0,0,0,8.45-4.24c5.83-7.28,17.61-4.81,19.92,4.17a11.39,11.39,0,0,0,16.29,7.14c8.33-4.31,18.06,2.66,16.47,11.8a11.25,11.25,0,0,0,11.93,13.05c9.39-.61,15.41,9.66,10.18,17.37a11.11,11.11,0,0,0,5.51,16.7,11.12,11.12,0,0,1,2.13,19.95c-.15.09-.28.2-.42.29H357.6A18.45,18.45,0,0,0,360.25,321.36Z"/><path class="cls-10" d="M288,503.31a5.16,5.16,0,0,0,8.3-4V419.15a11.36,11.36,0,0,1-12.64-1.23,11.45,11.45,0,0,0-17.44,3.65,11.2,11.2,0,0,1-9.95,6.22v7.62a19,19,0,0,0,16.89-10.48,3.57,3.57,0,0,1,2.5-1.91,3.61,3.61,0,0,1,3.06.75,19.18,19.18,0,0,0,9.86,4.22v66.14l-24.65-18.8a13,13,0,0,0-7.71-2.64v7.62a5.21,5.21,0,0,1,3,1Z"/><path class="cls-10" d="M323.09,387.36a3.46,3.46,0,0,1-.67,3.71,3.57,3.57,0,0,1-3.68,1.05A19.16,19.16,0,0,0,302.35,395a18.63,18.63,0,0,0-6.09,7.33v16.82a11,11,0,0,0,6-9.39,11.32,11.32,0,0,1,14.42-10.32c9.06,2.52,17.12-6.29,13.62-14.9a10.94,10.94,0,0,1-.67-5.8h-7.78A18.48,18.48,0,0,0,323.09,387.36Z"/><path class="cls-10" d="M334.42,340.27a18.51,18.51,0,0,0,5.66,15.43,3.44,3.44,0,0,1,.92,3.66,3.53,3.53,0,0,1-2.92,2.43,19,19,0,0,0-13.79,9.2,18.52,18.52,0,0,0-2.48,7.75h7.78a11.27,11.27,0,0,1,9.59-9.42,11.13,11.13,0,0,0,6.29-19.07,11.08,11.08,0,0,1,1.45-17.18H336.75A18.5,18.5,0,0,0,334.42,340.27Z"/><path class="cls-10" d="M345.21,312.83a11.11,11.11,0,0,1-5.51-16.7c5.23-7.71-.79-18-10.18-17.37a11.25,11.25,0,0,1-11.93-13.05c1.59-9.14-8.14-16.11-16.47-11.8a11.39,11.39,0,0,1-16.29-7.14c-2.31-9-14.09-11.45-19.92-4.17a11.31,11.31,0,0,1-8.45,4.24v7.61A19,19,0,0,0,271,247.31a3.58,3.58,0,0,1,3.6-1.28,3.51,3.51,0,0,1,2.75,2.62,18.75,18.75,0,0,0,10.74,12.54,19.17,19.17,0,0,0,16.64-.54,3.57,3.57,0,0,1,3.81.27,3.48,3.48,0,0,1,1.45,3.5,18.47,18.47,0,0,0,4.62,15.76A19.12,19.12,0,0,0,330,286.35a3.54,3.54,0,0,1,3.37,1.78,3.42,3.42,0,0,1-.13,3.77A18.47,18.47,0,0,0,331,308.15,18.85,18.85,0,0,0,342.54,320a3.54,3.54,0,0,1,.67,6.36,18.9,18.9,0,0,0-6.46,6.73h10.17c.14-.09.27-.2.42-.29A11.12,11.12,0,0,0,345.21,312.83Z"/><path class="cls-10" d="M294.5,409.46a3.49,3.49,0,0,1-2.15,3.13,3.58,3.58,0,0,1-3.79-.52,19.19,19.19,0,0,0-16.17-3.94,18.94,18.94,0,0,0-13.14,10.08,3.52,3.52,0,0,1-3,2v7.6a11.2,11.2,0,0,0,9.95-6.22,11.45,11.45,0,0,1,17.44-3.65,11.36,11.36,0,0,0,12.64,1.23V402.33A18.44,18.44,0,0,0,294.5,409.46Z"/><path class="cls-7" d="M358.94,106.6a7.61,7.61,0,1,0,0-15.22H256.66l0,15.22Z"/><path class="cls-7" d="M412.59,149.85a7.61,7.61,0,1,0,0-15.22h-156l0,15.22Z"/><path class="cls-7" d="M412.59,187.34a7.61,7.61,0,1,0,0-15.22h-156l0,15.22Z"/><path class="cls-7" d="M401.94,268.56h10.65a7.61,7.61,0,1,0,0-15.22H401.94a7.39,7.39,0,0,1-7.23-5.63l-4.13-17.12a12.41,12.41,0,0,0-12.16-9.47h0a12.41,12.41,0,0,0-12.15,9.5l-6.43,27a7.62,7.62,0,0,0,5.75,9.15,7.74,7.74,0,0,0,9.29-5.68l3.58-15,1.24,5.14A22.73,22.73,0,0,0,401.94,268.56Z"/></svg>