<svg id="Capa_1" data-name="Capa 1" xmlns="http://www.w3.org/2000/svg" viewBox="0 0 512 512"><defs><style>.cls-1{fill:#fd6a33;}.cls-2{fill:#f0353d;}.cls-3{fill:#4acfd9;}.cls-4{fill:#0295aa;}</style></defs><title>onboarding-programs</title><circle class="cls-1" cx="120" cy="136" r="60"/><path class="cls-2" d="M120,196V76a60,60,0,0,0,0,120Z"/><path class="cls-1" d="M0,436H150V353.15A134.22,134.22,0,0,0,225,376h31l31-28.12L256,316H225a45.05,45.05,0,0,1-45-45,75,75,0,0,0-75-75H97a75.38,75.38,0,0,0-74.24,64.39Z"/><path class="cls-2" d="M0,436H120V197.52A74.89,74.89,0,0,0,105,196H97a75.38,75.38,0,0,0-74.24,64.39Z"/><circle class="cls-3" cx="392" cy="136" r="60"/><path class="cls-4" d="M392,196V76a60,60,0,0,0,0,120Z"/><path class="cls-3" d="M256,316v60h31a134.22,134.22,0,0,0,75-22.85V436H512L489.21,260.39A75.38,75.38,0,0,0,415,196h-8a75,75,0,0,0-75,75,45.05,45.05,0,0,1-45,45Z"/><path class="cls-4" d="M362,436h30V197.52A75.12,75.12,0,0,0,332,271a45.05,45.05,0,0,1-45,45H256v60h31a134.22,134.22,0,0,0,75-22.85Z"/></svg>