<svg width="512" height="512" viewBox="0 0 512 512" fill="none" xmlns="http://www.w3.org/2000/svg">
<path fill-rule="evenodd" clip-rule="evenodd" d="M171.193 173.993C83.557 176.432 13.2637 248.239 13.2637 336.465C13.2637 424.69 83.557 496.497 171.193 498.936V173.993Z" fill="#0295AA"/>
<path fill-rule="evenodd" clip-rule="evenodd" d="M171.194 173.993C258.83 176.432 329.123 248.239 329.123 336.465C329.123 424.69 258.83 496.497 171.194 498.936V173.993Z" fill="#4ACFD9"/>
<path fill-rule="evenodd" clip-rule="evenodd" d="M385.714 16.002C327.505 16.356 280.428 63.6523 280.428 121.944C280.428 180.236 327.505 227.532 385.714 227.886V16.002Z" fill="#BCD643"/>
<path fill-rule="evenodd" clip-rule="evenodd" d="M385.714 16.002C443.922 16.356 491 63.6523 491 121.944C491 180.236 443.922 227.532 385.714 227.886V16.002Z" fill="#4ACFD9"/>
<circle cx="174.5" cy="336.5" r="148.5" stroke="#E6EAEA" stroke-width="28"/>
<circle cx="385" cy="122" r="92" stroke="#E6EAEA" stroke-width="28"/>
<path d="M322.597 167.348L347.522 188.825L288.246 257.619L263.32 236.142L322.597 167.348Z" fill="#E6EAEA"/>
<mask id="path-8-outside-1" maskUnits="userSpaceOnUse" x="202" y="195" width="309" height="316" fill="black">
<rect fill="white" x="202" y="195" width="309" height="316"/>
<path fill-rule="evenodd" clip-rule="evenodd" d="M339.802 283.006H373.412C377.955 278.612 380.779 272.451 380.779 265.632C380.779 252.282 369.957 241.46 356.607 241.46C343.257 241.46 332.435 252.282 332.435 265.632C332.435 272.451 335.259 278.612 339.802 283.006ZM305.852 283.006C303.987 277.557 302.975 271.713 302.975 265.632C302.975 236.012 326.987 212 356.607 212C386.227 212 410.239 236.012 410.239 265.632C410.239 271.713 409.227 277.557 407.362 283.006H450.707C467.489 283.006 481.42 295.971 482.624 312.71L493.128 458.705C494.461 477.234 479.788 493.001 461.21 493.001H252.002C233.424 493.001 218.751 477.234 220.084 458.705L230.587 312.71C231.792 295.971 245.723 283.006 262.505 283.006H305.852Z"/>
</mask>
<path fill-rule="evenodd" clip-rule="evenodd" d="M339.802 283.006H373.412C377.955 278.612 380.779 272.451 380.779 265.632C380.779 252.282 369.957 241.46 356.607 241.46C343.257 241.46 332.435 252.282 332.435 265.632C332.435 272.451 335.259 278.612 339.802 283.006ZM305.852 283.006C303.987 277.557 302.975 271.713 302.975 265.632C302.975 236.012 326.987 212 356.607 212C386.227 212 410.239 236.012 410.239 265.632C410.239 271.713 409.227 277.557 407.362 283.006H450.707C467.489 283.006 481.42 295.971 482.624 312.71L493.128 458.705C494.461 477.234 479.788 493.001 461.21 493.001H252.002C233.424 493.001 218.751 477.234 220.084 458.705L230.587 312.71C231.792 295.971 245.723 283.006 262.505 283.006H305.852Z" fill="#9BAAAB"/>
<path d="M339.802 283.006L327.982 295.225L332.925 300.006H339.802V283.006ZM373.412 283.006V300.006H380.289L385.232 295.225L373.412 283.006ZM305.852 283.006V300.006H329.638L321.936 277.502L305.852 283.006ZM407.362 283.006L391.278 277.502L383.576 300.006H407.362V283.006ZM482.624 312.71L499.581 311.49V311.49L482.624 312.71ZM493.128 458.705L510.084 457.485V457.485L493.128 458.705ZM220.084 458.705L203.128 457.485L220.084 458.705ZM230.587 312.71L213.631 311.49L230.587 312.71ZM339.802 300.006H373.412V266.006H339.802V300.006ZM385.232 295.225C392.948 287.76 397.779 277.245 397.779 265.632H363.779C363.779 267.658 362.961 269.464 361.592 270.788L385.232 295.225ZM397.779 265.632C397.779 242.893 379.346 224.46 356.607 224.46V258.46C360.568 258.46 363.779 261.671 363.779 265.632H397.779ZM356.607 224.46C333.868 224.46 315.435 242.893 315.435 265.632H349.435C349.435 261.671 352.646 258.46 356.607 258.46V224.46ZM315.435 265.632C315.435 277.245 320.265 287.76 327.982 295.225L351.622 270.788C350.253 269.464 349.435 267.658 349.435 265.632H315.435ZM285.975 265.632C285.975 273.61 287.305 281.314 289.768 288.511L321.936 277.502C320.67 273.801 319.975 269.815 319.975 265.632H285.975ZM356.607 195C317.598 195 285.975 226.623 285.975 265.632H319.975C319.975 245.401 336.376 229 356.607 229V195ZM427.239 265.632C427.239 226.623 395.616 195 356.607 195V229C376.838 229 393.239 245.401 393.239 265.632H427.239ZM423.446 288.511C425.909 281.314 427.239 273.61 427.239 265.632H393.239C393.239 269.815 392.544 273.801 391.278 277.502L423.446 288.511ZM407.362 300.006H450.707V266.006H407.362V300.006ZM450.707 300.006C458.574 300.006 465.104 306.084 465.668 313.93L499.581 311.49C497.737 285.859 476.405 266.006 450.707 266.006V300.006ZM465.668 313.93L476.171 459.924L510.084 457.485L499.581 311.49L465.668 313.93ZM476.171 459.924C476.796 468.61 469.918 476.001 461.21 476.001V510.001C489.657 510.001 512.125 485.858 510.084 457.485L476.171 459.924ZM461.21 476.001H252.002V510.001H461.21V476.001ZM252.002 476.001C243.293 476.001 236.415 468.61 237.04 459.924L203.128 457.485C201.087 485.858 223.555 510.001 252.002 510.001V476.001ZM237.04 459.924L247.544 313.93L213.631 311.49L203.128 457.485L237.04 459.924ZM247.544 313.93C248.108 306.084 254.638 300.006 262.505 300.006V266.006C236.807 266.006 215.475 285.859 213.631 311.49L247.544 313.93ZM262.505 300.006H305.852V266.006H262.505V300.006Z" fill="#2E2E2E" mask="url(#path-8-outside-1)"/>
<path fill-rule="evenodd" clip-rule="evenodd" d="M356.895 212.001C356.799 212 356.703 212 356.607 212C326.987 212 302.975 236.012 302.975 265.632C302.975 271.713 303.987 277.557 305.852 283.006H262.505C245.723 283.006 231.792 295.971 230.587 312.71L220.084 458.705C218.751 477.234 233.424 493.001 252.002 493.001H356.895V283.006H339.802C335.259 278.612 332.435 272.451 332.435 265.632C332.435 252.282 343.257 241.46 356.607 241.46C356.703 241.46 356.799 241.46 356.895 241.461V212.001Z" fill="#FD6A33"/>
<path fill-rule="evenodd" clip-rule="evenodd" d="M356.894 212.002C356.991 212.001 357.087 212.001 357.184 212.001C386.804 212.001 410.816 236.013 410.816 265.633C410.816 271.714 409.804 277.558 407.939 283.007H451.286C468.068 283.007 481.999 295.972 483.204 312.711L493.707 458.706C495.04 477.235 480.367 493.002 461.789 493.002H356.894V283.007H373.989C378.532 278.613 381.356 272.452 381.356 265.633C381.356 252.283 370.534 241.461 357.184 241.461C357.087 241.461 356.991 241.461 356.894 241.462V212.002Z" fill="#CDD4D5"/>
<mask id="path-12-outside-2" maskUnits="userSpaceOnUse" x="243.547" y="299.149" width="227.111" height="189.544" fill="black">
<rect fill="white" x="243.547" y="299.149" width="227.111" height="189.544"/>
<path fill-rule="evenodd" clip-rule="evenodd" d="M340.541 428.736L288.341 390.561L277.432 405.476L329.633 443.652L329.633 443.652L344.549 454.561L344.549 454.56L344.553 454.563L355.461 439.648L355.457 439.645L430.327 337.269L415.411 326.361L340.541 428.736Z"/>
</mask>
<path fill-rule="evenodd" clip-rule="evenodd" d="M340.541 428.736L288.341 390.561L277.432 405.476L329.633 443.652L329.633 443.652L344.549 454.561L344.549 454.56L344.553 454.563L355.461 439.648L355.457 439.645L430.327 337.269L415.411 326.361L340.541 428.736Z" fill="#E6EAEA"/>
<path d="M288.341 390.561L276.233 381.706L285.088 369.598L297.195 378.453L288.341 390.561ZM340.541 428.736L352.649 437.591L343.794 449.699L331.687 440.844L340.541 428.736ZM277.432 405.476L268.578 417.584L256.47 408.729L265.325 396.622L277.432 405.476ZM329.633 443.652L338.488 431.544L350.617 440.415L341.725 452.528L329.633 443.652ZM329.633 443.652L320.778 455.76L308.649 446.89L317.541 434.776L329.633 443.652ZM344.549 454.561L356.633 463.447L347.77 475.5L335.694 466.668L344.549 454.561ZM344.549 454.56L332.465 445.674L341.329 433.619L353.406 442.454L344.549 454.56ZM344.553 454.563L356.661 463.418L347.804 475.528L335.696 466.669L344.553 454.563ZM355.461 439.648L364.319 427.542L376.421 436.398L367.569 448.502L355.461 439.648ZM355.457 439.645L346.599 451.75L334.497 442.894L343.349 430.79L355.457 439.645ZM430.327 337.269L439.181 325.161L451.289 334.016L442.435 346.124L430.327 337.269ZM415.411 326.361L403.304 317.506L412.158 305.398L424.266 314.253L415.411 326.361ZM297.195 378.453L349.396 416.629L331.687 440.844L279.486 402.668L297.195 378.453ZM265.325 396.622L276.233 381.706L300.448 399.415L289.54 414.331L265.325 396.622ZM320.779 455.76L268.578 417.584L286.287 393.369L338.488 431.544L320.779 455.76ZM317.541 434.776L317.541 434.776L341.725 452.528L341.725 452.528L317.541 434.776ZM335.694 466.668L320.778 455.76L338.488 431.545L353.403 442.453L335.694 466.668ZM356.633 463.447L356.633 463.447L332.464 445.674L332.465 445.674L356.633 463.447ZM335.696 466.669L335.692 466.666L353.406 442.454L353.41 442.457L335.696 466.669ZM367.569 448.502L356.661 463.418L332.445 445.709L343.354 430.793L367.569 448.502ZM364.315 427.539L364.319 427.542L346.603 451.753L346.599 451.75L364.315 427.539ZM442.435 346.124L367.565 448.499L343.349 430.79L418.219 328.414L442.435 346.124ZM424.266 314.253L439.181 325.161L421.472 349.377L406.557 338.468L424.266 314.253ZM328.434 419.882L403.304 317.506L427.519 335.215L352.649 437.591L328.434 419.882Z" fill="#2E2E2E" mask="url(#path-12-outside-2)"/>
</svg>
