<svg width="512" height="512" viewBox="0 0 512 512" fill="none" xmlns="http://www.w3.org/2000/svg">
<path d="M379 440.341L378.997 441.049L379 475H133L133.003 441.049L133 440.341V433.976H133.125C136.063 359.973 189.951 301 256 301C322.049 301 375.937 359.973 378.875 433.976H379V440.341Z" fill="#4ACFD9"/>
<path fill-rule="evenodd" clip-rule="evenodd" d="M252.326 299.824C187.888 301.906 135.855 360.402 132.969 433.472H132.844V439.873L132.847 440.584L132.844 474.721H252.326V299.824Z" fill="#0295AA"/>
<ellipse cx="256" cy="246" rx="85" ry="87" fill="#FFD1A9"/>
<path fill-rule="evenodd" clip-rule="evenodd" d="M180.532 286.657C211.293 278.066 252.868 249.833 262.995 219.449C287.67 248.11 307.038 261.583 337.683 271.847C340.443 263.415 341.936 254.409 341.936 245.055C341.936 197.528 303.408 159 255.881 159C208.354 159 169.826 197.528 169.826 245.055C169.826 260.144 173.71 274.326 180.532 286.657Z" fill="#365558"/>
<path d="M239.062 357H265.938L274 333H231L239.062 357Z" fill="#FD6A33"/>
<path d="M242.737 357H263.263L266 447.406L253 458L240 447.406L242.737 357Z" fill="#FD6A33"/>
<path fill-rule="evenodd" clip-rule="evenodd" d="M252.326 457.852L253.039 458.415L266.552 447.747L263.707 357.574H266.552L275.086 333.693H252.326V457.852Z" fill="#FF8C29"/>
<path d="M259.5 36V86" stroke="#BCD643" stroke-width="11"/>
<path d="M359.824 61.5L329.999 101.631" stroke="#BCD643" stroke-width="11"/>
<path d="M423.047 125.211L380.778 151.919" stroke="#BCD643" stroke-width="11"/>
<path d="M451.875 229.5L402.001 233.043" stroke="#BCD643" stroke-width="11"/>
<path d="M359.824 407.043L329.999 366.912" stroke="#BCD643" stroke-width="11"/>
<path d="M423.047 343.332L380.778 316.624" stroke="#BCD643" stroke-width="11"/>
<path d="M152.051 61.5L181.876 101.631" stroke="#BCD643" stroke-width="11"/>
<path d="M88.8281 125.211L131.097 151.919" stroke="#BCD643" stroke-width="11"/>
<path d="M60 229.5L109.874 233.043" stroke="#BCD643" stroke-width="11"/>
<path d="M152.051 407.043L181.876 366.912" stroke="#BCD643" stroke-width="11"/>
<path d="M88.8281 343.332L131.097 316.624" stroke="#BCD643" stroke-width="11"/>
</svg>
