<svg width="512" height="512" viewBox="0 0 512 512" fill="none" xmlns="http://www.w3.org/2000/svg">
<g clip-path="url(#clip0)">
<path fill-rule="evenodd" clip-rule="evenodd" d="M93 362.486C94.8837 314.915 129.506 277.007 171.845 277.007C214.183 277.007 248.806 314.915 250.69 362.486C250.679 390.761 221.205 431.925 196.844 465.949C186.914 479.817 177.834 492.498 171.945 502.637L171.845 502.464L171.744 502.637C165.856 492.498 156.775 479.817 146.846 465.949C122.484 431.925 93.011 390.761 93 362.486ZM171.845 397.212L172.266 397.214C196.515 397.214 216.174 377.5 216.174 353.181C216.174 328.863 196.515 309.148 172.266 309.148L171.845 309.15L171.424 309.148C147.174 309.148 127.515 328.863 127.515 353.181C127.515 377.5 147.174 397.214 171.424 397.214L171.845 397.212Z" fill="#FD6A33"/>
<path fill-rule="evenodd" clip-rule="evenodd" d="M171.845 502.284L171.845 502.283L171.744 502.455C165.856 492.364 156.775 479.742 146.846 465.94C122.484 432.077 93.011 391.106 93 362.965C94.8837 315.618 129.506 277.888 171.845 277.888C171.845 277.888 171.845 277.888 171.845 277.888V309.88H171.845L171.424 309.878C147.174 309.878 127.515 329.5 127.515 353.703C127.515 377.908 147.174 397.529 171.424 397.529L171.845 397.527H171.845V502.284Z" fill="#F0353D"/>
<ellipse cx="171.844" cy="234.23" rx="59.553" ry="61.2305" fill="#FFD1A9"/>
<path fill-rule="evenodd" clip-rule="evenodd" d="M118.828 262.866C140.483 256.818 169.748 236.943 176.877 215.555C194.248 235.732 207.883 245.216 229.457 252.442C231.4 246.506 232.451 240.165 232.451 233.579C232.451 200.122 205.329 172.999 171.871 172.999C138.414 172.999 111.291 200.122 111.291 233.579C111.291 244.202 114.025 254.186 118.828 262.866Z" fill="#365558"/>
<path fill-rule="evenodd" clip-rule="evenodd" d="M171.845 382.78V324.355C171.727 324.353 171.61 324.353 171.492 324.353C155.357 324.353 142.277 337.433 142.277 353.567C142.277 369.702 155.357 382.782 171.492 382.782C171.61 382.782 171.727 382.782 171.845 382.78Z" fill="#CDD4D5"/>
<path fill-rule="evenodd" clip-rule="evenodd" d="M171.843 382.78V324.355C171.96 324.353 172.078 324.353 172.195 324.353C188.33 324.353 201.41 337.433 201.41 353.567C201.41 369.702 188.33 382.782 172.195 382.782C172.078 382.782 171.96 382.782 171.843 382.78Z" fill="#E6EAEA"/>
<path fill-rule="evenodd" clip-rule="evenodd" d="M309.065 289.574C255.222 289.575 211.574 333.223 211.574 387.065C211.574 440.908 255.222 484.556 309.065 484.556V432.916C283.741 432.916 263.213 412.388 263.213 387.064C263.213 361.741 283.741 341.213 309.065 341.212V289.574Z" fill="#BCD643"/>
<path fill-rule="evenodd" clip-rule="evenodd" d="M309.065 289.574C309.065 289.574 309.065 289.574 309.066 289.574C362.908 289.574 406.557 333.222 406.557 387.065C406.557 440.908 362.908 484.556 309.066 484.556C309.065 484.556 309.065 484.556 309.065 484.556V432.916C309.065 432.916 309.065 432.916 309.066 432.916C334.389 432.916 354.918 412.388 354.918 387.064C354.918 361.741 334.389 341.212 309.066 341.212C309.065 341.212 309.065 341.212 309.065 341.212V289.574Z" fill="#E6EAEA"/>
<path d="M400.228 387.065C400.228 437.413 359.413 478.228 309.065 478.228C258.718 478.228 217.903 437.413 217.903 387.065C217.903 336.718 258.718 295.903 309.065 295.903C359.413 295.903 400.228 336.718 400.228 387.065ZM309.065 505.131C374.271 505.131 427.131 452.271 427.131 387.065C427.131 321.86 374.271 269 309.065 269C243.86 269 191 321.86 191 387.065C191 452.271 243.86 505.131 309.065 505.131Z" fill="#0295AA" stroke="#2E2E2E" stroke-width="18"/>
<path fill-rule="evenodd" clip-rule="evenodd" d="M309.065 475.653C357.991 475.653 397.653 435.991 397.653 387.065C397.653 338.14 357.991 298.478 309.065 298.478C260.14 298.478 220.478 338.14 220.478 387.065C220.478 435.991 260.14 475.653 309.065 475.653ZM309.065 484.556C362.908 484.556 406.556 440.908 406.556 387.065C406.556 333.222 362.908 289.574 309.065 289.574C255.222 289.574 211.574 333.222 211.574 387.065C211.574 440.908 255.222 484.556 309.065 484.556Z" fill="#0295AA"/>
<path fill-rule="evenodd" clip-rule="evenodd" d="M309.065 424.014C329.471 424.014 346.014 407.471 346.014 387.065C346.014 366.659 329.471 350.116 309.065 350.116C288.659 350.116 272.116 366.659 272.116 387.065C272.116 407.471 288.659 424.014 309.065 424.014ZM309.065 432.917C334.388 432.917 354.917 412.388 354.917 387.065C354.917 361.742 334.388 341.213 309.065 341.213C283.742 341.213 263.213 361.742 263.213 387.065C263.213 412.388 283.742 432.917 309.065 432.917Z" fill="#0295AA"/>
<path d="M308.843 302.483L313.49 316.787H328.53L316.363 325.627L321.01 339.93L308.843 331.09L296.675 339.93L301.323 325.627L289.156 316.787H304.195L308.843 302.483Z" fill="#365558"/>
<path d="M308.843 432.918L313.49 447.221H328.53L316.363 456.061L321.01 470.365L308.843 461.525L296.675 470.365L301.323 456.061L289.156 447.221H304.195L308.843 432.918Z" fill="#365558"/>
<path d="M222.926 388.401L237.229 383.754L237.229 368.714L246.069 380.882L260.373 376.234L251.533 388.401L260.373 400.569L246.069 395.921L237.229 408.088L237.229 393.049L222.926 388.401Z" fill="#365558"/>
<path d="M353.357 388.401L367.661 383.754L367.661 368.714L376.501 380.882L390.804 376.234L381.964 388.401L390.804 400.569L376.501 395.921L367.661 408.088L367.661 393.049L353.357 388.401Z" fill="#365558"/>
<path d="M248.09 327.648L261.491 334.476L272.125 323.841L269.773 338.696L283.173 345.523L268.319 347.876L265.966 362.73L259.138 349.33L244.284 351.683L254.918 341.048L248.09 327.648Z" fill="#365558"/>
<path d="M340.321 419.879L353.721 426.707L364.356 416.073L362.003 430.927L375.403 437.755L360.549 440.108L358.196 454.962L351.368 441.562L336.514 443.914L347.149 433.28L340.321 419.879Z" fill="#365558"/>
<path d="M248.089 449.154L254.917 435.753L244.283 425.119L259.137 427.472L265.965 414.071L268.317 428.926L283.172 431.278L269.772 438.106L272.124 452.961L261.49 442.326L248.089 449.154Z" fill="#365558"/>
<path d="M340.32 356.923L347.148 343.523L336.513 332.888L351.367 335.241L358.195 321.841L360.548 336.695L375.402 339.048L362.002 345.876L364.355 360.73L353.72 350.095L340.32 356.923Z" fill="#365558"/>
<rect x="182" y="118.413" width="242.29" height="242.29" transform="rotate(-32.2845 182 118.413)" fill="#2E2E2E"/>
<rect x="211.182" y="124.996" width="199.987" height="199.987" transform="rotate(-32.2845 211.182 124.996)" fill="#E6EAEA"/>
<rect x="291.961" y="178.059" width="74.8239" height="16.6275" transform="rotate(12.7155 291.961 178.059)" fill="#F0353D"/>
<rect x="345.068" y="207.088" width="130.753" height="16.6275" transform="rotate(-77.2845 345.068 207.088)" fill="#F0353D"/>
</g>
<defs>
<clipPath id="clip0">
<rect width="512" height="512" fill="white" transform="matrix(1 0 0 -1 0 512)"/>
</clipPath>
</defs>
</svg>
