<svg width="512" height="512" viewBox="0 0 512 512" fill="none" xmlns="http://www.w3.org/2000/svg">
<rect x="198" y="287" width="115" height="216" fill="#E6EAEA"/>
<rect x="353" y="365" width="115" height="138" fill="#CDD4D5"/>
<rect x="43" y="434" width="115" height="69" fill="#9BAAAB"/>
<path d="M331 235.04L330.998 235.471L331 256.154H181L181.002 235.471L181 235.04V231.162H181.076C182.868 186.08 215.726 150.154 256 150.154C296.274 150.154 329.132 186.08 330.924 231.162H331V235.04Z" fill="#4ACFD9"/>
<path d="M474 319.272L473.999 319.634L474 337H348L348.001 319.634L348 319.272V316.016H348.064C349.569 278.164 377.17 248 411 248C444.83 248 472.431 278.164 473.936 316.016H474V319.272Z" fill="#4ACFD9"/>
<path d="M150 386.858L149.999 387.146L150 401H50L50.0011 387.146L50 386.858V384.26H50.0508C51.2453 354.064 73.1507 330 100 330C126.849 330 148.755 354.064 149.949 384.26H150V386.858Z" fill="#4ACFD9"/>
<path fill-rule="evenodd" clip-rule="evenodd" d="M253.765 149.764C214.522 151.032 182.834 186.656 181.076 231.156H181V235.054L181.002 235.488L181 256.278H253.765V149.764Z" fill="#0295AA"/>
<path fill-rule="evenodd" clip-rule="evenodd" d="M409.123 247.424C376.159 248.489 349.541 278.413 348.064 315.794H348V319.068L348.001 319.432L348 336.896H409.123V247.424Z" fill="#0295AA"/>
<path fill-rule="evenodd" clip-rule="evenodd" d="M98.5104 329.85C72.3483 330.695 51.2226 354.445 50.0508 384.111H50V386.71L50.0011 386.999L50 400.859H98.5104V329.85Z" fill="#0295AA"/>
<ellipse cx="256" cy="117.154" rx="52" ry="53" fill="#FFD1A9"/>
<ellipse cx="411" cy="220.5" rx="44" ry="44.5" fill="#FFD1A9"/>
<ellipse cx="100" cy="308.5" rx="35" ry="35.5" fill="#FFD1A9"/>
<path fill-rule="evenodd" clip-rule="evenodd" d="M210.042 141.745C228.775 136.513 254.094 119.319 260.262 100.815C275.29 118.269 287.085 126.474 305.748 132.726C307.429 127.59 308.338 122.105 308.338 116.408C308.338 87.4639 284.874 64 255.93 64C226.985 64 203.521 87.4639 203.521 116.408C203.521 125.598 205.887 134.235 210.042 141.745Z" fill="#365558"/>
<path fill-rule="evenodd" clip-rule="evenodd" d="M372.395 240.688C388.131 236.293 409.4 221.85 414.58 206.306C427.204 220.968 437.111 227.86 452.788 233.111C454.2 228.798 454.964 224.191 454.964 219.406C454.964 195.093 435.254 175.383 410.941 175.383C386.628 175.383 366.918 195.093 366.918 219.406C366.918 227.125 368.905 234.38 372.395 240.688Z" fill="#365558"/>
<path fill-rule="evenodd" clip-rule="evenodd" d="M69.36 324.503C81.8492 321.015 98.7286 309.552 102.84 297.216C112.859 308.853 120.722 314.323 133.165 318.49C134.285 315.067 134.891 311.41 134.891 307.613C134.891 288.316 119.249 272.674 99.9525 272.674C80.6563 272.674 65.0137 288.316 65.0137 307.613C65.0137 313.739 66.5903 319.497 69.36 324.503Z" fill="#365558"/>
<path d="M245.875 185.154H262.125L267 170.154H241L245.875 185.154Z" fill="#FD6A33"/>
<path d="M402.125 277H415.875L420 265H398L402.125 277Z" fill="#FD6A33"/>
<path d="M93.1875 353H103.812L107 344H90L93.1875 353Z" fill="#FD6A33"/>
<path d="M247.684 185.154H260.316L262 239.756L254 246.154L246 239.756L247.684 185.154Z" fill="#FD6A33"/>
<path d="M404.368 277H414.632L416 322.65L409.5 328L403 322.65L404.368 277Z" fill="#FD6A33"/>
<path d="M95.0526 353H102.947L104 389.699L99 394L94 389.699L95.0526 353Z" fill="#FD6A33"/>
<path fill-rule="evenodd" clip-rule="evenodd" d="M253.766 246.004L254.199 246.346L262.428 239.849L260.696 184.409H262.428L267.626 168.816H253.766V246.004Z" fill="#FF8C29"/>
<path fill-rule="evenodd" clip-rule="evenodd" d="M409.123 328.265L409.488 328.552L416.4 323.095L414.945 276.525H416.4L420.766 263.428H409.123V328.265Z" fill="#FF8C29"/>
<path fill-rule="evenodd" clip-rule="evenodd" d="M98.5117 394.01L98.7997 394.237L104.286 389.906L103.131 352.946H104.286L107.751 342.551H98.5117V394.01Z" fill="#FF8C29"/>
</svg>
