<svg width="512" height="512" viewBox="0 0 512 512" fill="none" xmlns="http://www.w3.org/2000/svg">
<path fill-rule="evenodd" clip-rule="evenodd" d="M18 287.776C20.7116 219.295 70.5519 164.725 131.5 164.725C192.448 164.725 242.288 219.295 245 287.776C244.984 328.477 202.556 387.735 167.487 436.714C153.193 456.677 140.122 474.932 131.644 489.528L131.5 489.279L131.356 489.528C122.878 474.932 109.807 456.677 95.5127 436.714C60.4437 387.735 18.0158 328.477 18 287.776ZM131.5 337.765L132.106 337.768C167.014 337.768 195.314 309.388 195.314 274.38C195.314 239.373 167.014 210.993 132.106 210.993L131.5 210.996L130.894 210.993C95.9857 210.993 67.6859 239.373 67.6859 274.38C67.6859 309.388 95.9857 337.768 130.894 337.768L131.5 337.765Z" fill="#FD6A33"/>
<path fill-rule="evenodd" clip-rule="evenodd" d="M131.502 489.024L131.5 489.02L131.356 489.268C122.878 474.741 109.807 456.572 95.5127 436.703C60.4437 387.955 18.0158 328.976 18 288.466C20.7116 220.309 70.5519 165.995 131.5 165.995C131.501 165.995 131.501 165.995 131.502 165.995V212.048H131.5L130.894 212.045C95.9857 212.045 67.6859 240.292 67.6859 275.134C67.6859 309.977 95.9857 338.223 130.894 338.223L131.5 338.22L131.502 338.22V489.024Z" fill="#F0353D"/>
<ellipse cx="131.498" cy="103.145" rx="85.7287" ry="88.1436" fill="#FFD1A9"/>
<path fill-rule="evenodd" clip-rule="evenodd" d="M55.1798 144.368C86.3524 135.661 128.482 107.051 138.744 76.2609C163.751 105.306 183.378 118.959 214.435 129.361C217.232 120.816 218.745 111.689 218.745 102.208C218.745 54.045 179.701 15.001 131.537 15.001C83.3741 15.001 44.3301 54.045 44.3301 102.208C44.3301 117.5 48.2659 131.872 55.1798 144.368Z" fill="#365558"/>
<path fill-rule="evenodd" clip-rule="evenodd" d="M131.502 316.994V232.888C131.333 232.886 131.163 232.885 130.993 232.885C107.767 232.885 88.9375 251.714 88.9375 274.941C88.9375 298.168 107.767 316.997 130.993 316.997C131.163 316.997 131.333 316.996 131.502 316.994Z" fill="#CDD4D5"/>
<path fill-rule="evenodd" clip-rule="evenodd" d="M131.496 316.994V232.888C131.665 232.886 131.835 232.885 132.005 232.885C155.232 232.885 174.061 251.714 174.061 274.941C174.061 298.168 155.232 316.997 132.005 316.997C131.835 316.997 131.665 316.996 131.496 316.994Z" fill="#E6EAEA"/>
<mask id="path-7-outside-1" maskUnits="userSpaceOnUse" x="199" y="192" width="309" height="316" fill="black">
<rect fill="white" x="199" y="192" width="309" height="316"/>
<path fill-rule="evenodd" clip-rule="evenodd" d="M336.802 280.006H370.412C374.955 275.612 377.779 269.451 377.779 262.632C377.779 249.282 366.957 238.46 353.607 238.46C340.257 238.46 329.435 249.282 329.435 262.632C329.435 269.451 332.259 275.612 336.802 280.006ZM302.852 280.006C300.987 274.557 299.975 268.713 299.975 262.632C299.975 233.012 323.987 209 353.607 209C383.227 209 407.239 233.012 407.239 262.632C407.239 268.713 406.227 274.557 404.362 280.006H447.707C464.489 280.006 478.42 292.971 479.624 309.71L490.128 455.705C491.461 474.234 476.788 490.001 458.21 490.001H249.002C230.424 490.001 215.751 474.234 217.084 455.705L227.587 309.71C228.792 292.971 242.723 280.006 259.505 280.006H302.852Z"/>
</mask>
<path fill-rule="evenodd" clip-rule="evenodd" d="M336.802 280.006H370.412C374.955 275.612 377.779 269.451 377.779 262.632C377.779 249.282 366.957 238.46 353.607 238.46C340.257 238.46 329.435 249.282 329.435 262.632C329.435 269.451 332.259 275.612 336.802 280.006ZM302.852 280.006C300.987 274.557 299.975 268.713 299.975 262.632C299.975 233.012 323.987 209 353.607 209C383.227 209 407.239 233.012 407.239 262.632C407.239 268.713 406.227 274.557 404.362 280.006H447.707C464.489 280.006 478.42 292.971 479.624 309.71L490.128 455.705C491.461 474.234 476.788 490.001 458.21 490.001H249.002C230.424 490.001 215.751 474.234 217.084 455.705L227.587 309.71C228.792 292.971 242.723 280.006 259.505 280.006H302.852Z" fill="#9BAAAB"/>
<path d="M336.802 280.006L324.982 292.225L329.925 297.006H336.802V280.006ZM370.412 280.006V297.006H377.289L382.232 292.225L370.412 280.006ZM302.852 280.006V297.006H326.638L318.936 274.502L302.852 280.006ZM404.362 280.006L388.278 274.502L380.576 297.006H404.362V280.006ZM479.624 309.71L496.581 308.49V308.49L479.624 309.71ZM490.128 455.705L507.084 454.485V454.485L490.128 455.705ZM217.084 455.705L200.128 454.485L217.084 455.705ZM227.587 309.71L210.631 308.49L227.587 309.71ZM336.802 297.006H370.412V263.006H336.802V297.006ZM382.232 292.225C389.948 284.76 394.779 274.245 394.779 262.632H360.779C360.779 264.658 359.961 266.464 358.592 267.788L382.232 292.225ZM394.779 262.632C394.779 239.893 376.346 221.46 353.607 221.46V255.46C357.568 255.46 360.779 258.671 360.779 262.632H394.779ZM353.607 221.46C330.868 221.46 312.435 239.893 312.435 262.632H346.435C346.435 258.671 349.646 255.46 353.607 255.46V221.46ZM312.435 262.632C312.435 274.245 317.265 284.76 324.982 292.225L348.622 267.788C347.253 266.464 346.435 264.658 346.435 262.632H312.435ZM282.975 262.632C282.975 270.61 284.305 278.314 286.768 285.511L318.936 274.502C317.67 270.801 316.975 266.815 316.975 262.632H282.975ZM353.607 192C314.598 192 282.975 223.623 282.975 262.632H316.975C316.975 242.401 333.376 226 353.607 226V192ZM424.239 262.632C424.239 223.623 392.616 192 353.607 192V226C373.838 226 390.239 242.401 390.239 262.632H424.239ZM420.446 285.511C422.909 278.314 424.239 270.61 424.239 262.632H390.239C390.239 266.815 389.544 270.801 388.278 274.502L420.446 285.511ZM404.362 297.006H447.707V263.006H404.362V297.006ZM447.707 297.006C455.574 297.006 462.104 303.084 462.668 310.93L496.581 308.49C494.737 282.859 473.405 263.006 447.707 263.006V297.006ZM462.668 310.93L473.171 456.924L507.084 454.485L496.581 308.49L462.668 310.93ZM473.171 456.924C473.796 465.61 466.918 473.001 458.21 473.001V507.001C486.657 507.001 509.125 482.858 507.084 454.485L473.171 456.924ZM458.21 473.001H249.002V507.001H458.21V473.001ZM249.002 473.001C240.293 473.001 233.415 465.61 234.04 456.924L200.128 454.485C198.087 482.858 220.555 507.001 249.002 507.001V473.001ZM234.04 456.924L244.544 310.93L210.631 308.49L200.128 454.485L234.04 456.924ZM244.544 310.93C245.108 303.084 251.638 297.006 259.505 297.006V263.006C233.807 263.006 212.475 282.859 210.631 308.49L244.544 310.93ZM259.505 297.006H302.852V263.006H259.505V297.006Z" fill="#2E2E2E" mask="url(#path-7-outside-1)"/>
<path fill-rule="evenodd" clip-rule="evenodd" d="M353.895 209.001C353.799 209 353.703 209 353.607 209C323.987 209 299.975 233.012 299.975 262.632C299.975 268.713 300.987 274.557 302.852 280.006H259.505C242.723 280.006 228.792 292.971 227.587 309.71L217.084 455.705C215.751 474.234 230.424 490.001 249.002 490.001H353.895V280.006H336.802C332.259 275.612 329.435 269.451 329.435 262.632C329.435 249.282 340.257 238.46 353.607 238.46C353.703 238.46 353.799 238.46 353.895 238.461V209.001Z" fill="#FD6A33"/>
<path fill-rule="evenodd" clip-rule="evenodd" d="M353.894 209.002C353.991 209.001 354.087 209.001 354.184 209.001C383.804 209.001 407.816 233.013 407.816 262.633C407.816 268.714 406.804 274.558 404.939 280.007H448.286C465.068 280.007 478.999 292.972 480.204 309.711L490.707 455.706C492.04 474.235 477.367 490.002 458.789 490.002H353.894V280.007H370.989C375.532 275.613 378.356 269.452 378.356 262.633C378.356 249.283 367.534 238.461 354.184 238.461C354.087 238.461 353.991 238.461 353.894 238.462V209.002Z" fill="#CDD4D5"/>
<mask id="path-11-outside-2" maskUnits="userSpaceOnUse" x="240.547" y="296.149" width="227.111" height="189.544" fill="black">
<rect fill="white" x="240.547" y="296.149" width="227.111" height="189.544"/>
<path fill-rule="evenodd" clip-rule="evenodd" d="M337.541 425.736L285.341 387.561L274.432 402.476L326.633 440.652L326.633 440.652L341.549 451.561L341.549 451.56L341.553 451.563L352.461 436.648L352.457 436.645L427.327 334.269L412.411 323.361L337.541 425.736Z"/>
</mask>
<path fill-rule="evenodd" clip-rule="evenodd" d="M337.541 425.736L285.341 387.561L274.432 402.476L326.633 440.652L326.633 440.652L341.549 451.561L341.549 451.56L341.553 451.563L352.461 436.648L352.457 436.645L427.327 334.269L412.411 323.361L337.541 425.736Z" fill="#E6EAEA"/>
<path d="M285.341 387.561L273.233 378.706L282.088 366.598L294.195 375.453L285.341 387.561ZM337.541 425.736L349.649 434.591L340.794 446.699L328.687 437.844L337.541 425.736ZM274.432 402.476L265.578 414.584L253.47 405.729L262.325 393.622L274.432 402.476ZM326.633 440.652L335.488 428.544L347.617 437.415L338.725 449.528L326.633 440.652ZM326.633 440.652L317.778 452.76L305.649 443.89L314.541 431.776L326.633 440.652ZM341.549 451.561L353.633 460.447L344.77 472.5L332.694 463.668L341.549 451.561ZM341.549 451.56L329.465 442.674L338.329 430.619L350.406 439.454L341.549 451.56ZM341.553 451.563L353.661 460.418L344.804 472.528L332.696 463.669L341.553 451.563ZM352.461 436.648L361.319 424.542L373.421 433.398L364.569 445.502L352.461 436.648ZM352.457 436.645L343.599 448.75L331.497 439.894L340.349 427.79L352.457 436.645ZM427.327 334.269L436.181 322.161L448.289 331.016L439.435 343.124L427.327 334.269ZM412.411 323.361L400.304 314.506L409.158 302.398L421.266 311.253L412.411 323.361ZM294.195 375.453L346.396 413.629L328.687 437.844L276.486 399.668L294.195 375.453ZM262.325 393.622L273.233 378.706L297.448 396.415L286.54 411.331L262.325 393.622ZM317.779 452.76L265.578 414.584L283.287 390.369L335.488 428.544L317.779 452.76ZM314.541 431.776L314.541 431.776L338.725 449.528L338.725 449.528L314.541 431.776ZM332.694 463.668L317.778 452.76L335.488 428.545L350.403 439.453L332.694 463.668ZM353.633 460.447L353.633 460.447L329.464 442.674L329.465 442.674L353.633 460.447ZM332.696 463.669L332.692 463.666L350.406 439.454L350.41 439.457L332.696 463.669ZM364.569 445.502L353.661 460.418L329.445 442.709L340.354 427.793L364.569 445.502ZM361.315 424.539L361.319 424.542L343.603 448.753L343.599 448.75L361.315 424.539ZM439.435 343.124L364.565 445.499L340.349 427.79L415.219 325.414L439.435 343.124ZM421.266 311.253L436.181 322.161L418.472 346.377L403.557 335.468L421.266 311.253ZM325.434 416.882L400.304 314.506L424.519 332.215L349.649 434.591L325.434 416.882Z" fill="#2E2E2E" mask="url(#path-11-outside-2)"/>
</svg>
