<svg width="512" height="512" viewBox="0 0 512 512" fill="none" xmlns="http://www.w3.org/2000/svg">
<rect x="143" y="189" width="89" height="166" fill="#E6EAEA"/>
<rect x="263" y="249" width="88" height="106" fill="#CDD4D5"/>
<rect x="24" y="302" width="89" height="53" fill="#9BAAAB"/>
<path d="M246 148.667L245.999 149L246 165H130L130.001 149L130 148.667V145.667H130.059C131.444 110.792 156.855 83 188 83C219.145 83 244.556 110.792 245.941 145.667H246V148.667Z" fill="#4ACFD9"/>
<path d="M356 213.455L355.999 213.732L356 227H259L259.001 213.732L259 213.455V210.967H259.049C260.208 182.047 281.456 159 307.5 159C333.544 159 354.792 182.047 355.951 210.967H356V213.455Z" fill="#4ACFD9"/>
<path d="M106 266.045L105.999 266.268L106 277H29L29.0009 266.268L29 266.045V264.033H29.0391C29.9588 240.641 46.8261 222 67.5 222C88.1739 222 105.041 240.641 105.961 264.033H106V266.045Z" fill="#4ACFD9"/>
<path fill-rule="evenodd" clip-rule="evenodd" d="M186.352 83.0645C156.123 84.0411 131.713 111.483 130.359 145.761H130.301V148.764L130.302 149.098L130.301 165.112H186.352V83.0645Z" fill="#0295AA"/>
<path fill-rule="evenodd" clip-rule="evenodd" d="M306.025 158.291C280.632 159.111 260.128 182.162 258.991 210.956H258.941V213.479L258.943 213.759L258.941 227.211H306.025V158.291Z" fill="#0295AA"/>
<path fill-rule="evenodd" clip-rule="evenodd" d="M66.7597 221.785C46.6073 222.437 30.3344 240.731 29.4317 263.583H29.3926V265.585L29.3934 265.807L29.3926 276.484H66.7597V221.785Z" fill="#0295AA"/>
<ellipse cx="188" cy="58" rx="40" ry="41" fill="#FFD1A9"/>
<ellipse cx="307.5" cy="137.5" rx="33.5" ry="34.5" fill="#FFD1A9"/>
<ellipse cx="68" cy="205.5" rx="27" ry="27.5" fill="#FFD1A9"/>
<path fill-rule="evenodd" clip-rule="evenodd" d="M152.673 76.8863C167.103 72.8563 186.607 59.6118 191.358 45.3577C202.934 58.8029 212.02 65.1234 226.396 69.9386C227.69 65.9831 228.391 61.7583 228.391 57.3701C228.391 35.0743 210.316 17 188.02 17C165.725 17 147.65 35.0743 147.65 57.3701C147.65 64.4488 149.472 71.102 152.673 76.8863Z" fill="#365558"/>
<path fill-rule="evenodd" clip-rule="evenodd" d="M277.732 153.103C289.854 149.718 306.237 138.592 310.227 126.619C319.951 137.913 327.583 143.222 339.66 147.267C340.747 143.944 341.335 140.396 341.335 136.71C341.335 117.981 326.153 102.799 307.425 102.799C288.696 102.799 273.514 117.981 273.514 136.71C273.514 142.656 275.044 148.244 277.732 153.103Z" fill="#365558"/>
<path fill-rule="evenodd" clip-rule="evenodd" d="M44.3049 217.666C53.9252 214.979 66.9272 206.149 70.0944 196.647C77.812 205.611 83.8692 209.824 93.454 213.034C94.3171 210.397 94.7838 207.581 94.7838 204.656C94.7838 189.792 82.7343 177.742 67.8704 177.742C53.0066 177.742 40.957 189.792 40.957 204.656C40.957 209.374 42.1715 213.81 44.3049 217.666Z" fill="#365558"/>
<path d="M180.75 110H193.25L197 99H177L180.75 110Z" fill="#FD6A33"/>
<path d="M300.188 181H310.812L314 172H297L300.188 181Z" fill="#FD6A33"/>
<path d="M62.4375 240H70.5625L73 233H60L62.4375 240Z" fill="#FD6A33"/>
<path d="M181.368 110H191.632L193 152.07L186.5 157L180 152.07L181.368 110Z" fill="#FD6A33"/>
<path d="M302.053 181H309.947L311 215.909L306 220L301 215.909L302.053 181Z" fill="#FD6A33"/>
<path d="M63.8421 240H70.1579L71 267.748L67 271L63 267.748L63.8421 240Z" fill="#FD6A33"/>
<path fill-rule="evenodd" clip-rule="evenodd" d="M186.354 157.197L186.688 157.461L193.027 152.457L191.692 109.751H193.027L197.031 97.7402H186.354V157.197Z" fill="#FF8C29"/>
<path fill-rule="evenodd" clip-rule="evenodd" d="M306.025 220.564L306.305 220.785L311.63 216.581L310.509 180.708H311.63L314.993 170.619H306.025V220.564Z" fill="#FF8C29"/>
<path fill-rule="evenodd" clip-rule="evenodd" d="M66.7598 271.206L66.9827 271.382L71.2087 268.046L70.319 239.576H71.2087L73.8778 231.568H66.7598V271.206Z" fill="#FF8C29"/>
<path d="M301.047 296.299C301.047 304.529 294.354 311.2 286.098 311.2H171.949C163.693 311.2 157 317.871 157 326.101V453.099C157 461.329 163.693 468 171.949 468H399.051C407.307 468 414 461.329 414 453.099V286.901C414 278.671 407.307 272 399.051 272H315.995C307.74 272 301.047 278.671 301.047 286.901V296.299Z" fill="#365558"/>
<path fill-rule="evenodd" clip-rule="evenodd" d="M286 468H399.051C407.307 468 414 461.329 414 453.099V286.901C414 278.671 407.307 272 399.051 272H315.995C307.74 272 301.047 278.671 301.047 286.901V296.299C301.047 304.529 294.354 311.2 286.098 311.2H286V468Z" fill="#9BAAAB"/>
<path d="M333.868 497H438V438H373.041H344.868C338.793 438 333.868 442.925 333.868 449C333.868 455.075 338.793 460 344.868 460H377.504V466.5H333.868L281.456 442.78C275.451 440.063 268.363 442.317 265.03 448.003C261.237 454.476 263.755 462.807 270.498 466.095L333.868 497Z" fill="#FFD1A9"/>
<rect x="435" y="434" width="67" height="68" fill="#4ACFD9"/>
<ellipse cx="453" cy="482.5" rx="10" ry="10.5" fill="#365558"/>
</svg>
