<svg id="Layer_3" data-name="Layer 3" xmlns="http://www.w3.org/2000/svg" viewBox="0 0 512 512"><defs><style>.cls-1{fill:#0295aa;}.cls-2{fill:#365558;}.cls-3{fill:#4acfd9;}.cls-4{fill:#ff8c29;}.cls-5{fill:#ffd1a9;}.cls-6{fill:#f96c4b;}.cls-7{fill:#f0353d;}.cls-8{fill:#cdd4d5;}.cls-9{fill:#9baaab;}.cls-10{fill:#fd6a33;}</style></defs><title>referral-program</title><path class="cls-1" d="M313.57,325l11.31-11.32,56.7,56.7-11.31,11.31Z"/><path class="cls-2" d="M127.39,138.74l11.32-11.31,60.45,60.45-11.32,11.31Z"/><path class="cls-2" d="M68.92,298.17l98.58-26.53,4.16,15.45L73.08,313.63Z"/><path class="cls-2" d="M179.11,391.51l29.53-59.06,14.3,7.15-29.53,59.06Z"/><path class="cls-1" d="M343.08,244.73l112.78-4.18.59,16-112.77,4.17Z"/><path class="cls-1" d="M292.29,173.38l28.63-52,14,7.71-28.63,52Z"/><path class="cls-3" d="M494.83,436.88c.17-1,.33-1.93.47-2.91.05-.36.09-.72.13-1.07.1-.77.19-1.53.26-2.3.05-.54.08-1.09.12-1.64s.08-1.21.11-1.82,0-1.32.05-2c0-.39,0-.77,0-1.16,0-.15,0-.31,0-.46,0-.63,0-1.26-.05-1.88s0-1.22-.07-1.83c0-.42-.06-.83-.09-1.25-.07-.83-.13-1.66-.22-2.48,0-.05,0-.1,0-.15a71.63,71.63,0,0,0-15.9-37.65h0c-.42-.51-.86-1-1.29-1.5a71.64,71.64,0,0,0-10.64-10l-.66-.52c-.37-.27-.75-.53-1.13-.79-.61-.44-1.22-.89-1.85-1.31l-.41-.26a71.4,71.4,0,0,0-29.25-11.15h0c-1.12-.16-2.25-.3-3.38-.41l-.84-.06c-.87-.07-1.74-.15-2.62-.19Q425.77,352,424,352c-1.23,0-2.45,0-3.67.09l-.63.05c-1,.06-2,.12-2.95.22l-1.37.17c-.71.09-1.43.17-2.13.27s-1.29.22-1.93.34-1,.17-1.52.27c-.77.15-1.53.33-2.29.51-.37.09-.74.16-1.11.26-.84.21-1.66.44-2.48.68l-.89.25c-.84.26-1.68.54-2.51.83l-.81.27c-.82.3-1.64.62-2.45.94l-.82.32c-.78.33-1.55.68-2.32,1l-.9.4c-.72.35-1.44.71-2.15,1.08l-1,.51c-.67.35-1.32.73-2,1.11l-1.08.62c-.62.37-1.23.76-1.83,1.15l-1.14.73c-.59.4-1.18.82-1.76,1.23l-1.09.77c-.62.47-1.23.95-1.84,1.43-.3.24-.6.46-.89.7-.74.61-1.47,1.24-2.18,1.87l-.43.37a72,72,0,1,0,118.9,66.81C494.78,437.15,494.8,437,494.83,436.88Z"/><circle class="cls-4" cx="424" cy="400" r="24"/><path class="cls-1" d="M158.83,100.88c.17-1,.33-1.93.47-2.91,0-.36.09-.72.13-1.07.1-.77.19-1.53.26-2.3.05-.54.08-1.09.12-1.64s.08-1.21.11-1.82,0-1.32.05-2c0-.39,0-.77,0-1.16,0-.16,0-.31,0-.46,0-.63,0-1.25-.05-1.88s0-1.22-.07-1.83c0-.42-.06-.83-.09-1.25-.07-.83-.13-1.66-.22-2.48,0,0,0-.1,0-.15A72.12,72.12,0,0,0,131.7,30.79l-.66-.52-1.12-.79c-.62-.44-1.23-.89-1.86-1.31l-.4-.26A71.64,71.64,0,0,0,98.4,16.76h0c-1.12-.16-2.25-.3-3.38-.41l-.83-.06c-.88-.07-1.75-.15-2.63-.19Q89.77,16,88,16c-1.23,0-2.45,0-3.67.09l-.63.05c-1,.06-2,.12-3,.22l-1.37.17c-.71.09-1.43.17-2.13.27s-1.29.22-1.93.34-1,.17-1.52.27c-.77.15-1.53.33-2.29.51-.37.09-.74.16-1.11.26-.84.21-1.66.44-2.48.68l-.89.25c-.84.26-1.68.54-2.51.83-.27.09-.54.17-.81.27-.82.3-1.64.62-2.45.94l-.82.32c-.78.33-1.55.68-2.32,1l-.9.4c-.72.35-1.44.71-2.15,1.08-.33.17-.66.33-1,.51-.67.35-1.32.73-2,1.11L51,26.22c-.62.37-1.23.76-1.84,1.15l-1.13.73c-.59.4-1.18.82-1.76,1.23l-1.09.77c-.62.47-1.23.95-1.84,1.43-.3.24-.6.46-.89.7-.74.61-1.47,1.24-2.19,1.88l-.42.36a72,72,0,1,0,118.9,66.81C158.78,101.15,158.8,101,158.83,100.88Z"/><circle class="cls-5" cx="88" cy="64" r="24"/><circle class="cls-3" cx="344" cy="96" r="40"/><circle class="cls-1" cx="168" cy="432" r="48"/><circle class="cls-1" cx="48" cy="312" r="32"/><circle class="cls-3" cx="472" cy="248" r="24"/><path class="cls-1" d="M208,312c0-30.93,21.49-56,48-56a32,32,0,0,1,0-64V160c-1.2,0-2.39,0-3.57.07l-.79,0c-1.18.06-2.35.13-3.52.22l-.43,0A96,96,0,0,0,256,352V312Z"/><path class="cls-3" d="M351.88,251.13c0-.1,0-.2,0-.3,0-.68-.08-1.36-.13-2,0-.2,0-.4-.05-.59,0-.58-.09-1.16-.15-1.73l-.09-.81c-.05-.5-.1-1-.17-1.49l-.12-1c-.06-.44-.12-.89-.19-1.33s-.1-.71-.16-1.06l-.21-1.24c-.06-.37-.12-.73-.19-1.1l-.24-1.23-.21-1c-.09-.45-.19-.89-.29-1.33s-.13-.61-.21-.91c-.11-.51-.24-1-.37-1.52-.05-.22-.11-.44-.16-.66l-.51-1.87c0-.09-.05-.19-.08-.28a95.38,95.38,0,0,0-32.79-49,96.52,96.52,0,0,0-11.61-7.85l-.3-.17c-1-.59-2.07-1.16-3.12-1.7l-1.06-.55-1.59-.8c-.82-.39-1.64-.78-2.48-1.15l-1.13-.5c-.86-.37-1.72-.74-2.59-1.08l-.61-.25c-1-.41-2.1-.79-3.16-1.17l-.61-.21c-1.11-.39-2.23-.75-3.36-1.09l-.48-.14c-2.37-.71-4.77-1.32-7.21-1.85l-.41-.09c-1.16-.24-2.33-.46-3.5-.66l-.66-.11c-1.16-.19-2.32-.37-3.5-.52l-.42,0c-1-.13-2.08-.24-3.12-.33l-.88-.08c-1.09-.09-2.19-.15-3.3-.2l-.94,0c-1.16,0-2.33-.07-3.5-.07v32a32,32,0,0,1,0,64c26.51,0,48,25.07,48,56H256v40a96,96,0,0,0,95.74-88.85c0-.24,0-.47,0-.71,0-.51.07-1,.1-1.55C352,257.64,352,254.38,351.88,251.13Z"/><path class="cls-5" d="M288,224a32,32,0,0,0-32-32v64A32,32,0,0,0,288,224Z"/><path class="cls-6" d="M224,224a32,32,0,0,0,32,32V192A32,32,0,0,0,224,224Z"/><path class="cls-2" d="M208,312h48V256C229.49,256,208,281.07,208,312Z"/><path class="cls-7" d="M304,312c0-30.93-21.49-56-48-56v56Z"/><path class="cls-8" d="M424,424v40h40A40,40,0,0,0,424,424Z"/><path class="cls-9" d="M384,464h40V424A40,40,0,0,0,384,464Z"/><path class="cls-10" d="M48,128H88V88A40,40,0,0,0,48,128Z"/><path class="cls-4" d="M88,88v40h40A40,40,0,0,0,88,88Z"/></svg>