<svg id="Layer_1" data-name="Layer 1" xmlns="http://www.w3.org/2000/svg" viewBox="0 0 512 512"><defs><style>.cls-1{fill:none;}.cls-2{fill:#4acfd9;}.cls-3{fill:#fd6a33;}.cls-4{fill:#cdd4d5;}.cls-5{fill:#afafaf;}.cls-6{fill:#ffb69f;}.cls-7{fill:#f0353d;}.cls-8{fill:#0295aa;}.cls-9{fill:#365558;}.cls-10{fill:#ffd1a9;}.cls-11{fill:#ff8c29;}.cls-12{fill:#9baaab;}.cls-13{fill:#e6eaea;}</style></defs><title>referral-program</title><path class="cls-1" d="M470.73,29.38h-.44l.44.4Z"/><path class="cls-2" d="M231.27,258.1c0-62.69-50.38-113.53-112.59-113.55h0v51.17h26.23a11.58,11.58,0,0,0,11.34-9.47,5.37,5.37,0,0,1,.84-2,5.28,5.28,0,0,1,7.33-1.44l.06,0,8.89,6.13a29.64,29.64,0,0,1,4.14,3.44,30.58,30.58,0,0,1,.29,43l-4.59,4.71V254a19.61,19.61,0,1,1-.36,39.22h-1.47a54.43,54.43,0,0,1-52.7,40.88v11.45a86.93,86.93,0,0,0,38.76-9.15,5.3,5.3,0,0,1,7.15,2.26l0,0a5.37,5.37,0,0,1-2.28,7.22l-.15.08a97.59,97.59,0,0,1-43.5,10.27v15.28C180.84,371.54,231.25,320.76,231.27,258.1Zm-43.65,69.43c-2.13,2.14-4.36,4.19-6.65,6.11a5.31,5.31,0,0,1-7.47-.66l0,0a5.39,5.39,0,0,1,.69-7.55h0c2-1.71,4-3.55,5.93-5.45a5.29,5.29,0,0,1,7.48.09l0,0A5.39,5.39,0,0,1,187.62,327.53Z"/><path class="cls-3" d="M16.63,306.2a112.59,112.59,0,0,0,102,65.36h.07V356.28h0c-53.88,0-97.54-44-97.51-98.35a98.68,98.68,0,0,1,28.53-69.42,5.28,5.28,0,0,1,7.47,0l.05,0a5.38,5.38,0,0,1,0,7.58h0a88,88,0,0,0,0,123.91,86.53,86.53,0,0,0,61.37,25.61h0v-11.5a54.55,54.55,0,0,1-52.59-40.88H64.58A19.62,19.62,0,0,1,64.22,254V223.57a27.78,27.78,0,0,1,27.63-27.85h26.81V144.55C56.46,144.53,6,195.32,6,258c0,2.91.13,5.89.34,8.85v.5a5.34,5.34,0,0,1-4.73,5.46,118.69,118.69,0,0,0,8.11,30.76A5.42,5.42,0,0,1,16.63,306.2Z"/><path class="cls-4" d="M170.21,227.85a18.9,18.9,0,0,0,2.2-2.68,19.78,19.78,0,0,0-5.06-27.37L164,195.47a22.18,22.18,0,0,1-19.08,11H118.66v26.1h47Z"/><path class="cls-5" d="M91.85,206.44a17.07,17.07,0,0,0-17,17.12v9h43.8v-26.1Z"/><path class="cls-6" d="M64.21,264.71a8.9,8.9,0,0,0,.1,17.79c-.06-1.08-.1-2.16-.1-3.26Z"/><path class="cls-6" d="M181.65,273.6a8.88,8.88,0,0,0-8.47-8.89v14.53c0,1.09,0,2.19-.1,3.26A8.89,8.89,0,0,0,181.65,273.6Z"/><path class="cls-6" d="M74.85,279.24a44,44,0,0,0,43.81,44.18V310.47A20.59,20.59,0,0,1,99.4,297a5.34,5.34,0,0,1,10-3.73h0a10,10,0,0,0,5.81,5.84,9.78,9.78,0,0,0,3.47.63V284.8a5.32,5.32,0,0,1-5.28-5.35v-13.3a5.32,5.32,0,0,1,5.28-5.35V243.27H74.85Zm15.65-16a5.32,5.32,0,0,1,10.64,0h0v2.91a5.32,5.32,0,0,1-10.64,0h0Z"/><path class="cls-6" d="M118.69,260.79a5.34,5.34,0,0,1,5.32,5.36h0v13.3a5.34,5.34,0,0,1-5.32,5.36h0v14.95a10,10,0,0,0,9.38-6.5A5.33,5.33,0,0,1,138.36,296a5.56,5.56,0,0,1-.36,1,20.72,20.72,0,0,1-12.07,12.14,20.06,20.06,0,0,1-7.27,1.3v12.95h0a44,44,0,0,0,43.85-44.15v-36H118.66V260.8Zm17.56,2.45a5.32,5.32,0,0,1,10.64,0h0v2.91a5.32,5.32,0,0,1-10.64,0h0Z"/><path class="cls-7" d="M118.64,345.56A86.56,86.56,0,0,1,57.27,320a88.05,88.05,0,0,1-.09-123.86h0a5.38,5.38,0,0,0,0-7.58,5.28,5.28,0,0,0-7.47-.05l-.05.05A98.68,98.68,0,0,0,21.13,258c0,54.3,43.63,98.33,97.51,98.35h0Z"/><path class="cls-8" d="M180.1,320c-1.89,1.9-3.89,3.74-5.93,5.45h0a5.39,5.39,0,0,0-.69,7.55,5.29,5.29,0,0,0,7.46.71l0,0c2.29-1.92,4.52-4,6.65-6.11a5.39,5.39,0,0,0,0-7.45,5.29,5.29,0,0,0-7.48-.17Z"/><path class="cls-8" d="M162.31,345.93a5.37,5.37,0,0,0,2.28-7.22,5.3,5.3,0,0,0-7.13-2.32l0,0a86.93,86.93,0,0,1-38.76,9.15v10.72A97.47,97.47,0,0,0,162.16,346Z"/><path class="cls-9" d="M138,297a5.35,5.35,0,0,0-10-3.78h0a10,10,0,0,1-9.38,6.5v10.72a20.06,20.06,0,0,0,7.27-1.3A20.7,20.7,0,0,0,138,297Z"/><path class="cls-9" d="M115.19,299.12a10,10,0,0,1-5.81-5.84,5.34,5.34,0,0,0-10,3.73h0a20.59,20.59,0,0,0,19.26,13.46V299.75A9.89,9.89,0,0,1,115.19,299.12Z"/><path class="cls-9" d="M70.29,287.86H64.57a14.26,14.26,0,0,1,0-28.51h5V237.92h0V223.57a22.42,22.42,0,0,1,22.32-22.49h26.82v-5.36H91.85a27.78,27.78,0,0,0-27.63,27.85V254a19.61,19.61,0,1,0,.36,39.22h1.49a54.55,54.55,0,0,0,52.59,40.88v-5.38A49.26,49.26,0,0,1,70.29,287.86Z"/><path class="cls-9" d="M132.6,332.29a54.67,54.67,0,0,0,38.76-39.06h1.47a19.61,19.61,0,1,0,.36-39.22V240.1l4.59-4.71a30.58,30.58,0,0,0-.29-43,29.64,29.64,0,0,0-4.14-3.44l-8.89-6.13a5.28,5.28,0,0,0-7.35,1.34l0,.06a5.37,5.37,0,0,0-.84,2,11.58,11.58,0,0,1-11.34,9.47H118.66v5.36h26.23a16.93,16.93,0,0,0,16.58-13.83l8.89,6.13a25.16,25.16,0,0,1,6.44,34.81,24.86,24.86,0,0,1-2.8,3.42l-6.15,6.31v21.43h5a14.26,14.26,0,0,1,0,28.51h-5.73A49.33,49.33,0,0,1,127.27,328a47.76,47.76,0,0,1-8.61.75v5.38A53.79,53.79,0,0,0,132.6,332.29Z"/><path class="cls-9" d="M144.89,206.44a22.18,22.18,0,0,0,19.08-11l3.38,2.33a19.78,19.78,0,0,1,5.06,27.37,18.9,18.9,0,0,1-2.2,2.68l-4.58,4.69h-47v5.37h49.19l6.15-6.31a24.86,24.86,0,0,0,2.8-3.42,25.16,25.16,0,0,0-6.44-34.81l-8.89-6.13A16.93,16.93,0,0,1,144.86,201h-26.2v5.36Z"/><path class="cls-9" d="M69.52,223.57v14.34h49.14v-5.37H74.86v-9a17.07,17.07,0,0,1,17-17.12h26.81v-5.36H91.84A22.42,22.42,0,0,0,69.52,223.57Z"/><path class="cls-9" d="M118.66,243.27h43.88v36a44,44,0,0,1-43.82,44.18h0v5.31a47.76,47.76,0,0,0,8.61-.75,49.32,49.32,0,0,0,39.81-40.12h5.73a14.26,14.26,0,0,0,0-28.51h-5V237.92H118.66Zm54.52,36V264.71a8.9,8.9,0,0,1-.1,17.79c.06-1.07.1-2.17.1-3.26Z"/><path class="cls-9" d="M74.85,279.24v-36h43.81v-5.35H69.52v21.43h-5a14.26,14.26,0,0,0,0,28.51h5.72a49.25,49.25,0,0,0,48.37,40.87v-5.31A44,44,0,0,1,74.85,279.24ZM55.74,273.6a8.88,8.88,0,0,1,8.47-8.89v14.53c0,1.1,0,2.18.1,3.26A8.89,8.89,0,0,1,55.74,273.6Z"/><rect class="cls-9" x="69.52" y="237.91" width="49.14" height="0.01"/><rect class="cls-9" x="118.66" y="237.91" width="49.19" height="0.01"/><path class="cls-9" d="M95.82,271.51a5.34,5.34,0,0,0,5.32-5.36h0v-2.91a5.32,5.32,0,0,0-10.64,0h0v2.91a5.34,5.34,0,0,0,5.32,5.36Z"/><path class="cls-9" d="M141.57,271.51a5.34,5.34,0,0,0,5.32-5.36h0v-2.91a5.32,5.32,0,0,0-10.64,0h0v2.91a5.34,5.34,0,0,0,5.32,5.36Z"/><path class="cls-9" d="M124,279.45v-13.3a5.34,5.34,0,0,0-5.32-5.36h0v24h0A5.34,5.34,0,0,0,124,279.45Z"/><path class="cls-9" d="M113.38,266.15v13.3a5.32,5.32,0,0,0,5.28,5.35v-24A5.32,5.32,0,0,0,113.38,266.15Z"/><path class="cls-2" d="M452,296.15a111.87,111.87,0,0,0-58.71-16.62v52.32a11.69,11.69,0,0,0,6.93-2.28c20.21-14.33,46.18.85,46.19,24.82v19.39a22.12,22.12,0,0,1-.82,44.14,53.33,53.33,0,0,1-43,43.33,52.7,52.7,0,0,1-9.3.81v18.57A86.11,86.11,0,0,0,432,471.5a5.29,5.29,0,0,1,7.08,2.41l0,0a5.38,5.38,0,0,1-2.37,7.14,97,97,0,0,1-43.36,10.26h-.13v15.29A111.53,111.53,0,0,0,452,490c53.13-32.67,69.92-102.55,37.51-156.08a5.37,5.37,0,0,1,1.66-7.3,120.32,120.32,0,0,0-9-11.85v11.45a5.32,5.32,0,1,1-10.64,0V314.31h-11.9a5.36,5.36,0,0,1,0-10.72H471a116.32,116.32,0,0,0-11.69-9.07,5.29,5.29,0,0,1-7.3,1.64Zm10.37,166.33a.8.8,0,0,0-.13.13c-2.11,2.12-4.35,4.18-6.64,6.11a5.28,5.28,0,0,1-7.44-.63l-.05-.06h0a5.38,5.38,0,0,1,.68-7.54c2-1.72,4-3.56,5.93-5.46a5.29,5.29,0,0,1,7.48-.17l0,0a5.39,5.39,0,0,1,.13,7.58Z"/><path class="cls-8" d="M295.74,393.19a98.66,98.66,0,0,1,28.53-69.6,5.28,5.28,0,0,1,7.47,0l.05,0a5.38,5.38,0,0,1,0,7.58h0A88.09,88.09,0,0,0,332,455.08a86.55,86.55,0,0,0,61.29,25.55V462.06A53.23,53.23,0,0,1,341,417.92a22.12,22.12,0,0,1-.81-44.14V354.39a29.62,29.62,0,0,1,5.34-17.73,29.14,29.14,0,0,1,40.55-7.28l.25.18a11.82,11.82,0,0,0,7,2.29V279.53a112,112,0,0,0-58.69,16.61c-53.13,32.67-69.92,102.55-37.5,156.08a112.43,112.43,0,0,0,96.19,54.43V491.36C339.47,491.36,295.81,447.44,295.74,393.19Z"/><path class="cls-10" d="M393.3,393.39a5.34,5.34,0,0,1,5.32,5.36h0v13.3a5.33,5.33,0,0,1-5.3,5.36h0v11.66h0a10,10,0,0,0,9.32-6.49,5.42,5.42,0,0,1,6.85-3.15h0a5.35,5.35,0,0,1,3.07,6.89,20.72,20.72,0,0,1-12.06,12.15,20.37,20.37,0,0,1-7.24,1.3V451a42.62,42.62,0,0,0,42.48-42.48V392.6a18.91,18.91,0,0,0-3.41-10.73,18.52,18.52,0,0,0-25.79-4.65l-.21.15a22.37,22.37,0,0,1-13.09,4.23v11.75Zm17.55,2.44a5.32,5.32,0,0,1,10.64,0v2.92a5.32,5.32,0,0,1-10.64,0Z"/><path class="cls-10" d="M350.82,392.65v15.91A42.64,42.64,0,0,0,393,451.05h.3V439.78A20.59,20.59,0,0,1,374,426.31a5.36,5.36,0,0,1,3.14-6.88,5.42,5.42,0,0,1,6.84,3.15,9.86,9.86,0,0,0,9.31,6.49V417.41a5.33,5.33,0,0,1-5.31-5.35h0v-13.3a5.34,5.34,0,0,1,5.31-5.36V381.64a22.4,22.4,0,0,1-13.1-4.23C368.78,368.77,350.82,377,350.82,392.65Zm24.92,6.1a5.32,5.32,0,0,1-10.64,0h0v-2.92a5.32,5.32,0,0,1,10.64,0Z"/><path class="cls-10" d="M456,395.83h0a11.42,11.42,0,0,0-9.61-11.29v22.57A11.41,11.41,0,0,0,456,395.83Z"/><path class="cls-10" d="M330.73,394.08a11.41,11.41,0,0,0,9.46,13V384.55A11.36,11.36,0,0,0,330.73,394.08Z"/><path class="cls-11" d="M482.58,41.9l.1.12v3.43A118.34,118.34,0,0,1,490.6,56.9c.45.75.9,1.5,1.34,2.25A5.33,5.33,0,0,1,494,56.9a118.71,118.71,0,0,0-10.93-15.16h-.51Z"/><path class="cls-11" d="M457.94,21.75a116.13,116.13,0,0,1,9.64,7.63h3.15v-.23a117.54,117.54,0,0,0-11.42-8.84A5.37,5.37,0,0,1,457.94,21.75Z"/><path class="cls-11" d="M457.63,29.38h-1.41a5.35,5.35,0,0,0-3.56,9.31,6.07,6.07,0,0,1,1.86-8.37,6.13,6.13,0,0,1,3.14-.94Z"/><path class="cls-11" d="M470.83,41.48h-2.76V52a5.34,5.34,0,0,0,3.1,4.87,6.46,6.46,0,0,1-.34-2Z"/><path class="cls-12" d="M380.16,338.29c-12.46-8.9-29.34.14-29.34,16.1V370a28.84,28.84,0,0,1,35.66-1.27,11.62,11.62,0,0,0,6.81,2.2v-28.4A22.43,22.43,0,0,1,380.16,338.29Z"/><path class="cls-4" d="M400.23,368.66a29.17,29.17,0,0,1,35.54,1.26V354.39c0-15.44-16.45-25.26-29.39-16.08a22.42,22.42,0,0,1-13.08,4.22v28.41a11.71,11.71,0,0,0,6.92-2.26Z"/><path class="cls-13" d="M393.42,491.36a97,97,0,0,0,43.36-10.26,5.38,5.38,0,0,0,2.37-7.14,5.29,5.29,0,0,0-7-2.51l-.1.05a86.18,86.18,0,0,1-38.75,9.13v10.73Z"/><path class="cls-13" d="M454.72,455c-1.89,1.9-3.88,3.74-5.93,5.46a5.38,5.38,0,0,0-.68,7.54h0a5.27,5.27,0,0,0,7.43.74l.06-.05c2.29-1.93,4.53-4,6.64-6.11a.8.8,0,0,1,.13-.13,5.39,5.39,0,0,0-.13-7.58,5.29,5.29,0,0,0-7.48.09Z"/><path class="cls-9" d="M331.79,331.17h0a5.38,5.38,0,0,0,0-7.58,5.28,5.28,0,0,0-7.47,0l-.05,0a98.66,98.66,0,0,0-28.53,69.6c.07,54.25,43.73,98.17,97.55,98.17V480.63A86.55,86.55,0,0,1,332,455.08,88.09,88.09,0,0,1,331.79,331.17Z"/><path class="cls-11" d="M482.12,314.79v-.48H494a5.36,5.36,0,0,0,0-10.72H482.12V291.65a5.32,5.32,0,0,0-10.64,0v11.94H471A117.56,117.56,0,0,1,482.12,314.79Z"/><path class="cls-11" d="M454.31,309a5.34,5.34,0,0,0,5.32,5.36h11.85v11.93a5.32,5.32,0,0,0,10.64,0h0v-11.5A117.56,117.56,0,0,0,471,303.59H459.63a5.34,5.34,0,0,0-5.32,5.36Z"/><path class="cls-2" d="M491.16,326.64a5.37,5.37,0,0,0-1.66,7.3C521.91,387.47,505.12,457.35,452,490a111.55,111.55,0,0,1-58.7,16.63V512h0c65.18,0,118-53.25,118-118.92A119.51,119.51,0,0,0,494,331.14C493.11,329.61,492.14,328.11,491.16,326.64Z"/><path class="cls-8" d="M297.1,452.22c-32.42-53.53-15.63-123.41,37.5-156.08a112,112,0,0,1,58.69-16.61v-5.36c-65.18,0-118,53.25-118,118.92S328.12,512,393.29,512v-5.35A112.43,112.43,0,0,1,297.1,452.22Z"/><path class="cls-2" d="M452,296.15a5.28,5.28,0,0,0,7.3-1.63,117.29,117.29,0,0,0-66-20.35h0v5.36A111.84,111.84,0,0,1,452,296.15Z"/><path class="cls-11" d="M491.94,59.15c.46.8.92,1.61,1.37,2.43a119.51,119.51,0,0,1,14.59,57.3c0,64.49-51,117-114.6,118.74h.05c65.13,0,118-53.16,118-118.79a119.74,119.74,0,0,0-14.59-57.3C495.86,60,495,58.44,494,56.9A5.33,5.33,0,0,0,491.94,59.15Z"/><path class="cls-11" d="M455.89,20.31c.69.47,1.37,1,2.05,1.44a5.37,5.37,0,0,0,1.37-1.44A117.28,117.28,0,0,0,393.43,0h-.13V.06A117.28,117.28,0,0,1,455.89,20.31Z"/><path class="cls-9" d="M412.59,426.33a5.35,5.35,0,0,0-3.07-6.89h0a5.42,5.42,0,0,0-6.85,3.15,10,10,0,0,1-9.32,6.49h0v10.71a20.37,20.37,0,0,0,7.24-1.3A20.74,20.74,0,0,0,412.59,426.33Z"/><path class="cls-9" d="M384,422.58a5.42,5.42,0,0,0-6.84-3.15,5.36,5.36,0,0,0-3.14,6.88,20.6,20.6,0,0,0,19.29,13.47V429.07A9.86,9.86,0,0,1,384,422.58Z"/><path class="cls-9" d="M370.42,390.47a5.35,5.35,0,0,0-5.32,5.36v2.92a5.32,5.32,0,0,0,10.64,0h0v-2.92a5.34,5.34,0,0,0-5.32-5.36Z"/><path class="cls-9" d="M416.17,404.11a5.34,5.34,0,0,0,5.32-5.36h0v-2.92a5.32,5.32,0,0,0-10.64,0v2.92a5.34,5.34,0,0,0,5.32,5.36Z"/><path class="cls-9" d="M388,398.75v13.3a5.33,5.33,0,0,0,5.3,5.36h0v-24A5.34,5.34,0,0,0,388,398.75Z"/><path class="cls-9" d="M398.62,412.05v-13.3a5.34,5.34,0,0,0-5.32-5.36h0v24h0a5.33,5.33,0,0,0,5.32-5.34Z"/><path d="M434.5,376.05a23.65,23.65,0,0,1,2.33,2.86l.11.14-.11-.14A23.65,23.65,0,0,0,434.5,376.05Z"/><path d="M434.5,376.05a24.41,24.41,0,0,0-2.67-2.41A24.41,24.41,0,0,1,434.5,376.05Z"/><path class="cls-9" d="M403.32,333.92c16.4-11.62,37.76.69,37.76,20.48v24.65h3.6a16.72,16.72,0,0,1,16.64,16.77h0a16.7,16.7,0,0,1-16.63,16.77h-3.78a47.93,47.93,0,0,1-47.62,44.08V462a52.7,52.7,0,0,0,9.3-.81,53.33,53.33,0,0,0,43-43.33,22.12,22.12,0,0,0,.82-44.14V354.39c0-24-26-39.15-46.19-24.82a11.69,11.69,0,0,1-6.93,2.28v5.35A17,17,0,0,0,403.32,333.92Z"/><path d="M425.73,370.2a24.12,24.12,0,0,0-9.05-1.58A24.12,24.12,0,0,1,425.73,370.2Z"/><path d="M345.5,392.65c0-.61,0-1.22.06-1.82C345.56,391.43,345.5,392,345.5,392.65Z"/><path class="cls-9" d="M345.54,336.66a29.62,29.62,0,0,0-5.34,17.73v19.39a22.12,22.12,0,0,0,.81,44.14,53.22,53.22,0,0,0,52.28,44.14v-5.37a33.28,33.28,0,0,1-4-.16,48,48,0,0,1-43.58-43.92H342a16.78,16.78,0,0,1,0-33.56h3.6V354.4a24.37,24.37,0,0,1,4.36-14.62,23.85,23.85,0,0,1,33.19-6l.2.14a17,17,0,0,0,10,3.28v-5.35a11.82,11.82,0,0,1-7-2.29,29.14,29.14,0,0,0-40.62,6.88Z"/><path d="M441.08,392.65h0c0-.61,0-1.21-.05-1.82C441.07,391.44,441.09,392,441.08,392.65Z"/><path class="cls-9" d="M393,451.05a42.63,42.63,0,0,1-42.17-42.49V392.65c0-15.62,18-23.88,29.37-15.24a22.4,22.4,0,0,0,13.1,4.23v-5.33a17,17,0,0,1-10-3.28,20.89,20.89,0,0,0-2.38-1.58c-.4-.23-.8-.45-1.21-.65a21.69,21.69,0,0,0-2.48-1.05,23.77,23.77,0,0,0-2.5-.71q-.63-.14-1.26-.24a23.62,23.62,0,0,0-2.52-.25,23.26,23.26,0,0,0-3.73.12,27.49,27.49,0,0,0-3.6.67c-.78.21-1.54.45-2.29.72-.37.13-.74.27-1.1.42a21.65,21.65,0,0,0-2.12,1l-1,.55c-.66.38-1.29.79-1.89,1.21-.3.21-.59.43-.87.65-.57.44-1.11.91-1.61,1.38a16.65,16.65,0,0,0-3,3.79,23.44,23.44,0,0,0-4.14,11.78c0,.6-.06,1.21-.06,1.82h0v-13.6h-3.6a16.78,16.78,0,0,0,0,33.56h3.75a48,48,0,0,0,43.58,43.92c1.35.12,2.69.16,4,.16V451Zm-52.8-58.4v14.47a11.43,11.43,0,0,1,0-22.57Z"/><path class="cls-9" d="M440.91,412.61h3.78a16.7,16.7,0,0,0,16.63-16.77h0a16.72,16.72,0,0,0-16.64-16.77h-3.6v13.6h0c0-.61,0-1.21-.05-1.82s-.11-1.2-.19-1.79a23.81,23.81,0,0,0-3.9-10l-.11-.14a23.65,23.65,0,0,0-2.33-2.86,24.41,24.41,0,0,0-2.67-2.41,23.83,23.83,0,0,0-6.1-3.44,24.12,24.12,0,0,0-9.05-1.58,22.39,22.39,0,0,0-2.31.15,23.11,23.11,0,0,0-4.58,1,23.85,23.85,0,0,0-6.47,3.26,16.89,16.89,0,0,1-10,3.28v5.33a22.37,22.37,0,0,0,13.09-4.23,18.53,18.53,0,0,1,25.85,4.29l.15.21a18.91,18.91,0,0,1,3.41,10.73v15.92A42.62,42.62,0,0,1,393.29,451v5.65A47.92,47.92,0,0,0,440.91,412.61Zm5.49-19.92v-8.15a11.41,11.41,0,0,1,9.6,11.29h0a11.4,11.4,0,0,1-9.6,11.28Z"/><path class="cls-9" d="M345.56,390.83a23.44,23.44,0,0,1,4.14-11.78,16.65,16.65,0,0,1,3-3.79,15.89,15.89,0,0,1,1.61-1.38c.28-.22.57-.44.87-.65.6-.42,1.23-.83,1.89-1.21l1-.55c.68-.36,1.39-.69,2.12-1,.36-.15.73-.29,1.1-.42.75-.27,1.51-.51,2.29-.72a27.49,27.49,0,0,1,3.6-.67,23.26,23.26,0,0,1,3.73-.12,23.62,23.62,0,0,1,2.52.25l1.26.24a23.77,23.77,0,0,1,2.5.71,21.69,21.69,0,0,1,2.48,1.05c.41.2.81.42,1.21.65a20.89,20.89,0,0,1,2.38,1.58,17,17,0,0,0,10,3.28v-5.37a11.65,11.65,0,0,1-6.81-2.2A28.84,28.84,0,0,0,350.82,370V354.39c0-16,16.88-25,29.34-16.1a22.43,22.43,0,0,0,13.13,4.24V337.2a17,17,0,0,1-10-3.28A23.85,23.85,0,0,0,350,339.58l-.14.2a24.37,24.37,0,0,0-4.36,14.62v38.25A13.72,13.72,0,0,1,345.56,390.83Z"/><path class="cls-9" d="M406.37,338.31c12.94-9.18,29.39.64,29.39,16.08v15.53a29.17,29.17,0,0,0-35.54-1.26h0a11.71,11.71,0,0,1-6.92,2.26v5.37a16.89,16.89,0,0,0,10-3.28,23.85,23.85,0,0,1,6.47-3.26,23.11,23.11,0,0,1,4.58-1,22.39,22.39,0,0,1,2.31-.15,24.12,24.12,0,0,1,9,1.58,23.83,23.83,0,0,1,6.1,3.44,24.41,24.41,0,0,1,2.67,2.41,23.65,23.65,0,0,1,2.33,2.86l.11.14a23.81,23.81,0,0,1,3.9,10c.08.59.15,1.19.19,1.79s.06,1.21.05,1.82V354.4c0-19.79-21.36-32.1-37.76-20.48a17,17,0,0,1-10,3.28v5.33A22.39,22.39,0,0,0,406.37,338.31Z"/><path class="cls-11" d="M453.11,22.47a5.23,5.23,0,0,1-4.52-.53A112.11,112.11,0,0,0,393.3,5.39V47.82h.15c38.1,0,68.94,31.2,68.89,69.59V155.6a5.34,5.34,0,0,1-5.28,5.4h-22.3a44.42,44.42,0,0,1-26,26.18A43.89,43.89,0,0,1,393.3,190v16.4a87.12,87.12,0,0,0,35.31-9.07,12.19,12.19,0,0,1,10.54,2.47,5.39,5.39,0,0,1-2.38,7.13A97.73,97.73,0,0,1,393.3,217.2v15.33a111.37,111.37,0,0,0,50.91-14c54.56-30.24,74.46-99.32,44.44-154.29l-.06-.12a5.38,5.38,0,0,1,2-7.15,118.34,118.34,0,0,0-7.92-11.45V55a6,6,0,0,1-5.92,6h0a5.94,5.94,0,0,1-5.58-4.1,5.34,5.34,0,0,1-3.1-4.87V41.48H457.63a5.86,5.86,0,0,1-5-2.79,5.35,5.35,0,0,1,3.56-9.31h11.36a116.13,116.13,0,0,0-9.64-7.63A5.28,5.28,0,0,1,453.11,22.47Zm9.12,165.94c-2.13,2.13-4.35,4.19-6.65,6.11a12.41,12.41,0,0,1-10.9-.69,5.41,5.41,0,0,1,.68-7.55c2.05-1.71,4.05-3.55,5.93-5.45a12.44,12.44,0,0,1,10.94,0,5.66,5.66,0,0,1,0,7.58Z"/><path class="cls-11" d="M393.3,217.16h-3.41v15.32h3.41Z"/><path class="cls-11" d="M389.89,47.82h3.37V5.39h-3.41Z"/><path class="cls-11" d="M389.89,190v16.39c.68,0,1.37.05,2.06.06h1.35V190A11.83,11.83,0,0,1,392,190C391.27,189.94,390.58,190,389.89,190Z"/><path class="cls-11" d="M456.76,179.56a5.28,5.28,0,0,1,2.05,1.27,5.38,5.38,0,0,1,0,7.58c-2.12,2.13-4.35,4.19-6.64,6.11a5.2,5.2,0,0,1-1.69.94,5.24,5.24,0,0,0,5.1-.94c2.3-1.92,4.52-4,6.65-6.11a5.38,5.38,0,0,0,0-7.58A5.28,5.28,0,0,0,456.76,179.56Z"/><path class="cls-11" d="M392,217.13h1.34v-.07Z"/><path class="cls-11" d="M392,206.41c-.69,0-1.38,0-2.06-.06v.09Z"/><path class="cls-11" d="M435.73,199.76a5.39,5.39,0,0,1-2.38,7.13,97.55,97.55,0,0,1-40.05,10.2v.07a97.73,97.73,0,0,0,43.47-10.27,5.39,5.39,0,0,0,2.38-7.13,5.3,5.3,0,0,0-6.46-2.72A5.36,5.36,0,0,1,435.73,199.76Z"/><path class="cls-11" d="M391.51,5.36h-1.62v.06Z"/><path class="cls-11" d="M453.11,22.47a5.24,5.24,0,0,0,4.83-.72c-.68-.48-1.36-1-2.05-1.44A5.24,5.24,0,0,1,453.11,22.47Z"/><path class="cls-11" d="M392,189.91c.44,0,.89.05,1.33.05v-.14Z"/><path class="cls-11" d="M458.93,117.41V155.6a5.34,5.34,0,0,1-5.32,5.36H457a5.34,5.34,0,0,0,5.31-5.36V117.41c.05-38.39-30.79-69.55-68.89-69.59h-.15v.08C429.88,49.67,459,80.12,458.93,117.41Z"/><path class="cls-11" d="M405.36,187.14a44.55,44.55,0,0,1-12.06,2.68V190a43.78,43.78,0,0,0,15.48-2.82,44.42,44.42,0,0,0,26-26.18h-3.42A44.38,44.38,0,0,1,405.36,187.14Z"/><path class="cls-3" d="M389.83,217.16h0c-53.88,0-97.54-44.06-97.51-98.35a98.68,98.68,0,0,1,28.53-69.42,5.22,5.22,0,0,1,5.54-1.33,5.27,5.27,0,0,1,5.4,1.2,5.39,5.39,0,0,1,.13,7.58.8.8,0,0,0-.13.13,88.05,88.05,0,0,0,.09,123.86,86.57,86.57,0,0,0,58,25.52V190a44.26,44.26,0,0,1-41.45-29H326.16a5.35,5.35,0,0,1-5.32-5.36V118.85c0-38.6,30.53-70.46,68-71h1V5.39a112.06,112.06,0,0,0-50.94,14c-54.55,30.24-74.45,99.32-44.44,154.29a112.58,112.58,0,0,0,95.38,58.8V217.16Z"/><path class="cls-3" d="M328.5,56.84l-.13.13a88.05,88.05,0,0,0,.09,123.86,86.53,86.53,0,0,0,61.37,25.61h.06v-.09a86.57,86.57,0,0,1-58-25.52A88.05,88.05,0,0,1,331.79,57a.8.8,0,0,1,.13-.13,5.39,5.39,0,0,0-.13-7.58,5.27,5.27,0,0,0-5.4-1.2,5.13,5.13,0,0,1,2,1.2A5.38,5.38,0,0,1,328.5,56.84Z"/><path class="cls-3" d="M291.09,173.68a112.57,112.57,0,0,0,98.8,58.86v-.06a112.58,112.58,0,0,1-95.38-58.8c-30-55-10.11-124,44.44-154.29a112.06,112.06,0,0,1,50.94-14V5.33a111.9,111.9,0,0,0-54.36,14.06C281,49.63,261.08,118.71,291.09,173.68Z"/><path class="cls-12" d="M370,100.37l19.9,2.69V58.65c-30.55,1.85-55,28.31-55,60.21v31.38h11a46.21,46.21,0,0,1-.26-4.85V118.88a18.89,18.89,0,0,1,.15-2.38A22.72,22.72,0,0,1,370,100.37Z"/><path class="cls-12" d="M331.48,118.86v31.38h3.42V118.86c0-31.9,24.44-58.36,55-60.21v-.09H389C357.3,59,331.48,86.08,331.48,118.86Z"/><path class="cls-12" d="M370,100.37a18,18,0,0,0-4.15-.06,3,3,0,0,1,.73.06l23.32,3.15v-.46Z"/><path class="cls-4" d="M389.89,103.06l3.41.46V58.66a17.88,17.88,0,0,1-1.93-.07,12.13,12.13,0,0,0-1.48.06Z"/><path class="cls-4" d="M448.28,116.42a58.58,58.58,0,0,0-55-57.76v44.86L433,108.88a5.35,5.35,0,0,1,4.61,5.31v31.19a41.36,41.36,0,0,1-.26,4.85h11V117.41A6.59,6.59,0,0,1,448.28,116.42Z"/><path class="cls-4" d="M437.56,114.19a5.35,5.35,0,0,0-4.61-5.31l-39.65-5.36V104l36.23,4.9a5.35,5.35,0,0,1,4.61,5.31V145.4a41.36,41.36,0,0,1-.26,4.85h3.42a41.36,41.36,0,0,0,.26-4.85Z"/><path class="cls-4" d="M391.37,58.59h-1.48v.09C390.38,58.62,390.88,58.61,391.37,58.59Z"/><polygon class="cls-4" points="389.89 103.06 389.89 103.52 393.3 103.98 393.3 103.52 389.89 103.06"/><path class="cls-10" d="M359.7,118.88v26.5a33.79,33.79,0,0,0,30.19,33.42v-6.4a19.54,19.54,0,0,1-18.28-12.76v-.07a5.39,5.39,0,0,1,3.18-6.87,5.16,5.16,0,0,1,3.51,0,5.31,5.31,0,0,1,6.7,3.2,8.93,8.93,0,0,0,4.89,5.07V148.55a5.35,5.35,0,0,1-5.32-5.36V130.82a5.34,5.34,0,0,1,5.32-5.36h0V114.33L366,111.1A8,8,0,0,0,359.7,118.88Zm3.61,9.23a5.34,5.34,0,0,1,5.32-5.36h0a4.91,4.91,0,0,0,3.42,0,5.34,5.34,0,0,1,5.32,5.36h0v2.71a5.34,5.34,0,0,1-5.32,5.36h0a4.91,4.91,0,0,0-3.42,0,5.34,5.34,0,0,1-5.32-5.36h0Z"/><path class="cls-10" d="M359.7,145.38v-26.5a8,8,0,0,1,6.3-7.78l-.8-.11h-.05a8.39,8.39,0,0,0-1-.06,7.93,7.93,0,0,0-7.89,7.95h0v26.5A33.74,33.74,0,0,0,389.63,179h.26v-.17A33.78,33.78,0,0,1,359.7,145.38Z"/><path class="cls-10" d="M381.58,155.9a8.92,8.92,0,0,0,5.15,5.18,8.76,8.76,0,0,0,3.16.58V161a9,9,0,0,1-4.89-5.1,5.31,5.31,0,0,0-6.73-3.22A5.29,5.29,0,0,1,381.58,155.9Z"/><path class="cls-10" d="M374,128.11v2.71a5.34,5.34,0,0,1-3.61,5.05,5.27,5.27,0,0,0,1.71.31,5.34,5.34,0,0,0,5.32-5.36h0v-2.71a5.34,5.34,0,0,0-5.32-5.36h0a5.27,5.27,0,0,0-1.71.31A5.34,5.34,0,0,1,374,128.11Z"/><path class="cls-10" d="M393.3,172.4a11.4,11.4,0,0,1-1.65-.08,13.18,13.18,0,0,0-1.76.08v6.4c.57.06,1.14.1,1.72.13a10.51,10.51,0,0,0,1.69-.13Z"/><path class="cls-10" d="M389.89,125.46a4.88,4.88,0,0,0,3.41,0V114.79l-3.41-.46Z"/><path class="cls-10" d="M391.56,161.49a9.46,9.46,0,0,0,1.74-.53V148.55a5.49,5.49,0,0,1-1.7-.31,5,5,0,0,1-1.71.31h0V161l.26.11A9.78,9.78,0,0,0,391.56,161.49Z"/><path class="cls-10" d="M393.31,125.46a5.34,5.34,0,0,1,5.32,5.36h0v12.37a5.34,5.34,0,0,1-5.32,5.36h0V161a8.88,8.88,0,0,0,4.93-5.07v-.15a12.32,12.32,0,0,1,10.31-3,5.38,5.38,0,0,1,3,7h0a19.63,19.63,0,0,1-11.44,11.51,19.2,19.2,0,0,1-6.87,1.24v6.4a33.77,33.77,0,0,0,30.2-33.42V119l-30.2-4.09v10.67Zm12.53,2.65a5.34,5.34,0,0,1,5.32-5.36h0a5.27,5.27,0,0,1,1.71.31,4.92,4.92,0,0,1,1.7-.31,5.34,5.34,0,0,1,5.32,5.36h0v2.71a5.34,5.34,0,0,1-5.32,5.36h0a4.92,4.92,0,0,1-1.7-.31,5.27,5.27,0,0,1-1.71.31,5.34,5.34,0,0,1-5.32-5.36h0Z"/><path class="cls-10" d="M389.89,179h1.72a16.38,16.38,0,0,1-1.72-.13Z"/><path class="cls-10" d="M391.65,172.32c.55,0,1.1.07,1.65.08v-.3C392.75,172.2,392.2,172.27,391.65,172.32Z"/><path class="cls-10" d="M391.56,161.49a9.89,9.89,0,0,1-1.41-.41l-.26-.11v.69A9.36,9.36,0,0,0,391.56,161.49Z"/><path class="cls-10" d="M411.61,159.65a5.38,5.38,0,0,0-3-7h0a5.3,5.3,0,0,0-3.64-.06l.23.06a5.38,5.38,0,0,1,3,7h0a19.59,19.59,0,0,1-11.43,11.51,18.83,18.83,0,0,1-3.46.94v.3a19.2,19.2,0,0,0,6.87-1.24A19.61,19.61,0,0,0,411.61,159.65Z"/><path class="cls-10" d="M416.48,128.11v2.71a5.34,5.34,0,0,1-3.61,5.05,4.92,4.92,0,0,0,1.7.31,5.34,5.34,0,0,0,5.32-5.36h0v-2.71a5.34,5.34,0,0,0-5.32-5.36h0a4.92,4.92,0,0,0-1.7.31A5.34,5.34,0,0,1,416.48,128.11Z"/><path class="cls-10" d="M391.6,148.24a5.49,5.49,0,0,0,1.7.31v-1.28A5.52,5.52,0,0,1,391.6,148.24Z"/><path class="cls-10" d="M393.3,125.46a5.16,5.16,0,0,0-1.7.31,5,5,0,0,1,1.7,1Z"/><path class="cls-10" d="M395.21,130.82v12.37a5.31,5.31,0,0,1-1.91,4.08v1.28h0a5.34,5.34,0,0,0,5.32-5.36h0V130.82a5.34,5.34,0,0,0-5.32-5.36h0v1.28A5.31,5.31,0,0,1,395.21,130.82Z"/><path class="cls-10" d="M448.78,186.28c2.05-1.71,4-3.55,5.93-5.45a5.28,5.28,0,0,1,2.05-1.27,5.28,5.28,0,0,0-5.47,1.27c-1.88,1.9-3.88,3.74-5.93,5.45a5.41,5.41,0,0,0-.68,7.55,5.28,5.28,0,0,0,5.8,1.63,5.34,5.34,0,0,1-1.7-9.18Z"/><path class="cls-10" d="M458.81,188.41a5.38,5.38,0,0,0,0-7.58,2.29,2.29,0,0,0-3.07-1,2.24,2.24,0,0,0-1,1c-1.89,1.9-3.88,3.74-5.93,5.45a5.34,5.34,0,0,0,1.7,9.18,5.2,5.2,0,0,0,1.69-.94C454.46,192.6,456.69,190.54,458.81,188.41Z"/><path class="cls-7" d="M295.73,118.81a98.76,98.76,0,0,1,28.53-69.42,5.16,5.16,0,0,1,2.13-1.33,5.22,5.22,0,0,0-5.54,1.33,98.68,98.68,0,0,0-28.53,69.42c0,54.29,43.63,98.32,97.51,98.35h.06v-.09C337.57,215.26,295.71,172,295.73,118.81Z"/><path class="cls-7" d="M295.73,118.81c0,53.16,41.84,96.45,94.16,98.26V206.44h-.06a86.53,86.53,0,0,1-61.37-25.61A88.05,88.05,0,0,1,328.37,57l.13-.13a5.39,5.39,0,0,0-.13-7.58,2.32,2.32,0,0,0-4.13.13A98.77,98.77,0,0,0,295.73,118.81Z"/><path class="cls-10" d="M432,197.29a5.26,5.26,0,0,1,.66-.25,5.26,5.26,0,0,0-4.08.25,87.12,87.12,0,0,1-35.31,9.07v.08A87.08,87.08,0,0,0,432,197.29Z"/><path class="cls-10" d="M389.89,217.16H392q-1,0-2.07-.06Z"/><path class="cls-10" d="M393.24,206.44h.06v-.08H392Z"/><path class="cls-10" d="M393.3,206.44h-3.41v10.63q1,0,2.07.06h1.34Z"/><path class="cls-10" d="M393.3,206.44v10.65a97.55,97.55,0,0,0,40.05-10.2,5.39,5.39,0,0,0,2.38-7.13,5.31,5.31,0,0,0-3-2.72,5.26,5.26,0,0,0-.66.25A87.08,87.08,0,0,1,393.3,206.44Z"/><path class="cls-3" d="M284,169.31l8.9,16.6q-1.26-1.95-2.44-4l-.3.16a117.64,117.64,0,0,0,99.76,55.57v-.06c-63.53-1.86-114.46-54.35-114.44-118.81S326.39,1.92,389.89.06V0C324.81.05,272.06,53.21,272,118.8a119,119,0,0,0,12.82,54l.55-.3C284.91,171.43,284.44,170.37,284,169.31Z"/><path class="cls-3" d="M291.09,173.68c-30-55-10.11-124,44.44-154.29A111.9,111.9,0,0,1,389.89,5.33V.06c-63.5,1.86-114.41,54.3-114.44,118.74s50.91,117,114.44,118.81v-5.07A112.57,112.57,0,0,1,291.09,173.68Z"/><path class="cls-11" d="M488.59,64.05l.06.12c30,55,10.12,124.05-44.44,154.29a111.37,111.37,0,0,1-50.91,14h0a111.45,111.45,0,0,0,54.33-14.08c54.56-30.24,74.45-99.32,44.44-154.29L492,64a5.33,5.33,0,0,1-.07-4.9c-.44-.75-.89-1.5-1.34-2.25A5.37,5.37,0,0,0,488.59,64.05Z"/><path class="cls-11" d="M393.3,232.54h-3.41v5.07h3.41Z"/><path class="cls-11" d="M492,64.05l.06.12c30,55,10.12,124.05-44.44,154.29a111.45,111.45,0,0,1-54.33,14.08v5.08c63.58-1.78,114.58-54.25,114.6-118.74a119.51,119.51,0,0,0-14.59-57.3c-.45-.82-.91-1.63-1.37-2.43A5.33,5.33,0,0,0,492,64.05Z"/><path class="cls-11" d="M391.41,0h-1.52V.06A12.79,12.79,0,0,1,391.41,0Z"/><path class="cls-11" d="M448.59,21.94a5.23,5.23,0,0,0,4.52.53,5.07,5.07,0,0,1-1.1-.53A112.07,112.07,0,0,0,393.3,5.33v.06A112.11,112.11,0,0,1,448.59,21.94Z"/><path class="cls-11" d="M389.89,5.33h3.41V.06h-3.41Z"/><path class="cls-11" d="M453.11,22.47a5.24,5.24,0,0,0,2.78-2.16A117.28,117.28,0,0,0,393.3.06V5.33A112.22,112.22,0,0,1,452,21.94,5.14,5.14,0,0,0,453.11,22.47Z"/><path class="cls-9" d="M320.84,118.85V155.6a5.35,5.35,0,0,0,5.32,5.36h3.42a5.34,5.34,0,0,1-5.32-5.36h0V118.85c0-37.77,29.23-69.07,65.63-70.93v-.1h-1C351.37,48.39,320.84,80.25,320.84,118.85Z"/><path class="cls-9" d="M351.86,161h-3.42a44.26,44.26,0,0,0,41.45,29v-.14A44.28,44.28,0,0,1,351.86,161Z"/><path class="cls-9" d="M389.89,189.82v-5.23a39,39,0,0,1-37.58-29H326.17V118.86c0-35.37,27.75-65.15,62.79-65.67h.93V47.92c-36.4,1.86-65.63,33.16-65.63,70.93V155.6a5.34,5.34,0,0,0,5.32,5.36h22.28A44.28,44.28,0,0,0,389.89,189.82Z"/><path class="cls-9" d="M391.53,47.86h-1.64V48C390.43,47.9,391,47.87,391.53,47.86Z"/><path class="cls-9" d="M389.89,189.82V190c.69,0,1.38,0,2.08-.05C391.27,189.89,390.58,189.88,389.89,189.82Z"/><path class="cls-9" d="M389.89,53.2h3.41V47.9h-1.77a14.89,14.89,0,0,0-1.64.06Z"/><path class="cls-9" d="M389.91,184.59h0v5.23c.69.06,1.38.07,2.08.09l1.33-.09v-5.23h-3.41Z"/><path class="cls-9" d="M458.93,155.6V117.41c0-37.29-29.05-67.74-65.63-69.51v5.3A63.93,63.93,0,0,1,457,116.4v39.2H430.89a39,39,0,0,1-37.56,29h0v5.23a44.2,44.2,0,0,0,38-28.86H453.6a5.34,5.34,0,0,0,5.33-5.35Z"/><path class="cls-9" d="M453.6,116.4v39.2H457V116.41c-.52-35.13-29-63.23-63.72-63.2v.09A64,64,0,0,1,453.6,116.4Z"/><path class="cls-9" d="M393.3,53.2h-2c.67,0,1.34,0,2,.06Z"/><path class="cls-9" d="M391.6,184.55h1.7v-.15A13.76,13.76,0,0,1,391.6,184.55Z"/><path class="cls-9" d="M393.3,184.44v.15h0a39,39,0,0,0,37.56-29h-3.42A39,39,0,0,1,393.3,184.44Z"/><path class="cls-9" d="M393.3,58.56h-1.93a17.69,17.69,0,0,1,1.93.07Z"/><path class="cls-9" d="M448.28,116.42v33.82h3.42V116.41c-.5-32.18-26.57-57.9-58.4-57.86v.1A58.58,58.58,0,0,1,448.28,116.42Z"/><path class="cls-9" d="M391.3,53.23h-1.41v.09Z"/><path class="cls-9" d="M453.6,116.4a64,64,0,0,0-60.3-63.11v5.27a58.58,58.58,0,0,1,58.4,57.86v33.82H433.88a41.36,41.36,0,0,0,.26-4.85v-31.2a5.35,5.35,0,0,0-4.61-5.31L393.3,104v5l38.94,5.26v31.2c0,.86,0,1.72-.08,2.58s-.14,1.71-.26,2.57a37.73,37.73,0,0,1-1,5.06h22.72V117.41C453.61,117.07,453.61,116.74,453.6,116.4Z"/><polygon class="cls-9" points="389.89 108.47 393.3 108.93 393.3 103.98 389.89 103.52 389.89 108.47"/><path class="cls-9" d="M389.89,58.56h3.41V53.29c-.66,0-1.33,0-2-.06l-1.41.06Z"/><polygon class="cls-9" points="389.89 108.93 393.3 109.39 393.3 108.93 389.89 108.47 389.89 108.93"/><path class="cls-9" d="M432.16,148c0-.86.08-1.72.08-2.58v-31.2L393.3,109v.46l35.52,4.8v31.2c0,.86,0,1.72-.08,2.58s-.14,1.71-.25,2.57a39.36,39.36,0,0,1-1,5.06h3.42a37.73,37.73,0,0,0,1-5.06C432,149.68,432.1,148.83,432.16,148Z"/><path class="cls-9" d="M432.24,114.19v31.2c0,.86,0,1.72-.08,2.58,0-.86.08-1.72.08-2.58v-31.2l-38.94-5.26h0Z"/><polygon class="cls-9" points="389.89 108.47 393.3 108.93 393.3 108.93 389.89 108.47 389.89 108.47"/><path class="cls-9" d="M345.8,116.5a18.89,18.89,0,0,0-.15,2.38v26.51a46.21,46.21,0,0,0,.26,4.85h3.42a46.21,46.21,0,0,1-.26-4.85V118.88a18.89,18.89,0,0,1,.15-2.38,18.6,18.6,0,0,1,16.62-16.19A18.56,18.56,0,0,0,345.8,116.5Z"/><path class="cls-9" d="M326.17,118.86V155.6h3.41V118.86c0-34.52,26.46-63.71,60.31-65.57V53.2H389C353.92,53.71,326.17,83.49,326.17,118.86Z"/><path class="cls-9" d="M351.29,150.37c-.08-.7-.16-1.41-.21-2.13v-.42c-.05-.81-.08-1.62-.08-2.43V118.88a12.27,12.27,0,0,1,.11-1.71,13.22,13.22,0,0,1,14.76-11.49h.1a12.6,12.6,0,0,1,3.36,0l20.59,2.79v-5l-23.32-3.15a3,3,0,0,1-.73-.06,18.6,18.6,0,0,0-16.62,16.19,18.89,18.89,0,0,0-.15,2.38v26.51a46.21,46.21,0,0,0,.26,4.85H331.48V118.86C331.48,86.08,357.3,59,389,58.55h.86V53.29c-33.85,1.86-60.31,31.05-60.31,65.57V155.6h22.73a38.07,38.07,0,0,1-1-4.95A.44.44,0,0,0,351.29,150.37Z"/><path class="cls-9" d="M389.89,108.47l-20.59-2.79a12.6,12.6,0,0,0-3.36,0l23.95,3.24Z"/><polygon class="cls-9" points="389.89 108.47 369.3 105.68 389.89 108.47 389.89 108.47"/><path class="cls-9" d="M389.89,113.87,368.6,111h0a7.64,7.64,0,0,0-2.57.11l23.9,3.23Z"/><path class="cls-9" d="M355.73,155.6h-3.42a39,39,0,0,0,37.58,29v-.15A39,39,0,0,1,355.73,155.6Z"/><path class="cls-9" d="M354.71,150.37q-.13-1.05-.21-2.13v-.42c-.05-.81-.08-1.62-.08-2.43V118.88a14,14,0,0,1,.1-1.71A13.27,13.27,0,0,1,366,105.69h-.06a13.24,13.24,0,0,0-14.8,11.45v0a12.27,12.27,0,0,0-.11,1.71V145.4c0,.81,0,1.62.08,2.43v.42c.05.72.13,1.43.21,2.13v.28a39.81,39.81,0,0,0,1,5h3.42a38.07,38.07,0,0,1-1-5A1.41,1.41,0,0,1,354.71,150.37Z"/><path class="cls-9" d="M389.63,179a33.75,33.75,0,0,1-33.34-33.6V118.9a7.93,7.93,0,0,1,7.89-8h0a8.39,8.39,0,0,1,1,.06h.05l.8.11a7.64,7.64,0,0,1,2.57-.11h0l21.29,2.88V109l-23.95-3.24a13.27,13.27,0,0,0-11.45,11.48,14,14,0,0,0-.1,1.71v26.51c0,.81,0,1.62.08,2.43v.42q.07,1.08.21,2.13a1.31,1.31,0,0,0,0,.28,39.81,39.81,0,0,0,1,5h0a39,39,0,0,0,34.16,28.84V179Z"/><path class="cls-9" d="M354.75,150.65a38.07,38.07,0,0,0,1,4.95h0A39.81,39.81,0,0,1,354.75,150.65Z"/><polygon class="cls-9" points="389.89 114.33 393.3 114.8 393.3 114.33 389.89 113.87 389.89 114.33"/><path class="cls-9" d="M391.61,178.93h1.69v-.17A13.63,13.63,0,0,1,391.61,178.93Z"/><path class="cls-9" d="M423.5,118.88v26.5a33.77,33.77,0,0,1-30.2,33.42v.2a33.73,33.73,0,0,0,33.62-33.59v-26.5l-33.62-4.55v.46Z"/><path class="cls-9" d="M391.6,184.55c-.57,0-1.15-.06-1.71-.11v.15h0C390.48,184.59,391,184.58,391.6,184.55Z"/><polygon class="cls-9" points="393.3 114.33 393.3 109.39 389.89 108.93 389.89 113.87 393.3 114.33"/><path class="cls-9" d="M393,179h-3.15v5.47c.56.05,1.14.09,1.71.11a13.73,13.73,0,0,0,1.7-.11V179Z"/><path class="cls-9" d="M428.82,114.19l-35.52-4.8v4.94l33.62,4.55v26.5A33.73,33.73,0,0,1,393.3,179v5.47a39.1,39.1,0,0,0,35.17-33.9c.11-.86.19-1.71.25-2.57s.08-1.72.08-2.58Z"/><polygon class="cls-9" points="389.89 108.93 393.3 109.39 393.3 109.39 389.89 108.93 389.89 108.93"/><path class="cls-9" d="M428.82,114.19v31.2c0,.86,0,1.72-.08,2.58.06-.86.08-1.72.08-2.58v-31.2l-35.52-4.8h0Z"/><path class="cls-9" d="M351.33,150.65a38.07,38.07,0,0,0,1,4.95h0A39.81,39.81,0,0,1,351.33,150.65Z"/><polygon class="cls-9" points="365.94 105.69 365.88 105.68 365.94 105.69 365.94 105.69"/><polygon class="cls-9" points="389.89 108.93 389.89 108.93 365.94 105.69 365.94 105.69 389.89 108.93"/><path class="cls-9" d="M375,159.64v-.07a5.39,5.39,0,0,1,3.18-6.87h.09a5.16,5.16,0,0,0-3.51,0,5.39,5.39,0,0,0-3.18,6.87v.07a19.54,19.54,0,0,0,18.28,12.76v-.32A19.58,19.58,0,0,1,375,159.64Z"/><path class="cls-9" d="M375,159.57v.07a19.57,19.57,0,0,0,14.87,12.44V161.66a8.76,8.76,0,0,1-3.16-.58,8.92,8.92,0,0,1-5.15-5.18,5.29,5.29,0,0,0-3.31-3.22h-.09A5.38,5.38,0,0,0,375,159.57Z"/><path class="cls-9" d="M389.89,172.4a13,13,0,0,0,1.76-.08,10.49,10.49,0,0,1-1.76-.24Z"/><path class="cls-9" d="M393.3,161.66V161a9.46,9.46,0,0,1-1.74.53A9.21,9.21,0,0,0,393.3,161.66Z"/><path class="cls-9" d="M401.64,155.89l.06-.15a5.31,5.31,0,0,1,3.25-3.1,5.3,5.3,0,0,0-6.67,3.1v.15a8.88,8.88,0,0,1-5,5.11v.7A8.9,8.9,0,0,0,401.64,155.89Z"/><path class="cls-9" d="M393.3,161.66a8.51,8.51,0,0,0-3.41,0v10.42c.58.1,1.17.19,1.76.24a6,6,0,0,0,1.65-.22Z"/><path class="cls-9" d="M401.7,155.74l-.06.15a8.88,8.88,0,0,1-8.34,5.77V172.1a18.83,18.83,0,0,0,3.46-.94,19.59,19.59,0,0,0,11.43-11.51,5.38,5.38,0,0,0-3-7h0l-.23-.06A5.32,5.32,0,0,0,401.7,155.74Z"/><path class="cls-9" d="M368.63,136.18a5.27,5.27,0,0,0,1.71-.31,5.34,5.34,0,0,1-3.61-5.05v-2.71a5.34,5.34,0,0,1,3.61-5.05,5.27,5.27,0,0,0-1.71-.31,5.34,5.34,0,0,0-5.32,5.36h0v2.71a5.34,5.34,0,0,0,5.32,5.36Z"/><path class="cls-9" d="M366.73,128.11v2.71a3.82,3.82,0,1,0,7.22,0v-2.71a3.82,3.82,0,1,0-7.22,0Z"/><path class="cls-9" d="M411.16,136.18a5.27,5.27,0,0,0,1.71-.31,5.35,5.35,0,0,1-3.62-5.05v-2.71a5.35,5.35,0,0,1,3.62-5.05,5.27,5.27,0,0,0-1.71-.31,5.34,5.34,0,0,0-5.32,5.36h0v2.71a5.34,5.34,0,0,0,5.32,5.36Z"/><path class="cls-9" d="M409.25,128.11v2.71a3.82,3.82,0,0,0,7.23,2.47,3.87,3.87,0,0,0,0-2.47v-2.71a3.82,3.82,0,1,0-7.23-2.47A3.87,3.87,0,0,0,409.25,128.11Z"/><path class="cls-9" d="M388,143.19V130.82a5.33,5.33,0,0,1,1.9-4.07v-1.29a5.34,5.34,0,0,0-5.32,5.36h0v12.37a5.35,5.35,0,0,0,5.32,5.36v-1.29A5.33,5.33,0,0,1,388,143.19Z"/><path class="cls-9" d="M388,130.82v12.37a5.33,5.33,0,0,0,1.9,4.07V126.75A5.33,5.33,0,0,0,388,130.82Z"/><path class="cls-9" d="M391.6,148.24a5.17,5.17,0,0,1-1.71-1v1.29h0A5.25,5.25,0,0,0,391.6,148.24Z"/><path class="cls-9" d="M391.6,125.77a5,5,0,0,0-1.71-.31h0v1.29A5.29,5.29,0,0,1,391.6,125.77Z"/><path class="cls-9" d="M389.89,147.26a5.17,5.17,0,0,0,1.71,1,5.6,5.6,0,0,0,1.7-1V126.74a5,5,0,0,0-1.7-1,5.17,5.17,0,0,0-1.71,1Z"/><path class="cls-9" d="M395.21,143.19V130.82a5.31,5.31,0,0,0-1.91-4.08v20.53A5.31,5.31,0,0,0,395.21,143.19Z"/><path class="cls-2" d="M470.73,29.38v.4a131.38,131.38,0,0,1,11.39,11.61v-.81c.33.38.64.78,1,1.16H495.8a6,6,0,0,0,0-11.94H482.58V16.49A5.93,5.93,0,1,0,470.73,16a4,4,0,0,0,0,.49V29.15l.27.23Z"/><path class="cls-2" d="M471,29.38l-.27-.23v.23Z"/><path class="cls-2" d="M482.12,41.39l.46.51v-.16h.51c-.33-.38-.64-.78-1-1.16Z"/><path class="cls-2" d="M454.32,34.74a5.34,5.34,0,0,0,5.32,5.36h11.84V52a3.82,3.82,0,1,0,7.22,0V40.58q1.76,2,3.42,4.13v-3a131.18,131.18,0,0,0-11.93-12h.54l-.44-.4H459.64a5.34,5.34,0,0,0-5.32,5.36Z"/><path class="cls-2" d="M482.12,41.76v3c.19.24.37.49.56.74V42l-.1-.12v.37Z"/><path class="cls-2" d="M473.39,57.4a5.48,5.48,0,0,0,1.7-.3,5.37,5.37,0,0,1-3.61-5.1V40.1h-3.41v1.38h2.76V55a6.46,6.46,0,0,0,.34,2,5.28,5.28,0,0,0,2.21.49Z"/><path class="cls-2" d="M459.64,40.1a5.36,5.36,0,0,1,0-10.72h-2a6.07,6.07,0,0,0-5,9.31,5.22,5.22,0,0,0,3.56,1.41Z"/><path class="cls-2" d="M476.8,57.4A5.34,5.34,0,0,0,482.12,52V44.71q-1.67-2.1-3.42-4.13V52a5.34,5.34,0,0,1-3.61,5.06,5.48,5.48,0,0,0,1.7.3Z"/><path class="cls-2" d="M459.64,40.1h-3.42a5.22,5.22,0,0,1-3.56-1.41,5.86,5.86,0,0,0,5,2.79H468.1V40.1Z"/><path class="cls-2" d="M482.12,52a5.34,5.34,0,0,1-5.32,5.36h0a5,5,0,0,0-3.4,0h0a5.28,5.28,0,0,1-2.21-.49,5.94,5.94,0,0,0,5.58,4.1h0a6,6,0,0,0,5.92-6V45.45c-.19-.25-.37-.5-.56-.74Z"/><path class="cls-2" d="M470.19,29.79a131.18,131.18,0,0,1,11.93,12v-.37a131.38,131.38,0,0,0-11.39-11.61h-.54Z"/><path class="cls-2" d="M482.58,42.27V41.9l-.46-.51v.37Z"/><path class="cls-3" d="M118.66,376.72v-5.16h-.07a112.59,112.59,0,0,1-102-65.36,5.41,5.41,0,0,0-6.88-2.62C27.68,347,70.2,376.77,118.66,376.72Z"/><path class="cls-2" d="M118.68,144.55c62.21,0,112.62,50.86,112.59,113.55S180.84,371.54,118.66,371.56v5.16q4.17,0,8.38-.3c65-4.66,113.92-61.53,109.29-127C231.9,186.76,180.05,138.93,118.66,139v5.56Z"/><path class="cls-3" d="M6.37,267.36v-.5c-.21-3-.34-5.94-.34-8.85C6,195.32,56.5,144.53,118.7,144.55V139c-2.77,0-5.57.1-8.38.3C45.3,144-3.63,200.82,1,266.3c.15,2.19.37,4.37.64,6.52A5.34,5.34,0,0,0,6.37,267.36Z"/><path d="M290.43,181.94c.79,1.33,1.61,2.67,2.44,4l-8.9-16.6c.47,1.06.94,2.12,1.44,3.17l-.55.3q2.43,4.78,5.27,9.32Z"/><path class="cls-13" d="M222.16,314.36l-5.4,9.32,65,28.62c-.27.71-.53,1.42-.79,2.14l8.55-18.54c-1.22,2.16-2.39,4.35-3.48,6.58Z"/><path class="cls-13" d="M290.13,182.1q-2.83-4.53-5.27-9.32l-61.17,32.8h0l4.17,9.92Z"/></svg>