<svg id="Capa_1" data-name="Capa 1" xmlns="http://www.w3.org/2000/svg" viewBox="0 0 512 512"><defs><style>.cls-1{fill:#0295aa;}.cls-2{fill:#4acfd9;}.cls-3{fill:#365558;}.cls-4{fill:#cdd4d5;}.cls-5{fill:#e6eaea;}</style></defs><title>support-program</title><path class="cls-1" d="M112.49,158.61H78.39A78.39,78.39,0,0,0,0,237H0V338.78a78.39,78.39,0,0,0,78.39,78.39H88.85v40.3a25.69,25.69,0,0,0,.23,3.32c0,.2,0,.42.08.62,0,.38.14.74.21,1.11l.15.76c.09.34.19.67.28,1s.15.54.23.8.22.62.34.93.19.53.29.79.27.58.4.87.23.52.36.77.3.55.46.82.26.49.41.73.34.52.52.78.29.46.45.68.39.5.58.75l.5.63c.2.24.42.47.63.7s.35.39.54.58.45.44.68.66.37.36.57.53.49.41.74.61.39.33.59.48.52.38.79.57l.6.42.84.52.63.37.88.46.64.32c.3.15.61.28.92.41s.43.19.65.27.63.24.95.35l.66.22,1,.28.67.18c.33.08.67.15,1,.21l.68.13c.34.06.68.1,1,.14l.68.08c.34,0,.68.06,1,.08l.7,0h1l.71,0c.34,0,.67,0,1-.07l.72-.07q.49-.06,1-.15l.74-.13,1-.22.76-.19.93-.28L121,480l.89-.35.78-.34.84-.41c.27-.13.54-.28.8-.43l.79-.46c.27-.16.54-.34.81-.52s.49-.33.73-.51.56-.41.83-.63l.66-.54c.29-.24.56-.5.84-.76l.59-.56c.09-.09.19-.17.28-.27h0c.32-.33.64-.65.95-1l49.05-56.06h1.61V158.61Z"/><path class="cls-2" d="M282.32,158.61H181.45V417.17H282.32a78.38,78.38,0,0,0,78.39-78.39V237A78.39,78.39,0,0,0,282.32,158.61Z"/><path class="cls-3" d="M144.2,316.38a7.73,7.73,0,0,0-7.72,7.73v.49a7.73,7.73,0,0,0,15.45,0v-.49A7.73,7.73,0,0,0,144.2,316.38Z"/><path class="cls-3" d="M173.73,324.11v.49a7.72,7.72,0,0,0,7.72,7.72V316.38A7.72,7.72,0,0,0,173.73,324.11Z"/><path class="cls-1" d="M181.45,316.38v15.94a7.73,7.73,0,0,0,7.73-7.72v-.49A7.73,7.73,0,0,0,181.45,316.38Z"/><path class="cls-1" d="M216.51,316.38a7.73,7.73,0,0,0-7.73,7.73v.49a7.73,7.73,0,0,0,15.45,0v-.49A7.73,7.73,0,0,0,216.51,316.38Z"/><path class="cls-4" d="M291.94,160.75a39.71,39.71,0,0,0,39.54,39.7v-79.4A39.71,39.71,0,0,0,291.94,160.75Z"/><path class="cls-4" d="M371.35,160.75a39.7,39.7,0,0,0-39.71-39.7h-.16v79.4h.16A39.71,39.71,0,0,0,371.35,160.75Z"/><path class="cls-4" d="M319.57,255a16.89,16.89,0,0,1-16.9-16.9V225.76a71.56,71.56,0,0,1-12.82-7.42l-10.66,6.15a17.33,17.33,0,0,1-2.52,1.17h0l-.29.09c-.25.1-.51.18-.77.26l-.76.21-.77.18-.79.13-.75.11-.83.06-.72,0-.91,0c-.21,0-.43,0-.64,0-.41,0-.82-.08-1.23-.14l-.45-.07c-.45-.08-.9-.18-1.34-.29l-.54-.17q-.47-.14-.93-.3l-.59-.23c-.28-.12-.57-.23-.85-.37l-.58-.29-.79-.43-.57-.36-.74-.5c-.19-.13-.37-.27-.54-.41s-.47-.38-.7-.58l-.5-.45c-.23-.22-.45-.45-.67-.68s-.3-.31-.44-.47-.43-.53-.64-.8-.25-.31-.37-.48a14,14,0,0,1-.76-1.18c0-.06-.09-.12-.13-.19L244,197.4h0a16.89,16.89,0,0,1,6.18-23.08l10.66-6.15c-.1-1-.17-2-.23-3,0-.75-.07-1.49-.09-2.24s-.06-1.47-.06-2.21,0-1.27.05-1.91c0-.93.06-1.87.12-2.79s.12-1.81.21-2.7l-6.15-3.56-4.51-2.6A16.9,16.9,0,0,1,244,124.1h0l.07-.12,12-20.79a15.79,15.79,0,0,1,.93-1.42,1.53,1.53,0,0,1,.11-.16c.29-.38.59-.76.9-1.12l.28-.29c.27-.3.54-.59.83-.86.12-.11.24-.22.37-.32s.55-.48.84-.71l.42-.31c.29-.21.57-.41.87-.6l.46-.28c.3-.18.6-.34.91-.5s.32-.17.48-.24c.32-.15.64-.29,1-.42l.47-.19c.36-.13.72-.24,1.09-.35.13,0,.26-.08.39-.12a17.46,17.46,0,0,1,3.06-.51l.54,0c.33,0,.67,0,1,0s.44,0,.66,0l.89.07c.24,0,.47.06.71.1s.56.08.84.14l.73.17.8.22.74.24.3.1h0A17.4,17.4,0,0,1,279.19,97l10.66,6.15h0c1.09-.8,2.22-1.56,3.36-2.29a70.72,70.72,0,0,1,9.46-5.13V83.45a16.9,16.9,0,0,1,16.9-16.91h11.91v-36H229.68a78.39,78.39,0,0,0-78.39,78.39h0V210.73a78.39,78.39,0,0,0,78.39,78.39h101.8V255Z"/><path class="cls-5" d="M433.61,30.56H331.48v36h12.24a16.91,16.91,0,0,1,16.9,16.91V95.74a71,71,0,0,1,12.83,7.42L384.11,97a16.89,16.89,0,0,1,23.08,6.19l12.07,20.9a16.88,16.88,0,0,1-6.18,23.08l-10.66,6.17a72.31,72.31,0,0,1,.38,7.4,70,70,0,0,1-.38,7.41l10.66,6.15h0a16.89,16.89,0,0,1,6.18,23.09l-12.07,20.91a16.89,16.89,0,0,1-23.08,6.18l-10.66-6.15a71.64,71.64,0,0,1-12.83,7.42v12.3A16.9,16.9,0,0,1,343.72,255H331.48v34.17h.68l49,56.06c14.55,16.62,41.94,6.33,41.94-15.76v-40.3h10.46A78.39,78.39,0,0,0,512,210.73V109A78.38,78.38,0,0,0,433.61,30.56Z"/><path class="cls-1" d="M308.82,70.4a16.89,16.89,0,0,0-6.15,13V95.74a70.72,70.72,0,0,0-9.46,5.13c-1.14.73-2.27,1.49-3.36,2.29h0L279.19,97a17.4,17.4,0,0,0-2.52-1.18h0l-.3-.1-.74-.24-.8-.22-.73-.17c-.28-.06-.56-.1-.84-.14s-.47-.08-.71-.1l-.89-.07c-.22,0-.44,0-.66,0s-.67,0-1,0l-.54,0a17.46,17.46,0,0,0-3.06.51c-.13,0-.26.09-.39.12-.37.11-.73.22-1.09.35l-.47.19c-.33.13-.65.27-1,.42-.16.07-.32.16-.48.24s-.61.32-.91.5l-.46.28c-.3.19-.58.39-.87.6l-.42.31c-.29.23-.57.46-.84.71s-.25.21-.37.32c-.29.27-.56.56-.83.86l-.28.29c-.31.36-.61.74-.9,1.12a1.53,1.53,0,0,0-.11.16,15.79,15.79,0,0,0-.93,1.42L244.1,124l-.07.12h0a16.9,16.9,0,0,0,6.18,23.09l4.51,2.6,6.15,3.56c-.09.89-.15,1.79-.21,2.7s-.1,1.86-.12,2.79c0,.64-.05,1.27-.05,1.91s0,1.47.06,2.21.05,1.49.09,2.24c.06,1,.13,2,.23,3l-10.66,6.15A16.89,16.89,0,0,0,244,197.39h0l12.07,20.91c0,.07.09.13.13.19a14,14,0,0,0,.76,1.18c.12.17.25.32.37.48s.42.54.64.8.29.32.44.47.44.46.67.68l.5.45c.23.2.46.4.7.58s.35.28.54.41l.74.5.57.36.79.43.58.29c.28.14.57.25.85.37l.59.23q.46.17.93.3l.54.17c.44.11.89.21,1.34.29l.45.07c.41.06.82.11,1.23.14.21,0,.43,0,.64,0l.91,0,.72,0,.83-.06.75-.11.79-.13.77-.18.76-.21c.26-.08.52-.16.77-.26l.29-.09h0a17.33,17.33,0,0,0,2.52-1.17l10.66-6.15a71.56,71.56,0,0,0,12.82,7.42v12.29a16.89,16.89,0,0,0,16.9,16.9h11.91v-54.5a39.7,39.7,0,0,1,0-79.4V66.54H319.57A16.84,16.84,0,0,0,308.82,70.4Z"/><path class="cls-2" d="M331.64,121.05a39.71,39.71,0,1,1,0,79.41h-.16V255h12.24a16.9,16.9,0,0,0,16.9-16.89v-12.3a71.64,71.64,0,0,0,12.83-7.42l10.66,6.15a16.89,16.89,0,0,0,23.08-6.18l12.07-20.91a16.89,16.89,0,0,0-6.18-23.09h0l-10.66-6.15a70,70,0,0,0,.38-7.41,72.31,72.31,0,0,0-.38-7.4l10.66-6.17a16.88,16.88,0,0,0,6.18-23.08l-12.07-20.9A16.89,16.89,0,0,0,384.11,97l-10.66,6.15a71,71,0,0,0-12.83-7.42V83.45a16.91,16.91,0,0,0-16.9-16.91H331.48v54.51Z"/></svg>