<svg xmlns="http://www.w3.org/2000/svg" viewBox="0 0 512 512"><defs><style>.cls-1{fill:#cdd4d5;}.cls-2{fill:#e6eaea;}.cls-3{fill:#ff8c29;}.cls-4{fill:#fd6a33;}.cls-5{fill:#ffb300;}.cls-6{fill:#ffa000;}.cls-7{fill:#f0353d;}.cls-8{fill:#fff;}.cls-9{fill:#e3493c;}.cls-10{fill:#ffd1a9;}.cls-11{fill:#9baaab;}</style></defs><title>tokens-mined</title><g id="Layer_5" data-name="Layer 5"><g id="Layer_17" data-name="Layer 17"><path class="cls-1" d="M128.49,49.66,104.07,37.11a99.62,99.62,0,0,0-76-6.28L24.51,32a4.93,4.93,0,0,0-.75,9.08l86.33,44.4L144.4,104l20.18-36.55Z"/><path class="cls-2" d="M250.61,157.71a4.93,4.93,0,0,0,6.95-5.9l-1.13-3.52a99.65,99.65,0,0,0-49.33-58.2l-60-31.92L128.49,96Z"/><path class="cls-3" d="M172.36,17.23a10.07,10.07,0,0,0-13.46,4.16L9.36,298.74a10.07,10.07,0,0,0,4.07,13.64l.18.1,10.59,5.44L178.45,20.36Z"/><path class="cls-4" d="M183.36,22.88l-4.91-2.52L24.2,317.92l11.35,5.84a10.07,10.07,0,0,0,13.55-4.35l.09-.18,138.61-283A10.07,10.07,0,0,0,183.36,22.88Z"/><path class="cls-5" d="M204.81,211.38c1.2-.13,2.41-.25,3.62-.35C207.22,211.13,206,211.25,204.81,211.38Z"/><path class="cls-5" d="M208.43,488.18c-1.21-.11-2.42-.22-3.63-.36C206,488,207.22,488.07,208.43,488.18Z"/><path class="cls-5" d="M216.42,210.58h3.13C218.51,210.54,217.46,210.55,216.42,210.58Z"/><path class="cls-5" d="M208.63,211c1.13-.09,2.26-.17,3.4-.24Z"/><path class="cls-5" d="M212.53,210.74l3-.13Z"/><path class="cls-5" d="M212,488.43c-1.14-.07-2.28-.14-3.41-.24C209.76,488.29,210.89,488.37,212,488.43Z"/><path class="cls-5" d="M219.55,488.67c-1,0-2.09,0-3.13-.05C217.46,488.65,218.51,488.66,219.55,488.67Z"/><path class="cls-5" d="M215.57,488.59c-1,0-2-.07-3-.13C213.54,488.52,214.56,488.56,215.57,488.59Z"/><path class="cls-6" d="M220.24,488.68h0a139.07,139.07,0,0,0,139-139.08h0A139.07,139.07,0,0,1,220.24,488.68Z"/><path class="cls-6" d="M359.26,348.89a139.06,139.06,0,0,0-139-138.36h0A139.07,139.07,0,0,1,359.26,348.89Z"/><path class="cls-7" d="M220.2,210.53h-4.63l-3,.13h-.5c-1.14.07-2.27.15-3.4.24h-.2c-1.21.1-2.42.22-3.62.35h-.06a139.08,139.08,0,0,0,0,276.43h0c1.21.14,2.42.25,3.63.36h.2c1.13.1,2.27.17,3.41.24h.49c1,.06,2,.1,3,.13h.85c1,0,2.09,0,3.13,0h.69V465.27h0a115.67,115.67,0,0,1,0-231.34h0v-23.4Z"/><path class="cls-3" d="M359.26,348.89a139.07,139.07,0,0,0-139-138.36v23.4a115.67,115.67,0,1,1,0,231.34v23.41a139.07,139.07,0,0,0,139-139.08C359.27,349.37,359.26,349.13,359.26,348.89Z"/><path class="cls-2" d="M119.53,349.6A100.78,100.78,0,0,0,220.2,450.27h0V248.93h0A100.78,100.78,0,0,0,119.53,349.6Z"/><path class="cls-2" d="M320.87,349.6A100.78,100.78,0,0,0,220.24,248.93V450.27A100.79,100.79,0,0,0,320.87,349.6Z"/><path class="cls-8" d="M220.2,248.93v201a100.5,100.5,0,0,0,0-201Z"/><path class="cls-2" d="M119.72,349.41A100.47,100.47,0,0,0,220.18,449.89h0v-201A100.47,100.47,0,0,0,119.72,349.35Z"/><path class="cls-4" d="M241.75,354.12a62.79,62.79,0,0,1-8.09-19.62c.94-8.36-2-18.61-8.67-19.63a7.65,7.65,0,0,0-4.79,1v53.77a62.25,62.25,0,0,1,6.71,1.85c7.1,4.83,17.35,7.42,21.7,2.51S248.61,360.52,241.75,354.12Z"/><path class="cls-9" d="M210.7,330.57a61.16,61.16,0,0,1-14,16.68c-7.81,3.5-15.35,10.84-12.92,16.68s13.62,6.44,21.28,4.16a67.67,67.67,0,0,1,15.15,1.5V315.81C215.57,318.4,211.88,325.08,210.7,330.57Z"/><path class="cls-4" d="M234.44,280.76c10.84.44,15.12,21.51,13.35,37.49A211,211,0,0,0,262,357.38a16,16,0,0,0,6.87,6.59,84.9,84.9,0,0,1-7.3-41.72c6.86-18.29,3.8-43-6.52-48.75-11.5-5.77-25.71-1.45-31.71,9.62a1.79,1.79,0,0,0-.2.39A16.13,16.13,0,0,1,234.44,280.76Z"/><path class="cls-9" d="M173.14,326.14c-19.94,3.41-40.62,18.29-40.62,29.71.58,12.48,11.61,22.13,24.57,21.55h.31a15.93,15.93,0,0,1-7.54-8.36c-5.22-8.36,11.27-22.85,26.81-29.64,5-2.08,25.24-27.12,28.1-31.28a16.27,16.27,0,0,0,2.51-9.1A90.64,90.64,0,0,1,173.14,326.14Z"/><path class="cls-4" d="M276.17,387.52a7.07,7.07,0,0,0-.44-.63,14.9,14.9,0,0,1-3.37,10.68c-5.73,8.36-26.65,1.92-40.51-7.69q-5.76-1.59-11.65-2.95v11.62l1.41.9c13.11,15,36.78,25,47.1,19a21.88,21.88,0,0,0,8.1-29.88C276.61,388.21,276.39,387.86,276.17,387.52Z"/><path class="cls-9" d="M189.62,382.22a16.08,16.08,0,0,0-9.38,2.44,92,92,0,0,1,40,13.93V387A236.29,236.29,0,0,0,189.62,382.22Z"/><path class="cls-4" d="M220.2,233.93a115.67,115.67,0,0,0,0,231.34h0v-15h0a100.67,100.67,0,0,1,0-201.34h0Z"/><path class="cls-10" d="M301.42,267.33a115.24,115.24,0,0,0-81.18-33.4v15a100.67,100.67,0,1,1,0,201.34v15a115.61,115.61,0,0,0,81.18-197.94Z"/><path class="cls-1" d="M475.06,446.8l20,41.57H154.7l58.36-73.3a17.63,17.63,0,0,0,3-5.56l33.59-104.72a20.84,20.84,0,0,1,6.7-9.82L370.77,201.7a12.41,12.41,0,0,1,14.23-1l20.76,12.55a12.37,12.37,0,0,1,6,10.59v53.59a15.31,15.31,0,0,0,5.62,11.84l43.41,35.46A31.26,31.26,0,0,1,472.25,348Z"/><path class="cls-11" d="M478.55,454H282a28,28,0,0,1-26-38.29l35.46-89.63a21,21,0,0,1,6.7-9.83l113.6-92.55a12.4,12.4,0,0,0-6-10.45L385,200.7a12.37,12.37,0,0,0-14.23,1L256.32,295a20.84,20.84,0,0,0-6.7,9.82L216,409.51a17.63,17.63,0,0,1-3,5.56l-58.36,73.29H495.09Z"/><path class="cls-11" d="M504.46,495.89H7.5a7.53,7.53,0,0,1,0-15.05h497a7.53,7.53,0,0,1,0,15.05Z"/><path class="cls-11" d="M276.68,410.79a7.53,7.53,0,0,1-7.53-7.51h0V360.16a19.5,19.5,0,0,1,5.76-13.89L298,323.19a7.52,7.52,0,0,1,10.64,10.64L285.55,356.9a4.57,4.57,0,0,0-1.35,3.26v43.11A7.52,7.52,0,0,1,276.68,410.79Z"/><path class="cls-11" d="M330.44,307.87A7.52,7.52,0,0,1,325.12,295l6.66-6.66A7.53,7.53,0,0,1,342.42,299h0l-6.66,6.66A7.52,7.52,0,0,1,330.44,307.87Z"/><path class="cls-11" d="M424.07,424a7.52,7.52,0,0,1-7.52-7.52v-47.9l-10.13-10.13a7.52,7.52,0,0,1,10.64-10.64l12.33,12.34a7.47,7.47,0,0,1,2.2,5.31v51a7.52,7.52,0,0,1-7.52,7.52Z"/><path class="cls-4" d="M280.73,189.39a6.73,6.73,0,0,1-1-.07,7.52,7.52,0,0,1-6.5-8.42h0l2.86-22.07A7.52,7.52,0,1,1,291,160.77h0l-2.86,22.06a7.53,7.53,0,0,1-7.45,6.56Z"/><path class="cls-1" d="M110.65,40.49,93.79,73.29a32.45,32.45,0,0,0-1.38,3.06l17.68,9.1L144.4,104l20.18-36.55L128.49,49.66Z"/><path class="cls-2" d="M200.56,86.61,147.15,58.17,128.49,96l53.16,26.87a34.43,34.43,0,0,0,2-3.35l16.86-32.8Z"/><path class="cls-1" d="M110,112.07l32.47,16.7L182.53,47,153.22,31.94Z"/><path class="cls-8" d="M177.48,61.33l-30-15.4h0l-2.83-1.46a11.75,11.75,0,0,0-4.6-1.3,12,12,0,0,0-11.6,6.49l-16.86,32.8a12,12,0,0,0-.76,9.17A1.25,1.25,0,0,0,111,92c0,.13.16.47.25.69a12.06,12.06,0,0,0,5.55,5.94l32.8,16.87a13,13,0,0,0,2.26.89h.24c.31.08.61.16.93.21a12,12,0,0,0,12.56-6c.06-.12.14-.23.2-.36l.23-.44h0l16.68-32.29a12,12,0,0,0-5.15-16.18Z"/><path class="cls-2" d="M431.16,158.9a37.19,37.19,0,0,0-20,10.45c-.44.44-.88.89-1.32,1.39a37.29,37.29,0,0,0-9.2,18.64.62.62,0,0,1-.79.4.61.61,0,0,1-.41-.4,37.19,37.19,0,0,0-10.45-20l-.51-.5h-.06A37.22,37.22,0,0,0,369,158.93a.65.65,0,0,1-.43-.6.63.63,0,0,1,.43-.6,27.73,27.73,0,0,0,4.48-1.13,37.73,37.73,0,0,0,26-29.42.63.63,0,0,1,.79-.41.6.6,0,0,1,.41.41,37.29,37.29,0,0,0,10.52,20,36.92,36.92,0,0,0,20,10.52.62.62,0,0,1,.43.6A.64.64,0,0,1,431.16,158.9Z"/><path class="cls-2" d="M466.89,248.79a37.14,37.14,0,0,0-20,10.46c-.44.44-.89.88-1.33,1.38a37.23,37.23,0,0,0-9.19,18.65.65.65,0,0,1-.6.43.62.62,0,0,1-.6-.43,37.2,37.2,0,0,0-10.46-20l-.5-.51h-.06a37.29,37.29,0,0,0-19.47-10,.63.63,0,0,1-.43-.6.62.62,0,0,1,.43-.6,27.61,27.61,0,0,0,4.47-1.13,37.71,37.71,0,0,0,26-29.42.61.61,0,0,1,.6-.43.63.63,0,0,1,.6.43,38.07,38.07,0,0,0,30.55,30.55.62.62,0,0,1,.43.6A.63.63,0,0,1,466.89,248.79Z"/></g></g></svg>