<svg id="Capa_1" data-name="Capa 1" xmlns="http://www.w3.org/2000/svg" viewBox="0 0 512 512"><defs><style>.cls-1{fill:#e6eaea;}.cls-2{fill:#cdd4d5;}.cls-3{fill:#ff8c29;}.cls-4{fill:#fd6a33;}</style></defs><title>token-power-switch</title><path class="cls-1" d="M256,.9V511.1c140.9,0,255.1-114.2,255.1-255.1S396.9.9,256,.9Z"/><path class="cls-2" d="M.9,256C.9,396.9,115.1,511.1,256,511.1V.9C115.1.9.9,115.1.9,256Z"/><path class="cls-3" d="M227.76,435.09l139.62-240.4a7.57,7.57,0,0,0-7.56-11.3L267,196l22.19-116.5a3.78,3.78,0,0,0-6.73-3L145.14,257.73A7.56,7.56,0,0,0,152,269.82L254.34,259,220.78,432.47A3.78,3.78,0,0,0,227.76,435.09Z"/><path class="cls-4" d="M188.06,244.89a3.13,3.13,0,0,1-2.9-4.78L287.8,75.89a3.73,3.73,0,0,0-5.39.64L145.14,257.73A7.56,7.56,0,0,0,152,269.82L254.34,259,220.78,432.47a3.68,3.68,0,0,0,3,4.38l57.52-182a12.61,12.61,0,0,0-13-16.36Z"/></svg>