<svg id="Layer_1" data-name="Layer 1" xmlns="http://www.w3.org/2000/svg" viewBox="0 0 512 512"><defs><style>.cls-1,.cls-7{fill:#9baaab;}.cls-1,.cls-2,.cls-3,.cls-4{fill-rule:evenodd;}.cls-10,.cls-2{fill:#e6eaea;}.cls-3,.cls-8{fill:#cdd4d5;}.cls-4,.cls-9{fill:#365558;}.cls-5{fill:#0295aa;}.cls-6{fill:#4acfd9;}</style></defs><title>tokens-mined</title><path class="cls-1" d="M123.51,201V167.65L56.27,126.41,20,201Z"/><path class="cls-2" d="M56.27,126.41l67.24,41.24,12.12-68.2Z"/><path class="cls-3" d="M135.63,99.45l-12.12,68.2V201h54.66l2.11-54Z"/><path class="cls-2" d="M135.63,99.45,180.28,147l60.44-48.11L197.13,36Z"/><path class="cls-1" d="M180.28,147l-2.11,54h54.67l7.88-34.4Z"/><path class="cls-1" d="M180.28,147l60.44,19.57,61-33.31-61-34.37Z"/><path class="cls-2" d="M197.13,36l43.59,62.92,43.14-46Z"/><path class="cls-3" d="M283.86,52.92l-43.14,46,61,34.37,26.85-37Z"/><path class="cls-3" d="M301.69,133.29l-61,33.31L232.84,201h96.71Z"/><path class="cls-2" d="M301.69,133.29,329.55,201,395.81,93.63l-67.27,2.65Z"/><path class="cls-3" d="M395.81,93.63,329.55,201l98.33-65.07Z"/><path class="cls-1" d="M427.88,135.93,329.55,201h98.33Z"/><path class="cls-1" d="M427.88,135.93V201H492l-11-41.8Z"/><path class="cls-4" d="M492,201H20a10,10,0,0,0-10,10v25a10,10,0,0,0,10,10H492a10,10,0,0,0,10-10V211A10,10,0,0,0,492,201Z"/><path class="cls-5" d="M30,246,65.1,404A50,50,0,0,1,160,426h96V246Z"/><path class="cls-6" d="M256,246V426h96a50,50,0,0,1,94.89-22L482,246Z"/><path class="cls-4" d="M160,426a50,50,0,1,0-50,50h0A50,50,0,0,0,160,426Z"/><path class="cls-4" d="M352,426a50,50,0,1,0,50-50h0A50,50,0,0,0,352,426Z"/><path class="cls-7" d="M110,416h0a10,10,0,1,0,10,10A10,10,0,0,0,110,416Z"/><path class="cls-8" d="M402,416h0a10,10,0,1,0,10,10A10,10,0,0,0,402,416Z"/><path class="cls-9" d="M170,296h0a10,10,0,1,0-10-10A10,10,0,0,0,170,296Z"/><path class="cls-9" d="M134.13,286a7.5,7.5,0,0,0-7.5-7.5H47a7.5,7.5,0,0,0,0,15h79.68A7.51,7.51,0,0,0,134.13,286Z"/><path class="cls-10" d="M431.67,42.89a37.16,37.16,0,0,0-20,10.46c-.44.44-.88.88-1.33,1.38a37.27,37.27,0,0,0-9.19,18.65.63.63,0,0,1-1.2,0,37.16,37.16,0,0,0-10.46-20l-.5-.51h-.06a37.29,37.29,0,0,0-19.47-10,.63.63,0,0,1,0-1.2,27.73,27.73,0,0,0,4.48-1.13,37.71,37.71,0,0,0,26-29.42.63.63,0,0,1,1.2,0,37.24,37.24,0,0,0,10.52,20,36.84,36.84,0,0,0,20,10.52.63.63,0,0,1,0,1.2Z"/><path class="cls-10" d="M467.4,132.78a37.29,37.29,0,0,0-20,10.46c-.44.44-.88.88-1.32,1.39a37.2,37.2,0,0,0-9.19,18.64.64.64,0,0,1-.6.44.62.62,0,0,1-.6-.44,37.22,37.22,0,0,0-10.46-20l-.5-.5h-.07a37.24,37.24,0,0,0-19.46-10,.63.63,0,0,1,0-1.19,26.4,26.4,0,0,0,4.47-1.14,37.71,37.71,0,0,0,26-29.41.62.62,0,0,1,.6-.44.64.64,0,0,1,.6.44,37.3,37.3,0,0,0,10.51,20,36.87,36.87,0,0,0,20,10.52.63.63,0,0,1,0,1.19Z"/></svg>