<svg id="Layer_1" data-name="Layer 1" xmlns="http://www.w3.org/2000/svg" viewBox="0 0 512 512"><defs><style>.cls-1{fill:#9baaab;}.cls-2{fill:#cdd4d5;}.cls-3{fill:#365558;}.cls-4{fill:#0295aa;}.cls-5{fill:#fd6a33;}.cls-6{fill:#ff8c29;}</style></defs><title>user-mentor</title><path class="cls-1" d="M421,169.6V286c0,48.6-84.9,75-165,75S91,334.6,91,286V169.6a15,15,0,0,1,15-15H406A15,15,0,0,1,421,169.6Z"/><path class="cls-2" d="M421,169.6V286c0,48.6-84.9,75-165,75V154.6H406A15,15,0,0,1,421,169.6Z"/><path class="cls-3" d="M512,136a15,15,0,0,1-9.6,14.1l-241,90a16.65,16.65,0,0,1-10.8,0l-241-90V121.9l241-90a16.65,16.65,0,0,1,10.8,0l241,90A15,15,0,0,1,512,136Z"/><path class="cls-4" d="M512,136a15,15,0,0,1-9.6,14.1l-241,90a17,17,0,0,1-5.4.9V31a17,17,0,0,1,5.4.9l241,90A15,15,0,0,1,512,136Z"/><path class="cls-5" d="M15,121A14.85,14.85,0,0,0,0,136V466a14.85,14.85,0,0,0,15,15,15.43,15.43,0,0,0,15-12.9l.9,2.7c2.4,7.8,10.8,12,18.9,9.3a14.74,14.74,0,0,0,9.3-18.9L30,373.6V151H256V121Z"/><path class="cls-6" d="M256,121v30a15,15,0,0,0,0-30Z"/></svg>