<svg width="512" height="512" viewBox="0 0 512 512" fill="none" xmlns="http://www.w3.org/2000/svg">
<circle cx="256" cy="256" r="237" fill="#FD6A33"/>
<path d="M391 374.955L390.997 375.732L391 413H121L121.003 375.732L121 374.955V367.967H121.137C124.362 286.734 183.507 222 256 222C328.493 222 387.638 286.734 390.863 367.967H391V374.955Z" fill="#4ACFD9"/>
<path fill-rule="evenodd" clip-rule="evenodd" d="M252.136 221.172C181.498 223.454 124.457 287.579 121.293 367.68H121.156V374.697L121.159 375.477L121.156 412.899H252.136V221.172Z" fill="#0295AA"/>
<ellipse cx="256" cy="162.5" rx="93" ry="95.5" fill="#FFD1A9"/>
<path fill-rule="evenodd" clip-rule="evenodd" d="M173.433 206.736C207.154 197.318 252.729 166.369 263.83 133.061C290.881 164.48 312.112 179.249 345.707 190.502C348.733 181.258 350.369 171.385 350.369 161.131C350.369 109.031 308.133 66.7949 256.033 66.7949C203.933 66.7949 161.697 109.031 161.697 161.131C161.697 177.672 165.955 193.219 173.433 206.736Z" fill="#365558"/>
</svg>
