<svg id="Capa_1" data-name="Capa 1" xmlns="http://www.w3.org/2000/svg" viewBox="0 0 512 512"><defs><style>.cls-1{fill:#0295aa;}.cls-2{fill:#4acfd9;}.cls-3{fill:#365558;}.cls-4{fill:#cdd4d5;}.cls-5{fill:#e6eaea;}.cls-6{fill:#fd6a33;}.cls-7{fill:#f0353d;}</style></defs><title>user-supporter</title><path class="cls-1" d="M71.08,256c0-100.52,80.21-182.31,180.11-184.86V.11L226.57.2a24.68,24.68,0,0,0-24.59,25c0,.16,0,.32,0,.47A10.8,10.8,0,0,1,194,35.87a227.4,227.4,0,0,0-51.33,21.47,10.62,10.62,0,0,1-12.48-1.25c-.28-.25-.55-.52-.82-.79-9.59-9.72-25.43-9.39-35.06.31L54.48,95.76c-9.56,9.62-9.78,25.6-.06,35.06l.32.32a11,11,0,0,1,1.73,13.1,227.44,227.44,0,0,0-21,51.34,10.94,10.94,0,0,1-10.51,8h-.1A25,25,0,0,0,0,228.68l.2,56.51A24.92,24.92,0,0,0,25.2,310h.48A10.81,10.81,0,0,1,35.87,318a227.19,227.19,0,0,0,21.44,51.28,10.85,10.85,0,0,1-1.61,12.95l-.4.4c-9.66,9.52-9.32,25.5.31,35.06l40.15,39.87c9.69,9.63,25.53,9.85,35.06.06.26-.28.53-.54.81-.8a10.63,10.63,0,0,1,12.47-1.33,227.19,227.19,0,0,0,51.48,21.11,10.81,10.81,0,0,1,8,10.13c0,.16,0,.31,0,.47h0A24.83,24.83,0,0,0,228.51,512l22.68-.08V440.86C151.29,438.31,71.08,356.52,71.08,256Z"/><path class="cls-2" d="M511.8,226.73a24.85,24.85,0,0,0-25-24.75h-.49a10.81,10.81,0,0,1-10.18-7.93,227.36,227.36,0,0,0-24.75-56.9,24.88,24.88,0,0,1,5.31-7.74c9.66-9.53,9.33-25.5-.3-35.06L416.24,54.48c-9.69-9.62-25.53-9.85-35.06-.06-.26.27-.53.54-.8.8a10.66,10.66,0,0,1-12.49,1.33,226.93,226.93,0,0,0-51.47-21.11,10.8,10.8,0,0,1-8-10.13c0-.16,0-.31,0-.47h0A25,25,0,0,0,283.32,0L251.19.11v71c1.6,0,3.2-.06,4.81-.06a184.92,184.92,0,0,1,0,369.84c-1.61,0-3.21,0-4.81-.06v71.06l33.74-.12a25.16,25.16,0,0,0,25.08-25h0c0-.15,0-.31,0-.46a10.81,10.81,0,0,1,8-10.2,227.22,227.22,0,0,0,51.3-21.46,10.65,10.65,0,0,1,12.51,1.25l.8.77c9.6,9.73,25.44,9.4,35.06-.3l39.87-40.15c9.56-9.63,9.79-25.6.06-35.06a24.85,24.85,0,0,1-5.36-7.71,227.61,227.61,0,0,0,24.35-57.06,10.79,10.79,0,0,1,10.12-8h.49a24.92,24.92,0,0,0,24.83-25Z"/><path class="cls-1" d="M256,104.64h0a151.36,151.36,0,0,1,0,302.72c-1.61,0-3.21,0-4.81-.08v33.58c1.6,0,3.2.06,4.81.06a184.92,184.92,0,0,0,0-369.84c-1.61,0-3.21,0-4.81.06v33.58C252.79,104.67,254.39,104.64,256,104.64Z"/><path class="cls-3" d="M71.08,256c0,100.52,80.21,182.31,180.11,184.86V407.28A152.62,152.62,0,0,1,235.82,406h0l-.79-.11-.82-.12c-1.07-.16-2.14-.32-3.2-.5l-.81-.14c-1.13-.19-2.26-.4-3.38-.62l-.51-.09a151.39,151.39,0,0,1,.1-296.89l.2,0c1.23-.25,2.46-.47,3.7-.68l.58-.1c1.15-.19,2.31-.37,3.47-.54l.59-.09.87-.12h0q7.58-1,15.37-1.27V71.14C151.29,73.69,71.08,155.48,71.08,256Z"/><path class="cls-4" d="M240.28,332.14a20,20,0,0,1-14.55,7.14H225a19.93,19.93,0,0,1-14.29-6l-49.55-51a19.93,19.93,0,0,1,28.58-27.78l34.14,35.13,27.33-32.72V104.72q-7.78.25-15.37,1.27h0l-.87.12-.59.09c-1.16.17-2.32.35-3.47.54l-.58.1c-1.24.21-2.47.43-3.7.68l-.2,0a151.39,151.39,0,0,0-.1,296.89l.51.09c1.12.22,2.25.43,3.38.62l.81.14c1.06.18,2.13.34,3.2.5l.82.12.79.11h0a152.62,152.62,0,0,0,15.37,1.27V319.07Z"/><path class="cls-5" d="M407.36,256A151.36,151.36,0,0,0,256,104.64h0c-1.61,0-3.21,0-4.81.08V256.9l60.47-72.39a19.92,19.92,0,1,1,30.58,25.55l-91.05,109v88.21c1.6.05,3.2.08,4.81.08A151.36,151.36,0,0,0,407.36,256Z"/><path class="cls-6" d="M342.24,210.06a19.92,19.92,0,1,0-30.58-25.55L251.19,256.9v62.17Z"/><path class="cls-7" d="M189.72,254.49a19.93,19.93,0,0,0-28.58,27.78l49.55,51a19.93,19.93,0,0,0,14.29,6h.75a20,20,0,0,0,14.55-7.14l10.91-13.07V256.9l-27.33,32.72Z"/></svg>