<svg id="Capa_1" data-name="Capa 1" xmlns="http://www.w3.org/2000/svg" viewBox="0 0 512 512"><defs><style>.cls-1{fill:#0295aa;}.cls-2{fill:#4acfd9;}.cls-3{fill:#cdd4d5;}.cls-4{fill:#365558;}.cls-5{fill:#9baaab;}.cls-6{fill:#f0353d;}.cls-7{fill:#ff8c29;}.cls-8{fill:#e6eaea;}</style></defs><title>votes-and-claims-programs</title><path class="cls-1" d="M391,0H166a45,45,0,0,0-45,45V467a45,45,0,0,0,45,45H466a45,45,0,0,0,45-45V120Z"/><path class="cls-2" d="M391,0H316V512H466a45,45,0,0,0,45-45V120Z"/><path class="cls-3" d="M391,0V105a15,15,0,0,0,15,15H511Z"/><path class="cls-4" d="M426,302H206a15,15,0,0,1,0-30H426a15,15,0,0,1,0,30Z"/><path class="cls-4" d="M426,212H206a15,15,0,0,1,0-30H426a15,15,0,0,1,0,30Z"/><path class="cls-4" d="M426,392H206a15,15,0,0,1,0-30H426a15,15,0,0,1,0,30Z"/><path class="cls-5" d="M441,287a15,15,0,0,0-15-15H316v30H426A15,15,0,0,0,441,287Z"/><path class="cls-5" d="M441,197a15,15,0,0,0-15-15H316v30H426A15,15,0,0,0,441,197Z"/><path class="cls-5" d="M426,392a15,15,0,0,0,0-30H316v30Z"/><path class="cls-6" d="M136,512C61.56,512,1,451.44,1,377S61.56,242,136,242s135,60.56,135,135S210.44,512,136,512Z"/><path class="cls-7" d="M136,242V512c74.44,0,135-60.56,135-135S210.44,242,136,242Z"/><path class="cls-3" d="M136,462a15,15,0,0,1-15-15V357a15,15,0,0,1,30,0v90A15,15,0,0,1,136,462Z"/><circle class="cls-3" cx="136" cy="307" r="15"/><path class="cls-8" d="M136,342V462a15,15,0,0,0,15-15V357A15,15,0,0,0,136,342Z"/><path class="cls-8" d="M151,307a15,15,0,0,0-15-15v30A15,15,0,0,0,151,307Z"/></svg>