<svg id="Layer_1" data-name="Layer 1" xmlns="http://www.w3.org/2000/svg" xmlns:xlink="http://www.w3.org/1999/xlink" viewBox="0 0 395 517"><defs><style>.cls-1{fill:none;}.cls-2{clip-path:url(#clip-path);}.cls-3{fill:#fd6a33;}.cls-4{fill:#ff8c29;}.cls-5{fill:#ffd1a9;}.cls-6{fill:#f0353d;}.cls-7{fill:#fff;}.cls-8{fill:#4acfd9;}.cls-9{fill:#e6eaea;}.cls-10{fill:#cdd4d5;}.cls-11{fill:#0295aa;}.cls-12{fill:#9baaab;}.cls-13{fill:#365558;}.cls-14{fill:#c4c4c4;}</style><clipPath id="clip-path" transform="translate(-50 0)"><rect class="cls-1" width="512" height="512"/></clipPath></defs><g class="cls-2"><path class="cls-3" d="M134.7,141.8H123.2a13.47,13.47,0,0,0-13.4,13.4v57.7a13.47,13.47,0,0,0,13.4,13.4h11.5a6.23,6.23,0,0,0,6.2-6.2V147.9A6.35,6.35,0,0,0,134.7,141.8Z" transform="translate(-50 0)"/><path class="cls-4" d="M366.4,226.3h-5.7a6.23,6.23,0,0,1-6.2-6.2V147.9a6.23,6.23,0,0,1,6.2-6.2h11.5a13.47,13.47,0,0,1,13.4,13.4v57.8a13.47,13.47,0,0,1-13.4,13.4Z" transform="translate(-50 0)"/><path class="cls-4" d="M313,88H270.6a8.4,8.4,0,0,1-8.1-8.1V78H247.7V211.5h8.6a3,3,0,0,1,3,2.9V220a3,3,0,0,1-3,3h-5.6v.1h-3v43.2H313a31,31,0,0,0,30.9-30.9V118.7A30.75,30.75,0,0,0,313,88ZM301.8,219.9a3.22,3.22,0,0,1-3.2,3.2H281.7a3.29,3.29,0,0,1-3.2-3.2v-5.2a3.22,3.22,0,0,1,3.2-3.2h16.8a3.22,3.22,0,0,1,3.2,3.2v5.2Zm-11.7-47.7a15.4,15.4,0,1,1,15.4-15.4A15.41,15.41,0,0,1,290.1,172.2Z" transform="translate(-50 0)"/><path class="cls-4" d="M250.7,223h-3v.1h3Z" transform="translate(-50 0)"/><path class="cls-4" d="M267.1,72.8c6.7-4.4,4.8-14.3-1.6-19.3,0,0-17.7,13.1-17.7,24.4h14.8S261.7,76.4,267.1,72.8Z" transform="translate(-50 0)"/><path class="cls-3" d="M247.7,78H232.9v1.7c0,4.7-4.8,8.1-9.3,8.1H182.5a31,31,0,0,0-30.9,30.9V235.5a31,31,0,0,0,30.9,30.9h65.2V223.1h-8.6a3,3,0,0,1-3-3v-5.6a3,3,0,0,1,3-3h8.7V78ZM216.9,220.1a3,3,0,0,1-3,3H196.7a3,3,0,0,1-3-3v-5.6a3,3,0,0,1,3-3h17.2a3.08,3.08,0,0,1,3,3Zm-11.6-48a15.4,15.4,0,1,1,15.4-15.4A15.41,15.41,0,0,1,205.3,172.1Z" transform="translate(-50 0)"/><path class="cls-3" d="M243.6,55.7c-5.7,3.7-10.7,10-10.7,22.3h14.8c0-11.5,17.9-24.6,17.9-24.6C259.2,48.4,249.2,52,243.6,55.7Z" transform="translate(-50 0)"/><path class="cls-5" d="M123.1,192.6a3.62,3.62,0,0,1,.5,3.2,23,23,0,0,0,3.3,18.3,4.27,4.27,0,0,1-.7,5.5,3.78,3.78,0,0,1-5.3-.6,29.7,29.7,0,0,1-4.6-24.6,3.8,3.8,0,0,1,4.6-2.9A2.32,2.32,0,0,1,123.1,192.6Z" transform="translate(-50 0)"/><path class="cls-5" d="M374.9,191.4a3.93,3.93,0,0,1,4.6,2.9,29.35,29.35,0,0,1-4.6,24.6,3.77,3.77,0,0,1-5.3.6,4.14,4.14,0,0,1-.7-5.5,22.69,22.69,0,0,0,3.3-18.3,3.62,3.62,0,0,1,.5-3.2A3,3,0,0,1,374.9,191.4Z" transform="translate(-50 0)"/><path class="cls-6" d="M311.1,24,293.8,40.7a6.07,6.07,0,0,1-8.4-.1,5.53,5.53,0,0,1,.1-8.1l17.3-16.7a6.07,6.07,0,0,1,8.4.1A5.71,5.71,0,0,1,311.1,24Z" transform="translate(-50 0)"/><path class="cls-6" d="M325,59.3a5.38,5.38,0,0,1-4.3,1.6l-22-.1a5.79,5.79,0,0,1-5.9-5.9,6,6,0,0,1,6-5.8l22,.1a5.79,5.79,0,0,1,5.9,5.9A5.57,5.57,0,0,1,325,59.3Z" transform="translate(-50 0)"/><path class="cls-6" d="M274.9,31.5a5.38,5.38,0,0,1-4.3,1.6,5.79,5.79,0,0,1-5.9-5.9l.1-21.4a6,6,0,0,1,6-5.8,5.79,5.79,0,0,1,5.9,5.9V27.3A5.81,5.81,0,0,1,274.9,31.5Z" transform="translate(-50 0)"/><path class="cls-7" d="M247.7,432.6v-6.9l18.5-24.5,33.2-69.6,16.4,2.9,30.5,21.9-17.1,51.7L274,464.5H247.7Z" transform="translate(-50 0)"/><path class="cls-8" d="M247.7,282.7c10.9,0,14,2.1,17.5,9.5,5.5,11.4,11.4,23,5.4,29.1s-16,8.8-23,8.8V282.7Z" transform="translate(-50 0)"/><path class="cls-8" d="M247.7,334.8s10-.4,12.8-2,10.7,45.7,9.7,59.6-5.3,11.6-5.3,11.6l-17.2,25.9Z" transform="translate(-50 0)"/><path class="cls-9" d="M247.7,432.3v-6.6l-18.5-24.5L196,331.6l-16.4,2.9-30.5,21.9,17.1,51.7,55.2,56.4,26.3-.3Z" transform="translate(-50 0)"/><path class="cls-3" d="M247.7,454.1c40.4,0,73.1-67.5,73.1-113.1h30.9c0,56.3,12.9,145.5,62.7,145.5v25.6H247.7Z" transform="translate(-50 0)"/><path class="cls-6" d="M247.7,454.1c-40.4,0-73.1-67.5-73.1-113.1H143.7c0,56.3-12.9,145.5-62.7,145.5v25.6H247.7Z" transform="translate(-50 0)"/><path class="cls-10" d="M320.7,311c13.6,3.8,35.9,22.5,44.4,27.8,3.8,2.3,13.8,9.9,10,15.9,0,0-45.1-24.5-54.7-8.3s-16.7,31.1-26.5,45c-11.5,16.3-40.2,44.7-40.2,44.7-3.2.7-3.7.5-4.7-.2-1.4-1.2-1.9-6.2-.7-10.1L304,323.1C306.3,316.5,313.7,311,320.7,311Z" transform="translate(-50 0)"/><path class="cls-11" d="M247.7,282.7c-10.9,0-14,2.1-17.5,9.5-5.5,11.4-11.4,23-5.4,29.1s16,8.8,23,8.8V282.7Z" transform="translate(-50 0)"/><path class="cls-11" d="M247.7,335s-10-.4-12.8-2.1-10.7,45.7-9.7,59.6,5.3,11.6,5.3,11.6l17.2,25.8Z" transform="translate(-50 0)"/><path class="cls-12" d="M174.7,311c6.9,0,14.4,5.5,16.6,12L247,425.7c1.2,4,.7,8.4-.7,10.1-.7.8-.6.9-4.7.2,0,0-28.7-28.5-40.2-44.7-9.8-14-16.9-28.8-26.5-45s-54.7,8.3-54.7,8.3c-3.6-6,6.2-13.5,10-15.9C138.8,333.5,161.1,314.9,174.7,311Z" transform="translate(-50 0)"/><path class="cls-13" d="M247.7,486.7A7.7,7.7,0,1,0,240,479,7.7,7.7,0,0,0,247.7,486.7Z" transform="translate(-50 0)"/><path class="cls-14" d="M248,310.72c-70.52-29.46-108.75-35.27-175-30l3,202.86C140.83,485.36,178.8,494,248,516Z" transform="translate(-50 0)"/><path class="cls-9" d="M248,310.86c70.52-29.59,108.75-35.43,175-30.1l-3,203.73c-64.83,1.74-102.8,10.37-172,32.51Z" transform="translate(-50 0)"/><path class="cls-3" d="M50,371a15,15,0,0,1,15-15h35a15,15,0,0,1,15,15v24.69a15,15,0,0,1-16.26,14.94l-35-2.94A15,15,0,0,1,50,392.74Z" transform="translate(-50 0)"/><path class="cls-4" d="M445,371a15,15,0,0,0-15-15H395a15,15,0,0,0-15,15v24.69a15,15,0,0,0,16.26,14.94l35-2.94A15,15,0,0,0,445,392.74Z" transform="translate(-50 0)"/></g></svg>