<?xml version="1.0" encoding="utf-8"?>
<!-- Generator: Adobe Illustrator 19.0.0, SVG Export Plug-In . SVG Version: 6.00 Build 0)  -->
<svg version="1.1" id="Layer_1" xmlns="http://www.w3.org/2000/svg" xmlns:xlink="http://www.w3.org/1999/xlink" x="0px" y="0px"
	 viewBox="96 11 512 512" style="enable-background:new 96 11 512 512;" xml:space="preserve">
<style type="text/css">
	.st0{display:none;}
	.st1{display:inline;}
	.st2{fill:#0295AA;}
	.st3{fill:#FFFFFF;}
	.st4{fill:#4ACFD9;}
</style>
<g id="Layer_3" class="st0">
	<path class="st1" d="M1811,331.2c-31.9,14-69.9,24.6-120.5,24.6c-84,0-131.7-36.9-177.8-72.7c-44.6-34.5-86.6-67.1-161.3-67.1
		c-2.9,0-5.7,0.1-8.5,0.2v212.6H1811V331.2z"/>
	<path class="st1" d="M1299,223v205.8h43.9V216.2C1327,216.8,1312.5,219.2,1299,223z"/>
	<path class="st1" d="M1299-84v206h43.9v70.2c2.8-0.1,5.7-0.2,8.5-0.2c82.8,0,130.2,36.7,176,72.2c44.9,34.8,87.3,67.6,163.1,67.6
		c51.6,0,88.6-11.7,120.5-27V-84H1299z"/>
	<path class="st1" d="M1299,122v76.3c14.2-3.5,28.8-5.5,43.9-6.1V122H1299z"/>
	<path class="st1" d="M1690.5,331.8c-75.8,0-118.2-32.9-163.1-67.7c-45.8-35.5-93.1-72.2-176-72.2c-2.9,0-5.7,0.1-8.5,0.2v24
		c2.8-0.1,5.6-0.2,8.5-0.2c74.6,0,116.7,32.6,161.3,67.1c46.1,35.7,93.8,72.7,177.8,72.7c50.5,0,88.6-10.6,120.5-24.6v-26.4
		C1779.2,320.1,1742.2,331.8,1690.5,331.8z"/>
	<path class="st1" d="M1299,198.3V223c13.5-3.8,28-6.2,43.9-6.8v-24C1327.8,192.7,1313.2,194.7,1299,198.3z"/>
</g>
<g id="Layer_5" class="st0">
</g>
<path class="st2" d="M129.1,545.7c1-1,2.7-2.2,4.7-3.6c-0.5-0.1-1-0.2-1.5-0.3C130.5,544.4,129.2,545.7,129.1,545.7z"/>
<path class="st3" d="M-652.5,575h-413c-27.2,0-49.5-22.3-49.5-49.5v-413c0-27.2,22.3-49.5,49.5-49.5h413c27.2,0,49.5,22.3,49.5,49.5
	v413C-603,552.7-625.3,575-652.5,575z"/>
<path class="st2" d="M-1080.2,575.3c0.4-0.5,1.2-1.2,2.1-1.9c-0.2-0.1-0.4-0.1-0.6-0.2C-1079.6,574.5-1080.2,575.3-1080.2,575.3z"/>
<path class="st2" d="M-652.5,63h-104.3c-2,3.9-4.2,8-6.5,12.3c-7,12.6-12.7,21.4-17,27.6c-0.8,0-1.7-0.1-2.6-0.1
	c-15.5,0-40.6,5.2-80.7,49.9c-13.7,15.3-31.5,38.3-41.4,57.8c-1.8,1.1-4.7,2.5-9,4.2c-11.5,4.3-22.9,6.5-29.5,6.8
	c-6.8-2.9-14.3-4.5-22-4.5c-18.9,0-39.5,9.5-61.3,28.2c-17.2,14.7-32.8,33.5-42.7,51.4c-6.6,11.8-11.1,23.5-13.3,35.2
	c-0.5,0.2-1.1,0.5-1.7,0.7l-0.1,0.1c-9.4,4-21.3,6.7-30.3,6.8v186.1c0,17.3,9,32.6,22.6,41.5l15.5,2.3c-0.7,1.6-1.3,2.9-1.9,3.9
	c0.2,0.1,0.4,0.1,0.6,0.2c4.6-3.8,14.8-9.8,26.6-9.8c0.1,0,0.2,0,0.3,0c2.1,4.1,4.6,7.9,7.4,11.5h143c1.3-1.5,2.7-3.1,4.2-4.9
	c0.5-0.6,1-1.1,1.5-1.7c5.4-1.7,16.1-3.9,27.7-3.9c3.6,0,6.3,0.2,8.3,0.5c3.7,3.6,8.1,7.1,13.4,10h118.3
	c19.2-11.8,31-31.2,40.2-50.5c2.1-3,9.9-11.7,22.5-21.3c4.1-3.1,7.8-5.7,11-7.8c13.8,17.3,32.9,24,49.5,24h1.4V112.5
	C-603,85.3-625.3,63-652.5,63z"/>
<path class="st4" d="M-645.6,63.5h-67.1c-4.6,10.2-10,20.7-15.7,31.1c-21.5,38.8-36.9,53.9-42.1,54.4c-3.3-4-7.5-6.2-12.5-6.2
	c-26.6,0-79.4,67.1-88.9,91.2c-1,2.4-7.8,10.2-27.8,18c-15.3,5.8-32.7,9.5-45.4,9.5c-8.7,0-11.7-1.9-12.2-2.2
	c-2.3-1.5-5.1-2.3-8.3-2.3c-18.2,0-53,29.8-69.1,59.1c-7.2,12.7-10.4,24.8-9.7,35.8c-1.1,2.9-7.6,10.3-24.6,17.5
	c-14.5,6.2-31.6,9.9-46,10v148.1c0.3,7.4,2.2,14.4,5.4,20.6c9.2-10,30.8-24.6,58-24.6c21.7,0,30.5,6,32.5,8.5
	c1,13.3,8,28.8,34.5,28.8c45.9,0,29.4,15.7,63.3-23.3c5.4-6.2,29.5-13,53.8-13c22.8,0,31.7,5.8,33,7.8c5.3,8.3,15.2,12.5,30.3,12.5
	c39.1,0,56.7,13.4,81.1-38.3c8-17,56.8-58.6,82.6-58.6c5.8,0,9.3,2,10.3,6.2c4.2,16.3,13.1,25.3,25.8,25.3c0.5,0,0.9,0,1.4,0V112.5
	C-603,87.6-621.6,66.9-645.6,63.5z"/>
<path class="st2" d="M-32.8,191.2l32.7-16.6C22.8,162.9,42,151.6,59,141.7c39.8-23.3,74.2-43.4,117.3-43.4c12.4,0,24.7,1.6,37.5,5
	c24.6,6.5,81,13.4,137,13.4c64.8,0,101.7-9.2,113.5-17.1C478.6,90,486.3,81.1,496,70c11.2-12.9,25.2-29,48.7-44.4
	C569.1,9.7,600-3.2,642.1-15c11.1-3.1,22.1-4.7,32.6-4.7c24.3,0,46.9,8.3,65.4,23.9c14.7,12.4,26.7,29.5,35.7,50.6
	c24,56.1,22.5,130,19.5,169c-2.1,27.6-6.2,53.9-11.8,76.1c-7.3,29.2-16.5,48.8-28.9,61.8c-2.6,2.7-5.6,5.9-8.7,9.3
	C710.7,408.9,645,479.4,540.7,479.4c-10.9,0-22-0.8-33.1-2.3c-31.9-4.5-57.9-10-80.9-14.9c-28.3-6-50.6-10.8-71.7-10.8
	c-18,0-35.1,3.4-55.4,11c-85.9,32.2-216.4,63.5-221.9,64.8l-52.1,12.4L-32.8,191.2z"/>
<path class="st4" d="M22.6,219.1c88.5-45,121.5-82.5,178.5-67.5s232.5,28.5,291-10.5s40.5-73.5,163.5-108s97.5,258,63,294
	s-97.5,115.5-204,100.5c-106.5-15-148.5-43.5-232.5-12s-216,63-216,63L22.6,219.1z"/>
<path class="st3" d="M-617.7,214.7c-73.2,79.8-101.3,92-180.6,105.7c-70,12.1-140.6,47.3-202.9,78.3
	c-41.7,20.8-81.1,40.4-113.8,49.9v40.7c0,0,0,0,0,0c1.7,0,3.4-0.2,5.1-0.7c37.7-9.8,80.8-31.4,126.5-54.1
	c59.8-29.8,127.7-63.6,191.9-74.7c83.1-14.4,119.3-29.7,188.4-102.2v-49.3C-608.4,208.2-613.8,210.4-617.7,214.7z"/>
<path class="st3" d="M823.6,131.5C684.7,228.2,636,238.2,503.7,236.4c-116.8-1.7-240.4,30.4-349.5,58.6
	c-72.9,18.9-141.9,36.8-197.5,41.6l-10.1,59.7c0,0,0,0,0.1,0c2.7,0.5,5.5,0.6,8.4,0.4c63.7-4,139.3-23.6,219.3-44.3
	C279,325.2,397.7,294.5,504.9,296c138.6,1.9,201.4-10.5,331.9-97.7l12.3-72.2C840.3,124.6,831,126.3,823.6,131.5z"/>
</svg>
