<?xml version="1.0" encoding="utf-8"?>
<!-- Generator: Adobe Illustrator 19.0.0, SVG Export Plug-In . SVG Version: 6.00 Build 0)  -->
<svg version="1.1" id="Layer_1" xmlns="http://www.w3.org/2000/svg" xmlns:xlink="http://www.w3.org/1999/xlink" x="0px" y="0px"
	 viewBox="96 11 512 512" style="enable-background:new 96 11 512 512;" xml:space="preserve">
<style type="text/css">
	.st0{display:none;}
	.st1{display:inline;}
	.st2{fill:#FFFFFF;}
	.st3{fill:#FF8C29;}
	.st4{fill:#FD6A33;}
	.st5{fill:#BCD643;}
	.st6{fill:#0295AA;}
</style>
<g id="Layer_3" class="st0">
	<path class="st1" d="M2486.7,77.1c-44.6-34.5-86.6-67.1-161.3-67.1c-19.3,0-36.6,2.5-52.4,7v205.8h512v-97.6
		c-31.9,14-69.9,24.6-120.5,24.6C2580.5,149.8,2532.8,112.9,2486.7,77.1z"/>
	<path class="st1" d="M2501.4,58.2c44.9,34.8,87.3,67.6,163.1,67.6c51.6,0,88.6-11.7,120.5-27V-290h-512V-7.7
		c16.8-4.2,34.3-6.3,52.4-6.3C2408.3-14,2455.6,22.7,2501.4,58.2z"/>
	<path class="st1" d="M2664.5,125.8c-75.8,0-118.2-32.9-163.1-67.7c-45.8-35.5-93.1-72.2-176-72.2c-18.2,0-35.6,2.1-52.4,6.3v24.7
		c15.8-4.5,33.1-7,52.4-7c74.6,0,116.7,32.6,161.3,67.1c46.1,35.7,93.8,72.7,177.8,72.7c50.5,0,88.6-10.6,120.5-24.6V98.7
		C2753.2,114.1,2716.2,125.8,2664.5,125.8z"/>
</g>
<g id="Layer_5" class="st0">
</g>
<path class="st2" d="M1231.5,523h-413c-27.2,0-49.5-22.3-49.5-49.5v-413c0-27.2,22.3-49.5,49.5-49.5h413c27.2,0,49.5,22.3,49.5,49.5
	v413C1281,500.8,1258.7,523,1231.5,523z"/>
<rect x="-532.4" y="-149.3" width="2" height="3"/>
<polygon class="st3" points="904.9,205.3 769,104.8 769,431.9 904.9,506.2 "/>
<path class="st4" d="M1236.4,426.8L1236.4,426.8L1236.4,426.8z"/>
<polygon class="st4" points="911.9,199.1 769,94.4 769,115.1 897.8,211.4 897.8,493.5 769,422 769,441.7 911.9,518.9 "/>
<g>
	<polygon class="st5" points="919,502.4 1178.5,297 1178.5,30.7 919,204.9 	"/>
	<path class="st6" d="M911.9,518.9l273.6-216.6v-287L911.9,199.1V518.9z M926,210.9l245.4-165v245.7L926,485.9V210.9z"/>
</g>
<polygon class="st3" points="1192.6,26.5 1192.6,295.7 1281,368.1 1281,77.4 "/>
<polygon class="st4" points="1199.7,289.2 1199.7,37.8 1281,87 1281,67.9 1185.5,15.2 1185.5,302.4 1281,378.2 1281,358.2 "/>
<polygon class="st3" points="-57.6,608.6 778.9,311.2 778.9,-74.5 -57.6,177.8 "/>
<polygon class="st5" points="71.8,502.4 649.4,297 649.4,30.7 71.8,204.9 "/>
</svg>
