<?xml version="1.0" encoding="UTF-8" standalone="no"?>
<svg
   viewBox="0 0 512 512"
   version="1.1"
   id="svg8"
   width="512"
   height="512"
   xmlns="http://www.w3.org/2000/svg"
   xmlns:svg="http://www.w3.org/2000/svg">
  <defs
     id="defs12" />
  <g
     fill="none"
     fill-rule="evenodd"
     id="g6"
     transform="scale(16)">
    <circle
       cx="16"
       cy="16"
       r="16"
       fill="#302c2c"
       fill-rule="nonzero"
       id="circle2" />
    <path
       fill="#ffffff"
       d="m 15.496,27 c -0.27,-0.028 -0.54,-0.053 -0.81,-0.085 a 10.88,10.88 0 0 1 -4.122,-1.364 c -0.019,-0.01 -0.036,-0.025 -0.073,-0.05 2.206,-1.65 4.402,-3.29 6.61,-4.94 l 0.665,0.647 c 0.37,0.362 0.742,0.72 1.105,1.087 0.09,0.09 0.155,0.089 0.26,0.035 a 7.149,7.149 0 0 0 2.728,-2.39 l 0.107,-0.158 c 0.031,0.036 0.06,0.065 0.084,0.097 0.767,1.022 1.533,2.044 2.303,3.063 0.067,0.088 0.059,0.14 -0.012,0.22 -1.783,2.026 -3.999,3.274 -6.67,3.701 -0.336,0.054 -0.677,0.074 -1.016,0.111 -0.045,0.005 -0.09,0.017 -0.134,0.026 z m 0.97,-22 c 0.186,0.019 0.373,0.039 0.56,0.056 1.576,0.15 3.05,0.617 4.423,1.4 0.02,0.012 0.037,0.026 0.07,0.05 l -6.718,4.819 C 14.712,11.241 14.626,11.161 14.541,11.078 14.069,10.618 13.595,10.159 13.126,9.695 13.051,9.621 12.994,9.613 12.9,9.66 a 7.147,7.147 0 0 0 -2.77,2.424 l -0.1,0.15 L 7.562,8.946 C 7.811,8.682 8.041,8.419 8.29,8.176 9.913,6.593 11.84,5.586 14.073,5.181 14.503,5.103 14.942,5.077 15.377,5.026 15.426,5.021 15.475,5.009 15.523,5 h 0.942 z m -10.008,5.534 4.995,6.548 -1.008,1.034 c -0.251,0.257 -0.5,0.517 -0.756,0.77 -0.072,0.072 -0.075,0.127 -0.031,0.215 a 7.134,7.134 0 0 0 2.423,2.77 c 0.035,0.022 0.07,0.045 0.103,0.07 0.006,0.004 0.009,0.014 0.027,0.048 L 8.95,24.435 C 7,22.756 5.735,20.687 5.227,18.178 4.683,15.492 5.124,12.954 6.459,10.534 Z m 14.175,4.37 0.918,-0.953 c 0.256,-0.266 0.508,-0.535 0.77,-0.794 0.082,-0.081 0.081,-0.142 0.033,-0.238 a 7.137,7.137 0 0 0 -2.45,-2.798 c -0.037,-0.025 -0.073,-0.052 -0.136,-0.097 l 3.279,-2.46 c 1.857,1.59 3.09,3.55 3.656,5.915 0.707,2.952 0.077,5.872 -1.147,7.928 z"
       id="path4" />
  </g>
</svg>
