<?xml version="1.0" encoding="UTF-8" standalone="no"?>
<svg
   width="512"
   height="512"
   viewBox="0 0 512 512"
   version="1.1"
   id="svg8"
   xmlns="http://www.w3.org/2000/svg"
   xmlns:svg="http://www.w3.org/2000/svg">
  <defs
     id="defs12" />
  <g
     fill="none"
     id="g6"
     transform="scale(16)">
    <circle
       fill="#2ebac6"
       cx="16"
       cy="16"
       r="16"
       id="circle2" />
    <path
       d="M 22.934,21.574 17.584,8.042 C 17.28,7.342 16.834,7 16.243,7 H 15.77 c -0.592,0 -1.039,0.343 -1.341,1.042 l -2.327,5.896 h -1.761 c -0.528,0.002 -0.956,0.448 -0.96,1 v 0.014 c 0.004,0.553 0.432,0.999 0.96,1.001 h 0.946 L 9.066,21.574 A 1.235,1.235 0 0 0 9,21.958 C 9,22.273 9.092,22.52 9.263,22.712 9.433,22.904 9.67,23 9.973,23 a 0.933,0.933 0 0 0 0.552,-0.192 c 0.17,-0.123 0.289,-0.302 0.38,-0.507 l 2.446,-6.348 h 1.696 c 0.527,-0.002 0.955,-0.449 0.96,-1.001 v -0.027 c -0.005,-0.553 -0.433,-1 -0.96,-1.001 H 14.14 L 16.006,9.057 21.093,22.3 c 0.092,0.205 0.21,0.384 0.381,0.507 0.161,0.122 0.354,0.19 0.553,0.192 0.302,0 0.539,-0.096 0.71,-0.288 0.17,-0.192 0.262,-0.439 0.262,-0.754 a 0.944,0.944 0 0 0 -0.065,-0.384 z"
       fill="#ffffff"
       id="path4" />
  </g>
</svg>
