<?xml version="1.0" encoding="UTF-8" standalone="no"?>
<svg
   width="512"
   height="512"
   viewBox="0 0 512 512"
   version="1.1"
   id="svg20"
   xmlns:xlink="http://www.w3.org/1999/xlink"
   xmlns="http://www.w3.org/2000/svg"
   xmlns:svg="http://www.w3.org/2000/svg">
  <defs
     id="defs10">
    <filter
       x="-0.05457377"
       y="-0.060033098"
       width="1.1091475"
       height="1.14508"
       filterUnits="objectBoundingBox"
       id="a">
      <feOffset
         dy=".5"
         in="SourceAlpha"
         result="shadowOffsetOuter1"
         id="feOffset2" />
      <feGaussianBlur
         stdDeviation=".5"
         in="shadowOffsetOuter1"
         result="shadowBlurOuter1"
         id="feGaussianBlur4" />
      <feColorMatrix
         values="0 0 0 0 0 0 0 0 0 0 0 0 0 0 0 0 0 0 0.204257246 0"
         in="shadowBlurOuter1"
         id="feColorMatrix6" />
    </filter>
    <path
       d="m 15.725,6.06 c 0.479,-0.247 1.064,0.324 0.81,0.795 -0.149,0.384 -0.71,0.486 -0.996,0.193 -0.303,-0.28 -0.204,-0.836 0.186,-0.989 z M 10.57,6.606 C 10.861,6.488 11.23,6.75 11.2,7.063 11.23,7.401 10.81,7.651 10.513,7.49 10.12,7.34 10.165,6.712 10.57,6.606 Z m 10.558,0.893 c -0.455,-0.054 -0.527,-0.758 -0.09,-0.9 0.34,-0.162 0.652,0.143 0.702,0.46 -0.072,0.27 -0.302,0.518 -0.612,0.44 z m -9.385,1.265 c 0.487,-0.303 1.181,0.148 1.106,0.705 -0.025,0.561 -0.783,0.887 -1.211,0.507 -0.414,-0.298 -0.351,-0.982 0.105,-1.212 z m 7.43,0.322 C 19.39,8.536 20.27,8.518 20.517,9.054 20.762,9.471 20.461,9.988 20.026,10.13 19.449,10.236 18.902,9.622 19.173,9.086 Z m -4.069,1.013 c -0.005,-0.474 0.433,-0.826 0.89,-0.859 0.304,0.06 0.634,0.187 0.764,0.488 0.243,0.416 0.027,0.987 -0.41,1.178 -0.2,0.11 -0.438,0.069 -0.656,0.056 -0.333,-0.16 -0.614,-0.477 -0.588,-0.863 z m -7.666,0.69 c 0.445,-0.27 1.045,0.22 0.876,0.696 C 8.222,11.896 7.66,12.063 7.339,11.801 6.996,11.555 7.05,10.964 7.439,10.788 Z M 23.9,10.787 c 0.377,-0.288 1,0.043 0.954,0.511 0.026,0.427 -0.513,0.75 -0.887,0.53 -0.412,-0.183 -0.455,-0.807 -0.067,-1.04 z m -6.64,0.851 c 0.622,-0.22 1.362,0.043 1.716,0.59 0.468,0.667 0.22,1.683 -0.507,2.066 -0.752,0.453 -1.851,0.07 -2.13,-0.758 -0.315,-0.74 0.145,-1.666 0.92,-1.898 z m -3.653,0.073 c 0.69,-0.32 1.619,-0.052 1.952,0.642 0.392,0.676 0.089,1.617 -0.612,1.966 -0.702,0.393 -1.693,0.095 -2.032,-0.63 -0.381,-0.702 -0.043,-1.655 0.692,-1.978 z M 9.95,12.94 c 0.053,-0.437 0.472,-0.722 0.895,-0.752 a 0.98,0.98 0 0 1 0.87,0.857 c -0.03,0.45 -0.383,0.888 -0.867,0.886 -0.533,0.045 -1,-0.477 -0.898,-0.991 z m 10.802,-0.656 c 0.547,-0.313 1.306,0.142 1.282,0.76 0.037,0.655 -0.803,1.116 -1.347,0.732 -0.566,-0.32 -0.522,-1.22 0.065,-1.492 z m -8.63,2.307 c 0.638,-0.173 1.37,0.123 1.683,0.701 0.343,0.582 0.203,1.39 -0.33,1.818 -0.685,0.626 -1.946,0.374 -2.31,-0.48 -0.419,-0.783 0.09,-1.833 0.956,-2.04 z m 6.927,-0.003 c 0.621,-0.175 1.351,0.06 1.685,0.617 0.442,0.637 0.231,1.588 -0.426,1.998 -0.69,0.477 -1.756,0.227 -2.136,-0.519 -0.46,-0.771 0.003,-1.861 0.877,-2.096 z m -11.04,0.726 c 0.552,-0.205 1.164,0.394 0.94,0.933 -0.136,0.49 -0.839,0.672 -1.202,0.31 -0.425,-0.34 -0.268,-1.095 0.262,-1.243 z m 14.969,0.782 a 0.836,0.836 0 0 1 0.788,-0.874 c 0.378,0.06 0.746,0.36 0.716,0.765 0.035,0.535 -0.62,0.898 -1.084,0.647 -0.217,-0.109 -0.328,-0.328 -0.42,-0.538 z M 5.294,15.58 C 5.626,15.437 6.037,15.72 5.961,16.083 5.943,16.494 5.326,16.653 5.1,16.309 4.9,16.07 5.02,15.703 5.294,15.579 Z m 20.949,-0.009 c 0.234,-0.163 0.61,-0.046 0.702,0.223 0.157,0.294 -0.131,0.696 -0.467,0.647 -0.472,0.042 -0.624,-0.665 -0.235,-0.87 z m -12.317,1.973 c 0.874,-0.223 1.814,0.494 1.82,1.38 0.056,0.895 -0.87,1.688 -1.764,1.482 -0.692,-0.11 -1.235,-0.766 -1.212,-1.453 -0.002,-0.658 0.502,-1.27 1.156,-1.409 z m 3.462,-0.001 c 0.887,-0.244 1.855,0.486 1.841,1.392 0.047,0.878 -0.85,1.645 -1.726,1.47 -0.825,-0.104 -1.433,-0.995 -1.203,-1.783 0.116,-0.524 0.562,-0.95 1.088,-1.08 z m -6.676,0.545 c 0.614,-0.103 1.19,0.57 0.941,1.144 -0.182,0.612 -1.086,0.777 -1.486,0.278 -0.468,-0.48 -0.118,-1.356 0.545,-1.422 z m 10.154,0.027 c 0.548,-0.226 1.22,0.24 1.178,0.825 0.022,0.643 -0.808,1.087 -1.343,0.711 -0.607,-0.337 -0.496,-1.33 0.165,-1.536 z m 2.838,2.8 c -0.214,-0.393 0.175,-0.914 0.62,-0.841 0.22,-0.004 0.375,0.167 0.516,0.311 0.029,0.233 0.078,0.511 -0.119,0.69 -0.267,0.333 -0.872,0.238 -1.017,-0.16 z M 7.436,20.183 c 0.415,-0.271 1.012,0.134 0.918,0.61 -0.05,0.423 -0.59,0.664 -0.945,0.424 C 7.027,21 7.041,20.381 7.436,20.183 Z m 8.193,0.883 c 0.543,-0.235 1.235,0.23 1.183,0.818 0.04,0.65 -0.815,1.1 -1.346,0.71 -0.59,-0.335 -0.491,-1.321 0.163,-1.528 z m -3.794,0.871 c 0.462,-0.239 1.082,0.174 1.04,0.684 0.014,0.418 -0.4,0.774 -0.82,0.712 -0.347,-0.007 -0.573,-0.314 -0.685,-0.605 0.006,-0.317 0.139,-0.67 0.465,-0.79 z m 7.686,0.008 c 0.476,-0.29 1.152,0.126 1.107,0.67 0.012,0.57 -0.752,0.934 -1.195,0.56 -0.428,-0.293 -0.376,-0.997 0.088,-1.23 z m 1.337,3.25 c -0.212,-0.314 0.037,-0.693 0.38,-0.765 0.277,0.055 0.57,0.26 0.511,0.574 -0.04,0.427 -0.674,0.557 -0.891,0.192 z M 10.247,24.922 c 0.084,-0.25 0.288,-0.497 0.587,-0.432 0.435,0.03 0.564,0.676 0.183,0.875 -0.342,0.227 -0.74,-0.084 -0.77,-0.443 z m 5.12,0.287 c 0.083,-0.37 0.568,-0.549 0.888,-0.353 0.212,0.09 0.274,0.322 0.328,0.52 a 8.822,8.822 0 0 0 -0.08,0.31 c -0.131,0.152 -0.3,0.305 -0.518,0.3 -0.405,0.047 -0.771,-0.404 -0.619,-0.777 z"
       id="b" />
  </defs>
  <g
     fill="none"
     id="g18"
     transform="scale(16)">
    <circle
       cx="16"
       cy="16"
       r="16"
       fill="#0d1e30"
       id="circle12" />
    <use
       fill="#000000"
       filter="url(#a)"
       xlink:href="#b"
       id="use14"
       x="0"
       y="0"
       width="100%"
       height="100%" />
    <use
       fill="#ffffff"
       xlink:href="#b"
       id="use16"
       x="0"
       y="0"
       width="100%"
       height="100%" />
  </g>
</svg>
