<?xml version="1.0" encoding="UTF-8" standalone="no"?>
<svg
   viewBox="0 0 512 512"
   version="1.1"
   id="svg54"
   width="512"
   height="512"
   xmlns="http://www.w3.org/2000/svg"
   xmlns:svg="http://www.w3.org/2000/svg">
  <defs
     id="defs58" />
  <g
     fill="none"
     fill-rule="evenodd"
     id="g52"
     transform="scale(16)">
    <circle
       cx="16"
       cy="16"
       fill="#2b5ebb"
       r="16"
       id="circle48" />
    <path
       d="m 26,15.962 c -0.001,2.336 -1.81,4.158 -4.122,4.151 -2.264,-0.007 -4.102,-1.879 -4.09,-4.166 0.012,-2.286 1.87,-4.15 4.122,-4.135 2.299,0.015 4.091,1.834 4.09,4.15 z M 9.09,23.92 A 3.019,3.019 0 0 1 6.069,20.866 c 0.005,-1.706 1.339,-3.085 3.016,-3.046 0.482,0.011 0.966,0.191 1.436,0.338 0.668,0.209 1.32,0.468 1.986,0.686 0.413,0.136 0.808,0.04 1.173,-0.186 0.53,-0.33 0.98,-0.728 1.267,-1.312 0.29,-0.594 0.95,-0.815 1.537,-0.563 0.544,0.234 0.827,0.827 0.67,1.403 -0.177,0.647 -0.71,0.995 -1.374,0.879 -0.589,-0.103 -1.173,-0.293 -1.771,-0.076 -1.07,0.389 -1.54,1.275 -1.892,2.286 -0.192,0.553 -0.396,1.134 -0.74,1.59 -0.552,0.736 -1.364,1.059 -2.287,1.055 z M 9.026,8.082 c 1.367,0 2.432,0.8 2.896,2.117 0.184,0.52 0.46,1.007 0.696,1.508 0.583,1.24 2.046,1.362 2.974,1.023 0.822,-0.3 1.614,0.228 1.633,1.08 0.013,0.59 -0.29,1.02 -0.844,1.194 -0.49,0.152 -1.042,-0.055 -1.342,-0.502 -0.107,-0.16 -0.207,-0.326 -0.326,-0.477 -0.816,-1.03 -1.722,-1.3 -2.95,-0.838 -0.428,0.16 -0.829,0.4 -1.231,0.623 A 3.018,3.018 0 0 1 6.298,12.452 c -0.956,-2.03 0.504,-4.37 2.728,-4.37 z m 9.53,15.908 c -0.012,1.119 -0.925,2.03 -2.015,2.01 -1.053,-0.02 -1.933,-0.927 -1.96,-1.947 -0.029,-1.154 0.819,-2.093 1.998,-2.104 1.128,-0.011 1.99,0.919 1.978,2.04 z M 14.594,8.02 c 0,-1.132 0.886,-2.03 1.995,-2.02 1.078,0.01 1.98,0.933 1.971,2.018 -0.008,1.141 -0.862,2.056 -1.986,2.035 -1.279,-0.024 -2.032,-1.055 -1.98,-2.033 z"
       fill="#ffffff"
       id="path50" />
  </g>
</svg>
