<svg width="512" height="512" viewBox="0 0 512 512" fill="none" xmlns="http://www.w3.org/2000/svg">
<g clip-path="url(#clip0_3_1367)">
<path fill-rule="evenodd" clip-rule="evenodd" d="M-1 256C-1 114.615 113.615 0 255 0V98.7168C234.609 114.969 214.518 141.147 197.88 173.936C205.56 171.824 213.512 169.984 221.592 168.432C232.616 160.673 243.812 153.716 255 147.649V153.076C247.221 157.276 239.386 161.925 231.56 167.008C236.68 166.16 241.864 165.456 246.984 164.896C249.662 164.584 252.334 164.302 255 164.05V168.847C251.791 169.133 248.563 169.464 245.32 169.84C148.36 181.072 74.024 228.64 79.272 276.08C84.3653 321.966 162.092 350.911 255 342.566V348.121C243.813 349.155 232.745 349.648 221.944 349.648C189.848 349.648 159.848 345.136 134.872 336.288C124.544 332.735 114.665 327.994 105.432 322.16C102.024 340.048 104.312 355.808 113.096 367.536C135.459 397.415 193.465 392.379 255 359.257V364.986C234.715 375.862 214.517 383.801 195.464 388.24C186.227 390.452 176.795 391.754 167.304 392.128C174.44 411.008 185.576 424.224 200.296 429.168C217.046 434.799 236.112 429.086 255 414.689V512C113.615 512 -1 397.385 -1 256ZM255 303.311V208.185C253.437 207.248 251.853 206.48 250.312 205.888C244.424 203.632 237.096 202.56 228.232 202.56C221.775 202.592 215.328 203.068 208.936 203.984C202.296 204.832 195.592 206.176 188.616 207.872L183.976 232.752C189.576 229.904 195.464 227.792 201.544 226.384C207.688 224.976 214.2 224.192 220.968 224.192C228.104 224.192 233.56 225.184 237.224 227.232C240.888 229.216 242.76 232.176 242.76 236.208C242.76 236.496 242.76 236.848 242.696 237.2C242.676 237.797 242.579 238.388 242.408 238.96L241.848 241.584L223.608 241.648C204.792 241.728 190.472 245.184 180.664 252.176C170.904 259.104 165.992 269.072 166.072 282.224C166.136 290.768 168.968 297.568 174.712 302.432C180.376 307.312 188.344 309.792 198.424 309.712C206.414 309.725 214.324 308.114 221.672 304.976C229.595 301.504 236.851 296.674 243.112 290.704C245.694 296.272 250.27 300.558 255 303.311ZM204.856 265.04C209.016 262.496 215.032 261.152 222.984 261.152H238.328L237.656 264.912C236.184 272.256 233.224 277.984 228.856 282.08C224.504 286.112 219.032 288.16 212.472 288.16C208.248 288.16 204.856 287.104 202.44 284.976C200.088 282.864 198.84 279.888 198.84 276.208C198.84 271.28 200.856 267.52 204.856 265.04Z" fill="#0295AA"/>
<path fill-rule="evenodd" clip-rule="evenodd" d="M512 256C512 397.385 396.937 512 255 512V413.916C275.942 397.671 296.613 370.882 313.636 337.134C305.926 339.262 297.943 341.166 289.896 342.798C278.375 350.905 266.676 358.156 255 364.446V358.715C262.596 354.607 270.243 350.076 277.881 345.134C272.741 345.902 267.601 346.606 262.397 347.246C259.927 347.532 257.461 347.792 255 348.025V342.473C257.795 342.215 260.604 341.923 263.425 341.598C360.844 330.35 435.406 282.782 430.121 235.358C425.047 189.685 347.658 160.782 255 168.757V163.955C299.283 159.904 341.585 164.062 374.931 175.838C385.31 179.394 395.239 184.14 404.518 189.982C407.907 172.094 405.626 156.334 396.808 144.606C374.422 114.833 316.531 119.728 255 152.537V147.107C275.858 135.938 296.669 127.847 316.27 123.39C325.548 121.222 335.016 119.967 344.54 119.646C337.441 100.766 326.341 87.4861 311.548 82.4781C294.305 76.6212 274.539 82.7307 255 97.926V0C396.937 0 512 114.615 512 256ZM258.365 305.406C257.258 304.983 256.128 304.469 255 303.867V208.807C259.253 211.56 263.235 215.55 265.593 220.59C271.877 214.615 279.161 209.779 287.117 206.302C294.489 203.166 302.424 201.555 310.44 201.566C320.575 201.502 328.558 203.966 334.244 208.846C340.027 213.726 342.854 220.526 342.918 229.07C342.998 242.142 338.147 252.174 328.285 259.102C318.423 266.11 304.047 269.566 285.173 269.646L266.846 269.71L266.284 272.318C266.117 272.891 266.026 273.482 266.011 274.078C265.93 274.446 265.93 274.798 265.93 275.086C265.93 279.118 267.81 282.078 271.488 284.046C275.182 286.11 280.644 287.086 287.808 287.086C294.602 287.086 301.139 286.318 307.307 284.91C313.411 283.486 319.322 281.374 324.944 278.542L320.286 303.422C313.283 305.118 306.552 306.462 299.887 307.31C293.47 308.226 286.997 308.702 280.515 308.734C271.633 308.734 264.276 307.662 258.365 305.406ZM296.353 223.278C300.577 223.278 303.982 224.334 306.408 226.446C308.849 228.574 310.022 231.47 310.022 235.15C310.022 240.094 307.998 243.838 303.982 246.318C299.822 248.862 293.783 250.206 285.8 250.206L270.38 250.27L271.07 246.526C272.532 239.182 275.52 233.454 279.889 229.358C284.258 225.326 289.751 223.278 296.353 223.278Z" fill="#4ACFD9"/>
</g>
<defs>
<clipPath id="clip0_3_1367">
<rect width="512" height="512" fill="white"/>
</clipPath>
</defs>
</svg>
