<?xml version="1.0" encoding="UTF-8" standalone="no"?>
<svg
   width="512"
   height="512"
   viewBox="0 0 512 512"
   version="1.1"
   id="svg78"
   xmlns="http://www.w3.org/2000/svg"
   xmlns:svg="http://www.w3.org/2000/svg">
  <defs
     id="defs82" />
  <g
     fill="none"
     id="g76"
     transform="scale(16)">
    <circle
       fill="#000000"
       cx="16"
       cy="16"
       r="16"
       id="circle72" />
    <path
       d="m 10.25,22.916 2.303,-3.986 2.301,-3.972 2.288,-3.986 0.38,-0.632 0.167,0.632 0.702,2.624 -0.786,1.362 -2.301,3.972 -2.288,3.986 h 2.75 l 2.302,-3.986 1.193,-2.063 0.562,2.063 1.066,3.986 h 2.47 l -1.066,-3.986 -1.067,-3.972 -0.28,-1.025 1.712,-2.961 H 20.16 L 20.075,10.677 19.205,7.421 19.093,7 h -2.4 L 16.637,7.084 14.391,10.972 12.089,14.958 9.802,18.93 7.5,22.916 Z"
       fill="#ffffff"
       id="path74" />
  </g>
</svg>
