<svg width="512" height="512" viewBox="0 0 512 512" fill="none" xmlns="http://www.w3.org/2000/svg">
<path fill-rule="evenodd" clip-rule="evenodd" d="M243.031 123.908C227.458 136.525 209.734 142.953 189.814 143.207C188.625 143.159 187.435 143.151 186.246 143.183L185.099 143.158L182.105 143.457C171.825 144.605 162.918 148.946 155.409 156.431C146.576 165.288 142.135 175.866 142.135 188.092C142.048 193.939 143.116 199.746 145.278 205.179C147.44 210.612 150.654 215.565 154.735 219.753C158.589 223.992 163.257 227.412 168.46 229.808C173.664 232.204 179.297 233.528 185.024 233.7H187.818C208.44 233.872 226.834 240.376 243.031 253.193V230.434C236.453 218.007 233.012 204.581 232.702 190.163L232.727 188.067C232.533 176.415 234.729 164.847 239.179 154.076C240.323 151.308 241.609 148.607 243.031 145.985V123.908ZM243.031 418.296V396.204C227.232 409.034 209.046 415.457 188.442 415.457H186.396C161.421 415.457 140.115 406.375 122.4 388.237C104.711 369.625 96.0785 347.844 96.5526 322.894C96.0785 311.093 91.4379 300.864 82.5808 292.256C73.7487 283.624 63.4196 279.307 51.6184 279.307V279.282C45.608 279.169 39.6381 280.289 34.0769 282.571C28.5158 284.854 23.4812 288.252 19.2838 292.556C10.4267 301.413 6.01062 311.966 6.01062 324.217C5.87446 330.393 7.04928 336.529 9.4576 342.219C11.8659 347.908 15.453 353.023 19.9824 357.225C24.4194 361.541 29.7039 364.889 35.5015 367.058C41.2992 369.227 47.4838 370.169 53.6643 369.824C65.4294 370.11 77.0213 372.724 87.77 377.516C98.5188 382.308 108.211 389.183 116.288 397.743C133.528 414.983 142.135 436.09 142.135 461.04C142.059 466.916 143.166 472.748 145.39 478.187C147.615 483.627 150.912 488.563 155.084 492.701C163.692 501.558 174.146 505.974 186.396 505.974H187.743C193.647 506.042 199.503 504.9 204.948 502.617C210.394 500.334 215.314 496.959 219.404 492.701C228.261 483.844 232.677 473.29 232.677 461.04C232.677 445.251 236.125 431.001 243.031 418.296ZM53.7391 143.158H50.9947C27.8664 143.158 13.3458 154.285 7.45769 176.515C6.5484 183.439 6.8864 190.469 8.45568 197.273C9.95297 204.088 12.7299 210.556 16.6391 216.335C20.4297 221.951 25.5794 226.517 31.6089 229.608C37.7465 232.776 45.1066 234.149 53.7142 233.675C65.4811 233.964 77.074 236.582 87.8229 241.378C98.5717 246.174 108.263 253.054 116.338 261.618C124.698 269.736 131.307 279.481 135.756 290.252C140.206 301.022 142.403 312.59 142.21 324.242C142.097 330.252 143.216 336.222 145.499 341.783C147.782 347.344 151.18 352.379 155.483 356.576C164.341 365.408 175.094 369.849 187.818 369.849C193.718 369.914 199.569 368.77 205.01 366.487C210.451 364.204 215.366 360.831 219.454 356.576C228.311 347.719 232.727 336.941 232.727 324.217C232.727 312.44 228.536 302.111 220.153 293.279C216.301 289.035 211.634 285.611 206.43 283.21C201.226 280.81 195.592 279.483 189.864 279.307C165.813 279.756 144.032 271.348 124.521 254.108C106.832 236.868 97.5007 215.312 96.6025 189.464C95.7043 164.489 104.536 142.708 123.149 124.096C141.761 105.484 163.991 96.6266 189.864 97.5498C195.59 97.3778 201.224 96.0542 206.427 93.6581C211.631 91.2619 216.299 87.8422 220.153 83.603C228.536 74.7459 232.727 64.1672 232.727 51.942C232.727 39.6917 228.311 29.1381 219.454 20.281C210.622 11.4239 200.043 7.0078 187.818 7.0078C181.808 6.89463 175.838 8.01397 170.277 10.2968C164.715 12.5796 159.681 15.9775 155.483 20.281C146.626 29.1381 142.21 39.6917 142.21 51.942C142.21 75.9933 133.578 97.3252 116.363 115.938C98.6484 133.627 77.7656 142.708 53.7391 143.158Z" fill="#0295AA"/>
<path fill-rule="evenodd" clip-rule="evenodd" d="M243.031 418.271C247.039 410.9 252.211 404.048 258.55 397.718C275.316 380.029 296.424 370.697 321.847 369.799H323.893C346.572 369.799 361.093 358.472 367.455 335.768C370.624 322.171 367.904 309.197 359.272 296.971C350.664 284.247 338.164 278.359 321.847 279.257C297.347 278.808 276.239 269.727 258.55 252.012C252.212 245.183 247.039 237.981 243.031 230.409V253.168C245.529 255.144 247.974 257.271 250.367 259.547C259.136 267.6 266.143 277.381 270.948 288.275C275.753 299.168 278.251 310.938 278.285 322.844C278.734 348.293 269.877 370.049 251.739 388.212C248.922 391.097 246.019 393.752 243.031 396.179V418.271ZM243.031 123.883V145.96C247.142 138.379 252.388 131.449 258.6 125.418C266.676 116.858 276.369 109.984 287.118 105.192C297.866 100.4 309.458 97.7854 321.223 97.4997C347.096 97.0506 369.102 105.883 387.265 124.046C405.852 143.108 414.934 165.113 414.46 190.063C414.583 195.902 415.884 201.657 418.285 206.981C420.686 212.306 424.137 217.091 428.432 221.05C432.617 225.128 437.565 228.34 442.994 230.502C448.423 232.664 454.225 233.734 460.068 233.649C465.972 233.718 471.827 232.575 477.273 230.292C482.718 228.009 487.638 224.634 491.729 220.376C500.586 211.494 505.002 200.741 505.002 188.042C505.002 175.317 500.237 164.539 490.731 155.707C481.175 146.85 470.272 142.658 458.047 143.108C433.546 142.658 412.439 133.577 394.725 115.888C377.485 97.2752 368.877 75.9433 368.877 51.8919V46.4778C368.877 46.0038 368.653 45.5547 368.179 45.1056V43.0598C368.179 42.6107 367.954 42.1616 367.505 41.7125V39.6666L366.831 38.968V37.6208L366.482 37.2715C366.257 37.0469 366.158 36.7226 366.158 36.2485V35.5749C365.709 35.5749 365.459 35.1258 365.459 34.2027L364.785 33.529L364.436 33.1797C364.212 32.9552 364.112 32.6308 364.112 32.1817V31.4832C363.663 31.4832 363.413 31.2586 363.413 30.8095L363.089 30.4602C362.864 30.2357 362.74 29.9113 362.74 29.4373H362.066V28.7886L361.392 28.115V26.7427L360.694 26.0691L360.02 25.3955L359.671 25.0462C359.446 24.8216 359.346 24.4723 359.346 24.0232L358.673 23.3496C358.224 23.3496 357.974 23.1251 357.974 22.676L357.65 22.3017C357.425 22.1021 357.301 21.7528 357.301 21.3037H356.627V20.6301C356.178 20.6301 355.928 20.4055 355.928 19.9565L355.255 19.2579C354.806 19.2579 354.356 19.0333 353.907 18.5842L353.209 17.9106H352.535V17.212C352.086 17.212 351.862 16.9875 351.862 16.5384C350.938 16.5384 350.489 16.3138 350.489 15.8647H349.816V15.1661L349.117 14.4925C348.219 14.4925 347.77 14.268 347.77 13.8189H347.096L346.398 13.1452C345.948 13.1452 345.624 13.0454 345.375 12.7959L345.05 12.4466L344.377 11.773H343.678V11.0994H342.331L341.632 10.4008C341.183 10.4008 340.734 10.1762 340.285 9.72714H338.913L338.239 9.0535H336.867L336.193 8.37986H334.821C334.372 8.37986 334.048 8.2551 333.823 8.03056L333.474 7.68127H332.101C331.652 7.68127 331.328 7.58147 331.104 7.35692L330.754 7.00763H316.458C316.458 7.45672 316.234 7.68127 315.784 7.68127H313.739L313.065 8.37986H311.019L310.345 9.0535H308.973L308.3 9.72714H306.927V10.3509H305.58L304.882 11.0495H304.208V11.7231H302.836L302.162 12.3967H301.488C301.488 12.8458 301.264 13.0953 300.815 13.0953C300.366 13.0953 300.116 13.3199 300.116 13.769H299.442L298.769 14.4426L298.07 15.1162C297.646 15.1162 297.397 15.3408 297.397 15.8148H296.049V16.4885L295.351 17.1621C294.927 17.1621 294.677 17.3866 294.677 17.8607H293.305L292.631 18.5343C292.631 18.9834 292.407 19.208 291.958 19.208V19.9315H291.284V20.6051L290.585 21.2788C290.161 21.2788 289.912 21.5033 289.912 21.9524L289.238 22.651L288.565 23.3247C281.753 31.4832 278.335 40.5648 278.335 50.5446C278.809 75.9682 269.728 97.9737 251.115 116.586C248.488 119.213 245.793 121.646 243.031 123.883Z" fill="#4ACFD9"/>
</svg>
