<svg width="512" height="512" viewBox="0 0 512 512" fill="none" xmlns="http://www.w3.org/2000/svg">
<path d="M256 0V512C114.615 512 0 397.385 0 256C0 114.615 114.615 0 256 0Z" fill="#0295AA"/>
<path d="M256 512V0C397.385 0 512 114.615 512 256C512 397.385 397.385 512 256 512Z" fill="#4ACFD9"/>
<path fill-rule="evenodd" clip-rule="evenodd" d="M256.004 170.974C246.017 179.066 234.651 183.188 221.876 183.352C221.114 183.321 220.351 183.315 219.588 183.336L218.852 183.319L216.932 183.512C210.341 184.248 204.629 187.032 199.813 191.832C194.149 197.512 191.301 204.296 191.301 212.136C191.245 215.886 191.929 219.61 193.316 223.094C194.703 226.579 196.764 229.755 199.381 232.441C201.852 235.16 204.845 237.353 208.183 238.889C211.52 240.426 215.132 241.275 218.804 241.385H220.596C233.821 241.496 245.617 245.667 256.004 253.887V239.292C251.785 231.322 249.579 222.711 249.38 213.464L249.396 212.12C249.271 204.648 250.679 197.229 253.533 190.322C254.267 188.546 255.092 186.814 256.004 185.132V170.974ZM256.004 359.768V345.601C245.872 353.829 234.209 357.949 220.996 357.949H219.684C203.669 357.949 190.005 352.124 178.645 340.492C167.301 328.556 161.766 314.587 162.07 298.587C161.766 291.019 158.79 284.458 153.11 278.938C147.446 273.402 140.822 270.634 133.254 270.634V270.618C129.4 270.545 125.571 271.263 122.005 272.727C118.439 274.191 115.21 276.37 112.519 279.13C106.839 284.81 104.007 291.579 104.007 299.435C103.919 303.396 104.673 307.331 106.217 310.98C107.762 314.629 110.062 317.909 112.967 320.603C115.812 323.371 119.201 325.519 122.919 326.91C126.637 328.301 130.603 328.905 134.566 328.684C142.111 328.867 149.545 330.544 156.437 333.617C163.33 336.69 169.546 341.099 174.725 346.588C185.781 357.644 191.301 371.181 191.301 387.181C191.252 390.95 191.962 394.69 193.388 398.178C194.815 401.666 196.929 404.832 199.605 407.486C205.125 413.166 211.828 415.998 219.684 415.998H220.548C224.335 416.042 228.09 415.309 231.582 413.845C235.074 412.381 238.229 410.217 240.852 407.486C246.532 401.806 249.364 395.038 249.364 387.181C249.364 377.055 251.574 367.916 256.004 359.768ZM134.614 183.319H132.854C118.023 183.319 108.711 190.456 104.935 204.712C104.352 209.152 104.568 213.661 105.575 218.025C106.535 222.395 108.316 226.543 110.823 230.249C113.253 233.851 116.556 236.779 120.422 238.761C124.358 240.793 129.078 241.673 134.598 241.369C142.144 241.554 149.578 243.234 156.471 246.31C163.364 249.385 169.579 253.797 174.757 259.29C180.119 264.496 184.357 270.745 187.21 277.653C190.064 284.56 191.472 291.978 191.349 299.451C191.276 303.305 191.994 307.134 193.458 310.7C194.922 314.267 197.101 317.496 199.861 320.187C205.541 325.852 212.436 328.7 220.596 328.7C224.38 328.741 228.132 328.007 231.621 326.543C235.11 325.079 238.263 322.916 240.884 320.187C246.564 314.507 249.396 307.595 249.396 299.435C249.396 291.883 246.708 285.258 241.332 279.594C238.862 276.873 235.869 274.677 232.532 273.137C229.195 271.598 225.582 270.746 221.908 270.634C206.485 270.922 192.517 265.53 180.005 254.474C168.661 243.417 162.678 229.593 162.102 213.016C161.526 197 167.189 183.031 179.125 171.095C191.061 159.159 205.317 153.479 221.908 154.071C225.581 153.96 229.193 153.112 232.53 151.575C235.867 150.038 238.861 147.845 241.332 145.126C246.708 139.446 249.396 132.662 249.396 124.822C249.396 116.966 246.564 110.197 240.884 104.517C235.22 98.8371 228.436 96.005 220.596 96.005C216.742 95.9324 212.914 96.6503 209.347 98.1143C205.781 99.5783 202.552 101.757 199.861 104.517C194.181 110.197 191.349 116.966 191.349 124.822C191.349 140.246 185.813 153.927 174.773 165.863C163.414 177.207 150.022 183.031 134.614 183.319Z" fill="#E6EAEA"/>
<path fill-rule="evenodd" clip-rule="evenodd" d="M256.004 359.769C258.574 355.042 261.89 350.648 265.955 346.589C276.707 335.244 290.243 329.26 306.546 328.684H307.858C322.402 328.684 331.714 321.42 335.794 306.86C337.826 298.139 336.082 289.819 330.546 281.979C325.026 273.819 317.01 270.042 306.546 270.618C290.835 270.33 277.299 264.506 265.955 253.146C261.891 248.766 258.574 244.148 256.004 239.292V253.888C257.605 255.155 259.173 256.518 260.707 257.978C266.331 263.143 270.825 269.415 273.906 276.402C276.987 283.388 278.589 290.936 278.611 298.571C278.899 314.892 273.219 328.844 261.587 340.492C259.781 342.342 257.92 344.045 256.004 345.601V359.769ZM256.004 170.975V185.132C258.64 180.271 262.004 175.827 265.987 171.96C271.166 166.47 277.382 162.061 284.275 158.988C291.168 155.915 298.602 154.238 306.146 154.055C322.738 153.767 336.85 159.431 348.498 171.08C360.417 183.304 366.241 197.416 365.937 213.417C366.016 217.162 366.85 220.852 368.39 224.267C369.93 227.682 372.143 230.751 374.897 233.289C377.581 235.905 380.754 237.965 384.236 239.351C387.717 240.738 391.438 241.424 395.185 241.37C398.971 241.413 402.726 240.68 406.218 239.216C409.71 237.752 412.865 235.588 415.488 232.857C421.168 227.161 424 220.265 424 212.121C424 203.961 420.944 197.048 414.848 191.384C408.72 185.704 401.728 183.016 393.889 183.304C378.177 183.016 364.641 177.192 353.281 165.847C342.226 153.911 336.706 140.231 336.706 124.806V121.334C336.706 121.03 336.562 120.742 336.258 120.454V119.142C336.258 118.854 336.114 118.566 335.826 118.278V116.966L335.394 116.518V115.654L335.17 115.43C335.026 115.286 334.962 115.078 334.962 114.774V114.342C334.674 114.342 334.514 114.054 334.514 113.462L334.082 113.03L333.858 112.806C333.714 112.662 333.65 112.454 333.65 112.166V111.718C333.362 111.718 333.202 111.574 333.202 111.286L332.994 111.062C332.85 110.918 332.77 110.71 332.77 110.406H332.338V109.99L331.906 109.558V108.678L331.458 108.246L331.026 107.814L330.802 107.59C330.658 107.446 330.594 107.222 330.594 106.934L330.162 106.502C329.874 106.502 329.714 106.358 329.714 106.07L329.506 105.83C329.362 105.702 329.282 105.478 329.282 105.19H328.85V104.758C328.562 104.758 328.402 104.614 328.402 104.326L327.97 103.878C327.682 103.878 327.394 103.734 327.106 103.446L326.658 103.014H326.226V102.566C325.938 102.566 325.794 102.422 325.794 102.134C325.202 102.134 324.914 101.99 324.914 101.702H324.482V101.254L324.034 100.822C323.458 100.822 323.17 100.678 323.17 100.39H322.738L322.29 99.9576C322.002 99.9576 321.794 99.8936 321.634 99.7336L321.426 99.5096L320.994 99.0776H320.546V98.6456H319.682L319.234 98.1975C318.946 98.1975 318.658 98.0535 318.37 97.7655H317.49L317.058 97.3335H316.178L315.746 96.9015H314.866C314.578 96.9015 314.37 96.8215 314.226 96.6775L314.002 96.4535H313.122C312.834 96.4535 312.626 96.3895 312.482 96.2455L312.258 96.0215H303.091C303.091 96.3095 302.947 96.4535 302.659 96.4535H301.347L300.915 96.9015H299.603L299.171 97.3335H298.291L297.859 97.7655H296.979V98.1656H296.115L295.667 98.6136H295.235V99.0456H294.355L293.923 99.4776H293.491C293.491 99.7656 293.347 99.9256 293.059 99.9256C292.771 99.9256 292.611 100.07 292.611 100.358H292.179L291.747 100.79L291.299 101.222C291.027 101.222 290.867 101.366 290.867 101.67H290.003V102.102L289.555 102.534C289.283 102.534 289.123 102.678 289.123 102.982H288.243L287.811 103.414C287.811 103.702 287.667 103.846 287.379 103.846V104.31H286.947V104.742L286.499 105.174C286.227 105.174 286.067 105.318 286.067 105.606L285.635 106.054L285.203 106.486C280.835 111.718 278.643 117.542 278.643 123.942C278.947 140.247 273.123 154.359 261.187 166.295C259.503 167.98 257.775 169.54 256.004 170.975Z" fill="white"/>
</svg>
