<svg width="512" height="512" viewBox="0 0 512 512" fill="none" xmlns="http://www.w3.org/2000/svg">
<path d="M256 0V512C114.615 512 0 397.385 0 256C0 114.615 114.615 0 256 0Z" fill="#0295AA"/>
<path d="M256 512V0C397.385 0 512 114.615 512 256C512 397.385 397.385 512 256 512Z" fill="#4ACFD9"/>
<path fill-rule="evenodd" clip-rule="evenodd" d="M256 96.0009C248.338 95.9557 240.777 97.5554 233.869 100.8L122.375 154.4C106.206 162.4 96 178.4 96 195.2V220H136.859V195.2C136.859 192 138.56 189.6 141.103 188.8L252.598 135.2C253.754 134.836 254.917 134.638 256 134.605V96.0009ZM256 182.404C213.825 182.842 180.261 215.464 180.261 254.4C180.261 287.2 203.234 314.4 235.587 323.2V368L141.103 323.2C138.543 321.6 136.859 319.2 136.859 316.8V292H96V316.8C96 334.4 106.206 349.6 122.375 357.6L233.027 411.2C239.815 414.4 247.495 416 255.141 416C255.427 416 255.714 415.998 256 415.993L256 287.2C237.272 287.2 221.103 272.8 221.103 254.4C221.103 236 236.429 221.6 256 221.6L256 182.404Z" fill="#E6EAEA"/>
<path fill-rule="evenodd" clip-rule="evenodd" d="M256 96.0009C263.662 95.9557 271.223 97.5554 278.131 100.8L389.625 154.4C405.794 162.4 416 178.4 416 195.2V220H375.141V195.2C375.141 192 373.44 189.6 370.897 188.8L259.402 135.2C258.246 134.836 257.083 134.638 256 134.605V96.0009ZM256 182.404C298.175 182.842 331.739 215.464 331.739 254.4C331.739 287.2 308.766 314.4 276.413 323.2V368L370.897 323.2C373.457 321.6 375.141 319.2 375.141 316.8V292H416V316.8C416 334.4 405.794 349.6 389.625 357.6L278.973 411.2C272.185 414.4 264.505 416 256.859 416C256.573 416 256.286 415.998 256 415.993L256 287.2C274.728 287.2 290.897 272.8 290.897 254.4C290.897 236 275.571 221.6 256 221.6L256 182.404Z" fill="white"/>
</svg>
