<svg width="512" height="512" viewBox="0 0 512 512" fill="none" xmlns="http://www.w3.org/2000/svg">
<path d="M256 0V512C114.615 512 0 397.385 0 256C0 114.615 114.615 0 256 0Z" fill="#F0353D"/>
<path d="M256 512V0C397.385 0 512 114.615 512 256C512 397.385 397.385 512 256 512Z" fill="#FD6A33"/>
<path fill-rule="evenodd" clip-rule="evenodd" d="M256 112L80 400L256 214.124L256 112ZM256 256.885L225.808 287.987H256L256 256.885ZM256 306.401L206.016 306.613V306.758L174.96 338.746V339.132H174.976H256V306.401Z" fill="#E6EAEA"/>
<path fill-rule="evenodd" clip-rule="evenodd" d="M256 112L432 400L256 214.124V112ZM256 256.885L286.192 287.988H256L256 256.885ZM256 306.401L305.984 306.613V306.758L337.04 338.746V339.132H337.024H256V306.401Z" fill="white"/>
</svg>
