<svg width="512" height="512" viewBox="0 0 512 512" fill="none" xmlns="http://www.w3.org/2000/svg">
<path fill-rule="evenodd" clip-rule="evenodd" d="M244.425 3.56848C241.947 5.27763 239.877 7.52373 238.374 10.1473L37.5236 364.533C34.9954 369.001 34.335 374.286 35.6864 379.239C37.0378 384.191 40.2914 388.408 44.7384 390.972L244.425 508.421V485.266L64.7304 379.894C76.3904 372.772 110.463 352.943 138.484 344.216C149.446 340.864 172.72 355.224 185.916 365.767L186.707 366.465C188.453 368.094 190.291 369.654 192.2 371.12L192.851 371.702C197.04 375.053 201.509 378.055 206.187 380.709L209.329 382.408L209.957 382.733C213.006 384.269 216.125 385.666 219.313 386.899L220.71 387.435L221.641 387.807C226.225 389.483 230.95 390.786 235.721 391.763C238.175 387.377 241.095 383.277 244.425 379.533V373.274C238.717 372.449 233.107 371.018 227.692 369.002L226.458 368.536L224.084 367.582L222.874 367.07L220.57 366C215.234 363.411 210.2 360.243 205.559 356.551L198.344 350.127C191.719 344.423 184.547 339.387 176.932 335.092C159.012 325.085 144.023 321.826 132.526 325.364C108.554 332.765 81.5572 347.148 65.0795 356.644L244.425 40.3567V3.56848ZM244.425 182.498C241.067 188.741 232.203 197.95 213.774 206.087L212.052 207.018C209.631 208.182 207.281 209.439 204.977 210.788L204.511 211.021C196.85 215.534 189.823 221.044 183.612 227.406L183.379 227.639C181.025 230.06 178.795 232.6 176.699 235.249L176.443 235.598C175.432 236.889 174.446 238.201 173.488 239.531L173.162 239.997C172.299 241.252 171.461 242.525 170.648 243.814L170.369 244.209C169.549 245.53 168.766 246.873 168.018 248.236L167.483 249.19C167.258 249.624 167.033 250.069 166.808 250.514C166.358 251.404 165.908 252.293 165.458 253.1L165.156 253.728C164.556 254.954 163.99 256.196 163.457 257.452L162.875 258.848C162.549 259.643 162.24 260.472 161.937 261.283C161.744 261.802 161.553 262.314 161.362 262.805L160.897 264.201C160.541 265.2 160.215 266.209 159.919 267.227C159.865 267.413 159.808 267.597 159.751 267.78C159.637 268.147 159.524 268.515 159.43 268.902C158.094 273.576 157.122 278.346 156.521 283.169L156.289 285.334C156.178 286.317 156.093 287.302 156.032 288.289C156.018 288.596 156.013 288.901 156.007 289.204C155.995 289.89 155.983 290.567 155.87 291.245C155.762 291.907 155.797 292.223 155.832 292.549C155.851 292.716 155.87 292.886 155.87 293.107V295.318C155.87 300.205 156.242 305.093 156.987 309.957C164.783 311.859 172.329 314.671 179.469 318.335C177.277 311.309 176.102 304.004 175.978 296.645V295.318C175.978 293.549 175.978 291.804 176.187 289.942V288.545C176.187 287.381 176.367 286.203 176.545 285.033C176.598 284.682 176.651 284.332 176.699 283.984V283.332C176.94 281.649 177.266 279.978 177.677 278.328L177.956 277.048C178.305 275.652 178.654 274.302 179.097 272.929L179.376 272.044C179.841 270.439 180.423 268.879 181.028 267.32L181.494 266.273C182.006 264.993 182.564 263.712 183.146 262.432L183.588 261.455C184.31 259.942 185.101 258.476 185.916 257.01L186.358 256.288C187.091 255.026 187.86 253.784 188.662 252.564L189.244 251.703C189.949 250.672 190.666 249.691 191.415 248.668C191.68 248.306 191.949 247.938 192.223 247.561L192.409 247.328C193.41 246.048 194.457 244.814 195.528 243.604L196.11 242.906C201.02 237.507 206.652 232.782 212.866 228.872L221.431 224.915C223.643 223.939 234.145 219.15 244.425 211.392V182.498Z" fill="#0295AA"/>
<path fill-rule="evenodd" clip-rule="evenodd" d="M244.424 508.422L245.751 509.202C248.886 511.034 252.452 512 256.084 512C259.716 512 263.282 511.034 266.417 509.202L467.408 391.066C471.853 388.506 475.107 384.294 476.462 379.347C477.818 374.4 477.165 369.118 474.646 364.65L474.692 364.51H474.646L273.562 10.1476C271.787 7.04813 269.22 4.47562 266.125 2.69283C263.03 0.910044 259.516 -0.0191106 255.944 0.000297939C252.38 -0.010866 248.877 0.9222 245.79 2.70457C245.322 2.9748 244.867 3.26309 244.424 3.56853V40.3564L246.1 37.4009V177.205C246.1 178.49 245.599 180.312 244.424 182.497V211.392C255.456 203.068 266.231 191.324 266.231 177.205V37.4009L448.673 359.041C432.381 351.198 403.755 337.35 381.412 325.993C368.658 319.476 359.954 296.505 357.72 288.266L355.253 278.608C354.339 273.425 353.001 268.326 351.25 263.364L351.063 263.271C344.586 245.207 333.029 229.399 317.782 217.747L317.619 217.561C316.004 216.339 314.35 215.167 312.662 214.047L312.336 213.814C310.673 212.722 308.981 211.675 307.263 210.672L306.797 210.393C305.112 209.416 303.38 208.523 301.607 207.717L301.095 207.437C299.281 206.585 297.45 205.771 295.603 204.994L294.997 204.761C289.018 202.279 282.815 200.377 276.472 199.082C272.817 205.711 268.117 211.707 262.554 216.84C275.619 217.882 288.24 222.057 299.35 229.012L299.978 229.384L303.05 231.479L304.446 232.456C304.846 232.756 305.232 233.055 305.618 233.354C306.133 233.753 306.648 234.152 307.193 234.551L308.752 235.808C309.59 236.506 310.358 237.204 311.149 237.926L312.732 239.438L314.896 241.626L316.479 243.325L318.411 245.583L319.923 247.468L321.669 249.795C322.118 250.388 322.456 250.884 322.801 251.389C322.903 251.539 323.006 251.689 323.112 251.843C323.577 252.518 324.182 253.403 324.671 254.217L326.021 256.451C326.176 256.728 326.345 257.017 326.516 257.312C326.807 257.811 327.107 258.328 327.371 258.825C327.699 259.367 327.981 259.954 328.265 260.547C328.384 260.796 328.504 261.045 328.628 261.292C328.798 261.653 328.969 261.988 329.135 262.316C329.356 262.749 329.569 263.169 329.768 263.62C330.203 264.653 330.622 265.692 331.025 266.738C333.233 272.249 334.795 277.997 335.68 283.868L338.216 293.27C339.287 297.18 349.178 331.811 372.103 343.471C395.998 355.726 426.939 370.598 442.641 378.146C444.205 378.898 445.618 379.577 446.857 380.174L266.115 486.301V413.571C266.115 402.097 289.388 388.668 300.164 383.944L300.793 383.595C303.004 382.501 305.214 381.314 307.309 380.057L308.217 379.592C312.878 376.784 317.314 373.617 321.483 370.119L322.6 369.119L323.88 367.978C325.19 366.801 326.471 365.59 327.72 364.348L328.372 363.719C328.551 363.54 328.731 363.361 328.91 363.183C330.101 362 331.276 360.833 332.328 359.437L333.469 358.133C334.493 356.923 335.47 355.69 336.424 354.433L337.262 353.386C338.426 351.85 339.496 350.267 340.567 348.661L340.939 348.196C342.25 346.145 343.427 344.094 344.643 341.973C344.766 341.759 344.889 341.545 345.012 341.33C339.944 335.212 335.601 328.526 332.072 321.408C330.629 325.434 328.814 329.344 326.719 333.091C325.835 334.72 324.904 336.303 323.973 337.839L323.554 338.467C322.676 339.773 321.76 341.054 320.808 342.307L319.97 343.378C319.022 344.602 318.028 345.79 316.991 346.939L316.432 347.591C309.699 354.944 301.657 360.981 292.717 365.395L291.018 366.256C286.433 368.281 246.03 386.201 246.03 413.455V486.208L244.424 485.266V508.422ZM244.424 379.533C246.189 377.548 248.069 375.664 250.056 373.89C248.17 373.75 246.292 373.545 244.424 373.275V379.533Z" fill="#4ACFD9"/>
</svg>
