<svg width="512" height="512" viewBox="0 0 512 512" fill="none" xmlns="http://www.w3.org/2000/svg">
<path d="M256 0V512C114.615 512 0 397.385 0 256C0 114.615 114.615 0 256 0Z" fill="#365558"/>
<path d="M256 512V0C397.385 0 512 114.615 512 256C512 397.385 397.385 512 256 512Z" fill="#0295AA"/>
<path fill-rule="evenodd" clip-rule="evenodd" d="M256.02 82.4512C254.315 83.6264 252.891 85.1711 251.858 86.9756L113.778 330.609C112.04 333.68 111.586 337.314 112.515 340.719C113.444 344.123 115.681 347.023 118.738 348.785L256.02 429.531V413.611L132.482 341.169C140.498 336.273 163.922 322.641 183.186 316.641C190.722 314.337 206.722 324.209 215.794 331.457L216.338 331.937C217.538 333.057 218.802 334.129 220.114 335.137L220.562 335.537C223.442 337.841 226.514 339.905 229.73 341.729L231.89 342.897L232.322 343.121C234.418 344.177 236.562 345.137 238.754 345.985L239.714 346.353L240.354 346.609C243.506 347.761 246.754 348.657 250.034 349.329C251.721 346.312 253.729 343.493 256.02 340.918V336.619C252.094 336.051 248.237 335.067 244.514 333.681L243.666 333.361L242.034 332.705L241.202 332.353L239.618 331.617C235.949 329.838 232.488 327.659 229.298 325.121L224.338 320.705C219.783 316.783 214.853 313.321 209.618 310.369C197.298 303.489 186.994 301.249 179.09 303.681C162.61 308.769 144.05 318.657 132.722 325.185L256.02 107.74V82.4512ZM256.02 205.459C253.713 209.751 247.619 216.085 234.946 221.68L233.762 222.32C232.098 223.12 230.482 223.984 228.898 224.912L228.578 225.072C223.311 228.175 218.479 231.963 214.21 236.337L214.05 236.497C212.431 238.161 210.898 239.908 209.458 241.729L209.282 241.969C208.586 242.856 207.909 243.758 207.25 244.673L207.026 244.993C206.432 245.856 205.856 246.731 205.298 247.617L205.106 247.889C204.542 248.797 204.003 249.72 203.49 250.657L203.122 251.313C202.967 251.611 202.812 251.917 202.658 252.223C202.348 252.834 202.039 253.446 201.73 254.001L201.522 254.433C201.11 255.275 200.72 256.129 200.354 256.993L199.954 257.953C199.729 258.499 199.517 259.069 199.309 259.626C199.176 259.983 199.045 260.335 198.914 260.673L198.594 261.633C198.349 262.319 198.125 263.013 197.922 263.713C197.884 263.841 197.845 263.967 197.806 264.093C197.728 264.346 197.65 264.598 197.586 264.865C196.667 268.078 195.999 271.357 195.586 274.673L195.426 276.161C195.35 276.837 195.291 277.514 195.25 278.193C195.24 278.404 195.236 278.613 195.232 278.822C195.224 279.293 195.215 279.759 195.138 280.225C195.064 280.68 195.088 280.897 195.112 281.121C195.125 281.236 195.138 281.353 195.138 281.505V283.025C195.138 286.385 195.394 289.745 195.906 293.089C201.266 294.397 206.453 296.33 211.362 298.849C209.855 294.018 209.047 288.997 208.962 283.937V283.025C208.962 281.809 208.962 280.609 209.106 279.329V278.369C209.106 277.568 209.229 276.759 209.351 275.954C209.388 275.713 209.424 275.472 209.458 275.233V274.785C209.623 273.627 209.847 272.479 210.13 271.345L210.322 270.465C210.562 269.505 210.802 268.577 211.106 267.633L211.298 267.025C211.618 265.921 212.018 264.849 212.434 263.777L212.754 263.057C213.106 262.177 213.49 261.297 213.89 260.417L214.194 259.745C214.69 258.705 215.234 257.697 215.794 256.689L216.098 256.193C216.602 255.325 217.13 254.471 217.682 253.633L218.082 253.041C218.566 252.332 219.059 251.658 219.574 250.954C219.756 250.705 219.941 250.452 220.13 250.193L220.258 250.033C220.946 249.153 221.666 248.305 222.402 247.473L222.802 246.993C226.178 243.281 230.05 240.033 234.322 237.345L240.21 234.625C241.73 233.953 248.952 230.66 256.02 225.326V205.459Z" fill="#E6EAEA"/>
<path fill-rule="evenodd" clip-rule="evenodd" d="M256.016 429.531L256.926 430.066C259.082 431.326 261.534 431.99 264.03 431.99C266.527 431.99 268.979 431.326 271.134 430.066L409.31 348.85C412.366 347.09 414.603 344.195 415.535 340.794C416.466 337.393 416.018 333.762 414.286 330.69L414.318 330.594H414.286L276.046 86.9762C274.826 84.8454 273.061 83.0769 270.933 81.8513C268.805 80.6256 266.39 79.9869 263.934 80.0002C261.484 79.9925 259.076 80.634 256.954 81.8593C256.632 82.0448 256.32 82.2427 256.016 82.4523V107.742L257.166 105.712V201.825C257.166 202.708 256.823 203.96 256.016 205.461V225.327C263.599 219.604 271.006 211.531 271.006 201.825V105.712L396.43 326.834C385.23 321.442 365.55 311.922 350.19 304.114C341.422 299.634 335.438 283.841 333.902 278.177L332.206 271.537C331.578 267.974 330.658 264.469 329.454 261.057L329.326 260.993C324.873 248.575 316.928 237.708 306.446 229.697L306.334 229.569C305.223 228.729 304.087 227.923 302.926 227.153L302.702 226.993C301.559 226.243 300.396 225.522 299.214 224.833L298.894 224.641C297.736 223.97 296.545 223.356 295.326 222.801L294.974 222.609C293.727 222.023 292.468 221.463 291.198 220.929L290.782 220.769C286.672 219.063 282.407 217.755 278.046 216.865C275.533 221.422 272.303 225.544 268.478 229.073C277.46 229.79 286.137 232.66 293.774 237.441L294.206 237.697L296.318 239.137L297.278 239.809C297.552 240.015 297.818 240.221 298.083 240.426C298.437 240.701 298.791 240.975 299.166 241.249L300.238 242.113C300.814 242.593 301.342 243.073 301.886 243.569L302.974 244.609L304.462 246.113L305.55 247.281L306.878 248.833L307.918 250.129L309.118 251.729C309.427 252.137 309.659 252.478 309.897 252.825C309.967 252.928 310.037 253.031 310.11 253.137C310.43 253.601 310.846 254.209 311.182 254.769L312.11 256.305C312.217 256.495 312.333 256.694 312.451 256.897C312.65 257.24 312.857 257.595 313.038 257.937C313.264 258.309 313.457 258.713 313.653 259.121C313.735 259.292 313.817 259.463 313.902 259.633C314.019 259.881 314.136 260.112 314.251 260.337C314.403 260.635 314.55 260.924 314.686 261.233C314.985 261.943 315.273 262.658 315.55 263.377C317.068 267.166 318.142 271.118 318.75 275.153L320.494 281.617C321.23 284.305 328.03 308.114 343.79 316.13C360.218 324.555 381.49 334.78 392.285 339.969C393.359 340.485 394.33 340.952 395.182 341.362L270.926 414.322V364.322C270.926 356.434 286.926 347.202 294.334 343.954L294.766 343.714C296.286 342.962 297.806 342.146 299.246 341.282L299.87 340.962C303.075 339.031 306.124 336.854 308.99 334.45L309.758 333.762L310.638 332.978C311.539 332.168 312.419 331.336 313.278 330.482L313.726 330.05C313.85 329.926 313.973 329.804 314.096 329.681C314.915 328.868 315.723 328.065 316.446 327.106L317.23 326.21C317.934 325.378 318.606 324.53 319.262 323.666L319.838 322.946C320.638 321.89 321.374 320.802 322.11 319.698L322.366 319.378C323.267 317.968 324.076 316.558 324.912 315.1C324.997 314.953 325.081 314.806 325.166 314.658C321.682 310.451 318.696 305.855 316.27 300.962C315.278 303.73 314.03 306.418 312.59 308.994C311.982 310.114 311.342 311.202 310.702 312.258L310.414 312.69C309.81 313.588 309.181 314.468 308.526 315.33L307.95 316.066C307.298 316.907 306.615 317.724 305.902 318.514L305.518 318.962C300.889 324.017 295.361 328.168 289.214 331.202L288.046 331.794C284.894 333.186 257.118 345.506 257.118 364.242V414.258L256.016 413.612V429.531ZM256.016 340.92C257.229 339.556 258.521 338.261 259.886 337.042C258.59 336.946 257.299 336.805 256.016 336.619V340.92Z" fill="white"/>
</svg>
