<svg width="512" height="512" viewBox="0 0 512 512" fill="none" xmlns="http://www.w3.org/2000/svg">
<path d="M256 0V512C114.615 512 0 397.385 0 256C0 114.615 114.615 0 256 0Z" fill="#F0353D"/>
<path d="M256 512V0C397.385 0 512 114.615 512 256C512 397.385 397.385 512 256 512Z" fill="#FD6A33"/>
<path fill-rule="evenodd" clip-rule="evenodd" d="M256 95.0142C250.067 94.7359 244.086 98.561 239.505 106.49L78.7776 390.099C69.9265 405.62 77.1683 417.916 94.8704 417.916H175.536C191.83 416.908 206.514 408.241 215.365 394.534L256 323.974V95.0142Z" fill="#E6EAEA"/>
<path fill-rule="evenodd" clip-rule="evenodd" d="M256 323.961L312.761 225.805C319.831 211.292 319.831 194.159 312.761 179.646L283.674 128.648L271.352 106.475C267.064 99.0842 261.554 95.259 256 95V323.961ZM378.611 293.13C369.723 277.81 355.382 277.81 346.494 293.13L290.138 390.085C281.452 405.405 288.724 417.902 306.297 417.902H417.798C435.573 417.902 442.845 405.405 433.957 390.085L378.611 293.13Z" fill="white"/>
</svg>
