<?xml version="1.0" encoding="UTF-8" standalone="no"?>
<!-- Generator: Adobe Illustrator 24.0.0, SVG Export Plug-In . SVG Version: 6.00 Build 0)  -->

<svg
   version="1.1"
   id="Layer_1"
   x="0px"
   y="0px"
   viewBox="0 0 512 512"
   xml:space="preserve"
   width="512"
   height="512"
   xmlns="http://www.w3.org/2000/svg"
   xmlns:svg="http://www.w3.org/2000/svg"><defs
   id="defs11594" />
<style
   type="text/css"
   id="style11583">
	.st0{fill-rule:evenodd;clip-rule:evenodd;fill:#E84142;}
	.st1{fill:#FFFFFF;}
</style>
<g
   id="g11589"
   transform="scale(2.015748)">
	<circle
   class="st0"
   cx="127"
   cy="127"
   r="127"
   id="circle11585" />
	<path
   class="st1"
   d="m 171.8,130.3 c 4.4,-7.6 11.5,-7.6 15.9,0 l 27.4,48.1 c 4.4,7.6 0.8,13.8 -8,13.8 h -55.2 c -8.7,0 -12.3,-6.2 -8,-13.8 z m -53,-92.6 c 4.4,-7.6 11.4,-7.6 15.8,0 l 6.1,11 14.4,25.3 c 3.5,7.2 3.5,15.7 0,22.9 l -48.3,83.7 c -4.4,6.8 -11.7,11.1 -19.8,11.6 H 46.9 c -8.8,0 -12.4,-6.1 -8,-13.8 z"
   id="path11587" />
</g>
</svg>
