<svg width="512" height="512" viewBox="0 0 512 512" fill="none" xmlns="http://www.w3.org/2000/svg">
<path d="M256 0V512C114.615 512 0 397.385 0 256C0 114.615 114.615 0 256 0Z" fill="#0295AA"/>
<path d="M256 512V0C397.385 0 512 114.615 512 256C512 397.385 397.385 512 256 512Z" fill="#4ACFD9"/>
<path fill-rule="evenodd" clip-rule="evenodd" d="M256 250.366C236.073 268.599 216.77 285.658 201.714 297.748C196.629 301.563 192.048 305.313 187.893 308.715C168.065 324.949 157.905 333.267 148.759 302.919C140.975 275.119 130.886 188.597 162.74 205.082C168.791 207.974 173.92 209.983 177.912 211.547C187.063 215.131 190.233 216.373 184.813 220.543C177.029 226.482 154.649 247.012 154.649 247.012C154.649 247.012 147.735 252.593 150.961 264.675C151.162 265.201 151.35 265.71 151.531 266.199C154.255 273.566 155.268 276.305 171.549 260.989C188.91 244.657 201.714 232.319 201.714 232.319C201.714 232.319 204.479 227.967 212.724 236.005C220.97 244.043 222.301 246.296 222.301 246.296C222.301 246.296 224.503 252.286 233.312 241.893C233.407 241.781 233.501 241.671 233.595 241.56C242.291 231.363 247.677 225.047 231.11 215.424C214.414 205.594 139.234 163.869 139.234 163.869C139.234 163.869 111.681 141.854 109.786 196.225C107.891 238.36 107.943 320.173 127.455 358.826C135.7 373.366 146.711 368.912 167.196 354.423C181.359 343.967 224.984 304.317 256 275.398V250.366Z" fill="#E6EAEA"/>
<path fill-rule="evenodd" clip-rule="evenodd" d="M256 275.38C264.01 267.908 271.178 261.152 276.78 255.802C281.963 250.851 288.159 244.142 294.875 236.871C323.507 205.871 361.585 164.644 370.914 205.782C371.362 207.882 371.821 209.95 372.279 212.018C376.481 230.979 380.678 249.912 376.801 292.612C375.47 307.203 369.225 318.262 340.765 298.5C319.266 284.677 298.842 269.83 298.842 269.83C298.842 269.83 294.9 262.764 285.584 274.233C284.886 275.107 284.22 275.918 283.598 276.677C277.701 283.87 275.697 286.314 286.301 292.612C288.91 294.155 293.864 297.373 300.245 301.516C322.656 316.071 362.665 342.053 380.435 347.035C399.272 352.513 410.022 352.41 410.585 315.395C410.482 286.008 408.793 201.891 398.095 166.054C390.007 143.732 378.132 133.595 352.487 158.681C335.568 175.231 294.613 214.998 256 250.348V275.38Z" fill="white"/>
</svg>
