<svg width="512" height="512" viewBox="0 0 512 512" fill="none" xmlns="http://www.w3.org/2000/svg">
<g clip-path="url(#clip0_1_38)">
<path fill-rule="evenodd" clip-rule="evenodd" d="M254.145 246.439C220.915 276.856 188.724 305.312 163.615 325.481C155.135 331.844 147.497 338.1 140.566 343.776C107.5 370.856 90.5563 384.732 75.3051 334.107C62.3234 287.731 45.4984 143.395 98.6209 170.896C108.711 175.721 117.265 179.072 123.921 181.68C139.182 187.659 144.47 189.731 135.431 196.689C122.449 206.596 85.1268 240.843 85.1268 240.843C85.1268 240.843 73.597 250.153 78.9775 270.309C79.3123 271.185 79.6262 272.034 79.9275 272.85C84.4702 285.139 86.1592 289.709 113.311 264.159C142.263 236.915 163.615 216.332 163.615 216.332C163.615 216.332 168.227 209.072 181.977 222.481C195.728 235.89 197.948 239.648 197.948 239.648C197.948 239.648 201.621 249.64 216.31 232.303C216.469 232.117 216.626 231.933 216.783 231.749C231.284 214.738 240.267 204.201 212.638 188.148C184.796 171.75 59.4196 102.144 59.4196 102.144C59.4196 102.144 13.4711 65.4195 10.3111 156.121C7.15107 226.41 7.23648 362.889 39.7762 427.37C53.5265 451.626 71.8888 444.195 106.051 420.025C129.67 402.583 202.42 336.44 254.145 288.197V246.439Z" fill="#CDD4D5"/>
<path fill-rule="evenodd" clip-rule="evenodd" d="M254.145 288.17C267.51 275.704 279.472 264.433 288.819 255.506C297.468 247.247 307.806 236.056 319.012 223.926C366.784 172.213 430.316 103.438 445.881 172.065C446.629 175.567 447.394 179.017 448.158 182.467C455.17 214.097 462.171 245.682 455.703 316.913C453.482 341.254 443.063 359.702 395.577 326.735C359.706 303.675 325.63 278.907 325.63 278.907C325.63 278.907 319.053 267.121 303.509 286.252C302.344 287.711 301.234 289.065 300.196 290.33C290.357 302.329 287.013 306.406 304.705 316.913C309.058 319.487 317.324 324.854 327.97 331.767C365.364 356.047 432.117 399.39 461.767 407.7C493.196 416.838 511.131 416.667 512.071 354.919C511.9 305.896 509.082 165.574 491.232 105.789C477.738 68.5524 457.923 51.642 415.135 93.491C386.907 121.1 318.57 187.441 254.145 246.412V288.17Z" fill="#E6EAEA"/>
</g>
<defs>
<clipPath id="clip0_1_38">
<rect width="512" height="512" fill="white"/>
</clipPath>
</defs>
</svg>
