<svg width="512" height="512" viewBox="0 0 512 512" fill="none" xmlns="http://www.w3.org/2000/svg">
<path d="M256 0V512C114.615 512 0 397.385 0 256C0 114.615 114.615 0 256 0Z" fill="#0295AA"/>
<path d="M256 512V0C397.385 0 512 114.615 512 256C512 397.385 397.385 512 256 512Z" fill="#4ACFD9"/>
<path d="M292.577 200.664L327.778 220.776V120.2L257.377 85L148 146.6V365.336L257.377 428.2L365.49 364.088V255.976L261.137 193.112L225.937 210.712L330.29 272.312L331.538 346.488L257.377 387.976L181.936 345.224V164.2L257.377 122.712L292.577 141.576V200.664Z" fill="white"/>
<path fill-rule="evenodd" clip-rule="evenodd" d="M256 85.7773L148 146.712V365.043L256 427.001V386.862L181.936 344.968V164.28L256 123.624V85.7773ZM256 195.702L225.937 210.706L256 228.419V195.702Z" fill="#E6EAEA"/>
<path d="M253.602 261L256 259.7V291.5L225.938 308.776V218.264L253.602 234.6" fill="#E6EAEA"/>
<path d="M256 259.7L259.574 257.762L265.546 254.624L277.49 248.348L303.891 264.669L256 291.5L256 259.7Z" fill="white"/>
</svg>
