<svg width="512" height="512" viewBox="0 0 512 512" fill="none" xmlns="http://www.w3.org/2000/svg">
<g clip-path="url(#clip0_1_1140)">
<path fill-rule="evenodd" clip-rule="evenodd" d="M227.127 510.814L229.191 512L391.356 415.834V253.668L234.831 159.374L227.127 163.226V212.394L338.557 278.172L340.429 389.434L229.191 451.665L227.127 450.495V510.814ZM227.127 54.911L229.191 53.776L281.99 82.0715V170.702L334.789 200.869V50.0081L229.191 -2.79102L227.127 -1.62866V54.911Z" fill="#4ACFD9"/>
<path fill-rule="evenodd" clip-rule="evenodd" d="M227.128 -1.29126L65.1309 89.9448V418.043L227.128 511.151V450.833L116.034 387.876V116.344L227.128 55.2484V-1.29126ZM227.128 163.563L182.033 186.111L227.128 212.731V163.563Z" fill="#0295AA"/>
</g>
<defs>
<clipPath id="clip0_1_1140">
<rect width="512" height="512" fill="white"/>
</clipPath>
</defs>
</svg>
