<svg width="512" height="512" viewBox="0 0 512 512" fill="none" xmlns="http://www.w3.org/2000/svg">
<path d="M256 0V512C114.615 512 0 397.385 0 256C0 114.615 114.615 0 256 0Z" fill="#E6EAEA"/>
<path d="M256 512V0C397.385 0 512 114.615 512 256C512 397.385 397.385 512 256 512Z" fill="white"/>
<path d="M190.248 229.24L256.448 163.04L322.678 229.27L361.198 190.75L256.448 86L151.728 190.72L190.248 229.24ZM86.0078 256.44L124.528 217.91L163.048 256.44L124.528 294.96L86.0078 256.44ZM190.248 283.64L256.448 349.84L322.678 283.61L361.218 322.11L256.448 426.88L151.728 322.16L151.678 322.11L190.248 283.64ZM349.848 256.44L388.368 217.92L426.888 256.44L388.368 294.96L349.848 256.44Z" fill="#FF8C29"/>
<path d="M295.517 256.44L256.447 217.33L227.557 246.21L224.237 249.53L217.447 256.38L217.387 256.43L217.447 256.49L256.447 295.55L295.537 256.44" fill="#FF8C29"/>
<path d="M151.727 190.72L190.247 229.24L256.447 163.04L256.467 163.06V86.02L256.447 86L151.727 190.72Z" fill="#FD6A33"/>
<path d="M124.523 217.928L86 256.451L124.516 294.967L163.039 256.444L124.523 217.928Z" fill="#FD6A33"/>
<path d="M190.246 283.641L151.676 322.111L151.726 322.161L256.446 426.881L256.466 426.861V349.821L256.446 349.841L190.246 283.641Z" fill="#FD6A33"/>
<path d="M227.556 246.21L224.236 249.53L217.396 256.38L217.336 256.43L217.396 256.49L256.446 295.55L256.466 295.53V217.35L256.446 217.33L227.556 246.21Z" fill="#FD6A33"/>
</svg>
