<svg xmlns="http://www.w3.org/2000/svg" viewBox="0 0 512 512"><defs><style>.cls-1{fill:#e6eaea;}.cls-2{fill:#ff8c29;}.cls-3{fill:#fd6a33;}</style></defs><title>binance-coin</title><g id="Circle"><g id="Circle_Back" data-name="Circle Back"><path class="cls-1" d="M0,256C0,397.4,114.6,512,256,512V0C114.6,0,0,114.6,0,256Z"/><path class="cls-1" d="M256,0V512c141.4,0,256-114.6,256-256S397.4,0,256,0Z"/></g></g><g id="bnb"><g id="Layer_2" data-name="Layer 2"><path class="cls-2" d="M189.8,228.8,256,162.6l66.23,66.23,38.52-38.52L256,85.56,151.28,190.28,189.8,228.8M85.56,256l38.52-38.53L162.6,256l-38.52,38.52ZM189.8,283.2,256,349.4l66.23-66.23,38.54,38.5,0,0L256,426.44,151.28,321.72l-.05-.05L189.8,283.2M349.4,256l38.52-38.52L426.44,256l-38.52,38.52Z"/><path class="cls-2" d="M295.07,256h0L256,216.89l-28.89,28.88h0l-3.32,3.32L217,255.94l-.06.05.06.06L256,295.11,295.09,256l0,0,0,0"/></g><polygon class="cls-3" points="151.28 190.28 189.8 228.8 189.8 228.8 256 162.6 256.02 162.62 256.02 85.58 256 85.56 151.28 190.28"/><rect class="cls-3" x="96.84" y="228.76" width="54.48" height="54.47" transform="translate(-144.68 162.73) rotate(-45)"/><polygon class="cls-3" points="189.8 283.2 189.8 283.2 151.23 321.67 151.28 321.72 256 426.44 256.02 426.42 256.02 349.38 256 349.4 189.8 283.2"/><polygon class="cls-3" points="227.11 245.77 223.79 249.09 216.95 255.94 216.89 255.99 216.95 256.05 256 295.11 256.02 295.09 256.02 216.91 256 216.89 227.11 245.77"/></g></svg>