<?xml version="1.0" encoding="utf-8"?>
<!-- Generator: Adobe Illustrator 19.0.0, SVG Export Plug-In . SVG Version: 6.00 Build 0)  -->
<svg version="1.1" id="Layer_1" xmlns="http://www.w3.org/2000/svg" xmlns:xlink="http://www.w3.org/1999/xlink" x="0px" y="0px"
	 viewBox="206 -206 512 512" style="enable-background:new 206 -206 512 512;" xml:space="preserve">
<style type="text/css">
	.st0{display:none;}
	.st1{display:inline;}
	.st2{fill:#E6EAEA;}
	.st3{fill:#CDD4D5;}
	.st4{fill:#FF8C29;}
	.st5{fill:#FD6A33;}
</style>
<g id="Layer_3" class="st0">
	<rect x="1030" y="-1030.4" class="st1" width="512" height="512.8"/>
</g>
<path class="st2" d="M462-206v512c141.4,0,256-114.6,256-256S603.4-206,462-206z"/>
<path class="st3" d="M206,50c0,141.4,114.6,256,256,256v-512C320.6-206,206-91.4,206,50z"/>
<polygon class="st4" points="462,-0.2 462,100.2 512.2,50 "/>
<polygon class="st5" points="411.8,50 462,100.2 462,-0.2 "/>
<polygon id="Fill-162" class="st4" points="576.2,50 576,50.2 622.6,96.8 669.4,50 622.2,2.9 575.6,49.5 "/>
<polygon class="st4" points="462,-157.4 462,-64.2 543.9,17.8 590.5,-28.8 "/>
<polygon class="st5" points="334.7,-30 381.2,16.6 462,-64.2 462,-157.4 "/>
<polygon class="st4" points="544.3,81.9 462,164.2 462,257.4 590.9,128.5 "/>
<polygon class="st5" points="380.5,82.6 333.9,129.2 462,257.4 462,164.2 "/>
<polygon class="st5" points="303,1.7 254.6,50 302.2,97.5 348.8,50.9 347.8,50 349.6,48.3 "/>
</svg>
