<svg width="512" height="512" viewBox="0 0 512 512" fill="none" xmlns="http://www.w3.org/2000/svg">
<path d="M256 0V512C114.615 512 0 397.385 0 256C0 114.615 114.615 0 256 0Z" fill="#E6EAEA"/>
<path d="M256 512V0C397.385 0 512 114.615 512 256C512 397.385 397.385 512 256 512Z" fill="white"/>
<path d="M255.5 88L297 130.5L192.5 235L151 193.5L255.5 88Z" fill="#FF8C29" stroke="#F0B90B"/>
<path d="M318.5 151L360 193.5L192.5 361L151 319.5L318.5 151Z" fill="#FF8C29" stroke="#F0B90B"/>
<path d="M129.5 214L171 256.5L129.5 298L88 256.5L129.5 214Z" fill="#FF8C29" stroke="#F0B90B"/>
<path d="M381.5 214L423 256.5L255.5 424L214 382.5L381.5 214Z" fill="#FF8C29" stroke="#F0B90B"/>
<path d="M192.5 235L255.5 172V88L151 193.5L192.5 235Z" fill="#FD6A33"/>
<path d="M192.5 360.999L255.5 297.999V214.379L151 319.499L192.5 360.999Z" fill="#FD6A33"/>
<path d="M129.5 214L88 256.5L129.5 298L171 256.5L129.5 214Z" fill="#FD6A33"/>
<path d="M214 382.5L255.5 424V340.75L214 382.5Z" fill="#FD6A33"/>
</svg>
