<?xml version="1.0" encoding="UTF-8" standalone="no"?>
<svg
   height="512"
   viewBox="0 0 512 512"
   width="512"
   version="1.1"
   id="svg5974"
   xmlns="http://www.w3.org/2000/svg"
   xmlns:svg="http://www.w3.org/2000/svg">
  <defs
     id="defs5978" />
  <g
     fill="none"
     id="g5972"
     transform="scale(16)">
    <circle
       cx="16"
       cy="16"
       fill="#fcc339"
       r="16"
       id="circle5968" />
    <path
       d="m 22.585,9.694 0.077,0.171 -3.054,1.402 1.374,4.55 4.521,-2.283 0.06,0.119 0.018,-0.022 -2.929,-3.906 z M 22.42,9.617 19.647,8.327 h -7.171 l -2.962,1.36 3.08,1.296 h 6.85 z m -13.154,0.32 -2.773,3.601 4.514,2.28 1.38,-4.568 z m 3.44,1.373 -1.425,4.72 4.713,8.332 4.714,-8.332 -1.426,-4.72 z M 25.218,14.043 21,16.174 16.795,23.607 Z M 15.171,23.567 10.989,16.174 6.793,14.055 Z M 6.431,13.643 6.464,13.576 6.421,13.632 Z M 9.222,9.462 12.405,8 h 7.312 L 22.861,9.462 26,13.648 16,25 6,13.646 Z m 9.201,5.372 c 0.059,0.607 -0.192,0.972 -0.594,1.179 0.661,0.16 1.075,0.558 0.993,1.45 -0.1,1.106 -0.915,1.402 -2.079,1.47 v 1.163 h -0.692 v -1.147 c -0.18,0 -0.363,-0.002 -0.553,-0.006 v 1.153 H 14.807 V 18.93 C 14.645,18.929 14.48,18.926 14.312,18.926 h -0.9 l 0.137,-0.837 c 0,0 0.512,0.008 0.503,0 0.196,0 0.248,-0.143 0.26,-0.232 V 16.02 h 0.074 a 0.55,0.55 0 0 0 -0.074,-0.005 v -1.311 c -0.026,-0.143 -0.117,-0.307 -0.398,-0.308 0.009,-0.01 -0.502,0 -0.502,0 v -0.748 h 0.954 v 0.004 c 0.144,0 0.29,-0.003 0.44,-0.006 v -1.151 h 0.693 v 1.129 c 0.184,-0.004 0.37,-0.008 0.552,-0.008 v -1.12 l 0.692,-0.001 v 1.151 c 0.894,0.08 1.601,0.358 1.68,1.188 z m -0.968,2.49 c 0,-0.908 -1.471,-0.771 -1.94,-0.771 v 1.543 c 0.469,0 1.94,0.098 1.94,-0.772 z m -0.322,-2.177 c 0,-0.826 -1.228,-0.7 -1.618,-0.7 v 1.4 c 0.39,0 1.618,0.092 1.618,-0.7 z"
       fill="#ffffff"
       id="path5970" />
  </g>
</svg>
