<?xml version="1.0" encoding="utf-8"?>
<!-- Generator: Adobe Illustrator 19.0.0, SVG Export Plug-In . SVG Version: 6.00 Build 0)  -->
<svg version="1.1" id="Layer_1" xmlns="http://www.w3.org/2000/svg" xmlns:xlink="http://www.w3.org/1999/xlink" x="0px" y="0px"
	 viewBox="206 -206 512 512" style="enable-background:new 206 -206 512 512;" xml:space="preserve">
<style type="text/css">
	.st0{display:none;}
	.st1{display:inline;}
	.st2{fill:#BCD643;}
	.st3{fill:#FFFFFF;}
	.st4{fill:#E6EAEA;}
</style>
<g id="Layer_3" class="st0">
	<rect x="1030" y="-1030.4" class="st1" width="512" height="512.8"/>
</g>
<path class="st2" d="M462-206v512c141.4,0,256-114.6,256-256S603.4-206,462-206z"/>
<path class="st2" d="M206,50c0,141.4,114.6,256,256,256v-512C320.6-206,206-91.4,206,50z"/>
<path class="st3" d="M589.2,39.6c-8.4-16.2-22.7-27.3-38.9-32.1c5.3-16.1,4.4-34.2-4-50.3c-7.9-15.6-21.4-26.9-37.9-32.1
	c-15.4-4.9-31.8-3.9-46.4,2.8v41.1l13.8-7.2c6.7-3.4,14.4-4.1,21.5-1.8c7.2,2.3,13,7.2,16.5,13.8c7.2,13.8,1.8,30.8-12,37.9
	L462,32.5v41.4l56.7-29.5c13.8-7.1,30.8-1.8,38,12c3.5,6.7,4.1,14.3,1.9,21.4c-2.3,7.2-7.2,13-13.8,16.5L478,129l-16-30.7v95.8
	l12.1,23.2l7.6-4l30.8-16L494,162.1l27.1-14.1l18.3,35.3l31.6-16.4l-18.3-35.3l8.9-4.6c5.7-2.9,10.8-6.6,15.3-11
	c7.6-7.4,13.4-16.6,16.6-27C598.7,72.5,597.2,54.9,589.2,39.6z"/>
<path class="st4" d="M452,79.1l10-5.2V32.5l-26.9,14l-26-49.9L462-30.9v-41.1c-1,0.5-2,1-3,1.5l-8.8,4.6l-21.6-41.5L396.8-91
	l21.6,41.5l-27.1,14.1l-21.6-41.5l-7.6,4l-30.8,16l20.8,40L314.7,2.5L333.2,38l37.5-19.5L438,148l-37.5,19.5L419,203l37.5-19.5
	l5.5,10.6V98.3L452,79.1z"/>
</svg>
