<svg width="512" height="512" viewBox="0 0 512 512" fill="none" xmlns="http://www.w3.org/2000/svg">
<path fill-rule="evenodd" clip-rule="evenodd" d="M256 466.939L263.091 438.246C338.048 452.582 394.726 446.925 418.278 378.163C433.203 335.77 422.272 302.72 399.385 282.368C399.23 282.536 398.978 282.619 398.722 282.703C398.472 282.786 398.219 282.869 398.054 283.034C387.456 287.386 372.531 292.378 360.269 294.4V294.374C347.981 296.397 341.709 297.395 329.421 298.035L312.166 299.059C328.755 310.4 339.046 326.093 333.721 347.776C325.729 380.549 290.024 383.288 256 378.573V466.939ZM256 274.938C268.263 276.743 280.683 277.795 292.941 278.707C304.205 279.706 315.161 280.038 326.425 280.038C343.24 279.675 359.901 276.749 375.833 271.36C389.12 267.008 404.685 261.35 414.643 250.675C426.266 238.31 431.898 221.952 434.202 205.619C442.163 151.859 401.382 122.829 345.984 103.475L363.904 30.72L319.795 19.6864L302.566 90.7776C293.364 88.4007 283.935 86.2334 274.639 84.0966C272.221 83.5407 269.812 82.9869 267.417 82.432L284.979 11.008L256 3.77161V134.751C258.698 135.452 261.973 136.207 265.66 137.057C297.172 144.325 358.783 158.534 347.315 204.928C337.752 243.977 288.864 237.146 256 229.235V274.938Z" fill="#0295AA"/>
<path fill-rule="evenodd" clip-rule="evenodd" d="M255.999 3.77161L240.895 0L222.975 72.7552C218.606 71.6977 214.31 70.7035 210.05 69.7175C204.925 68.5314 199.852 67.3573 194.764 66.0992L134.092 50.7392L122.495 98.1248C122.495 98.1248 155.314 105.805 154.649 106.138C172.569 110.49 175.871 122.496 175.231 131.84L161.945 185.242L150.348 231.629L125.465 331.776C123.161 337.101 117.862 345.446 105.241 342.451C105.599 343.117 73.0872 334.413 73.0872 334.413L51.1992 384.845L108.569 399.181C114.425 400.666 120.289 402.245 126.101 403.81C130.807 405.077 135.478 406.335 140.082 407.526L121.83 481.306L165.913 492.314L183.833 419.2L198.092 365.798L222.31 268.006C225.398 268.85 228.624 269.555 231.977 270.288C234.016 270.733 236.103 271.189 238.233 271.693C244.093 273.001 250.028 274.059 255.999 274.938V229.235C250.027 227.797 244.584 226.323 240.002 225.083C237.466 224.396 235.193 223.781 233.241 223.283L255.154 134.528C255.429 134.602 255.711 134.676 255.999 134.751V3.77161ZM255.999 378.573C247.739 377.429 239.577 375.844 231.935 374.144L218.649 428.237L217.983 430.566L201.087 500.992L244.863 512L255.999 466.94V378.573Z" fill="#365558"/>
</svg>
