<svg width="512" height="512" viewBox="0 0 512 512" fill="none" xmlns="http://www.w3.org/2000/svg">
<path d="M256 0V512C114.615 512 0 397.385 0 256C0 114.615 114.615 0 256 0Z" fill="#FF8C29"/>
<path d="M256 512V0C397.385 0 512 114.615 512 256C512 397.385 397.385 512 256 512Z" fill="#FFD1A9"/>
<path fill-rule="evenodd" clip-rule="evenodd" d="M256 432C353.2 432 432 353.2 432 256C432 158.8 353.2 80 256 80C256 80 256 80 256 80V106.996C257.729 106.924 259.458 106.859 261.184 106.8C261.264 121.152 261.232 135.52 261.184 149.872L256 149.864V183.424C269.252 183.362 282.67 183.841 294.24 190.704C307.92 198.48 308.768 220.448 295.52 229.104C283.82 236.865 269.826 237.857 256 237.959V267.345C273.369 267.073 291.13 266.875 306.352 275.968C320.8 284.016 322.48 307.024 308.464 316.32C293.663 326.578 275.623 326.927 257.974 327.269C257.316 327.281 256.657 327.294 256 327.307V362.176H262.08C262.08 365.761 262.082 369.346 262.084 372.931C262.09 383.681 262.096 394.429 262.048 405.168C260.032 405.115 258.016 405.055 256 404.985L256 432ZM343.536 168.24C328.864 155.808 309.056 152.992 290.624 150.512H290.64C290.608 137.328 290.608 124.128 290.704 110.928C329.584 120.656 364.208 146.096 384.576 180.656C407.648 219.008 411.488 267.984 395.168 309.616C377.968 354.736 337.488 389.616 290.608 401.056L290.608 401.037C290.64 387.923 290.672 374.842 290.576 361.76C291.181 361.702 291.787 361.645 292.394 361.587C314.182 359.517 337.737 357.278 355.264 342.88C373.456 326.944 377.648 299.808 372.368 277.184C368.32 259.92 352.048 248.992 335.616 245.152C363.056 230.576 365.952 188.352 343.536 168.24Z" fill="white"/>
<path fill-rule="evenodd" clip-rule="evenodd" d="M256 80C158.8 80 80 158.8 80 256C80 353.2 158.8 432 256 432V404.985C250.72 404.802 245.44 404.555 240.16 404.208C240.208 390.176 240.24 376.176 240.24 362.176H256V327.307C250.947 327.409 245.937 327.541 241.056 327.936V267.376H241.072C245.82 267.505 250.667 267.429 255.546 267.352C255.697 267.35 255.849 267.347 256 267.345V237.959C253.903 237.974 251.81 237.969 249.73 237.964C246.806 237.957 243.907 237.95 241.056 238V183.408H241.072C244.755 183.514 248.516 183.483 252.305 183.45C253.534 183.44 254.766 183.429 256 183.424V149.864L240.224 149.84C240.224 135.84 240.224 121.84 240.192 107.84C245.446 107.491 250.726 107.214 256 106.996V80ZM204.214 150.704C186.372 150.75 168.53 150.795 150.688 149.952H150.672C168.576 134.24 188.832 121.008 211.584 113.632C211.67 123.133 211.662 132.635 211.653 142.136C211.651 144.987 211.648 147.837 211.648 150.688C209.17 150.692 206.692 150.698 204.214 150.704ZM120.32 317.344C100.4 274.576 103.088 222.432 126.976 181.792V181.776C129.911 176.287 133.679 171.361 137.447 166.435C141.279 161.425 145.111 156.415 148.064 150.816C148.589 151.512 148.961 152.31 149.157 153.159C149.352 154.008 149.367 154.889 149.2 155.744L149.206 156.11C149.348 164.42 149.49 172.728 150.688 180.928C153.106 180.943 155.532 180.911 157.962 180.879C165.935 180.773 173.944 180.667 181.792 182.224C188.016 183.408 191.76 189.856 191.392 195.824C191.575 215.107 191.542 234.395 191.508 253.682C191.477 271.427 191.446 289.171 191.584 306.912C191.525 308.249 191.546 309.643 191.567 311.055C191.648 316.489 191.734 322.193 187.264 325.952C180.324 328.288 172.986 328.042 165.697 327.797C162.854 327.701 160.018 327.606 157.216 327.664C153.328 338.336 150.672 349.44 150.448 360.8C163.862 361.528 177.318 361.449 190.774 361.37C197.734 361.33 204.694 361.289 211.648 361.36C211.648 364.097 211.65 366.837 211.651 369.576C211.657 379.168 211.662 388.769 211.6 398.352C171.648 385.504 137.52 355.68 120.32 317.344Z" fill="#E6EAEA"/>
</svg>
