<?xml version="1.0" encoding="UTF-8" standalone="no"?>
<svg
   viewBox="0 0 512 512"
   version="1.1"
   id="svg6798"
   width="512"
   height="512"
   xmlns="http://www.w3.org/2000/svg"
   xmlns:svg="http://www.w3.org/2000/svg">
  <defs
     id="defs6802" />
  <g
     fill="none"
     id="g6796"
     transform="scale(16)">
    <circle
       cx="16"
       cy="16"
       r="16"
       fill="#f8c24a"
       id="circle6792" />
    <path
       fill="#ffffff"
       d="M 16,27 C 9.934,27 5,22.066 5,16 5,9.934 9.937,5 16,5 c 6.063,0 11,4.937 11,11 0,1.002 -0.136,2 -0.405,2.966 a 0.888,0.888 0 0 1 -1.71,-0.478 c 0.225,-0.81 0.34,-1.647 0.339,-2.488 0,-5.086 -4.138,-9.224 -9.224,-9.224 -5.086,0 -9.224,4.138 -9.224,9.224 0,5.086 4.138,9.224 9.224,9.224 0.952,0 1.899,-0.146 2.806,-0.435 A 0.888,0.888 0 1 1 19.344,26.481 10.97,10.97 0 0 1 16,27 Z m 3.375,-11.026 c 0.38,0.318 0.636,0.778 0.768,1.379 0.086,0.346 0.08,0.709 -0.016,1.052 a 2.125,2.125 0 0 1 -0.494,0.85 3.14,3.14 0 0 1 -0.868,0.637 c -0.342,0.177 -0.423,0.234 -0.831,0.324 l -0.254,0.061 a 0.296,0.296 0 0 0 -0.219,0.352 l 0.15,0.672 a 0.296,0.296 0 0 1 -0.226,0.353 l -0.677,0.15 a 0.296,0.296 0 0 1 -0.353,-0.225 l -0.148,-0.667 a 0.296,0.296 0 0 0 -0.353,-0.225 l -1.833,0.406 a 0.722,0.722 0 0 1 -0.86,-0.55 l -1.65,-7.459 a 0.722,0.722 0 0 1 0.55,-0.86 l 1.833,-0.406 a 0.296,0.296 0 0 0 0.225,-0.353 l -0.15,-0.672 a 0.296,0.296 0 0 1 0.227,-0.352 l 0.677,-0.15 a 0.296,0.296 0 0 1 0.353,0.225 l 0.148,0.668 a 0.296,0.296 0 0 0 0.353,0.224 l 0.56,-0.122 c 0.29,-0.068 0.593,-0.063 0.88,0.015 0.274,0.075 0.53,0.203 0.753,0.377 a 2.537,2.537 0 0 1 0.894,1.434 c 0.094,0.42 0.075,0.858 -0.054,1.27 a 2.06,2.06 0 0 1 -0.767,1.06 c 0.506,0.024 0.99,0.21 1.382,0.532 z m -5.43,-1.597 0.098,0.426 a 0.722,0.722 0 0 0 0.86,0.55 l 1.307,-0.29 a 0.916,0.916 0 0 0 0.55,-0.357 c 0.141,-0.188 0.177,-0.44 0.107,-0.757 -0.065,-0.292 -0.192,-0.5 -0.38,-0.624 a 0.767,0.767 0 0 0 -0.612,-0.114 l -1.38,0.305 a 0.722,0.722 0 0 0 -0.55,0.861 z m 3.909,3.767 h 0.002 a 0.951,0.951 0 0 0 0.11,-0.745 1.089,1.089 0 0 0 -0.393,-0.647 0.764,0.764 0 0 0 -0.663,-0.156 l -1.656,0.367 a 0.722,0.722 0 0 0 -0.55,0.86 l 0.116,0.527 a 0.722,0.722 0 0 0 0.861,0.55 l 1.569,-0.347 a 0.916,0.916 0 0 0 0.604,-0.409 z m 3.298,5.383 1.533,-1.832 A 0.277,0.277 0 0 0 22.472,21.24 H 21.44 a 0.277,0.277 0 0 1 -0.278,-0.277 v -0.216 c 0,-0.153 0.124,-0.277 0.278,-0.277 h 2.358 a 0.277,0.277 0 0 1 0.277,0.277 v 0.284 a 0.277,0.277 0 0 1 -0.06,0.172 l -1.467,1.842 a 0.277,0.277 0 0 0 0.217,0.45 h 1.051 c 0.153,0 0.278,0.124 0.278,0.277 v 0.215 a 0.277,0.277 0 0 1 -0.278,0.277 h -2.452 a 0.277,0.277 0 0 1 -0.277,-0.277 v -0.28 a 0.28,0.28 0 0 1 0.065,-0.18 z"
       id="path6794" />
  </g>
</svg>
