<svg width="512" height="512" viewBox="0 0 512 512" fill="none" xmlns="http://www.w3.org/2000/svg">
<path fill-rule="evenodd" clip-rule="evenodd" d="M256 512C256 512 256 512 256 512C397.382 512 512 397.382 512 256C512 114.618 397.382 0 256 0C256 0 256 0 256 0V39.2666C258.515 39.1627 261.029 39.068 263.54 38.9818C263.657 59.8574 263.61 80.7563 263.54 101.632L256 101.62V150.434C275.275 150.344 294.793 151.041 311.622 161.024C331.52 172.334 332.754 204.288 313.484 216.878C296.465 228.167 276.111 229.61 256 229.758V272.502C281.265 272.106 307.099 271.818 329.239 285.044C350.255 296.75 352.698 330.217 332.311 343.738C310.782 358.659 284.542 359.167 258.872 359.664C257.914 359.682 256.956 359.701 256 359.72V410.438H264.844C264.844 415.653 264.847 420.868 264.85 426.082C264.858 441.718 264.867 457.352 264.797 472.971C261.865 472.894 258.932 472.806 256 472.705V512ZM383.325 128.349C361.984 110.266 333.172 106.17 306.362 102.563H306.386C306.339 83.3861 306.339 64.1862 306.479 44.9862C363.031 59.136 413.394 96.1396 443.02 146.409C476.579 202.193 482.164 273.431 458.426 333.987C433.408 399.616 374.528 450.35 306.339 466.99L306.339 466.961C306.386 447.887 306.432 428.86 306.292 409.833C307.172 409.749 308.054 409.665 308.938 409.581C340.629 406.57 374.89 403.314 400.384 382.371C426.845 359.191 432.943 319.721 425.263 286.813C419.375 261.702 395.706 245.806 371.805 240.221C411.718 219.02 415.93 157.603 383.325 128.349Z" fill="#FFD1A9"/>
<path fill-rule="evenodd" clip-rule="evenodd" d="M256 0C114.618 0 0 114.618 0 256C0 397.382 114.618 512 256 512V472.705C248.32 472.439 240.64 472.08 232.96 471.575C233.03 451.165 233.076 430.801 233.076 410.438H256V359.72C248.65 359.868 241.362 360.059 234.263 360.634V272.547H234.286C241.193 272.734 248.243 272.624 255.34 272.512C255.56 272.509 255.78 272.505 256 272.502V229.758C252.95 229.781 249.906 229.773 246.879 229.766C242.627 229.756 238.41 229.745 234.263 229.818V150.412H234.286C239.644 150.566 245.114 150.52 250.625 150.473C252.413 150.458 254.206 150.443 256 150.434V101.62L233.053 101.585C233.053 81.2218 233.053 60.8582 233.007 40.4945C240.648 39.9863 248.329 39.5836 256 39.2666V0ZM180.675 102.843C154.723 102.909 128.771 102.974 102.819 101.748H102.796C128.838 78.8945 158.301 59.648 191.395 48.9193C191.52 62.7394 191.508 76.5595 191.495 90.3797C191.492 94.5261 191.488 98.6725 191.488 102.819C187.884 102.825 184.279 102.834 180.675 102.843ZM58.6473 345.228C29.6727 283.02 33.5825 207.174 68.3287 148.061V148.038C72.5974 140.054 78.0787 132.888 83.5589 125.724C89.1334 118.436 94.7069 111.15 99.0022 103.005C99.7652 104.017 100.307 105.178 100.591 106.413C100.876 107.648 100.898 108.929 100.655 110.173L100.664 110.705C100.87 122.793 101.076 134.878 102.819 146.804C106.336 146.826 109.865 146.779 113.399 146.732C124.997 146.579 136.645 146.424 148.061 148.689C157.114 150.412 162.56 159.791 162.025 168.471C162.291 196.52 162.242 224.574 162.193 252.629C162.148 278.439 162.103 304.249 162.304 330.054C162.218 331.998 162.248 334.026 162.279 336.08C162.398 343.984 162.522 352.281 156.02 357.748C145.925 361.147 135.252 360.788 124.651 360.431C120.515 360.292 116.39 360.154 112.314 360.238C106.659 375.761 102.796 391.913 102.47 408.436C121.981 409.495 141.552 409.38 161.124 409.266C171.248 409.207 181.372 409.148 191.488 409.251C191.488 413.233 191.49 417.217 191.493 421.203C191.501 435.153 191.509 449.119 191.418 463.057C133.306 444.369 83.6654 400.989 58.6473 345.228Z" fill="#FF8C29"/>
</svg>
