<?xml version="1.0" encoding="utf-8"?>
<!-- Generator: Adobe Illustrator 19.0.0, SVG Export Plug-In . SVG Version: 6.00 Build 0)  -->
<svg version="1.1" id="Layer_1" xmlns="http://www.w3.org/2000/svg" xmlns:xlink="http://www.w3.org/1999/xlink" x="0px" y="0px"
	 viewBox="206 -206 512 512" style="enable-background:new 206 -206 512 512;" xml:space="preserve">
<style type="text/css">
	.st0{display:none;}
	.st1{display:inline;}
	.st2{fill:#FF8C29;}
	.st3{fill:#FD6A33;}
	.st4{fill:#FFFFFF;}
	.st5{fill:#E6EAEA;}
</style>
<g id="Layer_3" class="st0">
	<rect x="1030" y="-1030.4" class="st1" width="512" height="512.8"/>
</g>
<path class="st2" d="M462-206v512c141.4,0,256-114.6,256-256S603.4-206,462-206z"/>
<path class="st3" d="M206,50c0,141.4,114.6,256,256,256v-512C320.6-206,206-91.4,206,50z"/>
<path class="st4" d="M580.7-3.1c-8.2-15.2-21.9-26.3-38.5-31.3l-9.5-2.8L546-82.1l-34.3-10.2l-13.4,44.8L469-56.2l13.4-44.8
	l-8.2-2.4L462-107v86.9l69.8,20.8c7.2,2.2,13.1,7,16.7,13.6c3.6,6.6,4.4,14.2,2.2,21.4c-4.4,14.9-20.1,23.3-35,18.9l-53.7-16v38.3
	l43.3,12.9c14.8,4.5,23.3,20.2,18.9,35c-2.1,7.2-7,13.1-13.6,16.7c-6.6,3.6-14.2,4.4-21.4,2.2l-27.2-8.1v64.1l7-23.6l9.6,2.9
	c6.1,1.8,12.4,2.7,18.6,2.7c10.6,0,21.1-2.6,30.8-7.8c15.2-8.2,26.3-21.9,31.3-38.5c5.2-17.5,2.6-35.4-5.6-50.2
	c15-7.8,27-21.5,32.2-38.9C590.8,29.6,589,12.1,580.7-3.1z"/>
<polygon class="st5" points="417.1,122.2 433.2,68.3 462,76.9 462,38.6 443.6,33.1 459.7,-20.8 462,-20.1 462,-107 441,-113.3 
	428.1,-70.1 387.6,-82.2 376.2,-43.8 416.7,-31.7 375.1,108 334.6,96 323.2,134.4 363.7,146.5 352.8,183 361,185.4 394.2,195.3 
	405.5,157.2 434.8,165.9 423.6,204 457.7,214.2 462,199.7 462,135.6 "/>
</svg>
