<svg width="512" height="512" viewBox="0 0 512 512" fill="none" xmlns="http://www.w3.org/2000/svg">
<g clip-path="url(#clip0_1_115)">
<path fill-rule="evenodd" clip-rule="evenodd" d="M256 512C282.41 512.023 308.663 507.949 333.824 499.921C336.47 499.15 338.935 497.858 341.074 496.12C343.214 494.382 344.984 492.233 346.28 489.801C347.576 487.369 348.373 484.702 348.624 481.957C348.874 479.212 348.572 476.445 347.737 473.818C346.902 471.191 345.55 468.758 343.76 466.662C341.971 464.566 339.78 462.849 337.317 461.612C334.854 460.375 332.168 459.643 329.418 459.46C326.668 459.277 323.909 459.645 321.303 460.544C300.195 467.27 278.156 470.668 256 470.668V512ZM256 365.186C256.633 365.368 257.237 365.641 257.794 365.996C258.557 366.482 259.217 367.114 259.735 367.855C260.254 368.596 260.622 369.432 260.817 370.316L264.262 385.839C264.457 386.722 264.825 387.558 265.344 388.299C265.862 389.04 266.522 389.672 267.285 390.158C268.048 390.644 268.899 390.976 269.79 391.133C270.681 391.29 271.594 391.271 272.477 391.075L288.233 387.584C289.118 387.391 289.956 387.025 290.7 386.508C291.444 385.99 292.078 385.331 292.567 384.568C293.055 383.805 293.389 382.952 293.547 382.06C293.706 381.168 293.687 380.254 293.492 379.369L290.001 363.729C289.609 361.969 289.923 360.124 290.876 358.592C291.829 357.06 293.345 355.964 295.098 355.537L301.009 354.118C309.495 352.246 311.903 350.988 317.999 347.801C318.725 347.422 319.502 347.016 320.349 346.577C327.886 342.836 334.72 337.82 340.55 331.753C345.875 326.148 349.813 319.373 352.046 311.971C354.281 303.988 354.42 295.54 352.419 287.488C349.347 273.501 343.389 262.796 334.545 255.395C325.422 247.901 314.158 243.572 302.382 243.014C310.855 236.949 317.121 228.289 320.233 218.345C323.235 208.756 323.677 198.563 321.489 188.788C318.571 175.613 311.229 163.835 300.683 155.415C295.494 151.366 289.536 148.387 283.159 146.641C276.48 144.826 269.428 144.71 262.679 146.292L256 147.747V190.649C257.499 190.546 259.009 190.632 260.493 190.909C262.947 191.366 265.277 192.332 267.334 193.745C271.709 196.631 274.665 201.472 276.177 208.268C277.806 215.645 276.969 221.51 273.687 225.885C270.592 230.139 266.033 233.098 260.887 234.193L256 235.278V274.564L277.178 269.871C279.855 269.241 282.642 269.241 285.32 269.871C287.997 270.501 290.492 271.744 292.608 273.501C297.359 277.265 300.604 282.607 301.754 288.559C302.53 291.471 302.703 294.51 302.263 297.492C301.823 300.473 300.779 303.333 299.194 305.897H299.147C297.581 308.361 295.525 310.478 293.107 312.116C290.689 313.753 287.961 314.876 285.091 315.415L256 321.849V365.186ZM256 41.3324V0C397.102 0.000111825 512 114.898 512 256C512 279.319 508.835 302.545 502.574 325.027C501.004 330.194 497.473 334.541 492.738 337.138C488.003 339.735 482.439 340.375 477.238 338.921C472.036 337.467 467.611 334.035 464.908 329.359C462.206 324.683 461.441 319.135 462.778 313.903C468.014 295.052 470.691 275.572 470.667 256C470.667 137.635 374.365 41.3325 256 41.3324ZM411.578 388.538L375.901 431.174C374.92 432.349 374.385 433.832 374.388 435.363V441.879C374.388 443.589 375.067 445.229 376.276 446.438C377.485 447.647 379.125 448.326 380.835 448.326H437.899C438.748 448.329 439.589 448.164 440.374 447.842C441.158 447.519 441.872 447.045 442.473 446.446C443.074 445.847 443.551 445.135 443.876 444.352C444.202 443.568 444.369 442.728 444.369 441.879V436.876C444.369 433.315 441.46 430.429 437.899 430.429H413.44C412.224 430.432 411.033 430.091 410.003 429.446C408.972 428.801 408.146 427.878 407.618 426.783C407.09 425.688 406.882 424.466 407.019 423.258C407.155 422.05 407.63 420.906 408.39 419.956L442.531 377.088C443.434 375.949 443.926 374.539 443.927 373.085V366.476C443.927 364.766 443.248 363.126 442.039 361.917C440.83 360.708 439.19 360.029 437.481 360.029H382.603C379.019 360.029 376.134 362.915 376.134 366.476V371.503C376.134 372.351 376.301 373.191 376.627 373.975C376.952 374.759 377.429 375.47 378.03 376.069C378.631 376.668 379.344 377.142 380.129 377.465C380.914 377.788 381.755 377.952 382.603 377.949H406.621C407.849 377.946 409.053 378.293 410.091 378.951C411.128 379.609 411.956 380.55 412.477 381.662C412.998 382.775 413.19 384.013 413.031 385.231C412.871 386.45 412.367 387.597 411.578 388.538Z" fill="#FFD1A9"/>
<path fill-rule="evenodd" clip-rule="evenodd" d="M256 0C114.897 0 0 114.828 0 256C0 397.172 114.828 512 256 512V470.668C137.635 470.668 41.3324 374.365 41.3324 256C41.3324 137.635 137.635 41.3324 256 41.3324V0ZM256 147.747L249.647 149.132C247.866 149.527 246.001 149.201 244.461 148.223C242.921 147.246 241.831 145.698 241.431 143.919L237.987 128.372C237.791 127.489 237.424 126.653 236.905 125.912C236.386 125.171 235.727 124.539 234.964 124.053C234.201 123.566 233.35 123.235 232.459 123.078C231.568 122.921 230.655 122.94 229.772 123.136L214.016 126.627C213.131 126.817 212.292 127.181 211.548 127.695C210.803 128.21 210.167 128.867 209.677 129.628C209.186 130.389 208.85 131.239 208.688 132.13C208.526 133.02 208.542 133.934 208.733 134.819L212.224 150.458C212.42 151.341 212.439 152.255 212.282 153.145C212.125 154.036 211.794 154.887 211.307 155.65C210.821 156.413 210.189 157.073 209.448 157.592C208.707 158.11 207.871 158.478 206.988 158.673L164.329 168.122C159.978 169.08 156.185 171.726 153.785 175.479C151.385 179.233 150.573 183.785 151.529 188.137L189.929 361.728C190.886 366.079 193.533 369.872 197.286 372.272C201.039 374.672 205.592 375.484 209.943 374.528L252.602 365.079C253.485 364.884 254.399 364.864 255.289 365.021C255.529 365.064 255.767 365.119 256 365.186V321.849L248.576 323.491C246.42 323.967 244.191 324.014 242.016 323.629C239.842 323.243 237.765 322.433 235.904 321.244C234.043 320.056 232.434 318.512 231.171 316.701C229.907 314.89 229.012 312.848 228.538 310.691L225.839 298.426C224.883 294.075 225.694 289.522 228.095 285.769C230.495 282.016 234.288 279.369 238.639 278.412L256 274.564V235.278L230.47 240.943C226.118 241.898 221.566 241.087 217.812 238.686C214.059 236.286 211.413 232.494 210.455 228.143L208.175 218.228C207.698 216.072 207.651 213.843 208.036 211.669C208.422 209.494 209.232 207.417 210.421 205.556C211.61 203.695 213.154 202.087 214.965 200.823C216.776 199.559 218.818 198.665 220.975 198.191L253.091 191.092C254.049 190.864 255.022 190.716 256 190.649V147.747Z" fill="#FF8C29"/>
</g>
<defs>
<clipPath id="clip0_1_115">
<rect width="512" height="512" fill="white"/>
</clipPath>
</defs>
</svg>
