<svg width="512" height="512" viewBox="0 0 512 512" fill="none" xmlns="http://www.w3.org/2000/svg">
<path d="M256 0V512C397.4 512 512 397.4 512 256C512 114.6 397.4 0 256 0Z" fill="#BCD643"/>
<path d="M0 256C0 397.4 114.6 512 256 512V0C114.6 0 0 114.6 0 256Z" fill="#BCD643"/>
<path d="M383.2 245.6C374.8 229.4 360.5 218.3 344.3 213.5C349.6 197.4 348.7 179.3 340.3 163.2C332.4 147.6 318.9 136.3 302.4 131.1C287 126.2 270.6 127.2 256 133.9V175L269.8 167.8C276.5 164.4 284.2 163.7 291.3 166C298.5 168.3 304.3 173.2 307.8 179.8C315 193.6 309.6 210.6 295.8 217.7L256 238.5V279.9L312.7 250.4C326.5 243.3 343.5 248.6 350.7 262.4C354.2 269.1 354.8 276.7 352.6 283.8C350.3 291 345.4 296.8 338.8 300.3L272 335L256 304.3V400.1L268.1 423.3L275.7 419.3L306.5 403.3L288 368.1L315.1 354L333.4 389.3L365 372.9L346.7 337.6L355.6 333C361.3 330.1 366.4 326.4 370.9 322C378.5 314.6 384.3 305.4 387.5 295C392.7 278.5 391.2 260.9 383.2 245.6Z" fill="white"/>
<path d="M245.999 285.1L255.999 279.9V238.5L229.099 252.5L203.099 202.6L255.999 175.1V134C254.999 134.5 253.999 135 252.999 135.5L244.199 140.1L222.599 98.5996L190.799 115L212.399 156.5L185.299 170.6L163.699 129.1L156.099 133.1L125.299 149.1L146.099 189.1L108.699 208.5L127.199 244L164.699 224.5L231.999 354L194.499 373.5L212.999 409L250.499 389.5L255.999 400.1V304.3L245.999 285.1Z" fill="#E6EAEA"/>
</svg>
