<?xml version="1.0" encoding="UTF-8" standalone="no"?>
<svg
   width="512"
   height="512"
   viewBox="0 0 512 512"
   version="1.1"
   id="svg6589"
   xmlns="http://www.w3.org/2000/svg"
   xmlns:svg="http://www.w3.org/2000/svg">
  <defs
     id="defs6593" />
  <g
     fill="none"
     id="g6587"
     transform="scale(16)">
    <circle
       cx="16"
       cy="16"
       r="16"
       fill="#eab304"
       id="circle6583" />
    <path
       d="m 22.15,14.57 0.07,-0.14 c 0,-0.07 0,-0.14 0.14,-0.09 a 0.56,0.56 0 0 0 0,-0.19 0.4,0.4 0 0 0 0,-0.28 1.71,1.71 0 0 1 -0.07,-1.09 0.3,0.3 0 0 0 0,-0.14 l 0.07,-0.07 a 0.33,0.33 0 0 1 0.07,0.09 0.3,0.3 0 0 1 0,0.14 v 0.07 c 0,0.07 0.12,-0.07 0.17,-0.12 a 1,1 0 0 1 0.2,-0.12 1.36,1.36 0 0 0 -0.07,-0.54 1.67,1.67 0 0 1 0.07,-1.14 c 0,0.07 0.09,0.12 0.09,0.19 0.017,0.26 0.127,0.505 0.31,0.69 0.203,0.233 0.356,0.505 0.45,0.8 0,0 0,0.09 0.07,0.09 0.288,0.083 0.55,0.237 0.76,0.45 0.242,0.218 0.472,0.448 0.69,0.69 A 0.49,0.49 0 0 1 25.26,14 h 0.07 a 6.23,6.23 0 0 0 0,-0.66 c 0,-0.19 0.09,-0.38 0.28,-0.35 h 0.09 a 0.39,0.39 0 0 1 0.3,-0.36 0.4,0.4 0 0 1 0,0.4 c 0.14,0.17 0.17,0.26 0,0.45 -0.17,0.19 -0.09,0.21 0,0.4 a 0.86,0.86 0 0 1 0.12,-0.31 c 0.05,-0.1 0.07,-0.26 0.19,-0.31 a 0.18,0.18 0 0 1 0.12,0 0.9,0.9 0 0 0 0.35,0 0.35,0.35 0 0 1 0.35,0.21 l -0.33,0.16 c 0.07,0.14 0,0.19 -0.14,0.28 a 1.53,1.53 0 0 0 -0.19,0.21 3.42,3.42 0 0 0 0.38,-0.09 0.37,0.37 0 0 1 0.43,0.21 0.35,0.35 0 0 0 0.12,0.14 0.5,0.5 0 0 1 0.17,0.33 0.18,0.18 0 0 1 0,0.09 l -0.19,-0.14 a 0.13,0.13 0 0 0 -0.18,0 0.18,0.18 0 0 1 -0.25,0 0.44,0.44 0 0 0 -0.45,0 3.22,3.22 0 0 1 -0.33,0.19 0.85,0.85 0 0 1 0.63,0.43 c 0.07,0.14 0.17,0.28 0.24,0.43 a 0.25,0.25 0 0 1 -0.12,0.33 h -0.05 v -0.05 c 0,-0.12 -0.07,-0.14 -0.19,-0.12 A 0.26,0.26 0 0 1 26.35,15.7 1.1,1.1 0 0 0 25.8,15.18 l -0.21,-0.09 a 0.85,0.85 0 0 1 -0.09,0.26 0.63,0.63 0 0 1 -0.12,0.14 c -0.14,0.12 -0.14,0.14 0,0.31 0.14,0.17 0.07,0.09 0.12,0.17 a 0.49,0.49 0 0 1 -0.4,-0.17 1.77,1.77 0 0 1 -0.3,-0.47 0.39,0.39 0 0 1 0.14,-0.45 0.85,0.85 0 0 0 0.17,-0.24 L 24.4,14.45 a 1.6,1.6 0 0 1 0,0.33 c 0.024,0.403 0.024,0.807 0,1.21 a 7.7,7.7 0 0 1 -0.28,1.77 6,6 0 0 1 -0.5,1.28 9.54,9.54 0 0 1 -0.61,1.06 6.8,6.8 0 0 1 -0.64,0.8 5.9,5.9 0 0 1 -0.78,0.76 c -0.31,0.26 -0.64,0.47 -1,0.69 a 6.21,6.21 0 0 1 -1.56,0.71 9.81,9.81 0 0 1 -1.13,0.26 5.94,5.94 0 0 1 -0.64,0.09 0.43,0.43 0 0 0 -0.28,0.28 1.19,1.19 0 0 1 -0.52,0.78 c -0.12,0.09 -0.26,0.17 -0.4,0.26 l 0.07,-0.21 a 0.27,0.27 0 0 0 -0.07,-0.26 c -0.07,-0.07 -0.17,0 -0.26,0 -0.09,0 -0.17,0.12 -0.19,0.26 a 0.77,0.77 0 0 1 -0.45,0.59 h -0.12 a 1.45,1.45 0 0 0 0.07,-0.26 c 0,-0.07 -0.07,-0.14 -0.12,-0.21 -0.05,-0.07 -0.09,0 -0.14,0 l -0.43,0.21 -0.14,0.07 0.38,0.17 a 1,1 0 0 1 0.47,0.47 0.32,0.32 0 0 1 0,0.38 0.11,0.11 0 0 0 0,0.12 0.93,0.93 0 0 1 -0.09,0.71 c 0,0.07 -0.12,0.14 -0.17,0.21 L 14.8,26.5 a 0.09,0.09 0 0 0 -0.09,-0.09 0.74,0.74 0 0 1 -0.69,-0.4 l -0.07,-0.09 a 0.87,0.87 0 0 1 -0.52,0.35 1.07,1.07 0 0 0 -0.59,0.69 2,2 0 0 1 -0.17,0.5 0.45,0.45 0 0 1 -0.57,0.26 v 0.38 a 0.42,0.42 0 0 1 -0.3,-0.52 0.4,0.4 0 0 0 0,-0.17 0.62,0.62 0 0 1 0.21,-0.8 2.07,2.07 0 0 0 0.5,-0.52 0.12,0.12 0 0 0 0,-0.07 L 11.8,25.93 A 0.67,0.67 0 0 0 11.28,26 l -0.14,0.18 c -0.21,0.24 -0.31,0.26 -0.59,0.12 a 1,1 0 0 0 -0.12,0.64 0.75,0.75 0 0 1 -0.21,-0.38 0.79,0.79 0 0 1 0,-0.24 v -0.14 a 0.33,0.33 0 0 1 0,-0.21 0.83,0.83 0 0 1 0.43,-0.43 1.49,1.49 0 0 1 0.71,-0.24 c 0.19,-0.012 0.38,-0.012 0.57,0 h 0.14 A 0.8,0.8 0 0 0 11.6,24.85 L 11.06,24.64 A 0.23,0.23 0 0 1 10.8,24.45 0.09,0.09 0 0 0 10.71,24.36 0.85,0.85 0 0 0 10.24,24.5 c 0.07,-0.21 0.17,-0.43 0.4,-0.47 a 1.34,1.34 0 0 1 0.31,0 h 0.09 c 0.14,-0.21 0.35,-0.17 0.54,-0.07 0.277,0.132 0.507,0.344 0.66,0.61 a 0.54,0.54 0 0 0 0.35,0.28 1.36,1.36 0 0 0 -0.07,-0.54 0.38,0.38 0 0 0 -0.28,-0.35 C 12,23.89 11.93,23.72 12.05,23.46 A 0.6,0.6 0 0 0 11.46,23.34 C 11.53,23.15 11.81,23.08 12,23.1 a 1,1 0 0 0 0.57,0.14 0.43,0.43 0 0 1 0.31,0.24 l 0.14,0.28 c 0.12,0.21 0.21,0.45 0.31,0.66 0.14,-0.4 0.31,-0.83 0.47,-1.28 l -0.24,-0.09 -0.69,-0.28 a 7.8,7.8 0 0 1 -1.49,-0.85 0.85,0.85 0 0 0 -0.26,-0.09 c -0.07,0 -0.17,0.09 -0.12,0.17 0.05,0.08 0.12,0.09 0.17,0.17 0.05,0.08 0,0.07 0.09,0.12 h -0.12 a 0.8,0.8 0 0 1 -0.76,-0.5 2.56,2.56 0 0 1 -0.26,-0.95 0.09,0.09 0 0 0 0,-0.07 L 9.48,20.06 a 0.52,0.52 0 0 0 0,0.38 l 0.07,0.14 v 0.17 H 9.36 A 1.46,1.46 0 0 1 9.1,20.35 C 9.01,20 8.96,19.64 8.89,19.29 A 3.59,3.59 0 0 0 8.8,18.77 5.32,5.32 0 0 0 8.61,18.18 v 0.55 c 0,0.05 -0.12,0 -0.14,-0.09 A 1.43,1.43 0 0 1 8.28,18.03 4.63,4.63 0 0 1 8.49,16.54 4.41,4.41 0 0 1 8.66,16.02 0.71,0.71 0 0 1 8.57,16.18 L 8.48,16.27 V 16.15 A 1.23,1.23 0 0 1 8.65,15.51 C 8.82,15.13 9.03,14.75 9.22,14.38 A 3.61,3.61 0 0 1 9.48,14 l -0.17,0.18 -0.12,0.07 v -0.07 a 3.46,3.46 0 0 1 0.21,-0.31 3.72,3.72 0 0 1 0.78,-0.71 0.32,0.32 0 0 1 0.21,0 l 1,0.21 0.35,0.09 a 1.44,1.44 0 0 0 -0.24,0.33 0.43,0.43 0 0 0 0,0.39 0.15,0.15 0 0 1 0,0.17 2.66,2.66 0 0 0 -0.57,0.69 v 0.09 c 0,0 0.33,0.33 0.5,0.52 0.01,0.03 0.01,0.06 0,0.09 a 0.84,0.84 0 0 0 0,0.85 0.34,0.34 0 0 0 0.43,0.24 0.83,0.83 0 0 0 0.17,0.54 c 0.07,0.07 0.17,0.12 0.24,0.19 a 0.24,0.24 0 0 1 0.09,0.12 1,1 0 0 0 0.8,0.69 c 0.288,0.04 0.58,-0.02 0.83,-0.17 0.09,0 0.12,-0.07 0.14,0 0.056,0.349 0.168,0.686 0.33,1 0.207,0.366 0.463,0.702 0.76,1 0.267,0.255 0.594,0.44 0.95,0.54 0.44,0.099 0.9,-0.025 1.23,-0.33 a 3,3 0 0 0 0.52,-0.71 l 0.43,-0.69 a 2.3,2.3 0 0 1 0.71,-0.64 0.39,0.39 0 0 1 0.33,-0.07 l -0.07,0.14 a 0.54,0.54 0 0 0 0,0.57 c 0.07,0.09 0.12,0.09 0.17,0 0.05,-0.09 0.14,-0.26 0.33,-0.24 0.19,0.02 0.19,-0.12 0.21,-0.24 a 3,3 0 0 1 0.45,-1.47 1,1 0 0 1 0.17,-0.14 v 0.38 c 0.019,0.106 0.05,0.21 0.09,0.31 l 0.06,-0.13 a 0.21,0.21 0 0 1 0.19,-0.12 0.2,0.2 0 0 0 0.12,-0.07 0.61,0.61 0 0 0 0.12,-0.57 1.43,1.43 0 0 1 0,-0.45 1.1,1.1 0 0 1 0.14,-0.54 0.49,0.49 0 0 1 0.09,-0.14 h 0.07 v 0.33 a 0.18,0.18 0 0 0 0,0.09 h 0.09 l 0.18,-0.12 a 0.72,0.72 0 0 0 0.09,-0.4 0.7,0.7 0 0 1 0,-0.24 v -0.82 c 0,-0.11 0,-0.12 0.07,-0.19 l 0.11,-0.06 v 0.44 a 0.09,0.09 0 0 1 0.08,-0.05 z M 9.86,10.01 10.45,9.42 a 0.41,0.41 0 0 1 0.12,-0.09 c 0.07,-0.07 0,-0.14 0,-0.21 0,-0.07 -0.09,0 -0.17,0 H 10.31 V 9 a 0.59,0.59 0 0 1 0.33,-0.37 1.18,1.18 0 0 1 0.8,0 0.16,0.16 0 0 0 0.14,0 l 0.57,-0.31 c 0.09,0 0.07,-0.09 0,-0.14 -0.07,-0.05 -0.17,-0.12 -0.26,0 a 0.18,0.18 0 0 1 -0.09,0 c 0,-0.17 0.17,-0.31 0.33,-0.38 0.27,-0.083 0.56,-0.083 0.83,0 H 13 c 0.07,0 0.28,0.09 0.45,0 L 13.8,7.68 c 0.09,0 0.09,-0.07 0,-0.12 -0.09,-0.05 -0.12,-0.14 -0.21,-0.07 -0.09,0.07 0,0 -0.09,0 a 0.11,0.11 0 0 1 0,-0.15 0.83,0.83 0 0 1 0.61,-0.16 1,1 0 0 1 0.54,0.21 h 0.07 a 0.28,0.28 0 0 0 0.28,0.09 0.37,0.37 0 0 1 0.38,0 h 0.07 V 7.39 A 0.28,0.28 0 0 0 15.17,7.18 H 15.1 a 0.86,0.86 0 0 1 0.85,-0.12 c 0.206,0.084 0.386,0.222 0.52,0.4 a 0.57,0.57 0 0 0 0.17,0.07 1,1 0 0 1 0.4,0.07 c 0.12,0.07 0.07,0 0.09,0.09 A 0.27,0.27 0 0 0 17,7.33 H 16.8 V 7.18 a 0.86,0.86 0 0 1 0.33,0 c 0.316,0.037 0.6,0.208 0.78,0.47 0.07,0.12 0.128,0.247 0.17,0.38 a 0.49,0.49 0 0 1 0.45,0.19 H 18.6 A 0.52,0.52 0 0 0 18.72,8.18 0.38,0.38 0 0 0 18.46,7.83 h -0.07 c 0.09,0 0.17,-0.07 0.26,0 0.15,0.014 0.295,0.055 0.43,0.12 0.356,0.145 0.622,0.449 0.72,0.82 0.17,0.09 0.28,0.19 0.4,0.26 h 0.14 V 8.82 A 0.47,0.47 0 0 0 20.08,8.49 L 19.99,8.42 a 0.64,0.64 0 0 1 0.61,0.19 c 0.185,0.156 0.323,0.36 0.4,0.59 a 0.24,0.24 0 0 0 0.14,0.17 c 0.076,0.057 0.146,0.12 0.21,0.19 0.09,-0.26 -0.12,-0.4 -0.19,-0.59 a 0.54,0.54 0 0 1 0.4,0.19 c 0.14,0.146 0.266,0.303 0.38,0.47 0.072,0.122 0.152,0.239 0.24,0.35 0.072,0.134 0.119,0.28 0.14,0.43 a 2.81,2.81 0 0 1 -0.14,1 6,6 0 0 0 0,0.66 c 0.01,0.03 0.01,0.06 0,0.09 a 0.86,0.86 0 0 0 -0.31,0.59 2.86,2.86 0 0 0 0,0.9 v 0.07 a 1,1 0 0 0 -0.45,0.83 v 0.52 a 0.82,0.82 0 0 0 -0.62,0.56 c -0.07,0.14 -0.09,0.31 -0.17,0.45 -0.08,0.14 -0.09,0.09 -0.14,0.14 v -0.19 a 4.15,4.15 0 0 0 0.07,-0.95 3.37,3.37 0 0 0 -0.26,-1.37 v -0.17 a 1,1 0 0 0 0.28,-0.59 6.65,6.65 0 0 0 0,-1 0.93,0.93 0 0 0 -0.24,-0.64 0.58,0.58 0 0 0 -0.64,-0.13 0.77,0.77 0 0 0 -0.47,0.71 v 0.35 a 3.44,3.44 0 0 0 -1.25,-0.8 4.72,4.72 0 0 0 -0.83,-0.21 h -0.61 a 3.72,3.72 0 0 0 -1.16,0.19 c -0.21,0.07 -0.4,0.17 -0.61,0.24 a 0.15,0.15 0 0 1 -0.14,0 5.52,5.52 0 0 0 -1.44,-0.61 3.65,3.65 0 0 0 -0.73,-0.12 c -0.5,-0.1 -1,-0.17 -1.42,-0.3 A 3.46,3.46 0 0 1 9.98,10.18 0.36,0.36 0 0 0 9.86,10.01 Z m 9.45,4.7 c 0,0.17 -0.31,0.21 -0.64,0.12 v 0.35 a 0.48,0.48 0 0 1 0,0.12 h -0.14 a 2.83,2.83 0 0 1 -0.28,-0.26 0.42,0.42 0 0 0 -0.24,0.28 c -0.07,0.19 -0.17,0.21 -0.31,0 a 1.06,1.06 0 0 0 -0.17,-0.14 2.51,2.51 0 0 1 -0.21,0.26 0.2,0.2 0 0 1 -0.14,0.07 0.5,0.5 0 0 1 -0.09,-0.12 0.72,0.72 0 0 1 0,-0.21 c -0.12,0.31 -0.26,0.57 -0.61,0.64 a 0.7,0.7 0 0 1 0.07,-0.38 c 0.07,-0.12 0,0 0,-0.07 a 0.85,0.85 0 0 0 -0.26,0.57 c 0.016,0.433 0.128,0.857 0.33,1.24 0.14,0.35 0.31,0.69 0.45,1 0.128,0.317 0.186,0.658 0.17,1 a 0.9,0.9 0 0 1 -1.44,0.8 2.16,2.16 0 0 1 -0.59,-0.54 c -0.14,-0.19 -0.28,-0.38 -0.4,-0.57 A 3.16,3.16 0 0 1 14.64,18.44 V 18.3 a 0.26,0.26 0 0 1 0.26,0.17 c 0.05,0.08 0.26,0.4 0.4,0.59 0.115,0.23 0.288,0.426 0.5,0.57 a 0.58,0.58 0 0 0 0.76,-0.31 v -0.07 a 0.94,0.94 0 0 0 -0.07,-0.76 c -0.17,-0.38 -0.38,-0.76 -0.57,-1.13 a 4.11,4.11 0 0 1 -0.45,-1.28 1.54,1.54 0 0 1 0,-0.33 c -0.15,0.012 -0.3,0.012 -0.45,0 l -0.45,-0.12 -0.21,0.14 a 0.35,0.35 0 0 0 0,-0.14 0.5,0.5 0 0 0 -0.26,-0.45 0.19,0.19 0 0 0 -0.19,0.19 0.57,0.57 0 0 0 0.26,0.52 l 0.4,0.28 c 0.14,0.09 0.12,0.09 0.19,0 a 0.34,0.34 0 0 0 0,-0.14 c 0.19,0 0.26,0.12 0.28,0.31 0.046,0.24 0.11,0.478 0.19,0.71 a 0.38,0.38 0 0 1 -0.09,0.28 1.14,1.14 0 0 1 -0.47,0.35 0.65,0.65 0 0 1 -0.47,0 2.5,2.5 0 0 1 0.28,-0.24 0.35,0.35 0 0 0 0.09,-0.33 0.11,0.11 0 0 0 -0.09,-0.07 1.14,1.14 0 0 0 -0.28,0 0.29,0.29 0 0 0 -0.19,0.09 4,4 0 0 1 -0.52,0.35 0.79,0.79 0 0 1 -0.92,-0.14 0.93,0.93 0 0 1 -0.19,-0.33 l -0.07,-0.14 a 0.5,0.5 0 0 1 -0.12,0.09 c -0.05,0 -0.07,-0.12 0,-0.14 0.029,-0.13 0.07,-0.257 0.12,-0.38 a 0.15,0.15 0 0 0 0,-0.14 A 0.82,0.82 0 0 0 12,16.04 c -0.09,-0.07 -0.17,0 -0.24,0 h -0.12 a 1,1 0 0 0 0,-0.12 0.56,0.56 0 0 1 0.4,-0.45 h 0.12 a 2.11,2.11 0 0 1 -0.76,-0.5 c -0.07,-0.07 -0.09,-0.12 0,-0.19 0.09,-0.07 0.26,-0.23 0.4,-0.33 a 1.24,1.24 0 0 1 0.83,0 c 0.247,0.082 0.473,0.218 0.66,0.4 l 0.07,0.07 a 1.17,1.17 0 0 0 -0.73,-0.74 3.06,3.06 0 0 0 -0.95,-0.19 0.33,0.33 0 0 1 0.26,-0.24 l 0.54,-0.1 A 1.2,1.2 0 0 0 13,13.39 2,2 0 0 0 12.69,13.18 C 12.41,13.06 12.12,12.92 11.84,12.83 A 2.83,2.83 0 0 0 11.04,12.61 5.6,5.6 0 0 1 9.91,12.33 4.63,4.63 0 0 1 8.66,11.78 c -0.4,-0.26 -0.74,-0.6 -1,-1 A 1.4,1.4 0 0 1 7.52,10.45 v -0.12 h 0.12 l 0.16,0.09 c 0.26,0.21 0.5,0.47 0.76,0.66 a 3.15,3.15 0 0 0 1.06,0.5 c 0.31,0.07 0.61,0.14 0.92,0.19 0.31,0.05 0.52,0 0.78,0.07 l 0.57,0.07 c 0.217,0.015 0.432,0.055 0.64,0.12 0.33,0.12 0.64,0.26 0.95,0.38 a 0.11,0.11 0 0 0 0.12,0 c 0.13,-0.029 0.257,-0.07 0.38,-0.12 V 12.18 A 7.77,7.77 0 0 0 13.27,11.83 5,5 0 0 0 11.85,11.5 L 11.19,11.43 A 8.39,8.39 0 0 1 10.12,11.18 3.42,3.42 0 0 1 9.12,10.61 1.6,1.6 0 0 1 8.58,9.85 V 9.64 a 0.22,0.22 0 0 1 0.17,0 l 0.26,0.28 c 0.14,0.14 0.28,0.28 0.45,0.43 0.396,0.31 0.852,0.535 1.34,0.66 0.28,0.07 0.57,0.12 0.85,0.17 0.45,0.07 0.92,0.14 1.37,0.24 a 3,3 0 0 1 1.44,0.69 c 0.17,0.14 0.31,0.07 0.47,0 a 0.4,0.4 0 0 1 0.43,0.21 c 0.12,0.323 0.12,0.677 0,1 a 0.3,0.3 0 0 0 0.14,0.31 h 0.12 a 0.85,0.85 0 0 1 0.85,0.12 0.21,0.21 0 0 0 0.26,0 5.33,5.33 0 0 0 0.57,-0.31 c 0.19,-0.12 0.09,-0.17 0.14,-0.26 a 0.73,0.73 0 0 1 0.76,-0.4 c 0.215,0 0.43,0.023 0.64,0.07 a 1,1 0 0 0 0.52,0 0.51,0.51 0 0 0 0.44,-0.41 V 11.8 c 0,-0.07 0,-0.14 0.12,-0.14 0.12,0 0.09,0.09 0.09,0.17 0.072,0.33 0.072,0.67 0,1 A 0.55,0.55 0 0 1 19.4,13.3 h -0.85 a 0.48,0.48 0 0 0 -0.5,0.38 0.3,0.3 0 0 0 0,0.14 c 0.07,0.14 0.12,0.26 0.33,0.24 0.112,0.01 0.2,0.098 0.21,0.21 a 0.55,0.55 0 0 0 0.5,0.45 z m -5.57,-0.69 c 0.12,0.123 0.247,0.24 0.38,0.35 a 0.39,0.39 0 0 0 0.47,0 3.61,3.61 0 0 0 0.38,-0.26 v -0.07 a 0.32,0.32 0 0 0 -0.17,-0.21 0.51,0.51 0 0 0 -0.26,0 l -0.17,0.07 a 1,1 0 0 1 -0.52,0 z M 17,14.35 a 0.35,0.35 0 0 0 0.14,0.07 0.79,0.79 0 0 1 0.45,0.26 c 0.116,0.011 0.234,0.011 0.35,0 0.07,0 0.12,-0.07 0.19,-0.09 A 1.43,1.43 0 0 0 17.94,14.4 1.39,1.39 0 0 0 17,14.35 Z M 4.54,17.43 a 1,1 0 0 0 1,0.28 A 0.4,0.4 0 0 0 5.8,17.47 1.62,1.62 0 0 1 4.69,17.33 1.33,1.33 0 0 1 4.05,16.46 1.3,1.3 0 0 1 4.59,15.02 1.31,1.31 0 0 0 5.45,16.66 H 5.59 A 1.37,1.37 0 0 0 7.1,15.92 3.54,3.54 0 0 0 6.8,16.18 c -0.437,0.3 -1.013,0.3 -1.45,0 a 0.89,0.89 0 0 1 -0.05,-1.45 0.56,0.56 0 0 0 0.28,0.4 1.6,1.6 0 0 0 0.47,0.17 1.18,1.18 0 0 0 1,-0.31 1.5,1.5 0 0 0 0.33,-0.52 C 7.57,14.02 7.71,13.55 7.92,13.1 a 8.79,8.79 0 0 1 0.45,-0.8 c 0,-0.07 0.09,0 0.14,0 l 0.52,0.28 0.33,0.14 -0.14,0.12 a 5.32,5.32 0 0 0 -0.8,1.11 c -0.17,0.31 -0.33,0.59 -0.47,0.9 -0.14,0.31 -0.28,0.71 -0.4,1.06 l -0.28,0.8 C 7.2,16.92 7.1,17.11 7.01,17.32 a 1.48,1.48 0 0 1 -0.66,0.71 1.54,1.54 0 0 1 -0.55,0.15 2.28,2.28 0 0 1 -0.57,0 0.76,0.76 0 0 1 -0.67,-0.54 0.37,0.37 0 0 0 -0.02,-0.21 z m 14.07,-0.8 c 0.012,0.11 0.012,0.22 0,0.33 0,0.14 -0.09,0.14 -0.21,0.07 L 18.12,16.89 H 18 a 0.58,0.58 0 0 1 0,0.52 0.24,0.24 0 0 1 -0.09,0.12 H 17.8 l -0.07,-0.21 a 0.23,0.23 0 0 0 -0.3,-0.12 0.87,0.87 0 0 0 -0.26,0.12 H 17.03 A 3.11,3.11 0 0 1 16.7,16.26 l 0.1,0.12 a 0.47,0.47 0 0 0 0.57,0 0.39,0.39 0 0 0 0,-0.33 c 0,-0.07 -0.07,-0.12 -0.09,-0.19 0.14,0 0.14,-0.12 0.5,0.31 l 0.26,-0.14 c 0.09,0 0,-0.14 0,-0.19 v -0.21 l 0.17,0.07 a 0.24,0.24 0 0 1 0.12,0.09 3,3 0 0 0 0.5,0.45 0.47,0.47 0 0 1 0.17,0.38 v 0.09 H 18.93 C 18.68,16.63 18.68,16.63 18.61,16.63 Z M 6.8,15.04 A 1.05,1.05 0 0 0 6.16,14.9 1.14,1.14 0 0 1 5.88,14.9 0.38,0.38 0 0 1 5.6,14.36 c 0.09,0 0.17,0.12 0.26,0.17 0.09,0.05 0.12,0 0.12,-0.07 a 0.29,0.29 0 0 1 0.17,-0.28 0.45,0.45 0 0 1 0.45,0.09 c 0.202,0.2 0.28,0.496 0.2,0.77 z"
       fill="#ffffff"
       id="path6585" />
  </g>
</svg>
