<svg width="512" height="512" viewBox="0 0 512 512" fill="none" xmlns="http://www.w3.org/2000/svg">
<g clip-path="url(#clip0_1_1150)">
<path d="M458.863 241.774C446.076 217.113 424.308 200.216 399.647 192.909C407.715 168.4 406.345 140.847 393.558 116.339C381.532 92.5913 360.981 75.3896 335.864 67.4738C312.421 60.0147 287.456 61.537 265.23 71.7362V134.301L286.238 123.341C296.437 118.165 308.158 117.1 318.967 120.601C329.927 124.102 338.756 131.561 344.084 141.608C355.044 162.616 346.824 188.494 325.817 199.302L265.23 230.966V293.987L351.543 249.081C372.55 238.272 398.429 246.34 409.389 267.348C414.717 277.547 415.631 289.116 412.282 299.924C408.78 310.885 401.321 319.714 391.274 325.042L289.587 377.865L265.23 331.131V476.964L283.65 512.281L295.219 506.192L342.105 481.836L313.943 428.252L355.197 406.788L383.054 460.524L431.158 435.559L403.3 381.822L416.848 374.82C425.525 370.405 433.289 364.773 440.139 358.075C451.708 346.81 460.538 332.805 465.409 316.974C473.325 291.856 471.041 265.064 458.863 241.774Z" fill="#4ACFD9"/>
<path d="M250.008 301.903L265.23 293.987V230.965L224.281 252.277L184.702 176.316L265.23 134.454V71.8883C263.708 72.6495 262.186 73.4106 260.663 74.1717L247.267 81.1742L214.386 18L165.978 42.9652L198.859 106.139L157.606 127.603L124.725 64.4292L113.156 70.5183L66.2696 94.8746L97.9328 155.765L41 185.297L69.162 239.338L126.247 209.654L228.696 406.788L171.611 436.472L199.773 490.512L256.858 460.828L265.23 476.964V331.131L250.008 301.903Z" fill="#0295AA"/>
</g>
<defs>
<clipPath id="clip0_1_1150">
<rect width="512" height="512" fill="white"/>
</clipPath>
</defs>
</svg>
