<svg width="512" height="512" viewBox="0 0 512 512" fill="none" xmlns="http://www.w3.org/2000/svg">
<path d="M256 0V512C114.615 512 0 397.385 0 256C0 114.615 114.615 0 256 0Z" fill="#FF8C29"/>
<path d="M256 512V0C397.385 0 512 114.615 512 256C512 397.385 397.385 512 256 512Z" fill="#FFD1A9"/>
<path fill-rule="evenodd" clip-rule="evenodd" d="M255.992 371.699C256.339 371.746 256.664 371.886 256.957 372.177C257.493 372.712 257.879 373.378 258.076 374.108C258.273 374.838 258.275 375.607 258.08 376.337L256.957 379.697C257.65 379.253 258.343 378.824 259.027 378.401C260.56 377.452 262.045 376.533 263.377 375.537C265.543 374.129 267.4 372.296 268.835 370.151C270.269 368.006 271.252 365.593 271.723 363.057C272.057 362.006 272.64 361.051 273.422 360.271C274.204 359.491 275.163 358.911 276.217 358.577C279.665 358.284 283.094 357.803 286.49 357.137C292.612 356.108 298.668 354.719 304.627 352.977C313.459 350.363 321.886 346.54 329.665 341.618C335.443 338.098 340.74 334.738 345.716 330.578C350.256 326.918 354.447 322.847 358.235 318.418C361.977 314.415 365.411 310.136 368.507 305.618C372.131 300.179 375.402 294.514 378.298 288.658C381.751 282.16 384.444 275.289 386.323 268.178C388.922 258.945 390.43 249.441 390.817 239.859C391.202 233.411 391.202 226.947 390.817 220.499C391 218.744 391 216.974 390.817 215.219L402.213 218.259C401.534 219.687 400.611 220.987 399.484 222.099C398.373 222.89 397.552 224.022 397.147 225.322C396.741 226.622 396.773 228.019 397.237 229.299C398.434 232.043 400.059 234.581 402.053 236.819C402.841 237.734 403.83 238.455 404.944 238.927C406.057 239.399 407.265 239.608 408.473 239.539C408.197 239.1 408.149 238.962 408.113 238.86C408.044 238.666 408.023 238.606 406.547 236.819C404.3 234.099 404.3 233.779 406.547 231.859C407.295 231.21 407.944 230.456 408.473 229.619C409.178 228.319 409.666 226.914 409.917 225.459L413.288 226.899C417.125 228.544 420.253 231.492 422.116 235.219C422.28 235.747 422.548 236.237 422.904 236.661C423.26 237.085 423.698 237.434 424.191 237.687C424.684 237.94 425.223 238.093 425.776 238.136C426.329 238.179 426.885 238.112 427.412 237.939C429.338 237.619 430.462 237.939 430.462 239.859V240.659H431.264C432.217 240.208 432.953 239.401 433.314 238.412C433.674 237.424 433.63 236.334 433.19 235.379C432.578 234.07 431.822 232.809 431.079 231.569C430.46 230.536 429.849 229.517 429.338 228.499C428.307 226.646 426.856 225.059 425.1 223.865C423.344 222.67 421.333 221.901 419.227 221.619C421.051 220.711 422.819 219.695 424.523 218.579C425.616 217.931 426.863 217.589 428.134 217.589C429.406 217.589 430.653 217.931 431.746 218.579C432.284 219.097 433.004 219.387 433.752 219.387C434.501 219.387 435.22 219.097 435.758 218.579C436.147 218.207 436.665 218 437.203 218C437.741 218 438.259 218.207 438.647 218.579L441.697 220.819C441.819 220.347 441.819 219.851 441.697 219.379C441.501 217.335 440.524 215.445 438.969 214.099C438.137 213.537 437.472 212.764 437.042 211.859C436.478 210.575 435.474 209.532 434.21 208.917C432.946 208.302 431.504 208.153 430.141 208.499C428.137 209.094 426.1 209.575 424.042 209.939C424.952 208.727 425.973 207.603 427.091 206.579C429.338 205.139 430.462 204.339 429.338 202.099L434.635 199.539C434.169 198.464 433.376 197.561 432.368 196.958C431.361 196.355 430.189 196.083 429.017 196.179C427.163 196.546 425.254 196.546 423.4 196.179C422.776 195.959 422.097 195.959 421.474 196.179C420.067 196.763 419.517 198.285 419.01 199.687C418.822 200.205 418.641 200.707 418.424 201.139C417.464 202.652 416.81 204.336 416.498 206.099C416.211 205.495 415.93 204.998 415.686 204.566C414.701 202.824 414.312 202.135 416.498 199.699C419.226 196.659 418.745 195.219 416.498 192.499C417.061 191.526 417.358 190.423 417.358 189.299C417.358 188.176 417.061 187.072 416.498 186.099C415.178 186.409 413.994 187.139 413.126 188.178C412.257 189.217 411.751 190.509 411.683 191.859H410.238C407.189 191.379 405.744 194.419 405.744 197.459C405.931 200.977 405.931 204.501 405.744 208.019H404.621C404.271 207.196 403.782 206.438 403.176 205.779C399.677 201.907 395.985 198.227 392.101 194.739C388.731 191.331 384.525 188.867 379.903 187.539C378.779 187.539 378.779 186.099 378.779 186.099C377.271 181.379 374.815 177.027 371.557 173.299C368.62 170.339 366.854 166.419 366.581 162.259C366.581 161.699 366.22 161.219 365.859 160.739C365.498 160.259 365.137 159.779 365.137 159.219C362.623 164.979 362.225 171.437 364.013 177.459C364.968 180.234 365.35 183.173 365.137 186.099C363.995 186.612 362.918 187.257 361.927 188.019C361.796 188.15 361.635 188.318 361.458 188.504C360.547 189.46 359.198 190.877 359.198 189.939V188.819C359.375 188.083 359.375 187.315 359.198 186.579C358.91 186.038 358.53 185.551 358.074 185.139L356.951 186.259C357.128 186.995 357.128 187.763 356.951 188.499C355.403 194.279 355.797 200.404 358.074 205.939C358.616 207.383 358.616 208.974 358.074 210.419C358.248 211.425 358.248 212.453 358.074 213.459C355.827 212.659 355.827 213.779 355.827 214.899L354.704 217.139C354.436 217.141 354.175 217.216 353.948 217.358C353.722 217.499 353.539 217.7 353.42 217.939V210.899L351.654 211.859C350.531 212.979 350.531 213.139 350.531 214.899V228.019C350.309 229.289 350.309 230.588 350.531 231.859C350.682 234.086 350.18 236.31 349.086 238.259L346.197 240.179H344.753C344.63 239.706 344.63 239.211 344.753 238.739V233.459H343.629C343.023 234.118 342.534 234.875 342.185 235.699C340.703 238.338 339.929 241.314 339.937 244.339C339.556 246.724 339.556 249.154 339.937 251.538C340.405 253.098 340.473 254.75 340.137 256.342C339.801 257.935 339.07 259.419 338.011 260.658C337.524 261.249 336.841 261.646 336.085 261.778C335.447 261.778 334.821 261.958 334.281 262.298C333.741 262.637 333.309 263.123 333.036 263.698L332.073 265.778C331.431 264.178 330.933 262.514 330.628 260.818V254.738C329.639 255.383 328.724 256.134 327.9 256.978C323.484 264.06 320.994 272.166 320.677 280.498C320.646 280.685 320.618 280.874 320.59 281.063C320.327 282.829 320.06 284.627 317.306 284.338C314.32 284.025 312.873 286.626 312.061 288.087L312.01 288.178C311.207 289.618 310.405 289.618 309.281 288.178C308.428 286.809 307.976 285.23 307.976 283.618C307.976 282.007 308.428 280.427 309.281 279.058L310.405 276.818C309.494 276.598 308.545 276.584 307.629 276.778C306.712 276.972 305.85 277.368 305.108 277.938C300.632 280.518 296.75 284.007 293.712 288.178L286.811 299.218C284.604 303.393 281.792 307.221 278.464 310.578C273.168 315.458 265.785 317.442 258.722 315.858C257.799 315.599 256.889 315.306 255.992 314.977V371.699ZM255.992 305.531C257.417 306.119 258.935 306.478 260.49 306.588C263.285 306.786 266.078 306.169 268.528 304.812C270.977 303.455 272.978 301.417 274.287 298.947C275.595 296.476 276.154 293.68 275.896 290.898C276.153 285.426 275.222 279.97 273.168 274.898C272.459 273.335 271.703 271.724 270.929 270.075C269.248 266.493 267.484 262.733 265.945 258.898C262.703 252.77 260.905 245.987 260.648 239.059C260.824 235.6 262.316 232.338 264.822 229.939C264.822 230.655 265.281 230.128 265.318 230.157C265.34 230.173 265.227 230.366 264.822 231.059C263.882 232.94 263.493 235.047 263.698 237.139C269.316 236.019 271.563 231.859 273.489 226.899C273.324 228.013 273.324 229.145 273.489 230.259C273.871 230.967 274.358 231.615 274.933 232.179C275.364 232.152 275.785 232.039 276.171 231.847C276.557 231.654 276.901 231.386 277.18 231.059C278.395 229.748 279.521 228.359 280.551 226.899C281.536 227.549 282.45 228.3 283.28 229.139C285.527 232.499 287.132 232.179 288.255 229.139C288.513 228.149 288.994 227.231 289.662 226.455C290.329 225.678 291.166 225.064 292.107 224.659C293.51 226.145 295.011 227.535 296.601 228.819H298.848C298.929 228.181 298.929 227.536 298.848 226.899V221.299C304.145 222.739 309.121 222.099 309.121 219.379L305.59 219.539C303.641 219.393 301.796 218.607 300.344 217.304C298.892 216.002 297.914 214.255 297.564 212.339C297.404 210.547 295.991 209.139 294.194 208.979C290.965 209.285 290.093 207.536 289.037 205.419C288.991 205.326 288.944 205.233 288.897 205.139C288.72 204.403 288.72 203.635 288.897 202.899C289.279 201.094 290.3 199.486 291.774 198.369C293.247 197.253 295.075 196.702 296.922 196.819H310.565C312.86 197.092 315.17 196.458 317.001 195.052C318.832 193.646 320.036 191.581 320.356 189.299C321.512 184.019 321.512 178.579 320.356 173.299C320.356 173.083 320.37 172.862 320.383 172.644C320.45 171.574 320.512 170.579 318.911 170.579C316.985 170.579 316.985 171.699 316.985 172.819V183.059C316.658 184.758 315.797 186.308 314.527 187.487C313.258 188.666 311.646 189.413 309.923 189.619C307.19 190.353 304.31 190.353 301.577 189.619C298.206 188.867 294.756 188.499 291.305 188.499C288.854 188.144 286.353 188.572 284.162 189.722C281.97 190.872 280.2 192.684 279.106 194.899C278.833 195.39 278.839 195.807 278.845 196.219C278.857 197.015 278.869 197.794 276.859 199.059C273.914 200.896 270.858 202.552 267.711 204.019C267.116 204.486 266.381 204.74 265.624 204.74C264.867 204.74 264.132 204.486 263.537 204.019C261.639 202.521 259.375 201.553 256.977 201.216C256.649 201.17 256.321 201.136 255.992 201.114V264.246C256.401 265.027 256.813 265.811 257.226 266.596C259.529 270.975 261.865 275.417 263.858 279.858C264.888 281.694 265.52 283.725 265.714 285.819C265.908 287.914 265.658 290.026 264.982 292.018V293.138C264.508 294.263 263.817 295.283 262.948 296.141C262.078 296.999 261.047 297.678 259.914 298.139C258.781 298.599 257.568 298.833 256.345 298.826C256.227 298.825 256.11 298.822 255.992 298.817V305.531ZM255.992 164.362C258.857 163.932 261.755 163.71 264.661 163.699H274.452C278.985 164.415 283.444 165.539 287.774 167.059C295.316 169.82 302.163 174.188 307.837 179.859V174.259C307.834 171.836 308.548 169.466 309.89 167.445C311.232 165.425 313.142 163.843 315.38 162.899C317.104 162.178 319.006 161.99 320.838 162.361C322.67 162.732 324.348 163.644 325.653 164.979C328.194 167.781 329.571 171.442 329.505 175.219C329.908 180.545 329.908 185.893 329.505 191.219C329.109 194.778 327.526 198.102 325.011 200.659V203.379C327.919 210.316 329.341 217.782 329.184 225.299C329.396 230.392 329.019 235.492 328.06 240.499V243.539C328.334 243.266 328.533 243.179 328.727 243.094C329.103 242.931 329.461 242.775 330.307 241.299C330.999 240.091 331.412 238.745 331.821 237.409C332.17 236.266 332.518 235.131 333.036 234.099C333.737 231.853 335.03 229.837 336.781 228.261C338.532 226.684 340.675 225.606 342.987 225.139V216.819C343.001 214.184 343.667 211.592 344.927 209.276C346.187 206.959 348.002 204.988 350.21 203.539V202.419C349.447 197.649 349.447 192.789 350.21 188.019C350.367 186.195 350.888 184.42 351.743 182.799C352.597 181.178 353.768 179.744 355.185 178.579C355.346 178.099 355.346 177.619 355.185 177.139C354.991 173.622 354.991 170.097 355.185 166.579C356.897 161.425 357.659 156.004 357.432 150.579C357.095 148.18 356.341 145.844 355.185 143.7C353.773 141.924 352.489 140.052 351.333 138.1C349.504 135.428 347.481 132.916 345.234 130.58C344.44 129.649 343.458 128.897 342.351 128.373C341.244 127.849 340.039 127.565 338.814 127.54C339.166 128.492 339.739 129.366 340.315 130.245C341.577 132.172 342.855 134.123 341.863 136.98C340.836 135.86 339.713 134.852 338.493 133.94C337.928 133.698 337.429 133.325 337.038 132.852C336.647 132.379 336.375 131.819 336.246 131.22C335.01 127.54 332.795 124.276 329.826 121.78C328.604 120.462 327.056 119.488 325.338 118.955C323.62 118.421 321.791 118.347 320.035 118.74L321.479 119.86C322.538 120.357 323.466 121.093 324.191 122.009C324.915 122.925 325.416 123.997 325.653 125.14V128.5H323.406C322.609 128.037 321.841 127.492 321.02 126.91C319.855 126.084 318.586 125.185 316.985 124.34C315.412 118.404 311.143 113.54 305.429 111.22C303.262 110.18 300.935 109.524 298.527 109.3C297.57 108.558 296.684 108.799 295.775 109.046C295.311 109.172 294.842 109.3 294.354 109.3H295.478C296.666 109.694 297.704 110.442 298.45 111.444C299.197 112.446 299.616 113.652 299.651 114.9C299.037 115.191 298.391 115.405 297.725 115.54H296.601C295.769 114.448 294.664 113.592 293.397 113.059C292.13 112.525 290.744 112.333 289.379 112.5C288.705 110.372 287.774 108.34 286.65 106.42C283.761 102.228 279.203 99.492 274.131 98.9C272.382 98.5592 270.583 98.5592 268.834 98.9V101.3H272.044C272.562 101.541 273.026 101.881 273.411 102.301C273.796 102.721 274.094 103.212 274.288 103.748C274.482 104.283 274.568 104.851 274.541 105.419C274.514 105.988 274.375 106.545 274.131 107.06C273.988 106.421 274.067 106.286 274.03 106.236C273.985 106.173 273.757 106.243 272.686 105.62C270.646 104.813 268.46 104.432 266.266 104.5C265.302 104.276 264.38 103.898 263.537 103.38C261.562 100.764 258.964 98.6886 255.992 97.3262V164.362ZM274.291 214.739C273.467 214.539 272.699 214.157 272.044 213.619C277.014 212.128 282.349 212.411 287.132 214.419C288.242 215.335 289.263 216.352 290.181 217.459C289.696 217.597 289.27 217.885 288.853 218.167C288.304 218.538 287.77 218.899 287.132 218.899C285.27 219.075 283.376 219.075 281.514 218.899C279.646 216.74 277.101 215.274 274.291 214.739ZM297.885 255.378C298.078 253.618 298.078 251.858 297.885 250.098C298.127 250.098 298.317 250.098 298.506 250.111C299.195 250.158 299.872 250.374 303.021 251.378H304.145V249.939C304.189 248.784 303.966 247.635 303.493 246.581C303.02 245.527 302.309 244.595 301.416 243.859C298.479 241.766 295.787 239.351 293.391 236.659C292.92 235.986 292.245 235.481 291.465 235.219L288.737 234.099V237.459C288.737 237.705 288.874 238.088 289.021 238.5C289.352 239.426 289.736 240.499 288.737 240.499L284.564 242.739C279.897 237.183 278.999 237.366 277.643 237.642C277.32 237.708 276.971 237.779 276.538 237.779C276.677 238.262 276.965 238.687 277.248 239.103C277.62 239.65 277.983 240.182 277.983 240.819C278.37 241.645 278.571 242.546 278.571 243.459C278.571 244.371 278.37 245.272 277.983 246.099C276.669 247.098 275.061 247.639 273.408 247.639C271.756 247.639 270.148 247.098 268.834 246.099L267.229 244.179C267.96 250.103 269.754 255.848 272.526 261.138H274.773C276.048 260.273 277.458 259.624 278.946 259.218C279.841 258.843 280.847 258.834 281.749 259.194C282.65 259.553 283.373 260.252 283.761 261.138L284.885 264.498H286.65C287.325 264.029 287.831 263.356 288.095 262.578C288.744 261.287 289.082 259.863 289.082 258.418C289.082 256.974 288.744 255.55 288.095 254.258H290.021L294.515 256.498C296.441 257.618 297.885 257.618 297.885 255.378Z" fill="white"/>
<path fill-rule="evenodd" clip-rule="evenodd" d="M255.992 97.34C255.729 97.2187 255.464 97.1031 255.195 96.9933C252.965 96.0941 250.539 95.7982 248.16 96.1351C245.78 96.4721 243.531 97.4301 241.636 98.9133H242.753C243.767 98.8811 244.762 99.1963 245.574 99.807C246.386 100.418 246.966 101.288 247.219 102.273V103.713H246.103C245.187 103.163 244.139 102.873 243.072 102.873C242.004 102.873 240.957 103.163 240.041 103.713C239.237 103.912 238.393 103.883 237.604 103.629C236.815 103.375 236.113 102.905 235.575 102.273H234.458C231.98 100.325 228.983 99.1561 225.844 98.9133C222.391 98.4493 218.895 99.3691 216.114 101.473C215.811 101.799 215.643 102.228 215.643 102.673C215.643 103.119 215.811 103.547 216.114 103.873C217.02 103.873 216.782 104.32 216.845 104.367C216.881 104.395 217.02 104.286 217.549 103.873C218.551 103.092 219.087 103.556 219.806 104.18C220.118 104.451 220.465 104.751 220.899 104.993C222.335 105.793 222.335 106.913 220.899 106.913L215.316 108.833C213.303 109.902 210.938 109.384 209.396 109.046C208.861 108.929 208.426 108.833 208.138 108.833H207.5C203.193 107.505 198.567 107.505 194.26 108.833C191.708 109.953 188.996 112.193 188.996 114.913C189.467 115.035 189.961 115.035 190.432 114.913C191.868 112.993 193.463 114.113 194.579 114.913C195.696 115.713 196.015 117.153 194.579 117.153L185.487 122.113C185.139 122.283 184.757 122.371 184.37 122.371C183.983 122.371 183.602 122.283 183.254 122.113C179.13 120.623 174.617 120.623 170.493 122.113C169.239 122.658 168.12 123.469 167.211 124.492C166.302 125.514 165.625 126.722 165.229 128.033V129.953H166.664C167.142 129.953 167.641 129.796 168.08 129.659C168.814 129.428 169.376 129.252 169.376 129.953C169.376 130.326 169.5 130.7 169.624 131.073C169.872 131.82 170.12 132.566 169.376 133.313C168.655 133.671 168.006 134.159 167.462 134.753L158.05 144.193C158.941 144.891 159.607 145.837 159.965 146.913C165.16 150.243 170.876 152.677 176.873 154.113C181.652 155.596 187.079 156.591 192.693 157.621C194.95 158.035 197.237 158.454 199.524 158.913C203.461 159.155 207.362 159.799 211.169 160.833C219.249 162.976 226.983 166.262 234.139 170.593C234.483 170.775 234.867 170.87 235.256 170.87C235.645 170.87 236.028 170.775 236.372 170.593C238.047 170.033 239.642 169.353 241.237 168.673C242.833 167.993 244.428 167.313 246.103 166.753C249.33 165.676 252.639 164.882 255.992 164.375V97.34ZM255.992 201.127C253.928 200.986 251.854 201.322 249.931 202.112H248.017C247.188 201.609 246.53 200.866 246.132 199.98C245.733 199.095 245.612 198.109 245.784 197.152C247.698 191.984 247.698 186.32 245.784 181.152C245.154 179.926 244.146 178.936 242.91 178.33C241.674 177.725 240.276 177.536 238.925 177.793C238.828 177.835 238.732 177.877 238.636 177.92C236.202 178.993 234.036 179.948 231.427 177.793C224.905 172.099 216.968 168.284 208.457 166.753C201.894 165.29 195.064 164.228 188.454 163.201C187.835 163.105 187.218 163.009 186.604 162.913C186.266 162.852 185.928 162.792 185.589 162.731C181.439 161.99 177.174 161.228 173.045 160.193C165.26 158.193 157.987 154.593 151.67 149.633C148.958 147.233 146.725 144.993 144.492 142.753L144.492 142.753L140.344 138.273C139.915 138.092 139.454 138 138.988 138C138.523 138 138.062 138.092 137.632 138.273V141.633C139.237 146.454 142.235 150.687 146.246 153.793C151.012 157.715 156.405 160.798 162.198 162.913C167.794 164.619 173.495 165.955 179.266 166.913L189.794 168.033C197.561 168.673 205.192 170.452 212.445 173.313C216.313 174.985 220.093 176.854 223.771 178.913V180.672C221.809 181.472 219.783 182.128 217.709 182.592C217.424 182.778 217.092 182.877 216.752 182.877C216.412 182.877 216.08 182.778 215.795 182.592C213.746 181.797 211.698 180.947 209.626 180.087C206.698 178.871 203.724 177.637 200.641 176.513C197.323 175.473 193.893 174.833 190.432 174.593L181.34 173.473C179.066 172.859 177.033 172.822 174.845 172.782C173.041 172.749 171.132 172.714 168.897 172.353C164.409 171.626 160.052 170.637 155.588 169.623C155.134 169.519 154.679 169.416 154.222 169.313C148.136 167.73 142.401 165.017 137.313 161.313C134.975 159.599 132.739 157.529 130.489 155.448C128.748 153.837 127 152.219 125.19 150.753L122.638 149.313H120.724V151.233C121.24 153.081 121.99 154.856 122.957 156.513C127.104 162.913 132.528 168.353 138.909 172.513C145.085 176.418 151.804 179.384 158.848 181.312C164.685 183.43 170.726 184.931 176.873 185.792C181.276 186.331 185.576 187.517 189.634 189.312C192.963 190.386 196.381 191.903 199.755 193.402C200.908 193.914 202.056 194.423 203.193 194.912C204.943 195.875 206.598 197 208.138 198.272C205.755 200.32 202.906 201.749 199.843 202.432L191.23 204.032C190.246 204.211 189.334 204.668 188.599 205.348C187.865 206.028 187.339 206.903 187.082 207.872C192.262 208.072 197.378 209.098 202.236 210.912C204.955 211.852 207.421 213.41 209.441 215.464C211.461 217.518 212.981 220.012 213.881 222.752L212.764 221.632C209.781 218.72 206.176 216.544 202.236 215.232C197.954 213.707 193.279 213.707 188.996 215.232C187.61 216.226 186.038 217.589 184.702 218.749C183.887 219.456 183.16 220.088 182.616 220.512C181.18 221.632 181.499 222.432 182.616 223.552C186.029 227.071 190.166 229.801 194.739 231.552H192.825C191.188 232.018 189.718 232.943 188.588 234.219C187.457 235.494 186.714 237.067 186.444 238.752C186.482 239.391 186.482 240.032 186.444 240.672H188.358C188.714 240.672 189.086 240.558 189.475 240.439C190.305 240.185 191.209 239.909 192.187 240.672C194.155 241.623 195.856 243.053 197.132 244.832C197.313 245.177 197.408 245.562 197.408 245.952C197.408 246.342 197.313 246.727 197.132 247.072C196.334 249.04 195.68 251.072 195.217 253.152C194.101 253.472 194.42 255.392 195.217 255.392C195.924 255.011 196.569 254.526 197.132 253.952L198.248 256.192C198.885 258.143 199.916 259.94 201.279 261.472C203.174 263.355 205.616 264.587 208.253 264.989C210.89 265.392 213.587 264.944 215.954 263.712C218.861 262.066 221.635 260.193 224.249 258.112C225.044 257.268 226.126 256.755 227.28 256.672C228.763 256.488 230.263 256.488 231.746 256.672C232.065 256.709 232.367 256.833 232.62 257.031C232.873 257.228 233.068 257.491 233.182 257.792C233.413 258.721 233.402 259.695 233.151 260.62C232.9 261.544 232.416 262.388 231.746 263.072C230.165 264.24 228.672 265.523 227.28 266.912C229.691 267.85 232.366 267.85 234.777 266.912C237.72 265.732 240.304 263.802 242.274 261.312C242.798 260.698 243.195 259.986 243.442 259.217C243.688 258.447 243.779 257.637 243.71 256.832C242.434 253.12 241.413 249.312 240.679 245.472C240.36 242.432 239.244 240.512 236.213 240.512C236.368 241.25 236.368 242.013 236.213 242.752C235.713 243.396 235.501 243.752 235.219 243.82C234.871 243.904 234.417 243.548 233.182 242.752L226.801 238.272C225.429 237.386 224.32 236.146 223.591 234.682C222.861 233.218 222.537 231.584 222.654 229.952C222.654 229.146 222.973 228.373 223.542 227.802C224.11 227.232 224.881 226.912 225.685 226.912C226.968 227.616 228.033 228.659 228.764 229.929C229.496 231.199 229.865 232.646 229.832 234.112C229.983 234.851 229.983 235.613 229.832 236.352L233.182 234.112L240.36 236.032C242.753 236.224 245.146 236.224 247.538 236.032C247.35 237.787 247.35 239.557 247.538 241.312C248.783 248.49 251.209 255.411 254.717 261.792C255.136 262.612 255.563 263.435 255.992 264.261V201.127ZM255.992 298.831C254.896 298.783 253.815 298.539 252.802 298.111C249.421 295.807 246.661 292.671 244.827 288.991C242.593 285.951 239.244 280.831 238.446 279.551C238.139 278.711 237.569 277.992 236.822 277.502C236.075 277.012 235.19 276.777 234.299 276.832V279.072C235.034 281.428 235.94 283.728 237.01 285.951C238.924 288.991 241.157 292.031 243.39 295.071L243.391 295.071C245.964 298.514 249.156 301.444 252.802 303.711C253.788 304.461 254.861 305.076 255.992 305.545V298.831ZM255.992 314.991C251.366 313.286 247.122 310.653 243.55 307.231C238.813 302.463 234.729 297.087 231.427 291.231C228.843 286.207 227.057 280.816 226.163 275.232C225.977 274.579 225.737 274.687 225.285 274.891C224.961 275.037 224.529 275.232 223.93 275.232C219.942 277.632 215.284 278.592 210.69 277.952C207.748 277.49 204.993 276.211 202.738 274.26C200.482 272.309 198.817 269.763 197.929 266.912C197.667 266.134 197.164 265.461 196.493 264.992C195.935 264.432 195.257 263.952 194.579 263.472C193.901 262.992 193.223 262.512 192.665 261.952C190.78 259.479 189.82 256.422 189.953 253.312C189.252 253.53 188.513 253.603 187.783 253.527C187.052 253.45 186.345 253.225 185.703 252.866C185.062 252.507 184.5 252.021 184.051 251.438C183.603 250.854 183.277 250.185 183.094 249.472C181.888 247.41 181.253 245.062 181.253 242.672C181.253 240.281 181.888 237.934 183.094 235.872C183.254 235.392 183.254 234.912 183.094 234.432C180.382 231.392 175.118 226.112 175.118 226.112V224.672C177.506 220.503 180.58 216.771 184.211 213.632C184.485 213.232 184.632 212.758 184.632 212.272C184.632 211.787 184.485 211.312 184.211 210.912C183.721 209.946 183.465 208.877 183.465 207.792C183.465 206.708 183.721 205.639 184.211 204.672C185.231 202.739 186.52 200.961 188.039 199.392L182.456 197.952L166.505 194.592C165.42 194.214 164.24 194.214 163.155 194.592C158.491 197.767 154.301 201.592 150.713 205.952C149.508 207.544 148.389 209.199 147.363 210.912V212.032L149.277 210.912L151.989 208.032C150.479 209.968 149.093 211.999 147.841 214.112C147.025 215.708 146.185 217.315 145.34 218.93C143.051 223.309 140.73 227.751 138.749 232.192C136.929 235.292 135.991 238.834 136.037 242.432V244.352L137.473 242.912C138.06 242.124 138.542 241.264 138.909 240.352C137.834 243.066 136.928 245.845 136.197 248.672C133.792 256.382 132.66 264.435 132.847 272.512C133.11 275.953 134.147 279.289 135.878 282.271C136.197 283.711 138.111 284.511 138.111 283.711V274.912C139.303 277.996 140.315 281.148 141.142 284.351C141.823 287.086 142.303 289.867 142.577 292.671C142.96 294.59 143.305 296.528 143.652 298.472C144.316 302.2 144.984 305.95 145.927 309.631C146.951 311.978 148.352 314.14 150.075 316.031H153.105V313.311L151.989 311.071C151.224 309.117 151.224 306.945 151.989 304.991L162.198 316.351C162.272 316.528 162.311 316.719 162.311 316.911C162.311 317.104 162.272 317.294 162.198 317.471C162.586 322.759 163.995 327.921 166.345 332.671C167.317 335.082 168.997 337.139 171.163 338.568C173.328 339.997 175.877 340.73 178.468 340.671H180.382C179.494 340.176 179.461 340.048 179.376 339.72C179.323 339.517 179.251 339.239 178.947 338.751C178.548 338.111 178.07 337.751 177.591 337.391C177.112 337.031 176.634 336.671 176.235 336.031C175.438 334.751 177.033 333.311 178.149 333.311C179.601 333.562 181.001 334.048 182.297 334.751C189.697 340.147 197.667 344.708 206.064 348.351L217.071 352.831L220.899 354.271C219.668 357.743 218.4 361.141 217.167 364.447C215.843 367.995 214.558 371.437 213.402 374.751C212.845 373.578 212.308 372.346 211.763 371.097C210.746 368.768 209.703 366.378 208.457 364.191L206.224 359.711C205.762 358.723 205.073 357.86 204.213 357.193C203.353 356.525 202.348 356.072 201.279 355.871C198.093 356.053 194.926 355.273 192.187 353.631C189.156 353.311 184.689 354.431 183.573 357.471C185.171 356.931 186.883 356.824 188.536 357.161C190.189 357.498 191.723 358.267 192.984 359.391C191.07 363.551 192.187 366.271 196.015 367.391C197.255 367.729 198.356 368.453 199.159 369.46C199.962 370.466 200.425 371.703 200.481 372.991C201.43 375.766 201.81 378.704 201.598 381.631C200.402 381.328 199.284 380.772 198.321 379.999C197.358 379.226 196.571 378.255 196.015 377.151C193.574 372.895 189.906 369.503 185.487 367.391C182.456 365.791 179.106 365.151 176.873 368.511H175.438C173.795 368.319 172.135 368.319 170.493 368.511C166.824 369.151 165.229 372.671 164.112 376.031C166.337 374.561 168.945 373.782 171.609 373.791C171.99 373.791 172.355 373.942 172.624 374.212C172.894 374.482 173.045 374.849 173.045 375.231C173.202 376.181 173.724 377.032 174.5 377.6C175.275 378.168 176.242 378.409 177.192 378.271L185.806 381.631C187.489 382.237 189.026 383.191 190.317 384.431C191.609 385.672 192.626 387.17 193.303 388.83H191.07C188.039 388.638 185.008 388.638 181.978 388.83C177.938 389.122 174.039 390.443 170.652 392.67C167.58 394.011 165.129 396.469 163.793 399.55C163.428 400.64 163.428 401.82 163.793 402.91V405.15C163.598 406.423 163.598 407.718 163.793 408.99C164.287 411.304 165.453 413.419 167.143 415.07C166.624 411.538 167.298 407.934 169.057 404.83C173.523 407.07 175.118 406.75 178.468 402.91L180.701 400.03C181.938 399.293 183.31 398.814 184.735 398.622C186.16 398.43 187.61 398.528 188.996 398.91L200.322 400.35C200.433 400.715 200.433 401.105 200.322 401.47C198.169 404.69 195.47 407.507 192.346 409.79C190.315 411.136 188.85 413.186 188.232 415.548C187.614 417.91 187.886 420.417 188.996 422.59C189.191 423.486 189.191 424.414 188.996 425.31C188.756 426.172 188.689 427.073 188.801 427.96C188.912 428.848 189.199 429.704 189.645 430.479C190.091 431.254 190.686 431.932 191.396 432.473C192.107 433.014 192.918 433.408 193.782 433.63V427.55C195.539 428.178 197.471 428.094 199.168 427.318C200.865 426.541 202.195 425.133 202.874 423.39C204.127 420.855 205.038 418.165 205.586 415.39C206.252 412.97 207.44 410.727 209.066 408.819C210.693 406.912 212.718 405.386 214.997 404.35C218.36 403.582 221.317 401.586 223.292 398.75L224.409 400.19C225.442 402.2 227.028 403.871 228.979 405.005C230.929 406.139 233.163 406.689 235.415 406.59C235.796 406.59 236.161 406.742 236.43 407.012C236.7 407.282 236.851 407.648 236.851 408.03L237.967 415.71C238.261 415.298 238.707 414.885 239.152 414.472C239.916 413.765 240.679 413.058 240.679 412.35C241.655 410.646 242.284 408.764 242.53 406.814C242.776 404.865 242.635 402.885 242.115 400.99C241.929 400.705 241.831 400.371 241.831 400.03C241.831 399.689 241.929 399.356 242.115 399.07C242.763 398.19 243.112 397.125 243.112 396.03C243.112 394.936 242.763 393.871 242.115 392.99C240.544 389.7 237.898 387.046 234.618 385.47L228.556 382.75L230.789 381.631L237.648 378.271C237.92 378.271 238.174 378.14 238.422 378.013C238.9 377.767 239.356 377.533 239.882 378.271C240.059 378.519 240.252 378.768 240.445 379.017C241.12 379.888 241.796 380.759 241.796 381.631C241.553 383.049 241.179 384.442 240.679 385.79H242.593C244.486 384.951 246.136 383.645 247.391 381.995C248.646 380.345 249.465 378.403 249.772 376.351C250.091 374.111 251.367 372.191 252.802 372.191C253.287 372.191 253.79 372.063 254.286 371.937C254.878 371.787 255.46 371.639 255.992 371.712V314.991ZM226.004 213.952C223.882 212.192 221.856 210.32 219.942 208.352L221.697 206.432C224.413 207.166 227.275 207.166 229.992 206.432L232.703 205.312C234.063 204.953 235.492 204.953 236.851 205.312C237.52 205.64 238.109 206.111 238.578 206.691C239.046 207.272 239.382 207.948 239.563 208.672V209.792C237.632 211.307 235.608 212.696 233.501 213.952C232.421 214.77 231.105 215.212 229.752 215.212C228.399 215.212 227.083 214.77 226.004 213.952ZM80.5389 267.391C77.726 266.601 75.1834 265.052 73.1883 262.912C73.6175 263.977 73.7283 265.144 73.5074 266.272C74.2095 268.626 75.6067 270.713 77.5146 272.255C79.4225 273.797 81.7516 274.724 84.1949 274.912C87.2137 275.293 90.2684 275.293 93.2872 274.912C96.3351 274.666 99.3105 273.852 102.061 272.512C106.742 270.018 110.45 266.016 112.589 261.152C113.06 260.048 113.549 258.978 114.033 257.92C115.021 255.759 115.986 253.648 116.736 251.392L121.202 238.592C123.117 232.992 125.35 226.592 127.583 221.632C129.477 217.426 131.6 213.565 133.856 209.463C134.26 208.728 134.668 207.986 135.08 207.232C138.554 200.786 142.843 194.817 147.841 189.472L150.075 187.552L144.811 185.312L136.516 180.832C136.244 180.832 135.898 180.702 135.559 180.575C134.906 180.329 134.283 180.095 134.283 180.832C131.669 184.971 129.273 189.243 127.104 193.632C125.181 197.767 123.626 202.007 122.076 206.231C120.927 209.363 119.781 212.487 118.491 215.552C117.329 218.661 115.536 221.494 113.227 223.872C111.128 225.874 108.596 227.363 105.829 228.224C103.063 229.084 100.135 229.292 97.2751 228.832C94.6494 228.325 92.1195 227.407 89.7779 226.112C88.6 225.453 87.5862 224.534 86.8127 223.426C86.0391 222.318 85.5259 221.048 85.3115 219.712C83.5113 221.092 82.0664 222.883 81.0974 224.937C80.1285 226.991 79.6636 229.248 79.7417 231.518C79.8198 233.789 80.4385 236.009 81.5462 237.991C82.6539 239.973 84.2184 241.66 86.1091 242.912C93.0799 247.712 102.268 247.712 109.239 242.912C110.755 241.437 112.353 240.048 114.024 238.752C111.892 243.13 108.367 246.671 104.005 248.815C99.643 250.959 94.6932 251.584 89.9374 250.592H87.7042C82.4174 248.935 78.0027 245.24 75.4304 240.32C72.8581 235.4 72.3385 229.656 73.9859 224.352C70.2934 226.774 67.4671 230.314 65.918 234.457C64.3689 238.601 64.1777 243.132 65.3721 247.392C66.0085 250.299 67.246 253.04 69.0045 255.438C70.763 257.836 73.0034 259.837 75.5811 261.312C81.0306 264.144 87.3073 264.938 93.2872 263.552C92.9359 264.468 92.379 265.291 91.6599 265.957C90.9407 266.622 90.0785 267.113 89.1399 267.392C86.3269 268.181 83.3518 268.181 80.5389 267.391ZM99.0298 222.432C102.584 222.068 106.161 222.852 109.239 224.672C110.515 220.288 109.271 215.552 106.048 212.352C105.091 211.488 103.919 210.899 102.656 210.645C101.393 210.392 100.086 210.484 98.8703 210.912C98.0208 211.298 97.3073 211.932 96.8234 212.731C96.3395 213.531 96.1077 214.458 96.1585 215.392C96.1585 216.512 95.68 217.312 94.2443 216.512C93.6993 216.208 93.1772 215.743 92.6606 215.283C91.8167 214.531 90.9875 213.792 90.0969 213.792C89.6877 214.643 89.4818 215.577 89.4953 216.522C89.5089 217.466 89.7416 218.394 90.1751 219.233C90.6085 220.071 91.2308 220.797 91.9925 221.352C92.7542 221.908 93.6344 222.277 94.5634 222.432C96.0465 222.616 97.5466 222.616 99.0298 222.432Z" fill="#E6EAEA"/>
</svg>
