<svg width="512" height="512" viewBox="0 0 512 512" fill="none" xmlns="http://www.w3.org/2000/svg">
<path d="M256 0V512C114.615 512 0 397.385 0 256C0 114.615 114.615 0 256 0Z" fill="#FF8C29"/>
<path d="M256 512V0C397.385 0 512 114.615 512 256C512 397.385 397.385 512 256 512Z" fill="#FFD1A9"/>
<path fill-rule="evenodd" clip-rule="evenodd" d="M256 392L416 210.368L365.776 143.392L315.472 120H256V125.232H314.352L358.72 145.872L311.104 167.728H256V172.96H308.512L331.328 248.48L256 381.622L256 392ZM256 295.183C256.272 295.184 256.544 295.184 256.816 295.184V313.536H267.888V294.928C286.512 293.84 299.552 289.104 301.152 271.408C302.464 257.136 295.84 250.768 285.264 248.208C291.696 244.896 295.712 239.056 294.768 229.344C293.504 216.064 282.192 211.616 267.888 210.336V191.92L256.816 191.936V209.856C256.545 209.856 256.273 209.857 256 209.858V223.058C264.019 223.229 274.128 224.872 274.128 234.352C274.128 243.442 264.019 245.254 256 245.552V256.731C265.809 256.772 279.28 258.193 279.28 269.184C279.28 279.715 265.809 281.382 256 281.569V295.183ZM362.592 149.84L361.36 147.104L362.432 147.6L409.296 210.096L409.008 210.448L408.048 208.544L335.712 245.072L313.728 172.272L362.592 149.84ZM336 250.784L403.488 216.688L268.72 369.712L336 250.784Z" fill="white"/>
<path fill-rule="evenodd" clip-rule="evenodd" d="M256 120H198.48L147.552 143.392L96 210.336L256 392L256 381.622L255.904 381.792L180.496 248.48L203.296 172.96H256V167.728H201.504L152.224 146.992L199.616 125.232H256V120ZM256 209.858C253.349 209.868 250.654 209.926 247.984 209.984V191.92H236.896V210.336L236.704 210.34C234.372 210.387 232.099 210.432 229.856 210.432V210.368H214.592V222.336C214.592 222.336 222.768 222.176 222.624 222.336C227.12 222.352 228.576 224.976 228.992 227.264V248.24C229.388 248.24 229.784 248.267 230.176 248.32H228.992V277.712C228.8 279.136 227.968 281.424 224.832 281.424C224.976 281.552 216.784 281.424 216.784 281.424L214.592 294.816H228.992C230.623 294.816 232.236 294.834 233.831 294.851C234.865 294.862 235.892 294.874 236.912 294.88V313.536H247.968V295.088C250.721 295.146 253.383 295.178 256 295.183V281.569C253.895 281.609 251.959 281.581 250.36 281.558C249.562 281.546 248.848 281.536 248.24 281.536V256.848C248.994 256.848 249.91 256.826 250.948 256.801C252.424 256.765 254.147 256.723 256 256.731V245.552C253.767 245.635 251.695 245.601 250.05 245.573C249.367 245.562 248.757 245.552 248.24 245.552V223.152C248.872 223.152 249.641 223.131 250.513 223.108C252.076 223.066 253.971 223.015 256 223.058V209.858ZM103.888 208.608L148.256 150.992L198.192 172L176.112 245.088L103.888 208.608ZM175.824 250.784L242.736 369.072L108.688 216.88L175.824 250.784ZM103.424 209.216L102.896 210.288L102.736 210.112L103.424 209.216Z" fill="#E6EAEA"/>
</svg>
