<?xml version="1.0" encoding="UTF-8" standalone="no"?>
<svg
   viewBox="0 0 512 512"
   version="1.1"
   id="svg6183"
   width="512"
   height="512"
   xmlns="http://www.w3.org/2000/svg"
   xmlns:svg="http://www.w3.org/2000/svg">
  <defs
     id="defs6187" />
  <g
     fill="none"
     fill-rule="evenodd"
     id="g6181"
     transform="scale(16)">
    <circle
       cx="16"
       cy="16"
       r="16"
       fill="#eba809"
       fill-rule="nonzero"
       id="circle6177" />
    <path
       fill="#ffffff"
       d="M 16,27 C 9.925,27 5,22.075 5,16 5,9.925 9.925,5 16,5 22.075,5 27,9.925 27,16 27,22.075 22.075,27 16,27 Z M 15.012,6.74 c 0.002,0.875 0.002,1.75 0.002,2.625 l 1.31,0.002 c 0.003,-0.897 0.005,-1.795 0,-2.692 -0.437,0.015 -0.876,0.036 -1.312,0.065 z m 3.152,2.667 c 1.152,0.155 2.39,0.331 3.307,1.108 1.401,1.257 1.22,3.896 -0.495,4.807 1.027,0.24 2.044,0.923 2.297,2.002 0.33,1.414 0.068,3.11 -1.069,4.106 -1.126,0.925 -2.65,1.047 -4.043,1.18 0.006,0.818 0.004,1.636 0.002,2.456 2.93,-0.715 5.46,-2.895 6.535,-5.715 1.02,-2.602 0.78,-5.663 -0.662,-8.06 -1.273,-2.16 -3.437,-3.75 -5.867,-4.358 -0.006,0.825 -0.006,1.65 -0.004,2.474 z M 9.418,9.372 c 1.27,0.06 2.54,0.048 3.81,0.046 0,-0.772 0.003,-1.544 -0.004,-2.316 -1.422,0.461 -2.688,1.288 -3.807,2.27 z m -1.482,1.99 c -1.493,2.54 -1.661,5.799 -0.416,8.472 1.075,2.396 3.208,4.26 5.705,5.063 0.005,-0.77 0.003,-1.542 0.003,-2.312 -1.275,-0.013 -2.553,0.034 -3.825,-0.035 0.014,-0.71 0.18,-1.404 0.423,-2.071 0.624,-0.013 1.275,0.096 1.878,-0.107 0.352,-0.296 0.252,-0.785 0.27,-1.19 -0.018,-2.314 0.01,-4.629 -0.012,-6.943 0.023,-0.373 -0.211,-0.776 -0.6,-0.85 C 10.722,11.262 10.065,11.312 9.418,11.308 9.342,10.788 9.334,10.261 9.325,9.734 A 0.388,0.388 0 0 0 9.254,9.426 C 8.888,10.12 8.306,10.669 7.936,11.361 Z m 7.13,0.101 v 3.412 c 1.141,-0.02 2.406,0.106 3.404,-0.556 0.828,-0.541 0.775,-1.914 -0.08,-2.4 -0.998,-0.592 -2.216,-0.424 -3.323,-0.456 z m 0,5.248 v 3.785 c 1.408,-0.114 2.988,0.123 4.213,-0.726 0.876,-0.581 0.771,-2.019 -0.132,-2.522 -1.227,-0.733 -2.718,-0.5 -4.08,-0.537 z m -0.051,5.925 c 0,0.875 -0.002,1.75 -0.005,2.627 0.456,0.03 0.912,0.048 1.368,0.06 0.004,-0.895 0.002,-1.791 0.002,-2.687 z"
       id="path6179" />
  </g>
</svg>
