<svg width="512" height="512" viewBox="0 0 512 512" fill="none" xmlns="http://www.w3.org/2000/svg">
<path d="M256 0V512C114.615 512 0 397.385 0 256C0 114.615 114.615 0 256 0Z" fill="#365558"/>
<path d="M256 512V0C397.385 0 512 114.615 512 256C512 397.385 397.385 512 256 512Z" fill="#0295AA"/>
<path fill-rule="evenodd" clip-rule="evenodd" d="M255.965 419.779H259.099H263.941C264.782 419.779 265.606 419.779 266.448 419.555H266.671C267.512 419.555 268.13 419.555 268.972 419.349H269.607C270.242 419.349 270.877 419.349 271.495 419.143H272.131C272.426 419.143 272.721 419.099 273.038 419.051C273.401 418.996 273.792 418.937 274.243 418.937H274.655C275.075 418.937 275.496 418.882 275.917 418.826C276.337 418.77 276.758 418.714 277.179 418.714C277.878 418.714 278.435 418.572 279.085 418.406C279.218 418.372 279.354 418.337 279.497 418.302H279.909C280.228 418.302 280.548 418.25 280.866 418.198C281.179 418.147 281.49 418.096 281.797 418.096H282.227C282.667 417.979 283.051 417.923 283.437 417.867C283.789 417.816 284.143 417.765 284.544 417.667C286.21 417.461 287.893 417.031 289.369 416.619H289.798C290.098 416.519 290.451 416.468 290.806 416.416C291.184 416.361 291.566 416.305 291.893 416.19H292.099C292.94 415.984 293.73 415.774 294.52 415.563C295.31 415.353 296.1 415.143 296.941 414.937C283.2 415.372 269.46 414.299 255.965 411.741V419.779ZM255.965 158.036C257.705 157.923 259.448 157.846 261.194 157.804H266.036V129.852H260.576C259.038 129.88 257.5 129.93 255.965 130.004V158.036Z" fill="white"/>
<path fill-rule="evenodd" clip-rule="evenodd" d="M255.965 406.089C260.304 406.895 264.719 407.598 269.177 408.224C281.797 409.89 298.623 410.319 308.496 410.319C316.64 407.334 320.277 405.851 324.564 404.103C324.814 404.001 325.067 403.899 325.322 403.795C329.322 401.906 333.306 400.017 337.306 397.699C341.139 395.479 341.883 394.992 347.84 391.09L348.656 390.557C349.254 390.185 349.817 389.76 350.338 389.286C327.977 393.154 321.731 393.074 306.522 392.878C306 392.871 305.468 392.864 304.924 392.857C294.555 392.487 284.225 391.362 274.019 389.492C267.861 388.386 261.826 386.902 255.965 385.054V406.089ZM255.965 194.055C259.162 193.715 262.381 193.546 265.606 193.552C278.02 193.552 290.416 196.076 301.782 200.695L313.544 175.678C310.006 174.26 306.434 172.932 302.83 171.695C290.784 167.914 278.231 165.998 265.606 166.012C262.384 166.018 259.168 166.156 255.965 166.425V194.055Z" fill="white"/>
<path fill-rule="evenodd" clip-rule="evenodd" d="M255.965 379.016C257.493 379.596 259.03 380.146 260.575 380.666C279.702 386.968 307.877 389.286 335.211 387.397C342.766 386.762 348.449 386.126 358.116 384.032C367.444 376.67 375.911 368.278 383.355 359.015C381.838 359.163 380.025 359.344 378.033 359.543C371.461 360.2 362.941 361.052 356.656 361.539C356.362 361.558 356.061 361.577 355.756 361.596C349.293 362.006 340.403 362.57 330.37 362.57C311.655 362.57 288.733 360.904 269.194 354.38C264.718 352.89 260.28 351.056 255.965 348.909V379.016ZM255.965 230.115C259.887 229.285 263.895 228.866 267.924 228.869C289.575 228.869 308.289 240.854 318.179 258.298L343.195 245.902C339.273 238.517 334.234 231.781 328.258 225.933C320.338 218 310.932 211.707 300.578 207.413C290.224 203.118 279.124 200.908 267.915 200.908C263.908 200.908 259.915 201.191 255.965 201.75V230.115Z" fill="white"/>
<path fill-rule="evenodd" clip-rule="evenodd" d="M255.965 460.995C283.266 460.964 310.283 455.455 335.418 444.795C347.609 439.747 359.164 433.223 370.307 425.874C381.185 418.53 391.328 410.153 400.594 400.858C409.889 391.592 418.267 381.449 425.611 370.571C432.959 359.651 439.278 347.872 444.532 335.682C460.706 297.535 464.886 255.37 456.516 214.79C453.8 201.6 449.786 188.712 444.532 176.313C439.353 164.1 433.017 152.412 425.611 141.407C418.266 130.535 409.889 120.398 400.594 111.137C391.328 101.842 381.185 93.4641 370.307 86.1206C359.286 78.751 347.607 72.417 335.418 67.1996C310.283 56.5392 283.266 51.0309 255.965 51V77.0722C354.757 77.095 435.054 157.406 435.054 256.203C435.054 355.001 354.774 435.312 255.965 435.335V460.995Z" fill="white"/>
<path fill-rule="evenodd" clip-rule="evenodd" d="M255.96 130.002C247.212 130.475 238.514 131.669 229.957 133.573C219.474 135.93 209.27 139.383 199.517 143.874C189.571 148.51 180.265 154.176 171.597 160.701C162.64 167.471 154.485 175.23 147.286 183.828C140.509 191.786 134.626 200.457 129.744 209.686C124.914 218.583 121.014 227.949 118.106 237.638C115.254 247.177 113.346 256.97 112.408 266.878L111.77 276.115V281.575C111.977 292.306 113.254 302.814 115.568 313.116C117.899 323.641 121.49 333.719 125.928 343.403C131.229 354.958 140.742 371.991 154.901 384.816C183.701 407.393 219.295 419.685 255.96 419.722V411.478C254.339 411.162 252.722 410.826 251.109 410.468C227.834 405.42 205.646 396.389 186.826 380.816C171.989 368.537 160.082 353.133 151.965 335.717C143.849 318.302 139.727 299.31 139.896 280.116C140.049 251.48 150.295 223.805 168.852 201.908C191.502 175.238 223.117 160.44 255.96 158.053V130.002Z" fill="#E6EAEA"/>
<path fill-rule="evenodd" clip-rule="evenodd" d="M255.964 166.455C246.684 167.255 237.52 169.152 228.664 172.115C213.355 177.164 199.256 185.325 187.251 196.084C181.462 201.241 176.183 206.945 171.489 213.116C166.849 219.217 162.834 225.768 159.505 232.672C152.726 246.552 148.724 261.624 147.727 277.039C146.679 293.007 148.774 308.974 154.028 324.118C159.381 339.696 167.984 353.959 179.267 365.961C189.569 377.104 201.554 385.517 216.045 393.295C227.663 399.42 241.383 403.322 255.964 406.047V384.978C220.727 373.793 191.788 349.464 180.109 315.293C163.488 266.72 188.934 214.163 237.284 198.196C243.355 196.161 249.618 194.787 255.964 194.092V166.455Z" fill="#E6EAEA"/>
<path fill-rule="evenodd" clip-rule="evenodd" d="M256.226 201.76C249.126 202.765 242.165 204.664 235.512 207.423C225.158 211.717 215.752 218.01 207.833 225.943C199.902 233.862 193.611 243.267 189.318 253.62C185.026 263.973 182.816 275.07 182.816 286.278C182.872 298.023 185.387 309.627 190.199 320.342C194.595 330.009 200.707 339.057 208.485 347.47C221.096 361.031 237.989 372.107 256.226 379.026V348.919C231.342 336.535 210.58 313.729 210.58 286.484C210.573 278.917 212.058 271.423 214.951 264.431C217.843 257.439 222.086 251.087 227.437 245.736C232.787 240.386 239.14 236.143 246.132 233.25C249.401 231.898 252.78 230.853 256.226 230.124V201.76Z" fill="#E6EAEA"/>
<path fill-rule="evenodd" clip-rule="evenodd" d="M255.962 51.0098C228.763 51.1215 201.854 56.6269 176.808 67.2078C152.339 77.4883 130.114 92.4178 111.375 111.162C102.045 120.418 93.6339 130.549 86.2595 141.415C78.8599 152.442 72.5009 164.127 67.2638 176.321C56.531 201.527 51 228.626 51 256.005C51 283.385 56.531 310.484 67.2638 335.69C72.3316 347.88 78.8819 359.436 86.2595 370.579C93.6335 381.456 102.044 391.599 111.375 400.866C120.677 410.161 130.861 418.539 141.782 425.882C152.745 433.231 164.57 439.549 176.808 444.803C201.854 455.384 228.763 460.889 255.962 461.001V435.34C157.031 434.785 77.1753 354.68 77.1753 256.212C77.1753 157.744 157.252 77.6396 255.962 77.0832V51.0098Z" fill="#E6EAEA"/>
</svg>
