<?xml version="1.0" encoding="UTF-8" standalone="no"?>
<svg
   width="512"
   height="512"
   viewBox="0 0 512 512"
   version="1.1"
   id="svg7023"
   xmlns="http://www.w3.org/2000/svg"
   xmlns:svg="http://www.w3.org/2000/svg">
  <defs
     id="defs7027" />
  <g
     fill="none"
     id="g7021"
     transform="scale(16)">
    <circle
       cx="16"
       cy="16"
       r="16"
       fill="#000000"
       id="circle7009" />
    <g
       fill="#ffffff"
       id="g7019">
      <path
         d="M 27.743,13.539 A 11.886,11.886 0 0 0 27.045,11.298 12.102,12.102 0 0 0 25.943,9.265 11.864,11.864 0 0 0 24.486,7.502 11.864,11.864 0 0 0 22.722,6.045 12.518,12.518 0 0 0 20.69,4.943 a 11.886,11.886 0 0 0 -9.282,0 11.864,11.864 0 0 0 -3.796,2.56 11.864,11.864 0 0 0 -1.457,1.762 12.518,12.518 0 0 0 -1.102,2.033 11.886,11.886 0 0 0 0,9.282 c 0.294,0.71 0.674,1.383 1.102,2.032 a 11.88,11.88 0 0 0 1.457,1.764 11.864,11.864 0 0 0 1.764,1.457 c 0.636,0.428 1.322,0.796 2.032,1.102 a 11.886,11.886 0 0 0 9.282,0 c 0.71,-0.294 1.383,-0.674 2.032,-1.102 a 11.864,11.864 0 0 0 1.764,-1.457 11.864,11.864 0 0 0 1.457,-1.764 c 0.428,-0.636 0.796,-1.322 1.102,-2.032 a 11.886,11.886 0 0 0 0.698,-7.041 z M 16.06,26.384 c -5.767,0 -10.432,-4.678 -10.432,-10.433 0,-5.755 4.678,-10.433 10.432,-10.433 5.755,0 10.433,4.678 10.433,10.433 0,5.755 -4.677,10.433 -10.433,10.433 z"
         id="path7011" />
      <path
         d="m 16.245,25.478 h 0.282 c 0.049,0 0.097,0 0.146,-0.013 h 0.013 c 0.049,0 0.085,0 0.134,-0.012 h 0.037 c 0.037,0 0.074,0 0.11,-0.012 h 0.037 c 0.037,0 0.074,-0.012 0.123,-0.012 h 0.024 c 0.049,0 0.098,-0.013 0.147,-0.013 0.049,0 0.086,-0.012 0.135,-0.024 h 0.024 c 0.037,0 0.074,-0.012 0.11,-0.012 h 0.025 c 0.049,-0.013 0.086,-0.013 0.135,-0.025 0.097,-0.012 0.195,-0.037 0.281,-0.061 h 0.025 c 0.036,-0.012 0.085,-0.012 0.122,-0.025 h 0.012 c 0.098,-0.024 0.184,-0.049 0.282,-0.073 a 10.948,10.948 0 0 1 -2.73,-0.257 c -1.348,-0.294 -2.633,-0.82 -3.723,-1.727 a 7.544,7.544 0 0 1 -2.718,-5.865 7.127,7.127 0 0 1 1.677,-4.555 c 1.396,-1.653 3.38,-2.523 5.412,-2.572 h 0.282 V 8.592 h -0.318 a 9.186,9.186 0 0 0 -1.837,0.22 8.83,8.83 0 0 0 -1.763,0.6 c -0.576,0.27 -1.115,0.6 -1.617,0.98 a 8.618,8.618 0 0 0 -1.408,1.347 8.333,8.333 0 0 0 -1.016,1.506 8.61,8.61 0 0 0 -0.674,1.628 8.9,8.9 0 0 0 -0.33,1.703 l -0.037,0.538 v 0.318 c 0.012,0.625 0.086,1.237 0.22,1.837 0.135,0.613 0.343,1.2 0.6,1.764 0.307,0.673 0.858,1.665 1.678,2.412 a 9.47,9.47 0 0 0 5.877,2.033 z"
         id="path7013" />
      <path
         d="m 18.914,23.91 a 12.454,12.454 0 0 1 -1.8,-0.196 c -2.522,-0.453 -4.69,-1.996 -5.485,-4.322 -0.968,-2.829 0.514,-5.89 3.33,-6.82 a 5.21,5.21 0 0 1 1.665,-0.27 c 0.723,0 1.445,0.147 2.107,0.416 l 0.685,-1.457 a 13.136,13.136 0 0 0 -0.624,-0.232 7.213,7.213 0 0 0 -2.168,-0.331 6.87,6.87 0 0 0 -2.167,0.355 6.81,6.81 0 0 0 -2.412,1.396 7.02,7.02 0 0 0 -0.918,0.992 6.66,6.66 0 0 0 -0.698,1.139 6.904,6.904 0 0 0 -0.686,2.584 c -0.061,0.93 0.061,1.86 0.367,2.742 a 6.77,6.77 0 0 0 1.47,2.437 c 0.6,0.649 1.298,1.139 2.142,1.592 0.882,0.465 1.972,0.71 3.11,0.87 0.735,0.097 1.715,0.122 2.29,0.122 0.502,-0.184 0.71,-0.27 0.98,-0.38 0.233,-0.11 0.465,-0.22 0.698,-0.355 0.233,-0.135 0.27,-0.16 0.661,-0.416 a 0.68,0.68 0 0 0 0.098,-0.074 c -1.347,0.233 -1.69,0.22 -2.645,0.208 z"
         id="path7015" />
      <path
         d="m 21.927,22.086 c -0.38,0.024 -0.919,0.06 -1.531,0.06 -1.09,0 -2.425,-0.097 -3.563,-0.477 -1.764,-0.587 -3.429,-2.093 -3.429,-3.955 a 3.352,3.352 0 0 1 3.355,-3.355 c 1.261,0 2.351,0.698 2.927,1.714 l 1.457,-0.722 a 4.734,4.734 0 0 0 -0.87,-1.163 4.966,4.966 0 0 0 -7.029,0 4.966,4.966 0 0 0 -1.457,3.514 4.9,4.9 0 0 0 0.43,1.984 c 0.256,0.563 0.612,1.09 1.065,1.58 0.796,0.856 1.885,1.542 3.049,1.934 1.114,0.367 2.755,0.502 4.347,0.392 0.44,-0.037 0.771,-0.074 1.334,-0.196 a 9.188,9.188 0 0 0 1.47,-1.457 c -0.38,0.037 -1.078,0.11 -1.555,0.147 z"
         id="path7017" />
    </g>
  </g>
</svg>
