<svg width="512" height="512" viewBox="0 0 512 512" fill="none" xmlns="http://www.w3.org/2000/svg">
<g clip-path="url(#clip0_3_1432)">
<path d="M256 512C397.385 512 512 397.385 512 256C512 114.615 397.385 0 256 0C114.615 0 0 114.615 0 256C0 397.385 114.615 512 256 512Z" fill="black"/>
<path fill-rule="evenodd" clip-rule="evenodd" d="M255.951 460.524H259.864H265.91C266.961 460.524 267.99 460.524 269.04 460.245H269.319C270.37 460.245 271.142 460.245 272.192 459.988H272.986C273.779 459.988 274.572 459.988 275.344 459.731H276.137C276.506 459.731 276.875 459.675 277.27 459.616C277.724 459.547 278.213 459.473 278.775 459.473H279.289C279.815 459.473 280.34 459.404 280.865 459.334C281.391 459.264 281.916 459.195 282.441 459.195C283.314 459.195 284.009 459.017 284.822 458.809C284.988 458.767 285.158 458.724 285.336 458.68H285.85C286.25 458.68 286.649 458.615 287.046 458.55C287.437 458.486 287.826 458.423 288.209 458.423H288.745C289.295 458.277 289.774 458.207 290.256 458.137C290.696 458.074 291.139 458.009 291.639 457.887C293.719 457.629 295.82 457.093 297.664 456.579H298.2C298.575 456.454 299.015 456.39 299.459 456.325C299.931 456.256 300.408 456.186 300.816 456.043H301.074C302.124 455.785 303.11 455.523 304.097 455.26C305.083 454.998 306.069 454.735 307.12 454.478C289.962 455.022 272.803 453.682 255.951 450.486V460.524ZM255.951 133.665C258.124 133.524 260.3 133.427 262.479 133.375H268.526V98.4688H261.708C259.787 98.5039 257.868 98.5672 255.951 98.6584V133.665Z" fill="white"/>
<path fill-rule="evenodd" clip-rule="evenodd" d="M255.951 443.427C261.37 444.434 266.884 445.311 272.451 446.094C288.21 448.174 309.223 448.71 321.551 448.71C331.721 444.982 336.263 443.13 341.617 440.948C341.929 440.821 342.244 440.692 342.564 440.562C347.559 438.204 352.534 435.845 357.53 432.95C362.315 430.178 363.245 429.569 370.684 424.698L371.702 424.031C372.449 423.566 373.152 423.035 373.803 422.444C345.88 427.274 338.079 427.174 319.086 426.93C318.435 426.921 317.77 426.913 317.092 426.904C304.142 426.441 291.243 425.037 278.498 422.702C270.808 421.32 263.271 419.466 255.951 417.159V443.427ZM255.951 178.644C259.944 178.218 263.964 178.008 267.991 178.015C283.493 178.015 298.974 181.167 313.168 186.935L327.855 155.695C323.438 153.924 318.977 152.265 314.476 150.721C299.433 145.999 283.757 143.606 267.991 143.624C263.968 143.631 259.951 143.804 255.951 144.139V178.644Z" fill="white"/>
<path fill-rule="evenodd" clip-rule="evenodd" d="M255.951 409.62C257.859 410.344 259.778 411.031 261.707 411.681C285.593 419.55 320.778 422.444 354.912 420.086C364.346 419.292 371.443 418.499 383.515 415.883C395.164 406.69 405.737 396.211 415.033 384.644C413.138 384.828 410.873 385.054 408.386 385.303C400.179 386.123 389.54 387.187 381.692 387.795C381.324 387.819 380.949 387.842 380.568 387.867C372.498 388.378 361.395 389.082 348.866 389.082C325.495 389.082 296.871 387.002 272.471 378.855C266.882 376.995 261.339 374.705 255.951 372.023V409.62ZM255.951 223.675C260.849 222.639 265.854 222.115 270.884 222.12C297.922 222.12 321.292 237.086 333.642 258.87L364.882 243.389C359.984 234.167 353.692 225.756 346.228 218.453C336.339 208.547 324.593 200.687 311.663 195.325C298.732 189.963 284.872 187.202 270.873 187.202C265.87 187.202 260.884 187.555 255.951 188.253V223.675Z" fill="white"/>
<path fill-rule="evenodd" clip-rule="evenodd" d="M255.951 511.993C290.043 511.955 323.782 505.076 355.17 491.763C370.393 485.46 384.823 477.312 398.738 468.135C412.323 458.965 424.989 448.503 436.561 436.896C448.168 425.324 458.63 412.658 467.8 399.073C476.977 385.437 484.867 370.728 491.428 355.505C511.627 307.869 516.847 255.213 506.394 204.538C503.003 188.067 497.99 171.972 491.428 156.488C484.962 141.237 477.05 126.641 467.8 112.898C458.629 99.3215 448.167 86.6624 436.561 75.0976C424.989 63.4902 412.323 53.0284 398.738 43.8579C384.975 34.6549 370.39 26.7452 355.17 20.2297C323.782 6.91737 290.043 0.038733 255.951 0V32.5584C379.32 32.5875 479.593 132.878 479.593 256.254C479.593 379.63 379.342 479.92 255.951 479.949V511.993Z" fill="white"/>
<path fill-rule="evenodd" clip-rule="evenodd" d="M255.953 98.6531C245.028 99.2444 234.167 100.735 223.481 103.112C210.389 106.056 197.647 110.368 185.468 115.977C173.048 121.766 161.426 128.841 150.602 136.989C139.417 145.444 129.232 155.133 120.243 165.87C111.779 175.808 104.434 186.635 98.3365 198.161C92.3046 209.271 87.4349 220.968 83.8038 233.067C80.242 244.979 77.8589 257.208 76.6884 269.581L75.8906 281.116V287.935C76.1494 301.335 77.7449 314.457 80.6342 327.322C83.5451 340.466 88.0299 353.052 93.5713 365.144C100.191 379.574 112.071 400.844 129.752 416.86C165.718 445.054 210.166 460.404 255.953 460.45V450.154C253.929 449.761 251.909 449.34 249.894 448.893C220.829 442.59 193.122 431.312 169.62 411.865C151.091 396.531 136.222 377.295 126.086 355.547C115.951 333.798 110.803 310.082 111.015 286.112C111.205 250.353 124.001 215.793 147.174 188.448C175.459 155.143 214.939 136.663 255.953 133.683V98.6531Z" fill="#E6EAEA"/>
<path fill-rule="evenodd" clip-rule="evenodd" d="M255.952 144.176C244.363 145.175 232.919 147.544 221.861 151.244C202.744 157.549 185.136 167.74 170.145 181.175C162.916 187.616 156.324 194.739 150.462 202.445C144.668 210.063 139.654 218.245 135.496 226.867C127.03 244.2 122.034 263.021 120.788 282.27C119.48 302.211 122.096 322.151 128.657 341.062C135.342 360.516 146.085 378.327 160.175 393.314C173.04 407.229 188.006 417.736 206.102 427.448C220.61 435.097 237.743 439.97 255.952 443.373V417.062C211.948 403.095 175.811 372.714 161.226 330.041C140.471 269.384 172.247 203.753 232.625 183.813C240.206 181.272 248.027 179.556 255.952 178.688V144.176Z" fill="#E6EAEA"/>
<path fill-rule="evenodd" clip-rule="evenodd" d="M256.285 188.262C247.419 189.517 238.727 191.888 230.419 195.334C217.489 200.696 205.743 208.555 195.853 218.462C185.95 228.351 178.093 240.096 172.733 253.024C167.372 265.952 164.613 279.811 164.613 293.806C164.683 308.474 167.824 322.965 173.833 336.345C179.322 348.417 186.955 359.716 196.668 370.222C212.416 387.157 233.512 400.989 256.285 409.629V372.032C225.212 356.567 199.284 328.087 199.284 294.063C199.275 284.614 201.13 275.256 204.742 266.525C208.354 257.794 213.653 249.86 220.334 243.179C227.016 236.497 234.949 231.199 243.68 227.587C247.763 225.898 251.983 224.593 256.285 223.683V188.262Z" fill="#E6EAEA"/>
<path fill-rule="evenodd" clip-rule="evenodd" d="M255.954 0.0107422C221.987 0.150213 188.384 7.02518 157.107 20.2385C126.55 33.0767 98.7956 51.7202 75.3946 75.1278C63.7435 86.6858 53.2404 99.3377 44.0314 112.907C34.7909 126.677 26.8498 141.269 20.3099 156.497C6.90704 187.974 0 221.815 0 256.005C0 290.196 6.90704 324.037 20.3099 355.514C26.6385 370.737 34.8183 385.167 44.0314 399.082C53.2398 412.665 63.7429 425.331 75.3946 436.904C87.0119 448.512 99.7282 458.974 113.366 468.144C127.057 477.321 141.824 485.211 157.107 491.772C188.384 504.986 221.987 511.861 255.954 512V479.955C132.41 479.262 32.6872 379.228 32.6872 256.263C32.6872 133.298 132.686 33.2652 255.954 32.5708V0.0107422Z" fill="#E6EAEA"/>
</g>
<defs>
<clipPath id="clip0_3_1432">
<rect width="512" height="512" fill="white"/>
</clipPath>
</defs>
</svg>
