<?xml version="1.0" encoding="utf-8"?>
<!-- Generator: Adobe Illustrator 19.0.0, SVG Export Plug-In . SVG Version: 6.00 Build 0)  -->
<svg version="1.1" id="Layer_1" xmlns="http://www.w3.org/2000/svg" xmlns:xlink="http://www.w3.org/1999/xlink" x="0px" y="0px"
	 viewBox="206 -206 512 512" style="enable-background:new 206 -206 512 512;" xml:space="preserve">
<style type="text/css">
	.st0{display:none;}
	.st1{display:inline;}
	.st2{fill:#E6EAEA;}
	.st3{fill:#CDD4D5;}
	.st4{fill:#4ACFD9;}
	.st5{fill:#0295AA;}
</style>
<g id="Layer_3" class="st0">
	<rect x="1030" y="-1030.4" class="st1" width="512" height="512.8"/>
</g>
<path class="st2" d="M462-206v512c141.4,0,256-114.6,256-256S603.4-206,462-206z"/>
<path class="st3" d="M206,50c0,141.4,114.6,256,256,256v-512C320.6-206,206-91.4,206,50z"/>
<path id="Fill-579" class="st4" d="M483.3-40.3c-15.3,8.7-20.7,28.3-12,43.6c8.7,15.3,28.3,20.7,43.6,12c15.4-8.7,20.7-28.3,12-43.6
	C518.2-43.6,498.7-49,483.3-40.3"/>
<path class="st4" d="M483.5-86.1c-4.5-7.8-13-12-21.5-11.3v45.1c4.4,0.4,8.9-0.6,13.1-2.9C485.9-61.4,489.7-75.2,483.5-86.1z"/>
<path class="st5" d="M452.6-94.5c-10.8,6.1-14.7,20-8.4,30.9C448-57,454.8-52.9,462-52.3v-45.1C458.8-97.2,455.6-96.2,452.6-94.5z"
	/>
<path class="st4" d="M483.5,166.1c-4.5-7.8-13-12-21.5-11.3v45.1c4.4,0.4,8.9-0.6,13.1-2.9C485.9,190.8,489.7,177,483.5,166.1z"/>
<path class="st5" d="M452.6,157.6c-10.8,6.1-14.7,20-8.4,30.9c3.8,6.7,10.6,10.7,17.8,11.3v-45.1C458.8,155,455.6,155.9,452.6,157.6
	z"/>
<path id="Fill-582" class="st4" d="M561.3-32.2c-10.8,6.1-14.7,20-8.4,30.9c6.1,10.8,20,14.7,30.9,8.4c10.8-6.1,14.7-20,8.4-30.9
	C586-34.6,572.2-38.3,561.3-32.2"/>
<path class="st5" d="M341.7,94.1c-10.8,6.1-14.7,20-8.4,30.9c6.2,10.9,20,14.7,30.9,8.4c10.8-6.1,14.7-20,8.4-30.9
	C366.3,91.7,352.5,88,341.7,94.1z"/>
<path class="st5" d="M340.2-32.2c-10.8,6.1-14.7,20-8.4,30.9c6.1,10.8,20,14.7,30.9,8.4c10.8-6.1,14.7-20,8.4-30.9
	C364.9-34.6,351-38.3,340.2-32.2z"/>
<path id="Fill-585" class="st4" d="M561.3,92.7c-10.8,6.1-14.7,20-8.4,30.9c6.1,10.8,20,14.7,30.9,8.4c10.8-6.1,14.7-20,8.4-30.9
	C586,90.2,572.2,86.5,561.3,92.7"/>
<path id="Fill-586" class="st4" d="M618.6,34.9c-8.6,4.9-11.6,15.8-6.7,24.5c4.9,8.6,15.8,11.6,24.5,6.7c8.6-4.9,11.6-15.8,6.7-24.5
	C638.2,33,627.2,29.9,618.6,34.9"/>
<path class="st5" d="M287.6,34.9c-8.6,4.9-11.6,15.8-6.7,24.5c4.9,8.6,15.8,11.6,24.5,6.7c8.6-4.9,11.6-15.8,6.7-24.5
	C307.2,33,296.2,29.9,287.6,34.9z"/>
<path id="Fill-588" class="st4" d="M528.5-92.2c-0.2,9.9,7.7,18.1,17.7,18.3c9.9,0.2,18.1-7.7,18.3-17.7c0.2-9.9-7.7-18.1-17.6-18.3
	C536.9-109.9,528.7-102,528.5-92.2"/>
<path class="st5" d="M377.9,174.8c-10.1-0.1-18.2,7.8-18.4,17.7c-0.2,9.9,7.7,18.1,17.7,18.3c9.9,0.2,18.1-7.7,18.3-17.7
	C395.6,183.2,387.8,174.9,377.9,174.8z"/>
<path class="st5" d="M387.3-107.9c-8.6-4.9-19.6-2-24.5,6.6s-2,19.6,6.6,24.5s19.6,2,24.5-6.6S395.9-103,387.3-107.9z"/>
<path id="Fill-591" class="st4" d="M536.6,208.9c8.6,4.9,19.6,2,24.5-6.6c4.9-8.6,2-19.6-6.6-24.5c-8.6-4.9-19.6-2-24.5,6.6
	C525.1,193,528,204,536.6,208.9"/>
<path id="Fill-592" class="st4" d="M519.9,23.7c-15.3,8.7-20.7,28.3-12,43.6c8.7,15.4,28.3,20.7,43.6,12s20.7-28.3,12-43.6
	C554.7,20.3,535.2,14.9,519.9,23.7"/>
<path id="Fill-593" class="st4" d="M483.3,87.6c-15.3,8.7-20.7,28.3-12,43.6c8.7,15.4,28.3,20.7,43.6,12c15.4-8.7,20.7-28.3,12-43.6
	C518.2,84.3,498.7,78.9,483.3,87.6"/>
<path class="st5" d="M440.6-40.3c-15.4-8.7-34.9-3.3-43.6,12c-8.7,15.3-3.4,34.9,12,43.6c15.3,8.7,34.9,3.3,43.6-12
	C461.3-12,455.9-31.6,440.6-40.3z"/>
<path class="st5" d="M404,23.7c-15.3-8.8-34.8-3.4-43.6,12c-8.7,15.3-3.4,34.9,12,43.6c15.3,8.7,34.9,3.4,43.6-12
	C424.7,52,419.3,32.4,404,23.7z"/>
<path class="st5" d="M440.6,87.6c-15.4-8.8-34.9-3.4-43.6,12c-8.7,15.3-3.4,34.9,12,43.6c15.3,8.7,34.9,3.4,43.6-12
	C461.3,115.9,455.9,96.3,440.6,87.6z"/>
<path class="st4" d="M475.8-150.8c0-7.7-6.1-14-13.8-14.2v28.4C469.7-136.8,475.8-143,475.8-150.8z"/>
<path class="st5" d="M461.6-165c-7.9,0-14.2,6.3-14.2,14.2c0,7.9,6.3,14.2,14.2,14.2c0.1,0,0.3,0,0.4,0V-165
	C461.9-165,461.7-165,461.6-165z"/>
<path class="st4" d="M475.8,250.8c0-7.6-6.1-14-13.8-14.2V265C469.7,264.7,475.8,258.5,475.8,250.8z"/>
<path class="st5" d="M461.6,236.6c-7.9,0-14.2,6.3-14.2,14.2c0,7.9,6.3,14.2,14.2,14.2c0.1,0,0.3,0,0.4,0v-28.4
	C461.9,236.6,461.7,236.6,461.6,236.6z"/>
<path class="st5" d="M294.2-61.7c-6.8-3.9-15.5-1.6-19.3,5.3c-3.8,6.8-1.5,15.5,5.3,19.3c6.8,3.8,15.5,1.5,19.3-5.3
	C303.3-49.2,300.9-57.9,294.2-61.7z"/>
<path id="Fill-600" class="st4" d="M643.1,137.1c6.8,3.8,9.2,12.5,5.3,19.3c-3.8,6.8-12.5,9.2-19.3,5.3c-6.8-3.8-9.2-12.5-5.3-19.3
	C627.7,135.6,636.3,133.3,643.1,137.1"/>
<path class="st5" d="M280,137c-6.8,3.8-9.2,12.5-5.3,19.3c3.8,6.8,12.5,9.2,19.3,5.3c6.8-3.8,9.2-12.5,5.3-19.3S286.8,133.2,280,137
	z"/>
<path id="Fill-602" class="st4" d="M629.1-61.7c6.8-3.8,15.5-1.5,19.3,5.3c3.8,6.8,1.5,15.5-5.3,19.3c-6.8,3.8-15.5,1.5-19.3-5.3
	C620-49.1,622.2-57.8,629.1-61.7"/>
<path class="st5" d="M348.8-153.3c-6.4,0-11.6,5.2-11.6,11.5c0,6.3,5.2,11.5,11.6,11.5c6.3,0,11.5-5.1,11.5-11.5
	S355.2-153.4,348.8-153.3z"/>
<path id="Fill-604" class="st4" d="M586.7,242.3c0,6.4-5.2,11.5-11.5,11.5c-6.3,0-11.6-5.2-11.6-11.5c0-6.4,5.2-11.5,11.6-11.5
	C581.6,230.7,586.7,235.8,586.7,242.3"/>
<path id="Fill-605" class="st4" d="M580.3-132c-5.6,3.1-12.6,1.1-15.8-4.5c-3.1-5.6-1.1-12.6,4.5-15.8s12.6-1.1,15.8,4.5
	S585.9-135.1,580.3-132"/>
<path class="st5" d="M343.6,232.4c-5.6,3.1-7.6,10.2-4.5,15.8s10.2,7.6,15.8,4.5c5.6-3.1,7.6-10.2,4.5-15.8S349.2,229.3,343.6,232.4
	z"/>
<path id="Fill-607" class="st4" d="M679,59.6c-5.5-3.2-7.4-10.4-4.1-15.8c3.2-5.5,10.4-7.4,15.8-4.1c5.5,3.2,7.4,10.4,4.1,15.8
	S684.5,62.8,679,59.6"/>
<path class="st5" d="M245,40.8c-5.5-3.3-12.6-1.4-15.8,4.1c-3.3,5.5-1.4,12.6,4.1,15.8c5.5,3.2,12.5,1.4,15.8-4.1
	C252.4,51.2,250.5,44,245,40.8z"/>
</svg>
