<svg width="512" height="512" viewBox="0 0 512 512" fill="none" xmlns="http://www.w3.org/2000/svg">
<g clip-path="url(#clip0_106_75)">
<path d="M256 1V513C397.4 513 512 398.4 512 257C512 115.6 397.4 1 256 1Z" fill="white"/>
<path d="M0 257C0 398.4 114.6 513 256 513V1C114.6 1 0 115.6 0 257Z" fill="#E6EAEA"/>
<path d="M273.394 181.448C260.712 188.662 256.236 204.915 263.447 217.601C270.659 230.288 286.906 234.766 299.588 227.552C312.353 220.338 316.747 204.085 309.535 191.399C302.323 178.712 286.16 174.234 273.394 181.448Z" fill="#4ACFD9"/>
<path d="M273.566 143.299C269.889 136.923 262.945 133.489 256 134.062V170.93C259.595 171.257 263.271 170.439 266.703 168.559C275.527 163.491 278.631 152.21 273.566 143.299Z" fill="#4ACFD9"/>
<path d="M248.326 136.379C239.509 141.384 236.325 152.787 241.468 161.729C244.571 167.144 250.122 170.508 256 171V134C253.388 134.164 250.775 134.984 248.326 136.379Z" fill="#0295AA"/>
<path d="M273.566 352.299C269.889 345.923 262.945 342.489 256 343.062V379.93C259.595 380.257 263.271 379.439 266.703 377.559C275.527 372.491 278.631 361.21 273.566 352.299Z" fill="#4ACFD9"/>
<path d="M248.326 345.379C239.509 350.384 236.325 361.787 241.468 370.729C244.571 376.226 250.122 379.508 256 380V343C253.388 343.246 250.775 343.984 248.326 345.379Z" fill="#0295AA"/>
<path d="M338.321 187.464C329.509 192.586 326.327 204.257 331.467 213.408C336.444 222.476 347.786 225.751 356.679 220.461C365.491 215.34 368.673 203.669 363.533 194.517C358.474 185.449 347.214 182.342 338.321 187.464Z" fill="#4ACFD9"/>
<path d="M156.321 292.398C147.509 297.383 144.327 308.741 149.467 317.648C154.526 326.554 165.786 329.66 174.679 324.512C183.491 319.527 186.673 308.169 181.533 299.262C176.393 290.437 165.133 287.414 156.321 292.398Z" fill="#0295AA"/>
<path d="M154.573 187.464C145.523 192.586 142.255 204.257 147.534 213.408C152.645 222.476 164.293 225.751 173.427 220.461C182.477 215.34 185.745 203.669 180.466 194.517C175.271 185.449 163.623 182.342 154.573 187.464Z" fill="#0295AA"/>
<path d="M338.321 291.45C329.509 296.429 326.327 307.776 331.467 316.674C336.444 325.491 347.786 328.675 356.679 323.532C365.491 318.552 368.673 307.205 363.533 298.307C358.474 289.409 347.214 286.388 338.321 291.45Z" fill="#4ACFD9"/>
<path d="M385.564 243.001C378.379 247.09 375.872 256.185 379.966 263.445C384.06 270.622 393.167 273.125 400.436 269.036C407.621 264.947 410.128 255.852 406.034 248.592C401.94 241.415 392.749 238.828 385.564 243.001Z" fill="#4ACFD9"/>
<path d="M111.564 243.001C104.379 247.09 101.872 256.185 105.966 263.445C110.06 270.622 119.167 273.125 126.436 269.036C133.621 264.947 136.128 255.852 132.034 248.592C127.94 241.415 118.749 238.828 111.564 243.001Z" fill="#0295AA"/>
<path d="M311.003 137.748C310.836 145.998 317.418 152.83 325.75 152.997C333.998 153.164 340.83 146.581 340.997 138.248C341.164 129.999 334.582 123.167 326.333 123C318.002 123 311.17 129.583 311.003 137.748Z" fill="#4ACFD9"/>
<path d="M186.334 359.001C177.919 358.917 171.17 365.5 171.003 373.749C170.836 381.998 177.419 388.83 185.751 388.997C194 389.164 200.833 382.581 200.999 374.249C201.083 366 194.583 359.084 186.334 359.001Z" fill="#0295AA"/>
<path d="M193.739 124.99C186.783 120.89 177.886 123.316 173.923 130.512C169.96 137.707 172.306 146.911 179.261 151.01C186.217 155.11 195.114 152.684 199.077 145.488C203.04 138.293 200.694 129.089 193.739 124.99Z" fill="#0295AA"/>
<path d="M317.512 387.077C324.707 391.04 333.911 388.694 338.01 381.739C342.11 374.783 339.684 365.887 332.488 361.923C325.293 357.96 316.089 360.306 311.99 367.261C307.89 374.217 310.316 383.114 317.512 387.077Z" fill="#4ACFD9"/>
<path d="M303.399 234.498C290.712 241.702 286.234 257.932 293.448 270.602C300.662 283.354 316.915 287.743 329.601 280.539C342.288 273.334 346.766 257.104 339.552 244.435C332.255 231.683 316.085 227.211 303.399 234.498Z" fill="#4ACFD9"/>
<path d="M273.394 287.447C260.712 294.659 256.236 310.906 263.447 323.588C270.659 336.353 286.906 340.747 299.588 333.535C312.353 326.323 316.747 310.077 309.535 297.394C302.323 284.712 286.16 280.236 273.394 287.447Z" fill="#4ACFD9"/>
<path d="M237.606 181.448C224.84 174.234 208.677 178.712 201.465 191.399C194.253 204.085 198.647 220.338 211.412 227.552C224.094 234.766 240.341 230.288 247.553 217.601C254.764 204.915 250.288 188.662 237.606 181.448Z" fill="#0295AA"/>
<path d="M207.606 234.498C194.923 227.211 178.759 231.683 171.465 244.435C164.253 257.104 168.647 273.334 181.412 280.539C194.094 287.743 210.341 283.354 217.553 270.602C224.764 257.932 220.288 241.702 207.606 234.498Z" fill="#0295AA"/>
<path d="M237.606 287.498C224.84 280.211 208.677 284.683 201.465 297.435C194.253 310.104 198.647 326.334 211.412 333.539C224.094 340.743 240.341 336.354 247.553 323.602C254.764 310.932 250.288 294.702 237.606 287.498Z" fill="#0295AA"/>
<path d="M267 89.5C267 83.2641 262.138 78.162 256 78V101C262.138 100.838 267 95.8169 267 89.5Z" fill="#4ACFD9"/>
<path d="M255.671 78C249.178 78 244 83.1021 244 89.5C244 95.8979 249.178 101 255.671 101C255.753 101 255.918 101 256 101V78C255.918 78 255.753 78 255.671 78Z" fill="#0295AA"/>
<path d="M267 422C267 415.577 262.138 410.169 256 410V434C262.138 433.746 267 428.507 267 422Z" fill="#4ACFD9"/>
<path d="M255.671 410C249.178 410 244 415.324 244 422C244 428.676 249.178 434 255.671 434C255.753 434 255.918 434 256 434V410C255.918 410 255.753 410 255.671 410Z" fill="#0295AA"/>
<path d="M116.96 163.537C111.179 160.37 103.783 162.238 100.553 167.842C97.3228 173.364 99.278 180.43 105.059 183.516C110.839 186.602 118.235 184.734 121.465 179.212C124.695 173.689 122.655 166.624 116.96 163.537Z" fill="#0295AA"/>
<path d="M405.927 328.485C411.685 331.573 413.718 338.644 410.415 344.171C407.198 349.698 399.831 351.649 394.073 348.479C388.314 345.39 386.282 338.319 389.585 332.793C392.887 327.266 400.169 325.396 405.927 328.485Z" fill="#4ACFD9"/>
<path d="M105.073 327.549C99.3145 330.772 97.2822 338.151 100.585 343.918C103.802 349.685 111.169 351.72 116.927 348.413C122.686 345.19 124.718 337.812 121.415 332.044C118.113 326.277 110.831 324.327 105.073 327.549Z" fill="#0295AA"/>
<path d="M394.068 163.487C399.839 160.394 407.224 162.266 410.449 167.802C413.675 173.337 411.722 180.419 405.951 183.513C400.179 186.606 392.794 184.734 389.569 179.198C386.344 173.744 388.211 166.662 394.068 163.487Z" fill="#4ACFD9"/>
<path d="M162.043 87.0012C156.502 87.0012 152 91.5227 152 97.0006C152 102.479 156.502 107 162.043 107C167.498 107 172 102.565 172 97.0006C172 91.4357 167.584 86.9143 162.043 87.0012Z" fill="#0295AA"/>
<path d="M359 415.501C359 420.787 354.723 425 349.541 425C344.359 425 340 420.705 340 415.501C340 410.214 344.277 406.001 349.541 406.001C354.805 405.919 359 410.131 359 415.501Z" fill="#4ACFD9"/>
<path d="M353.839 104.809C349.024 107.341 343.005 105.707 340.254 101.133C337.589 96.559 339.308 90.8413 344.123 88.2275C348.938 85.6137 354.957 87.329 357.708 91.9032C360.459 96.4773 358.654 102.277 353.839 104.809Z" fill="#4ACFD9"/>
<path d="M157.876 407.194C153.293 409.73 151.657 415.541 154.194 420.124C156.73 424.707 162.541 426.343 167.124 423.806C171.707 421.27 173.343 415.459 170.806 410.876C168.27 406.293 162.459 404.657 157.876 407.194Z" fill="#0295AA"/>
<path d="M435.699 263.717C431.185 261.083 429.626 255.157 432.334 250.713C434.961 246.186 440.869 244.622 445.301 247.338C449.815 249.972 451.374 255.898 448.666 260.342C445.957 264.787 440.213 266.35 435.699 263.717Z" fill="#4ACFD9"/>
<path d="M76.3009 248.337C71.7872 245.624 65.9605 247.186 63.3344 251.708C60.6262 256.23 62.1854 262.068 66.6991 264.7C71.2128 267.331 76.9574 265.851 79.6656 261.328C82.3738 256.888 80.8146 250.968 76.3009 248.337Z" fill="#0295AA"/>
</g>
<defs>
<clipPath id="clip0_106_75">
<rect width="512" height="512" fill="white"/>
</clipPath>
</defs>
</svg>
