<svg width="512" height="512" viewBox="0 0 512 512" fill="none" xmlns="http://www.w3.org/2000/svg">
<path d="M277.299 165.7C261.999 174.4 256.599 194 265.299 209.3C273.999 224.6 293.599 230 308.899 221.3C324.299 212.6 329.599 193 320.899 177.7C312.199 162.4 292.699 157 277.299 165.7Z" fill="#4ACFD9"/>
<path d="M277.5 119.9C273 112.1 264.5 107.9 256 108.6V153.7C260.4 154.1 264.9 153.1 269.1 150.8C279.9 144.6 283.7 130.8 277.5 119.9Z" fill="#4ACFD9"/>
<path d="M246.599 111.5C235.799 117.6 231.899 131.5 238.199 142.4C241.999 149 248.799 153.1 255.999 153.7V108.6C252.799 108.8 249.599 109.8 246.599 111.5Z" fill="#0295AA"/>
<path d="M277.5 372.1C273 364.3 264.5 360.1 256 360.8V405.9C260.4 406.3 264.9 405.3 269.1 403C279.9 396.8 283.7 383 277.5 372.1Z" fill="#4ACFD9"/>
<path d="M246.599 363.6C235.799 369.7 231.899 383.6 238.199 394.5C241.999 401.2 248.799 405.2 255.999 405.8V360.7C252.799 361 249.599 361.9 246.599 363.6Z" fill="#0295AA"/>
<path d="M355.301 173.8C344.501 179.9 340.601 193.8 346.901 204.7C353.001 215.5 366.901 219.4 377.801 213.1C388.601 207 392.501 193.1 386.201 182.2C380.001 171.4 366.201 167.7 355.301 173.8Z" fill="#4ACFD9"/>
<path d="M135.699 300.1C124.899 306.2 120.999 320.1 127.299 331C133.499 341.9 147.299 345.7 158.199 339.4C168.999 333.3 172.899 319.4 166.599 308.5C160.299 297.7 146.499 294 135.699 300.1Z" fill="#0295AA"/>
<path d="M134.199 173.8C123.399 179.9 119.499 193.8 125.799 204.7C131.899 215.5 145.799 219.4 156.699 213.1C167.499 207 171.399 193.1 165.099 182.2C158.899 171.4 144.999 167.7 134.199 173.8Z" fill="#0295AA"/>
<path d="M355.301 298.7C344.501 304.8 340.601 318.7 346.901 329.6C353.001 340.4 366.901 344.3 377.801 338C388.601 331.9 392.501 318 386.201 307.1C380.001 296.2 366.201 292.5 355.301 298.7Z" fill="#4ACFD9"/>
<path d="M412.6 240.9C404 245.8 401 256.7 405.9 265.4C410.8 274 421.7 277 430.4 272.1C439 267.2 442 256.3 437.1 247.6C432.2 239 421.2 235.9 412.6 240.9Z" fill="#4ACFD9"/>
<path d="M81.6 240.9C73 245.8 70 256.7 74.9 265.4C79.8 274 90.7 277 99.4 272.1C108 267.2 111 256.3 106.1 247.6C101.2 239 90.2 235.9 81.6 240.9Z" fill="#0295AA"/>
<path d="M322.5 113.8C322.3 123.7 330.2 131.9 340.2 132.1C350.1 132.3 358.3 124.4 358.5 114.4C358.7 104.5 350.8 96.3001 340.9 96.1001C330.9 96.1001 322.7 104 322.5 113.8Z" fill="#4ACFD9"/>
<path d="M171.9 380.8C161.8 380.7 153.7 388.6 153.5 398.5C153.3 408.4 161.2 416.6 171.2 416.8C181.1 417 189.3 409.1 189.5 399.1C189.6 389.2 181.8 380.9 171.9 380.8Z" fill="#0295AA"/>
<path d="M181.3 98.0999C172.7 93.1999 161.7 96.0999 156.8 104.7C151.9 113.3 154.8 124.3 163.4 129.2C172 134.1 183 131.2 187.9 122.6C192.8 114 189.9 103 181.3 98.0999Z" fill="#0295AA"/>
<path d="M330.599 414.9C339.199 419.8 350.199 416.9 355.099 408.3C359.999 399.7 357.099 388.7 348.499 383.8C339.899 378.9 328.899 381.8 323.999 390.4C319.099 399 321.999 410 330.599 414.9Z" fill="#4ACFD9"/>
<path d="M313.901 229.7C298.601 238.4 293.201 258 301.901 273.3C310.601 288.7 330.201 294 345.501 285.3C360.801 276.6 366.201 257 357.501 241.7C348.701 226.3 329.201 220.9 313.901 229.7Z" fill="#4ACFD9"/>
<path d="M277.299 293.6C261.999 302.3 256.599 321.9 265.299 337.2C273.999 352.6 293.599 357.9 308.899 349.2C324.299 340.5 329.599 320.9 320.899 305.6C312.199 290.3 292.699 284.9 277.299 293.6Z" fill="#4ACFD9"/>
<path d="M234.6 165.7C219.2 157 199.7 162.4 191 177.7C182.3 193 187.6 212.6 203 221.3C218.3 230 237.9 224.6 246.6 209.3C255.3 194 249.9 174.4 234.6 165.7Z" fill="#0295AA"/>
<path d="M198.001 229.7C182.701 220.9 163.201 226.3 154.401 241.7C145.701 257 151.001 276.6 166.401 285.3C181.701 294 201.301 288.7 210.001 273.3C218.701 258 213.301 238.4 198.001 229.7Z" fill="#0295AA"/>
<path d="M234.6 293.6C219.2 284.8 199.7 290.2 191 305.6C182.3 320.9 187.6 340.5 203 349.2C218.3 357.9 237.9 352.6 246.6 337.2C255.3 321.9 249.9 302.3 234.6 293.6Z" fill="#0295AA"/>
<path d="M269.8 55.2C269.8 47.5 263.7 41.2 256 41V69.4C263.7 69.2 269.8 63 269.8 55.2Z" fill="#4ACFD9"/>
<path d="M255.6 41C247.7 41 241.4 47.3 241.4 55.2C241.4 63.1 247.7 69.4 255.6 69.4C255.7 69.4 255.9 69.4 256 69.4V41C255.9 41 255.7 41 255.6 41Z" fill="#0295AA"/>
<path d="M269.8 456.8C269.8 449.2 263.7 442.8 256 442.6V471C263.7 470.7 269.8 464.5 269.8 456.8Z" fill="#4ACFD9"/>
<path d="M255.6 442.6C247.7 442.6 241.4 448.9 241.4 456.8C241.4 464.7 247.7 471 255.6 471C255.7 471 255.9 471 256 471V442.6C255.9 442.6 255.7 442.6 255.6 442.6Z" fill="#0295AA"/>
<path d="M88.1993 144.3C81.3993 140.4 72.6993 142.7 68.8993 149.6C65.0993 156.4 67.3993 165.1 74.1993 168.9C80.9993 172.7 89.6993 170.4 93.4993 163.6C97.2993 156.8 94.8993 148.1 88.1993 144.3Z" fill="#0295AA"/>
<path d="M437.099 343.1C443.899 346.9 446.299 355.6 442.399 362.4C438.599 369.2 429.899 371.6 423.099 367.7C416.299 363.9 413.899 355.2 417.799 348.4C421.699 341.6 430.299 339.3 437.099 343.1Z" fill="#4ACFD9"/>
<path d="M73.9995 343C67.1995 346.8 64.7995 355.5 68.6995 362.3C72.4995 369.1 81.1995 371.5 87.9995 367.6C94.7995 363.8 97.1995 355.1 93.2995 348.3C89.3995 341.5 80.7995 339.2 73.9995 343Z" fill="#0295AA"/>
<path d="M423.1 144.3C429.9 140.5 438.6 142.8 442.4 149.6C446.2 156.4 443.9 165.1 437.1 168.9C430.3 172.7 421.6 170.4 417.8 163.6C414 156.9 416.2 148.2 423.1 144.3Z" fill="#4ACFD9"/>
<path d="M142.799 52.6999C136.399 52.6999 131.199 57.8999 131.199 64.1999C131.199 70.4999 136.399 75.6999 142.799 75.6999C149.099 75.6999 154.299 70.5999 154.299 64.1999C154.299 57.7999 149.199 52.5999 142.799 52.6999Z" fill="#0295AA"/>
<path d="M380.7 448.3C380.7 454.7 375.5 459.8 369.2 459.8C362.9 459.8 357.6 454.6 357.6 448.3C357.6 441.9 362.8 436.8 369.2 436.8C375.6 436.7 380.7 441.8 380.7 448.3Z" fill="#4ACFD9"/>
<path d="M374.299 74.0001C368.699 77.1001 361.699 75.1001 358.499 69.5001C355.399 63.9001 357.399 56.9001 362.999 53.7001C368.599 50.5001 375.599 52.6001 378.799 58.2001C381.999 63.8001 379.899 70.9001 374.299 74.0001Z" fill="#4ACFD9"/>
<path d="M137.599 438.4C131.999 441.5 129.999 448.6 133.099 454.2C136.199 459.8 143.299 461.8 148.899 458.7C154.499 455.6 156.499 448.5 153.399 442.9C150.299 437.3 143.199 435.3 137.599 438.4Z" fill="#0295AA"/>
<path d="M472.999 265.6C467.499 262.4 465.599 255.2 468.899 249.8C472.099 244.3 479.299 242.4 484.699 245.7C490.199 248.9 492.099 256.1 488.799 261.5C485.499 266.9 478.499 268.8 472.999 265.6Z" fill="#4ACFD9"/>
<path d="M39.0002 246.8C33.5002 243.5 26.4002 245.4 23.2002 250.9C19.9002 256.4 21.8002 263.5 27.3002 266.7C32.8002 269.9 39.8002 268.1 43.1002 262.6C46.4002 257.2 44.5002 250 39.0002 246.8Z" fill="#0295AA"/>
</svg>
