<svg width="512" height="512" viewBox="0 0 512 512" fill="none" xmlns="http://www.w3.org/2000/svg">
<path d="M256 0V512C114.615 512 0 397.385 0 256C0 114.615 114.615 0 256 0Z" fill="#E6EAEA"/>
<path d="M256 512V0C397.385 0 512 114.615 512 256C512 397.385 397.385 512 256 512Z" fill="white"/>
<path d="M383.558 211.709C390.407 211.709 395.959 206.157 395.959 199.308C395.959 192.459 390.407 186.906 383.558 186.906C376.709 186.906 371.156 192.459 371.156 199.308C371.156 206.157 376.709 211.709 383.558 211.709Z" fill="#4ACFD9"/>
<path fill-rule="evenodd" clip-rule="evenodd" d="M256 0V95.6774C290.782 96.055 323.795 107.553 351.668 129.329C353.439 130.215 354.325 132.872 354.325 134.644C354.325 137.301 353.439 139.073 351.668 140.844L334.837 155.903C333.066 157.675 330.408 158.561 327.751 158.561C325.979 158.561 323.322 157.675 322.436 156.789C302.565 142.966 279.324 135.884 256 135.542V376.467C287.561 376.24 317.334 363.856 340.152 341.038C341.924 339.266 344.581 338.381 347.239 338.381C349.01 338.381 350.782 339.266 352.553 340.152L352.554 340.152L371.156 352.554C372.927 353.439 373.813 355.211 374.699 357.869C373.813 358.754 372.927 360.526 372.042 362.298C342.326 395.51 299.674 414.062 256 414.551L256 512C397.73 512 512 397.73 512 256C512 114.27 396.844 3.08624e-06 256 0ZM344.581 199.308C344.581 220.567 362.298 238.284 383.557 238.284C404.817 238.284 422.533 220.567 422.533 199.308C422.533 178.048 404.817 160.332 383.557 160.332C362.298 160.332 344.581 178.048 344.581 199.308Z" fill="#4ACFD9"/>
<path fill-rule="evenodd" clip-rule="evenodd" d="M0 256C0 114.27 114.27 0 256 0V95.6774C255.41 95.671 254.819 95.6678 254.228 95.6678H254.228C248.028 95.6678 241.827 95.6678 235.626 96.5536C162.104 105.412 103.64 163.875 95.6678 237.398C91.2388 283.46 104.526 326.865 135.529 361.412C165.647 395.073 209.052 414.561 254.228 414.561C254.819 414.561 255.41 414.557 256 414.551V512C114.27 512 0 397.73 0 256ZM256 376.467V135.542C255.41 135.534 254.819 135.529 254.228 135.529C219.682 135.529 186.907 150.588 164.761 176.277C141.73 201.965 131.1 235.626 135.529 270.173C141.73 325.093 186.021 369.384 240.941 375.585C245.37 376.471 249.799 376.471 255.114 376.471C255.41 376.471 255.705 376.47 256 376.467Z" fill="#0295AA"/>
</svg>
