<svg width="512" height="512" viewBox="0 0 512 512" fill="none" xmlns="http://www.w3.org/2000/svg">
<g clip-path="url(#clip0_1_175)">
<path d="M209.032 26.9809L81.6313 100.938L34.8477 127.933V383.193L81.6313 410.174L209.209 483.421L255.771 510.283V401.842L128.681 329.025V181.925L255.771 107.983V0.0740404L255.727 0.0444336L209.032 26.9809Z" fill="#0295AA"/>
<path d="M255.727 0.0449771L255.772 0.0149962V0H255.637L255.727 0.0449771Z" fill="#0295AA"/>
<path fill-rule="evenodd" clip-rule="evenodd" d="M255.369 511.641L255.991 512L302.775 485.019L429.909 411.24L476.693 384.244V128.629L429.909 101.648L302.42 28.5793L255.37 1.47998L255.369 1.48032V109.522L255.37 109.522L383.392 182.798V329.987L255.37 404.047L255.369 404.047V511.641Z" fill="#4ACFD9"/>
</g>
<defs>
<clipPath id="clip0_1_175">
<rect width="512" height="512" fill="white"/>
</clipPath>
</defs>
</svg>
