<svg width="512" height="512" viewBox="0 0 512 512" fill="none" xmlns="http://www.w3.org/2000/svg">
<path d="M256 0V512C114.615 512 0 397.385 0 256C0 114.615 114.615 0 256 0Z" fill="#BCD643"/>
<path d="M256 512V0C397.385 0 512 114.615 512 256C512 397.385 397.385 512 256 512Z" fill="#BCD643"/>
<path fill-rule="evenodd" clip-rule="evenodd" d="M256.164 415.989C256.802 415.996 257.441 416 258.081 416C335.29 416 399.852 362.528 416 291.008H374.158C358.97 340.158 312.686 375.996 258.089 376C257.446 376 256.804 375.995 256.164 375.985V415.989ZM256.164 314.752V197.312C256.804 197.28 257.449 197.264 258.097 197.264C279.01 197.264 295.99 214.048 295.99 234.752C295.974 241.804 293.971 248.709 290.209 254.673C286.447 260.636 281.08 265.417 274.725 268.464V314.752H256.164ZM256.164 136.015V96.011C256.802 96.0037 257.441 96 258.081 96C335.29 96 399.852 149.472 416 220.992H374.174C358.985 171.84 312.698 136 258.097 136C257.451 136 256.807 136.005 256.164 136.015Z" fill="white"/>
<path fill-rule="evenodd" clip-rule="evenodd" d="M255.887 96C167.41 97.0164 96 168.254 96 255.989C96 343.724 167.41 414.962 255.887 415.978V375.974C189.847 374.949 136.467 321.526 136.467 255.989C136.467 190.452 189.847 137.029 255.887 136.004V96ZM255.887 197.301C235.839 198.296 219.88 214.678 219.88 234.741C219.897 241.795 221.906 248.7 225.673 254.662C229.441 260.623 234.815 265.398 241.177 268.437V314.741H255.887V197.301Z" fill="#E6EAEA"/>
</svg>
