<svg width="512" height="512" viewBox="0 0 512 512" fill="none" xmlns="http://www.w3.org/2000/svg">
<path fill-rule="evenodd" clip-rule="evenodd" d="M253.432 505.982C254.442 505.994 255.454 506 256.468 506C378.64 506 480.801 421.448 506.354 308.358H440.144C416.109 386.079 342.866 442.75 256.468 442.75H256.493C255.471 442.75 254.45 442.742 253.432 442.727V505.982ZM253.432 345.903V160.202C254.446 160.152 255.466 160.127 256.493 160.127C289.585 160.127 316.453 186.666 316.453 219.404C316.429 230.555 313.259 241.473 307.306 250.903C301.354 260.333 292.861 267.892 282.805 272.711V345.903H253.432ZM253.432 63.2774V0.0215714C254.442 0.00996806 255.454 0.00415039 256.468 0.00415039C378.64 0.00415039 480.801 84.5561 506.354 197.646H440.169C416.135 119.925 342.892 63.2536 256.493 63.2536C255.471 63.2536 254.45 63.2616 253.432 63.2774Z" fill="#4ACFD9"/>
<path fill-rule="evenodd" clip-rule="evenodd" d="M252.998 0.00415039C112.996 1.61161 0 114.255 0 252.985C0 391.714 112.996 504.358 252.998 505.965V442.709C148.5 441.088 64.0338 356.614 64.0338 252.985C64.0338 149.355 148.5 64.8811 252.998 63.2599V0.00415039ZM252.998 160.185C221.276 161.759 196.023 187.663 196.023 219.386C196.05 230.54 199.228 241.459 205.19 250.886C211.152 260.313 219.656 267.863 229.722 272.668V345.885H252.998V160.185Z" fill="#0295AA"/>
</svg>
