<svg width="512" height="512" viewBox="0 0 512 512" fill="none" xmlns="http://www.w3.org/2000/svg">
<path fill-rule="evenodd" clip-rule="evenodd" d="M258.438 511.503C259.985 511.832 261.569 511.999 263.164 511.999C266.025 512.032 268.863 511.5 271.517 510.433C274.172 509.366 276.588 507.784 278.629 505.779C280.67 503.775 282.294 501.386 283.408 498.751C284.522 496.117 285.104 493.288 285.121 490.427V403.885C285.121 391.122 278.161 379.309 266.888 372.889L258.438 368.067V511.503ZM258.438 328.195L303.842 354.784C314.961 361.256 321.715 372.966 321.715 385.601V483.134C322.315 482.975 322.893 482.743 323.436 482.441L365.602 459.226C370.25 456.709 373.075 451.907 373.075 446.72V271.067C373.024 258.33 366.142 246.491 354.842 240.071H354.894L258.438 185.014V328.195ZM258.438 143.923L391.95 222.275C402.967 228.772 409.747 240.456 409.747 253.065V431.697L449.731 410.562C452.037 409.346 453.972 407.531 455.333 405.307C456.693 403.084 457.428 400.534 457.46 397.927V141.382C457.46 128.568 450.501 116.755 439.202 110.335V110.36L258.438 7.60693V143.923Z" fill="white"/>
<path fill-rule="evenodd" clip-rule="evenodd" d="M258.442 5.55254L252.946 2.42823C248.739 0.0394983 243.768 -0.618148 239.085 0.594555C234.402 1.80726 230.375 4.79509 227.856 8.92533C226.29 11.6731 225.391 14.7804 225.391 17.9647V122.355L258.442 141.751V5.55254ZM258.442 182.944L168.715 131.728C165.904 130.134 162.728 129.293 159.496 129.288C149.352 129.237 141.083 137.275 141.083 147.213V257.304L258.442 326.031V182.944ZM258.442 365.999L80.6319 264.546C77.8071 262.954 74.6227 262.106 71.387 262.106C61.269 262.055 53 270.093 53 280.031V363.569C53.0378 370.984 54.9977 378.263 58.6885 384.695C62.3792 391.126 67.6746 396.491 74.0577 400.266L258.031 510.434C258.167 510.514 258.304 510.594 258.442 510.671V365.999Z" fill="#E6EAEA"/>
</svg>
