<svg width="512" height="512" viewBox="0 0 512 512" fill="none" xmlns="http://www.w3.org/2000/svg">
<g clip-path="url(#clip0_106_150)">
<path d="M258 0V512C116.615 512 2 397.385 2 256C2 114.615 116.615 0 258 0Z" fill="#BCD643"/>
<path d="M258 512V0C399.385 0 514 114.615 514 256C514 397.385 399.385 512 258 512Z" fill="#BCD643"/>
<path fill-rule="evenodd" clip-rule="evenodd" d="M258.027 415.678C259.008 415.884 260.011 415.989 261.022 415.988C262.832 416.01 264.629 415.677 266.309 415.01C267.989 414.343 269.518 413.355 270.81 412.102C272.102 410.849 273.13 409.356 273.835 407.709C274.54 406.063 274.908 404.294 274.919 402.507V348.42C274.919 340.443 270.514 333.06 263.379 329.048L258.027 326.033V415.678ZM258.027 301.113L286.768 317.733C293.806 321.777 298.081 329.096 298.081 336.992V397.949C298.461 397.85 298.827 397.704 299.17 397.515L325.859 383.006C328.801 381.434 330.589 378.432 330.589 375.19V265.411C330.557 257.45 326.201 250.051 319.049 246.039H319.081L258.027 211.628V301.113ZM258.027 185.947L342.536 234.917C349.509 238.977 353.8 246.28 353.8 254.16V365.801L379.108 352.592C380.567 351.833 381.792 350.698 382.653 349.308C383.514 347.919 383.98 346.325 384 344.696V184.36C384 176.352 379.595 168.969 372.443 164.956V164.972L258.027 100.752V185.947Z" fill="white"/>
<path fill-rule="evenodd" clip-rule="evenodd" d="M258.031 99.4692L254.554 97.5176C251.892 96.0247 248.745 95.6137 245.781 96.3716C242.817 97.1295 240.268 98.9968 238.674 101.578C237.682 103.295 237.114 105.237 237.114 107.228V172.469L258.031 184.59V99.4692ZM258.031 210.336L201.241 178.327C199.461 177.331 197.451 176.806 195.406 176.803C188.985 176.771 183.751 181.794 183.751 188.005V256.81L258.031 299.762V210.336ZM258.031 324.742L145.489 261.336C143.701 260.341 141.686 259.811 139.638 259.811C133.234 259.779 128 264.803 128 271.014V323.223C128.024 327.858 129.264 332.407 131.6 336.427C133.936 340.446 137.288 343.799 141.328 346.158L257.772 415.011C257.858 415.061 257.945 415.11 258.031 415.159V324.742Z" fill="#E6EAEA"/>
</g>
<defs>
<clipPath id="clip0_106_150">
<rect width="512" height="512" fill="white"/>
</clipPath>
</defs>
</svg>
