<?xml version="1.0" encoding="UTF-8" standalone="no"?>
<svg
   width="512"
   height="512"
   viewBox="0 0 512 512"
   version="1.1"
   id="svg1796"
   xmlns="http://www.w3.org/2000/svg"
   xmlns:svg="http://www.w3.org/2000/svg">
  <defs
     id="defs1800" />
  <g
     fill="none"
     fill-rule="evenodd"
     id="g1794"
     transform="scale(16)">
    <circle
       fill="#00d395"
       fill-rule="nonzero"
       cx="16"
       cy="16"
       r="16"
       id="circle1790" />
    <path
       d="M 8.57,21.587 A 1.67,1.67 0 0 1 7.75,20.158 v -3.253 c 0,-0.387 0.322,-0.7 0.716,-0.698 0.126,0 0.25,0.033 0.36,0.095 l 7.503,4.281 c 0.439,0.25 0.71,0.71 0.71,1.207 v 3.37 A 0.845,0.845 0 0 1 16.184,26 0.883,0.883 0 0 1 15.734,25.877 Z m 11.184,-6.176 c 0.44,0.25 0.708,0.711 0.71,1.207 v 6.84 c 0,0.202 -0.11,0.389 -0.291,0.487 l -1.642,0.904 a 0.29,0.29 0 0 1 -0.067,0.027 v -3.798 c 0,-0.492 -0.263,-0.948 -0.696,-1.2 L 11.18,16.02 v -4.287 c 0,-0.387 0.322,-0.7 0.717,-0.698 a 0.73,0.73 0 0 1 0.359,0.095 l 7.5,4.281 z m 3.285,-5.052 c 0.44,0.25 0.711,0.71 0.711,1.209 v 9.99 a 0.564,0.564 0 0 1 -0.301,0.492 l -1.557,0.823 v -6.956 c 0,-0.491 -0.264,-0.946 -0.693,-1.199 L 14.463,10.765 V 6.7 c 0,-0.124 0.035,-0.245 0.096,-0.352 a 0.725,0.725 0 0 1 0.977,-0.253 l 7.503,4.265 z"
       fill="#ffffff"
       id="path1792" />
  </g>
</svg>
