<svg width="512" height="512" viewBox="0 0 512 512" fill="none" xmlns="http://www.w3.org/2000/svg">
<path d="M256 0V512C114.615 512 0 397.385 0 256C0 114.615 114.615 0 256 0Z" fill="#0295AA"/>
<path d="M256 512V0C397.385 0 512 114.615 512 256C512 397.385 397.385 512 256 512Z" fill="#4ACFD9"/>
<path d="M256.001 271.432V232C266.945 232 275.816 240.827 275.816 251.716C275.816 262.605 266.945 271.432 256.001 271.432Z" fill="white"/>
<path d="M256.014 271.432V232C245.071 232 236.199 240.827 236.199 251.716C236.199 262.605 245.071 271.432 256.014 271.432Z" fill="#E6EAEA"/>
<path d="M148.507 232.687C157.375 232.687 164.565 225.533 164.565 216.71C164.565 207.886 157.375 200.732 148.507 200.732C139.638 200.732 132.449 207.886 132.449 216.71C132.449 225.533 139.638 232.687 148.507 232.687Z" fill="#E6EAEA"/>
<path d="M232.534 377.791C241.403 377.791 248.592 370.638 248.592 361.814C248.592 352.99 241.403 345.837 232.534 345.837C223.666 345.837 216.477 352.99 216.477 361.814C216.477 370.638 223.666 377.791 232.534 377.791Z" fill="#E6EAEA"/>
<path fill-rule="evenodd" clip-rule="evenodd" d="M255.997 85C235.35 85.7715 218.664 160.518 218.664 252.594C218.664 344.402 235.431 419.055 255.997 420.255V412.409C254.904 412.314 254.151 411.519 254.151 411.519C244.581 400.463 239.796 379.964 239.796 379.964C223.048 326.329 227.03 211.181 227.03 211.181C234.898 119.776 249.222 98.1751 254.087 93.382C254.585 92.8912 255.298 92.5565 255.997 92.5001V85Z" fill="#E6EAEA"/>
<path fill-rule="evenodd" clip-rule="evenodd" d="M255.997 210.12C179.471 167.496 111.229 146.988 101.236 164.178C90.7987 182.12 147.611 234.205 228.092 280.619C237.517 286.052 246.849 291.164 255.997 295.929V288.1C245.108 282.381 238.85 278.558 238.85 278.558C192.123 253.474 145.909 214.889 145.909 214.889C110.79 185.459 108.173 171.112 108.173 171.112L108.141 171.096H108.157C106.599 167.453 109.859 166.574 109.859 166.574C124.263 163.858 144.495 170.041 144.495 170.041C176.439 176.96 222.688 200.518 255.997 219.145V210.12Z" fill="#E6EAEA"/>
<path fill-rule="evenodd" clip-rule="evenodd" d="M255.997 209.903C249.905 213.159 243.746 216.559 237.546 220.097C156.824 266.159 99.884 318.037 110.209 335.995C119.743 352.526 183.034 334.522 255.997 295.628V287.722C216.48 308.63 176.72 322.974 176.72 322.974C133.557 338.44 119.747 333.519 119.747 333.519C115.797 333.04 116.696 329.78 116.696 329.78C121.546 316.04 137.025 301.692 137.025 301.692C164.29 272.501 223.754 236.907 255.997 218.693V209.903Z" fill="#E6EAEA"/>
<path fill-rule="evenodd" clip-rule="evenodd" d="M256 420.253C256.105 420.257 256.211 420.259 256.316 420.259C277.053 420.259 293.88 345.214 293.88 252.659C293.88 160.103 277.235 85 256.498 85C256.332 85 256.166 85.0048 256 85.0144V92.4999C256.697 92.4449 257.334 92.7367 257.903 93.143C264.954 98.1439 270.883 118.978 270.883 118.978C288.351 183.654 286.765 244.367 286.765 244.367C288.351 297.219 278.015 356.366 278.015 356.366C270.05 401.326 258.912 410.785 258.912 410.785C257.878 412.164 256.841 412.492 256 412.424V420.253Z" fill="white"/>
<path fill-rule="evenodd" clip-rule="evenodd" d="M256 295.629C262.288 292.271 268.648 288.756 275.052 285.095C355.612 239.033 412.454 187.139 402.134 169.197H402.118C392.575 152.618 329.083 170.776 256 209.905V218.695C269.172 211.239 277.792 206.695 277.792 206.695C361.221 167.998 387.134 169.628 393.704 171.418C394.383 171.603 394.973 172.023 395.369 172.603C395.766 173.182 395.942 173.884 395.868 174.581C395.067 183.161 379.842 198.659 379.842 198.659C332.311 245.967 278.689 274.838 278.689 274.838C271.331 279.343 263.67 283.658 256 287.724V295.629Z" fill="white"/>
<path fill-rule="evenodd" clip-rule="evenodd" d="M256 296.08C329.393 335.499 392.272 353.979 401.878 337.421C412.295 319.527 355.613 267.394 275.309 220.98C268.819 217.23 262.373 213.632 256 210.195V219.142C285.243 235.039 307.5 248.939 307.5 248.939C382.9 301.536 393.994 324.704 395.724 331.27C395.9 331.945 395.83 332.66 395.528 333.288C395.226 333.917 394.711 334.419 394.074 334.705C386.221 338.3 365.148 332.948 365.148 332.948C315.071 319.56 272.731 297.584 256 288.242V296.08Z" fill="white"/>
<path d="M330.688 200.438C341.073 200.438 349.492 192.044 349.492 181.689C349.492 171.335 341.073 162.941 330.688 162.941C320.302 162.941 311.883 171.335 311.883 181.689C311.883 192.044 320.302 200.438 330.688 200.438Z" fill="white"/>
</svg>
