<?xml version="1.0" encoding="UTF-8" standalone="no"?>
<svg
   width="512"
   height="512"
   viewBox="0 0 512 512"
   version="1.1"
   id="svg7191"
   xmlns="http://www.w3.org/2000/svg"
   xmlns:svg="http://www.w3.org/2000/svg">
  <defs
     id="defs7195" />
  <g
     fill="none"
     fill-rule="evenodd"
     id="g7189"
     transform="scale(16)">
    <circle
       fill="#40649f"
       fill-rule="nonzero"
       cx="16"
       cy="16"
       r="16"
       id="circle7185" />
    <path
       d="m 12.997,7.25 c 1.751,0 6.08,0.835 10.19,3.806 4.11,2.971 2.264,7.147 1.345,7.962 -0.92,0.815 -8.108,1.891 -8.556,2.635 -0.448,0.743 -0.97,3.597 -3.21,3.597 -2.24,0 -3.282,-2.27 -3.81,-3.587 C 8.426,20.346 7.75,18.115 7.75,14.987 7.75,11.859 9.1,7.25 12.997,7.25 Z m -1.394,8.279 -0.136,0.005 c -1.353,0.101 -1.99,2.085 -1.847,4.247 0.143,2.162 1.773,4.004 2.756,4.004 0.983,0 2.44,-1.306 2.15,-4.13 -0.291,-2.825 -1.706,-4.223 -3.059,-4.121 z m 7.456,-3.515 c -1.895,-0.737 -4.694,-1.407 -3.81,0.53 0.298,0.651 0.538,1.783 0.721,3.395 3.524,-0.26 5.64,-0.68 6.345,-1.26 1.057,-0.868 -1.362,-1.927 -3.256,-2.665 z"
       fill="#ffffff"
       id="path7187" />
  </g>
</svg>
