<svg width="512" height="512" viewBox="0 0 512 512" fill="none" xmlns="http://www.w3.org/2000/svg">
<path fill-rule="evenodd" clip-rule="evenodd" d="M235.543 405.563C244.41 395.171 297.841 382.579 352.157 369.778C406.298 357.019 461.319 344.052 473.964 332.85C499.645 310.076 551.23 193.38 436.379 110.357C365.674 59.2466 292.651 30.7576 235.543 16.4077V116.504C258.721 116.096 293.328 126.356 321.024 137.127C373.951 157.751 441.548 187.344 412.011 211.599C392.366 227.761 333.516 239.477 235.543 246.747V405.563Z" fill="#CDD4D5"/>
<path fill-rule="evenodd" clip-rule="evenodd" d="M235.542 16.4074C199.885 7.44754 170.433 4 151.624 4C42.725 4 5 132.796 5 220.206C5 307.616 23.8905 369.96 38.701 406.763C53.4557 443.566 82.5738 507 145.169 507C194.646 507 214.129 457.173 226.304 426.034C229.533 417.778 232.247 410.835 234.871 406.484C235.055 406.179 235.279 405.872 235.542 405.563V246.747C235.263 246.768 234.983 246.789 234.703 246.809C229.59 201.763 222.883 170.13 214.555 151.938C202.773 126.12 214.405 116.876 235.542 116.504V16.4074ZM57.2561 354.172C53.2601 293.756 71.0607 238.314 108.869 235.492C146.678 232.641 186.22 271.708 194.352 350.651C202.455 429.566 161.74 466.061 134.271 466.061C106.802 466.061 61.2522 414.588 57.2561 354.172Z" fill="#9BAAAB"/>
</svg>
