<svg width="512" height="512" viewBox="0 0 512 512" fill="none" xmlns="http://www.w3.org/2000/svg">
<path d="M256 0V512C114.615 512 0 397.385 0 256C0 114.615 114.615 0 256 0Z" fill="#FF8C29"/>
<path d="M256 512V0C397.385 0 512 114.615 512 256C512 397.385 397.385 512 256 512Z" fill="#FFD1A9"/>
<path fill-rule="evenodd" clip-rule="evenodd" d="M256 383.98C317.698 383.03 364.538 349.78 382.72 301.905H416V272.145H390.016C390.656 266.865 390.976 261.457 390.976 255.985V255.249C390.976 250.385 390.72 245.585 390.224 240.881H416V211.105H383.344C365.618 162.563 318.405 128.976 256 128.021V154.666C301.441 155.532 335.144 178.08 350.848 211.089H256V240.881H359.648C360.304 245.793 360.656 250.833 360.656 255.985V256.705C360.656 261.969 360.288 267.105 359.584 272.129V272.145H256V301.905H350.608C334.815 334.448 301.234 356.415 256 357.271V383.98Z" fill="white"/>
<path fill-rule="evenodd" clip-rule="evenodd" d="M256 128.021C255.091 128.007 254.179 128 253.264 128H148.432V211.12H112V240.88H148.432V272.144H112V301.904H148.432V384H253.28C254.19 384 255.096 383.993 256 383.979V357.27C255.087 357.287 254.17 357.296 253.248 357.296H177.728V301.904H256V272.144H177.728V240.88H256V211.088H177.728V154.656H253.248L253.28 154.64C254.191 154.64 255.098 154.649 256 154.666V128.021Z" fill="#E6EAEA"/>
</svg>
