<?xml version="1.0" encoding="UTF-8" standalone="no"?>
<svg
   width="512"
   height="512"
   viewBox="0 0 512 512"
   version="1.1"
   id="svg1683"
   xmlns="http://www.w3.org/2000/svg"
   xmlns:svg="http://www.w3.org/2000/svg">
  <defs
     id="defs1687" />
  <g
     fill="none"
     fill-rule="evenodd"
     id="g1681"
     transform="scale(16)">
    <circle
       fill="#f4b731"
       fill-rule="nonzero"
       cx="16"
       cy="16"
       r="16"
       id="circle1677" />
    <path
       d="m 9.277,8 h 6.552 c 3.985,0 7.006,2.116 8.13,5.194 H 26 v 1.861 h -1.611 c 0.031,0.294 0.047,0.594 0.047,0.898 v 0.046 c 0,0.342 -0.02,0.68 -0.06,1.01 H 26 v 1.86 H 23.92 C 22.767,21.905 19.77,24 15.83,24 H 9.277 V 18.869 H 7 v -1.86 H 9.277 V 15.055 H 7 v -1.86 h 2.277 z m 1.831,10.869 v 3.462 h 4.72 c 2.914,0 5.078,-1.387 6.085,-3.462 z m 11.366,-1.86 H 11.108 v -1.954 h 11.37 c 0.041,0.307 0.063,0.622 0.063,0.944 v 0.045 c 0,0.329 -0.023,0.65 -0.067,0.964 z M 15.83,9.665 c 2.926,0 5.097,1.424 6.098,3.528 H 11.108 V 9.666 h 4.72 z"
       fill="#ffffff"
       id="path1679" />
  </g>
</svg>
