<svg width="512" height="512" viewBox="0 0 512 512" fill="none" xmlns="http://www.w3.org/2000/svg">
<path d="M256 0V512C397.4 512 512 397.4 512 256C512 114.6 397.4 0 256 0Z" fill="#4ACFD9"/>
<path d="M0 256C0 397.4 114.6 512 256 512V0C114.6 0 0 114.6 0 256Z" fill="#0295AA"/>
<path d="M416.7 171.299C406.4 156.799 389.7 148.199 372 148.199H256V203.399H371.5L335.3 308.099H256V363.299H335.5C358.9 363.299 379.8 348.399 387.4 326.299L423.8 220.999C429.6 204.299 426.9 185.699 416.7 171.299Z" fill="white"/>
<path d="M130.001 308.1L112.801 363.3H256.001V308.1H130.001Z" fill="#E6EAEA"/>
<path d="M162.5 203.399H256V148.199H179.7L162.5 203.399Z" fill="#E6EAEA"/>
<path d="M85.1992 283.4H234.199L250.199 231.6V228.1H102.299L85.1992 283.4Z" fill="#E6EAEA"/>
</svg>
