<?xml version="1.0" encoding="UTF-8" standalone="no"?>
<svg
   width="512"
   height="512"
   viewBox="0 0 512 512"
   version="1.1"
   id="svg2005"
   xmlns="http://www.w3.org/2000/svg"
   xmlns:svg="http://www.w3.org/2000/svg">
  <defs
     id="defs1995">
    <filter
       id="a"
       x="0"
       y="0"
       width="1"
       height="1">
      <feColorMatrix
         in="SourceGraphic"
         values="0 0 0 0 1.000000 0 0 0 0 1.000000 0 0 0 0 1.000000 0 0 0 1.000000 0"
         id="feColorMatrix1992" />
    </filter>
  </defs>
  <g
     fill="none"
     fill-rule="evenodd"
     id="g2003"
     transform="scale(16)">
    <circle
       fill="#ff2d55"
       fill-rule="nonzero"
       cx="16"
       cy="16"
       r="16"
       id="circle1997" />
    <g
       filter="url(#a)"
       id="g2001">
      <path
         d="M 12.793,11.534 5.748,19.988 A 10.912,10.912 0 0 1 5,16 C 5,9.923 9.923,5 16,5 c 6.078,0 11,4.923 11,11 0,3.36 -1.507,6.369 -3.883,8.387 H 8.883 A 11.511,11.511 0 0 1 7.2,22.6 H 19.762 V 17.837 L 23.727,22.6 H 24.8 l -5.043,-6.05 -1.392,1.672 -5.571,-6.688 z M 19.758,9.4 a 2.751,2.751 0 0 0 0,5.5 2.751,2.751 0 0 0 0,-5.5 z M 12.795,7.409 a 1.376,1.376 0 1 0 0,2.751 1.376,1.376 0 0 0 0,-2.751 z M 9.989,25.212 H 22.012 A 10.97,10.97 0 0 1 16,27 10.97,10.97 0 0 1 9.989,25.212 Z m 7.843,-6.346 -2.426,2.909 H 6.639 A 11.056,11.056 0 0 1 5.748,19.988 h 7.046 V 12.82 l 5.038,6.045 z"
         fill="#16141a"
         fill-rule="nonzero"
         id="path1999" />
    </g>
  </g>
</svg>
