<svg width="512" height="512" viewBox="0 0 512 512" fill="none" xmlns="http://www.w3.org/2000/svg">
<g clip-path="url(#clip0_1_222)">
<path fill-rule="evenodd" clip-rule="evenodd" d="M256 455.206H286.906L256 428.287V455.206ZM256 331.378V304.319H352.024C363.306 304.285 374.471 302.035 384.882 297.697C395.292 293.358 404.744 287.017 412.698 279.035C420.651 271.053 426.951 261.587 431.237 251.176C435.523 240.765 437.712 229.614 437.678 218.36C437.739 195.635 428.75 173.817 412.687 157.703C396.625 141.589 374.804 132.498 352.024 132.429H311.584L256 84.0655V57H352.024C389.416 57.0891 425.613 70.1482 454.411 93.9393C483.209 117.73 502.816 150.772 509.871 187.402C517.075 224.053 511.329 262.061 493.611 294.962C475.892 327.864 447.295 353.627 412.683 367.87L512.92 455.149H398.13L256 331.378ZM256 180.954L286.934 207.916H256V180.954Z" fill="white"/>
<path fill-rule="evenodd" clip-rule="evenodd" d="M256 57H225.023L256 84.0663V57ZM256 180.955V207.916H160.205C137.524 207.985 115.798 217.071 99.8036 233.18C83.8088 249.288 74.8538 271.098 74.9071 293.818C74.8462 316.542 83.7978 338.36 99.7934 354.475C115.789 370.589 137.519 379.68 160.205 379.748H200.505L256 428.288V455.206H160.205C122.968 455.117 86.9222 442.058 58.2437 418.267C29.5652 394.476 10.04 361.434 3.01424 324.804C-4.15949 288.154 1.56263 250.145 19.2074 217.244C36.8522 184.342 65.33 158.579 99.7975 144.336L0.0640561 57H114.377L256 180.955ZM256 331.379V304.319H225.056L225.023 304.29V304.319H225.056L256 331.379Z" fill="#E6EAEA"/>
</g>
<defs>
<clipPath id="clip0_1_222">
<rect width="512" height="512" fill="white"/>
</clipPath>
</defs>
</svg>
