<?xml version="1.0" encoding="UTF-8" standalone="no"?>
<svg
   viewBox="0 0 512 512"
   version="1.1"
   id="svg2203"
   width="512"
   height="512"
   xmlns="http://www.w3.org/2000/svg"
   xmlns:svg="http://www.w3.org/2000/svg">
  <defs
     id="defs2207" />
  <g
     fill="none"
     fill-rule="evenodd"
     id="g2201"
     transform="scale(16)">
    <circle
       cx="16"
       cy="16"
       r="16"
       fill="#2ed6a1"
       id="circle2197" />
    <path
       fill="#ffffff"
       fill-rule="nonzero"
       d="m 14.856,17.62 h 4.42 a 2.987,2.987 0 0 0 2.978,-2.996 2.987,2.987 0 0 0 -2.978,-2.995 H 17.87 L 14.856,9 h 4.42 a 5.602,5.602 0 0 1 5.488,4.545 5.632,5.632 0 0 1 -3.379,6.29 l 3.485,3.042 h -3.991 l -6.023,-5.258 z m 2.157,-3.36 h -4.42 a 2.987,2.987 0 0 0 -2.978,2.994 2.987,2.987 0 0 0 2.978,2.995 H 14 l 3.012,2.63 h -4.419 a 5.602,5.602 0 0 1 -5.488,-4.545 5.632,5.632 0 0 1 3.379,-6.29 L 7.002,9 h 3.991 z"
       id="path2199" />
  </g>
</svg>
