<svg width="512" height="512" viewBox="0 0 512 512" fill="none" xmlns="http://www.w3.org/2000/svg">
<path d="M256 0V512C114.615 512 0 397.385 0 256C0 114.615 114.615 0 256 0Z" fill="#9BAAAB"/>
<path d="M256 512V0C397.385 0 512 114.615 512 256C512 397.385 397.385 512 256 512Z" fill="#CDD4D5"/>
<path fill-rule="evenodd" clip-rule="evenodd" d="M256.031 432C256.031 432 256.032 432 256.032 432C275.773 432 291.781 416.304 291.781 396.944V316.72L362.637 356.832C379.734 366.512 401.607 360.768 411.477 344C413.818 340.01 415.337 335.594 415.946 331.01C416.554 326.426 416.239 321.767 415.02 317.306C413.8 312.846 411.701 308.673 408.844 305.033C405.988 301.394 402.432 298.361 398.386 296.112L327.545 256L398.386 215.888C402.432 213.639 405.988 210.606 408.844 206.966C411.701 203.327 413.8 199.154 415.02 194.694C416.239 190.233 416.554 185.574 415.946 180.99C415.337 176.406 413.818 171.99 411.477 168C401.607 151.232 379.734 145.488 362.637 155.168L291.781 195.28V115.04C291.781 95.696 275.773 80 256.032 80C256.032 80 256.031 80 256.031 80V91.216C256.031 91.216 256.032 91.216 256.032 91.216C269.46 91.216 280.34 101.888 280.34 115.056V201.744L256.032 215.52L256.031 215.52V228.48L256.032 228.48L280.34 242.24V269.76L256.032 283.52L256.031 283.52V296.48L256.032 296.48L280.34 310.24V396.944C280.34 410.112 269.46 420.784 256.032 420.784C256.032 420.784 256.031 420.784 256.031 420.784V432ZM386.737 349.513C392.941 347.883 398.261 343.895 401.559 338.4V338.384C408.273 326.992 404.299 312.4 392.666 305.824L316.104 262.48L291.781 276.24V303.76L368.358 347.12C373.936 350.283 380.533 351.142 386.737 349.513ZM304.664 256L291.781 248.72V263.28L304.664 256ZM280.34 214.704L267.473 222L280.34 229.28V214.704ZM280.34 297.28V282.72L267.473 290L280.34 297.28ZM386.74 162.494C380.536 160.862 373.938 161.718 368.358 164.88L291.781 208.24V235.76L316.104 249.536L392.666 206.176C404.283 199.6 408.289 185.008 401.559 173.616C398.264 168.119 392.945 164.127 386.74 162.494Z" fill="white"/>
<path fill-rule="evenodd" clip-rule="evenodd" d="M256.031 80C236.349 80.0001 220.389 95.6961 220.389 115.056V195.28L149.743 155.168C132.697 145.488 110.889 151.232 101.064 168C98.7304 171.99 97.2158 176.406 96.6093 180.99C96.0028 185.574 96.3167 190.233 97.5326 194.694C98.7484 199.154 100.842 203.327 103.689 206.966C106.537 210.606 110.082 213.639 114.117 215.888L184.731 256L114.117 296.112C110.081 298.359 106.534 301.392 103.685 305.031C100.836 308.669 98.7407 312.842 97.5233 317.303C96.306 321.764 95.9907 326.423 96.596 331.008C97.2014 335.592 98.715 340.009 101.048 344C110.889 360.768 132.697 366.512 149.743 356.832L220.389 316.72V396.944C220.389 416.304 236.349 432 256.031 432V420.784C242.644 420.784 231.796 410.112 231.796 396.944V310.24L256.031 296.48V283.52L231.796 269.76V242.24L256.031 228.48V215.52L231.796 201.76V115.056C231.796 101.888 242.659 91.2161 256.031 91.216V80ZM125.711 349.506C131.898 351.138 138.476 350.282 144.04 347.12L220.389 303.76V276.24L196.137 262.464L119.804 305.824C117.063 307.355 114.654 309.418 112.719 311.893C110.784 314.368 109.362 317.205 108.537 320.237C107.711 323.27 107.498 326.437 107.91 329.553C108.322 332.669 109.352 335.671 110.937 338.384C114.223 343.881 119.525 347.873 125.711 349.506ZM112.719 200.107C114.654 202.582 117.063 204.645 119.804 206.176L196.137 249.52L220.389 235.76V208.24L144.04 164.88C138.476 161.718 131.898 160.862 125.711 162.494C119.525 164.127 114.223 168.119 110.937 173.616C109.352 176.329 108.322 179.331 107.91 182.447C107.498 185.563 107.711 188.73 108.537 191.763C109.362 194.795 110.784 197.632 112.719 200.107ZM244.625 222L231.796 214.72V229.28L244.625 222ZM207.544 256L220.389 263.28V248.72L207.544 256ZM231.796 297.296L244.625 290L231.796 282.72V297.296Z" fill="#E6EAEA"/>
</svg>
