<svg width="512" height="512" viewBox="0 0 512 512" fill="none" xmlns="http://www.w3.org/2000/svg">
<path fill-rule="evenodd" clip-rule="evenodd" d="M256 510C256 510 256 510 256 510C284.549 510 307.699 487.303 307.699 459.308V343.303L410.168 401.305C434.893 415.303 466.524 406.997 480.798 382.75C484.183 376.981 486.38 370.595 487.26 363.966C488.139 357.338 487.684 350.601 485.92 344.15C484.157 337.7 481.121 331.666 476.99 326.404C472.859 321.141 467.717 316.755 461.866 313.503L359.42 255.5L461.866 197.497C467.717 194.245 472.859 189.859 476.99 184.596C481.121 179.334 484.157 173.3 485.92 166.85C487.684 160.399 488.139 153.662 487.26 147.034C486.38 140.405 484.183 134.019 480.798 128.25C466.524 104.003 434.893 95.6971 410.168 109.695L307.699 167.697V51.6686C307.699 23.6968 284.549 1 256 1C256 1 256 1 256 1V17.2186C256 17.2186 256 17.2186 256 17.2186C275.419 17.2186 291.153 32.6505 291.153 51.6918V177.045L256 196.965L256 196.965V215.706L256 215.705L291.153 235.603V275.397L256 295.295L256 295.294V314.035L256 314.035L291.153 333.932V459.308C291.153 478.349 275.419 493.781 256 493.781C256 493.781 256 493.781 256 493.781V510ZM445.02 390.721C453.992 388.365 461.685 382.598 466.454 374.652V374.629C476.163 358.156 470.417 337.056 453.593 327.547L342.875 264.87L307.699 284.767V324.562L418.44 387.262C426.508 391.836 436.047 393.078 445.02 390.721ZM326.329 255.5L307.699 244.973V266.027L326.329 255.5ZM291.153 195.785L272.546 206.335L291.153 216.862V195.785ZM291.153 315.192V294.138L272.546 304.665L291.153 315.192ZM445.025 120.288C436.052 117.928 426.51 119.166 418.44 123.738L307.699 186.438V226.232L342.875 246.153L453.593 183.453C470.393 173.944 476.186 152.844 466.454 136.371C461.689 128.421 453.997 122.649 445.025 120.288Z" fill="#FFD1A9"/>
<path fill-rule="evenodd" clip-rule="evenodd" d="M256 1C256 1 256 1 256 1C227.536 1 204.456 23.6968 204.456 51.6918V167.697L102.291 109.695C77.6396 95.6971 46.1031 104.003 31.8943 128.25C28.5192 134.019 26.3289 140.405 25.4518 147.034C24.5748 153.662 25.0287 160.399 26.787 166.85C28.5452 173.3 31.5724 179.334 35.6908 184.596C39.8092 189.859 44.9359 194.245 50.77 197.497L152.888 255.5L50.77 313.503C44.934 316.753 39.8051 321.137 35.6844 326.399C31.5636 331.661 28.5341 337.695 26.7737 344.145C25.0132 350.596 24.5573 357.333 25.4326 363.963C26.308 370.592 28.497 376.979 31.8712 382.75C46.1031 406.997 77.6396 415.303 102.291 401.305L204.456 343.303V459.308C204.456 487.303 227.536 510 256 510C256 510 256 510 256 510V493.781C256 493.781 256 493.781 256 493.781C236.639 493.781 220.952 478.349 220.952 459.308V333.932L256 314.035L256 314.035V295.294L256 295.295L220.952 275.397V235.603L256 215.705L256 215.706V196.965L256 196.965L220.952 177.068V51.6918C220.952 32.6505 236.662 17.2186 256 17.2186C256 17.2186 256 17.2186 256 17.2186V1ZM67.5379 390.712C76.4839 393.072 85.9971 391.834 94.0432 387.262L204.456 324.562V284.767L169.384 264.847L58.9949 327.547C55.0305 329.76 51.5472 332.743 48.7492 336.322C45.9511 339.901 43.8947 344.004 42.7005 348.389C41.5062 352.774 41.1981 357.354 41.7943 361.859C42.3905 366.365 43.879 370.707 46.1724 374.629C50.9235 382.579 58.592 388.351 67.5379 390.712ZM48.7492 174.678C51.5472 178.257 55.0305 181.24 58.9949 183.453L169.384 246.13L204.456 226.232V186.438L94.0432 123.738C85.9971 119.166 76.4839 117.928 67.5379 120.288C58.592 122.649 50.9235 128.421 46.1724 136.371C43.879 140.293 42.3905 144.635 41.7943 149.141C41.1981 153.646 41.5062 158.226 42.7005 162.611C43.8947 166.996 45.9511 171.099 48.7492 174.678ZM239.504 206.335L220.952 195.808V216.862L239.504 206.335ZM185.88 255.5L204.456 266.027V244.973L185.88 255.5ZM220.952 315.215L239.504 304.665L220.952 294.138V315.215Z" fill="#FF8C29"/>
</svg>
