<?xml version="1.0" encoding="UTF-8" standalone="no"?>
<svg
   viewBox="0 0 512 512"
   version="1.1"
   id="svg9346"
   width="512"
   height="512"
   xmlns="http://www.w3.org/2000/svg"
   xmlns:svg="http://www.w3.org/2000/svg">
  <defs
     id="defs9350" />
  <g
     fill="none"
     fill-rule="evenodd"
     id="g9344"
     transform="scale(16)">
    <circle
       cx="16"
       cy="16"
       fill="#666666"
       r="16"
       id="circle9340" />
    <path
       d="m 25.082,21.15 a 1.533,1.533 0 0 1 -2.072,0.545 l -4.779,-2.71 v -1.72 l 1.518,-0.86 4.778,2.709 c 0.726,0.411 0.974,1.323 0.555,2.035 z m -7.565,3.659 c 0,0.823 -0.679,1.49 -1.517,1.49 -0.838,0 -1.517,-0.667 -1.517,-1.49 V 19.39 L 16,18.53 17.517,19.39 Z M 8.99,21.695 A 1.533,1.533 0 0 1 6.918,21.149 1.476,1.476 0 0 1 7.473,19.114 l 4.778,-2.71 1.518,0.861 v 1.72 z M 7.473,12.886 A 1.476,1.476 0 0 1 6.918,10.851 1.533,1.533 0 0 1 8.99,10.305 l 4.779,2.71 v 1.72 l -1.518,0.86 z m 7.01,-5.695 c 0,-0.823 0.68,-1.49 1.517,-1.49 0.838,0 1.517,0.667 1.517,1.49 v 5.418 L 16,13.47 14.483,12.61 Z m 3.748,8.354 0.804,0.455 -0.804,0.455 z m -1.517,-1.67 0.803,-0.456 v 0.911 z m -2.231,0.455 v -0.91 l 0.803,0.455 z M 13.769,16.455 12.965,16 13.769,15.545 Z m 1.517,1.67 -0.803,0.456 V 17.67 Z m 2.231,-0.455 v 0.91 L 16.714,18.125 Z M 16,17.72 14.483,16.86 V 15.14 L 16,14.28 l 1.517,0.86 v 1.72 z m 7.01,-7.415 a 1.533,1.533 0 0 1 2.072,0.546 c 0.42,0.712 0.17,1.624 -0.555,2.035 l -4.778,2.71 -1.518,-0.861 v -1.72 z M 24.884,18.507 20.463,16 24.884,13.493 A 2.17,2.17 0 0 0 25.701,10.5 C 25.085,9.452 23.72,9.093 22.653,9.698 l -4.422,2.507 V 7.19 C 18.231,5.981 17.232,5 16,5 14.768,5 13.769,5.981 13.769,7.191 v 5.014 L 9.347,9.698 C 8.28,9.093 6.915,9.452 6.3,10.5 a 2.17,2.17 0 0 0 0.817,2.993 L 11.537,16 7.117,18.507 A 2.17,2.17 0 0 0 6.299,21.5 c 0.616,1.048 1.981,1.407 3.048,0.802 l 4.422,-2.507 v 5.014 c 0,1.21 0.999,2.191 2.231,2.191 1.232,0 2.231,-0.981 2.231,-2.191 v -5.014 l 4.422,2.507 c 1.067,0.605 2.432,0.246 3.048,-0.802 a 2.17,2.17 0 0 0 -0.817,-2.993 z"
       fill="#ffffff"
       id="path9342" />
  </g>
</svg>
