<svg width="512" height="512" viewBox="0 0 512 512" fill="none" xmlns="http://www.w3.org/2000/svg">
<path fill-rule="evenodd" clip-rule="evenodd" d="M242.434 454.429C273.731 445.794 304.039 434.319 332.953 418.964C364.763 402.077 393.768 381.207 418.901 354.951C455.368 316.83 480.557 271.584 498.285 221.794C505.775 200.784 509.898 179.016 508.72 156.435C507.486 133.153 499.716 112.536 484.064 95.2843C472.507 82.4931 458.453 73.3766 442.997 66.3919C422.66 57.2193 401.229 52.2262 379.209 49.5333C378.358 49.4198 377.507 49.2554 376.57 49.0743C376.117 48.9868 375.645 48.8954 375.142 48.804C375.328 48.2618 375.499 47.7582 375.66 47.2829C376.083 46.0371 376.439 44.9868 376.825 43.9512C377.644 41.7738 378.464 39.5976 379.284 37.4216C382.34 29.3098 385.396 21.2006 388.382 13.0391C390.766 6.58739 388.382 3.05299 381.706 3.02493C371.158 2.98753 360.597 3 350.041 3.01247C344.764 3.0187 339.488 3.02493 334.216 3.02493C330.485 3.02493 330.429 3.05299 329.026 6.78376L315.113 43.7268C314.608 44.9891 314.047 46.2233 313.486 47.4295H290.905C291.086 46.8778 291.255 46.3503 291.419 45.8405C291.812 44.6138 292.172 43.4901 292.588 42.3803C294.313 37.7379 296.06 33.1025 297.806 28.4671C299.552 23.8317 301.298 19.1963 303.023 14.5539L303.023 14.5537C303.584 13.0951 304.145 11.6365 304.37 10.1218C304.903 6.4752 302.855 3.67011 299.292 3.10909C298.41 2.98298 297.495 2.99861 296.573 3.01437C296.265 3.01965 295.955 3.02493 295.646 3.02493H245.659L242.434 11.5583V133.321H313.122C329.054 133.405 343.809 137.445 356.937 146.898C366.758 153.829 373.718 164.1 376.517 175.79C379.294 186.87 378.648 197.979 376.601 209.059C373.149 228.006 366.811 246.312 357.807 263.337C329.823 316.274 291.424 352.383 242.434 371.277V454.429Z" fill="#4ACFD9"/>
<path fill-rule="evenodd" clip-rule="evenodd" d="M242.432 11.7629L228.8 47.8286H64.2533C60.1727 47.6623 56.1312 48.6811 52.6169 50.7618C49.1026 52.8424 46.2659 55.8961 44.4494 59.5538L5.51475 129.709C5.18262 130.338 4.93764 131.011 4.63725 131.836C4.4556 132.335 4.25369 132.89 4 133.524H242.432V11.7629ZM242.432 371.48C219.332 380.389 193.878 385.47 166.05 386.683C165.206 386.721 164.362 386.658 163.409 386.587C162.937 386.552 162.438 386.515 161.898 386.487C162.157 385.732 162.387 385.04 162.603 384.392C162.996 383.21 163.341 382.172 163.722 381.157L221.45 227.607C222.943 223.634 224.451 219.662 225.96 215.687C228.905 207.93 231.853 200.165 234.691 192.375C237.916 183.455 232.755 175.6 223.47 174.899C222.573 174.843 221.647 174.843 220.721 174.843H128.995C128.075 174.843 127.168 174.935 126.328 175.02C125.938 175.059 125.563 175.097 125.208 175.124C120.692 183.735 7.0856 470.191 6.74899 473.922C24.7202 475.972 42.76 476.446 61.2187 476.931C63.2163 476.984 65.2188 477.037 67.2267 477.091L55.9503 507.527C56.3068 507.635 56.5884 507.738 56.824 507.825C57.2001 507.964 57.4588 508.06 57.7175 508.06L57.8014 508.06C75.4453 508.088 93.0335 508.116 110.678 508.088C114.689 508.06 117.578 505.872 119.457 502.365C120.085 501.192 120.551 499.931 121.015 498.677C121.195 498.192 121.374 497.709 121.561 497.232L130.145 474.511L153.988 472.154L140.552 508.116H192.951C200.3 508.116 202.965 506.208 205.63 499.195C206.365 497.248 207.102 495.3 207.839 493.351C211.432 483.853 215.027 474.348 218.449 464.805C219.599 461.495 221.366 460.036 224.732 459.195C230.665 457.769 236.566 456.251 242.432 454.632V371.48Z" fill="#0295AA"/>
</svg>
