<?xml version="1.0" encoding="UTF-8" standalone="no"?>
<svg
   viewBox="0 0 512 512"
   version="1.1"
   id="svg2400"
   width="512"
   height="512"
   xmlns="http://www.w3.org/2000/svg"
   xmlns:svg="http://www.w3.org/2000/svg">
  <defs
     id="defs2404" />
  <g
     fill="none"
     fill-rule="evenodd"
     id="g2398"
     transform="scale(16)">
    <circle
       cx="16"
       cy="16"
       r="16"
       fill="#006ad2"
       id="circle2394" />
    <path
       fill="#ffffff"
       d="m 12.368,25 0.479,-1.282 -0.85,0.084 -0.306,0.81 c -0.024,0.061 -0.044,0.125 -0.075,0.183 -0.067,0.125 -0.17,0.203 -0.313,0.204 -0.63,0.001 -1.258,0 -1.888,-10e-4 -0.015,0 -0.03,-0.009 -0.063,-0.019 L 9.754,23.894 C 9.021,23.874 8.308,23.862 7.598,23.781 7.61,23.648 11.66,13.436 11.821,13.129 c 0.04,-0.003 0.087,-0.01 0.135,-0.01 h 3.27 c 0.033,0 0.066,0 0.098,0.002 0.331,0.025 0.515,0.305 0.4,0.623 -0.153,0.42 -0.315,0.838 -0.472,1.256 l -2.058,5.474 c -0.021,0.056 -0.039,0.114 -0.065,0.19 0.058,0.003 0.103,0.009 0.148,0.007 3.096,-0.135 5.368,-1.613 6.836,-4.39 a 6.711,6.711 0 0 0 0.67,-1.935 C 20.856,13.951 20.879,13.555 20.78,13.16 A 1.763,1.763 0 0 0 20.082,12.13 C 19.614,11.793 19.088,11.649 18.52,11.646 H 7.5 c 0.024,-0.06 0.035,-0.1 0.054,-0.136 L 8.942,9.009 A 0.754,0.754 0 0 1 9.648,8.591 h 5.866 l 0.601,-1.59 h 1.782 c 0.044,0 0.088,-0.003 0.13,0.003 0.127,0.02 0.2,0.12 0.181,0.25 C 18.2,7.308 18.18,7.36 18.16,7.412 18.037,7.743 17.911,8.073 17.788,8.404 17.767,8.46 17.75,8.517 17.728,8.584 h 0.805 c 0.02,-0.043 0.04,-0.087 0.058,-0.132 l 0.496,-1.317 c 0.05,-0.133 0.052,-0.134 0.185,-0.134 0.564,0 1.129,-0.002 1.693,0 0.238,10e-4 0.323,0.127 0.238,0.357 -0.135,0.369 -0.274,0.735 -0.412,1.102 -0.019,0.051 -0.036,0.103 -0.06,0.173 0.055,0.01 0.1,0.02 0.145,0.026 0.785,0.096 1.549,0.274 2.274,0.601 0.551,0.249 1.052,0.574 1.464,1.03 0.558,0.615 0.835,1.35 0.879,2.18 0.042,0.805 -0.105,1.581 -0.372,2.33 -0.632,1.775 -1.53,3.388 -2.83,4.747 -0.896,0.936 -1.93,1.68 -3.064,2.282 -1.224,0.65 -2.518,1.105 -3.858,1.427 -0.12,0.03 -0.183,0.082 -0.224,0.2 -0.147,0.41 -0.303,0.818 -0.457,1.226 C 14.593,24.932 14.498,25 14.236,25 Z"
       id="path2396" />
  </g>
</svg>
