<svg width="512" height="512" viewBox="0 0 512 512" fill="none" xmlns="http://www.w3.org/2000/svg">
<path fill-rule="evenodd" clip-rule="evenodd" d="M256 0V117.548C282.483 117.502 396.419 120.019 396.419 258.225C396.419 405.192 266.061 394.266 266.061 394.266H266.058H256L256 512C397.386 512 512 397.386 512 256C512 114.614 397.386 1.81462e-06 256 0Z" fill="#FFD1A9"/>
<path fill-rule="evenodd" clip-rule="evenodd" d="M256 343.117H263.936C264.053 343.117 264.179 343.117 264.314 343.117C275.477 343.131 344.871 343.218 344.763 259.221C344.652 174.211 275.824 168.704 262.144 168.704H256V240.817H283.113V271.009H256V343.117Z" fill="#FFD1A9"/>
<path fill-rule="evenodd" clip-rule="evenodd" d="M0 256C0 114.614 114.614 0 256 0V117.548C255.413 117.549 254.869 117.551 254.37 117.553C253.832 117.556 253.346 117.558 252.915 117.558H173.345V240.819H140.667V271.012H173.348V394.266H256V512C114.614 512 0 397.386 0 256Z" fill="#FF8C29"/>
<path fill-rule="evenodd" clip-rule="evenodd" d="M256 168.704H225.566V240.817H256V168.704ZM256 271.009H225.566V343.117H256V271.009Z" fill="#FF8C29"/>
</svg>
