<?xml version="1.0" encoding="UTF-8" standalone="no"?>
<svg
   xmlns:dc="http://purl.org/dc/elements/1.1/"
   xmlns:cc="http://creativecommons.org/ns#"
   xmlns:rdf="http://www.w3.org/1999/02/22-rdf-syntax-ns#"
   xmlns:svg="http://www.w3.org/2000/svg"
   xmlns="http://www.w3.org/2000/svg"
   xmlns:sodipodi="http://sodipodi.sourceforge.net/DTD/sodipodi-0.dtd"
   xmlns:inkscape="http://www.inkscape.org/namespaces/inkscape"
   viewBox="0 0 426.4 426.4"
   width="533"
   height="533"
   version="1.1"
   id="svg871"
   sodipodi:docname="dogecoin.svg"
   inkscape:version="1.0.1 (3bc2e813f5, 2020-09-07)"
   inkscape:export-filename="E:\Superalgos\Projects\Superalgos\Icons\dogecoin.png"
   inkscape:export-xdpi="92.217636"
   inkscape:export-ydpi="92.217636">
  <metadata
     id="metadata877">
    <rdf:RDF>
      <cc:Work
         rdf:about="">
        <dc:format>image/svg+xml</dc:format>
        <dc:type
           rdf:resource="http://purl.org/dc/dcmitype/StillImage" />
        <dc:title></dc:title>
      </cc:Work>
    </rdf:RDF>
  </metadata>
  <defs
     id="defs875" />
  <sodipodi:namedview
     pagecolor="#ffffff"
     bordercolor="#666666"
     borderopacity="1"
     objecttolerance="10"
     gridtolerance="10"
     guidetolerance="10"
     inkscape:pageopacity="0"
     inkscape:pageshadow="2"
     inkscape:window-width="1920"
     inkscape:window-height="1017"
     id="namedview873"
     showgrid="false"
     fit-margin-top="0"
     fit-margin-left="0"
     fit-margin-right="0"
     fit-margin-bottom="0"
     inkscape:zoom="0.68"
     inkscape:cx="158.093"
     inkscape:cy="315.8093"
     inkscape:window-x="-8"
     inkscape:window-y="-8"
     inkscape:window-maximized="1"
     inkscape:current-layer="layer2" />
  <g
     inkscape:groupmode="layer"
     id="layer2"
     inkscape:label="Layer 2"
     style="display:inline">
    <rect
       style="fill:#f5f5f5;stroke:#4acfd9;stroke-width:0.8"
       id="rect1444"
       width="257.64706"
       height="250.58823"
       x="96.470581"
       y="88.235298" />
  </g>
  <g
     inkscape:groupmode="layer"
     id="layer1"
     inkscape:label="Layer 1"
     style="display:inline">
    <g
       fill="#c2a633"
       id="g869">
      <path
         d="m 218.3168,140.4988 h -30.46202 v 60.05631 H 235.78 v 25.14479 h -47.92522 v 60.0521 h 31.95442 c 8.2103,0 67.4053,0.9274 67.3136,-69.8699 -0.092,-70.79737 -57.4126,-75.3833 -68.806,-75.3833 z"
         id="path865"
         style="stroke-width:0.2132" />
      <path
         d="M 213.2,0 C 95.451766,0 0,95.45177 0,213.2 0,330.9482 95.451766,426.4 213.2,426.4 330.9482,426.4 426.4,330.9482 426.4,213.2 426.4,95.45177 330.9482,0 213.2,0 Z m 8.3766,328.3493 H 144.36625 V 225.702 h -27.21711 v -25.14476 h 27.21498 V 97.90357 h 66.26682 c 15.67656,0 119.51136,-3.25556 119.51136,117.14913 0,122.396 -108.5635,113.2966 -108.5635,113.2966 z"
         id="path867"
         style="stroke-width:0.2132" />
    </g>
  </g>
</svg>
