<svg width="512" height="512" viewBox="0 0 512 512" fill="none" xmlns="http://www.w3.org/2000/svg">
<path d="M256 0V512C114.615 512 0 397.385 0 256C0 114.615 114.615 0 256 0Z" fill="#0295AA"/>
<path d="M256 512V0C397.385 0 512 114.615 512 256C512 397.385 397.385 512 256 512Z" fill="#4ACFD9"/>
<path fill-rule="evenodd" clip-rule="evenodd" d="M256.262 178.606V115C256.222 115 256.183 115 256.143 115C251.332 115 246.612 116.312 242.495 118.795L143.81 175.535C139.596 177.884 136.092 181.318 133.663 185.48C131.234 189.642 129.969 194.378 130.001 199.195C130.001 211.875 130.019 224.535 130.037 237.181C130.072 262.435 130.108 287.635 130.001 312.835C129.961 317.643 131.214 322.374 133.628 326.535C136.043 330.696 139.531 334.135 143.729 336.495L242.414 393.395C246.559 395.801 251.268 397.069 256.063 397.069C256.71 397.069 257.357 397.046 258 397H256.262V333.6C256.202 333.601 256.143 333.601 256.083 333.601C253.092 333.601 250.157 332.797 247.585 331.275L195.116 300.935C192.509 299.476 190.343 297.342 188.848 294.759C187.352 292.176 186.582 289.238 186.618 286.255V225.775C186.605 222.839 187.367 219.951 188.827 217.402C190.287 214.853 192.394 212.733 194.936 211.255C203.684 206.195 212.467 201.14 221.25 196.085C230.033 191.03 238.817 185.975 247.565 180.915C250.14 179.402 253.074 178.605 256.063 178.605C256.129 178.605 256.196 178.605 256.262 178.606ZM256.262 291.888V219.369L226.982 236.195C226.176 236.657 225.508 237.324 225.047 238.129C224.586 238.934 224.347 239.847 224.357 240.775V271.415C224.348 272.32 224.589 273.211 225.051 273.99C225.514 274.77 226.182 275.407 226.982 275.835L253.598 291.155C254.356 291.635 255.235 291.89 256.133 291.89C256.176 291.89 256.219 291.889 256.262 291.888Z" fill="#E6EAEA"/>
<path fill-rule="evenodd" clip-rule="evenodd" d="M256.132 219.369L290.333 199.674C290.677 199.479 290.965 199.198 291.167 198.859C291.37 198.519 291.481 198.133 291.489 197.737C291.497 197.342 291.402 196.951 291.213 196.603C291.025 196.256 290.749 195.963 290.413 195.754L264.413 180.914C261.9 179.436 259.046 178.64 256.132 178.606V115C260.892 115.022 265.558 116.332 269.633 118.794L368.133 175.514C386.733 186.274 386.733 217.274 368.133 228.034L258.533 291.154C257.813 291.612 256.983 291.865 256.132 291.888V219.369ZM256.132 333.6V397H254C254.642 397.046 255.287 397.069 255.933 397.069C260.718 397.069 265.418 395.801 269.553 393.394L368.133 336.494C372.313 334.137 375.778 330.694 378.162 326.529C380.545 322.364 381.759 317.632 381.673 312.834V263.434L264.433 331.274C261.918 332.767 259.055 333.568 256.132 333.6Z" fill="white"/>
</svg>
