<?xml version="1.0" encoding="UTF-8" standalone="no"?>
<svg
   id="Layer_1"
   data-name="Layer 1"
   viewBox="0 0 512 512"
   version="1.1"
   width="512"
   height="512"
   xmlns="http://www.w3.org/2000/svg"
   xmlns:svg="http://www.w3.org/2000/svg">
  <defs
     id="defs1410">
    <style
       id="style1401">.cls-1{fill:#fff;}.cls-2{fill:url(#New_Gradient_Swatch_2);}</style>
    <linearGradient
       id="New_Gradient_Swatch_2"
       x1="-91.220001"
       y1="-135.07001"
       x2="342.81"
       y2="385.76999"
       gradientUnits="userSpaceOnUse">
      <stop
         offset="0"
         stop-color="#273498"
         id="stop1403" />
      <stop
         offset="0.53"
         stop-color="#0074c2"
         id="stop1405" />
      <stop
         offset="1"
         stop-color="#00abe7"
         id="stop1407" />
    </linearGradient>
  </defs>
  <g
     id="g1504"
     transform="scale(2)">
    <path
       class="cls-1"
       d="m 145.1,99.82 -31.71,18.26 a 2.61,2.61 0 0 0 -1.31,2.29 v 15.32 a 2.48,2.48 0 0 0 1.31,2.21 l 13.28,7.66 a 2.36,2.36 0 0 0 2.53,0 L 184,114 c 9.3,-5.38 9.3,-20.88 0,-26.26 L 134.75,59.38 a 13.17,13.17 0 0 0 -13.62,0 L 71.89,87.75 A 13.45,13.45 0 0 0 65,99.58 c 0,19 0.08,37.91 0,56.82 a 13.45,13.45 0 0 0 6.85,11.83 l 49.24,28.45 a 13.54,13.54 0 0 0 13.62,0 L 184,168.23 a 13.31,13.31 0 0 0 6.77,-11.83 v -24.7 l -58.62,33.92 a 8.31,8.31 0 0 1 -8.48,0 L 97.49,150.45 a 8.3,8.3 0 0 1 -4.24,-7.34 v -30.24 a 8.36,8.36 0 0 1 4.15,-7.26 c 8.73,-5.06 17.53,-10.11 26.26,-15.17 a 8.36,8.36 0 0 1 8.48,0 l 13,7.42 a 1.14,1.14 0 0 1 -0.04,1.96 z"
       id="path1412" />
    <path
       class="cls-1"
       d="M 128,37.32 A 90.68,90.68 0 1 0 218.68,128 90.68,90.68 0 0 0 128,37.32 Z m 17.1,60.54 -13,-7.42 a 8.36,8.36 0 0 0 -8.48,0 c -8.73,5.06 -17.53,10.11 -26.26,15.17 a 8.36,8.36 0 0 0 -4.15,7.26 v 30.24 a 8.3,8.3 0 0 0 4.24,7.34 l 26.17,15.17 a 8.31,8.31 0 0 0 8.48,0 l 58.62,-33.92 v 24.7 A 13.31,13.31 0 0 1 184,168.23 l -49.24,28.45 a 13.54,13.54 0 0 1 -13.62,0 L 71.89,168.23 A 13.45,13.45 0 0 1 65,156.4 c 0.08,-18.91 0,-37.83 0,-56.82 a 13.45,13.45 0 0 1 6.85,-11.83 l 49.24,-28.37 a 13.17,13.17 0 0 1 13.62,0 L 184,87.75 c 9.3,5.38 9.3,20.88 0,26.26 l -54.8,31.55 a 2.36,2.36 0 0 1 -2.53,0 l -13.28,-7.66 a 2.48,2.48 0 0 1 -1.31,-2.21 v -15.32 a 2.61,2.61 0 0 1 1.31,-2.29 L 145.1,99.82 a 1.14,1.14 0 0 0 0,-1.96 z"
       id="path1414" />
    <path
       class="cls-2"
       d="M 128,0 A 128,128 0 1 0 256,128 128,128 0 0 0 128,0 Z m 17.1,97.86 -13,-7.42 a 8.36,8.36 0 0 0 -8.48,0 c -8.73,5.06 -17.53,10.11 -26.26,15.17 a 8.36,8.36 0 0 0 -4.15,7.26 v 30.24 a 8.3,8.3 0 0 0 4.24,7.34 l 26.17,15.17 a 8.31,8.31 0 0 0 8.48,0 l 58.62,-33.92 v 24.7 A 13.31,13.31 0 0 1 184,168.23 l -49.24,28.45 a 13.54,13.54 0 0 1 -13.62,0 L 71.89,168.23 A 13.45,13.45 0 0 1 65,156.4 c 0.08,-18.91 0,-37.83 0,-56.82 a 13.45,13.45 0 0 1 6.85,-11.83 l 49.24,-28.37 a 13.17,13.17 0 0 1 13.62,0 L 184,87.75 c 9.3,5.38 9.3,20.88 0,26.26 l -54.8,31.55 a 2.36,2.36 0 0 1 -2.53,0 l -13.28,-7.66 a 2.48,2.48 0 0 1 -1.31,-2.21 v -15.32 a 2.61,2.61 0 0 1 1.31,-2.29 L 145.1,99.82 a 1.14,1.14 0 0 0 0,-1.96 z"
       id="path1416"
       style="fill:url(#New_Gradient_Swatch_2)" />
  </g>
</svg>
