<?xml version="1.0" encoding="UTF-8" standalone="no"?>
<!-- Generator: Adobe Illustrator 24.0.0, SVG Export Plug-In . SVG Version: 6.00 Build 0)  -->

<svg
   version="1.1"
   id="Layer_1"
   x="0px"
   y="0px"
   viewBox="0 0 512.00001 512"
   xml:space="preserve"
   width="512"
   height="512"
   xmlns="http://www.w3.org/2000/svg"
   xmlns:svg="http://www.w3.org/2000/svg"><defs
   id="defs892" />
<style
   type="text/css"
   id="style821">
	.st0{fill-rule:evenodd;clip-rule:evenodd;fill:#0D022B;}
</style>
































<g
   id="g1043"
   transform="scale(4.0062063,3.9999467)"><g
     id="g1007"><path
       class="st0"
       d="m 102.3,25.4 c -0.5,-0.5 -0.8,-1 -0.8,-1.7 0,-0.7 0.3,-1.2 0.8,-1.7 1,-0.9 2.6,-0.9 3.7,0 0.5,0.5 0.8,1 0.8,1.7 0,0.7 -0.3,1.2 -0.8,1.7 -0.5,0.4 -1.2,0.7 -1.8,0.7 -0.7,0.1 -1.4,-0.1 -1.9,-0.7 z"
       id="path823" /><path
       class="st0"
       d="m 95.9,32.3 c -0.4,-0.5 -0.7,-1 -0.7,-1.7 0,-0.7 0.3,-1.2 0.7,-1.7 0.9,-0.9 2.5,-0.9 3.4,0 0.4,0.5 0.7,1 0.7,1.7 0,0.7 -0.3,1.2 -0.7,1.7 -0.5,0.4 -1,0.7 -1.7,0.7 -0.7,0 -1.2,-0.3 -1.7,-0.7 z"
       id="path825" /><path
       class="st0"
       d="m 88.9,38.9 c -0.4,-0.4 -0.7,-1 -0.7,-1.7 0,-0.7 0.3,-1.2 0.7,-1.7 0.9,-0.9 2.5,-0.9 3.4,0 0.4,0.4 0.7,1 0.7,1.7 0,0.7 -0.3,1.2 -0.7,1.7 -0.5,0.5 -1,0.7 -1.7,0.7 -0.7,0 -1.3,-0.3 -1.7,-0.7 z"
       id="path827" /><path
       class="st0"
       d="m 82.2,45.6 c -0.5,-0.4 -0.8,-1 -0.8,-1.7 0,-0.7 0.3,-1.2 0.8,-1.7 1,-0.9 2.6,-0.9 3.7,0 0.5,0.4 0.8,1 0.8,1.7 0,0.7 -0.3,1.3 -0.8,1.7 -0.5,0.5 -1.2,0.7 -1.8,0.7 -0.7,0 -1.3,-0.1 -1.9,-0.7 z"
       id="path829" /><path
       class="st0"
       d="m 75.8,52.3 c -0.5,-0.4 -0.7,-1 -0.7,-1.7 0,-0.7 0.3,-1.2 0.7,-1.7 0.9,-0.9 2.5,-0.9 3.4,0 0.5,0.4 0.7,1 0.7,1.7 0,0.7 -0.3,1.3 -0.7,1.7 -0.4,0.5 -1,0.7 -1.7,0.7 -0.6,0.1 -1.3,-0.1 -1.7,-0.7 z"
       id="path831" /><path
       class="st0"
       d="m 68.1,57.3 c 0,-0.7 0.3,-1.2 0.7,-1.7 0.9,-0.9 2.5,-0.9 3.4,0 0.5,0.5 0.7,1 0.7,1.7 0,0.7 -0.3,1.2 -0.7,1.7 -0.4,0.4 -1,0.7 -1.7,0.7 -0.7,0 -1.2,-0.3 -1.7,-0.7 -0.5,-0.4 -0.7,-1 -0.7,-1.7 z"
       id="path833" /><path
       class="st0"
       d="m 55.6,72.1 c -0.4,-0.4 -0.7,-1 -0.7,-1.7 0,-0.7 0.3,-1.2 0.7,-1.7 0.9,-0.9 2.5,-0.9 3.4,0 0.5,0.5 0.7,1 0.7,1.7 0,0.7 -0.3,1.2 -0.7,1.7 -0.4,0.5 -1,0.7 -1.7,0.7 -0.6,0.1 -1.2,-0.1 -1.7,-0.7 z"
       id="path835" /><path
       class="st0"
       d="m 48.7,78.8 c -0.5,-0.4 -0.8,-1 -0.8,-1.7 0,-0.7 0.3,-1.2 0.8,-1.7 1,-0.9 2.6,-0.9 3.7,0 0.5,0.5 0.8,1 0.8,1.7 0,0.7 -0.3,1.2 -0.8,1.7 -0.5,0.5 -1.2,0.7 -1.8,0.7 -0.8,0.1 -1.4,-0.2 -1.9,-0.7 z"
       id="path837" /><path
       class="st0"
       d="m 42.2,85.6 c -0.4,-0.4 -0.7,-1 -0.7,-1.7 0,-0.7 0.3,-1.3 0.7,-1.7 0.9,-0.9 2.5,-0.9 3.4,0 0.4,0.4 0.7,1 0.7,1.7 0,0.7 -0.3,1.2 -0.7,1.7 -0.5,0.5 -1,0.7 -1.7,0.7 -0.7,0 -1.1,-0.3 -1.7,-0.7 z"
       id="path839" /><path
       class="st0"
       d="m 35.5,92.3 c -0.5,-0.4 -0.7,-1 -0.7,-1.7 0,-0.7 0.3,-1.2 0.7,-1.7 0.9,-0.9 2.5,-0.9 3.4,0 0.4,0.5 0.7,1 0.7,1.7 0,0.7 -0.3,1.3 -0.7,1.7 -0.5,0.5 -1,0.7 -1.7,0.7 -0.6,0 -1.3,-0.2 -1.7,-0.7 z"
       id="path841" /><path
       class="st0"
       d="m 28.6,99 c -0.5,-0.4 -0.8,-1 -0.8,-1.7 0,-0.7 0.3,-1.2 0.8,-1.7 1,-0.9 2.6,-0.9 3.5,0 0.5,0.5 0.8,1 0.8,1.7 0,0.7 -0.3,1.3 -0.8,1.7 -0.5,0.4 -1.2,0.7 -1.8,0.7 -0.7,0 -1.3,-0.2 -1.7,-0.7 z"
       id="path843" /><path
       class="st0"
       d="m 22,105.7 c -0.5,-0.5 -0.7,-1 -0.7,-1.7 0,-0.7 0.3,-1.2 0.7,-1.7 0.9,-0.9 2.5,-0.9 3.4,0 0.5,0.5 0.7,1 0.7,1.7 0,0.7 -0.3,1.2 -0.7,1.7 -0.4,0.4 -1,0.7 -1.7,0.7 -0.5,0.1 -1.1,-0.2 -1.7,-0.7 z"
       id="path845" /><path
       class="st0"
       d="m 25.4,25.4 c 0.4,-0.5 0.7,-1 0.7,-1.7 0,-0.7 -0.3,-1.2 -0.7,-1.7 -0.9,-0.9 -2.5,-0.9 -3.4,0 -0.5,0.5 -0.7,1 -0.7,1.7 0,0.7 0.3,1.2 0.7,1.7 0.4,0.4 1,0.7 1.7,0.7 0.7,0.1 1.3,-0.1 1.7,-0.7 z"
       id="path847" /><path
       class="st0"
       d="m 32.1,32.3 c 0.5,-0.5 0.8,-1 0.8,-1.7 0,-0.7 -0.3,-1.2 -0.8,-1.7 -1,-0.9 -2.6,-0.9 -3.7,0 -0.5,0.5 -0.8,1 -0.8,1.7 0,0.7 0.3,1.2 0.8,1.7 0.5,0.4 1.2,0.7 1.8,0.7 0.7,-0.1 1.4,-0.3 1.9,-0.7 z"
       id="path849" /><path
       class="st0"
       d="m 38.9,38.9 c 0.4,-0.4 0.7,-1 0.7,-1.7 0,-0.7 -0.3,-1.2 -0.7,-1.7 -0.9,-0.9 -2.5,-0.9 -3.4,0 -0.4,0.4 -0.7,1 -0.7,1.7 0,0.7 0.3,1.2 0.7,1.7 0.5,0.5 1,0.7 1.7,0.7 0.6,0 1.2,-0.3 1.7,-0.7 z"
       id="path851" /><path
       class="st0"
       d="m 45.6,45.6 c 0.4,-0.4 0.7,-1 0.7,-1.7 0,-0.7 -0.3,-1.2 -0.7,-1.7 -0.9,-0.9 -2.5,-0.9 -3.4,0 -0.4,0.4 -0.7,1 -0.7,1.7 0,0.7 0.3,1.3 0.7,1.7 0.5,0.5 1,0.7 1.7,0.7 0.6,0 1.2,-0.1 1.7,-0.7 z"
       id="path853" /><path
       class="st0"
       d="m 52.2,52.3 c 0.5,-0.4 0.8,-1 0.8,-1.7 0,-0.7 -0.3,-1.2 -0.8,-1.7 -0.9,-0.9 -2.6,-0.9 -3.5,0 -0.5,0.4 -0.8,1 -0.8,1.7 0,0.7 0.3,1.3 0.8,1.7 0.5,0.5 1.2,0.7 1.8,0.7 0.6,0.1 1.3,-0.1 1.7,-0.7 z"
       id="path855" /><path
       class="st0"
       d="m 59.7,57.3 c 0,-0.7 -0.3,-1.2 -0.7,-1.7 -0.9,-0.9 -2.5,-0.9 -3.4,0 -0.5,0.5 -0.7,1 -0.7,1.7 0,0.7 0.3,1.2 0.7,1.7 0.4,0.4 1,0.7 1.7,0.7 0.7,0 1.2,-0.3 1.7,-0.7 0.5,-0.4 0.7,-1 0.7,-1.7 z"
       id="path857" /><path
       class="st0"
       d="m 65.7,65.8 c 0.5,-0.5 0.7,-1 0.7,-1.7 0,-0.7 -0.3,-1.2 -0.7,-1.7 -0.9,-0.9 -2.5,-0.9 -3.4,0 -0.5,0.5 -0.7,1 -0.7,1.7 0,0.7 0.3,1.2 0.7,1.7 0.4,0.4 1,0.7 1.7,0.7 0.7,0 1.3,-0.3 1.7,-0.7 z"
       id="path859" /><path
       class="st0"
       d="m 72.4,72.1 c 0.5,-0.4 0.8,-1 0.8,-1.7 0,-0.7 -0.3,-1.2 -0.8,-1.7 -1,-0.9 -2.6,-0.9 -3.5,0 -0.5,0.5 -0.8,1 -0.8,1.7 0,0.7 0.3,1.2 0.8,1.7 0.5,0.5 1.2,0.7 1.8,0.7 0.5,0.1 1.2,-0.1 1.7,-0.7 z"
       id="path861" /><path
       class="st0"
       d="m 79.2,78.8 c 0.4,-0.4 0.7,-1 0.7,-1.7 0,-0.7 -0.3,-1.2 -0.7,-1.7 -0.9,-0.9 -2.5,-0.9 -3.4,0 -0.4,0.5 -0.7,1 -0.7,1.7 0,0.7 0.3,1.2 0.7,1.7 0.5,0.5 1,0.7 1.7,0.7 0.5,0.1 1.2,-0.2 1.7,-0.7 z"
       id="path863" /><path
       class="st0"
       d="m 85.9,85.6 c 0.4,-0.4 0.7,-1 0.7,-1.7 0,-0.7 -0.3,-1.3 -0.7,-1.7 -0.9,-0.9 -2.5,-0.9 -3.4,0 -0.4,0.4 -0.7,1 -0.7,1.7 0,0.7 0.3,1.2 0.7,1.7 0.5,0.5 1,0.7 1.7,0.7 0.7,0 1.2,-0.3 1.7,-0.7 z"
       id="path865" /><path
       class="st0"
       d="m 92.2,92.3 c 0.5,-0.4 0.7,-1 0.7,-1.7 0,-0.7 -0.3,-1.2 -0.7,-1.7 -0.9,-0.9 -2.5,-0.9 -3.4,0 -0.4,0.5 -0.7,1 -0.7,1.7 0,0.7 0.3,1.3 0.7,1.7 0.5,0.5 1,0.7 1.7,0.7 0.6,0 1.3,-0.2 1.7,-0.7 z"
       id="path867" /><path
       class="st0"
       d="m 99.3,99 c 0.5,-0.4 0.7,-1 0.7,-1.7 0,-0.7 -0.3,-1.2 -0.7,-1.7 -0.9,-0.9 -2.5,-0.9 -3.4,0 -0.5,0.5 -0.7,1 -0.7,1.7 0,0.7 0.3,1.3 0.7,1.7 0.4,0.4 1,0.7 1.7,0.7 0.7,0 1.3,-0.2 1.7,-0.7 z"
       id="path869" /><path
       class="st0"
       d="m 106,105.7 c 0.5,-0.5 0.8,-1 0.8,-1.7 0,-0.7 -0.3,-1.2 -0.8,-1.7 -1,-0.9 -2.6,-0.9 -3.5,0 -0.5,0.5 -0.8,1 -0.8,1.7 0,0.7 0.3,1.2 0.8,1.7 0.5,0.4 1.2,0.7 1.8,0.7 0.5,0.1 1.1,-0.2 1.7,-0.7 z"
       id="path871" /><path
       class="st0"
       d="m 41.3,27.3 c 6.8,-4.5 14.3,-6.6 22.6,-6.7 8.1,0 15.6,2.2 22.6,6.7 L 100.9,12.9 C 89.6,4.3 77.4,0 63.9,0 50.4,0 38,4.3 27,12.9 Z"
       id="path873" /><path
       class="st0"
       d="M 26.9,86.4 C 22.3,79.4 20.1,72 20.1,64 c 0,-8.1 2.2,-15.6 6.8,-22.4 L 12.6,27.3 C 4.2,38.3 0,50.5 0,64.1 0,77.5 4.2,89.8 12.7,101 Z"
       id="path875" /><path
       class="st0"
       d="m 86.4,100.7 c -6.8,4.6 -14.3,7 -22.4,7.1 -8.3,0 -15.9,-2.2 -22.7,-7 l -14.4,14.3 c 11.1,8.7 23.5,13 37.1,12.9 13.5,-0.1 25.7,-4.5 36.7,-12.9 z"
       id="path877" /><path
       class="st0"
       d="m 100.5,41.4 c 4.6,7 7,14.6 6.8,22.8 -0.1,8 -2.4,15.3 -6.8,22 l 14.4,14.3 c 8.5,-11 12.9,-23.2 12.9,-36.6 0.1,-13.6 -4.2,-26 -12.9,-37.1 z"
       id="path879" /><path
       class="st0"
       d="m 115.5,105.2 c 5.5,0 10.1,4.5 10.1,10.1 0,5.5 -4.5,10.1 -10.1,10.1 -5.5,0 -10.1,-4.5 -10.1,-10.1 0,-5.6 4.5,-10.1 10.1,-10.1 z"
       id="path881" /><path
       class="st0"
       d="m 12.5,105.2 c 5.5,0 10,4.5 10,10.1 0,5.5 -4.5,10.1 -10,10.1 -5.5,0 -10,-4.5 -10,-10.1 0,-5.6 4.5,-10.1 10,-10.1 z"
       id="path883" /><path
       class="st0"
       d="m 115.7,2.2 c 5.5,0 10,4.5 10,10.1 0,5.6 -4.5,10.1 -10,10.1 -5.5,0 -10,-4.5 -10,-10.1 0,-5.6 4.5,-10.1 10,-10.1 z"
       id="path885" /><path
       class="st0"
       d="m 12.3,2.2 c 5.5,0 10.1,4.5 10.1,10 0,5.5 -4.5,10 -10.1,10 -5.5,0 -10.1,-4.5 -10.1,-10 0,-5.5 4.5,-10 10.1,-10 z"
       id="path887" /></g></g>
</svg>
