<svg width="512" height="512" viewBox="0 0 512 512" fill="none" xmlns="http://www.w3.org/2000/svg">
<path d="M256 0V512C114.615 512 0 397.385 0 256C0 114.615 114.615 0 256 0Z" fill="#E6EAEA"/>
<path d="M256 512V0C397.385 0 512 114.615 512 256C512 397.385 397.385 512 256 512Z" fill="white"/>
<path fill-rule="evenodd" clip-rule="evenodd" d="M255.996 131.224C279.319 131.224 300.914 137.549 321.07 150.486L362.534 109.087C329.997 84.3625 294.868 72.0003 255.996 72V131.224Z" fill="#0295AA"/>
<path fill-rule="evenodd" clip-rule="evenodd" d="M254.609 439.998C254.834 439.999 255.06 439.999 255.285 439.998H254.609ZM255.997 439.996C256.091 439.995 256.186 439.994 256.281 439.994C295.153 439.706 330.282 427.056 361.956 402.907L320.78 361.508C301.2 374.733 279.604 381.632 256.281 381.92C256.186 381.92 256.091 381.92 255.997 381.92V439.996Z" fill="#0295AA"/>
<path fill-rule="evenodd" clip-rule="evenodd" d="M366.569 145.024C365.129 143.587 364.266 142.149 364.266 140.137C364.266 138.124 365.129 136.687 366.569 135.249C369.449 132.662 374.056 132.662 377.223 135.249C378.663 136.687 379.527 138.124 379.527 140.137C379.527 142.149 378.663 143.587 377.223 145.024C375.783 146.174 373.768 147.036 372.04 147.036C370.024 147.324 368.009 146.749 366.569 145.024Z" fill="#0295AA"/>
<path fill-rule="evenodd" clip-rule="evenodd" d="M348.137 164.861C346.985 163.423 346.121 161.986 346.121 159.973C346.121 157.961 346.985 156.524 348.137 155.086C350.728 152.499 355.335 152.499 357.927 155.086C359.079 156.524 359.942 157.961 359.942 159.973C359.942 161.986 359.079 163.423 357.927 164.861C356.487 166.011 355.047 166.873 353.032 166.873C351.016 166.873 349.576 166.011 348.137 164.861Z" fill="#0295AA"/>
<path fill-rule="evenodd" clip-rule="evenodd" d="M327.98 183.836C326.829 182.687 325.965 180.962 325.965 178.949C325.965 176.937 326.829 175.499 327.98 174.062C330.572 171.474 335.179 171.474 337.771 174.062C338.922 175.212 339.786 176.937 339.786 178.949C339.786 180.962 338.922 182.399 337.771 183.836C336.331 185.274 334.891 185.849 332.876 185.849C330.86 185.849 329.132 184.986 327.98 183.836Z" fill="#0295AA"/>
<path fill-rule="evenodd" clip-rule="evenodd" d="M308.686 203.099C307.247 201.949 306.383 200.224 306.383 198.212C306.383 196.199 307.247 194.762 308.686 193.324C311.566 190.737 316.173 190.737 319.34 193.324C320.78 194.474 321.644 196.199 321.644 198.212C321.644 200.224 320.78 201.949 319.34 203.099C317.901 204.537 315.885 205.112 314.157 205.112C312.142 205.112 310.414 204.824 308.686 203.099Z" fill="#0295AA"/>
<path fill-rule="evenodd" clip-rule="evenodd" d="M290.262 222.361C288.822 221.211 288.246 219.486 288.246 217.473C288.246 215.461 289.11 214.024 290.262 212.586C292.853 209.999 297.46 209.999 300.052 212.586C301.492 213.736 302.067 215.461 302.067 217.473C302.067 219.486 301.204 221.211 300.052 222.361C298.9 223.798 297.172 224.373 295.157 224.373C293.429 224.661 291.413 224.086 290.262 222.361Z" fill="#0295AA"/>
<path fill-rule="evenodd" clip-rule="evenodd" d="M268.09 236.735C268.09 234.723 268.954 233.285 270.105 231.848C272.697 229.26 277.304 229.26 279.896 231.848C281.335 233.285 281.911 234.723 281.911 236.735C281.911 238.748 281.047 240.185 279.896 241.623C278.744 242.773 277.016 243.635 275.001 243.635C272.985 243.635 271.545 242.773 270.105 241.623C268.666 240.473 268.09 238.748 268.09 236.735Z" fill="#0295AA"/>
<path fill-rule="evenodd" clip-rule="evenodd" d="M280.471 279.285C281.911 278.135 282.775 276.41 282.775 274.397C282.775 272.385 281.911 270.947 280.471 269.51C277.592 266.922 272.985 266.922 270.393 269.51C268.954 270.947 268.09 272.385 268.09 274.397C268.09 276.41 268.954 277.847 270.393 279.285C271.833 280.722 273.849 281.297 275.576 281.297C277.016 281.585 279.032 281.01 280.471 279.285Z" fill="#0295AA"/>
<path fill-rule="evenodd" clip-rule="evenodd" d="M300.052 298.546C301.204 297.396 302.067 295.671 302.067 293.659C302.067 291.647 301.204 290.209 300.052 288.772C297.46 286.184 292.853 286.184 290.262 288.772C289.11 290.209 288.246 291.647 288.246 293.659C288.246 295.671 289.11 297.109 290.262 298.546C291.701 299.984 293.141 300.559 295.157 300.559C296.596 300.846 298.612 299.984 300.052 298.546Z" fill="#0295AA"/>
<path fill-rule="evenodd" clip-rule="evenodd" d="M319.345 318.095C320.497 316.945 321.36 315.22 321.36 313.208C321.36 311.195 320.497 309.47 319.345 308.32C316.753 305.733 312.146 305.733 309.555 308.32C308.403 309.47 307.539 311.195 307.539 313.208C307.539 315.22 308.403 316.658 309.555 318.095C310.994 319.533 312.434 320.108 314.45 320.108C316.465 320.108 317.905 319.245 319.345 318.095Z" fill="#0295AA"/>
<path fill-rule="evenodd" clip-rule="evenodd" d="M337.485 337.358C338.925 336.208 339.501 334.483 339.501 332.471C339.501 330.458 338.637 329.021 337.485 327.583C334.894 324.996 330.287 324.996 327.695 327.583C326.544 329.021 325.68 330.458 325.68 332.471C325.68 334.483 326.544 336.208 327.695 337.358C329.135 338.795 330.575 339.37 332.59 339.37C334.318 339.37 336.334 338.795 337.485 337.358Z" fill="#0295AA"/>
<path fill-rule="evenodd" clip-rule="evenodd" d="M357.927 356.621C359.367 355.471 359.942 353.746 359.942 351.733C359.942 349.721 359.079 348.283 357.927 346.846C355.335 344.258 350.728 344.258 348.137 346.846C346.697 348.283 346.121 349.721 346.121 351.733C346.121 353.746 346.985 355.471 348.137 356.621C349.288 357.771 351.016 358.633 353.032 358.633C355.047 358.633 356.775 358.058 357.927 356.621Z" fill="#0295AA"/>
<path fill-rule="evenodd" clip-rule="evenodd" d="M377.221 375.883C378.661 374.446 379.525 373.008 379.525 370.996C379.525 368.983 378.661 367.546 377.221 366.109C374.342 363.521 369.735 363.521 367.143 366.109C365.704 367.546 364.84 368.983 364.84 370.996C364.84 373.008 365.704 374.446 367.143 375.883C368.583 377.033 370.599 377.896 372.326 377.896C373.766 378.183 375.494 377.321 377.221 375.883Z" fill="#0295AA"/>
<path fill-rule="evenodd" clip-rule="evenodd" d="M361.383 191.023C374.628 211.148 381.539 232.997 380.963 256.572C380.675 279.571 374.052 300.558 361.383 319.82L402.847 360.932C427.322 329.308 439.992 294.233 439.992 255.709C440.279 216.61 427.898 180.961 402.847 149.049L361.383 191.023Z" fill="#0295AA"/>
<path fill-rule="evenodd" clip-rule="evenodd" d="M404.571 374.445C420.408 374.445 433.653 387.383 433.653 403.482C433.653 419.294 420.695 432.519 404.571 432.519C388.734 432.519 375.488 419.582 375.488 403.482C375.488 387.383 388.446 374.445 404.571 374.445Z" fill="#0295AA"/>
<path fill-rule="evenodd" clip-rule="evenodd" d="M405.154 78.3262C420.991 78.3262 433.948 91.2634 433.948 107.363C433.948 123.463 420.991 136.4 405.154 136.4C389.317 136.4 376.359 123.463 376.359 107.363C376.359 91.2634 389.317 78.3262 405.154 78.3262Z" fill="#0295AA"/>
<path fill-rule="evenodd" clip-rule="evenodd" d="M145.427 145.024C146.867 143.587 147.73 142.149 147.73 140.137C147.73 138.124 146.867 136.687 145.427 135.249C142.547 132.662 137.94 132.662 134.773 135.249C133.333 136.687 132.469 138.124 132.469 140.137C132.469 142.149 133.333 143.587 134.773 145.024C136.213 146.174 138.228 147.036 139.956 147.036C141.972 147.324 143.987 146.749 145.427 145.024Z" fill="#365558"/>
<path fill-rule="evenodd" clip-rule="evenodd" d="M163.859 164.861C165.011 163.423 165.875 161.986 165.875 159.973C165.875 157.961 165.011 156.524 163.859 155.086C161.268 152.499 156.661 152.499 154.069 155.086C152.918 156.524 152.054 157.961 152.054 159.973C152.054 161.986 152.918 163.423 154.069 164.861C155.509 166.011 156.949 166.873 158.964 166.873C160.98 166.873 162.42 166.011 163.859 164.861Z" fill="#365558"/>
<path fill-rule="evenodd" clip-rule="evenodd" d="M184.016 183.836C185.167 182.687 186.031 180.962 186.031 178.949C186.031 176.937 185.167 175.499 184.016 174.062C181.424 171.474 176.817 171.474 174.226 174.062C173.074 175.212 172.21 176.937 172.21 178.949C172.21 180.962 173.074 182.399 174.226 183.836C175.665 185.274 177.105 185.849 179.121 185.849C181.136 185.849 182.864 184.986 184.016 183.836Z" fill="#365558"/>
<path fill-rule="evenodd" clip-rule="evenodd" d="M203.31 203.099C204.749 201.949 205.613 200.224 205.613 198.212C205.613 196.199 204.749 194.762 203.31 193.324C200.43 190.737 195.823 190.737 192.656 193.324C191.216 194.474 190.352 196.199 190.352 198.212C190.352 200.224 191.216 201.949 192.656 203.099C194.096 204.537 196.111 205.112 197.839 205.112C199.854 205.112 201.582 204.824 203.31 203.099Z" fill="#365558"/>
<path fill-rule="evenodd" clip-rule="evenodd" d="M221.734 222.361C223.174 221.211 223.75 219.486 223.75 217.473C223.75 215.461 222.886 214.024 221.734 212.586C219.143 209.999 214.536 209.999 211.944 212.586C210.505 213.736 209.929 215.461 209.929 217.473C209.929 219.486 210.793 221.211 211.944 222.361C213.096 223.798 214.824 224.373 216.839 224.373C218.567 224.661 220.583 224.086 221.734 222.361Z" fill="#365558"/>
<path fill-rule="evenodd" clip-rule="evenodd" d="M243.906 236.735C243.906 234.723 243.042 233.285 241.891 231.848C239.299 229.26 234.692 229.26 232.101 231.848C230.661 233.285 230.085 234.723 230.085 236.735C230.085 238.748 230.949 240.185 232.101 241.623C233.252 242.773 234.98 243.635 236.996 243.635C239.011 243.635 240.451 242.773 241.891 241.623C243.33 240.473 243.906 238.748 243.906 236.735Z" fill="#365558"/>
<path fill-rule="evenodd" clip-rule="evenodd" d="M231.525 279.285C230.085 278.135 229.221 276.41 229.221 274.397C229.221 272.385 230.085 270.947 231.525 269.51C234.404 266.922 239.011 266.922 241.603 269.51C243.042 270.947 243.906 272.385 243.906 274.397C243.906 276.41 243.042 277.847 241.603 279.285C240.163 280.722 238.147 281.297 236.42 281.297C234.98 281.585 232.964 281.01 231.525 279.285Z" fill="#365558"/>
<path fill-rule="evenodd" clip-rule="evenodd" d="M211.944 298.546C210.793 297.396 209.929 295.671 209.929 293.659C209.929 291.647 210.793 290.209 211.944 288.772C214.536 286.184 219.143 286.184 221.734 288.772C222.886 290.209 223.75 291.647 223.75 293.659C223.75 295.671 222.886 297.109 221.734 298.546C220.295 299.984 218.855 300.559 216.839 300.559C215.4 300.846 213.384 299.984 211.944 298.546Z" fill="#365558"/>
<path fill-rule="evenodd" clip-rule="evenodd" d="M192.651 318.095C191.5 316.945 190.636 315.22 190.636 313.208C190.636 311.195 191.5 309.47 192.651 308.32C195.243 305.733 199.85 305.733 202.441 308.32C203.593 309.47 204.457 311.195 204.457 313.208C204.457 315.22 203.593 316.658 202.441 318.095C201.002 319.533 199.562 320.108 197.546 320.108C195.531 320.108 194.091 319.245 192.651 318.095Z" fill="#365558"/>
<path fill-rule="evenodd" clip-rule="evenodd" d="M174.511 337.358C173.071 336.208 172.495 334.483 172.495 332.471C172.495 330.458 173.359 329.021 174.511 327.583C177.102 324.996 181.709 324.996 184.301 327.583C185.453 329.021 186.316 330.458 186.316 332.471C186.316 334.483 185.453 336.208 184.301 337.358C182.861 338.795 181.421 339.37 179.406 339.37C177.678 339.37 175.662 338.795 174.511 337.358Z" fill="#365558"/>
<path fill-rule="evenodd" clip-rule="evenodd" d="M154.069 356.621C152.63 355.471 152.054 353.746 152.054 351.733C152.054 349.721 152.918 348.283 154.069 346.846C156.661 344.258 161.268 344.258 163.859 346.846C165.299 348.283 165.875 349.721 165.875 351.733C165.875 353.746 165.011 355.471 163.859 356.621C162.708 357.771 160.98 358.633 158.964 358.633C156.949 358.633 155.221 358.058 154.069 356.621Z" fill="#365558"/>
<path fill-rule="evenodd" clip-rule="evenodd" d="M134.775 375.883C133.335 374.446 132.471 373.008 132.471 370.996C132.471 368.983 133.335 367.546 134.775 366.109C137.654 363.521 142.261 363.521 144.853 366.109C146.292 367.546 147.156 368.983 147.156 370.996C147.156 373.008 146.292 374.446 144.853 375.883C143.413 377.033 141.397 377.896 139.67 377.896C138.23 378.183 136.502 377.321 134.775 375.883Z" fill="#365558"/>
<path fill-rule="evenodd" clip-rule="evenodd" d="M150.613 191.023C137.368 211.148 130.457 232.997 131.033 256.572C131.321 279.571 137.944 300.558 150.613 319.82L109.149 360.932C84.6741 329.308 72.0046 294.233 72.0046 255.709C71.7166 216.61 84.0982 180.961 109.149 149.049L150.613 191.023Z" fill="#365558"/>
<path fill-rule="evenodd" clip-rule="evenodd" d="M107.425 374.445C91.5886 374.445 78.3431 387.383 78.3431 403.482C78.3431 419.294 91.3006 432.519 107.425 432.519C123.262 432.519 136.508 419.582 136.508 403.482C136.508 387.383 123.55 374.445 107.425 374.445Z" fill="#365558"/>
<path fill-rule="evenodd" clip-rule="evenodd" d="M106.842 78.3262C91.0054 78.3262 78.0479 91.2634 78.0479 107.363C78.0479 123.463 91.0054 136.4 106.842 136.4C122.679 136.4 135.637 123.463 135.637 107.363C135.637 91.2634 122.679 78.3262 106.842 78.3262Z" fill="#365558"/>
<path fill-rule="evenodd" clip-rule="evenodd" d="M255.996 131.224C232.673 131.224 211.078 137.549 190.922 150.486L149.458 109.087C181.995 84.3625 217.124 72.0003 255.996 72V131.224Z" fill="#365558"/>
<path fill-rule="evenodd" clip-rule="evenodd" d="M257.383 439.998C257.158 439.999 256.933 439.999 256.707 439.998H257.383ZM255.995 439.996C255.901 439.995 255.806 439.994 255.711 439.994C216.839 439.706 181.71 427.056 150.036 402.907L191.212 361.508C210.792 374.733 232.388 381.632 255.711 381.92C255.806 381.92 255.901 381.92 255.995 381.92V439.996Z" fill="#365558"/>
<path fill-rule="evenodd" clip-rule="evenodd" d="M255.996 263.178C256.091 263.182 256.186 263.184 256.282 263.184C258.298 263.184 260.025 262.321 261.177 261.171C262.617 259.734 263.193 258.296 263.193 256.284C263.193 254.272 262.329 252.834 261.177 251.397C259.813 250.034 257.89 249.389 255.996 249.462V263.178Z" fill="#0295AA"/>
<path fill-rule="evenodd" clip-rule="evenodd" d="M256.008 263.251C255.913 263.255 255.818 263.257 255.722 263.257C253.706 263.257 251.978 262.395 250.827 261.245C249.387 259.807 248.811 258.37 248.811 256.357C248.811 254.345 249.675 252.907 250.827 251.47C252.191 250.108 254.114 249.463 256.008 249.535V263.251Z" fill="#365558"/>
</svg>
