<svg width="512" height="512" viewBox="0 0 512 512" fill="none" xmlns="http://www.w3.org/2000/svg">
<path d="M256 0V512C114.615 512 0 397.385 0 256C0 114.615 114.615 0 256 0Z" fill="#0295AA"/>
<path d="M256 512V0C397.385 0 512 114.615 512 256C512 397.385 397.385 512 256 512Z" fill="#4ACFD9"/>
<path fill-rule="evenodd" clip-rule="evenodd" d="M256 367.918C288.229 368.135 320.459 367.911 352.688 367.357C363.856 367.245 375.136 366.445 385.872 363.117C398.416 359.277 404 344.365 396.832 333.677C393.136 328.125 387.248 327.325 380.928 327.325C371.323 327.325 361.722 327.329 352.123 327.333C320.072 327.345 288.047 327.357 256 327.235V367.918ZM256 272.766H378.816C381.814 272.815 384.811 272.612 387.776 272.158C394.832 270.846 398.944 267.23 399.36 260.67C399.43 259.586 399.531 258.49 399.633 257.39C400.299 250.2 400.977 242.879 392.928 237.967C390.192 236.271 387.04 235.663 383.76 235.567H256V272.766ZM256 183.914C289.67 183.803 323.368 183.73 357.03 183.657C363.451 183.643 369.87 183.63 376.288 183.615C380.024 183.604 383.756 183.336 387.456 182.815C393.664 181.807 397.568 178.08 398.624 172.032C401.248 157.104 396.192 149.744 380.72 146.816C375.361 145.85 369.912 145.313 364.465 144.776C361.976 144.531 359.487 144.286 357.008 144H356.998C323.294 144 289.614 144 256 144.032V183.914Z" fill="white"/>
<path fill-rule="evenodd" clip-rule="evenodd" d="M255.996 144C241.375 144.014 226.767 144.034 212.175 144.064C208.954 144.382 205.722 144.658 202.486 144.936C192.378 145.801 182.229 146.67 172.255 148.815C135.184 156.671 118.32 174.415 113.904 210.527C113.403 214.287 113.009 218.082 112.613 221.899C112.414 223.815 112.214 225.737 112 227.662V285.838C112.271 287.957 112.525 290.084 112.78 292.212C113.411 297.491 114.043 302.784 114.944 308.029C120.528 339.901 137.072 356.029 170.255 362.588C184.347 365.37 198.648 366.955 213.007 367.324C227.336 367.605 241.666 367.789 255.996 367.885V327.202C248.062 327.172 240.127 327.134 232.19 327.085C217.967 326.989 203.743 326.173 189.951 322.445C177.519 319.117 169.823 311.661 166.671 299.661C165.102 293.637 164.622 287.516 164.135 281.309C164.1 280.873 164.066 280.435 164.031 279.998L164.005 279.689C163.406 272.734 163.406 272.734 170.975 272.734H255.996V235.534H175.311C169.273 235.534 166.294 235.534 164.948 234.051C163.638 232.607 163.878 229.756 164.351 224.126C166.463 199.839 175.935 189.855 201.119 185.919C208.591 184.703 216.191 183.999 223.871 183.999C234.575 183.955 245.284 183.916 255.996 183.881V144Z" fill="#E6EAEA"/>
</svg>
