<svg width="512" height="512" viewBox="0 0 512 512" fill="none" xmlns="http://www.w3.org/2000/svg">
<path fill-rule="evenodd" clip-rule="evenodd" d="M255.926 452.859C312.759 453.242 369.592 452.847 426.426 451.87C446.119 451.673 466.01 450.262 484.942 444.394C507.062 437.622 516.908 411.327 504.269 392.48C497.751 382.689 487.368 381.278 476.224 381.278C459.286 381.278 442.355 381.285 425.427 381.291C368.909 381.312 312.437 381.334 255.926 381.118V452.859ZM255.926 285.068H472.499C477.787 285.155 483.072 284.796 488.299 283.996C500.742 281.683 507.993 275.306 508.726 263.738C508.85 261.826 509.029 259.893 509.208 257.954C510.383 245.274 511.578 232.366 497.384 223.703C492.56 220.712 487.001 219.64 481.218 219.47H255.926V285.068ZM255.926 128.385C315.297 128.19 374.718 128.062 434.075 127.933C445.4 127.909 456.722 127.884 468.042 127.859C474.631 127.839 481.21 127.367 487.735 126.448C498.682 124.671 505.566 118.097 507.428 107.432C512.056 81.1082 503.14 68.1297 475.857 62.9665C466.407 61.2625 456.798 60.316 447.194 59.37C442.804 58.9376 438.415 58.5053 434.044 58.0009H434.025C374.592 58.0009 315.2 58.0009 255.926 58.0581V128.385Z" fill="#4ACFD9"/>
<path fill-rule="evenodd" clip-rule="evenodd" d="M255.928 58C230.144 58.0249 204.382 58.0607 178.649 58.112C172.969 58.6731 167.27 59.1612 161.563 59.6499C143.739 61.1763 125.843 62.7089 108.254 66.4916C42.8823 80.3448 13.1446 111.634 5.35748 175.314C4.47467 181.944 3.77944 188.637 3.0803 195.367C2.72926 198.747 2.37724 202.136 2 205.531V308.118C2.47839 311.855 2.92649 315.605 3.3751 319.359C4.4875 328.667 5.60304 338.002 7.1914 347.251C17.0381 403.453 46.2116 431.893 104.728 443.461C129.576 448.366 154.796 451.16 180.116 451.812C205.386 452.307 230.657 452.631 255.928 452.801V381.06C241.936 381.007 227.942 380.939 213.945 380.854C188.862 380.684 163.78 379.245 139.459 372.671C117.537 366.803 103.966 353.655 98.4077 332.495C95.6401 321.872 94.7932 311.077 93.9346 300.133C93.8741 299.362 93.8136 298.591 93.7524 297.819L93.7055 297.275C92.6492 285.01 92.6492 285.01 105.997 285.01H255.928V219.412H113.643C102.996 219.412 97.742 219.412 95.3694 216.798C93.0582 214.251 93.4813 209.222 94.3167 199.296C98.0409 156.467 114.744 138.861 159.153 131.92C172.329 129.776 185.73 128.534 199.273 128.534C218.151 128.457 237.037 128.389 255.928 128.327V58Z" fill="#0295AA"/>
</svg>
