<?xml version="1.0" encoding="utf-8"?>
<!-- Generator: Adobe Illustrator 19.0.0, SVG Export Plug-In . SVG Version: 6.00 Build 0)  -->
<svg version="1.1" id="Layer_1" xmlns="http://www.w3.org/2000/svg" xmlns:xlink="http://www.w3.org/1999/xlink" x="0px" y="0px"
	 viewBox="206 -206 512 512" style="enable-background:new 206 -206 512 512;" xml:space="preserve">
<style type="text/css">
	.st0{display:none;}
	.st1{display:inline;}
	.st2{fill:#0295AA;}
	.st3{fill:#365558;}
	.st4{fill:#FFFFFF;}
	.st5{fill:#E6EAEA;}
</style>
<g id="Layer_3" class="st0">
	<rect x="1030" y="-1030.4" class="st1" width="512" height="512.8"/>
</g>
<path class="st2" d="M462-206v512c141.4,0,256-114.6,256-256S603.4-206,462-206z"/>
<path class="st3" d="M206,50c0,141.4,114.6,256,256,256v-512C320.6-206,206-91.4,206,50z"/>
<path class="st4" d="M614.9,180.4L566.5-35.7c-0.2-0.7-0.5-1.4-0.9-2l-99-136.4c-1-1.4-2.7-2.3-4.5-2.3c0,0-0.1,0-0.1,0v109.8
	l66,116L462,253v23.5c0,0,0.1,0,0.1,0c0.3,0,0.5,0,0.8-0.1c0.1,0,0.2,0,0.3-0.1c0.2,0,0.4-0.1,0.5-0.1c0.1,0,0.2-0.1,0.3-0.1
	c0.2-0.1,0.3-0.1,0.5-0.2c0.1,0,0.2-0.1,0.3-0.1s0.1-0.1,0.2-0.1l147.5-89.3C614.4,185.1,615.5,182.7,614.9,180.4z M596,146.6
	l-56-98.4l20-61.7L596,146.6z M467.5-79.3v-74.6l87.4,120.3l-22.3,68.7L467.5-79.3z M471.8,258.4l63.6-195.9L602,179.6L471.8,258.4z
	"/>
<path class="st5" d="M396,49.5l66-116.1v-109.8c-1.8,0-3.3,0.8-4.4,2.3l-99,136.4c-0.4,0.6-0.8,1.3-0.9,2l-48.5,216.1
	c-0.5,2.3,0.5,4.7,2.5,6l147.5,89.3c0.1,0,0.1,0.1,0.2,0.1c0.1,0.1,0.2,0.1,0.3,0.1c0.2,0.1,0.3,0.1,0.5,0.2c0.1,0,0.2,0.1,0.3,0.1
	c0.2,0.1,0.4,0.1,0.5,0.1c0.1,0,0.2,0,0.3,0.1c0.3,0,0.5,0.1,0.7,0.1V253L396,49.5z M456.5-153.8v74.5L391.4,35.2l-22.3-68.7
	L456.5-153.8z M363.9-13.5l20,61.7L328,146.6L363.9-13.5z M322,179.6l66.6-117.1l63.5,196L322,179.6z"/>
</svg>
