<svg width="512" height="512" viewBox="0 0 512 512" fill="none" xmlns="http://www.w3.org/2000/svg">
<path d="M428.724 403.178L374.168 159.594C373.943 158.805 373.605 158.016 373.154 157.34L261.563 3.5925C260.436 2.01445 258.52 1 256.491 1H256.378V124.764L330.772 255.517L256.378 485.011V511.5H256.491C256.829 511.5 257.054 511.5 257.392 511.387C257.505 511.387 257.618 511.387 257.731 511.275C257.956 511.275 258.181 511.162 258.294 511.162C258.407 511.162 258.52 511.049 258.632 511.049C258.858 510.936 258.97 510.936 259.196 510.824C259.309 510.824 259.421 510.711 259.534 510.711C259.647 510.711 259.647 510.598 259.759 510.598L426.019 409.941C428.16 408.476 429.4 405.771 428.724 403.178ZM407.42 365.079L344.298 254.165L366.842 184.618L407.42 365.079ZM262.577 110.449V26.3616L361.093 161.961L335.957 239.399L262.577 110.449ZM267.424 491.098L339.113 270.283L414.183 402.276L267.424 491.098Z" fill="white"/>
<path d="M181.983 255.63L256.377 124.764V1C254.348 1 252.657 1.90173 251.417 3.5925L139.826 157.34C139.375 158.016 138.925 158.805 138.812 159.594L84.1436 403.178C83.58 405.771 84.7072 408.476 86.9616 409.941L253.221 510.598C253.333 510.598 253.333 510.711 253.446 510.711C253.559 510.824 253.672 510.824 253.784 510.824C254.01 510.936 254.122 510.936 254.348 511.049C254.461 511.049 254.573 511.162 254.686 511.162C254.911 511.275 255.137 511.275 255.25 511.275C255.362 511.275 255.475 511.275 255.588 511.387C255.926 511.387 256.151 511.5 256.377 511.5V485.011L181.983 255.63ZM250.177 26.4743V110.449L176.798 239.511L151.662 162.074L250.177 26.4743ZM145.8 184.618L168.344 254.165L105.335 365.079L145.8 184.618ZM98.5715 402.276L173.642 270.283L245.218 491.211L98.5715 402.276Z" fill="#CDD4D5"/>
</svg>
