<?xml version="1.0" encoding="utf-8"?>
<!-- Generator: Adobe Illustrator 19.0.0, SVG Export Plug-In . SVG Version: 6.00 Build 0)  -->
<svg version="1.1" id="Layer_1" xmlns="http://www.w3.org/2000/svg" xmlns:xlink="http://www.w3.org/1999/xlink" x="0px" y="0px"
	 viewBox="206 -206 512 512" style="enable-background:new 206 -206 512 512;" xml:space="preserve">
<style type="text/css">
	.st0{display:none;}
	.st1{display:inline;}
	.st2{display:none;fill:#FFFFFF;}
	.st3{fill:#BCD643;}
	.st4{fill:#FFFFFF;}
	.st5{fill:#E6EAEA;}
</style>
<g id="Layer_3" class="st0">
	<rect x="1030" y="-1030.4" class="st1" width="512" height="512.8"/>
</g>
<polygon id="Fill-612" class="st2" points="348.3,91.9 458.1,146.9 458.1,235.3 "/>
<polygon id="Fill-613" class="st2" points="575,91.9 464.8,235.3 464.8,146.9 "/>
<path class="st3" d="M462-206C320.6-206,206-91.4,206,50s114.6,256,256,256S718,191.4,718,50S603.4-206,462-206"/>
<path class="st4" d="M462-185.9v471.8c130.3,0,235.9-105.6,235.9-235.9S592.3-185.9,462-185.9z"/>
<path class="st5" d="M226.1,50c0,130.3,105.6,235.9,235.9,235.9v-471.8C331.7-185.9,226.1-80.3,226.1,50z"/>
<polygon id="Fill-616" class="st3" points="582.4,25.6 461.3,-166 336.7,25.6 461.3,-26 "/>
<polygon id="Fill-617" class="st3" points="341.6,78.4 462.7,266 587.3,78.4 462.7,153 "/>
<polygon id="Fill-618" class="st3" points="587.3,53.8 461.3,1.3 336.7,53.8 461.3,128.4 "/>
</svg>
