<svg width="512" height="512" viewBox="0 0 512 512" fill="none" xmlns="http://www.w3.org/2000/svg">
<path d="M256 0V512C397.4 512 512 397.4 512 256C512 114.6 397.4 0 256 0Z" fill="#0295AA"/>
<path d="M0 256C0 397.4 114.6 512 256 512V0C114.6 0 0 114.6 0 256Z" fill="#365558"/>
<path d="M255.8 342.1V225.6L146 287.3L255.8 342.1Z" fill="#9BAAAB"/>
<path d="M146 287.3L255.8 225.6V67.0996L146 287.3Z" fill="#E6EAEA"/>
<path d="M255.801 67V225.6L366.001 287.3L255.801 67Z" fill="white"/>
<path d="M366.001 287.3L255.801 225.6V342.1L366.001 287.3Z" fill="#CDD4D5"/>
<path d="M146 301.6L255.8 356.6V445L146 301.6Z" fill="#CDD4D5"/>
<path d="M366.001 301.6L255.801 445V356.6L366.001 301.6Z" fill="#E6EAEA"/>
</svg>
