<svg width="512" height="512" viewBox="0 0 512 512" fill="none" xmlns="http://www.w3.org/2000/svg">
<path d="M381.276 386.345C355.07 418.739 319.145 438.757 279.489 438.757C199.323 438.757 148.348 357.099 148.348 256.386C148.348 155.673 199.305 74.0322 279.489 74.0322C319.145 74.0322 355.07 94.0511 381.276 126.409L424.717 80.6385C387.719 31.7561 335.542 1.20001 277.542 1.20001C165.327 1.20001 88 115.435 88 256.368C88 397.3 165.327 511.535 277.542 511.535C335.488 511.535 387.7 481.015 424.717 432.097L381.276 386.345Z" fill="white"/>
<path d="M318.308 183.044H108.711V235.184H318.308V183.044Z" fill="white"/>
<path d="M318.308 280.172H108.711V329.728H318.308V280.172Z" fill="white"/>
<path d="M88 256.004C88 394.116 162.325 506.585 270.881 511.026V438.048C215.902 433.935 175.828 390.421 158.248 329.364H108.71V279.808H149.331C148.675 272.019 148.348 264.09 148.348 256.022C148.348 248.852 148.609 241.784 149.13 234.82H108.71V182.68H158.248C175.828 121.641 215.902 78.109 270.881 73.996V1C162.325 5.42235 88 117.892 88 256.004Z" fill="#E6EAEA"/>
<path d="M108.711 182.68V234.82H149.131H270.882V182.68H158.248H108.711Z" fill="#E6EAEA"/>
<path d="M108.711 279.808V329.381H158.248H270.882V279.808H149.331H108.711Z" fill="#E6EAEA"/>
</svg>
