<svg id="Layer_1" data-name="Layer 1" xmlns="http://www.w3.org/2000/svg" viewBox="0 0 512 512"><defs><style>.cls-1{fill:#365558;}.cls-2{fill:#0295aa;}.cls-3{fill:#fff;}.cls-4{fill:#e6eaea;}</style></defs><title>euro</title><path class="cls-1" d="M1,257C1,398.4,115.6,513,257,513V1C115.6,1,1,115.6,1,257Z"/><path class="cls-2" d="M257,1V513c141.4,0,256-114.6,256-256S398.4,1,257,1Z"/><path class="cls-3" d="M317.66,328.42c-14.4,17.8-34.14,28.8-55.93,28.8-44.05,0-72.06-44.87-72.06-100.21s28-100.2,72.06-100.2c21.79,0,41.53,11,55.93,28.78l23.87-25.15c-20.33-26.86-49-43.65-80.87-43.65C199,116.79,156.51,179.56,156.51,257S199,397.21,260.66,397.21c31.84,0,60.53-16.77,80.87-43.65Z"/><rect class="cls-3" x="167.89" y="216.71" width="115.17" height="28.65"/><rect class="cls-3" x="167.89" y="270.08" width="115.17" height="27.23"/><path class="cls-4" d="M156.51,256.8c0,75.89,40.84,137.69,100.49,140.13v-40.1c-30.21-2.26-52.23-26.17-61.89-59.72H167.89V269.88h22.32q-.54-6.42-.54-13.07,0-5.91.43-11.65H167.89V216.51h27.22c9.66-33.54,31.68-57.46,61.89-59.72V116.68C197.35,119.11,156.51,180.91,156.51,256.8Z"/><polygon class="cls-4" points="167.89 216.51 167.89 245.16 190.1 245.16 257 245.16 257 216.51 195.11 216.51 167.89 216.51"/><polygon class="cls-4" points="167.89 269.88 167.89 297.12 195.11 297.12 257 297.12 257 269.88 190.21 269.88 167.89 269.88"/></svg>