<svg width="512" height="512" viewBox="0 0 512 512" fill="none" xmlns="http://www.w3.org/2000/svg">
<path fill-rule="evenodd" clip-rule="evenodd" d="M256.287 510.4L409.573 423.538V88.8622L256.287 2V35.2121L363.587 99.0813L256.287 160.396V354.559L378.916 283.025V408.209L256.287 479.743V510.4ZM378.916 124.629L286.944 178.279L378.916 231.93V124.629ZM363.587 257.477L271.616 203.827V311.128L363.587 257.477Z" fill="#4ACFD9"/>
<path fill-rule="evenodd" clip-rule="evenodd" d="M256.285 2.00052L103 88.8622V423.538L256.285 510.399V479.742L133.657 408.209V283.025L256.285 354.558V160.395L148.986 99.0813L256.285 35.2126V2.00052ZM225.629 178.279L133.657 124.629V231.93L225.629 178.279ZM148.986 257.477L240.958 311.128V203.827L148.986 257.477Z" fill="#0295AA"/>
</svg>
