<svg width="512" height="512" viewBox="0 0 512 512" fill="none" xmlns="http://www.w3.org/2000/svg">
<path d="M256 0V512C114.615 512 0 397.385 0 256C0 114.615 114.615 0 256 0Z" fill="#0295AA"/>
<path d="M256 512V0C397.385 0 512 114.615 512 256C512 397.385 397.385 512 256 512Z" fill="#4ACFD9"/>
<path fill-rule="evenodd" clip-rule="evenodd" d="M256 415.397L256.005 415.4L352.004 361V151.4L256.005 97L256 97.0026V117.803L256.005 117.8L323.204 157.8L256.005 196.2L256 196.197V317.797L256.005 317.8L332.804 273V351.4L256.005 396.2L256 396.197V415.397ZM332.804 173.8L275.204 207.4L332.804 241V173.8ZM323.204 257L265.605 223.4V290.6L323.204 257Z" fill="white"/>
<path fill-rule="evenodd" clip-rule="evenodd" d="M256 97.0002L256 97L160 151.4V361L256 415.4L256 415.4V396.2L256 396.2L179.2 351.4V273L256 317.8L256 317.8V196.2L256 196.2L188.8 157.8L256 117.8L256 117.8V97.0002ZM236.8 207.4L179.2 173.8V241L236.8 207.4ZM188.8 257L246.4 290.6V223.4L188.8 257Z" fill="#E6EAEA"/>
</svg>
