<?xml version="1.0" encoding="UTF-8" standalone="no"?>
<svg
   viewBox="0 0 512 512"
   version="1.1"
   id="svg1904"
   width="512"
   height="512"
   xmlns="http://www.w3.org/2000/svg"
   xmlns:svg="http://www.w3.org/2000/svg">
  <defs
     id="defs1908" />
  <g
     fill="none"
     id="g1902"
     transform="scale(16)">
    <circle
       cx="16"
       cy="16"
       r="16"
       fill="#42c1ca"
       id="circle1898" />
    <path
       fill="#ffffff"
       d="m 15.932,12.908 c 0.372,-1.563 0.82,-2.968 1.296,-3.885 0.175,-0.438 0.885,-1.487 1.664,-2.18 1.297,-1.155 2.752,-1.448 4.267,-0.497 l -0.133,0.211 0.133,-0.211 c 0.773,0.485 1.083,0.984 0.947,1.454 -0.1,0.35 -0.483,0.63 -0.688,0.601 -0.3,0.03 -0.602,-0.03 -0.89,-0.242 A 1.685,1.685 0 0 1 21.987,7.438 c -0.212,-0.5 -0.49,-0.67 -0.831,-0.63 -0.247,0.028 -0.534,0.186 -0.625,0.292 l -0.235,0.26 a 3.894,3.894 0 0 0 -0.484,0.635 c -0.476,0.793 -0.915,2.246 -1.524,5.257 l 4.036,0.591 -0.222,1.617 -4.096,-0.6 -0.175,1.064 -0.045,0.266 c -0.024,0.138 -0.05,0.288 -0.08,0.448 l 4.136,0.606 -0.237,1.615 -4.233,-0.62 c -0.489,2.078 -1.133,4.305 -1.588,5.184 -0.176,0.439 -0.885,1.486 -1.664,2.18 C 12.823,26.757 11.368,27.051 9.853,26.1 9.08,25.615 8.77,25.115 8.906,24.645 c 0.1,-0.35 0.483,-0.629 0.688,-0.6 0.3,-0.03 0.602,0.03 0.89,0.241 0.222,0.164 0.406,0.402 0.541,0.722 0.212,0.499 0.49,0.67 0.831,0.63 0.247,-0.029 0.534,-0.187 0.625,-0.293 0.907,-1.01 1.626,-2.956 2.535,-7.45 l -4.036,-0.592 0.222,-1.617 4.096,0.6 0.176,-1.063 a 31.19,31.19 0 0 1 0.125,-0.715 l -4.12,-0.603 0.236,-1.615 z"
       id="path1900" />
  </g>
</svg>
