<?xml version="1.0" encoding="utf-8"?>
<!-- Generator: Adobe Illustrator 25.4.1, SVG Export Plug-In . SVG Version: 6.00 Build 0)  -->
<svg version="1.1" id="svg7388" xmlns:svg="http://www.w3.org/2000/svg"
	 xmlns="http://www.w3.org/2000/svg" xmlns:xlink="http://www.w3.org/1999/xlink" x="0px" y="0px" viewBox="0 0 512 512"
	 style="enable-background:new 0 0 512 512;" xml:space="preserve">
<style type="text/css">
	.st0{fill:none;}
	.st1{fill:#E6EAEA;}
	.st2{fill:#365558;}
	.st3{fill:#0295AA;}
	.st4{fill:#CDD4D5;}
	.st5{fill-rule:evenodd;clip-rule:evenodd;fill:url(#New_Pattern_Swatch_5);}
	.st6{fill-rule:evenodd;clip-rule:evenodd;fill:#0295AA;}
	.st7{fill-rule:evenodd;clip-rule:evenodd;fill:url(#New_Pattern_Swatch_6);}
	.st8{fill-rule:evenodd;clip-rule:evenodd;fill:#4ACFD9;}
	.st9{fill-rule:evenodd;clip-rule:evenodd;fill:#9BAAAB;}
	.st10{fill:url(#New_Pattern_Swatch_9);}
	.st11{fill-rule:evenodd;clip-rule:evenodd;fill:url(#New_Pattern_Swatch_10);}
	.st12{fill-rule:evenodd;clip-rule:evenodd;fill:#CDD4D5;}
</style>
<pattern  y="512" width="128" height="128" patternUnits="userSpaceOnUse" id="New_Pattern_Swatch_10" viewBox="0 -128 128 128" style="overflow:visible;">
	<g>
		<rect y="-128" class="st0" width="128" height="128"/>
		<rect y="-128" class="st1" width="128" height="128"/>
	</g>
</pattern>
<pattern  y="512" width="128" height="128" patternUnits="userSpaceOnUse" id="New_Pattern_Swatch_5" viewBox="0 -128 128 128" style="overflow:visible;">
	<g>
		<rect y="-128" class="st0" width="128" height="128"/>
		<rect y="-128" class="st2" width="128" height="128"/>
	</g>
</pattern>
<pattern  y="512" width="128" height="128" patternUnits="userSpaceOnUse" id="New_Pattern_Swatch_6" viewBox="0 -128 128 128" style="overflow:visible;">
	<g>
		<rect y="-128" class="st0" width="128" height="128"/>
		<rect y="-128" class="st3" width="128" height="128"/>
	</g>
</pattern>
<pattern  y="512" width="128" height="128" patternUnits="userSpaceOnUse" id="New_Pattern_Swatch_9" viewBox="0 -128 128 128" style="overflow:visible;">
	<g>
		<rect y="-128" class="st0" width="128" height="128"/>
		<rect y="-128" class="st4" width="128" height="128"/>
	</g>
</pattern>
<path class="st5" d="M144,237v42.2h33.4v71.4l-33.4,9.8V392h112v120C114.6,512,0,397.4,0,256C0,114.6,114.5,0,255.9,0v105.2
	c0,0,0.1,0,0.1,0v0c-50.2,6.8-78.6,41.9-78.6,94.5V237H144z"/>
<path class="st6" d="M256,0v105.2c0,0-0.1,0-0.1,0L256,0L256,0z"/>
<path class="st7" d="M512,256c0,141.4-114.6,256-256,256V392h111.2v-43.4H256v-69.4h79V237h-79v-83.3c0,0,0.1,0,0.1,0
	c0.3-0.1,0.5-0.2,0.8-0.3c0.1,0,0.2-0.1,0.3-0.1c0.1-0.1,0.3-0.1,0.4-0.2c0,0,0,0,0,0c0,0,0,0,0,0c0,0,0,0,0.1,0c0,0,0,0,0,0
	c0,0,0.1,0,0.2,0c0.1,0,0.1-0.1,0.2-0.1c0.2-0.1,0.3-0.1,0.5-0.2v0c0.3-0.1,0.6-0.2,0.9-0.3c0,0,0.1,0,0.1,0c1.8-0.5,3.6-1,5.5-1.3
	c0,0,0,0,0.1,0c0.3,0,0.5-0.1,0.8-0.1c0.3,0,0.5-0.1,0.8-0.1c0.6-0.1,1.1-0.1,1.7-0.2c0.4,0,0.8-0.1,1.1-0.1c0.5,0,1-0.1,1.5-0.1
	c0.1,0,0.2,0,0.3,0c0.1,0,0.2,0,0.4,0c0.2,0,0.4,0,0.5,0h0.1c0.8,0,1.7-0.1,2.5-0.1c1.5,0,2.9,0,4.3,0.1c0.7,0,1.4,0.1,2.1,0.2
	c0.6,0,1.1,0.1,1.7,0.2c0.3,0,0.6,0.1,0.9,0.1c0.5,0.1,0.9,0.1,1.4,0.2c0.1,0,0.2,0,0.3,0c0.5,0.1,0.9,0.2,1.4,0.2
	c0.5,0.1,1.1,0.2,1.6,0.3c0.1,0,0.2,0,0.2,0c0,0,0.1,0,0.1,0c0.1,0,0.1,0,0.2,0c0,0,0,0,0,0c0.2,0,0.3,0.1,0.5,0.1c0,0,0,0,0,0
	c0.1,0,0.2,0,0.3,0.1c0.1,0,0.1,0,0.2,0c0.1,0,0.2,0,0.3,0.1c0.1,0,0.1,0,0.2,0c0.1,0,0.1,0,0.2,0c0.3,0.1,0.6,0.2,0.9,0.2
	c0.4,0.1,0.8,0.2,1.2,0.4c0,0,0,0,0,0c0.1,0,0.2,0,0.3,0.1c13.6,4.3,24,13.7,34.9,27l0.1,0c0,0,0,0,0,0l39.7-30.4c0,0,0,0,0-0.1l0,0
	c-20.3-25.5-46.5-45.4-93.4-45.4c-6.5,0-12.7,0.4-18.6,1.2V0C397.5,0,512,114.6,512,256z"/>
<path class="st8" d="M259.5,152.5c-0.6,0.2-1.2,0.4-1.8,0.6C258.3,152.8,258.9,152.6,259.5,152.5z"/>
<path class="st8" d="M257.6,153.1c-0.1,0.1-0.3,0.1-0.4,0.2c-0.1,0-0.2,0.1-0.3,0.1c-0.3,0.1-0.5,0.2-0.8,0.3c0,0-0.1,0-0.1,0v0
	c0.3-0.1,0.6-0.2,0.9-0.3C257.1,153.3,257.3,153.2,257.6,153.1z"/>
<path class="st8" d="M268.5,150.6c-0.4,0-0.8,0.1-1.1,0.1c-0.2,0-0.4,0-0.6,0.1c-0.3,0-0.5,0.1-0.8,0.1c-0.3,0-0.5,0.1-0.8,0.1
	c0.3-0.1,0.6-0.1,0.9-0.2c0.5-0.1,1-0.2,1.5-0.2C267.9,150.6,268.2,150.6,268.5,150.6z"/>
<path class="st8" d="M271.2,150.3c-0.5,0-1,0.1-1.5,0.1C270.1,150.4,270.6,150.4,271.2,150.3L271.2,150.3z"/>
<path class="st8" d="M368,149.3C368,149.4,368,149.4,368,149.3l-39.7,30.5c0,0,0,0,0,0L368,149.3L368,149.3
	c-6.8-8.5-14.2-16.4-22.9-23.1c-0.7-0.6-1.4-1.1-2.2-1.7c-0.7-0.5-1.5-1.1-2.2-1.6c-0.8-0.5-1.5-1-2.3-1.6h0c-0.8-0.5-1.5-1-2.3-1.5
	h0c-1.6-1-3.2-1.9-4.9-2.8c0,0,0,0,0,0c-1.1-0.6-2.2-1.2-3.4-1.8c-1.7-0.9-3.5-1.7-5.3-2.4c0,0-0.1,0-0.1,0
	c-1.5-0.6-3.1-1.3-4.7-1.8c-1.6-0.6-3.2-1.1-4.9-1.7c-1.6-0.5-3.3-1-5.1-1.4c-1.2-0.3-2.3-0.6-3.5-0.8c-2.4-0.5-4.8-1-7.3-1.4
	c-1.8-0.3-3.7-0.5-5.7-0.8c-0.7-0.1-1.5-0.2-2.2-0.2c-0.9-0.1-1.9-0.2-2.9-0.2c-1-0.1-2.1-0.1-3.2-0.2c-2.7-0.1-5.6-0.2-8.5-0.2
	c-2.4,0-4.8,0.1-7.2,0.2c-1,0-1.9,0.1-2.9,0.2c-1.5,0.1-2.9,0.2-4.3,0.4c-0.7,0.1-1.4,0.1-2.1,0.2c-0.4,0-0.7,0.1-1.1,0.1
	c-0.3,0-0.7,0.1-1,0.1c0,0-0.1,0-0.1,0V0h0.1v105.1c5.9-0.8,12.1-1.2,18.6-1.2C321.5,103.9,347.7,123.8,368,149.3L368,149.3z"/>
<rect x="229.8" y="279.2" class="st5" width="26.2" height="69.4"/>
<path class="st5" d="M256,153.8V237h-26.1v-36.1c0-15.4,4.1-28,11.7-36.8c0.5-0.6,1-1.1,1.6-1.7c0.3-0.3,0.5-0.6,0.8-0.8
	c0,0,0,0,0.1-0.1c0,0,0.1-0.1,0.2-0.1c0.2-0.2,0.5-0.5,0.7-0.7c0,0,0.1-0.1,0.1-0.1c0.3-0.3,0.7-0.6,1-0.9c0.4-0.3,0.8-0.7,1.3-1
	c0,0,0.1-0.1,0.1-0.1c0.1-0.1,0.2-0.1,0.2-0.2c0.3-0.2,0.6-0.5,1-0.7c0,0,0,0,0.1-0.1c0,0,0,0,0.1,0c0,0,0.1,0,0.1-0.1
	c0.3-0.2,0.6-0.4,1-0.6c0.2-0.1,0.3-0.2,0.5-0.3c0.2-0.1,0.4-0.3,0.7-0.4c0.3-0.2,0.6-0.4,0.9-0.5c0.1-0.1,0.2-0.1,0.2-0.1
	c0.3-0.2,0.6-0.3,1-0.5C254.1,154.6,255,154.2,256,153.8z"/>
<path class="st6" d="M241.6,164.1c-7.6,8.8-11.7,21.4-11.7,36.8V237h-0.1v-36c0-0.8,0-1.6,0-2.4c0-0.6,0-1.1,0.1-1.7
	c0-0.1,0-0.3,0-0.4c0-0.6,0.1-1.3,0.1-1.9c0.1-0.8,0.1-1.6,0.2-2.4c0.1-0.6,0.1-1.2,0.2-1.7c0.2-1.3,0.4-2.6,0.7-3.9
	c0.1-0.6,0.3-1.3,0.4-1.9c0.6-2.5,1.3-4.9,2.1-7.1c0.2-0.6,0.4-1.1,0.7-1.7c0.7-1.6,1.5-3.2,2.3-4.7c0.2-0.5,0.5-0.9,0.8-1.3
	c0.1-0.1,0.1-0.2,0.2-0.2c0.3-0.4,0.6-0.9,0.8-1.3c0.3-0.5,0.6-0.9,1-1.4c0.3-0.4,0.5-0.7,0.8-1.1
	C240.7,165.2,241.1,164.7,241.6,164.1z"/>
<path class="st6" d="M244,161.6c-0.3,0.3-0.5,0.5-0.8,0.8c-0.5,0.5-1.1,1.1-1.6,1.7c0.2-0.3,0.5-0.5,0.7-0.8
	c0.3-0.3,0.6-0.6,0.8-0.9v0C243.5,162.1,243.7,161.8,244,161.6z"/>
<path class="st6" d="M244.2,161.4c0,0-0.1,0.1-0.2,0.1v0C244.1,161.5,244.2,161.4,244.2,161.4z"/>
<path class="st9" d="M240.2,165.8c0.5-0.6,0.9-1.1,1.4-1.7c-7.6,8.8-11.7,21.4-11.7,36.8V237h-0.1v-36c0-0.8,0-1.6,0-2.4
	c0-0.6,0-1.1,0.1-1.7c0-0.1,0-0.3,0-0.4c0-0.6,0.1-1.3,0.1-1.9c0.1-0.8,0.1-1.6,0.2-2.4c0.1-0.6,0.1-1.2,0.2-1.7
	c0.2-1.3,0.4-2.6,0.7-3.9c0.1-0.6,0.3-1.3,0.4-1.9c0.6-2.5,1.3-4.9,2.1-7.1c0.2-0.6,0.4-1.1,0.7-1.7c0.7-1.6,1.5-3.2,2.3-4.7
	c0.2-0.5,0.5-0.9,0.8-1.3c0.1-0.1,0.1-0.2,0.2-0.2c0.3-0.4,0.6-0.9,0.8-1.3c0.3-0.5,0.6-0.9,1-1.4
	C239.6,166.5,239.9,166.2,240.2,165.8z"/>
<path class="st9" d="M243.2,162.4c0.3-0.3,0.5-0.5,0.8-0.8C243.7,161.8,243.5,162.1,243.2,162.4c-0.5,0.6-1,1.1-1.6,1.7
	c0.2-0.3,0.5-0.5,0.7-0.8C242.6,163,242.9,162.7,243.2,162.4L243.2,162.4z"/>
<path class="st9" d="M244.1,161.5c0-0.1,0.1-0.1,0.2-0.1C244.2,161.4,244.1,161.5,244.1,161.5L244.1,161.5z"/>
<path class="st9" d="M267.6,150.7c0.3,0,0.6-0.1,0.9-0.1c-0.4,0-0.8,0.1-1.1,0.1c-0.2,0-0.4,0-0.6,0.1c-0.3,0-0.6,0.1-0.8,0.1
	c-0.3,0-0.5,0.1-0.8,0.1c0,0,0,0-0.1,0c-1.9,0.3-3.7,0.8-5.5,1.3c0,0-0.1,0-0.1,0c-0.3,0.1-0.6,0.2-0.9,0.3v0
	c-0.2,0-0.3,0.1-0.5,0.2c-0.1,0-0.2,0-0.2,0.1c0,0-0.1,0-0.2,0c0,0,0,0,0,0c0,0,0,0-0.1,0c0,0,0,0,0,0c0,0,0,0,0,0
	c-0.1,0.1-0.3,0.1-0.4,0.2c-0.1,0-0.2,0.1-0.3,0.1c-0.3,0.1-0.5,0.2-0.8,0.3c0,0-0.1,0-0.1,0v0c0.3-0.1,0.6-0.2,0.9-0.3
	c2.9-1.1,5.9-2,9.2-2.5C266.6,150.8,267.1,150.7,267.6,150.7z"/>
<path class="st9" d="M271.1,150.3L271.1,150.3c-0.4,0-1,0.1-1.5,0.1C270.1,150.4,270.6,150.4,271.1,150.3z"/>
<path class="st9" d="M291.2,104.9c1.9,0.2,3.8,0.5,5.7,0.8C295.1,105.4,293.2,105.1,291.2,104.9z"/>
<path class="st9" d="M312.8,109.4c-1.6-0.5-3.3-1-5.1-1.4C309.5,108.4,311.2,108.8,312.8,109.4z"/>
<path class="st9" d="M322.4,112.9c-1.5-0.6-3.1-1.3-4.7-1.8C319.3,111.6,320.9,112.2,322.4,112.9z"/>
<path class="st9" d="M336,119.9c-1.6-1-3.2-1.9-4.9-2.8C332.8,118,334.5,118.9,336,119.9z"/>
<path class="st9" d="M368,149.4l-39.7,30.4c0,0,0,0,0,0c-5.8-7.1-11.4-13-17.5-17.7c6.1,4.7,11.8,10.6,17.6,17.7l39.6-30.3
	c-6.8-8.5-14.2-16.4-22.8-23.1C353.7,133,361.2,140.8,368,149.4C368,149.4,368,149.4,368,149.4z"/>
<path class="st10" d="M256,105.2v48.5c-2.5,1-4.9,2.3-7.1,3.9c0,0-0.1,0.1-0.1,0.1c0,0,0,0-0.1,0c0,0,0,0-0.1,0.1
	c-0.3,0.2-0.6,0.4-1,0.7c-0.1,0.1-0.2,0.1-0.2,0.2c0,0-0.1,0-0.1,0.1c-0.4,0.3-0.9,0.7-1.3,1c-0.3,0.3-0.7,0.6-1,0.9
	c0,0-0.1,0.1-0.1,0.1c-0.2,0.2-0.5,0.5-0.7,0.7c0,0-0.1,0.1-0.2,0.1v0c0,0,0,0-0.1,0.1c-0.3,0.3-0.5,0.5-0.8,0.8v0
	c-0.3,0.3-0.6,0.6-0.8,0.9c-0.2,0.3-0.5,0.5-0.7,0.8c-0.5,0.6-1,1.1-1.4,1.7c-0.3,0.4-0.6,0.7-0.8,1.1c-0.3,0.4-0.7,0.9-1,1.4
	c-0.3,0.4-0.6,0.9-0.8,1.3c0,0.1-0.1,0.2-0.2,0.2c-0.3,0.4-0.5,0.9-0.8,1.3c-0.8,1.5-1.6,3.1-2.3,4.7c-0.2,0.5-0.4,1.1-0.7,1.7
	c-0.9,2.2-1.6,4.6-2.1,7.1c-0.1,0.6-0.3,1.3-0.4,1.9c-0.3,1.3-0.5,2.6-0.7,3.9c-0.1,0.6-0.1,1.1-0.2,1.7c-0.1,0.8-0.2,1.6-0.2,2.4
	c0,0.6-0.1,1.3-0.1,1.9c0,0.1,0,0.3,0,0.4c0,0.5-0.1,1.1-0.1,1.7c0,0.8,0,1.6,0,2.4v36H256v42.2h-26.2v69.4H256V392H144v-31.6
	l33.4-9.8v-71.4H144V237h33.4v-37.3C177.4,147.1,205.8,112,256,105.2z"/>
<path class="st0" d="M243.2,162.4c0.3-0.3,0.5-0.5,0.8-0.8C243.7,161.8,243.5,162.1,243.2,162.4
	C243.2,162.4,243.2,162.4,243.2,162.4L243.2,162.4z"/>
<path class="st0" d="M256,153.7L256,153.7c-1,0.5-1.9,0.9-2.8,1.4c-0.3,0.2-0.7,0.3-1,0.5c-0.1,0-0.2,0.1-0.2,0.1
	c-0.3,0.2-0.6,0.3-0.9,0.5c-0.2,0.1-0.4,0.3-0.7,0.4c-0.2,0.1-0.3,0.2-0.5,0.3c-0.3,0.2-0.7,0.4-1,0.6
	C251.1,156.1,253.5,154.8,256,153.7z"/>
<rect x="256" y="237" class="st11" width="79" height="42.2"/>
<rect x="256" y="348.6" class="st11" width="111.2" height="43.4"/>
<path class="st11" d="M367.9,149.4l-39.6,30.3c-5.8-7-11.5-13-17.6-17.7c0,0,0,0,0,0c-0.9-0.7-1.9-1.4-2.8-2.1c-0.5-0.3-1-0.7-1.5-1
	c-2.1-1.4-4.3-2.6-6.6-3.6c-0.4-0.2-0.8-0.4-1.2-0.6c-0.8-0.4-1.7-0.7-2.5-1c-0.4-0.2-0.9-0.3-1.3-0.5c-0.5-0.2-0.9-0.3-1.3-0.4
	c-0.5-0.2-0.9-0.3-1.4-0.4c-0.1,0-0.1,0-0.2,0c-0.3-0.1-0.6-0.2-0.9-0.2c-0.1,0-0.1,0-0.2,0c-0.7-0.2-1.4-0.4-2.2-0.5
	c-0.2-0.1-0.4-0.1-0.7-0.1c-0.3-0.1-0.6-0.1-0.9-0.2c-0.5-0.1-0.9-0.2-1.4-0.2c-0.1,0-0.2,0-0.3,0c-0.5-0.1-0.9-0.2-1.4-0.2
	c-0.3,0-0.6-0.1-0.9-0.1c-0.5-0.1-1.1-0.1-1.7-0.2c-0.7-0.1-1.4-0.1-2.1-0.2c-1.4-0.1-2.9-0.1-4.3-0.1c-0.8,0-1.7,0-2.5,0.1
	c0,0-0.1,0-0.1,0c-0.2,0-0.4,0-0.5,0c-0.1,0-0.2,0-0.4,0c-0.1,0-0.2,0-0.3,0c0,0,0,0-0.1,0c-0.5,0-1,0.1-1.5,0.1
	c-0.4,0-0.8,0.1-1.1,0.1c-0.3,0-0.6,0.1-0.9,0.1c-0.5,0.1-1,0.1-1.5,0.2c-3.3,0.5-6.4,1.4-9.2,2.5c-0.3,0.1-0.6,0.2-0.9,0.3v-48.5
	c0.3,0,0.7-0.1,1-0.1c0.4,0,0.7-0.1,1.1-0.1c0.7-0.1,1.4-0.2,2.1-0.2c1.4-0.1,2.8-0.3,4.3-0.4c1-0.1,1.9-0.1,2.9-0.2
	c2.4-0.1,4.8-0.2,7.2-0.2c2.9,0,5.7,0.1,8.5,0.2c1.1,0.1,2.1,0.1,3.2,0.2c1,0.1,1.9,0.2,2.9,0.2c0.7,0.1,1.5,0.1,2.2,0.2
	c1.9,0.2,3.8,0.5,5.7,0.8c2.5,0.4,5,0.9,7.3,1.4c1.2,0.3,2.4,0.5,3.5,0.8c1.7,0.5,3.4,0.9,5.1,1.4c1.7,0.5,3.3,1.1,4.9,1.7
	c1.6,0.6,3.2,1.2,4.7,1.8c0,0,0.1,0,0.1,0c1.8,0.8,3.6,1.6,5.3,2.4c1.1,0.6,2.3,1.1,3.4,1.8c0,0,0,0,0,0c1.7,0.9,3.3,1.8,4.9,2.8h0
	c0.8,0.5,1.6,1,2.3,1.5h0c0.8,0.5,1.5,1,2.3,1.6c0.8,0.5,1.5,1.1,2.2,1.6c0.7,0.5,1.5,1.1,2.2,1.7
	C353.7,133,361.1,140.9,367.9,149.4z"/>
<path class="st12" d="M289.7,151.9c0.3,0.1,0.7,0.2,1,0.3c-0.1,0-0.1,0-0.2,0c-0.1,0-0.2,0-0.3-0.1c-0.1,0-0.1,0-0.2,0
	c-0.3-0.1-0.7-0.2-1.1-0.2c-0.1,0-0.2-0.1-0.4-0.1c0,0,0,0-0.1,0c0.2,0,0.4,0.1,0.6,0.1c0,0,0,0,0,0
	C289.4,151.8,289.6,151.8,289.7,151.9z"/>
<path class="st12" d="M292,152.5c0.5,0.1,1,0.3,1.4,0.4c0,0-0.1,0-0.1,0c-0.1,0-0.2,0-0.3-0.1c0,0,0,0,0,0
	C292.7,152.7,292.4,152.5,292,152.5z"/>
<path class="st12" d="M368,149.3L368,149.3l-0.1,0.1c-6.8-8.5-14.2-16.4-22.8-23.1c-0.7-0.6-1.4-1.1-2.2-1.7
	c-0.7-0.5-1.5-1.1-2.2-1.6c-0.8-0.5-1.5-1-2.3-1.6h0c-0.8-0.5-1.5-1-2.3-1.5h0c-1.6-1-3.2-1.9-4.9-2.8c0,0,0,0,0,0
	c-1.1-0.6-2.2-1.2-3.4-1.8c-1.7-0.9-3.5-1.7-5.3-2.4c0,0-0.1,0-0.1,0c-1.5-0.6-3.1-1.3-4.7-1.8c-1.6-0.6-3.2-1.1-4.9-1.7
	c-1.6-0.5-3.3-1-5.1-1.4c-1.2-0.3-2.3-0.6-3.5-0.8c-2.4-0.5-4.8-1-7.3-1.4c-1.8-0.3-3.7-0.5-5.7-0.8c-0.7-0.1-1.5-0.2-2.2-0.2
	c-0.9-0.1-1.9-0.2-2.9-0.2c-1-0.1-2.1-0.1-3.2-0.2c-2.7-0.1-5.6-0.2-8.5-0.2c-2.4,0-4.8,0.1-7.2,0.2c-1,0-1.9,0.1-2.9,0.2
	c-1.5,0.1-2.9,0.2-4.3,0.4c-0.7,0.1-1.4,0.1-2.1,0.2c-0.4,0-0.7,0.1-1.1,0.1c-0.3,0-0.6,0.1-1,0.1v-0.1c5.9-0.8,12.1-1.2,18.6-1.2
	C321.5,103.9,347.7,123.8,368,149.3z"/>
</svg>
