<?xml version="1.0" encoding="UTF-8" standalone="no"?>
<svg
   viewBox="0 0 512 512"
   version="1.1"
   id="svg2800"
   width="512"
   height="512"
   xmlns="http://www.w3.org/2000/svg"
   xmlns:svg="http://www.w3.org/2000/svg">
  <defs
     id="defs2804" />
  <g
     fill="none"
     fill-rule="evenodd"
     id="g2798"
     transform="scale(16)">
    <circle
       cx="16"
       cy="16"
       r="16"
       fill="#00a6c4"
       id="circle2794" />
    <path
       fill="#ffffff"
       fill-rule="nonzero"
       d="m 24.777,10.5 0.2,0.331 A 10.816,10.816 0 0 1 26.5,16.368 C 26.482,22.236 21.785,27 16,27 H 15.982 C 10.197,27 5.482,22.199 5.5,16.331 5.5,14.363 6.044,12.45 7.041,10.794 l 0.182,-0.312 0.961,0.975 a 3.78,3.78 0 0 0 -0.453,0.9 4.09,4.09 0 0 0 2.43,5.225 4.024,4.024 0 0 0 3.608,-0.46 L 16,19.403 18.557,16.809 c 0.236,0.166 0.508,0.295 0.798,0.405 2.05,0.736 4.298,-0.35 5.023,-2.41 0.435,-1.214 0.236,-2.483 -0.399,-3.495 z m -15.414,2.152 3.01,3.035 c -0.363,0.295 -0.816,0.46 -1.306,0.46 -1.178,0 -2.14,-0.975 -2.14,-2.17 0,-0.497 0.164,-0.957 0.436,-1.325 z m 10.5,2.851 2.974,-3.016 c 0.236,0.35 0.362,0.772 0.362,1.214 0,1.195 -0.96,2.17 -2.14,2.17 -0.453,0 -0.852,-0.129 -1.196,-0.368 z M 16.036,17.784 7.368,8.954 7.712,8.587 C 9.852,6.287 12.772,5 15.91,5 h 0.018 c 3.174,0 6.22,1.38 8.342,3.77 l 0.327,0.369 -8.56,8.645 z M 8.782,8.954 16.036,16.331 23.2,9.102 C 21.278,7.152 18.667,6.03 15.947,6.03 h -0.019 c -2.702,0 -5.222,1.03 -7.145,2.925 z"
       id="path2796" />
  </g>
</svg>
