<svg width="512" height="512" viewBox="0 0 512 512" fill="none" xmlns="http://www.w3.org/2000/svg">
<path d="M256 0V512C114.615 512 0 397.385 0 256C0 114.615 114.615 0 256 0Z" fill="#0295AA"/>
<path d="M256 512V0C397.385 0 512 114.615 512 256C512 397.385 397.385 512 256 512Z" fill="#4ACFD9"/>
<path fill-rule="evenodd" clip-rule="evenodd" d="M256 310.447L220.305 273.952C211.936 279.625 202.349 283.248 192.32 284.527C182.291 285.805 172.101 284.704 162.577 281.312C146.376 275.328 133.197 263.182 125.914 247.522C118.631 231.862 117.834 213.957 123.697 197.712C125.459 192.61 127.897 187.767 130.945 183.312L115.569 167.712L112.657 172.704C96.7048 199.2 88.0008 229.808 88.0008 261.296C87.7128 355.184 163.153 432 255.713 432H256V310.447ZM256 283.956L117.889 143.264L123.393 137.392C157.633 100.592 204.353 80 254.561 80H254.849C255.233 80 255.616 80.0013 256 80.0038V96.4823C255.718 96.4808 255.435 96.48 255.153 96.48H254.849C211.617 96.48 171.297 112.96 140.529 143.28L256 260.709V283.956ZM424 261.305V262.111C424 262.037 424.001 261.962 424.001 261.888C424.001 261.694 424.001 261.499 424 261.305ZM197.969 250.992L149.809 202.432C145.457 208.32 142.833 215.68 142.833 223.632C142.833 242.752 158.225 258.352 177.073 258.352C184.913 258.352 192.161 255.712 197.969 250.992Z" fill="#E6EAEA"/>
<path fill-rule="evenodd" clip-rule="evenodd" d="M256 310.447L291.695 273.952C300.064 279.625 309.651 283.248 319.68 284.527C329.709 285.805 339.899 284.704 349.423 281.312C365.624 275.328 378.803 263.182 386.086 247.522C393.369 231.862 394.166 213.957 388.303 197.712C386.541 192.61 384.103 187.767 381.055 183.312L396.431 167.712L399.343 172.704C415.295 199.2 423.999 229.808 423.999 261.296C424.287 355.184 348.847 432 256.287 432H256V310.447ZM256 283.956L394.111 143.264L388.607 137.392C354.367 100.592 307.647 80 257.439 80H257.151C256.767 80 256.384 80.0013 256 80.0038V96.4823C256.282 96.4808 256.565 96.48 256.847 96.48H257.151C300.383 96.48 340.703 112.96 371.471 143.28L256 260.709V283.956ZM88 261.305V262.111C87.9997 262.037 87.9994 261.962 87.9992 261.888C87.9991 261.694 87.9994 261.499 88 261.305ZM314.031 250.992L362.191 202.432C366.543 208.32 369.167 215.68 369.167 223.632C369.167 242.752 353.775 258.352 334.927 258.352C327.087 258.352 319.839 255.712 314.031 250.992Z" fill="white"/>
</svg>
