<?xml version="1.0" encoding="utf-8"?>
<!-- Generator: Adobe Illustrator 25.4.1, SVG Export Plug-In . SVG Version: 6.00 Build 0)  -->
<svg version="1.1" id="svg2800" xmlns:svg="http://www.w3.org/2000/svg"
	 xmlns="http://www.w3.org/2000/svg" xmlns:xlink="http://www.w3.org/1999/xlink" x="0px" y="0px" viewBox="0 0 512 512"
	 style="enable-background:new 0 0 512 512;" xml:space="preserve">
<style type="text/css">
	.st0{fill:none;}
	.st1{fill:#365558;}
	.st2{fill:#0295AA;}
	.st3{fill:url(#New_Pattern_Swatch_6);}
	.st4{fill:url(#New_Pattern_Swatch_5);}
	.st5{fill:#CED3D4;}
	.st6{fill:#9EA8AA;}
</style>
<pattern  y="512" width="128" height="128" patternUnits="userSpaceOnUse" id="New_Pattern_Swatch_5" viewBox="0 -128 128 128" style="overflow:visible;">
	<g>
		<rect y="-128" class="st0" width="128" height="128"/>
		<rect y="-128" class="st1" width="128" height="128"/>
	</g>
</pattern>
<pattern  y="512" width="128" height="128" patternUnits="userSpaceOnUse" id="New_Pattern_Swatch_6" viewBox="0 -128 128 128" style="overflow:visible;">
	<g>
		<rect y="-128" class="st0" width="128" height="128"/>
		<rect y="-128" class="st2" width="128" height="128"/>
	</g>
</pattern>
<path class="st3" d="M256,0v80c49.6,0,99.2,22.4,132.8,60.8l4.8,4.8L256,284.8v25.6l41.6-41.6c3.2,3.2,8,4.8,12.8,6.4
	c32,11.2,68.8-4.8,80-38.4c6.4-19.2,3.2-40-6.4-56l12.8-12.8l3.2,4.8c16,27.2,24,57.6,24,89.6c0,92.8-75.2,169.6-168,169.6v77.9
	c140.3-0.6,253.9-114.5,253.9-254.9S396.3,0.6,256,0z M337.6,254.4c-8,0-14.4-1.6-19.2-6.4l48-48c3.2,4.8,4.8,12.8,4.8,19.2
	C371.2,238.4,355.2,254.4,337.6,254.4z"/>
<path class="st4" d="M318.4,248l48-48c3.2,4.8,4.8,12.8,4.8,19.2c0,19.2-16,35.2-33.6,35.2C329.6,254.4,323.2,252.8,318.4,248z"/>
<path class="st4" d="M400,172.8l-3.2-4.8L384,180.8c9.6,16,12.8,36.8,6.4,56c-11.2,33.6-48,49.6-80,38.4c-4.8-1.6-9.6-3.2-12.8-6.4
	L256,310.4v-25.6l137.6-139.2l-4.8-4.8C355.2,102.4,305.6,80,256,80V0c-0.3,0-0.7,0-1,0C114.2,0,0,114.2,0,255s114.2,255,255,255
	c0.3,0,0.7,0,1,0V432c92.8,0,168-76.8,168-169.6C424,230.4,416,200,400,172.8z M371.2,145.6L256,260.8V96
	C299.2,96,340.8,115.2,371.2,145.6z"/>
<path class="st5" d="M424,262.4c0,92.8-75.2,169.6-168,169.6V310.4l41.6-41.6c3.2,3.2,8,4.8,12.8,6.4c32,11.2,68.8-4.8,80-38.4
	c6.4-19.2,3.2-40-6.4-56l12.8-12.8l3.2,4.8C416,200,424,230.4,424,262.4z"/>
<path class="st5" d="M371.2,219.2c0,19.2-16,35.2-33.6,35.2c-8,0-14.4-1.6-19.2-6.4l48-48C369.6,204.8,371.2,212.8,371.2,219.2z"/>
<path class="st5" d="M393.6,145.6L256,284.8v-24l115.2-115.2C340.8,115.2,299.2,96,256,96V80c49.6,0,99.2,22.4,132.8,60.8
	L393.6,145.6z"/>
<path class="st6" d="M140.8,142.4L256,259.2v24L118.4,144l4.8-6.4C158.4,100.8,204.8,80,254.4,80c0,0,0,0,0.2,0h1.4v16
	C212.8,96,171.2,112,140.8,142.4z"/>
<path class="st6" d="M198.4,251.2c-6.4,4.8-12.8,8-20.8,8c-19.2,0-33.6-16-33.6-35.2c0-8,3.2-16,6.4-20.8L198.4,251.2z"/>
<path class="st6" d="M256,310.4V432l0,0c-92.8,0-168-76.8-168-171.2c0-32,8-62.4,24-88l3.2-4.8l16,16c-3.2,3.2-6.4,8-8,14.4
	c-12.8,33.6,4.8,70.4,38.4,83.2c19.2,6.4,40,4.8,57.6-8L256,310.4z"/>
<line class="st0" x1="256" y1="432" x2="256" y2="310.4"/>
<path class="st3" d="M371.2,145.6L256,260.8V96C299.2,96,340.8,115.2,371.2,145.6z"/>
<line class="st0" x1="256" y1="96" x2="256" y2="80"/>
<polyline class="st0" points="256,260.8 256,283.2 256,284.8 "/>
</svg>
