<svg width="512" height="512" viewBox="0 0 512 512" fill="none" xmlns="http://www.w3.org/2000/svg">
<path d="M256 0V512C114.615 512 0 397.385 0 256C0 114.615 114.615 0 256 0Z" fill="#365558"/>
<path d="M256 512V0C397.385 0 512 114.615 512 256C512 397.385 397.385 512 256 512Z" fill="#02A6C2"/>
<path fill-rule="evenodd" clip-rule="evenodd" d="M256 242.997C248.848 242.997 242.576 242.997 236.32 243.893V173.013C236.32 138.933 207.696 111.125 172.816 112.021C139.728 112.021 112.896 139.829 112 173.029V338.101C112.896 372.181 140.624 400.005 175.504 399.109C209.488 398.213 236.32 371.301 236.32 338.101V269.013C239.343 269.013 242.37 268.804 245.499 268.588C248.844 268.356 252.304 268.117 256 268.117V242.997ZM188.724 138.951C184.246 137.118 179.446 136.198 174.608 136.245C154.032 136.245 137.936 153.285 137.936 173.029V273.509C144.17 268.136 151.309 264.558 158.436 260.987L158.512 260.949C175.401 253.697 193.126 248.575 211.28 245.701V173.029C211.342 168.191 210.437 163.389 208.617 158.905C206.798 154.422 204.1 150.347 200.684 146.92C197.268 143.494 193.201 140.784 188.724 138.951ZM208.617 352.225C210.437 347.741 211.342 342.939 211.28 338.101L212.176 272.613C196.976 275.301 182.656 278.885 169.248 285.157C149.568 293.237 137.936 307.605 137.936 321.957V338.085C137.872 342.925 138.776 347.728 140.594 352.214C142.413 356.699 145.11 360.776 148.526 364.204C151.942 367.633 156.01 370.343 160.489 372.178C164.968 374.012 169.768 374.932 174.608 374.885C179.446 374.932 184.246 374.012 188.724 372.179C193.201 370.346 197.268 367.636 200.684 364.21C204.1 360.783 206.798 356.708 208.617 352.225Z" fill="#E6EAEA"/>
<path fill-rule="evenodd" clip-rule="evenodd" d="M256 268.134C263.152 268.134 269.424 268.134 275.68 267.238V338.118C275.68 372.198 304.304 400.006 339.184 399.11C372.272 399.11 399.104 371.302 400 338.102V173.03C399.104 138.95 371.376 111.126 336.496 112.022C302.512 112.918 275.68 139.83 275.68 173.03V242.118C272.657 242.118 269.63 242.327 266.501 242.543C263.156 242.775 259.696 243.014 256 243.014V268.134ZM323.276 372.18C327.754 374.013 332.554 374.933 337.392 374.886C357.968 374.886 374.064 357.846 374.064 338.102V237.622C367.83 242.995 360.691 246.573 353.564 250.144L353.488 250.182C336.599 257.434 318.874 262.556 300.72 265.43V338.102C300.658 342.94 301.563 347.742 303.383 352.226C305.202 356.709 307.9 360.784 311.316 364.21C314.732 367.637 318.799 370.347 323.276 372.18ZM303.383 158.906C301.563 163.39 300.658 168.192 300.72 173.03L299.824 238.518C315.024 235.83 329.344 232.246 342.752 225.974C362.432 217.894 374.064 203.526 374.064 189.174V173.046C374.128 168.206 373.224 163.403 371.406 158.917C369.587 154.432 366.89 150.355 363.474 146.927C360.058 143.498 355.99 140.787 351.511 138.953C347.032 137.119 342.232 136.198 337.392 136.246C332.554 136.198 327.754 137.118 323.276 138.952C318.799 140.785 314.732 143.494 311.316 146.921C307.9 150.348 305.202 154.423 303.383 158.906Z" fill="white"/>
</svg>
