<svg width="512" height="512" viewBox="0 0 512 512" fill="none" xmlns="http://www.w3.org/2000/svg">
<path d="M256 0V512C114.615 512 0 397.385 0 256C0 114.615 114.615 0 256 0Z" fill="#365558"/>
<path d="M256 512V0C397.385 0 512 114.615 512 256C512 397.385 397.385 512 256 512Z" fill="#0295AA"/>
<path fill-rule="evenodd" clip-rule="evenodd" d="M327.117 368.127H359.627L359.629 144H327.117V211.455H256.055V237.44H328.651V273.151H256.055V299.009H327.117V368.127Z" fill="white"/>
<path fill-rule="evenodd" clip-rule="evenodd" d="M185.012 368.127H152.502L152.5 144H185.012V211.455H256.074V237.44H183.478V273.151H256.074V299.009H185.012V368.127Z" fill="#E6EAEA"/>
</svg>
