<?xml version="1.0" encoding="UTF-8" standalone="no"?>
<svg
   width="512"
   height="512"
   viewBox="0 0 512 512"
   version="1.1"
   id="svg7585"
   xmlns="http://www.w3.org/2000/svg"
   xmlns:svg="http://www.w3.org/2000/svg">
  <defs
     id="defs7589" />
  <g
     fill="none"
     id="g7583"
     transform="scale(16)">
    <circle
       cx="16"
       cy="16"
       r="16"
       fill="#8834ff"
       id="circle7579" />
    <path
       d="m 7,21.23 c 0.191,0 0.392,0.01 0.583,0 0.363,-0.027 0.727,-0.1 1.082,-0.19 a 5.494,5.494 0 0 0 1.928,-0.965 c 0.164,-0.127 0.327,-0.263 0.482,-0.409 0.327,-0.327 0.61,-0.7 0.837,-1.1 0.2,-0.355 0.345,-0.737 0.455,-1.128 0.009,-0.027 0.009,-0.064 0.018,-0.091 h -1.428 a 4.1,4.1 0 0 1 -0.882,-0.1 0.248,0.248 0 0 0 -0.082,-0.018 0.131,0.131 0 0 1 -0.037,-0.028 c 0.082,-0.181 0.155,-0.354 0.228,-0.536 l 0.555,-1.283 a 0.603,0.603 0 0 1 0.081,-0.172 0.207,0.207 0 0 1 0.146,-0.055 c 0.446,-0.009 0.882,0 1.328,0 h 0.118 c -0.018,-0.073 -0.018,-0.127 -0.036,-0.19 A 4.682,4.682 0 0 0 11.539,13.272 6.426,6.426 0 0 0 10.911,12.582 4.666,4.666 0 0 0 9.975,11.899 6.341,6.341 0 0 0 8.865,11.408 5.91,5.91 0 0 0 7.883,11.19 C 7.619,11.162 7.364,11.153 7.101,11.135 7.037,11.135 6.973,11.126 6.91,11.117 A 0.082,0.082 0 0 1 6.855,11.062 C 6.764,10.853 6.673,10.653 6.582,10.444 6.472,10.198 6.372,9.953 6.264,9.716 6.182,9.516 6.091,9.326 6,9.116 L 6.191,9.061 C 6.591,9.007 7.001,8.989 7.41,9.007 a 8.738,8.738 0 0 1 1.928,0.282 c 0.4,0.109 0.8,0.245 1.182,0.409 0.537,0.227 1.046,0.51 1.52,0.846 0.208,0.154 0.417,0.318 0.618,0.482 0.09,0.073 0.181,0.155 0.272,0.236 0.455,0.437 0.855,0.937 1.192,1.474 0.336,0.536 0.582,1.118 0.746,1.728 0.054,0.2 0.09,0.41 0.136,0.61 a 0.08,0.08 0 0 0 0.073,0.054 h 1.846 c 0.037,-0.146 0.064,-0.291 0.091,-0.437 0.11,-0.427 0.255,-0.837 0.437,-1.228 0.145,-0.327 0.327,-0.645 0.536,-0.936 0.191,-0.264 0.391,-0.528 0.61,-0.773 a 5.73,5.73 0 0 1 0.518,-0.537 8.284,8.284 0 0 1 1.237,-0.928 C 20.807,10.007 21.28,9.779 21.78,9.598 22.126,9.48 22.471,9.371 22.817,9.28 23.08,9.216 23.335,9.17 23.608,9.134 23.826,9.098 24.054,9.08 24.281,9.061 c 0.146,-0.009 0.282,-0.018 0.428,-0.018 0.218,0 0.427,-0.009 0.636,0 0.21,0.01 0.419,0.055 0.628,0.091 0.009,0 0.009,0.01 0.027,0.027 l -0.155,0.364 c -0.163,0.382 -0.327,0.764 -0.5,1.155 a 5.877,5.877 0 0 0 -0.182,0.419 c -0.036,0.09 -0.127,0.054 -0.19,0.072 -0.055,0.01 -0.1,0.01 -0.155,0 a 6.308,6.308 0 0 0 -2.683,0.628 5.348,5.348 0 0 0 -1.092,0.71 c -0.136,0.118 -0.29,0.236 -0.418,0.372 -0.328,0.328 -0.61,0.7 -0.837,1.11 a 5.451,5.451 0 0 0 -0.436,1.064 c -0.01,0.027 -0.01,0.064 -0.019,0.091 h 0.1 c 0.473,0 0.955,-0.01 1.428,0 0.282,0 0.564,0.045 0.837,0.136 0.01,0.01 0.018,0.01 0.027,0.019 l -0.263,0.6 c -0.182,0.427 -0.373,0.855 -0.555,1.291 -0.055,0.128 -0.091,0.155 -0.237,0.155 h -1.328 c 0.037,0.127 0.064,0.236 0.1,0.346 0.128,0.382 0.31,0.745 0.537,1.082 0.137,0.2 0.282,0.382 0.437,0.564 0.09,0.109 0.19,0.218 0.29,0.309 0.337,0.327 0.72,0.61 1.128,0.837 0.346,0.2 0.719,0.364 1.101,0.49 0.364,0.128 0.746,0.21 1.137,0.246 l 0.718,0.055 c 0.091,0.01 0.182,0.01 0.273,0.018 0.018,0.01 0.037,0.018 0.046,0.037 0.154,0.363 0.309,0.727 0.473,1.091 l 0.39,0.891 c -0.127,0.028 -0.245,0.055 -0.372,0.064 -0.31,0.018 -0.628,0.036 -0.937,0.036 -0.282,0 -0.564,-0.027 -0.837,-0.063 a 16.283,16.283 0 0 1 -1.128,-0.2 8.51,8.51 0 0 1 -1.31,-0.437 7.936,7.936 0 0 1 -1.436,-0.8 19.28,19.28 0 0 1 -0.691,-0.537 4.257,4.257 0 0 1 -0.419,-0.391 7.38,7.38 0 0 1 -1.4,-2 6.055,6.055 0 0 1 -0.455,-1.374 c -0.018,-0.046 -0.027,-0.1 -0.037,-0.146 0,-0.09 -0.045,-0.109 -0.127,-0.109 h -1.837 a 6.713,6.713 0 0 1 -0.437,1.437 5.722,5.722 0 0 1 -0.609,1.11 9.887,9.887 0 0 1 -0.61,0.773 4.653,4.653 0 0 1 -0.509,0.527 c -0.282,0.246 -0.582,0.473 -0.882,0.7 a 7.216,7.216 0 0 1 -1.146,0.665 8.122,8.122 0 0 1 -2.365,0.709 c -0.282,0.045 -0.564,0.073 -0.845,0.1 a 4.26,4.26 0 0 1 -0.482,0 c -0.237,0 -0.473,-0.01 -0.7,-0.018 C 6.318,23.349 6.236,23.341 6.155,23.322 6.109,23.313 6.091,23.295 6.118,23.241 6.3,22.822 6.491,22.404 6.673,21.985 6.783,21.731 6.883,21.495 7,21.231 Z"
       fill="#ffffff"
       id="path7581" />
  </g>
</svg>
