<?xml version="1.0" encoding="utf-8"?>
<!-- Generator: Adobe Illustrator 25.4.1, SVG Export Plug-In . SVG Version: 6.00 Build 0)  -->
<svg version="1.1" id="svg7585" xmlns:svg="http://www.w3.org/2000/svg"
	 xmlns="http://www.w3.org/2000/svg" xmlns:xlink="http://www.w3.org/1999/xlink" x="0px" y="0px" viewBox="0 0 512 512"
	 style="enable-background:new 0 0 512 512;" xml:space="preserve">
<style type="text/css">
	.st0{fill:none;}
	.st1{fill:#CDD4D5;}
	.st2{fill:#FD6A33;}
	.st3{fill:#FF8C29;}
	.st4{fill:#365558;}
	.st5{fill:#0295AA;}
	.st6{fill:#9BAAAB;}
	.st7{fill:url(#New_Pattern_Swatch_5);}
	.st8{fill:url(#SVGID_1_);}
	.st9{fill:url(#SVGID_00000173127796163623826500000014319019180273405116_);}
	.st10{fill:url(#SVGID_00000057860161859691920650000016753028692602922427_);}
	.st11{fill:url(#SVGID_00000031916843726408001220000013766060474734719647_);}
	.st12{fill:url(#New_Pattern_Swatch_6);}
	.st13{fill:url(#SVGID_00000157290496527793349350000013525326757969809597_);}
	.st14{fill:url(#SVGID_00000103265663746648671370000005432800023736106420_);}
	.st15{fill:url(#SVGID_00000048475207977910435500000008926090135039147960_);}
	.st16{fill:url(#SVGID_00000068676256287277928560000015867466835974078627_);}
	.st17{fill:url(#SVGID_00000034061120152835603420000008073189933573545629_);}
	.st18{fill:url(#SVGID_00000021092612481700624590000002678949383110172321_);}
	.st19{fill:url(#SVGID_00000112600588631101133600000008242244147404479621_);}
</style>
<pattern  y="512" width="128" height="128" patternUnits="userSpaceOnUse" id="New_Pattern_Swatch_10" viewBox="0 -128 128 128" style="overflow:visible;">
	<g>
		<rect y="-128" class="st0" width="128" height="128"/>
		<g>
			<rect y="-128" class="st0" width="128" height="128"/>
			<rect y="-128" class="st1" width="128" height="128"/>
		</g>
	</g>
</pattern>
<pattern  y="512" width="128" height="128" patternUnits="userSpaceOnUse" id="New_Pattern_Swatch_3" viewBox="0 -128 128 128" style="overflow:visible;">
	<g>
		<rect y="-128" class="st0" width="128" height="128"/>
		<g>
			<rect y="-128" class="st0" width="128" height="128"/>
			<rect y="-128" class="st2" width="128" height="128"/>
		</g>
	</g>
</pattern>
<pattern  y="512" width="128" height="128" patternUnits="userSpaceOnUse" id="New_Pattern_Swatch_4" viewBox="0 -128 128 128" style="overflow:visible;">
	<g>
		<rect y="-128" class="st0" width="128" height="128"/>
		<g>
			<rect y="-128" class="st0" width="128" height="128"/>
			<rect y="-128" class="st3" width="128" height="128"/>
		</g>
	</g>
</pattern>
<pattern  y="512" width="128" height="128" patternUnits="userSpaceOnUse" id="New_Pattern_Swatch_5" viewBox="0 -128 128 128" style="overflow:visible;">
	<g>
		<rect y="-128" class="st0" width="128" height="128"/>
		<rect y="-128" class="st4" width="128" height="128"/>
	</g>
</pattern>
<pattern  y="512" width="128" height="128" patternUnits="userSpaceOnUse" id="New_Pattern_Swatch_6" viewBox="0 -128 128 128" style="overflow:visible;">
	<g>
		<rect y="-128" class="st0" width="128" height="128"/>
		<rect y="-128" class="st5" width="128" height="128"/>
	</g>
</pattern>
<pattern  y="512" width="128" height="128" patternUnits="userSpaceOnUse" id="New_Pattern_Swatch_9" viewBox="0 -128 128 128" style="overflow:visible;">
	<g>
		<rect y="-128" class="st0" width="128" height="128"/>
		<g>
			<rect y="-128" class="st0" width="128" height="128"/>
			<rect y="-128" class="st6" width="128" height="128"/>
		</g>
	</g>
</pattern>
<path class="st7" d="M256,0v242h-14.8c-0.5,0-1-0.4-1.2-0.9c-0.7-3.2-1.3-6.6-2.2-9.8c-2.6-9.8-6.6-19.1-11.9-27.6
	c-5.4-8.6-11.8-16.6-19.1-23.6c-1.5-1.3-2.9-2.6-4.3-3.8c-3.2-2.6-6.6-5.2-9.9-7.7c-7.6-5.4-15.7-9.9-24.3-13.5
	c-6.1-2.6-12.5-4.8-18.9-6.5c-10.1-2.7-20.4-4.2-30.8-4.5c-6.6-0.3-13.1,0-19.5,0.9l-3.1,0.9c0,0,0,0.1,0,0.1l0,0
	c1.4,3.4,2.9,6.4,4.2,9.6c1.7,3.8,3.3,7.7,5.1,11.6c1.5,3.4,2.9,6.6,4.4,9.9c0.1,0.4,0.5,0.8,0.9,0.9c1.1,0.2,2.1,0.3,3.1,0.3
	c4.2,0.3,8.3,0.5,12.5,0.9c5.3,0.7,10.6,1.9,15.7,3.5c6.2,2,12.1,4.6,17.8,7.8c5.5,3,10.5,6.7,15,10.9c3.6,3.4,6.9,7.1,10,11
	c6.3,8,10.8,17.3,13.4,27.1c0.2,0.8,0.3,1.5,0.5,2.5c0,0,0,0,0,0c0,0.1,0.1,0.3,0.1,0.4h-1.9c-7.1,0-14.1-0.1-21.2,0
	c-0.9,0-1.7,0.3-2.3,0.9c-0.6,0.8-1,1.8-1.3,2.8l-8.9,20.5c-1.2,2.9-2.3,5.7-3.6,8.6c0,0,0,0,0,0c0,0,0,0.1,0,0.1
	c0.2,0.1,0.4,0.3,0.6,0.4c0.4,0,0.9,0.1,1.3,0.3c4.6,1,9.3,1.6,14.1,1.6h22.8c-0.1,0.4-0.1,0.9-0.3,1.4c-1.8,6.2-4.1,12.4-7.3,18
	c-3.6,6.4-8.2,12.4-13.4,17.6c-2.5,2.3-5.1,4.5-7.7,6.5c-9.2,7.1-19.6,12.4-30.8,15.4c-5.7,1.4-11.5,2.6-17.3,3
	c-3.1,0.2-6.3,0-9.3,0c-1.9,4.2-3.5,8-5.2,12.1c-2.9,6.7-6,13.4-8.9,20.1c-0.2,0.4-0.2,0.7-0.2,0.9c0,0,0,0,0,0.1
	c0.1,0.3,0.3,0.4,0.8,0.4c1.3,0.3,2.6,0.4,3.9,0.6c3.6,0.1,7.4,0.3,11.2,0.3c2.5,0.1,5.1,0.1,7.7,0c4.5-0.4,9-0.9,13.5-1.6
	c13.1-1.8,25.8-5.6,37.8-11.3c6.4-2.9,12.5-6.5,18.3-10.6c4.8-3.6,9.6-7.3,14.1-11.2c2.9-2.6,5.6-5.4,8.1-8.4
	c3.5-4,6.8-8.1,9.8-12.4c0.7-1,1.4-2.1,2.1-3.2c2.5-3.9,4.7-8,6.6-12.2c0-0.1,0.1-0.1,0.1-0.2c0.3-0.7,0.6-1.5,0.9-2.2
	c3.2-7.4,5.5-15.1,7-23H256V512C114.6,512,0,397.4,0,256S114.6,0,256,0z"/>
<pattern  id="SVGID_1_" xlink:href="#New_Pattern_Swatch_3" patternTransform="matrix(1 0 0 -1 27 -16683)">
</pattern>
<path class="st8" d="M175.5,277.5h22.8c0,0,0,0.1,0,0.1L175.5,277.5c-4.8,0.1-9.5-0.5-14.1-1.5c-0.4-0.2-0.9-0.3-1.3-0.3
	c-0.2-0.1-0.4-0.3-0.6-0.4c0,0,0,0,0-0.1c0.2,0.2,0.4,0.3,0.6,0.4c0.5,0,0.9,0.1,1.3,0.3C166,276.9,170.8,277.5,175.5,277.5z"/>
<pattern  id="SVGID_00000059994526792163364590000017095856719712499331_" xlink:href="#New_Pattern_Swatch_3" patternTransform="matrix(1 0 0 -1 27 -16683)">
</pattern>
<path style="fill:url(#SVGID_00000059994526792163364590000017095856719712499331_);" d="M100.2,155.6c-1.3-3.2-2.8-6.2-4.2-9.6l0,0
	C97.5,149.3,98.9,152.3,100.2,155.6c1.7,3.7,3.3,7.6,5.1,11.5c1.5,3.4,2.9,6.6,4.4,9.9c0.1,0.4,0.5,0.8,0.9,0.9c1,0.2,2,0.3,3.1,0.3
	c4.2,0.3,8.3,0.4,12.5,0.9c5.3,0.7,10.6,1.9,15.7,3.5c6.2,2,12.1,4.7,17.8,7.8c5.4,3,10.5,6.7,15,10.9c3.6,3.4,7,7.1,10,11
	c6.3,8,10.8,17.2,13.4,27.1c0.3,1,0.3,1.9,0.6,3h0c-0.3-1.2-0.3-1.9-0.6-2.9c-2.6-9.8-7.1-19.1-13.4-27.1c-3.1-3.9-6.4-7.6-10-11
	c-4.5-4.2-9.5-7.9-15-10.9c-5.7-3.2-11.6-5.8-17.8-7.8c-5.1-1.6-10.4-2.8-15.7-3.5c-4.2-0.4-8.3-0.6-12.5-0.9c-1,0-2-0.1-3.1-0.3
	c-0.4-0.1-0.8-0.5-0.9-0.9c-1.5-3.3-2.9-6.5-4.4-9.9C103.5,163.3,101.9,159.4,100.2,155.6z"/>
<pattern  id="SVGID_00000054227153265294565090000003292562374368222865_" xlink:href="#New_Pattern_Swatch_3" patternTransform="matrix(1 0 0 -1 27 -16683)">
</pattern>
<path style="fill:url(#SVGID_00000054227153265294565090000003292562374368222865_);" d="M223.1,318.4c0.7-1,1.4-2.1,2.1-3.1
	C224.5,316.4,223.8,317.5,223.1,318.4c-3,4.4-6.3,8.5-9.8,12.5c-2.5,3-5.2,5.8-8.1,8.4c-4.5,3.9-9.3,7.6-14.1,11.2
	c-5.8,4.1-11.9,7.7-18.3,10.6c-12,5.7-24.7,9.5-37.8,11.3c-4.5,0.7-9,1.2-13.5,1.6c-2.6,0.1-5.2,0.1-7.7,0c-3.8,0-7.6-0.2-11.2-0.3
	c-1.3-0.2-2.6-0.3-3.9-0.6c-0.4-0.1-0.7-0.2-0.8-0.4c0.1,0.2,0.3,0.3,0.8,0.3c1.3,0.3,2.6,0.4,3.9,0.6c3.6,0.1,7.4,0.3,11.2,0.3
	c2.6,0.1,5.1,0.1,7.7,0c4.5-0.4,9-0.9,13.5-1.6c13.1-1.8,25.9-5.6,37.8-11.3c6.4-3,12.6-6.5,18.3-10.6c4.8-3.6,9.6-7.3,14.1-11.2
	c2.9-2.6,5.6-5.4,8.1-8.4C216.8,326.8,220,322.7,223.1,318.4z"/>
<pattern  id="SVGID_00000015354408467754745110000004824861592157499071_" xlink:href="#New_Pattern_Swatch_3" patternTransform="matrix(1 0 0 -1 27 -16683)">
</pattern>
<path style="fill:url(#SVGID_00000015354408467754745110000004824861592157499071_);" d="M256,277.6v0.1h-16.2
	c-1.5,7.9-3.8,15.6-7,23c-0.3,0.7-0.6,1.5-0.9,2.2c0.3-0.8,0.6-1.5,0.9-2.3c3.2-7.4,5.5-15.1,7-23H256z"/>
<path class="st12" d="M512,256c0,141.4-114.6,256-256,256V277.8h13.1c1.3,0,2,0.3,2,1.7c0.2,0.7,0.3,1.6,0.6,2.3
	c1.6,7.6,4,15,7.3,22c5.6,11.8,13.2,22.6,22.4,32c2.1,2.3,4.3,4.4,6.7,6.3c3.6,3,7.2,5.8,11,8.6c7.2,5,14.9,9.3,23,12.8
	c6.8,2.9,13.8,5.2,21,7c5.9,1.3,11.9,2.4,18,3.2c4.4,0.6,8.9,1,13.4,1c5,0,10-0.3,15-0.6c2.1-0.1,4-0.5,6-1l0-0.1c0,0,0.1,0,0.1,0
	l-6.2-14.3c-2.6-5.8-5.1-11.7-7.6-17.5c-0.1-0.3-0.4-0.4-0.7-0.6c-1.5-0.1-2.9-0.1-4.4-0.3l-11.5-0.9c-6.2-0.6-12.4-1.9-18.2-3.9
	c-6.1-2-12.1-4.6-17.6-7.8c-6.5-3.6-12.7-8.2-18-13.4c-1.6-1.5-3.2-3.2-4.6-5c-2.5-2.9-4.8-5.8-7-9c-3.6-5.4-6.5-11.2-8.6-17.3
	c-0.6-1.7-1-3.4-1.5-5.3h21c1.8,0,2.5-0.3,3.2-1.4c0-0.1,0.1-0.1,0.1-0.2c0-0.1,0.1-0.1,0.1-0.2c0-0.1,0.1-0.2,0.1-0.2
	c0.1-0.2,0.2-0.5,0.3-0.7c2.9-7,6-13.8,8.9-20.7l4.2-9.6c-0.1-0.2-0.3-0.2-0.4-0.3c-4.4-1.5-8.9-2.2-13.4-2.2
	c-7.6-0.2-15.3,0-22.9,0h-1.6c0.1-0.4,0.1-1,0.3-1.5c1.1-3.9,2.5-7.6,4.2-11.3c0.2-0.5,0.5-1.1,0.7-1.6c0.6-1.3,1.3-2.6,2-3.9
	c3.6-6.6,8.2-12.6,13.4-17.8c2.1-2.2,4.5-4.1,6.7-6c5.4-4.5,11.2-8.3,17.5-11.4c13.4-6.4,28-9.9,42.9-10c0.9,0.2,1.6,0.2,2.5,0
	c0.9-0.3,2.2,0.1,2.8-0.9c0,0,0-0.1,0.1-0.1c0.1-0.1,0.2-0.3,0.2-0.4c0.9-2.3,1.9-4.5,2.9-6.7c2.8-6.3,5.4-12.4,8-18.5l2.5-5.8
	c-0.3-0.3-0.3-0.4-0.4-0.4c-3.4-0.6-6.7-1.3-10-1.5c-3.3-0.2-6.7,0-10.2,0c-2.3,0-4.5,0.1-6.8,0.3c-3.6,0.3-7.3,0.6-10.8,1.2
	c-4.4,0.6-8.4,1.3-12.7,2.3c-5.5,1.5-11,3.2-16.6,5.1c-8,2.9-15.6,6.5-22.8,11c-7,4.3-13.7,9.3-19.8,14.8c-3,2.7-5.7,5.6-8.3,8.6
	c-3.5,3.9-6.7,8.2-9.8,12.4c-0.5,0.7-0.9,1.3-1.4,2v0c-2.9,4.2-5.3,8.7-7.3,13.2c-0.2,0.4-0.4,0.8-0.5,1.2c-0.2,0.4-0.3,0.8-0.5,1.1
	c-0.3,0.8-0.7,1.6-1,2.4c-0.6,1.5-1.2,3.1-1.8,4.6c-0.3,0.8-0.6,1.7-0.9,2.5c-0.9,2.6-1.6,5.2-2.3,7.8c-0.4,2.2-0.8,4.6-1.4,6.8H256
	V0C397.4,0,512,114.6,512,256z"/>
<pattern  id="SVGID_00000108271205808618379110000016257308535007525014_" xlink:href="#New_Pattern_Swatch_4" patternTransform="matrix(1 0 0 -1 27 -16683)">
</pattern>
<path style="fill:url(#SVGID_00000108271205808618379110000016257308535007525014_);" d="M270.9,241.8L270.9,241.8
	c0.5-2.2,0.9-4.6,1.3-6.8c0.7-2.6,1.5-5.2,2.3-7.8c-0.8,2.5-1.6,5-2.2,7.6C271.9,237.1,271.4,239.5,270.9,241.8z"/>
<pattern  id="SVGID_00000116202192002985195600000000094781699883238031_" xlink:href="#New_Pattern_Swatch_4" patternTransform="matrix(1 0 0 -1 27 -16683)">
</pattern>
<path style="fill:url(#SVGID_00000116202192002985195600000000094781699883238031_);" d="M279.3,215.1c-0.2,0.5-0.4,1-0.6,1.4
	c0.2-0.4,0.4-0.8,0.5-1.2c2-4.5,4.5-9,7.3-13.2C283.8,206.2,281.4,210.6,279.3,215.1z"/>
<pattern  id="SVGID_00000038372703476430637980000003121381529633802162_" xlink:href="#New_Pattern_Swatch_4" patternTransform="matrix(1 0 0 -1 27 -16683)">
</pattern>
<path style="fill:url(#SVGID_00000038372703476430637980000003121381529633802162_);" d="M309.7,277.7c0-0.1,0-0.1-0.1-0.2h21.2
	c1.7,0,2.5-0.2,3.1-1.2c-0.7,1.1-1.4,1.4-3.2,1.4H309.7z"/>
<pattern  id="SVGID_00000090991500698306384660000011217719786271128219_" xlink:href="#New_Pattern_Swatch_4" patternTransform="matrix(1 0 0 -1 27 -16683)">
</pattern>
<path style="fill:url(#SVGID_00000090991500698306384660000011217719786271128219_);" d="M330,206.1c-5.2,5.2-9.8,11.2-13.4,17.8
	c0-0.1,0.1-0.1,0.1-0.2c3.6-6.6,8.1-12.5,13.4-17.8c2-2.2,4.5-4.1,6.7-6c5.3-4.5,11.2-8.3,17.5-11.4c13.4-6.5,28.1-9.9,42.9-10
	c0.9,0.2,1.6,0.2,2.5,0c0.9-0.3,2.1,0.1,2.7-0.7c-0.7,1-1.9,0.6-2.8,0.9c-0.9,0.2-1.6,0.2-2.5,0c-14.9,0.1-29.5,3.6-42.9,10
	c-6.3,3.1-12.1,6.9-17.5,11.4C334.5,202,332.1,203.9,330,206.1z"/>
<pattern  id="SVGID_00000096763793401829425850000015473055974646121874_" xlink:href="#New_Pattern_Swatch_4" patternTransform="matrix(1 0 0 -1 27 -16683)">
</pattern>
<path style="fill:url(#SVGID_00000096763793401829425850000015473055974646121874_);" d="M415.5,373.1c-2,0.5-3.9,0.9-6,1
	c-5,0.3-10,0.6-15,0.6c-4.5,0-9-0.4-13.4-1c-6.1-0.8-12.1-1.9-18-3.2c-7.2-1.8-14.2-4.1-21-7c-8.1-3.5-15.8-7.8-23-12.8
	c-3.8-2.8-7.4-5.6-11-8.6c-2.4-1.9-4.6-4-6.7-6.3c-9.2-9.4-16.8-20.2-22.4-32c-3.3-7-5.7-14.4-7.3-22c-0.3-0.7-0.4-1.6-0.6-2.3
	c0-1.4-0.7-1.7-2-1.7H256v-0.1h13.2c1.3,0,2,0.3,2,1.7c0.2,0.7,0.3,1.6,0.6,2.3c1.5,7.6,4,15,7.3,22c5.6,11.8,13.2,22.6,22.4,32
	c2.1,2.2,4.3,4.3,6.7,6.3c3.6,2.9,7.3,5.8,11,8.6c7.2,5,14.9,9.3,23,12.8c6.8,2.9,13.8,5.2,21,7c6,1.3,12,2.3,18,3.2
	c4.4,0.6,8.9,1,13.4,1c4.9,0,10-0.3,15-0.6C411.6,373.9,413.4,373.4,415.5,373.1L415.5,373.1z"/>
<pattern  id="SVGID_00000142876527780025684190000018340593923676467864_" xlink:href="#New_Pattern_Swatch_9" patternTransform="matrix(1 0 0 -1 27 -16683)">
</pattern>
<path style="fill:url(#SVGID_00000142876527780025684190000018340593923676467864_);" d="M256,242.1v35.6h-16.2
	c-1.5,7.9-3.8,15.6-7,23c-0.3,0.7-0.6,1.5-0.9,2.2c0,0.1-0.1,0.1-0.1,0.2c-1.9,4.2-4.1,8.3-6.6,12.2c-0.7,1.1-1.4,2.2-2.1,3.2
	c-3,4.3-6.3,8.4-9.8,12.4c-2.5,3-5.2,5.8-8.1,8.4c-4.5,3.9-9.3,7.6-14.1,11.2c-5.8,4.1-11.9,7.7-18.3,10.6
	c-12,5.7-24.7,9.5-37.8,11.3c-4.5,0.7-9,1.2-13.5,1.6c-2.6,0.1-5.2,0.1-7.7,0c-3.8,0-7.6-0.2-11.2-0.3c-1.3-0.2-2.6-0.3-3.9-0.6
	c-0.4-0.1-0.7-0.2-0.8-0.4c0,0,0,0,0-0.1c0-0.2,0-0.5,0.2-0.8c2.9-6.7,6-13.4,8.9-20.1c1.8-4.1,3.4-7.8,5.2-12.1
	c2.1,0,4.2,0.1,6.2,0.1c1,0,2.1,0,3.1-0.1c5.8-0.4,11.6-1.6,17.3-3c11.2-3.1,21.7-8.3,30.8-15.4c2.6-2,5.2-4.2,7.7-6.5
	c5.2-5.2,9.8-11.2,13.4-17.6c3.2-5.7,5.5-11.8,7.3-18c0.2-0.4,0.2-1,0.3-1.5h-22.8c-4.8,0-9.5-0.6-14.1-1.6
	c-0.4-0.2-0.9-0.3-1.3-0.3c-0.2-0.1-0.4-0.3-0.6-0.4c0,0,0,0,0-0.1c1.3-2.9,2.5-5.6,3.6-8.5l8.9-20.5c0.3-1,0.7-1.9,1.3-2.8
	c0.6-0.6,1.5-0.9,2.3-0.9c7.1-0.1,14.1,0,21.2,0h1.9c0,0,0-0.1,0-0.1c-0.3-1.2-0.3-1.9-0.6-2.9c-2.6-9.8-7.1-19.1-13.4-27.1
	c-3.1-3.9-6.4-7.6-10-11c-4.5-4.2-9.5-7.9-15-10.9c-5.7-3.2-11.6-5.8-17.8-7.8c-5.1-1.6-10.4-2.8-15.7-3.5
	c-4.2-0.4-8.3-0.6-12.5-0.9c-1,0-2-0.1-3.1-0.3c-0.4-0.1-0.8-0.5-0.9-0.9c-1.5-3.3-2.9-6.5-4.4-9.9c-1.8-3.9-3.4-7.8-5.1-11.6
	c-1.3-3.2-2.8-6.2-4.2-9.6l0,0l3.1-0.9c6.4-0.9,13-1.2,19.5-0.9c10.4,0.4,20.8,1.9,30.8,4.5c6.4,1.8,12.8,3.9,18.9,6.5
	c8.6,3.6,16.7,8.2,24.3,13.5c3.3,2.5,6.7,5.1,9.9,7.7c1.4,1.2,2.9,2.5,4.3,3.8c7.3,7,13.7,15,19.1,23.6c5.4,8.6,9.3,17.9,11.9,27.6
	c0.9,3.2,1.4,6.6,2.2,9.8c0.2,0.5,0.6,0.9,1.2,0.9H256z"/>
<pattern  id="SVGID_00000132055984958671743650000009645449229538111918_" xlink:href="#New_Pattern_Swatch_10" patternTransform="matrix(1 0 0 -1 27 -16683)">
</pattern>
<path style="fill:url(#SVGID_00000132055984958671743650000009645449229538111918_);" d="M415.5,373L415.5,373c-2,0.6-3.9,1-6,1.1
	c-5,0.3-10,0.6-15,0.6c-4.5,0-9-0.4-13.4-1c-6.1-0.8-12.1-1.9-18-3.2c-7.2-1.8-14.2-4.1-21-7c-8.1-3.5-15.8-7.8-23-12.8
	c-3.8-2.8-7.4-5.6-11-8.6c-2.4-1.9-4.6-4-6.7-6.3c-9.2-9.4-16.8-20.2-22.4-32c-3.3-7-5.7-14.4-7.3-22c-0.3-0.7-0.4-1.6-0.6-2.3
	c0-1.4-0.7-1.7-2-1.7H256V242h14.8c0-0.1,0-0.1,0-0.2c0.6-2.2,1-4.6,1.4-6.8c0.7-2.6,1.5-5.2,2.3-7.8c0.3-0.8,0.6-1.7,0.9-2.5
	c0.5-1.5,1.1-3.1,1.8-4.6c0.3-0.8,0.7-1.6,1-2.4c0.2-0.4,0.3-0.8,0.5-1.1c0.2-0.4,0.4-0.8,0.5-1.2c2-4.5,4.5-9,7.3-13.2v0
	c0.4-0.6,0.8-1.2,1.2-1.8c3.1-4.2,6.3-8.5,9.8-12.4c2.6-3,5.3-5.9,8.3-8.6c6.1-5.5,12.8-10.5,19.8-14.8c7.3-4.5,14.8-8.2,22.8-11
	c5.5-1.9,11.1-3.6,16.6-5.1c4.2-1,8.3-1.8,12.7-2.3c3.5-0.6,7.1-0.9,10.8-1.2c2.3-0.1,4.5-0.3,6.8-0.3c3.5,0,6.8-0.2,10.2,0
	c3.4,0.2,6.7,0.9,10,1.5c0.1,0,0.1,0.2,0.4,0.4l-2.5,5.8c-2.6,6.1-5.2,12.2-8,18.5c-1.1,2.2-2,4.4-2.9,6.7c0,0.1-0.1,0.2-0.1,0.2
	c0,0,0,0.1-0.1,0.1c-0.7,1-1.9,0.6-2.8,0.9c-0.9,0.2-1.6,0.2-2.5,0c-14.9,0.1-29.5,3.6-42.9,10c-6.3,3.1-12.1,6.9-17.5,11.4
	c-2.2,1.9-4.6,3.8-6.7,6c-5.2,5.2-9.8,11.2-13.4,17.8c-0.7,1.3-1.3,2.6-2,3.9c-0.2,0.5-0.5,1.1-0.7,1.6c-1.7,3.7-3.1,7.6-4.3,11.5
	c-0.2,0.4-0.2,1-0.3,1.5h1.6c7.6,0,15.3-0.2,22.9,0c4.5,0,9,0.7,13.4,2.2c0.2,0.2,0.3,0.2,0.4,0.3l-4.2,9.6
	c-2.9,6.8-6,13.7-8.9,20.7c-0.1,0.2-0.2,0.4-0.2,0.5c0,0.1-0.1,0.2-0.1,0.2c0,0.1-0.1,0.1-0.1,0.2c0,0.1-0.1,0.1-0.1,0.2
	c-0.7,1.1-1.4,1.4-3.2,1.4h-21.2c0.6,2,1,3.8,1.6,5.5c2,6.1,5,11.9,8.6,17.3c2.2,3.2,4.5,6.1,7,9c1.4,1.8,3,3.5,4.6,5
	c5.4,5.2,11.5,9.8,18,13.4c5.5,3.2,11.5,5.8,17.6,7.8c5.8,2.1,11.9,3.4,18.2,3.9l11.5,0.9c1.5,0.2,2.9,0.2,4.4,0.3
	c0.3,0.2,0.6,0.3,0.7,0.6c2.5,5.7,5,11.5,7.6,17.4L415.5,373z"/>
</svg>
