<svg width="512" height="512" viewBox="0 0 512 512" fill="none" xmlns="http://www.w3.org/2000/svg">
<path d="M256 0V512C114.615 512 0 397.385 0 256C0 114.615 114.615 0 256 0Z" fill="#0295AA"/>
<path d="M256 512V0C397.385 0 512 114.615 512 256C512 397.385 397.385 512 256 512Z" fill="#4ACFD9"/>
<path fill-rule="evenodd" clip-rule="evenodd" d="M256 274.471H271.168C272.48 274.471 273.2 274.775 273.2 276.215C273.232 276.362 273.263 276.514 273.295 276.668C273.423 277.291 273.561 277.962 273.792 278.551C275.331 286.144 277.775 293.525 281.072 300.535C286.71 312.372 294.281 323.186 303.472 332.535C305.564 334.769 307.803 336.859 310.176 338.791C313.796 341.739 317.482 344.603 321.232 347.383C328.427 352.434 336.127 356.724 344.208 360.183C350.994 363.078 358.003 365.416 365.168 367.175C371.145 368.453 377.164 369.521 383.216 370.375C387.584 370.951 392.096 371.383 396.608 371.383C401.552 371.383 406.64 371.095 411.6 370.807C413.536 370.67 415.342 370.271 417.266 369.847L417.552 369.783L411.312 355.527C408.688 349.703 406.208 343.879 403.744 338.071C403.619 337.808 403.375 337.677 403.124 337.543C403.086 337.522 403.047 337.501 403.008 337.479C402.361 337.423 401.714 337.391 401.067 337.359C400.258 337.32 399.449 337.28 398.64 337.191L387.152 336.311C380.896 335.735 374.784 334.423 368.96 332.375C362.848 330.359 356.88 327.735 351.344 324.535C344.816 320.903 338.688 316.375 333.296 311.143C331.696 309.687 330.096 307.943 328.656 306.199C326.176 303.287 323.856 300.375 321.664 297.175C318.032 291.783 315.12 285.975 313.072 279.863C312.706 278.746 312.399 277.635 312.071 276.452C311.883 275.773 311.688 275.069 311.472 274.327H332.72C335.056 274.327 335.632 273.895 336.512 271.847C338.239 267.711 340.016 263.62 341.783 259.551C342.997 256.757 344.207 253.973 345.392 251.191L349.6 241.591C349.53 241.521 349.464 241.485 349.396 241.448C349.324 241.409 349.25 241.37 349.168 241.287C344.8 239.831 340.288 239.111 335.776 239.111C330.725 239.005 325.611 239.04 320.517 239.076C317.979 239.094 315.445 239.111 312.928 239.111H311.328C311.397 238.905 311.433 238.663 311.469 238.418C311.508 238.151 311.548 237.881 311.632 237.655C313.351 231.751 315.689 226.044 318.608 220.631C322.24 214.071 326.752 208.119 332 202.871C333.485 201.293 335.189 199.867 336.843 198.482C337.47 197.957 338.09 197.438 338.688 196.919C344.027 192.435 349.895 188.62 356.16 185.559C369.554 179.087 384.213 175.656 399.088 175.511C399.968 175.671 400.688 175.671 401.568 175.511C401.871 175.425 402.214 175.416 402.562 175.408C403.371 175.388 404.205 175.367 404.608 174.359C405.491 172.088 406.463 169.851 407.52 167.655C410.288 161.399 412.912 155.287 415.52 149.175L418 143.351C417.872 143.231 417.801 143.132 417.749 143.059C417.684 142.969 417.648 142.919 417.568 142.919C416.887 142.802 416.206 142.679 415.524 142.555C412.861 142.073 410.196 141.591 407.52 141.463C405.301 141.368 403.082 141.399 400.821 141.431C399.675 141.447 398.518 141.463 397.344 141.463C395.149 141.463 393.096 141.591 390.918 141.725C390.778 141.734 390.637 141.743 390.496 141.751C390.298 141.768 390.101 141.784 389.903 141.801C386.468 142.088 383.026 142.375 379.728 142.919C375.36 143.495 371.28 144.231 367.072 145.255C361.536 146.711 356.016 148.455 350.48 150.343C342.48 153.239 334.912 156.887 327.632 161.399C320.586 165.721 313.96 170.692 307.84 176.247C304.894 178.928 302.125 181.798 299.552 184.839C296.048 188.759 292.848 192.983 289.792 197.207C286.448 201.863 283.536 206.951 281.216 212.183C278.304 218.439 275.984 224.999 274.224 231.831C273.792 234.167 273.36 236.487 272.768 238.823H256V274.471Z" fill="white"/>
<path fill-rule="evenodd" clip-rule="evenodd" d="M256 274.451H240.832C239.52 274.451 238.8 274.755 238.8 276.195C238.768 276.341 238.737 276.493 238.705 276.648C238.577 277.27 238.439 277.941 238.208 278.531C236.669 286.124 234.225 293.504 230.928 300.515C225.29 312.351 217.719 323.166 208.528 332.515C206.436 334.748 204.197 336.839 201.824 338.771C198.204 341.718 194.518 344.583 190.768 347.363C183.573 352.413 175.873 356.703 167.792 360.163C161.006 363.058 153.997 365.396 146.832 367.155C140.855 368.433 134.836 369.5 128.784 370.355C124.416 370.931 119.904 371.363 115.392 371.363C110.448 371.363 105.36 371.075 100.4 370.787C98.4638 370.65 96.6583 370.251 94.7345 369.826L94.448 369.763L100.688 355.507C103.312 349.683 105.792 343.859 108.256 338.051C108.381 337.788 108.625 337.656 108.876 337.522C108.914 337.501 108.953 337.48 108.992 337.459C109.639 337.402 110.286 337.37 110.933 337.339C111.742 337.299 112.551 337.26 113.36 337.171L124.848 336.291C131.104 335.715 137.216 334.403 143.04 332.355C149.152 330.339 155.12 327.715 160.656 324.515C167.184 320.883 173.312 316.355 178.704 311.123C180.304 309.667 181.904 307.923 183.344 306.179C185.824 303.267 188.144 300.355 190.336 297.155C193.968 291.763 196.88 285.955 198.928 279.843C199.294 278.725 199.601 277.614 199.929 276.432C200.117 275.752 200.312 275.049 200.528 274.307H179.28C176.944 274.307 176.368 273.875 175.488 271.827C173.761 267.691 171.984 263.6 170.217 259.53C169.003 256.736 167.793 253.952 166.608 251.171L162.4 241.571C162.47 241.501 162.536 241.465 162.604 241.428C162.676 241.389 162.75 241.349 162.832 241.267C167.2 239.811 171.712 239.091 176.224 239.091C181.275 238.984 186.389 239.02 191.483 239.055C194.021 239.073 196.555 239.091 199.072 239.091H200.672C200.603 238.885 200.567 238.642 200.531 238.398C200.492 238.13 200.452 237.861 200.368 237.635C198.649 231.73 196.311 226.024 193.392 220.611C189.76 214.051 185.248 208.099 180 202.851C178.515 201.273 176.811 199.846 175.157 198.461C174.53 197.937 173.91 197.418 173.312 196.899C167.973 192.415 162.105 188.6 155.84 185.539C142.446 179.067 127.787 175.636 112.912 175.491C112.032 175.651 111.312 175.651 110.432 175.491C110.129 175.404 109.786 175.396 109.438 175.387C108.629 175.367 107.795 175.346 107.392 174.339C106.509 172.067 105.537 169.831 104.48 167.635C101.712 161.379 99.088 155.267 96.48 149.155L94 143.331C94.128 143.21 94.1991 143.111 94.2513 143.039C94.3164 142.948 94.352 142.899 94.432 142.899C95.1132 142.782 95.7943 142.658 96.4756 142.535C99.139 142.053 101.804 141.57 104.48 141.443C106.699 141.347 108.918 141.379 111.179 141.41C112.325 141.427 113.482 141.443 114.656 141.443C116.851 141.443 118.904 141.57 121.082 141.705C121.222 141.713 121.363 141.722 121.504 141.731C121.702 141.747 121.899 141.764 122.097 141.78C125.532 142.067 128.974 142.354 132.272 142.899C136.64 143.475 140.72 144.211 144.928 145.235C150.464 146.691 155.984 148.435 161.52 150.323C169.52 153.219 177.088 156.867 184.368 161.379C191.414 165.7 198.04 170.671 204.16 176.227C207.106 178.908 209.875 181.778 212.448 184.819C215.952 188.739 219.152 192.963 222.208 197.187C225.552 201.843 228.464 206.931 230.784 212.163C233.696 218.419 236.016 224.979 237.776 231.811C238.208 234.147 238.64 236.467 239.232 238.803H256V274.451Z" fill="#E6EAEA"/>
</svg>
