<svg width="512" height="512" viewBox="0 0 512 512" fill="none" xmlns="http://www.w3.org/2000/svg">
<path d="M256 0V512C114.615 512 0 397.385 0 256C0 114.615 114.615 0 256 0Z" fill="#BCD643"/>
<path d="M256 512V0C397.385 0 512 114.615 512 256C512 397.385 397.385 512 256 512Z" fill="#BCD643"/>
<path fill-rule="evenodd" clip-rule="evenodd" d="M255 129.098V81C232.678 81.2258 210.6 85.7261 189.961 94.2639C168.728 103.047 149.436 115.932 133.188 132.179C116.941 148.427 104.056 167.719 95.2728 188.952C86.4893 210.185 81.979 232.941 82.0001 255.919C82.0001 294.879 94.6401 330.623 116.128 359.631C124.448 344.591 134.4 330.879 145.952 318.511C145.952 318.511 163.152 300.527 176.32 291.391C199.92 274.107 226.746 262.079 255 255.895V168.064C243.044 168.3 231.257 170.979 220.365 175.943C208.97 181.136 198.82 188.709 190.598 198.153C182.376 207.598 176.271 218.694 172.696 230.695C169.121 242.695 168.158 255.323 169.872 267.727C150.025 282.991 139.552 295.19 137.273 297.846C137.022 298.138 136.87 298.315 136.816 298.367C132.065 284.811 129.615 270.556 129.568 256.191C129.568 186.346 185.634 129.982 255 129.098Z" fill="#E6EAEA"/>
<path fill-rule="evenodd" clip-rule="evenodd" d="M342.528 255.928C328 252.696 313.232 251.08 297.92 251.08C283.419 251.059 269.039 252.548 255 255.477V168.057C278.178 168.156 300.385 177.407 316.782 193.803C333.259 210.28 342.52 232.626 342.528 255.928ZM255 129.097C275.558 129.15 294.783 133.978 311.888 142.808L356.224 114.056C326.876 92.515 291.404 80.9317 255 81.0003V129.097Z" fill="white"/>
<path fill-rule="evenodd" clip-rule="evenodd" d="M254.998 272.252C229.486 278.256 205.389 289.231 184.094 304.567C192.107 316.516 202.949 326.301 215.655 333.05C227.793 339.498 241.274 342.985 254.998 343.24V272.252Z" fill="#E6EAEA"/>
<path fill-rule="evenodd" clip-rule="evenodd" d="M254.998 383.01C235.76 382.798 216.825 378.115 199.694 369.32L155.086 398.072C183.419 418.191 217.748 430.494 254.998 430.848V383.01Z" fill="#E6EAEA"/>
<path fill-rule="evenodd" clip-rule="evenodd" d="M255 430.856C351.306 430.67 429.584 352.549 429.584 255.928C429.584 217.768 417.488 182.84 396.8 154.088L368.32 198.408C377.406 216.215 382.102 235.937 382.016 255.928C382.016 326.304 325.095 382.977 255 383.016V430.856Z" fill="white"/>
<path fill-rule="evenodd" clip-rule="evenodd" d="M255 343.24C275.464 343.222 295.278 336.05 311.012 322.963C326.765 309.862 337.434 291.658 341.168 271.512C313.818 265.558 285.521 265.425 258.116 271.12C257.075 271.336 256.036 271.56 255 271.793V343.24Z" fill="white"/>
</svg>
