<?xml version="1.0" encoding="UTF-8" standalone="no"?>
<svg
   width="512"
   height="512"
   viewBox="0 0 512 512"
   version="1.1"
   id="svg3009"
   xmlns="http://www.w3.org/2000/svg"
   xmlns:svg="http://www.w3.org/2000/svg">
  <defs
     id="defs3013" />
  <g
     fill="none"
     id="g3007"
     transform="scale(16)">
    <circle
       fill="#00eaab"
       cx="16"
       cy="16"
       r="16"
       id="circle2997" />
    <g
       fill="#ffffff"
       id="g3005">
      <path
         d="m 24.8,9.568 -1.78,2.77 a 7.835,7.835 0 0 1 0.856,3.595 c 0,4.4 -3.56,7.943 -7.943,7.943 A 7.755,7.755 0 0 1 12.356,23.02 l -2.788,1.797 c 1.797,1.276 3.98,2.049 6.348,2.049 6.029,0 10.933,-4.887 10.933,-10.933 0,-2.385 -0.756,-4.568 -2.049,-6.365 z"
         id="path2999" />
      <path
         d="m 15.933,21.39 a 5.482,5.482 0 0 0 5.39,-4.483 12.473,12.473 0 0 0 -9.942,2.066 5.458,5.458 0 0 0 4.552,2.418 z"
         id="path3001" />
      <path
         d="m 18.62,15.63 c 0.957,0 1.88,0.101 2.788,0.303 a 5.494,5.494 0 0 0 -5.492,-5.492 5.48,5.48 0 0 0 -5.424,6.23 C 9.115,17.73 8.46,18.553 8.426,18.586 A 8.049,8.049 0 0 1 7.973,15.95 c 0,-4.4 3.56,-7.944 7.943,-7.944 1.293,0 2.502,0.302 3.577,0.857 L 22.264,7.066 A 10.658,10.658 0 0 0 15.933,5 10.923,10.923 0 0 0 5,15.933 c 0,2.435 0.79,4.669 2.133,6.482 0.52,-0.94 1.142,-1.797 1.864,-2.57 0,0 1.075,-1.124 1.898,-1.695 a 13.041,13.041 0 0 1 7.725,-2.52 z"
         id="path3003" />
    </g>
  </g>
</svg>
