<svg width="512" height="512" viewBox="0 0 512 512" fill="none" xmlns="http://www.w3.org/2000/svg">
<g clip-path="url(#clip0_115_848)">
<path d="M253 -1V511C111.615 511 -3 396.385 -3 255C-3 113.615 111.615 -1 253 -1Z" fill="#E6EAEA"/>
<path d="M253 511V-1C394.385 -1 509 113.615 509 255C509 396.385 394.385 511 253 511Z" fill="white"/>
<path d="M328.845 214.438C325.421 228.085 311.773 257.11 293.005 284.406C229.853 374.87 265.693 419.238 286.173 443.126C298.125 456.79 286.173 443.125 315.181 429.477C316.893 427.765 373.213 398.757 378.333 332.197C385.165 267.349 344.205 226.389 328.845 214.438Z" fill="#4ACFD9"/>
<path fill-rule="evenodd" clip-rule="evenodd" d="M253 64.426C272.47 84.2249 293 127.968 293 177.293C293 204.881 273.638 231.1 253 258.399V64.426Z" fill="#4ACFD9"/>
<path fill-rule="evenodd" clip-rule="evenodd" d="M253 64.5064C250.344 61.6887 247.727 59.3152 245.214 57.43C245.214 57.43 243.502 55.718 243.502 59.126C242.19 142.262 209.236 178.468 180.946 209.549L180.946 209.549C172.648 218.665 164.752 227.341 158.174 236.63C88.2056 327.078 153.054 427.766 219.614 446.55C238.975 451.83 236.104 446.672 228.078 432.25C220.538 418.7 208.446 396.971 205.966 368.038C201.329 327.292 227.354 292.573 252.129 259.52C252.42 259.132 252.71 258.745 253 258.358V64.5064Z" fill="#0295AA"/>
</g>
<defs>
<clipPath id="clip0_115_848">
<rect width="512" height="512" fill="white"/>
</clipPath>
</defs>
</svg>
