<?xml version="1.0" encoding="utf-8"?>
<!-- Generator: Adobe Illustrator 25.4.1, SVG Export Plug-In . SVG Version: 6.00 Build 0)  -->
<svg version="1.1" id="svg7790" xmlns:svg="http://www.w3.org/2000/svg"
	 xmlns="http://www.w3.org/2000/svg" xmlns:xlink="http://www.w3.org/1999/xlink" x="0px" y="0px" viewBox="0 0 512 512"
	 style="enable-background:new 0 0 512 512;" xml:space="preserve">
<style type="text/css">
	.st0{fill:none;}
	.st1{fill:#9BAAAB;}
	.st2{fill:#365558;}
	.st3{fill:#0295AA;}
	.st4{fill:#CDD4D5;}
	.st5{fill:url(#New_Pattern_Swatch_6);}
	.st6{fill:url(#New_Pattern_Swatch_5);}
	.st7{fill:url(#SVGID_1_);}
	.st8{fill:url(#SVGID_00000083795205971767322580000003290775476776021693_);}
	.st9{fill:url(#SVGID_00000135682018795355493170000005526336314391924158_);}
</style>
<pattern  y="512" width="128" height="128" patternUnits="userSpaceOnUse" id="New_Pattern_Swatch_4" viewBox="0 -128 128 128" style="overflow:visible;">
	<g>
		<rect y="-128" class="st0" width="128" height="128"/>
		<rect y="-128" class="st1" width="128" height="128"/>
	</g>
</pattern>
<pattern  y="512" width="128" height="128" patternUnits="userSpaceOnUse" id="New_Pattern_Swatch_5" viewBox="0 -128 128 128" style="overflow:visible;">
	<g>
		<rect y="-128" class="st0" width="128" height="128"/>
		<rect y="-128" class="st2" width="128" height="128"/>
	</g>
</pattern>
<pattern  y="512" width="128" height="128" patternUnits="userSpaceOnUse" id="New_Pattern_Swatch_6" viewBox="0 -128 128 128" style="overflow:visible;">
	<g>
		<rect y="-128" class="st0" width="128" height="128"/>
		<rect y="-128" class="st3" width="128" height="128"/>
	</g>
</pattern>
<pattern  y="512" width="128" height="128" patternUnits="userSpaceOnUse" id="New_Pattern_Swatch_9" viewBox="0 -128 128 128" style="overflow:visible;">
	<g>
		<rect y="-128" class="st0" width="128" height="128"/>
		<rect y="-128" class="st4" width="128" height="128"/>
	</g>
</pattern>
<path class="st5" d="M512,256c0,141.4-114.6,256-256,256V0C397.4,0,512,114.6,512,256z"/>
<path class="st6" d="M256,0v512C114.6,512,0,397.4,0,256S114.6,0,256,0z"/>
<pattern  id="SVGID_1_" xlink:href="#New_Pattern_Swatch_4" patternTransform="matrix(16 0 0 -16 119308 -154652)">
</pattern>
<path class="st7" d="M256.6,244.8c-25.6,35.2-56,72-51.2,115.2c4.8,59.2,51.2,88,14.4,78.4c-67.2-19.2-131.2-120-60.8-209.6
	c28.8-41.6,83.2-70.4,84.8-177.6c0-3.2,1.6-1.6,1.6-1.6c3.2,3.2,8,6.4,12.8,12.8l2,176L256.6,244.8z"/>
<pattern  id="SVGID_00000061448772888187190320000007182607165828443049_" xlink:href="#New_Pattern_Swatch_9" patternTransform="matrix(16 0 0 -16 119308 -154652)">
</pattern>
<path style="fill:url(#SVGID_00000061448772888187190320000007182607165828443049_);" d="M291.8,168c0,25.6-16,51.2-35.2,76.8l0-184
	C274.2,83.2,291.8,123.2,291.8,168z"/>
<pattern  id="SVGID_00000080923407114217756980000005278076280113292464_" xlink:href="#New_Pattern_Swatch_9" patternTransform="matrix(16 0 0 -16 119308 -154652)">
</pattern>
<path style="fill:url(#SVGID_00000080923407114217756980000005278076280113292464_);" d="M379.2,323.2c-4.8,67.2-60.8,96-62.4,97.6
	C288,435.2,299.2,448,288,435.2c-11.2-14.4-28.8-35.2-28.8-67.2c0-24,9.6-54.4,35.2-91.2c19.2-27.2,32-56,35.2-70.4
	C344,217.6,385.6,259.2,379.2,323.2z"/>
</svg>
