<?xml version="1.0" encoding="utf-8"?>
<!-- Generator: Adobe Illustrator 25.4.1, SVG Export Plug-In . SVG Version: 6.00 Build 0)  -->
<svg version="1.1" id="svg3209" xmlns:svg="http://www.w3.org/2000/svg"
	 xmlns="http://www.w3.org/2000/svg" xmlns:xlink="http://www.w3.org/1999/xlink" x="0px" y="0px" viewBox="0 0 512 512"
	 style="enable-background:new 0 0 512 512;" xml:space="preserve">
<style type="text/css">
	.st0{fill:none;}
	.st1{fill:#CDD4D5;}
	.st2{fill:#365558;}
	.st3{fill:#0295AA;}
	.st4{fill:#9BAAAB;}
	.st5{fill:url(#New_Pattern_Swatch_6);}
	.st6{fill:url(#New_Pattern_Swatch_7);}
	.st7{fill-rule:evenodd;clip-rule:evenodd;fill:url(#New_Pattern_Swatch_10);}
	.st8{fill-rule:evenodd;clip-rule:evenodd;fill:url(#New_Pattern_Swatch_9);}
</style>
<pattern  y="512" width="128" height="128" patternUnits="userSpaceOnUse" id="New_Pattern_Swatch_10" viewBox="0 -128 128 128" style="overflow:visible;">
	<g>
		<rect y="-128" class="st0" width="128" height="128"/>
		<rect y="-128" class="st1" width="128" height="128"/>
	</g>
</pattern>
<pattern  y="512" width="128" height="128" patternUnits="userSpaceOnUse" id="New_Pattern_Swatch_6" viewBox="0 -128 128 128" style="overflow:visible;">
	<g>
		<rect y="-128" class="st0" width="128" height="128"/>
		<rect y="-128" class="st2" width="128" height="128"/>
	</g>
</pattern>
<pattern  y="512" width="128" height="128" patternUnits="userSpaceOnUse" id="New_Pattern_Swatch_7" viewBox="0 -128 128 128" style="overflow:visible;">
	<g>
		<rect y="-128" class="st0" width="128" height="128"/>
		<rect y="-128" class="st3" width="128" height="128"/>
	</g>
</pattern>
<pattern  y="512" width="128" height="128" patternUnits="userSpaceOnUse" id="New_Pattern_Swatch_9" viewBox="0 -128 128 128" style="overflow:visible;">
	<g>
		<rect y="-128" class="st0" width="128" height="128"/>
		<rect y="-128" class="st4" width="128" height="128"/>
	</g>
</pattern>
<g id="g3207" transform="scale(16)">
	<path class="st5" d="M14.4,14.3H16V0C7.2,0,0,7.2,0,16s7.2,16,16,16V17.7h-3.3c-1.9,0-3.4-1.5-3.4-3.4V6.7h3.4v5.9
		C12.7,13.5,13.4,14.3,14.4,14.3z M9.4,19.8c1.9,0,3.4,1.5,3.4,3.4v2.3H9.4V19.8z"/>
	<path class="st6" d="M16,0v14.3h3.3c0.5,0,1,0.1,1.4,0.3c1.2,0.6,2,1.8,2,3.1v7.6h-3.4v-5.9c0-0.9-0.8-1.7-1.7-1.7H16V32
		c8.8,0,16-7.2,16-16S24.8,0,16,0z M22.6,12.7c-1.9,0-3.4-1.5-3.4-3.4V6.9h0.7v0h2.7V12.7z"/>
	<path class="st7" d="M22.7,17.7v7.6h-3.4v-5.9c0-0.9-0.8-1.7-1.7-1.7H16v-3.4h3.3c0.5,0,1,0.1,1.4,0.3
		C21.9,15.2,22.7,16.4,22.7,17.7z"/>
	<path class="st7" d="M22.6,6.9v5.7c-1.9,0-3.4-1.5-3.4-3.4V6.9h0.7v0H22.6z"/>
	<path class="st8" d="M12.8,23.2v2.3H9.4v-5.7C11.2,19.8,12.8,21.3,12.8,23.2z"/>
	<path class="st8" d="M16,14.3v3.4h-3.3c-1.9,0-3.4-1.5-3.4-3.4V6.7h3.4v5.9c0,0.9,0.8,1.7,1.7,1.7H16z"/>
</g>
</svg>
