<svg width="512" height="512" viewBox="0 0 512 512" fill="none" xmlns="http://www.w3.org/2000/svg">
<path d="M256 0V512C114.615 512 0 397.385 0 256C0 114.615 114.615 0 256 0Z" fill="#0295AA"/>
<path d="M256 512V0C397.385 0 512 114.615 512 256C512 397.385 397.385 512 256 512Z" fill="#4ACFD9"/>
<path fill-rule="evenodd" clip-rule="evenodd" d="M149.871 407.241V413.664H204.591V407.241H149.871ZM308.719 233.6C316.501 233.597 324.194 235.261 331.279 238.48C340.865 242.815 348.997 249.823 354.701 258.663C360.405 267.502 363.439 277.799 363.439 288.32V409.92H308.735V315.68C308.735 308.423 305.853 301.464 300.722 296.333C295.591 291.202 288.631 288.32 281.375 288.32L256 288.006V233.6H308.719ZM306.831 115.776H318.255V115.76H361.551V207.696C347.038 207.696 333.12 201.931 322.858 191.669C312.596 181.407 306.831 167.488 306.831 152.976V115.776Z" fill="white"/>
<path fill-rule="evenodd" clip-rule="evenodd" d="M229.88 233.735H256V288H202.5C188.017 288 174.235 282.745 163.994 272.471C153.753 262.198 148 248.264 148 233.735V112H202.576V206.345C202.576 213.609 205.453 220.576 210.573 225.713C215.694 230.85 222.639 233.735 229.88 233.735ZM149.868 414V321.994C164.348 321.994 178.236 327.763 188.476 338.033C198.717 348.303 204.472 362.233 204.476 376.759V414H149.868Z" fill="#E6EAEA"/>
</svg>
