<?xml version="1.0" encoding="utf-8"?>
<!-- Generator: Adobe Illustrator 25.4.1, SVG Export Plug-In . SVG Version: 6.00 Build 0)  -->
<svg version="1.1" id="svg7989" xmlns:svg="http://www.w3.org/2000/svg"
	 xmlns="http://www.w3.org/2000/svg" xmlns:xlink="http://www.w3.org/1999/xlink" x="0px" y="0px" viewBox="0 0 512 512"
	 style="enable-background:new 0 0 512 512;" xml:space="preserve">
<style type="text/css">
	.st0{fill:none;}
	.st1{fill:#CDD4D5;}
	.st2{fill:#365558;}
	.st3{fill:#0295AA;}
	.st4{fill:#9BAAAB;}
	.st5{fill-rule:evenodd;clip-rule:evenodd;fill:url(#New_Pattern_Swatch_6);}
	.st6{fill-rule:evenodd;clip-rule:evenodd;fill:url(#New_Pattern_Swatch_7);}
	.st7{fill-rule:evenodd;clip-rule:evenodd;fill:url(#New_Pattern_Swatch_10);}
	.st8{fill-rule:evenodd;clip-rule:evenodd;fill:url(#New_Pattern_Swatch_9);}
</style>
<pattern  y="512" width="128" height="128" patternUnits="userSpaceOnUse" id="New_Pattern_Swatch_10" viewBox="0 -128 128 128" style="overflow:visible;">
	<g>
		<rect y="-128" class="st0" width="128" height="128"/>
		<rect y="-128" class="st1" width="128" height="128"/>
	</g>
</pattern>
<pattern  y="512" width="128" height="128" patternUnits="userSpaceOnUse" id="New_Pattern_Swatch_6" viewBox="0 -128 128 128" style="overflow:visible;">
	<g>
		<rect y="-128" class="st0" width="128" height="128"/>
		<rect y="-128" class="st2" width="128" height="128"/>
	</g>
</pattern>
<pattern  y="512" width="128" height="128" patternUnits="userSpaceOnUse" id="New_Pattern_Swatch_7" viewBox="0 -128 128 128" style="overflow:visible;">
	<g>
		<rect y="-128" class="st0" width="128" height="128"/>
		<rect y="-128" class="st3" width="128" height="128"/>
	</g>
</pattern>
<pattern  y="512" width="128" height="128" patternUnits="userSpaceOnUse" id="New_Pattern_Swatch_9" viewBox="0 -128 128 128" style="overflow:visible;">
	<g>
		<rect y="-128" class="st0" width="128" height="128"/>
		<rect y="-128" class="st4" width="128" height="128"/>
	</g>
</pattern>
<g id="g7987" transform="scale(16)">
	<path class="st5" d="M11.3,9.5C12.7,8.5,14.3,8,16,8V0C7.2,0,0,7.2,0,16s7.2,16,16,16v-8c-1.7,0-3.3-0.5-4.7-1.5l2.2-2.2
		c0.8,0.5,1.7,0.7,2.5,0.7V11c-1.7,0-3.4,0.9-4.3,2.5c-0.9,1.6-0.9,3.5,0,5.1l-2.2,2.2C6.9,17.1,7.7,12.1,11.3,9.5z M8,22
		c1.1,0,2,0.9,2,2s-0.9,2-2,2s-2-0.9-2-2S6.9,22,8,22z"/>
	<path class="st6" d="M16,0v8c1.7,0,3.3,0.5,4.7,1.5l-2.2,2.2C17.7,11.2,16.9,11,16,11v10c1.7,0,3.4-0.9,4.3-2.5
		c0.9-1.6,0.9-3.5,0-5.1l2.2-2.2c2.6,3.6,1.8,8.6-1.8,11.2c-1.4,1-3.1,1.5-4.7,1.5v8c8.8,0,16-7.2,16-16S24.8,0,16,0z M24,10
		c-1.1,0-2-0.9-2-2s0.9-2,2-2s2,0.9,2,2S25.1,10,24,10z"/>
	<path class="st7" d="M20.7,22.5c-1.4,1-3.1,1.5-4.7,1.5v-3c1.7,0,3.4-0.9,4.3-2.5c0.9-1.6,0.9-3.5,0-5.1l2.2-2.2
		C25.1,14.9,24.3,19.9,20.7,22.5z"/>
	<path class="st7" d="M20.7,9.5l-2.2,2.2C17.7,11.2,16.9,11,16,11V8C17.7,8,19.3,8.5,20.7,9.5z"/>
	<circle class="st7" cx="24" cy="8" r="32"/>
	<path class="st8" d="M16,21v3c-1.7,0-3.3-0.5-4.7-1.5l2.2-2.2C14.3,20.8,15.1,21,16,21z"/>
	<circle class="st8" cx="8" cy="24" r="32"/>
	<path class="st8" d="M16,8v3c-1.7,0-3.4,0.9-4.3,2.5c-0.9,1.6-0.9,3.5,0,5.1l-2.2,2.2c-2.6-3.6-1.8-8.6,1.8-11.2
		C12.7,8.5,14.3,8,16,8z"/>
</g>
</svg>
