<svg width="512" height="512" viewBox="0 0 512 512" fill="none" xmlns="http://www.w3.org/2000/svg">
<path d="M256 0V512C114.615 512 0 397.385 0 256C0 114.615 114.615 0 256 0Z" fill="#0295AA"/>
<path d="M256 512V0C397.385 0 512 114.615 512 256C512 397.385 397.385 512 256 512Z" fill="#4ACFD9"/>
<path fill-rule="evenodd" clip-rule="evenodd" d="M256 336.048C259.361 336.05 262.732 335.84 266.095 335.414C283.701 333.185 300.067 325.165 312.616 312.616C325.165 300.067 333.185 283.701 335.414 266.095C337.643 248.488 333.954 230.64 324.928 215.36L359.552 180.736C377.5 205.392 386.054 235.647 383.675 266.051C381.296 296.455 368.14 325.01 346.575 346.575C325.01 368.14 296.455 381.296 266.051 383.675C262.696 383.938 259.344 384.067 256 384.065V336.048ZM256 175.952V127.935C282.961 127.948 309.328 136.48 331.264 152.448L296.64 187.072C284.278 179.77 270.236 175.961 256 175.952ZM361.373 150.627C367.374 156.629 375.513 160 384 160C392.487 160 400.626 156.629 406.627 150.627C412.629 144.626 416 136.487 416 128C416 119.513 412.629 111.374 406.627 105.373C400.626 99.3714 392.487 96 384 96C375.513 96 367.374 99.3714 361.373 105.373C355.371 111.374 352 119.513 352 128C352 136.487 355.371 144.626 361.373 150.627Z" fill="white"/>
<path fill-rule="evenodd" clip-rule="evenodd" d="M215.36 324.923L180.736 359.547C202.672 375.515 229.039 384.047 256 384.061V336.043C241.764 336.034 227.722 332.225 215.36 324.923ZM256 175.948C252.639 175.946 249.268 176.156 245.905 176.581C228.299 178.81 211.933 186.83 199.384 199.379C186.835 211.928 178.815 228.294 176.586 245.9C174.357 263.507 178.046 281.355 187.072 296.635L152.448 331.259C134.5 306.603 125.946 276.348 128.325 245.944C130.704 215.54 143.86 186.985 165.425 165.42C186.99 143.856 215.545 130.699 245.949 128.32C249.304 128.057 252.656 127.928 256 127.93V175.948ZM105.373 406.623C111.374 412.624 119.513 415.995 128 415.995C136.487 415.995 144.626 412.624 150.627 406.623C156.629 400.621 160 392.482 160 383.995C160 375.508 156.629 367.369 150.627 361.368C144.626 355.367 136.487 351.995 128 351.995C119.513 351.995 111.374 355.367 105.373 361.368C99.3714 367.369 96 375.508 96 383.995C96 392.482 99.3714 400.621 105.373 406.623Z" fill="#E6EAEA"/>
</svg>
