<?xml version="1.0" encoding="UTF-8" standalone="no"?>
<svg
   viewBox="0 0 512 512"
   version="1.1"
   id="svg7989"
   width="512"
   height="512"
   xmlns="http://www.w3.org/2000/svg"
   xmlns:svg="http://www.w3.org/2000/svg">
  <defs
     id="defs7993" />
  <g
     fill="none"
     fill-rule="evenodd"
     id="g7987"
     transform="scale(16)">
    <circle
       cx="16"
       cy="16"
       fill="#1fc5c9"
       r="16"
       id="circle7983" />
    <path
       d="m 11.296,22.472 2.164,-2.164 a 5,5 0 0 0 6.848,-6.848 l 2.164,-2.164 A 8,8 0 0 1 11.296,22.472 Z M 9.528,20.704 A 8,8 0 0 1 20.704,9.528 L 18.54,11.692 A 5,5 0 0 0 11.692,18.54 Z M 24,10 a 2,2 0 1 1 0,-4 2,2 0 0 1 0,4 z M 8,26 a 2,2 0 1 1 0,-4 2,2 0 0 1 0,4 z"
       fill="#ffffff"
       id="path7985" />
  </g>
</svg>
