<?xml version="1.0" encoding="UTF-8" standalone="no"?>
<svg
   viewBox="0 0 512 512"
   version="1.1"
   id="svg3406"
   width="512"
   height="512"
   xmlns="http://www.w3.org/2000/svg"
   xmlns:svg="http://www.w3.org/2000/svg">
  <defs
     id="defs3410" />
  <g
     fill="none"
     fill-rule="evenodd"
     id="g3404"
     transform="scale(16)">
    <circle
       cx="16"
       cy="16"
       r="16"
       fill="#ffd800"
       id="circle3400" />
    <path
       fill="#ffffff"
       d="m 23.683,12.886 c 0.057,-0.057 0.17,-0.057 0.281,-0.057 1.687,0 3.036,1.428 3.036,3.143 0,1.6 -1.18,2.857 -2.698,3.142 h -0.338 c -0.562,0 -1.124,-0.171 -1.63,-0.457 a 0.939,0.939 0 0 0 -0.562,-0.171 c -0.225,0 -0.45,0.057 -0.618,0.171 -0.394,0.229 -0.562,0.629 -0.562,1.086 v 0.514 a 3.08,3.08 0 0 1 -2.699,2.8 h -0.337 c -0.562,0 -1.124,-0.171 -1.63,-0.457 -0.225,-0.114 -0.393,-0.171 -0.618,-0.171 -0.225,0 -0.45,0.057 -0.619,0.171 -0.393,0.229 -0.562,0.629 -0.562,1.086 V 24.2 c -0.112,1.486 -1.293,2.629 -2.754,2.8 h -0.281 c -1.687,0 -3.036,-1.429 -3.036,-3.143 0.056,-1.6 1.18,-2.914 2.698,-3.086 h 0.338 c 0.562,0 1.124,0.172 1.63,0.458 a 0.939,0.939 0 0 0 0.562,0.171 c 0.225,0 0.45,-0.057 0.618,-0.171 C 14.296,21 14.464,20.6 14.464,20.143 14.352,18.486 15.533,17 17.163,16.829 H 17.5 c 0.562,0 1.124,0.171 1.63,0.457 0.225,0.114 0.394,0.171 0.619,0.171 0.224,0 0.45,-0.057 0.618,-0.171 0.393,-0.229 0.562,-0.629 0.562,-1.086 -0.112,-1.657 1.124,-3.143 2.754,-3.314 z M 17.22,8.943 c 0.112,-0.057 0.169,-0.057 0.337,-0.057 1.687,0 3.036,1.428 3.036,3.143 -0.056,1.6 -1.18,2.914 -2.699,3.085 h -0.337 c -0.562,0 -1.124,-0.171 -1.63,-0.457 a 0.939,0.939 0 0 0 -0.562,-0.171 c -0.225,0 -0.45,0.057 -0.618,0.171 -0.394,0.229 -0.563,0.629 -0.563,1.086 v 0.514 c -0.112,1.485 -1.292,2.628 -2.754,2.8 h -0.281 c -1.686,0 -3.036,-1.428 -3.036,-3.143 0,-1.542 1.125,-2.8 2.642,-3.028 h 0.338 c 0.562,0 1.124,0.171 1.63,0.457 a 0.939,0.939 0 0 0 0.562,0.171 c 0.225,0 0.45,-0.057 0.618,-0.171 0.394,-0.229 0.562,-0.629 0.562,-1.086 C 14.353,10.6 15.59,9.114 17.22,8.943 Z M 11.036,5 c 1.676,0 3.035,1.382 3.035,3.086 0,1.704 -1.36,3.085 -3.035,3.085 C 9.359,11.171 8,9.79 8,8.086 8,6.382 9.36,5 11.036,5 Z"
       id="path3402" />
  </g>
</svg>
