<svg width="512" height="512" viewBox="0 0 512 512" fill="none" xmlns="http://www.w3.org/2000/svg">
<g clip-path="url(#clip0_115_862)">
<path d="M256 0V512C114.615 512 0 397.385 0 256C0 114.615 114.615 0 256 0Z" fill="#FF8C29"/>
<path d="M256 512V0C397.385 0 512 114.615 512 256C512 397.385 397.385 512 256 512Z" fill="#FFD1A9"/>
<path fill-rule="evenodd" clip-rule="evenodd" d="M359.424 205.264C357.648 205.264 355.84 205.264 354.928 206.176C328.848 208.912 309.072 232.688 310.864 259.2C310.864 266.512 308.16 272.912 301.872 276.576C299.184 278.4 295.568 279.312 291.984 279.312C288.384 279.312 285.68 278.4 282.08 276.576C273.984 272 264.992 269.264 256 269.264V368.903C256.299 368.909 256.597 368.912 256.896 368.912H262.288C273.54 367.549 283.979 362.35 291.845 354.189C299.711 346.029 304.524 335.406 305.472 324.112V315.888C305.472 308.576 308.16 302.176 314.464 298.512C317.152 296.688 320.752 295.776 324.352 295.776C327.565 295.703 330.716 296.662 333.344 298.512C341.44 303.088 350.432 305.824 359.424 305.824H364.832C389.12 301.264 408 281.152 408 255.552C408 228.112 386.416 205.264 359.424 205.264H359.424ZM256 241.814V142.177C256.281 142.176 256.583 142.176 256.912 142.176C283.904 142.176 305.488 165.024 305.488 192.464C304.592 218.064 286.608 239.088 262.304 241.824H256.912C256.608 241.824 256.304 241.821 256 241.814Z" fill="white"/>
<path fill-rule="evenodd" clip-rule="evenodd" d="M256 368.903V269.264H250.608C224.528 272 205.632 295.776 207.424 322.288C207.424 329.6 204.736 336 198.432 339.664C195.744 341.488 192.144 342.4 188.544 342.4C185.331 342.473 182.18 341.514 179.552 339.664C171.456 335.088 162.464 332.336 153.472 332.336H148.064C123.776 335.088 105.792 356.112 104.896 381.712C104.896 409.136 126.48 432 153.472 432H157.968C181.344 429.264 200.24 410.976 202.032 387.2V378.976C202.032 371.664 204.736 365.264 211.024 361.6C213.728 359.776 217.328 358.864 220.928 358.864C224.528 358.864 227.216 359.776 230.816 361.6C238.643 366.024 247.308 368.728 256 368.903ZM256 142.178V241.815C247.313 241.637 238.654 238.933 230.832 234.512C228.204 232.662 225.053 231.703 221.84 231.776C218.24 231.776 214.64 232.688 211.952 234.512C205.648 238.176 202.944 244.576 202.944 251.888V260.112C201.152 283.872 182.272 302.16 158.88 304.912H154.384C127.408 304.912 105.808 282.064 105.808 254.624C105.808 229.952 123.808 209.824 148.08 206.176H153.488C162.48 206.176 171.472 208.912 179.568 213.488C182.196 215.338 185.347 216.297 188.56 216.224C192.16 216.224 195.76 215.312 198.448 213.488C204.752 209.824 207.44 203.424 207.44 196.112C205.648 169.6 225.44 145.824 251.52 143.088C253.093 142.288 253.988 142.19 256 142.178ZM201.136 129.376C201.136 102.112 179.392 80 152.576 80C125.76 80 104 102.112 104 129.376C104 156.64 125.744 178.736 152.576 178.736C179.376 178.736 201.136 156.64 201.136 129.376Z" fill="#E6EAEA"/>
</g>
<defs>
<clipPath id="clip0_115_862">
<rect width="512" height="512" fill="white"/>
</clipPath>
</defs>
</svg>
