<?xml version="1.0" encoding="utf-8"?>
<!-- Generator: Adobe Illustrator 25.4.1, SVG Export Plug-In . SVG Version: 6.00 Build 0)  -->
<svg version="1.1" id="svg3406" xmlns:svg="http://www.w3.org/2000/svg"
	 xmlns="http://www.w3.org/2000/svg" xmlns:xlink="http://www.w3.org/1999/xlink" x="0px" y="0px" viewBox="0 0 512 512"
	 style="enable-background:new 0 0 512 512;" xml:space="preserve">
<style type="text/css">
	.st0{fill:none;}
	.st1{fill:#CDD4D5;}
	.st2{fill:#365558;}
	.st3{fill:#0295AA;}
	.st4{fill:#9BAAAB;}
	.st5{fill-rule:evenodd;clip-rule:evenodd;fill:url(#New_Pattern_Swatch_6);}
	.st6{fill-rule:evenodd;clip-rule:evenodd;fill:url(#New_Pattern_Swatch_5);}
	.st7{fill-rule:evenodd;clip-rule:evenodd;fill:url(#New_Pattern_Swatch_8);}
	.st8{fill-rule:evenodd;clip-rule:evenodd;fill:url(#New_Pattern_Swatch_2);}
</style>
<pattern  y="512" width="128" height="128" patternUnits="userSpaceOnUse" id="New_Pattern_Swatch_2" viewBox="0 -128 128 128" style="overflow:visible;">
	<g>
		<rect y="-128" class="st0" width="128" height="128"/>
		<rect y="-128" class="st1" width="128" height="128"/>
	</g>
</pattern>
<pattern  y="512" width="128" height="128" patternUnits="userSpaceOnUse" id="New_Pattern_Swatch_5" viewBox="0 -128 128 128" style="overflow:visible;">
	<g>
		<rect y="-128" class="st0" width="128" height="128"/>
		<rect y="-128" class="st2" width="128" height="128"/>
	</g>
</pattern>
<pattern  y="512" width="128" height="128" patternUnits="userSpaceOnUse" id="New_Pattern_Swatch_6" viewBox="0 -128 128 128" style="overflow:visible;">
	<g>
		<rect y="-128" class="st0" width="128" height="128"/>
		<rect y="-128" class="st3" width="128" height="128"/>
	</g>
</pattern>
<pattern  y="512" width="128" height="128" patternUnits="userSpaceOnUse" id="New_Pattern_Swatch_8" viewBox="0 -128 128 128" style="overflow:visible;">
	<g>
		<rect y="-128" class="st0" width="128" height="128"/>
		<rect y="-128" class="st4" width="128" height="128"/>
	</g>
</pattern>
<path class="st5" d="M512,256c0,141.4-114.6,256-256,256V359.6c8,3.2,17.6,6.4,25.6,6.4h4.8c24-3.2,41.6-20.8,43.2-44.8v-8
	c0-8,3.2-14.4,9.6-17.6c3.2-1.6,6.4-3.2,9.6-3.2c0.4,0,0.7,0,1.1,0.1c8.7,7.9,20.3,12.7,33,12.7c27.1,0,49.2-22,49.2-49.2
	s-22-49.2-49.2-49.2c-27.2,0-49.2,22-49.2,49.2c0,2,0.1,3.9,0.3,5.8c-1,5.9-4.1,10.5-9.2,13c-1.6,1.6-6.4,3.2-9.6,3.2
	s-6.4-1.6-9.6-3.2c-8-4.8-16-8-25.6-8h-4.8c-8,1.6-14.4,3.2-19.2,6.4v-41.4c7.2,4.1,15.5,6.5,24.4,6.5c27.2,0,49.2-22,49.2-49.2
	c0-27.1-22-49.2-49.2-49.2c-8.9,0-17.2,2.4-24.4,6.5V0C397.4,0,512,114.6,512,256z"/>
<path class="st6" d="M169.6,204.4h4.8c9.6,0,17.6,3.2,25.6,8c3.2,1.6,6.4,3.2,9.6,3.2c3.2,0,8-1.6,9.6-3.2c6.4-3.2,9.6-9.6,9.6-17.6
	c0.7-8.5,2.6-16.5,5.9-23.5c4.1-10.5,11.7-19.2,21.3-24.7V0C114.6,0,0,114.6,0,256s114.6,256,256,256V359.6c0,0,0,0-1.6,0
	c-3.2-1.6-6.4-3.2-9.6-3.2s-8,1.6-9.6,3.2c-6.4,3.2-9.6,9.6-9.6,17.6v8c-1.6,24-20.8,41.6-44.8,44.8H176c-27.2,0-48-22.4-48-49.6
	c1.6-25.6,19.2-46.4,43.2-49.6h4.8c9.6,0,17.6,3.2,25.6,8c3.2,1.6,6.4,3.2,9.6,3.2s8-1.6,9.6-3.2c6.4-3.2,9.6-9.6,9.6-17.6
	c0-20.8,9.6-38.4,25.6-48v-41.4c-0.1-0.1-0.3-0.2-0.4-0.2h-1.2c-3.2-1.6-6.4-3.2-9.6-3.2s-8,1.6-9.6,3.2c-6.4,3.2-9.6,9.6-9.6,17.6
	v8c-1.6,24-20.8,41.6-44.8,44.8H176c-27.2,0-48-22.4-48-49.6C128,228.4,145.6,207.6,169.6,204.4z M128.6,128.6
	C127,101.4,149.4,79,175,79c27.2,0,49.6,22.4,49.6,49.6c0,27.2-22.4,49.6-48,49.6C149.4,178.2,128.6,155.8,128.6,128.6z"/>
<path class="st7" d="M256,273.2v86.4c0,0,0,0-1.6,0c-3.2-1.6-6.4-3.2-9.6-3.2s-8,1.6-9.6,3.2c-6.4,3.2-9.6,9.6-9.6,17.6v8
	c-1.6,24-20.8,41.6-44.8,44.8H176c-27.2,0-48-22.4-48-49.6c1.6-25.6,19.2-46.4,43.2-49.6h4.8c9.6,0,17.6,3.2,25.6,8
	c3.2,1.6,6.4,3.2,9.6,3.2s8-1.6,9.6-3.2c6.4-3.2,9.6-9.6,9.6-17.6C230.4,300.4,240,282.8,256,273.2z"/>
<path class="st7" d="M224.6,128.6c0,27.2-22.4,49.6-48,49.6c-27.2,0-48-22.4-48-49.6C127,101.4,149.4,79,175,79
	C202.2,79,224.6,101.4,224.6,128.6z"/>
<path class="st7" d="M256,146.5v85.3c-0.1-0.1-0.3-0.2-0.4-0.2h-1.2c-3.2-1.6-6.4-3.2-9.6-3.2s-8,1.6-9.6,3.2
	c-6.4,3.2-9.6,9.6-9.6,17.6v8c-1.6,24-20.8,41.6-44.8,44.8H176c-27.2,0-48-22.4-48-49.6c0-24,17.6-44.8,41.6-48h4.8
	c9.6,0,17.6,3.2,25.6,8c3.2,1.6,6.4,3.2,9.6,3.2c3.2,0,8-1.6,9.6-3.2c6.4-3.2,9.6-9.6,9.6-17.6c0.7-8.5,2.6-16.5,5.9-23.5
	C238.8,160.8,246.3,152.1,256,146.5z"/>
<path class="st8" d="M329.6,189.2c0,27.1-22,49.2-49.2,49.2c-8.9,0-17.2-2.4-24.4-6.5v-85.3c7.2-4.1,15.5-6.5,24.4-6.5
	C307.6,140,329.6,162,329.6,189.2z"/>
<path class="st8" d="M432,256c0,27.2-22,49.2-49.2,49.2c-12.7,0-24.2-4.8-33-12.7c-0.4,0-0.7-0.1-1.1-0.1c-3.2,0-6.4,1.6-9.6,3.2
	c-6.4,3.2-9.6,9.6-9.6,17.6v8c-1.6,24-19.2,41.6-43.2,44.8h-4.8c-8,0-17.6-3.2-25.6-6.4v-86.4c4.8-3.2,11.2-4.8,19.2-6.4h4.8
	c9.6,0,17.6,3.2,25.6,8c3.2,1.6,6.4,3.2,9.6,3.2s8-1.6,9.6-3.2c5.1-2.6,8.2-7.2,9.2-13c-0.2-1.9-0.3-3.8-0.3-5.8
	c0-27.2,22-49.2,49.2-49.2C410,206.8,432,228.8,432,256z"/>
</svg>
