<?xml version="1.0" encoding="utf-8"?>
<!-- Generator: Adobe Illustrator 25.4.1, SVG Export Plug-In . SVG Version: 6.00 Build 0)  -->
<svg version="1.1" id="svg2109" xmlns:svg="http://www.w3.org/2000/svg"
	 xmlns="http://www.w3.org/2000/svg" xmlns:xlink="http://www.w3.org/1999/xlink" x="0px" y="0px" viewBox="0 0 512 512"
	 style="enable-background:new 0 0 512 512;" xml:space="preserve">
<style type="text/css">
	.st0{fill:none;}
	.st1{fill:#CDD4D5;}
	.st2{fill:#E6EAEA;}
	.st3{fill:#FFFFFF;}
	.st4{fill:#365558;}
	.st5{fill:#0295AA;}
	.st6{fill:#9BAAAB;}
	.st7{fill:url(#New_Pattern_Swatch_6);}
	.st8{fill:#292A2E;}
	.st9{fill:url(#New_Pattern_Swatch_7);}
	.st10{fill:url(#New_Pattern_Swatch_11);}
	.st11{fill:url(#New_Pattern_Swatch_10);}
	.st12{fill:url(#New_Pattern_Swatch_9);}
	.st13{fill:url(#New_Pattern_Swatch_12);}
	.st14{fill:none;stroke:#000000;stroke-miterlimit:10;}
</style>
<pattern  y="512" width="128" height="128" patternUnits="userSpaceOnUse" id="New_Pattern_Swatch_10" viewBox="0 -128 128 128" style="overflow:visible;">
	<g>
		<rect y="-128" class="st0" width="128" height="128"/>
		<rect y="-128" class="st1" width="128" height="128"/>
	</g>
</pattern>
<pattern  y="512" width="128" height="128" patternUnits="userSpaceOnUse" id="New_Pattern_Swatch_11" viewBox="0 -128 128 128" style="overflow:visible;">
	<g>
		<rect y="-128" class="st0" width="128" height="128"/>
		<rect y="-128" class="st2" width="128" height="128"/>
	</g>
</pattern>
<pattern  y="512" width="128" height="128" patternUnits="userSpaceOnUse" id="New_Pattern_Swatch_12" viewBox="0 -128 128 128" style="overflow:visible;">
	<g>
		<rect y="-128" class="st0" width="128" height="128"/>
		<rect y="-128" class="st3" width="128" height="128"/>
	</g>
</pattern>
<pattern  y="512" width="128" height="128" patternUnits="userSpaceOnUse" id="New_Pattern_Swatch_6" viewBox="0 -128 128 128" style="overflow:visible;">
	<g>
		<rect y="-128" class="st0" width="128" height="128"/>
		<rect y="-128" class="st4" width="128" height="128"/>
	</g>
</pattern>
<pattern  y="512" width="128" height="128" patternUnits="userSpaceOnUse" id="New_Pattern_Swatch_7" viewBox="0 -128 128 128" style="overflow:visible;">
	<g>
		<rect y="-128" class="st0" width="128" height="128"/>
		<rect y="-128" class="st5" width="128" height="128"/>
	</g>
</pattern>
<pattern  y="512" width="128" height="128" patternUnits="userSpaceOnUse" id="New_Pattern_Swatch_9" viewBox="0 -128 128 128" style="overflow:visible;">
	<g>
		<rect y="-128" class="st0" width="128" height="128"/>
		<rect y="-128" class="st6" width="128" height="128"/>
	</g>
</pattern>
<path class="st7" d="M66.6,234.6C64.9,241.1,64,248,64,255c0,48.6,41.8,88,93.3,88c21.4,0,44.8-10.7,69.6-31.7
	c10.2-8.8,19.9-18.3,28.8-28.4V511C114.4,510.8,0,396.3,0,255S114.4-0.8,255.7-1v228.8C228.9,198.9,193,167,157.3,167h-0.1
	c-43.7,0.2-80.4,28.8-90.4,67c0,0,0,0,0,0.1C66.6,234.3,66.6,234.5,66.6,234.6z"/>
<path class="st8" d="M377,312.9c-8.4-0.2-16.9-2.2-24.9-5.1c-0.9-0.1-1.8-0.2-2.9-0.5c9,3.8,18.7,6.5,27.9,6.5
	c53.9,0,66.4-32.5,68.1-37.8c0,0,0,0,0-0.1c0-0.1,0.1-0.2,0.1-0.4C444.2,279.1,429.3,314.1,377,312.9z M281,254.2
	C281,254.2,281,254.2,281,254.2c-2.3-2.4-4.6-4.7-6.8-7C276.4,249.5,278.7,251.8,281,254.2z M256.3,282.1c0,0-0.2-0.2-0.6-0.6
	c-0.1-0.2-0.3-0.4-0.5-0.6c0.2,0.2,0.3,0.3,0.4,0.4c0.1,0.1,0.1,0.1,0.2,0.2v1.4C255.9,282.6,256.1,282.4,256.3,282.1
	C256.3,282.1,256.3,282.1,256.3,282.1L256.3,282.1C256.3,282.1,256.3,282.1,256.3,282.1z M255.7,227.9
	C255.7,227.9,255.7,227.9,255.7,227.9c0-0.1-0.1-0.1-0.1-0.1L255.7,227.9L255.7,227.9L255.7,227.9z M231,255.8
	C231,255.8,231,255.8,231,255.8c3.1,3.2,6.1,6.3,8.9,9.2C237.1,262.1,234.1,259,231,255.8z M134.9,196.2
	c-53.9,0-66.4,32.5-68.1,37.8c0,0,0,0,0,0.1c0,0.1-0.1,0.2-0.1,0.4c1.2-3.5,15.9-38.9,68.2-37.6c8.7,0.2,17.6,2.4,25.9,5.5
	c0.6,0.1,1.3,0.2,2,0.4C153.8,199,144.1,196.2,134.9,196.2z"/>
<path class="st9" d="M410.7,255c0,29-25.1,52.7-56,52.9c-0.8,0-1.6,0-2.6-0.2c-19.5-7.1-35.9-19.3-40.3-23.2
	c-7.5-6.8-19.8-19-30.9-30.4c9-10.5,18.8-20.4,29.2-29.4c22-18.7,36.3-22.6,44.5-22.6C385.6,202.1,410.7,225.8,410.7,255z"/>
<path class="st9" d="M512,255c0,141.4-114.6,256-256,256h-0.3V282.9c0.2-0.2,0.4-0.5,0.6-0.7C283,311.1,319,343,354.7,343h0.1
	c43.7-0.2,80.4-28.8,90.4-67c0,0,0,0,0-0.1c0.1-0.2,0.1-0.4,0.2-0.5c1.7-6.6,2.6-13.4,2.6-20.4c0-48.6-41.8-88-93.3-88
	c-21.4,0-44.8,10.7-69.6,31.7c-10.5,9-20.3,18.8-29.5,29.1c0,0,0,0,0,0V-1h0.3C397.4-1,512,113.6,512,255z"/>
<g id="g2105">
	<path id="path2101" class="st3" d="M255.7,227.8C255.7,227.9,255.7,227.9,255.7,227.8L255.7,227.8L255.7,227.8
		C255.7,227.9,255.7,227.9,255.7,227.8z M274.2,247.2c2.2,2.3,4.4,4.6,6.8,7c0,0,0,0,0,0C278.7,251.8,276.4,249.4,274.2,247.2z
		 M377,312.9c-8.4-0.2-16.9-2.2-24.9-5.1c-0.9-0.1-1.8-0.2-2.9-0.5c9,3.8,18.7,6.5,27.9,6.5c53.9,0,66.4-32.5,68.1-37.8
		c0,0,0,0,0-0.1c0-0.1,0.1-0.2,0.1-0.4C444.2,279.1,429.3,314.1,377,312.9z M256.3,282.1C256.3,282.1,256.3,282.1,256.3,282.1
		c0,0-0.2-0.2-0.6-0.6c-0.1-0.2-0.3-0.4-0.5-0.6c0.2,0.2,0.3,0.3,0.4,0.4c0.1,0.1,0.1,0.1,0.2,0.2v1.4
		C255.9,282.6,256.1,282.4,256.3,282.1C256.3,282.1,256.3,282.1,256.3,282.1L256.3,282.1z M231,255.8C231,255.8,231,255.8,231,255.8
		c3.1,3.2,6.1,6.3,8.9,9.2C237.1,262.1,234.1,259,231,255.8z M134.9,196.2c-53.9,0-66.4,32.5-68.1,37.8c0,0,0,0,0,0.1
		c0,0.1-0.1,0.2-0.1,0.4c1.2-3.5,15.9-38.9,68.2-37.6c8.7,0.2,17.6,2.4,25.9,5.5c0.6,0.1,1.3,0.2,2,0.4
		C153.8,199,144.1,196.2,134.9,196.2z"/>
	<path class="st10" d="M448,255c0,7-0.9,13.8-2.6,20.4c0,0.1-0.1,0.3-0.2,0.5c0-0.1,0.1-0.2,0.1-0.4c-1.2,3.5-16.1,38.6-68.4,37.3
		c-8.4-0.2-16.9-2.2-24.9-5.1c1,0.1,1.8,0.2,2.6,0.2c30.9-0.2,56-23.9,56-52.9c0-29.2-25.1-52.9-55.9-52.9
		c-8.2,0-22.5,3.9-44.5,22.6c-10.5,9.1-20.2,18.9-29.2,29.4c-2.3-2.4-4.6-4.7-6.8-6.9c-0.7-0.8-1.4-1.5-2.1-2.2
		c-1.4-1.4-2.6-2.8-3.9-4c-0.6-0.6-1.1-1.1-1.6-1.7c-1.5-1.5-2.8-3-4-4.2c-0.3-0.3-0.5-0.6-0.8-0.8c-0.8-0.9-1.5-1.6-2.2-2.3
		c-0.3-0.3-0.6-0.7-0.9-1c0,0,0,0,0,0c-0.3-0.3-0.5-0.6-0.8-0.8c-0.2-0.3-0.5-0.5-0.7-0.7c-0.2-0.2-0.3-0.3-0.5-0.5
		c-0.1-0.1-0.1-0.1-0.2-0.2c-0.1-0.1-0.2-0.2-0.3-0.3c-0.1-0.1-0.2-0.2-0.2-0.2c-0.1-0.1-0.1-0.2-0.2-0.2c0,0,0,0-0.1-0.1
		c0,0,0,0,0,0c0,0,0,0,0-0.1c9.1-10.4,19-20.1,29.5-29.1c24.7-21,48.1-31.7,69.6-31.7C406.2,167,448,206.5,448,255z"/>
	<path class="st11" d="M255.7,281.5v1.4c-9,10.1-18.6,19.6-28.8,28.4c-24.7,21-48.1,31.7-69.6,31.7c-51.4,0-93.3-39.5-93.3-88
		c0-7,0.9-13.8,2.6-20.4c0-0.1,0.1-0.3,0.2-0.5c0,0.1-0.1,0.2-0.1,0.4c1.2-3.5,15.9-38.9,68.2-37.6c8.7,0.2,17.6,2.4,25.9,5.5
		c-1.3-0.2-2.5-0.3-3.4-0.3c-30.9,0.2-56,23.9-56,52.9c0,29.2,25.1,52.9,55.9,52.9c8.2,0,22.5-3.9,44.5-22.6
		c10.5-9.1,20.2-18.9,29.2-29.4c3.1,3.2,6.1,6.3,8.9,9.2c1.6,1.7,3.2,3.3,4.6,4.8c0.3,0.3,0.6,0.6,0.9,0.9c4,4.1,7.1,7.4,8.8,9.2
		c0.3,0.4,0.6,0.7,0.9,0.9c0,0,0,0,0,0c0.2,0.2,0.3,0.3,0.4,0.4C255.5,281.3,255.6,281.4,255.7,281.5z"/>
	<path class="st12" d="M255.7,227.8v53.7c-0.1-0.2-0.3-0.4-0.5-0.6c0,0,0,0,0,0c-0.2-0.2-0.5-0.5-0.9-0.9c-1.7-1.8-4.8-5.1-8.8-9.2
		c-0.3-0.3-0.6-0.6-0.9-0.9c-1.5-1.5-3-3.1-4.6-4.8c-2.8-2.9-5.8-6-8.9-9.2c0,0,0,0,0,0c-11.1-11.3-23.3-23.6-30.9-30.4
		c-4.3-3.8-20.3-15.9-39.4-23.1c0.6,0.1,1.3,0.2,2,0.4c-9-3.8-18.7-6.5-27.9-6.5c-53.9,0-66.4,32.5-68.1,37.8
		c10-38.2,46.8-66.8,90.4-67h0.1C193,167,228.9,198.9,255.7,227.8z"/>
	<path class="st3" d="M162.8,202.7c-0.7-0.2-1.4-0.3-2-0.4c-8.3-3.1-17.1-5.3-25.9-5.5c-52.3-1.2-67.1,34.1-68.2,37.6
		c0-0.1,0.1-0.2,0.1-0.4c0,0,0,0,0-0.1c1.7-5.3,14.3-37.8,68.1-37.8C144.1,196.2,153.8,199,162.8,202.7z"/>
	<path class="st3" d="M239.9,265c-2.8-2.9-5.8-6-8.9-9.2c0,0,0,0,0,0C234.1,259,237.1,262.1,239.9,265z"/>
	<path class="st13" d="M445.3,276c-10,38.2-46.8,66.8-90.4,67h-0.1c-35.8,0-71.7-31.9-98.5-60.8c0,0,0,0,0.1-0.1l0,0c0,0,0,0,0,0
		c0,0-0.2-0.2-0.6-0.6v-53.6l0,0l0,0c0,0,0,0,0,0c0,0,0,0,0.1,0.1c0.1,0.1,0.2,0.2,0.2,0.2c0.1,0.1,0.2,0.2,0.2,0.2
		c0.1,0.1,0.2,0.2,0.3,0.3c0,0,0.1,0.1,0.2,0.2c0.1,0.1,0.3,0.3,0.5,0.5c0.2,0.2,0.4,0.4,0.7,0.7c0.2,0.2,0.5,0.5,0.8,0.8
		c0,0,0,0,0,0c0.3,0.3,0.6,0.6,0.9,1c0.6,0.7,1.4,1.4,2.2,2.3c0.3,0.3,0.5,0.6,0.8,0.8c1.2,1.3,2.6,2.7,4,4.2
		c0.5,0.5,1.1,1.1,1.6,1.7c1.2,1.3,2.5,2.6,3.9,4c0.7,0.7,1.4,1.5,2.1,2.2c2.2,2.3,4.4,4.6,6.8,7c0,0,0,0,0,0
		c11.1,11.3,23.3,23.6,30.9,30.4c4.3,3.9,20.8,16.2,40.3,23.2c-0.9-0.1-1.8-0.2-2.9-0.5c9,3.8,18.7,6.5,27.9,6.5
		C431,313.8,443.6,281.3,445.3,276z"/>
	<path class="st3" d="M255.7,227.9L255.7,227.9l0-0.1C255.7,227.8,255.7,227.8,255.7,227.9C255.7,227.9,255.7,227.9,255.7,227.9
		L255.7,227.9z"/>
	<path class="st3" d="M256.3,282.1L256.3,282.1C256.3,282.1,256.3,282.1,256.3,282.1c-0.2-0.1-0.4-0.4-0.6-0.6
		c-0.1-0.1-0.1-0.1-0.2-0.2c-0.1-0.1-0.2-0.2-0.4-0.4c0.2,0.2,0.4,0.4,0.5,0.6C256.1,281.9,256.3,282.1,256.3,282.1
		C256.3,282.1,256.3,282.1,256.3,282.1z"/>
	<path class="st3" d="M274.2,247.2c2.2,2.2,4.5,4.6,6.8,6.9c0,0,0,0,0,0C278.7,251.8,276.4,249.5,274.2,247.2z"/>
	<path class="st3" d="M445.4,275.6c0,0.1-0.1,0.2-0.1,0.4c0,0,0,0,0,0.1c-1.7,5.3-14.3,37.8-68.1,37.8c-9.2,0-18.9-2.7-27.9-6.5
		c1,0.2,2,0.4,2.9,0.5c8,2.9,16.5,4.9,24.9,5.1C429.3,314.1,444.2,279.1,445.4,275.6z"/>
</g>
<path class="st7" d="M232,256.4c-9.2,10.6-19.2,20.6-29.9,29.7c-22.5,18.9-37.2,22.8-45.5,22.8c-31.5,0-57.2-24-57.2-53.4
	c0-29.3,25.7-53.2,57.2-53.4c1,0,2.1,0.1,3.5,0.3c19.6,7.3,36,19.5,40.3,23.3C208.2,232.5,220.7,244.9,232,256.4z"/>
<line class="st14" x1="255.7" y1="282.5" x2="255.7" y2="282.5"/>
</svg>
