<svg width="512" height="512" viewBox="0 0 512 512" fill="none" xmlns="http://www.w3.org/2000/svg">
<path d="M256 0V512C114.615 512 0 397.385 0 256C0 114.615 114.615 0 256 0Z" fill="#365558"/>
<path d="M256 512V0C397.385 0 512 114.615 512 256C512 397.385 397.385 512 256 512Z" fill="#0295AA"/>
<path fill-rule="evenodd" clip-rule="evenodd" d="M394.001 336V176L257.501 95L255.828 96H256.001V150.106L259.501 148L355.409 203.632L330.033 218.64L259.501 177.5L256.001 179.661V218.179L276.737 229.472L262.321 238L278.801 247.696L290.561 240.752L314.177 254.544L302.337 261.536L361.121 296.128L260.737 356.5L256.001 353.685V416H255.991L258.001 417.2L394.001 336ZM256.001 323.921L259.501 326L310.833 296.128L277.249 276.368L264.001 285L256.001 279.761V323.921Z" fill="white"/>
<path fill-rule="evenodd" clip-rule="evenodd" d="M256 416V353.494L154.384 294.48L154.816 264.992L256 323.973V279.87L239.072 269.984L251.712 262.512L235.216 252.816L225.248 258.704L201.632 244.896L211.68 238.976L158.416 207.632L256 150.233V96L120 176V336L256 416ZM256 179.813L208.704 207.632L236.768 224.144L251.12 215.664L256 218.517V179.813Z" fill="#E6EAEA"/>
</svg>
