<?xml version="1.0" encoding="utf-8"?>
<!-- Generator: Adobe Illustrator 25.4.1, SVG Export Plug-In . SVG Version: 6.00 Build 0)  -->
<svg version="1.1" id="svg3603" xmlns:svg="http://www.w3.org/2000/svg"
	 xmlns="http://www.w3.org/2000/svg" xmlns:xlink="http://www.w3.org/1999/xlink" x="0px" y="0px" viewBox="0 0 512 512"
	 style="enable-background:new 0 0 512 512;" xml:space="preserve">
<style type="text/css">
	.st0{fill:none;}
	.st1{fill:#CDD4D5;}
	.st2{fill:#365558;}
	.st3{fill:#0295AA;}
	.st4{fill:#9BAAAB;}
	.st5{fill-rule:evenodd;clip-rule:evenodd;fill:url(#New_Pattern_Swatch_6);}
	.st6{fill-rule:evenodd;clip-rule:evenodd;fill:url(#New_Pattern_Swatch_7);}
	.st7{fill:url(#New_Pattern_Swatch_10);}
	.st8{fill:url(#New_Pattern_Swatch_9);}
	.st9{fill:url(#New_Pattern_Swatch_7);}
	.st10{fill:url(#New_Pattern_Swatch_6);}
</style>
<pattern  y="512" width="128" height="128" patternUnits="userSpaceOnUse" id="New_Pattern_Swatch_10" viewBox="0 -128 128 128" style="overflow:visible;">
	<g>
		<rect y="-128" class="st0" width="128" height="128"/>
		<rect y="-128" class="st1" width="128" height="128"/>
	</g>
</pattern>
<pattern  y="512" width="128" height="128" patternUnits="userSpaceOnUse" id="New_Pattern_Swatch_6" viewBox="0 -128 128 128" style="overflow:visible;">
	<g>
		<rect y="-128" class="st0" width="128" height="128"/>
		<rect y="-128" class="st2" width="128" height="128"/>
	</g>
</pattern>
<pattern  y="512" width="128" height="128" patternUnits="userSpaceOnUse" id="New_Pattern_Swatch_7" viewBox="0 -128 128 128" style="overflow:visible;">
	<g>
		<rect y="-128" class="st0" width="128" height="128"/>
		<rect y="-128" class="st3" width="128" height="128"/>
	</g>
</pattern>
<pattern  y="512" width="128" height="128" patternUnits="userSpaceOnUse" id="New_Pattern_Swatch_9" viewBox="0 -128 128 128" style="overflow:visible;">
	<g>
		<rect y="-128" class="st0" width="128" height="128"/>
		<rect y="-128" class="st4" width="128" height="128"/>
	</g>
</pattern>
<g id="g3601" transform="scale(16)">
	<path class="st5" d="M7.5,11v10l8.5,5l0,0v6h0C7.2,32,0,24.8,0,16S7.2,0,16,0h0v6l0,0L7.5,11z"/>
	<path class="st6" d="M32,16c0,8.8-7.1,16-16,16v-6l8.5-5V11L16,6V0C24.9,0,32,7.2,32,16z"/>
	<polygon class="st7" points="19.3,18.5 16.2,20.3 16,20.3 16,17.5 16.4,17.7 17.2,17.3 	"/>
	<polygon class="st7" points="24.5,11 24.5,21 16,26 16,22.1 16.2,22.2 22.4,18.5 18.8,16.3 19.5,15.9 18,15 17.3,15.5 16.3,14.9 
		17.2,14.3 16,13.7 16,11.2 16.2,11.1 20.5,13.7 22.1,12.7 16.2,9.3 16,9.4 16,6 	"/>
	<polygon class="st8" points="16,9.4 9.9,13 13.2,14.9 12.6,15.3 14.1,16.2 14.7,15.8 15.7,16.4 14.9,16.9 16,17.5 16,20.3 
		9.7,16.6 9.6,18.4 16,22.1 16,26 16,26 7.5,21 7.5,11 16,6 16,6 	"/>
	<polygon class="st9" points="22.4,18.5 16.2,22.2 16,22.1 16,20.3 16.2,20.3 19.3,18.5 17.2,17.3 16.4,17.7 16,17.5 16,13.7 
		17.2,14.3 16.3,14.9 17.3,15.5 18,15 19.5,15.9 18.8,16.3 	"/>
	<polygon class="st9" points="22.1,12.7 20.5,13.7 16.2,11.1 16,11.2 16,9.4 16.2,9.3 	"/>
</g>
<polygon class="st10" points="256.8,179.4 208.7,207.6 236.8,224.1 251.1,215.7 256.8,219 256.8,280.3 239.1,270 251.7,262.5 
	235.2,252.8 225.2,258.7 201.6,244.9 211.7,239 158.4,207.6 256.8,149.8 "/>
<polygon class="st8" points="256.8,179.4 256.8,219 251.1,215.7 236.8,224.1 208.7,207.6 "/>
<polygon class="st10" points="256.8,324.4 256.8,353.9 154.4,294.5 154.8,265 "/>
</svg>
