<?xml version="1.0" encoding="utf-8"?>
<!-- Generator: Adobe Illustrator 25.4.1, SVG Export Plug-In . SVG Version: 6.00 Build 0)  -->
<svg version="1.1" id="svg9716" xmlns:svg="http://www.w3.org/2000/svg"
	 xmlns="http://www.w3.org/2000/svg" xmlns:xlink="http://www.w3.org/1999/xlink" x="0px" y="0px" viewBox="0 0 512 512"
	 style="enable-background:new 0 0 512 512;" xml:space="preserve">
<style type="text/css">
	.st0{fill:none;}
	.st1{fill:#CDD4D5;}
	.st2{fill:#365558;}
	.st3{fill:#0295AA;}
	.st4{fill:#9BAAAB;}
	.st5{fill-rule:evenodd;clip-rule:evenodd;fill:url(#New_Pattern_Swatch_6);}
	.st6{fill-rule:evenodd;clip-rule:evenodd;fill:url(#New_Pattern_Swatch_7);}
	.st7{fill:url(#New_Pattern_Swatch_10);}
	.st8{fill:url(#New_Pattern_Swatch_9);}
</style>
<pattern  y="512" width="128" height="128" patternUnits="userSpaceOnUse" id="New_Pattern_Swatch_10" viewBox="0 -128 128 128" style="overflow:visible;">
	<g>
		<rect y="-128" class="st0" width="128" height="128"/>
		<rect y="-128" class="st1" width="128" height="128"/>
	</g>
</pattern>
<pattern  y="512" width="128" height="128" patternUnits="userSpaceOnUse" id="New_Pattern_Swatch_6" viewBox="0 -128 128 128" style="overflow:visible;">
	<g>
		<rect y="-128" class="st0" width="128" height="128"/>
		<rect y="-128" class="st2" width="128" height="128"/>
	</g>
</pattern>
<pattern  y="512" width="128" height="128" patternUnits="userSpaceOnUse" id="New_Pattern_Swatch_7" viewBox="0 -128 128 128" style="overflow:visible;">
	<g>
		<rect y="-128" class="st0" width="128" height="128"/>
		<rect y="-128" class="st3" width="128" height="128"/>
	</g>
</pattern>
<pattern  y="512" width="128" height="128" patternUnits="userSpaceOnUse" id="New_Pattern_Swatch_9" viewBox="0 -128 128 128" style="overflow:visible;">
	<g>
		<rect y="-128" class="st0" width="128" height="128"/>
		<rect y="-128" class="st4" width="128" height="128"/>
	</g>
</pattern>
<g id="g9714" transform="scale(16)">
	<path class="st5" d="M16,8.5V0C7.2,0,0,7.2,0,16s7.2,16,16,16v-7.7c0,0,0,0,0,0c-0.3,0.4-0.9,0.4-1.3,0c-0.4-0.3-0.4-0.9,0-1.3
		c0,0,0,0,0,0c0.3-0.4,0.9-0.4,1.3,0c0,0,0.1,0.1,0.1,0.1v-2.9c-0.2,0.2-0.6,0.2-0.9,0.1c-0.4-0.2-0.5-0.7-0.3-1.1
		c0.2-0.4,0.7-0.5,1.1-0.3c0,0,0.1,0.1,0.1,0.1v-4.9c-0.2,0-0.4-0.1-0.5-0.3c-0.2-0.3-0.1-0.7,0.2-0.9c0,0,0,0,0,0
		c0.1,0,0.2-0.1,0.3-0.1V9.5c-0.2-0.1-0.3-0.2-0.3-0.4C15.7,8.8,15.8,8.6,16,8.5z M14.6,7.8c0.4,0,0.7,0.3,0.7,0.7
		c0,0.3-0.2,0.6-0.6,0.7c-0.4,0-0.7-0.3-0.7-0.6C13.9,8.2,14.2,7.8,14.6,7.8z M14.4,14.1C14.4,14.1,14.4,14.1,14.4,14.1
		c-0.4,0.2-0.9,0.1-1.1-0.3c0,0,0,0,0,0c-0.2-0.4-0.1-0.8,0.3-1.1c0,0,0,0,0,0c0.4-0.2,0.8-0.1,1.1,0.3
		C14.9,13.4,14.8,13.8,14.4,14.1z M14.6,16.4c-0.2,0.3-0.5,0.4-0.8,0.2c-0.3-0.2-0.4-0.5-0.2-0.8c0,0,0,0,0,0
		c0.2-0.3,0.5-0.4,0.8-0.2C14.7,15.7,14.8,16.1,14.6,16.4z M12,17.9L12,17.9c0.2-0.2,0.6-0.2,0.8,0s0.2,0.6,0,0.8
		c-0.2,0.2-0.6,0.2-0.8,0C11.8,18.5,11.7,18.2,12,17.9z M12,16.5C12,16.5,12,16.5,12,16.5c0.2-0.2,0.5-0.2,0.7,0
		c0.2,0.2,0.2,0.5,0,0.7c-0.2,0.2-0.4,0.2-0.6,0C11.8,17,11.8,16.7,12,16.5z M12.3,19.6C12.3,19.6,12.3,19.6,12.3,19.6
		c0.3-0.3,0.7-0.3,0.9,0c0.3,0.2,0.3,0.7,0,0.9c0,0,0,0,0,0c-0.3,0.3-0.7,0.3-0.9,0C12.1,20.2,12.1,19.8,12.3,19.6z M13.7,10.5
		c0.1,0.4-0.1,0.8-0.5,1c0,0,0,0,0,0c-0.4,0.1-0.8-0.1-1-0.5c-0.1-0.4,0.1-0.8,0.5-1c0,0,0,0,0,0C13.1,9.9,13.6,10.1,13.7,10.5z
		 M12.4,7.6C12.5,7.6,12.5,7.6,12.4,7.6c0.5,0,0.9,0.3,0.9,0.8c0,0.4-0.3,0.7-0.7,0.8c-0.4,0.1-0.8-0.3-0.9-0.7
		C11.7,8.1,12,7.7,12.4,7.6z M12.4,13.4c0.3,0.4,0.1,1-0.3,1.2v0c-0.4,0.2-1,0.1-1.2-0.3c-0.3-0.4-0.1-1,0.3-1.2c0,0,0,0,0,0
		C11.6,12.8,12.2,12.9,12.4,13.4z M11,17.5c-0.2,0.1-0.4,0.1-0.6-0.1c-0.1-0.2-0.1-0.5,0.1-0.6c0.2-0.1,0.5-0.1,0.6,0.1c0,0,0,0,0,0
		C11.2,17.1,11.2,17.3,11,17.5z M10.7,18.8c-0.2,0.1-0.5,0.1-0.7-0.1c-0.2-0.2-0.1-0.5,0.1-0.7c0,0,0,0,0,0c0.2-0.2,0.5-0.1,0.7,0.1
		C11,18.3,11,18.6,10.7,18.8z M11.4,10.9c0.1,0.5-0.1,0.9-0.6,1.1c-0.5,0.1-1-0.1-1.1-0.6c-0.1-0.5,0.1-1,0.6-1.1c0,0,0,0,0,0
		C10.8,10.2,11.3,10.5,11.4,10.9z M10.1,7.9L10.1,7.9c0.5,0,0.9,0.3,1,0.8v0c0,0.5-0.3,1-0.9,1c-0.5,0-1-0.3-1-0.9c0,0,0,0,0-0.1
		C9.2,8.3,9.6,7.9,10.1,7.9z M6.9,18C6.9,18,6.9,18,6.9,18c-0.6,0.4-1.4,0.1-1.7-0.5c-0.4-0.6-0.1-1.4,0.5-1.7c0,0,0,0,0,0
		c0.6-0.4,1.4-0.1,1.7,0.5C7.7,16.9,7.5,17.7,6.9,18z M6.9,12.6C6.7,12,7,11.4,7.6,11.2c0,0,0,0,0,0C8.2,11.1,8.8,11.4,9,12
		c0.1,0.6-0.2,1.2-0.8,1.3C7.6,13.4,7.1,13.1,6.9,12.6z M9.5,15.9C9,16.2,8.4,16,8.1,15.5C7.8,15,7.9,14.3,8.5,14c0,0,0,0,0,0v0
		c0.5-0.3,1.2-0.1,1.5,0.4C10.2,14.9,10.1,15.6,9.5,15.9z M10,20.2c-0.2-0.3-0.1-0.6,0.2-0.8c0,0,0,0,0,0c0.3-0.2,0.6-0.1,0.8,0.2
		c0.2,0.3,0.1,0.6-0.2,0.8c0,0,0,0,0,0C10.6,20.5,10.2,20.4,10,20.2z M10.4,21.9c-0.2-0.3-0.1-0.7,0.2-0.9c0,0,0,0,0,0
		c0.3-0.2,0.7-0.1,0.9,0.2c0.2,0.3,0.1,0.7-0.2,0.9c0,0,0,0,0,0C11,22.3,10.6,22.2,10.4,21.9z M12.3,24C12.3,24,12.3,24,12.3,24
		c-0.4,0.2-0.8,0.2-1.1-0.2c-0.2-0.4-0.2-0.8,0.2-1.1c0,0,0,0,0,0c0.4-0.2,0.8-0.2,1.1,0.2C12.8,23.3,12.7,23.8,12.3,24z M14,26
		C14,26,14,26,14,26c-0.4,0.3-1,0.2-1.3-0.2c-0.3-0.4-0.2-1,0.2-1.3c0,0,0,0,0,0c0.4-0.3,1-0.2,1.3,0.2C14.5,25.1,14.4,25.7,14,26z
		 M14.3,22.4L14.3,22.4c-0.3,0.3-0.8,0.3-1.1,0c-0.3-0.3-0.3-0.8,0-1.1c0,0,0,0,0,0c0.3-0.3,0.8-0.3,1.1,0
		C14.6,21.6,14.6,22.1,14.3,22.4z M15.1,18.1c-0.2,0.3-0.6,0.4-0.9,0.2c-0.3-0.2-0.4-0.6-0.2-0.9c0,0,0,0,0,0
		c0.2-0.3,0.6-0.4,0.9-0.2C15.2,17.4,15.3,17.8,15.1,18.1z M15.2,11.5c-0.4,0.1-0.7-0.1-0.8-0.4c-0.1-0.3,0.1-0.7,0.4-0.8
		c0,0,0,0,0,0c0.3-0.1,0.7,0.1,0.8,0.4C15.8,11,15.6,11.4,15.2,11.5z"/>
	<path class="st6" d="M16,0v8.5c0.1,0,0.1-0.1,0.2-0.1c0,0,0,0,0,0c0.3,0,0.6,0.2,0.6,0.6c0,0.3-0.2,0.6-0.5,0.6
		c-0.1,0-0.3,0-0.4-0.1v3.4c0.3,0,0.5,0.1,0.7,0.3c0.2,0.3,0,0.7-0.3,0.9c-0.1,0.1-0.2,0.1-0.4,0.1V19c0.2,0.1,0.3,0.4,0.3,0.6
		c0,0.1,0,0.3-0.1,0.4c0,0.1-0.1,0.1-0.2,0.2v2.9c0.3,0.3,0.3,0.8,0,1.2V32c8.8,0,16-7.2,16-16S24.8,0,16,0z M23.1,10.3
		c0.1-0.6,0.7-0.9,1.3-0.8s0.9,0.7,0.8,1.3c-0.2,0.6-0.8,0.9-1.3,0.8C23.4,11.4,23,10.8,23.1,10.3z M22.9,13.1
		c0.1-0.5,0.6-0.8,1.1-0.7c0.5,0.1,0.8,0.6,0.7,1.1c-0.1,0.5-0.6,0.8-1.1,0.7C23.1,14.1,22.8,13.6,22.9,13.1z M23.2,14.9
		c0.4,0.1,0.6,0.5,0.6,0.9c-0.1,0.4-0.5,0.7-0.9,0.6c-0.4-0.1-0.7-0.5-0.6-0.9C22.4,15,22.8,14.8,23.2,14.9z M21.2,17.2
		c0.1-0.4,0.4-0.6,0.8-0.5c0,0,0,0,0,0c0.4,0.1,0.6,0.4,0.5,0.8v0c-0.1,0.4-0.5,0.6-0.8,0.5C21.4,17.9,21.2,17.5,21.2,17.2z
		 M21,13.8C21,13.8,21,13.8,21,13.8c-0.5,0-0.9-0.4-0.9-0.9v0c0-0.5,0.4-0.9,0.9-0.9h0c0.5,0,0.9,0.4,0.9,0.9v0
		C21.9,13.4,21.5,13.8,21,13.8z M22.3,19.2c0.1-0.3,0.5-0.4,0.8-0.3c0,0,0,0,0,0c0.3,0.1,0.4,0.5,0.3,0.8c-0.1,0.3-0.5,0.4-0.8,0.3
		C22.3,19.8,22.2,19.5,22.3,19.2z M21.3,11.2L21.3,11.2c-0.6,0-1.1-0.5-1.1-1.1c0-0.6,0.5-1.1,1.1-1.1c0.6,0,1.1,0.5,1.1,1.1
		C22.4,10.7,21.9,11.2,21.3,11.2z M20.1,5.9c0.2-0.2,0.5-0.4,0.9-0.4c0.7,0,1.3,0.6,1.3,1.3C22.3,7.5,21.7,8,21,8
		c-0.7,0-1.3-0.6-1.3-1.3C19.7,6.4,19.9,6.1,20.1,5.9z M20.2,14.4c0.4,0,0.8,0.3,0.8,0.8c0,0.4-0.4,0.8-0.8,0.8
		c-0.4,0-0.8-0.3-0.8-0.8C19.4,14.8,19.7,14.4,20.2,14.4z M19.1,16.3c0.4,0,0.7,0.3,0.7,0.7h0c0,0.4-0.3,0.7-0.7,0.7
		c-0.4,0-0.7-0.3-0.7-0.7C18.4,16.6,18.7,16.3,19.1,16.3z M19.8,19.4c-0.1,0.3-0.4,0.4-0.6,0.3c-0.2-0.1-0.4-0.3-0.3-0.5
		c0.1-0.3,0.4-0.4,0.6-0.3C19.7,19,19.8,19.2,19.8,19.4z M17.9,11.6c0.3-0.1,0.5,0.1,0.6,0.3c0.1,0.3-0.1,0.5-0.3,0.6h0
		c-0.3,0.1-0.5-0.1-0.6-0.3S17.6,11.7,17.9,11.6z M18.4,18.2c0,0.3-0.3,0.6-0.6,0.6s-0.6-0.3-0.6-0.6c0-0.3,0.3-0.6,0.6-0.6
		S18.4,17.8,18.4,18.2z M17.5,13.5c0.3-0.2,0.6-0.1,0.8,0.2c0.2,0.3,0.1,0.6-0.2,0.8c0,0,0,0,0,0c-0.3,0.2-0.6,0.1-0.8-0.2
		C17.1,14,17.2,13.6,17.5,13.5z M16.2,11.5c-0.1-0.3,0.1-0.6,0.4-0.7c0.3-0.1,0.6,0.1,0.7,0.4c0.1,0.3-0.1,0.6-0.4,0.7
		C16.6,12,16.3,11.8,16.2,11.5z M16.3,21C16.3,21,16.3,21,16.3,21c0.3-0.4,0.8-0.6,1.2-0.3c0.4,0.2,0.6,0.8,0.3,1.2c0,0,0,0,0,0
		c-0.3,0.4-0.8,0.6-1.2,0.3C16.2,22,16,21.4,16.3,21z M17.6,26.5c-0.6,0-1.1-0.5-1.1-1.1v0c0-0.6,0.5-1.1,1.1-1.1h0
		c0.6,0,1.1,0.5,1.1,1.1C18.7,26,18.2,26.5,17.6,26.5z M20.3,23.7c-0.3,0.5-1,0.7-1.5,0.4c-0.5-0.3-0.7-0.9-0.4-1.5c0,0,0,0,0,0
		c0.3-0.5,1-0.7,1.5-0.4C20.4,22.5,20.6,23.2,20.3,23.7z M20.8,20.8C20.8,20.8,20.8,20.8,20.8,20.8c-0.1,0.2-0.4,0.3-0.6,0.2
		c-0.2-0.1-0.3-0.4-0.2-0.6c0.1-0.2,0.4-0.3,0.6-0.2C20.8,20.3,20.9,20.6,20.8,20.8z M20.5,19.1c-0.3-0.1-0.5-0.4-0.4-0.7
		c0.1-0.3,0.4-0.5,0.7-0.4c0.3,0.1,0.5,0.4,0.4,0.7C21.1,19,20.8,19.2,20.5,19.1z M21.1,20c0.1-0.2,0.4-0.3,0.7-0.2
		c0.2,0.1,0.3,0.4,0.2,0.6c-0.1,0.2-0.4,0.3-0.7,0.2C21.1,20.5,21,20.2,21.1,20z M23.5,25.2c-0.4,0.6-1.1,0.8-1.7,0.5h0
		c-0.6-0.3-0.8-1.1-0.5-1.7c0,0,0,0,0,0c0.4-0.6,1.1-0.8,1.7-0.5C23.7,23.8,23.9,24.6,23.5,25.2z M24.7,18.5L24.7,18.5
		c-0.2,0.3-0.6,0.5-0.9,0.3c-0.3-0.2-0.5-0.6-0.3-0.9c0,0,0,0,0,0c0.2-0.3,0.6-0.5,0.9-0.3C24.7,17.8,24.9,18.2,24.7,18.5z
		 M25.9,16.8C25.9,16.8,25.9,16.8,25.9,16.8c-0.2,0.4-0.7,0.5-1.1,0.3c-0.4-0.2-0.5-0.6-0.4-1c0.2-0.4,0.7-0.6,1-0.4
		C26,15.9,26.1,16.4,25.9,16.8z M26.9,14.6C26.9,14.6,26.9,14.6,26.9,14.6c-0.2,0.5-0.8,0.6-1.2,0.4c-0.5-0.2-0.7-0.8-0.4-1.2
		c0,0,0,0,0,0c0.2-0.5,0.8-0.6,1.2-0.4C26.9,13.6,27.1,14.1,26.9,14.6z"/>
	<path class="st7" d="M22.3,6.8C22.3,7.5,21.7,8,21,8c-0.7,0-1.3-0.6-1.3-1.3c0-0.4,0.1-0.7,0.4-0.9c0.2-0.2,0.5-0.4,0.9-0.4
		C21.7,5.5,22.3,6.1,22.3,6.8z"/>
	<path class="st7" d="M22.4,10.1c0,0.6-0.5,1.1-1.1,1.1h0c-0.6,0-1.1-0.5-1.1-1.1c0-0.6,0.5-1.1,1.1-1.1C21.9,9,22.4,9.5,22.4,10.1z
		"/>
	<path class="st7" d="M25.2,10.8c-0.2,0.6-0.8,0.9-1.3,0.8c-0.5-0.1-0.9-0.7-0.8-1.2c0.1-0.6,0.7-0.9,1.3-0.8S25.4,10.2,25.2,10.8z"
		/>
	<path class="st7" d="M24.7,13.6c-0.1,0.5-0.6,0.8-1.1,0.7c-0.5-0.1-0.8-0.6-0.7-1.1c0.1-0.5,0.6-0.8,1.1-0.7
		C24.5,12.6,24.8,13.1,24.7,13.6z"/>
	<path class="st7" d="M26.9,14.6C26.9,14.6,26.9,14.6,26.9,14.6c-0.2,0.5-0.8,0.6-1.2,0.4c-0.5-0.2-0.7-0.8-0.4-1.2c0,0,0,0,0,0
		c0.2-0.5,0.8-0.6,1.2-0.4C26.9,13.6,27.1,14.1,26.9,14.6z"/>
	<path class="st7" d="M25.9,16.8C25.9,16.8,25.9,16.8,25.9,16.8c-0.2,0.4-0.7,0.5-1.1,0.3c-0.4-0.2-0.5-0.6-0.4-1
		c0.2-0.4,0.7-0.6,1-0.4C26,15.9,26.1,16.4,25.9,16.8z"/>
	<path class="st7" d="M24.7,18.5L24.7,18.5c-0.2,0.3-0.6,0.5-0.9,0.3c-0.3-0.2-0.5-0.6-0.3-0.9c0,0,0,0,0,0c0.2-0.3,0.6-0.5,0.9-0.3
		C24.7,17.8,24.9,18.2,24.7,18.5z"/>
	<path class="st7" d="M23.8,15.8c-0.1,0.4-0.5,0.7-0.9,0.6c-0.4-0.1-0.7-0.5-0.6-0.9c0.1-0.4,0.5-0.7,1-0.5
		C23.6,15,23.8,15.4,23.8,15.8z"/>
	<path class="st7" d="M21.9,12.9L21.9,12.9c0,0.5-0.4,0.9-0.9,0.9c0,0,0,0,0,0c-0.5,0-0.9-0.4-0.9-0.9v0c0-0.5,0.4-0.9,0.9-0.9h0
		C21.5,12,21.9,12.4,21.9,12.9z"/>
	<path class="st7" d="M18.2,12.5L18.2,12.5c-0.3,0.1-0.5-0.1-0.6-0.3s0.1-0.5,0.3-0.6c0.3-0.1,0.5,0.1,0.6,0.3
		C18.6,12.2,18.4,12.4,18.2,12.5z"/>
	<path class="st7" d="M18.1,14.5C18.1,14.5,18.1,14.5,18.1,14.5c-0.3,0.2-0.6,0.1-0.8-0.2c-0.2-0.3-0.1-0.6,0.2-0.8
		c0.3-0.2,0.6-0.1,0.8,0.2C18.4,14,18.3,14.3,18.1,14.5z"/>
	<path class="st7" d="M21,15.2c0,0.4-0.4,0.8-0.8,0.8c-0.4,0-0.8-0.3-0.8-0.8c0-0.4,0.4-0.8,0.8-0.8C20.6,14.4,20.9,14.8,21,15.2z"
		/>
	<path class="st7" d="M22.5,17.5L22.5,17.5c-0.1,0.4-0.5,0.6-0.8,0.5c-0.3-0.1-0.5-0.4-0.5-0.8c0.1-0.4,0.4-0.6,0.8-0.5c0,0,0,0,0,0
		C22.4,16.8,22.6,17.1,22.5,17.5z"/>
	<path class="st7" d="M23.4,19.7c-0.1,0.3-0.5,0.4-0.8,0.3c-0.3-0.1-0.4-0.5-0.3-0.8c0.1-0.3,0.5-0.4,0.8-0.3c0,0,0,0,0,0
		C23.4,19,23.5,19.4,23.4,19.7z"/>
	<path class="st7" d="M22,20.4c-0.1,0.2-0.4,0.3-0.7,0.2c-0.2-0.1-0.3-0.4-0.2-0.6c0.1-0.2,0.4-0.3,0.7-0.2
		C22,19.9,22.1,20.2,22,20.4z"/>
	<path class="st7" d="M21.2,18.7c-0.1,0.3-0.4,0.5-0.7,0.4c-0.3-0.1-0.5-0.4-0.4-0.7c0.1-0.3,0.4-0.5,0.7-0.4
		C21,18.1,21.2,18.4,21.2,18.7z"/>
	<path class="st7" d="M19.7,16.9L19.7,16.9c0,0.4-0.3,0.7-0.7,0.7c-0.4,0-0.7-0.3-0.7-0.7c0-0.4,0.3-0.7,0.7-0.7
		C19.4,16.3,19.7,16.6,19.7,16.9z"/>
	<path class="st7" d="M18.4,18.2c0,0.3-0.3,0.6-0.6,0.6s-0.6-0.3-0.6-0.6c0-0.3,0.3-0.6,0.6-0.6S18.4,17.8,18.4,18.2z"/>
	<path class="st7" d="M19.8,19.4c-0.1,0.3-0.4,0.4-0.6,0.3c-0.2-0.1-0.4-0.3-0.3-0.5c0.1-0.3,0.4-0.4,0.6-0.3
		C19.7,19,19.8,19.2,19.8,19.4z"/>
	<path class="st7" d="M20.8,20.8C20.8,20.8,20.8,20.8,20.8,20.8c-0.1,0.2-0.4,0.3-0.6,0.2c-0.2-0.1-0.3-0.4-0.2-0.6
		c0.1-0.2,0.4-0.3,0.6-0.2C20.8,20.3,20.9,20.6,20.8,20.8z"/>
	<path class="st7" d="M23.5,25.2c-0.4,0.6-1.1,0.8-1.7,0.5h0c-0.6-0.3-0.8-1.1-0.5-1.7c0,0,0,0,0,0c0.4-0.6,1.1-0.8,1.7-0.5
		C23.7,23.8,23.9,24.6,23.5,25.2z"/>
	<path class="st7" d="M20.3,23.7c-0.3,0.5-1,0.7-1.5,0.4c-0.5-0.3-0.7-0.9-0.4-1.5c0,0,0,0,0,0c0.3-0.5,1-0.7,1.5-0.4
		C20.4,22.5,20.6,23.2,20.3,23.7z"/>
	<path class="st7" d="M17.9,21.9C17.9,21.9,17.9,21.9,17.9,21.9c-0.3,0.4-0.8,0.6-1.2,0.3C16.2,22,16,21.4,16.3,21c0,0,0,0,0,0
		c0.3-0.4,0.8-0.6,1.2-0.3C18,20.9,18.1,21.5,17.9,21.9z"/>
	<path class="st7" d="M18.7,25.4c0,0.6-0.5,1.1-1.1,1.1c-0.6,0-1.1-0.5-1.1-1.1v0c0-0.6,0.5-1.1,1.1-1.1h0
		C18.2,24.3,18.7,24.8,18.7,25.4z"/>
	<path class="st7" d="M16,24.3v-1.2C16.3,23.4,16.3,23.9,16,24.3z"/>
	<path class="st7" d="M16.3,19.6c0,0.1,0,0.3-0.1,0.4c0,0.1-0.1,0.1-0.2,0.2V19C16.2,19.2,16.3,19.4,16.3,19.6z"/>
	<path class="st7" d="M16.4,14.1c-0.1,0.1-0.2,0.1-0.4,0.1v-1.3c0.3,0,0.5,0.1,0.7,0.3C16.8,13.5,16.7,13.9,16.4,14.1z"/>
	<path class="st7" d="M16.9,11.9c-0.3,0.1-0.6-0.1-0.7-0.4s0.1-0.6,0.4-0.7c0.3-0.1,0.6,0.1,0.7,0.4C17.3,11.5,17.1,11.8,16.9,11.9z
		"/>
	<path class="st7" d="M16.9,8.9c0,0.3-0.2,0.6-0.5,0.6c-0.1,0-0.3,0-0.4-0.1v-1c0.1,0,0.1-0.1,0.2-0.1c0,0,0,0,0,0
		C16.6,8.4,16.9,8.6,16.9,8.9z"/>
	<path class="st8" d="M16,23.1v1.2c0,0,0,0,0,0c-0.3,0.4-0.9,0.4-1.3,0c-0.4-0.3-0.4-0.9,0-1.3c0,0,0,0,0,0
		C15,22.7,15.6,22.7,16,23.1C16,23.1,16,23.1,16,23.1z"/>
	<path class="st8" d="M14,26C14,26,14,26,14,26c-0.4,0.3-1,0.2-1.3-0.2c-0.3-0.4-0.2-1,0.2-1.3c0,0,0,0,0,0c0.4-0.3,1-0.2,1.3,0.2
		C14.5,25.1,14.4,25.7,14,26z"/>
	<path class="st8" d="M12.3,24C12.3,24,12.3,24,12.3,24c-0.4,0.2-0.8,0.2-1.1-0.2c-0.2-0.4-0.2-0.8,0.2-1.1c0,0,0,0,0,0
		c0.4-0.2,0.8-0.2,1.1,0.2C12.8,23.3,12.7,23.8,12.3,24z"/>
	<path class="st8" d="M14.3,22.4L14.3,22.4c-0.3,0.3-0.8,0.3-1.1,0c-0.3-0.3-0.3-0.8,0-1.1c0,0,0,0,0,0c0.3-0.3,0.8-0.3,1.1,0
		C14.6,21.6,14.6,22.1,14.3,22.4z"/>
	<path class="st8" d="M11.3,22.1C11.3,22.1,11.3,22.1,11.3,22.1c-0.3,0.2-0.7,0.1-0.9-0.2c-0.2-0.3-0.1-0.7,0.2-0.9c0,0,0,0,0,0
		c0.3-0.2,0.7-0.1,0.9,0.2C11.7,21.5,11.6,21.9,11.3,22.1z"/>
	<path class="st8" d="M10.8,20.3C10.8,20.3,10.8,20.3,10.8,20.3c-0.3,0.2-0.6,0.1-0.8-0.2c-0.2-0.3-0.1-0.6,0.2-0.8c0,0,0,0,0,0
		c0.3-0.2,0.6-0.1,0.8,0.2C11.2,19.8,11.1,20.1,10.8,20.3z"/>
	<path class="st8" d="M13.3,20.5C13.3,20.5,13.3,20.5,13.3,20.5c-0.3,0.3-0.7,0.3-0.9,0c-0.3-0.2-0.3-0.7,0-0.9c0,0,0,0,0,0
		c0.3-0.3,0.7-0.3,0.9,0C13.5,19.8,13.5,20.2,13.3,20.5z"/>
	<path class="st8" d="M16,19v1.2c-0.2,0.2-0.6,0.2-0.9,0.1c-0.4-0.2-0.5-0.7-0.3-1.1c0.2-0.4,0.7-0.5,1.1-0.3C15.9,19,16,19,16,19z"
		/>
	<path class="st8" d="M15.1,18.1c-0.2,0.3-0.6,0.4-0.9,0.2c-0.3-0.2-0.4-0.6-0.2-0.9c0,0,0,0,0,0c0.2-0.3,0.6-0.4,0.9-0.2
		C15.2,17.4,15.3,17.8,15.1,18.1z"/>
	<path class="st8" d="M12.8,18.7c-0.2,0.2-0.6,0.2-0.8,0c-0.2-0.2-0.2-0.6,0-0.8l0,0c0.2-0.2,0.6-0.2,0.8,0S13,18.5,12.8,18.7z"/>
	<path class="st8" d="M10.7,18.8c-0.2,0.1-0.5,0.1-0.7-0.1c-0.2-0.2-0.1-0.5,0.1-0.7c0,0,0,0,0,0c0.2-0.2,0.5-0.1,0.7,0.1
		C11,18.3,11,18.6,10.7,18.8z"/>
	<path class="st8" d="M11,17.5c-0.2,0.1-0.4,0.1-0.6-0.1c-0.1-0.2-0.1-0.5,0.1-0.6c0.2-0.1,0.5-0.1,0.6,0.1c0,0,0,0,0,0
		C11.2,17.1,11.2,17.3,11,17.5z"/>
	<path class="st8" d="M12.6,17.2c-0.2,0.2-0.4,0.2-0.6,0c-0.2-0.2-0.2-0.5,0-0.7c0,0,0,0,0,0c0.2-0.2,0.5-0.2,0.7,0
		C12.9,16.7,12.8,17,12.6,17.2z"/>
	<path class="st8" d="M14.6,16.4c-0.2,0.3-0.5,0.4-0.8,0.2c-0.3-0.2-0.4-0.5-0.2-0.8c0,0,0,0,0,0c0.2-0.3,0.5-0.4,0.8-0.2
		C14.7,15.7,14.8,16.1,14.6,16.4z"/>
	<path class="st8" d="M6.9,18C6.9,18,6.9,18,6.9,18c-0.6,0.4-1.4,0.1-1.7-0.5c-0.4-0.6-0.1-1.4,0.5-1.7c0,0,0,0,0,0
		c0.6-0.4,1.4-0.1,1.7,0.5C7.7,16.9,7.5,17.7,6.9,18z"/>
	<path class="st8" d="M9.5,15.9C9,16.2,8.4,16,8.1,15.5C7.8,15,7.9,14.3,8.5,14c0,0,0,0,0,0v0c0.5-0.3,1.2-0.1,1.5,0.4
		C10.2,14.9,10.1,15.6,9.5,15.9z"/>
	<path class="st8" d="M12.1,14.6L12.1,14.6c-0.4,0.3-1,0.1-1.2-0.3c-0.3-0.4-0.1-1,0.3-1.2c0,0,0,0,0,0c0.4-0.3,1-0.1,1.2,0.3
		C12.7,13.8,12.5,14.3,12.1,14.6z"/>
	<path class="st8" d="M14.4,14.1C14.4,14.1,14.4,14.1,14.4,14.1c-0.4,0.2-0.9,0.1-1.1-0.3c0,0,0,0,0,0c-0.2-0.4-0.1-0.8,0.3-1.1
		c0,0,0,0,0,0c0.4-0.2,0.8-0.1,1.1,0.3C14.9,13.4,14.8,13.8,14.4,14.1z"/>
	<path class="st8" d="M16,8.5v1c-0.2-0.1-0.3-0.2-0.3-0.4C15.7,8.8,15.8,8.6,16,8.5z"/>
	<path class="st8" d="M16,12.8v1.3c-0.2,0-0.4-0.1-0.5-0.3c-0.2-0.3-0.1-0.7,0.2-0.9c0,0,0,0,0,0C15.8,12.9,15.9,12.8,16,12.8z"/>
	<path class="st8" d="M8.2,13.3c-0.5,0.1-1.1-0.2-1.3-0.7C6.7,12,7,11.4,7.6,11.2c0,0,0,0,0,0C8.2,11.1,8.8,11.4,9,12
		C9.1,12.5,8.7,13.1,8.2,13.3z"/>
	<path class="st8" d="M10.8,12c-0.5,0.1-1-0.1-1.1-0.6c-0.1-0.5,0.1-1,0.6-1.1c0,0,0,0,0,0c0.5-0.1,1,0.2,1.1,0.7
		C11.5,11.4,11.3,11.9,10.8,12z"/>
	<path class="st8" d="M13.2,11.5C13.2,11.5,13.2,11.5,13.2,11.5c-0.4,0.1-0.8-0.1-1-0.5c-0.1-0.4,0.1-0.8,0.5-1c0,0,0,0,0,0
		c0.4-0.1,0.8,0.1,1,0.5C13.8,10.9,13.6,11.4,13.2,11.5z"/>
	<path class="st8" d="M15.2,11.5c-0.4,0.1-0.7-0.1-0.8-0.4c-0.1-0.3,0.1-0.7,0.4-0.8c0,0,0,0,0,0c0.3-0.1,0.7,0.1,0.8,0.4
		C15.8,11,15.6,11.4,15.2,11.5z"/>
	<path class="st8" d="M10.2,9.7c-0.5,0-1-0.3-1-0.9c0,0,0,0,0-0.1c0-0.5,0.4-0.9,0.9-0.9h0c0.5,0,0.9,0.3,1,0.8v0
		C11.1,9.2,10.7,9.7,10.2,9.7z"/>
	<path class="st8" d="M13.3,8.4c0,0.4-0.3,0.7-0.7,0.8c-0.4,0.1-0.8-0.3-0.9-0.7c-0.1-0.4,0.3-0.8,0.7-0.9c0,0,0.1,0,0.1,0
		C12.9,7.6,13.3,7.9,13.3,8.4z"/>
	<path class="st8" d="M15.3,8.5c0,0.3-0.2,0.6-0.6,0.7c-0.4,0-0.7-0.3-0.7-0.6c0-0.4,0.3-0.7,0.6-0.7C14.9,7.8,15.3,8.1,15.3,8.5z"
		/>
</g>
<line class="st0" x1="256" y1="677" x2="256" y2="512"/>
<line class="st0" x1="256" y1="0" x2="256" y2="-95"/>
</svg>
