<?xml version="1.0" encoding="UTF-8" standalone="no"?>
<svg
   width="512"
   height="512"
   viewBox="0 0 512 512"
   version="1.1"
   id="svg3892"
   xmlns="http://www.w3.org/2000/svg"
   xmlns:svg="http://www.w3.org/2000/svg">
  <defs
     id="defs3896" />
  <g
     fill="none"
     id="g3890"
     transform="scale(16)">
    <circle
       cx="16"
       cy="16"
       r="16"
       fill="#00d4d5"
       id="circle3840" />
    <g
       fill="#ffffff"
       id="g3888">
      <path
         d="m 16.519,5 v 5.457 l 4.738,-2.725 z"
         id="path3842" />
      <path
         opacity="0.9"
         d="m 21.257,7.732 v 5.457 l 4.737,-2.732 z"
         id="path3844" />
      <path
         opacity="0.8"
         d="m 16.519,10.457 v 5.457 l 4.738,-2.725 z m 4.738,2.733 v 5.456 l 4.737,-2.732 z"
         id="path3846" />
      <path
         opacity="0.8"
         d="m 16.519,15.914 v 5.457 l 4.738,-2.725 z"
         id="path3848" />
      <path
         d="m 21.257,18.646 v 5.457 l 4.737,-2.732 z"
         id="path3850" />
      <path
         opacity="0.4"
         d="M 4.273,10.273 V 15.73 L 9.011,12.998 Z"
         id="path3852" />
      <path
         opacity="0.2"
         d="m 10.25,12.302 v 5.457 l 4.73,-2.725 z"
         id="path3854" />
      <path
         opacity="0.3"
         d="m 6.738,15.753 v 5.457 l 4.737,-2.732 z"
         id="path3856" />
      <path
         opacity="0.9"
         d="m 9.86,19.871 v 5.457 l 4.73,-2.732 z"
         id="path3858" />
      <path
         opacity="0.7"
         d="m 16.48,22.22 v 5.458 l 4.73,-2.733 z"
         id="path3860" />
      <path
         opacity="0.9"
         d="m 11.039,9.607 v 5.458 l 4.73,-2.725 z"
         id="path3862" />
      <path
         opacity="0.8"
         d="m 16.519,5 v 5.457 L 11.781,7.732 Z"
         id="path3864" />
      <path
         opacity="0.6"
         d="m 11.039,7.32 v 5.456 L 6.3,10.044 Z"
         id="path3866" />
      <path
         opacity="0.6"
         d="m 15.777,10.02 v 5.458 l -4.738,-2.733 z"
         id="path3868" />
      <path
         opacity="0.95"
         d="m 10.228,12.302 v 5.457 L 5.49,15.034 Z"
         id="path3870" />
      <path
         opacity="0.6"
         d="m 16.519,15.914 v 5.457 l -4.73,-2.725 z"
         id="path3872" />
      <path
         opacity="0.55"
         d="m 6.738,17.185 v 5.457 L 2,19.909 Z"
         id="path3874" />
      <path
         d="m 25.994,10.457 v 5.457 l -4.737,-2.725 z"
         id="path3876" />
      <path
         opacity="0.95"
         d="m 21.257,13.19 v 5.456 l -4.738,-2.732 z"
         id="path3878" />
      <path
         opacity="0.9"
         d="m 25.994,15.914 v 5.457 l -4.737,-2.725 z"
         id="path3880" />
      <path
         opacity="0.7"
         d="m 21.257,18.646 v 5.457 l -4.738,-2.732 z"
         id="path3882" />
      <path
         opacity="0.4"
         d="m 15.47,20.92 v 5.457 l -4.737,-2.725 z"
         id="path3884" />
      <path
         d="m 21.257,7.732 v 5.457 l -4.738,-2.732 z"
         id="path3886" />
    </g>
  </g>
</svg>
