<svg width="512" height="512" viewBox="0 0 512 512" fill="none" xmlns="http://www.w3.org/2000/svg">
<g clip-path="url(#clip0_16_26)">
<path d="M0.000495437 254.704C-0.127503 320.11 24.5506 383.054 68.9404 430.547L240.023 12.9102" fill="#365558"/>
<path fill-rule="evenodd" clip-rule="evenodd" d="M255.999 241.193L248.982 248.249L99.582 399.541L255.999 17.1406V241.193Z" fill="#365558"/>
<path fill-rule="evenodd" clip-rule="evenodd" d="M256 267L82.9941 440.094L256 512.5L257.186 512H256V267Z" fill="#365558"/>
<path d="M268.131 254.704L443.053 430.547C534.982 331.802 534.982 177.606 443.053 78.8613" fill="#0295AA"/>
<path fill-rule="evenodd" clip-rule="evenodd" d="M255 242.199L427.745 68.5173L263.011 0L255 19.5854V242.199Z" fill="#0295AA"/>
<path fill-rule="evenodd" clip-rule="evenodd" d="M255.357 512L255.358 512L255.358 512H255.357ZM256.001 511.73L427.72 439.594L256.001 266.99V511.73Z" fill="#0295AA"/>
</g>
<defs>
<clipPath id="clip0_16_26">
<rect width="512" height="512" fill="white"/>
</clipPath>
</defs>
</svg>
