<?xml version="1.0" encoding="UTF-8" standalone="no"?>
<svg
   viewBox="0 0 512 512"
   version="1.1"
   id="svg8186"
   width="512"
   height="512"
   xmlns="http://www.w3.org/2000/svg"
   xmlns:svg="http://www.w3.org/2000/svg">
  <defs
     id="defs8190" />
  <g
     fill="none"
     fill-rule="evenodd"
     id="g8184"
     transform="scale(16)">
    <circle
       cx="16"
       cy="16"
       r="16"
       fill="#0093dd"
       id="circle8180" />
    <path
       fill="#ffffff"
       d="m 13.54,16 5.174,5.33 3.265,-3.363 a 1.446,1.446 0 0 1 2.088,0 1.554,1.554 0 0 1 0,2.152 l -4.309,4.44 a 1.456,1.456 0 0 1 -2.088,0 l -6.216,-6.406 v 3.808 c 0,0.836 -0.666,1.522 -1.477,1.522 C 9.161,23.483 8.5,22.801 8.5,21.961 V 10.04 c 0,-0.84 0.661,-1.522 1.477,-1.522 0.815,0 1.477,0.682 1.477,1.522 v 3.808 L 17.67,7.442 a 1.456,1.456 0 0 1 2.088,0 l 4.31,4.44 a 1.554,1.554 0 0 1 0,2.152 1.446,1.446 0 0 1 -2.09,0 L 18.714,10.67 Z m 5.176,-1.523 c 0.816,0 1.478,0.682 1.478,1.523 0,0.841 -0.662,1.523 -1.478,1.523 -0.816,0 -1.478,-0.682 -1.478,-1.523 0,-0.841 0.662,-1.523 1.478,-1.523 z"
       id="path8182" />
  </g>
</svg>
