<svg width="512" height="512" viewBox="0 0 512 512" fill="none" xmlns="http://www.w3.org/2000/svg">
<path d="M256 0V512C114.615 512 0 397.385 0 256C0 114.615 114.615 0 256 0Z" fill="#365558"/>
<path d="M256 512V0C397.385 0 512 114.615 512 256C512 397.385 397.385 512 256 512Z" fill="#0295AA"/>
<path fill-rule="evenodd" clip-rule="evenodd" d="M255.84 322.263C258.588 322.437 260.411 322.553 260.411 322.553C260.411 322.553 261.359 339.498 278.524 350.383C295.689 361.167 296.045 367.126 296.045 367.126C296.045 367.126 287.107 370.596 287.107 374.98C287.107 374.98 300.277 371.155 312.499 371.493C324.722 371.832 335.421 374.98 335.421 374.98C335.421 374.98 334.489 370.257 322.606 367.126C310.62 363.858 298.991 351.619 293.218 344.882C289.714 340.667 287.417 335.581 286.57 330.166C285.724 324.75 286.36 319.206 288.41 314.123C291.948 305.344 303.047 299.958 324.928 289.341C328.491 287.613 332.339 285.745 336.487 283.702C371.394 266.401 379.401 253.603 384.327 243.616C387.311 237.586 391.146 227.954 394.626 219.214C396.911 213.476 399.043 208.123 400.68 204.426C405.843 192.407 412.191 186.008 417.49 182.199C422.653 178.373 446.285 169.96 446.285 169.96C446.285 169.96 428.29 155.029 422.534 150.662C422.075 150.315 421.61 149.959 421.135 149.595C415.307 145.138 408.143 139.658 395.855 138.202C383.603 136.654 371.121 144.339 362.548 149.617C362.403 149.707 362.259 149.795 362.117 149.883C357.096 152.963 349.463 159.547 342.649 165.424C337.816 169.594 333.395 173.407 330.613 175.36C327.918 177.259 323.531 179.103 317.454 181.658C308.415 185.459 295.636 190.831 279.117 200.296C273.853 203.311 265.658 208.164 255.84 214.044V322.263Z" fill="white"/>
<path fill-rule="evenodd" clip-rule="evenodd" d="M255.838 214.044C214.12 239.029 143.094 282.568 143.094 282.568L171.314 282.906L45.5356 344.78H58.0965L40 357.916C40 357.916 55.9805 361.962 69.3878 353.87V357.578C69.3878 357.578 219.154 301.206 248.085 315.815L230.445 320.741C231.583 320.741 247.733 321.752 255.838 322.263V214.044Z" fill="#E6EAEA"/>
</svg>
