<svg width="512" height="512" viewBox="0 0 512 512" fill="none" xmlns="http://www.w3.org/2000/svg">
<path fill-rule="evenodd" clip-rule="evenodd" d="M272 334.081C275.462 334.3 277.759 334.446 277.759 334.446C277.759 334.446 278.954 355.801 300.586 369.518C322.218 383.107 322.666 390.617 322.666 390.617C322.666 390.617 311.402 394.99 311.402 400.515C311.402 400.515 327.999 395.694 343.402 396.121C358.805 396.547 372.287 400.515 372.287 400.515C372.287 400.515 371.114 394.563 356.138 390.617C341.034 386.499 326.378 371.075 319.103 362.585C314.687 357.273 311.792 350.864 310.726 344.039C309.659 337.214 310.46 330.228 313.045 323.822C317.503 312.759 331.49 305.972 359.064 292.592C363.554 290.414 368.404 288.061 373.631 285.486C417.621 263.683 427.711 247.555 433.919 234.969C437.68 227.37 442.513 215.232 446.899 204.218C449.778 196.987 452.464 190.241 454.527 185.582C461.034 170.435 469.034 162.371 475.711 157.571C482.218 152.75 511.999 142.147 511.999 142.147C511.999 142.147 489.322 123.331 482.069 117.827C481.49 117.39 480.903 116.941 480.305 116.484C472.961 110.866 463.933 103.96 448.447 102.126C433.007 100.175 417.278 109.859 406.474 116.511C406.291 116.624 406.11 116.735 405.93 116.846C399.603 120.727 389.983 129.025 381.397 136.431C375.306 141.686 369.735 146.491 366.229 148.953C362.832 151.346 357.304 153.67 349.645 156.89C338.255 161.679 322.151 168.45 301.333 180.377C294.7 184.177 284.373 190.292 272 197.702V334.081Z" fill="#0295AA"/>
<path fill-rule="evenodd" clip-rule="evenodd" d="M272 197.7C219.428 229.187 129.92 284.054 129.92 284.054L165.483 284.481L6.976 362.454H22.8053L0 379.009C0 379.009 20.1387 384.108 37.0347 373.91V378.582C37.0347 378.582 225.771 307.542 262.229 325.953L240 332.161C241.434 332.161 261.786 333.434 272 334.079V197.7Z" fill="#365558"/>
</svg>
