<?xml version="1.0" encoding="UTF-8" standalone="no"?>
<svg
   width="512"
   height="512"
   viewBox="0 0 512 512"
   version="1.1"
   id="svg4112"
   xmlns="http://www.w3.org/2000/svg"
   xmlns:svg="http://www.w3.org/2000/svg">
  <defs
     id="defs4116" />
  <g
     fill="none"
     id="g4110"
     transform="scale(16)">
    <circle
       fill="#000000"
       cx="16"
       cy="16"
       r="16"
       id="circle4106" />
    <path
       d="M 25.847,9.448 C 25.487,9.176 25.056,8.805 24.271,8.712 23.535,8.619 22.785,9.09 22.278,9.402 c -0.507,0.311 -1.465,1.227 -1.861,1.505 -0.396,0.279 -1.41,0.538 -3.042,1.473 -1.632,0.935 -8.035,4.86 -8.035,4.86 l 1.667,0.02 -7.43,3.655 H 4.319 L 3.25,21.691 c 0,0 0.944,0.239 1.736,-0.239 v 0.219 c 0,0 8.847,-3.33 10.556,-2.467 L 14.5,19.495 c 0.09,0 1.77,0.107 1.77,0.107 0,0 0.056,1.001 1.07,1.644 1.014,0.637 1.035,0.989 1.035,0.989 0,0 -0.528,0.205 -0.528,0.464 0,0 0.778,-0.226 1.5,-0.206 0.722,0.02 1.354,0.206 1.354,0.206 0,0 -0.055,-0.279 -0.757,-0.464 -0.708,-0.193 -1.395,-0.916 -1.736,-1.314 a 1.793,1.793 0 0 1 -0.284,-1.817 c 0.243,-0.603 1.09,-0.935 2.84,-1.797 2.062,-1.022 2.535,-1.778 2.826,-2.368 0.292,-0.59 0.722,-1.764 0.966,-2.315 0.305,-0.71 0.68,-1.088 0.993,-1.313 0.305,-0.226 1.701,-0.723 1.701,-0.723 0,0 -1.063,-0.882 -1.403,-1.14 z"
       fill="#ffffff"
       id="path4108" />
  </g>
</svg>
