<?xml version="1.0" encoding="UTF-8" standalone="no"?>
<svg
   height="512"
   viewBox="0 0 512 512"
   width="512"
   version="1.1"
   id="svg4309"
   xmlns="http://www.w3.org/2000/svg"
   xmlns:svg="http://www.w3.org/2000/svg">
  <defs
     id="defs4313" />
  <g
     fill="none"
     id="g4307"
     transform="scale(16)">
    <circle
       cx="16"
       cy="16"
       fill="#0d4ea0"
       r="16"
       id="circle4303" />
    <path
       d="M 14.249,24.958 C 14.235,24.972 14.207,24.986 14.193,25 h -1.552 c -0.028,0 -0.042,-0.014 -0.056,-0.028 L 8.01,19.804 a 0.09,0.09 0 0 1 0,-0.083 l 5.698,-9.835 c 0.028,-0.041 0.097,-0.041 0.125,0 l 1.594,2.758 c 0.014,0.014 0.014,0.042 0,0.07 l -3.854,6.645 c -0.014,0.027 0,0.055 0.014,0.083 l 2.301,2.591 a 0.105,0.105 0 0 0 0.056,0.028 h 2.717 c 0.07,0 0.097,0.07 0.055,0.111 z m 1.69,-18.916 c 0.029,-0.056 0.098,-0.056 0.112,0 l 7.943,13.65 c 0.014,0.029 0,0.057 -0.014,0.084 l -4.574,5.168 a 0.105,0.105 0 0 1 -0.056,0.028 h -3.715 c -0.07,0 -0.097,-0.07 -0.055,-0.111 l 2.481,-2.814 2.329,-2.619 c 0.028,-0.028 0.028,-0.056 0.014,-0.083 l -4.409,-7.606 -1.663,-2.87 c -0.014,-0.013 -0.014,-0.041 0,-0.07 z"
       fill="#ffffff"
       id="path4305" />
  </g>
</svg>
