<svg width="512" height="512" viewBox="0 0 512 512" fill="none" xmlns="http://www.w3.org/2000/svg">
<path d="M256 512V0C397.385 0 512 114.615 512 256C512 397.385 397.385 512 256 512Z" fill="#02A6C2"/>
<path d="M256 0V512C114.615 512 0 397.385 0 256C0 114.615 114.615 0 256 0Z" fill="#365558"/>
<path fill-rule="evenodd" clip-rule="evenodd" d="M256.004 407.552H309.605C309.942 407.497 310.255 407.341 310.501 407.104L383.686 324.416C383.91 323.984 384.134 323.536 383.91 323.072L256.82 104.672C256.707 104.22 256.37 103.996 256.004 104V195.961L326.469 317.52C326.693 317.952 326.693 318.4 326.245 318.848L288.981 360.752L256.004 398.154V407.552ZM256.004 375.69L267.46 362.752C268.132 362.096 267.7 360.976 266.58 360.976H256.004V375.69Z" fill="white"/>
<path fill-rule="evenodd" clip-rule="evenodd" d="M256.004 104C255.645 104.004 255.258 104.228 255.028 104.672L229.316 148.784C229.092 149.248 229.092 149.696 229.316 149.904L255.924 195.824L256.004 195.962V104ZM256.004 360.976V375.69L227.988 407.328C227.876 407.44 227.708 407.552 227.54 407.664C227.372 407.776 227.204 407.888 227.092 408H202.259C201.811 408 201.587 407.776 201.363 407.552L128.162 324.864C128.056 324.659 128 324.431 128 324.2C128 323.969 128.056 323.741 128.162 323.536L219.332 166.176C219.78 165.52 220.884 165.52 221.332 166.176L246.836 210.304C247.06 210.528 247.06 210.976 246.836 211.424L185.171 317.744C184.947 318.176 185.171 318.624 185.395 319.072L222.212 360.528C222.458 360.765 222.77 360.921 223.108 360.976H256.004ZM256.004 398.154V407.552H250.164C249.044 407.552 248.612 406.432 249.284 405.776L256.004 398.154Z" fill="#E6EAEA"/>
</svg>
