<svg width="512" height="512" viewBox="0 0 512 512" fill="none" xmlns="http://www.w3.org/2000/svg">
<g clip-path="url(#clip0_115_277)">
<path d="M261 512V0C402.385 0 517 114.615 517 256C517 397.385 402.385 512 261 512Z" fill="#02A6C2"/>
<path d="M261 0V512C119.615 512 5 397.385 5 256C5 114.615 119.615 0 261 0Z" fill="#365558"/>
<path d="M422.601 160.2C416.901 150.6 410.301 141.4 402.701 132.7L261.301 274.2V321.6L422.601 160.2Z" fill="#4ACFD9"/>
<path d="M166.199 416.7L261.299 321.6V274.2L138.699 396.8C147.399 404.3 156.599 411 166.199 416.7Z" fill="#0295AA"/>
<path d="M381.001 111.4C372.101 104 362.801 97.5996 353.001 92.0996L261.301 183.8V231.1L381.001 111.4Z" fill="#4ACFD9"/>
<path d="M117.402 375L261.302 231.1V183.8L98.1016 347C103.602 356.8 110.002 366.2 117.402 375Z" fill="#0295AA"/>
<path d="M323.401 78.5996C310.901 74.1996 298.101 71.1996 285.101 69.5996L261.301 93.3996V140.7L323.401 78.5996Z" fill="#4ACFD9"/>
<path d="M84.6016 317.399L261.302 140.699V93.3994L75.6016 279.099C77.3016 292.099 80.2016 304.899 84.6016 317.399Z" fill="#0295AA"/>
<path d="M75 236.7L242.7 69C201.2 73.1 160.7 91.1 128.9 122.9C97.1 154.7 79.1 195.1 75 236.7Z" fill="#0295AA"/>
<path d="M446.301 226.8C444.301 214.1 441.101 201.5 436.501 189.3L261.301 364.5V411.8L446.301 226.8Z" fill="#4ACFD9"/>
<path d="M232.801 440.3L261.301 411.8V364.5L195.301 430.5C207.501 435.1 220.101 438.4 232.801 440.3Z" fill="#0295AA"/>
<path d="M447.999 268.2L274.199 442C317.699 439 360.499 420.9 393.699 387.7C426.999 354.4 445.099 311.7 447.999 268.2Z" fill="#4ACFD9"/>
<path d="M320.701 192.1V144.3L261.301 187.1V234.8L320.701 192.1Z" fill="white"/>
<path d="M412.401 320.8H261.301V380.9H412.401V320.8Z" fill="white"/>
<path d="M271.601 97.7002H261.301V171.6L271.601 97.7002Z" fill="#E6EAEA"/>
<path d="M240.5 320.8L251.5 241.9L261.3 234.8V187.1L258.9 188.8L261.3 171.6V97.7002H195.9L179.7 245.8L131.5 280.5V328.3L174 297.7L164.9 380.9H240.5H261.3V320.8H240.5Z" fill="#E6EAEA"/>
<path d="M418.101 315H261.301V326.5H406.601V375.1H261.301V386.6H418.101V315Z" fill="#0295AA"/>
<path d="M264.901 103.499L261.301 129.399V194.199L314.901 155.599V189.199L261.301 227.799V241.999L326.401 195.099V133.099L266.401 176.299L278.201 91.8994H261.301V103.499H264.901Z" fill="#0295AA"/>
<path d="M171.301 375.099L181.101 285.399L137.301 316.999V283.399L185.201 248.999L201.001 103.499H261.301V91.8994H190.801L174.301 242.599L125.801 277.499V339.499L166.901 309.899L158.501 386.599H261.301V375.099H171.301Z" fill="#365558"/>
<path d="M246.102 238.7L233.902 326.5H261.302V315H247.102L256.802 245.2L261.302 242V227.8L246.102 238.7Z" fill="#0295AA"/>
<path d="M261.301 194.199V129.399L251.301 201.399L261.301 194.199Z" fill="#0295AA"/>
</g>
<defs>
<clipPath id="clip0_115_277">
<rect width="512" height="512" fill="white"/>
</clipPath>
</defs>
</svg>
