<svg width="512" height="512" viewBox="0 0 512 512" fill="none" xmlns="http://www.w3.org/2000/svg">
<path d="M256 0V21.3C385.4 21.3 490.7 126.6 490.7 256C490.7 385.4 385.4 490.7 256 490.7V512C397.4 512 512 397.4 512 256C512 114.6 397.4 0 256 0Z" fill="#0295AA"/>
<path d="M21.3 256C21.3 126.6 126.6 21.3 256 21.3V0C114.6 0 0 114.6 0 256C0 397.4 114.6 512 256 512V490.7C126.6 490.7 21.3 385.4 21.3 256Z" fill="#365558"/>
<path d="M417.3 160.9C411.6 151.3 405 142.1 397.4 133.4L256 274.9V322.3L417.3 160.9Z" fill="#4ACFD9"/>
<path d="M160.9 417.4L256 322.3V274.9L133.4 397.5C142.1 405 151.3 411.7 160.9 417.4Z" fill="#0295AA"/>
<path d="M375.7 112.1C366.8 104.7 357.5 98.2998 347.7 92.7998L256 184.5V231.8L375.7 112.1Z" fill="#4ACFD9"/>
<path d="M112.101 375.7L256.001 231.8V184.5L92.8008 347.7C98.3008 357.5 104.701 366.9 112.101 375.7Z" fill="#0295AA"/>
<path d="M318.1 79.2998C305.6 74.8998 292.8 71.8998 279.8 70.2998L256 94.0998V141.4L318.1 79.2998Z" fill="#4ACFD9"/>
<path d="M79.3008 318.1L256.001 141.4V94.0996L70.3008 279.8C72.0008 292.8 74.9008 305.6 79.3008 318.1Z" fill="#0295AA"/>
<path d="M69.6992 237.4L237.399 69.7002C195.899 73.8002 155.399 91.8002 123.599 123.6C91.7992 155.4 73.7992 195.8 69.6992 237.4Z" fill="#0295AA"/>
<path d="M441 227.5C439 214.8 435.8 202.2 431.2 190L256 365.2V412.5L441 227.5Z" fill="#4ACFD9"/>
<path d="M227.5 441L256 412.5V365.2L190 431.2C202.2 435.8 214.8 439.1 227.5 441Z" fill="#0295AA"/>
<path d="M442.7 268.9L268.9 442.7C312.4 439.7 355.2 421.6 388.4 388.4C421.7 355.1 439.8 312.4 442.7 268.9Z" fill="#4ACFD9"/>
<path d="M315.4 192.8V145L256 187.8V235.5L315.4 192.8Z" fill="#E6EAEA"/>
<path d="M407.1 321.5H256V381.6H407.1V321.5Z" fill="#E6EAEA"/>
<path d="M266.3 98.4004H256V172.3L266.3 98.4004Z" fill="#E6EAEA"/>
<path d="M235.199 321.5L246.199 242.6L255.999 235.5V187.8L253.599 189.5L255.999 172.3V98.4004H190.599L174.399 246.5L126.199 281.2V329L168.699 298.4L159.599 381.6H235.199H255.999V321.5H235.199Z" fill="#CDD4D5"/>
<path d="M412.8 315.7H256V327.2H401.3V375.8H256V387.3H412.8V315.7Z" fill="#0295AA"/>
<path d="M259.6 104.2L256 130.1V194.9L309.6 156.3V189.9L256 228.5V242.7L321.1 195.8V133.8L261.1 177L272.9 92.5996H256V104.2H259.6Z" fill="#0295AA"/>
<path d="M166 375.8L175.8 286.1L132 317.7V284.1L179.9 249.7L195.7 104.2H256V92.5996H185.5L169 243.3L120.5 278.2V340.2L161.6 310.6L153.2 387.3H256V375.8H166Z" fill="#365558"/>
<path d="M240.8 239.4L228.6 327.2H256V315.7H241.8L251.5 245.9L256 242.7V228.5L240.8 239.4Z" fill="#0295AA"/>
<path d="M256 194.9V130.1L246 202.1L256 194.9Z" fill="#0295AA"/>
</svg>
