<svg width="512" height="512" viewBox="0 0 512 512" fill="none" xmlns="http://www.w3.org/2000/svg">
<path fill-rule="evenodd" clip-rule="evenodd" d="M256 511.534L256.767 512L375.807 439.756L316.671 403.942L256.78 439.749L256 439.282V511.534ZM256 352.665L395.878 268.953V421.273L460.799 383.385V155.161V155.136L256 278.143V352.665ZM256 72.2432L315.878 108.057L375.039 72.2428L256 0V72.2432Z" fill="#4ACFD9"/>
<path fill-rule="evenodd" clip-rule="evenodd" d="M256 0.000296329L255.999 0L136.985 72.2432L196.121 108.058L255.999 72.2432L256 72.2435V0.000296329ZM256 278.144L255.999 278.144L51.1992 155.136V383.386L116.121 421.274V268.877L255.999 352.666L256 352.665V278.144ZM256 439.282L196.914 403.942L137.778 439.757L256 511.534V439.282Z" fill="#0295AA"/>
</svg>
