<svg width="512" height="512" viewBox="0 0 512 512" fill="none" xmlns="http://www.w3.org/2000/svg">
<path d="M256 0V512C114.615 512 0 397.385 0 256C0 114.615 114.615 0 256 0Z" fill="#0295AA"/>
<path d="M256 512V0C397.385 0 512 114.615 512 256C512 397.385 397.385 512 256 512Z" fill="#4ACFD9"/>
<path fill-rule="evenodd" clip-rule="evenodd" d="M256 415.709L256.48 416L330.88 370.848L293.92 348.464L256.488 370.843L256 370.551V415.709ZM256 316.416L343.424 264.096V359.296L384 335.616V192.976V192.96L256 269.84V316.416ZM256 141.152L256 141.152L293.424 163.536L330.4 141.152L256 96L256 96V141.152Z" fill="white"/>
<path fill-rule="evenodd" clip-rule="evenodd" d="M256 96L181.616 141.152L218.576 163.536L256 141.152V96ZM256 269.84L128 192.96V335.616L168.576 359.296V264.048L256 316.416V269.84ZM256 370.551L219.072 348.464L182.112 370.848L256 415.709V370.551Z" fill="#E6EAEA"/>
</svg>
