<svg width="512" height="512" viewBox="0 0 512 512" fill="none" xmlns="http://www.w3.org/2000/svg">
<path d="M256 0V512C397.4 512 512 397.4 512 256C512 114.6 397.4 0 256 0Z" fill="white"/>
<path d="M256 0C114.6 0 0 114.6 0 256C0 397.4 114.6 512 256 512V0Z" fill="#E6EAEA"/>
<path d="M365.602 390.5V257.3L294.502 328.5L283.502 339.5L256.602 366.4L256.102 365.9V512C295.302 512 332.502 503.2 365.702 487.4C368.402 486.2 371.002 484.8 373.702 483.5C390.002 475.1 405.402 464.9 419.402 453.3C420.602 452.3 421.702 451.4 422.902 450.4C442.902 433.3 460.202 413.1 474.002 390.6H365.602V390.5Z" fill="#9BAAAB"/>
<path d="M255.999 365.9L229.499 339.4L218.499 328.4L144.299 254.2V390.5H38.1992C51.8992 412.7 68.9992 432.7 88.5992 449.7C90.0992 451 91.6992 452.3 93.2992 453.6C107.399 465.2 122.699 475.4 139.099 483.8C140.799 484.7 142.599 485.6 144.299 486.4C177.999 502.8 215.899 512 255.999 512V365.9Z" fill="#365558"/>
<path d="M483.8 139.1C475.4 122.7 465.3 107.4 453.6 93.3C444.3 81.9 433.9 71.3 422.7 61.7C405.5 46.9 386.3 34.4 365.6 24.6C332.4 8.80001 295.2 0 256 0V290L256.5 290.5L365.6 181.3L422.7 124.2V339.4H498.1C507.1 313.3 512 285.2 512 256C512 213.9 501.8 174.1 483.8 139.1Z" fill="#FF8C29"/>
<path d="M256 0C216 0 178.1 9.20001 144.3 25.6C124.1 35.4 105.4 47.8 88.6 62.3C77.8 71.6 67.9 81.8 58.8 92.8C47.1 106.8 37 122.2 28.6 138.5C10.3 173.7 0 213.6 0 256C0 285.2 4.89999 313.3 13.9 339.4H88.6V122.6L256 290V0Z" fill="#FD6A33"/>
</svg>
