<svg width="512" height="512" viewBox="0 0 512 512" fill="none" xmlns="http://www.w3.org/2000/svg">
<path d="M256 0V512C114.615 512 0 397.385 0 256C0 114.615 114.615 0 256 0Z" fill="#E6EAEA"/>
<path d="M256 512V0C397.385 0 512 114.615 512 256C512 397.385 397.385 512 256 512Z" fill="white"/>
<path fill-rule="evenodd" clip-rule="evenodd" d="M285.99 210.806L354.638 108.816C361.211 98.2144 372.531 92 384.946 92C404.299 92 420 107.719 420 127.093V385.907C420 405.281 404.299 421 384.946 421H377.643C367.418 421 357.559 416.613 350.987 408.571L255.5 294.201V219.236L364.132 349.351C365.593 351.179 368.879 350.082 368.879 347.523V163.649C368.879 161.09 366.323 159.993 364.497 161.456L296.945 220.31C290.372 226.159 281.243 217.751 285.99 210.806Z" fill="#0295AA"/>
<path fill-rule="evenodd" clip-rule="evenodd" d="M255.5 219.236L159.648 104.429C153.075 96.3867 143.582 92 132.992 92H125.689C106.701 92 91 107.719 91 127.093V385.907C91 405.281 106.701 421 126.054 421C138.104 421 149.424 414.786 155.997 404.184L224.645 302.194C229.392 295.249 220.263 286.841 213.69 292.69L146.138 351.179C144.312 352.641 141.756 351.544 141.756 348.986V165.477C141.756 162.918 145.042 161.821 146.503 163.649L255.5 294.201V219.236Z" fill="#365558"/>
</svg>
