<svg width="512" height="512" viewBox="0 0 512 512" fill="none" xmlns="http://www.w3.org/2000/svg">
<path fill-rule="evenodd" clip-rule="evenodd" d="M303.449 184.889L410.282 26.1689C420.511 9.67111 438.127 0 457.447 0C487.565 0 512 24.4622 512 54.6133V457.387C512 487.538 487.565 512 457.447 512H446.082C430.171 512 414.828 505.173 404.599 492.658L256 314.672V198.009L425.057 400.498C427.33 403.342 432.444 401.636 432.444 397.653V111.502C432.444 107.52 428.466 105.813 425.625 108.089L320.497 199.68C310.269 208.782 296.062 195.698 303.449 184.889Z" fill="#0295AA"/>
<path fill-rule="evenodd" clip-rule="evenodd" d="M256 198.009L106.832 19.3422C96.6038 6.82667 81.8291 0 65.3496 0H53.9845C24.4351 0 0 24.4622 0 54.6133V457.387C0 487.538 24.4351 512 54.5527 512C73.3052 512 90.9212 502.329 101.15 485.831L207.982 327.111C215.37 316.302 201.163 303.218 190.935 312.32L85.8069 403.342C82.9656 405.618 78.9878 403.911 78.9878 399.929V114.347C78.9878 110.364 84.1021 108.658 86.3751 111.502L256 314.672V198.009Z" fill="#365558"/>
</svg>
