<svg width="512" height="512" viewBox="0 0 512 512" fill="none" xmlns="http://www.w3.org/2000/svg">
<g clip-path="url(#clip0_1_499)">
<path fill-rule="evenodd" clip-rule="evenodd" d="M255.988 527.976C255.997 527.981 256.005 527.986 256.013 527.99C290.389 507.684 322.337 483.525 351.24 455.981C352.48 454.784 353.502 453.381 354.261 451.834L355.387 449.607C355.646 449.098 355.888 448.622 356.116 448.175C357.912 444.644 358.791 442.917 359.79 440.827C373.102 413.052 375.61 384.868 367.035 356.171C359.265 329.822 342.375 307.097 319.384 292.061C300.453 279.679 278.402 273.177 255.988 273.189V527.976ZM255.988 81.3165C259.188 75.4789 262.771 69.8404 266.722 64.4398C280.301 45.8765 297.872 30.597 318.141 19.7271C302.168 18.012 281.125 16.3993 266.585 16.1177C263.052 16.0416 259.52 16.0018 255.988 15.998V81.3165ZM409.734 389.731C416.44 380.644 422.891 371.428 428.984 361.957H429.009C463.091 309.34 487.293 250.95 500.43 189.652C507.958 154.754 511.835 119.168 512 83.468C499.918 76.6331 488.552 70.7454 477.289 65.4465C457.757 56.3077 441.732 49.78 425.886 44.7883C405.228 38.3118 384.493 37.595 363.502 42.6636C334.704 49.6052 309.667 67.3325 293.554 92.1901C277.441 117.048 271.481 147.141 276.902 176.263C283.148 209.695 300.888 235.601 329.993 254.109C331.255 254.893 332.527 255.661 333.808 256.413L336.111 257.821C359.262 271.887 378.228 291.888 391.046 315.751C403.507 338.404 409.941 363.878 409.734 389.731Z" fill="#4ACFD9"/>
<path fill-rule="evenodd" clip-rule="evenodd" d="M255.988 16.014C205.301 15.9606 154.86 23.3526 106.286 37.9693C69.2539 49.0942 33.5987 64.3713 0 83.5095C0.0769192 103.344 1.31632 123.158 3.71182 142.847C5.88212 160.867 9.00097 178.76 13.0554 196.451C13.631 199.095 14.4892 201.67 15.6152 204.131C25.5746 225.619 41.8746 243.542 62.3234 255.491C82.7723 267.439 106.389 272.84 129.999 270.966C153.608 269.093 176.078 260.035 194.387 245.011C212.696 229.988 225.965 209.718 232.411 186.928C235.278 176.817 236.609 166.014 237.019 152.293C237.3 143.385 238.145 135.04 239.681 127.002C242.674 110.971 248.191 95.5605 255.988 81.333V16.014ZM255.988 273.205C251.183 273.208 246.361 273.51 241.55 274.118C226.179 276.064 211.34 281.013 197.878 288.683C169.873 304.805 137.514 311.726 105.364 308.471C83.4961 306.372 62.3519 299.514 43.4155 288.376C83.1656 378.99 147.871 456.428 229.979 511.649C238.438 517.425 247.114 522.877 255.988 527.992V273.205Z" fill="#0295AA"/>
</g>
<defs>
<clipPath id="clip0_1_499">
<rect width="512" height="512" fill="white"/>
</clipPath>
</defs>
</svg>
