<?xml version="1.0" encoding="UTF-8" standalone="no"?>
<svg
   viewBox="0 0 512 512"
   version="1.1"
   id="svg5312"
   width="512"
   height="512"
   xmlns="http://www.w3.org/2000/svg"
   xmlns:svg="http://www.w3.org/2000/svg">
  <defs
     id="defs5316" />
  <g
     fill="none"
     fill-rule="evenodd"
     id="g5310"
     transform="scale(16)">
    <circle
       cx="16"
       cy="16"
       r="16"
       fill="#67b2e8"
       id="circle5306" />
    <path
       fill="#ffffff"
       d="M 6.145,11.954 A 19.83,19.83 0 0 1 6,9.636 20.035,20.035 0 0 1 10.152,7.857 20.221,20.221 0 0 1 16.414,7.004 c 0.568,0.011 1.39,0.074 2.014,0.141 a 6.005,6.005 0 0 0 -3.065,4.19 c -0.06,0.314 -0.093,0.64 -0.104,0.988 -0.016,0.536 -0.068,0.958 -0.18,1.353 a 4.53,4.53 0 0 1 -8.469,0.672 1.475,1.475 0 0 1 -0.1,-0.3 20.172,20.172 0 0 1 -0.365,-2.094 z m 16.613,8.56 c -0.238,0.37 -0.49,0.73 -0.752,1.085 a 5.898,5.898 0 0 0 -0.73,-2.89 5.933,5.933 0 0 0 -2.146,-2.263 l -0.09,-0.055 a 7.075,7.075 0 0 1 -0.149,-0.09 C 17.754,15.578 17.061,14.566 16.817,13.26 A 4.518,4.518 0 0 1 20.2,8.041 c 0.82,-0.198 1.63,-0.17 2.437,0.083 0.619,0.195 1.245,0.45 2.008,0.807 0.44,0.207 0.884,0.437 1.356,0.704 a 20.113,20.113 0 0 1 -0.452,4.148 20.147,20.147 0 0 1 -2.79,6.731 z m -3.037,3.673 A 20.522,20.522 0 0 1 16.001,27 15.74,15.74 0 0 1 14.984,26.361 20.375,20.375 0 0 1 7.696,17.639 a 5.882,5.882 0 0 0 2.42,0.785 6.027,6.027 0 0 0 3.614,-0.773 4.618,4.618 0 0 1 1.706,-0.569 4.52,4.52 0 0 1 4.902,3.206 c 0.335,1.121 0.237,2.222 -0.283,3.307 -0.044,0.092 -0.082,0.166 -0.172,0.343 l -0.044,0.087 a 0.581,0.581 0 0 1 -0.118,0.162 z"
       id="path5308" />
  </g>
</svg>
