<svg width="512" height="512" viewBox="0 0 512 512" fill="none" xmlns="http://www.w3.org/2000/svg">
<path d="M256 0V512C114.615 512 0 397.385 0 256C0 114.615 114.615 0 256 0Z" fill="#365558"/>
<path d="M256 512V0C397.385 0 512 114.615 512 256C512 397.385 397.385 512 256 512Z" fill="#02A6C2"/>
<path d="M343.569 104L256.137 154.745L343.569 205.425V104Z" fill="#9BAAAB"/>
<path d="M343.566 104L427.752 152.753C428.811 153.329 429.696 154.18 430.315 155.216C430.934 156.253 431.264 157.438 431.27 158.647V357.595L343.566 306.898V104Z" fill="white"/>
<path d="M256.216 154.811C323.115 193.723 343.743 205.277 343.743 205.277V307.241L256.137 254.371L256.216 154.811Z" fill="white"/>
<path d="M431.096 357.595L346.91 406.301C345.879 406.863 344.725 407.157 343.552 407.157C342.379 407.157 341.224 406.863 340.193 406.301L256.137 355.991V254.371L431.096 357.595Z" fill="#E6EAEA"/>
<path d="M81 153.642V352.557C81.0038 353.769 81.3327 354.957 81.9521 355.997C82.5715 357.037 83.4585 357.89 84.52 358.467L168.76 407.22L168.567 204.248L81 153.642Z" fill="#CDD4D5"/>
<path d="M168.617 407.204L256.136 355.991L168.617 305.795V407.204Z" fill="#9BAAAB"/>
<path d="M171.816 104.905L256.135 154.468V254.371L168.567 204.248L81 153.626L165.24 104.905C166.261 104.313 167.42 104.001 168.6 104.001C169.779 104.001 170.938 104.313 171.96 104.905" fill="#9BAAAB"/>
<path d="M256.133 254.37V355.991L168.438 305.795L168.566 204.247L256.133 254.37Z" fill="#CDD4D5"/>
</svg>
