<?xml version="1.0" encoding="UTF-8" standalone="no"?>
<svg
   width="512"
   height="512"
   viewBox="0 0 512 512"
   version="1.1"
   id="svg5748"
   xmlns="http://www.w3.org/2000/svg"
   xmlns:svg="http://www.w3.org/2000/svg">
  <defs
     id="defs5752" />
  <g
     fill="none"
     id="g5746"
     transform="scale(16)">
    <circle
       fill="#23336f"
       cx="16"
       cy="16"
       r="16"
       id="circle5742" />
    <path
       d="m 16.485,19.46 c 0,0 2.913,0.717 5.22,-1.096 2.307,-1.812 2.235,-4.545 2.235,-4.545 0,0 -2.61,-0.813 -4.982,0.916 -2.371,1.728 -2.473,4.725 -2.473,4.725 z m -0.009,1.367 c 0,0 0.476,2.05 2.341,2.92 1.865,0.87 3.554,-0.041 3.554,-0.041 0,0 -0.317,-1.892 -2.153,-2.83 -1.836,-0.936 -3.742,-0.049 -3.742,-0.049 z m 4.389,-0.887 c 0,0 1.007,1.119 2.476,1.018 1.47,-0.102 2.21,-1.257 2.21,-1.257 0,0 -0.854,-1.074 -2.325,-1.026 -1.47,0.049 -2.361,1.265 -2.361,1.265 z m -1.473,-7.067 c 0,0 -1.552,-2.566 -4.466,-2.916 -2.913,-0.35 -4.794,1.634 -4.794,1.634 0,0 1.271,2.42 4.17,2.875 2.899,0.455 5.09,-1.593 5.09,-1.593 z m 0.973,-0.96 c 0,0 1.114,-1.785 0.41,-3.72 C 20.07,6.26 18.23,5.71 18.23,5.71 c 0,0 -1.11,1.563 -0.475,3.522 0.634,1.96 2.609,2.682 2.609,2.682 z m -3.73,-2.475 c 0,0 0.079,-1.504 -1.032,-2.472 C 14.492,6 13.15,6.292 13.15,6.292 c 0,0 -0.155,1.364 0.92,2.37 1.076,1.008 2.564,0.776 2.564,0.776 z M 14.022,16.4 c 0,0 -2.568,1.552 -2.917,4.466 -0.35,2.913 1.633,4.794 1.633,4.794 0,0 2.42,-1.269 2.875,-4.17 0.455,-2.901 -1.591,-5.09 -1.591,-5.09 z M 13.06,15.426 c 0,0 -1.787,-1.114 -3.72,-0.41 -1.933,0.705 -2.484,2.543 -2.484,2.543 0,0 1.564,1.11 3.522,0.476 1.96,-0.634 2.682,-2.61 2.682,-2.61 z m -2.474,3.731 c 0,0 -1.504,-0.08 -2.47,1.031 -0.968,1.112 -0.677,2.453 -0.677,2.453 0,0 1.364,0.155 2.371,-0.92 1.007,-1.076 0.776,-2.564 0.776,-2.564 z"
       fill="#ffffff"
       id="path5744" />
  </g>
</svg>
