<svg width="512" height="512" viewBox="0 0 512 512" fill="none" xmlns="http://www.w3.org/2000/svg">
<g clip-path="url(#clip0_20_16)">
<path fill-rule="evenodd" clip-rule="evenodd" d="M256 96.1698V46.2128C271.561 69.3689 270.179 95.676 270.179 95.676H270.153C270.153 95.676 264.513 96.5554 256 96.1698ZM256 224.4V116.069C311.531 135.727 340.935 183.832 340.935 183.832C340.935 183.832 306.559 215.965 256 224.4ZM400.296 324.754C341.089 371.283 266.33 352.882 266.33 352.882C266.33 352.882 268.947 275.967 329.797 231.619C390.672 187.246 457.656 208.111 457.656 208.111C457.656 208.111 459.504 278.251 400.296 324.754ZM326.178 462.904C278.315 440.577 266.099 387.965 266.099 387.965C266.099 387.965 315.014 365.201 362.134 389.223C409.253 413.296 417.389 461.852 417.389 461.852C417.389 461.852 374.042 485.232 326.178 462.904ZM442.283 391.327C404.582 393.919 378.739 365.201 378.739 365.201C378.739 365.201 401.605 333.993 439.332 332.736C477.084 331.504 499.001 359.067 499.001 359.067C499.001 359.067 480.009 388.709 442.283 391.327ZM376.429 63.7241C394.496 113.384 365.906 159.195 365.906 159.195L365.881 159.22C365.881 159.22 315.194 140.691 298.923 90.3892C282.626 40.1131 311.113 0 311.113 0C311.113 0 358.336 14.1153 376.429 63.7241Z" fill="#E6EAEA"/>
<path fill-rule="evenodd" clip-rule="evenodd" d="M256 46.0007C252.765 41.2593 248.813 36.6581 243.984 32.4513C215.472 7.65974 181.03 15.1537 181.03 15.1537C181.03 15.1537 177.052 50.1596 204.641 75.9777C221.523 91.7923 242.356 95.714 256 96.3734V46.0007ZM256 116.01C246.9 112.851 237.099 110.473 226.61 109.213C151.85 100.23 103.576 151.148 103.576 151.148C103.576 151.148 136.195 213.255 210.595 224.933C226.712 227.33 241.976 226.77 256 224.423V116.01ZM128.547 389.183C137.504 314.398 203.409 274.567 203.409 274.567C203.409 274.567 255.918 330.746 244.241 405.198C232.564 479.649 170.457 512.217 170.457 512.217C170.457 512.217 119.565 463.943 128.547 389.183ZM178.713 249.565C178.718 249.568 178.72 249.57 178.72 249.57V249.544C178.72 249.544 178.718 249.551 178.713 249.565ZM178.713 249.565C178.034 249.145 132.488 221.115 83.2498 239.048C33.641 257.141 19.5 304.312 19.5 304.312C19.5 304.312 59.6388 332.799 109.889 316.528C159.6 300.448 178.281 250.731 178.713 249.565ZM51.8368 371.783C76.6284 343.27 115.227 345.323 115.227 345.323C115.227 345.323 121.156 383.511 95.3119 411.126C69.4681 438.715 34.4622 434.737 34.4622 434.737C34.4622 434.737 26.9939 400.321 51.8368 371.783Z" fill="#CDD4D5"/>
</g>
<defs>
<clipPath id="clip0_20_16">
<rect width="512" height="512" fill="white"/>
</clipPath>
</defs>
</svg>
