<svg width="512" height="512" viewBox="0 0 512 512" fill="none" xmlns="http://www.w3.org/2000/svg">
<g clip-path="url(#clip0_115_727)">
<path d="M254 4V516C112.615 516 -2 401.385 -2 260C-2 118.615 112.615 4 254 4Z" fill="#365558"/>
<path d="M254 516V4C395.385 4 510 118.615 510 260C510 401.385 395.385 516 254 516Z" fill="#0295AA"/>
<path fill-rule="evenodd" clip-rule="evenodd" d="M253.535 155.93V124.795C263.245 139.226 262.383 155.623 262.383 155.623H262.367C262.367 155.623 258.847 156.171 253.535 155.93ZM253.535 235.841V168.33C288.178 180.58 306.522 210.559 306.522 210.559C306.522 210.559 285.076 230.585 253.535 235.841ZM343.552 298.378C306.618 327.374 259.982 315.907 259.982 315.907C259.982 315.907 261.615 267.975 299.574 240.339C337.549 212.687 379.334 225.689 379.334 225.689C379.334 225.689 380.487 269.398 343.552 298.378ZM297.316 384.47C267.458 370.556 259.838 337.769 259.838 337.769C259.838 337.769 290.352 323.583 319.746 338.553C349.14 353.555 354.215 383.814 354.215 383.814C354.215 383.814 327.174 398.384 297.316 384.47ZM369.744 339.865C346.226 341.48 330.104 323.583 330.104 323.583C330.104 323.583 344.369 304.136 367.903 303.352C391.453 302.584 405.126 319.761 405.126 319.761C405.126 319.761 393.278 338.233 369.744 339.865ZM328.663 135.711C339.934 166.658 322.099 195.206 322.099 195.206L322.083 195.222C322.083 195.222 290.464 183.675 280.314 152.328C270.148 120.997 287.919 96 287.919 96C287.919 96 317.376 104.796 328.663 135.711Z" fill="white"/>
<path fill-rule="evenodd" clip-rule="evenodd" d="M253.531 124.665C251.513 121.71 249.048 118.844 246.037 116.223C228.25 100.773 206.765 105.443 206.765 105.443C206.765 105.443 204.284 127.258 221.494 143.347C232.024 153.202 245.02 155.646 253.531 156.057V124.665ZM253.531 168.294C247.855 166.325 241.741 164.843 235.198 164.058C188.562 158.461 158.448 190.191 158.448 190.191C158.448 190.191 178.796 228.895 225.208 236.172C235.262 237.666 244.783 237.317 253.531 235.854V168.294ZM174.025 338.528C179.613 291.924 220.726 267.103 220.726 267.103C220.726 267.103 253.481 302.112 246.197 348.508C238.913 394.904 200.169 415.2 200.169 415.2C200.169 415.2 168.422 385.117 174.025 338.528ZM205.319 251.522C205.323 251.524 205.324 251.525 205.324 251.525V251.509C205.324 251.509 205.323 251.514 205.319 251.522ZM205.319 251.522C204.894 251.259 176.483 233.793 145.768 244.968C114.821 256.243 106 285.639 106 285.639C106 285.639 131.039 303.391 162.386 293.252C193.396 283.231 205.05 252.249 205.319 251.522ZM126.172 327.685C141.638 309.917 165.716 311.196 165.716 311.196C165.716 311.196 169.414 334.994 153.293 352.203C137.171 369.395 115.334 366.916 115.334 366.916C115.334 366.916 110.675 345.469 126.172 327.685Z" fill="#E6EAEA"/>
</g>
<defs>
<clipPath id="clip0_115_727">
<rect width="512" height="512" fill="white"/>
</clipPath>
</defs>
</svg>
