<svg width="512" height="512" viewBox="0 0 512 512" fill="none" xmlns="http://www.w3.org/2000/svg">
<g clip-path="url(#clip0_1_524)">
<path fill-rule="evenodd" clip-rule="evenodd" d="M256.004 511.997C260.063 512.003 264.014 510.652 267.222 508.151L469.015 358.232C471.573 356.466 473.649 354.089 475.055 351.317C476.461 348.546 477.153 345.467 477.067 342.36V169.587C477.3 163.676 474.391 157.858 469.736 154.367L267.222 3.9124C265.194 2.29442 262.839 1.13601 260.32 0.517227C258.903 0.169348 257.454 -0.0033097 256.004 4.80409e-05V36.7041C261.089 36.6926 266.174 36.709 271.248 36.8426L272.97 38.1691L276.088 41.2643C276.042 52.4117 276.042 63.5591 276.088 74.7064C275.37 74.717 274.651 74.7336 273.931 74.7501C271.479 74.8065 269.022 74.8631 266.593 74.6832L265.825 71.5647C265.825 68.7565 265.907 65.9483 265.989 63.1409C266.151 57.6195 266.312 52.1014 265.849 46.5936H256.004V85.7973C258.373 89.9818 260.701 94.1883 262.451 98.7001C260.307 98.7988 258.155 98.8377 256.004 98.853V130.188C256.609 130.194 257.215 130.201 257.82 130.211C257.907 138.202 257.894 146.2 257.881 154.201C257.87 161.135 257.859 168.073 257.913 175.01C257.273 175.621 256.636 176.237 256.004 176.856V202.158C259.045 202.112 262.087 202.139 265.127 202.238V212.524C262.074 212.603 259.038 212.615 256.004 212.589V226.046H271.271C276.135 225.278 280.952 230.374 280.324 235.238V265.073L275.204 270.658H275.196C270.8 270.658 266.404 270.658 261.986 270.612V260.372L270.27 260.279V236.797C265.528 236.361 260.769 236.217 256.004 236.192V321.633C259.922 319.067 263.862 316.541 267.8 314.015C274.141 309.948 280.48 305.882 286.724 301.657L286.747 301.634C287.333 302.048 287.919 302.463 288.504 302.878C290.846 304.539 293.189 306.199 295.591 307.801C290.561 311.395 285.347 314.717 280.132 318.039C276.467 320.373 272.802 322.708 269.2 325.139C276.243 325.264 283.287 325.248 290.323 325.231C296.352 325.217 302.376 325.203 308.39 325.278C308.485 328.939 308.485 332.602 308.39 336.263C294.855 336.343 281.309 336.323 267.768 336.304C263.846 336.298 259.925 336.292 256.004 336.289V354.363C259.324 354.328 262.64 354.114 265.919 353.67C266.718 355.008 267.544 356.344 268.373 357.686C271.987 363.532 275.663 369.48 277.462 376.105L267.222 376.175C263.522 369.459 259.783 362.763 256.004 356.123V398.751C258.278 398.747 260.551 398.74 262.823 398.725C264.504 400.442 266.18 402.165 267.85 403.892C267.815 412.446 267.82 421.001 267.824 429.555C267.825 432.404 267.827 435.253 267.827 438.102C267.542 438.409 267.257 438.716 266.972 439.022C265.793 440.292 264.619 441.556 263.475 442.849C260.985 442.899 258.494 442.928 256.004 442.925V466.272C257.519 466.356 259.032 466.468 260.543 466.61V490.441C259.03 490.471 257.517 490.484 256.004 490.485V511.997ZM256.004 432.939C256.599 432.94 257.197 432.941 257.797 432.935V408.988C257.199 408.985 256.601 408.983 256.004 408.981V432.939ZM273.947 466.564C273.836 463.012 273.813 459.458 273.878 455.905C277.293 455.854 280.708 455.932 284.117 456.138C284.187 459.629 284.164 463.096 283.722 466.564H273.947ZM337.693 410.037C338.697 410.856 339.68 411.658 340.646 412.13V413.363C337.67 415.318 334.669 417.234 331.669 419.151C325.916 422.825 320.163 426.499 314.581 430.445L319.514 430.399C322.137 430.4 324.759 430.431 327.38 430.492C327.404 433.983 327.404 437.474 327.357 440.964C316.675 441.127 305.993 441.081 295.288 440.988C295.079 438.034 295.039 435.061 294.999 432.086C294.995 431.757 294.99 431.427 294.985 431.097C301.664 426.473 308.508 422.095 315.353 417.717C320.22 414.604 325.087 411.491 329.894 408.29C332.653 405.928 335.236 408.034 337.693 410.037ZM353.321 380.317C353.298 375.228 353.275 370.139 353.399 365.05C355.584 368.389 357.725 371.76 359.867 375.134C363.086 380.204 366.308 385.28 369.689 390.254C370.861 389.73 371.559 388.627 372.249 387.539C372.477 387.178 372.704 386.82 372.947 386.484C375.156 382.867 377.45 379.305 379.745 375.742C381.924 372.358 384.104 368.974 386.213 365.539C386.352 370.775 386.422 376.012 386.306 381.248C386.394 382.737 385.592 383.983 384.814 385.191C384.57 385.569 384.329 385.944 384.118 386.321C381.283 390.594 378.506 394.924 375.733 399.248C373.839 402.202 371.946 405.153 370.038 408.081C366.543 402.788 363.119 397.45 359.695 392.112C357.578 388.813 355.462 385.514 353.329 382.225C353.326 381.589 353.323 380.953 353.321 380.317ZM313.463 352.183C315.643 352.186 317.823 352.189 320.003 352.181L332.035 395.048C328.684 395.048 325.286 395.048 321.935 394.978C320.279 388.654 318.539 382.36 316.798 376.065C315.528 371.475 314.258 366.884 313.021 362.281L307.529 362.002L298.5 395.072L288.399 395.002C292.55 380.798 296.538 366.546 300.361 352.251C304.737 352.173 309.101 352.178 313.463 352.183ZM399.245 369.053C399.175 365.609 399.175 362.165 399.245 358.72C402.812 358.609 406.382 358.594 409.95 358.674V369.123C406.39 369.216 402.806 369.216 399.245 369.053ZM317.42 304.38L322.633 299.493V299.469C329.712 299.529 336.79 299.522 343.869 299.515C347.914 299.511 351.96 299.507 356.005 299.516L361.055 304.403V337.985C357.658 338.008 354.283 337.985 350.909 337.892C350.904 336.013 350.897 334.134 350.891 332.254C350.865 324.731 350.839 317.204 350.932 309.663L327.567 309.639C327.59 312.525 327.567 315.388 327.497 318.25C324.169 318.297 320.818 318.297 317.49 318.297C317.412 314.438 317.415 310.579 317.419 306.706C317.419 305.931 317.42 305.156 317.42 304.38ZM423.269 301.843C424.213 301.238 425.157 300.633 426.101 300.028C428.835 301.879 431.549 303.85 434.225 305.793L434.875 306.265L408.042 323.649C415.151 323.725 422.266 323.712 429.385 323.699C435.41 323.687 441.438 323.676 447.465 323.719C447.512 327.256 447.512 330.84 447.465 334.378C427.94 334.447 408.414 334.447 388.866 334.378C388.819 330.957 388.819 327.536 388.866 324.138C400.265 316.589 411.763 309.218 423.269 301.843ZM376.477 275.103C379.324 275.022 382.175 274.941 384.979 275.383C385.235 284.984 385.175 294.599 385.115 304.207C385.099 306.825 385.082 309.443 385.072 312.06C381.605 312.153 378.137 312.129 374.67 312.06C374.556 299.757 374.556 287.453 374.67 275.15C375.271 275.138 375.874 275.121 376.477 275.103ZM421.237 242.127C432.562 241.944 443.89 241.96 455.215 242.173C458.077 243.942 461.289 246.874 460.684 250.691C460.684 253.421 460.676 256.153 460.668 258.886C460.653 264.355 460.637 269.827 460.684 275.29C460.625 277.255 460.643 279.221 460.66 281.19C460.678 283.16 460.695 285.133 460.637 287.112C460.731 288.736 460.558 290.347 460.384 291.959C460.214 293.536 460.045 295.112 460.125 296.7L450.467 296.677L450.49 252.273C445.621 252.144 440.752 252.157 435.883 252.169C432.839 252.176 429.796 252.184 426.753 252.157L426.683 260.419C423.355 260.465 420.027 260.488 416.699 260.465C416.653 255.95 416.653 251.389 416.653 246.874L421.237 242.127ZM279.765 282.364L280.703 282.36C283.75 282.348 286.796 282.357 289.842 282.388C289.889 285.878 289.889 289.416 289.842 292.953C286.491 293 283.14 293 279.765 292.953V282.364ZM331.686 284.11C331.616 280.619 331.616 277.128 331.732 273.637C336.13 273.58 340.524 273.562 344.917 273.56C348.128 273.559 351.339 273.567 354.551 273.575C357.594 273.583 360.639 273.591 363.685 273.591C364.185 276.761 364.318 279.978 364.081 283.179C363.32 284.718 361.8 284.664 360.325 284.61C359.815 284.592 359.31 284.574 358.844 284.622C355.494 284.518 352.137 284.565 348.781 284.611C343.069 284.69 337.359 284.769 331.686 284.11ZM298.43 283.761C298.383 280.247 298.383 276.709 298.43 273.172C301.858 273.14 305.287 273.14 308.716 273.172C308.78 276.709 308.78 280.247 308.716 283.784C305.272 283.807 301.851 283.784 298.43 283.761ZM306.691 209.01C306.146 209.73 305.454 210.397 304.756 211.07C303.038 212.724 301.287 214.412 301.618 216.993C301.572 226.604 301.572 236.216 301.618 245.85C301.303 248.406 303.036 250.098 304.731 251.754C305.412 252.419 306.088 253.079 306.622 253.786C312.895 253.766 319.169 253.772 325.441 253.777C333.803 253.785 342.162 253.793 350.513 253.739C350.606 250.342 350.606 246.921 350.583 243.5C343.486 243.424 336.397 243.43 329.311 243.437C323.406 243.443 317.504 243.449 311.602 243.407V219.32L319.98 219.25C320.04 215.86 320.025 212.469 319.933 209.08C316.985 209.018 314.037 209.018 311.09 209.018C309.623 209.018 308.157 209.018 306.691 209.01ZM385.119 213.781L385.129 213.781C395.93 213.632 406.732 213.66 417.533 213.688C421.855 213.7 426.177 213.711 430.5 213.711C430.523 217.272 430.523 220.833 430.476 224.37C426.154 224.37 421.832 224.381 417.511 224.393C406.706 224.421 395.9 224.45 385.095 224.3C385.072 220.809 385.049 217.272 385.095 213.781H385.119ZM350.885 224.254C350.839 220.763 350.839 217.272 350.885 213.781C354.468 213.647 358.054 213.647 361.637 213.781C361.707 217.272 361.684 220.763 361.637 224.254C358.053 224.393 354.469 224.393 350.885 224.254ZM279.765 170.984H284.816L284.651 170.984C283.023 170.985 281.394 170.992 279.765 171.007V170.984ZM279.765 204.728V171.007L284.651 170.984C286.389 170.984 288.128 170.991 289.866 171.007C289.912 178.5 289.897 185.994 289.881 193.488C289.873 197.235 289.866 200.981 289.866 204.728H279.765ZM412.586 190.373C410.983 190.378 409.382 190.394 407.786 190.416L412.586 190.373ZM407.786 190.439L412.768 190.373C414.588 190.368 416.412 190.379 418.235 190.416C418.322 193.945 418.314 197.476 418.212 201.005C414.768 201.098 411.277 201.098 407.786 201.005C407.739 197.491 407.716 193.953 407.786 190.439ZM364.628 148.772C369.1 148.529 373.577 148.284 378.021 149.015L390.169 191.673H380.115C378.691 186.777 377.356 181.85 376.019 176.919C374.363 170.808 372.705 164.692 370.876 158.626L365.337 158.696C363.828 164.823 362.14 170.9 360.452 176.979C359.094 181.867 357.736 186.756 356.471 191.673C353.097 191.696 349.724 191.673 346.351 191.649L346.347 191.649C349.609 180.507 352.727 169.307 355.848 158.095C356.69 155.069 357.533 152.042 358.379 149.015C360.459 149 362.543 148.886 364.628 148.772ZM315.209 184.668C315.166 181.146 315.166 177.624 315.209 174.102C318.607 174.047 322.005 174.063 325.402 174.149C325.426 177.663 325.426 181.177 325.379 184.668H315.209ZM432.478 162.233C436.333 162.163 440.212 162.163 444.091 162.163C445.288 164.42 446.564 166.638 447.84 168.856C450.658 173.753 453.477 178.652 455.447 183.969C451.933 184.109 448.373 184.109 444.858 184.109L432.478 162.233ZM407.786 174.335C407.683 163.063 407.683 151.791 407.786 140.52C409.305 140.484 410.824 140.463 412.344 140.459C414.292 140.453 416.241 140.474 418.189 140.52C418.305 151.784 418.305 163.071 418.189 174.335C414.721 174.405 411.253 174.381 407.786 174.335ZM278.928 149.453C278.881 129.579 278.835 109.706 278.951 89.8334C282.302 89.7613 285.653 89.7536 289.005 89.8101C292.935 96.0286 296.822 102.273 300.709 108.518C305.797 116.692 310.885 124.866 316.07 132.98C316.07 133.701 316.071 134.422 316.071 135.144C316.075 138.758 316.078 142.385 316 146.012L312.091 145.314C307.909 138.98 303.903 132.524 299.898 126.07C296.458 120.527 293.019 114.984 289.47 109.522L289.4 149.457C285.909 149.527 282.419 149.527 278.928 149.457L278.928 149.453ZM343.663 116.883L360.215 116.852C360.216 116.852 360.216 116.852 360.216 116.852L335.386 116.922C338.145 116.907 340.904 116.894 343.663 116.883ZM360.216 116.852C368.492 116.852 376.765 116.876 385.026 116.922V127.162L385.008 127.162C368.467 127.185 351.95 127.208 335.386 127.162V116.922V116.899L343.663 116.883C349.18 116.863 354.699 116.852 360.215 116.852L360.217 116.852L360.216 116.852ZM320.469 108.195L320.445 97.9088C321.862 97.8762 323.278 97.8577 324.695 97.8534C326.847 97.8469 328.999 97.8731 331.15 97.9321V108.172C327.59 108.265 324.029 108.265 320.469 108.195ZM297.569 82.363C297.522 78.8256 297.522 75.265 297.569 71.7276C307.133 71.6238 316.699 71.616 326.263 71.7043C326.307 75.2571 326.307 78.8102 326.263 82.363C316.698 82.4793 307.134 82.5259 297.569 82.363Z" fill="white"/>
<path fill-rule="evenodd" clip-rule="evenodd" d="M255.979 0.00390625C254.85 0.00649977 253.72 0.115852 252.605 0.332337C249.487 1.04544 246.573 2.4624 244.087 4.47479L42.9922 153.882C40.4723 155.676 38.4224 158.051 37.0165 160.806C35.6106 163.561 34.8903 166.615 34.9167 169.707V342.387C34.8982 345.486 35.6292 348.544 37.0475 351.299C38.4658 354.055 40.5292 356.426 43.062 358.212C95.7855 397.352 148.495 436.521 201.212 475.696C215.511 486.321 229.81 496.947 244.111 507.573C247.297 510.326 251.34 511.889 255.549 511.995C255.693 511.999 255.836 512.001 255.979 512.001V490.489C254.001 490.49 252.023 490.471 250.045 490.445L249.998 474.224C250.022 471.525 250.068 468.802 250.185 466.102C252.117 466.112 254.049 466.17 255.979 466.276V442.929C253.768 442.925 251.558 442.896 249.347 442.83C249.36 441.939 249.339 441.045 249.318 440.151C249.264 437.797 249.209 435.442 249.766 433.149C251.786 432.936 253.807 432.939 255.849 432.943C255.892 432.943 255.936 432.943 255.979 432.943V408.984C251.878 408.971 247.777 408.983 243.677 408.995C235.369 409.021 227.063 409.046 218.767 408.853C218.721 405.517 218.721 402.181 218.767 398.846C227.376 398.723 235.984 398.736 244.588 398.749C248.386 398.755 252.183 398.761 255.979 398.755V356.127C255.646 355.542 255.312 354.957 254.979 354.372C255.312 354.372 255.646 354.371 255.979 354.367V336.293C253.884 336.291 251.79 336.29 249.696 336.29C249.249 333.228 249.211 330.147 249.172 327.047C249.168 326.754 249.165 326.46 249.161 326.166C251.423 324.638 253.698 323.131 255.979 321.637V236.196C252.699 236.179 249.415 236.218 246.132 236.257C241.196 236.316 236.26 236.375 231.334 236.243C231.3 232.845 231.3 229.447 231.334 226.049H255.979V212.593C255.405 212.588 254.831 212.582 254.257 212.575V202.195C254.831 202.182 255.405 202.17 255.979 202.162V176.86C255.071 177.749 254.171 178.646 253.28 179.552C246.905 179.616 240.538 179.609 234.174 179.602C229.083 179.596 223.995 179.59 218.907 179.621C218.51 179.231 218.11 178.846 217.711 178.463C216.59 177.386 215.481 176.32 214.485 175.153C214.075 171.92 214.162 168.653 214.249 165.391C214.286 164.027 214.322 162.665 214.322 161.306H223.91C223.989 163.943 224.004 166.581 223.957 169.219C229.088 169.809 234.239 169.74 239.396 169.67C242.169 169.633 244.943 169.596 247.718 169.661C247.725 165.287 247.718 160.907 247.71 156.526C247.694 147.761 247.679 138.989 247.788 130.238L252.165 130.177C253.436 130.174 254.708 130.179 255.979 130.192V98.8569C254.581 98.8668 253.184 98.8668 251.79 98.8668C247.578 91.6525 243.529 84.345 239.526 76.991C243.388 76.9212 247.25 76.9212 251.112 76.9212H251.115C252.469 79.6104 253.954 82.2304 255.44 84.8505C255.62 85.1676 255.799 85.4846 255.979 85.8017V46.5975H242.412L242.342 54.9755H232.428C232.435 53.5966 232.396 52.211 232.356 50.8243C232.268 47.7174 232.18 44.6046 232.614 41.5474C232.926 41.1903 233.239 40.7963 233.561 40.3917C235.064 38.5028 236.748 36.385 239.316 36.7301H239.34C243.281 36.756 247.228 36.7402 251.177 36.7244C252.778 36.718 254.378 36.7116 255.979 36.708V0.00390625ZM251.732 130.178C250.417 130.182 249.102 130.194 247.788 130.214L251.732 130.178ZM204.524 444.762L210.389 444.738L209.957 444.742C208.15 444.744 206.344 444.758 204.538 444.785C204.533 444.777 204.529 444.769 204.524 444.762ZM204.538 444.785C206.221 447.732 207.871 450.697 209.521 453.662C211.97 458.065 214.419 462.466 216.975 466.8C220.466 466.8 223.957 466.8 227.494 466.568C225.748 461.736 223.21 457.296 220.671 452.855C219.15 450.194 217.629 447.532 216.277 444.785C214.17 444.754 212.064 444.739 209.957 444.742L204.538 444.785ZM204.538 444.785C204.533 444.785 204.529 444.785 204.524 444.785L204.538 444.785ZM167.545 428.494C167.475 424.957 167.475 421.466 167.545 417.975C181.415 417.905 195.309 417.836 209.202 417.999V428.448C195.309 428.634 181.415 428.564 167.545 428.494ZM148.252 413.158C148.183 409.644 148.206 406.13 148.252 402.639C149.904 402.618 151.556 402.61 153.208 402.616C154.993 402.623 156.777 402.646 158.562 402.685C158.608 406.176 158.608 409.667 158.562 413.158C155.118 413.204 151.673 413.204 148.252 413.158ZM107.154 386.674V376.341C109.744 376.256 112.336 376.207 114.929 376.183C119.661 376.139 124.397 376.175 129.135 376.211C130.969 376.225 132.804 376.239 134.638 376.248C134.65 376.861 134.667 377.474 134.684 378.087C134.762 380.94 134.839 383.788 134.475 386.604C126.198 387.028 117.902 386.873 109.622 386.719C108.799 386.704 107.976 386.689 107.154 386.674ZM156.303 373.19C167.348 365.958 178.395 358.724 189.607 351.766C190.577 352.456 191.549 353.141 192.521 353.827C194.466 355.197 196.41 356.568 198.334 357.98C194.767 360.235 191.232 362.535 187.699 364.833C182.265 368.368 176.834 371.9 171.292 375.271C178.374 375.408 185.45 375.391 192.529 375.375C198.687 375.361 204.847 375.347 211.017 375.434C211.087 378.971 211.087 382.508 210.994 386.046C209.592 386.051 208.19 386.056 206.788 386.061C188.572 386.127 170.355 386.194 152.139 385.999C152.046 382.648 152.046 379.297 152.092 375.946C153.496 375.027 154.899 374.109 156.303 373.19ZM228.554 366.451C228.543 358.971 228.531 351.49 228.611 344.016C232.079 343.978 235.546 343.978 239.014 344.016C239.064 351.016 239.06 358.017 239.057 365.017C239.054 371.142 239.051 377.267 239.084 383.393L239.082 383.393C236.616 383.509 234.149 383.626 231.683 383.858L228.541 383.276C228.571 377.671 228.563 372.062 228.554 366.451ZM145.675 329.025C148.246 324.967 150.819 320.905 153.512 316.927C153.583 320.436 153.585 323.945 153.586 327.453C153.586 329.646 153.587 331.839 153.605 334.032C151.133 337.704 148.754 341.437 146.375 345.169C143.266 350.047 140.158 354.922 136.849 359.655C135.247 357.169 133.659 354.671 132.071 352.171C128.305 346.247 124.536 340.315 120.558 334.521C120.477 328.726 120.5 322.931 120.628 317.137L120.637 317.151C126.08 325.594 131.523 334.037 136.896 342.503C139.929 338.094 142.801 333.561 145.675 329.025ZM180.205 338.803C180.065 335.196 180.042 331.589 180.275 327.982C183.69 327.908 187.107 327.994 190.515 328.238C190.594 331.759 190.594 335.282 190.515 338.803C187.094 338.827 183.649 338.85 180.205 338.803ZM55.4661 292.817H62.0288L61.5313 292.819C59.5096 292.814 57.4878 292.821 55.4661 292.841L61.5313 292.819C63.8771 292.825 66.2228 292.848 68.5683 292.887C68.6138 296.246 68.6216 299.605 68.5916 302.964L60.4463 303.08C60.4789 306.816 60.476 310.547 60.4731 314.278C60.4698 318.541 60.4665 322.804 60.5161 327.074C65.5216 327.092 70.5271 327.086 75.5312 327.079C83.3931 327.069 91.2516 327.059 99.1014 327.144C99.1713 330.448 99.1712 333.753 99.148 337.058L94.3539 337.081H89.5831C84.8214 337.023 80.0597 337.046 75.2996 337.068C68.637 337.1 61.9778 337.132 55.3264 336.941C53.4181 335.824 51.4865 334.032 50.6255 331.961L50.4858 320.558L50.5324 297.728L55.4661 292.817ZM191.705 253.896L194.517 253.883L189.351 253.93C190.136 253.915 190.92 253.904 191.705 253.896ZM189.351 253.906L191.705 253.896C194.349 253.869 196.993 253.88 199.637 253.93C205.37 263.313 211.22 272.614 217.07 281.917C219.461 285.719 221.853 289.521 224.236 293.329C226.657 296.494 226.453 300.391 226.25 304.265C226.154 306.089 226.059 307.908 226.237 309.643L222.677 309.713C220.117 305.575 217.515 301.461 214.913 297.349C209.995 289.575 205.079 281.804 200.452 273.874C199.667 281.954 199.757 290.086 199.848 298.229C199.905 303.36 199.962 308.495 199.8 313.623C196.333 313.646 192.842 313.646 189.351 313.553C189.281 293.678 189.281 273.804 189.351 253.906ZM140.844 289.254C145.344 289.313 149.842 289.373 154.326 289.233C157.435 289.191 160.543 289.331 163.635 289.652V300.311C157.406 300.292 151.188 300.3 144.973 300.309C136.098 300.321 127.231 300.333 118.348 300.264C118.278 296.797 118.278 293.353 118.301 289.885C125.787 289.055 133.319 289.154 140.844 289.254ZM235.104 261.563L240.34 261.493L235.104 261.54C238.595 261.47 242.086 261.47 245.577 261.54C245.623 270.212 245.6 278.885 245.577 287.581L245.577 287.604C242.063 287.651 238.572 287.651 235.081 287.558C235.034 278.901 235.011 270.22 235.104 261.563ZM98.7058 242.549H109.225H109.248V276.248H98.6825L98.7058 242.549ZM137.524 229.214L147.275 229.168L138.259 229.232C144.527 229.188 150.755 229.148 157.026 229.238C158.345 234.001 159.689 238.756 161.034 243.512C163.723 253.022 166.412 262.533 168.895 272.105L159.12 272.128C157.525 266.877 156.104 261.584 154.683 256.293C153.12 250.47 151.557 244.651 149.765 238.896L144.18 239.315C142.815 245.419 141.129 251.445 139.441 257.476C138.08 262.343 136.718 267.212 135.522 272.128L125.422 272.082C126.593 267.925 127.761 263.767 128.928 259.609C131.773 249.47 134.619 239.331 137.524 229.214ZM65.5895 262.214C65.5662 258.793 65.5662 255.372 65.6826 251.951C69.1367 251.894 72.5916 251.98 76.0387 252.207V262.214C72.5711 262.261 69.0803 262.284 65.5895 262.214ZM175.388 226.049H200.824C200.894 229.633 200.894 233.218 200.824 236.801H175.411C175.271 233.217 175.248 229.633 175.388 226.049ZM50.5324 202.521C50.4625 198.984 50.4625 195.423 50.5324 191.886H50.5091C67.8934 191.793 85.301 191.746 102.709 191.909L102.732 201.963C94.9823 207.152 87.2093 212.342 79.227 217.159C76.9076 216.296 74.973 214.673 73.053 213.063C72.1796 212.331 71.3091 211.601 70.4068 210.946C71.2942 210.38 72.1835 209.817 73.073 209.254C76.4991 207.085 79.9274 204.914 83.2531 202.568C78.7582 202.549 74.2634 202.557 69.7702 202.566C63.3527 202.578 56.9385 202.59 50.5324 202.521ZM139.057 189.626C142.285 187.518 145.513 185.408 148.695 183.229C151.464 183.275 154.221 183.275 156.979 183.275C159.737 183.275 162.495 183.275 165.264 183.322C160.987 186.433 156.557 189.322 152.127 192.21C148.073 194.854 144.02 197.497 140.084 200.31C144.848 203.36 149.569 206.491 154.286 209.62C157.956 212.054 161.625 214.487 165.311 216.88C160.894 216.971 156.478 216.963 152.062 216.955C150.8 216.952 149.538 216.95 148.276 216.95C144.927 214.638 141.527 212.4 138.126 210.161C133.208 206.923 128.288 203.684 123.514 200.217C128.558 196.485 133.807 193.056 139.057 189.626ZM199.288 202.149H221.862L215.551 202.142C216.583 202.141 217.615 202.14 218.647 202.138C227.248 202.127 235.846 202.116 244.436 202.195C244.809 205.686 244.762 209.177 244.297 212.668C233.038 212.703 221.805 212.698 210.569 212.694C206.825 212.693 203.081 212.691 199.335 212.691C199.288 209.154 199.288 205.64 199.288 202.149ZM168.732 154.86H173.782L171.799 154.869C170.775 154.871 169.752 154.876 168.732 154.883L171.799 154.869C174.138 154.864 176.485 154.874 178.832 154.906C178.902 161.05 178.893 167.206 178.884 173.366C178.881 175.42 178.879 177.474 178.879 179.528H168.639C168.634 177.799 168.625 176.07 168.616 174.341C168.582 167.854 168.548 161.364 168.732 154.86ZM78.4125 165.03C78.3659 161.492 78.3659 157.932 78.4125 154.441C85.3825 154.388 92.3527 154.359 99.3229 154.355C107.449 154.35 115.575 154.379 123.7 154.441C123.782 157.97 123.782 161.501 123.7 165.03C108.597 165.146 93.5161 165.123 78.4125 165.03ZM130.798 154.441H141.084H141.108C141.183 157.978 141.183 161.516 141.108 165.053C137.671 165.099 134.258 165.076 130.821 165.053L130.798 165.053V154.441ZM206.404 129.832C209.51 124.967 212.615 120.102 215.788 115.297C215.788 117.028 215.823 118.764 215.859 120.501C215.938 124.416 216.018 128.339 215.695 132.239C212.298 138.137 208.553 143.831 204.813 149.516C202.916 152.4 201.02 155.282 199.172 158.188L188.211 141.269C186.395 138.43 184.627 135.567 182.905 132.705C182.487 128.6 182.585 124.471 182.682 120.353C182.72 118.727 182.758 117.103 182.765 115.483C184.987 118.905 187.182 122.346 189.377 125.786C192.631 130.885 195.883 135.982 199.218 141.013C201.634 137.303 204.019 133.568 206.404 129.832ZM144.645 101.264C147.453 101.229 150.262 101.229 153.07 101.264C155.419 101.122 157.771 101.027 160.123 100.979C165.259 100.874 170.399 100.992 175.527 101.334C175.551 104.638 175.551 107.966 175.504 111.271C170.848 114.111 166.274 117.079 161.702 120.044C155.375 124.149 149.053 128.25 142.527 132.006C139.944 131.006 137.83 129.138 135.741 127.292C135.158 126.776 134.576 126.262 133.986 125.77C136.978 123.924 139.942 122.032 142.907 120.139C147.232 117.378 151.561 114.616 155.979 111.992C153.215 111.839 150.451 111.823 147.697 111.807C146.694 111.801 145.692 111.795 144.692 111.783C144.622 108.269 144.599 104.755 144.645 101.264ZM233.289 115.739C233.219 112.225 233.219 108.711 233.289 105.197C236.733 105.101 240.178 105.101 243.622 105.197C243.692 108.711 243.692 112.202 243.622 115.739C240.178 115.832 236.733 115.832 233.289 115.739ZM206.154 55.1616L211.09 55.0543C213.036 55.0409 214.983 55.0611 216.929 55.1151C216.933 56.5225 216.937 57.9296 216.942 59.3367C216.986 73.3551 217.03 87.356 216.882 101.357C213.461 101.427 210.04 101.427 206.619 101.427C205.871 91.5371 205.989 81.6089 206.106 71.6856C206.171 66.1736 206.237 60.6632 206.154 55.1616ZM206.13 55.1616L211.087 55.0544C209.434 55.0658 207.782 55.1016 206.13 55.1616Z" fill="#E6EAEA"/>
</g>
<defs>
<clipPath id="clip0_1_524">
<rect width="512" height="512" fill="white"/>
</clipPath>
</defs>
</svg>
