<?xml version="1.0" encoding="UTF-8" standalone="no"?>
<svg
   width="512"
   height="512"
   viewBox="0 0 512 512"
   version="1.1"
   id="svg5951"
   xmlns="http://www.w3.org/2000/svg"
   xmlns:svg="http://www.w3.org/2000/svg">
  <defs
     id="defs5955" />
  <g
     fill="none"
     id="g5949"
     transform="scale(16)">
    <circle
       fill="#050708"
       cx="16"
       cy="16"
       r="16"
       id="circle5945" />
    <path
       d="m 15.855,5.014 a 0.77,0.77 0 0 1 0.627,0.154 l 8.702,6.465 c 0.2,0.15 0.325,0.4 0.315,0.654 v 7.424 a 0.802,0.802 0 0 1 -0.346,0.682 l -8.671,6.442 A 0.782,0.782 0 0 1 15.49,26.81 C 12.61,24.67 9.731,22.53 6.851,20.392 a 0.826,0.826 0 0 1 -0.35,-0.68 v -7.42 a 0.826,0.826 0 0 1 0.347,-0.68 l 8.641,-6.42 a 0.901,0.901 0 0 1 0.366,-0.178 z m -0.104,20.014 c -0.005,0.116 -0.007,0.233 -0.008,0.349 l 0.002,0.697 c 0.15,0.002 0.3,0.003 0.45,0 V 25.05 a 5.023,5.023 0 0 0 -0.444,-0.022 z m -1.71,-0.918 -0.252,0.001 c 0.18,0.315 0.351,0.635 0.535,0.947 0.15,0 0.3,0 0.452,-0.01 -0.12,-0.332 -0.327,-0.621 -0.482,-0.936 a 17.125,17.125 0 0 0 -0.505,0 z m 2.727,0.48 a 9.27,9.27 0 0 0 0.003,0.458 h 0.42 c 0.019,-0.149 0.02,-0.298 0.017,-0.448 a 5.86,5.86 0 0 0 -0.44,-0.01 z m -0.475,-2.457 c -0.63,0.004 -1.261,-0.004 -1.892,0.005 a 15.41,15.41 0 0 0 0,0.43 c 0.558,0.013 1.117,0.003 1.676,0.006 v 1.029 c -0.116,10e-4 -0.23,-0.003 -0.344,0.009 -0.033,0.136 -0.016,0.277 -0.018,0.416 0.202,0.006 0.404,0.005 0.606,0.001 0.061,-0.069 0.124,-0.136 0.187,-0.204 0,-0.49 -10e-4,-0.98 0.001,-1.47 a 51.921,51.921 0 0 0 -0.216,-0.222 z m 3.344,0.576 c -0.143,-0.07 -0.295,-0.308 -0.462,-0.165 -0.497,0.331 -1.009,0.64 -1.5,0.98 0.002,0.142 0.003,0.284 0.013,0.425 0.46,0.004 0.919,0.006 1.378,-0.001 0.002,-0.15 0.002,-0.3 0.001,-0.45 a 14.925,14.925 0 0 0 -0.338,-0.004 l -0.212,0.002 c 0.365,-0.258 0.747,-0.489 1.12,-0.734 z M 13.095,22.957 12.2,22.96 c -0.003,0.15 -0.003,0.3 0,0.452 0.596,0.003 1.193,0.006 1.79,-0.002 V 22.961 C 13.393,22.954 12.796,22.957 12.2,22.96 Z M 11.592,22.3 11.371,22.301 c -0.002,0.15 -0.003,0.301 0,0.452 0.147,0.002 0.295,0.002 0.443,0 0.002,-0.15 0.002,-0.3 0,-0.45 a 12.723,12.723 0 0 0 -0.443,-0.002 z m 8.593,-1.614 c -0.006,0.246 -0.004,0.492 -0.003,0.738 0.24,0.37 0.475,0.743 0.718,1.111 0.202,-0.31 0.4,-0.626 0.605,-0.935 0.038,-0.068 0.099,-0.134 0.094,-0.218 0.005,-0.225 0.002,-0.45 -0.004,-0.675 -0.186,0.303 -0.385,0.597 -0.57,0.9 -0.042,0.058 -0.073,0.132 -0.14,0.162 -0.242,-0.356 -0.465,-0.724 -0.7,-1.083 z M 18.75,20.133 c -0.281,0.001 -0.562,-0.002 -0.844,0.003 a 83.136,83.136 0 0 1 -0.514,1.837 l 0.434,0.003 0.388,-1.421 0.236,0.012 c 0.126,0.469 0.26,0.935 0.383,1.405 0.144,0.003 0.29,0.003 0.434,0.003 z m -8.752,1.03 -0.393,0.008 v 0.444 c 0.391,0.007 0.783,0.017 1.174,-0.003 0.019,-0.147 0.01,-0.296 0.007,-0.445 -0.394,-0.002 -0.788,-0.009 -1.181,0.004 z m 3.15,-1.048 c -0.543,0.337 -1.077,0.689 -1.612,1.039 -0.002,0.144 -0.002,0.288 0.002,0.432 0.843,0.009 1.686,0.005 2.529,0.002 0.004,-0.152 0.004,-0.304 10e-4,-0.456 -0.57,-0.008 -1.138,0.004 -1.707,-0.007 0.393,-0.239 0.773,-0.497 1.162,-0.743 -0.124,-0.091 -0.25,-0.178 -0.375,-0.267 z m 1.9,-0.334 -0.224,0.001 c -0.006,0.562 0,1.125 -0.003,1.687 l 0.135,0.025 c 0.106,-0.01 0.212,-0.015 0.318,-0.02 -0.003,-0.564 0.001,-1.128 -0.003,-1.692 a 20.223,20.223 0 0 0 -0.447,0 z m 1.378,0.416 c -0.155,0.021 -0.312,0.03 -0.469,0.03 0.177,0.31 0.352,0.623 0.525,0.937 l 0.44,-0.003 c -0.095,-0.35 -0.312,-0.656 -0.496,-0.964 z m 5.959,0.213 -0.23,0.004 c -0.003,0.148 -0.003,0.296 0,0.444 0.153,0.007 0.307,0.007 0.46,0.003 v -0.449 a 8.59,8.59 0 0 0 -0.46,0.002 z M 11.597,18.618 c -0.245,0.362 -0.467,0.74 -0.714,1.099 -0.231,-0.364 -0.465,-0.727 -0.699,-1.09 a 20.66,20.66 0 0 0 -0.003,0.747 c 0.243,0.354 0.468,0.72 0.7,1.08 0.251,-0.359 0.475,-0.737 0.72,-1.101 -0.002,-0.245 10e-4,-0.49 -0.004,-0.735 z m 1.15,0.475 c -0.01,0.155 -0.009,0.31 -0.003,0.465 0.148,0.002 0.296,0.001 0.443,0 a 10.04,10.04 0 0 0 0,-0.454 4.732,4.732 0 0 0 -0.44,-0.011 z m 6.116,-1.224 -0.224,0.21 c 0,0.2 -10e-4,0.399 0.003,0.598 0.143,0 0.287,0 0.43,-0.002 0.003,-0.123 0.004,-0.246 0.003,-0.37 l 1.004,0.001 c -0.005,0.405 -0.002,0.809 -0.001,1.213 0.145,0.004 0.29,0.005 0.436,0.004 V 18.08 l -0.217,-0.21 c -0.478,-0.001 -0.956,0.002 -1.434,-0.002 z M 7.666,17.582 H 7.384 l -0.212,0.211 -0.002,0.981 0.006,0.49 c 0.037,0.089 0.12,0.166 0.202,0.214 0.49,0.014 0.981,0 1.472,0.006 H 9.055 L 9.261,19.483 C 9.262,19.341 9.262,19.199 9.259,19.057 8.707,19.051 8.154,19.056 7.601,19.054 7.597,18.71 7.601,18.367 7.598,18.023 l 0.35,-0.005 A 19.27,19.27 0 0 0 7.947,17.585 21.315,21.315 0 0 0 7.384,17.583 Z m 9.654,0.38 c -0.532,0.36 -1.08,0.693 -1.613,1.053 0.002,0.146 0.002,0.291 0.023,0.435 0.84,0 1.681,0.004 2.521,-10e-4 a 9.131,9.131 0 0 0 0,-0.472 c -0.56,-0.007 -1.122,0.004 -1.684,-0.006 0.375,-0.253 0.766,-0.482 1.134,-0.745 -0.129,-0.086 -0.254,-0.176 -0.38,-0.265 z m 5.989,-0.07 c -0.535,0.343 -1.07,0.685 -1.6,1.036 -0.002,0.146 -0.002,0.293 0,0.44 0.84,0.003 1.679,0.003 2.518,0 0.002,-0.152 0.002,-0.306 0,-0.458 -0.565,-0.004 -1.13,0.003 -1.694,-0.003 l 1.153,-0.747 c -0.124,-0.09 -0.25,-0.182 -0.377,-0.268 z m -9.95,-1.983 -0.222,10e-4 c -0.003,0.855 -0.003,1.709 0,2.563 0.15,0.004 0.3,0.004 0.449,0.003 0.018,-0.57 -0.027,-1.142 0.028,-1.708 0.304,0.521 0.637,1.026 0.955,1.54 l 0.153,-0.003 c -0.024,-0.233 0.067,-0.501 -0.086,-0.701 -0.353,-0.564 -0.71,-1.125 -1.057,-1.693 a 11.843,11.843 0 0 0 -0.442,0 z m 8.183,0.924 C 21.396,16.81 21.247,16.82 21.099,16.823 a 85.573,85.573 0 0 0 0,1.586 c 0.149,0.003 0.298,0.004 0.447,0 0.002,-0.525 0.01,-1.051 -0.004,-1.576 z m -9.91,0.595 c -0.515,0.016 -1.034,-0.029 -1.548,0.028 -10e-4,0.149 -10e-4,0.297 0.002,0.446 0.649,0.005 1.296,0 1.946,0.002 v -0.458 a 3.414,3.414 0 0 0 -0.4,-0.018 z M 24.56,15.406 A 41.8,41.8 0 0 0 23.1,15.404 l -0.197,0.204 c 0,0.194 0,0.39 0.002,0.584 0.143,0.001 0.286,0 0.429,-0.002 l 0.003,-0.355 c 0.34,0.003 0.68,-0.004 1.02,0.005 l -10e-4,1.908 0.415,10e-4 c -0.007,-0.138 0.03,-0.274 0.022,-0.412 0.005,-0.17 -0.003,-0.339 0.002,-0.508 -0.003,-0.352 0,-0.705 0,-1.057 0.026,-0.164 -0.112,-0.29 -0.235,-0.366 z m -7.322,1.726 -0.217,10e-4 v 0.455 c 0.145,0.002 0.289,0.002 0.433,0 0.002,-0.152 0.002,-0.304 0,-0.454 a 28.388,28.388 0 0 0 -0.433,-0.001 z m -1.91,-0.896 -0.225,0.003 c -0.004,0.372 -0.003,0.745 -10e-4,1.117 0.15,0.004 0.3,0.004 0.451,0.002 10e-4,-0.374 0.002,-0.747 0,-1.12 -0.15,-0.003 -0.3,-0.003 -0.45,0 z m 4.612,0.518 -0.686,0.004 c -0.005,0.15 -0.005,0.3 -0.002,0.45 0.387,0.045 0.778,0.01 1.167,0.022 0.078,-0.008 0.181,0.027 0.225,-0.062 a 1.794,1.794 0 0 0 -0.017,-0.412 c -0.458,0 -0.915,-0.004 -1.373,0.002 z m -1.896,-0.017 -0.221,0.001 c -0.002,0.152 -0.002,0.304 0,0.455 0.147,10e-4 0.294,0.002 0.442,10e-4 a 12.64,12.64 0 0 0 0,-0.456 23.627,23.627 0 0 0 -0.442,0 z M 9.694,15.422 H 9.242 L 9.241,16.87 h 0.454 v -1.448 z m 1.635,-0.575 -0.419,0.002 c -0.176,0.613 -0.347,1.228 -0.52,1.842 l 0.434,0.002 c 0.115,-0.473 0.266,-0.936 0.372,-1.41 l 0.24,-0.018 c 0.147,0.472 0.258,0.954 0.402,1.428 l 0.42,-0.001 c -0.16,-0.617 -0.34,-1.228 -0.51,-1.842 -0.28,-0.004 -0.558,-0.002 -0.838,0 z m 5.396,-0.136 -0.069,0.002 h -1.715 a 22.12,22.12 0 0 0 0,0.438 c 0.557,0.015 1.117,-0.027 1.672,0.024 v 1.009 l -0.356,0.004 v 0.44 c 0.19,0.002 0.379,0.002 0.568,0.002 l 0.22,-0.24 v -1.282 c 0.027,-0.209 -0.18,-0.428 -0.389,-0.395 z m -8.902,1.115 c -0.005,0.147 -0.005,0.294 -0.004,0.441 0.15,0.003 0.3,0.002 0.449,0 v -0.43 A 5.402,5.402 0 0 0 7.823,15.826 Z m 10.64,-1.845 h -0.285 c -0.081,0.107 -0.238,0.187 -0.218,0.343 -0.002,0.413 -0.002,0.826 0,1.24 -0.019,0.154 0.135,0.235 0.215,0.341 0.629,-0.002 1.258,0.002 1.886,-0.002 0.004,-0.146 0.004,-0.293 0.003,-0.44 -0.559,-0.006 -1.117,0 -1.675,-0.004 v -1.035 l 0.36,-0.003 a 9.783,9.783 0 0 0 -0.002,-0.437 c -0.19,-0.004 -0.38,-0.002 -0.57,-0.003 z m -4.833,0.732 h -1.093 c -0.006,0.154 -0.005,0.308 10e-4,0.462 h 1.092 a 11.86,11.86 0 0 0 0,-0.462 z m 8.893,-0.531 -0.976,0.004 c -0.002,0.15 -0.001,0.302 0,0.452 0.65,0.009 1.3,0.003 1.95,0.003 0.002,-0.152 0.002,-0.305 0.001,-0.458 -0.65,0 -1.3,-0.006 -1.95,0.003 z m -2.215,0 -0.231,0.004 c -0.002,0.15 -0.002,0.3 0,0.45 0.154,0.006 0.308,0.006 0.462,0 0.002,-0.15 0.003,-0.3 0,-0.45 a 6.196,6.196 0 0 0 -0.462,0 z m -12.016,-0.94 -1.12,0.003 c -0.003,0.152 -0.003,0.305 0,0.457 0.468,0.005 0.937,0 1.406,0.002 -0.18,0.127 -0.367,0.242 -0.552,0.36 0.124,0.09 0.234,0.213 0.379,0.267 0.343,-0.207 0.677,-0.43 1.01,-0.653 L 9.414,13.246 C 8.666,13.239 7.918,13.241 7.171,13.245 Z m 3.098,-0.369 c -0.359,0.246 -0.732,0.471 -1.082,0.73 0.347,0.252 0.712,0.476 1.064,0.719 0.244,0 0.488,0.002 0.732,-0.003 -0.362,-0.235 -0.72,-0.479 -1.084,-0.712 0.354,-0.253 0.73,-0.474 1.082,-0.73 -0.238,-0.004 -0.474,0 -0.712,-0.004 z m 3.144,0.813 h -0.97 c 0,0.15 0,0.301 0.002,0.453 0.644,0 1.287,0.001 1.932,-10e-4 0.02,-0.15 0.022,-0.3 0.006,-0.45 -0.646,-0.006 -1.293,0 -1.94,-0.003 z m 1.625,0 -0.233,0.002 v 0.446 c 0.155,0.002 0.31,0.002 0.466,-0.002 V 13.69 a 8.23,8.23 0 0 0 -0.466,-0.002 z m 1.079,-1.339 h -0.217 v 1.45 h 0.434 c 0,-0.483 0.003,-0.966 0,-1.449 a 24.331,24.331 0 0 0 -0.434,0 z m 5.509,0.833 -0.225,0.003 c -0.003,0.151 -0.002,0.303 0,0.454 0.15,0.004 0.3,0.004 0.448,0 a 8.52,8.52 0 0 0 0.001,-0.455 c -0.15,-0.003 -0.3,-0.002 -0.449,0 z m -1.504,-1.777 c -0.28,-0.046 -0.563,-0.002 -0.844,0 -0.171,0.612 -0.339,1.224 -0.517,1.832 0.145,0.001 0.29,0.002 0.435,0.001 0.122,-0.474 0.264,-0.942 0.381,-1.417 l 0.238,-0.003 c 0.142,0.471 0.26,0.949 0.397,1.42 h 0.432 z m -2.48,1.077 -0.219,10e-4 a 18.66,18.66 0 0 0 0,0.454 h 0.437 c 0.002,-0.15 0.002,-0.301 10e-4,-0.452 a 10.58,10.58 0 0 0 -0.438,-0.002 z m 5.32,-0.512 c -0.167,0 -0.334,0 -0.5,0.003 l 0.532,0.94 c 0.151,0 0.304,0 0.455,-0.006 -0.123,-0.332 -0.323,-0.626 -0.488,-0.937 z m -8.22,-1.375 -0.215,0.003 c -0.007,0.564 -0.002,1.13 -0.003,1.694 -0.341,-0.008 -0.682,0.02 -1.021,-0.019 a 7.101,7.101 0 0 0 -0.002,-0.34 H 14.21 c 0,0.198 -0.018,0.398 0.007,0.595 0.058,0.068 0.125,0.128 0.19,0.192 0.492,-0.003 0.984,0.002 1.477,-0.003 0.065,-0.066 0.131,-0.131 0.198,-0.195 -0.005,-0.642 0.003,-1.284 -0.004,-1.925 a 14.004,14.004 0 0 0 -0.43,0 z m -3.395,1.061 h -0.217 c -0.01,0.354 -0.005,0.707 -0.004,1.06 h 0.44 c 0,-0.353 0.002,-0.706 -0.002,-1.058 -0.145,-0.002 -0.29,-0.002 -0.434,-0.001 z m 10.277,-0.619 -0.223,0.003 a 79.94,79.94 0 0 0 0,1.453 c 0.149,0.002 0.298,0.003 0.447,0 0.005,-0.484 0.005,-0.969 0,-1.453 a 9.335,9.335 0 0 0 -0.447,0 z M 9.343,11.632 8.37,11.636 c -0.002,0.15 -0.002,0.303 0,0.455 0.649,0.004 1.297,0.005 1.946,0 a 9.76,9.76 0 0 0 0,-0.455 127.41,127.41 0 0 0 -1.946,0 z m 1.72,0.004 h -0.442 v 0.456 c 0.148,10e-4 0.295,0.002 0.443,0 a 10.7,10.7 0 0 0 0,-0.456 z m 3.21,-1.682 c -0.241,0.365 -0.473,0.738 -0.712,1.105 -0.24,-0.362 -0.47,-0.732 -0.707,-1.097 -10e-4,0.246 -0.019,0.494 0.006,0.74 0.074,0.123 0.15,0.246 0.228,0.368 l 0.471,0.727 c 0.236,-0.371 0.49,-0.733 0.71,-1.115 0.02,-0.242 0.004,-0.486 0.004,-0.728 z M 17.202,8.858 16.986,8.86 c -0.005,0.854 -0.003,1.708 -0.001,2.562 0.15,0.003 0.3,0.003 0.45,0 l 0.003,-1.716 c 0.33,0.508 0.638,1.032 0.972,1.538 l 0.168,0.03 C 18.582,11.087 18.581,10.9 18.581,10.714 18.188,10.099 17.808,9.476 17.418,8.859 A 11.263,11.263 0 0 0 16.986,8.86 Z M 11.9,9.338 11.578,9.351 a 14.56,14.56 0 0 0 -0.362,0 c -0.002,0.15 -10e-4,0.301 0.002,0.452 0.161,0.002 0.323,0 0.485,0.009 -0.32,0.19 -0.629,0.397 -0.945,0.592 0.116,0.097 0.225,0.213 0.367,0.268 0.483,-0.278 0.94,-0.6 1.417,-0.891 0.002,-0.142 0.002,-0.285 10e-4,-0.427 A 7.62,7.62 0 0 0 11.578,9.351 Z m 8.578,0.683 -1.067,0.002 v 0.441 c 0.712,0.002 1.422,10e-4 2.133,0 v -0.44 c -0.71,-0.004 -1.422,-0.004 -2.133,0 z M 15.247,9.517 15.025,9.52 c -0.003,0.151 -0.003,0.302 0,0.453 0.148,0.004 0.296,0.004 0.444,0 0.003,-0.152 0.003,-0.302 0,-0.453 a 7.954,7.954 0 0 0 -0.444,0 z m 3.752,-0.313 -0.23,0.003 0.001,0.442 c 0.153,0.003 0.306,0.003 0.459,-10e-4 v -0.44 a 9.118,9.118 0 0 0 -0.46,-10e-4 z m -4.91,-1.839 -0.23,0.005 c 0.01,0.662 -0.03,1.327 0.02,1.988 0.147,0 0.294,0 0.441,-0.003 0.007,-0.662 0.004,-1.324 0.002,-1.987 A 7.242,7.242 0 0 0 13.858,7.37 Z m 1.702,0.94 c -0.166,0 -0.332,0 -0.498,0.003 0.172,0.316 0.346,0.63 0.527,0.94 0.152,0 0.305,0 0.457,-0.007 -0.128,-0.33 -0.328,-0.622 -0.486,-0.936 z m 2.612,-0.226 -0.617,0.003 c -0.002,0.152 -0.002,0.305 0,0.457 0.411,0.007 0.822,0.005 1.233,0 a 18.52,18.52 0 0 0 0,-0.458 61.4,61.4 0 0 0 -1.233,0.001 z M 15.97,6.577 15.284,6.578 C 15.15,6.56 15.072,6.698 14.996,6.785 14.969,6.975 14.989,7.17 14.988,7.362 h 0.426 l 0.003,-0.36 h 1.006 c 0.03,0.357 -10e-4,0.715 -10e-4,1.073 l 0.033,0.134 c 0.135,0.01 0.272,0.003 0.408,0.001 -0.002,-0.479 -0.002,-0.958 0,-1.437 L 16.729,6.64 16.655,6.583 C 16.199,6.571 15.741,6.581 15.285,6.578 Z"
       fill="#ffffff"
       id="path5947" />
  </g>
</svg>
