<svg width="512" height="512" viewBox="0 0 512 512" fill="none" xmlns="http://www.w3.org/2000/svg">
<path d="M256 0V512C114.615 512 0 397.385 0 256C0 114.615 114.615 0 256 0Z" fill="#365558"/>
<path d="M256 512V0C397.385 0 512 114.615 512 256C512 397.385 397.385 512 256 512Z" fill="#0295AA"/>
<path fill-rule="evenodd" clip-rule="evenodd" d="M256 317.016H266.448L296.56 234.472V317.016H316.976V199.848H289.376L256.912 289.416L256 286.902V317.016ZM419.841 274.376H386.208V254.232H440.769V316.888H420.513V303.496C416.193 311.016 405.441 319.912 386.208 319.912C353.408 319.912 332.288 293.816 332.288 259.304C332.288 227.176 350.544 197.032 389.728 197.032C417.329 197.032 437.761 211.944 440.769 238.728H418.529C417.185 225.4 404.608 217.464 389.056 217.464C365.264 217.464 354.08 236.024 354.08 258.632C354.08 282.744 366.768 299.496 389.536 299.496C405.441 299.496 417.857 291.464 419.841 274.376Z" fill="white"/>
<path fill-rule="evenodd" clip-rule="evenodd" d="M256 286.898L224.433 199.848H196.801V317.016H216.721V234.472L246.865 317.016H256V286.898ZM64 258.52C64 224.123 86.7648 197.004 122.728 197C158.756 197.004 181.521 223.931 181.521 258.52C181.521 293.096 158.705 319.96 122.736 319.96C86.7681 319.96 64 292.904 64 258.52ZM122.728 197C122.731 197 122.734 197 122.736 197H122.72C122.723 197 122.726 197 122.728 197ZM86.0961 258.6C86.0961 281.88 99.8082 299.128 122.736 299.128C145.697 299.128 159.425 281.672 159.425 258.52C159.425 235.352 145.665 217.944 122.736 217.944C99.8082 217.944 86.0961 235.304 86.0961 258.6Z" fill="#E6EAEA"/>
</svg>
