<?xml version="1.0" encoding="UTF-8" standalone="no"?>
<svg
   width="512"
   height="512"
   viewBox="0 0 512 512"
   version="1.1"
   id="svg2308"
   xmlns="http://www.w3.org/2000/svg"
   xmlns:svg="http://www.w3.org/2000/svg">
  <defs
     id="defs2312" />
  <g
     fill="none"
     id="g2306"
     transform="scale(16)">
    <circle
       fill="#101010"
       cx="16"
       cy="16"
       r="16"
       id="circle2302" />
    <path
       d="m 16.057,17.776 -2.03,-5.598 H 12.3 v 7.323 h 1.245 v -5.159 l 1.884,5.159 h 1.224 l 1.882,-5.159 v 5.159 h 1.276 V 12.178 H 18.086 Z M 7.671,12 C 5.423,12 4,13.695 4,15.845 c 0,2.149 1.423,3.84 3.671,3.84 2.248,0 3.674,-1.679 3.674,-3.84 C 11.345,13.683 9.922,12 7.67,12 Z m 0,6.383 c -1.433,0 -2.29,-1.078 -2.29,-2.533 0,-1.456 0.857,-2.541 2.29,-2.541 1.433,0 2.293,1.088 2.293,2.536 0,1.447 -0.858,2.538 -2.293,2.538 z m 16.467,-1.547 h 2.102 c -0.124,1.068 -0.9,1.57 -1.894,1.57 -1.423,0 -2.216,-1.047 -2.216,-2.554 0,-1.413 0.699,-2.573 2.186,-2.573 0.972,0 1.758,0.496 1.842,1.329 h 1.39 c -0.188,-1.674 -1.465,-2.606 -3.19,-2.606 -2.449,0 -3.59,1.884 -3.59,3.892 0,2.157 1.32,3.788 3.37,3.788 1.202,0 1.874,-0.556 2.144,-1.026 v 0.837 h 1.266 v -3.916 h -3.41 v 1.26 z"
       fill="#ffffff"
       id="path2304" />
  </g>
</svg>
