<svg width="512" height="512" viewBox="0 0 512 512" fill="none" xmlns="http://www.w3.org/2000/svg">
<g clip-path="url(#clip0_1_538)">
<path fill-rule="evenodd" clip-rule="evenodd" d="M260.914 333.026H275.112L316.032 220.855V333.026H343.776V173.803H306.269L262.153 295.52L260.914 292.103V333.026ZM483.56 275.082H437.857V247.707H512V332.852H484.474V314.653C478.603 324.873 463.992 336.962 437.857 336.962C393.284 336.962 364.584 301.499 364.584 254.6C364.584 210.94 389.392 169.977 442.64 169.977C480.147 169.977 507.912 190.241 512 226.638H481.777C479.951 208.527 462.861 197.742 441.727 197.742C409.396 197.742 394.197 222.964 394.197 253.687C394.197 286.453 411.439 309.218 442.379 309.218C463.992 309.218 480.864 298.303 483.56 275.082Z" fill="#0295AA"/>
<path fill-rule="evenodd" clip-rule="evenodd" d="M260.914 292.103L218.016 173.804H180.466V333.027H207.535V220.855L248.499 333.027H260.914V292.103ZM0 253.535C0 206.791 30.9355 169.939 79.8071 169.934C128.766 169.939 159.701 206.53 159.701 253.535C159.701 300.521 128.696 337.027 79.818 337.027C30.9401 337.027 0 300.26 0 253.535ZM79.8071 169.934C79.8108 169.934 79.8144 169.934 79.818 169.934H79.7962C79.7999 169.934 79.8035 169.934 79.8071 169.934ZM30.0269 253.644C30.0269 285.279 48.6605 308.718 79.818 308.718C111.019 308.718 129.674 284.997 129.674 253.535C129.674 222.051 110.975 198.395 79.818 198.395C48.6605 198.395 30.0269 221.986 30.0269 253.644Z" fill="#365558"/>
</g>
<defs>
<clipPath id="clip0_1_538">
<rect width="512" height="512" fill="white"/>
</clipPath>
</defs>
</svg>
