<svg width="512" height="512" viewBox="0 0 512 512" fill="none" xmlns="http://www.w3.org/2000/svg">
<path d="M256 0V512C114.615 512 0 397.385 0 256C0 114.615 114.615 0 256 0Z" fill="#365558"/>
<path d="M256 512V0C397.385 0 512 114.615 512 256C512 397.385 397.385 512 256 512Z" fill="#0295AA"/>
<path fill-rule="evenodd" clip-rule="evenodd" d="M256 416C344.224 416 416 344.224 416 256C416 167.776 344.224 96 256 96C256 96 256 96 256 96L256 139.328C320.336 139.328 372.672 191.68 372.672 256C372.672 320.336 320.32 372.672 256 372.672V416ZM350.96 110.208C370.886 123.211 387.948 140.143 401.104 159.968V110.208H350.96ZM401.104 352.032C388.112 371.61 371.308 388.37 351.696 401.312H401.104V352.032Z" fill="white"/>
<path fill-rule="evenodd" clip-rule="evenodd" d="M256 96C167.776 96 96 167.776 96 256C96 344.224 167.776 416 256 416V372.672C191.664 372.672 139.328 320.32 139.328 256C139.328 191.664 191.68 139.328 256 139.328V96ZM110 161.344C123.268 140.932 140.653 123.515 161.04 110.208H110V161.344ZM160.304 401.312C140.231 388.065 123.106 370.821 110 350.656V401.312H160.304Z" fill="#E6EAEA"/>
</svg>
