<svg width="512" height="512" viewBox="0 0 512 512" fill="none" xmlns="http://www.w3.org/2000/svg">
<path fill-rule="evenodd" clip-rule="evenodd" d="M256.258 126.274C256.516 126.277 256.775 126.279 257.034 126.279C289.419 126.279 315.673 100.025 315.673 67.6394C315.673 35.2538 289.419 9 257.034 9C256.775 9 256.516 9.00168 256.258 9.00503V126.274Z" fill="#0295AA"/>
<path fill-rule="evenodd" clip-rule="evenodd" d="M256 297.512H403.575C403.435 214.586 342.401 145.662 256 144.921V297.512Z" fill="#0295AA"/>
<path fill-rule="evenodd" clip-rule="evenodd" d="M256 503.52C389.434 502.931 490.406 413.889 511.408 297.508H397.007C379.907 359.512 326.83 404.901 256.022 404.901C256.015 404.901 256.007 404.901 256 404.901V503.52Z" fill="#0295AA"/>
<path fill-rule="evenodd" clip-rule="evenodd" d="M256.255 9.00378C256.031 9.00126 255.807 9 255.583 9C223.197 9 196.943 35.2538 196.943 67.6394C196.943 100.025 223.197 126.279 255.583 126.279C255.807 126.279 256.031 126.278 256.255 126.275V9.00378Z" fill="#365558"/>
<path fill-rule="evenodd" clip-rule="evenodd" d="M256 144.913C169.212 144.944 109.02 212.993 109.02 296.35V297.51H256V144.913Z" fill="#365558"/>
<path fill-rule="evenodd" clip-rule="evenodd" d="M256.257 404.901C186.444 404.891 133.059 359.18 115.355 297.508H1C21.1653 414.694 121.203 503.523 254.934 503.523C255.375 503.523 255.816 503.522 256.257 503.52V404.901Z" fill="#365558"/>
</svg>
