<svg width="512" height="512" viewBox="0 0 512 512" fill="none" xmlns="http://www.w3.org/2000/svg">
<g clip-path="url(#clip0_1_546)">
<path fill-rule="evenodd" clip-rule="evenodd" d="M256 511.998C320.073 510.76 381.362 485.178 427.336 440.329L256 272.723V511.998ZM256 239.32L512.022 489.77V244.9C512.022 109.635 399.942 0.00129753 261.69 0.00129753C259.791 -0.00478799 257.894 0.0105389 256 0.0471469V239.32Z" fill="#4ACFD9"/>
<path fill-rule="evenodd" clip-rule="evenodd" d="M255.999 0.00195312C191.927 1.23999 130.639 26.8215 84.6646 71.6704L255.999 239.276V0.00195312ZM255.999 272.678L-0.0214844 22.2299V267.1C-0.0214844 402.364 112.059 511.998 250.31 511.998C252.209 512.004 254.105 511.989 255.999 511.952V272.678Z" fill="#0295AA"/>
</g>
<defs>
<clipPath id="clip0_1_546">
<rect width="512" height="512" fill="white"/>
</clipPath>
</defs>
</svg>
