<svg width="512" height="512" viewBox="0 0 512 512" fill="none" xmlns="http://www.w3.org/2000/svg">
<path d="M256 0V512C114.615 512 0 397.385 0 256C0 114.615 114.615 0 256 0Z" fill="#0295AA"/>
<path d="M256 512V0C397.385 0 512 114.615 512 256C512 397.385 397.385 512 256 512Z" fill="#4ACFD9"/>
<path fill-rule="evenodd" clip-rule="evenodd" d="M255.945 393.105C261.986 393.193 268.042 392.882 274.071 392.167C292.004 390.052 309.34 384.411 325.082 375.572C340.824 366.732 354.66 354.867 365.793 340.66C376.926 326.453 385.136 310.186 389.95 292.795C394.764 275.403 396.087 257.232 393.843 239.328C391.598 221.424 385.831 204.14 376.873 188.472C367.915 172.805 355.944 159.064 341.648 148.04C327.353 137.016 311.016 128.928 293.578 124.241C281.287 120.937 268.62 119.369 255.945 119.562V182.628C260.469 182.503 265.011 182.793 269.514 183.505C281.536 185.406 292.901 190.252 302.595 197.609C312.288 204.967 320.008 214.607 325.066 225.671C330.124 236.735 332.363 248.878 331.583 261.017C330.613 276.449 324.812 291.186 315 303.143C305.188 315.1 291.862 323.671 276.908 327.645C270.032 329.472 262.972 330.284 255.945 330.093V393.105Z" fill="white"/>
<path fill-rule="evenodd" clip-rule="evenodd" d="M255.941 119.559C250.641 119.639 245.34 120.028 240.064 120.728C228.567 121.804 217.302 124.631 206.659 129.112C194.266 135.192 186.27 145.319 186.27 158.871C186.27 176.471 200.534 190.775 218.156 190.775C221.098 190.775 231.285 187.543 233.715 186.711C240.895 184.204 248.394 182.834 255.941 182.625V119.559ZM255.941 330.09C247.696 329.866 239.496 328.257 231.695 325.282C217.255 319.774 204.91 309.862 196.408 296.949V296.965C182.458 278.683 184.785 250.028 185.049 246.771C185.063 246.593 185.072 246.491 185.071 246.47C184.783 238.841 181.775 231.567 176.591 225.965C171.406 220.363 164.388 216.804 156.808 215.931C149.227 215.059 141.585 216.932 135.265 221.21C128.945 225.488 124.365 231.889 122.355 239.254C121.635 241.926 121.267 249.75 121.379 250.79C120.573 270.562 124.064 290.274 131.613 308.564C139.162 326.854 150.589 343.287 165.104 356.729C179.619 370.17 196.876 380.299 215.685 386.417C228.726 390.659 242.298 392.903 255.941 393.102V330.09ZM159.549 152.467C162.686 150.966 165.307 148.568 167.081 145.575C172.038 137.224 169.288 126.456 160.957 121.496C157.969 119.716 154.521 118.863 151.049 119.045C147.576 119.226 144.236 120.435 141.45 122.516C138.664 124.598 136.558 127.46 135.399 130.74C134.239 134.019 134.078 137.57 134.935 140.941C135.793 144.313 137.63 147.354 140.216 149.68C142.802 152.006 146.019 153.512 149.46 154.009C152.902 154.505 156.413 153.968 159.549 152.467ZM101.79 142.645C104.009 141.582 105.862 139.885 107.115 137.768C110.633 131.88 108.682 124.28 102.798 120.76C100.686 119.498 98.2482 118.891 95.792 119.016C93.3358 119.142 90.972 119.993 89 121.464C87.028 122.934 85.5365 124.957 84.7145 127.277C83.8925 129.596 83.7769 132.107 84.3824 134.492C84.9879 136.877 86.2871 139.029 88.1157 140.675C89.9442 142.32 92.2198 143.386 94.6541 143.737C97.0884 144.087 99.572 143.707 101.79 142.645ZM139.046 203.296C143.108 201.353 146.504 198.249 148.804 194.375H148.788C155.2 183.559 151.65 169.575 140.84 163.143C136.967 160.845 132.5 159.748 128.003 159.989C123.507 160.231 119.183 161.802 115.578 164.502C111.973 167.202 109.25 170.911 107.751 175.16C106.253 179.409 106.048 184.007 107.161 188.372C108.274 192.738 110.656 196.676 114.005 199.687C117.355 202.698 121.521 204.649 125.978 205.291C130.435 205.934 134.983 205.239 139.046 203.296Z" fill="#E6EAEA"/>
</svg>
