<svg width="512" height="512" viewBox="0 0 512 512" fill="none" xmlns="http://www.w3.org/2000/svg">
<path fill-rule="evenodd" clip-rule="evenodd" d="M243.809 499.548C278.53 496.865 303.112 474.272 333.166 446.649C361.731 420.395 395.239 389.598 447.095 367.032C524.504 333.362 524.773 267.558 489.006 206.801C512.46 140.046 501.562 87.6032 450.216 78.0703C441.44 76.4553 432.961 75.0107 424.74 73.61C380.093 66.0028 343.056 59.6923 307.271 34.4287H307.247C284.931 18.7077 263.795 11.9169 243.809 12.1999V115.928C291.972 112.243 337.686 136.232 358.788 182.786C389.605 250.735 381.072 329.241 318.706 369.714C303.878 379.329 287.294 385.915 269.91 389.091C261.28 390.668 252.538 391.389 243.809 391.257V499.548ZM484.617 199.682L489.006 206.801C487.587 204.401 486.123 202.028 484.617 199.682Z" fill="#FFD1A9"/>
<path fill-rule="evenodd" clip-rule="evenodd" d="M243.837 12.1934C217.05 12.5725 192.328 25.6573 169.597 46.9783H169.548C68.6448 43.7002 58.978 94.284 46.114 161.597C40.6081 190.408 34.5165 222.284 20.4349 254.313C-32.6665 375.241 24.7259 422.638 112.155 438.12L116.861 438.924L121.932 444.702C135.764 459.948 152.349 472.447 170.816 481.542C200.502 496.032 223.849 501.085 243.837 499.541V391.251C234.981 391.116 226.139 390.104 217.442 388.215C200.172 384.464 183.815 377.332 169.314 367.23C154.813 357.129 142.455 344.257 132.952 329.357C92.724 266.625 112.619 185.851 173.034 142.478C195.433 126.395 219.936 117.751 243.837 115.922V12.1934Z" fill="#FF8C29"/>
</svg>
