<svg width="512" height="512" viewBox="0 0 512 512" fill="none" xmlns="http://www.w3.org/2000/svg">
<g clip-path="url(#clip0_115_679)">
<path d="M248 0V512C106.615 512 -8 397.385 -8 256C-8 114.615 106.615 0 248 0Z" fill="#FF8C29"/>
<path d="M248 512V0C389.385 0 504 114.615 504 256C504 397.385 389.385 512 248 512Z" fill="#FFD1A9"/>
<path fill-rule="evenodd" clip-rule="evenodd" d="M248.008 415.829C270.795 414.069 286.928 399.242 306.653 381.114C325.4 363.885 347.391 343.674 381.423 328.865C432.226 306.769 432.402 263.585 408.929 223.713C424.322 179.905 417.169 145.489 383.472 139.233C377.712 138.173 372.147 137.225 366.752 136.306C337.451 131.314 313.144 127.173 289.659 110.593H289.643C274.997 100.276 261.125 95.8197 248.008 96.0056V164.078C279.617 161.659 309.62 177.402 323.468 207.953C343.694 252.545 338.093 304.065 297.163 330.625C287.432 336.936 276.548 341.258 265.139 343.342C259.475 344.377 253.737 344.85 248.008 344.763V415.829ZM406.049 219.041L408.929 223.713C407.997 222.139 407.037 220.581 406.049 219.041Z" fill="white"/>
<path fill-rule="evenodd" clip-rule="evenodd" d="M248.027 96.001C230.447 96.2499 214.222 104.837 199.304 118.829H199.272C133.051 116.677 126.707 149.873 118.264 194.048C114.651 212.955 110.653 233.874 101.411 254.893C66.5614 334.253 104.227 365.357 161.606 375.517L164.694 376.045L168.023 379.837C177.1 389.842 187.985 398.044 200.104 404.013C219.587 413.522 234.909 416.838 248.027 415.825V344.759C242.215 344.671 236.412 344.006 230.704 342.767C219.37 340.305 208.635 335.625 199.119 328.995C189.602 322.366 181.492 313.919 175.255 304.141C148.854 262.973 161.91 209.965 201.56 181.501C216.26 170.946 232.341 165.274 248.027 164.073V96.001Z" fill="#E6EAEA"/>
</g>
<defs>
<clipPath id="clip0_115_679">
<rect width="512" height="512" fill="white"/>
</clipPath>
</defs>
</svg>
