<svg id="P_with_dark_bg" data-name="P with dark bg" xmlns="http://www.w3.org/2000/svg" viewBox="0 0 512 512"><defs><style>.cls-1{fill:#365558;}.cls-2{fill:#fff;}.cls-3{fill:#f0353d;}.cls-4{fill:#e6eaea;}</style></defs><title>polkadot</title><path class="cls-1" d="M0,256C0,397.4,114.6,512,256,512V0C114.6,0,0,114.6,0,256Z"/><path class="cls-1" d="M256,0V512c141.4,0,256-114.6,256-256S397.4,0,256,0Z"/><g id="P."><path class="cls-2" d="M256,105.36A114.53,114.53,0,0,0,141.58,219.78,119.75,119.75,0,0,0,147.64,257a16,16,0,0,0,30.27-10.29,80.48,80.48,0,0,1-4.54-29.36c1.21-42.68,35.71-77.79,78.39-79.91a82.46,82.46,0,0,1,9.08,164.66s-16,.91-23.91,2.12c-3.93.6-7,1.21-9.08,1.51a1.21,1.21,0,0,1-1.51-1.51l2.72-13.32,14.83-68.41A15.79,15.79,0,1,0,213,215.84s-35.72,166.48-36,168.3a15.79,15.79,0,0,0,30.87,6.66c.31-1.82,5.15-23.92,5.15-23.92a40.2,40.2,0,0,1,33.9-31.48c3.63-.6,17.86-1.51,17.86-1.51A114.43,114.43,0,0,0,256,105.36Z"/><path class="cls-3" d="M264.17,368.7A19.17,19.17,0,1,0,279,391.4C281.12,380.81,274.77,370.82,264.17,368.7Z"/></g><path class="cls-4" d="M167.92,267a16.15,16.15,0,0,0,10-20.28,80.48,80.48,0,0,1-4.54-29.36c1.21-42.68,35.71-77.79,78.39-79.91,1.42-.08,2.84-.11,4.24-.11v-32A114.53,114.53,0,0,0,141.58,219.78,119.75,119.75,0,0,0,147.64,257,16.14,16.14,0,0,0,167.92,267Z"/><path class="cls-4" d="M256,302.41c-5.37.37-13.95,1-19.07,1.82-3.93.6-7,1.21-9.08,1.51a1.21,1.21,0,0,1-1.51-1.51l2.72-13.32,14.83-68.41A15.79,15.79,0,1,0,213,215.84s-35.72,166.48-36,168.3a15.79,15.79,0,0,0,30.87,6.66c.31-1.82,5.15-23.92,5.15-23.92a40.2,40.2,0,0,1,33.9-31.48c1.63-.27,5.42-.6,9.08-.89Z"/></svg>