<svg width="512" height="512" viewBox="0 0 512 512" fill="none" xmlns="http://www.w3.org/2000/svg">
<path d="M256 0V512C114.615 512 0 397.385 0 256C0 114.615 114.615 0 256 0Z" fill="#0295AA"/>
<path d="M256 512V0C397.385 0 512 114.615 512 256C512 397.385 397.385 512 256 512Z" fill="#4ACFD9"/>
<path fill-rule="evenodd" clip-rule="evenodd" d="M256 354.755L318.001 389.408C323.905 392.864 331.569 392.864 338.065 389.408L405.969 351.456C411.873 348.016 416.001 341.696 416.001 334.784V258.305C416.035 254.87 415.116 251.492 413.344 248.549C411.573 245.605 409.02 243.211 405.969 241.633L337.489 203.089H337.473C331.569 199.649 323.905 199.649 317.409 203.089L271.345 229.553L256 238.014V273.369L271.345 264.625L317.409 238.753C323.313 235.297 330.977 235.297 337.473 238.753L373.489 258.881C379.409 262.321 383.521 268.641 383.521 275.553V316.385C383.521 323.28 380.001 329.6 373.489 333.056L337.489 353.76C331.569 357.216 323.889 357.216 317.409 353.76L281.393 333.632C275.473 330.176 271.345 323.856 271.345 316.96V290.497L256 299.249V354.755ZM256 157.859V212.079L270.753 203.665V177.217C270.788 173.782 269.868 170.404 268.097 167.461C266.326 164.517 263.773 162.123 260.721 160.545L256 157.859Z" fill="white"/>
<path fill-rule="evenodd" clip-rule="evenodd" d="M256 157.859L194 122.592C188.096 119.136 180.433 119.136 173.937 122.592L106.033 160.544C102.982 162.122 100.428 164.516 98.6571 167.46C96.8859 170.403 95.9664 173.781 96.0009 177.216V253.696C96.0009 260.608 99.5369 266.928 106.033 270.384L173.937 308.335C179.841 311.775 187.52 311.775 194 308.335L240.064 282.447L256 273.367V238.012L240.064 246.8L194 273.247C188.096 276.703 180.433 276.703 173.937 273.247L137.329 252.544C131.425 249.104 127.297 242.784 127.297 235.872V195.04C127.297 188.144 130.833 181.824 137.329 178.368L173.329 158.24C179.249 154.784 186.928 154.784 193.424 158.24L229.424 178.368C235.344 181.824 239.472 188.144 239.472 195.04V221.504L256 212.077V157.859ZM256 354.755V299.247L240.064 308.335V334.783C240.064 341.679 243.6 348.015 250.096 351.455L256 354.755Z" fill="#E6EAEA"/>
</svg>
