<svg width="512" height="512" viewBox="0 0 512 512" fill="none" xmlns="http://www.w3.org/2000/svg">
<g clip-path="url(#clip0_1_584)">
<path fill-rule="evenodd" clip-rule="evenodd" d="M256 414.309L355.2 469.753C364.646 475.282 376.909 475.282 387.302 469.753L495.948 409.03C505.395 403.526 511.999 393.414 511.999 382.354V259.987C512.055 254.491 510.584 249.087 507.75 244.377C504.916 239.668 500.83 235.837 495.948 233.312L386.381 171.641H386.355C376.909 166.137 364.646 166.137 354.253 171.641L280.551 213.984L256 227.521V284.088L280.551 270.099L354.253 228.704C363.699 223.174 375.961 223.174 386.355 228.704L443.98 260.908C453.452 266.412 460.032 276.524 460.032 287.584V352.915C460.032 363.948 454.4 374.06 443.98 379.59L386.381 412.716C376.909 418.246 364.621 418.246 354.253 412.716L296.627 380.511C287.155 374.982 280.551 364.87 280.551 353.836V311.494L256 325.496V414.309ZM256 99.2754V186.025L279.603 172.563V130.246C279.659 124.75 278.187 119.346 275.354 114.637C272.52 109.927 268.434 106.097 263.552 103.571L256 99.2754Z" fill="#4ACFD9"/>
<path fill-rule="evenodd" clip-rule="evenodd" d="M256.001 99.2748L156.801 42.8474C147.355 37.3178 135.092 37.3178 124.699 42.8474L16.0527 103.57C11.1706 106.096 7.0852 109.926 4.2513 114.636C1.41739 119.346 -0.0538071 124.749 0.00150407 130.246V252.613C0.00150407 263.672 5.65908 273.784 16.0527 279.314L124.699 340.037C134.145 345.541 146.433 345.541 156.801 340.037L230.503 298.616L256.001 284.087V227.52L230.503 241.58L156.801 283.896C147.355 289.426 135.092 289.426 124.699 283.896L66.1261 250.77C56.6797 245.266 50.0749 235.154 50.0749 224.095V158.764C50.0749 147.73 55.7325 137.618 66.1261 132.089L123.726 99.884C133.198 94.3544 145.486 94.3544 155.879 99.884L213.479 132.089C222.951 137.618 229.556 147.73 229.556 158.764V201.106L256.001 186.024V99.2748ZM256.001 414.308V325.495L230.503 340.037V382.354C230.503 393.387 236.161 403.525 246.554 409.029L256.001 414.308Z" fill="#0295AA"/>
</g>
<defs>
<clipPath id="clip0_1_584">
<rect width="512" height="512" fill="white"/>
</clipPath>
</defs>
</svg>
