<?xml version="1.0" encoding="UTF-8" standalone="no"?>
<svg
   height="512"
   viewBox="0 0 512 512"
   width="512"
   version="1.1"
   id="svg8383"
   xmlns="http://www.w3.org/2000/svg"
   xmlns:svg="http://www.w3.org/2000/svg">
  <defs
     id="defs8387" />
  <g
     fill="none"
     id="g8381"
     transform="scale(16)">
    <circle
       cx="16"
       cy="16"
       fill="#4c5a95"
       r="16"
       id="circle8377" />
    <path
       d="m 27,11.263 -0.044,-0.707 -0.218,0.593 -1.226,1.03 -1.404,0.209 -0.42,-0.389 1.231,-1.633 L 26.179,10 24.815,10.028 22.832,11.41 20.973,11.282 18.363,10 16.821,10.299 12.01,14.145 9.692,14.862 8.738,15.793 7.032,15.816 6.187,17.326 5,17.654 6.122,17.801 7.165,16.448 8.777,16.771 8.747,18.219 7.942,20.303 7.482,22.231 6.987,23 8.243,22.734 8.1,21.946 l 1.068,-2.118 2.056,-0.797 0.796,-1.268 1.345,-0.94 2.67,0.375 2.689,-1.135 -0.455,1.795 -1.196,0.104 -0.341,1.472 1.023,-0.655 1.696,-0.707 1.325,-1.999 0.084,-0.945 0.712,0.707 2.071,1.249 1.177,-0.537 -0.069,-2.639 -0.342,-1.021 1.538,-0.375 z"
       fill="#ffffff"
       id="path8379" />
  </g>
</svg>
