<svg width="512" height="512" viewBox="0 0 512 512" fill="none" xmlns="http://www.w3.org/2000/svg">
<path d="M256 0V512C114.615 512 0 397.385 0 256C0 114.615 114.615 0 256 0Z" fill="#0295AA"/>
<path d="M256 512V0C397.385 0 512 114.615 512 256C512 397.385 397.385 512 256 512Z" fill="#4ACFD9"/>
<path fill-rule="evenodd" clip-rule="evenodd" d="M256.344 266.36L299.842 248.738L292.577 277.377L273.478 279.037L268.033 302.523L284.369 292.072L311.452 280.792L332.61 248.897L333.952 233.819L345.322 245.1L378.393 265.028L397.188 256.46L396.086 214.354L390.625 198.063L415.185 192.08L432 172.152L431.298 160.871L427.817 170.333L408.239 186.767L385.819 190.101L379.112 183.895L398.769 157.84L418.89 152L397.109 152.447L365.442 174.497L335.756 172.455L294.078 152L269.454 156.771L256.344 167.242V266.36Z" fill="white"/>
<path fill-rule="evenodd" clip-rule="evenodd" d="M256.344 167.273L191.941 218.715L154.926 230.155L139.691 245.009L112.449 245.376L98.955 269.469L80 274.702L97.917 277.048L114.572 255.46L140.314 260.613L139.835 283.717L126.98 316.968L119.635 347.73L111.73 360L131.787 355.755L129.503 343.183L146.558 309.389L179.39 296.673L192.101 276.441L213.579 261.443L256 266.5L256.344 266.364V167.273Z" fill="#E6EAEA"/>
</svg>
