<svg width="512" height="512" viewBox="0 0 512 512" fill="none" xmlns="http://www.w3.org/2000/svg">
<g clip-path="url(#clip0_115_604)">
<path d="M256 -1V511C114.615 511 0 396.385 0 255C0 113.615 114.615 -1 256 -1Z" fill="#365558"/>
<path d="M256 511V-1C397.385 -1 512 113.615 512 255C512 396.385 397.385 511 256 511Z" fill="#0295AA"/>
<path d="M58.5 286C49.9309 286 43 292.931 43 301.5C43 310.069 49.9309 317 58.5 317C67.0691 317 74 310.069 74 301.5C74 292.931 67.0691 286 58.5 286Z" fill="#E6EAEA" stroke="#E6EAEA" stroke-width="4" stroke-miterlimit="10"/>
<path d="M373.553 156.923L285.176 94.5996H254.414V100.093H283.221L368.615 160.319L401.331 257.7L368.717 355.08L283.324 415.307H254.414V421H285.176L373.553 358.676L407.299 257.8L373.553 156.923Z" fill="white" stroke="white" stroke-width="4" stroke-miterlimit="10"/>
<path d="M178.228 415.307L93.349 355.08L60.9313 257.7L93.349 160.319L178.228 100.093H254.415V94.5996H176.387L88.5426 156.923L55 257.8L88.5426 358.676L175.671 420.5L176.387 421H254.415V415.307H178.228Z" fill="#E6EAEA" stroke="#E6EAEA" stroke-width="4" stroke-miterlimit="10"/>
<path d="M175.896 85C169.235 85 163.848 90.5447 163.848 97.4C163.848 104.255 169.235 109.8 175.896 109.8C182.556 109.8 187.944 104.255 187.944 97.4C187.944 90.5447 182.556 85 175.896 85Z" fill="#E6EAEA" stroke="#E6EAEA" stroke-width="4" stroke-miterlimit="10"/>
<path d="M295.958 97.4C295.958 104.255 290.385 109.8 283.495 109.8C276.604 109.8 271.031 104.255 271.031 97.4C271.031 90.5447 276.604 85 283.495 85C290.385 85 295.958 90.5447 295.958 97.4Z" fill="white" stroke="white" stroke-width="4" stroke-miterlimit="10"/>
<path d="M176.728 404.2C170.067 404.2 164.68 409.745 164.68 416.6C164.68 423.455 170.067 429 176.728 429C183.388 429 188.776 423.455 188.776 416.6C188.776 409.745 183.388 404.2 176.728 404.2Z" fill="#E6EAEA" stroke="#E6EAEA" stroke-width="4" stroke-miterlimit="10"/>
<path d="M90.3136 344.2C83.6529 344.2 78.2656 349.745 78.2656 356.6C78.2656 363.455 83.6529 369 90.3136 369C96.9743 369 102.362 363.455 102.362 356.6C102.362 349.745 96.9743 344.2 90.3136 344.2Z" fill="#E6EAEA" stroke="#E6EAEA" stroke-width="4" stroke-miterlimit="10"/>
<path d="M90.3136 147.4C83.6529 147.4 78.2656 152.766 78.2656 159.4C78.2656 166.035 83.6529 171.4 90.3136 171.4C96.9743 171.4 102.362 166.035 102.362 159.4C102.362 152.766 96.9743 147.4 90.3136 147.4Z" fill="#E6EAEA" stroke="#E6EAEA" stroke-width="4" stroke-miterlimit="10"/>
<path d="M391.512 258.2C391.512 265.055 397.085 270.6 403.975 270.6C410.865 270.6 416.439 265.055 416.439 258.2C416.439 251.345 410.865 245.8 403.975 245.8C397.085 245.8 391.512 251.345 391.512 258.2Z" fill="white" stroke="white" stroke-width="4" stroke-miterlimit="10"/>
<path d="M359.105 159C359.105 165.855 364.679 171.4 371.569 171.4C378.459 171.4 384.032 165.855 384.032 159C384.032 152.144 378.459 146.6 371.569 146.6C364.679 146.6 359.105 152.245 359.105 159Z" fill="white" stroke="white" stroke-width="4" stroke-miterlimit="10"/>
<path d="M296.79 416.6C296.79 423.455 291.217 429 284.327 429C277.436 429 271.863 423.455 271.863 416.6C271.863 409.745 277.436 404.2 284.327 404.2C291.217 404.2 296.79 409.745 296.79 416.6Z" fill="white" stroke="white" stroke-width="4" stroke-miterlimit="10"/>
<path d="M314.654 179.984L254.414 162.538V168.485L314.963 185.932L369.014 163.826V351.774L314.963 329.669L254.414 347.115V353.063L314.654 335.616L374.894 360.2V155.4L314.654 179.984Z" fill="white" stroke="white" stroke-width="4" stroke-miterlimit="10"/>
<path d="M235.092 353.321L164.585 330.388L163.66 330.089L92.3299 352.523V163.178L162.735 185.213L163.66 185.512L235.092 162.28L254.415 167.964V161.981L235.914 156.597L234.989 156.298L163.66 179.53L86.5742 155.4V360.2L163.66 336.071L234.989 359.303L254.415 353.62V347.637L235.092 353.321Z" fill="#E6EAEA" stroke="#E6EAEA" stroke-width="4" stroke-miterlimit="10"/>
<path d="M403.144 255.4L254.414 255.485V260.2L403.144 260.116V255.4Z" fill="white" stroke="white" stroke-width="4" stroke-miterlimit="10"/>
<path d="M58.3242 255.485V260.2L254.415 260.116V255.4L58.3242 255.485Z" fill="#E6EAEA" stroke="#E6EAEA" stroke-width="4" stroke-miterlimit="10"/>
<path d="M318.393 182.743L285.157 92.2002L254.414 130.449V139.713L283.184 103.854L312.057 182.544L280.068 250.277L254.414 194.796V208.541L276.848 257.05L254.414 306.356V320.201L280.068 264.023L312.057 333.05L284.015 410.345L254.414 375.084V384.049L286.196 421.8L318.393 332.851L283.288 257.05L318.393 182.743Z" fill="white" stroke="white" stroke-width="4" stroke-miterlimit="10"/>
<path d="M238.479 355.981L254.415 320.324V306.341L235.312 349.089L198.025 257.799L235.312 166.21L254.415 208.359V194.576L238.479 159.518L254.415 139.342V130.154L234.903 154.924L173.815 91.4004L161.454 181.092L86.5742 257.899L161.556 334.407L174.836 422.6L235.005 360.775L254.415 384.347V375.357L238.479 355.981ZM177.799 103.686L231.736 159.718L194.859 250.308L167.174 181.991L177.799 103.686ZM94.4401 257.899L163.19 187.484L191.794 257.899L163.19 328.015L94.4401 257.899ZM178.718 410.415L167.174 333.508L194.859 265.59L231.736 355.881L178.718 410.415Z" fill="#E6EAEA" stroke="#E6EAEA" stroke-width="4" stroke-miterlimit="10"/>
<path d="M317.221 334.6L312.578 331.315L368.503 257.949L312.578 184.285L317.221 181L375.726 257.949L317.221 334.6Z" fill="white" stroke="white" stroke-width="4" stroke-miterlimit="10"/>
<path d="M163.018 170.6C156.128 170.6 150.555 175.965 150.555 182.6C150.555 189.234 156.128 194.6 163.018 194.6C169.908 194.6 175.482 189.234 175.482 182.6C175.482 175.965 169.908 170.6 163.018 170.6Z" fill="#E6EAEA" stroke="#E6EAEA" stroke-width="4" stroke-miterlimit="10"/>
<path d="M235.719 147.4C228.599 147.4 222.84 152.766 222.84 159.4C222.84 166.035 228.599 171.4 235.719 171.4C242.839 171.4 248.598 166.035 248.598 159.4C248.598 152.766 242.839 147.4 235.719 147.4Z" fill="#E6EAEA" stroke="#E6EAEA" stroke-width="4" stroke-miterlimit="10"/>
<path d="M323.766 174.112C318.74 169.429 310.573 169.429 305.547 174.112C300.521 178.795 300.521 186.404 305.547 191.087C310.573 195.77 318.74 195.77 323.766 191.087C328.792 186.404 328.792 178.795 323.766 174.112Z" fill="white" stroke="white" stroke-width="4" stroke-miterlimit="10"/>
<path d="M90.3136 244.2C83.6529 244.2 78.2656 249.924 78.2656 257C78.2656 264.077 83.6529 269.8 90.3136 269.8C96.9743 269.8 102.362 264.077 102.362 257C102.362 249.924 96.9743 244.2 90.3136 244.2Z" fill="#E6EAEA" stroke="#E6EAEA" stroke-width="4" stroke-miterlimit="10"/>
<path d="M192.512 244.2C185.392 244.2 179.633 249.924 179.633 257C179.633 264.077 185.392 269.8 192.512 269.8C199.632 269.8 205.391 264.077 205.391 257C205.391 249.924 199.632 244.2 192.512 244.2Z" fill="#E6EAEA" stroke="#E6EAEA" stroke-width="4" stroke-miterlimit="10"/>
<path d="M290.144 257C290.144 249.924 284.386 244.2 277.266 244.2C270.146 244.2 264.387 249.924 264.387 257C264.387 264.077 270.146 269.8 277.266 269.8C284.386 269.8 290.144 264.077 290.144 257Z" fill="white" stroke="white" stroke-width="4" stroke-miterlimit="10"/>
<path d="M384.032 258.2C384.032 251.345 378.459 245.8 371.569 245.8C364.679 245.8 359.105 251.345 359.105 258.2C359.105 265.055 364.679 270.6 371.569 270.6C378.459 270.6 384.032 265.055 384.032 258.2Z" fill="white" stroke="white" stroke-width="4" stroke-miterlimit="10"/>
<path d="M327.535 333C327.535 326.366 321.776 321 314.656 321C307.536 321 301.777 326.366 301.777 333C301.777 339.634 307.536 345 314.656 345C321.776 345 327.535 339.634 327.535 333Z" fill="white" stroke="white" stroke-width="4" stroke-miterlimit="10"/>
<path d="M463.799 394.6C463.799 384.89 455.791 377 445.935 377C436.078 377 428.07 384.89 428.07 394.6C428.07 404.31 436.078 412.2 445.935 412.2C455.791 412.2 463.799 404.31 463.799 394.6Z" fill="white" stroke="white" stroke-width="4" stroke-miterlimit="10"/>
<path d="M230.697 345.184C224.105 347.719 221.071 354.835 223.896 360.879C226.616 367.021 234.254 369.848 240.741 367.216C247.332 364.681 250.366 357.565 247.541 351.521C244.716 345.379 237.183 342.552 230.697 345.184Z" fill="#E6EAEA" stroke="#E6EAEA" stroke-width="4" stroke-miterlimit="10"/>
<path d="M158.158 321.931C151.779 324.472 148.843 331.605 151.577 337.662C154.209 343.818 161.601 346.652 167.878 344.014C174.257 341.473 177.193 334.34 174.459 328.282C171.726 322.224 164.436 319.391 158.158 321.931Z" fill="#E6EAEA" stroke="#E6EAEA" stroke-width="4" stroke-miterlimit="10"/>
<path d="M444.517 397L369.078 358.823L371.743 353.8L447.182 391.977L444.517 397Z" fill="white" stroke="white" stroke-width="4" stroke-miterlimit="10"/>
</g>
<defs>
<clipPath id="clip0_115_604">
<rect width="512" height="512" fill="white"/>
</clipPath>
</defs>
</svg>
