<svg width="512" height="512" viewBox="0 0 512 512" fill="none" xmlns="http://www.w3.org/2000/svg">
<g clip-path="url(#clip0_1_627)">
<path d="M354.916 131.398C354.916 131.398 376.358 96.6045 387.022 50.1787C387.022 50.1787 494.005 89.8974 452.936 189.351L354.916 131.398Z" fill="#0295AA"/>
<path d="M452.936 189.456L461.898 293.835L502.853 288.91C502.853 288.91 513.518 285.556 511.816 267.426C510.001 247.514 506.484 206.119 506.484 206.119C506.484 206.119 508.299 196.163 483.34 192.914C452.936 187.779 452.936 189.456 452.936 189.456Z" fill="#0295AA"/>
<path d="M461.786 293.836L379.762 355.143L417.2 423.053C417.2 423.053 426.163 449.567 452.823 419.699C477.782 389.832 488.446 384.906 486.631 366.671C485.043 348.436 479.597 305.364 461.786 293.836Z" fill="#0295AA"/>
<path fill-rule="evenodd" clip-rule="evenodd" d="M256 181.78L256.895 182.749L351.399 131.398C351.399 131.398 299.182 66.8932 256 28.2744V181.78Z" fill="#0295AA"/>
<path fill-rule="evenodd" clip-rule="evenodd" d="M256 309.235C261.816 308.602 265.3 307.874 265.744 307.041L256 195.003V309.235Z" fill="#0295AA"/>
<path fill-rule="evenodd" clip-rule="evenodd" d="M230.255 512C230.44 512 230.624 512 230.809 512H230.255ZM256 508.628C262.34 506.624 268.103 503.583 272.892 499.136C294.333 481.006 378.059 355.038 378.059 355.038L265.744 308.612L256 326.896V508.628Z" fill="#0295AA"/>
<path fill-rule="evenodd" clip-rule="evenodd" d="M256.001 181.78L116.105 30.3716C116.105 30.3716 178.389 10.5646 206.978 0.503977C216.807 -2.71442 235.373 9.82646 256.001 28.2741V181.78Z" fill="#365558"/>
<path fill-rule="evenodd" clip-rule="evenodd" d="M256 195.003L255.08 184.426L12.6388 199.412C12.6388 199.412 -1.65587 201.089 0.159319 225.926C1.97451 259.042 5.49144 295.512 5.49144 295.512C5.49144 295.512 3.67625 310.394 35.7824 312.071C63.8356 313.444 215.747 313.617 256 309.235V195.003Z" fill="#365558"/>
<path fill-rule="evenodd" clip-rule="evenodd" d="M255.999 326.896L167.723 492.533C167.723 492.533 160.576 505.738 185.535 507.415C187.87 507.729 190.345 508.085 192.931 508.458C211.812 511.181 236.608 514.756 255.999 508.628V326.896Z" fill="#365558"/>
</g>
<defs>
<clipPath id="clip0_1_627">
<rect width="512" height="512" fill="white"/>
</clipPath>
</defs>
</svg>
