<svg width="512" height="512" viewBox="0 0 512 512" fill="none" xmlns="http://www.w3.org/2000/svg">
<path d="M256 0V512C114.615 512 0 397.385 0 256C0 114.615 114.615 0 256 0Z" fill="#E6EAEA"/>
<path d="M256 512V0C397.385 0 512 114.615 512 256C512 397.385 397.385 512 256 512Z" fill="white"/>
<path d="M335.598 155.735C335.598 155.735 352.852 127.737 361.433 90.3789C361.433 90.3789 447.521 122.34 414.473 202.369L335.598 155.735Z" fill="#0295AA"/>
<path d="M414.473 202.454L421.685 286.447L454.641 282.483C454.641 282.483 463.222 279.785 461.853 265.195C460.392 249.173 457.562 215.862 457.562 215.862C457.562 215.862 459.023 207.851 438.939 205.237C414.473 201.104 414.473 202.454 414.473 202.454Z" fill="#0295AA"/>
<path d="M421.593 286.447L355.59 335.78L385.716 390.426C385.716 390.426 392.928 411.762 414.381 387.728C434.466 363.694 443.047 359.73 441.586 345.057C440.308 330.383 435.926 295.724 421.593 286.447Z" fill="#0295AA"/>
<path fill-rule="evenodd" clip-rule="evenodd" d="M256 196.275L256.721 197.056L332.767 155.734C332.767 155.734 290.749 103.827 256 72.751V196.275Z" fill="#0295AA"/>
<path fill-rule="evenodd" clip-rule="evenodd" d="M256 298.838C260.68 298.329 263.484 297.743 263.841 297.072L256 206.917V298.838Z" fill="#0295AA"/>
<path fill-rule="evenodd" clip-rule="evenodd" d="M235.285 461.999C235.433 462 235.581 462 235.729 461.999H235.285ZM256 459.286C261.102 457.674 265.74 455.227 269.593 451.648C286.847 437.059 354.22 335.694 354.22 335.694L263.842 298.336L256 313.05V459.286Z" fill="#0295AA"/>
<path fill-rule="evenodd" clip-rule="evenodd" d="M255.997 72.7511C239.399 57.9069 224.459 47.8158 216.55 50.4055C193.545 58.5012 143.426 74.4396 143.426 74.4396L255.997 196.275V72.7511Z" fill="#365558"/>
<path fill-rule="evenodd" clip-rule="evenodd" d="M256 206.916L255.26 198.405L60.1702 210.464C60.1702 210.464 48.6675 211.814 50.1282 231.8C51.5889 258.448 54.4189 287.795 54.4189 287.795C54.4189 287.795 52.9582 299.77 78.7937 301.119C101.368 302.225 223.609 302.364 256 298.838V206.916Z" fill="#365558"/>
<path fill-rule="evenodd" clip-rule="evenodd" d="M255.999 313.051L184.966 446.336C184.966 446.336 179.214 456.961 199.299 458.311C201.177 458.563 203.169 458.85 205.25 459.15C220.443 461.341 240.396 464.218 255.999 459.287V313.051Z" fill="#365558"/>
</svg>
