<?xml version="1.0" encoding="UTF-8" standalone="no"?>
<!-- Generator: Adobe Illustrator 24.0.0, SVG Export Plug-In . SVG Version: 6.00 Build 0)  -->

<svg
   version="1.1"
   id="qnt"
   x="0px"
   y="0px"
   viewBox="0 0 512.00001 511.99999"
   xml:space="preserve"
   width="512"
   height="512"
   xmlns="http://www.w3.org/2000/svg"
   xmlns:svg="http://www.w3.org/2000/svg"><defs
   id="defs1637" />





<g
   id="g1725"
   transform="matrix(1.1344938,0,0,1.0479865,0.04587004,-0.02001597)"><path
     d="m 102.3,29 124.1,145.4 83.3,-49 C 309.7,125.4 209.2,-9 182.4,0.5 157.2,10.1 102.3,29 102.3,29 Z"
     id="path1622" /><path
     d="m 312.8,125.4 c 0,0 18.9,-33.2 28.3,-77.5 0,0 94.3,37.9 58.1,132.8 z"
     id="path1624" /><path
     d="m 399.2,180.8 7.9,99.6 36.1,-4.7 c 0,0 9.4,-3.2 7.9,-20.5 -1.6,-19 -4.7,-58.5 -4.7,-58.5 0,0 1.6,-9.5 -20.4,-12.6 -26.8,-4.9 -26.8,-3.3 -26.8,-3.3 z"
     id="path1626" /><path
     d="m 407,280.4 -72.3,58.5 33,64.8 c 0,0 7.9,25.3 31.4,-3.2 22,-28.5 31.4,-33.2 29.8,-50.6 -1.4,-17.4 -6.2,-58.5 -21.9,-69.5 z"
     id="path1628" /><path
     d="m 333.2,338.8 -99,-44.3 -86.4,175.5 c 0,0 -6.3,12.6 15.7,14.2 22,3.2 58.1,11.1 77,-7.9 18.9,-17.3 92.7,-137.5 92.7,-137.5 z"
     id="path1630" /><path
     d="M 234.2,293 224.8,176 11.1,190.3 c 0,0 -12.6,1.6 -11,25.3 1.6,31.6 4.7,66.4 4.7,66.4 0,0 -1.6,14.2 26.7,15.8 28.3,1.5 199.6,1.5 202.7,-4.8 z"
     id="path1632" /></g>
</svg>
