<?xml version="1.0" encoding="UTF-8" standalone="no"?>
<svg
   width="512"
   height="512"
   viewBox="0 0 512 512"
   version="1.1"
   id="svg6760"
   xmlns="http://www.w3.org/2000/svg"
   xmlns:svg="http://www.w3.org/2000/svg">
  <defs
     id="defs6764" />
  <g
     fill="none"
     id="g6758"
     transform="scale(16)">
    <circle
       fill="#080817"
       cx="16"
       cy="16"
       r="16"
       id="circle6754" />
    <path
       d="m 9.44,9.754 1.564,-0.901 0.222,0.363 5.8,-3.35 L 16.599,5.613 16.171,5.377 15.966,5.25 6.5,10.719 v 0.236 L 9.218,9.39 Z m 0,3.444 4.55,-2.623 0.205,0.365 L 20.012,7.588 19.586,7.335 19.159,7.099 18.952,6.972 6.5,14.146 v 0.253 l 2.718,-1.564 z m 0,1.722 6.036,-3.49 0.205,0.363 5.817,-3.35 L 21.072,8.205 20.642,7.951 20.438,7.825 6.5,15.87 v 0.25 l 2.718,-1.578 z m 0,1.708 7.568,-4.363 0.208,0.366 L 22.984,9.296 22.555,9.057 22.129,8.807 21.924,8.694 6.5,17.593 v 0.236 l 2.718,-1.564 z m 0,1.722 9.054,-5.23 0.207,0.38 L 24.47,10.166 24.04,9.912 23.632,9.674 23.41,9.549 6.5,19.315 v 0.236 L 9.218,17.987 Z M 25.115,10.529 24.895,10.402 6.5,21.037 v 0.236 l 2.718,-1.564 0.222,0.363 9.054,-5.23 0.207,0.364 6.73,-3.871 V 10.719 Z M 7.67,22.318 l 1.517,-0.87 0.221,0.364 9.04,-5.23 0.22,0.377 6.764,-3.919 V 11.824 L 7.465,22.192 Z m 10.778,-4.014 0.22,0.38 6.764,-3.92 V 13.547 L 8.95,23.06 l 0.204,0.127 1.55,-0.901 0.219,0.363 m -0.282,1.391 1.564,-0.9 0.204,0.38 6.04,-3.494 0.218,0.363 6.765,-3.902 v -1.232 l -14.998,8.659 z m 1.501,0.853 1.549,-0.884 0.204,0.363 4.553,-2.624 0.22,0.363 6.764,-3.902 V 16.976 L 11.92,24.783 Z m 1.264,0.743 0.221,0.127 1.55,-0.902 0.204,0.38 3.067,-1.77 0.22,0.365 6.764,-3.905 V 18.7 Z m 1.707,0.979 1.55,-0.884 0.219,0.363 1.566,-0.916 0.22,0.38 6.764,-3.905 V 20.421 L 14.906,26.506 Z M 18.526,6.719 18.1,6.483 17.673,6.229 17.452,6.103 6.5,12.44 v 0.236 l 2.718,-1.564 0.222,0.363 3.064,-1.768 0.208,0.363 z"
       fill="#ffffff"
       id="path6756" />
  </g>
</svg>
