<svg width="512" height="512" viewBox="0 0 512 512" fill="none" xmlns="http://www.w3.org/2000/svg">
<g clip-path="url(#clip0_115_554)">
<path d="M257 0V512C115.615 512 1 397.385 1 256C1 114.615 115.615 0 257 0Z" fill="#365558"/>
<path d="M257 512V0C398.385 0 513 114.615 513 256C513 397.385 398.385 512 257 512Z" fill="#0295AA"/>
<path fill-rule="evenodd" clip-rule="evenodd" d="M257.07 449.168L269.708 441.961L273.882 448.879L303.73 431.421L307.923 438.663L436.842 364.235V340.754L257.07 444.679V449.168ZM257.07 425.813L303.73 398.886L307.923 405.843L436.842 331.415V307.952L257.07 411.636V425.813ZM257.07 392.937L303.73 366.046L307.923 372.965L436.842 298.594V275.093L257.07 378.962V392.937ZM257.07 360.228L303.749 333.225L307.904 340.144L436.842 265.773V242.291L257.07 346.082V360.228ZM257.07 327.346L303.73 300.404L307.923 307.647L436.842 232.933V209.738L257.07 313.498V327.346ZM257.07 294.578L303.73 267.584L307.923 274.769L436.842 200.074V176.898L257.07 280.637V294.578ZM257.07 261.879L304.606 234.42L308.552 241.358L436.823 167.577V155.837L430.801 152.215L426.607 149.795L257.07 247.812V261.879ZM257.07 229.058L304.606 201.599L308.552 208.842L418.507 145.297L410.311 140.456L402.535 135.919L398.304 133.537L257.07 215.103V229.058ZM257.07 196.38L276.284 185.303L280.248 192.279L390.184 128.715L382.008 124.16L373.888 119.395L369.981 117.241L257.07 182.386V196.38ZM257.07 172.806L361.862 112.457L353.742 107.921L345.547 103.079L341.658 100.678L257.07 149.502V172.806ZM257.07 140.225L333.539 96.1608L325.42 91.3387L317.281 86.8406L313.336 84.4201L257.07 116.836V140.225ZM257.07 107.348L305.216 79.598L297.097 75.0999L288.958 70.2587L284.746 67.8572L257.07 83.8709V107.348ZM257.07 74.6356L276.627 63.34L268.488 58.5179L260.331 54.0198L257.07 52V74.6356Z" fill="white"/>
<path fill-rule="evenodd" clip-rule="evenodd" d="M257.068 53.1921L256.419 52.79L76 157.027V161.526L127.804 131.697L132.035 138.635L161.845 121.462L166.076 128.381L257.068 75.8251V53.1921ZM257.068 85.0604L76 189.829V194.327L127.804 164.518L132.035 171.437L190.434 137.739L194.399 144.658L257.068 108.537V85.0604ZM257.068 118.026L76 222.345V227.167L127.804 197.358L132.035 204.276L218.757 154.283L222.664 161.24L257.068 141.415V118.026ZM257.068 150.692L76 255.204V259.969L127.804 229.893L132.035 237.097L247.08 170.579L250.987 177.498L257.068 173.996V150.692ZM257.068 183.575L76 288.044V292.542L127.804 262.733L132.035 269.651L257.068 197.569V183.575ZM257.068 216.293L76 320.865V325.363L127.804 295.553L132.035 302.472L257.068 230.248V216.293ZM257.068 249.002L76 353.685V358.183L127.804 328.374L132.035 335.293L257.068 263.068V249.002ZM257.068 281.826L94.3926 375.699L98.2998 378.101L127.213 361.519L131.426 368.457L257.068 295.767V281.826ZM257.068 314.687L122.696 392.243L126.584 394.664L156.127 377.491L160.301 384.41L257.068 328.536V314.687ZM257.068 347.271L150.981 408.52L154.926 410.922L184.736 393.768L188.624 401.011L257.068 361.417V347.271ZM257.068 380.152L179.304 425.083L183.535 427.18L213.058 410.331L216.946 417.249L257.068 394.126V380.152ZM257.068 412.825L207.626 441.341L211.838 443.761L241.381 426.57L245.269 433.812L257.068 427.003V412.825ZM257.068 445.868L236.216 457.923L240.161 460L257.068 450.358V445.868Z" fill="#E6EAEA"/>
</g>
<defs>
<clipPath id="clip0_115_554">
<rect width="512" height="512" fill="white"/>
</clipPath>
</defs>
</svg>
