<svg width="512" height="512" viewBox="0 0 512 512" fill="none" xmlns="http://www.w3.org/2000/svg">
<g clip-path="url(#clip0_1_635)">
<path fill-rule="evenodd" clip-rule="evenodd" d="M256.268 498.407L272.126 489.362L277.364 498.044L314.82 476.135L320.082 485.224L481.863 391.824V362.357L256.268 492.773V498.407ZM256.268 469.099L314.82 435.307L320.082 444.037L481.863 350.638V321.194L256.268 451.307V469.099ZM256.268 427.842L314.82 394.097L320.082 402.779L481.863 309.451V279.96L256.268 410.305V427.842ZM256.268 386.795L314.844 352.91L320.058 361.592L481.863 268.264V238.797L256.268 369.043V386.795ZM256.268 345.531L314.82 311.723L320.082 320.812L481.863 227.053V197.945L256.268 328.153V345.531ZM256.268 304.411L314.82 270.536L320.082 279.553L481.863 185.818V156.734L256.268 286.916V304.411ZM256.268 263.377L315.92 228.919L320.871 237.625L481.84 145.038V130.305L474.281 125.76L469.019 122.723L256.268 245.724V263.377ZM256.268 222.19L315.92 187.732L320.871 196.821L458.854 117.078L448.57 111.003L438.811 105.31L433.501 102.32L256.268 204.678V222.19ZM256.268 181.182L280.378 167.282L285.353 176.036L423.312 96.2691L413.051 90.5527L402.862 84.5732L397.959 81.8705L256.268 163.62V181.182ZM256.268 151.599L387.77 75.8671L377.581 70.1746L367.296 64.0994L362.417 61.0857L256.268 122.355V151.599ZM256.268 110.713L352.228 55.4171L342.039 49.3659L331.826 43.7212L326.875 40.6836L256.268 81.3626V110.713ZM256.268 69.4552L316.685 34.6323L306.496 28.9877L296.283 22.9125L290.997 19.8988L256.268 39.9941V69.4552ZM256.268 28.4047L280.808 14.2303L270.595 8.17899L260.358 2.53433L256.268 0V28.4047Z" fill="#0295AA"/>
<path fill-rule="evenodd" clip-rule="evenodd" d="M256.27 1.49478L255.457 0.991211L29.0488 131.799V137.444L94.0581 100.012L99.3679 108.718L136.776 87.1679L142.086 95.8502L256.27 29.8988V1.49478ZM256.27 41.4883L29.0488 172.962V178.607L94.0581 141.199L99.3679 149.881L172.653 107.594L177.628 116.276L256.27 70.9494V41.4883ZM256.27 82.8567L29.0488 213.766V219.817L94.0581 182.41L99.3679 191.092L208.195 128.355L213.098 137.085L256.27 112.208V82.8567ZM256.27 123.849L29.0488 255.001V260.98L94.0581 223.238L99.3679 232.279L243.737 148.805L248.64 157.487L256.27 153.093V123.849ZM256.27 165.115L29.0488 296.212V301.856L94.0581 264.448L99.3679 273.131L256.27 182.676V165.115ZM256.27 206.172L29.0488 337.398V343.043L94.0581 305.635L99.3679 314.318L256.27 223.684V206.172ZM256.27 247.218L29.0488 378.585V384.23L94.0581 346.822L99.3679 355.504L256.27 264.871V247.218ZM256.27 288.41L52.1297 406.211L57.0329 409.224L93.3166 388.416L98.6025 397.122L256.27 305.905V288.41ZM256.27 329.647L87.648 426.972L92.5273 430.009L129.6 408.459L134.838 417.141L256.27 347.026V329.647ZM256.27 370.537L123.142 447.398L128.093 450.411L165.501 428.885L170.381 437.974L256.27 388.289V370.537ZM256.27 411.799L158.685 468.182L163.994 470.813L201.043 449.67L205.923 458.352L256.27 429.336V411.799ZM256.27 452.801L194.227 488.584L199.513 491.622L236.586 470.048L241.465 479.137L256.27 470.593V452.801ZM256.27 494.267L230.104 509.393L235.055 512L256.27 499.901V494.267Z" fill="#365558"/>
</g>
<defs>
<clipPath id="clip0_1_635">
<rect width="512" height="512" fill="white"/>
</clipPath>
</defs>
</svg>
