<svg width="512" height="512" viewBox="0 0 512 512" fill="none" xmlns="http://www.w3.org/2000/svg">
<path d="M256 0V512C114.615 512 0 397.385 0 256C0 114.615 114.615 0 256 0Z" fill="#F0353D"/>
<path d="M256 512V0C397.385 0 512 114.615 512 256C512 397.385 397.385 512 256 512Z" fill="#FD6A33"/>
<path fill-rule="evenodd" clip-rule="evenodd" d="M256 346.116L404.687 448.2V368.038L298.667 293.048L386.586 246.503V163.755L256 91V172.062L309.01 202.543L256 230.815V346.116Z" fill="white"/>
<path fill-rule="evenodd" clip-rule="evenodd" d="M256 91.0934L205.505 63L133 101.788V440.535L205.505 401.747V143.162L256 172.155V91.0934ZM256 230.909L231.4 244.01V329.343L256 346.209V230.909Z" fill="#E6EAEA"/>
</svg>
