<?xml version="1.0" encoding="utf-8"?>
<!-- Generator: Adobe Illustrator 25.4.1, SVG Export Plug-In . SVG Version: 6.00 Build 0)  -->
<svg version="1.1" id="svg9986" xmlns:svg="http://www.w3.org/2000/svg"
	 xmlns="http://www.w3.org/2000/svg" xmlns:xlink="http://www.w3.org/1999/xlink" x="0px" y="0px" viewBox="0 0 512 512"
	 style="enable-background:new 0 0 512 512;" xml:space="preserve">
<style type="text/css">
	.st0{fill:none;}
	.st1{fill:#365558;}
	.st2{fill:#0295AA;}
	.st3{fill:url(#New_Pattern_Swatch_5);}
	.st4{fill:#CF383F;}
	.st5{fill:#00A79D;}
	.st6{fill:url(#New_Pattern_Swatch_6);}
	.st7{fill:#DF6A3A;}
	.st8{fill:#FFFFFF;}
</style>
<pattern  y="512" width="128" height="128" patternUnits="userSpaceOnUse" id="New_Pattern_Swatch_5" viewBox="0 -128 128 128" style="overflow:visible;">
	<g>
		<rect y="-128" class="st0" width="128" height="128"/>
		<rect y="-128" class="st1" width="128" height="128"/>
	</g>
</pattern>
<pattern  y="512" width="128" height="128" patternUnits="userSpaceOnUse" id="New_Pattern_Swatch_6" viewBox="0 -128 128 128" style="overflow:visible;">
	<g>
		<rect y="-128" class="st0" width="128" height="128"/>
		<rect y="-128" class="st2" width="128" height="128"/>
	</g>
</pattern>
<g id="g9984" transform="scale(16)">
	<path class="st3" d="M16.2,32v0.1c0,0,0,0-0.1,0C7.2,32,0,24.8,0,16S7.2,0,16,0c0,0,0,0,0.1,0v4C9.4,4,4,9.4,4,16
		c0,4.6,2.8,8.3,6.6,8.6c2.1,0.2,4.1-0.5,5.5-1.1v2.9c-0.6,0.1-1.2,0.1-1.8,0.1c-3.9,0-6.2-1.5-6.2-1.5c0.1,0.1,0.2,0.2,0.3,0.3
		C8.2,25.2,8,25.1,8,25.1c1.9,2,4.5,2.9,8.1,2.9v4C16.1,32,16.2,32,16.2,32z"/>
	<path class="st4" d="M16.1,26.5c-0.7,0.1-1.3,0.1-1.9,0.1c-2.9,0-4.9-0.8-5.8-1.3c-0.1-0.1-0.2-0.2-0.3-0.3c0,0,2.3,1.5,6.2,1.5
		C14.9,26.5,15.5,26.5,16.1,26.5L16.1,26.5z"/>
	<path class="st5" d="M15.5,18.2l0.1,0.5l0.1-0.2l0,0l0,0l0.3,1.3l0-0.1l0.2-1.2l0,0.1l0-0.1l0.2,0.3l0.1-0.6H15.5z M18,17.7
		C17.9,17.7,17.9,17.7,18,17.7C17.9,17.7,17.9,17.6,18,17.7c-0.1-0.1-0.1-0.2-0.2-0.2c0,0-0.1-0.1-0.1-0.1c0,0,0,0-0.1-0.1
		c0,0,0,0,0,0c0,0,0,0-0.1-0.1c0,0,0,0,0,0c0,0,0,0-0.1,0c0,0,0,0,0,0c0,0-0.1,0-0.1-0.1c0,0-0.1-0.1-0.1-0.1c0,0,0,0,0,0
		c0,0,0,0,0,0c0,0,0,0,0,0c0,0,0,0-0.1,0c0,0,0,0,0,0c0,0,0,0-0.1,0c0,0-0.1,0-0.1,0v0c0,0,0,0,0,0v-2.1c0-0.3-0.5-1-0.7-1.4
		c0,0,0,0,0-0.1c-0.1,0.2-0.7,1.1-0.7,1.4v2.1c-0.5,0.2-0.9,0.5-1.2,0.9L18,17.7C18,17.8,18,17.7,18,17.7z M18,17.7
		C17.9,17.7,17.9,17.7,18,17.7C17.9,17.7,17.9,17.6,18,17.7c-0.1-0.1-0.1-0.2-0.2-0.2c0,0-0.1-0.1-0.1-0.1c0,0,0,0-0.1-0.1
		c0,0,0,0,0,0c0,0,0,0-0.1-0.1c0,0,0,0,0,0c0,0,0,0-0.1,0c0,0,0,0,0,0c0,0-0.1,0-0.1-0.1c0,0-0.1-0.1-0.1-0.1c0,0,0,0,0,0
		c0,0,0,0,0,0c0,0,0,0,0,0c0,0,0,0-0.1,0c0,0,0,0,0,0c0,0,0,0-0.1,0c0,0-0.1,0-0.1,0v0c0,0,0,0,0,0v-2.1c0-0.3-0.5-1-0.7-1.4
		c0,0,0,0,0-0.1c-0.1,0.2-0.7,1.1-0.7,1.4v2.1c-0.5,0.2-0.9,0.5-1.2,0.9L18,17.7C18,17.8,18,17.7,18,17.7z M15.5,18.2l0.1,0.5
		l0.1-0.2l0,0l0,0l0.3,1.3l0-0.1l0.2-1.2l0,0.1l0-0.1l0.2,0.3l0.1-0.6H15.5z M18,17.7C17.9,17.7,17.9,17.7,18,17.7
		C17.9,17.7,17.9,17.6,18,17.7c-0.1-0.1-0.1-0.2-0.2-0.2c0,0-0.1-0.1-0.1-0.1c0,0,0,0-0.1-0.1c0,0,0,0,0,0c0,0,0,0-0.1-0.1
		c0,0,0,0,0,0c0,0,0,0-0.1,0c0,0,0,0,0,0c0,0-0.1,0-0.1-0.1c0,0-0.1-0.1-0.1-0.1c0,0,0,0,0,0c0,0,0,0,0,0c0,0,0,0,0,0c0,0,0,0-0.1,0
		c0,0,0,0,0,0c0,0,0,0-0.1,0c0,0-0.1,0-0.1,0v0c0,0,0,0,0,0v-2.1c0-0.3-0.5-1-0.7-1.4c0,0,0,0,0-0.1c-0.1,0.2-0.7,1.1-0.7,1.4v2.1
		c-0.5,0.2-0.9,0.5-1.2,0.9L18,17.7C18,17.8,18,17.7,18,17.7z M15.5,18.2l0.1,0.5l0.1-0.2l0,0l0,0l0.3,1.3l0-0.1l0.2-1.2l0,0.1
		l0-0.1l0.2,0.3l0.1-0.6H15.5z M18,17.7C17.9,17.7,17.9,17.7,18,17.7C17.9,17.7,17.9,17.6,18,17.7c-0.1-0.1-0.1-0.2-0.2-0.2
		c0,0-0.1-0.1-0.1-0.1c0,0,0,0-0.1-0.1c0,0,0,0,0,0c0,0,0,0-0.1-0.1c0,0,0,0,0,0c0,0,0,0-0.1,0c0,0,0,0,0,0c0,0-0.1,0-0.1-0.1
		c0,0-0.1-0.1-0.1-0.1c0,0,0,0,0,0c0,0,0,0,0,0c0,0,0,0,0,0c0,0,0,0-0.1,0c0,0,0,0,0,0c0,0,0,0-0.1,0c0,0-0.1,0-0.1,0v0c0,0,0,0,0,0
		v-2.1c0-0.3-0.5-1-0.7-1.4c0,0,0,0,0-0.1c-0.1,0.2-0.7,1.1-0.7,1.4v2.1c-0.5,0.2-0.9,0.5-1.2,0.9L18,17.7C18,17.8,18,17.7,18,17.7z
		 M15.5,18.2l0.1,0.5l0.1-0.2l0,0l0,0l0.3,1.3l0-0.1l0.2-1.2l0,0.1l0-0.1l0.2,0.3l0.1-0.6H15.5z M18,17.7
		C17.9,17.7,17.9,17.7,18,17.7C17.9,17.7,17.9,17.6,18,17.7c-0.1-0.1-0.1-0.2-0.2-0.2c0,0-0.1-0.1-0.1-0.1c0,0,0,0-0.1-0.1
		c0,0,0,0,0,0c0,0,0,0-0.1-0.1c0,0,0,0,0,0c0,0,0,0-0.1,0c0,0,0,0,0,0c0,0-0.1,0-0.1-0.1c0,0-0.1-0.1-0.1-0.1c0,0,0,0,0,0
		c0,0,0,0,0,0c0,0,0,0,0,0c0,0,0,0-0.1,0c0,0,0,0,0,0c0,0,0,0-0.1,0c0,0-0.1,0-0.1,0v0c0,0,0,0,0,0v-2.1c0-0.3-0.5-1-0.7-1.4
		c0,0,0,0,0-0.1c-0.1,0.2-0.7,1.1-0.7,1.4v2.1c-0.5,0.2-0.9,0.5-1.2,0.9L18,17.7C18,17.8,18,17.7,18,17.7z M15.5,18.2l0.1,0.5
		l0.1-0.2l0,0l0,0l0.3,1.3l0-0.1l0.2-1.2l0,0.1l0-0.1l0.2,0.3l0.1-0.6H15.5z M18,17.7C17.9,17.7,17.9,17.7,18,17.7
		C17.9,17.7,17.9,17.6,18,17.7c-0.1-0.1-0.1-0.2-0.2-0.2c0,0-0.1-0.1-0.1-0.1c0,0,0,0-0.1-0.1c0,0,0,0,0,0c0,0,0,0-0.1-0.1
		c0,0,0,0,0,0c0,0,0,0-0.1,0c0,0,0,0,0,0c0,0-0.1,0-0.1-0.1c0,0-0.1-0.1-0.1-0.1c0,0,0,0,0,0c0,0,0,0,0,0c0,0,0,0,0,0c0,0,0,0-0.1,0
		c0,0,0,0,0,0c0,0,0,0-0.1,0c0,0-0.1,0-0.1,0v0c0,0,0,0,0,0v-2.1c0-0.3-0.5-1-0.7-1.4c0,0,0,0,0-0.1c-0.1,0.2-0.7,1.1-0.7,1.4v2.1
		c-0.5,0.2-0.9,0.5-1.2,0.9L18,17.7C18,17.8,18,17.7,18,17.7z M15.5,18.2l0.1,0.5l0.1-0.2l0,0l0,0l0.3,1.3l0-0.1l0.2-1.2l0,0.1
		l0-0.1l0.2,0.3l0.1-0.6H15.5z M18,17.7C17.9,17.7,17.9,17.7,18,17.7C17.9,17.7,17.9,17.6,18,17.7c-0.1-0.1-0.1-0.2-0.2-0.2
		c0,0-0.1-0.1-0.1-0.1c0,0,0,0-0.1-0.1c0,0,0,0,0,0c0,0,0,0-0.1-0.1c0,0,0,0,0,0c0,0,0,0-0.1,0c0,0,0,0,0,0c0,0-0.1,0-0.1-0.1
		c0,0-0.1-0.1-0.1-0.1c0,0,0,0,0,0c0,0,0,0,0,0c0,0,0,0,0,0c0,0,0,0-0.1,0c0,0,0,0,0,0c0,0,0,0-0.1,0c0,0-0.1,0-0.1,0v0c0,0,0,0,0,0
		v-2.1c0-0.3-0.5-1-0.7-1.4c0,0,0,0,0-0.1c-0.1,0.2-0.7,1.1-0.7,1.4v2.1c-0.5,0.2-0.9,0.5-1.2,0.9L18,17.7C18,17.8,18,17.7,18,17.7z
		 M15.5,18.2l0.1,0.5l0.1-0.2l0,0l0,0l0.3,1.3l0-0.1l0.2-1.2l0,0.1l0-0.1l0.2,0.3l0.1-0.6H15.5z M18,17.7
		C17.9,17.7,17.9,17.7,18,17.7C17.9,17.7,17.9,17.6,18,17.7c-0.1-0.1-0.1-0.2-0.2-0.2c0,0-0.1-0.1-0.1-0.1c0,0,0,0-0.1-0.1
		c0,0,0,0,0,0c0,0,0,0-0.1-0.1c0,0,0,0,0,0c0,0,0,0-0.1,0c0,0,0,0,0,0c0,0-0.1,0-0.1-0.1c0,0-0.1-0.1-0.1-0.1c0,0,0,0,0,0
		c0,0,0,0,0,0c0,0,0,0,0,0c0,0,0,0-0.1,0c0,0,0,0,0,0c0,0,0,0-0.1,0c0,0-0.1,0-0.1,0v0c0,0,0,0,0,0v-2.1c0-0.3-0.5-1-0.7-1.4
		c0,0,0,0,0-0.1c-0.1,0.2-0.7,1.1-0.7,1.4v2.1c-0.5,0.2-0.9,0.5-1.2,0.9L18,17.7C18,17.8,18,17.7,18,17.7z M15.5,18.2l0.1,0.5
		l0.1-0.2l0,0l0,0l0.3,1.3l0-0.1l0.2-1.2l0,0.1l0-0.1l0.2,0.3l0.1-0.6H15.5z M18,17.7C17.9,17.7,17.9,17.7,18,17.7
		C17.9,17.7,17.9,17.6,18,17.7c-0.1-0.1-0.1-0.2-0.2-0.2c0,0-0.1-0.1-0.1-0.1c0,0,0,0-0.1-0.1c0,0,0,0,0,0c0,0,0,0-0.1-0.1
		c0,0,0,0,0,0c0,0,0,0-0.1,0c0,0,0,0,0,0c0,0-0.1,0-0.1-0.1c0,0-0.1-0.1-0.1-0.1c0,0,0,0,0,0c0,0,0,0,0,0c0,0,0,0,0,0c0,0,0,0-0.1,0
		c0,0,0,0,0,0c0,0,0,0-0.1,0c0,0-0.1,0-0.1,0v0c0,0,0,0,0,0v-2.1c0-0.3-0.5-1-0.7-1.4c0,0,0,0,0-0.1c-0.1,0.2-0.7,1.1-0.7,1.4v2.1
		c-0.5,0.2-0.9,0.5-1.2,0.9L18,17.7C18,17.8,18,17.7,18,17.7z M15.5,18.2l0.1,0.5l0.1-0.2l0,0l0,0l0.3,1.3l0-0.1l0.2-1.2l0,0.1
		l0-0.1l0.2,0.3l0.1-0.6H15.5z M18,17.7C17.9,17.7,17.9,17.7,18,17.7C17.9,17.7,17.9,17.6,18,17.7c-0.1-0.1-0.1-0.2-0.2-0.2
		c0,0-0.1-0.1-0.1-0.1c0,0,0,0-0.1-0.1c0,0,0,0,0,0c0,0,0,0-0.1-0.1c0,0,0,0,0,0c0,0,0,0-0.1,0c0,0,0,0,0,0c0,0-0.1,0-0.1-0.1
		c0,0-0.1-0.1-0.1-0.1c0,0,0,0,0,0c0,0,0,0,0,0c0,0,0,0,0,0c0,0,0,0-0.1,0c0,0,0,0,0,0c0,0,0,0-0.1,0c0,0-0.1,0-0.1,0v0c0,0,0,0,0,0
		v-2.1c0-0.3-0.5-1-0.7-1.4c0,0,0,0,0-0.1c-0.1,0.2-0.7,1.1-0.7,1.4v2.1c-0.5,0.2-0.9,0.5-1.2,0.9L18,17.7C18,17.8,18,17.7,18,17.7z
		 M15.5,18.2l0.1,0.5l0.1-0.2l0,0l0,0l0.3,1.3l0-0.1l0.2-1.2l0,0.1l0-0.1l0.2,0.3l0.1-0.6H15.5z M18,17.7
		C17.9,17.7,17.9,17.7,18,17.7C17.9,17.7,17.9,17.6,18,17.7c-0.1-0.1-0.1-0.2-0.2-0.2c0,0-0.1-0.1-0.1-0.1c0,0,0,0-0.1-0.1
		c0,0,0,0,0,0c0,0,0,0-0.1-0.1c0,0,0,0,0,0c0,0,0,0-0.1,0c0,0,0,0,0,0c0,0-0.1,0-0.1-0.1c0,0-0.1-0.1-0.1-0.1c0,0,0,0,0,0
		c0,0,0,0,0,0c0,0,0,0,0,0c0,0,0,0-0.1,0c0,0,0,0,0,0c0,0,0,0-0.1,0c0,0-0.1,0-0.1,0v0c0,0,0,0,0,0v-2.1c0-0.3-0.5-1-0.7-1.4
		c0,0,0,0,0-0.1c-0.1,0.2-0.7,1.1-0.7,1.4v2.1c-0.5,0.2-0.9,0.5-1.2,0.9L18,17.7C18,17.8,18,17.7,18,17.7z M15.5,18.2l0.1,0.5
		l0.1-0.2l0,0l0,0l0.3,1.3l0-0.1l0.2-1.2l0,0.1l0-0.1l0.2,0.3l0.1-0.6H15.5z M18,17.7C17.9,17.7,17.9,17.7,18,17.7
		C17.9,17.7,17.9,17.6,18,17.7c-0.1-0.1-0.1-0.2-0.2-0.2c0,0-0.1-0.1-0.1-0.1c0,0,0,0-0.1-0.1c0,0,0,0,0,0c0,0,0,0-0.1-0.1
		c0,0,0,0,0,0c0,0,0,0-0.1,0c0,0,0,0,0,0c0,0-0.1,0-0.1-0.1c0,0-0.1-0.1-0.1-0.1c0,0,0,0,0,0c0,0,0,0,0,0c0,0,0,0,0,0c0,0,0,0-0.1,0
		c0,0,0,0,0,0c0,0,0,0-0.1,0c0,0-0.1,0-0.1,0v0c0,0,0,0,0,0v-2.1c0-0.3-0.5-1-0.7-1.4c0,0,0,0,0-0.1c-0.1,0.2-0.7,1.1-0.7,1.4v2.1
		c-0.5,0.2-0.9,0.5-1.2,0.9L18,17.7C18,17.8,18,17.7,18,17.7z M15.5,18.2l0.1,0.5l0.1-0.2l0,0l0,0l0.3,1.3l0-0.1l0.2-1.2l0,0.1
		l0-0.1l0.2,0.3l0.1-0.6H15.5z M18,17.7C17.9,17.7,17.9,17.7,18,17.7C17.9,17.7,17.9,17.6,18,17.7c-0.1-0.1-0.1-0.2-0.2-0.2
		c0,0-0.1-0.1-0.1-0.1c0,0,0,0-0.1-0.1c0,0,0,0,0,0c0,0,0,0-0.1-0.1c0,0,0,0,0,0c0,0,0,0-0.1,0c0,0,0,0,0,0c0,0-0.1,0-0.1-0.1
		c0,0-0.1-0.1-0.1-0.1c0,0,0,0,0,0c0,0,0,0,0,0c0,0,0,0,0,0c0,0,0,0-0.1,0c0,0,0,0,0,0c0,0,0,0-0.1,0c0,0-0.1,0-0.1,0v0c0,0,0,0,0,0
		v-2.1c0-0.3-0.5-1-0.7-1.4c0,0,0,0,0-0.1c-0.1,0.2-0.7,1.1-0.7,1.4v2.1c-0.5,0.2-0.9,0.5-1.2,0.9L18,17.7C18,17.8,18,17.7,18,17.7z
		 M15.5,18.2l0.1,0.5l0.1-0.2l0,0l0,0l0.3,1.3l0-0.1l0.2-1.2l0,0.1l0-0.1l0.2,0.3l0.1-0.6H15.5z M18,17.7
		C17.9,17.7,17.9,17.7,18,17.7C17.9,17.7,17.9,17.6,18,17.7c-0.1-0.1-0.1-0.2-0.2-0.2c0,0-0.1-0.1-0.1-0.1c0,0,0,0-0.1-0.1
		c0,0,0,0,0,0c0,0,0,0-0.1-0.1c0,0,0,0,0,0c0,0,0,0-0.1,0c0,0,0,0,0,0c0,0-0.1,0-0.1-0.1c0,0-0.1-0.1-0.1-0.1c0,0,0,0,0,0
		c0,0,0,0,0,0c0,0,0,0,0,0c0,0,0,0-0.1,0c0,0,0,0,0,0c0,0,0,0-0.1,0c0,0-0.1,0-0.1,0v0c0,0,0,0,0,0v-2.1c0-0.3-0.5-1-0.7-1.4
		c0,0,0,0,0-0.1c-0.1,0.2-0.7,1.1-0.7,1.4v2.1c-0.5,0.2-0.9,0.5-1.2,0.9L18,17.7C18,17.8,18,17.7,18,17.7z M15.5,18.2l0.1,0.5
		l0.1-0.2l0,0l0,0l0.3,1.3l0-0.1l0.2-1.2l0,0.1l0-0.1l0.2,0.3l0.1-0.6H15.5z M18,17.7C17.9,17.7,17.9,17.7,18,17.7
		C17.9,17.7,17.9,17.6,18,17.7c-0.1-0.1-0.1-0.2-0.2-0.2c0,0-0.1-0.1-0.1-0.1c0,0,0,0-0.1-0.1c0,0,0,0,0,0c0,0,0,0-0.1-0.1
		c0,0,0,0,0,0c0,0,0,0-0.1,0c0,0,0,0,0,0c0,0-0.1,0-0.1-0.1c0,0-0.1-0.1-0.1-0.1c0,0,0,0,0,0c0,0,0,0,0,0c0,0,0,0,0,0c0,0,0,0-0.1,0
		c0,0,0,0,0,0c0,0,0,0-0.1,0c0,0-0.1,0-0.1,0v0c0,0,0,0,0,0v-2.1c0-0.3-0.5-1-0.7-1.4c0,0,0,0,0-0.1c-0.1,0.2-0.7,1.1-0.7,1.4v2.1
		c-0.5,0.2-0.9,0.5-1.2,0.9L18,17.7C18,17.8,18,17.7,18,17.7z M15.5,18.2l0.1,0.5l0.1-0.2l0,0l0,0l0.3,1.3l0-0.1l0.2-1.2l0,0.1
		l0-0.1l0.2,0.3l0.1-0.6H15.5z M18,17.7C17.9,17.7,17.9,17.7,18,17.7C17.9,17.7,17.9,17.6,18,17.7c-0.1-0.1-0.1-0.2-0.2-0.2
		c0,0-0.1-0.1-0.1-0.1c0,0,0,0-0.1-0.1c0,0,0,0,0,0c0,0,0,0-0.1-0.1c0,0,0,0,0,0c0,0,0,0-0.1,0c0,0,0,0,0,0c0,0-0.1,0-0.1-0.1
		c0,0-0.1-0.1-0.1-0.1c0,0,0,0,0,0c0,0,0,0,0,0c0,0,0,0,0,0c0,0,0,0-0.1,0c0,0,0,0,0,0c0,0,0,0-0.1,0c0,0-0.1,0-0.1,0v0c0,0,0,0,0,0
		v-2.1c0-0.3-0.5-1-0.7-1.4c0,0,0,0,0-0.1c-0.1,0.2-0.7,1.1-0.7,1.4v2.1c-0.5,0.2-0.9,0.5-1.2,0.9L18,17.7C18,17.8,18,17.7,18,17.7z
		 M15.5,18.2l0.1,0.5l0.1-0.2l0,0l0,0l0.3,1.3l0-0.1l0.2-1.2l0,0.1l0-0.1l0.2,0.3l0.1-0.6H15.5z M16.1,18.2v1.5l0.2-1.2l0,0.1l0-0.1
		l0.2,0.3l0.1-0.6H16.1z M18,17.7C17.9,17.7,17.9,17.7,18,17.7C17.9,17.7,17.9,17.6,18,17.7c-0.1-0.1-0.1-0.2-0.2-0.2
		c0,0-0.1-0.1-0.1-0.1c0,0,0,0-0.1-0.1c0,0,0,0,0,0c0,0,0,0-0.1-0.1c0,0,0,0,0,0c0,0,0,0-0.1,0c0,0,0,0,0,0c0,0-0.1,0-0.1-0.1
		c0,0-0.1-0.1-0.1-0.1c0,0,0,0,0,0c0,0,0,0,0,0c0,0,0,0,0,0c0,0,0,0-0.1,0c0,0,0,0,0,0c0,0,0,0-0.1,0c0,0-0.1,0-0.1,0v0c0,0,0,0,0,0
		v-2.1c0-0.3-0.5-1-0.7-1.4v4.4L18,17.7C18,17.8,18,17.7,18,17.7z M16.1,18.2v1.5l0.2-1.2l0,0.1l0-0.1l0.2,0.3l0.1-0.6H16.1z
		 M18,17.7C17.9,17.7,17.9,17.7,18,17.7C17.9,17.7,17.9,17.6,18,17.7c-0.1-0.1-0.1-0.2-0.2-0.2c0,0-0.1-0.1-0.1-0.1c0,0,0,0-0.1-0.1
		c0,0,0,0,0,0c0,0,0,0-0.1-0.1c0,0,0,0,0,0c0,0,0,0-0.1,0c0,0,0,0,0,0c0,0-0.1,0-0.1-0.1c0,0-0.1-0.1-0.1-0.1c0,0,0,0,0,0
		c0,0,0,0,0,0c0,0,0,0,0,0c0,0,0,0-0.1,0c0,0,0,0,0,0c0,0,0,0-0.1,0c0,0-0.1,0-0.1,0v0c0,0,0,0,0,0v-2.1c0-0.3-0.5-1-0.7-1.4v4.4
		L18,17.7C18,17.8,18,17.7,18,17.7z M16.1,18.2v1.5l0.2-1.2l0,0.1l0-0.1l0.2,0.3l0.1-0.6H16.1z M18,17.7
		C17.9,17.7,17.9,17.7,18,17.7C17.9,17.7,17.9,17.6,18,17.7c-0.1-0.1-0.1-0.2-0.2-0.2c0,0-0.1-0.1-0.1-0.1c0,0,0,0-0.1-0.1
		c0,0,0,0,0,0c0,0,0,0-0.1-0.1c0,0,0,0,0,0c0,0,0,0-0.1,0c0,0,0,0,0,0c0,0-0.1,0-0.1-0.1c0,0-0.1-0.1-0.1-0.1c0,0,0,0,0,0
		c0,0,0,0,0,0c0,0,0,0,0,0c0,0,0,0-0.1,0c0,0,0,0,0,0c0,0,0,0-0.1,0c0,0-0.1,0-0.1,0v0c0,0,0,0,0,0v-2.1c0-0.3-0.5-1-0.7-1.4v4.4
		L18,17.7C18,17.8,18,17.7,18,17.7z M16.1,4C9.4,4,4,9.4,4,16c0,4.6,2.8,8.3,6.6,8.6c2.1,0.2,4.1-0.5,5.5-1.1
		c0.2-0.1,0.3-0.1,0.4-0.2c0.9-0.4,1.7-0.8,2.4-1.4l0.2-0.1c0.1-0.1,0.2-0.2,0.3-0.3c1.4-1.3,3-3.6,3-7.3v-0.4l-6.3-4.3H16l-6.1,4.2
		v0.4c0,3.7,1.6,6,3,7.3c0.2,0.1,0.3,0.3,0.5,0.4c0.6-0.2,1.1-0.4,1.7-0.7c0,0,0,0,0,0c0,0-0.1,0-0.1-0.1c0,0-0.1,0-0.1-0.1
		c0,0,0,0,0,0c0,0,0,0,0,0c-0.2-0.1-0.4-0.3-0.5-0.4c0,0,0,0,0,0c0,0,0,0,0,0c0,0,0,0,0,0c0,0,0,0,0,0c0,0,0,0,0,0c0,0,0,0,0,0
		c0,0,0,0,0,0c0,0,0,0,0,0c0,0,0,0,0,0c0,0,0,0,0,0l0,0c0,0-0.1-0.1-0.1-0.1c0,0,0,0,0,0c0,0,0,0-0.1-0.1c0,0-0.1-0.1-0.1-0.1
		c-1.2-1.1-2.3-3-2.4-5.8l4.6-3.2h0.1l4.7,3.2c0,0,0,0,0,0.1v0l0,0c-0.1,3-1.5,4.9-2.7,6l0,0L18,20.6c0,0-0.8,0.6-1.9,1.2
		c-1.4,0.7-3.4,1.5-5.4,1.3c-2.3-0.2-4.1-2-4.8-4.5c0,0,0,0,0,0c0,0,0-0.1,0-0.1c0.3-0.2,0.5-0.6,0.5-1c0-0.2-0.1-0.5-0.2-0.7
		c-0.2-0.2-0.4-0.4-0.6-0.5V16c0-1.5,0.3-2.9,0.9-4.3c0,0,0,0,0,0c1,0.4,2.1,0.2,3-0.3c0.3-0.2,0.6-0.5,0.8-0.9c0.5-0.9,0.6-2,0.1-3
		c0-0.1-0.1-0.1-0.1-0.2c0.9-0.6,1.9-1.1,3-1.4c0,0,0,0,0,0c0.9-0.3,1.9-0.4,2.9-0.4c0.7,0,1.4,0.1,2.1,0.2c2.8,0.6,5.2,2.2,6.7,4.6
		c0,0-0.1,0.1-0.1,0.1c0,0-0.1,0.1-0.1,0.1c-0.6,0.6-0.8,1.5-0.4,2.2c0.3,0.9,1.1,1.4,2.1,1.4h0.1c0.1,0.6,0.2,1.2,0.2,1.8
		c0,2.1-0.6,4-1.8,5.6c0,0,0,0,0,0c-1.8,2.6-4.9,4.4-8.7,4.9c0,0-0.1,0-0.1,0c-0.6,0.1-1.2,0.1-1.8,0.1c-3.9,0-6.2-1.5-6.2-1.5
		c0.1,0.1,0.2,0.2,0.3,0.3c0.2,0.2,0.4,0.3,0.6,0.5c0.1,0,0.1,0.1,0.2,0.1l0,0c0.1,0,0.1,0.1,0.2,0.1c0,0,0,0,0,0
		c0.1,0,0.1,0.1,0.2,0.1c0,0,0.1,0.1,0.1,0.1c0.1,0,0.1,0.1,0.2,0.1c0,0,0.1,0,0.1,0.1c0,0,0.1,0.1,0.1,0.1c0.1,0,0.1,0.1,0.2,0.1
		c0,0,0.1,0,0.1,0.1c0.1,0,0.1,0.1,0.2,0.1c0.1,0,0.1,0.1,0.2,0.1c0.1,0,0.2,0.1,0.3,0.1c0.1,0,0.1,0.1,0.2,0.1
		c0.1,0,0.2,0.1,0.4,0.1c0,0,0.1,0,0.1,0c0.1,0,0.2,0.1,0.3,0.1c0,0,0.1,0,0.1,0c0,0,0.1,0,0.1,0c0,0,0.1,0,0.1,0c0,0,0.1,0,0.1,0
		c0,0,0,0,0.1,0c0,0,0,0,0.1,0c0,0,0,0,0,0c0,0,0.1,0,0.1,0c0,0,0.1,0,0.1,0c0,0,0.1,0,0.1,0c0,0,0.1,0,0.1,0c0.1,0,0.1,0,0.2,0
		c0,0,0.1,0,0.1,0c0.1,0,0.1,0,0.2,0c0,0,0.1,0,0.1,0c0,0,0.1,0,0.1,0c0.1,0,0.1,0,0.2,0c0.1,0,0.2,0,0.3,0c0.2,0,0.4,0,0.6,0.1
		c0,0,0.1,0,0.1,0c0,0,0.1,0,0.1,0c0.2,0,0.3,0,0.5,0c0.1,0,0.2,0,0.3,0c0.1,0,0.1,0,0.2,0c0,0,0,0,0,0h0c0.1,0,0.1,0,0.2,0
		c3.2,0,6.1-1.4,8.2-3.6c1.1-1.1,2-2.5,2.6-4c0,0,0,0,0,0c0-0.1,0.1-0.1,0.1-0.2c0-0.1,0.1-0.1,0.1-0.2c0-0.1,0-0.1,0.1-0.2
		c0-0.1,0-0.1,0.1-0.2c0-0.1,0-0.1,0.1-0.2c0-0.1,0-0.1,0.1-0.2c0-0.1,0-0.1,0.1-0.2c0-0.1,0-0.1,0-0.2c0,0,0-0.1,0-0.1
		c0,0,0-0.1,0-0.1c0,0,0-0.1,0-0.1c0-0.1,0-0.1,0-0.2c0,0,0-0.1,0-0.1c0-0.1,0-0.2,0-0.3c0-0.1,0-0.2,0-0.3c0-0.1,0-0.2,0-0.3
		c0-0.4,0.1-0.8,0.1-1.2C28,9.4,22.7,4.1,16.1,4z M5.7,16.9C5.7,16.9,5.7,16.9,5.7,16.9C5.9,17,6,17.3,6,17.6c0,0.1-0.1,0.3-0.2,0.4
		c0,0,0,0,0-0.1c-0.1-0.4-0.2-0.8-0.2-1.1C5.6,16.8,5.7,16.8,5.7,16.9C5.7,16.9,5.7,16.9,5.7,16.9z M10.2,8.9c0,0.6-0.2,1.2-0.6,1.7
		c-0.1,0.1-0.2,0.2-0.4,0.3c0,0,0,0,0,0c-0.7,0.5-1.7,0.7-2.5,0.3C6.8,11,7,10.8,7.1,10.5c0,0,0,0,0,0c0.2-0.4,0.5-0.7,0.7-1
		c0,0,0,0,0,0c0.6-0.7,1.2-1.3,2-1.9c0,0,0,0,0,0c0,0,0,0,0,0L10,7.7C10.2,8.1,10.2,8.5,10.2,8.9z M24.7,12.6
		c-0.3-0.7-0.1-1.4,0.4-1.9c0.6,1,1,2,1.2,3C25.6,13.7,25,13.3,24.7,12.6z M18,17.7C17.9,17.7,17.9,17.7,18,17.7
		C17.9,17.7,17.9,17.6,18,17.7c-0.1-0.1-0.1-0.2-0.2-0.2c0,0-0.1-0.1-0.1-0.1c0,0,0,0-0.1-0.1c0,0,0,0,0,0c0,0,0,0-0.1-0.1
		c0,0,0,0,0,0c0,0,0,0-0.1,0c0,0,0,0,0,0c0,0-0.1,0-0.1-0.1c0,0-0.1-0.1-0.1-0.1c0,0,0,0,0,0c0,0,0,0,0,0c0,0,0,0,0,0c0,0,0,0-0.1,0
		c0,0,0,0,0,0c0,0,0,0-0.1,0c0,0-0.1,0-0.1,0v0c0,0,0,0,0,0v-2.1c0-0.3-0.5-1-0.7-1.4v4.4L18,17.7C18,17.8,18,17.7,18,17.7z
		 M16.1,18.2v1.5l0.2-1.2l0,0.1l0-0.1l0.2,0.3l0.1-0.6H16.1z M18,17.7C17.9,17.7,17.9,17.7,18,17.7C17.9,17.7,17.9,17.6,18,17.7
		c-0.1-0.1-0.1-0.2-0.2-0.2c0,0-0.1-0.1-0.1-0.1c0,0,0,0-0.1-0.1c0,0,0,0,0,0c0,0,0,0-0.1-0.1c0,0,0,0,0,0c0,0,0,0-0.1,0
		c0,0,0,0,0,0c0,0-0.1,0-0.1-0.1c0,0-0.1-0.1-0.1-0.1c0,0,0,0,0,0c0,0,0,0,0,0c0,0,0,0,0,0c0,0,0,0-0.1,0c0,0,0,0,0,0c0,0,0,0-0.1,0
		c0,0-0.1,0-0.1,0v0c0,0,0,0,0,0v-2.1c0-0.3-0.5-1-0.7-1.4v4.4L18,17.7C18,17.8,18,17.7,18,17.7z M16.1,18.2v1.5l0.2-1.2l0,0.1
		l0-0.1l0.2,0.3l0.1-0.6H16.1z M18,17.7C17.9,17.7,17.9,17.7,18,17.7C17.9,17.7,17.9,17.6,18,17.7c-0.1-0.1-0.1-0.2-0.2-0.2
		c0,0-0.1-0.1-0.1-0.1c0,0,0,0-0.1-0.1c0,0,0,0,0,0c0,0,0,0-0.1-0.1c0,0,0,0,0,0c0,0,0,0-0.1,0c0,0,0,0,0,0c0,0-0.1,0-0.1-0.1
		c0,0-0.1-0.1-0.1-0.1c0,0,0,0,0,0c0,0,0,0,0,0c0,0,0,0,0,0c0,0,0,0-0.1,0c0,0,0,0,0,0c0,0,0,0-0.1,0c0,0-0.1,0-0.1,0v0c0,0,0,0,0,0
		v-2.1c0-0.3-0.5-1-0.7-1.4v4.4L18,17.7C18,17.8,18,17.7,18,17.7z M16.1,18.2v1.5l0.2-1.2l0,0.1l0-0.1l0.2,0.3l0.1-0.6H16.1z
		 M18,17.7C17.9,17.7,17.9,17.7,18,17.7C17.9,17.7,17.9,17.6,18,17.7c-0.1-0.1-0.1-0.2-0.2-0.2c0,0-0.1-0.1-0.1-0.1c0,0,0,0-0.1-0.1
		c0,0,0,0,0,0c0,0,0,0-0.1-0.1c0,0,0,0,0,0c0,0,0,0-0.1,0c0,0,0,0,0,0c0,0-0.1,0-0.1-0.1c0,0-0.1-0.1-0.1-0.1c0,0,0,0,0,0
		c0,0,0,0,0,0c0,0,0,0,0,0c0,0,0,0-0.1,0c0,0,0,0,0,0c0,0,0,0-0.1,0c0,0-0.1,0-0.1,0v0c0,0,0,0,0,0v-2.1c0-0.3-0.5-1-0.7-1.4v4.4
		L18,17.7C18,17.8,18,17.7,18,17.7z M16.1,18.2v1.5l0.2-1.2l0,0.1l0-0.1l0.2,0.3l0.1-0.6H16.1z M15.5,18.2l0.1,0.5l0.1-0.2l0,0l0,0
		l0.3,1.3l0-0.1l0.2-1.2l0,0.1l0-0.1l0.2,0.3l0.1-0.6H15.5z M18,17.7C17.9,17.7,17.9,17.7,18,17.7C17.9,17.7,17.9,17.6,18,17.7
		c-0.1-0.1-0.1-0.2-0.2-0.2c0,0-0.1-0.1-0.1-0.1c0,0,0,0-0.1-0.1c0,0,0,0,0,0c0,0,0,0-0.1-0.1c0,0,0,0,0,0c0,0,0,0-0.1,0
		c0,0,0,0,0,0c0,0-0.1,0-0.1-0.1c0,0-0.1-0.1-0.1-0.1c0,0,0,0,0,0c0,0,0,0,0,0c0,0,0,0,0,0c0,0,0,0-0.1,0c0,0,0,0,0,0c0,0,0,0-0.1,0
		c0,0-0.1,0-0.1,0v0c0,0,0,0,0,0v-2.1c0-0.3-0.5-1-0.7-1.4c0,0,0,0,0-0.1c-0.1,0.2-0.7,1.1-0.7,1.4v2.1c-0.5,0.2-0.9,0.5-1.2,0.9
		L18,17.7C18,17.8,18,17.7,18,17.7z M15.5,18.2l0.1,0.5l0.1-0.2l0,0l0,0l0.3,1.3l0-0.1l0.2-1.2l0,0.1l0-0.1l0.2,0.3l0.1-0.6H15.5z
		 M18,17.7C17.9,17.7,17.9,17.7,18,17.7C17.9,17.7,17.9,17.6,18,17.7c-0.1-0.1-0.1-0.2-0.2-0.2c0,0-0.1-0.1-0.1-0.1c0,0,0,0-0.1-0.1
		c0,0,0,0,0,0c0,0,0,0-0.1-0.1c0,0,0,0,0,0c0,0,0,0-0.1,0c0,0,0,0,0,0c0,0-0.1,0-0.1-0.1c0,0-0.1-0.1-0.1-0.1c0,0,0,0,0,0
		c0,0,0,0,0,0c0,0,0,0,0,0c0,0,0,0-0.1,0c0,0,0,0,0,0c0,0,0,0-0.1,0c0,0-0.1,0-0.1,0v0c0,0,0,0,0,0v-2.1c0-0.3-0.5-1-0.7-1.4
		c0,0,0,0,0-0.1c-0.1,0.2-0.7,1.1-0.7,1.4v2.1c-0.5,0.2-0.9,0.5-1.2,0.9L18,17.7C18,17.8,18,17.7,18,17.7z M15.5,18.2l0.1,0.5
		l0.1-0.2l0,0l0,0l0.3,1.3l0-0.1l0.2-1.2l0,0.1l0-0.1l0.2,0.3l0.1-0.6H15.5z M18,17.7C17.9,17.7,17.9,17.7,18,17.7
		C17.9,17.7,17.9,17.6,18,17.7c-0.1-0.1-0.1-0.2-0.2-0.2c0,0-0.1-0.1-0.1-0.1c0,0,0,0-0.1-0.1c0,0,0,0,0,0c0,0,0,0-0.1-0.1
		c0,0,0,0,0,0c0,0,0,0-0.1,0c0,0,0,0,0,0c0,0-0.1,0-0.1-0.1c0,0-0.1-0.1-0.1-0.1c0,0,0,0,0,0c0,0,0,0,0,0c0,0,0,0,0,0c0,0,0,0-0.1,0
		c0,0,0,0,0,0c0,0,0,0-0.1,0c0,0-0.1,0-0.1,0v0c0,0,0,0,0,0v-2.1c0-0.3-0.5-1-0.7-1.4c0,0,0,0,0-0.1c-0.1,0.2-0.7,1.1-0.7,1.4v2.1
		c-0.5,0.2-0.9,0.5-1.2,0.9L18,17.7C18,17.8,18,17.7,18,17.7z M15.5,18.2l0.1,0.5l0.1-0.2l0,0l0,0l0.3,1.3l0-0.1l0.2-1.2l0,0.1
		l0-0.1l0.2,0.3l0.1-0.6H15.5z M18,17.7C17.9,17.7,17.9,17.7,18,17.7C17.9,17.7,17.9,17.6,18,17.7c-0.1-0.1-0.1-0.2-0.2-0.2
		c0,0-0.1-0.1-0.1-0.1c0,0,0,0-0.1-0.1c0,0,0,0,0,0c0,0,0,0-0.1-0.1c0,0,0,0,0,0c0,0,0,0-0.1,0c0,0,0,0,0,0c0,0-0.1,0-0.1-0.1
		c0,0-0.1-0.1-0.1-0.1c0,0,0,0,0,0c0,0,0,0,0,0c0,0,0,0,0,0c0,0,0,0-0.1,0c0,0,0,0,0,0c0,0,0,0-0.1,0c0,0-0.1,0-0.1,0v0c0,0,0,0,0,0
		v-2.1c0-0.3-0.5-1-0.7-1.4c0,0,0,0,0-0.1c-0.1,0.2-0.7,1.1-0.7,1.4v2.1c-0.5,0.2-0.9,0.5-1.2,0.9L18,17.7C18,17.8,18,17.7,18,17.7z
		 M15.5,18.2l0.1,0.5l0.1-0.2l0,0l0,0l0.3,1.3l0-0.1l0.2-1.2l0,0.1l0-0.1l0.2,0.3l0.1-0.6H15.5z M18,17.7
		C17.9,17.7,17.9,17.7,18,17.7C17.9,17.7,17.9,17.6,18,17.7c-0.1-0.1-0.1-0.2-0.2-0.2c0,0-0.1-0.1-0.1-0.1c0,0,0,0-0.1-0.1
		c0,0,0,0,0,0c0,0,0,0-0.1-0.1c0,0,0,0,0,0c0,0,0,0-0.1,0c0,0,0,0,0,0c0,0-0.1,0-0.1-0.1c0,0-0.1-0.1-0.1-0.1c0,0,0,0,0,0
		c0,0,0,0,0,0c0,0,0,0,0,0c0,0,0,0-0.1,0c0,0,0,0,0,0c0,0,0,0-0.1,0c0,0-0.1,0-0.1,0v0c0,0,0,0,0,0v-2.1c0-0.3-0.5-1-0.7-1.4
		c0,0,0,0,0-0.1c-0.1,0.2-0.7,1.1-0.7,1.4v2.1c-0.5,0.2-0.9,0.5-1.2,0.9L18,17.7C18,17.8,18,17.7,18,17.7z M15.5,18.2l0.1,0.5
		l0.1-0.2l0,0l0,0l0.3,1.3l0-0.1l0.2-1.2l0,0.1l0-0.1l0.2,0.3l0.1-0.6H15.5z M18,17.7C17.9,17.7,17.9,17.7,18,17.7
		C17.9,17.7,17.9,17.6,18,17.7c-0.1-0.1-0.1-0.2-0.2-0.2c0,0-0.1-0.1-0.1-0.1c0,0,0,0-0.1-0.1c0,0,0,0,0,0c0,0,0,0-0.1-0.1
		c0,0,0,0,0,0c0,0,0,0-0.1,0c0,0,0,0,0,0c0,0-0.1,0-0.1-0.1c0,0-0.1-0.1-0.1-0.1c0,0,0,0,0,0c0,0,0,0,0,0c0,0,0,0,0,0c0,0,0,0-0.1,0
		c0,0,0,0,0,0c0,0,0,0-0.1,0c0,0-0.1,0-0.1,0v0c0,0,0,0,0,0v-2.1c0-0.3-0.5-1-0.7-1.4c0,0,0,0,0-0.1c-0.1,0.2-0.7,1.1-0.7,1.4v2.1
		c-0.5,0.2-0.9,0.5-1.2,0.9L18,17.7C18,17.8,18,17.7,18,17.7z M15.5,18.2l0.1,0.5l0.1-0.2l0,0l0,0l0.3,1.3l0-0.1l0.2-1.2l0,0.1
		l0-0.1l0.2,0.3l0.1-0.6H15.5z M18,17.7C17.9,17.7,17.9,17.7,18,17.7C17.9,17.7,17.9,17.6,18,17.7c-0.1-0.1-0.1-0.2-0.2-0.2
		c0,0-0.1-0.1-0.1-0.1c0,0,0,0-0.1-0.1c0,0,0,0,0,0c0,0,0,0-0.1-0.1c0,0,0,0,0,0c0,0,0,0-0.1,0c0,0,0,0,0,0c0,0-0.1,0-0.1-0.1
		c0,0-0.1-0.1-0.1-0.1c0,0,0,0,0,0c0,0,0,0,0,0c0,0,0,0,0,0c0,0,0,0-0.1,0c0,0,0,0,0,0c0,0,0,0-0.1,0c0,0-0.1,0-0.1,0v0c0,0,0,0,0,0
		v-2.1c0-0.3-0.5-1-0.7-1.4c0,0,0,0,0-0.1c-0.1,0.2-0.7,1.1-0.7,1.4v2.1c-0.5,0.2-0.9,0.5-1.2,0.9L18,17.7C18,17.8,18,17.7,18,17.7z
		 M15.5,18.2l0.1,0.5l0.1-0.2l0,0l0,0l0.3,1.3l0-0.1l0.2-1.2l0,0.1l0-0.1l0.2,0.3l0.1-0.6H15.5z M18,17.7
		C17.9,17.7,17.9,17.7,18,17.7C17.9,17.7,17.9,17.6,18,17.7c-0.1-0.1-0.1-0.2-0.2-0.2c0,0-0.1-0.1-0.1-0.1c0,0,0,0-0.1-0.1
		c0,0,0,0,0,0c0,0,0,0-0.1-0.1c0,0,0,0,0,0c0,0,0,0-0.1,0c0,0,0,0,0,0c0,0-0.1,0-0.1-0.1c0,0-0.1-0.1-0.1-0.1c0,0,0,0,0,0
		c0,0,0,0,0,0c0,0,0,0,0,0c0,0,0,0-0.1,0c0,0,0,0,0,0c0,0,0,0-0.1,0c0,0-0.1,0-0.1,0v0c0,0,0,0,0,0v-2.1c0-0.3-0.5-1-0.7-1.4
		c0,0,0,0,0-0.1c-0.1,0.2-0.7,1.1-0.7,1.4v2.1c-0.5,0.2-0.9,0.5-1.2,0.9L18,17.7C18,17.8,18,17.7,18,17.7z M15.5,18.2l0.1,0.5
		l0.1-0.2l0,0l0,0l0.3,1.3l0-0.1l0.2-1.2l0,0.1l0-0.1l0.2,0.3l0.1-0.6H15.5z M18,17.7C17.9,17.7,17.9,17.7,18,17.7
		C17.9,17.7,17.9,17.6,18,17.7c-0.1-0.1-0.1-0.2-0.2-0.2c0,0-0.1-0.1-0.1-0.1c0,0,0,0-0.1-0.1c0,0,0,0,0,0c0,0,0,0-0.1-0.1
		c0,0,0,0,0,0c0,0,0,0-0.1,0c0,0,0,0,0,0c0,0-0.1,0-0.1-0.1c0,0-0.1-0.1-0.1-0.1c0,0,0,0,0,0c0,0,0,0,0,0c0,0,0,0,0,0c0,0,0,0-0.1,0
		c0,0,0,0,0,0c0,0,0,0-0.1,0c0,0-0.1,0-0.1,0v0c0,0,0,0,0,0v-2.1c0-0.3-0.5-1-0.7-1.4c0,0,0,0,0-0.1c-0.1,0.2-0.7,1.1-0.7,1.4v2.1
		c-0.5,0.2-0.9,0.5-1.2,0.9L18,17.7C18,17.8,18,17.7,18,17.7z M15.5,18.2l0.1,0.5l0.1-0.2l0,0l0,0l0.3,1.3l0-0.1l0.2-1.2l0,0.1
		l0-0.1l0.2,0.3l0.1-0.6H15.5z M18,17.7C17.9,17.7,17.9,17.7,18,17.7C17.9,17.7,17.9,17.6,18,17.7c-0.1-0.1-0.1-0.2-0.2-0.2
		c0,0-0.1-0.1-0.1-0.1c0,0,0,0-0.1-0.1c0,0,0,0,0,0c0,0,0,0-0.1-0.1c0,0,0,0,0,0c0,0,0,0-0.1,0c0,0,0,0,0,0c0,0-0.1,0-0.1-0.1
		c0,0-0.1-0.1-0.1-0.1c0,0,0,0,0,0c0,0,0,0,0,0c0,0,0,0,0,0c0,0,0,0-0.1,0c0,0,0,0,0,0c0,0,0,0-0.1,0c0,0-0.1,0-0.1,0v0c0,0,0,0,0,0
		v-2.1c0-0.3-0.5-1-0.7-1.4c0,0,0,0,0-0.1c-0.1,0.2-0.7,1.1-0.7,1.4v2.1c-0.5,0.2-0.9,0.5-1.2,0.9L18,17.7C18,17.8,18,17.7,18,17.7z
		 M15.5,18.2l0.1,0.5l0.1-0.2l0,0l0,0l0.3,1.3l0-0.1l0.2-1.2l0,0.1l0-0.1l0.2,0.3l0.1-0.6H15.5z M18,17.7
		C17.9,17.7,17.9,17.7,18,17.7C17.9,17.7,17.9,17.6,18,17.7c-0.1-0.1-0.1-0.2-0.2-0.2c0,0-0.1-0.1-0.1-0.1c0,0,0,0-0.1-0.1
		c0,0,0,0,0,0c0,0,0,0-0.1-0.1c0,0,0,0,0,0c0,0,0,0-0.1,0c0,0,0,0,0,0c0,0-0.1,0-0.1-0.1c0,0-0.1-0.1-0.1-0.1c0,0,0,0,0,0
		c0,0,0,0,0,0c0,0,0,0,0,0c0,0,0,0-0.1,0c0,0,0,0,0,0c0,0,0,0-0.1,0c0,0-0.1,0-0.1,0v0c0,0,0,0,0,0v-2.1c0-0.3-0.5-1-0.7-1.4
		c0,0,0,0,0-0.1c-0.1,0.2-0.7,1.1-0.7,1.4v2.1c-0.5,0.2-0.9,0.5-1.2,0.9L18,17.7C18,17.8,18,17.7,18,17.7z M15.5,18.2l0.1,0.5
		l0.1-0.2l0,0l0,0l0.3,1.3l0-0.1l0.2-1.2l0,0.1l0-0.1l0.2,0.3l0.1-0.6H15.5z M18,17.7C17.9,17.7,17.9,17.7,18,17.7
		C17.9,17.7,17.9,17.6,18,17.7c-0.1-0.1-0.1-0.2-0.2-0.2c0,0-0.1-0.1-0.1-0.1c0,0,0,0-0.1-0.1c0,0,0,0,0,0c0,0,0,0-0.1-0.1
		c0,0,0,0,0,0c0,0,0,0-0.1,0c0,0,0,0,0,0c0,0-0.1,0-0.1-0.1c0,0-0.1-0.1-0.1-0.1c0,0,0,0,0,0c0,0,0,0,0,0c0,0,0,0,0,0c0,0,0,0-0.1,0
		c0,0,0,0,0,0c0,0,0,0-0.1,0c0,0-0.1,0-0.1,0v0c0,0,0,0,0,0v-2.1c0-0.3-0.5-1-0.7-1.4c0,0,0,0,0-0.1c-0.1,0.2-0.7,1.1-0.7,1.4v2.1
		c-0.5,0.2-0.9,0.5-1.2,0.9L18,17.7C18,17.8,18,17.7,18,17.7z M15.5,18.2l0.1,0.5l0.1-0.2l0,0l0,0l0.3,1.3l0-0.1l0.2-1.2l0,0.1
		l0-0.1l0.2,0.3l0.1-0.6H15.5z M18,17.7C17.9,17.7,17.9,17.7,18,17.7C17.9,17.7,17.9,17.6,18,17.7c-0.1-0.1-0.1-0.2-0.2-0.2
		c0,0-0.1-0.1-0.1-0.1c0,0,0,0-0.1-0.1c0,0,0,0,0,0c0,0,0,0-0.1-0.1c0,0,0,0,0,0c0,0,0,0-0.1,0c0,0,0,0,0,0c0,0-0.1,0-0.1-0.1
		c0,0-0.1-0.1-0.1-0.1c0,0,0,0,0,0c0,0,0,0,0,0c0,0,0,0,0,0c0,0,0,0-0.1,0c0,0,0,0,0,0c0,0,0,0-0.1,0c0,0-0.1,0-0.1,0v0c0,0,0,0,0,0
		v-2.1c0-0.3-0.5-1-0.7-1.4c0,0,0,0,0-0.1c-0.1,0.2-0.7,1.1-0.7,1.4v2.1c-0.5,0.2-0.9,0.5-1.2,0.9L18,17.7C18,17.8,18,17.7,18,17.7z
		 M15.5,18.2l0.1,0.5l0.1-0.2l0,0l0,0l0.3,1.3l0-0.1l0.2-1.2l0,0.1l0-0.1l0.2,0.3l0.1-0.6H15.5z M18,17.7
		C17.9,17.7,17.9,17.7,18,17.7C17.9,17.7,17.9,17.6,18,17.7c-0.1-0.1-0.1-0.2-0.2-0.2c0,0-0.1-0.1-0.1-0.1c0,0,0,0-0.1-0.1
		c0,0,0,0,0,0c0,0,0,0-0.1-0.1c0,0,0,0,0,0c0,0,0,0-0.1,0c0,0,0,0,0,0c0,0-0.1,0-0.1-0.1c0,0-0.1-0.1-0.1-0.1c0,0,0,0,0,0
		c0,0,0,0,0,0c0,0,0,0,0,0c0,0,0,0-0.1,0c0,0,0,0,0,0c0,0,0,0-0.1,0c0,0-0.1,0-0.1,0v0c0,0,0,0,0,0v-2.1c0-0.3-0.5-1-0.7-1.4
		c0,0,0,0,0-0.1c-0.1,0.2-0.7,1.1-0.7,1.4v2.1c-0.5,0.2-0.9,0.5-1.2,0.9L18,17.7C18,17.8,18,17.7,18,17.7z M24.1,18
		c-0.6,0-1.1,0.5-1.1,1.1c0,0.6,0.5,1.1,1.1,1.1c0.3,0,0.6-0.1,0.8-0.3c0.2-0.2,0.3-0.5,0.3-0.8C25.2,18.5,24.7,18,24.1,18z
		 M24.7,19.4c-0.1,0.3-0.5,0.5-0.9,0.4c-0.2-0.1-0.4-0.3-0.4-0.6c0-0.2,0-0.3,0.1-0.4c0.1-0.1,0.2-0.2,0.3-0.2
		c0.2-0.1,0.5,0,0.7,0.1C24.7,18.8,24.8,19.1,24.7,19.4z"/>
	<path class="st3" d="M16,9.5L16,9.5l-6.1,4.2v0l-0.1,0v0.4c0,3.7,1.6,6,3,7.3c0.2,0.1,0.3,0.3,0.5,0.4c0,0,0,0,0,0c0,0,0,0,0,0
		c0.6-0.2,1.1-0.4,1.7-0.7c0,0,0,0,0,0c0,0,0,0,0,0c0,0-0.1-0.1-0.1-0.1c0,0-0.1,0-0.1-0.1c0,0,0,0,0,0c0,0,0,0,0,0
		c-0.2-0.1-0.4-0.3-0.5-0.4c0,0,0,0,0,0c0,0,0,0,0,0c0,0,0,0,0,0c0,0,0,0,0,0c0,0,0,0,0,0c0,0,0,0,0,0c0,0,0,0,0,0c0,0,0,0,0,0
		c0,0,0,0,0,0c0,0-0.1-0.1-0.1-0.1c0,0,0,0,0,0c0,0,0,0-0.1-0.1c0,0-0.1-0.1-0.1-0.1c-1.2-1.1-2.3-2.9-2.4-5.7l4.6-3.2v0l0,0l0,2.1
		c0,0,0,0,0,0c-0.1,0.2-0.7,1.1-0.7,1.4v2.1c-0.5,0.2-0.9,0.5-1.2,0.9c0,0,0,0,0,0h2v0.4h-0.7l0.1,0.7l0.2-0.2v0l0.1-0.2l0,0v0
		l0.1,0.3l0.2,1.1l0,0v1.8c0,0,0,0,0,0c-1.4,0.7-3.4,1.5-5.4,1.3c-2.2-0.2-4-2-4.8-4.4c0.4-0.3,0.5-0.7,0.5-1.1
		c0-0.3-0.1-0.6-0.2-0.8c-0.1-0.2-0.4-0.4-0.6-0.5V16c0-1.5,0.3-2.9,0.9-4.3c1,0.4,2.1,0.2,3-0.4c0.3-0.2,0.6-0.5,0.8-0.9
		c0.5-0.9,0.6-2,0.1-3c0-0.1-0.1-0.1-0.1-0.2c0.9-0.6,1.9-1.1,3-1.4c0,0,0,0,0,0c0.9-0.3,1.9-0.4,2.9-0.4v0.1c0,0,0,0,0,0L16,9.5
		L16,9.5z"/>
	<path class="st6" d="M20.8,14.5L20.8,14.5c-0.1,3.1-1.5,4.9-2.7,5.9l0,0.1L18,20.6c0,0-0.7,0.6-1.9,1.1c0,0,0,0,0,0v-1.8l0,0l0,0
		l0-0.1l0-0.1l0.2-1.2l0,0.1l0,0l0.2,0.3l0-0.1l0.1-0.6h-0.7v-0.4H18c0,0,0,0,0,0c0,0,0-0.1-0.1-0.1c0,0,0,0,0,0c0,0,0-0.1-0.1-0.1
		c0,0-0.1-0.1-0.1-0.1c0,0-0.1-0.1-0.1-0.1c0,0,0,0-0.1-0.1c0,0,0,0,0,0c0,0,0,0-0.1-0.1c0,0,0,0,0,0c0,0,0,0-0.1,0c0,0,0,0,0,0
		c0,0-0.1,0-0.1-0.1c-0.2-0.1-0.3-0.2-0.5-0.3v-2.1c0-0.4-0.6-1.3-0.8-1.5l0-2.1l0,0L20.8,14.5z"/>
	<path class="st7" d="M16.1,23.5c0.2-0.1,0.3-0.1,0.4-0.2C16.4,23.4,16.2,23.4,16.1,23.5z M16.2,26.4c0,0-0.1,0-0.1,0v0.1
		c3.9-0.5,7-2.3,8.8-5C23.1,24.1,20,25.9,16.2,26.4z M24.8,10.4C24.8,10.4,24.7,10.4,24.8,10.4C24.7,10.4,24.8,10.4,24.8,10.4
		C24.8,10.4,24.8,10.4,24.8,10.4z"/>
	<path class="st6" d="M32,16c0,8.8-7,15.9-15.8,16v-3.9c0,0-0.1,0-0.1,0V28c0,0,0,0,0,0h0c0.1,0,0.1,0,0.2,0c3.2,0,6.1-1.4,8.2-3.6
		c1.1-1.1,2-2.5,2.6-4c0,0,0,0,0,0c0-0.1,0.1-0.1,0.1-0.2c0-0.1,0.1-0.1,0.1-0.2c0-0.1,0-0.1,0.1-0.2c0-0.1,0-0.1,0.1-0.2
		c0-0.1,0-0.1,0.1-0.2c0-0.1,0-0.1,0.1-0.2c0-0.1,0-0.1,0.1-0.2c0-0.1,0-0.1,0-0.2c0,0,0-0.1,0-0.1c0,0,0-0.1,0-0.1c0,0,0-0.1,0-0.1
		c0-0.1,0-0.1,0-0.2c0,0,0-0.1,0-0.1c0-0.1,0-0.2,0-0.3c0-0.1,0-0.2,0-0.3c0-0.1,0-0.2,0-0.3c0-0.4,0.1-0.8,0.1-1.2
		c0-6.6-5.3-11.9-11.9-12V0C24.9,0,32,7.2,32,16z"/>
	<path class="st6" d="M16.2,28.1V32c0,0-0.1,0-0.1,0v-3.9C16.1,28.1,16.2,28.1,16.2,28.1z"/>
	<path class="st7" d="M24.5,24.4c1.1-1.1,2-2.5,2.6-4C26.6,21.9,25.7,23.3,24.5,24.4c-2.1,2.2-5,3.5-8.2,3.6c-0.1,0-0.1,0-0.2,0
		C19.4,27.9,22.4,26.6,24.5,24.4z"/>
	<g id="g9982">
		<path id="path9978" class="st8" d="M24.1,18c-0.6,0-1.1,0.5-1.1,1.1c0,0.6,0.5,1.1,1.1,1.1c0.3,0,0.6-0.1,0.8-0.3
			c0.2-0.2,0.3-0.5,0.3-0.8C25.2,18.5,24.7,18,24.1,18z M24.7,19.4c-0.1,0.3-0.5,0.5-0.9,0.4c-0.2-0.1-0.4-0.3-0.4-0.6
			c0-0.2,0-0.3,0.1-0.4c0.1-0.1,0.2-0.2,0.3-0.2c0.2-0.1,0.5,0,0.7,0.1C24.7,18.8,24.8,19.1,24.7,19.4z M17.3,17.2
			c0,0-0.1-0.1-0.1-0.1c0,0,0,0,0,0c0,0,0,0,0,0c0,0,0,0,0,0c0,0,0,0-0.1,0c0,0,0,0,0,0c0,0,0,0-0.1,0c0,0-0.1,0-0.1,0v0
			c0,0,0,0,0,0v-2.1c0-0.3-0.5-1-0.7-1.4c0,0,0,0,0-0.1c-0.1,0.2-0.7,1.1-0.7,1.4v2.1c-0.5,0.2-0.9,0.5-1.2,0.9H18
			C17.8,17.6,17.6,17.3,17.3,17.2z M15.4,18.2l0.1,0.7l0.2-0.2v0l0.1-0.2l0,0v0l0.1,0.3l0.2,1l0-0.1l0-0.1l0.2-1.2l0,0.1l0,0l0,0
			l0.2,0.3l0-0.1l0.1-0.6H15.4z"/>
		<path id="path9980" class="st8" d="M16.1,4C9.4,4,4,9.4,4,16c0,4.6,2.8,8.3,6.6,8.6c2.1,0.2,4.1-0.5,5.5-1.1
			c0.2-0.1,0.3-0.1,0.4-0.2c0.9-0.4,1.7-0.8,2.4-1.4l0.2-0.1c0.1-0.1,0.2-0.2,0.3-0.3c1.4-1.3,3-3.6,3-7.3v-0.4l-6.3-4.3H16
			l-6.1,4.2v0.4c0,3.7,1.6,6,3,7.3c0.2,0.1,0.3,0.3,0.5,0.4c0.6-0.2,1.1-0.4,1.7-0.7c0,0,0,0,0,0c0,0-0.1,0-0.1-0.1
			c0,0-0.1,0-0.1-0.1c0,0,0,0,0,0c0,0,0,0,0,0c-0.2-0.1-0.4-0.3-0.5-0.4c0,0,0,0,0,0c0,0,0,0,0,0c0,0,0,0,0,0c0,0,0,0,0,0
			c0,0,0,0,0,0c0,0,0,0,0,0c0,0,0,0,0,0c0,0,0,0,0,0c0,0,0,0,0,0c0,0-0.1-0.1-0.1-0.1c0,0,0,0,0,0c0,0,0,0-0.1-0.1
			c0,0-0.1-0.1-0.1-0.1c-1.2-1.1-2.3-3-2.4-5.8l4.6-3.2h0.1l4.7,3.2c0,0,0,0,0,0.1v0l0,0c-0.1,3-1.5,4.9-2.7,6l0,0L18,20.6
			c0,0-0.8,0.6-1.9,1.2c-1.4,0.7-3.4,1.5-5.4,1.3c-2.3-0.2-4.1-2-4.8-4.5c0,0,0,0,0,0c0,0,0-0.1,0-0.1c0.3-0.2,0.5-0.6,0.5-1
			c0-0.2-0.1-0.5-0.2-0.7c-0.2-0.2-0.4-0.4-0.6-0.5V16c0-1.5,0.3-2.9,0.9-4.3c0,0,0,0,0,0c1,0.4,2.1,0.2,3-0.3
			c0.3-0.2,0.6-0.5,0.8-0.9c0.5-0.9,0.6-2,0.1-3c0-0.1-0.1-0.1-0.1-0.2c0.9-0.6,1.9-1.1,3-1.4c0,0,0,0,0,0c0.9-0.3,1.9-0.4,2.9-0.4
			c0.7,0,1.4,0.1,2.1,0.2c2.8,0.6,5.2,2.2,6.7,4.6c0,0-0.1,0.1-0.1,0.1c0,0-0.1,0.1-0.1,0.1c-0.6,0.6-0.8,1.5-0.4,2.2
			c0.3,0.9,1.1,1.4,2.1,1.4h0.1c0.1,0.6,0.2,1.2,0.2,1.8c0,2.1-0.6,4-1.8,5.6c0,0,0,0,0,0c-1.8,2.6-4.9,4.4-8.7,4.9c0,0-0.1,0-0.1,0
			c-0.6,0.1-1.2,0.1-1.8,0.1c-3.9,0-6.2-1.5-6.2-1.5c0.1,0.1,0.2,0.2,0.3,0.3c0.2,0.2,0.4,0.3,0.6,0.5c0.1,0,0.1,0.1,0.2,0.1l0,0
			c0.1,0,0.1,0.1,0.2,0.1c0,0,0,0,0,0c0.1,0,0.1,0.1,0.2,0.1c0,0,0.1,0.1,0.1,0.1c0.1,0,0.1,0.1,0.2,0.1c0,0,0.1,0,0.1,0.1
			c0,0,0.1,0.1,0.1,0.1c0.1,0,0.1,0.1,0.2,0.1c0,0,0.1,0,0.1,0.1c0.1,0,0.1,0.1,0.2,0.1c0.1,0,0.1,0.1,0.2,0.1
			c0.1,0,0.2,0.1,0.3,0.1c0.1,0,0.1,0.1,0.2,0.1c0.1,0,0.2,0.1,0.4,0.1c0,0,0.1,0,0.1,0c0.1,0,0.2,0.1,0.3,0.1c0,0,0.1,0,0.1,0
			c0,0,0.1,0,0.1,0c0,0,0.1,0,0.1,0c0,0,0.1,0,0.1,0c0,0,0,0,0.1,0c0,0,0,0,0.1,0c0,0,0,0,0,0c0,0,0.1,0,0.1,0c0,0,0.1,0,0.1,0
			c0,0,0.1,0,0.1,0c0,0,0.1,0,0.1,0c0.1,0,0.1,0,0.2,0c0,0,0.1,0,0.1,0c0.1,0,0.1,0,0.2,0c0,0,0.1,0,0.1,0c0,0,0.1,0,0.1,0
			c0.1,0,0.1,0,0.2,0c0.1,0,0.2,0,0.3,0c0.2,0,0.4,0,0.6,0.1c0,0,0.1,0,0.1,0c0,0,0.1,0,0.1,0c0.2,0,0.3,0,0.5,0c0.1,0,0.2,0,0.3,0
			c0.1,0,0.1,0,0.2,0c0,0,0,0,0,0h0c0.1,0,0.1,0,0.2,0c3.2,0,6.1-1.4,8.2-3.6c1.1-1.1,2-2.5,2.6-4c0,0,0,0,0,0
			c0-0.1,0.1-0.1,0.1-0.2c0-0.1,0.1-0.1,0.1-0.2c0-0.1,0-0.1,0.1-0.2c0-0.1,0-0.1,0.1-0.2c0-0.1,0-0.1,0.1-0.2c0-0.1,0-0.1,0.1-0.2
			c0-0.1,0-0.1,0.1-0.2c0-0.1,0-0.1,0-0.2c0,0,0-0.1,0-0.1c0,0,0-0.1,0-0.1c0,0,0-0.1,0-0.1c0-0.1,0-0.1,0-0.2c0,0,0-0.1,0-0.1
			c0-0.1,0-0.2,0-0.3c0-0.1,0-0.2,0-0.3c0-0.1,0-0.2,0-0.3c0-0.4,0.1-0.8,0.1-1.2C28,9.4,22.7,4.1,16.1,4z M5.7,16.9
			C5.7,16.9,5.7,16.9,5.7,16.9C5.9,17,6,17.3,6,17.6c0,0.1-0.1,0.3-0.2,0.4c0,0,0,0,0-0.1c-0.1-0.4-0.2-0.8-0.2-1.1
			C5.6,16.8,5.7,16.8,5.7,16.9C5.7,16.9,5.7,16.9,5.7,16.9z M10.2,8.9c0,0.6-0.2,1.2-0.6,1.7c-0.1,0.1-0.2,0.2-0.4,0.3c0,0,0,0,0,0
			c-0.7,0.5-1.7,0.7-2.5,0.3C6.8,11,7,10.8,7.1,10.5c0,0,0,0,0,0c0.2-0.4,0.5-0.7,0.7-1c0,0,0,0,0,0c0.6-0.7,1.2-1.3,2-1.9
			c0,0,0,0,0,0c0,0,0,0,0,0L10,7.7C10.2,8.1,10.2,8.5,10.2,8.9z M24.7,12.6c-0.3-0.7-0.1-1.4,0.4-1.9c0.6,1,1,2,1.2,3
			C25.6,13.7,25,13.3,24.7,12.6z"/>
		<path class="st6" d="M26.3,13.7c-0.7,0-1.3-0.4-1.6-1.1c-0.3-0.7-0.1-1.4,0.4-1.9C25.7,11.7,26.1,12.7,26.3,13.7z"/>
	</g>
</g>
<path class="st3" d="M163.4,142.8c0,10-3.6,19.8-10.6,27.5c-1.5,1.7-3.1,3.2-4.8,4.6c-0.1,0.1-0.3,0.2-0.5,0.4
	c-11.3,8.5-26.9,10.9-40.3,5.6c2-4.3,4.2-8.4,6.6-12.4c0.1-0.1,0.1-0.2,0.2-0.3c3.5-5.6,7.3-11,11.4-16.1c0.1-0.2,0.2-0.3,0.3-0.4
	c9.1-11.4,19.7-21.5,31.6-30.2c0.1,0.2,0.3,0.5,0.4,0.7c0.3,0.5,0.6,0.9,0.9,1.4C161.8,129.6,163.4,136.2,163.4,142.8z"/>
<path class="st4" d="M147.5,175.2c-11.5,9-27,11.3-40.8,5.8c2.2-4.3,4.6-8.5,7.1-12.6c-2.4,4-4.6,8.1-6.6,12.4
	C120.6,186.2,136.2,183.7,147.5,175.2z"/>
<path class="st3" d="M225.7,326.9C225.7,326.9,225.7,326.9,225.7,326.9l-0.1-0.1C225.7,326.8,225.7,326.9,225.7,326.9z"/>
<path class="st3" d="M236.7,335.4C236.6,335.3,236.6,335.3,236.7,335.4l-0.1-0.1C236.6,335.3,236.6,335.3,236.7,335.4z"/>
<path class="st3" d="M94.9,297.2c-0.2-0.6-0.3-1.1-0.5-1.7c5.3-3.7,8.2-9.5,8.6-15.5C103.4,286.6,100.7,293.1,94.9,297.2z"/>
<path class="st4" d="M103.7,187.8C94.3,210,89.6,232.2,89.6,256v3.7c-0.2-0.1-0.5-0.2-0.7-0.2V256c0-23.5,5-46.8,14.7-68.2
	C103.6,187.8,103.7,187.8,103.7,187.8z"/>
<path class="st3" d="M213.3,348.6c-0.2,0.1-0.3,0.1-0.5,0.2c-3.2-1.6-4.8-4.8-8-6.4c-22.4-20.8-48-57.6-48-116.8v-6.4l1-0.7v6.5
	c0,59.4,25.9,96.3,47.7,116.8C208,344.1,210.6,346.5,213.3,348.6z"/>
<path class="st4" d="M240,337.6c-0.1,0-0.1,0.1-0.2,0.1c-4.9-3.2-10.3-7.3-15.8-12.2c0.5,0.5,1,0.9,1.5,1.4c0,0,0.1,0.1,0.1,0.1
	c0,0,0,0,0.1,0c0.2,0.2,0.5,0.4,0.7,0.6c0,0,0,0,0.1,0c0,0,0,0,0,0c0,0,0.1,0.1,0.1,0.1c0,0,0.1,0.1,0.1,0.1
	c0.2,0.2,0.4,0.4,0.6,0.5c0,0,0,0,0,0v0c0,0,0,0,0.1,0c3,2.5,6,4.7,8.8,6.7c0.1,0.1,0.2,0.1,0.3,0.2c0,0,0.1,0.1,0.1,0.1
	c0.5,0.3,1,0.7,1.5,1C238.8,336.8,239.4,337.2,240,337.6z"/>
<path class="st3" d="M95.2,281.8c-0.5,2-1.3,3.8-2.6,5.4c-1.5-6.1-3-12.2-3-18.4c0.8,0.2,1.4,0.6,2,1.1c0,0,0,0,0,0c0,0,0,0,0,0
	C94.8,273,96.2,277.5,95.2,281.8z"/>
<path class="st4" d="M92.6,287.2c-0.1,0.2-0.2,0.3-0.4,0.4c-1.4-6.5-2.4-13-2.9-19.6c0.9,0.5,1.6,1.2,2.3,1.9
	c-0.6-0.5-1.3-0.8-2-1.1C89.6,274.9,91.1,281,92.6,287.2z"/>
<path class="st6" d="M332.9,231.4c-1.8,48.8-23.8,78.8-43.2,95.7l-0.7,0.5l0.6-1.2c19.1-17.5,41.3-46.1,43.2-95.1L332.9,231.4z"/>
<path class="st6" d="M277.3,274.8c-0.7-0.4-1.4-0.8-2.1-1.2c-0.2-0.1-0.4-0.2-0.6-0.3c-0.2-0.1-0.3-0.2-0.5-0.2
	c-0.2-0.1-0.5-0.2-0.7-0.3c-0.3-0.2-0.7-0.3-1-0.5c-0.2-0.1-0.4-0.2-0.6-0.2c-0.3-0.1-0.6-0.3-0.9-0.4c-0.5-0.2-1.1-0.4-1.6-0.6
	v-0.5C272.1,271.8,274.8,273.2,277.3,274.8z"/>
<path class="st6" d="M269.2,237v33.6c-0.1-0.1-0.3-0.1-0.4-0.2v-33.6c0-5-8.5-17.8-11.9-22.8v-1.4C259,215.6,269.2,231,269.2,237z"
	/>
<path class="st6" d="M422.4,227.2h-1.6c-14.4,0-27.2-9.6-33.6-22.4c-4.6-13.8-1.8-27.7,8.3-37.2c0.4-0.4,0.8-0.8,1.2-1.2
	c-24-38.3-62.4-63.9-107.1-73.5c-10.7-1.5-21.3-3-32-3.2v60.9l100.8,70.2v6.4c0,59.2-25.6,96-48,116.8c-1.6,1.6-3.2,3.2-4.8,4.8
	l-3.2,1.6c-11.2,9.6-24,17.6-38.4,22.4c-1.6,1.6-3.2,1.6-6.4,3.2v46.6c0.5,0,1.1-0.1,1.6-0.2c60.9-7.9,110.3-36.8,139.4-78
	c0,0,0.1-0.1,0.1-0.1C416,319,425.6,289,425.6,256C425.6,246.4,424,236.8,422.4,227.2z M398.4,318.4c-3.2,3.2-8,4.8-12.8,4.8
	c-9.6,0-17.6-8-17.6-17.6c0-9.6,8-17.6,17.6-17.6c9.6,0,17.6,8,17.6,17.6C403.2,310.4,401.6,315.2,398.4,318.4z"/>
<path class="st6" d="M395.2,310.4c-1.6,4.8-8,8-14.4,6.4c-3.2-1.6-6.4-4.8-6.4-9.6c0-2.4,0.8-4.4,2-6c1.2-1.6,2.8-2.8,4.4-3.6
	c3.2-1.6,8,0,11.2,1.6C395.2,300.8,396.8,305.6,395.2,310.4z"/>
<polyline class="st0" points="257.6,422.6 257.6,424 257.6,448 257.6,448 "/>
<polyline class="st0" points="257.6,959.8 257.6,513.6 257.6,512 "/>
<polyline class="st0" points="257.6,376 257.6,348.8 257.6,347 "/>
<line class="st0" x1="257.6" y1="315.6" x2="257.6" y2="291.2"/>
<polyline class="st0" points="257.6,180.2 257.6,179.2 257.6,152 "/>
<line class="st0" x1="257.6" y1="0" x2="257.6" y2="-73.7"/>
<polyline class="st0" points="257.6,89.6 257.6,88 257.6,64 "/>
<polyline class="st0" points="256.9,214 257.6,284.8 257.6,285.3 "/>
</svg>
