<?xml version="1.0" encoding="UTF-8" standalone="no"?>
<svg
   width="512"
   height="512"
   viewBox="0 0 512 512"
   version="1.1"
   id="svg9986"
   xmlns="http://www.w3.org/2000/svg"
   xmlns:svg="http://www.w3.org/2000/svg">
  <defs
     id="defs9990" />
  <g
     fill="none"
     id="g9984"
     transform="scale(16)">
    <circle
       fill="#00a79d"
       cx="16"
       cy="16"
       r="16"
       id="circle9976" />
    <g
       fill="#ffffff"
       id="g9982">
      <path
         d="m 15.344,18.15 0.155,0.757 0.285,-0.379 0.28,1.421 0.28,-1.42 0.285,0.378 0.155,-0.757 z m 1.479,-1.204 v -2.132 c 0,-0.416 -0.753,-1.468 -0.753,-1.468 0,0 -0.76,1.052 -0.76,1.468 v 2.132 a 2.45,2.45 0 0 0 -1.227,0.889 h 3.962 a 2.45,2.45 0 0 0 -1.222,-0.889 z m 8.373,2.166 a 1.12,1.12 0 0 0 -1.123,-1.118 c -0.62,0 -1.123,0.5 -1.123,1.118 a 1.12,1.12 0 0 0 1.123,1.117 c 0.62,0 1.123,-0.5 1.123,-1.117 z m -1.78,0 a 0.655,0.655 0 0 1 0.404,-0.606 0.66,0.66 0 0 1 0.718,0.141 0.652,0.652 0 0 1 0.143,0.713 0.658,0.658 0 0 1 -1.266,-0.248 z"
         id="path9978" />
      <path
         d="M 16.064,4 C 9.405,4.008 4.008,9.375 4,16 c 0,4.574 2.825,8.254 6.573,8.563 2.28,0.187 4.485,-0.621 5.937,-1.334 a 9.113,9.113 0 0 0 2.392,-1.44 l 0.156,-0.129 c 0.117,-0.101 0.226,-0.198 0.33,-0.297 1.361,-1.282 2.982,-3.59 2.982,-7.3 v -0.41 L 16.116,9.386 9.861,13.654 v 0.407 c 0,3.712 1.62,6.018 2.981,7.3 0.159,0.15 0.326,0.298 0.5,0.439 0.57,-0.205 1.14,-0.416 1.695,-0.661 -1.42,-0.918 -3.479,-2.902 -3.615,-6.676 l 4.694,-3.204 4.693,3.204 c -0.11,3.05 -1.49,4.923 -2.697,5.981 l -0.15,0.115 c -0.037,0.028 -3.66,2.762 -7.26,2.464 C 8.45,22.837 6.624,21.017 5.897,18.481 A 1.274,1.274 0 0 0 5.558,16.228 V 16 c 0,-1.469 0.312,-2.922 0.917,-4.261 a 3.054,3.054 0 0 0 3.77,-1.247 3.02,3.02 0 0 0 0.077,-2.986 3.756,3.756 0 0 0 -0.11,-0.185 10.54,10.54 0 0 1 7.98,-1.558 10.496,10.496 0 0 1 6.703,4.58 c -0.7,0.59 -0.957,1.553 -0.64,2.41 a 2.186,2.186 0 0 0 2.054,1.427 h 0.101 c 0.11,0.6 0.167,1.21 0.17,1.82 0,5.421 -4.337,9.705 -10.538,10.458 -4.959,0.606 -8.14,-1.442 -8.14,-1.442 C 9.759,27.052 12.353,28 16.067,28 22.678,27.929 28,22.577 28,16 28,9.422 22.677,4.07 16.064,4 Z M 5.951,17.614 a 0.801,0.801 0 0 1 -0.185,0.364 9.18,9.18 0 0 1 -0.183,-1.223 0.81,0.81 0 0 1 0.368,0.86 z M 9.91,7.722 A 2.56,2.56 0 0 1 9.553,10.646 2.593,2.593 0 0 1 6.67,11.317 10.54,10.54 0 0 1 9.83,7.59 C 9.854,7.633 9.886,7.678 9.911,7.723 H 9.91 Z m 16.399,5.994 c -0.71,0 -1.348,-0.433 -1.606,-1.09 a 1.706,1.706 0 0 1 0.44,-1.884 c 0.543,0.925 0.94,1.928 1.175,2.973 h -0.01 z"
         id="path9980" />
    </g>
  </g>
</svg>
