<?xml version="1.0" encoding="utf-8"?>
<!-- Generator: Adobe Illustrator 25.4.1, SVG Export Plug-In . SVG Version: 6.00 Build 0)  -->
<svg version="1.1" id="Layer_1" xmlns:svg="http://www.w3.org/2000/svg"
	 xmlns="http://www.w3.org/2000/svg" xmlns:xlink="http://www.w3.org/1999/xlink" x="0px" y="0px" viewBox="0 0 512 512"
	 style="enable-background:new 0 0 512 512;" xml:space="preserve">
<style type="text/css">
	.st0{fill:none;}
	.st1{fill:#F0353D;}
	.st2{fill:#FD6A33;}
	.st3{fill:#FF8C29;}
	.st4{fill:#FFD1A9;}
	.st5{fill:#9BAAAB;}
	.st6{fill:#CDD4D5;}
	.st7{fill:url(#New_Pattern_Swatch_1);}
	.st8{fill:#F00500;}
	.st9{fill:url(#New_Pattern_Swatch_2);}
	.st10{fill:#FFFFFF;}
	.st11{fill:url(#New_Pattern_Swatch_9);}
	.st12{fill:#FFA409;}
	.st13{fill:url(#New_Pattern_Swatch_4);}
	.st14{fill:url(#New_Pattern_Swatch_3);}
	.st15{fill:#FF9300;}
	.st16{fill:#FF8300;}
	.st17{fill:url(#New_Pattern_Swatch_8);}
</style>
<pattern  y="512" width="128" height="128" patternUnits="userSpaceOnUse" id="New_Pattern_Swatch_1" viewBox="0 -128 128 128" style="overflow:visible;">
	<g>
		<rect y="-128" class="st0" width="128" height="128"/>
		<rect y="-128" class="st1" width="128" height="128"/>
	</g>
</pattern>
<pattern  y="512" width="128" height="128" patternUnits="userSpaceOnUse" id="New_Pattern_Swatch_2" viewBox="0 -128 128 128" style="overflow:visible;">
	<g>
		<rect y="-128" class="st0" width="128" height="128"/>
		<rect y="-128" class="st2" width="128" height="128"/>
	</g>
</pattern>
<pattern  y="512" width="128" height="128" patternUnits="userSpaceOnUse" id="New_Pattern_Swatch_3" viewBox="0 -128 128 128" style="overflow:visible;">
	<g>
		<rect y="-128" class="st0" width="128" height="128"/>
		<rect y="-128" class="st3" width="128" height="128"/>
	</g>
</pattern>
<pattern  y="512" width="128" height="128" patternUnits="userSpaceOnUse" id="New_Pattern_Swatch_4" viewBox="0 -128 128 128" style="overflow:visible;">
	<g>
		<rect y="-128" class="st0" width="128" height="128"/>
		<rect y="-128" class="st4" width="128" height="128"/>
	</g>
</pattern>
<pattern  y="512" width="128" height="128" patternUnits="userSpaceOnUse" id="New_Pattern_Swatch_8" viewBox="0 -128 128 128" style="overflow:visible;">
	<g>
		<rect y="-128" class="st0" width="128" height="128"/>
		<rect y="-128" class="st5" width="128" height="128"/>
	</g>
</pattern>
<pattern  y="512" width="128" height="128" patternUnits="userSpaceOnUse" id="New_Pattern_Swatch_9" viewBox="0 -128 128 128" style="overflow:visible;">
	<g>
		<rect y="-128" class="st0" width="128" height="128"/>
		<rect y="-128" class="st6" width="128" height="128"/>
	</g>
</pattern>
<g id="Group_938" transform="matrix(0.79793476,0,0,0.78883014,-760.8067,-182.97908)">
	<g id="Group_931">
		<path class="st7" d="M1283.9,253.3v73.3c-6.8-0.1-14.9-0.1-21.6,0c-0.8,0-1.6,0-2.3,0c-0.6,0-1.1,0-1.6,0c-0.4,0-0.9,0-1.3,0h-0.2
			c-0.4,0-0.8,0-1.2,0h-0.2c-0.4,0-0.7,0-1.1,0c-1.5,0.1-2.7,0.1-3.8,0.2h-0.1c-28.7,1.9-50.7,6.2-75.7,14.9c-1,0.4-1.9,0.7-2.7,1
			c-14.1-19.2-29.8-37.2-47.1-53.7c0,0,0,0,0,0C1174.6,263.8,1229.3,251.7,1283.9,253.3z"/>
		<path class="st8" d="M1172.1,342.9C1172,342.9,1172,342.9,1172.1,342.9c-14.2-19.2-29.9-37.2-47.2-53.7c0,0,0,0,0.1,0c0,0,0,0,0,0
			C1142.3,305.7,1158,323.7,1172.1,342.9z"/>
		<path class="st9" d="M1423.2,289.1c-16.7,16.7-32,34.8-45.6,54.1l-4.2-1.4c-24.8-8.1-50.5-13.1-76.4-14.8h-0.1c-0.1,0-0.3,0-0.4,0
			c-1.3-0.1-3.2-0.2-5.3-0.2c-0.4,0-0.9,0-1.3,0c-0.2,0-0.5,0-0.7,0c-0.2,0-0.5,0-0.7,0c-1,0-2,0-3-0.1c-0.5,0-1,0-1.5,0v-73.3
			c36.6,1.1,73.2,8.3,108,21.8c9.3,3.5,18.4,7.6,27.3,12L1423.2,289.1z"/>
		<path class="st8" d="M1377.6,343.2C1377.6,343.2,1377.6,343.2,1377.6,343.2l-4.3-1.4c-24.8-8.1-50.5-13.1-76.4-14.8h0.1
			c25.9,1.7,51.6,6.7,76.4,14.8L1377.6,343.2z"/>
		<path class="st7" d="M1283.9,838.3v42.6c-29.2,0.8-58.5-2.2-87.2-9.1c-46.2-11.2-89.3-32.5-126.3-62.3
			c-15.8-13-30.5-27.3-43.8-42.9c-70.5-83.3-91.9-197.7-56-300.8c6.8-19.1,15.3-37.5,25.5-55c4.6-7.9,10.3-16.7,13.1-20.5
			c9.6,41.2,21.4,77.4,25.8,90.5c-0.3,0.7-0.7,1.5-1.1,2.2c-23.3,47.2-35.9,92.7-38.9,141.1c0.1,0,0.1,0,0.2,0c0,0,0,0,0,0
			c0,0.6-0.1,1.3-0.1,1.9c-0.8,14.5-0.4,21.4,2,30.5c7.5,28.5,30.6,59.9,66.8,90.7c59.3,50.4,139.7,86.8,200.6,91
			C1270.7,838.6,1277.2,838.6,1283.9,838.3z"/>
		<path class="st8" d="M1035.2,480.8c0,0.1-0.1,0.2-0.1,0.3c-0.3,0.6-0.6,1.3-1,1.9c-23.3,47.2-35.9,92.7-38.9,141.1
			c-0.1,0-0.1,0-0.2,0c3-48.4,15.6-93.9,38.9-141.1c0.4-0.7,0.8-1.5,1.1-2.2c-4.4-13.1-16.2-49.3-25.8-90.5c0.1-0.1,0.1-0.1,0.2-0.2
			C1019,431.4,1030.8,467.7,1035.2,480.8z"/>
		<path class="st9" d="M1578,668.4c-12.6,35.9-31.5,69.2-56,98.2c-13.3,15.6-28,29.9-43.8,42.9c-37,29.8-80.2,51.1-126.3,62.3
			c-22.4,5.4-45.2,8.4-68,9.1v-42.6c62.1-3.2,143.9-38.2,200.2-87.1c9.8-8.7,19-17.9,27.6-27.7c6.2-7.2,15.4-19.6,14.7-19.6
			c-0.2,0,0-0.2,0.4-0.4c0.3-0.2,0.6-0.5,0.4-0.7c-0.1-0.1,0.1-0.4,0.4-0.5c0.3-0.1,0.5-0.3,0.4-0.5c-0.1-0.2,0-0.4,0.4-0.5
			c0.3-0.1,0.4-0.4,0.3-0.6c-0.1-0.2,0-0.4,0.2-0.4c0.1,0,0.2-0.1,0.3-0.2s0.1-0.2,0.1-0.3c0-0.1,0-0.2,0.1-0.3c0,0,0.1-0.1,0.1-0.1
			c0.1-0.1,0.1-0.1,0.2-0.1c0.2,0,0.4-0.2,0.4-0.4c0.3-0.8,0.8-1.6,1.3-2.3c1.5-2.3,7.5-13,8.3-14.8c5.7-12.9,9.3-24.4,11-35.9
			c0.8-5.5,1.3-15.6,0.9-18c-0.1-0.4-0.1-1.1-0.2-2.2c0,0,0,0,0,0c-0.2-2-0.3-5-0.5-8c-0.2-4.5-0.6-10.8-0.9-13.9
			c-4.3-45.4-15.9-82.5-37.9-121.8c-0.9-1.5-1.7-3-2.2-4.2c-0.2-0.3-0.3-0.6-0.4-0.8c1.6-4.7,5.5-16.7,10.3-33.2
			c4.8-16.4,10.5-37.3,15.6-59.5l0.2,0.2l1.5,2c2.6,3.5,9.5,13.9,12.6,18.9c14.1,23,25.1,47.7,32.9,73.5
			C1600.7,541,1599.2,607.2,1578,668.4z"/>
		<path class="st8" d="M1529.4,699.5c-0.1,0.1-0.1,0.2-0.1,0.3c0,0.1-0.1,0.2-0.1,0.3c0.1-0.1,0.1-0.2,0.1-0.3
			C1529.3,699.7,1529.3,699.6,1529.4,699.5z"/>
		<path d="M1448.2,548.9c-0.3,1.6-5,6.4-9.7,9.9c-13.8,10.1-38.5,19.5-63.6,24c-14.3,2.6-28.6,3-32.9,0.9c-2.8-1.4-3.2-2.5-2.2-6.1
			c2.1-7.5,8.9-15.7,19.5-23.4c5.4-3.9,27.3-17.2,37.5-22.8c16.8-9.2,30.4-14.7,39.6-16c2.9-0.4,6.4-0.5,7.5,0
			c1.8,0.7,3.8,6,4.6,12.4C1448.9,531.2,1448.7,546.2,1448.2,548.9z"/>
		<path d="M1212.6,582c-0.6,1.2-3.6,2.5-7,3c-3.4,0.5-13.8,0.2-19.7-0.5c-21.2-2.8-43.7-9.3-60.1-17.3c-9.2-4.5-15.8-9-20.7-13.9
			l-2.8-2.9l-0.3-3.8c-0.5-6.6-0.4-17,0.4-20.7c0.5-3.1,1.6-6.1,3.1-8.8c0.8-1,0.8-1,4.4-1c4.4,0,8.1,0.7,14.1,2.6
			c12.3,3.8,30.6,13,52.9,26.4c18.4,11,25.3,16.4,30.6,23.8C1211.1,573.5,1213.5,580,1212.6,582z"/>
		<path d="M1354.2,721.2c0,0,0,0.1,0,0.1c-0.1,0.4-0.3,1.4-0.7,2.9c0,0,0,0,0,0.1c-0.5,2-1.2,4.7-2,7.7c-1.5,5.7-2.7,10.3-2.7,10.5
			c-1.1,0.1-2.1,0.2-3.2,0.1h-3.2L1338,753c-2.4,5.7-4.6,11-4.9,11.8l-0.6,1.4l-2.1-3.4l-2.1-3.4v-27.7l-0.8,0.2
			c-1.7,0.4-13.8,2-19.1,2.5c-2,0.2-4.1,0.4-6.1,0.5c-1,0.1-2,0.2-3.1,0.2c-0.9,0.1-1.8,0.1-2.7,0.2c-0.3,0-0.6,0-0.8,0.1
			c-0.9,0-1.7,0.1-2.5,0.1c-0.1,0-0.2,0-0.3,0c-0.9,0-1.7,0.1-2.6,0.1c-0.7,0-1.4,0.1-2.1,0.1c-1.4,0-2.9,0.1-4.3,0.1
			c-1,0-1.9,0-2.9,0c-0.3,0-0.6,0-0.9,0c-1.3,0-2.6,0-3.9,0c-1.3,0-2.6-0.1-3.9-0.1c-0.2,0-0.4,0-0.6,0c-3.2-0.1-6.4-0.3-9.6-0.5
			c-6.5-0.5-12.9-1.2-19.3-2.1c-3.5-0.5-6.5-0.9-6.6-0.8c-0.1,0.1,0,6.5,0.2,14.4l0.3,14.2l-1.7,2.6c-0.9,1.4-1.8,2.6-1.8,2.7
			c-0.3,0.3-1.3-1.3-3.6-5.9c-2.5-4.8-4.3-9.9-5.6-15.2l-0.7-2.9l-3.1,0.2l-3.1,0.3l-0.8-3.7c-0.4-2-0.9-5.1-1.1-6.8l-0.3-3.2
			l-2.6-2.3c-1.5-1.3-3-2.6-3.3-2.8c-0.5-0.4-0.7-1.1-0.7-1.7v-1.2l12.5,0.1l12.5,0.1l0.4,1.3l0.4,1.3l4.3,0.2
			c2.4,0.1,10,0.3,16.8,0.5l12.5,0.3l3.2-5l3.3-5h4.2l-0.1-10.4l-0.1-10.4l-5.5-2.4c-17.7-7.8-28.1-16.7-32-27.5
			c-0.8-2.2-0.8-3-1-13c-0.1-9.9-0.1-10.8,0.6-13c1.4-5,5.3-8.9,10.3-10.2c1.7-0.5,6.2-0.5,29.8-0.5l3.6,0l24.2,0.1l3.1,1.5
			c3.7,1.8,5.4,3.1,7.5,5.9c2.4,3.2,3.1,5.7,3.1,11.8c0,8.7-0.6,16.2-1.5,19.2c-1.3,4.1-3.3,8-5.8,11.5c-5,6.4-14.1,12.8-22.4,15.7
			l-2.4,0.9l0.1,10.5l0.1,10.5l2.2,0.2l2.2,0.2l3,4.5l2.9,4.5h13.4c7.4,0,13.9,0.1,14.5,0.2c1,0.2,1.2,0.1,2.2-1.6l1.2-1.8h11.5
			C1351.6,720.7,1354.2,720.9,1354.2,721.2z"/>
		<path d="M1301.4,749.9c-1.9,1.1-3.2,1.6-3.5,1.4c-0.3-0.1-1.7-1.3-3.2-2.4l-2.7-2.2l-2.8,3c-0.4,0.4-0.7,0.8-1.1,1.2
			c-0.2,0.2-0.3,0.4-0.5,0.5c-0.1,0.1-0.2,0.2-0.3,0.3c-0.1,0.2-0.3,0.3-0.4,0.4c-0.4,0.4-0.7,0.8-1.1,1.1c-0.3,0.3-0.6,0.6-0.9,0.9
			c-0.1,0.1-0.2,0.2-0.3,0.3c-0.2,0.2-0.3,0.3-0.4,0.4c-0.2,0.1-0.3,0.3-0.4,0.4c-0.4,0.4-0.8,0.7-1.1,0.9c-0.1,0.1-0.2,0.1-0.3,0.2
			c-0.1,0.1-0.2,0.1-0.3,0.1c-0.1,0.1-0.2,0.1-0.3,0.1c-0.1,0-0.1,0-0.2,0c-0.2,0-0.4,0.1-0.6,0.1c-2.8,0.3-3.4-0.2-6.8-5.3
			c-1.8-2.6-3.2-4.8-3.2-4.8s-1.3-0.2-2.8-0.3l-2.8-0.3l-1.3,2.7l-1.3,2.7l-2.3-0.7c-1.8-0.6-3.6-1.3-5.3-2.1l-3-1.5v-5.7l26.6,0.1
			l5,0l21.6,0.1l0.1,2.7C1305.7,747.5,1305.8,747.4,1301.4,749.9z"/>
	</g>
	<path id="Path_8579" class="st10" d="M1102.7,640.5c15.2,7.8,30.3,18.6,44.2,33.5c0,0,0,0,0-0.1
		C1133,659,1117.9,648.2,1102.7,640.5z M1497.5,627.4c23.7-3.8,43-2.9,53.6-1.7v0C1540.5,624.5,1521.2,623.6,1497.5,627.4z
		 M1529.2,700.1c0.1-0.1,0.1-0.2,0.1-0.3c0-0.1,0-0.2,0.1-0.3c-0.1,0.1-0.1,0.2-0.1,0.3C1529.3,699.9,1529.2,700,1529.2,700.1z
		 M1327.9,590c54,24.2,67.1,84,67.1,84c0,0,0.1-0.1,0.1-0.1v0C1394.5,671.5,1380.9,613.6,1327.9,590z M1343,721.1
		c7.2,0,10.3,0.1,11.2,0.2c0-0.1,0-0.1,0-0.1C1354.2,720.9,1351.6,720.7,1343,721.1z M1348.7,742.4c-1.1,0.1-2.1,0.2-3.2,0.1h-3.2
		L1338,753l4.4-10.4h3.2c1.1,0.1,2.1,0,3.2-0.1c0-0.2,1.2-4.8,2.7-10.5c0.8-3,1.5-5.8,2-7.7c-0.6,1.9-1.3,4.7-2.1,7.6
		C1349.9,737.6,1348.7,742.2,1348.7,742.4z M1314.8,585.1c-1.6-0.5-3.3-1-5-1.4C1311.5,584.1,1313.2,584.6,1314.8,585.1z"/>
	<path class="st11" d="M1550.7,645.9c-1.7,11.5-5.3,23-11,35.9c-0.8,1.8-6.8,12.5-8.3,14.8c-0.5,0.7-1,1.5-1.3,2.3
		c0,0.2-0.2,0.4-0.4,0.4c-0.1,0-0.2,0-0.2,0.1c0,0-0.1,0.1-0.1,0.1c-0.1,0.1-0.1,0.2-0.1,0.3c0,0.1-0.1,0.2-0.1,0.3
		c-0.1,0.1-0.2,0.2-0.3,0.2c-0.2,0-0.3,0.2-0.2,0.4c0.1,0.2,0,0.5-0.3,0.6c-0.4,0.1-0.5,0.3-0.4,0.5c0.1,0.2-0.1,0.4-0.4,0.5
		c-0.3,0.1-0.5,0.4-0.4,0.5c0.2,0.2-0.1,0.5-0.4,0.7c-0.4,0.2-0.6,0.4-0.4,0.4c0.7,0-8.5,12.4-14.7,19.6c-8.6,9.8-17.8,19-27.6,27.7
		c-56.3,48.9-138.1,83.9-200.2,87.1v-83c0.1-0.1,0.3-0.3,0.4-0.4l0.4-0.4c0.1-0.1,0.2-0.2,0.3-0.3c0.3-0.3,0.6-0.6,0.9-0.9
		c0.3-0.3,0.7-0.7,1.1-1.1c0.1-0.1,0.3-0.3,0.4-0.4c0.1-0.1,0.2-0.2,0.3-0.3c0.2-0.2,0.3-0.4,0.5-0.5c0.3-0.4,0.7-0.7,1.1-1.2l2.8-3
		l2.7,2.2c1.5,1.1,2.9,2.3,3.2,2.4c0.3,0.2,1.6-0.3,3.5-1.4c4.4-2.5,4.3-2.4,4.2-5.6l-0.1-2.7l-21.6-0.1v-5.8c1.4,0,2.9,0,4.3-0.1
		c0.7,0,1.4,0,2.1-0.1c0.9,0,1.7-0.1,2.6-0.1c0.1,0,0.2,0,0.3,0c0.8,0,1.7-0.1,2.5-0.1c0.3,0,0.6,0,0.8-0.1c0.9-0.1,1.8-0.1,2.7-0.2
		c1-0.1,2-0.1,3.1-0.2c2-0.2,4.1-0.3,6.1-0.5c5.3-0.5,17.4-2.1,19.1-2.5l0.8-0.2v27.7l2.1,3.4l2.1,3.4l0.6-1.4
		c0.3-0.8,2.5-6.1,4.9-11.8l4.4-10.4h3.2c1.1,0.1,2.1,0,3.2-0.1c0-0.2,1.2-4.8,2.7-10.5c0.8-3,1.5-5.8,2-7.7c0,0,0,0,0-0.1
		c0.5-1.7,0.9-2.8,1-2.7c0-0.1-0.1-0.1-0.3-0.2c0-0.1,0-0.1,0-0.1c0-0.3-2.6-0.5-11.2-0.1h-11.5l-1.2,1.8c-1,1.7-1.2,1.8-2.2,1.6
		c-0.6-0.1-7.1-0.2-14.5-0.2h-13.4l-2.9-4.5l-3-4.5l-2.2-0.2l-2.2-0.2l-0.1-10.5l-0.1-10.5l2.4-0.9c8.3-2.9,17.4-9.3,22.4-15.7
		c2.5-3.5,4.5-7.4,5.8-11.5c0.9-3,1.5-10.5,1.5-19.2c0-6.1-0.7-8.6-3.1-11.8c-2.1-2.8-3.8-4.1-7.5-5.9l-3.1-1.5l-24.2-0.1v-47.2
		c1.2,0,2.3,0.1,3.4,0.2c0.8,0.1,1.7,0.1,2.5,0.2h0c0.5,0,1.1,0.1,1.6,0.1c1,0.1,1.9,0.2,2.8,0.3c0.1,0,0.2,0,0.3,0
		c0.9,0.1,1.8,0.2,2.6,0.3c0.1,0,0.1,0,0.2,0c0.6,0.1,1.2,0.2,1.9,0.3c1.2,0.2,2.4,0.4,3.6,0.6c0.6,0.1,1.2,0.2,1.8,0.3
		c1.2,0.2,2.4,0.5,3.5,0.8c0.6,0.1,1.2,0.3,1.7,0.4c1.7,0.4,3.4,0.9,5,1.4c0.5,0.2,1.1,0.3,1.6,0.5c1.1,0.3,2.1,0.7,3.2,1.1
		c1,0.3,1.9,0.7,2.8,1c0.9,0.4,1.9,0.7,2.8,1.1c0.9,0.4,1.8,0.8,2.7,1.2c54,24.2,67.1,84,67.1,84c0,0,0.1-0.1,0.1-0.1
		c0,0,0,0.1,0,0.1c16.6-13.7,33.6-23.8,50-31c0.2-0.1,0.4-0.2,0.7-0.3c0.5-0.3,1.1-0.5,1.6-0.7c0.3-0.2,0.7-0.3,1-0.4
		c0.9-0.4,1.8-0.8,2.8-1.2c0.7-0.3,1.4-0.6,2.1-0.8c0.7-0.3,1.3-0.5,2-0.8c1.3-0.5,2.7-1,4-1.5c0.7-0.2,1.3-0.5,2-0.7
		c0.8-0.3,1.5-0.5,2.3-0.8c0.5-0.2,1-0.3,1.5-0.5c3.3-1.1,6.5-2,9.7-2.9c0.7-0.2,1.4-0.4,2.1-0.6c1-0.3,2.1-0.5,3.1-0.8
		c0.2-0.1,0.3-0.1,0.5-0.1c0.8-0.2,1.7-0.4,2.5-0.6c1-0.2,2-0.4,3-0.7c1-0.2,2-0.4,3-0.6c0,0,0,0,0,0c2-0.4,4-0.8,6-1.1
		c0.9-0.2,1.7-0.3,2.6-0.4c23.7-3.8,43-2.9,53.6-1.7v0c0,0,0.1,0,0.1,0c0.1,1.1,0.1,1.8,0.2,2.2
		C1551.8,630.3,1551.3,640.4,1550.7,645.9z"/>
	<path id="Path_8580" class="st0" d="M995,624.1c-6.3,0.9-10,1.9-10,1.9"/>
	<path id="Path_8581" class="st0" d="M1560.1,627c0,0-3.2-0.7-8.9-1.3"/>
	<path id="Path_8582" class="st12" d="M1026.1,296.1c-0.1,0.6-0.2,1.2-0.3,1.7c-0.1,0.6-0.2,1.1-0.3,1.7c-0.1,0.4-0.1,0.7-0.2,1.1
		c0,0.3-0.1,0.5-0.1,0.8c0.2-1.8,0.5-3.5,0.8-5.2C1026.1,296.2,1026.1,296.1,1026.1,296.1C1026.1,296.1,1026.1,296.1,1026.1,296.1z
		 M1009.4,390.1c-0.1,0.1-0.1,0.1-0.2,0.2c9.6,41.2,21.4,77.4,25.8,90.5c-0.3,0.7-0.7,1.5-1.1,2.2c-23.3,47.2-35.9,92.7-38.9,141.1
		c0.1,0,0.1,0,0.2,0c3-48.4,15.6-93.9,38.9-141.1c0.4-0.6,0.7-1.3,1-1.9c0-0.1,0.1-0.2,0.1-0.3
		C1030.8,467.7,1019,431.4,1009.4,390.1z M1035.3,273.2c-4.7,6-7.7,13.9-9.3,22.9c0,0,0.1,0,0.1,0c0.8-4.5,1.9-8.6,3.5-12.5
		c1.5-3.8,3.5-7.3,5.8-10.3c0,0,42.4,4.2,110.7,80.1c0,0,0.1,0,0.1,0C1077.8,277.4,1035.4,273.2,1035.3,273.2z M1102.7,640.5
		c15.2,7.8,30.3,18.6,44.2,33.5c0,0,0,0,0-0.1C1133,659,1117.9,648.2,1102.7,640.5z M1125,289.2C1125,289.2,1125,289.2,1125,289.2
		c-0.1,0-0.1,0-0.1,0c17.3,16.5,33,34.5,47.1,53.7c0,0,0.1,0,0.1,0C1158,323.7,1142.3,305.7,1125,289.2z M1162.1,445
		c-7-1-32,2-36,27c-4,25,28,23,28,23s18,1,22,0c4-1,11,3,16-18C1197.1,456,1169.1,446,1162.1,445z M1497.5,627.4
		c23.7-3.8,43-2.9,53.6-1.7v0C1540.5,624.5,1521.2,623.6,1497.5,627.4z M1518.1,296.1c-1.6-9-4.5-16.8-9.1-22.9
		c4.5,6.1,7.4,13.9,9,22.9v0c1.1,6.1,1.5,12.7,1.5,19.6c0,52.7-27.1,124.1-28.3,127.3v0c0,0,0,0.1,0.1,0.1c0,0,28.3-73.4,28.3-127.3
		C1519.6,308.8,1519.2,302.2,1518.1,296.1z M1398.1,445c-7-1-32,2-36,27c-4,25,28,23,28,23s18,1,22,0c4-1,11,3,16-18
		C1433.1,456,1405.1,446,1398.1,445z M1327.9,590c54,24.2,67.1,84,67.1,84c0,0,0.1-0.1,0.1-0.1v0
		C1394.5,671.5,1380.9,613.6,1327.9,590z M1373.4,341.8c-24.8-8.1-50.5-13.1-76.4-14.8h-0.1c25.9,1.7,51.6,6.7,76.4,14.8l4.3,1.4
		c0,0,0,0,0,0L1373.4,341.8z M1309.8,583.7c1.7,0.4,3.4,0.9,5,1.4C1313.2,584.6,1311.5,584.1,1309.8,583.7z"/>
	<path class="st13" d="M1550.6,617.7c-0.2-4.5-0.6-10.8-0.9-13.9c-4.3-45.4-15.9-82.5-37.9-121.8c-0.9-1.5-1.7-3-2.2-4.2
		c-0.2-0.3-0.3-0.6-0.4-0.8c1.6-4.7,5.5-16.7,10.3-33.2c4.8-16.4,10.5-37.3,15.6-59.5c13.7-60.4,22.4-131-4.2-152.2
		c0,0-46-3.4-107.6,57c-16.7,16.7-32,34.8-45.6,54.1l-0.1,0c0,0,0,0,0,0l-4.3-1.4c-24.8-8.1-50.5-13.1-76.4-14.8c-0.1,0-0.3,0-0.4,0
		c-1.3-0.1-3.2-0.2-5.3-0.2c-0.4,0-0.9,0-1.3,0c-0.2,0-0.5,0-0.7,0c-0.2,0-0.5,0-0.7,0c-1,0-2,0-3-0.1c-0.5,0-1,0-1.5,0v253.5
		c1.2,0,2.3,0.1,3.4,0.2c0.8,0.1,1.7,0.1,2.5,0.2h0c0.5,0,1.1,0.1,1.6,0.1c1,0.1,1.9,0.2,2.8,0.3c0.1,0,0.2,0,0.3,0
		c0.9,0.1,1.8,0.2,2.6,0.3c0.1,0,0.1,0,0.2,0c0.6,0.1,1.2,0.2,1.9,0.3c1.2,0.2,2.4,0.4,3.6,0.6c0.6,0.1,1.2,0.2,1.8,0.3
		c1.2,0.2,2.4,0.5,3.5,0.8c0.6,0.1,1.2,0.3,1.7,0.4c1.7,0.4,3.4,0.9,5,1.4c0.5,0.2,1.1,0.3,1.6,0.5c1.1,0.3,2.1,0.7,3.2,1.1
		c1,0.3,1.9,0.7,2.8,1c0.9,0.4,1.9,0.7,2.8,1.1c0.9,0.4,1.8,0.7,2.7,1.2c53,23.6,66.6,81.5,67.1,84c16.6-13.7,33.6-23.7,50-31
		c0.2-0.1,0.4-0.2,0.7-0.3c0.5-0.3,1.1-0.5,1.6-0.7c0.3-0.2,0.7-0.3,1-0.4c0.9-0.4,1.8-0.8,2.8-1.2c0.7-0.3,1.4-0.6,2.1-0.8
		c0.7-0.3,1.3-0.5,2-0.8c1.3-0.5,2.7-1,4-1.5c0.7-0.2,1.3-0.5,2-0.7c0.8-0.3,1.5-0.5,2.3-0.8c0.5-0.2,1-0.3,1.5-0.5
		c3.3-1.1,6.5-2,9.7-2.9c0.7-0.2,1.4-0.4,2.1-0.6c1-0.3,2.1-0.5,3.1-0.8c0.2-0.1,0.3-0.1,0.5-0.1c0.8-0.2,1.7-0.4,2.5-0.6
		c1-0.2,2-0.4,3-0.7c1-0.2,2-0.4,3-0.6c0,0,0,0,0,0c2-0.4,4-0.8,6-1.1c0.9-0.2,1.7-0.3,2.6-0.4c23.7-3.8,42.9-2.9,53.6-1.8
		C1551,623.7,1550.8,620.7,1550.6,617.7z M1362.1,472c4-25,29-28,36-27c7,1,35,11,30,32c-5,21-12,17-16,18c-4,1-22,0-22,0
		S1358.1,497,1362.1,472z M1448.2,548.9c-0.3,1.6-5,6.4-9.7,9.9c-13.8,10.1-38.5,19.5-63.6,24c-14.3,2.6-28.6,3-32.9,0.9
		c-2.8-1.4-3.2-2.5-2.2-6.1c2.1-7.5,8.9-15.7,19.5-23.4c5.4-3.9,27.3-17.2,37.5-22.8c16.8-9.2,30.4-14.7,39.6-16
		c2.9-0.4,6.4-0.5,7.5,0c1.8,0.7,3.8,6,4.6,12.4C1448.9,531.2,1448.7,546.2,1448.2,548.9z M1491.3,443.1
		C1491.3,443.1,1491.3,443,1491.3,443.1c-0.1,0-0.1,0-0.1,0c-14.1-25.2-32.9-47.7-55.1-66.3c-1.5-1.2-3-2.4-4.5-3.7l-0.2-0.1
		c-16.8-13.4-29.4-19.7-29.4-19.7c66.1-76,107-80.2,107-80.2c4.6,6.1,7.5,13.9,9.1,22.9c1.1,6.1,1.5,12.7,1.5,19.7
		C1519.6,369.7,1491.3,443.1,1491.3,443.1z"/>
	<path class="st14" d="M1262.3,326.6c-0.8,0-1.6,0-2.3,0c-0.6,0-1.1,0-1.6,0c-0.4,0-0.9,0-1.3,0h-0.2c-0.4,0-0.8,0-1.2,0h-0.2
		c-0.4,0-0.7,0-1.1,0c-1.5,0.1-2.7,0.1-3.8,0.2c-28.7,1.9-50.7,6.2-75.7,14.9c-1,0.4-1.9,0.7-2.8,1c0,0,0,0,0,0c0,0-0.1,0-0.1,0
		c-14.1-19.2-29.8-37.2-47.1-53.7c0,0,0,0,0.1,0c-64.1-60.7-111.8-57.2-111.8-57.2c-28.2,21.9-18.6,95.7-4,158.1
		c0,0.1,0,0.1,0.1,0.2c0.1-0.1,0.1-0.1,0.2-0.2c9.6,41.3,21.4,77.6,25.8,90.7c0,0.1-0.1,0.2-0.1,0.3c-0.3,0.6-0.6,1.3-1,1.9
		c-23.3,47.2-35.9,92.7-38.9,141.1c1.7-0.3,3.6-0.5,5.6-0.7c0.7-0.1,1.4-0.2,2.1-0.2c0.5-0.1,1.1-0.1,1.7-0.2c0.2,0,0.4,0,0.6-0.1
		c0.3,0,0.7-0.1,1-0.1c0.1,0,0.2,0,0.4,0c0.1,0,0.1,0,0.1,0c0.3,0,0.6-0.1,0.9-0.1c0.8-0.1,1.6-0.1,2.4-0.2c0.9-0.1,1.7-0.1,2.6-0.2
		c0.7,0,1.3-0.1,2-0.1c1.3-0.1,2.6-0.1,4-0.1h0c2.1-0.1,4.3-0.1,6.6,0c0.9,0,1.8,0,2.7,0.1c0.1,0,0.1,0,0.2,0c1.1,0,2.3,0.1,3.5,0.1
		c1.8,0.1,3.7,0.2,5.6,0.3c1.5,0.1,3.1,0.3,4.7,0.4c0.8,0.1,1.5,0.2,2.3,0.2c0.8,0.1,1.5,0.2,2.3,0.3c0.3,0,0.6,0.1,0.9,0.1
		c0.3,0,0.6,0.1,0.9,0.1c0.1,0,0.2,0,0.3,0c1.6,0.2,3.3,0.5,5,0.7c1.6,0.3,3.2,0.5,4.8,0.8c0,0,0,0,0,0c0.7,0.1,1.3,0.2,1.9,0.4
		c6.5,1.3,13.2,3,20,5.3c1.4,0.5,2.7,0.9,4.1,1.4c0,0,0,0,0.1,0c1,0.4,2,0.7,3,1.1c1,0.4,2,0.8,3,1.2c1,0.4,2,0.8,3,1.3
		c1,0.4,2,0.9,3,1.3h0c1.1,0.5,2.2,1,3.2,1.5c1,0.5,2,1,3,1.5c15.2,7.7,30.3,18.5,44.2,33.4c0.7-1.9,14.3-36,45.9-62.6
		c0.5-0.4,1-0.9,1.5-1.3c3.5-2.9,7.3-5.7,11.3-8.4c0.7-0.5,1.4-0.9,2.1-1.4c0,0,0.1,0,0.1-0.1c1.4-0.9,2.8-1.7,4.2-2.5
		c1.4-0.8,2.8-1.6,4.3-2.4c1.8-1,3.5-1.9,5.4-2.7c2.7-1.3,5.6-2.5,8.5-3.7c0.8-0.3,1.7-0.7,2.5-1c0.9-0.3,1.7-0.6,2.6-0.9
		c0.1,0,0.2-0.1,0.3-0.1c0.6-0.2,1.2-0.4,1.8-0.6c0.1,0,0.2-0.1,0.3-0.1c1-0.3,1.9-0.6,2.9-0.9c0.6-0.2,1.2-0.4,1.8-0.5
		c0.6-0.2,1.2-0.3,1.8-0.5c0.6-0.2,1.2-0.3,1.8-0.5c0.6-0.2,1.2-0.3,1.9-0.4c0.4-0.1,0.8-0.2,1.3-0.3c0.1,0,0.2,0,0.3-0.1
		c0.4-0.1,0.7-0.2,1.1-0.2c0.7-0.2,1.5-0.3,2.2-0.4c0.5-0.1,0.9-0.2,1.4-0.3c1-0.2,2-0.4,3-0.5c0.8-0.1,1.5-0.3,2.3-0.4
		c1-0.1,2-0.3,3-0.4c0,0,0.1,0,0.1,0c1-0.1,2-0.2,3-0.3c0.5-0.1,1.1-0.1,1.6-0.1c0.8-0.1,1.7-0.1,2.5-0.2c2.8-0.2,5.8-0.3,8.7-0.3
		c1.8,0,3.6,0,5.4,0.1V326.6C1277,326.5,1269,326.5,1262.3,326.6z M1162.1,445c7,1,35,11,30,32c-5,21-12,17-16,18c-4,1-22,0-22,0
		s-32,2-28-23C1130.1,447,1155.1,444,1162.1,445z M1099.6,386.7c-0.5,0.4-1,0.9-1.5,1.4c-1.5,1.4-3,2.8-4.5,4.2
		c-0.5,0.5-1.1,1.1-1.6,1.6c-0.5,0.5-1,0.9-1.4,1.4l-1.4,1.4c-1.4,1.5-2.9,2.9-4.3,4.5c-0.9,1-1.9,2.1-2.8,3.1c0,0,0,0,0,0
		c-3.2,3.6-6.4,7.3-9.5,11.3c-0.5,0.7-1.1,1.3-1.6,2c-0.5,0.7-1,1.3-1.6,2c-0.5,0.7-1,1.4-1.6,2.1c-1.6,2.1-3.1,4.3-4.6,6.5
		c-0.5,0.7-1,1.5-1.5,2.2c-0.7,1-1.3,2-2,3c-0.5,0.7-0.9,1.4-1.4,2.2s-0.9,1.4-1.4,2.2c-1.1,1.7-2.1,3.4-3.1,5.2c0,0-1-2.4-2.6-6.7
		c-0.2-0.5-0.4-1-0.6-1.6c-0.1-0.2-0.2-0.4-0.2-0.6c-0.2-0.5-0.4-1.1-0.6-1.7c-0.1-0.4-0.3-0.7-0.4-1.1c-0.1-0.3-0.2-0.5-0.3-0.8
		c-0.2-0.4-0.3-0.9-0.5-1.4c-0.1-0.3-0.2-0.5-0.3-0.8c-0.1-0.3-0.2-0.6-0.3-0.9c-0.2-0.5-0.4-1-0.5-1.5c-0.2-0.6-0.4-1.2-0.6-1.8
		c-0.3-0.8-0.6-1.7-0.9-2.6c-0.1-0.3-0.2-0.6-0.3-0.9c-0.2-0.5-0.4-1.1-0.5-1.6c-0.6-1.7-1.1-3.4-1.7-5.2c-0.2-0.7-0.5-1.4-0.7-2.1
		c-0.1-0.4-0.2-0.7-0.3-1.1c-0.5-1.4-0.9-2.9-1.4-4.4c-0.1-0.4-0.2-0.7-0.3-1.1c-0.2-0.7-0.5-1.5-0.7-2.3c-0.1-0.2-0.1-0.4-0.2-0.6
		c-0.2-0.6-0.3-1.2-0.5-1.7c-1-3.5-2.1-7.1-3.1-10.9c-0.5-1.7-0.9-3.3-1.3-5c-0.7-2.5-1.3-5.1-2-7.8c-0.4-1.6-0.8-3.3-1.2-5
		c-0.4-1.5-0.7-3.1-1-4.7c-0.3-1.2-0.5-2.4-0.8-3.7c-0.5-2.6-1-5.1-1.5-7.7c0-0.2-0.1-0.5-0.1-0.7c-0.3-1.7-0.6-3.4-0.9-5.1
		c-0.4-2.1-0.7-4.3-1-6.4c-0.1-1-0.3-1.9-0.4-2.9c-0.1-0.7-0.2-1.4-0.3-2.1c-0.1-0.7-0.2-1.4-0.3-2.1c-0.1-0.8-0.2-1.6-0.3-2.4
		c-0.3-2.5-0.5-5.1-0.6-7.6c-0.1-0.9-0.1-1.7-0.2-2.6c-0.3-6.4-0.3-12.6,0.2-18.4c0.1-0.8,0.1-1.6,0.2-2.5c0.1-0.6,0.1-1.2,0.2-1.8
		c0-0.3,0.1-0.5,0.1-0.8c0.1-0.4,0.1-0.7,0.2-1.1c0.1-0.6,0.2-1.1,0.3-1.7c0.1-0.6,0.2-1.2,0.3-1.7c0,0,0,0,0,0v0
		c-0.1,0-0.1,0-0.1,0c1.6-9,4.6-16.9,9.3-22.9c0.1,0,42.5,4.2,110.9,80.2c0,0,0,0-0.1,0c0,0,0,0.1,0.1,0.1c0,0-13,6.3-30.4,19.7
		c0,0-0.1,0.1-0.2,0.1c-0.6,0.5-1.2,0.9-1.8,1.4c-0.6,0.5-1.2,0.9-1.8,1.4c-1.2,1-2.4,1.9-3.6,3c-0.4,0.3-0.7,0.6-1.1,0.9
		c-0.4,0.3-0.7,0.6-1.1,0.9C1104.1,382.7,1101.9,384.6,1099.6,386.7z M1212.6,582c-0.6,1.2-3.6,2.5-7,3c-3.4,0.5-13.8,0.2-19.7-0.5
		c-21.2-2.8-43.7-9.3-60.1-17.3c-9.2-4.5-15.8-9-20.7-13.9l-2.8-2.9l-0.3-3.8c-0.5-6.6-0.4-17,0.4-20.7c0.5-3.1,1.6-6.1,3.1-8.8
		c0.8-1,0.8-1,4.4-1c4.4,0,8.1,0.7,14.1,2.6c12.3,3.8,30.6,13,52.9,26.4c18.4,11,25.3,16.4,30.6,23.8
		C1211.1,573.5,1213.5,580,1212.6,582z"/>
	<path id="Path_8583" class="st0" d="M1377.6,343.2c-0.2,0.2-0.3,0.5-0.5,0.7"/>
	<path id="Path_8584" class="st0" d="M1509.1,476.9c-0.5,1.4-0.7,2.1-0.7,2.1"/>
	<g id="Group_934">
		<g id="Group_933">
			<g id="Group_932">
				<path class="st15" d="M1518.1,296.1c0,0-0.1,0-0.1,0c-1.7-0.2-4.7-0.4-8.8,0.3c-0.3,0-0.6,0.1-0.8,0.1c-0.3,0-0.6,0.1-0.9,0.2
					c-0.3,0.1-0.6,0.1-0.9,0.2c-0.6,0.1-1.2,0.3-1.8,0.4c-0.9,0.2-1.9,0.5-2.8,0.8c-0.3,0.1-0.7,0.2-1,0.3
					c-6.7,2.3-15,6.6-24.3,14.5c-0.5,0.4-0.9,0.8-1.4,1.2c-1.9,1.6-3.8,3.4-5.8,5.4c-0.5,0.5-1,1-1.5,1.5c-1.5,1.6-3.1,3.2-4.7,5
					c-2.1,2.4-4.2,4.9-6.4,7.6c-0.5,0.7-1.1,1.4-1.6,2.1c-1.1,1.4-2.2,2.9-3.3,4.4c-1.1,1.5-2.2,3.1-3.3,4.7c-1.7,2.4-3.4,5-5.1,7.7
					c-4,6.2-8,13.2-12.1,20.8l-0.2-0.1c-16.8-13.4-29.4-19.7-29.4-19.7c66.1-76,107-80.2,107-80.2
					C1513.6,279.3,1516.5,287.1,1518.1,296.1z"/>
			</g>
			<path class="st9" d="M1519.5,315.7c0,52.7-27.1,124.1-28.3,127.3c-14.2-25.3-32.9-47.6-55.1-66.1c-1.5-1.2-3-2.4-4.5-3.7
				c4.1-7.7,8.1-14.6,12.1-20.8c1.7-2.7,3.4-5.2,5.1-7.7c1.1-1.6,2.2-3.2,3.3-4.7c1.1-1.5,2.2-3,3.3-4.4c0.6-0.7,1.1-1.4,1.6-2.1
				c2.2-2.7,4.3-5.3,6.4-7.6c1.6-1.8,3.1-3.4,4.7-5c0.5-0.5,1-1,1.5-1.5c2-2,3.9-3.7,5.8-5.4c0.5-0.4,0.9-0.8,1.4-1.2
				c9.3-7.8,17.6-12.1,24.3-14.5c0.3-0.1,0.7-0.2,1-0.3c1-0.3,1.9-0.6,2.8-0.8c0.6-0.2,1.2-0.3,1.8-0.4c0.3-0.1,0.6-0.1,0.9-0.2
				c0.3-0.1,0.6-0.1,0.9-0.2c0.3-0.1,0.6-0.1,0.8-0.1c4.1-0.6,7-0.5,8.8-0.3v0C1519.1,302.2,1519.5,308.8,1519.5,315.7z"/>
			<path class="st16" d="M1457.1,333.5c2.2-2.7,4.3-5.3,6.4-7.6C1461.4,328.3,1459.2,330.8,1457.1,333.5z"/>
			<path class="st16" d="M1501.1,298.4c-6.7,2.3-15,6.6-24.3,14.5C1486.1,305,1494.3,300.7,1501.1,298.4z"/>
			<path class="st16" d="M1504.9,297.2c-0.9,0.2-1.9,0.5-2.8,0.8C1503.1,297.7,1504,297.5,1504.9,297.2z"/>
			<path class="st16" d="M1519.6,315.8c0,54-28.3,127.3-28.3,127.3c0,0,0-0.1-0.1-0.1v0c1.2-3.1,28.3-74.5,28.3-127.3
				c0-6.9-0.5-13.6-1.5-19.6v0c0,0,0.1,0,0.1,0C1519.2,302.2,1519.6,308.8,1519.6,315.8z"/>
			<path id="Path_8587" class="st16" d="M1519.6,296.4c-0.5-0.1-1-0.2-1.5-0.3L1519.6,296.4z"/>
		</g>
	</g>
	<path id="Path_8588" class="st0" d="M1175.1,347.1c-1-1.4-2.1-2.8-3.1-4.2"/>
	<path id="Path_8589" class="st0" d="M1035,480.8c1.1,3.4,1.8,5.2,1.8,5.2"/>
	<g id="Group_937">
		<g id="Group_936">
			<g id="Group_935">
				<path class="st9" d="M1146.1,353.4c-1,0.5-13.6,6.8-30.3,19.7c0,0-0.1,0.1-0.1,0.1c-12.1-21.9-23.8-37.7-34.6-49
					c-0.7-0.7-1.4-1.5-2.1-2.2c-0.8-0.8-1.5-1.5-2.3-2.2c-2.8-2.7-5.4-5-8-7.1c-0.5-0.4-1-0.8-1.5-1.2c-1.5-1.2-2.9-2.2-4.3-3.2
					c-3.8-2.6-7.4-4.7-10.7-6.4c-0.8-0.4-1.6-0.8-2.4-1.2c-1.2-0.5-2.4-1-3.5-1.4c-1.1-0.4-2.2-0.8-3.3-1.1
					c-0.7-0.2-1.4-0.4-2.1-0.6c-0.7-0.2-1.3-0.3-2-0.5c-3.8-0.9-6.9-1.1-9.3-1.1l-2.4,0.1c-0.2,0-0.4,0-0.6,0.1
					c-0.2,0-0.3,0-0.5,0.1c0.8-4.5,1.9-8.6,3.5-12.5c1.5-3.8,3.5-7.3,5.8-10.3C1035.4,273.3,1077.8,277.5,1146.1,353.4z"/>
				<path class="st15" d="M1067.1,311.4c-1.5-1.1-2.9-2.2-4.3-3.2C1064.2,309.2,1065.6,310.3,1067.1,311.4z"/>
				<path class="st15" d="M1115.7,373.2C1115.7,373.2,1115.6,373.2,1115.7,373.2c-12.2-21.9-23.9-37.6-34.6-49
					C1091.9,335.5,1103.6,351.3,1115.7,373.2z"/>
				<path class="st15" d="M1146.2,353.4C1146.2,353.4,1146.2,353.4,1146.2,353.4c-68.4-75.9-110.8-80.1-110.8-80.1
					c-2.3,3-4.3,6.5-5.8,10.3c-1.5,3.8-2.7,8-3.5,12.5c-0.1,0-0.1,0-0.1,0c1.6-9,4.6-16.9,9.3-22.9
					C1035.4,273.2,1077.8,277.4,1146.2,353.4z"/>
			</g>
			<path class="st13" d="M1115.7,373.2c-0.6,0.5-1.3,1-1.9,1.5c-0.6,0.5-1.2,0.9-1.8,1.4c-1.2,1-2.4,1.9-3.6,3
				c-0.4,0.3-0.7,0.6-1.1,0.9c-0.4,0.3-0.7,0.6-1.1,0.9c-2.2,1.8-4.4,3.8-6.6,5.8c-0.5,0.4-1,0.9-1.5,1.4c-1.5,1.4-3,2.8-4.5,4.2
				c-0.5,0.5-1.1,1-1.6,1.6c-0.5,0.5-1,0.9-1.4,1.4c-0.5,0.5-1,1-1.4,1.4c-1.4,1.5-2.9,2.9-4.3,4.5c-1,1-1.9,2.1-2.8,3.1
				c0,0,0,0,0,0c-3.2,3.6-6.4,7.3-9.5,11.3c-0.5,0.7-1.1,1.3-1.6,2c-0.5,0.7-1,1.3-1.6,2c-0.5,0.7-1.1,1.4-1.6,2.1
				c-1.6,2.1-3.1,4.3-4.6,6.5c-0.5,0.7-1,1.5-1.5,2.2c-0.7,1-1.3,2-2,3c-0.5,0.7-0.9,1.4-1.4,2.2s-0.9,1.4-1.4,2.2
				c-1.1,1.7-2.1,3.4-3.1,5.2c0,0-1-2.4-2.6-6.7c-0.2-0.5-0.4-1-0.6-1.6c-0.1-0.2-0.2-0.4-0.2-0.6c-0.2-0.5-0.4-1.1-0.6-1.7
				c-0.1-0.4-0.3-0.7-0.4-1.1c-0.1-0.3-0.2-0.5-0.3-0.8c-0.2-0.4-0.3-0.9-0.5-1.4c-0.1-0.3-0.2-0.5-0.3-0.8
				c-0.1-0.3-0.2-0.6-0.3-0.9c-0.2-0.5-0.4-1-0.5-1.5c-0.2-0.6-0.4-1.2-0.6-1.8c-0.3-0.8-0.6-1.7-0.9-2.6c-0.1-0.3-0.2-0.6-0.3-0.9
				c-0.2-0.5-0.4-1.1-0.5-1.6c-0.6-1.7-1.1-3.4-1.7-5.2c-0.2-0.7-0.4-1.4-0.7-2.1c-0.1-0.4-0.2-0.7-0.3-1.1
				c-0.4-1.4-0.9-2.9-1.4-4.4c-0.1-0.4-0.2-0.7-0.3-1.1c-0.2-0.7-0.5-1.5-0.7-2.3c-0.1-0.2-0.1-0.4-0.2-0.6
				c-0.2-0.6-0.3-1.2-0.5-1.7c-1-3.5-2.1-7.1-3.1-10.9c-0.5-1.7-0.9-3.3-1.3-5c-0.7-2.5-1.3-5.1-2-7.8c-0.4-1.7-0.8-3.3-1.2-5
				c-0.4-1.5-0.7-3.1-1-4.7c-0.3-1.2-0.5-2.4-0.8-3.7c-0.5-2.6-1-5.1-1.5-7.7c0-0.2-0.1-0.5-0.1-0.7c-0.3-1.7-0.6-3.4-0.9-5.1
				c-0.4-2.1-0.7-4.3-1-6.4c-0.1-1-0.3-1.9-0.4-2.9c-0.1-0.7-0.2-1.4-0.3-2.1c-0.1-0.7-0.2-1.4-0.3-2.1c-0.1-0.8-0.2-1.6-0.3-2.4
				c-0.3-2.5-0.5-5.1-0.6-7.6c-0.1-0.9-0.1-1.7-0.2-2.6c-0.3-6.4-0.3-12.6,0.2-18.4c0.1-0.8,0.1-1.6,0.2-2.5
				c0.1-0.6,0.1-1.2,0.2-1.8c0.2-1.8,0.5-3.5,0.8-5.2c0,0,0-0.1,0-0.1c0.2,0,0.3,0,0.5-0.1c0.2,0,0.4,0,0.6-0.1l2.4-0.1
				c2.4,0,5.5,0.3,9.3,1.1c0.6,0.2,1.3,0.3,2,0.5c0.7,0.2,1.4,0.4,2.1,0.6c1.1,0.3,2.2,0.7,3.3,1.1c1.1,0.4,2.3,0.9,3.5,1.4
				c0.8,0.4,1.6,0.7,2.4,1.2c3.3,1.7,6.9,3.8,10.7,6.4c1.4,1,2.8,2.1,4.3,3.2c0.5,0.4,1,0.8,1.5,1.2c2.6,2.1,5.3,4.5,8,7.1
				c0.8,0.7,1.5,1.5,2.3,2.2c0.7,0.7,1.4,1.5,2.1,2.2c10.7,11.3,22.4,27.1,34.5,49C1115.6,373.2,1115.7,373.2,1115.7,373.2
				C1115.7,373.2,1115.7,373.2,1115.7,373.2z"/>
			<path class="st16" d="M1026.1,296.1C1026.1,296.1,1026.1,296.1,1026.1,296.1c0,0,0,0.1,0,0.1c-0.3,1.7-0.6,3.4-0.8,5.2
				c0-0.3,0.1-0.5,0.1-0.8c0.1-0.4,0.1-0.7,0.2-1.1c0.1-0.6,0.2-1.1,0.3-1.7C1025.9,297.2,1026,296.7,1026.1,296.1z"/>
			<path class="st16" d="M1067.1,311.4c-1.5-1.1-2.9-2.2-4.3-3.2C1064.2,309.2,1065.6,310.3,1067.1,311.4z"/>
			<path class="st16" d="M1115.7,373.2C1115.7,373.2,1115.6,373.2,1115.7,373.2c-12.2-21.9-23.9-37.6-34.6-49
				C1091.9,335.5,1103.6,351.3,1115.7,373.2z"/>
			<path id="Path_8592" class="st16" d="M1026.1,296.1c-0.5,0.1-1.1,0.2-1.6,0.3L1026.1,296.1z"/>
		</g>
	</g>
	<path class="st10" d="M1428.1,477c-5,21-12,17-16,18c-4,1-22,0-22,0s-32,2-28-23c4-25,29-28,36-27
		C1405.1,446,1433.1,456,1428.1,477z"/>
	<path class="st10" d="M1192.1,477c-5,21-12,17-16,18c-4,1-22,0-22,0s-32,2-28-23c4-25,29-28,36-27
		C1169.1,446,1197.1,456,1192.1,477z"/>
</g>
<path class="st17" d="M228.8,320.3c-0.6,1.7-0.6,2.5-0.5,10.3c0.2,7.9,0.2,8.5,0.8,10.2c3.1,8.5,11.4,15.5,25.5,21.7l4.4,1.9
	l0.1,8.2l0.1,8.2h-3.3l-2.6,3.9l-2.6,4l-10-0.2c-5.4-0.2-11.5-0.3-13.4-0.4l-3.4-0.1l-0.3-1l-0.3-1l-10-0.1l-10-0.1v1
	c0,0.5,0.2,1,0.6,1.3c0.2,0.2,1.4,1.2,2.6,2.2l2.1,1.8l0.2,2.5c0.2,1.3,0.6,3.8,0.9,5.4l0.6,2.9l2.5-0.2l2.5-0.2l0.6,2.3
	c1,4.2,2.5,8.2,4.5,12c1.8,3.6,2.6,4.9,2.9,4.7c0-0.1,0.7-1,1.4-2.1l1.4-2.1l-0.2-11.2c-0.2-6.2-0.2-11.3-0.2-11.4
	c0.1-0.1,2.5,0.2,5.3,0.6c5.1,0.7,10.3,1.3,15.4,1.6c2.6,0.2,5.1,0.3,7.7,0.4c0.1,0,0.3,0,0.5,0c1,0,2.1,0.1,3.1,0.1
	c1,0,2.1,0,3.1,0c0.2,0,0.5,0,0.7,0c0.8,0,1.5,0,2.3,0v4.6l-4,0l-21.2-0.1v4.5l2.4,1.2c1.4,0.6,2.8,1.2,4.2,1.7l1.8,0.5l1-2.1l1-2.1
	l2.2,0.2c1.2,0.1,2.2,0.2,2.2,0.2s1.1,1.7,2.5,3.8c2.7,4,3.2,4.4,5.4,4.2c0.2,0,0.3,0,0.5,0c0.1,0,0.1,0,0.2,0c0.1,0,0.2,0,0.3-0.1
	c0.1,0,0.1,0,0.2-0.1c0.1,0,0.1-0.1,0.2-0.1c0.2-0.1,0.5-0.4,0.8-0.7v65.4c-5.3,0.3-10.5,0.2-15.5-0.1
	c-48.6-3.3-112.8-32-160.1-71.8c-28.9-24.3-47.3-49.1-53.3-71.5c-1.9-7.2-2.2-12.6-1.6-24.1c0-0.5,0.1-1,0.1-1.5
	c1.4-0.2,2.9-0.4,4.5-0.6c0.5-0.1,1.1-0.1,1.7-0.2c0.4,0,0.9-0.1,1.3-0.1c0.1,0,0.3,0,0.5,0c0.3,0,0.5-0.1,0.8-0.1
	c0.1,0,0.2,0,0.3,0c0,0,0.1,0,0.1,0c0.2,0,0.5,0,0.7,0c0.6,0,1.2-0.1,1.9-0.1c0.7,0,1.4-0.1,2.1-0.1c0.5,0,1.1-0.1,1.6-0.1
	c1,0,2.1-0.1,3.2-0.1h0c1.7,0,3.5,0,5.3,0c0.7,0,1.4,0,2.2,0c0,0,0.1,0,0.1,0c0.9,0,1.8,0.1,2.8,0.1c1.5,0.1,3,0.2,4.5,0.3
	c1.2,0.1,2.5,0.2,3.8,0.3c0.6,0.1,1.2,0.1,1.8,0.2c0.6,0.1,1.2,0.1,1.8,0.2c0.2,0,0.5,0.1,0.7,0.1c0.2,0,0.5,0.1,0.7,0.1
	c0.1,0,0.2,0,0.2,0c1.3,0.2,2.6,0.4,4,0.6c1.3,0.2,2.6,0.4,3.9,0.7c0,0,0,0,0,0c0.5,0.1,1,0.2,1.5,0.3c5.2,1,10.5,2.4,16,4.2
	c1.1,0.4,2.2,0.7,3.3,1.1c0,0,0,0,0,0c0.8,0.3,1.6,0.6,2.4,0.9c0.8,0.3,1.6,0.6,2.4,0.9s1.6,0.6,2.4,1c0.8,0.3,1.6,0.7,2.4,1h0
	c0.9,0.4,1.7,0.8,2.6,1.2c0.8,0.4,1.6,0.8,2.4,1.2c12.1,6.1,24.2,14.7,35.2,26.4c0,0,0,0,0-0.1c0,0,0,0,0.1,0.1
	c0,0,13.5-35.1,46.8-57c0.5-0.4,1.1-0.7,1.7-1.1c0,0,0,0,0.1,0c1.1-0.7,2.2-1.4,3.3-2c1.1-0.7,2.3-1.3,3.4-1.9
	c1.4-0.8,2.8-1.5,4.3-2.2c2.2-1,4.5-2,6.8-2.9c0.7-0.3,1.3-0.5,2-0.8c0.7-0.2,1.4-0.5,2.1-0.7c0.1,0,0.2-0.1,0.2-0.1
	c0.5-0.2,0.9-0.3,1.4-0.5c0.1,0,0.1-0.1,0.2-0.1c0.8-0.2,1.5-0.5,2.3-0.7c0.5-0.1,1-0.3,1.4-0.4c0.5-0.1,1-0.3,1.5-0.4
	c0.5-0.1,1-0.2,1.5-0.4c0.5-0.1,1-0.2,1.5-0.4c0.3-0.1,0.7-0.1,1-0.2c0.1,0,0.1,0,0.2,0c0.3-0.1,0.6-0.1,0.9-0.2
	c0.6-0.1,1.2-0.2,1.8-0.4c0.4-0.1,0.7-0.1,1.1-0.2c0.8-0.1,1.6-0.3,2.4-0.4c0.6-0.1,1.2-0.2,1.9-0.3c0.8-0.1,1.6-0.2,2.4-0.3
	c0,0,0.1,0,0.1,0c0.8-0.1,1.6-0.2,2.4-0.2c0.4,0,0.9-0.1,1.3-0.1c0.7,0,1.3-0.1,2-0.1c2.3-0.1,4.6-0.2,7-0.2c1.5,0,2.9,0,4.3,0.1
	v37.2l-2.8,0c-18.8,0-22.4,0-23.8,0.4C233,313.3,229.9,316.3,228.8,320.3z"/>
<line class="st0" x1="263.6" y1="397.4" x2="263.6" y2="311.9"/>
<line class="st0" x1="263.6" y1="412.9" x2="263.6" y2="402"/>
</svg>
