<?xml version="1.0" encoding="UTF-8" standalone="no"?>
<!-- Generator: Adobe Illustrator 24.0.0, SVG Export Plug-In . SVG Version: 6.00 Build 0)  -->

<svg
   version="1.1"
   id="Layer_1"
   x="0px"
   y="0px"
   viewBox="0 0 511.99999 512"
   xml:space="preserve"
   width="512"
   height="512"
   xmlns="http://www.w3.org/2000/svg"
   xmlns:svg="http://www.w3.org/2000/svg"><defs
   id="defs2974" />
<style
   type="text/css"
   id="style2939">
	.st0{fill:#F00500;}
	.st1{fill:#FFFFFF;}
	.st2{fill:none;}
	.st3{fill:#FFA409;}
	.st4{fill:#FF9300;}
	.st5{fill:#FF8300;}
</style>
<g
   id="Group_938"
   transform="matrix(0.79793476,0,0,0.78883014,-760.8067,-182.97908)">
	<g
   id="Group_931">
		<path
   id="Path_8573"
   class="st0"
   d="m 1423.2,289.1 c -16.7,16.7 -32,34.8 -45.6,54.1 l -4.3,-1.4 c -24.8,-8.1 -50.5,-13.1 -76.4,-14.8 -7.8,-0.6 -36.9,-0.6 -46.4,0 -28.7,1.9 -50.7,6.2 -75.7,14.9 -1,0.4 -1.9,0.7 -2.8,1 -14.1,-19.2 -29.8,-37.2 -47.1,-53.7 83,-42.5 180.1,-47.6 267,-14.1 9.3,3.5 18.4,7.6 27.3,12 z" />
		<path
   id="Path_8574"
   class="st0"
   d="m 1578,668.4 c -12.6,35.9 -31.5,69.2 -56,98.2 -13.3,15.6 -28,29.9 -43.8,42.9 -37,29.8 -80.2,51.1 -126.3,62.3 -51,12.3 -104.2,12.3 -155.2,0 -46.2,-11.2 -89.3,-32.5 -126.3,-62.3 -15.8,-13 -30.5,-27.3 -43.8,-42.9 -70.5,-83.3 -91.9,-197.7 -56,-300.8 6.8,-19.1 15.3,-37.5 25.5,-55 4.7,-8 10.5,-17 13.3,-20.7 9.6,41.3 21.4,77.6 25.8,90.7 -0.3,0.7 -0.7,1.5 -1.1,2.2 -23.3,47.2 -35.9,92.7 -38.9,141.1 0,0.6 -0.1,1.3 -0.1,1.9 -0.8,14.5 -0.4,21.4 2,30.5 7.5,28.5 30.6,59.9 66.8,90.7 59.3,50.4 139.7,86.8 200.6,91 63.5,4.3 157.2,-32.8 219.6,-87 9.8,-8.7 19,-17.9 27.6,-27.7 6.2,-7.2 15.4,-19.6 14.7,-19.6 -0.2,0 0,-0.2 0.4,-0.4 0.3,-0.2 0.6,-0.5 0.4,-0.7 -0.1,-0.1 0.1,-0.4 0.4,-0.5 0.3,-0.1 0.5,-0.3 0.4,-0.5 -0.1,-0.2 0,-0.4 0.4,-0.5 0.3,-0.1 0.4,-0.4 0.3,-0.6 -0.1,-0.2 0,-0.4 0.2,-0.4 0.2,0 0.4,-0.3 0.4,-0.5 0,-0.2 0.2,-0.5 0.4,-0.5 0.2,0 0.4,-0.2 0.4,-0.4 0.3,-0.8 0.8,-1.6 1.3,-2.3 1.5,-2.3 7.5,-13 8.3,-14.8 5.7,-12.9 9.3,-24.4 11,-35.9 0.8,-5.5 1.3,-15.6 0.9,-18 -0.1,-0.4 -0.1,-1.1 -0.2,-2.2 -0.2,-2 -0.3,-5 -0.5,-8 -0.2,-4.5 -0.6,-10.8 -0.9,-13.9 -4.3,-45.4 -15.9,-82.5 -37.9,-121.8 -0.9,-1.5 -1.7,-3 -2.2,-4.2 -0.2,-0.3 -0.3,-0.6 -0.4,-0.8 v 0 c 3.1,-9.3 15.8,-48.2 25.9,-92.7 l 0.2,0.2 1.5,2 c 2.6,3.5 9.5,13.9 12.6,18.9 14.1,23 25.1,47.7 32.9,73.5 18.1,62.1 16.6,128.3 -4.6,189.5 z" />
		<path
   id="Path_8575"
   d="m 1448.2,548.9 c -0.3,1.6 -5,6.4 -9.7,9.9 -13.8,10.1 -38.5,19.5 -63.6,24 -14.3,2.6 -28.6,3 -32.9,0.9 -2.8,-1.4 -3.2,-2.5 -2.2,-6.1 2.1,-7.5 8.9,-15.7 19.5,-23.4 5.4,-3.9 27.3,-17.2 37.5,-22.8 16.8,-9.2 30.4,-14.7 39.6,-16 2.9,-0.4 6.4,-0.5 7.5,0 1.8,0.7 3.8,6 4.6,12.4 0.4,3.4 0.2,18.4 -0.3,21.1 z" />
		<path
   id="Path_8576"
   d="m 1212.6,582 c -0.6,1.2 -3.6,2.5 -7,3 -3.4,0.5 -13.8,0.2 -19.7,-0.5 -21.2,-2.8 -43.7,-9.3 -60.1,-17.3 -9.2,-4.5 -15.8,-9 -20.7,-13.9 l -2.8,-2.9 -0.3,-3.8 c -0.5,-6.6 -0.4,-17 0.4,-20.7 0.5,-3.1 1.6,-6.1 3.1,-8.8 0.8,-1 0.8,-1 4.4,-1 4.4,0 8.1,0.7 14.1,2.6 12.3,3.8 30.6,13 52.9,26.4 18.4,11 25.3,16.4 30.6,23.8 3.6,4.6 6,11.1 5.1,13.1 z" />
		<path
   id="Path_8577"
   d="m 1354.2,721.2 c 0,0.3 -1.2,5.1 -2.7,10.8 -1.5,5.7 -2.7,10.3 -2.7,10.5 -1.1,0.1 -2.1,0.2 -3.2,0.1 h -3.2 L 1338,753 c -2.4,5.7 -4.6,11 -4.9,11.8 l -0.6,1.4 -2.1,-3.4 -2.1,-3.4 v -27.7 l -0.8,0.2 c -1.7,0.4 -13.8,2 -19.1,2.5 -21.9,2.2 -43.9,1.7 -65.7,-1.4 -3.5,-0.5 -6.5,-0.9 -6.6,-0.8 -0.1,0.1 0,6.5 0.2,14.4 l 0.3,14.2 -1.7,2.6 c -0.9,1.4 -1.8,2.6 -1.8,2.7 -0.3,0.3 -1.3,-1.3 -3.6,-5.9 -2.5,-4.8 -4.3,-9.9 -5.6,-15.2 l -0.7,-2.9 -3.1,0.2 -3.1,0.3 -0.8,-3.7 c -0.4,-2 -0.9,-5.1 -1.1,-6.8 l -0.3,-3.2 -2.6,-2.3 c -1.5,-1.3 -3,-2.6 -3.3,-2.8 -0.5,-0.4 -0.7,-1.1 -0.7,-1.7 v -1.2 l 12.5,0.1 12.5,0.1 0.4,1.3 0.4,1.3 4.3,0.2 c 2.4,0.1 10,0.3 16.8,0.5 l 12.5,0.3 3.2,-5 3.3,-5 h 4.2 l -0.1,-10.4 -0.1,-10.4 -5.5,-2.4 c -17.7,-7.8 -28.1,-16.7 -32,-27.5 -0.8,-2.2 -0.8,-3 -1,-13 -0.1,-9.9 -0.1,-10.8 0.6,-13 1.4,-5 5.3,-8.9 10.3,-10.2 1.7,-0.5 6.2,-0.5 29.8,-0.5 l 27.8,0.1 3.1,1.5 c 3.7,1.8 5.4,3.1 7.5,5.9 2.4,3.2 3.1,5.7 3.1,11.8 0,8.7 -0.6,16.2 -1.5,19.2 -1.3,4.1 -3.3,8 -5.8,11.5 -5,6.4 -14.1,12.8 -22.4,15.7 l -2.4,0.9 0.1,10.5 0.1,10.5 2.2,0.2 2.2,0.2 3,4.5 2.9,4.5 h 13.4 c 7.4,0 13.9,0.1 14.5,0.2 1,0.2 1.2,0.1 2.2,-1.6 l 1.2,-1.8 h 11.5 c 8.6,-0.4 11.2,-0.2 11.2,0.1 z" />
		<path
   id="Path_8578"
   d="m 1301.4,749.9 c -1.9,1.1 -3.2,1.6 -3.5,1.4 -0.3,-0.1 -1.7,-1.3 -3.2,-2.4 l -2.7,-2.2 -2.8,3 c -6.1,6.6 -6.3,6.9 -8.1,7 -2.8,0.3 -3.4,-0.2 -6.8,-5.3 -1.8,-2.6 -3.2,-4.8 -3.2,-4.8 0,0 -1.3,-0.2 -2.8,-0.3 l -2.8,-0.3 -1.3,2.7 -1.3,2.7 -2.3,-0.7 c -1.8,-0.6 -3.6,-1.3 -5.3,-2.1 l -3,-1.5 v -5.7 l 26.6,0.1 26.6,0.1 0.1,2.7 c 0.1,3.2 0.2,3.1 -4.2,5.6 z" />
	</g>
	<path
   id="Path_8579"
   class="st1"
   d="m 1551.4,627.9 c -0.1,-0.4 -0.1,-1.1 -0.2,-2.2 -24,-2.6 -92.5,-4.2 -156.1,48.3 0,0 -20.5,-94 -116.5,-94 -96,0 -131.6,94 -131.6,94 -53.8,-57.9 -125.8,-53.7 -151.8,-49.9 0,0.6 -0.1,1.3 -0.1,1.9 -0.8,14.5 -0.4,21.4 2,30.5 7.5,28.5 30.6,59.9 66.8,90.7 59.3,50.4 139.7,86.8 200.6,91 63.5,4.3 157.2,-32.8 219.6,-87 9.8,-8.7 19,-17.9 27.6,-27.7 6.2,-7.2 15.4,-19.6 14.7,-19.6 -0.2,0 0,-0.2 0.4,-0.4 0.3,-0.2 0.6,-0.5 0.4,-0.7 -0.1,-0.1 0.1,-0.4 0.4,-0.5 0.3,-0.1 0.5,-0.3 0.4,-0.5 -0.1,-0.2 0,-0.4 0.4,-0.5 0.3,-0.1 0.4,-0.4 0.3,-0.6 -0.1,-0.2 0,-0.4 0.2,-0.4 0.2,0 0.4,-0.3 0.4,-0.5 0,-0.2 0.2,-0.5 0.4,-0.5 0.2,0 0.4,-0.2 0.4,-0.4 0.3,-0.8 0.8,-1.6 1.3,-2.3 1.5,-2.3 7.5,-13 8.3,-14.8 5.7,-12.9 9.3,-24.4 11,-35.9 0.6,-5.5 1.1,-15.6 0.7,-18 z m -250,122 c -1.9,1.1 -3.2,1.6 -3.5,1.4 -0.3,-0.1 -1.7,-1.3 -3.2,-2.4 l -2.7,-2.2 -2.8,3 c -6.1,6.6 -6.3,6.9 -8.1,7 -2.8,0.3 -3.4,-0.2 -6.8,-5.3 -1.8,-2.6 -3.2,-4.8 -3.2,-4.8 0,0 -1.3,-0.2 -2.8,-0.3 l -2.8,-0.3 -1.3,2.7 -1.3,2.7 -2.3,-0.7 c -1.8,-0.6 -3.6,-1.3 -5.3,-2.1 l -3,-1.5 v -5.7 l 26.6,0.1 26.6,0.1 0.1,2.7 c 0.1,3.2 0.2,3.1 -4.2,5.6 z m 50,-18 c -1.5,5.7 -2.7,10.3 -2.7,10.5 -1.1,0.1 -2.1,0.2 -3.2,0.1 h -3.2 L 1338,753 c -2.4,5.7 -4.6,11 -4.9,11.8 l -0.6,1.4 -2.1,-3.4 -2.1,-3.4 v -27.7 l -0.8,0.2 c -1.7,0.4 -13.8,2 -19.1,2.5 -21.9,2.2 -43.9,1.7 -65.7,-1.4 -3.5,-0.5 -6.5,-0.9 -6.6,-0.8 -0.1,0.1 0,6.5 0.2,14.4 l 0.3,14.2 -1.7,2.6 c -0.9,1.4 -1.8,2.6 -1.8,2.7 -0.3,0.3 -1.3,-1.3 -3.6,-5.9 -2.5,-4.8 -4.3,-9.9 -5.6,-15.2 l -0.7,-2.9 -3.1,0.2 -3.1,0.3 -0.8,-3.7 c -0.4,-2 -0.9,-5.1 -1.1,-6.8 l -0.3,-3.2 -2.6,-2.3 c -1.5,-1.3 -3,-2.6 -3.3,-2.8 -0.5,-0.4 -0.7,-1.1 -0.7,-1.7 v -1.2 l 12.5,0.1 12.5,0.1 0.4,1.3 0.4,1.3 4.3,0.2 c 2.4,0.1 10,0.3 16.8,0.5 l 12.5,0.3 3.2,-5 3.3,-5 h 4.2 l -0.1,-10.4 -0.1,-10.4 -5.5,-2.4 c -17.7,-7.8 -28.1,-16.7 -32,-27.5 -0.8,-2.2 -0.8,-3 -1,-13 -0.1,-9.9 -0.1,-10.8 0.6,-13 1.4,-5 5.3,-8.9 10.3,-10.2 1.7,-0.5 6.2,-0.5 29.8,-0.5 l 27.8,0.1 3.1,1.5 c 3.7,1.8 5.4,3.1 7.5,5.9 2.4,3.2 3.1,5.7 3.1,11.8 0,8.7 -0.6,16.2 -1.5,19.2 -1.3,4.1 -3.3,8 -5.8,11.5 -5,6.4 -14.1,12.8 -22.4,15.7 l -2.4,0.9 0.1,10.5 0.1,10.5 2.2,0.2 2.2,0.2 3,4.5 2.9,4.5 h 13.4 c 7.4,0 13.9,0.1 14.5,0.2 1,0.2 1.2,0.1 2.2,-1.6 l 1.2,-1.8 h 11.5 c 8.9,0 11.5,0.1 11.5,0.4 -0.3,-0.1 -1.6,4.8 -3.1,10.4 z" />
	<path
   id="Path_8580"
   class="st2"
   d="m 995,624.1 c -6.3,0.9 -10,1.9 -10,1.9" />
	<path
   id="Path_8581"
   class="st2"
   d="m 1560.1,627 c 0,0 -3.2,-0.7 -8.9,-1.3" />
	<path
   id="Path_8582"
   class="st3"
   d="m 1550.6,617.7 c -0.2,-4.5 -0.6,-10.8 -0.9,-13.9 -4.3,-45.4 -15.9,-82.5 -37.9,-121.8 -0.9,-1.5 -1.7,-3 -2.2,-4.2 -0.2,-0.3 -0.3,-0.6 -0.4,-0.8 v 0 c 3.1,-9.3 15.8,-48.2 25.9,-92.7 13.7,-60.4 22.4,-131 -4.2,-152.2 0,0 -46,-3.4 -107.6,57 -16.7,16.7 -32,34.8 -45.6,54.1 l -4.3,-1.4 c -24.8,-8.1 -50.5,-13.1 -76.4,-14.8 -7.8,-0.6 -36.9,-0.6 -46.4,0 -28.7,1.9 -50.7,6.2 -75.7,14.9 -1,0.4 -1.9,0.7 -2.8,1 -14.1,-19.2 -29.8,-37.2 -47.1,-53.7 -64.1,-60.7 -111.8,-57.2 -111.8,-57.2 -28.2,21.9 -18.6,95.7 -4,158.1 9.6,41.3 21.4,77.6 25.8,90.7 -0.3,0.7 -0.7,1.5 -1.1,2.2 -23.3,47.2 -35.9,92.7 -38.9,141.1 26.1,-3.8 98,-8.1 151.9,49.9 0,0 35.6,-94 131.6,-94 96,0 116.5,94 116.5,94 63.6,-52.5 132.1,-50.8 156.1,-48.3 -0.1,-2 -0.3,-5 -0.5,-8 z M 1053.9,443.1 c 0,0 -37.4,-93.5 -27.8,-146.9 0,0 0,0 0,0 1.6,-9 4.6,-16.9 9.3,-22.9 0,0 42.4,4.2 110.8,80.2 0,0 -13,6.3 -30.4,19.7 0,0 -0.1,0.1 -0.2,0.1 -18.9,14.5 -43.1,37.5 -61.7,69.8 z M 1212.6,582 c -0.6,1.2 -3.6,2.5 -7,3 -3.4,0.5 -13.8,0.2 -19.7,-0.5 -21.2,-2.8 -43.7,-9.3 -60.1,-17.3 -9.2,-4.5 -15.8,-9 -20.7,-13.9 l -2.8,-2.9 -0.3,-3.8 c -0.5,-6.6 -0.4,-17 0.4,-20.7 0.5,-3.1 1.6,-6.1 3.1,-8.8 0.8,-1 0.8,-1 4.4,-1 4.4,0 8.1,0.7 14.1,2.6 12.3,3.8 30.6,13 52.9,26.4 18.4,11 25.3,16.4 30.6,23.8 3.6,4.6 6,11.1 5.1,13.1 z m 235.6,-33.1 c -0.3,1.6 -5,6.4 -9.7,9.9 -13.8,10.1 -38.5,19.5 -63.6,24 -14.3,2.6 -28.6,3 -32.9,0.9 -2.8,-1.4 -3.2,-2.5 -2.2,-6.1 2.1,-7.5 8.9,-15.7 19.5,-23.4 5.4,-3.9 27.3,-17.2 37.5,-22.8 16.8,-9.2 30.4,-14.7 39.6,-16 2.9,-0.4 6.4,-0.5 7.5,0 1.8,0.7 3.8,6 4.6,12.4 0.4,3.4 0.2,18.4 -0.3,21.1 z m -16.6,-175.7 -0.2,-0.1 c -16.8,-13.4 -29.4,-19.7 -29.4,-19.7 66.1,-76 107,-80.2 107,-80.2 4.5,6.1 7.4,13.9 9,22.9 0,0 0,0 0,0 9.3,53.4 -26.8,147 -26.8,147 -15.1,-26.9 -35.4,-50.7 -59.6,-69.9 z" />
	<path
   id="Path_8583"
   class="st2"
   d="m 1377.6,343.2 c -0.2,0.2 -0.3,0.5 -0.5,0.7" />
	<path
   id="Path_8584"
   class="st2"
   d="m 1509.1,476.9 c -0.5,1.4 -0.7,2.1 -0.7,2.1" />
	<g
   id="Group_934">
		<g
   id="Group_933">
			<g
   id="Group_932">
				<path
   id="Path_8585"
   class="st4"
   d="m 1518.1,296.1 c -7.8,-1 -44.7,-1.2 -86.5,77.1 l -0.2,-0.1 c -16.8,-13.4 -29.4,-19.7 -29.4,-19.7 66.1,-76 107,-80.2 107,-80.2 4.6,6.1 7.5,13.9 9.1,22.9 z" />
			</g>
			<path
   id="Path_8586"
   class="st5"
   d="m 1491.3,443.1 c -15.2,-27 -35.4,-50.7 -59.7,-69.9 41.8,-78.3 78.6,-78.1 86.5,-77.1 0,0 0,0 0,0 9.3,53.5 -26.8,147 -26.8,147 z" />
			<path
   id="Path_8587"
   class="st5"
   d="m 1519.6,296.4 c -0.5,-0.1 -1,-0.2 -1.5,-0.3 z" />
		</g>
	</g>
	<path
   id="Path_8588"
   class="st2"
   d="m 1175.1,347.1 c -1,-1.4 -2.1,-2.8 -3.1,-4.2" />
	<path
   id="Path_8589"
   class="st2"
   d="m 1035,480.8 c 1.1,3.4 1.8,5.2 1.8,5.2" />
	<g
   id="Group_937">
		<g
   id="Group_936">
			<g
   id="Group_935">
				<path
   id="Path_8590"
   class="st4"
   d="m 1146.2,353.4 c 0,0 -13,6.3 -30.4,19.7 0,0 -0.1,0.1 -0.2,0.1 -43.3,-78.4 -81.4,-78.1 -89.6,-77.1 1.6,-9 4.6,-16.9 9.3,-22.9 0.1,0 42.5,4.2 110.9,80.2 z" />
			</g>
			<path
   id="Path_8591"
   class="st5"
   d="m 1115.7,373.2 c -19,14.6 -43.2,37.5 -61.8,69.9 0,0 -37.4,-93.5 -27.8,-147 0,0 0,0 0,0 8.1,-1 46.3,-1.2 89.6,77.1 z" />
			<path
   id="Path_8592"
   class="st5"
   d="m 1026.1,296.1 c -0.5,0.1 -1.1,0.2 -1.6,0.3 z" />
		</g>
	</g>
	<path
   id="Path_8593"
   class="st1"
   d="m 1390.1,495 c 0,0 -32,2 -28,-23 4,-25 29,-28 36,-27 7,1 35,11 30,32 -5,21 -12,17 -16,18 -4,1 -22,0 -22,0 z" />
	<path
   id="Path_8594"
   class="st1"
   d="m 1154.1,495 c 0,0 -32,2 -28,-23 4,-25 29,-28 36,-27 7,1 35,11 30,32 -5,21 -12,17 -16,18 -4,1 -22,0 -22,0 z" />
</g>
</svg>
