<?xml version="1.0" encoding="utf-8"?>
<!-- Generator: Adobe Illustrator 25.4.1, SVG Export Plug-In . SVG Version: 6.00 Build 0)  -->
<svg version="1.1" id="svg10086" xmlns:svg="http://www.w3.org/2000/svg"
	 xmlns="http://www.w3.org/2000/svg" xmlns:xlink="http://www.w3.org/1999/xlink" x="0px" y="0px" viewBox="0 0 512 512"
	 style="enable-background:new 0 0 512 512;" xml:space="preserve">
<style type="text/css">
	.st0{fill:none;}
	.st1{fill:#365558;}
	.st2{fill:#0295AA;}
	.st3{fill-rule:evenodd;clip-rule:evenodd;fill:url(#New_Pattern_Swatch_5);}
	.st4{fill-rule:evenodd;clip-rule:evenodd;fill:#20EE82;}
	.st5{fill-rule:evenodd;clip-rule:evenodd;fill:url(#New_Pattern_Swatch_6);}
	.st6{fill-rule:evenodd;clip-rule:evenodd;fill:#FFFFFF;}
	.st7{fill:url(#New_Pattern_Swatch_5);}
</style>
<pattern  y="512" width="128" height="128" patternUnits="userSpaceOnUse" id="New_Pattern_Swatch_5" viewBox="0 -128 128 128" style="overflow:visible;">
	<g>
		<rect y="-128" class="st0" width="128" height="128"/>
		<rect y="-128" class="st1" width="128" height="128"/>
	</g>
</pattern>
<pattern  y="512" width="128" height="128" patternUnits="userSpaceOnUse" id="New_Pattern_Swatch_6" viewBox="0 -128 128 128" style="overflow:visible;">
	<g>
		<rect y="-128" class="st0" width="128" height="128"/>
		<rect y="-128" class="st2" width="128" height="128"/>
	</g>
</pattern>
<g id="g10084" transform="scale(16)">
	<path class="st3" d="M16.5,32c-0.2,0-0.3,0-0.5,0C7.2,32,0,24.8,0,16S7.2,0,16,0c0,0,0.1,0,0.1,0l0.1,7.5c-0.1,0-0.1,0-0.2,0
		c-4.7,0-8.5,3.8-8.5,8.5s3.8,8.5,8.5,8.5h0.4L16.5,32z"/>
	<path class="st4" d="M16.2,7.5c-0.1,0-0.1,0-0.2,0c-4.7,0-8.5,3.8-8.5,8.5s3.8,8.5,8.5,8.5h8.5V16C24.5,11.4,20.8,7.6,16.2,7.5z
		 M21.1,21.1h-5c-2.8,0-5.2-2.3-5.2-5.1v0c0-2.8,2.3-5.1,5.1-5.1c0.1,0,0.1,0,0.2,0c2.7,0.1,4.9,2.4,4.9,5.2V21.1z"/>
	<path class="st5" d="M32,16c0,8.7-6.9,15.8-15.5,16l-0.1-7.5h8.1V16c0-4.6-3.7-8.4-8.3-8.5L16.1,0C24.9,0,32,7.2,32,16z"/>
	<path id="path10082" class="st6" d="M16.2,7.5c-0.1,0-0.1,0-0.2,0c-4.7,0-8.5,3.8-8.5,8.5s3.8,8.5,8.5,8.5h8.5V16
		C24.5,11.4,20.8,7.6,16.2,7.5z M21.1,21.1h-5c-2.8,0-5.2-2.3-5.2-5.1v0c0-2.8,2.3-5.1,5.1-5.1c0.1,0,0.1,0,0.2,0
		c2.7,0.1,4.9,2.4,4.9,5.2V21.1z"/>
	<path class="st5" d="M21.1,16.1v5h-4.8l-0.1-10.2C18.9,11,21.1,13.3,21.1,16.1z"/>
</g>
<path class="st7" d="M261.2,337.6h-4c-45.1,0-82.6-36.1-82.8-81.2v-0.6c0.2-45.1,36.9-81.6,82-81.4c1,0,1.9,0,2.9,0.1L261.2,337.6z"
	/>
</svg>
