<?xml version="1.0" encoding="UTF-8" standalone="no"?>
<svg
   width="512"
   height="512"
   viewBox="0 0 512 512"
   version="1.1"
   id="svg6971"
   xmlns="http://www.w3.org/2000/svg"
   xmlns:svg="http://www.w3.org/2000/svg">
  <defs
     id="defs6975" />
  <g
     fill="none"
     id="g6969"
     transform="scale(16)">
    <circle
       fill="#000000"
       cx="16"
       cy="16"
       r="16"
       id="circle6961" />
    <g
       fill="#ffffff"
       id="g6967">
      <path
         d="M 22.514,8.492 V 9.483 H 9.81 V 22.517 H 22.514 V 24.5 L 15.094,24.443 7.644,24.358 7.558,15.915 7.5,7.5 h 15.014 z"
         id="path6963" />
      <path
         d="m 23.698,10.9 c 1.126,0.312 2.108,1.19 2.425,2.182 0.173,0.595 0.087,0.651 -0.924,0.651 -0.78,0 -1.212,-0.17 -1.472,-0.566 -0.433,-0.709 -2.397,-0.794 -2.974,-0.114 -0.635,0.765 0.058,1.332 2.31,1.842 1.126,0.255 2.31,0.68 2.627,0.963 1.444,1.275 0.866,4.08 -1.01,4.845 -1.27,0.51 -3.35,0.51 -4.62,0 -0.866,-0.368 -1.877,-1.643 -1.877,-2.436 0,-0.51 1.877,-0.312 2.368,0.283 1.04,1.162 3.464,0.992 3.638,-0.255 0.144,-0.963 -0.405,-1.388 -2.05,-1.587 -2.685,-0.368 -3.667,-1.19 -3.667,-3.06 0,-2.21 2.425,-3.513 5.226,-2.748 z"
         id="path6965" />
    </g>
  </g>
</svg>
