<svg xmlns="http://www.w3.org/2000/svg" viewBox="0 0 512 512"><defs><style>.cls-1{fill:#365558;}.cls-2{fill:#0295aa;}.cls-3{fill:#e6eaea;}.cls-4{fill:#cdd4d5;}</style></defs><title>solana2</title><g id="Circle"><g id="Circle_Back" data-name="Circle Back"><path class="cls-1" d="M0,256C0,397.4,114.6,512,256,512V0C114.6,0,0,114.6,0,256Z"/><path class="cls-2" d="M256,0V512c141.4,0,256-114.6,256-256S397.4,0,256,0Z"/></g></g><g id="Layer_9" data-name="Layer 9"><path class="cls-3" d="M346,232a8.59,8.59,0,0,0-6.15-2.62H127A4.48,4.48,0,0,0,124,237L166,280.05a8.59,8.59,0,0,0,6.15,2.62H385a4.48,4.48,0,0,0,3.08-7.62Z"/><path class="cls-3" d="M166,312.19a8.61,8.61,0,0,1,6.15-2.6H385a4.45,4.45,0,0,1,3.08,7.58L346,360.07a8.66,8.66,0,0,1-6.15,2.6H127a4.46,4.46,0,0,1-3.08-7.59Z"/><path class="cls-3" d="M166,151.93a8.66,8.66,0,0,1,6.15-2.6H385a4.46,4.46,0,0,1,3.08,7.59L346,199.81a8.61,8.61,0,0,1-6.15,2.6H127a4.45,4.45,0,0,1-3.08-7.58Z"/><path class="cls-4" d="M124,237,166,280.05a8.59,8.59,0,0,0,6.15,2.62H256V229.33H127A4.48,4.48,0,0,0,124,237Z"/><path class="cls-4" d="M166,312.19l-42,42.89a4.46,4.46,0,0,0,3.08,7.59H256V309.59H172.15A8.61,8.61,0,0,0,166,312.19Z"/><path class="cls-4" d="M166,151.93l-42,42.9a4.45,4.45,0,0,0,3.08,7.58H256V149.33H172.15A8.66,8.66,0,0,0,166,151.93Z"/></g></svg>