<svg id="svg7170" xmlns="http://www.w3.org/2000/svg" xmlns:xlink="http://www.w3.org/1999/xlink" viewBox="0 0 512 512"><defs><style>.cls-1{fill:none;}.cls-2{fill:#365558;}.cls-3{fill:#0295aa;}.cls-4{fill:url(#New_Pattern_Swatch_5);}.cls-5{fill:url(#New_Pattern_Swatch_6);}.cls-6{fill:#5546ff;}.cls-7{fill:#fff;}</style><pattern id="New_Pattern_Swatch_5" data-name="New Pattern Swatch 5" width="128" height="128" patternUnits="userSpaceOnUse" viewBox="0 0 128 128"><rect class="cls-1" width="128" height="128"/><rect class="cls-2" width="128" height="128"/></pattern><pattern id="New_Pattern_Swatch_6" data-name="New Pattern Swatch 6" width="128" height="128" patternUnits="userSpaceOnUse" viewBox="0 0 128 128"><rect class="cls-1" width="128" height="128"/><rect class="cls-3" width="128" height="128"/></pattern></defs><g id="g7168"><path class="cls-4" d="M187.38,120H144.21l57.09,86.34H120v33.34H256v31.95H120v33.12h82.9L145.12,392h42.94l67.81-102.77.13.2V512C114.62,512,0,397.38,0,256S114.62,0,256,0V224l-.11.17Z"/><path class="cls-5" d="M512,256c0,141.38-114.62,256-256,256V289.43L323.71,392h43.15L309.1,304.53H392v-32.9H256V239.68H392V206.32H310.7L367.79,120H324.62L256,224V0C397.38,0,512,114.62,512,256Z"/><polygon class="cls-6" points="392 271.63 392 304.53 309.1 304.53 366.86 392 323.71 392 256 289.43 255.87 289.23 188.06 392 145.12 392 202.9 304.75 120 304.75 120 271.63 392 271.63"/><polygon class="cls-6" points="392 206.32 392 239.68 120 239.68 120 206.34 201.3 206.34 144.21 120 187.38 120 255.89 224.14 256 223.97 324.62 120 367.79 120 310.7 206.32 392 206.32"/><path id="path7166" class="cls-7" d="M392,271.63H120v33.12h82.9L145.12,392h42.94l67.81-102.77.13.2L323.71,392h43.15L309.1,304.53H392Zm-81.3-65.31L367.79,120H324.62L256,224l-.11.17L187.38,120H144.21l57.09,86.34H120v33.34H392V206.32Z"/></g><line class="cls-1" x1="256" y1="289.43" x2="256" y2="271.63"/><line class="cls-1" x1="256" y1="239.68" x2="256" y2="223.97"/></svg>