<?xml version="1.0" encoding="UTF-8" standalone="no"?>
<svg
   viewBox="0 0 512 512"
   version="1.1"
   id="svg7373"
   width="512"
   height="512"
   xmlns="http://www.w3.org/2000/svg"
   xmlns:svg="http://www.w3.org/2000/svg">
  <defs
     id="defs7377" />
  <g
     fill="none"
     id="g7371"
     transform="scale(16)">
    <circle
       cx="16"
       cy="16"
       r="16"
       fill="#5b6dee"
       id="circle7367" />
    <path
       fill="#ffffff"
       d="m 13.3,15.02 a 9.144,9.144 0 0 0 -1.664,0.144 c 0.452,-4.18 3.936,-7.346 8.084,-7.346 2.54,0 4.28,1.244 4.28,3.818 0,2.575 -2.089,3.819 -5.136,3.819 -2.25,0 -3.314,-0.434 -5.564,-0.434 m -0.164,1.524 C 10.089,16.545 8,17.79 8,20.364 c 0,2.574 1.74,3.818 4.28,3.818 4.148,0 7.632,-3.165 8.084,-7.346 A 9.144,9.144 0 0 1 18.7,16.98 c -2.25,0 -3.315,-0.435 -5.564,-0.435"
       id="path7369" />
  </g>
</svg>
