<?xml version="1.0" encoding="utf-8"?>
<!-- Generator: Adobe Illustrator 19.0.0, SVG Export Plug-In . SVG Version: 6.00 Build 0)  -->
<svg version="1.1" id="Layer_1" xmlns="http://www.w3.org/2000/svg" xmlns:xlink="http://www.w3.org/1999/xlink" x="0px" y="0px"
	 viewBox="206 -206 512 512" style="enable-background:new 206 -206 512 512;" xml:space="preserve">
<style type="text/css">
	.st0{display:none;}
	.st1{display:inline;}
	.st2{fill:#E6EAEA;}
	.st3{fill:#CDD4D5;}
	.st4{display:none;fill:#FFFFFF;}
	.st5{fill:#FF8C29;}
	.st6{fill:#0295AA;}
	.st7{fill:#365558;}
	.st8{fill:#4ACFD9;}
	.st9{fill:#0295AA;stroke:#0295AA;stroke-width:2;stroke-linecap:round;stroke-linejoin:round;stroke-miterlimit:10;}
</style>
<g id="Layer_3" class="st0">
	<rect x="1030" y="-1030.4" class="st1" width="512" height="512.8"/>
</g>
<path class="st2" d="M462-206v512c141.4,0,256-114.6,256-256S603.4-206,462-206z"/>
<path class="st3" d="M206,50c0,141.4,114.6,256,256,256v-512C320.6-206,206-91.4,206,50z"/>
<path id="Fill-638" class="st4" d="M668-399.2c134.1,0,243.2,109.1,243.2,243.2S802.1,87.2,668,87.2S424.8-21.9,424.8-156
	S533.9-399.2,668-399.2"/>
<path class="st5" d="M466.1,92.9l-4.1-2.8v13.4C463.4,100.2,464.8,96.6,466.1,92.9z"/>
<path class="st5" d="M415.6,58.6c0,0-54.7,42.9-33.4,90.4c2.3,5.1,7.3,8.5,12.9,8.8c15.1,0.7,45.9-4.6,66.9-54.3V90.1l-21.1-14.4
	L415.6,58.6z"/>
<path id="Fill-642" class="st6" d="M511.1,27.2c0,0,65.8,46.9,10.8,132.7c-0.3,0.5-1.1,0.4-1.2-0.2c-1.9-8.9-13-52.5-49.4-73.8
	L511.1,27.2z"/>
<path class="st7" d="M332.8,31.7c-0.4,0.5,0.1,1.2,0.7,1.1c9-1.5,53.6-7.4,86.8,18.6l39.8-58.7C460.1-7.3,392.3-51.1,332.8,31.7z"/>
<path class="st8" d="M580.4-129.8c0,0-65.5-11.8-105.1,34.2c-4.3,5-8.8,10.8-13.3,17v184.9c11.7,7.3,27.1,5,36.3-5.5
	c24.5-28.3,69.3-82.2,89.2-120.3C615.6-73.2,580.4-129.8,580.4-129.8z"/>
<path class="st6" d="M396.5,31.7c-6.6,12.7-2.6,28.3,9.2,36.4l27.7,18.8l27.7,18.8c0.3,0.2,0.6,0.4,0.9,0.6V-78.6
	C437.3-44.6,411,3.7,396.5,31.7z"/>
<path class="st7" d="M580.3-129.9c0,0-7.5-1.3-19-1.3c-22.4,0-59.9,5.2-86,35.5c-4.3,5-8.8,10.8-13.3,17v17.9
	c7.2-10.6,14.3-20.3,21.1-28.1c23.9-27.8,59.2-31.9,78.2-31.9c5.3,0,9.7,0.3,12.7,0.6c6.8,13.1,25.5,55.8,4.5,96
	c-19.4,37-63.3,90-87.8,118.3c-3.4,4-8.4,6.2-13.6,6.2c-3.6,0-7.1-1.1-10.1-3.1l-5-3.4v12.5c4.6,2.9,9.8,4.3,14.9,4.3
	c8,0,15.8-3.3,21.4-9.8c24.4-28.2,69.2-82.2,89.1-120.3C615.5-73.3,580.3-129.9,580.3-129.9z"/>
<path class="st7" d="M439.3,78.3l-27.7-18.8c-7.6-5.1-10.1-15.1-5.9-23.2c12.8-24.9,34.7-65.2,56.3-97.2v-17.9
	c-24.7,34-51,82.3-65.5,110.3c-6.6,12.7-2.6,28.3,9.2,36.4l27.7,18.8l27.7,18.8c0.3,0.2,0.6,0.4,0.9,0.6V93.7L439.3,78.3z"/>
<path id="Fill-650" class="st7" d="M513.8-37.9c-13-8.8-16.4-26.5-7.6-39.5c8.8-13,26.5-16.4,39.5-7.6s16.4,26.5,7.6,39.5
	C544.5-32.5,526.8-29.1,513.8-37.9 M551.4-93.3c-17.6-11.9-41.5-7.3-53.5,10.3c-11.9,17.6-7.3,41.5,10.3,53.5
	c17.6,11.9,41.5,7.3,53.5-10.3C573.6-57.5,569-81.4,551.4-93.3"/>
<polygon class="st9" points="309.5,229 313.7,232 364.9,159 360.7,156.1 "/>
<polygon class="st9" points="340.2,222.6 344.4,225.5 372.6,184.6 368.4,181.7 "/>
</svg>
