<?xml version="1.0" encoding="UTF-8" standalone="no"?>
<svg
   viewBox="0 0 512 512"
   version="1.1"
   id="svg7570"
   width="512"
   height="512"
   xmlns="http://www.w3.org/2000/svg"
   xmlns:svg="http://www.w3.org/2000/svg">
  <defs
     id="defs7574" />
  <g
     fill="none"
     fill-rule="evenodd"
     id="g7568"
     transform="scale(16)">
    <circle
       cx="16"
       cy="16"
       r="16"
       fill="#2683ff"
       id="circle7564" />
    <path
       fill="#ffffff"
       fill-rule="nonzero"
       d="m 24.977,18.971 a 1.881,1.881 0 0 1 0.673,2.533 c -0.514,0.902 -1.682,1.222 -2.601,0.718 -0.09,-0.049 -0.168,-0.107 -0.248,-0.165 l -4.926,2.784 c 0.012,0.09 0.019,0.181 0.02,0.272 0,0.107 0,0.204 -0.02,0.31 -0.168,1.02 -1.147,1.718 -2.186,1.553 -1.038,-0.165 -1.75,-1.126 -1.582,-2.144 L 9.15,22.028 A 3.31,3.31 0 0 1 8.913,22.183 C 8.833,22.222 8.754,22.27 8.665,22.299 A 1.919,1.919 0 0 1 6.182,21.261 c -0.395,-0.96 0.08,-2.047 1.059,-2.435 V 13.218 A 1.225,1.225 0 0 1 6.984,13.101 4.16,4.16 0 0 1 6.766,12.956 1.86,1.86 0 0 1 6.014,11.218 1.881,1.881 0 0 1 7.184,9.719 1.943,1.943 0 0 1 9.09,9.977 L 14.096,7.134 C 14.086,7.047 14.076,6.97 14.076,6.882 14.076,5.854 14.956,5 16.005,5 c 1.048,0 1.908,0.834 1.909,1.872 0,0.088 -0.01,0.165 -0.02,0.253 l 5.045,2.862 a 1.936,1.936 0 0 1 2.82,0.592 c 0.513,0.902 0.177,2.047 -0.743,2.552 -0.089,0.038 -0.178,0.087 -0.267,0.116 v 5.618 c 0.079,0.03 0.155,0.065 0.227,0.106 z m 0.347,2.348 a 1.415,1.415 0 0 0 -0.505,-1.96 1.468,1.468 0 0 0 -1.72,0.185 l -2.266,-1.29 a 2.502,2.502 0 0 0 -0.87,-3.202 3.679,3.679 0 0 0 -0.248,-0.621 l 3.423,-1.902 c 0.356,0.33 0.857,0.465 1.335,0.36 a 1.438,1.438 0 0 0 1.098,-1.728 c -0.178,-0.776 -0.97,-1.251 -1.76,-1.077 a 1.438,1.438 0 0 0 -1.099,1.727 l -3.462,1.931 c -0.672,-0.786 -2.809,-1.31 -2.809,-1.31 V 8.153 a 1.34,1.34 0 0 0 0.91,-0.892 1.333,1.333 0 0 0 -0.91,-1.67 C 15.719,5.378 14.957,5.766 14.739,6.475 a 1.333,1.333 0 0 0 0.91,1.669 v 4.366 c 0,0 -1.166,0.378 -1.621,0.746 a 3.121,3.121 0 0 0 -1.385,0.36 L 9.388,11.782 a 1.4,1.4 0 0 0 -0.356,-1.3 1.465,1.465 0 0 0 -2.057,-0.068 1.415,1.415 0 0 0 -0.07,2.028 1.466,1.466 0 0 0 2.058,0.068 l 2.938,1.649 a 2.991,2.991 0 0 0 -0.336,3.9 L 8.983,19.524 A 1.49,1.49 0 0 0 7.638,19.175 1.44,1.44 0 0 0 6.55,20.912 c 0.189,0.774 0.981,1.251 1.77,1.066 a 1.44,1.44 0 0 0 1.088,-1.736 l 2.76,-1.562 c 0.71,0.563 1.637,0.787 2.532,0.611 0.276,0.126 0.56,0.233 0.85,0.32 v 4.076 a 1.557,1.557 0 0 0 -0.919,0.766 1.49,1.49 0 0 0 0.683,2.018 c 0.06,0.03 0.119,0.058 0.188,0.078 0.01,0 0.02,0.01 0.03,0.01 0.81,0.242 1.672,-0.195 1.919,-0.99 a 1.498,1.498 0 0 0 -1.01,-1.883 V 19.69 c 0,0 0.742,-0.068 1.088,-0.175 0.965,0.38 2.069,0.155 2.8,-0.572 l 2.314,1.33 a 1.417,1.417 0 0 0 0.683,1.562 1.482,1.482 0 0 0 1.998,-0.515 z M 7.984,19.961 c 0.22,0.001 0.422,0.115 0.534,0.3 A 0.65,0.65 0 0 1 8.597,20.563 0.608,0.608 0 0 1 7.984,21.164 0.608,0.608 0 0 1 7.37,20.563 c 0,-0.333 0.275,-0.602 0.614,-0.602 z M 16.649,6.873 A 0.611,0.611 0 0 1 16.035,7.474 0.608,0.608 0 0 1 15.422,6.873 c 0,-0.333 0.275,-0.602 0.613,-0.602 0.34,0 0.614,0.27 0.614,0.602 z m 7.478,5.22 a 0.614,0.614 0 0 1 -0.613,-0.602 c 0,-0.332 0.275,-0.602 0.613,-0.602 0.34,0 0.614,0.27 0.614,0.602 a 0.608,0.608 0 0 1 -0.614,0.601 z M 8.27,10.937 A 0.588,0.588 0 0 1 8.498,11.752 0.61,0.61 0 0 1 7.667,11.975 0.586,0.586 0 0 1 7.439,11.16 0.61,0.61 0 0 1 8.27,10.937 Z m 16.104,9.14 a 0.588,0.588 0 0 1 0.228,0.814 0.639,0.639 0 0 1 -0.535,0.301 0.616,0.616 0 0 1 -0.538,-0.298 0.592,0.592 0 0 1 0,-0.607 0.616,0.616 0 0 1 0.538,-0.298 0.66,0.66 0 0 1 0.307,0.087 z m -8.952,5.015 a 0.034,0.034 0 0 1 0.01,-0.02 0.608,0.608 0 0 1 0.692,-0.498 0.6,0.6 0 0 1 0.515,0.674 0.642,0.642 0 0 1 -0.633,0.514 0.613,0.613 0 0 1 -0.584,-0.67 z m 3.522,-9.285 a 1.429,1.429 0 0 1 1.009,1.378 c 0,0.049 -0.01,0.098 -0.01,0.146 -0.01,0.039 -0.01,0.078 -0.02,0.116 v 0.03 c -0.02,0.087 -0.04,0.174 -0.08,0.261 a 1.403,1.403 0 0 1 -0.543,0.65 c -0.06,0.03 -0.11,0.059 -0.168,0.088 l -0.03,0.01 a 1.274,1.274 0 0 1 -0.366,0.107 l -0.05,0.009 c -0.069,0 -0.128,0.01 -0.197,0.01 -0.323,0 -0.636,-0.106 -0.89,-0.301 l -0.268,0.116 c -0.082,0.04 -0.168,0.069 -0.257,0.088 h -0.01 a 2.595,2.595 0 0 1 -1.83,-0.185 h -0.01 c -0.059,-0.029 -0.118,-0.058 -0.168,-0.087 l -0.02,-0.01 c -0.059,-0.038 -0.108,-0.077 -0.168,-0.116 a 1.844,1.844 0 0 1 -0.761,0.155 c -0.08,0 -0.149,0 -0.218,-0.01 l -0.04,-0.01 -0.178,-0.028 -0.02,-0.01 a 1.339,1.339 0 0 1 -0.187,-0.049 2.141,2.141 0 0 1 -0.455,-0.213 1.725,1.725 0 0 1 -0.673,-0.776 c 0,-0.02 -0.01,-0.03 -0.02,-0.049 a 0.995,0.995 0 0 0 -0.04,-0.097 0.468,0.468 0 0 1 -0.03,-0.068 c -0.01,-0.029 -0.029,-0.058 -0.029,-0.087 a 0.279,0.279 0 0 0 -0.02,-0.087 c -0.01,-0.03 -0.01,-0.04 -0.02,-0.078 -0.01,-0.039 -0.01,-0.077 -0.019,-0.116 0,-0.03 -0.01,-0.049 -0.01,-0.068 a 1.152,1.152 0 0 1 -0.01,-0.185 1.85,1.85 0 0 1 0.01,-0.223 c 0,-0.029 0.01,-0.048 0.01,-0.068 0.01,-0.058 0.02,-0.106 0.03,-0.155 0.01,-0.02 0.01,-0.048 0.02,-0.068 a 0.94,0.94 0 0 1 0.049,-0.155 c 0.01,-0.02 0.01,-0.029 0.02,-0.048 a 1.25,1.25 0 0 1 0.079,-0.175 l 0.01,-0.02 a 1.977,1.977 0 0 1 1.641,-1.028 c 0.03,-0.01 0.06,-0.01 0.1,-0.01 0.119,0 0.238,0.01 0.356,0.03 0.05,-0.06 0.099,-0.108 0.158,-0.166 l 0.05,-0.048 c 0.059,-0.049 0.108,-0.097 0.168,-0.136 l 0.03,-0.02 c 0.039,-0.029 0.108,-0.077 0.138,-0.097 0.03,-0.019 0.079,-0.058 0.109,-0.068 a 0.466,0.466 0 0 0 0.099,-0.048 c 0.059,-0.03 0.158,-0.078 0.217,-0.097 l 0.05,-0.039 a 2.489,2.489 0 0 1 1.246,-0.145 h 0.01 c 0.08,0.008 0.159,0.02 0.237,0.038 h 0.01 c 0.08,0.01 0.149,0.04 0.228,0.059 l 0.01,0.01 c 0.079,0.028 0.148,0.057 0.217,0.087 l 0.02,0.01 c 0.068,0.028 0.134,0.06 0.198,0.096 l 0.01,0.01 c 0.059,0.03 0.128,0.078 0.188,0.116 l 0.01,0.01 c 0.069,0.039 0.128,0.087 0.187,0.136 l 0.01,0.01 a 2.566,2.566 0 0 1 0.742,1.038 v 0.01 c 0.02,0.058 0.04,0.126 0.06,0.184 0,0.02 0.01,0.039 0.01,0.058 0.016,0.05 0.03,0.103 0.039,0.155 z"
       id="path7566" />
  </g>
</svg>
