<?xml version="1.0" encoding="utf-8"?>
<!-- Generator: Adobe Illustrator 25.4.1, SVG Export Plug-In . SVG Version: 6.00 Build 0)  -->
<svg version="1.1" id="svg7570" xmlns:svg="http://www.w3.org/2000/svg"
	 xmlns="http://www.w3.org/2000/svg" xmlns:xlink="http://www.w3.org/1999/xlink" x="0px" y="0px" viewBox="0 0 512 512"
	 style="enable-background:new 0 0 512 512;" xml:space="preserve">
<style type="text/css">
	.st0{fill:none;}
	.st1{fill:#365558;}
	.st2{fill:#0295AA;}
	.st3{fill-rule:evenodd;clip-rule:evenodd;fill:url(#New_Pattern_Swatch_5);}
	.st4{fill-rule:evenodd;clip-rule:evenodd;fill:url(#New_Pattern_Swatch_6);}
	.st5{fill-rule:evenodd;clip-rule:evenodd;fill:#2683FF;}
	.st6{fill:#FFFFFF;}
	.st7{fill:url(#New_Pattern_Swatch_6);}
	.st8{fill:url(#New_Pattern_Swatch_5);}
</style>
<pattern  y="512" width="128" height="128" patternUnits="userSpaceOnUse" id="New_Pattern_Swatch_5" viewBox="0 -128 128 128" style="overflow:visible;">
	<g>
		<rect y="-128" class="st0" width="128" height="128"/>
		<rect y="-128" class="st1" width="128" height="128"/>
	</g>
</pattern>
<pattern  y="512" width="128" height="128" patternUnits="userSpaceOnUse" id="New_Pattern_Swatch_6" viewBox="0 -128 128 128" style="overflow:visible;">
	<g>
		<rect y="-128" class="st0" width="128" height="128"/>
		<rect y="-128" class="st2" width="128" height="128"/>
	</g>
</pattern>
<g id="g7568" transform="scale(16)">
	<path class="st3" d="M14.1,6.9c0,0.1,0,0.2,0,0.3l-5,2.8C8.5,9.6,7.8,9.5,7.2,9.7C6.6,10,6.1,10.5,6,11.2c-0.1,0.7,0.2,1.3,0.8,1.7
		C6.8,13,6.9,13.1,7,13.1c0.1,0,0.2,0.1,0.3,0.1v5.6c-1,0.4-1.5,1.5-1.1,2.4c0.4,1,1.5,1.4,2.5,1c0.1,0,0.2-0.1,0.2-0.1
		c0.1,0,0.2-0.1,0.2-0.2l5,2.8c-0.2,1,0.5,2,1.6,2.1c0.1,0,0.2,0,0.3,0v5C7.2,32,0,24.8,0,16S7.2,0,16,0v5C15,5,14.1,5.9,14.1,6.9z"
		/>
	<path class="st4" d="M32,16c0,8.8-7.2,16-16,16h0v-5c0.9,0,1.7-0.7,1.9-1.6c0-0.1,0-0.2,0-0.3c0-0.1,0-0.2,0-0.3l4.9-2.8
		c0.1,0.1,0.2,0.1,0.2,0.2c0.9,0.5,2.1,0.2,2.6-0.7c0.5-0.9,0.2-2-0.7-2.5h0c-0.1,0-0.1-0.1-0.2-0.1v-5.6c0.1,0,0.2-0.1,0.3-0.1
		c0.9-0.5,1.3-1.6,0.7-2.6c0-0.1-0.1-0.1-0.1-0.2c-0.6-0.9-1.8-1-2.7-0.4l-5-2.9c0-0.1,0-0.2,0-0.3c0-1-0.9-1.9-1.9-1.9h0V0h0
		C24.8,0,32,7.2,32,16z"/>
	<path class="st5" d="M8.5,11.7C8.5,11.7,8.5,11.7,8.5,11.7C8.3,12,8,12.1,7.7,12c-0.3-0.2-0.4-0.5-0.2-0.8c0,0,0,0,0,0
		c0.2-0.3,0.5-0.4,0.8-0.2C8.6,11.1,8.7,11.4,8.5,11.7z"/>
	<path class="st5" d="M8.6,20.6c0,0.3-0.3,0.6-0.6,0.6c-0.3,0-0.6-0.3-0.6-0.6C7.4,20.2,7.6,20,8,20c0.2,0,0.4,0.1,0.5,0.3
		C8.6,20.4,8.6,20.5,8.6,20.6z"/>
	<path class="st5" d="M16,6.3C16,6.3,16,6.3,16,6.3c-0.4,0-0.6,0.3-0.6,0.6c0,0.3,0.3,0.6,0.6,0.6c0,0,0,0,0,0
		c0.3,0,0.6-0.3,0.6-0.6C16.6,6.5,16.4,6.3,16,6.3z M16.1,24.6c0,0-0.1,0-0.1,0c-0.3,0-0.5,0.2-0.6,0.5c0,0,0,0,0,0c0,0,0,0,0,0
		c0,0.3,0.2,0.6,0.6,0.6c0,0,0,0,0,0c0.3,0,0.6-0.2,0.6-0.5C16.7,24.9,16.5,24.6,16.1,24.6z M18.9,15.8l0-0.2c0-0.1,0-0.1,0-0.2
		c0,0,0,0,0-0.1c0-0.1,0-0.1-0.1-0.2v0c-0.2-0.4-0.4-0.8-0.7-1l0,0c-0.1,0-0.1-0.1-0.2-0.1l0,0c-0.1,0-0.1-0.1-0.2-0.1l0,0
		c-0.1,0-0.1-0.1-0.2-0.1l0,0c-0.1,0-0.1-0.1-0.2-0.1l0,0c-0.1,0-0.1,0-0.2-0.1h0c-0.1,0-0.2,0-0.2,0h0c-0.2,0-0.5,0-0.7,0
		c-0.2,0-0.3,0.1-0.5,0.1l-0.1,0c-0.1,0-0.2,0.1-0.2,0.1c0,0-0.1,0-0.1,0c0,0-0.1,0-0.1,0.1c0,0-0.1,0.1-0.1,0.1l0,0
		c-0.1,0-0.1,0.1-0.2,0.1l0,0c-0.1,0.1-0.1,0.1-0.2,0.2c-0.1,0-0.2,0-0.4,0c0,0-0.1,0-0.1,0c-0.7,0-1.3,0.4-1.6,1l0,0
		c0,0.1-0.1,0.1-0.1,0.2c0,0,0,0,0,0c0,0,0,0.1,0,0.2c0,0,0,0,0,0.1c0,0,0,0.1,0,0.2c0,0,0,0,0,0.1c0,0.1,0,0.1,0,0.2
		c0,0.1,0,0.1,0,0.2c0,0,0,0,0,0.1c0,0,0,0.1,0,0.1c0,0,0,0,0,0.1c0,0,0,0.1,0,0.1c0,0,0,0.1,0,0.1c0,0,0,0,0,0.1c0,0,0,0.1,0,0.1
		c0,0,0,0,0,0c0.1,0.3,0.4,0.6,0.7,0.8c0.1,0.1,0.3,0.2,0.5,0.2c0.1,0,0.1,0,0.2,0l0,0l0.2,0l0,0c0.1,0,0.1,0,0.2,0
		c0.3,0,0.5,0,0.8-0.2c0.1,0,0.1,0.1,0.2,0.1l0,0c0,0,0.1,0.1,0.2,0.1h0c0.2,0.1,0.5,0.2,0.8,0.2c0.4,0.1,0.7,0,1.1-0.1h0
		c0.1,0,0.2,0,0.3-0.1l0.3-0.1c0.3,0.2,0.6,0.3,0.9,0.3c0.1,0,0.1,0,0.2,0l0.1,0c0.1,0,0.2-0.1,0.4-0.1l0,0c0.1,0,0.1-0.1,0.2-0.1
		c0.2-0.2,0.4-0.4,0.5-0.7c0-0.1,0.1-0.2,0.1-0.3v0c0,0,0-0.1,0-0.1c0,0,0-0.1,0-0.1C20,16.6,19.5,16,18.9,15.8z M24.1,10.9
		c-0.3,0-0.6,0.3-0.6,0.6c0,0.3,0.3,0.6,0.6,0.6v0c0.3,0,0.6-0.3,0.6-0.6C24.7,11.2,24.5,10.9,24.1,10.9z M24.4,20.1L24.4,20.1
		C24.3,20,24.2,20,24.1,20c-0.2,0-0.4,0.1-0.5,0.3c-0.1,0.2-0.1,0.4,0,0.6c0.1,0.2,0.3,0.3,0.5,0.3c0.2,0,0.4-0.1,0.5-0.3
		c0,0,0,0,0,0C24.8,20.6,24.7,20.2,24.4,20.1z M24.4,20.1L24.4,20.1C24.3,20,24.2,20,24.1,20c-0.2,0-0.4,0.1-0.5,0.3
		c-0.1,0.2-0.1,0.4,0,0.6c0.1,0.2,0.3,0.3,0.5,0.3c0.2,0,0.4-0.1,0.5-0.3c0,0,0,0,0,0C24.8,20.6,24.7,20.2,24.4,20.1z M24.1,12.1
		L24.1,12.1c0.3,0,0.6-0.3,0.6-0.6c0-0.3-0.3-0.6-0.6-0.6c-0.3,0-0.6,0.3-0.6,0.6C23.5,11.8,23.8,12.1,24.1,12.1z M18.9,15.8l0-0.2
		c0-0.1,0-0.1,0-0.2c0,0,0,0,0-0.1c0-0.1,0-0.1-0.1-0.2v0c-0.2-0.4-0.4-0.8-0.7-1l0,0c-0.1,0-0.1-0.1-0.2-0.1l0,0
		c-0.1,0-0.1-0.1-0.2-0.1l0,0c-0.1,0-0.1-0.1-0.2-0.1l0,0c-0.1,0-0.1-0.1-0.2-0.1l0,0c-0.1,0-0.1,0-0.2-0.1h0c-0.1,0-0.2,0-0.2,0h0
		c-0.2,0-0.5,0-0.7,0c-0.2,0-0.3,0.1-0.5,0.1l-0.1,0c-0.1,0-0.2,0.1-0.2,0.1c0,0-0.1,0-0.1,0c0,0-0.1,0-0.1,0.1c0,0-0.1,0.1-0.1,0.1
		l0,0c-0.1,0-0.1,0.1-0.2,0.1l0,0c-0.1,0.1-0.1,0.1-0.2,0.2c-0.1,0-0.2,0-0.4,0c0,0-0.1,0-0.1,0c-0.7,0-1.3,0.4-1.6,1l0,0
		c0,0.1-0.1,0.1-0.1,0.2c0,0,0,0,0,0c0,0,0,0.1,0,0.2c0,0,0,0,0,0.1c0,0,0,0.1,0,0.2c0,0,0,0,0,0.1c0,0.1,0,0.1,0,0.2
		c0,0.1,0,0.1,0,0.2c0,0,0,0,0,0.1c0,0,0,0.1,0,0.1c0,0,0,0,0,0.1c0,0,0,0.1,0,0.1c0,0,0,0.1,0,0.1c0,0,0,0,0,0.1c0,0,0,0.1,0,0.1
		c0,0,0,0,0,0c0.1,0.3,0.4,0.6,0.7,0.8c0.1,0.1,0.3,0.2,0.5,0.2c0.1,0,0.1,0,0.2,0l0,0l0.2,0l0,0c0.1,0,0.1,0,0.2,0
		c0.3,0,0.5,0,0.8-0.2c0.1,0,0.1,0.1,0.2,0.1l0,0c0,0,0.1,0.1,0.2,0.1h0c0.2,0.1,0.5,0.2,0.8,0.2c0.4,0.1,0.7,0,1.1-0.1h0
		c0.1,0,0.2,0,0.3-0.1l0.3-0.1c0.3,0.2,0.6,0.3,0.9,0.3c0.1,0,0.1,0,0.2,0l0.1,0c0.1,0,0.2-0.1,0.4-0.1l0,0c0.1,0,0.1-0.1,0.2-0.1
		c0.2-0.2,0.4-0.4,0.5-0.7c0-0.1,0.1-0.2,0.1-0.3v0c0,0,0-0.1,0-0.1c0,0,0-0.1,0-0.1C20,16.6,19.5,16,18.9,15.8z M16.1,24.6
		c0,0-0.1,0-0.1,0c-0.3,0-0.5,0.2-0.6,0.5c0,0,0,0,0,0c0,0,0,0,0,0c0,0.3,0.2,0.6,0.6,0.6c0,0,0,0,0,0c0.3,0,0.6-0.2,0.6-0.5
		C16.7,24.9,16.5,24.6,16.1,24.6z M16,7.5C16,7.5,16,7.5,16,7.5c0.4,0,0.6-0.3,0.6-0.6c0-0.3-0.3-0.6-0.6-0.6c0,0,0,0,0,0
		c-0.3,0-0.6,0.3-0.6,0.6C15.4,7.2,15.7,7.5,16,7.5z M25,19L25,19c-0.1,0-0.1-0.1-0.2-0.1v-5.6c0.1,0,0.2-0.1,0.3-0.1
		c0.9-0.5,1.3-1.6,0.7-2.6c0-0.1-0.1-0.1-0.1-0.2c-0.6-0.9-1.8-1-2.7-0.4l-5-2.9c0-0.1,0-0.2,0-0.3c0-1-0.9-1.9-1.9-1.9h0
		c-1,0-1.9,0.9-1.9,1.9c0,0.1,0,0.2,0,0.3l-5,2.8C8.5,9.6,7.8,9.5,7.2,9.7C6.6,10,6.1,10.5,6,11.2c-0.1,0.7,0.2,1.3,0.8,1.7
		C6.8,13,6.9,13.1,7,13.1c0.1,0,0.2,0.1,0.3,0.1v5.6c-1,0.4-1.5,1.5-1.1,2.4c0.4,1,1.5,1.4,2.5,1c0.1,0,0.2-0.1,0.2-0.1
		c0.1,0,0.2-0.1,0.2-0.2l5,2.8c-0.2,1,0.5,2,1.6,2.1c0.1,0,0.2,0,0.3,0c0.9,0,1.7-0.7,1.9-1.6c0-0.1,0-0.2,0-0.3c0-0.1,0-0.2,0-0.3
		l4.9-2.8c0.1,0.1,0.2,0.1,0.2,0.2c0.9,0.5,2.1,0.2,2.6-0.7C26.1,20.6,25.8,19.5,25,19z M25.3,21.3L25.3,21.3
		c-0.4,0.7-1.3,0.9-2,0.5c-0.6-0.3-0.8-0.9-0.7-1.6l-2.3-1.3c-0.7,0.7-1.8,1-2.8,0.6c-0.3,0.1-1.1,0.2-1.1,0.2v4c0,0,0,0,0,0
		c0.8,0.2,1.2,1.1,1,1.9c-0.2,0.6-0.8,1.1-1.5,1.1c-0.2,0-0.3,0-0.5-0.1c0,0,0,0,0,0c-0.1,0-0.1,0-0.2-0.1c0,0,0,0,0,0
		c-0.7-0.4-1-1.3-0.7-2c0.2-0.4,0.5-0.6,0.9-0.8v-4.1c-0.3-0.1-0.6-0.2-0.8-0.3c-0.9,0.2-1.8,0-2.5-0.6l-2.8,1.6c0,0,0,0,0,0
		C9.6,21,9.1,21.8,8.3,22c-0.8,0.2-1.6-0.3-1.8-1.1c0,0,0,0,0,0c-0.2-0.8,0.3-1.5,1.1-1.7c0.5-0.1,1,0,1.3,0.3l2.6-1.5
		c-0.9-1.2-0.7-2.9,0.3-3.9L9,12.5c-0.6,0.5-1.5,0.5-2.1-0.1c0,0,0,0,0,0c-0.5-0.6-0.5-1.5,0.1-2C7.6,9.9,8.5,9.9,9,10.5
		c0.3,0.3,0.5,0.8,0.4,1.3l3.3,1.8c0.4-0.2,0.9-0.3,1.4-0.4c0.5-0.4,1.6-0.7,1.6-0.7V8.1c0,0,0,0,0,0c-0.7-0.2-1.1-1-0.9-1.7
		c0.2-0.6,0.7-0.9,1.3-0.9c0.1,0,0.3,0,0.4,0.1c0,0,0,0,0,0c0.7,0.2,1.1,1,0.9,1.7c-0.1,0.4-0.5,0.8-0.9,0.9v4.3
		c0,0,2.1,0.5,2.8,1.3l3.5-1.9c0,0,0,0,0,0c-0.2-0.8,0.3-1.5,1.1-1.7c0.8-0.2,1.6,0.3,1.8,1.1c0,0,0,0,0,0c0.2,0.8-0.3,1.5-1.1,1.7
		c-0.5,0.1-1,0-1.3-0.4l-3.4,1.9c0.1,0.2,0.2,0.4,0.2,0.6c1.1,0.7,1.4,2.1,0.9,3.2l2.3,1.3c0.5-0.4,1.2-0.5,1.7-0.2c0,0,0,0,0,0
		C25.5,19.8,25.7,20.7,25.3,21.3z M24.4,20.1L24.4,20.1C24.3,20,24.2,20,24.1,20c-0.2,0-0.4,0.1-0.5,0.3c-0.1,0.2-0.1,0.4,0,0.6
		c0.1,0.2,0.3,0.3,0.5,0.3c0.2,0,0.4-0.1,0.5-0.3c0,0,0,0,0,0C24.8,20.6,24.7,20.2,24.4,20.1z M24.1,12.1L24.1,12.1
		c0.3,0,0.6-0.3,0.6-0.6c0-0.3-0.3-0.6-0.6-0.6c-0.3,0-0.6,0.3-0.6,0.6C23.5,11.8,23.8,12.1,24.1,12.1z M18.9,15.8l0-0.2
		c0-0.1,0-0.1,0-0.2c0,0,0,0,0-0.1c0-0.1,0-0.1-0.1-0.2v0c-0.2-0.4-0.4-0.8-0.7-1l0,0c-0.1,0-0.1-0.1-0.2-0.1l0,0
		c-0.1,0-0.1-0.1-0.2-0.1l0,0c-0.1,0-0.1-0.1-0.2-0.1l0,0c-0.1,0-0.1-0.1-0.2-0.1l0,0c-0.1,0-0.1,0-0.2-0.1h0c-0.1,0-0.2,0-0.2,0h0
		c-0.2,0-0.5,0-0.7,0c-0.2,0-0.3,0.1-0.5,0.1l-0.1,0c-0.1,0-0.2,0.1-0.2,0.1c0,0-0.1,0-0.1,0c0,0-0.1,0-0.1,0.1c0,0-0.1,0.1-0.1,0.1
		l0,0c-0.1,0-0.1,0.1-0.2,0.1l0,0c-0.1,0.1-0.1,0.1-0.2,0.2c-0.1,0-0.2,0-0.4,0c0,0-0.1,0-0.1,0c-0.7,0-1.3,0.4-1.6,1l0,0
		c0,0.1-0.1,0.1-0.1,0.2c0,0,0,0,0,0c0,0,0,0.1,0,0.2c0,0,0,0,0,0.1c0,0,0,0.1,0,0.2c0,0,0,0,0,0.1c0,0.1,0,0.1,0,0.2
		c0,0.1,0,0.1,0,0.2c0,0,0,0,0,0.1c0,0,0,0.1,0,0.1c0,0,0,0,0,0.1c0,0,0,0.1,0,0.1c0,0,0,0.1,0,0.1c0,0,0,0,0,0.1c0,0,0,0.1,0,0.1
		c0,0,0,0,0,0c0.1,0.3,0.4,0.6,0.7,0.8c0.1,0.1,0.3,0.2,0.5,0.2c0.1,0,0.1,0,0.2,0l0,0l0.2,0l0,0c0.1,0,0.1,0,0.2,0
		c0.3,0,0.5,0,0.8-0.2c0.1,0,0.1,0.1,0.2,0.1l0,0c0,0,0.1,0.1,0.2,0.1h0c0.2,0.1,0.5,0.2,0.8,0.2c0.4,0.1,0.7,0,1.1-0.1h0
		c0.1,0,0.2,0,0.3-0.1l0.3-0.1c0.3,0.2,0.6,0.3,0.9,0.3c0.1,0,0.1,0,0.2,0l0.1,0c0.1,0,0.2-0.1,0.4-0.1l0,0c0.1,0,0.1-0.1,0.2-0.1
		c0.2-0.2,0.4-0.4,0.5-0.7c0-0.1,0.1-0.2,0.1-0.3v0c0,0,0-0.1,0-0.1c0,0,0-0.1,0-0.1C20,16.6,19.5,16,18.9,15.8z M16,24.6
		c-0.3,0-0.5,0.2-0.6,0.5c0,0,0,0,0,0c0,0,0,0,0,0c0,0.3,0.2,0.6,0.6,0.6c0,0,0,0,0,0c0.3,0,0.6-0.2,0.6-0.5c0-0.3-0.2-0.6-0.5-0.7
		C16.1,24.6,16,24.6,16,24.6z M16,7.5c0.3,0,0.6-0.3,0.6-0.6c0-0.3-0.3-0.6-0.6-0.6c0,0,0,0,0,0c-0.3,0-0.6,0.3-0.6,0.6
		C15.4,7.2,15.7,7.5,16,7.5C16,7.5,16,7.5,16,7.5z M16,6.3C16,6.3,16,6.3,16,6.3c-0.4,0-0.6,0.3-0.6,0.6c0,0.3,0.3,0.6,0.6,0.6
		c0,0,0,0,0,0c0.3,0,0.6-0.3,0.6-0.6C16.6,6.5,16.4,6.3,16,6.3z M16.1,24.6c0,0-0.1,0-0.1,0c-0.3,0-0.5,0.2-0.6,0.5c0,0,0,0,0,0
		c0,0,0,0,0,0c0,0.3,0.2,0.6,0.6,0.6c0,0,0,0,0,0c0.3,0,0.6-0.2,0.6-0.5C16.7,24.9,16.5,24.6,16.1,24.6z M18.9,15.8l0-0.2
		c0-0.1,0-0.1,0-0.2c0,0,0,0,0-0.1c0-0.1,0-0.1-0.1-0.2v0c-0.2-0.4-0.4-0.8-0.7-1l0,0c-0.1,0-0.1-0.1-0.2-0.1l0,0
		c-0.1,0-0.1-0.1-0.2-0.1l0,0c-0.1,0-0.1-0.1-0.2-0.1l0,0c-0.1,0-0.1-0.1-0.2-0.1l0,0c-0.1,0-0.1,0-0.2-0.1h0c-0.1,0-0.2,0-0.2,0h0
		c-0.2,0-0.5,0-0.7,0c-0.2,0-0.3,0.1-0.5,0.1l-0.1,0c-0.1,0-0.2,0.1-0.2,0.1c0,0-0.1,0-0.1,0c0,0-0.1,0-0.1,0.1c0,0-0.1,0.1-0.1,0.1
		l0,0c-0.1,0-0.1,0.1-0.2,0.1l0,0c-0.1,0.1-0.1,0.1-0.2,0.2c-0.1,0-0.2,0-0.4,0c0,0-0.1,0-0.1,0c-0.7,0-1.3,0.4-1.6,1l0,0
		c0,0.1-0.1,0.1-0.1,0.2c0,0,0,0,0,0c0,0,0,0.1,0,0.2c0,0,0,0,0,0.1c0,0,0,0.1,0,0.2c0,0,0,0,0,0.1c0,0.1,0,0.1,0,0.2
		c0,0.1,0,0.1,0,0.2c0,0,0,0,0,0.1c0,0,0,0.1,0,0.1c0,0,0,0,0,0.1c0,0,0,0.1,0,0.1c0,0,0,0.1,0,0.1c0,0,0,0,0,0.1c0,0,0,0.1,0,0.1
		c0,0,0,0,0,0c0.1,0.3,0.4,0.6,0.7,0.8c0.1,0.1,0.3,0.2,0.5,0.2c0.1,0,0.1,0,0.2,0l0,0l0.2,0l0,0c0.1,0,0.1,0,0.2,0
		c0.3,0,0.5,0,0.8-0.2c0.1,0,0.1,0.1,0.2,0.1l0,0c0,0,0.1,0.1,0.2,0.1h0c0.2,0.1,0.5,0.2,0.8,0.2c0.4,0.1,0.7,0,1.1-0.1h0
		c0.1,0,0.2,0,0.3-0.1l0.3-0.1c0.3,0.2,0.6,0.3,0.9,0.3c0.1,0,0.1,0,0.2,0l0.1,0c0.1,0,0.2-0.1,0.4-0.1l0,0c0.1,0,0.1-0.1,0.2-0.1
		c0.2-0.2,0.4-0.4,0.5-0.7c0-0.1,0.1-0.2,0.1-0.3v0c0,0,0-0.1,0-0.1c0,0,0-0.1,0-0.1C20,16.6,19.5,16,18.9,15.8z M24.1,10.9
		c-0.3,0-0.6,0.3-0.6,0.6c0,0.3,0.3,0.6,0.6,0.6v0c0.3,0,0.6-0.3,0.6-0.6C24.7,11.2,24.5,10.9,24.1,10.9z M24.4,20.1L24.4,20.1
		C24.3,20,24.2,20,24.1,20c-0.2,0-0.4,0.1-0.5,0.3c-0.1,0.2-0.1,0.4,0,0.6c0.1,0.2,0.3,0.3,0.5,0.3c0.2,0,0.4-0.1,0.5-0.3
		c0,0,0,0,0,0C24.8,20.6,24.7,20.2,24.4,20.1z M24.4,20.1L24.4,20.1C24.3,20,24.2,20,24.1,20c-0.2,0-0.4,0.1-0.5,0.3
		c-0.1,0.2-0.1,0.4,0,0.6c0.1,0.2,0.3,0.3,0.5,0.3c0.2,0,0.4-0.1,0.5-0.3c0,0,0,0,0,0C24.8,20.6,24.7,20.2,24.4,20.1z M24.1,10.9
		c-0.3,0-0.6,0.3-0.6,0.6c0,0.3,0.3,0.6,0.6,0.6v0c0.3,0,0.6-0.3,0.6-0.6C24.7,11.2,24.5,10.9,24.1,10.9z M18.9,15.8l0-0.2
		c0-0.1,0-0.1,0-0.2c0,0,0,0,0-0.1c0-0.1,0-0.1-0.1-0.2v0c-0.2-0.4-0.4-0.8-0.7-1l0,0c-0.1,0-0.1-0.1-0.2-0.1l0,0
		c-0.1,0-0.1-0.1-0.2-0.1l0,0c-0.1,0-0.1-0.1-0.2-0.1l0,0c-0.1,0-0.1-0.1-0.2-0.1l0,0c-0.1,0-0.1,0-0.2-0.1h0c-0.1,0-0.2,0-0.2,0h0
		c-0.2,0-0.5,0-0.7,0c-0.2,0-0.3,0.1-0.5,0.1l-0.1,0c-0.1,0-0.2,0.1-0.2,0.1c0,0-0.1,0-0.1,0c0,0-0.1,0-0.1,0.1c0,0-0.1,0.1-0.1,0.1
		l0,0c-0.1,0-0.1,0.1-0.2,0.1l0,0c-0.1,0.1-0.1,0.1-0.2,0.2c-0.1,0-0.2,0-0.4,0c0,0-0.1,0-0.1,0c-0.7,0-1.3,0.4-1.6,1l0,0
		c0,0.1-0.1,0.1-0.1,0.2c0,0,0,0,0,0c0,0,0,0.1,0,0.2c0,0,0,0,0,0.1c0,0,0,0.1,0,0.2c0,0,0,0,0,0.1c0,0.1,0,0.1,0,0.2
		c0,0.1,0,0.1,0,0.2c0,0,0,0,0,0.1c0,0,0,0.1,0,0.1c0,0,0,0,0,0.1c0,0,0,0.1,0,0.1c0,0,0,0.1,0,0.1c0,0,0,0,0,0.1c0,0,0,0.1,0,0.1
		c0,0,0,0,0,0c0.1,0.3,0.4,0.6,0.7,0.8c0.1,0.1,0.3,0.2,0.5,0.2c0.1,0,0.1,0,0.2,0l0,0l0.2,0l0,0c0.1,0,0.1,0,0.2,0
		c0.3,0,0.5,0,0.8-0.2c0.1,0,0.1,0.1,0.2,0.1l0,0c0,0,0.1,0.1,0.2,0.1h0c0.2,0.1,0.5,0.2,0.8,0.2c0.4,0.1,0.7,0,1.1-0.1h0
		c0.1,0,0.2,0,0.3-0.1l0.3-0.1c0.3,0.2,0.6,0.3,0.9,0.3c0.1,0,0.1,0,0.2,0l0.1,0c0.1,0,0.2-0.1,0.4-0.1l0,0c0.1,0,0.1-0.1,0.2-0.1
		c0.2-0.2,0.4-0.4,0.5-0.7c0-0.1,0.1-0.2,0.1-0.3v0c0,0,0-0.1,0-0.1c0,0,0-0.1,0-0.1C20,16.6,19.5,16,18.9,15.8z M16.1,24.6
		c0,0-0.1,0-0.1,0c-0.3,0-0.5,0.2-0.6,0.5c0,0,0,0,0,0c0,0,0,0,0,0c0,0.3,0.2,0.6,0.6,0.6c0,0,0,0,0,0c0.3,0,0.6-0.2,0.6-0.5
		C16.7,24.9,16.5,24.6,16.1,24.6z M16,6.3C16,6.3,16,6.3,16,6.3c-0.4,0-0.6,0.3-0.6,0.6c0,0.3,0.3,0.6,0.6,0.6c0,0,0,0,0,0
		c0.3,0,0.6-0.3,0.6-0.6C16.6,6.5,16.4,6.3,16,6.3z"/>
	<path id="path7566" class="st6" d="M8.3,10.9c-0.3-0.2-0.7-0.1-0.8,0.2c0,0,0,0,0,0c-0.2,0.3,0,0.6,0.2,0.8C8,12.1,8.3,12,8.5,11.8
		c0,0,0,0,0,0C8.7,11.4,8.6,11.1,8.3,10.9z M8.5,20.3C8.4,20.1,8.2,20,8,20c-0.3,0-0.6,0.3-0.6,0.6c0,0.3,0.3,0.6,0.6,0.6
		c0.3,0,0.6-0.3,0.6-0.6C8.6,20.5,8.6,20.4,8.5,20.3z M16,6.3C16,6.3,16,6.3,16,6.3c-0.4,0-0.6,0.3-0.6,0.6c0,0.3,0.3,0.6,0.6,0.6
		c0,0,0,0,0,0c0.3,0,0.6-0.3,0.6-0.6C16.6,6.5,16.4,6.3,16,6.3z M16.1,24.6c0,0-0.1,0-0.1,0c-0.3,0-0.5,0.2-0.6,0.5c0,0,0,0,0,0
		c0,0,0,0,0,0c0,0.3,0.2,0.6,0.6,0.6c0,0,0,0,0,0c0.3,0,0.6-0.2,0.6-0.5C16.7,24.9,16.5,24.6,16.1,24.6z M18.9,15.8l0-0.2
		c0-0.1,0-0.1,0-0.2c0,0,0,0,0-0.1c0-0.1,0-0.1-0.1-0.2v0c-0.2-0.4-0.4-0.8-0.7-1l0,0c-0.1,0-0.1-0.1-0.2-0.1l0,0
		c-0.1,0-0.1-0.1-0.2-0.1l0,0c-0.1,0-0.1-0.1-0.2-0.1l0,0c-0.1,0-0.1-0.1-0.2-0.1l0,0c-0.1,0-0.1,0-0.2-0.1h0c-0.1,0-0.2,0-0.2,0h0
		c-0.2,0-0.5,0-0.7,0c-0.2,0-0.3,0.1-0.5,0.1l-0.1,0c-0.1,0-0.2,0.1-0.2,0.1c0,0-0.1,0-0.1,0c0,0-0.1,0-0.1,0.1c0,0-0.1,0.1-0.1,0.1
		l0,0c-0.1,0-0.1,0.1-0.2,0.1l0,0c-0.1,0.1-0.1,0.1-0.2,0.2c-0.1,0-0.2,0-0.4,0c0,0-0.1,0-0.1,0c-0.7,0-1.3,0.4-1.6,1l0,0
		c0,0.1-0.1,0.1-0.1,0.2c0,0,0,0,0,0c0,0,0,0.1,0,0.2c0,0,0,0,0,0.1c0,0,0,0.1,0,0.2c0,0,0,0,0,0.1c0,0.1,0,0.1,0,0.2
		c0,0.1,0,0.1,0,0.2c0,0,0,0,0,0.1c0,0,0,0.1,0,0.1c0,0,0,0,0,0.1c0,0,0,0.1,0,0.1c0,0,0,0.1,0,0.1c0,0,0,0,0,0.1c0,0,0,0.1,0,0.1
		c0,0,0,0,0,0c0.1,0.3,0.4,0.6,0.7,0.8c0.1,0.1,0.3,0.2,0.5,0.2c0.1,0,0.1,0,0.2,0l0,0l0.2,0l0,0c0.1,0,0.1,0,0.2,0
		c0.3,0,0.5,0,0.8-0.2c0.1,0,0.1,0.1,0.2,0.1l0,0c0,0,0.1,0.1,0.2,0.1h0c0.2,0.1,0.5,0.2,0.8,0.2c0.4,0.1,0.7,0,1.1-0.1h0
		c0.1,0,0.2,0,0.3-0.1l0.3-0.1c0.3,0.2,0.6,0.3,0.9,0.3c0.1,0,0.1,0,0.2,0l0.1,0c0.1,0,0.2-0.1,0.4-0.1l0,0c0.1,0,0.1-0.1,0.2-0.1
		c0.2-0.2,0.4-0.4,0.5-0.7c0-0.1,0.1-0.2,0.1-0.3v0c0,0,0-0.1,0-0.1c0,0,0-0.1,0-0.1C20,16.6,19.5,16,18.9,15.8z M24.1,10.9
		c-0.3,0-0.6,0.3-0.6,0.6c0,0.3,0.3,0.6,0.6,0.6v0c0.3,0,0.6-0.3,0.6-0.6C24.7,11.2,24.5,10.9,24.1,10.9z M24.4,20.1L24.4,20.1
		C24.3,20,24.2,20,24.1,20c-0.2,0-0.4,0.1-0.5,0.3c-0.1,0.2-0.1,0.4,0,0.6c0.1,0.2,0.3,0.3,0.5,0.3c0.2,0,0.4-0.1,0.5-0.3
		c0,0,0,0,0,0C24.8,20.6,24.7,20.2,24.4,20.1z M24.4,20.1L24.4,20.1C24.3,20,24.2,20,24.1,20c-0.2,0-0.4,0.1-0.5,0.3
		c-0.1,0.2-0.1,0.4,0,0.6c0.1,0.2,0.3,0.3,0.5,0.3c0.2,0,0.4-0.1,0.5-0.3c0,0,0,0,0,0C24.8,20.6,24.7,20.2,24.4,20.1z M24.1,10.9
		c-0.3,0-0.6,0.3-0.6,0.6c0,0.3,0.3,0.6,0.6,0.6v0c0.3,0,0.6-0.3,0.6-0.6C24.7,11.2,24.5,10.9,24.1,10.9z M18.9,15.8l0-0.2
		c0-0.1,0-0.1,0-0.2c0,0,0,0,0-0.1c0-0.1,0-0.1-0.1-0.2v0c-0.2-0.4-0.4-0.8-0.7-1l0,0c-0.1,0-0.1-0.1-0.2-0.1l0,0
		c-0.1,0-0.1-0.1-0.2-0.1l0,0c-0.1,0-0.1-0.1-0.2-0.1l0,0c-0.1,0-0.1-0.1-0.2-0.1l0,0c-0.1,0-0.1,0-0.2-0.1h0c-0.1,0-0.2,0-0.2,0h0
		c-0.2,0-0.5,0-0.7,0c-0.2,0-0.3,0.1-0.5,0.1l-0.1,0c-0.1,0-0.2,0.1-0.2,0.1c0,0-0.1,0-0.1,0c0,0-0.1,0-0.1,0.1c0,0-0.1,0.1-0.1,0.1
		l0,0c-0.1,0-0.1,0.1-0.2,0.1l0,0c-0.1,0.1-0.1,0.1-0.2,0.2c-0.1,0-0.2,0-0.4,0c0,0-0.1,0-0.1,0c-0.7,0-1.3,0.4-1.6,1l0,0
		c0,0.1-0.1,0.1-0.1,0.2c0,0,0,0,0,0c0,0,0,0.1,0,0.2c0,0,0,0,0,0.1c0,0,0,0.1,0,0.2c0,0,0,0,0,0.1c0,0.1,0,0.1,0,0.2
		c0,0.1,0,0.1,0,0.2c0,0,0,0,0,0.1c0,0,0,0.1,0,0.1c0,0,0,0,0,0.1c0,0,0,0.1,0,0.1c0,0,0,0.1,0,0.1c0,0,0,0,0,0.1c0,0,0,0.1,0,0.1
		c0,0,0,0,0,0c0.1,0.3,0.4,0.6,0.7,0.8c0.1,0.1,0.3,0.2,0.5,0.2c0.1,0,0.1,0,0.2,0l0,0l0.2,0l0,0c0.1,0,0.1,0,0.2,0
		c0.3,0,0.5,0,0.8-0.2c0.1,0,0.1,0.1,0.2,0.1l0,0c0,0,0.1,0.1,0.2,0.1h0c0.2,0.1,0.5,0.2,0.8,0.2c0.4,0.1,0.7,0,1.1-0.1h0
		c0.1,0,0.2,0,0.3-0.1l0.3-0.1c0.3,0.2,0.6,0.3,0.9,0.3c0.1,0,0.1,0,0.2,0l0.1,0c0.1,0,0.2-0.1,0.4-0.1l0,0c0.1,0,0.1-0.1,0.2-0.1
		c0.2-0.2,0.4-0.4,0.5-0.7c0-0.1,0.1-0.2,0.1-0.3v0c0,0,0-0.1,0-0.1c0,0,0-0.1,0-0.1C20,16.6,19.5,16,18.9,15.8z M16.1,24.6
		c0,0-0.1,0-0.1,0c-0.3,0-0.5,0.2-0.6,0.5c0,0,0,0,0,0c0,0,0,0,0,0c0,0.3,0.2,0.6,0.6,0.6c0,0,0,0,0,0c0.3,0,0.6-0.2,0.6-0.5
		C16.7,24.9,16.5,24.6,16.1,24.6z M16,6.3C16,6.3,16,6.3,16,6.3c-0.4,0-0.6,0.3-0.6,0.6c0,0.3,0.3,0.6,0.6,0.6c0,0,0,0,0,0
		c0.3,0,0.6-0.3,0.6-0.6C16.6,6.5,16.4,6.3,16,6.3z M8.5,20.3C8.4,20.1,8.2,20,8,20c-0.3,0-0.6,0.3-0.6,0.6c0,0.3,0.3,0.6,0.6,0.6
		c0.3,0,0.6-0.3,0.6-0.6C8.6,20.5,8.6,20.4,8.5,20.3z M8.3,10.9c-0.3-0.2-0.7-0.1-0.8,0.2c0,0,0,0,0,0c-0.2,0.3,0,0.6,0.2,0.8
		C8,12.1,8.3,12,8.5,11.8c0,0,0,0,0,0C8.7,11.4,8.6,11.1,8.3,10.9z M8.3,10.9c-0.3-0.2-0.7-0.1-0.8,0.2c0,0,0,0,0,0
		c-0.2,0.3,0,0.6,0.2,0.8C8,12.1,8.3,12,8.5,11.8c0,0,0,0,0,0C8.7,11.4,8.6,11.1,8.3,10.9z M8.5,20.3C8.4,20.1,8.2,20,8,20
		c-0.3,0-0.6,0.3-0.6,0.6c0,0.3,0.3,0.6,0.6,0.6c0.3,0,0.6-0.3,0.6-0.6C8.6,20.5,8.6,20.4,8.5,20.3z M16,6.3C16,6.3,16,6.3,16,6.3
		c-0.4,0-0.6,0.3-0.6,0.6c0,0.3,0.3,0.6,0.6,0.6c0,0,0,0,0,0c0.3,0,0.6-0.3,0.6-0.6C16.6,6.5,16.4,6.3,16,6.3z M16.1,24.6
		c0,0-0.1,0-0.1,0c-0.3,0-0.5,0.2-0.6,0.5c0,0,0,0,0,0c0,0,0,0,0,0c0,0.3,0.2,0.6,0.6,0.6c0,0,0,0,0,0c0.3,0,0.6-0.2,0.6-0.5
		C16.7,24.9,16.5,24.6,16.1,24.6z M18.9,15.8l0-0.2c0-0.1,0-0.1,0-0.2c0,0,0,0,0-0.1c0-0.1,0-0.1-0.1-0.2v0c-0.2-0.4-0.4-0.8-0.7-1
		l0,0c-0.1,0-0.1-0.1-0.2-0.1l0,0c-0.1,0-0.1-0.1-0.2-0.1l0,0c-0.1,0-0.1-0.1-0.2-0.1l0,0c-0.1,0-0.1-0.1-0.2-0.1l0,0
		c-0.1,0-0.1,0-0.2-0.1h0c-0.1,0-0.2,0-0.2,0h0c-0.2,0-0.5,0-0.7,0c-0.2,0-0.3,0.1-0.5,0.1l-0.1,0c-0.1,0-0.2,0.1-0.2,0.1
		c0,0-0.1,0-0.1,0c0,0-0.1,0-0.1,0.1c0,0-0.1,0.1-0.1,0.1l0,0c-0.1,0-0.1,0.1-0.2,0.1l0,0c-0.1,0.1-0.1,0.1-0.2,0.2
		c-0.1,0-0.2,0-0.4,0c0,0-0.1,0-0.1,0c-0.7,0-1.3,0.4-1.6,1l0,0c0,0.1-0.1,0.1-0.1,0.2c0,0,0,0,0,0c0,0,0,0.1,0,0.2c0,0,0,0,0,0.1
		c0,0,0,0.1,0,0.2c0,0,0,0,0,0.1c0,0.1,0,0.1,0,0.2c0,0.1,0,0.1,0,0.2c0,0,0,0,0,0.1c0,0,0,0.1,0,0.1c0,0,0,0,0,0.1c0,0,0,0.1,0,0.1
		c0,0,0,0.1,0,0.1c0,0,0,0,0,0.1c0,0,0,0.1,0,0.1c0,0,0,0,0,0c0.1,0.3,0.4,0.6,0.7,0.8c0.1,0.1,0.3,0.2,0.5,0.2c0.1,0,0.1,0,0.2,0
		l0,0l0.2,0l0,0c0.1,0,0.1,0,0.2,0c0.3,0,0.5,0,0.8-0.2c0.1,0,0.1,0.1,0.2,0.1l0,0c0,0,0.1,0.1,0.2,0.1h0c0.2,0.1,0.5,0.2,0.8,0.2
		c0.4,0.1,0.7,0,1.1-0.1h0c0.1,0,0.2,0,0.3-0.1l0.3-0.1c0.3,0.2,0.6,0.3,0.9,0.3c0.1,0,0.1,0,0.2,0l0.1,0c0.1,0,0.2-0.1,0.4-0.1l0,0
		c0.1,0,0.1-0.1,0.2-0.1c0.2-0.2,0.4-0.4,0.5-0.7c0-0.1,0.1-0.2,0.1-0.3v0c0,0,0-0.1,0-0.1c0,0,0-0.1,0-0.1
		C20,16.6,19.5,16,18.9,15.8z M24.1,10.9c-0.3,0-0.6,0.3-0.6,0.6c0,0.3,0.3,0.6,0.6,0.6v0c0.3,0,0.6-0.3,0.6-0.6
		C24.7,11.2,24.5,10.9,24.1,10.9z M24.4,20.1L24.4,20.1C24.3,20,24.2,20,24.1,20c-0.2,0-0.4,0.1-0.5,0.3c-0.1,0.2-0.1,0.4,0,0.6
		c0.1,0.2,0.3,0.3,0.5,0.3c0.2,0,0.4-0.1,0.5-0.3c0,0,0,0,0,0C24.8,20.6,24.7,20.2,24.4,20.1z M24.4,20.1L24.4,20.1
		C24.3,20,24.2,20,24.1,20c-0.2,0-0.4,0.1-0.5,0.3c-0.1,0.2-0.1,0.4,0,0.6c0.1,0.2,0.3,0.3,0.5,0.3c0.2,0,0.4-0.1,0.5-0.3
		c0,0,0,0,0,0C24.8,20.6,24.7,20.2,24.4,20.1z M24.1,10.9c-0.3,0-0.6,0.3-0.6,0.6c0,0.3,0.3,0.6,0.6,0.6v0c0.3,0,0.6-0.3,0.6-0.6
		C24.7,11.2,24.5,10.9,24.1,10.9z M18.9,15.8l0-0.2c0-0.1,0-0.1,0-0.2c0,0,0,0,0-0.1c0-0.1,0-0.1-0.1-0.2v0c-0.2-0.4-0.4-0.8-0.7-1
		l0,0c-0.1,0-0.1-0.1-0.2-0.1l0,0c-0.1,0-0.1-0.1-0.2-0.1l0,0c-0.1,0-0.1-0.1-0.2-0.1l0,0c-0.1,0-0.1-0.1-0.2-0.1l0,0
		c-0.1,0-0.1,0-0.2-0.1h0c-0.1,0-0.2,0-0.2,0h0c-0.2,0-0.5,0-0.7,0c-0.2,0-0.3,0.1-0.5,0.1l-0.1,0c-0.1,0-0.2,0.1-0.2,0.1
		c0,0-0.1,0-0.1,0c0,0-0.1,0-0.1,0.1c0,0-0.1,0.1-0.1,0.1l0,0c-0.1,0-0.1,0.1-0.2,0.1l0,0c-0.1,0.1-0.1,0.1-0.2,0.2
		c-0.1,0-0.2,0-0.4,0c0,0-0.1,0-0.1,0c-0.7,0-1.3,0.4-1.6,1l0,0c0,0.1-0.1,0.1-0.1,0.2c0,0,0,0,0,0c0,0,0,0.1,0,0.2c0,0,0,0,0,0.1
		c0,0,0,0.1,0,0.2c0,0,0,0,0,0.1c0,0.1,0,0.1,0,0.2c0,0.1,0,0.1,0,0.2c0,0,0,0,0,0.1c0,0,0,0.1,0,0.1c0,0,0,0,0,0.1c0,0,0,0.1,0,0.1
		c0,0,0,0.1,0,0.1c0,0,0,0,0,0.1c0,0,0,0.1,0,0.1c0,0,0,0,0,0c0.1,0.3,0.4,0.6,0.7,0.8c0.1,0.1,0.3,0.2,0.5,0.2c0.1,0,0.1,0,0.2,0
		l0,0l0.2,0l0,0c0.1,0,0.1,0,0.2,0c0.3,0,0.5,0,0.8-0.2c0.1,0,0.1,0.1,0.2,0.1l0,0c0,0,0.1,0.1,0.2,0.1h0c0.2,0.1,0.5,0.2,0.8,0.2
		c0.4,0.1,0.7,0,1.1-0.1h0c0.1,0,0.2,0,0.3-0.1l0.3-0.1c0.3,0.2,0.6,0.3,0.9,0.3c0.1,0,0.1,0,0.2,0l0.1,0c0.1,0,0.2-0.1,0.4-0.1l0,0
		c0.1,0,0.1-0.1,0.2-0.1c0.2-0.2,0.4-0.4,0.5-0.7c0-0.1,0.1-0.2,0.1-0.3v0c0,0,0-0.1,0-0.1c0,0,0-0.1,0-0.1
		C20,16.6,19.5,16,18.9,15.8z M16.1,24.6c0,0-0.1,0-0.1,0c-0.3,0-0.5,0.2-0.6,0.5c0,0,0,0,0,0c0,0,0,0,0,0c0,0.3,0.2,0.6,0.6,0.6
		c0,0,0,0,0,0c0.3,0,0.6-0.2,0.6-0.5C16.7,24.9,16.5,24.6,16.1,24.6z M16,6.3C16,6.3,16,6.3,16,6.3c-0.4,0-0.6,0.3-0.6,0.6
		c0,0.3,0.3,0.6,0.6,0.6c0,0,0,0,0,0c0.3,0,0.6-0.3,0.6-0.6C16.6,6.5,16.4,6.3,16,6.3z M8.5,20.3C8.4,20.1,8.2,20,8,20
		c-0.3,0-0.6,0.3-0.6,0.6c0,0.3,0.3,0.6,0.6,0.6c0.3,0,0.6-0.3,0.6-0.6C8.6,20.5,8.6,20.4,8.5,20.3z M8.3,10.9
		c-0.3-0.2-0.7-0.1-0.8,0.2c0,0,0,0,0,0c-0.2,0.3,0,0.6,0.2,0.8C8,12.1,8.3,12,8.5,11.8c0,0,0,0,0,0C8.7,11.4,8.6,11.1,8.3,10.9z
		 M8.3,10.9c-0.3-0.2-0.7-0.1-0.8,0.2c0,0,0,0,0,0c-0.2,0.3,0,0.6,0.2,0.8C8,12.1,8.3,12,8.5,11.8c0,0,0,0,0,0
		C8.7,11.4,8.6,11.1,8.3,10.9z M8.5,20.3C8.4,20.1,8.2,20,8,20c-0.3,0-0.6,0.3-0.6,0.6c0,0.3,0.3,0.6,0.6,0.6c0.3,0,0.6-0.3,0.6-0.6
		C8.6,20.5,8.6,20.4,8.5,20.3z M16,6.3C16,6.3,16,6.3,16,6.3c-0.4,0-0.6,0.3-0.6,0.6c0,0.3,0.3,0.6,0.6,0.6c0,0,0,0,0,0
		c0.3,0,0.6-0.3,0.6-0.6C16.6,6.5,16.4,6.3,16,6.3z M16.1,24.6c0,0-0.1,0-0.1,0c-0.3,0-0.5,0.2-0.6,0.5c0,0,0,0,0,0c0,0,0,0,0,0
		c0,0.3,0.2,0.6,0.6,0.6c0,0,0,0,0,0c0.3,0,0.6-0.2,0.6-0.5C16.7,24.9,16.5,24.6,16.1,24.6z M18.9,15.8l0-0.2c0-0.1,0-0.1,0-0.2
		c0,0,0,0,0-0.1c0-0.1,0-0.1-0.1-0.2v0c-0.2-0.4-0.4-0.8-0.7-1l0,0c-0.1,0-0.1-0.1-0.2-0.1l0,0c-0.1,0-0.1-0.1-0.2-0.1l0,0
		c-0.1,0-0.1-0.1-0.2-0.1l0,0c-0.1,0-0.1-0.1-0.2-0.1l0,0c-0.1,0-0.1,0-0.2-0.1h0c-0.1,0-0.2,0-0.2,0h0c-0.2,0-0.5,0-0.7,0
		c-0.2,0-0.3,0.1-0.5,0.1l-0.1,0c-0.1,0-0.2,0.1-0.2,0.1c0,0-0.1,0-0.1,0c0,0-0.1,0-0.1,0.1c0,0-0.1,0.1-0.1,0.1l0,0
		c-0.1,0-0.1,0.1-0.2,0.1l0,0c-0.1,0.1-0.1,0.1-0.2,0.2c-0.1,0-0.2,0-0.4,0c0,0-0.1,0-0.1,0c-0.7,0-1.3,0.4-1.6,1l0,0
		c0,0.1-0.1,0.1-0.1,0.2c0,0,0,0,0,0c0,0,0,0.1,0,0.2c0,0,0,0,0,0.1c0,0,0,0.1,0,0.2c0,0,0,0,0,0.1c0,0.1,0,0.1,0,0.2
		c0,0.1,0,0.1,0,0.2c0,0,0,0,0,0.1c0,0,0,0.1,0,0.1c0,0,0,0,0,0.1c0,0,0,0.1,0,0.1c0,0,0,0.1,0,0.1c0,0,0,0,0,0.1c0,0,0,0.1,0,0.1
		c0,0,0,0,0,0c0.1,0.3,0.4,0.6,0.7,0.8c0.1,0.1,0.3,0.2,0.5,0.2c0.1,0,0.1,0,0.2,0l0,0l0.2,0l0,0c0.1,0,0.1,0,0.2,0
		c0.3,0,0.5,0,0.8-0.2c0.1,0,0.1,0.1,0.2,0.1l0,0c0,0,0.1,0.1,0.2,0.1h0c0.2,0.1,0.5,0.2,0.8,0.2c0.4,0.1,0.7,0,1.1-0.1h0
		c0.1,0,0.2,0,0.3-0.1l0.3-0.1c0.3,0.2,0.6,0.3,0.9,0.3c0.1,0,0.1,0,0.2,0l0.1,0c0.1,0,0.2-0.1,0.4-0.1l0,0c0.1,0,0.1-0.1,0.2-0.1
		c0.2-0.2,0.4-0.4,0.5-0.7c0-0.1,0.1-0.2,0.1-0.3v0c0,0,0-0.1,0-0.1c0,0,0-0.1,0-0.1C20,16.6,19.5,16,18.9,15.8z M24.1,10.9
		c-0.3,0-0.6,0.3-0.6,0.6c0,0.3,0.3,0.6,0.6,0.6v0c0.3,0,0.6-0.3,0.6-0.6C24.7,11.2,24.5,10.9,24.1,10.9z M24.4,20.1L24.4,20.1
		C24.3,20,24.2,20,24.1,20c-0.2,0-0.4,0.1-0.5,0.3c-0.1,0.2-0.1,0.4,0,0.6c0.1,0.2,0.3,0.3,0.5,0.3c0.2,0,0.4-0.1,0.5-0.3
		c0,0,0,0,0,0C24.8,20.6,24.7,20.2,24.4,20.1z M24.4,20.1L24.4,20.1C24.3,20,24.2,20,24.1,20c-0.2,0-0.4,0.1-0.5,0.3
		c-0.1,0.2-0.1,0.4,0,0.6c0.1,0.2,0.3,0.3,0.5,0.3c0.2,0,0.4-0.1,0.5-0.3c0,0,0,0,0,0C24.8,20.6,24.7,20.2,24.4,20.1z M24.1,12.1
		L24.1,12.1c0.3,0,0.6-0.3,0.6-0.6c0-0.3-0.3-0.6-0.6-0.6c-0.3,0-0.6,0.3-0.6,0.6C23.5,11.8,23.8,12.1,24.1,12.1z M18.9,15.8l0-0.2
		c0-0.1,0-0.1,0-0.2c0,0,0,0,0-0.1c0-0.1,0-0.1-0.1-0.2v0c-0.2-0.4-0.4-0.8-0.7-1l0,0c-0.1,0-0.1-0.1-0.2-0.1l0,0
		c-0.1,0-0.1-0.1-0.2-0.1l0,0c-0.1,0-0.1-0.1-0.2-0.1l0,0c-0.1,0-0.1-0.1-0.2-0.1l0,0c-0.1,0-0.1,0-0.2-0.1h0c-0.1,0-0.2,0-0.2,0h0
		c-0.2,0-0.5,0-0.7,0c-0.2,0-0.3,0.1-0.5,0.1l-0.1,0c-0.1,0-0.2,0.1-0.2,0.1c0,0-0.1,0-0.1,0c0,0-0.1,0-0.1,0.1c0,0-0.1,0.1-0.1,0.1
		l0,0c-0.1,0-0.1,0.1-0.2,0.1l0,0c-0.1,0.1-0.1,0.1-0.2,0.2c-0.1,0-0.2,0-0.4,0c0,0-0.1,0-0.1,0c-0.7,0-1.3,0.4-1.6,1l0,0
		c0,0.1-0.1,0.1-0.1,0.2c0,0,0,0,0,0c0,0,0,0.1,0,0.2c0,0,0,0,0,0.1c0,0,0,0.1,0,0.2c0,0,0,0,0,0.1c0,0.1,0,0.1,0,0.2
		c0,0.1,0,0.1,0,0.2c0,0,0,0,0,0.1c0,0,0,0.1,0,0.1c0,0,0,0,0,0.1c0,0,0,0.1,0,0.1c0,0,0,0.1,0,0.1c0,0,0,0,0,0.1c0,0,0,0.1,0,0.1
		c0,0,0,0,0,0c0.1,0.3,0.4,0.6,0.7,0.8c0.1,0.1,0.3,0.2,0.5,0.2c0.1,0,0.1,0,0.2,0l0,0l0.2,0l0,0c0.1,0,0.1,0,0.2,0
		c0.3,0,0.5,0,0.8-0.2c0.1,0,0.1,0.1,0.2,0.1l0,0c0,0,0.1,0.1,0.2,0.1h0c0.2,0.1,0.5,0.2,0.8,0.2c0.4,0.1,0.7,0,1.1-0.1h0
		c0.1,0,0.2,0,0.3-0.1l0.3-0.1c0.3,0.2,0.6,0.3,0.9,0.3c0.1,0,0.1,0,0.2,0l0.1,0c0.1,0,0.2-0.1,0.4-0.1l0,0c0.1,0,0.1-0.1,0.2-0.1
		c0.2-0.2,0.4-0.4,0.5-0.7c0-0.1,0.1-0.2,0.1-0.3v0c0,0,0-0.1,0-0.1c0,0,0-0.1,0-0.1C20,16.6,19.5,16,18.9,15.8z M16.1,24.6
		c0,0-0.1,0-0.1,0c-0.3,0-0.5,0.2-0.6,0.5c0,0,0,0,0,0c0,0,0,0,0,0c0,0.3,0.2,0.6,0.6,0.6c0,0,0,0,0,0c0.3,0,0.6-0.2,0.6-0.5
		C16.7,24.9,16.5,24.6,16.1,24.6z M16,7.5C16,7.5,16,7.5,16,7.5c0.4,0,0.6-0.3,0.6-0.6c0-0.3-0.3-0.6-0.6-0.6c0,0,0,0,0,0
		c-0.3,0-0.6,0.3-0.6,0.6C15.4,7.2,15.7,7.5,16,7.5z M8,20c-0.3,0-0.6,0.3-0.6,0.6c0,0.3,0.3,0.6,0.6,0.6c0.3,0,0.6-0.3,0.6-0.6
		c0-0.1,0-0.2-0.1-0.3C8.4,20.1,8.2,20,8,20z M7.7,12C8,12.1,8.3,12,8.5,11.8c0,0,0,0,0,0c0.2-0.3,0-0.6-0.2-0.8
		c-0.3-0.2-0.7-0.1-0.8,0.2c0,0,0,0,0,0C7.3,11.5,7.4,11.8,7.7,12z M25,19L25,19c-0.1,0-0.1-0.1-0.2-0.1v-5.6c0.1,0,0.2-0.1,0.3-0.1
		c0.9-0.5,1.3-1.6,0.7-2.6c0-0.1-0.1-0.1-0.1-0.2c-0.6-0.9-1.8-1-2.7-0.4l-5-2.9c0-0.1,0-0.2,0-0.3c0-1-0.9-1.9-1.9-1.9h0
		c-1,0-1.9,0.9-1.9,1.9c0,0.1,0,0.2,0,0.3l-5,2.8C8.5,9.6,7.8,9.5,7.2,9.7C6.6,10,6.1,10.5,6,11.2c-0.1,0.7,0.2,1.3,0.8,1.7
		C6.8,13,6.9,13.1,7,13.1c0.1,0,0.2,0.1,0.3,0.1v5.6c-1,0.4-1.5,1.5-1.1,2.4c0.4,1,1.5,1.4,2.5,1c0.1,0,0.2-0.1,0.2-0.1
		c0.1,0,0.2-0.1,0.2-0.2l5,2.8c-0.2,1,0.5,2,1.6,2.1c0.1,0,0.2,0,0.3,0c0.9,0,1.7-0.7,1.9-1.6c0-0.1,0-0.2,0-0.3c0-0.1,0-0.2,0-0.3
		l4.9-2.8c0.1,0.1,0.2,0.1,0.2,0.2c0.9,0.5,2.1,0.2,2.6-0.7C26.1,20.6,25.8,19.5,25,19z M25.3,21.3L25.3,21.3
		c-0.4,0.7-1.3,0.9-2,0.5c-0.6-0.3-0.8-0.9-0.7-1.6l-2.3-1.3c-0.7,0.7-1.8,1-2.8,0.6c-0.3,0.1-1.1,0.2-1.1,0.2v4c0,0,0,0,0,0
		c0.8,0.2,1.2,1.1,1,1.9c-0.2,0.6-0.8,1.1-1.5,1.1c-0.2,0-0.3,0-0.5-0.1c0,0,0,0,0,0c-0.1,0-0.1,0-0.2-0.1c0,0,0,0,0,0
		c-0.7-0.4-1-1.3-0.7-2c0.2-0.4,0.5-0.6,0.9-0.8v-4.1c-0.3-0.1-0.6-0.2-0.8-0.3c-0.9,0.2-1.8,0-2.5-0.6l-2.8,1.6c0,0,0,0,0,0
		C9.6,21,9.1,21.8,8.3,22c-0.8,0.2-1.6-0.3-1.8-1.1c0,0,0,0,0,0c-0.2-0.8,0.3-1.5,1.1-1.7c0.5-0.1,1,0,1.3,0.3l2.6-1.5
		c-0.9-1.2-0.7-2.9,0.3-3.9L9,12.5c-0.6,0.5-1.5,0.5-2.1-0.1c0,0,0,0,0,0c-0.5-0.6-0.5-1.5,0.1-2C7.6,9.9,8.5,9.9,9,10.5
		c0.3,0.3,0.5,0.8,0.4,1.3l3.3,1.8c0.4-0.2,0.9-0.3,1.4-0.4c0.5-0.4,1.6-0.7,1.6-0.7V8.1c0,0,0,0,0,0c-0.7-0.2-1.1-1-0.9-1.7
		c0.2-0.6,0.7-0.9,1.3-0.9c0.1,0,0.3,0,0.4,0.1c0,0,0,0,0,0c0.7,0.2,1.1,1,0.9,1.7c-0.1,0.4-0.5,0.8-0.9,0.9v4.3
		c0,0,2.1,0.5,2.8,1.3l3.5-1.9c0,0,0,0,0,0c-0.2-0.8,0.3-1.5,1.1-1.7c0.8-0.2,1.6,0.3,1.8,1.1c0,0,0,0,0,0c0.2,0.8-0.3,1.5-1.1,1.7
		c-0.5,0.1-1,0-1.3-0.4l-3.4,1.9c0.1,0.2,0.2,0.4,0.2,0.6c1.1,0.7,1.4,2.1,0.9,3.2l2.3,1.3c0.5-0.4,1.2-0.5,1.7-0.2c0,0,0,0,0,0
		C25.5,19.8,25.7,20.7,25.3,21.3z M24.4,20.1L24.4,20.1C24.3,20,24.2,20,24.1,20c-0.2,0-0.4,0.1-0.5,0.3c-0.1,0.2-0.1,0.4,0,0.6
		c0.1,0.2,0.3,0.3,0.5,0.3c0.2,0,0.4-0.1,0.5-0.3c0,0,0,0,0,0C24.8,20.6,24.7,20.2,24.4,20.1z M24.1,12.1L24.1,12.1
		c0.3,0,0.6-0.3,0.6-0.6c0-0.3-0.3-0.6-0.6-0.6c-0.3,0-0.6,0.3-0.6,0.6C23.5,11.8,23.8,12.1,24.1,12.1z M18.9,15.8l0-0.2
		c0-0.1,0-0.1,0-0.2c0,0,0,0,0-0.1c0-0.1,0-0.1-0.1-0.2v0c-0.2-0.4-0.4-0.8-0.7-1l0,0c-0.1,0-0.1-0.1-0.2-0.1l0,0
		c-0.1,0-0.1-0.1-0.2-0.1l0,0c-0.1,0-0.1-0.1-0.2-0.1l0,0c-0.1,0-0.1-0.1-0.2-0.1l0,0c-0.1,0-0.1,0-0.2-0.1h0c-0.1,0-0.2,0-0.2,0h0
		c-0.2,0-0.5,0-0.7,0c-0.2,0-0.3,0.1-0.5,0.1l-0.1,0c-0.1,0-0.2,0.1-0.2,0.1c0,0-0.1,0-0.1,0c0,0-0.1,0-0.1,0.1c0,0-0.1,0.1-0.1,0.1
		l0,0c-0.1,0-0.1,0.1-0.2,0.1l0,0c-0.1,0.1-0.1,0.1-0.2,0.2c-0.1,0-0.2,0-0.4,0c0,0-0.1,0-0.1,0c-0.7,0-1.3,0.4-1.6,1l0,0
		c0,0.1-0.1,0.1-0.1,0.2c0,0,0,0,0,0c0,0,0,0.1,0,0.2c0,0,0,0,0,0.1c0,0,0,0.1,0,0.2c0,0,0,0,0,0.1c0,0.1,0,0.1,0,0.2
		c0,0.1,0,0.1,0,0.2c0,0,0,0,0,0.1c0,0,0,0.1,0,0.1c0,0,0,0,0,0.1c0,0,0,0.1,0,0.1c0,0,0,0.1,0,0.1c0,0,0,0,0,0.1c0,0,0,0.1,0,0.1
		c0,0,0,0,0,0c0.1,0.3,0.4,0.6,0.7,0.8c0.1,0.1,0.3,0.2,0.5,0.2c0.1,0,0.1,0,0.2,0l0,0l0.2,0l0,0c0.1,0,0.1,0,0.2,0
		c0.3,0,0.5,0,0.8-0.2c0.1,0,0.1,0.1,0.2,0.1l0,0c0,0,0.1,0.1,0.2,0.1h0c0.2,0.1,0.5,0.2,0.8,0.2c0.4,0.1,0.7,0,1.1-0.1h0
		c0.1,0,0.2,0,0.3-0.1l0.3-0.1c0.3,0.2,0.6,0.3,0.9,0.3c0.1,0,0.1,0,0.2,0l0.1,0c0.1,0,0.2-0.1,0.4-0.1l0,0c0.1,0,0.1-0.1,0.2-0.1
		c0.2-0.2,0.4-0.4,0.5-0.7c0-0.1,0.1-0.2,0.1-0.3v0c0,0,0-0.1,0-0.1c0,0,0-0.1,0-0.1C20,16.6,19.5,16,18.9,15.8z M16,24.6
		c-0.3,0-0.5,0.2-0.6,0.5c0,0,0,0,0,0c0,0,0,0,0,0c0,0.3,0.2,0.6,0.6,0.6c0,0,0,0,0,0c0.3,0,0.6-0.2,0.6-0.5c0-0.3-0.2-0.6-0.5-0.7
		C16.1,24.6,16,24.6,16,24.6z M16,7.5c0.3,0,0.6-0.3,0.6-0.6c0-0.3-0.3-0.6-0.6-0.6c0,0,0,0,0,0c-0.3,0-0.6,0.3-0.6,0.6
		C15.4,7.2,15.7,7.5,16,7.5C16,7.5,16,7.5,16,7.5z M8,20c-0.3,0-0.6,0.3-0.6,0.6c0,0.3,0.3,0.6,0.6,0.6c0.3,0,0.6-0.3,0.6-0.6
		c0-0.1,0-0.2-0.1-0.3C8.4,20.1,8.2,20,8,20z M8.3,10.9c-0.3-0.2-0.7-0.1-0.8,0.2c0,0,0,0,0,0c-0.2,0.3,0,0.6,0.2,0.8
		C8,12.1,8.3,12,8.5,11.8c0,0,0,0,0,0C8.7,11.4,8.6,11.1,8.3,10.9z M8.3,10.9c-0.3-0.2-0.7-0.1-0.8,0.2c0,0,0,0,0,0
		c-0.2,0.3,0,0.6,0.2,0.8C8,12.1,8.3,12,8.5,11.8c0,0,0,0,0,0C8.7,11.4,8.6,11.1,8.3,10.9z M8.5,20.3C8.4,20.1,8.2,20,8,20
		c-0.3,0-0.6,0.3-0.6,0.6c0,0.3,0.3,0.6,0.6,0.6c0.3,0,0.6-0.3,0.6-0.6C8.6,20.5,8.6,20.4,8.5,20.3z M16,6.3C16,6.3,16,6.3,16,6.3
		c-0.4,0-0.6,0.3-0.6,0.6c0,0.3,0.3,0.6,0.6,0.6c0,0,0,0,0,0c0.3,0,0.6-0.3,0.6-0.6C16.6,6.5,16.4,6.3,16,6.3z M16.1,24.6
		c0,0-0.1,0-0.1,0c-0.3,0-0.5,0.2-0.6,0.5c0,0,0,0,0,0c0,0,0,0,0,0c0,0.3,0.2,0.6,0.6,0.6c0,0,0,0,0,0c0.3,0,0.6-0.2,0.6-0.5
		C16.7,24.9,16.5,24.6,16.1,24.6z M18.9,15.8l0-0.2c0-0.1,0-0.1,0-0.2c0,0,0,0,0-0.1c0-0.1,0-0.1-0.1-0.2v0c-0.2-0.4-0.4-0.8-0.7-1
		l0,0c-0.1,0-0.1-0.1-0.2-0.1l0,0c-0.1,0-0.1-0.1-0.2-0.1l0,0c-0.1,0-0.1-0.1-0.2-0.1l0,0c-0.1,0-0.1-0.1-0.2-0.1l0,0
		c-0.1,0-0.1,0-0.2-0.1h0c-0.1,0-0.2,0-0.2,0h0c-0.2,0-0.5,0-0.7,0c-0.2,0-0.3,0.1-0.5,0.1l-0.1,0c-0.1,0-0.2,0.1-0.2,0.1
		c0,0-0.1,0-0.1,0c0,0-0.1,0-0.1,0.1c0,0-0.1,0.1-0.1,0.1l0,0c-0.1,0-0.1,0.1-0.2,0.1l0,0c-0.1,0.1-0.1,0.1-0.2,0.2
		c-0.1,0-0.2,0-0.4,0c0,0-0.1,0-0.1,0c-0.7,0-1.3,0.4-1.6,1l0,0c0,0.1-0.1,0.1-0.1,0.2c0,0,0,0,0,0c0,0,0,0.1,0,0.2c0,0,0,0,0,0.1
		c0,0,0,0.1,0,0.2c0,0,0,0,0,0.1c0,0.1,0,0.1,0,0.2c0,0.1,0,0.1,0,0.2c0,0,0,0,0,0.1c0,0,0,0.1,0,0.1c0,0,0,0,0,0.1c0,0,0,0.1,0,0.1
		c0,0,0,0.1,0,0.1c0,0,0,0,0,0.1c0,0,0,0.1,0,0.1c0,0,0,0,0,0c0.1,0.3,0.4,0.6,0.7,0.8c0.1,0.1,0.3,0.2,0.5,0.2c0.1,0,0.1,0,0.2,0
		l0,0l0.2,0l0,0c0.1,0,0.1,0,0.2,0c0.3,0,0.5,0,0.8-0.2c0.1,0,0.1,0.1,0.2,0.1l0,0c0,0,0.1,0.1,0.2,0.1h0c0.2,0.1,0.5,0.2,0.8,0.2
		c0.4,0.1,0.7,0,1.1-0.1h0c0.1,0,0.2,0,0.3-0.1l0.3-0.1c0.3,0.2,0.6,0.3,0.9,0.3c0.1,0,0.1,0,0.2,0l0.1,0c0.1,0,0.2-0.1,0.4-0.1l0,0
		c0.1,0,0.1-0.1,0.2-0.1c0.2-0.2,0.4-0.4,0.5-0.7c0-0.1,0.1-0.2,0.1-0.3v0c0,0,0-0.1,0-0.1c0,0,0-0.1,0-0.1
		C20,16.6,19.5,16,18.9,15.8z M24.1,10.9c-0.3,0-0.6,0.3-0.6,0.6c0,0.3,0.3,0.6,0.6,0.6v0c0.3,0,0.6-0.3,0.6-0.6
		C24.7,11.2,24.5,10.9,24.1,10.9z M24.4,20.1L24.4,20.1C24.3,20,24.2,20,24.1,20c-0.2,0-0.4,0.1-0.5,0.3c-0.1,0.2-0.1,0.4,0,0.6
		c0.1,0.2,0.3,0.3,0.5,0.3c0.2,0,0.4-0.1,0.5-0.3c0,0,0,0,0,0C24.8,20.6,24.7,20.2,24.4,20.1z M24.4,20.1L24.4,20.1
		C24.3,20,24.2,20,24.1,20c-0.2,0-0.4,0.1-0.5,0.3c-0.1,0.2-0.1,0.4,0,0.6c0.1,0.2,0.3,0.3,0.5,0.3c0.2,0,0.4-0.1,0.5-0.3
		c0,0,0,0,0,0C24.8,20.6,24.7,20.2,24.4,20.1z M24.1,10.9c-0.3,0-0.6,0.3-0.6,0.6c0,0.3,0.3,0.6,0.6,0.6v0c0.3,0,0.6-0.3,0.6-0.6
		C24.7,11.2,24.5,10.9,24.1,10.9z M18.9,15.8l0-0.2c0-0.1,0-0.1,0-0.2c0,0,0,0,0-0.1c0-0.1,0-0.1-0.1-0.2v0c-0.2-0.4-0.4-0.8-0.7-1
		l0,0c-0.1,0-0.1-0.1-0.2-0.1l0,0c-0.1,0-0.1-0.1-0.2-0.1l0,0c-0.1,0-0.1-0.1-0.2-0.1l0,0c-0.1,0-0.1-0.1-0.2-0.1l0,0
		c-0.1,0-0.1,0-0.2-0.1h0c-0.1,0-0.2,0-0.2,0h0c-0.2,0-0.5,0-0.7,0c-0.2,0-0.3,0.1-0.5,0.1l-0.1,0c-0.1,0-0.2,0.1-0.2,0.1
		c0,0-0.1,0-0.1,0c0,0-0.1,0-0.1,0.1c0,0-0.1,0.1-0.1,0.1l0,0c-0.1,0-0.1,0.1-0.2,0.1l0,0c-0.1,0.1-0.1,0.1-0.2,0.2
		c-0.1,0-0.2,0-0.4,0c0,0-0.1,0-0.1,0c-0.7,0-1.3,0.4-1.6,1l0,0c0,0.1-0.1,0.1-0.1,0.2c0,0,0,0,0,0c0,0,0,0.1,0,0.2c0,0,0,0,0,0.1
		c0,0,0,0.1,0,0.2c0,0,0,0,0,0.1c0,0.1,0,0.1,0,0.2c0,0.1,0,0.1,0,0.2c0,0,0,0,0,0.1c0,0,0,0.1,0,0.1c0,0,0,0,0,0.1c0,0,0,0.1,0,0.1
		c0,0,0,0.1,0,0.1c0,0,0,0,0,0.1c0,0,0,0.1,0,0.1c0,0,0,0,0,0c0.1,0.3,0.4,0.6,0.7,0.8c0.1,0.1,0.3,0.2,0.5,0.2c0.1,0,0.1,0,0.2,0
		l0,0l0.2,0l0,0c0.1,0,0.1,0,0.2,0c0.3,0,0.5,0,0.8-0.2c0.1,0,0.1,0.1,0.2,0.1l0,0c0,0,0.1,0.1,0.2,0.1h0c0.2,0.1,0.5,0.2,0.8,0.2
		c0.4,0.1,0.7,0,1.1-0.1h0c0.1,0,0.2,0,0.3-0.1l0.3-0.1c0.3,0.2,0.6,0.3,0.9,0.3c0.1,0,0.1,0,0.2,0l0.1,0c0.1,0,0.2-0.1,0.4-0.1l0,0
		c0.1,0,0.1-0.1,0.2-0.1c0.2-0.2,0.4-0.4,0.5-0.7c0-0.1,0.1-0.2,0.1-0.3v0c0,0,0-0.1,0-0.1c0,0,0-0.1,0-0.1
		C20,16.6,19.5,16,18.9,15.8z M16.1,24.6c0,0-0.1,0-0.1,0c-0.3,0-0.5,0.2-0.6,0.5c0,0,0,0,0,0c0,0,0,0,0,0c0,0.3,0.2,0.6,0.6,0.6
		c0,0,0,0,0,0c0.3,0,0.6-0.2,0.6-0.5C16.7,24.9,16.5,24.6,16.1,24.6z M16,6.3C16,6.3,16,6.3,16,6.3c-0.4,0-0.6,0.3-0.6,0.6
		c0,0.3,0.3,0.6,0.6,0.6c0,0,0,0,0,0c0.3,0,0.6-0.3,0.6-0.6C16.6,6.5,16.4,6.3,16,6.3z M8.5,20.3C8.4,20.1,8.2,20,8,20
		c-0.3,0-0.6,0.3-0.6,0.6c0,0.3,0.3,0.6,0.6,0.6c0.3,0,0.6-0.3,0.6-0.6C8.6,20.5,8.6,20.4,8.5,20.3z M8.3,10.9
		c-0.3-0.2-0.7-0.1-0.8,0.2c0,0,0,0,0,0c-0.2,0.3,0,0.6,0.2,0.8C8,12.1,8.3,12,8.5,11.8c0,0,0,0,0,0C8.7,11.4,8.6,11.1,8.3,10.9z
		 M8.3,10.9c-0.3-0.2-0.7-0.1-0.8,0.2c0,0,0,0,0,0c-0.2,0.3,0,0.6,0.2,0.8C8,12.1,8.3,12,8.5,11.8c0,0,0,0,0,0
		C8.7,11.4,8.6,11.1,8.3,10.9z M8.5,20.3C8.4,20.1,8.2,20,8,20c-0.3,0-0.6,0.3-0.6,0.6c0,0.3,0.3,0.6,0.6,0.6c0.3,0,0.6-0.3,0.6-0.6
		C8.6,20.5,8.6,20.4,8.5,20.3z M16,6.3C16,6.3,16,6.3,16,6.3c-0.4,0-0.6,0.3-0.6,0.6c0,0.3,0.3,0.6,0.6,0.6c0,0,0,0,0,0
		c0.3,0,0.6-0.3,0.6-0.6C16.6,6.5,16.4,6.3,16,6.3z M16.1,24.6c0,0-0.1,0-0.1,0c-0.3,0-0.5,0.2-0.6,0.5c0,0,0,0,0,0c0,0,0,0,0,0
		c0,0.3,0.2,0.6,0.6,0.6c0,0,0,0,0,0c0.3,0,0.6-0.2,0.6-0.5C16.7,24.9,16.5,24.6,16.1,24.6z M18.9,15.8l0-0.2c0-0.1,0-0.1,0-0.2
		c0,0,0,0,0-0.1c0-0.1,0-0.1-0.1-0.2v0c-0.2-0.4-0.4-0.8-0.7-1l0,0c-0.1,0-0.1-0.1-0.2-0.1l0,0c-0.1,0-0.1-0.1-0.2-0.1l0,0
		c-0.1,0-0.1-0.1-0.2-0.1l0,0c-0.1,0-0.1-0.1-0.2-0.1l0,0c-0.1,0-0.1,0-0.2-0.1h0c-0.1,0-0.2,0-0.2,0h0c-0.2,0-0.5,0-0.7,0
		c-0.2,0-0.3,0.1-0.5,0.1l-0.1,0c-0.1,0-0.2,0.1-0.2,0.1c0,0-0.1,0-0.1,0c0,0-0.1,0-0.1,0.1c0,0-0.1,0.1-0.1,0.1l0,0
		c-0.1,0-0.1,0.1-0.2,0.1l0,0c-0.1,0.1-0.1,0.1-0.2,0.2c-0.1,0-0.2,0-0.4,0c0,0-0.1,0-0.1,0c-0.7,0-1.3,0.4-1.6,1l0,0
		c0,0.1-0.1,0.1-0.1,0.2c0,0,0,0,0,0c0,0,0,0.1,0,0.2c0,0,0,0,0,0.1c0,0,0,0.1,0,0.2c0,0,0,0,0,0.1c0,0.1,0,0.1,0,0.2
		c0,0.1,0,0.1,0,0.2c0,0,0,0,0,0.1c0,0,0,0.1,0,0.1c0,0,0,0,0,0.1c0,0,0,0.1,0,0.1c0,0,0,0.1,0,0.1c0,0,0,0,0,0.1c0,0,0,0.1,0,0.1
		c0,0,0,0,0,0c0.1,0.3,0.4,0.6,0.7,0.8c0.1,0.1,0.3,0.2,0.5,0.2c0.1,0,0.1,0,0.2,0l0,0l0.2,0l0,0c0.1,0,0.1,0,0.2,0
		c0.3,0,0.5,0,0.8-0.2c0.1,0,0.1,0.1,0.2,0.1l0,0c0,0,0.1,0.1,0.2,0.1h0c0.2,0.1,0.5,0.2,0.8,0.2c0.4,0.1,0.7,0,1.1-0.1h0
		c0.1,0,0.2,0,0.3-0.1l0.3-0.1c0.3,0.2,0.6,0.3,0.9,0.3c0.1,0,0.1,0,0.2,0l0.1,0c0.1,0,0.2-0.1,0.4-0.1l0,0c0.1,0,0.1-0.1,0.2-0.1
		c0.2-0.2,0.4-0.4,0.5-0.7c0-0.1,0.1-0.2,0.1-0.3v0c0,0,0-0.1,0-0.1c0,0,0-0.1,0-0.1C20,16.6,19.5,16,18.9,15.8z M24.1,10.9
		c-0.3,0-0.6,0.3-0.6,0.6c0,0.3,0.3,0.6,0.6,0.6v0c0.3,0,0.6-0.3,0.6-0.6C24.7,11.2,24.5,10.9,24.1,10.9z M24.4,20.1L24.4,20.1
		C24.3,20,24.2,20,24.1,20c-0.2,0-0.4,0.1-0.5,0.3c-0.1,0.2-0.1,0.4,0,0.6c0.1,0.2,0.3,0.3,0.5,0.3c0.2,0,0.4-0.1,0.5-0.3
		c0,0,0,0,0,0C24.8,20.6,24.7,20.2,24.4,20.1z M24.4,20.1L24.4,20.1C24.3,20,24.2,20,24.1,20c-0.2,0-0.4,0.1-0.5,0.3
		c-0.1,0.2-0.1,0.4,0,0.6c0.1,0.2,0.3,0.3,0.5,0.3c0.2,0,0.4-0.1,0.5-0.3c0,0,0,0,0,0C24.8,20.6,24.7,20.2,24.4,20.1z M24.1,10.9
		c-0.3,0-0.6,0.3-0.6,0.6c0,0.3,0.3,0.6,0.6,0.6v0c0.3,0,0.6-0.3,0.6-0.6C24.7,11.2,24.5,10.9,24.1,10.9z M18.9,15.8l0-0.2
		c0-0.1,0-0.1,0-0.2c0,0,0,0,0-0.1c0-0.1,0-0.1-0.1-0.2v0c-0.2-0.4-0.4-0.8-0.7-1l0,0c-0.1,0-0.1-0.1-0.2-0.1l0,0
		c-0.1,0-0.1-0.1-0.2-0.1l0,0c-0.1,0-0.1-0.1-0.2-0.1l0,0c-0.1,0-0.1-0.1-0.2-0.1l0,0c-0.1,0-0.1,0-0.2-0.1h0c-0.1,0-0.2,0-0.2,0h0
		c-0.2,0-0.5,0-0.7,0c-0.2,0-0.3,0.1-0.5,0.1l-0.1,0c-0.1,0-0.2,0.1-0.2,0.1c0,0-0.1,0-0.1,0c0,0-0.1,0-0.1,0.1c0,0-0.1,0.1-0.1,0.1
		l0,0c-0.1,0-0.1,0.1-0.2,0.1l0,0c-0.1,0.1-0.1,0.1-0.2,0.2c-0.1,0-0.2,0-0.4,0c0,0-0.1,0-0.1,0c-0.7,0-1.3,0.4-1.6,1l0,0
		c0,0.1-0.1,0.1-0.1,0.2c0,0,0,0,0,0c0,0,0,0.1,0,0.2c0,0,0,0,0,0.1c0,0,0,0.1,0,0.2c0,0,0,0,0,0.1c0,0.1,0,0.1,0,0.2
		c0,0.1,0,0.1,0,0.2c0,0,0,0,0,0.1c0,0,0,0.1,0,0.1c0,0,0,0,0,0.1c0,0,0,0.1,0,0.1c0,0,0,0.1,0,0.1c0,0,0,0,0,0.1c0,0,0,0.1,0,0.1
		c0,0,0,0,0,0c0.1,0.3,0.4,0.6,0.7,0.8c0.1,0.1,0.3,0.2,0.5,0.2c0.1,0,0.1,0,0.2,0l0,0l0.2,0l0,0c0.1,0,0.1,0,0.2,0
		c0.3,0,0.5,0,0.8-0.2c0.1,0,0.1,0.1,0.2,0.1l0,0c0,0,0.1,0.1,0.2,0.1h0c0.2,0.1,0.5,0.2,0.8,0.2c0.4,0.1,0.7,0,1.1-0.1h0
		c0.1,0,0.2,0,0.3-0.1l0.3-0.1c0.3,0.2,0.6,0.3,0.9,0.3c0.1,0,0.1,0,0.2,0l0.1,0c0.1,0,0.2-0.1,0.4-0.1l0,0c0.1,0,0.1-0.1,0.2-0.1
		c0.2-0.2,0.4-0.4,0.5-0.7c0-0.1,0.1-0.2,0.1-0.3v0c0,0,0-0.1,0-0.1c0,0,0-0.1,0-0.1C20,16.6,19.5,16,18.9,15.8z M16.1,24.6
		c0,0-0.1,0-0.1,0c-0.3,0-0.5,0.2-0.6,0.5c0,0,0,0,0,0c0,0,0,0,0,0c0,0.3,0.2,0.6,0.6,0.6c0,0,0,0,0,0c0.3,0,0.6-0.2,0.6-0.5
		C16.7,24.9,16.5,24.6,16.1,24.6z M16,6.3C16,6.3,16,6.3,16,6.3c-0.4,0-0.6,0.3-0.6,0.6c0,0.3,0.3,0.6,0.6,0.6c0,0,0,0,0,0
		c0.3,0,0.6-0.3,0.6-0.6C16.6,6.5,16.4,6.3,16,6.3z M8.5,20.3C8.4,20.1,8.2,20,8,20c-0.3,0-0.6,0.3-0.6,0.6c0,0.3,0.3,0.6,0.6,0.6
		c0.3,0,0.6-0.3,0.6-0.6C8.6,20.5,8.6,20.4,8.5,20.3z M8.3,10.9c-0.3-0.2-0.7-0.1-0.8,0.2c0,0,0,0,0,0c-0.2,0.3,0,0.6,0.2,0.8
		C8,12.1,8.3,12,8.5,11.8c0,0,0,0,0,0C8.7,11.4,8.6,11.1,8.3,10.9z M8.3,10.9c-0.3-0.2-0.7-0.1-0.8,0.2c0,0,0,0,0,0
		c-0.2,0.3,0,0.6,0.2,0.8C8,12.1,8.3,12,8.5,11.8c0,0,0,0,0,0C8.7,11.4,8.6,11.1,8.3,10.9z M8.5,20.3C8.4,20.1,8.2,20,8,20
		c-0.3,0-0.6,0.3-0.6,0.6c0,0.3,0.3,0.6,0.6,0.6c0.3,0,0.6-0.3,0.6-0.6C8.6,20.5,8.6,20.4,8.5,20.3z M16,6.3C16,6.3,16,6.3,16,6.3
		c-0.4,0-0.6,0.3-0.6,0.6c0,0.3,0.3,0.6,0.6,0.6c0,0,0,0,0,0c0.3,0,0.6-0.3,0.6-0.6C16.6,6.5,16.4,6.3,16,6.3z M16.1,24.6
		c0,0-0.1,0-0.1,0c-0.3,0-0.5,0.2-0.6,0.5c0,0,0,0,0,0c0,0,0,0,0,0c0,0.3,0.2,0.6,0.6,0.6c0,0,0,0,0,0c0.3,0,0.6-0.2,0.6-0.5
		C16.7,24.9,16.5,24.6,16.1,24.6z M18.9,15.8l0-0.2c0-0.1,0-0.1,0-0.2c0,0,0,0,0-0.1c0-0.1,0-0.1-0.1-0.2v0c-0.2-0.4-0.4-0.8-0.7-1
		l0,0c-0.1,0-0.1-0.1-0.2-0.1l0,0c-0.1,0-0.1-0.1-0.2-0.1l0,0c-0.1,0-0.1-0.1-0.2-0.1l0,0c-0.1,0-0.1-0.1-0.2-0.1l0,0
		c-0.1,0-0.1,0-0.2-0.1h0c-0.1,0-0.2,0-0.2,0h0c-0.2,0-0.5,0-0.7,0c-0.2,0-0.3,0.1-0.5,0.1l-0.1,0c-0.1,0-0.2,0.1-0.2,0.1
		c0,0-0.1,0-0.1,0c0,0-0.1,0-0.1,0.1c0,0-0.1,0.1-0.1,0.1l0,0c-0.1,0-0.1,0.1-0.2,0.1l0,0c-0.1,0.1-0.1,0.1-0.2,0.2
		c-0.1,0-0.2,0-0.4,0c0,0-0.1,0-0.1,0c-0.7,0-1.3,0.4-1.6,1l0,0c0,0.1-0.1,0.1-0.1,0.2c0,0,0,0,0,0c0,0,0,0.1,0,0.2c0,0,0,0,0,0.1
		c0,0,0,0.1,0,0.2c0,0,0,0,0,0.1c0,0.1,0,0.1,0,0.2c0,0.1,0,0.1,0,0.2c0,0,0,0,0,0.1c0,0,0,0.1,0,0.1c0,0,0,0,0,0.1c0,0,0,0.1,0,0.1
		c0,0,0,0.1,0,0.1c0,0,0,0,0,0.1c0,0,0,0.1,0,0.1c0,0,0,0,0,0c0.1,0.3,0.4,0.6,0.7,0.8c0.1,0.1,0.3,0.2,0.5,0.2c0.1,0,0.1,0,0.2,0
		l0,0l0.2,0l0,0c0.1,0,0.1,0,0.2,0c0.3,0,0.5,0,0.8-0.2c0.1,0,0.1,0.1,0.2,0.1l0,0c0,0,0.1,0.1,0.2,0.1h0c0.2,0.1,0.5,0.2,0.8,0.2
		c0.4,0.1,0.7,0,1.1-0.1h0c0.1,0,0.2,0,0.3-0.1l0.3-0.1c0.3,0.2,0.6,0.3,0.9,0.3c0.1,0,0.1,0,0.2,0l0.1,0c0.1,0,0.2-0.1,0.4-0.1l0,0
		c0.1,0,0.1-0.1,0.2-0.1c0.2-0.2,0.4-0.4,0.5-0.7c0-0.1,0.1-0.2,0.1-0.3v0c0,0,0-0.1,0-0.1c0,0,0-0.1,0-0.1
		C20,16.6,19.5,16,18.9,15.8z M24.1,10.9c-0.3,0-0.6,0.3-0.6,0.6c0,0.3,0.3,0.6,0.6,0.6v0c0.3,0,0.6-0.3,0.6-0.6
		C24.7,11.2,24.5,10.9,24.1,10.9z M24.4,20.1L24.4,20.1C24.3,20,24.2,20,24.1,20c-0.2,0-0.4,0.1-0.5,0.3c-0.1,0.2-0.1,0.4,0,0.6
		c0.1,0.2,0.3,0.3,0.5,0.3c0.2,0,0.4-0.1,0.5-0.3c0,0,0,0,0,0C24.8,20.6,24.7,20.2,24.4,20.1z M8.5,20.3C8.4,20.1,8.2,20,8,20
		c-0.3,0-0.6,0.3-0.6,0.6c0,0.3,0.3,0.6,0.6,0.6c0.3,0,0.6-0.3,0.6-0.6C8.6,20.5,8.6,20.4,8.5,20.3z M16,6.3C16,6.3,16,6.3,16,6.3
		c-0.4,0-0.6,0.3-0.6,0.6c0,0.3,0.3,0.6,0.6,0.6c0,0,0,0,0,0c0.3,0,0.6-0.3,0.6-0.6C16.6,6.5,16.4,6.3,16,6.3z M24.1,10.9
		c-0.3,0-0.6,0.3-0.6,0.6c0,0.3,0.3,0.6,0.6,0.6v0c0.3,0,0.6-0.3,0.6-0.6C24.7,11.2,24.5,10.9,24.1,10.9z M8.3,10.9
		c-0.3-0.2-0.7-0.1-0.8,0.2c0,0,0,0,0,0c-0.2,0.3,0,0.6,0.2,0.8C8,12.1,8.3,12,8.5,11.8c0,0,0,0,0,0C8.7,11.4,8.6,11.1,8.3,10.9z
		 M24.4,20.1L24.4,20.1C24.3,20,24.2,20,24.1,20c-0.2,0-0.4,0.1-0.5,0.3c-0.1,0.2-0.1,0.4,0,0.6c0.1,0.2,0.3,0.3,0.5,0.3
		c0.2,0,0.4-0.1,0.5-0.3c0,0,0,0,0,0C24.8,20.6,24.7,20.2,24.4,20.1z M16.1,24.6c0,0-0.1,0-0.1,0c-0.3,0-0.5,0.2-0.6,0.5
		c0,0,0,0,0,0c0,0,0,0,0,0c0,0.3,0.2,0.6,0.6,0.6c0,0,0,0,0,0c0.3,0,0.6-0.2,0.6-0.5C16.7,24.9,16.5,24.6,16.1,24.6z M18.9,15.8
		l0-0.2c0-0.1,0-0.1,0-0.2c0,0,0,0,0-0.1c0-0.1,0-0.1-0.1-0.2v0c-0.2-0.4-0.4-0.8-0.7-1l0,0c-0.1,0-0.1-0.1-0.2-0.1l0,0
		c-0.1,0-0.1-0.1-0.2-0.1l0,0c-0.1,0-0.1-0.1-0.2-0.1l0,0c-0.1,0-0.1-0.1-0.2-0.1l0,0c-0.1,0-0.1,0-0.2-0.1h0c-0.1,0-0.2,0-0.2,0h0
		c-0.2,0-0.5,0-0.7,0c-0.2,0-0.3,0.1-0.5,0.1l-0.1,0c-0.1,0-0.2,0.1-0.2,0.1c0,0-0.1,0-0.1,0c0,0-0.1,0-0.1,0.1c0,0-0.1,0.1-0.1,0.1
		l0,0c-0.1,0-0.1,0.1-0.2,0.1l0,0c-0.1,0.1-0.1,0.1-0.2,0.2c-0.1,0-0.2,0-0.4,0c0,0-0.1,0-0.1,0c-0.7,0-1.3,0.4-1.6,1l0,0
		c0,0.1-0.1,0.1-0.1,0.2c0,0,0,0,0,0c0,0,0,0.1,0,0.2c0,0,0,0,0,0.1c0,0,0,0.1,0,0.2c0,0,0,0,0,0.1c0,0.1,0,0.1,0,0.2
		c0,0.1,0,0.1,0,0.2c0,0,0,0,0,0.1c0,0,0,0.1,0,0.1c0,0,0,0,0,0.1c0,0,0,0.1,0,0.1c0,0,0,0.1,0,0.1c0,0,0,0,0,0.1c0,0,0,0.1,0,0.1
		c0,0,0,0,0,0c0.1,0.3,0.4,0.6,0.7,0.8c0.1,0.1,0.3,0.2,0.5,0.2c0.1,0,0.1,0,0.2,0l0,0l0.2,0l0,0c0.1,0,0.1,0,0.2,0
		c0.3,0,0.5,0,0.8-0.2c0.1,0,0.1,0.1,0.2,0.1l0,0c0,0,0.1,0.1,0.2,0.1h0c0.2,0.1,0.5,0.2,0.8,0.2c0.4,0.1,0.7,0,1.1-0.1h0
		c0.1,0,0.2,0,0.3-0.1l0.3-0.1c0.3,0.2,0.6,0.3,0.9,0.3c0.1,0,0.1,0,0.2,0l0.1,0c0.1,0,0.2-0.1,0.4-0.1l0,0c0.1,0,0.1-0.1,0.2-0.1
		c0.2-0.2,0.4-0.4,0.5-0.7c0-0.1,0.1-0.2,0.1-0.3v0c0,0,0-0.1,0-0.1c0,0,0-0.1,0-0.1C20,16.6,19.5,16,18.9,15.8z"/>
	<path class="st7" d="M24.8,19.4C24.8,19.4,24.8,19.4,24.8,19.4c-0.6-0.3-1.3-0.3-1.7,0.2l-2.3-1.3c0.6-1.1,0.2-2.5-0.9-3.2
		c-0.1-0.2-0.1-0.4-0.2-0.6l3.4-1.9c0.4,0.3,0.9,0.5,1.3,0.4c0.8-0.2,1.3-0.9,1.1-1.7c0,0,0,0,0,0c-0.2-0.8-1-1.3-1.8-1.1
		c-0.8,0.2-1.3,0.9-1.1,1.7c0,0,0,0,0,0l-3.5,1.9c-0.7-0.8-2.8-1.3-2.8-1.3V8.2c0.4-0.1,0.8-0.5,0.9-0.9c0.2-0.7-0.2-1.4-0.9-1.7
		c0,0,0,0,0,0c-0.1,0-0.3-0.1-0.4-0.1v0.7c0,0,0,0,0,0c0.3,0,0.6,0.3,0.6,0.6c0,0.3-0.3,0.6-0.6,0.6c0,0,0,0,0,0v6.1
		c0.2,0,0.5,0,0.7,0h0c0.1,0,0.2,0,0.2,0h0c0.1,0,0.1,0,0.2,0.1l0,0c0.1,0,0.1,0.1,0.2,0.1l0,0c0.1,0,0.1,0.1,0.2,0.1l0,0
		c0.1,0,0.1,0.1,0.2,0.1l0,0c0.1,0,0.1,0.1,0.2,0.1l0,0c0.3,0.3,0.6,0.6,0.7,1v0c0,0.1,0,0.1,0.1,0.2c0,0,0,0,0,0.1c0,0,0,0.1,0,0.2
		l0,0.2c0.6,0.2,1,0.7,1,1.4c0,0,0,0.1,0,0.1c0,0,0,0.1,0,0.1v0c0,0.1,0,0.2-0.1,0.3c-0.1,0.3-0.3,0.5-0.5,0.7
		c-0.1,0-0.1,0.1-0.2,0.1l0,0c-0.1,0.1-0.2,0.1-0.4,0.1l-0.1,0c-0.1,0-0.1,0-0.2,0c-0.3,0-0.6-0.1-0.9-0.3l-0.3,0.1
		c-0.1,0-0.2,0.1-0.3,0.1h0c-0.4,0.1-0.7,0.1-1.1,0.1v6c0,0,0.1,0,0.1,0c0.3,0,0.6,0.3,0.5,0.7c-0.1,0.3-0.3,0.5-0.6,0.5
		c0,0,0,0,0,0v0.9c0.7,0,1.3-0.4,1.5-1.1c0.2-0.8-0.2-1.6-1-1.9c0,0,0,0,0,0v-4c0,0,0.7-0.1,1.1-0.2c1,0.4,2.1,0.2,2.8-0.6l2.3,1.3
		c-0.1,0.6,0.1,1.3,0.7,1.6c0.7,0.4,1.6,0.2,2-0.5v0C25.7,20.7,25.5,19.8,24.8,19.4z M24.1,10.9c0.3,0,0.6,0.3,0.6,0.6
		c0,0.3-0.3,0.6-0.6,0.6v0c-0.3,0-0.6-0.3-0.6-0.6C23.5,11.2,23.8,10.9,24.1,10.9z M24.6,20.9C24.6,20.9,24.6,20.9,24.6,20.9
		c-0.1,0.2-0.3,0.3-0.5,0.3c-0.2,0-0.4-0.1-0.5-0.3c-0.1-0.2-0.1-0.4,0-0.6c0.1-0.2,0.3-0.3,0.5-0.3c0.1,0,0.2,0,0.3,0.1v0
		C24.7,20.2,24.8,20.6,24.6,20.9z"/>
	<path class="st8" d="M16,6.3V5.5c-0.6,0-1.1,0.4-1.3,0.9c-0.2,0.7,0.2,1.4,0.9,1.7c0,0,0,0,0,0v4.4c0,0-1.2,0.4-1.6,0.7
		c-0.5,0-1,0.1-1.4,0.4l-3.3-1.8c0.1-0.5,0-1-0.4-1.3C8.5,9.9,7.6,9.9,7,10.4c-0.6,0.5-0.6,1.4-0.1,2c0,0,0,0,0,0
		C7.5,13,8.4,13.1,9,12.5l2.9,1.6c-1.1,1-1.2,2.7-0.3,3.9L9,19.5c-0.4-0.3-0.9-0.5-1.3-0.3c-0.8,0.2-1.3,0.9-1.1,1.7c0,0,0,0,0,0
		c0.2,0.8,1,1.3,1.8,1.1c0.8-0.2,1.3-0.9,1.1-1.7c0,0,0,0,0,0l2.8-1.6c0.7,0.6,1.6,0.8,2.5,0.6c0.3,0.1,0.6,0.2,0.8,0.3v4.1
		c-0.4,0.1-0.7,0.4-0.9,0.8c-0.4,0.7-0.1,1.6,0.7,2c0,0,0,0,0,0c0.1,0,0.1,0.1,0.2,0.1c0,0,0,0,0,0c0.2,0,0.3,0.1,0.5,0.1v-0.9
		c-0.3,0-0.6-0.3-0.6-0.6c0,0,0,0,0,0c0,0,0,0,0,0c0-0.3,0.3-0.5,0.6-0.5v-6c-0.3,0-0.5-0.1-0.8-0.2h0c-0.1,0-0.1-0.1-0.2-0.1l0,0
		c-0.1,0-0.1-0.1-0.2-0.1c-0.2,0.1-0.5,0.2-0.8,0.2c-0.1,0-0.1,0-0.2,0l0,0l-0.2,0l0,0c-0.1,0-0.1,0-0.2,0C13.3,18.1,13.2,18,13,18
		c-0.3-0.2-0.5-0.5-0.7-0.8c0,0,0,0,0,0c0,0,0-0.1,0-0.1c0,0,0,0,0-0.1c0,0,0-0.1,0-0.1c0,0,0-0.1,0-0.1c0,0,0,0,0-0.1
		c0,0,0-0.1,0-0.1c0,0,0,0,0-0.1c0-0.1,0-0.1,0-0.2c0-0.1,0-0.1,0-0.2c0,0,0,0,0-0.1c0-0.1,0-0.1,0-0.2c0,0,0,0,0-0.1
		c0-0.1,0-0.1,0-0.2c0,0,0,0,0,0c0-0.1,0-0.1,0.1-0.2l0,0c0.3-0.6,1-1,1.6-1c0,0,0.1,0,0.1,0c0.1,0,0.2,0,0.4,0
		c0.1-0.1,0.1-0.1,0.2-0.2l0,0c0.1,0,0.1-0.1,0.2-0.1l0,0c0,0,0.1-0.1,0.1-0.1c0,0,0.1-0.1,0.1-0.1c0,0,0.1,0,0.1,0
		c0.1,0,0.2-0.1,0.2-0.1l0.1,0c0.2-0.1,0.3-0.1,0.5-0.1V7.5c-0.3,0-0.6-0.3-0.6-0.6C15.4,6.6,15.7,6.3,16,6.3z M8.5,11.7
		C8.5,11.7,8.5,11.7,8.5,11.7C8.3,12,8,12.1,7.7,12c-0.3-0.2-0.4-0.5-0.2-0.8c0,0,0,0,0,0c0.2-0.3,0.5-0.4,0.8-0.2
		C8.6,11.1,8.7,11.4,8.5,11.7z M8,21.2c-0.3,0-0.6-0.3-0.6-0.6C7.4,20.2,7.6,20,8,20c0.2,0,0.4,0.1,0.5,0.3c0.1,0.1,0.1,0.2,0.1,0.3
		C8.6,20.9,8.3,21.2,8,21.2z"/>
</g>
<line class="st0" x1="256" y1="88.5" x2="256" y2="80"/>
<line class="st0" x1="256" y1="119.6" x2="256" y2="100.4"/>
<line class="st0" x1="256" y1="297.2" x2="256" y2="217"/>
<line class="st0" x1="256" y1="412.2" x2="256" y2="393.1"/>
<line class="st0" x1="256" y1="432" x2="256" y2="426"/>
</svg>
