<?xml version="1.0" encoding="utf-8"?>
<!-- Generator: Adobe Illustrator 25.4.1, SVG Export Plug-In . SVG Version: 6.00 Build 0)  -->
<svg version="1.1" id="Layer_1" xmlns:svg="http://www.w3.org/2000/svg"
	 xmlns="http://www.w3.org/2000/svg" xmlns:xlink="http://www.w3.org/1999/xlink" x="0px" y="0px" viewBox="0 0 512 512"
	 style="enable-background:new 0 0 512 512;" xml:space="preserve">
<style type="text/css">
	.st0{fill:none;}
	.st1{fill:#E6EAEA;}
	.st2{fill:#FD6A33;}
	.st3{fill:#FF8C29;}
	.st4{fill:#365558;}
	.st5{fill:#0295AA;}
	.st6{fill:#CDD4D5;}
	.st7{fill:url(#SVGID_1_);}
	.st8{fill:url(#New_Pattern_Swatch_2);}
	.st9{fill:url(#SVGID_00000098900893452528412890000013022952348003181455_);}
	.st10{fill:url(#New_Pattern_Swatch_3);}
	.st11{fill:url(#SVGID_00000175320915430845323870000002155393852868135346_);}
	.st12{fill:url(#SVGID_00000090981929433512166710000017904402626929774008_);}
	.st13{fill:url(#SVGID_00000121258598647640536530000017909250596123434371_);}
	.st14{fill:url(#New_Pattern_Swatch_5);}
	.st15{fill:url(#New_Pattern_Swatch_6);}
	.st16{fill:#0E0F23;}
	.st17{fill-rule:evenodd;clip-rule:evenodd;fill:url(#New_Pattern_Swatch_10);}
	.st18{fill-rule:evenodd;clip-rule:evenodd;fill:url(#New_Pattern_Swatch_9);}
	.st19{fill-rule:evenodd;clip-rule:evenodd;fill:url(#New_Pattern_Swatch_2);}
	.st20{fill-rule:evenodd;clip-rule:evenodd;fill:url(#New_Pattern_Swatch_3);}
	.st21{fill:#FFFFFF;}
	.st22{fill:url(#New_Pattern_Swatch_9);}
</style>
<pattern  y="512" width="128" height="128" patternUnits="userSpaceOnUse" id="New_Pattern_Swatch_10" viewBox="0 -128 128 128" style="overflow:visible;">
	<g>
		<rect y="-128" class="st0" width="128" height="128"/>
		<rect y="-128" class="st1" width="128" height="128"/>
	</g>
</pattern>
<pattern  y="512" width="128" height="128" patternUnits="userSpaceOnUse" id="New_Pattern_Swatch_2" viewBox="0 -128 128 128" style="overflow:visible;">
	<g>
		<rect y="-128" class="st0" width="128" height="128"/>
		<rect y="-128" class="st2" width="128" height="128"/>
	</g>
</pattern>
<pattern  y="512" width="128" height="128" patternUnits="userSpaceOnUse" id="New_Pattern_Swatch_3" viewBox="0 -128 128 128" style="overflow:visible;">
	<g>
		<rect y="-128" class="st0" width="128" height="128"/>
		<rect y="-128" class="st3" width="128" height="128"/>
	</g>
</pattern>
<pattern  y="512" width="128" height="128" patternUnits="userSpaceOnUse" id="New_Pattern_Swatch_5" viewBox="0 -128 128 128" style="overflow:visible;">
	<g>
		<rect y="-128" class="st0" width="128" height="128"/>
		<rect y="-128" class="st4" width="128" height="128"/>
	</g>
</pattern>
<pattern  y="512" width="128" height="128" patternUnits="userSpaceOnUse" id="New_Pattern_Swatch_6" viewBox="0 -128 128 128" style="overflow:visible;">
	<g>
		<rect y="-128" class="st0" width="128" height="128"/>
		<rect y="-128" class="st5" width="128" height="128"/>
	</g>
</pattern>
<pattern  y="512" width="128" height="128" patternUnits="userSpaceOnUse" id="New_Pattern_Swatch_9" viewBox="0 -128 128 128" style="overflow:visible;">
	<g>
		<rect y="-128" class="st0" width="128" height="128"/>
		<rect y="-128" class="st6" width="128" height="128"/>
	</g>
</pattern>
<linearGradient id="SVGID_1_" gradientUnits="userSpaceOnUse" x1="426.8993" y1="350.1859" x2="431.0993" y2="364.6082">
	<stop  offset="0" style="stop-color:#03B8FF"/>
	<stop  offset="1" style="stop-color:#FA52A0"/>
</linearGradient>
<path class="st7" d="M460.7,364.5c0,2.3-2.1,4.7-4.3,4.7c-15,2.3-34.2,0-51.3-2.3c-2.1,0-4.3-2.3-4.3-4.7c0-2.3,2.1-4.7,4.3-4.7
	c17.1,2.3,34.2,4.7,51.3,2.3C458.5,359.8,460.7,362.2,460.7,364.5z"/>
<path class="st8" d="M105.7,29.4L7.3,185.3l0.6,0.4c0.5-0.9,1-1.8,1.6-2.8c18.1-28.3,59-35.8,109.7-24.1
	c-6.9-12.2-12.9-24.4-17.7-36.4c0-2.3,0-2.3,2.1-4.7c2.1-2.3,4.3,0,4.3,2.3c5.7,13.5,12.8,27.4,21.2,41.2h0c2,0.5,4,1.1,6.1,1.7
	C99.5,110.6,87,60.6,105.7,29.4z"/>
<linearGradient id="SVGID_00000145754266592864776160000008471496518175495300_" gradientUnits="userSpaceOnUse" x1="142.8406" y1="99.1305" x2="176.2914" y2="213.9964">
	<stop  offset="0" style="stop-color:#03B8FF"/>
	<stop  offset="1" style="stop-color:#FA52A0"/>
</linearGradient>
<path style="fill:url(#SVGID_00000145754266592864776160000008471496518175495300_);" d="M244.7,283.1c0,2.3,2.1,4.7,0,7
	c-2.1,0-4.3,2.3-6.4,0c-50.9-36.9-92.4-84.2-119.2-131.2c-6.9-12.2-12.9-24.4-17.7-36.4c0-2.3,0-2.3,2.1-4.7c2.1-2.3,4.3,0,4.3,2.3
	c5.7,13.5,12.8,27.4,21.2,41.2h0C155.3,204.6,194.5,247.8,244.7,283.1z"/>
<path class="st10" d="M390.3,348.2c-1.4,2.3-2.8,4.4-4,6.4c-2-0.7-4.2-1.4-6.5-2.1c-1.9-2.9-3.8-5.9-5.8-8.8
	C379.6,345.4,385,346.9,390.3,348.2z"/>
<linearGradient id="SVGID_00000052820694479516466050000010856214240467932582_" gradientUnits="userSpaceOnUse" x1="373.2419" y1="345.0416" x2="376.4834" y2="356.1728">
	<stop  offset="0" style="stop-color:#03B8FF"/>
	<stop  offset="1" style="stop-color:#FA52A0"/>
</linearGradient>
<path style="fill:url(#SVGID_00000052820694479516466050000010856214240467932582_);" d="M390.1,359.8c0,2.3-2.1,2.3-4.3,2.3
	c0,0,0,0-0.1,0c-1.2-0.4-2.5-0.9-3.8-1.3c-5.7-1.9-12.3-3.8-17.5-5.6c-2.1,0-2.1-2.3-2.1-4.7c0-2.3,2.1-2.3,4.3-2.3
	c4,1.4,8.7,2.9,13.3,4.3c2.2,0.7,4.4,1.4,6.5,2.1c0.6,0.2,1.1,0.4,1.7,0.6C390.1,355.2,390.1,357.5,390.1,359.8z"/>
<path class="st8" d="M158.6,171.2c-8-3.1-15.9-5.8-23.5-8.1C99.5,110.6,87,60.6,105.7,29.4l15.2,11.3c-0.1,0.1-0.2,0.2-0.2,0.3
	C101.9,70.2,118.4,119.5,158.6,171.2z"/>
<path class="st8" d="M256,18v17.8c-62.4-25.7-115.1-25.7-135.1,4.9l-15.2-11.3C128.4-6.2,187.1-8.8,256,18z"/>
<path class="st10" d="M397.8,335.2c-2.7,5-5.2,9.2-7.5,13c-5.3-1.3-10.8-2.8-16.3-4.5c-4.6-6.8-9.6-13.6-14.9-20.5
	C372.6,328.5,385.6,332.5,397.8,335.2z"/>
<path class="st10" d="M503.5,324.9c10.7-20.9,10.7-46.5,0-76.8c-6.5-2.2-12.7-3.3-18.6-3.5c-19.8-46.6-66.6-102.3-129-150
	C322.1,68.7,287.8,49,256,35.9V18c34.7,13.5,71.9,34.5,108.4,62.6C475.6,159.7,535.5,271.4,503.5,324.9z"/>
<path class="st8" d="M174.9,310.8c-9.4,7.3-20.7,18.6-35,35.1c-17.8,21.5-35.7,31.1-50.1,34.3c-71.1-71.5-106.7-148.7-82-194.4
	L174.9,310.8z"/>
<path class="st8" d="M256,282.2v59.1c-22-29.5-36.8-41.9-49.8-41.9c-8.7-1.4-18.2,1.2-31.3,11.5L7.8,185.8c0.5-0.9,1-1.8,1.6-2.8
	c18.1-28.3,59-35.8,109.7-24.1c26.7,47,68.2,94.2,119.2,131.2c2.1,2.3,4.3,0,6.4,0c2.1-2.3,0-4.6,0-7
	c-50.2-35.2-89.4-78.5-115.6-121.7c2,0.5,4,1.1,6.1,1.7c25.6,37.7,63.1,76.6,109.6,110.6C248.4,276.6,252.2,279.5,256,282.2z"/>
<linearGradient id="SVGID_00000029021011070114002860000004923679754352675215_" gradientUnits="userSpaceOnUse" x1="147.6996" y1="103.5838" x2="179.6011" y2="213.1275">
	<stop  offset="0" style="stop-color:#03B8FF"/>
	<stop  offset="1" style="stop-color:#FA52A0"/>
</linearGradient>
<path style="fill:url(#SVGID_00000029021011070114002860000004923679754352675215_);" d="M244.7,290c-2.1,0-4.3,2.3-6.4,0
	c-50.9-36.9-92.4-84.2-119.2-131.2c3.3,0.8,6.6,1.6,9.9,2.5h0c26.3,43.2,65.4,86.4,115.6,121.7C244.7,285.4,246.8,287.7,244.7,290z"
	/>
<path class="st8" d="M256,264.2v18c-3.8-2.8-7.6-5.6-11.3-8.5c-46.5-34-84-73-109.6-110.6c7.7,2.3,15.5,5,23.5,8.1
	c24,30.7,56.3,62.3,94.6,91C254.2,262.8,255.1,263.5,256,264.2z"/>
<path class="st10" d="M381.9,360.8c-6.3,8.4-12,13.4-19.6,19.9c-2.1,2.3-4.3,2.3-6.4,4.7c-23.5,20.9-62,9.3-89.8-30.2
	c-3.5-5-6.9-9.6-10.1-13.9v-59.1c40.3,29.3,81.2,50,118,61.5c2,3,3.9,5.9,5.8,8.8c-4.6-1.4-9.3-2.9-13.3-4.3c-2.1,0-4.3,0-4.3,2.3
	c0,2.3,0,4.7,2.1,4.7C369.6,357.1,376.2,359,381.9,360.8z"/>
<path class="st10" d="M374,343.7c-36.9-11.5-77.7-32.2-118-61.5v-18c35,26.4,70.5,46.3,103.1,59C364.4,330.1,369.4,336.9,374,343.7z
	"/>
<linearGradient id="SVGID_00000109725407328480880870000013515005495825721487_" gradientUnits="userSpaceOnUse" x1="369.2823" y1="341.2221" x2="373.1042" y2="354.3455">
	<stop  offset="0" style="stop-color:#03B8FF"/>
	<stop  offset="1" style="stop-color:#FA52A0"/>
</linearGradient>
<path style="fill:url(#SVGID_00000109725407328480880870000013515005495825721487_);" d="M385.7,362.2c-1.2-0.4-2.5-0.9-3.8-1.3
	c-5.7-1.9-12.3-3.8-17.5-5.6c-2.1,0-2.1-2.3-2.1-4.7c0-2.3,2.1-2.3,4.3-2.3c4,1.4,8.7,2.9,13.3,4.3c1.3,2,2.5,4,3.8,6.1
	C384.3,359.8,385,361,385.7,362.2z"/>
<path class="st14" d="M256,371.6v121.2c-35-13.5-72.7-34.7-109.7-63.1c-20.6-15.8-39.6-32.5-56.5-49.5c14.4-3.1,32.2-12.7,50.1-34.3
	c14.3-16.5,25.6-27.8,35-35.1L256,371.6z"/>
<path class="st14" d="M256,341.3v30.3l-81.1-60.8c13.1-10.2,22.6-12.8,31.3-11.5C219.2,299.3,234,311.8,256,341.3z"/>
<path class="st15" d="M404,482.4c-23.3,33.9-80.7,36.3-148,10.3V371.6L404,482.4z"/>
<path class="st15" d="M405.1,480.8c-0.3,0.5-0.7,1-1,1.6L256,371.6v-30.3c3.2,4.3,6.5,8.9,10.1,13.9c27.8,39.5,66.3,51.2,89.8,30.2
	c2.1-2.3,4.3-2.3,6.4-4.7c7.7-6.5,13.3-11.5,19.6-19.9c1.3,0.4,2.6,0.9,3.8,1.3C413.4,409.2,421.9,452.8,405.1,480.8z"/>
<path class="st15" d="M390.3,348.2c-1.4,2.3-2.8,4.4-4,6.4c0.6,0.2,1.1,0.4,1.7,0.6c2.1,0,2.1,2.3,2.1,4.6c0,2.3-2.1,2.3-4.3,2.3
	c0,0,0,0-0.1,0c27.7,47.1,36.2,90.6,19.3,118.7c-0.3,0.5-0.7,1-1,1.6l1,0.8l98.4-158.2C484.9,353.9,442.6,361.1,390.3,348.2z
	 M456.4,369.2c-15,2.3-34.2,0-51.3-2.3c-2.1,0-4.3-2.3-4.3-4.7c0-2.3,2.1-4.7,4.3-4.7c17.1,2.3,34.2,4.7,51.3,2.3
	c2.1,0,4.3,2.3,4.3,4.7C460.7,366.8,458.5,369.2,456.4,369.2z"/>
<path class="st16" d="M385.7,362.2c-1.2-0.4-2.5-0.9-3.8-1.3c0.5-0.7,1.1-1.5,1.7-2.3c0.9-1.2,1.8-2.5,2.7-4
	c0.6,0.2,1.1,0.4,1.7,0.6c2.1,0,2.1,2.3,2.1,4.6C390.1,362.2,388,362.2,385.7,362.2C385.8,362.2,385.8,362.2,385.7,362.2z"/>
<path class="st16" d="M460.7,364.5c0,2.3-2.1,4.7-4.3,4.7c-15,2.3-34.2,0-51.3-2.3c-2.1,0-4.3-2.3-4.3-4.7c0-2.3,2.1-4.7,4.3-4.7
	c17.1,2.3,34.2,4.7,51.3,2.3C458.5,359.8,460.7,362.2,460.7,364.5z"/>
<path class="st15" d="M503.5,324.9c-18.5,29-60.9,36.1-113.1,23.3c2.3-3.8,4.7-8,7.5-13c42.3,9.4,75.8,3.6,90.7-19.6
	c0.2-0.4,0.5-0.9,0.7-1.3L503.5,324.9z"/>
<path class="st15" d="M503.5,324.9l-14.2-10.6c9.7-17.5,7.5-42-4.3-69.7c5.9,0.2,12.1,1.3,18.6,3.5
	C514.1,278.4,514.1,304,503.5,324.9z"/>
<path class="st17" d="M489.2,314.4l-57.7-42.9c10.6-13.6,29.4-27.7,53.4-26.9C496.7,272.3,498.9,296.8,489.2,314.4z"/>
<path class="st17" d="M489.2,314.4c-0.2,0.4-0.5,0.9-0.7,1.3c-14.9,23.2-48.4,29-90.7,19.6c6.8-12.4,15.2-29,26.5-52.2
	c1.6-3.6,4-7.5,7.2-11.6L489.2,314.4z"/>
<path class="st17" d="M359.1,323.2c-32.6-12.7-68.1-32.6-103.1-59v-39.1c4.1,2.9,8.1,6,12.2,9.1C304.5,262,335.3,292.7,359.1,323.2z
	"/>
<path class="st17" d="M431.5,271.5c-3.1,4-5.5,8-7.2,11.6c-11.3,23.1-19.7,39.8-26.5,52.2c-12.2-2.7-25.2-6.8-38.7-12
	c-23.8-30.5-54.6-61.2-90.9-89c-4.1-3.1-8.1-6.2-12.2-9.1v-22.3c6.4,6,13.4,11.8,20.8,17.4c51.3,37.2,102.7,48.9,117.6,25.6
	c0.3-0.4,0.5-0.9,0.8-1.3L431.5,271.5z"/>
<path class="st17" d="M484.9,244.6c-24-0.8-42.8,13.2-53.4,26.9l-36.3-27c13.1-23.8-16.7-71.5-65-108
	c-26.4-19.1-52.8-31.5-74.2-35.9V35.9c31.8,13.1,66.1,32.9,99.9,58.7C418.3,142.3,465.1,198,484.9,244.6z"/>
<path class="st18" d="M256,35.9v64.8c-19.5-4-34.9-1.3-42.5,8.9l-92.6-68.8C140.9,10.2,193.6,10.1,256,35.9z"/>
<path class="st18" d="M256,202.8v22.3c-33-23.8-66.2-41.9-97.4-53.9c-40.2-51.6-56.8-100.9-38-130.1c0.1-0.1,0.2-0.2,0.2-0.3
	l92.6,68.8c-0.3,0.4-0.6,0.9-0.9,1.3C199.9,130.6,219.6,168.9,256,202.8z"/>
<path class="st19" d="M256,100.6v40.5l-42.5-31.6C221.1,99.3,236.5,96.7,256,100.6z"/>
<path class="st19" d="M256,141.1v61.7c-36.4-33.9-56.1-72.2-43.4-92c0.3-0.5,0.6-0.9,0.9-1.3L256,141.1z"/>
<path class="st20" d="M395.2,244.5c-0.2,0.5-0.5,0.9-0.8,1.3c-15,23.3-66.3,11.6-117.6-25.6c-7.4-5.6-14.3-11.4-20.8-17.4v-61.7
	L395.2,244.5z"/>
<path class="st20" d="M395.2,244.5L256,141.1v-40.5c21.4,4.3,47.8,16.7,74.2,35.9C378.5,173,408.2,220.7,395.2,244.5z"/>
<path class="st21" d="M244.7,290c-2.1,0-4.3,2.3-6.4,0c-50.9-36.9-92.4-84.2-119.2-131.2c-6.9-12.2-12.9-24.4-17.7-36.4
	c0-2.3,0-2.3,2.1-4.7c2.1-2.3,4.3,0,4.3,2.3c5.7,13.5,12.8,27.4,21.2,41.2h0c26.3,43.2,65.4,86.4,115.6,121.7
	C244.7,285.4,246.8,287.7,244.7,290z"/>
<path class="st21" d="M390.1,359.8c0,2.3-2.1,2.3-4.3,2.3c0,0,0,0-0.1,0c-1.2-0.4-2.5-0.9-3.8-1.3c-5.7-1.9-12.3-3.8-17.5-5.6
	c-2.1,0-2.1-2.3-2.1-4.7c0-2.3,2.1-2.3,4.3-2.3c4,1.4,8.7,2.9,13.3,4.3c2.2,0.7,4.4,1.4,6.5,2.1c0.6,0.2,1.1,0.4,1.7,0.6
	C390.1,355.2,390.1,357.5,390.1,359.8z"/>
<path class="st21" d="M460.7,364.5c0,2.3-2.1,4.7-4.3,4.7c-15,2.3-34.2,0-51.3-2.3c-2.1,0-4.3-2.3-4.3-4.7c0-2.3,2.1-4.7,4.3-4.7
	c17.1,2.3,34.2,4.7,51.3,2.3C458.5,359.8,460.7,362.2,460.7,364.5z"/>
<polyline class="st0" points="256,586 256,494 256,492.7 "/>
<path class="st22" d="M256,225.1v39.1c-0.9-0.7-1.8-1.4-2.8-2.1c-38.3-28.7-70.6-60.2-94.6-91C189.8,183.2,223,201.3,256,225.1z"/>
<line class="st0" x1="256" y1="18" x2="256" y2="-54"/>
<path class="st21" d="M100.2,111.1c-1.8,1.5-3.2-0.1-4.6-1.7c0,0,0-0.1,0-0.1c-0.5-1.2-1-2.4-1.5-3.7c-2.3-5.6-5.2-11.8-7.1-17
	c-1.4-1.6,0.4-3.1,2.1-4.7c1.8-1.5,3.2,0.1,4.6,1.7c1.5,3.9,3.5,8.5,5.4,12.9c0.9,2.2,1.8,4.3,2.6,6.3c0.2,0.5,0.4,1.1,0.6,1.6
	C103.7,108,102,109.5,100.2,111.1z"/>
</svg>
