<?xml version="1.0" encoding="UTF-8" standalone="no"?>
<svg
   width="512"
   height="512"
   viewBox="0 0 512 512"
   version="1.1"
   id="svg7779"
   xmlns="http://www.w3.org/2000/svg"
   xmlns:svg="http://www.w3.org/2000/svg">
  <defs
     id="defs7783" />
  <g
     fill="none"
     id="g7777"
     transform="scale(16)">
    <circle
       fill="#01c38d"
       cx="16"
       cy="16"
       r="16"
       id="circle7773" />
    <path
       d="m 18.503,5.5 -1.722,0.978 v 8.304 l 0.94,0.534 V 8.992 l 3.23,1.833 0.003,-10e-4 0.627,0.355 0.524,-0.295 v -0.5 L 17.722,7.9 V 7.036 l 0.781,-0.444 4.54,2.577 v 2.294 l -2.18,1.23 -0.073,-0.037 a 0.921,0.921 0 0 0 -0.408,-0.099 0.948,0.948 0 0 0 -0.94,0.953 c 0,0.525 0.421,0.953 0.94,0.953 a 0.94,0.94 0 0 0 0.93,-0.856 l 0.008,-0.082 2.2,-1.241 2.04,1.158 v 5.123 l -2.043,1.158 -8.298,-4.712 V 6.478 L 13.496,5.5 8.017,8.61 v 2.84 L 5.5,12.877 v 6.24 l 2.517,1.429 v 2.843 l 5.48,3.111 1.722,-0.978 V 17.2 l -0.94,-0.534 v 6.342 l -3.86,-2.187 -0.524,0.295 v 0.5 l 4.383,2.484 v 0.864 l -0.782,0.444 -4.539,-2.577 v -2.294 l 2.18,-1.229 0.073,0.036 c 0.133,0.065 0.27,0.098 0.408,0.098 0.519,0 0.94,-0.427 0.94,-0.952 a 0.948,0.948 0 0 0 -0.94,-0.953 0.94,0.94 0 0 0 -0.93,0.856 l -0.008,0.082 -2.2,1.241 -2.04,-1.158 v -5.123 l 2.043,-1.158 8.298,4.712 v 8.533 l 1.722,0.978 5.48,-3.11 V 20.55 L 26.5,19.123 v -6.24 L 23.983,11.455 V 8.611 Z m -9.546,3.67 4.54,-2.578 0.781,0.444 V 7.9 l -5.32,3.016 V 9.17 Z m 0.488,2.562 4.833,-2.74 v 5.484 z m 8.277,5.791 4.833,2.745 -4.833,2.74 z m 0,7.441 V 24.1 l 5.32,-3.016 v 1.747 l -4.539,2.577 z"
       fill="#ffffff"
       id="path7775" />
  </g>
</svg>
