<?xml version="1.0" encoding="utf-8"?>
<!-- Generator: Adobe Illustrator 25.4.1, SVG Export Plug-In . SVG Version: 6.00 Build 0)  -->
<svg version="1.1" id="svg7779" xmlns:svg="http://www.w3.org/2000/svg"
	 xmlns="http://www.w3.org/2000/svg" xmlns:xlink="http://www.w3.org/1999/xlink" x="0px" y="0px" viewBox="0 0 512 512"
	 style="enable-background:new 0 0 512 512;" xml:space="preserve">
<style type="text/css">
	.st0{fill:none;}
	.st1{fill:#E6EAEA;}
	.st2{fill:#365558;}
	.st3{fill:#0295AA;}
	.st4{fill:#CDD4D5;}
	.st5{fill:url(#New_Pattern_Swatch_5);}
	.st6{fill:url(#New_Pattern_Swatch_6);}
	.st7{fill:url(#New_Pattern_Swatch_10);}
	.st8{fill:url(#New_Pattern_Swatch_9);}
</style>
<pattern  y="512" width="128" height="128" patternUnits="userSpaceOnUse" id="New_Pattern_Swatch_10" viewBox="0 -128 128 128" style="overflow:visible;">
	<g>
		<rect y="-128" class="st0" width="128" height="128"/>
		<rect y="-128" class="st1" width="128" height="128"/>
	</g>
</pattern>
<pattern  y="512" width="128" height="128" patternUnits="userSpaceOnUse" id="New_Pattern_Swatch_5" viewBox="0 -128 128 128" style="overflow:visible;">
	<g>
		<rect y="-128" class="st0" width="128" height="128"/>
		<rect y="-128" class="st2" width="128" height="128"/>
	</g>
</pattern>
<pattern  y="512" width="128" height="128" patternUnits="userSpaceOnUse" id="New_Pattern_Swatch_6" viewBox="0 -128 128 128" style="overflow:visible;">
	<g>
		<rect y="-128" class="st0" width="128" height="128"/>
		<rect y="-128" class="st3" width="128" height="128"/>
	</g>
</pattern>
<pattern  y="512" width="128" height="128" patternUnits="userSpaceOnUse" id="New_Pattern_Swatch_9" viewBox="0 -128 128 128" style="overflow:visible;">
	<g>
		<rect y="-128" class="st0" width="128" height="128"/>
		<rect y="-128" class="st4" width="128" height="128"/>
	</g>
</pattern>
<g id="g7777" transform="scale(16)">
	<path class="st5" d="M15.2,15V6.5l-1.7-1L8,8.6v2.8l-2.5,1.4v6.2L8,20.5v2.8l5.5,3.1l1.7-1v-8.3l-0.9-0.5V23l-3.9-2.2l-0.5,0.3v0.5
		l4.4,2.5V25l-0.8,0.4L9,22.8v-2.3l2.2-1.2l0.1,0c0.1,0.1,0.3,0.1,0.4,0.1c0.5,0,0.9-0.4,0.9-1c0-0.5-0.4-0.9-0.9-1
		c-0.5,0-0.9,0.4-0.9,0.9l0,0.1l-2.2,1.2l-2-1.2v-5.1l2-1.2l7.5,4.3V32C7.2,32,0,24.8,0,16S7.2,0,16,0v15.5L15.2,15z"/>
	<path class="st6" d="M32,16c0,8.8-7.2,16-16,16V16.5l0.8,0.4v8.5l1.7,1l5.5-3.1v-2.8l2.5-1.4v-6.2L24,11.5V8.6l-5.5-3.1l-1.7,1v8.3
		l0.9,0.5V9l3.2,1.8l0,0l0.6,0.4l0.5-0.3v-0.5l-4.4-2.5V7l0.8-0.4L23,9.2v2.3l-2.2,1.2l-0.1,0c-0.1-0.1-0.3-0.1-0.4-0.1
		c-0.5,0-0.9,0.4-0.9,1c0,0.5,0.4,1,0.9,1c0.5,0,0.9-0.4,0.9-0.9l0-0.1l2.2-1.2l2,1.2v5.1l-2,1.2L16,15.5V0C24.8,0,32,7.2,32,16z"/>
	<path class="st7" d="M24,11.5V8.6l-5.5-3.1l-1.7,1v8.3l0.9,0.5V9l3.2,1.8l0,0l0.6,0.4l0.5-0.3v-0.5l-4.4-2.5V7l0.8-0.4L23,9.2v2.3
		l-2.2,1.2l-0.1,0c-0.1-0.1-0.3-0.1-0.4-0.1c-0.5,0-0.9,0.4-0.9,1c0,0.5,0.4,1,0.9,1c0.5,0,0.9-0.4,0.9-0.9l0-0.1l2.2-1.2l2,1.2v5.1
		l-2,1.2L16,15.5v1.1l0.8,0.4v8.5l1.7,1l5.5-3.1v-2.8l2.5-1.4v-6.2L24,11.5z M17.7,17.5l4.8,2.7L17.7,23V17.5z M23,22.8l-4.5,2.6
		L17.7,25v-0.9l5.3-3V22.8z"/>
	<path class="st8" d="M8.5,12.3l7.5,4.3v-1.1L15.2,15V6.5l-1.7-1L8,8.6v2.8l-2.5,1.4v6.2L8,20.5v2.8l5.5,3.1l1.7-1v-8.3l-0.9-0.5V23
		l-3.9-2.2l-0.5,0.3v0.5l4.4,2.5V25l-0.8,0.4L9,22.8v-2.3l2.2-1.2l0.1,0c0.1,0.1,0.3,0.1,0.4,0.1c0.5,0,0.9-0.4,0.9-1
		c0-0.5-0.4-0.9-0.9-1c-0.5,0-0.9,0.4-0.9,0.9l0,0.1l-2.2,1.2l-2-1.2v-5.1L8.5,12.3z M14.3,14.5l-4.8-2.7L14.3,9V14.5z M13.5,6.6
		L14.3,7v0.9l-5.3,3V9.2h0L13.5,6.6z"/>
	<polygon class="st5" points="14.3,7 14.3,7.9 9,10.9 9,9.2 9,9.2 13.5,6.6 	"/>
	<polygon class="st5" points="14.3,9 14.3,14.5 9.4,11.7 	"/>
	<polygon class="st6" points="23,21.1 23,22.8 18.5,25.4 17.7,25 17.7,24.1 	"/>
	<polygon class="st6" points="22.6,20.3 17.7,23 17.7,17.5 	"/>
</g>
<line class="st0" x1="256" y1="568" x2="256" y2="512"/>
<line class="st0" x1="256" y1="0" x2="256" y2="-64"/>
</svg>
