<svg id="svg7976" xmlns="http://www.w3.org/2000/svg" xmlns:xlink="http://www.w3.org/1999/xlink" viewBox="0 0 512 697"><defs><style>.cls-1{fill:none;}.cls-2{fill:#e6eaea;}.cls-3{fill:#365558;}.cls-4{fill:#0295aa;}.cls-5{fill:#cdd4d5;}.cls-6{fill:url(#New_Pattern_Swatch_5);}.cls-7{fill:url(#New_Pattern_Swatch_6);}.cls-8{fill:url(#New_Pattern_Swatch_10);}.cls-9{fill:url(#New_Pattern_Swatch_9);}</style><pattern id="New_Pattern_Swatch_5" data-name="New Pattern Swatch 5" width="128" height="128" patternUnits="userSpaceOnUse" viewBox="0 0 128 128"><rect class="cls-1" width="128" height="128"/><rect class="cls-3" width="128" height="128"/></pattern><pattern id="New_Pattern_Swatch_6" data-name="New Pattern Swatch 6" width="128" height="128" patternUnits="userSpaceOnUse" viewBox="0 0 128 128"><rect class="cls-1" width="128" height="128"/><rect class="cls-4" width="128" height="128"/></pattern><pattern id="New_Pattern_Swatch_10" data-name="New Pattern Swatch 10" width="128" height="128" patternUnits="userSpaceOnUse" viewBox="0 0 128 128"><rect class="cls-1" width="128" height="128"/><rect class="cls-2" width="128" height="128"/></pattern><pattern id="New_Pattern_Swatch_9" data-name="New Pattern Swatch 9" width="128" height="128" patternUnits="userSpaceOnUse" viewBox="0 0 128 128"><rect class="cls-1" width="128" height="128"/><rect class="cls-5" width="128" height="128"/></pattern></defs><g id="g7974"><path class="cls-6" d="M104.27,321.22a2.07,2.07,0,0,1,.4-1.24,1.36,1.36,0,0,1,1.25-.54H169.6a10.3,10.3,0,0,0,7.89-3.84l46.06-58.72,32.58-41.58V0H256C114.62,0,0,114.62,0,256S114.62,512,256,512h.13V296.64L217.2,346.26Q198.77,368,173,368H105.92a1.48,1.48,0,0,1-1.25-.56,2,2,0,0,1-.4-1.44ZM104,190.59v-44.8a1.78,1.78,0,0,1,.53-1.23,1.53,1.53,0,0,1,1.37-.54h67.3q25.44,0,44,21.74l16.37,20.85-31.87,40.54-24.18-30.93a9.88,9.88,0,0,0-7.89-3.84H105.9a2.05,2.05,0,0,1-1.37-.56A1.76,1.76,0,0,1,104,190.59Z" transform="translate(0 50)"/><path class="cls-7" d="M512,256c0,141.34-114.55,255.93-255.87,256V296.64l.09-.11,39,49.73c12.23,14.48,26.82,21.74,44,21.74h67a1.33,1.33,0,0,0,1.24-.54,1.87,1.87,0,0,0,.4-1.24v-44.8a2.18,2.18,0,0,0-.4-1.44,1.44,1.44,0,0,0-1.23-.54H342.59a9.89,9.89,0,0,1-7.63-3.57l-47.12-60,46.94-59.63a9.89,9.89,0,0,1,7.88-3.84h63.68a1.32,1.32,0,0,0,1.24-.55,1.84,1.84,0,0,0,.4-1.23v-44.8a1.47,1.47,0,0,0-1.64-1.77H339.25q-25.72,0-44.16,21.53v0l-39,49.73V0C397.45.07,512,114.66,512,256Z" transform="translate(0 50)"/><path class="cls-8" d="M408,145.79v44.8a1.84,1.84,0,0,1-.4,1.23,1.32,1.32,0,0,1-1.24.55H342.66a9.89,9.89,0,0,0-7.88,3.84l-46.94,59.63,47.12,60a9.89,9.89,0,0,0,7.63,3.57h63.68a1.44,1.44,0,0,1,1.23.54,2.18,2.18,0,0,1,.4,1.44v44.8a1.87,1.87,0,0,1-.4,1.24,1.33,1.33,0,0,1-1.24.54h-67c-17.15,0-31.74-7.26-44-21.74l-39-49.73-.09.11V215.3l39-49.73v0q18.44-21.5,44.16-21.53h67.09a1.47,1.47,0,0,1,1.64,1.77Z" transform="translate(0 50)"/><path class="cls-9" d="M256.13,215.3v81.34L217.2,346.26Q198.77,368,173,368H105.92a1.48,1.48,0,0,1-1.25-.56,2,2,0,0,1-.4-1.44v-44.8a2.07,2.07,0,0,1,.4-1.24,1.36,1.36,0,0,1,1.25-.54H169.6a10.3,10.3,0,0,0,7.89-3.84l46.06-58.72Z" transform="translate(0 50)"/><path class="cls-9" d="M233.52,186.61l-31.87,40.54-24.18-30.93a9.88,9.88,0,0,0-7.89-3.84H105.9a2.05,2.05,0,0,1-1.37-.56,1.76,1.76,0,0,1-.53-1.23v-44.8a1.78,1.78,0,0,1,.53-1.23,1.53,1.53,0,0,1,1.37-.54h67.3q25.44,0,44,21.74Z" transform="translate(0 50)"/></g><line class="cls-1" x1="256.13" y1="697" x2="256.13" y2="562"/><line class="cls-1" x1="256.13" y1="50" x2="256.13"/></svg>