<?xml version="1.0" encoding="UTF-8" standalone="no"?>
<svg
   width="512"
   height="512"
   viewBox="0 0 512 512"
   version="1.1"
   id="svg7976"
   xmlns="http://www.w3.org/2000/svg"
   xmlns:svg="http://www.w3.org/2000/svg">
  <defs
     id="defs7980" />
  <g
     fill="none"
     id="g7974"
     transform="scale(16)">
    <circle
       fill="#5fcdf9"
       cx="16"
       cy="16"
       r="16"
       id="circle7970" />
    <path
       d="m 11.092,12.264 a 0.617,0.617 0 0 0 -0.493,-0.24 H 6.619 A 0.13,0.13 0 0 1 6.533,11.989 0.11,0.11 0 0 1 6.5,11.912 v -2.8 A 0.11,0.11 0 0 1 6.533,9.035 0.097,0.097 0 0 1 6.619,9.001 h 4.206 c 1.06,0 1.975,0.454 2.747,1.359 l 1.023,1.303 -1.992,2.534 z m 7.351,-1.917 c 0.768,-0.896 1.688,-1.346 2.76,-1.346 h 4.193 a 0.102,0.102 0 0 1 0.078,0.026 0.1,0.1 0 0 1 0.025,0.085 v 2.8 c 0,0.03 -0.008,0.056 -0.025,0.077 a 0.084,0.084 0 0 1 -0.078,0.034 h -3.98 a 0.617,0.617 0 0 0 -0.492,0.24 l -2.934,3.727 2.945,3.752 c 0.12,0.141 0.296,0.227 0.477,0.223 h 3.98 a 0.09,0.09 0 0 1 0.077,0.034 0.14,0.14 0 0 1 0.025,0.09 v 2.8 A 0.12,0.12 0 0 1 25.469,22.966 0.084,0.084 0 0 1 25.391,23 h -4.189 c -1.072,0 -1.984,-0.454 -2.748,-1.359 l -2.44,-3.108 -2.439,3.108 c -0.768,0.905 -1.688,1.36 -2.76,1.36 H 6.62 A 0.09,0.09 0 0 1 6.542,22.966 0.121,0.121 0 0 1 6.517,22.876 v -2.8 c 0,-0.03 0.009,-0.056 0.025,-0.077 A 0.084,0.084 0 0 1 6.62,19.965 h 3.98 c 0.189,0 0.37,-0.09 0.493,-0.24 l 2.879,-3.67 4.472,-5.707 z"
       fill="#ffffff"
       id="path7972" />
  </g>
</svg>
