<?xml version="1.0" encoding="utf-8"?>
<!-- Generator: Adobe Illustrator 25.4.1, SVG Export Plug-In . SVG Version: 6.00 Build 0)  -->
<svg version="1.1" id="svg8173" xmlns:svg="http://www.w3.org/2000/svg"
	 xmlns="http://www.w3.org/2000/svg" xmlns:xlink="http://www.w3.org/1999/xlink" x="0px" y="0px" viewBox="0 0 512 512"
	 style="enable-background:new 0 0 512 512;" xml:space="preserve">
<style type="text/css">
	.st0{fill:none;}
	.st1{fill:#E6EAEA;}
	.st2{fill:#365558;}
	.st3{fill:#0295AA;}
	.st4{fill:#CDD4D5;}
	.st5{fill-rule:evenodd;clip-rule:evenodd;fill:url(#New_Pattern_Swatch_5);}
	.st6{fill-rule:evenodd;clip-rule:evenodd;fill:url(#New_Pattern_Swatch_6);}
	.st7{fill:url(#New_Pattern_Swatch_9);}
	.st8{fill:url(#New_Pattern_Swatch_10);}
	.st9{fill:url(#New_Pattern_Swatch_6);}
	.st10{fill:url(#New_Pattern_Swatch_5);}
</style>
<pattern  y="512" width="128" height="128" patternUnits="userSpaceOnUse" id="New_Pattern_Swatch_10" viewBox="0 -128 128 128" style="overflow:visible;">
	<g>
		<rect y="-128" class="st0" width="128" height="128"/>
		<rect y="-128" class="st1" width="128" height="128"/>
	</g>
</pattern>
<pattern  y="512" width="128" height="128" patternUnits="userSpaceOnUse" id="New_Pattern_Swatch_5" viewBox="0 -128 128 128" style="overflow:visible;">
	<g>
		<rect y="-128" class="st0" width="128" height="128"/>
		<rect y="-128" class="st2" width="128" height="128"/>
	</g>
</pattern>
<pattern  y="512" width="128" height="128" patternUnits="userSpaceOnUse" id="New_Pattern_Swatch_6" viewBox="0 -128 128 128" style="overflow:visible;">
	<g>
		<rect y="-128" class="st0" width="128" height="128"/>
		<rect y="-128" class="st3" width="128" height="128"/>
	</g>
</pattern>
<pattern  y="512" width="128" height="128" patternUnits="userSpaceOnUse" id="New_Pattern_Swatch_9" viewBox="0 -128 128 128" style="overflow:visible;">
	<g>
		<rect y="-128" class="st0" width="128" height="128"/>
		<rect y="-128" class="st4" width="128" height="128"/>
	</g>
</pattern>
<g id="g8171" transform="scale(16)">
	<path class="st5" d="M6,18.2C5.9,19,6.3,20,6.9,20.5l6.1,4.9c0.6,0.5,1.8,0.7,2.6,0.4l0.5-0.2V32C7.2,32,0,24.8,0,16S7.2,0,16,0
		v6.3L9.1,8.7C8.3,9,7.5,9.9,7.4,10.6L6,18.2z"/>
	<path class="st6" d="M32,16c0,8.8-7.2,16-16,16v-6.3l6.9-2.4c0.8-0.3,1.5-1.1,1.7-1.9l1.4-7.5c0.1-0.8-0.3-1.8-0.9-2.4L19,6.6
		c-0.6-0.5-1.8-0.7-2.6-0.4L16,6.3V0C24.8,0,32,7.2,32,16z"/>
	<path class="st7" d="M16,14.9v4c-0.8,0-0.7-0.5-0.6-1.3L16,14.9L16,14.9z"/>
	<path class="st8" d="M26,13.8l-1.4,7.5c-0.1,0.8-0.9,1.6-1.7,1.9L16,25.7v-5.2h1.6l0.4-1.7h-1.9c0,0,0,0-0.1,0v-4l2.8,0l0.3-1.5
		l-2.8,0l0.4-2H16v-5l0.5-0.2C17.2,5.8,18.4,6,19,6.6l6.1,4.9C25.7,12,26.1,13.1,26,13.8z"/>
	<path class="st7" d="M13,13.5l-0.3,1.3H14c0,0-0.4,1.9-0.6,2.6c-0.3,1.8,0.5,3,1.9,3H16v5.2l-0.5,0.2c-0.8,0.3-1.9,0.1-2.6-0.4
		l-6.1-4.9C6.3,20,5.9,19,6,18.2l1.4-7.5C7.5,9.9,8.3,9,9.1,8.7L16,6.3v5h-0.3C15.1,12.3,14.1,13.1,13,13.5z"/>
	<path class="st9" d="M18,18.8l-0.4,1.7H16v-1.7c0,0,0,0,0.1,0H18z"/>
	<polygon class="st9" points="19.1,13.3 18.8,14.9 16,14.9 16,11.3 16.6,11.3 16.2,13.3 	"/>
</g>
<path class="st10" d="M246.6,280.2c-2.6,12.9-3.3,20.3,9.4,20.6v27.1h-11.5c-21.6,0-35.7-20.2-30.1-48.7c2.3-11.2,9-41.5,9-41.5
	h-19.8l4.1-21.1c18-7,33.4-19.4,44-35.6h4.4v56.6h-1L246.6,280.2z"/>
</svg>
