<?xml version="1.0" encoding="UTF-8" standalone="no"?>
<!-- Generator: Adobe Illustrator 24.0.0, SVG Export Plug-In . SVG Version: 6.00 Build 0)  -->

<svg
   version="1.1"
   id="Layer_1"
   x="0px"
   y="0px"
   viewBox="0 0 512 512"
   xml:space="preserve"
   width="512"
   height="512"
   xmlns="http://www.w3.org/2000/svg"
   xmlns:svg="http://www.w3.org/2000/svg"><defs
   id="defs10676" />
<style
   type="text/css"
   id="style10661">
	.st0{fill:#172852;}
	.st1{fill:#FFD83D;}
	.st2{fill:#FF6F03;}
</style>


<g
   id="g10763"
   transform="scale(0.256)"><circle
     class="st0"
     cx="1000"
     cy="1000"
     r="1000"
     id="circle10663" /><g
     id="g10669">
	<path
   class="st1"
   d="m 805.5,446.9 c 117.1,-43.8 248.9,-43.9 368.2,-7.9 155.3,48.2 286.4,165.4 354.9,312.5 18.9,41.9 37,85.6 38.8,132.2 -87.3,-50.6 -183,-83.4 -278.9,-113.3 -153.4,-55.3 -314,-93.7 -459.2,-169.7 -33.8,-20.2 -76.9,-40.9 -86.1,-83 -3.7,-36.4 34.8,-56.7 62.3,-70.8"
   id="path10665" />
	<path
   class="st1"
   d="m 452,800.9 c 33.9,-92 89.5,-177.4 165,-240.7 19.2,157.9 86.4,310.5 197.4,425.3 133.1,138.3 322.7,223.2 515.6,220 76.6,2.4 151.5,-15.3 226.2,-29.6 -73.5,265.6 -364.6,441.9 -634.3,399.5 C 759.1,1554.6 608.8,1458.2 518.1,1322.1 415.8,1171.7 390,972 452,800.9 Z"
   id="path10667" />
</g><path
     class="st2"
     d="m 1288.5,770.4 c 95.9,29.9 191.6,62.7 278.9,113.3 l 5.9,3.1 c 8.1,60.9 14,123 3.2,184 -43.9,-18.6 -79.5,-51.3 -116.7,-80.2 C 1388.2,931 1315.1,862.8 1288.5,770.4"
     id="path10671" /></g>
</svg>
