<?xml version="1.0" encoding="utf-8"?>
<!-- Generator: Adobe Illustrator 25.4.1, SVG Export Plug-In . SVG Version: 6.00 Build 0)  -->
<svg version="1.1"
	 id="Layer_1" xmlns:cc="http://creativecommons.org/ns#" xmlns:dc="http://purl.org/dc/elements/1.1/" xmlns:rdf="http://www.w3.org/1999/02/22-rdf-syntax-ns#" xmlns:svg="http://www.w3.org/2000/svg"
	 xmlns="http://www.w3.org/2000/svg" xmlns:xlink="http://www.w3.org/1999/xlink" x="0px" y="0px" viewBox="0 0 512 512"
	 style="enable-background:new 0 0 512 512;" xml:space="preserve">
<style type="text/css">
	.st0{fill:none;}
	.st1{fill:#365558;}
	.st2{fill:#0295AA;}
	.st3{fill:#9BAAAB;}
	.st4{fill:#CDD4D5;}
	.st5{fill:url(#New_Pattern_Swatch_5);}
	.st6{fill:url(#New_Pattern_Swatch_6);}
	.st7{fill:url(#New_Pattern_Swatch_8);}
	.st8{fill:url(#New_Pattern_Swatch_9);}
</style>
<pattern  y="512" width="128" height="128" patternUnits="userSpaceOnUse" id="New_Pattern_Swatch_5" viewBox="0 -128 128 128" style="overflow:visible;">
	<g>
		<rect y="-128" class="st0" width="128" height="128"/>
		<rect y="-128" class="st1" width="128" height="128"/>
	</g>
</pattern>
<pattern  y="512" width="128" height="128" patternUnits="userSpaceOnUse" id="New_Pattern_Swatch_6" viewBox="0 -128 128 128" style="overflow:visible;">
	<g>
		<rect y="-128" class="st0" width="128" height="128"/>
		<rect y="-128" class="st2" width="128" height="128"/>
	</g>
</pattern>
<pattern  y="512" width="128" height="128" patternUnits="userSpaceOnUse" id="New_Pattern_Swatch_8" viewBox="0 -128 128 128" style="overflow:visible;">
	<g>
		<rect y="-128" class="st0" width="128" height="128"/>
		<rect y="-128" class="st3" width="128" height="128"/>
	</g>
</pattern>
<pattern  y="512" width="128" height="128" patternUnits="userSpaceOnUse" id="New_Pattern_Swatch_9" viewBox="0 -128 128 128" style="overflow:visible;">
	<g>
		<rect y="-128" class="st0" width="128" height="128"/>
		<rect y="-128" class="st4" width="128" height="128"/>
	</g>
</pattern>
<path class="st5" d="M201,132.3V58.7l-22.3-8.5h-59.4v12.3l20.5,15v54.7H50.2v24h89.1v128.8c-1.3,16.5,6.5,32.8,21.7,45
	c14.6,11,40.9,16.5,78.8,16.5c5.5,0,10.9-0.4,16.2-1.2v23.5c-12-3.4-25.4-3-37,1.2c-5.5,2.3-10,5.6-13.1,9.7
	c-3.4,4.6-5,9.8-4.8,15.1c0.6,17.3,10.5,33.8,27.5,45.7c7.4,5.7,16.6,10.2,27.5,13.7v55.3C116,509.5,2.5,396,2.5,256
	S116,2.5,256,2.5v129.7L201,132.3z"/>
<path class="st6" d="M509.5,256c0,140-113.5,253.5-253.5,253.5v-55.3c16.2,5,36.2,7.6,60,7.6c26.2,0.1,52.1-4.3,75.7-12.9
	c23-8.1,41.5-21.7,52.5-38.6c11.6-17.4,17.6-36.6,17.5-56c-0.2-10.2-1.8-20.3-4.8-30.2c-3.7-12.6-10.5-24.6-20.1-35.3
	c-10.8-12.7-26.3-22.8-44.7-29.3c-15.9-6.6-33.6-10.3-51.8-10.9c-9.2,0.6-18.2,2.2-26.8,4.8l141.8-104.7l-23-17L256,132.2V2.5
	C396,2.5,509.5,116,509.5,256z"/>
<polygon class="st6" points="376.1,156.3 256,274.6 256,156.3 "/>
<path class="st5" d="M256,274.6V156.3h-55v129.2c-0.5,9.3,2.9,18.5,9.6,26.4c6.7,7,17.8,10.9,29.4,10.3c5.5-0.1,10.9-0.8,15.9-2.2
	v-31.2l-6.2,2.3v-10.4L256,274.6z M254.2,421.4c0.6,0.5,1.2,1,1.8,1.5v-2C255.4,421.1,254.8,421.3,254.2,421.4z"/>
<path class="st6" d="M400.5,354.3c0.3,14.9-3,29.7-9.6,43.8c-5.3,11.8-15.6,22.1-29.4,29.3c-13.3,6.6-29,10-45.1,9.9
	c-12.1,0-24.2-1.3-35.8-3.8c-9.5-1.5-18.1-5.2-24.5-10.5v-2c6-1.7,11.2-4.6,14.9-8.5c4.9-5.2,7.4-11.4,7-17.7
	c0.2-5.3-1.5-10.5-5-15.1c-3.1-4-7.6-7.4-13.1-9.7c-1.3-0.5-2.5-0.9-3.8-1.2v-23.5c9.2-1.5,18-4.2,25.9-8.1
	c13.4-6.8,23.8-16.3,30-27.4c0.7-2.1,1.2-4.3,1.6-6.4c0-3.2-1.5-6.4-4.5-8.8c-2.3-1.5-5.2-2.4-8.2-2.6c-1.5,0-3,0.4-4.2,1.2
	c-1.5,0.8-2.6,1.8-3.2,3.1c-6.7,7.1-14.9,13.3-24.3,18.4c-4,2.3-8.4,4.1-13.1,5.3v-31.2l21.9-8.1c11.4-5.4,24.4-8.6,37.9-9.5
	c15.5-0.1,30.7,3.1,43.8,9.2c14.1,6.7,24.8,16.7,30.4,28.3C397.4,323.3,401,338.8,400.5,354.3z"/>
<g id="Layer_2_00000164515887404341586250000006339775335114895791_" transform="scale(0.43764683,0.3214057)">
	<path class="st7" d="M459.3,888.1c-1.1,29,6.6,57.7,22,82.2c15.2,21.8,40.7,34,67.2,32.2c12.5-0.2,24.8-2.6,36.4-6.8v78.8
		c-12.1,2.6-24.5,4-37,3.9c-86.6,0-146.6-17.1-180-51.2c-34.7-38.1-52.6-88.6-49.6-140V486.3H114.8v-74.7h204.5V241.3l-46.8-46.8
		v-38.2h135.8l51,26.4v228.8l125.6-0.4v75H459.3V888.1z"/>
	<path class="st8" d="M716.4,943.9c-0.8,6.7-2,13.4-3.6,20c-14.2,34.4-38,64-68.6,85.2c-18.1,12.2-38.2,20.8-59.3,25.3v-78.8
		c10.7-3.9,20.8-9.5,30-16.6c21.6-15.8,40.4-35.2,55.6-57.2c1.3-3.9,3.9-7.2,7.2-9.6c2.7-2.3,6.1-3.6,9.6-3.6
		c6.9,0.7,13.5,3.4,18.8,8C712.9,924.2,716.6,933.9,716.4,943.9z"/>
	<path class="st7" d="M584.9,1309.8c-1.3,0.5-2.7,1-4,1.4c1.3,1.6,2.6,3.2,4,4.8v97.2c-25-10.6-45.9-24.8-62.8-42.5
		c-38.9-37.2-61.5-88.4-62.8-142.3c-0.5-16.4,3.3-32.6,11-47c7.2-12.5,17.5-22.9,30-30c26.5-13.3,57.3-14.5,84.6-3.9V1309.8z"/>
	<path class="st8" d="M619,1283.4c-8.5,12-20.4,21.2-34,26.4v-162.3c3,1.2,5.9,2.5,8.8,3.9c12.5,7.1,22.8,17.5,29.8,30
		c7.9,14.4,11.8,30.6,11.4,47C635.8,1248,630.2,1267.3,619,1283.4z"/>
	<path class="st8" d="M1055.1,1102.4c0.2,60.4-13.5,120-40,174.2c-25.2,52.5-67.5,94.9-120,120c-53.8,26.5-112.9,40.2-172.9,40
		c-54.5,0-100.3-7.8-137.2-23.5V1316c14.7,16.6,34.3,28,56,32.7c26.6,7.7,54.1,11.7,81.8,11.8c36.7,0.3,72.5-10.4,103-30.8
		c31.6-22.3,55.2-54.3,67.2-91c15.3-43.7,22.7-89.9,22-136.2c1.2-48.3-6.9-96.4-24-141.6c-12.9-36.2-37.2-67.1-69.4-88
		c-29.9-18.9-64.6-28.9-100-28.6c-30.8,2.6-60.6,12.7-86.6,29.4l-50,25.1v-44.2l274.4-368.2H584.9v-75l402.9-1.2l52.6,52.8
		L716.4,788.5c19.6-7.9,40.2-12.9,61.2-14.8c41.6,1.8,82.2,13.4,118.5,33.8c42,19.9,77.4,51.6,102,91c22,33.4,37.6,70.7,46,109.8
		C1050.9,1039.2,1054.6,1070.7,1055.1,1102.4z"/>
	<polygon class="st7" points="584.9,854.4 584.9,898.6 570.7,905.7 570.7,873.5 	"/>
</g>
</svg>
