<?xml version="1.0" encoding="UTF-8" standalone="no"?>
<svg
   width="512"
   height="512"
   viewBox="0 0 512 512"
   version="1.1"
   id="svg4125"
   xmlns="http://www.w3.org/2000/svg"
   xmlns:svg="http://www.w3.org/2000/svg">
  <defs
     id="defs4115">
    <filter
       color-interpolation-filters="auto"
       id="a"
       x="0"
       y="0"
       width="1"
       height="1">
      <feColorMatrix
         in="SourceGraphic"
         values="0 0 0 0 1.000000 0 0 0 0 1.000000 0 0 0 0 1.000000 0 0 0 1.000000 0"
         id="feColorMatrix4112" />
    </filter>
  </defs>
  <g
     fill="none"
     fill-rule="evenodd"
     id="g4123"
     transform="scale(16)">
    <circle
       fill="#5942cc"
       fill-rule="nonzero"
       cx="16"
       cy="16"
       r="16"
       id="circle4117" />
    <g
       filter="url(#a)"
       id="g4121">
      <path
         d="m 20.707,19.543 a 1,1 0 0 1 0,1.414 l -4,4 a 1,1 0 1 1 -1.414,-1.414 l 4,-4 a 1,1 0 0 1 1.414,0 z M 15,7.25 a 6,6 0 1 1 0,12 6,6 0 0 1 0,-12 z m 0,2 a 4,4 0 1 0 0,8 4,4 0 0 0 0,-8 z m 7,-2 a 1,1 0 1 1 0,2 1,1 0 0 1 0,-2 z"
         fill="#000000"
         fill-rule="nonzero"
         id="path4119" />
    </g>
  </g>
</svg>
