<?xml version="1.0" encoding="utf-8"?>
<!-- Generator: Adobe Illustrator 25.4.1, SVG Export Plug-In . SVG Version: 6.00 Build 0)  -->
<svg version="1.1" id="svg8370" xmlns:svg="http://www.w3.org/2000/svg"
	 xmlns="http://www.w3.org/2000/svg" xmlns:xlink="http://www.w3.org/1999/xlink" x="0px" y="0px" viewBox="0 0 512 512"
	 style="enable-background:new 0 0 512 512;" xml:space="preserve">
<style type="text/css">
	.st0{fill:none;}
	.st1{fill:#E6EAEA;}
	.st2{fill:#365558;}
	.st3{fill:#0295AA;}
	.st4{fill:#CDD4D5;}
	.st5{fill:url(#New_Pattern_Swatch_5);}
	.st6{fill:url(#New_Pattern_Swatch_6);}
	.st7{fill:url(#New_Pattern_Swatch_9);}
	.st8{fill:url(#New_Pattern_Swatch_10);}
</style>
<pattern  y="512" width="128" height="128" patternUnits="userSpaceOnUse" id="New_Pattern_Swatch_10" viewBox="0 -128 128 128" style="overflow:visible;">
	<g>
		<rect y="-128" class="st0" width="128" height="128"/>
		<rect y="-128" class="st1" width="128" height="128"/>
	</g>
</pattern>
<pattern  y="512" width="128" height="128" patternUnits="userSpaceOnUse" id="New_Pattern_Swatch_5" viewBox="0 -128 128 128" style="overflow:visible;">
	<g>
		<rect y="-128" class="st0" width="128" height="128"/>
		<rect y="-128" class="st2" width="128" height="128"/>
	</g>
</pattern>
<pattern  y="512" width="128" height="128" patternUnits="userSpaceOnUse" id="New_Pattern_Swatch_6" viewBox="0 -128 128 128" style="overflow:visible;">
	<g>
		<rect y="-128" class="st0" width="128" height="128"/>
		<rect y="-128" class="st3" width="128" height="128"/>
	</g>
</pattern>
<pattern  y="512" width="128" height="128" patternUnits="userSpaceOnUse" id="New_Pattern_Swatch_9" viewBox="0 -128 128 128" style="overflow:visible;">
	<g>
		<rect y="-128" class="st0" width="128" height="128"/>
		<rect y="-128" class="st4" width="128" height="128"/>
	</g>
</pattern>
<g id="g8368" transform="scale(16)">
	<path class="st5" d="M9,8.9V16l1.8,1.8H16v3.6h-1.8v-1.8H9v3.6l1.8,1.8H16v7C7.2,32,0,24.8,0,16S7.2,0,16,0v7h-5.2v0.1L9,8.9z"/>
	<rect x="3.4" y="-9.2" class="st6" width="27" height="57.6"/>
	<path class="st6" d="M32,16c0,8.8-7.2,16-16,16v-7h5.2l1.8-1.8V16l-1.8-1.8H16v-3.6h1.8v1.8H23V8.8L21.2,7H16V0
		C24.8,0,32,7.2,32,16z"/>
	<polygon class="st7" points="14.2,10.6 14.2,14.2 16,14.2 16,17.8 10.8,17.8 9,16 9,8.9 10.8,7.1 10.8,7 16,7 16,10.6 	"/>
	<polygon class="st7" points="16,21.4 16,25 10.8,25 9,23.2 9,19.6 14.2,19.6 14.2,21.4 	"/>
	<polygon class="st8" points="22.9,16 22.9,23.2 21.2,25 16,25 16,21.4 17.7,21.4 17.7,17.8 16,17.8 16,14.2 21.2,14.2 	"/>
	<polygon class="st8" points="23,8.8 23,12.4 17.8,12.4 17.8,10.6 16,10.6 16,7 21.2,7 	"/>
</g>
<rect x="228" y="169.6" class="st5" width="28" height="57.6"/>
</svg>
