<?xml version="1.0" encoding="utf-8"?>
<!-- Generator: Adobe Illustrator 25.4.1, SVG Export Plug-In . SVG Version: 6.00 Build 0)  -->
<svg version="1.1" id="svg4323" xmlns:svg="http://www.w3.org/2000/svg"
	 xmlns="http://www.w3.org/2000/svg" xmlns:xlink="http://www.w3.org/1999/xlink" x="0px" y="0px" viewBox="0 0 512 512"
	 style="enable-background:new 0 0 512 512;" xml:space="preserve">
<style type="text/css">
	.st0{fill:none;}
	.st1{fill:#E6EAEA;}
	.st2{fill:#365558;}
	.st3{fill:#0295AA;}
	.st4{fill:#CDD4D5;}
	.st5{fill-rule:evenodd;clip-rule:evenodd;fill:url(#New_Pattern_Swatch_5);}
	.st6{fill-rule:evenodd;clip-rule:evenodd;fill:url(#New_Pattern_Swatch_6);}
	.st7{fill:url(#New_Pattern_Swatch_10);}
	.st8{fill:url(#New_Pattern_Swatch_9);}
	.st9{fill:url(#New_Pattern_Swatch_6);}
	.st10{fill:url(#New_Pattern_Swatch_5);}
</style>
<pattern  y="512" width="128" height="128" patternUnits="userSpaceOnUse" id="New_Pattern_Swatch_10" viewBox="0 -128 128 128" style="overflow:visible;">
	<g>
		<rect y="-128" class="st0" width="128" height="128"/>
		<rect y="-128" class="st1" width="128" height="128"/>
	</g>
</pattern>
<pattern  y="512" width="128" height="128" patternUnits="userSpaceOnUse" id="New_Pattern_Swatch_5" viewBox="0 -128 128 128" style="overflow:visible;">
	<g>
		<rect y="-128" class="st0" width="128" height="128"/>
		<rect y="-128" class="st2" width="128" height="128"/>
	</g>
</pattern>
<pattern  y="512" width="128" height="128" patternUnits="userSpaceOnUse" id="New_Pattern_Swatch_6" viewBox="0 -128 128 128" style="overflow:visible;">
	<g>
		<rect y="-128" class="st0" width="128" height="128"/>
		<rect y="-128" class="st3" width="128" height="128"/>
	</g>
</pattern>
<pattern  y="512" width="128" height="128" patternUnits="userSpaceOnUse" id="New_Pattern_Swatch_9" viewBox="0 -128 128 128" style="overflow:visible;">
	<g>
		<rect y="-128" class="st0" width="128" height="128"/>
		<rect y="-128" class="st4" width="128" height="128"/>
	</g>
</pattern>
<g id="g4321" transform="scale(16)">
	<path class="st5" d="M10,7v18l1,1H16v6h0C7.2,32,0,24.8,0,16S7.2,0,16,0h0v6H11L10,7z"/>
	<path class="st6" d="M32,16c0,8.8-7.2,16-16,16v-6h5l1-1V7l-1-1h-5V0C24.8,0,32,7.2,32,16z"/>
	<polygon class="st7" points="19.1,16.9 19.1,18.8 17,18.8 17,21.1 16,21.1 16,16.9 	"/>
	<polygon class="st7" points="19.1,13.3 19.1,15.2 16,15.2 16,11 17,11 17,13.3 	"/>
	<polygon class="st7" points="22,7 22,25 21,26 16,26 16,24 20.1,24 20.1,8 16,8 16,6 21,6 	"/>
	<polygon class="st8" points="16,16.9 16,21.1 15.1,21.1 15.1,18.8 13,18.8 13,16.9 	"/>
	<polygon class="st8" points="16,11 16,15.2 13,15.2 13,13.3 15.1,13.3 15.1,11 	"/>
	<polygon class="st8" points="11.9,8 11.9,24 16,24 16,26 11,26 10,25 10,7 11,6 16,6 16,8 	"/>
	<polygon class="st9" points="20.1,8 20.1,24 16,24 16,21.1 17,21.1 17,18.8 19.1,18.8 19.1,16.9 16,16.9 16,15.2 19.1,15.2 
		19.1,13.3 17,13.3 17,11 16,11 16,8 	"/>
</g>
<polygon class="st10" points="207.9,212.2 207.9,243.3 256.4,243.3 256.4,270.3 207.9,270.3 207.9,301.5 241.3,301.5 241.3,337.7 
	256.4,337.7 256.4,384.2 190.7,384.2 190.7,127.8 256.4,127.8 256.4,176 241.3,176 241.3,212.2 "/>
</svg>
