<?xml version="1.0" encoding="UTF-8" standalone="no"?>
<svg
   width="512"
   height="512"
   viewBox="0 0 512 512"
   version="1.1"
   id="svg10277"
   xmlns="http://www.w3.org/2000/svg"
   xmlns:svg="http://www.w3.org/2000/svg">
  <defs
     id="defs10281" />
  <g
     fill="none"
     id="g10275"
     transform="scale(16)">
    <circle
       cx="16"
       cy="16"
       r="16"
       fill="#2b2e7f"
       id="circle10265" />
    <g
       fill="#ffffff"
       id="g10273">
      <path
         d="m 17.057,19.028 v -5.86 h 0.77 c 2.545,0 3.172,-2.373 3.172,-2.373 h -6.683 c -3.172,0 -3.71,2.374 -3.71,2.374 h 3.943 v 8.817 c 0,0 2.508,-0.753 2.508,-2.958 z"
         id="path10267" />
      <path
         d="m 24.395,23.594 c 2.248,-2.336 3.11,-5.58 2.301,-8.683 a 9.339,9.339 0 0 0 -2.48,-4.28 C 24.108,10.525 24,10.417 23.874,10.311 L 23.766,10.204 A 2.185,2.185 0 0 0 23.532,10.008 L 23.388,9.901 23.173,9.741 23.046,9.651 A 4.15,4.15 0 0 1 22.795,9.473 L 22.632,9.367 A 1.22,1.22 0 0 0 22.417,9.242 L 22.255,9.135 C 22.183,9.099 22.111,9.045 22.039,9.01 L 21.877,8.92 C 21.805,8.885 21.733,8.849 21.643,8.814 L 21.588,8.796 c 0.198,0.16 0.395,0.339 0.575,0.517 a 8.75,8.75 0 0 1 0,12.427 C 17.777,26.09 10.658,26.09 6.27,21.74 6.108,21.58 5.964,21.42 5.803,21.26 L 5.677,21.117 a 5.762,5.762 0 0 1 -0.27,-0.339 11.856,11.856 0 0 0 2.176,2.995 c 4.584,4.546 12.026,4.546 16.61,0 a 0.614,0.614 0 0 0 0.202,-0.18 z"
         id="path10269" />
      <path
         d="m 10.4,22.386 a 8.168,8.168 0 0 1 -0.576,-0.517 8.758,8.758 0 0 1 0,-12.439 c 4.391,-4.354 11.516,-4.354 15.907,0 0.306,0.304 0.593,0.625 0.863,0.964 A 11.784,11.784 0 0 0 24.417,7.414 C 19.829,2.863 12.379,2.863 7.791,7.414 7.737,7.467 7.683,7.539 7.611,7.592 4.57,10.769 4.156,15.516 6.586,19.121 c 0.954,1.39 2.284,2.55 3.814,3.265 z"
         id="path10271" />
    </g>
  </g>
</svg>
