<?xml version="1.0" encoding="utf-8"?>
<!-- Generator: Adobe Illustrator 25.4.1, SVG Export Plug-In . SVG Version: 6.00 Build 0)  -->
<svg version="1.1" id="svg8575" xmlns:svg="http://www.w3.org/2000/svg"
	 xmlns="http://www.w3.org/2000/svg" xmlns:xlink="http://www.w3.org/1999/xlink" x="0px" y="0px" viewBox="0 0 512 512"
	 style="enable-background:new 0 0 512 512;" xml:space="preserve">
<style type="text/css">
	.st0{fill:none;}
	.st1{fill:#E6EAEA;}
	.st2{fill:#365558;}
	.st3{fill:#0295AA;}
	.st4{fill:#CDD4D5;}
	.st5{fill:url(#New_Pattern_Swatch_5);}
	.st6{fill:url(#New_Pattern_Swatch_6);}
	.st7{fill:url(#New_Pattern_Swatch_10);}
	.st8{fill:url(#New_Pattern_Swatch_9);}
</style>
<pattern  y="512" width="128" height="128" patternUnits="userSpaceOnUse" id="New_Pattern_Swatch_10" viewBox="0 -128 128 128" style="overflow:visible;">
	<g>
		<rect y="-128" class="st0" width="128" height="128"/>
		<rect y="-128" class="st1" width="128" height="128"/>
	</g>
</pattern>
<pattern  y="512" width="128" height="128" patternUnits="userSpaceOnUse" id="New_Pattern_Swatch_5" viewBox="0 -128 128 128" style="overflow:visible;">
	<g>
		<rect y="-128" class="st0" width="128" height="128"/>
		<rect y="-128" class="st2" width="128" height="128"/>
	</g>
</pattern>
<pattern  y="512" width="128" height="128" patternUnits="userSpaceOnUse" id="New_Pattern_Swatch_6" viewBox="0 -128 128 128" style="overflow:visible;">
	<g>
		<rect y="-128" class="st0" width="128" height="128"/>
		<rect y="-128" class="st3" width="128" height="128"/>
	</g>
</pattern>
<pattern  y="512" width="128" height="128" patternUnits="userSpaceOnUse" id="New_Pattern_Swatch_9" viewBox="0 -128 128 128" style="overflow:visible;">
	<g>
		<rect y="-128" class="st0" width="128" height="128"/>
		<rect y="-128" class="st4" width="128" height="128"/>
	</g>
</pattern>
<g id="g8573" transform="scale(16)">
	<path class="st5" d="M12.7,13c0.1,0,0.2,0,0.3,0.1l2.8,1.9c0.1,0.1,0.2,0.1,0.2,0.1V0C7.2,0,0,7.2,0,16s7.2,16,16,16V17.1
		c-0.1,0-0.2,0-0.3-0.1L13.9,16v2.7c0,0.2-0.2,0.3-0.3,0.3h-1c-0.2,0-0.3-0.2-0.3-0.3v-5.1C12.2,13.2,12.5,13,12.7,13z M11.2,18.5
		c0,0.3-0.2,0.5-0.5,0.5H4.5C4.2,19,4,18.8,4,18.5v-5.2C4,13.2,4.2,13,4.4,13h1c0.2,0,0.3,0.2,0.3,0.3v3.9h3.8v-3.9
		c0-0.2,0.2-0.3,0.3-0.3h1c0.2,0,0.3,0.2,0.3,0.3V18.5z"/>
	<path class="st6" d="M16,0v15.1c0,0,0.1,0,0.1-0.1l2.8-1.9c0.2-0.1,0.5-0.1,0.6,0.1c0,0.1,0.1,0.2,0.1,0.2v5.1
		c0,0.2-0.1,0.3-0.3,0.3c0,0,0,0,0,0h-1c-0.2,0-0.3-0.2-0.3-0.3V16l-1.8,1.1c-0.1,0-0.1,0.1-0.2,0.1V32c8.8,0,16-7.2,16-16
		S24.8,0,16,0z M25.2,17.2c0,0.2-0.2,0.3-0.3,0.3h-1c-0.2,0-0.3-0.2-0.3-0.3v-1c0-0.2,0.2-0.3,0.3-0.3h1c0.2,0,0.3,0.2,0.3,0.3V17.2
		z M27.6,19h-1c-0.2,0-0.3-0.2-0.3-0.3v-3.7c0-0.1-0.1-0.2-0.2-0.2h-3.3c-0.1,0-0.2,0.1-0.2,0.2v3.7c0,0.2-0.2,0.3-0.3,0.3h-1
		c-0.2,0-0.3-0.2-0.3-0.3v-5.2c0-0.3,0.2-0.5,0.5-0.5h6.3c0.3,0,0.5,0.2,0.5,0.5v5.2C27.9,18.8,27.8,19,27.6,19z"/>
	<g id="g8571">
		<path class="st7" d="M27.9,13.5v5.2c0,0.2-0.1,0.3-0.3,0.3h-1c-0.2,0-0.3-0.2-0.3-0.3v-3.7c0-0.1-0.1-0.2-0.2-0.2h-3.3
			c-0.1,0-0.2,0.1-0.2,0.2v3.7c0,0.2-0.2,0.3-0.3,0.3h-1c-0.2,0-0.3-0.2-0.3-0.3v-5.2c0-0.3,0.2-0.5,0.5-0.5h6.3
			C27.7,13,27.9,13.2,27.9,13.5z"/>
		<path class="st7" d="M19.7,13.5v5.1c0,0.2-0.1,0.3-0.3,0.3c0,0,0,0,0,0h-1c-0.2,0-0.3-0.2-0.3-0.3V16l-1.8,1.1
			c-0.1,0-0.1,0.1-0.2,0.1v-2c0,0,0.1,0,0.1-0.1l2.8-1.9c0.2-0.1,0.5-0.1,0.6,0.1C19.6,13.3,19.7,13.4,19.7,13.5z"/>
		<path class="st8" d="M16,15.1v2c-0.1,0-0.2,0-0.3-0.1L13.9,16v2.7c0,0.2-0.2,0.3-0.3,0.3h-1c-0.2,0-0.3-0.2-0.3-0.3v-5.1
			c0-0.3,0.2-0.5,0.5-0.5c0.1,0,0.2,0,0.3,0.1l2.8,1.9C15.8,15.1,15.9,15.1,16,15.1z"/>
		<path class="st8" d="M11.2,13.3v5.2c0,0.3-0.2,0.5-0.5,0.5H4.5C4.2,19,4,18.8,4,18.5v-5.2C4,13.2,4.2,13,4.4,13h1
			c0.2,0,0.3,0.2,0.3,0.3v3.9h3.8v-3.9c0-0.2,0.2-0.3,0.3-0.3h1C11,13,11.2,13.2,11.2,13.3z"/>
		<path class="st7" d="M25.2,16.1v1c0,0.2-0.2,0.3-0.3,0.3h-1c-0.2,0-0.3-0.2-0.3-0.3v-1c0-0.2,0.2-0.3,0.3-0.3h1
			C25,15.8,25.2,15.9,25.2,16.1z"/>
	</g>
</g>
</svg>
