<?xml version="1.0" encoding="UTF-8" standalone="no"?>
<svg
   width="512"
   height="512"
   viewBox="0 0 512 512"
   version="1.1"
   id="svg8575"
   xmlns="http://www.w3.org/2000/svg"
   xmlns:svg="http://www.w3.org/2000/svg">
  <defs
     id="defs8579" />
  <g
     fill="none"
     id="g8573"
     transform="scale(16)">
    <circle
       fill="#ff4a4a"
       cx="16"
       cy="16"
       r="16"
       id="circle8565" />
    <g
       fill="#ffffff"
       id="g8571">
      <path
         d="m 19.328,18.981 h -1.012 a 0.346,0.346 0 0 1 -0.347,-0.347 v -2.662 l -1.772,1.106 a 0.458,0.458 0 0 1 -0.488,0 l -1.762,-1.106 v 2.662 c 0,0.188 -0.15,0.347 -0.347,0.347 H 12.597 A 0.346,0.346 0 0 1 12.25,18.634 v -5.137 a 0.46,0.46 0 0 1 0.46,-0.46 c 0.093,0 0.177,0.029 0.252,0.085 l 2.794,1.922 a 0.323,0.323 0 0 0 0.385,0 l 2.793,-1.922 a 0.464,0.464 0 0 1 0.722,0.375 v 5.137 a 0.33,0.33 0 0 1 -0.328,0.347 z M 10.74,18.972 H 4.46 A 0.46,0.46 0 0 1 4,18.512 V 13.347 A 0.354,0.354 0 0 1 4.356,13 H 5.37 c 0.187,0 0.347,0.15 0.347,0.347 v 3.928 H 9.523 V 13.347 C 9.523,13.159 9.673,13 9.87,13 h 0.984 c 0.188,0 0.347,0.15 0.347,0.347 v 5.166 a 0.46,0.46 0 0 1 -0.46,0.459 z M 21.184,13 h 6.282 a 0.46,0.46 0 0 1 0.459,0.46 v 5.165 c 0,0.188 -0.15,0.347 -0.338,0.347 h -1.012 a 0.346,0.346 0 0 1 -0.347,-0.347 v -3.703 a 0.228,0.228 0 0 0 -0.225,-0.225 h -3.347 a 0.228,0.228 0 0 0 -0.225,0.225 v 3.703 c 0,0.188 -0.15,0.347 -0.347,0.347 H 21.072 A 0.346,0.346 0 0 1 20.725,18.625 V 13.459 A 0.46,0.46 0 0 1 21.185,13 Z"
         id="path8567" />
      <path
         d="m 23.819,15.784 h 1.003 c 0.187,0 0.347,0.15 0.347,0.347 v 1.022 c 0,0.188 -0.15,0.347 -0.347,0.347 h -1.003 a 0.346,0.346 0 0 1 -0.347,-0.347 v -1.031 c 0,-0.188 0.16,-0.338 0.347,-0.338 z"
         id="path8569" />
    </g>
  </g>
</svg>
