<svg id="Layer_1" data-name="Layer 1" xmlns="http://www.w3.org/2000/svg" viewBox="0 0 512 512"><defs><style>.cls-1{fill:#fff;}.cls-2,.cls-3{fill:#f0353d;}.cls-3{fill-rule:evenodd;}</style></defs><title>uniswap</title><path class="cls-1" d="M0,256C0,397.4,114.6,512,256,512V0C114.6,0,0,114.6,0,256Z"/><path class="cls-1" d="M256,0V512c141.4,0,256-114.6,256-256S397.4,0,256,0Z"/><path class="cls-2" d="M219.79,150.55c-4.18-.65-4.36-.72-2.39-1,3.77-.58,12.68.21,18.82,1.67,14.33,3.4,27.36,12.13,41.28,27.62l3.7,4.12,5.29-.85c22.28-3.58,44.95-.74,63.91,8,5.22,2.41,13.44,7.21,14.47,8.44a22.43,22.43,0,0,1,1.34,5.62c1.41,9.34.7,16.49-2.15,21.84-1.56,2.91-1.65,3.83-.6,6.32a6.11,6.11,0,0,0,5.46,3.45c4.71,0,9.78-7.62,12.13-18.22l.94-4.21,1.85,2.09c10.14,11.5,18.11,27.17,19.47,38.32l.36,2.91L402,254a32.79,32.79,0,0,0-9.66-10.15c-6.81-4.5-14-6-33.06-7-17.21-.9-26.95-2.37-36.61-5.52-16.43-5.36-24.72-12.5-44.24-38.11-8.67-11.37-14-17.67-19.36-22.74C246.93,159,235,152.92,219.79,150.55Z"/><path class="cls-2" d="M368.75,176c.44-7.62,1.47-12.65,3.55-17.24a18.13,18.13,0,0,1,1.71-3.3,11.45,11.45,0,0,1-.79,3c-1.52,4.45-1.76,10.55-.72,17.64,1.32,9,2.07,10.29,11.58,20,4.46,4.56,9.65,10.31,11.53,12.78l3.42,4.49-3.42-3.21c-4.18-3.92-13.8-11.57-15.93-12.66-1.42-.74-1.63-.73-2.51.15s-1,2-1.09,7.74c-.18,8.92-1.39,14.65-4.33,20.38-1.59,3.09-1.84,2.43-.4-1.06,1.07-2.61,1.18-3.76,1.17-12.4,0-17.35-2.07-21.53-14.16-28.67-3.06-1.81-8.1-4.42-11.2-5.81a42.08,42.08,0,0,1-5.48-2.67c.34-.34,12.12,3.1,16.87,4.92,7.05,2.72,8.22,3.07,9.07,2.74C368.2,182.54,368.47,180.87,368.75,176Z"/><path class="cls-2" d="M227.92,205.64c-8.5-11.69-13.75-29.61-12.61-43l.35-4.15,1.93.36a48.44,48.44,0,0,1,12.82,4.77c8,4.88,11.52,11.31,15.07,27.82,1,4.84,2.4,10.31,3,12.17,1,3,4.82,9.94,7.92,14.47,2.23,3.26.75,4.8-4.18,4.36C244.7,221.75,234.5,214.7,227.92,205.64Z"/><path class="cls-2" d="M358.45,292.65c-39.68-16-53.65-29.85-53.65-53.25a37.25,37.25,0,0,1,.26-6.26,30.7,30.7,0,0,1,3.41,2.53c8,6.45,17.06,9.21,42,12.85,14.68,2.14,22.94,3.87,30.56,6.39,24.22,8,39.21,24.34,42.78,46.54,1,6.45.43,18.55-1.25,24.93-1.33,5-5.39,14.11-6.46,14.46-.3.1-.59-1-.67-2.6-.41-8.34-4.62-16.46-11.7-22.54C395.69,308.79,384.88,303.29,358.45,292.65Z"/><path class="cls-2" d="M330.6,299.28a70.54,70.54,0,0,0-1.92-8.39l-1-3,1.88,2.11a33.81,33.81,0,0,1,6.4,11.64c1.33,3.8,1.48,4.93,1.47,11.1s-.18,7.34-1.41,10.76a33.94,33.94,0,0,1-8.37,13.32c-7.25,7.38-16.57,11.46-30,13.16-2.33.29-9.15.79-15.14,1.1-15.09.78-25,2.41-34,5.54a7.34,7.34,0,0,1-2.54.61c-.36-.36,5.71-4,10.74-6.4,7.07-3.41,14.12-5.27,29.91-7.9,7.8-1.3,15.85-2.88,17.9-3.51C323.84,333.48,333.77,318.2,330.6,299.28Z"/><path class="cls-2" d="M348.79,331.59c-5.28-11.33-6.49-22.28-3.6-32.48.31-1.09.81-2,1.11-2a10.8,10.8,0,0,1,2.76,1.5c2.43,1.63,7.3,4.39,20.29,11.47,16.19,8.83,25.43,15.67,31.71,23.48a51,51,0,0,1,10.54,24.14c.93,5.39.39,18.34-1,23.76-4.36,17.09-14.48,30.52-28.92,38.35a37.32,37.32,0,0,1-4.22,2.1c-.2,0,.57-2,1.71-4.36,4.86-10.15,5.41-20,1.74-31-2.25-6.73-6.83-15-16.09-28.83C354.07,341.58,351.43,337.28,348.79,331.59Z"/><path class="cls-2" d="M199.74,392.74c14.72-12.43,33-21.26,49.73-24,7.2-1.16,19.18-.7,25.84,1,10.68,2.74,20.23,8.86,25.19,16.15,4.86,7.12,6.94,13.33,9.11,27.15.85,5.45,1.78,10.92,2.07,12.16,1.62,7.16,4.79,12.89,8.72,15.76,6.24,4.57,17,4.85,27.54.73a13.53,13.53,0,0,1,3.46-1.07c.38.38-4.94,3.94-8.69,5.81a29.57,29.57,0,0,1-14.4,3.5c-9.68,0-17.71-4.92-24.41-15a117.16,117.16,0,0,1-6.59-13.15c-7.08-16.14-10.57-21-18.79-26.44-7.15-4.68-16.37-5.52-23.31-2.12-9.12,4.47-11.66,16.12-5.13,23.5a20.2,20.2,0,0,0,11.39,6,12.15,12.15,0,0,0,13.76-12.18c0-4.85-1.87-7.62-6.56-9.74-6.41-2.89-13.3.49-13.27,6.52,0,2.56,1.13,4.18,3.71,5.34,1.65.75,1.69.81.34.53-5.88-1.22-7.26-8.31-2.53-13,5.68-5.65,17.42-3.16,21.45,4.56,1.7,3.24,1.89,9.69.42,13.59-3.31,8.72-13,13.31-22.73,10.81-6.65-1.7-9.36-3.54-17.39-11.81-13.95-14.36-19.36-17.15-39.47-20.28l-3.85-.61Z"/><path class="cls-3" d="M94.57,70.93C141.14,127.46,213,215.47,216.51,220.4c3,4.06,1.84,7.72-3.2,10.59a30.68,30.68,0,0,1-11.46,3.21,14.66,14.66,0,0,1-9.62-4.12c-1.89-1.79-9.53-13.2-27.17-40.57-13.49-20.94-24.79-38.31-25.1-38.6-.71-.67-.7-.65,23.72,43.05C179,221.4,184.2,231.1,184.2,232.39c0,2.64-.72,4-4,7.66-5.43,6-7.85,12.86-9.6,26.93-2,15.78-7.49,26.93-22.78,46-9,11.17-10.42,13.21-12.68,17.71-2.85,5.67-3.63,8.85-3.95,16a50,50,0,0,0,2.63,19.69c2,6.33,4.14,10.52,9.54,18.88,4.66,7.22,7.35,12.59,7.35,14.69,0,1.67.31,1.67,7.54,0,17.28-3.91,31.32-10.77,39.21-19.19,4.89-5.2,6-8.08,6.07-15.22,0-4.66-.14-5.64-1.4-8.33-2.05-4.37-5.79-8-14-13.63-10.8-7.39-15.41-13.33-16.69-21.5-1-6.71.17-11.44,6.15-24,6.18-13,7.71-18.48,8.75-31.54.67-8.44,1.59-11.77,4-14.44s4.8-3.73,11.06-4.58c10.21-1.4,16.7-4,22-9,4.64-4.27,6.57-8.38,6.87-14.57l.23-4.7-2.59-3c-9.38-10.93-139.67-154-140.25-154C87.59,62.34,90.68,66.2,94.57,70.93ZM156,355.27a8.31,8.31,0,0,0-2.55-10.94c-3.35-2.23-8.56-1.18-8.56,1.73,0,.88.49,1.53,1.6,2.09,1.85,1,2,2,.53,4.23s-1.36,4.19.33,5.52C150.08,360,154,358.86,156,355.27Z"/><path class="cls-3" d="M237,250.08c-4.79,1.47-9.45,6.54-10.89,11.87-.88,3.25-.38,8.94.94,10.7,2.12,2.84,4.18,3.59,9.75,3.55,10.91-.07,20.39-4.75,21.5-10.6.9-4.8-3.27-11.44-9-14.36C246.33,249.74,240,249.14,237,250.08Zm12.75,10c1.68-2.39.94-5-1.92-6.72-5.45-3.33-13.68-.58-13.68,4.57,0,2.56,4.29,5.36,8.23,5.36C245,263.26,248.58,261.69,249.74,260.05Z"/></svg>