<?xml version="1.0" encoding="utf-8"?>
<!-- Generator: Adobe Illustrator 25.4.1, SVG Export Plug-In . SVG Version: 6.00 Build 0)  -->
<svg version="1.1" id="svg8790" xmlns:svg="http://www.w3.org/2000/svg"
	 xmlns="http://www.w3.org/2000/svg" xmlns:xlink="http://www.w3.org/1999/xlink" x="0px" y="0px" viewBox="0 0 512 512"
	 style="enable-background:new 0 0 512 512;" xml:space="preserve">
<style type="text/css">
	.st0{fill:none;}
	.st1{fill:#E6EAEA;}
	.st2{fill:#365558;}
	.st3{fill:#0295AA;}
	.st4{fill:#CDD4D5;}
	.st5{fill:url(#New_Pattern_Swatch_5);}
	.st6{fill:url(#New_Pattern_Swatch_6);}
	.st7{fill:#11021E;}
	.st8{fill:url(#New_Pattern_Swatch_9);}
	.st9{fill:#FFFFFF;}
	.st10{fill:url(#New_Pattern_Swatch_10);}
</style>
<pattern  y="512" width="128" height="128" patternUnits="userSpaceOnUse" id="New_Pattern_Swatch_10" viewBox="0 -128 128 128" style="overflow:visible;">
	<g>
		<rect y="-128" class="st0" width="128" height="128"/>
		<rect y="-128" class="st1" width="128" height="128"/>
	</g>
</pattern>
<pattern  y="512" width="128" height="128" patternUnits="userSpaceOnUse" id="New_Pattern_Swatch_5" viewBox="0 -128 128 128" style="overflow:visible;">
	<g>
		<rect y="-128" class="st0" width="128" height="128"/>
		<rect y="-128" class="st2" width="128" height="128"/>
	</g>
</pattern>
<pattern  y="512" width="128" height="128" patternUnits="userSpaceOnUse" id="New_Pattern_Swatch_6" viewBox="0 -128 128 128" style="overflow:visible;">
	<g>
		<rect y="-128" class="st0" width="128" height="128"/>
		<rect y="-128" class="st3" width="128" height="128"/>
	</g>
</pattern>
<pattern  y="512" width="128" height="128" patternUnits="userSpaceOnUse" id="New_Pattern_Swatch_9" viewBox="0 -128 128 128" style="overflow:visible;">
	<g>
		<rect y="-128" class="st0" width="128" height="128"/>
		<rect y="-128" class="st4" width="128" height="128"/>
	</g>
</pattern>
<g id="g8788" transform="scale(16)">
	<path class="st5" d="M14.2,6.2l0.4-0.2l0.4-0.2l0.4-0.2l0.4-0.2l0.1-0.1V0C7,0.1,0,7.2,0,16s7,15.9,15.8,16v-5.5l0,0l-0.5-0.2
		l-0.3-0.2l-0.7-0.3l-0.3-0.2l-0.3-0.2l-0.3-0.2l-0.3-0.2l-0.3-0.2l-0.3-0.2l-0.3-0.2l-1.4-0.7v-5.1h1v4.5l0,0l0.3,0.2l0.3,0.2
		l0.3,0.2l0.3,0.2l0.3,0.2l0.3,0.2l0.3,0.2l0.3,0.2l0.7,0.3l0.3,0.2l0.3,0.2l0.2,0.1v-2.7l-0.5-0.4v-2.8l-0.1-0.1l-0.6-0.6L14,18.3
		l-0.6-0.6l-0.6-0.6l-0.6-0.6h3.5v-6.3l0,0l-0.5-0.2l-0.5-0.3l-0.5-0.3l-0.5-0.3L13,8.6l-0.5-0.3l-0.4-0.3l0,0l-0.5,0.3l-0.5,0.3
		l-0.9,0.6L9.8,9.5L9.3,9.8l-0.5,0.3l-0.5,0.3l-0.5,0.3l-0.4,0.2l0,2.8H7.4l-0.5,0H6.5l0-3.4L7,10.1l0.5-0.3l0.5-0.3l0.5-0.3
		l0.5-0.3l0.5-0.3l0.5-0.3l0.5-0.3l0.5-0.3l0.5-0.3l0.5-0.3L12,7l0,0l0.5,0.3L13,7.5l0.5,0.3L13.9,8l0.5,0.3l0.5,0.3l0.5,0.3
		l0.5,0.3V6.4l-0.1,0.1l-0.4,0.2l-0.4,0.2L14.5,7l-0.1,0.1L14.2,7l-0.4-0.2l-0.4-0.2l0.4-0.2L14.2,6.2z M6.5,15.5l0.3-0.2l0.4-0.2
		L7.6,15L8,14.8l0.4-0.2l0.4-0.2l0.4-0.2L9.5,14l0.4-0.2l0.4-0.2l0.4-0.2l0.2-0.1h3.5v2.4l-3.1-1.4l0,0l-0.2-0.1h0l-0.4,0.2
		l-0.4,0.2l-0.4,0.2l-0.4,0.2l-0.4,0.2l-0.4,0.2l-0.4,0.2L8,15.8L7.6,16l-0.1,0l0,4.4l0.1,0.1L8,20.8l0.4,0.3l0.4,0.3l0.4,0.3
		l0.4,0.3l0,0l0,0l-0.4,0.5l-0.2,0.3l-0.2-0.1l-0.4-0.3l-0.7-0.5l-0.4-0.2l-0.4-0.3L6.5,21L6.5,15.5z"/>
	<path class="st6" d="M16,0c-0.1,0-0.2,0-0.2,0v5.3l0.1,0L16,5.4l0.4,0.2l0.4,0.2L17.1,6l0.4,0.2l0.4,0.2l0.4,0.2l0.4,0.2L19,7.1
		l0.4,0.2l0.4,0.2l0.4,0.2L20.4,8l0.4,0.2l0.4,0.2v5.9l-2.1,0.8l-0.2,0.1l-0.1,0l-0.5,0.2l-0.1,0l-0.1,0l-0.5,0.2l-0.1,0l-0.1,0
		l0-2.5l0,0v0h2.6V9l-0.1-0.1l-0.7-0.4L19,8.2l-0.7-0.4l-0.4-0.2l-0.7-0.4l-0.7-0.4L16,6.5l-0.2-0.1l0,0v2.7l0,0l0.5,0.3l-0.5,0.8
		l0,0v6.3h3.5l-0.6,0.6l-0.6,0.6l-0.6,0.6l-0.6,0.6l-0.6,0.6l-0.1,0.1v2.3l0.1,0.1l0.6,0.5l0.6,0.4l0.6,0.5l0.6,0.4l0.2,0.2l0.3-0.2
		l0.6-0.4l0.6-0.4l0.6-0.4l0.6-0.4l0.6-0.4l0.6-0.4l0.6-0.4l0.1-0.1l0-2.1l0.5,0l0.6,0l-0.1,2.6l-0.5,0.4L23.3,22l-0.6,0.4l-0.6,0.4
		l-0.6,0.4L21,23.7l-0.6,0.4l-0.6,0.4l-0.6,0.4l-0.4,0.3L18.7,25l-0.6-0.4l-0.6-0.5l-0.6-0.4l-0.6-0.5l-0.6-0.4l0,0v2.7l0,0l0.2-0.1
		l0.3-0.1l0.3-0.1L17,25l0.3-0.1l0,0.1l0.3,0.9l-0.3,0.1L17,26l-0.3,0.1l-0.3,0.1l-0.3,0.1l-0.2,0.1V32c0.1,0,0.2,0,0.2,0
		c8.8,0,16-7.2,16-16S24.8,0,16,0z M25.2,16.8L25,17l-0.2,0.2l-0.2,0.2l-0.2,0.1L24,17.6l-0.2,0.1l-0.2,0.2L23.3,18l-0.2,0.2
		l-0.2,0.1l-0.2,0.2l-0.2,0.1l-0.2,0.2l-0.2,0.2l-0.2,0.2l-0.2,0.1l-0.2,0.2l-0.2,0.1l0-0.1L20.6,19l-0.2-0.4l0.2-0.1l0.2-0.2
		l0.2-0.1l0.2-0.2l0.2-0.1l0.2-0.2l0.2-0.1l0.2-0.2l0.2-0.1l0.2-0.2l0.2-0.1l0.2-0.2l0.2-0.1l0.2-0.2l0.2-0.1l0.2-0.2l0.1-0.1l0-4.5
		l-0.1-0.1L24,11.3l-0.2-0.2l-0.2-0.2l-0.2-0.2l-0.2-0.2l-0.2-0.2l-0.2-0.2L22.5,10l0.1-0.1l0.2-0.3l0.2-0.3l0.1-0.1l0.2,0.1
		l0.2,0.2l0.2,0.2L24,10l0.2,0.2l0.2,0.2l0.2,0.2l0.2,0.2l0.2,0.2l0.2,0.2l0,5.6L25.2,16.8z"/>
	<polygon class="st7" points="17.6,13.8 17.6,15.8 17.6,13.3 17.6,13.3 	"/>
	<polygon class="st7" points="17.6,15.8 17.7,15.7 17.6,15.8 	"/>
	<polygon class="st7" points="18,15.6 18.2,15.5 17.7,15.7 	"/>
	<polygon class="st7" points="18.2,15.5 18.4,15.5 18.3,15.5 	"/>
	<polygon class="st7" points="18.6,15.4 18.8,15.3 18.4,15.5 	"/>
	<polygon class="st7" points="18.8,15.3 19.1,15.2 18.9,15.2 	"/>
	<polygon class="st7" points="21.2,14.3 19.1,15.2 19.3,15.1 19.6,15 19.9,14.9 20.2,14.7 20.5,14.6 20.9,14.5 	"/>
	<polygon class="st7" points="17.6,25.8 17.3,25.9 17,26 16.6,26.2 16.3,26.3 15.9,26.5 15.8,26.5 15.8,25.4 15.8,25.5 15.9,25.4 
		16.3,25.3 16.6,25.1 17,25 17.3,24.9 17.3,24.9 	"/>
	<g id="g8786">
		<polygon class="st8" points="14.2,13.4 10.9,14.4 11.1,14.4 10.9,14.4 10.9,14.4 10.6,14.6 10.2,14.7 9.8,14.9 9.5,15.1 9.1,15.3 
			8.7,15.5 8.3,15.7 8,15.8 7.6,16 7.5,16.1 7.5,20.5 7.6,20.6 8,20.8 8.3,21.1 8.7,21.3 9.1,21.6 9.5,21.9 9.5,21.9 9.5,21.9 
			9.1,22.4 8.9,22.7 8.7,22.6 8.3,22.3 7.6,21.8 7.2,21.5 6.9,21.3 6.5,21 6.5,15.5 6.9,15.3 7.2,15.2 7.6,15 8,14.8 8.3,14.6 
			8.7,14.4 9.1,14.2 9.5,14 9.8,13.8 10.2,13.6 10.6,13.4 10.7,13.3 14.2,13.3 		"/>
		<path id="path8780" class="st9" d="M17.3,24.9L17.3,24.9L17,25l-0.3,0.1l-0.3,0.1l-0.3,0.1l-0.2,0.1l0,0v1.1l0.2-0.1l0.3-0.1
			l0.3-0.1L17,26l0.3-0.1l0.3-0.1L17.3,24.9z"/>
		<polygon class="st10" points="16.2,9.3 15.8,10.2 15.8,10.2 15.8,9.1 15.8,9.1 		"/>
		<polygon class="st10" points="24.5,18.7 24.4,21.2 23.9,21.6 23.3,22 22.7,22.4 22.2,22.9 21.6,23.3 21,23.7 20.4,24.1 19.8,24.5 
			19.2,24.9 18.9,25.2 18.7,25 18.1,24.6 17.5,24.1 16.9,23.7 16.3,23.2 15.8,22.8 15.8,22.8 15.8,16.5 19.2,16.5 18.7,17.1 
			18.1,17.7 17.5,18.3 16.9,18.9 16.3,19.5 16.2,19.6 16.2,21.9 16.3,22 16.9,22.4 17.5,22.9 18.1,23.3 18.7,23.8 18.9,24 
			19.2,23.7 19.8,23.3 20.4,22.9 21,22.5 21.6,22 22.2,21.6 22.7,21.2 23.3,20.8 23.4,20.7 23.4,18.6 23.9,18.6 		"/>
		<polygon class="st8" points="15.8,25.4 15.8,26.5 15.7,26.5 15.2,26.3 14.9,26.1 14.2,25.8 13.9,25.6 13.5,25.4 13.2,25.3 
			12.8,25.1 12.5,24.9 12.2,24.7 11.8,24.6 10.4,23.9 10.4,18.8 11.4,18.8 11.4,23.3 11.5,23.3 11.8,23.5 12.2,23.6 12.5,23.8 
			12.8,24 13.2,24.1 13.5,24.3 13.9,24.5 14.2,24.7 14.9,25 15.2,25.2 15.6,25.4 		"/>
		<polygon class="st8" points="15.8,16.5 15.8,22.8 15.2,22.4 15.2,19.6 15.2,19.6 14.6,18.9 14,18.3 13.4,17.7 12.8,17.1 
			12.3,16.5 		"/>
		<polygon class="st8" points="15.8,9.1 15.8,10.2 15.7,10.2 15.3,9.9 14.8,9.7 14.4,9.4 13.9,9.2 13,8.6 12.5,8.4 12.1,8.1 
			12.1,8.1 11.6,8.4 11.1,8.7 10.2,9.2 9.8,9.5 9.3,9.8 8.8,10.1 8.4,10.4 7.9,10.7 7.5,10.9 7.5,13.7 7.4,13.7 7,13.7 6.5,13.7 
			6.5,10.3 7,10.1 7.4,9.8 7.9,9.5 8.4,9.2 8.8,8.9 9.3,8.6 9.8,8.4 10.2,8.1 10.7,7.8 11.1,7.5 11.6,7.2 12,7 12.1,7 12.5,7.2 
			13,7.5 13.5,7.8 13.9,8 14.4,8.3 14.8,8.5 15.3,8.8 		"/>
		<path id="path8782" class="st9" d="M17.6,15.8L17.6,15.8l0.1-0.1L17.6,15.8z M18.2,15.5L18.2,15.5l0.2-0.1L18.2,15.5z M18.8,15.3
			L18.8,15.3l0.3-0.1L18.8,15.3z"/>
		<polygon class="st10" points="25.5,16.7 25.2,16.8 25,17 24.8,17.1 24.5,17.3 24.3,17.4 24,17.6 23.8,17.7 23.5,17.9 23.3,18 
			23.1,18.2 22.8,18.3 22.6,18.5 22.3,18.6 22.1,18.8 21.8,18.9 21.6,19.1 21.4,19.2 21.1,19.4 20.9,19.5 20.9,19.4 20.6,19 
			20.4,18.7 20.6,18.5 20.9,18.4 21.1,18.2 21.4,18 21.6,17.9 21.8,17.7 22.1,17.6 22.3,17.4 22.6,17.3 22.8,17.1 23.1,17 
			23.3,16.8 23.5,16.7 23.8,16.5 24,16.4 24.3,16.2 24.4,16.1 24.4,11.6 24.3,11.5 24,11.3 23.8,11.1 23.5,10.9 23.3,10.7 
			23.1,10.5 22.8,10.3 22.6,10.1 22.5,10 22.6,9.9 22.8,9.6 23.1,9.3 23.1,9.2 23.3,9.4 23.5,9.6 23.8,9.8 24,10 24.3,10.2 
			24.5,10.4 24.8,10.6 25,10.7 25.2,10.9 25.5,11.1 		"/>
		<polygon class="st10" points="21.2,8.4 21.2,14.3 17.6,13.3 17.6,13.3 20.2,13.3 20.2,9 20.1,8.9 19.3,8.5 19,8.2 18.2,7.8 
			17.9,7.6 17.1,7.1 16.4,6.7 16,6.5 15.8,6.4 15.8,6.4 15.8,5.3 15.8,5.2 16,5.4 16.4,5.6 16.7,5.8 17.1,6 17.5,6.2 17.9,6.4 
			18.2,6.7 18.6,6.9 19,7.1 19.3,7.3 19.7,7.5 20.1,7.7 20.4,8 20.8,8.2 		"/>
		<polygon class="st8" points="15.8,5.3 15.8,6.4 15.6,6.5 15.3,6.7 14.9,6.8 14.5,7 14.4,7.1 14.2,7 13.8,6.8 13.4,6.5 13.8,6.3 
			14.2,6.2 14.5,5.9 14.9,5.7 15.3,5.5 15.6,5.3 		"/>
		<path id="path8784" class="st9" d="M20.9,14.5l-0.3,0.1l-0.3,0.1l-0.3,0.1L19.6,15l-0.3,0.1l-0.1,0.1l2.1-0.8L20.9,14.5z
			 M18.4,15.5l0.5-0.2l-0.2,0.1L18.4,15.5z M17.7,15.7l0.5-0.2L18,15.6L17.7,15.7z M17.6,15.8v-2l0-0.5l0,0L17.6,15.8z"/>
		<polygon class="st10" points="21.2,14.3 20.9,14.5 20.5,14.6 20.2,14.7 19.9,14.9 19.6,15 19.3,15.1 19.1,15.2 18.8,15.3 
			18.6,15.4 18.4,15.5 18.2,15.5 18,15.6 17.7,15.7 17.6,15.8 17.6,13.8 17.6,13.3 		"/>
		<polygon class="st8" points="14.2,15.6 14.2,15.8 11.1,14.4 11.3,14.5 11.4,14.5 11.6,14.6 11.7,14.7 11.9,14.7 12,14.8 
			12.2,14.8 12.5,15 12.7,15 12.8,15.1 13,15.1 13.1,15.2 13.3,15.2 13.5,15.3 13.6,15.4 13.8,15.4 13.9,15.5 14.1,15.5 		"/>
		<polygon class="st8" points="14.2,13.4 14.2,15.6 14.1,15.5 13.9,15.5 13.8,15.4 13.6,15.4 13.5,15.3 13.3,15.2 13.1,15.2 
			13,15.1 12.8,15.1 12.7,15 12.5,15 12.2,14.8 12,14.8 11.9,14.7 11.7,14.7 11.6,14.6 11.4,14.5 11.3,14.5 11.1,14.4 11.1,14.4 
			10.9,14.4 		"/>
	</g>
</g>
</svg>
