<?xml version="1.0" encoding="utf-8"?>
<!-- Generator: Adobe Illustrator 25.4.1, SVG Export Plug-In . SVG Version: 6.00 Build 0)  -->
<svg version="1.1" id="svg9201" xmlns:svg="http://www.w3.org/2000/svg"
	 xmlns="http://www.w3.org/2000/svg" xmlns:xlink="http://www.w3.org/1999/xlink" x="0px" y="0px" viewBox="0 0 512 512"
	 style="enable-background:new 0 0 512 512;" xml:space="preserve">
<style type="text/css">
	.st0{fill:none;}
	.st1{fill:#CDD4D5;}
	.st2{fill:#0295AA;}
	.st3{fill:#365558;}
	.st4{fill:#E6EAEA;}
	.st5{fill:url(#New_Pattern_Swatch_8);}
	.st6{fill:url(#New_Pattern_Swatch_7);}
	.st7{fill:url(#New_Pattern_Swatch_11);}
	.st8{fill:url(#New_Pattern_Swatch_9);}
</style>
<pattern  y="512" width="128" height="128" patternUnits="userSpaceOnUse" id="New_Pattern_Swatch_11" viewBox="0 -128 128 128" style="overflow:visible;">
	<g>
		<rect y="-128" class="st0" width="128" height="128"/>
		<rect y="-128" class="st1" width="128" height="128"/>
	</g>
</pattern>
<pattern  y="512" width="128" height="128" patternUnits="userSpaceOnUse" id="New_Pattern_Swatch_7" viewBox="0 -128 128 128" style="overflow:visible;">
	<g>
		<rect y="-128" class="st0" width="128" height="128"/>
		<rect y="-128" class="st2" width="128" height="128"/>
	</g>
</pattern>
<pattern  y="512" width="128" height="128" patternUnits="userSpaceOnUse" id="New_Pattern_Swatch_8" viewBox="0 -128 128 128" style="overflow:visible;">
	<g>
		<rect y="-128" class="st0" width="128" height="128"/>
		<rect y="-128" class="st3" width="128" height="128"/>
	</g>
</pattern>
<pattern  y="512" width="128" height="128" patternUnits="userSpaceOnUse" id="New_Pattern_Swatch_9" viewBox="0 -128 128 128" style="overflow:visible;">
	<g>
		<rect y="-128" class="st0" width="128" height="128"/>
		<rect y="-128" class="st4" width="128" height="128"/>
	</g>
</pattern>
<g id="g9197">
	<path class="st5" d="M232,81.6l-72,187.2h72l-64,161.6L256,328v184C114.6,512,0,397.4,0,256C0,114.6,114.6,0,256,0v81.6H232z"/>
	<path class="st6" d="M512,256c0,141.4-114.6,256-256,256V328l107.2-126.4h-81.6l91.2-120H256V0C397.4,0,512,114.6,512,256z"/>
	<polygon class="st7" points="256,81.6 256,328 168,430.4 232,268.8 160,268.8 232,81.6 	"/>
	<polygon class="st8" points="281.6,201.6 363.2,201.6 256,328 256,81.6 372.8,81.6 	"/>
</g>
<polyline class="st0" points="256,580 256,512 256,328 "/>
<polyline class="st0" points="256,81.6 256,0 256,-25.8 "/>
</svg>
