<?xml version="1.0" encoding="UTF-8" standalone="no"?>
<svg
   width="512"
   height="512"
   viewBox="0 0 512 512"
   version="1.1"
   id="svg5409"
   xmlns="http://www.w3.org/2000/svg"
   xmlns:svg="http://www.w3.org/2000/svg">
  <defs
     id="defs5413" />
  <g
     fill="none"
     id="g5407"
     transform="scale(16)">
    <circle
       fill="#201a2d"
       cx="16"
       cy="16"
       r="16"
       id="circle5399" />
    <g
       fill="#ffffff"
       id="g5405">
      <path
         d="m 22.818,9.586 -0.6,0.6 a 8.494,8.494 0 0 1 0,11.464 l 0.6,0.6 a 9.352,9.352 0 0 0 0,-12.678 z M 10.2,9.638 a 8.494,8.494 0 0 1 11.464,0 l 0.6,-0.6 a 9.352,9.352 0 0 0 -12.678,0 z M 9.638,21.656 a 8.494,8.494 0 0 1 0,-11.458 l -0.6,-0.6 a 9.352,9.352 0 0 0 0,12.678 z m 12.018,0.554 a 8.494,8.494 0 0 1 -11.464,0 l -0.6,0.6 a 9.352,9.352 0 0 0 12.678,0 z m -1.942,-8.286 c -0.12,-1.252 -1.2,-1.672 -2.566,-1.8 V 10.4 h -1.056 v 1.692 H 15.248 V 10.4 H 14.2 v 1.736 h -2.142 v 1.13 c 0,0 0.78,-0.014 0.768,0 a 0.546,0.546 0 0 1 0.6,0.464 v 4.752 a 0.37,0.37 0 0 1 -0.128,0.258 0.366,0.366 0 0 1 -0.272,0.092 c 0.014,0.012 -0.768,0 -0.768,0 l -0.2,1.262 h 2.122 v 1.764 h 1.056 V 20.12 h 0.844 v 1.73 h 1.058 v -1.744 c 1.784,-0.108 3.028,-0.548 3.184,-2.218 0.126,-1.344 -0.506,-1.944 -1.516,-2.186 C 19.42,15.4 19.8,14.84 19.714,13.924 Z m -1.48,3.756 c 0,1.312 -2.248,1.162 -2.964,1.162 v -2.328 c 0.716,0.002 2.964,-0.204 2.964,1.166 z m -0.49,-3.28 c 0,1.2 -1.876,1.054 -2.472,1.054 v -2.116 c 0.596,0 2.472,-0.188 2.472,1.062 z"
         id="path5401" />
      <path
         d="M 15.924,26.852 C 9.89,26.851 5,21.959 5,15.925 5,9.892 9.892,5 15.925,5 21.959,5 26.851,9.89 26.852,15.924 A 10.926,10.926 0 0 1 15.924,26.852 Z m 0,-21 c -5.559,0.004 -10.062,4.513 -10.06,10.072 0.002,5.559 4.51,10.064 10.068,10.064 5.559,0 10.066,-4.505 10.068,-10.064 A 10.068,10.068 0 0 0 15.924,5.852 Z"
         id="path5403" />
    </g>
  </g>
</svg>
