<?xml version="1.0" encoding="utf-8"?>
<!-- Generator: Adobe Illustrator 25.4.1, SVG Export Plug-In . SVG Version: 6.00 Build 0)  -->
<svg version="1.1" id="svg5409" xmlns:svg="http://www.w3.org/2000/svg"
	 xmlns="http://www.w3.org/2000/svg" xmlns:xlink="http://www.w3.org/1999/xlink" x="0px" y="0px" viewBox="0 0 512 512"
	 style="enable-background:new 0 0 512 512;" xml:space="preserve">
<style type="text/css">
	.st0{fill:none;}
	.st1{fill:#E6EAEA;}
	.st2{fill:#365558;}
	.st3{fill:#0295AA;}
	.st4{fill:#CDD4D5;}
	.st5{fill:url(#New_Pattern_Swatch_5);}
	.st6{fill:url(#New_Pattern_Swatch_6);}
	.st7{fill:url(#New_Pattern_Swatch_9);}
	.st8{fill:url(#New_Pattern_Swatch_10);}
</style>
<pattern  y="512" width="128" height="128" patternUnits="userSpaceOnUse" id="New_Pattern_Swatch_10" viewBox="0 -128 128 128" style="overflow:visible;">
	<g>
		<rect y="-128" class="st0" width="128" height="128"/>
		<rect y="-128" class="st1" width="128" height="128"/>
	</g>
</pattern>
<pattern  y="512" width="128" height="128" patternUnits="userSpaceOnUse" id="New_Pattern_Swatch_5" viewBox="0 -128 128 128" style="overflow:visible;">
	<g>
		<rect y="-128" class="st0" width="128" height="128"/>
		<rect y="-128" class="st2" width="128" height="128"/>
	</g>
</pattern>
<pattern  y="512" width="128" height="128" patternUnits="userSpaceOnUse" id="New_Pattern_Swatch_6" viewBox="0 -128 128 128" style="overflow:visible;">
	<g>
		<rect y="-128" class="st0" width="128" height="128"/>
		<rect y="-128" class="st3" width="128" height="128"/>
	</g>
</pattern>
<pattern  y="512" width="128" height="128" patternUnits="userSpaceOnUse" id="New_Pattern_Swatch_9" viewBox="0 -128 128 128" style="overflow:visible;">
	<g>
		<rect y="-128" class="st0" width="128" height="128"/>
		<rect y="-128" class="st4" width="128" height="128"/>
	</g>
</pattern>
<g id="g5407" transform="scale(16)">
	<path class="st5" d="M5,15.9c0,6,4.9,10.9,10.9,10.9c0,0,0,0,0,0V32C7.1,32,0,24.8,0,16S7.1,0,15.9,0v5C9.9,5,5,9.9,5,15.9z"/>
	<path class="st5" d="M15.9,16.5v2.3c-0.3,0-0.5,0-0.7,0v-2.3C15.4,16.5,15.7,16.5,15.9,16.5z"/>
	<path class="st6" d="M32,16c0,8.8-7.2,16-16,16c0,0,0,0-0.1,0v-5.1h0c6,0,10.9-4.9,10.9-10.9C26.9,9.9,22,5,15.9,5V0c0,0,0,0,0.1,0
		C24.8,0,32,7.2,32,16z"/>
	<g id="g5405">
		<path class="st7" d="M15.3,13.3v2.1c0.2,0,0.4,0,0.7,0v1c-0.3,0-0.5,0-0.7,0v2.3c0.2,0,0.4,0,0.7,0v1.3h-0.7v1.7h-1.1v-1.8h-2.1
			l0.2-1.3c0,0,0.8,0,0.8,0c0.1,0,0.2,0,0.3-0.1c0.1-0.1,0.1-0.2,0.1-0.3v-4.8c0-0.3-0.3-0.5-0.6-0.5c0,0-0.8,0-0.8,0v-1.1h2.1v-1.7
			h1v1.7h0.7v1.2C15.7,13.3,15.4,13.3,15.3,13.3z"/>
		<path class="st8" d="M20.3,17.9c-0.2,1.7-1.4,2.1-3.2,2.2v1.7h-1.1v-1.7h-0.2v-1.3c0.9,0,2.3-0.1,2.3-1.2c0-1.1-1.4-1.2-2.3-1.2
			v-1c0.8,0,1.8-0.2,1.8-1.1c0-0.9-1-1.1-1.8-1.1v-1.2h0.2v-1.7h1.1v1.7c1.4,0.1,2.4,0.5,2.6,1.8c0.1,0.9-0.3,1.5-0.9,1.8
			C19.8,15.9,20.4,16.5,20.3,17.9z"/>
		<path class="st8" d="M22.3,22.8c-1.8,1.7-4.1,2.5-6.3,2.5v-0.9c2.1,0,4.1-0.7,5.7-2.2L22.3,22.8z"/>
		<path class="st8" d="M22.3,9l-0.6,0.6C20,8.2,18,7.4,15.9,7.4V6.6C18.2,6.6,20.5,7.4,22.3,9z"/>
		<path class="st7" d="M15.9,24.4v0.9c-2.3,0-4.5-0.8-6.3-2.5l0.6-0.6C11.8,23.7,13.9,24.4,15.9,24.4z"/>
		<path class="st8" d="M26.9,15.9c0,6-4.9,10.9-10.9,10.9h0V26h0C21.5,26,26,21.5,26,15.9c0-5.6-4.5-10.1-10.1-10.1h0V5
			C22,5,26.9,9.9,26.9,15.9z"/>
		<path class="st7" d="M5.9,15.9c0,5.6,4.5,10.1,10.1,10.1v0.9c0,0,0,0,0,0C9.9,26.9,5,22,5,15.9C5,9.9,9.9,5,15.9,5v0.9
			c0,0,0,0,0,0C10.4,5.9,5.9,10.4,5.9,15.9z"/>
		<path class="st7" d="M15.9,6.6v0.9c-2.1,0-4.1,0.7-5.7,2.2L9.6,9C11.4,7.4,13.7,6.6,15.9,6.6z"/>
		<path class="st5" d="M15.9,13.3v2.1c-0.3,0-0.5,0-0.7,0v-2.1C15.4,13.3,15.7,13.3,15.9,13.3z"/>
		<path class="st6" d="M17.7,14.4c0,0.9-1,1-1.8,1.1v-2.1C16.7,13.3,17.7,13.5,17.7,14.4z"/>
		<path class="st6" d="M18.2,17.7c0,1-1.4,1.2-2.3,1.2v-2.3C16.9,16.5,18.2,16.6,18.2,17.7z"/>
		<path class="st6" d="M15.9,5.9L15.9,5.9l0,0.7c2.3,0,4.5,0.8,6.3,2.5l-0.6,0.6C20,8.2,18,7.4,15.9,7.4v4.7h0.2v-1.7h1.1v1.7
			c1.4,0.1,2.4,0.5,2.6,1.8c0.1,0.9-0.3,1.5-0.9,1.8c1,0.2,1.6,0.8,1.5,2.2c-0.2,1.7-1.4,2.1-3.2,2.2v1.7h-1.1v-1.7h-0.2v4.3
			c2.1,0,4.1-0.7,5.7-2.2l0.6,0.6c-1.8,1.7-4.1,2.5-6.3,2.5V26h0C21.5,26,26,21.5,26,15.9C26,10.4,21.5,5.9,15.9,5.9z M22.8,22.2
			l-0.6-0.6c3-3.2,3-8.2,0-11.5l0.6-0.6v0C26.1,13.2,26.1,18.7,22.8,22.2z"/>
		<path class="st8" d="M22.8,22.2l-0.6-0.6c3-3.2,3-8.2,0-11.5l0.6-0.6v0C26.1,13.2,26.1,18.7,22.8,22.2z"/>
	</g>
</g>
<path class="st5" d="M254.8,93.6C254.8,93.6,254.8,93.6,254.8,93.6c-89,0.1-161,72.2-161,161.2c0,88.9,72.1,161,161,161v-11.2
	c-36.4,0-72.7-13.2-101.3-39.6l9.6-9.6c26,23.7,58.8,35.6,91.7,35.6v-69h-11v27.8h-16.9v-28.2h-34l3.2-20.2c0,0,12.5,0.2,12.3,0
	c1.6,0.1,3.2-0.4,4.4-1.5c1.2-1,1.9-2.5,2-4.1v-76c-0.7-4.7-4.9-7.9-9.6-7.4c0.2-0.2-12.3,0-12.3,0v-18.1h34.3v-27.8H244v27.1h10.8
	v-74.9c-32.8,0-65.7,11.9-91.6,35.6l-9.8-9.6c28.6-26.4,65-39.6,101.4-39.6V93.6z M154.2,163.2c-47.4,51.9-47.4,131.4,0,183.3
	l-9.6,9.9c-52.8-57.3-52.8-145.5,0-202.8L154.2,163.2z"/>
<path class="st7" d="M154.2,346.5l-9.6,9.9c-52.8-57.3-52.8-145.5,0-202.8l9.6,9.6C106.8,215.1,106.8,294.6,154.2,346.5z"/>
</svg>
