<svg width="112" height="112" viewBox="0 0 112 112" fill="none" xmlns="http://www.w3.org/2000/svg">
<g clip-path="url(#clip0)">
<path d="M56 112C67.0758 112 77.9028 108.716 87.1119 102.562C96.3211 96.4089 103.499 87.6629 107.737 77.4303C111.976 67.1976 113.085 55.9379 110.924 45.0749C108.763 34.212 103.43 24.2338 95.598 16.402C87.7662 8.57027 77.788 3.23679 66.9251 1.07602C56.0621 -1.08475 44.8024 0.0242338 34.5697 4.26274C24.3371 8.50125 15.5911 15.6789 9.4377 24.8881C3.28434 34.0972 0 44.9242 0 56C0 70.8521 5.89998 85.0959 16.402 95.598C26.9041 106.1 41.1479 112 56 112V112Z" fill="#23292F"/>
<path d="M76.49 32.15H84.91L67.4 49.62C64.3568 52.6598 60.2314 54.3673 55.93 54.3673C51.6286 54.3673 47.5032 52.6598 44.46 49.62L27 32.15H35.41L48.71 45.42C50.6375 47.3454 53.2506 48.4269 55.975 48.4269C58.6994 48.4269 61.3125 47.3454 63.24 45.42L76.49 32.15Z" fill="white"/>
<path d="M35.37 80.74H27L44.57 63.16C47.6132 60.1202 51.7386 58.4127 56.04 58.4127C60.3414 58.4127 64.4668 60.1202 67.51 63.16L85.12 80.74H76.71L63.31 67.36C61.3825 65.4346 58.7694 64.3531 56.045 64.3531C53.3206 64.3531 50.7075 65.4346 48.78 67.36L35.37 80.74Z" fill="white"/>
</g>
<defs>
<clipPath id="clip0">
<rect width="112" height="112" fill="white"/>
</clipPath>
</defs>
</svg>
