<?xml version="1.0" encoding="utf-8"?>
<!-- Generator: Adobe Illustrator 25.4.1, SVG Export Plug-In . SVG Version: 6.00 Build 0)  -->
<svg version="1.1" id="svg9409" xmlns:svg="http://www.w3.org/2000/svg"
	 xmlns="http://www.w3.org/2000/svg" xmlns:xlink="http://www.w3.org/1999/xlink" x="0px" y="0px" viewBox="0 0 512 512"
	 style="enable-background:new 0 0 512 512;" xml:space="preserve">
<style type="text/css">
	.st0{fill:none;}
	.st1{fill:#E6EAEA;}
	.st2{fill:#365558;}
	.st3{fill:#0295AA;}
	.st4{fill:#CDD4D5;}
	.st5{fill-rule:evenodd;clip-rule:evenodd;fill:url(#New_Pattern_Swatch_5);}
	.st6{fill-rule:evenodd;clip-rule:evenodd;fill:#A6E000;}
	.st7{fill-rule:evenodd;clip-rule:evenodd;fill:url(#New_Pattern_Swatch_6);}
	.st8{fill-rule:evenodd;clip-rule:evenodd;fill:url(#New_Pattern_Swatch_9);}
	.st9{fill-rule:evenodd;clip-rule:evenodd;fill:url(#New_Pattern_Swatch_10);}
	.st10{fill:url(#New_Pattern_Swatch_5);}
</style>
<pattern  y="512" width="128" height="128" patternUnits="userSpaceOnUse" id="New_Pattern_Swatch_10" viewBox="0 -128 128 128" style="overflow:visible;">
	<g>
		<rect y="-128" class="st0" width="128" height="128"/>
		<rect y="-128" class="st1" width="128" height="128"/>
	</g>
</pattern>
<pattern  y="512" width="128" height="128" patternUnits="userSpaceOnUse" id="New_Pattern_Swatch_5" viewBox="0 -128 128 128" style="overflow:visible;">
	<g>
		<rect y="-128" class="st0" width="128" height="128"/>
		<rect y="-128" class="st2" width="128" height="128"/>
	</g>
</pattern>
<pattern  y="512" width="128" height="128" patternUnits="userSpaceOnUse" id="New_Pattern_Swatch_6" viewBox="0 -128 128 128" style="overflow:visible;">
	<g>
		<rect y="-128" class="st0" width="128" height="128"/>
		<rect y="-128" class="st3" width="128" height="128"/>
	</g>
</pattern>
<pattern  y="512" width="128" height="128" patternUnits="userSpaceOnUse" id="New_Pattern_Swatch_9" viewBox="0 -128 128 128" style="overflow:visible;">
	<g>
		<rect y="-128" class="st0" width="128" height="128"/>
		<rect y="-128" class="st4" width="128" height="128"/>
	</g>
</pattern>
<g id="g9407" transform="scale(16)">
	<path class="st5" d="M14,10V6.4L13.2,6H11v0.6l0.7,0.7V10H8.5v1.2h3.3v6.3c0,0.9,0.3,1.6,0.8,2.2c0.5,0.5,1.5,0.8,2.9,0.8
		c0.2,0,0.4,0,0.6-0.1v1.1c-0.2-0.1-0.4-0.1-0.6-0.1c-0.3,0-0.5,0.1-0.7,0.2c-0.2,0.1-0.4,0.3-0.5,0.5c-0.1,0.2-0.2,0.4-0.2,0.7
		c0,0.8,0.3,1.5,1,2.2c0.3,0.3,0.6,0.5,1,0.7V32C7.2,32,0,24.8,0,16S7.2,0,16,0v10L14,10z"/>
	<path class="st6" d="M15.9,24C16,24.1,16,24.1,15.9,24L15.9,24C16,24,16,24,15.9,24z"/>
	<path class="st7" d="M21.3,20.8c0,0.8-0.1,1.5-0.3,2.1c-0.2,0.6-0.6,1.1-1.1,1.4c-0.5,0.3-1.1,0.5-1.6,0.5c-0.4,0-0.9-0.1-1.3-0.2
		c-0.4-0.1-0.7-0.3-0.9-0.5V24c0.2-0.1,0.4-0.2,0.5-0.4c0.2-0.2,0.3-0.5,0.3-0.9c0-0.3-0.1-0.5-0.2-0.7c-0.1-0.2-0.3-0.4-0.5-0.5
		c0,0-0.1,0-0.1-0.1v-1.1c0.3-0.1,0.7-0.2,1-0.4c0.5-0.3,0.8-0.7,1.1-1.3c0-0.1,0-0.2,0.1-0.3c0-0.2-0.1-0.3-0.2-0.4
		c-0.1-0.1-0.2-0.1-0.3-0.1c-0.1,0-0.1,0-0.2,0.1c-0.1,0-0.1,0.1-0.1,0.2c-0.2,0.3-0.5,0.6-0.9,0.9c-0.2,0.1-0.3,0.2-0.5,0.3v-1.5
		l0.8-0.4c0.6-0.3,1-0.5,1.4-0.5c0.6,0,1.1,0.2,1.6,0.4c0.5,0.3,0.9,0.8,1.1,1.4C21.1,19.2,21.3,19.9,21.3,20.8z"/>
	<polygon class="st7" points="20.4,11.2 16,16.9 16,11.2 	"/>
	<path class="st7" d="M32,16c0,8.8-7.2,16-16,16v-6.4c0.6,0.2,1.3,0.4,2.2,0.4c1,0,1.9-0.2,2.8-0.6c0.8-0.4,1.5-1.1,1.9-1.9
		c0.4-0.8,0.6-1.8,0.6-2.7c0-0.5-0.1-1-0.2-1.5c-0.1-0.5-0.4-1.1-0.7-1.7c-0.4-0.6-0.9-1.1-1.6-1.4c-0.7-0.4-1.3-0.5-1.9-0.5
		c-0.3,0-0.7,0.1-1,0.2l5.2-5.1L22.4,10L16,10V0C24.8,0,32,7.2,32,16z"/>
	<path class="st8" d="M14,11.2v6.3c0,0.5,0.1,0.9,0.3,1.3c0.2,0.3,0.6,0.5,1.1,0.5c0.2,0,0.4,0,0.6-0.1v1.2c-0.2,0-0.4,0.1-0.6,0.1
		c-1.4,0-2.3-0.3-2.9-0.8c-0.5-0.5-0.8-1.3-0.8-2.2v-6.3H8.5V10h3.3V7.3L11,6.6V6h2.2L14,6.4V10l2,0v1.2H14z"/>
	<path class="st9" d="M18.1,18.3c0,0.1,0,0.2-0.1,0.3c-0.3,0.6-0.6,1-1.1,1.3c-0.3,0.2-0.6,0.3-1,0.4v-1.2c0.2-0.1,0.3-0.1,0.5-0.3
		c0.3-0.2,0.6-0.5,0.9-0.9c0-0.1,0.1-0.1,0.1-0.2c0,0,0.1-0.1,0.2-0.1c0.1,0,0.2,0,0.3,0.1C18.1,18,18.1,18.1,18.1,18.3z"/>
	<path class="st8" d="M16,24C16,24,16,24,16,24c0,0.1,0,0.1,0,0.1v1.5c-0.4-0.2-0.7-0.4-1-0.7c-0.7-0.7-1-1.4-1-2.2
		c0-0.3,0.1-0.5,0.2-0.7c0.1-0.2,0.3-0.4,0.5-0.5c0.2-0.1,0.5-0.2,0.7-0.2c0.2,0,0.4,0,0.6,0.1V24z"/>
	<path class="st9" d="M16.8,22.7c0,0.4-0.1,0.6-0.3,0.9c-0.1,0.2-0.3,0.3-0.5,0.4v-2.5c0,0,0.1,0,0.1,0.1c0.2,0.1,0.4,0.3,0.5,0.5
		C16.7,22.2,16.8,22.5,16.8,22.7z"/>
	<path class="st9" d="M23.5,20.8c0,0.9-0.2,1.9-0.6,2.7c-0.4,0.8-1.1,1.5-1.9,1.9c-0.9,0.4-1.8,0.6-2.8,0.6c-0.9,0-1.6-0.1-2.2-0.4
		v-1.5c0.2,0.2,0.5,0.4,0.9,0.5c0.4,0.1,0.9,0.2,1.3,0.2c0.6,0,1.2-0.2,1.6-0.5c0.5-0.3,0.8-0.8,1.1-1.4c0.2-0.6,0.3-1.3,0.3-2.1
		c0-0.9-0.1-1.6-0.4-2.2c-0.2-0.6-0.6-1.1-1.1-1.4c-0.5-0.3-1-0.4-1.6-0.4c-0.4,0-0.8,0.2-1.4,0.5L16,17.6v-0.7l4.4-5.7H16V10l6.4,0
		l0.8,0.8l-5.2,5.1c0.3-0.1,0.6-0.2,1-0.2c0.6,0,1.2,0.2,1.9,0.5c0.7,0.3,1.2,0.8,1.6,1.4c0.4,0.6,0.6,1.2,0.7,1.7
		C23.4,19.8,23.5,20.3,23.5,20.8z"/>
	<polygon class="st8" points="16,16.9 16,17.6 15.8,17.7 15.8,17.2 	"/>
</g>
<path class="st10" d="M252.3,275.2v8.1l3.7-1.8v24.4c-3,1.1-6.2,1.7-9.3,1.7c-7.7,0-13.4-2.7-17.1-8.1c-3.7-5.4-5.6-12.2-5.6-20.5
	V178.5h32v91.9L252.3,275.2z"/>
</svg>
