<?xml version="1.0" encoding="UTF-8" standalone="no"?>
<svg
   viewBox="0 0 512 512"
   version="1.1"
   id="svg9409"
   width="512"
   height="512"
   xmlns="http://www.w3.org/2000/svg"
   xmlns:svg="http://www.w3.org/2000/svg">
  <defs
     id="defs9413" />
  <g
     fill="none"
     fill-rule="evenodd"
     id="g9407"
     transform="scale(16)">
    <circle
       cx="16"
       cy="16"
       r="16"
       fill="#a6e000"
       id="circle9403" />
    <path
       fill="#ffffff"
       d="m 18.19,26 c -1.46,0 -2.524,-0.344 -3.192,-1.03 -0.667,-0.688 -1.001,-1.429 -1.001,-2.223 0,-0.29 0.058,-0.535 0.175,-0.733 a 1.27,1.27 0 0 1 0.477,-0.47 c 0.202,-0.114 0.45,-0.172 0.745,-0.172 0.295,0 0.544,0.058 0.746,0.172 0.202,0.115 0.36,0.271 0.477,0.47 0.117,0.198 0.175,0.443 0.175,0.733 0,0.351 -0.085,0.637 -0.256,0.859 a 1.184,1.184 0 0 1 -0.606,0.435 c 0.202,0.275 0.52,0.47 0.955,0.584 0.435,0.123 0.87,0.184 1.304,0.184 a 2.93,2.93 0 0 0 1.643,-0.481 c 0.489,-0.321 0.85,-0.795 1.082,-1.42 0.233,-0.627 0.35,-1.337 0.35,-2.131 0,-0.863 -0.128,-1.6 -0.384,-2.211 -0.249,-0.619 -0.618,-1.077 -1.107,-1.375 a 2.99,2.99 0 0 0 -1.584,-0.446 c -0.372,0 -0.838,0.152 -1.397,0.458 l -1.025,0.504 v -0.504 l 4.612,-6.048 h -6.382 v 6.277 c 0,0.52 0.116,0.947 0.35,1.283 0.232,0.336 0.59,0.504 1.07,0.504 0.373,0 0.73,-0.122 1.072,-0.367 a 3.76,3.76 0 0 0 0.885,-0.893 0.342,0.342 0 0 1 0.117,-0.15 0.236,0.236 0 0 1 0.151,-0.056 c 0.086,0 0.186,0.042 0.303,0.125 a 0.619,0.619 0 0 1 0.163,0.424 2.92,2.92 0 0 1 -0.058,0.321 c -0.264,0.58 -0.63,1.023 -1.095,1.329 a 2.748,2.748 0 0 1 -1.537,0.458 c -1.382,0 -2.337,-0.267 -2.865,-0.802 -0.528,-0.534 -0.792,-1.26 -0.792,-2.176 V 11.155 H 8.5 V 9.986 h 3.26 V 7.33 L 11.016,6.596 V 6 h 2.166 l 0.815,0.412 v 3.574 l 8.431,-0.023 0.84,0.825 -5.172,5.086 a 3.51,3.51 0 0 1 0.978,-0.23 c 0.56,0 1.188,0.176 1.887,0.528 0.707,0.343 1.25,0.817 1.63,1.42 0.381,0.596 0.626,1.169 0.734,1.719 a 7.16,7.16 0 0 1 0.175,1.466 6.02,6.02 0 0 1 -0.629,2.726 4.037,4.037 0 0 1 -1.91,1.878 A 6.291,6.291 0 0 1 18.19,26 Z"
       id="path9405" />
  </g>
</svg>
