<?xml version="1.0" encoding="utf-8"?>
<!-- Generator: Adobe Illustrator 25.4.1, SVG Export Plug-In . SVG Version: 6.00 Build 0)  -->
<svg version="1.1" id="svg8588" xmlns:svg="http://www.w3.org/2000/svg"
	 xmlns="http://www.w3.org/2000/svg" xmlns:xlink="http://www.w3.org/1999/xlink" x="0px" y="0px" viewBox="0 0 512 512"
	 style="enable-background:new 0 0 512 512;" xml:space="preserve">
<style type="text/css">
	.st0{fill:none;}
	.st1{fill:#E6EAEA;}
	.st2{fill:#365558;}
	.st3{fill:#0295AA;}
	.st4{fill:#CDD4D5;}
	.st5{fill:url(#New_Pattern_Swatch_5);}
	.st6{fill:url(#New_Pattern_Swatch_6);}
	.st7{fill:url(#New_Pattern_Swatch_9);}
	.st8{fill:url(#New_Pattern_Swatch_10);}
</style>
<pattern  y="512" width="128" height="128" patternUnits="userSpaceOnUse" id="New_Pattern_Swatch_10" viewBox="0 -128 128 128" style="overflow:visible;">
	<g>
		<rect y="-128" class="st0" width="128" height="128"/>
		<rect y="-128" class="st1" width="128" height="128"/>
	</g>
</pattern>
<pattern  y="512" width="128" height="128" patternUnits="userSpaceOnUse" id="New_Pattern_Swatch_5" viewBox="0 -128 128 128" style="overflow:visible;">
	<g>
		<rect y="-128" class="st0" width="128" height="128"/>
		<rect y="-128" class="st2" width="128" height="128"/>
	</g>
</pattern>
<pattern  y="512" width="128" height="128" patternUnits="userSpaceOnUse" id="New_Pattern_Swatch_6" viewBox="0 -128 128 128" style="overflow:visible;">
	<g>
		<rect y="-128" class="st0" width="128" height="128"/>
		<rect y="-128" class="st3" width="128" height="128"/>
	</g>
</pattern>
<pattern  y="512" width="128" height="128" patternUnits="userSpaceOnUse" id="New_Pattern_Swatch_9" viewBox="0 -128 128 128" style="overflow:visible;">
	<g>
		<rect y="-128" class="st0" width="128" height="128"/>
		<rect y="-128" class="st4" width="128" height="128"/>
	</g>
</pattern>
<g id="g8586" transform="scale(16)">
	<path class="st5" d="M11.8,8.2c-1.4,2.4-0.6,4.1-0.2,5c0.6,1.1,2.8,2.7,2.8,2.7l0.1-1.7c-2-1.5-2.3-2.7-2-4.2
		c0.6-2.3,2.5-2.7,3.4-2.6v2.3h-0.7v12.6h0.7v2.2c-0.2,0-0.3,0-0.4,0c-1-0.2-1.4-0.2-2.3-1.3c-1.5-2-0.3-3.8-0.3-3.8l0.4,2.1
		l1.3-0.3l-0.8-4.4l-4.3,1l0.3,1.4l1.7-0.3c0,0-0.4,0.9-0.5,1.6c-0.6,3.7,2.5,5.4,3.8,5.4c0.3,0,0.7,0,1,0V32C7.1,31.9,0,24.8,0,16
		S7.1,0.1,15.9,0v6C13.7,6.1,12.4,7.1,11.8,8.2z"/>
	<path class="st6" d="M32,16c0,8.8-7.2,16-16,16c0,0-0.1,0-0.1,0v-6.1c2-0.1,3.2-1.1,3.9-2.1c1.4-2.4,0.7-4.1,0.3-5
		c-0.5-1.1-2.7-2.7-2.7-2.7l-0.2,1.7c2,1.6,2.2,2.7,1.9,4.3c-0.6,2.1-2.2,2.5-3.2,2.5v-2.2h0.7V9.8h-0.7V7.4c0.1,0,0.1,0,0.2,0
		c1,0.2,1.4,0.2,2.3,1.2c1.5,1.9,0.4,3.8,0.4,3.8l-0.5-2.1L17,10.7l0.9,4.4l4.2-1.1l-0.4-1.4L20.1,13c0,0,0.4-0.9,0.4-1.6
		c0.5-3.7-2.7-5.3-4-5.3c-0.2,0-0.4,0-0.7,0V0c0,0,0.1,0,0.1,0C24.8,0,32,7.2,32,16z"/>
	<g id="g8584">
		<rect x="10.1" y="-84.8" class="st7" width="11" height="201.7"/>
		<rect x="10.8" y="-84.8" class="st8" width="11" height="201.7"/>
		<path class="st8" d="M19.8,23.8c-0.7,1-1.9,2-3.9,2.1v-1.4c1,0,2.6-0.5,3.2-2.5c0.3-1.5,0-2.7-1.9-4.3l0.2-1.7
			c0,0,2.2,1.6,2.7,2.7C20.5,19.7,21.2,21.5,19.8,23.8z"/>
		<path class="st8" d="M22.2,14L18,15.1L17,10.7l1.3-0.3l0.5,2.1c0,0,1.1-1.9-0.4-3.8c-0.9-1-1.3-1-2.3-1.2c0,0-0.1,0-0.2,0V6
			c0.2,0,0.4,0,0.7,0c1.3,0.1,4.5,1.6,4,5.3C20.4,12,20.1,13,20.1,13l1.7-0.4L22.2,14z"/>
		<path class="st7" d="M15.9,24.5v1.4c-0.3,0-0.6,0-1,0c-1.3-0.1-4.4-1.8-3.8-5.4c0.1-0.7,0.5-1.6,0.5-1.6l-1.7,0.3l-0.3-1.4l4.3-1
			l0.8,4.4l-1.3,0.3l-0.4-2.1c0,0-1.2,1.8,0.3,3.8c0.9,1,1.3,1.1,2.3,1.3C15.6,24.5,15.7,24.5,15.9,24.5z"/>
		<path class="st7" d="M15.9,6v1.4c-1-0.1-2.8,0.3-3.4,2.6c-0.3,1.6,0,2.7,2,4.2l-0.1,1.7c0,0-2.2-1.6-2.8-2.7
			c-0.4-0.9-1.2-2.6,0.2-5C12.4,7.1,13.7,6.1,15.9,6z"/>
	</g>
</g>
</svg>
