<?xml version="1.0" encoding="UTF-8" standalone="no"?>
<svg
   viewBox="0 0 512 512"
   version="1.1"
   id="svg5616"
   width="512"
   height="512"
   xmlns="http://www.w3.org/2000/svg"
   xmlns:svg="http://www.w3.org/2000/svg">
  <defs
     id="defs5620" />
  <g
     fill="none"
     fill-rule="evenodd"
     id="g5614"
     transform="scale(16)">
    <circle
       cx="16"
       cy="16"
       r="16"
       fill="#ecb244"
       id="circle5610" />
    <path
       fill="#ffffff"
       fill-rule="nonzero"
       d="m 15.096,19.846 h 6.297 v 3.35 h -3.875 c 0.064,0.958 0.097,1.847 0.161,2.804 h -3.261 v -2.77 h -3.876 c 0,-1.093 -0.129,-2.187 0.065,-3.213 0.097,-0.547 0.678,-1.026 1.033,-1.504 a 462.137,462.137 0 0 1 3.714,-4.581 c 0.485,-0.582 0.969,-1.129 1.518,-1.778 h -6.04 v -3.35 h 3.586 V 6 h 3.132 v 2.735 h 3.908 c 0,1.128 0.129,2.222 -0.065,3.248 -0.097,0.547 -0.678,1.026 -1.065,1.504 a 462.138,462.138 0 0 1 -3.714,4.581 37.083,37.083 0 0 1 -1.518,1.778 z"
       id="path5612" />
  </g>
</svg>
