<?xml version="1.0" encoding="utf-8"?>
<!-- Generator: Adobe Illustrator 25.4.1, SVG Export Plug-In . SVG Version: 6.00 Build 0)  -->
<svg version="1.1" id="svg5616" xmlns:svg="http://www.w3.org/2000/svg"
	 xmlns="http://www.w3.org/2000/svg" xmlns:xlink="http://www.w3.org/1999/xlink" x="0px" y="0px" viewBox="0 0 512 512"
	 style="enable-background:new 0 0 512 512;" xml:space="preserve">
<style type="text/css">
	.st0{fill:none;}
	.st1{fill:#E6EAEA;}
	.st2{fill:#365558;}
	.st3{fill:#0295AA;}
	.st4{fill:#CDD4D5;}
	.st5{fill-rule:evenodd;clip-rule:evenodd;fill:url(#New_Pattern_Swatch_5);}
	.st6{fill-rule:evenodd;clip-rule:evenodd;fill:url(#New_Pattern_Swatch_6);}
	.st7{fill:url(#New_Pattern_Swatch_5);}
	.st8{fill:url(#New_Pattern_Swatch_9);}
	.st9{fill:url(#New_Pattern_Swatch_10);}
</style>
<pattern  y="512" width="128" height="128" patternUnits="userSpaceOnUse" id="New_Pattern_Swatch_10" viewBox="0 -128 128 128" style="overflow:visible;">
	<g>
		<rect y="-128" class="st0" width="128" height="128"/>
		<rect y="-128" class="st1" width="128" height="128"/>
	</g>
</pattern>
<pattern  y="512" width="128" height="128" patternUnits="userSpaceOnUse" id="New_Pattern_Swatch_5" viewBox="0 -128 128 128" style="overflow:visible;">
	<g>
		<rect y="-128" class="st0" width="128" height="128"/>
		<rect y="-128" class="st2" width="128" height="128"/>
	</g>
</pattern>
<pattern  y="512" width="128" height="128" patternUnits="userSpaceOnUse" id="New_Pattern_Swatch_6" viewBox="0 -128 128 128" style="overflow:visible;">
	<g>
		<rect y="-128" class="st0" width="128" height="128"/>
		<rect y="-128" class="st3" width="128" height="128"/>
	</g>
</pattern>
<pattern  y="512" width="128" height="128" patternUnits="userSpaceOnUse" id="New_Pattern_Swatch_9" viewBox="0 -128 128 128" style="overflow:visible;">
	<g>
		<rect y="-128" class="st0" width="128" height="128"/>
		<rect y="-128" class="st4" width="128" height="128"/>
	</g>
</pattern>
<g id="g5614" transform="scale(16)">
	<path class="st5" d="M10.8,8.8v3.4H16v1c-0.2,0.3-0.4,0.5-0.6,0.8c-1.2,1.5-2.5,3-3.7,4.6c-0.4,0.5-0.9,1-1,1.5
		c-0.2,1-0.1,2.1-0.1,3.2h3.9V26H16v6C7.2,32,0,24.8,0,16S7.2,0,16,0v6h-1.6v2.8H10.8z"/>
	<path class="st6" d="M32,16c0,8.8-7.2,16-16,16v-6h1.7c-0.1-1-0.1-1.8-0.2-2.8h3.9v-3.4H16v-1c0.2-0.2,0.4-0.5,0.6-0.7
		c1.2-1.5,2.5-3,3.7-4.6c0.4-0.5,1-1,1.1-1.5c0.2-1,0.1-2.1,0.1-3.2h-3.9V6H16V0C24.8,0,32,7.2,32,16z"/>
	<path class="st6" d="M16.9,12.2c-0.3,0.4-0.6,0.7-0.9,1v-1H16.9z"/>
	<path class="st7" d="M16,18.8v1h-0.9C15.4,19.5,15.7,19.2,16,18.8z"/>
	<path class="st8" d="M16,18.8c-0.3,0.3-0.6,0.7-0.9,1H16V26h-1.6v-2.8h-3.9c0-1.1-0.1-2.2,0.1-3.2c0.1-0.5,0.7-1,1-1.5
		c1.2-1.5,2.5-3.1,3.7-4.6c0.2-0.3,0.4-0.5,0.6-0.8V18.8z"/>
	<path class="st9" d="M21.4,23.2h-3.9c0.1,1,0.1,1.8,0.2,2.8H16v-6.2h5.4V23.2z"/>
	<polygon class="st8" points="16,6 16,12.2 10.8,12.2 10.8,8.8 14.4,8.8 14.4,6 	"/>
	<path class="st9" d="M21.4,12c-0.1,0.5-0.7,1-1.1,1.5c-1.2,1.5-2.5,3.1-3.7,4.6c-0.2,0.3-0.4,0.5-0.6,0.7v-5.6
		c0.3-0.3,0.6-0.7,0.9-1H16V6h1.5v2.7h3.9C21.5,9.9,21.6,11,21.4,12z"/>
</g>
</svg>
