<?xml version="1.0" encoding="utf-8"?>
<!-- Generator: Adobe Illustrator 25.4.1, SVG Export Plug-In . SVG Version: 6.00 Build 0)  -->
<svg version="1.1" id="svg2180" xmlns:svg="http://www.w3.org/2000/svg"
	 xmlns="http://www.w3.org/2000/svg" xmlns:xlink="http://www.w3.org/1999/xlink" x="0px" y="0px" viewBox="0 0 512 512"
	 style="enable-background:new 0 0 512 512;" xml:space="preserve">
<style type="text/css">
	.st0{fill:none;}
	.st1{fill:#E6EAEA;}
	.st2{fill:#365558;}
	.st3{fill:#0295AA;}
	.st4{fill:#CDD4D5;}
	.st5{fill:url(#New_Pattern_Swatch_5);}
	.st6{fill:url(#New_Pattern_Swatch_6);}
	.st7{fill:#49C1BF;}
	.st8{fill:url(#New_Pattern_Swatch_5);fill-opacity:0.304;}
	.st9{fill:url(#New_Pattern_Swatch_6);fill-opacity:0.304;}
	.st10{fill:#FFFFFF;fill-opacity:0.304;}
	.st11{fill:#FFFFFF;fill-opacity:0.646;}
	.st12{fill:url(#New_Pattern_Swatch_6);fill-opacity:0.646;}
	.st13{fill:url(#New_Pattern_Swatch_9);}
	.st14{fill:url(#New_Pattern_Swatch_10);}
</style>
<pattern  y="512" width="128" height="128" patternUnits="userSpaceOnUse" id="New_Pattern_Swatch_10" viewBox="0 -128 128 128" style="overflow:visible;">
	<g>
		<rect y="-128" class="st0" width="128" height="128"/>
		<rect y="-128" class="st1" width="128" height="128"/>
	</g>
</pattern>
<pattern  y="512" width="128" height="128" patternUnits="userSpaceOnUse" id="New_Pattern_Swatch_5" viewBox="0 -128 128 128" style="overflow:visible;">
	<g>
		<rect y="-128" class="st0" width="128" height="128"/>
		<rect y="-128" class="st2" width="128" height="128"/>
	</g>
</pattern>
<pattern  y="512" width="128" height="128" patternUnits="userSpaceOnUse" id="New_Pattern_Swatch_6" viewBox="0 -128 128 128" style="overflow:visible;">
	<g>
		<rect y="-128" class="st0" width="128" height="128"/>
		<rect y="-128" class="st3" width="128" height="128"/>
	</g>
</pattern>
<pattern  y="512" width="128" height="128" patternUnits="userSpaceOnUse" id="New_Pattern_Swatch_9" viewBox="0 -128 128 128" style="overflow:visible;">
	<g>
		<rect y="-128" class="st0" width="128" height="128"/>
		<rect y="-128" class="st4" width="128" height="128"/>
	</g>
</pattern>
<g id="g2178" transform="scale(16)">
	<path class="st5" d="M11.9,6L9,7.3l7,3.4v0L9,7.3v2.9l7,3.4v0.7l-7,3.5v2.9l7,3.4v8C7.2,32,0,24.8,0,16S7.2,0,16,0v8L11.9,6z"/>
	<path class="st6" d="M32,16c0,8.8-7.2,16-16,16v-8l4.1,2v0l2.8-1.3v-9L20.1,17v6.1l-4.1-2v-3.4l4.1-2.1v0l2.8-1.3v-2.9l0,0L16,8V0
		C24.8,0,32,7.2,32,16z"/>
	<polygon class="st5" points="16,17.6 16,21.1 12.6,19.4 	"/>
	<polygon class="st6" points="16.7,13.9 16,14.3 16,13.6 	"/>
	<polygon class="st7" points="20.1,12.7 20.1,12.7 16,10.7 16,10.7 	"/>
	<polygon class="st7" points="23,11.4 20.1,12.7 20.1,12.7 22.9,11.4 23,11.4 	"/>
	<g id="g2176">
		<polygon class="st8" points="16,8 16,10.7 9,7.3 11.9,6 		"/>
		<polygon class="st9" points="22.9,11.4 20.1,12.7 20.1,12.7 16,10.7 16,8 		"/>
		<polygon class="st10" points="23,11.4 20.1,12.7 20.1,12.7 22.9,11.4 		"/>
		<path id="path2172" class="st11" d="M22.9,11.4l-2.8,1.3v0L22.9,11.4L22.9,11.4L22.9,11.4z"/>
		<polygon class="st12" points="23,15.7 23,24.7 20.1,25.9 20.1,17 		"/>
		<polygon class="st12" points="23,11.4 23,14.2 20.1,15.5 20.1,12.7 		"/>
		<polygon class="st13" points="16,10.7 16,13.6 9,10.2 9,7.3 		"/>
		<polygon class="st13" points="16,17.6 12.6,19.4 16,21.1 16,24 9,20.6 9,17.7 16,14.3 		"/>
		<polygon class="st14" points="20.1,12.7 20.1,15.5 16,17.6 16,14.3 16.7,13.9 16,13.6 16,10.7 		"/>
		<polygon class="st14" points="20.1,23.1 20.1,26 16,24 16,21.1 		"/>
	</g>
</g>
</svg>
