<svg xmlns="http://www.w3.org/2000/svg" viewBox="0 0 360 96"><defs><style>.cls-1{fill:#fff;}.cls-2{fill:#e3493c;}</style></defs><title>Superalgos-logo-horz-dark</title><g id="Layer_4" data-name="Layer 4"><path class="cls-1" d="M105.33,66.86a30.85,30.85,0,0,1-3.58-.6V61.84a49.59,49.59,0,0,0,5.92.42,11.06,11.06,0,0,0,2.47-.21,2.63,2.63,0,0,0,1.37-.78,3.4,3.4,0,0,0,.65-1.64,17.68,17.68,0,0,0,.18-2.83,24.15,24.15,0,0,0-.18-3.61,2.16,2.16,0,0,0-.8-1.45,6.77,6.77,0,0,0-2.24-.81l-4.41-.88a3.53,3.53,0,0,1-2.78-2.62,23,23,0,0,1-.7-6.57,16.26,16.26,0,0,1,1-6.24,6,6,0,0,1,2.86-3.17,11.16,11.16,0,0,1,4.91-.93,25.48,25.48,0,0,1,4,.28c1.19.2,2,.36,2.57.5v4.46a17,17,0,0,0-2.08-.28c-1-.09-2-.13-3-.13a11.47,11.47,0,0,0-2.78.26,2.19,2.19,0,0,0-1.37.93,3.69,3.69,0,0,0-.63,1.59,17.44,17.44,0,0,0-.15,2.57,20.72,20.72,0,0,0,.15,3,2.29,2.29,0,0,0,.6,1.3,3.23,3.23,0,0,0,1.48.59l3.9.83a7.33,7.33,0,0,1,2.78,1.15,4.9,4.9,0,0,1,1.63,2.59,19.4,19.4,0,0,1,.57,5.77,21.38,21.38,0,0,1-.85,6.83,5.84,5.84,0,0,1-2.68,3.38,10.64,10.64,0,0,1-4.93,1A36.1,36.1,0,0,1,105.33,66.86Z"/><path class="cls-1" d="M143.91,30.93V51a72.1,72.1,0,0,1-.5,10.12,6.77,6.77,0,0,1-2.31,4.52q-1.82,1.41-6,1.41t-6-1.41a6.68,6.68,0,0,1-2.29-4.49A77.15,77.15,0,0,1,126.3,51V30.93h5.3V53.27c0,2.91.06,4.93.18,6.08a3.46,3.46,0,0,0,.88,2.31,3.76,3.76,0,0,0,2.42.6,3.83,3.83,0,0,0,2.46-.6,3.51,3.51,0,0,0,.89-2.31c.12-1.15.18-3.17.18-6.08V30.93Z"/><path class="cls-1" d="M153.51,30.93h9.19a8.12,8.12,0,0,1,5.15,1.38,6.6,6.6,0,0,1,2.26,3.82,31.56,31.56,0,0,1,.54,6.54,31.4,31.4,0,0,1-.52,6.39,6.7,6.7,0,0,1-2.26,3.9,7.89,7.89,0,0,1-5.17,1.45h-3.89V66.67h-5.3Zm8.36,18.71a3.57,3.57,0,0,0,2.32-.6,3.32,3.32,0,0,0,.93-2,28.88,28.88,0,0,0,.23-4.37,28.19,28.19,0,0,0-.23-4.33,3.29,3.29,0,0,0-.93-2,3.63,3.63,0,0,0-2.32-.6h-3.06V49.64Z"/><path class="cls-1" d="M179.28,66.67V30.93h14.07v4.83h-8.73V46.21h7.64V51h-7.64v10.8h8.73v4.83Z"/><path class="cls-1" d="M214.78,66.67l-3.27-13.29h-4V66.67h-5.29V30.93h9.4a8.5,8.5,0,0,1,5.14,1.3A6.17,6.17,0,0,1,219,35.89a29.17,29.17,0,0,1,.55,6.27,26.68,26.68,0,0,1-.63,6.44,5.71,5.71,0,0,1-2.59,3.63l3.89,14.44Zm-1.69-18.54a3,3,0,0,0,.93-1.87,24.61,24.61,0,0,0,.24-4,24.07,24.07,0,0,0-.24-4,2.87,2.87,0,0,0-1-1.87,3.67,3.67,0,0,0-2.28-.58H207.5V48.7h3.28A3.69,3.69,0,0,0,213.09,48.13Z"/><path class="cls-2" d="M243.19,66.67l-1.51-8.57h-7l-1.46,8.57H228l6.44-35.74h7.68l6.45,35.74Zm-4.84-29.92H238l-2.75,16.63h5.82Z"/><path class="cls-2" d="M257,66.67V30.93h5.35V61.79h7.84v4.88Z"/><path class="cls-2" d="M286.87,51.4V46.73H295V66.05a22.89,22.89,0,0,1-3.64.75,30.25,30.25,0,0,1-4,.29q-4.05,0-6-1.43t-2.76-5.25a63.23,63.23,0,0,1-.77-11.61,60.57,60.57,0,0,1,.8-11.58q.81-3.8,2.88-5.25c1.39-1,3.5-1.45,6.34-1.45a26,26,0,0,1,3.66.28,27.48,27.48,0,0,1,3.46.71V36c-1-.17-2.05-.32-3.12-.44a23.88,23.88,0,0,0-2.44-.18,9.28,9.28,0,0,0-4.24.68c-.77.44-1.32,1.56-1.63,3.35A63.63,63.63,0,0,0,283,48.8q0,6.35.29,9a6.46,6.46,0,0,0,1.17,3.64,3.93,3.93,0,0,0,3,.93,10.23,10.23,0,0,0,2.7-.31V51.4Z"/><path class="cls-2" d="M306.66,65.58q-1.91-1.5-2.39-5a95.6,95.6,0,0,1-.5-11.74,95.52,95.52,0,0,1,.5-11.73,7.43,7.43,0,0,1,2.39-5q1.89-1.5,6.26-1.5t6.31,1.5a7.52,7.52,0,0,1,2.39,5,98.19,98.19,0,0,1,.49,11.73,98.27,98.27,0,0,1-.49,11.74q-.5,3.54-2.39,5t-6.31,1.51Q308.55,67.09,306.66,65.58Zm8.9-4c.49-.45.82-1.56,1-3.32s.26-4.92.26-9.46-.09-7.69-.26-9.45-.5-2.88-1-3.32a3.9,3.9,0,0,0-2.64-.68,3.83,3.83,0,0,0-2.63.68c-.47.44-.79,1.55-1,3.32s-.26,4.92-.26,9.45.09,7.69.26,9.46.49,2.87,1,3.32a3.83,3.83,0,0,0,2.63.68A3.9,3.9,0,0,0,315.56,61.58Z"/><path class="cls-2" d="M334.69,66.86a30.48,30.48,0,0,1-3.58-.6V61.84a49.59,49.59,0,0,0,5.92.42,11,11,0,0,0,2.46-.21,2.66,2.66,0,0,0,1.38-.78,3.5,3.5,0,0,0,.65-1.64,17.68,17.68,0,0,0,.18-2.83,24.15,24.15,0,0,0-.18-3.61,2.13,2.13,0,0,0-.81-1.45,6.69,6.69,0,0,0-2.23-.81l-4.41-.88a3.51,3.51,0,0,1-2.78-2.62,23,23,0,0,1-.7-6.57,16.26,16.26,0,0,1,1-6.24,6,6,0,0,1,2.85-3.17,11.19,11.19,0,0,1,4.91-.93,25.52,25.52,0,0,1,4,.28c1.19.2,2,.36,2.57.5v4.46a17,17,0,0,0-2.08-.28c-1-.09-2-.13-3-.13a11.47,11.47,0,0,0-2.78.26,2.24,2.24,0,0,0-1.38.93,3.56,3.56,0,0,0-.62,1.59,17.23,17.23,0,0,0-.16,2.57,20.35,20.35,0,0,0,.16,3,2.17,2.17,0,0,0,.6,1.3,3.19,3.19,0,0,0,1.48.59l3.89.83a7.26,7.26,0,0,1,2.78,1.15,4.91,4.91,0,0,1,1.64,2.59,19.4,19.4,0,0,1,.57,5.77,21.33,21.33,0,0,1-.86,6.83,5.79,5.79,0,0,1-2.67,3.38,10.66,10.66,0,0,1-4.94,1A35.92,35.92,0,0,1,334.69,66.86Z"/><path class="cls-2" d="M46.72,59c1.23-.38,9.08.88,10.13,1.62,3.3,2.33,8.14,3.58,10.08,1.2s-.09-6.47-3.19-9.59c-.92-.94-3.89-8.18-3.75-9.47.44-4.09-.9-9-3.94-9.46s-5.91,3.86-6.64,7.56c-.25,1.29-5.32,7.5-6.48,8-3.67,1.7-7.14,5.24-6,8.11S43.15,60.05,46.72,59Z"/><path class="cls-2" d="M60.38,16.76c4.93.21,7,10.25,6.21,18.12-.25,2.5,5.56,16.57,6.58,18.88A7.82,7.82,0,0,0,76.37,57C72.61,46.77,72.28,38.6,73,36.69c3.21-8.85,1.8-20.77-3-23.53-3.25-1.87-10.33-2.62-14.85,4.8A7.33,7.33,0,0,1,60.38,16.76Z"/><path class="cls-2" d="M20.91,59.57c-2.28-4.39,5.38-11.2,12.6-14.45C35.8,44.09,45.07,32,46.57,30a7.77,7.77,0,0,0,1.17-4.37c-7,8.35-13.86,12.72-15.86,13.08C22.61,40.34,13,47.52,13,53.06c0,3.74,2.9,10.26,11.58,10.45A7.36,7.36,0,0,1,20.91,59.57Z"/><path class="cls-2" d="M78,73.19c-2.65,4.17-12.39,1-18.81-3.68C57.13,68,42,66,39.53,65.77a7.61,7.61,0,0,0-4.37,1.17c10.7,1.84,18,5.64,19.25,7.19C60.48,81.34,71.5,86.07,76.3,83.3c3.24-1.88,7.43-7.64,3.26-15.26A7.34,7.34,0,0,1,78,73.19Z"/></g></svg>