<?xml version="1.0" encoding="UTF-8" standalone="no"?>
<svg
   xmlns:dc="http://purl.org/dc/elements/1.1/"
   xmlns:cc="http://creativecommons.org/ns#"
   xmlns:rdf="http://www.w3.org/1999/02/22-rdf-syntax-ns#"
   xmlns:svg="http://www.w3.org/2000/svg"
   xmlns="http://www.w3.org/2000/svg"
   xmlns:sodipodi="http://sodipodi.sourceforge.net/DTD/sodipodi-0.dtd"
   xmlns:inkscape="http://www.inkscape.org/namespaces/inkscape"
   version="1.1"
   id="Layer_1"
   x="0px"
   y="0px"
   viewBox="96 11 512 512"
   style="enable-background:new 96 11 512 512;"
   xml:space="preserve"
   sodipodi:docname="add-bot-instance.svg"
   inkscape:version="1.0.1 (3bc2e813f5, 2020-09-07)"
   inkscape:export-filename="E:\Superalgos\Projects\Foundations\Icons\add-bot-instance.png"
   inkscape:export-xdpi="100"
   inkscape:export-ydpi="100"><metadata
   id="metadata57"><rdf:RDF><cc:Work
       rdf:about=""><dc:format>image/svg+xml</dc:format><dc:type
         rdf:resource="http://purl.org/dc/dcmitype/StillImage" /><dc:title></dc:title></cc:Work></rdf:RDF></metadata><defs
   id="defs55" /><sodipodi:namedview
   pagecolor="#ffffff"
   bordercolor="#666666"
   borderopacity="1"
   objecttolerance="10"
   gridtolerance="10"
   guidetolerance="10"
   inkscape:pageopacity="0"
   inkscape:pageshadow="2"
   inkscape:window-width="1920"
   inkscape:window-height="1017"
   id="namedview53"
   showgrid="false"
   inkscape:zoom="0.84765625"
   inkscape:cx="241.10212"
   inkscape:cy="391.40898"
   inkscape:window-x="-8"
   inkscape:window-y="-8"
   inkscape:window-maximized="1"
   inkscape:current-layer="Layer_1" />
<style
   type="text/css"
   id="style2">
	.st0{display:none;fill:#020202;}
	.st1{fill:#FD6A33;}
	.st2{fill:#FF8C29;}
	.st3{fill:#FFD1A9;}
	.st4{fill:#F0353D;}
	.st5{fill:#FFFFFF;}
	.st6{fill:#4ACFD9;}
	.st7{fill:#E6EAEA;}
	.st8{fill:#CDD4D5;}
	.st9{fill:#0295AA;}
	.st10{fill:#9BAAAB;}
	.st11{fill:#365558;}
</style>
<rect
   x="288"
   y="33"
   class="st0"
   width="512"
   height="512"
   id="rect4" />











<g
   id="g894"
   transform="matrix(1.8564177,0,0,1.8564177,-121.87414,-37.740967)"><path
     class="st1"
     d="m 142.26267,172.7553 h -5.7 -5.8 c -7.4,0 -13.4,6.1 -13.4,13.4 v 57.7 c 0,7.4 6.1,13.4 13.4,13.4 h 5.8 5.7 c 3.3,0 6.2,-2.7 6.2,-6.2 v -72.2 c -0.1,-3.2 -2.8,-6.1 -6.2,-6.1 z"
     id="path6" /><path
     class="st2"
     d="m 373.96267,257.2553 h -5.7 c -3.3,0 -6.2,-2.7 -6.2,-6.2 v -72.2 c 0,-3.3 2.7,-6.2 6.2,-6.2 h 5.7 5.8 c 7.4,0 13.4,6.1 13.4,13.4 v 57.8 c 0,7.4 -6.1,13.4 -13.4,13.4 z"
     id="path8" /><path
     class="st2"
     d="m 320.56267,118.9553 h -42.4 c -4.2,0 -8.1,-3.8 -8.1,-8.1 v -1.9 h -14.8 v 133.5 h 3 5.6 c 1.7,0 3,1.4 3,2.9 v 5.6 c 0,1.7 -1.4,3 -3,3 h -5.6 v 0.1 h -3 v 43.2 h 65.3 c 17,0 30.9,-13.9 30.9,-30.9 v -116.7 c 0,-17 -14,-30.9 -30.9,-30.7 z m -11.2,131.9 c 0,1.8 -1.5,3.2 -3.2,3.2 h -16.9 c -1.7,0 -3.2,-1.5 -3.2,-3.2 v -5.2 c 0,-1.8 1.5,-3.2 3.2,-3.2 h 16.8 c 1.8,0 3.2,1.5 3.2,3.2 v 5.2 z m -11.7,-47.7 c -8.5,0 -15.4,-6.9 -15.4,-15.4 0,-8.5 6.9,-15.4 15.4,-15.4 8.5,0 15.4,6.9 15.4,15.4 0,8.5 -6.9,15.4 -15.4,15.4 z"
     id="path10" /><rect
     x="255.26268"
     y="253.95529"
     class="st2"
     width="3"
     height="0.1"
     id="rect12" /><path
     class="st2"
     d="m 274.66267,103.7553 c 6.7,-4.4 4.8,-14.3 -1.6,-19.3 0,0 -17.7,13.1 -17.7,24.4 5.2,0 14.8,0 14.8,0 0,0 -0.9,-1.5 4.5,-5.1 z"
     id="path14" /><path
     class="st1"
     d="m 255.26267,108.9553 h -14.8 v 1.7 c 0,4.7 -4.8,8.1 -9.3,8.1 h -41.1 c -17,0 -30.9,13.9 -30.9,30.9 v 116.8 c 0,17 13.9,30.9 30.9,30.9 h 65.2 v -43.3 h -8.6 c -1.7,0 -3,-1.4 -3,-3 v -5.6 c 0,-1.7 1.4,-3 3,-3 h 4.6 4.1 v -133.5 z m -30.8,142.1 c 0,1.7 -1.4,3 -3,3 h -17.2 c -1.7,0 -3,-1.4 -3,-3 v -5.6 c 0,-1.7 1.4,-3 3,-3 h 17.2 c 1.6,0 3,1.4 3,3 z m -11.6,-48 c -8.5,0 -15.4,-6.9 -15.4,-15.4 0,-8.5 6.9,-15.4 15.4,-15.4 8.5,0 15.4,7 15.4,15.4 0,8.5 -6.9,15.4 -15.4,15.4 z"
     id="path16" /><path
     class="st1"
     d="m 251.16267,86.6553 c -5.7,3.7 -10.7,10 -10.7,22.3 6.9,0 9.6,0 14.8,0 0,-11.5 17.9,-24.6 17.9,-24.6 -6.4,-5 -16.4,-1.4 -22,2.3 z"
     id="path18" /><path
     class="st3"
     d="m 130.66267,223.5553 c 0.6,0.9 0.9,2.1 0.5,3.2 -1.5,6.4 -0.3,13.1 3.3,18.3 1.2,1.7 0.8,4.2 -0.7,5.5 -1.7,1.3 -4.1,1 -5.3,-0.6 -5.1,-7 -6.7,-16 -4.6,-24.6 0.5,-2.1 2.5,-3.4 4.6,-2.9 1.1,-0.1 1.6,0.4 2.2,1.1 z"
     id="path20" /><path
     class="st3"
     d="m 382.46267,222.3553 c 2,-0.5 4.1,0.9 4.6,2.9 2.2,8.6 0.5,17.6 -4.6,24.6 -1.2,1.6 -3.5,1.9 -5.3,0.6 -1.5,-1.3 -2,-3.7 -0.7,-5.5 3.6,-5.3 4.9,-11.9 3.3,-18.3 -0.4,-1.1 -0.1,-2.3 0.5,-3.2 0.6,-0.6 1.2,-1.1 2.2,-1.1 z"
     id="path22" /><path
     class="st4"
     d="m 318.66267,54.9553 -17.3,16.7 c -2.3,2.2 -6,2.2 -8.4,-0.1 -2.3,-2.3 -2.3,-5.9 0.1,-8.1 l 17.3,-16.7 c 2.3,-2.2 6,-2.2 8.4,0.1 2.2,2.2 2.2,5.8 -0.1,8.1 z"
     id="path24" /><path
     class="st4"
     d="m 332.56267,90.2553 c -1.1,1.1 -2.5,1.7 -4.3,1.6 l -22,-0.1 c -3.3,0 -5.9,-2.5 -5.9,-5.9 0,-3.1 2.6,-5.7 6,-5.8 l 22,0.1 c 3.3,0 5.9,2.5 5.9,5.9 0.1,1.7 -0.7,3.2 -1.7,4.2 z"
     id="path26" /><path
     class="st4"
     d="m 282.46267,62.4553 c -1.1,1.1 -2.5,1.7 -4.3,1.6 -3.3,0 -5.9,-2.5 -5.9,-5.9 l 0.1,-21.4 c 0,-3.1 2.6,-5.7 6,-5.8 3.3,0 5.9,2.5 5.9,5.9 v 21.4 c -0.1,1.7 -0.6,3.1 -1.8,4.2 z"
     id="path28" /></g>











</svg>
