<?xml version="1.0" encoding="utf-8"?>
<!-- Generator: Adobe Illustrator 19.0.0, SVG Export Plug-In . SVG Version: 6.00 Build 0)  -->
<svg version="1.1" id="Layer_1" xmlns="http://www.w3.org/2000/svg" xmlns:xlink="http://www.w3.org/1999/xlink" x="0px" y="0px"
	 viewBox="96 11 512 512" style="enable-background:new 96 11 512 512;" xml:space="preserve">
<style type="text/css">
	.st0{fill:#CDD4D5;}
	.st1{fill:#9BAAAB;}
	.st2{display:none;}
	.st3{display:inline;fill:#365558;}
	.st4{fill:#FFFFFF;}
	.st5{fill:#365558;}
</style>
<path class="st0" d="M361.6,247.8c10.3-24.8,74-178.7,74-178.7l-27.7-11.5l-34.9-10l-20.9-1.9c0,0-0.1,0.1-0.2,0.3v209.9
	C358.2,255.9,360.9,249.7,361.6,247.8z"/>
<path class="st0" d="M421.8,101.7c0.1,0,0.2,0.1,0.3,0.1c0,0,18.2-44,22.8-55.1c4.6-11.1,1.8-18.2-9.1-22
	C408.2,15.3,379.9,10.8,352,11v77C375.3,87.9,399,92.2,421.8,101.7z"/>
<path class="st1" d="M342.5,247.8c-10.3-24.8-74-178.7-74-178.7l27.7-11.5l34.9-10l20.9-1.9c0,0,0.1,0.1,0.2,0.3v209.9
	C345.9,255.9,343.3,249.7,342.5,247.8z"/>
<path class="st1" d="M259.2,46.7c4.6,11.1,22.8,55.1,22.8,55.1c0.1,0,0.2-0.1,0.3-0.1c22.8-9.5,46.5-13.8,69.7-13.7V11
	c-27.9-0.1-56.1,4.3-83.8,13.7C257.4,28.5,254.6,35.6,259.2,46.7z"/>
<g class="st2">
	<path class="st3" d="M703,92.8c1.1-4.3-1.5-8.7-5.8-9.9c-4.3-1.1-8.7,1.5-9.9,5.8l-9.4,36.2c5.2,1.1,10.5,2.5,15.7,4.1L703,92.8z"
		/>
	<path class="st3" d="M666.1,85.2c0.3-4.5-3-8.3-7.4-8.7c-4.5-0.4-8.3,3-8.7,7.4l-2.9,37.3c5.4,0.2,10.7,0.6,16.1,1.3L666.1,85.2z"
		/>
	<path class="st3" d="M577.1,92.8c-1.1-4.3,1.5-8.7,5.8-9.9c4.3-1.1,8.7,1.5,9.9,5.8l9.4,36.2c-5.2,1.1-10.5,2.5-15.7,4.1
		L577.1,92.8z"/>
	<path class="st3" d="M614.1,85.2c-0.3-4.5,3-8.3,7.4-8.7c4.5-0.4,8.3,3,8.7,7.4l2.9,37.3c-5.4,0.2-10.7,0.6-16.1,1.3L614.1,85.2z"
		/>
</g>
<g>
	<path class="st4" d="M417.7,40.8c1.5,0.4,3.1,0.2,4.6-0.6s2.6-2.1,3-3.6c0.8-2.8-0.7-6.2-3.5-7.4c-0.2-0.1-0.5-0.2-0.7-0.3
		c-6.9-2.1-13.8-3.8-20.7-5.2l-2.5,12.1C404.7,37.2,411.2,38.9,417.7,40.8z"/>
	<path class="st4" d="M378.1,32.7c-1.5-0.2-3-1-4.1-2.3s-1.6-2.9-1.4-4.5c0.3-2.9,3.1-5.4,6.1-5.5c0.2,0,0.5,0,0.7,0
		c7.1,0.8,14.2,1.9,21.1,3.3L398,35.8C391.5,34.5,384.8,33.5,378.1,32.7z"/>
</g>
<path class="st5" d="M403.4,56.7c1.5-8.2-4-16-12.2-17.5c-0.9-0.2-1.8-0.2-2.7-0.2c-7.3,0-13.5,5.2-14.9,12.5L367,88.7
	c10.2,0.9,20.1,2.6,29.7,5.2L403.4,56.7z"/>
<path class="st5" d="M328.2,51.5C327,44.3,320.8,39,313.5,39c-0.9,0-1.8,0.1-2.7,0.2c-8.1,1.5-13.6,9.3-12.3,17.4l6.6,37.4
	c9.6-2.5,19.5-4.3,29.7-5.2L328.2,51.5z"/>
</svg>
