<?xml version="1.0" encoding="utf-8"?>
<!-- Generator: Adobe Illustrator 19.0.0, SVG Export Plug-In . SVG Version: 6.00 Build 0)  -->
<svg version="1.1" id="Layer_1" xmlns="http://www.w3.org/2000/svg" xmlns:xlink="http://www.w3.org/1999/xlink" x="0px" y="0px"
	 viewBox="96 11 512 512" style="enable-background:new 96 11 512 512;" xml:space="preserve">
<style type="text/css">
	.st0{fill:#CDD4D5;}
	.st1{fill:#9BAAAB;}
	.st2{display:none;}
	.st3{display:inline;fill:#365558;}
	.st4{fill:#FFFFFF;}
	.st5{fill:#365558;}
</style>
<path class="st0" d="M566.5,267.4v-29.9l-4.1-36l-6.2-20c0,0-51.9-8.8-47.8-1.8c3.8,6.6,0.3,14.5-5.5,14.5H352.1v73.2H566.5z"/>
<path class="st1" d="M137.7,267.4v-29.9l4.1-36l6.2-20c0,0,51.9-8.8,47.8-1.8c-3.8,6.6-0.3,14.5,5.5,14.5h150.8v73.2H137.7z"/>
<path class="st0" d="M531.1,267c0,0.1,0,0.2,0,0.4c0,0,47.6,0,59.6,0s17.5-5.3,16.8-16.8C599.1,116.8,488,11,352.1,11v77
	C451,88,531.1,168.1,531.1,267z"/>
<path class="st1" d="M172.9,267c0,0.1,0,0.2,0,0.4c0,0-47.6,0-59.6,0s-17.5-5.3-16.8-16.8C105,116.8,216.1,11,351.9,11v77
	C253.1,88,172.9,168.1,172.9,267z"/>
<g class="st2">
	<path class="st3" d="M950.5,281.4c4.4-0.8,7.3-5,6.6-9.4c-0.8-4.4-5-7.3-9.4-6.6l-36.8,6.5c1.2,5.2,2.1,10.5,2.8,15.9L950.5,281.4z
		"/>
	<path class="st3" d="M942.1,244.6c4.2-1.5,6.4-6.2,4.8-10.4c-1.5-4.2-6.2-6.4-10.4-4.8l-35.1,12.8c2.1,5,3.9,10,5.5,15.2
		L942.1,244.6z"/>
	<path class="st3" d="M927.4,209.9c3.9-2.2,5.2-7.2,3-11c-2.2-3.9-7.2-5.2-11-3L887,214.6c2.9,4.5,5.6,9.2,8.1,14L927.4,209.9z"/>
	<path class="st3" d="M907,178.2c3.4-2.9,3.9-8,1-11.4s-8-3.9-11.4-1l-28.7,24.1c3.6,4,7.1,8.1,10.4,12.4L907,178.2z"/>
	<path class="st3" d="M881.3,150.5c2.9-3.4,2.4-8.5-1-11.4s-8.5-2.4-11.4,1l-24.1,28.7c4.3,3.3,8.4,6.7,12.4,10.4L881.3,150.5z"/>
	<path class="st3" d="M851.2,127.8c2.2-3.9,0.9-8.8-3-11s-8.8-0.9-11,3l-18.7,32.4c4.8,2.5,9.5,5.2,14,8.1L851.2,127.8z"/>
	<path class="st3" d="M817.7,110.6c1.5-4.2-0.6-8.8-4.8-10.4s-8.8,0.6-10.4,4.8l-12.8,35.1c5.2,1.6,10.2,3.5,15.2,5.5L817.7,110.6z"
		/>
	<path class="st3" d="M781.6,99.4c0.8-4.4-2.2-8.6-6.6-9.4s-8.6,2.2-9.4,6.6l-6.5,36.8c5.4,0.7,10.7,1.6,15.9,2.8L781.6,99.4z"/>
	<path class="st3" d="M736.1,132V86.7l0,0c-4.5,0-8.1,3.6-8.1,8.1v37.4C730.7,132.1,733.4,132,736.1,132z"/>
	<path class="st3" d="M744.2,132.2V94.8c0-4.5-3.6-8.1-8.1-8.1V132C738.8,132,741.5,132.1,744.2,132.2z"/>
	<path class="st3" d="M706.5,96.6c-0.8-4.4-5-7.3-9.4-6.6c-4.4,0.7-7.3,5-6.6,9.4l6.5,36.8c5.2-1.2,10.5-2.1,15.9-2.8L706.5,96.6z"
		/>
	<path class="st3" d="M669.7,105c-1.5-4.2-6.2-6.4-10.4-4.8c-4.2,1.5-6.4,6.2-4.8,10.4l12.8,35.1c5-2.1,10-3.9,15.2-5.5L669.7,105z"
		/>
	<path class="st3" d="M635,119.7c-2.2-3.9-7.2-5.2-11-3c-3.9,2.2-5.2,7.2-3,11l18.7,32.4c4.5-2.9,9.2-5.6,14-8.1L635,119.7z"/>
	<path class="st3" d="M615,179.2c4-3.6,8.1-7.1,12.4-10.4l-24.1-28.7c-2.9-3.4-8-3.9-11.4-1s-3.9,8-1,11.4L615,179.2z"/>
	<path class="st3" d="M565.2,178.2l28.7,24.1c3.3-4.3,6.7-8.4,10.4-12.4l-28.7-24.1c-3.4-2.9-8.5-2.4-11.4,1
		C561.4,170.2,561.8,175.3,565.2,178.2z"/>
	<path class="st3" d="M544.8,209.9l32.4,18.7c2.5-4.8,5.2-9.5,8.1-14l-32.4-18.7c-3.9-2.2-8.8-0.9-11,3
		C539.6,202.7,540.9,207.6,544.8,209.9z"/>
	<path class="st3" d="M530.1,244.6l35.1,12.8c1.6-5.2,3.5-10.2,5.5-15.2l-35.1-12.8c-4.2-1.5-8.8,0.6-10.4,4.8
		C523.8,238.5,525.9,243.1,530.1,244.6z"/>
	<path class="st3" d="M521.7,281.4l36.8,6.5c0.7-5.4,1.6-10.7,2.8-15.9l-36.8-6.5c-4.4-0.8-8.6,2.2-9.4,6.6
		C514.3,276.5,517.3,280.6,521.7,281.4z"/>
</g>
<path class="st4" d="M426,42.1c17,5.8,33.5,13.5,49.1,23.1c1.3,0.8,3,1.1,4.6,0.7c1.7-0.4,3-1.3,3.9-2.7c1.5-2.5,0.9-6.2-1.4-8.1
	c-0.2-0.2-0.4-0.3-0.6-0.4c-16.5-10.2-33.8-18.3-51.8-24.3c-18-5.8-36.8-9.6-56.1-11.2c-0.2,0-0.5,0-0.7,0c-3,0.2-5.7,2.7-5.9,5.6
	c-0.1,1.5,0.4,3.1,1.5,4.4s2.6,2.1,4.1,2.2C391.1,33,408.9,36.6,426,42.1z"/>
<path class="st5" d="M568.4,187.9c-2.1-6-7.8-10-14.2-10c-1.8,0-3.6,0.3-5.3,1l-35.5,12.9c4.2,9.1,7.7,18.5,10.3,28.3l35.6-13
	c3.8-1.4,6.8-4.1,8.5-7.8C569.6,195.8,569.7,191.7,568.4,187.9z"/>
<path class="st5" d="M526.4,139.5c6.4-5.4,7.2-15,1.8-21.3c-2.9-3.4-7.1-5.4-11.6-5.4c-3.6,0-7,1.3-9.7,3.5l-29.1,24.4
	c7.1,7.1,13.6,14.9,19.4,23.1L526.4,139.5z"/>
<path class="st5" d="M472.2,87.2c2-3.5,2.5-7.6,1.4-11.4c-1.1-3.9-3.6-7.1-7.1-9.1c-2.3-1.3-4.9-2-7.5-2c-5.4,0-10.4,2.9-13,7.6
	L427.2,105c9.2,4.3,17.9,9.4,26.1,15.1L472.2,87.2z"/>
<path class="st5" d="M403.4,56.7c1.5-8.2-4-16-12.2-17.5c-0.9-0.2-1.8-0.2-2.7-0.2c-7.3,0-13.5,5.2-14.9,12.5L367,88.7
	c10.2,0.9,20.1,2.6,29.7,5.2L403.4,56.7z"/>
<path class="st5" d="M328.2,51.5C327,44.3,320.8,39,313.5,39c-0.9,0-1.8,0.1-2.7,0.2c-8.1,1.5-13.6,9.3-12.3,17.4l6.6,37.4
	c9.6-2.5,19.5-4.3,29.7-5.2L328.2,51.5z"/>
<path class="st5" d="M255.9,72.1c-2.7-4.6-7.6-7.5-13-7.5c-2.6,0-5.2,0.7-7.5,2c-3.5,2-6,5.2-7.1,9.1s-0.5,8,1.5,11.5l19,32.9
	c8.2-5.7,17-10.8,26.1-15.1L255.9,72.1z"/>
<path class="st5" d="M195.1,116.4c-2.7-2.3-6.2-3.5-9.7-3.5c-4.5,0-8.7,2-11.5,5.4c-5.3,6.3-4.5,15.8,1.9,21.3l29,24.3
	c5.8-8.2,12.3-16,19.4-23.1L195.1,116.4z"/>
<path class="st5" d="M153,178.9c-1.7-0.6-3.4-1-5.2-1c-6.3,0-12,4-14.1,10c-2.8,7.9,1.1,16.3,8.9,19.3l35.7,13
	c2.6-9.8,6.1-19.3,10.3-28.4L153,178.9z"/>
</svg>
