<?xml version="1.0" encoding="utf-8"?>
<!-- Generator: Adobe Illustrator 19.0.0, SVG Export Plug-In . SVG Version: 6.00 Build 0)  -->
<svg version="1.1" id="Layer_1" xmlns="http://www.w3.org/2000/svg" xmlns:xlink="http://www.w3.org/1999/xlink" x="0px" y="0px"
	 viewBox="96 11 512 512" style="enable-background:new 96 11 512 512;" xml:space="preserve">
<style type="text/css">
	.st0{display:none;fill:#9BAAAB;}
	.st1{display:none;fill:#CDD4D5;}
	.st2{fill:#CDD4D5;}
	.st3{fill:#9BAAAB;}
	.st4{fill:#365558;}
	.st5{display:none;fill:#365558;}
	.st6{display:none;}
	.st7{display:inline;fill:#365558;}
	.st8{fill:#FFFFFF;}
	.st9{fill:#F0353D;}
</style>
<path class="st0" d="M762.7,372H929v-78H762.7c-4.7,0-7.6-7.9-5.5-14.6S722,266.6,722,266.6l-8.4,36.8v59.2l4.1,16l6.2,20
	c0,0,35.3-4.6,33.2-12.1S756.9,372,762.7,372z"/>
<path class="st1" d="M1093.4,372H927.1v-78h166.3c4.7,0,7.6-7.9,5.5-14.6c-2.1-6.7,35.1-12.8,35.1-12.8l8.4,36.8v59.2l-4.1,16
	l-6.2,20c0,0-35.3-4.6-33.2-12.1C1101.1,379.1,1099.2,372,1093.4,372z"/>
<path class="st2" d="M352.5,446v77c47.4,0,91.8-12.9,129.9-35.4l-57.1-57.1C403.1,440.5,378.4,446,352.5,446z"/>
<path class="st2" d="M608.5,267c0-141.4-114.6-256-256-256v77c98.9,0,179,80.1,179,179c0,26.5-5.8,51.6-16.1,74.2l56.9,56.9
	C595.3,359.8,608.5,315,608.5,267z"/>
<path class="st1" d="M860.4,431.2l-56.9-56.9c-18.1,39.7-50.2,71.5-90.1,89.3l57.1,57.1C807.4,498.8,838.3,468,860.4,431.2z"/>
<path class="st3" d="M96.5,267c0,141.4,114.6,256,256,256v-77c-98.9,0-179-80.1-179-179c0-26,5.5-50.6,15.4-72.9L131.8,137
	C109.4,175.2,96.5,219.6,96.5,267z"/>
<path class="st3" d="M352.5,88V11c-48,0-92.8,13.2-131.2,36.1l56.9,56.9C300.9,93.8,326,88,352.5,88z"/>
<path class="st0" d="M566.2,137.1l-56.9-56.9c-36.8,22-67.6,53-89.4,89.9l57.1,57.1C494.7,187.3,526.6,155.2,566.2,137.1z"/>
<path class="st4" d="M568.7,282.1c8.3,0,15.1-6.8,15.1-15.1c0-8.3-6.8-15.1-15.1-15.1h-37.9c0.4,5,0.6,10,0.6,15.1
	s-0.2,10.1-0.6,15.1H568.7z"/>
<path class="st4" d="M560.8,207.1c3.8-1.4,6.8-4.1,8.5-7.8c1.8-3.5,1.9-7.6,0.6-11.4c-2.1-6-7.8-10-14.2-10c-1.8,0-3.6,0.3-5.3,1
	l-35.5,12.9c4.2,9.1,7.7,18.5,10.3,28.3L560.8,207.1z"/>
<path class="st4" d="M527.9,139.5c6.4-5.4,7.2-15,1.8-21.3c-2.9-3.4-7.1-5.4-11.6-5.4c-3.6,0-7,1.3-9.7,3.5l-29.1,24.4
	c7.1,7.1,13.6,14.9,19.4,23.1L527.9,139.5z"/>
<path class="st4" d="M473.7,87.2c2-3.5,2.5-7.6,1.4-11.4c-1.1-3.9-3.6-7.1-7.1-9.1c-2.3-1.3-4.9-2-7.5-2c-5.4,0-10.4,2.9-13,7.6
	L428.7,105c9.2,4.3,17.9,9.4,26.1,15.1L473.7,87.2z"/>
<path class="st4" d="M404.9,56.7c1.5-8.2-4-16-12.2-17.5c-0.9-0.2-1.8-0.2-2.7-0.2c-7.3,0-13.5,5.2-14.9,12.5l-6.6,37.2
	c10.2,0.9,20.1,2.6,29.7,5.2L404.9,56.7z"/>
<path class="st4" d="M306.6,94c9.6-2.5,19.5-4.3,29.7-5.2l-6.6-37.3C328.5,44.3,322.3,39,315,39c-0.9,0-1.8,0.1-2.7,0.2
	c-8.1,1.5-13.6,9.3-12.3,17.4L306.6,94z"/>
<path class="st4" d="M257.4,72.1c-2.7-4.6-7.6-7.5-13-7.5c-1.6,0-3.3,0.3-4.8,0.8l33,33L257.4,72.1z"/>
<path class="st5" d="M517.8,108.7c-1.1,3.9-0.5,8,1.5,11.5l19,32.9c8.2-5.7,17-10.8,26.1-15.1l-3.8-6.6l-33-33
	c-0.9,0.3-1.8,0.7-2.7,1.2C521.4,101.6,518.9,104.8,517.8,108.7z"/>
<path class="st4" d="M186.9,112.9c-4.5,0-8.7,2-11.5,5.4c-5.3,6.3-4.5,15.8,1.9,21.3l29,24.3c5.8-8.2,12.3-16,19.4-23.1l-29.1-24.4
	C193.9,114.1,190.4,112.9,186.9,112.9z"/>
<path class="st4" d="M154.5,178.9c-1.7-0.6-3.4-1-5.2-1c-6.3,0-12,4-14.1,10c-2.8,7.9,1.1,16.3,8.9,19.3l35.7,13
	c2.4-8.9,5.5-17.6,9.2-26l-4.4-4.4L154.5,178.9z"/>
<path class="st4" d="M184.6,189.8l4.4,4.4c0.4-0.8,0.7-1.6,1.1-2.4L184.6,189.8z"/>
<path class="st4" d="M136.3,251.9c-8.3,0-15.1,6.8-15.1,15.1c0,8.3,6.8,15.1,15.1,15.1h37.9c-0.4-5-0.6-10-0.6-15.1
	c-0.1-5.1,0.1-10.1,0.6-15.1H136.3z"/>
<path class="st4" d="M144.1,326.8c-3.8,1.4-6.9,4.2-8.6,7.9c-1.7,3.7-1.8,7.8-0.4,11.5c2.1,5.9,7.8,9.9,14.1,9.9
	c1.8,0,3.6-0.3,5.3-1l35.5-13c-4.2-9.1-7.7-18.5-10.3-28.3L144.1,326.8z"/>
<path class="st4" d="M177.1,394.5c-6.4,5.4-7.2,15-1.8,21.3c2.9,3.4,7.1,5.4,11.6,5.4c3.6,0,7-1.3,9.7-3.5l29.1-24.4
	c-7.1-7.1-13.6-14.9-19.4-23.1L177.1,394.5z"/>
<path class="st4" d="M231.3,446.8c-4.1,7.3-1.6,16.5,5.7,20.5c2.3,1.3,4.9,2,7.5,2c5.4,0,10.4-2.9,13-7.6l18.9-32.7
	c-9.2-4.3-17.9-9.4-26.1-15.1L231.3,446.8z"/>
<path class="st4" d="M300.1,477.3c-1.5,8.2,4,16,12.2,17.5c0.9,0.2,1.8,0.2,2.7,0.2c7.3,0,13.5-5.2,14.9-12.5l6.6-37.4
	c-10.2-0.9-20.1-2.6-29.7-5.2L300.1,477.3z"/>
<path class="st4" d="M398.4,440.1c-9.6,2.5-19.5,4.3-29.7,5.2l6.5,37.4c1.3,7.2,7.6,12.4,15,12.5c0.8,0,1.6-0.1,2.4-0.2
	c8.2-1.3,13.7-9.1,12.4-17.4L398.4,440.1z"/>
<path class="st4" d="M447.5,461.7c2.7,4.7,7.7,7.6,13.1,7.6c1.1,0,2.1-0.1,3.2-0.4l-28.7-28.7L447.5,461.7z"/>
<path class="st5" d="M763.1,491.2c1.1-3.9,0.5-8-1.5-11.5l-19-32.9c-8.2,5.7-17,10.8-26.1,15.1l6.6,11.4l28.7,28.7
	c1.5-0.3,2.9-0.9,4.2-1.6C759.5,498.3,762,495.1,763.1,491.2z"/>
<path class="st4" d="M527.9,394.4l-29-24.4c-5.8,8.2-12.3,16-19.4,23.1l29,24.4c2.7,2.3,6.1,3.6,9.7,3.6c4.5,0,8.7-2,11.6-5.4
	l0.1-0.1C535,409.3,534.2,399.8,527.9,394.4z"/>
<path class="st4" d="M550.7,355.1c1.7,0.6,3.4,0.9,5.1,0.9c6.3,0,11.9-3.8,14.2-9.8l0.1-0.2l0.1-0.2c2.5-7.8-1.6-16.2-9.3-19
	l-35.6-13c-2.6,9.5-5.9,18.7-9.9,27.4l1.6,1.6L550.7,355.1z"/>
<path class="st4" d="M517,342.8l-1.6-1.6c-0.1,0.3-0.3,0.6-0.4,0.9L517,342.8z"/>
<g class="st6">
	<path class="st7" d="M1144.2,324.9h-37.4c0,0.9,0.1,1.7,0.1,2.6c0,0.3,0,0.7,0,1c0,1.5,0.1,3,0.1,4.5s0,3-0.1,4.5c0,0.3,0,0.7,0,1
		c0,0.9-0.1,1.7-0.1,2.6h37.4c4.5,0,8.1-3.6,8.1-8.1S1148.7,324.9,1144.2,324.9z"/>
	<path class="st7" d="M1106.9,327.5c0,0.3,0,0.7,0,1C1106.9,328.2,1106.9,327.9,1106.9,327.5z"/>
	<path class="st7" d="M1106.9,338.5c0-0.3,0-0.7,0-1C1106.9,337.8,1106.9,338.1,1106.9,338.5z"/>
	<path class="st7" d="M1138.8,256.3c-1.5-4.2-6.2-6.4-10.4-4.8l-35.1,12.8c2.1,5,3.9,10,5.5,15.2l35.2-12.9
		C1138.2,265.1,1140.3,260.5,1138.8,256.3z"/>
	<path class="st7" d="M1093.3,264.3c2.1,5,3.9,10,5.5,15.2l0,0C1097.2,274.3,1095.4,269.3,1093.3,264.3L1093.3,264.3z"/>
	<path class="st7" d="M1067.8,221.2c0.6,0.8,1.3,1.6,1.9,2.4c0.2,0.2,0.4,0.4,0.5,0.7l28.7-24.1c3.4-2.9,3.9-8,1-11.4s-8-3.9-11.4-1
		l-28.7,24.1c0.1,0.2,0.3,0.3,0.4,0.5c2.6,2.8,5,5.7,7.4,8.6C1067.7,221.1,1067.7,221.1,1067.8,221.2z"/>
	<path class="st7" d="M1069.7,223.6c-0.6-0.8-1.3-1.6-1.9-2.4C1068.4,222,1069,222.8,1069.7,223.6z"/>
	<path class="st7" d="M1060.2,212.4c2.5,2.8,5,5.7,7.4,8.6C1065.2,218.1,1062.8,215.2,1060.2,212.4z"/>
	<path class="st7" d="M1043.1,149.8c2.2-3.9,0.9-8.8-3-11s-8.8-0.9-11,3l-18.6,32.3c4.8,2.5,9.5,5.2,14,8.1L1043.1,149.8z"/>
	<path class="st7" d="M1024.4,182.3L1024.4,182.3c-4.5-3-9.2-5.7-13.9-8.2l-0.1,0.1C1015.2,176.7,1019.9,179.4,1024.4,182.3z"/>
	<path class="st7" d="M973.5,121.4c0.8-4.4-2.2-8.6-6.6-9.4c-4.4-0.8-8.6,2.2-9.4,6.6l-6.5,36.8c5.4,0.7,10.7,1.6,15.9,2.8
		L973.5,121.4z"/>
	<path class="st7" d="M888.9,158.3c5.2-1.2,10.5-2.1,15.9-2.8l-6.5-36.8c-0.7-4.5-4.9-7.4-9.3-6.6c-4.4,0.8-7.3,5-6.6,9.4
		L888.9,158.3z"/>
	<path class="st7" d="M831.5,182.1c4.5-2.9,9.2-5.6,14-8.1l-18.7-32.4c-2.2-3.8-7.1-5.1-11-2.9c-3.9,2.2-5.2,7.2-3,11L831.5,182.1z"
		/>
	<path class="st7" d="M757.2,200.2l28.6,24.1c3.3-4.3,6.8-8.4,10.4-12.4l-28.6-24.1c-3.5-2.9-8.6-2.4-11.4,1
		C753.3,192.2,753.8,197.3,757.2,200.2z"/>
	<path class="st7" d="M796.3,211.9c-3.7,3.9-7.2,8.1-10.5,12.4h0.1C789.2,220,792.6,215.9,796.3,211.9z"/>
	<path class="st7" d="M722,266.7l35.1,12.8c1.6-5.2,3.5-10.2,5.5-15.2l-35.1-12.8c-4.1-1.6-8.8,0.6-10.3,4.8
		C715.7,260.5,717.8,265.1,722,266.7z"/>
	<path class="st7" d="M749.1,327.5c0-0.9,0.1-1.7,0.1-2.6h-37.4c-4.5,0-8.1,3.6-8.1,8.1s3.6,8.1,8.1,8.1h37.4c0-0.9-0.1-1.7-0.1-2.6
		c0-0.3,0-0.7,0-1c-0.1-1.5-0.1-3-0.1-4.5s0-3,0.1-4.5C749.1,328.2,749.1,327.8,749.1,327.5z"/>
	<path class="st7" d="M749.1,327.5c0,0.3,0,0.7,0,1C749.1,328.2,749.1,327.9,749.1,327.5z"/>
	<path class="st7" d="M749.1,338.5c0-0.3,0-0.7,0-1C749.1,337.8,749.1,338.1,749.1,338.5z"/>
	<path class="st7" d="M757.2,386.6L722,399.4c-4.2,1.5-6.4,6.2-4.8,10.4c1.5,4.2,6.2,6.4,10.4,4.8l35.1-12.8
		c-1.7-4.1-3.3-8.3-4.6-12.5C757.8,388.4,757.5,387.5,757.2,386.6z"/>
	<path class="st7" d="M757.2,386.6c0.3,0.9,0.6,1.8,0.9,2.7C757.8,388.4,757.5,387.5,757.2,386.6L757.2,386.6z"/>
	<path class="st7" d="M788.4,445c-0.1-0.1-0.1-0.1-0.2-0.2c-0.6-0.8-1.3-1.6-1.9-2.4c-0.2-0.2-0.4-0.4-0.5-0.7l-28.7,24.1
		c-3.4,2.9-3.9,8-1,11.4s8,3.9,11.4,1l28.7-24.1c-0.1-0.2-0.3-0.3-0.4-0.5C793.2,450.8,790.8,447.9,788.4,445z"/>
	<path class="st7" d="M795.8,453.6c-2.5-2.8-5-5.7-7.4-8.6C790.8,447.9,793.2,450.8,795.8,453.6z"/>
	<path class="st7" d="M788.2,444.8c-0.6-0.8-1.2-1.6-1.9-2.4C786.9,443.2,787.6,444,788.2,444.8z"/>
	<path class="st7" d="M812.9,516.2c-2.2,3.9-0.9,8.8,3,11s8.8,0.9,11-3l18.6-32.3c-4.8-2.5-9.5-5.2-14-8.1L812.9,516.2z"/>
	<path class="st7" d="M845.5,491.9l0.1-0.1c-4.8-2.5-9.5-5.2-14-8.1C836.1,486.7,840.8,489.4,845.5,491.9z"/>
	<path class="st7" d="M889.1,507.8l-6.6,36.8c-0.8,4.4,2.2,8.6,6.6,9.4c4.4,0.8,8.6-2.2,9.4-6.6l6.5-36.8
		C899.6,509.9,894.3,509,889.1,507.8z"/>
	<path class="st7" d="M967.1,507.8c-5.2,1.2-10.5,2.1-15.9,2.8l6.4,36.8c0.8,4.4,5,7.3,9.4,6.6s7.3-5,6.6-9.4L967.1,507.8z"/>
	<path class="st7" d="M1024.4,483.9c-4.5,2.9-9.2,5.6-14,8.1l18.7,32.3c2.2,3.9,7.2,5.2,11,3c3.9-2.2,5.2-7.2,3-11L1024.4,483.9z"/>
	<path class="st7" d="M1098.9,465.8l-28.7-24.1c-0.2,0.3-0.4,0.6-0.7,0.8c-0.4,0.5-0.9,1.1-1.3,1.6c-0.5,0.7-1.1,1.3-1.6,2
		c-0.3,0.3-0.5,0.6-0.8,0.9c-1.7,2.1-3.5,4.1-5.3,6.1l-0.1,0.1c-0.2,0.2-0.4,0.5-0.6,0.7l28.7,24.1c3.4,2.9,8.5,2.4,11.4-1
		C1102.7,473.8,1102.3,468.7,1098.9,465.8z"/>
	<path class="st7" d="M1069.5,442.5c-0.4,0.6-0.9,1.1-1.3,1.6C1068.7,443.6,1069.1,443.1,1069.5,442.5z"/>
	<path class="st7" d="M1066.6,446.2c-0.3,0.3-0.5,0.6-0.8,0.9C1066.1,446.8,1066.4,446.5,1066.6,446.2z"/>
	<path class="st7" d="M1060.4,453.4l0.1-0.1C1060.5,453.3,1060.5,453.3,1060.4,453.4z"/>
	<path class="st7" d="M1134,399.4l-35.1-12.8c-1.6,5.2-3.5,10.2-5.5,15.2l35.1,12.8c4.2,1.5,8.8-0.6,10.4-4.8
		C1140.3,405.5,1138.2,400.9,1134,399.4z"/>
</g>
<g class="st6">
	<path class="st7" d="M1148.9,294c-0.8-4.4-5-7.3-9.4-6.6l-36.8,6.6c0.3,1.1,0.5,2.3,0.7,3.4c0.2,1.2,0.5,2.3,0.7,3.5
		c0,0.2,0.1,0.3,0.1,0.5c0.2,1.2,0.4,2.4,0.6,3.7c0,0.3,0.1,0.5,0.1,0.8c0.2,1.3,0.4,2.7,0.6,4.1l36.8-6.5
		C1146.8,302.6,1149.7,298.4,1148.9,294z"/>
	<path class="st7" d="M1104.1,300.9c0,0.2,0.1,0.3,0.1,0.5C1104.2,301.2,1104.1,301.1,1104.1,300.9z"/>
	<path class="st7" d="M1103.4,297.4c-0.2-1.1-0.5-2.3-0.7-3.4l0,0C1103,295.1,1103.2,296.3,1103.4,297.4z"/>
	<path class="st7" d="M1104.9,305.8c0-0.3-0.1-0.5-0.1-0.8C1104.8,305.3,1104.9,305.6,1104.9,305.8z"/>
	<path class="st7" d="M1122.3,220.8c-2.2-3.9-7.2-5.2-11-3l-32.4,18.7c2.9,4.5,5.6,9.2,8.1,14l32.4-18.7
		C1123.2,229.6,1124.5,224.7,1122.3,220.8z"/>
	<path class="st7" d="M1041.2,194.4c0.3,0.3,0.6,0.5,0.9,0.8c2.1,1.7,4.1,3.5,6.1,5.3l0.1,0.1c0.2,0.2,0.5,0.4,0.7,0.6l24.1-28.7
		c2.9-3.4,2.4-8.5-1-11.4s-8.5-2.4-11.4,1l-24.1,28.7c0.3,0.2,0.6,0.4,0.9,0.7c0.5,0.4,1.1,0.9,1.6,1.3
		C1039.9,193.3,1040.5,193.8,1041.2,194.4z"/>
	<path class="st7" d="M1037.6,191.5c0.5,0.4,1.1,0.9,1.6,1.3C1038.6,192.3,1038.1,191.9,1037.6,191.5z"/>
	<path class="st7" d="M1048.4,200.6l-0.1-0.1C1048.3,200.5,1048.3,200.5,1048.4,200.6z"/>
	<path class="st7" d="M1042.1,195.1c-0.3-0.3-0.6-0.5-0.9-0.8C1041.5,194.6,1041.8,194.9,1042.1,195.1z"/>
	<path class="st7" d="M1009.6,132.6c1.5-4.2-0.6-8.8-4.8-10.4c-4.2-1.5-8.8,0.6-10.4,4.8l-12.8,35.1c5.2,1.6,10.2,3.5,15.2,5.5
		L1009.6,132.6z"/>
	<path class="st7" d="M936.1,154.2v-37.4c0-4.5-3.6-8.1-8.1-8.1V154c1.5,0,3,0,4.5,0.1c0.3,0,0.7,0,1,0
		C934.4,154.1,935.2,154.2,936.1,154.2z"/>
	<path class="st7" d="M932.5,154.1c0.3,0,0.7,0,1,0C933.1,154.1,932.8,154.1,932.5,154.1z"/>
	<path class="st7" d="M928,154v-45.3c-4.5,0-8.1,3.6-8.1,8.1v37.4c0.9,0,1.7-0.1,2.6-0.1c0.3,0,0.7,0,1,0C925,154,926.5,154,928,154
		z"/>
	<path class="st7" d="M922.5,154.1c0.3,0,0.7,0,1,0C923.2,154.1,922.9,154.1,922.5,154.1z"/>
	<path class="st7" d="M859.3,167.7c5-2.1,10-3.9,15.2-5.5L861.6,127c-1.5-4.2-6.1-6.3-10.3-4.8s-6.4,6.2-4.8,10.4L859.3,167.7z"/>
	<path class="st7" d="M874.5,162.2L874.5,162.2c-5.2,1.6-10.2,3.4-15.2,5.5l0,0C864.3,165.6,869.3,163.8,874.5,162.2z"/>
	<path class="st7" d="M806.9,201.3c4-3.7,8.1-7.1,12.4-10.4l-24.1-28.7c-2.9-3.5-8-3.9-11.4-1s-3.9,8-1,11.4L806.9,201.3z"/>
	<path class="st7" d="M806.9,201.3c4-3.6,8.1-7.1,12.4-10.4C815,194.1,810.8,197.6,806.9,201.3z"/>
	<path class="st7" d="M736.7,231.8l32.4,18.7c2.5-4.8,5.2-9.5,8.1-14l-32.4-18.7c-3.9-2.2-8.8-0.8-11.1,3
		C731.5,224.7,732.8,229.6,736.7,231.8z"/>
	<path class="st7" d="M750.5,309.9c0.2-1.4,0.4-2.7,0.6-4.1c0-0.3,0.1-0.5,0.1-0.8c0.2-1.2,0.4-2.4,0.6-3.6c0-0.2,0.1-0.3,0.1-0.5
		c0.2-1.2,0.4-2.3,0.7-3.5c0.2-1.1,0.5-2.3,0.7-3.4l-36.6-6.5l19.9,19.9L750.5,309.9z"/>
	<path class="st7" d="M707.1,294c-0.8,4.4,2.2,8.6,6.6,9.4l22.9,4l-19.9-19.9h-0.2C712,286.7,707.9,289.6,707.1,294z"/>
	<path class="st7" d="M753.3,294L753.3,294c-0.3,1.1-0.5,2.3-0.7,3.4C752.8,296.3,753,295.1,753.3,294z"/>
	<path class="st7" d="M751.1,305.8c0-0.2,0.1-0.5,0.1-0.8C751.2,305.3,751.1,305.5,751.1,305.8z"/>
	<path class="st7" d="M751.9,300.9c0,0.2-0.1,0.3-0.1,0.5C751.8,301.2,751.9,301.1,751.9,300.9z"/>
	<path class="st7" d="M713.6,362.6c-4.4,0.8-7.3,5-6.6,9.4c0.8,4.4,5,7.3,9.4,6.6l36.8-6.5c-1.2-5.2-2.1-10.5-2.8-15.9L713.6,362.6z
		"/>
	<path class="st7" d="M736.7,434.1c-3.9,2.2-5.2,7.2-3,11c2.2,3.9,7.2,5.2,11,3l32.4-18.7c-2.9-4.5-5.6-9.2-8.1-14L736.7,434.1z"/>
	<path class="st7" d="M818.6,474.5c-0.6-0.4-1.1-0.9-1.6-1.3c-0.9-0.5-1.5-1-2.2-1.6c-0.3-0.3-0.6-0.5-0.9-0.8
		c-2.1-1.7-4.1-3.5-6.1-5.3l-0.1-0.1c-0.2-0.2-0.5-0.4-0.7-0.6l-24.1,28.7c-2.9,3.4-2.4,8.5,1,11.4s8.5,2.4,11.4-1l24.1-28.7
		C819.1,475,818.8,474.8,818.6,474.5z"/>
	<path class="st7" d="M818.5,474.5c-0.6-0.4-1.1-0.9-1.6-1.3C817.4,473.7,817.9,474.1,818.5,474.5z"/>
	<path class="st7" d="M807.7,465.5l-0.1-0.1C807.7,465.5,807.7,465.5,807.7,465.5z"/>
	<path class="st7" d="M814.8,471.7c-0.3-0.3-0.6-0.6-0.9-0.8C814.2,471.2,814.5,471.4,814.8,471.7z"/>
	<path class="st7" d="M846.4,533.4c-1.5,4.2,0.6,8.8,4.8,10.4s8.8-0.6,10.4-4.8l12.8-35.1c-5.2-1.6-10.2-3.5-15.2-5.5L846.4,533.4z"
		/>
	<path class="st7" d="M928,512v45.3c4.5,0,8.1-3.6,8.1-8.1v-37.4c-0.9,0-1.7,0.1-2.6,0.1c-0.3,0-0.7,0-1,0
		C931,512,929.5,512,928,512z"/>
	<path class="st7" d="M933.5,511.9c-0.3,0-0.7,0-1,0C932.8,511.9,933.1,511.9,933.5,511.9z"/>
	<path class="st7" d="M919.9,511.8v37.4c0,4.5,3.6,8.1,8.1,8.1V512c-1.5,0-3,0-4.5-0.1c-0.3,0-0.7,0-1,0
		C921.6,511.9,920.8,511.8,919.9,511.8z"/>
	<path class="st7" d="M923.5,511.9c-0.3,0-0.7,0-1,0C922.9,511.9,923.2,511.9,923.5,511.9z"/>
	<path class="st7" d="M994.4,539c1.5,4.2,6.2,6.4,10.4,4.8c4.2-1.5,6.4-6.2,4.8-10.4l-12.8-35.1c-4.1,1.7-8.3,3.3-12.5,4.6
		c-0.9,0.3-1.8,0.6-2.7,0.9L994.4,539z"/>
	<path class="st7" d="M981.6,503.8c0.9-0.3,1.8-0.6,2.7-0.9C983.4,503.2,982.5,503.5,981.6,503.8L981.6,503.8z"/>
	<path class="st7" d="M1049.1,464.8c-0.2,0.1-0.3,0.3-0.5,0.4c-2.8,2.6-5.7,5-8.6,7.4c-0.1,0-0.1,0.1-0.2,0.1
		c-0.8,0.6-1.6,1.3-2.4,1.9c-0.2,0.2-0.4,0.4-0.7,0.5l24.1,28.7c2.9,3.4,8,3.9,11.4,1s3.9-8,1-11.4L1049.1,464.8z"/>
	<path class="st7" d="M1037.4,474.7c0.8-0.6,1.6-1.3,2.4-1.9C1039,473.4,1038.2,474,1037.4,474.7z"/>
	<path class="st7" d="M1048.6,465.2c-2.8,2.5-5.7,5-8.6,7.4C1042.9,470.2,1045.8,467.8,1048.6,465.2z"/>
	<path class="st7" d="M1119.3,434.1l-32.4-18.7c-2.5,4.8-5.2,9.5-8.1,14l32.4,18.7c3.9,2.2,8.8,0.9,11-3
		C1124.5,441.3,1123.2,436.4,1119.3,434.1z"/>
	<path class="st7" d="M1086.9,415.4c-2.5,4.8-5.2,9.5-8.1,14l0,0C1081.7,424.9,1084.4,420.2,1086.9,415.4L1086.9,415.4z"/>
	<path class="st7" d="M1142.4,362.6l-36.8-6.5c-0.7,5.4-1.6,10.7-2.8,15.9l36.8,6.5c4.4,0.8,8.6-2.2,9.4-6.6
		S1146.8,363.4,1142.4,362.6z"/>
</g>
<path class="st8" d="M383.2,399.1L383.2,399.1c-0.1-0.1-0.1-0.1-0.1-0.1L383.2,399.1z"/>
<path class="st8" d="M331.9,502.6c-18.4-1.6-36.2-5.2-53.3-10.7c-17-5.8-33.5-13.5-49.1-23.1c-1.3-0.8-3-1.1-4.6-0.7
	c-1.7,0.4-3,1.3-3.9,2.7c-1.5,2.5-0.9,6.2,1.4,8.1c0.2,0.2,0.4,0.3,0.6,0.4c16.5,10.2,33.8,18.3,51.8,24.3
	c18,5.8,36.8,9.6,56.1,11.2c0.2,0,0.5,0,0.7,0c3-0.2,5.7-2.7,5.9-5.6c0.1-1.5-0.4-3.1-1.5-4.4S333.4,502.7,331.9,502.6z"/>
<path class="st8" d="M379.9,31.1c18.2,2.1,35.9,6.4,52.8,12.5c16.8,6.4,33,14.7,48.3,24.9c1.3,0.8,2.9,1.1,4.6,0.8
	c1.6-0.3,3-1.2,3.9-2.5c1.6-2.4,1.1-6.1-1.1-8.1c-0.2-0.1-0.4-0.3-0.6-0.4c-16.1-10.8-33.2-19.5-50.9-26.2
	c-17.8-6.5-36.4-11-55.6-13.3c-0.2,0-0.5,0-0.7,0c-3,0-5.8,2.5-6.1,5.4c-0.1,1.6,0.3,3.2,1.4,4.5C376.9,30.1,378.4,30.9,379.9,31.1z
	"/>
<path class="st9" d="M169.6,23.7c-17-16.9-44.5-16.9-61.4,0c-16.9,17-16.9,44.5,0,61.4l425.2,425.2c17,16.9,44.4,16.9,61.4,0
	c16.9-17,16.9-44.5,0-61.4L169.6,23.7z"/>
</svg>
