<?xml version="1.0" encoding="utf-8"?>
<!-- Generator: Adobe Illustrator 19.0.0, SVG Export Plug-In . SVG Version: 6.00 Build 0)  -->
<svg version="1.1" id="Layer_1" xmlns="http://www.w3.org/2000/svg" xmlns:xlink="http://www.w3.org/1999/xlink" x="0px" y="0px"
	 viewBox="206 -206 512 512" style="enable-background:new 206 -206 512 512;" xml:space="preserve">
<style type="text/css">
	.st0{display:none;}
	.st1{fill:#4ACFD9;}
	.st2{fill:#0295AA;}
	.st3{fill:#FF8C29;}
	.st4{fill:#FFD1A9;}
	.st5{fill:#F0353D;}
	.st6{fill:#FD6A33;}
</style>
<rect x="206" y="-206" class="st0" width="512" height="512"/>
<path class="st1" d="M1433.1,33c-2.7-12.6-7.6-24.4-13.6-35.8c-10.9-20.6-23.9-40-36.3-59.7c-6.7-10.6-12.8-21.5-17.2-33.3
	c-4.5-12.1-7.5-24.6-7.7-37.6c-0.1-5.9,0.4-11.7,0.7-17.6c0-1,0-1.7-1.1-2c-7.1-1.9-14.3-3.8-21.5-5.7c0,0.1-0.2,0.6-0.3,1.3
	c-2.5,14.1-2.2,28.3,0.1,42.4c2.7,17.1,8.6,33.1,17.2,48c6.4,11.2,13.1,22.1,19.9,33.1c4.2,6.8,8.4,13.6,12.8,20.3
	c7.6,11.5,14.1,23.6,19.1,36.5c7.2,18.5,8.3,37.4,4.6,56.7l0,0c-0.4,2.1-2.5,3.4-4.5,2.9c-0.9-0.2-1.8-0.4-2.6-0.7
	c-16.5-4.7-33-9.4-49.4-14.2l-4.5,16.1l50.6,14.9c2.3,0.7,3.4,3.3,2.3,5.4c-3.1,6-9.1,17.2-13.2,23.1c-2.7,3.8-5.8,5.1-10.2,4.1
	c-3.9-0.9-7.9-1.8-11.8-2.9c-19-5.4-38-11-56.9-16.4c-0.7-0.2-1.3-0.4-2-0.5c-1.5-0.4-2.8,1.2-2.1,2.6c0,0,0,0,0,0.1
	c2,4,3.7,8.1,4.4,12.5c0.4,2.6,1.1,3.4,2.8,3.9c16.5,4.9,33,9.8,49.5,14.8c0,0,0,0,0,0c2,0.6,2.3,3.3,0.6,4.4
	c-5.9,3.8-17.6,11-26.1,16.3c-2.3,1.4-3,4.5-1.5,6.8c0.1,0.1,0.2,0.3,0.2,0.4c2.8,4.4,4.5,7,7.3,11.4c1,1.5,4.7,2.9,6.3,2
	c2-1,3.4-1.7,4.6-2.3c12.3-6.6,21.9-12.6,32.8-21.4c13.8-11.2,25.1-24.4,33.3-40.2c5.4-10.4,9.2-21.4,12.1-32.8
	C1436.5,70.8,1437.1,52,1433.1,33z"/>
<path class="st2" d="M1347.4,66.1c-15.1-4.4-28.4-8.5-43.4-13c-3.7-1.1-4.7-3.9-3.1-7.5c4.3-9.9,8.4-17.3,15.2-25.9
	c1.4-1.7,2.4-2,4.5-1.4c22.4,6.6,44.8,13.1,67.3,19.6c3.1,0.9,4.9,1.3,8,1.7c2.2,0.3,4.2-1,3.7-3.2c-0.2-0.8-2.2-7-3.3-9.9
	c-1.3-3.7-3.8-4.4-5.1-4.8c-18.6-5.5-35.1-10.5-53.7-16.1c-1.6-0.5-4.4-2.2-1.5-4.6c10.9-8,19.3-12.4,30.5-17.6
	c2.5-1.2,3.4-4.3,1.8-6.6c-3.5-5.3-5.4-8.1-8.8-13.1c-1.8-2.6-7.3,0.4-8.2,0.8c-12.8,6.7-22.4,11.7-33.9,20.7
	c-10.8,8.5-20.2,18.2-27.7,29.8c-10.4,16.3-16.5,34.3-19.9,53.2c-2.9,16.5-2.5,32.9,1.5,49.2c4.8,19.6,13.3,37.7,23.7,54.8
	c8.2,13.4,16.4,26.8,24.5,40.3c5.8,9.7,11.4,19.5,15.6,30c7.4,18.6,10.7,36.4,8.7,56.4c-0.1,1.4,0.6,5,3.4,5.9
	c5.3,1.7,9.7,2.8,15,4.4c2.8,0.9,4.5-0.6,5-4.7c2.9-24.4-0.2-46.7-9.6-69.5c-7.1-17.1-16.3-33.1-26-48.7
	c-4.7-7.5-9.5-14.9-13.8-22.6c-5.6-10-11-20.2-15.9-30.5c-8-16.8-10.9-34.7-9.6-53.2c0.2-2.7,0.6-5.4,0.9-8.1
	c0.3-2.1,2.4-3.4,4.4-2.8l50.8,14.9l4.5-16.1C1351.2,67.2,1349.3,66.6,1347.4,66.1z"/>
<path class="st3" d="M1302.4,208.7c-11.8,6.5-23.5,13.2-34.4,21.7c-2,1.6-1.5,4.8,0.9,5.7c1.6,0.6,3.2,1.2,4.8,1.6
	c18,5.4,35.9,10.7,53.9,15.9c1.5,0.4,2.1,1.1,2.5,2.6c0.9,3.9,2.1,7.8,3.1,11.7c0.8,3-0.2,4.2-3.2,3.6c-5.8-1.2-11.7-2.7-17.4-4.3
	c-20.4-5.9-37.9-11-58.2-17c-0.1,0-0.3-0.1-0.4-0.1c-2.4-1-5.8-0.1-6.9,2.2c-3.8,6.5-5.7,9.4-9.5,15.9c-0.9,1.6-4.4,3.5-6.3,2.8
	c-5.5-1.8-9.9-3.2-15.2-4.9c-1.9-0.6-2.8-2.7-2-4.5c0,0,0,0,0,0c8.1-17.8,19.8-32.8,34.4-45.8c12.3-10.9,24.7-18.9,39.4-26
	c3.7-1.6,6-1.5,7.6,1.4c2.7,4.3,5.4,8.6,8.1,13.1C1304.6,205.7,1304,207.8,1302.4,208.7z"/>
<path class="st3" d="M1407.7-42.1c-2.2-3.3-4.4-6.6-6.6-9.9c-1.8-2.7-0.9-6.3,1.9-7.9c11.3-6.2,22.7-12.3,33.2-20.5
	c1-0.8,0.7-2.5-0.5-2.9l0,0c-19.7-5.8-39.4-11.7-59.2-17.4c-1.7-0.5-2.7-1.4-3.1-3c-1.3-5.1-2.1-8.5-3.4-13.5c0,0,0,0,0,0
	c-0.3-1.4,1-2.7,2.4-2.3c0.2,0.1,0.5,0.1,0.7,0.2c23.9,6.8,47.7,13.6,71.6,20.3c2.1,0.6,3.3,0.7,5.2,1.3c1.7,0.5,3.9-0.4,4.8-1.9
	c3.7-5.9,7.1-11,10.7-17c1.1-1.9,4-4,6.5-2.9c4.6,1.3,9.1,2.7,13.7,4.2c2.6,0.8,3.9,3.8,2.8,6.3c-0.8,1.6-1.6,3.3-2.5,5
	c-9,17.1-21,31.7-36.3,43.5c-5.6,4.3-11.5,8.2-17.6,11.9c-5.1,3.1-10.4,5.9-15.7,8.7C1413.2-38.4,1409.5-39.3,1407.7-42.1z"/>
<path class="st3" d="M661.2,160h-7.9c-4.7,0-8.6-3.8-8.6-8.6V50.5c0-4.7,3.8-8.6,8.6-8.6h7.9h8.1c10.3,0,18.7,8.5,18.7,18.7v80.8
	c0,10.3-8.5,18.7-18.7,18.7H661.2z"/>
<path class="st3" d="M629.8,9.8v163.1c0,23.8-19.4,43.1-43.1,43.1h-91.2V-88.6l0,0c11.3,0,20.6,9.3,20.6,20.6v23.5
	c0,5.9,5.5,11.3,11.3,11.3h59.3C610.3-33.3,629.8-14,629.8,9.8z M557.5,84.5c21.4,0,38.7-17.3,38.7-38.7S578.9,7,557.5,7
	c-21.4,0-38.7,17.3-38.7,38.7S536.1,84.5,557.5,84.5z M521.4,130.1h-25.9v34.7h25.9c4.9,0,9.1-4,9.1-9.1v-16.7
	C530.5,134.3,526.5,130.1,521.4,130.1z"/>
<path class="st4" d="M673.1,111.3c2.8-0.7,5.7,1.3,6.4,4.1c3.1,12,0.7,24.6-6.4,34.4c-1.7,2.3-5,2.7-7.4,0.8c-2.1-1.8-2.8-5.2-1-7.6
	c5.1-7.4,6.8-16.5,4.7-25.6c-0.6-1.6-0.1-3.3,0.7-4.5C670.9,112,671.7,111.3,673.1,111.3z"/>
<path class="st5" d="M496.1-163.9c-0.2,0-0.4,0-0.6,0v49.8c4.5-0.3,7.8-3.8,7.9-8.2l0.6-33.7C504-160.3,500.4-163.9,496.1-163.9z"/>
<path class="st5" d="M551.5-134.6c0,2.1-0.8,4.2-2.5,5.8l-21.8,21.6c-3.3,3.3-8.3,3.3-11.6,0c-3.1-3.1-3-8.2,0.3-11.6l21.8-21.6
	c3.3-3.3,8.3-3.3,11.6,0C550.9-138.8,551.6-136.6,551.5-134.6z"/>
<path class="st6" d="M267.7,42h-7.9h-8.1c-10.3,0-18.7,8.5-18.7,18.7v80.6c0,10.3,8.5,18.7,18.7,18.7h8.1h7.9c4.7,0,8.6-3.8,8.6-8.6
	V50.5C276.3,46,272.5,42,267.7,42z"/>
<path class="st6" d="M425.5-88.8V216h-91.1c-23.8,0-43.1-19.4-43.1-43.1V9.8c0-23.8,19.4-43.1,43.1-43.1h57.4c6.4,0,13-4.8,13-11.3
	v-23.5C405-79.4,414.2-88.8,425.5-88.8z M360.7,6.7c-21.4,0-38.7,17.3-38.7,38.7s17.3,38.7,38.7,38.7c21.4,0,38.7-17.3,38.7-38.7
	C399.5,24.3,382.2,6.7,360.7,6.7z M399.6,130c-4.9,0-9.1,4-9.1,9.1v16.7c0,4.9,4,9.1,9.1,9.1h25.9v-35H399.6z"/>
<path class="st4" d="M251.5,113c0.8,1.3,1.3,3,0.7,4.5c-2.1,8.9-0.4,18.2,4.7,25.6c1.7,2.4,1.1,5.8-1,7.6c-2.4,1.8-5.7,1.4-7.4-0.8
	c-7.1-9.8-9.3-22.3-6.4-34.4c0.7-3,3.5-4.8,6.4-4.1C250,111.3,250.7,112,251.5,113z"/>
<path class="st5" d="M417.7-155.7l-0.6,33.7c-0.1,4.5,3.4,8.1,7.9,8.1c0.1,0,0.3,0,0.4,0v-49.8C421.1-163.4,417.9-160,417.7-155.7z"
	/>
<path class="st5" d="M404.7-112.7c0,2.1-0.8,4.2-2.5,5.8c-3.3,3.3-8.3,3.3-11.6,0l-21.1-21.2c-3.1-3.1-3-8.2,0.3-11.6
	c3.3-3.3,8.3-3.3,11.6,0l21.1,21.2C403.8-116.8,404.7-114.8,404.7-112.7z"/>
<path class="st1" d="M459.5,306L459.5,306c-6.6,0-12-5.4-12-12v-488c0-6.6,5.4-12,12-12h0c6.6,0,12,5.4,12,12v488
	C471.5,300.6,466.1,306,459.5,306z"/>
</svg>
