<?xml version="1.0" encoding="utf-8"?>
<!-- Generator: Adobe Illustrator 19.0.0, SVG Export Plug-In . SVG Version: 6.00 Build 0)  -->
<svg version="1.1" id="Layer_1" xmlns="http://www.w3.org/2000/svg" xmlns:xlink="http://www.w3.org/1999/xlink" x="0px" y="0px"
	 viewBox="96 11 512 512" style="enable-background:new 96 11 512 512;" xml:space="preserve">
<style type="text/css">
	.st0{fill:#FD6A33;}
	.st1{fill:none;stroke:#4ACFD9;stroke-width:35;stroke-linecap:round;stroke-miterlimit:10;}
	.st2{fill:#9BAAAB;}
	.st3{fill:#4ACFD9;}
	.st4{fill:#0295AA;}
	.st5{fill:#FF8C29;}
	.st6{fill:#365558;}
</style>
<g>
	<path class="st0" d="M438.7,181.4c-2,0-4.1-0.8-5.6-2.3c-3.1-3.1-3.1-8.1,0-11.2l44.5-44.5c3.1-3.1,8.1-3.1,11.2,0s3.1,8.1,0,11.2
		l-44.5,44.5C442.8,180.6,440.8,181.4,438.7,181.4z"/>
	<path class="st0" d="M404.9,167.4c-4.4,0-7.9-3.6-7.9-7.9v-63c0-4.4,3.6-7.9,7.9-7.9c4.4,0,7.9,3.6,7.9,7.9v62.9
		C412.8,163.8,409.2,167.4,404.9,167.4z"/>
	<path class="st0" d="M515.7,215.3h-62.9c-4.4,0-7.9-3.6-7.9-7.9s3.6-7.9,7.9-7.9h62.9c4.4,0,7.9,3.6,7.9,7.9
		C523.5,211.7,520,215.3,515.7,215.3z"/>
</g>
<path class="st1" d="M4.5-125C14.5-74.9,25.8-9.8,69.6,24s90.4,37.6,117.9,77.7"/>
<circle class="st2" cx="187.5" cy="101.7" r="37.8"/>
<path class="st1" d="M699.5,659c-10-50.1-21.3-115.2-65.1-149s-90.4-37.6-117.9-77.6"/>
<circle class="st2" cx="516.5" cy="432.3" r="37.8"/>
<g>
	<path class="st3" d="M310.3,165.8c5.8-5.8,15.4-5.8,21.3,0l3.5,3.5l6.2-6.2c12.2-12.2,12.2-32.1,0-44.3l-62-62
		c-12.2-12.2-32.1-12.2-44.3,0l-48.7,48.7l92.1,92.1L310.3,165.8z"/>
	<path class="st4" d="M139.4,196.8l62,62c12.2,12.2,32.1,12.2,44.3,0l4.4-4.4l-3.5-3.5c-5.8-5.8-5.8-15.4,0-21.3l31.9-31.9
		l-92.1-92.1l-46.9,46.9C127.2,164.7,127.2,184.7,139.4,196.8z"/>
</g>
<path class="st0" d="M418.3,299.1L366.1,247c-2.7-2.7-2.7-7.2,0-9.9l2.5-2.5c2.7-2.7,7.2-2.7,9.9,0l52.1,52.1c2.7,2.7,2.7,7.2,0,9.9
	l-2.5,2.5C425.4,301.8,421,301.8,418.3,299.1z"/>
<path class="st5" d="M383.6,313.8l-52.1-52.1c-2.7-2.7-2.7-7.2,0-9.9l2.5-2.5c2.7-2.7,7.2-2.7,9.9,0l52.1,52.1
	c2.7,2.7,2.7,7.2,0,9.9l-2.5,2.5C390.7,316.5,386.3,316.5,383.6,313.8z"/>
<path class="st0" d="M376.3,338.6L326.6,289c-3.4-3.4-9-3.4-12.4,0l0,0c-3.4,3.4-3.4,9,0,12.4l49.6,49.6c3.4,3.4,9,3.4,12.4,0l0,0
	C379.7,347.5,379.7,342,376.3,338.6z"/>
<path class="st3" d="M561.8,385.5c12.2-12.2,12.2-32.1,0-44.3l-62-62c-12.2-12.2-32.1-12.2-44.3,0L407.7,327L514,433.3L561.8,385.5z
	"/>
<path class="st4" d="M359.9,419.1l62,62c12.2,12.2,32.1,12.2,44.3,0l47.8-47.8L407.7,327l-47.8,47.8
	C347.7,387,347.7,406.9,359.9,419.1z"/>
<path class="st4" d="M450.2,305.8c5.8-5.8,5.8-15.4,0-21.3l-8.9-8.9c-5.8-5.8-15.4-5.8-21.3,0l-31.9,31.9l30.1,30.1L450.2,305.8z"/>
<path class="st6" d="M356.3,360.7l8.9,8.9c5.8,5.8,15.4,5.8,21.3,0l31.9-31.9l-30.1-30.1l-31.9,31.9
	C350.5,345.3,350.5,354.8,356.3,360.7z"/>
<g>
	<path class="st0" d="M259.3,363c2,0,4.1,0.8,5.6,2.3c3.1,3.1,3.1,8.1,0,11.2L220.4,421c-3.1,3.1-8.1,3.1-11.2,0
		c-3.1-3.1-3.1-8.1,0-11.2l44.5-44.5C255.2,363.8,257.2,363,259.3,363z"/>
	<path class="st0" d="M293.1,377c4.4,0,7.9,3.6,7.9,7.9v62.9c0,4.4-3.6,7.9-7.9,7.9c-4.4,0-7.9-3.6-7.9-7.9v-62.9
		C285.2,380.6,288.8,377,293.1,377z"/>
	<path class="st0" d="M182.3,329.1h62.9c4.4,0,7.9,3.6,7.9,7.9c0,4.4-3.6,7.9-7.9,7.9h-62.9c-4.4,0-7.9-3.6-7.9-7.9
		C174.4,332.7,178,329.1,182.3,329.1z"/>
</g>
</svg>
