<?xml version="1.0" encoding="utf-8"?>
<!-- Generator: Adobe Illustrator 19.0.0, SVG Export Plug-In . SVG Version: 6.00 Build 0)  -->
<svg version="1.1" id="Layer_1" xmlns="http://www.w3.org/2000/svg" xmlns:xlink="http://www.w3.org/1999/xlink" x="0px" y="0px"
	 viewBox="96 11 512 512" style="enable-background:new 96 11 512 512;" xml:space="preserve">
<style type="text/css">
	.st0{display:none;}
	.st1{fill:#0295AA;}
	.st2{fill:#4ACFD9;}
	.st3{fill:#CDD4D5;}
	.st4{fill:#9BAAAB;}
	.st5{fill:#365558;}
	.st6{fill:#FFD1A9;}
	.st7{fill:#BCD643;}
	.st8{fill:#FF8C29;}
	.st9{fill:#F0353D;}
	.st10{display:none;fill:#CDD4D5;}
</style>
<rect x="480" y="55" class="st0" width="512" height="512"/>
<path class="st1" d="M102.7,417.3l74.9-74.9c6.4-6.4,16.7-6.4,23.1,0l75.1,75.1c6.4,6.4,6.4,16.7,0,23.1l-74.9,74.9
	c-6.4,6.4-16.7,6.4-23.1,0l-75.1-75.1C96.3,434,96.3,423.7,102.7,417.3z"/>
<path class="st2" d="M100.1,437.5l97.7-97.7c4.1-4.1,10.6-4.1,14.7,0l66.8,66.8c4.1,4.1,4.1,10.6,0,14.7L181.6,519
	c-4.1,4.1-10.6,4.1-14.7,0l-66.8-66.8C96,448.1,96,441.6,100.1,437.5z"/>
<path class="st3" d="M103.3,400.1L103.3,400.1c1.8,1.8,4.6,1.8,6.4,0l51.7-51.7c1.8-1.8,1.8-4.6,0-6.4l0,0c-1.8-1.8-4.6-1.8-6.4,0
	l-51.7,51.7C101.5,395.5,101.5,398.3,103.3,400.1z"/>
<path class="st4" d="M128.6,409.6l-10-10c-2.3-2.3-2.3-6,0-8.3l33-33c2.3-2.3,6-2.3,8.3,0l10,10c2.3,2.3,2.3,6,0,8.3l-33,33
	C134.6,411.9,130.8,411.9,128.6,409.6z"/>
<path class="st5" d="M181.6,496l-55.3-55.3c-0.7-0.7-1.9-0.7-2.6,0l-6.1,10.1c-0.7,0.7-0.7,1.9,0,2.6l51.3,51.3
	c0.7,0.7,1.9,0.7,2.6,0l11.1-7.1C183.3,496.9,182.3,496.8,181.6,496z"/>
<path class="st1" d="M209.3,465.7L155.6,412c-0.9-0.9-2.4-0.9-3.3,0l-14.9,14.9c-0.9,0.9-0.9,2.4,0,3.3l53.8,53.8
	c0.9,0.9,2.4,0.9,3.3,0l14.9-14.9C210.2,468.1,210.2,466.6,209.3,465.7z"/>
<path class="st3" d="M524.9,14l1.8-1.8c1.6-1.6,4.2-1.6,5.8,0l74.3,74.3c1.6,1.6,1.6,4.2,0,5.8l-1.8,1.8c-1.6,1.6-4.2,1.6-5.8,0
	l-74.3-74.3C523.3,18.1,523.3,15.6,524.9,14z"/>
<rect x="519.5" y="26.6" transform="matrix(-0.7071 0.7071 -0.7071 -0.7071 982.2031 -257.7923)" class="st6" width="49.9" height="95.8"/>
<rect x="388.1" y="124.5" transform="matrix(-0.7071 0.7071 -0.7071 -0.7071 883.9666 -21.3898)" class="st7" width="116.7" height="95.8"/>
<rect x="479.5" y="63.8" transform="matrix(-0.7071 0.7071 -0.7071 -0.7071 944.8179 -167.9182)" class="st8" width="55.3" height="95.8"/>
<rect x="309.4" y="205.5" transform="matrix(-0.7071 0.7071 -0.7071 -0.7071 803.1218 174.1064)" class="st1" width="112.2" height="95.8"/>
<rect x="232.6" y="283.8" transform="matrix(-0.7071 0.7071 -0.7071 -0.7071 724.9694 363.1034)" class="st9" width="109.3" height="95.8"/>
<path class="st1" d="M169.4,398.3l53.7,53.7c0.9,0.9,2.4,0.9,3.3,0l14.9-14.9c0.9-0.9,0.9-2.4,0-3.3L187.5,380
	c-0.9-0.9-2.4-0.9-3.3,0l-14.9,14.9C168.5,395.9,168.5,397.4,169.4,398.3z"/>
<path class="st5" d="M198.1,368.1l55.3,55.3c0.7,0.7,1.9,0.7,2.6,0l6.1-10.1c0.7-0.7,0.7-1.9,0-2.6l-51.3-51.3
	c-0.7-0.7-1.9-0.7-2.6,0l-11.1,7.1C196.4,367.2,197.4,367.3,198.1,368.1z"/>
<path class="st10" d="M597.2,366.7l1.8-1.8c1.6-1.6,4.2-1.6,5.8,0l74.3,74.3c1.6,1.6,1.6,4.2,0,5.8l-1.8,1.8c-1.6,1.6-4.2,1.6-5.8,0
	l-74.3-74.3C595.6,370.8,595.6,368.3,597.2,366.7z"/>
</svg>
