<?xml version="1.0" encoding="utf-8"?>
<!-- Generator: Adobe Illustrator 19.0.0, SVG Export Plug-In . SVG Version: 6.00 Build 0)  -->
<svg version="1.1" id="Layer_1" xmlns="http://www.w3.org/2000/svg" xmlns:xlink="http://www.w3.org/1999/xlink" x="0px" y="0px"
	 viewBox="96 11 512 512" style="enable-background:new 96 11 512 512;" xml:space="preserve">
<style type="text/css">
	.st0{display:none;}
	.st1{fill:#CDD4D5;}
	.st2{fill:#FFD1A9;}
	.st3{fill:#BCD643;}
	.st4{fill:#FF8C29;}
	.st5{display:none;fill:#FFD1A9;}
	.st6{display:none;fill:#FD6A33;}
	.st7{fill:#0295AA;}
	.st8{fill:#4ACFD9;}
	.st9{fill:#9BAAAB;}
	.st10{fill:#365558;}
	.st11{display:none;fill:#CDD4D5;}
</style>
<rect x="480" y="55" class="st0" width="512" height="512"/>
<path class="st1" d="M524.9,14l1.8-1.8c1.6-1.6,4.2-1.6,5.8,0l74.3,74.3c1.6,1.6,1.6,4.2,0,5.8l-1.8,1.8c-1.6,1.6-4.2,1.6-5.8,0
	l-74.3-74.3C523.3,18.1,523.3,15.6,524.9,14z"/>
<rect x="519.5" y="26.6" transform="matrix(-0.7071 0.7071 -0.7071 -0.7071 982.1281 -257.7672)" class="st2" width="49.9" height="95.8"/>
<rect x="388.1" y="124.6" transform="matrix(-0.7071 0.7071 -0.7071 -0.7071 884.1623 -21.1939)" class="st3" width="116.7" height="95.8"/>
<rect x="479.5" y="63.8" transform="matrix(-0.7071 0.7071 -0.7071 -0.7071 944.7427 -167.8934)" class="st4" width="55.3" height="95.8"/>
<rect x="692.9" y="250" transform="matrix(-0.7071 0.7071 -0.7071 -0.7071 1489.1864 -21.0723)" class="st5" width="112.2" height="95.8"/>
<rect x="616.2" y="328.3" transform="matrix(-0.7071 0.7071 -0.7071 -0.7071 1411.2045 167.8539)" class="st6" width="109.3" height="95.8"/>
<g>
	<path class="st7" d="M255.7,263.3l74.9-74.9c6.4-6.4,16.7-6.4,23.1,0l75.1,75.1c6.4,6.4,6.4,16.7,0,23.1l-74.9,74.9
		c-6.4,6.4-16.7,6.4-23.1,0l-75.1-75.1C249.3,280,249.3,269.7,255.7,263.3z"/>
	<path class="st8" d="M253.1,283.5l97.7-97.7c4.1-4.1,10.6-4.1,14.7,0l66.8,66.8c4.1,4.1,4.1,10.6,0,14.7L334.6,365
		c-4.1,4.1-10.6,4.1-14.7,0l-66.8-66.8C249,294.1,249,287.6,253.1,283.5z"/>
	<path class="st1" d="M256.3,246.1L256.3,246.1c1.8,1.8,4.6,1.8,6.4,0l51.7-51.7c1.8-1.8,1.8-4.6,0-6.4l0,0c-1.8-1.8-4.6-1.8-6.4,0
		l-51.7,51.7C254.5,241.5,254.5,244.3,256.3,246.1z"/>
	<path class="st9" d="M281.6,255.6l-10-10c-2.3-2.3-2.3-6,0-8.3l33-33c2.3-2.3,6-2.3,8.3,0l10,10c2.3,2.3,2.3,6,0,8.3l-33,33
		C287.6,257.9,283.8,257.9,281.6,255.6z"/>
	<path class="st10" d="M334.6,342l-55.3-55.3c-0.7-0.7-1.9-0.7-2.6,0l-6.1,10.1c-0.7,0.7-0.7,1.9,0,2.6l51.3,51.3
		c0.7,0.7,1.9,0.7,2.6,0l11.1-7.1C336.3,342.9,335.3,342.8,334.6,342z"/>
	<path class="st7" d="M362.3,311.7L308.6,258c-0.9-0.9-2.4-0.9-3.3,0l-14.9,14.9c-0.9,0.9-0.9,2.4,0,3.3l53.8,53.8
		c0.9,0.9,2.4,0.9,3.3,0l14.9-14.9C363.2,314.1,363.2,312.6,362.3,311.7z"/>
	<path class="st7" d="M322.4,244.3l53.7,53.7c0.9,0.9,2.4,0.9,3.3,0l14.9-14.9c0.9-0.9,0.9-2.4,0-3.3L340.5,226
		c-0.9-0.9-2.4-0.9-3.3,0l-14.9,14.9C321.5,241.9,321.5,243.4,322.4,244.3z"/>
	<path class="st10" d="M351.1,214.1l55.3,55.3c0.7,0.7,1.9,0.7,2.6,0l6.1-10.1c0.7-0.7,0.7-1.9,0-2.6l-51.3-51.3
		c-0.7-0.7-1.9-0.7-2.6,0l-11.1,7.1C349.4,213.2,350.4,213.3,351.1,214.1z"/>
</g>
<path class="st11" d="M597.2,366.7l1.8-1.8c1.6-1.6,4.2-1.6,5.8,0l74.3,74.3c1.6,1.6,1.6,4.2,0,5.8l-1.8,1.8c-1.6,1.6-4.2,1.6-5.8,0
	l-74.3-74.3C595.6,370.8,595.6,368.3,597.2,366.7z"/>
</svg>
