<?xml version="1.0" encoding="utf-8"?>
<!-- Generator: Adobe Illustrator 19.0.0, SVG Export Plug-In . SVG Version: 6.00 Build 0)  -->
<svg version="1.1" id="Layer_1" xmlns="http://www.w3.org/2000/svg" xmlns:xlink="http://www.w3.org/1999/xlink" x="0px" y="0px"
	 viewBox="96 11 512 512" style="enable-background:new 96 11 512 512;" xml:space="preserve">
<style type="text/css">
	.st0{display:none;}
	.st1{fill:#CDD4D5;}
	.st2{fill:#FFD1A9;}
	.st3{fill:#BCD643;}
	.st4{fill:#FF8C29;}
	.st5{fill:#0295AA;}
	.st6{display:none;fill:#FD6A33;}
	.st7{fill:#4ACFD9;}
	.st8{fill:#9BAAAB;}
	.st9{fill:#365558;}
	.st10{display:none;fill:#CDD4D5;}
</style>
<rect x="480" y="55" class="st0" width="512" height="512"/>
<path class="st1" d="M524.9,14l1.8-1.8c1.6-1.6,4.2-1.6,5.8,0l74.3,74.3c1.6,1.6,1.6,4.2,0,5.8l-1.8,1.8c-1.6,1.6-4.2,1.6-5.8,0
	l-74.3-74.3C523.3,18.1,523.3,15.6,524.9,14z"/>
<rect x="519.5" y="26.6" transform="matrix(-0.7071 0.7071 -0.7071 -0.7071 982.1281 -257.7672)" class="st2" width="49.9" height="95.8"/>
<rect x="388.1" y="124.6" transform="matrix(-0.7071 0.7071 -0.7071 -0.7071 884.1623 -21.1939)" class="st3" width="116.7" height="95.8"/>
<rect x="479.5" y="63.8" transform="matrix(-0.7071 0.7071 -0.7071 -0.7071 944.7427 -167.8934)" class="st4" width="55.3" height="95.8"/>
<rect x="309.4" y="205.5" transform="matrix(-0.7071 0.7071 -0.7071 -0.7071 803.0469 174.1317)" class="st5" width="112.2" height="95.8"/>
<rect x="616.2" y="328.3" transform="matrix(-0.7071 0.7071 -0.7071 -0.7071 1411.2045 167.8539)" class="st6" width="109.3" height="95.8"/>
<g>
	<path class="st5" d="M175.7,343.3l74.9-74.9c6.4-6.4,16.7-6.4,23.1,0l75.1,75.1c6.4,6.4,6.4,16.7,0,23.1l-74.9,74.9
		c-6.4,6.4-16.7,6.4-23.1,0l-75.1-75.1C169.3,360,169.3,349.7,175.7,343.3z"/>
	<path class="st7" d="M173.1,363.5l97.7-97.7c4.1-4.1,10.6-4.1,14.7,0l66.8,66.8c4.1,4.1,4.1,10.6,0,14.7L254.6,445
		c-4.1,4.1-10.6,4.1-14.7,0l-66.8-66.8C169,374.1,169,367.6,173.1,363.5z"/>
	<path class="st1" d="M176.3,326.1L176.3,326.1c1.8,1.8,4.6,1.8,6.4,0l51.7-51.7c1.8-1.8,1.8-4.6,0-6.4l0,0c-1.8-1.8-4.6-1.8-6.4,0
		l-51.7,51.7C174.5,321.5,174.5,324.3,176.3,326.1z"/>
	<path class="st8" d="M201.6,335.6l-10-10c-2.3-2.3-2.3-6,0-8.3l33-33c2.3-2.3,6-2.3,8.3,0l10,10c2.3,2.3,2.3,6,0,8.3l-33,33
		C207.6,337.9,203.8,337.9,201.6,335.6z"/>
	<path class="st9" d="M254.6,422l-55.3-55.3c-0.7-0.7-1.9-0.7-2.6,0l-6.1,10.1c-0.7,0.7-0.7,1.9,0,2.6l51.3,51.3
		c0.7,0.7,1.9,0.7,2.6,0l11.1-7.1C256.3,422.9,255.3,422.8,254.6,422z"/>
	<path class="st5" d="M282.3,391.7L228.6,338c-0.9-0.9-2.4-0.9-3.3,0l-14.9,14.9c-0.9,0.9-0.9,2.4,0,3.3l53.8,53.8
		c0.9,0.9,2.4,0.9,3.3,0l14.9-14.9C283.2,394.1,283.2,392.6,282.3,391.7z"/>
	<path class="st5" d="M242.4,324.3l53.7,53.7c0.9,0.9,2.4,0.9,3.3,0l14.9-14.9c0.9-0.9,0.9-2.4,0-3.3L260.5,306
		c-0.9-0.9-2.4-0.9-3.3,0l-14.9,14.9C241.5,321.9,241.5,323.4,242.4,324.3z"/>
	<path class="st9" d="M271.1,294.1l55.3,55.3c0.7,0.7,1.9,0.7,2.6,0l6.1-10.1c0.7-0.7,0.7-1.9,0-2.6l-51.3-51.3
		c-0.7-0.7-1.9-0.7-2.6,0l-11.1,7.1C269.4,293.2,270.4,293.3,271.1,294.1z"/>
</g>
<path class="st10" d="M597.2,366.7l1.8-1.8c1.6-1.6,4.2-1.6,5.8,0l74.3,74.3c1.6,1.6,1.6,4.2,0,5.8l-1.8,1.8c-1.6,1.6-4.2,1.6-5.8,0
	l-74.3-74.3C595.6,370.8,595.6,368.3,597.2,366.7z"/>
</svg>
