<?xml version="1.0" encoding="utf-8"?>
<!-- Generator: Adobe Illustrator 19.0.0, SVG Export Plug-In . SVG Version: 6.00 Build 0)  -->
<svg version="1.1" id="Layer_1" xmlns="http://www.w3.org/2000/svg" xmlns:xlink="http://www.w3.org/1999/xlink" x="0px" y="0px"
	 viewBox="96 11 512 512" style="enable-background:new 96 11 512 512;" xml:space="preserve">
<style type="text/css">
	.st0{fill:#E6EAEA;}
	.st1{fill:#CDD4D5;}
	.st2{fill:#FFFFFF;}
	.st3{fill:#4ACFD9;}
	.st4{fill:#F0353D;}
	.st5{fill:#FD6A33;}
	.st6{fill:#FF8C29;}
	.st7{fill:#FFD1A9;}
	.st8{fill:#365558;}
	.st9{fill:#0295AA;}
	.st10{fill:#9BAAAB;}
	.st11{fill:#BCD643;}
</style>
<path class="st0" d="M352,11C210.8,11,96,125.8,96,267s114.8,256,256,256s256-114.8,256-256S493.2,11,352,11z"/>
<path class="st1" d="M96,267c0,141.2,114.8,256,256,256V11C210.8,11,96,125.8,96,267z"/>
<path class="st2" d="M543.3,210.3c-7.5,0-14.5-4.7-17.1-12.1c-13.5-38-41.9-70.2-78.1-88.1c-9-4.5-12.6-15.4-8.2-24.4
	s15.4-12.6,24.4-8.2c44.6,22.1,79.7,61.8,96.3,108.6c3.4,9.5-1.6,19.9-11.1,23.3C547.4,210,545.4,210.3,543.3,210.3z"/>
<path class="st3" d="M525.7,250.8L380.8,138.6c-5.4-4.2-12.7-4.9-18.8-1.9c-6.1,3-10,9.2-10,16v228.6c0,6.9,3.9,13.1,10.1,16.1
	c2.5,1.2,5.1,1.8,7.7,1.8c4,0,8-1.3,11.2-3.9L525.9,279c4.3-3.4,6.7-8.6,6.7-14.1C532.5,259.3,530,254.2,525.7,250.8z"/>
<rect x="750.5" y="22" class="st4" width="128" height="128"/>
<rect x="878.5" y="22" class="st5" width="128" height="128"/>
<rect x="1006.5" y="22" class="st6" width="128" height="128"/>
<rect x="1134.5" y="22" class="st7" width="128" height="128"/>
<rect x="750.5" y="150" class="st8" width="128" height="128"/>
<rect x="878.5" y="150" class="st9" width="128" height="128"/>
<rect x="1006.5" y="150" class="st3" width="128" height="128"/>
<rect x="750.5" y="278" class="st10" width="128" height="128"/>
<rect x="878.5" y="278" class="st1" width="128" height="128"/>
<rect x="1006.5" y="278" class="st0" width="128" height="128"/>
<rect x="1134.5" y="278" class="st2" width="128" height="128"/>
<rect x="750.5" y="406" class="st11" width="128" height="128"/>
<path class="st0" d="M396.2,227.9c2.8,2.4,4,6.3,2.6,10c-7,18.5-6.4,39.6,1.5,57.7c2,4.5-0.1,9.8-4.6,11.8c-4.5,2-9.8-0.1-11.8-4.6
	c-9.7-22.4-10.4-48.3-1.9-71.1c1.7-4.6,6.9-7,11.5-5.2C394.5,226.8,395.4,227.3,396.2,227.9z"/>
<path class="st0" d="M157.7,327c6.8,0,13,4.6,15.3,11.8c12,37.1,37.5,68.4,69.9,85.9c8,4.4,11.3,15,7.3,23.7
	c-4,8.7-13.8,12.3-21.8,7.9c-39.9-21.6-71.3-60.2-86.1-105.8c-3-9.2,1.5-19.4,9.9-22.7C154.1,327.3,155.9,327,157.7,327z"/>
<path class="st9" d="M302.4,399.2h-66.8c-8.6,0-15.6-7-15.6-15.6V150.5c0-8.6,7-15.6,15.6-15.6h66.8c8.6,0,15.6,7,15.6,15.6v233.1
	C318,392.2,311,399.2,302.4,399.2z"/>
<path class="st3" d="M260.2,227.9c2.8,2.4,4,6.3,2.6,10c-7,18.5-6.4,39.6,1.5,57.7c2,4.5-0.1,9.8-4.6,11.8c-4.5,2-9.8-0.1-11.8-4.6
	c-9.7-22.4-10.4-48.3-1.9-71.1c1.7-4.6,6.9-7,11.5-5.2C258.5,226.8,259.4,227.3,260.2,227.9z"/>
</svg>
