<?xml version="1.0" encoding="utf-8"?>
<!-- Generator: Adobe Illustrator 19.0.0, SVG Export Plug-In . SVG Version: 6.00 Build 0)  -->
<svg version="1.1" id="Layer_1" xmlns="http://www.w3.org/2000/svg" xmlns:xlink="http://www.w3.org/1999/xlink" x="0px" y="0px"
	 viewBox="96 11 512 512" style="enable-background:new 96 11 512 512;" xml:space="preserve">
<style type="text/css">
	.st0{fill:#4ACFD9;}
	.st1{fill:#0295AA;}
	.st2{fill:#FFFFFF;}
	.st3{fill:#BCD643;}
	.st4{fill:#F0353D;}
	.st5{fill:#FD6A33;}
	.st6{fill:#FF8C29;}
	.st7{fill:#FFD1A9;}
	.st8{fill:#365558;}
	.st9{fill:#9BAAAB;}
	.st10{fill:#CDD4D5;}
	.st11{fill:#E6EAEA;}
</style>
<path class="st0" d="M352,11C210.8,11,96,125.8,96,267s114.8,256,256,256s256-114.8,256-256S493.2,11,352,11z"/>
<path class="st1" d="M96,267c0,141.2,114.8,256,256,256V11C210.8,11,96,125.8,96,267z"/>
<path class="st2" d="M513.7,227.7c-7.4,0-14.2-4.6-16.8-11.9c-13.2-37.3-41.1-68.8-76.6-86.4c-8.8-4.4-12.4-15.1-8-23.9
	s15.1-12.4,23.9-8c43.7,21.7,78.1,60.6,94.4,106.5c3.3,9.3-1.6,19.5-10.9,22.8C517.7,227.4,515.7,227.7,513.7,227.7z"/>
<path class="st3" d="M448.7,250.8L303.8,138.6c-5.4-4.2-12.7-4.9-18.8-1.9c-6.1,3-10,9.2-10,16v228.6c0,6.9,3.9,13.1,10.1,16.1
	c2.5,1.2,5.1,1.8,7.7,1.8c4,0,8-1.3,11.2-3.9L448.9,279c4.3-3.4,6.7-8.6,6.7-14.1C455.5,259.3,453,254.2,448.7,250.8z"/>
<rect x="846.5" y="33" class="st4" width="128" height="128"/>
<rect x="974.5" y="33" class="st5" width="128" height="128"/>
<rect x="1102.5" y="33" class="st6" width="128" height="128"/>
<rect x="1230.5" y="33" class="st7" width="128" height="128"/>
<rect x="846.5" y="161" class="st8" width="128" height="128"/>
<rect x="974.5" y="161" class="st1" width="128" height="128"/>
<rect x="1102.5" y="161" class="st0" width="128" height="128"/>
<rect x="846.5" y="289" class="st9" width="128" height="128"/>
<rect x="974.5" y="289" class="st10" width="128" height="128"/>
<rect x="1102.5" y="289" class="st11" width="128" height="128"/>
<rect x="1230.5" y="289" class="st2" width="128" height="128"/>
<rect x="846.5" y="417" class="st3" width="128" height="128"/>
<path class="st11" d="M319.2,227.9c2.8,2.4,4,6.3,2.6,10c-7,18.5-6.4,39.6,1.5,57.7c2,4.5-0.1,9.8-4.6,11.8s-9.8-0.1-11.8-4.6
	c-9.7-22.4-10.4-48.3-1.9-71.1c1.7-4.6,6.9-7,11.5-5.2C317.5,226.8,318.4,227.3,319.2,227.9z"/>
<path class="st0" d="M166.3,326.2c7.4,0,14.2,4.6,16.8,11.9c13.2,37.3,41.1,68.8,76.6,86.4c8.8,4.4,12.4,15.1,8,23.9
	s-15.1,12.4-23.9,8c-43.7-21.7-78.1-60.6-94.4-106.5c-3.3-9.3,1.6-19.5,10.9-22.8C162.3,326.5,164.3,326.2,166.3,326.2z"/>
</svg>
