<?xml version="1.0" encoding="UTF-8" standalone="no"?>
<svg
   xmlns:dc="http://purl.org/dc/elements/1.1/"
   xmlns:cc="http://creativecommons.org/ns#"
   xmlns:rdf="http://www.w3.org/1999/02/22-rdf-syntax-ns#"
   xmlns:svg="http://www.w3.org/2000/svg"
   xmlns="http://www.w3.org/2000/svg"
   xmlns:sodipodi="http://sodipodi.sourceforge.net/DTD/sodipodi-0.dtd"
   xmlns:inkscape="http://www.inkscape.org/namespaces/inkscape"
   version="1.1"
   id="Layer_1"
   x="0px"
   y="0px"
   viewBox="-49 141 512 512"
   style="enable-background:new -49 141 512 512;"
   xml:space="preserve"
   sodipodi:docname="add-tasks.svg"
   inkscape:version="1.0.1 (3bc2e813f5, 2020-09-07)"
   inkscape:export-filename="E:\Superalgos\Projects\Foundations\Icons\add-tasks.png"
   inkscape:export-xdpi="100"
   inkscape:export-ydpi="100"><metadata
   id="metadata267"><rdf:RDF><cc:Work
       rdf:about=""><dc:format>image/svg+xml</dc:format><dc:type
         rdf:resource="http://purl.org/dc/dcmitype/StillImage" /><dc:title /></cc:Work></rdf:RDF></metadata><defs
   id="defs265" /><sodipodi:namedview
   pagecolor="#ffffff"
   bordercolor="#666666"
   borderopacity="1"
   objecttolerance="10"
   gridtolerance="10"
   guidetolerance="10"
   inkscape:pageopacity="0"
   inkscape:pageshadow="2"
   inkscape:window-width="1920"
   inkscape:window-height="1017"
   id="namedview263"
   showgrid="false"
   inkscape:zoom="0.5835012"
   inkscape:cx="-381.666"
   inkscape:cy="8.5443359"
   inkscape:window-x="-8"
   inkscape:window-y="-8"
   inkscape:window-maximized="1"
   inkscape:current-layer="g937"
   inkscape:document-rotation="0" />
<style
   type="text/css"
   id="style2">
	.st0{display:none;}
	.st1{display:inline;}
	.st2{fill:#CDD4D5;}
	.st3{fill:#E6EAEA;}
	.st4{fill:#4ACFD9;}
	.st5{fill:#0295AA;}
	.st6{fill:#FFFFFF;}
	.st7{fill:#FF8C29;}
	.st8{fill:#FD6A33;}
	.st9{fill:#9BAAAB;}
	.st10{fill:#365558;}
	.st11{fill:#687F82;}
</style>
<g
   id="g231"
   transform="translate(-95.5,-11.909431)">
	
	
	
	
	
	
<g
   id="g931"
   transform="translate(-6,-18.999993)"><g
     id="g937"><g
       id="g1059"
       transform="matrix(-0.70710539,-0.70710539,0.70710539,-0.70710539,534.05062,573.43117)"
       inkscape:export-filename="E:\Superalgos\Projects\Foundations\Icons\g1059.png"
       inkscape:export-xdpi="100"
       inkscape:export-ydpi="100"><path
         style="fill:#cdd4d5;fill-opacity:1"
         d="m 171.69054,203.41338 350.70092,-350.70092 c 3.13107,-3.13107 3.13107,-8.20668 0,-11.33775 L 268.05718,-412.95958 c -3.13037,-3.13036 -8.20527,-3.13107 -11.33705,7.1e-4 L -93.981498,-62.257238 c -3.131069,3.13107 -3.131069,8.20668 0,11.33775 L 160.35208,203.41409 c 3.13178,3.13036 8.20669,3.13107 11.33846,-7.1e-4 z"
         id="path2" /><path
         style="fill:#fd6a33"
         d="m 289.22088,48.847622 187.4434,-187.443402 c 3.13107,-3.13107 3.13107,-8.20668 0,-11.33775 l -45.34958,-45.34959 c -3.13037,-3.13036 -8.20598,-3.13177 -11.33775,0 L 232.53284,-7.8390083 c -3.13107,3.13107 -3.13107,8.20668 0,11.33775 l 45.34958,45.3495903 c 3.13178,3.13036 8.20669,3.13107 11.33846,-7.1e-4 z"
         id="path4" /><path
         style="fill:#ff8c29"
         d="M 162.24289,24.661742 401.08235,-214.17772 c 3.13106,-3.13107 3.13106,-8.20668 0,-11.33775 l -45.34959,-45.34958 c -3.13036,-3.13036 -8.20597,-3.13178 -11.33775,0 L 105.55555,-32.025598 c -3.13107,3.13107 -3.13107,8.20668 0,11.33775 l 45.34959,45.34959 c 3.13036,3.13036 8.20597,3.13178 11.33775,0 z"
         id="path6" /><path
         style="fill:#4acfd9"
         d="M 41.310656,-5.5713183 325.4997,-289.76036 c 3.13107,-3.13107 3.13107,-8.20668 0,-11.33775 l -45.34958,-45.34959 c -3.13037,-3.13036 -8.20598,-3.13177 -11.33775,0 L -15.37668,-62.258648 c -3.131069,3.13106 -3.131069,8.20668 0,11.33775 l 45.349586,45.3495797 c 3.131069,3.13107 8.206682,3.13107 11.33775,0 z"
         id="path8" /><path
         style="fill:#9baaab;fill-opacity:1"
         d="m 522.39146,-147.28754 c 3.13107,-3.13107 3.13107,-8.20668 0,-11.33775 L 268.05718,-412.95958 c -3.13037,-3.13036 -8.20527,-3.13107 -11.33705,7.1e-4 L 81.369668,-237.60841 347.041,28.062922 Z"
         id="path10" /><path
         style="fill:#f0353d"
         d="m 476.66428,-138.59578 c 3.13107,-3.13107 3.13107,-8.20668 0,-11.33775 l -45.34958,-45.34959 c -3.13037,-3.13036 -8.20598,-3.13177 -11.33775,0 l -148.141,148.140992 56.68663,56.6866297 148.141,-148.1409917 z"
         id="path12" /><path
         style="fill:#fd6a33"
         d="m 401.08235,-214.17772 c 3.13106,-3.13107 3.13106,-8.20668 0,-11.33775 l -45.34959,-45.34958 c -3.13036,-3.13036 -8.20597,-3.13178 -11.33775,0 l -148.14099,148.14099 56.68663,56.686632 148.14099,-148.140992 z"
         id="path14" /><path
         style="fill:#0295aa"
         d="m 325.4997,-289.76036 c 3.13107,-3.13107 3.13107,-8.20668 0,-11.33775 l -45.34958,-45.34959 c -3.13037,-3.13036 -8.20598,-3.13177 -11.33775,0 l -148.141,148.141 56.68663,56.68662 148.141,-148.14099 z"
         id="path16" /><path
         id="path18-5-9"
         style="fill:#365558;fill-opacity:1;stroke-width:0.999999"
         sodipodi:type="inkscape:offset"
         inkscape:radius="36.177868"
         inkscape:original="M 204.17773 -15.894531 C 172.42704 15.850496 143.8047 44.511498 126.83984 61.693359 C 123.70877 64.82443 123.70877 69.900182 126.83984 73.03125 C 129.97162 76.163023 135.04737 76.16162 138.17773 73.03125 C 163.32289 47.886092 188.46617 22.740851 213.61133 -2.4042969 C 214.28744 -3.0804199 214.96449 -3.7555226 215.64062 -4.4316406 L 204.17773 -15.894531 z "
         d="m 204.26562,-52.070312 a 36.181486,36.181486 0 0 0 -25.66796,10.591796 c -31.69572,31.6900656 -60.20138,60.233528 -77.33985,77.589844 -0.002,0.0023 -0.004,0.0055 -0.006,0.0078 -16.947418,16.955323 -16.946262,45.542027 0.006,62.49414 16.95586,16.955819 45.54893,16.953079 62.50196,0 25.14582,-25.145823 50.2891,-50.291068 75.43359,-75.435547 0.65139,-0.651399 1.32876,-1.326818 2.0293,-2.027343 a 36.181486,36.181486 0 0 0 0,-51.164063 l -11.46289,-11.46289 a 36.181486,36.181486 0 0 0 -25.49415,-10.59375 z"
         transform="translate(5.1898047e-5,-1.1205859e-5)" /><path
         id="path18-5-1-3"
         style="fill:#365558;fill-opacity:1;stroke-width:0.999999"
         sodipodi:type="inkscape:offset"
         inkscape:radius="35.281448"
         inkscape:original="M 204.17773 -15.894531 C 172.42704 15.850496 143.8047 44.511498 126.83984 61.693359 C 123.70877 64.82443 123.70877 69.900182 126.83984 73.03125 C 129.97162 76.163023 135.04737 76.16162 138.17773 73.03125 C 163.32289 47.886092 188.46617 22.740851 213.61133 -2.4042969 C 214.28744 -3.0804199 214.96449 -3.7555226 215.64062 -4.4316406 L 204.17773 -15.894531 z "
         d="m 203.91406,-51.173828 a 35.284977,35.284977 0 0 0 -24.68164,10.330078 c -31.69742,31.6917686 -60.20571,60.237876 -77.33984,77.589844 -16.611931,16.611934 -16.61195,44.620484 0,61.232422 16.61332,16.613284 44.62189,16.610584 61.23242,0 25.14581,-25.145808 50.28909,-50.291052 75.43359,-75.435547 0.652,-0.652012 1.32937,-1.327423 2.0293,-2.027344 a 35.284977,35.284977 0 0 0 0,-49.894531 L 229.125,-40.841797 a 35.284977,35.284977 0 0 0 -25.21094,-10.332031 z"
         transform="rotate(180,258.87694,-59.006803)" /><path
         id="path18-5-9-4"
         style="fill:#365558;fill-opacity:1;stroke-width:0.999999"
         sodipodi:type="inkscape:offset"
         inkscape:radius="36.177868"
         inkscape:original="M 204.17773 -15.894531 C 172.42704 15.850496 143.8047 44.511498 126.83984 61.693359 C 123.70877 64.82443 123.70877 69.900182 126.83984 73.03125 C 129.97162 76.163023 135.04737 76.16162 138.17773 73.03125 C 163.32289 47.886092 188.46617 22.740851 213.61133 -2.4042969 C 214.28744 -3.0804199 214.96449 -3.7555226 215.64062 -4.4316406 L 204.17773 -15.894531 z "
         d="m 204.26562,-52.070312 a 36.181486,36.181486 0 0 0 -25.66796,10.591796 c -31.69572,31.6900656 -60.20138,60.233528 -77.33985,77.589844 -0.002,0.0023 -0.004,0.0055 -0.006,0.0078 -16.947418,16.955323 -16.946262,45.542027 0.006,62.49414 16.95586,16.955819 45.54893,16.953079 62.50196,0 25.14582,-25.145823 50.2891,-50.291068 75.43359,-75.435547 0.65139,-0.651399 1.32876,-1.326818 2.0293,-2.027343 a 36.181486,36.181486 0 0 0 0,-51.164063 l -11.46289,-11.46289 a 36.181486,36.181486 0 0 0 -25.49415,-10.59375 z"
         transform="rotate(-90,267.27817,-59.016334)" /><path
         id="path18-5-8"
         style="fill:#bcd643;fill-opacity:1;stroke-width:0.999999"
         sodipodi:type="inkscape:offset"
         inkscape:radius="15.781405"
         inkscape:original="M 204.17773 -15.894531 C 172.42704 15.850496 143.8047 44.511498 126.83984 61.693359 C 123.70877 64.82443 123.70877 69.900182 126.83984 73.03125 C 129.97162 76.163023 135.04737 76.16162 138.17773 73.03125 C 163.32289 47.886092 188.46617 22.740851 213.61133 -2.4042969 C 214.28744 -3.0804199 214.96449 -3.7555226 215.64062 -4.4316406 L 204.17773 -15.894531 z "
         d="m 204.21094,-31.675781 a 15.782984,15.782984 0 0 0 -11.19141,4.621093 C 161.26371,4.6954674 132.64467,33.352274 115.60938,50.605469 l 0.0723,-0.07031 c -9.16106,9.161067 -9.16107,24.493231 0,33.654297 9.16208,9.16206 24.49425,9.160074 33.6543,0 25.14545,-25.145448 50.28872,-50.290691 75.43359,-75.4355468 a 15.782984,15.782984 0 0 0 0.002,0 c 0.66533,-0.6653381 1.34057,-1.3386256 2.02735,-2.0253906 a 15.782984,15.782984 0 0 0 0,-22.3183596 l -11.46289,-11.46289 a 15.782984,15.782984 0 0 0 -11.125,-4.623047 z"
         transform="rotate(-90,267.27819,-59.016316)" /><path
         style="fill:#9baaab"
         d="m 407.12882,160.70979 75.58193,-75.581938 c 3.13107,-3.13106 3.13107,-8.20668 0,-11.33775 l -53.45161,-53.45161 c -1.93323,-1.93323 -4.71711,-2.74711 -7.38715,-2.16163 l -64.45632,14.1485 c -1.52947,0.33588 -2.88923,1.10026 -3.9506,2.16163 -1.13067,1.13066 -1.92192,2.59791 -2.21961,4.2391 l -11.12562,61.433438 c -0.4674,2.5873 0.36063,5.23825 2.22032,7.09794 l 53.45161,53.45161 c 3.13036,3.13178 8.20598,3.13178 11.33705,7.1e-4 z"
         id="path20" /><path
         style="fill:#687f82"
         d="m 482.71075,85.127852 c 3.13107,-3.13106 3.13107,-8.20668 0,-11.33775 l -53.45161,-53.45161 c -1.93323,-1.93323 -4.71711,-2.74711 -7.38715,-2.16163 l -64.45632,14.1485 c -1.52947,0.33588 -2.88923,1.10026 -3.9506,2.16163 l 89.94327,89.943268 z"
         id="path22" /><path
         style="fill:#ffffff"
         d="m 380.67524,85.883042 c 3.13107,-3.13106 8.20669,-3.13106 11.33775,0 l 21.163,21.162998 c 3.13036,3.13037 3.13178,8.20598 0,11.33775 -3.13177,3.13178 -8.20668,3.13107 -11.33775,0 l -21.163,-21.162998 c -3.13106,-3.13106 -3.13177,-8.20597 0,-11.33775 z"
         id="path24" /><path
         id="path18-5"
         style="fill:#bcd643;fill-opacity:1;stroke-width:0.999999"
         sodipodi:type="inkscape:offset"
         inkscape:radius="15.781405"
         inkscape:original="M 204.17773 -15.894531 C 172.42704 15.850496 143.8047 44.511498 126.83984 61.693359 C 123.70877 64.82443 123.70877 69.900182 126.83984 73.03125 C 129.97162 76.163023 135.04737 76.16162 138.17773 73.03125 C 163.32289 47.886092 188.46617 22.740851 213.61133 -2.4042969 C 214.28744 -3.0804199 214.96449 -3.7555226 215.64062 -4.4316406 L 204.17773 -15.894531 z "
         d="m 204.21094,-31.675781 a 15.782984,15.782984 0 0 0 -11.19141,4.621093 C 161.26371,4.6954674 132.64467,33.352274 115.60938,50.605469 l 0.0723,-0.07031 c -9.16106,9.161067 -9.16107,24.493231 0,33.654297 9.16208,9.16206 24.49425,9.160074 33.6543,0 25.14545,-25.145448 50.28872,-50.290691 75.43359,-75.4355468 a 15.782984,15.782984 0 0 0 0.002,0 c 0.66533,-0.6653381 1.34057,-1.3386256 2.02735,-2.0253906 a 15.782984,15.782984 0 0 0 0,-22.3183596 l -11.46289,-11.46289 a 15.782984,15.782984 0 0 0 -11.125,-4.623047 z" /><path
         id="path18-5-1"
         style="fill:#bcd643;fill-opacity:1;stroke-width:0.999999"
         sodipodi:type="inkscape:offset"
         inkscape:radius="15.781405"
         inkscape:original="M 204.17773 -15.894531 C 172.42704 15.850496 143.8047 44.511498 126.83984 61.693359 C 123.70877 64.82443 123.70877 69.900182 126.83984 73.03125 C 129.97162 76.163023 135.04737 76.16162 138.17773 73.03125 C 163.32289 47.886092 188.46617 22.740851 213.61133 -2.4042969 C 214.28744 -3.0804199 214.96449 -3.7555226 215.64062 -4.4316406 L 204.17773 -15.894531 z "
         d="m 204.21094,-31.675781 a 15.782984,15.782984 0 0 0 -11.19141,4.621093 C 161.26371,4.6954674 132.64467,33.352274 115.60938,50.605469 l 0.0723,-0.07031 c -9.16106,9.161067 -9.16107,24.493231 0,33.654297 9.16208,9.16206 24.49425,9.160074 33.6543,0 25.14545,-25.145448 50.28872,-50.290691 75.43359,-75.4355468 a 15.782984,15.782984 0 0 0 0.002,0 c 0.66533,-0.6653381 1.34057,-1.3386256 2.02735,-2.0253906 a 15.782984,15.782984 0 0 0 0,-22.3183596 l -11.46289,-11.46289 a 15.782984,15.782984 0 0 0 -11.125,-4.623047 z"
         transform="rotate(180,258.87692,-59.006803)" /><path
         id="path18-5-9-4-0"
         style="fill:#365558;fill-opacity:1;stroke-width:0.999999"
         sodipodi:type="inkscape:offset"
         inkscape:radius="36.177868"
         inkscape:original="M 204.17773 -15.894531 C 172.42704 15.850496 143.8047 44.511498 126.83984 61.693359 C 123.70877 64.82443 123.70877 69.900182 126.83984 73.03125 C 129.97162 76.163023 135.04737 76.16162 138.17773 73.03125 C 163.32289 47.886092 188.46617 22.740851 213.61133 -2.4042969 C 214.28744 -3.0804199 214.96449 -3.7555226 215.64062 -4.4316406 L 204.17773 -15.894531 z "
         d="m 204.26562,-52.070312 a 36.181486,36.181486 0 0 0 -25.66796,10.591796 c -31.69572,31.6900656 -60.20138,60.233528 -77.33985,77.589844 -0.002,0.0023 -0.004,0.0055 -0.006,0.0078 -16.947418,16.955323 -16.946262,45.542027 0.006,62.49414 16.95586,16.955819 45.54893,16.953079 62.50196,0 25.14582,-25.145823 50.2891,-50.291068 75.43359,-75.435547 0.65139,-0.651399 1.32876,-1.326818 2.0293,-2.027343 a 36.181486,36.181486 0 0 0 0,-51.164063 l -11.46289,-11.46289 a 36.181486,36.181486 0 0 0 -25.49415,-10.59375 z"
         transform="rotate(90,259.01254,-71.468373)" /><path
         id="path18-5-8-0"
         style="fill:#bcd643;fill-opacity:1;stroke-width:0.999999"
         sodipodi:type="inkscape:offset"
         inkscape:radius="15.781405"
         inkscape:original="M 204.17773 -15.894531 C 172.42704 15.850496 143.8047 44.511498 126.83984 61.693359 C 123.70877 64.82443 123.70877 69.900182 126.83984 73.03125 C 129.97162 76.163023 135.04737 76.16162 138.17773 73.03125 C 163.32289 47.886092 188.46617 22.740851 213.61133 -2.4042969 C 214.28744 -3.0804199 214.96449 -3.7555226 215.64062 -4.4316406 L 204.17773 -15.894531 z "
         d="m 204.21094,-31.675781 a 15.782984,15.782984 0 0 0 -11.19141,4.621093 C 161.26371,4.6954674 132.64467,33.352274 115.60938,50.605469 l 0.0723,-0.07031 c -9.16106,9.161067 -9.16107,24.493231 0,33.654297 9.16208,9.16206 24.49425,9.160074 33.6543,0 25.14545,-25.145448 50.28872,-50.290691 75.43359,-75.4355468 a 15.782984,15.782984 0 0 0 0.002,0 c 0.66533,-0.6653381 1.34057,-1.3386256 2.02735,-2.0253906 a 15.782984,15.782984 0 0 0 0,-22.3183596 l -11.46289,-11.46289 a 15.782984,15.782984 0 0 0 -11.125,-4.623047 z"
         transform="rotate(90,259.01255,-71.468393)" /></g><path
       class="st0"
       d="m 271.35971,436.98807 -73.75124,0.0707 c -3.81838,0 -7.00037,-3.18198 -7.00037,-7.00035 l 0,-3.53554 c 0,-3.81837 3.18199,-7.00035 7.00037,-7.00035 l 73.68051,0 c 3.81838,0 7.00036,3.18198 7.00036,7.00036 v 3.53553 c 0,3.81838 -3.11126,6.92965 -6.92964,6.92964 z"
       id="path26-5-7-7"
       style="fill:#bcd643;fill-opacity:1" /><g
       id="g927"
       transform="rotate(-135,453.6166,331.409)"><path
         style="color:#000000;font-style:normal;font-variant:normal;font-weight:normal;font-stretch:normal;font-size:medium;line-height:normal;font-family:sans-serif;font-variant-ligatures:normal;font-variant-position:normal;font-variant-caps:normal;font-variant-numeric:normal;font-variant-alternates:normal;font-variant-east-asian:normal;font-feature-settings:normal;font-variation-settings:normal;text-indent:0;text-align:start;text-decoration:none;text-decoration-line:none;text-decoration-style:solid;text-decoration-color:#000000;letter-spacing:normal;word-spacing:normal;text-transform:none;writing-mode:lr-tb;direction:ltr;text-orientation:mixed;dominant-baseline:auto;baseline-shift:baseline;text-anchor:start;white-space:normal;shape-padding:0;shape-margin:0;inline-size:0;clip-rule:nonzero;display:none;overflow:visible;visibility:visible;isolation:auto;mix-blend-mode:normal;color-interpolation:sRGB;color-interpolation-filters:linearRGB;solid-color:#000000;solid-opacity:1;vector-effect:none;fill:#bcd643;fill-opacity:0.729412;fill-rule:nonzero;stroke:none;stroke-width:1;stroke-linecap:butt;stroke-linejoin:miter;stroke-miterlimit:4;stroke-dasharray:none;stroke-dashoffset:0;stroke-opacity:1;color-rendering:auto;image-rendering:auto;shape-rendering:auto;text-rendering:auto;enable-background:accumulate;stop-color:#000000;stop-opacity:1"
         d="m 293.60008,-563.68498 -52.10001,52.2 c -2.7,2.7 -7.2,2.7 -9.9,1e-5 l -2.5,-2.50001 c -2.7,-2.69999 -2.69999,-7.19999 1e-5,-9.9 l 52.09999,-52.09999 c 2.7,-2.7 7.2,-2.7 9.9,0 l 2.5,2.5 c 2.7,2.7 2.70001,7.09999 0,9.79999 z"
         id="path929" /><path
         style="color:#000000;font-style:normal;font-variant:normal;font-weight:normal;font-stretch:normal;font-size:medium;line-height:normal;font-family:sans-serif;font-variant-ligatures:normal;font-variant-position:normal;font-variant-caps:normal;font-variant-numeric:normal;font-variant-alternates:normal;font-variant-east-asian:normal;font-feature-settings:normal;font-variation-settings:normal;text-indent:0;text-align:start;text-decoration:none;text-decoration-line:none;text-decoration-style:solid;text-decoration-color:#000000;letter-spacing:normal;word-spacing:normal;text-transform:none;writing-mode:lr-tb;direction:ltr;text-orientation:mixed;dominant-baseline:auto;baseline-shift:baseline;text-anchor:start;white-space:normal;shape-padding:0;shape-margin:0;inline-size:0;clip-rule:nonzero;display:none;overflow:visible;visibility:visible;isolation:auto;mix-blend-mode:normal;color-interpolation:sRGB;color-interpolation-filters:linearRGB;solid-color:#000000;solid-opacity:1;vector-effect:none;fill-opacity:1;fill-rule:nonzero;stroke:none;stroke-width:1;stroke-linecap:butt;stroke-linejoin:miter;stroke-miterlimit:4;stroke-dasharray:none;stroke-dashoffset:0;stroke-opacity:1;color-rendering:auto;image-rendering:auto;shape-rendering:auto;text-rendering:auto;enable-background:accumulate;stop-color:#000000;stop-opacity:1"
         d="m 286.15039,-578.51172 c -1.92767,0 -3.85648,0.72562 -5.30469,2.17383 l -52.09961,52.09961 c -2.89641,2.89643 -2.89642,7.71101 0,10.60742 l 2.5,2.5 c 2.89642,2.89641 7.71101,2.89642 10.60743,0 l 52.0996,-52.20117 0.85157,-0.85352 h -0.28516 c 2.1814,-2.90602 2.07418,-7.01175 -0.56641,-9.65234 l -2.5,-2.5 c -1.4482,-1.44821 -3.37506,-2.17383 -5.30273,-2.17383 z m 0,1.00195 c 1.67233,0 3.34391,0.62712 4.5957,1.87891 l 2.5,2.5 c 2.50795,2.50795 2.50796,6.58385 0,9.0918 l -0.85156,0.85351 h -0.002 l -51.2461,51.34766 c -2.50358,2.50358 -6.68977,2.50357 -9.19336,0 l -2.5,-2.5 c -2.50357,-2.50357 -2.50358,-6.68977 0,-9.19336 l 52.09961,-52.09961 c 1.2518,-1.25179 2.92533,-1.87891 4.59766,-1.87891 z"
         id="path931" /></g></g></g></g><g
   id="Layer_3"
   class="st0">
	<rect
   x="1049"
   y="-422.4"
   class="st1"
   width="512"
   height="512.8"
   id="rect4" />
</g>















<rect
   x="-561"
   y="141"
   class="st8"
   width="128"
   height="128"
   id="rect34"
   style="fill:#f0353d" /><rect
   x="-433"
   y="141"
   class="st5"
   width="128"
   height="128"
   id="rect36"
   style="fill:#fd6a33" /><rect
   x="-305"
   y="141"
   class="st4"
   width="128"
   height="128"
   id="rect38"
   style="fill:#ff8c29" /><rect
   x="-176.99998"
   y="141"
   class="st1"
   width="128"
   height="128"
   id="rect40"
   style="fill:#ffd1a9" /><rect
   x="-561"
   y="269"
   class="st3"
   width="128"
   height="128"
   id="rect42"
   style="fill:#365558" /><rect
   x="-433"
   y="269"
   class="st2"
   width="128"
   height="128"
   id="rect44"
   style="fill:#0295aa" /><rect
   x="-305"
   y="269"
   class="st7"
   width="128"
   height="128"
   id="rect46"
   style="fill:#4acfd9" /><rect
   x="-561"
   y="397"
   class="st6"
   width="128"
   height="128"
   id="rect48"
   style="fill:#9baaab" /><rect
   x="-433"
   y="397"
   class="st9"
   width="128"
   height="128"
   id="rect50"
   style="fill:#cdd4d5" /><rect
   x="-305"
   y="397"
   class="st10"
   width="128"
   height="128"
   id="rect52"
   style="fill:#e6eaea" /><rect
   x="-176.99998"
   y="397"
   class="st11"
   width="128"
   height="128"
   id="rect54"
   style="fill:#ffffff" /><rect
   x="-561"
   y="525"
   class="st12"
   width="128"
   height="128"
   id="rect56"
   style="fill:#bcd643" /></svg>
