<?xml version="1.0" encoding="utf-8"?>
<!-- Generator: Adobe Illustrator 19.0.0, SVG Export Plug-In . SVG Version: 6.00 Build 0)  -->
<svg version="1.1" id="Layer_1" xmlns="http://www.w3.org/2000/svg" xmlns:xlink="http://www.w3.org/1999/xlink" x="0px" y="0px"
	 viewBox="96 11 512 512" style="enable-background:new 96 11 512 512;" xml:space="preserve">
<style type="text/css">
	.st0{fill:#FFFFFF;}
	.st1{fill:#E6EAEA;}
	.st2{fill:#FD6A33;}
	.st3{fill:#FF8C29;}
	.st4{fill:#4ACFD9;}
	.st5{fill:#0295AA;}
	.st6{fill:#FFD1A9;}
	.st7{fill:#F0353D;}
	.st8{fill:#CDD4D5;}
	.st9{fill:#9BAAAB;}
</style>
<g>
	<path class="st0" d="M499.3,433.7H351.5v83.4h147.8c6.6,0,12-5.4,12-12v-59.4C511.3,439.1,505.9,433.7,499.3,433.7z"/>
	<path class="st1" d="M206.1,433.7c-6.6,0-12,5.4-12,12v59.4c0,6.6,5.4,12,12,12h145.5v-83.4L206.1,433.7L206.1,433.7z"/>
	<circle class="st2" cx="259.5" cy="475.4" r="11.5"/>
	<circle class="st2" cx="351.5" cy="475.4" r="11.5"/>
	<circle class="st3" cx="443.5" cy="475.4" r="11.5"/>
	<path class="st4" d="M352,522.9h145c10.5,0,19-8.5,19-19v-57c0-10.5-8.5-19-19-19H352v10h145c5,0,9,4,9,9v57c0,5-4,9-9,9H352V522.9
		z"/>
	<path class="st5" d="M352,512.9H207c-5,0-9-4-9-9v-57c0-5,4-9,9-9h145v-10H207c-10.5,0-19,8.5-19,19v57c0,10.5,8.5,19,19,19h145
		V512.9z"/>
	<path class="st3" d="M352,486.9c6.1-0.3,11-5.3,11-11.5s-4.9-11.2-11-11.5V486.9z"/>
</g>
<path class="st2" d="M228,243.9h-6.2h-6.3c-8.1,0-14.7,6.7-14.7,14.7v63.3c0,8.1,6.7,14.7,14.7,14.7h6.3h6.2c3.7,0,6.8-3,6.8-6.8
	v-79.2C234.8,247.1,231.8,243.9,228,243.9z"/>
<path class="st3" d="M482.2,336.6H476c-3.7,0-6.8-3-6.8-6.8v-79.2c0-3.7,3-6.8,6.8-6.8h6.2h6.3c8.1,0,14.7,6.7,14.7,14.7v63.4
	c0,8.1-6.7,14.7-14.7,14.7H482.2L482.2,336.6z"/>
<path class="st3" d="M423.7,184.8h-46.6c-4.6,0-8.9-4.2-8.9-8.9v-18.4c0-8.9-7.3-16.2-16.2-16.2v179h5v0.1h4.4
	c1.9,0,3.4,1.5,3.3,3.3v6.1c0,1.9-1.5,3.3-3.3,3.3H357h-3h-2v47.5h71.7c18.7,0,33.9-15.2,33.9-33.9V218.6
	C457.6,199.9,442.2,184.7,423.7,184.8z M411.3,329.6c0,2-1.7,3.6-3.6,3.6h-18.4c-1.9,0-3.5-1.7-3.6-3.6v-5.7c0-2,1.7-3.6,3.6-3.6
	h18.4c2,0,3.6,1.7,3.6,3.6V329.6z M398.6,277.3c-9.4,0-16.9-7.6-16.9-16.9c0-9.3,7.6-16.9,16.9-16.9s16.9,7.6,16.9,16.9
	C415.5,269.7,407.9,277.3,398.6,277.3z"/>
<path class="st2" d="M339.3,329.8v-6.1c0-1.9,1.5-3.3,3.3-3.3v-0.1h9.4V141.2c-8.9,0-16.1,7.3-16.3,16.2v18.4
	c0,5.1-5.2,8.9-10.2,8.9h-45.1c-18.7,0-33.9,15.2-33.9,33.9v128.1c0,18.7,15.2,33.9,33.9,33.9H352v-47.5h-9.4
	C340.7,333.1,339.3,331.6,339.3,329.8z M318.2,329.8c0,1.9-1.5,3.3-3.3,3.3H296c-1.9,0-3.3-1.5-3.3-3.3v-6.1c0-1.9,1.5-3.3,3.3-3.3
	h18.9c1.8,0,3.3,1.5,3.3,3.2V329.8z M305.4,277.2c-9.3,0-16.9-7.6-16.9-16.9c0-9.3,7.6-16.9,16.9-16.9c9.4,0,16.9,7.7,16.9,16.9
	C322.3,269.6,314.7,277.2,305.4,277.2z"/>
<path class="st6" d="M215.3,299.7c0.7,1,1,2.3,0.6,3.6c-1.7,7-0.3,14.3,3.7,20.1c1.3,1.9,0.9,4.6-0.8,6c-1.9,1.4-4.4,1.1-5.8-0.7
	c-5.6-7.7-7.3-17.6-5-27c0.6-2.3,2.8-3.8,5-3.2C214.1,298.4,214.7,298.9,215.3,299.7z"/>
<path class="st6" d="M491.6,298.4c2.2-0.6,4.4,1,5,3.2c2.4,9.4,0.6,19.3-5,27c-1.3,1.8-3.9,2.1-5.8,0.7c-1.7-1.4-2.2-4.1-0.8-6
	c4-5.8,5.3-13,3.7-20.1c-0.4-1.2-0.1-2.6,0.6-3.6C489.8,298.9,490.4,298.4,491.6,298.4z"/>
<path class="st7" d="M357.3,16.8l-0.4,23.8c-0.1,3.2-2.6,5.7-5.9,5.8c-3.2,0-5.7-2.5-5.6-5.7l0.4-23.8c0.1-3.2,2.6-5.7,5.9-5.8
	C354.8,11.1,357.3,13.6,357.3,16.8z"/>
<path class="st7" d="M391.6,31.8c0,1.5-0.6,3-1.8,4.1l-15.4,15.3c-2.3,2.3-5.9,2.3-8.2,0c-2.2-2.2-2.1-5.8,0.2-8.2l15.4-15.3
	c2.3-2.3,5.9-2.3,8.2,0C391.2,28.8,391.7,30.4,391.6,31.8z"/>
<path class="st7" d="M337.3,47.3c0,1.5-0.6,3-1.8,4.1c-2.3,2.3-5.9,2.3-8.2,0l-14.9-15c-2.2-2.2-2.1-5.8,0.2-8.2
	c2.3-2.3,5.9-2.3,8.2,0l14.9,15C336.7,44.4,337.3,45.8,337.3,47.3z"/>
<path class="st1" d="M470.6,190.7c0.2-47.2-33.1-87.3-79.4-102v45.1c0,5.6-4.6,10.1-10.1,10.1c-5.6,0-10.1-4.6-10.1-10.1
	c0,0,0-37.7,0-49.8c0-16.1-8.7-21.9-18.9-21.9v133.7h118.4C470.6,194.1,470.6,192.3,470.6,190.7z"/>
<path class="st8" d="M332.3,84.1c0,16.7,0,49.7,0,49.7c0,5.6-4.6,10.1-10.1,10.1s-10.1-4.6-10.1-10.1V88.9
	c-46,14.9-78.9,54.9-78.9,101.8c0,1.8,0,3.4,0.1,5.1H352V62.1C340.7,62.1,332.3,67.4,332.3,84.1z"/>
<path class="st8" d="M471.1,195.9H352v28.6c53.4,0.1,119.1,7.6,119.1,7.6c9.3,3.4,13.3-6,13.3-13.3v-9.4
	C484.4,201.9,478.4,195.9,471.1,195.9z"/>
<path class="st9" d="M231.3,195.9c-7.3,0-13.3,6-13.3,13.3v9.4c0,7.3,4.6,15.8,13.3,13.3c0,0,67.9-7.6,119.9-7.6c0.3,0,0.5,0,0.8,0
	v-28.6H231.3V195.9z"/>
</svg>
