<?xml version="1.0" encoding="utf-8"?>
<!-- Generator: Adobe Illustrator 24.1.1, SVG Export Plug-In . SVG Version: 6.00 Build 0)  -->
<svg version="1.1" id="Annualized_Rate_of_Return" xmlns="http://www.w3.org/2000/svg" xmlns:xlink="http://www.w3.org/1999/xlink"
	 x="0px" y="0px" viewBox="0 0 512 512" style="enable-background:new 0 0 512 512;" xml:space="preserve">
<style type="text/css">
	.st0{fill:#E6EAEA;}
	.st1{fill:#CDD4D5;}
	.st2{fill:#687F82;}
	.st3{fill:#9BAAAB;}
	.st4{fill:#4ACFD9;}
	.st5{fill:#0295AA;}
	.st6{fill:#FF8C29;}
	.st7{fill:#FD6A33;}
	.st8{fill:#BCD643;}
</style>
<g id="calendar">
	<path class="st0" d="M210,369.5c0-88.1,71.4-159.5,159.5-159.5c17.4,0,34.1,2.8,49.8,7.9V63.4c-0.1-4.7-3.9-8.6-8.6-8.6H8.6
		c-4.7,0-8.6,3.8-8.6,8.6v329c0,4.7,3.8,8.6,8.6,8.6h204.5C211.1,390.8,210,380.2,210,369.5z"/>
	<path class="st1" d="M8.6,54.8c-4.7,0-8.6,3.8-8.6,8.6v329c0,4.7,3.8,8.6,8.6,8.6h201V54.8H8.6z"/>
	<rect x="63.4" y="173" class="st2" width="73.1" height="73.1"/>
	<path class="st3" d="M355.8,210.6V173h-73.1v62.7C304.1,221.8,329,212.8,355.8,210.6z"/>
	<rect x="63.4" y="282.7" class="st2" width="73.1" height="73.1"/>
	<g>
		<path class="st3" d="M235.7,282.7h-62.6v73.1h37.5C212.9,329,221.8,304,235.7,282.7z"/>
		<rect x="173.1" y="173" class="st3" width="73.1" height="73.1"/>
	</g>
	<g>
		<rect x="173.1" y="173" class="st2" width="36.6" height="73.1"/>
		<rect x="173.1" y="282.7" class="st2" width="36.6" height="73.1"/>
	</g>
	<path class="st4" d="M227.9,0h-36.5c-4.7,0-8.6,3.8-8.6,8.6v109.7c0,4.7,3.8,8.6,8.6,8.6H228c4.7,0,8.6-3.8,8.6-8.6V8.6
		C236.5,3.8,232.7,0,227.9,0z"/>
	<path class="st5" d="M191.4,0c-4.7,0-8.6,3.8-8.6,8.6v109.7c0,4.7,3.8,8.6,8.6,8.6h18.3V0.1L191.4,0L191.4,0z"/>
	<path class="st4" d="M365,0h-36.6c-4.7,0-8.6,3.8-8.6,8.6v109.7c0,4.7,3.8,8.6,8.6,8.6H365c4.7,0,8.6-3.8,8.6-8.6V8.6
		C373.6,3.8,369.7,0,365,0z"/>
	<path class="st5" d="M90.9,0H54.3c-4.7,0-8.6,3.8-8.6,8.6v109.7c0,4.7,3.8,8.6,8.6,8.6h36.6c4.7,0,8.6-3.8,8.6-8.6V8.6
		C99.4,3.8,95.6,0,90.9,0z"/>
</g>
<g id="money-sign_2_">
	<path class="st6" d="M428,373.5c-2.3-6.3-5.8-10.9-10.4-13.7c-4.6-2.8-10.9-4.7-19-5.8l-27.6-3.2v35.8l6.7,0.9
		c5.1,0.6,8.6,1.3,10.6,1.9c1.9,0.7,3.3,1.8,4,3.5c0.7,1.7,1,4.6,1,8.7c0,4.3-0.6,7.4-1.8,9.4c-1.2,2-3.8,3.4-7.9,4.3
		c-2.8,0.6-7.1,1-12.5,1.2v55.7h13.5v-22.4c15.7-0.8,27.5-4.7,35.3-11.6c7.9-6.9,11.8-19.5,11.8-37.8
		C431.5,388.8,430.4,379.9,428,373.5z"/>
	<path class="st6" d="M376.2,321.2c12.8,0,28.3,0.9,46.8,2.7v-31.1c-4.7-1-10.8-1.9-18.1-2.9c-7.4-1-14.2-1.6-20.5-1.8v-23h-13.5
		v56.2C372.6,321.2,374.4,321.2,376.2,321.2z"/>
	<path class="st7" d="M363.3,416.6c-15.1,0-32.1-0.8-51-2.3v31.2c12.8,2.3,27.2,3.8,43.5,4.4v22.4h15.1v-55.7
		C368.7,416.6,366.1,416.6,363.3,416.6z"/>
	<path class="st7" d="M355.9,288.2c-15.9,1.2-28,5.2-36.2,12c-8.3,6.9-12.4,18.5-12.4,34.8c0,14.5,2.4,25.6,7.2,33.3
		c4.8,7.7,14.3,12.4,28.4,14.5l28.1,3.8v-35.8l-10.7-1.3c-4.9-0.6-8.3-1.3-10.2-1.9c-1.8-0.7-3.1-1.8-3.7-3.5s-0.9-4.6-0.9-8.7
		c0-4.3,0.9-7.4,2.8-9.4c1.8-1.9,4.8-3.3,8.9-3.8c3.2-0.5,7.8-0.8,13.8-0.8v-56.2h-15.1L355.9,288.2L355.9,288.2z"/>
</g>
<g id="arrow">
	<g>
		<polygon class="st8" points="464.1,274.1 452.5,322.5 511.7,288.3 		"/>
	</g>
	<path class="st8" d="M471.7,311.3c8.3,14.5,13.4,30.8,14.9,47.9c2.8,31.3-6.8,61.7-27,85.8c-20.2,24.1-48.5,38.8-79.7,41.6
		c-31.3,2.8-61.7-6.8-85.8-27c-24.1-20.2-38.8-48.5-41.6-79.7c-2.8-31.3,6.8-61.7,27-85.8c20.2-24.1,48.5-38.8,79.7-41.6
		c11-1,22-0.4,32.5,1.6l4.4-24.6c-12.6-2.4-25.8-3.1-39.2-1.9c-78.4,6.9-136.3,76.1-129.4,154.5S303.6,518.3,382,511.4
		S518.3,435.4,511.4,357c-1.9-21.2-8.3-40.9-18.2-58.2L471.7,311.3z"/>
</g>
</svg>
