<svg width="512" height="512" viewBox="0 0 512 512" fill="none" xmlns="http://www.w3.org/2000/svg">
<path d="M418.214 495.077C462.222 488.792 496 451.016 496 405.35C496 359.355 461.766 321.365 417.303 315.484C410.517 271.171 367.066 237 314.5 237C261.934 237 218.483 271.171 211.697 315.484C167.234 321.365 133 359.355 133 405.35C133 451.016 166.778 488.792 210.786 495.077V496H418.214V495.077Z" fill="#365558"/>
<path fill-rule="evenodd" clip-rule="evenodd" d="M315 496H418.214V495.077C462.222 488.791 496 451.016 496 405.35C496 359.355 461.766 321.365 417.303 315.484C410.538 271.311 367.341 237.217 315 237.001V496Z" fill="#0295AA"/>
<path d="M265.938 439.906H228.953L221.922 461H199.492L237.602 358.625H257.148L295.469 461H273.039L265.938 439.906ZM234.648 422.82H260.242L247.375 384.5L234.648 422.82ZM326.125 424.93V461H305.031V358.625H344.969C352.656 358.625 359.406 360.031 365.219 362.844C371.078 365.656 375.578 369.664 378.719 374.867C381.859 380.023 383.43 385.906 383.43 392.516C383.43 402.547 379.984 410.469 373.094 416.281C366.25 422.047 356.758 424.93 344.617 424.93H326.125ZM326.125 407.844H344.969C350.547 407.844 354.789 406.531 357.695 403.906C360.648 401.281 362.125 397.531 362.125 392.656C362.125 387.641 360.648 383.586 357.695 380.492C354.742 377.398 350.664 375.805 345.461 375.711H326.125V407.844ZM420.414 461H399.32V358.625H420.414V461Z" fill="#E6EAEA"/>
<rect x="10.002" y="56.8643" width="123.465" height="133.497" fill="#CDD4D5"/>
<ellipse cx="71.7346" cy="189.205" rx="61.7326" ry="32.7954" fill="#CDD4D5"/>
<rect x="10.002" y="56.8643" width="61.7326" height="133.497" fill="#9BAAAB"/>
<path fill-rule="evenodd" clip-rule="evenodd" d="M71.7326 156.409V222C37.6386 222 10 207.317 10 189.205C10 171.092 37.6386 156.409 71.7326 156.409Z" fill="#9BAAAB"/>
<ellipse cx="71.7365" cy="58.7954" rx="61.7326" ry="32.7954" fill="#4ACFD9"/>
<path fill-rule="evenodd" clip-rule="evenodd" d="M133.195 93.9053C130.267 110.57 103.867 123.614 71.7326 123.614C39.5978 123.614 13.1978 110.57 10.2698 93.9053C10.0913 94.9213 10 95.9508 10 96.9916C10 115.104 37.6386 129.787 71.7326 129.787C105.827 129.787 133.465 115.104 133.465 96.9916C133.465 95.9508 133.374 94.9213 133.195 93.9053Z" fill="#E6EAEA"/>
<path fill-rule="evenodd" clip-rule="evenodd" d="M133.195 87.7334C130.267 104.398 103.867 117.442 71.7326 117.442C39.5978 117.442 13.1978 104.398 10.2698 87.7334C10.0913 88.7494 10 89.7789 10 90.8198C10 108.932 37.6386 123.615 71.7326 123.615C105.827 123.615 133.465 108.932 133.465 90.8198C133.465 89.7789 133.374 88.7494 133.195 87.7334Z" fill="#0295AA"/>
<path fill-rule="evenodd" clip-rule="evenodd" d="M133.195 144.064C130.267 160.73 103.867 173.774 71.7326 173.774C39.5978 173.774 13.1978 160.73 10.2698 144.064C10.0913 145.08 10 146.11 10 147.151C10 165.263 37.6386 179.946 71.7326 179.946C105.827 179.946 133.465 165.263 133.465 147.151C133.465 146.11 133.374 145.08 133.195 144.064Z" fill="#E6EAEA"/>
<path fill-rule="evenodd" clip-rule="evenodd" d="M71.7326 26V91.5909C37.6386 91.5909 10 76.9079 10 58.7954C10 40.683 37.6386 26 71.7326 26Z" fill="#365558"/>
<path fill-rule="evenodd" clip-rule="evenodd" d="M133.465 96.9365C133.465 96.9545 133.465 96.9726 133.465 96.9907C133.465 97.0087 133.465 97.0268 133.465 97.0448V96.9365ZM71.7322 129.786C37.6382 129.786 9.99963 115.103 9.99963 96.9907C9.99963 95.9498 10.0909 94.9203 10.2694 93.9043C13.1974 110.569 39.5974 123.613 71.7322 123.613V129.786Z" fill="#CDD4D5"/>
<path fill-rule="evenodd" clip-rule="evenodd" d="M133.472 146.999C133.472 147.05 133.473 147.101 133.473 147.153C133.473 147.204 133.472 147.255 133.472 147.306V146.999ZM71.7394 179.948C37.6457 179.948 10.0074 165.265 10.0074 147.153C10.0074 146.112 10.0987 145.082 10.2772 144.066C13.2052 160.731 39.6049 173.775 71.7394 173.775V179.948Z" fill="#CDD4D5"/>
<path fill-rule="evenodd" clip-rule="evenodd" d="M71.7324 123.617C37.6384 123.617 9.99982 108.934 9.99982 90.8217C9.99982 89.7809 10.0911 88.7514 10.2696 87.7354C13.1976 104.4 39.5976 117.444 71.7324 117.444V123.617Z" fill="#365558"/>
<path fill-rule="evenodd" clip-rule="evenodd" d="M133.969 138.662C131.041 155.327 104.641 168.371 72.506 168.371C40.3713 168.371 13.9712 155.327 11.0432 138.662C10.8647 139.678 10.7734 140.708 10.7734 141.748C10.7734 159.861 38.4121 174.544 72.506 174.544C106.6 174.544 134.239 159.861 134.239 141.748C134.239 140.708 134.147 139.678 133.969 138.662Z" fill="#0295AA"/>
<path fill-rule="evenodd" clip-rule="evenodd" d="M133.465 141.698C133.465 141.716 133.465 141.734 133.465 141.752C133.465 141.77 133.465 141.789 133.465 141.807V141.698ZM71.7322 174.548C37.6382 174.548 9.99963 159.865 9.99963 141.752C9.99963 140.712 10.0909 139.682 10.2694 138.666C13.1974 155.331 39.5974 168.375 71.7322 168.375V174.548Z" fill="#365558"/>
<rect x="378.324" y="56.8643" width="123.465" height="133.497" fill="#CDD4D5"/>
<ellipse cx="440.057" cy="189.205" rx="61.7326" ry="32.7954" fill="#CDD4D5"/>
<rect x="378.324" y="56.8643" width="61.7326" height="133.497" fill="#9BAAAB"/>
<path fill-rule="evenodd" clip-rule="evenodd" d="M378.322 189.303V189.107C378.422 171.039 406.022 156.409 440.055 156.409C440.055 156.409 440.055 156.409 440.055 156.409V222C440.055 222 440.055 222 440.055 222C406.022 222 378.422 207.37 378.322 189.303Z" fill="#9BAAAB"/>
<ellipse cx="440.059" cy="58.7954" rx="61.7326" ry="32.7954" fill="#4ACFD9"/>
<path fill-rule="evenodd" clip-rule="evenodd" d="M501.518 93.9053C498.59 110.57 472.19 123.614 440.055 123.614C407.92 123.614 381.52 110.57 378.592 93.9053C378.414 94.9213 378.322 95.9508 378.322 96.9916C378.322 115.104 405.961 129.787 440.055 129.787C474.149 129.787 501.787 115.104 501.787 96.9916C501.787 95.9508 501.696 94.9213 501.518 93.9053Z" fill="#E6EAEA"/>
<path fill-rule="evenodd" clip-rule="evenodd" d="M501.518 87.7334C498.59 104.398 472.19 117.442 440.055 117.442C407.92 117.442 381.52 104.398 378.592 87.7334C378.414 88.7494 378.322 89.7789 378.322 90.8198C378.322 108.932 405.961 123.615 440.055 123.615C474.149 123.615 501.787 108.932 501.787 90.8198C501.787 89.7789 501.696 88.7494 501.518 87.7334Z" fill="#0295AA"/>
<path fill-rule="evenodd" clip-rule="evenodd" d="M501.518 144.064C498.59 160.73 472.19 173.774 440.055 173.774C407.92 173.774 381.52 160.73 378.592 144.064C378.414 145.08 378.322 146.11 378.322 147.151C378.322 165.263 405.961 179.946 440.055 179.946C474.149 179.946 501.787 165.263 501.787 147.151C501.787 146.11 501.696 145.08 501.518 144.064Z" fill="#E6EAEA"/>
<path fill-rule="evenodd" clip-rule="evenodd" d="M378.322 58.8934V58.6975C378.422 40.6301 406.022 26 440.055 26C440.055 26 440.055 26 440.055 26V91.5909C440.055 91.5909 440.055 91.5909 440.055 91.5909C406.022 91.5909 378.422 76.9608 378.322 58.8934Z" fill="#365558"/>
<path fill-rule="evenodd" clip-rule="evenodd" d="M501.789 96.8503C501.789 96.8968 501.789 96.9432 501.789 96.9897C501.789 97.0361 501.789 97.0826 501.789 97.129V96.8503ZM440.056 129.785C405.962 129.785 378.324 115.102 378.324 96.9897C378.324 95.9489 378.415 94.9194 378.594 93.9033C381.522 110.568 407.921 123.612 440.056 123.612V129.785Z" fill="#CDD4D5"/>
<path fill-rule="evenodd" clip-rule="evenodd" d="M501.794 146.97C501.795 147.031 501.795 147.092 501.795 147.153C501.795 147.214 501.795 147.274 501.794 147.335V146.97ZM440.061 179.948C405.968 179.948 378.33 165.265 378.33 147.153C378.33 146.112 378.421 145.082 378.6 144.066C381.527 160.731 407.927 173.775 440.061 173.775V179.948Z" fill="#CDD4D5"/>
<path fill-rule="evenodd" clip-rule="evenodd" d="M501.789 90.6804C501.789 90.7268 501.789 90.7733 501.789 90.8198C501.789 90.8662 501.789 90.9127 501.789 90.9591V90.6804ZM440.056 123.615C405.962 123.615 378.324 108.932 378.324 90.8198C378.324 89.7789 378.415 88.7494 378.594 87.7334C381.522 104.398 407.921 117.442 440.056 117.442V123.615Z" fill="#365558"/>
<path fill-rule="evenodd" clip-rule="evenodd" d="M502.291 138.662C499.363 155.327 472.963 168.371 440.828 168.371C408.694 168.371 382.293 155.327 379.365 138.662C379.187 139.678 379.096 140.708 379.096 141.748C379.096 159.861 406.734 174.544 440.828 174.544C474.922 174.544 502.561 159.861 502.561 141.748C502.561 140.708 502.47 139.678 502.291 138.662Z" fill="#0295AA"/>
<path fill-rule="evenodd" clip-rule="evenodd" d="M501.789 141.613C501.789 141.659 501.789 141.706 501.789 141.752C501.789 141.799 501.789 141.845 501.789 141.892V141.613ZM440.056 174.548C405.962 174.548 378.324 159.865 378.324 141.752C378.324 140.712 378.415 139.682 378.594 138.666C381.522 155.331 407.921 168.375 440.056 168.375V174.548Z" fill="#365558"/>
<path fill-rule="evenodd" clip-rule="evenodd" d="M276.973 165.684L214.805 71L179.946 132.392H117V144.869H187.245L215.58 94.965L277.323 189L314.801 128.016L327.268 144.869H351.793C354.745 153.323 362.81 159.39 372.297 159.39C384.283 159.39 394 149.705 394 137.756C394 125.808 384.283 116.122 372.297 116.122C362.168 116.122 353.659 123.039 351.266 132.392H333.59L313.84 105.694L276.973 165.684ZM381.483 137.756C381.483 142.814 377.37 146.913 372.297 146.913C367.223 146.913 363.11 142.814 363.11 137.756C363.11 132.699 367.223 128.599 372.297 128.599C377.37 128.599 381.483 132.699 381.483 137.756Z" fill="#F0353D"/>
</svg>
