<svg width="512" height="512" viewBox="0 0 512 512" fill="none" xmlns="http://www.w3.org/2000/svg">
<path d="M418.214 495.077C462.222 488.792 496 451.016 496 405.35C496 359.355 461.766 321.365 417.303 315.484C410.517 271.171 367.066 237 314.5 237C261.934 237 218.483 271.171 211.697 315.484C167.234 321.365 133 359.355 133 405.35C133 451.016 166.778 488.792 210.786 495.077V496H418.214V495.077Z" fill="#365558"/>
<path fill-rule="evenodd" clip-rule="evenodd" d="M315 496H418.214V495.077C462.222 488.791 496 451.016 496 405.35C496 359.355 461.766 321.365 417.303 315.484C410.538 271.311 367.341 237.217 315 237.001V496Z" fill="#0295AA"/>
<path d="M265.938 439.906H228.953L221.922 461H199.492L237.602 358.625H257.148L295.469 461H273.039L265.938 439.906ZM234.648 422.82H260.242L247.375 384.5L234.648 422.82ZM326.125 424.93V461H305.031V358.625H344.969C352.656 358.625 359.406 360.031 365.219 362.844C371.078 365.656 375.578 369.664 378.719 374.867C381.859 380.023 383.43 385.906 383.43 392.516C383.43 402.547 379.984 410.469 373.094 416.281C366.25 422.047 356.758 424.93 344.617 424.93H326.125ZM326.125 407.844H344.969C350.547 407.844 354.789 406.531 357.695 403.906C360.648 401.281 362.125 397.531 362.125 392.656C362.125 387.641 360.648 383.586 357.695 380.492C354.742 377.398 350.664 375.805 345.461 375.711H326.125V407.844ZM420.414 461H399.32V358.625H420.414V461Z" fill="#E6EAEA"/>
<path fill-rule="evenodd" clip-rule="evenodd" d="M29.3633 24C24.945 24 21.3633 27.5817 21.3633 32V296C21.3633 300.418 24.945 304 29.3633 304H171.362V245.539L230.593 242.462L230.594 242.462V32C230.594 27.5817 227.012 24 222.594 24H29.3633Z" fill="#E6EAEA"/>
<path d="M21 28.375C21 25.9588 22.966 24 25.3911 24H126V304H25.3911C22.966 304 21 302.041 21 299.625V28.375Z" fill="#E6EAEA"/>
<path d="M170 248V304L172.278 303.225L229.241 245.1L230 242H176C172.686 242 170 244.686 170 248Z" fill="#0295AA"/>
<path d="M104.086 136H29V192H158V136H143.332L123.709 169.6L104.086 136Z" fill="#365558"/>
<rect x="29" y="195" width="129" height="8" fill="#FD6A33"/>
<path d="M222 163.758H170V150H222V163.758ZM222 189H170V175.242H222V189Z" fill="#0295AA"/>
<path d="M114.542 121.738L114.542 75L132.458 75L132.458 121.738L145 121.738L123.5 159L102 121.738L114.542 121.738Z" fill="#0295AA"/>
<path d="M131 94V75H29V94H131Z" fill="#0295AA"/>
</svg>
