<svg width="512" height="512" viewBox="0 0 512 512" fill="none" xmlns="http://www.w3.org/2000/svg">
<path d="M418.214 495.077C462.222 488.792 496 451.016 496 405.35C496 359.355 461.766 321.365 417.303 315.484C410.517 271.171 367.066 237 314.5 237C261.934 237 218.483 271.171 211.697 315.484C167.234 321.365 133 359.355 133 405.35C133 451.016 166.778 488.792 210.786 495.077V496H418.214V495.077Z" fill="#365558"/>
<path fill-rule="evenodd" clip-rule="evenodd" d="M315 496H418.214V495.077C462.222 488.791 496 451.016 496 405.35C496 359.355 461.766 321.365 417.303 315.484C410.538 271.311 367.341 237.217 315 237.001V496Z" fill="#0295AA"/>
<path d="M265.938 439.906H228.953L221.922 461H199.492L237.602 358.625H257.148L295.469 461H273.039L265.938 439.906ZM234.648 422.82H260.242L247.375 384.5L234.648 422.82ZM326.125 424.93V461H305.031V358.625H344.969C352.656 358.625 359.406 360.031 365.219 362.844C371.078 365.656 375.578 369.664 378.719 374.867C381.859 380.023 383.43 385.906 383.43 392.516C383.43 402.547 379.984 410.469 373.094 416.281C366.25 422.047 356.758 424.93 344.617 424.93H326.125ZM326.125 407.844H344.969C350.547 407.844 354.789 406.531 357.695 403.906C360.648 401.281 362.125 397.531 362.125 392.656C362.125 387.641 360.648 383.586 357.695 380.492C354.742 377.398 350.664 375.805 345.461 375.711H326.125V407.844ZM420.414 461H399.32V358.625H420.414V461Z" fill="#E6EAEA"/>
<path fill-rule="evenodd" clip-rule="evenodd" d="M41 429L41 95L76 95L76 429L41 429Z" fill="#FD6A33"/>
<circle cx="58.5" cy="55.5" r="46.5" fill="#F0353D"/>
<circle cx="58.5" cy="449.5" r="46.5" fill="#FF8C29"/>
<path fill-rule="evenodd" clip-rule="evenodd" d="M167 187.535H95.4585C84.9141 187.535 76.3662 196.125 76.3662 206.721H42C42 177.051 65.9342 153 95.4585 153H167V187.535Z" fill="#FD6A33"/>
<path d="M170 84V198H496V84H170Z" fill="#9BAAAB"/>
<rect x="170" y="201" width="326" height="15" fill="#E6EAEA"/>
<path fill-rule="evenodd" clip-rule="evenodd" d="M251.627 60.8829H233V45H251.627C267.849 45 281 58.2524 281 74.6V163.4C281 179.748 267.849 193 251.627 193H233V177.117H251.627C259.145 177.117 265.239 170.976 265.239 163.4V74.6C265.239 67.0243 259.145 60.8829 251.627 60.8829Z" fill="#E6EAEA"/>
<path fill-rule="evenodd" clip-rule="evenodd" d="M294.373 60.8829H313V45H294.373C278.151 45 265 58.2524 265 74.6V163.4C265 179.748 278.151 193 294.373 193H313V177.117H294.373C286.855 177.117 280.761 170.976 280.761 163.4V74.6C280.761 67.0243 286.855 60.8829 294.373 60.8829Z" fill="#E6EAEA"/>
</svg>
