<svg width="512" height="512" viewBox="0 0 512 512" fill="none" xmlns="http://www.w3.org/2000/svg">
<path fill-rule="evenodd" clip-rule="evenodd" d="M71.0707 150.879C65.4188 144.546 57.1938 140.558 48.0376 140.558H37.8375C35.5264 140.558 33.6529 138.685 33.6529 136.374V34.3727C33.6529 32.0615 35.5264 30.188 37.8375 30.188H258.316C260.628 30.188 262.501 32.0615 262.501 34.3727V136.374C262.501 138.685 260.628 140.558 258.316 140.558H94.1049C85.1686 140.558 76.8353 144.416 71.0707 150.879ZM78.461 164.124C81.2964 158.044 87.3969 154.158 94.1049 154.158H258.316C268.139 154.158 276.101 146.196 276.101 136.374V34.3727C276.101 24.5504 268.139 16.5879 258.316 16.5879H37.8375C28.0153 16.5879 20.0527 24.5504 20.0527 34.3727V136.374C20.0527 146.196 28.0152 154.158 37.8375 154.158H48.0376C54.8667 154.158 60.7696 158.124 63.5689 163.878C64.6774 166.157 65.2992 168.716 65.2992 171.42V192.343L78.461 164.124Z" fill="#9BAAAB"/>
<path fill-rule="evenodd" clip-rule="evenodd" d="M71.0707 339.298C65.4188 332.965 57.1938 328.978 48.0376 328.978H37.8375C35.5264 328.978 33.6529 327.104 33.6529 324.793V222.792C33.6529 220.481 35.5264 218.607 37.8375 218.607H258.316C260.628 218.607 262.501 220.481 262.501 222.792V324.793C262.501 327.104 260.628 328.978 258.316 328.978H94.1049C85.1686 328.978 76.8353 332.835 71.0707 339.298ZM78.461 352.543C81.2964 346.464 87.3969 342.578 94.1049 342.578H258.316C268.139 342.578 276.101 334.615 276.101 324.793V222.792C276.101 212.97 268.139 205.007 258.316 205.007H37.8375C28.0153 205.007 20.0527 212.97 20.0527 222.792V324.793C20.0527 334.615 28.0152 342.578 37.8375 342.578H48.0376C54.8667 342.578 60.7696 346.544 63.5689 352.298C64.6774 354.576 65.2992 357.135 65.2992 359.839V380.763L78.461 352.543Z" fill="#9BAAAB"/>
<path fill-rule="evenodd" clip-rule="evenodd" d="M286.916 184.356C281.264 178.023 273.04 174.035 263.883 174.035H253.683C251.372 174.035 249.499 172.162 249.499 169.851V67.8497C249.499 65.5386 251.372 63.6651 253.683 63.6651H474.162C476.473 63.6651 478.347 65.5386 478.347 67.8497V169.851C478.347 172.162 476.473 174.035 474.162 174.035H309.951C301.014 174.035 292.681 177.893 286.916 184.356ZM294.307 197.601C297.142 191.522 303.243 187.635 309.951 187.635H474.162C483.984 187.635 491.947 179.673 491.947 169.851V67.8497C491.947 58.0275 483.984 50.0649 474.162 50.0649H253.683C243.861 50.0649 235.898 58.0275 235.898 67.8497V169.851C235.898 179.673 243.861 187.635 253.683 187.635H263.883C270.712 187.635 276.615 191.601 279.415 197.355C280.523 199.634 281.145 202.193 281.145 204.897V225.82L294.307 197.601Z" fill="#9BAAAB"/>
<path d="M418.214 495.077C462.222 488.792 496 451.016 496 405.35C496 359.355 461.766 321.365 417.303 315.484C410.517 271.171 367.066 237 314.5 237C261.934 237 218.483 271.171 211.697 315.484C167.234 321.365 133 359.355 133 405.35C133 451.016 166.778 488.792 210.786 495.077V496H418.214V495.077Z" fill="#365558"/>
<path fill-rule="evenodd" clip-rule="evenodd" d="M315 496H418.214V495.077C462.222 488.791 496 451.016 496 405.35C496 359.355 461.766 321.365 417.303 315.484C410.538 271.311 367.341 237.217 315 237.001V496Z" fill="#0295AA"/>
<path d="M265.938 439.906H228.953L221.922 461H199.492L237.602 358.625H257.148L295.469 461H273.039L265.938 439.906ZM234.648 422.82H260.242L247.375 384.5L234.648 422.82ZM326.125 424.93V461H305.031V358.625H344.969C352.656 358.625 359.406 360.031 365.219 362.844C371.078 365.656 375.578 369.664 378.719 374.867C381.859 380.023 383.43 385.906 383.43 392.516C383.43 402.547 379.984 410.469 373.094 416.281C366.25 422.047 356.758 424.93 344.617 424.93H326.125ZM326.125 407.844H344.969C350.547 407.844 354.789 406.531 357.695 403.906C360.648 401.281 362.125 397.531 362.125 392.656C362.125 387.641 360.648 383.586 357.695 380.492C354.742 377.398 350.664 375.805 345.461 375.711H326.125V407.844ZM420.414 461H399.32V358.625H420.414V461Z" fill="#E6EAEA"/>
<path fill-rule="evenodd" clip-rule="evenodd" d="M163.377 110.743L133.561 110.743L133.561 99.2349L163.377 99.2349C169.443 99.2349 174.361 94.3168 174.361 88.2502C174.361 82.1835 169.443 77.2655 163.377 77.2655L133.561 77.2654L133.561 65.7577L163.377 65.7577C175.799 65.7577 185.869 75.8279 185.869 88.2502C185.869 100.672 175.799 110.743 163.377 110.743Z" fill="#9BAAAB"/>
<path fill-rule="evenodd" clip-rule="evenodd" d="M163.377 299.162L133.561 299.162L133.561 287.654L163.377 287.654C169.443 287.654 174.361 282.736 174.361 276.67C174.361 270.603 169.443 265.685 163.377 265.685L133.561 265.685L133.561 254.177L163.377 254.177C175.799 254.177 185.869 264.247 185.869 276.67C185.869 289.092 175.799 299.162 163.377 299.162Z" fill="#9BAAAB"/>
<path fill-rule="evenodd" clip-rule="evenodd" d="M379.222 144.22L349.407 144.22L349.407 132.712L379.222 132.712C385.289 132.712 390.207 127.794 390.207 121.727C390.207 115.661 385.289 110.743 379.222 110.743L349.407 110.742L349.407 99.2347L379.222 99.2347C391.645 99.2347 401.715 109.305 401.715 121.727C401.715 134.149 391.645 144.22 379.222 144.22Z" fill="#9BAAAB"/>
<path d="M115.254 71.5112L139.97 52.9381L139.97 90.0843L115.254 71.5112Z" fill="#F0353D"/>
<path d="M115.254 259.931L139.97 241.358L139.97 278.504L115.254 259.931Z" fill="#F0353D"/>
<path d="M331.1 104.988L355.815 86.4151L355.815 123.561L331.1 104.988Z" fill="#F0353D"/>
<path fill-rule="evenodd" clip-rule="evenodd" d="M151.87 134.804C179.892 134.804 202.608 112.088 202.608 84.0654C202.608 56.043 179.892 33.3265 151.87 33.3265C123.847 33.3265 101.131 56.043 101.131 84.0654C101.131 112.088 123.847 134.804 151.87 134.804ZM151.87 149.451C187.981 149.451 217.255 120.177 217.255 84.0654C217.255 47.9541 187.981 18.6802 151.87 18.6802C115.758 18.6802 86.4844 47.9541 86.4844 84.0654C86.4844 120.177 115.758 149.451 151.87 149.451Z" fill="#0295AA"/>
<path fill-rule="evenodd" clip-rule="evenodd" d="M151.87 323.224C179.892 323.224 202.608 300.507 202.608 272.485C202.608 244.462 179.892 221.746 151.87 221.746C123.847 221.746 101.131 244.462 101.131 272.485C101.131 300.507 123.847 323.224 151.87 323.224ZM151.87 337.87C187.981 337.87 217.255 308.596 217.255 272.485C217.255 236.374 187.981 207.1 151.87 207.1C115.758 207.1 86.4844 236.374 86.4844 272.485C86.4844 308.596 115.758 337.87 151.87 337.87Z" fill="#0295AA"/>
<path fill-rule="evenodd" clip-rule="evenodd" d="M367.715 168.281C395.738 168.281 418.454 145.565 418.454 117.542C418.454 89.5201 395.738 66.8035 367.715 66.8035C339.693 66.8035 316.976 89.5201 316.976 117.542C316.976 145.565 339.693 168.281 367.715 168.281ZM367.715 182.928C403.827 182.928 433.1 153.654 433.1 117.542C433.1 81.4312 403.827 52.1572 367.715 52.1572C331.604 52.1572 302.33 81.4312 302.33 117.542C302.33 153.654 331.604 182.928 367.715 182.928Z" fill="#0295AA"/>
<path d="M186.393 130.718L194.939 122.25L235.376 163.063L226.829 171.53L186.393 130.718Z" fill="#0295AA"/>
<path d="M186.393 319.137L194.939 310.67L235.376 351.482L226.829 359.95L186.393 319.137Z" fill="#0295AA"/>
<path d="M402.238 164.195L410.785 155.727L451.221 196.54L442.675 205.007L402.238 164.195Z" fill="#0295AA"/>
</svg>
