<svg width="512" height="512" viewBox="0 0 512 512" fill="none" xmlns="http://www.w3.org/2000/svg">
<path d="M418.214 495.077C462.222 488.792 496 451.016 496 405.35C496 359.355 461.766 321.365 417.303 315.484C410.517 271.171 367.066 237 314.5 237C261.934 237 218.483 271.171 211.697 315.484C167.234 321.365 133 359.355 133 405.35C133 451.016 166.778 488.792 210.786 495.077V496H418.214V495.077Z" fill="#365558"/>
<path fill-rule="evenodd" clip-rule="evenodd" d="M315 496H418.214V495.077C462.222 488.791 496 451.016 496 405.35C496 359.355 461.766 321.365 417.303 315.484C410.538 271.311 367.341 237.217 315 237.001V496Z" fill="#0295AA"/>
<path d="M265.938 439.906H228.953L221.922 461H199.492L237.602 358.625H257.148L295.469 461H273.039L265.938 439.906ZM234.648 422.82H260.242L247.375 384.5L234.648 422.82ZM326.125 424.93V461H305.031V358.625H344.969C352.656 358.625 359.406 360.031 365.219 362.844C371.078 365.656 375.578 369.664 378.719 374.867C381.859 380.023 383.43 385.906 383.43 392.516C383.43 402.547 379.984 410.469 373.094 416.281C366.25 422.047 356.758 424.93 344.617 424.93H326.125ZM326.125 407.844H344.969C350.547 407.844 354.789 406.531 357.695 403.906C360.648 401.281 362.125 397.531 362.125 392.656C362.125 387.641 360.648 383.586 357.695 380.492C354.742 377.398 350.664 375.805 345.461 375.711H326.125V407.844ZM420.414 461H399.32V358.625H420.414V461Z" fill="#E6EAEA"/>
<path fill-rule="evenodd" clip-rule="evenodd" d="M41 429L41 95L76 95L76 429L41 429Z" fill="#0295AA"/>
<circle cx="58.5" cy="55.5" r="46.5" fill="#4ACFD9"/>
<circle cx="58.5" cy="449.5" r="46.5" fill="#365558"/>
<path fill-rule="evenodd" clip-rule="evenodd" d="M167 141.535H95.4585C84.9141 141.535 76.3662 150.125 76.3662 160.721H42C42 131.051 65.9342 107 95.4585 107H167V141.535Z" fill="#0295AA"/>
<path fill-rule="evenodd" clip-rule="evenodd" d="M167 277.535H95.4585C84.9141 277.535 76.3662 286.125 76.3662 296.721H42C42 267.051 65.9342 243 95.4585 243H167V277.535Z" fill="#0295AA"/>
<path d="M179 56V134H496V56H179Z" fill="#365558"/>
<path d="M179 192V270H496V192H179Z" fill="#365558"/>
<rect x="179" y="136" width="317" height="10" fill="#E6EAEA"/>
<rect x="179" y="272" width="317" height="10" fill="#E6EAEA"/>
<path fill-rule="evenodd" clip-rule="evenodd" d="M234.806 39.839H222V29H234.806C245.959 29 255 38.0438 255 49.2V109.8C255 120.956 245.959 130 234.806 130H222V119.161H234.806C239.974 119.161 244.164 114.97 244.164 109.8V49.2C244.164 44.0301 239.974 39.839 234.806 39.839Z" fill="#E6EAEA"/>
<path fill-rule="evenodd" clip-rule="evenodd" d="M234.806 175.839H222V165H234.806C245.959 165 255 174.044 255 185.2V245.8C255 256.956 245.959 266 234.806 266H222V255.161H234.806C239.974 255.161 244.164 250.97 244.164 245.8V185.2C244.164 180.03 239.974 175.839 234.806 175.839Z" fill="#E6EAEA"/>
<path fill-rule="evenodd" clip-rule="evenodd" d="M264.194 39.839H277V29H264.194C253.041 29 244 38.0438 244 49.2V109.8C244 120.956 253.041 130 264.194 130H277V119.161H264.194C259.026 119.161 254.836 114.97 254.836 109.8V49.2C254.836 44.0301 259.026 39.839 264.194 39.839Z" fill="#E6EAEA"/>
<path fill-rule="evenodd" clip-rule="evenodd" d="M264.194 175.839H277V165H264.194C253.041 165 244 174.044 244 185.2V245.8C244 256.956 253.041 266 264.194 266H277V255.161H264.194C259.026 255.161 254.836 250.97 254.836 245.8V185.2C254.836 180.03 259.026 175.839 264.194 175.839Z" fill="#E6EAEA"/>
</svg>
