<?xml version="1.0" encoding="utf-8"?>
<!-- Generator: Adobe Illustrator 19.0.0, SVG Export Plug-In . SVG Version: 6.00 Build 0)  -->
<svg version="1.1" id="Layer_1" xmlns="http://www.w3.org/2000/svg" xmlns:xlink="http://www.w3.org/1999/xlink" x="0px" y="0px"
	 viewBox="96 11 512 512" style="enable-background:new 96 11 512 512;" xml:space="preserve">
<style type="text/css">
	.st0{display:none;}
	.st1{display:inline;}
	.st2{fill:#FF8C29;}
	.st3{fill:#FD6A33;}
	.st4{fill:#4ACFD9;}
	.st5{fill:#0295AA;}
	.st6{fill:#FFFFFF;}
	.st7{fill:#365558;}
	.st8{fill:#F0353D;}
	.st9{fill:#FFD1A9;}
	.st10{fill:#9BAAAB;}
	.st11{fill:#CDD4D5;}
	.st12{fill:#E6EAEA;}
	.st13{fill:#BCD643;}
	.st14{fill:#E34C40;}
</style>
<g id="Layer_3" class="st0">
	<rect x="604" y="-390.4" class="st1" width="512" height="512.8"/>
</g>
<g>
	<path class="st2" d="M547,327.1c2.3-7.7,6.3-9.2,12.8-10.1c15.5-2.7,30.8-5.7,47.5-8.8c0-28.3,0-55.9,0-83.3
		c-18.2-4-34.4-8-50.7-10.5c-5.6-1-7.5-3.4-9.2-7.7c-5.6-12.8-10.9-25.5-15.9-38.3c-0.8-1.9-0.4-5,0.8-6.9c8.4-13.2,17-26.2,25.6-39
		c2.1-3.3,3.8-5.9,0-9.8c-5.9-5.9-10.5-13.2-16.5-18.9c-12.1-11.5-24.3-22.4-36.4-33.7c-3.1-2.9-5.2-1.9-8,0.2
		c-13,8.6-25.8,17.4-39,25.5c-2.3,1.3-5.9,1.7-8.4,0.8c-12.8-5-25.3-10.5-37.7-16.3c-3.3-1.5-7.3-4.4-7.8-7.3
		c-3.3-14.9-5.6-30-8.8-44.8c-0.4-2.3-3.4-5.6-5.7-5.7c-9-1.1-18-1.7-27-1.5c-3.4,0-6.9,0.2-10.3,0.2v93.6c0.4,0,0.6,0,1,0
		c95.1,0.4,161.9,79.8,161,163.3c-0.8,78.1-61.4,160-161.5,160.4c-0.2,0-0.4,0-0.4,0v94.2c2.7,0.2,5.4,0.2,8,0.4
		c8.6,0.2,17.4-0.4,26.2-1.7c3.3-0.4,8-3.1,8.6-5.6c3.4-14.9,5.6-30,8.8-44.8c0.8-3.8,1.9-6.7,7.5-8.4c12.6-4,24.3-10.7,36.7-15.5
		c3.3-1.1,8.4-0.8,11.5,1.1c12.2,7.5,23.9,15.5,35.6,23.5c4.2,2.9,7.8,4.8,11.9-0.6c2.1-2.9,5.9-4.6,8.6-7.3
		c14.7-15.1,29.3-30,43.8-45.4c1-1,0.2-4.6-1-6.3c-8.4-12.4-16.8-24.9-25.6-37.3c-2.9-4-2.9-7.7-0.8-12.2
		C537.8,350.4,543.5,339.1,547,327.1z"/>
	<path class="st3" d="M191.1,265.8c-1.9-82.5,66.2-161.3,161.3-161.3V10.9c-12.1,0.4-23.9,0.8-36,1.3c-2.5,0.2-6.5,2.7-7.1,4.6
		c-2.7,12.2-4.2,24.9-7.1,37.1c-1.1,5.7-2.9,13.8-7.1,16.1c-13.2,7.1-27.6,11.7-41.5,17c-1.9,0.8-5,0.2-6.9-1
		c-12.8-7.8-25.8-15.5-37.7-24.7c-6.1-4.8-9.4-2.5-13.6,1.1c-5.2,4.4-10.3,8.8-15.1,13.8c-11.5,11.9-22.4,24.1-33.7,36.2
		c-3.4,3.8-2.7,6.3,0,10.3c8.8,12.8,17.4,26,25.6,39c1.1,1.7,1.7,4.4,1,6.1c-4.6,10.7-11.3,21.1-14.2,32.2
		c-2.7,10.9-8.4,14.4-18.8,15.9c-14.2,1.9-28.1,5.6-43.4,8.8c0,28.3,0,55.9,0,83.1c19.3,4,36.7,7.3,54,10.9c1.7,0.4,3.6,2.5,4.2,4
		c6.3,15.1,12.2,30.2,18.9,46.3c-9.2,13.4-18.9,27.8-28.7,42.3c-1.1,1.7-1.1,5.4,0,6.9c15.1,18.9,31.4,37.1,51.3,51.7
		c5.7,4.2,8.4,3.3,13,0c11.5-7.8,23.2-15.7,35-23c2.5-1.5,6.7-2.5,9.2-1.3c13.2,5.2,25.8,11.9,39.2,16.1c4.8,1.5,6.3,4,7.1,7.1
		c3.4,16.5,6.3,33.1,9.6,51.3c13.8,0.6,27.9,1.5,42.1,1.9v-94.1C253.8,428.1,188.9,346.6,191.1,265.8z"/>
	<path class="st4" d="M353.4,104.5c-0.4,0-0.6,0-1,0v73.1h0.2c40.4,0.2,88.4,32.2,88.4,88.8c0,52.2-42.1,88.4-88.4,88.4v73.3
		c0.2,0,0.4,0,0.4,0c100.1-0.4,160.8-82.5,161.5-160.4C515.3,184.3,448.5,104.9,353.4,104.5z"/>
	<path class="st5" d="M352.2,354.6c-48.6,0-88.8-39.8-88.4-88.6c0.4-55.9,47.5-88.4,88.4-88.4v-73.1c-95.1,0-163.3,78.9-161.3,161.5
		c-2.1,80.8,62.6,162.3,161.3,162.1V354.6C352.4,354.6,352.2,354.6,352.2,354.6z"/>
	<path class="st6" d="M436.6,191.4c-3.4,0-6.9-1.5-9.2-4.4c-13.2-15.7-32.3-24.7-52.8-24.7c-6.7,0-12.2-5.6-12.2-12.2
		c0-6.7,5.6-12.2,12.2-12.2c27.6,0,53.6,12.2,71.2,33.5c4.2,5.2,3.6,12.8-1.5,17C442.2,190.4,439.5,191.4,436.6,191.4z"/>
	<path class="st5" d="M352.4,496.1c2.5,0,4.8,0.2,7.3,0.2c0.6,0,1.3,0,1.9,0c1.9,0,4,0,6.1-0.2c0.6-3.1,1.1-6.1,1.7-9.2
		c1.1-6.3,2.3-12.6,3.6-18.9c0.6-2.7,1.1-5.2,2.1-7.5c-7.3,1-14.9,1.3-22.6,1.3L352.4,496.1L352.4,496.1z"/>
	<path class="st5" d="M374.8,76.7c-0.8-1.9-1.5-3.8-1.9-6.1c-2.1-8.8-3.6-17.8-5.4-26.2c-0.2-1-0.4-1.7-0.4-2.7c-1.5,0-3.1,0-4.6,0
		H361c-2.7,0-5.6,0-8.4,0.2v33.5C360.1,75.4,367.5,75.8,374.8,76.7z"/>
	<path class="st5" d="M498.6,97.2c-0.4-0.4-0.4-0.4-0.8-0.8c-8.6,5.7-16.7,10.9-24.9,16.1c-1.5,1-3.1,1.9-4.8,2.7
		c6.9,5.2,13.2,10.9,19.3,17.2c5.7,5.9,11.3,12.2,16.3,18.8c0.6-1.3,1.3-2.7,2.1-4c5.6-8.8,11.5-17.8,17.2-26.4
		c-1.1-1.5-2.5-2.9-3.4-4C513,110,505.9,103.9,498.6,97.2z"/>
	<path class="st5" d="M503.8,387.4c-9.8,13-21.2,24.9-34.4,35c1.9,0.8,3.8,1.7,5.6,2.7c8.2,5,16.1,10.1,23.9,15.5
		c7.5-7.7,15.7-15.9,24.1-24.9c-4.8-6.7-9.6-13.8-14.5-21.1C506.3,392.3,504.7,389.7,503.8,387.4z"/>
	<path class="st5" d="M576.8,251.3c-8.6-1.9-17.2-3.6-25.3-4.8c-3.3-0.4-6.3-1.1-9.2-2.5c1.1,8.6,1.7,17.4,1.7,26.2
		c0,7.7-0.6,15.1-1.5,22.6c3.6-1.5,7.7-2.7,11.9-3.3c7.5-1.3,14.9-2.7,22.6-4L576.8,251.3z"/>
	<path class="st7" d="M141.7,248.6c-5.6,0.8-11.3,1.9-17.4,3.3v34.4c10.3,2.1,20.3,4,30.2,6.3c1.5,0.4,2.9,0.8,4.2,1.1
		c-1-8.2-1.3-16.7-1.1-24.9c-0.2-8.2,0.4-16.7,1.1-24.9C153.9,246.1,147.9,247.6,141.7,248.6z"/>
	<path class="st7" d="M329.8,61.6l-0.2,0.6c-1,4-1.9,9.2-4.2,14.7c8.4-1.1,16.7-1.7,25.3-1.7h0.8c0.4,0,0.6,0,1,0V41.7
		c-6.3,0.2-12.6,0.4-18.9,0.6C332.3,48.6,331.4,54.9,329.8,61.6z"/>
	<path class="st7" d="M351.4,462h-1.1c-7.8,0-15.7-0.4-23.3-1.3c0.8,1.9,1.1,4,1.7,5.9c1.9,9.6,3.8,18.9,5.6,28.7
		c6.1,0.4,12.2,0.4,18.2,0.8V462C352.2,462,351.6,462,351.4,462z"/>
	<path class="st7" d="M197.9,388.1c0,0-5.4,7.8-7.3,10.7c-4,5.9-8.2,12.1-12.2,18.2c7.1,8,14.9,16.5,23.9,24.1
		c8.4-5.6,16.7-10.9,24.9-16.1c1.7-1.1,3.4-1.9,5.4-2.7c-7.1-5.4-13.8-11.3-19.9-17.6C207.1,399.4,202.4,394.1,197.9,388.1z"/>
	<path class="st7" d="M220.4,108.3c-6.3-3.8-12.6-7.7-18.9-11.9c-0.8,0.6-1.3,1.3-1.9,1.9c-5.9,6.3-11.9,12.8-17.6,18.9
		c-1.1,1.1-2.5,2.7-3.4,4c5.7,8.8,11.5,17.6,16.8,26c0.6,1.1,1.1,2.1,1.9,3.3c4.8-6.1,9.8-11.9,15.1-17.4c6.3-6.5,13-12.4,20.1-18
		c-1.3-0.6-2.7-1.3-4-2.1C225.7,111.6,223.2,110,220.4,108.3z"/>
</g>
<rect x="-635" y="-15.6" class="st8" width="128" height="128"/>
<rect x="-507" y="-15.6" class="st3" width="128" height="128"/>
<rect x="-379" y="-15.6" class="st2" width="128" height="128"/>
<rect x="-251" y="-15.6" class="st9" width="128" height="128"/>
<rect x="-635" y="112.4" class="st7" width="128" height="128"/>
<rect x="-507" y="112.4" class="st5" width="128" height="128"/>
<rect x="-379" y="112.4" class="st4" width="128" height="128"/>
<rect x="-635" y="240.4" class="st10" width="128" height="128"/>
<rect x="-507" y="240.4" class="st11" width="128" height="128"/>
<rect x="-379" y="240.4" class="st12" width="128" height="128"/>
<rect x="-251" y="240.4" class="st6" width="128" height="128"/>
<rect x="-635" y="368.4" class="st13" width="128" height="128"/>
<g>
	<path class="st3" d="M177.1,266.9c0,96.6,78.3,174.9,174.9,174.9V92C255.4,92,177.1,170.1,177.1,266.9z"/>
	<path class="st2" d="M526.9,266.9C526.9,170.3,448.6,92,352,92v350C448.6,441.8,526.9,363.5,526.9,266.9z"/>
	<path class="st10" d="M242.6,266.9c0,60.4,49,109.4,109.4,109.4v-219C291.6,157.3,242.6,206.5,242.6,266.9z"/>
	<path class="st11" d="M461.4,266.9c0-60.4-49-109.4-109.4-109.4v219.2C412.4,376.3,461.4,327.1,461.4,266.9z"/>
	<path class="st12" d="M264.4,266.9c0,48.4,39.3,87.6,87.6,87.6V179.1C303.6,179.1,264.4,218.3,264.4,266.9z"/>
	<path class="st6" d="M439.6,266.9c0-48.4-39.3-87.6-87.6-87.6v175.5C400.4,354.5,439.6,315.3,439.6,266.9z"/>
	<path class="st9" d="M351.8,92v54.2c6.8,0,12.4-5.4,12.4-12.4V93.2c0-0.4,0-0.6,0-0.8C360.2,92.2,355.9,92,351.8,92z"/>
	<path class="st2" d="M340.9,92.2c0,0.4,0,0.8,0,1.2V134c0,6.4,4.9,11.9,11.1,12.2V92C348.3,92,344.6,92,340.9,92.2z"/>
	<path class="st3" d="M352,388.6v53.2c4.1,0,8.4-0.2,12.4-0.4V401C364.4,394.2,359,388.6,352,388.6z"/>
	<path class="st9" d="M340.9,401v40.6c3.7,0.2,7.4,0.4,11.1,0.4v-53.2C345.6,389.1,340.9,394.4,340.9,401z"/>
	<path class="st9" d="M219.7,254.5h-40.4c-0.6,0-1.2,0-1.7,0.2c-0.2,4.1-0.4,8.2-0.4,12.2h55C232.1,260.1,226.7,254.5,219.7,254.5z"
		/>
	<path class="st2" d="M219.7,279.3c6.8,0,12.4-5.4,12.4-12.4h-55c0,4.1,0.2,8.4,0.4,12.2c0.6,0,1.2,0.2,1.7,0.2H219.7z"/>
	<path class="st3" d="M486.9,254.5c-6.8,0-12.4,5.4-12.4,12.4h52.5l0,0c0-4.1-0.2-8.4-0.4-12.4L486.9,254.5L486.9,254.5z"/>
	<path class="st9" d="M486.9,279.3h39.6c0.2-4.1,0.4-8.4,0.4-12.4h-52.5C474.4,273.5,479.9,279.3,486.9,279.3z"/>
	<path class="st9" d="M267.7,163.7l-28.6-28.6c-0.2-0.2-0.6-0.4-1.2-0.8c-3.1,2.5-6,5.4-8.9,8.4l38.7,38.7
		C272.3,176.3,272.3,168.4,267.7,163.7z"/>
	<path class="st2" d="M250.2,181.2c4.9,4.9,12.6,4.9,17.5,0L229,142.5c-2.9,2.9-5.6,5.8-8.4,8.9c0.2,0.4,0.6,0.6,0.8,1.2
		L250.2,181.2z"/>
	<path class="st3" d="M438.9,352.6l37.5,37.5c2.9-2.9,5.6-5.8,8.4-9.1l-28.4-28.4C451.5,347.7,443.5,347.7,438.9,352.6z"/>
	<path class="st9" d="M438.9,369.9l28.4,28.4c3.1-2.5,6-5.4,8.9-8.6l-37.3-37.3C434,357.3,434,365.2,438.9,369.9z"/>
	<path class="st9" d="M249.8,352l-28.6,28.6c-0.4,0.4-0.6,0.6-0.8,1.2c2.5,3.1,5.4,6,8.4,8.9l38.7-38.7
		C262.4,347.4,254.4,347.4,249.8,352z"/>
	<path class="st2" d="M267.1,369.5c4.9-4.9,4.9-12.6,0-17.5l-38.7,38.7c2.9,2.9,5.8,5.6,8.9,8.4c0.4-0.2,0.6-0.4,1.2-0.8
		L267.1,369.5z"/>
	<path class="st3" d="M438.3,163.3c-4.9,4.9-4.9,12.6,0,17.5l37.5-37.5c-2.9-2.9-5.8-5.6-9.1-8.6L438.3,163.3z"/>
	<path class="st9" d="M438.3,180.6c4.9,4.9,12.6,4.9,17.5,0l28.4-28.4c-2.5-3.1-5.4-6-8.4-9.1L438.3,180.6z"/>
	<path class="st9" d="M313.5,138.8L298,101.3c-0.2-0.2-0.2-0.6-0.4-0.8c-3.9,1.4-7.8,2.5-11.5,4.1l20.8,50.1
		C313.1,152.2,316.2,145.1,313.5,138.8z"/>
	<path class="st2" d="M290.8,148.2c2.5,6.4,9.7,9.3,16.1,6.8l-20.8-50.1c-3.7,1.6-7.6,3.3-11.3,5.1c0,0.4,0.2,0.6,0.4,1.2
		L290.8,148.2z"/>
	<path class="st3" d="M399.6,378.6L420,428c3.7-1.6,7.6-3.5,11.1-5.2l-15.5-37.3C413,379.2,405.8,376.1,399.6,378.6z"/>
	<path class="st9" d="M392.8,394.8l15.5,37.5l0,0c3.9-1.4,7.8-2.9,11.5-4.3l-20.4-49.4C393.2,381.4,390.5,388.6,392.8,394.8z"/>
	<path class="st9" d="M224.9,305.8l-37.5,15.5c-0.4,0.2-1.2,0.4-1.6,0.6c1.4,3.9,2.5,7.6,4.3,11.5l50.7-21
		C238.3,306.4,231.1,303.2,224.9,305.8z"/>
	<path class="st2" d="M234.4,328.7c6.4-2.5,9.3-9.7,6.8-16.1l-50.9,21c1.6,3.7,3.3,7.4,5.1,11.1c0.4-0.2,1.2-0.2,1.6-0.4
		L234.4,328.7z"/>
	<path class="st3" d="M471.5,203.7c-6.4,2.5-9.3,9.7-6.8,16.1l48.6-20.2c-1.6-3.9-3.3-7.6-5.2-11.3L471.5,203.7z"/>
	<path class="st9" d="M464.9,219.9c2.5,6.4,9.7,9.3,16.1,6.8l36.9-15.4c-1.4-3.9-2.9-7.8-4.3-11.5L464.9,219.9z"/>
	<path class="st9" d="M234.4,203.7l-37.5-15.5c-0.4-0.2-0.6-0.2-1.2-0.4c-1.7,3.7-3.7,7.4-5.2,11.1l50.3,21
		C243.6,213.7,240.6,206.5,234.4,203.7z"/>
	<path class="st2" d="M224.9,226.7c6.4,2.5,13.6-0.4,16.1-6.8l-50.3-21c-1.6,3.7-3.1,7.6-4.3,11.5c0.4,0.2,0.6,0.4,1.2,0.6
		L224.9,226.7z"/>
	<path class="st3" d="M464.9,312.6l49,20.2c1.6-3.7,3.1-7.6,4.3-11.5l-37.3-15.5C474.8,303.2,467.6,306.4,464.9,312.6z"/>
	<path class="st9" d="M471.5,328.7l37.3,15.5c1.7-3.7,3.5-7.4,5.1-11.3l-49-20.2C462.4,319,465.5,326.2,471.5,328.7z"/>
	<path class="st9" d="M289.8,384.7l-15.5,37.5c-0.2,0.4-0.4,0.8-0.4,1.4c3.7,1.7,7.4,3.5,11.1,5.1l21-50.5
		C299.9,375.3,292.5,378.3,289.8,384.7z"/>
	<path class="st2" d="M312.7,394.2c2.5-6.4-0.4-13.6-6.8-16.1l-21,50.5c3.7,1.6,7.6,3.1,11.5,4.3c0.2-0.4,0.4-0.8,0.6-1.4
		L312.7,394.2z"/>
	<path class="st3" d="M392,137.9c-2.5,6.4,0.4,13.6,6.8,16.1l20.2-48.8c-3.7-1.6-7.6-3.1-11.5-4.3L392,137.9z"/>
	<path class="st9" d="M398.8,154c6.4,2.5,13.6-0.4,16.1-6.8l15.4-37.1c-3.7-1.7-7.4-3.5-11.3-5.2L398.8,154z"/>
	<g>
		<path id="XMLID_4_" class="st14" d="M340,283.4c2.1-0.6,16.1,1.6,17.9,2.9c5.8,4.1,14.4,6.4,17.9,2.1c3.5-4.1-0.2-11.5-5.6-17.1
			c-1.6-1.7-7-14.6-6.6-16.7c0.8-7.2-1.6-15.9-7-16.7c-5.4-0.8-10.5,6.8-11.9,13.2c-0.4,2.1-9.3,13.2-11.5,14.2
			c-6.6,3.1-12.6,9.3-10.7,14.4C324.6,285,333.7,285.4,340,283.4z"/>
		<path id="XMLID_3_" class="st14" d="M364.2,208.6c8.7,0.4,12.4,18.1,10.9,32.1c-0.4,4.3,9.7,29.3,11.9,33.6
			c1.4,2.3,3.3,4.3,5.6,5.6c-6.8-18.1-7.2-32.6-5.8-36c5.6-15.7,3.3-36.9-5.2-41.6c-5.6-3.3-18.3-4.7-26.4,8.6
			C357.6,208.8,360.9,208.2,364.2,208.6z"/>
		<path id="XMLID_2_" class="st14" d="M294.3,284.6c-4.1-7.8,9.5-19.8,22.2-25.7c4.1-1.7,20.4-23.3,23.1-26.8
			c1.6-2.3,2.1-5.1,2.1-7.8c-12.4,14.8-24.7,22.5-28.2,23.1c-16.3,2.9-33.6,15.7-33.6,25.5c0,6.6,5.2,18.1,20.4,18.5
			C297.8,290,295.3,287.5,294.3,284.6z"/>
		<path id="XMLID_1_" class="st14" d="M395.3,308.7c-4.9,7.4-22,1.7-33.4-6.6c-3.7-2.5-30.5-6.4-35-6.6c-2.9-0.2-5.4,0.6-7.8,2.1
			c19,3.3,31.9,10.1,34.2,12.6c10.7,12.8,30.3,21.2,38.9,16.3c5.6-3.3,13-13.6,5.8-27C398.4,302.9,397.7,306.2,395.3,308.7z"/>
	</g>
</g>
</svg>
