<?xml version="1.0" encoding="utf-8"?>
<!-- Generator: Adobe Illustrator 19.0.0, SVG Export Plug-In . SVG Version: 6.00 Build 0)  -->
<svg version="1.1" id="Layer_1" xmlns="http://www.w3.org/2000/svg" xmlns:xlink="http://www.w3.org/1999/xlink" x="0px" y="0px"
	 viewBox="206 -206 512 512" style="enable-background:new 206 -206 512 512;" xml:space="preserve">
<style type="text/css">
	.st0{fill:#FF8C29;}
	.st1{fill:#FD6A33;}
	.st2{fill:#687F82;}
	.st3{fill:#365558;}
	.st4{fill:#FFD1A9;}
	.st5{fill:#0295AA;}
	.st6{fill:#4ACFD9;}
	.st7{fill:#E6EAEA;}
	.st8{fill:#FFFFFF;}
</style>
<g>
	<g>
		<path class="st0" d="M698.8,275.1h-77.4v28h77.4c1.5,0,2.8-1.2,2.8-2.8v-22.5C701.5,276.3,700.3,275.1,698.8,275.1z"/>
		<rect x="600.5" y="275.1" class="st1" width="20.9" height="28"/>
		<path class="st1" d="M544,275.1c-1.5,0-2.8,1.2-2.8,2.8v22.5c0,1.5,1.2,2.8,2.8,2.8h56.5v-28L544,275.1L544,275.1z"/>
	</g>
	<rect x="668.6" y="284.7" class="st2" width="10.3" height="18.4"/>
	<rect x="687.1" y="284.7" class="st2" width="6.9" height="18.4"/>
	<rect x="642.8" y="284.7" class="st2" width="13.8" height="18.4"/>
	<rect x="563.4" y="284.7" class="st3" width="10.3" height="18.4"/>
	<rect x="548.4" y="284.7" class="st3" width="6.9" height="18.4"/>
	<rect x="585.8" y="284.7" class="st3" width="13.8" height="18.4"/>
	<rect x="621.4" y="284.7" class="st2" width="7.1" height="18.4"/>
	<rect x="614.7" y="284.7" class="st3" width="6.7" height="18.4"/>
	<g>
		<path class="st0" d="M689.1,239.9h-77.4v28h77.4c1.5,0,2.8-1.2,2.8-2.8v-22.5C691.9,241.2,690.7,239.9,689.1,239.9z"/>
		<rect x="600.5" y="239.9" class="st1" width="11.3" height="28"/>
		<path class="st1" d="M534.4,239.9c-1.5,0-2.8,1.2-2.8,2.8v22.5c0,1.5,1.2,2.8,2.8,2.8h66.1v-28L534.4,239.9L534.4,239.9z"/>
	</g>
	<rect x="658.9" y="249.6" class="st2" width="10.3" height="18.4"/>
	<rect x="677.4" y="249.6" class="st2" width="6.9" height="18.4"/>
	<rect x="633.1" y="249.6" class="st2" width="13.8" height="18.4"/>
	<rect x="553.8" y="249.6" class="st3" width="10.3" height="18.4"/>
	<rect x="538.7" y="249.6" class="st3" width="6.9" height="18.4"/>
	<rect x="576.2" y="249.6" class="st3" width="13.8" height="18.4"/>
	<rect x="611.8" y="249.6" class="st2" width="7.1" height="18.4"/>
	<rect x="605.1" y="249.6" class="st3" width="6.7" height="18.4"/>
	<g>
		<path class="st0" d="M695.5,204.8h-77.4v28h77.4c1.5,0,2.8-1.2,2.8-2.8v-22.5C698.2,206,697,204.8,695.5,204.8z"/>
		<rect x="600.5" y="204.8" class="st1" width="17.6" height="28"/>
		<path class="st1" d="M540.7,204.8c-1.5,0-2.8,1.2-2.8,2.8v22.5c0,1.5,1.2,2.8,2.8,2.8h59.8v-28h-59.8V204.8z"/>
	</g>
	<rect x="665.3" y="214.5" class="st2" width="10.3" height="18.4"/>
	<rect x="683.7" y="214.5" class="st2" width="6.9" height="18.4"/>
	<rect x="639.4" y="214.5" class="st2" width="13.8" height="18.4"/>
	<rect x="560.1" y="214.5" class="st3" width="10.3" height="18.4"/>
	<rect x="545" y="214.5" class="st3" width="6.9" height="18.4"/>
	<rect x="582.5" y="214.5" class="st3" width="13.8" height="18.4"/>
	<rect x="618.1" y="214.5" class="st2" width="7.1" height="18.4"/>
	<rect x="611.4" y="214.5" class="st3" width="6.7" height="18.4"/>
	<g>
		<path class="st0" d="M705,169.7h-77.4v28H705c1.5,0,2.8-1.2,2.8-2.8v-22.5C707.7,170.9,706.5,169.7,705,169.7z"/>
		<rect x="606.7" y="169.7" class="st1" width="20.9" height="28"/>
		<path class="st1" d="M550.2,169.7c-1.5,0-2.8,1.2-2.8,2.8V195c0,1.5,1.2,2.8,2.8,2.8h56.5v-28L550.2,169.7L550.2,169.7z"/>
	</g>
	<rect x="674.8" y="179.3" class="st2" width="10.3" height="18.4"/>
	<rect x="693.3" y="179.3" class="st2" width="6.9" height="18.4"/>
	<rect x="649" y="179.3" class="st2" width="13.8" height="18.4"/>
	<rect x="569.6" y="179.3" class="st3" width="10.3" height="18.4"/>
	<rect x="554.6" y="179.3" class="st3" width="6.9" height="18.4"/>
	<rect x="592" y="179.3" class="st3" width="13.8" height="18.4"/>
	<rect x="627.6" y="179.3" class="st2" width="7.1" height="18.4"/>
	<rect x="620.9" y="179.3" class="st3" width="6.7" height="18.4"/>
	<g>
		<path class="st0" d="M695.3,134.5h-77.4v28h77.4c1.5,0,2.8-1.2,2.8-2.8v-22.5C698.1,135.8,696.9,134.5,695.3,134.5z"/>
		<rect x="606.7" y="134.5" class="st1" width="11.3" height="28"/>
		<path class="st1" d="M540.6,134.5c-1.5,0-2.8,1.2-2.8,2.8v22.5c0,1.5,1.2,2.8,2.8,2.8h66.1v-28h-66.1V134.5z"/>
	</g>
	<rect x="665.1" y="144.2" class="st2" width="10.3" height="18.4"/>
	<rect x="683.6" y="144.2" class="st2" width="6.9" height="18.4"/>
	<rect x="639.3" y="144.2" class="st2" width="13.8" height="18.4"/>
	<rect x="560" y="144.2" class="st3" width="10.3" height="18.4"/>
	<rect x="544.9" y="144.2" class="st3" width="6.9" height="18.4"/>
	<rect x="582.4" y="144.2" class="st3" width="13.8" height="18.4"/>
	<rect x="618" y="144.2" class="st2" width="7.1" height="18.4"/>
	<rect x="611.3" y="144.2" class="st3" width="6.7" height="18.4"/>
	<g>
		<path class="st4" d="M603.4,91.6"/>
		<path class="st0" d="M701.7,99.4h-77.4v28h77.4c1.5,0,2.8-1.2,2.8-2.8v-22.4C704.4,100.6,703.2,99.4,701.7,99.4z"/>
		<rect x="606.7" y="99.4" class="st1" width="17.6" height="28"/>
		<path class="st1" d="M546.9,99.4c-1.5,0-2.8,1.2-2.8,2.8v22.5c0,1.5,1.2,2.8,2.8,2.8h59.8v-28L546.9,99.4L546.9,99.4z"/>
	</g>
	<rect x="671.5" y="109" class="st2" width="10.3" height="18.4"/>
	<rect x="689.9" y="109" class="st2" width="6.9" height="18.4"/>
	<rect x="645.6" y="109" class="st2" width="13.8" height="18.4"/>
	<rect x="566.3" y="109" class="st3" width="10.3" height="18.4"/>
	<rect x="551.2" y="109" class="st3" width="6.9" height="18.4"/>
	<rect x="588.7" y="109" class="st3" width="13.8" height="18.4"/>
	<rect x="624.3" y="109" class="st2" width="7.1" height="18.4"/>
	<rect x="617.6" y="109" class="st3" width="6.7" height="18.4"/>
</g>
<path class="st5" d="M316.5-65.8c-27.4,8.1-46,48.3-51,78.3c0,0-19.7,145.8-22.2,157.7s-6,20.1-13,34.5
	c-4.9,10.1-13.2,22.3-13.2,50.8s22.7,50.4,50.4,50.4h138.1V-75.8h-34.9C370.6-75.8,343.8-73.9,316.5-65.8z"/>
<path class="st6" d="M526.3,280.9c-5.7-3-9.6-8.9-9.6-15.8v-22.5c0-5.4,2.5-10.3,6.3-13.6v-21.6c0-6.8,3.9-12.7,9.5-15.7v-16.3
	c-5.7-3-9.6-8.9-9.6-15.8v-22.5c0-5.4,2.5-10.3,6.3-13.6v-21.3c-0.1-9.8,7.9-17.8,17.7-17.8h8.4c-5.1-37-9.8-71.9-9.8-71.9
	c-5-30-23.6-70.2-51-78.3c-27.4-8.1-54.2-10-54.2-10h-34.9V306h121.7c-0.6-1.8-0.9-3.7-0.9-5.7V280.9z"/>
<path class="st3" d="M376.1-111.5c-5.6,0-10.1,5.4-10.1,12v11.7c0,6.6,4.6,12,10.1,12h29.4v-35.7H376.1z"/>
<path class="st5" d="M434.9-111.5c5.6,0,10.1,5.4,10.1,12v11.7c0,6.6-4.6,12-10.1,12h-29.4v-35.7H434.9z"/>
<path class="st5" d="M367-190.5c-14.5-3-32.6,6.4-25.2,17.9c9.7,15.3,26.7,30.5,26.7,40.1c0,9.6,7.3,21,18.8,21h18.2
	c0,0,0-66.3,0-74.5C398.2-185.8,379.3-188,367-190.5z"/>
<path class="st6" d="M444-190.5c14.5-3,32.6,6.4,25.2,17.9c-9.7,15.3-26.7,30.5-26.7,40.1c0,9.6-7.3,21-18.8,21h-18.2
	c0,0,0-66.3,0-74.5C412.8-185.8,431.7-188,444-190.5z"/>
<path class="st7" d="M262,224.3c1.7,1.7,2.6,3.9,2.4,6.6c-1.2,13.8,3.6,27.3,13.3,37c3.2,3.2,3.2,8.4,0,11.6
	c-3.2,3.2-8.4,3.2-11.6,0c-13.2-13.2-19.8-31.5-18.1-50c0.4-4.5,4.4-7.8,9-7.4C258.8,222.1,260.6,223,262,224.3z"/>
<path class="st8" d="M526.7,9.7c1.7-18.7-5-37.1-18.3-50.4c-3.2-3.2-8.5-3.2-11.7,0c-3.2,3.2-3.2,8.5,0,11.7
	c9.8,9.8,14.7,23.5,13.4,37.3c-0.2,2.6,0.7,4.8,2.4,6.6c1.4,1.3,3.2,2.2,5.1,2.3C522.3,17.5,526.2,14.2,526.7,9.7z"/>
<g>
	<path class="st0" d="M405.6-30.1v209c57.7,0,104.4-46.8,104.4-104.4S463.1-30.1,405.6-30.1z"/>
	<path class="st1" d="M301,74.3c0,57.7,46.8,104.4,104.4,104.4v-209C347.8-30.1,301,16.5,301,74.3z"/>
	<g>
		<path class="st8" d="M375.4,96.3l-9,18.8c-1.2,2.6-1.9,4.7-1.9,6.2c0,2.9,2.2,4.9,6.5,6v3.1h-44.1v-3.1c2.6-0.5,4.6-1.4,6-2.7
			c1.4-1.3,2.9-3.8,4.7-7.6l49-102.5c1.6-3.3,2.3-5.9,2.3-7.8c0-3-1.9-5.1-5.7-6.4v-3.1h47.3v3.1c-3.8,1.1-5.8,3-5.8,5.8
			c0,1.9,0.6,4,1.9,6.4l50.8,102.7c2.1,4.4,4,7.3,5.7,8.9c1.6,1.6,3.8,2.7,6.5,3.2v3.1h-49.1v-3.1c4.3-0.7,6.5-2.7,6.5-6.1
			c0-1.4-0.7-3.4-2-6.1l-9-18.8 M436,96.3l-30-65.8l-30.6,65.8"/>
	</g>
	<path class="st8" d="M476.1,87.2H334.6c-1.4,0-2.5,1.1-2.5,2.5v6.5c0,1.4,1.1,2.5,2.5,2.5h141.5c1.4,0,2.5-1.1,2.5-2.5v-6.5
		C478.6,88.3,477.5,87.2,476.1,87.2z"/>
	<path class="st8" d="M468.6,70.9h-126c-1.1,0-2,0.9-2,2v5.6c0,1.1,0.9,2,2,2h126c1.1,0,2-0.9,2-2v-5.6
		C470.6,71.8,469.7,70.9,468.6,70.9z"/>
</g>
</svg>
