<?xml version="1.0" encoding="utf-8"?>
<!-- Generator: Adobe Illustrator 19.0.0, SVG Export Plug-In . SVG Version: 6.00 Build 0)  -->
<svg version="1.1" id="Layer_1" xmlns="http://www.w3.org/2000/svg" xmlns:xlink="http://www.w3.org/1999/xlink" x="0px" y="0px"
	 viewBox="96 11 512 512" style="enable-background:new 96 11 512 512;" xml:space="preserve">
<style type="text/css">
	.st0{fill:#0295AA;}
	.st1{fill:#365558;}
	.st2{fill:#E6EAEA;}
	.st3{fill:#4ACFD9;}
	.st4{fill:#FF8C29;}
	.st5{fill:#FD6A33;}
	.st6{fill:#687F82;}
	.st7{fill:#FFD1A9;}
	.st8{fill:#F0353D;}
	.st9{fill:#9BAAAB;}
	.st10{fill:#CDD4D5;}
	.st11{fill:#FFFFFF;}
	.st12{fill:#BCD643;}
	.st13{fill:#E34C40;}
</style>
<path class="st0" d="M262.9,125c-28.7,24.9-48.6,59-61.6,97c-17.5,51.2-57.8,78.6-57.8,114.3c0,28.5,13.2,80.4,70.4,80.4H352V95
	h-34.9C317,95,289.8,101.6,262.9,125z"/>
<path class="st1" d="M322.5,68.1c-5.6,0-10.1,4.1-10.1,9.1V86c0,5,4.6,9.1,10.1,9.1h29.4v-27H322.5z"/>
<path class="st0" d="M381.3,68.1c5.6,0,10.1,4.1,10.1,9.1V86c0,5-4.6,9.1-10.1,9.1h-29.4v-27H381.3z"/>
<path class="st0" d="M313.4,12.1c-14.5-2.4-26.9,0.9-25.2,14.2c1.9,15.1,20,19.6,26.7,29.1c4.7,6.6,7.3,12.7,18.8,12.7h18.2
	c0,0,0-45.9,0-52.4C338.3,15.7,325.7,14.1,313.4,12.1z"/>
<path class="st2" d="M183.2,321.9c1.3,1.7,1.9,3.9,1.8,6.6c-0.9,13.8,2.7,27.3,9.9,37c2.4,3.2,2.4,8.4,0,11.6s-6.2,3.2-8.6,0
	c-9.8-13.2-14.7-31.5-13.4-50c0.3-4.5,3.3-7.8,6.7-7.4C180.8,319.7,182.2,320.6,183.2,321.9z"/>
<path class="st3" d="M386.9,95H352v321.7h138.1c57.2,0,70.4-51.9,70.4-80.4c0-35.7-40.3-63.1-57.8-114.3c-13-38-32.9-72.1-61.6-97
	C414.2,101.6,387,95,386.9,95z"/>
<path class="st3" d="M352.1,15.7c0,6.5,0,52.4,0,52.4h18.2c11.5,0,14.1-6.1,18.8-12.7c6.7-9.5,24.8-14,26.7-29.1
	c1.7-13.3-10.7-16.6-25.2-14.2C378.3,14.1,365.7,15.7,352.1,15.7z"/>
<path class="st2" d="M524.4,319.7c3.4-0.4,6.4,2.9,6.7,7.4c1.3,18.5-3.6,36.8-13.4,50c-2.4,3.2-6.2,3.2-8.6,0s-2.4-8.4,0-11.6
	c7.2-9.7,10.8-23.2,9.9-37c-0.1-2.7,0.5-4.9,1.8-6.6C521.8,320.6,523.2,319.7,524.4,319.7z"/>
<g>
	<g>
		<path class="st4" d="M432.7,495.5h-75.2v27.2h75.2c1.5,0,2.7-1.2,2.7-2.7v-21.8C435.4,496.7,434.2,495.5,432.7,495.5z"/>
		<rect x="337.3" y="495.5" class="st5" width="20.3" height="27.2"/>
		<path class="st5" d="M282.4,495.5c-1.5,0-2.7,1.2-2.7,2.7V520c0,1.5,1.2,2.7,2.7,2.7h54.9v-27.2L282.4,495.5L282.4,495.5z"/>
	</g>
	<rect x="403.4" y="504.8" class="st6" width="10" height="17.9"/>
	<rect x="421.4" y="504.8" class="st6" width="6.7" height="17.9"/>
	<rect x="378.4" y="504.8" class="st6" width="13.4" height="17.9"/>
	<rect x="301.3" y="504.8" class="st1" width="10" height="17.9"/>
	<rect x="286.7" y="504.8" class="st1" width="6.7" height="17.9"/>
	<rect x="323" y="504.8" class="st1" width="13.4" height="17.9"/>
	<rect x="357.6" y="504.8" class="st6" width="6.9" height="17.9"/>
	<rect x="351.1" y="504.8" class="st1" width="6.5" height="17.9"/>
	<g>
		<path class="st4" d="M423.3,461.3h-75.2v27.2h75.2c1.5,0,2.7-1.2,2.7-2.7V464C426,462.6,424.9,461.3,423.3,461.3z"/>
		<rect x="337.3" y="461.3" class="st5" width="11" height="27.2"/>
		<path class="st5" d="M273.1,461.3c-1.5,0-2.7,1.2-2.7,2.7v21.8c0,1.5,1.2,2.7,2.7,2.7h64.2v-27.1L273.1,461.3L273.1,461.3z"/>
	</g>
	<rect x="394" y="470.7" class="st6" width="10" height="17.9"/>
	<rect x="412" y="470.7" class="st6" width="6.7" height="17.9"/>
	<rect x="368.9" y="470.7" class="st6" width="13.4" height="17.9"/>
	<rect x="291.9" y="470.7" class="st1" width="10" height="17.9"/>
	<rect x="277.3" y="470.7" class="st1" width="6.7" height="17.9"/>
	<rect x="313.7" y="470.7" class="st1" width="13.4" height="17.9"/>
	<rect x="348.3" y="470.7" class="st6" width="6.9" height="17.9"/>
	<rect x="341.8" y="470.7" class="st1" width="6.5" height="17.9"/>
	<g>
		<path class="st4" d="M429.5,427.2h-75.2v27.2h75.2c1.5,0,2.7-1.2,2.7-2.7v-21.8C432.2,428.4,431,427.2,429.5,427.2z"/>
		<rect x="337.3" y="427.2" class="st5" width="17.1" height="27.2"/>
		<path class="st5" d="M279.2,427.2c-1.5,0-2.7,1.2-2.7,2.7v21.8c0,1.5,1.2,2.7,2.7,2.7h58.1v-27.2H279.2L279.2,427.2z"/>
	</g>
	<rect x="400.2" y="436.7" class="st6" width="10" height="17.9"/>
	<rect x="418.1" y="436.7" class="st6" width="6.7" height="17.9"/>
	<rect x="375.1" y="436.7" class="st6" width="13.4" height="17.9"/>
	<rect x="298.1" y="436.7" class="st1" width="10" height="17.9"/>
	<rect x="283.4" y="436.7" class="st1" width="6.7" height="17.9"/>
	<rect x="319.8" y="436.7" class="st1" width="13.4" height="17.9"/>
	<rect x="354.4" y="436.7" class="st6" width="6.9" height="17.9"/>
	<rect x="347.9" y="436.7" class="st1" width="6.5" height="17.9"/>
</g>
<g>
	<g>
		<path class="st4" d="M258.3,495.1h-75.2v27.2h75.2c1.5,0,2.7-1.2,2.7-2.7v-21.8C261,496.2,259.8,495.1,258.3,495.1z"/>
		<rect x="162.9" y="495.1" class="st5" width="20.3" height="27.2"/>
		<path class="st5" d="M108,495.1c-1.5,0-2.7,1.2-2.7,2.7v21.8c0,1.5,1.2,2.7,2.7,2.7h54.9v-27.2H108L108,495.1z"/>
	</g>
	<rect x="229" y="504.4" class="st6" width="10" height="17.9"/>
	<rect x="247" y="504.4" class="st6" width="6.7" height="17.9"/>
	<rect x="204" y="504.4" class="st6" width="13.4" height="17.9"/>
	<rect x="126.9" y="504.4" class="st1" width="10" height="17.9"/>
	<rect x="112.3" y="504.4" class="st1" width="6.7" height="17.9"/>
	<rect x="148.6" y="504.4" class="st1" width="13.4" height="17.9"/>
	<rect x="183.2" y="504.4" class="st6" width="6.9" height="17.9"/>
	<rect x="176.7" y="504.4" class="st1" width="6.5" height="17.9"/>
	<g>
		<path class="st4" d="M248.9,460.9h-75.2v27.2h75.2c1.5,0,2.7-1.2,2.7-2.7v-21.8C251.6,462.1,250.5,460.9,248.9,460.9z"/>
		<rect x="162.9" y="460.9" class="st5" width="11" height="27.2"/>
		<path class="st5" d="M98.7,460.9c-1.5,0-2.7,1.2-2.7,2.7v21.8c0,1.5,1.2,2.7,2.7,2.7h64.2v-27.2H98.7L98.7,460.9z"/>
	</g>
	<rect x="219.6" y="470.3" class="st6" width="10" height="17.9"/>
	<rect x="237.6" y="470.3" class="st6" width="6.7" height="17.9"/>
	<rect x="194.6" y="470.3" class="st6" width="13.4" height="17.9"/>
	<rect x="117.6" y="470.3" class="st1" width="10" height="17.9"/>
	<rect x="102.9" y="470.3" class="st1" width="6.7" height="17.9"/>
	<rect x="139.3" y="470.3" class="st1" width="13.4" height="17.9"/>
	<rect x="173.9" y="470.3" class="st6" width="6.9" height="17.9"/>
	<rect x="167.4" y="470.3" class="st1" width="6.5" height="17.9"/>
	<g>
		<path class="st7" d="M159.7,419.2"/>
		<path class="st4" d="M255.1,426.8H180V454h75.2c1.5,0,2.7-1.2,2.7-2.7v-21.8C257.8,428,256.6,426.8,255.1,426.8z"/>
		<rect x="162.9" y="426.8" class="st5" width="17.1" height="27.2"/>
		<path class="st5" d="M104.8,426.8c-1.5,0-2.7,1.2-2.7,2.7v21.9c0,1.5,1.2,2.7,2.7,2.7h58.1v-27.2L104.8,426.8L104.8,426.8z"/>
	</g>
	<rect x="225.8" y="436.1" class="st6" width="10" height="17.9"/>
	<rect x="243.7" y="436.1" class="st6" width="6.7" height="17.9"/>
	<rect x="200.7" y="436.1" class="st6" width="13.4" height="17.9"/>
	<rect x="123.7" y="436.1" class="st1" width="10" height="17.9"/>
	<rect x="109" y="436.1" class="st1" width="6.7" height="17.9"/>
	<rect x="145.4" y="436.1" class="st1" width="13.4" height="17.9"/>
	<rect x="180" y="436.1" class="st6" width="6.9" height="17.9"/>
	<rect x="173.5" y="436.1" class="st1" width="6.5" height="17.9"/>
</g>
<g>
	<g>
		<path class="st4" d="M605.3,494.6h-75.2v27.2h75.2c1.5,0,2.7-1.2,2.7-2.7v-21.8C607.9,495.7,606.7,494.6,605.3,494.6z"/>
		<rect x="509.8" y="494.6" class="st5" width="20.3" height="27.2"/>
		<path class="st5" d="M455,494.6c-1.5,0-2.7,1.2-2.7,2.7v21.8c0,1.5,1.2,2.7,2.7,2.7h54.9v-27.2H455L455,494.6z"/>
	</g>
	<rect x="576" y="503.9" class="st6" width="10" height="17.9"/>
	<rect x="593.9" y="503.9" class="st6" width="6.7" height="17.9"/>
	<rect x="550.9" y="503.9" class="st6" width="13.4" height="17.9"/>
	<rect x="473.8" y="503.9" class="st1" width="10" height="17.9"/>
	<rect x="459.2" y="503.9" class="st1" width="6.7" height="17.9"/>
	<rect x="495.6" y="503.9" class="st1" width="13.4" height="17.9"/>
	<rect x="530.1" y="503.9" class="st6" width="6.9" height="17.9"/>
	<rect x="523.6" y="503.9" class="st1" width="6.5" height="17.9"/>
	<g>
		<path class="st4" d="M595.9,460.4h-75.2v27.2h75.2c1.5,0,2.7-1.2,2.7-2.7v-21.8C598.6,461.7,597.4,460.4,595.9,460.4z"/>
		<rect x="509.8" y="460.4" class="st5" width="11" height="27.2"/>
		<path class="st5" d="M445.7,460.4c-1.5,0-2.7,1.2-2.7,2.7v21.8c0,1.5,1.2,2.7,2.7,2.7h64.2v-27.2H445.7L445.7,460.4z"/>
	</g>
	<rect x="566.5" y="469.8" class="st6" width="10" height="17.9"/>
	<rect x="584.5" y="469.8" class="st6" width="6.7" height="17.9"/>
	<rect x="541.5" y="469.8" class="st6" width="13.4" height="17.9"/>
	<rect x="464.5" y="469.8" class="st1" width="10" height="17.9"/>
	<rect x="449.8" y="469.8" class="st1" width="6.7" height="17.9"/>
	<rect x="486.2" y="469.8" class="st1" width="13.4" height="17.9"/>
	<rect x="520.8" y="469.8" class="st6" width="6.9" height="17.9"/>
	<rect x="514.3" y="469.8" class="st1" width="6.5" height="17.9"/>
	<g>
		<path class="st7" d="M506.6,418.7"/>
		<path class="st4" d="M602.1,426.3h-75.2v27.2h75.2c1.5,0,2.7-1.2,2.7-2.7V429C604.7,427.5,603.5,426.3,602.1,426.3z"/>
		<rect x="509.8" y="426.3" class="st5" width="17.1" height="27.2"/>
		<path class="st5" d="M451.8,426.3c-1.5,0-2.7,1.2-2.7,2.7v21.8c0,1.5,1.2,2.7,2.7,2.7h58.1v-27.1L451.8,426.3L451.8,426.3z"/>
	</g>
	<rect x="572.8" y="435.6" class="st6" width="10" height="17.9"/>
	<rect x="590.6" y="435.6" class="st6" width="6.7" height="17.9"/>
	<rect x="547.6" y="435.6" class="st6" width="13.4" height="17.9"/>
	<rect x="470.6" y="435.6" class="st1" width="10" height="17.9"/>
	<rect x="455.9" y="435.6" class="st1" width="6.7" height="17.9"/>
	<rect x="492.4" y="435.6" class="st1" width="13.4" height="17.9"/>
	<rect x="526.9" y="435.6" class="st6" width="6.9" height="17.9"/>
	<rect x="520.4" y="435.6" class="st1" width="6.5" height="17.9"/>
</g>
<rect x="-459" y="11" class="st8" width="128" height="128"/>
<rect x="-331" y="11" class="st5" width="128" height="128"/>
<rect x="-203" y="11" class="st4" width="128" height="128"/>
<rect x="-75" y="11" class="st7" width="128" height="128"/>
<rect x="-459" y="139" class="st1" width="128" height="128"/>
<rect x="-331" y="139" class="st0" width="128" height="128"/>
<rect x="-203" y="139" class="st3" width="128" height="128"/>
<rect x="-459" y="267" class="st9" width="128" height="128"/>
<rect x="-331" y="267" class="st10" width="128" height="128"/>
<rect x="-203" y="267" class="st2" width="128" height="128"/>
<rect x="-75" y="267" class="st11" width="128" height="128"/>
<rect x="-459" y="395" class="st12" width="128" height="128"/>
<path class="st2" d="M351.1,145.9v215.2c59.4,0,107.5-48.2,107.5-107.5S410.3,145.9,351.1,145.9z"/>
<path class="st10" d="M243.6,253.2c0,59.4,48.2,107.5,107.5,107.5V145.5C291.8,145.8,243.6,193.7,243.6,253.2z"/>
<g>
	<path class="st5" d="M271,255.1c0,44.3,35.9,80.2,80.2,80.2V174.9C306.9,174.9,271,210.8,271,255.1z"/>
	<path class="st4" d="M431.4,255.1c0-44.3-35.9-80.2-80.2-80.2v160.5C395.5,335.3,431.4,299.4,431.4,255.1z"/>
	<path class="st9" d="M301,255.1c0,27.7,22.5,50.2,50.2,50.2V204.9C323.5,204.9,301,227.4,301,255.1z"/>
	<path class="st10" d="M401.4,255.1c0-27.7-22.5-50.2-50.2-50.2v100.5C378.9,305.3,401.4,282.8,401.4,255.1z"/>
	<path class="st2" d="M311,255.1c0,22.2,18,40.2,40.2,40.2v-80.5C329,214.9,311,232.9,311,255.1z"/>
	<path class="st11" d="M391.4,255.1c0-22.2-18-40.2-40.2-40.2v80.5C373.4,295.3,391.4,277.3,391.4,255.1z"/>
	<path class="st7" d="M351.1,174.9v24.9c3.1,0,5.7-2.5,5.7-5.7v-18.6c0-0.2,0-0.3,0-0.4C354.9,175,353,174.9,351.1,174.9z"/>
	<path class="st4" d="M346.1,175c0,0.2,0,0.4,0,0.5v18.6c0,2.9,2.2,5.4,5.1,5.6v-24.9C349.5,174.9,347.8,174.9,346.1,175z"/>
	<path class="st5" d="M351.2,310.9v24.4c1.9,0,3.8-0.1,5.7-0.2v-18.5C356.9,313.5,354.4,310.9,351.2,310.9z"/>
	<path class="st7" d="M346.1,316.6v18.6c1.7,0.1,3.4,0.2,5.1,0.2v-24.4C348.3,311.2,346.1,313.6,346.1,316.6z"/>
	<path class="st7" d="M290.5,249.4H272c-0.3,0-0.5,0-0.8,0.1c-0.1,1.9-0.2,3.7-0.2,5.6h25.2C296.2,252,293.7,249.4,290.5,249.4z"/>
	<path class="st4" d="M290.5,260.8c3.1,0,5.7-2.5,5.7-5.7H271c0,1.9,0.1,3.8,0.2,5.6c0.3,0,0.5,0.1,0.8,0.1H290.5z"/>
	<path class="st5" d="M413,249.4c-3.1,0-5.7,2.5-5.7,5.7h24.1v0c0-1.9-0.1-3.8-0.2-5.7H413z"/>
	<path class="st7" d="M413,260.8h18.2c0.1-1.9,0.2-3.8,0.2-5.7h-24.1C407.3,258.2,409.8,260.8,413,260.8z"/>
	<path class="st7" d="M312.5,207.8l-13.1-13.1c-0.1-0.1-0.3-0.2-0.5-0.4c-1.4,1.2-2.8,2.5-4.1,3.8l17.7,17.7
		C314.7,213.6,314.7,210,312.5,207.8z"/>
	<path class="st4" d="M304.5,215.8c2.2,2.2,5.8,2.2,8,0l-17.7-17.7c-1.3,1.3-2.6,2.7-3.8,4.1c0.1,0.2,0.3,0.3,0.4,0.5L304.5,215.8z"
		/>
	<path class="st5" d="M391,294.4l17.2,17.2c1.3-1.3,2.6-2.7,3.8-4.2l-13-13C396.8,292.2,393.2,292.2,391,294.4z"/>
	<path class="st7" d="M391,302.4l13,13c1.4-1.2,2.8-2.5,4.1-3.9L391,294.4C388.8,296.6,388.8,300.2,391,302.4z"/>
	<path class="st7" d="M304.3,294.2l-13.1,13.1c-0.2,0.2-0.3,0.3-0.4,0.5c1.2,1.4,2.5,2.8,3.8,4.1l17.7-17.7
		C310.1,292,306.5,292,304.3,294.2z"/>
	<path class="st4" d="M312.3,302.2c2.2-2.2,2.2-5.8,0-8l-17.7,17.7c1.3,1.3,2.7,2.6,4.1,3.8c0.2-0.1,0.3-0.2,0.5-0.4L312.3,302.2z"
		/>
	<path class="st5" d="M390.8,207.6c-2.2,2.2-2.2,5.8,0,8l17.2-17.2c-1.3-1.3-2.7-2.6-4.2-3.9L390.8,207.6z"/>
	<path class="st7" d="M390.8,215.6c2.2,2.2,5.8,2.2,8,0l13-13c-1.2-1.4-2.5-2.8-3.8-4.2L390.8,215.6z"/>
	<path class="st7" d="M333.6,196.4l-7.1-17.2c-0.1-0.1-0.1-0.3-0.2-0.4c-1.8,0.6-3.6,1.2-5.3,1.9l9.5,23
		C333.4,202.6,334.8,199.3,333.6,196.4z"/>
	<path class="st4" d="M323.1,200.7c1.2,2.9,4.5,4.3,7.4,3.1l-9.5-23c-1.7,0.7-3.5,1.5-5.2,2.3c0,0.2,0.1,0.3,0.2,0.5L323.1,200.7z"
		/>
	<path class="st5" d="M373,306.4l9.4,22.6c1.7-0.7,3.5-1.6,5.1-2.4l-7.1-17.1C379.2,306.6,375.9,305.2,373,306.4z"/>
	<path class="st7" d="M369.9,313.8l7.1,17.2c0,0,0,0,0,0c1.8-0.6,3.6-1.3,5.3-2l-9.4-22.6C370.1,307.6,368.8,310.9,369.9,313.8z"/>
	<path class="st7" d="M292.9,273l-17.2,7.1c-0.2,0.1-0.5,0.2-0.7,0.3c0.6,1.8,1.2,3.5,2,5.3l23.3-9.6
		C299.1,273.2,295.8,271.8,292.9,273z"/>
	<path class="st4" d="M297.3,283.5c2.9-1.2,4.3-4.5,3.1-7.4l-23.3,9.6c0.7,1.7,1.5,3.4,2.3,5.1c0.2-0.1,0.5-0.1,0.7-0.2L297.3,283.5
		z"/>
	<path class="st5" d="M406,226.2c-2.9,1.2-4.3,4.5-3.1,7.4l22.3-9.3c-0.7-1.8-1.5-3.5-2.4-5.2L406,226.2z"/>
	<path class="st7" d="M403,233.6c1.2,2.9,4.5,4.3,7.4,3.1l16.9-7c-0.6-1.8-1.3-3.6-2-5.3L403,233.6z"/>
	<path class="st7" d="M297.3,226.2l-17.2-7.1c-0.2-0.1-0.3-0.1-0.5-0.2c-0.8,1.7-1.7,3.4-2.4,5.1l23.1,9.6
		C301.5,230.7,300.1,227.4,297.3,226.2z"/>
	<path class="st4" d="M292.9,236.7c2.9,1.2,6.2-0.2,7.4-3.1l-23.1-9.6c-0.7,1.7-1.4,3.5-2,5.3c0.2,0.1,0.3,0.2,0.5,0.3L292.9,236.7z
		"/>
	<path class="st5" d="M403,276.1l22.5,9.3c0.7-1.7,1.4-3.5,2-5.3l-17.1-7.1C407.5,271.8,404.2,273.2,403,276.1z"/>
	<path class="st7" d="M406,283.5l17.1,7.1c0.8-1.7,1.6-3.4,2.3-5.2l-22.5-9.3C401.8,279,403.2,282.3,406,283.5z"/>
	<path class="st7" d="M322.7,309.1l-7.1,17.2c-0.1,0.2-0.2,0.4-0.2,0.6c1.7,0.8,3.4,1.6,5.1,2.3l9.6-23.2
		C327.3,304.9,323.9,306.2,322.7,309.1z"/>
	<path class="st4" d="M333.2,313.5c1.2-2.9-0.2-6.2-3.1-7.4l-9.6,23.2c1.7,0.7,3.5,1.4,5.3,2c0.1-0.2,0.2-0.4,0.3-0.6L333.2,313.5z"
		/>
	<path class="st5" d="M369.6,196c-1.2,2.9,0.2,6.2,3.1,7.4L382,181c-1.7-0.7-3.5-1.4-5.3-2L369.6,196z"/>
	<path class="st7" d="M372.7,203.4c2.9,1.2,6.2-0.2,7.4-3.1l7-17c-1.7-0.8-3.4-1.6-5.2-2.4L372.7,203.4z"/>
	<g>
		<path id="XMLID_4_" class="st13" d="M345.7,262.7c1-0.3,7.4,0.7,8.2,1.3c2.7,1.9,6.6,2.9,8.2,1s-0.1-5.3-2.6-7.8
			c-0.7-0.8-3.2-6.7-3-7.7c0.4-3.3-0.7-7.3-3.2-7.7s-4.8,3.1-5.4,6.1c-0.2,1-4.3,6.1-5.3,6.5c-3,1.4-5.8,4.3-4.9,6.6
			C338.6,263.4,342.8,263.6,345.7,262.7z"/>
		<path id="XMLID_3_" class="st13" d="M356.8,228.4c4,0.2,5.7,8.3,5,14.7c-0.2,2,4.5,13.5,5.4,15.4c0.6,1.1,1.5,2,2.6,2.6
			c-3.1-8.3-3.3-15-2.7-16.5c2.6-7.2,1.5-16.9-2.4-19.1c-2.6-1.5-8.4-2.1-12.1,3.9C353.8,228.5,355.3,228.2,356.8,228.4z"/>
		<path id="XMLID_2_" class="st13" d="M324.7,263.2c-1.9-3.6,4.4-9.1,10.2-11.8c1.9-0.8,9.4-10.7,10.6-12.3c0.7-1.1,1-2.3,1-3.6
			c-5.7,6.8-11.3,10.3-12.9,10.6c-7.5,1.3-15.4,7.2-15.4,11.7c0,3,2.4,8.3,9.4,8.5C326.3,265.7,325.2,264.6,324.7,263.2z"/>
		<path id="XMLID_1_" class="st13" d="M371.1,274.3c-2.2,3.4-10.1,0.8-15.3-3c-1.7-1.2-14-2.9-16-3c-1.3-0.1-2.5,0.3-3.6,1
			c8.7,1.5,14.6,4.6,15.7,5.8c4.9,5.9,13.9,9.7,17.8,7.5c2.6-1.5,6-6.2,2.7-12.4C372.5,271.6,372.1,273.1,371.1,274.3z"/>
	</g>
</g>
</svg>
