<?xml version="1.0" encoding="utf-8"?>
<!-- Generator: Adobe Illustrator 19.0.0, SVG Export Plug-In . SVG Version: 6.00 Build 0)  -->
<svg version="1.1" id="Balance" xmlns="http://www.w3.org/2000/svg" xmlns:xlink="http://www.w3.org/1999/xlink" x="0px" y="0px"
	 viewBox="96 11 512 512" style="enable-background:new 96 11 512 512;" xml:space="preserve">
<style type="text/css">
	.st0{fill:#365558;}
	.st1{fill:#9BAAAB;}
	.st2{fill:#CDD4D5;}
	.st3{fill:none;stroke:#0295AA;stroke-width:9;stroke-linecap:round;stroke-linejoin:round;stroke-miterlimit:10;}
	.st4{fill:#FD6A33;}
	.st5{fill:#0295AA;}
	.st6{fill:#F0353D;}
	.st7{fill:#4ACFD9;}
	.st8{fill:#45CCD3;}
	.st9{fill:#0197A5;}
</style>
<path class="st0" d="M326.4,506.9c-2.9-4.6-5.1-9.5-6.7-14.6H236c-5.5,0-10,6.9-10,15.4V523h114.6
	C335.1,518.5,330.3,513.1,326.4,506.9z"/>
<path class="st0" d="M320.7,450H281c-5.5,0-10,6.9-10,15.4v15.4h46.1C315.8,470.5,317,460,320.7,450z"/>
<path class="st1" d="M351,181.5c-7.5,0-14.5-1.8-20.7-5l-4.3,262l25-50.3V181.5z"/>
<path class="st2" d="M371.8,182.6l-2.5-4.9c-5.6,2.5-11.7,3.8-18.3,3.8v206.6l23.4-47.1L371.8,182.6z"/>
<path class="st2" d="M371.7,176.5c-0.8,0.4-1.6,0.8-2.4,1.2l2.5,4.9L371.7,176.5z"/>
<path class="st1" d="M338.3,11h-7c-2.9,0-5.2,2.4-5,5.3l0.4,11.3c0.8-1.4,1.7-2.8,2.7-4.1L338.3,11z"/>
<g>
	<polyline class="st3" points="251,313 175,182.5 99,313 	"/>
	<line class="st3" x1="175" y1="182.5" x2="175" y2="158.9"/>
</g>
<path id="plato_11_" class="st4" d="M255,309.7H95v8.8c0,9.7,4.5,17.5,10,17.5h140c5.5,0,10-7.9,10-17.5V309.7z"/>
<path class="st5" d="M312,132.5c0,21.5,17.5,39,39,39v-29.3l-21.6-42.1C318.9,107.1,312,119,312,132.5z"/>
<path class="st4" d="M279.6,134.7c-30.6,8.6-62.3,17.5-107.5,12.8c-5.5-0.6-10.4,3.4-11,8.9c-0.6,5.5,3.4,10.4,8.9,11
	c9.3,1,18.1,1.4,26.5,1.4c35.7,0,63.4-7.8,88.5-14.9c21.9-6.2,42.5-12,65.9-12l-10.1-19.6C318.9,123.7,299.7,129.1,279.6,134.7z"/>
<path class="st6" d="M327,132.5c0,13.3,10.7,24,24,24v-14.3l-14.7-28.6C330.6,117.9,327,124.8,327,132.5z"/>
<path class="st7" d="M351,171.5c4.9,0,9.5-0.9,13.8-2.5L351,142.2V171.5z"/>
<path class="st4" d="M351,156.5c2.4,0,4.7-0.4,6.9-1l-6.9-13.3V156.5z"/>
<g>
	<path class="st8" d="M344.8,81.5C329.4,51.6,351.1,16,384.7,16h178.5c33.5,0,55.2,35.5,40,65.4l-88,172.5
		c-2.9,5.7-2.9,12.4-0.1,18.1l89.3,180.6c14.7,29.8-6.9,64.8-40.1,64.9L384.1,518c-33.4,0.1-55.2-35-40.3-64.9l89.8-181
		c2.8-5.7,2.8-12.5-0.1-18.2L344.8,81.5z M384.7,40.8c-15.1,0-24.8,16-17.9,29.4l88.6,172.4c6.5,12.7,6.6,27.7,0.3,40.5l-89.8,181
		c-6.7,13.4,3.1,29.1,18.1,29.1l180.1-0.5c14.9,0,24.6-15.7,18-29.1L492.8,283c-6.3-12.7-6.2-27.7,0.3-40.4l88-172.5
		c6.8-13.4-2.9-29.3-17.9-29.3C563.2,40.8,384.7,40.8,384.7,40.8z"/>
	<path class="st9" d="M348.5,35.1c-9.2,12.9-11.6,30.6-3.3,46.6l88.5,172.1c2.9,5.7,3,12.4,0.1,18.1l-89.7,180.8
		c-14.8,29.9,7,64.9,40.3,64.8l180-0.5c15.5,0,28.5-7.6,36.4-18.8l-17-31.2c3.4,12.4-5.8,25.3-19.4,25.4l-180,0.5
		c-15,0-24.7-15.7-18.1-29.1L456,283c6.3-12.8,6.2-27.8-0.3-40.5L367.2,70.4c-0.6-1.2-1.1-2.4-1.4-3.6L348.5,35.1z"/>
	<rect x="465" y="93" class="st1" width="18" height="278"/>
	<path class="st4" d="M473.8,112.1h48l-36.4,137.7c-3.1,11.9-4.5,20.9,1.3,35.4l15,39h-27.9V112.1z"/>
	<path class="st6" d="M473.8,112.1h-46.4l34.3,138.2c2.9,11.6,3.6,20.4-1.1,34.4l-13.5,39.4h26.7V112.1z"/>
	<path class="st7" d="M474,472l29.4-35.3h-58.9L474,472z"/>
	<path class="st5" d="M474,429l23.4-28.5h-46.8L474,429z"/>
</g>
</svg>
