<?xml version="1.0" encoding="utf-8"?>
<!-- Generator: Adobe Illustrator 19.0.0, SVG Export Plug-In . SVG Version: 6.00 Build 0)  -->
<svg version="1.1" id="Layer_1" xmlns="http://www.w3.org/2000/svg" xmlns:xlink="http://www.w3.org/1999/xlink" x="0px" y="0px"
	 viewBox="96 11 512 512" style="enable-background:new 96 11 512 512;" xml:space="preserve">
<style type="text/css">
	.st0{fill:#45CCD3;}
	.st1{fill:#0197A5;}
	.st2{fill:#9BAAAB;}
	.st3{fill:#FD6A33;}
	.st4{fill:#F0353D;}
	.st5{fill:#4ACFD9;}
	.st6{fill:#0295AA;}
	.st7{fill:#E6EAEA;}
	.st8{fill:#CDD4D5;}
	.st9{fill:#FF8C29;}
</style>
<path class="st0" d="M603.3,452.6L514,272c-2.8-5.7-2.8-12.4,0.1-18.1l88-172.5c15.3-29.9-6.4-65.4-40-65.4H383.7
	c-33.6,0-55.3,35.6-39.9,65.5l88.6,172.4c2.9,5.7,3,12.4,0.1,18.2l-89.8,181c-14.8,29.9,7,65,40.3,64.9l180.1-0.5
	C596.4,517.4,618,482.5,603.3,452.6z M563.1,492.7L383,493.2c-15,0-24.7-15.7-18.1-29.1l89.8-181c6.3-12.8,6.2-27.8-0.3-40.5
	L365.8,70.2c-6.9-13.4,2.8-29.4,17.9-29.4h178.5c15,0,24.8,15.9,17.9,29.3l-88,172.5c-6.5,12.7-6.6,27.6-0.3,40.4l89.3,180.6
	C587.7,477,578,492.7,563.1,492.7z"/>
<path class="st1" d="M582.8,467c3.4,12.4-5.8,25.3-19.4,25.4l-180,0.5c-15,0-24.7-15.7-18.1-29.1L455,283
	c6.3-12.8,6.2-27.8-0.3-40.5L366.2,70.4c-0.6-1.2-1.1-2.4-1.4-3.6l-17.2-31.6c-9.2,12.9-11.6,30.6-3.3,46.6l88.5,172.1
	c2.9,5.7,3,12.4,0.1,18.1l-89.7,180.8c-14.8,29.9,7,64.9,40.3,64.8l180-0.5c15.5,0,28.5-7.7,36.4-18.8L582.8,467z"/>
<rect x="464" y="93" class="st2" width="18" height="278"/>
<path class="st3" d="M485.8,285.1c-5.8-14.5-4.4-23.5-1.3-35.4l36.4-137.7h-48v212h27.9L485.8,285.1z"/>
<path class="st4" d="M459.7,284.7l-13.5,39.4h26.7v-212h-46.4l34.3,138.2C463.6,261.9,464.3,270.7,459.7,284.7z"/>
<polygon class="st5" points="502.4,436.8 443.6,436.8 473,472 "/>
<polygon class="st6" points="496.4,400.5 449.6,400.5 473,429 "/>
<path class="st5" d="M414.9,263L326.4,90.8c-3.7-7.3-6-15-6.8-22.9c-11.4-2.1-23.1-3.3-35.1-3.3C180.6,64.7,96,149.3,96,253.2
	s84.6,188.5,188.5,188.5c15.3,0,30.2-1.8,44.4-5.3l86-173.3C415,263.1,415,263,414.9,263z"/>
<path class="st6" d="M96,253.2c0,103.5,83.6,187.5,186.8,188.5v-377C179.6,65.7,96,149.7,96,253.2z"/>
<path class="st7" d="M414.9,263l-83.3-161.9c-15-4.7-31-7.3-47.6-7.3c-0.5,0-0.9,0-1.4,0v317.6c0.5,0,0.9,0,1.4,0
	c22.7,0,44.3-4.8,63.9-13.4l66.9-134.9C415,263.1,415,263,414.9,263z"/>
<path class="st8" d="M125.2,252.7c0,87.1,70.5,158.1,157.4,158.8V93.9C195.7,94.6,125.2,165.6,125.2,252.7z"/>
<path class="st9" d="M355.4,287c-0.2-13.8-1.6-24.5-4.4-32.2c-2.8-7.6-7-13.1-12.5-16.4c-5.5-3.3-13.1-5.6-22.7-7l-33-3.8v42.9
	l8,1.1c6.1,0.7,10.3,1.5,12.7,2.3c2.3,0.8,3.9,2.2,4.8,4.2c0.8,2,1.2,5.5,1.2,10.4c0,5.2-0.7,8.9-2.1,11.3c-1.4,2.4-4.6,4.1-9.5,5.1
	c-3.4,0.7-8.5,1.2-15,1.4V373H299v-26.8c18.8-0.9,32.9-5.6,42.3-13.9C350.7,324,355.4,308.9,355.4,287z"/>
<path class="st9" d="M345,158.2c-5.6-1.2-12.9-2.3-21.7-3.5s-17-1.9-24.5-2.1v-27.5h-16.1v67.3c2-0.1,4.1-0.1,6.3-0.1
	c15.3,0,33.9,1.1,56,3.2V158.2z"/>
<path class="st3" d="M273.5,306.4c-18.1,0-38.4-0.9-61-2.8v37.3c15.3,2.8,32.6,4.6,52.1,5.3V373h18.1v-66.7
	C280,306.4,276.9,306.4,273.5,306.4z"/>
<path class="st3" d="M264.7,152.8c-19,1.4-33.5,6.2-43.3,14.4c-9.9,8.2-14.8,22.1-14.8,41.6c0,17.4,2.9,30.7,8.6,39.8
	c5.8,9.2,17.1,14.9,34,17.3l33.6,4.6v-42.9l-12.8-1.5c-5.9-0.7-9.9-1.5-12.2-2.3c-2.2-0.8-3.7-2.2-4.4-4.2c-0.7-2-1.1-5.5-1.1-10.4
	c0-5.2,1.1-8.9,3.3-11.3c2.2-2.3,5.8-3.9,10.6-4.6c3.8-0.6,9.3-0.9,16.5-1V125h-18.1L264.7,152.8L264.7,152.8z"/>
</svg>
