<?xml version="1.0" encoding="utf-8"?>
<!-- Generator: Adobe Illustrator 19.0.0, SVG Export Plug-In . SVG Version: 6.00 Build 0)  -->
<svg version="1.1" id="Layer_1" xmlns="http://www.w3.org/2000/svg" xmlns:xlink="http://www.w3.org/1999/xlink" x="0px" y="0px"
	 viewBox="96 11 512 512" style="enable-background:new 96 11 512 512;" xml:space="preserve">
<style type="text/css">
	.st0{fill:#F0353D;}
	.st1{fill:#FD6A33;}
	.st2{fill:#FF8C29;}
	.st3{fill:#FFD1A9;}
	.st4{fill:#365558;}
	.st5{fill:#0295AA;}
	.st6{fill:#4ACFD9;}
	.st7{fill:#9BAAAB;}
	.st8{fill:#CDD4D5;}
	.st9{fill:#E6EAEA;}
	.st10{fill:#FFFFFF;}
	.st11{fill:#BCD643;}
	.st12{display:none;}
	.st13{fill:#687F82;}
</style>
<rect x="-483" y="17.1" class="st0" width="128" height="128"/>
<rect x="-355" y="17.1" class="st1" width="128" height="128"/>
<rect x="-227" y="17.1" class="st2" width="128" height="128"/>
<rect x="-99" y="17.1" class="st3" width="128" height="128"/>
<rect x="-483" y="145.1" class="st4" width="128" height="128"/>
<rect x="-355" y="145.1" class="st5" width="128" height="128"/>
<rect x="-227" y="145.1" class="st6" width="128" height="128"/>
<rect x="-483" y="273.1" class="st7" width="128" height="128"/>
<rect x="-355" y="273.1" class="st8" width="128" height="128"/>
<rect x="-227" y="273.1" class="st9" width="128" height="128"/>
<rect x="-99" y="273.1" class="st10" width="128" height="128"/>
<rect x="-483" y="401.1" class="st11" width="128" height="128"/>
<path class="st0" d="M589.1,280.3c-10.5,0-20.3,0-30.7,0c0,31.8,0,75.4,0,109.2c2.8,2.9,5.1,6.2,6.6,9.9c8.4,0,16.3,0,24.1,0
	C589.1,364.2,589.1,315,589.1,280.3z"/>
<path class="st2" d="M363.1,313.7c1.5-1.1,3-2.3,4.5-3.5C366.1,311.4,364.6,312.6,363.1,313.7z"/>
<path class="st2" d="M362.2,314.5c-1.6,1.2-3.1,2.3-4.7,3.4c0,0.1,0,0.1,0,0.2c0.1-0.1,0.1-0.2,0.2-0.3
	C359.2,316.6,360.7,315.6,362.2,314.5z"/>
<path class="st2" d="M533.9,459.3l-13.5,13.5c-6,6.2-14.4,9.7-23.1,9.7c-8.5,0-16.6-3.3-22.7-9.2l-0.3-0.3l-32-32.1
	c-16.1-8.3-31.2-21-43.2-41c-1.1-1.8-2.1-3.6-3.2-5.4L364.5,363c3.5,16.5,7.9,31.6,13.7,44.3c37.1,79.7,117.7,86.3,178,72.8
	c25.2-5.6,30.7-20.5,30.7-20.5v-12.3C587.1,447.2,572.7,459.1,533.9,459.3z"/>
<path class="st2" d="M362.2,314.5c0.3-0.2,0.6-0.5,1-0.7C362.8,314,362.5,314.2,362.2,314.5z"/>
<path class="st2" d="M367.8,310.1C367.8,310.1,367.8,310.1,367.8,310.1c-0.1,0-0.1,0.1-0.2,0.1C367.7,310.2,367.7,310.2,367.8,310.1
	z"/>
<path class="st2" d="M360.1,237.6c-0.6,0.9-1.2,1.9-1.9,2.8C358.9,239.4,359.5,238.5,360.1,237.6z"/>
<path class="st2" d="M357.8,240.9c-0.5,0.7-1,1.5-1.6,2.2C356.8,242.4,357.3,241.7,357.8,240.9z"/>
<path class="st2" d="M355.8,243.8c-0.5,0.7-1.1,1.5-1.6,2.2C354.7,245.3,355.2,244.5,355.8,243.8z"/>
<path class="st2" d="M351.6,249.2c0.7-0.9,1.4-1.7,2.1-2.6C353,247.4,352.3,248.3,351.6,249.2z"/>
<path class="st1" d="M111.2,92.2c19.7-13.6,56.9-29.3,89-33.2c5.2-2.6,10.6-4.8,16.2-6.7c0,0,0,0,0.1,0c1-0.3,2.1-0.7,3.2-1
	c0.1,0,0.3-0.1,0.4-0.1c0.9-0.3,1.9-0.6,2.9-0.8c0.2-0.1,0.4-0.1,0.6-0.2c0.9-0.3,1.9-0.5,2.9-0.7c0.2,0,0.3-0.1,0.5-0.1
	c1.1-0.3,2.2-0.5,3.3-0.7c0,0,0,0,0,0c2.3-0.5,4.6-0.9,6.9-1.2c0.3,0,0.6-0.1,0.8-0.1c0.8-0.1,1.7-0.2,2.5-0.3
	c0.4,0,0.8-0.1,1.1-0.1c0.8-0.1,1.5-0.2,2.3-0.2c0.4,0,0.8-0.1,1.3-0.1c0.7-0.1,1.5-0.1,2.2-0.2c0.4,0,0.8-0.1,1.3-0.1
	c0.8,0,1.6-0.1,2.4-0.1c0.4,0,0.7,0,1.1,0c1.2,0,2.3-0.1,3.5-0.1c1.4,0,2.8,0,4.2,0.1c0.3,0,0.7,0,1,0c1.4,0.1,2.7,0.1,4.1,0.2
	c0,0,0,0,0.1,0c1.5,0.1,2.9,0.2,4.3,0.4c0.2,0,0.4,0,0.5,0.1c1.4,0.2,2.8,0.3,4.2,0.6c0,0,0,0,0,0c-12.4-6.6-26.1-10.8-40.9-12.1
	C159,29.1,111.2,92.2,111.2,92.2z"/>
<path class="st1" d="M255.5,46c-1.2,0-2.3,0-3.5,0.1C253.2,46,254.3,46,255.5,46z"/>
<path class="st1" d="M259.7,46.1c-1.4,0-2.8-0.1-4.2-0.1C256.9,46,258.3,46,259.7,46.1z"/>
<path class="st1" d="M200.2,59c5.2-2.6,10.6-4.8,16.2-6.7C210.8,54.2,205.4,56.4,200.2,59L200.2,59z"/>
<path class="st1" d="M226.3,49.5c-1,0.2-1.9,0.5-2.9,0.7C224.4,49.9,225.3,49.7,226.3,49.5z"/>
<path class="st1" d="M264.8,46.3c-1.3-0.1-2.7-0.2-4.1-0.2C262,46.2,263.4,46.2,264.8,46.3z"/>
<path class="st1" d="M269.2,46.8c-1.4-0.2-2.9-0.3-4.3-0.4C266.3,46.5,267.7,46.6,269.2,46.8z"/>
<path class="st1" d="M273.9,47.4c-1.4-0.2-2.8-0.4-4.2-0.6C271.1,47,272.5,47.2,273.9,47.4z"/>
<path class="st1" d="M240.4,46.9c-0.8,0.1-1.7,0.2-2.5,0.3C238.7,47.1,239.5,47,240.4,46.9z"/>
<path class="st1" d="M222.9,50.3c-1,0.3-1.9,0.5-2.9,0.8C221,50.9,221.9,50.6,222.9,50.3z"/>
<path class="st1" d="M237,47.4c-2.3,0.3-4.6,0.8-6.9,1.2C232.4,48.1,234.7,47.7,237,47.4z"/>
<path class="st1" d="M230.1,48.6c-1.1,0.2-2.2,0.5-3.3,0.7C227.9,49.1,229,48.8,230.1,48.6z"/>
<path class="st1" d="M243.8,46.6c-0.8,0.1-1.5,0.2-2.3,0.2C242.3,46.7,243,46.6,243.8,46.6z"/>
<path class="st1" d="M247.3,46.3c-0.7,0-1.5,0.1-2.2,0.2C245.8,46.4,246.5,46.3,247.3,46.3z"/>
<path class="st1" d="M250.9,46.1c-0.8,0-1.6,0.1-2.4,0.1C249.3,46.2,250.1,46.1,250.9,46.1z"/>
<path class="st1" d="M219.6,51.3c-1.1,0.3-2.1,0.7-3.2,1C217.5,51.9,218.5,51.6,219.6,51.3z"/>
<path class="st5" d="M112.9,129.6c0,0,11.3-3.4,27.7-6.8c0,0,0,0,0,0c1.4-3.3,2.9-6.6,4.6-9.8c0,0,0,0,0,0c0.5-1,1.1-2,1.6-3
	c0-0.1,0.1-0.2,0.1-0.3c0.5-1,1.1-1.9,1.6-2.8c0-0.1,0.1-0.1,0.1-0.2c1.8-3,3.8-6,5.8-8.9c0,0,0,0,0,0
	C129.9,107.9,112.9,121.8,112.9,129.6z"/>
<path class="st5" d="M154.5,97.9c-2.1,2.9-4,5.8-5.8,8.9C150.5,103.7,152.4,100.7,154.5,97.9z"/>
<path class="st5" d="M148.5,106.9c-0.6,0.9-1.1,1.9-1.6,2.8C147.4,108.8,148,107.9,148.5,106.9z"/>
<path class="st5" d="M146.8,110c-0.6,1-1.1,2-1.6,3C145.7,112,146.2,111,146.8,110z"/>
<path class="st5" d="M145.1,113.1c-1.7,3.2-3.2,6.4-4.6,9.8C141.9,119.5,143.5,116.2,145.1,113.1z"/>
<path class="st6" d="M382.6,296.8c-1.1,1.1-2.2,2.2-3.3,3.2C380.4,299,381.5,297.9,382.6,296.8z"/>
<path class="st6" d="M555.7,437.6c19.9-5.1,33-12.6,33-12.6s-9.9,0.4-23.8,0.4c-1.6,3.6-3.9,7-6.9,9.8L555.7,437.6z"/>
<path class="st6" d="M382.6,296.8c0.1-0.1,0.3-0.3,0.4-0.4c-2-3.4-4.1-6.8-6.2-10.2c0.6,4.7,1.3,9.5,2,14.3c0.1-0.1,0.3-0.3,0.4-0.4
	C380.4,299,381.5,297.9,382.6,296.8z"/>
<path class="st6" d="M383,296.4C383,296.4,383,296.4,383,296.4c-0.1,0.1-0.3,0.3-0.4,0.4C382.7,296.7,382.8,296.5,383,296.4z"/>
<path class="st6" d="M379.3,300c-0.1,0.1-0.3,0.3-0.4,0.4c0,0,0,0,0,0C379,300.3,379.1,300.2,379.3,300z"/>
<path class="st12" d="M102.6,91.4c14.8,10,91.3-43,127.1-33c56.6,16,111.1,61.5,119.3,138.8c7,65.9,6.5,166.1,32.3,221.2
	c38.7,82.7,122.8,89.5,185.8,75.5c26.3-5.9,32.1-21.3,32.1-21.3v-12.8c0,0-22.6,18.5-86.4,10.6c-35.7-4.4-81-12.4-109.7-59.6
	c-42.4-69.7-39.1-164.6-43.4-213.6c-6.7-74.6-52.8-158.4-130-164.8C152.5,26,102.6,91.4,102.6,91.4z"/>
<path class="st0" d="M548.1,280.3c-10.5,0-20.3,0-30.7,0c0,21.8,0,45.2,0,68.2l30.7,30.7C548.1,346.8,548.1,311.7,548.1,280.3z"/>
<path class="st0" d="M507.1,280.3c-10.5,0-20.3,0-30.7,0c0,10.1,0,19,0,27.2l30.7,30.7C507.1,319.6,507.1,303.4,507.1,280.3z"/>
<path class="st0" d="M466.1,280.3c-5.8,0-11.3,0-16.9,0l16.9,16.9C466.1,293.1,466.1,287.7,466.1,280.3z"/>
<path class="st11" d="M140.4,217.5c-0.4-0.9-0.8-1.9-1.1-2.8c0,0,0-0.1,0-0.1c-0.4-0.9-0.7-1.9-1-2.8c0-0.1,0-0.1-0.1-0.2
	c-0.3-0.9-0.6-1.8-0.9-2.8c0-0.1-0.1-0.2-0.1-0.3c-0.3-0.9-0.6-1.8-0.8-2.7c0-0.1-0.1-0.2-0.1-0.4c-0.3-0.9-0.5-1.7-0.7-2.6
	c0-0.2-0.1-0.3-0.1-0.5c-0.2-0.8-0.4-1.7-0.6-2.6c0-0.2-0.1-0.4-0.1-0.6c-0.2-0.8-0.4-1.7-0.6-2.5c0-0.2-0.1-0.4-0.1-0.6
	c-0.2-0.8-0.3-1.6-0.5-2.4c0-0.2-0.1-0.5-0.1-0.7c-0.1-0.8-0.3-1.6-0.4-2.3c0-0.3-0.1-0.6-0.1-0.8c-0.1-0.8-0.2-1.5-0.3-2.3
	c0-0.3-0.1-0.6-0.1-0.9c-0.1-0.7-0.2-1.5-0.3-2.2c0-0.3-0.1-0.7-0.1-1c-0.1-0.7-0.1-1.4-0.2-2.2c0-0.4-0.1-0.7-0.1-1.1
	c-0.1-0.7-0.1-1.4-0.1-2.2c0-0.4,0-0.7-0.1-1.1c0-0.8-0.1-1.5-0.1-2.3c0-0.3,0-0.6,0-1c0-1.1,0-2.2,0-3.3c0-1,0-1.9,0-2.9
	c0-0.9,0.1-1.9,0.1-2.8c-6.8,0-13.4,0-20.3,0c0,35,0,54.2,0,89.1c11,0,20.9,0,30.7,0c0-12.7,0-23.4,0-33.4
	C141.2,219.4,140.8,218.5,140.4,217.5C140.4,217.5,140.4,217.5,140.4,217.5z"/>
<path class="st11" d="M131.1,170.4c0,1.1,0,2.2,0,3.3C131.1,172.6,131.1,171.5,131.1,170.4z"/>
<path class="st11" d="M131.2,164.7L131.2,164.7c0,0.9-0.1,1.9-0.1,2.8C131.2,166.6,131.2,165.6,131.2,164.7z"/>
<path class="st11" d="M131.6,181.2c0.1,0.7,0.1,1.4,0.2,2.2C131.7,182.7,131.6,181.9,131.6,181.2z"/>
<path class="st11" d="M136.2,205.8c0.3,0.9,0.5,1.8,0.8,2.7C136.8,207.6,136.5,206.7,136.2,205.8z"/>
<path class="st11" d="M131.3,178c0,0.7,0.1,1.4,0.1,2.2C131.4,179.4,131.4,178.7,131.3,178z"/>
<path class="st11" d="M140.4,217.5c0.4,1,0.8,1.9,1.2,2.9l0,0C141.2,219.4,140.8,218.5,140.4,217.5z"/>
<path class="st11" d="M131.2,174.6c0,0.8,0.1,1.5,0.1,2.3C131.2,176.2,131.2,175.4,131.2,174.6z"/>
<path class="st11" d="M137.2,208.8c0.3,0.9,0.6,1.8,0.9,2.8C137.8,210.6,137.5,209.7,137.2,208.8z"/>
<path class="st11" d="M131.9,184.4c0.1,0.7,0.2,1.5,0.3,2.2C132.1,185.9,132,185.1,131.9,184.4z"/>
<path class="st11" d="M133.3,193.7c0.2,0.8,0.3,1.6,0.5,2.4C133.6,195.3,133.5,194.5,133.3,193.7z"/>
<path class="st11" d="M135.4,202.8c0.2,0.9,0.5,1.8,0.7,2.6C135.9,204.6,135.6,203.7,135.4,202.8z"/>
<path class="st11" d="M134.6,199.8c0.2,0.9,0.4,1.7,0.6,2.6C135,201.5,134.8,200.7,134.6,199.8z"/>
<path class="st11" d="M133.9,196.8c0.2,0.8,0.4,1.7,0.6,2.5C134.3,198.4,134.1,197.6,133.9,196.8z"/>
<path class="st11" d="M139.2,214.6c0.4,1,0.7,1.9,1.1,2.8C140,216.5,139.6,215.6,139.2,214.6z"/>
<path class="st11" d="M138.2,211.7c0.3,0.9,0.7,1.9,1,2.8C138.8,213.6,138.5,212.7,138.2,211.7z"/>
<path class="st11" d="M132.3,187.5c0.1,0.8,0.2,1.5,0.3,2.3C132.5,189,132.4,188.3,132.3,187.5z"/>
<path class="st11" d="M132.8,190.6c0.1,0.8,0.3,1.6,0.4,2.3C133,192.2,132.9,191.4,132.8,190.6z"/>
<path class="st11" d="M160,250.1c-1-1.2-1.9-2.3-2.9-3.5c0,0-0.1-0.1-0.1-0.1c-1.9-2.5-3.8-5.1-5.5-7.7c0,0,0,0,0,0
	c0,5.1,0,10.1,0,15.1c4,0,7.9,0,11.7,0c-1-1.1-2-2.2-3-3.4C160.2,250.3,160.1,250.2,160,250.1z"/>
<path class="st11" d="M157.1,246.4c-1.9-2.5-3.8-5.1-5.5-7.7C153.3,241.4,155.2,243.9,157.1,246.4z"/>
<path class="st11" d="M160.3,250.4c1,1.1,1.9,2.3,3,3.4l0,0C162.3,252.7,161.3,251.6,160.3,250.4z"/>
<path class="st11" d="M157.2,246.5c0.9,1.2,1.9,2.4,2.9,3.5C159.1,248.9,158.1,247.7,157.2,246.5z"/>
<path class="st13" d="M180.2,269.3c-0.1-0.1-0.1-0.1-0.2-0.2c-0.8-0.6-1.6-1.2-2.4-1.9c-0.1-0.1-0.2-0.2-0.3-0.2
	c-0.8-0.6-1.5-1.3-2.3-1.9c-0.1-0.1-0.2-0.1-0.3-0.2c-0.8-0.7-1.6-1.4-2.5-2.2h-61.5v8.5h72c0,0,0,0,0,0
	C181.9,270.7,181.1,270,180.2,269.3z"/>
<path class="st13" d="M172.3,262.8L172.3,262.8c0.8,0.7,1.6,1.4,2.5,2.2C173.9,264.2,173.1,263.5,172.3,262.8z"/>
<path class="st13" d="M182.8,271.3c-0.9-0.6-1.8-1.3-2.6-2C181.1,270,181.9,270.7,182.8,271.3z"/>
<path class="st13" d="M177.6,267.3c0.8,0.6,1.6,1.3,2.4,1.9C179.2,268.6,178.4,267.9,177.6,267.3z"/>
<path class="st13" d="M175,265.2c0.8,0.6,1.5,1.3,2.3,1.9C176.5,266.5,175.8,265.8,175,265.2z"/>
<path class="st13" d="M336.1,265c-0.1,0.1-0.2,0.1-0.2,0.2c-0.8,0.6-1.5,1.3-2.3,1.9c-0.1,0.1-0.2,0.2-0.3,0.2
	c-0.8,0.6-1.6,1.3-2.4,1.9c-0.1,0.1-0.1,0.1-0.2,0.2c-0.9,0.7-1.7,1.3-2.6,2h20.2v-8.5h-9.6C337.8,263.5,336.9,264.2,336.1,265z"/>
<path class="st13" d="M335.9,265.2c-0.8,0.6-1.5,1.3-2.3,1.9C334.3,266.4,335.1,265.8,335.9,265.2z"/>
<path class="st13" d="M328,271.3L328,271.3c0.9-0.6,1.8-1.3,2.6-2C329.8,270,328.9,270.7,328,271.3z"/>
<path class="st13" d="M333.3,267.3c-0.8,0.6-1.6,1.3-2.4,1.9C331.7,268.6,332.5,267.9,333.3,267.3z"/>
<path class="st13" d="M336.1,265c0.8-0.7,1.7-1.4,2.5-2.2l0,0C337.8,263.5,336.9,264.2,336.1,265z"/>
<path class="st7" d="M588.8,262.8H409.1c-1.7,2.9-3.6,5.7-5.5,8.5h1.1c5.1-3.2,11-4.9,17.1-4.9c6.1,0,12,1.7,17.1,4.9h149.8V262.8z"
	/>
<path class="st4" d="M379.3,300c1-0.9,1.9-1.8,2.8-2.8C381.2,298.1,380.3,299.1,379.3,300z"/>
<path class="st4" d="M391.7,286.9c0.5-0.5,0.9-1.1,1.4-1.6C392.6,285.8,392.2,286.3,391.7,286.9z"/>
<path class="st4" d="M376.4,302.8c0.6-0.6,1.2-1.1,1.8-1.7C377.6,301.6,377,302.2,376.4,302.8z"/>
<path class="st4" d="M386.2,293.1c0.5-0.6,1.1-1.1,1.6-1.7C387.2,291.9,386.7,292.5,386.2,293.1z"/>
<path class="st4" d="M389,290c0.5-0.6,1-1.1,1.5-1.7C390,288.9,389.5,289.4,389,290z"/>
<path class="st4" d="M382.9,296.4c0.7-0.7,1.4-1.4,2.1-2.1C384.3,295,383.6,295.7,382.9,296.4z"/>
<path class="st4" d="M373.3,305.5c0.6-0.5,1.1-1,1.7-1.5C374.5,304.4,373.9,305,373.3,305.5z"/>
<path class="st4" d="M367.1,310.6c0.6-0.5,1.1-0.9,1.7-1.4C368.3,309.7,367.7,310.2,367.1,310.6z"/>
<path class="st4" d="M360.7,315.6c0.6-0.4,1.1-0.9,1.7-1.3C361.8,314.7,361.3,315.1,360.7,315.6z"/>
<path class="st4" d="M370.3,308.1c0.6-0.5,1.1-1,1.7-1.4C371.4,307.1,370.8,307.6,370.3,308.1z"/>
<path class="st4" d="M363.9,313.1c0.6-0.4,1.1-0.9,1.7-1.3C365.1,312.3,364.5,312.7,363.9,313.1z"/>
<path class="st4" d="M359.1,316.7c-0.7,0.5-1.3,1-2,1.4l0.2,0.2c0.1-0.2,0.3-0.4,0.4-0.6C358.2,317.4,358.6,317,359.1,316.7z"/>
<path class="st4" d="M359.1,316.7c0.5-0.4,1-0.7,1.6-1.1C360.2,315.9,359.7,316.3,359.1,316.7z"/>
<path class="st4" d="M376.4,302.8c-0.4,0.4-0.9,0.8-1.3,1.2C375.5,303.5,375.9,303.2,376.4,302.8z"/>
<path class="st4" d="M379.3,300c-0.4,0.4-0.8,0.7-1.1,1.1C378.6,300.7,378.9,300.3,379.3,300z"/>
<path class="st4" d="M373.3,305.5c-0.5,0.4-0.9,0.8-1.4,1.2C372.4,306.3,372.9,305.9,373.3,305.5z"/>
<path class="st4" d="M363.9,313.1c-0.5,0.4-1,0.8-1.5,1.1C362.9,313.9,363.4,313.5,363.9,313.1z"/>
<path class="st4" d="M386.2,293.1c-0.4,0.4-0.8,0.8-1.1,1.2C385.4,293.9,385.8,293.5,386.2,293.1z"/>
<path class="st4" d="M367.1,310.6c-0.5,0.4-1,0.8-1.5,1.2C366.1,311.4,366.6,311,367.1,310.6z"/>
<path class="st4" d="M391.7,286.9c-0.4,0.5-0.8,1-1.2,1.4C390.9,287.8,391.3,287.4,391.7,286.9z"/>
<path class="st4" d="M382.2,297.2c0.3-0.3,0.5-0.5,0.8-0.8C382.7,296.7,382.4,296.9,382.2,297.2z"/>
<path class="st4" d="M389,290c-0.4,0.5-0.8,0.9-1.2,1.4C388.2,290.9,388.6,290.4,389,290z"/>
<path class="st4" d="M370.3,308.1c-0.5,0.4-1,0.8-1.5,1.2C369.3,308.9,369.8,308.5,370.3,308.1z"/>
<path class="st4" d="M383.2,296.2c0.9-0.9,1.7-1.7,2.5-2.6C384.9,294.4,384,295.3,383.2,296.2z"/>
<path class="st4" d="M378.6,300.7c0.9-0.9,1.8-1.7,2.7-2.6C380.4,299,379.5,299.8,378.6,300.7z"/>
<path class="st4" d="M387.3,291.9c1.1-1.1,2.1-2.3,3.1-3.5C389.4,289.6,388.3,290.7,387.3,291.9z"/>
<path class="st4" d="M373.4,305.4c1.2-1,2.3-2.1,3.5-3.2C375.8,303.3,374.6,304.3,373.4,305.4z"/>
<path class="st4" d="M385.4,318.1l17.7-17.7L390.8,288c-0.1,0.1-0.3,0.3-0.4,0.4c-1,1.2-2.1,2.3-3.1,3.5c-0.5,0.6-1,1.1-1.6,1.7
	c-0.8,0.9-1.7,1.8-2.5,2.6c-0.6,0.6-1.3,1.3-1.9,1.9c-0.9,0.9-1.8,1.7-2.7,2.6c-0.5,0.5-1.1,1-1.6,1.5c-1.2,1.1-2.3,2.1-3.5,3.2
	c-0.1,0.1-0.3,0.2-0.4,0.4L385.4,318.1z"/>
<path class="st4" d="M376.9,302.2c0.5-0.5,1.1-1,1.6-1.5c0.9-0.9,1.8-1.7,2.7-2.6c0.6-0.6,1.3-1.3,1.9-1.9c0.9-0.9,1.7-1.7,2.5-2.6
	c0.5-0.6,1-1.1,1.6-1.7c1.1-1.1,2.1-2.3,3.1-3.5c0.1-0.1,0.2-0.3,0.4-0.4l-13.8-13.8l-17.7,17.7l13.8,13.8c0.1-0.1,0.3-0.2,0.4-0.4
	C374.6,304.3,375.8,303.3,376.9,302.2z"/>
<path class="st4" d="M381.2,298.1c0.6-0.6,1.3-1.3,1.9-1.9C382.5,296.8,381.9,297.5,381.2,298.1z"/>
<path class="st4" d="M387.3,291.9c-0.5,0.6-1,1.1-1.6,1.7C386.2,293,386.7,292.4,387.3,291.9z"/>
<path class="st4" d="M390.8,288L390.8,288c-0.1,0.1-0.3,0.3-0.4,0.4C390.5,288.3,390.7,288.1,390.8,288z"/>
<path class="st4" d="M378.6,300.7c-0.5,0.5-1.1,1-1.6,1.5C377.5,301.7,378,301.2,378.6,300.7z"/>
<path class="st4" d="M373.4,305.4c-0.1,0.1-0.3,0.2-0.4,0.4l0,0C373.2,305.6,373.3,305.5,373.4,305.4z"/>
<path class="st4" d="M414.8,170.4C414.8,82.6,343.2,11,255.4,11S96,82.5,96,170.4s71.6,159.4,159.4,159.4
	C343.2,329.8,414.8,258.2,414.8,170.4z M255.5,294.8c-68.6,0-124.4-55.8-124.4-124.4S186.9,46,255.5,46s124.4,55.8,124.4,124.4
	C379.9,238.9,324,294.7,255.5,294.8z"/>
<path class="st6" d="M430.7,290.1c-4.9-4.9-12.8-4.9-17.7,0l-37.8,37.8c-2.4,2.3-3.7,5.5-3.7,8.8s1.3,6.5,3.7,8.8l113.3,113.4
	c2.4,2.3,5.5,3.6,8.9,3.6c3.3,0,6.5-1.3,8.8-3.7L544,421c2.5-2.4,3.7-5.6,3.7-8.8c0-3.1-1.2-6.4-3.7-8.8L430.7,290.1z"/>
<path class="st10" d="M426.3,343.5c-4.9-4.9-12.8-4.9-17.7,0c-4.9,4.9-4.9,12.8,0,17.7l60.1,60.1c4.9,4.9,12.8,4.9,17.7,0
	c2.4-2.4,3.7-5.7,3.7-8.9s-1.2-6.4-3.7-8.8L426.3,343.5z"/>
<path class="st1" d="M256.5,46c-12,0-23.7,1.7-34.7,4.9c62.1,18.6,122.1,58.7,159.1,121.3c0-0.6,0-1.2,0-1.8
	C380.9,101.8,325.1,46,256.5,46z"/>
<path class="st5" d="M156.9,95.9c-11.1,14.8-19,32.2-22.6,51.1c0.4,0,0.7-0.1,1.1-0.1c43.6-3,136.3,18.3,190.4,77
	c5.8,6.4,13.7,16.7,22.9,29.8c7.8-8.6,14.4-18.3,19.6-28.8c-12.9-22.4-27.3-43.8-43.6-63.6C292.9,122.6,227.2,90.4,156.9,95.9z"/>
<path class="st11" d="M146.9,229.2c12,22.4,30.7,40.6,53.4,52.2c0-36.3,0-72.4,0-102.5c-18.3,0-35.3,0-53.4,0
	C146.9,194.3,146.9,211.4,146.9,229.2z"/>
<path class="st11" d="M217.6,288.6c12.2,4,25.3,6.2,38.8,6.2c4.9,0,9.8-0.3,14.5-0.9c0-26,0-52.1,0-80.3c-18.3,0-35.3,0-53.4,0
	C217.6,240,217.6,264.4,217.6,288.6z"/>
<path class="st11" d="M288.6,290.5c7-1.9,13.7-4.3,20.2-7.4c-6.7,0-13.3,0-20.2,0C288.6,285.8,288.6,288.2,288.6,290.5z"/>
<path class="st10" d="M202.5,244c1.3-1.9,1.6-4,1.3-6.4c-0.4-2.8-1.9-5.3-4.6-6.9c-14-8.5-23.6-22.6-26.1-38.8
	c-0.8-5.2-5.9-8.9-11.1-8.2c-5.2,0.8-8.9,5.9-8.2,11.1c3.4,22,16.2,41.1,35.2,52.5C193.7,250.1,199.7,248.6,202.5,244z"/>
</svg>
