<?xml version="1.0" encoding="utf-8"?>
<!-- Generator: Adobe Illustrator 19.0.0, SVG Export Plug-In . SVG Version: 6.00 Build 0)  -->
<svg version="1.1" id="Layer_1" xmlns="http://www.w3.org/2000/svg" xmlns:xlink="http://www.w3.org/1999/xlink" x="0px" y="0px"
	 viewBox="96 11 512 512" style="enable-background:new 96 11 512 512;" xml:space="preserve">
<style type="text/css">
	.st0{display:none;fill:#020202;}
	.st1{fill:#F0353D;}
	.st2{fill:#FFD1A9;}
	.st3{fill:#FF8C29;}
	.st4{fill:#FD6A33;}
</style>
<rect x="494" y="-173" class="st0" width="512" height="512"/>
<path class="st1" d="M170.1,23.7c-17-16.9-44.5-16.9-61.4,0c-16.9,17-16.9,44.5,0,61.4l425.2,425.2c17,16.9,44.4,16.9,61.4,0
	c16.9-17,16.9-44.5,0-61.4L170.1,23.7z"/>
<path class="st2" d="M160.2,512.8c0,5.5,4.5,10,10,10h262c2.5,0,5.2-1,7.1-3l37.9-37.9l-317-317L160.2,512.8L160.2,512.8z"/>
<path class="st2" d="M543.9,21.1c-0.1-5.7-4.7-10.2-10.2-10.2H185.6l358.3,358.3V21.1z"/>
<path class="st3" d="M160.1,512.8c0,5.5,4.5,10,10,10H352V356.7L160.1,164.8V512.8z"/>
<polygon class="st3" points="352,10.9 185.6,10.9 352,177.3 "/>
<path class="st4" d="M432.1,523.1c2.5,0,5.2-1,7.1-3l38.1-38.1l-45.2-45.2V523.1z"/>
<path class="st2" d="M443.4,124"/>
</svg>
