<?xml version="1.0" encoding="utf-8"?>
<!-- Generator: Adobe Illustrator 19.0.0, SVG Export Plug-In . SVG Version: 6.00 Build 0)  -->
<svg version="1.1" id="Layer_1" xmlns="http://www.w3.org/2000/svg" xmlns:xlink="http://www.w3.org/1999/xlink" x="0px" y="0px"
	 viewBox="206 -206 512 512" style="enable-background:new 206 -206 512 512;" xml:space="preserve">
<style type="text/css">
	.st0{fill:#FFD1A9;}
	.st1{fill:#9BAAAB;}
	.st2{fill:#687F82;}
	.st3{fill:#365558;}
	.st4{fill:#F0353D;}
	.st5{fill:#0295AA;}
	.st6{fill:#FD6A33;}
	.st7{fill:#4ACFD9;}
	.st8{fill:#CDD4D5;}
	.st9{fill:#FFFFFF;}
</style>
<polygon class="st0" points="637.1,161.2 566.1,226.7 497.9,166.7 450.3,111.2 432.4,129.3 432.4,300.4 699.8,300.4 699.8,232.2 "/>
<polygon class="st0" points="566.8,226.1 566.8,300.4 699.8,300.4 699.8,232.2 637.1,161.2 "/>
<path class="st1" d="M697.1,36H525.2L515,46.2h46V96h-58V58.3l-10.2,10.3V96h-27.3l-10.2,10.2h37.5v55.3h-52.5v-40.1L430,131.7v166
	c0,2.8,2.3,5.1,5.1,5.1h262c2.8,0,5.1-2.3,5.1-5.1V41.1C702.2,38.3,699.9,36,697.1,36z M492.8,292.6h-52.5v-55.3h52.5V292.6z
	 M492.8,227.1h-52.5v-55.3h52.5V227.1z M503,171.8h58v55.3h-58V171.8z M561,292.6h-58v-55.3h58h0V292.6z M561,161.6h-58v-55.3h58
	V161.6z M629.2,292.6h-58v-55.3v0h58V292.6z M629.2,227.1h-58v-55.3h58V227.1z M629.2,161.6h-58v-55.3h58V161.6z M629.2,96h-58V46.2
	h58V96z M692,292.6h-52.5v-55.3H692V292.6z M692,227.1h-52.5v-55.3H692V227.1z M692,161.6h-52.5v-55.3H692V161.6z M692,96h-52.5
	V46.2H692V96z"/>
<path class="st2" d="M697.1,36H566.8v266.8h130.3c2.8,0,5.1-2.3,5.1-5.1V41.1C702.2,38.3,699.9,36,697.1,36z M629.2,292.6h-58v-55.3
	h58V292.6z M629.2,227.1h-58v-55.3h58V227.1z M629.2,161.6h-58v-55.3h58V161.6z M629.2,96h-58V46.2h58V96z M692,292.6h-52.5v-55.3
	H692V292.6z M692,227.1h-52.5v-55.3H692V227.1z M692,161.6h-52.5v-55.3H692V161.6z M692,96h-52.5V46.2H692V96z"/>
<path class="st2" d="M431,161.6h-58v-13l-10.2,2.1v10.9h-52.5V160c-3.7-0.5-7.2-1.9-10.2-4.1v141.8c0,2.8,2.3,5.1,5.1,5.1h130.3
	V126.2l-4.4,4.5V161.6z M362.8,292.6h-52.5v-55.3h52.5V292.6z M362.8,227.1h-52.5v-55.3h52.5V227.1z M431,292.6h-58v-55.3h58V292.6z
	 M431,227.1h-58v-55.3h58V227.1z"/>
<path class="st3" d="M700.9,231.4l-62.8-68.2c-0.9-1-2.2-1.6-3.6-1.7c-1.4,0-2.7,0.5-3.7,1.4l-64.7,62.1l-64.6-62l-49.3-53.8
	l-7.2,7.3l49.1,53.5c0.1,0.1,0.1,0.2,0.2,0.2l68.2,65.5c2,1.9,5.1,1.9,7.1,0l64.5-61.9l59.2,64.4c1,1.1,2.4,1.7,3.8,1.7
	c1.2,0,2.5-0.4,3.5-1.4C702.7,236.8,702.8,233.5,700.9,231.4z"/>
<path class="st4" d="M678.4,232.2c0,10.3,8.4,18.8,18.8,18.8s18.8-8.4,18.8-18.8c0-10.3-8.4-18.8-18.8-18.8S678.4,221.8,678.4,232.2
	z"/>
<path class="st5" d="M615.6,166.7c0,10.3,8.4,18.8,18.8,18.8s18.8-8.4,18.8-18.8c0-10.3-8.4-18.8-18.8-18.8
	C624,147.9,615.6,156.3,615.6,166.7z"/>
<path class="st6" d="M547.3,232.2c0,10.3,8.4,18.8,18.8,18.8s18.8-8.4,18.8-18.8c0-10.3-8.4-18.8-18.8-18.8S547.3,221.8,547.3,232.2
	z"/>
<path class="st4" d="M566.8,213.4v37.5c10-0.4,18.1-8.6,18.1-18.7C584.9,222.1,576.8,213.8,566.8,213.4z"/>
<path class="st7" d="M497.9,147.9c-10.3,0-18.8,8.4-18.8,18.8c0,10.3,8.4,18.8,18.8,18.8c10.3,0,18.8-8.4,18.8-18.8
	C516.6,156.3,508.2,147.9,497.9,147.9z"/>
<path class="st7" d="M456.1,105.5l-13.8,13.9C449.1,117.7,454.4,112.3,456.1,105.5z"/>
<g>
	<path class="st8" d="M281.7-199.4c0-3.7-3-6.7-6.7-6.6l-62.2,0.1c-3.7,0-6.7,3-6.6,6.7L206.7,42l75.5-0.1L281.7-199.4z"/>
	<path class="st1" d="M213.9,306.9l62.2-0.1c3.7,0,6.7-3,6.6-6.7l-0.5-258.3L206.7,42l0.5,258.3C207.2,304,210.2,306.9,213.9,306.9z
		"/>
	<path class="st2" d="M246,209.3l35.4-0.1l0-13.5l-35.4,0.1c-3.7,0-6.7,3-6.7,6.7C239.3,206.3,242.3,209.3,246,209.3z"/>
	<path class="st2" d="M245.9,155.5l35.4-0.1l0-13.5l-35.4,0.1c-3.7,0-6.7,3-6.7,6.7C239.2,152.5,242.2,155.5,245.9,155.5z"/>
	<path class="st2" d="M245.8,101.6l35.4-0.1l0-13.5l-35.4,0.1c-3.7,0-6.7,3-6.7,6.7C239.1,98.6,242.1,101.6,245.8,101.6z"/>
	<path class="st3" d="M281.1,34.3l-35.4,0.1c-3.7,0-6.7,3-6.7,6.7c0,0.3,0,0.6,0.1,0.8l42.1-0.1L281.1,34.3z"/>
	<path class="st2" d="M245.7,47.8l35.4-0.1l0-5.9l-42.1,0.1C239.5,45.2,242.3,47.8,245.7,47.8z"/>
	<path class="st3" d="M238.9-12.7c0,3.7,3,6.7,6.7,6.7l35.4-0.1l0-13.5l-35.4,0.1C241.9-19.5,238.9-16.5,238.9-12.7z"/>
	<path class="st3" d="M238.8-66.6c0,3.7,3,6.7,6.7,6.7l35.4-0.1l0-13.5l-35.4,0.1C241.8-73.3,238.8-70.3,238.8-66.6z"/>
	<path class="st3" d="M238.7-120.4c0,3.7,3,6.7,6.7,6.7l35.4-0.1l0-13.5l-35.4,0.1C241.7-127.1,238.7-124.1,238.7-120.4z"/>
	<path class="st9" d="M222.5,297.4c2.8,0,5-2.7,5-6.1l-0.3-177.9c0-1.7-0.6-3.2-1.5-4.3c-0.9-1.1-2.2-1.8-3.6-1.8
		c-2.8,0-5,2.7-5,6.1l0.3,177.9C217.4,294.7,219.7,297.4,222.5,297.4z"/>
	<path class="st9" d="M222.1,85.1c2.8,0,5-2.5,5-5.5l0-20.6c0-1.5-0.6-2.9-1.5-3.9c-0.9-1-2.2-1.6-3.6-1.6c-2.8,0-5,2.5-5,5.5
		l0,20.6C217,82.7,219.3,85.1,222.1,85.1z"/>
	<path class="st3" d="M238.1-173.7c0,3.7,3,6.7,6.7,6.7l35.4-0.1l0-13.5l-35.4,0.1C241.1-180.4,238-177.4,238.1-173.7z"/>
	<path class="st2" d="M246.1,262.1l35.4-0.1l0-13.5l-35.4,0.1c-3.7,0-6.7,3-6.7,6.7C239.4,259.1,242.4,262.1,246.1,262.1z"/>
</g>
<g>
	<path class="st6" d="M510.8-140.4c-1.4-1.4-3.3-2.2-5.3-2.2c-2,0-3.9,0.8-5.3,2.2L327.5,33.3c-1.4,1.4-2.2,3.3-2.2,5.3
		c0,2,0.8,3.9,2.2,5.3l79.4,79c1.4,1.4,3.3,2.2,5.3,2.2c2,0,3.9-0.8,5.3-2.2L590.3-50.7c1.5-1.5,2.2-3.4,2.2-5.3
		c0-1.9-0.7-3.8-2.2-5.3L510.8-140.4z"/>
	<path class="st4" d="M550.2-101.2L366.9,83.1l40.1,39.9c1.4,1.4,3.3,2.2,5.3,2.2c2,0,3.9-0.8,5.3-2.2L590.3-50.7
		c1.5-1.5,2.2-3.4,2.2-5.3c0-1.9-0.7-3.8-2.2-5.3L550.2-101.2z"/>
	<path class="st7" d="M536.4-115c-1.4-1.4-3.3-2.2-5.3-2.2c-2,0-3.9,0.8-5.3,2.2L353,58.7c-2.9,2.9-2.9,7.7,0,10.6l28.4,28.2
		c1.4,1.4,3.3,2.2,5.3,2.2c2,0,3.9-0.8,5.3-2.2L564.8-76.1c1.5-1.5,2.2-3.4,2.2-5.3c0-1.9-0.7-3.8-2.2-5.3L536.4-115z"/>
	<path class="st5" d="M550.2-101.2L366.9,83.1l14.5,14.5c1.4,1.4,3.3,2.2,5.3,2.2c2,0,3.9-0.8,5.3-2.2L564.8-76.1
		c1.5-1.5,2.2-3.4,2.2-5.3c0-1.9-0.7-3.8-2.2-5.3L550.2-101.2z"/>
	<g>
		<path class="st0" d="M305.9,136.3c-0.5,2.5,0.3,5,2.1,6.8c1.8,1.8,4.3,2.5,6.8,2l99-20.1l-88.3-87.8L305.9,136.3z"/>
		<path class="st0" d="M307.6,142.7c0.1,0.1,0.2,0.2,0.3,0.4c1.8,1.8,4.3,2.5,6.8,2l99-20.1l-44.5-44.3L307.6,142.7z"/>
	</g>
	<path class="st2" d="M305.9,136.3c-0.5,2.5,0.3,5,2.1,6.8c1.8,1.8,4.3,2.5,6.8,2l42.4-8.6l-42.9-42.7L305.9,136.3z"/>
	<path class="st3" d="M307.6,142.7c0.1,0.1,0.2,0.2,0.3,0.4c1.8,1.8,4.3,2.5,6.8,2l42.4-8.6l-21.8-21.7L307.6,142.7z"/>
	<path class="st8" d="M649-112.8c0-1.9-0.7-3.8-2.2-5.3l-79.4-79c-1.4-1.4-3.3-2.2-5.3-2.2c-2,0-3.9,0.8-5.3,2.2l-40.6,40.8
		L600.9-72c1.8,1.8,3.3,3.9,4.4,6.2l41.5-41.7C648.2-108.9,649-110.9,649-112.8z"/>
	<path class="st8" d="M516.1-156.3l-15.9,16l90.1,89.6l15-15c-1.1-2.3-2.6-4.4-4.4-6.2L516.1-156.3z"/>
	<path class="st1" d="M649-112.8c0-1.9-0.7-3.8-2.2-5.3l-40.1-39.9l-45.9,46.1L600.9-72c1.8,1.8,3.3,3.9,4.4,6.2l41.5-41.7
		C648.2-108.9,649-110.9,649-112.8z"/>
	<path class="st1" d="M560.8-111.8l-15.9,16l45.4,45.2l15-15c-1.1-2.3-2.6-4.4-4.4-6.2L560.8-111.8z"/>
	<path class="st9" d="M550-126.4l20-20.1c1.5-1.5,2.2-3.4,2.2-5.3c0-1.9-0.7-3.8-2.2-5.3c-2.9-2.9-7.7-2.9-10.6,0l-20,20.1
		c-0.7,0.7-1.2,1.5-1.6,2.3l9.9,9.9C548.5-125.2,549.3-125.8,550-126.4z"/>
	<path class="st9" d="M539.4-126.4c2.3,2.2,5.6,2.8,8.3,1.5l-9.9-9.9C536.6-132,537.1-128.7,539.4-126.4z"/>
</g>
</svg>
