<?xml version="1.0" encoding="utf-8"?>
<!-- Generator: Adobe Illustrator 19.0.0, SVG Export Plug-In . SVG Version: 6.00 Build 0)  -->
<svg version="1.1" id="Layer_1" xmlns="http://www.w3.org/2000/svg" xmlns:xlink="http://www.w3.org/1999/xlink" x="0px" y="0px"
	 viewBox="96 11 512 512" style="enable-background:new 96 11 512 512;" xml:space="preserve">
<style type="text/css">
	.st0{display:none;fill:#020202;}
	.st1{fill:#FFD1A9;}
	.st2{fill:#FF8C29;}
	.st3{fill:#FD6A33;}
	.st4{fill:#F0353D;}
</style>
<rect x="878" y="-129" class="st0" width="512" height="512"/>
<path class="st1" d="M172.8,65"/>
<path class="st1" d="M519.2,490.8c6.4,0,11.7-5.3,11.7-11.7V173.5c0-3-1.2-6.1-3.5-8.2L408.9,46.7c-2.1-2.1-5.1-3.5-8.2-3.5H232.5
	v447.5L519.2,490.8L519.2,490.8z"/>
<path class="st2" d="M519.2,491c6.4,0,11.7-5.3,11.7-11.7V267.1H232.5V491H519.2z"/>
<path class="st3" d="M369,20.1v494c0,6.4-11.1,8.5-8.6,8.5l-127.9-31.8V43.3l129-31.9C366.9,9.8,369,13.7,369,20.1z"/>
<path class="st4" d="M369,514.3c0,8.9-5.3,9.2-8.6,8.5L232.5,491V267.1H369V514.3z"/>
<path class="st3" d="M412.7,173.7h118.5l0,0c0-3-1.2-6.1-3.5-8.2L409.2,46.9c-2.1-2.1-5.1-3.5-8.2-3.5l0,0V162
	C400.8,168.4,406.1,173.7,412.7,173.7z"/>
</svg>
