<?xml version="1.0" encoding="iso-8859-1"?>
<!-- Generator: Adobe Illustrator 19.0.0, SVG Export Plug-In . SVG Version: 6.00 Build 0)  -->
<svg version="1.1" id="Layer_1" xmlns="http://www.w3.org/2000/svg" xmlns:xlink="http://www.w3.org/1999/xlink" x="0px" y="0px"
	 viewBox="0 0 512 512" style="enable-background:new 0 0 512 512;" xml:space="preserve">
<path style="fill:#CDD4D5;" d="M251.992,85.511H21.111c-4.428,0-8.017,3.588-8.017,8.017v376.251c0,4.428,3.588,8.017,8.017,8.017
	h230.881c4.428,0,8.017-3.588,8.017-8.017V93.528C260.008,89.1,256.42,85.511,251.992,85.511z"/>
<path style="fill:#4ACFD9;" d="M251.992,85.511H21.111c-4.427,0-8.017,3.589-8.017,8.017v67.875h246.914V93.528
	C260.008,89.101,256.419,85.511,251.992,85.511z"/>
<path style="fill:#FFFFFF;" d="M46.764,135.749c-4.428,0-8.017-3.588-8.017-8.017v-8.551c0-4.428,3.588-8.017,8.017-8.017
	s8.017,3.588,8.017,8.017v8.551C54.781,132.161,51.193,135.749,46.764,135.749z"/>
<path style="fill:#F0353D;" d="M260.008,244.777v-48.1h-59.324c-9.969,0-19.019,6.271-22.518,15.606l-76.96,205.228
	c-1.103,2.943-0.413,6.352,2.015,8.668c0.807,0.77,1.797,1.324,2.841,1.716l29.861,11.197c0.928,0.347,1.879,0.512,2.814,0.512
	c3.245,0,6.301-1.985,7.507-5.203l32.627-87.008h81.138v-48.1h-63.1l20.443-54.514L260.008,244.777L260.008,244.777z"/>
<path style="fill:#CDD4D5;" d="M260.008,33.67h230.881c4.428,0,8.017,3.588,8.017,8.017v376.251c0,4.428-3.588,8.017-8.017,8.017
	H260.008c-4.428,0-8.017-3.588-8.017-8.017V41.687C251.992,37.258,255.58,33.67,260.008,33.67z"/>
<path style="fill:#4ACFD9;" d="M260.008,33.67h230.881c4.427,0,8.017,3.589,8.017,8.017v67.875H251.992V41.687
	C251.992,37.259,255.581,33.67,260.008,33.67z"/>
<path style="fill:#FFFFFF;" d="M465.236,83.908c-4.428,0-8.017-3.588-8.017-8.017V67.34c0-4.428,3.588-8.017,8.017-8.017
	c4.428,0,8.017,3.588,8.017,8.017v8.551C473.253,80.32,469.664,83.908,465.236,83.908z"/>
<path style="fill:#FF8C29;" d="M386.209,246.523c6.201-10.333,9.548-22.252,9.548-34.348c0-36.837-29.969-66.806-66.806-66.806
	h-76.96c-4.428,0-8.017,3.588-8.017,8.017v32.067c0,4.428,3.588,8.017,8.017,8.017h76.96c10.314,0,18.706,8.392,18.706,18.706
	s-8.392,18.706-18.706,18.706h-76.96c-4.428,0-8.017,3.588-8.017,8.017v32.067c0,4.428,3.588,8.017,8.017,8.017h85.511
	c19.745,0,35.808,16.063,35.808,35.808c0,19.745-16.063,35.808-35.808,35.808h-85.511c-4.428,0-8.017,3.588-8.017,8.017v32.067
	c0,4.428,3.588,8.017,8.017,8.017h85.511c46.267,0,83.908-37.641,83.908-83.908C421.411,287.629,408.114,262.194,386.209,246.523z"
	/>
<path style="fill:#365558;" d="M251.992,512c-4.428,0-8.017-3.588-8.017-8.017V8.017c0-4.428,3.588-8.017,8.017-8.017
	c4.428,0,8.017,3.588,8.017,8.017v495.967C260.008,508.412,256.42,512,251.992,512z"/>
<g>
</g>
<g>
</g>
<g>
</g>
<g>
</g>
<g>
</g>
<g>
</g>
<g>
</g>
<g>
</g>
<g>
</g>
<g>
</g>
<g>
</g>
<g>
</g>
<g>
</g>
<g>
</g>
<g>
</g>
</svg>
