<?xml version="1.0" encoding="utf-8"?>
<!-- Generator: Adobe Illustrator 19.0.0, SVG Export Plug-In . SVG Version: 6.00 Build 0)  -->
<svg version="1.1" id="Layer_1" xmlns="http://www.w3.org/2000/svg" xmlns:xlink="http://www.w3.org/1999/xlink" x="0px" y="0px"
	 viewBox="96 11 512 512" style="enable-background:new 96 11 512 512;" xml:space="preserve">
<style type="text/css">
	.st0{fill:#365558;}
	.st1{display:none;fill:#687F82;}
	.st2{display:none;fill:#365558;}
	.st3{display:none;fill:#F0353D;}
	.st4{fill:#4ACFD9;}
	.st5{fill:#0295AA;}
</style>
<path class="st0" d="M565.7,11H138.3C115,11,96,30,96,53.3v161c0,23.3,19,42.3,42.3,42.3h427.3c23.3,0,42.3-19.1,42.3-42.3v-161
	C608,30,589,11,565.7,11z M558.3,195c0,6.6-5.4,12-12,12H156.9c-6.6,0-12-5.4-12-12V73c0-6.6,5.4-12,12-12h389.4c6.6,0,12,5.4,12,12
	V195z"/>
<path class="st0" d="M311.3,256.7H142.7c-25.7,0-46.7,21-46.7,46.7v173c0,25.7,21,46.7,46.7,46.7h168.7c25.7,0,46.7-21,46.7-46.7
	v-173C358,277.7,337,256.7,311.3,256.7z M309,460.3c0,6.6-5.4,12-12,12H156.9c-6.6,0-12-5.4-12-12V317.7c0-6.6,5.4-12,12-12H297
	c6.6,0,12,5.4,12,12V460.3z"/>
<path class="st0" d="M561.3,256.7H404.7c-25.7,0-46.7,21-46.7,46.7v173c0,25.7,21,46.7,46.7,46.7h156.7c25.7,0,46.7-21,46.7-46.7
	v-173C608,277.7,587,256.7,561.3,256.7z M559.3,460.3c0,6.6-5.4,12-12,12h-128c-6.6,0-12-5.4-12-12V317.7c0-6.6,5.4-12,12-12h128
	c6.6,0,12,5.4,12,12V460.3z"/>
<g id="Layer_1_1_">
	<path class="st1" d="M786.1,187.6L678.4-58c-3-6-8.3-9-13.5-9v283h106.8C784.6,216,792.4,200.1,786.1,187.6z"/>
	<path class="st2" d="M651.6-58L545.9,187.6c-6.1,12.7,1.6,28.4,14.1,28.4h104.9V-67C659.8-67,654.6-63.9,651.6-58z"/>
	<path class="st3" d="M265.6,34.7c-17-16.9-44.5-16.9-61.4,0c-16.9,17-16.9,44.5,0,61.4l425.2,425.2c17,16.9,44.4,16.9,61.4,0
		c16.9-17,16.9-44.5,0-61.4L265.6,34.7z"/>
</g>
<path class="st4" d="M352,56c112.2,0,196.6,0,198.2,0c3.2,0,5.2-1.4,6.4-2.6s24.5-24.5,25.8-25.8s1.6-1.8,1.6-2.6c0-4.7-14-9-19-9
	H352c0,0-212,0-212,0c-5,0-19,4.3-19,9c0,0.8,0.4,1.3,1.6,2.6s24.6,24.6,25.8,25.8s3.3,2.6,6.4,2.6C156.4,56,239.8,56,352,56z"/>
<path class="st5" d="M352,212c-112.2,0-195.6,0-197.2,0c-3.2,0-5.2,1.4-6.4,2.6s-24.5,24.5-25.8,25.8s-1.6,1.8-1.6,2.6
	c0,4.7,14,9,19,9h212c0,0,213,0,213,0c5,0,19-4.3,19-9c0-0.8-0.4-1.3-1.6-2.6s-24.6-24.6-25.8-25.8s-3.3-2.6-6.4-2.6
	C548.6,212,464.2,212,352,212z"/>
<path class="st4" d="M564,144c0,61.7,0,50.6,0,52.2c0,3.2,1.4,5.2,2.6,6.4s24.5,24.5,25.8,25.8s1.8,1.6,2.6,1.6c4.7,0,9-14,9-19v-67
	V57c0-5-4.3-19-9-19c-0.8,0-1.3,0.4-2.6,1.6s-24.6,24.6-25.8,25.8s-2.6,3.3-2.6,6.4C564,73.4,564,99,564,144z"/>
<path class="st5" d="M141,144c0-61.7,0-70.6,0-72.2c0-3.2-1.4-5.2-2.6-6.4s-24.5-24.5-25.8-25.8S110.8,38,110,38c-4.7,0-9,14-9,19
	v87v67c0,5,4.3,19,9,19c0.8,0,1.3-0.4,2.6-1.6s24.6-24.6,25.8-25.8s2.6-3.3,2.6-6.4C141,194.6,141,189,141,144z"/>
<path class="st4" d="M222,301c112.2,0,76.6,0,78.2,0c3.2,0,5.2-1.4,6.4-2.6s24.5-24.5,25.8-25.8s1.6-1.8,1.6-2.6c0-4.7-14-9-19-9
	h-93c0,0-82,0-82,0c-5,0-19,4.3-19,9c0,0.8,0.4,1.3,1.6,2.6s24.6,24.6,25.8,25.8s3.3,2.6,6.4,2.6C156.4,301,194,301,222,301z"/>
<path class="st5" d="M222,477c-112.2,0-65.6,0-67.2,0c-3.2,0-5.2,1.4-6.4,2.6s-24.5,24.5-25.8,25.8s-1.6,1.8-1.6,2.6
	c0,4.7,14,9,19,9h82c0,0,93,0,93,0c5,0,19-4.3,19-9c0-0.8-0.4-1.3-1.6-2.6s-24.6-24.6-25.8-25.8s-3.3-2.6-6.4-2.6
	C298.6,477,334.2,477,222,477z"/>
<path class="st4" d="M314,389c0,61.7,0,70.6,0,72.2c0,3.2,1.4,5.2,2.6,6.4s24.5,24.5,25.8,25.8s1.8,1.6,2.6,1.6c4.7,0,9-14,9-19v-87
	v-87c0-5-4.3-19-9-19c-0.8,0-1.3,0.4-2.6,1.6s-24.6,24.6-25.8,25.8s-2.6,3.3-2.6,6.4C314,318.4,314,344,314,389z"/>
<path class="st5" d="M141,389c0-61.7,0-70.6,0-72.2c0-3.2-1.4-5.2-2.6-6.4s-24.5-24.5-25.8-25.8s-1.8-1.6-2.6-1.6c-4.7,0-9,14-9,19
	v87v87c0,5,4.3,19,9,19c0.8,0,1.3-0.4,2.6-1.6s24.6-24.6,25.8-25.8s2.6-3.3,2.6-6.4C141,459.7,141,434,141,389z"/>
<path class="st4" d="M482,301c112.2,0,66.6,0,68.2,0c3.2,0,5.2-1.4,6.4-2.6s24.5-24.5,25.8-25.8s1.6-1.8,1.6-2.6c0-4.7-14-9-19-9
	h-83c0,0-80,0-80,0c-5,0-19,4.3-19,9c0,0.8,0.4,1.3,1.6,2.6s24.6,24.6,25.8,25.8s3.3,2.6,6.4,2.6C418.4,301,443.3,301,482,301z"/>
<path class="st5" d="M482,477c-112.2,0-63.6,0-65.2,0c-3.2,0-5.2,1.4-6.4,2.6s-24.5,24.5-25.8,25.8s-1.6,1.8-1.6,2.6
	c0,4.7,14,9,19,9h80c0,0,83,0,83,0c5,0,19-4.3,19-9c0-0.8-0.4-1.3-1.6-2.6s-24.6-24.6-25.8-25.8s-3.3-2.6-6.4-2.6
	C548.6,477,594.2,477,482,477z"/>
<path class="st4" d="M564,389c0,61.7,0,70.6,0,72.2c0,3.2,1.4,5.2,2.6,6.4s24.5,24.5,25.8,25.8s1.8,1.6,2.6,1.6c4.7,0,9-14,9-19v-87
	v-87c0-5-4.3-19-9-19c-0.8,0-1.3,0.4-2.6,1.6s-24.6,24.6-25.8,25.8s-2.6,3.3-2.6,6.4C564,318.4,564,344,564,389z"/>
<path class="st5" d="M403,389c0-61.7,0-70.6,0-72.2c0-3.2-1.4-5.2-2.6-6.4s-24.5-24.5-25.8-25.8s-1.8-1.6-2.6-1.6c-4.7,0-9,14-9,19
	v87v87c0,5,4.3,19,9,19c0.8,0,1.3-0.4,2.6-1.6s24.6-24.6,25.8-25.8s2.6-3.3,2.6-6.4C403,459.7,403,434,403,389z"/>
<path class="st0" d="M299.7,253.7h120.7v5.3c0,0-5.3,0-25,0c-19.7,0-36,33.7-35.3,45.7s-4.3,10.3-4,0c0.3-10.3-8.3-48-47-48
	S299.7,253.7,299.7,253.7z"/>
</svg>
