<?xml version="1.0" encoding="utf-8"?>
<!-- Generator: Adobe Illustrator 19.0.0, SVG Export Plug-In . SVG Version: 6.00 Build 0)  -->
<svg version="1.1" id="Layer_1" xmlns="http://www.w3.org/2000/svg" xmlns:xlink="http://www.w3.org/1999/xlink" x="0px" y="0px"
	 viewBox="96 11 512 512" style="enable-background:new 96 11 512 512;" xml:space="preserve">
<style type="text/css">
	.st0{display:none;fill:#9BAAAB;}
	.st1{display:none;}
	.st2{display:inline;}
	.st3{fill:#9BAAAB;}
	.st4{fill:#CDD4D5;}
	.st5{fill:#0295AA;}
	.st6{fill:#FFFFFF;}
	.st7{fill:#E6EAEA;}
	.st8{fill:#4ACFD9;}
	.st9{fill:#FFD1A9;}
	.st10{fill:#FF8C29;}
	.st11{fill:#FD6A33;}
	.st12{fill:#687F82;}
	.st13{display:inline;fill:#365558;}
	.st14{fill:#365558;}
	.st15{fill:#F0353D;}
	.st16{fill:#BCD643;}
</style>
<polygon class="st0" points="960,-129.5 779,-59.5 598,-129.5 779.5,-200.5 "/>
<g id="Layer_3_1_" class="st1">
	<polygon class="st2" points="1591,-635.4 1079,-635.4 1079,-122.6 1192.9,-122.6 1192.9,-515.5 1383,-515.5 1383,-122.6 
		1591,-122.6 	"/>
	<rect x="1192.9" y="-515.5" class="st2" width="190.1" height="392.9"/>
</g>
<path id="SVGCleanerId_0_3_" class="st0" d="M1152.1-209h-71.9l78.3,85.8V-202C1158.5-205.9,1155.7-209,1152.1-209z"/>
<path class="st3" d="M364.6,12.9h-58.6c-2.4,0-4.5,2.2-4.5,4.9v50.9C317.8,45.5,339.4,26.3,364.6,12.9z"/>
<path class="st4" d="M323.8,42.6h-64.3c-2.4,0-4.5,2.2-4.5,4.9v161.3l27.1,29.7c-8.4-20.7-13-43.4-13-67.1
	C269.1,120.9,290.1,75.2,323.8,42.6z"/>
<path class="st5" d="M286.2,82.3c-2.4,0-4.5,2.2-4.5,4.9c0,2.8,2,5,4.5,5h1.5c1.7-3.4,3.4-6.7,5.3-9.9H286.2z"/>
<path class="st6" d="M285.4,245.9v27.6c3.8,1,7.4,2.6,10.5,4.9l5.1-5.1C295,264.7,289.8,255.5,285.4,245.9z"/>
<path class="st6" d="M346,318.6l-0.3,0.3h0.8C346.3,318.8,346.2,318.7,346,318.6z"/>
<path class="st6" d="M285.4,273.5V289l10.5-10.5C292.7,276.2,289.1,274.5,285.4,273.5z"/>
<path class="st6" d="M285.4,92.2v4.7c0.7-1.6,1.5-3.2,2.3-4.7L285.4,92.2z"/>
<path class="st7" d="M285.3,245.7c-10.3-22.6-16.1-47.8-16.1-74.3s5.8-51.6,16.1-74.3v-5h-82.1c-2.4,0-4.5,2.2-4.5,4.9v161.3
	l37.8,41.5l17.8-17.8c6.2-6.2,14.3-9.6,23-9.6c2.7,0,5.4,0.3,8,1V245.7z"/>
<path class="st5" d="M229.8,132c-2.4,0-4.5,2.2-4.5,4.9c0,2.7,2,5,4.5,5h41.8c0.6-3.3,1.2-6.6,1.9-9.9H229.8z"/>
<path class="st5" d="M229.8,174.3c-2.4,0-4.5,2.2-4.5,4.9s2,5,4.5,5h39.8c-0.2-3.3-0.4-6.6-0.4-10L229.8,174.3z"/>
<path class="st5" d="M229.9,216.5c-2.6,0.1-4.5,2.3-4.5,5c0,2.8,2,5,4.5,5h47.9c-1.1-3.3-2-6.6-2.9-10H229.9z"/>
<path class="st5" d="M285.5,258.8h-55.6c-2.6,0-4.5,2.3-4.5,5c0,2.8,2,5,4.5,5h55.6V258.8z"/>
<path class="st8" d="M291.8,258.7h-6.5v10h12.5C295.7,265.4,293.7,262.1,291.8,258.7z"/>
<path class="st8" d="M448.6,350.9c-36.5,0-70.5-11-98.8-29.7v87.7h90.1c26.7,0,26.7-31.5,26.7-55.5l2-3.6
	C462,350.5,455.3,350.9,448.6,350.9z"/>
<path class="st5" d="M341.1,323.5c4.2,5.6,6.4,12.3,6.4,19.4c0,8.7-3.4,16.9-9.6,23l-42.9,42.9h54.8v-87.6c-1.3-0.9-2.6-1.7-3.8-2.6
	L341.1,323.5z"/>
<path class="st5" d="M269.2,173.8h-91.6c-14.7,0-26.7,12-26.7,26.7l50.7,134.3l52.8-52.7c6.2-6.2,14.3-9.6,23-9.6
	c6.7,0,13.2,2.1,18.6,5.9l5.1-5.1C281.3,245,269.6,210.7,269.2,173.8z"/>
<path class="st9" d="M276.5,448.8c22.1,0,40-17.9,40-40c0-6.2-1.4-12.1-4-17.4l-53.4,53.4C264.3,447.4,270.2,448.8,276.5,448.8z"/>
<path class="st10" d="M276.5,431.6c12.6,0,22.8-10.2,22.8-22.8c0-1.3-0.1-2.6-0.3-3.8l-26.3,26.3
	C273.9,431.5,275.1,431.6,276.5,431.6z"/>
<path class="st9" d="M403.3,448.8c-22.1,0-40-17.9-40-40s17.9-40,40-40c22.1,0,40,17.9,40,40S425.4,448.8,403.3,448.8z"/>
<circle class="st10" cx="403.3" cy="408.8" r="22.8"/>
<path class="st11" d="M278.2,227.6H161.1l14,37h120.2C288.2,253.1,282.5,240.7,278.2,227.6z"/>
<path class="st10" d="M148.7,449.1h-42.4c-5.7,0-10.3,4.7-10.3,10.3v18.7c0,5.7,4.7,10.3,10.3,10.3H197c-6.9-1-13.5-4.3-18.4-9.3
	L148.7,449.1z"/>
<path class="st10" d="M597.8,449.1h-343l-30.1,30.1c-5,5-11.4,8.2-18.3,9.2h391.2c5.7,0,10.3-4.6,10.4-10.3v-18.7
	C608,453.7,603.3,449.1,597.8,449.1z"/>
<g>
	<path class="st12" d="M194,488.3h-34c-3.5,0-6.4,2.9-6.4,6.4v20.1c0,3.5,2.9,6.4,6.4,6.4h34c3.5,0,6.3-2.9,6.4-6.4v-20.1
		C200.4,491.2,197.5,488.3,194,488.3z"/>
	<path class="st12" d="M310.6,488.3h-33.9c-3.5,0-6.4,2.9-6.4,6.4v20.1c0,3.5,2.9,6.4,6.4,6.4h33.9c3.5,0,6.4-2.9,6.4-6.4v-20.1
		C317,491.2,314.1,488.3,310.6,488.3z"/>
	<path class="st12" d="M427.3,521.2h-33.9c-3.5,0-6.4-2.9-6.4-6.4v-20.1c0-3.5,2.9-6.4,6.4-6.4h33.9c3.5,0,6.4,2.9,6.4,6.4v20.1
		C433.7,518.3,430.8,521.2,427.3,521.2z"/>
	<path class="st12" d="M544,521.2h-34c-3.5,0-6.4-2.9-6.4-6.4v-20.1c0-3.5,2.9-6.4,6.4-6.4h34c3.5,0,6.4,2.9,6.4,6.4v20.1
		C550.3,518.3,547.5,521.2,544,521.2z"/>
</g>
<g class="st1">
	<path class="st13" d="M378.3,225.4c-4-4-10.3-4-14.4,0c-4,4-4,10.4,0,14.4l27.1,27.1c2,2,4.7,2.9,7.2,2.9c2.7,0,5.2-0.9,7.2-2.9
		c4-4,4-10.4,0-14.4L378.3,225.4z"/>
	<path class="st13" d="M389.3,182.1c-4-4-10.4-4-14.4,0c-4,4-4,10.4,0,14.4l29.8,29.8c2,2,4.7,2.9,7.2,2.9c2.7,0,5.2-0.9,7.2-2.9
		c4-4,4-10.4,0-14.4L389.3,182.1z"/>
</g>
<g>
	<g>
		<path class="st3" d="M573.7,171.9c0-49.9-29.5-93-71.9-112.8l-52.5,0.1v237.1C517.9,296.3,573.7,240.5,573.7,171.9z"/>
		<path class="st14" d="M547.2,129.2h-98.1v17.5h98.1c4.4,0,7.9-3.9,7.9-8.6C555.1,133.1,551.6,129.2,547.2,129.2z"/>
		<path class="st14" d="M547.2,203.8v-0.2h-98.1v17.6h98.1c4.4,0,7.9-3.7,7.9-8.6C555.1,207.7,551.6,203.8,547.2,203.8z"/>
		<path class="st14" d="M449.1,278.4v17.6h7.5c20.7-1.2,40-7.5,56.8-17.6H449.1z"/>
		<path class="st4" d="M449.3,47.5c-31.5,0-60.3,11.8-82.2,31.1v186.5c21.9,19.4,50.7,31.2,82.2,31.2c31.3,0,60-11.6,81.9-30.8V78.3
			C509.3,59.1,480.6,47.5,449.3,47.5z"/>
		<path class="st5" d="M467.4,48.8c-5.9-0.9-11.9-1.3-18.1-1.3c-6.9,0-13.6,0.6-20.1,1.6h36C465.9,49.1,466.7,49,467.4,48.8z"/>
		<path class="st5" d="M465.2,106.3h-98.1v17.6h98.1c4.4,0,7.9-3.9,7.9-8.8C473.1,110.2,469.6,106.3,465.2,106.3z"/>
		<path class="st5" d="M465.2,180.7h-98.1v17.6h98.1c4.4,0,7.9-3.7,7.9-8.6C473.1,184.8,469.6,180.9,465.2,180.7z"/>
		<path class="st7" d="M324.9,171.9c0.1,68.5,55.8,124.3,124.2,124.4V47.5C380.6,47.6,324.9,103.3,324.9,171.9z"/>
		<path class="st8" d="M390.9,92.2c0-4.9-3.5-8.8-7.9-8.8h-21c-5.4,5.4-10.4,11.2-14.7,17.5H383C387.4,100.8,390.9,96.9,390.9,92.2z
			"/>
		<path class="st8" d="M390.9,166.6c0-4.9-3.5-8.8-7.9-8.8v-0.2l-57.3,0.1c-0.5,4.7-0.8,9.4-0.8,14.2c0,1.2,0,2.4,0.1,3.5h58
			C387.4,175.4,390.9,171.5,390.9,166.6z"/>
		<path class="st8" d="M390.9,241.4c0-4.9-3.5-8.8-7.9-9h-42.3c3.5,6.2,7.5,12.1,12,17.6H383C387.4,250,390.9,246.2,390.9,241.4z"/>
		<path class="st6" d="M345.9,102.8c-13.2,19.8-21,43.5-21,69.1c0,27.9,9.3,53.7,24.9,74.5V110.5
			C349.8,107.2,348.2,104.4,345.9,102.8z"/>
		<path class="st8" d="M349.2,245.6c22.7,30.7,59.1,50.7,100,50.7c41,0,77.5-20,100.1-50.7H349.2z"/>
	</g>
	<path class="st14" d="M293.5,309.5c-4.9,4.9-4.9,12.8,0,17.7c2.6,2.5,5.7,3.7,8.9,3.7s6.5-1.2,8.8-3.7l6.1-6.1l-17.7-17.7
		L293.5,309.5z"/>
	<path class="st14" d="M353,285.5c4.9-4.9,4.9-12.8,0-17.7c-4.9-4.9-12.8-4.9-17.7,0l-9.4,9.4l17.7,17.7L353,285.5z"/>
	
		<rect x="303" y="286.6" transform="matrix(0.7071 -0.7071 0.7071 0.7071 -117.3344 315.0138)" class="st14" width="37.1" height="25.1"/>
	<path class="st14" d="M449.3,12c-87.9,0-159.4,71.6-159.4,159.4s71.6,159.4,159.4,159.4s159.4-71.6,159.4-159.4S537.2,12,449.3,12z
		 M449.3,295.9c-68.5,0-124.3-55.9-124.4-124.4c0-68.6,55.8-124.4,124.4-124.4s124.4,55.8,124.4,124.4S517.9,295.9,449.3,295.9z"/>
	<path class="st8" d="M286.8,296.2c-2.3-2.4-5.5-3.7-8.8-3.7s-6.5,1.3-8.8,3.7L155.8,409.5c-2.3,2.4-3.6,5.5-3.6,8.9
		c0,3.3,1.3,6.5,3.7,8.8l37.8,37.8c2.4,2.5,5.6,3.7,8.8,3.7c3.1,0,6.4-1.2,8.8-3.7l113.3-113.3c4.9-4.9,4.9-12.8,0-17.7L286.8,296.2
		z"/>
	<path class="st6" d="M193.4,407.4c-4.9-4.9-4.9-12.8,0-17.7l60.1-60.1c4.9-4.9,12.8-4.9,17.7,0c4.9,4.9,4.9,12.8,0,17.7l-60.1,60.1
		c-2.4,2.5-5.6,3.7-8.8,3.7C199.1,411.1,195.8,409.8,193.4,407.4z"/>
	<path class="st6" d="M498.2,240.6c-2.8-0.5-5.6,0.1-8,2.1c-12.5,10.5-29,15.1-45.1,12.3c-5.2-0.9-10.3,2.7-11.3,7.9
		c-0.9,5.2,2.7,10.3,7.9,11.3c21.9,3.8,44.1-2.2,61-16.5c4.1-3.5,4.6-9.6,1.1-13.8C502.4,242.1,500.5,241.1,498.2,240.6z"/>
</g>
<rect x="-497" y="11" class="st15" width="128" height="128"/>
<rect x="-369" y="11" class="st11" width="128" height="128"/>
<rect x="-241" y="11" class="st10" width="128" height="128"/>
<rect x="-113" y="11" class="st9" width="128" height="128"/>
<rect x="-497" y="139" class="st14" width="128" height="128"/>
<rect x="-369" y="139" class="st5" width="128" height="128"/>
<rect x="-241" y="139" class="st8" width="128" height="128"/>
<rect x="-497" y="267" class="st3" width="128" height="128"/>
<rect x="-369" y="267" class="st4" width="128" height="128"/>
<rect x="-241" y="267" class="st7" width="128" height="128"/>
<rect x="-113" y="267" class="st6" width="128" height="128"/>
<rect x="-497" y="395" class="st16" width="128" height="128"/>
</svg>
