<?xml version="1.0" encoding="utf-8"?>
<!-- Generator: Adobe Illustrator 19.0.0, SVG Export Plug-In . SVG Version: 6.00 Build 0)  -->
<svg version="1.1" id="Layer_1" xmlns="http://www.w3.org/2000/svg" xmlns:xlink="http://www.w3.org/1999/xlink" x="0px" y="0px"
	 viewBox="-49 141 512 512" style="enable-background:new -49 141 512 512;" xml:space="preserve">
<style type="text/css">
	.st0{display:none;}
	.st1{display:inline;}
	.st2{fill:#CDD4D5;}
	.st3{fill:#E6EAEA;}
	.st4{fill:#4ACFD9;}
	.st5{fill:#0295AA;}
	.st6{fill:#FFFFFF;}
	.st7{fill:#FF8C29;}
	.st8{fill:#FD6A33;}
	.st9{fill:#9BAAAB;}
	.st10{fill:#365558;}
	.st11{fill:#687F82;}
</style>
<g id="Layer_3" class="st0">
	<rect x="1049" y="-422.4" class="st1" width="512" height="512.8"/>
</g>
<g>
	<g>
		<g>
			<g>
				<path class="st2" d="M228.8,336.1c-1.5,0.4,0.3,1.7,1.1,2.2c12.7,5.6,24,11.4,34.9,18.9c22.3,14.6,43.9,30.4,68.6,40.3
					c0.5-0.1,0.9-0.5,0.9-0.9c1.1-11,2.3-22.1,3.4-33.1c-17.1-6.2-33.9-16.4-50.3-27c-12.9-8.7-26.5-15.7-41.2-20.9
					c-4,4-7,8.8-11.3,12.6C232.7,330.9,230.1,333.2,228.8,336.1L228.8,336.1z"/>
			</g>
			<g>
				<path class="st3" d="M264,295c-5.6,7.1-12.5,13.5-17.8,20.8c10.3,3.2,19.8,8.1,28.6,13.4c18.3,10.5,35.2,23.7,55,31.1
					c0.7,0.4,1.4,0.7,2.1,1.1c1.1,0.2,2.5,1,3.6,1.2c0.7,0.4,1.4,0.7,2.1,1.1c0.8-11.5,2.9-22.1,3.1-33.9c-0.3-0.5-0.8-1.1-1.1-1.2
					c-8.9-2.1-17-5.8-25.2-10.2c-15.7-9.1-29.8-18.7-47.8-23.8C265.8,294.3,264.8,294.5,264,295L264,295z"/>
			</g>
			<g>
				<path class="st4" d="M275.2,308.1c-0.6-0.3-1.3-0.6-1.5-0.1c-2.3,3.5-4.9,6.8-8.2,9.8c-1.7,1.9-2.3,4.1-3.3,6.4
					c1.4,0.7,2.5,1.3,3.9,2.1c0.5-1.6,1.3-3.4,2.1-4.8c2.9-3.2,6-6,7.8-9.7C276.1,310.6,277.6,308.9,275.2,308.1L275.2,308.1z"/>
			</g>
			<g>
				<path class="st4" d="M290.3,315.2c-1-1.1-1.9,0-2.2,0.5c-1,3.6-3.2,6.4-5.2,9.5c-2,2.2-3.2,4.7-3.8,7.6c1.4,0.7,2.8,1.5,4.2,2.2
					c0.3-4.4,2.7-7.6,5.5-11c1.3-1.9,2.4-4.3,2.7-6.7C291.8,317,291.9,315.8,290.3,315.2L290.3,315.2z"/>
			</g>
			<g>
				<path class="st4" d="M305.3,322.5c-0.2-0.4-0.9-0.5-1.5-0.1c-0.6,1.7-0.8,3.2-1.7,4.7c-1.8,5-5.6,8.9-5.7,14.8
					c1.4,0.7,2.5,1.3,3.9,2.1c0.4-2.5,0.5-5,1.6-7.2c2.2-4.2,5.2-7.6,5.1-13C306.8,323.2,306.3,322.6,305.3,322.5L305.3,322.5z"/>
			</g>
			<g>
				<path class="st4" d="M320.6,329.8c-0.6-0.3-1.3-0.6-1.4,0c-1.1,4.5-2.5,8.9-4.6,12.9c-1,2.5-0.9,5.3-1.2,8.1
					c1.4,0.7,2.5,1.3,3.9,2.1c-0.3-2.2,0.5-4.2,0.9-6c1-4.6,3.2-8.2,3.9-13C321.9,332.9,322.8,330.5,320.6,329.8L320.6,329.8z"/>
			</g>
			<g>
				<g>
					<path class="st5" d="M251.4,339.3c-0.3,0.5-0.2,1.1,0.8,2.1c0.8,0.5,1.7,1.6,3,1.1c1.3-1.2,0.9-3,2.1-4.2
						c3.4-3.8,7.9-7.2,8.6-12.1c-1.4-0.7-2.5-1.3-3.9-2.1c-0.9,2.1-1.3,4-2.8,5.7C256.3,332.9,252.6,335.2,251.4,339.3L251.4,339.3z
						"/>
				</g>
				<g>
					<path class="st5" d="M270.1,349.7c0.1,1.7,1.6,2.8,3.3,3.4c0.5-0.1,1.1-0.3,1.4-0.9c0.8-3.8,3-6.5,5.4-9.5
						c1.6-2.4,2.3-5,3.1-7.8c-1.4-0.7-2.8-1.5-4.2-2.2c0.2,2.3-0.8,4.4-2.2,6.2C274.3,342.6,272.1,346,270.1,349.7L270.1,349.7z"/>
				</g>
				<g>
					<path class="st5" d="M291.2,363.1c0.8,0.5,2,1.1,1.8,0.3c1.4-4.2,3.2-8.3,5.8-11.9c1.1-2.1,1.2-5,1.6-7.5
						c-1.4-0.7-2.5-1.3-3.9-2.1c-0.5,2.7-1.2,5.7-2.5,7.9c-1.9,2.6-3.8,5.6-4.6,8.8C289.6,359.8,288.4,361.8,291.2,363.1
						L291.2,363.1z"/>
				</g>
				<g>
					<path class="st5" d="M310.5,373.8c0.3,0.5,1.2,0.7,1.7,0.3c0.4-1.9,0.3-3.6,1.1-5.2c1.2-5.5,4.6-9.9,3.9-16
						c-1.4-0.7-2.5-1.3-3.9-2.1c-0.2,2.6,0,5.1-0.9,7.3c-1.9,4.4-4.9,7.9-4.2,13.8C308.5,372.7,309.2,373.5,310.5,373.8L310.5,373.8
						z"/>
				</g>
			</g>
		</g>
	</g>
	<g>
		<g>
			<g>
				<path class="st2" d="M257.2,241c-0.1,0.7-0.7,0.9-0.3,1.5c4.2,3.4,8.1,5.4,12.9,7.9c19.9,14,34.6,30.1,50.7,46.6
					c8.5,9.3,16.5,17.4,24.8,26.2l1,0.5c1.9,2.3,4.5,6.4,5.4,4.2c1.5-2.4,3.2-5.6,4.4-9.3c3.2-5.7,6.4-12.2,10.1-18.1
					c-19-21.1-36-45.8-56.2-68.3c-9.4-8.9-19.4-16.7-30.3-24.1C271.9,219.6,263.9,230.3,257.2,241L257.2,241z"/>
			</g>
			<g>
				<path class="st3" d="M305.1,171.5c-3.8,4.4-7.2,9.4-11.4,13.9c-5.3,7.8-11.9,14-15.8,21.9c10,5.6,19.3,13,27.2,20.9
					c22.5,23.1,39.9,49.7,60,70.5c5.1-9.3,11-19,17.5-28.3c2.1-2.8,1.9-5.8-0.5-8.7c-15.4-17.4-26.4-39.5-41.6-59.3
					c-1.9-2.3-3.4-5.4-6.1-8.1c-1.7-1.6-3.4-3.1-4.6-4.9c-0.8-0.5-1.8-1.5-2.5-2c-1-1.1-1.2-1.8-2.2-2.8c-6.2-5-11.5-10.4-18.1-13.7
					C306.3,171,305.7,171.2,305.1,171.5L305.1,171.5z"/>
			</g>
			<g>
				<path class="st4" d="M315.1,199.2c-2.1-2.1-3.8,1.5-4.7,2.5c-1.2,3.3-3.6,6.4-5.8,8.7c-4.3,3-6.9,8.3-9.6,12.9
					c1.1,1.1,2.5,2.6,4.2,3.5c3.2-4.8,6.3-10.2,10.8-14c2.7-2.5,4.4-6,6.1-9.5C316.8,202.2,316.8,200.8,315.1,199.2L315.1,199.2z"/>
			</g>
			<g>
				<path class="st4" d="M331.7,215.1c-1.3-0.3-2.5-0.5-2.8,0.3c-3.5,7.8-9.4,12.1-13.6,18.6c-0.5,1.6-0.9,3.2-1.9,5
					c1.5,0.9,2.8,2.6,3.9,3.7c2.3-7.9,8.9-11,13-18.2C331.2,221.8,335,219.8,331.7,215.1L331.7,215.1z"/>
			</g>
			<g>
				<path class="st4" d="M347.9,232.2c-0.7-0.5-1.4-1-1.4-1c-3.2,3.3-4.8,8.2-7.9,11.5c-4.2,2.8-6.1,7.8-8.5,12.2
					c1.3,1.7,2.6,2.7,3.8,4.5c1.9-4.2,3.7-9.1,7.9-11.9c2.6-3,4.6-6.6,6.8-11.1C349.4,235.3,349.4,233.8,347.9,232.2L347.9,232.2z"
					/>
			</g>
			<g>
				<path class="st4" d="M362.4,250.1c-0.8-1.2-1.9-1.6-2.6-0.6c-2.5,8.1-8.5,10.7-12,17.6c-0.4,1.6-1.7,3.4-1.2,4.7
					c0.1,1.4,1.6,3.1,2.9,4.1c0.2-0.8,0.4-1.5,0.6-2.3c3.6-6.2,8.5-9.9,12-17.6C362.8,255.2,364.9,254.4,362.4,250.1L362.4,250.1z"
					/>
			</g>
			<g>
				<g>
					<path class="st5" d="M281.2,246.5c1.5,1.6-1.1,3.2,3.7,4.3c4.1-8.4,11.3-13.8,14.9-23.6c-1.6-0.9-3-2.5-4.2-3.5
						c-1,1.8-1.4,3.4-1.9,5C290.2,235.7,282.9,238.9,281.2,246.5L281.2,246.5z"/>
				</g>
				<g>
					<path class="st5" d="M300.4,261c-0.1,0.7-0.3,1.5,0.1,2.1c0.7,1.2,3.2,3.8,4,1.5c2.6-6.5,7.8-10.3,11.5-16.5
						c0.9-1.7,1.3-3.3,2.2-5c-1.5-0.9-3-1.9-4.4-3.5C310.3,247.9,304.1,253.5,300.4,261L300.4,261z"/>
				</g>
				<g>
					<path class="st5" d="M319.6,280.8c0.7,0.5,1.5,0.9,1.9,0.8c2.9-5.1,6.2-9.7,9.9-15c1-2.5,3.4-3.9,2.8-6.6
						c-0.1-1.4-2.2-2.8-3.4-4.6c-1.8,5.6-5,10.1-8.3,14C320,271.5,316.4,275.5,319.6,280.8L319.6,280.8z"/>
				</g>
				<g>
					<path class="st5" d="M336.5,297.4c0.7,0.5,0.9,1.1,1.3,1c0.8-0.2,1-1.7,1.3-3.1c3.2-7.2,8.5-10.9,11.1-18.8
						c-1.3-1.1-2.6-2.1-3.8-3.9c-1.8,7.7-6.6,10.5-9.7,16.4c-1.1,1.7-2.1,3.4-1.8,6.1C335.2,295.7,336.2,296.8,336.5,297.4
						L336.5,297.4z"/>
				</g>
			</g>
		</g>
	</g>
	<g>
		<g>
			<g>
				<path class="st2" d="M328,177c-2.5,1.4,1.8,4.2,3.6,6c20.9,17.7,36.6,35.2,53.3,54.1c3,3,5.8,6.2,8.9,9.3
					c1.9,1.9,3.7,4.5,5.6,6.3c16.4,16.6,32.7,32.5,50.4,49.4c1.3,1.2,2.5,2.4,2.6,2.3c1.1-1.2,2.2-2.4,3.3-3.6
					c-9.3-14.8-18.4-29.9-27.1-45.1c-16.5-30.6-30-61.9-52-91C361.8,170.8,343.7,172.3,328,177L328,177z"/>
			</g>
			<g>
				<path class="st3" d="M425.4,153c-16.2,4.1-32.9,6.9-48.8,11.7c15.4,20.2,27,42.1,37.4,64.5c1.9,3.3,3.5,6.7,5.4,9.9
					c1.1,2,2.1,4.8,3.3,6.8c8,13.8,16.1,27.7,24.6,41.3c2.8,4.6,5.6,9.1,8.3,13.6c1.1-1.2,2.2-2.4,3.2-3.5c0.2-0.2-0.8-4.4-1.3-6.4
					c-7.8-29-12.2-58.5-17.5-87.6c-2.5-17.2-5.1-33.5-12-49.6C427.5,153.2,426.7,152.7,425.4,153L425.4,153z"/>
			</g>
			<g>
				<path class="st4" d="M421.8,183.7c-0.9-1.3-1.9-2.5-3-2.2c-5.2,2.9-11.9,3.2-18.3,3.4c-4,0.3-6.5,2.5-10.1,3.4
					c1.1,2,2.3,4,3.4,5.9c6.1-2.4,12.9-3.5,19.9-3.8C416.7,189.6,422.6,189.5,421.8,183.7L421.8,183.7z"/>
			</g>
			<g>
				<path class="st4" d="M430.4,210.6c-0.2-0.7-1.3-2.6-1.7-2.5c-4.4,0.5-8.6,2.5-13.1,3c-4-0.4-7.8,0.7-10.3,2.9
					c1.1,2,2.3,4,3.4,5.9c1.2-1.9,3.1-1.7,5.1-2.3c5.2-2.3,12.3,0.2,16.6-4C430.7,212.8,430.2,211.4,430.4,210.6L430.4,210.6z"/>
			</g>
			<g>
				<path class="st4" d="M438.7,236.8c-0.7-1.3-1.5-2.6-2.1-2.4c-2.8,2.5-7,2.2-10.9,1.9c-2.5,0-4.7,0.7-5,3.9
					c0.1,0.7,1.5,2.6,2.6,4.6c3.3-1.9,7.3-2.4,11.5-2.3C436.4,242.2,439.9,242.5,438.7,236.8L438.7,236.8z"/>
			</g>
			<g>
				<path class="st4" d="M447.2,263.7c-0.2-0.7-1.1-2.6-1.3-2.6c-2.2,0.1-4,1.6-6.3,1.7c-2.3-0.7-4-0.1-4.9,1.9c1.1,2,2.3,4,3.4,5.9
					c0.7-1.9,2.1-2.5,3.8-2.4c2.3,0.7,4-0.1,5.7-0.7C448,267.3,447.9,265.8,447.2,263.7L447.2,263.7z"/>
			</g>
			<g>
				<g>
					<path class="st5" d="M362.2,195.9c-1.6,0.4,0.1,2.3,0.7,3.7c1.1,1.3,3.2,2.3,4.2,2c4.4-2.7,11.5-3.1,17.8-3.2
						c3.8-0.3,6.4-1.7,9.1-4c-1.1-2-2.3-4-3.4-5.9c-3.4,3.2-8.5,3.8-14.6,3.9C370.6,192.9,365.9,193.3,362.2,195.9L362.2,195.9z"/>
				</g>
				<g>
					<path class="st5" d="M382.5,219.7c-1.3,0.3,0.4,2.3,1.1,3.6c0.5,0.6,1.7,1.9,3,2.3c1.6-0.5,2.6-1.5,4.7-1.4
						c5.8-1.7,13-0.7,17.6-4.3c-1.1-2-2.3-4-3.4-5.9c-2.5,2.3-5.8,3.2-9.9,2.8C390.8,217.4,386.7,218.5,382.5,219.7L382.5,219.7z"/>
				</g>
				<g>
					<path class="st5" d="M404.8,247.7c1.4,1.1,2.7,2.3,3.3,2.1c2.1-2.3,6.4-2.1,10.4-1.9c2.3,0,3.6-1.2,4.7-3.1
						c-1.1-2-2.3-4-3.4-5.9c-1.1,1.9-2.5,3.1-5,3.1c-4.6-0.1-10.5-1.4-11.7,2.9C403.5,245.7,404.6,247,404.8,247.7L404.8,247.7z"/>
				</g>
				<g>
					<path class="st5" d="M425.6,271.5c0.5,0.6,2.4,2.5,2.5,2.4c2.3-0.1,3.6-1.5,5.8-1.6c2.3,0.7,3.7,0.1,4.3-1.8
						c-1.1-2-2.3-4-3.4-5.9c-0.7,1.9-2.7,1.9-4.2,2.5c-0.6,0.2-2.1-0.9-2.7-0.6c-1.6,0.6-4.2-0.1-4,2.4
						C424.1,269.6,425.2,270.9,425.6,271.5L425.6,271.5z"/>
				</g>
			</g>
		</g>
	</g>
	<g>
		<path class="st2" d="M482.8,304.2c-2.5-2.5-4.7-4.9-7-7.3c-0.3-0.3-0.8-0.5-1.1-0.5c-3.5,0.6-7,1.3-10.9,2
			c-2.1-5.1-4.1-10.3-6.2-15.6c2.6-1.7,5-3.4,7.5-4.9c1.9-1.1,2.6-2.1,2.3-4.4s0.1-4.8,0.2-7.1c0-0.4-0.3-0.9-0.7-1.1
			c-2.6-1.9-5.1-3.7-7.8-5.4c-0.8-0.5-1.1-1-0.8-1.9c1.2-3.1,2.4-6.2,3.6-9.3c0.5-1.3,1.1-2.5,1.8-3.7c0.5-0.9,0.9-1.7,2.5-1.2
			c2.9,0.9,6,1.3,8.9,1.8c0.4,0.1,1.1-0.1,1.4-0.3c2.2-2.1,4.6-4,6.6-6.3c0.6-0.7,0.3-2.4,0.1-3.5c-0.4-2.5-1.1-5-1.5-7.5
			c-0.1-0.4,0.5-1.1,0.9-1.4c2.8-1.3,5.7-2.6,8.5-3.7c1.7-0.7,3.4-1.3,5.2-1.7c0.4-0.1,1.3,0.3,1.5,0.7c1.7,2.6,3.2,5.2,5,7.8
			c0.4,0.5,1.3,0.7,2.1,0.8c2.7,0.1,5.5,0.2,8.3,0.2c0.5,0,1.2-0.4,1.5-0.7c1.9-2.5,3.6-5.1,5.4-7.8c0.4-0.6,0.7-0.9,1.5-0.7
			c3.1,1.2,6.3,2.3,9.3,3.6c1.6,0.7,2.9,1.7,4.5,2.3c1,0.4,0.9,1.1,0.7,1.9c-0.7,3.1-1.3,6.2-1.9,9.3c-0.1,0.4,0.1,1.1,0.4,1.3
			c1.9,2.1,3.9,4,5.9,6c0.7,0.7,1.1,1,2.3,0.7c3.2-0.7,6.6-1.2,10.3-1.9c2.1,5.1,4.1,10.3,6.3,15.6c-2.9,1.9-5.5,3.6-8.3,5.2
			c-1.1,0.7-1.8,1.3-1.7,2.9c0.2,2.5,0,5.1-0.1,7.6c-0.1,1,0.2,1.7,1.1,2.2c2.6,1.7,5.1,3.3,7.6,5c0.3,0.2,0.7,0.9,0.7,1.1
			c-1.6,4-3.2,7.9-4.8,11.8c-0.3,0.7-0.9,1.3-1.1,2c-0.4,1.3-1.1,1.2-2.2,1c-2.8-0.7-5.6-1.3-8.5-1.7c-0.7-0.1-1.7,0.1-2.3,0.7
			c-2,1.9-3.7,4-5.8,5.7c-0.9,0.7-0.9,1.4-0.7,2.2c0.5,3,1.3,6,1.7,9.1c0.1,0.5-0.7,1.4-1.2,1.7c-1.5,0.9-3.1,1.7-4.8,2.3
			c-3.2,1.2-6.4,2.3-9.6,3.4c-2-3.2-3.7-6-5.6-8.9c-0.3-0.5-0.9-0.9-1.9-0.8c-2.8,0.2-5.8-0.1-8.6-0.1c-0.6,0-1.3,0.5-1.7,0.9
			c-1.7,2.3-3.2,4.6-4.8,7c-0.7,1-1.1,1.3-2.5,0.9c-4.9-1.4-9.3-3.5-13.5-6c-0.3-0.1-0.6-0.9-0.5-1.3
			C481.3,310.8,482.1,307.4,482.8,304.2z M478.1,283.6c5.7,15.3,24,25.8,42.5,18.3c18.7-7.6,24-27.5,18.3-42.1
			c-6.1-15.8-24.6-25.6-42.4-18.5C478.5,248.1,471.5,268.2,478.1,283.6z"/>
		<path class="st5" d="M478.1,283.6c-6.6-15.4,0.4-35.4,18.3-42.5c17.8-7,36.4,2.9,42.4,18.5c5.7,14.7,0.4,34.6-18.3,42.1
			C502.1,309.3,483.8,298.9,478.1,283.6z M515.1,288.1c8.7-3.4,14-13.4,10-23.2c-4.2-10.7-15.6-13.1-23.2-10.1
			c-7.8,3-14.1,12.7-10.1,23.3C495.4,287.3,505.9,291.8,515.1,288.1z"/>
		<path class="st6" d="M526.2,256.5c-0.9,0-1.7-0.4-2.2-1.1c-3.2-3.8-7.8-6-12.7-6c-1.7,0-2.9-1.3-2.9-2.9s1.3-2.9,2.9-2.9
			c6.6,0,12.9,2.9,17.2,8.1c1.1,1.2,0.9,3-0.4,4.1C527.6,256.3,526.9,256.5,526.2,256.5z"/>
	</g>
	<g>
		<path class="st7" d="M521.5,418c0.8-2.6,2.2-3.2,4.4-3.5c5.4-0.9,10.7-2,16.4-3c0-9.8,0-19.3,0-28.8c-6.3-1.4-11.9-2.8-17.6-3.6
			c-1.9-0.3-2.6-1.2-3.2-2.6c-1.9-4.4-3.8-8.8-5.5-13.2c-0.3-0.7-0.1-1.7,0.3-2.4c2.9-4.6,5.9-9.1,8.9-13.5c0.7-1.1,1.3-2.1,0-3.4
			c-2.1-2.1-3.6-4.6-5.7-6.6c-4.2-4-8.4-7.8-12.6-11.7c-1.1-1-1.8-0.7-2.8,0.1c-4.5,3-8.9,6-13.5,8.8c-0.8,0.5-2.1,0.6-2.9,0.3
			c-4.4-1.7-8.7-3.6-13.1-5.6c-1.1-0.5-2.5-1.5-2.7-2.5c-1.1-5.2-1.9-10.4-3-15.5c-0.1-0.8-1.2-1.9-2-2c-3.1-0.4-6.2-0.6-9.3-0.5
			c-1.2,0-2.4,0.1-3.6,0.1v32.4c0.1,0,0.2,0,0.3,0c32.9,0.1,56,27.6,55.7,56.5c-0.3,27-21.3,55.4-55.9,55.5c-0.1,0-0.1,0-0.1,0v32.6
			c0.9,0.1,1.9,0.1,2.8,0.1c3,0.1,6-0.1,9.1-0.6c1.1-0.1,2.8-1.1,3-1.9c1.2-5.2,1.9-10.4,3-15.5c0.3-1.3,0.7-2.3,2.6-2.9
			c4.4-1.4,8.4-3.7,12.7-5.4c1.1-0.4,2.9-0.3,4,0.4c4.2,2.6,8.3,5.4,12.3,8.1c1.5,1,2.7,1.7,4.1-0.2c0.7-1,2.1-1.6,3-2.5
			c5.1-5.2,10.1-10.4,15.2-15.7c0.3-0.3,0.1-1.6-0.3-2.2c-2.9-4.3-5.8-8.6-8.9-12.9c-1-1.4-1-2.6-0.3-4.2
			C518.4,426.1,520.3,422.2,521.5,418z"/>
		<path class="st8" d="M398.3,396.8c-0.7-28.6,22.9-55.8,55.8-55.8v-32.4c-4.2,0.1-8.3,0.3-12.5,0.5c-0.9,0.1-2.3,0.9-2.5,1.6
			c-0.9,4.2-1.5,8.6-2.5,12.9c-0.4,2-1,4.8-2.5,5.6c-4.6,2.5-9.5,4-14.4,5.9c-0.7,0.3-1.7,0.1-2.4-0.3c-4.4-2.7-8.9-5.4-13.1-8.5
			c-2.1-1.7-3.2-0.9-4.7,0.4c-1.8,1.5-3.6,3-5.2,4.8c-4,4.1-7.8,8.3-11.7,12.5c-1.2,1.3-0.9,2.2,0,3.6c3,4.4,6,9,8.9,13.5
			c0.4,0.6,0.6,1.5,0.3,2.1c-1.6,3.7-3.9,7.3-4.9,11.1c-0.9,3.8-2.9,5-6.5,5.5c-4.9,0.7-9.7,1.9-15,3c0,9.8,0,19.3,0,28.7
			c6.7,1.4,12.7,2.5,18.7,3.8c0.6,0.1,1.3,0.9,1.5,1.4c2.2,5.2,4.2,10.5,6.6,16c-3.2,4.6-6.6,9.6-9.9,14.6c-0.4,0.6-0.4,1.9,0,2.4
			c5.2,6.6,10.9,12.9,17.8,17.9c2,1.5,2.9,1.1,4.5,0c4-2.7,8-5.4,12.1-7.9c0.9-0.5,2.3-0.9,3.2-0.5c4.6,1.8,8.9,4.1,13.6,5.6
			c1.7,0.5,2.2,1.4,2.5,2.5c1.2,5.7,2.2,11.5,3.3,17.8c4.8,0.2,9.7,0.5,14.6,0.7v-32.9C420.1,453,397.6,424.7,398.3,396.8z"/>
		<path class="st2" d="M454.5,340.9c-0.1,0-0.2,0-0.3,0v25.3h0.1c14,0.1,30.6,11.1,30.6,30.7c0,18.1-14.6,30.6-30.6,30.6v25.4
			c0.1,0,0.1,0,0.1,0c34.6-0.1,55.6-28.6,55.9-55.5C510.5,368.6,487.4,341.1,454.5,340.9z"/>
		<path class="st9" d="M454.1,427.5c-16.8,0-30.7-13.8-30.6-30.7c0.1-19.3,16.4-30.6,30.6-30.6v-25.3c-32.9,0-56.5,27.3-55.8,55.9
			c-0.7,28,21.7,56.2,55.8,56.1V427.5C454.2,427.5,454.1,427.5,454.1,427.5z"/>
		<path class="st6" d="M483.3,371c-1.2,0-2.4-0.5-3.2-1.5c-4.6-5.4-11.2-8.5-18.3-8.5c-2.3,0-4.2-1.9-4.2-4.2c0-2.3,1.9-4.2,4.2-4.2
			c9.5,0,18.5,4.2,24.6,11.6c1.5,1.8,1.3,4.4-0.5,5.9C485.2,370.7,484.3,371,483.3,371z"/>
		<path class="st5" d="M454.2,476.5c0.9,0,1.7,0.1,2.5,0.1c0.2,0,0.5,0,0.7,0c0.7,0,1.4,0,2.1-0.1c0.2-1.1,0.4-2.1,0.6-3.2
			c0.4-2.2,0.8-4.4,1.3-6.6c0.2-0.9,0.4-1.8,0.7-2.6c-2.5,0.3-5.2,0.5-7.8,0.5L454.2,476.5L454.2,476.5z"/>
		<path class="st5" d="M461.9,331.3c-0.3-0.7-0.5-1.3-0.7-2.1c-0.7-3-1.3-6.2-1.9-9.1c-0.1-0.3-0.1-0.6-0.1-0.9c-0.5,0-1.1,0-1.6,0
			h-0.5c-0.9,0-1.9,0-2.9,0.1v11.6C456.8,330.9,459.4,331,461.9,331.3z"/>
		<path class="st5" d="M504.8,338.4c-0.1-0.1-0.1-0.1-0.3-0.3c-3,2-5.8,3.8-8.6,5.6c-0.5,0.3-1.1,0.7-1.7,0.9c2.4,1.8,4.6,3.8,6.7,6
			c2,2.1,3.9,4.2,5.6,6.5c0.2-0.5,0.5-0.9,0.7-1.4c1.9-3,4-6.2,6-9.1c-0.4-0.5-0.9-1-1.2-1.4C509.8,342.9,507.3,340.7,504.8,338.4z"
			/>
		<path class="st5" d="M506.6,438.8c-3.4,4.5-7.4,8.6-11.9,12.1c0.7,0.3,1.3,0.6,1.9,0.9c2.8,1.7,5.6,3.5,8.3,5.4
			c2.6-2.6,5.4-5.5,8.3-8.6c-1.7-2.3-3.3-4.8-5-7.3C507.4,440.6,506.9,439.6,506.6,438.8z"/>
		<path class="st5" d="M531.9,391.7c-3-0.7-6-1.3-8.7-1.7c-1.1-0.1-2.2-0.4-3.2-0.9c0.4,3,0.6,6,0.6,9.1c0,2.6-0.2,5.2-0.5,7.8
			c1.3-0.5,2.6-0.9,4.1-1.1c2.6-0.5,5.2-0.9,7.8-1.4L531.9,391.7z"/>
		<path class="st10" d="M381.2,390.8c-1.9,0.3-3.9,0.7-6,1.1v12c3.6,0.7,7,1.4,10.5,2.2c0.5,0.1,1,0.3,1.5,0.4
			c-0.3-2.8-0.5-5.8-0.4-8.6c-0.1-2.8,0.1-5.8,0.4-8.6C385.5,390,383.4,390.5,381.2,390.8z"/>
		<path class="st10" d="M446.4,326.1l-0.1,0.2c-0.3,1.4-0.7,3.2-1.5,5.1c2.9-0.4,5.8-0.6,8.7-0.6h0.3c0.1,0,0.2,0,0.3,0v-11.6
			c-2.2,0.1-4.4,0.1-6.6,0.2C447.2,321.6,446.9,323.8,446.4,326.1z"/>
		<path class="st10" d="M453.8,464.7h-0.4c-2.7,0-5.4-0.1-8.1-0.5c0.3,0.7,0.4,1.4,0.6,2.1c0.7,3.3,1.3,6.6,1.9,9.9
			c2.1,0.1,4.2,0.1,6.3,0.3v-11.8C454.1,464.7,453.9,464.7,453.8,464.7z"/>
		<path class="st10" d="M400.7,439.1c0,0-1.9,2.7-2.5,3.7c-1.4,2.1-2.8,4.2-4.2,6.3c2.5,2.8,5.2,5.7,8.3,8.3
			c2.9-1.9,5.8-3.8,8.6-5.6c0.6-0.4,1.2-0.7,1.9-0.9c-2.5-1.9-4.8-3.9-6.9-6.1C403.9,443,402.3,441.2,400.7,439.1z"/>
		<path class="st10" d="M408.5,342.3c-2.2-1.3-4.4-2.6-6.6-4.1c-0.3,0.2-0.5,0.5-0.7,0.7c-2.1,2.2-4.1,4.4-6.1,6.6
			c-0.4,0.4-0.9,0.9-1.2,1.4c2,3,4,6.1,5.8,9c0.2,0.4,0.4,0.7,0.7,1.1c1.7-2.1,3.4-4.1,5.2-6c2.2-2.3,4.5-4.3,7-6.2
			c-0.5-0.2-0.9-0.5-1.4-0.7C410.3,343.4,409.5,342.9,408.5,342.3z"/>
	</g>
	<g>
		<g>
			<g>
				<path class="st2" d="M237.6,425.7c0.3,0.5,0.3,1.1,1.2,1.6c13.3,4.7,26.1,9.7,38.5,16c19.7,10.1,39.5,20.6,58.7,25
					c0.8,0.1,0.5-1.1,0.6-1.8c-1.6-11.4-1.6-21.6-2.5-32.1c-18.1-2.5-36.4-12-55.2-20.5c-1.1-0.5-2.6-1.1-3.8-1.3
					c-0.7-0.4-1.4-0.7-2.1-1.1c-8.7-3.3-17.4-6.4-26.4-8.6C243,410.2,240.9,418,237.6,425.7L237.6,425.7z"/>
			</g>
			<g>
				<path class="st3" d="M255.6,380.4c-0.8,1.4-1.2,3-1.9,4.4c-2.9,5.8-5.6,11.4-8.3,17.4c8.8,2.5,17.2,5.1,25.5,8.5
					c11.9,4.9,22.5,10.5,34.2,15.2c9.8,3.7,18.9,6.4,28.2,8.4c-0.1-2.1-0.5-4.4-0.5-6.5c0.1-3.4-0.1-6.3-0.3-9.8
					c0.1-5.1,0.5-10.1-0.1-15.5c-0.3-0.5-0.8-0.7-1.4-1c-15-1.5-29.3-7.8-44.7-13.4c-9.1-3.6-18.8-6.7-29.1-8.3
					C256.7,379.8,256.3,380.2,255.6,380.4L255.6,380.4z"/>
			</g>
			<g>
				<path class="st4" d="M269.4,392c-0.8-0.1-1.6-0.2-1.9,0.3c-0.7,4.3-2.8,7.6-4.7,11.3c-0.7,1.9-1.4,3.6-0.7,5.6
					c0.8,1.1,2.8,0.9,3.9,1.5c-0.4-2.5,0.4-4.5,1.4-6.2c1.2-3.4,2.8-6.7,3.7-10.3C271.1,393.2,270.2,392.7,269.4,392L269.4,392z"/>
			</g>
			<g>
				<path class="st4" d="M284.7,397c-1-0.5-2,0-1.9,0.6c0.1,1.3-0.2,2.8-0.4,3.9c-1.7,4.2-3.9,8.5-3.7,13.4c1.3,1,2.6,1.1,4.2,1.5
					c-0.9-4.6,1.3-8.3,2.3-12.3C285.7,402.3,287.9,398.6,284.7,397L284.7,397z"/>
			</g>
			<g>
				<path class="st4" d="M299.4,401.3c-0.3-0.1-1.1-0.2-1.3,0.3c-0.7,3.8-1.1,7.9-2.1,11.6c-0.9,2.2-1.8,4.6-0.3,7.4
					c0.1,0.7,2.1,1.1,3.2,1.4c-0.6-4.2,0.3-7.8,1.6-11.4c0.6-2.6,1.5-5.2,0.7-8.1C301,402.1,300.1,401.6,299.4,401.3L299.4,401.3z"
					/>
			</g>
			<g>
				<path class="st4" d="M314.1,405.4c-0.7,0-1.4,0-1.5,0.3c0.3,5.4-1.4,10-1.4,15.6c-0.1,1.7-0.8,3,0.3,4.8
					c0.9,1.1,2.6,0.7,3.5,1.5c-0.6-2.3-0.1-4.4-0.3-6.6c-0.2-2.1,1-3.9,1.1-5.8c0.1-1.7,0.1-3,0.4-4.5c-0.1-1.1-0.1-2.4-0.2-3.4
					C315.9,406.6,315.4,405.7,314.1,405.4L314.1,405.4z"/>
			</g>
			<g>
				<g>
					<path class="st5" d="M257.2,426.2c0.4,1.2,2.2,2.5,3.7,2.7c0,0,0.5,0,0.7-0.3c0.5-2.6,0.4-5.2,1.5-7.2
						c1.8-3.2,2.8-6.8,3.2-10.7c-1.6-0.5-3-0.6-4.2-1.6c0.1,1.3,0.1,2.9-0.6,4.1C260.2,417.6,257.9,421.5,257.2,426.2L257.2,426.2z"
						/>
				</g>
				<g>
					<path class="st5" d="M275.6,433.5c0.7,1.7,2.6,2.8,4.3,2.4c-0.5-5.5,2.1-9.3,2.6-14.6c0.2-1.5,0.8-2.8,0.3-4.7
						c-1.2-0.3-2.4-0.6-3.8-1.3c0.7,5.2-1.6,9.1-3.2,13.5C275.2,430,276.2,432.2,275.6,433.5L275.6,433.5z"/>
				</g>
				<g>
					<path class="st5" d="M296,442.8c0.4,0.2,1.3,0.3,1.5-0.2c0.8-3.9,0.5-8.5,1.3-12.3c0.7-2.3,1.2-5,0.5-8
						c-1.1-0.3-2.3-0.5-3.7-1.3c-0.3,1.9,0.2,4.1,0,6c-1.2,4.6-3.5,8.7-1.8,14.3C294.1,441.8,295.3,442.4,296,442.8L296,442.8z"/>
				</g>
				<g>
					<path class="st5" d="M313.3,449.2c0.8,0.4,1.5,0.9,1.7-0.1c-0.3-4.6-0.1-8.9,0.7-12.9c0.3-2.9-0.3-5.9-0.4-8.7
						c-1.5-0.4-2.6-0.3-4-1.4c0.4,1.5,0.3,3.2,0.7,5.1c-0.2,5.7-2.5,10.2-0.7,16.6C311.8,448.4,312.5,448.8,313.3,449.2L313.3,449.2
						z"/>
				</g>
			</g>
		</g>
	</g>
</g>
<g>
	<path id="SVGCleanerId_0_7_" class="st9" d="M146.2,475.3H110l39.5,43.2v-39.6C149.4,477,148,475.3,146.2,475.3z"/>
</g>
<path class="st4" d="M344.1,414.8H217.9v168h64.4c19.1,0,19.1-22.5,19.1-39.7l61.8-109.2C363.2,423.3,354.6,414.8,344.1,414.8z"/>
<path class="st5" d="M94.8,414.8c-10.5,0-19.1,8.6-19.1,19.1l41.2,109.2c0,14.6,3.4,39.7,19.1,39.7h81.9v-168H94.8L94.8,414.8z"/>
<path class="st8" d="M165.5,554.2c-15.8,0-28.6,12.8-28.6,28.6c0,15.8,12.8,28.6,28.6,28.6s28.6-12.8,28.6-28.6
	C194.1,567,181.2,554.2,165.5,554.2z"/>
<path class="st7" d="M256.1,611.3c-15.8,0-28.6-12.8-28.6-28.6c0-15.8,12.8-28.6,28.6-28.6c15.8,0,28.6,12.8,28.6,28.6
	C284.7,598.5,271.9,611.3,256.1,611.3z"/>
<polygon class="st7" points="352.2,453.2 213.9,453.2 213.9,479.7 337.4,479.7 "/>
<polygon class="st8" points="83,453.2 93,479.7 217.9,479.7 217.9,453.2 "/>
<path class="st7" d="M549.1,639.7H56.8c-5.6,0-10.3-3.3-10.3-7.4v-13.4c0-4,4.6-7.4,10.3-7.4h492.4c5.6,0,10.3,3.3,10.3,7.4v13.4
	C559.4,636.4,554.8,639.7,549.1,639.7z"/>
<path class="st11" d="M116.5,663.1H92.2c-2.5,0-4.6-2.1-4.6-4.6v-14.4c0-2.5,2.1-4.6,4.6-4.6h24.3c2.5,0,4.6,2.1,4.6,4.6v14.4
	C121,661,119,663.1,116.5,663.1z"/>
<path class="st11" d="M199.9,663.1h-24.2c-2.5,0-4.6-2.1-4.6-4.6v-14.4c0-2.5,2.1-4.6,4.6-4.6h24.2c2.5,0,4.6,2.1,4.6,4.6v14.4
	C204.4,661,202.4,663.1,199.9,663.1z"/>
<path class="st11" d="M283.3,663.1h-24.2c-2.5,0-4.6-2.1-4.6-4.6v-14.4c0-2.5,2.1-4.6,4.6-4.6h24.2c2.5,0,4.6,2.1,4.6,4.6v14.4
	C287.9,661,285.8,663.1,283.3,663.1z"/>
<path class="st11" d="M366.7,663.1h-24.3c-2.5,0-4.6-2.1-4.6-4.6v-14.4c0-2.5,2.1-4.6,4.6-4.6h24.3c2.5,0,4.6,2.1,4.6,4.6v14.4
	C371.2,661,369.2,663.1,366.7,663.1z"/>
<path class="st11" d="M450.3,663.1h-24.2c-2.5,0-4.6-2.1-4.6-4.6v-14.4c0-2.5,2.1-4.6,4.6-4.6h24.2c2.5,0,4.6,2.1,4.6,4.6v14.4
	C454.9,661,452.8,663.1,450.3,663.1z"/>
<path class="st11" d="M533.7,663.1h-24.3c-2.5,0-4.6-2.1-4.6-4.6v-14.4c0-2.5,2.1-4.6,4.6-4.6h24.3c2.5,0,4.6,2.1,4.6,4.6v14.4
	C538.2,661,536.2,663.1,533.7,663.1z"/>
</svg>
