<?xml version="1.0" encoding="utf-8"?>
<!-- Generator: Adobe Illustrator 19.0.0, SVG Export Plug-In . SVG Version: 6.00 Build 0)  -->
<svg version="1.1" id="Layer_1" xmlns="http://www.w3.org/2000/svg" xmlns:xlink="http://www.w3.org/1999/xlink" x="0px" y="0px"
	 viewBox="206 -206 512 512" style="enable-background:new 206 -206 512 512;" xml:space="preserve">
<style type="text/css">
	.st0{display:none;fill:#9BAAAB;}
	.st1{fill:#CDD4D5;}
	.st2{fill:#9BAAAB;}
	.st3{fill:#FFFFFF;}
	.st4{fill:#F0353D;}
	.st5{display:none;}
	.st6{display:inline;}
	.st7{fill:#365558;}
	.st8{fill:#0295AA;}
	.st9{fill:#E6EAEA;}
	.st10{fill:#4ACFD9;}
	.st11{fill:#FF8C29;}
	.st12{fill:#FD6A33;}
	.st13{fill:#FFD1A9;}
</style>
<polygon class="st0" points="658,65.5 477,135.5 296,65.5 477.5,-5.5 "/>
<polygon class="st1" points="475.8,176.1 632.3,236.6 632.3,43 475.8,-17.6 "/>
<polygon class="st2" points="475.8,176.1 319.3,236.6 319.3,43 475.8,-17.6 "/>
<polyline class="st1" points="319.3,43.5 258,-17 414.9,-78.4 475.8,-17 "/>
<polyline class="st3" points="475.8,-17.6 527.1,-77.5 684.5,-16.7 632.3,43.5 "/>
<path class="st4" d="M709.3-149l-31.6,13.2c-4.2,1.7-9-0.2-10.8-4.5c-1.7-4.2,0.2-9,4.5-10.8l31.5-13.2c4.2-1.7,9,0.2,10.8,4.5
	C715.5-155.5,713.6-150.8,709.3-149z"/>
<path class="st4" d="M708.2-94.7c-2,0.8-4.2,0.8-6.4,0l-28.5-11.7c-4.2-1.7-6.2-6.5-4.5-10.8c1.7-4.2,6.5-6.2,10.8-4.5l28.5,11.7
	c4.2,1.7,6.2,6.5,4.5,10.8C711.9-96.9,710.2-95.4,708.2-94.7z"/>
<path class="st4" d="M658.4-158c-2,0.8-4.2,0.8-6.4,0c-4.2-1.7-6.2-6.5-4.5-10.8l11.7-28.5c1.7-4.2,6.5-6.2,10.8-4.5
	c4.2,1.7,6.2,6.5,4.5,10.8l-11.7,28.5C661.9-160.4,660.4-158.9,658.4-158z"/>
<g id="Layer_3_1_" class="st5">
	<polygon class="st6" points="1289,-440.4 777,-440.4 777,72.4 890.9,72.4 890.9,-320.5 1081,-320.5 1081,72.4 1289,72.4 	"/>
	<rect x="890.9" y="-320.5" class="st6" width="190.1" height="392.9"/>
</g>
<path id="SVGCleanerId_0_3_" class="st0" d="M850.1-14h-71.9l78.3,85.8V-7C856.5-10.9,853.7-14,850.1-14z"/>
<path class="st2" d="M621,53.4v-185.1c0-2.3-1.7-4.9-3.9-5.7l-75.6-27.5V28.7l75.6,27.5C619.3,57,621,55.7,621,53.4z"/>
<path class="st7" d="M471.5-190.4c-2.1-0.8-3.9,0.5-3.9,2.8v137.7l47.1,68.8l26.8,9.8v-193.6L471.5-190.4z"/>
<g>
	<path class="st8" d="M494.2-148.2c-2.1-0.8-3.9,0.5-3.9,2.8s1.7,4.8,3.9,5.6l47.4,17.3v-8.4L494.2-148.2z"/>
	<path class="st8" d="M494.2-112.1c-2.1-0.8-3.9,0.5-3.9,2.8s1.7,4.8,3.9,5.6l47.4,17.3v-8.5L494.2-112.1L494.2-112.1z"/>
	<path class="st8" d="M490.3-73.2c0,2.3,1.7,4.8,3.9,5.6l47.4,17.3v-8.5L494.2-76C492-76.8,490.3-75.5,490.3-73.2z"/>
	<path class="st8" d="M490.3-37.1c0,2.3,1.7,4.8,3.9,5.6l47.4,17.3v-8.5L494.2-40C492-40.7,490.3-39.4,490.3-37.1z"/>
</g>
<g>
	<path class="st7" d="M592.9-108c0-2.3-1.7-4.8-3.9-5.6l-47.4-17.3v8.4l47.4,17.3C591.1-104.5,592.9-105.7,592.9-108z"/>
	<path class="st7" d="M592.9-71.9c0-2.3-1.7-4.8-3.9-5.6v-0.1l-47.4-17.3v8.5L589-69.1C591.1-68.3,592.9-69.6,592.9-71.9z"/>
	<path class="st7" d="M592.9-35.8c0-2.3-1.7-4.9-3.9-5.7l-47.4-17.3v8.5L589-33C591.1-32.2,592.9-33.4,592.9-35.8z"/>
	<path class="st7" d="M592.9,0.3c0-2.3-1.7-4.8-3.9-5.7l-47.4-17.3v8.5L589,3.1C591.1,3.8,592.9,2.6,592.9,0.3z"/>
</g>
<g>
	<path id="SVGCleanerId_0_2_" class="st2" d="M510.9-44.1l-43.3-15.8l47.1,68.8v-47.4C514.7-40.8,513.1-43.3,510.9-44.1z"/>
</g>
<g>
	<path class="st9" d="M1091.5,77.1v-307.4c0-3.9-2.9-7.1-6.4-7.1H959.6V84.1h125.5C1088.6,84.1,1091.5,81,1091.5,77.1z"/>
	<path class="st1" d="M843.1-237.4c-3.5,0-6.4,3.1-6.4,7V-1.7L915,84.1h44.5v-321.5H843.1z"/>
	<g>
		<path class="st8" d="M880.8-181.1c-3.5,0-6.4,3.1-6.4,7c0,3.9,2.9,7,6.4,7h78.8v-14H880.8z"/>
		<path class="st8" d="M880.8-121.1c-3.5,0-6.4,3.1-6.4,7s2.9,7,6.4,7h78.8v-14.1L880.8-121.1L880.8-121.1z"/>
		<path class="st8" d="M874.4-54.1c0,3.9,2.9,7,6.4,7h78.8v-14.1h-78.8C877.2-61.2,874.4-58,874.4-54.1z"/>
		<path class="st8" d="M874.4,5.8c0,3.9,2.9,7,6.4,7h78.8V-1.3h-78.8C877.2-1.2,874.4,2,874.4,5.8z"/>
	</g>
	<g>
		<path class="st10" d="M1044.8-174c0-3.9-2.9-7-6.4-7h-78.8v14h78.8C1041.9-167,1044.8-170.1,1044.8-174z"/>
		<path class="st10" d="M1044.8-114c0-3.9-2.9-7-6.4-7v-0.1h-78.8v14.1h78.8C1041.9-107,1044.8-110.1,1044.8-114z"/>
		<path class="st10" d="M1044.8-54c0-3.9-2.8-7.1-6.4-7.1h-78.8V-47h78.8C1041.9-47,1044.8-50.1,1044.8-54z"/>
		<path class="st10" d="M1044.8,5.9c0-3.8-2.8-7-6.4-7.1h-78.8v14.1h78.8C1041.9,12.9,1044.8,9.8,1044.8,5.9z"/>
	</g>
	<g>
		<path id="SVGCleanerId_0_4_" class="st2" d="M908.6-1.7h-71.9L915,84.1V5.4C915,1.5,912.2-1.7,908.6-1.7z"/>
	</g>
</g>
<path class="st1" d="M581.3,90.2V-94.9c0-2.3-1.7-4.9-3.9-5.7L501.9-128V65.5L577.4,93C579.5,93.8,581.3,92.5,581.3,90.2z"/>
<path class="st2" d="M431.7-153.6c-2.1-0.8-3.9,0.5-3.9,2.8v137.7L475,55.7l26.8,9.8v-193.6L431.7-153.6z"/>
<g>
	<path class="st8" d="M454.4-111.4c-2.1-0.8-3.9,0.5-3.9,2.8s1.7,4.8,3.9,5.6l47.4,17.3v-8.4L454.4-111.4z"/>
	<path class="st8" d="M454.4-75.3c-2.1-0.8-3.9,0.5-3.9,2.8s1.7,4.8,3.9,5.6l47.4,17.3v-8.5L454.4-75.3L454.4-75.3z"/>
	<path class="st8" d="M450.6-36.4c0,2.3,1.7,4.8,3.9,5.6l47.4,17.3V-22l-47.4-17.3C452.2-40,450.6-38.7,450.6-36.4z"/>
	<path class="st8" d="M450.6-0.3c0,2.3,1.7,4.8,3.9,5.6l47.4,17.3v-8.5L454.4-3.2C452.2-3.9,450.6-2.6,450.6-0.3z"/>
</g>
<g>
	<path class="st8" d="M553.1-71.2c0-2.3-1.7-4.8-3.9-5.6l-47.4-17.3v8.4l47.4,17.3C551.4-67.7,553.1-68.9,553.1-71.2z"/>
	<path class="st8" d="M553.1-35.1c0-2.3-1.7-4.8-3.9-5.6v-0.1l-47.4-17.3v8.5l47.4,17.3C551.4-31.5,553.1-32.8,553.1-35.1z"/>
	<path class="st8" d="M553.1,1c0-2.3-1.7-4.9-3.9-5.7l-47.4-17.3v8.5l47.4,17.3C551.4,4.6,553.1,3.4,553.1,1z"/>
	<path class="st8" d="M553.1,37.1c0-2.3-1.7-4.8-3.9-5.7l-47.4-17.3v8.5l47.4,17.3C551.4,40.7,553.1,39.4,553.1,37.1z"/>
</g>
<g>
	<path id="SVGCleanerId_0_5_" class="st2" d="M471.2-27.3l-43.3-15.8L475,25.7v-47.4C475-24,473.3-26.5,471.2-27.3z"/>
</g>
<path class="st9" d="M541.5,125.8V-59.3c0-2.3-1.7-4.9-3.9-5.7l-75.6-27.5v193.6l75.6,27.5C539.8,129.3,541.5,128.1,541.5,125.8z"/>
<path class="st1" d="M392-118c-2.1-0.8-3.9,0.5-3.9,2.8V22.5l47.1,68.8l26.8,9.8V-92.5L392-118z"/>
<g>
	<path class="st8" d="M414.7-75.9c-2.1-0.8-3.9,0.5-3.9,2.8s1.7,4.8,3.9,5.6l47.4,17.3v-8.4L414.7-75.9z"/>
	<path class="st8" d="M414.7-39.7c-2.1-0.8-3.9,0.5-3.9,2.8c0,2.3,1.7,4.8,3.9,5.6L462.1-14v-8.5L414.7-39.7L414.7-39.7z"/>
	<path class="st8" d="M410.8-0.8c0,2.3,1.7,4.8,3.9,5.6l47.4,17.3v-8.5L414.7-3.7C412.5-4.5,410.8-3.1,410.8-0.8z"/>
	<path class="st8" d="M410.8,35.3c0,2.3,1.7,4.8,3.9,5.6l47.4,17.3v-8.5l-47.4-17.3C412.5,31.7,410.8,33,410.8,35.3z"/>
</g>
<g>
	<path class="st10" d="M513.4-65.7c0-2.3-1.7-4.8-3.9-5.6l-47.4-17.3v8.4l47.4,17.3C511.7-62.1,513.4-63.3,513.4-65.7z"/>
	<path class="st10" d="M513.4-29.6c0-2.3-1.7-4.8-3.9-5.6v-0.1l-47.4-17.3v8.5l47.4,17.3C511.7-26,513.4-27.2,513.4-29.6z"/>
	<path class="st10" d="M513.4,6.6c0-2.3-1.7-4.9-3.9-5.7l-47.4-17.3v8.5l47.4,17.3C511.7,10.2,513.4,8.9,513.4,6.6z"/>
	<path class="st10" d="M513.4,42.6c0-2.3-1.7-4.8-3.9-5.7l-47.4-17.3v8.5l47.4,17.3C511.7,46.2,513.4,45,513.4,42.6z"/>
</g>
<g>
	<path id="SVGCleanerId_0_6_" class="st2" d="M431.4-11.8l-43.3-15.8l47.1,68.8V-6.1C435.3-8.4,433.6-11,431.4-11.8z"/>
</g>
<path class="st3" d="M493.4,163V-22.1c0-2.3-1.7-4.9-3.9-5.7L414-55.3v193.6l75.6,27.5C491.7,166.5,493.4,165.3,493.4,163z"/>
<path class="st9" d="M343.9-80.8c-2.1-0.8-3.9,0.5-3.9,2.8V59.7l47.1,68.8l26.8,9.8V-55.3L343.9-80.8z"/>
<g>
	<path class="st8" d="M366.6-38.6c-2.1-0.8-3.9,0.5-3.9,2.8c0,2.3,1.7,4.8,3.9,5.6L414-13v-8.4L366.6-38.6z"/>
	<path class="st8" d="M366.6-2.5c-2.1-0.8-3.9,0.5-3.9,2.8s1.7,4.8,3.9,5.6L414,23.2v-8.5L366.6-2.5L366.6-2.5z"/>
	<path class="st8" d="M362.7,36.4c0,2.3,1.7,4.8,3.9,5.6L414,59.3v-8.5l-47.4-17.3C364.4,32.7,362.7,34.1,362.7,36.4z"/>
	<path class="st8" d="M362.7,72.5c0,2.3,1.7,4.8,3.9,5.6L414,95.4v-8.5l-47.4-17.3C364.4,68.9,362.7,70.2,362.7,72.5z"/>
</g>
<g>
	<path class="st10" d="M465.3,1.5c0-2.3-1.7-4.8-3.9-5.6L414-21.3v8.4l47.4,17.3C463.6,5.1,465.3,3.9,465.3,1.5z"/>
	<path class="st10" d="M465.3,37.7c0-2.3-1.7-4.8-3.9-5.6V32L414,14.7v8.5l47.4,17.3C463.6,41.2,465.3,40,465.3,37.7z"/>
	<path class="st10" d="M465.3,73.8c0-2.3-1.7-4.9-3.9-5.7L414,50.8v8.5l47.4,17.3C463.6,77.4,465.3,76.1,465.3,73.8z"/>
	<path class="st10" d="M465.3,109.8c0-2.3-1.7-4.8-3.9-5.7L414,86.9v8.5l47.4,17.3C463.6,113.4,465.3,112.2,465.3,109.8z"/>
</g>
<g>
	<path id="SVGCleanerId_0_7_" class="st2" d="M383.3,78.4L340,62.7l47.1,68.8V84.1C387.2,81.8,385.5,79.2,383.3,78.4z"/>
</g>
<polygon class="st11" points="632.3,237.2 475.8,297.7 475.8,104 632.3,43.5 "/>
<polygon class="st12" points="319.3,237.2 475.8,297.7 475.8,104 319.3,43.5 "/>
<polygon class="st8" points="632.3,217.8 475.8,278.3 475.8,248.9 632.3,188.4 "/>
<polygon class="st7" points="319.3,217.8 475.8,278.3 475.8,248.9 319.3,188.4 "/>
<polyline class="st13" points="475.8,104.5 526.8,52.6 683.8,-8.8 632.3,44 "/>
<polyline class="st11" points="319.3,43.4 258.2,-7.9 415.6,52.9 475.8,104.5 "/>
<g>
	<path class="st9" d="M602.9,191.2V69.3c0-1.5-1.2-2.4-2.5-1.9l-49.8,18.1V213l49.8-18.1C601.7,194.4,602.9,192.8,602.9,191.2z"/>
	<path class="st1" d="M504.3,102.3c-1.4,0.5-2.5,2.2-2.5,3.7v90.7l31.1,22.7l17.7-6.4V85.5L504.3,102.3z"/>
	<g>
		<path class="st8" d="M519.3,119.2c-1.4,0.5-2.5,2.2-2.5,3.7c0,1.5,1.2,2.4,2.5,1.9l31.3-11.4v-5.6L519.3,119.2z"/>
		<path class="st8" d="M519.3,143c-1.4,0.5-2.5,2.2-2.5,3.7c0,1.5,1.2,2.4,2.5,1.9l31.3-11.4v-5.6L519.3,143L519.3,143z"/>
		<path class="st8" d="M516.8,170.5c0,1.5,1.2,2.4,2.5,1.9l31.3-11.4v-5.6l-31.3,11.4C517.9,167.3,516.8,169,516.8,170.5z"/>
		<path class="st8" d="M516.8,194.3c0,1.5,1.2,2.4,2.5,1.9l31.3-11.4v-5.6l-31.3,11.4C517.9,191.1,516.8,192.8,516.8,194.3z"/>
	</g>
	<g>
		<path class="st10" d="M584.3,98.3c0-1.5-1.2-2.4-2.5-1.9l-31.3,11.4v5.6l31.3-11.4C583.2,101.5,584.3,99.9,584.3,98.3z"/>
		<path class="st10" d="M584.3,122.1c0-1.5-1.2-2.4-2.5-1.9v0l-31.3,11.4v5.6l31.3-11.4C583.2,125.3,584.3,123.7,584.3,122.1z"/>
		<path class="st10" d="M584.3,145.9c0-1.5-1.1-2.4-2.5-1.9l-31.3,11.4v5.6l31.3-11.4C583.2,149.1,584.3,147.5,584.3,145.9z"/>
		<path class="st10" d="M584.3,169.7c0-1.5-1.1-2.4-2.5-1.9l-31.3,11.4v5.6l31.3-11.4C583.2,172.9,584.3,171.3,584.3,169.7z"/>
	</g>
	<g>
		<path id="SVGCleanerId_0_8_" class="st2" d="M530.3,186.4l-28.5,10.4l31.1,22.7v-31.2C532.9,186.7,531.7,185.9,530.3,186.4z"/>
	</g>
</g>
</svg>
