<?xml version="1.0" encoding="utf-8"?>
<!-- Generator: Adobe Illustrator 19.0.0, SVG Export Plug-In . SVG Version: 6.00 Build 0)  -->
<svg version="1.1" id="Layer_1" xmlns="http://www.w3.org/2000/svg" xmlns:xlink="http://www.w3.org/1999/xlink" x="0px" y="0px"
	 viewBox="96 11 512 512" style="enable-background:new 96 11 512 512;" xml:space="preserve">
<style type="text/css">
	.st0{display:none;}
	.st1{display:inline;}
	.st2{fill:#CDD4D5;}
	.st3{fill:#E6EAEA;}
	.st4{fill:#4ACFD9;}
	.st5{fill:#0295AA;}
	.st6{fill:#FFFFFF;}
	.st7{fill:#FF8C29;}
	.st8{fill:#FD6A33;}
	.st9{fill:#9BAAAB;}
	.st10{fill:#365558;}
	.st11{fill:#687F82;}
</style>
<g id="Layer_3" class="st0">
	<rect x="1098" y="-563.4" class="st1" width="512" height="512.8"/>
</g>
<g>
	<g>
		<g>
			<g>
				<path class="st2" d="M277.8,195.1c-1.5,0.4,0.3,1.7,1.1,2.2c12.7,5.6,24,11.4,34.9,18.9c22.3,14.6,43.9,30.4,68.6,40.3
					c0.5-0.1,0.9-0.5,0.9-0.9c1.1-11,2.3-22.1,3.4-33.1c-17.1-6.2-33.9-16.4-50.3-27c-12.9-8.7-26.5-15.7-41.2-20.9
					c-4,4-7,8.8-11.3,12.6C281.7,189.9,279.1,192.2,277.8,195.1L277.8,195.1z"/>
			</g>
			<g>
				<path class="st3" d="M313,154c-5.6,7.1-12.5,13.5-17.8,20.8c10.3,3.2,19.8,8.1,28.6,13.4c18.3,10.5,35.2,23.7,55,31.1
					c0.7,0.4,1.4,0.7,2.1,1.1c1.1,0.2,2.5,1,3.6,1.2c0.7,0.4,1.4,0.7,2.1,1.1c0.8-11.5,2.9-22.1,3.1-33.9c-0.3-0.5-0.8-1.1-1.1-1.2
					c-8.9-2.1-17-5.8-25.2-10.2c-15.7-9.1-29.8-18.7-47.8-23.8C314.8,153.3,313.8,153.5,313,154L313,154z"/>
			</g>
			<g>
				<path class="st4" d="M324.2,167.1c-0.6-0.3-1.3-0.6-1.5-0.1c-2.3,3.5-4.9,6.8-8.2,9.8c-1.7,1.9-2.3,4.1-3.3,6.4
					c1.4,0.7,2.5,1.3,3.9,2.1c0.5-1.6,1.3-3.4,2.1-4.8c2.9-3.2,6-6,7.8-9.7C325.1,169.6,326.6,167.9,324.2,167.1L324.2,167.1z"/>
			</g>
			<g>
				<path class="st4" d="M339.3,174.2c-1-1.1-1.9,0-2.2,0.5c-1,3.6-3.2,6.4-5.2,9.5c-2,2.2-3.2,4.7-3.8,7.6c1.4,0.7,2.8,1.5,4.2,2.2
					c0.3-4.4,2.7-7.6,5.5-11c1.3-1.9,2.4-4.3,2.7-6.7C340.8,176,340.9,174.8,339.3,174.2L339.3,174.2z"/>
			</g>
			<g>
				<path class="st4" d="M354.3,181.5c-0.2-0.4-0.9-0.5-1.5-0.1c-0.6,1.7-0.8,3.2-1.7,4.7c-1.8,5-5.6,8.9-5.7,14.8
					c1.4,0.7,2.5,1.3,3.9,2.1c0.4-2.5,0.5-5,1.6-7.2c2.2-4.2,5.2-7.6,5.1-13C355.8,182.2,355.3,181.6,354.3,181.5L354.3,181.5z"/>
			</g>
			<g>
				<path class="st4" d="M369.6,188.8c-0.6-0.3-1.3-0.6-1.4,0c-1.1,4.5-2.5,8.9-4.6,12.9c-1,2.5-0.9,5.3-1.2,8.1
					c1.4,0.7,2.5,1.3,3.9,2.1c-0.3-2.2,0.5-4.2,0.9-6c1-4.6,3.2-8.2,3.9-13C370.9,191.9,371.8,189.5,369.6,188.8L369.6,188.8z"/>
			</g>
			<g>
				<g>
					<path class="st5" d="M300.4,198.3c-0.3,0.5-0.2,1.1,0.8,2.1c0.8,0.5,1.7,1.6,3,1.1c1.3-1.2,0.9-3,2.1-4.2
						c3.4-3.8,7.9-7.2,8.6-12.1c-1.4-0.7-2.5-1.3-3.9-2.1c-0.9,2.1-1.3,4-2.8,5.7C305.3,191.9,301.6,194.2,300.4,198.3L300.4,198.3z
						"/>
				</g>
				<g>
					<path class="st5" d="M319.1,208.7c0.1,1.7,1.6,2.8,3.3,3.4c0.5-0.1,1.1-0.3,1.4-0.9c0.8-3.8,3-6.5,5.4-9.5
						c1.6-2.4,2.3-5,3.1-7.8c-1.4-0.7-2.8-1.5-4.2-2.2c0.2,2.3-0.8,4.4-2.2,6.2C323.3,201.6,321.1,205,319.1,208.7L319.1,208.7z"/>
				</g>
				<g>
					<path class="st5" d="M340.2,222.1c0.8,0.5,2,1.1,1.8,0.3c1.4-4.2,3.2-8.3,5.8-11.9c1.1-2.1,1.2-5,1.6-7.5
						c-1.4-0.7-2.5-1.3-3.9-2.1c-0.5,2.7-1.2,5.7-2.5,7.9c-1.9,2.6-3.8,5.6-4.6,8.8C338.6,218.8,337.4,220.8,340.2,222.1
						L340.2,222.1z"/>
				</g>
				<g>
					<path class="st5" d="M359.5,232.8c0.3,0.5,1.2,0.7,1.7,0.3c0.4-1.9,0.3-3.6,1.1-5.2c1.2-5.5,4.6-9.9,3.9-16
						c-1.4-0.7-2.5-1.3-3.9-2.1c-0.2,2.6,0,5.1-0.9,7.3c-1.9,4.4-4.9,7.9-4.2,13.8C357.5,231.7,358.2,232.5,359.5,232.8L359.5,232.8
						z"/>
				</g>
			</g>
		</g>
	</g>
	<g>
		<g>
			<g>
				<path class="st2" d="M306.2,100c-0.1,0.7-0.7,0.9-0.3,1.5c4.2,3.4,8.1,5.4,12.9,7.9c19.9,14,34.6,30.1,50.7,46.6
					c8.5,9.3,16.5,17.4,24.8,26.2l1,0.5c1.9,2.3,4.5,6.4,5.4,4.2c1.5-2.4,3.2-5.6,4.4-9.3c3.2-5.7,6.4-12.2,10.1-18.1
					c-19-21.1-36-45.8-56.2-68.3c-9.4-8.9-19.4-16.7-30.3-24.1C320.9,78.6,312.9,89.3,306.2,100L306.2,100z"/>
			</g>
			<g>
				<path class="st3" d="M354.1,30.5c-3.8,4.4-7.2,9.4-11.4,13.9c-5.3,7.8-11.9,14-15.8,21.9c10,5.6,19.3,13,27.2,20.9
					c22.5,23.1,39.9,49.7,60,70.5c5.1-9.3,11-19,17.5-28.3c2.1-2.8,1.9-5.8-0.5-8.7c-15.4-17.4-26.4-39.5-41.6-59.3
					c-1.9-2.3-3.4-5.4-6.1-8.1c-1.7-1.6-3.4-3.1-4.6-4.9c-0.8-0.5-1.8-1.5-2.5-2c-1-1.1-1.2-1.8-2.2-2.8c-6.2-5-11.5-10.4-18.1-13.7
					C355.3,30,354.7,30.2,354.1,30.5L354.1,30.5z"/>
			</g>
			<g>
				<path class="st4" d="M364.1,58.2c-2.1-2.1-3.8,1.5-4.7,2.5c-1.2,3.3-3.6,6.4-5.8,8.7c-4.3,3-6.9,8.3-9.6,12.9
					c1.1,1.1,2.5,2.6,4.2,3.5c3.2-4.8,6.3-10.2,10.8-14c2.7-2.5,4.4-6,6.1-9.5C365.8,61.2,365.8,59.8,364.1,58.2L364.1,58.2z"/>
			</g>
			<g>
				<path class="st4" d="M380.7,74.1c-1.3-0.3-2.5-0.5-2.8,0.3c-3.5,7.8-9.4,12.1-13.6,18.6c-0.5,1.6-0.9,3.2-1.9,5
					c1.5,0.9,2.8,2.6,3.9,3.7c2.3-7.9,8.9-11,13-18.2C380.2,80.8,384,78.8,380.7,74.1L380.7,74.1z"/>
			</g>
			<g>
				<path class="st4" d="M396.9,91.2c-0.7-0.5-1.4-1-1.4-1c-3.2,3.3-4.8,8.2-7.9,11.5c-4.2,2.8-6.1,7.8-8.5,12.2
					c1.3,1.7,2.6,2.7,3.8,4.5c1.9-4.2,3.7-9.1,7.9-11.9c2.6-3,4.6-6.6,6.8-11.1C398.4,94.3,398.4,92.8,396.9,91.2L396.9,91.2z"/>
			</g>
			<g>
				<path class="st4" d="M411.4,109.1c-0.8-1.2-1.9-1.6-2.6-0.6c-2.5,8.1-8.5,10.7-12,17.6c-0.4,1.6-1.7,3.4-1.2,4.7
					c0.1,1.4,1.6,3.1,2.9,4.1c0.2-0.8,0.4-1.5,0.6-2.3c3.6-6.2,8.5-9.9,12-17.6C411.8,114.2,413.9,113.4,411.4,109.1L411.4,109.1z"
					/>
			</g>
			<g>
				<g>
					<path class="st5" d="M330.2,105.5c1.5,1.6-1.1,3.2,3.7,4.3c4.1-8.4,11.3-13.8,14.9-23.6c-1.6-0.9-3-2.5-4.2-3.5
						c-1,1.8-1.4,3.4-1.9,5C339.2,94.7,331.9,97.9,330.2,105.5L330.2,105.5z"/>
				</g>
				<g>
					<path class="st5" d="M349.4,120c-0.1,0.7-0.3,1.5,0.1,2.1c0.7,1.2,3.2,3.8,4,1.5c2.6-6.5,7.8-10.3,11.5-16.5
						c0.9-1.7,1.3-3.3,2.2-5c-1.5-0.9-3-1.9-4.4-3.5C359.3,106.9,353.1,112.5,349.4,120L349.4,120z"/>
				</g>
				<g>
					<path class="st5" d="M368.6,139.8c0.7,0.5,1.5,0.9,1.9,0.8c2.9-5.1,6.2-9.7,9.9-15c1-2.5,3.4-3.9,2.8-6.6
						c-0.1-1.4-2.2-2.8-3.4-4.6c-1.8,5.6-5,10.1-8.3,14C369,130.5,365.4,134.5,368.6,139.8L368.6,139.8z"/>
				</g>
				<g>
					<path class="st5" d="M385.5,156.4c0.7,0.5,0.9,1.1,1.3,1c0.8-0.2,1-1.7,1.3-3.1c3.2-7.2,8.5-10.9,11.1-18.8
						c-1.3-1.1-2.6-2.1-3.8-3.9c-1.8,7.7-6.6,10.5-9.7,16.4c-1.1,1.7-2.1,3.4-1.8,6.1C384.2,154.7,385.2,155.8,385.5,156.4
						L385.5,156.4z"/>
				</g>
			</g>
		</g>
	</g>
	<g>
		<g>
			<g>
				<path class="st2" d="M377,36c-2.5,1.4,1.8,4.2,3.6,6c20.9,17.7,36.6,35.2,53.3,54.1c3,3,5.8,6.2,8.9,9.3
					c1.9,1.9,3.7,4.5,5.6,6.3c16.4,16.6,32.7,32.5,50.4,49.4c1.3,1.2,2.5,2.4,2.6,2.3c1.1-1.2,2.2-2.4,3.3-3.6
					c-9.3-14.8-18.4-29.9-27.1-45.1c-16.5-30.6-30-61.9-52-91C410.8,29.8,392.7,31.3,377,36L377,36z"/>
			</g>
			<g>
				<path class="st3" d="M474.4,12c-16.2,4.1-32.9,6.9-48.8,11.7c15.4,20.2,27,42.1,37.4,64.5c1.9,3.3,3.5,6.7,5.4,9.9
					c1.1,2,2.1,4.8,3.3,6.8c8,13.8,16.1,27.7,24.6,41.3c2.8,4.6,5.6,9.1,8.3,13.6c1.1-1.2,2.2-2.4,3.2-3.5c0.2-0.2-0.8-4.4-1.3-6.4
					c-7.8-29-12.2-58.5-17.5-87.6c-2.5-17.2-5.1-33.5-12-49.6C476.5,12.2,475.7,11.7,474.4,12L474.4,12z"/>
			</g>
			<g>
				<path class="st4" d="M470.8,42.7c-0.9-1.3-1.9-2.5-3-2.2c-5.2,2.9-11.9,3.2-18.3,3.4c-4,0.3-6.5,2.5-10.1,3.4
					c1.1,2,2.3,4,3.4,5.9c6.1-2.4,12.9-3.5,19.9-3.8C465.7,48.6,471.6,48.5,470.8,42.7L470.8,42.7z"/>
			</g>
			<g>
				<path class="st4" d="M479.4,69.6c-0.2-0.7-1.3-2.6-1.7-2.5c-4.4,0.5-8.6,2.5-13.1,3c-4-0.4-7.8,0.7-10.3,2.9
					c1.1,2,2.3,4,3.4,5.9c1.2-1.9,3.1-1.7,5.1-2.3c5.2-2.3,12.3,0.2,16.6-4C479.7,71.8,479.2,70.4,479.4,69.6L479.4,69.6z"/>
			</g>
			<g>
				<path class="st4" d="M487.7,95.8c-0.7-1.3-1.5-2.6-2.1-2.4c-2.8,2.5-7,2.2-10.9,1.9c-2.5,0-4.7,0.7-5,3.9
					c0.1,0.7,1.5,2.6,2.6,4.6c3.3-1.9,7.3-2.4,11.5-2.3C485.4,101.2,488.9,101.5,487.7,95.8L487.7,95.8z"/>
			</g>
			<g>
				<path class="st4" d="M496.2,122.7c-0.2-0.7-1.1-2.6-1.3-2.6c-2.2,0.1-4,1.6-6.3,1.7c-2.3-0.7-4-0.1-4.9,1.9c1.1,2,2.3,4,3.4,5.9
					c0.7-1.9,2.1-2.5,3.8-2.4c2.3,0.7,4-0.1,5.7-0.7C497,126.3,496.9,124.8,496.2,122.7L496.2,122.7z"/>
			</g>
			<g>
				<g>
					<path class="st5" d="M411.2,54.9c-1.6,0.4,0.1,2.3,0.7,3.7c1.1,1.3,3.2,2.3,4.2,2c4.4-2.7,11.5-3.1,17.8-3.2
						c3.8-0.3,6.4-1.7,9.1-4c-1.1-2-2.3-4-3.4-5.9c-3.4,3.2-8.5,3.8-14.6,3.9C419.6,51.9,414.9,52.3,411.2,54.9L411.2,54.9z"/>
				</g>
				<g>
					<path class="st5" d="M431.5,78.7c-1.3,0.3,0.4,2.3,1.1,3.6c0.5,0.6,1.7,1.9,3,2.3c1.6-0.5,2.6-1.5,4.7-1.4
						c5.8-1.7,13-0.7,17.6-4.3c-1.1-2-2.3-4-3.4-5.9c-2.5,2.3-5.8,3.2-9.9,2.8C439.8,76.4,435.7,77.5,431.5,78.7L431.5,78.7z"/>
				</g>
				<g>
					<path class="st5" d="M453.8,106.7c1.4,1.1,2.7,2.3,3.3,2.1c2.1-2.3,6.4-2.1,10.4-1.9c2.3,0,3.6-1.2,4.7-3.1
						c-1.1-2-2.3-4-3.4-5.9c-1.1,1.9-2.5,3.1-5,3.1c-4.6-0.1-10.5-1.4-11.7,2.9C452.5,104.7,453.6,106,453.8,106.7L453.8,106.7z"/>
				</g>
				<g>
					<path class="st5" d="M474.6,130.5c0.5,0.6,2.4,2.5,2.5,2.4c2.3-0.1,3.6-1.5,5.8-1.6c2.3,0.7,3.7,0.1,4.3-1.8
						c-1.1-2-2.3-4-3.4-5.9c-0.7,1.9-2.7,1.9-4.2,2.5c-0.6,0.2-2.1-0.9-2.7-0.6c-1.6,0.6-4.2-0.1-4,2.4
						C473.1,128.6,474.2,129.9,474.6,130.5L474.6,130.5z"/>
				</g>
			</g>
		</g>
	</g>
	<g>
		<path class="st2" d="M531.8,163.2c-2.5-2.5-4.7-4.9-7-7.3c-0.3-0.3-0.8-0.5-1.1-0.5c-3.5,0.6-7,1.3-10.9,2
			c-2.1-5.1-4.1-10.3-6.2-15.6c2.6-1.7,5-3.4,7.5-4.9c1.9-1.1,2.6-2.1,2.3-4.4c-0.3-2.3,0.1-4.8,0.2-7.1c0-0.4-0.3-0.9-0.7-1.1
			c-2.6-1.9-5.1-3.7-7.8-5.4c-0.8-0.5-1.1-1-0.8-1.9c1.2-3.1,2.4-6.2,3.6-9.3c0.5-1.3,1.1-2.5,1.8-3.7c0.5-0.9,0.9-1.7,2.5-1.2
			c2.9,0.9,6,1.3,8.9,1.8c0.4,0.1,1.1-0.1,1.4-0.3c2.2-2.1,4.6-4,6.6-6.3c0.6-0.7,0.3-2.4,0.1-3.5c-0.4-2.5-1.1-5-1.5-7.5
			c-0.1-0.4,0.5-1.1,0.9-1.4c2.8-1.3,5.7-2.6,8.5-3.7c1.7-0.7,3.4-1.3,5.2-1.7c0.4-0.1,1.3,0.3,1.5,0.7c1.7,2.6,3.2,5.2,5,7.8
			c0.4,0.5,1.3,0.7,2.1,0.8c2.7,0.1,5.5,0.2,8.3,0.2c0.5,0,1.2-0.4,1.5-0.7c1.9-2.5,3.6-5.1,5.4-7.8c0.4-0.6,0.7-0.9,1.5-0.7
			c3.1,1.2,6.3,2.3,9.3,3.6c1.6,0.7,2.9,1.7,4.5,2.3c1,0.4,0.9,1.1,0.7,1.9c-0.7,3.1-1.3,6.2-1.9,9.3c-0.1,0.4,0.1,1.1,0.4,1.3
			c1.9,2.1,3.9,4,5.9,6c0.7,0.7,1.1,1,2.3,0.7c3.2-0.7,6.6-1.2,10.3-1.9c2.1,5.1,4.1,10.3,6.3,15.6c-2.9,1.9-5.5,3.6-8.3,5.2
			c-1.1,0.7-1.8,1.3-1.7,2.9c0.2,2.5,0,5.1-0.1,7.6c-0.1,1,0.2,1.7,1.1,2.2c2.6,1.7,5.1,3.3,7.6,5c0.3,0.2,0.7,0.9,0.7,1.1
			c-1.6,4-3.2,7.9-4.8,11.8c-0.3,0.7-0.9,1.3-1.1,2c-0.4,1.3-1.1,1.2-2.2,1c-2.8-0.7-5.6-1.3-8.5-1.7c-0.7-0.1-1.7,0.1-2.3,0.7
			c-2,1.9-3.7,4-5.8,5.7c-0.9,0.7-0.9,1.4-0.7,2.2c0.5,3,1.3,6,1.7,9.1c0.1,0.5-0.7,1.4-1.2,1.7c-1.5,0.9-3.1,1.7-4.8,2.3
			c-3.2,1.2-6.4,2.3-9.6,3.4c-2-3.2-3.7-6-5.6-8.9c-0.3-0.5-0.9-0.9-1.9-0.8c-2.8,0.2-5.8-0.1-8.6-0.1c-0.6,0-1.3,0.5-1.7,0.9
			c-1.7,2.3-3.2,4.6-4.8,7c-0.7,1-1.1,1.3-2.5,0.9c-4.9-1.4-9.3-3.5-13.5-6c-0.3-0.1-0.6-0.9-0.5-1.3
			C530.3,169.8,531.1,166.4,531.8,163.2z M527.1,142.6c5.7,15.3,24,25.8,42.5,18.3c18.7-7.6,24-27.5,18.3-42.1
			c-6.1-15.8-24.6-25.6-42.4-18.5C527.5,107.1,520.5,127.2,527.1,142.6z"/>
		<path class="st5" d="M527.1,142.6c-6.6-15.4,0.4-35.4,18.3-42.5c17.8-7,36.4,2.9,42.4,18.5c5.7,14.7,0.4,34.6-18.3,42.1
			C551.1,168.3,532.8,157.9,527.1,142.6z M564.1,147.1c8.7-3.4,14-13.4,10-23.2c-4.2-10.7-15.6-13.1-23.2-10.1
			c-7.8,3-14.1,12.7-10.1,23.3C544.4,146.3,554.9,150.8,564.1,147.1z"/>
		<path class="st6" d="M575.2,115.5c-0.9,0-1.7-0.4-2.2-1.1c-3.2-3.8-7.8-6-12.7-6c-1.7,0-2.9-1.3-2.9-2.9s1.3-2.9,2.9-2.9
			c6.6,0,12.9,2.9,17.2,8.1c1.1,1.2,0.9,3-0.4,4.1C576.6,115.3,575.9,115.5,575.2,115.5z"/>
	</g>
	<g>
		<path class="st7" d="M570.5,277c0.8-2.6,2.2-3.2,4.4-3.5c5.4-0.9,10.7-2,16.4-3c0-9.8,0-19.3,0-28.8c-6.3-1.4-11.9-2.8-17.6-3.6
			c-1.9-0.3-2.6-1.2-3.2-2.6c-1.9-4.4-3.8-8.8-5.5-13.2c-0.3-0.7-0.1-1.7,0.3-2.4c2.9-4.6,5.9-9.1,8.9-13.5c0.7-1.1,1.3-2.1,0-3.4
			c-2.1-2.1-3.6-4.6-5.7-6.6c-4.2-4-8.4-7.8-12.6-11.7c-1.1-1-1.8-0.7-2.8,0.1c-4.5,3-8.9,6-13.5,8.8c-0.8,0.5-2.1,0.6-2.9,0.3
			c-4.4-1.7-8.7-3.6-13.1-5.6c-1.1-0.5-2.5-1.5-2.7-2.5c-1.1-5.2-1.9-10.4-3-15.5c-0.1-0.8-1.2-1.9-2-2c-3.1-0.4-6.2-0.6-9.3-0.5
			c-1.2,0-2.4,0.1-3.6,0.1v32.4c0.1,0,0.2,0,0.3,0c32.9,0.1,56,27.6,55.7,56.5c-0.3,27-21.3,55.4-55.9,55.5c-0.1,0-0.1,0-0.1,0v32.6
			c0.9,0.1,1.9,0.1,2.8,0.1c3,0.1,6-0.1,9.1-0.6c1.1-0.1,2.8-1.1,3-1.9c1.2-5.2,1.9-10.4,3-15.5c0.3-1.3,0.7-2.3,2.6-2.9
			c4.4-1.4,8.4-3.7,12.7-5.4c1.1-0.4,2.9-0.3,4,0.4c4.2,2.6,8.3,5.4,12.3,8.1c1.5,1,2.7,1.7,4.1-0.2c0.7-1,2.1-1.6,3-2.5
			c5.1-5.2,10.1-10.4,15.2-15.7c0.3-0.3,0.1-1.6-0.3-2.2c-2.9-4.3-5.8-8.6-8.9-12.9c-1-1.4-1-2.6-0.3-4.2
			C567.4,285.1,569.3,281.2,570.5,277z"/>
		<path class="st8" d="M447.3,255.8c-0.7-28.6,22.9-55.8,55.8-55.8v-32.4c-4.2,0.1-8.3,0.3-12.5,0.5c-0.9,0.1-2.3,0.9-2.5,1.6
			c-0.9,4.2-1.5,8.6-2.5,12.9c-0.4,2-1,4.8-2.5,5.6c-4.6,2.5-9.5,4-14.4,5.9c-0.7,0.3-1.7,0.1-2.4-0.3c-4.4-2.7-8.9-5.4-13.1-8.5
			c-2.1-1.7-3.2-0.9-4.7,0.4c-1.8,1.5-3.6,3-5.2,4.8c-4,4.1-7.8,8.3-11.7,12.5c-1.2,1.3-0.9,2.2,0,3.6c3,4.4,6,9,8.9,13.5
			c0.4,0.6,0.6,1.5,0.3,2.1c-1.6,3.7-3.9,7.3-4.9,11.1c-0.9,3.8-2.9,5-6.5,5.5c-4.9,0.7-9.7,1.9-15,3c0,9.8,0,19.3,0,28.7
			c6.7,1.4,12.7,2.5,18.7,3.8c0.6,0.1,1.3,0.9,1.5,1.4c2.2,5.2,4.2,10.5,6.6,16c-3.2,4.6-6.6,9.6-9.9,14.6c-0.4,0.6-0.4,1.9,0,2.4
			c5.2,6.6,10.9,12.9,17.8,17.9c2,1.5,2.9,1.1,4.5,0c4-2.7,8-5.4,12.1-7.9c0.9-0.5,2.3-0.9,3.2-0.5c4.6,1.8,8.9,4.1,13.6,5.6
			c1.7,0.5,2.2,1.4,2.5,2.5c1.2,5.7,2.2,11.5,3.3,17.8c4.8,0.2,9.7,0.5,14.6,0.7v-32.9C469.1,312,446.6,283.7,447.3,255.8z"/>
		<path class="st2" d="M503.5,199.9c-0.1,0-0.2,0-0.3,0v25.3h0.1c14,0.1,30.6,11.1,30.6,30.7c0,18.1-14.6,30.6-30.6,30.6v25.4
			c0.1,0,0.1,0,0.1,0c34.6-0.1,55.6-28.6,55.9-55.5C559.5,227.6,536.4,200.1,503.5,199.9z"/>
		<path class="st9" d="M503.1,286.5c-16.8,0-30.7-13.8-30.6-30.7c0.1-19.3,16.4-30.6,30.6-30.6v-25.3c-32.9,0-56.5,27.3-55.8,55.9
			c-0.7,28,21.7,56.2,55.8,56.1V286.5C503.2,286.5,503.1,286.5,503.1,286.5z"/>
		<path class="st6" d="M532.3,230c-1.2,0-2.4-0.5-3.2-1.5c-4.6-5.4-11.2-8.5-18.3-8.5c-2.3,0-4.2-1.9-4.2-4.2s1.9-4.2,4.2-4.2
			c9.5,0,18.5,4.2,24.6,11.6c1.5,1.8,1.3,4.4-0.5,5.9C534.2,229.7,533.3,230,532.3,230z"/>
		<path class="st5" d="M503.2,335.5c0.9,0,1.7,0.1,2.5,0.1c0.2,0,0.5,0,0.7,0c0.7,0,1.4,0,2.1-0.1c0.2-1.1,0.4-2.1,0.6-3.2
			c0.4-2.2,0.8-4.4,1.3-6.6c0.2-0.9,0.4-1.8,0.7-2.6c-2.5,0.3-5.2,0.5-7.8,0.5L503.2,335.5L503.2,335.5z"/>
		<path class="st5" d="M510.9,190.3c-0.3-0.7-0.5-1.3-0.7-2.1c-0.7-3-1.3-6.2-1.9-9.1c-0.1-0.3-0.1-0.6-0.1-0.9c-0.5,0-1.1,0-1.6,0
			h-0.5c-0.9,0-1.9,0-2.9,0.1v11.6C505.8,189.9,508.4,190,510.9,190.3z"/>
		<path class="st5" d="M553.8,197.4c-0.1-0.1-0.1-0.1-0.3-0.3c-3,2-5.8,3.8-8.6,5.6c-0.5,0.3-1.1,0.7-1.7,0.9c2.4,1.8,4.6,3.8,6.7,6
			c2,2.1,3.9,4.2,5.6,6.5c0.2-0.5,0.5-0.9,0.7-1.4c1.9-3,4-6.2,6-9.1c-0.4-0.5-0.9-1-1.2-1.4C558.8,201.9,556.3,199.7,553.8,197.4z"
			/>
		<path class="st5" d="M555.6,297.8c-3.4,4.5-7.4,8.6-11.9,12.1c0.7,0.3,1.3,0.6,1.9,0.9c2.8,1.7,5.6,3.5,8.3,5.4
			c2.6-2.6,5.4-5.5,8.3-8.6c-1.7-2.3-3.3-4.8-5-7.3C556.4,299.6,555.9,298.6,555.6,297.8z"/>
		<path class="st5" d="M580.9,250.7c-3-0.7-6-1.3-8.7-1.7c-1.1-0.1-2.2-0.4-3.2-0.9c0.4,3,0.6,6,0.6,9.1c0,2.6-0.2,5.2-0.5,7.8
			c1.3-0.5,2.6-0.9,4.1-1.1c2.6-0.5,5.2-0.9,7.8-1.4L580.9,250.7z"/>
		<path class="st10" d="M430.2,249.8c-1.9,0.3-3.9,0.7-6,1.1v12c3.6,0.7,7,1.4,10.5,2.2c0.5,0.1,1,0.3,1.5,0.4
			c-0.3-2.8-0.5-5.8-0.4-8.6c-0.1-2.8,0.1-5.8,0.4-8.6C434.5,249,432.4,249.5,430.2,249.8z"/>
		<path class="st10" d="M495.4,185.1l-0.1,0.2c-0.3,1.4-0.7,3.2-1.5,5.1c2.9-0.4,5.8-0.6,8.7-0.6h0.3c0.1,0,0.2,0,0.3,0v-11.6
			c-2.2,0.1-4.4,0.1-6.6,0.2C496.2,180.6,495.9,182.8,495.4,185.1z"/>
		<path class="st10" d="M502.8,323.7h-0.4c-2.7,0-5.4-0.1-8.1-0.5c0.3,0.7,0.4,1.4,0.6,2.1c0.7,3.3,1.3,6.6,1.9,9.9
			c2.1,0.1,4.2,0.1,6.3,0.3v-11.8C503.1,323.7,502.9,323.7,502.8,323.7z"/>
		<path class="st10" d="M449.7,298.1c0,0-1.9,2.7-2.5,3.7c-1.4,2.1-2.8,4.2-4.2,6.3c2.5,2.8,5.2,5.7,8.3,8.3
			c2.9-1.9,5.8-3.8,8.6-5.6c0.6-0.4,1.2-0.7,1.9-0.9c-2.5-1.9-4.8-3.9-6.9-6.1C452.9,302,451.3,300.2,449.7,298.1z"/>
		<path class="st10" d="M457.5,201.3c-2.2-1.3-4.4-2.6-6.6-4.1c-0.3,0.2-0.5,0.5-0.7,0.7c-2.1,2.2-4.1,4.4-6.1,6.6
			c-0.4,0.4-0.9,0.9-1.2,1.4c2,3,4,6.1,5.8,9c0.2,0.4,0.4,0.7,0.7,1.1c1.7-2.1,3.4-4.1,5.2-6c2.2-2.3,4.5-4.3,7-6.2
			c-0.5-0.2-0.9-0.5-1.4-0.7C459.3,202.4,458.5,201.9,457.5,201.3z"/>
	</g>
	<g>
		<g>
			<g>
				<path class="st2" d="M286.6,284.7c0.3,0.5,0.3,1.1,1.2,1.6c13.3,4.7,26.1,9.7,38.5,16c19.7,10.1,39.5,20.6,58.7,25
					c0.8,0.1,0.5-1.1,0.6-1.8c-1.6-11.4-1.6-21.6-2.5-32.1c-18.1-2.5-36.4-12-55.2-20.5c-1.1-0.5-2.6-1.1-3.8-1.3
					c-0.7-0.4-1.4-0.7-2.1-1.1c-8.7-3.3-17.4-6.4-26.4-8.6C292,269.2,289.9,277,286.6,284.7L286.6,284.7z"/>
			</g>
			<g>
				<path class="st3" d="M304.6,239.4c-0.8,1.4-1.2,3-1.9,4.4c-2.9,5.8-5.6,11.4-8.3,17.4c8.8,2.5,17.2,5.1,25.5,8.5
					c11.9,4.9,22.5,10.5,34.2,15.2c9.8,3.7,18.9,6.4,28.2,8.4c-0.1-2.1-0.5-4.4-0.5-6.5c0.1-3.4-0.1-6.3-0.3-9.8
					c0.1-5.1,0.5-10.1-0.1-15.5c-0.3-0.5-0.8-0.7-1.4-1c-15-1.5-29.3-7.8-44.7-13.4c-9.1-3.6-18.8-6.7-29.1-8.3
					C305.7,238.8,305.3,239.2,304.6,239.4L304.6,239.4z"/>
			</g>
			<g>
				<path class="st4" d="M318.4,251c-0.8-0.1-1.6-0.2-1.9,0.3c-0.7,4.3-2.8,7.6-4.7,11.3c-0.7,1.9-1.4,3.6-0.7,5.6
					c0.8,1.1,2.8,0.9,3.9,1.5c-0.4-2.5,0.4-4.5,1.4-6.2c1.2-3.4,2.8-6.7,3.7-10.3C320.1,252.2,319.2,251.7,318.4,251L318.4,251z"/>
			</g>
			<g>
				<path class="st4" d="M333.7,256c-1-0.5-2,0-1.9,0.6c0.1,1.3-0.2,2.8-0.4,3.9c-1.7,4.2-3.9,8.5-3.7,13.4c1.3,1,2.6,1.1,4.2,1.5
					c-0.9-4.6,1.3-8.3,2.3-12.3C334.7,261.3,336.9,257.6,333.7,256L333.7,256z"/>
			</g>
			<g>
				<path class="st4" d="M348.4,260.3c-0.3-0.1-1.1-0.2-1.3,0.3c-0.7,3.8-1.1,7.9-2.1,11.6c-0.9,2.2-1.8,4.6-0.3,7.4
					c0.1,0.7,2.1,1.1,3.2,1.4c-0.6-4.2,0.3-7.8,1.6-11.4c0.6-2.6,1.5-5.2,0.7-8.1C350,261.1,349.1,260.6,348.4,260.3L348.4,260.3z"
					/>
			</g>
			<g>
				<path class="st4" d="M363.1,264.4c-0.7,0-1.4,0-1.5,0.3c0.3,5.4-1.4,10-1.4,15.6c-0.1,1.7-0.8,3,0.3,4.8
					c0.9,1.1,2.6,0.7,3.5,1.5c-0.6-2.3-0.1-4.4-0.3-6.6c-0.2-2.1,1-3.9,1.1-5.8c0.1-1.7,0.1-3,0.4-4.5c-0.1-1.1-0.1-2.4-0.2-3.4
					C364.9,265.6,364.4,264.7,363.1,264.4L363.1,264.4z"/>
			</g>
			<g>
				<g>
					<path class="st5" d="M306.2,285.2c0.4,1.2,2.2,2.5,3.7,2.7c0,0,0.5,0,0.7-0.3c0.5-2.6,0.4-5.2,1.5-7.2
						c1.8-3.2,2.8-6.8,3.2-10.7c-1.6-0.5-3-0.6-4.2-1.6c0.1,1.3,0.1,2.9-0.6,4.1C309.2,276.6,306.9,280.5,306.2,285.2L306.2,285.2z"
						/>
				</g>
				<g>
					<path class="st5" d="M324.6,292.5c0.7,1.7,2.6,2.8,4.3,2.4c-0.5-5.5,2.1-9.3,2.6-14.6c0.2-1.5,0.8-2.8,0.3-4.7
						c-1.2-0.3-2.4-0.6-3.8-1.3c0.7,5.2-1.6,9.1-3.2,13.5C324.2,289,325.2,291.2,324.6,292.5L324.6,292.5z"/>
				</g>
				<g>
					<path class="st5" d="M345,301.8c0.4,0.2,1.3,0.3,1.5-0.2c0.8-3.9,0.5-8.5,1.3-12.3c0.7-2.3,1.2-5,0.5-8
						c-1.1-0.3-2.3-0.5-3.7-1.3c-0.3,1.9,0.2,4.1,0,6c-1.2,4.6-3.5,8.7-1.8,14.3C343.1,300.8,344.3,301.4,345,301.8L345,301.8z"/>
				</g>
				<g>
					<path class="st5" d="M362.3,308.2c0.8,0.4,1.5,0.9,1.7-0.1c-0.3-4.6-0.1-8.9,0.7-12.9c0.3-2.9-0.3-5.9-0.4-8.7
						c-1.5-0.4-2.6-0.3-4-1.4c0.4,1.5,0.3,3.2,0.7,5.1c-0.2,5.7-2.5,10.2-0.7,16.6C360.8,307.4,361.5,307.8,362.3,308.2L362.3,308.2
						z"/>
				</g>
			</g>
		</g>
	</g>
</g>
<g>
	<path id="SVGCleanerId_0_7_" class="st9" d="M195.2,334.3H159l39.5,43.2v-39.6C198.4,336,197,334.3,195.2,334.3z"/>
</g>
<path class="st4" d="M393.1,273.8H266.9v168h64.4c19.1,0,19.1-22.5,19.1-39.7l61.8-109.2C412.2,282.3,403.6,273.8,393.1,273.8z"/>
<path class="st5" d="M143.8,273.8c-10.5,0-19.1,8.6-19.1,19.1l41.2,109.2c0,14.6,3.4,39.7,19.1,39.7h81.9v-168H143.8L143.8,273.8z"
	/>
<path class="st8" d="M214.5,413.2c-15.8,0-28.6,12.8-28.6,28.6c0,15.8,12.8,28.6,28.6,28.6s28.6-12.8,28.6-28.6
	S230.2,413.2,214.5,413.2z"/>
<path class="st7" d="M305.1,470.3c-15.8,0-28.6-12.8-28.6-28.6c0-15.8,12.8-28.6,28.6-28.6c15.8,0,28.6,12.8,28.6,28.6
	S320.9,470.3,305.1,470.3z"/>
<polygon class="st7" points="401.2,312.2 262.9,312.2 262.9,338.7 386.4,338.7 "/>
<polygon class="st8" points="132,312.2 142,338.7 266.9,338.7 266.9,312.2 "/>
<path class="st7" d="M598.1,498.7H105.8c-5.6,0-10.3-3.3-10.3-7.4v-13.4c0-4,4.6-7.4,10.3-7.4h492.4c5.6,0,10.3,3.3,10.3,7.4v13.4
	C608.4,495.4,603.8,498.7,598.1,498.7z"/>
<path class="st11" d="M165.5,522.1h-24.3c-2.5,0-4.6-2.1-4.6-4.6v-14.4c0-2.5,2.1-4.6,4.6-4.6h24.3c2.5,0,4.6,2.1,4.6,4.6v14.4
	C170,520,168,522.1,165.5,522.1z"/>
<path class="st11" d="M248.9,522.1h-24.2c-2.5,0-4.6-2.1-4.6-4.6v-14.4c0-2.5,2.1-4.6,4.6-4.6h24.2c2.5,0,4.6,2.1,4.6,4.6v14.4
	C253.4,520,251.4,522.1,248.9,522.1z"/>
<path class="st11" d="M332.3,522.1h-24.2c-2.5,0-4.6-2.1-4.6-4.6v-14.4c0-2.5,2.1-4.6,4.6-4.6h24.2c2.5,0,4.6,2.1,4.6,4.6v14.4
	C336.9,520,334.8,522.1,332.3,522.1z"/>
<path class="st11" d="M415.7,522.1h-24.3c-2.5,0-4.6-2.1-4.6-4.6v-14.4c0-2.5,2.1-4.6,4.6-4.6h24.3c2.5,0,4.6,2.1,4.6,4.6v14.4
	C420.2,520,418.2,522.1,415.7,522.1z"/>
<path class="st11" d="M499.3,522.1h-24.2c-2.5,0-4.6-2.1-4.6-4.6v-14.4c0-2.5,2.1-4.6,4.6-4.6h24.2c2.5,0,4.6,2.1,4.6,4.6v14.4
	C503.9,520,501.8,522.1,499.3,522.1z"/>
<path class="st11" d="M582.7,522.1h-24.3c-2.5,0-4.6-2.1-4.6-4.6v-14.4c0-2.5,2.1-4.6,4.6-4.6h24.3c2.5,0,4.6,2.1,4.6,4.6v14.4
	C587.2,520,585.2,522.1,582.7,522.1z"/>
</svg>
