<?xml version="1.0" encoding="utf-8"?>
<!-- Generator: Adobe Illustrator 19.0.0, SVG Export Plug-In . SVG Version: 6.00 Build 0)  -->
<svg version="1.1" id="Layer_1" xmlns="http://www.w3.org/2000/svg" xmlns:xlink="http://www.w3.org/1999/xlink" x="0px" y="0px"
	 viewBox="96 11 512 512" style="enable-background:new 96 11 512 512;" xml:space="preserve">
<style type="text/css">
	.st0{display:none;}
	.st1{display:none;fill:#9BAAAB;}
	.st2{fill:#CDD4D5;}
	.st3{fill:#FF8C29;}
	.st4{fill:#9BAAAB;}
	.st5{fill:#FD6A33;}
	.st6{fill:#FFFFFF;}
	.st7{fill:#FFD1A9;}
	.st8{fill:#0295AA;}
	.st9{fill:#365558;}
	.st10{display:none;fill:#F0353D;}
	.st11{fill:#F0353D;}
	.st12{fill:#4ACFD9;}
	.st13{fill:#E6EAEA;}
	.st14{fill:#BCD643;}
	.st15{fill:#687F82;}
</style>
<polygon class="st0" points="1356.7,-563 1098,-563 1098,-51 1610,-51 1610,-214.9 1356.7,-214.9 "/>
<rect x="1356.7" y="-563" class="st0" width="253.3" height="348.1"/>
<g class="st0">
	
		<text transform="matrix(1 0 0 1 1134.4224 -432.0488)" style="display:inline;fill:#CDD4D5; font-family:'Saira-Black'; font-size:64.1866px;">E = mc</text>
	
		<text transform="matrix(1 0 0 1 1327.1074 -453.4227)" style="display:inline;fill:#CDD4D5; font-family:'Saira-Black'; font-size:37.4208px;">2</text>
</g>
<g id="Layer_2_2_">
	<polygon class="st1" points="441.3,173.7 497.7,258 399.6,234.1 343.1,150.4 	"/>
	<polygon class="st2" points="443.8,171.6 358.9,151 301.3,233.6 386.2,254.4 	"/>
	<polygon class="st3" points="358.8,151.1 407.6,223.6 350,306.3 301.2,233.9 	"/>
	<polygon class="st4" points="443.8,171.6 492.6,244.1 435.1,326.7 386.2,254.4 	"/>
	<polygon class="st5" points="492.5,244.2 407.6,223.6 350,306.3 434.9,327 	"/>
	<polyline class="st2" points="443.6,171.9 487.9,163.8 536.7,236.7 492.5,244.2 	"/>
	<polyline class="st6" points="358.8,151.1 354.4,110 439.8,130.8 443.8,171.6 	"/>
	<polyline class="st7" points="358.6,151.4 352.3,113.5 401.2,186.4 407.5,223.8 	"/>
	<polyline class="st3" points="407.5,223.8 448.6,219.7 533.9,240.5 492.5,244.2 	"/>
	<path class="st6" d="M357.3,257.5c-2.7-4-5.4-7.9-8.1-12l-3.2-4.7c-1.1-1.6-2.3-3.3-3.3-4.9c-2.5-3.8-5.1-7.7-7.8-11.4
		c-2.4-3.2-2.1-9.4-0.2-11.9c4.2-5.8,8.4-11.8,12.4-17.7c1.8-2.6,3.6-5.1,5.4-7.7c2-2.9,4.6-3.6,7.1-1.8c0.8,0.6,1.6,1.4,2.2,2.4
		l0.8,1.2c1.8,2.6,3.6,5.3,5.4,8.1c0.4,0.6,0.8,1,1.2,1.3c0.6,0.4,1.1,0.4,1.5,0.3c0.8-0.2,1.4-1,1.8-1.5c0.9-1.4,1.9-2.8,2.9-4.2
		c0.8-1.1,1.4-0.7,1.7-0.5c0.3,0.2,0.6,0.5,1,1c1.2,1.8,1.3,3.8,0.3,5.3l-0.3,0.4c-0.8,1.1-1.5,2.3-2.4,3.3
		c-1.6,1.9-1.6,3.6-0.1,5.7c2,2.7,3.9,5.7,5.8,8.6l0.5,0.7c2.8,4.3,2.8,10.7,0.2,14.5c-6.1,8.7-12.2,17.5-18.2,26.1
		c-1.5,2-3.3,2.4-5.1,1.2C358.1,258.9,357.6,258.3,357.3,257.5z M356.1,237c-1.5,2.2-0.2,3.8,0.3,4.5c0.1,0.2,0.3,0.4,0.5,0.6
		c0,0.1,0.1,0.2,0.2,0.3c0.1,0.2,0.2,0.3,0.3,0.5c0.3,0.3,0.4,0.6,0.6,0.9c0.4,0.5,0.7,0.9,1,1.1c0.4,0.3,1.6,1,2.9-0.8
		c1-1.4,1-2.9-0.2-4.3c-0.5-0.6-1-1.4-1.6-2.3c-0.3-0.5-0.7-0.9-1.1-1.2C358.6,236,357.3,235.3,356.1,237z M350.8,225.9
		c-0.5,0.1-1.1,0.5-1.6,1.2c-1.3,2-0.2,3.6,0.3,4.3c0.2,0.2,0.8,1.2,0.8,1.2c0.1,0.1,0.4,0.6,0.9,0.9l0.1,0.1
		c0.9,0.5,2.1,0.5,2.9-0.1c1-0.8,1.6-2.4,0.5-4c0,0-0.9-1.1-1.5-2c-0.4-0.6-0.7-1-1.1-1.2C351.7,225.9,351.1,226,350.8,225.9z
		 M344.3,216.4c-0.5,0.1-1.1,0.5-1.6,1.2c-1.3,2-0.4,3.5,0.3,4.3l1.2,1.3c0.4,0.5,0.7,1.1,1.2,1.5l0,0c0.5,0.3,1,0.4,1.4,0.3
		c0.6-0.2,1.1-0.5,1.6-1.2c1.3-2,0.3-3.4-0.3-4.3c0,0-1.9-2.3-2.4-2.7C345.1,216.3,344.6,216.3,344.3,216.4z M364.8,222.7
		c-1.6,2.3-1.5,5.9,0.1,8.5c0.5,0.6,0.9,1.1,1.5,1.5l0,0c1.8,1.3,4.1,0.8,5.4-1.1c1.6-2.3,1.5-5.9-0.1-8.5c-0.5-0.6-0.9-1.1-1.5-1.5
		C368.4,220.3,366.2,220.7,364.8,222.7z M354.1,201.3c-1.1,0.2-1.9,0.9-2.6,1.9c-1.6,2.4-1.5,5.9,0.3,8.4c0.4,0.5,0.8,1.1,1.3,1.4
		l0,0c0.9,0.6,1.9,0.9,2.9,0.7c1.1-0.2,1.9-0.9,2.6-1.9c1.6-2.4,1.5-5.9-0.3-8.4c-0.4-0.5-0.8-1.1-1.3-1.4
		C356.1,201.3,355.1,201.1,354.1,201.3z"/>
	<path class="st6" d="M371.5,259.6c-0.2-0.2-0.4-0.5-0.5-0.7c-0.2-0.4-0.5-0.8-0.8-1.2c-0.5-0.6-0.5-1,0-1.7
		c1.3-1.8,2.6-3.7,3.9-5.6c0.5-0.7,2.1-3,2.1-3l0,0l0.9-1.2c1-1.4,2-2.9,3-4.4c0.2-0.2,0.3-0.5,0.5-0.7c0.2-0.3,0.5-0.7,0.7-0.9
		c0.2,0.3,0.5,0.7,0.7,1c0.2,0.2,0.4,0.6,0.7,0.9c1.4,2.1,1.4,4.5,0.2,6.4c-2.9,4.2-5.5,8-8,11.6c-1.1,1.4-1.9,0.8-2.2,0.6
		C372.1,260.5,371.7,260.2,371.5,259.6z"/>
	<path class="st6" d="M332.8,204.1c-1.4-2.1-1.5-4.6-0.3-6.3c2.5-3.8,5.2-7.7,8-11.6c1.1-1.6,2-1,2.3-0.7c0.3,0.2,0.6,0.5,1,1
		c0.2,0.2,0.4,0.5,0.5,0.7c0.2,0.4,0.5,0.8,0.8,1.2c0.6,0.7,0.5,1.1,0,1.9c-1.3,1.8-2.6,3.7-3.8,5.5c-0.5,0.7-1,1.4-1.5,2.1
		c-1.5,2.1-3,4.3-4.5,6.5c-0.4,0.6-0.8,1.2-1.2,1.5C333.8,205.5,333.3,204.8,332.8,204.1z"/>
	<polygon class="st8" points="315.7,213.1 364.6,285.4 355.8,298 306.9,225.6 	"/>
	<polygon class="st9" points="449.4,306.2 364.6,285.4 355.8,298 440.7,318.7 	"/>
	<path class="st10" d="M258.3,219.9c0.5-2.3,2.8-3.8,5.2-3.3l17.3,3.9c2.3,0.5,3.8,2.8,3.3,5.2c-0.5,2.3-2.8,3.8-5.2,3.3l-17.4-3.9
		C259.2,224.5,257.8,222.2,258.3,219.9z"/>
	<path class="st10" d="M264.4,250.9c-1.3-2-0.7-4.7,1.3-6l13.5-8.6c2-1.3,4.7-0.7,6,1.3c1.3,2,0.7,4.7-1.3,6l-13.5,8.6
		c-1,0.6-2.2,0.8-3.3,0.6C266,252.5,265,251.9,264.4,250.9z"/>
	<path class="st10" d="M284.1,213.9l-8.6-13.5c-1.3-2-0.7-4.7,1.3-6c2-1.3,4.7-0.7,6,1.3l8.6,13.5c1.3,2,0.7,4.7-1.3,6
		c-1,0.6-2.2,0.8-3.3,0.6C285.7,215.5,284.8,214.9,284.1,213.9z"/>
</g>
<g id="Layer_2_3_">
	<polygon class="st1" points="326.5,150.4 270,234 172,257.9 228.3,173.7 	"/>
	<polygon class="st2" points="283.4,254.2 368.1,233.5 310.6,150.9 225.8,171.6 	"/>
	<polygon class="st3" points="368.3,233.8 319.5,306.1 261.9,223.5 310.7,151.1 	"/>
	<polygon class="st4" points="283.4,254.2 234.5,326.5 177,243.9 225.8,171.6 	"/>
	<polygon class="st5" points="234.7,326.8 319.5,306.1 261.9,223.5 177.1,244.1 	"/>
	<polyline class="st2" points="177.1,244.1 133,236.5 181.7,163.7 226,171.8 	"/>
	<polyline class="st6" points="225.8,171.6 229.9,130.8 315.1,110 310.7,151.1 	"/>
	<polyline class="st7" points="262.1,223.6 268.4,186.4 317.2,113.5 310.9,151.3 	"/>
	<polyline class="st3" points="177.1,244.1 135.8,240.4 221,219.6 262.1,223.6 	"/>
	<path class="st6" d="M310.8,259c-1.8,1.3-3.6,0.8-5.1-1.2c-6-8.6-12.1-17.4-18.2-26.1c-2.6-3.7-2.5-10.2,0.2-14.4l0.5-0.7
		c1.9-2.9,3.8-5.9,5.8-8.6c1.5-2.1,1.5-3.8-0.1-5.7c-0.9-1-1.6-2.1-2.4-3.3l-0.3-0.4c-1-1.5-0.9-3.5,0.3-5.3c0.3-0.5,0.6-0.8,0.9-1
		c0.2-0.2,0.8-0.6,1.7,0.5c1.1,1.4,2,2.8,2.9,4.2c0.3,0.5,0.9,1.3,1.8,1.5c0.4,0.1,0.8,0.2,1.5-0.3c0.4-0.3,0.8-0.6,1.2-1.3
		c1.8-2.7,3.6-5.4,5.4-8l0.8-1.2c0.7-1,1.4-1.8,2.2-2.4c2.5-1.7,5.1-1.1,7.1,1.8c1.8,2.6,3.6,5.1,5.3,7.7c4,5.8,8.2,11.9,12.4,17.7
		c1.9,2.6,2.2,8.8-0.2,11.9c-2.7,3.7-5.3,7.6-7.8,11.4c-1,1.6-2.2,3.3-3.3,4.9l-3.2,4.7c-2.7,4-5.4,7.9-8.1,11.9
		C312,258.2,311.5,258.8,310.8,259z M310.5,236.3c-0.4,0.3-0.8,0.7-1.1,1.2c-0.6,0.9-1.1,1.7-1.6,2.3c-1.1,1.4-1.2,2.9-0.2,4.3
		c1.2,1.7,2.5,1,2.9,0.8c0.3-0.2,0.6-0.6,1-1.1c0.2-0.3,0.3-0.6,0.6-0.9c0.1-0.1,0.2-0.3,0.3-0.5c0.1-0.1,0.2-0.2,0.2-0.3
		c0.2-0.2,0.4-0.4,0.5-0.6c0.6-0.7,1.8-2.3,0.3-4.5C312.2,235.2,310.9,235.9,310.5,236.3z M317.3,226.3c-0.4,0.3-0.7,0.6-1.1,1.2
		c-0.6,0.9-1.5,2-1.5,2c-1.1,1.6-0.5,3.2,0.5,4c0.8,0.6,2,0.6,2.9,0.1l0.1-0.1c0.5-0.3,0.8-0.8,0.9-0.9c0,0,0.6-1,0.8-1.2
		c0.5-0.7,1.7-2.3,0.3-4.3c-0.5-0.7-1.1-1.1-1.6-1.2C318.4,225.9,317.8,225.8,317.3,226.3z M323.9,216.7c-0.5,0.3-2.4,2.7-2.4,2.7
		c-0.7,0.9-1.6,2.3-0.3,4.3c0.5,0.7,1,1.1,1.6,1.2c0.4,0.1,0.9,0,1.4-0.3l0,0c0.5-0.3,0.8-0.9,1.2-1.5l1.2-1.3
		c0.7-0.9,1.6-2.3,0.3-4.3c-0.5-0.7-1.1-1.1-1.6-1.2C324.9,216.2,324.4,216.2,323.9,216.7z M299.3,221.5c-0.6,0.4-1,0.9-1.5,1.5
		c-1.7,2.5-1.8,6.1-0.1,8.4c1.3,1.9,3.6,2.4,5.4,1.1l0,0c0.6-0.4,1-0.9,1.5-1.5c1.7-2.5,1.8-6.1,0.1-8.4
		C303.3,220.6,301.2,220.2,299.3,221.5z M312.6,201.9c-0.5,0.3-1,0.9-1.3,1.4c-1.8,2.5-1.8,6-0.3,8.4c0.7,1,1.6,1.7,2.6,1.9
		c1,0.2,2-0.1,2.9-0.7l0,0c0.5-0.3,1-0.9,1.3-1.4c1.8-2.5,1.8-6,0.3-8.4c-0.7-1-1.6-1.7-2.6-1.9C314.4,201,313.4,201.3,312.6,201.9z
		"/>
	<path class="st6" d="M297.1,260.5c-0.3,0.2-1.1,0.8-2.2-0.6c-2.5-3.5-5.2-7.3-8-11.6c-1.2-1.9-1.1-4.3,0.2-6.4
		c0.2-0.3,0.5-0.7,0.7-0.9c0.2-0.3,0.5-0.7,0.7-1c0.2,0.2,0.4,0.6,0.7,0.9c0.2,0.2,0.3,0.5,0.5,0.7c1,1.5,2,2.9,3,4.4l0.9,1.2l0,0
		c0,0,1.6,2.2,2.1,3c1.3,1.9,2.6,3.7,3.9,5.6c0.5,0.7,0.5,1.1,0,1.7c-0.3,0.4-0.6,0.8-0.8,1.2c-0.1,0.2-0.3,0.5-0.5,0.7
		C297.8,260,297.5,260.4,297.1,260.5z"/>
	<path class="st6" d="M335.3,205.8c-0.3-0.3-0.7-0.9-1.1-1.5c-1.5-2.2-3-4.4-4.5-6.5c-0.5-0.7-1-1.4-1.5-2.1
		c-1.3-1.8-2.6-3.7-3.8-5.5c-0.5-0.7-0.6-1.2,0-1.9c0.3-0.4,0.6-0.8,0.8-1.2c0.1-0.2,0.3-0.5,0.5-0.7c0.4-0.4,0.7-0.8,1-1
		c0.3-0.2,1.2-0.8,2.3,0.7c2.8,3.9,5.5,7.8,8,11.6c1.2,1.7,1.1,4.2-0.3,6.3C336.2,204.7,335.7,205.4,335.3,205.8z"/>
	<polygon class="st8" points="362.6,225.5 313.7,297.8 305,285.3 353.8,213 	"/>
	<polygon class="st9" points="228.9,318.5 313.7,297.8 305,285.3 220.2,306 	"/>
	<path class="st10" d="M408,225l-17.4,3.9c-2.3,0.5-4.6-0.9-5.2-3.3c-0.5-2.3,0.9-4.6,3.3-5.2l17.3-3.9c2.3-0.5,4.6,0.9,5.2,3.3
		C411.6,222.1,410.3,224.4,408,225z"/>
	<path class="st10" d="M402.4,252.6c-1.1,0.2-2.3,0-3.3-0.6l-13.5-8.6c-2-1.3-2.6-4-1.3-6c1.3-2,4-2.6,6-1.3l13.5,8.6
		c2,1.3,2.6,4,1.3,6C404.5,251.8,403.4,252.4,402.4,252.6z"/>
	<path class="st10" d="M382.6,215.6c-1.1,0.2-2.3,0-3.3-0.6c-2-1.3-2.6-4-1.3-6l8.6-13.5c1.3-2,4-2.6,6-1.3c2,1.3,2.6,4,1.3,6
		l-8.6,13.5C384.6,214.8,383.8,215.4,382.6,215.6z"/>
</g>
<g id="Layer_2_1_">
	<polygon class="st1" points="497.2,188.3 597.4,203.9 513.4,259.9 413.5,244.9 	"/>
	<polygon class="st2" points="497.3,185.1 424.7,233.6 446.6,331.9 519.3,283.5 	"/>
	<polygon class="st3" points="424.7,233.8 511.1,246.8 533.1,345.2 446.7,332.2 	"/>
	<polygon class="st4" points="497.3,185.1 583.7,198.1 605.7,296.4 519.3,283.5 	"/>
	<polygon class="st5" points="583.8,198.3 511.1,246.8 533.1,345.2 605.7,296.7 	"/>
	<polyline class="st2" points="497.4,185.4 521.4,147.3 608,160.7 583.8,198.3 	"/>
	<polyline class="st6" points="424.7,233.8 391.4,209.2 464.5,160.4 497.3,185.1 	"/>
	<polyline class="st7" points="424.8,234.1 392.6,213.1 479.4,226.5 511.2,247.1 	"/>
	<polyline class="st3" points="511.2,247.1 535.9,214.1 609,165.3 583.8,198.3 	"/>
	<path class="st6" d="M502,306.9c-4.8-0.7-9.5-1.4-14.3-2.1l-5.7-0.8c-1.9-0.3-3.9-0.5-5.8-0.9c-4.5-0.7-9.1-1.4-13.7-1.9
		c-4-0.4-8.3-4.8-8.9-7.9c-1.4-7-3-14.2-4.6-21.1c-0.7-3-1.4-6.1-2-9.1c-0.8-3.4,0.5-5.8,3.5-6.5c1-0.2,2.1-0.2,3.3,0l1.5,0.2
		c3.1,0.5,6.4,0.9,9.6,1.4c0.7,0.1,1.3,0.1,1.7,0c0.7-0.2,1-0.5,1.2-0.9c0.5-0.7,0.2-1.7,0.1-2.3c-0.4-1.6-0.8-3.3-1.1-5
		c-0.2-1.4,0.4-1.5,0.7-1.6c0.4-0.1,0.8-0.1,1.4,0c2.1,0.3,3.6,1.6,4.1,3.4l0.1,0.4c0.3,1.3,0.7,2.7,0.8,4c0.3,2.5,1.6,3.6,4.1,3.9
		c3.4,0.3,6.8,1,10.3,1.5l0.8,0.1c5,0.8,9.8,5.1,10.8,9.6c2.3,10.4,4.6,20.8,6.9,31.1c0.5,2.4-0.4,4.1-2.6,4.6
		C503.6,307.3,502.8,307.2,502,306.9z M486.1,293.9c0.6,2.6,2.6,2.8,3.5,2.8c0.2,0,0.5,0,0.8,0.1c0.1,0.1,0.2,0,0.4,0.1
		c0.2,0,0.4,0.1,0.6,0.1c0.4,0,0.7,0.1,1,0.2c0.6,0.1,1.1,0.1,1.5,0.1c0.4-0.1,1.8-0.6,1.4-2.6c-0.4-1.7-1.4-2.6-3.3-2.8
		c-0.8-0.1-1.7-0.2-2.7-0.4c-0.6-0.1-1.1-0.1-1.6,0C487.1,291.4,485.7,291.8,486.1,293.9z M474.4,290.3c-0.3,0.5-0.4,1.2-0.2,2
		c0.6,2.4,2.5,2.6,3.4,2.7c0.3,0,1.5,0.2,1.5,0.2c0.2,0,0.7,0.1,1.3-0.1l0.1,0c1-0.3,1.8-1.2,1.9-2.2c0.1-1.3-0.7-2.8-2.6-3.1
		c0,0-1.4-0.1-2.5-0.2c-0.7-0.1-1.2-0.1-1.6,0C475,289.6,474.6,290.1,474.4,290.3z M462.9,288.7c-0.3,0.5-0.4,1.2-0.2,2
		c0.6,2.3,2.3,2.6,3.4,2.7l1.8,0c0.6,0.1,1.3,0.3,1.9,0.1l0,0c0.6-0.1,1-0.5,1.1-0.8c0.3-0.5,0.4-1.2,0.2-2
		c-0.6-2.3-2.3-2.5-3.4-2.7c0,0-3-0.2-3.6-0.1C463.5,288,463.1,288.3,462.9,288.7z M481.5,277.8c0.6,2.7,3.3,5.1,6.3,5.6
		c0.8,0.1,1.4,0.1,2.1-0.1l0,0c2.2-0.5,3.4-2.5,2.8-4.8c-0.6-2.7-3.3-5.1-6.3-5.6c-0.8-0.1-1.4-0.1-2.1,0.1
		C482.1,273.5,481,275.4,481.5,277.8z M458.5,271.2c-0.6,0.9-0.6,2-0.4,3.2c0.7,2.8,3.3,5.1,6.4,5.5c0.6,0.1,1.3,0.1,1.9,0l0,0
		c1-0.2,1.9-0.8,2.4-1.6c0.6-0.9,0.6-2,0.4-3.2c-0.7-2.8-3.3-5.1-6.4-5.5c-0.6-0.1-1.3-0.1-1.9,0C459.9,269.7,459,270.3,458.5,271.2
		z"/>
	<path class="st6" d="M513.2,297.9c-0.3,0-0.6-0.1-0.9-0.1c-0.4-0.1-1-0.2-1.5-0.2c-0.8-0.1-1.1-0.3-1.3-1.1c-0.5-2.2-1-4.4-1.5-6.6
		c-0.2-0.9-0.8-3.6-0.8-3.6l0,0l-0.3-1.5c-0.4-1.7-0.8-3.4-1.2-5.2c-0.1-0.3-0.1-0.6-0.2-0.9c-0.1-0.4-0.2-0.8-0.2-1.1
		c0.3,0.1,0.8,0.1,1.2,0.2c0.3,0,0.7,0.1,1.1,0.1c2.4,0.4,4.3,2,4.8,4.1c1.2,5,2.2,9.5,3.1,13.7c0.3,1.7-0.7,1.9-1,2
		C514.3,298,513.8,298.1,513.2,297.9z"/>
	<path class="st6" d="M446.2,288.8c-2.5-0.4-4.4-2-4.9-4.1c-1.1-4.4-2.1-9.1-3.1-13.7c-0.4-1.9,0.6-2.1,1-2.2
		c0.4-0.1,0.8-0.1,1.4-0.1c0.3,0,0.6,0.1,0.9,0.1c0.4,0.1,1,0.2,1.5,0.2c0.9,0,1.2,0.4,1.4,1.3c0.5,2.2,1,4.4,1.5,6.5
		c0.2,0.9,0.4,1.7,0.6,2.5c0.6,2.5,1.1,5.1,1.7,7.7c0.2,0.7,0.3,1.4,0.3,1.9C447.9,289,447,288.9,446.2,288.8z"/>
	<polygon class="st8" points="441.2,307.5 527.5,320.4 530.9,335.4 444.5,322.4 	"/>
	<polygon class="st9" points="600.2,272 527.5,320.4 530.9,335.4 603.5,286.9 	"/>
	<path class="st10" d="M407.4,354.3c-1.4-2-0.9-4.6,1.1-6l14.6-10.1c2-1.4,4.6-0.9,6,1.1c1.4,2,0.9,4.6-1.1,6l-14.7,10.2
		C411.4,356.8,408.7,356.3,407.4,354.3z"/>
	<path class="st10" d="M434.3,370.8c-2.4-0.4-3.9-2.6-3.5-5l2.8-15.8c0.4-2.4,2.6-3.9,5-3.5c2.4,0.4,3.9,2.6,3.5,5l-2.8,15.8
		c-0.2,1.1-0.8,2.1-1.8,2.8C436.6,370.7,435.5,371.1,434.3,370.8z"/>
	<path class="st10" d="M420.4,331.2l-15.8-2.8c-2.4-0.4-3.9-2.6-3.5-5c0.4-2.4,2.6-3.9,5-3.5l15.8,2.8c2.4,0.4,3.9,2.6,3.5,5
		c-0.2,1.1-0.8,2.1-1.8,2.8C422.6,331.2,421.6,331.4,420.4,331.2z"/>
</g>
<g id="Layer_2_4_">
	<polygon class="st1" points="290.1,245.9 190.2,259.5 107,202.3 207.4,188.2 	"/>
	<polygon class="st2" points="184,282.9 255.9,332.4 279.2,234.5 207.3,185 	"/>
	<polygon class="st3" points="255.8,332.7 169.3,344.4 192.6,246.5 279.1,234.7 	"/>
	<polygon class="st4" points="184,282.9 97.5,294.7 120.8,196.7 207.3,185 	"/>
	<polygon class="st5" points="97.4,295 169.3,344.4 192.6,246.5 120.7,197 	"/>
	<polyline class="st2" points="120.7,197 97,159 183.8,146.8 207.2,185.3 	"/>
	<polyline class="st6" points="207.3,185 240.4,160.8 312.7,210.5 279.1,234.7 	"/>
	<polyline class="st7" points="192.6,246.7 224.6,226.5 311.5,214.5 279,235 	"/>
	<polyline class="st3" points="120.7,197 96,163.6 168.3,213.4 192.6,246.7 	"/>
	<path class="st6" d="M198.6,306.6c-2.1-0.5-3-2.2-2.5-4.6c2.4-10.2,4.9-20.6,7.4-30.9c1.1-4.4,5.9-8.7,10.9-9.4l0.8-0.1
		c3.4-0.5,6.9-1.1,10.3-1.4c2.6-0.3,3.8-1.4,4.2-3.8c0.2-1.3,0.5-2.6,0.9-3.9l0.1-0.4c0.5-1.8,2.1-3,4.2-3.3c0.6-0.1,1-0.1,1.4,0
		c0.3,0.1,1,0.2,0.7,1.6c-0.3,1.7-0.7,3.3-1.2,5c-0.1,0.6-0.4,1.6,0.1,2.3c0.2,0.3,0.5,0.7,1.2,0.9c0.4,0.1,1,0.2,1.7,0
		c3.2-0.5,6.5-0.9,9.6-1.3l1.5-0.2c1.2-0.2,2.3-0.2,3.3,0.1c3,0.7,4.2,3.1,3.4,6.5c-0.7,3-1.4,6.1-2.2,9.1c-1.7,6.9-3.4,14-4.9,21
		c-0.7,3.1-5.1,7.5-9,7.8c-4.6,0.5-9.2,1.1-13.7,1.7c-1.9,0.3-3.9,0.6-5.8,0.8l-5.7,0.8c-4.8,0.7-9.5,1.3-14.3,1.9
		C200.1,306.9,199.3,306.9,198.6,306.6z M215.4,291.2c-0.5-0.1-1.1-0.1-1.6,0c-1.1,0.2-2,0.3-2.7,0.4c-1.8,0.1-2.9,1-3.3,2.7
		c-0.5,2.1,0.9,2.6,1.3,2.7c0.4,0.1,0.8,0,1.5,0c0.3-0.1,0.7-0.2,1.1-0.1c0.2,0,0.3-0.1,0.6-0.1c0.2,0,0.3,0,0.4-0.1
		c0.3,0,0.6,0,0.8,0c0.9,0,2.9-0.2,3.5-2.8C217.4,291.8,216,291.3,215.4,291.2z M227.4,289.6c-0.4-0.1-0.9-0.1-1.6,0
		c-1.1,0.1-2.5,0.2-2.5,0.2c-1.9,0.2-2.8,1.8-2.7,3c0.1,1,0.9,1.9,1.9,2.2l0.1,0c0.6,0.1,1.1,0.1,1.3,0.1c0,0,1.1-0.2,1.5-0.2
		c0.9-0.1,2.8-0.3,3.4-2.6c0.2-0.8,0.1-1.5-0.2-2C228.4,290.2,228.1,289.7,227.4,289.6z M238.9,288.1c-0.6-0.1-3.6,0-3.6,0
		c-1.1,0.1-2.8,0.3-3.4,2.6c-0.2,0.8-0.1,1.5,0.2,2c0.2,0.3,0.5,0.7,1.1,0.8l0,0c0.6,0.1,1.3,0,1.9-0.1l1.8,0c1.1,0,2.8-0.3,3.4-2.6
		c0.2-0.8,0.1-1.5-0.2-2C240,288.6,239.6,288.2,238.9,288.1z M219,273c-0.7-0.2-1.3-0.2-2.1-0.1c-3,0.5-5.7,2.8-6.4,5.5
		c-0.5,2.3,0.6,4.3,2.8,4.8l0,0c0.7,0.2,1.3,0.2,2.1,0.1c3-0.5,5.7-2.8,6.4-5.5C222.3,275.4,221.2,273.5,219,273z M242.4,269.9
		c-0.6-0.1-1.3-0.2-1.9-0.1c-3.1,0.4-5.7,2.6-6.5,5.4c-0.3,1.2-0.2,2.3,0.3,3.2c0.5,0.8,1.4,1.4,2.4,1.7l0,0
		c0.6,0.1,1.3,0.2,1.9,0.1c3.1-0.4,5.7-2.6,6.5-5.4c0.3-1.2,0.2-2.3-0.3-3.2C244.4,270.7,243.5,270.1,242.4,269.9z"/>
	<path class="st6" d="M188.4,297.3c-0.4-0.1-1.3-0.3-1-2c0.9-4.2,2-8.8,3.3-13.7c0.6-2.1,2.4-3.7,4.9-4.1c0.4-0.1,0.8-0.1,1.1-0.1
		c0.4-0.1,0.9-0.1,1.2-0.2c-0.1,0.3-0.2,0.7-0.3,1.1c-0.1,0.3-0.1,0.6-0.2,0.9c-0.4,1.8-0.8,3.5-1.2,5.2l-0.4,1.5l0,0
		c0,0-0.6,2.7-0.8,3.6c-0.5,2.2-1.1,4.4-1.6,6.6c-0.2,0.8-0.5,1.1-1.3,1.1c-0.5,0-1,0.1-1.5,0.2c-0.2,0-0.6,0.1-0.9,0.1
		C189.2,297.6,188.8,297.5,188.4,297.3z"/>
	<path class="st6" d="M254.7,289.5c0-0.5,0.2-1.1,0.4-1.9c0.6-2.6,1.2-5.2,1.8-7.7c0.2-0.8,0.4-1.6,0.6-2.5c0.5-2.1,1-4.4,1.6-6.5
		c0.2-0.9,0.5-1.2,1.4-1.2c0.5,0,1-0.1,1.5-0.2c0.2,0,0.6-0.1,0.9-0.1c0.6,0,1,0,1.4,0.1s1.4,0.3,1,2.2c-1,4.7-2.1,9.3-3.3,13.7
		c-0.5,2.1-2.4,3.6-4.9,4C256.1,289.3,255.2,289.4,254.7,289.5z"/>
	<polygon class="st8" points="258.1,322.9 171.7,334.6 175.2,319.7 261.7,308 	"/>
	<polygon class="st9" points="99.7,285.2 171.7,334.6 175.2,319.7 103.3,270.3 	"/>
	<path class="st10" d="M288.8,356.4L274.3,346c-1.9-1.4-2.4-4.1-1-6c1.4-1.9,4.1-2.4,6-1l14.4,10.3c1.9,1.4,2.4,4.1,1,6
		C293.3,357.2,290.7,357.7,288.8,356.4z"/>
	<path class="st10" d="M264.4,370.6c-0.9-0.7-1.6-1.7-1.7-2.8l-2.6-15.8c-0.4-2.4,1.2-4.6,3.6-4.9c2.4-0.4,4.6,1.2,4.9,3.6l2.6,15.8
		c0.4,2.4-1.2,4.6-3.6,4.9C266.4,371.6,265.3,371.3,264.4,370.6z"/>
	<path class="st10" d="M278.9,331.3c-0.9-0.7-1.6-1.7-1.7-2.8c-0.4-2.4,1.2-4.6,3.6-4.9l15.8-2.6c2.4-0.4,4.6,1.2,4.9,3.6
		s-1.2,4.6-3.6,4.9l-15.8,2.6C280.8,332.2,279.8,332,278.9,331.3z"/>
</g>
<rect x="-621" y="11" class="st11" width="128" height="128"/>
<rect x="-493" y="11" class="st5" width="128" height="128"/>
<rect x="-365" y="11" class="st3" width="128" height="128"/>
<rect x="-237" y="11" class="st7" width="128" height="128"/>
<rect x="-621" y="139" class="st9" width="128" height="128"/>
<rect x="-493" y="139" class="st8" width="128" height="128"/>
<rect x="-365" y="139" class="st12" width="128" height="128"/>
<rect x="-621" y="267" class="st4" width="128" height="128"/>
<rect x="-493" y="267" class="st2" width="128" height="128"/>
<rect x="-365" y="267" class="st13" width="128" height="128"/>
<rect x="-237" y="267" class="st6" width="128" height="128"/>
<rect x="-621" y="395" class="st14" width="128" height="128"/>
<g>
	<g>
		<path id="SVGCleanerId_0_7_" class="st4" d="M159.9,359.3h-30.7l33.4,36.6v-33.6C162.6,360.7,161.4,359.3,159.9,359.3z"/>
	</g>
	<path class="st12" d="M327.5,308H220.6v142.2h54.5c16.2,0,16.2-19.1,16.2-33.6l52.3-92.5C343.6,315.3,336.4,308,327.5,308z"/>
	<path class="st8" d="M116.4,308c-8.9,0-16.2,7.3-16.2,16.2l34.9,92.5c0,12.3,2.9,33.6,16.2,33.6h69.4V308H116.4L116.4,308z"/>
	<path class="st7" d="M176.3,426c-13.4,0-24.2,10.8-24.2,24.2s10.8,24.2,24.2,24.2c13.4,0,24.2-10.8,24.2-24.2S189.6,426,176.3,426z
		"/>
	<circle class="st3" cx="176.3" cy="450.2" r="13.8"/>
	<path class="st7" d="M253,474.4c-13.4,0-24.2-10.8-24.2-24.2S239.6,426,253,426c13.4,0,24.2,10.8,24.2,24.2S266.4,474.4,253,474.4z
		"/>
	<circle class="st3" cx="253" cy="450.2" r="13.8"/>
	<polygon class="st3" points="334.3,340.6 217.2,340.6 217.2,363 321.8,363 	"/>
	<polygon class="st5" points="106.4,340.6 114.9,363 220.6,363 220.6,340.6 	"/>
</g>
<path class="st3" d="M597.6,500H106.2c-5.6,0-10.3-3-10.3-6.6v-12.1c0-3.6,4.6-6.6,10.3-6.6h491.5c5.6,0,10.3,3,10.3,6.6v12.1
	C607.9,497,603.3,500,597.6,500z"/>
<g>
	<path class="st15" d="M139.1,521.1h-21.9c-2.3,0-4.1-1.9-4.1-4.1v-13c0-2.3,1.9-4.1,4.1-4.1h21.9c2.3,0,4.1,1.9,4.1,4.1v13
		C143.2,519.2,141.4,521.1,139.1,521.1z"/>
	<path class="st15" d="M214.3,521.1h-21.9c-2.3,0-4.1-1.9-4.1-4.1v-13c0-2.3,1.9-4.1,4.1-4.1h21.9c2.3,0,4.1,1.9,4.1,4.1v13
		C218.4,519.2,216.6,521.1,214.3,521.1z"/>
	<path class="st15" d="M289.5,521.1h-21.9c-2.3,0-4.1-1.9-4.1-4.1v-13c0-2.3,1.9-4.1,4.1-4.1h21.9c2.3,0,4.1,1.9,4.1,4.1v13
		C293.7,519.2,291.8,521.1,289.5,521.1z"/>
	<path class="st15" d="M364.8,521.1h-21.9c-2.3,0-4.1-1.9-4.1-4.1v-13c0-2.3,1.9-4.1,4.1-4.1h21.9c2.3,0,4.1,1.9,4.1,4.1v13
		C368.8,519.2,367,521.1,364.8,521.1z"/>
</g>
<path class="st15" d="M439.9,521.1h-21.9c-2.3,0-4.1-1.9-4.1-4.1v-13c0-2.3,1.9-4.1,4.1-4.1h21.9c2.3,0,4.1,1.9,4.1,4.1v13
	C444.1,519.2,442.2,521.1,439.9,521.1z"/>
<path class="st15" d="M515.2,521.1h-21.9c-2.3,0-4.1-1.9-4.1-4.1v-13c0-2.3,1.9-4.1,4.1-4.1h21.9c2.3,0,4.1,1.9,4.1,4.1v13
	C519.3,519.2,517.4,521.1,515.2,521.1z"/>
<path class="st15" d="M590.4,521.1h-21.9c-2.3,0-4.1-1.9-4.1-4.1v-13c0-2.3,1.9-4.1,4.1-4.1h21.9c2.3,0,4.1,1.9,4.1,4.1v13
	C594.5,519.2,592.7,521.1,590.4,521.1z"/>
<g>
	<g>
		<path id="SVGCleanerId_0_1_" class="st4" d="M420.3,359.3h-30.7l33.4,36.6v-33.6C423,360.7,421.8,359.3,420.3,359.3z"/>
	</g>
	<path class="st12" d="M587.8,308H481v142.2h54.5c16.2,0,16.2-19.1,16.2-33.6l52.3-92.5C604,315.3,596.7,308,587.8,308z"/>
	<path class="st8" d="M376.8,308c-8.9,0-16.2,7.3-16.2,16.2l34.9,92.5c0,12.3,2.9,33.6,16.2,33.6H481V308H376.8L376.8,308z"/>
	<path class="st7" d="M436.6,426c-13.4,0-24.2,10.8-24.2,24.2s10.8,24.2,24.2,24.2s24.2-10.8,24.2-24.2S449.9,426,436.6,426z"/>
	<circle class="st3" cx="436.6" cy="450.2" r="13.8"/>
	<path class="st7" d="M513.3,474.4c-13.4,0-24.2-10.8-24.2-24.2S500,426,513.3,426c13.4,0,24.2,10.8,24.2,24.2
		S526.7,474.4,513.3,474.4z"/>
	<circle class="st3" cx="513.3" cy="450.2" r="13.8"/>
	<polygon class="st3" points="594.7,340.6 477.6,340.6 477.6,363 582.2,363 	"/>
	<polygon class="st5" points="366.8,340.6 375.2,363 481,363 481,340.6 	"/>
</g>
</svg>
