<?xml version="1.0" encoding="utf-8"?>
<!-- Generator: Adobe Illustrator 19.0.0, SVG Export Plug-In . SVG Version: 6.00 Build 0)  -->
<svg version="1.1" id="Layer_1" xmlns="http://www.w3.org/2000/svg" xmlns:xlink="http://www.w3.org/1999/xlink" x="0px" y="0px"
	 viewBox="96 11 512 512" style="enable-background:new 96 11 512 512;" xml:space="preserve">
<style type="text/css">
	.st0{display:none;fill:#9BAAAB;}
	.st1{display:none;}
	.st2{display:inline;}
	.st3{fill:#4ACFD9;}
	.st4{fill:#0295AA;}
	.st5{fill:#FFD1A9;}
	.st6{fill:#FF8C29;}
	.st7{fill:#FD6A33;}
	.st8{fill:#687F82;}
	.st9{fill:#E6EAEA;}
	.st10{fill:#CDD4D5;}
	.st11{fill:#F0353D;}
	.st12{fill:#9BAAAB;}
	.st13{fill:#365558;}
	.st14{fill:#FFFFFF;}
</style>
<polygon class="st0" points="1056,-118.5 875,-48.5 694,-118.5 875.5,-189.5 "/>
<g id="Layer_3_1_" class="st1">
	<polygon class="st2" points="1687,-624.4 1175,-624.4 1175,-111.6 1288.9,-111.6 1288.9,-504.5 1479,-504.5 1479,-111.6 
		1687,-111.6 	"/>
	<rect x="1288.9" y="-504.5" class="st2" width="190.1" height="392.9"/>
</g>
<path id="SVGCleanerId_0_3_" class="st0" d="M1248.1-198h-71.9l78.3,85.8V-191C1254.5-194.9,1251.7-198,1248.1-198z"/>
<path class="st3" d="M553,201.7c0-14.7-12-26.7-26.7-26.7H508v106.3L553,201.7z"/>
<path class="st3" d="M349.8,384v26h90.1c16.2,0,22.5-11.6,25.1-26h-97.8H349.8z"/>
<path class="st4" d="M196,280.1V175h-18.4c-14.7,0-26.7,12-26.7,26.7l57.7,152.8c0,20.4,4.8,55.5,26.7,55.5h114.6v-26h-59.1
	L196,280.1z"/>
<path class="st5" d="M278,370c-0.5,0-1.1,0-1.6,0c-22.1,0-40,17.9-40,40s17.9,40,40,40s40-17.9,40-40c0-9.9-3.7-19-9.7-26h-16
	L278,370z"/>
<circle class="st6" cx="276.5" cy="410" r="22.8"/>
<path class="st5" d="M363.3,410c0,22.1,17.9,40,40,40s40-17.9,40-40c0-9.9-3.6-19-9.6-26h-60.7C366.9,391,363.3,400.1,363.3,410z"/>
<circle class="st6" cx="403.3" cy="410" r="22.8"/>
<polygon class="st6" points="537.7,228.8 508,228.8 508,265.8 517,265.8 "/>
<polygon class="st7" points="161.1,228.8 175.1,265.8 196,265.8 196,228.8 "/>
<path class="st6" d="M597.7,489.6H106.3c-5.6,0-10.3-4.6-10.3-10.3v-18.7c0-5.6,4.6-10.3,10.3-10.3h491.5c5.6,0,10.3,4.6,10.3,10.3
	v18.7C608,485,603.4,489.6,597.7,489.6z"/>
<g>
	<path class="st8" d="M194,522.4h-34c-3.5,0-6.4-2.9-6.4-6.4v-20.1c0-3.5,2.9-6.4,6.4-6.4h34c3.5,0,6.4,2.9,6.4,6.4V516
		C200.3,519.5,197.5,522.4,194,522.4z"/>
	<path class="st8" d="M310.6,522.4h-33.9c-3.5,0-6.4-2.9-6.4-6.4v-20.1c0-3.5,2.9-6.4,6.4-6.4h33.9c3.5,0,6.4,2.9,6.4,6.4V516
		C317,519.5,314.1,522.4,310.6,522.4z"/>
	<path class="st8" d="M427.3,522.4h-33.9c-3.5,0-6.4-2.9-6.4-6.4v-20.1c0-3.5,2.9-6.4,6.4-6.4h33.9c3.5,0,6.4,2.9,6.4,6.4V516
		C433.7,519.5,430.8,522.4,427.3,522.4z"/>
	<path class="st8" d="M544,522.4h-34c-3.5,0-6.4-2.9-6.4-6.4v-20.1c0-3.5,2.9-6.4,6.4-6.4h34c3.5,0,6.4,2.9,6.4,6.4V516
		C550.3,519.5,547.5,522.4,544,522.4z"/>
</g>
<g>
	<path class="st5" d="M442.8,48.7"/>
	<path class="st9" d="M488,356.5V28.3c0-4.2-3.1-7.6-6.8-7.6h-134v343.2h134C484.9,364,488,360.7,488,356.5z"/>
	<path class="st10" d="M222.8,20.8c-3.7,0-6.8,3.3-6.8,7.5v244.1l83.6,91.6h47.5V20.8H222.8z"/>
	<g>
		<path class="st7" d="M378.1,110.4h-123c-2.1,0-3.7,2.4-3.7,5.4v43c0,3,1.7,5.4,3.7,5.4h123c2.1,0,3.7-2.4,3.7-5.4v-43
			C381.8,112.8,380.2,110.4,378.1,110.4z"/>
		<path class="st6" d="M411.8,182.1H255.1c-2.1,0-3.7,2.4-3.7,5.4v43c0,3,1.7,5.4,3.7,5.4h156.7c2.1,0,3.7-2.4,3.7-5.4v-43
			C415.5,184.5,413.9,182.1,411.8,182.1z"/>
		<path class="st3" d="M441.6,253.8H255.1c-2.1,0-3.7,2.4-3.7,5.4v43c0,3,1.7,5.4,3.7,5.4h186.5c2.1,0,3.7-2.4,3.7-5.4v-43
			C445.3,256.2,443.6,253.8,441.6,253.8z"/>
		<path class="st11" d="M255.1,110.4c-2.1,0-3.7,2.4-3.7,5.4v43c0,3,1.7,5.4,3.7,5.4h97.2v-53.8H255.1L255.1,110.4z"/>
		<path class="st7" d="M255.1,182.1c-2.1,0-3.7,2.4-3.7,5.4v43c0,3,1.7,5.4,3.7,5.4h97.2v-53.8L255.1,182.1L255.1,182.1z"/>
		<path class="st4" d="M255.1,253.8c-2.1,0-3.7,2.4-3.7,5.4v43c0,3,1.7,5.4,3.7,5.4h97.2v-53.8L255.1,253.8L255.1,253.8z"/>
	</g>
	<g>
		<path id="SVGCleanerId_0_4_" class="st12" d="M292.8,272.4H216l83.6,91.6v-84C299.6,275.8,296.6,272.4,292.8,272.4z"/>
	</g>
	<g>
		<path class="st13" d="M348.4,354.9c-3,0-5.4-2.4-5.4-5.4v-258c0-3,2.4-5.4,5.4-5.4s5.4,2.4,5.4,5.4v258
			C353.7,352.5,351.3,354.9,348.4,354.9z"/>
		<path class="st12" d="M382.8,11.6H311c-3,0-5.4,2.4-5.4,5.4v50.7c0,1.8,0.9,3.5,2.5,4.5l37.3,23.9c0.9,0.6,1.9,0.8,2.9,0.8
			c1.1,0,2.1-0.3,3.1-1L385.8,72c1.4-1,2.3-2.7,2.3-4.4V16.9C388.1,14,385.7,11.6,382.8,11.6z"/>
		<path class="st8" d="M311.1,11.6c-3,0-5.4,2.4-5.4,5.4v50.7c0,1.8,0.9,3.5,2.5,4.5l37.3,23.9c0.9,0.6,1.9,0.8,2.9,0.8V11.6H311.1
			L311.1,11.6z"/>
		<path class="st14" d="M359.8,59.6c-3,0-5.4-2.4-5.4-5.4V34.1c0-3,2.4-5.4,5.4-5.4s5.4,2.4,5.4,5.4v20.1
			C365.2,57.2,362.8,59.6,359.8,59.6z"/>
	</g>
</g>
</svg>
