<?xml version="1.0" encoding="utf-8"?>
<!-- Generator: Adobe Illustrator 19.0.0, SVG Export Plug-In . SVG Version: 6.00 Build 0)  -->
<svg version="1.1" id="Layer_1" xmlns="http://www.w3.org/2000/svg" xmlns:xlink="http://www.w3.org/1999/xlink" x="0px" y="0px"
	 viewBox="206 -206 512 512" style="enable-background:new 206 -206 512 512;" xml:space="preserve">
<style type="text/css">
	.st0{display:none;fill:#9BAAAB;}
	.st1{display:none;}
	.st2{display:inline;}
	.st3{fill:#9BAAAB;}
	.st4{fill:#365558;}
	.st5{fill:#0295AA;}
	.st6{fill:#CDD4D5;}
	.st7{fill:#E6EAEA;}
	.st8{fill:#4ACFD9;}
	.st9{fill:#FFFFFF;}
	.st10{fill:#FFD1A9;}
	.st11{fill:#FF8C29;}
	.st12{fill:#FD6A33;}
	.st13{fill:#687F82;}
</style>
<polygon class="st0" points="864,-140.5 683,-70.5 502,-140.5 683.5,-211.5 "/>
<g id="Layer_3_1_" class="st1">
	<polygon class="st2" points="1495,-646.4 983,-646.4 983,-133.6 1096.9,-133.6 1096.9,-526.5 1287,-526.5 1287,-133.6 1495,-133.6 
			"/>
	<rect x="1096.9" y="-526.5" class="st2" width="190.1" height="392.9"/>
</g>
<path id="SVGCleanerId_0_3_" class="st0" d="M1056.1-220h-71.9l78.3,85.8V-213C1062.5-216.9,1059.7-220,1056.1-220z"/>
<g>
	<path class="st3" d="M594.6,74.8L637.9,4v-146c0-2.8-2-5-4.5-5.1l-88.5,0.1V79.8l45.3,0C592.6,79.8,594.6,77.6,594.6,74.8z"/>
	<path class="st4" d="M462.7-147c-2.4,0-4.5,2.2-4.5,4.9V19.2l55.2,60.5l31.4,0v-226.7L462.7-147z"/>
	<g>
		<path class="st5" d="M489.3-107.3c-2.4,0-4.5,2.2-4.5,4.9c0,2.7,2,5,4.5,5l55.6,0v-9.9L489.3-107.3z"/>
		<path class="st5" d="M489.3-65c-2.4,0-4.5,2.2-4.5,4.9c0,2.7,2,5,4.5,5l55.6,0v-10L489.3-65L489.3-65z"/>
		<path class="st5" d="M484.7-17.7c0,2.8,2,5,4.5,5l55.6,0v-10l-55.6,0C486.8-22.7,484.7-20.5,484.7-17.7z"/>
		<path class="st5" d="M484.7,24.5c0,2.8,2,5,4.5,5l55.6,0v-10l-55.6,0C486.8,19.6,484.7,21.9,484.7,24.5z"/>
	</g>
	<g>
		<path class="st4" d="M604.9-102.3c0-2.8-2-5-4.5-5l-55.6,0v9.9l55.6,0C602.9-97.4,604.9-99.6,604.9-102.3z"/>
		<path class="st4" d="M604.9-60c0-2.8-2-5-4.5-5v-0.1l-55.6,0v10l55.6,0C602.9-55.1,604.9-57.2,604.9-60z"/>
		<path class="st4" d="M604.9-17.6c0-2.8-2-5-4.5-5.1l-55.6,0v10l55.6,0C602.9-12.7,604.9-15,604.9-17.6z"/>
		<path class="st4" d="M604.9,24.5c0-2.7-2-4.9-4.5-5.1l-55.6,0v10l55.6,0C602.9,29.5,604.9,27.3,604.9,24.5z"/>
	</g>
</g>
<g>
	<path id="SVGCleanerId_0_2_" class="st3" d="M508.9-151.1l-50.7,0l55.2,60.5V-146C513.4-148.8,511.4-151.1,508.9-151.1z"/>
</g>
<path class="st6" d="M591.3,19.6v-216.8c0-2.8-2-5-4.5-5.1l-88.5,0V24.5l88.5,0C589.3,24.5,591.3,22.3,591.3,19.6z"/>
<path class="st3" d="M416.1-202.2c-2.4,0-4.5,2.2-4.5,4.9V-36l55.2,60.5l31.4,0v-226.7L416.1-202.2z"/>
<g>
	<path class="st5" d="M442.7-162.6c-2.4,0-4.5,2.2-4.5,4.9c0,2.8,2,5,4.5,5l55.6,0v-9.9L442.7-162.6z"/>
	<path class="st5" d="M442.7-120.2c-2.4,0-4.5,2.2-4.5,4.9s2,5,4.5,5l55.6,0v-10L442.7-120.2L442.7-120.2z"/>
	<path class="st5" d="M438.2-73c0,2.8,2,5,4.5,5l55.6,0v-10l-55.6,0C440.2-78,438.2-75.7,438.2-73z"/>
	<path class="st5" d="M438.2-30.8c0,2.8,2,5,4.5,5l55.6,0v-10l-55.6,0C440.2-35.7,438.2-33.5,438.2-30.8z"/>
</g>
<g>
	<path class="st5" d="M558.4-157.6c0-2.8-2-5-4.5-5l-55.6,0v9.9l55.6,0C556.4-152.7,558.4-154.8,558.4-157.6z"/>
	<path class="st5" d="M558.4-115.3c0-2.8-2-5-4.5-5l0,0l-55.6,0v10l55.6,0C556.4-110.3,558.4-112.5,558.4-115.3z"/>
	<path class="st5" d="M558.4-73c0-2.8-2-5-4.5-5.1l-55.6,0v10l55.6,0C556.4-68.1,558.4-70.2,558.4-73z"/>
	<path class="st5" d="M558.4-30.7c0-2.7-2-4.9-4.5-5.1l-55.6,0v10l55.6,0C556.4-25.8,558.4-27.9,558.4-30.7z"/>
</g>
<g>
	<path id="SVGCleanerId_0_5_" class="st3" d="M462.3-114.5l-50.7,0l55.2,60.5v-55.5C466.9-112.2,464.9-114.4,462.3-114.5z"/>
</g>
<path class="st7" d="M544.8,49.3v-216.8c0-2.8-2-5-4.5-5.1l-88.5,0.1V54.2l88.5,0C542.8,54.3,544.8,52,544.8,49.3z"/>
<path class="st6" d="M369.6-172.5c-2.4,0-4.5,2.2-4.5,4.9V-6.3l55.2,60.5l31.4,0v-226.7L369.6-172.5z"/>
<g>
	<path class="st5" d="M396.2-132.8c-2.4,0-4.5,2.2-4.5,4.9c0,2.8,2,5,4.5,5l55.6,0v-9.9L396.2-132.8z"/>
	<path class="st5" d="M396.2-90.5c-2.4,0-4.5,2.2-4.5,4.9s2,5,4.5,5l55.6,0v-10L396.2-90.5L396.2-90.5z"/>
	<path class="st5" d="M391.6-43.2c0,2.8,2,5,4.5,5l55.6,0v-10l-55.6,0C393.7-48.2,391.6-46,391.6-43.2z"/>
	<path class="st5" d="M391.6-1c0,2.8,2,5,4.5,5l55.6,0v-10l-55.6,0C393.7-6,391.6-3.7,391.6-1z"/>
</g>
<g>
	<path class="st8" d="M511.8-128.3c0-2.8-2-5-4.5-5l-55.6,0v9.9l55.6,0C509.8-123.4,511.8-125.6,511.8-128.3z"/>
	<path class="st8" d="M511.8-86.1c0-2.8-2-5-4.5-5v-0.1l-55.6,0.1v10l55.6,0C509.8-81.1,511.8-83.3,511.8-86.1z"/>
	<path class="st8" d="M511.8-43.7c0-2.8-2-5-4.5-5.1l-55.6,0v10l55.6,0C509.8-38.8,511.8-41,511.8-43.7z"/>
	<path class="st8" d="M511.8-1.5c0-2.7-2-4.9-4.5-5.1l-55.6,0v10l55.6,0C509.8,3.4,511.8,1.2,511.8-1.5z"/>
</g>
<g>
	<path id="SVGCleanerId_0_6_" class="st3" d="M415.8-79.2l-50.7,0l55.2,60.5v-55.5C420.3-77,418.3-79.3,415.8-79.2z"/>
</g>
<path class="st9" d="M488.5,98.9v-216.8c0-2.8-2-5-4.5-5.1l-88.6,0.1v226.7l88.5,0C486.4,103.9,488.5,101.7,488.5,98.9z"/>
<path class="st7" d="M313.2-122.9c-2.4,0-4.5,2.2-4.5,4.9V43.3l55.2,60.5l31.4,0v-226.7L313.2-122.9z"/>
<g>
	<path class="st5" d="M339.8-83.1c-2.4,0-4.5,2.2-4.5,4.9s2,5,4.5,5l55.6,0v-9.9L339.8-83.1z"/>
	<path class="st5" d="M339.8-40.8c-2.4,0-4.5,2.2-4.5,4.9c0,2.7,2,5,4.5,5l55.6,0v-10L339.8-40.8L339.8-40.8z"/>
	<path class="st5" d="M335.4,6.4c0,2.8,2,5,4.5,5l55.6,0v-10l-55.6,0C337.3,1.5,335.4,3.7,335.4,6.4z"/>
	<path class="st5" d="M335.4,48.7c0,2.8,2,5,4.5,5l55.6,0v-10l-55.6,0C337.3,43.7,335.4,46,335.4,48.7z"/>
</g>
<g>
	<path class="st8" d="M455.5-78.1c0-2.8-2-5-4.5-5l-55.6,0v9.9l55.6,0C453.5-73.2,455.5-75.4,455.5-78.1z"/>
	<path class="st8" d="M455.5-35.9c0-2.8-2-5-4.5-5v-0.1l-55.6,0v10l55.6,0C453.5-30.9,455.5-33.1,455.5-35.9z"/>
	<path class="st8" d="M455.5,6.5c0-2.8-2-5-4.5-5.1l-55.6,0v10l55.6,0C453.5,11.4,455.5,9.3,455.5,6.5z"/>
	<path class="st8" d="M455.5,48.7c0-2.7-2-4.9-4.5-5.1l-55.6,0v10l55.6,0C453.5,53.6,455.5,51.4,455.5,48.7z"/>
</g>
<g>
	<path id="SVGCleanerId_0_7_" class="st3" d="M359.5,43.4l-50.7,0l55.2,60.5V48.4C364,45.7,362,43.4,359.5,43.4z"/>
</g>
<path class="st8" d="M636.4-41.3H459.8v235h90.1c26.7,0,26.7-31.5,26.7-55.5l86.5-152.8C663.1-29.3,651.1-41.3,636.4-41.3z"/>
<path class="st5" d="M287.6-41.3c-14.7,0-26.7,12-26.7,26.7l57.7,152.8c0,20.4,4.8,55.5,26.7,55.5h114.6v-235H287.6z"/>
<path class="st10" d="M386.5,153.7c-22.1,0-40,17.9-40,40s17.9,40,40,40s40-17.9,40-40S408.5,153.7,386.5,153.7z"/>
<circle class="st11" cx="386.5" cy="193.7" r="22.8"/>
<path class="st10" d="M513.3,233.7c-22.1,0-40-17.9-40-40s17.9-40,40-40c22.1,0,40,17.9,40,40S535.4,233.7,513.3,233.7z"/>
<circle class="st11" cx="513.3" cy="193.7" r="22.8"/>
<polygon class="st11" points="647.7,12.5 454.2,12.5 454.2,49.5 627,49.5 "/>
<polygon class="st12" points="271.1,12.5 285.1,49.5 459.8,49.5 459.8,12.5 "/>
<path class="st11" d="M707.7,273.3H216.3c-5.6,0-10.3-4.6-10.3-10.3v-18.7c0-5.6,4.6-10.3,10.3-10.3h491.5c5.6,0,10.3,4.6,10.3,10.3
	V263C718,268.7,713.4,273.3,707.7,273.3z"/>
<g>
	<path class="st13" d="M304,306.1H270c-3.5,0-6.4-2.9-6.4-6.4v-20.1c0-3.5,2.9-6.4,6.4-6.4H304c3.5,0,6.4,2.9,6.4,6.4v20.1
		C310.3,303.2,307.5,306.1,304,306.1z"/>
	<path class="st13" d="M420.6,306.1h-33.9c-3.5,0-6.4-2.9-6.4-6.4v-20.1c0-3.5,2.9-6.4,6.4-6.4h33.9c3.5,0,6.4,2.9,6.4,6.4v20.1
		C427,303.2,424.1,306.1,420.6,306.1z"/>
	<path class="st13" d="M537.3,306.1h-33.9c-3.5,0-6.4-2.9-6.4-6.4v-20.1c0-3.5,2.9-6.4,6.4-6.4h33.9c3.5,0,6.4,2.9,6.4,6.4v20.1
		C543.7,303.2,540.8,306.1,537.3,306.1z"/>
	<path class="st13" d="M654,306.1H620c-3.5,0-6.4-2.9-6.4-6.4v-20.1c0-3.5,2.9-6.4,6.4-6.4H654c3.5,0,6.4,2.9,6.4,6.4v20.1
		C660.3,303.2,657.5,306.1,654,306.1z"/>
</g>
</svg>
