<?xml version="1.0" encoding="utf-8"?>
<!-- Generator: Adobe Illustrator 19.0.0, SVG Export Plug-In . SVG Version: 6.00 Build 0)  -->
<svg version="1.1" id="Layer_1" xmlns="http://www.w3.org/2000/svg" xmlns:xlink="http://www.w3.org/1999/xlink" x="0px" y="0px"
	 viewBox="206 -206 512 512" style="enable-background:new 206 -206 512 512;" xml:space="preserve">
<style type="text/css">
	.st0{display:none;}
	.st1{display:inline;}
	.st2{fill:#FFD1A9;}
	.st3{fill:#FF8C29;}
	.st4{fill:#FD6A33;}
	.st5{fill:#4ACFD9;}
	.st6{fill:#0295AA;}
	.st7{fill:#9BAAAB;}
	.st8{fill:#365558;}
	.st9{fill:#CDD4D5;}
	.st10{fill:#E6EAEA;}
	.st11{fill:#FFFFFF;}
</style>
<g id="Layer_3" class="st0">
	<rect x="824" y="-824.4" class="st1" width="512" height="512.8"/>
</g>
<path class="st2" d="M686.5,129.5H462.3v120h208.2c11.8,0,21.5-9.7,21.5-21.5v-98C690.2,129.7,688.4,129.5,686.5,129.5z"/>
<path class="st2" d="M237.5,129.5c-1.9,0-3.7,0.2-5.5,0.5v98c0,11.8,9.7,21.5,21.5,21.5h208.8v-120H237.5z"/>
<path class="st3" d="M692,130v98c0,11.8-9.7,21.5-21.5,21.5H462.3v29h224.2c17.3,0,31.5-14.2,31.5-31.5v-86
	C718,145.5,706.7,132.6,692,130z"/>
<rect x="462" y="249.5" class="st3" width="0.3" height="29"/>
<path class="st4" d="M232,228v-98c-14.7,2.6-26,15.6-26,31v86c0,17.3,14.2,31.5,31.5,31.5H462v-29H253.5
	C241.7,249.5,232,239.8,232,228z"/>
<rect x="462.3" y="129.3" class="st5" width="229.7" height="91"/>
<rect x="232" y="129.3" class="st6" width="230.3" height="91"/>
<path class="st7" d="M686.5,219.5H462.3v30h208.2c11.8,0,21.5-9.7,21.5-21.5v-8C690.2,219.7,688.4,219.5,686.5,219.5z"/>
<path class="st8" d="M237.5,219.5c-1.9,0-3.7,0.2-5.5,0.5v8c0,11.8,9.7,21.5,21.5,21.5h208.8v-30H237.5z"/>
<g>
	<g>
		<path class="st9" d="M263.5,198.5c1.1,0.9,1.5,2.2,4.9,2.8c51.4,4.4,100.8,9.6,149,17.9c76.6,13.1,154,27,227.3,28.3
			c3,0,1.7-2.6,1.8-4c-8.6-23.2-10.9-44.6-16.5-66.3c-68.9,2.3-140.3-10.2-213.3-20.4c-4.1-0.7-10-1.2-14.6-1.2
			c-2.8-0.5-5.4-1-8.3-1.5c-33.8-3.4-67.2-6.2-101.5-7.3C280.3,163.6,274,181,263.5,198.5L263.5,198.5z"/>
	</g>
	<g>
		<path class="st7" d="M321.3,96.1c-2.7,3.2-3.8,6.7-6.2,10.1c-9.7,13.3-18.4,26.2-27.3,39.8c33.8,1.7,66.2,3.6,98.3,7.3
			c45.9,5.4,87.2,12.7,132.6,17.9c37.9,3.8,72.8,5.6,108.5,6.1c-0.7-4.4-2.8-9.1-3.5-13.4c-0.3-7.1-1.9-13.1-3.5-20.4
			c-0.7-10.7-0.3-21.3-4-32.4c-1.1-0.9-3.2-1.2-5.5-1.5c-57.1,3-112.4-4.4-171.9-9.9c-35.4-3.9-72.6-6.3-111.7-5.6
			C325.1,94.3,323.7,95.3,321.3,96.1L321.3,96.1z"/>
	</g>
	<g>
		<path class="st8" d="M375.7,114.8c-3,0.2-6,0.2-7.2,1.3c-1.5,9.3-8.8,17-15.2,25.5c-2.3,4.2-4.4,8.2-1.5,12
			c3.2,1.9,11,0.6,15.1,1.5c-2.1-5,0.5-9.6,3.8-13.6c3.7-7.7,9-15.2,11.7-23C382.7,116.6,379.1,115.9,375.7,114.8L375.7,114.8z"/>
	</g>
	<g>
		<path class="st8" d="M434.9,119.1c-3.9-0.6-7.5,0.8-7.1,2c0.8,2.7-0.1,5.9-0.6,8.4c-5.5,9.6-12.8,19.5-11,29.7
			c5.2,1.5,10.2,1.1,16.1,1.5c-4.3-9.4,2.9-18,6-26.8C439.8,129.7,447.3,121,434.9,119.1L434.9,119.1z"/>
	</g>
	<g>
		<path class="st8" d="M491.4,122c-1.3-0.1-4,0-4.7,1.2c-1.9,8.3-2.5,17-5.4,25.2c-2.8,4.9-5.7,10.4,0.7,15.7
			c0.7,1.5,8.3,1.5,12.6,1.6c-3.2-8.6-0.8-16.3,3.4-24.5c1.7-5.8,4.3-11.4,0.7-17.3C497.6,123,494,122.4,491.4,122L491.4,122z"/>
	</g>
	<g>
		<path class="st8" d="M547.6,125.9c-2.8,0.3-5.3,0.6-5.7,1.2c2.2,11.3-3,21.5-1.7,33.3c0.1,3.5-2.3,6.6,2.1,10
			c3.5,2,9.9,0.3,13.6,1.6c-2.8-4.6-1.3-9.3-2.7-13.6c-1.2-4.4,2.9-8.6,2.7-12.6c-0.1-3.5-0.4-6.3,0.5-9.6c-0.5-2.2-0.8-5-1.5-7.1
			C554.7,127.7,552.7,126.1,547.6,125.9L547.6,125.9z"/>
	</g>
	<g>
		<g>
			<path class="st6" d="M337.4,191.4c1.8,2.3,8.8,4.4,14.6,4.2c0,0,2-0.2,2.4-0.8c1.2-5.7,0.3-11.1,4.1-15.8
				c6-7.4,9.2-15.3,9.8-23.7c-6.1-0.5-11.4,0-16.4-1.6c0.8,2.7,1.2,6.1-1.3,8.8C347,172.3,339.1,181.3,337.4,191.4L337.4,191.4z"/>
		</g>
		<g>
			<path class="st6" d="M408.9,199.3c3.1,3.3,10.6,4.7,16.8,3.2c-3-11.3,5.9-20.4,6.4-31.7c0.4-3.3,2.4-6.3,0.2-10
				c-4.6-0.2-9.1-0.3-14.6-1.2c3.7,10.7-3.9,19.8-8.9,29.6C406.6,192.1,410.9,196.3,408.9,199.3L408.9,199.3z"/>
		</g>
		<g>
			<path class="st6" d="M488.1,210.4c1.5,0.3,4.8,0.2,5.5-1c2.1-8.5-0.2-18,2.2-26.4c2.2-5,3.4-11,0.2-17c-4.3-0.1-8.9-0.2-14.3-1.1
				c-0.6,4,1.7,8.5,1.4,12.5c-3.5,10.2-11.3,19.8-3.5,30.7C480.6,208.9,485.2,209.8,488.1,210.4L488.1,210.4z"/>
		</g>
		<g>
			<path class="st6" d="M554.8,216.8c3.1,0.5,6,1.2,6.5-0.8c-2-9.5-2.5-18.7-0.2-27.4c0.3-6.2-2.3-12.2-3.5-18
				c-5.6-0.2-10.1,0.4-15.3-1.3c1.8,3,2,6.7,3.7,10.4c0.5,12-7.2,22.4,1.3,35.1C548.9,215.6,551.7,216.1,554.8,216.8L554.8,216.8z"
				/>
		</g>
	</g>
	<g>
		<path class="st10" d="M285.2,64.9c-5.3,0.9,1.2,3.8,3.9,4.8c44.3,12.5,83.7,25.2,121.6,41.8c77.7,32.4,153,67.4,238.8,89.2
			c1.6-0.3,3.2-1.2,3.2-1.9c3.9-24.4,7.8-48.9,11.8-73.2C605,112,546.4,89.4,489.4,65.9c-45-19.2-92.3-34.8-143.5-46.2
			c-13.8,8.8-24.2,19.5-39.5,27.9C298.8,53.3,289.8,58.4,285.2,64.9L285.2,64.9z"/>
	</g>
	<g>
		<path class="st9" d="M407.7-26.2c-19.6,15.7-43.6,29.9-61.8,46.1c36,7.2,69,18.1,99.7,29.6c63.7,23.2,122.7,52.5,191.7,68.8
			c2.5,0.9,4.8,1.6,7.4,2.5c3.9,0.4,8.8,2.2,12.7,2.6c2.5,0.9,4.8,1.6,7.4,2.5c2.8-25.5,10.2-48.9,10.8-75c-0.9-1-2.8-2.3-3.9-2.6
			c-30.9-4.5-59.1-12.8-87.7-22.6C529.3,5.5,480.2-15.7,417.6-27C414-27.7,410.7-27.3,407.7-26.2L407.7-26.2z"/>
	</g>
	<g>
		<path class="st5" d="M426.9-17.2c-2.1-0.7-4.4-1.3-5.3-0.3C413.6-9.7,404.6-2.4,393,4.2c-6,4.3-8.1,9.1-11.5,14.1
			c4.8,1.6,8.5,2.9,13.6,4.5c1.8-3.5,4.4-7.6,7.4-10.7c10.2-7,20.8-13.4,27.2-21.6C429.9-11.6,435.2-15.4,426.9-17.2L426.9-17.2z"/>
	</g>
	<g>
		<path class="st5" d="M479.3-1.3c-3.5-2.5-6.7,0-7.6,1.2c-3.5,8.1-11.1,14.1-18,21.1c-6.9,4.8-11.3,10.4-13.4,16.9
			c4.8,1.6,9.9,3.2,14.8,4.8c1.2-9.7,9.5-16.9,19.1-24.4c4.4-4.3,8.3-9.5,9.5-14.8C484.6,2.5,485.1-0.2,479.3-1.3L479.3-1.3z"/>
	</g>
	<g>
		<path class="st5" d="M531.5,14.7c-0.7-0.9-3.2-1-5.1-0.1c-2.1,3.7-2.8,7.2-5.8,10.4c-6.2,11.2-19.6,19.8-19.8,32.9
			c4.8,1.6,8.5,2.9,13.6,4.5c1.4-5.4,1.6-11.2,5.5-15.8c7.6-9.2,18-16.9,17.8-28.8C537,16.3,535.1,15,531.5,14.7L531.5,14.7z"/>
	</g>
	<g>
		<path class="st5" d="M584.7,30.9c-2.1-0.7-4.4-1.3-4.8,0c-3.7,10-8.5,19.7-15.9,28.6c-3.5,5.6-3.2,11.7-4.2,18.1
			c4.8,1.6,8.5,2.9,13.6,4.5c-1.2-4.8,1.8-9.2,3.2-13.2c3.5-10.1,11.3-18.2,13.6-28.8C589.6,37.7,592.6,32.6,584.7,30.9L584.7,30.9z
			"/>
	</g>
	<g>
		<g>
			<path class="st6" d="M343.9,52.1c-1.2,1-0.7,2.5,2.8,4.5c2.8,1,5.8,3.5,10.6,2.3c4.4-2.6,3-6.8,7.4-9.4c12-8.5,27.5-15.8,30-26.9
				c-4.8-1.6-8.5-2.9-13.6-4.5c-3,4.5-4.4,9-9.9,12.6C361,37.7,348,43,343.9,52.1L343.9,52.1z"/>
		</g>
		<g>
			<path class="st6" d="M409.2,75.1c0.5,3.8,5.5,6.3,11.5,7.6c1.8-0.1,3.9-0.7,4.8-1.9c2.8-8.4,10.6-14.4,18.7-21
				c5.5-5.3,7.8-11,10.8-17.2c-4.8-1.6-9.9-3.2-14.8-4.8c0.7,5.1-2.8,9.7-7.6,13.8C423.5,59.3,415.9,66.8,409.2,75.1L409.2,75.1z"/>
		</g>
		<g>
			<path class="st6" d="M482.5,104.6c2.8,1,6.9,2.5,6.2,0.7c4.8-9.4,11.3-18.3,20.1-26.4c3.9-4.5,4.2-11.2,5.5-16.6
				c-4.8-1.6-8.5-2.9-13.6-4.5c-1.8,6-4.2,12.6-8.5,17.6c-6.5,5.9-13.4,12.3-15.9,19.5C476.8,97.4,472.6,101.8,482.5,104.6
				L482.5,104.6z"/>
		</g>
		<g>
			<path class="st6" d="M549.7,128.4c1.2,1.2,4.2,1.5,6,0.6c1.4-4.1,1.2-7.9,3.9-11.4c4.2-12.2,15.9-21.9,13.6-35.5
				c-4.8-1.6-8.5-2.9-13.6-4.5c-0.7,5.7,0,11.3-3.2,16.1c-6.7,9.8-17.1,17.5-14.5,30.5C542.8,126,545.3,127.7,549.7,128.4
				L549.7,128.4z"/>
		</g>
	</g>
	<g>
		<g>
			<path class="st10" d="M303.5-110.8c-5.7-0.1,0.5,4,3.2,5.5c43.9,20.4,82.8,40.2,119.3,63.5c75.3,46.2,147.5,94.4,233,131.7
				c1.7,0,3.6-0.6,3.7-1.3c8.3-23.3,16.6-46.8,25-70.1c-59.6-24.4-116.7-57.4-171.9-91c-43.5-27.2-90-51.2-141.3-71.9
				c-15.9,6.2-28.6,14.8-45.9,20.3C319.7-119.7,309.4-116.3,303.5-110.8L303.5-110.8z"/>
		</g>
		<g>
			<path class="st11" d="M446.8-178.3c-23.1,11.9-50.6,21.5-72.3,34.1c36.2,13.7,68.7,30.4,98.6,47.5
				c62.3,34.5,118.6,74.3,187.6,103c2.5,1.3,4.8,2.5,7.3,3.8c4,1.2,8.7,3.8,12.7,4.9c2.5,1.3,4.8,2.5,7.3,3.8
				c7.3-24.7,19-46.3,24.3-72c-0.8-1.2-2.5-2.8-3.6-3.3c-31.4-10.1-59.3-23.4-87.3-38.3c-53.4-30-100.9-59.8-164-82.4
				C453.6-178.6,450.1-178.7,446.8-178.3L446.8-178.3z"/>
		</g>
		<g>
			<path class="st5" d="M482.6-142.4c-2-1.1-4.3-2.1-5.5-1.3c-9.8,6.2-20.4,11.8-33.5,16.2c-7,3.1-10,7.5-14.5,11.8
				c4.8,2.5,8.4,4.5,13.4,7c2.5-3.1,5.9-6.7,9.5-9.2c11.8-5.1,23.9-9.4,32.1-16.3C484.8-136.4,490.9-139.2,482.6-142.4L482.6-142.4z
				"/>
		</g>
		<g>
			<path class="st5" d="M534.4-117.2c-3.2-3.1-7-1.2-8.1-0.2c-5,7.3-14,11.9-22.4,17.6c-8,3.5-13.6,8.2-16.9,14.2
				c4.8,2.5,9.8,5,14.5,7.5c2.9-9.3,12.8-14.9,24.2-20.5c5.3-3.4,10.3-7.9,12.4-12.9C539.2-112.5,540.2-115,534.4-117.2L534.4-117.2
				z"/>
		</g>
		<g>
			<path class="st5" d="M585.9-91.9c-0.6-1-3.2-1.6-5.3-1.1c-2.8,3.2-4.1,6.6-7.8,9.2c-8.4,9.9-23.8,16-26.4,28.8
				c4.8,2.5,8.4,4.5,13.4,7c2.4-5.1,3.6-10.7,8.5-14.6c9.5-7.7,21.7-13.4,23.5-25.1C591.3-89.3,589.6-90.9,585.9-91.9L585.9-91.9z"
				/>
		</g>
		<g>
			<path class="st5" d="M638.5-66.1c-2-1.1-4.3-2.1-5-0.9c-5.6,9.2-12.3,17.8-21.5,25.3c-4.6,4.9-5.4,11-7.5,17
				c4.8,2.5,8.4,4.5,13.4,7c-0.4-5,3.5-8.8,5.7-12.4c5.4-9.4,14.9-15.9,19.2-25.9C642.4-58.5,646.4-63,638.5-66.1L638.5-66.1z"/>
		</g>
		<g>
			<g>
				<path class="st6" d="M384.1-89.3c-1.4,0.8-1.2,2.3,2.1,5c2.7,1.5,5.4,4.5,10.6,4.3c5-1.8,4.3-6.1,9.3-7.9
					c14-6.2,31.3-10.6,35.9-21c-4.8-2.5-8.4-4.5-13.4-7c-3.9,3.9-6.1,8-12.5,10.6C404.4-100.4,390-97.5,384.1-89.3L384.1-89.3z"/>
			</g>
			<g>
				<path class="st6" d="M448.1-54.6c-0.2,3.8,4.7,7.2,10.7,9.6c1.9,0.2,4.2,0,5.4-1c4.3-7.7,13.5-12.2,23.1-17.3
					c6.7-4.2,10.1-9.4,14.3-15c-4.8-2.5-9.8-5-14.5-7.5c-0.2,5.2-4.6,9-10.3,12.2C465.7-67.6,456.5-61.6,448.1-54.6L448.1-54.6z"/>
			</g>
			<g>
				<path class="st6" d="M519.3-12.1c2.7,1.5,6.8,3.7,6.4,1.9c6.7-8.4,14.9-16,25.5-22.4c4.9-3.8,6.3-10.2,8.6-15.3
					c-4.8-2.5-8.4-4.5-13.4-7c-3,5.6-6.5,11.7-11.9,15.8c-7.7,4.6-16.1,9.7-20,16.3C514.6-20.2,509.5-16.7,519.3-12.1L519.3-12.1z"
					/>
			</g>
			<g>
				<path class="st6" d="M585.1,23.6c1,1.4,4.1,2.2,6.1,1.7c2.2-3.8,2.6-7.6,6.1-10.6c6.4-11.3,20.4-18.7,20.3-32.5
					c-4.8-2.5-8.4-4.5-13.4-7c-1.7,5.5-2,11.1-6.2,15.3C589.4-1,577.3,4.7,577.7,18C578.3,20.1,580.7,22.1,585.1,23.6L585.1,23.6z"
					/>
			</g>
		</g>
	</g>
</g>
</svg>
