<?xml version="1.0" encoding="utf-8"?>
<!-- Generator: Adobe Illustrator 19.0.0, SVG Export Plug-In . SVG Version: 6.00 Build 0)  -->
<svg version="1.1" id="Layer_1" xmlns="http://www.w3.org/2000/svg" xmlns:xlink="http://www.w3.org/1999/xlink" x="0px" y="0px"
	 viewBox="206 -206 512 512" style="enable-background:new 206 -206 512 512;" xml:space="preserve">
<style type="text/css">
	.st0{display:none;}
	.st1{display:inline;}
	.st2{fill:#E6EAEA;}
	.st3{fill:#CDD4D5;}
	.st4{fill:#9BAAAB;}
	.st5{fill:#0295AA;}
	.st6{fill:#365558;}
	.st7{fill:#687F82;}
	.st8{fill:#FF8C29;}
	.st9{fill:#FD6A33;}
	.st10{fill:#FFD1A9;}
	.st11{fill:#4ACFD9;}
</style>
<g id="Layer_3" class="st0">
	<rect x="824" y="-824.4" class="st1" width="512" height="512.8"/>
</g>
<path class="st2" d="M712.5,56H559.7c-2.2,0-4,1.9-4,4.4v143.7l49.2,53.9h107.6c2.2,0,4-1.9,4-4.4V60.4
	C716.5,57.9,714.7,56,712.5,56z"/>
<path class="st3" d="M559.7,56c-2.2,0-4,1.9-4,4.4v143.7l49.2,53.9h28V56H559.7z"/>
<path id="SVGCleanerId_0" class="st4" d="M600.8,204.1h-45.2l49.2,53.9v-49.5C604.9,206.1,603.1,204.1,600.8,204.1z"/>
<g>
	<path class="st5" d="M688.8,100.1H583.4c-2.2,0-4-1.9-4-4.4s1.8-4.4,4-4.4h105.5c2.2,0,4,1.9,4,4.4S691,100.1,688.8,100.1z"/>
	<path class="st5" d="M688.8,137.8H583.4c-2.2,0-4-1.9-4-4.4s1.8-4.4,4-4.4h105.5c2.2,0,4,1.9,4,4.4S691,137.8,688.8,137.8z"/>
	<path class="st5" d="M688.8,175.5H583.4c-2.2,0-4-1.9-4-4.4c0-2.5,1.8-4.4,4-4.4h105.5c2.2,0,4,1.9,4,4.4
		C692.9,173.6,691,175.5,688.8,175.5z"/>
	<path class="st5" d="M688.8,213.2H583.4c-2.2,0-4-1.9-4-4.4s1.8-4.4,4-4.4h105.5c2.2,0,4,1.9,4,4.4
		C692.9,211.2,691,213.2,688.8,213.2z"/>
</g>
<g>
	<path class="st6" d="M583.4,91.3c-2.2,0-4,1.9-4,4.4s1.8,4.4,4,4.4h49.5v-8.8H583.4z"/>
	<path class="st6" d="M583.4,129c-2.2,0-4,1.9-4,4.4s1.8,4.4,4,4.4h49.5V129L583.4,129L583.4,129z"/>
	<path class="st6" d="M579.4,171.1c0,2.5,1.8,4.4,4,4.4h49.5v-8.9h-49.5C581.1,166.7,579.4,168.7,579.4,171.1z"/>
	<path class="st6" d="M579.4,208.8c0,2.5,1.8,4.4,4,4.4h49.5v-8.9h-49.5C581.1,204.4,579.4,206.4,579.4,208.8z"/>
</g>
<g>
	<path id="SVGCleanerId_0_1_" class="st4" d="M600.8,204.1h-45.2l49.2,53.9v-49.5C604.9,206.1,603.1,204.1,600.8,204.1z"/>
</g>
<path class="st2" d="M537.7,56H384.9c-2.2,0-4,1.9-4,4.4v143.7l49.2,53.9h107.6c2.2,0,4-1.9,4-4.4V60.4
	C541.7,57.9,539.9,56,537.7,56z"/>
<path class="st3" d="M384.9,56c-2.2,0-4,1.9-4,4.4v143.7l49.2,53.9h28V56H384.9z"/>
<path id="SVGCleanerId_0_3_" class="st4" d="M426,204.1h-45.2l49.2,53.9v-49.5C430,206.1,428.3,204.1,426,204.1z"/>
<g>
	<path class="st4" d="M514,100.1H408.5c-2.2,0-4-1.9-4-4.4s1.8-4.4,4-4.4H514c2.2,0,4,1.9,4,4.4S516.2,100.1,514,100.1z"/>
	<path class="st4" d="M514,137.8H408.5c-2.2,0-4-1.9-4-4.4s1.8-4.4,4-4.4H514c2.2,0,4,1.9,4,4.4S516.2,137.8,514,137.8z"/>
	<path class="st4" d="M514,175.5H408.5c-2.2,0-4-1.9-4-4.4c0-2.5,1.8-4.4,4-4.4H514c2.2,0,4,1.9,4,4.4
		C518,173.6,516.2,175.5,514,175.5z"/>
	<path class="st4" d="M514,213.2H408.5c-2.2,0-4-1.9-4-4.4s1.8-4.4,4-4.4H514c2.2,0,4,1.9,4,4.4C518,211.2,516.2,213.2,514,213.2z"
		/>
</g>
<g>
	<path class="st5" d="M408.5,91.3c-2.2,0-4,1.9-4,4.4s1.8,4.4,4,4.4H458v-8.8H408.5z"/>
	<path class="st5" d="M408.5,129c-2.2,0-4,1.9-4,4.4s1.8,4.4,4,4.4H458V129L408.5,129L408.5,129z"/>
	<path class="st5" d="M404.5,171.1c0,2.5,1.8,4.4,4,4.4H458v-8.9h-49.5C406.3,166.7,404.5,168.7,404.5,171.1z"/>
	<path class="st5" d="M404.5,208.8c0,2.5,1.8,4.4,4,4.4H458v-8.9h-49.5C406.3,204.4,404.5,206.4,404.5,208.8z"/>
</g>
<g>
	<path id="SVGCleanerId_0_2_" class="st4" d="M426,204.1h-45.2l49.2,53.9v-49.5C430,206.1,428.3,204.1,426,204.1z"/>
</g>
<path class="st2" d="M362.9,56H210c-2.2,0-4,1.9-4,4.4v143.7l49.2,53.9h107.6c2.2,0,4-1.9,4-4.4V60.4C366.9,57.9,365.1,56,362.9,56z
	"/>
<path class="st3" d="M210,56c-2.2,0-4,1.9-4,4.4v143.7l49.2,53.9h28V56H210z"/>
<path id="SVGCleanerId_0_5_" class="st4" d="M251.2,204.1H206l49.2,53.9v-49.5C255.2,206.1,253.5,204.1,251.2,204.1z"/>
<g>
	<path class="st5" d="M339.2,100.1H233.7c-2.2,0-4-1.9-4-4.4s1.8-4.4,4-4.4h105.5c2.2,0,4,1.9,4,4.4S341.4,100.1,339.2,100.1z"/>
	<path class="st5" d="M339.2,137.8H233.7c-2.2,0-4-1.9-4-4.4s1.8-4.4,4-4.4h105.5c2.2,0,4,1.9,4,4.4S341.4,137.8,339.2,137.8z"/>
	<path class="st5" d="M339.2,175.5H233.7c-2.2,0-4-1.9-4-4.4c0-2.5,1.8-4.4,4-4.4h105.5c2.2,0,4,1.9,4,4.4
		C343.2,173.6,341.4,175.5,339.2,175.5z"/>
	<path class="st5" d="M339.2,213.2H233.7c-2.2,0-4-1.9-4-4.4s1.8-4.4,4-4.4h105.5c2.2,0,4,1.9,4,4.4
		C343.2,211.2,341.4,213.2,339.2,213.2z"/>
</g>
<g>
	<path class="st7" d="M233.7,91.3c-2.2,0-4,1.9-4,4.4s1.8,4.4,4,4.4h49.5v-8.8H233.7z"/>
	<path class="st7" d="M233.7,129c-2.2,0-4,1.9-4,4.4s1.8,4.4,4,4.4h49.5V129L233.7,129L233.7,129z"/>
	<path class="st7" d="M229.7,171.1c0,2.5,1.8,4.4,4,4.4h49.5v-8.9h-49.5C231.5,166.7,229.7,168.7,229.7,171.1z"/>
	<path class="st7" d="M229.7,208.8c0,2.5,1.8,4.4,4,4.4h49.5v-8.9h-49.5C231.5,204.4,229.7,206.4,229.7,208.8z"/>
</g>
<g>
	<path id="SVGCleanerId_0_4_" class="st4" d="M251.2,204.1H206l49.2,53.9v-49.5C255.2,206.1,253.5,204.1,251.2,204.1z"/>
</g>
<path class="st2" d="M712.5-156.1H559.7c-2.2,0-4,1.9-4,4.4V-7.9L604.9,46h107.6c2.2,0,4-1.9,4-4.4v-193.3
	C716.5-154.1,714.7-156.1,712.5-156.1z"/>
<path class="st3" d="M559.7-156.1c-2.2,0-4,1.9-4,4.4V-7.9L604.9,46h28v-202.1H559.7z"/>
<path id="SVGCleanerId_0_11_" class="st4" d="M600.8-7.9h-45.2L604.9,46V-3.5C604.9-6,603.1-7.9,600.8-7.9z"/>
<g>
	<path class="st8" d="M688.8-111.9H583.4c-2.2,0-4-1.9-4-4.4s1.8-4.4,4-4.4h105.5c2.2,0,4,1.9,4,4.4S691-111.9,688.8-111.9z"/>
	<path class="st8" d="M688.8-74.2H583.4c-2.2,0-4-1.9-4-4.4s1.8-4.4,4-4.4h105.5c2.2,0,4,1.9,4,4.4S691-74.2,688.8-74.2z"/>
	<path class="st8" d="M688.8-36.5H583.4c-2.2,0-4-1.9-4-4.4s1.8-4.4,4-4.4h105.5c2.2,0,4,1.9,4,4.4S691-36.5,688.8-36.5z"/>
	<path class="st8" d="M688.8,1.2H583.4c-2.2,0-4-1.9-4-4.4c0-2.5,1.8-4.4,4-4.4h105.5c2.2,0,4,1.9,4,4.4
		C692.9-0.8,691,1.2,688.8,1.2z"/>
</g>
<g>
	<path class="st9" d="M583.4-120.7c-2.2,0-4,1.9-4,4.4s1.8,4.4,4,4.4h49.5v-8.8H583.4z"/>
	<path class="st9" d="M583.4-83c-2.2,0-4,1.9-4,4.4s1.8,4.4,4,4.4h49.5v-8.9L583.4-83L583.4-83z"/>
	<path class="st9" d="M579.4-40.9c0,2.5,1.8,4.4,4,4.4h49.5v-8.9h-49.5C581.1-45.4,579.4-43.4,579.4-40.9z"/>
	<path class="st9" d="M579.4-3.2c0,2.5,1.8,4.4,4,4.4h49.5v-8.9h-49.5C581.1-7.7,579.4-5.7,579.4-3.2z"/>
</g>
<g>
	<path id="SVGCleanerId_0_10_" class="st4" d="M600.8-7.9h-45.2L604.9,46V-3.5C604.9-6,603.1-7.9,600.8-7.9z"/>
</g>
<path class="st2" d="M537.7-156.1H384.9c-2.2,0-4,1.9-4,4.4V-7.9L430,46h107.6c2.2,0,4-1.9,4-4.4v-193.3
	C541.7-154.1,539.9-156.1,537.7-156.1z"/>
<path class="st3" d="M384.9-156.1c-2.2,0-4,1.9-4,4.4V-7.9L430,46h28v-202.1H384.9z"/>
<path id="SVGCleanerId_0_9_" class="st4" d="M426-7.9h-45.2L430,46V-3.5C430-6,428.3-7.9,426-7.9z"/>
<g>
	<path class="st10" d="M514-111.9H408.5c-2.2,0-4-1.9-4-4.4s1.8-4.4,4-4.4H514c2.2,0,4,1.9,4,4.4S516.2-111.9,514-111.9z"/>
	<path class="st10" d="M514-74.2H408.5c-2.2,0-4-1.9-4-4.4s1.8-4.4,4-4.4H514c2.2,0,4,1.9,4,4.4S516.2-74.2,514-74.2z"/>
	<path class="st10" d="M514-36.5H408.5c-2.2,0-4-1.9-4-4.4s1.8-4.4,4-4.4H514c2.2,0,4,1.9,4,4.4S516.2-36.5,514-36.5z"/>
	<path class="st10" d="M514,1.2H408.5c-2.2,0-4-1.9-4-4.4c0-2.5,1.8-4.4,4-4.4H514c2.2,0,4,1.9,4,4.4C518-0.8,516.2,1.2,514,1.2z"/>
</g>
<g>
	<path class="st8" d="M408.5-120.7c-2.2,0-4,1.9-4,4.4s1.8,4.4,4,4.4H458v-8.8H408.5z"/>
	<path class="st8" d="M408.5-83c-2.2,0-4,1.9-4,4.4c0,2.5,1.8,4.4,4,4.4H458v-8.9L408.5-83L408.5-83z"/>
	<path class="st8" d="M404.5-40.9c0,2.5,1.8,4.4,4,4.4H458v-8.9h-49.5C406.3-45.4,404.5-43.4,404.5-40.9z"/>
	<path class="st8" d="M404.5-3.2c0,2.5,1.8,4.4,4,4.4H458v-8.9h-49.5C406.3-7.7,404.5-5.7,404.5-3.2z"/>
</g>
<g>
	<path id="SVGCleanerId_0_8_" class="st4" d="M426-7.9h-45.2L430,46V-3.5C430-6,428.3-7.9,426-7.9z"/>
</g>
<path class="st2" d="M362.9-156.1H210c-2.2,0-4,1.9-4,4.4V-7.9L255.2,46h107.6c2.2,0,4-1.9,4-4.4v-193.3
	C366.9-154.1,365.1-156.1,362.9-156.1z"/>
<path class="st3" d="M210-156.1c-2.2,0-4,1.9-4,4.4V-7.9L255.2,46h28v-202.1H210z"/>
<path id="SVGCleanerId_0_7_" class="st4" d="M251.2-7.9H206L255.2,46V-3.5C255.2-6,253.5-7.9,251.2-7.9z"/>
<g>
	<path class="st11" d="M339.2-111.9H233.7c-2.2,0-4-1.9-4-4.4s1.8-4.4,4-4.4h105.5c2.2,0,4,1.9,4,4.4S341.4-111.9,339.2-111.9z"/>
	<path class="st11" d="M339.2-74.2H233.7c-2.2,0-4-1.9-4-4.4s1.8-4.4,4-4.4h105.5c2.2,0,4,1.9,4,4.4S341.4-74.2,339.2-74.2z"/>
	<path class="st11" d="M339.2-36.5H233.7c-2.2,0-4-1.9-4-4.4s1.8-4.4,4-4.4h105.5c2.2,0,4,1.9,4,4.4S341.4-36.5,339.2-36.5z"/>
	<path class="st11" d="M339.2,1.2H233.7c-2.2,0-4-1.9-4-4.4c0-2.5,1.8-4.4,4-4.4h105.5c2.2,0,4,1.9,4,4.4
		C343.2-0.8,341.4,1.2,339.2,1.2z"/>
</g>
<g>
	<path class="st5" d="M233.7-120.7c-2.2,0-4,1.9-4,4.4s1.8,4.4,4,4.4h49.5v-8.8H233.7z"/>
	<path class="st5" d="M233.7-83c-2.2,0-4,1.9-4,4.4s1.8,4.4,4,4.4h49.5v-8.9L233.7-83L233.7-83z"/>
	<path class="st5" d="M229.7-40.9c0,2.5,1.8,4.4,4,4.4h49.5v-8.9h-49.5C231.5-45.4,229.7-43.4,229.7-40.9z"/>
	<path class="st5" d="M229.7-3.2c0,2.5,1.8,4.4,4,4.4h49.5v-8.9h-49.5C231.5-7.7,229.7-5.7,229.7-3.2z"/>
</g>
<g>
	<path id="SVGCleanerId_0_6_" class="st4" d="M251.2-7.9H206L255.2,46V-3.5C255.2-6,253.5-7.9,251.2-7.9z"/>
</g>
</svg>
