<?xml version="1.0" encoding="utf-8"?>
<!-- Generator: Adobe Illustrator 19.0.0, SVG Export Plug-In . SVG Version: 6.00 Build 0)  -->
<svg version="1.1" id="Layer_1" xmlns="http://www.w3.org/2000/svg" xmlns:xlink="http://www.w3.org/1999/xlink" x="0px" y="0px"
	 viewBox="-49 141 512 512" style="enable-background:new -49 141 512 512;" xml:space="preserve">
<style type="text/css">
	.st0{fill:#9BAAAB;}
	.st1{fill:#FD6A33;}
	.st2{fill:#FF8C29;}
	.st3{fill:#F0353D;}
	.st4{fill:#0295AA;}
</style>
<g>
	<rect x="182.1" y="259.7" class="st0" width="22.6" height="154.3"/>
	<rect x="293.8" y="469.5" class="st0" width="22" height="85.5"/>
	<rect x="405.4" y="239" class="st0" width="22" height="187.7"/>
	<path class="st1" d="M146.2,294.3V519h93.5V294.3H146.2z M209.7,491.7c-4.4,3.7-10.3,5.5-17.6,5.5c-6.8,0-12.4-1.8-16.8-5.4
		c-4.3-3.6-6.5-8.4-6.5-14.3h13.6c0,2.6,1,4.7,2.9,6.3c1.9,1.6,4.3,2.4,7.1,2.4c3.2,0,5.7-0.8,7.6-2.5c1.8-1.7,2.8-4,2.8-6.8
		c0-6.8-3.8-10.2-11.3-10.2h-7.2V456h7.2c3.4,0,6-0.9,7.7-2.6s2.5-4,2.5-6.9c0-2.8-0.8-4.9-2.5-6.4c-1.6-1.5-3.9-2.3-6.8-2.3
		c-2.6,0-4.8,0.7-6.5,2.2c-1.8,1.4-2.6,3.3-2.6,5.5h-13.6c0-3.6,1-6.8,2.9-9.6c1.9-2.8,4.6-5.1,8.1-6.7s7.3-2.4,11.5-2.4
		c7.2,0,12.9,1.7,17,5.2c4.1,3.4,6.2,8.2,6.2,14.3c0,3.1-1,6-2.9,8.6s-4.4,4.7-7.5,6.1c3.9,1.4,6.7,3.4,8.6,6.2
		c1.9,2.8,2.9,6,2.9,9.8C216.4,483.1,214.2,488,209.7,491.7z"/>
	<path class="st2" d="M257.8,259.6v224.7h93.5V259.6H257.8z M329.4,462h-46.9v-9.3l22.1-23.6c3-3.3,5.3-6.2,6.7-8.7
		c1.5-2.5,2.2-4.8,2.2-7c0-3-0.8-5.4-2.3-7.1c-1.5-1.8-3.7-2.6-6.6-2.6c-3.1,0-5.5,1.1-7.3,3.2s-2.6,4.9-2.6,8.3h-13.5
		c0-4.2,1-8,3-11.4s4.8-6.1,8.5-8.1c3.6-2,7.8-3,12.4-3c7,0,12.5,1.7,16.4,5.1s5.9,8.2,5.9,14.3c0,3.4-0.9,6.8-2.6,10.3
		c-1.8,3.5-4.8,7.6-9,12.3L300,451h29.4V462L329.4,462z"/>
	<path class="st2" d="M369.3,302.3V527h93.5V302.3H369.3z M427.2,506.6h-13.6v-52.3l-16.2,5v-11l28.3-10.1h1.5L427.2,506.6
		L427.2,506.6z"/>
	<path class="st3" d="M282.5,452.7l22-23.5v-25.6c-0.2,0-0.3,0-0.5,0s-0.4,0-0.5,0c-0.2,0-0.4,0.1-0.5,0.1c-0.2,0-0.3,0-0.5,0.1
		c-0.2,0-0.3,0.1-0.5,0.1s-0.3,0.1-0.5,0.1c-0.2,0.1-0.3,0.1-0.5,0.2c-0.1,0.1-0.3,0.1-0.4,0.2c-0.2,0.1-0.3,0.2-0.5,0.3
		c-0.1,0.1-0.2,0.1-0.4,0.2c-0.2,0.1-0.3,0.2-0.5,0.3c-0.1,0.1-0.2,0.1-0.3,0.2c-0.2,0.1-0.4,0.3-0.5,0.5c-0.1,0.1-0.1,0.1-0.2,0.2
		c-0.2,0.2-0.5,0.5-0.7,0.7c-1.8,2.1-2.6,4.9-2.6,8.3h-13.7c0-4.2,1-8,3-11.4s4.8-6.1,8.5-8.1c0.4-0.2,0.9-0.5,1.4-0.7
		c0.1-0.1,0.3-0.1,0.4-0.2c0.3-0.1,0.7-0.3,1-0.4c0.2-0.1,0.4-0.1,0.5-0.2c0.3-0.1,0.6-0.2,0.9-0.3c0.2-0.1,0.4-0.1,0.6-0.2
		c0.3-0.1,0.6-0.2,0.9-0.2c0.2-0.1,0.4-0.1,0.7-0.1c0.3-0.1,0.6-0.1,0.9-0.2c0.2,0,0.5-0.1,0.7-0.1c0.3,0,0.6-0.1,0.9-0.1
		s0.5,0,0.8-0.1c0.3,0,0.6-0.1,0.8-0.1c0.3,0,0.6,0,0.8,0c0.2,0,0.4,0,0.7,0V259.6h-46.8v224.7h46.8V462h-22v-9.3H282.5z"/>
	<path class="st3" d="M303.9,392.7c-0.3,0-0.6,0-0.8,0C303.3,392.7,303.6,392.7,303.9,392.7z"/>
	<path class="st3" d="M297.4,393.7c-0.2,0.1-0.4,0.1-0.6,0.2C297,393.8,297.2,393.7,297.4,393.7z"/>
	<path class="st3" d="M299,393.3c-0.2,0-0.5,0.1-0.7,0.1C298.5,393.4,298.7,393.3,299,393.3z"/>
	<path class="st3" d="M295.9,394.1c-0.2,0.1-0.4,0.1-0.5,0.2C295.5,394.3,295.7,394.2,295.9,394.1z"/>
	<path class="st3" d="M300.6,393c-0.2,0-0.5,0.1-0.7,0.1C300.1,393.1,300.3,393,300.6,393z"/>
	<path class="st3" d="M302.2,392.8c-0.3,0-0.5,0-0.8,0.1C301.7,392.8,301.9,392.8,302.2,392.8z"/>
	<path class="st3" d="M301,404.3c0.2-0.1,0.3-0.1,0.5-0.2C301.3,404.1,301.1,404.2,301,404.3z"/>
	<path class="st3" d="M301.9,403.9c0.2,0,0.3-0.1,0.5-0.1C302.3,403.9,302.1,403.9,301.9,403.9z"/>
	<path class="st3" d="M303,403.7c0.2,0,0.4-0.1,0.5-0.1C303.3,403.7,303.1,403.7,303,403.7z"/>
	<path class="st3" d="M304.5,403.6c-0.2,0-0.3,0-0.5,0C304.2,403.6,304.4,403.6,304.5,403.6L304.5,403.6z"/>
	<polygon class="st3" points="304.5,429.2 304.5,429.2 282.5,452.7 	"/>
	<path class="st3" d="M294.3,394.8c-0.1,0.1-0.3,0.1-0.4,0.2C294.1,394.9,294.2,394.8,294.3,394.8z"/>
	<path class="st3" d="M300,404.7c0.2-0.1,0.3-0.2,0.5-0.3C300.4,404.5,300.2,404.6,300,404.7z"/>
	<path class="st3" d="M297.4,406.8c0.2-0.3,0.5-0.5,0.7-0.7C297.9,406.3,297.6,406.5,297.4,406.8z"/>
	<path class="st3" d="M298.3,405.9c0.2-0.2,0.4-0.3,0.5-0.5C298.7,405.6,298.5,405.7,298.3,405.9z"/>
	<path class="st3" d="M299.2,405.2c0.2-0.1,0.3-0.2,0.5-0.3C299.5,405,299.3,405.1,299.2,405.2z"/>
	<polygon class="st3" points="304.5,446.3 300,451 304.5,451 	"/>
	<path class="st4" d="M-17.8,141h-31v512h31l38-23.5l-38-23.5l38-23l-38-23l38-23.5l-38-23.5l38-23l-38-23l38-23.5l-38-23.5l38-23
		l-38-23l38-23.5l-38-23.5l38-23l-38-23l38-23.5l-38-23.5l38-23l-38-23l38-23.5L-17.8,141z"/>
	<circle class="st4" cx="117.2" cy="413" r="10"/>
	<circle class="st4" cx="78.3" cy="413" r="10"/>
	<circle class="st4" cx="38.2" cy="413" r="10"/>
</g>
</svg>
