<?xml version="1.0" encoding="utf-8"?>
<!-- Generator: Adobe Illustrator 19.0.0, SVG Export Plug-In . SVG Version: 6.00 Build 0)  -->
<svg version="1.1" id="Layer_1" xmlns="http://www.w3.org/2000/svg" xmlns:xlink="http://www.w3.org/1999/xlink" x="0px" y="0px"
	 viewBox="-49 141 512 512" style="enable-background:new -49 141 512 512;" xml:space="preserve">
<style type="text/css">
	.st0{display:none;fill:#020202;}
	.st1{fill:#F0353D;}
	.st2{fill:#FD6A33;}
	.st3{fill:#FF8C29;}
	.st4{fill:#FFD1A9;}
	.st5{fill:#365558;}
	.st6{fill:#0295AA;}
	.st7{fill:#4ACFD9;}
	.st8{fill:#9BAAAB;}
	.st9{fill:#CDD4D5;}
	.st10{fill:#E6EAEA;}
	.st11{fill:#FFFFFF;}
	.st12{fill:#BCD643;}
</style>
<rect x="47" y="152" class="st0" width="512" height="512"/>
<rect x="-595" y="19.5" class="st1" width="128" height="128"/>
<rect x="-467" y="19.5" class="st2" width="128" height="128"/>
<rect x="-339" y="19.5" class="st3" width="128" height="128"/>
<rect x="-211" y="19.5" class="st4" width="128" height="128"/>
<rect x="-595" y="147.5" class="st5" width="128" height="128"/>
<rect x="-467" y="147.5" class="st6" width="128" height="128"/>
<rect x="-339" y="147.5" class="st7" width="128" height="128"/>
<rect x="-595" y="275.5" class="st8" width="128" height="128"/>
<rect x="-467" y="275.5" class="st9" width="128" height="128"/>
<rect x="-339" y="275.5" class="st10" width="128" height="128"/>
<rect x="-211" y="275.5" class="st11" width="128" height="128"/>
<rect x="-595" y="403.5" class="st12" width="128" height="128"/>
<path class="st6" d="M-40.2,425.6h30.7V397h-30.7c-4.9,0-8.8,3.9-8.8,8.8v11C-49,421.7-45.1,425.6-40.2,425.6z"/>
<path class="st4" d="M-40.2,141c-4.9,0-8.8,3.9-8.8,8.8V197c0,4.9,3.9,8.8,8.8,8.8H207V141H-40.2z"/>
<path class="st5" d="M19.3,543.3c-15.9,0-28.8-12.9-28.8-28.8V437h-30.7c-4.9,0-8.8,3.9-8.8,8.8v198.4c0,4.9,3.9,8.8,8.8,8.8H207
	V543.3H19.3z"/>
<path class="st9" d="M-40.2,215c-4.9,0-8.8,3.9-8.8,8.8v152.4c0,4.9,3.9,8.8,8.8,8.8h30.7v-76.9c0-15.9,12.9-28.8,28.8-28.8H207V215
	H-40.2z"/>
<path class="st9" d="M19.3,299.3c-4.9,0-8.8,3.9-8.8,8.8v206.4c0,4.9,3.9,8.8,8.8,8.8H207v-224H19.3L19.3,299.3z"/>
<path class="st2" d="M230.5,653h224c4.7,0,8.5-3.8,8.5-8.5v-495c0-4.7-3.8-8.5-8.5-8.5h-224c-4.7,0-8.5,3.8-8.5,8.5v495
	C222,649.2,225.8,653,230.5,653z"/>
<path class="st10" d="M439.5,177.1H244.2c-2.8,0-5.2,2.3-5.2,5.2v367.8l62.9,62.9h137.5c2.8,0,5.2-2.3,5.2-5.2V182.2
	C444.6,179.4,442.4,177.1,439.5,177.1z"/>
<path class="st9" d="M244.2,177.1c-2.8,0-5.2,2.3-5.2,5.2v367.8l62.9,62.9h35.8V177.1H244.2z"/>
<path id="SVGCleanerId_0" class="st8" d="M296.7,550.1H239l62.9,62.9v-57.7C301.9,552.3,299.7,550.1,296.7,550.1z"/>
<g>
	<path class="st3" d="M409.3,418.4h-72.8v10.3h72.8c2.8,0,5.2-2.3,5.2-5.2C414.4,420.6,412.1,418.4,409.3,418.4z"/>
	<path class="st3" d="M274.4,418.4c-2.8,0-5.2,2.3-5.2,5.2c0,2.8,2.3,5.2,5.2,5.2h62v-10.4H274.4z"/>
	<path class="st3" d="M409.3,462.3h-72.8v10.3h72.8c2.8,0,5.2-2.3,5.2-5.2C414.4,464.7,412.1,462.3,409.3,462.3z"/>
	<path class="st3" d="M274.4,462.3c-2.8,0-5.2,2.3-5.2,5.2s2.3,5.2,5.2,5.2h62v-10.3L274.4,462.3L274.4,462.3z"/>
	<path class="st3" d="M409.3,506.4h-72.8v10.3h72.8c2.8,0,5.2-2.3,5.2-5.2C414.4,508.6,412.1,506.4,409.3,506.4z"/>
	<path class="st3" d="M274.4,506.4c-2.8,0-5.2,2.3-5.2,5.2c0,2.9,2.3,5.2,5.2,5.2h62v-10.4H274.4z"/>
	<path class="st3" d="M409.3,550.4h-72.8v10.3h72.8c2.8,0,5.2-2.3,5.2-5.2C414.5,552.6,412.1,550.4,409.3,550.4z"/>
	<path class="st3" d="M274.4,550.4c-2.8,0-5.2,2.3-5.2,5.2c0,2.8,2.3,5.2,5.2,5.2h62v-10.3L274.4,550.4L274.4,550.4z"/>
</g>
<g>
	<rect x="336.4" y="418.4" class="st1" width="1.3" height="10.3"/>
	<path class="st1" d="M274.4,418.4c-2.8,0-5.2,2.3-5.2,5.2c0,2.8,2.3,5.2,5.2,5.2h62v-10.4H274.4z"/>
	<rect x="336.4" y="462.3" class="st1" width="1.3" height="10.3"/>
	<path class="st1" d="M274.4,462.3c-2.8,0-5.2,2.3-5.2,5.2c0,2.8,2.3,5.2,5.2,5.2h62v-10.3L274.4,462.3L274.4,462.3z"/>
	<rect x="336.4" y="506.4" class="st1" width="1.3" height="10.3"/>
	<path class="st1" d="M274.4,506.4c-2.8,0-5.2,2.3-5.2,5.2c0,2.8,2.3,5.2,5.2,5.2h62v-10.4H274.4z"/>
	<rect x="336.4" y="550.4" class="st1" width="1.3" height="10.3"/>
	<path class="st1" d="M274.4,550.4c-2.8,0-5.2,2.3-5.2,5.2c0,2.8,2.3,5.2,5.2,5.2h62v-10.3L274.4,550.4L274.4,550.4z"/>
</g>
<g>
	<polygon class="st8" points="301.9,613 301.9,607.5 296.4,607.5 	"/>
	<path class="st8" d="M296.7,550.1H239l57.4,57.4h5.5v-52.3C301.9,552.3,299.7,550.1,296.7,550.1z"/>
</g>
<g>
	<path class="st3" d="M409.3,243.3h-72.8v10.3h72.8c2.8,0,5.2-2.3,5.2-5.2C414.4,245.5,412.1,243.3,409.3,243.3z"/>
	<path class="st3" d="M274.4,243.3c-2.8,0-5.2,2.3-5.2,5.2c0,2.8,2.3,5.2,5.2,5.2h62v-10.4H274.4z"/>
	<path class="st3" d="M409.3,287.2h-72.8v10.3h72.8c2.8,0,5.2-2.3,5.2-5.2C414.4,289.6,412.1,287.2,409.3,287.2z"/>
	<path class="st3" d="M274.4,287.2c-2.8,0-5.2,2.3-5.2,5.2c0,2.9,2.3,5.2,5.2,5.2h62v-10.3L274.4,287.2L274.4,287.2z"/>
	<path class="st3" d="M409.3,331.3h-72.8v10.3h72.8c2.8,0,5.2-2.3,5.2-5.2C414.4,333.6,412.1,331.3,409.3,331.3z"/>
	<path class="st3" d="M274.4,331.3c-2.8,0-5.2,2.3-5.2,5.2s2.3,5.2,5.2,5.2h62v-10.4H274.4z"/>
	<path class="st3" d="M409.3,375.3h-72.8v10.3h72.8c2.8,0,5.2-2.3,5.2-5.2C414.5,377.5,412.1,375.3,409.3,375.3z"/>
	<path class="st3" d="M274.4,375.3c-2.8,0-5.2,2.3-5.2,5.2c0,2.8,2.3,5.2,5.2,5.2h62v-10.3L274.4,375.3L274.4,375.3z"/>
</g>
<g>
	<rect x="336.4" y="243.3" class="st1" width="1.3" height="10.3"/>
	<path class="st1" d="M274.4,243.3c-2.8,0-5.2,2.3-5.2,5.2c0,2.8,2.3,5.2,5.2,5.2h62v-10.4H274.4z"/>
	<rect x="336.4" y="287.2" class="st1" width="1.3" height="10.3"/>
	<path class="st1" d="M274.4,287.2c-2.8,0-5.2,2.3-5.2,5.2c0,2.8,2.3,5.2,5.2,5.2h62v-10.3L274.4,287.2L274.4,287.2z"/>
	<rect x="336.4" y="331.3" class="st1" width="1.3" height="10.3"/>
	<path class="st1" d="M274.4,331.3c-2.8,0-5.2,2.3-5.2,5.2c0,2.8,2.3,5.2,5.2,5.2h62v-10.4H274.4z"/>
	<rect x="336.4" y="375.3" class="st1" width="1.3" height="10.3"/>
	<path class="st1" d="M274.4,375.3c-2.8,0-5.2,2.3-5.2,5.2c0,2.8,2.3,5.2,5.2,5.2h62v-10.3L274.4,375.3L274.4,375.3z"/>
</g>
</svg>
