<?xml version="1.0" encoding="utf-8"?>
<!-- Generator: Adobe Illustrator 19.0.0, SVG Export Plug-In . SVG Version: 6.00 Build 0)  -->
<svg version="1.1" id="Layer_1" xmlns="http://www.w3.org/2000/svg" xmlns:xlink="http://www.w3.org/1999/xlink" x="0px" y="0px"
	 viewBox="96 11 512 512" style="enable-background:new 96 11 512 512;" xml:space="preserve">
<style type="text/css">
	.st0{display:none;fill:#0295AA;}
	.st1{fill:#F0353D;}
	.st2{fill:#FD6A33;}
	.st3{fill:#FF8C29;}
	.st4{fill:#FFD1A9;}
	.st5{fill:#365558;}
	.st6{fill:#0295AA;}
	.st7{fill:#4ACFD9;}
	.st8{fill:#9BAAAB;}
	.st9{fill:#CDD4D5;}
	.st10{fill:#E6EAEA;}
	.st11{fill:#FFFFFF;}
	.st12{fill:#BCD643;}
</style>
<circle class="st0" cx="663.5" cy="73.2" r="188.5"/>
<rect x="-455.3" y="39" class="st1" width="128" height="128"/>
<rect x="-327.3" y="39" class="st2" width="128" height="128"/>
<rect x="-199.3" y="39" class="st3" width="128" height="128"/>
<rect x="-71.3" y="39" class="st4" width="128" height="128"/>
<rect x="-455.3" y="167" class="st5" width="128" height="128"/>
<rect x="-327.3" y="167" class="st6" width="128" height="128"/>
<rect x="-199.3" y="167" class="st7" width="128" height="128"/>
<rect x="-455.3" y="295" class="st8" width="128" height="128"/>
<rect x="-327.3" y="295" class="st9" width="128" height="128"/>
<rect x="-199.3" y="295" class="st10" width="128" height="128"/>
<rect x="-71.3" y="295" class="st11" width="128" height="128"/>
<rect x="-455.3" y="423" class="st12" width="128" height="128"/>
<path class="st6" d="M96,268.7C96,390.9,195.1,490,317.3,490V47.4C195.1,47.4,96,146.5,96,268.7z"/>
<path class="st7" d="M317.3,47.4V490c40.1,0,77.8-10.7,110.2-29.4V76.8C395.1,58.1,357.4,47.4,317.3,47.4z"/>
<path class="st2" d="M166,268.7c0,83.5,67.7,151.3,151.3,151.3V117.4C233.7,117.4,166,185.2,166,268.7z"/>
<path class="st3" d="M317.3,117.4V420c43.5,0,82.7-18.3,110.2-47.7V165.1C399.9,135.8,360.8,117.4,317.3,117.4z"/>
<path class="st7" d="M318.2,182.3c-47.6,0-86.4,38.8-86.4,86.4s38.8,86.4,86.4,86.4s86.4-38.8,86.4-86.4S365.8,182.3,318.2,182.3z"
	/>
<path class="st6" d="M231.7,268.7c0,47.5,38.3,86,85.7,86.4V182.3C270.1,182.7,231.7,221.2,231.7,268.7z"/>
<path class="st10" d="M318,196.5c-0.2,0-0.4,0-0.6,0v145.6c0.2,0,0.4,0,0.6,0c40.2,0,72.8-32.7,72.8-72.8S358.1,196.5,318,196.5z"/>
<path class="st9" d="M245.1,269.3c0,39.9,32.3,72.5,72.2,72.8V196.5C277.4,196.8,245.1,229.4,245.1,269.3z"/>
<path class="st3" d="M348.7,270.3c-1.3-3.5-3.2-6-5.7-7.5c-2.5-1.5-6-2.6-10.4-3.2l-15.1-1.7v19.7l3.7,0.5c2.8,0.3,4.7,0.7,5.8,1.1
	c1.1,0.4,1.8,1,2.2,1.9c0.4,0.9,0.6,2.5,0.6,4.8c0,2.4-0.3,4.1-1,5.2s-2.1,1.9-4.4,2.3c-1.6,0.3-3.9,0.6-6.9,0.6v30.6h7.4v-12.3
	c8.6-0.4,15.1-2.6,19.4-6.4s6.5-10.7,6.5-20.8C350.6,278.7,349.9,273.8,348.7,270.3z"/>
<path class="st3" d="M320.2,241.6c7,0,15.5,0.5,25.7,1.5V226c-2.6-0.6-5.9-1.1-10-1.6s-7.8-0.9-11.2-1v-12.6h-7.4v30.9
	C318.2,241.6,319.2,241.6,320.2,241.6z"/>
<path class="st2" d="M313.1,294c-8.3,0-17.6-0.4-28-1.3v17.1c7,1.3,14.9,2.1,23.9,2.4v12.3h8.3v-30.6C316.1,294,314.7,294,313.1,294
	z"/>
<path class="st2" d="M309.1,223.5c-8.7,0.6-15.4,2.8-19.9,6.6c-4.5,3.8-6.8,10.1-6.8,19.1c0,8,1.3,14.1,3.9,18.3
	c2.7,4.2,7.8,6.8,15.6,7.9l15.4,2.1v-19.7l-5.9-0.7c-2.7-0.3-4.5-0.7-5.6-1.1c-1-0.4-1.7-1-2-1.9c-0.3-0.9-0.5-2.5-0.5-4.8
	c0-2.4,0.5-4.1,1.5-5.2c1-1.1,2.7-1.8,4.9-2.1c1.7-0.3,4.3-0.4,7.6-0.5v-30.9H309L309.1,223.5L309.1,223.5z"/>
<path class="st4" d="M355.6,144.6c-4.2-1.3-8.7,1.1-10,5.3c-1.3,4.2,1.1,8.7,5.3,10c27.9,8.6,52.1,28.3,66.3,54
	c1.5,2.6,4.2,4.1,7,4.1c1.2,0,2.3-0.3,3.4-0.8V200C411,173.4,385.6,153.8,355.6,144.6z"/>
<path class="st3" d="M284.3,391.5c-0.7,0-1.5-0.1-2.2-0.3c-32.2-9.9-58.9-31.7-75.3-61.3c-2-3.6-0.7-8.2,2.9-10.2
	c3.6-2,8.2-0.7,10.2,2.9c14.2,25.8,38.5,45.6,66.5,54.2c4,1.2,6.2,5.4,5,9.4C290.4,389.5,287.5,391.5,284.3,391.5z"/>
<path class="st10" d="M373.9,78.5c-4-1.2-8.2,1-9.4,5c-1.2,4,1,8.2,5,9.4c21,6.5,40.7,16.8,58,30.1v-18.6
	C411.1,93.1,393.1,84.4,373.9,78.5z"/>
<path class="st9" d="M262.9,459.3c-0.7,0-1.5-0.1-2.2-0.3c-24.7-7.6-47.5-19.8-67.6-36.3c-19.9-16.3-36.3-36-48.7-58.5
	c-2-3.6-0.7-8.2,2.9-10.2c3.6-2,8.2-0.7,10.2,2.9c23,41.7,62.2,73.7,107.6,87.7c4,1.2,6.2,5.4,5,9.4
	C269,457.2,266.1,459.3,262.9,459.3z"/>
<path class="st5" d="M591.9,486.3h13.1c1.6,0,2.9-1.3,2.9-2.9V51.2c0-1.6-1.3-2.9-2.9-2.9h-13.1c-1.6,0-2.9,1.3-2.9,2.9v432.1
	C589,484.9,590.3,486.3,591.9,486.3z"/>
<path class="st12" d="M572.4,47L453.1,12c-3.5-0.8-5.6,2.5-5.6,5.6v496.8c0,3.1,2.3,6.4,5.6,5.6l119.3-33c3.2-1,5.6-2.5,5.6-5.6
	V52.6C578,49.5,575.2,47.7,572.4,47z"/>
<ellipse class="st5" cx="474.6" cy="256.7" rx="6.1" ry="12.6"/>
</svg>
