<?xml version="1.0" encoding="utf-8"?>
<!-- Generator: Adobe Illustrator 19.0.0, SVG Export Plug-In . SVG Version: 6.00 Build 0)  -->
<svg version="1.1" id="Layer_1" xmlns="http://www.w3.org/2000/svg" xmlns:xlink="http://www.w3.org/1999/xlink" x="0px" y="0px"
	 viewBox="96 11 512 512" style="enable-background:new 96 11 512 512;" xml:space="preserve">
<style type="text/css">
	.st0{fill:#F0353D;}
	.st1{fill:#0295AA;}
	.st2{fill:#365558;}
	.st3{fill:#FD6A33;}
	.st4{fill:#FF8C29;}
	.st5{fill:#FFD1A9;}
	.st6{fill:#4ACFD9;}
	.st7{fill:#9BAAAB;}
	.st8{fill:#CDD4D5;}
	.st9{fill:#E6EAEA;}
	.st10{fill:#FFFFFF;}
	.st11{fill:#BCD643;}
</style>
<rect x="-545" y="-29.8" class="st0" width="128" height="128"/>
<path class="st1" d="M569.5,481.1H352v41.6h217.5c6.6,0,12-8.8,12-19.6v-2.5C581.5,489.9,576.1,481.1,569.5,481.1z"/>
<path class="st2" d="M134.5,481.1c-6.6,0-12,8.8-12,19.6v2.5c0,10.8,5.4,19.6,12,19.6H352v-41.6L134.5,481.1L134.5,481.1z"/>
<circle class="st2" cx="442" cy="86.2" r="14.8"/>
<circle class="st2" cx="482" cy="86.2" r="14.8"/>
<path class="st2" d="M356.3,89.4l-0.9,0.9c-2.1,2.1-5.6,2.1-7.7,0l-68.9-68.9c-2.1-2.1-2.1-5.6,0-7.7l0.9-0.9c2.1-2.1,5.6-2.1,7.7,0
	l68.9,68.9C358.4,83.8,358.4,87.3,356.3,89.4z"/>
<path class="st1" d="M347.6,89.4l0.9,0.9c2.1,2.1,5.6,2.1,7.7,0l68.9-68.9c2.1-2.1,2.1-5.6,0-7.7l-0.9-0.9c-2.1-2.1-5.6-2.1-7.7,0
	l-68.9,68.9C345.5,83.8,345.5,87.3,347.6,89.4z"/>
<circle class="st2" cx="352" cy="86.7" r="14.8"/>
<rect x="-417" y="-29.8" class="st3" width="128" height="128"/>
<rect x="-289" y="-29.8" class="st4" width="128" height="128"/>
<rect x="-161" y="-29.8" class="st5" width="128" height="128"/>
<rect x="-545" y="98.2" class="st2" width="128" height="128"/>
<rect x="-417" y="98.2" class="st1" width="128" height="128"/>
<rect x="-289" y="98.2" class="st6" width="128" height="128"/>
<rect x="-545" y="226.2" class="st7" width="128" height="128"/>
<rect x="-417" y="226.2" class="st8" width="128" height="128"/>
<rect x="-289" y="226.2" class="st9" width="128" height="128"/>
<rect x="-161" y="226.2" class="st10" width="128" height="128"/>
<rect x="-545" y="354.2" class="st11" width="128" height="128"/>
<path class="st4" d="M518.5,86.2H352v411h166.5c49.2,0,89.5-40.3,89.5-89.5v-232C608,126.5,567.7,86.2,518.5,86.2z"/>
<path class="st3" d="M185.5,86.2c-49.2,0-89.5,40.3-89.5,89.5v232c0,49.2,40.3,89.5,89.5,89.5H352v-411L185.5,86.2L185.5,86.2z"/>
<path class="st2" d="M369.7,421.5c-5.9,0-11.8,0-17.7-0.1l-9.9-0.1v-312h10c45,0,105.6,1.7,128.1,6.6c38,8.2,94.6,48.1,97.4,98.7
	c0.5,8.8,1,16.3,1.5,22.9c1.9,26.2,2.9,40.7-1.6,81.7c-6.1,56-53.9,91.9-98,98.3C456.3,421,400.7,421.5,369.7,421.5z"/>
<path class="st2" d="M352,421.4c-52.4-0.2-104.6-1.7-126.9-3.7c-47.4-4.2-89.8-46.3-98.5-97.8c-7.1-42.2-5.9-53.2-1.4-94.1
	c0.4-3.6,0.8-7.5,1.3-11.6c5.5-50.9,42-87.6,97.6-98.2c21.4-4.1,69.2-6.6,127.9-6.6h10v312.1L352,421.4z"/>
<path class="st6" d="M567.5,215.2c-2.4-43.5-52.6-81.5-89.5-89.5c-18.9-4.1-72.2-6.4-126-6.4v292.1c52.8,0.3,105.3-0.7,126-3.7
	c41-6,84-39,89.5-89.5S570,258.7,567.5,215.2z"/>
<path class="st1" d="M226,125.7c-47,9-84,39-89.5,89.5s-7.5,58.5,0,103s44.5,85.5,89.5,89.5c22.3,2,74.2,3.5,126,3.7V119.3
	C300.7,119.3,248.9,121.3,226,125.7z"/>
<path class="st2" d="M455.2,452l-12.1-12.1c-6.8,10.3-5.7,24.3,3.3,33.4c10.3,10.4,27.1,10.4,37.5,0l0,0L462.7,452
	C460.6,454,457.4,454,455.2,452z"/>
<path class="st1" d="M484.1,435.7c-9-9.1-23-10.2-33.4-3.4l12.1,12.1c2,2.1,2,5.5,0,7.5l0,0l21.3,21.3
	C494.4,462.9,494.4,446.2,484.1,435.7z"/>
<path class="st6" d="M257,454.2c0.1-12.5-10-22.8-22.4-22.9h-0.1v45.1C246.8,476.4,257,466.4,257,454.2z"/>
<path class="st1" d="M212.7,453.8c-0.1,12.5,10,22.6,22.5,22.7c0.1,0,0.1,0,0.2,0v-45.2C222.9,431.3,212.8,441.4,212.7,453.8z"/>
<path class="st6" d="M316,470.8c8.9-8.8,9-23.2,0.3-32l0,0l-31.9,31.9C293.1,479.3,307.3,479.4,316,470.8z"/>
<path class="st1" d="M285,439.2c-8.9,8.8-8.9,23-0.1,31.9l0.1,0.1l31.9-31.9C308.1,430.5,293.8,430.5,285,439.2z"/>
<path class="st5" d="M352,150.5c-63.4,0-114.9,51.5-114.9,114.9S288.6,380.3,352,380.3s114.9-51.5,114.9-114.9
	S415.4,150.5,352,150.5z"/>
<path class="st4" d="M237.1,265.4c0,63.4,51.5,114.9,114.9,114.9V150.5C288.6,150.5,237.1,202,237.1,265.4z"/>
<path class="st10" d="M424.6,247.8c-3.3,0-6.4-2.1-7.6-5.3c-5.9-16.7-18.4-30.9-34.4-38.8c-4-2-5.6-6.8-3.6-10.7
	c2-4,6.8-5.6,10.7-3.6c19.6,9.8,35.1,27.2,42.4,47.8c1.5,4.2-0.7,8.8-4.9,10.2C426.4,247.6,425.5,247.8,424.6,247.8z"/>
<path class="st0" d="M395.4,258.2l-65-50.4c-2.4-1.9-5.7-2.2-8.4-0.9c-2.7,1.3-4.5,4.1-4.5,7.2v102.6c0,3.1,1.8,5.9,4.6,7.2
	c1.1,0.5,2.3,0.8,3.5,0.8c1.8,0,3.6-0.6,5-1.8l65-52.2c1.9-1.5,3-3.9,3-6.3C398.5,262,397.3,259.7,395.4,258.2z"/>
<path class="st5" d="M577.6,172.1c-3.3,0-6.4-2.1-7.6-5.3c-5.9-16.7-18.4-30.9-34.4-38.8c-4-2-5.6-6.8-3.6-10.7
	c2-4,6.8-5.6,10.7-3.6c19.6,9.8,35.1,27.2,42.4,47.8c1.5,4.2-0.7,8.8-4.9,10.2C579.4,171.9,578.5,172.1,577.6,172.1z"/>
<path class="st4" d="M130.5,405c3.3,0,6.4,2.1,7.6,5.3c5.9,16.7,18.4,30.9,34.4,38.8c4,2,5.6,6.8,3.6,10.7c-2,4-6.8,5.6-10.7,3.6
	c-19.6-9.8-35.1-27.2-42.4-47.8c-1.5-4.2,0.7-8.8,4.9-10.2C128.7,405.2,129.6,405,130.5,405z"/>
</svg>
