<?xml version="1.0" encoding="utf-8"?>
<!-- Generator: Adobe Illustrator 19.0.0, SVG Export Plug-In . SVG Version: 6.00 Build 0)  -->
<svg version="1.1" id="Layer_1" xmlns="http://www.w3.org/2000/svg" xmlns:xlink="http://www.w3.org/1999/xlink" x="0px" y="0px"
	 viewBox="96 11 512 512" style="enable-background:new 96 11 512 512;" xml:space="preserve">
<style type="text/css">
	.st0{fill:#FFD1A9;}
	.st1{fill:#FF8C29;}
	.st2{fill:#FD6A33;}
	.st3{fill:#F0353D;}
	.st4{fill:#BCD643;}
	.st5{fill:#CDD4D5;}
	.st6{fill:#9BAAAB;}
	.st7{fill:#4ACFD9;}
	.st8{fill:#0295AA;}
	.st9{fill:#E6EAEA;}
	.st10{fill:none;stroke:#CDD4D5;stroke-width:10;stroke-linejoin:round;stroke-miterlimit:10;}
	.st11{fill:none;stroke:#E6EAEA;stroke-width:10;stroke-linejoin:round;stroke-miterlimit:10;}
	.st12{fill:#FFFFFF;}
</style>
<g>
	<path class="st0" d="M424.4,187.5h81.9V293h50.9V171.4c-0.1-2.7-2.2-4.9-4.9-4.9H377.3c-2.7,0-4.8,2.2-4.8,4.8V293h51.9
		L424.4,187.5L424.4,187.5z"/>
	<path class="st0" d="M377.3,413h126.2c1.2,0,2.5-0.5,3.4-1.4l48.9-48.9c0.9-0.9,1.4-2.1,1.4-3.4v-53.4l-91.8,91.8l-93-93.2v103.7
		C372.5,410.8,374.7,413,377.3,413z"/>
	<path class="st1" d="M377.3,413h87.6v-16l-92.4-92.6v103.7C372.4,410.8,374.6,413,377.3,413z"/>
	<path class="st1" d="M424.4,187.5h40.4v-21h-87.6c-2.7,0-4.8,2.2-4.8,4.8V293h52V187.5z"/>
	<path class="st2" d="M555.8,362.8c0.9-0.9,1.4-2.1,1.4-3.4h-48.9c-2.7-0.1-4.8,2.1-4.8,4.8v48.9c1.2,0,2.5-0.5,3.4-1.4L555.8,362.8
		z"/>
	<path class="st0" d="M527.7,192.5"/>
	<rect x="438" y="201.1" class="st3" width="54.7" height="106.7"/>
	<polygon class="st3" points="393.9,306.6 465.5,378.4 537.2,306.6 	"/>
</g>
<g>
	<path class="st0" d="M327.7,166.5H152.2c-2.6,0-4.8,2.2-4.8,4.8v104l93.3-93.3l91.8,91.9V171.4
		C332.5,168.7,330.3,166.5,327.7,166.5z"/>
	<path class="st0" d="M282.1,412.1l49-49c0.8-0.8,1.4-2.2,1.4-3.4v-72.8h-50.8v105.6h-82.1V286.9h-52.3v121.6c0,2.6,2.2,4.8,4.8,4.8
		h126.3C279.9,413.5,281.2,413,282.1,412.1z"/>
	<path class="st1" d="M239.9,166.5h-87.7c-2.6,0-4.8,2.2-4.8,4.8v104l92.5-92.5V166.5z"/>
	<path class="st1" d="M199.8,286.8h-52.3v121.8c0,2.6,2.2,4.8,4.8,4.8h87.7v-21.1h-40.2V286.8z"/>
	<path class="st2" d="M331,363.1c0.8-0.8,1.4-2.2,1.4-3.4h-49c-2.6-0.1-4.8,2.2-4.8,4.8v49c1.2,0,2.5-0.5,3.4-1.4L331,363.1z"/>
	<rect x="213.3" y="271.9" class="st4" width="54.7" height="106.8"/>
	<polygon class="st4" points="312.4,273.2 240.7,201.3 168.8,273.2 	"/>
</g>
<path class="st5" d="M569.2,425.7H354.6V458h214.6c7.5,0,13.6-6.1,13.6-13.6v-5.1C582.7,431.8,576.6,425.7,569.2,425.7z"/>
<path class="st6" d="M136.6,425.7c-7.5,0-13.6,6.1-13.6,13.6v5.1c0,7.5,6.1,13.6,13.6,13.6h218v-32.3H136.6L136.6,425.7z"/>
<path class="st7" d="M599.7,130.7L397.6,30.4c-11.8-6.9-27.4-10.4-43-10.4v135.8h238.3C606.8,155.8,613.3,139.5,599.7,130.7z"/>
<path class="st8" d="M311.6,30.4L105,130.7c-12.6,7.3-9.8,25.1,6.8,25.1h242.7V20C339,20,323.4,23.5,311.6,30.4z"/>
<path class="st7" d="M592.9,470.5H354.6V514H593c7.5,0,13.6-6.1,13.6-13.6v-16.3C606.5,476.7,600.4,470.5,592.9,470.5z"/>
<path class="st8" d="M110.5,470.5c-7.5,0-13.6,6.1-13.6,13.6v16.3c0,7.5,6.1,13.6,13.6,13.6h244v-43.5H110.5z"/>
<g>
	<circle class="st5" cx="300.3" cy="205" r="12.5"/>
	<circle class="st5" cx="168.3" cy="205" r="12.5"/>
	<circle class="st9" cx="536.9" cy="204.7" r="12.5"/>
	<circle class="st9" cx="404.8" cy="204.7" r="12.5"/>
	<polyline class="st10" points="300.3,205 300.3,116.3 354.6,116.3 	"/>
	<polyline class="st10" points="168.3,205 168.3,116.3 232.5,116.3 232.5,83 354.6,83 	"/>
	<polyline class="st11" points="405.5,205 405.5,116.3 351.3,116.3 	"/>
	<polyline class="st11" points="537.6,205 537.6,116.3 473.3,116.3 473.3,83 351.3,83 	"/>
</g>
<path class="st1" d="M354.6,37.4v109.3c30.2,0,54.6-24.5,54.6-54.6S384.7,37.4,354.6,37.4z"/>
<path class="st2" d="M299.9,92c0,30.2,24.5,54.6,54.6,54.6V37.3C324.4,37.4,299.9,61.8,299.9,92z"/>
<path class="st12" d="M375,89.6c4.7-2.4,7.6-6.6,6.9-13.6c-0.9-9.6-8.8-12.8-19.3-13.7V49h-8.1v13c-2.1,0-4.3,0.1-6.4,0.1V49H340
	v13.3c-3,0.1-6.5,0-16.3,0V71c6.4-0.1,9.8-0.5,10.6,3.6v36.5c-0.5,3.3-3.1,2.8-8.9,2.7l-1.6,9.7c14.8,0,16.3,0.1,16.3,0.1V135h8.1
	v-11.2c2.2,0.1,4.4,0.1,6.4,0.1v11.2h8.1v-11.4c13.6-0.7,22.8-4.2,24-17C387.5,96,382.7,91.4,375,89.6L375,89.6z M348.2,71.4
	c4.6,0,19-1.4,19,8.1c0,9.1-14.4,8.1-19,8.1V71.4L348.2,71.4z M348.2,113.7V95.8c5.5,0,22.3-1.5,22.3,8.9
	C370.5,114.8,353.7,113.7,348.2,113.7L348.2,113.7z"/>
</svg>
