<?xml version="1.0" encoding="utf-8"?>
<!-- Generator: Adobe Illustrator 19.0.0, SVG Export Plug-In . SVG Version: 6.00 Build 0)  -->
<svg version="1.1" id="Layer_1" xmlns="http://www.w3.org/2000/svg" xmlns:xlink="http://www.w3.org/1999/xlink" x="0px" y="0px"
	 viewBox="96 11 512 512" style="enable-background:new 96 11 512 512;" xml:space="preserve">
<style type="text/css">
	.st0{fill:#CDD4D5;}
	.st1{fill:#9BAAAB;}
	.st2{fill:#FD6A33;}
	.st3{fill:#FF8C29;}
	.st4{fill:#4ACFD9;}
	.st5{fill:#0295AA;}
	.st6{fill:#FFD1A9;}
	.st7{fill:#E6EAEA;}
	.st8{fill:none;stroke:#CDD4D5;stroke-width:10;stroke-linejoin:round;stroke-miterlimit:10;}
	.st9{fill:none;stroke:#E6EAEA;stroke-width:10;stroke-linejoin:round;stroke-miterlimit:10;}
	.st10{fill:#FFFFFF;}
	.st11{fill:#F0353D;}
</style>
<path class="st0" d="M462.7,486.4H353.3v13.4h109.3c3.8,0,6.9-2.6,6.9-5.6v-2.1C469.5,489,466.4,486.4,462.7,486.4z"/>
<path class="st1" d="M242.2,486.4c-3.8,0-6.9,2.6-6.9,5.6v2.1c0,3.1,3.1,5.6,6.9,5.6h111v-13.4H242.2L242.2,486.4z"/>
<path class="st2" d="M281.5,395.7h-15.6c-3.8,0-6.9,2.6-6.9,5.6l-1,79.3c0,3.1,3.1,5.6,6.9,5.6h17.6c3.8,0,6.9-2.6,6.9-5.6l-1-79.3
	C288.4,398.3,285.3,395.7,281.5,395.7z"/>
<path class="st2" d="M333.9,395.7h-15.6c-3.8,0-6.9,2.6-6.9,5.6l-2,79.3c0,3.1,3.1,5.6,6.9,5.6H335c3.8,0,6.9-2.6,6.9-5.6l-1-79.3
	C340.9,398.3,337.7,395.7,333.9,395.7z"/>
<path class="st3" d="M387.3,395.7h-17.2c-3.3,0-6.1,2.2-6.1,5l-1,80.6c0,2.7,2.8,5,6.1,5h19.2c3.3,0,6.1-2.2,6.1-5l-1-80.6
	C393.4,398,390.6,395.7,387.3,395.7z"/>
<path class="st3" d="M439.7,395.7h-17.2c-3.3,0-6.1,2.2-6.1,5l-1,80.6c0,2.7,2.8,5,6.1,5h19.2c3.3,0,6.1-2.2,6.1-5l-1-80.6
	C445.9,398,443.1,395.7,439.7,395.7z"/>
<path class="st4" d="M478.2,364.2l-103-41.5c-6-2.9-14-4.3-21.9-4.3v56.3h121.4C481.8,374.6,485.1,367.9,478.2,364.2z"/>
<path class="st5" d="M331.3,322.7l-105.2,41.5c-6.4,3-4.9,10.4,3.4,10.4h123.6v-56.3C345.3,318.3,337.4,319.8,331.3,322.7z"/>
<path class="st4" d="M474.7,505H353.3v18h121.4c3.8,0,6.9-2.6,6.9-5.6v-6.7C481.6,507.5,478.5,505,474.7,505z"/>
<path class="st5" d="M229,505c-3.8,0-6.9,2.6-6.9,5.6v6.7c0,3.1,3.1,5.6,6.9,5.6h124.3v-18H229z"/>
<path class="st0" d="M462.7,380.7H353.3v15h109.3c3.8,0,6.9-2.6,6.9-5.6v-3.8C469.5,383.3,466.4,380.7,462.7,380.7z"/>
<path class="st1" d="M242.2,380.7c-3.8,0-6.9,2.6-6.9,5.6v3.8c0,3.1,3.1,5.6,6.9,5.6h111v-15L242.2,380.7L242.2,380.7z"/>
<path class="st6" d="M437.4,480.4L437.4,480.4c-1.5,0-2.8-1-2.8-2.2v-73.5c0-1.2,1.2-2.2,2.8-2.2l0,0c1.5,0,2.8,1,2.8,2.2V478
	C440.2,479.3,439,480.4,437.4,480.4z"/>
<path class="st6" d="M385.5,480.4L385.5,480.4c-1.5,0-2.8-1-2.8-2.2v-73.5c0-1.2,1.2-2.2,2.8-2.2l0,0c1.5,0,2.8,1,2.8,2.2V478
	C388.2,479.3,387,480.4,385.5,480.4z"/>
<path class="st3" d="M332.4,480L332.4,480c-1.5,0-2.8-1-2.8-2.2v-73.4c0-1.2,1.2-2.2,2.8-2.2l0,0c1.5,0,2.8,1,2.8,2.2v73.4
	C335.2,479,333.9,480,332.4,480z"/>
<path class="st3" d="M280.4,480L280.4,480c-1.5,0-2.8-1-2.8-2.2v-73.4c0-1.2,1.2-2.2,2.8-2.2l0,0c1.5,0,2.8,1,2.8,2.2v73.4
	C283.2,479,282,480,280.4,480z"/>
<ellipse class="st0" cx="325.6" cy="388.4" rx="6.4" ry="5.2"/>
<ellipse class="st0" cx="273.7" cy="388.4" rx="6.4" ry="5.2"/>
<ellipse class="st7" cx="430.9" cy="388.2" rx="6.4" ry="5.2"/>
<ellipse class="st7" cx="378.8" cy="388.2" rx="6.4" ry="5.2"/>
<polyline class="st8" points="325.6,388.4 325.6,362 353.3,362 "/>
<polyline class="st8" points="273.7,388.4 273.7,362 306.4,362 306.4,348.1 353.3,348.1 "/>
<polyline class="st9" points="379.2,388.4 379.2,362 351.6,362 "/>
<polyline class="st9" points="431.3,388.4 431.3,362 398.5,362 398.5,348.1 351.6,348.1 "/>
<path class="st3" d="M353.3,325.5v45.3c15.4,0,27.8-10.1,27.8-22.6C381.1,335.8,368.6,325.5,353.3,325.5z"/>
<path class="st2" d="M325.4,348.1c0,12.5,12.5,22.6,27.8,22.6v-45.3C337.9,325.5,325.4,335.7,325.4,348.1z"/>
<path class="st10" d="M363.7,347.2c2.4-1,3.9-2.7,3.5-5.6c-0.5-3.9-4.5-5.3-9.8-5.6v-5.6h-4.1v5.4c-1,0-2.2,0.1-3.2,0.1v-5.4H346
	v5.5c-1.5,0.1-3.3,0-8.3,0v3.6c3.2-0.1,4.9-0.2,5.4,1.5v15.1c-0.3,1.4-1.6,1.2-4.6,1.1l-0.9,4c7.5,0,8.3,0.1,8.3,0.1v4.7h4.1v-4.6
	c1.1,0.1,2.3,0.1,3.2,0.1v4.6h4.1v-4.8c6.9-0.3,11.6-1.7,12.3-7C370.1,349.8,367.6,347.9,363.7,347.2L363.7,347.2z M350,339.6
	c2.4,0,9.7-0.5,9.7,3.3c0,3.8-7.3,3.3-9.7,3.3V339.6L350,339.6z M350,357.2v-7.4c2.8,0,11.3-0.6,11.3,3.7
	C361.4,357.7,352.8,357.2,350,357.2L350,357.2z"/>
<path class="st2" d="M215.6,155.8h-6.9h-6.9c-8.9,0-16.1,6.8-16.1,14.8l12.2,64.1c0,8.2,7.3,14.8,16.1,14.8h7h6.9c4,0,7.5-3,7.5-6.9
	l-12.2-80.2C223.1,159,219.7,155.8,215.6,155.8z"/>
<path class="st3" d="M482.9,249.5h-6.9c-4,0-7.5-3-7.5-6.9l12.2-80.2c0-3.7,3.3-6.9,7.5-6.9h6.9h7c8.9,0,16.1,6.8,16.1,14.8
	l-12.2,64.2c0,8.2-7.3,14.8-16.1,14.8L482.9,249.5L482.9,249.5z"/>
<path class="st3" d="M430.8,96.1h-51.2c-5,0-9.8-4.2-9.8-9v-2.1h-17.8v148.1h5.9h4.3c2.1,0,3.7,1.6,3.7,3.2v6.2
	c0,1.9-1.7,3.3-3.7,3.3h-4.3v0.1h-5.9v48h66.6c20.6,0,37.3-15.3,37.3-34.3l12.2-129.6C468,111.2,451.1,95.8,430.8,96.1z
	 M417.1,242.4c0,2-1.8,3.6-3.9,3.6H393c-2.1,0-3.9-1.7-3.9-3.6v-5.8c0-2,1.8-3.6,3.9-3.6h20.2c2.2,0,3.9,1.7,3.9,3.6V242.4z
	 M403.1,189.5c-10.2,0-18.6-4.3-18.6-9.7c0-5.3,8.3-9.7,18.6-9.7s18.6,4.3,18.6,9.7C421.7,185.1,413.3,189.5,403.1,189.5z"/>
<path class="st3" d="M375.4,79.1c8.1-4.8,5.8-15.9-2-21.5c0,0-21.4,14.5-21.4,27.1c6.2,0,17.8,0,17.8,0S368.8,83.2,375.4,79.1z"/>
<path class="st2" d="M351.9,84.9h-17.8v1.9c0,5.1-5.8,9-11.2,9h-49.6c-20.6,0-37.3,15.3-37.3,34.3l12.2,129.6
	c0,18.9,16.8,34.3,37.3,34.3h66.4V246h-10.3c-2.1,0-3.7-1.6-3.7-3.3v-6.2c0-1.9,1.7-3.3,3.7-3.3h6.3h4V84.9z M314.8,242.6
	c0,1.9-1.7,3.3-3.7,3.3h-20.8c-2.1,0-3.7-1.6-3.7-3.3v-6.2c0-1.9,1.7-3.3,3.7-3.3h20.8c2,0,3.7,1.6,3.7,3.3V242.6z M300.8,189.4
	c-10.2,0-18.6-4.3-18.6-9.7c0-5.3,8.3-9.7,18.6-9.7s18.6,4.3,18.6,9.7C319.4,185,311,189.4,300.8,189.4z"/>
<path class="st2" d="M347.1,60.2c-6.9,4.1-12.9,11.1-12.9,24.7c8.3,0,11.6,0,17.8,0c0-12.8,21.6-27.4,21.6-27.4
	C365.8,52.1,353.7,56,347.1,60.2z"/>
<path class="st6" d="M213.9,212.2c0.8,1,1.1,2.3,0.6,3.6c-1.8,7.1-0.3,14.5,4,20.4c1.4,1.9,1,4.6-0.9,6.1c-2.1,1.4-4.9,1.1-6.3-0.7
	c-6.1-7.8-8.1-17.8-5.4-27.4c0.6-2.3,3-3.8,5.4-3.2C212.6,210.8,213.2,211.4,213.9,212.2z"/>
<path class="st6" d="M493.2,210.8c2.4-0.6,4.9,1,5.4,3.2c2.7,9.6,0.6,19.6-5.4,27.4c-1.4,1.8-4.2,2.1-6.3,0.7
	c-1.8-1.4-2.4-4.1-0.9-6.1c4.4-5.9,5.9-13.1,4-20.4c-0.4-1.2-0.1-2.6,0.6-3.6C491.2,211.4,492,210.8,493.2,210.8z"/>
<path class="st11" d="M423.7,31.5l-21.5,14.3c-2.9,1.9-7.4,1.9-10.4-0.1c-2.9-2-2.9-5,0.1-6.9l21.5-14.3c2.9-1.9,7.4-1.9,10.4,0.1
	C426.5,26.4,426.5,29.5,423.7,31.5z"/>
<path class="st11" d="M440.9,61.6c-1.4,1-3.1,1.5-5.3,1.4l-27.3-0.1c-4.1,0-7.3-2.2-7.3-5c0-2.7,3.3-4.9,7.4-4.9l27.3,0.1
	c4.1,0,7.3,2.2,7.3,5C443.1,59.5,442.1,60.8,440.9,61.6z"/>
<path class="st11" d="M378.8,37.9c-1.4,1-3.1,1.5-5.3,1.4c-4.1,0-7.3-2.2-7.3-5l0.1-18.3c0-2.7,3.3-4.9,7.4-4.9c4.1,0,7.3,2.2,7.3,5
	L381,34.3C380.8,35.7,380.2,36.9,378.8,37.9z"/>
</svg>
