<?xml version="1.0" encoding="utf-8"?>
<!-- Generator: Adobe Illustrator 19.0.0, SVG Export Plug-In . SVG Version: 6.00 Build 0)  -->
<svg version="1.1" id="Layer_1" xmlns="http://www.w3.org/2000/svg" xmlns:xlink="http://www.w3.org/1999/xlink" x="0px" y="0px"
	 viewBox="96 11 512 512" style="enable-background:new 96 11 512 512;" xml:space="preserve">
<style type="text/css">
	.st0{fill:#CDD4D5;}
	.st1{fill:#9BAAAB;}
	.st2{fill:#E6EAEA;}
	.st3{fill:none;stroke:#CDD4D5;stroke-width:10;stroke-linejoin:round;stroke-miterlimit:10;}
	.st4{fill:none;stroke:#E6EAEA;stroke-width:10;stroke-linejoin:round;stroke-miterlimit:10;}
	.st5{fill:#FF8C29;}
	.st6{fill:#FD6A33;}
	.st7{fill:#FFD1A9;}
	.st8{fill:#FFFFFF;}
	.st9{fill:#687F82;}
	.st10{fill:#365558;}
	.st11{fill:#F0353D;}
	.st12{fill:#0295AA;}
	.st13{fill:#4ACFD9;}
</style>
<path class="st0" d="M569.2,425.7H354.6V458h214.6c7.5,0,13.6-6.1,13.6-13.6v-5.1C582.7,431.8,576.6,425.7,569.2,425.7z"/>
<path class="st1" d="M136.6,425.7c-7.5,0-13.6,6.1-13.6,13.6v5.1c0,7.5,6.1,13.6,13.6,13.6h218v-32.3L136.6,425.7L136.6,425.7z"/>
<path class="st0" d="M599.7,130.7L397.6,30.4c-11.8-6.9-27.4-10.4-43-10.4v135.8h238.3C606.8,155.8,613.3,139.5,599.7,130.7z"/>
<path class="st1" d="M311.6,30.4L105,130.7c-12.6,7.3-9.8,25.1,6.8,25.1h242.7V20C339,20,323.4,23.5,311.6,30.4z"/>
<path class="st0" d="M592.9,470.5H354.6V514H593c7.5,0,13.6-6.1,13.6-13.6v-16.3C606.5,476.8,600.4,470.5,592.9,470.5z"/>
<path class="st1" d="M110.5,470.5c-7.5,0-13.6,6.1-13.6,13.6v16.3c0,7.5,6.1,13.6,13.6,13.6h244v-43.5H110.5z"/>
<path class="st0" d="M569.2,170.6H354.6v36.2h214.6c7.5,0,13.6-6.1,13.6-13.6v-9.1C582.7,176.7,576.6,170.6,569.2,170.6z"/>
<path class="st1" d="M136.6,170.6c-7.5,0-13.6,6.1-13.6,13.6v9.1c0,7.5,6.1,13.6,13.6,13.6h218v-36.2L136.6,170.6L136.6,170.6z"/>
<circle class="st0" cx="300.3" cy="189" r="12.5"/>
<circle class="st0" cx="198.3" cy="189" r="12.5"/>
<circle class="st2" cx="506.9" cy="188.7" r="12.5"/>
<circle class="st2" cx="404.8" cy="188.7" r="12.5"/>
<polyline class="st3" points="300.3,189 300.3,125.3 354.6,125.3 "/>
<polyline class="st3" points="198.3,189 198.3,125.3 262.5,125.3 262.5,92 354.6,92 "/>
<polyline class="st4" points="405.5,189 405.5,125.3 351.3,125.3 "/>
<polyline class="st4" points="507.6,189 507.6,125.3 443.3,125.3 443.3,92 351.3,92 "/>
<path class="st5" d="M354.6,37.4v109.3c30.2,0,54.6-24.5,54.6-54.6S384.7,37.4,354.6,37.4z"/>
<path class="st6" d="M299.9,92c0,30.2,24.5,54.6,54.6,54.6V37.3C324.4,37.4,299.9,61.8,299.9,92z"/>
<path class="st7" d="M446.9,207.8"/>
<g>
	<path class="st8" d="M338.8,103.5l-4.7,9.8c-0.6,1.4-1,2.4-1,3.2c0,1.5,1.1,2.5,3.4,3.1v1.6h-23.1v-1.6c1.4-0.3,2.4-0.7,3.1-1.4
		c0.7-0.7,1.5-2,2.5-4l25.6-53.6c0.8-1.7,1.2-3.1,1.2-4.1c0-1.6-1-2.7-3-3.4v-1.6h24.7v1.6c-2,0.6-3,1.6-3,3c0,1,0.3,2.1,1,3.4
		l26.6,53.7c1.1,2.3,2.1,3.8,3,4.7c0.9,0.8,2,1.4,3.4,1.7v1.6h-25.7v-1.6c2.3-0.4,3.4-1.4,3.4-3.2c0-0.7-0.3-1.8-1-3.2l-4.8-9.8
		 M370.5,103.5l-15.7-34.4l-16,34.4"/>
</g>
<path class="st8" d="M390.3,98.7h-71.6c-1.4,0-2.5,1.1-2.5,2.5v1c0,1.4,1.1,2.5,2.5,2.5h71.6c1.4,0,2.5-1.1,2.5-2.5v-1
	C392.8,99.9,391.6,98.7,390.3,98.7z"/>
<path class="st8" d="M386.6,90.2h-64c-1.1,0-2,0.9-2,2v1c0,1.1,0.9,2,2,2h64c1.1,0,2-0.9,2-2v-1C388.6,91.1,387.7,90.2,386.6,90.2z"
	/>
<g>
	<path class="st9" d="M482.2,186.6H227c-3.2,0-5.7,2.6-5.7,5.7v325c0,3.2,2.6,5.7,5.7,5.7h255.2c3.2,0,5.7-2.6,5.7-5.7v-325
		C487.9,189.1,485.4,186.6,482.2,186.6z M354.6,425c-40.1,0-72.5-32.5-72.5-72.5s32.5-72.5,72.5-72.5s72.5,32.5,72.5,72.5
		S394.7,425,354.6,425z"/>
	<path class="st10" d="M282.1,352.4c0-40.1,32.5-72.5,72.5-72.5v-93.4H227c-3.2,0-5.7,2.6-5.7,5.7v325c0,3.2,2.6,5.7,5.7,5.7h127.6
		V425C314.5,425,282.1,392.5,282.1,352.4z"/>
	<path class="st2" d="M457.4,210.8H250.8c-3.2,0-5.7,2.6-5.7,5.7v279.5c0,3.2,2.6,5.7,5.7,5.7h148.9c1.5,0,2.9-0.6,4-1.6l57.8-57.8
		c1.1-1.1,1.6-2.5,1.6-4V216.6C463.1,213.4,460.6,210.8,457.4,210.8z"/>
	<path class="st5" d="M415.4,186.6h-20.3c-5.2-17.8-21.5-30.4-40.5-30.4s-35.3,12.5-40.5,30.4h-20.3c-3.2,0-5.7,2.6-5.7,5.7v45.6
		c0,3.2,2.6,5.7,5.7,5.7h121.5c3.2,0,5.7-2.6,5.7-5.7v-45.6C421.1,189.1,418.5,186.6,415.4,186.6z"/>
	<path class="st11" d="M314.1,186.6h-20.3c-3.2,0-5.7,2.6-5.7,5.7v45.6c0,3.2,2.6,5.7,5.7,5.7h60.8v-87.3
		C335.6,156.2,319.3,168.7,314.1,186.6z"/>
	<path class="st8" d="M375.5,200.5c-2.7,0-5.2-2-5.6-4.7c-1.3-7.5-7.7-13-15.3-13c-3.2,0-5.7-2.6-5.7-5.7s2.6-5.7,5.7-5.7
		c13.2,0,24.4,9.5,26.6,22.4c0.5,3.1-1.6,6-4.7,6.6C376.2,200.5,375.9,200.5,375.5,200.5z"/>
	<path class="st12" d="M395.9,388.2l-73.9-73.9c-3.6-3.6-9.4-3.6-13,0c-1.7,1.7-2.7,4-2.7,6.5c0,2.4,0.9,4.7,2.7,6.5l73.9,73.9
		c1.7,1.7,4,2.7,6.5,2.7c2.4,0,4.7-0.9,6.5-2.7c1.7-1.7,2.7-4,2.7-6.5C398.6,392.2,397.6,389.9,395.9,388.2z"/>
	<path class="st13" d="M345.1,299.3l-33.9-33.9c-6.8-6.8-15.9-10.5-25.5-10.5c-9.7,0-18.7,3.7-25.5,10.5c-14.1,14.1-14.1,37,0,51.1
		l33.9,33.9c6.8,6.8,15.9,10.5,25.5,10.5s18.7-3.7,25.5-10.5s10.5-15.9,10.5-25.5C355.7,315.2,352,306.1,345.1,299.3z M298.6,278.2
		l33.9,33.9c7.1,7.1,7.1,18.6,0,25.7c-7.1,7.1-18.6,7.1-25.7,0l-16.9-16.9l0,0l-17-17c-7.1-7.1-7.1-18.6,0-25.7
		C280,271.1,291.5,271.1,298.6,278.2z"/>
	<path class="st13" d="M445.8,400l-33.9-33.9c-6.8-6.8-15.9-10.5-25.5-10.5c-9.7,0-18.7,3.7-25.5,10.5c-6.8,6.8-10.5,15.9-10.5,25.5
		c0,9.7,3.7,18.7,10.5,25.5l33.9,33.9c6.8,6.8,15.9,10.5,25.5,10.5c9.7,0,18.7-3.7,25.5-10.5c6.8-6.8,10.5-15.9,10.5-25.5
		C456.4,415.9,452.6,406.8,445.8,400z M407.5,438.4l-16.9-16.9l-16.9-16.9c-7.1-7.1-7.1-18.6,0-25.7c7.1-7.1,18.6-7.1,25.7,0
		l33.9,33.9c7.1,7.1,7.1,18.6,0,25.7C426,445.5,414.6,445.5,407.5,438.4z"/>
	<path class="st1" d="M400.2,444.1v57.8l0,0c1.5,0,2.9-0.6,4-1.6l57.8-57.8c1.1-1.1,1.6-2.5,1.6-4l0,0h-57.8
		C402.8,438.4,400.2,440.9,400.2,444.1z"/>
	<g>
		<path class="st6" d="M399.5,317.3c-1.4,0-2.8-0.5-3.8-1.6c-2.1-2.1-2.1-5.5,0-7.7l30.3-30.3c2.1-2.1,5.5-2.1,7.7,0
			c2.1,2.1,2.1,5.5,0,7.7l-30.3,30.3C402.3,316.8,400.9,317.3,399.5,317.3z"/>
		<path class="st6" d="M376.4,307.7c-3,0-5.4-2.4-5.4-5.4v-42.9c0-3,2.4-5.4,5.4-5.4c3,0,5.4,2.4,5.4,5.4v42.9
			C381.8,305.3,379.4,307.7,376.4,307.7z"/>
		<path class="st6" d="M451.9,340.3h-42.9c-3,0-5.4-2.4-5.4-5.4s2.4-5.4,5.4-5.4h42.9c3,0,5.4,2.4,5.4,5.4
			C457.4,338,454.9,340.3,451.9,340.3z"/>
	</g>
	<g>
		<path class="st6" d="M307.5,398.4c1.4,0,2.8,0.5,3.8,1.6c2.1,2.1,2.1,5.5,0,7.7L281,438c-2.1,2.1-5.5,2.1-7.7,0
			c-2.1-2.1-2.1-5.5,0-7.7l30.3-30.3C304.7,398.9,306.1,398.4,307.5,398.4z"/>
		<path class="st6" d="M330.6,408c3,0,5.4,2.4,5.4,5.4v42.9c0,3-2.4,5.4-5.4,5.4s-5.4-2.4-5.4-5.4v-42.9
			C325.2,410.4,327.6,408,330.6,408z"/>
		<path class="st6" d="M255.1,375.3h42.9c3,0,5.4,2.4,5.4,5.4c0,3-2.4,5.4-5.4,5.4h-42.9c-3,0-5.4-2.4-5.4-5.4
			S252.1,375.3,255.1,375.3z"/>
	</g>
</g>
</svg>
