<?xml version="1.0" encoding="utf-8"?>
<!-- Generator: Adobe Illustrator 19.0.0, SVG Export Plug-In . SVG Version: 6.00 Build 0)  -->
<svg version="1.1" id="Layer_1" xmlns="http://www.w3.org/2000/svg" xmlns:xlink="http://www.w3.org/1999/xlink" x="0px" y="0px"
	 viewBox="96 11 512 512" style="enable-background:new 96 11 512 512;" xml:space="preserve">
<style type="text/css">
	.st0{fill:#9BAAAB;}
	.st1{fill:#FD6A33;}
	.st2{fill:#4ACFD9;}
	.st3{fill:#0295AA;}
	.st4{fill:#FF8C29;}
	.st5{fill:#CDD4D5;}
	.st6{fill:#E6EAEA;}
	.st7{fill:#FFFFFF;}
	.st8{fill:#FFD1A9;}
	.st9{fill:#F0353D;}
	.st10{fill:#365558;}
	.st11{fill:#687F82;}
</style>
<path class="st0" d="M316.3,418.7H136.6c-7.5,0-13.6,6.1-13.6,13.6v5.1c0,7.5,6.1,13.6,13.6,13.6h191.3l-11.5-12.6V418.7z"/>
<path class="st1" d="M213.6,199.8H183c-7.5,0-13.6,6.1-13.6,13.6l-2,191.4c0,7.5,6.1,13.6,13.6,13.6h34.6c7.5,0,13.6-6.1,13.6-13.6
	l-2-191.4C227.2,205.9,221.1,199.8,213.6,199.8z"/>
<path class="st1" d="M286,199.8c-7.5,0-13.6,6.1-13.6,13.6l-4,191.4c0,7.5,6.1,13.6,13.6,13.6h34.4V199.8H286z"/>
<path class="st2" d="M599.7,123.7L397.6,23.4c-11.8-6.9-27.4-10.4-43-10.4v135.8h238.3C606.8,148.8,613.3,132.5,599.7,123.7z"/>
<path class="st3" d="M311.6,23.4L105,123.7c-12.6,7.3-9.8,25.1,6.8,25.1h242.7V13C339,13,323.4,16.5,311.6,23.4z"/>
<polygon class="st2" points="354.6,507 379,507 354.6,480.2 "/>
<path class="st3" d="M110.5,463.5c-7.5,0-13.6,6.1-13.6,13.6v16.3c0,7.5,6.1,13.6,13.6,13.6h244v-26.9l-15.2-16.6H110.5z"/>
<path class="st0" d="M328.2,163.7H136.6v-0.1c-7.5,0-13.6,6.1-13.6,13.6v9.1c0,7.5,6.1,13.6,13.6,13.6h179.8v-13.4
	C316.3,177,321,168.6,328.2,163.7z"/>
<path class="st4" d="M313.6,215c-3,0-5.5,2.5-5.5,5.5v177.2c0,3,2.5,5.5,5.5,5.5c1,0,2-0.3,2.8-0.8V215.8
	C315.5,215.3,314.6,215,313.6,215z"/>
<path class="st4" d="M211.6,403.2L211.6,403.2c-3,0-5.5-2.5-5.5-5.5V220.5c0-3,2.5-5.5,5.5-5.5l0,0c3,0,5.5,2.5,5.5,5.5v177.2
	C217.1,400.7,214.6,403.2,211.6,403.2z"/>
<circle class="st5" cx="300.3" cy="182" r="12.5"/>
<circle class="st5" cx="198.3" cy="182" r="12.5"/>
<path class="st5" d="M354.6,113.3h-54.3c-2.8,0-5,2.2-5,5V182h10v-58.7h49.3V113.3z"/>
<path class="st5" d="M354.6,80h-92.1c-2.8,0-5,2.2-5,5v28.3h-59.2c-2.8,0-5,2.2-5,5V182h10v-58.7h59.2c2.8,0,5-2.2,5-5V90h87.1V80z"
	/>
<path class="st6" d="M410.5,118.3c0-2.8-2.2-5-5-5h-54.2v10h49.2V159h10V118.3z"/>
<path class="st6" d="M512.6,118.3c0-2.8-2.2-5-5-5h-59.3V85c0-2.8-2.2-5-5-5h-92v10h87v28.3c0,2.8,2.2,5,5,5h59.3V159h10V118.3z"/>
<path class="st4" d="M354.6,30.4v109.3c30.2,0,54.6-24.5,54.6-54.6S384.7,30.4,354.6,30.4z"/>
<path class="st1" d="M299.9,85c0,30.2,24.5,54.6,54.6,54.6V30.3C324.4,30.4,299.9,54.8,299.9,85z"/>
<path class="st7" d="M375,82.6c4.7-2.4,7.6-6.6,6.9-13.6c-0.9-9.6-8.8-12.8-19.3-13.7V42h-8.1v13c-2.1,0-4.3,0.1-6.4,0.1V42H340
	v13.3c-3,0.1-6.5,0-16.3,0V64c6.4-0.1,9.8-0.5,10.6,3.6v36.5c-0.5,3.3-3.1,2.8-8.9,2.7l-1.6,9.7c14.8,0,16.3,0.1,16.3,0.1V128h8.1
	v-11.2c2.2,0.1,4.4,0.1,6.4,0.1v11.2h8.1v-11.4c13.6-0.7,22.8-4.2,24-17C387.5,89,382.7,84.4,375,82.6L375,82.6z M348.2,64.4
	c4.6,0,19-1.4,19,8.1c0,9.1-14.4,8.1-19,8.1V64.4L348.2,64.4z M348.2,106.7V88.8c5.5,0,22.3-1.5,22.3,8.9
	C370.5,107.8,353.7,106.7,348.2,106.7L348.2,106.7z"/>
<g>
	<path class="st8" d="M562.8,206.9"/>
	<path class="st6" d="M608,514.7V186.6c0-4.2-3.1-7.6-6.8-7.6h-134v343.2h134C604.9,522.2,608,518.9,608,514.7z"/>
	<path class="st5" d="M342.8,179c-3.7,0-6.8,3.3-6.8,7.5v244.1l83.6,91.6h47.5V179H342.8z"/>
	<g>
		<path class="st1" d="M498.1,268.6h-123c-2.1,0-3.7,2.4-3.7,5.4v43c0,3,1.7,5.4,3.7,5.4h123c2.1,0,3.7-2.4,3.7-5.4v-43
			C501.8,271,500.2,268.6,498.1,268.6z"/>
		<path class="st4" d="M531.8,340.3H375.1c-2.1,0-3.7,2.4-3.7,5.4v43c0,3,1.7,5.4,3.7,5.4h156.7c2.1,0,3.7-2.4,3.7-5.4v-43
			C535.5,342.7,533.9,340.3,531.8,340.3z"/>
		<path class="st2" d="M561.6,412H375.1c-2.1,0-3.7,2.4-3.7,5.4v43c0,3,1.7,5.4,3.7,5.4h186.5c2.1,0,3.7-2.4,3.7-5.4v-43
			C565.3,414.4,563.6,412,561.6,412z"/>
		<path class="st9" d="M375.1,268.6c-2.1,0-3.7,2.4-3.7,5.4v43c0,3,1.7,5.4,3.7,5.4h97.2v-53.8H375.1L375.1,268.6z"/>
		<path class="st1" d="M375.1,340.3c-2.1,0-3.7,2.4-3.7,5.4v43c0,3,1.7,5.4,3.7,5.4h97.2v-53.8H375.1L375.1,340.3z"/>
		<path class="st3" d="M375.1,412c-2.1,0-3.7,2.4-3.7,5.4v43c0,3,1.7,5.4,3.7,5.4h97.2V412H375.1L375.1,412z"/>
	</g>
	<g>
		<path id="SVGCleanerId_0_4_" class="st0" d="M412.8,430.6H336l83.6,91.6v-84C419.6,434,416.6,430.6,412.8,430.6z"/>
	</g>
	<g>
		<path class="st10" d="M468.4,513.1c-3,0-5.4-2.4-5.4-5.4v-258c0-3,2.4-5.4,5.4-5.4s5.4,2.4,5.4,5.4v258
			C473.7,510.7,471.3,513.1,468.4,513.1z"/>
		<path class="st0" d="M502.8,169.8h-71.7c-3,0-5.4,2.4-5.4,5.4v50.7c0,1.8,0.9,3.5,2.5,4.5l37.3,23.9c0.9,0.6,1.9,0.8,2.9,0.8
			c1.1,0,2.1-0.3,3.1-1l34.4-23.9c1.4-1,2.3-2.7,2.3-4.4v-50.7C508.1,172.2,505.7,169.8,502.8,169.8z"/>
		<path class="st11" d="M431.1,169.8c-3,0-5.4,2.4-5.4,5.4v50.7c0,1.8,0.9,3.5,2.5,4.5l37.3,23.9c0.9,0.6,1.9,0.8,2.9,0.8v-85.3
			L431.1,169.8L431.1,169.8z"/>
		<path class="st7" d="M479.8,217.8c-3,0-5.4-2.4-5.4-5.4v-20.1c0-3,2.4-5.4,5.4-5.4s5.4,2.4,5.4,5.4v20.1
			C485.2,215.4,482.8,217.8,479.8,217.8z"/>
	</g>
</g>
</svg>
