<?xml version="1.0" encoding="utf-8"?>
<!-- Generator: Adobe Illustrator 19.0.0, SVG Export Plug-In . SVG Version: 6.00 Build 0)  -->
<svg version="1.1" id="Layer_1" xmlns="http://www.w3.org/2000/svg" xmlns:xlink="http://www.w3.org/1999/xlink" x="0px" y="0px"
	 viewBox="96 11 512 512" style="enable-background:new 96 11 512 512;" xml:space="preserve">
<style type="text/css">
	.st0{fill:#CDD4D5;}
	.st1{fill:#9BAAAB;}
	.st2{fill:#E6EAEA;}
	.st3{fill:none;stroke:#CDD4D5;stroke-width:10;stroke-linejoin:round;stroke-miterlimit:10;}
	.st4{fill:none;stroke:#E6EAEA;stroke-width:10;stroke-linejoin:round;stroke-miterlimit:10;}
	.st5{fill:#FF8C29;}
	.st6{fill:#FD6A33;}
	.st7{fill:#FFD1A9;}
	.st8{fill:#FFFFFF;}
	.st9{fill:#F0353D;}
	.st10{fill:#365558;}
	.st11{fill:#0295AA;}
	.st12{fill:#4ACFD9;}
</style>
<path class="st0" d="M569.2,425.7H354.6V458h214.6c7.5,0,13.6-6.1,13.6-13.6v-5.1C582.7,431.8,576.6,425.7,569.2,425.7z"/>
<path class="st1" d="M136.6,425.7c-7.5,0-13.6,6.1-13.6,13.6v5.1c0,7.5,6.1,13.6,13.6,13.6h218v-32.3H136.6L136.6,425.7z"/>
<path class="st0" d="M599.7,130.7L397.6,30.4c-11.8-6.9-27.4-10.4-43-10.4v135.8h238.3C606.8,155.8,613.3,139.5,599.7,130.7z"/>
<path class="st1" d="M311.6,30.4L105,130.7c-12.6,7.3-9.8,25.1,6.8,25.1h242.7V20C339,20,323.4,23.5,311.6,30.4z"/>
<path class="st0" d="M592.9,470.5H354.6V514H593c7.5,0,13.6-6.1,13.6-13.6v-16.3C606.5,476.8,600.4,470.5,592.9,470.5z"/>
<path class="st1" d="M110.5,470.5c-7.5,0-13.6,6.1-13.6,13.6v16.3c0,7.5,6.1,13.6,13.6,13.6h244v-43.5H110.5z"/>
<path class="st0" d="M569.2,170.6H354.6v36.2h214.6c7.5,0,13.6-6.1,13.6-13.6v-9.1C582.7,176.7,576.6,170.6,569.2,170.6z"/>
<path class="st1" d="M136.6,170.6c-7.5,0-13.6,6.1-13.6,13.6v9.1c0,7.5,6.1,13.6,13.6,13.6h218v-36.2L136.6,170.6L136.6,170.6z"/>
<circle class="st0" cx="300.3" cy="189" r="12.5"/>
<circle class="st0" cx="198.3" cy="189" r="12.5"/>
<circle class="st2" cx="506.9" cy="188.7" r="12.5"/>
<circle class="st2" cx="404.8" cy="188.7" r="12.5"/>
<polyline class="st3" points="300.3,189 300.3,125.3 354.6,125.3 "/>
<polyline class="st3" points="198.3,189 198.3,125.3 262.5,125.3 262.5,92 354.6,92 "/>
<polyline class="st4" points="405.5,189 405.5,125.3 351.3,125.3 "/>
<polyline class="st4" points="507.6,189 507.6,125.3 443.3,125.3 443.3,92 351.3,92 "/>
<path class="st5" d="M354.6,37.4v109.3c30.2,0,54.6-24.5,54.6-54.6S384.7,37.4,354.6,37.4z"/>
<path class="st6" d="M299.9,92c0,30.2,24.5,54.6,54.6,54.6V37.3C324.4,37.4,299.9,61.8,299.9,92z"/>
<path class="st7" d="M446.9,207.8"/>
<g>
	<path class="st8" d="M338.8,103.5l-4.7,9.8c-0.6,1.4-1,2.4-1,3.2c0,1.5,1.1,2.5,3.4,3.1v1.6h-23.1v-1.6c1.4-0.3,2.4-0.7,3.1-1.4
		c0.7-0.7,1.5-2,2.5-4l25.6-53.6c0.8-1.7,1.2-3.1,1.2-4.1c0-1.6-1-2.7-3-3.4v-1.6h24.7v1.6c-2,0.6-3,1.6-3,3c0,1,0.3,2.1,1,3.4
		l26.6,53.7c1.1,2.3,2.1,3.8,3,4.7c0.9,0.8,2,1.4,3.4,1.7v1.6h-25.7v-1.6c2.3-0.4,3.4-1.4,3.4-3.2c0-0.7-0.3-1.8-1-3.2l-4.8-9.8
		 M370.5,103.5l-15.7-34.4l-16,34.4"/>
</g>
<path class="st8" d="M390.3,98.7h-71.6c-1.4,0-2.5,1.1-2.5,2.5v1c0,1.4,1.1,2.5,2.5,2.5h71.6c1.4,0,2.5-1.1,2.5-2.5v-1
	C392.8,99.9,391.6,98.7,390.3,98.7z"/>
<path class="st8" d="M386.6,90.2h-64c-1.1,0-2,0.9-2,2v1c0,1.1,0.9,2,2,2h64c1.1,0,2-0.9,2-2v-1C388.6,91.1,387.7,90.2,386.6,90.2z"
	/>
<g>
	<polygon class="st0" points="352.3,430.1 472.1,476.3 472.1,328.2 352.3,281.9 	"/>
	<polygon class="st1" points="352.3,430.1 232.6,476.3 232.6,328.2 352.3,281.9 	"/>
	<polyline class="st0" points="232.6,328.6 185.7,282.3 305.8,235.4 352.3,282.3 	"/>
	<polyline class="st8" points="352.3,281.9 391.6,236.1 512,282.6 472.1,328.6 	"/>
	<path class="st9" d="M531,181.4l-24.2,10.1c-3.2,1.3-6.9-0.2-8.3-3.4c-1.3-3.2,0.2-6.9,3.4-8.3l24.1-10.1c3.2-1.3,6.9,0.2,8.3,3.4
		C535.7,176.4,534.3,180,531,181.4z"/>
	<path class="st9" d="M530.1,222.9c-1.5,0.6-3.2,0.6-4.9,0l-21.8-9c-3.2-1.3-4.7-5-3.4-8.3c1.3-3.2,5-4.7,8.3-3.4l21.8,9
		c3.2,1.3,4.7,5,3.4,8.3C533,221.2,531.7,222.4,530.1,222.9z"/>
	<path class="st9" d="M492,174.5c-1.5,0.6-3.2,0.6-4.9,0c-3.2-1.3-4.7-5-3.4-8.3l9-21.8c1.3-3.2,5-4.7,8.3-3.4
		c3.2,1.3,4.7,5,3.4,8.3l-9,21.8C494.7,172.6,493.6,173.8,492,174.5z"/>
	<path class="st1" d="M463.4,336.2V194.6c0-1.8-1.3-3.7-3-4.4l-57.8-21v148.1l57.8,21C462.1,338.9,463.4,337.9,463.4,336.2z"/>
	<path class="st10" d="M349.1,149.7c-1.6-0.6-3,0.4-3,2.1v105.3l36,52.6l20.5,7.5V169.2L349.1,149.7z"/>
	<g>
		<path class="st11" d="M366.4,182c-1.6-0.6-3,0.4-3,2.1c0,1.8,1.3,3.7,3,4.3l36.3,13.2v-6.4L366.4,182z"/>
		<path class="st11" d="M366.4,209.6c-1.6-0.6-3,0.4-3,2.1c0,1.8,1.3,3.7,3,4.3l36.3,13.2v-6.5L366.4,209.6L366.4,209.6z"/>
		<path class="st11" d="M363.4,239.3c0,1.8,1.3,3.7,3,4.3l36.3,13.2v-6.5l-36.3-13.2C364.7,236.6,363.4,237.6,363.4,239.3z"/>
		<path class="st11" d="M363.4,267c0,1.8,1.3,3.7,3,4.3l36.3,13.2V278l-36.3-13.2C364.7,264.2,363.4,265.2,363.4,267z"/>
	</g>
	<g>
		<path class="st10" d="M441.9,212.7c0-1.8-1.3-3.7-3-4.3l-36.3-13.2v6.4l36.3,13.2C440.5,215.4,441.9,214.5,441.9,212.7z"/>
		<path class="st10" d="M441.9,240.3c0-1.8-1.3-3.7-3-4.3V236l-36.3-13.2v6.5l36.3,13.2C440.5,243.1,441.9,242.1,441.9,240.3z"/>
		<path class="st10" d="M441.9,268c0-1.8-1.3-3.7-3-4.4l-36.3-13.2v6.5l36.3,13.2C440.5,270.7,441.9,269.8,441.9,268z"/>
		<path class="st10" d="M441.9,295.6c0-1.8-1.3-3.7-3-4.4L402.7,278v6.5l36.3,13.2C440.5,298.2,441.9,297.3,441.9,295.6z"/>
	</g>
	<g>
		<path id="SVGCleanerId_0_2_" class="st1" d="M379.2,261.6l-33.1-12.1l36,52.6v-36.3C382.1,264.1,380.9,262.2,379.2,261.6z"/>
	</g>
	<path class="st0" d="M433.1,364.3V222.7c0-1.8-1.3-3.7-3-4.4l-57.8-21v148l57.8,21C431.7,367.1,433.1,366.1,433.1,364.3z"/>
	<path class="st1" d="M318.6,177.8c-1.6-0.6-3,0.4-3,2.1v105.3l36.1,52.6l20.5,7.5V197.3L318.6,177.8z"/>
	<g>
		<path class="st11" d="M336,210.1c-1.6-0.6-3,0.4-3,2.1c0,1.8,1.3,3.7,3,4.3l36.3,13.2v-6.4L336,210.1z"/>
		<path class="st11" d="M336,237.7c-1.6-0.6-3,0.4-3,2.1c0,1.8,1.3,3.7,3,4.3l36.3,13.2v-6.5L336,237.7L336,237.7z"/>
		<path class="st11" d="M333.1,267.5c0,1.8,1.3,3.7,3,4.3l36.3,13.2v-6.5l-36.3-13.2C334.3,264.7,333.1,265.7,333.1,267.5z"/>
		<path class="st11" d="M333.1,295.1c0,1.8,1.3,3.7,3,4.3l36.3,13.2v-6.5L336,292.9C334.3,292.4,333.1,293.3,333.1,295.1z"/>
	</g>
	<g>
		<path class="st11" d="M411.5,240.9c0-1.8-1.3-3.7-3-4.3l-36.3-13.2v6.4l36.3,13.2C410.2,243.5,411.5,242.6,411.5,240.9z"/>
		<path class="st11" d="M411.5,268.5c0-1.8-1.3-3.7-3-4.3v-0.1l-36.3-13.2v6.5l36.3,13.2C410.2,271.2,411.5,270.2,411.5,268.5z"/>
		<path class="st11" d="M411.5,296.1c0-1.8-1.3-3.7-3-4.4l-36.3-13.2v6.5l36.3,13.2C410.2,298.9,411.5,297.9,411.5,296.1z"/>
		<path class="st11" d="M411.5,323.7c0-1.8-1.3-3.7-3-4.4l-36.3-13.2v6.5l36.3,13.2C410.2,326.5,411.5,325.5,411.5,323.7z"/>
	</g>
	<g>
		<path id="SVGCleanerId_0_5_" class="st1" d="M348.8,274.5l-33.1-12.1l36,52.6v-36.3C351.7,277,350.4,275.1,348.8,274.5z"/>
	</g>
	<path class="st2" d="M402.6,391.6V250c0-1.8-1.3-3.7-3-4.4l-57.8-21v148.1l57.8,21C401.3,394.2,402.6,393.3,402.6,391.6z"/>
	<path class="st0" d="M288.2,205.1c-1.6-0.6-3,0.4-3,2.1v105.3l36,52.6l20.5,7.5V224.6L288.2,205.1z"/>
	<g>
		<path class="st11" d="M305.6,237.3c-1.6-0.6-3,0.4-3,2.1c0,1.8,1.3,3.7,3,4.3l36.3,13.2v-6.4L305.6,237.3z"/>
		<path class="st11" d="M305.6,265c-1.6-0.6-3,0.4-3,2.1s1.3,3.7,3,4.3l36.3,13.2v-6.5L305.6,265L305.6,265z"/>
		<path class="st11" d="M302.6,294.7c0,1.8,1.3,3.7,3,4.3l36.3,13.2v-6.5l-36.3-13.2C303.9,291.9,302.6,293,302.6,294.7z"/>
		<path class="st11" d="M302.6,322.3c0,1.8,1.3,3.7,3,4.3l36.3,13.2v-6.5l-36.3-13.2C303.9,319.6,302.6,320.6,302.6,322.3z"/>
	</g>
	<g>
		<path class="st12" d="M381.1,245.1c0-1.8-1.3-3.7-3-4.3l-36.3-13.2v6.4l36.3,13.2C379.8,247.8,381.1,246.9,381.1,245.1z"/>
		<path class="st12" d="M381.1,272.7c0-1.8-1.3-3.7-3-4.3v-0.1l-36.3-13.2v6.5l36.3,13.2C379.8,275.4,381.1,274.5,381.1,272.7z"/>
		<path class="st12" d="M381.1,300.4c0-1.8-1.3-3.7-3-4.4l-36.3-13.2v6.5l36.3,13.2C379.8,303.1,381.1,302.1,381.1,300.4z"/>
		<path class="st12" d="M381.1,327.9c0-1.8-1.3-3.7-3-4.4l-36.3-13.2v6.5l36.3,13.2C379.8,330.7,381.1,329.8,381.1,327.9z"/>
	</g>
	<g>
		<path id="SVGCleanerId_0_6_" class="st1" d="M318.4,286.3l-33.1-12.1l36,52.6v-36.2C321.4,288.9,320.1,286.9,318.4,286.3z"/>
	</g>
	<path class="st8" d="M365.8,420V278.4c0-1.8-1.3-3.7-3-4.4l-57.8-21v148.1l57.8,21C364.5,422.7,365.8,421.8,365.8,420z"/>
	<path class="st2" d="M251.4,233.5c-1.6-0.6-3,0.4-3,2.1V341l36,52.6l20.5,7.5V253L251.4,233.5z"/>
	<g>
		<path class="st11" d="M268.8,265.8c-1.6-0.6-3,0.4-3,2.1s1.3,3.7,3,4.3l36.3,13.2V279L268.8,265.8z"/>
		<path class="st11" d="M268.8,293.4c-1.6-0.6-3,0.4-3,2.1s1.3,3.7,3,4.3l36.3,13.2v-6.5L268.8,293.4L268.8,293.4z"/>
		<path class="st11" d="M265.8,323.2c0,1.8,1.3,3.7,3,4.3l36.3,13.2v-6.5L268.8,321C267.1,320.4,265.8,321.4,265.8,323.2z"/>
		<path class="st11" d="M265.8,350.8c0,1.8,1.3,3.7,3,4.3l36.3,13.2v-6.5l-36.3-13.2C267.1,348,265.8,349,265.8,350.8z"/>
	</g>
	<g>
		<path class="st12" d="M344.3,296.5c0-1.8-1.3-3.7-3-4.3L305.1,279v6.4l36.3,13.2C343,299.2,344.3,298.3,344.3,296.5z"/>
		<path class="st12" d="M344.3,324.2c0-1.8-1.3-3.7-3-4.3v-0.1l-36.3-13.2v6.5l36.3,13.2C343,326.9,344.3,325.9,344.3,324.2z"/>
		<path class="st12" d="M344.3,351.8c0-1.8-1.3-3.7-3-4.4l-36.3-13.2v6.5l36.3,13.2C343,354.5,344.3,353.6,344.3,351.8z"/>
		<path class="st12" d="M344.3,379.3c0-1.8-1.3-3.7-3-4.4l-36.3-13.2v6.5l36.3,13.2C343,382.1,344.3,381.2,344.3,379.3z"/>
	</g>
	<g>
		<path id="SVGCleanerId_0_7_" class="st1" d="M281.6,355.3l-33.1-12l36,52.6v-36.3C284.6,357.9,283.3,355.9,281.6,355.3z"/>
	</g>
	<polygon class="st5" points="472.1,476.8 352.3,523.1 352.3,374.9 472.1,328.6 	"/>
	<polygon class="st6" points="232.6,476.8 352.3,523.1 352.3,374.9 232.6,328.6 	"/>
	<polygon class="st11" points="472.1,462 352.3,508.2 352.3,485.7 472.1,439.5 	"/>
	<polygon class="st10" points="232.6,462 352.3,508.2 352.3,485.7 232.6,439.5 	"/>
	<polyline class="st7" points="352.3,375.3 391.4,335.6 511.5,288.6 472.1,329 	"/>
	<polyline class="st5" points="232.6,328.5 185.9,289.3 306.3,335.8 352.3,375.3 	"/>
	<g>
		<path class="st2" d="M449.6,441.6v-93.3c0-1.1-0.9-1.8-1.9-1.5l-38.1,13.8v97.5l38.1-13.8C448.7,444.1,449.6,442.8,449.6,441.6z"
			/>
		<path class="st0" d="M374.1,373.6c-1.1,0.4-1.9,1.7-1.9,2.8v69.4l23.8,17.4l13.5-4.9v-97.5L374.1,373.6z"/>
		<g>
			<path class="st11" d="M385.6,386.5c-1.1,0.4-1.9,1.7-1.9,2.8s0.9,1.8,1.9,1.5l23.9-8.7v-4.3L385.6,386.5z"/>
			<path class="st11" d="M385.6,404.7c-1.1,0.4-1.9,1.7-1.9,2.8c0,1.1,0.9,1.8,1.9,1.5l23.9-8.7V396L385.6,404.7L385.6,404.7z"/>
			<path class="st11" d="M383.7,425.8c0,1.1,0.9,1.8,1.9,1.5l23.9-8.7v-4.3l-23.9,8.7C384.6,423.3,383.7,424.6,383.7,425.8z"/>
			<path class="st11" d="M383.7,444c0,1.1,0.9,1.8,1.9,1.5l23.9-8.7v-4.3l-23.9,8.7C384.6,441.5,383.7,442.8,383.7,444z"/>
		</g>
		<g>
			<path class="st12" d="M435.3,370.5c0-1.1-0.9-1.8-1.9-1.5l-23.9,8.7v4.3l23.9-8.7C434.5,373,435.3,371.8,435.3,370.5z"/>
			<path class="st12" d="M435.3,388.7c0-1.1-0.9-1.8-1.9-1.5l0,0l-23.9,8.7v4.3l23.9-8.7C434.5,391.2,435.3,390,435.3,388.7z"/>
			<path class="st12" d="M435.3,406.9c0-1.1-0.8-1.8-1.9-1.5l-23.9,8.7v4.3l23.9-8.7C434.5,409.4,435.3,408.2,435.3,406.9z"/>
			<path class="st12" d="M435.3,425.2c0-1.1-0.8-1.8-1.9-1.5l-23.9,8.7v4.3l23.9-8.7C434.5,427.6,435.3,426.4,435.3,425.2z"/>
		</g>
		<g>
			<path id="SVGCleanerId_0_8_" class="st1" d="M394,437.9l-21.8,8l23.8,17.4v-23.9C396,438.2,395.1,437.5,394,437.9z"/>
		</g>
	</g>
</g>
</svg>
