<?xml version="1.0" encoding="utf-8"?>
<!-- Generator: Adobe Illustrator 19.0.0, SVG Export Plug-In . SVG Version: 6.00 Build 0)  -->
<svg version="1.1" id="Layer_1" xmlns="http://www.w3.org/2000/svg" xmlns:xlink="http://www.w3.org/1999/xlink" x="0px" y="0px"
	 viewBox="206 -206 512 512" style="enable-background:new 206 -206 512 512;" xml:space="preserve">
<style type="text/css">
	.st0{fill:#CDD4D5;}
	.st1{fill:#9BAAAB;}
	.st2{fill:#E6EAEA;}
	.st3{fill:none;stroke:#CDD4D5;stroke-width:10;stroke-linejoin:round;stroke-miterlimit:10;}
	.st4{fill:none;stroke:#E6EAEA;stroke-width:10;stroke-linejoin:round;stroke-miterlimit:10;}
	.st5{fill:#FF8C29;}
	.st6{fill:#FD6A33;}
	.st7{fill:#FFD1A9;}
	.st8{fill:#687F82;}
	.st9{fill:#365558;}
	.st10{fill:#0295AA;}
	.st11{fill:#4ACFD9;}
	.st12{fill:#FFFFFF;}
	.st13{font-family:'CopperplateGothic-Bold';}
	.st14{font-size:89.9355px;}
</style>
<path class="st0" d="M679.4,219.4H464.8v32.3h214.6c7.5,0,13.6-6.1,13.6-13.6V233C692.9,225.5,686.8,219.4,679.4,219.4z"/>
<path class="st1" d="M383.3,236.7L382,237h-1.2c-1.4,0.1-7.3,0.7-13,1.4c-14.3,1.6-36,4-53.8,5.2c-11,0.8-36.6,3.2-55.2,6.4
	l-7.8,1.7h213.8v-32.3h-41.9c-1.2,0.8-2.4,1.5-3.6,2.2C410.8,229,395.5,234.2,383.3,236.7z"/>
<path class="st0" d="M709.9-75.6L507.8-175.9c-11.8-6.9-27.4-10.4-43-10.4v135.8h238.3C717-50.5,723.5-66.8,709.9-75.6z"/>
<path class="st1" d="M421.8-175.9L215.2-75.6c-12.6,7.3-9.8,25.1,6.8,25.1h242.7v-135.8C449.2-186.3,433.6-182.8,421.8-175.9z"/>
<path class="st0" d="M703.1,264.2H464.8v43.5h238.4c7.5,0,13.6-6.1,13.6-13.6v-16.3C716.7,270.4,710.6,264.2,703.1,264.2z"/>
<path class="st1" d="M207.1,277.8v16.3c0,7.5,6.1,13.6,13.6,13.6h244v-43.5h-244C213.2,264.2,207.1,270.3,207.1,277.8z"/>
<path class="st0" d="M656.7-35.7H464.8V0.5h190.4C650.2-9.9,648.3-23.9,656.7-35.7z"/>
<path class="st1" d="M246.8-35.7c-7.5,0-13.6,6.1-13.6,13.6v9.1c0,7.5,6.1,13.6,13.6,13.6h218v-36.2L246.8-35.7L246.8-35.7z"/>
<circle class="st0" cx="410.5" cy="-17.3" r="12.5"/>
<circle class="st0" cx="308.5" cy="-17.3" r="12.5"/>
<circle class="st2" cx="617.1" cy="-17.6" r="12.5"/>
<circle class="st2" cx="515" cy="-17.6" r="12.5"/>
<polyline class="st3" points="410.5,-17.3 410.5,-81 464.8,-81 "/>
<polyline class="st3" points="308.5,-17.3 308.5,-81 372.7,-81 372.7,-114.3 464.8,-114.3 "/>
<polyline class="st4" points="515.7,-17.3 515.7,-81 461.5,-81 "/>
<polyline class="st4" points="617.8,-17.3 617.8,-81 553.5,-81 553.5,-114.3 461.5,-114.3 "/>
<path class="st5" d="M464.8-168.9v109.3c30.2,0,54.6-24.5,54.6-54.6S494.9-168.9,464.8-168.9z"/>
<path class="st6" d="M410.1-114.3c0,30.2,24.5,54.6,54.6,54.6V-169C434.6-168.9,410.1-144.5,410.1-114.3z"/>
<path class="st7" d="M557.1,1.5"/>
<path class="st7" d="M622.6,140.4"/>
<g>
	<g>
		<path class="st5" d="M696.9,61.6H594.3v37.1h102.6c2,0,3.6-1.6,3.6-3.6V65.2C700.6,63.3,699,61.6,696.9,61.6z"/>
		<rect x="566.6" y="61.6" class="st6" width="27.7" height="37.1"/>
		<path class="st6" d="M491.7,61.6c-2,0-3.6,1.6-3.6,3.6v29.9c0,2,1.6,3.6,3.6,3.6h74.9V61.6H491.7z"/>
	</g>
	<rect x="656.9" y="74.4" class="st8" width="13.7" height="24.4"/>
	<rect x="681.4" y="74.4" class="st8" width="9.1" height="24.4"/>
	<rect x="622.6" y="74.4" class="st8" width="18.3" height="24.4"/>
	<rect x="517.5" y="74.4" class="st9" width="13.7" height="24.4"/>
	<rect x="547.2" y="74.4" class="st9" width="18.3" height="24.4"/>
	<rect x="594.4" y="74.4" class="st8" width="9.5" height="24.4"/>
	<rect x="585.5" y="74.4" class="st9" width="8.8" height="24.4"/>
</g>
<g>
	<g>
		<path class="st5" d="M581.5,15v37.1h102.6c2,0,3.6-1.6,3.6-3.6v-8.2c-7.4-8.9-15.9-18.6-21.9-25.3H581.5z"/>
		<path class="st5" d="M684.1,15h-18.2c6,6.8,14.4,16.4,21.9,25.3V18.6C687.9,16.6,686.1,15,684.1,15z"/>
		<rect x="566.6" y="15" class="st6" width="14.9" height="37.1"/>
		<path class="st6" d="M479,15c-2,0-3.6,1.6-3.6,3.6v29.9c0,2,1.6,3.6,3.6,3.6h87.6V15H479z"/>
	</g>
	<rect x="644.2" y="27.7" class="st8" width="13.7" height="24.4"/>
	<path class="st8" d="M668.7,27.7v24.4h9.1V28.6c-0.2-0.3-0.5-0.6-0.7-0.8H668.7z"/>
	<path class="st8" d="M677.1,27.7c0.2,0.3,0.5,0.6,0.7,0.8v-0.8H677.1z"/>
	<rect x="609.8" y="27.7" class="st8" width="18.3" height="24.4"/>
	<rect x="504.7" y="27.7" class="st9" width="13.7" height="24.4"/>
	<rect x="484.7" y="27.7" class="st9" width="9.1" height="24.4"/>
	<rect x="534.4" y="27.7" class="st9" width="18.3" height="24.4"/>
	<rect x="581.6" y="27.7" class="st8" width="9.5" height="24.4"/>
	<rect x="572.7" y="27.7" class="st9" width="8.8" height="24.4"/>
</g>
<path class="st7" d="M869.7,119.7c-7.4-8.4-18.9-43.4-36.1-54.4c-26.9-27.2-66.9-53.5-80.3-62.8c-5.6-3.8-14.3-7.7-23.1-12V103
	l-14.9-23.4v106.6c26.1,5.4,49.9,10.1,53.3,10.8c6.4,1.3,11.2,6.8,11.2,6.8l24.7,26.5l88.1-85.3C892.8,145,877,128.2,869.7,119.7z"
	/>
<path class="st7" d="M730.3-9.5c-5.2-2.6-10.3-5.3-14.9-8.4v69.4c0.5,0.7,0.9,1.3,1.2,1.9c4.2,7.5,2.9,13.5-1.2,17.2v9l14.9,23.4
	V-9.5z"/>
<path class="st7" d="M671.5-29.9c-13.1,12.5,0.8,29.5,0.8,29.5s33.7,37.4,43,51.9v-69.5c-3.9-2.5-7.6-5.2-11.4-7.7
	C693.7-32.6,679.4-37.4,671.5-29.9z"/>
<path class="st7" d="M703.5,84.6c-12.8,10.4-18,11.6-32.9,13.8c-10.5,1.6-51.1,4-68.9,5.3c-17.8,1.3-33.4,4.3-33.4,4.3
	s-48.6-24-67.8-36.1c-20.6-10.5-26.6-6.2-35.3,4c-8.7,10.2-3.4,25.7,4.7,32.5c3.2,2.6,29.9,33.6,54.6,47.1
	c5.3,5.4,19.7,11.4,35.3,14.4c4.8,0.1,47.6,5.3,79,7c14.6,0.9,53.7,4.2,76.7,9.1V79.6l-3.3-5.2C709.3,77.9,706,82.4,703.5,84.6z"/>
<path class="st7" d="M712.1,74.4l3.3,5.2v-9C714.5,71.4,713.4,72.8,712.1,74.4z"/>
<path class="st5" d="M833.6,202.1l-24.1-25.5c-4.2-4.6-15.8-15.5-33-18.9l-1.1-0.2c-22.3-4.5-42.7-8.7-60.1-12.3v20.5
	c16.6,3.5,35.6,7.4,56.2,11.5l1.1,0.2c11.7,2.3,19.8,10.3,22,12.8l0.1,0.1l0.1,0.1l24.3,25.7L833.6,202.1z"/>
<path class="st5" d="M715.3,165.5V145c-23.8-4.9-41.9-9-52.1-11.7c-18.2-4.7-25.3-5.6-40.3-3.2c-15,2.5-15.8,19.7-0.5,20.2
	c15.2,0.4,9.3-4.5,35.9,2.5C669.1,155.8,689.3,160.3,715.3,165.5z"/>
<path class="st8" d="M868.9,311.3h101V156.4c0,0-36.3-40.4-39.1-43.2c-2.8-2.8-7.4-4.6-12,0c-4.6,4.6-117.1,113.1-117.1,113.1
	l-6.8,6.7L868.9,311.3z"/>
<path class="st10" d="M872,315.4h101V160.5c0,0-20.7-24.5-23.6-27.4c-2.8-2.8-7.5-4.6-12,0c-4.6,4.6-117.1,113.1-117.1,113.1
	l-6.8,6.7L872,315.4z"/>
<circle class="st7" cx="853.3" cy="253.4" r="14.3"/>
<circle class="st7" cx="885" cy="224.8" r="14.3"/>
<g>
	<path class="st11" d="M439.4,114.6l-102.9,0.9l0.3,37.2l102.8-0.9c2,0,3.6-1.7,3.6-3.7l-0.2-30
		C443.1,116.2,441.4,114.6,439.4,114.6z"/>
	
		<rect x="308.9" y="115.6" transform="matrix(1 -8.312645e-003 8.312645e-003 1 -1.1048 2.6876)" class="st10" width="27.7" height="37.2"/>
	<path class="st10" d="M233.7,116.3c-2,0-3.6,1.7-3.6,3.7l0.2,30c0,2,1.7,3.6,3.7,3.6l75.1-0.6l-0.3-37.2L233.7,116.3z"/>
	
		<rect x="399.4" y="127.7" transform="matrix(1 -8.312645e-003 8.312645e-003 1 -1.1491 3.3822)" class="st8" width="13.8" height="24.4"/>
	
		<rect x="424" y="127.6" transform="matrix(1 -8.312645e-003 8.312645e-003 1 -1.147 3.5678)" class="st8" width="9.2" height="24.4"/>
	
		<rect x="365.1" y="128" transform="matrix(1 -8.312645e-003 8.312645e-003 1 -1.1528 3.116)" class="st8" width="18.3" height="24.4"/>
	
		<rect x="259.7" y="128.9" transform="matrix(1 -8.312645e-003 8.312645e-003 1 -1.1634 2.2212)" class="st9" width="13.8" height="24.4"/>
	
		<rect x="239.7" y="129.1" transform="matrix(1 -8.312645e-003 8.312645e-003 1 -1.1664 2.0356)" class="st9" width="9.2" height="24.4"/>
	
		<rect x="289.5" y="128.6" transform="matrix(1 -8.312645e-003 8.312645e-003 1 -1.1606 2.4874)" class="st9" width="18.3" height="24.4"/>
	
		<rect x="336.8" y="128.3" transform="matrix(1 -8.312645e-003 8.312645e-003 1 -1.1558 2.8434)" class="st8" width="9.4" height="24.4"/>
	
		<rect x="327.9" y="128.3" transform="matrix(1 -8.312645e-003 8.312645e-003 1 -1.1565 2.7677)" class="st9" width="8.9" height="24.4"/>
</g>
<g>
	<path class="st11" d="M426.2,68l-102.9,0.9l0.3,37.2l102.8-0.9c2,0,3.6-1.7,3.6-3.7l-0.2-30C429.9,69.6,428.2,68,426.2,68z"/>
	
		<rect x="308.5" y="69" transform="matrix(1 -8.312645e-003 8.312645e-003 1 -0.7172 2.6298)" class="st10" width="14.9" height="37.2"/>
	<path class="st10" d="M220.5,69.7c-2,0-3.6,1.7-3.6,3.7l0.2,30c0,2,1.7,3.6,3.7,3.6l87.9-0.7l-0.3-37.2L220.5,69.7z"/>
	
		<rect x="386.2" y="81.2" transform="matrix(1 -8.312645e-003 8.312645e-003 1 -0.7625 3.271)" class="st8" width="13.8" height="24.4"/>
	
		<rect x="410.9" y="81" transform="matrix(1 -8.312645e-003 8.312645e-003 1 -0.7604 3.4566)" class="st8" width="9.2" height="24.4"/>
	
		<rect x="351.8" y="81.5" transform="matrix(1 -8.312645e-003 8.312645e-003 1 -0.7663 3.0039)" class="st8" width="18.3" height="24.4"/>
	
		<rect x="246.6" y="82.3" transform="matrix(1 -8.312645e-003 8.312645e-003 1 -0.7769 2.11)" class="st9" width="13.8" height="24.4"/>
	
		<rect x="226.5" y="82.5" transform="matrix(1 -8.312645e-003 8.312645e-003 1 -0.779 1.9244)" class="st9" width="9.2" height="24.4"/>
	
		<rect x="276.3" y="82.1" transform="matrix(1 -8.312645e-003 8.312645e-003 1 -0.774 2.3762)" class="st9" width="18.3" height="24.4"/>
	
		<rect x="323.6" y="81.7" transform="matrix(1 -8.312645e-003 8.312645e-003 1 -0.7693 2.7322)" class="st8" width="9.4" height="24.4"/>
	
		<rect x="314.8" y="81.7" transform="matrix(1 -8.312645e-003 8.312645e-003 1 -0.77 2.6565)" class="st9" width="8.9" height="24.4"/>
</g>
<path class="st5" d="M157.4,272l22.3-24.3c0,0,4.4-5,10.2-6.2c3.1-0.6,24.6-5,48.4-10.2L237.4,126c-3.7-3.3-5-8.7-1.3-15.7
	c0.3-0.5,0.6-1.1,1.1-1.7l-0.5-63.1c-11.1,7.6-26.3,13.2-34.3,18.9c-12.2,8.5-48.3,32.8-72.6,57.8c-15.7,10.1-25.8,41.9-32.4,49.7
	c-6.6,7.8-20.9,23.2-20.9,23.2L157.4,272z"/>
<path class="st5" d="M276.1,61c0,0,12.6-15.5,0.5-26.9c-7.3-6.8-20.4-2.3-29.5,4.1c-3.4,2.5-6.8,4.8-10.2,7.1l0.5,63.1
	C245.6,95.3,276.1,61,276.1,61z"/>
<path class="st6" d="M379.8,215.3c14.2-3,27.3-8.4,32-13.4c22.4-12.5,46.5-40.9,49.4-43.3c7.4-6.3,12-20.4,4.1-29.6
	s-13.4-13.1-32.2-3.4c-17.4,11.1-61.4,33.4-61.4,33.4s-14.2-2.7-30.4-3.7c-16.2-1.1-53.1-3-62.7-4.4c-13.5-1.9-18.3-2.9-30.1-12.3
	c-3.5-2.8-8.4-10.2-11.1-12.6l0.9,105.1c21-4.6,56.4-7.9,69.8-8.8C336.5,220.4,375.4,215.4,379.8,215.3z"/>
<path class="st7" d="M322.3,188.8"/>
<path class="st7" d="M144.1,259l21.9-23.6l0.1-0.1l0.1-0.1c2-2.2,9.4-9.6,19.9-11.8l1-0.2c18.8-3.9,36-7.6,51.1-10.9l-0.1-18.7
	c-15.8,3.4-34.3,7.5-54.6,11.6l-1,0.2c-15.7,3.2-26.1,13.2-29.9,17.5l-21.8,23.5L144.1,259z"/>
<path class="st7" d="M290,200.5c24.2-6.5,18.8-2,32.6-2.6c13.9-0.5,13-16.1-0.6-18.3c-13.6-2.1-20.2-1.3-36.7,3.1
	c-9.3,2.5-25.8,6.4-47.3,11l0.1,18.7C261.8,207.4,280.2,203.1,290,200.5z"/>
<path class="st8" d="M166.3,274.2l-6.3-6c0,0-103.2-97.8-107.4-102c-4.3-4.2-8.3-2.5-10.9,0.1C39.2,168.9,6.5,206,6.5,206l1.2,141
	l91.9-0.7L166.3,274.2z"/>
<path class="st10" d="M149.6,292.6l-6.3-6c0,0-103.2-97.8-107.4-102c-4.2-4.2-8.3-2.5-10.9,0.1S3.8,209.7,3.8,209.7l1.1,141
	l91.9-0.7L149.6,292.6z"/>
<circle class="st7" cx="113.3" cy="293.3" r="13"/>
<circle class="st7" cx="84.3" cy="267.6" r="13"/>
<path class="st7" d="M322.2,191.3"/>
<text transform="matrix(1 0 0 1 422.296 -82.7844)" class="st12 st13 st14">M</text>
</svg>
