<?xml version="1.0" encoding="utf-8"?>
<!-- Generator: Adobe Illustrator 19.0.0, SVG Export Plug-In . SVG Version: 6.00 Build 0)  -->
<svg version="1.1" id="Layer_1" xmlns="http://www.w3.org/2000/svg" xmlns:xlink="http://www.w3.org/1999/xlink" x="0px" y="0px"
	 viewBox="96 11 512 512" style="enable-background:new 96 11 512 512;" xml:space="preserve">
<style type="text/css">
	.st0{fill:#FFD1A9;}
	.st1{fill:#FF8C29;}
	.st2{fill:#FD6A33;}
	.st3{fill:#365558;}
	.st4{fill:#0295AA;}
	.st5{fill:#F0353D;}
	.st6{fill:#4ACFD9;}
	.st7{fill:#9BAAAB;}
	.st8{fill:#CDD4D5;}
	.st9{fill:#E6EAEA;}
	.st10{fill:#FFFFFF;}
	.st11{fill:#BCD643;}
</style>
<g>
	<path class="st0" d="M533.7,11H170.3c-5.5,0-10,4.5-10,10v491.7c0,5.5,4.5,10,10,10h261.9c2.5,0,5.2-1,7.1-3l101.6-101.6
		c1.8-1.8,3-4.4,3-7.1V21.2C543.7,15.5,539.2,11,533.7,11z"/>
	<path class="st1" d="M170.2,11c-5.5,0-10,4.5-10,10v491.7c0,5.5,4.5,10,10,10H352V11H170.2z"/>
	<path class="st2" d="M432.1,421.4V523l0,0c2.5,0,5.2-1,7.1-3l101.6-101.6c1.8-1.8,3-4.4,3-7.1l0,0H442.1
		C436.6,411.2,432.1,415.8,432.1,421.4z"/>
	<path class="st0" d="M482.5,65"/>
</g>
<path class="st0" d="M501.9,64.2H351.6v106.6h150.3c5.2,0,9.3-5.7,9.3-12.8V77C511.2,69.9,507.1,64.2,501.9,64.2z"/>
<path class="st3" d="M201.7,50C190.8,50,182,62.1,182,77v81c0,14.9,8.8,27,19.7,27h149.9V50H201.7z"/>
<path class="st1" d="M201.3,64.2c-5.2,0-9.3,5.7-9.3,12.8v81c0,7.1,4.2,12.8,9.3,12.8h150.3V64.2H201.3z"/>
<path class="st4" d="M351.6,185h150.6c10.9,0,19.7-12.1,19.7-27V77c0-14.9-8.8-27-19.7-27H351.6v14.2h150.6c5.2,0,9.4,5.7,9.4,12.8
	v81c0,7.1-4.2,12.8-9.4,12.8H351.6V185z"/>
<path class="st3" d="M243.9,131.5h-9.2l-3.4,18h-8.7l3.4-18h-10.8v-7.6h12.3l2.4-12.5h-11.1v-7.6h12.5l3.5-18.3h8.7l-3.5,18.3h9.3
	l3.5-18.3h8.7l-3.5,18.3h10.4v7.6h-11.9l-2.4,12.5h10.7v7.6h-12.1l-3.4,18h-8.7L243.9,131.5z M236.1,123.9h9.2l2.4-12.5h-9.3
	L236.1,123.9z"/>
<path class="st3" d="M311.3,107.6l13-22.1h16.5l-20.2,31.7l20.7,32.3h-16.6l-13.4-22.4l-13.4,22.4h-16.6l20.7-32.3l-20.2-31.7h16.5
	L311.3,107.6z"/>
<rect x="160.1" y="223" class="st3" width="191.4" height="16"/>
<rect x="160.1" y="296" class="st3" width="191.4" height="16"/>
<rect x="351.6" y="223" class="st4" width="192.3" height="16"/>
<rect x="351.6" y="296" class="st4" width="192.3" height="16"/>
<rect x="160.1" y="259" class="st3" width="191.4" height="17"/>
<rect x="160.1" y="332" class="st3" width="191.4" height="17"/>
<rect x="351.6" y="259" class="st4" width="192.3" height="17"/>
<rect x="351.6" y="332" class="st4" width="192.3" height="17"/>
<polygon class="st4" points="362.6,85.9 385.2,126.3 385.2,149.5 399.7,149.5 399.7,126.3 422.5,85.5 406.9,85.5 392.4,114.3 
	378.1,85.5 362.6,85.5 "/>
<polygon class="st4" points="489,138.9 454,138.9 488.3,93.1 488.3,85.5 436.2,85.5 436.2,96.2 470.5,96.2 436.2,141.8 436.2,149.5 
	489,149.5 "/>
<rect x="-469" y="11" class="st5" width="128" height="128"/>
<rect x="-341" y="11" class="st2" width="128" height="128"/>
<rect x="-213" y="11" class="st1" width="128" height="128"/>
<rect x="-85" y="11" class="st0" width="128" height="128"/>
<rect x="-469" y="139" class="st3" width="128" height="128"/>
<rect x="-341" y="139" class="st4" width="128" height="128"/>
<rect x="-213" y="139" class="st6" width="128" height="128"/>
<rect x="-469" y="267" class="st7" width="128" height="128"/>
<rect x="-341" y="267" class="st8" width="128" height="128"/>
<rect x="-213" y="267" class="st9" width="128" height="128"/>
<rect x="-85" y="267" class="st10" width="128" height="128"/>
<rect x="-469" y="395" class="st11" width="128" height="128"/>
</svg>
