<?xml version="1.0" encoding="utf-8"?>
<!-- Generator: Adobe Illustrator 19.0.0, SVG Export Plug-In . SVG Version: 6.00 Build 0)  -->
<svg version="1.1" id="Layer_1" xmlns="http://www.w3.org/2000/svg" xmlns:xlink="http://www.w3.org/1999/xlink" x="0px" y="0px"
	 viewBox="96 11 512 512" style="enable-background:new 96 11 512 512;" xml:space="preserve">
<style type="text/css">
	.st0{display:none;fill:#020202;}
	.st1{fill:#FD6A33;}
	.st2{fill:#FF8C29;}
	.st3{fill:#FFD1A9;}
	.st4{fill:#F0353D;}
	.st5{fill:#E6EAEA;}
	.st6{fill:#CDD4D5;}
	.st7{fill:#9BAAAB;}
	.st8{fill:#0295AA;}
	.st9{fill:#365558;}
	.st10{fill:#4ACFD9;}
</style>
<rect x="590" y="-162" class="st0" width="512" height="512"/>
<path class="st1" d="M228,244.3h-6.2h-6.3c-8.1,0-14.7,6.7-14.7,14.7v63.3c0,8.1,6.7,14.7,14.7,14.7h6.3h6.2c3.7,0,6.8-3,6.8-6.8
	V251C234.8,247.5,231.8,244.3,228,244.3z"/>
<path class="st2" d="M482.2,337H476c-3.7,0-6.8-3-6.8-6.8V251c0-3.7,3-6.8,6.8-6.8h6.2h6.3c8.1,0,14.7,6.7,14.7,14.7v63.4
	c0,8.1-6.7,14.7-14.7,14.7H482.2L482.2,337z"/>
<path class="st2" d="M423.7,185.2h-46.6c-4.6,0-8.9-4.2-8.9-8.9v-18.4c0-8.9-7.3-16.2-16.2-16.2v179h5v0.1h4.4
	c1.9,0,3.4,1.5,3.3,3.3v6.1c0,1.9-1.5,3.3-3.3,3.3H357h-3h-2V381h71.7c18.7,0,33.9-15.2,33.9-33.9V219
	C457.6,200.3,442.2,185.1,423.7,185.2z M411.3,330c0,2-1.7,3.6-3.6,3.6h-18.4c-1.9,0-3.5-1.7-3.6-3.6v-5.7c0-2,1.7-3.6,3.6-3.6h18.4
	c2,0,3.6,1.7,3.6,3.6V330z M398.6,277.7c-9.4,0-16.9-7.6-16.9-16.9s7.6-16.9,16.9-16.9s16.9,7.6,16.9,16.9
	C415.5,270.1,407.9,277.7,398.6,277.7z"/>
<path class="st1" d="M339.3,330.2V324c0-1.9,1.5-3.3,3.3-3.3v-0.1h9.4V141.6c-8.9,0-16.1,7.3-16.3,16.2v18.4c0,5.1-5.2,8.9-10.2,8.9
	h-45.1c-18.7,0-33.9,15.2-33.9,33.9v128.1c0,18.7,15.2,33.9,33.9,33.9H352v-47.5h-9.4C340.7,333.5,339.3,332,339.3,330.2z
	 M318.2,330.2c0,1.9-1.5,3.3-3.3,3.3H296c-1.9,0-3.3-1.5-3.3-3.3V324c0-1.9,1.5-3.3,3.3-3.3h18.9c1.8,0,3.3,1.5,3.3,3.2V330.2z
	 M305.4,277.6c-9.3,0-16.9-7.6-16.9-16.9s7.6-16.9,16.9-16.9c9.4,0,16.9,7.7,16.9,16.9C322.3,270,314.7,277.6,305.4,277.6z"/>
<path class="st3" d="M215.3,300.1c0.7,1,1,2.3,0.6,3.6c-1.7,7-0.3,14.3,3.7,20.1c1.3,1.9,0.9,4.6-0.8,6c-1.9,1.4-4.4,1.1-5.8-0.7
	c-5.6-7.7-7.3-17.6-5-27c0.6-2.3,2.8-3.8,5-3.2C214.1,298.8,214.7,299.3,215.3,300.1z"/>
<path class="st3" d="M491.6,298.8c2.2-0.6,4.4,1,5,3.2c2.4,9.4,0.6,19.3-5,27c-1.3,1.8-3.9,2.1-5.8,0.7c-1.7-1.4-2.2-4.1-0.8-6
	c4-5.8,5.3-13,3.7-20.1c-0.4-1.2-0.1-2.6,0.6-3.6C489.8,299.3,490.4,298.8,491.6,298.8z"/>
<path class="st4" d="M357.3,17.2L356.9,41c-0.1,3.2-2.6,5.7-5.9,5.8c-3.2,0-5.7-2.5-5.6-5.7l0.4-23.8c0.1-3.2,2.6-5.7,5.9-5.8
	C354.8,11.5,357.3,14,357.3,17.2z"/>
<path class="st4" d="M391.6,32.2c0,1.5-0.6,3-1.8,4.1l-15.4,15.3c-2.3,2.3-5.9,2.3-8.2,0c-2.2-2.2-2.1-5.8,0.2-8.2l15.4-15.3
	c2.3-2.3,5.9-2.3,8.2,0C391.2,29.2,391.7,30.8,391.6,32.2z"/>
<path class="st4" d="M337.3,47.7c0,1.5-0.6,3-1.8,4.1c-2.3,2.3-5.9,2.3-8.2,0l-14.9-15c-2.2-2.2-2.1-5.8,0.2-8.2
	c2.3-2.3,5.9-2.3,8.2,0l14.9,15C336.7,44.8,337.3,46.2,337.3,47.7z"/>
<path class="st5" d="M470.6,191.1c0.2-47.2-33.1-87.3-79.4-102v45.1c0,5.6-4.6,10.1-10.1,10.1c-5.6,0-10.1-4.6-10.1-10.1
	c0,0,0-37.7,0-49.8c0-16.1-8.7-21.9-18.9-21.9v133.7h118.4C470.6,194.5,470.6,192.7,470.6,191.1z"/>
<path class="st6" d="M332.3,84.5c0,16.7,0,49.7,0,49.7c0,5.6-4.6,10.1-10.1,10.1s-10.1-4.6-10.1-10.1V89.3
	c-46,14.9-78.9,54.9-78.9,101.8c0,1.8,0,3.4,0.1,5.1H352V62.5C340.7,62.5,332.3,67.8,332.3,84.5z"/>
<path class="st6" d="M471.1,196.3H352v28.6c53.4,0.1,119.1,7.6,119.1,7.6c9.3,3.4,13.3-6,13.3-13.3v-9.4
	C484.4,202.3,478.4,196.3,471.1,196.3z"/>
<path class="st7" d="M231.3,196.3c-7.3,0-13.3,6-13.3,13.3v9.4c0,7.3,4.6,15.8,13.3,13.3c0,0,67.9-7.6,119.9-7.6c0.3,0,0.5,0,0.8,0
	v-28.6H231.3V196.3z"/>
<path class="st8" d="M510.3,434.6h-159v88h158.9c6.9,0,12.5-5.6,12.5-12.5v-62.9C522.9,440.3,517.2,434.6,510.3,434.6z"/>
<path class="st9" d="M193.8,434.6c-6.9,0-12.5,5.6-12.5,12.5V510c0,6.9,5.6,12.5,12.5,12.5h157.6v-88H193.8V434.6z"/>
<path class="st8" d="M240.5,391h-16.9c-6.9,0-12.5,5.6-12.5,12.5v68.7c0,6.9,5.6,12.5,12.5,12.5h16.9c6.9,0,12.5-5.6,12.5-12.5
	v-68.7C253,396.6,247.4,391,240.5,391z"/>
<path class="st2" d="M232,450.8c-0.1,0-0.2,0-0.2,0v28.4c0.1,0,0.2,0,0.2,0c7.8,0,14.2-6.4,14.2-14.2S239.8,450.8,232,450.8z"/>
<path class="st1" d="M217.9,465c0,7.7,6.2,14,13.9,14.2v-28.3C224,451,217.9,457.3,217.9,465z"/>
<path class="st10" d="M480.6,484.7h-16.9c-6.9,0-12.5-5.6-12.5-12.5v-68.7c0-6.9,5.6-12.5,12.5-12.5h16.9c6.9,0,12.5,5.6,12.5,12.5
	v68.7C493.1,479.1,487.5,484.7,480.6,484.7z"/>
<path class="st2" d="M472,450.8c-0.1,0-0.2,0-0.2,0v28.4c0.1,0,0.2,0,0.2,0c7.8,0,14.2-6.4,14.2-14.2S479.9,450.8,472,450.8z"/>
<path class="st1" d="M458.1,465c0,7.7,6.2,14,13.9,14.2v-28.3C464.2,451,458.1,457.3,458.1,465z"/>
</svg>
