<?xml version="1.0" encoding="utf-8"?>
<!-- Generator: Adobe Illustrator 19.0.0, SVG Export Plug-In . SVG Version: 6.00 Build 0)  -->
<svg version="1.1" id="Layer_1" xmlns="http://www.w3.org/2000/svg" xmlns:xlink="http://www.w3.org/1999/xlink" x="0px" y="0px"
	 viewBox="96 11 512 512" style="enable-background:new 96 11 512 512;" xml:space="preserve">
<style type="text/css">
	.st0{display:none;fill:#0295AA;}
	.st1{fill:#F0353D;}
	.st2{fill:#FD6A33;}
	.st3{fill:#FF8C29;}
	.st4{fill:#FFD1A9;}
	.st5{fill:#365558;}
	.st6{fill:#0295AA;}
	.st7{fill:#4ACFD9;}
	.st8{fill:#9BAAAB;}
	.st9{fill:#CDD4D5;}
	.st10{fill:#E6EAEA;}
	.st11{fill:#FFFFFF;}
	.st12{fill:#BCD643;}
</style>
<circle class="st0" cx="663.5" cy="73.2" r="188.5"/>
<rect x="863.7" y="-25" class="st1" width="128" height="128"/>
<rect x="991.7" y="-25" class="st2" width="128" height="128"/>
<rect x="1119.7" y="-25" class="st3" width="128" height="128"/>
<rect x="1247.7" y="-25" class="st4" width="128" height="128"/>
<rect x="863.7" y="103" class="st5" width="128" height="128"/>
<rect x="991.7" y="103" class="st6" width="128" height="128"/>
<rect x="1119.7" y="103" class="st7" width="128" height="128"/>
<rect x="863.7" y="231" class="st8" width="128" height="128"/>
<rect x="991.7" y="231" class="st9" width="128" height="128"/>
<rect x="1119.7" y="231" class="st10" width="128" height="128"/>
<rect x="1247.7" y="231" class="st11" width="128" height="128"/>
<rect x="863.7" y="359" class="st12" width="128" height="128"/>
<path class="st6" d="M386.7,47.4c-39.5,0-76.6,10.4-108.7,28.5v385.6c32.1,18.1,69.2,28.5,108.7,28.5V47.4z"/>
<path class="st7" d="M386.7,47.4V490C508.9,490,608,390.9,608,268.7S508.9,47.4,386.7,47.4z"/>
<path class="st2" d="M278,163.5v210.4c27.5,28.4,66,46.1,108.7,46.1V117.4C344,117.4,305.5,135.1,278,163.5z"/>
<path class="st3" d="M538,268.7c0-83.5-67.7-151.3-151.3-151.3V420C470.3,420,538,352.3,538,268.7z"/>
<path class="st7" d="M387.6,182.3c-47.6,0-86.4,38.8-86.4,86.4s38.8,86.4,86.4,86.4s86.4-38.8,86.4-86.4S435.2,182.3,387.6,182.3z"
	/>
<path class="st6" d="M301.1,268.7c0,47.5,38.3,86,85.7,86.4V182.3C339.5,182.7,301.1,221.2,301.1,268.7z"/>
<path class="st10" d="M387.4,196.5c-0.2,0-0.4,0-0.6,0v145.6c0.2,0,0.4,0,0.6,0c40.2,0,72.8-32.7,72.8-72.8S427.5,196.5,387.4,196.5
	z"/>
<path class="st9" d="M314.5,269.3c0,39.9,32.3,72.5,72.2,72.8V196.5C346.9,196.8,314.5,229.4,314.5,269.3z"/>
<path class="st3" d="M418.1,270.3c-1.3-3.5-3.2-6-5.7-7.5c-2.5-1.5-6-2.6-10.4-3.2l-15.1-1.7v19.7l3.7,0.5c2.8,0.3,4.7,0.7,5.8,1.1
	c1.1,0.4,1.8,1,2.2,1.9c0.4,0.9,0.6,2.5,0.6,4.8c0,2.4-0.3,4.1-1,5.2c-0.6,1.1-2.1,1.9-4.4,2.3c-1.6,0.3-3.9,0.6-6.9,0.6v30.6h7.4
	v-12.3c8.6-0.4,15.1-2.6,19.4-6.4c4.3-3.8,6.5-10.7,6.5-20.8C420,278.7,419.4,273.8,418.1,270.3z"/>
<path class="st3" d="M389.6,241.6c7,0,15.5,0.5,25.7,1.5V226c-2.6-0.6-5.9-1.1-10-1.6s-7.8-0.9-11.2-1v-12.6h-7.4v30.9
	C387.7,241.6,388.6,241.6,389.6,241.6z"/>
<path class="st2" d="M382.5,294c-8.3,0-17.6-0.4-28-1.3v17.1c7,1.3,14.9,2.1,23.9,2.4v12.3h8.3v-30.6C385.5,294,384.1,294,382.5,294
	z"/>
<path class="st2" d="M378.5,223.5c-8.7,0.6-15.4,2.8-19.9,6.6c-4.5,3.8-6.8,10.1-6.8,19.1c0,8,1.3,14.1,3.9,18.3
	c2.7,4.2,7.8,6.8,15.6,7.9l15.4,2.1v-19.7l-5.9-0.7c-2.7-0.3-4.5-0.7-5.6-1.1c-1-0.4-1.7-1-2-1.9c-0.3-0.9-0.5-2.5-0.5-4.8
	c0-2.4,0.5-4.1,1.5-5.2c1-1.1,2.7-1.8,4.9-2.1c1.7-0.3,4.3-0.4,7.6-0.5v-30.9h-8.3L378.5,223.5L378.5,223.5z"/>
<path class="st4" d="M493.5,218c-2.8,0-5.6-1.5-7-4.1c-14.2-25.7-38.3-45.4-66.3-54c-4.2-1.3-6.6-5.8-5.3-10c1.3-4.2,5.8-6.6,10-5.3
	c32.3,10,59.2,31.8,75.6,61.5c2.1,3.9,0.7,8.7-3.1,10.9C496.2,217.6,494.8,218,493.5,218z"/>
<path class="st3" d="M355.9,376.9c-28.1-8.6-52.3-28.4-66.5-54.2c-2-3.6-6.6-4.9-10.2-2.9c-0.4,0.2-0.8,0.5-1.2,0.8V333
	c16.5,28,42.4,48.6,73.5,58.2c0.7,0.2,1.5,0.3,2.2,0.3c3.2,0,6.2-2.1,7.2-5.3C362.1,382.3,359.9,378.1,355.9,376.9z"/>
<path class="st10" d="M553.1,184.4c-2.6,0-5.2-1.4-6.6-3.9c-23-41.7-62.2-73.7-107.6-87.7c-4-1.2-6.2-5.4-5-9.4c1.2-4,5.4-6.2,9.4-5
	c24.7,7.6,47.5,19.8,67.6,36.3c19.9,16.3,36.3,36,48.7,58.5c2,3.6,0.7,8.2-2.9,10.2C555.6,184.1,554.3,184.4,553.1,184.4z"/>
<path class="st9" d="M334.5,444.6c-20.4-6.3-39.5-16.2-56.5-29v18.5c16.1,10.8,33.5,19.1,52.1,24.8c0.7,0.2,1.5,0.3,2.2,0.3
	c3.2,0,6.2-2.1,7.2-5.3C340.7,450,338.5,445.8,334.5,444.6z"/>
<path class="st5" d="M112.1,486.3H98.9c-1.6,0-2.9-1.3-2.9-2.9V51.2c0-1.6,1.3-2.9,2.9-2.9h13.1c1.6,0,2.9,1.3,2.9,2.9v432.1
	C115,484.9,113.7,486.3,112.1,486.3z"/>
<path class="st1" d="M252.4,12L133.1,47c-2.8,0.7-5.6,2.5-5.6,5.6v428.8c0,3.1,2.4,4.6,5.6,5.6l119.3,33c3.3,0.8,5.6-2.5,5.6-5.6
	V17.6C258,14.5,255.9,11.3,252.4,12z"/>
<ellipse class="st5" cx="230.9" cy="256.7" rx="6.1" ry="12.6"/>
</svg>
