<?xml version="1.0" encoding="utf-8"?>
<!-- Generator: Adobe Illustrator 19.0.0, SVG Export Plug-In . SVG Version: 6.00 Build 0)  -->
<svg version="1.1" id="Fails" xmlns="http://www.w3.org/2000/svg" xmlns:xlink="http://www.w3.org/1999/xlink" x="0px" y="0px"
	 viewBox="96 11 512 512" style="enable-background:new 96 11 512 512;" xml:space="preserve">
<style type="text/css">
	.st0{fill:#FF8C29;}
	.st1{fill:#FD6A33;}
	.st2{fill:#E6EAEA;}
	.st3{fill:#365558;}
	.st4{fill:#F0353D;}
	.st5{fill:#FFD1A9;}
	.st6{fill:#0295AA;}
	.st7{fill:#4ACFD9;}
	.st8{fill:#9BAAAB;}
	.st9{fill:#CDD4D5;}
	.st10{fill:#FFFFFF;}
	.st11{fill:#BCD643;}
</style>
<path class="st0" d="M352,11C210.9,11,96,125.9,96,267s114.9,256,256,256s256-114.9,256-256S493.1,11,352,11z M352,482.7
	c-119.1,0-215.7-96.6-215.7-215.7S232.9,51.3,352,51.3S567.7,147.9,567.7,267S471.1,482.7,352,482.7z"/>
<path class="st1" d="M302.4,304.5c-1.5-1.4-42.8-10.4-91.5-10.7c-8.7,0,0-137.3,0-137.2c53.4-0.3,87.5,2.9,87.5-2.3
	c0-9.6,22.5-18.6,51.1-25.7v224.8C331.7,330.3,312.1,312.6,302.4,304.5z"/>
<path class="st0" d="M535.8,253.1c0,21.1-35.3,25.3-35.3,25.3s21.6,2.1,23.5,25.3c1.9,23.3-27.5,28.8-35.3,28.8c-6,0-18.6,0-25.9,0
	c-47.2-0.2-42.8,9.3-42.8,9.3s21.6,84.6,3.9,112.1c-17.7,27.4-33.4,9.1-35.3,4.8c-3.9-12.6-1.9-25.5-4.9-38.5
	c-5.6-24.5-19.3-47.6-34.2-66.9V128.5c40.6-10.1,93.4-16.3,111.8-15.1c31.4,2.1,39.3,9.1,43.2,25.3c3.9,16.3-15.7,29.6-15.7,29.6
	s31.4-6.3,37.3,21.2c5.8,27.5-29.5,31.8-29.5,31.8C530,221.4,535.8,232,535.8,253.1z"/>
<g>
	<g>
		<path class="st1" d="M511,326.4c1.7-4.1,3.5-7.8,5-11.5s2.6-7.4,2.7-10.7c0.1-0.4,0-0.8,0-1.3v-0.6l-0.1-0.6
			c-0.1-0.4-0.1-0.9-0.2-1.3c-0.1-0.4-0.2-0.9-0.3-1.3c-0.5-1.8-1.1-3.6-1.8-5.4c-1.5-3.7-3.4-7.4-5.2-11.4c3.9,2.1,7.2,5.2,9.8,8.8
			c1.3,1.8,2.4,3.9,3.3,6.1c0.8,2.2,1.3,4.7,1.3,7.2c-0.2,5.1-2.3,9.5-4.8,13.1C518,321,514.9,324.1,511,326.4z"/>
	</g>
	<g>
		<path class="st1" d="M521.9,271.9c2.8-3.7,4.8-7.4,6.1-11.3c0.6-1.9,1.1-3.8,1.3-5.8c0.1-1,0.2-1.9,0.2-2.9s0-1.9,0-3
			c0-0.5,0-1.1,0-1.6s0-1-0.1-1.5c-0.1-1-0.1-2-0.3-3c-0.3-2-0.7-3.9-1.3-5.8c-1.3-3.9-3.2-7.6-6-11.4c2.3,0.7,4.3,2,6.2,3.5
			c1.8,1.6,3.4,3.5,4.7,5.6c1.3,2.1,2.2,4.4,2.8,6.9c0.3,1.2,0.5,2.4,0.7,3.7c0,0.6,0.1,1.3,0.1,1.8l0.1,1.7c0,0.6,0,1.1,0,1.8
			c0,0.6,0,1.2-0.1,1.9c-0.1,1.2-0.3,2.5-0.6,3.7c-0.6,2.4-1.6,4.8-2.9,6.9c-1.3,2.1-2.9,4-4.8,5.5
			C526.2,269.9,524.2,271.2,521.9,271.9z"/>
	</g>
	<g>
		<path class="st1" d="M515.9,214.3c1.5-4.2,3-8,4.2-11.9c1.2-3.8,2.1-7.6,2-10.9c-0.1-3.2-1.6-6.7-3.5-10.1
			c-1.9-3.5-4.3-6.9-6.7-10.5c4.2,1.5,7.8,4.1,11,7.4c1.5,1.7,2.9,3.6,4,5.7c0.5,1.1,1,2.2,1.3,3.4c0.3,1.2,0.5,2.5,0.6,3.8
			c0.1,2.6-0.3,5-1,7.2s-1.7,4.3-2.8,6.2C522.5,208.5,519.6,211.8,515.9,214.3z"/>
	</g>
	<g>
		<path class="st1" d="M498.5,159.2c0.9-3.9,1.7-7.2,2.2-10.6c0.2-1.7,0.4-3.3,0.5-4.9c0.1-0.8,0.1-1.6,0.1-2.4c0-0.7,0-1.4-0.2-2.1
			c-0.4-2.9-1.7-6-3.3-9.1c-1.6-3.1-3.5-6.2-5.4-9.5c1.8,0.7,3.5,1.7,5,2.9c1.6,1.1,3,2.4,4.3,3.9c2.6,2.9,4.9,6.4,5.8,10.8
			c0.2,1.1,0.3,2.2,0.3,3.3c-0.1,1-0.1,2.1-0.2,3.1c-0.3,2-0.8,4-1.6,5.9s-1.8,3.6-3.1,5.1C501.7,156.8,500.3,158.2,498.5,159.2z"/>
	</g>
</g>
<path class="st2" d="M281.3,141.7H176L170.7,348h110.6c4,0,7.2-3.2,7.2-7.2V148.9C288.5,145,285.3,141.7,281.3,141.7z"/>
<path class="st3" d="M241.9,141.7h-92.7l-20.4,108.4l-9.7,97.9c0,0,81.9,0,122.9,0c4,0,7.2-3.2,7.2-7.2V148.9
	C249.1,145,245.9,141.7,241.9,141.7z"/>
<g>
	<ellipse class="st0" cx="216.1" cy="266.4" rx="16.3" ry="16.3"/>
	<ellipse class="st0" cx="215" cy="314.9" rx="16.3" ry="16.3"/>
</g>
<path class="st1" d="M136.3,267c0-118.4,95.3-214.4,213.4-215.7V11C209.6,12.3,96,126.5,96,267s113.6,254.7,253.7,256v-40.3
	C231.7,481.4,136.3,385.4,136.3,267z"/>
<rect x="690" y="15.9" class="st4" width="128" height="128"/>
<rect x="818" y="15.9" class="st1" width="128" height="128"/>
<rect x="946" y="15.9" class="st0" width="128" height="128"/>
<rect x="1074" y="15.9" class="st5" width="128" height="128"/>
<rect x="690" y="143.9" class="st3" width="128" height="128"/>
<rect x="818" y="143.9" class="st6" width="128" height="128"/>
<rect x="946" y="143.9" class="st7" width="128" height="128"/>
<rect x="690" y="271.9" class="st8" width="128" height="128"/>
<rect x="818" y="271.9" class="st9" width="128" height="128"/>
<rect x="946" y="271.9" class="st2" width="128" height="128"/>
<rect x="1074" y="271.9" class="st10" width="128" height="128"/>
<rect x="690" y="399.9" class="st11" width="128" height="128"/>
</svg>
