<?xml version="1.0" encoding="iso-8859-1"?>
<!-- Generator: Adobe Illustrator 19.0.0, SVG Export Plug-In . SVG Version: 6.00 Build 0)  -->
<svg version="1.1" id="Layer_1" xmlns="http://www.w3.org/2000/svg" xmlns:xlink="http://www.w3.org/1999/xlink" x="0px" y="0px"
	 viewBox="0 0 512 512" style="enable-background:new 0 0 512 512;" xml:space="preserve">
<path style="fill:#E6EAEA;" d="M503.983,17.102H8.017C3.588,17.102,0,20.691,0,25.119v342.046c0,4.428,3.588,8.017,8.017,8.017
	h495.967c4.428,0,8.017-3.588,8.017-8.017V25.119C512,20.691,508.412,17.102,503.983,17.102z"/>
<path style="fill:#FD6A33;" d="M503.983,17.102h-76.426v358.079h76.426c4.427,0,8.017-3.589,8.017-8.017V25.119
	C512,20.692,508.411,17.102,503.983,17.102z"/>
<path style="fill:#F0353D;" d="M469.779,238.363c-4.428,0-8.017-3.588-8.017-8.017v-68.409c0-4.428,3.588-8.017,8.017-8.017
	s8.017,3.588,8.017,8.017v68.409C477.795,234.775,474.207,238.363,469.779,238.363z"/>
<path style="fill:#365558;" d="M358.614,153.921H229.812v-9.086c0-4.428-3.588-8.017-8.017-8.017s-8.017,3.588-8.017,8.017v9.086
	H76.426c-4.428,0-8.017,3.588-8.017,8.017v34.205c0,4.428,3.588,8.017,8.017,8.017s8.017-3.588,8.017-8.017v-26.188h129.336v26.188
	c0,4.428,3.588,8.017,8.017,8.017s8.017-3.588,8.017-8.017v-26.188h120.785v26.188c0,4.428,3.588,8.017,8.017,8.017
	c4.428,0,8.017-3.588,8.017-8.017v-34.205C366.63,157.509,363.042,153.921,358.614,153.921z"/>
<path style="fill:#FF8C29;" d="M119.182,188.125h-76.96c-4.428,0-8.017,3.588-8.017,8.017v76.96c0,4.428,3.588,8.017,8.017,8.017
	h76.96c4.428,0,8.017-3.588,8.017-8.017v-76.96C127.198,191.714,123.61,188.125,119.182,188.125z"/>
<path style="fill:#4ACFD9;" d="M256,188.125h-76.96c-4.428,0-8.017,3.588-8.017,8.017v76.96c0,4.428,3.588,8.017,8.017,8.017H256
	c4.428,0,8.017-3.588,8.017-8.017v-76.96C264.017,191.714,260.428,188.125,256,188.125z"/>
<path style="fill:#CDD4D5;" d="M392.818,188.125h-76.96c-4.428,0-8.017,3.588-8.017,8.017v76.96c0,4.428,3.588,8.017,8.017,8.017
	h76.96c4.428,0,8.017-3.588,8.017-8.017v-76.96C400.835,191.714,397.247,188.125,392.818,188.125z"/>
<path style="fill:#F0353D;" d="M277.378,47.031H170.489c-4.428,0-8.017,3.588-8.017,8.017v85.511c0,4.428,3.588,8.017,8.017,8.017
	h106.889c4.428,0,8.017-3.588,8.017-8.017V55.048C285.395,50.62,281.806,47.031,277.378,47.031z"/>
<path style="fill:#FFD1A9;" d="M293.716,267.92c-0.414-2.544-2.023-4.734-4.328-5.886l-72.559-36.279
	c-3.088-1.543-6.814-0.939-9.254,1.501c-2.439,2.44-3.045,6.169-1.501,9.254l36.279,72.559c1.152,2.305,3.342,3.914,5.886,4.328
	c0.428,0.068,0.857,0.104,1.284,0.104c2.109,0,4.154-0.833,5.669-2.347l36.278-36.278
	C293.294,273.051,294.129,270.464,293.716,267.92z"/>
<path style="fill:#365558;" d="M216.83,225.755c-3.088-1.543-6.814-0.939-9.254,1.501c-2.439,2.44-3.045,6.169-1.501,9.254
	l7.461,14.923l18.217-18.217L216.83,225.755z"/>
<path style="fill:#687F82;" d="M291.471,263.536l-47.617,47.617L425.251,492.55c1.504,1.503,3.542,2.347,5.669,2.347
	c2.126,0,4.164-0.844,5.669-2.347l36.279-36.279c1.503-1.504,2.347-3.542,2.347-5.669c0-2.126-0.844-4.164-2.347-5.669
	L291.471,263.536z"/>
<path style="fill:#365558;" d="M267.884,287.124l-24.029,24.029L425.252,492.55c1.504,1.503,3.542,2.347,5.669,2.347
	c2.126,0,4.164-0.844,5.669-2.347l18.36-18.36L267.884,287.124z"/>
<g>
</g>
<g>
</g>
<g>
</g>
<g>
</g>
<g>
</g>
<g>
</g>
<g>
</g>
<g>
</g>
<g>
</g>
<g>
</g>
<g>
</g>
<g>
</g>
<g>
</g>
<g>
</g>
<g>
</g>
</svg>
