<?xml version="1.0" encoding="iso-8859-1"?>
<!-- Generator: Adobe Illustrator 19.0.0, SVG Export Plug-In . SVG Version: 6.00 Build 0)  -->
<svg version="1.1" id="Layer_1" xmlns="http://www.w3.org/2000/svg" xmlns:xlink="http://www.w3.org/1999/xlink" x="0px" y="0px"
	 viewBox="0 0 449.611 449.611" style="enable-background:new 0 0 449.611 449.611;" xml:space="preserve">
<path style="fill:#4ACFD9;" d="M146.142,118.702H16.142c-4.002,0-7.245,3.243-7.245,7.245v138.668c0,4.002,3.243,7.245,7.245,7.245
	h130.001c4.002,0,7.245-3.243,7.245-7.245V125.947C153.387,121.945,150.145,118.702,146.142,118.702z"/>
<path style="fill:#687F82;" d="M146.142,296.453H16.142c-4.002,0-7.245,3.244-7.245,7.245v138.668c0,4.002,3.243,7.245,7.245,7.245
	h130.001c4.002,0,7.245-3.243,7.245-7.245V303.698C153.387,299.697,150.145,296.453,146.142,296.453z"/>
<path style="fill:#FF8C29;" d="M317.545,118.702H187.545c-4.002,0-7.245,3.243-7.245,7.245v138.668c0,4.002,3.243,7.245,7.245,7.245
	h130.001c4.002,0,7.245-3.243,7.245-7.245V125.947C324.791,121.945,321.548,118.702,317.545,118.702z"/>
<path style="fill:#F0353D;" d="M317.545,296.453H187.545c-4.002,0-7.245,3.244-7.245,7.245v138.668c0,4.002,3.243,7.245,7.245,7.245
	h130.001c4.002,0,7.245-3.243,7.245-7.245V303.698C324.791,299.697,321.548,296.453,317.545,296.453z"/>
<path style="fill:#CDD4D5;" d="M389.022,106.318l-54.647-54.647c-2.83-2.829-7.417-2.829-10.247,0l-185.802,185.8
	c-0.36,0.361-0.682,0.759-0.959,1.187L77.255,331.56c-1.856,2.868-1.456,6.643,0.959,9.059l21.859,21.859
	c1.4,1.399,3.255,2.121,5.127,2.121c1.358,0,2.726-0.382,3.933-1.162l92.901-60.113c0.428-0.277,0.826-0.599,1.187-0.959
	l185.802-185.8C391.852,113.735,391.852,109.148,389.022,106.318z"/>
<path style="fill:#FF8C29;" d="M427.276,13.418c-17.892-17.891-47.002-17.891-64.895,0l-43.718,43.718
	c-2.829,2.83-2.829,7.417,0,10.247l54.647,54.647c1.415,1.414,3.27,2.121,5.124,2.121s3.709-0.707,5.124-2.121l43.718-43.718
	c8.667-8.667,13.439-20.19,13.439-32.447C440.715,33.607,435.942,22.085,427.276,13.418z"/>
<path style="fill:#FFFFFF;" d="M367.505,58.575c-1.854,0-3.709-0.707-5.124-2.121c-2.829-2.83-2.829-7.417,0-10.247l16.395-16.395
	c2.83-2.829,7.417-2.829,10.247,0c2.83,2.83,2.83,7.417,0,10.247l-16.394,16.395C371.214,57.867,369.359,58.575,367.505,58.575z"/>
<path style="fill:#FD6A33;" d="M421.812,128.178L312.516,18.882c-2.831-2.829-7.417-2.829-10.247,0l-27.323,27.323
	c-2.829,2.83-2.829,7.417,0,10.247l109.295,109.296c1.415,1.414,3.269,2.121,5.124,2.121c1.854,0,3.709-0.707,5.123-2.121
	l27.324-27.323c1.359-1.359,2.122-3.201,2.122-5.124C423.933,131.379,423.17,129.537,421.812,128.178z"/>
<path style="fill:#F0353D;" d="M367.376,73.742l-37.571,37.571l54.434,54.434c1.415,1.414,3.269,2.121,5.124,2.121
	c1.854,0,3.709-0.707,5.123-2.121l27.324-27.323c1.359-1.359,2.122-3.201,2.122-5.124c0-1.921-0.763-3.764-2.121-5.124
	L367.376,73.742z"/>
<g>
	<path style="fill:#FFFFFF;" d="M170.774,255.305c-1.854,0-3.709-0.707-5.123-2.121c-2.83-2.829-2.83-7.417-0.001-10.247
		l21.859-21.859c2.83-2.83,7.418-2.83,10.246-0.001c2.83,2.83,2.83,7.417,0.001,10.246l-21.859,21.859
		C174.483,254.598,172.628,255.305,170.774,255.305z"/>
	<path style="fill:#FFFFFF;" d="M214.492,211.587c-1.854,0-3.709-0.707-5.124-2.121c-2.83-2.83-2.83-7.417,0-10.247l76.505-76.506
		c2.831-2.83,7.418-2.828,10.247,0c2.83,2.83,2.83,7.417,0,10.247l-76.505,76.506C218.201,210.88,216.346,211.587,214.492,211.587z"
		/>
</g>
<g>
</g>
<g>
</g>
<g>
</g>
<g>
</g>
<g>
</g>
<g>
</g>
<g>
</g>
<g>
</g>
<g>
</g>
<g>
</g>
<g>
</g>
<g>
</g>
<g>
</g>
<g>
</g>
<g>
</g>
</svg>
