<?xml version="1.0" encoding="utf-8"?>
<!-- Generator: Adobe Illustrator 19.0.0, SVG Export Plug-In . SVG Version: 6.00 Build 0)  -->
<svg version="1.1" id="Layer_1" xmlns="http://www.w3.org/2000/svg" xmlns:xlink="http://www.w3.org/1999/xlink" x="0px" y="0px"
	 viewBox="96 11 512 512" style="enable-background:new 96 11 512 512;" xml:space="preserve">
<style type="text/css">
	.st0{display:none;}
	.st1{display:inline;}
	.st2{fill:#F0353D;}
	.st3{fill:#FD6A33;}
	.st4{fill:#FF8C29;}
	.st5{fill:#FFD1A9;}
	.st6{fill:#365558;}
	.st7{fill:#0295AA;}
	.st8{fill:#4ACFD9;}
	.st9{fill:#9BAAAB;}
	.st10{fill:#CDD4D5;}
	.st11{fill:#E6EAEA;}
	.st12{fill:#FFFFFF;}
	.st13{fill:#BCD643;}
</style>
<g id="Layer_3" class="st0">
	<polygon class="st1" points="494,-174.9 494,-59 704,-59 704,-50 785,-50 785,337.9 1006,337.9 1006,-174.9 	"/>
	<rect x="494" y="-59" class="st1" width="210" height="9"/>
	<rect x="704" y="-50" class="st1" width="81" height="387.9"/>
	<polygon class="st1" points="494,-50 494,33 544,33 544,337.9 704,337.9 704,-50 	"/>
	<rect x="494" y="33" class="st1" width="50" height="304.9"/>
</g>
<rect x="-591" y="-7" class="st2" width="128" height="128"/>
<rect x="-463" y="-7" class="st3" width="128" height="128"/>
<rect x="-335" y="-7" class="st4" width="128" height="128"/>
<rect x="-207" y="-7" class="st5" width="128" height="128"/>
<rect x="-591" y="121" class="st6" width="128" height="128"/>
<rect x="-463" y="121" class="st7" width="128" height="128"/>
<rect x="-335" y="121" class="st8" width="128" height="128"/>
<rect x="-591" y="249" class="st9" width="128" height="128"/>
<rect x="-463" y="249" class="st10" width="128" height="128"/>
<rect x="-335" y="249" class="st11" width="128" height="128"/>
<rect x="-207" y="249" class="st12" width="128" height="128"/>
<rect x="-591" y="377" class="st13" width="128" height="128"/>
<path class="st2" d="M96,266.9c0,141.4,114.6,256,256,256v-512C210.6,10.9,96,125.2,96,266.9z"/>
<path class="st3" d="M608,266.9c0-141.4-114.6-256-256-256v512.3C493.4,522.9,608,408.2,608,266.9z"/>
<path class="st9" d="M191.9,266.9c0,88.5,71.7,160.1,160.1,160.1V106.4C263.5,106.4,191.9,178.4,191.9,266.9z"/>
<path class="st10" d="M512.1,266.9c0-88.5-71.7-160.1-160.1-160.1v320.9C440.5,427,512.1,355,512.1,266.9z"/>
<path class="st11" d="M223.7,266.9c0,70.8,57.5,128.3,128.3,128.3V138.3C281.2,138.3,223.7,195.7,223.7,266.9z"/>
<path class="st12" d="M480.3,266.9c0-70.8-57.5-128.3-128.3-128.3v256.9C422.8,395.1,480.3,337.7,480.3,266.9z"/>
<path class="st5" d="M351.7,10.9v79.4c10,0,18.2-8,18.2-18.2V12.6c0-0.6,0-0.9,0-1.1C363.9,11.1,357.7,10.9,351.7,10.9z"/>
<path class="st4" d="M335.8,11.1c0,0.6,0,1.1,0,1.7v59.4c0,9.4,7.1,17.4,16.2,17.9V10.9C346.6,10.9,341.2,10.9,335.8,11.1z"/>
<path class="st2" d="M352,444.9v77.9c6,0,12.2-0.3,18.2-0.6v-59.2C370.2,453.2,362.2,444.9,352,444.9z"/>
<path class="st5" d="M335.8,463.1v59.4c5.4,0.3,10.8,0.6,16.2,0.6v-77.9C342.6,445.8,335.8,453.5,335.8,463.1z"/>
<path class="st5" d="M158.3,248.7H99.1c-0.9,0-1.7,0-2.6,0.3c-0.3,6-0.6,11.9-0.6,17.9h80.5C176.5,256.9,168.5,248.7,158.3,248.7z"
	/>
<path class="st4" d="M158.3,285.1c10,0,18.2-8,18.2-18.2H96c0,6,0.3,12.2,0.6,17.9c0.9,0,1.7,0.3,2.6,0.3H158.3z"/>
<path class="st2" d="M549.4,248.7c-10,0-18.2,8-18.2,18.2H608l0,0c0-6-0.3-12.2-0.6-18.2L549.4,248.7L549.4,248.7z"/>
<path class="st5" d="M549.4,285.1h58c0.3-6,0.6-12.2,0.6-18.2h-76.8C531.2,276.5,539.2,285.1,549.4,285.1z"/>
<path class="st5" d="M228.6,115.8L186.7,74c-0.3-0.3-0.9-0.6-1.7-1.1c-4.6,3.7-8.8,8-13.1,12.2l56.6,56.6
	C235.4,134.3,235.4,122.6,228.6,115.8z"/>
<path class="st4" d="M203,141.4c7.1,7.1,18.5,7.1,25.6,0l-56.6-56.6c-4.3,4.3-8.2,8.5-12.2,13.1c0.3,0.6,0.9,0.9,1.1,1.7L203,141.4z
	"/>
<path class="st2" d="M479.1,392.3l54.9,54.9c4.3-4.3,8.2-8.5,12.2-13.4l-41.5-41.5C497.6,385.2,486,385.2,479.1,392.3z"/>
<path class="st5" d="M479.1,417.6l41.5,41.5c4.6-3.7,8.8-8,13.1-12.5L479.1,392C472,399.1,472,410.8,479.1,417.6z"/>
<path class="st5" d="M202.4,391.4l-41.8,41.8c-0.6,0.6-0.9,0.9-1.1,1.7c3.7,4.6,8,8.8,12.2,13.1l56.6-56.6
	C220.9,384.6,209.2,384.6,202.4,391.4z"/>
<path class="st4" d="M227.7,417c7.1-7.1,7.1-18.5,0-25.6L171.1,448c4.3,4.3,8.5,8.2,13.1,12.2c0.6-0.3,0.9-0.6,1.7-1.1L227.7,417z"
	/>
<path class="st2" d="M478.3,115.2c-7.1,7.1-7.1,18.5,0,25.6L533.2,86c-4.3-4.3-8.5-8.2-13.4-12.5L478.3,115.2z"/>
<path class="st5" d="M478.3,140.6c7.1,7.1,18.5,7.1,25.6,0L545.4,99c-3.7-4.6-8-8.8-12.2-13.4L478.3,140.6z"/>
<path class="st5" d="M295.7,79.4l-22.8-54.9c-0.3-0.3-0.3-0.9-0.6-1.1c-5.7,2-11.4,3.7-16.8,6l30.4,73.4
	C295.1,99,299.7,88.5,295.7,79.4z"/>
<path class="st4" d="M262.4,93.1c3.7,9.4,14.2,13.7,23.6,10l-30.4-73.4c-5.4,2.3-11.1,4.8-16.5,7.4c0,0.6,0.3,0.9,0.6,1.7
	L262.4,93.1z"/>
<path class="st2" d="M421.7,430.4l29.9,72.2c5.4-2.3,11.1-5.1,16.2-7.7L445,440.4C441.3,431.3,430.8,426.7,421.7,430.4z"/>
<path class="st5" d="M411.7,454l22.8,54.9l0,0c5.7-2,11.4-4.3,16.8-6.3l-29.9-72.2C412.3,434.4,408.3,444.9,411.7,454z"/>
<path class="st5" d="M166,323.7l-54.9,22.8c-0.6,0.3-1.7,0.6-2.3,0.9c2,5.7,3.7,11.1,6.3,16.8l74.2-30.7
	C185.6,324.6,175.1,320,166,323.7z"/>
<path class="st4" d="M179.9,357.3c9.4-3.7,13.7-14.2,10-23.6l-74.5,30.7c2.3,5.4,4.8,10.8,7.4,16.2c0.6-0.3,1.7-0.3,2.3-0.6
	L179.9,357.3z"/>
<path class="st2" d="M526.9,174.4c-9.4,3.7-13.7,14.2-10,23.6l71.1-29.6c-2.3-5.7-4.8-11.1-7.7-16.5L526.9,174.4z"/>
<path class="st5" d="M517.3,198c3.7,9.4,14.2,13.7,23.6,10l54-22.5c-2-5.7-4.3-11.4-6.3-16.8L517.3,198z"/>
<path class="st5" d="M179.9,174.4L125,151.7c-0.6-0.3-0.9-0.3-1.7-0.6c-2.6,5.4-5.4,10.8-7.7,16.2l73.7,30.7
	C193.3,188.9,189,178.4,179.9,174.4z"/>
<path class="st4" d="M166,208c9.4,3.7,19.9-0.6,23.6-10l-73.7-30.7c-2.3,5.4-4.6,11.1-6.3,16.8c0.6,0.3,0.9,0.6,1.7,0.9L166,208z"/>
<path class="st2" d="M517.3,333.7l71.7,29.6c2.3-5.4,4.6-11.1,6.3-16.8l-54.6-22.8C531.8,320,521.2,324.6,517.3,333.7z"/>
<path class="st5" d="M526.9,357.3l54.6,22.8c2.6-5.4,5.1-10.8,7.4-16.5L517.3,334C513.6,343.1,518.1,353.6,526.9,357.3z"/>
<path class="st5" d="M261,439.2l-22.8,54.9c-0.3,0.6-0.6,1.1-0.6,2c5.4,2.6,10.8,5.1,16.2,7.4l30.7-74
	C275.8,425.6,265,429.8,261,439.2z"/>
<path class="st4" d="M294.5,453.2c3.7-9.4-0.6-19.9-10-23.6l-30.7,74c5.4,2.3,11.1,4.6,16.8,6.3c0.3-0.6,0.6-1.1,0.9-2L294.5,453.2z
	"/>
<path class="st2" d="M410.6,78c-3.7,9.4,0.6,19.9,10,23.6l29.6-71.4c-5.4-2.3-11.1-4.6-16.8-6.3L410.6,78z"/>
<path class="st5" d="M420.6,101.6c9.4,3.7,19.9-0.6,23.6-10l22.5-54.3c-5.4-2.6-10.8-5.1-16.5-7.7L420.6,101.6z"/>
<g>
	<path class="st2" d="M325.6,321.2c-1.1,0.3-1.9,1-1.7,1.9c0.1,0.8,1.1,1.3,2.3,1c1.1-0.3,1.9-1,1.7-1.7
		C327.7,321.6,326.7,321,325.6,321.2z"/>
	<path class="st2" d="M318.4,322.2c-1.1,0-2,0.6-2,1.4c0,0.9,0.9,1.5,2.2,1.4c1.1,0,2-0.6,2-1.4C320.6,322.7,319.6,322,318.4,322.2z
		"/>
	<path class="st2" d="M308.6,321.8L308.6,321.8c-0.3,0.8,0.5,1.6,1.6,1.9c1,0.4,2.2,0,2.4-0.8c0.2-0.8-0.5-1.6-1.6-2
		C310,320.7,308.9,321,308.6,321.8z"/>
	<path class="st3" d="M350.8,174.4c-53.1,0-93.8,40.3-93.8,93.5c0,42.5,26.8,78.8,64.9,91.6c4.9,0.9,6.6-2.2,6.6-4.6
		c0-2.4-0.1-15.5-0.1-23.5c0,0-26.8,5.8-32.4-11.4c0,0-4.4-11.1-10.7-14c0,0-8.8-6,0.6-5.9c0,0,9.5,0.8,14.8,9.9
		c8.4,14.8,22.5,10.5,27.9,8c0.9-6.1,3.4-10.4,6.1-12.9c-21.4-2.4-43-5.5-43-42.3c0-10.5,2.9-15.8,9.1-22.6c-1-2.5-4.3-12.8,1-26
		c8-2.5,26.4,10.4,26.4,10.4c7.6-2.1,15.7-3.2,23.8-3.3v-46.8C351.6,174.4,351.2,174.4,350.8,174.4z"/>
	<path class="st2" d="M294.2,306.5c-0.5,0.4-0.4,1.3,0.3,2c0.6,0.6,1.5,0.9,2,0.4c0.5-0.4,0.4-1.3-0.3-2
		C295.6,306.3,294.7,306,294.2,306.5z"/>
	<path class="st2" d="M290.1,303.4c-0.3,0.5,0.1,1.1,0.9,1.5c0.6,0.4,1.4,0.3,1.6-0.3c0.3-0.5-0.1-1.1-0.9-1.5
		C291,302.9,290.4,303,290.1,303.4z"/>
	<path class="st2" d="M298.2,311.4c-0.6,0.4-0.6,1.4,0,2.3c0.6,0.9,1.6,1.3,2.2,0.9c0.6-0.5,0.6-1.5,0-2.4
		C299.8,311.3,298.7,310.9,298.2,311.4z"/>
	<path class="st2" d="M302.5,317c-0.6,0.5-0.4,1.6,0.5,2.4c0.9,0.9,2,1,2.5,0.4c0.5-0.5,0.3-1.6-0.5-2.4
		C304.2,316.6,303,316.4,302.5,317z"/>
	<path class="st4" d="M352,174.4v46.8c0.1,0,0.2,0,0.3,0c8.2,0,16.4,1.1,24,3.3c0,0,18.4-12.9,26.4-10.4c5.2,13.3,2,23.5,1,26
		c6.1,6.8,9.9,12.1,9.9,22.6c0,37-22.6,39.9-44,42.3c3.5,3,6.5,8.8,6.5,17.8c0,12.9-0.1,28.9-0.1,32c0,2.5,1.7,5.5,6.6,4.6
		c38.3-12.7,64.3-49.1,64.3-91.5C447,215.1,404.6,175,352,174.4z"/>
</g>
</svg>
