<?xml version="1.0" encoding="utf-8"?>
<!-- Generator: Adobe Illustrator 19.0.0, SVG Export Plug-In . SVG Version: 6.00 Build 0)  -->
<svg version="1.1" id="Layer_1" xmlns="http://www.w3.org/2000/svg" xmlns:xlink="http://www.w3.org/1999/xlink" x="0px" y="0px"
	 viewBox="96 11 512 512" style="enable-background:new 96 11 512 512;" xml:space="preserve">
<style type="text/css">
	.st0{fill:#0295AA;}
	.st1{fill:#4ACFD9;}
	.st2{fill:#FD6A33;}
	.st3{fill:#F0353D;}
	.st4{fill:#FF8C29;}
	.st5{fill:#FFD1A9;}
	.st6{fill:#365558;}
	.st7{fill:#9BAAAB;}
	.st8{fill:#CDD4D5;}
	.st9{fill:#E6EAEA;}
	.st10{fill:#FFFFFF;}
	.st11{fill:#BCD643;}
	.st12{fill:none;stroke:#FFD1A9;stroke-width:15;stroke-linecap:round;stroke-linejoin:round;stroke-miterlimit:10;}
</style>
<path class="st0" d="M504.3,279.2C504.3,279.2,504.3,279.2,504.3,279.2C504.3,279.2,504.3,279.2,504.3,279.2
	C504.3,279.2,504.2,279.1,504.3,279.2c-0.2-0.1-0.2-0.1-0.2-0.1c0,0,0,0,0,0c0,0-0.1,0-0.1,0c0,0-0.1,0-0.1,0.1c0,0,0,0-0.1,0.1
	c0,0,0,0,0,0c0,0,0,0,0,0c0,0,0,0.1,0,0.1c0,0,0,0.1,0,0.1c0,0,0,0.1,0.1,0.1c0,0,0,0,0,0c0,0,0,0,0.1,0c0.1,0,0.1,0,0.1,0
	c0,0,0.1,0,0.1,0c0,0,0.1,0,0.1,0c0,0,0,0,0,0c0,0,0,0,0,0c0,0,0,0,0-0.1c0-0.1,0-0.1,0-0.1C504.4,279.4,504.4,279.4,504.3,279.2
	C504.4,279.2,504.3,279.2,504.3,279.2z"/>
<path class="st1" d="M504.3,279.2C504.3,279.2,504.3,279.2,504.3,279.2C504.3,279.2,504.3,279.2,504.3,279.2
	c-0.2-0.1-0.2-0.1-0.2-0.1c0,0,0,0,0,0c0,0-0.1,0-0.1,0c0,0-0.1,0-0.1,0.1c0,0,0,0-0.1,0.1c0,0,0,0,0,0c0,0,0,0.1,0,0.1
	c0,0,0,0.1,0,0.1c0,0,0,0.1,0.1,0.1c0,0,0,0,0.1,0.1c0.1,0,0.1,0,0.1,0c0,0,0.1,0,0.1,0c0,0,0.1,0,0.1,0c0,0,0,0,0,0c0,0,0,0,0,0
	c0,0,0,0,0-0.1c0-0.1,0-0.1,0-0.1C504.4,279.4,504.4,279.4,504.3,279.2C504.4,279.2,504.3,279.2,504.3,279.2z"/>
<path class="st2" d="M480,11c-70.7,0-128,57.3-128,128c0,0,0,50.9,0,116.2l57.1-93.3l43.2,58.6h5.1c9.7-15.9,27.2-26.1,46.6-26.1
	c30.1,0,54.7,24.5,54.7,54.7c0,30.1-24.5,54.7-54.7,54.7c-18.1,0-34.7-8.9-44.8-23.3H422l-8.3-11.2l-60.9,99.4l-0.9-1.3
	c0,66.5,0,128.6,0,155.6c71.6-39.4,116.5-79,156.8-123.8c62-68.9,99.2-149.9,99.2-260.2C608,68.3,550.7,11,480,11z"/>
<path class="st3" d="M251.2,103.8l100,152.8l0.8-1.3c0-65.4,0-116.2,0-116.2c0-70.7-57.3-128-128-128S96,68.3,96,139
	c0,29.1,2.6,56.2,7.6,81.6h81.5L251.2,103.8z"/>
<path class="st3" d="M335.2,341.7L254.9,219l-34.9,61.6h-99.3c17.1,44.3,42.5,83.1,74.4,118.7C235.5,444,280.4,483.6,352,523
	c0-27,0-89.1,0-155.6L335.2,341.7L335.2,341.7z"/>
<path class="st1" d="M504.1,214.8c-16.2,0-29.8,11.1-33.6,26.1h-28.2L410.7,198L352,293.9c0,12.2,0,24.7,0,37.2l0.4,0.5l59.9-97.8
	l19.9,27h39.2c4.7,13.6,17.6,23.3,32.8,23.3c19.2,0,34.7-15.5,34.7-34.7C538.8,230.3,523.3,214.8,504.1,214.8z M504.1,264.1
	c-8.1,0-14.7-6.6-14.7-14.7c0-8.1,6.6-14.7,14.7-14.7c8.1,0,14.7,6.6,14.7,14.7C518.8,257.5,512.2,264.1,504.1,264.1z"/>
<path class="st0" d="M252.5,142.4l-55.7,98.4h-91.3c1.4,6.8,3,13.5,4.7,20h98.2l45.3-80L352,331c0-12.5,0-25,0-37.2l-0.2,0.3
	L252.5,142.4z"/>
<rect x="-500" y="11" class="st3" width="128" height="128"/>
<rect x="-372" y="11" class="st2" width="128" height="128"/>
<rect x="-244" y="11" class="st4" width="128" height="128"/>
<rect x="-116" y="11" class="st5" width="128" height="128"/>
<rect x="-500" y="139" class="st6" width="128" height="128"/>
<rect x="-372" y="139" class="st0" width="128" height="128"/>
<rect x="-244" y="139" class="st1" width="128" height="128"/>
<rect x="-500" y="267" class="st7" width="128" height="128"/>
<rect x="-372" y="267" class="st8" width="128" height="128"/>
<rect x="-244" y="267" class="st9" width="128" height="128"/>
<rect x="-116" y="267" class="st10" width="128" height="128"/>
<rect x="-500" y="395" class="st11" width="128" height="128"/>
<path class="st12" d="M572,139c0-50.8-41.2-92-92-92"/>
</svg>
