<?xml version="1.0" encoding="utf-8"?>
<!-- Generator: Adobe Illustrator 19.0.0, SVG Export Plug-In . SVG Version: 6.00 Build 0)  -->
<svg version="1.1" id="Hit_Ratio" xmlns="http://www.w3.org/2000/svg" xmlns:xlink="http://www.w3.org/1999/xlink" x="0px" y="0px"
	 viewBox="96 11 512 512" style="enable-background:new 96 11 512 512;" xml:space="preserve">
<style type="text/css">
	.st0{fill:#BCD643;}
	.st1{fill:#0295AA;}
	.st2{fill:#4ACFD9;}
	.st3{fill:#E6EAEA;}
	.st4{fill:#365558;}
</style>
<g id="cake">
	<path class="st0" d="M476.5,395.7c0.6-0.6,1.2-1.2,1.7-1.8L229.4,136.7c-0.6,0.6-1.3,1.1-1.8,1.7c-71.1,68.7-72.9,182-4.2,253.1
		S405.5,464.4,476.5,395.7z"/>
	<path class="st0" d="M279.1,103.6c-89.5,39.9-130.1,144.4-91.4,234.1l326.7-145.8C473.4,103.1,368.6,63.6,279.1,103.6z"/>
</g>
<path class="st1" d="M274.6,228.4c-1.1,1-31.6,7.7-67.6,7.9c-6.4,0,0,101.5,0,101.4c39.5,0.2,64.7-2.1,64.7,1.7
	c0,7.1,16.6,13.8,37.8,19V192.2C296.2,209.4,281.7,222.4,274.6,228.4z"/>
<path class="st1" d="M337.9,114.4c-2.9,9.3-1.4,18.9-3.6,28.5c-4.1,18.1-14.3,35.2-25.3,49.5v166.2c12.4,3.1,26.3,5.7,39.4,7.6V107
	C342.7,107.5,338.7,112.6,337.9,114.4z"/>
<path class="st2" d="M391.7,369.8c23.2-1.6,29.1-6.7,31.9-18.7c2.9-12.1-11.6-21.9-11.6-21.9s23.2,4.7,27.6-15.7
	c4.3-20.3-21.8-23.5-21.8-23.5c24.5-0.1,28.8-8,28.8-23.6c0-15.6-26.1-18.7-26.1-18.7s16-1.6,17.4-18.7
	c1.4-17.2-20.3-21.3-26.1-21.3c-4.4,0-13.8,0-19.1,0c-34.9,0.1-31.6-6.9-31.6-6.9s16-62.5,2.9-82.9c-5.7-8.9-11.2-11.3-15.6-10.9
	v259.2C367,369,383.7,370.3,391.7,369.8z"/>
<g>
	<g>
		<path class="st1" d="M428.8,212.3c2.8,1.6,5.2,4,7.1,6.7c1.8,2.7,3.4,5.9,3.5,9.7c0,1.8-0.4,3.7-1,5.3c-0.7,1.6-1.5,3.1-2.4,4.5
			c-2,2.7-4.4,5-7.2,6.5c1.4-3,2.7-5.7,3.8-8.4c0.5-1.3,1-2.7,1.3-4c0.1-0.3,0.1-0.7,0.2-1s0.1-0.7,0.1-1l0.1-0.4v-0.4
			c0-0.3,0.1-0.6,0-1c-0.1-2.4-0.9-5.2-2-7.9C431.4,218,430.1,215.2,428.8,212.3z"/>
	</g>
	<g>
		<path class="st1" d="M436.9,252.6c1.7,0.5,3.2,1.4,4.6,2.6c1.4,1.1,2.5,2.5,3.5,4.1s1.7,3.3,2.1,5.1c0.2,0.9,0.4,1.8,0.4,2.7
			c0.1,0.4,0.1,0.9,0.1,1.4c0,0.4,0,0.9,0,1.3l-0.1,1.3c0,0.4-0.1,0.9-0.1,1.3c-0.1,0.9-0.2,1.8-0.5,2.7c-0.4,1.8-1.1,3.5-2.1,5.1
			s-2.1,3-3.5,4.1c-1.3,1.1-2.9,2.1-4.6,2.6c2.1-2.7,3.5-5.5,4.4-8.4c0.4-1.4,0.8-2.9,1-4.3c0.1-0.7,0.1-1.5,0.2-2.2
			c0-0.4,0.1-0.7,0.1-1.1s0-0.8,0-1.2c0.1-0.8,0.1-1.5,0-2.2c0-0.7-0.1-1.5-0.1-2.1c-0.2-1.4-0.5-2.9-1-4.3
			C440.4,258,439,255.3,436.9,252.6z"/>
	</g>
	<g>
		<path class="st1" d="M432.4,295.1c2.7,1.8,4.9,4.4,6.7,7.2c0.9,1.4,1.6,3,2.1,4.6s0.8,3.5,0.7,5.3c-0.1,1-0.2,1.9-0.4,2.8
			c-0.3,0.9-0.6,1.8-1,2.5c-0.8,1.6-1.8,3-3,4.2c-2.3,2.4-5,4.4-8.1,5.5c1.8-2.7,3.5-5.2,5-7.8s2.5-5.1,2.6-7.5s-0.6-5.2-1.5-8.1
			C434.6,301,433.5,298.2,432.4,295.1z"/>
	</g>
	<g>
		<path class="st1" d="M419.6,335.8c1.3,0.7,2.4,1.8,3.3,2.9c1,1.1,1.7,2.4,2.3,3.8c0.6,1.4,1,2.8,1.2,4.4c0.1,0.7,0.1,1.5,0.1,2.3
			s-0.1,1.7-0.2,2.4c-0.7,3.2-2.4,5.8-4.3,8c-1,1.1-2.1,2-3.2,2.9c-1.2,0.8-2.4,1.6-3.7,2.1c1.4-2.4,2.8-4.7,4-7s2.1-4.6,2.4-6.7
			c0.1-0.5,0.1-1,0.1-1.6s0-1.2-0.1-1.8c-0.1-1.2-0.2-2.4-0.4-3.6C420.9,341.2,420.3,338.7,419.6,335.8z"/>
	</g>
</g>
<path class="st3" d="M259,373.1h-32.8V220.6h32.7c3,0,5.3,2.4,5.3,5.3v141.9C264.3,370.8,262,373.1,259,373.1z"/>
<path class="st4" d="M230,220.6c-11.9,0-31.4,0-50.8,0c-4,14.8-6.2,30.4-6.2,46.4c0,39.7,13,76.4,34.9,106.1h22
	c2.9,0,5.3-2.4,5.4-5.3V225.9C235.3,223,232.9,220.6,230,220.6z"/>
<g>
	<ellipse class="st2" cx="210.8" cy="281" rx="12.1" ry="12.1"/>
	<ellipse class="st2" cx="210" cy="245.1" rx="12.1" ry="12.1"/>
</g>
<g id="ring_2_">
	<path id="right_1_" class="st2" d="M352,11c-1,0-2,0-3,0v40c1,0,2,0,3,0c119.3,0,216,96.7,216,216s-96.7,216-216,216c-1,0-2,0-3,0
		v40c1,0,2,0,3,0c141.4,0,256-114.6,256-256S493.4,11,352,11z"/>
	<path id="left_1_" class="st1" d="M136,267c0-118.3,95.1-214.4,213-216V11C209,12.6,96,126.6,96,267s113,254.4,253,256v-40
		C231.1,481.4,136,385.3,136,267z"/>
</g>
</svg>
