<?xml version="1.0" encoding="utf-8"?>
<!-- Generator: Adobe Illustrator 19.0.0, SVG Export Plug-In . SVG Version: 6.00 Build 0)  -->
<svg version="1.1" id="Hit_Fail" xmlns="http://www.w3.org/2000/svg" xmlns:xlink="http://www.w3.org/1999/xlink" x="0px" y="0px"
	 viewBox="96 11 512 512" style="enable-background:new 96 11 512 512;" xml:space="preserve">
<style type="text/css">
	.st0{fill:#E6EAEA;}
	.st1{fill:#4ACFD9;}
	.st2{fill:#FFFFFF;}
	.st3{fill:#FD6A33;}
	.st4{fill:#FF8C29;}
	.st5{fill:#365558;}
	.st6{fill:#0295AA;}
	.st7{fill:#F0353D;}
	.st8{fill:#FFD1A9;}
	.st9{fill:#9BAAAB;}
	.st10{fill:#CDD4D5;}
	.st11{fill:#BCD643;}
</style>
<g>
	<path class="st0" d="M347.6,96.5H104.8c-4.6,0-8.4,3.8-8.4,8.4v395.7c0,4.6,3.8,8.4,8.4,8.4h242.8c4.6,0,8.4-3.8,8.4-8.4V104.9
		C356,100.3,352.2,96.5,347.6,96.5z"/>
	<path class="st1" d="M347.6,96.5H104.8c-4.6,0-8.4,3.8-8.4,8.4v71.4H356v-71.4C356,100.3,352.2,96.5,347.6,96.5z"/>
	<path class="st2" d="M131.8,149.3c-4.6,0-8.4-3.8-8.4-8.4v-9c0-4.6,3.8-8.4,8.4-8.4c4.6,0,8.4,3.8,8.4,8.4v9
		C140.2,145.6,136.4,149.3,131.8,149.3z"/>
</g>
<g>
	<path class="st0" d="M356.4,25.6h242.1c4.6,0,8.4,3.8,8.4,8.4v394.6c0,4.6-3.8,8.4-8.4,8.4H356.4c-4.6,0-8.4-3.8-8.4-8.4V34
		C348,29.4,351.8,25.6,356.4,25.6z"/>
	<path class="st1" d="M356.4,25.6h242.1c4.6,0,8.4,3.8,8.4,8.4v71.2H348V34C348,29.4,351.8,25.6,356.4,25.6z"/>
	<path class="st2" d="M580.2,78.2c-4.6,0-8.4-3.8-8.4-8.4v-9c0-4.6,3.8-8.4,8.4-8.4s8.4,3.8,8.4,8.4v9
		C588.6,74.5,584.8,78.2,580.2,78.2z"/>
</g>
<path class="st3" d="M427.3,269.8c-0.8-0.7-23.8-5.8-51-6c-4.8,0,0-76.4,0-76.3c29.8-0.2,48.8,1.6,48.8-1.3
	c0-5.3,12.5-10.4,28.4-14.3v125.2C443.6,284.2,432.7,274.3,427.3,269.8z"/>
<path class="st4" d="M557.3,241.2c0,11.7-19.6,14.1-19.6,14.1s12.1,1.2,13.1,14.1c1,13-15.3,16-19.6,16c-3.4,0-10.4,0-14.5,0
	c-26.3-0.1-23.8,5.1-23.8,5.1s12.1,47.1,2.2,62.4c-9.9,15.2-18.6,5-19.6,2.6c-2.2-7-1-14.2-2.7-21.4c-3.1-13.6-10.7-26.5-19.1-37.2
	V171.8c22.7-5.7,52-9.1,62.3-8.4c17.5,1.2,21.9,5,24,14.1c2.2,9.1-8.7,16.5-8.7,16.5s17.5-3.5,20.8,11.9s-16.5,17.7-16.5,17.7
	C554.1,223.6,557.3,229.5,557.3,241.2z"/>
<g>
	<g>
		<path class="st4" d="M543.5,282c0.9-2.3,2-4.3,2.8-6.4s1.5-4.1,1.5-6c0.1-0.2,0-0.4,0-0.7v-0.3l-0.1-0.3c-0.1-0.2-0.1-0.5-0.1-0.7
			c-0.1-0.2-0.1-0.5-0.2-0.7c-0.3-1-0.6-2-1-3c-0.8-2.1-1.9-4.1-2.9-6.4c2.2,1.2,4,2.9,5.5,4.9c0.7,1,1.4,2.2,1.9,3.4
			c0.4,1.3,0.7,2.6,0.7,4c-0.1,2.8-1.3,5.2-2.6,7.3C547.4,279,545.7,280.7,543.5,282z"/>
	</g>
	<g>
		<path class="st4" d="M549.6,251.7c1.6-2.1,2.6-4.1,3.4-6.3c0.3-1,0.6-2.1,0.7-3.3c0.1-0.5,0.1-1,0.1-1.6s0-1,0-1.7
			c0-0.3,0-0.6,0-0.8c0-0.3,0-0.5-0.1-0.8c-0.1-0.5-0.1-1.2-0.2-1.7c-0.2-1.2-0.4-2.2-0.7-3.3c-0.7-2.2-1.8-4.2-3.4-6.4
			c1.3,0.4,2.4,1.2,3.5,2c1,0.8,1.9,2,2.6,3.1c0.7,1.2,1.3,2.4,1.6,3.9c0.2,0.6,0.3,1.4,0.4,2.1c0,0.3,0.1,0.7,0.1,1l0.1,0.9
			c0,0.3,0,0.6,0,1c0,0.3,0,0.6-0.1,1c-0.1,0.6-0.2,1.4-0.3,2.1c-0.3,1.4-0.8,2.6-1.6,3.9c-0.7,1.2-1.6,2.2-2.6,3
			C552,250.5,550.8,251.3,549.6,251.7z"/>
	</g>
	<g>
		<path class="st4" d="M546.2,219.6c0.8-2.3,1.7-4.4,2.3-6.6c0.6-2.1,1.2-4.2,1.2-6.1c-0.1-1.8-0.8-3.8-2-5.7c-1-2-2.4-3.9-3.8-5.9
			c2.3,0.8,4.3,2.3,6.1,4.1c0.8,0.9,1.6,2,2.2,3.1c0.3,0.6,0.5,1.3,0.7,1.9c0.2,0.6,0.3,1.4,0.3,2.1c0.1,1.5-0.2,2.8-0.5,4
			c-0.3,1.2-0.9,2.4-1.6,3.5C549.9,216.4,548.3,218.2,546.2,219.6z"/>
	</g>
	<g>
		<path class="st4" d="M536.6,188.9c0.5-2.2,0.9-4,1.3-5.9c0.1-0.9,0.2-1.9,0.3-2.7c0.1-0.4,0.1-0.8,0.1-1.4c0-0.4,0-0.7-0.1-1.2
			c-0.2-1.6-0.9-3.4-1.9-5c-0.8-1.7-2-3.5-3-5.2c1,0.4,2,0.9,2.8,1.6c0.8,0.6,1.7,1.4,2.4,2.2c1.5,1.6,2.7,3.6,3.3,6
			c0.1,0.6,0.2,1.3,0.2,1.9c-0.1,0.5-0.1,1.2-0.1,1.7c-0.2,1.2-0.4,2.2-0.8,3.3c-0.4,1-1,2-1.7,2.8
			C538.3,187.6,537.5,188.4,536.6,188.9z"/>
	</g>
</g>
<path class="st2" d="M415.5,179.1h-58.6L354,294h61.6c2.2,0,4-1.8,4-4V183.2C419.6,181,417.8,179.1,415.5,179.1z"/>
<path class="st5" d="M393.6,179.1H349V294c0,0,21.8,0,44.7,0c2.2,0,4-1.8,4-4V183.2C397.6,181,395.8,179.1,393.6,179.1z"/>
<g>
	<ellipse class="st4" cx="379.3" cy="248.7" rx="9.1" ry="9.1"/>
	<ellipse class="st4" cx="378.6" cy="275.6" rx="9.1" ry="9.1"/>
</g>
<path class="st6" d="M259.7,315.7c0.8,0.7,23.9,5.8,51.1,6c4.8,0,0,76.7,0,76.5c-29.9,0.2-48.9-1.6-48.9,1.3
	c0,5.4-12.5,10.4-28.5,14.3V288.4C243.4,301.3,254.4,311.2,259.7,315.7z"/>
<path class="st1" d="M129.4,344.4c0-11.8,19.7-14.1,19.7-14.1s-12.1-1.2-13.1-14.1c-1.1-12.9,15.4-16.1,19.7-16.1
	c3.4,0,10.4,0,14.5,0c26.4,0.1,23.9-5.2,23.9-5.2s-12.1-47.2-2.2-62.6c9.9-15.2,18.6-5,19.7-2.6c2.2,7,1.1,14.2,2.7,21.5
	c3.2,13.7,10.7,26.6,19.1,37.3v125.5c-22.7,5.7-52.2,9.1-62.5,8.4c-17.3-1.4-21.8-5.3-23.9-14.3c-2.2-9.1,8.7-16.5,8.7-16.5
	s-17.6,3.5-20.8-11.9c-3.3-15.4,16.5-17.8,16.5-17.8C132.6,362.2,129.4,356.2,129.4,344.4z"/>
<g>
	<g>
		<path class="st1" d="M143.5,303.5c-2.1,1.3-3.9,3-5.4,5c-1.4,2.1-2.5,4.4-2.6,7.4c0,1.4,0.3,2.8,0.7,4c0.5,1.3,1.2,2.3,1.9,3.4
			c1.5,2,3.3,3.8,5.5,4.9c-1.1-2.2-2.1-4.3-2.9-6.4c-0.4-1.1-0.7-2.1-1.1-3c-0.1-0.2-0.1-0.5-0.2-0.7c-0.1-0.2-0.1-0.5-0.1-0.7
			l-0.1-0.3v-0.2c0-0.2-0.1-0.4,0-0.7c0.1-1.9,0.6-3.9,1.5-6C141.5,308,142.6,305.7,143.5,303.5z"/>
	</g>
	<g>
		<path class="st1" d="M137.4,334c-1.3,0.4-2.4,1.1-3.5,2c-1.1,0.8-1.9,1.9-2.6,3s-1.3,2.4-1.6,3.9c-0.2,0.6-0.3,1.4-0.3,2.1
			c-0.1,0.3-0.1,0.6-0.1,1.1c0,0.3,0,0.6,0,1.1l0.1,0.9c0,0.3,0.1,0.6,0.1,1.1c0.1,0.6,0.2,1.4,0.4,2.1c0.3,1.4,0.8,2.6,1.6,3.9
			c0.7,1.2,1.6,2.2,2.6,3.2c1.1,0.8,2.2,1.6,3.5,2c-1.6-2.1-2.6-4.2-3.4-6.4c-0.3-1.1-0.6-2.2-0.7-3.3c-0.1-0.5-0.1-1.2-0.2-1.7
			c0-0.3-0.1-0.5-0.1-0.8c0-0.3,0-0.6,0-0.8c-0.1-0.6-0.1-1.2,0-1.7c0-0.5,0.1-1.2,0.1-1.6c0.2-1.1,0.4-2.2,0.7-3.3
			C134.8,338.1,135.9,336,137.4,334z"/>
	</g>
	<g>
		<path class="st1" d="M140.9,366.1c-2.1,1.4-3.7,3.3-5,5.5c-0.6,1.1-1.2,2.2-1.6,3.5c-0.4,1.3-0.6,2.6-0.5,4
			c0.1,0.7,0.2,1.5,0.3,2.1c0.2,0.6,0.4,1.4,0.7,1.9c0.6,1.2,1.4,2.2,2.2,3.2c1.7,1.9,3.8,3.3,6.1,4.1c-1.4-2.1-2.6-4-3.8-5.9
			c-1.1-1.9-1.9-3.9-2-5.7c-0.1-1.9,0.4-4,1.2-6.1C139.2,370.5,140.1,368.4,140.9,366.1z"/>
	</g>
	<g>
		<path class="st1" d="M150.5,396.8c-1.1,0.5-1.8,1.4-2.5,2.2c-0.7,0.8-1.3,1.9-1.7,2.8c-0.4,1.1-0.7,2.1-0.8,3.3
			c-0.1,0.5-0.1,1.2-0.1,1.7c0,0.6,0.1,1.3,0.2,1.9c0.5,2.4,1.8,4.4,3.3,6c0.7,0.8,1.6,1.5,2.4,2.2c0.8,0.6,1.8,1.2,2.8,1.6
			c-1.1-1.9-2.1-3.6-3-5.3c-0.8-1.7-1.6-3.5-1.9-5c-0.1-0.4-0.1-0.7-0.1-1.2c0-0.4,0-0.8,0.1-1.4c0.1-0.8,0.2-1.9,0.3-2.7
			C149.5,400.9,150.1,399,150.5,396.8z"/>
	</g>
</g>
<path class="st2" d="M279.8,425.1h58.8l2.9-115.1h-61.7c-2.2,0-4,1.8-4,4v107.1C275.7,423.3,277.5,425.1,279.8,425.1z"/>
<path class="st5" d="M301.7,425.1h44.8V309.8c0,0-22,0-44.9,0c-2.2,0-4,1.8-4,4V421C297.7,423.3,299.5,425.1,301.7,425.1z"/>
<g>
	<ellipse class="st1" cx="316.1" cy="355.4" rx="9.1" ry="9.1"/>
	<ellipse class="st1" cx="316.8" cy="328.4" rx="9.1" ry="9.1"/>
</g>
<path class="st5" d="M348,523c-4.4,0-8-3.6-8-8V19c0-4.4,3.6-8,8-8s8,3.6,8,8v496C356,519.4,352.4,523,348,523z"/>
<rect x="-552.5" y="49.1" class="st7" width="128" height="128"/>
<rect x="-424.5" y="49.1" class="st3" width="128" height="128"/>
<rect x="-296.5" y="49.1" class="st4" width="128" height="128"/>
<rect x="-168.5" y="49.1" class="st8" width="128" height="128"/>
<rect x="-552.5" y="177.1" class="st5" width="128" height="128"/>
<rect x="-424.5" y="177.1" class="st6" width="128" height="128"/>
<rect x="-296.5" y="177.1" class="st1" width="128" height="128"/>
<rect x="-552.5" y="305.1" class="st9" width="128" height="128"/>
<rect x="-424.5" y="305.1" class="st10" width="128" height="128"/>
<rect x="-296.5" y="305.1" class="st0" width="128" height="128"/>
<rect x="-168.5" y="305.1" class="st2" width="128" height="128"/>
<rect x="-552.5" y="433.1" class="st11" width="128" height="128"/>
</svg>
