<svg width="512" height="512" viewBox="0 0 512 512" fill="none" xmlns="http://www.w3.org/2000/svg">
<path fill-rule="evenodd" clip-rule="evenodd" d="M315.541 42.4C315.541 56.7594 303.9 68.4 289.541 68.4H91C76.6406 68.4 65 80.0406 65 94.4V142H256.98C264.712 142 270.98 135.732 270.98 128V112C270.98 91.0132 287.993 74 308.98 74H453C473.987 74 491 91.0132 491 112V142H492V341.304C503.467 338.596 512 328.294 512 316V26C512 11.6406 500.359 0 486 0H341.541C327.181 0 315.541 11.6406 315.541 26V42.4ZM479 142V112C479 97.6406 467.359 86 453 86H308.98C294.621 86 282.98 97.6406 282.98 112V128C282.98 133.155 281.48 137.959 278.893 142H479Z" fill="#E6EAEA"/>
<path fill-rule="evenodd" clip-rule="evenodd" d="M289.541 69.3999C303.9 69.3999 315.541 57.7593 315.541 43.3999V27C315.541 12.6406 327.182 1 341.541 1H486C500.359 1 512 12.6406 512 27V317C512 329.294 503.467 339.596 492 342.304V143H491V113C491 92.0132 473.986 75 453 75H308.98C301.65 75 294.805 77.0752 289 80.6704V69.3999H289.541ZM289 143H479V113C479 98.6406 467.359 87 453 87H308.98C300.949 87 293.77 90.6411 289 96.3623V143Z" fill="#CDD4D5"/>
<path fill-rule="evenodd" clip-rule="evenodd" d="M256.98 154C271.34 154 282.98 142.359 282.98 128V112C282.98 97.6406 294.621 86 308.98 86H453C467.359 86 479 97.6406 479 112V400C479 412.294 470.467 422.596 459 425.304V196C459 175.013 441.987 158 421 158H276.541C255.554 158 238.541 175.013 238.541 196V212.4C238.541 220.132 232.273 226.4 224.541 226.4H33V180C33 165.641 44.6406 154 59 154H256.98ZM447 426H59C44.6406 426 33 414.359 33 400V238.4H224.541C238.9 238.4 250.541 226.759 250.541 212.4V196C250.541 181.641 262.181 170 276.541 170H421C435.359 170 447 181.641 447 196V426Z" fill="#FD6A33"/>
<path fill-rule="evenodd" clip-rule="evenodd" d="M256 154V163.403C261.71 159.972 268.395 158 275.541 158H420C440.987 158 458 175.013 458 196V425.304C469.467 422.596 478 412.294 478 400V112C478 97.6406 466.359 86 452 86H307.98C293.621 86 281.98 97.6406 281.98 112V128C281.98 142.353 270.35 153.989 256 154ZM256 426H446V196C446 181.641 434.359 170 420 170H275.541C267.753 170 260.765 173.424 256 178.848V426Z" fill="#F0353D"/>
<path d="M315.725 128.793H312.332L311.066 136H307.85L309.115 128.793H305.125V125.77H309.643L310.521 120.777H306.443V117.719H311.066L312.35 110.406H315.549L314.266 117.719H317.676L318.959 110.406H322.176L320.893 117.719H324.742V120.777H320.348L319.469 125.77H323.406V128.793H318.941L317.676 136H314.459L315.725 128.793ZM312.859 125.77H316.252L317.131 120.777H313.721L312.859 125.77ZM336.889 119.23L341.688 110.406H347.752L340.299 123.098L347.945 136H341.811L336.889 127.035L331.967 136H325.832L333.479 123.098L326.025 110.406H332.09L336.889 119.23ZM359.441 121.938L364.768 110.406H370.533L362.131 126.719V136H356.77V126.719L348.367 110.406H354.15L359.441 121.938ZM378.461 131.764H391.363V136H371.869V132.906L384.525 114.678H371.887V110.406H391.082V113.43L378.461 131.764Z" fill="#E6EAEA"/>
<path d="M409 127.745L423.187 142C435.448 124.684 444.196 116.325 462 103" stroke="#BCD643" stroke-width="9"/>
<path d="M250.541 212.4C250.541 226.759 238.9 238.4 224.541 238.4H26C11.6406 238.4 0 250.041 0 264.4V486C0 500.359 11.6406 512 26 512H421C435.359 512 447 500.359 447 486V196C447 181.641 435.359 170 421 170H276.541C262.181 170 250.541 181.641 250.541 196V212.4Z" fill="#9BAAAB"/>
<path fill-rule="evenodd" clip-rule="evenodd" d="M224 512V238.4H26C11.6406 238.4 0 250.041 0 264.4V486C0 500.36 11.6406 512 26 512H224Z" fill="#CDD4D5"/>
</svg>
