<?xml version="1.0" encoding="utf-8"?>
<!-- Generator: Adobe Illustrator 19.0.0, SVG Export Plug-In . SVG Version: 6.00 Build 0)  -->
<svg version="1.1" id="Layer_1" xmlns="http://www.w3.org/2000/svg" xmlns:xlink="http://www.w3.org/1999/xlink" x="0px" y="0px"
	 viewBox="96 11 512 512" style="enable-background:new 96 11 512 512;" xml:space="preserve">
<style type="text/css">
	.st0{fill:#0295AA;}
	.st1{fill:#365558;}
	.st2{fill:#9BAAAB;}
	.st3{fill:#FFFFFF;}
	.st4{fill:#4ACFD9;}
	.st5{fill:#CDD4D5;}
	.st6{fill:#FFD1A9;}
	.st7{fill:#FD6A33;}
	.st8{fill:#E6EAEA;}
	.st9{fill:#F0353D;}
	.st10{fill:#FF8C29;}
	.st11{fill:#BCD643;}
	.st12{fill:none;stroke:#FD6A33;stroke-width:20;stroke-miterlimit:10;}
	.st13{fill:none;stroke:#FF8C29;stroke-width:20;stroke-miterlimit:10;}
</style>
<g>
	<path class="st0" d="M453.4,11.4c-85.2,0-154.6,69.4-154.6,154.6s69.4,154.6,154.6,154.6S608,251.3,608,166S538.6,11.4,453.4,11.4z
		"/>
	<path class="st1" d="M298.8,166c0,85.2,69.4,154.6,154.6,154.6V11.4C368.2,11.4,298.8,80.8,298.8,166z"/>
	<path class="st2" d="M453.4,61.5c-57.7,0-104.5,46.9-104.5,104.5s46.9,104.5,104.5,104.5S557.9,223.6,557.9,166
		S511.1,61.5,453.4,61.5z"/>
	<path class="st1" d="M348.9,166c0,57.7,46.9,104.5,104.5,104.5v-209C395.7,61.5,348.9,108.5,348.9,166z"/>
	<path class="st3" d="M488,199.7c-9.1,9.5-21.5,14.7-34.6,14.7c-5.1,0-9.3,4.2-9.3,9.3c0,5.1,4.2,9.3,9.3,9.3
		c18.2,0,35.4-7.2,48.1-20.3c3.6-3.7,3.5-9.7-0.2-13.3C497.5,195.8,491.6,195.9,488,199.7z"/>
	<path class="st3" d="M453.3,99c-5.1,0-9.3,4.2-9.3,9.3c0,5.1,4.2,9.3,9.3,9.3c26.6,0,48.2,21.6,48.2,48.2c0,4.3-0.6,8.5-1.6,12.6
		c-1.3,5,1.6,10.2,6.7,11.6c0.8,0.2,1.6,0.4,2.5,0.4c4.2,0,7.9-2.7,9-6.9c1.5-5.7,2.3-11.6,2.3-17.5C520.3,129,490.2,99,453.3,99z"
		/>
	<circle class="st4" cx="453.4" cy="164.2" r="117.5"/>
	<path class="st0" d="M335.9,164.2c0,64.9,52.6,117.5,117.5,117.5v-235C388.5,46.7,335.9,99.3,335.9,164.2z"/>
	<path class="st5" d="M453.4,281.7c41.5,0,78-21.6,98.9-54.1L533,209.1c-1.8-1.7-4.5-1.7-6.3,0l-57.4,54L394,158.3
		c-0.9-1.2-2.3-1.9-3.7-1.9c0,0,0,0,0,0c-1.5,0-2.9,0.7-3.7,1.9l-39.4,56C365.9,254.1,406.4,281.7,453.4,281.7z"/>
	<path class="st6" d="M498,124.6c-21.4,0-38.9,17.4-38.9,38.9c0,21.4,17.4,38.9,38.9,38.9c21.4,0,38.9-17.4,38.9-38.9
		S519.4,124.6,498,124.6z"/>
	<path class="st3" d="M412.4,107.4c-5.9,0-11.2,2.6-14.7,6.8c-3.5-4.2-8.8-6.8-14.7-6.8c-10.6,0-19.3,8.7-19.3,19.3
		c0,2.5,2.1,4.6,4.6,4.6c2.5,0,4.6-2.1,4.6-4.6c0-5.6,4.5-10.1,10.1-10.1s10.1,4.5,10.1,10.1c0,2.5,2.1,4.6,4.6,4.6
		c2.5,0,4.6-2.1,4.6-4.6c0-5.6,4.5-10.1,10.1-10.1c5.6,0,10.1,4.5,10.1,10.1c0,2.5,2.1,4.6,4.6,4.6c2.5,0,4.6-2.1,4.6-4.6
		C431.7,116.1,423.1,107.4,412.4,107.4z"/>
	<path class="st2" d="M394,158.3c-0.9-1.2-2.3-1.9-3.7-1.9c0,0,0,0,0,0c-1.5,0-2.9,0.7-3.7,1.9l-39.4,56
		c18.8,39.8,59.3,67.4,106.3,67.4v-40.8L394,158.3z"/>
	<path class="st7" d="M443.3,281.3c3.3,0.3,6.7,0.4,10.1,0.4v-0.4H443.3z"/>
	<path class="st5" d="M390.3,156.4C390.3,156.4,390.2,156.4,390.3,156.4c-1.5,0-2.9,0.7-3.8,1.9l-27.7,39.4h63.6L394,158.3
		C393.1,157.1,391.7,156.4,390.3,156.4z"/>
	<path class="st8" d="M533,209.1c-1.8-1.7-4.5-1.7-6.3,0l-34.8,32.7h49.8c3.9-4.4,7.5-9.2,10.7-14.2L533,209.1z"/>
</g>
<rect x="796" y="55.1" class="st9" width="128" height="128"/>
<rect x="924" y="55.1" class="st7" width="128" height="128"/>
<rect x="1052" y="55.1" class="st10" width="128" height="128"/>
<rect x="1180" y="55.1" class="st6" width="128" height="128"/>
<rect x="796" y="183.1" class="st1" width="128" height="128"/>
<rect x="924" y="183.1" class="st0" width="128" height="128"/>
<rect x="1052" y="183.1" class="st4" width="128" height="128"/>
<rect x="796" y="311.1" class="st2" width="128" height="128"/>
<rect x="924" y="311.1" class="st5" width="128" height="128"/>
<rect x="1052" y="311.1" class="st8" width="128" height="128"/>
<rect x="1180" y="311.1" class="st3" width="128" height="128"/>
<rect x="796" y="439.1" class="st11" width="128" height="128"/>
<g>
	<g>
		<line class="st12" x1="249.5" y1="166" x2="127.5" y2="166"/>
		<g>
			<polygon class="st7" points="244.6,202.5 244.6,129.6 281,166 			"/>
		</g>
		<g>
			<polygon class="st7" points="132.4,202.5 132.4,129.6 96,166 			"/>
		</g>
	</g>
</g>
<g>
	<g>
		<line class="st13" x1="453.4" y1="371.5" x2="453.4" y2="491.5"/>
		<g>
			<polygon class="st10" points="489.8,376.4 417,376.4 453.4,340 			"/>
		</g>
		<g>
			<polygon class="st10" points="489.8,486.6 417,486.6 453.4,523 			"/>
		</g>
	</g>
</g>
</svg>
