<?xml version="1.0" encoding="utf-8"?>
<!-- Generator: Adobe Illustrator 19.0.0, SVG Export Plug-In . SVG Version: 6.00 Build 0)  -->
<svg version="1.1" id="Layer_1" xmlns="http://www.w3.org/2000/svg" xmlns:xlink="http://www.w3.org/1999/xlink" x="0px" y="0px"
	 viewBox="96 11 512 512" style="enable-background:new 96 11 512 512;" xml:space="preserve">
<style type="text/css">
	.st0{fill:#9BAAAB;}
	.st1{fill:#4ACFD9;}
	.st2{fill:#0295AA;}
	.st3{fill:#FFD1A9;}
	.st4{fill:#FF8C29;}
	.st5{fill:#F0353D;}
</style>
<rect x="177.9" y="131.1" class="st0" width="20" height="261.8"/>
<rect x="146" y="161.8" class="st1" width="83.1" height="199.7"/>
<rect x="146" y="161.8" class="st2" width="41.6" height="199.7"/>
<rect x="341.3" y="255.8" class="st0" width="20" height="261.8"/>
<rect x="310.1" y="286.6" class="st3" width="83.1" height="199.7"/>
<rect x="310.1" y="286.6" class="st4" width="41.6" height="199.7"/>
<rect x="506.1" y="201.2" class="st0" width="20" height="261.8"/>
<rect x="474.9" y="232" class="st1" width="83.1" height="199.7"/>
<rect x="474.9" y="232" class="st2" width="41.6" height="199.7"/>
<path class="st5" d="M352,232l53.7-93H298.3L352,232z"/>
<path class="st5" d="M370.4,111.2c-3.1,3.9-7,5.8-11.6,5.8c-4.6,0-8.3-1.2-11-3.7c-2.6-2.5-3.9-5.7-3.9-9.7c0-1.4,0.8-7.3,2.5-17.6
	l5.1-29h-6.5l0.3-2.9h6.6c7.6,0,13.2-0.3,16.9-1l2.2-0.5l-10.7,61.2c3.1-0.3,5.7-1.8,7.7-4.5L370.4,111.2z M356.8,37.1
	c-2.2-2.3-3.2-5-3.2-8.3c0-3.2,1.1-6,3.2-8.3c2.2-2.4,4.8-3.6,7.9-3.6s5.7,1.2,7.9,3.6c2.3,2.3,3.4,5,3.4,8.3c0,3.2-1.1,6-3.4,8.3
	c-2.2,2.3-4.8,3.4-7.9,3.4S359,39.3,356.8,37.1z"/>
</svg>
