<?xml version="1.0" encoding="iso-8859-1"?>
<!-- Generator: Adobe Illustrator 19.0.0, SVG Export Plug-In . SVG Version: 6.00 Build 0)  -->
<svg version="1.1" id="Layer_1" xmlns="http://www.w3.org/2000/svg" xmlns:xlink="http://www.w3.org/1999/xlink" x="0px" y="0px"
	 viewBox="0 0 512 512" style="enable-background:new 0 0 512 512;" xml:space="preserve">
<path style="fill:#E6EAEA;" d="M503.983,55.582H67.875C30.449,55.582,0,86.031,0,123.457v260.81c0,0.393,0.028,0.78,0.083,1.159
	C0.027,386.536,0,387.553,0,388.543c0,37.426,30.449,67.875,67.875,67.875h436.109c4.428,0,8.017-3.589,8.017-8.017V63.599
	C512,59.172,508.412,55.582,503.983,55.582z"/>
<path style="fill:#CDD4D5;" d="M503.983,55.582h-212.9v400.835h212.9c4.428,0,8.017-3.589,8.017-8.017V63.599
	C512,59.172,508.412,55.582,503.983,55.582z"/>
<path style="fill:#9BAAAB;" d="M135.749,123.457c0-37.426-30.449-67.875-67.875-67.875S0,86.031,0,123.457v260.81
	c0,0.393,0.028,0.78,0.083,1.159C0.027,386.538,0,387.553,0,388.543c0,37.426,30.449,67.875,67.875,67.875
	s67.875-30.448,67.875-67.875c0-0.99-0.027-2.005-0.083-3.117c0.055-0.378,0.083-0.765,0.083-1.159V123.457z"/>
<path style="fill:#CDD4D5;" d="M67.875,320.668C30.449,320.668,0,351.117,0,388.543s30.449,67.875,67.875,67.875
	s67.875-30.448,67.875-67.875S105.301,320.668,67.875,320.668z"/>
<path style="fill:#9BAAAB;" d="M67.875,354.873c-18.566,0-33.67,15.105-33.67,33.67c0,18.566,15.105,33.67,33.67,33.67
	s33.67-15.105,33.67-33.67C101.545,369.977,86.44,354.873,67.875,354.873z"/>
<path style="fill:#FFFFFF;" d="M93.528,179.574c-4.427,0-8.017,3.589-8.017,8.017v76.96v21.378c0,4.427,3.589,8.017,8.017,8.017
	c4.427,0,8.017-3.589,8.017-8.017v-21.378v-76.96C101.545,183.163,97.956,179.574,93.528,179.574z"/>
<g>
	<path style="fill:#4ACFD9;" d="M218.231,326.484l30.611-30.611c3.131-3.131,3.131-8.207,0-11.337
		c-3.131-3.131-8.207-3.131-11.337,0l-30.611,30.611l-30.611-30.611c-3.131-3.131-8.207-3.131-11.337,0
		c-3.131,3.131-3.131,8.207,0,11.337l30.611,30.611l-30.611,30.611c-3.131,3.131-3.131,8.207,0,11.337
		c1.565,1.565,3.617,2.348,5.668,2.348c2.051,0,4.104-0.782,5.668-2.348l30.611-30.611l30.611,30.611
		c1.565,1.565,3.617,2.348,5.668,2.348c2.051,0,4.103-0.782,5.668-2.348c3.131-3.131,3.131-8.207,0-11.337L218.231,326.484z"/>
	<path style="fill:#4ACFD9;" d="M235.334,142.634l30.611-30.611c3.131-3.131,3.131-8.207,0-11.337
		c-3.132-3.131-8.208-3.131-11.338,0l-30.611,30.611l-30.611-30.611c-3.131-3.131-8.207-3.131-11.337,0
		c-3.131,3.131-3.131,8.207,0,11.337l30.611,30.611l-30.611,30.611c-3.131,3.131-3.131,8.207,0,11.337
		c1.565,1.565,3.617,2.348,5.668,2.348s4.103-0.782,5.668-2.348l30.611-30.611l30.611,30.611c1.565,1.565,3.617,2.348,5.668,2.348
		s4.103-0.782,5.669-2.348c3.131-3.131,3.131-8.207,0-11.337L235.334,142.634z"/>
</g>
<path style="fill:#0295AA;" d="M440.435,369.24l30.611-30.611c3.131-3.131,3.131-8.207,0-11.337c-3.132-3.131-8.207-3.131-11.338,0
	l-30.61,30.61l-30.61-30.61c-3.132-3.131-8.207-3.131-11.338,0c-3.131,3.131-3.131,8.207,0,11.337l30.611,30.611l-30.611,30.611
	c-3.131,3.131-3.131,8.207,0,11.337c1.566,1.565,3.618,2.348,5.669,2.348s4.103-0.782,5.669-2.348l30.61-30.61l30.61,30.61
	c1.566,1.566,3.617,2.348,5.669,2.348c2.051,0,4.103-0.782,5.669-2.348c3.131-3.131,3.131-8.207,0-11.337L440.435,369.24z"/>
<g>
	<path style="fill:#F0353D;" d="M200.418,413.662c-4.427,0-8.017-3.589-8.017-8.017c0-4.427,3.589-8.017,8.017-8.017
		c82.809,0,150.18-67.37,150.18-150.18c0-4.427,3.588-8.017,8.017-8.017c4.428,0,8.017,3.589,8.017,8.017
		C366.63,339.099,292.068,413.662,200.418,413.662z"/>
	<path style="fill:#F0353D;" d="M324.409,285.395c-2.051,0-4.103-0.782-5.669-2.348c-3.131-3.131-3.131-8.207,0-11.337
		l32.067-32.067c3.132-3.131,8.207-3.131,11.338,0l27.791,27.791c3.131,3.131,3.131,8.207,0,11.337
		c-3.132,3.131-8.207,3.131-11.338,0l-22.122-22.123l-26.397,26.398C328.513,284.612,326.46,285.395,324.409,285.395z"/>
</g>
<circle style="fill:#FF8C29;" cx="365.027" cy="159.8" r="44.894"/>
<g>
</g>
<g>
</g>
<g>
</g>
<g>
</g>
<g>
</g>
<g>
</g>
<g>
</g>
<g>
</g>
<g>
</g>
<g>
</g>
<g>
</g>
<g>
</g>
<g>
</g>
<g>
</g>
<g>
</g>
</svg>
