<?xml version="1.0" encoding="utf-8"?>
<!-- Generator: Adobe Illustrator 19.0.0, SVG Export Plug-In . SVG Version: 6.00 Build 0)  -->
<svg version="1.1" id="Layer_1" xmlns="http://www.w3.org/2000/svg" xmlns:xlink="http://www.w3.org/1999/xlink" x="0px" y="0px"
	 viewBox="96 11 512 512" style="enable-background:new 96 11 512 512;" xml:space="preserve">
<style type="text/css">
	.st0{fill:none;stroke:#FD6A33;stroke-width:20;stroke-linecap:round;stroke-linejoin:round;}
	.st1{fill:none;stroke:#FD6A33;stroke-width:20;stroke-linecap:round;stroke-linejoin:round;stroke-dasharray:4.9032,34.3225;}
	.st2{fill:#0295AA;}
	.st3{fill:#4ACFD9;}
	.st4{fill:#BCD643;}
	.st5{fill:#F0353D;}
	.st6{fill:#FD6A33;}
	.st7{fill:#FF8C29;}
	.st8{fill:#FFD1A9;}
	.st9{fill:#365558;}
	.st10{fill:#9BAAAB;}
	.st11{fill:#CDD4D5;}
	.st12{fill:#E6EAEA;}
	.st13{fill:#FFFFFF;}
</style>
<g>
	<g>
		<path class="st0" d="M173.4,344.4c0,0.8,0,1.7,0,2.5"/>
		<path class="st1" d="M178.4,380.8c14.2,51.6,56.4,92.2,95.6,92.2c253,0-100.6-408,135-408c57.1,0,110.3,45,120,105"/>
		<path class="st0" d="M530.5,187.1c0,0.8,0,1.7,0,2.5"/>
	</g>
</g>
<path class="st2" d="M250.9,267c0-42.8-34.7-77.4-77.4-77.4S96,224.2,96,267s34.7,77.4,77.4,77.4S250.9,309.8,250.9,267z
	 M173.4,204.4c34.6,0,62.6,28,62.6,62.6s-28,62.6-62.6,62.6s-62.6-28-62.6-62.6S138.9,204.4,173.4,204.4z"/>
<path class="st3" d="M173.4,255.4c6.4,0,11.6,5.2,11.6,11.6s-5.2,11.6-11.6,11.6c-6.4,0-11.6-5.2-11.6-11.6S167,255.4,173.4,255.4z
	 M173.4,236.9c16.6,0,30.1,13.5,30.1,30.1s-13.5,30.1-30.1,30.1s-30.1-13.5-30.1-30.1S156.8,236.9,173.4,236.9z M217.5,267
	c0-24.3-19.7-44.1-44.1-44.1s-44.1,19.7-44.1,44.1s19.7,44.1,44.1,44.1S217.5,291.3,217.5,267z"/>
<path class="st4" d="M185,267c0-6.4-5.2-11.6-11.6-11.6c-6.4,0-11.6,5.2-11.6,11.6s5.2,11.6,11.6,11.6
	C179.8,278.6,185,273.4,185,267z"/>
<rect x="-456" y="-101.2" class="st5" width="128" height="128"/>
<rect x="-328" y="-101.2" class="st6" width="128" height="128"/>
<rect x="-200" y="-101.2" class="st7" width="128" height="128"/>
<rect x="-72" y="-101.2" class="st8" width="128" height="128"/>
<rect x="-456" y="26.8" class="st9" width="128" height="128"/>
<rect x="-328" y="26.8" class="st2" width="128" height="128"/>
<rect x="-200" y="26.8" class="st3" width="128" height="128"/>
<rect x="-456" y="154.8" class="st10" width="128" height="128"/>
<rect x="-328" y="154.8" class="st11" width="128" height="128"/>
<rect x="-200" y="154.8" class="st12" width="128" height="128"/>
<rect x="-72" y="154.8" class="st13" width="128" height="128"/>
<rect x="-456" y="282.8" class="st4" width="128" height="128"/>
<path class="st12" d="M608,267c0-42.8-34.7-77.4-77.4-77.4s-77.4,34.7-77.4,77.4s34.7,77.4,77.4,77.4S608,309.8,608,267z
	 M530.6,204.4c34.6,0,62.6,28,62.6,62.6s-28,62.6-62.6,62.6S468,301.6,468,267S496,204.4,530.6,204.4z"/>
<path class="st11" d="M530.6,255.4c6.4,0,11.6,5.2,11.6,11.6s-5.2,11.6-11.6,11.6S519,273.4,519,267S524.2,255.4,530.6,255.4z
	 M530.6,236.9c16.6,0,30.1,13.5,30.1,30.1s-13.5,30.1-30.1,30.1s-30.1-13.5-30.1-30.1S513.9,236.9,530.6,236.9z M574.6,267
	c0-24.3-19.7-44.1-44.1-44.1c-24.3,0-44.1,19.7-44.1,44.1s19.7,44.1,44.1,44.1C554.9,311.1,574.6,291.3,574.6,267z"/>
<path class="st10" d="M542.2,267c0-6.4-5.2-11.6-11.6-11.6S519,260.6,519,267s5.2,11.6,11.6,11.6S542.2,273.4,542.2,267z"/>
</svg>
