<?xml version="1.0" encoding="utf-8"?>
<!-- Generator: Adobe Illustrator 19.0.0, SVG Export Plug-In . SVG Version: 6.00 Build 0)  -->
<svg version="1.1" id="Layer_1" xmlns="http://www.w3.org/2000/svg" xmlns:xlink="http://www.w3.org/1999/xlink" x="0px" y="0px"
	 viewBox="96 11 512 512" style="enable-background:new 96 11 512 512;" xml:space="preserve">
<style type="text/css">
	.st0{fill:#F0353D;}
	.st1{fill:#FD6A33;}
	.st2{fill:#FF8C29;}
	.st3{fill:#FFD1A9;}
	.st4{fill:#365558;}
	.st5{fill:#0295AA;}
	.st6{fill:#4ACFD9;}
	.st7{fill:#9BAAAB;}
	.st8{fill:#CDD4D5;}
	.st9{fill:#E6EAEA;}
	.st10{fill:#FFFFFF;}
	.st11{fill:#BCD643;}
	.st12{fill:#45CCD3;}
	.st13{fill:#0197A5;}
</style>
<rect x="-659" y="-5" class="st0" width="128" height="128"/>
<rect x="-531" y="-5" class="st1" width="128" height="128"/>
<rect x="-403" y="-5" class="st2" width="128" height="128"/>
<rect x="-275" y="-5" class="st3" width="128" height="128"/>
<rect x="-659" y="123" class="st4" width="128" height="128"/>
<rect x="-531" y="123" class="st5" width="128" height="128"/>
<rect x="-403" y="123" class="st6" width="128" height="128"/>
<rect x="-659" y="251" class="st7" width="128" height="128"/>
<rect x="-531" y="251" class="st8" width="128" height="128"/>
<rect x="-403" y="251" class="st9" width="128" height="128"/>
<rect x="-275" y="251" class="st10" width="128" height="128"/>
<rect x="-659" y="379" class="st11" width="128" height="128"/>
<path class="st4" d="M432.9,420.3h-49.2c-5.8,0-10.5-4.7-10.5-10.5V127.9c0-5.8,4.7-10.5,10.5-10.5h49.2c5.8,0,10.5,4.7,10.5,10.5
	v0.8c0,5.8-4.7,10.5-10.5,10.5h-23.1c-5.2,0-9.5,4.3-9.5,9.5V389c0,5.2,4.3,9.5,9.5,9.5h23.1c5.8,0,10.5,4.7,10.5,10.5v0.8
	C443.4,415.6,438.7,420.3,432.9,420.3z"/>
<path class="st7" d="M597.5,420.3h-49.2c-5.8,0-10.5-4.7-10.5-10.5V409c0-5.8,4.7-10.5,10.5-10.5h23.1c5.2,0,9.5-4.3,9.5-9.5V148.7
	c0-5.2-4.3-9.5-9.5-9.5h-23.1c-5.8,0-10.5-4.7-10.5-10.5v-0.8c0-5.8,4.7-10.5,10.5-10.5h49.2c5.8,0,10.5,4.7,10.5,10.5v281.9
	C608,415.6,603.3,420.3,597.5,420.3z"/>
<path class="st11" d="M191.3,22.5l-0.8,45.4c-0.2,6.1-5,10.9-11.3,11.1c-6.1,0-10.9-4.8-10.7-10.9l0.8-45.4
	c0.2-6.1,5-10.9,11.3-11.1C186.5,11.6,191.3,16.4,191.3,22.5z"/>
<path class="st11" d="M256.7,51.1c0,2.9-1.1,5.7-3.4,7.8l-29.4,29.2c-4.4,4.4-11.3,4.4-15.6,0c-4.2-4.2-4-11.1,0.4-15.6l29.4-29.2
	c4.4-4.4,11.3-4.4,15.6,0C255.9,45.4,256.9,48.4,256.7,51.1z"/>
<path class="st11" d="M153.1,80.7c0,2.9-1.1,5.7-3.4,7.8c-4.4,4.4-11.3,4.4-15.6,0l-28.4-28.6c-4.2-4.2-4-11.1,0.4-15.6
	c4.4-4.4,11.3-4.4,15.6,0l28.4,28.6C152,75.1,153.1,77.8,153.1,80.7z"/>
<path class="st11" d="M168.3,511.5l0.8-45.4c0.2-6.1,5-10.9,11.3-11.1c6.1,0,10.9,4.8,10.7,10.9l-0.8,45.4
	c-0.2,6.1-5,10.9-11.3,11.1C173.1,522.4,168.3,517.6,168.3,511.5z"/>
<path class="st11" d="M102.8,482.9c0-2.9,1.1-5.7,3.4-7.8l29.4-29.2c4.4-4.4,11.3-4.4,15.6,0c4.2,4.2,4,11.1-0.4,15.6l-29.4,29.2
	c-4.4,4.4-11.3,4.4-15.6,0C103.6,488.6,102.6,485.6,102.8,482.9z"/>
<path class="st11" d="M206.4,453.3c0-2.9,1.1-5.7,3.4-7.8c4.4-4.4,11.3-4.4,15.6,0l28.4,28.6c4.2,4.2,4,11.1-0.4,15.6
	c-4.4,4.4-11.3,4.4-15.6,0l-28.4-28.6C207.6,458.9,206.4,456.2,206.4,453.3z"/>
<path class="st12" d="M102.5,155.8c-9.2-17.9,3.8-39.3,23.9-39.3h107c20.1,0,33.1,21.3,24,39.2l-52.7,103.4
	c-1.7,3.4-1.7,7.4-0.1,10.8L258,378.2c8.8,17.9-4.1,38.8-24,38.9l-108,0.3c-20,0.1-33.1-21-24.2-38.9l53.8-108.5
	c1.7-3.4,1.7-7.5-0.1-10.9L102.5,155.8z M126.4,131.4c-9,0-14.9,9.6-10.7,17.6l53.1,103.3c3.9,7.6,4,16.6,0.2,24.3l-53.8,108.5
	c-4,8,1.9,17.4,10.8,17.4l107.9-0.3c8.9,0,14.7-9.4,10.8-17.4l-53.5-108.2c-3.8-7.6-3.7-16.6,0.2-24.2L244.1,149
	c4.1-8-1.7-17.6-10.7-17.6C233.3,131.4,126.4,131.4,126.4,131.4z"/>
<path class="st13" d="M104.7,128c-5.5,7.7-7,18.3-2,27.9l53,103.1c1.7,3.4,1.8,7.4,0.1,10.8L102,378.3c-8.9,17.9,4.2,38.9,24.2,38.8
	l107.9-0.3c9.3,0,17.1-4.6,21.8-11.3l-10.2-18.7c2,7.4-3.5,15.2-11.6,15.2l-107.9,0.3c-9,0-14.8-9.4-10.8-17.4l53.8-108.3
	c3.8-7.7,3.7-16.7-0.2-24.3l-53-103.1c-0.4-0.7-0.7-1.4-0.8-2.2L104.7,128z"/>
<rect x="174.5" y="162.7" class="st7" width="10.8" height="166.6"/>
<path class="st1" d="M179.8,174.2h28.8l-21.8,82.5c-1.9,7.1-2.7,12.5,0.8,21.2l9,23.4h-16.7V174.2z"/>
<path class="st0" d="M179.8,174.2H152l20.6,82.8c1.7,7,2.2,12.2-0.7,20.6l-8.1,23.6h16V174.2z"/>
<path class="st6" d="M179.9,389.8l17.6-21.2h-35.3L179.9,389.8z"/>
<path class="st5" d="M179.9,364.1l14-17.1h-28L179.9,364.1z"/>
<path class="st7" d="M280.2,267.1c0.1-13.3-10.7-24.3-23.9-24.3h-0.1v48.1C269.4,290.8,280.1,280.1,280.2,267.1z"/>
<path class="st4" d="M233,266.7c-0.1,13.3,10.7,24.1,24,24.2c0.1,0,0.1,0,0.2,0v-48.1C243.8,242.7,233.1,253.4,233,266.7z"/>
<path class="st7" d="M350.2,268.3c0.1-13.3-10.7-24.3-23.9-24.3h-0.1v48.1C339.4,292,350.2,281.3,350.2,268.3z"/>
<path class="st4" d="M303,267.9c-0.1,13.3,10.7,24.1,24,24.2c0.1,0,0.1,0,0.2,0V244C313.9,243.9,303.1,254.6,303,267.9z"/>
</svg>
