<?xml version="1.0" encoding="utf-8"?>
<!-- Generator: Adobe Illustrator 19.0.0, SVG Export Plug-In . SVG Version: 6.00 Build 0)  -->
<svg version="1.1" id="Layer_1" xmlns="http://www.w3.org/2000/svg" xmlns:xlink="http://www.w3.org/1999/xlink" x="0px" y="0px"
	 viewBox="96 11 512 512" style="enable-background:new 96 11 512 512;" xml:space="preserve">
<style type="text/css">
	.st0{fill:#F0353D;}
	.st1{fill:#FD6A33;}
	.st2{fill:#FF8C29;}
	.st3{fill:#FFD1A9;}
	.st4{fill:#365558;}
	.st5{fill:#0295AA;}
	.st6{fill:#4ACFD9;}
	.st7{fill:#9BAAAB;}
	.st8{fill:#CDD4D5;}
	.st9{fill:#E6EAEA;}
	.st10{fill:#FFFFFF;}
	.st11{fill:#BCD643;}
	.st12{fill:#45CCD3;}
	.st13{fill:#0197A5;}
</style>
<rect x="-659" y="-5" class="st0" width="128" height="128"/>
<rect x="-531" y="-5" class="st1" width="128" height="128"/>
<rect x="-403" y="-5" class="st2" width="128" height="128"/>
<rect x="-275" y="-5" class="st3" width="128" height="128"/>
<rect x="-659" y="123" class="st4" width="128" height="128"/>
<rect x="-531" y="123" class="st5" width="128" height="128"/>
<rect x="-403" y="123" class="st6" width="128" height="128"/>
<rect x="-659" y="251" class="st7" width="128" height="128"/>
<rect x="-531" y="251" class="st8" width="128" height="128"/>
<rect x="-403" y="251" class="st9" width="128" height="128"/>
<rect x="-275" y="251" class="st10" width="128" height="128"/>
<rect x="-659" y="379" class="st11" width="128" height="128"/>
<path class="st4" d="M432.9,420.3h-49.2c-5.8,0-10.5-4.7-10.5-10.5V127.9c0-5.8,4.7-10.5,10.5-10.5h49.2c5.8,0,10.5,4.7,10.5,10.5
	v0.8c0,5.8-4.7,10.5-10.5,10.5h-23.1c-5.2,0-9.5,4.3-9.5,9.5V389c0,5.2,4.3,9.5,9.5,9.5h23.1c5.8,0,10.5,4.7,10.5,10.5v0.8
	C443.4,415.6,438.7,420.3,432.9,420.3z"/>
<path class="st7" d="M597.5,420.3h-49.2c-5.8,0-10.5-4.7-10.5-10.5V409c0-5.8,4.7-10.5,10.5-10.5h23.1c5.2,0,9.5-4.3,9.5-9.5V148.7
	c0-5.2-4.3-9.5-9.5-9.5h-23.1c-5.8,0-10.5-4.7-10.5-10.5v-0.8c0-5.8,4.7-10.5,10.5-10.5h49.2c5.8,0,10.5,4.7,10.5,10.5v281.9
	C608,415.6,603.3,420.3,597.5,420.3z"/>
<path class="st11" d="M191.3,22.5l-0.8,45.4c-0.2,6.1-5,10.9-11.3,11.1c-6.1,0-10.9-4.8-10.7-10.9l0.8-45.4
	c0.2-6.1,5-10.9,11.3-11.1C186.5,11.6,191.3,16.4,191.3,22.5z"/>
<path class="st11" d="M256.7,51.1c0,2.9-1.1,5.7-3.4,7.8l-29.4,29.2c-4.4,4.4-11.3,4.4-15.6,0c-4.2-4.2-4-11.1,0.4-15.6l29.4-29.2
	c4.4-4.4,11.3-4.4,15.6,0C255.9,45.4,256.9,48.4,256.7,51.1z"/>
<path class="st11" d="M153.1,80.7c0,2.9-1.1,5.7-3.4,7.8c-4.4,4.4-11.3,4.4-15.6,0l-28.4-28.6c-4.2-4.2-4-11.1,0.4-15.6
	c4.4-4.4,11.3-4.4,15.6,0l28.4,28.6C152,75.1,153.1,77.8,153.1,80.7z"/>
<path class="st11" d="M168.3,511.5l0.8-45.4c0.2-6.1,5-10.9,11.3-11.1c6.1,0,10.9,4.8,10.7,10.9l-0.8,45.4
	c-0.2,6.1-5,10.9-11.3,11.1C173.1,522.4,168.3,517.6,168.3,511.5z"/>
<path class="st11" d="M102.8,482.9c0-2.9,1.1-5.7,3.4-7.8l29.4-29.2c4.4-4.4,11.3-4.4,15.6,0c4.2,4.2,4,11.1-0.4,15.6l-29.4,29.2
	c-4.4,4.4-11.3,4.4-15.6,0C103.6,488.6,102.6,485.6,102.8,482.9z"/>
<path class="st11" d="M206.4,453.3c0-2.9,1.1-5.7,3.4-7.8c4.4-4.4,11.3-4.4,15.6,0l28.4,28.6c4.2,4.2,4,11.1-0.4,15.6
	c-4.4,4.4-11.3,4.4-15.6,0l-28.4-28.6C207.6,458.9,206.4,456.2,206.4,453.3z"/>
<path class="st7" d="M280.2,267.1c0.1-13.3-10.7-24.3-23.9-24.3h-0.1v48.1C269.4,290.8,280.1,280.1,280.2,267.1z"/>
<path class="st4" d="M233,266.7c-0.1,13.3,10.7,24.1,24,24.2c0.1,0,0.1,0,0.2,0v-48.1C243.8,242.7,233.1,253.4,233,266.7z"/>
<path class="st7" d="M350.2,268.3c0.1-13.3-10.7-24.3-23.9-24.3h-0.1v48.1C339.4,292,350.2,281.3,350.2,268.3z"/>
<path class="st4" d="M303,267.9c-0.1,13.3,10.7,24.1,24,24.2c0.1,0,0.1,0,0.2,0V244C313.9,243.9,303.1,254.6,303,267.9z"/>
<g>
	<path class="st12" d="M99.5,149.3c-9.4-18.3,3.9-40.2,24.5-40.2h109.5c20.6,0,33.9,21.8,24.5,40.1l-54,105.8
		c-1.8,3.5-1.8,7.6-0.1,11.1L258.8,377c9,18.3-4.2,39.8-24.6,39.8l-110.6,0.3c-20.5,0.1-33.9-21.5-24.7-39.8L154,266.2
		c1.7-3.5,1.7-7.7-0.1-11.2L99.5,149.3z M124,124.3c-9.3,0-15.2,9.8-11,18l54.4,105.8c4,7.8,4,17,0.2,24.8L112.5,384
		c-4.1,8.2,1.9,17.9,11.1,17.9l110.5-0.3c9.1,0,15.1-9.6,11-17.9l-54.8-110.8c-3.9-7.8-3.8-17,0.2-24.8l54-105.8
		c4.2-8.2-1.8-18-11-18C233.5,124.3,124,124.3,124,124.3z"/>
	<path class="st13" d="M101.8,120.7c-5.6,7.9-7.1,18.8-2.1,28.6L154.1,255c1.8,3.5,1.8,7.6,0.1,11.2L99.1,377.2
		c-9.1,18.3,4.3,39.9,24.8,39.8l110.6-0.3c9.5,0,17.5-4.7,22.3-11.5l-10.5-19.3c2.1,7.6-3.6,15.6-11.9,15.6l-110.6,0.3
		c-9.2,0-15.2-9.6-11.1-17.9l55.1-111.1c3.9-7.9,3.8-17.1-0.2-24.8l-54.3-105.8c-0.4-0.7-0.7-1.5-0.9-2.2L101.8,120.7z"/>
	<rect x="173.3" y="199.4" class="st7" width="11" height="170.7"/>
	<path class="st1" d="M178.8,358.2h29.5l-21.7-84.5c-1.9-7.3-3.4-15,0.2-21.7l9.8-24h-17.7V358.2z"/>
	<path class="st0" d="M178.8,358.2h-28.5l21.1-84.9c1.8-7.1,2.3-15.1-0.1-21.1l-9.5-24.2h17V358.2z"/>
	<path class="st6" d="M178.8,184.6l18-22.1h-36.1L178.8,184.6z"/>
	<path class="st5" d="M178.8,158.2l14.4-18h-28.7L178.8,158.2z"/>
</g>
</svg>
