<?xml version="1.0" encoding="utf-8"?>
<!-- Generator: Adobe Illustrator 19.0.0, SVG Export Plug-In . SVG Version: 6.00 Build 0)  -->
<svg version="1.1" id="Layer_1" xmlns="http://www.w3.org/2000/svg" xmlns:xlink="http://www.w3.org/1999/xlink" x="0px" y="0px"
	 viewBox="-49 141 512 512" style="enable-background:new -49 141 512 512;" xml:space="preserve">
<style type="text/css">
	.st0{fill:#0295AA;}
	.st1{fill:#365558;}
	.st2{fill:#FF8C29;}
	.st3{fill:#FD6A33;}
	.st4{fill:#FFFFFF;}
	.st5{fill:#E6EAEA;}
	.st6{fill:#4ACFD9;}
	.st7{fill:#FFD1A9;}
	.st8{fill:#F0353D;}
	.st9{fill:none;stroke:#BCD643;stroke-width:13;stroke-linecap:round;stroke-linejoin:round;stroke-miterlimit:10;}
	.st10{fill:#9BAAAB;}
	.st11{fill:#CDD4D5;}
	.st12{fill:#BCD643;}
</style>
<path class="st0" d="M424.5,611.1H207v41.6h217.5c6.6,0,12-8.8,12-19.6v-2.5C436.5,619.9,431.1,611.1,424.5,611.1z"/>
<path class="st1" d="M-10.5,611.1c-6.6,0-12,8.8-12,19.6v2.5c0,10.8,5.4,19.6,12,19.6H207v-41.6L-10.5,611.1L-10.5,611.1z"/>
<path class="st2" d="M373.5,216.2H207v411h166.5c49.2,0,89.5-40.3,89.5-89.5v-232C463,256.5,422.7,216.2,373.5,216.2z"/>
<path class="st3" d="M40.5,216.2c-49.2,0-89.5,40.3-89.5,89.5v232c0,49.2,40.3,89.5,89.5,89.5H207v-411L40.5,216.2L40.5,216.2z"/>
<path class="st1" d="M224.7,551.5c-5.9,0-11.8,0-17.7-0.1l-9.9-0.1v-312h10c45,0,105.6,1.7,128.1,6.6c38,8.2,94.6,48.1,97.4,98.7
	c0.5,8.8,1,16.3,1.5,22.9c1.9,26.2,2.9,40.7-1.6,81.7c-6.1,56-53.9,91.9-98,98.3C311.3,551,255.7,551.5,224.7,551.5z"/>
<path class="st1" d="M207,551.4c-52.4-0.2-104.6-1.7-126.9-3.7c-47.4-4.2-89.8-46.3-98.5-97.8c-7.1-42.2-5.9-53.2-1.4-94.1
	c0.4-3.6,0.8-7.5,1.3-11.6c5.5-50.9,42-87.6,97.6-98.2c21.4-4.1,69.2-6.6,127.9-6.6h10v312.1L207,551.4z"/>
<path class="st4" d="M422.5,345.2c-2.4-43.5-52.6-81.5-89.5-89.5c-18.9-4.1-72.2-6.4-126-6.4v292.1c52.8,0.3,105.3-0.7,126-3.7
	c41-6,84-39,89.5-89.5S425,388.7,422.5,345.2z"/>
<path class="st5" d="M81,255.7c-47,9-84,39-89.5,89.5s-7.5,58.5,0,103S36,533.7,81,537.7c22.3,2,74.2,3.5,126,3.7V249.3
	C155.7,249.3,103.9,251.3,81,255.7z"/>
<path class="st1" d="M310.2,582l-12.1-12.1c-6.8,10.3-5.7,24.3,3.3,33.4c10.3,10.4,27.1,10.4,37.5,0l0,0L317.7,582
	C315.6,584,312.4,584,310.2,582z"/>
<path class="st0" d="M339.1,565.7c-9-9.1-23-10.2-33.4-3.4l12.1,12.1c2,2.1,2,5.5,0,7.5l0,0l21.3,21.3
	C349.4,592.9,349.4,576.2,339.1,565.7z"/>
<path class="st6" d="M112,584.2c0.1-12.5-10-22.8-22.4-22.9h-0.1v45.1C101.8,606.4,112,596.4,112,584.2z"/>
<path class="st0" d="M67.7,583.8c-0.1,12.5,10,22.6,22.5,22.7c0.1,0,0.1,0,0.2,0v-45.2C77.9,561.3,67.8,571.4,67.7,583.8z"/>
<path class="st6" d="M171,600.8c8.9-8.8,9-23.2,0.3-32l0,0l-31.9,31.9C148.1,609.3,162.3,609.4,171,600.8z"/>
<path class="st0" d="M140,569.2c-8.9,8.8-8.9,23-0.1,31.9l0.1,0.1l31.9-31.9C163.1,560.5,148.8,560.5,140,569.2z"/>
<path class="st7" d="M207,280.5c-63.4,0-114.9,51.5-114.9,114.9S143.6,510.3,207,510.3s114.9-51.5,114.9-114.9
	S270.4,280.5,207,280.5z"/>
<path class="st2" d="M92.1,395.4c0,63.4,51.5,114.9,114.9,114.9V280.5C143.6,280.5,92.1,332,92.1,395.4z"/>
<path class="st4" d="M279.6,377.8c-3.3,0-6.4-2.1-7.6-5.3c-5.9-16.7-18.4-30.9-34.4-38.8c-4-2-5.6-6.8-3.6-10.7
	c2-4,6.8-5.6,10.7-3.6c19.6,9.8,35.1,27.2,42.4,47.8c1.5,4.2-0.7,8.8-4.9,10.2C281.4,377.6,280.5,377.8,279.6,377.8z"/>
<path class="st8" d="M250.4,388.2l-65-50.4c-2.4-1.9-5.7-2.2-8.4-0.9c-2.7,1.3-4.5,4.1-4.5,7.2v102.6c0,3.1,1.8,5.9,4.6,7.2
	c1.1,0.5,2.3,0.8,3.5,0.8c1.8,0,3.6-0.6,5-1.8l65-52.2c1.9-1.5,3-3.9,3-6.3C253.5,392,252.3,389.7,250.4,388.2z"/>
<path class="st2" d="M-14.5,535c3.3,0,6.4,2.1,7.6,5.3c5.9,16.7,18.4,30.9,34.4,38.8c4,2,5.6,6.8,3.6,10.7c-2,4-6.8,5.6-10.7,3.6
	c-19.6-9.8-35.1-27.2-42.4-47.8c-1.5-4.2,0.7-8.8,4.9-10.2C-16.3,535.2-15.4,535-14.5,535z"/>
<path class="st1" d="M-416.9,599.5l-118.4-107.6c-5.1-4.7-5.1-12.3,0-17l118.5-107.6c2.1-1.9,4.9-2.9,7.6-2.8v237.9
	C-412,602.4-414.8,601.4-416.9,599.5z"/>
<path class="st0" d="M-283.3,475c5.1,4.7,5.1,12.3,0,17l-118.4,107.5c-2.1,1.9-4.8,2.8-7.5,2.8V364.5c2.7,0,5.4,1,7.5,2.8
	L-283.3,475z"/>
<path class="st2" d="M-426.4,647.8c0,9.5,7.7,17.2,17.1,17.3v-34.5C-418.7,630.6-426.4,638.3-426.4,647.8z"/>
<path class="st3" d="M-391.9,647.8c0-9.5-7.7-17.3-17.3-17.3h-0.1v34.6h0.1C-399.6,665.1-391.9,657.4-391.9,647.8z"/>
<line class="st9" x1="-409.1" y1="630.6" x2="-409.3" y2="483.4"/>
<path class="st2" d="M-411.2,665.1c-4.6,0-8.3,3.7-8.3,8.3l-6.9,36.5c0,4.6,3.7,8.3,8.3,8.3h8.8v-53L-411.2,665.1L-411.2,665.1z"/>
<path class="st3" d="M-391.9,709.8l-6.9-36.5c0-4.6-3.7-8.3-8.3-8.3h-2.2v53h9.1C-395.6,718.1-391.9,714.4-391.9,709.8z"/>
<path class="st0" d="M192,202.5l-233.4,56.7c-10.1,2.5-10.1,6.5,0,8.9L192,324.7c4.1,1,9.6,1.5,15,1.5V201
	C201.7,201,196.2,201.5,192,202.5z"/>
<path class="st1" d="M455.4,268c10.1-2.5,10.1-6.5,0-8.9L222,202.5c-4.1-1-9.4-1.5-14.8-1.5v125.2c5.3,0,10.7-0.5,14.8-1.5
	L455.4,268z"/>
<path class="st6" d="M97.6,358.4c0-17.9,48.9-32.3,109.3-32.3h0.1v-7.3v-33.3v-32.3h-0.1c-60.3,0-109.3,14.5-109.3,32.3v33.5V358.4"
	/>
<path class="st0" d="M316.4,358.4c0-17.9-48.9-32.3-109.3-32.3h-0.1v-7.3v-33.3v-32.3h0.1c60.3,0,109.3,14.5,109.3,32.3v33.5V358.4"
	/>
<path class="st7" d="M346,359.7c0,15.6,12.6,28.3,28.2,28.5v-56.9C358.6,331.3,346,344,346,359.7z"/>
<path class="st2" d="M402.9,359.7c0-15.7-12.7-28.5-28.5-28.5c-0.1,0-0.1,0-0.2,0v56.9c0.1,0,0.1,0,0.2,0
	C390.1,388.1,402.9,375.4,402.9,359.7z"/>
<line class="st9" x1="374.4" y1="331.2" x2="374.2" y2="239.1"/>
<path class="st7" d="M371,388.1c-7.5,0-13.7,6.1-13.7,13.7L346,461.9c0,7.5,6.1,13.7,13.7,13.7h14.6v-87.4H371z"/>
<path class="st2" d="M402.9,461.9l-11.4-60.1c0-7.5-6.1-13.7-13.7-13.7h-3.6v87.4h15C396.7,475.5,402.9,469.4,402.9,461.9z"/>
<rect x="-649" y="-168.5" class="st8" width="128" height="128"/>
<rect x="-521" y="-168.5" class="st3" width="128" height="128"/>
<rect x="-393" y="-168.5" class="st2" width="128" height="128"/>
<rect x="-265" y="-168.5" class="st7" width="128" height="128"/>
<rect x="-649" y="-40.5" class="st1" width="128" height="128"/>
<rect x="-521" y="-40.5" class="st0" width="128" height="128"/>
<rect x="-393" y="-40.5" class="st6" width="128" height="128"/>
<rect x="-649" y="87.5" class="st10" width="128" height="128"/>
<rect x="-521" y="87.5" class="st11" width="128" height="128"/>
<rect x="-393" y="87.5" class="st5" width="128" height="128"/>
<rect x="-265" y="87.5" class="st4" width="128" height="128"/>
<rect x="-649" y="215.5" class="st12" width="128" height="128"/>
</svg>
