<?xml version="1.0" encoding="utf-8"?>
<!-- Generator: Adobe Illustrator 19.0.0, SVG Export Plug-In . SVG Version: 6.00 Build 0)  -->
<svg version="1.1" id="Layer_1" xmlns="http://www.w3.org/2000/svg" xmlns:xlink="http://www.w3.org/1999/xlink" x="0px" y="0px"
	 viewBox="96 11 512 512" style="enable-background:new 96 11 512 512;" xml:space="preserve">
<style type="text/css">
	.st0{display:none;}
	.st1{display:inline;}
	.st2{fill:#CDD4D5;}
	.st3{fill:#E6EAEA;}
	.st4{fill:#4ACFD9;}
	.st5{fill:#0295AA;}
	.st6{fill:#FFFFFF;}
	.st7{fill:#FF8C29;}
	.st8{fill:#FD6A33;}
	.st9{fill:#9BAAAB;}
	.st10{fill:#365558;}
	.st11{fill:#FFD1A9;}
	.st12{fill:#BCD643;}
	.st13{fill:none;stroke:#BCD643;stroke-width:13;stroke-linecap:round;stroke-linejoin:round;stroke-miterlimit:10;}
</style>
<g id="Layer_3" class="st0">
	<rect x="1194" y="-552.4" class="st1" width="512" height="512.8"/>
</g>
<g>
	<g>
		<g>
			<path class="st2" d="M261.2,155.9c-1.3,0.3,0.3,1.5,1,1.9c11,4.9,20.8,9.9,30.3,16.4c19.3,12.7,38.1,26.4,59.5,35
				c0.4-0.1,0.8-0.4,0.8-0.8c1-9.5,2-19.2,2.9-28.7c-14.8-5.4-29.4-14.2-43.6-23.4c-11.2-7.5-23-13.6-35.7-18.1
				c-3.5,3.5-6.1,7.6-9.8,10.9C264.6,151.4,262.4,153.4,261.2,155.9L261.2,155.9z"/>
		</g>
		<g>
			<path class="st3" d="M291.8,120.3c-4.9,6.2-10.8,11.7-15.4,18c8.9,2.8,17.2,7,24.8,11.6c15.9,9.1,30.5,20.6,47.7,27
				c0.6,0.3,1.2,0.6,1.8,1c1,0.2,2.2,0.9,3.1,1c0.6,0.3,1.2,0.6,1.8,1c0.7-10,2.5-19.2,2.7-29.4c-0.3-0.4-0.7-1-1-1
				c-7.7-1.8-14.7-5-21.9-8.8c-13.6-7.9-25.8-16.2-41.5-20.6C293.3,119.6,292.5,119.8,291.8,120.3L291.8,120.3z"/>
		</g>
		<g>
			<path class="st4" d="M301.5,131.6c-0.5-0.3-1.1-0.5-1.3-0.1c-2,3-4.3,5.9-7.1,8.5c-1.5,1.6-2,3.6-2.9,5.6
				c1.2,0.6,2.2,1.1,3.4,1.8c0.4-1.4,1.1-2.9,1.8-4.2c2.5-2.8,5.2-5.2,6.8-8.4C302.3,133.8,303.6,132.3,301.5,131.6L301.5,131.6z"/>
		</g>
		<g>
			<path class="st4" d="M314.6,137.8c-0.9-1-1.6,0-1.9,0.4c-0.9,3.1-2.8,5.6-4.5,8.2c-1.7,1.9-2.8,4.1-3.3,6.6
				c1.2,0.6,2.4,1.3,3.6,1.9c0.3-3.8,2.3-6.6,4.8-9.5c1.1-1.6,2.1-3.7,2.3-5.8C315.9,139.3,316,138.3,314.6,137.8L314.6,137.8z"/>
		</g>
		<g>
			<path class="st4" d="M327.6,144.1c-0.2-0.3-0.8-0.4-1.3-0.1c-0.5,1.5-0.7,2.8-1.5,4.1c-1.6,4.3-4.9,7.7-4.9,12.8
				c1.2,0.6,2.2,1.1,3.4,1.8c0.3-2.2,0.4-4.3,1.4-6.2c1.9-3.6,4.5-6.6,4.4-11.3C328.9,144.7,328.5,144.2,327.6,144.1L327.6,144.1z"
				/>
		</g>
		<g>
			<path class="st4" d="M340.9,150.4c-0.5-0.3-1.1-0.5-1.2,0c-1,3.9-2.2,7.7-4,11.2c-0.9,2.2-0.8,4.6-1,7c1.2,0.6,2.2,1.1,3.4,1.8
				c-0.3-1.9,0.4-3.6,0.8-5.2c0.9-4,2.8-7.1,3.4-11.3C342,153.1,342.8,151,340.9,150.4L340.9,150.4z"/>
		</g>
		<g>
			<g>
				<path class="st5" d="M280.8,158.7c-0.3,0.4-0.2,1,0.7,1.8c0.7,0.4,1.5,1.4,2.6,1c1.1-1,0.8-2.6,1.8-3.6
					c2.9-3.3,6.9-6.2,7.5-10.5c-1.2-0.6-2.2-1.1-3.4-1.8c-0.8,1.8-1.1,3.5-2.4,4.9C285.1,153.1,281.9,155.1,280.8,158.7L280.8,158.7
					z"/>
			</g>
			<g>
				<path class="st5" d="M297.1,167.7c0.1,1.5,1.4,2.4,2.9,2.9c0.4-0.1,1-0.3,1.2-0.8c0.7-3.3,2.6-5.6,4.7-8.2
					c1.4-2.1,2-4.3,2.7-6.8c-1.2-0.6-2.4-1.3-3.6-1.9c0.2,2-0.7,3.8-1.9,5.4C300.7,161.5,298.8,164.5,297.1,167.7L297.1,167.7z"/>
			</g>
			<g>
				<path class="st5" d="M315.4,179.3c0.7,0.4,1.7,1,1.6,0.3c1.2-3.6,2.8-7.2,5-10.3c1-1.8,1-4.3,1.4-6.5c-1.2-0.6-2.2-1.1-3.4-1.8
					c-0.4,2.3-1,4.9-2.2,6.9c-1.6,2.3-3.3,4.9-4,7.6C314,176.5,312.9,178.2,315.4,179.3L315.4,179.3z"/>
			</g>
			<g>
				<path class="st5" d="M332.1,188.6c0.3,0.4,1,0.6,1.5,0.3c0.3-1.6,0.3-3.1,1-4.5c1-4.8,4-8.6,3.4-13.9c-1.2-0.6-2.2-1.1-3.4-1.8
					c-0.2,2.3,0,4.4-0.8,6.3c-1.6,3.8-4.3,6.9-3.6,12C330.4,187.7,331,188.3,332.1,188.6L332.1,188.6z"/>
			</g>
		</g>
	</g>
</g>
<g>
	<g>
		<g>
			<path class="st2" d="M318.3,88.4c-0.1,0.6-0.6,0.8-0.3,1.3c3.6,2.9,7,4.7,11.2,6.9c17.3,12.1,30,26.1,44,40.4
				c7.4,8.1,14.3,15.1,21.5,22.7l0.9,0.4c1.6,2,3.9,5.6,4.7,3.6c1.3-2.1,2.8-4.9,3.8-8.1c2.8-4.9,5.6-10.6,8.8-15.7
				c-16.5-18.3-31.2-39.7-48.8-59.2c-8.2-7.7-16.8-14.5-26.3-20.9C331,69.8,324.1,79.1,318.3,88.4L318.3,88.4z"/>
		</g>
		<g>
			<path class="st3" d="M359.8,28.1c-3.3,3.8-6.2,8.2-9.9,12.1c-4.6,6.8-10.3,12.1-13.7,19c8.7,4.9,16.7,11.3,23.6,18.1
				c19.5,20,34.6,43.1,52,61.2c4.4-8.1,9.5-16.5,15.2-24.5c1.8-2.4,1.6-5-0.4-7.5c-13.4-15.1-22.9-34.3-36.1-51.4
				c-1.6-2-2.9-4.7-5.3-7c-1.5-1.4-2.9-2.7-4-4.3c-0.7-0.4-1.6-1.3-2.2-1.7c-0.9-1-1-1.6-1.9-2.4c-5.4-4.3-10-9-15.7-11.9
				C360.9,27.6,360.4,27.8,359.8,28.1L359.8,28.1z"/>
		</g>
		<g>
			<path class="st4" d="M368.5,52.1c-1.8-1.8-3.3,1.3-4.1,2.2c-1,2.9-3.1,5.6-5,7.5c-3.7,2.6-6,7.2-8.3,11.2c1,1,2.2,2.3,3.6,3
				c2.8-4.2,5.5-8.8,9.4-12.1c2.3-2.2,3.8-5.2,5.3-8.2C370,54.7,370,53.5,368.5,52.1L368.5,52.1z"/>
		</g>
		<g>
			<path class="st4" d="M382.9,65.9c-1.1-0.3-2.2-0.4-2.4,0.3c-3,6.8-8.2,10.5-11.8,16.1c-0.4,1.4-0.8,2.8-1.6,4.3
				c1.3,0.8,2.4,2.3,3.4,3.2c2-6.9,7.7-9.5,11.3-15.8C382.5,71.7,385.8,70,382.9,65.9L382.9,65.9z"/>
		</g>
		<g>
			<path class="st4" d="M397,80.7c-0.6-0.4-1.2-0.9-1.2-0.9c-2.8,2.9-4.2,7.1-6.9,10c-3.6,2.4-5.3,6.8-7.4,10.6
				c1.1,1.5,2.3,2.3,3.3,3.9c1.6-3.6,3.2-7.9,6.9-10.3c2.3-2.6,4-5.7,5.9-9.6C398.3,83.4,398.3,82.1,397,80.7L397,80.7z"/>
		</g>
		<g>
			<path class="st4" d="M409.5,96.2c-0.7-1-1.6-1.4-2.3-0.5c-2.2,7-7.4,9.3-10.4,15.3c-0.3,1.4-1.5,2.9-1,4.1
				c0.1,1.2,1.4,2.7,2.5,3.6c0.2-0.7,0.3-1.3,0.5-2c3.1-5.4,7.4-8.6,10.4-15.3C409.9,100.7,411.7,100,409.5,96.2L409.5,96.2z"/>
		</g>
		<g>
			<g>
				<path class="st5" d="M339.1,93.1c1.3,1.4-1,2.8,3.2,3.7c3.6-7.3,9.8-12,12.9-20.5c-1.4-0.8-2.6-2.2-3.6-3
					c-0.9,1.6-1.2,2.9-1.6,4.3C346.9,83.8,340.6,86.5,339.1,93.1L339.1,93.1z"/>
			</g>
			<g>
				<path class="st5" d="M355.8,105.7c-0.1,0.6-0.3,1.3,0.1,1.8c0.6,1,2.8,3.3,3.5,1.3c2.3-5.6,6.8-8.9,10-14.3
					c0.8-1.5,1.1-2.9,1.9-4.3c-1.3-0.8-2.6-1.6-3.8-3C364.4,94.3,359,99.2,355.8,105.7L355.8,105.7z"/>
			</g>
			<g>
				<path class="st5" d="M372.4,122.9c0.6,0.4,1.3,0.8,1.6,0.7c2.5-4.4,5.4-8.4,8.6-13c0.9-2.2,2.9-3.4,2.4-5.7
					c-0.1-1.2-1.9-2.4-2.9-4c-1.6,4.9-4.3,8.8-7.2,12.1C372.8,114.8,369.6,118.3,372.4,122.9L372.4,122.9z"/>
			</g>
			<g>
				<path class="st5" d="M387.1,137.3c0.6,0.4,0.8,1,1.1,0.9c0.7-0.2,0.9-1.5,1.1-2.7c2.8-6.2,7.4-9.5,9.6-16.3
					c-1.1-1-2.3-1.8-3.3-3.4c-1.6,6.7-5.7,9.1-8.4,14.2c-1,1.5-1.8,2.9-1.6,5.3C386,135.8,386.8,136.8,387.1,137.3L387.1,137.3z"/>
			</g>
		</g>
	</g>
</g>
<g>
	<g>
		<g>
			<path class="st2" d="M407.3,31.9c-2.2,1.2,1.6,3.6,3.1,5.2c18.1,15.4,31.7,30.5,46.2,46.9c2.6,2.6,5,5.4,7.7,8.1
				c1.6,1.6,3.2,3.9,4.9,5.5c14.2,14.4,28.4,28.2,43.7,42.9c1.1,1,2.2,2.1,2.3,2c1-1,1.9-2.1,2.9-3.1c-8.1-12.8-16-25.9-23.5-39.1
				c-14.3-26.5-26-53.7-45.1-78.9C436.6,26.5,420.9,27.8,407.3,31.9L407.3,31.9z"/>
		</g>
		<g>
			<path class="st3" d="M491.8,11.1c-14.1,3.6-28.5,6-42.3,10.1c13.4,17.5,23.4,36.5,32.4,55.9c1.6,2.9,3,5.8,4.7,8.6
				c1,1.7,1.8,4.2,2.9,5.9c6.9,12,14,24,21.3,35.8c2.4,4,4.9,7.9,7.2,11.8c1-1,1.9-2.1,2.8-3c0.2-0.2-0.7-3.8-1.1-5.6
				c-6.8-25.2-10.6-50.7-15.2-76c-2.2-14.9-4.4-29.1-10.4-43C493.6,11.3,492.9,10.8,491.8,11.1L491.8,11.1z"/>
		</g>
		<g>
			<path class="st4" d="M488.6,37.7c-0.8-1.1-1.6-2.2-2.6-1.9c-4.5,2.5-10.3,2.8-15.9,2.9c-3.5,0.3-5.6,2.2-8.8,2.9
				c1,1.7,2,3.5,2.9,5.1c5.3-2.1,11.2-3,17.3-3.3C484.2,42.8,489.3,42.7,488.6,37.7L488.6,37.7z"/>
		</g>
		<g>
			<path class="st4" d="M496.1,61c-0.2-0.6-1.1-2.3-1.5-2.2c-3.8,0.4-7.5,2.2-11.4,2.6c-3.5-0.3-6.8,0.6-8.9,2.5
				c1,1.7,2,3.5,2.9,5.1c1-1.6,2.7-1.5,4.4-2c4.5-2,10.7,0.2,14.4-3.5C496.4,63,495.9,61.7,496.1,61L496.1,61z"/>
		</g>
		<g>
			<path class="st4" d="M503.3,83.8c-0.6-1.1-1.3-2.3-1.8-2.1c-2.4,2.2-6.1,1.9-9.5,1.6c-2.2,0-4.1,0.6-4.3,3.4
				c0.1,0.6,1.3,2.3,2.3,4c2.9-1.6,6.3-2.1,10-2C501.3,88.5,504.3,88.7,503.3,83.8L503.3,83.8z"/>
		</g>
		<g>
			<path class="st4" d="M510.7,107.1c-0.2-0.6-1-2.3-1.1-2.3c-1.9,0.1-3.5,1.4-5.5,1.5c-2-0.6-3.5-0.1-4.3,1.6c1,1.7,2,3.5,2.9,5.1
				c0.6-1.6,1.8-2.2,3.3-2.1c2,0.6,3.5-0.1,4.9-0.6C511.4,110.2,511.3,108.9,510.7,107.1L510.7,107.1z"/>
		</g>
		<g>
			<g>
				<path class="st5" d="M436.9,48.3c-1.4,0.3,0.1,2,0.6,3.2c1,1.1,2.8,2,3.6,1.7c3.8-2.3,10-2.7,15.4-2.8c3.3-0.3,5.6-1.5,7.9-3.5
					c-1-1.7-2-3.5-2.9-5.1c-2.9,2.8-7.4,3.3-12.7,3.4C444.2,45.7,440.2,46,436.9,48.3L436.9,48.3z"/>
			</g>
			<g>
				<path class="st5" d="M454.6,68.9c-1.1,0.3,0.3,2,1,3.1c0.4,0.5,1.5,1.6,2.6,2c1.4-0.4,2.3-1.3,4.1-1.2c5-1.5,11.3-0.6,15.3-3.7
					c-1-1.7-2-3.5-2.9-5.1c-2.2,2-5,2.8-8.6,2.4C461.7,66.9,458.2,67.9,454.6,68.9L454.6,68.9z"/>
			</g>
			<g>
				<path class="st5" d="M473.9,93.2c1.2,1,2.3,2,2.9,1.8c1.8-2,5.6-1.8,9-1.6c2,0,3.1-1,4.1-2.7c-1-1.7-2-3.5-2.9-5.1
					c-1,1.6-2.2,2.7-4.3,2.7c-4-0.1-9.1-1.2-10.1,2.5C472.8,91.5,473.7,92.6,473.9,93.2L473.9,93.2z"/>
			</g>
			<g>
				<path class="st5" d="M491.9,113.9c0.4,0.5,2.1,2.2,2.2,2.1c2-0.1,3.1-1.3,5-1.4c2,0.6,3.2,0.1,3.7-1.6c-1-1.7-2-3.5-2.9-5.1
					c-0.6,1.6-2.3,1.6-3.6,2.2c-0.5,0.2-1.8-0.8-2.3-0.5c-1.4,0.5-3.6-0.1-3.5,2.1C490.6,112.2,491.6,113.3,491.9,113.9L491.9,113.9
					z"/>
			</g>
		</g>
	</g>
</g>
<g>
	<path class="st2" d="M541.6,142.2c-2.2-2.2-4.1-4.3-6.1-6.3c-0.3-0.3-0.7-0.4-1-0.4c-3,0.5-6.1,1.1-9.5,1.7
		c-1.8-4.4-3.6-8.9-5.4-13.5c2.3-1.5,4.3-2.9,6.5-4.3c1.6-1,2.3-1.8,2-3.8c-0.3-2,0.1-4.2,0.2-6.2c0-0.3-0.3-0.8-0.6-1
		c-2.3-1.6-4.4-3.2-6.8-4.7c-0.7-0.4-1-0.9-0.7-1.6c1-2.7,2.1-5.4,3.1-8.1c0.4-1.1,1-2.2,1.6-3.2c0.4-0.8,0.8-1.5,2.2-1
		c2.5,0.8,5.2,1.1,7.7,1.6c0.3,0.1,1-0.1,1.2-0.3c1.9-1.8,4-3.5,5.7-5.5c0.5-0.6,0.3-2.1,0.1-3c-0.3-2.2-1-4.3-1.3-6.5
		c-0.1-0.3,0.4-1,0.8-1.2c2.4-1.1,4.9-2.3,7.4-3.2c1.5-0.6,2.9-1.1,4.5-1.5c0.3-0.1,1.1,0.3,1.3,0.6c1.5,2.3,2.8,4.5,4.3,6.8
		c0.3,0.4,1.1,0.6,1.8,0.7c2.3,0.1,4.8,0.2,7.2,0.2c0.4,0,1-0.3,1.3-0.6c1.6-2.2,3.1-4.4,4.7-6.8c0.3-0.5,0.6-0.8,1.3-0.6
		c2.7,1,5.5,2,8.1,3.1c1.4,0.6,2.5,1.5,3.9,2c0.9,0.3,0.8,1,0.6,1.6c-0.6,2.7-1.1,5.4-1.6,8.1c-0.1,0.3,0.1,1,0.3,1.1
		c1.6,1.8,3.4,3.5,5.1,5.2c0.6,0.6,1,0.9,2,0.6c2.8-0.6,5.7-1,8.9-1.6c1.8,4.4,3.6,8.9,5.5,13.5c-2.5,1.6-4.8,3.1-7.2,4.5
		c-1,0.6-1.6,1.1-1.5,2.5c0.2,2.2,0,4.4-0.1,6.6c-0.1,0.9,0.2,1.5,1,1.9c2.3,1.5,4.4,2.9,6.6,4.3c0.3,0.2,0.6,0.8,0.6,1
		c-1.4,3.5-2.8,6.9-4.2,10.2c-0.3,0.6-0.8,1.1-1,1.7c-0.3,1.1-1,1-1.9,0.9c-2.4-0.6-4.9-1.1-7.4-1.5c-0.6-0.1-1.5,0.1-2,0.6
		c-1.7,1.6-3.2,3.5-5,4.9c-0.8,0.6-0.8,1.2-0.6,1.9c0.4,2.6,1.1,5.2,1.5,7.9c0.1,0.4-0.6,1.2-1,1.5c-1.3,0.8-2.7,1.5-4.2,2
		c-2.8,1-5.6,2-8.3,2.9c-1.7-2.8-3.2-5.2-4.9-7.7c-0.3-0.4-0.8-0.8-1.6-0.7c-2.4,0.2-5-0.1-7.5-0.1c-0.5,0-1.1,0.4-1.5,0.8
		c-1.5,2-2.8,4-4.2,6.1c-0.6,0.9-1,1.1-2.2,0.8c-4.3-1.2-8.1-3-11.7-5.2c-0.3-0.1-0.5-0.8-0.4-1.1C540.3,148,540.9,145,541.6,142.2z
		 M537.5,124.4c4.9,13.3,20.8,22.4,36.9,15.9c16.2-6.6,20.8-23.9,15.9-36.5c-5.3-13.7-21.3-22.2-36.8-16
		C537.8,93.6,531.8,111,537.5,124.4z"/>
	<path class="st5" d="M537.5,124.4c-5.7-13.4,0.3-30.7,15.9-36.9c15.4-6.1,31.6,2.5,36.8,16c4.9,12.8,0.3,30-15.9,36.5
		C558.3,146.7,542.4,137.6,537.5,124.4z M569.6,128.3c7.5-2.9,12.1-11.6,8.7-20.1c-3.6-9.3-13.5-11.4-20.1-8.8
		c-6.8,2.6-12.2,11-8.8,20.2C552.5,127.6,561.6,131.5,569.6,128.3z"/>
	<path class="st6" d="M579.2,100.9c-0.8,0-1.5-0.3-1.9-1c-2.8-3.3-6.8-5.2-11-5.2c-1.5,0-2.5-1.1-2.5-2.5c0-1.4,1.1-2.5,2.5-2.5
		c5.7,0,11.2,2.5,14.9,7c1,1,0.8,2.6-0.3,3.6C580.4,100.7,579.8,100.9,579.2,100.9z"/>
</g>
<g>
	<path class="st7" d="M575.1,240.9c0.7-2.3,1.9-2.8,3.8-3c4.7-0.8,9.3-1.7,14.2-2.6c0-8.5,0-16.7,0-25c-5.5-1.2-10.3-2.4-15.3-3.1
		c-1.6-0.3-2.3-1-2.8-2.3c-1.6-3.8-3.3-7.6-4.8-11.5c-0.3-0.6-0.1-1.5,0.3-2.1c2.5-4,5.1-7.9,7.7-11.7c0.6-1,1.1-1.8,0-2.9
		c-1.8-1.8-3.1-4-4.9-5.7c-3.6-3.5-7.3-6.8-10.9-10.1c-1-0.9-1.6-0.6-2.4,0.1c-3.9,2.6-7.7,5.2-11.7,7.6c-0.7,0.4-1.8,0.5-2.5,0.3
		c-3.8-1.5-7.5-3.1-11.4-4.9c-1-0.4-2.2-1.3-2.3-2.2c-1-4.5-1.6-9-2.6-13.4c-0.1-0.7-1-1.6-1.7-1.7c-2.7-0.3-5.4-0.5-8.1-0.4
		c-1,0-2.1,0.1-3.1,0.1v28.1c0.1,0,0.2,0,0.3,0c28.5,0.1,48.6,23.9,48.3,49c-0.3,23.4-18.5,48.1-48.5,48.1c-0.1,0-0.1,0-0.1,0v28.3
		c0.8,0.1,1.6,0.1,2.4,0.1c2.6,0.1,5.2-0.1,7.9-0.5c1-0.1,2.4-1,2.6-1.6c1-4.5,1.6-9,2.6-13.4c0.3-1.1,0.6-2,2.3-2.5
		c3.8-1.2,7.3-3.2,11-4.7c1-0.3,2.5-0.3,3.5,0.3c3.6,2.3,7.2,4.7,10.7,7c1.3,0.9,2.3,1.5,3.6-0.2c0.6-0.9,1.8-1.4,2.6-2.2
		c4.4-4.5,8.8-9,13.2-13.6c0.3-0.3,0.1-1.4-0.3-1.9c-2.5-3.7-5-7.5-7.7-11.2c-0.9-1.2-0.9-2.3-0.3-3.6
		C572.4,248,574.1,244.6,575.1,240.9z"/>
	<path class="st8" d="M468.3,222.6c-0.6-24.8,19.9-48.4,48.4-48.4v-28.1c-3.6,0.1-7.2,0.3-10.8,0.4c-0.8,0.1-2,0.8-2.2,1.4
		c-0.8,3.6-1.3,7.5-2.2,11.2c-0.3,1.7-0.9,4.2-2.2,4.9c-4,2.2-8.2,3.5-12.5,5.1c-0.6,0.3-1.5,0.1-2.1-0.3c-3.8-2.3-7.7-4.7-11.4-7.4
		c-1.8-1.5-2.8-0.8-4.1,0.3c-1.6,1.3-3.1,2.6-4.5,4.2c-3.5,3.6-6.8,7.2-10.1,10.8c-1,1.1-0.8,1.9,0,3.1c2.6,3.8,5.2,7.8,7.7,11.7
		c0.3,0.5,0.5,1.3,0.3,1.8c-1.4,3.2-3.4,6.3-4.3,9.6c-0.8,3.3-2.5,4.3-5.6,4.8c-4.3,0.6-8.4,1.6-13,2.6c0,8.5,0,16.7,0,24.9
		c5.8,1.2,11,2.2,16.2,3.3c0.5,0.1,1.1,0.8,1.3,1.2c1.9,4.5,3.6,9.1,5.7,13.9c-2.8,4-5.7,8.3-8.6,12.7c-0.3,0.5-0.3,1.6,0,2.1
		c4.5,5.7,9.5,11.2,15.4,15.5c1.7,1.3,2.5,1,3.9,0c3.5-2.3,6.9-4.7,10.5-6.9c0.8-0.4,2-0.8,2.8-0.4c4,1.6,7.7,3.6,11.8,4.9
		c1.5,0.4,1.9,1.2,2.2,2.2c1,4.9,1.9,10,2.9,15.4c4.2,0.2,8.4,0.4,12.7,0.6v-28.5C487.2,271.3,467.6,246.8,468.3,222.6z"/>
	<path class="st2" d="M517,174.1c-0.1,0-0.2,0-0.3,0V196h0.1c12.1,0.1,26.5,9.6,26.5,26.6c0,15.7-12.7,26.5-26.5,26.5v22
		c0.1,0,0.1,0,0.1,0c30-0.1,48.2-24.8,48.5-48.1C565.6,198.1,545.5,174.2,517,174.1z"/>
	<path class="st9" d="M516.7,249.2c-14.6,0-26.6-12-26.5-26.6c0.1-16.7,14.2-26.5,26.5-26.5v-21.9c-28.5,0-49,23.7-48.4,48.5
		c-0.6,24.3,18.8,48.8,48.4,48.7V249.2C516.7,249.2,516.7,249.2,516.7,249.2z"/>
	<path class="st6" d="M542,200.2c-1,0-2.1-0.4-2.8-1.3c-4-4.7-9.7-7.4-15.9-7.4c-2,0-3.6-1.6-3.6-3.6c0-2,1.6-3.6,3.6-3.6
		c8.2,0,16,3.6,21.3,10.1c1.3,1.6,1.1,3.8-0.4,5.1C543.6,199.9,542.9,200.2,542,200.2z"/>
	<path class="st5" d="M516.7,291.7c0.8,0,1.5,0.1,2.2,0.1c0.2,0,0.4,0,0.6,0c0.6,0,1.2,0,1.8-0.1c0.2-1,0.3-1.8,0.5-2.8
		c0.3-1.9,0.7-3.8,1.1-5.7c0.2-0.8,0.3-1.6,0.6-2.3c-2.2,0.3-4.5,0.4-6.8,0.4L516.7,291.7L516.7,291.7z"/>
	<path class="st5" d="M523.4,165.7c-0.3-0.6-0.4-1.1-0.6-1.8c-0.6-2.6-1.1-5.4-1.6-7.9c-0.1-0.3-0.1-0.5-0.1-0.8c-0.4,0-1,0-1.4,0
		h-0.4c-0.8,0-1.6,0-2.5,0.1v10.1C519,165.4,521.3,165.5,523.4,165.7z"/>
	<path class="st5" d="M560.6,171.9c-0.1-0.1-0.1-0.1-0.3-0.3c-2.6,1.7-5,3.3-7.5,4.9c-0.4,0.3-1,0.6-1.5,0.8c2.1,1.6,4,3.3,5.8,5.2
		c1.7,1.8,3.4,3.6,4.9,5.6c0.2-0.4,0.4-0.8,0.6-1.2c1.6-2.6,3.5-5.4,5.2-7.9c-0.3-0.4-0.8-0.9-1-1.2
		C565,175.8,562.8,173.9,560.6,171.9z"/>
	<path class="st5" d="M562.2,259c-2.9,3.9-6.4,7.5-10.3,10.5c0.6,0.3,1.1,0.5,1.6,0.8c2.4,1.5,4.9,3,7.2,4.7
		c2.3-2.3,4.7-4.8,7.2-7.5c-1.5-2-2.9-4.2-4.3-6.3C562.9,260.6,562.5,259.7,562.2,259z"/>
	<path class="st5" d="M584.1,218.1c-2.6-0.6-5.2-1.1-7.5-1.5c-1-0.1-1.9-0.3-2.8-0.8c0.3,2.6,0.5,5.2,0.5,7.9c0,2.3-0.2,4.5-0.4,6.8
		c1.1-0.4,2.3-0.8,3.6-1c2.3-0.4,4.5-0.8,6.8-1.2L584.1,218.1z"/>
	<path class="st10" d="M453.4,217.4c-1.6,0.3-3.4,0.6-5.2,1v10.4c3.1,0.6,6.1,1.2,9.1,1.9c0.4,0.1,0.9,0.3,1.3,0.3
		c-0.3-2.4-0.4-5-0.3-7.5c-0.1-2.4,0.1-5,0.3-7.5C457.2,216.7,455.3,217.1,453.4,217.4z"/>
	<path class="st10" d="M510,161.2l-0.1,0.2c-0.3,1.2-0.6,2.8-1.3,4.4c2.5-0.3,5-0.5,7.5-0.5h0.3c0.1,0,0.2,0,0.3,0v-10.1
		c-1.9,0.1-3.8,0.1-5.7,0.2C510.7,157.3,510.4,159.2,510,161.2z"/>
	<path class="st10" d="M516.4,281.5h-0.3c-2.3,0-4.7-0.1-7-0.4c0.3,0.6,0.3,1.2,0.5,1.8c0.6,2.9,1.1,5.7,1.6,8.6
		c1.8,0.1,3.6,0.1,5.5,0.3v-10.2C516.7,281.5,516.5,281.5,516.4,281.5z"/>
	<path class="st10" d="M470.3,259.3c0,0-1.6,2.3-2.2,3.2c-1.2,1.8-2.4,3.6-3.6,5.5c2.2,2.4,4.5,4.9,7.2,7.2c2.5-1.6,5-3.3,7.5-4.9
		c0.5-0.3,1-0.6,1.6-0.8c-2.2-1.6-4.2-3.4-6-5.3C473.1,262.6,471.7,261.1,470.3,259.3z"/>
	<path class="st10" d="M477.1,175.3c-1.9-1.1-3.8-2.3-5.7-3.6c-0.3,0.2-0.4,0.4-0.6,0.6c-1.8,1.9-3.6,3.8-5.3,5.7
		c-0.3,0.3-0.8,0.8-1,1.2c1.7,2.6,3.5,5.3,5,7.8c0.2,0.3,0.3,0.6,0.6,1c1.5-1.8,2.9-3.6,4.5-5.2c1.9-2,3.9-3.7,6.1-5.4
		c-0.4-0.2-0.8-0.4-1.2-0.6C478.7,176.2,478,175.8,477.1,175.3z"/>
</g>
<g>
	<path class="st8" d="M194.5,293.7h-3.8h-3.9c-4.9,0-8.9,4.1-8.9,8.9v38.5c0,4.9,4.1,8.9,8.9,8.9h3.9h3.8c2.2,0,4.1-1.8,4.1-4.1
		v-48.2C198.5,295.6,196.7,293.7,194.5,293.7z"/>
	<path class="st7" d="M349,350.1h-3.8c-2.2,0-4.1-1.8-4.1-4.1v-48.2c0-2.2,1.8-4.1,4.1-4.1h3.8h3.9c4.9,0,8.9,4.1,8.9,8.9v38.5
		c0,4.9-4.1,8.9-8.9,8.9H349L349,350.1z"/>
	<path class="st7" d="M313.4,257.8h-28.3c-2.8,0-5.4-2.5-5.4-5.4v-1.3h-9.9v89h2h3.7c1.1,0,2,0.9,2,1.9v3.7c0,1.1-0.9,2-2,2h-3.7
		v0.1h-2v28.8h43.5c11.3,0,20.6-9.3,20.6-20.6v-77.8C334,267,324.6,257.7,313.4,257.8z M305.9,345.8c0,1.2-1,2.1-2.1,2.1h-11.3
		c-1.1,0-2.1-1-2.1-2.1v-3.5c0-1.2,1-2.1,2.1-2.1h11.2c1.2,0,2.1,1,2.1,2.1L305.9,345.8L305.9,345.8z M298.1,314
		c-5.7,0-10.3-4.6-10.3-10.3s4.6-10.3,10.3-10.3s10.3,4.6,10.3,10.3S303.8,314,298.1,314z"/>
	<rect x="269.8" y="347.9" class="st7" width="2" height="0.1"/>
	<path class="st7" d="M282.8,247.7c4.5-2.9,3.2-9.5-1.1-12.9c0,0-11.8,8.7-11.8,16.3c3.5,0,9.9,0,9.9,0S279.2,250.1,282.8,247.7z"/>
	<path class="st8" d="M269.8,251.2H260v1.1c0,3.1-3.2,5.4-6.2,5.4h-27.4c-11.3,0-20.6,9.3-20.6,20.6v77.9c0,11.3,9.3,20.6,20.6,20.6
		h43.5v-28.9h-5.7c-1.1,0-2-0.9-2-2v-3.7c0-1.1,0.9-2,2-2h3.1h2.7L269.8,251.2L269.8,251.2z M249.3,345.9c0,1.1-0.9,2-2,2h-11.5
		c-1.1,0-2-0.9-2-2v-3.7c0-1.1,0.9-2,2-2h11.5c1.1,0,2,0.9,2,2V345.9z M241.5,313.9c-5.7,0-10.3-4.6-10.3-10.3s4.6-10.3,10.3-10.3
		s10.3,4.7,10.3,10.3C251.8,309.3,247.2,313.9,241.5,313.9z"/>
	<path class="st8" d="M267.1,236.3c-3.8,2.5-7.1,6.7-7.1,14.9c4.6,0,6.4,0,9.9,0c0-7.7,11.9-16.4,11.9-16.4
		C277.5,231.4,270.8,233.8,267.1,236.3z"/>
	<path class="st11" d="M186.7,327.6c0.4,0.6,0.6,1.4,0.3,2.1c-1,4.3-0.2,8.7,2.2,12.2c0.8,1.1,0.5,2.8-0.5,3.7
		c-1.1,0.9-2.7,0.7-3.5-0.4c-3.4-4.7-4.5-10.7-3.1-16.4c0.3-1.4,1.7-2.3,3.1-1.9C186,326.8,186.3,327.1,186.7,327.6z"/>
	<path class="st11" d="M354.7,326.8c1.3-0.3,2.7,0.6,3.1,1.9c1.5,5.7,0.3,11.7-3.1,16.4c-0.8,1.1-2.3,1.3-3.5,0.4
		c-1-0.9-1.3-2.5-0.5-3.7c2.4-3.5,3.3-7.9,2.2-12.2c-0.3-0.7-0.1-1.5,0.3-2.1C353.6,327.1,354,326.8,354.7,326.8z"/>
	<path class="st4" d="M269.8,387.7c7.3,0,9.3,1.4,11.7,6.3c3.7,7.6,7.6,15.3,3.6,19.4c-4.1,4.1-10.7,5.9-15.3,5.9L269.8,387.7
		L269.8,387.7L269.8,387.7z"/>
	<path class="st4" d="M269.8,422.4c0,0,6.7-0.3,8.5-1.3c1.8-1.1,7.1,30.5,6.5,39.7c-0.7,9.3-3.5,41.1-3.5,41.1l-11.5,17.3V422.4z"/>
	<path class="st5" d="M269.8,387.7c-7.3,0-9.3,1.4-11.7,6.3c-3.7,7.6-7.6,15.3-3.6,19.4c4.1,4.1,10.7,5.9,15.3,5.9L269.8,387.7
		L269.8,387.7L269.8,387.7z"/>
	<path class="st5" d="M269.8,422.5c0,0-6.7-0.3-8.5-1.4c-1.8-1.1-7.1,30.5-6.5,39.7s3.5,41.1,3.5,41.1l11.5,17.2V422.5z"/>
	<path class="st9" d="M318.5,406.5c9.1,2.5,11.9,29.7,53.6,29.7c55.1,0,55.1,79.1,55.1,104.4c-26.6,0-140.4,0-157.3,0
		c0-16.9-0.1-11.6-0.1-15.4c0-4.2,0-9.7,0-14.3c0,0,23.3-30.6,29.1-45c5.8-14.4,8.4-51.3,8.4-51.3
		C308.9,410.2,313.8,406.5,318.5,406.5"/>
	<path class="st10" d="M221.1,406.5c4.7,0,9.6,3.7,11.1,8.1c0,0,2.6,36.9,8.4,51.3c5.8,14.4,29.1,45,29.1,45c0,4.6,0,10.1,0,14.3
		c0,3.8-0.1-1.5-0.1,15.4c-16.9,0-130.7,0-157.3,0c0-25.3,0-104.4,55.1-104.4C209.2,436.2,212.1,409.1,221.1,406.5"/>
	<circle class="st12" cx="269.8" cy="525.9" r="9.9"/>
</g>
<g>
	<g>
		<g>
			<path class="st2" d="M225.5,257.1c0.4,0.3,0.5,0.8,1.4,1c12.2,0.2,24.1,0.9,36.1,2.7c19,2.9,38.1,6.2,55.2,4.5
				c0.7-0.1,0.1-1,0-1.6c-4.4-8.9-7.2-17.3-10.8-25.7c-15.6,2.9-33.2,0.1-51-1.8c-1-0.1-2.4-0.2-3.5,0c-0.7-0.1-1.3-0.2-2-0.3
				c-8.1-0.3-16.1-0.5-24.1,0.1C225.7,242.8,226.1,249.8,225.5,257.1L225.5,257.1z"/>
		</g>
		<g>
			<path class="st3" d="M227.9,214.9c-0.3,1.4-0.2,2.8-0.4,4.1c-0.8,5.6-1.5,10.9-2.1,16.6c7.9-0.3,15.6-0.5,23.3,0
				c11.1,0.8,21.4,2.5,32.3,3.2c9.1,0.4,17.3,0.1,25.5-0.8c-0.7-1.7-1.6-3.5-2.2-5.2c-0.8-2.8-1.8-5.2-2.9-8
				c-1.3-4.2-2.3-8.5-4.3-12.7c-0.4-0.3-0.8-0.4-1.4-0.4c-12.8,2.9-26.3,1.6-40.5,1.2c-8.5-0.5-17.3-0.4-26.2,1.1
				C228.7,214.1,228.5,214.5,227.9,214.9L227.9,214.9z"/>
		</g>
		<g>
			<path class="st4" d="M242.5,220.6c-0.7,0.1-1.4,0.3-1.5,0.8c0.6,3.7-0.2,7-0.8,10.6c-0.1,1.8-0.2,3.3,1,4.8c1,0.7,2.6,0,3.6,0.2
				c-1-1.9-0.9-3.8-0.5-5.5c0.1-3.1,0.5-6.3,0.2-9.5C244.2,221.2,243.3,221,242.5,220.6L242.5,220.6z"/>
		</g>
		<g>
			<path class="st4" d="M256.4,220.6c-1-0.1-1.6,0.5-1.4,1c0.4,1,0.6,2.4,0.7,3.3c-0.3,3.9-0.9,8.1,0.6,12c1.3,0.5,2.4,0.2,3.9,0.1
				c-2-3.5-1.2-7.2-1.5-10.8C258.7,224.7,259.5,221,256.4,220.6L256.4,220.6z"/>
		</g>
		<g>
			<path class="st4" d="M269.7,220.1c-0.3,0-1,0.1-1,0.6c0.5,3.3,1.3,6.8,1.4,10.1c-0.1,2.1-0.2,4.3,1.8,6.2c0.3,0.5,2,0.3,3,0.3
				c-1.6-3.3-1.9-6.5-1.8-9.8c-0.2-2.3-0.2-4.7-1.6-6.9C271.2,220.3,270.4,220.2,269.7,220.1L269.7,220.1z"/>
		</g>
		<g>
			<path class="st4" d="M282.9,219.5c-0.6,0.2-1.2,0.4-1.2,0.7c1.7,4.4,1.6,8.6,3.1,13.2c0.4,1.4,0.2,2.7,1.6,3.9
				c1,0.7,2.3-0.1,3.3,0.3c-1.1-1.7-1.3-3.6-2.1-5.4c-0.7-1.7-0.2-3.5-0.7-5.1c-0.4-1.4-0.7-2.5-0.9-3.8c-0.4-0.9-0.7-1.9-1.1-2.7
				C284.7,220,284.1,219.4,282.9,219.5L282.9,219.5z"/>
		</g>
		<g>
			<g>
				<path class="st5" d="M241.8,252.1c0.7,0.9,2.5,1.5,3.8,1.2c0,0,0.4-0.1,0.5-0.4c-0.3-2.3-1.1-4.4-0.7-6.3
					c0.6-3.1,0.4-6.4-0.3-9.7c-1.5,0-2.6,0.3-3.9-0.2c0.4,1,0.9,2.4,0.6,3.5C241.9,244.2,241.1,248.1,241.8,252.1L241.8,252.1z"/>
			</g>
			<g>
				<path class="st5" d="M258.9,253.1c1,1.2,2.9,1.6,4.2,0.8c-1.9-4.4-0.8-8.2-1.8-12.7c-0.2-1.3-0.1-2.5-1-4
					c-1.1,0.1-2.1,0.2-3.5,0c2,4.1,1.2,7.9,1.1,12C257.6,250.3,259,251.9,258.9,253.1L258.9,253.1z"/>
			</g>
			<g>
				<path class="st5" d="M278.2,255.2c0.4,0.1,1.2-0.1,1.2-0.6c-0.4-3.4-1.9-7.1-2.3-10.5c-0.1-2.1-0.4-4.4-1.8-6.7
					c-1,0.1-2,0.2-3.4-0.1c0.3,1.6,1.3,3.3,1.6,4.9c0.3,4.1-0.5,8.1,2.4,12.3C276.4,254.9,277.6,255.1,278.2,255.2L278.2,255.2z"/>
			</g>
			<g>
				<path class="st5" d="M294.2,255.7c0.8,0.1,1.5,0.3,1.4-0.5c-1.5-3.7-2.5-7.3-2.9-10.8c-0.5-2.5-1.9-4.8-2.7-7.1
					c-1.3,0.1-2.2,0.5-3.7-0.1c0.7,1.1,1.1,2.6,2,4c1.4,4.7,0.7,9.1,4,13.9C292.8,255.5,293.5,255.6,294.2,255.7L294.2,255.7z"/>
			</g>
		</g>
	</g>
</g>
<g>
	<path class="st10" d="M171.9,158.4L98.1,279.5c-3.2,5.3-1.5,6.9,3.7,3.7l121.1-73.8c2.1-1.3,4.6-3.4,6.9-5.7l-52.3-52.3
		C175.3,153.8,173.2,156.3,171.9,158.4z"/>
	<path class="st5" d="M309.2,75.8c3.2-5.3,1.5-6.9-3.7-3.7l-121.1,73.8c-2.1,1.3-4.6,3.3-6.8,5.6l52.3,52.3c2.2-2.2,4.3-4.7,5.6-6.8
		L309.2,75.8z"/>
	<path class="st5" d="M197.6,263c-7.4-7.4,7-33.9,32.1-59.1c0,0,0,0,0,0l-3-3l-14-14l-13.5-13.5c0,0,0,0,0,0
		c-25.2,25.2-39.6,51.7-32.1,59.1l14,14L197.6,263"/>
	<path class="st4" d="M288.9,171.6c-7.4-7.4-33.9,7-59.1,32.1c0,0,0,0,0,0l-3-3l-14-14l-13.5-13.5c0,0,0,0,0,0
		c25.2-25.2,51.7-39.6,59.1-32.1l14,14L288.9,171.6"/>
	<g>
		<path class="st11" d="M122.9,282.5c0,9.2,7.4,16.7,16.7,16.8v-33.6C130.3,265.8,122.9,273.3,122.9,282.5z"/>
		<path class="st7" d="M156.5,282.5c0-9.3-7.5-16.8-16.8-16.8c0,0-0.1,0-0.1,0v33.6c0,0,0.1,0,0.1,0
			C148.9,299.3,156.5,291.8,156.5,282.5z"/>
		<line class="st13" x1="139.7" y1="265.7" x2="139.5" y2="211.4"/>
		<path class="st11" d="M137.7,299.3c-4.4,0-8.1,3.6-8.1,8.1l-6.7,35.5c0,4.4,3.6,8.1,8.1,8.1h8.6v-51.6H137.7z"/>
		<path class="st7" d="M156.5,342.9l-6.7-35.5c0-4.4-3.6-8.1-8.1-8.1h-2.1v51.6h8.9C152.8,350.9,156.5,347.3,156.5,342.9z"/>
	</g>
</g>
</svg>
