<?xml version="1.0" encoding="utf-8"?>
<!-- Generator: Adobe Illustrator 19.0.0, SVG Export Plug-In . SVG Version: 6.00 Build 0)  -->
<svg version="1.1" id="Layer_1" xmlns="http://www.w3.org/2000/svg" xmlns:xlink="http://www.w3.org/1999/xlink" x="0px" y="0px"
	 viewBox="96 11 512 512" style="enable-background:new 96 11 512 512;" xml:space="preserve">
<style type="text/css">
	.st0{fill:#E6EAEA;}
	.st1{fill:#CDD4D5;}
	.st2{fill:#9BAAAB;}
	.st3{fill:#687F82;}
	.st4{fill:#365558;}
	.st5{fill:#FFFFFF;}
	.st6{fill:#4ACFD9;}
	.st7{fill:#0295AA;}
	.st8{fill:#FF8C29;}
	.st9{fill:#FD6A33;}
</style>
<path class="st0" d="M597.8,11H106.2c-4.5,0-8.1,3.6-8.1,8.1V433c0,4.5,3.6,8.1,8.1,8.1h491.5c4.5,0,8.1-3.6,8.1-8.1V19.1
	C605.8,14.6,602.2,11,597.8,11z"/>
<path class="st1" d="M377.9,424.9h-51.7c-4.5,0-8.1,3.6-8.1,8.1v81.9c0,4.5,3.6,8.1,8.1,8.1h51.7c4.5,0,8.1-3.6,8.1-8.1V433
	C386,428.5,382.3,424.9,377.9,424.9z"/>
<g>
	<path class="st2" d="M412.4,476.7H291.6c-16.3,0-29.6,13.3-29.6,29.6v8.6c0,4.5,3.6,8.1,8.1,8.1h163.8c4.5,0,8.1-3.6,8.1-8.1v-8.6
		C442,489.9,428.7,476.7,412.4,476.7z"/>
	<path class="st2" d="M326.1,424.9c-4.5,0-8.1,3.6-8.1,8.1v81.9c0,4.5,3.6,8.1,8.1,8.1H352v-98.1L326.1,424.9L326.1,424.9z"/>
</g>
<g>
	<path class="st3" d="M291.6,476.7c-16.3,0-29.6,13.3-29.6,29.6v8.6c0,4.5,3.6,8.1,8.1,8.1H352v-46.3H291.6z"/>
	<path class="st3" d="M605.8,360.2H98.2V433c0,4.5,3.6,8.1,8.1,8.1h491.5c4.5,0,8.1-3.6,8.1-8.1V360.2z"/>
</g>
<path class="st4" d="M364.9,402.3h-25.9c-4.5,0-8.1-3.6-8.1-8.1s3.6-8.1,8.1-8.1h25.9c4.5,0,8.1,3.6,8.1,8.1
	S369.4,402.3,364.9,402.3z"/>
<g>
	<path class="st5" d="M498.6,402.3h-86.2c-4.5,0-8.1-3.6-8.1-8.1s3.6-8.1,8.1-8.1h86.2c4.5,0,8.1,3.6,8.1,8.1
		S503.1,402.3,498.6,402.3z"/>
	<path class="st5" d="M563.3,402.3h-30.2c-4.5,0-8.1-3.6-8.1-8.1s3.6-8.1,8.1-8.1h30.2c4.5,0,8.1,3.6,8.1,8.1
		S567.7,402.3,563.3,402.3z"/>
</g>
<g>
	<path class="st4" d="M352,333.3c-4.5,0-8.1-3.6-8.1-8.1V57.9c0-4.5,3.6-8.1,8.1-8.1c4.5,0,8.1,3.6,8.1,8.1v267.3
		C360.1,329.7,356.5,333.3,352,333.3z"/>
	<path class="st4" d="M477,333.3c-4.5,0-8.1-3.6-8.1-8.1V57.9c0-4.5,3.6-8.1,8.1-8.1s8.1,3.6,8.1,8.1v267.3
		C485.1,329.7,481.5,333.3,477,333.3z"/>
	<path class="st4" d="M227,333.3c-4.5,0-8.1-3.6-8.1-8.1V57.9c0-4.5,3.6-8.1,8.1-8.1c4.5,0,8.1,3.6,8.1,8.1v267.3
		C235,329.7,231.4,333.3,227,333.3z"/>
</g>
<path class="st2" d="M227,200.7c-28.2,0-51.2,23-51.2,51.2s23,51.2,51.2,51.2s51.2-23,51.2-51.2S255.2,200.7,227,200.7z"/>
<path class="st3" d="M175.8,251.9c0,28.2,23,51.2,51.2,51.2V200.7C198.7,200.7,175.8,223.7,175.8,251.9z"/>
<path class="st6" d="M352,80c-28.2,0-51.2,23-51.2,51.2s23,51.2,51.2,51.2c28.2,0,51.2-23,51.2-51.2S380.2,80,352,80z"/>
<path class="st7" d="M352,182.4V80c-28.2,0-51.2,23-51.2,51.2S323.8,182.4,352,182.4z"/>
<path id="SVGCleanerId_0" class="st8" d="M477,179.2c-28.2,0-51.2,23-51.2,51.2s23,51.2,51.2,51.2c28.2,0,51.2-23,51.2-51.2
	S505.3,179.2,477,179.2z"/>
<g>
	<path id="SVGCleanerId_0_1_" class="st8" d="M477,179.2c-28.2,0-51.2,23-51.2,51.2s23,51.2,51.2,51.2c28.2,0,51.2-23,51.2-51.2
		S505.3,179.2,477,179.2z"/>
</g>
<path class="st9" d="M425.8,230.4c0,28.2,23,51.2,51.2,51.2V179.2C448.8,179.2,425.8,202.1,425.8,230.4z"/>
</svg>
