<?xml version="1.0" encoding="utf-8"?>
<!-- Generator: Adobe Illustrator 19.0.0, SVG Export Plug-In . SVG Version: 6.00 Build 0)  -->
<svg version="1.1" id="Layer_1" xmlns="http://www.w3.org/2000/svg" xmlns:xlink="http://www.w3.org/1999/xlink" x="0px" y="0px"
	 viewBox="-49 141 512 512" style="enable-background:new -49 141 512 512;" xml:space="preserve">
<style type="text/css">
	.st0{display:none;}
	.st1{display:inline;}
	.st2{fill:#CDD4D5;}
	.st3{fill:#E6EAEA;}
	.st4{fill:#4ACFD9;}
	.st5{fill:#0295AA;}
	.st6{fill:#FFFFFF;}
	.st7{fill:#FF8C29;}
	.st8{fill:#FD6A33;}
	.st9{fill:#9BAAAB;}
	.st10{fill:#365558;}
	.st11{fill:#FFD1A9;}
</style>
<g id="Layer_3" class="st0">
	<rect x="1049" y="-422.4" class="st1" width="512" height="512.8"/>
</g>
<g>
	<g>
		<g>
			<path class="st2" d="M77.1,228.5c0.1-0.7,0.7-0.9,0.3-1.5c-4.2-3.4-8.1-5.4-12.9-7.9c-19.9-14-34.6-30.1-50.7-46.6
				c-8.5-9.3-16.5-17.4-24.8-26.2l-1-0.5c-1.9-2.3-4.5-6.4-5.4-4.2c-1.5,2.4-3.2,5.6-4.4,9.3c-3.2,5.7-6.4,12.2-10.1,18.1
				c19,21.1,36,45.8,56.2,68.3c9.4,8.9,19.4,16.7,30.3,24.1C62.4,249.9,70.4,239.2,77.1,228.5L77.1,228.5z"/>
		</g>
		<g>
			<path class="st3" d="M29.2,298c3.8-4.4,7.2-9.4,11.4-13.9c5.3-7.8,11.9-14,15.8-21.9c-10-5.6-19.3-13-27.2-20.9
				c-22.5-23.1-39.9-49.7-60-70.5c-5.1,9.3-11,19-17.5,28.3c-2.1,2.8-1.9,5.8,0.5,8.7c15.4,17.4,26.4,39.5,41.6,59.3
				c1.9,2.3,3.4,5.4,6.1,8.1c1.7,1.6,3.4,3.1,4.6,4.9c0.8,0.5,1.8,1.5,2.5,2c1,1.1,1.2,1.8,2.2,2.8c6.2,5,11.5,10.4,18.1,13.7
				C28,298.5,28.6,298.3,29.2,298L29.2,298z"/>
		</g>
		<g>
			<path class="st4" d="M19.2,270.3c2.1,2.1,3.8-1.5,4.7-2.5c1.2-3.3,3.6-6.4,5.8-8.7c4.3-3,6.9-8.3,9.6-12.9
				c-1.1-1.1-2.5-2.6-4.2-3.5c-3.2,4.8-6.3,10.2-10.8,14c-2.7,2.5-4.4,6-6.1,9.5C17.5,267.3,17.5,268.7,19.2,270.3L19.2,270.3z"/>
		</g>
		<g>
			<path class="st4" d="M2.6,254.4c1.3,0.3,2.5,0.5,2.8-0.3c3.5-7.8,9.4-12.1,13.6-18.6c0.5-1.6,0.9-3.2,1.9-5
				c-1.5-0.9-2.8-2.6-3.9-3.7c-2.3,7.9-8.9,11-13,18.2C3.1,247.7-0.7,249.7,2.6,254.4L2.6,254.4z"/>
		</g>
		<g>
			<path class="st4" d="M-13.6,237.3c0.7,0.5,1.4,1,1.4,1c3.2-3.3,4.8-8.2,7.9-11.5c4.2-2.8,6.1-7.8,8.5-12.2
				c-1.3-1.7-2.6-2.7-3.8-4.5c-1.9,4.2-3.7,9.1-7.9,11.9c-2.6,3-4.6,6.6-6.8,11.1C-15.1,234.2-15.1,235.7-13.6,237.3L-13.6,237.3z"
				/>
		</g>
		<g>
			<path class="st4" d="M-28.1,219.4c0.8,1.2,1.9,1.6,2.6,0.6c2.5-8.1,8.5-10.7,12-17.6c0.4-1.6,1.7-3.4,1.2-4.7
				c-0.1-1.4-1.6-3.1-2.9-4.1c-0.2,0.8-0.4,1.5-0.6,2.3c-3.6,6.2-8.5,9.9-12,17.6C-28.5,214.3-30.6,215.1-28.1,219.4L-28.1,219.4z"
				/>
		</g>
		<g>
			<g>
				<path class="st5" d="M53.1,223c-1.5-1.6,1.1-3.2-3.7-4.3c-4.1,8.4-11.3,13.8-14.9,23.6c1.6,0.9,3,2.5,4.2,3.5
					c1-1.8,1.4-3.4,1.9-5C44.1,233.8,51.4,230.6,53.1,223L53.1,223z"/>
			</g>
			<g>
				<path class="st5" d="M33.9,208.5c0.1-0.7,0.3-1.5-0.1-2.1c-0.7-1.2-3.2-3.8-4-1.5c-2.6,6.5-7.8,10.3-11.5,16.5
					c-0.9,1.7-1.3,3.3-2.2,5c1.5,0.9,3,1.9,4.4,3.5C24,221.6,30.2,216,33.9,208.5L33.9,208.5z"/>
			</g>
			<g>
				<path class="st5" d="M14.7,188.7c-0.7-0.5-1.5-0.9-1.9-0.8c-2.9,5.1-6.2,9.7-9.9,15c-1,2.5-3.4,3.9-2.8,6.6
					c0.1,1.4,2.2,2.8,3.4,4.6c1.8-5.6,5-10.1,8.3-14C14.3,198,17.9,194,14.7,188.7L14.7,188.7z"/>
			</g>
			<g>
				<path class="st5" d="M-2.2,172.1c-0.7-0.5-0.9-1.1-1.3-1c-0.8,0.2-1,1.7-1.3,3.1c-3.2,7.2-8.5,10.9-11.1,18.8
					c1.3,1.1,2.6,2.1,3.8,3.9c1.8-7.7,6.6-10.5,9.7-16.4c1.1-1.7,2.1-3.4,1.8-6.1C-0.9,173.8-1.9,172.7-2.2,172.1L-2.2,172.1z"/>
			</g>
		</g>
	</g>
</g>
<g>
	<g>
		<g>
			<path class="st2" d="M288,479.5c2.5-1.4-1.8-4.2-3.6-6c-20.9-17.7-36.6-35.2-53.3-54.1c-3-3-5.8-6.2-8.9-9.3
				c-1.9-1.9-3.7-4.5-5.6-6.3c-16.4-16.6-32.7-32.5-50.4-49.4c-1.3-1.2-2.5-2.4-2.6-2.3c-1.1,1.2-2.2,2.4-3.3,3.6
				c9.3,14.8,18.4,29.9,27.1,45.1c16.5,30.6,30,61.9,52,91C254.2,485.7,272.3,484.2,288,479.5L288,479.5z"/>
		</g>
		<g>
			<path class="st3" d="M190.6,503.5c16.2-4.1,32.9-6.9,48.8-11.7c-15.4-20.2-27-42.1-37.4-64.5c-1.9-3.3-3.5-6.7-5.4-9.9
				c-1.1-2-2.1-4.8-3.3-6.8c-8-13.8-16.1-27.7-24.6-41.3c-2.8-4.6-5.6-9.1-8.3-13.6c-1.1,1.2-2.2,2.4-3.2,3.5
				c-0.2,0.2,0.8,4.4,1.3,6.4c7.8,29,12.2,58.5,17.5,87.6c2.5,17.2,5.1,33.5,12,49.6C188.5,503.3,189.3,503.8,190.6,503.5
				L190.6,503.5z"/>
		</g>
		<g>
			<path class="st4" d="M194.2,472.8c0.9,1.3,1.9,2.5,3,2.2c5.2-2.9,11.9-3.2,18.3-3.4c4-0.3,6.5-2.5,10.1-3.4c-1.1-2-2.3-4-3.4-5.9
				c-6.1,2.4-12.9,3.5-19.9,3.8C199.3,466.9,193.4,467,194.2,472.8L194.2,472.8z"/>
		</g>
		<g>
			<path class="st4" d="M185.6,445.9c0.2,0.7,1.3,2.6,1.7,2.5c4.4-0.5,8.6-2.5,13.1-3c4,0.4,7.8-0.7,10.3-2.9c-1.1-2-2.3-4-3.4-5.9
				c-1.2,1.9-3.1,1.7-5.1,2.3c-5.2,2.3-12.3-0.2-16.6,4C185.3,443.7,185.8,445.1,185.6,445.9L185.6,445.9z"/>
		</g>
		<g>
			<path class="st4" d="M177.3,419.7c0.7,1.3,1.5,2.6,2.1,2.4c2.8-2.5,7-2.2,10.9-1.9c2.5,0,4.7-0.7,5-3.9c-0.1-0.7-1.5-2.6-2.6-4.6
				c-3.3,1.9-7.3,2.4-11.5,2.3C179.6,414.3,176.1,414,177.3,419.7L177.3,419.7z"/>
		</g>
		<g>
			<path class="st4" d="M168.8,392.8c0.2,0.7,1.1,2.6,1.3,2.6c2.2-0.1,4-1.6,6.3-1.7c2.3,0.7,4,0.1,4.9-1.9c-1.1-2-2.3-4-3.4-5.9
				c-0.7,1.9-2.1,2.5-3.8,2.4c-2.3-0.7-4,0.1-5.7,0.7C168,389.2,168.1,390.7,168.8,392.8L168.8,392.8z"/>
		</g>
		<g>
			<g>
				<path class="st5" d="M253.8,460.6c1.6-0.4-0.1-2.3-0.7-3.7c-1.1-1.3-3.2-2.3-4.2-2c-4.4,2.7-11.5,3.1-17.8,3.2
					c-3.8,0.3-6.4,1.7-9.1,4c1.1,2,2.3,4,3.4,5.9c3.4-3.2,8.5-3.8,14.6-3.9C245.4,463.6,250.1,463.2,253.8,460.6L253.8,460.6z"/>
			</g>
			<g>
				<path class="st5" d="M233.5,436.8c1.3-0.3-0.4-2.3-1.1-3.6c-0.5-0.6-1.7-1.9-3-2.3c-1.6,0.5-2.6,1.5-4.7,1.4
					c-5.8,1.7-13,0.7-17.6,4.3c1.1,2,2.3,4,3.4,5.9c2.5-2.3,5.8-3.2,9.9-2.8C225.2,439.1,229.3,438,233.5,436.8L233.5,436.8z"/>
			</g>
			<g>
				<path class="st5" d="M211.2,408.8c-1.4-1.1-2.7-2.3-3.3-2.1c-2.1,2.3-6.4,2.1-10.4,1.9c-2.3,0-3.6,1.2-4.7,3.1
					c1.1,2,2.3,4,3.4,5.9c1.1-1.9,2.5-3.1,5-3.1c4.6,0.1,10.5,1.4,11.7-2.9C212.5,410.8,211.4,409.5,211.2,408.8L211.2,408.8z"/>
			</g>
			<g>
				<path class="st5" d="M190.4,385c-0.5-0.6-2.4-2.5-2.5-2.4c-2.3,0.1-3.6,1.5-5.8,1.6c-2.3-0.7-3.7-0.1-4.3,1.8
					c1.1,2,2.3,4,3.4,5.9c0.7-1.9,2.7-1.9,4.2-2.5c0.6-0.2,2.1,0.9,2.7,0.6c1.6-0.6,4.2,0.1,4-2.4
					C191.9,386.9,190.8,385.6,190.4,385L190.4,385z"/>
			</g>
		</g>
	</g>
</g>
<g>
	<path class="st2" d="M133.2,352.3c2.5,2.5,4.7,4.9,7,7.3c0.3,0.3,0.8,0.5,1.1,0.5c3.5-0.6,7-1.3,10.9-2c2.1,5.1,4.1,10.3,6.2,15.6
		c-2.6,1.7-5,3.4-7.5,4.9c-1.9,1.1-2.6,2.1-2.3,4.4c0.3,2.3-0.1,4.8-0.2,7.1c0,0.4,0.3,0.9,0.7,1.1c2.6,1.9,5.1,3.7,7.8,5.4
		c0.8,0.5,1.1,1,0.8,1.9c-1.2,3.1-2.4,6.2-3.6,9.3c-0.5,1.3-1.1,2.5-1.8,3.7c-0.5,0.9-0.9,1.7-2.5,1.2c-2.9-0.9-6-1.3-8.9-1.8
		c-0.4-0.1-1.1,0.1-1.4,0.3c-2.2,2.1-4.6,4-6.6,6.3c-0.6,0.7-0.3,2.4-0.1,3.5c0.4,2.5,1.1,5,1.5,7.5c0.1,0.4-0.5,1.1-0.9,1.4
		c-2.8,1.3-5.7,2.6-8.5,3.7c-1.7,0.7-3.4,1.3-5.2,1.7c-0.4,0.1-1.3-0.3-1.5-0.7c-1.7-2.6-3.2-5.2-5-7.8c-0.4-0.5-1.3-0.7-2.1-0.8
		c-2.7-0.1-5.5-0.2-8.3-0.2c-0.5,0-1.2,0.4-1.5,0.7c-1.9,2.5-3.6,5.1-5.4,7.8c-0.4,0.6-0.7,0.9-1.5,0.7c-3.1-1.2-6.3-2.3-9.3-3.6
		c-1.6-0.7-2.9-1.7-4.5-2.3c-1-0.4-0.9-1.1-0.7-1.9c0.7-3.1,1.3-6.2,1.9-9.3c0.1-0.4-0.1-1.1-0.4-1.3c-1.9-2.1-3.9-4-5.9-6
		c-0.7-0.7-1.1-1-2.3-0.7c-3.2,0.7-6.6,1.2-10.3,1.9c-2.1-5.1-4.1-10.3-6.3-15.6c2.9-1.9,5.5-3.6,8.3-5.2c1.1-0.7,1.8-1.3,1.7-2.9
		c-0.2-2.5,0-5.1,0.1-7.6c0.1-1-0.2-1.7-1.1-2.2c-2.6-1.7-5.1-3.3-7.6-5c-0.3-0.2-0.7-0.9-0.7-1.1c1.6-4,3.2-7.9,4.8-11.8
		c0.3-0.7,0.9-1.3,1.1-2c0.4-1.3,1.1-1.2,2.2-1c2.8,0.7,5.6,1.3,8.5,1.7c0.7,0.1,1.7-0.1,2.3-0.7c2-1.9,3.7-4,5.8-5.7
		c0.9-0.7,0.9-1.4,0.7-2.2c-0.5-3-1.3-6-1.7-9.1c-0.1-0.5,0.7-1.4,1.2-1.7c1.5-0.9,3.1-1.7,4.8-2.3c3.2-1.2,6.4-2.3,9.6-3.4
		c2,3.2,3.7,6,5.6,8.9c0.3,0.5,0.9,0.9,1.9,0.8c2.8-0.2,5.8,0.1,8.6,0.1c0.6,0,1.3-0.5,1.7-0.9c1.7-2.3,3.2-4.6,4.8-7
		c0.7-1,1.1-1.3,2.5-0.9c4.9,1.4,9.3,3.5,13.5,6c0.3,0.1,0.6,0.9,0.5,1.3C134.7,345.7,133.9,349.1,133.2,352.3z M137.9,372.9
		c-5.7-15.3-24-25.8-42.5-18.3c-18.7,7.6-24,27.5-18.3,42.1c6.1,15.8,24.6,25.6,42.4,18.5C137.5,408.4,144.5,388.3,137.9,372.9z"/>
	<path class="st5" d="M137.9,372.9c6.6,15.4-0.4,35.4-18.3,42.5c-17.8,7-36.4-2.9-42.4-18.5c-5.7-14.7-0.4-34.6,18.3-42.1
		C113.9,347.2,132.2,357.6,137.9,372.9z M100.9,368.4c-8.7,3.4-14,13.4-10,23.2c4.2,10.7,15.6,13.1,23.2,10.1
		c7.8-3,14.1-12.7,10.1-23.3C120.6,369.2,110.1,364.7,100.9,368.4z"/>
	<path class="st6" d="M89.8,400c0.9,0,1.7,0.4,2.2,1.1c3.2,3.8,7.8,6,12.7,6c1.7,0,2.9,1.3,2.9,2.9c0,1.6-1.3,2.9-2.9,2.9
		c-6.6,0-12.9-2.9-17.2-8.1c-1.1-1.2-0.9-3,0.4-4.1C88.4,400.2,89.1,400,89.8,400z"/>
</g>
<g>
	<path class="st7" d="M94.5,238.5c-0.8,2.6-2.2,3.2-4.4,3.5c-5.4,0.9-10.7,2-16.4,3c0,9.8,0,19.3,0,28.8c6.3,1.4,11.9,2.8,17.6,3.6
		c1.9,0.3,2.6,1.2,3.2,2.6c1.9,4.4,3.8,8.8,5.5,13.2c0.3,0.7,0.1,1.7-0.3,2.4c-2.9,4.6-5.9,9.1-8.9,13.5c-0.7,1.1-1.3,2.1,0,3.4
		c2.1,2.1,3.6,4.6,5.7,6.6c4.2,4,8.4,7.8,12.6,11.7c1.1,1,1.8,0.7,2.8-0.1c4.5-3,8.9-6,13.5-8.8c0.8-0.5,2.1-0.6,2.9-0.3
		c4.4,1.7,8.7,3.6,13.1,5.6c1.1,0.5,2.5,1.5,2.7,2.5c1.1,5.2,1.9,10.4,3,15.5c0.1,0.8,1.2,1.9,2,2c3.1,0.4,6.2,0.6,9.3,0.5
		c1.2,0,2.4-0.1,3.6-0.1v-32.4c-0.1,0-0.2,0-0.3,0c-32.9-0.1-56-27.6-55.7-56.5c0.3-27,21.3-55.4,55.9-55.5c0.1,0,0.1,0,0.1,0v-32.6
		c-0.9-0.1-1.9-0.1-2.8-0.1c-3-0.1-6,0.1-9.1,0.6c-1.1,0.1-2.8,1.1-3,1.9c-1.2,5.2-1.9,10.4-3,15.5c-0.3,1.3-0.7,2.3-2.6,2.9
		c-4.4,1.4-8.4,3.7-12.7,5.4c-1.1,0.4-2.9,0.3-4-0.4c-4.2-2.6-8.3-5.4-12.3-8.1c-1.5-1-2.7-1.7-4.1,0.2c-0.7,1-2.1,1.6-3,2.5
		c-5.1,5.2-10.1,10.4-15.2,15.7c-0.3,0.3-0.1,1.6,0.3,2.2c2.9,4.3,5.8,8.6,8.9,12.9c1,1.4,1,2.6,0.3,4.2
		C97.6,230.4,95.7,234.3,94.5,238.5z"/>
	<path class="st8" d="M217.7,259.7c0.7,28.6-22.9,55.8-55.8,55.8v32.4c4.2-0.1,8.3-0.3,12.5-0.5c0.9-0.1,2.3-0.9,2.5-1.6
		c0.9-4.2,1.5-8.6,2.5-12.9c0.4-2,1-4.8,2.5-5.6c4.6-2.5,9.5-4,14.4-5.9c0.7-0.3,1.7-0.1,2.4,0.3c4.4,2.7,8.9,5.4,13.1,8.5
		c2.1,1.7,3.2,0.9,4.7-0.4c1.8-1.5,3.6-3,5.2-4.8c4-4.1,7.8-8.3,11.7-12.5c1.2-1.3,0.9-2.2,0-3.6c-3-4.4-6-9-8.9-13.5
		c-0.4-0.6-0.6-1.5-0.3-2.1c1.6-3.7,3.9-7.3,4.9-11.1c0.9-3.8,2.9-5,6.5-5.5c4.9-0.7,9.7-1.9,15-3c0-9.8,0-19.3,0-28.7
		c-6.7-1.4-12.7-2.5-18.7-3.8c-0.6-0.1-1.3-0.9-1.5-1.4c-2.2-5.2-4.2-10.5-6.6-16c3.2-4.6,6.6-9.6,9.9-14.6c0.4-0.6,0.4-1.9,0-2.4
		c-5.2-6.6-10.9-12.9-17.8-17.9c-2-1.5-2.9-1.1-4.5,0c-4,2.7-8,5.4-12.1,7.9c-0.9,0.5-2.3,0.9-3.2,0.5c-4.6-1.8-8.9-4.1-13.6-5.6
		c-1.7-0.5-2.2-1.4-2.5-2.5c-1.2-5.7-2.2-11.5-3.3-17.8c-4.8-0.2-9.7-0.5-14.6-0.7v32.9C195.9,203.5,218.4,231.8,217.7,259.7z"/>
	<path class="st2" d="M161.5,315.6c0.1,0,0.2,0,0.3,0v-25.3h-0.1c-14-0.1-30.6-11.1-30.6-30.7c0-18.1,14.6-30.6,30.6-30.6v-25.4
		c-0.1,0-0.1,0-0.1,0c-34.6,0.1-55.6,28.6-55.9,55.5C105.5,287.9,128.6,315.4,161.5,315.6z"/>
	<path class="st9" d="M161.9,229c16.8,0,30.7,13.8,30.6,30.7c-0.1,19.3-16.4,30.6-30.6,30.6v25.3c32.9,0,56.5-27.3,55.8-55.9
		c0.7-28-21.7-56.2-55.8-56.1V229C161.8,229,161.9,229,161.9,229z"/>
	<path class="st6" d="M132.7,285.5c1.2,0,2.4,0.5,3.2,1.5c4.6,5.4,11.2,8.5,18.3,8.5c2.3,0,4.2,1.9,4.2,4.2c0,2.3-1.9,4.2-4.2,4.2
		c-9.5,0-18.5-4.2-24.6-11.6c-1.5-1.8-1.3-4.4,0.5-5.9C130.8,285.8,131.7,285.5,132.7,285.5z"/>
	<path class="st5" d="M161.8,180c-0.9,0-1.7-0.1-2.5-0.1c-0.2,0-0.5,0-0.7,0c-0.7,0-1.4,0-2.1,0.1c-0.2,1.1-0.4,2.1-0.6,3.2
		c-0.4,2.2-0.8,4.4-1.3,6.6c-0.2,0.9-0.4,1.8-0.7,2.6c2.5-0.3,5.2-0.5,7.8-0.5L161.8,180L161.8,180z"/>
	<path class="st5" d="M154.1,325.2c0.3,0.7,0.5,1.3,0.7,2.1c0.7,3,1.3,6.2,1.9,9.1c0.1,0.3,0.1,0.6,0.1,0.9c0.5,0,1.1,0,1.6,0h0.5
		c0.9,0,1.9,0,2.9-0.1v-11.6C159.2,325.6,156.6,325.5,154.1,325.2z"/>
	<path class="st5" d="M111.2,318.1c0.1,0.1,0.1,0.1,0.3,0.3c3-2,5.8-3.8,8.6-5.6c0.5-0.3,1.1-0.7,1.7-0.9c-2.4-1.8-4.6-3.8-6.7-6
		c-2-2.1-3.9-4.2-5.6-6.5c-0.2,0.5-0.5,0.9-0.7,1.4c-1.9,3-4,6.2-6,9.1c0.4,0.5,0.9,1,1.2,1.4C106.2,313.6,108.7,315.8,111.2,318.1z
		"/>
	<path class="st5" d="M109.4,217.7c3.4-4.5,7.4-8.6,11.9-12.1c-0.7-0.3-1.3-0.6-1.9-0.9c-2.8-1.7-5.6-3.5-8.3-5.4
		c-2.6,2.6-5.4,5.5-8.3,8.6c1.7,2.3,3.3,4.8,5,7.3C108.6,215.9,109.1,216.9,109.4,217.7z"/>
	<path class="st5" d="M84.1,264.8c3,0.7,6,1.3,8.7,1.7c1.1,0.1,2.2,0.4,3.2,0.9c-0.4-3-0.6-6-0.6-9.1c0-2.6,0.2-5.2,0.5-7.8
		c-1.3,0.5-2.6,0.9-4.1,1.1c-2.6,0.5-5.2,0.9-7.8,1.4L84.1,264.8z"/>
	<path class="st10" d="M234.8,265.7c1.9-0.3,3.9-0.7,6-1.1v-12c-3.6-0.7-7-1.4-10.5-2.2c-0.5-0.1-1-0.3-1.5-0.4
		c0.3,2.8,0.5,5.8,0.4,8.6c0.1,2.8-0.1,5.8-0.4,8.6C230.5,266.5,232.6,266,234.8,265.7z"/>
	<path class="st10" d="M169.6,330.4l0.1-0.2c0.3-1.4,0.7-3.2,1.5-5.1c-2.9,0.4-5.8,0.6-8.7,0.6h-0.3c-0.1,0-0.2,0-0.3,0v11.6
		c2.2-0.1,4.4-0.1,6.6-0.2C168.8,334.9,169.1,332.7,169.6,330.4z"/>
	<path class="st10" d="M162.2,191.8h0.4c2.7,0,5.4,0.1,8.1,0.5c-0.3-0.7-0.4-1.4-0.6-2.1c-0.7-3.3-1.3-6.6-1.9-9.9
		c-2.1-0.1-4.2-0.1-6.3-0.3v11.8C161.9,191.8,162.1,191.8,162.2,191.8z"/>
	<path class="st10" d="M215.3,217.4c0,0,1.9-2.7,2.5-3.7c1.4-2.1,2.8-4.2,4.2-6.3c-2.5-2.8-5.2-5.7-8.3-8.3
		c-2.9,1.9-5.8,3.8-8.6,5.6c-0.6,0.4-1.2,0.7-1.9,0.9c2.5,1.9,4.8,3.9,6.9,6.1C212.1,213.5,213.7,215.3,215.3,217.4z"/>
	<path class="st10" d="M207.5,314.2c2.2,1.3,4.4,2.6,6.6,4.1c0.3-0.2,0.5-0.5,0.7-0.7c2.1-2.2,4.1-4.4,6.1-6.6
		c0.4-0.4,0.9-0.9,1.2-1.4c-2-3-4-6.1-5.8-9c-0.2-0.4-0.4-0.7-0.7-1.1c-1.7,2.1-3.4,4.1-5.2,6c-2.2,2.3-4.5,4.3-7,6.2
		c0.5,0.2,0.9,0.5,1.4,0.7C205.7,313.1,206.5,313.6,207.5,314.2z"/>
</g>
<circle class="st3" cx="196.4" cy="596.3" r="18.5"/>
<path class="st10" d="M226.9,649.3L455,594c9.9-2.4,9.9-6.4,0-8.8L226.9,530c-4.1-1-9.4-1.5-14.7-1.4v122.3
	C217.5,650.8,222.9,650.3,226.9,649.3z"/>
<path class="st5" d="M-30.3,585.2c-9.9,2.4-9.9,6.4,0,8.8l228.1,55.3c4,1,9.3,1.5,14.5,1.5l0-122.3c-5.2,0-10.5,0.5-14.5,1.5
	L-30.3,585.2z"/>
<path class="st5" d="M319.3,496.9c0,17.4-47.8,31.5-106.8,31.5c0,0,0,0-0.1,0v7.1v32.7l0,31.5c0,0,0,0,0.1,0
	c59,0,106.8-14.1,106.8-31.5v-32.7L319.3,496.9"/>
<path class="st4" d="M105.5,496.9c0,17.4,47.8,31.5,106.8,31.5c0,0,0,0,0.1,0v7.1v32.7l0,31.5c0,0,0,0-0.1,0
	c-59,0-106.8-14.1-106.8-31.5v-32.7L105.5,496.9"/>
<path class="st11" d="M349.8,653c15.3,0,27.7-12.3,27.8-27.6H322C322.1,640.7,334.5,653,349.8,653z"/>
<path class="st7" d="M349.8,597.4c-15.4,0-27.8,12.4-27.8,27.8c0,0.1,0,0.1,0,0.2h55.6c0-0.1,0-0.1,0-0.2
	C377.6,609.8,365.1,597.4,349.8,597.4z"/>
<path class="st11" d="M377.6,628.5c0,7.3,6,13.3,13.3,13.3l58.7,11.1c7.3,0,13.3-6,13.3-13.3v-14.2h-85.4v3.1H377.6z"/>
<path class="st7" d="M449.6,597.4l-58.7,11.1c-7.3,0-13.3,6-13.3,13.3v3.6H463v-14.7C463,603.4,457,597.4,449.6,597.4z"/>
</svg>
