<?xml version="1.0" encoding="utf-8"?>
<!-- Generator: Adobe Illustrator 19.0.0, SVG Export Plug-In . SVG Version: 6.00 Build 0)  -->
<svg version="1.1" id="Layer_1" xmlns="http://www.w3.org/2000/svg" xmlns:xlink="http://www.w3.org/1999/xlink" x="0px" y="0px"
	 viewBox="-49 141 512 512" style="enable-background:new -49 141 512 512;" xml:space="preserve">
<style type="text/css">
	.st0{display:none;}
	.st1{display:inline;}
	.st2{fill:#CDD4D5;}
	.st3{fill:#E6EAEA;}
	.st4{fill:#4ACFD9;}
	.st5{fill:#0295AA;}
	.st6{fill:#FF8C29;}
	.st7{fill:#FD6A33;}
	.st8{fill:#9BAAAB;}
	.st9{fill:#FFFFFF;}
	.st10{fill:#365558;}
	.st11{fill:#FFD1A9;}
	.st12{display:inline;fill:#365558;}
</style>
<g id="Layer_3" class="st0">
	<rect x="1000" y="-281.4" class="st1" width="512" height="512.8"/>
</g>
<g>
	<g>
		<g>
			<path class="st2" d="M77.5,228.5c0.1-0.7,0.7-0.9,0.3-1.5c-4.2-3.4-8.1-5.4-12.9-7.9c-19.9-14-34.6-30.1-50.7-46.6
				c-8.5-9.3-16.5-17.4-24.8-26.2l-1-0.5c-1.9-2.3-4.5-6.4-5.4-4.2c-1.5,2.4-3.2,5.6-4.4,9.3c-3.2,5.7-6.4,12.2-10.1,18.1
				c19,21.1,36,45.8,56.2,68.3c9.4,8.9,19.4,16.7,30.3,24.1C62.8,249.9,70.8,239.2,77.5,228.5L77.5,228.5z"/>
		</g>
		<g>
			<path class="st3" d="M29.6,298c3.8-4.4,7.2-9.4,11.4-13.9c5.3-7.8,11.9-14,15.8-21.9c-10-5.6-19.3-13-27.2-20.9
				c-22.5-23.1-39.9-49.7-60-70.5c-5.1,9.3-11,19-17.5,28.3c-2.1,2.8-1.9,5.8,0.5,8.7C-32,225.2-21,247.3-5.8,267.1
				c1.9,2.3,3.4,5.4,6.1,8.1c1.7,1.6,3.4,3.1,4.6,4.9c0.8,0.5,1.8,1.5,2.5,2c1,1.1,1.2,1.8,2.2,2.8c6.2,5,11.5,10.4,18.1,13.7
				C28.4,298.5,29,298.3,29.6,298L29.6,298z"/>
		</g>
		<g>
			<path class="st4" d="M19.6,270.3c2.1,2.1,3.8-1.5,4.7-2.5c1.2-3.3,3.6-6.4,5.8-8.7c4.3-3,6.9-8.3,9.6-12.9
				c-1.1-1.1-2.5-2.6-4.2-3.5c-3.2,4.8-6.3,10.2-10.8,14c-2.7,2.5-4.4,6-6.1,9.5C17.9,267.3,17.9,268.7,19.6,270.3L19.6,270.3z"/>
		</g>
		<g>
			<path class="st4" d="M3,254.4c1.3,0.3,2.5,0.5,2.8-0.3c3.5-7.8,9.4-12.1,13.6-18.6c0.5-1.6,0.9-3.2,1.9-5
				c-1.5-0.9-2.8-2.6-3.9-3.7c-2.3,7.9-8.9,11-13,18.2C3.5,247.7-0.3,249.7,3,254.4L3,254.4z"/>
		</g>
		<g>
			<path class="st4" d="M-13.2,237.3c0.7,0.5,1.4,1,1.4,1c3.2-3.3,4.8-8.2,7.9-11.5c4.2-2.8,6.1-7.8,8.5-12.2
				c-1.3-1.7-2.6-2.7-3.8-4.5c-1.9,4.2-3.7,9.1-7.9,11.9c-2.6,3-4.6,6.6-6.8,11.1C-14.7,234.2-14.7,235.7-13.2,237.3L-13.2,237.3z"
				/>
		</g>
		<g>
			<path class="st4" d="M-27.7,219.4c0.8,1.2,1.9,1.6,2.6,0.6c2.5-8.1,8.5-10.7,12-17.6c0.4-1.6,1.7-3.4,1.2-4.7
				c-0.1-1.4-1.6-3.1-2.9-4.1c-0.2,0.8-0.4,1.5-0.6,2.3c-3.6,6.2-8.5,9.9-12,17.6C-28.1,214.3-30.2,215.1-27.7,219.4L-27.7,219.4z"
				/>
		</g>
		<g>
			<g>
				<path class="st5" d="M53.5,223c-1.5-1.6,1.1-3.2-3.7-4.3c-4.1,8.4-11.3,13.8-14.9,23.6c1.6,0.9,3,2.5,4.2,3.5
					c1-1.8,1.4-3.4,1.9-5C44.5,233.8,51.8,230.6,53.5,223L53.5,223z"/>
			</g>
			<g>
				<path class="st5" d="M34.3,208.5c0.1-0.7,0.3-1.5-0.1-2.1c-0.7-1.2-3.2-3.8-4-1.5c-2.6,6.5-7.8,10.3-11.5,16.5
					c-0.9,1.7-1.3,3.3-2.2,5c1.5,0.9,3,1.9,4.4,3.5C24.4,221.6,30.6,216,34.3,208.5L34.3,208.5z"/>
			</g>
			<g>
				<path class="st5" d="M15.1,188.7c-0.7-0.5-1.5-0.9-1.9-0.8c-2.9,5.1-6.2,9.7-9.9,15c-1,2.5-3.4,3.9-2.8,6.6
					c0.1,1.4,2.2,2.8,3.4,4.6c1.8-5.6,5-10.1,8.3-14C14.7,198,18.3,194,15.1,188.7L15.1,188.7z"/>
			</g>
			<g>
				<path class="st5" d="M-1.8,172.1c-0.7-0.5-0.9-1.1-1.3-1c-0.8,0.2-1,1.7-1.3,3.1c-3.2,7.2-8.5,10.9-11.1,18.8
					c1.3,1.1,2.6,2.1,3.8,3.9c1.8-7.7,6.6-10.5,9.7-16.4c1.1-1.7,2.1-3.4,1.8-6.1C-0.5,173.8-1.5,172.7-1.8,172.1L-1.8,172.1z"/>
			</g>
		</g>
	</g>
</g>
<path class="st6" d="M106.4,258.7c0.3-27,21.3-55.4,55.9-55.5c0.1,0,0.1,0,0.1,0v-32.6c-0.9-0.1-1.9-0.1-2.8-0.1
	c-3-0.1-6,0.1-9.1,0.6c-1.1,0.1-2.8,1.1-3,1.9c-1.2,5.2-1.9,10.4-3,15.5c-0.3,1.3-0.7,2.3-2.6,2.9c-4.4,1.4-8.4,3.7-12.7,5.4
	c-1.1,0.4-2.9,0.3-4-0.4c-4.2-2.6-8.3-5.4-12.3-8.1c-1.5-1-2.7-1.7-4.1,0.2c-0.7,1-2.1,1.6-3,2.5c-5.1,5.2-10.1,10.4-15.2,15.7
	c-0.3,0.3-0.1,1.6,0.3,2.2c2.9,4.3,5.8,8.6,8.9,12.9c1,1.4,1,2.6,0.3,4.2c-2.1,4.4-4,8.3-5.2,12.5c-0.8,2.6-2.2,3.2-4.4,3.5
	c-5.4,0.9-10.7,2-16.4,3c0,9.8,0,19.3,0,28.8c6.3,1.4,11.9,2.8,17.6,3.6c1.9,0.3,2.6,1.2,3.2,2.6c1.9,4.4,3.8,8.8,5.5,13.2
	c0.3,0.7,0.1,1.7-0.3,2.4c-2.9,4.6-5.9,9.1-8.9,13.5c-0.7,1.1-1.3,2.1,0,3.4c2.1,2.1,3.6,4.6,5.7,6.6c3.9,3.7,7.8,7.3,11.7,10.9
	c9.9-7.9,21.1-14.2,33.3-18.6C120.1,302.9,106.1,281.2,106.4,258.7z"/>
<path class="st7" d="M233.8,312.5c1.2-1.3,0.9-2.2,0-3.6c-3-4.4-6-9-8.9-13.5c-0.4-0.6-0.6-1.5-0.3-2.1c1.6-3.7,3.9-7.3,4.9-11.1
	c0.9-3.8,2.9-5,6.5-5.5c4.9-0.7,9.7-1.9,15-3c0-9.8,0-19.3,0-28.7c-6.7-1.4-12.7-2.5-18.7-3.8c-0.6-0.1-1.3-0.9-1.5-1.4
	c-2.2-5.2-4.2-10.5-6.6-16c3.2-4.6,6.6-9.6,9.9-14.6c0.4-0.6,0.4-1.9,0-2.4c-5.2-6.6-10.9-12.9-17.8-17.9c-2-1.5-2.9-1.1-4.5,0
	c-4,2.7-8,5.4-12.1,7.9c-0.9,0.5-2.3,0.9-3.2,0.5c-4.6-1.8-8.9-4.1-13.6-5.6c-1.7-0.5-2.2-1.4-2.5-2.5c-1.2-5.7-2.2-11.5-3.3-17.8
	c-4.8-0.2-9.7-0.5-14.6-0.7v32.9c33.8-0.1,56.3,28.2,55.6,56.1c0.4,17.8-8.5,35-23.3,45.5c12.8,1.4,25,5,36.3,10.2
	C232,314.5,232.9,313.5,233.8,312.5z"/>
<path class="st2" d="M162.2,290.3L162.2,290.3c-14.1-0.1-30.7-11.1-30.7-30.7c0-18.1,14.6-30.6,30.6-30.6v-25.4c-0.1,0-0.1,0-0.1,0
	c-34.6,0.1-55.6,28.6-55.9,55.5c-0.2,22.3,13.7,43.8,35.2,52.5c6.7-2.5,13.7-4.3,20.9-5.5V290.3z"/>
<path class="st8" d="M194.9,305.2c14.7-10.5,23.6-27.8,23.2-45.5c0.7-28-21.7-56.2-55.8-56.1V229c16.8,0,30.7,13.8,30.6,30.7
	c-0.1,19.3-16.4,30.6-30.6,30.6v15.8c6.3-1.1,12.8-1.6,19.4-1.6C186.1,304.5,190.6,304.7,194.9,305.2z"/>
<path class="st9" d="M133.1,285.5c1.2,0,2.4,0.5,3.2,1.5c4.6,5.4,11.2,8.5,18.3,8.5c2.3,0,4.2,1.9,4.2,4.2c0,2.3-1.9,4.2-4.2,4.2
	c-9.5,0-18.5-4.2-24.6-11.6c-1.5-1.8-1.3-4.4,0.5-5.9C131.2,285.8,132.1,285.5,133.1,285.5z"/>
<path class="st5" d="M162.2,180c-0.9,0-1.7-0.1-2.5-0.1c-0.2,0-0.5,0-0.7,0c-0.7,0-1.4,0-2.1,0.1c-0.2,1.1-0.4,2.1-0.6,3.2
	c-0.4,2.2-0.8,4.4-1.3,6.6c-0.2,0.9-0.4,1.8-0.7,2.6c2.5-0.3,5.2-0.5,7.8-0.5L162.2,180L162.2,180z"/>
<path class="st5" d="M111.6,318.1c0.1,0.1,0.1,0.1,0.3,0.3c3-2,5.8-3.8,8.6-5.6c0.5-0.3,1.1-0.7,1.7-0.9c-2.4-1.8-4.6-3.8-6.7-6
	c-2-2.1-3.9-4.2-5.6-6.5c-0.2,0.5-0.5,0.9-0.7,1.4c-1.9,3-4,6.2-6,9.1c0.4,0.5,0.9,1,1.2,1.4C106.6,313.6,109.1,315.8,111.6,318.1z"
	/>
<path class="st5" d="M109.8,217.7c3.4-4.5,7.4-8.6,11.9-12.1c-0.7-0.3-1.3-0.6-1.9-0.9c-2.8-1.7-5.6-3.5-8.3-5.4
	c-2.6,2.6-5.4,5.5-8.3,8.6c1.7,2.3,3.3,4.8,5,7.3C109,215.9,109.5,216.9,109.8,217.7z"/>
<path class="st5" d="M84.5,264.8c3,0.7,6,1.3,8.7,1.7c1.1,0.1,2.2,0.4,3.2,0.9c-0.4-3-0.6-6-0.6-9.1c0-2.6,0.2-5.2,0.5-7.8
	c-1.3,0.5-2.6,0.9-4.1,1.1c-2.6,0.5-5.2,0.9-7.8,1.4L84.5,264.8z"/>
<path class="st10" d="M235.2,265.7c1.9-0.3,3.9-0.7,6-1.1v-12c-3.6-0.7-7-1.4-10.5-2.2c-0.5-0.1-1-0.3-1.5-0.4
	c0.3,2.8,0.5,5.8,0.4,8.6c0.1,2.8-0.1,5.8-0.4,8.6C230.9,266.5,233,266,235.2,265.7z"/>
<path class="st10" d="M162.6,191.8h0.4c2.7,0,5.4,0.1,8.1,0.5c-0.3-0.7-0.4-1.4-0.6-2.1c-0.7-3.3-1.3-6.6-1.9-9.9
	c-2.1-0.1-4.2-0.1-6.3-0.3v11.8C162.3,191.8,162.5,191.8,162.6,191.8z"/>
<path class="st10" d="M215.7,217.4c0,0,1.9-2.7,2.5-3.7c1.4-2.1,2.8-4.2,4.2-6.3c-2.5-2.8-5.2-5.7-8.3-8.3c-2.9,1.9-5.8,3.8-8.6,5.6
	c-0.6,0.4-1.2,0.7-1.9,0.9c2.5,1.9,4.8,3.9,6.9,6.1C212.5,213.5,214.1,215.3,215.7,217.4z"/>
<path class="st10" d="M221.3,311c0.4-0.4,0.9-0.9,1.2-1.4c-2-3-4-6.1-5.8-9c-0.2-0.4-0.4-0.7-0.7-1.1c-1.7,2.1-3.4,4.1-5.2,6
	c-0.7,0.7-1.4,1.4-2.1,2.1c4.2,1,8.4,2.2,12.4,3.7C221.1,311.2,221.2,311.1,221.3,311z"/>
<circle class="st3" cx="196.8" cy="596.3" r="18.5"/>
<path class="st10" d="M455.4,585.2l-226.9-54.9c-5.1,2.2-10.4,4.1-15.9,5.6v115.1c5.3-0.1,10.7-0.6,14.7-1.6L455.4,594
	C465.3,591.6,465.3,587.6,455.4,585.2z"/>
<path class="st10" d="M227.3,530c-4.1-1-9.4-1.5-14.7-1.4v7.2c5.5-1.5,10.7-3.3,15.9-5.6L227.3,530z"/>
<path class="st5" d="M163.1,538.5l-193,46.7c-9.9,2.4-9.9,6.4,0,8.8l228.1,55.3c4,1,9.3,1.5,14.5,1.5v-115c-9.9,2.7-20.3,4.1-31,4.1
	C175.4,540,169.2,539.5,163.1,538.5z"/>
<path class="st5" d="M233.8,527.8c-6.7,3.3-13.7,6-21,8v32.4v31.5c0,0,0,0,0.1,0c59,0,106.8-14.1,106.8-31.5v-32.7v-38.6
	C319.7,512.2,282.8,524.9,233.8,527.8z"/>
<path class="st4" d="M105.9,512.3v23.3v32.7c0,17.4,47.8,31.5,106.8,31.5c0.1,0,0.1,0,0.1,0v-31.5v-32.4c-9.9,2.7-20.3,4.2-31.1,4.2
	C152.8,540,126.4,529.5,105.9,512.3z"/>
<path class="st11" d="M350.2,653c15.3,0,27.7-12.3,27.8-27.6h-55.6C322.5,640.7,334.9,653,350.2,653z"/>
<path class="st6" d="M350.2,597.4c-15.4,0-27.8,12.4-27.8,27.8c0,0.1,0,0.1,0,0.2H378c0-0.1,0-0.1,0-0.2
	C378,609.8,365.5,597.4,350.2,597.4z"/>
<path class="st11" d="M378,628.5c0,7.3,6,13.3,13.3,13.3l58.7,11.1c7.3,0,13.3-6,13.3-13.3v-14.2h-85.4v3.1L378,628.5L378,628.5z"/>
<path class="st6" d="M450,597.4l-58.7,11.1c-7.3,0-13.3,6-13.3,13.3v3.6h85.4v-14.7C463.4,603.4,457.4,597.4,450,597.4z"/>
<path class="st10" d="M329.1,274.7c-4.7-4.7-12.1-4.7-16.8,0l-39.5,39.5c-4.7,4.7-4.7,12.1,0,16.8c4.7,4.7,12.1,4.7,16.8,0
	l39.5-39.5c2.3-2.2,3.5-5.3,3.5-8.4S331.4,277.2,329.1,274.7z"/>
<path class="st5" d="M181.6,271.3c-83.2,0-150.9,67.7-150.9,150.9s67.7,150.9,150.9,150.9s150.9-67.7,150.9-150.9
	S264.8,271.3,181.6,271.3z M181.7,540c-64.9,0-117.8-52.8-117.8-117.8s52.8-117.8,117.8-117.8c64.8,0.1,117.8,52.9,117.8,117.8
	C299.4,487.2,246.6,540,181.7,540z"/>
<path class="st4" d="M459.5,180.3l-35.7-35.7c-2.2-2.2-5.2-3.5-8.4-3.5c-3.2,0-6.2,1.3-8.4,3.4L299.7,251.7
	c-2.2,2.2-3.5,5.2-3.5,8.4s1.3,6.2,3.5,8.4l35.7,35.7c4.7,4.7,12.1,4.7,16.8,0L459.5,197c2.3-2.3,3.5-5.4,3.5-8.4
	C463,185.6,461.8,182.5,459.5,180.3z"/>
<path class="st9" d="M408.4,188.4c0,3.1-1.2,6.1-3.5,8.4L348,253.6c-4.7,4.7-12.1,4.7-16.8,0s-4.7-12.1,0-16.8l56.9-56.9
	c4.7-4.7,12.1-4.7,16.8,0C407.2,182.3,408.4,185.4,408.4,188.4z"/>
<g class="st0">
	<path class="st12" d="M272,367.8l-25.7-25.7c-3.8-3.8-9.9-3.8-13.7,0c-3.8,3.9-3.8,9.9,0,13.7l25.7,25.7c3.8,3.8,9.9,3.8,13.7,0
		c1.9-1.9,2.8-4.3,2.8-6.8C274.8,372.2,273.9,369.7,272,367.8z"/>
	<path class="st12" d="M205.3,352.4c-3.8-3.8-9.9-3.8-13.7,0c-3.8,3.8-3.8,9.9,0,13.7l28.2,28.2c3.8,3.8,9.9,3.8,13.7,0
		c1.9-1.9,2.8-4.3,2.8-6.8c0-2.4-0.9-4.9-2.8-6.8L205.3,352.4z"/>
</g>
<path class="st4" d="M278.9,415c-0.9-4.9-5.7-8.4-10.7-7.5c-4.9,0.9-8.4,5.7-7.5,10.7c2.6,15.2-1.7,30.8-11.7,42.7
	c-1.9,2.2-2.4,4.9-2,7.5c0.4,2.2,1.4,4,3.1,5.4c4,3.2,9.7,2.8,13-1.1C276.8,456.8,282.5,435.8,278.9,415z"/>
<g>
	<path class="st2" d="M272.4,496.9c-1.2-1.2-2.4-2.5-3.6-3.7c-3.5-3.5-6.9-8.4-10.4-11.7c-30.6-30.9-60.9-60.6-93.9-92
		c-2.4-2.2-4.7-4.5-4.8-4.3c-2,2.2-4.1,4.5-6.1,6.7c17.3,27.6,34.3,55.7,50.5,84c9.5,17.6,18.4,35.3,27.5,52.9
		C247.4,521.3,261.4,510.3,272.4,496.9z"/>
	<path class="st3" d="M232.6,528.2c-0.5-1-0.9-2-1.4-3c-3.5-6.1-6.5-12.5-10.1-18.4c-2-3.7-3.9-8.9-6.1-12.7
		c-14.9-25.7-30-51.6-45.8-76.9c-5.2-8.6-10.4-17-15.5-25.3c-2,2.2-4.1,4.5-6,6.5c-0.4,0.4,1.5,8.2,2.4,11.9
		c11.5,42.9,19.1,86.4,26.6,129.6c1.5,0.1,3.1,0.1,4.6,0.1C199.8,540,217.1,535.8,232.6,528.2z"/>
	<g>
		<path class="st4" d="M192.5,500.5c-3,0.6-9.5,0-7.3,10.6c1.3,2.4,2.8,4.8,3.9,4.5c5.2-4.7,13-4.1,20.3-3.5c4.7,0,8.8-1.3,9.3-7.3
			c-0.2-1.3-2.8-4.8-4.8-8.6C207.8,499.7,200.3,500.6,192.5,500.5z"/>
	</g>
	<g>
		<path class="st4" d="M179.2,452.6c-4.3-1.3-7.5,0.2-10.6,1.3c-0.7,0.4-0.6,3.2,0.7,7.1c0.4,1.3,2,4.8,2.4,4.8
			c4.1-0.2,7.5-3,11.7-3.2c4.3,1.3,7.5,0.2,9.1-3.5c-2-3.7-4.3-7.5-6.3-11C185,451.6,182.4,452.8,179.2,452.6z"/>
	</g>
	<g>
		<path class="st5" d="M242.2,486.9c-3.9,4.3-11.9,3.9-19.4,3.5c-4.3,0-6.7,2.2-8.8,5.8c2,3.7,4.3,7.5,6.3,11c2-3.5,4.7-5.8,9.3-5.8
			c8.6,0.2,19.6,2.6,21.8-5.4c-0.7-1.5-2.8-3.9-3.2-5.2C245.8,488.7,243.3,486.5,242.2,486.9z"/>
	</g>
	<g>
		<path class="st5" d="M209.6,446.4c-0.9-1.1-4.5-4.7-4.7-4.5c-4.3,0.2-6.7,2.8-10.8,3c-4.3-1.3-6.9-0.2-8,3.4c2,3.7,4.3,7.5,6.3,11
			c1.3-3.5,5-3.5,7.8-4.7c1.1-0.4,3.9,1.7,5,1.1c3-1.1,7.8,0.2,7.5-4.5C212.4,450,210.4,447.5,209.6,446.4z"/>
	</g>
	<path class="st2" d="M114.8,495.2c0.6-0.4,1.9-0.7,2.6-0.6c5.4,0.9,11.2,1.7,16.6,3.4c3,0.9,3.7-0.6,4.7-2.2
		c1.3-2.2,2.4-4.5,3.4-6.9c2.2-5.8,4.5-11.6,6.7-17.3c0.6-1.7,0-2.6-1.5-3.5c-5-3.2-9.7-6.5-14.5-10.1c-0.7-0.4-1.3-1.3-1.3-2
		c0.2-4.3,0.9-8.9,0.4-13.2c-0.6-4.3,0.7-6.1,4.3-8.2c4.7-2.8,9.1-6,14-9.1c-3.9-9.9-7.6-19.6-11.6-29.1c-7.3,1.3-13.8,2.6-20.3,3.7
		c-0.6,0-1.5-0.4-2-0.9c-4.3-4.5-8.4-8.9-13-13.6c1.3-6,2.8-12.3,4.7-18.6c0.2-0.7-0.4-2.2-0.9-2.4c-6.8-4-13.8-7.5-21.6-10.1
		c-6.9,9.8-12.4,20.7-16.1,32.3c19.7,4.6,35.9,19.1,42.7,37.2c10.6,24.8,2.3,56.2-21.9,72.4c3.7,4.5,7.6,8.7,11.9,12.7
		c0.1-0.8,0.2-1.5,0.6-2C106.2,502.7,110.7,499.2,114.8,495.2z"/>
	<path class="st5" d="M111.8,423.9c-6.7-18.1-23-32.5-42.7-37c-2.8,8.7-4.5,17.9-5.1,27.3c9.8,2.6,18.4,9.7,22.3,19.9
		c6.1,16-0.6,31-11,39c4,8.4,9,16.2,14.8,23.3C114.1,479.9,122.4,448.7,111.8,423.9z"/>
	<path class="st6" d="M123.3,343.4c2,9.7,3.5,19.4,5.6,28.9c0.2,1.5,2.2,3.5,3.7,3.7c5.8,0.7,11.6,1.1,17.3,0.9
		c2.2,0,4.5-0.2,6.7-0.2v-60.4c-0.2,0-0.4,0-0.6,0c-7.4,0-14.6-0.8-21.4-2.2c-10.9,4.7-20.9,11-29.8,18.7c4.5,1.9,8.9,3.9,13.4,5.9
		C120.4,339.7,123,341.5,123.3,343.4z"/>
	<path class="st7" d="M156.5,316.9v60.4c7.8-0.2,15.5-0.6,23.3-0.9c1.7-0.2,4.3-1.7,4.7-3c1.7-7.8,2.8-16,4.7-24
		c0.7-3.7,1.9-8.9,4.7-10.4c8.6-4.7,17.7-7.5,26.8-11c1.3-0.6,3.2-0.2,4.5,0.6c8.2,5,16.6,10.1,24.4,15.8c3.9,3.2,6,1.7,8.8-0.7
		c2-1.6,3.9-3.3,5.8-5c-16.5-16.3-37.8-27.8-61.5-32.1C188.9,313.1,173.4,316.9,156.5,316.9z"/>
	<path class="st2" d="M156.3,317.1v-10c-7.9,1.7-15.6,4.2-22.8,7.5c7.1,1.6,14.5,2.4,22.2,2.5C156,317.1,156.1,317.1,156.3,317.1z"
		/>
	<path class="st8" d="M202.8,306.5c-6.9-1.3-14.1-2-21.4-2c-8.5,0-16.9,0.9-24.9,2.7v10C173.5,317.1,189.1,313.2,202.8,306.5z"/>
	<path class="st5" d="M143.3,338.9c1.3,5.6,2.4,11.6,3.5,17c0.2,0.6,0.2,1.1,0.2,1.7c0.9,0,2,0,3,0h0.9c1.7,0,3.5,0,5.4-0.2v-21.6
		c-4.8,0-9.7-0.2-14.3-0.7C142.5,336.3,142.9,337.4,143.3,338.9z"/>
	<path class="st10" d="M157.1,335.9c-0.2,0-0.4,0-0.6,0v21.6c4.1-0.2,8.2-0.2,12.3-0.4c0.6-4.1,1.1-8.2,2-12.5l0.2-0.4
		c0.6-2.6,1.3-6,2.8-9.5c-5.4,0.7-10.8,1.1-16.2,1.1H157.1z"/>
</g>
<g class="st0">
	<path class="st12" d="M934,318.4l-25.7-25.7c-3.8-3.8-9.9-3.8-13.7,0c-3.8,3.9-3.8,9.9,0,13.7l25.7,25.7c3.8,3.8,9.9,3.8,13.7,0
		c1.9-1.9,2.8-4.3,2.8-6.8C936.8,322.8,935.9,320.3,934,318.4z"/>
	<path class="st12" d="M867.3,303.1c-3.8-3.8-9.9-3.8-13.7,0c-3.8,3.8-3.8,9.9,0,13.7l28.2,28.2c3.8,3.8,9.9,3.8,13.7,0
		c1.9-1.9,2.8-4.3,2.8-6.8c0-2.4-0.9-4.9-2.8-6.8L867.3,303.1z"/>
</g>
</svg>
