<?xml version="1.0" encoding="utf-8"?>
<!-- Generator: Adobe Illustrator 19.0.0, SVG Export Plug-In . SVG Version: 6.00 Build 0)  -->
<svg version="1.1" id="Layer_1" xmlns="http://www.w3.org/2000/svg" xmlns:xlink="http://www.w3.org/1999/xlink" x="0px" y="0px"
	 viewBox="-49 141 512 512" style="enable-background:new -49 141 512 512;" xml:space="preserve">
<style type="text/css">
	.st0{display:none;fill:#9BAAAB;}
	.st1{display:none;}
	.st2{display:inline;}
	.st3{fill:#F0353D;}
	.st4{fill:#365558;}
	.st5{fill:#0295AA;}
	.st6{fill:#4ACFD9;}
	.st7{fill:#FFD1A9;}
	.st8{fill:#FF8C29;}
	.st9{fill:none;stroke:#BCD643;stroke-width:13;stroke-linecap:round;stroke-linejoin:round;stroke-miterlimit:10;}
</style>
<polygon class="st0" points="862,152.5 681,222.5 500,152.5 681.5,81.5 "/>
<g id="Layer_3_1_" class="st1">
	<polygon class="st2" points="1493,-353.4 981,-353.4 981,159.4 1094.9,159.4 1094.9,-233.5 1285,-233.5 1285,159.4 1493,159.4 	"/>
	<rect x="1094.9" y="-233.5" class="st2" width="190.1" height="392.9"/>
</g>
<path id="SVGCleanerId_0_3_" class="st0" d="M1054.1,73h-71.9l78.3,85.8V80C1060.5,76.1,1057.7,73,1054.1,73z"/>
<g>
	<path class="st3" d="M235.4,256.2l-0.5,29.8c-0.1,3.9-3.3,7.2-7.5,7.3c-4,0-7.2-3.2-7-7.2l0.5-29.8c0.1-3.9,3.3-7.2,7.5-7.3
		C232.2,249,235.3,252.1,235.4,256.2z"/>
	<path class="st4" d="M148.3,303.4L12,527.2c-5.9,9.7-2.8,12.8,6.8,6.8l223.7-136.3c3.9-2.4,8.5-6.2,12.7-10.4l-96.5-96.5
		C154.6,294.8,150.8,299.4,148.3,303.4z"/>
	<path class="st5" d="M402,150.9c5.9-9.7,2.8-12.8-6.8-6.8L171.4,280.4c-3.9,2.4-8.4,6.1-12.6,10.3l96.5,96.5
		c4.1-4.1,7.9-8.6,10.3-12.6L402,150.9z"/>
	<path class="st5" d="M195.7,496.5c-13.8-13.8,12.8-62.7,59.3-109.2l0.1-0.1l-5.6-5.6l-25.7-25.7L198.9,331l-0.1,0.1
		c-46.5,46.5-73.1,95.4-59.3,109.2l25.8,25.8L195.7,496.5"/>
	<path class="st6" d="M364.5,327.8c-13.8-13.8-62.7,12.8-109.2,59.3l-0.1,0.1l-5.6-5.6l-25.7-25.7L199,330.9l0.1-0.1
		c46.5-46.5,95.4-73.1,109.2-59.3l25.8,25.8L364.5,327.8"/>
	<path class="st7" d="M58.2,526.6c0,17,13.8,30.9,30.8,31v-62.1C72,495.7,58.2,509.5,58.2,526.6z"/>
	<path class="st8" d="M120.3,526.6c0-17.1-13.9-31-31-31c-0.1,0-0.1,0-0.2,0v62.1c0.1,0,0.1,0,0.2,0
		C106.4,557.7,120.3,543.8,120.3,526.6z"/>
	<line class="st9" x1="89.2" y1="495.6" x2="89" y2="395.2"/>
	<path class="st7" d="M85.5,557.7c-8.2,0-14.9,6.7-14.9,14.9l-12.4,65.5c0,8.2,6.7,14.9,14.9,14.9H89v-95.3H85.5z"/>
	<path class="st8" d="M120.3,638.1l-12.4-65.5c0-8.2-6.7-14.9-14.9-14.9h-4V653h16.4C113.6,653,120.3,646.3,120.3,638.1z"/>
</g>
</svg>
