<?xml version="1.0" encoding="utf-8"?>
<!-- Generator: Adobe Illustrator 19.0.0, SVG Export Plug-In . SVG Version: 6.00 Build 0)  -->
<svg version="1.1" id="Layer_1" xmlns="http://www.w3.org/2000/svg" xmlns:xlink="http://www.w3.org/1999/xlink" x="0px" y="0px"
	 viewBox="96 11 512 512" style="enable-background:new 96 11 512 512;" xml:space="preserve">
<style type="text/css">
	.st0{display:none;}
	.st1{display:inline;}
	.st2{fill:#FF8C29;}
	.st3{fill:#FD6A33;}
	.st4{fill:#CDD4D5;}
	.st5{fill:#9BAAAB;}
	.st6{fill:#0295AA;}
	.st7{fill:#FFFFFF;}
	.st8{fill:#365558;}
	.st9{fill:#FFD1A9;}
	.st10{fill:#E6EAEA;}
	.st11{fill:#4ACFD9;}
	.st12{fill:none;stroke:#BCD643;stroke-width:13;stroke-linecap:round;stroke-linejoin:round;stroke-miterlimit:10;}
</style>
<g id="Layer_3" class="st0">
	<rect x="302" y="-196.9" class="st1" width="512" height="512.8"/>
</g>
<g>
	<path class="st2" d="M551.6,424.5c1.1-3.8,3.2-4.6,6.4-5.1c7.8-1.4,15.5-2.9,23.9-4.4c0-14.2,0-28.2,0-41.9
		c-9.2-2-17.3-4.1-25.5-5.3c-2.8-0.5-3.8-1.8-4.6-3.8c-2.8-6.4-5.5-12.9-8-19.3c-0.4-0.9-0.2-2.5,0.4-3.4
		c4.2-6.7,8.6-13.2,12.9-19.7c1.1-1.7,1.9-3,0-4.9c-3-3-5.3-6.7-8.3-9.6c-6.1-5.8-12.3-11.3-18.3-17c-1.5-1.5-2.6-0.9-4.1,0.1
		c-6.5,4.4-13,8.7-19.7,12.9c-1.1,0.7-3,0.8-4.2,0.4c-6.4-2.5-12.7-5.3-19-8.2c-1.6-0.8-3.7-2.2-4-3.7c-1.7-7.5-2.8-15.1-4.4-22.6
		c-0.2-1.1-1.8-2.8-2.9-2.9c-4.5-0.5-9-0.8-13.6-0.8c-1.8,0-3.4,0.1-5.2,0.1v47.1c0.2,0,0.3,0,0.5,0c47.9,0.2,81.6,40.2,81.1,82.2
		c-0.4,39.3-30.9,80.6-81.3,80.7c-0.1,0-0.2,0-0.2,0v47.4c1.4,0.1,2.7,0.1,4.1,0.2c4.4,0.1,8.8-0.2,13.2-0.8
		c1.6-0.2,4.1-1.5,4.4-2.8c1.8-7.5,2.8-15.1,4.4-22.6c0.4-1.9,0.9-3.4,3.8-4.3c6.4-2,12.3-5.4,18.5-7.8c1.7-0.6,4.3-0.4,5.8,0.6
		c6.1,3.8,12,7.8,17.9,11.9c2.1,1.5,4,2.4,6-0.3c1.1-1.5,3-2.3,4.4-3.7c7.4-7.6,14.8-15.2,22.1-22.8c0.5-0.5,0.1-2.3-0.5-3.1
		c-4.2-6.3-8.5-12.6-12.9-18.8c-1.5-2.1-1.5-3.8-0.4-6.1C546.9,436.3,549.9,430.5,551.6,424.5z"/>
	<path class="st3" d="M372.3,393.6c-1-41.5,33.4-81.3,81.3-81.3v-47.1c-6.1,0.2-12,0.4-18.1,0.7c-1.2,0.1-3.3,1.3-3.5,2.3
		c-1.4,6.1-2.1,12.5-3.5,18.7c-0.6,2.9-1.5,7-3.5,8.1c-6.7,3.5-13.9,5.9-20.9,8.6c-1,0.4-2.5,0.1-3.4-0.5c-6.4-4-13-7.8-19-12.4
		c-3.1-2.4-4.7-1.2-6.8,0.5c-2.6,2.2-5.2,4.4-7.6,7c-5.7,6-11.3,12.2-16.9,18.2c-1.8,1.9-1.4,3.2,0,5.2c4.4,6.4,8.7,13.1,12.9,19.7
		c0.5,0.8,0.8,2.2,0.5,3.1c-2.3,5.4-5.7,10.6-7.1,16.2c-1.4,5.5-4.2,7.3-9.4,8c-7.1,0.9-14.2,2.8-21.9,4.4c0,14.2,0,28.1,0,41.8
		c9.7,2,18.5,3.7,27.2,5.5c0.8,0.2,1.8,1.2,2.1,2.1c3.1,7.6,6.2,15.2,9.5,23.3c-4.6,6.7-9.6,13.9-14.5,21.3c-0.5,0.8-0.6,2.7,0,3.4
		c7.7,9.6,15.8,18.7,25.8,26c2.9,2.1,4.2,1.7,6.6,0c5.7-4,11.6-7.9,17.6-11.6c1.2-0.8,3.4-1.2,4.7-0.7c6.7,2.6,13,6,19.8,8.1
		c2.4,0.8,3.2,2.1,3.5,3.5c1.8,8.3,3.1,16.7,4.8,25.8c7,0.3,14.1,0.8,21.2,1v-47.4C403.9,475.3,371.2,434.3,372.3,393.6z"/>
	<path class="st4" d="M454,312.3c-0.2,0-0.3,0-0.5,0v36.8h0.1c20.4,0.1,44.5,16.2,44.5,44.7c0,26.3-21.2,44.5-44.6,44.5v36.9
		c0.1,0,0.2,0,0.2,0c50.4-0.2,81-41.5,81.3-80.8C535.5,352.6,501.9,312.6,454,312.3z"/>
	<path class="st5" d="M453.5,438.3c-24.5,0-44.7-20.1-44.5-44.7c0.2-28.1,23.9-44.5,44.6-44.5v-36.8c-47.9,0-82.3,39.8-81.3,81.3
		c-1.1,40.7,31.6,81.7,81.3,81.6L453.5,438.3C453.6,438.3,453.5,438.3,453.5,438.3z"/>
	<path class="st4" d="M495.2,258.9c-3.5-3.7-6.8-7.1-10.2-10.6c-0.4-0.4-1.1-0.8-1.6-0.7c-5.1,0.8-10.2,1.8-15.9,2.9
		c-3-7.4-6-14.9-9-22.7c3.8-2.5,7.2-5.1,10.9-7.1c2.7-1.5,3.8-3.1,3.4-6.4c-0.5-3.4,0.2-6.9,0.3-10.3c0-0.5-0.5-1.2-0.9-1.5
		c-3.8-2.7-7.4-5.4-11.3-7.9c-1.1-0.8-1.7-1.5-1.1-2.8c1.8-4.5,3.4-9,5.3-13.6c0.8-1.8,1.7-3.7,2.6-5.4c0.8-1.4,1.4-2.4,3.6-1.8
		c4.2,1.2,8.7,1.8,13,2.6c0.6,0.1,1.5-0.1,2-0.5c3.2-3,6.7-5.8,9.5-9.2c0.8-1,0.5-3.4,0.2-5.1c-0.6-3.7-1.5-7.3-2.1-10.9
		c-0.1-0.6,0.8-1.7,1.4-2c4.1-1.9,8.3-3.8,12.4-5.4c2.5-1,5-1.8,7.5-2.5c0.6-0.2,1.8,0.4,2.2,1c2.5,3.8,4.7,7.7,7.3,11.3
		c0.5,0.8,1.9,1.1,3,1.1c4,0.2,8,0.3,12.1,0.3c0.8,0,1.8-0.5,2.1-1.1c2.7-3.7,5.3-7.4,7.9-11.3c0.6-0.8,1.1-1.4,2.2-0.9
		c4.5,1.8,9.1,3.4,13.6,5.2c2.3,0.9,4.3,2.5,6.6,3.4c1.5,0.6,1.3,1.5,1.1,2.7c-0.9,4.5-1.9,9-2.8,13.5c-0.1,0.6,0.1,1.5,0.5,1.9
		c2.8,3,5.7,5.8,8.6,8.7c0.9,0.9,1.7,1.5,3.3,1.1c4.7-1.1,9.6-1.8,15-2.7c3,7.4,6,15,9.1,22.7c-4.2,2.7-8,5.2-12,7.6
		c-1.6,1-2.6,1.9-2.4,4.2c0.3,3.7,0,7.4-0.2,11.1c-0.1,1.5,0.3,2.5,1.5,3.2c3.8,2.4,7.4,4.8,11,7.4c0.5,0.3,1.1,1.2,0.9,1.6
		c-2.3,5.7-4.6,11.5-7,17.2c-0.5,1-1.3,1.9-1.5,2.9c-0.5,1.9-1.7,1.8-3.1,1.5c-4.1-0.9-8.2-1.8-12.3-2.5c-1.1-0.2-2.5,0.2-3.3,0.9
		c-2.9,2.7-5.4,5.8-8.3,8.3c-1.3,1.1-1.3,2-1.1,3.1c0.8,4.4,1.8,8.8,2.5,13.3c0.1,0.8-0.9,2-1.8,2.5c-2.2,1.3-4.5,2.5-7,3.3
		c-4.7,1.8-9.3,3.3-13.9,4.9c-2.9-4.6-5.4-8.8-8.2-12.9c-0.5-0.8-1.2-1.3-2.7-1.1c-4.1,0.3-8.3-0.2-12.5-0.1c-0.8,0-1.8,0.7-2.4,1.4
		c-2.5,3.3-4.7,6.7-7,10.1c-0.9,1.5-1.6,1.9-3.6,1.4c-7.1-2-13.5-5.1-19.7-8.7c-0.5-0.2-0.8-1.3-0.8-1.8
		C492.9,268.5,494.1,263.5,495.2,258.9z M488.3,228.9c8.3,22.3,34.8,37.5,61.8,26.7c27.3-11,34.9-40,26.7-61.3
		c-8.9-22.9-35.8-37.3-61.7-27C488.9,177.3,478.8,206.5,488.3,228.9z"/>
	<path class="st6" d="M488.3,228.9c-9.6-22.4,0.5-51.5,26.7-61.8c26-10.3,52.9,4.2,61.7,27c8.3,21.4,0.6,50.4-26.7,61.3
		C523.2,266.4,496.6,251.1,488.3,228.9z M542.1,235.5c12.7-5.1,20.3-19.5,14.6-33.8c-6.2-15.5-22.7-19-33.8-14.6
		c-11.3,4.4-20.5,18.5-14.6,33.9C513.5,234.4,528.8,240.8,542.1,235.5z"/>
	<path class="st7" d="M496,356.2c-1.8,0-3.4-0.8-4.7-2.2c-6.7-7.9-16.3-12.4-26.6-12.4c-3.4,0-6.1-2.8-6.1-6.1
		c0-3.4,2.8-6.1,6.1-6.1c13.9,0,27,6.1,35.8,16.8c2.1,2.6,1.8,6.4-0.8,8.6C498.8,355.7,497.4,356.2,496,356.2z"/>
	<path class="st7" d="M558.4,189.6c-1.2,0-2.5-0.5-3.2-1.5c-4.6-5.5-11.3-8.7-18.5-8.7c-2.4,0-4.2-1.9-4.2-4.2
		c0-2.3,1.9-4.2,4.2-4.2c9.7,0,18.8,4.3,25,11.7c1.5,1.8,1.2,4.4-0.5,6C560.3,189.3,559.3,189.6,558.4,189.6z"/>
	<path class="st6" d="M453.6,509.6c1.2,0,2.5,0.1,3.7,0.1c0.3,0,0.7,0,1,0c1,0,2,0,3.1-0.1c0.3-1.5,0.5-3.1,0.8-4.6
		c0.5-3.1,1.1-6.4,1.8-9.6c0.3-1.4,0.6-2.6,1.1-3.8c-3.7,0.5-7.5,0.7-11.4,0.7L453.6,509.6L453.6,509.6z"/>
	<path class="st6" d="M464.8,298.4c-0.4-0.9-0.8-1.9-1-3.1c-1.1-4.4-1.8-9-2.7-13.3c-0.1-0.5-0.2-0.8-0.2-1.3c-0.8,0-1.5,0-2.3,0
		h-0.8c-1.4,0-2.8,0-4.3,0.1v16.8C457.4,297.7,461.2,297.9,464.8,298.4z"/>
	<path class="st6" d="M527.2,308.7c-0.2-0.2-0.2-0.2-0.4-0.4c-4.4,2.9-8.4,5.5-12.6,8.1c-0.8,0.5-1.5,0.9-2.4,1.3
		c3.4,2.6,6.7,5.5,9.7,8.7c2.9,3,5.7,6.1,8.2,9.4c0.3-0.7,0.7-1.4,1.1-2c2.8-4.4,5.7-9,8.7-13.3c-0.6-0.8-1.2-1.5-1.8-2
		C534.4,315.2,530.9,312,527.2,308.7z"/>
	<path class="st6" d="M529.8,454.8c-4.9,6.5-10.7,12.5-17.3,17.6c1,0.4,1.9,0.8,2.8,1.4c4.1,2.5,8.1,5.1,12,7.8
		c3.8-3.8,7.9-8,12.1-12.5c-2.4-3.4-4.8-6.9-7.4-10.6C531.1,457.3,530.3,456,529.8,454.8z"/>
	<path class="st6" d="M566.6,386.3c-4.4-1-8.7-1.8-12.7-2.5c-1.7-0.2-3.2-0.6-4.7-1.2c0.6,4.4,0.8,8.8,0.8,13.3
		c0,3.8-0.3,7.6-0.8,11.4c1.8-0.8,3.8-1.3,6-1.7c3.8-0.7,7.5-1.4,11.4-2.1L566.6,386.3z"/>
	<path class="st8" d="M347.4,385c-2.8,0.4-5.7,0.9-8.7,1.6v17.3c5.2,1.1,10.3,2.1,15.2,3.1c0.8,0.2,1.5,0.4,2.1,0.6
		c-0.5-4.1-0.7-8.3-0.6-12.6c-0.1-4.1,0.2-8.3,0.6-12.5C353.6,383.7,350.6,384.5,347.4,385z"/>
	<path class="st8" d="M442.2,290.7l-0.1,0.3c-0.5,2-1,4.6-2.1,7.4c4.2-0.5,8.4-0.8,12.7-0.8h0.4c0.2,0,0.3,0,0.5,0v-16.8
		c-3.1,0.1-6.4,0.2-9.6,0.3C443.5,284.2,442.9,287.5,442.2,290.7z"/>
	<path class="st8" d="M453,492.4h-0.5c-4,0-7.9-0.2-11.8-0.7c0.4,1,0.6,2,0.8,3c1,4.8,1.9,9.6,2.8,14.5c3.1,0.2,6.1,0.2,9.2,0.4
		v-17.2C453.4,492.4,453.2,492.4,453,492.4z"/>
	<path class="st8" d="M375.8,455.3c0,0-2.7,3.9-3.7,5.4c-2.1,3-4.1,6.1-6.2,9.2c3.5,4.1,7.5,8.3,12,12.2c4.2-2.8,8.3-5.5,12.5-8.1
		c0.8-0.5,1.8-1,2.7-1.4c-3.5-2.7-6.9-5.7-10-8.9C380.4,460.9,378.1,458.2,375.8,455.3z"/>
	<path class="st8" d="M387.2,314.3c-3.1-1.9-6.4-3.8-9.5-6c-0.4,0.3-0.7,0.7-1,1c-3,3.1-6,6.4-8.9,9.6c-0.6,0.6-1.2,1.3-1.8,2
		c2.9,4.4,5.7,8.9,8.5,13.1c0.3,0.5,0.6,1.1,0.9,1.6c2.4-3.1,4.9-6,7.6-8.8c3.2-3.3,6.6-6.3,10.1-9c-0.7-0.3-1.4-0.7-2-1.1
		C389.8,315.9,388.5,315.2,387.2,314.3z"/>
</g>
<path class="st9" d="M323.8,190.6"/>
<g>
	<circle class="st10" cx="282" cy="176.5" r="18.5"/>
	<path class="st8" d="M222.9,160.6L100.7,361c-5.3,8.7-2.5,11.5,6.2,6.2L307.3,245c3.6-2.2,7.7-5.6,11.4-9.4l-86.5-86.5
		C228.5,152.9,225,157.1,222.9,160.6z"/>
	<path class="st6" d="M450.1,24c5.3-8.7,2.5-11.5-6.2-6.2L243.5,140c-3.5,2.1-7.6,5.5-11.3,9.2l86.5,86.5c3.7-3.7,7.1-7.8,9.2-11.3
		L450.1,24z"/>
	<path class="st6" d="M265.3,333.7c-12.3-12.3,11.5-56.1,53.2-97.8c0,0,0,0,0.1-0.1l-5-5l-23.1-23.1l-22.3-22.3c0,0,0,0-0.1,0.1
		c-41.7,41.7-65.5,85.5-53.2,97.8l23.1,23.1L265.3,333.7"/>
	<path class="st11" d="M416.5,182.5c-12.3-12.3-56.1,11.5-97.8,53.2c0,0,0,0-0.1,0.1l-5-5l-23.1-23.1l-22.3-22.3c0,0,0,0,0.1-0.1
		c41.7-41.7,85.5-65.5,97.8-53.2l23.1,23.1L416.5,182.5"/>
	<g>
		<path class="st9" d="M122.6,396.4c0,15.3,12.3,27.7,27.6,27.8v-55.6C134.9,368.7,122.6,381.1,122.6,396.4z"/>
		<path class="st2" d="M178.2,396.4c0-15.4-12.4-27.8-27.8-27.8c-0.1,0-0.1,0-0.2,0v55.6c0.1,0,0.1,0,0.2,0
			C165.8,424.2,178.2,411.7,178.2,396.4z"/>
		<line class="st12" x1="150.4" y1="368.6" x2="150.2" y2="278.6"/>
		<path class="st9" d="M147.1,424.2c-7.3,0-13.3,6-13.3,13.3l-11.1,58.7c0,7.3,6,13.3,13.3,13.3h14.2v-85.4H147.1z"/>
		<path class="st2" d="M178.2,496.2l-11.1-58.7c0-7.3-6-13.3-13.3-13.3h-3.6v85.4h14.7C172.2,509.6,178.2,503.6,178.2,496.2z"/>
	</g>
</g>
</svg>
