<?xml version="1.0" encoding="utf-8"?>
<!-- Generator: Adobe Illustrator 19.0.0, SVG Export Plug-In . SVG Version: 6.00 Build 0)  -->
<svg version="1.1" id="Layer_1" xmlns="http://www.w3.org/2000/svg" xmlns:xlink="http://www.w3.org/1999/xlink" x="0px" y="0px"
	 viewBox="-49 141 512 512" style="enable-background:new -49 141 512 512;" xml:space="preserve">
<style type="text/css">
	.st0{fill:#0295AA;}
	.st1{fill:#4ACFD9;}
	.st2{fill:#FD6A33;}
	.st3{fill:#F0353D;}
	.st4{fill:#FF8C29;}
	.st5{fill:#FFD1A9;}
	.st6{fill:#CDD4D5;}
	.st7{fill:#E6EAEA;}
	.st8{fill:#365558;}
	.st9{fill:#9BAAAB;}
	.st10{fill:#FFFFFF;}
	.st11{fill:#BCD643;}
</style>
<g>
	<rect x="-45" y="145" class="st0" width="18" height="504"/>
	<path class="st0" d="M-1,496.6l71.7-105.2l97,66.1l152.1-223.1l-40.6-27.8L396,153l-7.7,128.2l-37.8-25.9l-173,253.9l-97-66.1
		L-0.9,562.6H-1V496.6z"/>
	<rect x="-45" y="631" class="st0" width="504" height="18"/>
	<rect x="389" y="303" class="st1" width="41" height="313"/>
	<rect x="324" y="332" class="st1" width="41" height="284"/>
	<rect x="259" y="431" class="st1" width="41" height="185"/>
	<rect x="194" y="517" class="st0" width="41" height="99"/>
	<rect x="207" y="517" class="st1" width="28" height="99"/>
	<rect x="129" y="530" class="st0" width="41" height="86"/>
	<rect x="64" y="495" class="st0" width="41" height="121"/>
	<rect x="-1" y="569" class="st0" width="41" height="47"/>
	<rect x="-1" y="165" class="st2" width="20" height="20"/>
	<rect x="-1" y="201" class="st3" width="20" height="20"/>
	<rect x="-1" y="237" class="st3" width="20" height="20"/>
	<rect x="16" y="165" class="st2" width="10" height="20"/>
	<rect x="16" y="201" class="st3" width="10" height="20"/>
	<rect x="16" y="237" class="st3" width="10" height="20"/>
	<rect x="26" y="165" class="st4" width="10" height="20"/>
	<rect x="26" y="201" class="st3" width="10" height="20"/>
	<rect x="26" y="237" class="st3" width="10" height="20"/>
	<rect x="52" y="165" class="st4" width="10" height="20"/>
	<rect x="52" y="201" class="st2" width="10" height="20"/>
	<rect x="52" y="237" class="st3" width="10" height="20"/>
	<rect x="60" y="165" class="st4" width="10" height="20"/>
	<rect x="60" y="201" class="st2" width="10" height="20"/>
	<rect x="60" y="237" class="st3" width="10" height="20"/>
	<rect x="66" y="165" class="st5" width="10" height="20"/>
	<rect x="66" y="201" class="st2" width="10" height="20"/>
	<rect x="66" y="237" class="st3" width="10" height="20"/>
	<rect x="74" y="165" class="st5" width="10" height="20"/>
	<rect x="74" y="201" class="st2" width="10" height="20"/>
	<rect x="74" y="237" class="st3" width="10" height="20"/>
	<rect x="100" y="165" class="st5" width="10" height="20"/>
	<rect x="100" y="201" class="st4" width="10" height="20"/>
	<rect x="100" y="237" class="st3" width="10" height="20"/>
	<rect x="108" y="165" class="st5" width="10" height="20"/>
	<rect x="108" y="201" class="st4" width="10" height="20"/>
	<rect x="108" y="237" class="st2" width="10" height="20"/>
	<rect x="110" y="165" class="st5" width="10" height="20"/>
	<rect x="110" y="201" class="st4" width="10" height="20"/>
	<rect x="110" y="237" class="st2" width="10" height="20"/>
	<rect x="120" y="165" class="st6" width="10" height="20"/>
	<rect x="120" y="201" class="st4" width="10" height="20"/>
	<rect x="120" y="237" class="st2" width="10" height="20"/>
	<rect x="144" y="165" class="st6" width="10" height="20"/>
	<rect x="144" y="201" class="st5" width="10" height="20"/>
	<rect x="144" y="237" class="st4" width="10" height="20"/>
	<rect x="153" y="165" class="st7" width="10" height="20"/>
	<rect x="153" y="201" class="st5" width="10" height="20"/>
	<rect x="153" y="237" class="st4" width="10" height="20"/>
	<rect x="163" y="165" class="st7" width="10" height="20"/>
	<rect x="163" y="201" class="st6" width="10" height="20"/>
	<rect x="163" y="237" class="st4" width="10" height="20"/>
	<rect x="180" y="165" class="st7" width="10" height="20"/>
	<rect x="180" y="201" class="st6" width="10" height="20"/>
	<rect x="180" y="237" class="st4" width="10" height="20"/>
	<rect x="187" y="165" class="st7" width="10" height="20"/>
	<rect x="187" y="201" class="st6" width="10" height="20"/>
	<rect x="187" y="237" class="st4" width="10" height="20"/>
	<rect x="201" y="165" class="st7" width="10" height="20"/>
	<rect x="201" y="201" class="st7" width="10" height="20"/>
	<rect x="201" y="237" class="st4" width="10" height="20"/>
	<rect x="211" y="165" class="st7" width="10" height="20"/>
	<rect x="211" y="201" class="st7" width="10" height="20"/>
	<rect x="211" y="237" class="st5" width="10" height="20"/>
	<rect x="225" y="165" class="st7" width="10" height="20"/>
	<rect x="225" y="201" class="st7" width="10" height="20"/>
	<rect x="225" y="237" class="st5" width="10" height="20"/>
	<rect x="207" y="631" class="st1" width="252" height="18"/>
	<path class="st1" d="M207,465.9l143.5-210.5l37.8,25.9L396,153l-116.8,53.5l40.6,27.8L207,399.7V465.9z"/>
</g>
<rect x="-666" y="103" class="st3" width="128" height="128"/>
<rect x="-538" y="103" class="st2" width="128" height="128"/>
<rect x="-410" y="103" class="st4" width="128" height="128"/>
<rect x="-282" y="103" class="st5" width="128" height="128"/>
<rect x="-666" y="231" class="st8" width="128" height="128"/>
<rect x="-538" y="231" class="st0" width="128" height="128"/>
<rect x="-410" y="231" class="st1" width="128" height="128"/>
<rect x="-666" y="359" class="st9" width="128" height="128"/>
<rect x="-538" y="359" class="st6" width="128" height="128"/>
<rect x="-410" y="359" class="st7" width="128" height="128"/>
<rect x="-282" y="359" class="st10" width="128" height="128"/>
<rect x="-666" y="487" class="st11" width="128" height="128"/>
</svg>
