<?xml version="1.0" encoding="utf-8"?>
<!-- Generator: Adobe Illustrator 19.0.0, SVG Export Plug-In . SVG Version: 6.00 Build 0)  -->
<svg version="1.1" id="Layer_1" xmlns="http://www.w3.org/2000/svg" xmlns:xlink="http://www.w3.org/1999/xlink" x="0px" y="0px"
	 viewBox="96 11 512 512" style="enable-background:new 96 11 512 512;" xml:space="preserve">
<style type="text/css">
	.st0{display:none;fill:#020202;}
	.st1{fill:#F0353D;}
	.st2{fill:#FD6A33;}
	.st3{fill:#FF8C29;}
	.st4{fill:#FFD1A9;}
	.st5{fill:#365558;}
	.st6{fill:#0295AA;}
	.st7{fill:#4ACFD9;}
	.st8{fill:none;stroke:#000000;stroke-miterlimit:10;}
	.st9{fill:#9BAAAB;}
	.st10{fill:#CDD4D5;}
	.st11{fill:#E6EAEA;}
	.st12{fill:#FFFFFF;}
	.st13{fill:#BCD643;}
</style>
<rect x="398" y="-184" class="st0" width="512" height="512"/>
<g>
	<rect x="-428" y="74.1" class="st1" width="128" height="128"/>
	<rect x="-300" y="74.1" class="st2" width="128" height="128"/>
	<rect x="-172" y="74.1" class="st3" width="128" height="128"/>
	<rect x="-44" y="74.1" class="st4" width="128" height="128"/>
	<rect x="-428" y="202.1" class="st5" width="128" height="128"/>
	<rect x="-300" y="202.1" class="st6" width="128" height="128"/>
	<rect x="-172" y="202.1" class="st7" width="128" height="128"/>
	<rect x="-44" y="202.1" class="st8" width="128" height="128"/>
	<rect x="-428" y="330.1" class="st9" width="128" height="128"/>
	<rect x="-300" y="330.1" class="st10" width="128" height="128"/>
	<rect x="-172" y="330.1" class="st11" width="128" height="128"/>
	<rect x="-44" y="330.1" class="st12" width="128" height="128"/>
	<rect x="-428" y="458.1" class="st13" width="128" height="128"/>
	<rect x="-300" y="458.1" class="st8" width="128" height="128"/>
	<rect x="-172" y="458.1" class="st8" width="128" height="128"/>
	<rect x="-44" y="458.1" class="st8" width="128" height="128"/>
</g>
<path class="st1" d="M107,40h490c6,0,11,4.9,11,11l0,0c0,6.1-4.9,11-11,11H107c-6,0-11-4.9-11-11l0,0C96,44.9,101,40,107,40z"/>
<path class="st4" d="M292.6,116.8H413v154.9h74.8V93.1c-0.1-4-3.3-7.2-7.2-7.2H223.4c-3.9,0-7.1,3.2-7.1,7.1v178.7h76.3V116.8z"/>
<path class="st4" d="M352.9,425.5L216.3,288.6V441c0,3.9,3.2,7.1,7.1,7.1h185.4c1.8,0,3.7-0.7,5-2.1l71.9-71.9
	c1.3-1.3,2.1-3.1,2.1-5v-78.5L352.9,425.5z"/>
<path class="st3" d="M216.2,441c0,3.9,3.2,7.1,7.1,7.1H352v-23.5l-135.8-136V441z"/>
<path class="st3" d="M292.6,116.8H352V85.9H223.3c-3.9,0-7.1,3.2-7.1,7.1v178.7h76.4V116.8z"/>
<path class="st2" d="M408.7,376.4v71.9c1.8,0,3.7-0.7,5-2.1l71.9-71.9c1.3-1.3,2.1-3.1,2.1-5h-71.9
	C411.9,369.2,408.7,372.4,408.7,376.4z"/>
<path class="st4" d="M444.4,124.1"/>
<rect x="312.6" y="136.8" class="st1" width="80.3" height="156.8"/>
<polygon class="st1" points="247.7,291.7 352.9,397.2 458.3,291.7 "/>
</svg>
