<?xml version="1.0" encoding="utf-8"?>
<!-- Generator: Adobe Illustrator 19.0.0, SVG Export Plug-In . SVG Version: 6.00 Build 0)  -->
<svg version="1.1" id="Layer_1" xmlns="http://www.w3.org/2000/svg" xmlns:xlink="http://www.w3.org/1999/xlink" x="0px" y="0px"
	 viewBox="96 11 512 512" style="enable-background:new 96 11 512 512;" xml:space="preserve">
<style type="text/css">
	.st0{display:none;fill:#020202;}
	.st1{fill:#F0353D;}
	.st2{fill:#FD6A33;}
	.st3{fill:#FF8C29;}
	.st4{fill:#FFD1A9;}
	.st5{fill:#365558;}
	.st6{fill:#0295AA;}
	.st7{fill:#4ACFD9;}
	.st8{fill:none;stroke:#000000;stroke-miterlimit:10;}
	.st9{fill:#9BAAAB;}
	.st10{fill:#CDD4D5;}
	.st11{fill:#E6EAEA;}
	.st12{fill:#FFFFFF;}
	.st13{fill:#BCD643;}
</style>
<rect x="494" y="-173" class="st0" width="512" height="512"/>
<g>
	<rect x="-595" y="-46.9" class="st1" width="128" height="128"/>
	<rect x="-467" y="-46.9" class="st2" width="128" height="128"/>
	<rect x="-339" y="-46.9" class="st3" width="128" height="128"/>
	<rect x="-211" y="-46.9" class="st4" width="128" height="128"/>
	<rect x="-595" y="81.1" class="st5" width="128" height="128"/>
	<rect x="-467" y="81.1" class="st6" width="128" height="128"/>
	<rect x="-339" y="81.1" class="st7" width="128" height="128"/>
	<rect x="-211" y="81.1" class="st8" width="128" height="128"/>
	<rect x="-595" y="209.1" class="st9" width="128" height="128"/>
	<rect x="-467" y="209.1" class="st10" width="128" height="128"/>
	<rect x="-339" y="209.1" class="st11" width="128" height="128"/>
	<rect x="-211" y="209.1" class="st12" width="128" height="128"/>
	<rect x="-595" y="337.1" class="st13" width="128" height="128"/>
	<rect x="-467" y="337.1" class="st8" width="128" height="128"/>
	<rect x="-339" y="337.1" class="st8" width="128" height="128"/>
	<rect x="-211" y="337.1" class="st8" width="128" height="128"/>
</g>
<path class="st13" d="M107,472h490c6,0,11,4.9,11,11l0,0c0,6-4.9,11-11,11H107c-6,0-11-4.9-11-11l0,0C96,476.9,101,472,107,472z"/>
<path class="st4" d="M225.3,34.4"/>
<g>
	<path class="st4" d="M245.8,11.2H100.1c-2.2,0-4,1.8-4,4v86.2L173.6,24l76.3,76.3v-85C249.8,13,248,11.2,245.8,11.2z"/>
	<path class="st4" d="M207.7,111v87.6h-68.2V111H96.1v101c0,2.2,1.8,4,4,4h105c1,0,2.1-0.4,2.8-1.2l40.7-40.7
		c0.7-0.7,1.2-1.8,1.2-2.8v-60.4h-42.1V111z"/>
	<path class="st3" d="M172.9,11.2H100c-2.2,0-4,1.8-4,4v86.3l76.9-76.8V11.2z"/>
	<path class="st3" d="M139.5,111H96v101c0,2.2,1.8,4,4,4h72.9v-17.4h-33.4V111z"/>
	<path class="st2" d="M205.1,175.5v40.7l0,0c1,0,2.1-0.4,2.8-1.2l40.7-40.7c0.7-0.7,1.2-1.8,1.2-2.8l0,0h-40.7
		C206.9,171.5,205.1,173.3,205.1,175.5z"/>
	<rect x="150.8" y="98.7" class="st13" width="45.5" height="88.7"/>
	<polygon class="st13" points="233.2,99.7 173.6,40 113.8,99.7 	"/>
</g>
<path class="st4" d="M404.4,32.7"/>
<g>
	<path class="st4" d="M424.9,11H279.1c-2.2,0-4,1.8-4,4v86.4l77.5-77.5l76.3,76.4V15.1C428.9,12.8,427.1,11,424.9,11z"/>
	<path class="st4" d="M387,215.1l40.7-40.7c0.7-0.7,1.2-1.8,1.2-2.8v-60.5h-42.2v87.8h-68.2v-87.8H275v101.1c0,2.2,1.8,4,4,4h105
		C385.2,216.3,386.3,215.9,387,215.1z"/>
	<path class="st3" d="M352,11h-72.9c-2.2,0-4,1.8-4,4v86.4L352,24.5V11z"/>
	<path class="st3" d="M318.6,111h-43.5v101.2c0,2.2,1.8,4,4,4H352v-17.5h-33.4V111z"/>
	<path class="st2" d="M427.7,174.4c0.7-0.7,1.2-1.8,1.2-2.8h-40.7c-2.2-0.1-4,1.8-4,4v40.7c1,0,2.1-0.4,2.8-1.2L427.7,174.4z"/>
	<rect x="329.9" y="98.6" class="st13" width="45.5" height="88.8"/>
	<polygon class="st13" points="412.2,99.7 352.6,39.9 292.9,99.7 	"/>
</g>
<path class="st4" d="M583.4,32.7"/>
<g>
	<path class="st4" d="M603.9,11H458.2c-2.2,0-4,1.8-4,4v86.4l77.5-77.5l76.3,76.4V15.1C607.9,12.8,606.1,11,603.9,11z"/>
	<path class="st4" d="M458.2,216.3h105c1,0,2.1-0.4,2.8-1.2l40.7-40.7c0.7-0.7,1.2-1.8,1.2-2.8v-60.5h-42.2v87.8h-68.2v-87.8H454
		v101.1C454.2,214.4,456,216.3,458.2,216.3z"/>
	<path class="st3" d="M531.1,11h-72.9c-2.2,0-4,1.8-4,4v86.4l76.9-76.9V11z"/>
	<path class="st3" d="M458.1,216.3H531v-17.5h-33.4V111h-43.5v101.2C454.1,214.4,455.9,216.3,458.1,216.3z"/>
	<path class="st2" d="M606.8,174.4c0.7-0.7,1.2-1.8,1.2-2.8h-40.7c-2.2-0.1-4,1.8-4,4v40.7c1,0,2.1-0.4,2.8-1.2L606.8,174.4z"/>
	<rect x="509" y="98.6" class="st13" width="45.5" height="88.8"/>
	<polygon class="st13" points="591.3,99.7 531.7,39.9 472,99.7 	"/>
</g>
<path class="st4" d="M225.3,257.8"/>
<g>
	<path class="st4" d="M245.8,234.5H100.1c-2.2,0-4,1.8-4,4v86.2l77.5-77.4l76.3,76.3v-85C249.8,236.3,248,234.5,245.8,234.5z"/>
	<path class="st4" d="M207.7,334.4v87.6h-68.2v-87.6H96.1v101c0,2.2,1.8,4,4,4h105c1,0,2.1-0.4,2.8-1.2l40.7-40.7
		c0.7-0.7,1.2-1.8,1.2-2.8v-60.4h-42.1V334.4z"/>
	<path class="st3" d="M172.9,234.5H100c-2.2,0-4,1.8-4,4v86.3l76.9-76.8V234.5z"/>
	<path class="st3" d="M139.5,334.4H96v101c0,2.2,1.8,4,4,4h72.9V422h-33.4V334.4z"/>
	<path class="st2" d="M205.1,398.9v40.7l0,0c1,0,2.1-0.4,2.8-1.2l40.7-40.7c0.7-0.7,1.2-1.8,1.2-2.8l0,0h-40.7
		C206.9,394.9,205.1,396.6,205.1,398.9z"/>
	<rect x="150.8" y="322" class="st13" width="45.5" height="88.7"/>
	<polygon class="st13" points="233.2,323 173.6,263.3 113.8,323 	"/>
</g>
<path class="st4" d="M404.4,256"/>
<g>
	<path class="st4" d="M424.9,234.3H279.1c-2.2,0-4,1.8-4,4v86.4l77.5-77.5l76.3,76.4v-85.2C428.9,236.1,427.1,234.3,424.9,234.3z"/>
	<path class="st4" d="M387,438.4l40.7-40.7c0.7-0.7,1.2-1.8,1.2-2.8v-60.5h-42.2v87.8h-68.2v-87.8H275v101.1c0,2.2,1.8,4,4,4h105
		C385.2,439.6,386.3,439.3,387,438.4z"/>
	<path class="st3" d="M352,234.3h-72.9c-2.2,0-4,1.8-4,4v86.4l76.9-76.9V234.3z"/>
	<path class="st3" d="M318.6,334.4h-43.5v101.2c0,2.2,1.8,4,4,4H352V422h-33.4V334.4z"/>
	<path class="st2" d="M427.7,397.8c0.7-0.7,1.2-1.8,1.2-2.8h-40.7c-2.2-0.1-4,1.8-4,4v40.7c1,0,2.1-0.4,2.8-1.2L427.7,397.8z"/>
	<rect x="329.9" y="321.9" class="st13" width="45.5" height="88.8"/>
	<polygon class="st13" points="412.2,323 352.6,263.3 292.9,323 	"/>
</g>
<path class="st4" d="M583.4,256"/>
<g>
	<path class="st4" d="M603.9,234.3H458.2c-2.2,0-4,1.8-4,4v86.4l77.5-77.5l76.3,76.4v-85.2C607.9,236.1,606.1,234.3,603.9,234.3z"/>
	<path class="st4" d="M458.2,439.6h105c1,0,2.1-0.4,2.8-1.2l40.7-40.7c0.7-0.7,1.2-1.8,1.2-2.8v-60.5h-42.2v87.8h-68.2v-87.8H454
		v101.1C454.2,437.8,456,439.6,458.2,439.6z"/>
	<path class="st3" d="M531.1,234.3h-72.9c-2.2,0-4,1.8-4,4v86.4l76.9-76.9V234.3z"/>
	<path class="st3" d="M458.1,439.6H531v-17.5h-33.4v-87.8h-43.5v101.2C454.1,437.8,455.9,439.6,458.1,439.6z"/>
	<path class="st2" d="M606.8,397.8c0.7-0.7,1.2-1.8,1.2-2.8h-40.7c-2.2-0.1-4,1.8-4,4v40.7c1,0,2.1-0.4,2.8-1.2L606.8,397.8z"/>
	<rect x="509" y="321.9" class="st13" width="45.5" height="88.8"/>
	<polygon class="st13" points="591.3,323 531.7,263.3 472,323 	"/>
</g>
</svg>
