<?xml version="1.0" encoding="utf-8"?>
<!-- Generator: Adobe Illustrator 19.0.0, SVG Export Plug-In . SVG Version: 6.00 Build 0)  -->
<svg version="1.1" id="Layer_1" xmlns="http://www.w3.org/2000/svg" xmlns:xlink="http://www.w3.org/1999/xlink" x="0px" y="0px"
	 viewBox="-49 141 512 512" style="enable-background:new -49 141 512 512;" xml:space="preserve">
<style type="text/css">
	.st0{display:none;fill:#E6EAEA;}
	.st1{display:none;fill:#4ACFD9;}
	.st2{display:none;fill:#0295AA;}
	.st3{display:none;fill:#FFFFFF;}
	.st4{fill:#687F82;}
	.st5{fill:#365558;}
	.st6{fill:#E6EAEA;}
	.st7{fill:#FF8C29;}
	.st8{fill:#F0353D;}
	.st9{fill:#FFFFFF;}
	.st10{fill:#9BAAAB;}
	.st11{fill:#0295AA;}
	.st12{fill:none;stroke:#BCD643;stroke-width:13;stroke-linecap:round;stroke-linejoin:round;stroke-miterlimit:10;}
	.st13{fill:#FD6A33;}
</style>
<path class="st0" d="M-49.8,307.3h-288.3c-4.4,0-7.9,3.6-7.9,8v390.1c0,4.4,3.6,8,7.9,8h207.8c2.1,0,4.1-0.8,5.6-2.3l80.6-80.6
	c1.5-1.5,2.3-3.5,2.3-5.6V315.3C-41.9,310.9-45.4,307.3-49.8,307.3z M-194,606.1c-55.9,0-101.2-45.3-101.2-101.2
	s45.3-101.2,101.2-101.2S-92.8,449-92.8,504.9S-138.1,606.1-194,606.1z"/>
<path class="st1" d="M-92.8,504.9c0-55.8-45.4-101.2-101.2-101.2s-101.2,45.4-101.2,101.2s45.4,101.2,101.2,101.2
	S-92.8,560.7-92.8,504.9z"/>
<path class="st2" d="M-295.2,504.9c0,55.8,45.4,101.2,101.2,101.2V403.6C-249.8,403.6-295.2,449.1-295.2,504.9z"/>
<path class="st3" d="M-157.2,463.2l-68.6,68.6l-19.8-19.8c-3.1-3.1-8.1-3.1-11.2,0c-3.1,3.1-3.1,8.1,0,11.2l25.4,25.4
	c1.6,1.6,3.6,2.3,5.6,2.3s4.1-0.8,5.6-2.3l74.2-74.2c3.1-3.1,3.1-8.1,0-11.2S-154.1,460.1-157.2,463.2z"/>
<path class="st4" d="M455,183.4H98.8c-4.4,0-8,3.6-8,8v54.6c5.7,0.3,11.1,2.8,15,6.8l43.7,43.1c4.2,4.2,6.7,10.1,6.7,16
	c0,6.3-2.6,12.3-7.3,16.5l-43.4,42c-3.8,4.1-9,6.6-14.6,7V645c0,4.4,3.6,8,8,8H455c4.4,0,8-3.6,8-8V191.4
	C462.9,187,459.4,183.4,455,183.4z M276.9,516c-55.9,0-101.2-45.3-101.2-101.2c0-55.9,45.3-101.2,101.2-101.2
	c55.9,0,101.2,45.3,101.2,101.2C378.1,470.8,332.8,516,276.9,516z"/>
<path class="st5" d="M276.9,313.7V183.4H98.8c-4.4,0-8,3.6-8,8v54.6c5.7,0.3,11.1,2.8,15,6.8l43.7,43.1c4.2,4.2,6.7,10.1,6.7,16
	c0,6.3-2.6,12.3-7.3,16.5l-43.4,42c-3.8,4.1-9,6.6-14.6,7V645c0,4.4,3.6,8,8,8h178.1V516c-55.9,0-101.2-45.3-101.2-101.2
	C175.7,359,221,313.7,276.9,313.7z"/>
<path class="st6" d="M420.4,217.3H132.1c-4.4,0-7.9,3.6-7.9,8V271l25.2,24.9c4.2,4.2,6.7,10.1,6.7,16c0,6.3-2.6,12.3-7.3,16.5
	l-24.6,23.9v263.1c0,4.4,3.6,8,7.9,8h207.8c2.1,0,4.1-0.8,5.6-2.3l80.6-80.6c1.5-1.5,2.3-3.5,2.3-5.6V225.3
	C428.3,220.9,424.8,217.3,420.4,217.3z"/>
<path class="st7" d="M361.7,183.4h-28.3c-7.2-24.9-30-42.4-56.5-42.4s-49.3,17.5-56.5,42.4h-28.3c-4.4,0-8,3.6-8,7.9V255
	c0,4.4,3.6,7.9,8,7.9h169.6c4.4,0,8-3.6,8-7.9v-63.6C369.7,187,366.1,183.4,361.7,183.4z"/>
<path class="st8" d="M220.4,183.4h-28.3c-4.4,0-8,3.6-8,7.9V255c0,4.4,3.6,7.9,8,7.9h84.8V141C250.4,141,227.6,158.5,220.4,183.4z"
	/>
<path class="st9" d="M306.1,202.8c-3.8,0-7.2-2.8-7.8-6.6c-1.8-10.5-10.8-18.1-21.4-18.1c-4.4,0-8-3.6-8-8s3.6-8,8-8
	c18.4,0,34,13.2,37.1,31.3c0.7,4.3-2.2,8.4-6.5,9.2C307,202.8,306.6,202.8,306.1,202.8z"/>
<path class="st10" d="M340.5,542.8v80.6l0,0c2.1,0,4.1-0.8,5.6-2.3l80.6-80.6c1.5-1.5,2.3-3.5,2.3-5.6l0,0h-80.6
	C344.1,534.8,340.5,538.3,340.5,542.8z"/>
<path class="st5" d="M268.3,283L141.1,398.4c-5.5,5-5.5,13.2,0,18.2l127,115.4c2.3,2,5.3,3.1,8.3,3.1V280
	C273.5,279.9,270.5,281,268.3,283z"/>
<path class="st11" d="M411.5,398.5c5.5,5,5.5,13.2,0,18.2l-127,115.3c-2.3,2-5.1,3-8,3V280c2.9,0,5.8,1.1,8,3L411.5,398.5z"/>
<line class="st12" x1="276.5" y1="565.5" x2="276.3" y2="407.6"/>
<path class="st7" d="M274.2,593.7c-5.1,0-9.3,4.1-9.3,9.3l-7.7,40.8c0,5.1,4.1,9.3,9.3,9.3h9.8v-59.3h-2.1V593.7z"/>
<path class="st7" d="M257.2,574.3c0,10.6,8.6,19.2,19.1,19.3v-38.6C265.8,555.1,257.2,563.7,257.2,574.3z"/>
<path class="st13" d="M295.7,574.3c0-10.6-8.6-19.3-19.3-19.3h-0.1v38.7h0.1C287.1,593.7,295.7,585.1,295.7,574.3z"/>
<path class="st13" d="M295.7,643.7l-7.7-40.8c0-5.1-4.1-9.3-9.3-9.3h-2.5v59.3h10.2C291.6,652.9,295.7,648.8,295.7,643.7z"/>
<path class="st11" d="M83.4,327.1h5.2V296h-5.2C10.4,296-49,354.8-49,427c0,66.9,50.9,122.2,116.4,130v-31.4
	c-48.1-7.7-85-49-85-98.6C-17.6,371.9,27.7,327.1,83.4,327.1z"/>
<path class="st11" d="M91.4,266.7c-0.5-0.6-1.2-0.8-1.9-0.8c-0.7,0-1.4,0.3-1.9,0.8l-0.4,0.4c-0.5,0.5-0.8,1.1-0.8,1.9v85.8
	c0,1.1,0.6,2.1,1.6,2.5c0.3,0.1,0.8,0.2,1.1,0.2c0.7,0,1.4-0.2,1.8-0.8l44.3-42.9c0.6-0.5,0.9-1.1,0.9-1.9c0-0.7-0.3-1.4-0.8-1.9
	L91.4,266.7z"/>
</svg>
