<?xml version="1.0" encoding="utf-8"?>
<!-- Generator: Adobe Illustrator 19.0.0, SVG Export Plug-In . SVG Version: 6.00 Build 0)  -->
<svg version="1.1" id="Layer_1" xmlns="http://www.w3.org/2000/svg" xmlns:xlink="http://www.w3.org/1999/xlink" x="0px" y="0px"
	 viewBox="96 11 512 512" style="enable-background:new 96 11 512 512;" xml:space="preserve">
<style type="text/css">
	.st0{fill:#4ACFD9;}
	.st1{fill:#0295AA;}
	.st2{fill:#E6EAEA;}
	.st3{fill:#CDD4D5;}
	.st4{fill:#FF8C29;}
	.st5{fill:#FD6A33;}
</style>
<path class="st0" d="M352,11C210.9,11,96,125.9,96,267s114.9,256,256,256s256-114.9,256-256S493.1,11,352,11z"/>
<path class="st1" d="M96,267c0,140.6,113.5,254.6,253.7,256V11C209.5,12.4,96,126.4,96,267z"/>
<path class="st2" d="M351.5,50.5c-0.7,0-1.2,0-1.9,0v431.3c0.7,0,1.2,0,1.9,0c119,0,215.7-96.8,215.7-215.7S470.3,50.5,351.5,50.5z"
	/>
<path class="st3" d="M135.7,266.3c0,118.3,95.7,214.7,213.8,215.7V50.7C231.4,51.6,135.7,148,135.7,266.3z"/>
<path class="st4" d="M386.3,212.6c-10.4,5-22,7.8-34.3,7.8c-0.1,0-0.2,0-0.3,0v205.2h49.2c5.8,0,10.5-4.7,10.5-10.5L386.3,212.6z"/>
<path class="st5" d="M317.7,212.6L292.6,415c0,5.8,4.7,10.5,10.5,10.5h48.6V220.3C339.5,220.3,328,217.5,317.7,212.6z"/>
<path class="st4" d="M352,108.5c-0.1,0-0.2,0-0.3,0v135.7c0.1,0,0.2,0,0.3,0c37.5,0,67.9-30.4,67.9-67.9S389.5,108.5,352,108.5z"/>
<path class="st5" d="M284.1,176.4c0,37.4,30.2,67.7,67.6,67.9V108.5C314.3,108.7,284.1,139,284.1,176.4z"/>
</svg>
