<svg width="512" height="512" viewBox="0 0 512 512" fill="none" xmlns="http://www.w3.org/2000/svg">
<path d="M456.127 130.152H92.8718C89.6287 130.152 87 132.787 87 136.038V400.114C87 403.364 89.6279 405.999 92.8718 405.999H456.128C459.371 405.999 462 403.364 462 400.113V136.038C461.999 132.787 459.371 130.152 456.127 130.152Z" fill="#E6EAEA"/>
<path d="M315.482 149.238H120.669C117.415 149.238 114.777 151.957 114.777 155.311V203.887C114.777 207.24 117.414 209.959 120.669 209.959H315.483C318.737 209.959 321.375 207.241 321.375 203.887V155.311C321.374 151.957 318.737 149.238 315.482 149.238Z" fill="#FD6A33"/>
<path d="M367.596 227.309H120.639C117.401 227.309 114.777 230.027 114.777 233.381V281.957C114.777 285.31 117.401 288.03 120.639 288.03H367.596C370.834 288.03 373.458 285.311 373.458 281.957V233.381C373.458 230.028 370.835 227.309 367.596 227.309Z" fill="#FF8C29"/>
<path d="M416.174 308.848H120.672C117.416 308.848 114.777 311.411 114.777 314.573V360.374C114.777 363.535 117.415 366.099 120.672 366.099H416.174C419.43 366.099 422.069 363.536 422.069 360.374V314.573C422.069 311.411 419.43 308.848 416.174 308.848Z" fill="#4ACFD9"/>
<path d="M92.8175 130.152C89.6043 130.152 87 132.787 87 136.038V400.114C87 403.364 89.6036 405.999 92.8175 405.999H272.764V130.152H92.8175Z" fill="#CDD4D5"/>
<path d="M120.6 149.238C117.384 149.238 114.777 151.957 114.777 155.311V203.887C114.777 207.24 117.383 209.959 120.6 209.959H272.763V149.239H120.6V149.238Z" fill="#F0353D"/>
<path d="M120.6 227.309C117.384 227.309 114.777 230.027 114.777 233.381V281.957C114.777 285.31 117.383 288.03 120.6 288.03H272.763V227.309H120.6V227.309Z" fill="#FD6A33"/>
<path d="M120.6 308.848C117.384 308.848 114.777 311.411 114.777 314.573V360.374C114.777 363.535 117.383 366.099 120.6 366.099H272.763V308.848H120.6V308.848Z" fill="#0295AA"/>
<path d="M274.499 406C270.664 406 267.555 403.375 267.555 400.136V118.669C267.555 115.431 270.663 112.805 274.499 112.805C278.335 112.805 281.444 115.43 281.444 118.669V400.137C281.444 403.375 278.335 406 274.499 406Z" fill="#365558"/>
<path d="M312.016 33H233.513C230.261 33 227.625 35.5944 227.625 38.7953V93.4388C227.625 95.4151 228.648 97.2541 230.339 98.3196L271.16 124.034C272.129 124.645 273.232 124.949 274.334 124.949C275.508 124.949 276.681 124.603 277.688 123.917L315.37 98.2018C316.956 97.1182 317.903 95.3399 317.903 93.4388V38.7953C317.904 35.5944 315.268 33 312.016 33Z" fill="#9BAAAB"/>
<path d="M233.315 33C230.172 33 227.625 35.5944 227.625 38.7953V93.4388C227.625 95.4151 228.614 97.2541 230.247 98.3196L269.696 124.034C270.633 124.645 271.699 124.949 272.764 124.949V33H233.315Z" fill="#687F82"/>
<path d="M287.522 83.3104C284.166 83.3104 281.445 80.7366 281.445 77.561V56.0971C281.445 52.9223 284.165 50.3477 287.522 50.3477C290.879 50.3477 293.598 52.9215 293.598 56.0971V77.561C293.598 80.7366 290.879 83.3104 287.522 83.3104Z" fill="white"/>
<path d="M423.39 78.0777C397.076 103.187 424.997 137.335 424.997 137.335C424.997 137.335 492.692 212.462 511.373 241.588V101.982C503.539 96.9597 496.106 91.5362 488.473 86.5143C467.984 72.6541 439.259 63.0122 423.39 78.0777Z" fill="#FFD1A9"/>
<path d="M487.671 308.079C461.959 328.97 451.514 331.38 421.584 335.799C400.492 339.013 318.938 343.834 283.182 346.446C247.427 349.057 216.091 355.083 216.091 355.083C216.091 355.083 118.466 306.874 79.8987 282.568C38.5189 261.476 26.4665 270.114 8.99055 290.603C-8.4854 311.092 2.16083 342.227 18.4316 355.887C24.8595 361.109 78.4926 423.38 128.108 450.498C138.755 461.345 167.68 473.397 199.016 479.424C208.658 479.624 294.632 490.07 357.706 493.485C387.034 495.292 465.575 501.921 511.776 511.764V278.5L505.147 287.59C499.322 294.62 492.693 303.66 487.671 308.079Z" fill="#FFD1A9"/>
<path d="M511.373 470.583V429.404C463.565 419.561 427.207 411.325 406.718 405.902C370.159 396.461 355.898 394.653 325.767 399.474C295.636 404.496 294.029 439.046 324.762 440.05C355.295 440.854 343.443 431.011 396.876 445.072C418.57 451.098 459.146 460.137 511.373 470.583Z" fill="#FF8C29"/>
</svg>
