<?xml version="1.0" encoding="utf-8"?>
<!-- Generator: Adobe Illustrator 19.0.0, SVG Export Plug-In . SVG Version: 6.00 Build 0)  -->
<svg version="1.1" id="Layer_1" xmlns="http://www.w3.org/2000/svg" xmlns:xlink="http://www.w3.org/1999/xlink" x="0px" y="0px"
	 viewBox="96 11 512 512" style="enable-background:new 96 11 512 512;" xml:space="preserve">
<style type="text/css">
	.st0{fill:#0295AA;}
	.st1{fill:#365558;}
	.st2{fill:#FF8C29;}
	.st3{fill:#FFD1A9;}
	.st4{fill:#FD6A33;}
	.st5{fill:#F0353D;}
	.st6{fill:#4ACFD9;}
	.st7{fill:#9BAAAB;}
	.st8{fill:#CDD4D5;}
	.st9{fill:#E6EAEA;}
	.st10{fill:#FFFFFF;}
	.st11{fill:#BCD643;}
</style>
<path class="st0" d="M352,194.8v144.8c39.9,0,72.4-32.5,72.4-72.4S391.9,194.8,352,194.8z"/>
<path class="st1" d="M279.5,267.3c0,39.9,32.5,72.4,72.4,72.4V194.8C312,194.8,279.5,227.3,279.5,267.3z"/>
<path class="st2" d="M352,77.3v59.9c71.8,0,130.1,58.3,130.1,130.1S423.8,397.3,352,397.3v59.9c104.8,0,190-85.2,190-190
	S456.7,77.3,352,77.3z"/>
<path class="st3" d="M372.3,98.8c-13.9-1.3-13.7,17,0,19.3c73.4,9.9,130.1,73,130.1,149.1c0,13.5,19.2,15.3,19.2,0
	C521.6,180.6,456.2,108.9,372.3,98.8z"/>
<path class="st4" d="M221.9,267.3c0-71.8,58.3-130.1,130.1-130.1V77.3c-104.8,0-190,85.2-190,190s85.2,190,190,190v-59.9
	C280.1,397.3,221.9,339.1,221.9,267.3z"/>
<rect x="-596" y="22" class="st5" width="128" height="128"/>
<rect x="-468" y="22" class="st4" width="128" height="128"/>
<rect x="-340" y="22" class="st2" width="128" height="128"/>
<rect x="-212" y="22" class="st3" width="128" height="128"/>
<rect x="-596" y="150" class="st1" width="128" height="128"/>
<rect x="-468" y="150" class="st0" width="128" height="128"/>
<rect x="-340" y="150" class="st6" width="128" height="128"/>
<rect x="-596" y="278" class="st7" width="128" height="128"/>
<rect x="-468" y="278" class="st8" width="128" height="128"/>
<rect x="-340" y="278" class="st9" width="128" height="128"/>
<rect x="-212" y="278" class="st10" width="128" height="128"/>
<rect x="-596" y="406" class="st11" width="128" height="128"/>
<path class="st3" d="M352.1,137.2L352.1,137.2l-0.1,57.7h0.1c7.3,0,13.3-6.4,13.3-14v-29.6C365.3,143.5,359.4,137.2,352.1,137.2z"/>
<path class="st2" d="M351.8,137.2c-7.3,0-13.3,6.4-13.3,14v29.6c0,7.7,6,14,13.3,14h0.1L351.8,137.2L351.8,137.2z"/>
<path class="st6" d="M533.8,86.3l-0.4-0.4L488,131.3l0.4,0.4c8.4,8.4,22,8.4,30.4,0l14.8-14.8C542.2,108.3,542.2,94.7,533.8,86.3z"
	/>
<path class="st0" d="M532.9,85.4c-8.4-8.4-22-8.4-30.4,0l-14.8,14.8c-8.4,8.4-8.4,22,0,30.4l0.4,0.4l45.3-45.3L532.9,85.4z"/>
<path class="st6" d="M170.1,448.1l0.4,0.4l45.3-45.3l-0.4-0.4c-8.4-8.4-22-8.4-30.4,0l-14.8,14.8
	C161.8,426.1,161.8,439.9,170.1,448.1z"/>
<path class="st0" d="M171.1,449c8.4,8.4,22,8.4,30.4,0l14.8-14.8c8.4-8.4,8.4-22,0-30.4l-0.4-0.4l-45.3,45.3L171.1,449z"/>
<path class="st6" d="M532.9,449l0.4-0.4L488,403.4l-0.4,0.4c-8.4,8.4-8.4,22,0,30.4l14.8,14.8C510.9,457.5,524.5,457.5,532.9,449z"
	/>
<path class="st0" d="M533.8,448.1c8.4-8.4,8.4-22,0-30.4L519,403c-8.4-8.4-22-8.4-30.4,0l-0.4,0.4l45.3,45.3L533.8,448.1z"/>
<path class="st6" d="M171.1,85.4l-0.4,0.4l45.3,45.3l0.4-0.4c8.4-8.4,8.4-22,0-30.4l-14.8-14.8C193.1,77.1,179.4,77.1,171.1,85.4z"
	/>
<path class="st0" d="M170.1,86.3c-8.4,8.4-8.4,22,0,30.4l14.8,14.8c8.4,8.4,22,8.4,30.4,0l0.4-0.4l-45.3-45.3L170.1,86.3z"/>
<path class="st3" d="M351.8,397.3L351.8,397.3l0.1-57.7h-0.1c-7.3,0-13.3,6.4-13.3,14v29.6C338.6,391,344.5,397.3,351.8,397.3z"/>
<path class="st2" d="M352.1,397.3c7.3,0,13.3-6.4,13.3-14v-29.6c0-7.7-6-14-13.3-14H352L352.1,397.3L352.1,397.3z"/>
<path class="st3" d="M482,267.4L482,267.4l-57.7-0.1v0.1c0,7.3,6.4,13.3,14,13.3H468C475.7,280.6,482,274.7,482,267.4z"/>
<path class="st2" d="M482,267.1c0-7.3-6.4-13.3-14-13.3h-29.6c-7.7,0-14,6-14,13.3v0.1L482,267.1L482,267.1z"/>
<path class="st3" d="M221.9,267.1L221.9,267.1l57.7,0.1v-0.1c0-7.3-6.4-13.3-14-13.3h-29.6C228.2,253.9,221.9,259.8,221.9,267.1z"/>
<path class="st2" d="M221.9,267.4c0,7.3,6.4,13.3,14,13.3h29.6c7.7,0,14-6,14-13.3v-0.1L221.9,267.4L221.9,267.4z"/>
<path class="st3" d="M444,176.1L444,176.1l-40.9,40.8l0.1,0.1c5.2,5.2,13.9,4.9,19.3-0.6l20.9-20.9
	C448.9,190.1,449.2,181.4,444,176.1z"/>
<path class="st2" d="M443.9,176c-5.2-5.2-13.9-4.9-19.3,0.6l-20.9,20.9c-5.5,5.5-5.8,14.1-0.6,19.3l0.1,0.1L443.9,176L443.9,176z"/>
<path class="st3" d="M259.9,360L259.9,360l40.9-40.8l-0.1-0.1c-5.2-5.2-13.9-4.9-19.3,0.6l-20.9,20.9
	C255,346.1,254.7,354.9,259.9,360z"/>
<path class="st2" d="M260,360.2c5.2,5.2,13.9,4.9,19.3-0.6l20.9-20.9c5.5-5.5,5.8-14.1,0.6-19.3l-0.1-0.1L260,360.2L260,360.2z"/>
<path class="st3" d="M443.9,360.2L443.9,360.2l-40.8-40.9l-0.1,0.1c-5.2,5.2-4.9,13.9,0.6,19.3l20.9,20.9
	C430,365.1,438.7,365.3,443.9,360.2z"/>
<path class="st2" d="M444,360c5.2-5.2,4.9-13.9-0.6-19.3l-20.9-20.9c-5.5-5.5-14.1-5.8-19.3-0.6l-0.1,0.1L444,360L444,360z"/>
<path class="st3" d="M260,176L260,176l40.8,40.9l0.1-0.1c5.2-5.2,4.9-13.9-0.6-19.3l-20.9-20.9C273.9,171.1,265.2,170.9,260,176z"/>
<path class="st2" d="M259.9,176.1c-5.2,5.2-4.9,13.9,0.6,19.3l20.9,20.9c5.5,5.5,14.1,5.8,19.3,0.6l0.1-0.1L259.9,176.1L259.9,176.1
	z"/>
<path class="st2" d="M329.4,432.3c13.9,1.3,13.7-17,0-19.3c-73.4-9.9-130.1-73-130.1-149.1c0-13.5-19.2-15.2-19.2,0
	C180.2,350.6,245.5,422.2,329.4,432.3z"/>
<path class="st6" d="M352,218.5v97.5c26.9,0,48.8-21.8,48.8-48.8C400.7,240.2,378.8,218.5,352,218.5z"/>
<path class="st0" d="M303.2,267.3c0,26.9,21.8,48.8,48.8,48.8v-97.5C325.1,218.5,303.2,240.4,303.2,267.3z"/>
<path class="st6" d="M607.4,267.9v-0.6h-64.1v0.6c0,11.9,9.6,21.5,21.5,21.5l20.9,0C597.8,289.4,607.5,279.7,607.4,267.9z"/>
<path class="st0" d="M607.4,266.6c0-11.9-9.6-21.5-21.5-21.5l-20.9,0c-11.9,0-21.5,9.6-21.5,21.5v0.6h64.1L607.4,266.6z"/>
<path class="st6" d="M97.1,266.6v0.6l64.1,0v-0.6c0-11.9-9.6-21.5-21.5-21.5h-20.9C106.8,245.1,97.1,254.8,97.1,266.6z"/>
<path class="st0" d="M97.1,267.9c0,11.9,9.6,21.5,21.5,21.5l20.9,0c11.9,0,21.5-9.6,21.5-21.5v-0.6H97L97.1,267.9z"/>
<path class="st6" d="M350.3,523.7h0.6v-64.1h-0.6c-11.9,0-21.5,9.6-21.5,21.5v20.9C328.8,514.1,338.5,523.8,350.3,523.7z"/>
<path class="st0" d="M351.6,523.7c11.9,0,21.5-9.6,21.5-21.5v-20.9c0-11.9-9.6-21.5-21.5-21.5H351v64.1L351.6,523.7z"/>
<path class="st6" d="M351.6,10.8l-0.6,0v64.1h0.6c11.9,0,21.5-9.6,21.5-21.5V32.4C373.1,20.4,363.4,10.7,351.6,10.8z"/>
<path class="st0" d="M350.3,10.8c-11.9,0-21.5,9.6-21.5,21.5v20.9c0,11.9,9.6,21.5,21.5,21.5h0.6V10.6L350.3,10.8z"/>
</svg>
