<?xml version="1.0" encoding="utf-8"?>
<!-- Generator: Adobe Illustrator 19.0.0, SVG Export Plug-In . SVG Version: 6.00 Build 0)  -->
<svg version="1.1" id="Layer_1" xmlns="http://www.w3.org/2000/svg" xmlns:xlink="http://www.w3.org/1999/xlink" x="0px" y="0px"
	 viewBox="96 11 512 512" style="enable-background:new 96 11 512 512;" xml:space="preserve">
<style type="text/css">
	.st0{fill:#FF8C29;}
	.st1{fill:#FD6A33;}
	.st2{fill:#365558;}
	.st3{fill:#687F82;}
	.st4{fill:#4ACFD9;}
	.st5{fill:#0295AA;}
	.st6{fill:#E6EAEA;}
	.st7{fill:#CDD4D5;}
	.st8{fill:#9BAAAB;}
</style>
<g>
	<g>
		<path class="st0" d="M552.6,11.5h-71.3v28.3h71.3c2.5,0,4.5-2.4,4.5-5.3V16.8C557.1,13.9,555.1,11.5,552.6,11.5z"/>
		<path class="st1" d="M409.9,11.5c-2.5,0-4.5,2.4-4.5,5.3v17.6c0,2.9,2,5.3,4.5,5.3h71.3V11.5H409.9z"/>
		<rect x="412.2" y="22" class="st2" width="6.6" height="17.7"/>
		<rect x="426.5" y="22" class="st2" width="9.8" height="17.7"/>
		<rect x="447.7" y="22" class="st2" width="13" height="17.7"/>
		<rect x="481.3" y="22" class="st2" width="0.1" height="17.7"/>
		<rect x="475.1" y="22" class="st2" width="6.2" height="17.7"/>
		<rect x="543.9" y="22" class="st3" width="6.6" height="17.7"/>
		<rect x="526.3" y="22" class="st3" width="9.8" height="17.7"/>
		<rect x="501.9" y="22" class="st3" width="13" height="17.7"/>
		<rect x="481.3" y="22" class="st3" width="6.2" height="17.7"/>
	</g>
	<g>
		<path class="st0" d="M561.2,47h-71.3v28.3h71.3c2.5,0,4.5-2.4,4.5-5.3V52.3C565.7,49.4,563.7,47,561.2,47z"/>
		<path class="st1" d="M418.5,47c-2.5,0-4.5,2.4-4.5,5.3V70c0,2.9,2,5.3,4.5,5.3h71.3V47H418.5z"/>
		<rect x="420.8" y="57.6" class="st2" width="6.6" height="17.7"/>
		<rect x="435.1" y="57.6" class="st2" width="9.8" height="17.7"/>
		<rect x="456.3" y="57.6" class="st2" width="13" height="17.7"/>
		<rect x="489.9" y="57.6" class="st2" width="0.1" height="17.7"/>
		<rect x="483.7" y="57.6" class="st2" width="6.2" height="17.7"/>
		<rect x="552.5" y="57.6" class="st3" width="6.6" height="17.7"/>
		<rect x="535" y="57.6" class="st3" width="9.8" height="17.7"/>
		<rect x="510.5" y="57.6" class="st3" width="13" height="17.7"/>
		<rect x="490" y="57.6" class="st3" width="6.2" height="17.7"/>
	</g>
	<g>
		<path class="st0" d="M556.9,82.6h-71.3v28.3h71.3c2.5,0,4.5-2.4,4.5-5.3V87.9C561.4,85,559.4,82.6,556.9,82.6z"/>
		<path class="st1" d="M414.3,82.6c-2.5,0-4.5,2.4-4.5,5.3v17.6c0,2.9,2,5.3,4.5,5.3h71.3V82.6H414.3z"/>
		<rect x="416.5" y="93.1" class="st2" width="6.6" height="17.7"/>
		<rect x="430.8" y="93.1" class="st2" width="9.8" height="17.7"/>
		<rect x="451.9" y="93.1" class="st2" width="13" height="17.7"/>
		<rect x="485.5" y="93.1" class="st2" width="0.1" height="17.7"/>
		<rect x="479.3" y="93.1" class="st2" width="6.2" height="17.7"/>
		<rect x="548.1" y="93.1" class="st3" width="6.6" height="17.7"/>
		<rect x="530.6" y="93.1" class="st3" width="9.8" height="17.7"/>
		<rect x="506.2" y="93.1" class="st3" width="13" height="17.7"/>
		<rect x="485.6" y="93.1" class="st3" width="6.2" height="17.7"/>
	</g>
	<g>
		<path class="st0" d="M551.3,118.1h-71.3v28.3h71.3c2.5,0,4.5-2.4,4.5-5.3v-17.6C555.7,120.5,553.7,118.1,551.3,118.1z"/>
		<path class="st1" d="M408.6,118.1c-2.5,0-4.5,2.4-4.5,5.3V141c0,2.9,2,5.3,4.5,5.3H480v-28.3C480,118.1,408.6,118.1,408.6,118.1z"
			/>
		<rect x="410.9" y="128.7" class="st2" width="6.6" height="17.7"/>
		<rect x="425.2" y="128.7" class="st2" width="9.8" height="17.7"/>
		<rect x="446.3" y="128.7" class="st2" width="13" height="17.7"/>
		<rect x="479.9" y="128.7" class="st2" width="0.1" height="17.7"/>
		<rect x="473.7" y="128.7" class="st2" width="6.2" height="17.7"/>
		<rect x="542.6" y="128.7" class="st3" width="6.6" height="17.7"/>
		<rect x="525" y="128.7" class="st3" width="9.8" height="17.7"/>
		<rect x="500.6" y="128.7" class="st3" width="13" height="17.7"/>
		<rect x="480" y="128.7" class="st3" width="6.2" height="17.7"/>
	</g>
	<g>
		<path class="st0" d="M559.4,153.5H488v28.3h71.3c2.5,0,4.5-2.4,4.5-5.3v-17.6C563.9,155.9,561.9,153.5,559.4,153.5z"/>
		<path class="st1" d="M416.8,153.5c-2.5,0-4.5,2.4-4.5,5.3v17.6c0,2.9,2,5.3,4.5,5.3h71.3v-28.3H416.8z"/>
		<rect x="419" y="164.1" class="st2" width="6.6" height="17.7"/>
		<rect x="433.3" y="164.1" class="st2" width="9.8" height="17.7"/>
		<rect x="454.4" y="164.1" class="st2" width="13" height="17.7"/>
		<rect x="488" y="164.1" class="st2" width="0.1" height="17.7"/>
		<rect x="481.8" y="164.1" class="st2" width="6.2" height="17.7"/>
		<rect x="550.7" y="164.1" class="st3" width="6.6" height="17.7"/>
		<rect x="533.1" y="164.1" class="st3" width="9.8" height="17.7"/>
		<rect x="508.7" y="164.1" class="st3" width="13" height="17.7"/>
		<rect x="488.2" y="164.1" class="st3" width="6.2" height="17.7"/>
	</g>
	<g>
		<path class="st0" d="M553.8,189.1h-71.3v28.3h71.3c2.5,0,4.5-2.4,4.5-5.3v-17.6C558.3,191.5,556.2,189.1,553.8,189.1z"/>
		<path class="st1" d="M411.1,189.1c-2.5,0-4.5,2.4-4.5,5.3V212c0,2.9,2,5.3,4.5,5.3h71.3v-28.2H411.1z"/>
		<rect x="413.4" y="199.6" class="st2" width="6.6" height="17.7"/>
		<rect x="427.7" y="199.6" class="st2" width="9.8" height="17.7"/>
		<rect x="448.9" y="199.6" class="st2" width="13" height="17.7"/>
		<rect x="482.5" y="199.6" class="st2" width="0.1" height="17.7"/>
		<rect x="476.2" y="199.6" class="st2" width="6.2" height="17.7"/>
		<rect x="545.1" y="199.6" class="st3" width="6.6" height="17.7"/>
		<rect x="527.5" y="199.6" class="st3" width="9.8" height="17.7"/>
		<rect x="503.1" y="199.6" class="st3" width="13" height="17.7"/>
		<rect x="482.5" y="199.6" class="st3" width="6.2" height="17.7"/>
	</g>
</g>
<g>
	<g>
		<path class="st4" d="M290.6,316.2h-71.3v28.3h71.3c2.5,0,4.5-2.4,4.5-5.3v-17.6C295.1,318.6,293.1,316.2,290.6,316.2z"/>
		<path class="st5" d="M147.9,316.2c-2.5,0-4.5,2.4-4.5,5.3v17.6c0,2.9,2,5.3,4.5,5.3h71.3v-28.3
			C219.3,316.2,147.9,316.2,147.9,316.2z"/>
		<rect x="150.2" y="326.7" class="st2" width="6.6" height="17.7"/>
		<rect x="164.5" y="326.7" class="st2" width="9.8" height="17.7"/>
		<rect x="185.7" y="326.7" class="st2" width="13" height="17.7"/>
		<rect x="219.3" y="326.7" class="st2" width="0.1" height="17.7"/>
		<rect x="213" y="326.7" class="st2" width="6.2" height="17.7"/>
		<rect x="281.9" y="326.7" class="st3" width="6.6" height="17.7"/>
		<rect x="264.4" y="326.7" class="st3" width="9.8" height="17.7"/>
		<rect x="239.9" y="326.7" class="st3" width="13" height="17.7"/>
		<rect x="219.4" y="326.7" class="st3" width="6.2" height="17.7"/>
	</g>
	<g>
		<path class="st4" d="M283.6,351.7h-71.3V380h71.3c2.5,0,4.5-2.4,4.5-5.3V357C288.1,354.1,286,351.7,283.6,351.7z"/>
		<path class="st5" d="M140.9,351.7c-2.5,0-4.5,2.4-4.5,5.3v17.6c0,2.9,2,5.3,4.5,5.3h71.3v-28.3H140.9z"/>
		<rect x="143.2" y="362.3" class="st2" width="6.6" height="17.7"/>
		<rect x="157.4" y="362.3" class="st2" width="9.8" height="17.7"/>
		<rect x="178.6" y="362.3" class="st2" width="13" height="17.7"/>
		<rect x="212.2" y="362.3" class="st2" width="0.1" height="17.7"/>
		<rect x="206" y="362.3" class="st2" width="6.2" height="17.7"/>
		<rect x="274.8" y="362.3" class="st3" width="6.6" height="17.7"/>
		<rect x="257.3" y="362.3" class="st3" width="9.8" height="17.7"/>
		<rect x="232.8" y="362.3" class="st3" width="13" height="17.7"/>
		<rect x="212.3" y="362.3" class="st3" width="6.2" height="17.7"/>
	</g>
	<g>
		<path class="st4" d="M294.6,387.3h-71.3v28.3h71.3c2.5,0,4.5-2.4,4.5-5.3v-17.6C299.1,389.7,297.1,387.3,294.6,387.3z"/>
		<path class="st5" d="M152,387.3c-2.5,0-4.5,2.4-4.5,5.3v17.6c0,2.9,2,5.3,4.5,5.3h71.3v-28.3H152z"/>
		<rect x="154.2" y="397.8" class="st2" width="6.6" height="17.7"/>
		<rect x="168.5" y="397.8" class="st2" width="9.8" height="17.7"/>
		<rect x="189.7" y="397.8" class="st2" width="13" height="17.7"/>
		<rect x="223.3" y="397.8" class="st2" width="0.1" height="17.7"/>
		<rect x="217.1" y="397.8" class="st2" width="6.2" height="17.7"/>
		<rect x="285.9" y="397.8" class="st3" width="6.6" height="17.7"/>
		<rect x="268.4" y="397.8" class="st3" width="9.8" height="17.7"/>
		<rect x="243.9" y="397.8" class="st3" width="13" height="17.7"/>
		<rect x="223.4" y="397.8" class="st3" width="6.2" height="17.7"/>
	</g>
	<g>
		<path class="st4" d="M280.5,422.8h-71.3v28.3h71.3c2.5,0,4.5-2.4,4.5-5.3v-17.6C284.9,425.2,282.9,422.8,280.5,422.8z"/>
		<path class="st5" d="M137.8,422.8c-2.5,0-4.5,2.4-4.5,5.3v17.6c0,2.9,2,5.3,4.5,5.3h71.3v-28.3H137.8z"/>
		<rect x="140" y="433.4" class="st2" width="6.6" height="17.7"/>
		<rect x="154.4" y="433.4" class="st2" width="9.8" height="17.7"/>
		<rect x="175.5" y="433.4" class="st2" width="13" height="17.7"/>
		<rect x="209.1" y="433.4" class="st2" width="0.1" height="17.7"/>
		<rect x="202.9" y="433.4" class="st2" width="6.2" height="17.7"/>
		<rect x="271.7" y="433.4" class="st3" width="6.6" height="17.7"/>
		<rect x="254.2" y="433.4" class="st3" width="9.8" height="17.7"/>
		<rect x="229.8" y="433.4" class="st3" width="13" height="17.7"/>
		<rect x="209.2" y="433.4" class="st3" width="6.2" height="17.7"/>
	</g>
	<g>
		<path class="st4" d="M286.1,458.4h-71.3v28.3h71.3c2.5,0,4.5-2.4,4.5-5.3v-17.6C290.6,460.8,288.6,458.4,286.1,458.4z"/>
		<path class="st5" d="M143.4,458.4c-2.5,0-4.5,2.4-4.5,5.3v17.6c0,2.9,2,5.3,4.5,5.3h71.3v-28.3
			C214.7,458.4,143.4,458.4,143.4,458.4z"/>
		<rect x="145.7" y="468.9" class="st2" width="6.6" height="17.7"/>
		<rect x="160" y="468.9" class="st2" width="9.8" height="17.7"/>
		<rect x="181.1" y="468.9" class="st2" width="13" height="17.7"/>
		<rect x="214.7" y="468.9" class="st2" width="0.1" height="17.7"/>
		<rect x="208.5" y="468.9" class="st2" width="6.2" height="17.7"/>
		<rect x="277.3" y="468.9" class="st3" width="6.6" height="17.7"/>
		<rect x="259.8" y="468.9" class="st3" width="9.8" height="17.7"/>
		<rect x="235.4" y="468.9" class="st3" width="13" height="17.7"/>
		<rect x="214.8" y="468.9" class="st3" width="6.2" height="17.7"/>
	</g>
	<g>
		<path class="st4" d="M279,493.9h-71.3v28.3H279c2.5,0,4.5-2.4,4.5-5.3v-17.6C283.5,496.3,281.5,493.9,279,493.9z"/>
		<path class="st5" d="M136.3,493.9c-2.5,0-4.5,2.4-4.5,5.3v17.6c0,2.9,2,5.3,4.5,5.3h71.3v-28.3H136.3z"/>
		<rect x="138.6" y="504.5" class="st2" width="6.6" height="17.7"/>
		<rect x="152.9" y="504.5" class="st2" width="9.8" height="17.7"/>
		<rect x="174.1" y="504.5" class="st2" width="13" height="17.7"/>
		<rect x="207.7" y="504.5" class="st2" width="0.1" height="17.7"/>
		<rect x="201.4" y="504.5" class="st2" width="6.2" height="17.7"/>
		<rect x="270.3" y="504.5" class="st3" width="6.6" height="17.7"/>
		<rect x="252.8" y="504.5" class="st3" width="9.8" height="17.7"/>
		<rect x="228.3" y="504.5" class="st3" width="13" height="17.7"/>
		<rect x="207.8" y="504.5" class="st3" width="6.2" height="17.7"/>
	</g>
</g>
<g>
	<path class="st6" d="M326.6,11H102.4c-3.2,0-5.9,2.9-5.9,6.6v216.1l72.2,81h157.9c3.2,0,5.9-2.9,5.9-6.6V17.6
		C332.5,14,329.9,11,326.6,11z"/>
	<path class="st7" d="M102.4,11c-3.2,0-5.9,2.9-5.9,6.6v216.1l72.2,81h41.1V11H102.4z"/>
	<path id="SVGCleanerId_0_11_" class="st8" d="M162.7,233.7H96.4l72.3,81v-74.4C168.7,236.6,166.1,233.7,162.7,233.7z"/>
	<g>
		<path class="st0" d="M291.8,77.4H137.2c-3.2,0-5.9-2.9-5.9-6.6s2.6-6.6,5.9-6.6H292c3.2,0,5.9,2.9,5.9,6.6S295.1,77.4,291.8,77.4z
			"/>
		<path class="st0" d="M291.8,134.1H137.2c-3.2,0-5.9-2.9-5.9-6.6c0-3.8,2.6-6.6,5.9-6.6H292c3.2,0,5.9,2.9,5.9,6.6
			C297.9,131.2,295.1,134.1,291.8,134.1z"/>
		<path class="st0" d="M291.8,190.7H137.2c-3.2,0-5.9-2.9-5.9-6.6s2.6-6.6,5.9-6.6H292c3.2,0,5.9,2.9,5.9,6.6
			S295.1,190.7,291.8,190.7z"/>
		<path class="st0" d="M291.8,247.4H137.2c-3.2,0-5.9-2.9-5.9-6.6c0-3.8,2.6-6.6,5.9-6.6H292c3.2,0,5.9,2.9,5.9,6.6
			C297.9,244.4,295.1,247.4,291.8,247.4z"/>
	</g>
	<g>
		<path class="st1" d="M137.2,64.2c-3.2,0-5.9,2.9-5.9,6.6s2.6,6.6,5.9,6.6h72.6V64.2H137.2z"/>
		<path class="st1" d="M137.2,120.9c-3.2,0-5.9,2.9-5.9,6.6c0,3.8,2.6,6.6,5.9,6.6h72.6v-13.4L137.2,120.9L137.2,120.9z"/>
		<path class="st1" d="M131.3,184.1c0,3.8,2.6,6.6,5.9,6.6h72.6v-13.4h-72.6C133.8,177.4,131.3,180.4,131.3,184.1z"/>
		<path class="st1" d="M131.3,240.8c0,3.8,2.6,6.6,5.9,6.6h72.6V234h-72.6C133.8,234,131.3,237,131.3,240.8z"/>
	</g>
	<g>
		<path id="SVGCleanerId_0_10_" class="st8" d="M162.7,233.7H96.4l72.3,81v-74.4C168.7,236.6,166.1,233.7,162.7,233.7z"/>
	</g>
</g>
<g>
	<path class="st6" d="M601.9,219.3H377.5c-3.2,0-5.9,2.9-5.9,6.6V442l72.2,81h157.9c3.2,0,5.9-2.9,5.9-6.6V225.9
		C607.8,222.3,605.1,219.3,601.9,219.3z"/>
	<path class="st7" d="M377.5,219.3c-3.2,0-5.9,2.9-5.9,6.6V442l72.2,81h41.1V219.3H377.5z"/>
	<path id="SVGCleanerId_0_7_" class="st8" d="M438,442h-66.3l72.2,81v-74.4C443.8,444.9,441.3,442,438,442z"/>
	<g>
		<path class="st4" d="M567.1,285.7H412.3c-3.2,0-5.9-2.9-5.9-6.6c0-3.8,2.6-6.6,5.9-6.6h154.8c3.2,0,5.9,2.9,5.9,6.6
			C573,282.8,570.3,285.7,567.1,285.7z"/>
		<path class="st4" d="M567.1,342.4H412.3c-3.2,0-5.9-2.9-5.9-6.6c0-3.8,2.6-6.6,5.9-6.6h154.8c3.2,0,5.9,2.9,5.9,6.6
			C573,339.5,570.3,342.4,567.1,342.4z"/>
		<path class="st4" d="M567.1,399H412.3c-3.2,0-5.9-2.9-5.9-6.6c0-3.8,2.6-6.6,5.9-6.6h154.8c3.2,0,5.9,2.9,5.9,6.6
			C573,396.2,570.3,399,567.1,399z"/>
		<path class="st4" d="M567.1,455.7H412.3c-3.2,0-5.9-2.9-5.9-6.6c0-3.8,2.6-6.6,5.9-6.6h154.8c3.2,0,5.9,2.9,5.9,6.6
			C573,452.7,570.3,455.7,567.1,455.7z"/>
	</g>
	<g>
		<path class="st5" d="M412.3,272.5c-3.2,0-5.9,2.9-5.9,6.6c0,3.8,2.6,6.6,5.9,6.6h72.6v-13.2H412.3z"/>
		<path class="st5" d="M412.3,329.1c-3.2,0-5.9,2.9-5.9,6.6c0,3.8,2.6,6.6,5.9,6.6h72.6V329L412.3,329.1L412.3,329.1z"/>
		<path class="st5" d="M406.4,392.4c0,3.8,2.6,6.6,5.9,6.6h72.6v-13.4h-72.6C409.1,385.6,406.4,388.6,406.4,392.4z"/>
		<path class="st5" d="M406.4,449.1c0,3.8,2.6,6.6,5.9,6.6h72.6v-13.4h-72.6C409.1,442.3,406.4,445.3,406.4,449.1z"/>
	</g>
	<g>
		<path id="SVGCleanerId_0_6_" class="st8" d="M438,442h-66.3l72.2,81v-74.4C443.8,444.9,441.3,442,438,442z"/>
	</g>
</g>
</svg>
