<?xml version="1.0" encoding="utf-8"?>
<!-- Generator: Adobe Illustrator 19.0.0, SVG Export Plug-In . SVG Version: 6.00 Build 0)  -->
<svg version="1.1" id="Layer_1" xmlns="http://www.w3.org/2000/svg" xmlns:xlink="http://www.w3.org/1999/xlink" x="0px" y="0px"
	 viewBox="96 11 512 512" style="enable-background:new 96 11 512 512;" xml:space="preserve">
<style type="text/css">
	.st0{fill:#FF8C29;}
	.st1{fill:#FD6A33;}
	.st2{fill:#365558;}
	.st3{fill:#687F82;}
	.st4{fill:#FFD1A9;}
	.st5{fill:#4ACFD9;}
	.st6{fill:#0295AA;}
	.st7{fill:none;stroke:#BCD643;stroke-width:13;stroke-linecap:round;stroke-linejoin:round;stroke-miterlimit:10;}
</style>
<g>
	<path class="st0" d="M443.2,216.3H351v35.7h92.2c3.2,0,5.8-3,5.8-6.7V223C449,219.3,446.4,216.3,443.2,216.3z"/>
	<path class="st1" d="M258.9,216.3c-3.2,0-5.8,3-5.8,6.7v22.3c0,3.7,2.6,6.7,5.8,6.7H351v-35.7H258.9z"/>
	<rect x="261.8" y="229.6" class="st2" width="8.5" height="22.4"/>
	<rect x="280.3" y="229.6" class="st2" width="12.7" height="22.4"/>
	<rect x="307.6" y="229.6" class="st2" width="16.8" height="22.4"/>
	<rect x="351" y="229.6" class="st2" width="0.1" height="22.4"/>
	<rect x="343" y="229.6" class="st2" width="8" height="22.4"/>
	<rect x="431.9" y="229.6" class="st3" width="8.5" height="22.4"/>
	<rect x="409.3" y="229.6" class="st3" width="12.7" height="22.4"/>
	<rect x="377.7" y="229.6" class="st3" width="16.8" height="22.4"/>
	<rect x="351.1" y="229.6" class="st3" width="8" height="22.4"/>
</g>
<g>
	<path class="st0" d="M460.8,307h-92.2v35.7h92.2c3.2,0,5.8-3,5.8-6.7v-22.3C466.6,310.1,464,307,460.8,307z"/>
	<path class="st1" d="M276.4,307c-3.2,0-5.8,3-5.8,6.7V336c0,3.7,2.6,6.7,5.8,6.7h92.2V307H276.4z"/>
	<rect x="279.4" y="320.4" class="st2" width="8.5" height="22.4"/>
	<rect x="297.9" y="320.4" class="st2" width="12.7" height="22.4"/>
	<rect x="325.2" y="320.4" class="st2" width="16.8" height="22.4"/>
	<rect x="368.6" y="320.4" class="st2" width="0.1" height="22.4"/>
	<rect x="360.6" y="320.4" class="st2" width="8" height="22.4"/>
	<rect x="449.5" y="320.4" class="st3" width="8.5" height="22.4"/>
	<rect x="426.8" y="320.4" class="st3" width="12.7" height="22.4"/>
	<rect x="395.3" y="320.4" class="st3" width="16.8" height="22.4"/>
	<rect x="368.7" y="320.4" class="st3" width="8" height="22.4"/>
</g>
<g>
	<path class="st0" d="M556.3,351.9h-92.2v35.7h92.2c3.2,0,5.8-3,5.8-6.7v-22.3C562.1,355,559.6,351.9,556.3,351.9z"/>
	<path class="st1" d="M372.1,351.9c-3.2,0-5.8,3-5.8,6.7v22.3c0,3.7,2.6,6.7,5.8,6.7h92.2v-35.7H372.1z"/>
	<rect x="375" y="365.3" class="st2" width="8.5" height="22.4"/>
	<rect x="393.4" y="365.3" class="st2" width="12.7" height="22.4"/>
	<rect x="420.8" y="365.3" class="st2" width="16.8" height="22.4"/>
	<rect x="464.2" y="365.3" class="st2" width="0.1" height="22.4"/>
	<rect x="456.2" y="365.3" class="st2" width="8" height="22.4"/>
	<rect x="545" y="365.3" class="st3" width="8.5" height="22.4"/>
	<rect x="522.4" y="365.3" class="st3" width="12.7" height="22.4"/>
	<rect x="490.9" y="365.3" class="st3" width="16.8" height="22.4"/>
	<rect x="464.3" y="365.3" class="st3" width="8" height="22.4"/>
</g>
<g>
	<path class="st0" d="M521.5,396.7h-92.2v35.7h92.2c3.2,0,5.8-3,5.8-6.7v-22.3C527.3,399.8,524.7,396.7,521.5,396.7z"/>
	<path class="st1" d="M337.2,396.7c-3.2,0-5.8,3-5.8,6.7v22.3c0,3.7,2.6,6.7,5.8,6.7h92.2v-35.7
		C429.4,396.7,337.2,396.7,337.2,396.7z"/>
	<rect x="340.2" y="410.1" class="st2" width="8.5" height="22.4"/>
	<rect x="358.6" y="410.1" class="st2" width="12.7" height="22.4"/>
	<rect x="385.9" y="410.1" class="st2" width="16.8" height="22.4"/>
	<rect x="429.3" y="410.1" class="st2" width="0.1" height="22.4"/>
	<rect x="421.3" y="410.1" class="st2" width="8" height="22.4"/>
	<rect x="510.3" y="410.1" class="st3" width="8.5" height="22.4"/>
	<rect x="487.5" y="410.1" class="st3" width="12.7" height="22.4"/>
	<rect x="456" y="410.1" class="st3" width="16.8" height="22.4"/>
	<rect x="429.4" y="410.1" class="st3" width="8" height="22.4"/>
</g>
<g>
	<path class="st0" d="M559.6,441.4h-92.2v35.7h92.2c3.2,0,5.8-3,5.8-6.7v-22.3C565.5,444.5,562.8,441.4,559.6,441.4z"/>
	<path class="st1" d="M375.3,441.4c-3.2,0-5.8,3-5.8,6.7v22.3c0,3.7,2.6,6.7,5.8,6.7h92.2v-35.7H375.3z"/>
	<rect x="378.3" y="454.8" class="st2" width="8.5" height="22.4"/>
	<rect x="396.7" y="454.8" class="st2" width="12.7" height="22.4"/>
	<rect x="424" y="454.8" class="st2" width="16.8" height="22.4"/>
	<rect x="467.4" y="454.8" class="st2" width="0.1" height="22.4"/>
	<rect x="459.4" y="454.8" class="st2" width="8" height="22.4"/>
	<rect x="548.3" y="454.8" class="st3" width="8.5" height="22.4"/>
	<rect x="525.6" y="454.8" class="st3" width="12.7" height="22.4"/>
	<rect x="494.1" y="454.8" class="st3" width="16.8" height="22.4"/>
	<rect x="467.6" y="454.8" class="st3" width="8" height="22.4"/>
</g>
<g>
	<path class="st0" d="M570.8,486.3h-92.2V522h92.2c3.2,0,5.8-3,5.8-6.7V493C576.6,489.3,573.9,486.3,570.8,486.3z"/>
	<path class="st1" d="M386.5,486.3c-3.2,0-5.8,3-5.8,6.7v22.2c0,3.7,2.6,6.7,5.8,6.7h92.2v-35.6H386.5z"/>
	<rect x="389.4" y="499.6" class="st2" width="8.5" height="22.4"/>
	<rect x="407.8" y="499.6" class="st2" width="12.7" height="22.4"/>
	<rect x="435.2" y="499.6" class="st2" width="16.8" height="22.4"/>
	<rect x="478.6" y="499.6" class="st2" width="0.1" height="22.4"/>
	<rect x="470.5" y="499.6" class="st2" width="8" height="22.4"/>
	<rect x="559.5" y="499.6" class="st3" width="8.5" height="22.4"/>
	<rect x="536.8" y="499.6" class="st3" width="12.7" height="22.4"/>
	<rect x="505.2" y="499.6" class="st3" width="16.8" height="22.4"/>
	<rect x="478.7" y="499.6" class="st3" width="8" height="22.4"/>
</g>
<path class="st4" d="M426.3,342.3"/>
<path class="st4" d="M498.4,465.5"/>
<g>
	<path class="st5" d="M440.9,262.1h-92.2v35.7h92.2c3.2,0,5.8-3,5.8-6.7v-22.3C446.7,265.2,444,262.1,440.9,262.1z"/>
	<path class="st6" d="M256.5,262.1c-3.2,0-5.8,3-5.8,6.7v22.3c0,3.7,2.6,6.7,5.8,6.7h92.2v-35.7
		C348.7,262.1,256.5,262.1,256.5,262.1z"/>
	<rect x="259.5" y="275.4" class="st2" width="8.5" height="22.4"/>
	<rect x="277.9" y="275.4" class="st2" width="12.7" height="22.4"/>
	<rect x="305.3" y="275.4" class="st2" width="16.8" height="22.4"/>
	<rect x="348.7" y="275.4" class="st2" width="0.1" height="22.4"/>
	<rect x="340.6" y="275.4" class="st2" width="8" height="22.4"/>
	<rect x="429.6" y="275.4" class="st3" width="8.5" height="22.4"/>
	<rect x="406.9" y="275.4" class="st3" width="12.7" height="22.4"/>
	<rect x="375.3" y="275.4" class="st3" width="16.8" height="22.4"/>
	<rect x="348.8" y="275.4" class="st3" width="8" height="22.4"/>
</g>
<g>
	<path class="st5" d="M354,351.8h-92.2v35.7H354c3.2,0,5.8-3,5.8-6.7v-22.3C359.8,354.9,357.3,351.8,354,351.8z"/>
	<path class="st6" d="M169.8,351.8c-3.2,0-5.8,3-5.8,6.7v22.3c0,3.7,2.6,6.7,5.8,6.7H262v-35.7H169.8z"/>
	<rect x="172.6" y="365.1" class="st2" width="8.5" height="22.4"/>
	<rect x="191.1" y="365.1" class="st2" width="12.7" height="22.4"/>
	<rect x="218.5" y="365.1" class="st2" width="16.8" height="22.4"/>
	<rect x="261.9" y="365.1" class="st2" width="0.1" height="22.4"/>
	<rect x="253.9" y="365.1" class="st2" width="8" height="22.4"/>
	<rect x="342.7" y="365.1" class="st3" width="8.5" height="22.4"/>
	<rect x="320.1" y="365.1" class="st3" width="12.7" height="22.4"/>
	<rect x="288.5" y="365.1" class="st3" width="16.8" height="22.4"/>
	<rect x="262" y="365.1" class="st3" width="8" height="22.4"/>
</g>
<g>
	<path class="st5" d="M317.3,396.6h-92.2v35.7h92.2c3.2,0,5.8-3,5.8-6.7v-22.3C323.1,399.7,320.6,396.6,317.3,396.6z"/>
	<path class="st6" d="M133,396.6c-3.2,0-5.8,3-5.8,6.7v22.3c0,3.7,2.6,6.7,5.8,6.7h92.2v-35.7H133z"/>
	<rect x="135.9" y="410" class="st2" width="8.5" height="22.4"/>
	<rect x="154.4" y="410" class="st2" width="12.7" height="22.4"/>
	<rect x="181.8" y="410" class="st2" width="16.8" height="22.4"/>
	<rect x="225.2" y="410" class="st2" width="0.1" height="22.4"/>
	<rect x="217.2" y="410" class="st2" width="8" height="22.4"/>
	<rect x="306" y="410" class="st3" width="8.5" height="22.4"/>
	<rect x="283.4" y="410" class="st3" width="12.7" height="22.4"/>
	<rect x="251.8" y="410" class="st3" width="16.8" height="22.4"/>
	<rect x="225.3" y="410" class="st3" width="8" height="22.4"/>
</g>
<g>
	<path class="st5" d="M343,441.5h-92.2v35.7H343c3.2,0,5.8-3,5.8-6.7v-22.3C348.8,444.6,346.2,441.5,343,441.5z"/>
	<path class="st6" d="M158.7,441.5c-3.2,0-5.8,3-5.8,6.7v22.3c0,3.7,2.6,6.7,5.8,6.7h92.2v-35.7
		C250.8,441.5,158.7,441.5,158.7,441.5z"/>
	<rect x="161.6" y="454.8" class="st2" width="8.5" height="22.4"/>
	<rect x="180.1" y="454.8" class="st2" width="12.7" height="22.4"/>
	<rect x="207.4" y="454.8" class="st2" width="16.8" height="22.4"/>
	<rect x="250.8" y="454.8" class="st2" width="0.1" height="22.4"/>
	<rect x="242.8" y="454.8" class="st2" width="8" height="22.4"/>
	<rect x="331.7" y="454.8" class="st3" width="8.5" height="22.4"/>
	<rect x="309.1" y="454.8" class="st3" width="12.7" height="22.4"/>
	<rect x="277.5" y="454.8" class="st3" width="16.8" height="22.4"/>
	<rect x="250.9" y="454.8" class="st3" width="8" height="22.4"/>
</g>
<g>
	<path class="st5" d="M315.5,486.3h-92.2V522h92.2c3.2,0,5.8-3,5.8-6.7V493C321.3,489.3,318.7,486.3,315.5,486.3z"/>
	<path class="st6" d="M131.2,486.3c-3.2,0-5.8,3-5.8,6.7v22.3c0,3.7,2.6,6.7,5.8,6.7h92.2v-35.7H131.2z"/>
	<rect x="134.1" y="499.6" class="st2" width="8.5" height="22.4"/>
	<rect x="152.5" y="499.6" class="st2" width="12.7" height="22.4"/>
	<rect x="179.9" y="499.6" class="st2" width="16.8" height="22.4"/>
	<rect x="223.3" y="499.6" class="st2" width="0.1" height="22.4"/>
	<rect x="215.2" y="499.6" class="st2" width="8" height="22.4"/>
	<rect x="304.2" y="499.6" class="st3" width="8.5" height="22.4"/>
	<rect x="281.6" y="499.6" class="st3" width="12.7" height="22.4"/>
	<rect x="250" y="499.6" class="st3" width="16.8" height="22.4"/>
	<rect x="223.4" y="499.6" class="st3" width="8" height="22.4"/>
</g>
<path class="st4" d="M422.1,262.4"/>
<path class="st4" d="M422,264.7"/>
<g>
	<path class="st2" d="M336.1,16.7L102.6,80.5c-10.1,2.8-10.1,7.3,0,10.1l233.5,63.9c4.1,1.1,9.6,1.7,15.1,1.7V15
		C345.7,15,340.2,15.6,336.1,16.7z"/>
	<path class="st6" d="M599.4,90.6c10.1-2.8,10.1-7.3,0-10.1L365.9,16.7c-4.1-1.1-9.4-1.7-14.8-1.7v141.2c5.4,0,10.7-0.6,14.8-1.7
		L599.4,90.6z"/>
	<path class="st6" d="M241.5,197.7c0-22.1,48.9-40,109.3-40c0,0,0.1,0,0.1,0v-9.1v-41.4v-40c0,0-0.1,0-0.1,0
		c-60.4,0-109.3,17.9-109.3,40v41.4V197.7"/>
	<path class="st5" d="M460.4,197.7c0-22.1-48.9-40-109.3-40c0,0-0.1,0-0.1,0v-9.1v-41.4v-40c0,0,0.1,0,0.1,0
		c60.4,0,109.3,17.9,109.3,40v41.4V197.7"/>
	<path class="st4" d="M530,183.6c0,15.6,12.6,28.3,28.2,28.4v-56.9C542.6,155.3,530,168,530,183.6z"/>
	<path class="st0" d="M586.9,183.6c0-15.7-12.7-28.5-28.5-28.5c-0.1,0-0.1,0-0.2,0v56.9c0.1,0,0.1,0,0.2,0
		C574.2,212.1,586.9,199.3,586.9,183.6z"/>
	<line class="st7" x1="558.4" y1="155.2" x2="558.2" y2="63.1"/>
	<path class="st4" d="M555,212.1c-7.5,0-13.7,6.1-13.7,13.7L530,285.8c0,7.5,6.1,13.7,13.7,13.7h14.6v-87.4H555z"/>
	<path class="st0" d="M586.9,285.8l-11.4-60.1c0-7.5-6.1-13.7-13.7-13.7h-3.6v87.4h15C580.7,299.5,586.9,293.3,586.9,285.8z"/>
</g>
</svg>
