<?xml version="1.0" encoding="utf-8"?>
<!-- Generator: Adobe Illustrator 19.0.0, SVG Export Plug-In . SVG Version: 6.00 Build 0)  -->
<svg version="1.1" id="Layer_1" xmlns="http://www.w3.org/2000/svg" xmlns:xlink="http://www.w3.org/1999/xlink" x="0px" y="0px"
	 viewBox="96 11 512 512" style="enable-background:new 96 11 512 512;" xml:space="preserve">
<style type="text/css">
	.st0{display:none;fill:#020202;}
	.st1{fill:#F0353D;}
	.st2{fill:#FD6A33;}
	.st3{fill:#FF8C29;}
	.st4{fill:#FFD1A9;}
	.st5{fill:#365558;}
	.st6{fill:#0295AA;}
	.st7{fill:#4ACFD9;}
	.st8{fill:none;stroke:#000000;stroke-miterlimit:10;}
	.st9{fill:#9BAAAB;}
	.st10{fill:#CDD4D5;}
	.st11{fill:#E6EAEA;}
	.st12{fill:#FFFFFF;}
	.st13{fill:#BCD643;}
</style>
<rect x="590" y="-162" class="st0" width="512" height="512"/>
<g>
	<rect x="-845.5" y="21.9" class="st1" width="128" height="128"/>
	<rect x="-717.5" y="21.9" class="st2" width="128" height="128"/>
	<rect x="-589.5" y="21.9" class="st3" width="128" height="128"/>
	<rect x="-461.5" y="21.9" class="st4" width="128" height="128"/>
	<rect x="-845.5" y="149.9" class="st5" width="128" height="128"/>
	<rect x="-717.5" y="149.9" class="st6" width="128" height="128"/>
	<rect x="-589.5" y="149.9" class="st7" width="128" height="128"/>
	<rect x="-461.5" y="149.9" class="st8" width="128" height="128"/>
	<rect x="-845.5" y="277.9" class="st9" width="128" height="128"/>
	<rect x="-717.5" y="277.9" class="st10" width="128" height="128"/>
	<rect x="-589.5" y="277.9" class="st11" width="128" height="128"/>
	<rect x="-461.5" y="277.9" class="st12" width="128" height="128"/>
	<rect x="-845.5" y="405.9" class="st13" width="128" height="128"/>
	<rect x="-717.5" y="405.9" class="st8" width="128" height="128"/>
	<rect x="-589.5" y="405.9" class="st8" width="128" height="128"/>
	<rect x="-461.5" y="405.9" class="st8" width="128" height="128"/>
</g>
<path class="st4" d="M225.3,34.2"/>
<path class="st4" d="M583.4,32.5"/>
<polygon class="st4" points="113.6,265.4 96.1,269.9 96.1,269.9 "/>
<path class="st4" d="M583.4,256.6"/>
<path class="st2" d="M563.2,399.5v40.7c1,0,2.1-0.4,2.8-1.2l40.7-40.7c0.7-0.7,1.2-1.8,1.2-2.8h-40.7
	C565,395.5,563.2,397.3,563.2,399.5z"/>
<g>
	<path class="st4" d="M139.2,28.5h68.1v87.6h42.3v-101c-0.1-2.3-1.9-4.1-4.1-4.1H100.1c-2.2,0-4,1.8-4,4v101.1h43.2L139.2,28.5
		L139.2,28.5z"/>
	<path class="st4" d="M173.3,203.1l-77.3-77.4v86.2c0,2.2,1.8,4,4,4h104.9c1,0,2.1-0.4,2.8-1.2l40.7-40.7c0.7-0.7,1.2-1.8,1.2-2.8
		v-44.4L173.3,203.1z"/>
	<path class="st3" d="M96,211.9c0,2.2,1.8,4,4,4h72.8v-13.3L96,125.7V211.9z"/>
	<path class="st3" d="M139.2,28.5h33.6V11H100c-2.2,0-4,1.8-4,4v101.1h43.2V28.5z"/>
	<path class="st2" d="M204.9,175.3V216c1,0,2.1-0.4,2.8-1.2l40.7-40.7c0.7-0.7,1.2-1.8,1.2-2.8h-40.7
		C206.7,171.3,204.9,173.1,204.9,175.3z"/>
	<path class="st4" d="M225.1,32.6"/>
	<rect x="150.5" y="39.8" class="st1" width="45.4" height="88.7"/>
	<polygon class="st1" points="113.8,127.4 173.3,187.1 232.9,127.4 	"/>
</g>
<g>
	<path class="st4" d="M318.4,28.5h68.1v87.6h42.3v-101c-0.1-2.3-1.9-4.1-4.1-4.1H279.3c-2.2,0-4,1.8-4,4v101.1h43.2L318.4,28.5
		L318.4,28.5z"/>
	<path class="st4" d="M387,214.7l40.7-40.7c0.7-0.7,1.2-1.8,1.2-2.8v-44.4l-76.3,76.3l-77.3-77.4v86.2c0,2.2,1.8,4,4,4h104.9
		C385.1,215.9,386.2,215.5,387,214.7z"/>
	<path class="st3" d="M275.2,211.9c0,2.2,1.8,4,4,4H352v-13.3l-76.8-76.9V211.9z"/>
	<path class="st3" d="M318.4,28.5H352V11h-72.8c-2.2,0-4,1.8-4,4v101.1h43.2V28.5z"/>
	<path class="st2" d="M427.6,174.1c0.7-0.7,1.2-1.8,1.2-2.8h-40.7c-2.2-0.1-4,1.8-4,4V216c1,0,2.1-0.4,2.8-1.2L427.6,174.1z"/>
	<path class="st4" d="M404.3,32.6"/>
	<rect x="329.7" y="39.8" class="st1" width="45.4" height="88.7"/>
	<polygon class="st1" points="293,127.4 352.5,187.1 412.1,127.4 	"/>
</g>
<g>
	<path class="st4" d="M497.6,28.5h68.1v87.6H608v-101c-0.1-2.3-1.9-4.1-4.1-4.1H458.4c-2.2,0-4,1.8-4,4v101.1h43.2L497.6,28.5
		L497.6,28.5z"/>
	<path class="st4" d="M458.4,215.9h104.9c1,0,2.1-0.4,2.8-1.2l40.7-40.7c0.7-0.7,1.2-1.8,1.2-2.8v-44.4l-76.3,76.3l-77.3-77.4v86.2
		C454.4,214.1,456.2,215.9,458.4,215.9z"/>
	<path class="st3" d="M458.4,215.9h72.8v-13.3l-76.8-76.9v86.2C454.4,214.1,456.2,215.9,458.4,215.9z"/>
	<path class="st3" d="M497.6,28.5h33.6V11h-72.8c-2.2,0-4,1.8-4,4v101.1h43.2V28.5z"/>
	<path class="st2" d="M606.8,174.1c0.7-0.7,1.2-1.8,1.2-2.8h-40.7c-2.2-0.1-4,1.8-4,4V216c1,0,2.1-0.4,2.8-1.2L606.8,174.1z"/>
	<path class="st4" d="M583.4,32.6"/>
	<rect x="508.9" y="39.8" class="st1" width="45.4" height="88.7"/>
	<polygon class="st1" points="472.2,127.4 531.7,187.1 591.3,127.4 	"/>
</g>
<path class="st4" d="M385.3,258.3"/>
<path class="st4" d="M743.4,256.6"/>
<path class="st4" d="M123.7,283.1l15.5,30.2v-60.7h0h68.1v87.6h42.3v-101c-0.1-2.3-1.9-4.1-4.1-4.1H100.1c-2.2,0-4,1.8-4,4v29.7
	l17.5-4.4L123.7,283.1z"/>
<path class="st4" d="M206.7,439.6c0.4-0.2,0.8-0.4,1.1-0.8l40.7-40.7c0.7-0.7,1.2-1.8,1.2-2.8v-44.4l-54.5,54.5l6.5,8L206.7,439.6z"
	/>
<path class="st3" d="M96,436c0,2.2,1.8,4,4,4h72.8v-13.3L96,349.8V436z"/>
<path class="st3" d="M123.7,283.1l15.5,30.2v-60.7h33.6v-17.5H100c-2.2,0-4,1.8-4,4v29.7l17.6-4.5L123.7,283.1z"/>
<path class="st2" d="M207.7,438.9l40.7-40.7c0.7-0.7,1.2-1.8,1.2-2.8h-40.7c-2.2-0.1-4,1.8-4,4v30.6l1.8,9.6
	C207.1,439.5,207.4,439.2,207.7,438.9z"/>
<path class="st2" d="M206.7,439.7l-1.8-9.6v10C205.5,440.1,206.2,440,206.7,439.7z"/>
<path class="st4" d="M225.1,256.7"/>
<polygon class="st1" points="168.4,352.6 196,352.6 196,263.9 150.5,263.9 150.5,323.9 165.4,335.3 "/>
<polygon class="st1" points="188,396.5 232.9,351.5 168.2,351.5 172.7,377.8 "/>
<g>
	<path class="st4" d="M386.5,340.2h42.3v-101c-0.1-2.3-1.9-4.1-4.1-4.1H279.3c-2.2,0-4,1.8-4,4v101.1h43.2v-87.6h68.1V340.2z"/>
	<path class="st4" d="M387,438.8l40.7-40.7c0.7-0.7,1.2-1.8,1.2-2.8v-44.4l-76.3,76.3l-77.3-77.4V436c0,2.2,1.8,4,4,4h104.9
		C385.1,440,386.2,439.6,387,438.8z"/>
	<path class="st3" d="M275.2,349.8V436c0,2.2,1.8,4,4,4H352v-13.3L275.2,349.8z"/>
	<path class="st3" d="M279.2,235.1c-2.2,0-4,1.8-4,4v101.1h43.2v-87.6H352v-17.5H279.2z"/>
	<path class="st2" d="M427.6,398.3c0.7-0.7,1.2-1.8,1.2-2.8h-40.7c-2.2-0.1-4,1.8-4,4v40.7c1,0,2.1-0.4,2.8-1.2L427.6,398.3z"/>
	<path class="st4" d="M404.3,256.7"/>
	<rect x="329.7" y="263.9" class="st1" width="45.4" height="88.7"/>
	<polygon class="st1" points="293,351.5 352.5,411.2 412.1,351.5 	"/>
</g>
<path class="st4" d="M605.4,235.4c-0.4-0.2-0.9-0.3-1.4-0.3H458.4c-2.2,0-4,1.8-4,4v101.1h43.2v-87.6h68.1v44.1l14.8-25.6
	L605.4,235.4z"/>
<path class="st4" d="M524.1,419.6l-69.7-69.8V436c0,2.2,1.8,4,4,4h51.9l10.5-16.3L524.1,419.6z"/>
<path class="st3" d="M524.1,419.6l-69.7-69.8V436c0,2.2,1.8,4,4,4h51.9l10.5-16.3L524.1,419.6z"/>
<path class="st3" d="M497.6,252.6h33.6v-17.5h-72.8c-2.2,0-4,1.8-4,4v101.1h43.2V252.6z"/>
<path class="st2" d="M563.3,399.4v40.7c1,0,2.1-0.4,2.8-1.2l40.7-40.7c0.7-0.7,1.2-1.8,1.2-2.8h-40.7
	C565.1,395.4,563.3,397.2,563.3,399.4z"/>
<path class="st4" d="M583.4,256.7"/>
<polygon class="st1" points="554.3,263.9 508.9,263.9 508.9,352.6 547.3,352.6 554.3,341.7 "/>
<polygon class="st1" points="548,351.5 472.2,351.5 530.6,410.1 541.5,361.8 "/>
<polygon class="st13" points="215.3,471.5 189,453.4 183,422.1 153.9,386.4 147,346.4 125,329.4 106,292.4 96,273.9 96,523 
	273.2,523 "/>
<polygon class="st1" points="581.2,309.8 576.2,344.6 560.2,369.6 548.6,421.1 537,435.4 519.2,463.2 486.7,467.7 421,523.2 
	608,523.2 608,266.6 597.4,281.8 "/>
</svg>
