<?xml version="1.0" encoding="utf-8"?>
<!-- Generator: Adobe Illustrator 19.0.0, SVG Export Plug-In . SVG Version: 6.00 Build 0)  -->
<svg version="1.1" id="Layer_1" xmlns="http://www.w3.org/2000/svg" xmlns:xlink="http://www.w3.org/1999/xlink" x="0px" y="0px"
	 viewBox="96 11 512 512" style="enable-background:new 96 11 512 512;" xml:space="preserve">
<style type="text/css">
	.st0{display:none;fill:#020202;}
	.st1{fill:#F0353D;}
	.st2{fill:#FD6A33;}
	.st3{fill:#FF8C29;}
	.st4{fill:#FFD1A9;}
	.st5{fill:#365558;}
	.st6{fill:#0295AA;}
	.st7{fill:#4ACFD9;}
	.st8{fill:none;stroke:#000000;stroke-miterlimit:10;}
	.st9{fill:#9BAAAB;}
	.st10{fill:#CDD4D5;}
	.st11{fill:#E6EAEA;}
	.st12{fill:#FFFFFF;}
	.st13{fill:#BCD643;}
</style>
<rect x="590" y="-162" class="st0" width="512" height="512"/>
<g>
	<rect x="-442" y="21.9" class="st1" width="128" height="128"/>
	<rect x="-314" y="21.9" class="st2" width="128" height="128"/>
	<rect x="-186" y="21.9" class="st3" width="128" height="128"/>
	<rect x="-58" y="21.9" class="st4" width="128" height="128"/>
	<rect x="-442" y="149.9" class="st5" width="128" height="128"/>
	<rect x="-314" y="149.9" class="st6" width="128" height="128"/>
	<rect x="-186" y="149.9" class="st7" width="128" height="128"/>
	<rect x="-58" y="149.9" class="st8" width="128" height="128"/>
	<rect x="-442" y="277.9" class="st9" width="128" height="128"/>
	<rect x="-314" y="277.9" class="st10" width="128" height="128"/>
	<rect x="-186" y="277.9" class="st11" width="128" height="128"/>
	<rect x="-58" y="277.9" class="st12" width="128" height="128"/>
	<rect x="-442" y="405.9" class="st13" width="128" height="128"/>
	<rect x="-314" y="405.9" class="st8" width="128" height="128"/>
	<rect x="-186" y="405.9" class="st8" width="128" height="128"/>
	<rect x="-58" y="405.9" class="st8" width="128" height="128"/>
</g>
<polygon class="st1" points="597.4,282.2 581.2,310.2 576.2,345 560.2,370 548.6,421.5 537,435.8 519.2,463.6 486.7,468.1 
	421,523.6 608,523.6 608,267 "/>
<polygon class="st13" points="189,454 183,422.7 153.9,387 147,347 125,330 106,293 96,274.5 96,523.6 273.2,523.6 215.3,472.1 "/>
<g>
	<path class="st4" d="M291.6,116.8H412v154.9h74.8V93.1c-0.1-4-3.3-7.2-7.2-7.2H222.4c-3.9,0-7.1,3.2-7.1,7.1v178.7h76.3V116.8z"/>
	<path class="st4" d="M351.9,425.5L215.3,288.6V441c0,3.9,3.2,7.1,7.1,7.1h185.4c1.8,0,3.7-0.7,5-2.1l71.9-71.9
		c1.3-1.3,2.1-3.1,2.1-5v-78.5L351.9,425.5z"/>
	<path class="st3" d="M215.2,441c0,3.9,3.2,7.1,7.1,7.1H351v-23.5l-135.8-136V441z"/>
	<path class="st3" d="M291.6,116.8H351V85.9H222.3c-3.9,0-7.1,3.2-7.1,7.1v178.7h76.4V116.8z"/>
	<path class="st2" d="M407.7,376.4v71.9c1.8,0,3.7-0.7,5-2.1l71.9-71.9c1.3-1.3,2.1-3.1,2.1-5h-71.9
		C410.9,369.2,407.7,372.4,407.7,376.4z"/>
	<path class="st4" d="M443.4,124.1"/>
	<rect x="311.6" y="136.8" class="st1" width="80.3" height="156.8"/>
	<polygon class="st1" points="246.7,291.7 351.9,397.2 457.3,291.7 	"/>
</g>
</svg>
