<?xml version="1.0" encoding="utf-8"?>
<!-- Generator: Adobe Illustrator 19.0.0, SVG Export Plug-In . SVG Version: 6.00 Build 0)  -->
<svg version="1.1" id="Layer_1" xmlns="http://www.w3.org/2000/svg" xmlns:xlink="http://www.w3.org/1999/xlink" x="0px" y="0px"
	 viewBox="96 11 512 512" style="enable-background:new 96 11 512 512;" xml:space="preserve">
<style type="text/css">
	.st0{fill:#FF8C29;}
	.st1{fill:#687F82;}
	.st2{fill:#FD6A33;}
	.st3{fill:#365558;}
	.st4{fill:#FFD1A9;}
	.st5{fill:#0295AA;}
	.st6{fill:#4ACFD9;}
	.st7{fill:#E6EAEA;}
	.st8{fill:#CDD4D5;}
	.st9{fill:#F0353D;}
	.st10{fill:#9BAAAB;}
	.st11{fill:#FFFFFF;}
</style>
<g>
	<path class="st0" d="M589.6,240.6h-81.3v38.8h81.3c3.5,0,6.3-3.3,6.3-7.3v-24.2C595.9,243.9,593.1,240.6,589.6,240.6z"/>
	<rect x="577.3" y="255.1" class="st1" width="9.2" height="24.3"/>
	<rect x="552.7" y="255.1" class="st1" width="13.8" height="24.3"/>
	<rect x="518.4" y="255.1" class="st1" width="18.3" height="24.3"/>
	<path class="st0" d="M601.7,289.3h-93.4v38.8h93.4c3.5,0,6.3-3.3,6.3-7.3v-24.2C608,292.6,605.2,289.3,601.7,289.3z"/>
	<rect x="589.4" y="303.8" class="st1" width="9.2" height="24.3"/>
	<rect x="564.8" y="303.8" class="st1" width="13.8" height="24.3"/>
	<rect x="530.5" y="303.8" class="st1" width="18.3" height="24.3"/>
	<rect x="508.3" y="303.8" class="st1" width="2" height="24.3"/>
	<path class="st0" d="M595.6,338.1h-87.3v20.2c0,7.2-2.7,13.7-7.1,18.6h94.4c3.5,0,6.3-3.3,6.3-7.3v-24.2
		C601.9,341.4,599.1,338.1,595.6,338.1z"/>
	<rect x="583.3" y="352.6" class="st1" width="9.2" height="24.3"/>
	<rect x="558.7" y="352.6" class="st1" width="13.8" height="24.3"/>
	<rect x="524.4" y="352.6" class="st1" width="18.3" height="24.3"/>
	<g>
		<path class="st0" d="M587.7,386.8H487.5v38.8h100.2c3.5,0,6.3-3.3,6.3-7.3v-24.2C594,390.1,591.2,386.8,587.7,386.8z"/>
		<path class="st2" d="M387.4,386.8c-3.5,0-6.3,3.3-6.3,7.3v24.2c0,4,2.8,7.3,6.3,7.3h100.2v-38.8
			C487.6,386.8,387.4,386.8,387.4,386.8z"/>
		<rect x="390.6" y="401.3" class="st3" width="9.2" height="24.3"/>
		<rect x="410.6" y="401.3" class="st3" width="13.8" height="24.3"/>
		<rect x="440.3" y="401.3" class="st3" width="18.3" height="24.3"/>
		<rect x="487.5" y="401.3" class="st3" width="0.1" height="24.3"/>
		<rect x="478.8" y="401.3" class="st3" width="8.7" height="24.3"/>
		<rect x="575.5" y="401.3" class="st1" width="9.2" height="24.3"/>
		<rect x="550.8" y="401.3" class="st1" width="13.8" height="24.3"/>
		<rect x="516.5" y="401.3" class="st1" width="18.3" height="24.3"/>
		<rect x="487.6" y="401.3" class="st1" width="8.7" height="24.3"/>
	</g>
	<g>
		<path class="st0" d="M599.1,435.4H498.9v38.8h100.2c3.5,0,6.3-3.3,6.3-7.3v-24.2C605.5,438.7,602.6,435.4,599.1,435.4z"/>
		<path class="st2" d="M398.8,435.4c-3.5,0-6.3,3.3-6.3,7.3v24.2c0,4,2.8,7.3,6.3,7.3H499v-38.8H398.8z"/>
		<rect x="402" y="449.9" class="st3" width="9.2" height="24.3"/>
		<rect x="422" y="449.9" class="st3" width="13.8" height="24.3"/>
		<rect x="451.7" y="449.9" class="st3" width="18.3" height="24.3"/>
		<rect x="498.9" y="449.9" class="st3" width="0.1" height="24.3"/>
		<rect x="490.2" y="449.9" class="st3" width="8.7" height="24.3"/>
		<rect x="586.9" y="449.9" class="st1" width="9.2" height="24.3"/>
		<rect x="562.2" y="449.9" class="st1" width="13.8" height="24.3"/>
		<rect x="527.9" y="449.9" class="st1" width="18.3" height="24.3"/>
		<rect x="499.1" y="449.9" class="st1" width="8.7" height="24.3"/>
	</g>
	<g>
		<path class="st0" d="M591.3,484.2H491.1V523h100.2c3.5,0,6.3-3.3,6.3-7.3v-24.2C597.6,487.5,594.7,484.2,591.3,484.2z"/>
		<path class="st2" d="M390.9,484.2c-3.5,0-6.3,3.3-6.3,7.3v24.1c0,4,2.8,7.3,6.3,7.3h100.2v-38.7H390.9z"/>
		<rect x="394.1" y="498.6" class="st3" width="9.2" height="24.3"/>
		<rect x="414.1" y="498.6" class="st3" width="13.8" height="24.3"/>
		<rect x="443.9" y="498.6" class="st3" width="18.3" height="24.3"/>
		<rect x="491.1" y="498.6" class="st3" width="0.1" height="24.3"/>
		<rect x="482.3" y="498.6" class="st3" width="8.7" height="24.3"/>
		<rect x="579" y="498.6" class="st1" width="9.2" height="24.3"/>
		<rect x="554.3" y="498.6" class="st1" width="13.8" height="24.3"/>
		<rect x="520" y="498.6" class="st1" width="18.3" height="24.3"/>
		<rect x="491.2" y="498.6" class="st1" width="8.7" height="24.3"/>
	</g>
	<path class="st4" d="M484.1,469.5"/>
	<path class="st4" d="M573.6,403.5l3.3,5.2v-9C576,400.5,574.9,401.9,573.6,403.5z"/>
</g>
<g>
	<path class="st5" d="M120,240.5c-3.5,0-6.3,3.3-6.3,7.3V272c0,4,2.8,7.3,6.3,7.3h76.3v-38.8C168.6,240.5,120,240.5,120,240.5z"/>
	<rect x="123.2" y="254.9" class="st3" width="9.2" height="24.3"/>
	<rect x="143.2" y="254.9" class="st3" width="13.8" height="24.3"/>
	<rect x="173" y="254.9" class="st3" width="18.3" height="24.3"/>
	<polygon class="st6" points="210.3,328 238.4,328 210.3,297.2 	"/>
	<path class="st5" d="M110.1,289.2c-3.5,0-6.3,3.3-6.3,7.3v24.2c0,4,2.8,7.3,6.3,7.3h100.2v-30.8l-7.3-8H110.1z"/>
	<rect x="113.3" y="303.7" class="st3" width="9.2" height="24.3"/>
	<rect x="133.3" y="303.7" class="st3" width="13.8" height="24.3"/>
	<rect x="163.1" y="303.7" class="st3" width="18.3" height="24.3"/>
	<rect x="210.3" y="303.7" class="st3" width="0.1" height="24.3"/>
	<rect x="201.5" y="303.7" class="st3" width="8.7" height="24.3"/>
	<polygon class="st1" points="210.4,303.7 210.4,328 219.1,328 219.1,306.9 216.2,303.7 	"/>
	<polygon class="st6" points="225.8,338 225.8,376.8 282.9,376.8 247.5,338 	"/>
	<path class="st5" d="M119.4,345.3v24.2c0,4,2.8,7.3,6.3,7.3h100.2V338H125.7C122.2,338,119.4,341.3,119.4,345.3z"/>
	<rect x="128.8" y="352.4" class="st3" width="9.2" height="24.3"/>
	<rect x="148.9" y="352.4" class="st3" width="13.8" height="24.3"/>
	<rect x="178.6" y="352.4" class="st3" width="18.3" height="24.3"/>
	<rect x="225.8" y="352.4" class="st3" width="0.1" height="24.3"/>
	<rect x="217.1" y="352.4" class="st3" width="8.7" height="24.3"/>
	<polygon class="st1" points="254.8,352.4 254.8,376.7 273.1,376.7 273.1,366.1 260.6,352.4 	"/>
	<rect x="225.9" y="352.4" class="st1" width="8.7" height="24.3"/>
	<g>
		<path class="st6" d="M306.1,386.7H205.9v38.8h100.2c3.5,0,6.3-3.3,6.3-7.3V394C312.4,390,309.6,386.7,306.1,386.7z"/>
		<path class="st5" d="M105.7,386.7c-3.5,0-6.3,3.3-6.3,7.3v24.2c0,4,2.8,7.3,6.3,7.3h100.2v-38.8H105.7z"/>
		<rect x="108.9" y="401.2" class="st3" width="9.2" height="24.3"/>
		<rect x="129" y="401.2" class="st3" width="13.8" height="24.3"/>
		<rect x="158.7" y="401.2" class="st3" width="18.3" height="24.3"/>
		<rect x="205.9" y="401.2" class="st3" width="0.1" height="24.3"/>
		<rect x="197.2" y="401.2" class="st3" width="8.7" height="24.3"/>
		<rect x="293.8" y="401.2" class="st1" width="9.2" height="24.3"/>
		<rect x="269.2" y="401.2" class="st1" width="13.8" height="24.3"/>
		<rect x="234.9" y="401.2" class="st1" width="18.3" height="24.3"/>
		<rect x="206" y="401.2" class="st1" width="8.7" height="24.3"/>
	</g>
	<g>
		<path class="st6" d="M314,435.5H213.8v38.8H314c3.5,0,6.3-3.3,6.3-7.3v-24.2C320.3,438.8,317.5,435.5,314,435.5z"/>
		<path class="st5" d="M113.6,435.5c-3.5,0-6.3,3.3-6.3,7.3V467c0,4,2.8,7.3,6.3,7.3h100.2v-38.8
			C213.8,435.5,113.6,435.5,113.6,435.5z"/>
		<rect x="116.8" y="449.9" class="st3" width="9.2" height="24.3"/>
		<rect x="136.9" y="449.9" class="st3" width="13.8" height="24.3"/>
		<rect x="166.6" y="449.9" class="st3" width="18.3" height="24.3"/>
		<rect x="213.8" y="449.9" class="st3" width="0.1" height="24.3"/>
		<rect x="205.1" y="449.9" class="st3" width="8.7" height="24.3"/>
		<rect x="301.7" y="449.9" class="st1" width="9.2" height="24.3"/>
		<rect x="277.1" y="449.9" class="st1" width="13.8" height="24.3"/>
		<rect x="242.8" y="449.9" class="st1" width="18.3" height="24.3"/>
		<rect x="213.9" y="449.9" class="st1" width="8.7" height="24.3"/>
	</g>
	<g>
		<path class="st6" d="M304.1,484.2H203.9V523h100.2c3.5,0,6.3-3.3,6.3-7.3v-24.2C310.4,487.5,307.6,484.2,304.1,484.2z"/>
		<path class="st5" d="M103.7,484.2c-3.5,0-6.3,3.3-6.3,7.3v24.2c0,4,2.8,7.3,6.3,7.3h100.2v-38.8H103.7z"/>
		<rect x="106.9" y="498.7" class="st3" width="9.2" height="24.3"/>
		<rect x="126.9" y="498.7" class="st3" width="13.8" height="24.3"/>
		<rect x="156.7" y="498.7" class="st3" width="18.3" height="24.3"/>
		<rect x="203.9" y="498.7" class="st3" width="0.1" height="24.3"/>
		<rect x="195.1" y="498.7" class="st3" width="8.7" height="24.3"/>
		<rect x="291.8" y="498.7" class="st1" width="9.2" height="24.3"/>
		<rect x="267.2" y="498.7" class="st1" width="13.8" height="24.3"/>
		<rect x="232.9" y="498.7" class="st1" width="18.3" height="24.3"/>
		<rect x="204" y="498.7" class="st1" width="8.7" height="24.3"/>
	</g>
	<path class="st4" d="M193.8,557.9"/>
	<path class="st4" d="M193.7,560.4"/>
</g>
<g>
	<path class="st4" d="M442.8,50.5"/>
	<path class="st7" d="M488,358.3V30.1c0-4.2-3.1-7.6-6.8-7.6h-134v343.2h134C484.9,365.8,488,362.5,488,358.3z"/>
	<path class="st8" d="M222.8,22.6c-3.7,0-6.8,3.3-6.8,7.5v244.1l83.6,91.6h47.5V22.6H222.8z"/>
	<g>
		<path class="st2" d="M378.1,112.2h-123c-2.1,0-3.7,2.4-3.7,5.4v43c0,3,1.7,5.4,3.7,5.4h123c2.1,0,3.7-2.4,3.7-5.4v-43
			C381.8,114.6,380.2,112.2,378.1,112.2z"/>
		<path class="st0" d="M411.8,183.9H255.1c-2.1,0-3.7,2.4-3.7,5.4v43c0,3,1.7,5.4,3.7,5.4h156.7c2.1,0,3.7-2.4,3.7-5.4v-43
			C415.5,186.3,413.9,183.9,411.8,183.9z"/>
		<path class="st6" d="M441.6,255.6H255.1c-2.1,0-3.7,2.4-3.7,5.4v43c0,3,1.7,5.4,3.7,5.4h186.5c2.1,0,3.7-2.4,3.7-5.4v-43
			C445.3,258,443.6,255.6,441.6,255.6z"/>
		<path class="st9" d="M255.1,112.2c-2.1,0-3.7,2.4-3.7,5.4v43c0,3,1.7,5.4,3.7,5.4h97.2v-53.8H255.1L255.1,112.2z"/>
		<path class="st2" d="M255.1,183.9c-2.1,0-3.7,2.4-3.7,5.4v43c0,3,1.7,5.4,3.7,5.4h97.2v-53.8H255.1L255.1,183.9z"/>
		<path class="st5" d="M255.1,255.6c-2.1,0-3.7,2.4-3.7,5.4v43c0,3,1.7,5.4,3.7,5.4h97.2v-53.8H255.1L255.1,255.6z"/>
	</g>
	<g>
		<path id="SVGCleanerId_0_4_" class="st10" d="M292.8,274.2H216l83.6,91.6v-84C299.6,277.6,296.6,274.2,292.8,274.2z"/>
	</g>
	<g>
		<path class="st3" d="M348.4,356.7c-3,0-5.4-2.4-5.4-5.4v-258c0-3,2.4-5.4,5.4-5.4s5.4,2.4,5.4,5.4v258
			C353.7,354.3,351.3,356.7,348.4,356.7z"/>
		<path class="st10" d="M382.8,13.4h-71.7c-3,0-5.4,2.4-5.4,5.4v50.7c0,1.8,0.9,3.5,2.5,4.5l37.3,23.9c0.9,0.6,1.9,0.8,2.9,0.8
			c1.1,0,2.1-0.3,3.1-1l34.4-23.9c1.4-1,2.3-2.7,2.3-4.4V18.7C388.1,15.8,385.7,13.4,382.8,13.4z"/>
		<path class="st1" d="M311.1,13.4c-3,0-5.4,2.4-5.4,5.4v50.7c0,1.8,0.9,3.5,2.5,4.5l37.3,23.9c0.9,0.6,1.9,0.8,2.9,0.8V13.4
			L311.1,13.4L311.1,13.4z"/>
		<path class="st11" d="M359.8,61.4c-3,0-5.4-2.4-5.4-5.4V35.9c0-3,2.4-5.4,5.4-5.4s5.4,2.4,5.4,5.4V56
			C365.2,59,362.8,61.4,359.8,61.4z"/>
	</g>
</g>
</svg>
