<?xml version="1.0" encoding="utf-8"?>
<!-- Generator: Adobe Illustrator 19.0.0, SVG Export Plug-In . SVG Version: 6.00 Build 0)  -->
<svg version="1.1" id="Layer_1" xmlns="http://www.w3.org/2000/svg" xmlns:xlink="http://www.w3.org/1999/xlink" x="0px" y="0px"
	 viewBox="96 11 512 512" style="enable-background:new 96 11 512 512;" xml:space="preserve">
<style type="text/css">
	.st0{fill:#FF8C29;}
	.st1{fill:#FD6A33;}
	.st2{fill:#365558;}
	.st3{fill:#687F82;}
	.st4{fill:#4ACFD9;}
	.st5{fill:#0295AA;}
	.st6{fill:#FFD1A9;}
	.st7{fill:#F0353D;}
</style>
<g>
	<g>
		<path class="st0" d="M521.7,322.4h-71.3v27.6h71.3c2.5,0,4.5-2.3,4.5-5.2v-17.2C526.2,324.8,524.2,322.4,521.7,322.4z"/>
		<path class="st1" d="M379.1,322.4c-2.5,0-4.5,2.3-4.5,5.2v17.2c0,2.8,2,5.2,4.5,5.2h71.3v-27.6H379.1z"/>
		<rect x="381.3" y="332.8" class="st2" width="6.6" height="17.3"/>
		<rect x="395.6" y="332.8" class="st2" width="9.8" height="17.3"/>
		<rect x="416.8" y="332.8" class="st2" width="13" height="17.3"/>
		<rect x="450.4" y="332.8" class="st2" width="0.1" height="17.3"/>
		<rect x="444.2" y="332.8" class="st2" width="6.2" height="17.3"/>
		<rect x="513" y="332.8" class="st3" width="6.6" height="17.3"/>
		<rect x="495.5" y="332.8" class="st3" width="9.8" height="17.3"/>
		<rect x="471" y="332.8" class="st3" width="13" height="17.3"/>
		<rect x="450.5" y="332.8" class="st3" width="6.2" height="17.3"/>
	</g>
	<g>
		<path class="st0" d="M530.4,357.1H459v27.6h71.3c2.5,0,4.5-2.3,4.5-5.2v-17.2C534.8,359.5,532.8,357.1,530.4,357.1z"/>
		<path class="st1" d="M387.7,357.1c-2.5,0-4.5,2.3-4.5,5.2v17.2c0,2.8,2,5.2,4.5,5.2H459v-27.6H387.7z"/>
		<rect x="389.9" y="367.4" class="st2" width="6.6" height="17.3"/>
		<rect x="404.3" y="367.4" class="st2" width="9.8" height="17.3"/>
		<rect x="425.4" y="367.4" class="st2" width="13" height="17.3"/>
		<rect x="459" y="367.4" class="st2" width="0.1" height="17.3"/>
		<rect x="452.8" y="367.4" class="st2" width="6.2" height="17.3"/>
		<rect x="521.6" y="367.4" class="st3" width="6.6" height="17.3"/>
		<rect x="504.1" y="367.4" class="st3" width="9.8" height="17.3"/>
		<rect x="479.7" y="367.4" class="st3" width="13" height="17.3"/>
		<rect x="459.1" y="367.4" class="st3" width="6.2" height="17.3"/>
	</g>
	<g>
		<path class="st0" d="M526,391.8h-71.3v27.6H526c2.5,0,4.5-2.3,4.5-5.2V397C530.5,394.2,528.5,391.8,526,391.8z"/>
		<path class="st1" d="M383.4,391.8c-2.5,0-4.5,2.3-4.5,5.2v17.2c0,2.8,2,5.2,4.5,5.2h71.3v-27.6H383.4z"/>
		<rect x="385.6" y="402.2" class="st2" width="6.6" height="17.3"/>
		<rect x="399.9" y="402.2" class="st2" width="9.8" height="17.3"/>
		<rect x="421.1" y="402.2" class="st2" width="13" height="17.3"/>
		<rect x="454.7" y="402.2" class="st2" width="0.1" height="17.3"/>
		<rect x="448.5" y="402.2" class="st2" width="6.2" height="17.3"/>
		<rect x="517.3" y="402.2" class="st3" width="6.6" height="17.3"/>
		<rect x="499.7" y="402.2" class="st3" width="9.8" height="17.3"/>
		<rect x="475.3" y="402.2" class="st3" width="13" height="17.3"/>
		<rect x="454.7" y="402.2" class="st3" width="6.2" height="17.3"/>
	</g>
	<g>
		<path class="st0" d="M520.4,426.5H449v27.6h71.3c2.5,0,4.5-2.3,4.5-5.2v-17.2C524.9,428.9,522.9,426.5,520.4,426.5z"/>
		<path class="st1" d="M377.8,426.5c-2.5,0-4.5,2.3-4.5,5.2V449c0,2.8,2,5.2,4.5,5.2h71.3v-27.6
			C449.1,426.5,377.8,426.5,377.8,426.5z"/>
		<rect x="380" y="436.8" class="st2" width="6.6" height="17.3"/>
		<rect x="394.3" y="436.8" class="st2" width="9.8" height="17.3"/>
		<rect x="415.4" y="436.8" class="st2" width="13" height="17.3"/>
		<rect x="449" y="436.8" class="st2" width="0.1" height="17.3"/>
		<rect x="442.8" y="436.8" class="st2" width="6.2" height="17.3"/>
		<rect x="511.7" y="436.8" class="st3" width="6.6" height="17.3"/>
		<rect x="494.1" y="436.8" class="st3" width="9.8" height="17.3"/>
		<rect x="469.7" y="436.8" class="st3" width="13" height="17.3"/>
		<rect x="449.1" y="436.8" class="st3" width="6.2" height="17.3"/>
	</g>
	<g>
		<path class="st0" d="M528.5,461.1h-71.3v27.6h71.3c2.5,0,4.5-2.3,4.5-5.2v-17.2C533.1,463.5,531,461.1,528.5,461.1z"/>
		<path class="st1" d="M385.9,461.1c-2.5,0-4.5,2.3-4.5,5.2v17.2c0,2.8,2,5.2,4.5,5.2h71.3v-27.6H385.9z"/>
		<rect x="388.2" y="471.5" class="st2" width="6.6" height="17.3"/>
		<rect x="402.4" y="471.5" class="st2" width="9.8" height="17.3"/>
		<rect x="423.6" y="471.5" class="st2" width="13" height="17.3"/>
		<rect x="457.2" y="471.5" class="st2" width="0.1" height="17.3"/>
		<rect x="451" y="471.5" class="st2" width="6.2" height="17.3"/>
		<rect x="519.8" y="471.5" class="st3" width="6.6" height="17.3"/>
		<rect x="502.2" y="471.5" class="st3" width="9.8" height="17.3"/>
		<rect x="477.8" y="471.5" class="st3" width="13" height="17.3"/>
		<rect x="457.3" y="471.5" class="st3" width="6.2" height="17.3"/>
	</g>
	<g>
		<path class="st0" d="M522.9,495.9h-71.3v27.6h71.3c2.5,0,4.5-2.3,4.5-5.2v-17.2C527.4,498.2,525.4,495.9,522.9,495.9z"/>
		<path class="st1" d="M380.3,495.9c-2.5,0-4.5,2.3-4.5,5.2v17.2c0,2.8,2,5.2,4.5,5.2h71.3v-27.6H380.3z"/>
		<rect x="382.5" y="506.1" class="st2" width="6.6" height="17.3"/>
		<rect x="396.8" y="506.1" class="st2" width="9.8" height="17.3"/>
		<rect x="418" y="506.1" class="st2" width="13" height="17.3"/>
		<rect x="451.6" y="506.1" class="st2" width="0.1" height="17.3"/>
		<rect x="445.3" y="506.1" class="st2" width="6.2" height="17.3"/>
		<rect x="514.2" y="506.1" class="st3" width="6.6" height="17.3"/>
		<rect x="496.6" y="506.1" class="st3" width="9.8" height="17.3"/>
		<rect x="472.2" y="506.1" class="st3" width="13" height="17.3"/>
		<rect x="451.7" y="506.1" class="st3" width="6.2" height="17.3"/>
	</g>
</g>
<g>
	<g>
		<path class="st4" d="M332.8,322h-71.3v27.6h71.3c2.5,0,4.5-2.3,4.5-5.2v-17.2C337.3,324.3,335.3,322,332.8,322z"/>
		<path class="st5" d="M190.2,322c-2.5,0-4.5,2.3-4.5,5.2v17.2c0,2.8,2,5.2,4.5,5.2h71.3V322C261.5,322,190.2,322,190.2,322z"/>
		<rect x="192.4" y="332.3" class="st2" width="6.6" height="17.3"/>
		<rect x="206.7" y="332.3" class="st2" width="9.8" height="17.3"/>
		<rect x="227.9" y="332.3" class="st2" width="13" height="17.3"/>
		<rect x="261.5" y="332.3" class="st2" width="0.1" height="17.3"/>
		<rect x="255.2" y="332.3" class="st2" width="6.2" height="17.3"/>
		<rect x="324.1" y="332.3" class="st3" width="6.6" height="17.3"/>
		<rect x="306.6" y="332.3" class="st3" width="9.8" height="17.3"/>
		<rect x="282.1" y="332.3" class="st3" width="13" height="17.3"/>
		<rect x="261.6" y="332.3" class="st3" width="6.2" height="17.3"/>
	</g>
	<g>
		<path class="st4" d="M325.8,356.7h-71.3v27.6h71.3c2.5,0,4.5-2.3,4.5-5.2v-17.2C330.3,359,328.2,356.7,325.8,356.7z"/>
		<path class="st5" d="M183.1,356.7c-2.5,0-4.5,2.3-4.5,5.2v17.2c0,2.8,2,5.2,4.5,5.2h71.3v-27.6H183.1z"/>
		<rect x="185.4" y="367" class="st2" width="6.6" height="17.3"/>
		<rect x="199.6" y="367" class="st2" width="9.8" height="17.3"/>
		<rect x="220.8" y="367" class="st2" width="13" height="17.3"/>
		<rect x="254.4" y="367" class="st2" width="0.1" height="17.3"/>
		<rect x="248.2" y="367" class="st2" width="6.2" height="17.3"/>
		<rect x="317" y="367" class="st3" width="6.6" height="17.3"/>
		<rect x="299.5" y="367" class="st3" width="9.8" height="17.3"/>
		<rect x="275" y="367" class="st3" width="13" height="17.3"/>
		<rect x="254.5" y="367" class="st3" width="6.2" height="17.3"/>
	</g>
	<g>
		<path class="st4" d="M336.8,391.4h-71.3V419h71.3c2.5,0,4.5-2.3,4.5-5.2v-17.2C341.3,393.8,339.3,391.4,336.8,391.4z"/>
		<path class="st5" d="M194.2,391.4c-2.5,0-4.5,2.3-4.5,5.2v17.2c0,2.8,2,5.2,4.5,5.2h71.3v-27.6H194.2z"/>
		<rect x="196.4" y="401.7" class="st2" width="6.6" height="17.3"/>
		<rect x="210.7" y="401.7" class="st2" width="9.8" height="17.3"/>
		<rect x="231.9" y="401.7" class="st2" width="13" height="17.3"/>
		<rect x="265.5" y="401.7" class="st2" width="0.1" height="17.3"/>
		<rect x="259.3" y="401.7" class="st2" width="6.2" height="17.3"/>
		<rect x="328.1" y="401.7" class="st3" width="6.6" height="17.3"/>
		<rect x="310.6" y="401.7" class="st3" width="9.8" height="17.3"/>
		<rect x="286.1" y="401.7" class="st3" width="13" height="17.3"/>
		<rect x="265.6" y="401.7" class="st3" width="6.2" height="17.3"/>
	</g>
	<g>
		<path class="st4" d="M322.7,426.1h-71.3v27.6h71.3c2.5,0,4.5-2.3,4.5-5.2v-17.2C327.1,428.4,325.2,426.1,322.7,426.1z"/>
		<path class="st5" d="M180,426.1c-2.5,0-4.5,2.3-4.5,5.2v17.2c0,2.8,2,5.2,4.5,5.2h71.3v-27.6H180z"/>
		<rect x="182.2" y="436.4" class="st2" width="6.6" height="17.3"/>
		<rect x="196.6" y="436.4" class="st2" width="9.8" height="17.3"/>
		<rect x="217.7" y="436.4" class="st2" width="13" height="17.3"/>
		<rect x="251.3" y="436.4" class="st2" width="0.1" height="17.3"/>
		<rect x="245.1" y="436.4" class="st2" width="6.2" height="17.3"/>
		<rect x="313.9" y="436.4" class="st3" width="6.6" height="17.3"/>
		<rect x="296.4" y="436.4" class="st3" width="9.8" height="17.3"/>
		<rect x="272" y="436.4" class="st3" width="13" height="17.3"/>
		<rect x="251.4" y="436.4" class="st3" width="6.2" height="17.3"/>
	</g>
	<g>
		<path class="st4" d="M328.3,460.8h-71.3v27.6h71.3c2.5,0,4.5-2.3,4.5-5.2V466C332.8,463.2,330.8,460.8,328.3,460.8z"/>
		<path class="st5" d="M185.6,460.8c-2.5,0-4.5,2.3-4.5,5.2v17.2c0,2.8,2,5.2,4.5,5.2h71.3v-27.6
			C256.9,460.8,185.6,460.8,185.6,460.8z"/>
		<rect x="187.9" y="471.1" class="st2" width="6.6" height="17.3"/>
		<rect x="202.2" y="471.1" class="st2" width="9.8" height="17.3"/>
		<rect x="223.3" y="471.1" class="st2" width="13" height="17.3"/>
		<rect x="256.9" y="471.1" class="st2" width="0.1" height="17.3"/>
		<rect x="250.7" y="471.1" class="st2" width="6.2" height="17.3"/>
		<rect x="319.5" y="471.1" class="st3" width="6.6" height="17.3"/>
		<rect x="302" y="471.1" class="st3" width="9.8" height="17.3"/>
		<rect x="277.6" y="471.1" class="st3" width="13" height="17.3"/>
		<rect x="257" y="471.1" class="st3" width="6.2" height="17.3"/>
	</g>
	<g>
		<path class="st4" d="M321.2,495.5h-71.3v27.6h71.3c2.5,0,4.5-2.3,4.5-5.2v-17.2C325.7,497.9,323.7,495.5,321.2,495.5z"/>
		<path class="st5" d="M178.5,495.5c-2.5,0-4.5,2.3-4.5,5.2v17.2c0,2.8,2,5.2,4.5,5.2h71.3v-27.6H178.5z"/>
		<rect x="180.8" y="505.8" class="st2" width="6.6" height="17.3"/>
		<rect x="195.1" y="505.8" class="st2" width="9.8" height="17.3"/>
		<rect x="216.3" y="505.8" class="st2" width="13" height="17.3"/>
		<rect x="249.9" y="505.8" class="st2" width="0.1" height="17.3"/>
		<rect x="243.6" y="505.8" class="st2" width="6.2" height="17.3"/>
		<rect x="312.5" y="505.8" class="st3" width="6.6" height="17.3"/>
		<rect x="295" y="505.8" class="st3" width="9.8" height="17.3"/>
		<rect x="270.5" y="505.8" class="st3" width="13" height="17.3"/>
		<rect x="250" y="505.8" class="st3" width="6.2" height="17.3"/>
	</g>
</g>
<path class="st1" d="M215.6,155.8h-6.9h-6.9c-8.9,0-16.1,6.8-16.1,14.8l12.2,64.1c0,8.2,7.3,14.8,16.1,14.8h7h6.9c4,0,7.5-3,7.5-6.9
	l-12.2-80.2C223.1,159,219.7,155.8,215.6,155.8z"/>
<path class="st0" d="M482.9,249.5h-6.9c-4,0-7.5-3-7.5-6.9l12.2-80.2c0-3.7,3.3-6.9,7.5-6.9h6.9h7c8.9,0,16.1,6.8,16.1,14.8
	l-12.2,64.2c0,8.2-7.3,14.8-16.1,14.8L482.9,249.5L482.9,249.5z"/>
<path class="st0" d="M430.8,96.1h-51.2c-5,0-9.8-4.2-9.8-9v-2.1h-17.8v148.1h5.9h4.3c2.1,0,3.7,1.6,3.7,3.2v6.2
	c0,1.9-1.7,3.3-3.7,3.3h-4.3v0.1h-5.9v48h66.6c20.6,0,37.3-15.3,37.3-34.3l12.2-129.6C468,111.2,451.1,95.8,430.8,96.1z
	 M417.1,242.4c0,2-1.8,3.6-3.9,3.6H393c-2.1,0-3.9-1.7-3.9-3.6v-5.8c0-2,1.8-3.6,3.9-3.6h20.2c2.2,0,3.9,1.7,3.9,3.6V242.4z
	 M403.1,189.5c-10.2,0-18.6-4.3-18.6-9.7c0-5.3,8.3-9.7,18.6-9.7s18.6,4.3,18.6,9.7C421.7,185.1,413.3,189.5,403.1,189.5z"/>
<path class="st0" d="M375.4,79.1c8.1-4.8,5.8-15.9-2-21.5c0,0-21.4,14.5-21.4,27.1c6.2,0,17.8,0,17.8,0S368.8,83.2,375.4,79.1z"/>
<path class="st1" d="M351.9,84.9h-17.8v1.9c0,5.1-5.8,9-11.2,9h-49.6c-20.6,0-37.3,15.3-37.3,34.3l12.2,129.6
	c0,18.9,16.8,34.3,37.3,34.3h66.4V246h-10.3c-2.1,0-3.7-1.6-3.7-3.3v-6.2c0-1.9,1.7-3.3,3.7-3.3h6.3h4V84.9z M314.8,242.6
	c0,1.9-1.7,3.3-3.7,3.3h-20.8c-2.1,0-3.7-1.6-3.7-3.3v-6.2c0-1.9,1.7-3.3,3.7-3.3h20.8c2,0,3.7,1.6,3.7,3.3V242.6z M300.8,189.4
	c-10.2,0-18.6-4.3-18.6-9.7c0-5.3,8.3-9.7,18.6-9.7s18.6,4.3,18.6,9.7C319.4,185,311,189.4,300.8,189.4z"/>
<path class="st1" d="M347.1,60.2c-6.9,4.1-12.9,11.1-12.9,24.7c8.3,0,11.6,0,17.8,0c0-12.8,21.6-27.4,21.6-27.4
	C365.8,52.1,353.7,56,347.1,60.2z"/>
<path class="st6" d="M213.9,212.2c0.8,1,1.1,2.3,0.6,3.6c-1.8,7.1-0.3,14.5,4,20.4c1.4,1.9,1,4.6-0.9,6.1c-2.1,1.4-4.9,1.1-6.3-0.7
	c-6.1-7.8-8.1-17.8-5.4-27.4c0.6-2.3,3-3.8,5.4-3.2C212.6,210.8,213.2,211.4,213.9,212.2z"/>
<path class="st6" d="M493.2,210.8c2.4-0.6,4.9,1,5.4,3.2c2.7,9.6,0.6,19.6-5.4,27.4c-1.4,1.8-4.2,2.1-6.3,0.7
	c-1.8-1.4-2.4-4.1-0.9-6.1c4.4-5.9,5.9-13.1,4-20.4c-0.4-1.2-0.1-2.6,0.6-3.6C491.2,211.4,492,210.8,493.2,210.8z"/>
<path class="st7" d="M423.7,31.5l-21.5,14.3c-2.9,1.9-7.4,1.9-10.4-0.1c-2.9-2-2.9-5,0.1-6.9l21.5-14.3c2.9-1.9,7.4-1.9,10.4,0.1
	C426.5,26.4,426.5,29.5,423.7,31.5z"/>
<path class="st7" d="M440.9,61.6c-1.4,1-3.1,1.5-5.3,1.4l-27.3-0.1c-4.1,0-7.3-2.2-7.3-5c0-2.7,3.3-4.9,7.4-4.9l27.3,0.1
	c4.1,0,7.3,2.2,7.3,5C443.1,59.5,442.1,60.8,440.9,61.6z"/>
<path class="st7" d="M378.8,37.9c-1.4,1-3.1,1.5-5.3,1.4c-4.1,0-7.3-2.2-7.3-5l0.1-18.3c0-2.7,3.3-4.9,7.4-4.9c4.1,0,7.3,2.2,7.3,5
	L381,34.3C380.8,35.7,380.2,36.9,378.8,37.9z"/>
</svg>
