<?xml version="1.0" encoding="utf-8"?>
<!-- Generator: Adobe Illustrator 19.0.0, SVG Export Plug-In . SVG Version: 6.00 Build 0)  -->
<svg version="1.1" id="Layer_1" xmlns="http://www.w3.org/2000/svg" xmlns:xlink="http://www.w3.org/1999/xlink" x="0px" y="0px"
	 viewBox="96 11 512 512" style="enable-background:new 96 11 512 512;" xml:space="preserve">
<style type="text/css">
	.st0{fill:#FD6A33;}
	.st1{fill:#CDD4D5;}
	.st2{fill:#E6EAEA;}
	.st3{fill:#FF8C29;}
	.st4{fill:#365558;}
	.st5{fill:#F0353D;}
</style>
<rect x="342.6" y="69.1" class="st0" width="18.8" height="65.9"/>
<rect x="295.5" y="134.2" class="st1" width="112.5" height="275"/>
<rect x="351.7" y="134.2" class="st2" width="56.3" height="275"/>
<rect x="295" y="135" class="st0" width="113" height="275"/>
<rect x="352" y="135" class="st3" width="56" height="275"/>
<path class="st4" d="M295,392h14.8v17H295V392z"/>
<path class="st4" d="M393.2,392H408v17h-14.8V392z"/>
<path class="st4" d="M295,313h14.8v16H295V313z"/>
<path class="st4" d="M393.2,313H408v16h-14.8V313z"/>
<path class="st4" d="M295,224h14.8v16H295V224z"/>
<path class="st4" d="M393.2,224H408v16h-14.8V224z"/>
<path class="st4" d="M295,135h14.8v16H295V135z"/>
<path class="st4" d="M393.2,135H408v16h-14.8V135z"/>
<rect x="341.6" y="410" class="st0" width="18.8" height="53"/>
<path class="st5" d="M357.1,16.7l-0.4,23.8c-0.1,3.2-2.6,5.7-5.9,5.8c-3.2,0-5.7-2.5-5.6-5.7l0.4-23.8c0.1-3.2,2.6-5.7,5.9-5.8
	C354.6,11,357.1,13.5,357.1,16.7z"/>
<path class="st5" d="M391.4,31.7c0,1.5-0.6,3-1.8,4.1l-15.4,15.3c-2.3,2.3-5.9,2.3-8.2,0c-2.2-2.2-2.1-5.8,0.2-8.2l15.4-15.3
	c2.3-2.3,5.9-2.3,8.2,0C391,28.7,391.5,30.2,391.4,31.7z"/>
<path class="st5" d="M337.1,47.2c0,1.5-0.6,3-1.8,4.1c-2.3,2.3-5.9,2.3-8.2,0l-14.9-15c-2.2-2.2-2.1-5.8,0.2-8.2
	c2.3-2.3,5.9-2.3,8.2,0l14.9,15C336.5,44.2,337.1,45.7,337.1,47.2z"/>
</svg>
