<?xml version="1.0" encoding="utf-8"?>
<!-- Generator: Adobe Illustrator 19.0.0, SVG Export Plug-In . SVG Version: 6.00 Build 0)  -->
<svg version="1.1" id="Layer_1" xmlns="http://www.w3.org/2000/svg" xmlns:xlink="http://www.w3.org/1999/xlink" x="0px" y="0px"
	 viewBox="96 11 512 512" style="enable-background:new 96 11 512 512;" xml:space="preserve">
<style type="text/css">
	.st0{fill:#9BAAAB;}
	.st1{fill:#CDD4D5;}
	.st2{fill:#E6EAEA;}
	.st3{fill:#FD6A33;}
	.st4{fill:#FF8C29;}
	.st5{fill:#365558;}
	.st6{fill:#F0353D;}
</style>
<rect x="342.6" y="69.1" class="st0" width="18.8" height="65.9"/>
<rect x="295.5" y="134.2" class="st1" width="112.5" height="275"/>
<rect x="351.7" y="134.2" class="st2" width="56.3" height="275"/>
<rect x="295" y="392" class="st3" width="113" height="18"/>
<rect x="352" y="392" class="st4" width="56" height="18"/>
<path class="st5" d="M295,392h14.8v17H295V392z"/>
<path class="st5" d="M393.2,392H408v17h-14.8V392z"/>
<path class="st5" d="M295,313h14.8v16H295V313z"/>
<path class="st5" d="M393.2,313H408v16h-14.8V313z"/>
<path class="st5" d="M295,224h14.8v16H295V224z"/>
<path class="st5" d="M393.2,224H408v16h-14.8V224z"/>
<path class="st5" d="M295,135h14.8v16H295V135z"/>
<path class="st5" d="M393.2,135H408v16h-14.8V135z"/>
<rect x="341.6" y="410" class="st3" width="18.8" height="53"/>
<path class="st6" d="M344.9,517.3l0.4-23.8c0.1-3.2,2.6-5.7,5.9-5.8c3.2,0,5.7,2.5,5.6,5.7l-0.4,23.8c-0.1,3.2-2.6,5.7-5.9,5.8
	C347.4,523,344.9,520.5,344.9,517.3z"/>
<path class="st6" d="M310.6,502.3c0-1.5,0.6-3,1.8-4.1l15.4-15.3c2.3-2.3,5.9-2.3,8.2,0c2.2,2.2,2.1,5.8-0.2,8.2l-15.4,15.3
	c-2.3,2.3-5.9,2.3-8.2,0C311,505.3,310.5,503.8,310.6,502.3z"/>
<path class="st6" d="M364.9,486.8c0-1.5,0.6-3,1.8-4.1c2.3-2.3,5.9-2.3,8.2,0l14.9,15c2.2,2.2,2.1,5.8-0.2,8.2
	c-2.3,2.3-5.9,2.3-8.2,0l-14.9-15C365.5,489.8,364.9,488.3,364.9,486.8z"/>
</svg>
