<?xml version="1.0" encoding="utf-8"?>
<!-- Generator: Adobe Illustrator 19.0.0, SVG Export Plug-In . SVG Version: 6.00 Build 0)  -->
<svg version="1.1" id="Layer_1" xmlns="http://www.w3.org/2000/svg" xmlns:xlink="http://www.w3.org/1999/xlink" x="0px" y="0px"
	 viewBox="96 11 512 512" style="enable-background:new 96 11 512 512;" xml:space="preserve">
<style type="text/css">
	.st0{display:none;fill:#9BAAAB;}
	.st1{display:none;}
	.st2{display:inline;}
	.st3{fill:#9BAAAB;}
	.st4{fill:#4ACFD9;}
	.st5{fill:#0295AA;}
	.st6{fill:#FFD1A9;}
	.st7{fill:#FF8C29;}
	.st8{fill:#FD6A33;}
	.st9{fill:#687F82;}
</style>
<polygon class="st0" points="960,-129.5 779,-59.5 598,-129.5 779.5,-200.5 "/>
<g id="Layer_3_1_" class="st1">
	<polygon class="st2" points="1591,-635.4 1079,-635.4 1079,-122.6 1192.9,-122.6 1192.9,-515.5 1383,-515.5 1383,-122.6 
		1591,-122.6 	"/>
	<rect x="1192.9" y="-515.5" class="st2" width="190.1" height="392.9"/>
</g>
<path id="SVGCleanerId_0_3_" class="st0" d="M1152.1-209h-71.9l78.3,85.8V-202C1158.5-205.9,1155.7-209,1152.1-209z"/>
<g>
	<path id="SVGCleanerId_0_7_" class="st3" d="M223.6,189.8h-64l69.6,76.3v-70C229.3,192.7,226.8,189.8,223.6,189.8z"/>
</g>
<path class="st4" d="M572.9,83H350.2v296.4h113.6c33.7,0,33.7-39.7,33.7-70l109.1-192.7C606.6,98.1,591.5,83,572.9,83z"/>
<path class="st5" d="M133,83c-18.5,0-33.7,15.1-33.7,33.7l72.8,192.7c0,25.7,6.1,70,33.7,70h144.6V83L133,83L133,83z"/>
<path class="st6" d="M257.7,329c-27.9,0-50.5,22.6-50.5,50.5c0,27.9,22.6,50.5,50.5,50.5s50.5-22.6,50.5-50.5
	C308.2,351.5,285.5,329,257.7,329z"/>
<circle class="st7" cx="257.7" cy="379.4" r="28.8"/>
<path class="st6" d="M417.6,429.9c-27.9,0-50.5-22.6-50.5-50.5c0-27.9,22.6-50.5,50.5-50.5c27.9,0,50.5,22.6,50.5,50.5
	C468.1,407.3,445.5,429.9,417.6,429.9z"/>
<circle class="st7" cx="417.6" cy="379.4" r="28.8"/>
<polygon class="st7" points="587.2,150.9 343.1,150.9 343.1,197.5 561.1,197.5 "/>
<polygon class="st8" points="112.1,150.9 129.8,197.5 350.2,197.5 350.2,150.9 "/>
<path class="st7" d="M662.9,479.8H43c-7.1,0-13-5.8-13-13v-23.6c0-7.1,5.8-13,13-13h620c7.1,0,13,5.8,13,13v23.6
	C675.8,474,670,479.8,662.9,479.8z"/>
<g>
	<path class="st9" d="M153.6,521.2h-42.9c-4.4,0-8.1-3.7-8.1-8.1v-25.4c0-4.4,3.7-8.1,8.1-8.1h42.9c4.4,0,8.1,3.7,8.1,8.1v25.4
		C161.6,517.5,158.1,521.2,153.6,521.2z"/>
	<path class="st9" d="M300.7,521.2H258c-4.4,0-8.1-3.7-8.1-8.1v-25.4c0-4.4,3.7-8.1,8.1-8.1h42.8c4.4,0,8.1,3.7,8.1,8.1v25.4
		C308.8,517.5,305.1,521.2,300.7,521.2z"/>
	<path class="st9" d="M447.9,521.2h-42.8c-4.4,0-8.1-3.7-8.1-8.1v-25.4c0-4.4,3.7-8.1,8.1-8.1h42.8c4.4,0,8.1,3.7,8.1,8.1v25.4
		C456,517.5,452.3,521.2,447.9,521.2z"/>
	<path class="st9" d="M595.1,521.2h-42.9c-4.4,0-8.1-3.7-8.1-8.1v-25.4c0-4.4,3.7-8.1,8.1-8.1h42.9c4.4,0,8.1,3.7,8.1,8.1v25.4
		C603.1,517.5,599.5,521.2,595.1,521.2z"/>
</g>
</svg>
