<?xml version="1.0" encoding="utf-8"?>
<!-- Generator: Adobe Illustrator 19.0.0, SVG Export Plug-In . SVG Version: 6.00 Build 0)  -->
<svg version="1.1" xmlns="http://www.w3.org/2000/svg" xmlns:xlink="http://www.w3.org/1999/xlink" x="0px" y="0px"
	 viewBox="206 -206 512 512" style="enable-background:new 206 -206 512 512;" xml:space="preserve">
<style type="text/css">
	.st0{display:none;}
	.st1{display:inline;}
	.st2{display:none;fill:#9BAAAB;}
	.st3{fill:#E6EAEA;}
	.st4{fill:#CDD4D5;}
	.st5{fill:#0295AA;}
	.st6{fill:#365558;}
	.st7{fill:#9BAAAB;}
	.st8{fill:#4ACFD9;}
	.st9{fill:#FD6A33;}
	.st10{fill:#F0353D;}
	.st11{fill:#FF8C29;}
</style>
<g id="Layer_1">
	<g id="Layer_3" class="st0">
		<rect x="206" y="-206.4" class="st1" width="512" height="512.8"/>
	</g>
	<path id="SVGCleanerId_0" class="st2" d="M279.1,220h-71.9l78.3,85.8V227C285.5,223.1,282.7,220,279.1,220z"/>
	<g>
		<path class="st3" d="M300.2,179.5h-91.8c-1.3,0-2.4,1.2-2.4,2.8v90l30.8,33.7h63.4c1.3,0,2.4-1.2,2.4-2.8V182.3
			C302.7,180.8,301.6,179.5,300.2,179.5z"/>
		<path class="st4" d="M208.5,179.5c-1.4,0-2.5,1.2-2.5,2.8l0,108l13.9,15.8h34.4V179.5H208.5z"/>
		<g>
			<path class="st5" d="M289.4,207.2h-66c-1.4,0-2.5-1.2-2.5-2.8s1.1-2.8,2.5-2.8h66c1.4,0,2.5,1.2,2.5,2.8
				C291.9,205.9,290.8,207.2,289.4,207.2z"/>
			<path class="st5" d="M289.4,230.8h-66c-1.4,0-2.5-1.2-2.5-2.8c0-1.5,1.1-2.8,2.5-2.8h66c1.4,0,2.5,1.2,2.5,2.8
				C291.9,229.5,290.8,230.8,289.4,230.8z"/>
			<path class="st5" d="M289.4,254.4h-66c-1.4,0-2.5-1.2-2.5-2.8c0-1.5,1.1-2.8,2.5-2.8h66c1.4,0,2.5,1.2,2.5,2.8
				C291.9,253.1,290.8,254.4,289.4,254.4z"/>
			<path class="st5" d="M289.4,278h-66c-1.4,0-2.5-1.2-2.5-2.8c0-1.5,1.1-2.8,2.5-2.8h66c1.4,0,2.5,1.2,2.5,2.8S290.8,278,289.4,278
				z"/>
		</g>
		<g>
			<path class="st6" d="M223.3,201.7c-1.4,0-2.5,1.2-2.5,2.8s1.1,2.8,2.5,2.8h31v-5.5H223.3z"/>
			<path class="st6" d="M223.3,225.2c-1.4,0-2.5,1.2-2.5,2.8c0,1.5,1.1,2.8,2.5,2.8h31v-5.5H223.3z"/>
			<path class="st6" d="M220.8,251.6c0,1.5,1.1,2.8,2.5,2.8h31v-5.5h-31C222,248.8,220.8,250.1,220.8,251.6z"/>
			<path class="st6" d="M220.8,275.2c0,1.5,1.1,2.8,2.5,2.8h31v-5.5h-31C222,272.4,220.8,273.7,220.8,275.2z"/>
		</g>
		<g>
			<path id="SVGCleanerId_0_2_" class="st7" d="M218.8,290.3H206l13.9,15.8v-14.5C219.9,290.8,219.4,290.3,218.8,290.3z"/>
		</g>
	</g>
	<g>
		<path class="st3" d="M420.9,83.4H287.2c-2,0-3.5,1.8-3.5,4v131.1l44.9,49.1h92.4c2,0,3.5-1.8,3.5-4V87.4
			C424.5,85.2,422.9,83.4,420.9,83.4z"/>
		<path class="st4" d="M287.3,83.4c-2,0-3.7,1.8-3.7,4v143l32.9,37.2H354V83.4H287.3z"/>
		<g>
			<path class="st8" d="M405.1,123.7h-96.2c-2,0-3.7-1.8-3.7-4s1.6-4,3.7-4h96.2c2,0,3.7,1.8,3.7,4
				C408.8,121.9,407.1,123.7,405.1,123.7z"/>
			<path class="st8" d="M405.1,158h-96.2c-2,0-3.7-1.8-3.7-4c0-2.2,1.6-4,3.7-4h96.2c2,0,3.7,1.8,3.7,4
				C408.8,156.2,407.1,158,405.1,158z"/>
			<path class="st8" d="M405.1,192.4h-96.2c-2,0-3.7-1.8-3.7-4c0-2.2,1.6-4,3.7-4h96.2c2,0,3.7,1.8,3.7,4
				C408.8,190.6,407.1,192.4,405.1,192.4z"/>
			<path class="st8" d="M405.1,226.8h-96.2c-2,0-3.7-1.8-3.7-4s1.6-4,3.7-4h96.2c2,0,3.7,1.8,3.7,4S407.1,226.8,405.1,226.8z"/>
		</g>
		<g>
			<path class="st5" d="M308.9,115.6c-2,0-3.7,1.8-3.7,4s1.6,4,3.7,4H354v-8.1H308.9z"/>
			<path class="st5" d="M308.9,150c-2,0-3.7,1.8-3.7,4s1.6,4,3.7,4H354V150H308.9z"/>
			<path class="st5" d="M305.2,188.4c0,2.2,1.6,4,3.7,4H354v-8.1h-45.1C306.9,184.3,305.2,186.2,305.2,188.4z"/>
			<path class="st5" d="M305.2,222.8c0,2.2,1.6,4,3.7,4H354v-8.1h-45.1C306.9,218.7,305.2,220.5,305.2,222.8z"/>
		</g>
		<g>
			<path id="SVGCleanerId_0_7_" class="st7" d="M313.8,230.4h-30.2l32.9,37.2v-34.1C316.5,231.8,315.3,230.4,313.8,230.4z"/>
		</g>
	</g>
	<g>
		<path class="st3" d="M555.4-54.9H368.6c-2.7,0-5,2.5-5,5.6v183l62.7,68.6h129c2.7,0,5-2.5,5-5.6v-246
			C560.3-52.4,558.1-54.9,555.4-54.9z"/>
		<path class="st4" d="M368.8-54.9c-2.8,0-5.1,2.5-5.1,5.6v199.7l45.9,51.9H462V-54.9H368.8z"/>
		<g>
			<path class="st9" d="M533.2,1.3H399c-2.8,0-5.1-2.5-5.1-5.6s2.3-5.6,5.1-5.6h134.3c2.8,0,5.1,2.5,5.1,5.6
				C538.4-1.2,536.1,1.3,533.2,1.3z"/>
			<path class="st9" d="M533.2,49.3H399c-2.8,0-5.1-2.5-5.1-5.6c0-3.1,2.3-5.6,5.1-5.6h134.3c2.8,0,5.1,2.5,5.1,5.6
				C538.4,46.8,536.1,49.3,533.2,49.3z"/>
			<path class="st9" d="M533.2,97.3H399c-2.8,0-5.1-2.5-5.1-5.6c0-3.1,2.3-5.6,5.1-5.6h134.3c2.8,0,5.1,2.5,5.1,5.6
				C538.4,94.8,536.1,97.3,533.2,97.3z"/>
			<path class="st9" d="M533.2,145.3H399c-2.8,0-5.1-2.5-5.1-5.6c0-3.1,2.3-5.6,5.1-5.6h134.3c2.8,0,5.1,2.5,5.1,5.6
				C538.4,142.8,536.1,145.3,533.2,145.3z"/>
		</g>
		<g>
			<path class="st10" d="M399-9.9c-2.8,0-5.1,2.5-5.1,5.6s2.3,5.6,5.1,5.6h63V-9.9H399z"/>
			<path class="st10" d="M399,38.1c-2.8,0-5.1,2.5-5.1,5.6c0,3.1,2.3,5.6,5.1,5.6h63V38.1H399z"/>
			<path class="st10" d="M393.8,91.7c0,3.1,2.3,5.6,5.1,5.6h63V86.1h-63C396.1,86.1,393.8,88.6,393.8,91.7z"/>
			<path class="st10" d="M393.8,139.7c0,3.1,2.3,5.6,5.1,5.6h63v-11.2h-63C396.1,134.1,393.8,136.6,393.8,139.7z"/>
		</g>
		<g>
			<path id="SVGCleanerId_0_6_" class="st7" d="M405.8,150.5h-42.1l45.9,51.9v-47.6C409.6,152.4,407.9,150.5,405.8,150.5z"/>
		</g>
	</g>
	<g>
		<path class="st3" d="M711.5-197.3H468.4c-3.6,0-6.5,3.3-6.5,7.3V48.2l81.6,89.3h167.9c3.6,0,6.5-3.3,6.5-7.3V-190
			C718-194,715.1-197.3,711.5-197.3z"/>
		<path class="st4" d="M468.7-197.3c-3.7,0-6.7,3.3-6.7,7.3V48.2l81.6,89.3H590v-334.9H468.7z"/>
		<g>
			<path class="st11" d="M682.8-124.1H507.9c-3.7,0-6.7-3.3-6.7-7.3c0-4,3-7.3,6.7-7.3h174.8c3.7,0,6.7,3.3,6.7,7.3
				C689.4-127.4,686.4-124.1,682.8-124.1z"/>
			<path class="st11" d="M682.8-61.6H507.9c-3.7,0-6.7-3.3-6.7-7.3c0-4,3-7.3,6.7-7.3h174.8c3.7,0,6.7,3.3,6.7,7.3
				C689.4-64.9,686.4-61.6,682.8-61.6z"/>
			<path class="st11" d="M682.8,0.9H507.9c-3.7,0-6.7-3.3-6.7-7.3c0-4,3-7.3,6.7-7.3h174.8c3.7,0,6.7,3.3,6.7,7.3
				C689.4-2.4,686.4,0.9,682.8,0.9z"/>
			<path class="st11" d="M682.8,63.4H507.9c-3.7,0-6.7-3.3-6.7-7.3s3-7.3,6.7-7.3h174.8c3.7,0,6.7,3.3,6.7,7.3
				S686.4,63.4,682.8,63.4z"/>
		</g>
		<g>
			<path class="st9" d="M507.9-138.7c-3.7,0-6.7,3.3-6.7,7.3c0,4,3,7.3,6.7,7.3H590v-14.6H507.9z"/>
			<path class="st9" d="M507.9-76.2c-3.7,0-6.7,3.3-6.7,7.3s3,7.3,6.7,7.3H590v-14.6H507.9z"/>
			<path class="st9" d="M501.2-6.4c0,4,3,7.3,6.7,7.3H590v-14.6h-82.1C504.2-13.8,501.2-10.5,501.2-6.4z"/>
			<path class="st9" d="M501.2,56.1c0,4,3,7.3,6.7,7.3H590V48.7h-82.1C504.2,48.7,501.2,52,501.2,56.1z"/>
		</g>
		<g>
			<path id="SVGCleanerId_0_1_" class="st7" d="M536.9,48.2H462l81.6,89.3v-82C543.6,51.5,540.6,48.2,536.9,48.2z"/>
		</g>
	</g>
</g>
<g id="Layer_2">
</g>
</svg>
