<?xml version="1.0" encoding="utf-8"?>
<!-- Generator: Adobe Illustrator 19.0.0, SVG Export Plug-In . SVG Version: 6.00 Build 0)  -->
<svg version="1.1" id="Layer_1" xmlns="http://www.w3.org/2000/svg" xmlns:xlink="http://www.w3.org/1999/xlink" x="0px" y="0px"
	 viewBox="96 11 512 512" style="enable-background:new 96 11 512 512;" xml:space="preserve">
<style type="text/css">
	.st0{fill:#FF8C29;}
	.st1{fill:#FFD1A9;}
	.st2{fill:#365558;}
	.st3{fill:#0295AA;}
	.st4{fill:#FD6A33;}
	.st5{fill:#F0353D;}
</style>
<polygon class="st0" points="350.4,291.7 350.4,330.3 353,330.3 368.2,305.2 368.2,291.7 "/>
<polygon class="st1" points="368.2,291.7 368.2,305.2 376.3,291.7 "/>
<polygon points="367.2,176 368.2,176 368.2,174.3 "/>
<rect x="403.8" y="137.4" class="st2" width="35.6" height="38.6"/>
<polygon class="st2" points="390.4,137.4 368.2,174.3 368.2,176 403.8,176 403.8,137.4 "/>
<polygon class="st2" points="469.1,137.4 439.5,137.4 439.5,176 445.9,176 "/>
<rect x="475.1" y="17.9" class="st3" width="35.6" height="3.6"/>
<polygon class="st3" points="462,17.9 459.9,21.6 475.1,21.6 475.1,17.9 "/>
<polygon class="st3" points="541,17.9 510.8,17.9 510.8,21.6 538.8,21.6 "/>
<polygon class="st2" points="436.7,60.2 413.5,98.8 439.5,98.8 439.5,60.2 "/>
<polygon class="st2" points="475.1,60.2 475.1,98.8 492.3,98.8 510.8,68.1 510.8,60.2 "/>
<rect x="439.5" y="60.2" class="st2" width="35.6" height="38.6"/>
<polygon class="st3" points="510.8,60.2 510.8,68.1 515.6,60.2 "/>
<polygon points="436.7,60.2 439.5,60.2 439.5,55.5 "/>
<rect x="475.1" y="21.6" class="st2" width="35.6" height="38.6"/>
<polygon class="st3" points="459.9,21.6 439.5,55.5 439.5,60.2 475.1,60.2 475.1,21.6 "/>
<polygon class="st3" points="538.8,21.6 510.8,21.6 510.8,60.2 515.6,60.2 "/>
<polygon class="st3" points="439.5,98.8 413.5,98.8 403.8,114.9 403.8,137.4 439.5,137.4 "/>
<polygon class="st3" points="390.4,137.4 403.8,137.4 403.8,114.9 "/>
<polygon class="st3" points="492.3,98.8 475.1,98.8 475.1,127.4 "/>
<polygon class="st2" points="475.1,127.4 475.1,98.8 439.5,98.8 439.5,137.4 469.1,137.4 "/>
<polygon class="st1" points="422.7,214.5 403.8,214.5 403.8,245.9 "/>
<rect x="350.4" y="214.5" class="st1" width="17.8" height="38.6"/>
<polygon class="st0" points="403.8,245.9 403.8,214.5 368.2,214.5 368.2,253.1 399.5,253.1 "/>
<polygon class="st0" points="403.8,176 403.8,214.5 422.7,214.5 439.5,186.7 439.5,176 "/>
<polygon class="st0" points="367.2,176 350.4,204 350.4,214.5 368.2,214.5 368.2,176 "/>
<rect x="368.2" y="176" class="st2" width="35.6" height="38.6"/>
<polygon class="st3" points="439.5,176 439.5,186.7 445.9,176 "/>
<rect x="350.4" y="253.1" class="st1" width="17.8" height="38.6"/>
<polygon class="st4" points="399.5,253.1 368.2,253.1 368.2,291.7 376.3,291.7 "/>
<polygon class="st1" points="353,330.3 350.4,330.3 350.4,334.8 "/>
<path class="st0" d="M439.5,291.7h-17.1c-2.8,2.6-5.4,5.3-8,8.3c-3.9,4.4-7.4,9.1-10.6,14.2v16.2h35.6V291.7z"/>
<path class="st0" d="M395.2,330.3h8.6v-16.2C400.6,319.2,397.7,324.6,395.2,330.3z"/>
<path class="st1" d="M475.1,291.7v38c6.1-3.4,13.3-5.1,21.6-5.1c5.1,0,9.8,0.9,14.1,2.6v-35.5H475.1z"/>
<path class="st4" d="M439.5,291.7v38.6h34.6c0.3-0.2,0.7-0.4,1.1-0.6v-38H439.5z"/>
<path class="st1" d="M582,299.3c-0.8-1.1-1.7-2.1-2.6-3.1c-1.3-1.5-2.7-3-4.2-4.4h-28.9v38.6H582V299.3z"/>
<path class="st0" d="M510.8,291.7v35.5c2.1,0.8,4.1,1.8,6,3.1h29.7v-38.6H510.8z"/>
<path class="st2" d="M582,299.3v31h17.1C594.9,318.6,589.2,308.2,582,299.3z"/>
<path class="st3" d="M575.3,291.7c-8.3-8.4-18-14.9-28.9-19.5v19.5H575.3z"/>
<path class="st2" d="M510.8,263.9c-3.6-0.3-7.4-0.4-11.2-0.4c-8.6,0-16.7,0.7-24.5,2.2v26.1h35.6V263.9z"/>
<path class="st3" d="M422.4,291.7h17.1v-12.8C433.4,282.5,427.7,286.8,422.4,291.7z"/>
<path class="st2" d="M439.5,278.9v12.8h35.6v-26.1C462.1,268.1,450.2,272.5,439.5,278.9z"/>
<path class="st2" d="M546.4,272.2c-10.6-4.5-22.5-7.3-35.6-8.3v27.8h35.6V272.2z"/>
<rect x="546.4" y="368.9" class="st4" width="35.6" height="38.6"/>
<path class="st4" d="M539,368.9c1.3,7.1,2,14.9,2,23.5c0,5.4-0.2,10.4-0.6,15.1h6.1v-38.6H539z"/>
<path class="st0" d="M608,388.6c0-6.8-0.3-13.4-0.9-19.7H582v38.6h25.1C607.7,401.4,608,395.1,608,388.6z"/>
<rect x="403.8" y="368.9" class="st4" width="35.6" height="38.6"/>
<path class="st4" d="M384.5,368.9c-1.4,9.4-2,19.3-2,29.7c0,3,0.1,6,0.2,8.9h21.1v-38.6H384.5z"/>
<path class="st0" d="M450.2,395.2c0-9.8,0.7-18.5,2-26.3h-12.7v38.6h11.1C450.3,403.6,450.2,399.5,450.2,395.2z"/>
<rect x="546.4" y="330.3" class="st0" width="35.6" height="38.6"/>
<path class="st4" d="M516.7,330.3c4.5,2.9,8.5,6.9,12.1,12c4.9,7.1,8.3,15.9,10.2,26.5h7.4v-38.6H516.7z"/>
<path class="st4" d="M599.1,330.3H582v38.6h25.1C605.9,354.7,603.2,341.8,599.1,330.3z"/>
<rect x="403.8" y="330.3" class="st4" width="35.6" height="38.6"/>
<path class="st1" d="M395.2,330.3c-5.1,11.6-8.7,24.5-10.7,38.6h19.3v-38.6H395.2z"/>
<path class="st0" d="M474.1,330.3h-34.6v38.6h12.7C455.5,350,462.7,337.1,474.1,330.3z"/>
<path class="st5" d="M546.4,446.1v38.6h31.4c1.5-1.8,2.9-3.6,4.3-5.5v-33.1H546.4z"/>
<path class="st4" d="M403.8,446.1v32c1.5,2.2,3.1,4.4,4.8,6.6h30.9v-38.6H403.8z"/>
<path class="st5" d="M388.8,446.1c3.5,11.8,8.5,22.5,15,32v-32H388.8z"/>
<path class="st4" d="M510.8,459.4c-4.6,1.6-9.7,2.4-15.4,2.4c-7.8,0-14.5-1.5-20.3-4.4v27.3h35.6V459.4z"/>
<path class="st5" d="M462.1,446.1h-22.7v38.6h35.6v-27.3C470,454.8,465.7,451,462.1,446.1z"/>
<path class="st4" d="M528.4,446.1c-4.6,6.4-10.5,10.8-17.7,13.3v25.3h35.6v-38.6H528.4z"/>
<path class="st0" d="M582,446.1v33.1c7.3-9.8,13-20.9,17.2-33.1H582z"/>
<rect x="403.8" y="407.5" class="st5" width="35.6" height="38.6"/>
<path class="st5" d="M382.7,407.5c0.6,14,2.6,26.9,6.1,38.6h15v-38.6H382.7z"/>
<path class="st4" d="M450.6,407.5h-11.1v38.6h22.7C455.7,437.1,451.8,424.2,450.6,407.5z"/>
<rect x="546.4" y="407.5" class="st1" width="35.6" height="38.6"/>
<path class="st0" d="M540.3,407.5c-1.4,16.7-5.4,29.6-11.9,38.6h18v-38.6H540.3z"/>
<path class="st5" d="M607.2,407.5H582v38.6h17.2C603.3,434.4,606,421.5,607.2,407.5z"/>
<path class="st0" d="M546.4,484.7v25.7c11.1-5.9,21.1-13.9,29.8-23.9c0.5-0.6,1-1.2,1.5-1.8H546.4z"/>
<path class="st5" d="M475.1,484.7V522c5.3,0.7,10.8,1,16.4,1c6.7,0,13.1-0.4,19.2-1.3v-37H475.1z"/>
<path class="st5" d="M408.6,484.7c1.2,1.6,2.5,3.1,3.9,4.6c8,9,17,16.1,27,21.5v-26.1H408.6z"/>
<path class="st4" d="M439.5,484.7v26.1c10.7,5.8,22.6,9.5,35.6,11.1v-37.3H439.5z"/>
<path class="st5" d="M510.8,484.7v37c13-1.8,24.9-5.6,35.6-11.3v-25.7H510.8z"/>
<polygon class="st5" points="225.6,446.1 205,446.1 190,471.2 190,484.7 225.6,484.7 "/>
<polygon class="st0" points="181.9,484.7 190,484.7 190,471.2 "/>
<polygon class="st5" points="283.4,446.1 261.3,446.1 261.3,482.9 "/>
<polygon class="st0" points="261.3,482.9 261.3,446.1 225.6,446.1 225.6,484.7 260.2,484.7 "/>
<polygon class="st0" points="350.4,214.5 344,214.5 332.5,233.7 332.5,253.1 350.4,253.1 "/>
<polygon class="st1" points="320.9,253.1 332.5,253.1 332.5,233.7 "/>
<polygon class="st3" points="344,214.5 350.4,214.5 350.4,204 "/>
<polygon class="st4" points="274.5,330.3 296.9,330.3 296.9,293.1 "/>
<rect x="332.5" y="291.7" class="st4" width="17.8" height="38.6"/>
<polygon class="st0" points="297.7,291.7 296.9,293.1 296.9,330.3 332.5,330.3 332.5,291.7 "/>
<rect x="332.5" y="253.1" class="st4" width="17.8" height="38.6"/>
<polygon class="st0" points="320.9,253.1 297.7,291.7 332.5,291.7 332.5,253.1 "/>
<rect x="261.3" y="368.9" class="st5" width="35.6" height="38.6"/>
<polygon class="st4" points="251.4,368.9 228.2,407.5 261.3,407.5 261.3,368.9 "/>
<polygon class="st4" points="329.8,368.9 296.9,368.9 296.9,407.5 306.6,407.5 "/>
<polygon class="st0" points="296.9,330.3 274.5,330.3 261.3,352.4 261.3,368.9 296.9,368.9 "/>
<polygon class="st4" points="251.4,368.9 261.3,368.9 261.3,352.4 "/>
<polygon class="st0" points="350.4,330.3 332.5,330.3 332.5,364.4 350.4,334.8 "/>
<polygon class="st4" points="296.9,330.3 296.9,368.9 329.8,368.9 332.5,364.4 332.5,330.3 "/>
<polygon class="st4" points="261.3,407.5 261.3,446.1 283.4,446.1 296.9,423.7 296.9,407.5 "/>
<polygon class="st0" points="205,446.1 225.6,446.1 225.6,411.8 "/>
<polygon class="st5" points="228.2,407.5 225.6,411.8 225.6,446.1 261.3,446.1 261.3,407.5 "/>
<polygon class="st0" points="296.9,407.5 296.9,423.7 306.6,407.5 "/>
<rect x="190" y="484.7" class="st5" width="35.6" height="31.3"/>
<polygon class="st5" points="181.9,484.7 163,516.1 190,516.1 190,484.7 "/>
<polygon class="st5" points="260.2,484.7 225.6,484.7 225.6,516.1 241.3,516.1 "/>
<path class="st1" d="M261.3,214.5v38.6h7c7.8-5.1,15-11.4,21.5-18.8c2.5-2.9,4.9-5.9,7.1-9v-10.8H261.3z"/>
<path class="st1" d="M118.7,214.5v13c2.3,3.2,4.7,6.3,7.3,9.2c5.7,6.4,11.8,11.8,18.5,16.4h9.8v-38.6H118.7z"/>
<path class="st4" d="M110.7,214.5c2.4,4.6,5,8.9,7.9,13v-13H110.7z"/>
<rect x="190" y="214.5" class="st4" width="35.6" height="38.6"/>
<rect x="154.3" y="214.5" class="st0" width="35.6" height="38.6"/>
<rect x="225.6" y="214.5" class="st0" width="35.6" height="38.6"/>
<path class="st4" d="M296.9,214.5v10.8c2.5-3.5,4.8-7.1,6.8-10.8H296.9z"/>
<path class="st3" d="M225.6,11.5c-4.1-0.4-8.2-0.5-12.5-0.5c-8.1,0-15.8,0.6-23.1,1.9v8.7h35.6V11.5z"/>
<path class="st3" d="M161.9,21.6h28v-8.7C179.9,14.6,170.6,17.5,161.9,21.6z"/>
<path class="st3" d="M263.7,21.6c-0.8-0.4-1.6-0.8-2.4-1.1v1.1H263.7z"/>
<path class="st3" d="M261.3,20.4c-10.6-4.8-22.5-7.8-35.6-8.9v10h35.6V20.4z"/>
<rect x="118.7" y="60.2" class="st2" width="35.6" height="38.6"/>
<path class="st3" d="M118.3,60.2c-7.4,11.4-13,24.2-16.7,38.6h17.1V60.2H118.3z"/>
<path class="st3" d="M190,60.2v16.8c6-3.2,13.1-4.8,21.2-4.8c5.3,0,10.1,0.8,14.4,2.3V60.2H190z"/>
<path class="st2" d="M154.3,60.2v38.6h17c4.3-10.2,10.5-17.5,18.7-21.8V60.2H154.3z"/>
<rect x="261.3" y="60.2" class="st3" width="35.6" height="38.6"/>
<path class="st2" d="M225.6,60.2v14.3c10.4,3.7,18.1,11.8,22.8,24.3h12.8V60.2H225.6z"/>
<path class="st3" d="M304.2,60.2h-7.3v38.6h21.2C315.2,84.2,310.6,71.4,304.2,60.2z"/>
<path class="st3" d="M154.3,25.6c-9.8,5.7-18.6,12.9-26.4,21.9c-3.4,3.8-6.4,7.9-9.2,12.1v0.6h35.6V25.6z"/>
<path d="M118.3,60.2h0.4v-0.6C118.6,59.8,118.4,60,118.3,60.2z"/>
<rect x="190" y="21.6" class="st2" width="35.6" height="38.6"/>
<path class="st2" d="M161.9,21.6c-2.6,1.2-5.1,2.6-7.6,4v34.6H190V21.6H161.9z"/>
<path class="st2" d="M296.9,49.1c-1.3-1.7-2.7-3.4-4.1-5.1c-8.3-9.5-18-17-29.1-22.4h-2.4v38.6h35.6V49.1z"/>
<rect x="225.6" y="21.6" class="st3" width="35.6" height="38.6"/>
<path class="st3" d="M296.9,49.1v11.1h7.3C302,56.3,299.5,52.6,296.9,49.1z"/>
<rect x="261.3" y="137.4" class="st1" width="35.6" height="38.6"/>
<path class="st2" d="M254.5,137.4c0,0.8,0,1.7,0,2.5c0,14.2-1.4,26.2-4.3,36.1h11.1v-38.6H254.5z"/>
<path class="st2" d="M321.5,137.4h-24.6V176h20.9C320.2,164.1,321.5,151.2,321.5,137.4z"/>
<rect x="118.7" y="137.4" class="st2" width="35.6" height="38.6"/>
<path class="st1" d="M96.2,137.4c-0.1,2.9-0.2,5.8-0.2,8.8c0,10.5,0.8,20.5,2.3,29.8h20.4v-38.6H96.2z"/>
<path class="st3" d="M164.3,142.6c0-1.8,0-3.6,0.1-5.3h-10.1V176h13.8C165.6,166.7,164.3,155.7,164.3,142.6z"/>
<rect x="261.3" y="98.8" class="st2" width="35.6" height="38.6"/>
<path class="st3" d="M248.4,98.8c3.8,10,5.8,22.9,6,38.6h6.8V98.8H248.4z"/>
<path class="st3" d="M321.5,136.7c0-13.7-1.2-26.4-3.4-38h-21.2v38.6h24.6C321.5,137.2,321.5,136.9,321.5,136.7z"/>
<rect x="118.7" y="98.8" class="st2" width="35.6" height="38.6"/>
<path class="st2" d="M101.6,98.8c-3.1,11.8-4.9,24.7-5.4,38.6h22.5V98.8H101.6z"/>
<path class="st3" d="M171.3,98.8h-17v38.6h10.1C164.8,121.7,167.1,108.8,171.3,98.8z"/>
<rect x="118.7" y="176" class="st0" width="35.6" height="38.6"/>
<path class="st2" d="M98.3,176c2.3,14.3,6.5,27.1,12.4,38.6h7.9V176H98.3z"/>
<path class="st0" d="M225.6,206.4c-4.9,1.9-10.5,2.9-16.7,2.9c-7.2,0-13.5-1.3-19-3.9v9.1h35.6V206.4z"/>
<path class="st1" d="M168.2,176h-13.8v38.6H190v-9.1C179.5,200.4,172.2,190.6,168.2,176z"/>
<rect x="261.3" y="176" class="st0" width="35.6" height="38.6"/>
<path class="st1" d="M250.2,176c-4.6,15.7-12.8,25.9-24.6,30.5v8.1h35.6V176H250.2z"/>
<path class="st2" d="M317.8,176h-20.9v38.6h6.8C310.2,203.1,314.8,190.2,317.8,176z"/>
<path class="st4" d="M144.5,253.1c3.2,2.2,6.4,4.1,9.8,5.9v-5.9H144.5z"/>
<path class="st0" d="M190,253.1v16.5c4.9,0.6,9.9,0.9,15.1,0.9c7.1,0,14-0.5,20.5-1.5v-15.8H190z"/>
<path class="st4" d="M154.3,253.1v5.9c10.7,5.6,22.6,9.1,35.6,10.6v-16.5H154.3z"/>
<path class="st4" d="M268.2,253.1h-7v4.2C263.6,256,266,254.6,268.2,253.1z"/>
<path class="st4" d="M261.3,253.1h-35.6V269c13-2,24.9-5.8,35.6-11.7V253.1z"/>
</svg>
