<?xml version="1.0" encoding="utf-8"?>
<!-- Generator: Adobe Illustrator 19.0.0, SVG Export Plug-In . SVG Version: 6.00 Build 0)  -->
<svg version="1.1" id="Layer_1" xmlns="http://www.w3.org/2000/svg" xmlns:xlink="http://www.w3.org/1999/xlink" x="0px" y="0px"
	 viewBox="-49 141 512 512" style="enable-background:new -49 141 512 512;" xml:space="preserve">
<style type="text/css">
	.st0{display:none;}
	.st1{display:inline;}
	.st2{fill:#CDD4D5;}
	.st3{fill:#E6EAEA;}
	.st4{fill:#4ACFD9;}
	.st5{fill:#0295AA;}
	.st6{fill:#FF8C29;}
	.st7{fill:#FD6A33;}
	.st8{fill:#9BAAAB;}
	.st9{fill:#FFFFFF;}
	.st10{fill:#365558;}
	.st11{fill:#FFD1A9;}
</style>
<g id="Layer_3" class="st0">
	<rect x="1000" y="-281.4" class="st1" width="512" height="512.8"/>
</g>
<g>
	<g>
		<g>
			<path class="st2" d="M77.5,228.5c0.1-0.7,0.7-0.9,0.3-1.5c-4.2-3.4-8.1-5.4-12.9-7.9c-19.9-14-34.6-30.1-50.7-46.6
				c-8.5-9.3-16.5-17.4-24.8-26.2l-1-0.5c-1.9-2.3-4.5-6.4-5.4-4.2c-1.5,2.4-3.2,5.6-4.4,9.3c-3.2,5.7-6.4,12.2-10.1,18.1
				c19,21.1,36,45.8,56.2,68.3c9.4,8.9,19.4,16.7,30.3,24.1C62.8,249.9,70.8,239.2,77.5,228.5L77.5,228.5z"/>
		</g>
		<g>
			<path class="st3" d="M29.6,298c3.8-4.4,7.2-9.4,11.4-13.9c5.3-7.8,11.9-14,15.8-21.9c-10-5.6-19.3-13-27.2-20.9
				c-22.5-23.1-39.9-49.7-60-70.5c-5.1,9.3-11,19-17.5,28.3c-2.1,2.8-1.9,5.8,0.5,8.7C-32,225.2-21,247.3-5.8,267.1
				c1.9,2.3,3.4,5.4,6.1,8.1c1.7,1.6,3.4,3.1,4.6,4.9c0.8,0.5,1.8,1.5,2.5,2c1,1.1,1.2,1.8,2.2,2.8c6.2,5,11.5,10.4,18.1,13.7
				C28.4,298.5,29,298.3,29.6,298L29.6,298z"/>
		</g>
		<g>
			<path class="st4" d="M19.6,270.3c2.1,2.1,3.8-1.5,4.7-2.5c1.2-3.3,3.6-6.4,5.8-8.7c4.3-3,6.9-8.3,9.6-12.9
				c-1.1-1.1-2.5-2.6-4.2-3.5c-3.2,4.8-6.3,10.2-10.8,14c-2.7,2.5-4.4,6-6.1,9.5C17.9,267.3,17.9,268.7,19.6,270.3L19.6,270.3z"/>
		</g>
		<g>
			<path class="st4" d="M3,254.4c1.3,0.3,2.5,0.5,2.8-0.3c3.5-7.8,9.4-12.1,13.6-18.6c0.5-1.6,0.9-3.2,1.9-5
				c-1.5-0.9-2.8-2.6-3.9-3.7c-2.3,7.9-8.9,11-13,18.2C3.5,247.7-0.3,249.7,3,254.4L3,254.4z"/>
		</g>
		<g>
			<path class="st4" d="M-13.2,237.3c0.7,0.5,1.4,1,1.4,1c3.2-3.3,4.8-8.2,7.9-11.5c4.2-2.8,6.1-7.8,8.5-12.2
				c-1.3-1.7-2.6-2.7-3.8-4.5c-1.9,4.2-3.7,9.1-7.9,11.9c-2.6,3-4.6,6.6-6.8,11.1C-14.7,234.2-14.7,235.7-13.2,237.3L-13.2,237.3z"
				/>
		</g>
		<g>
			<path class="st4" d="M-27.7,219.4c0.8,1.2,1.9,1.6,2.6,0.6c2.5-8.1,8.5-10.7,12-17.6c0.4-1.6,1.7-3.4,1.2-4.7
				c-0.1-1.4-1.6-3.1-2.9-4.1c-0.2,0.8-0.4,1.5-0.6,2.3c-3.6,6.2-8.5,9.9-12,17.6C-28.1,214.3-30.2,215.1-27.7,219.4L-27.7,219.4z"
				/>
		</g>
		<g>
			<g>
				<path class="st5" d="M53.5,223c-1.5-1.6,1.1-3.2-3.7-4.3c-4.1,8.4-11.3,13.8-14.9,23.6c1.6,0.9,3,2.5,4.2,3.5
					c1-1.8,1.4-3.4,1.9-5C44.5,233.8,51.8,230.6,53.5,223L53.5,223z"/>
			</g>
			<g>
				<path class="st5" d="M34.3,208.5c0.1-0.7,0.3-1.5-0.1-2.1c-0.7-1.2-3.2-3.8-4-1.5c-2.6,6.5-7.8,10.3-11.5,16.5
					c-0.9,1.7-1.3,3.3-2.2,5c1.5,0.9,3,1.9,4.4,3.5C24.4,221.6,30.6,216,34.3,208.5L34.3,208.5z"/>
			</g>
			<g>
				<path class="st5" d="M15.1,188.7c-0.7-0.5-1.5-0.9-1.9-0.8c-2.9,5.1-6.2,9.7-9.9,15c-1,2.5-3.4,3.9-2.8,6.6
					c0.1,1.4,2.2,2.8,3.4,4.6c1.8-5.6,5-10.1,8.3-14C14.7,198,18.3,194,15.1,188.7L15.1,188.7z"/>
			</g>
			<g>
				<path class="st5" d="M-1.8,172.1c-0.7-0.5-0.9-1.1-1.3-1c-0.8,0.2-1,1.7-1.3,3.1c-3.2,7.2-8.5,10.9-11.1,18.8
					c1.3,1.1,2.6,2.1,3.8,3.9c1.8-7.7,6.6-10.5,9.7-16.4c1.1-1.7,2.1-3.4,1.8-6.1C-0.5,173.8-1.5,172.7-1.8,172.1L-1.8,172.1z"/>
			</g>
		</g>
	</g>
</g>
<g>
	<g>
		<g>
			<path class="st2" d="M288.4,479.5c2.5-1.4-1.8-4.2-3.6-6c-20.9-17.7-36.6-35.2-53.3-54.1c-3-3-5.8-6.2-8.9-9.3
				c-1.9-1.9-3.7-4.5-5.6-6.3c-16.4-16.6-32.7-32.5-50.4-49.4c-1.3-1.2-2.5-2.4-2.6-2.3c-1.1,1.2-2.2,2.4-3.3,3.6
				c9.3,14.8,18.4,29.9,27.1,45.1c16.5,30.6,30,61.9,52,91C254.6,485.7,272.7,484.2,288.4,479.5L288.4,479.5z"/>
		</g>
		<g>
			<path class="st3" d="M191,503.5c16.2-4.1,32.9-6.9,48.8-11.7c-15.4-20.2-27-42.1-37.4-64.5c-1.9-3.3-3.5-6.7-5.4-9.9
				c-1.1-2-2.1-4.8-3.3-6.8c-8-13.8-16.1-27.7-24.6-41.3c-2.8-4.6-5.6-9.1-8.3-13.6c-1.1,1.2-2.2,2.4-3.2,3.5
				c-0.2,0.2,0.8,4.4,1.3,6.4c7.8,29,12.2,58.5,17.5,87.6c2.5,17.2,5.1,33.5,12,49.6C188.9,503.3,189.7,503.8,191,503.5L191,503.5z"
				/>
		</g>
		<g>
			<path class="st4" d="M194.6,472.8c0.9,1.3,1.9,2.5,3,2.2c5.2-2.9,11.9-3.2,18.3-3.4c4-0.3,6.5-2.5,10.1-3.4c-1.1-2-2.3-4-3.4-5.9
				c-6.1,2.4-12.9,3.5-19.9,3.8C199.7,466.9,193.8,467,194.6,472.8L194.6,472.8z"/>
		</g>
		<g>
			<path class="st4" d="M186,445.9c0.2,0.7,1.3,2.6,1.7,2.5c4.4-0.5,8.6-2.5,13.1-3c4,0.4,7.8-0.7,10.3-2.9c-1.1-2-2.3-4-3.4-5.9
				c-1.2,1.9-3.1,1.7-5.1,2.3c-5.2,2.3-12.3-0.2-16.6,4C185.7,443.7,186.2,445.1,186,445.9L186,445.9z"/>
		</g>
		<g>
			<path class="st4" d="M177.7,419.7c0.7,1.3,1.5,2.6,2.1,2.4c2.8-2.5,7-2.2,10.9-1.9c2.5,0,4.7-0.7,5-3.9c-0.1-0.7-1.5-2.6-2.6-4.6
				c-3.3,1.9-7.3,2.4-11.5,2.3C180,414.3,176.5,414,177.7,419.7L177.7,419.7z"/>
		</g>
		<g>
			<path class="st4" d="M169.2,392.8c0.2,0.7,1.1,2.6,1.3,2.6c2.2-0.1,4-1.6,6.3-1.7c2.3,0.7,4,0.1,4.9-1.9c-1.1-2-2.3-4-3.4-5.9
				c-0.7,1.9-2.1,2.5-3.8,2.4c-2.3-0.7-4,0.1-5.7,0.7C168.4,389.2,168.5,390.7,169.2,392.8L169.2,392.8z"/>
		</g>
		<g>
			<g>
				<path class="st5" d="M254.2,460.6c1.6-0.4-0.1-2.3-0.7-3.7c-1.1-1.3-3.2-2.3-4.2-2c-4.4,2.7-11.5,3.1-17.8,3.2
					c-3.8,0.3-6.4,1.7-9.1,4c1.1,2,2.3,4,3.4,5.9c3.4-3.2,8.5-3.8,14.6-3.9C245.8,463.6,250.5,463.2,254.2,460.6L254.2,460.6z"/>
			</g>
			<g>
				<path class="st5" d="M233.9,436.8c1.3-0.3-0.4-2.3-1.1-3.6c-0.5-0.6-1.7-1.9-3-2.3c-1.6,0.5-2.6,1.5-4.7,1.4
					c-5.8,1.7-13,0.7-17.6,4.3c1.1,2,2.3,4,3.4,5.9c2.5-2.3,5.8-3.2,9.9-2.8C225.6,439.1,229.7,438,233.9,436.8L233.9,436.8z"/>
			</g>
			<g>
				<path class="st5" d="M211.6,408.8c-1.4-1.1-2.7-2.3-3.3-2.1c-2.1,2.3-6.4,2.1-10.4,1.9c-2.3,0-3.6,1.2-4.7,3.1
					c1.1,2,2.3,4,3.4,5.9c1.1-1.9,2.5-3.1,5-3.1c4.6,0.1,10.5,1.4,11.7-2.9C212.9,410.8,211.8,409.5,211.6,408.8L211.6,408.8z"/>
			</g>
			<g>
				<path class="st5" d="M190.8,385c-0.5-0.6-2.4-2.5-2.5-2.4c-2.3,0.1-3.6,1.5-5.8,1.6c-2.3-0.7-3.7-0.1-4.3,1.8
					c1.1,2,2.3,4,3.4,5.9c0.7-1.9,2.7-1.9,4.2-2.5c0.6-0.2,2.1,0.9,2.7,0.6c1.6-0.6,4.2,0.1,4-2.4
					C192.3,386.9,191.2,385.6,190.8,385L190.8,385z"/>
			</g>
		</g>
	</g>
</g>
<g>
	<path class="st6" d="M94.9,238.5c-0.8,2.6-2.2,3.2-4.4,3.5c-5.4,0.9-10.7,2-16.4,3c0,9.8,0,19.3,0,28.8c6.3,1.4,11.9,2.8,17.6,3.6
		c1.9,0.3,2.6,1.2,3.2,2.6c1.9,4.4,3.8,8.8,5.5,13.2c0.3,0.7,0.1,1.7-0.3,2.4c-2.9,4.6-5.9,9.1-8.9,13.5c-0.7,1.1-1.3,2.1,0,3.4
		c2.1,2.1,3.6,4.6,5.7,6.6c4.2,4,8.4,7.8,12.6,11.7c1.1,1,1.8,0.7,2.8-0.1c4.5-3,8.9-6,13.5-8.8c0.8-0.5,2.1-0.6,2.9-0.3
		c4.4,1.7,8.7,3.6,13.1,5.6c1.1,0.5,2.5,1.5,2.7,2.5c1.1,5.2,1.9,10.4,3,15.5c0.1,0.8,1.2,1.9,2,2c3.1,0.4,6.2,0.6,9.3,0.5
		c1.2,0,2.4-0.1,3.6-0.1v-32.4c-0.1,0-0.2,0-0.3,0c-32.9-0.1-56-27.6-55.7-56.5c0.3-27,21.3-55.4,55.9-55.5c0.1,0,0.1,0,0.1,0v-32.6
		c-0.9-0.1-1.9-0.1-2.8-0.1c-3-0.1-6,0.1-9.1,0.6c-1.1,0.1-2.8,1.1-3,1.9c-1.2,5.2-1.9,10.4-3,15.5c-0.3,1.3-0.7,2.3-2.6,2.9
		c-4.4,1.4-8.4,3.7-12.7,5.4c-1.1,0.4-2.9,0.3-4-0.4c-4.2-2.6-8.3-5.4-12.3-8.1c-1.5-1-2.7-1.7-4.1,0.2c-0.7,1-2.1,1.6-3,2.5
		c-5.1,5.2-10.1,10.4-15.2,15.7c-0.3,0.3-0.1,1.6,0.3,2.2c2.9,4.3,5.8,8.6,8.9,12.9c1,1.4,1,2.6,0.3,4.2
		C98,230.4,96.1,234.3,94.9,238.5z"/>
	<path class="st7" d="M218.1,259.7c0.7,28.6-22.9,55.8-55.8,55.8v32.4c4.2-0.1,8.3-0.3,12.5-0.5c0.9-0.1,2.3-0.9,2.5-1.6
		c0.9-4.2,1.5-8.6,2.5-12.9c0.4-2,1-4.8,2.5-5.6c4.6-2.5,9.5-4,14.4-5.9c0.7-0.3,1.7-0.1,2.4,0.3c4.4,2.7,8.9,5.4,13.1,8.5
		c2.1,1.7,3.2,0.9,4.7-0.4c1.8-1.5,3.6-3,5.2-4.8c4-4.1,7.8-8.3,11.7-12.5c1.2-1.3,0.9-2.2,0-3.6c-3-4.4-6-9-8.9-13.5
		c-0.4-0.6-0.6-1.5-0.3-2.1c1.6-3.7,3.9-7.3,4.9-11.1c0.9-3.8,2.9-5,6.5-5.5c4.9-0.7,9.7-1.9,15-3c0-9.8,0-19.3,0-28.7
		c-6.7-1.4-12.7-2.5-18.7-3.8c-0.6-0.1-1.3-0.9-1.5-1.4c-2.2-5.2-4.2-10.5-6.6-16c3.2-4.6,6.6-9.6,9.9-14.6c0.4-0.6,0.4-1.9,0-2.4
		c-5.2-6.6-10.9-12.9-17.8-17.9c-2-1.5-2.9-1.1-4.5,0c-4,2.7-8,5.4-12.1,7.9c-0.9,0.5-2.3,0.9-3.2,0.5c-4.6-1.8-8.9-4.1-13.6-5.6
		c-1.7-0.5-2.2-1.4-2.5-2.5c-1.2-5.7-2.2-11.5-3.3-17.8c-4.8-0.2-9.7-0.5-14.6-0.7v32.9C196.3,203.5,218.8,231.8,218.1,259.7z"/>
	<path class="st2" d="M161.9,315.6c0.1,0,0.2,0,0.3,0v-25.3h-0.1c-14-0.1-30.6-11.1-30.6-30.7c0-18.1,14.6-30.6,30.6-30.6v-25.4
		c-0.1,0-0.1,0-0.1,0c-34.6,0.1-55.6,28.6-55.9,55.5C105.9,287.9,129,315.4,161.9,315.6z"/>
	<path class="st8" d="M162.3,229c16.8,0,30.7,13.8,30.6,30.7c-0.1,19.3-16.4,30.6-30.6,30.6v25.3c32.9,0,56.5-27.3,55.8-55.9
		c0.7-28-21.7-56.2-55.8-56.1V229C162.2,229,162.3,229,162.3,229z"/>
	<path class="st9" d="M133.1,285.5c1.2,0,2.4,0.5,3.2,1.5c4.6,5.4,11.2,8.5,18.3,8.5c2.3,0,4.2,1.9,4.2,4.2c0,2.3-1.9,4.2-4.2,4.2
		c-9.5,0-18.5-4.2-24.6-11.6c-1.5-1.8-1.3-4.4,0.5-5.9C131.2,285.8,132.1,285.5,133.1,285.5z"/>
	<path class="st5" d="M162.2,180c-0.9,0-1.7-0.1-2.5-0.1c-0.2,0-0.5,0-0.7,0c-0.7,0-1.4,0-2.1,0.1c-0.2,1.1-0.4,2.1-0.6,3.2
		c-0.4,2.2-0.8,4.4-1.3,6.6c-0.2,0.9-0.4,1.8-0.7,2.6c2.5-0.3,5.2-0.5,7.8-0.5L162.2,180L162.2,180z"/>
	<path class="st5" d="M154.5,325.2c0.3,0.7,0.5,1.3,0.7,2.1c0.7,3,1.3,6.2,1.9,9.1c0.1,0.3,0.1,0.6,0.1,0.9c0.5,0,1.1,0,1.6,0h0.5
		c0.9,0,1.9,0,2.9-0.1v-11.6C159.6,325.6,157,325.5,154.5,325.2z"/>
	<path class="st5" d="M111.6,318.1c0.1,0.1,0.1,0.1,0.3,0.3c3-2,5.8-3.8,8.6-5.6c0.5-0.3,1.1-0.7,1.7-0.9c-2.4-1.8-4.6-3.8-6.7-6
		c-2-2.1-3.9-4.2-5.6-6.5c-0.2,0.5-0.5,0.9-0.7,1.4c-1.9,3-4,6.2-6,9.1c0.4,0.5,0.9,1,1.2,1.4C106.6,313.6,109.1,315.8,111.6,318.1z
		"/>
	<path class="st5" d="M109.8,217.7c3.4-4.5,7.4-8.6,11.9-12.1c-0.7-0.3-1.3-0.6-1.9-0.9c-2.8-1.7-5.6-3.5-8.3-5.4
		c-2.6,2.6-5.4,5.5-8.3,8.6c1.7,2.3,3.3,4.8,5,7.3C109,215.9,109.5,216.9,109.8,217.7z"/>
	<path class="st5" d="M84.5,264.8c3,0.7,6,1.3,8.7,1.7c1.1,0.1,2.2,0.4,3.2,0.9c-0.4-3-0.6-6-0.6-9.1c0-2.6,0.2-5.2,0.5-7.8
		c-1.3,0.5-2.6,0.9-4.1,1.1c-2.6,0.5-5.2,0.9-7.8,1.4L84.5,264.8z"/>
	<path class="st10" d="M235.2,265.7c1.9-0.3,3.9-0.7,6-1.1v-12c-3.6-0.7-7-1.4-10.5-2.2c-0.5-0.1-1-0.3-1.5-0.4
		c0.3,2.8,0.5,5.8,0.4,8.6c0.1,2.8-0.1,5.8-0.4,8.6C230.9,266.5,233,266,235.2,265.7z"/>
	<path class="st10" d="M170,330.4l0.1-0.2c0.3-1.4,0.7-3.2,1.5-5.1c-2.9,0.4-5.8,0.6-8.7,0.6h-0.3c-0.1,0-0.2,0-0.3,0v11.6
		c2.2-0.1,4.4-0.1,6.6-0.2C169.2,334.9,169.5,332.7,170,330.4z"/>
	<path class="st10" d="M162.6,191.8h0.4c2.7,0,5.4,0.1,8.1,0.5c-0.3-0.7-0.4-1.4-0.6-2.1c-0.7-3.3-1.3-6.6-1.9-9.9
		c-2.1-0.1-4.2-0.1-6.3-0.3v11.8C162.3,191.8,162.5,191.8,162.6,191.8z"/>
	<path class="st10" d="M215.7,217.4c0,0,1.9-2.7,2.5-3.7c1.4-2.1,2.8-4.2,4.2-6.3c-2.5-2.8-5.2-5.7-8.3-8.3
		c-2.9,1.9-5.8,3.8-8.6,5.6c-0.6,0.4-1.2,0.7-1.9,0.9c2.5,1.9,4.8,3.9,6.9,6.1C212.5,213.5,214.1,215.3,215.7,217.4z"/>
	<path class="st10" d="M207.9,314.2c2.2,1.3,4.4,2.6,6.6,4.1c0.3-0.2,0.5-0.5,0.7-0.7c2.1-2.2,4.1-4.4,6.1-6.6
		c0.4-0.4,0.9-0.9,1.2-1.4c-2-3-4-6.1-5.8-9c-0.2-0.4-0.4-0.7-0.7-1.1c-1.7,2.1-3.4,4.1-5.2,6c-2.2,2.3-4.5,4.3-7,6.2
		c0.5,0.2,0.9,0.5,1.4,0.7C206.1,313.1,206.9,313.6,207.9,314.2z"/>
</g>
<circle class="st3" cx="196.8" cy="596.3" r="18.5"/>
<path class="st10" d="M227.3,649.3L455.4,594c9.9-2.4,9.9-6.4,0-8.8L227.3,530c-4.1-1-9.4-1.5-14.7-1.4v122.3
	C217.9,650.8,223.3,650.3,227.3,649.3z"/>
<path class="st5" d="M-29.9,585.2c-9.9,2.4-9.9,6.4,0,8.8l228.1,55.3c4,1,9.3,1.5,14.5,1.5V528.5c-5.2,0-10.5,0.5-14.5,1.5
	L-29.9,585.2z"/>
<path class="st5" d="M319.7,496.9c0,17.4-47.8,31.5-106.8,31.5c0,0,0,0-0.1,0v7.1v32.7v31.5c0,0,0,0,0.1,0
	c59,0,106.8-14.1,106.8-31.5v-32.7V496.9"/>
<path class="st4" d="M105.9,496.9c0,17.4,47.8,31.5,106.8,31.5c0,0,0,0,0.1,0v7.1v32.7v31.5c0,0,0,0-0.1,0
	c-59,0-106.8-14.1-106.8-31.5v-32.7V496.9"/>
<path class="st11" d="M350.2,653c15.3,0,27.7-12.3,27.8-27.6h-55.6C322.5,640.7,334.9,653,350.2,653z"/>
<path class="st6" d="M350.2,597.4c-15.4,0-27.8,12.4-27.8,27.8c0,0.1,0,0.1,0,0.2H378c0-0.1,0-0.1,0-0.2
	C378,609.8,365.5,597.4,350.2,597.4z"/>
<path class="st11" d="M378,628.5c0,7.3,6,13.3,13.3,13.3l58.7,11.1c7.3,0,13.3-6,13.3-13.3v-14.2h-85.4v3.1L378,628.5L378,628.5z"/>
<path class="st6" d="M450,597.4l-58.7,11.1c-7.3,0-13.3,6-13.3,13.3v3.6h85.4v-14.7C463.4,603.4,457.4,597.4,450,597.4z"/>
<path class="st7" d="M868.7,90.4c-15.9,0-29.6-10.9-33.8-25.7c-4.8-1.1-9-3.6-12.3-7.2h-28.1c-5.4,0-10.6-2.1-14.5-6l-0.1-0.1
	c-3.9-3.9-6-9-6-14.5c0-2.6,0.5-5.1,1.4-7.4c-6.2-3.3-10.5-9.8-10.5-17.3v-2.1c0-7.1,3.8-13.2,9.4-16.7c-0.2-1.2-0.3-2.4-0.3-3.6
	v-2.2c0-10.7,8.7-19.5,19.5-19.5h27.1c3.5-4.7,8.6-8.2,14.5-9.5c4.3-14.6,17.7-25.3,33.7-25.3H925c14,0,35.1,13.4,35.1,30.5l0.1,9.8
	C974.6-20.7,985-6.5,985,10.2S974.6,41,960,46.8v8.5c0,19.3-15.7,35.1-35.1,35.1L868.7,90.4L868.7,90.4z"/>
<path class="st7" d="M540.2,90.4h-56.2c-19.4,0-35.1-15.8-35.1-35.1v-8.5c-14.6-5.7-25-20-25-36.6s10.4-30.8,24.9-36.5l0.1-9.8
	c0-17.1,21.1-30.5,35.1-30.5h56.2c16,0,29.4,10.7,33.7,25.3c5.9,1.3,11,4.8,14.5,9.5h27.1c10.8,0,19.5,8.8,19.5,19.5v2.2
	c0,1.2-0.1,2.4-0.3,3.6c5.6,3.5,9.4,9.6,9.4,16.7v2.1c0,7.5-4.3,14-10.5,17.3c0.9,2.3,1.4,4.8,1.4,7.4c0,5.5-2.1,10.6-6,14.5
	l-0.1,0.1c-3.9,3.9-9.1,6-14.5,6h-28.1c-3.3,3.6-7.5,6.1-12.3,7.2C569.8,79.5,556.1,90.4,540.2,90.4L540.2,90.4z"/>
<g>
	<circle class="st8" cx="451.1" cy="395.3" r="24.2"/>
	<path class="st7" d="M345.9,368.2h-47.3c-2.4,0-4.5,2.1-4.5,4.5v2.2c0,2.4,2.1,4.5,4.5,4.5h47.3c2.5,0,4.5-1.9,4.5-4.5v-2.2
		C350.4,370.3,348.3,368.2,345.9,368.2z"/>
	<path class="st6" d="M336.9,390.7h-47.3c-2.4,0-4.5,2.1-4.5,4.5v2.2c0,2.4,2.1,4.5,4.5,4.5h47.3c2.5,0,4.5-1.9,4.5-4.5v-2.2
		C341.3,392.8,339.3,390.7,336.9,390.7z"/>
	<path class="st7" d="M344.8,416.5h-45.1c-3,0-5.6,2.5-5.6,5.6c0,3,2.5,5.6,5.6,5.6h45.1c3,0,5.6-2.5,5.6-5.6
		C350.4,418.9,348,416.5,344.8,416.5z"/>
	<path class="st4" d="M430.2,333.5H374c-11.2,0-20.1,9.1-20.1,20.1v43.3h96.5v-43.3h-0.2C450.3,342.4,441.2,333.5,430.2,333.5z"/>
	<path class="st5" d="M353.7,440.3c0.2,11.2,9.1,20.2,20.2,20.2h56.2c11.2,0,20.1-9.1,20.1-20.1v-43.5h-96.5L353.7,440.3
		L353.7,440.3z"/>
	<path class="st5" d="M353.7,358.2h-8.1c-5.3,0-9.6,4.3-9.7,9.7v29h27.4l0.2-29C363.5,362.7,359.2,358.4,353.7,358.2z"/>
	<path class="st10" d="M336.2,425.9c0,5.3,4.3,9.6,9.6,9.6h8.1c5.3,0,9.6-4.3,9.7-9.7V397h-27.4L336.2,425.9L336.2,425.9z"/>
</g>
<g>
	<circle class="st8" cx="-35.1" cy="398.7" r="24.2"/>
	<path class="st7" d="M117.4,414.6H70.1c-2.5,0-4.5,1.9-4.5,4.5v2.2c0,2.4,2.1,4.5,4.5,4.5h47.3c2.4,0,4.5-2.1,4.5-4.5v-2.2
		C121.8,416.7,119.8,414.6,117.4,414.6z"/>
	<path class="st6" d="M126.4,392.1H79.1c-2.5,0-4.5,1.9-4.5,4.5v2.2c0,2.4,2.1,4.5,4.5,4.5h47.3c2.4,0,4.5-2.1,4.5-4.5v-2.2
		C130.9,394.2,128.8,392.1,126.4,392.1z"/>
	<path class="st7" d="M116.3,366.3H71.2c-3,0-5.6,2.5-5.6,5.6c0,3.2,2.4,5.6,5.6,5.6h45.1c3,0,5.6-2.5,5.6-5.6
		C121.8,368.9,119.3,366.3,116.3,366.3z"/>
	<path class="st4" d="M-34.4,440.4h0.2c0,11.2,9.1,20.1,20.1,20.1h56.2c11.2,0,20.1-9.1,20.1-20.1v-43.3h-96.5L-34.4,440.4
		L-34.4,440.4z"/>
	<path class="st5" d="M42,333.5h-56.2c-11.2,0-20.1,9.1-20.1,20.1v43.5h96.5v-43.3C62.1,342.6,53.2,333.5,42,333.5z"/>
	<path class="st5" d="M52.5,426.1c0,5.3,4.3,9.6,9.7,9.7h8.1c5.3,0,9.6-4.3,9.7-9.7v-29H52.7L52.5,426.1z"/>
	<path class="st10" d="M70.2,358.5h-8.1c-5.3,0-9.6,4.3-9.7,9.7V397h27.4v-29C79.8,362.8,75.5,358.5,70.2,358.5z"/>
</g>
</svg>
