<svg width="512" height="512" viewBox="0 0 512 512" fill="none" xmlns="http://www.w3.org/2000/svg">
<rect width="146.564" height="348.799" transform="matrix(0.83147 0.55557 0 1 73 13)" fill="#9BAAAB"/>
<rect width="146.564" height="348.799" transform="matrix(0.83147 0.55557 0 1 316.137 13)" fill="#9BAAAB"/>
<rect width="146.564" height="348.799" transform="matrix(-0.83147 0.55557 0 1 316.432 13)" fill="#CDD4D5"/>
<path d="M103.5 89L149.5 184" stroke="#F0353D" stroke-width="28"/>
<path d="M160.5 115L88 160" stroke="#F0353D" stroke-width="28"/>
<path d="M118 182.5C84.4995 288 224.5 486 258 212.5C299.5 57.4994 459.5 198.5 388.5 337.5" stroke="#F0353D" stroke-width="13" stroke-dasharray="10 10"/>
<path d="M418.214 495.077C462.222 488.792 496 451.016 496 405.35C496 359.355 461.766 321.365 417.303 315.484C410.517 271.171 367.066 237 314.5 237C261.934 237 218.483 271.171 211.697 315.484C167.234 321.365 133 359.355 133 405.35C133 451.016 166.778 488.792 210.786 495.077V496H418.214V495.077Z" fill="#365558"/>
<path fill-rule="evenodd" clip-rule="evenodd" d="M315 496H418.214V495.077C462.222 488.791 496 451.016 496 405.35C496 359.355 461.766 321.365 417.303 315.484C410.538 271.311 367.341 237.217 315 237.001V496Z" fill="#0295AA"/>
<path d="M265.938 439.906H228.953L221.922 461H199.492L237.602 358.625H257.148L295.469 461H273.039L265.938 439.906ZM234.648 422.82H260.242L247.375 384.5L234.648 422.82ZM326.125 424.93V461H305.031V358.625H344.969C352.656 358.625 359.406 360.031 365.219 362.844C371.078 365.656 375.578 369.664 378.719 374.867C381.859 380.023 383.43 385.906 383.43 392.516C383.43 402.547 379.984 410.469 373.094 416.281C366.25 422.047 356.758 424.93 344.617 424.93H326.125ZM326.125 407.844H344.969C350.547 407.844 354.789 406.531 357.695 403.906C360.648 401.281 362.125 397.531 362.125 392.656C362.125 387.641 360.648 383.586 357.695 380.492C354.742 377.398 350.664 375.805 345.461 375.711H326.125V407.844ZM420.414 461H399.32V358.625H420.414V461Z" fill="#E6EAEA"/>
<path d="M30.9668 171.493H20.9668V181.493V210.45H12V220.45V254.537V264.537H20.9668V293.493V303.493H30.9668H119.339H124.603L127.582 299.154L144.668 274.276H174.436H184.436V264.276V255.609H194H204V245.609V229.377V219.377H194H184.436V210.711V200.711H174.436H144.668L127.582 175.832L124.603 171.493H119.339H30.9668Z" fill="#365558" stroke="#2E2E2E" stroke-width="20"/>
<rect width="15" height="34" transform="matrix(-1 0 0 1 37 220.493)" fill="#9BAAAB"/>
<path d="M31 181.493H119.7L139 209.493V237.493V265.493L119.7 293.493H31V181.493Z" fill="#4ACFD9"/>
<rect x="139" y="210.493" width="35" height="15" fill="#FD6A33"/>
<rect x="139" y="229.493" width="55" height="16" fill="#FD6A33"/>
<rect x="139" y="249.493" width="35" height="15" fill="#FD6A33"/>
<path fill-rule="evenodd" clip-rule="evenodd" d="M30.9668 237.247V293.494H119.339L138.569 265.37V237.247L30.9668 237.247Z" fill="#0295AA"/>
<path fill-rule="evenodd" clip-rule="evenodd" d="M120 293.493H120.335L139.564 265.37V237.246V209.123L120.335 181H120V293.493Z" fill="#365558"/>
<path d="M480.033 171.493H490.033V181.493V210.45H499V220.45V254.537V264.537H490.033V293.493V303.493H480.033H391.661H386.397L383.418 299.154L366.332 274.276H336.564H326.564V264.276V255.609H317H307V245.609V229.377V219.377H317H326.564V210.711V200.711H336.564H366.332L383.418 175.832L386.397 171.493H391.661H480.033Z" fill="#365558" stroke="#2E2E2E" stroke-width="20"/>
<rect x="474" y="220.493" width="15" height="34" fill="#9BAAAB"/>
<path d="M480 181.493H391.3L372 209.493V237.493V265.493L391.3 293.493H480V181.493Z" fill="#4ACFD9"/>
<rect width="35" height="15" transform="matrix(-1 0 0 1 372 210.493)" fill="#FD6A33"/>
<rect width="55" height="16" transform="matrix(-1 0 0 1 372 229.493)" fill="#FD6A33"/>
<rect width="35" height="15" transform="matrix(-1 0 0 1 372 249.493)" fill="#FD6A33"/>
<path fill-rule="evenodd" clip-rule="evenodd" d="M480.033 237.247V293.494H391.661L372.431 265.37V237.247H480.033Z" fill="#0295AA"/>
<path fill-rule="evenodd" clip-rule="evenodd" d="M391 293.493H390.665L371.436 265.37V237.246V209.123L390.665 181H391V293.493Z" fill="#365558"/>
</svg>
