<?xml version="1.0" encoding="utf-8"?>
<!-- Generator: Adobe Illustrator 19.0.0, SVG Export Plug-In . SVG Version: 6.00 Build 0)  -->
<svg version="1.1" id="Layer_1" xmlns="http://www.w3.org/2000/svg" xmlns:xlink="http://www.w3.org/1999/xlink" x="0px" y="0px"
	 viewBox="-49 141 512 512" style="enable-background:new -49 141 512 512;" xml:space="preserve">
<style type="text/css">
	.st0{display:none;fill:#9BAAAB;}
	.st1{display:none;}
	.st2{display:inline;}
	.st3{fill:#9BAAAB;}
	.st4{fill:#365558;}
	.st5{fill:#0295AA;}
	.st6{fill:#CDD4D5;}
	.st7{fill:#E6EAEA;}
	.st8{fill:#4ACFD9;}
	.st9{fill:#FFFFFF;}
	.st10{fill:#FFD1A9;}
	.st11{fill:#FF8C29;}
	.st12{fill:#FD6A33;}
	.st13{fill:#687F82;}
	.st14{fill:none;stroke:#BCD643;stroke-width:13;stroke-linecap:round;stroke-linejoin:round;stroke-miterlimit:10;}
</style>
<polygon class="st0" points="911,11.5 730,81.5 549,11.5 730.5,-59.5 "/>
<g id="Layer_3_1_" class="st1">
	<polygon class="st2" points="1542,-494.4 1030,-494.4 1030,18.4 1143.9,18.4 1143.9,-374.5 1334,-374.5 1334,18.4 1542,18.4 	"/>
	<rect x="1143.9" y="-374.5" class="st2" width="190.1" height="392.9"/>
</g>
<path id="SVGCleanerId_0_3_" class="st0" d="M1103.1-68h-71.9l78.3,85.8V-61C1109.5-64.9,1106.7-68,1103.1-68z"/>
<path class="st3" d="M276.8,476.5c-0.2-1.2-0.3-2.4-0.3-3.6v-2.2c0-10.7,8.7-19.5,19.5-19.5h14.7l2.8-4.7v-90.1
	c0-1.7-1.2-3.1-2.8-3.1l-54.6,0.1v140h11.3v-0.2C267.4,486,271.2,480,276.8,476.5z"/>
<path class="st4" d="M205.4,353.3c-1.5,0-2.8,1.4-2.8,3v99.6l34.1,37.3H256V353.3H205.4z"/>
<g>
	<path class="st5" d="M221.8,377.8c-1.5,0-2.8,1.4-2.8,3s1.2,3.1,2.8,3.1h34.3v-6.1H221.8z"/>
	<path class="st5" d="M221.8,403.9c-1.5,0-2.8,1.4-2.8,3s1.2,3.1,2.8,3.1h34.3v-6.2L221.8,403.9L221.8,403.9z"/>
	<path class="st5" d="M218.9,433.1c0,1.7,1.2,3.1,2.8,3.1H256V430h-34.3C220.2,430,218.9,431.4,218.9,433.1z"/>
	<path class="st5" d="M218.9,459.2c0,1.7,1.2,3.1,2.8,3.1H256v-6.2h-34.3C220.2,456.2,218.9,457.6,218.9,459.2z"/>
</g>
<path class="st4" d="M293.1,380.9c0-1.7-1.2-3.1-2.8-3.1H256v6.1h34.3C291.9,383.9,293.1,382.6,293.1,380.9z"/>
<path class="st4" d="M293.1,407c0-1.7-1.2-3.1-2.8-3.1v-0.1H256v6.2h34.3C291.9,410,293.1,408.8,293.1,407z"/>
<path class="st4" d="M293.1,433.2c0-1.7-1.2-3.1-2.8-3.1H256v6.2h34.3C291.9,436.2,293.1,434.8,293.1,433.2z"/>
<path class="st4" d="M283.1,456.1H256v6.2h22.4C279.5,459.9,281.1,457.8,283.1,456.1z"/>
<g>
	<path id="SVGCleanerId_0_2_" class="st3" d="M233.9,350.8h-31.3l34.1,37.3v-34.2C236.6,352.2,235.4,350.8,233.9,350.8z"/>
</g>
<path class="st6" d="M284.7,454.8V322.3c0-1.7-1.2-3.1-2.8-3.1h-54.6v140h53C281.5,457.5,283,456,284.7,454.8z"/>
<path class="st6" d="M284.7,456.2v-1.4c-1.7,1.2-3.2,2.7-4.4,4.4h1.7C283.5,459.2,284.7,457.8,284.7,456.2z"/>
<path class="st3" d="M176.6,319.2c-1.5,0-2.8,1.4-2.8,3v99.6l34.1,37.3h19.4V319.2H176.6z"/>
<g>
	<path class="st5" d="M193,343.7c-1.5,0-2.8,1.4-2.8,3c0,1.7,1.2,3.1,2.8,3.1h34.3v-6.1H193z"/>
	<path class="st5" d="M193,369.9c-1.5,0-2.8,1.4-2.8,3s1.2,3.1,2.8,3.1h34.3v-6.2L193,369.9L193,369.9z"/>
	<path class="st5" d="M190.2,399c0,1.7,1.2,3.1,2.8,3.1h34.3v-6.2H193C191.5,395.9,190.2,397.3,190.2,399z"/>
	<path class="st5" d="M190.2,425c0,1.7,1.2,3.1,2.8,3.1h34.3V422H193C191.5,422,190.2,423.4,190.2,425z"/>
</g>
<g>
	<path class="st5" d="M264.4,346.8c0-1.7-1.2-3.1-2.8-3.1h-34.3v6.1h34.3C263.2,349.8,264.4,348.5,264.4,346.8z"/>
	<path class="st5" d="M264.4,372.9c0-1.7-1.2-3.1-2.8-3.1l0,0h-34.3v6.2h34.3C263.2,376,264.4,374.6,264.4,372.9z"/>
	<path class="st5" d="M264.4,399c0-1.7-1.2-3.1-2.8-3.1h-34.3v6.2h34.3C263.2,402,264.4,400.7,264.4,399z"/>
	<path class="st5" d="M264.4,425.1c0-1.7-1.2-3-2.8-3.1h-34.3v6.2h34.3C263.2,428.1,264.4,426.8,264.4,425.1z"/>
</g>
<g>
	<path id="SVGCleanerId_0_5_" class="st3" d="M205.1,373.4h-31.3l34.1,37.3v-34.3C207.9,374.8,206.7,373.4,205.1,373.4z"/>
</g>
<path class="st7" d="M256,474.5V340.7c0-1.7-1.2-3.1-2.8-3.1l-54.6,0.1v139.9h54.6C254.8,477.6,256,476.2,256,474.5z"/>
<path class="st6" d="M147.9,337.6c-1.5,0-2.8,1.4-2.8,3v99.6l34.1,37.3h19.4V337.6H147.9z"/>
<g>
	<path class="st5" d="M164.3,362.1c-1.5,0-2.8,1.4-2.8,3c0,1.7,1.2,3.1,2.8,3.1h34.3v-6.1H164.3z"/>
	<path class="st5" d="M164.3,388.2c-1.5,0-2.8,1.4-2.8,3s1.2,3.1,2.8,3.1h34.3v-6.2L164.3,388.2L164.3,388.2z"/>
	<path class="st5" d="M161.5,417.4c0,1.7,1.2,3.1,2.8,3.1h34.3v-6.2h-34.3C162.8,414.3,161.5,415.7,161.5,417.4z"/>
	<path class="st5" d="M161.5,443.4c0,1.7,1.2,3.1,2.8,3.1h34.3v-6.2h-34.3C162.8,440.4,161.5,441.8,161.5,443.4z"/>
</g>
<g>
	<path class="st8" d="M235.7,364.9c0-1.7-1.2-3.1-2.8-3.1h-34.3v6.1h34.3C234.4,367.9,235.7,366.5,235.7,364.9z"/>
	<path class="st8" d="M235.7,390.9c0-1.7-1.2-3.1-2.8-3.1v-0.1l-34.3,0.1v6.2h34.3C234.4,394,235.7,392.6,235.7,390.9z"/>
	<path class="st8" d="M235.7,417.1c0-1.7-1.2-3.1-2.8-3.1h-34.3v6.2h34.3C234.4,420.1,235.7,418.8,235.7,417.1z"/>
	<path class="st8" d="M235.7,443.1c0-1.7-1.2-3-2.8-3.1h-34.3v6.2h34.3C234.4,446.2,235.7,444.8,235.7,443.1z"/>
</g>
<g>
	<path class="st3" d="M176.4,395.2h-31.3l34.1,37.3v-34.3C179.2,396.5,177.9,395.1,176.4,395.2z"/>
</g>
<path class="st9" d="M221.3,505.1V371.3c0-1.7-1.2-3.1-2.8-3.1l-54.7,0.1v139.9h54.6C220,508.2,221.3,506.8,221.3,505.1z"/>
<path class="st7" d="M113.1,368.2c-1.5,0-2.8,1.4-2.8,3v80h7.7c10.8,0,19.5,8.8,19.5,19.5v2.2c0,1.2-0.1,2.4-0.3,3.6
	c5.6,3.5,9.4,9.6,9.4,16.7v2.1c0,4.2-1.4,8.1-3.6,11.3l1.4,1.6h19.4V368.2H113.1z"/>
<path class="st5" d="M129.5,392.8c-1.5,0-2.8,1.4-2.8,3c0,1.7,1.2,3.1,2.8,3.1h34.3v-6.1H129.5z"/>
<path class="st5" d="M129.5,418.9c-1.5,0-2.8,1.4-2.8,3c0,1.6,1.2,3.1,2.8,3.1h34.3v-6.2L129.5,418.9z"/>
<path class="st5" d="M129.6,444.9c-1.7,0.1-2.8,1.4-2.8,3.1s1.2,3.1,2.8,3.1h34.3v-6.2H129.6z"/>
<path class="st5" d="M163.9,471h-26.4v1.8c0,1.2-0.1,2.4-0.3,3.6c0.4,0.2,0.7,0.5,1.1,0.8h25.6V471z"/>
<g>
	<path class="st8" d="M200.9,395.8c0-1.7-1.2-3.1-2.8-3.1h-34.3v6.1h34.3C199.7,398.9,200.9,397.5,200.9,395.8z"/>
	<path class="st8" d="M200.9,421.9c0-1.7-1.2-3.1-2.8-3.1v-0.1h-34.3v6.2h34.3C199.7,425,200.9,423.6,200.9,421.9z"/>
	<path class="st8" d="M200.9,448.1c0-1.7-1.2-3.1-2.8-3.1h-34.3v6.2h34.3C199.7,451.1,200.9,449.8,200.9,448.1z"/>
	<path class="st8" d="M200.9,474.1c0-1.7-1.2-3-2.8-3.1h-34.3v6.2h34.3C199.7,477.1,200.9,475.8,200.9,474.1z"/>
</g>
<path class="st8" d="M277.9,512.5c-6.2-3.3-10.5-9.8-10.5-17.3v-2.1c0-7.1,3.8-13.2,9.4-16.7c-0.2-1.2-0.3-2.4-0.3-3.6v-2.2
	c0-10.7,8.7-19.5,19.5-19.5h23.9L329,435c0-9-7.4-16.4-16.4-16.4h-109v145.1h55.6c16.5,0,16.5-19.4,16.5-34.3l1.8-3.2
	c-0.6-2-1-4.1-1-6.3C276.5,517.3,277,514.8,277.9,512.5z"/>
<path class="st5" d="M97.3,418.6c-9.1,0-16.5,7.4-16.5,16.5l3.8,10.1c2.4,1.6,4.6,3.7,6.3,6H118c10.8,0,19.5,8.8,19.5,19.5v2.2
	c0,1.2-0.1,2.4-0.3,3.6c5.6,3.5,9.4,9.6,9.4,16.7v2.1c0,7.5-4.3,14-10.5,17.3c0.9,2.3,1.4,4.8,1.4,7.4c0,5.5-2.1,10.6-6,14.5
	l-0.1,0.1c-3.8,3.8-8.9,5.9-14.3,6c1.5,11.3,5.8,23.2,15.8,23.2h70.7V418.6H97.3z"/>
<path class="st10" d="M158.3,538.9c-13.6,0-24.7,11-24.7,24.7s11,24.7,24.7,24.7s24.7-11,24.7-24.7S171.9,538.9,158.3,538.9z"/>
<circle class="st11" cx="158.3" cy="563.6" r="14.1"/>
<path class="st10" d="M236.6,588.3c-13.6,0-24.7-11-24.7-24.7s11-24.7,24.7-24.7s24.7,11,24.7,24.7S250.2,588.3,236.6,588.3z"/>
<circle class="st11" cx="236.6" cy="563.6" r="14.1"/>
<path class="st11" d="M276.5,470.7c0-9,6.2-16.7,14.6-18.9h-91v22.8h76.5c0-0.6-0.1-1.2-0.1-1.8V470.7z"/>
<path class="st12" d="M137.5,470.7v2.2c0,0.6,0,1.2-0.1,1.8h66.2v-22.8h-80.7C131.3,454,137.5,461.6,137.5,470.7z"/>
<path class="st11" d="M452.6,612.8H-38.7c-5.6,0-10.3-2.8-10.3-6.4v-11.5c0-3.5,4.6-6.4,10.3-6.4h491.4c5.6,0,10.3,2.8,10.3,6.4
	v11.5C462.9,609.9,458.3,612.8,452.6,612.8z"/>
<g>
	<path class="st13" d="M0.4,633h-21c-2.2,0-4-1.8-4-4v-12.4c0-2.2,1.8-4,4-4h21c2.2,0,4,1.8,4,4V629C4.3,631.2,2.6,633,0.4,633z"/>
	<path class="st13" d="M72.4,633H51.5c-2.2,0-4-1.8-4-4v-12.4c0-2.2,1.8-4,4-4h20.9c2.2,0,4,1.8,4,4V629
		C76.3,631.2,74.5,633,72.4,633z"/>
	<path class="st13" d="M144.4,633h-20.9c-2.2,0-4-1.8-4-4v-12.4c0-2.2,1.8-4,4-4h20.9c2.2,0,4,1.8,4,4V629
		C148.3,631.2,146.6,633,144.4,633z"/>
	<path class="st13" d="M216.4,633h-21c-2.2,0-4-1.8-4-4v-12.4c0-2.2,1.8-4,4-4h21c2.2,0,4,1.8,4,4V629
		C220.3,631.2,218.6,633,216.4,633z"/>
</g>
<path class="st4" d="M192.1,162.7l-233.5,63.9c-10.1,2.8-10.1,7.3,0,10.1l233.5,63.9c4.1,1.1,9.6,1.7,15.1,1.7V161
	C201.7,161,196.2,161.6,192.1,162.7z"/>
<path class="st5" d="M455.4,236.6c10.1-2.8,10.1-7.3,0-10.1l-233.5-63.8c-4.1-1.1-9.4-1.7-14.8-1.7v141.2c5.4,0,10.7-0.6,14.8-1.7
	L455.4,236.6z"/>
<path class="st5" d="M97.5,343.7c0-22.1,48.9-40,109.3-40h0.1v-9.1v-41.4v-40h-0.1c-60.4,0-109.3,17.9-109.3,40v41.4L97.5,343.7"/>
<path class="st8" d="M316.4,343.7c0-22.1-48.9-40-109.3-40H207v-9.1v-41.4v-40h0.1c60.4,0,109.3,17.9,109.3,40v41.4L316.4,343.7"/>
<path class="st10" d="M386,329.6c0,15.6,12.6,28.3,28.2,28.4v-56.9C398.6,301.3,386,314,386,329.6z"/>
<path class="st11" d="M442.9,329.6c0-15.7-12.7-28.5-28.5-28.5c-0.1,0-0.1,0-0.2,0V358c0.1,0,0.1,0,0.2,0
	C430.2,358.1,442.9,345.3,442.9,329.6z"/>
<line class="st14" x1="414.4" y1="301.2" x2="414.2" y2="209.1"/>
<path class="st10" d="M414.3,358.1H411c-7.5,0-13.7,6.1-13.7,13.7l-8.4,44.5h25.4V358.1z"/>
<path class="st11" d="M440.5,419.4l-9-47.7c0-7.5-6.1-13.7-13.7-13.7h-3.6v58.3h13.3C431.5,416.3,436.1,417.4,440.5,419.4z"/>
<path class="st13" d="M291.7,633h-21c-2.2,0-4-1.8-4-4v-12.4c0-2.2,1.8-4,4-4h21c2.2,0,4,1.8,4,4V629
	C295.6,631.2,293.9,633,291.7,633z"/>
<path class="st13" d="M363.7,633h-20.9c-2.2,0-4-1.8-4-4v-12.4c0-2.2,1.8-4,4-4h20.9c2.2,0,4,1.8,4,4V629
	C367.7,631.2,365.9,633,363.7,633z"/>
<path class="st13" d="M435.8,633h-20.9c-2.2,0-4-1.8-4-4v-12.4c0-2.2,1.8-4,4-4h20.9c2.2,0,4,1.8,4,4V629
	C439.7,631.2,437.9,633,435.8,633z"/>
<g>
	<circle class="st3" cx="450.1" cy="495.3" r="24.2"/>
	<path class="st12" d="M344.9,468.2h-47.3c-2.4,0-4.5,2.1-4.5,4.5v2.2c0,2.4,2.1,4.5,4.5,4.5h47.3c2.5,0,4.5-1.9,4.5-4.5v-2.2
		C349.4,470.3,347.3,468.2,344.9,468.2z"/>
	<path class="st11" d="M335.9,490.7h-47.3c-2.4,0-4.5,2.1-4.5,4.5v2.2c0,2.4,2.1,4.5,4.5,4.5h47.3c2.5,0,4.5-1.9,4.5-4.5v-2.2
		C340.3,492.8,338.3,490.7,335.9,490.7z"/>
	<path class="st12" d="M343.8,516.5h-45.1c-3,0-5.6,2.5-5.6,5.6c0,3,2.5,5.6,5.6,5.6h45.1c3,0,5.6-2.5,5.6-5.6
		C349.4,518.9,347,516.5,343.8,516.5z"/>
	<path class="st8" d="M429.2,433.5H373c-11.2,0-20.1,9.1-20.1,20.1v43.3h96.5v-43.3h-0.2C449.3,442.4,440.2,433.5,429.2,433.5z"/>
	<path class="st5" d="M352.7,540.3c0.2,11.2,9.1,20.2,20.2,20.2h56.2c11.2,0,20.1-9.1,20.1-20.1v-43.5h-96.5L352.7,540.3
		L352.7,540.3z"/>
	<path class="st5" d="M352.7,458.2h-8.1c-5.3,0-9.6,4.3-9.7,9.7v29h27.4l0.2-29C362.5,462.7,358.2,458.4,352.7,458.2z"/>
	<path class="st4" d="M335.2,525.9c0,5.3,4.3,9.6,9.6,9.6h8.1c5.3,0,9.6-4.3,9.7-9.7V497h-27.4L335.2,525.9L335.2,525.9z"/>
</g>
<g>
	<circle class="st3" cx="-36.1" cy="498.7" r="24.2"/>
	<path class="st12" d="M116.4,514.6H69.1c-2.5,0-4.5,1.9-4.5,4.5v2.2c0,2.4,2.1,4.5,4.5,4.5h47.3c2.4,0,4.5-2.1,4.5-4.5v-2.2
		C120.8,516.7,118.8,514.6,116.4,514.6z"/>
	<path class="st11" d="M125.4,492.1H78.1c-2.5,0-4.5,1.9-4.5,4.5v2.2c0,2.4,2.1,4.5,4.5,4.5h47.3c2.4,0,4.5-2.1,4.5-4.5v-2.2
		C129.9,494.2,127.8,492.1,125.4,492.1z"/>
	<path class="st12" d="M115.3,466.3H70.2c-3,0-5.6,2.5-5.6,5.6c0,3.2,2.4,5.6,5.6,5.6h45.1c3,0,5.6-2.5,5.6-5.6
		C120.8,468.9,118.3,466.3,115.3,466.3z"/>
	<path class="st8" d="M-35.4,540.4h0.2c0,11.2,9.1,20.1,20.1,20.1h56.2c11.2,0,20.1-9.1,20.1-20.1v-43.3h-96.5L-35.4,540.4
		L-35.4,540.4z"/>
	<path class="st5" d="M41,433.5h-56.2c-11.2,0-20.1,9.1-20.1,20.1v43.5h96.5v-43.3C61.1,442.6,52.2,433.5,41,433.5z"/>
	<path class="st5" d="M51.5,526.1c0,5.3,4.3,9.6,9.7,9.7h8.1c5.3,0,9.6-4.3,9.7-9.7v-29H51.7L51.5,526.1z"/>
	<path class="st4" d="M69.2,458.5h-8.1c-5.3,0-9.6,4.3-9.7,9.7V497h27.4v-29C78.8,462.8,74.5,458.5,69.2,458.5z"/>
</g>
</svg>
