<?xml version="1.0" encoding="utf-8"?>
<!-- Generator: Adobe Illustrator 19.0.0, SVG Export Plug-In . SVG Version: 6.00 Build 0)  -->
<svg version="1.1" id="Layer_1" xmlns="http://www.w3.org/2000/svg" xmlns:xlink="http://www.w3.org/1999/xlink" x="0px" y="0px"
	 viewBox="96 11 512 512" style="enable-background:new 96 11 512 512;" xml:space="preserve">
<style type="text/css">
	.st0{display:none;fill:#FFD1A9;}
	.st1{display:none;fill:#FF8C29;}
	.st2{display:none;fill:#FFFFFF;}
	.st3{display:none;fill:#F0353D;}
	.st4{fill:#FD6A33;}
	.st5{fill:#F0353D;}
	.st6{fill:#FF8C29;}
	.st7{fill:none;stroke:#FD6A33;stroke-width:15;stroke-linecap:round;stroke-miterlimit:10;}
	.st8{fill:#E6EAEA;}
	.st9{fill:#FFFFFF;}
	.st10{fill:none;stroke:#F0353D;stroke-width:15;stroke-linecap:round;stroke-miterlimit:10;}
	.st11{fill:#9BAAAB;}
	.st12{fill:#4ACFD9;}
	.st13{fill:#0295AA;}
	.st14{fill:#365558;}
</style>
<path class="st0" d="M543,174.1c-63.4,0-114.9,51.5-114.9,114.9S479.6,403.9,543,403.9S657.9,352.4,657.9,289S606.4,174.1,543,174.1
	z"/>
<path class="st1" d="M428.1,289c0,63.4,51.5,114.9,114.9,114.9V174.1C479.6,174.1,428.1,225.6,428.1,289z"/>
<path class="st2" d="M615.6,271.4c-3.3,0-6.4-2.1-7.6-5.3c-5.9-16.7-18.4-30.9-34.4-38.8c-4-2-5.6-6.8-3.6-10.7
	c2-4,6.8-5.6,10.7-3.6c19.6,9.8,35.1,27.2,42.4,47.8c1.5,4.2-0.7,8.8-4.9,10.2C617.4,271.2,616.5,271.4,615.6,271.4z"/>
<path class="st3" d="M586.4,281.8l-65-50.4c-2.4-1.9-5.7-2.2-8.4-0.9c-2.7,1.3-4.5,4.1-4.5,7.2v102.6c0,3.1,1.8,5.9,4.6,7.2
	c1.1,0.5,2.3,0.8,3.5,0.8c1.8,0,3.6-0.6,5-1.8l65-52.2c1.9-1.5,3-3.9,3-6.3C589.5,285.6,588.3,283.3,586.4,281.8z"/>
<path class="st4" d="M486,319.8c-4.8-1.1-9-3.6-12.3-7.2h-28.1c-5.4,0-10.6-2.1-14.5-6l-0.1-0.1c-3.9-3.9-6-9-6-14.5
	c0-2.6,0.5-5.1,1.4-7.4c-6.2-3.3-10.5-9.8-10.5-17.3v-2.2c0-7.1,3.8-13.2,9.4-16.7c-0.2-1.2-0.3-2.4-0.3-3.6v-2.2
	c0-10.7,8.7-19.5,19.5-19.5h27.1c3.5-4.7,8.6-8.2,14.5-9.5c4.3-14.6,17.7-25.3,33.7-25.3h56.2c4,0,8.7,1.1,13.2,3.1
	c1.7-16.9,2.7-34.5,2.7-52.8c0-19.2-11.6-36.8-29.5-44.2l-192-80c-6.2-2.6-12.5-3.8-19-3.8v512c6.3,0.2,12.8-1.2,18.8-3.8
	c53.8-22.4,127.5-79.4,174.9-173.7h-25.4C503.9,345.5,490.3,334.6,486,319.8z"/>
<path class="st5" d="M333.7,14.7l-192,80C123.8,102,112,119.5,112,139c0,18.2,1,35.8,2.8,52.9c4.6-2.2,9.8-3.5,15.3-3.5h56.2
	c15.9,0,29.6,10.9,33.8,25.7c4.8,1.1,9,3.6,12.3,7.2h28.1c5.4,0,10.6,2.1,14.5,6l0.1,0.1c3.9,3.9,6,9,6,14.5c0,2.6-0.5,5.1-1.4,7.4
	c6.2,3.3,10.5,9.8,10.5,17.3v2.2c0,7.1-3.8,13.2-9.4,16.7c0.2,1.2,0.3,2.4,0.3,3.6v2.2c0,10.7-8.7,19.5-19.5,19.5h-27.1
	c-3.5,4.7-8.6,8.2-14.5,9.5c-4.3,14.6-17.7,25.3-33.7,25.3h-27.4c43.2,86.9,110.2,147.2,174.6,173.9c5.8,2.4,11.8,3.6,18,3.8v-512
	C345.3,11.1,339.3,12.3,333.7,14.7z"/>
<path class="st6" d="M486,319.8c-4.8-1.1-9-3.6-12.3-7.2h-28.1c-5.4,0-10.6-2.1-14.5-6l-0.1-0.1c-3.9-3.9-6-9-6-14.5
	c0-2.6,0.5-5.1,1.4-7.4c-6.2-3.3-10.5-9.8-10.5-17.3v-2.2c0-7.1,3.8-13.2,9.4-16.7c-0.2-1.2-0.3-2.4-0.3-3.6v-2.2
	c0-10.7,8.7-19.5,19.5-19.5h27.1c3.5-4.7,8.6-8.2,14.5-9.5c4.3-14.6,17.7-25.3,33.7-25.3h39.5c1.6-16.1,2.5-32.6,2.5-49.3
	c0.2-7.5-4.1-14-10.8-16.8l-192-80c-2.2-0.9-4.6-1.4-7-1.4c-0.2,0-0.3,0-0.5,0v452.1c0.2,0,0.3,0,0.3,0c2.4,0,4.6-0.5,6.9-1.4
	c46.1-19.2,94.6-60.5,130-110.1c8.4-11.8,16.1-24.2,23.2-37.1C499.5,341.6,489.6,332.1,486,319.8z"/>
<path class="st7" d="M469.3,370c-23.5,33.1-52.8,61.7-82.9,81.5"/>
<path class="st4" d="M345.1,42.4l-192,80c-6.7,2.7-11.1,9.3-11.1,16.6c0,17,0.9,33.4,2.6,49.4h41.7c15.9,0,29.6,10.9,33.8,25.7
	c4.8,1.1,9,3.6,12.3,7.2h28.1c5.4,0,10.6,2.1,14.5,6l0.1,0.1c3.9,3.9,6,9,6,14.5c0,2.6-0.5,5.1-1.4,7.4c6.2,3.3,10.5,9.8,10.5,17.3
	v2.2c0,7.1-3.8,13.2-9.4,16.7c0.2,1.2,0.3,2.4,0.3,3.6v2.2c0,10.7-8.7,19.5-19.5,19.5h-27.1c-3.5,4.7-8.6,8.2-14.5,9.5
	c-3.7,12.6-14.3,22.4-27.5,24.7c39.7,73,97.3,123.8,152.5,146.7c2.1,0.9,4.3,1.4,6.5,1.4V41C349.3,41,347,41.6,345.1,42.4z"/>
<path class="st8" d="M232.4,221.2h16.5l33.1-33.1c6.3-6.3,6.3-16.8,0-23.1c-6.3-6.3-16.8-6.3-23.1,0l-41.7,41.7
	c1.3,2.3,2.3,4.7,3,7.3C224.9,215.2,229.2,217.7,232.4,221.2z"/>
<path class="st8" d="M234.5,310.7c-0.7,1-1.6,2-2.5,2.8l26.8,26.8c6.3,6.3,16.8,6.3,23.1,0c6.3-6.3,6.3-16.8,0-23.1l-9.7-9.7
	c-3.1,2-6.7,3.2-10.6,3.2H234.5z"/>
<path class="st8" d="M294.4,234.5c-5.3,0-10,2.2-13.4,5.6c0,0.6,0.1,1.1,0.1,1.7c0,2.6-0.5,5.1-1.4,7.4c6.2,3.3,10.5,9.8,10.5,17.3
	v2.2c0,1-0.1,1.9-0.2,2.8c1.4,0.4,2.9,0.6,4.5,0.6c10.4,0,18.8-8.4,18.8-18.8C313.3,242.9,304.8,234.5,294.4,234.5z"/>
<path class="st9" d="M351.7,234.5v37.7c10.4,0,18.8-8.4,18.8-18.8C370.7,242.8,362.3,234.5,351.7,234.5z"/>
<path class="st8" d="M333,253.3c0,10.4,8.4,18.8,18.8,18.8v-37.7C341.4,234.5,333,242.8,333,253.3z"/>
<path class="st9" d="M416,265.2c0-7.1,3.8-13.2,9.4-16.7c-0.2-1.2-0.3-2.4-0.3-3.6v-2.2c0-0.7,0-1.3,0.1-1.9
	c-3.5-3.9-8.5-6.3-14-6.3c-10.4,0-18.8,8.4-18.8,18.8c0,10.4,8.4,18.8,18.8,18.8c1.8,0,3.6-0.3,5.3-0.8c-0.3-1.3-0.4-2.6-0.4-4
	V265.2z"/>
<path class="st9" d="M432.3,307.7l-11.6,11.6c-5.3,5.3-5.3,13.9,0,19.2l3.9,3.9c5.3,5.3,13.9,5.3,19.2,0l29.7-29.7h-27.9
	C440.7,312.7,436,310.9,432.3,307.7z"/>
<path class="st9" d="M486.2,213.8c0.6-2.1,1.4-4.1,2.4-6L443.8,163c-5.3-5.3-13.9-5.3-19.2,0l-3.9,3.9c-5.3,5.3-5.3,13.9,0,19.2
	l37.1,37.1h13.9C475.1,218.5,480.3,215.1,486.2,213.8z"/>
<line class="st10" x1="175.7" y1="138.5" x2="327.2" y2="75.5"/>
<g>
	<circle class="st11" cx="597" cy="265.3" r="24.2"/>
	<path class="st4" d="M491.8,238.2h-47.3c-2.4,0-4.5,2.1-4.5,4.5v2.2c0,2.4,2.1,4.5,4.5,4.5h47.3c2.5,0,4.5-1.9,4.5-4.5v-2.2
		C496.3,240.3,494.2,238.2,491.8,238.2z"/>
	<path class="st6" d="M482.7,260.7h-47.3c-2.4,0-4.5,2.1-4.5,4.5v2.2c0,2.4,2.1,4.5,4.5,4.5h47.3c2.5,0,4.5-1.9,4.5-4.5v-2.2
		C487.2,262.8,485.1,260.7,482.7,260.7z"/>
	<path class="st4" d="M490.7,286.5h-45.1c-3,0-5.6,2.5-5.6,5.6c0,3,2.5,5.6,5.6,5.6h45.1c3,0,5.6-2.5,5.6-5.6
		C496.3,288.9,493.9,286.5,490.7,286.5z"/>
	<path class="st12" d="M576.1,203.5h-56.2c-11.2,0-20.1,9.1-20.1,20.1v43.3h96.5v-43.3h-0.2C596.2,212.4,587.1,203.5,576.1,203.5z"
		/>
	<path class="st13" d="M499.6,310.3c0.2,11.2,9.1,20.2,20.2,20.2h56.2c11.2,0,20.1-9.1,20.1-20.1v-43.5h-96.5V310.3z"/>
	<path class="st13" d="M499.6,228.2h-8.1c-5.3,0-9.6,4.3-9.7,9.7v29h27.4l0.2-29C509.3,232.7,505,228.4,499.6,228.2z"/>
	<path class="st14" d="M482.1,295.9c0,5.3,4.3,9.6,9.6,9.6h8.1c5.3,0,9.6-4.3,9.7-9.7v-28.8h-27.4V295.9z"/>
</g>
<g>
	<circle class="st11" cx="109.2" cy="268.6" r="24.2"/>
	<path class="st4" d="M261.6,284.5h-47.3c-2.5,0-4.5,1.9-4.5,4.5v2.2c0,2.4,2.1,4.5,4.5,4.5h47.3c2.4,0,4.5-2.1,4.5-4.5V289
		C266.1,286.6,264,284.5,261.6,284.5z"/>
	<path class="st6" d="M270.7,262.1h-47.3c-2.5,0-4.5,1.9-4.5,4.5v2.2c0,2.4,2.1,4.5,4.5,4.5h47.3c2.4,0,4.5-2.1,4.5-4.5v-2.2
		C275.2,264.1,273.1,262.1,270.7,262.1z"/>
	<path class="st4" d="M260.5,236.2h-45.1c-3,0-5.6,2.5-5.6,5.6c0,3.2,2.4,5.6,5.6,5.6h45.1c3,0,5.6-2.5,5.6-5.6
		C266.1,238.8,263.5,236.2,260.5,236.2z"/>
	<path class="st12" d="M109.8,310.3h0.2c0,11.2,9.1,20.1,20.1,20.1h56.2c11.2,0,20.1-9.1,20.1-20.1V267h-96.5V310.3z"/>
	<path class="st13" d="M186.3,203.4H130c-11.2,0-20.1,9.1-20.1,20.1V267h96.5v-43.3C206.4,212.5,197.4,203.4,186.3,203.4z"/>
	<path class="st13" d="M196.8,296c0,5.3,4.3,9.6,9.7,9.7h8.1c5.3,0,9.6-4.3,9.7-9.7v-29H197L196.8,296z"/>
	<path class="st14" d="M214.5,228.4h-8.1c-5.3,0-9.6,4.3-9.7,9.7V267H224v-29C224,232.7,219.7,228.4,214.5,228.4z"/>
</g>
<g>
	<circle class="st11" cx="-170" cy="265.2" r="24.2"/>
	<path class="st4" d="M-275.2,249.3h-47.3c-2.4,0-4.5-2.1-4.5-4.5v-2.2c0-2.4,2.1-4.5,4.5-4.5h47.3c2.4,0,4.5,2.1,4.5,4.5v2.2
		C-270.7,247.4-272.6,249.3-275.2,249.3z"/>
	<path class="st6" d="M-284.3,271.8h-47.3c-2.4,0-4.5-2.1-4.5-4.5v-2.2c0-2.4,2.1-4.5,4.5-4.5h47.3c2.4,0,4.5,2.1,4.5,4.5v2.2
		C-279.8,269.9-281.7,271.8-284.3,271.8z"/>
	<path class="st4" d="M-276.3,286.4h-45.1c-3,0-5.6,2.5-5.6,5.6l0,0c0,3,2.5,5.6,5.6,5.6h45.1c3,0,5.6-2.5,5.6-5.6l0,0
		C-270.7,288.8-273.1,286.4-276.3,286.4z"/>
	<path class="st12" d="M-170.8,223.5c0-11.2-9.1-20.1-20.1-20.1h-56.2c-11.2,0-20.1,9.1-20.1,20.1v43.3h96.5v-43.3H-170.8z"/>
	<path class="st13" d="M-247.1,330.4h56.2c11.2,0,20.1-9.1,20.1-20.1v-43.5h-96.5v43.3C-267.2,321.3-258.3,330.4-247.1,330.4z"/>
	<path class="st13" d="M-257.7,237.8c0-5.3-4.3-9.6-9.7-9.7h-8.1c-5.3,0-9.6,4.3-9.7,9.7v29h27.4L-257.7,237.8z"/>
	<path class="st14" d="M-275.3,305.4h8.1c5.3,0,9.6-4.3,9.7-9.7v-28.8h-27.4v29C-284.9,301.1-280.6,305.4-275.3,305.4z"/>
</g>
<path class="st4" d="M-247.1,345.4c-15.9,0-29.6-10.9-33.8-25.7c-4.8-1.1-9-3.6-12.3-7.2h-28.1c-5.4,0-10.6-2.1-14.5-6l-0.1-0.1
	c-3.9-3.9-6-9-6-14.5c0-2.6,0.5-5.1,1.4-7.4c-6.2-3.3-10.5-9.8-10.5-17.3v-2.2c0-7.1,3.8-13.2,9.4-16.7c-0.2-1.2-0.3-2.4-0.3-3.6
	v-2.2c0-10.7,8.7-19.5,19.5-19.5h27.1c3.5-4.7,8.6-8.2,14.5-9.5c4.3-14.6,17.7-25.3,33.7-25.3h56.2c14,0,35.1,13.4,35.1,30.5
	l0.1,9.8c14.5,5.7,24.9,19.9,24.9,36.5c0,16.6-10.4,30.9-25,36.6v8.5c0,19.3-15.7,35.1-35.1,35.1H-247.1z"/>
</svg>
