<?xml version="1.0" encoding="utf-8"?>
<!-- Generator: Adobe Illustrator 19.0.0, SVG Export Plug-In . SVG Version: 6.00 Build 0)  -->
<svg version="1.1" id="Layer_1" xmlns="http://www.w3.org/2000/svg" xmlns:xlink="http://www.w3.org/1999/xlink" x="0px" y="0px"
	 viewBox="96 11 512 512" style="enable-background:new 96 11 512 512;" xml:space="preserve">
<style type="text/css">
	.st0{display:none;fill:#FFD1A9;}
	.st1{display:none;fill:#FF8C29;}
	.st2{display:none;fill:#FFFFFF;}
	.st3{display:none;fill:#F0353D;}
	.st4{fill:#9BAAAB;}
	.st5{fill:#365558;}
	.st6{fill:#CDD4D5;}
	.st7{fill:#0295AA;}
	.st8{fill:#E6EAEA;}
	.st9{fill:#4ACFD9;}
	.st10{fill:#FFFFFF;}
	.st11{fill:#FFD1A9;}
	.st12{fill:#FF8C29;}
	.st13{fill:#FD6A33;}
</style>
<path class="st0" d="M543,174.1c-63.4,0-114.9,51.5-114.9,114.9S479.6,403.9,543,403.9S657.9,352.4,657.9,289S606.4,174.1,543,174.1
	z"/>
<path class="st1" d="M428.1,289c0,63.4,51.5,114.9,114.9,114.9V174.1C479.6,174.1,428.1,225.6,428.1,289z"/>
<path class="st2" d="M615.6,271.4c-3.3,0-6.4-2.1-7.6-5.3c-5.9-16.7-18.4-30.9-34.4-38.8c-4-2-5.6-6.8-3.6-10.7
	c2-4,6.8-5.6,10.7-3.6c19.6,9.8,35.1,27.2,42.4,47.8c1.5,4.2-0.7,8.8-4.9,10.2C617.4,271.2,616.5,271.4,615.6,271.4z"/>
<path class="st3" d="M586.4,281.8l-65-50.4c-2.4-1.9-5.7-2.2-8.4-0.9c-2.7,1.3-4.5,4.1-4.5,7.2v102.6c0,3.1,1.8,5.9,4.6,7.2
	c1.1,0.5,2.3,0.8,3.5,0.8c1.8,0,3.6-0.6,5-1.8l65-52.2c1.9-1.5,3-3.9,3-6.3C589.5,285.6,588.3,283.3,586.4,281.8z"/>
<g>
	<path class="st4" d="M478.3,317.7c-4.6-1.1-8.7-3.5-11.8-6.9h-20v29.8h51.9c0.4,0,0.8-0.1,1.1-0.2
		C489.3,336.8,481.3,328.3,478.3,317.7z"/>
	<path class="st4" d="M478.4,215.9c4.1-14,17-24.3,32.4-24.3h42.3V86.1c0-3.1-2.3-5.8-5.1-5.8l-101.5,0.2V225h18
		C467.8,220.4,472.8,217.1,478.4,215.9z"/>
	<path class="st5" d="M425.6,305.1l-0.1-0.1c-3.7-3.7-5.8-8.7-5.8-13.9c0-2.5,0.5-4.9,1.3-7.2c-6-3.1-10.1-9.4-10.1-16.6v-2.1
		c0-6.8,3.6-12.7,9-16c-0.2-1.1-0.3-2.3-0.3-3.4v-2.1c0-10.3,8.4-18.7,18.7-18.7h8.1V80.3h-94.2c-2.8,0-5.1,2.5-5.1,5.6v185
		l63.3,69.4h36v-29.4h-7C434.3,310.9,429.3,308.8,425.6,305.1z"/>
	<path class="st5" d="M515.2,131.5c0-3.1-2.3-5.8-5.1-5.8h-63.8v11.4h63.8C513.1,137.2,515.2,134.7,515.2,131.5z"/>
	<path class="st5" d="M515.2,180.1c0-3.1-2.3-5.8-5.1-5.8v-0.2h-63.8v11.4h63.8C513.1,185.8,515.2,183.3,515.2,180.1z"/>
	<path class="st5" d="M466.2,223h-19.9v2h18.2C465,224.3,465.6,223.6,466.2,223z"/>
	<g>
		<path id="SVGCleanerId_0_2_" class="st4" d="M405.2,75.7H347l63.3,69.4V81.6C410.4,78.3,408.1,75.7,405.2,75.7z"/>
	</g>
	<path class="st6" d="M411,265.2c0-6.8,3.6-12.7,9-16c-0.2-1.1-0.3-2.3-0.3-3.4v-2.1c0-10.3,8.4-18.7,18.7-18.7h26.1
		c3.4-4.6,8.3-7.8,14-9.1c3-10.5,11-18.8,21.3-22.4V22.8c0-3.1-2.3-5.8-5.1-5.8H393.1v260.2h20.7c-1.8-2.8-2.8-6.2-2.8-9.8V265.2z"
		/>
	<path class="st4" d="M298.9,17c-2.8,0-5.1,2.5-5.1,5.6v185l63.3,69.4h36V17H298.9z"/>
	<g>
		<path class="st7" d="M329.3,62.5c-2.8,0-5.1,2.5-5.1,5.6c0,3.1,2.3,5.8,5.1,5.8h63.8V62.5H329.3z"/>
		<path class="st7" d="M329.3,111c-2.8,0-5.1,2.5-5.1,5.6c0,3.1,2.3,5.8,5.1,5.8h63.8V111H329.3L329.3,111z"/>
		<path class="st7" d="M324.2,165.3c0,3.1,2.3,5.8,5.1,5.8h63.8v-11.6h-63.8C326.5,159.5,324.2,162.1,324.2,165.3z"/>
		<path class="st7" d="M324.2,213.5c0,3.1,2.3,5.8,5.1,5.8h63.8v-11.4h-63.8C326.5,207.9,324.2,210.6,324.2,213.5z"/>
	</g>
	<g>
		<path class="st7" d="M462,68.2c0-3.1-2.3-5.8-5.1-5.8h-63.8v11.4h63.8C459.7,73.9,462,71.4,462,68.2z"/>
		<path class="st7" d="M462,116.7c0-3.1-2.3-5.8-5.1-5.8l0,0h-63.8v11.4h63.8C459.7,122.5,462,120,462,116.7z"/>
		<path class="st7" d="M462,165.3c0-3.1-2.3-5.8-5.1-5.8h-63.8v11.4h63.8C459.7,170.9,462,168.4,462,165.3z"/>
		<path class="st7" d="M462,213.7c0-3.1-2.3-5.6-5.1-5.8h-63.8v11.4h63.8C459.7,219.3,462,217,462,213.7z"/>
	</g>
	<g>
		<path id="SVGCleanerId_0_5_" class="st4" d="M351.8,117.7h-58.2l63.3,69.4v-63.6C357.1,120.3,354.7,117.7,351.8,117.7z"/>
	</g>
	<path class="st8" d="M425.6,305.1l-0.1-0.1c-3.7-3.7-5.8-8.7-5.8-13.9c0-2.5,0.5-4.9,1.3-7.2c-6-3.1-10.1-9.4-10.1-16.6v-2.1
		c0-6.8,3.6-12.7,9-16c-0.2-1.1-0.3-2.3-0.3-3.4v-2.1c0-10.3,8.4-18.7,18.7-18.7h7.9V56.8c0-3.1-2.3-5.8-5.1-5.8l-101.5,0.2v260
		h101.5c0.6,0,1.2-0.1,1.8-0.3h-3.5C434.3,310.9,429.3,308.8,425.6,305.1z"/>
	<path class="st6" d="M245.5,51c-2.8,0-5.1,2.5-5.1,5.6v166.5h24.2c5.2,0,10.2,2,13.9,5.8l0.1,0.1c3.7,3.7,5.8,8.7,5.8,13.9
		c0,2.5-0.5,4.9-1.3,7.2c6,3.1,10.1,9.4,10.1,16.6v2.1c0,6.8-3.6,12.7-9,16c0.2,1.1,0.3,2.3,0.3,3.4v1.6l19.4,21.2h36V51H245.5z"/>
	<path class="st7" d="M275.9,96.7c-2.8,0-5.1,2.5-5.1,5.6s2.3,5.8,5.1,5.8h63.8V96.7H275.9z"/>
	<path class="st7" d="M275.9,145.1c-2.8,0-5.1,2.5-5.1,5.6s2.3,5.8,5.1,5.8h63.8v-11.4H275.9L275.9,145.1z"/>
	<path class="st7" d="M275.9,193.7c-2.8,0-5.1,2.5-5.1,5.6c0,3.1,2.3,5.8,5.1,5.8h63.8v-11.4H275.9z"/>
	<path class="st7" d="M339.7,242.1h-55.4c0,0.3,0,0.5,0,0.8c0,2.5-0.5,4.9-1.3,7.2c1.7,0.9,3.3,2.1,4.7,3.5h52.1V242.1z"/>
	<g>
		<path class="st9" d="M408.6,101.8c0-3.1-2.3-5.8-5.1-5.8h-63.8v11.4h63.8C406.3,107.4,408.6,104.9,408.6,101.8z"/>
		<path class="st9" d="M408.6,150.2c0-3.1-2.3-5.8-5.1-5.8v-0.2l-63.8,0.2v11.4h63.8C406.3,155.8,408.6,153.4,408.6,150.2z"/>
		<path class="st9" d="M408.6,198.8c0-3.1-2.3-5.8-5.1-5.8h-63.8v11.4h63.8C406.3,204.4,408.6,202,408.6,198.8z"/>
		<path class="st9" d="M408.6,247.2c0-3.1-2.3-5.6-5.1-5.8h-63.8v11.4h63.8C406.3,252.9,408.6,250.2,408.6,247.2z"/>
	</g>
	<g>
		<path class="st4" d="M298.4,158.2h-58.2l63.3,69.4v-63.6C303.7,160.6,301.4,158,298.4,158.2z"/>
	</g>
	<path class="st10" d="M376.7,107.9l-101.7,0.2v118.1c1.2,0.8,2.3,1.6,3.4,2.7l0.1,0.1c3.7,3.7,5.8,8.7,5.8,13.9
		c0,2.5-0.5,4.9-1.3,7.2c6,3.1,10.1,9.4,10.1,16.6v2.1c0,6.8-3.6,12.7-9,16c0.2,1.1,0.3,2.3,0.3,3.4v2.1c0,6.8-3.7,12.8-9.2,16.1
		v61.6h101.5c2.8,0,5.3-2.5,5.3-5.8V113.7C381.8,110.6,379.5,107.9,376.7,107.9z"/>
	<path class="st8" d="M239.5,309c-3.4,4.6-8.3,7.8-14,9.1c-2.3,8-7.6,14.8-14.5,19.1l28,30.7h36v-61.5c-2.8,1.6-6,2.6-9.5,2.6H239.5
		z"/>
	<path class="st8" d="M225.7,216.3c4.6,1.1,8.7,3.5,11.8,6.9h27c3.8,0,7.4,1.1,10.6,3.1V107.9h-94.2c-2.8,0-5.1,2.5-5.1,5.6v78.1
		h17.5C208.5,191.6,221.6,202.1,225.7,216.3z"/>
	<path class="st7" d="M211.3,153.7c-2.8,0-5.1,2.5-5.1,5.6s2.3,5.8,5.1,5.8h63.8v-11.4H211.3z"/>
	<path class="st7" d="M275.1,213.5v-11.4h-57.5c3.1,3.3,5.6,7.1,7.2,11.4H275.1z"/>
	<path class="st7" d="M239.5,309c-0.4,0.5-0.8,1-1.2,1.5h36.9v-4.2c-2.8,1.7-6.1,2.7-9.6,2.7H239.5z"/>
	<path class="st9" d="M344,159.3c0-3.1-2.3-5.8-5.1-5.8h-63.8v11.4h63.8C341.7,164.9,344,162.5,344,159.3z"/>
	<path class="st9" d="M338.9,202v-0.2h-63.8v11.4h63.8c2.8,0.3,5.1-2.3,5.1-5.5C344,204.6,341.7,202,338.9,202z"/>
	<path class="st9" d="M338.9,250.6h-55c4.2,2.5,7.3,6.6,8.6,11.4h46.5c2.8,0,5.1-2.3,5.1-5.6C344,253.2,341.7,250.6,338.9,250.6z"/>
	<path class="st9" d="M338.9,299h-56.7c-1.6,3.1-4.1,5.7-7.1,7.4v4h63.8c2.8,0,5.1-2.5,5.1-5.6C344,301.6,341.7,299.1,338.9,299z"/>
	<path class="st9" d="M478.3,317.7c-4.6-1.1-8.7-3.5-11.8-6.9h-27c-5.2,0-10.2-2-13.9-5.8l-0.1-0.1c-3.7-3.7-5.8-8.7-5.8-13.9
		c0-2.5,0.5-4.9,1.3-7.2c-6-3.1-10.1-9.4-10.1-16.6v-2.1c0-6.8,3.6-12.7,9-16c-0.2-1.1-0.3-2.3-0.3-3.4v-2.1
		c0-10.3,8.4-18.7,18.7-18.7h26.1c3.4-4.6,8.3-7.8,14-9.1c1.6-5.4,4.5-10.3,8.4-14.2H349V471h103.3c30.6,0,30.6-36.2,30.6-63.6
		l36.8-65h-8.8C495.5,342.4,482.4,331.9,478.3,317.7z"/>
	<path class="st7" d="M217.1,201.6c4,4,7,9,8.6,14.6c4.6,1.1,8.7,3.5,11.8,6.9h27c5.2,0,10.2,2,13.9,5.8l0.1,0.1
		c3.7,3.7,5.8,8.7,5.8,13.9c0,2.5-0.5,4.9-1.3,7.2c6,3.1,10.1,9.4,10.1,16.6v2.1c0,6.8-3.6,12.7-9,16c0.2,1.1,0.3,2.3,0.3,3.4v2.1
		c0,10.3-8.4,18.7-18.7,18.7h-26.1c-3.4,4.6-8.3,7.8-14,9.1c-4.1,14-17,24.3-32.4,24.3h-30.8l24.5,65c0,23.5,5.5,63.6,30.6,63.6H349
		V201.6H217.1z"/>
	<path class="st11" d="M264.8,425.1c-25.3,0-46,20.5-46,46c0,25.5,20.5,46,46,46c25.3,0,46-20.5,46-46
		C310.8,445.6,290.1,425.1,264.8,425.1z"/>
	<circle class="st12" cx="264.8" cy="471" r="26.1"/>
	<path class="st11" d="M410.3,516.8c-25.3,0-46-20.5-46-46c0-25.5,20.5-46,46-46c25.3,0,46,20.5,46,46
		C456.2,496.3,435.6,516.8,410.3,516.8z"/>
	<circle class="st12" cx="410.3" cy="471" r="26.1"/>
	<path class="st12" d="M425.5,305c-3.7-3.7-5.8-8.7-5.8-13.9c0-2.5,0.5-4.9,1.3-7.2c-6-3.1-10.1-9.4-10.1-16.6v-2.1
		c0-0.7,0-1.3,0.1-2h-68.6v42.5h83.8c-0.2-0.2-0.5-0.4-0.7-0.6L425.5,305z"/>
	<path class="st13" d="M349,263.3h-56.3c0.2,1.1,0.3,2.2,0.3,3.3v2.1c0,6.8-3.6,12.7-9,16c0.2,1.1,0.3,2.3,0.3,3.4v2.1
		c0,6.4-3.2,12-8.1,15.4H349V263.3z"/>
	<g>
		<circle class="st4" cx="584.9" cy="265.4" r="23.3"/>
		<path class="st13" d="M483.9,239.4h-45.5c-2.3,0-4.3,2-4.3,4.3v2.1c0,2.3,2,4.3,4.3,4.3h45.5c2.4,0,4.3-1.8,4.3-4.3v-2.1
			C488.1,241.4,486.2,239.4,483.9,239.4z"/>
		<path class="st12" d="M475.1,261h-45.5c-2.3,0-4.3,2-4.3,4.3v2.1c0,2.3,2,4.3,4.3,4.3h45.5c2.4,0,4.3-1.8,4.3-4.3v-2.1
			C479.4,262.9,477.4,261,475.1,261z"/>
		<path class="st13" d="M482.8,285.7h-43.3c-2.9,0-5.4,2.4-5.4,5.4c0,2.9,2.4,5.4,5.4,5.4h43.3c2.9,0,5.4-2.4,5.4-5.4
			C488.1,288,485.9,285.7,482.8,285.7z"/>
		<path class="st9" d="M564.8,206h-54c-10.7,0-19.3,8.7-19.3,19.3v41.6h92.7v-41.6h-0.2C584.1,214.6,575.4,206,564.8,206z"/>
		<path class="st7" d="M491.4,308.6c0.2,10.7,8.7,19.4,19.4,19.4h54c10.7,0,19.3-8.7,19.3-19.3v-41.8h-92.7V308.6z"/>
		<path class="st7" d="M491.4,229.7h-7.8c-5.1,0-9.2,4.1-9.3,9.3v27.9h26.3l0.2-27.9C500.7,234,496.6,229.9,491.4,229.7z"/>
		<path class="st5" d="M474.5,294.8c0,5.1,4.1,9.2,9.2,9.2h7.8c5.1,0,9.2-4.1,9.3-9.3v-27.7h-26.3V294.8z"/>
	</g>
	<g>
		<circle class="st4" cx="119.1" cy="268.6" r="23.3"/>
		<path class="st13" d="M265.6,283.9h-45.5c-2.4,0-4.3,1.8-4.3,4.3v2.1c0,2.3,2,4.3,4.3,4.3h45.5c2.3,0,4.3-2,4.3-4.3v-2.1
			C269.9,285.9,267.9,283.9,265.6,283.9z"/>
		<path class="st12" d="M274.3,262.3h-45.5c-2.4,0-4.3,1.8-4.3,4.3v2.1c0,2.3,2,4.3,4.3,4.3h45.5c2.3,0,4.3-2,4.3-4.3v-2.1
			C278.6,264.3,276.6,262.3,274.3,262.3z"/>
		<path class="st13" d="M264.5,237.5h-43.3c-2.9,0-5.4,2.4-5.4,5.4c0,3.1,2.3,5.4,5.4,5.4h43.3c2.9,0,5.4-2.4,5.4-5.4
			C269.9,240,267.4,237.5,264.5,237.5z"/>
		<path class="st9" d="M119.7,308.7h0.2c0,10.7,8.7,19.3,19.3,19.3h54c10.7,0,19.3-8.7,19.3-19.3v-41.6h-92.7V308.7z"/>
		<path class="st7" d="M193.2,206h-54c-10.7,0-19.3,8.7-19.3,19.3v41.8h92.7v-41.6C212.5,214.7,203.9,206,193.2,206z"/>
		<path class="st7" d="M203.3,294.9c0,5.1,4.1,9.2,9.3,9.3h7.8c5.1,0,9.2-4.1,9.3-9.3v-27.9h-26.3L203.3,294.9z"/>
		<path class="st5" d="M220.3,230h-7.8c-5.1,0-9.2,4.1-9.3,9.3v27.7h26.3v-27.9C229.5,234.2,225.3,230,220.3,230z"/>
	</g>
</g>
<g>
	<circle class="st4" cx="-58" cy="265.3" r="24.2"/>
	<path class="st13" d="M-163.2,249.4h-47.3c-2.4,0-4.5-2.1-4.5-4.5v-2.2c0-2.4,2.1-4.5,4.5-4.5h47.3c2.4,0,4.5,2.1,4.5,4.5v2.2
		C-158.7,247.5-160.6,249.4-163.2,249.4z"/>
	<path class="st12" d="M-172.2,271.9h-47.3c-2.4,0-4.5-2.1-4.5-4.5v-2.2c0-2.4,2.1-4.5,4.5-4.5h47.3c2.4,0,4.5,2.1,4.5,4.5v2.2
		C-167.8,269.9-169.7,271.9-172.2,271.9z"/>
	<path class="st13" d="M-164.3,286.5h-45.1c-3,0-5.6,2.5-5.6,5.6l0,0c0,3,2.5,5.6,5.6,5.6h45.1c3,0,5.6-2.5,5.6-5.6l0,0
		C-158.7,288.9-161.1,286.5-164.3,286.5z"/>
	<path class="st9" d="M-58.8,223.6c0-11.2-9.1-20.1-20.1-20.1h-56.2c-11.2,0-20.1,9.1-20.1,20.1v43.3h96.5v-43.3H-58.8z"/>
	<path class="st7" d="M-135.1,330.5h56.2c11.2,0,20.1-9.1,20.1-20.1v-43.5h-96.5v43.3C-155.2,321.4-146.3,330.5-135.1,330.5z"/>
	<path class="st7" d="M-145.6,237.9c0-5.3-4.3-9.6-9.7-9.7h-8.1c-5.3,0-9.6,4.3-9.7,9.7v29h27.4L-145.6,237.9z"/>
	<path class="st5" d="M-163.3,305.5h8.1c5.3,0,9.6-4.3,9.7-9.7v-28.8h-27.4v29C-172.9,301.2-168.6,305.5-163.3,305.5z"/>
</g>
<path class="st13" d="M-135.1,345.5c-15.9,0-29.6-10.9-33.8-25.7c-4.8-1.1-9-3.6-12.3-7.2h-28.1c-5.4,0-10.6-2.1-14.5-6l-0.1-0.1
	c-3.9-3.9-6-9-6-14.5c0-2.6,0.5-5.1,1.4-7.4c-6.2-3.3-10.5-9.8-10.5-17.3v-2.2c0-7.1,3.8-13.2,9.4-16.7c-0.2-1.2-0.3-2.4-0.3-3.6
	v-2.2c0-10.7,8.7-19.5,19.5-19.5h27.1c3.5-4.7,8.6-8.2,14.5-9.5c4.3-14.6,17.7-25.3,33.7-25.3h56.2c14,0,35.1,13.4,35.1,30.5
	l0.1,9.8c14.5,5.7,24.9,19.9,24.9,36.5c0,16.6-10.4,30.9-25,36.6v8.5c0,19.3-15.7,35.1-35.1,35.1H-135.1z"/>
</svg>
