<?xml version="1.0" encoding="utf-8"?>
<!-- Generator: Adobe Illustrator 19.0.0, SVG Export Plug-In . SVG Version: 6.00 Build 0)  -->
<svg version="1.1" id="Layer_1" xmlns="http://www.w3.org/2000/svg" xmlns:xlink="http://www.w3.org/1999/xlink" x="0px" y="0px"
	 viewBox="-49 141 512 512" style="enable-background:new -49 141 512 512;" xml:space="preserve">
<style type="text/css">
	.st0{fill:#E6EAEA;}
	.st1{fill:#CDD4D5;}
	.st2{fill:#FFD1A9;}
	.st3{fill:#FF8C29;}
	.st4{fill:#9BAAAB;}
	.st5{fill:#687F82;}
	.st6{fill:#BCD643;}
	.st7{fill:#365558;}
	.st8{fill:#0295AA;}
	.st9{fill:#4ACFD9;}
	.st10{fill:#F0353D;}
	.st11{fill:#FD6A33;}
	.st12{fill:#FFFFFF;}
</style>
<path class="st0" d="M440.5,160H280.8c3,5.5,4.7,11.4,4.7,16.5v56.2c0,16-10.7,29.4-25.3,33.7c-1.3,5.9-4.8,11-9.5,14.5V308
	c0,10.8-8.8,19.5-19.5,19.5H229c-1.2,0-2.4-0.1-3.6-0.3c-3.5,5.6-9.6,9.4-16.7,9.4h-2.1c-7.5,0-14-4.3-17.3-10.5
	c-2.3,0.9-4.8,1.4-7.4,1.4c-5.5,0-10.6-2.1-14.5-6l-0.1-0.1c-3.9-3.9-6-9.1-6-14.5v-28.1c-3.6-3.3-6.1-7.5-7.2-12.3
	c-14.8-4.2-25.7-17.9-25.7-33.8h0.1v-56.2c0-5.9,1.5-11.5,4.1-16.5H-26.5c-4.1,0-7.5,3.4-7.5,7.5v458.8c0,4.1,3.4,7.5,7.5,7.5h159.1
	c-2.6-4.9-4.1-10.5-4.1-16.5v-56.2h-0.1c0-15.9,10.9-29.6,25.7-33.8c1.1-4.8,3.6-9,7.2-12.3v-28.1c0-5.4,2.1-10.6,6-14.5l0.1-0.1
	c3.9-3.9,9-6,14.5-6c2.6,0,5.1,0.5,7.4,1.4c3.3-6.2,9.8-10.5,17.3-10.5l2.1,0c7.1,0,13.2,3.8,16.7,9.4c1.2-0.2,2.4-0.3,3.6-0.3h2.2
	c10.7,0,19.5,8.7,19.5,19.5v27.1c4.7,3.5,8.2,8.6,9.5,14.5c14.6,4.3,25.3,17.7,25.3,33.7v56.2c0,5-1.7,10.9-4.7,16.5h159.6
	c4.1,0,7.5-3.4,7.5-7.5V167.6C448,163.4,444.6,160,440.5,160z"/>
<path class="st1" d="M189.4,326.1c-2.3,0.9-4.8,1.4-7.4,1.4c-5.5,0-10.6-2.1-14.5-6l-0.1-0.1c-3.9-3.9-6-9.1-6-14.5v-28.1
	c-3.6-3.3-6.1-7.5-7.2-12.3c-14.8-4.2-25.7-17.9-25.7-33.8h0.1v-56.2c0-5.9,1.5-11.5,4.1-16.5H-26.5c-4.1,0-7.5,3.4-7.5,7.5v458.8
	c0,4.1,3.4,7.5,7.5,7.5h159.1c-2.6-4.9-4.1-10.5-4.1-16.5v-56.2h-0.1c0-15.9,10.9-29.6,25.7-33.8c1.1-4.8,3.6-9,7.2-12.3v-28.1
	c0-5.4,2.1-10.6,6-14.5l0.1-0.1c3.9-3.9,9-6,14.5-6c2.6,0,5.1,0.5,7.4,1.4c3.2-6,9.4-10.2,16.6-10.5V336.6
	C198.8,336.3,192.5,332.1,189.4,326.1z"/>
<path class="st2" d="M128.5,561.3c0-15.9,10.9-29.6,25.7-33.8c1.1-4.8,3.6-9,7.2-12.3v-28.1c0-5.4,2.1-10.6,6-14.5l0.1-0.1
	c3.9-3.9,9-6,14.5-6c2.6,0,5.1,0.5,7.4,1.4c0.3-0.6,0.7-1.1,1-1.7L102.3,385L9.8,489.5v100.6h118.8L128.5,561.3L128.5,561.3z"/>
<path class="st2" d="M307.6,393l-82.8,72.9c0.2,0.3,0.4,0.6,0.6,0.9c1.2-0.2,2.4-0.3,3.6-0.3h2.2c10.7,0,19.5,8.7,19.5,19.5v27.1
	c4.7,3.5,8.2,8.6,9.5,14.5c14.6,4.3,25.3,17.7,25.3,33.7v28.9h118.7V280.3L307.6,393z"/>
<path class="st3" d="M128.5,561.3c0-15.9,10.9-29.6,25.7-33.8c1.1-4.8,3.6-9,7.2-12.3v-28.1c0-5.4,2.1-10.6,6-14.5l0.1-0.1
	c3.9-3.9,9-6,14.5-6c2.6,0,5.1,0.5,7.4,1.4c0.9-1.7,2.1-3.3,3.5-4.7L128.7,366L8,489.5v100.6h120.6L128.5,561.3L128.5,561.3z"/>
<path class="st4" d="M400.2,200.2H285.5v15.2h14.6v73.4h-49.4v15.1h49.4v81.5h-85.6v-49.7c-1.8,0.6-3.8,0.9-5.8,0.9h-2.1
	c-2.5,0-5-0.5-7.2-1.4v50.2h-85.6v-81.5h47.5v-15.1h-47.5v-73.4h14.7v-15.2H13.8c-4.1,0-7.5,3.4-7.5,7.5v378.4
	c0,4.1,3.4,7.5,7.5,7.5h114.7v-15.1h-14.7v-81.5h47.5v-10.1c0-1.7,0.2-3.4,0.7-5.1h-48.1v-81.5h85.6v58.3c2.2-0.9,4.6-1.4,7.2-1.4
	l2.1,0c2,0,4,0.3,5.8,0.9v-57.8h85.6V482h-49.8c0.3,1.3,0.4,2.6,0.4,4v11.2h49.4v81.5h-14.6v15.1h114.7c4.1,0,7.5-3.4,7.5-7.5V207.8
	C407.7,203.6,404.4,200.2,400.2,200.2z M98.8,578.7H21.4v-81.5h77.5V578.7z M98.8,482H21.4v-81.5h77.5V482z M98.8,385.4H21.4v-81.5
	h77.5V385.4z M98.8,288.8H21.4v-73.4h77.5V288.8z M392.6,578.6h-77.5v-81.5h77.5V578.6z M392.6,482h-77.5v-81.5h77.5V482z
	 M392.6,385.4h-77.5v-81.5h77.5V385.4z M392.6,288.8h-77.5v-73.4h77.5V288.8z"/>
<path class="st5" d="M199.5,385.4h-85.6v-81.5h47.5v-15.1h-47.5v-73.4h14.7v-15.2H13.8c-4.1,0-7.5,3.4-7.5,7.5v378.4
	c0,4.1,3.4,7.5,7.5,7.5h114.7v-15.2h-14.7v-81.5h47.5v-10c0-1.7,0.2-3.4,0.7-5.1h-48.1v-81.5h85.6v58.3c2-0.8,4.3-1.3,6.6-1.4V336.6
	c-2.3-0.1-4.5-0.6-6.6-1.4V385.4z M98.8,578.6H21.4v-81.5h77.5V578.6z M98.8,482H21.4v-81.5h77.5V482z M98.8,385.4H21.4v-81.5h77.5
	V385.4z M98.8,288.8H21.4v-73.4h77.5V288.8z"/>
<path class="st6" d="M196,460.6l-59.9-100.5c-1.5-1.4-3.4-2.2-5.5-2.1c-2.1,0.1-4,0.9-5.4,2.4l-9.4,9.1c-2.8,3-2.6,7.8,0.5,10.6
	c1.4,1.3,3.3,2,5.1,2c2.1,0,4.1-0.8,5.6-2.4l4.2-3.5l53.8,90.5c1.5,0.2,3,0.6,4.3,1.1C190.9,465,193.2,462.4,196,460.6z"/>
<path class="st6" d="M401.2,290.8c-3-2.8-7.8-2.6-10.6,0.5l-88.3,96.4l-79.2,76c0.9,1,1.7,2,2.4,3.1c1.2-0.2,2.4-0.3,3.6-0.3h2.2
	c3.1,0,6,0.7,8.6,2l72.9-70.1c0.2-0.2,0.3-0.3,0.4-0.4l88.6-96.6C404.5,298.4,404.3,293.6,401.2,290.8z"/>
<path class="st6" d="M229,466.5c-1.2,0-2.4,0.1-3.6,0.3c-0.7-1.1-1.5-2.2-2.4-3.1L207,479.1l-11-18.5c-2.8,1.8-5.1,4.3-6.6,7.3
	c-1.4-0.5-2.8-0.9-4.3-1.1l16.8,28.2c2.9,2.8,7.5,2.8,10.4,0l27.5-26.5c-2.6-1.3-5.5-2-8.6-2H229z"/>
<g>
	<path class="st2" d="M369.8,343.9"/>
	<circle class="st0" cx="337.3" cy="337.6" r="13.8"/>
	<path class="st7" d="M297.7,322.4c-2.4,3.1-4.6,6.6-5.8,9.4l-58.9,134.7c7.4,0.6,13.6,5.4,16.3,11.9L363.1,386
		c2.4-2,5.2-4.9,7.5-8.1L297.7,322.4z"/>
	<path class="st7" d="M232.9,466.6l-11.5,26.3c-3,7-0.7,8.8,5.3,4l22.6-18.4C246.5,471.9,240.3,467.2,232.9,466.6z"/>
	<path class="st8" d="M446.7,207.5c3-7,0.7-8.8-5.3-4L305.1,314.4c-2.4,1.9-5.1,4.9-7.4,8l73,55.4c2.4-3.1,4.5-6.5,5.6-9.3
		L446.7,207.5z"/>
	<path class="st8" d="M340.8,456c-10.4-7.9,2.8-42.8,29.6-77.9c0,0,0,0,0.1-0.1l-4.2-3.2L346.7,360l-18.8-14.3c0,0,0,0-0.1,0.1
		c-26.6,35.1-39.8,70-29.5,77.9l19.5,14.8L340.8,456"/>
	<path class="st9" d="M437.7,328.5c-10.4-7.9-40.5,14.2-67.2,49.3c0,0,0,0-0.1,0.1l-4.2-3.2l-19.5-14.8l-18.8-14.3c0,0,0,0,0.1-0.1
		c26.7-35.1,56.9-57.2,67.2-49.3l19.5,14.8L437.7,328.5"/>
</g>
<path class="st3" d="M85.7,373.7c-10.2,10.3-10.2,26.6,0,36.9l36.9-37.2C112.3,363.4,95.8,363.6,85.7,373.7z"/>
<path class="st2" d="M122.8,410.7c10.2-10.3,10.2-26.8-0.1-37c-0.1-0.1-0.1-0.1-0.1-0.1l-36.9,37.2c0.1,0.1,0.1,0.1,0.1,0.1
	C96.1,421,112.7,420.9,122.8,410.7z"/>
<path class="st3" d="M83.6,408.6c-4.9-4.8-12.9-4.8-17.7,0.1l-46.3,31.8c-4.8,4.9-4.8,12.9,0.1,17.7l9.5,9.4l56.7-57L83.6,408.6
	L83.6,408.6z"/>
<path class="st2" d="M56.7,477.3l31.5-46.6c4.8-4.9,4.8-12.9-0.1-17.7l-2.4-2.4l-56.6,57l9.8,9.8C43.8,482.3,51.8,482.3,56.7,477.3z
	"/>
<rect x="-712" y="296.8" class="st10" width="128" height="128"/>
<rect x="-584" y="296.8" class="st11" width="128" height="128"/>
<rect x="-456" y="296.8" class="st3" width="128" height="128"/>
<rect x="-328" y="296.8" class="st2" width="128" height="128"/>
<rect x="-712" y="424.8" class="st7" width="128" height="128"/>
<rect x="-584" y="424.8" class="st8" width="128" height="128"/>
<rect x="-456" y="424.8" class="st9" width="128" height="128"/>
<rect x="-712" y="552.8" class="st4" width="128" height="128"/>
<rect x="-584" y="552.8" class="st1" width="128" height="128"/>
<rect x="-456" y="552.8" class="st0" width="128" height="128"/>
<rect x="-328" y="552.8" class="st12" width="128" height="128"/>
<rect x="-712" y="680.8" class="st6" width="128" height="128"/>
<g>
	<circle class="st4" cx="208.7" cy="637.4" r="24.2"/>
	<path class="st11" d="M235.8,532.2v-47.3c0-2.4-2.1-4.5-4.5-4.5h-2.2c-2.4,0-4.5,2.1-4.5,4.5v47.3c0,2.5,1.9,4.5,4.5,4.5h2.2
		C233.7,536.7,235.8,534.6,235.8,532.2z"/>
	<path class="st3" d="M213.3,523.2v-47.3c0-2.4-2.1-4.5-4.5-4.5h-2.2c-2.4,0-4.5,2.1-4.5,4.5v47.3c0,2.5,1.9,4.5,4.5,4.5h2.2
		C211.2,527.6,213.3,525.6,213.3,523.2z"/>
	<path class="st11" d="M187.5,531.1V486c0-3-2.5-5.6-5.6-5.6c-3,0-5.6,2.5-5.6,5.6v45.1c0,3,2.5,5.6,5.6,5.6
		C185.1,536.7,187.5,534.3,187.5,531.1z"/>
	<path class="st9" d="M270.5,616.5v-56.2c0-11.2-9.1-20.1-20.1-20.1h-43.3v96.5l43.3,0v-0.2C261.6,636.6,270.5,627.5,270.5,616.5z"
		/>
	<path class="st8" d="M163.7,540c-11.2,0.2-20.2,9.1-20.2,20.2v56.2c0,11.2,9.1,20.1,20.1,20.1h43.5V540H163.7L163.7,540z"/>
	<path class="st8" d="M245.8,540v-8.1c0-5.3-4.3-9.6-9.7-9.7l-29,0v27.4l29,0.2C241.3,549.8,245.6,545.5,245.8,540z"/>
	<path class="st7" d="M178.1,522.5c-5.3,0-9.6,4.3-9.6,9.6v8.1c0,5.3,4.3,9.6,9.7,9.7H207v-27.4L178.1,522.5L178.1,522.5z"/>
</g>
<g>
	<circle class="st4" cx="205.3" cy="155.3" r="24.2"/>
	<path class="st11" d="M189.4,307.8v-47.3c0-2.5-1.9-4.5-4.5-4.5h-2.2c-2.4,0-4.5,2.1-4.5,4.5v47.3c0,2.4,2.1,4.5,4.5,4.5h2.2
		C187.3,312.2,189.4,310.2,189.4,307.8z"/>
	<path class="st3" d="M211.9,316.8v-47.3c0-2.5-1.9-4.5-4.5-4.5h-2.2c-2.4,0-4.5,2.1-4.5,4.5v47.3c0,2.4,2.1,4.5,4.5,4.5h2.2
		C209.8,321.3,211.9,319.2,211.9,316.8z"/>
	<path class="st11" d="M237.7,306.7v-45.1c0-3-2.5-5.6-5.6-5.6c-3.2,0-5.6,2.4-5.6,5.6v45.1c0,3,2.5,5.6,5.6,5.6
		C235.1,312.2,237.7,309.7,237.7,306.7z"/>
	<path class="st9" d="M163.6,156v0.2c-11.2,0-20.1,9.1-20.1,20.1v56.2c0,11.2,9.1,20.1,20.1,20.1h43.3v-96.5L163.6,156L163.6,156z"
		/>
	<path class="st8" d="M270.5,232.4v-56.2c0-11.2-9.1-20.1-20.1-20.1l-43.5,0v96.5h43.3C261.4,252.5,270.5,243.6,270.5,232.4z"/>
	<path class="st8" d="M177.9,242.9c-5.3,0-9.6,4.3-9.7,9.7v8.1c0,5.3,4.3,9.6,9.7,9.7h29v-27.3L177.9,242.9z"/>
	<path class="st7" d="M245.5,260.6v-8.1c0-5.3-4.3-9.6-9.7-9.7H207v27.4l29,0C241.2,270.2,245.5,265.9,245.5,260.6z"/>
</g>
</svg>
