<?xml version="1.0" encoding="utf-8"?>
<!-- Generator: Adobe Illustrator 19.0.0, SVG Export Plug-In . SVG Version: 6.00 Build 0)  -->
<svg version="1.1" id="Layer_1" xmlns="http://www.w3.org/2000/svg" xmlns:xlink="http://www.w3.org/1999/xlink" x="0px" y="0px"
	 viewBox="96 11 512 512" style="enable-background:new 96 11 512 512;" xml:space="preserve">
<style type="text/css">
	.st0{fill:none;stroke:#4ACFD9;stroke-width:15;stroke-linecap:round;stroke-miterlimit:10;}
	.st1{fill:#9BAAAB;}
	.st2{fill:#FD6A33;}
	.st3{fill:#FF8C29;}
	.st4{fill:#4ACFD9;}
	.st5{fill:#0295AA;}
	.st6{fill:#365558;}
	.st7{fill:none;stroke:#FFD1A9;stroke-width:12;stroke-linecap:round;stroke-linejoin:round;stroke-miterlimit:10;}
	.st8{fill:#F0353D;}
	.st9{fill:#FFD1A9;}
	.st10{fill:#CDD4D5;}
	.st11{fill:#E6EAEA;}
	.st12{fill:#FFFFFF;}
	.st13{fill:#BCD643;}
</style>
<g>
	<path class="st0" d="M335.6,655c16.3-24.3,38.2-55.6,34.1-87.2c-4.1-31.8-21.6-52.1-16.4-79.6"/>
	<circle class="st1" cx="353.5" cy="488.2" r="21.8"/>
	<path class="st2" d="M367.6,394.1v-42.3c0-2.1,1.9-4,4-4h2c2.1,0,4,1.9,4,4v42.3c0,2.1-1.9,4-4,4h-2
		C369.5,398.1,367.6,396.2,367.6,394.1z"/>
	<path class="st3" d="M347.5,385.9v-42.3c0-2.1,1.9-4,4-4h2c2.1,0,4,1.9,4,4v42.3c0,2.1-1.9,4-4,4h-2
		C349.4,389.9,347.5,388.2,347.5,385.9z"/>
	<path class="st2" d="M334.5,393v-40.4c0-2.8-2.2-5-5-5l0,0c-2.8,0-5,2.2-5,5V393c0,2.8,2.2,5,5,5l0,0
		C332.3,398.1,334.5,395.8,334.5,393z"/>
	<path class="st4" d="M390.9,487.5c9.9,0,18-8.1,18-18V419c0-9.9-8.1-18-18-18H352v86.7h38.9V487.5z"/>
	<path class="st5" d="M295.1,419.1v50.5c0,9.9,8.1,18,18,18H352V401h-38.9C303.2,401.1,295.1,409.2,295.1,419.1z"/>
	<path class="st5" d="M378.1,409.9c4.8,0,8.7-4,8.7-8.7v-7.3c0-4.8-4-8.7-8.7-8.7h-25.9v24.6L378.1,409.9z"/>
	<path class="st6" d="M317.3,393.8v7.3c0,4.8,4,8.7,8.7,8.7H352v-24.6h-25.9C321.3,385.2,317.5,389.1,317.3,393.8z"/>
</g>
<path class="st3" d="M418.5,190.5c0-40.4-6.1-77.8-16.4-108.1c-14.2,10.1-31.4,16-50.1,16V329h37.1
	C407.1,295.2,418.5,245.7,418.5,190.5z"/>
<path class="st7" d="M392,118.1c4.9,22.4,7.5,47,7.5,72.5c0,38.3-5.9,74.9-16.5,104.2"/>
<path class="st2" d="M301.9,82.4c-10.3,30.4-16.4,67.7-16.4,108.1c0,55.2,11.4,104.7,29.4,138.5H352V98.4
	C333.4,98.4,316.1,92.5,301.9,82.4z"/>
<path class="st5" d="M352,11v77.4c17.5,0,33.6-5.9,46.5-15.7C386.7,42.4,370.5,20.4,352,11z"/>
<path class="st6" d="M305.5,72.6c12.9,9.9,29,15.7,46.5,15.7V11C333.5,20.4,317.3,42.4,305.5,72.6z"/>
<path class="st6" d="M252.8,322c0,13.7,2.8,26.7,7.8,38.6c7.7-18.3,20.8-33.7,37.2-44.4c-7.6-18.6-13.5-39.9-17.3-62.9
	C263.4,271.1,252.8,295.3,252.8,322z"/>
<path class="st5" d="M423.5,253.2c-3.8,22.9-9.6,44.3-17.3,62.9c16.4,10.7,29.4,26.2,37.2,44.4c5-11.9,7.8-24.9,7.8-38.6
	C451.2,295.3,440.6,271.1,423.5,253.2z"/>
<path class="st4" d="M352,127.4V172c12.3,0,22.3-10,22.3-22.3S364.3,127.4,352,127.4z"/>
<path class="st5" d="M329.7,149.7c0,12.3,10,22.3,22.3,22.3v-44.6C339.7,127.4,329.7,137.4,329.7,149.7z"/>
<rect x="-546" y="22" class="st8" width="128" height="128"/>
<rect x="-418" y="22" class="st2" width="128" height="128"/>
<rect x="-290" y="22" class="st3" width="128" height="128"/>
<rect x="-162" y="22" class="st9" width="128" height="128"/>
<rect x="-546" y="150" class="st6" width="128" height="128"/>
<rect x="-418" y="150" class="st5" width="128" height="128"/>
<rect x="-290" y="150" class="st4" width="128" height="128"/>
<rect x="-546" y="278" class="st1" width="128" height="128"/>
<rect x="-418" y="278" class="st10" width="128" height="128"/>
<rect x="-290" y="278" class="st11" width="128" height="128"/>
<rect x="-162" y="278" class="st12" width="128" height="128"/>
<rect x="-546" y="406" class="st13" width="128" height="128"/>
<g>
	<circle class="st1" cx="818" cy="270.2" r="24.2"/>
	<path class="st2" d="M712.8,254.2h-47.3c-2.4,0-4.5-2.1-4.5-4.5v-2.2c0-2.4,2.1-4.5,4.5-4.5h47.3c2.4,0,4.5,2.1,4.5,4.5v2.2
		C717.3,252.3,715.4,254.2,712.8,254.2z"/>
	<path class="st3" d="M703.8,276.7h-47.3c-2.4,0-4.5-2.1-4.5-4.5V270c0-2.4,2.1-4.5,4.5-4.5h47.3c2.4,0,4.5,2.1,4.5,4.5v2.2
		C708.2,274.8,706.3,276.7,703.8,276.7z"/>
	<path class="st2" d="M711.7,291.4h-45.1c-3,0-5.6,2.5-5.6,5.6l0,0c0,3,2.5,5.6,5.6,5.6h45.1c3,0,5.6-2.5,5.6-5.6l0,0
		C717.3,293.8,714.9,291.4,711.7,291.4z"/>
	<path class="st4" d="M817.2,228.4c0-11.2-9.1-20.1-20.1-20.1h-56.2c-11.2,0-20.1,9.1-20.1,20.1v43.3h96.5v-43.3H817.2z"/>
	<path class="st5" d="M740.9,335.3h56.2c11.2,0,20.1-9.1,20.1-20.1v-43.5h-96.5v43.3C720.8,326.3,729.7,335.3,740.9,335.3z"/>
	<path class="st5" d="M730.4,242.8c0-5.3-4.3-9.6-9.7-9.7h-8.1c-5.3,0-9.6,4.3-9.7,9.7v29h27.4L730.4,242.8z"/>
	<path class="st6" d="M712.7,310.3h8.1c5.3,0,9.6-4.3,9.7-9.7v-28.8h-27.4v29C703.1,306,707.4,310.3,712.7,310.3z"/>
</g>
<path class="st2" d="M740.9,350.3c-15.9,0-29.6-10.9-33.8-25.7c-4.8-1.1-9-3.6-12.3-7.2h-28.1c-5.4,0-10.6-2.1-14.5-6l-0.1-0.1
	c-3.9-3.9-6-9-6-14.5c0-2.6,0.5-5.1,1.4-7.4c-6.2-3.3-10.5-9.8-10.5-17.3V270c0-7.1,3.8-13.2,9.4-16.7c-0.2-1.2-0.3-2.4-0.3-3.6
	v-2.2c0-10.7,8.7-19.5,19.5-19.5h27.1c3.5-4.7,8.6-8.2,14.5-9.5c4.3-14.6,17.7-25.3,33.7-25.3h56.2c14,0,35.1,13.4,35.1,30.5
	l0.1,9.8c14.5,5.7,24.9,19.9,24.9,36.5c0,16.6-10.4,30.9-25,36.6v8.5c0,19.3-15.7,35.1-35.1,35.1H740.9z"/>
</svg>
