<?xml version="1.0" encoding="utf-8"?>
<!-- Generator: Adobe Illustrator 19.0.0, SVG Export Plug-In . SVG Version: 6.00 Build 0)  -->
<svg version="1.1" id="Layer_1" xmlns="http://www.w3.org/2000/svg" xmlns:xlink="http://www.w3.org/1999/xlink" x="0px" y="0px"
	 viewBox="206 -206 512 512" style="enable-background:new 206 -206 512 512;" xml:space="preserve">
<style type="text/css">
	.st0{display:none;}
	.st1{display:inline;}
	.st2{fill:#CDD4D5;}
	.st3{fill:#E6EAEA;}
	.st4{fill:#4ACFD9;}
	.st5{fill:#0295AA;}
	.st6{fill:#FFFFFF;}
	.st7{fill:#FF8C29;}
	.st8{fill:#FD6A33;}
	.st9{fill:#9BAAAB;}
	.st10{fill:#365558;}
</style>
<g id="Layer_3" class="st0">
	<rect x="618" y="-618.4" class="st1" width="512" height="512.8"/>
</g>
<g>
	<g>
		<g>
			<path class="st2" d="M218.8,80.2c-2.3,0.6,0.5,2.6,1.7,3.3c19.2,8.5,36.3,17.2,52.7,28.5c33.7,22.1,66.3,45.9,103.5,60.8
				c0.7-0.2,1.4-0.8,1.4-1.3c1.7-16.6,3.4-33.3,5.1-49.9c-25.8-9.3-51.2-24.7-75.9-40.7c-19.5-13.1-40-23.7-62.2-31.5
				c-6,6-10.5,13.3-17.1,19C224.7,72.3,220.8,75.8,218.8,80.2L218.8,80.2z"/>
		</g>
		<g>
			<path class="st3" d="M271.9,18.1c-8.5,10.7-18.9,20.4-26.8,31.4c15.6,4.9,29.9,12.3,43.2,20.2c27.6,15.8,53.2,35.8,83.1,46.9
				c1.1,0.6,2.1,1.1,3.2,1.7c1.7,0.3,3.8,1.5,5.5,1.8c1.1,0.6,2.1,1.1,3.2,1.7c1.2-17.4,4.4-33.3,4.7-51.1c-0.4-0.7-1.2-1.6-1.7-1.8
				c-13.4-3.1-25.6-8.7-38-15.4c-23.7-13.8-45-28.2-72.1-35.9C274.6,17.1,273.2,17.4,271.9,18.1L271.9,18.1z"/>
		</g>
		<g>
			<path class="st4" d="M288.9,37.9c-0.9-0.5-1.9-0.9-2.3-0.2c-3.5,5.3-7.4,10.3-12.4,14.8c-2.6,2.9-3.5,6.2-5,9.6
				c2.1,1.1,3.7,2,5.9,3.1c0.8-2.4,1.9-5.2,3.2-7.3c4.4-4.8,9-9.1,11.8-14.7C290.2,41.7,292.5,39.1,288.9,37.9L288.9,37.9z"/>
		</g>
		<g>
			<path class="st4" d="M311.6,48.7c-1.5-1.7-2.9,0-3.3,0.8c-1.5,5.5-4.8,9.6-7.8,14.4c-3,3.3-4.9,7.1-5.8,11.5
				c2.1,1.1,4.3,2.2,6.4,3.3c0.5-6.6,4.1-11.5,8.3-16.6c1.9-2.9,3.6-6.5,4.1-10.1C313.9,51.3,314.1,49.5,311.6,48.7L311.6,48.7z"/>
		</g>
		<g>
			<path class="st4" d="M334.2,59.6c-0.3-0.6-1.4-0.7-2.2-0.1c-0.9,2.5-1.2,4.9-2.5,7.1c-2.7,7.6-8.5,13.5-8.6,22.4
				c2.1,1.1,3.7,2,5.9,3.1c0.6-3.7,0.7-7.6,2.4-10.8c3.3-6.3,7.8-11.5,7.7-19.6C336.6,60.7,335.8,59.8,334.2,59.6L334.2,59.6z"/>
		</g>
		<g>
			<path class="st4" d="M357.3,70.7c-0.9-0.5-1.9-0.9-2.1,0c-1.6,6.8-3.7,13.4-6.9,19.5c-1.5,3.8-1.4,8-1.8,12.3
				c2.1,1.1,3.7,2,5.9,3.1c-0.5-3.3,0.8-6.3,1.4-9c1.5-6.9,4.9-12.4,5.9-19.6C359.4,75.3,360.7,71.8,357.3,70.7L357.3,70.7z"/>
		</g>
		<g>
			<g>
				<path class="st5" d="M252.9,85.1c-0.5,0.7-0.3,1.7,1.2,3.1c1.2,0.7,2.5,2.4,4.6,1.6c1.9-1.8,1.3-4.6,3.2-6.4
					c5.2-5.8,11.9-10.8,13-18.3c-2.1-1.1-3.7-2-5.9-3.1c-1.3,3.1-1.9,6.1-4.3,8.6C260.3,75.3,254.7,78.9,252.9,85.1L252.9,85.1z"/>
			</g>
			<g>
				<path class="st5" d="M281.2,100.8c0.2,2.6,2.4,4.3,5,5.2c0.8-0.1,1.7-0.5,2.1-1.3c1.2-5.7,4.6-9.8,8.1-14.3
					c2.4-3.6,3.4-7.5,4.7-11.7c-2.1-1.1-4.3-2.2-6.4-3.3c0.3,3.5-1.2,6.6-3.3,9.4C287.4,90,284.1,95.1,281.2,100.8L281.2,100.8z"/>
			</g>
			<g>
				<path class="st5" d="M313,120.9c1.2,0.7,3,1.7,2.7,0.5c2.1-6.4,4.9-12.5,8.7-18c1.7-3.1,1.8-7.6,2.4-11.3
					c-2.1-1.1-3.7-2-5.9-3.1c-0.8,4.1-1.8,8.6-3.7,12c-2.8,4-5.8,8.4-6.9,13.3C310.5,116,308.7,119,313,120.9L313,120.9z"/>
			</g>
			<g>
				<path class="st5" d="M342.1,137.1c0.5,0.8,1.8,1,2.6,0.4c0.6-2.8,0.5-5.4,1.7-7.8c1.8-8.3,6.9-14.9,5.9-24.2
					c-2.1-1.1-3.7-2-5.9-3.1c-0.3,3.9,0,7.7-1.4,11c-2.9,6.7-7.4,11.9-6.3,20.8C339.1,135.5,340.2,136.6,342.1,137.1L342.1,137.1z"
					/>
			</g>
		</g>
	</g>
</g>
<g>
	<g>
		<g>
			<path class="st2" d="M261.7-63.3c-0.2,1.1-1,1.4-0.4,2.2c6.3,5.1,12.2,8.2,19.4,12c30,21.2,52.3,45.4,76.6,70.3
				c12.9,14,24.9,26.3,37.5,39.6l1.5,0.7c2.8,3.5,6.8,9.7,8.1,6.3c2.3-3.6,4.8-8.4,6.6-14c4.9-8.6,9.7-18.4,15.2-27.3
				c-28.7-31.8-54.4-69.1-84.8-103.1c-14.2-13.4-29.3-25.2-45.8-36.4C283.8-95.7,271.7-79.5,261.7-63.3L261.7-63.3z"/>
		</g>
		<g>
			<path class="st3" d="M334-168.3c-5.7,6.6-10.9,14.2-17.2,21c-8,11.8-17.9,21.1-23.9,33.1C308-105.8,322-94.6,334-82.7
				c33.9,34.9,60.3,75.1,90.5,106.4C432.2,9.7,441.1-5,450.9-19c3.1-4.3,2.9-8.7-0.8-13.2c-23.2-26.2-39.8-59.7-62.8-89.5
				c-2.8-3.4-5.2-8.1-9.2-12.2c-2.6-2.4-5.2-4.7-7-7.4c-1.2-0.7-2.7-2.3-3.8-3c-1.5-1.7-1.8-2.7-3.3-4.3
				c-9.4-7.6-17.3-15.7-27.3-20.7C335.8-169,334.9-168.7,334-168.3L334-168.3z"/>
		</g>
		<g>
			<path class="st4" d="M349-126.4c-3.2-3.2-5.8,2.2-7.1,3.7c-1.8,5-5.5,9.7-8.8,13.1c-6.5,4.6-10.4,12.5-14.5,19.4
				c1.7,1.6,3.8,4,6.3,5.3c4.9-7.2,9.5-15.4,16.3-21.1c4.1-3.7,6.6-9,9.2-14.4C351.6-121.9,351.7-124.1,349-126.4L349-126.4z"/>
		</g>
		<g>
			<path class="st4" d="M374.1-102.5c-1.9-0.4-3.8-0.8-4.3,0.4c-5.3,11.8-14.2,18.2-20.5,28.1c-0.7,2.4-1.4,4.8-2.8,7.5
				c2.3,1.4,4.3,3.9,5.9,5.6c3.4-12,13.5-16.6,19.6-27.5C373.3-92.3,379.1-95.4,374.1-102.5L374.1-102.5z"/>
		</g>
		<g>
			<path class="st4" d="M398.5-76.7c-1-0.8-2.1-1.5-2.1-1.5c-4.9,5-7.3,12.4-12,17.3c-6.4,4.3-9.2,11.8-12.8,18.4
				c1.9,2.6,4,4.1,5.8,6.8c2.9-6.4,5.6-13.8,11.9-18c3.9-4.6,6.9-10,10.3-16.7C400.8-71.9,400.9-74.2,398.5-76.7L398.5-76.7z"/>
		</g>
		<g>
			<path class="st4" d="M420.4-49.6c-1.2-1.8-2.9-2.4-4-0.9c-3.8,12.3-12.8,16.2-18.1,26.6c-0.6,2.4-2.5,5.1-1.8,7.1
				c0.1,2.1,2.4,4.7,4.4,6.2c0.3-1.2,0.6-2.3,0.9-3.5c5.4-9.3,12.9-14.9,18.1-26.5C421-42,424.3-43.1,420.4-49.6L420.4-49.6z"/>
		</g>
		<g>
			<g>
				<path class="st5" d="M297.9-55c2.3,2.4-1.6,4.8,5.6,6.5c6.2-12.7,17.1-20.9,22.5-35.7c-2.4-1.3-4.6-3.8-6.3-5.3
					c-1.5,2.7-2.1,5.1-2.8,7.5C311.5-71.4,300.4-66.5,297.9-55L297.9-55z"/>
			</g>
			<g>
				<path class="st5" d="M326.9-33.1c-0.2,1.1-0.4,2.3,0.1,3.1c1,1.8,4.8,5.8,6.1,2.2c3.9-9.8,11.7-15.6,17.3-24.9
					c1.3-2.6,1.9-5,3.3-7.6c-2.3-1.4-4.6-2.8-6.6-5.3C341.8-53,332.5-44.5,326.9-33.1L326.9-33.1z"/>
			</g>
			<g>
				<path class="st5" d="M355.8-3.3c1.1,0.7,2.2,1.4,2.8,1.2c4.4-7.7,9.4-14.6,14.9-22.7c1.5-3.7,5.1-5.9,4.3-10
					c-0.1-2.1-3.3-4.3-5.1-7c-2.7,8.4-7.5,15.3-12.5,21.2C356.5-17.3,351-11.3,355.8-3.3L355.8-3.3z"/>
			</g>
			<g>
				<path class="st5" d="M381.3,21.8c1,0.8,1.4,1.7,2,1.5c1.2-0.3,1.5-2.5,1.9-4.7C390,7.7,398,2.1,401.9-9.8
					c-2-1.6-3.9-3.1-5.7-5.9c-2.7,11.6-10,15.9-14.6,24.7c-1.6,2.6-3.2,5.1-2.7,9.2C379.4,19.2,380.9,20.9,381.3,21.8L381.3,21.8z"
					/>
			</g>
		</g>
	</g>
</g>
<g>
	<g>
		<g>
			<path class="st2" d="M368.6-159.9c-3.8,2.1,2.7,6.3,5.5,9.1c31.5,26.7,55.3,53.1,80.5,81.6c4.6,4.6,8.8,9.4,13.4,14
				c2.8,2.8,5.6,6.8,8.4,9.5c24.7,25.1,49.3,49.1,76.1,74.6c1.9,1.8,3.8,3.6,4,3.4c1.6-1.8,3.3-3.6,5-5.4
				c-14.1-22.4-27.8-45.1-40.9-68.1c-24.9-46.2-45.3-93.5-78.5-137.4C419.6-169.4,392.3-167.1,368.6-159.9L368.6-159.9z"/>
		</g>
		<g>
			<path class="st3" d="M515.6-196.2c-24.4,6.2-49.6,10.4-73.6,17.6c23.3,30.5,40.8,63.6,56.5,97.3c2.9,5,5.3,10.1,8.2,15
				c1.7,3,3.2,7.2,5,10.2c12.1,20.9,24.3,41.8,37.1,62.4c4.2,6.9,8.4,13.7,12.6,20.6c1.6-1.8,3.3-3.6,4.9-5.3
				c0.3-0.3-1.2-6.6-1.9-9.7C552.7-31.9,546-76.4,538-120.3c-3.7-25.9-7.7-50.6-18.1-74.8C518.7-195.9,517.5-196.7,515.6-196.2
				L515.6-196.2z"/>
		</g>
		<g>
			<path class="st4" d="M510.1-149.8c-1.4-1.9-2.9-3.7-4.5-3.3c-7.8,4.4-18,4.8-27.6,5.1c-6.1,0.5-9.8,3.7-15.3,5.2
				c1.7,3,3.5,6,5.2,8.9c9.2-3.6,19.5-5.3,30.1-5.8C502.5-140.9,511.3-141.1,510.1-149.8L510.1-149.8z"/>
		</g>
		<g>
			<path class="st4" d="M523.1-109.2c-0.3-1-1.9-4-2.6-3.8c-6.6,0.7-13,3.7-19.7,4.5c-6-0.6-11.7,1-15.6,4.4c1.7,3,3.5,6,5.2,8.9
				c1.8-2.8,4.7-2.5,7.7-3.4c7.8-3.4,18.5,0.3,25.1-6.1C523.5-105.9,522.8-108,523.1-109.2L523.1-109.2z"/>
		</g>
		<g>
			<path class="st4" d="M535.6-69.7c-1.1-1.9-2.2-3.9-3.2-3.6c-4.2,3.7-10.5,3.3-16.5,2.9c-3.8,0-7.1,1.1-7.6,5.9
				c0.1,1.1,2.3,4,4,6.9c5-2.8,11-3.6,17.3-3.4C532.2-61.6,537.5-61.1,535.6-69.7L535.6-69.7z"/>
		</g>
		<g>
			<path class="st4" d="M548.5-29.1c-0.3-1-1.6-4-1.9-3.9c-3.3,0.1-6.1,2.4-9.5,2.5c-3.4-1.1-6.1-0.1-7.4,2.8c1.7,3,3.5,6,5.2,8.9
				c1-2.9,3.1-3.7,5.7-3.6c3.5,1,6-0.1,8.6-1.1C549.7-23.7,549.5-26,548.5-29.1L548.5-29.1z"/>
		</g>
		<g>
			<g>
				<path class="st5" d="M420.2-131.5c-2.4,0.6,0.1,3.5,1,5.6c1.6,1.9,4.8,3.4,6.3,3c6.7-4.1,17.3-4.7,26.8-4.9
					c5.8-0.4,9.6-2.6,13.7-6c-1.7-3-3.5-6-5.2-8.9c-5.2,4.8-12.9,5.7-22.1,5.9C432.9-136,425.8-135.3,420.2-131.5L420.2-131.5z"/>
			</g>
			<g>
				<path class="st5" d="M450.8-95.5c-1.9,0.5,0.6,3.4,1.6,5.4c0.8,0.9,2.5,2.8,4.5,3.4c2.4-0.7,3.9-2.3,7.1-2.1
					c8.8-2.6,19.6-1,26.5-6.5c-1.7-3-3.5-6-5.2-8.9c-3.8,3.4-8.7,4.8-15,4.3C463.4-99,457.1-97.3,450.8-95.5L450.8-95.5z"/>
			</g>
			<g>
				<path class="st5" d="M484.5-53.2c2.1,1.7,4.1,3.5,5,3.2c3.1-3.4,9.7-3.2,15.7-2.8c3.5,0,5.4-1.8,7.1-4.7c-1.7-3-3.5-6-5.2-8.9
					c-1.6,2.9-3.7,4.7-7.5,4.7c-6.9-0.2-15.9-2.1-17.6,4.4C482.5-56.2,484.1-54.3,484.5-53.2L484.5-53.2z"/>
			</g>
			<g>
				<path class="st5" d="M515.8-17.3c0.8,0.9,3.6,3.7,3.8,3.6c3.4-0.1,5.5-2.3,8.8-2.4c3.4,1.1,5.6,0.2,6.5-2.7
					c-1.7-3-3.5-6-5.2-8.9c-1.1,2.9-4.1,2.8-6.4,3.7c-0.9,0.3-3.2-1.3-4.1-0.9c-2.4,0.9-6.4-0.1-6.1,3.6
					C513.6-20.2,515.2-18.3,515.8-17.3L515.8-17.3z"/>
			</g>
		</g>
	</g>
</g>
<g>
	<path class="st2" d="M602.2,32c-3.7-3.8-7.1-7.4-10.6-11c-0.4-0.4-1.2-0.8-1.7-0.7c-5.3,0.9-10.6,1.9-16.5,3
		c-3.1-7.7-6.2-15.5-9.4-23.5c4-2.6,7.5-5.2,11.3-7.4c2.8-1.6,4-3.2,3.5-6.6c-0.5-3.5,0.2-7.2,0.3-10.7c0-0.6-0.5-1.3-1-1.6
		c-3.9-2.8-7.7-5.6-11.7-8.2c-1.2-0.8-1.7-1.5-1.2-2.9c1.8-4.7,3.6-9.4,5.5-14.1c0.8-1.9,1.7-3.8,2.7-5.6c0.8-1.4,1.4-2.5,3.7-1.8
		c4.4,1.3,9,1.9,13.5,2.7c0.6,0.1,1.6-0.1,2.1-0.5c3.3-3.1,6.9-6,9.9-9.5c0.9-1,0.5-3.6,0.2-5.3c-0.6-3.8-1.6-7.5-2.2-11.3
		c-0.1-0.6,0.8-1.7,1.4-2.1c4.3-2,8.6-3.9,12.9-5.6c2.5-1,5.2-1.9,7.8-2.6c0.6-0.2,1.9,0.4,2.3,1c2.6,3.9,4.9,7.9,7.5,11.8
		c0.6,0.8,2,1.1,3.1,1.2c4.1,0.2,8.3,0.3,12.6,0.3c0.8,0,1.8-0.6,2.2-1.1c2.8-3.8,5.5-7.7,8.2-11.7c0.6-0.9,1.1-1.4,2.3-1
		c4.7,1.8,9.5,3.5,14.1,5.4c2.4,1,4.4,2.5,6.8,3.5c1.5,0.6,1.4,1.6,1.1,2.8c-1,4.7-2,9.3-2.9,14c-0.1,0.6,0.1,1.6,0.6,2
		c2.9,3.1,5.9,6,8.9,9.1c1,1,1.7,1.5,3.4,1.1c4.9-1.1,9.9-1.8,15.6-2.8c3.1,7.7,6.2,15.6,9.5,23.6c-4.4,2.8-8.3,5.4-12.5,7.9
		c-1.7,1-2.7,2-2.5,4.4c0.3,3.8,0,7.7-0.2,11.5c-0.1,1.5,0.3,2.5,1.6,3.3c3.9,2.5,7.7,5,11.4,7.6c0.5,0.3,1.1,1.3,1,1.7
		c-2.4,6-4.8,11.9-7.2,17.8c-0.5,1-1.4,2-1.6,3c-0.6,2-1.7,1.8-3.3,1.5c-4.2-1-8.5-1.9-12.8-2.6c-1.1-0.2-2.6,0.2-3.4,1
		c-3,2.8-5.6,6-8.7,8.6c-1.4,1.1-1.4,2.1-1.1,3.3c0.8,4.6,1.9,9.1,2.6,13.7c0.1,0.8-1,2.1-1.8,2.5c-2.3,1.4-4.7,2.5-7.2,3.4
		c-4.8,1.8-9.7,3.4-14.5,5.1c-3-4.8-5.6-9.1-8.5-13.4c-0.5-0.8-1.3-1.4-2.8-1.2c-4.3,0.3-8.7-0.2-13-0.1c-0.9,0-1.9,0.7-2.5,1.4
		c-2.5,3.4-4.9,6.9-7.3,10.5c-1,1.5-1.7,2-3.7,1.4c-7.4-2.1-14-5.3-20.4-9c-0.5-0.2-0.9-1.4-0.8-1.9C599.9,42,601.1,36.8,602.2,32z
		 M595.1,0.9c8.6,23.1,36.2,38.9,64.1,27.7c28.3-11.4,36.2-41.5,27.7-63.6c-9.2-23.8-37.1-38.7-64-28
		C595.7-52.6,585.2-22.3,595.1,0.9z"/>
	<path class="st5" d="M595.1,0.9c-9.9-23.2,0.6-53.5,27.7-64.1c26.9-10.6,54.9,4.4,64,28c8.6,22.2,0.6,52.3-27.7,63.6
		C631.3,39.8,603.7,24,595.1,0.9z M650.9,7.8c13.2-5.2,21.1-20.3,15.1-35c-6.4-16.1-23.6-19.7-35-15.2
		c-11.7,4.6-21.3,19.2-15.2,35.1C621.2,6.6,637.1,13.3,650.9,7.8z"/>
	<path class="st6" d="M667.8-39.9c-1.3,0-2.5-0.6-3.3-1.6c-4.8-5.7-11.8-9-19.2-9c-2.5,0-4.4-2-4.4-4.4s2-4.4,4.4-4.4
		c10,0,19.5,4.4,25.9,12.2c1.6,1.8,1.3,4.6-0.6,6.2C669.8-40.2,668.8-39.9,667.8-39.9z"/>
</g>
<g>
	<path class="st7" d="M660.7,203.8c1.2-4,3.3-4.8,6.7-5.3c8.1-1.4,16.1-3,24.8-4.6c0-14.8,0-29.2,0-43.5c-9.5-2.1-18-4.2-26.5-5.5
		c-2.9-0.5-3.9-1.8-4.8-4c-2.9-6.7-5.7-13.3-8.3-20c-0.4-1-0.2-2.6,0.4-3.6c4.4-6.9,8.9-13.7,13.4-20.4c1.1-1.7,2-3.1,0-5.1
		c-3.1-3.1-5.5-6.9-8.6-9.9c-6.3-6-12.7-11.7-19-17.6c-1.6-1.5-2.7-1-4.2,0.1c-6.8,4.5-13.5,9.1-20.4,13.3c-1.2,0.7-3.1,0.9-4.4,0.4
		c-6.7-2.6-13.2-5.5-19.7-8.5c-1.7-0.8-3.8-2.3-4.1-3.8c-1.7-7.8-2.9-15.7-4.6-23.4c-0.2-1.2-1.8-2.9-3-3c-4.7-0.6-9.4-0.9-14.1-0.8
		c-1.8,0-3.6,0.1-5.4,0.1v48.9c0.2,0,0.3,0,0.5,0c49.7,0.2,84.6,41.7,84.1,85.3c-0.4,40.8-32.1,83.6-84.4,83.8c-0.1,0-0.2,0-0.2,0
		v49.2c1.4,0.1,2.8,0.1,4.2,0.2c4.5,0.1,9.1-0.2,13.7-0.9c1.7-0.2,4.2-1.6,4.5-2.9c1.8-7.8,2.9-15.7,4.6-23.4c0.4-2,1-3.5,3.9-4.4
		c6.6-2.1,12.7-5.6,19.2-8.1c1.7-0.6,4.4-0.4,6,0.6c6.4,3.9,12.5,8.1,18.6,12.3c2.2,1.5,4.1,2.5,6.2-0.3c1.1-1.5,3.1-2.4,4.5-3.8
		c7.7-7.9,15.3-15.7,22.9-23.7c0.5-0.5,0.1-2.4-0.5-3.3c-4.4-6.5-8.8-13-13.4-19.5c-1.5-2.1-1.5-4-0.4-6.4
		C655.9,216,658.9,210.1,660.7,203.8z"/>
	<path class="st8" d="M474.7,171.8c-1-43.1,34.6-84.3,84.3-84.3V38.6c-6.3,0.2-12.5,0.4-18.8,0.7c-1.3,0.1-3.4,1.4-3.7,2.4
		c-1.4,6.4-2.2,13-3.7,19.4c-0.6,3-1.5,7.2-3.7,8.4c-6.9,3.7-14.4,6.1-21.7,8.9c-1,0.4-2.6,0.1-3.6-0.5c-6.7-4.1-13.5-8.1-19.7-12.9
		c-3.2-2.5-4.9-1.3-7.1,0.6c-2.7,2.3-5.4,4.6-7.9,7.2c-6,6.2-11.7,12.6-17.6,18.9c-1.8,2-1.4,3.3,0,5.4c4.6,6.7,9.1,13.6,13.4,20.4
		c0.6,0.9,0.9,2.3,0.5,3.2c-2.4,5.6-5.9,11-7.4,16.8c-1.4,5.7-4.4,7.5-9.8,8.3c-7.4,1-14.7,2.9-22.7,4.6c0,14.8,0,29.2,0,43.4
		c10.1,2.1,19.2,3.8,28.2,5.7c0.9,0.2,1.9,1.3,2.2,2.1c3.3,7.9,6.4,15.8,9.9,24.2c-4.8,7-9.9,14.5-15,22.1c-0.6,0.9-0.6,2.8,0,3.6
		c7.9,9.9,16.4,19.4,26.8,27c3,2.2,4.4,1.7,6.8,0c6-4.1,12.1-8.2,18.3-12c1.3-0.8,3.5-1.3,4.8-0.7c6.9,2.7,13.5,6.2,20.5,8.4
		c2.5,0.8,3.3,2.1,3.7,3.7c1.8,8.6,3.3,17.3,5,26.8c7.2,0.3,14.6,0.8,22,1v-49.2C507.5,256.6,473.6,214,474.7,171.8z"/>
	<path class="st2" d="M559.5,87.5c-0.2,0-0.3,0-0.5,0v38.2h0.1c21.1,0.1,46.2,16.8,46.2,46.4c0,27.3-22,46.2-46.2,46.2v38.3
		c0.1,0,0.2,0,0.2,0c52.3-0.2,84-43.1,84.4-83.8C644.1,129.2,609.2,87.7,559.5,87.5z"/>
	<path class="st9" d="M558.9,218.2c-25.4,0-46.4-20.8-46.2-46.3c0.2-29.2,24.8-46.2,46.2-46.2V87.5c-49.7,0-85.3,41.2-84.3,84.4
		c-1.1,42.2,32.7,84.8,84.3,84.7V218.2C559,218.2,558.9,218.2,558.9,218.2z"/>
	<path class="st6" d="M603,132.9c-1.8,0-3.6-0.8-4.8-2.3c-6.9-8.2-16.9-12.9-27.6-12.9c-3.5,0-6.4-2.9-6.4-6.4s2.9-6.4,6.4-6.4
		c14.4,0,28,6.4,37.2,17.5c2.2,2.7,1.9,6.7-0.8,8.9C605.9,132.4,604.5,132.9,603,132.9z"/>
	<path class="st5" d="M559,292.1c1.3,0,2.5,0.1,3.8,0.1c0.3,0,0.7,0,1,0c1,0,2.1,0,3.2-0.1c0.3-1.6,0.6-3.2,0.9-4.8
		c0.6-3.3,1.2-6.6,1.9-9.9c0.3-1.4,0.6-2.7,1.1-3.9c-3.8,0.5-7.8,0.7-11.8,0.7L559,292.1L559,292.1z"/>
	<path class="st5" d="M570.7,73c-0.4-1-0.8-2-1-3.2c-1.1-4.6-1.9-9.3-2.8-13.7c-0.1-0.5-0.2-0.9-0.2-1.4c-0.8,0-1.6,0-2.4,0h-0.8
		c-1.4,0-2.9,0-4.4,0.1v17.5C563,72.3,566.9,72.5,570.7,73z"/>
	<path class="st5" d="M635.4,83.7c-0.2-0.2-0.2-0.2-0.4-0.4c-4.5,3-8.7,5.7-13,8.4c-0.8,0.5-1.6,1-2.5,1.4c3.6,2.7,6.9,5.7,10.1,9
		c3,3.1,5.9,6.4,8.5,9.8c0.3-0.7,0.7-1.4,1.1-2.1c2.9-4.6,6-9.3,9-13.8c-0.6-0.8-1.3-1.5-1.8-2.1C642.9,90.4,639.2,87.2,635.4,83.7z
		"/>
	<path class="st5" d="M638.1,235.3c-5.1,6.8-11.1,13-18,18.3c1,0.4,2,0.9,2.9,1.4c4.3,2.6,8.4,5.3,12.5,8.1c3.9-4,8.2-8.3,12.6-13
		c-2.5-3.5-5-7.2-7.6-11C639.4,237.9,638.6,236.5,638.1,235.3z"/>
	<path class="st5" d="M676.3,164.2c-4.5-1-9-1.9-13.2-2.5c-1.7-0.2-3.3-0.6-4.8-1.3c0.6,4.5,0.9,9.1,0.9,13.7c0,4-0.3,7.9-0.8,11.8
		c1.9-0.8,4-1.4,6.2-1.7c3.9-0.7,7.8-1.4,11.8-2.1L676.3,164.2z"/>
	<path class="st10" d="M448.9,162.8c-2.9,0.4-5.9,1-9.1,1.7v18c5.4,1.1,10.6,2.1,15.8,3.3c0.8,0.2,1.5,0.4,2.2,0.6
		c-0.5-4.3-0.7-8.7-0.6-13c-0.1-4.3,0.2-8.7,0.6-13C455.3,161.5,452.2,162.3,448.9,162.8z"/>
	<path class="st10" d="M547.2,65.1l-0.1,0.3c-0.5,2.1-1,4.8-2.2,7.7c4.4-0.6,8.7-0.9,13.2-0.9h0.4c0.2,0,0.3,0,0.5,0V54.7
		c-3.3,0.1-6.6,0.2-9.9,0.3C548.5,58.3,548,61.6,547.2,65.1z"/>
	<path class="st10" d="M558.5,274.3h-0.6c-4.1,0-8.2-0.2-12.2-0.7c0.4,1,0.6,2.1,0.9,3.1c1,5,2,9.9,2.9,15c3.2,0.2,6.4,0.2,9.5,0.4
		v-17.8C558.9,274.3,558.6,274.3,558.5,274.3z"/>
	<path class="st10" d="M478.3,235.7c0,0-2.8,4.1-3.8,5.6c-2.1,3.1-4.3,6.3-6.4,9.5c3.7,4.2,7.8,8.6,12.5,12.6
		c4.4-2.9,8.7-5.7,13-8.4c0.9-0.6,1.8-1,2.8-1.4c-3.7-2.8-7.2-5.9-10.4-9.2C483.1,241.6,480.7,238.8,478.3,235.7z"/>
	<path class="st10" d="M490.1,89.5c-3.3-2-6.6-4-9.9-6.2c-0.4,0.3-0.7,0.7-1,1c-3.1,3.3-6.2,6.7-9.2,9.9c-0.6,0.6-1.3,1.4-1.8,2.1
		c3,4.6,6,9.2,8.8,13.6c0.3,0.6,0.6,1.1,1,1.7c2.5-3.2,5.1-6.2,7.9-9.1c3.3-3.4,6.8-6.5,10.5-9.4c-0.7-0.3-1.4-0.7-2.1-1.1
		C492.8,91.2,491.5,90.4,490.1,89.5z"/>
</g>
<g>
	<g>
		<g>
			<path class="st2" d="M232.1,215.5c0.4,0.7,0.5,1.7,1.8,2.4c20.1,7.1,39.4,14.6,58.1,24.2c29.7,15.2,59.7,31.1,88.6,37.7
				c1.2,0.2,0.8-1.7,0.9-2.7c-2.4-17.2-2.4-32.6-3.7-48.5c-27.3-3.7-55-18.1-83.4-31c-1.6-0.8-3.9-1.6-5.7-2
				c-1.1-0.6-2.1-1.1-3.2-1.7c-13.2-5-26.3-9.6-39.8-13C240.2,192,237,203.9,232.1,215.5L232.1,215.5z"/>
		</g>
		<g>
			<path class="st3" d="M259.3,147.1c-1.2,2.1-1.8,4.5-2.9,6.7c-4.4,8.7-8.4,17.2-12.5,26.2c13.3,3.8,26,7.7,38.5,12.8
				c17.9,7.4,33.9,15.8,51.6,23c14.8,5.6,28.5,9.6,42.6,12.7c-0.1-3.2-0.7-6.7-0.8-9.8c0.2-5.1-0.2-9.5-0.5-14.8
				c0.2-7.7,0.8-15.2-0.2-23.4c-0.4-0.7-1.2-1.1-2.1-1.5c-22.7-2.3-44.2-11.8-67.5-20.3c-13.8-5.5-28.4-10.1-43.9-12.6
				C260.9,146.1,260.3,146.7,259.3,147.1L259.3,147.1z"/>
		</g>
		<g>
			<path class="st4" d="M280,164.6c-1.2-0.1-2.4-0.3-2.9,0.4c-1,6.5-4.2,11.4-7.1,17c-1.1,2.8-2.1,5.5-1.1,8.4
				c1.2,1.6,4.3,1.3,5.9,2.2c-0.6-3.7,0.6-6.8,2.1-9.4c1.8-5.2,4.2-10.1,5.6-15.5C282.7,166.4,281.3,165.6,280,164.6L280,164.6z"/>
		</g>
		<g>
			<path class="st4" d="M303.2,172.2c-1.5-0.7-3,0-2.9,0.9c0.2,2-0.3,4.2-0.6,5.9c-2.6,6.4-5.9,12.9-5.6,20.3c2,1.5,4,1.6,6.3,2.3
				c-1.3-7,1.9-12.6,3.5-18.6C304.7,180.1,308,174.5,303.2,172.2L303.2,172.2z"/>
		</g>
		<g>
			<path class="st4" d="M325.4,178.6c-0.5-0.2-1.6-0.3-1.9,0.5c-1.1,5.8-1.7,11.9-3.2,17.5c-1.3,3.3-2.7,7-0.4,11.2
				c0.2,1.1,3.2,1.7,4.9,2.1c-0.9-6.4,0.4-11.7,2.4-17.2c0.9-4,2.2-7.8,1-12.3C327.8,179.8,326.4,179.1,325.4,178.6L325.4,178.6z"/>
		</g>
		<g>
			<path class="st4" d="M347.5,184.8c-1.1,0-2.1,0-2.3,0.4c0.4,8.2-2.1,15.1-2.1,23.6c-0.1,2.5-1.2,4.5,0.4,7.3
				c1.3,1.7,3.9,1,5.3,2.2c-0.9-3.5-0.1-6.7-0.5-9.9c-0.3-3.2,1.5-5.9,1.6-8.8c0.1-2.5,0.1-4.5,0.6-6.8c-0.1-1.6-0.1-3.6-0.3-5.2
				C350.2,186.6,349.5,185.3,347.5,184.8L347.5,184.8z"/>
		</g>
		<g>
			<g>
				<path class="st5" d="M261.6,216.2c0.6,1.8,3.3,3.8,5.6,4.1c0,0,0.8,0,1-0.4c0.7-4,0.6-7.9,2.3-10.9c2.7-4.8,4.3-10.2,4.9-16.1
					c-2.4-0.8-4.5-0.9-6.4-2.4c0.2,2,0.2,4.4-0.9,6.2C266.2,203.3,262.7,209.1,261.6,216.2L261.6,216.2z"/>
			</g>
			<g>
				<path class="st5" d="M289.5,227.3c1.1,2.6,4,4.2,6.5,3.6c-0.7-8.3,3.2-14.1,3.9-22.1c0.3-2.3,1.2-4.3,0.5-7.1
					c-1.8-0.5-3.6-0.9-5.7-2c1,7.9-2.4,13.8-4.8,20.4C288.9,222,290.4,225.3,289.5,227.3L289.5,227.3z"/>
			</g>
			<g>
				<path class="st5" d="M320.3,241.3c0.6,0.3,1.9,0.5,2.2-0.3c1.2-5.9,0.7-12.8,2-18.6c1.1-3.4,1.8-7.6,0.8-12.1
					c-1.7-0.4-3.5-0.8-5.6-1.9c-0.4,2.8,0.3,6.2,0,9c-1.8,7-5.3,13.2-2.7,21.6C317.4,239.7,319.2,240.7,320.3,241.3L320.3,241.3z"/>
			</g>
			<g>
				<path class="st5" d="M346.4,251c1.2,0.6,2.3,1.3,2.6-0.1c-0.4-6.9-0.2-13.5,1.1-19.5c0.4-4.4-0.4-8.9-0.6-13.1
					c-2.2-0.6-4-0.5-6-2.1c0.6,2.3,0.5,4.9,1,7.7c-0.3,8.6-3.8,15.4-1,25.1C344.1,249.7,345.2,250.3,346.4,251L346.4,251z"/>
			</g>
		</g>
	</g>
</g>
</svg>
