<?xml version="1.0" encoding="utf-8"?>
<!-- Generator: Adobe Illustrator 19.0.0, SVG Export Plug-In . SVG Version: 6.00 Build 0)  -->
<svg version="1.1" id="Layer_1" xmlns="http://www.w3.org/2000/svg" xmlns:xlink="http://www.w3.org/1999/xlink" x="0px" y="0px"
	 viewBox="96 11 512 512" style="enable-background:new 96 11 512 512;" xml:space="preserve">
<style type="text/css">
	.st0{fill:#FF8C29;}
	.st1{fill:#FD6A33;}
	.st2{fill:#E6EAEA;}
	.st3{fill:#CDD4D5;}
	.st4{fill:none;stroke:#F0353D;stroke-width:25;stroke-linecap:round;stroke-linejoin:round;}
	.st5{fill:#F0353D;}
</style>
<path class="st0" d="M352,11C210.9,11,96,125.9,96,267s114.9,256,256,256s256-114.9,256-256S493.1,11,352,11z"/>
<path class="st1" d="M96,267c0,140.6,113.5,254.6,253.7,256V11C209.5,12.4,96,126.4,96,267z"/>
<path class="st2" d="M351.5,50.5c-0.7,0-1.2,0-1.9,0v431.3c0.7,0,1.2,0,1.9,0c119,0,215.7-96.8,215.7-215.7S470.3,50.5,351.5,50.5z"
	/>
<path class="st3" d="M135.7,266.3c0,118.3,95.7,214.7,213.8,215.7V50.7C231.4,51.6,135.7,148,135.7,266.3z"/>
<g>
	<g>
		<path class="st4" d="M427,141.5c-22.4-13.9-48.8-21.7-77-21.7c-25.5,0-49.4,6.5-70.3,17.9"/>
		<g>
			
				<rect x="406.3" y="120.9" transform="matrix(0.5258 -0.8506 0.8506 0.5258 82.0884 430.2777)" class="st5" width="41.3" height="41.3"/>
		</g>
		<g>
			<circle class="st5" cx="279.6" cy="137.7" r="23.5"/>
		</g>
	</g>
</g>
<g>
	<g>
		<path class="st4" d="M205.1,289.5c-1.2-7.6-1.8-15.3-1.8-23.2c0-34.4,11.8-65.9,31.5-90.9l233.3,177.6
			c17.9-24.3,28.5-54.3,28.5-86.8c0-5.3-0.3-10.5-0.8-15.6"/>
		<g>
			<path class="st5" d="M225,343.3c0.6-28.8,5.7-66,15.9-91.5l-37.3,30.3l-48-0.6C179.5,295.2,206.7,321.1,225,343.3z"/>
		</g>
		<g>
			<path class="st5" d="M478.7,196c17.2,23.1,43,50.4,66.2,65.3l-48-3l-38.8,28.4C469.7,261.6,476.7,224.7,478.7,196z"/>
		</g>
	</g>
</g>
<g>
	<g>
		<path class="st4" d="M277.4,394c21.3,12.2,46,19.1,72.5,19.1c27.4,0,53-7.5,75-20.5"/>
		<g>
			<circle class="st5" cx="277.4" cy="394" r="23.5"/>
		</g>
		<g>
			
				<rect x="404.3" y="372" transform="matrix(0.5098 0.8603 -0.8603 0.5098 546.0701 -173.1003)" class="st5" width="41.3" height="41.3"/>
		</g>
	</g>
</g>
</svg>
