<?xml version="1.0" encoding="utf-8"?>
<!-- Generator: Adobe Illustrator 19.0.0, SVG Export Plug-In . SVG Version: 6.00 Build 0)  -->
<svg version="1.1" id="Layer_1" xmlns="http://www.w3.org/2000/svg" xmlns:xlink="http://www.w3.org/1999/xlink" x="0px" y="0px"
	 viewBox="96 11 512 512" style="enable-background:new 96 11 512 512;" xml:space="preserve">
<style type="text/css">
	.st0{fill:#CDD4D5;}
	.st1{fill:#9BAAAB;}
	.st2{fill:#E6EAEA;}
	.st3{fill:none;stroke:#CDD4D5;stroke-width:10;stroke-linejoin:round;stroke-miterlimit:10;}
	.st4{fill:none;stroke:#E6EAEA;stroke-width:10;stroke-linejoin:round;stroke-miterlimit:10;}
	.st5{fill:#FF8C29;}
	.st6{fill:#FD6A33;}
	.st7{fill:#FFD1A9;}
	.st8{fill:#4ACFD9;}
	.st9{fill:#0295AA;}
	.st10{fill:#FFFFFF;}
	.st11{font-family:'CopperplateGothic-Bold';}
	.st12{font-size:89.9355px;}
	.st13{fill:none;stroke:#F0353D;stroke-width:22;stroke-linecap:round;stroke-miterlimit:10;}
	.st14{fill:#F0353D;}
</style>
<g>
	<path class="st0" d="M599.5,445L397.4,344.7c-11.8-6.9-27.4-10.4-43-10.4v135.8h238.3C606.6,470.1,613.1,453.8,599.5,445z"/>
	<path class="st1" d="M311.4,344.7L104.8,445c-12.6,7.3-9.8,25.1,6.8,25.1h242.7V334.3C338.8,334.3,323.2,337.8,311.4,344.7z"/>
	<path class="st0" d="M569,484.9H354.4V521H569c7.5,0,13.6-6.1,13.6-13.6v-9.1C582.5,491,576.4,484.9,569,484.9z"/>
	<path class="st1" d="M136.4,484.9c-7.5,0-13.6,6.1-13.6,13.6v9.1c0,7.5,6.1,13.6,13.6,13.6h218V485L136.4,484.9L136.4,484.9z"/>
	<circle class="st0" cx="300.1" cy="503.3" r="12.5"/>
	<circle class="st0" cx="198.1" cy="503.3" r="12.5"/>
	<circle class="st2" cx="506.7" cy="503" r="12.5"/>
	<circle class="st2" cx="404.6" cy="503" r="12.5"/>
	<polyline class="st3" points="300.1,503.3 300.1,439.6 354.4,439.6 	"/>
	<polyline class="st3" points="198.1,503.3 198.1,439.6 262.3,439.6 262.3,406.3 354.4,406.3 	"/>
	<polyline class="st4" points="405.3,503.3 405.3,439.6 351.1,439.6 	"/>
	<polyline class="st4" points="507.4,503.3 507.4,439.6 443.1,439.6 443.1,406.3 351.1,406.3 	"/>
	<path class="st5" d="M354.4,351.7V461c30.2,0,54.6-24.5,54.6-54.6S384.5,351.7,354.4,351.7z"/>
	<path class="st6" d="M299.7,406.3c0,30.2,24.5,54.6,54.6,54.6V351.6C324.2,351.7,299.7,376.1,299.7,406.3z"/>
	<path class="st7" d="M446.7,522"/>
</g>
<g>
	<path class="st8" d="M354.4,12c-85.1,0-154.3,69.3-154.3,154.3s69.3,154.3,154.3,154.3s154.3-69.3,154.3-154.3S439.4,12,354.4,12z"
		/>
	<path class="st9" d="M200,166.3c0,84.7,68.5,153.5,153,154.3V12C268.5,12.8,200,81.6,200,166.3z"/>
	<path class="st2" d="M354,35.8c-0.4,0-0.7,0-1.1,0v260c0.4,0,0.7,0,1.1,0c71.7,0,130-58.4,130-130S425.7,35.8,354,35.8z"/>
	<path class="st0" d="M223.9,165.9c0,71.3,57.7,129.5,128.9,130v-260C281.6,36.5,223.9,94.6,223.9,165.9z"/>
	<path class="st5" d="M408.8,167.7c-2.3-6.2-5.7-10.7-10.2-13.4s-10.7-4.6-18.6-5.7l-27-3.1v35.1l6.6,0.9c5,0.6,8.4,1.2,10.4,1.9
		c1.9,0.7,3.2,1.8,3.9,3.4c0.7,1.6,1,4.5,1,8.5c0,4.3-0.6,7.3-1.7,9.3s-3.8,3.4-7.8,4.2c-2.8,0.6-7,1-12.3,1.1v54.6h13.2v-21.9
		c15.4-0.7,26.9-4.6,34.6-11.4c7.7-6.8,11.5-19.2,11.5-37.1C412.2,182.7,411.1,174,408.8,167.7z"/>
	<path class="st5" d="M358,116.5c12.5,0,27.8,0.9,45.9,2.6V88.6c-4.6-1-10.6-1.9-17.8-2.9c-7.2-1-13.9-1.6-20.1-1.7V61.5h-13.2v55.1
		C354.5,116.5,356.2,116.5,358,116.5z"/>
	<path class="st6" d="M345.3,209.9c-14.8,0-31.4-0.7-49.9-2.3v30.5c12.5,2.3,26.7,3.8,42.7,4.3v21.9h14.8v-54.6
		C350.7,209.9,348.1,209.9,345.3,209.9z"/>
	<path class="st6" d="M338.1,84.1c-15.6,1.1-27.4,5.1-35.5,11.8c-8.1,6.7-12.1,18.1-12.1,34.1c0,14.2,2.4,25.1,7,32.6
		c4.7,7.5,14,12.2,27.8,14.2l27.5,3.8v-35.1l-10.5-1.2c-4.8-0.6-8.1-1.2-10-1.9c-1.8-0.7-3-1.8-3.6-3.4c-0.6-1.6-0.9-4.5-0.9-8.5
		c0-4.3,0.9-7.3,2.7-9.3c1.8-1.9,4.7-3.2,8.7-3.8c3.1-0.5,7.6-0.7,13.5-0.8V61.4h-14.8L338.1,84.1L338.1,84.1z"/>
</g>
<text transform="matrix(1 0 0 1 317.8754 438.0831)" class="st10 st11 st12">E</text>
<g>
	<g>
		<path class="st13" d="M547.4,336.7c20.6-42.5,21.3-103.3-25.8-138.8"/>
		<g>
			<polygon class="st14" points="582.7,350.6 511.1,378.4 522.8,302.5 			"/>
		</g>
	</g>
</g>
<g>
	<g>
		<path class="st13" d="M149,236.2c-24.6,53-3.7,125.4,46.3,143.5"/>
		<g>
			<polygon class="st14" points="114,222.5 185.5,194.7 173.9,270.6 			"/>
		</g>
	</g>
</g>
</svg>
