<?xml version="1.0" encoding="utf-8"?>
<!-- Generator: Adobe Illustrator 19.0.0, SVG Export Plug-In . SVG Version: 6.00 Build 0)  -->
<svg version="1.1" id="Profit_Loss" xmlns="http://www.w3.org/2000/svg" xmlns:xlink="http://www.w3.org/1999/xlink" x="0px"
	 y="0px" viewBox="96 11 512 512" style="enable-background:new 96 11 512 512;" xml:space="preserve">
<style type="text/css">
	.st0{fill:#FF8C29;}
	.st1{fill:#FD6A33;}
	.st2{fill:#687F82;}
	.st3{fill:#365558;}
	.st4{fill:#FFD1A9;}
	.st5{fill:#0295AA;}
	.st6{fill:#4ACFD9;}
	.st7{display:none;fill:#0295AA;}
	.st8{display:none;fill:#4ACFD9;}
	.st9{fill:#E6EAEA;}
	.st10{fill:#FFFFFF;}
	.st11{fill:#9BAAAB;}
	.st12{fill:#CDD4D5;}
	.st13{fill:#E34C40;}
</style>
<g id="coins-bottom">
	<g>
		<g>
			<path class="st0" d="M420.8,510.8l-32.9-32.9l-11.8,11.9l32.9,32.9c0.6,0.6,1.7,0.7,2.4,0l9.6-9.6
				C421.5,512.4,421.5,511.4,420.8,510.8z"/>
			
				<rect x="369.9" y="474.8" transform="matrix(-0.7071 0.7071 -0.7071 -0.7071 985.289 552.0533)" class="st1" width="16.8" height="10.6"/>
			<path class="st1" d="M355.1,445c-0.6-0.6-1.7-0.7-2.4,0l-9.6,9.6c-0.6,0.6-0.7,1.7,0,2.4l25.4,25.4l11.9-11.9L355.1,445
				L355.1,445z"/>
		</g>
		
			<rect x="396.6" y="505.1" transform="matrix(-0.7071 0.7071 -0.7071 -0.7071 1045.8376 583.1958)" class="st2" width="11.1" height="6.2"/>
		
			<rect x="403.7" y="513.2" transform="matrix(-0.7071 0.7071 -0.7071 -0.7071 1062.9485 590.1744)" class="st2" width="11.1" height="4.1"/>
		
			<rect x="386.4" y="493.8" transform="matrix(-0.7071 0.7071 -0.7071 -0.7071 1021.2253 572.917)" class="st2" width="11.1" height="8.3"/>
		
			<rect x="352" y="460.4" transform="matrix(-0.7071 0.7071 -0.7071 -0.7071 938.1635 538.4122)" class="st3" width="11.1" height="6.2"/>
		
			<rect x="344.8" y="454.3" transform="matrix(-0.7071 0.7071 -0.7071 -0.7071 920.7635 531.2858)" class="st3" width="11.1" height="4.1"/>
		
			<rect x="362.2" y="469.6" transform="matrix(-0.7071 0.7071 -0.7071 -0.7071 962.7759 548.6909)" class="st3" width="11.1" height="8.3"/>
		
			<rect x="375.9" y="485.3" transform="matrix(-0.7071 0.7071 -0.7071 -0.7071 995.8516 562.3922)" class="st2" width="11.1" height="4.3"/>
		
			<rect x="373" y="482.5" transform="matrix(-0.7071 0.7071 -0.7071 -0.7071 988.8406 559.3911)" class="st3" width="11.1" height="4"/>
	</g>
	<g>
		<g>
			<path class="st0" d="M346.8,419.8l-32.9,32.9l11.9,11.9l32.9-32.9c0.6-0.6,0.7-1.7,0-2.4l-9.6-9.6
				C348.5,419.1,347.4,419.1,346.8,419.8z"/>
			
				<rect x="309.2" y="454.5" transform="matrix(-0.7071 0.7071 -0.7071 -0.7071 865.8649 567.1883)" class="st1" width="12.6" height="16.8"/>
			<path class="st1" d="M281,485.5c-0.6,0.6-0.7,1.7,0,2.4l9.6,9.6c0.6,0.6,1.7,0.7,2.4,0l24-24l-11.9-11.9L281,485.5L281,485.5z"/>
		</g>
		
			<rect x="341.1" y="432.8" transform="matrix(-0.7071 0.7071 -0.7071 -0.7071 897.4881 504.9148)" class="st2" width="6.2" height="11.1"/>
		
			<rect x="349.2" y="425.7" transform="matrix(-0.7071 0.7071 -0.7071 -0.7071 904.5316 487.7978)" class="st2" width="4.1" height="11.1"/>
		
			<rect x="329.8" y="443.1" transform="matrix(-0.7071 0.7071 -0.7071 -0.7071 887.3448 529.7745)" class="st2" width="8.3" height="11.1"/>
		
			<rect x="296.4" y="477.5" transform="matrix(-0.7071 0.7071 -0.7071 -0.7071 852.8751 612.8012)" class="st3" width="6.2" height="11.1"/>
		
			<rect x="290.3" y="484.6" transform="matrix(-0.7071 0.7071 -0.7071 -0.7071 845.6429 629.9828)" class="st3" width="4.1" height="11.1"/>
		
			<rect x="305.6" y="467.3" transform="matrix(-0.7071 0.7071 -0.7071 -0.7071 863.154 588.1887)" class="st3" width="8.3" height="11.1"/>
		
			<rect x="321.3" y="453.6" transform="matrix(-0.7071 0.7071 -0.7071 -0.7071 876.8554 555.1129)" class="st2" width="4.3" height="11.1"/>
		
			<rect x="318.5" y="456.5" transform="matrix(-0.7071 0.7071 -0.7071 -0.7071 873.854 562.124)" class="st3" width="4" height="11.1"/>
	</g>
	<g>
		<g>
			<path class="st0" d="M422.6,463.3l-32.9-32.9l-11.9,11.9l32.9,32.9c0.6,0.6,1.7,0.7,2.4,0l9.6-9.6
				C423.2,465,423.3,464,422.6,463.3z"/>
			
				<rect x="373" y="430.6" transform="matrix(-0.7071 0.7071 -0.7071 -0.7071 957.974 471.1627)" class="st1" width="16.8" height="6.8"/>
			<path class="st1" d="M356.9,397.6c-0.6-0.6-1.7-0.7-2.4,0l-9.6,9.6c-0.6,0.6-0.7,1.7,0,2.4l28.1,28.1l11.9-11.9L356.9,397.6
				L356.9,397.6z"/>
		</g>
		
			<rect x="398.4" y="457.6" transform="matrix(-0.7071 0.7071 -0.7071 -0.7071 1015.3801 500.8182)" class="st2" width="11.1" height="6.2"/>
		
			<rect x="405.4" y="465.7" transform="matrix(-0.7071 0.7071 -0.7071 -0.7071 1032.2437 507.9326)" class="st2" width="11.1" height="4.1"/>
		
			<rect x="388.2" y="446.3" transform="matrix(-0.7071 0.7071 -0.7071 -0.7071 990.7327 490.5042)" class="st2" width="11.1" height="8.3"/>
		
			<rect x="353.7" y="412.9" transform="matrix(-0.7071 0.7071 -0.7071 -0.7071 907.4174 456.07)" class="st3" width="11.1" height="6.2"/>
		
			<rect x="346.5" y="406.8" transform="matrix(-0.7071 0.7071 -0.7071 -0.7071 890.0587 449.0437)" class="st3" width="11.1" height="4.1"/>
		
			<rect x="364" y="422.2" transform="matrix(-0.7071 0.7071 -0.7071 -0.7071 932.3538 466.5318)" class="st3" width="11.1" height="8.3"/>
		
			<rect x="377.7" y="437.9" transform="matrix(-0.7071 0.7071 -0.7071 -0.7071 965.4296 480.2333)" class="st2" width="11.1" height="4.3"/>
		
			<rect x="374.8" y="435.1" transform="matrix(-0.7071 0.7071 -0.7071 -0.7071 958.4186 477.2321)" class="st3" width="11.1" height="4"/>
	</g>
	<g>
		<g>
			<path class="st4" d="M305.5,404.4"/>
			<path class="st0" d="M350.5,365.9l-32.9,32.9l11.9,11.9l32.9-32.9c0.6-0.6,0.7-1.7,0-2.4l-9.5-9.5
				C352.2,365.3,351.2,365.3,350.5,365.9z"/>
			
				<rect x="314.6" y="400.1" transform="matrix(-0.7071 0.7071 -0.7071 -0.7071 834.9778 471.124)" class="st1" width="10.6" height="16.8"/>
			<path class="st1" d="M284.8,431.7c-0.6,0.6-0.7,1.7,0,2.4l9.6,9.6c0.6,0.6,1.7,0.7,2.4,0l25.4-25.4l-11.9-11.9L284.8,431.7
				L284.8,431.7z"/>
		</g>
		
			<rect x="344.8" y="379" transform="matrix(-0.7071 0.7071 -0.7071 -0.7071 865.8309 410.4277)" class="st2" width="6.2" height="11.1"/>
		
			<rect x="352.9" y="371.9" transform="matrix(-0.7071 0.7071 -0.7071 -0.7071 872.8096 393.3169)" class="st2" width="4.1" height="11.1"/>
		
			<rect x="333.5" y="389.3" transform="matrix(-0.7071 0.7071 -0.7071 -0.7071 855.6229 435.2936)" class="st2" width="8.3" height="11.1"/>
		
			<rect x="300.1" y="423.7" transform="matrix(-0.7071 0.7071 -0.7071 -0.7071 821.1182 518.3552)" class="st3" width="6.2" height="11.1"/>
		
			<rect x="294" y="430.9" transform="matrix(-0.7071 0.7071 -0.7071 -0.7071 813.9916 535.7553)" class="st3" width="4.1" height="11.1"/>
		
			<rect x="309.3" y="413.5" transform="matrix(-0.7071 0.7071 -0.7071 -0.7071 831.3968 493.7433)" class="st3" width="8.3" height="11.1"/>
		
			<rect x="325" y="399.8" transform="matrix(-0.7071 0.7071 -0.7071 -0.7071 845.0983 460.6673)" class="st2" width="4.3" height="11.1"/>
		
			<rect x="322.2" y="402.7" transform="matrix(-0.7071 0.7071 -0.7071 -0.7071 842.0969 467.6783)" class="st3" width="4" height="11.1"/>
	</g>
</g>
<g id="coins-top">
	<g>
		<g>
			<path class="st0" d="M360,77.3l-32.9-32.9l-11.8,11.9l32.9,32.9c0.6,0.6,1.7,0.7,2.4,0l9.6-9.6C360.7,78.9,360.7,77.9,360,77.3z"
				/>
			
				<rect x="309" y="41.3" transform="matrix(-0.7071 0.7071 -0.7071 -0.7071 574.8185 -144.8212)" class="st1" width="16.8" height="10.6"/>
			<path class="st1" d="M294.3,11.5c-0.6-0.6-1.7-0.7-2.4,0l-9.6,9.6c-0.6,0.6-0.7,1.7,0,2.4l25.4,25.4L319.6,37L294.3,11.5
				L294.3,11.5z"/>
		</g>
		
			<rect x="335.8" y="71.6" transform="matrix(-0.7071 0.7071 -0.7071 -0.7071 635.5792 -113.8496)" class="st2" width="11.1" height="6.2"/>
		
			<rect x="342.8" y="79.7" transform="matrix(-0.7071 0.7071 -0.7071 -0.7071 652.478 -106.7001)" class="st2" width="11.1" height="4.1"/>
		
			<rect x="325.6" y="60.3" transform="matrix(-0.7071 0.7071 -0.7071 -0.7071 610.967 -124.1286)" class="st2" width="11.1" height="8.3"/>
		
			<rect x="291.2" y="26.9" transform="matrix(-0.7071 0.7071 -0.7071 -0.7071 527.7637 -158.6331)" class="st3" width="11.1" height="6.2"/>
		
			<rect x="284" y="20.8" transform="matrix(-0.7071 0.7071 -0.7071 -0.7071 510.5052 -165.7595)" class="st3" width="11.1" height="4.1"/>
		
			<rect x="301.4" y="36.1" transform="matrix(-0.7071 0.7071 -0.7071 -0.7071 552.5173 -148.3543)" class="st3" width="11.1" height="8.3"/>
		
			<rect x="315.1" y="51.8" transform="matrix(-0.7071 0.7071 -0.7071 -0.7071 585.5932 -134.653)" class="st2" width="11.1" height="4.3"/>
		
			<rect x="312.2" y="49" transform="matrix(-0.7071 0.7071 -0.7071 -0.7071 578.4408 -137.6543)" class="st3" width="11.1" height="4"/>
	</g>
	<g>
		<g>
			<path class="st0" d="M410.3,36.7l-32.9,32.9l11.9,11.9l32.9-32.9c0.6-0.6,0.7-1.7,0-2.4l-9.6-9.6C412,36,410.9,36,410.3,36.7z"/>
			
				<rect x="372.6" y="71.5" transform="matrix(-0.7071 0.7071 -0.7071 -0.7071 703.3101 -131.4542)" class="st1" width="12.6" height="16.8"/>
			<path class="st1" d="M344.5,102.4c-0.6,0.6-0.7,1.7,0,2.4l9.6,9.6c0.6,0.6,1.7,0.7,2.4,0l24-24l-11.9-11.9L344.5,102.4
				L344.5,102.4z"/>
		</g>
		
			<rect x="404.6" y="49.8" transform="matrix(-0.7071 0.7071 -0.7071 -0.7071 735.1453 -193.7567)" class="st2" width="6.2" height="11.1"/>
		
			<rect x="412.7" y="42.6" transform="matrix(-0.7071 0.7071 -0.7071 -0.7071 742.0179 -211.086)" class="st2" width="4.1" height="11.1"/>
		
			<rect x="393.3" y="60" transform="matrix(-0.7071 0.7071 -0.7071 -0.7071 724.8311 -169.1094)" class="st2" width="8.3" height="11.1"/>
		
			<rect x="359.8" y="94.4" transform="matrix(-0.7071 0.7071 -0.7071 -0.7071 690.1495 -85.912)" class="st3" width="6.2" height="11.1"/>
		
			<rect x="353.7" y="101.6" transform="matrix(-0.7071 0.7071 -0.7071 -0.7071 683.0878 -68.6596)" class="st3" width="4.1" height="11.1"/>
		
			<rect x="369.1" y="84.2" transform="matrix(-0.7071 0.7071 -0.7071 -0.7071 700.6404 -110.6949)" class="st3" width="8.3" height="11.1"/>
		
			<rect x="384.8" y="70.5" transform="matrix(-0.7071 0.7071 -0.7071 -0.7071 714.3417 -143.7708)" class="st2" width="4.3" height="11.1"/>
		
			<rect x="381.9" y="73.5" transform="matrix(-0.7071 0.7071 -0.7071 -0.7071 711.2991 -136.5184)" class="st3" width="4" height="11.1"/>
	</g>
	<g>
		<g>
			<path class="st0" d="M358.3,124.7l-32.9-32.9l-11.9,11.9l32.9,32.9c0.6,0.6,1.7,0.7,2.4,0l9.6-9.6
				C358.9,126.4,359,125.4,358.3,124.7z"/>
			
				<rect x="308.6" y="92" transform="matrix(-0.7071 0.7071 -0.7071 -0.7071 608.5847 -61.28)" class="st1" width="16.8" height="6.8"/>
			<path class="st1" d="M292.6,59c-0.6-0.6-1.7-0.7-2.4,0l-9.6,9.6c-0.6,0.6-0.7,1.7,0,2.4l28.1,28.1l11.9-11.9L292.6,59L292.6,59z"
				/>
		</g>
		
			<rect x="334" y="119" transform="matrix(-0.7071 0.7071 -0.7071 -0.7071 665.9908 -31.6246)" class="st2" width="11.1" height="6.2"/>
		
			<rect x="341.1" y="127.1" transform="matrix(-0.7071 0.7071 -0.7071 -0.7071 683.0665 -24.6811)" class="st2" width="11.1" height="4.1"/>
		
			<rect x="323.8" y="107.7" transform="matrix(-0.7071 0.7071 -0.7071 -0.7071 641.3433 -41.9386)" class="st2" width="11.1" height="8.3"/>
		
			<rect x="289.3" y="74.3" transform="matrix(-0.7071 0.7071 -0.7071 -0.7071 558.028 -76.3726)" class="st3" width="11.1" height="6.2"/>
		
			<rect x="282.2" y="68.2" transform="matrix(-0.7071 0.7071 -0.7071 -0.7071 540.8815 -83.5697)" class="st3" width="11.1" height="4.1"/>
		
			<rect x="299.7" y="83.6" transform="matrix(-0.7071 0.7071 -0.7071 -0.7071 583.1765 -66.0817)" class="st3" width="11.1" height="8.3"/>
		
			<rect x="313.4" y="99.3" transform="matrix(-0.7071 0.7071 -0.7071 -0.7071 616.2524 -52.3804)" class="st2" width="11.1" height="4.3"/>
		
			<rect x="310.5" y="96.4" transform="matrix(-0.7071 0.7071 -0.7071 -0.7071 609.0707 -55.4524)" class="st3" width="11.1" height="4"/>
	</g>
	<g>
		<g>
			<path class="st4" d="M361.5,128.9"/>
			<path class="st0" d="M406.5,90.4l-32.9,32.9l11.9,11.9l32.9-32.9c0.6-0.6,0.7-1.7,0-2.4l-9.5-9.5
				C408.2,89.8,407.2,89.8,406.5,90.4z"/>
			
				<rect x="370.5" y="124.7" transform="matrix(-0.7071 0.7071 -0.7071 -0.7071 735.6909 -38.5195)" class="st1" width="10.6" height="16.8"/>
			<path class="st1" d="M340.8,156.3c-0.6,0.6-0.7,1.7,0,2.4l9.6,9.6c0.6,0.6,1.7,0.7,2.4,0l25.4-25.4L366.3,131L340.8,156.3
				L340.8,156.3z"/>
		</g>
		
			<rect x="400.7" y="103.6" transform="matrix(-0.7071 0.7071 -0.7071 -0.7071 766.544 -99.2158)" class="st2" width="6.2" height="11.1"/>
		
			<rect x="408.8" y="96.5" transform="matrix(-0.7071 0.7071 -0.7071 -0.7071 773.5226 -116.3267)" class="st2" width="4.1" height="11.1"/>
		
			<rect x="389.5" y="113.8" transform="matrix(-0.7071 0.7071 -0.7071 -0.7071 756.3773 -74.5916)" class="st2" width="8.3" height="11.1"/>
		
			<rect x="356" y="148.3" transform="matrix(-0.7071 0.7071 -0.7071 -0.7071 721.8311 8.7118)" class="st3" width="6.2" height="11.1"/>
		
			<rect x="350" y="155.4" transform="matrix(-0.7071 0.7071 -0.7071 -0.7071 714.7461 25.8705)" class="st3" width="4.1" height="11.1"/>
		
			<rect x="365.3" y="138" transform="matrix(-0.7071 0.7071 -0.7071 -0.7071 732.1512 -16.1417)" class="st3" width="8.3" height="11.1"/>
		
			<rect x="381" y="124.3" transform="matrix(-0.7071 0.7071 -0.7071 -0.7071 745.8526 -49.2177)" class="st2" width="4.3" height="11.1"/>
		
			<rect x="378.2" y="127.2" transform="matrix(-0.7071 0.7071 -0.7071 -0.7071 742.8513 -42.2067)" class="st3" width="4" height="11.1"/>
	</g>
</g>
<path class="st5" d="M250.2,439.7l2.9-10.2l15.7,6.1l15.1-27.7l18.3,13.5l34.7-22.7l15.1,22.6V149.6h-26.5c-0.1,0-20.4-8.6-41.2-2.4
	c-20.8,6.2-35,46.7-38.8,69.5c0,0-15,110.8-16.9,119.9c-1.9,9-4.6,15.3-9.9,26.2c-3.7,7.7-10,16.9-10,38.6s17.3,38.3,38.3,38.3
	H250.2z"/>
<path class="st6" d="M485.4,362.8c-5.3-10.9-8-17.2-9.9-26.2s-16.9-119.9-16.9-119.9c-3.8-22.8-17.9-63.4-38.8-69.5
	c-20.8-6.2-41.1,2.4-41.2,2.4h-26.5V421l23-13.5l16.6,13.5l27.7-5.7V429h16.5l14,4.5l5,6.3h2.1c21.1,0,38.3-16.6,38.3-38.3
	S489.1,370.5,485.4,362.8z"/>
<path class="st3" d="M289.6,120c-4.3,0-7.7,4.5-7.7,10v9.7c0,5.5,3.5,10,7.7,10h62.3V120H289.6z"/>
<path class="st5" d="M414.3,120c4.3,0,7.7,4.5,7.7,10v9.7c0,5.5-3.5,10-7.7,10H352V120H414.3z"/>
<path class="st7" d="M272.6,126.5c-5.8-3.3-12.1-6.6-12.1-0.5c0,8.3,23,9.7,27.6,9.5h63.8c0-10.9,0,8.6,0-4.6
	C292.7,131.4,278.3,130,272.6,126.5z"/>
<path class="st8" d="M431.2,126.5c5.8-3.3,12.1-6.6,12.1-0.5c0,8.3-23,9.7-27.6,9.5h-63.8c0-10.9,0,8.6,0-4.6
	C411.1,131.4,425.5,130,431.2,126.5z"/>
<path class="st9" d="M242.9,377.7c1.3,1.3,2,3,1.8,5c-0.9,10.5,2.7,20.8,10.1,28.1c2.4,2.4,2.4,6.4,0,8.8c-2.4,2.4-6.4,2.4-8.8,0
	c-10-10-15-23.9-13.8-38c0.3-3.4,3.3-5.9,6.8-5.6C240.5,376,241.9,376.7,242.9,377.7z"/>
<path class="st10" d="M444.1,214.6c1.3-14.2-3.8-28.2-13.9-38.3c-2.4-2.4-6.5-2.4-8.9,0s-2.4,6.5,0,8.9c7.4,7.4,11.2,17.9,10.2,28.4
	c-0.2,2,0.5,3.6,1.8,5c1.1,1,2.4,1.7,3.9,1.7C440.8,220.5,443.7,218,444.1,214.6z"/>
<g>
	<path class="st1" d="M270.4,266.6c0,44.2,35.8,80,80,80v-160C306.2,186.6,270.4,222.5,270.4,266.6z"/>
	<path class="st0" d="M430.4,266.6c0-44.2-35.8-80-80-80v160C394.6,346.6,430.4,310.8,430.4,266.6z"/>
	<path class="st11" d="M300.3,266.6c0,27.6,22.5,50.1,50.1,50.1V216.5C322.7,216.5,300.3,239,300.3,266.6z"/>
	<path class="st12" d="M400.4,266.6c0-27.6-22.5-50.1-50.1-50.1v100.2C378,316.7,400.4,294.2,400.4,266.6z"/>
	<path class="st9" d="M310.2,266.6c0,22.1,18,40.1,40.1,40.1v-80.3C328.3,226.5,310.2,244.5,310.2,266.6z"/>
	<path class="st10" d="M390.5,266.6c0-22.1-18-40.1-40.1-40.1v80.3C372.5,306.7,390.5,288.8,390.5,266.6z"/>
	<path class="st4" d="M350.3,186.6v24.9c3.1,0,5.7-2.6,5.7-5.7v-18.5c0-0.1,0-0.3,0-0.4C354.1,186.7,352.2,186.6,350.3,186.6z"/>
	<path class="st0" d="M345.3,186.8c0,0.1,0,0.4,0,0.5v18.5c0,2.9,2.2,5.4,5.1,5.7v-24.9C348.6,186.6,347,186.7,345.3,186.8z"/>
	<path class="st1" d="M350.4,322.3v24.3c1.9,0,3.8-0.1,5.7-0.2V328C356.1,324.8,353.5,322.3,350.4,322.3z"/>
	<path class="st4" d="M345.3,328v18.5c1.7,0.1,3.4,0.1,5.1,0.1v-24.3C347.5,322.6,345.3,325,345.3,328z"/>
	<path class="st4" d="M289.9,260.9h-18.5c-0.3,0-0.5,0-0.8,0.1c-0.1,1.9-0.2,3.7-0.2,5.6h25.2C295.6,263.5,293,260.9,289.9,260.9z"
		/>
	<path class="st0" d="M289.9,272.3c3.1,0,5.7-2.6,5.7-5.7h-25.2c0,1.9,0.1,3.7,0.2,5.6c0.3,0.1,0.5,0.1,0.8,0.1H289.9z"/>
	<path class="st1" d="M411.9,260.9c-3.1,0-5.7,2.6-5.7,5.7h24l0,0c0-1.9-0.1-3.8-0.2-5.7H411.9z"/>
	<path class="st4" d="M411.9,272.3h18.2c0.1-1.9,0.2-3.7,0.2-5.7h-24C406.3,269.7,408.9,272.3,411.9,272.3z"/>
	<path class="st4" d="M311.7,219.5l-13.1-13.1c-0.1-0.1-0.3-0.2-0.4-0.4c-1.4,1.2-2.8,2.5-4.1,3.8l17.7,17.7
		C313.9,225.3,313.9,221.7,311.7,219.5z"/>
	<path class="st0" d="M303.8,227.5c2.2,2.2,5.8,2.2,8,0l-17.7-17.7c-1.4,1.3-2.6,2.6-3.8,4.1c0.1,0.1,0.3,0.4,0.4,0.5L303.8,227.5z"
		/>
	<path class="st1" d="M390.1,305.8l17.1,17.1c1.4-1.4,2.6-2.7,3.8-4.1l-12.9-12.9C395.9,303.6,392.3,303.6,390.1,305.8z"/>
	<path class="st4" d="M390.1,313.8l13,13c1.4-1.2,2.8-2.5,4.1-3.9l-17.2-17.2C387.9,308,387.9,311.6,390.1,313.8z"/>
	<path class="st4" d="M303.6,305.6l-13.1,13.1c-0.1,0.1-0.3,0.4-0.4,0.5c1.2,1.4,2.5,2.8,3.8,4.1l17.7-17.7
		C309.4,303.4,305.8,303.4,303.6,305.6z"/>
	<path class="st0" d="M311.6,313.6c2.2-2.2,2.2-5.8,0-8l-17.7,17.7c1.3,1.3,2.7,2.6,4.1,3.8c0.1-0.1,0.4-0.2,0.5-0.4L311.6,313.6z"
		/>
	<path class="st1" d="M389.9,219.3c-2.2,2.2-2.2,5.8,0,8l17.1-17.1c-1.4-1.4-2.7-2.6-4.1-3.9L389.9,219.3z"/>
	<path class="st4" d="M389.9,227.3c2.2,2.2,5.8,2.2,8,0l12.9-12.9c-1.2-1.4-2.5-2.8-3.9-4.1L389.9,227.3z"/>
	<path class="st4" d="M332.8,208.1l-7.1-17.1c-0.1-0.1-0.1-0.3-0.1-0.4c-1.8,0.6-3.6,1.2-5.3,1.9l9.5,23
		C332.6,214.2,334,211,332.8,208.1z"/>
	<path class="st0" d="M322.3,212.4c1.2,2.9,4.5,4.2,7.4,3.1l-9.4-23c-1.7,0.7-3.4,1.5-5.1,2.3c0.1,0.1,0.1,0.3,0.1,0.4L322.3,212.4z
		"/>
	<path class="st1" d="M372.1,317.8l9.4,22.5c1.7-0.7,3.4-1.6,5.1-2.4l-7.1-17.1C378.3,318,375,316.6,372.1,317.8z"/>
	<path class="st4" d="M369.1,325.2l7.1,17.1c0,0,0,0,0,0.1c1.8-0.6,3.6-1.3,5.3-2l-9.4-22.5C369.2,319,367.9,322.3,369.1,325.2z"/>
	<path class="st4" d="M292.3,284.5l-17.1,7.1c-0.2,0.1-0.4,0.2-0.6,0.4c0.6,1.8,1.2,3.5,1.9,5.2l23.2-9.7
		C298.4,284.7,295.1,283.3,292.3,284.5z"/>
	<path class="st0" d="M296.6,294.9c2.9-1.2,4.2-4.5,3.1-7.4l-23.2,9.7c0.7,1.7,1.5,3.4,2.4,5.1c0.2-0.1,0.5-0.1,0.7-0.2L296.6,294.9
		z"/>
	<path class="st1" d="M405.1,237.8c-2.9,1.2-4.2,4.5-3.1,7.4l22.2-9.2c-0.7-1.7-1.5-3.4-2.4-5.1L405.1,237.8z"/>
	<path class="st4" d="M402,245.2c1.2,2.9,4.5,4.2,7.4,3.1l16.9-7c-0.6-1.8-1.2-3.6-2-5.3L402,245.2z"/>
	<path class="st4" d="M296.6,237.8l-17.1-7.1c-0.1-0.1-0.4-0.1-0.5-0.1c-0.9,1.6-1.6,3.4-2.4,5.1l23,9.6
		C300.9,242.3,299.5,239,296.6,237.8z"/>
	<path class="st0" d="M292.3,248.2c2.9,1.2,6.2-0.2,7.4-3.1l-23-9.6c-0.7,1.7-1.4,3.5-2,5.3c0.1,0.1,0.4,0.1,0.5,0.3L292.3,248.2z"
		/>
	<path class="st1" d="M402,287.6l22.5,9.3c0.7-1.7,1.4-3.5,1.9-5.3l-17-7.1C406.5,283.3,403.2,284.7,402,287.6z"/>
	<path class="st4" d="M405.1,294.9l17.1,7.1c0.9-1.7,1.6-3.4,2.3-5.1l-22.5-9.3C400.8,290.4,402.2,293.8,405.1,294.9z"/>
	<path class="st4" d="M322,320.5l-7.1,17.1c-0.1,0.2-0.1,0.4-0.2,0.6c1.6,0.9,3.4,1.6,5.1,2.4l9.6-23.1
		C326.5,316.2,323.2,317.6,322,320.5z"/>
	<path class="st0" d="M332.4,324.8c1.2-2.9-0.2-6.2-3.1-7.4l-9.5,23.1c1.7,0.7,3.5,1.4,5.3,1.9c0.1-0.2,0.2-0.4,0.3-0.6L332.4,324.8
		z"/>
	<path class="st1" d="M368.7,207.7c-1.2,2.9,0.2,6.2,3.1,7.4l9.3-22.4c-1.7-0.7-3.5-1.4-5.3-2L368.7,207.7z"/>
	<path class="st4" d="M371.7,215.1c2.9,1.2,6.2-0.2,7.4-3.1l7-17c-1.7-0.9-3.4-1.6-5.1-2.4L371.7,215.1z"/>
	<g>
		<path id="XMLID_4_" class="st13" d="M344.8,274.3c1-0.3,7.4,0.7,8.2,1.3c2.6,1.9,6.6,2.9,8.2,1c1.6-1.9-0.1-5.2-2.6-7.8
			c-0.7-0.8-3.1-6.7-3.1-7.7c0.4-3.3-0.7-7.3-3.2-7.7c-2.4-0.4-4.8,3.1-5.4,6.2c-0.2,1.1-4.3,6.1-5.2,6.5c-3,1.4-5.8,4.2-4.9,6.6
			C337.8,274.9,342,275.1,344.8,274.3z"/>
		<path id="XMLID_3_" class="st13" d="M355.9,240c4,0.1,5.7,8.3,5,14.7c-0.2,2,4.5,13.4,5.4,15.3c0.6,1.1,1.5,2,2.6,2.6
			c-3.1-8.3-3.3-14.9-2.7-16.5c2.6-7.2,1.4-16.8-2.4-19.1c-2.6-1.5-8.4-2.1-12,3.9C352.9,240.1,354.4,239.8,355.9,240z"/>
		<path id="XMLID_2_" class="st13" d="M324,274.7c-1.9-3.6,4.4-9.1,10.2-11.7c1.9-0.9,9.4-10.7,10.6-12.2c0.6-1.1,1-2.3,0.9-3.6
			c-5.7,6.8-11.2,10.3-12.9,10.6c-7.5,1.3-15.3,7.2-15.3,11.7c0,3,2.4,8.3,9.4,8.4C325.5,277.3,324.5,276.1,324,274.7z"/>
		<path id="XMLID_1_" class="st13" d="M370.2,285.8c-2.1,3.4-10,0.8-15.2-3c-1.6-1.2-13.9-2.9-15.9-3c-1.2-0.1-2.5,0.3-3.6,0.9
			c8.7,1.5,14.6,4.6,15.6,5.9c4.9,5.9,13.9,9.7,17.7,7.4c2.6-1.5,6-6.2,2.6-12.4C371.6,283.1,371.2,284.6,370.2,285.8z"/>
	</g>
</g>
</svg>
