<?xml version="1.0" encoding="utf-8"?>
<!-- Generator: Adobe Illustrator 19.0.0, SVG Export Plug-In . SVG Version: 6.00 Build 0)  -->
<svg version="1.1" id="Layer_1" xmlns="http://www.w3.org/2000/svg" xmlns:xlink="http://www.w3.org/1999/xlink" x="0px" y="0px"
	 viewBox="96 11 512 512" style="enable-background:new 96 11 512 512;" xml:space="preserve">
<style type="text/css">
	.st0{fill:#E6EAEA;}
	.st1{fill:#CDD4D5;}
	.st2{fill:#9BAAAB;}
	.st3{fill:#4ACFD9;}
	.st4{fill:#0295AA;}
	.st5{display:none;fill:#9BAAAB;}
	.st6{display:none;fill:#F0353D;}
	.st7{fill:#FFD1A9;}
	.st8{fill:#FD6A33;}
	.st9{fill:#365558;}
	.st10{fill:#FF8C29;}
	.st11{fill:none;stroke:#FFD1A9;stroke-width:12;stroke-linecap:round;stroke-linejoin:round;stroke-miterlimit:10;}
</style>
<g>
	<path class="st0" d="M454,61.9H105.2c-5,0-9.2,4.4-9.2,10v328l112.3,123h245.5c5,0,9.2-4.4,9.2-10V72C463.1,66.4,459,61.9,454,61.9
		z"/>
	<path class="st1" d="M105.2,61.9c-5,0-9.2,4.4-9.2,10v328l112.3,123h63.8V61.9H105.2z"/>
	<path id="SVGCleanerId_0" class="st2" d="M199.1,400H96l112.3,123V410C208.3,404.4,204.3,400,199.1,400z"/>
	<g>
		<path class="st3" d="M399.9,162.6H159.2c-5,0-9.2-4.4-9.2-10c0-5.6,4.2-10,9.2-10h240.6c5,0,9.2,4.4,9.2,10
			C409.1,158.2,404.9,162.6,399.9,162.6z"/>
		<path class="st3" d="M399.9,248.7H159.2c-5,0-9.2-4.4-9.2-10s4.2-10,9.2-10h240.6c5,0,9.2,4.4,9.2,10S404.9,248.7,399.9,248.7z"/>
		<path class="st3" d="M399.9,334.7H159.2c-5,0-9.2-4.4-9.2-10c0-5.6,4.2-10,9.2-10h240.6c5,0,9.2,4.4,9.2,10
			C409.1,330.3,404.9,334.7,399.9,334.7z"/>
		<path class="st3" d="M399.9,420.7H159.2c-5,0-9.2-4.4-9.2-10c0-5.6,4.2-10,9.2-10h240.6c5,0,9.2,4.4,9.2,10
			C409.1,416.2,404.9,420.7,399.9,420.7z"/>
	</g>
	<g>
		<path class="st4" d="M159.2,142.5c-5,0-9.2,4.4-9.2,10c0,5.6,4.2,10,9.2,10h112.9v-20.1H159.2z"/>
		<path class="st4" d="M159.2,228.6c-5,0-9.2,4.4-9.2,10s4.2,10,9.2,10h112.9v-20.2L159.2,228.6L159.2,228.6z"/>
		<path class="st4" d="M150.1,324.7c0,5.6,4.2,10,9.2,10h112.9v-20.2h-113C154.1,314.5,150.1,319.1,150.1,324.7z"/>
		<path class="st4" d="M150.1,410.7c0,5.6,4.2,10,9.2,10h112.9v-20.2h-113C154.1,400.5,150.1,405.1,150.1,410.7z"/>
	</g>
	<g>
		<path id="SVGCleanerId_0_1_" class="st2" d="M199.1,400H96l112.3,123V410C208.3,404.4,204.3,400,199.1,400z"/>
	</g>
</g>
<polygon class="st5" points="348.7,288.1 486.9,342.2 349,395.5 211.2,342.2 "/>
<path class="st6" d="M167.6,496.4c-1.3-3.3,0.2-6.8,3.5-8.2l24-9.8c3.3-1.3,6.8,0.2,8.2,3.5c1.3,3.3-0.2,6.8-3.5,8.2l-24.1,9.9
	C172.5,501.3,168.8,499.7,167.6,496.4z"/>
<path class="st6" d="M200.8,528.6c-3.3-1.4-4.8-5-3.5-8.2l9-21.6c1.4-3.3,5-4.8,8.2-3.5c3.3,1.4,4.8,5,3.5,8.2l-9,21.6
	c-0.7,1.6-1.9,2.8-3.5,3.5C204.1,529.2,202.4,529.3,200.8,528.6z"/>
<path class="st6" d="M193.4,467.7l-21.6-9c-3.3-1.4-4.8-5-3.5-8.2c1.4-3.3,5-4.8,8.2-3.5l21.6,9c3.3,1.4,4.8,5,3.5,8.2
	c-0.7,1.6-1.9,2.8-3.5,3.5C196.7,468.3,195.2,468.3,193.4,467.7z"/>
<path class="st7" d="M430.1,105"/>
<g>
	<path class="st8" d="M389.5,116.4c-15.1,44.4-24,98.9-24,158c0,80.6,16.7,153,43,202.4h54.2v-337
		C435.6,139.8,410.3,131.2,389.5,116.4z"/>
	<path class="st9" d="M317.8,466.6c0,20.1,4.1,39,11.4,56.4c11.3-26.7,30.4-49.3,54.4-64.9c-11.1-27.1-19.8-58.3-25.2-91.9
		C333.3,392.2,317.8,427.6,317.8,466.6z"/>
</g>
<g>
	<path class="st10" d="M560.2,273.8c0-59.1-8.9-113.7-24-158c-20.8,14.8-45.9,23.4-73.2,23.4v337h54.2
		C543.5,426.8,560.2,354.4,560.2,273.8z"/>
	<path class="st4" d="M463,11.5v113.2c25.5,0,49.1-8.6,68-23C513.7,57.4,490,25.2,463,11.5z"/>
	<path class="st9" d="M395,101.5c18.9,14.5,42.4,23,68,23v-113C436,25.2,412.3,57.4,395,101.5z"/>
	<path class="st4" d="M567.5,365.4c-5.6,33.4-14.1,64.8-25.2,91.9c24,15.7,43,38.3,54.4,64.9c7.3-17.4,11.4-36.4,11.4-56.4
		C608,427,592.5,391.6,567.5,365.4z"/>
	<path class="st3" d="M463,181.6v65.2c18,0,32.6-14.6,32.6-32.6S481,181.6,463,181.6z"/>
	<path class="st4" d="M430,214.1c0,18,14.6,32.6,32.6,32.6v-65.2C444.6,181.6,430,196.2,430,214.1z"/>
	<path class="st11" d="M521.5,168c7.2,32.7,11,68.7,11,106c0,56-8.6,109.5-24.2,152.3"/>
</g>
</svg>
