<?xml version="1.0" encoding="utf-8"?>
<!-- Generator: Adobe Illustrator 19.0.0, SVG Export Plug-In . SVG Version: 6.00 Build 0)  -->
<svg version="1.1" id="Layer_1" xmlns="http://www.w3.org/2000/svg" xmlns:xlink="http://www.w3.org/1999/xlink" x="0px" y="0px"
	 viewBox="96 11 512 512" style="enable-background:new 96 11 512 512;" xml:space="preserve">
<style type="text/css">
	.st0{display:none;}
	.st1{display:inline;}
	.st2{fill:#FFD1A9;}
	.st3{fill:#4ACFD9;}
	.st4{font-family:'SairaCondensed-Medium';}
	.st5{font-size:128px;}
	.st6{fill:#FF8C29;}
	.st7{fill:#365558;}
	.st8{fill:#0295AA;}
	.st9{font-size:147.8842px;}
	.st10{font-family:'SairaCondensed-SemiBold';}
	.st11{font-size:191.2789px;}
</style>
<g id="Layer_3" class="st0">
	<rect x="714" y="-607.4" class="st1" width="512" height="512.8"/>
</g>
<path class="st2" d="M140.6,226.1c0-6.7,5.5-12.2,12.2-12.2h69c6.7,0,12.2,5.5,12.2,12.2c0,0,0-0.7,0,7.7s3,14.9,14.9,14.9
	s291.7,0,291.7,0c6.7,0,12.2,5.5,12.2,12.2v251.8c0,6.7-5.5,12.2-12.2,12.2H152.7c-6.7,0-12.2-5.5-12.2-12.2V226.1"/>
<text transform="matrix(0.9514 0.308 -0.308 0.9514 421.5136 343.918)" class="st3 st4 st5">540</text>
<path class="st6" d="M539.5,524.8H151.7c-6.7,0-11.2-5.5-10-12.2l22.2-125.9c1.2-6.7,7.6-12.2,14.3-12.2H566c6.7,0,11.2,5.5,10,12.2
	l-22.2,125.9C552.7,519.3,546.2,524.8,539.5,524.8z"/>
<path class="st7" d="M163.7,509.9c-1.6,0-3-0.6-3.9-1.7c-0.9-1.2-1.3-2.8-1-4.6l1.1-5.9c1.5-4.6,4.8-8.1,7-8.1h370
	c1.6,0,3,0.6,3.9,1.7c0.9,1.2,1.3,2.8,1,4.6l-1.1,5.9c-0.7,4.3-3.9,8.1-8,8.1H163.7z"/>
<text transform="matrix(0.9792 -0.2027 0.2027 0.9792 111.6995 329.5865)" class="st8 st4 st9">2762</text>
<text transform="matrix(1 3.541911e-003 -3.541911e-003 1 312.9 146.3504)" class="st3 st10 st11">True</text>
</svg>
