<?xml version="1.0" encoding="iso-8859-1"?>
<!-- Generator: Adobe Illustrator 19.0.0, SVG Export Plug-In . SVG Version: 6.00 Build 0)  -->
<svg version="1.1" id="Layer_1" xmlns="http://www.w3.org/2000/svg" xmlns:xlink="http://www.w3.org/1999/xlink" x="0px" y="0px"
	 viewBox="0 0 512.001 512.001" style="enable-background:new 0 0 512.001 512.001;" xml:space="preserve">
<path style="fill:#FD6A33;" d="M418.473,226.606H8.018c-3.821,0-7.111,2.697-7.862,6.444s1.251,7.503,4.778,8.972l410.454,171.023
	c0.992,0.414,2.039,0.617,3.083,0.617c1.561,0,3.112-0.455,4.448-1.347c2.23-1.487,3.57-3.989,3.57-6.67V234.623
	C426.489,230.196,422.9,226.606,418.473,226.606z"/>
<path style="fill:#4ACFD9;" d="M394.558,132.735l-153.92-34.205c-1.917-0.429-3.919-0.135-5.632,0.818L4.126,227.615
	c-3.509,1.95-5.036,6.195-3.571,9.933c1.225,3.128,4.229,5.093,7.461,5.093c0.631,0,1.27-0.075,1.907-0.231l384.801-94.062
	c3.619-0.884,6.151-4.146,6.113-7.871C400.796,136.751,398.196,133.543,394.558,132.735z"/>
<path style="fill:#FF8C29;" d="M397.769,134.255c-1.936-1.52-4.462-2.069-6.854-1.481L6.115,226.836
	c-3.713,0.907-6.269,4.31-6.106,8.129c0.164,3.819,3,6.992,6.777,7.58l384.801,59.858c0.41,0.064,0.823,0.095,1.232,0.095
	c1.899,0,3.752-0.676,5.215-1.928c1.779-1.523,2.802-3.748,2.802-6.088v-153.92C400.836,138.1,399.705,135.775,397.769,134.255z"/>
<path style="fill:#4ACFD9;" d="M511.058,359.118l-68.409-128.267c-1.393-2.612-4.113-4.245-7.074-4.245H8.018
	c-4.036,0-7.443,3.001-7.953,7.006c-0.51,4.004,2.037,7.762,5.945,8.772l495.966,128.267c0.666,0.172,1.339,0.255,2.007,0.255
	c2.421,0,4.757-1.099,6.299-3.057C512.25,365.351,512.554,361.925,511.058,359.118z"/>
<g>
</g>
<g>
</g>
<g>
</g>
<g>
</g>
<g>
</g>
<g>
</g>
<g>
</g>
<g>
</g>
<g>
</g>
<g>
</g>
<g>
</g>
<g>
</g>
<g>
</g>
<g>
</g>
<g>
</g>
</svg>
