<?xml version="1.0" encoding="utf-8"?>
<!-- Generator: Adobe Illustrator 19.0.0, SVG Export Plug-In . SVG Version: 6.00 Build 0)  -->
<svg version="1.1" id="Layer_1" xmlns="http://www.w3.org/2000/svg" xmlns:xlink="http://www.w3.org/1999/xlink" x="0px" y="0px"
	 viewBox="206 -206 512 512" style="enable-background:new 206 -206 512 512;" xml:space="preserve">
<style type="text/css">
	.st0{fill:#E6EAEA;}
	.st1{fill:#CDD4D5;}
	.st2{display:none;fill:#FFD1A9;}
	.st3{display:none;fill:#FF8C29;}
	.st4{fill:#9BAAAB;}
	.st5{fill:#687F82;}
	.st6{fill:#365558;}
	.st7{fill:#F0353D;}
	.st8{fill:#BCD643;}
	.st9{fill:#FD6A33;}
	.st10{fill:#4ACFD9;}
	.st11{fill:#0295AA;}
	.st12{fill:#FFFFFF;}
	.st13{fill:#FF8C29;}
</style>
<path class="st0" d="M671.9-122.7H253.8c-3.7,0-6.8,3-6.8,6.8V295c0,3.7,3,6.8,6.8,6.8h418.1c3.7,0,6.8-3,6.8-6.8V-116
	C678.7-119.7,675.6-122.7,671.9-122.7z"/>
<path class="st1" d="M253.8-122.7c-3.7,0-6.8,3-6.8,6.8V295c0,3.7,3,6.8,6.8,6.8h208.2v-424.4H253.8z"/>
<polygon class="st2" points="252.5,148.3 252.5,255.2 671.5,255.2 671.5,-74 568.9,45.7 462,139.8 350.8,37.2 "/>
<polygon class="st3" points="350.8,37.2 252.5,148.3 252.5,255.2 460.9,255.2 460.9,138.8 "/>
<path class="st4" d="M635.9-86.7h-346c-3.7,0-6.8,3-6.8,6.8v338.8c0,3.7,3,6.8,6.8,6.8h346c3.7,0,6.8-3,6.8-6.8V-79.9
	C642.6-83.6,639.6-86.7,635.9-86.7z M546.2,79.1h-76.6v-73h76.6V79.1z M559.7,6.1h69.4v73h-69.4V6.1z M469.6-7.4v-65.8h76.6v65.8
	H469.6z M456.1-7.4h-76.6v-65.8h76.6V-7.4z M456.1,6.1v73h-76.6v-73H456.1z M366,79.1h-69.4v-73H366V79.1z M296.6,92.7H366v73h-69.4
	V92.7z M379.5,92.7h76.6v73h-76.6V92.7z M456.1,179.2v73h-76.6v-73L456.1,179.2L456.1,179.2z M469.6,179.2h76.6v73h-76.6
	L469.6,179.2L469.6,179.2z M469.6,165.6v-73h76.6v73L469.6,165.6L469.6,165.6z M559.7,92.7h69.4v73h-69.4V92.7z M629.1-7.4h-69.4
	v-65.8h69.4V-7.4z M366-73.2v65.8h-69.4v-65.8H366z M296.6,179.2H366v73h-69.4V179.2z M559.7,252.2v-73h69.4v73H559.7z"/>
<path class="st5" d="M289.8-86.7c-3.7,0-6.8,3-6.8,6.8v338.8c0,3.7,3,6.8,6.8,6.8h172.1V-86.7H289.8z M366,252.2h-69.4v-73H366
	V252.2z M366,165.6h-69.4v-73H366V165.6z M366,79.1h-69.4v-73H366V79.1z M366-7.4h-69.4v-65.8H366V-7.4z M456.1,252.2h-76.6v-73
	h76.6V252.2z M456.1,165.6h-76.6v-73h76.6V165.6z M456.1,79.1h-76.6v-73h76.6V79.1z M379.5-7.4v-65.8h76.6v65.8H379.5z"/>
<path class="st6" d="M289.8,267.1c-1.6,0-3.3-0.6-4.6-1.8c-2.7-2.5-2.9-6.8-0.4-9.6l82.9-90.1c1.2-1.3,2.9-2.1,4.8-2.2
	c1.8-0.1,3.6,0.6,4.9,1.9l85.4,82l85.3-81.9l79.2-86.4c2.5-2.8,6.8-2.9,9.5-0.4c2.8,2.5,2.9,6.8,0.4,9.5l-79.3,86.5
	c-0.1,0.1-0.2,0.2-0.3,0.3l-90.1,86.5c-2.6,2.5-6.7,2.5-9.4,0L373,179.9l-78.2,85C293.5,266.3,291.6,267.1,289.8,267.1z"/>
<path class="st7" d="M289.8,231.9c-13.7,0-24.8,11.1-24.8,24.8c0,13.7,11.1,24.8,24.8,24.8c13.7,0,24.8-11.1,24.8-24.8
	C314.6,243.1,303.5,231.9,289.8,231.9z"/>
<path class="st8" d="M372.7,145.4c-13.7,0-24.8,11.1-24.8,24.8s11.1,24.8,24.8,24.8c13.7,0,24.8-11.1,24.8-24.8
	C397.5,156.5,386.4,145.4,372.7,145.4z"/>
<path class="st9" d="M462.8,231.9c-13.7,0-24.8,11.1-24.8,24.8c0,13.7,11.1,24.8,24.8,24.8c13.7,0,24.8-11.1,24.8-24.8
	C487.6,243.1,476.5,231.9,462.8,231.9z"/>
<path class="st7" d="M438.1,256.7c0,13.4,10.6,24.3,23.9,24.8V232C448.7,232.4,438.1,243.4,438.1,256.7z"/>
<path class="st8" d="M553,145.4c-13.7,0-24.8,11.1-24.8,24.8S539.3,195,553,195s24.8-11.1,24.8-24.8
	C577.7,156.5,566.6,145.4,553,145.4z"/>
<path class="st8" d="M632.3,58.9c-13.7,0-24.8,11.1-24.8,24.8s11.1,24.8,24.8,24.8S657,97.4,657,83.7S645.9,58.9,632.3,58.9z"/>
<g>
	<path class="st10" d="M463.5-198.7c-89.1,0-161.6,72.5-161.6,161.6s72.5,161.6,161.6,161.6S625.1,52,625.1-37.1
		S552.6-198.7,463.5-198.7z"/>
	<path class="st11" d="M301.9-37.1c0,88.7,71.7,160.7,160.1,161.6v-323.2C373.6-197.8,301.9-125.8,301.9-37.1z"/>
	<path class="st12" d="M463.2-173.7c-0.4,0-0.8,0-1.2,0V98.5c0.4,0,0.8,0,1.2,0c75.1,0,136.1-61.1,136.1-136.1
		S538.2-173.7,463.2-173.7z"/>
	<path class="st0" d="M327-37.5C327,37.1,387.4,98,461.9,98.6v-272.3C387.4-173.1,327-112.2,327-37.5z"/>
	<g>
		<path class="st13" d="M520.5-35.7c-2.4-6.5-6-11.2-10.7-14.1c-4.7-2.8-11.2-4.8-19.5-6L462.1-59v36.8l6.9,0.9
			c5.2,0.6,8.8,1.3,10.9,2c2,0.7,3.3,1.9,4.1,3.6c0.7,1.7,1,4.7,1,8.9c0,4.5-0.6,7.6-1.8,9.7s-3.9,3.5-8.1,4.4
			c-2.9,0.6-7.3,1-12.9,1.2v57.2h13.8v-23c16.1-0.8,28.2-4.8,36.3-11.9c8.1-7.1,12.1-20.1,12.1-38.8C524.1-20,522.9-29.1,520.5-35.7
			z"/>
		<path class="st13" d="M467.4-89.3c13.1,0,29.1,0.9,48,2.7v-32c-4.8-1-11.1-2-18.6-3c-7.5-1-14.6-1.6-21-1.8v-23.6H462v57.7
			C463.7-89.3,465.5-89.3,467.4-89.3z"/>
		<path class="st9" d="M454.1,8.5c-15.5,0-32.9-0.8-52.3-2.4v32c13.1,2.4,27.9,3.9,44.7,4.5v23H462V8.4C459.7,8.5,457,8.5,454.1,8.5
			z"/>
		<path class="st9" d="M446.5-123.2c-16.3,1.2-28.7,5.3-37.1,12.3c-8.5,7-12.7,18.9-12.7,35.7c0,14.9,2.5,26.3,7.4,34.1
			c5,7.9,14.7,12.8,29.1,14.8l28.8,3.9V-59l-11-1.3c-5.1-0.6-8.5-1.3-10.5-2c-1.9-0.7-3.2-1.9-3.8-3.6c-0.6-1.7-0.9-4.7-0.9-8.9
			c0-4.5,0.9-7.6,2.8-9.7c1.9-2,5-3.3,9.1-3.9c3.3-0.5,8-0.8,14.1-0.9V-147h-15.5L446.5-123.2L446.5-123.2z"/>
	</g>
</g>
</svg>
