<?xml version="1.0" encoding="utf-8"?>
<!-- Generator: Adobe Illustrator 19.0.0, SVG Export Plug-In . SVG Version: 6.00 Build 0)  -->
<svg version="1.1" id="Layer_1" xmlns="http://www.w3.org/2000/svg" xmlns:xlink="http://www.w3.org/1999/xlink" x="0px" y="0px"
	 viewBox="206 -206 512 512" style="enable-background:new 206 -206 512 512;" xml:space="preserve">
<style type="text/css">
	.st0{fill:#CDD4D5;}
	.st1{fill:#FD6A33;}
	.st2{fill:#E6EAEA;}
	.st3{fill:#FF8C29;}
	.st4{fill:#0295AA;}
	.st5{fill:#4ACFD9;}
</style>
<path class="st0" d="M424.5-156.8l-167,121.4c15.2,4.8,26.3,19,26.3,35.9c0,20.8-16.9,37.5-37.5,37.5c-4.3,0-8.5-0.8-12.4-2.1
	l62.1,190.9c6.9-8.9,17.6-14.7,29.8-14.7c20.8,0,37.5,16.9,37.5,37.5c0,10.9-4.7,20.8-12.1,27.6H462v-396.5
	C441.3-119.3,424.5-136.1,424.5-156.8z"/>
<path class="st1" d="M445.8-172.4l-21.5,15.6c0.1,20.7,16.9,37.4,37.5,37.4v-57.9C456.1-177.3,450.3-175.6,445.8-172.4z"/>
<path class="st1" d="M283.7,0.3c0-16.9-11.1-31.1-26.3-35.9l-21.8,15.9c-8.9,6.5-13.4,20.3-10,30.7l8,24.8c3.9,1.4,8,2.1,12.4,2.1
	C266.8,38,283.7,21.1,283.7,0.3z"/>
<path class="st1" d="M363.1,249.5c0-20.8-16.9-37.5-37.5-37.5c-12.2,0-22.9,5.8-29.8,14.7l10.2,31.5c3.4,10.5,15.1,19,26.2,19H351
	C358.5,270.3,363.1,260.4,363.1,249.5z"/>
<path class="st2" d="M678,40.4c-20.7,0-37.5-16.9-37.5-37.5c0-17.7,12.3-32.5,28.7-36.6L499.5-156.9c-0.1,20.7-16.9,37.4-37.5,37.4
	v396.5h103.5c-5.6-6.6-9-15.1-9-24.4c0-20.8,16.9-37.5,37.5-37.5c13.6,0,25.6,7.3,32.2,18l63.2-194.6C685.8,39.9,682,40.4,678,40.4z
	"/>
<path class="st3" d="M499.5-156.8l-21.5-15.6c-4.4-3.2-10.3-4.8-16.2-4.8v57.9C482.7-119.3,499.5-136.1,499.5-156.8z"/>
<path class="st3" d="M688.4-19.7l-19.2-14c-16.5,4-28.7,18.8-28.7,36.6c0,20.8,16.9,37.5,37.5,37.5c3.9,0,7.7-0.6,11.4-1.8l9-27.6
	C701.8,0.5,697.3-13.2,688.4-19.7z"/>
<path class="st3" d="M594,215.1c-20.8,0-37.5,16.9-37.5,37.5c0,9.3,3.4,17.8,9,24.4H592c11,0,22.7-8.5,26.2-19l8.1-24.9
	C619.5,222.4,607.7,215.1,594,215.1z"/>
<path class="st4" d="M289.9,0.3c-6.8,4.9-10.2,15.4-7.5,23.3l61,187.7c2.5,7.9,11.5,14.4,19.8,14.4H462v-345.2
	c-4.5,0-9,1.2-12.5,3.7L289.9,0.3z"/>
<path class="st5" d="M633.7,0.3L474.1-115.7c-3.3-2.5-7.6-3.6-12.1-3.7v345.2h98.4c8.3,0,17.3-6.5,19.8-14.4l61-187.7
	C643.8,15.7,640.4,5.2,633.7,0.3z"/>
</svg>
