<?xml version="1.0" encoding="utf-8"?>
<!-- Generator: Adobe Illustrator 19.0.0, SVG Export Plug-In . SVG Version: 6.00 Build 0)  -->
<svg version="1.1" id="Layer_1" xmlns="http://www.w3.org/2000/svg" xmlns:xlink="http://www.w3.org/1999/xlink" x="0px" y="0px"
	 viewBox="96 11 512 512" style="enable-background:new 96 11 512 512;" xml:space="preserve">
<style type="text/css">
	.st0{fill:#9BAAAB;}
	.st1{fill:#CDD4D5;}
	.st2{fill:#E6EAEA;}
	.st3{fill:#FFFFFF;}
	.st4{fill:#FF8C29;}
	.st5{fill:#FFD1A9;}
	.st6{fill:#365558;}
	.st7{fill:#0295AA;}
	.st8{fill:#FD6A33;}
	.st9{fill:#F0353D;}
</style>
<rect x="103.3" y="553.2" class="st0" width="128" height="128"/>
<rect x="231.3" y="553.2" class="st1" width="128" height="128"/>
<rect x="359.3" y="553.2" class="st2" width="128" height="128"/>
<rect x="487.3" y="553.2" class="st3" width="128" height="128"/>
<polygon class="st4" points="350.4,330.3 353,330.3 368.2,305.2 368.2,291.7 350.4,291.7 "/>
<polygon class="st5" points="368.2,305.2 376.3,291.7 368.2,291.7 "/>
<polygon points="368.2,176 368.2,174.3 367.2,176 "/>
<rect x="403.8" y="137.4" class="st6" width="35.6" height="38.6"/>
<polygon class="st6" points="368.2,174.3 368.2,176 403.8,176 403.8,137.4 390.4,137.4 "/>
<polygon class="st6" points="439.5,176 445.9,176 469.1,137.4 439.5,137.4 "/>
<rect x="475.1" y="17.9" class="st2" width="35.6" height="3.6"/>
<polygon class="st2" points="475.1,17.9 462,17.9 459.9,21.6 475.1,21.6 "/>
<polygon class="st2" points="541,17.9 510.8,17.9 510.8,21.6 538.8,21.6 "/>
<polygon class="st6" points="413.5,98.8 439.5,98.8 439.5,60.2 436.7,60.2 "/>
<polygon class="st6" points="475.1,98.8 492.3,98.8 510.8,68.1 510.8,60.2 475.1,60.2 "/>
<rect x="439.5" y="60.2" class="st6" width="35.6" height="38.6"/>
<polygon class="st7" points="510.8,68.1 515.6,60.2 510.8,60.2 "/>
<polygon points="439.5,60.2 439.5,55.5 436.7,60.2 "/>
<path class="st1" d="M510.7,21.6h-35.6v10.8c12.5,4.7,24.4,10.1,35.6,16.1V21.6z"/>
<path class="st6" d="M510.7,60.2V48.5c-11.2-6-23.1-11.4-35.6-16.1v27.8H510.7z"/>
<path class="st1" d="M475.1,21.6h-15.2l-2.8,4.7c6.1,1.9,12.1,3.9,18,6.1V21.6z"/>
<path class="st7" d="M439.5,60.2h35.6V32.4c-5.9-2.2-11.9-4.2-18-6.1l-17.6,29.2V60.2z"/>
<path class="st2" d="M538.8,21.6h-28v26.9c3,1.6,5.9,3.3,8.8,5L538.8,21.6z"/>
<path class="st7" d="M515.6,60.2l4-6.7c-2.9-1.7-5.8-3.4-8.8-5v11.7H515.6z"/>
<polygon class="st7" points="403.8,114.9 403.8,137.4 439.5,137.4 439.5,98.8 413.5,98.8 "/>
<polygon class="st7" points="403.8,137.4 403.8,114.9 390.4,137.4 "/>
<polygon class="st7" points="475.1,127.4 492.3,98.8 475.1,98.8 "/>
<polygon class="st6" points="439.5,137.4 469.1,137.4 475.1,127.4 475.1,98.8 439.5,98.8 "/>
<polygon class="st5" points="403.8,245.9 422.7,214.5 403.8,214.5 "/>
<rect x="350.4" y="214.5" class="st5" width="17.8" height="38.6"/>
<polygon class="st4" points="368.2,253.1 399.5,253.1 403.8,245.9 403.8,214.5 368.2,214.5 "/>
<polygon class="st4" points="403.8,214.5 422.7,214.5 439.5,186.7 439.5,176 403.8,176 "/>
<polygon class="st4" points="350.4,204 350.4,214.5 368.2,214.5 368.2,176 367.2,176 "/>
<rect x="368.2" y="176" class="st6" width="35.6" height="38.6"/>
<polygon class="st7" points="439.5,186.7 445.9,176 439.5,176 "/>
<rect x="350.4" y="253.1" class="st5" width="17.8" height="38.6"/>
<polygon class="st8" points="368.2,291.7 376.3,291.7 399.5,253.1 368.2,253.1 "/>
<polygon class="st5" points="350.4,334.8 353,330.3 350.4,330.3 "/>
<path class="st4" d="M414.4,300c-3.9,4.4-7.4,9.1-10.6,14.2v16.2h35.6v-38.7h-17C419.6,294.3,417,297,414.4,300z"/>
<path class="st4" d="M403.8,330.3v-16.2c-3.2,5.1-6.1,10.5-8.6,16.2H403.8z"/>
<path class="st5" d="M510.8,327.2v-5.7c-2.4,1.3-4.7,2.5-7.2,3.7C506.1,325.6,508.5,326.3,510.8,327.2z"/>
<path class="st5" d="M475.1,291.7v38c6.1-3.4,13.3-5.1,21.6-5.1c2.4,0,4.7,0.2,6.9,0.6c2.4-1.2,4.8-2.4,7.2-3.7v-29.8H475.1z"/>
<path class="st8" d="M439.5,330.3h34.6c0.3-0.2,0.7-0.4,1.1-0.6v-38h-35.7V330.3z"/>
<path class="st2" d="M575.2,291.8h-21.1c-2.5,2.2-5.1,4.4-7.8,6.5v32.1H582v-31.1c-0.8-1.1-1.7-2.1-2.6-3.1
	C578.1,294.7,576.7,293.2,575.2,291.8z"/>
<path class="st5" d="M546.3,291.8v6.5c2.7-2.1,5.3-4.3,7.8-6.5H546.3z"/>
<path class="st1" d="M510.8,327.2c2.1,0.8,4.1,1.8,6,3.1h29.7v-32.2c-10.8,8.5-22.7,16.4-35.7,23.4V327.2z"/>
<path class="st4" d="M510.8,291.7v29.8c13-7,24.9-14.8,35.7-23.4v-6.4H510.8z"/>
<path class="st1" d="M582,330.3h17.1c-4.2-11.7-9.9-22.1-17.1-31V330.3z"/>
<path class="st1" d="M564.3,282.3c-3.2,3.2-6.6,6.4-10.1,9.4h21.1C571.9,288.2,568.2,285.1,564.3,282.3z"/>
<path class="st7" d="M564.3,282.3c-5.5-4-11.5-7.4-17.9-10.1v19.5h7.8C557.7,288.6,561.1,285.5,564.3,282.3z"/>
<path class="st6" d="M475.1,265.7v26.1h35.6v-27.9h0.1c-3.6-0.3-7.4-0.4-11.2-0.4C491,263.5,482.9,264.2,475.1,265.7z"/>
<path class="st7" d="M439.5,291.7v-12.8c-6.1,3.6-11.8,7.9-17.1,12.8H439.5z"/>
<path class="st6" d="M439.5,291.7h35.6v-26.1c-13,2.5-24.9,6.9-35.6,13.3V291.7z"/>
<path class="st6" d="M510.8,291.7h35.6v-19.5c-10.6-4.5-22.5-7.3-35.6-8.3V291.7z"/>
<rect x="546.4" y="368.9" class="st1" width="35.6" height="38.6"/>
<path class="st1" d="M539,368.9c1.3,7.1,2,14.9,2,23.5c0,5.4-0.2,10.4-0.6,15.1h6.1v-38.6H539z"/>
<path class="st2" d="M608,388.6c0-6.8-0.3-13.4-0.9-19.7H582v38.6h25.1C607.7,401.4,608,395.1,608,388.6z"/>
<rect x="403.8" y="368.9" class="st1" width="35.6" height="38.6"/>
<path class="st1" d="M384.5,368.9c-1.4,9.4-2,19.3-2,29.7c0,3,0.1,6,0.2,8.9h21.1v-38.6H384.5z"/>
<path class="st2" d="M450.2,395.2c0-9.8,0.7-18.5,2-26.3h-12.7v38.6h11.1C450.3,403.6,450.2,399.5,450.2,395.2z"/>
<rect x="546.4" y="330.3" class="st2" width="35.6" height="38.6"/>
<path class="st2" d="M516.7,330.3c4.5,2.9,8.5,6.9,12.1,12c4.9,7.1,8.3,15.9,10.2,26.5h7.4v-38.6h-29.7V330.3z"/>
<path class="st1" d="M582,330.3v38.6h25.1c-1.2-14.2-3.9-27.1-8-38.6H582z"/>
<path class="st1" d="M403.8,368.9h35.6v-20.3c-11.5,2.8-23.4,5.1-35.6,6.8V368.9z"/>
<path class="st8" d="M403.8,330.3v25.1c12.2-1.7,24.1-4,35.6-6.8v-18.3H403.8z"/>
<path class="st2" d="M384.5,368.9h19.3v-13.5c-5.7,0.8-11.4,1.4-17.2,2C385.8,361.2,385.1,365,384.5,368.9z"/>
<path class="st5" d="M395.2,330.3c-3.7,8.4-6.6,17.4-8.6,27.1c5.8-0.5,11.6-1.2,17.2-2v-25.1H395.2z"/>
<path class="st2" d="M439.5,368.9h12.7c1.9-10.9,5.1-19.8,9.7-26.7c-7.3,2.4-14.7,4.5-22.4,6.4V368.9z"/>
<path class="st4" d="M474.1,330.3h-34.6v18.3c7.6-1.9,15.1-4,22.4-6.4C465.2,337.1,469.3,333.2,474.1,330.3z"/>
<path class="st0" d="M546.4,446.1v38.6h31.4c1.5-1.8,2.9-3.6,4.3-5.5v-33.1H546.4z"/>
<path class="st1" d="M403.8,446.1v32c1.5,2.2,3.1,4.4,4.8,6.6h30.9v-38.6H403.8z"/>
<path class="st0" d="M388.8,446.1c3.5,11.8,8.5,22.5,15,32v-32H388.8z"/>
<path class="st1" d="M510.8,459.4c-4.6,1.6-9.7,2.4-15.4,2.4c-7.8,0-14.5-1.5-20.3-4.4v27.3h35.6L510.8,459.4L510.8,459.4z"/>
<path class="st0" d="M462.1,446.1h-22.7v38.6H475v-27.3C470,454.8,465.7,451,462.1,446.1z"/>
<path class="st1" d="M528.4,446.1c-4.6,6.4-10.5,10.8-17.7,13.3v25.3h35.6v-38.6L528.4,446.1L528.4,446.1z"/>
<path class="st2" d="M582,446.1v33.1c7.3-9.8,13-20.9,17.2-33.1H582z"/>
<rect x="403.8" y="407.5" class="st0" width="35.6" height="38.6"/>
<path class="st0" d="M382.7,407.5c0.6,14,2.6,26.9,6.1,38.6h15v-38.6H382.7z"/>
<path class="st1" d="M450.6,407.5h-11.1v38.6h22.7C455.7,437.1,451.8,424.2,450.6,407.5z"/>
<rect x="546.4" y="407.5" class="st3" width="35.6" height="38.6"/>
<path class="st2" d="M540.3,407.5c-1.4,16.7-5.4,29.6-11.9,38.6h18v-38.6H540.3z"/>
<path class="st0" d="M607.2,407.5H582v38.6h17.2C603.3,434.4,606,421.5,607.2,407.5z"/>
<path class="st2" d="M546.4,484.7v25.7c11.1-5.9,21.1-13.9,29.8-23.9c0.5-0.6,1-1.2,1.5-1.8L546.4,484.7L546.4,484.7z"/>
<path class="st0" d="M475.1,484.7V522c5.3,0.7,10.8,1,16.4,1c6.7,0,13.1-0.4,19.2-1.3v-37H475.1z"/>
<path class="st0" d="M408.6,484.7c1.2,1.6,2.5,3.1,3.9,4.6c8,9,17,16.1,27,21.5v-26.1H408.6z"/>
<path class="st1" d="M439.5,484.7v26.1c10.7,5.8,22.6,9.5,35.6,11.1v-37.3L439.5,484.7L439.5,484.7z"/>
<path class="st0" d="M510.8,484.7v37c13-1.8,24.9-5.6,35.6-11.3v-25.7H510.8z"/>
<path class="st0" d="M190,471.2v13.5h35.6v-18.4c-9.6-3.4-17.9-8.2-24.3-14.1L190,471.2z"/>
<path class="st9" d="M205,446.1l-3.7,6.1c6.4,5.8,14.7,10.6,24.3,14.1v-20.2H205z"/>
<polygon class="st1" points="190,484.7 190,471.2 181.9,484.7 "/>
<path class="st2" d="M261.3,482.9l6.8-11.3c-2.2,0.2-4.5,0.3-6.8,0.3V482.9z"/>
<path class="st9" d="M261.3,446.1V472c2.3,0,4.5-0.1,6.8-0.3l15.3-25.5H261.3z"/>
<path class="st1" d="M225.6,466.3v18.4h34.6l1.1-1.8V472c-0.6,0-1.2,0-1.8,0C247.3,472,235.7,469.9,225.6,466.3z"/>
<path class="st4" d="M225.6,446.1v20.2c10.1,3.6,21.7,5.7,33.9,5.7c0.6,0,1.2,0,1.8,0v-25.9H225.6z"/>
<polygon class="st4" points="332.5,233.7 332.5,253.1 350.4,253.1 350.4,214.5 344,214.5 "/>
<polygon class="st5" points="332.5,253.1 332.5,233.7 320.9,253.1 "/>
<polygon class="st7" points="350.4,214.5 350.4,204 344,214.5 "/>
<polygon class="st8" points="296.9,330.3 296.9,293.1 274.5,330.3 "/>
<rect x="332.5" y="291.7" class="st8" width="17.8" height="38.6"/>
<polygon class="st4" points="296.9,293.1 296.9,330.3 332.5,330.3 332.5,291.7 297.7,291.7 "/>
<rect x="332.5" y="253.1" class="st8" width="17.8" height="38.6"/>
<polygon class="st4" points="297.7,291.7 332.5,291.7 332.5,253.1 320.9,253.1 "/>
<path class="st2" d="M296.9,368.9h-35.6v5.1c13,0.2,25.2,2.7,35.6,7V368.9z"/>
<path class="st9" d="M296.9,407.5V381c-10.4-4.3-22.6-6.8-35.6-7v33.5H296.9z"/>
<path class="st1" d="M261.3,374v-5.1h-9.9l-3.4,5.7c3.8-0.4,7.6-0.6,11.5-0.6C260.1,374,260.7,374,261.3,374z"/>
<path class="st8" d="M261.3,407.5V374c-0.6,0-1.2,0-1.8,0c-3.9,0-7.8,0.2-11.5,0.6l-19.8,32.9H261.3z"/>
<path class="st0" d="M329.8,368.9h-32.9V381c7.2,2.9,13.6,6.7,18.9,11.1L329.8,368.9z"/>
<path class="st8" d="M306.6,407.5l9.2-15.3c-5.3-4.4-11.7-8.2-18.9-11.1v26.5H306.6z"/>
<path class="st1" d="M261.3,352.4v16.5h35.6v-14c-11.4-1.7-22.5-3.9-33.2-6.6L261.3,352.4z"/>
<path class="st4" d="M274.5,330.3l-10.8,18.1c10.7,2.7,21.8,4.9,33.2,6.6v-24.6H274.5z"/>
<polygon class="st0" points="261.3,368.9 261.3,352.4 251.4,368.9 "/>
<path class="st4" d="M332.5,364.4l3.5-5.7c-1.2,0-2.3-0.1-3.5-0.1V364.4z"/>
<path class="st4" d="M350.4,330.3h-17.9v28.2c1.2,0.1,2.3,0.1,3.5,0.1l14.4-23.9V330.3z"/>
<path class="st2" d="M296.9,368.9h32.9l2.7-4.5v-5.9c-12.1-0.6-24-1.8-35.6-3.6V368.9z"/>
<path class="st8" d="M296.9,330.3v24.6c11.6,1.7,23.5,2.9,35.6,3.6v-28.2H296.9z"/>
<polygon class="st8" points="261.3,446.1 283.4,446.1 296.9,423.7 296.9,407.5 261.3,407.5 "/>
<polygon class="st4" points="225.6,446.1 225.6,411.8 205,446.1 "/>
<polygon class="st9" points="225.6,411.8 225.6,446.1 261.3,446.1 261.3,407.5 228.2,407.5 "/>
<polygon class="st4" points="296.9,423.7 306.6,407.5 296.9,407.5 "/>
<rect x="190" y="484.7" class="st0" width="35.6" height="31.3"/>
<polygon class="st0" points="181.9,484.7 163,516.1 190,516.1 190,484.7 "/>
<polygon class="st0" points="260.2,484.7 225.6,484.7 225.6,516.1 241.3,516.1 "/>
<path class="st5" d="M261.3,253.1h7c7.8-5.1,15-11.4,21.5-18.8c2.5-2.9,4.9-5.9,7.1-9v-10.8h-35.6V253.1z"/>
<path class="st5" d="M118.7,227.5c2.3,3.2,4.7,6.3,7.3,9.2c5.7,6.4,11.8,11.8,18.5,16.4h9.8v-38.6h-35.6V227.5z"/>
<path class="st8" d="M118.6,227.5v-13h-7.9C113.1,219.1,115.7,223.4,118.6,227.5z"/>
<rect x="190" y="214.5" class="st8" width="35.6" height="38.6"/>
<rect x="154.3" y="214.5" class="st4" width="35.6" height="38.6"/>
<rect x="225.6" y="214.5" class="st4" width="35.6" height="38.6"/>
<path class="st8" d="M296.9,225.3c2.5-3.5,4.8-7.1,6.8-10.8h-6.8V225.3z"/>
<path class="st1" d="M225.6,11.5c-4.1-0.4-8.2-0.5-12.5-0.5c-8.1,0-15.8,0.6-23.1,1.9v8.7h35.6V11.5z"/>
<path class="st3" d="M189.9,12.9c-10,1.7-19.3,4.6-28,8.7h28V12.9z"/>
<path class="st7" d="M261.3,20.5v1.1h2.4C262.9,21.2,262.1,20.8,261.3,20.5z"/>
<path class="st3" d="M261.3,20.4c-10.6-4.8-22.5-7.8-35.6-8.9v10h35.6V20.4z"/>
<path class="st1" d="M154.3,74.5V60.2h-35.6v38.6h10.9C136.8,90.2,145.1,82.1,154.3,74.5z"/>
<path class="st6" d="M154.3,74.5c-9.2,7.6-17.5,15.7-24.7,24.3h24.7V74.5z"/>
<path class="st2" d="M118.7,60.2h-0.4c-7.4,11.4-13,24.2-16.7,38.6h17.1V60.2z"/>
<path class="st7" d="M190,77c6-3.2,13.1-4.8,21.2-4.8c5.3,0,10.1,0.8,14.4,2.3V60.2H190V77z"/>
<path class="st1" d="M154.3,60.2v14.3c6.1-5,12.5-9.7,19.3-14.3H154.3z"/>
<path class="st6" d="M171.3,98.8c4.3-10.2,10.5-17.5,18.7-21.8V60.2h-16.4c-6.8,4.5-13.3,9.3-19.3,14.3v24.3H171.3z"/>
<rect x="261.3" y="60.2" class="st7" width="35.6" height="38.6"/>
<path class="st6" d="M225.6,74.5c10.4,3.7,18.1,11.8,22.8,24.3h12.8V60.2h-35.6V74.5z"/>
<path class="st7" d="M296.9,60.2v38.6h21.2c-2.9-14.6-7.5-27.4-13.9-38.6H296.9z"/>
<path class="st2" d="M154.3,25.6c-9.8,5.7-18.6,12.9-26.4,21.9c-3.4,3.8-6.4,7.9-9.2,12.1v0.6h35.6V25.6z"/>
<path d="M118.7,59.6c-0.1,0.2-0.3,0.4-0.4,0.6h0.4V59.6z"/>
<path class="st1" d="M225.6,21.6H190v28.7c11.1-6.2,23-11.7,35.6-16.6V21.6z"/>
<path class="st6" d="M225.6,60.2V33.7C213,38.5,201.1,44.1,190,50.3v9.9H225.6z"/>
<path class="st2" d="M190,21.6h-28.1c-2.6,1.2-5.1,2.6-7.6,4v34.6h19.3c5.2-3.5,10.7-6.8,16.4-9.9V21.6z"/>
<path class="st6" d="M190,50.3c-5.7,3.1-11.1,6.5-16.4,9.9H190V50.3z"/>
<path class="st6" d="M263.7,21.6h-2.4v0.7C262.1,22,262.9,21.8,263.7,21.6C263.7,21.6,263.7,21.6,263.7,21.6z"/>
<path class="st6" d="M296.9,60.2V49.1c-1.3-1.7-2.7-3.4-4.1-5.1c-8.3-9.5-18-17-29.1-22.4c-0.8,0.2-1.6,0.4-2.4,0.6v37.9H296.9z"/>
<path class="st0" d="M261.2,21.6h-35.6v12.1c11.4-4.4,23.2-8.2,35.6-11.4V21.6z"/>
<path class="st7" d="M261.2,60.2V22.3c-12.4,3.2-24.2,7-35.6,11.4v26.5H261.2z"/>
<path class="st7" d="M296.9,60.2h7.3c-2.2-3.9-4.7-7.6-7.3-11.1V60.2z"/>
<rect x="261.3" y="137.4" class="st5" width="35.6" height="38.6"/>
<path class="st6" d="M254.5,139.9c0,14.2-1.4,26.2-4.3,36.1h11.1v-38.6h-6.8C254.5,138.2,254.5,139.1,254.5,139.9z"/>
<path class="st6" d="M296.9,176h20.9c2.4-11.9,3.7-24.8,3.7-38.6h-24.6V176z"/>
<rect x="118.7" y="137.4" class="st6" width="35.6" height="38.6"/>
<path class="st5" d="M96.2,137.4c-0.1,2.9-0.2,5.8-0.2,8.8c0,7.6,0.4,14.9,1.2,21.8c1.5-10.5,4.4-20.8,8.5-30.6H96.2z"/>
<path class="st5" d="M118.7,176v-38.6h-13c-4.1,9.9-7,20.1-8.5,30.6c0.3,2.7,0.7,5.4,1.1,8H118.7z"/>
<path class="st7" d="M164.4,137.3h-10.1V176h13.8c-2.5-9.3-3.8-20.3-3.8-33.4C164.3,140.8,164.3,139,164.4,137.3z"/>
<rect x="261.3" y="98.8" class="st6" width="35.6" height="38.6"/>
<path class="st7" d="M254.4,137.4h6.8V98.8h-12.8C252.2,108.8,254.2,121.7,254.4,137.4z"/>
<path class="st7" d="M296.9,98.7v38.6h24.6c0-0.1,0-0.4,0-0.6c0-13.7-1.2-26.4-3.4-38H296.9z"/>
<path class="st2" d="M118.7,98.8v14.5c3.3-5,6.9-9.8,10.9-14.5H118.7z"/>
<path class="st6" d="M154.3,137.4V98.8h-24.7c-3.9,4.7-7.6,9.5-10.9,14.5v24.1H154.3z"/>
<path class="st1" d="M118.7,98.8h-17.1c-3.1,11.8-4.9,24.7-5.4,38.6h9.5c3.5-8.3,7.8-16.4,13-24.1V98.8z"/>
<path class="st6" d="M118.7,113.3c-5.2,7.8-9.5,15.8-13,24.1h13V113.3z"/>
<path class="st7" d="M154.3,137.4h10.1c0.4-15.7,2.7-28.6,6.9-38.6h-17V137.4z"/>
<rect x="118.7" y="176" class="st4" width="35.6" height="38.6"/>
<path class="st6" d="M110.7,214.6h7.9V176H98.3C100.6,190.3,104.8,203.1,110.7,214.6z"/>
<path class="st4" d="M225.5,206.4L225.5,206.4c0,0,0.1,0,0.1,0H225.5z"/>
<path class="st4" d="M189.9,205.4v9.1h35.6v-8.1c-4.9,1.9-10.4,2.9-16.6,2.9C201.7,209.3,195.4,208,189.9,205.4z"/>
<path class="st5" d="M168.2,176h-13.8v38.6H190v-9.1C179.5,200.4,172.2,190.6,168.2,176z"/>
<rect x="261.3" y="176" class="st4" width="35.6" height="38.6"/>
<path class="st5" d="M225.6,206.5v8.1h35.6V176h-11C245.6,191.7,237.4,201.9,225.6,206.5z"/>
<path class="st6" d="M296.9,214.6h6.8c6.5-11.5,11.1-24.4,14.1-38.6h-20.9V214.6z"/>
<path class="st8" d="M154.3,259v-5.9h-9.8C147.7,255.3,150.9,257.2,154.3,259z"/>
<path class="st4" d="M190,269.6c4.9,0.6,9.9,0.9,15.1,0.9c7.1,0,14-0.5,20.5-1.5v-15.8H190V269.6z"/>
<path class="st8" d="M154.3,259c10.7,5.6,22.6,9.1,35.6,10.6v-16.5h-35.6V259z"/>
<path class="st8" d="M261.2,257.3c2.4-1.3,4.8-2.7,7-4.2h-7V257.3z"/>
<path class="st8" d="M225.7,269c13-2,24.9-5.8,35.6-11.7v-4.2h-35.6V269z"/>
<circle class="st7" cx="857" cy="482" r="41"/>
<ellipse class="st7" cx="979.5" cy="423" rx="72.5" ry="49"/>
<ellipse class="st7" cx="1072" cy="185" rx="256" ry="174"/>
<g>
	<g>
		<path class="st6" d="M137,456c14.3,0,26,11.7,26,26s-11.7,26-26,26s-26-11.7-26-26S122.7,456,137,456 M137,441
			c-22.6,0-41,18.4-41,41s18.4,41,41,41s41-18.4,41-41S159.6,441,137,441L137,441z"/>
	</g>
</g>
<g>
	<g>
		<path class="st6" d="M259.5,389c16.2,0,31.8,4.3,42.9,11.8c5.5,3.7,14.6,11.5,14.6,22.2s-9.2,18.5-14.6,22.2
			c-11.1,7.5-26.7,11.8-42.9,11.8s-31.8-4.3-42.9-11.8c-5.5-3.7-14.6-11.5-14.6-22.2s9.2-18.5,14.6-22.2
			C227.7,393.3,243.3,389,259.5,389 M259.5,374c-40,0-72.5,21.9-72.5,49s32.5,49,72.5,49s72.5-21.9,72.5-49S299.5,374,259.5,374
			L259.5,374z"/>
	</g>
</g>
<g>
	<g>
		<path class="st6" d="M352,26c33.2,0,65.3,4.4,95.5,13.1c29,8.3,54.9,20.2,77.1,35.3c44.1,30,68.4,69.3,68.4,110.6
			s-24.3,80.6-68.4,110.6c-22.2,15.1-48.1,27-77.1,35.3c-30.2,8.7-62.3,13.1-95.5,13.1s-65.3-4.4-95.5-13.1
			c-29-8.3-54.9-20.2-77.1-35.3c-44.1-30-68.4-69.3-68.4-110.6s24.3-80.6,68.4-110.6c22.2-15.1,48.1-27,77.1-35.3
			C286.7,30.4,318.8,26,352,26 M352,11C210.6,11,96,88.9,96,185s114.6,174,256,174s256-77.9,256-174S493.4,11,352,11L352,11z"/>
	</g>
</g>
</svg>
