<?xml version="1.0" encoding="utf-8"?>
<!-- Generator: Adobe Illustrator 19.0.0, SVG Export Plug-In . SVG Version: 6.00 Build 0)  -->
<svg version="1.1" id="Layer_1" xmlns="http://www.w3.org/2000/svg" xmlns:xlink="http://www.w3.org/1999/xlink" x="0px" y="0px"
	 viewBox="96 11 512 512" style="enable-background:new 96 11 512 512;" xml:space="preserve">
<style type="text/css">
	.st0{fill:#CDD4D5;}
	.st1{fill:#9BAAAB;}
	.st2{fill:#FD6A33;}
	.st3{fill:#E6EAEA;}
	.st4{fill:#FF8C29;}
	.st5{fill:#4ACFD9;}
	.st6{fill:#0295AA;}
	.st7{fill:#FFFFFF;}
	.st8{fill:#FFD1A9;}
	.st9{fill:#F0353D;}
	.st10{fill:#365558;}
	.st11{fill:#BCD643;}
</style>
<path class="st0" d="M569.2,425.7H354.6V458h214.6c7.5,0,13.6-6.1,13.6-13.6v-5.1C582.7,431.8,576.6,425.7,569.2,425.7z"/>
<path class="st0" d="M170.2,458h38.5c-12.5-8.3-20.7-19.7-21.7-32.3h-50.6c-7.5,0-13.6,6.1-13.6,13.6v4.2c4.4-1.6,9.1-2.5,14-2.5
	C150.7,441,162.8,447.7,170.2,458z"/>
<path class="st1" d="M136.6,458h33.7c-7.4-10.3-19.6-17-33.2-17c-4.9,0-9.7,0.9-14,2.5v0.9C123,451.9,129.1,458,136.6,458z"/>
<path class="st0" d="M354.6,425.7h-22.7c-1,12.6-9.1,24-21.7,32.3h44.3V425.7z"/>
<path class="st1" d="M331.9,425.7H187.1c1,12.6,9.1,24,21.7,32.3h101.4C322.8,449.7,330.9,438.3,331.9,425.7z"/>
<path class="st0" d="M228.8,378.6l-0.4-41.2c-22.2-8.3-42.4-18.8-59.9-31.1l-1.1,105.5c0,7.5,6.1,13.6,13.6,13.6h6.1
	c-0.1-0.8-0.1-1.6-0.1-2.4C187,403.4,204.1,386.4,228.8,378.6z"/>
<path class="st2" d="M229.2,411.8l-0.3-33.2c-24.7,7.8-41.8,24.7-41.8,44.4c0,0.8,0,1.6,0.1,2.4h28.5
	C223.1,425.4,229.2,419.3,229.2,411.8z"/>
<path class="st2" d="M213.6,206.8H183c-7.5,0-13.6,6.1-13.6,13.6l-0.9,85.9c17.5,12.3,37.7,22.8,59.9,31.1l-1.2-117
	C227.2,212.9,221.1,206.8,213.6,206.8z"/>
<path class="st0" d="M331.3,416.4c0.5-1.4,0.8-3,0.8-4.6l-0.6-53.4c-21.5-1.2-42.3-4.1-61.9-8.7l-0.5,24.6
	C301.4,377.3,327,394.6,331.3,416.4z"/>
<path class="st2" d="M282,425.4h36.6c5.9,0,10.9-3.8,12.8-9c-4.3-21.8-29.9-39.1-62.2-42l-0.8,37.4
	C268.4,419.3,274.5,425.4,282,425.4z"/>
<path class="st2" d="M316.6,206.8H286c-7.5,0-13.6,6.1-13.6,13.6l-2.7,129.4c19.7,4.5,40.4,7.5,61.9,8.7l-1.4-138
	C330.2,212.9,324.1,206.8,316.6,206.8z"/>
<path class="st3" d="M373.5,413.4c0,6.6,5.4,12,12,12h37.8c6.6,0,12-5.4,12-12l-0.7-63.7c-19.3,4.5-39.6,7.4-60.6,8.6L373.5,413.4z"
	/>
<path class="st4" d="M421.3,206.8h-33.8c-6.6,0-12,5.4-12,12L374,358.4c21-1.2,41.3-4.2,60.6-8.6l-1.3-130.9
	C433.3,212.2,427.9,206.8,421.3,206.8z"/>
<path class="st3" d="M476.5,413.4c0,6.6,5.4,12,12,12h37.8c6.6,0,12-5.4,12-12l-1.1-108.2c-17.5,12.4-37.7,23.1-59.9,31.6
	L476.5,413.4z"/>
<path class="st4" d="M524.3,206.8h-33.8c-6.6,0-12,5.4-12,12l-1.2,118c22.2-8.5,42.4-19.2,59.9-31.6l-0.9-86.4
	C536.3,212.2,530.9,206.8,524.3,206.8z"/>
<path class="st3" d="M599.7,130.7l-5.8-2.9c4,7.7,7.1,15.7,9.5,24C608.9,146.4,609,136.8,599.7,130.7z"/>
<path class="st5" d="M354.6,20v135.8h238.3c4.3,0,8-1.6,10.5-4c-2.3-8.2-5.5-16.2-9.5-24L397.6,30.4C385.8,23.5,370.2,20,354.6,20z"
	/>
<path class="st0" d="M105,130.7c-8.9,5.1-10.1,15.4-4.3,21.1c2.3-8.1,5.4-15.9,9.3-23.5L105,130.7z"/>
<path class="st6" d="M354.5,155.8V20c-15.5,0-31.1,3.5-42.9,10.4l-201.6,97.9c-3.9,7.6-7,15.5-9.3,23.5c2.5,2.4,6.2,4,11.1,4H354.5z
	"/>
<path class="st0" d="M592.9,470.5H354.6V514H593c7.5,0,13.6-6.1,13.6-13.6v-16.3C606.5,476.7,600.4,470.5,592.9,470.5z"/>
<path class="st0" d="M96.9,490.3v10.1c0,7.5,6.1,13.6,13.6,13.6h0.9C104.1,508.1,98.8,499.9,96.9,490.3z"/>
<path class="st0" d="M354.5,470.5h-77.1c-5.7,1-11.7,1.5-17.8,1.5s-12.1-0.5-17.8-1.5h-65.3c1.1,3.6,1.6,7.5,1.6,11.5
	c0,12.9-6,24.5-15.4,32h191.8V470.5z"/>
<path class="st6" d="M178,482c0-4-0.6-7.9-1.6-11.5h-65.9c-7.5,0-13.6,6.1-13.6,13.6v6.2c2,9.5,7.2,17.8,14.5,23.7h51.2
	C172,506.5,178,494.9,178,482z"/>
<path class="st6" d="M277.3,470.5h-35.7c5.7,1,11.7,1.5,17.8,1.5S271.6,471.5,277.3,470.5z"/>
<path class="st0" d="M569.2,170.6H354.6v36.2h214.6c7.5,0,13.6-6.1,13.6-13.6v-9.1C582.7,176.7,576.6,170.6,569.2,170.6z"/>
<path class="st1" d="M136.6,170.6c-7.5,0-13.6,6.1-13.6,13.6v9.1c0,7.5,6.1,13.6,13.6,13.6h218v-36.2h-218V170.6z"/>
<path class="st7" d="M514.2,405.5c0,3,2.5,5.5,5.5,5.5s5.5-2.5,5.5-5.5v-92.3c-3.6,2.2-7.2,4.4-11,6.5V405.5z"/>
<path class="st8" d="M519.7,222.8c-3,0-5.5,2.5-5.5,5.5v91.3c3.8-2.1,7.4-4.3,11-6.5v-84.9C525.2,225.3,522.7,222.8,519.7,222.8z"/>
<path class="st7" d="M412.2,405.5c0,3,2.5,5.5,5.5,5.5s5.5-2.5,5.5-5.5v-53.3c-3.6,0.7-7.3,1.4-11,2V405.5z"/>
<path class="st8" d="M417.7,222.8c-3,0-5.5,2.5-5.5,5.5v125.9c3.7-0.6,7.4-1.3,11-2V228.3C423.2,225.3,420.7,222.8,417.7,222.8z"/>
<path class="st3" d="M319.1,357.6c-3.7-0.3-7.4-0.7-11-1.1v30.2c4.1,2.5,7.8,5.4,11,8.5V357.6z"/>
<path class="st7" d="M313.6,410.2c3,0,5.5-2.5,5.5-5.5v-9.6c-3.2-3.1-6.9-5.9-11-8.5v18.1C308.1,407.7,310.6,410.2,313.6,410.2z"/>
<path class="st4" d="M313.6,222c-3,0-5.5,2.5-5.5,5.5v128.9c3.6,0.4,7.3,0.8,11,1.1V227.5C319.1,224.5,316.6,222,313.6,222z"/>
<path class="st3" d="M217.1,332.9c-3.7-1.6-7.4-3.2-11-4.9v61.9c3.3-2.4,7-4.7,11-6.6V332.9z"/>
<path class="st4" d="M211.6,410.2c3,0,5.5-2.5,5.5-5.5v-21.4c-4,2-7.7,4.2-11,6.6v14.8C206.1,407.7,208.6,410.2,211.6,410.2z"/>
<path class="st4" d="M211.6,222c-3,0-5.5,2.5-5.5,5.5V328c3.6,1.7,7.3,3.3,11,4.9V227.5C217.1,224.5,214.6,222,211.6,222z"/>
<circle class="st0" cx="300.3" cy="189" r="12.5"/>
<circle class="st0" cx="198.3" cy="189" r="12.5"/>
<circle class="st3" cx="506.9" cy="188.7" r="12.5"/>
<circle class="st3" cx="404.8" cy="188.7" r="12.5"/>
<path class="st0" d="M295.3,125.3V189h10v-58.7h49.3v-10h-54.3C297.5,120.3,295.3,122.5,295.3,125.3z"/>
<path class="st0" d="M257.5,92v28.3h-59.2c-2.8,0-5,2.2-5,5V189h10v-58.7h59.2c2.8,0,5-2.2,5-5V97h87.1V87h-92.1
	C259.7,87,257.5,89.2,257.5,92z"/>
<path class="st3" d="M405.5,120.3h-54.2v10h49.2V189h10v-63.7C410.5,122.5,408.2,120.3,405.5,120.3z"/>
<path class="st3" d="M507.6,120.3h-59.3V92c0-2.8-2.2-5-5-5h-92v10h87v28.3c0,2.8,2.2,5,5,5h59.3V189h10v-63.7
	C512.6,122.5,510.3,120.3,507.6,120.3z"/>
<path class="st4" d="M354.6,37.4v109.3c30.2,0,54.6-24.5,54.6-54.6C409.2,62,384.7,37.4,354.6,37.4z"/>
<path class="st2" d="M299.9,92c0,30.2,24.5,54.6,54.6,54.6V37.3C324.4,37.4,299.9,61.8,299.9,92z"/>
<path class="st7" d="M375,89.6c4.7-2.4,7.6-6.6,6.9-13.6c-0.9-9.6-8.8-12.8-19.3-13.7V49h-8.1v13c-2.1,0-4.3,0.1-6.4,0.1V49H340
	v13.3c-3,0.1-6.5,0-16.3,0V71c6.4-0.1,9.8-0.5,10.6,3.6v36.5c-0.5,3.3-3.1,2.8-8.9,2.7l-1.6,9.7c14.8,0,16.3,0.1,16.3,0.1V135h8.1
	v-11.2c2.2,0.1,4.4,0.1,6.4,0.1v11.2h8.1v-11.4c13.6-0.7,22.8-4.2,24-17C387.5,96,382.7,91.4,375,89.6z M348.2,71.4
	c4.6,0,19-1.4,19,8.1c0,9.1-14.4,8.1-19,8.1V71.4z M348.2,113.7V95.8c5.5,0,22.3-1.5,22.3,8.9C370.5,114.8,353.7,113.7,348.2,113.7z
	"/>
<circle class="st6" cx="836" cy="454" r="41"/>
<ellipse class="st6" cx="958.5" cy="395" rx="72.5" ry="49"/>
<ellipse class="st6" cx="1051" cy="157" rx="256" ry="174"/>
<rect x="-677" y="-9.8" class="st9" width="128" height="128"/>
<rect x="-549" y="-9.8" class="st2" width="128" height="128"/>
<rect x="-421" y="-9.8" class="st4" width="128" height="128"/>
<rect x="-293" y="-9.8" class="st8" width="128" height="128"/>
<rect x="-677" y="118.2" class="st10" width="128" height="128"/>
<rect x="-549" y="118.2" class="st6" width="128" height="128"/>
<rect x="-421" y="118.2" class="st5" width="128" height="128"/>
<rect x="-677" y="246.2" class="st1" width="128" height="128"/>
<rect x="-549" y="246.2" class="st0" width="128" height="128"/>
<rect x="-421" y="246.2" class="st3" width="128" height="128"/>
<rect x="-293" y="246.2" class="st7" width="128" height="128"/>
<rect x="-677" y="374.2" class="st11" width="128" height="128"/>
<g>
	<g>
		<path class="st10" d="M137,456c14.3,0,26,11.7,26,26c0,14.3-11.7,26-26,26s-26-11.7-26-26C111,467.7,122.7,456,137,456 M137,441
			c-22.6,0-41,18.4-41,41s18.4,41,41,41s41-18.4,41-41S159.6,441,137,441L137,441z"/>
	</g>
</g>
<g>
	<g>
		<path class="st10" d="M259.5,389c16.2,0,31.8,4.3,42.9,11.8c5.5,3.7,14.6,11.5,14.6,22.2c0,10.7-9.2,18.5-14.6,22.2
			c-11.1,7.5-26.7,11.8-42.9,11.8s-31.8-4.3-42.9-11.8c-5.5-3.7-14.6-11.5-14.6-22.2c0-10.7,9.2-18.5,14.6-22.2
			C227.7,393.3,243.3,389,259.5,389 M259.5,374c-40,0-72.5,21.9-72.5,49c0,27.1,32.5,49,72.5,49s72.5-21.9,72.5-49
			C332,395.9,299.5,374,259.5,374L259.5,374z"/>
	</g>
</g>
<g>
	<g>
		<path class="st10" d="M352,26c33.2,0,65.3,4.4,95.5,13.1c29,8.3,54.9,20.2,77.1,35.3c44.1,30,68.4,69.3,68.4,110.6
			s-24.3,80.6-68.4,110.6c-22.2,15.1-48.1,27-77.1,35.3c-30.2,8.7-62.3,13.1-95.5,13.1s-65.3-4.4-95.5-13.1
			c-29-8.3-54.9-20.2-77.1-35.3c-44.1-30-68.4-69.3-68.4-110.6s24.3-80.6,68.4-110.6c22.2-15.1,48.1-27,77.1-35.3
			C286.7,30.4,318.8,26,352,26 M352,11C210.6,11,96,88.9,96,185s114.6,174,256,174s256-77.9,256-174S493.4,11,352,11L352,11z"/>
	</g>
</g>
</svg>
