<?xml version="1.0" encoding="iso-8859-1"?>
<!-- Generator: Adobe Illustrator 19.0.0, SVG Export Plug-In . SVG Version: 6.00 Build 0)  -->
<svg version="1.1" id="Layer_1" xmlns="http://www.w3.org/2000/svg" xmlns:xlink="http://www.w3.org/1999/xlink" x="0px" y="0px"
	 viewBox="0 0 512 512" style="enable-background:new 0 0 512 512;" xml:space="preserve">
<g>
	<path style="fill:#E6EAEA;" d="M511.153,500.398L263.17,4.432C261.813,1.716,259.037,0,256,0c-3.037,0-5.813,1.716-7.17,4.432
		L0.847,500.398c-1.243,2.485-1.11,5.436,0.351,7.8c1.46,2.363,4.04,3.802,6.82,3.802h495.967c2.779,0,5.359-1.439,6.82-3.802
		C512.263,505.835,512.397,502.883,511.153,500.398z"/>
	<path style="fill:#E6EAEA;" d="M256,0c-3.037,0-5.813,1.716-7.17,4.432L124.838,252.415h262.324L263.17,4.432
		C261.813,1.716,259.037,0,256,0z"/>
</g>
<path style="fill:#FF8C29;" d="M0.847,500.398c-1.243,2.485-1.11,5.436,0.351,7.8c1.46,2.363,4.04,3.802,6.82,3.802H256
	L124.838,252.415L0.847,500.398z"/>
<path style="fill:#4ACFD9;" d="M387.162,252.415L256,512h247.983c2.779,0,5.359-1.439,6.82-3.802c1.46-2.363,1.594-5.315,0.351-7.8
	L387.162,252.415z"/>
<polygon style="fill:#9BAAAB;" points="185.042,132.008 124.838,252.415 387.162,252.415 326.959,132.008 "/>
<path style="fill:#CDD4D5;" d="M455.226,388.543H56.774L0.847,500.398c-1.243,2.485-1.11,5.436,0.351,7.8
	c1.46,2.363,4.04,3.802,6.82,3.802h495.967c2.779,0,5.359-1.439,6.82-3.802c1.46-2.363,1.594-5.315,0.351-7.8L455.226,388.543z"/>
<path style="fill:#FD6A33;" d="M56.774,388.543L0.847,500.398c-1.243,2.485-1.11,5.436,0.351,7.8c1.46,2.363,4.04,3.802,6.82,3.802
	H256l-62.38-123.457H56.774z"/>
<path style="fill:#0295AA;" d="M455.226,388.543H318.38L256,512h247.983c2.779,0,5.359-1.439,6.82-3.802
	c1.46-2.363,1.594-5.315,0.351-7.8L455.226,388.543z"/>
<g>
</g>
<g>
</g>
<g>
</g>
<g>
</g>
<g>
</g>
<g>
</g>
<g>
</g>
<g>
</g>
<g>
</g>
<g>
</g>
<g>
</g>
<g>
</g>
<g>
</g>
<g>
</g>
<g>
</g>
</svg>
