<?xml version="1.0" encoding="utf-8"?>
<!-- Generator: Adobe Illustrator 19.0.0, SVG Export Plug-In . SVG Version: 6.00 Build 0)  -->
<svg version="1.1" id="Layer_1" xmlns="http://www.w3.org/2000/svg" xmlns:xlink="http://www.w3.org/1999/xlink" x="0px" y="0px"
	 viewBox="96 11 512 512" style="enable-background:new 96 11 512 512;" xml:space="preserve">
<style type="text/css">
	.st0{fill:#E6EAEA;}
	.st1{fill:#FF8C29;}
	.st2{fill:#4ACFD9;}
	.st3{fill:#9BAAAB;}
	.st4{fill:#CDD4D5;}
	.st5{fill:#FD6A33;}
	.st6{fill:#0295AA;}
	.st7{fill:#FFFFFF;}
</style>
<g>
	<g>
		<path class="st0" d="M607.2,398l-248-382.6c-1.4-2.1-4.1-3.4-7.2-3.4c-3,0-5.8,1.3-7.2,3.4L96.8,398c-1.2,1.9-1.1,4.2,0.4,6
			s4,2.9,6.8,2.9h496c2.8,0,5.4-1.1,6.8-2.9C608.3,402.2,608.4,400,607.2,398z"/>
		<path class="st0" d="M352,12c-3,0-5.8,1.3-7.2,3.4l-124,191.3h262.3l-124-191.3C357.8,13.3,355,12,352,12z"/>
	</g>
	<path class="st1" d="M96.8,398c-1.2,1.9-1.1,4.2,0.4,6s4,2.9,6.8,2.9h248L220.8,206.7L96.8,398z"/>
	<path class="st2" d="M483.2,206.7L352,407h248c2.8,0,5.4-1.1,6.8-2.9c1.5-1.8,1.6-4.1,0.4-6L483.2,206.7z"/>
	<polygon class="st3" points="281,113.8 220.8,206.7 483.2,206.7 423,113.8 	"/>
	<path class="st4" d="M551.2,311.8H152.8l-56,86.2c-1.2,1.9-1.1,4.2,0.4,6s4,2.9,6.8,2.9h496c2.8,0,5.4-1.1,6.8-2.9
		c1.5-1.8,1.6-4.1,0.4-6L551.2,311.8z"/>
	<path class="st5" d="M152.8,311.8l-56,86.2c-1.2,1.9-1.1,4.2,0.4,6s4,2.9,6.8,2.9h248l-62.4-95.2L152.8,311.8L152.8,311.8z"/>
	<path class="st6" d="M551.2,311.8H414.4L352,407h248c2.8,0,5.4-1.1,6.8-2.9c1.5-1.8,1.6-4.1,0.4-6L551.2,311.8z"/>
</g>
<g>
	<path class="st7" d="M498.3,433.8H350.5v83.4h147.8c6.6,0,12-5.4,12-12v-59.4C510.3,439.2,504.9,433.8,498.3,433.8z"/>
	<path class="st0" d="M205.1,433.8c-6.6,0-12,5.4-12,12v59.4c0,6.6,5.4,12,12,12h145.5v-83.4H205.1z"/>
	<circle class="st5" cx="258.5" cy="475.5" r="11.5"/>
	<circle class="st5" cx="350.5" cy="475.5" r="11.5"/>
	<circle class="st1" cx="442.5" cy="475.5" r="11.5"/>
	<path class="st2" d="M351,523h145c10.5,0,19-8.5,19-19v-57c0-10.5-8.5-19-19-19H351v10h145c5,0,9,4,9,9v57c0,5-4,9-9,9H351V523z"/>
	<path class="st6" d="M351,513H206c-5,0-9-4-9-9v-57c0-5,4-9,9-9h145v-10H206c-10.5,0-19,8.5-19,19v57c0,10.5,8.5,19,19,19h145V513z
		"/>
	<path class="st1" d="M351,487c6.1-0.3,11-5.3,11-11.5s-4.9-11.2-11-11.5V487z"/>
</g>
</svg>
