<?xml version="1.0" encoding="utf-8"?>
<!-- Generator: Adobe Illustrator 19.0.0, SVG Export Plug-In . SVG Version: 6.00 Build 0)  -->
<svg version="1.1" id="Layer_1" xmlns="http://www.w3.org/2000/svg" xmlns:xlink="http://www.w3.org/1999/xlink" x="0px" y="0px"
	 viewBox="96 11 512 512" style="enable-background:new 96 11 512 512;" xml:space="preserve">
<style type="text/css">
	.st0{fill:#4ACFD9;}
	.st1{fill:#0295AA;}
	.st2{fill:#CDD4D5;}
	.st3{fill:#9BAAAB;}
</style>
<polygon class="st0" points="203.2,118.1 232,89.4 246.1,103.6 217.4,132.3 "/>
<polygon class="st1" points="188.6,161.2 174.5,147 203.2,118.2 217.4,132.4 "/>
<polygon class="st0" points="231.6,146.4 260.3,117.7 274.4,131.9 245.7,160.6 "/>
<polygon class="st1" points="216.9,189.4 202.8,175.3 231.5,146.5 245.7,160.6 "/>
<path class="st0" d="M259.8,174.7l41.8,41.8l21.3-21.3c4.1-4.1,4.1-10.8,0-14.8l-34.4-34.4L259.8,174.7z"/>
<path class="st1" d="M231,203.5l34.4,34.4c4.1,4.1,10.8,4.1,14.8,0l21.3-21.3l-41.8-41.8L231,203.5z"/>
<polygon class="st2" points="245.7,160.6 274.4,131.9 288.6,146.1 259.8,174.8 "/>
<polygon class="st3" points="231,203.5 216.9,189.3 245.7,160.6 259.8,174.7 "/>
<polygon class="st2" points="217.4,132.4 246.1,103.7 260.3,117.8 231.5,146.5 "/>
<polygon class="st3" points="202.8,175.2 188.6,161.1 217.4,132.3 231.5,146.4 "/>
<polygon class="st0" points="171.4,86.4 200.1,57.7 217.8,75.4 189.1,104.1 "/>
<polygon class="st1" points="160.3,132.8 142.6,115.1 171.4,86.3 189.1,104 "/>
<polygon class="st2" points="189.1,104.1 217.8,75.4 231.9,89.5 203.2,118.2 "/>
<polygon class="st3" points="174.5,147 160.3,132.8 189.1,104.1 203.2,118.2 "/>
<path class="st0" d="M220.5,11.1l-99-0.1c-6.8,0-13.2,2.6-18,7.5l0,0l0,0L138,52.9l0,0l0,0c4.8-4.8,11.2-7.5,18-7.5l56.3,0.1
	l15.9-15.9c4.9-4.9,6.7-9.5,5.2-13S227.3,11.1,220.5,11.1z"/>
<path class="st1" d="M96,36.4v99.1c0,6.9,2,11.5,5.5,12.9c3.6,1.5,8.2-0.4,13-5.2l15.9-15.9V70.9c0-6.8,2.6-13.1,7.4-18l-34.5-34.5
	C98.6,23.3,96,29.6,96,36.4z"/>
<path class="st0" d="M212.3,45.5L156,45.4c-6.8,0-13.2,2.6-18,7.5l0,0l0,0l33.4,33.4L212.3,45.5z"/>
<path class="st1" d="M130.5,127.3l40.9-40.9L138,52.9c-4.8,4.8-7.5,11.2-7.4,18L130.5,127.3z"/>
<polygon class="st0" points="500.7,118.3 529.4,147 515.3,161.1 486.6,132.4 "/>
<polygon class="st1" points="457.8,103.7 472,89.5 500.7,118.3 486.6,132.4 "/>
<polygon class="st0" points="472.5,146.5 501.2,175.2 487.1,189.4 458.4,160.6 "/>
<polygon class="st1" points="429.6,131.9 443.8,117.8 472.5,146.5 458.4,160.7 "/>
<path class="st0" d="M444.2,174.8l-41.8,41.8l21.3,21.3c4.1,4.1,10.8,4.1,14.8,0l34.4-34.4L444.2,174.8z"/>
<path class="st1" d="M415.5,146l-34.4,34.4c-4.1,4.1-4.1,10.8,0,14.8l21.3,21.3l41.8-41.8L415.5,146z"/>
<polygon class="st2" points="458.3,160.7 487,189.4 472.9,203.6 444.2,174.9 "/>
<polygon class="st3" points="415.4,146.1 429.5,131.9 458.3,160.7 444.2,174.8 "/>
<polygon class="st2" points="486.6,132.4 515.3,161.1 501.1,175.2 472.4,146.5 "/>
<polygon class="st3" points="443.7,117.8 457.8,103.6 486.6,132.4 472.4,146.5 "/>
<polygon class="st0" points="532.5,86.4 561.2,115.1 543.6,132.8 514.9,104.1 "/>
<polygon class="st1" points="486.1,75.3 503.8,57.6 532.5,86.4 514.9,104.1 "/>
<polygon class="st2" points="514.9,104.1 543.6,132.8 529.4,146.9 500.7,118.2 "/>
<polygon class="st3" points="472,89.4 486.1,75.3 514.9,104.1 500.7,118.2 "/>
<path class="st0" d="M607.9,135.5l0.1-99c0-6.8-2.6-13.2-7.5-18l0,0l0,0L566,52.9l0,0l0,0c4.8,4.8,7.5,11.2,7.5,18l-0.1,56.3
	l15.9,15.9c4.9,4.9,9.5,6.7,13,5.2C605.9,146.9,607.8,142.3,607.9,135.5z"/>
<path class="st1" d="M582.5,11h-99.1c-6.9,0-11.5,2-12.9,5.5c-1.5,3.6,0.4,8.2,5.2,13l15.9,15.9H548c6.8,0,13.1,2.6,18,7.4
	l34.5-34.5C595.7,13.6,589.3,11,582.5,11z"/>
<path class="st0" d="M573.4,127.3l0.1-56.3c0-6.8-2.6-13.2-7.5-18l0,0l0,0l-33.4,33.4L573.4,127.3z"/>
<path class="st1" d="M491.7,45.5l40.9,40.9L566,52.9c-4.8-4.8-11.2-7.5-18-7.4H491.7z"/>
<polygon class="st0" points="500.7,415.7 472,444.4 457.9,430.3 486.6,401.6 "/>
<polygon class="st1" points="515.4,372.9 529.5,387.1 500.7,415.8 486.6,401.7 "/>
<polygon class="st0" points="472.5,387.5 443.8,416.2 429.6,402 458.3,373.3 "/>
<polygon class="st1" points="487.1,344.6 501.2,358.8 472.4,387.5 458.3,373.4 "/>
<path class="st0" d="M444.2,359.3l-41.8-41.8l-21.3,21.3c-4.1,4.1-4.1,10.8,0,14.8l34.4,34.4L444.2,359.3z"/>
<path class="st1" d="M473,330.5l-34.5-34.4c-4.1-4.1-10.8-4.1-14.8,0l-21.3,21.3l41.8,41.8L473,330.5z"/>
<polygon class="st2" points="458.3,373.4 429.6,402.1 415.5,388 444.2,359.3 "/>
<polygon class="st3" points="472.9,330.4 487.1,344.6 458.3,373.3 444.2,359.2 "/>
<polygon class="st2" points="486.6,401.7 457.9,430.4 443.7,416.2 472.5,387.5 "/>
<polygon class="st3" points="501.2,358.7 515.4,372.9 486.6,401.6 472.4,387.5 "/>
<polygon class="st0" points="532.6,447.6 503.9,476.3 486.2,458.7 514.9,430 "/>
<polygon class="st1" points="543.7,401.1 561.3,418.8 532.6,447.6 514.9,429.9 "/>
<polygon class="st2" points="514.9,430 486.2,458.7 472,444.5 500.7,415.8 "/>
<polygon class="st3" points="529.5,387 543.7,401.2 514.9,429.9 500.7,415.8 "/>
<path class="st0" d="M483.5,522.9l99,0.1c6.8,0,13.2-2.6,18-7.5l0,0l0,0L566,481.1l0,0l0,0c-4.8,4.8-11.2,7.5-18,7.5l-56.3-0.1
	l-15.9,15.9c-4.9,4.9-6.7,9.5-5.2,13S476.7,522.9,483.5,522.9z"/>
<path class="st1" d="M608,497.6v-99.1c0-6.9-2-11.5-5.5-12.9c-3.6-1.5-8.2,0.4-13,5.2l-15.9,15.9v56.4c0,6.8-2.6,13.1-7.4,18
	l34.5,34.5C605.4,510.7,608,504.4,608,497.6z"/>
<path class="st0" d="M491.7,488.5l56.3,0.1c6.8,0,13.2-2.6,18-7.5l0,0l0,0l-33.4-33.4L491.7,488.5z"/>
<path class="st1" d="M573.5,406.7l-40.9,40.9L566,481c4.8-4.8,7.5-11.2,7.4-18L573.5,406.7z"/>
<polygon class="st0" points="203.1,415.8 174.4,387 188.6,372.9 217.3,401.6 "/>
<polygon class="st1" points="246.2,430.4 232,444.5 203.2,415.8 217.4,401.6 "/>
<polygon class="st0" points="231.4,387.4 202.7,358.7 216.9,344.6 245.6,373.3 "/>
<polygon class="st1" points="274.4,402.1 260.3,416.2 231.5,387.5 245.6,373.3 "/>
<path class="st0" d="M259.7,359.2l41.8-41.8l-21.3-21.3c-4.1-4.1-10.8-4.1-14.8,0l-34.4,34.4L259.7,359.2z"/>
<path class="st1" d="M288.5,388l34.4-34.4c4.1-4.1,4.1-10.8,0-14.8l-21.3-21.3l-41.8,41.8L288.5,388z"/>
<polygon class="st2" points="245.6,373.3 216.9,344.6 231.1,330.4 259.8,359.2 "/>
<polygon class="st3" points="288.5,388 274.3,402.1 245.6,373.3 259.7,359.2 "/>
<polygon class="st2" points="217.4,401.6 188.7,372.9 202.8,358.7 231.5,387.5 "/>
<polygon class="st3" points="260.2,416.2 246.1,430.4 217.3,401.6 231.4,387.5 "/>
<polygon class="st0" points="171.4,447.6 142.7,418.9 160.4,401.2 189.1,429.9 "/>
<polygon class="st1" points="217.8,458.7 200.1,476.4 171.3,447.6 189,429.9 "/>
<polygon class="st2" points="189.1,429.9 160.4,401.2 174.5,387.1 203.2,415.8 "/>
<polygon class="st3" points="232,444.5 217.8,458.7 189.1,429.9 203.2,415.8 "/>
<path class="st0" d="M96.1,398.5l-0.1,99c0,6.8,2.6,13.2,7.5,18l0,0l0,0l34.4-34.5l0,0l0,0c-4.8-4.8-7.5-11.2-7.5-18l0.1-56.3
	l-15.9-15.9c-4.9-4.9-9.5-6.7-13-5.2S96.1,391.7,96.1,398.5z"/>
<path class="st1" d="M121.4,523h99.1c6.9,0,11.5-2,12.9-5.5c1.5-3.6-0.4-8.2-5.2-13l-15.9-15.9h-56.4c-6.8,0-13.1-2.6-18-7.4
	l-34.5,34.5C108.3,520.4,114.6,523,121.4,523z"/>
<path class="st0" d="M130.5,406.7l-0.1,56.3c0,6.8,2.6,13.2,7.5,18l0,0l0,0l33.4-33.4L130.5,406.7z"/>
<path class="st1" d="M212.3,488.5l-40.9-40.9L137.9,481c4.8,4.8,11.2,7.5,18,7.4L212.3,488.5z"/>
</svg>
