<?xml version="1.0" encoding="utf-8"?>
<!-- Generator: Adobe Illustrator 19.0.0, SVG Export Plug-In . SVG Version: 6.00 Build 0)  -->
<svg version="1.1" id="Layer_1" xmlns="http://www.w3.org/2000/svg" xmlns:xlink="http://www.w3.org/1999/xlink" x="0px" y="0px"
	 viewBox="96 11 512 512" style="enable-background:new 96 11 512 512;" xml:space="preserve">
<style type="text/css">
	.st0{fill:#FF8C29;}
	.st1{fill:#FD6A33;}
	.st2{fill:#4ACFD9;}
	.st3{fill:#0295AA;}
	.st4{fill:#CDD4D5;}
	.st5{fill:#9BAAAB;}
	.st6{fill:#F0353D;}
	.st7{fill:#FFD1A9;}
	.st8{fill:#365558;}
	.st9{fill:none;stroke:#000000;stroke-miterlimit:10;}
	.st10{fill:#E6EAEA;}
	.st11{fill:#FFFFFF;}
	.st12{fill:#BCD643;}
</style>
<path class="st0" d="M352,32.4v394.6c76-37.2,148.4-77.2,171.9-91.6c51.6-31.8,84.1-77.8,84.1-128.9C608,110.3,493.4,32.4,352,32.4z
	"/>
<path class="st1" d="M96,206.4c0,70.7,62,131.5,151.1,158.8c32,9.8-116.9,142.9-80.1,136.2c40.1-7.2,114.1-39.7,185-74.4V32.4
	C210.6,32.4,96,110.3,96,206.4z"/>
<polygon class="st2" points="277.3,132.8 291.8,118.4 298.8,125.5 284.4,139.9 "/>
<polygon class="st3" points="270,154.4 262.9,147.3 277.3,132.8 284.4,139.9 "/>
<polygon class="st2" points="291.6,147 306,132.6 313,139.7 298.6,154.1 "/>
<polygon class="st3" points="284.2,168.5 277.1,161.5 291.5,147 298.6,154.1 "/>
<path class="st2" d="M305.7,161.2l21,21l10.7-10.7c2.1-2.1,2.1-5.4,0-7.4l-17.3-17.3L305.7,161.2z"/>
<path class="st3" d="M291.3,175.6l17.3,17.3c2.1,2.1,5.4,2.1,7.4,0l10.7-10.7l-21-21L291.3,175.6z"/>
<polygon class="st4" points="298.6,154.1 313,139.7 320.2,146.8 305.7,161.2 "/>
<polygon class="st5" points="291.3,175.6 284.2,168.5 298.6,154.1 305.7,161.2 "/>
<polygon class="st4" points="284.4,139.9 298.8,125.5 306,132.6 291.5,147 "/>
<polygon class="st5" points="277.1,161.4 270,154.3 284.4,139.9 291.5,147 "/>
<polygon class="st2" points="261.3,116.8 275.8,102.4 284.6,111.3 270.2,125.7 "/>
<polygon class="st3" points="255.8,140.1 246.9,131.3 261.3,116.8 270.2,125.7 "/>
<polygon class="st4" points="270.2,125.7 284.6,111.3 291.7,118.4 277.3,132.8 "/>
<polygon class="st5" points="262.9,147.3 255.8,140.1 270.2,125.7 277.3,132.8 "/>
<path class="st2" d="M286,79.1L236.3,79c-3.4,0-6.6,1.3-9,3.8l0,0l0,0l17.3,17.3l0,0l0,0c2.4-2.4,5.6-3.8,9-3.8l28.3,0.1l8-8
	c2.5-2.5,3.4-4.8,2.6-6.5S289.4,79.1,286,79.1z"/>
<path class="st3" d="M223.5,91.7v49.7c0,3.5,1,5.8,2.8,6.5c1.8,0.8,4.1-0.2,6.5-2.6l8-8v-28.3c0-3.4,1.3-6.6,3.7-9l-17.3-17.3
	C224.8,85.2,223.5,88.3,223.5,91.7z"/>
<path class="st2" d="M281.9,96.3l-28.3-0.1c-3.4,0-6.6,1.3-9,3.8l0,0l0,0l16.8,16.8L281.9,96.3z"/>
<path class="st3" d="M240.8,137.4l20.5-20.5L244.6,100c-2.4,2.4-3.8,5.6-3.7,9L240.8,137.4z"/>
<polygon class="st2" points="426.6,132.9 441,147.3 434,154.3 419.6,139.9 "/>
<polygon class="st3" points="405.1,125.5 412.2,118.4 426.6,132.9 419.6,139.9 "/>
<polygon class="st2" points="412.5,147 426.9,161.4 419.8,168.5 405.4,154.1 "/>
<polygon class="st3" points="391,139.7 398.1,132.6 412.5,147 405.4,154.1 "/>
<path class="st2" d="M398.3,161.2l-21,21l10.7,10.7c2.1,2.1,5.4,2.1,7.4,0l17.3-17.3L398.3,161.2z"/>
<path class="st3" d="M383.9,146.8L366.6,164c-2.1,2.1-2.1,5.4,0,7.4l10.7,10.7l21-21L383.9,146.8z"/>
<polygon class="st4" points="405.4,154.1 419.8,168.5 412.7,175.7 398.3,161.3 "/>
<polygon class="st5" points="383.8,146.8 390.9,139.7 405.4,154.1 398.3,161.2 "/>
<polygon class="st4" points="419.6,139.9 434,154.3 426.8,161.4 412.4,147 "/>
<polygon class="st5" points="398,132.6 405.1,125.5 419.6,139.9 412.4,147 "/>
<polygon class="st2" points="442.6,116.8 457,131.3 448.2,140.1 433.8,125.7 "/>
<polygon class="st3" points="419.3,111.3 428.2,102.4 442.6,116.8 433.8,125.7 "/>
<polygon class="st4" points="433.8,125.7 448.2,140.1 441,147.2 426.6,132.8 "/>
<polygon class="st5" points="412.2,118.4 419.3,111.3 433.8,125.7 426.6,132.8 "/>
<path class="st2" d="M480.4,141.5l0.1-49.7c0-3.4-1.3-6.6-3.8-9l0,0l0,0L459.4,100l0,0l0,0c2.4,2.4,3.8,5.6,3.8,9l-0.1,28.3l8,8
	c2.5,2.5,4.8,3.4,6.5,2.6C479.4,147.2,480.4,144.9,480.4,141.5z"/>
<path class="st3" d="M467.7,79H418c-3.5,0-5.8,1-6.5,2.8c-0.8,1.8,0.2,4.1,2.6,6.5l8,8h28.3c3.4,0,6.6,1.3,9,3.7l17.3-17.3
	C474.3,80.3,471.1,79,467.7,79z"/>
<path class="st2" d="M463.1,137.4l0.1-28.3c0-3.4-1.3-6.6-3.8-9l0,0l0,0l-16.8,16.8L463.1,137.4z"/>
<path class="st3" d="M422.1,96.3l20.5,20.5l16.8-16.8c-2.4-2.4-5.6-3.8-9-3.7H422.1z"/>
<polygon class="st2" points="426.6,282.1 412.2,296.5 405.2,289.5 419.6,275.1 "/>
<polygon class="st3" points="434,260.7 441.1,267.8 426.6,282.2 419.6,275.1 "/>
<polygon class="st2" points="412.5,268 398.1,282.4 391,275.3 405.4,260.9 "/>
<polygon class="st3" points="419.8,246.5 426.9,253.6 412.4,268 405.4,260.9 "/>
<path class="st2" d="M398.3,253.8l-21-21l-10.7,10.7c-2.1,2.1-2.1,5.4,0,7.4l17.3,17.3L398.3,253.8z"/>
<path class="st3" d="M412.7,239.4l-17.3-17.3c-2.1-2.1-5.4-2.1-7.4,0l-10.7,10.7l21,21L412.7,239.4z"/>
<polygon class="st4" points="405.4,260.9 391,275.3 383.9,268.2 398.3,253.8 "/>
<polygon class="st5" points="412.7,239.3 419.8,246.5 405.4,260.9 398.3,253.8 "/>
<polygon class="st4" points="419.6,275.1 405.2,289.5 398,282.4 412.5,268 "/>
<polygon class="st5" points="426.9,253.5 434,260.7 419.6,275.1 412.4,268 "/>
<polygon class="st2" points="442.7,298.2 428.2,312.6 419.4,303.7 433.8,289.3 "/>
<polygon class="st3" points="448.2,274.8 457.1,283.7 442.7,298.2 433.8,289.3 "/>
<polygon class="st4" points="433.8,289.3 419.4,303.7 412.2,296.6 426.6,282.2 "/>
<polygon class="st5" points="441.1,267.7 448.2,274.9 433.8,289.3 426.6,282.2 "/>
<path class="st2" d="M418,335.9l49.7,0.1c3.4,0,6.6-1.3,9-3.8l0,0l0,0L459.4,315l0,0l0,0c-2.4,2.4-5.6,3.8-9,3.8l-28.3-0.1l-8,8
	c-2.5,2.5-3.4,4.8-2.6,6.5S414.6,335.9,418,335.9z"/>
<path class="st3" d="M480.5,323.3v-49.7c0-3.5-1-5.8-2.8-6.5c-1.8-0.8-4.1,0.2-6.5,2.6l-8,8v28.3c0,3.4-1.3,6.6-3.7,9l17.3,17.3
	C479.2,329.8,480.5,326.7,480.5,323.3z"/>
<path class="st2" d="M422.1,318.7l28.3,0.1c3.4,0,6.6-1.3,9-3.8l0,0l0,0l-16.8-16.8L422.1,318.7z"/>
<path class="st3" d="M463.2,277.6l-20.5,20.5l16.8,16.8c2.4-2.4,3.8-5.6,3.7-9L463.2,277.6z"/>
<polygon class="st2" points="277.3,282.2 262.9,267.7 270,260.7 284.4,275.1 "/>
<polygon class="st3" points="298.9,289.5 291.8,296.6 277.3,282.2 284.4,275.1 "/>
<polygon class="st2" points="291.5,267.9 277.1,253.5 284.2,246.5 298.6,260.9 "/>
<polygon class="st3" points="313,275.3 306,282.4 291.5,268 298.6,260.9 "/>
<path class="st2" d="M305.7,253.8l21-21L316,222.1c-2.1-2.1-5.4-2.1-7.4,0l-17.3,17.3L305.7,253.8z"/>
<path class="st3" d="M320.1,268.2l17.3-17.3c2.1-2.1,2.1-5.4,0-7.4l-10.7-10.7l-21,21L320.1,268.2z"/>
<polygon class="st4" points="298.6,260.9 284.2,246.5 291.3,239.3 305.7,253.8 "/>
<polygon class="st5" points="320.1,268.2 313,275.3 298.6,260.9 305.7,253.8 "/>
<polygon class="st4" points="284.4,275.1 270,260.7 277.1,253.5 291.5,268 "/>
<polygon class="st5" points="305.9,282.4 298.8,289.5 284.4,275.1 291.5,268 "/>
<polygon class="st2" points="261.3,298.2 246.9,283.7 255.8,274.9 270.2,289.3 "/>
<polygon class="st3" points="284.6,303.7 275.8,312.6 261.3,298.2 270.2,289.3 "/>
<polygon class="st4" points="270.2,289.3 255.8,274.9 262.9,267.8 277.3,282.2 "/>
<polygon class="st5" points="291.8,296.6 284.6,303.7 270.2,289.3 277.3,282.2 "/>
<path class="st2" d="M223.6,273.5l-0.1,49.7c0,3.4,1.3,6.6,3.8,9l0,0l0,0l17.3-17.3l0,0l0,0c-2.4-2.4-3.8-5.6-3.8-9l0.1-28.3l-8-8
	c-2.5-2.5-4.8-3.4-6.5-2.6S223.6,270.1,223.6,273.5z"/>
<path class="st3" d="M236.2,336H286c3.5,0,5.8-1,6.5-2.8c0.8-1.8-0.2-4.1-2.6-6.5l-8-8h-28.3c-3.4,0-6.6-1.3-9-3.7l-17.3,17.3
	C229.7,334.7,232.8,336,236.2,336z"/>
<path class="st2" d="M240.8,277.6l-0.1,28.3c0,3.4,1.3,6.6,3.8,9l0,0l0,0l16.8-16.8L240.8,277.6z"/>
<path class="st3" d="M281.9,318.7l-20.5-20.5l-16.8,16.8c2.4,2.4,5.6,3.8,9,3.7L281.9,318.7z"/>
<g>
	<rect x="-528" y="-10.8" class="st6" width="128" height="128"/>
	<rect x="-400" y="-10.8" class="st1" width="128" height="128"/>
	<rect x="-272" y="-10.8" class="st0" width="128" height="128"/>
	<rect x="-144" y="-10.8" class="st7" width="128" height="128"/>
	<rect x="-528" y="117.2" class="st8" width="128" height="128"/>
	<rect x="-400" y="117.2" class="st3" width="128" height="128"/>
	<rect x="-272" y="117.2" class="st2" width="128" height="128"/>
	<rect x="-144" y="117.2" class="st9" width="128" height="128"/>
	<rect x="-528" y="245.2" class="st5" width="128" height="128"/>
	<rect x="-400" y="245.2" class="st4" width="128" height="128"/>
	<rect x="-272" y="245.2" class="st10" width="128" height="128"/>
	<rect x="-144" y="245.2" class="st11" width="128" height="128"/>
	<rect x="-528" y="373.2" class="st12" width="128" height="128"/>
	<rect x="-400" y="373.2" class="st9" width="128" height="128"/>
	<rect x="-272" y="373.2" class="st9" width="128" height="128"/>
	<rect x="-144" y="373.2" class="st9" width="128" height="128"/>
</g>
</svg>
