<?xml version="1.0" encoding="utf-8"?>
<!-- Generator: Adobe Illustrator 19.0.0, SVG Export Plug-In . SVG Version: 6.00 Build 0)  -->
<svg version="1.1" id="Layer_1" xmlns="http://www.w3.org/2000/svg" xmlns:xlink="http://www.w3.org/1999/xlink" x="0px" y="0px"
	 viewBox="96 11 512 512" style="enable-background:new 96 11 512 512;" xml:space="preserve">
<style type="text/css">
	.st0{fill:#9BAAAB;}
	.st1{fill:#687F82;}
	.st2{fill:#FD6A33;}
	.st3{fill:#F0353D;}
	.st4{fill:#FFBA7E;}
	.st5{fill:#FF8C29;}
	.st6{fill:#CDD4D5;}
	.st7{fill:#4ACFD9;}
	.st8{fill:#0295AA;}
	.st9{fill:#365558;}
	.st10{fill:#FFFFFF;}
</style>
<g>
	<path class="st0" d="M219,99.5h-60c-4.4,0-8,3.6-8,8v42.9c0,4.4,3.6,8,8,8h60c4.4,0,8-3.6,8-8v-42.9
		C227.1,103.1,223.5,99.5,219,99.5z"/>
	<path class="st0" d="M437.1,149.1l-12.9-81.5c-0.6-3.9-4-6.8-7.9-6.8H287.7c-4,0-7.3,2.9-7.9,6.8l-12.9,81.5
		c-0.4,2.3,0.3,4.7,1.8,6.5s3.8,2.8,6.1,2.8h154.4c2.4,0,4.6-1,6.1-2.8C436.8,153.8,437.5,151.5,437.1,149.1z"/>
</g>
<path class="st1" d="M287.7,60.9c-4,0-7.3,2.9-7.9,6.8l-12.9,81.5c-0.4,2.3,0.3,4.7,1.8,6.5s3.8,2.8,6.1,2.8H352V60.9H287.7z"/>
<path class="st2" d="M596.5,142.4h-489c-4.4,0-8,3.6-8,8V515c0,4.4,3.6,8,8,8h488.9c4.4,0,8-3.6,8-8V150.4
	C604.5,146,600.9,142.4,596.5,142.4z"/>
<path class="st3" d="M107.5,142.4c-4.4,0-8,3.6-8,8V515c0,4.4,3.6,8,8,8H352V142.4H107.5z"/>
<path class="st4" d="M596.5,142.4h-489c-4.4,0-8,3.6-8,8v98.1h505v-98.1C604.5,146,600.9,142.4,596.5,142.4z"/>
<path class="st5" d="M107.5,142.4c-4.4,0-8,3.6-8,8v98.1H352V142.4H107.5z"/>
<path class="st6" d="M253.4,391.1c-21,0-38.1,17.1-38.1,38.1s17.1,38.1,38.1,38.1s38.1-17.1,38.1-38.1S274.3,391.1,253.4,391.1z"/>
<path class="st7" d="M352,202.4c-73,0-132.4,59.4-132.4,132.4S279,467.2,352,467.2s132.4-59.4,132.4-132.4S425,202.4,352,202.4z"/>
<path class="st8" d="M219.6,334.8c0,73,59.4,132.4,132.4,132.4V202.4C279,202.4,219.6,261.8,219.6,334.8z"/>
<path class="st0" d="M352,245.3c-49.4,0-89.5,40.2-89.5,89.5s40.2,89.5,89.5,89.5s89.5-40.2,89.5-89.5S401.4,245.3,352,245.3z"/>
<path class="st9" d="M262.5,334.8c0,49.4,40.2,89.5,89.5,89.5v-179C302.6,245.3,262.5,285.5,262.5,334.8z"/>
<g>
	<path class="st10" d="M352,392.2c-4.4,0-8-3.6-8-8s3.6-8,8-8c11.2,0,21.8-4.5,29.6-12.6c3.1-3.2,8.2-3.3,11.4-0.2s3.3,8.2,0.2,11.4
		C382.3,386,367.6,392.2,352,392.2z"/>
	<path class="st10" d="M399.6,355.7c-0.7,0-1.4-0.1-2.1-0.3c-4.3-1.2-6.8-5.6-5.7-9.9c0.9-3.5,1.4-7.1,1.4-10.8
		c0-22.8-18.5-41.3-41.3-41.3c-4.4,0-8-3.6-8-8s3.6-8,8-8c31.6,0,57.4,25.7,57.4,57.4c0,5.1-0.7,10.1-2,15
		C406.4,353.4,403.2,355.7,399.6,355.7z"/>
	<polygon class="st10" points="299.9,129 306,90.4 398,90.4 404.1,129 	"/>
	<path class="st10" d="M549.3,480.1c-4.4,0-8-3.6-8-8v-193c0-4.4,3.6-8,8-8s8,3.6,8,8v193C557.3,476.5,553.7,480.1,549.3,480.1z"/>
	<path class="st10" d="M549.3,218.5c-4.4,0-8-3.6-8-8v-34.3c0-4.4,3.6-8,8-8s8,3.6,8,8v34.3C557.3,214.9,553.7,218.5,549.3,218.5z"
		/>
</g>
<g>
	<path class="st3" d="M493.3,75.6H460c-4.4,0-8-3.6-8-8s3.6-8,8-8h33.4c4.4,0,8,3.6,8,8S497.8,75.6,493.3,75.6z"/>
	<path class="st3" d="M471.9,124.1c-2.1,0-4.1-0.8-5.7-2.4L445,100.5c-3.1-3.1-3.1-8.2,0-11.4c3.1-3.1,8.2-3.1,11.4,0l21.2,21.2
		c3.1,3.1,3.1,8.2,0,11.4C476,123.3,473.9,124.1,471.9,124.1z"/>
	<path class="st3" d="M450.9,48.3c-2.1,0-4.1-0.8-5.7-2.4c-3.1-3.1-3.1-8.2,0-11.4l21.2-21.2c3.1-3.1,8.2-3.1,11.4,0
		c3.1,3.1,3.1,8.2,0,11.4L456.5,46C455,47.5,452.9,48.3,450.9,48.3z"/>
</g>
</svg>
