<?xml version="1.0" encoding="utf-8"?>
<!-- Generator: Adobe Illustrator 19.0.0, SVG Export Plug-In . SVG Version: 6.00 Build 0)  -->
<svg version="1.1" id="Layer_1" xmlns="http://www.w3.org/2000/svg" xmlns:xlink="http://www.w3.org/1999/xlink" x="0px" y="0px"
	 viewBox="96 11 512 512" style="enable-background:new 96 11 512 512;" xml:space="preserve">
<style type="text/css">
	.st0{display:none;fill:#020202;}
	.st1{fill:#F0353D;}
	.st2{fill:#FD6A33;}
	.st3{fill:#FF8C29;}
	.st4{fill:#FFD1A9;}
	.st5{fill:#365558;}
	.st6{fill:#0295AA;}
	.st7{fill:#4ACFD9;}
	.st8{fill:#9BAAAB;}
	.st9{fill:#CDD4D5;}
	.st10{fill:#E6EAEA;}
	.st11{fill:#FFFFFF;}
	.st12{fill:#BCD643;}
</style>
<rect x="96" y="11" class="st0" width="512" height="512"/>
<rect x="-546" y="-121.5" class="st1" width="128" height="128"/>
<rect x="-418" y="-121.5" class="st2" width="128" height="128"/>
<rect x="-290" y="-121.5" class="st3" width="128" height="128"/>
<rect x="-162" y="-121.5" class="st4" width="128" height="128"/>
<rect x="-546" y="6.5" class="st5" width="128" height="128"/>
<rect x="-418" y="6.5" class="st6" width="128" height="128"/>
<rect x="-290" y="6.5" class="st7" width="128" height="128"/>
<rect x="-546" y="134.5" class="st8" width="128" height="128"/>
<rect x="-418" y="134.5" class="st9" width="128" height="128"/>
<rect x="-290" y="134.5" class="st10" width="128" height="128"/>
<rect x="-162" y="134.5" class="st11" width="128" height="128"/>
<rect x="-546" y="262.5" class="st12" width="128" height="128"/>
<path class="st6" d="M104.8,295.6h30.7V267h-30.7c-4.9,0-8.8,3.9-8.8,8.8v11C96,291.7,99.9,295.6,104.8,295.6z"/>
<path class="st6" d="M599.2,267h-30.7v28.6h30.7c4.9,0,8.8-3.9,8.8-8.8v-11C608,270.9,604.1,267,599.2,267z"/>
<path class="st3" d="M599.2,11H352v64.8h247.2c4.9,0,8.8-3.9,8.8-8.8V19.8C608,14.9,604.1,11,599.2,11z"/>
<path class="st2" d="M104.8,11c-4.9,0-8.8,3.9-8.8,8.8V67c0,4.9,3.9,8.8,8.8,8.8H352V11H104.8z"/>
<path class="st4" d="M599.2,85h-92.4c-4.9,0-8.8,3.9-8.8,8.8v55.5h41.7c15.9,0,28.8,12.9,28.8,28.8V255h30.7c4.9,0,8.8-3.9,8.8-8.8
	V93.8C608,88.9,604.1,85,599.2,85z"/>
<path class="st8" d="M599.2,307h-30.7v77.5c0,15.9-12.9,28.8-28.8,28.8H352V523h247.2c4.9,0,8.8-3.9,8.8-8.8V315.8
	C608,310.9,604.1,307,599.2,307z"/>
<path class="st5" d="M164.3,413.3c-15.9,0-28.8-12.9-28.8-28.8V307h-30.7c-4.9,0-8.8,3.9-8.8,8.8v198.4c0,4.9,3.9,8.8,8.8,8.8H352
	V413.3H164.3z"/>
<path class="st7" d="M489,93.8c0-4.9-3.9-8.8-8.8-8.8H352v64.3h137V93.8z"/>
<path class="st6" d="M104.8,85c-4.9,0-8.8,3.9-8.8,8.8v152.4c0,4.9,3.9,8.8,8.8,8.8h30.7v-76.9c0-15.9,12.9-28.8,28.8-28.8H352V85
	H104.8z"/>
<path class="st2" d="M539.7,169.3H352v224h187.7c4.9,0,8.8-3.9,8.8-8.8V178.1C548.5,173.2,544.6,169.3,539.7,169.3z"/>
<path class="st1" d="M164.3,169.3c-4.9,0-8.8,3.9-8.8,8.8v206.4c0,4.9,3.9,8.8,8.8,8.8H352v-224H164.3z"/>
</svg>
