<?xml version="1.0" encoding="utf-8"?>
<!-- Generator: Adobe Illustrator 19.0.0, SVG Export Plug-In . SVG Version: 6.00 Build 0)  -->
<svg version="1.1" id="Layer_1" xmlns="http://www.w3.org/2000/svg" xmlns:xlink="http://www.w3.org/1999/xlink" x="0px" y="0px"
	 viewBox="96 11 512 512" style="enable-background:new 96 11 512 512;" xml:space="preserve">
<style type="text/css">
	.st0{fill:#0295AA;}
	.st1{fill:#365558;}
	.st2{fill:#4ACFD9;}
	.st3{fill:#E6EAEA;}
	.st4{fill:#CDD4D5;}
	.st5{fill:#F0353D;}
	.st6{fill:#FD6A33;}
	.st7{fill:#FF8C29;}
	.st8{fill:#FFD1A9;}
	.st9{fill:#9BAAAB;}
	.st10{fill:#FFFFFF;}
	.st11{fill:#BCD643;}
	.st12{fill:#E34C40;}
	.st13{fill:#687F82;}
</style>
<path class="st0" d="M467.7,290.9V76.1h-19.6c-0.1,0-12.5,3-26.1,13.3c0.7,2,1.1,4,1.1,6.1c0,8.1-3.3,15.7-9.6,22
	c-6.7,6.7-13.6,8.5-18.6,8.7c-2.6,6.4-4.3,12.8-5.2,18.4c-3.5,21.7-9,36.5-14.3,49.4l25.3,96.9H467.7z"/>
<path class="st1" d="M451,76.2h16.6V56H451c-3.2,0-5.7,3.1-5.7,6.8v6.6C445.4,73.1,447.9,76.2,451,76.2z"/>
<path class="st0" d="M489.8,69.4v-6.6c0-3.7-2.5-6.8-5.7-6.8h-16.6v20.1h16.6C487.2,76.2,489.8,73.1,489.8,69.4z"/>
<path class="st0" d="M446.7,47c2.6,4.7,4.2,9,10.6,9h10.2c0,0,0-37.3,0-41.9c-7.6,0.1-14.7-1.1-21.6-2.5
	c-8.1-1.7-15.1,0.6-14.2,10.1C432.8,32.3,442.9,40.2,446.7,47z"/>
<path class="st2" d="M576,246.8c-3.2-38.5-22.1-51.7-30.2-102.3c-2.6-15.9-11.8-37.6-27.9-51.6c-15.1-13.2-30.4-16.9-30.5-16.9
	h-19.6v214.8h77.7C561.1,290.9,578.4,275,576,246.8z"/>
<path class="st2" d="M488.6,47c3.8-6.8,13.9-14.6,15-25.4c0.9-9.5-6-11.8-14.2-10.1c-6.9,1.4-14,2.5-21.6,2.5c0,4.6,0,41.9,0,41.9
	H478C484.4,56,486,51.7,488.6,47z"/>
<path class="st3" d="M552,273.4c5.4-7.2,8-17.2,7.3-27.3c-0.2-2.5-1.8-4.3-3.7-4c-0.7,0-1.5,0.5-2,1.2c-0.7,0.9-1,2.1-1,3.6
	c0.5,7.5-1.5,14.9-5.4,20.2c-1.3,1.7-1.3,4.6,0,6.3C548.7,275.1,550.7,275.1,552,273.4z"/>
<path class="st3" d="M526.4,172c0-32.4-26.4-58.9-58.8-58.9v117.6C500.1,230.8,526.4,204.4,526.4,172z"/>
<path class="st4" d="M467.6,230.6V113c-32.4,0.1-58.8,26.3-58.8,58.8C408.8,204.3,435.2,230.6,467.6,230.6z"/>
<path class="st5" d="M344.6,115.3c4.3,0,8.3-1.9,11.9-5.5c4.3-4.3,6.4-9,6.4-14.3c-0.1-3.8-3.5-7.5-10.4-11
	c-3.5-1.9-5.2-4.3-5.2-7.3c0-7.8,6.4-15.8,19.2-24.1c1-0.7,1.5-1.5,1.5-2.4c0-1-0.5-2.1-1.6-3.4c-1.4-1.6-2.6-2.4-3.6-2.4
	c-0.6,0-1.2,0.3-1.8,0.9c-22.1,15.7-33.2,31.4-33.2,47c0,5.6,1.7,10.6,5.1,15.2C336.4,112.9,340.3,115.3,344.6,115.3z"/>
<path class="st5" d="M393.8,115.2c4.3,0,8.3-1.9,11.9-5.5c4.3-4.3,6.4-9,6.4-14.3c0-3.8-3.4-7.4-10.3-11c-3.5-1.9-5.2-4.3-5.2-7.3
	c0-7.7,6.4-15.7,19.2-24c1-0.7,1.5-1.5,1.5-2.4c0-1-0.5-2.1-1.6-3.4c-1.4-1.6-2.6-2.4-3.6-2.4c-0.6,0-1.2,0.3-1.8,0.9
	c-22.1,15.7-33.2,31.3-33.2,46.8c0,5.6,1.7,10.6,5.1,15.2C385.7,112.8,389.6,115.2,393.8,115.2z"/>
<path class="st6" d="M572.8,81.4c0.6,0,1.2-0.3,1.8-0.9c22.1-15.6,33.2-31.3,33.2-46.8c0-5.6-1.7-10.6-5.1-15.2
	c-3.6-5-7.4-7.4-11.6-7.4c-4.3,0-8.3,1.9-11.9,5.5c-4.3,4.3-6.4,9-6.4,14.3c0,3.8,3.4,7.4,10.3,11c3.4,1.9,5.2,4.3,5.2,7.3
	c0,7.8-6.4,15.8-19.2,24.1c-1,0.7-1.5,1.5-1.5,2.4c0,1,0.5,2.1,1.6,3.4C570.6,80.6,571.8,81.4,572.8,81.4z"/>
<path class="st6" d="M523.3,81.4c0.6,0,1.2-0.3,1.8-0.9c22.1-15.6,33.2-31.3,33.2-46.8c0-5.6-1.6-10.6-4.9-15.2
	c-3.7-5-7.6-7.4-11.8-7.4c-4.3,0-8.3,1.9-11.9,5.5c-4.3,4.3-6.4,9-6.4,14.3c0,3.8,3.4,7.4,10.3,11c3.4,1.9,5.2,4.3,5.2,7.3
	c0,7.8-6.4,15.8-19.2,24.1c-1,0.7-1.5,1.5-1.5,2.4c0,1,0.5,2.1,1.6,3.4C521.2,80.6,522.4,81.4,523.3,81.4z"/>
<rect x="-789" y="14.7" class="st5" width="128" height="128"/>
<rect x="-661" y="14.7" class="st6" width="128" height="128"/>
<rect x="-533" y="14.7" class="st7" width="128" height="128"/>
<rect x="-405" y="14.7" class="st8" width="128" height="128"/>
<rect x="-789" y="142.7" class="st1" width="128" height="128"/>
<rect x="-661" y="142.7" class="st0" width="128" height="128"/>
<rect x="-533" y="142.7" class="st2" width="128" height="128"/>
<rect x="-789" y="270.7" class="st9" width="128" height="128"/>
<rect x="-661" y="270.7" class="st4" width="128" height="128"/>
<rect x="-533" y="270.7" class="st3" width="128" height="128"/>
<rect x="-405" y="270.7" class="st10" width="128" height="128"/>
<rect x="-789" y="398.7" class="st11" width="128" height="128"/>
<g>
	<path class="st6" d="M467.7,216.7V129c-24.2,0-43.8,19.6-43.8,43.8C423.8,197.1,443.4,216.7,467.7,216.7z"/>
	<path class="st7" d="M511.5,172.8c0-24.2-19.6-43.8-43.8-43.8v87.7C491.9,216.7,511.5,197.1,511.5,172.8z"/>
	<path class="st9" d="M467.7,200.3v-54.9c-15.1,0-27.4,12.3-27.4,27.4S452.5,200.3,467.7,200.3z"/>
	<path class="st4" d="M495.1,172.8c0-15.1-12.3-27.4-27.4-27.4v54.9C482.8,200.3,495.1,188,495.1,172.8z"/>
	<path class="st3" d="M467.7,194.8v-44c-12.1,0.1-22,9.9-22,22C445.7,185,455.5,194.8,467.7,194.8z"/>
	<path class="st10" d="M489.6,172.8c0-12.1-9.8-22-22-22v44C479.8,194.8,489.6,185,489.6,172.8z"/>
	<path class="st8" d="M470.7,139.5v-10.2c0-0.1,0-0.2,0-0.2c-1-0.1-2.1-0.1-3.1-0.1v13.6C469.3,142.6,470.7,141.2,470.7,139.5z"/>
	<path class="st7" d="M467.7,142.6V129c-0.9,0.1-1.9,0.1-2.8,0.1c0,0.1,0,0.2,0,0.3v10.2C464.9,141.1,466.1,142.5,467.7,142.6z"/>
	<path class="st6" d="M470.8,206.5c-0.1-1.7-1.4-3.1-3.1-3.1v13.3c1,0,2.1-0.1,3.1-0.1V206.5z"/>
	<path class="st8" d="M467.7,203.4c-1.6,0.1-2.8,1.5-2.8,3.1v10.2c0.9,0.1,1.9,0.1,2.8,0.1V203.4z"/>
	<path class="st8" d="M434.5,169.7h-10.2c-0.2,0-0.3,0-0.4,0.1c-0.1,1-0.1,2-0.1,3.1h13.8C437.6,171.1,436.2,169.7,434.5,169.7z"/>
	<path class="st7" d="M424.4,176h10.1c1.7,0,3.1-1.4,3.1-3.1h-13.8c0,1,0.1,2.1,0.1,3.1C424.1,175.9,424.3,176,424.4,176z"/>
	<path class="st6" d="M511.4,169.7h-9.9c-1.7,0-3.1,1.4-3.1,3.1h13.2C511.5,171.8,511.4,170.8,511.4,169.7z"/>
	<path class="st8" d="M501.4,176h9.9c0.1-1,0.1-2.1,0.1-3.1h-13.2C498.3,174.5,499.7,176,501.4,176z"/>
	<path class="st8" d="M446.5,147l-7.2-7.2c-0.1-0.1-0.2-0.1-0.3-0.2c-0.8,0.7-1.5,1.4-2.2,2.1l9.7,9.7
		C447.7,150.2,447.7,148.2,446.5,147z"/>
	<path class="st7" d="M442.1,151.4c1.2,1.2,3.2,1.2,4.4,0l-9.7-9.7c-0.7,0.7-1.4,1.5-2.1,2.2c0.1,0.1,0.2,0.2,0.2,0.3L442.1,151.4z"
		/>
	<path class="st6" d="M500.9,201.4l-7.1-7.1c-1.2-1.2-3.2-1.2-4.4,0l9.4,9.4C499.5,203,500.2,202.2,500.9,201.4z"/>
	<path class="st8" d="M496.5,205.8c0.8-0.7,1.5-1.4,2.2-2.1l-9.4-9.4c-1.1,1.3-1.1,3.2,0.1,4.4L496.5,205.8z"/>
	<path class="st8" d="M446.4,194.2c-1.2-1.2-3.2-1.2-4.4,0l-7.2,7.2c-0.1,0.1-0.2,0.2-0.2,0.3c0.7,0.8,1.4,1.5,2.1,2.2L446.4,194.2z
		"/>
	<path class="st7" d="M439.2,205.7l7.2-7.2c1.2-1.2,1.2-3.2,0-4.4l-9.7,9.7c0.7,0.7,1.5,1.4,2.2,2.1
		C439.1,205.9,439.1,205.9,439.2,205.7z"/>
	<path class="st6" d="M498.7,141.8c-0.7-0.7-1.5-1.4-2.3-2.1l-7.1,7.2c-1.2,1.2-1.2,3.2,0,4.4L498.7,141.8z"/>
	<path class="st8" d="M493.7,151.3l7.1-7.1c-0.7-0.8-1.4-1.5-2.1-2.3l-9.4,9.4C490.5,152.5,492.5,152.5,493.7,151.3z"/>
	<path class="st8" d="M458,140.8l-3.9-9.4c-0.1-0.1-0.1-0.2-0.1-0.2c-1,0.3-2,0.7-2.9,1l5.2,12.6C457.9,144.1,458.7,142.3,458,140.8
		z"/>
	<path class="st7" d="M452.3,143.1c0.7,1.6,2.5,2.4,4,1.7l-5.2-12.6c-0.9,0.4-1.9,0.8-2.8,1.3c0,0.1,0.1,0.2,0.1,0.3L452.3,143.1z"
		/>
	<path class="st6" d="M487.5,211.9l-3.9-9.3c-0.7-1.6-2.5-2.4-4-1.7l5.1,12.4C485.6,212.8,486.6,212.4,487.5,211.9z"/>
	<path class="st8" d="M481.8,214.3c1-0.3,2-0.7,2.9-1.1l-5.1-12.4c-1.6,0.7-2.3,2.5-1.6,4L481.8,214.3z"/>
	<path class="st8" d="M439.8,184.3c-0.6-1.6-2.5-2.4-4-1.7l-9.4,3.9c-0.1,0.1-0.3,0.1-0.4,0.2c0.3,1,0.7,1.9,1.1,2.9L439.8,184.3z"
		/>
	<path class="st7" d="M428.8,192.2l9.4-3.9c1.6-0.7,2.4-2.5,1.7-4l-12.7,5.2c0.4,0.9,0.8,1.9,1.3,2.8
		C428.5,192.3,428.7,192.3,428.8,192.2z"/>
	<path class="st6" d="M508.1,156c-0.4-1-0.8-1.9-1.3-2.8l-9.2,3.9c-1.6,0.7-2.4,2.5-1.7,4L508.1,156z"/>
	<path class="st8" d="M500,162.8l9.2-3.8c-0.3-1-0.7-2-1.1-2.9l-12.2,5C496.6,162.7,498.4,163.4,500,162.8z"/>
	<path class="st8" d="M438.2,157l-9.4-3.9c-0.1-0.1-0.2-0.1-0.3-0.1c-0.4,0.9-0.9,1.9-1.3,2.8l12.6,5.2
		C440.5,159.5,439.8,157.7,438.2,157z"/>
	<path class="st7" d="M435.8,162.8c1.6,0.7,3.4-0.1,4-1.7l-12.6-5.2c-0.4,0.9-0.8,1.9-1.1,2.9c0.1,0.1,0.2,0.1,0.3,0.2L435.8,162.8z
		"/>
	<path class="st6" d="M509.4,186.5l-9.3-3.9c-1.6-0.7-3.4,0.1-4,1.7l12.3,5.1C508.6,188.5,509,187.5,509.4,186.5z"/>
	<path class="st8" d="M497.6,188.4l9.3,3.9c0.4-0.9,0.9-1.9,1.3-2.8l-12.3-5.1C495.3,185.9,496.1,187.7,497.6,188.4z"/>
	<path class="st8" d="M456.2,200.7c-1.6-0.7-3.4,0.1-4.1,1.6l-3.9,9.4c-0.1,0.1-0.1,0.2-0.1,0.3c0.9,0.4,1.9,0.9,2.8,1.3
		L456.2,200.7z"/>
	<path class="st7" d="M453.9,214.2l3.9-9.4c0.7-1.6-0.1-3.4-1.7-4l-5.2,12.7c0.9,0.4,1.9,0.8,2.9,1.1
		C453.8,214.4,453.9,214.3,453.9,214.2z"/>
	<path class="st6" d="M479.4,144.6l5.1-12.2c-0.9-0.4-1.9-0.8-2.9-1.1l-3.9,9.3C477.1,142.1,477.8,143.9,479.4,144.6z"/>
	<path class="st8" d="M483.4,142.9l3.8-9.3c-0.9-0.4-1.9-0.9-2.8-1.3l-5,12.3C481,145.2,482.8,144.5,483.4,142.9z"/>
	<g>
		<path class="st12" d="M464.6,177c0.5-0.2,4,0.4,4.5,0.7c1.5,1,3.6,1.6,4.5,0.5c0.9-1-0.1-2.9-1.4-4.3c-0.4-0.4-1.7-3.7-1.6-4.2
			c0.2-1.8-0.4-4-1.7-4.2c-1.4-0.2-2.6,1.7-3,3.3c-0.1,0.5-2.4,3.3-2.9,3.6c-1.6,0.8-3.2,2.4-2.7,3.6
			C460.8,177.4,463.1,177.5,464.6,177z"/>
		<path class="st12" d="M470.7,158.2c2.2,0.1,3.1,4.5,2.7,8c-0.1,1.1,2.5,7.4,3,8.4c0.3,0.6,0.8,1.1,1.4,1.4c-1.7-4.5-1.8-8.2-1.5-9
			c1.4-3.9,0.8-9.2-1.3-10.4c-1.4-0.8-4.6-1.1-6.6,2.1C469.1,158.3,469.9,158.1,470.7,158.2z"/>
		<path class="st12" d="M454.8,179c-0.7-0.3-1.3-0.9-1.6-1.7c-1-2,2.4-5,5.6-6.4c1-0.4,5.1-5.8,5.8-6.7c0.4-0.6,0.5-1.3,0.5-2
			c-3.1,3.7-6.2,5.6-7.1,5.8c-4.1,0.7-8.4,3.9-8.4,6.4C449.6,176,450.9,178.9,454.8,179z"/>
		<path class="st12" d="M477.8,187.9c1.4-0.8,3.3-3.4,1.5-6.8c0.1,0.8-0.2,1.6-0.7,2.2c-1.2,1.9-5.5,0.4-8.4-1.6
			c-0.9-0.7-7.7-1.6-8.7-1.6c-0.7-0.1-1.4,0.2-2,0.5c4.8,0.8,8,2.5,8.6,3.2C470.7,187,475.6,189.1,477.8,187.9z"/>
	</g>
</g>
<path class="st0" d="M195.6,284.1c-17.3,15-29.3,35.5-37.1,58.4c-10.5,30.8-34.8,47.4-34.8,68.9c0,17.2,8,48.4,42.4,48.4h83.2V266
	h-21C228.1,266,211.8,270,195.6,284.1z"/>
<path class="st1" d="M225.4,255.3v5.3c0,3,2.8,5.5,6.1,5.5h17.7v-16.3h-17.7C228.1,249.8,225.4,252.3,225.4,255.3z"/>
<path class="st0" d="M266.9,249.8h-17.7v16.3h17.7c3.3,0,6.1-2.5,6.1-5.5v-5.3C273,252.3,270.3,249.8,266.9,249.8z"/>
<path class="st0" d="M210.8,224.6c1.1,9.1,12,11.8,16.1,17.5c2.8,4,4.4,7.7,11.3,7.7h11c0,0,0-27.7,0-31.6c-8.2,0-15.8-1-23.2-2.2
	C217.2,214.6,209.8,216.6,210.8,224.6z"/>
<path class="st3" d="M148.6,406.7c0.1-1.6-0.3-3-1.1-4c-0.6-0.8-1.4-1.3-2.2-1.3c-2-0.2-3.9,1.7-4,4.5c-0.8,11.1,2.2,22.2,8.1,30.1
	c1.4,1.9,3.7,1.9,5.2,0s1.4-5.1,0-7C150.2,423.1,148.1,415,148.6,406.7z"/>
<path class="st2" d="M333.6,398.4L304,285.1c-0.4-0.3-0.7-0.7-1.1-1C286.7,270,270.3,266,270.3,266h-21v193.8h83.2
	c20.9,0,32-11.5,37.6-24.4l-15.4-9.1C344.1,420.1,336.6,410.2,333.6,398.4z"/>
<path class="st2" d="M272.5,216.1c-7.4,1.2-15,2.2-23.2,2.2c0,3.9,0,31.6,0,31.6h11c6.9,0,8.5-3.7,11.3-7.7
	c4-5.7,14.9-8.4,16.1-17.5c0.1-0.7,0.1-1.4,0-2.1l-0.7-2.8C284.9,215.9,279.1,215,272.5,216.1z"/>
<path class="st2" d="M287.7,222.6c-0.1-1.1-0.3-2-0.7-2.8L287.7,222.6z"/>
<path class="st3" d="M343.9,429c-1.4,1.9-1.4,5.1,0,7c1.4,1.9,3.7,1.9,5.2,0c2.2-2.9,3.9-6.2,5.3-9.8c-2.3-1.4-4.5-3-6.5-4.7
	C346.9,424.2,345.5,426.8,343.9,429z"/>
<g>
	<g>
		<path class="st7" d="M297.9,507.3h-45.3v16.4h45.3c0.9,0,1.6-0.7,1.6-1.6v-13.1C299.5,508,298.8,507.3,297.9,507.3z"/>
		<rect x="240.4" y="507.3" class="st6" width="12.2" height="16.4"/>
		<path class="st6" d="M205.7,508.9v13.1c0,0.9,0.7,1.6,1.6,1.6h33.1v-16.4h-33.1C206.4,507.3,205.7,508,205.7,508.9z"/>
	</g>
	<rect x="280.2" y="512.9" class="st13" width="6" height="10.8"/>
	<rect x="291" y="512.9" class="st13" width="4" height="10.8"/>
	<rect x="265.1" y="512.9" class="st13" width="8.1" height="10.8"/>
	<rect x="218.7" y="512.9" class="st1" width="6" height="10.8"/>
	<rect x="209.9" y="512.9" class="st1" width="4" height="10.8"/>
	<rect x="231.8" y="512.9" class="st1" width="8.1" height="10.8"/>
	<rect x="252.6" y="512.9" class="st13" width="4.2" height="10.8"/>
	<rect x="248.7" y="512.9" class="st1" width="3.9" height="10.8"/>
	<g>
		<path class="st7" d="M292.2,486.7h-45.3v16.4h45.3c0.9,0,1.6-0.7,1.6-1.6v-13.1C293.8,487.5,293.2,486.7,292.2,486.7z"/>
		<rect x="240.4" y="486.7" class="st6" width="6.6" height="16.4"/>
		<path class="st6" d="M200.1,488.3v13.1c0,0.9,0.7,1.6,1.6,1.6h38.7v-16.3l-38.7-0.1C200.8,486.7,200.1,487.4,200.1,488.3z"/>
	</g>
	<rect x="274.5" y="492.4" class="st13" width="6" height="10.8"/>
	<rect x="285.4" y="492.4" class="st13" width="4" height="10.8"/>
	<rect x="259.4" y="492.4" class="st13" width="8.1" height="10.8"/>
	<rect x="213" y="492.4" class="st1" width="6" height="10.8"/>
	<rect x="204.2" y="492.4" class="st1" width="4" height="10.8"/>
	<rect x="226.2" y="492.4" class="st1" width="8.1" height="10.8"/>
	<rect x="247" y="492.4" class="st13" width="4.2" height="10.8"/>
	<rect x="243.1" y="492.4" class="st1" width="3.9" height="10.8"/>
	<g>
		<path class="st7" d="M295.9,466.2h-45.3v16.4h45.3c0.9,0,1.6-0.7,1.6-1.6v-13.1C297.6,466.9,296.8,466.2,295.9,466.2z"/>
		<rect x="240.4" y="466.2" class="st6" width="10.3" height="16.4"/>
		<path class="st6" d="M203.7,467.8v13.1c0,0.9,0.7,1.6,1.6,1.6h35v-16.4h-35C204.5,466.2,203.7,466.9,203.7,467.8z"/>
	</g>
	<rect x="278.3" y="471.9" class="st13" width="6" height="10.8"/>
	<rect x="289.1" y="471.9" class="st13" width="4" height="10.8"/>
	<rect x="263.1" y="471.9" class="st13" width="8.1" height="10.8"/>
	<rect x="216.8" y="471.9" class="st1" width="6" height="10.8"/>
	<rect x="207.9" y="471.9" class="st1" width="4" height="10.8"/>
	<rect x="229.8" y="471.9" class="st1" width="8.1" height="10.8"/>
	<rect x="250.7" y="471.9" class="st13" width="4.2" height="10.8"/>
	<rect x="246.8" y="471.9" class="st1" width="3.9" height="10.8"/>
</g>
<g>
	<g>
		<path class="st7" d="M192.8,507.1h-45.3v16.4h45.3c0.9,0,1.6-0.7,1.6-1.6v-13.1C194.4,507.7,193.7,507.1,192.8,507.1z"/>
		<rect x="135.3" y="507.1" class="st6" width="12.2" height="16.4"/>
		<path class="st6" d="M100.6,508.7v13.1c0,0.9,0.7,1.6,1.6,1.6h33.1v-16.4h-33.1C101.3,507.1,100.6,507.8,100.6,508.7z"/>
	</g>
	<rect x="175.1" y="512.7" class="st13" width="6" height="10.8"/>
	<rect x="186" y="512.7" class="st13" width="4" height="10.8"/>
	<rect x="160.1" y="512.7" class="st13" width="8.1" height="10.8"/>
	<rect x="113.6" y="512.7" class="st1" width="6" height="10.8"/>
	<rect x="104.8" y="512.7" class="st1" width="4" height="10.8"/>
	<rect x="126.7" y="512.7" class="st1" width="8.1" height="10.8"/>
	<rect x="147.5" y="512.7" class="st13" width="4.2" height="10.8"/>
	<rect x="143.6" y="512.7" class="st1" width="3.9" height="10.8"/>
	<g>
		<path class="st7" d="M187.1,486.5h-45.3v16.4h45.3c0.9,0,1.6-0.7,1.6-1.6v-13.1C188.7,487.2,188.1,486.5,187.1,486.5z"/>
		<rect x="135.3" y="486.5" class="st6" width="6.6" height="16.4"/>
		<path class="st6" d="M95,488.1v13.1c0,0.9,0.7,1.6,1.6,1.6h38.7v-16.4H96.6C95.7,486.5,95,487.2,95,488.1z"/>
	</g>
	<rect x="169.5" y="492.1" class="st13" width="6" height="10.8"/>
	<rect x="180.3" y="492.1" class="st13" width="4" height="10.8"/>
	<rect x="154.4" y="492.1" class="st13" width="8.1" height="10.8"/>
	<rect x="108" y="492.1" class="st1" width="6" height="10.8"/>
	<rect x="99.2" y="492.1" class="st1" width="4" height="10.8"/>
	<rect x="121.1" y="492.1" class="st1" width="8.1" height="10.8"/>
	<rect x="141.9" y="492.1" class="st13" width="4.2" height="10.8"/>
	<rect x="138" y="492.1" class="st1" width="3.9" height="10.8"/>
	<g>
		<path class="st8" d="M133.4,461.3"/>
		<path class="st7" d="M190.9,465.9h-45.2v16.4h45.3c0.9,0,1.6-0.7,1.6-1.6v-13.1C192.5,466.6,191.8,465.9,190.9,465.9z"/>
		<rect x="135.3" y="465.9" class="st6" width="10.3" height="16.4"/>
		<path class="st6" d="M98.7,467.5v13.2c0,0.9,0.7,1.6,1.6,1.6h35V466l-35-0.1C99.4,465.9,98.7,466.6,98.7,467.5z"/>
	</g>
	<rect x="173.2" y="471.5" class="st13" width="6" height="10.8"/>
	<rect x="184" y="471.5" class="st13" width="4" height="10.8"/>
	<rect x="158.1" y="471.5" class="st13" width="8.1" height="10.8"/>
	<rect x="111.7" y="471.5" class="st1" width="6" height="10.8"/>
	<rect x="102.8" y="471.5" class="st1" width="4" height="10.8"/>
	<rect x="124.8" y="471.5" class="st1" width="8.1" height="10.8"/>
	<rect x="145.6" y="471.5" class="st13" width="4.2" height="10.8"/>
	<rect x="141.7" y="471.5" class="st1" width="3.9" height="10.8"/>
</g>
<g>
	<g>
		<path class="st7" d="M401.8,506.8h-45.3v16.4h45.3c0.9,0,1.6-0.7,1.6-1.6v-13.1C403.4,507.4,402.7,506.8,401.8,506.8z"/>
		<rect x="344.3" y="506.8" class="st6" width="12.2" height="16.4"/>
		<path class="st6" d="M309.7,508.4v13.1c0,0.9,0.7,1.6,1.6,1.6h33.1v-16.4h-33.1C310.4,506.8,309.7,507.5,309.7,508.4z"/>
	</g>
	<rect x="384.2" y="512.4" class="st13" width="6" height="10.8"/>
	<rect x="395" y="512.4" class="st13" width="4" height="10.8"/>
	<rect x="369.1" y="512.4" class="st13" width="8.1" height="10.8"/>
	<rect x="322.6" y="512.4" class="st1" width="6" height="10.8"/>
	<rect x="313.8" y="512.4" class="st1" width="4" height="10.8"/>
	<rect x="335.7" y="512.4" class="st1" width="8.1" height="10.8"/>
	<rect x="356.5" y="512.4" class="st13" width="4.2" height="10.8"/>
	<rect x="352.6" y="512.4" class="st1" width="3.9" height="10.8"/>
	<g>
		<path class="st7" d="M396.2,486.2h-45.3v16.4h45.3c0.9,0,1.6-0.7,1.6-1.6v-13.1C397.8,486.9,397.1,486.2,396.2,486.2z"/>
		<rect x="344.3" y="486.2" class="st6" width="6.6" height="16.4"/>
		<path class="st6" d="M304.1,487.8v13.1c0,0.9,0.7,1.6,1.6,1.6h38.7v-16.4h-38.7C304.8,486.2,304.1,486.9,304.1,487.8z"/>
	</g>
	<rect x="378.5" y="491.8" class="st13" width="6" height="10.8"/>
	<rect x="389.3" y="491.8" class="st13" width="4" height="10.8"/>
	<rect x="363.4" y="491.8" class="st13" width="8.1" height="10.8"/>
	<rect x="317" y="491.8" class="st1" width="6" height="10.8"/>
	<rect x="308.2" y="491.8" class="st1" width="4" height="10.8"/>
	<rect x="330.1" y="491.8" class="st1" width="8.1" height="10.8"/>
	<rect x="350.9" y="491.8" class="st13" width="4.2" height="10.8"/>
	<rect x="347" y="491.8" class="st1" width="3.9" height="10.8"/>
	<g>
		<path class="st8" d="M342.4,461"/>
		<path class="st7" d="M399.9,465.6h-45.3V482h45.3c0.9,0,1.6-0.7,1.6-1.6v-13.1C401.5,466.3,400.8,465.6,399.9,465.6z"/>
		<rect x="344.3" y="465.6" class="st6" width="10.3" height="16.4"/>
		<path class="st6" d="M307.7,467.2v13.1c0,0.9,0.7,1.6,1.6,1.6h35v-16.3l-35-0.1C308.5,465.6,307.7,466.3,307.7,467.2z"/>
	</g>
	<rect x="382.3" y="471.2" class="st13" width="6" height="10.8"/>
	<rect x="393" y="471.2" class="st13" width="4" height="10.8"/>
	<rect x="367.1" y="471.2" class="st13" width="8.1" height="10.8"/>
	<rect x="320.7" y="471.2" class="st1" width="6" height="10.8"/>
	<rect x="311.8" y="471.2" class="st1" width="4" height="10.8"/>
	<rect x="333.8" y="471.2" class="st1" width="8.1" height="10.8"/>
	<rect x="354.6" y="471.2" class="st13" width="4.2" height="10.8"/>
	<rect x="350.7" y="471.2" class="st1" width="3.9" height="10.8"/>
</g>
<path class="st3" d="M248.7,296.7v129.7c35.8,0,64.8-29,64.8-64.8S284.4,296.7,248.7,296.7z"/>
<path class="st4" d="M183.9,361.3c0,35.8,29,64.8,64.8,64.8V296.4C213,296.6,183.9,325.5,183.9,361.3z"/>
<g>
	<path class="st6" d="M200.4,362.5c0,26.7,21.6,48.3,48.3,48.3v-96.6C222.1,314.2,200.4,335.8,200.4,362.5z"/>
	<path class="st7" d="M248.8,314.2v96.7c26.7-0.1,48.3-21.7,48.3-48.4C297.1,335.8,275.4,314.2,248.8,314.2z"/>
	<path class="st9" d="M218.5,362.5c0,16.7,13.6,30.2,30.2,30.2v-60.5C232.1,332.2,218.5,345.8,218.5,362.5z"/>
	<path class="st4" d="M248.8,332.2v60.5c16.7-0.1,30.2-13.6,30.2-30.3C279,345.8,265.4,332.2,248.8,332.2z"/>
	<path class="st3" d="M224.5,362.5c0,13.4,10.8,24.2,24.2,24.2v-48.5C235.4,338.3,224.5,349.1,224.5,362.5z"/>
	<path class="st10" d="M248.8,338.3v48.5c13.4-0.1,24.2-10.9,24.2-24.3S262.1,338.3,248.8,338.3z"/>
	<path class="st8" d="M248.7,329.2c1.9,0,3.4-1.5,3.4-3.4v-11.2c0-0.1,0-0.2,0-0.2c-1.1-0.1-2.3-0.1-3.4-0.1V329.2z"/>
	<path class="st7" d="M245.7,314.5v11.2c0,1.7,1.3,3.3,3.1,3.4v-15c-1,0.1-2,0.1-3.1,0.1C245.7,314.3,245.7,314.5,245.7,314.5z"/>
	<path class="st6" d="M248.8,396.1v14.7c1.1,0,2.3-0.1,3.4-0.1v-11.1C252.2,397.7,250.7,396.1,248.8,396.1z"/>
	<path class="st8" d="M245.7,399.5v11.2c1,0.1,2,0.1,3.1,0.1v-14.7C247,396.3,245.7,397.7,245.7,399.5z"/>
	<path class="st8" d="M212.2,359H201c-0.2,0-0.3,0-0.5,0.1c-0.1,1.1-0.1,2.2-0.1,3.4h15.2C215.6,360.6,214.1,359,212.2,359z"/>
	<path class="st7" d="M200.6,365.9c0.2,0,0.3,0.1,0.5,0.1h11.1c1.9,0,3.4-1.5,3.4-3.4h-15.2C200.4,363.6,200.5,364.8,200.6,365.9z"
		/>
	<path class="st6" d="M286,359c-1.9,0-3.4,1.5-3.4,3.4h14.5c0-1.1-0.1-2.3-0.1-3.4H286z"/>
	<path class="st8" d="M286,365.9h11c0.1-1.1,0.1-2.3,0.1-3.4h-14.5C282.5,364.3,284.1,365.9,286,365.9z"/>
	<path class="st8" d="M217.5,326.1c-0.1-0.1-0.2-0.1-0.3-0.2c-0.8,0.7-1.7,1.5-2.5,2.3l10.7,10.7c1.3-1.3,1.3-3.5,0-4.8L217.5,326.1
		z"/>
	<path class="st7" d="M212.5,330.6c0.1,0.1,0.2,0.2,0.2,0.3l7.9,7.9c1.3,1.3,3.5,1.3,4.8,0l-10.7-10.7
		C214,328.9,213.2,329.8,212.5,330.6z"/>
	<path class="st6" d="M272.7,386.2l10.4,10.4c0.8-0.8,1.6-1.6,2.3-2.5l-7.8-7.8C276.2,384.8,274.1,384.8,272.7,386.2z"/>
	<path class="st8" d="M272.7,391l7.8,7.8c0.8-0.7,1.7-1.5,2.5-2.3l-10.3-10.3C271.4,387.5,271.4,389.7,272.7,391z"/>
	<path class="st8" d="M220.5,386l-7.9,7.9c-0.1,0.1-0.2,0.2-0.2,0.3c0.7,0.8,1.5,1.7,2.3,2.5l10.7-10.7
		C224,384.7,221.8,384.7,220.5,386z"/>
	<path class="st7" d="M214.7,396.7c0.8,0.8,1.6,1.6,2.5,2.3c0.1-0.1,0.2-0.1,0.3-0.2l7.9-7.9c1.3-1.3,1.3-3.5,0-4.8L214.7,396.7z"/>
	<path class="st6" d="M272.6,333.9c-1.3,1.3-1.3,3.5,0,4.8l10.4-10.4c-0.8-0.8-1.6-1.6-2.5-2.3L272.6,333.9z"/>
	<path class="st8" d="M272.6,338.7c1.3,1.3,3.5,1.3,4.8,0l7.8-7.8c-0.7-0.8-1.5-1.7-2.3-2.5L272.6,338.7z"/>
	<path class="st8" d="M233.9,316.8c-0.1-0.1-0.1-0.2-0.1-0.2c-1.1,0.4-2.2,0.7-3.2,1.1l5.7,13.9c1.7-0.7,2.6-2.7,1.9-4.4
		L233.9,316.8z"/>
	<path class="st7" d="M227.4,319.1c0,0.1,0.1,0.2,0.1,0.3l4.3,10.3c0.7,1.7,2.7,2.6,4.5,1.9l-5.7-13.9
		C229.5,318.1,228.4,318.6,227.4,319.1z"/>
	<path class="st6" d="M261.9,393.4l5.7,13.6c1-0.4,2.1-1,3.1-1.4l-4.3-10.3C265.6,393.5,263.6,392.7,261.9,393.4z"/>
	<path class="st8" d="M260,397.8l4.3,10.4c1.1-0.4,2.2-0.8,3.2-1.2l-5.7-13.6C260.1,394.1,259.4,396.1,260,397.8z"/>
	<path class="st8" d="M213.6,373.3l-10.4,4.3c-0.1,0.1-0.3,0.1-0.4,0.2c0.4,1.1,0.7,2.1,1.2,3.2l14-5.8
		C217.4,373.4,215.4,372.5,213.6,373.3z"/>
	<path class="st7" d="M204.1,380.9c0.4,1,0.9,2,1.4,3.1c0.1-0.1,0.3-0.1,0.4-0.1l10.4-4.3c1.7-0.7,2.6-2.7,1.9-4.5L204.1,380.9z"/>
	<path class="st6" d="M281.8,345.1c-1.7,0.7-2.6,2.7-1.9,4.5l13.4-5.6c-0.4-1.1-0.9-2.1-1.4-3.1L281.8,345.1z"/>
	<path class="st8" d="M280,349.5c0.7,1.7,2.7,2.6,4.5,1.9l10.2-4.2c-0.4-1.1-0.8-2.2-1.2-3.2L280,349.5z"/>
	<path class="st8" d="M216.3,345.1l-10.4-4.3c-0.1-0.1-0.2-0.1-0.3-0.1c-0.5,1-1,2-1.4,3.1l13.9,5.8
		C218.8,347.8,218,345.8,216.3,345.1z"/>
	<path class="st7" d="M203,346.9c0.1,0.1,0.2,0.1,0.3,0.2l10.4,4.3c1.7,0.7,3.7-0.1,4.5-1.9l-13.9-5.8
		C203.7,344.8,203.3,345.9,203,346.9z"/>
	<path class="st6" d="M280,375.1l13.6,5.6c0.4-1,0.8-2.1,1.2-3.2l-10.3-4.3C282.7,372.5,280.7,373.4,280,375.1z"/>
	<path class="st8" d="M281.8,379.6l10.3,4.3c0.5-1,1-2,1.4-3.1l-13.6-5.6C279.2,376.9,280.1,378.9,281.8,379.6z"/>
	<path class="st8" d="M231.6,395l-4.3,10.4c-0.1,0.1-0.1,0.2-0.1,0.4c1,0.5,2,1,3.1,1.4l5.8-14C234.4,392.5,232.3,393.3,231.6,395z"
		/>
	<path class="st7" d="M236,393.2l-5.8,14c1,0.4,2.1,0.8,3.2,1.2c0.1-0.1,0.1-0.2,0.2-0.4l4.3-10.4
		C238.6,395.9,237.8,393.9,236,393.2z"/>
	<path class="st6" d="M259.8,326.9c-0.7,1.7,0.1,3.7,1.9,4.5l5.6-13.5c-1-0.4-2.1-0.8-3.2-1.2L259.8,326.9z"/>
	<path class="st8" d="M261.7,331.3c1.7,0.7,3.7-0.1,4.5-1.9l4.2-10.2c-1-0.5-2-1-3.1-1.4L261.7,331.3z"/>
	<g>
		<path class="st12" d="M251.9,359.1c0.2-2-0.4-4.4-1.9-4.6c-1.5-0.2-2.9,1.9-3.3,3.7c-0.1,0.6-2.6,3.7-3.2,3.9
			c-1.8,0.8-3.5,2.6-3,4c0.5,1.4,3.1,1.6,4.8,1c0.6-0.2,4.5,0.4,4.9,0.8c1.6,1.1,4,1.7,4.9,0.6c1-1.1-0.1-3.2-1.6-4.7
			C253.3,363.3,251.8,359.7,251.9,359.1z"/>
		<path class="st12" d="M258.3,356.2c1.6-4.3,0.9-10.2-1.4-11.5c-1.6-0.9-5.1-1.3-7.3,2.3c0.7-0.5,1.6-0.7,2.5-0.6
			c2.4,0.1,3.4,5,3,8.9c-0.1,1.2,2.7,8.1,3.3,9.3c0.4,0.7,0.9,1.2,1.6,1.6C258.1,361.1,258,357.1,258.3,356.2z"/>
		<path class="st12" d="M238.1,357.1c-4.5,0.8-9.3,4.3-9.3,7c0,1.8,1.4,5,5.7,5.1c-0.8-0.4-1.4-1-1.7-1.9c-1.1-2.2,2.7-5.5,6.1-7.1
			c1.1-0.5,5.7-6.4,6.4-7.4c0.4-0.7,0.6-1.4,0.6-2.2C242.5,354.8,239.1,356.9,238.1,357.1z"/>
		<path class="st12" d="M260.7,374c-1.3,2-6.1,0.5-9.2-1.8c-1-0.7-8.4-1.7-9.6-1.8c-0.8-0.1-1.5,0.2-2.2,0.6
			c5.2,0.9,8.8,2.8,9.5,3.5c3,3.6,8.4,5.8,10.7,4.5c1.6-0.9,3.6-3.7,1.6-7.5C261.6,372.4,261.3,373.3,260.7,374z"/>
	</g>
</g>
<path class="st11" d="M621,500.6L400.5,369.9L343,149.3c-1.6-6.3-5.5-11.7-11-15.2L110.2-10.7c-12-7.8-28.1-4.5-36,7.6
	c-7.8,12-4.5,28.1,7.6,36l213.4,139.3l57.7,221.2c1.7,6.6,6,12.3,11.9,15.8l229.7,136.2c4.2,2.5,8.7,3.6,13.2,3.6
	c8.9,0,17.5-4.5,22.4-12.7C637.4,523.9,633.4,508,621,500.6z"/>
</svg>
