<?xml version="1.0" encoding="utf-8"?>
<!-- Generator: Adobe Illustrator 19.0.0, SVG Export Plug-In . SVG Version: 6.00 Build 0)  -->
<svg version="1.1" id="Layer_1" xmlns="http://www.w3.org/2000/svg" xmlns:xlink="http://www.w3.org/1999/xlink" x="0px" y="0px"
	 viewBox="206 -206 512 512" style="enable-background:new 206 -206 512 512;" xml:space="preserve">
<style type="text/css">
	.st0{fill:#365558;}
	.st1{fill:#CDD4D5;}
	.st2{fill:#E6EAEA;}
	.st3{fill:#FF8C29;}
	.st4{fill:#FD6A33;}
	.st5{fill:#0295AA;}
	.st6{fill:#4ACFD9;}
	.st7{fill:#FFFFFF;}
	.st8{fill:#FFD1A9;}
	.st9{fill:#9BAAAB;}
</style>
<path class="st0" d="M552.2,153.3c-3.4,0-6.8-1.3-9.3-3.9l-44-44c-5.2-5.2-5.2-13.5,0-18.7s13.5-5.2,18.7,0l44,44
	c5.2,5.2,5.2,13.5,0,18.7C558.8,152,555.5,153.3,552.2,153.3z"/>
<g>
	<path class="st1" d="M270.4-120C252.6-95.3,242-64.9,242-32.2c0,56.9,31.8,106.5,78.5,132V-120H270.4z"/>
	<path class="st2" d="M514.5,54.9v-163.2c0-6.5-4.6-11.7-10.2-11.7H320.5V99.8c21.3,11.6,45.8,18.3,71.7,18.3
		C442.6,118,487.2,93.1,514.5,54.9z"/>
	<path class="st3" d="M458.5-26.8h-138v23.3h138c5.9,0,10.7-5.2,10.7-11.7C469-21.5,464.3-26.8,458.5-26.8z"/>
	<path class="st3" d="M458.5,72.7h-138V96h138c5.9,0,10.7-5.2,10.7-11.7C469,77.9,464.3,72.7,458.5,72.7z"/>
	<path class="st4" d="M320.5-26.8h-78.4c0.3,7.9,1.2,15.7,2.7,23.3h75.7V-26.8z"/>
	<path class="st4" d="M320.5,72.7h-35.7c8.7,8.9,18.5,16.8,29.2,23.3h6.5V72.7z"/>
</g>
<path class="st5" d="M397.4-182.8c-92.6,0-168,75.4-168,168s75.4,168,168,168s168-75.4,168-168S490-182.8,397.4-182.8z M397.4,116.4
	c-72.3,0-131.1-58.8-131.1-131.1S325-145.8,397.4-145.8S528.5-87,528.5-14.7C528.3,57.5,469.5,116.4,397.4,116.4z"/>
<path class="st6" d="M706.7,236.1L587.2,116.7c-2.5-2.5-5.8-3.9-9.3-3.9s-6.9,1.4-9.3,3.9l-39.8,39.8c-5.2,5.2-5.2,13.5,0,18.7
	l119.4,119.4c2.6,2.6,6,3.9,9.3,3.9c3.4,0,6.8-1.3,9.3-3.9l39.8-39.8c2.5-2.5,3.9-5.8,3.9-9.3C710.5,241.9,709,238.6,706.7,236.1z"
	/>
<path class="st7" d="M657.7,237.7c-3.4,0-6.8-1.3-9.3-3.9l-63.3-63.3c-5.2-5.2-5.2-13.5,0-18.7s13.5-5.2,18.7,0l63.3,63.3
	c5.2,5.2,5.2,13.5,0,18.7C664.5,236.4,661,237.7,657.7,237.7z"/>
<g>
	<path class="st0" d="M324.1-68.8l28.6-28.6c4.2-4.2,4.2-11,0-15.2c-2.1-2.1-4.8-3.1-7.6-3.1c-2.7,0-5.5,1-7.6,3.1L308.9-84
		c-4.2,4.2-4.2,11,0,15.2C313.2-64.6,319.9-64.6,324.1-68.8z"/>
	<path class="st0" d="M335.6-23.1L367-54.5c4.2-4.2,4.2-11,0-15.2c-2.1-2.1-4.8-3.1-7.6-3.1c-2.7,0-5.5,1-7.6,3.1l-31.4,31.4
		c-4.2,4.2-4.2,11,0,15.2C324.6-18.9,331.4-18.9,335.6-23.1z"/>
</g>
<path class="st6" d="M449.6-84.8c-3,0.5-5.9-0.1-8.4-2.2c-13.2-11.1-30.6-15.9-47.5-13c-5.5,1-10.9-2.8-11.9-8.3s2.8-10.9,8.3-11.9
	c23.1-4,46.5,2.3,64.3,17.4c4.3,3.7,4.8,10.1,1.2,14.5C454.1-86.4,452-85.3,449.6-84.8z"/>
<path class="st2" d="M352.5,147.2v154.3H480c3.9,0,7.1-3.6,7.1-8.1V127.2c-26,16.5-56.8,26.1-89.8,26.1
	C381.8,153.3,366.7,151.2,352.5,147.2z"/>
<path class="st8" d="M352.5,150.4h13.8c-4.7-0.9-9.3-1.9-13.8-3.2V150.4z"/>
<path class="st8" d="M448.3,150.4c3.9,0,7.1-3.3,7.4-7.5c-8.7,3.2-17.8,5.8-27.2,7.5H448.3z"/>
<path class="st8" d="M448.2,203.3h-95.8v16.2h95.8c4.1,0,7.4-3.6,7.4-8.1C455.5,206.9,452.2,203.3,448.2,203.3z"/>
<path class="st1" d="M229.4-14.7c0-18.9,3.1-37,8.9-54h-19.9c-4.1,0-7.4,3.6-7.4,8.1v263.3l90.2,98.8h51.3V147.2
	C281.6,127.5,229.4,62.4,229.4-14.7z"/>
<path class="st3" d="M261.8,134.2c-4.1,0-7.4,3.6-7.4,8.1s3.3,8.1,7.4,8.1h90.7v-3.2c-11.5-3.2-22.5-7.6-32.8-13H261.8z"/>
<path class="st3" d="M254.4,211.4c0,4.5,3.3,8.1,7.4,8.1h90.7v-16.2h-90.7C257.6,203.3,254.4,206.9,254.4,211.4z"/>
<g>
	<path class="st9" d="M293.7,202.7h-82.8l90.2,98.8v-90.7C301.1,206.4,297.9,202.7,293.7,202.7z"/>
</g>
</svg>
