<?xml version="1.0" encoding="utf-8"?>
<!-- Generator: Adobe Illustrator 19.0.0, SVG Export Plug-In . SVG Version: 6.00 Build 0)  -->
<svg version="1.1" id="Layer_1" xmlns="http://www.w3.org/2000/svg" xmlns:xlink="http://www.w3.org/1999/xlink" x="0px" y="0px"
	 viewBox="96 11 512 512" style="enable-background:new 96 11 512 512;" xml:space="preserve">
<style type="text/css">
	.st0{fill:#FFD1A9;}
	.st1{fill:#FF8C29;}
	.st2{fill:#FD6A33;}
	.st3{fill:#F0353D;}
</style>
<polygon class="st0" points="215.5,221.9 96,46.5 96,523 263,523 263,189.6 "/>
<polygon class="st0" points="264,188.9 263,189.6 263,523 264,523 "/>
<polygon class="st0" points="168.4,11 236.6,111 263,92.9 263,11 "/>
<polygon class="st0" points="264,11 263,11 263,92.9 264,92.2 "/>
<polygon class="st0" points="273,11 273,86.1 340.2,40.3 434,177.9 434,11 "/>
<polygon class="st0" points="435,11 434,11 434,177.9 435,179.3 "/>
<polygon class="st0" points="340.2,40.3 273,86.1 273,98.2 337.6,53.5 434,195.6 434,177.9 "/>
<polygon class="st0" points="435,179.3 434,177.9 434,195.6 435,197.1 "/>
<polygon class="st0" points="608,11 444,11 444,192.5 525.2,311.7 578.3,275.4 590.6,481 444,413.9 444,523 608,523 "/>
<polygon class="st0" points="403.3,395.3 434,374.2 434,319.6 319.2,151.2 273,182.7 273,523 434,523 434,409.3 "/>
<polygon class="st0" points="435,373.5 435,321.1 434,319.6 434,374.2 "/>
<polygon class="st0" points="435,409.8 434,409.3 434,523 435,523 "/>
<polygon class="st0" points="423.2,393.7 434,386.4 434,374.2 403.3,395.3 434,409.3 434,398.6 "/>
<polygon class="st0" points="435,399.1 434,398.6 434,409.3 435,409.8 "/>
<polygon class="st0" points="435,385.7 435,373.5 434,374.2 434,386.4 "/>
<polygon class="st0" points="321.8,137.8 273,170.4 273,182.7 319.2,151.2 434,319.6 434,302.5 "/>
<polygon class="st0" points="435,303.9 434,302.5 434,319.6 435,321.1 "/>
<polygon class="st0" points="459.4,356.8 444,334.3 444,367.3 "/>
<polygon class="st1" points="215.5,221.9 96,46.5 96,523 263,523 263,189.6 "/>
<polygon class="st1" points="264,188.9 263,189.6 263,523 264,523 "/>
<polygon class="st1" points="168.4,11 236.6,111 263,92.9 263,11 "/>
<polygon class="st1" points="264,11 263,11 263,92.9 264,92.2 "/>
<polygon class="st1" points="273,11 273,86.1 340.2,40.3 434,177.9 434,11 "/>
<polygon class="st1" points="435,11 434,11 434,177.9 435,179.3 "/>
<polygon class="st1" points="403.3,395.3 434,374.2 434,319.6 319.2,151.2 273,182.7 273,523 434,523 434,409.3 "/>
<polygon class="st1" points="435,373.5 435,321.1 434,319.6 434,374.2 "/>
<polygon class="st1" points="435,409.8 434,409.3 434,523 435,523 "/>
<polygon class="st2" points="215.5,221.9 96,46.5 96,523 263,523 263,189.6 "/>
<polygon class="st2" points="264,188.9 263,189.6 263,523 264,523 "/>
<polygon class="st2" points="168.4,11 236.6,111 263,92.9 263,11 "/>
<polygon class="st2" points="264,11 263,11 263,92.9 264,92.2 "/>
<polygon class="st3" points="568.6,449 560.4,311.8 520,339.5 335,68.1 231.3,138.7 144.2,11 96,11 220.8,194.1 324.5,123.4 
	487.1,362 443.7,391.8 "/>
</svg>
