<svg width="512" height="512" viewBox="0 0 512 512" fill="none" xmlns="http://www.w3.org/2000/svg">
<path fill-rule="evenodd" clip-rule="evenodd" d="M297.967 193.017L303.247 281L223.106 244.307L250.947 225.232L146.6 72.1413L80.0768 117.483L0 9.15527e-05H30.9385L86.8028 81.9605L153.326 36.6183L272.036 210.783L297.967 193.017Z" fill="#F0353D"/>
<path fill-rule="evenodd" clip-rule="evenodd" d="M0 376H10.0392V392H0V376ZM20.0784 376H40.1569V392H20.0784V376ZM50.1961 376H70.2745V392H50.1961V376ZM80.3137 376H100.392V392H80.3137V376ZM110.431 376H130.51V392H110.431V376ZM140.549 376H160.627V392H140.549V376ZM170.667 376H190.745V392H170.667V376ZM200.784 376H220.863V392H200.784V376ZM230.902 376H250.98V392H230.902V376ZM471.843 376H491.922V392H471.843V376ZM501.961 376H512V392H501.961V376Z" fill="#FD6A33"/>
<path fill-rule="evenodd" clip-rule="evenodd" d="M443 383.5C443 337.384 405.616 300 359.5 300C313.384 300 276 337.384 276 383.5C276 429.616 313.384 467 359.5 467C405.616 467 443 429.616 443 383.5ZM359.5 316C396.779 316 427 346.221 427 383.5C427 420.779 396.779 451 359.5 451C322.221 451 292 420.779 292 383.5C292 346.221 322.221 316 359.5 316Z" fill="#FD6A33"/>
<path fill-rule="evenodd" clip-rule="evenodd" d="M359.5 371C366.404 371 372 376.596 372 383.5C372 390.404 366.404 396 359.5 396C352.596 396 347 390.404 347 383.5C347 376.596 352.596 371 359.5 371ZM359.5 351C377.449 351 392 365.551 392 383.5C392 401.449 377.449 416 359.5 416C341.551 416 327 401.449 327 383.5C327 365.551 341.551 351 359.5 351ZM407 383.5C407 357.266 385.734 336 359.5 336C333.266 336 312 357.266 312 383.5C312 409.734 333.266 431 359.5 431C385.734 431 407 409.734 407 383.5Z" fill="#FF8C29"/>
<path fill-rule="evenodd" clip-rule="evenodd" d="M372 383.5C372 376.596 366.404 371 359.5 371C352.596 371 347 376.596 347 383.5C347 390.404 352.596 396 359.5 396C366.404 396 372 390.404 372 383.5Z" fill="#F0353D"/>
</svg>
