<?xml version="1.0" encoding="utf-8"?>
<!-- Generator: Adobe Illustrator 19.0.0, SVG Export Plug-In . SVG Version: 6.00 Build 0)  -->
<svg version="1.1" id="Layer_1" xmlns="http://www.w3.org/2000/svg" xmlns:xlink="http://www.w3.org/1999/xlink" x="0px" y="0px"
	 viewBox="96 11 512 512" style="enable-background:new 96 11 512 512;" xml:space="preserve">
<style type="text/css">
	.st0{fill:#9BAAAB;}
	.st1{fill:#CDD4D5;}
	.st2{fill:#E6EAEA;}
	.st3{fill:#365558;}
	.st4{fill:#FF8C29;}
	.st5{fill:#0295AA;}
	.st6{fill:#F0353D;}
	.st7{fill:#4ACFD9;}
</style>
<path class="st0" d="M293,130h58v93h-58V130z M293,226h58v171h-58V226z M293,400v92h58v-92H293z"/>
<path class="st1" d="M351,130h58v93h-58V130z M351,226h58v171h-58V226z M351,400v92h58v-92H351z"/>
<path class="st1" d="M571,153c0-12.7-10.3-23-23-23H445v118h126V153z M445,422V251h126v171H445z M445,425v67h103
	c12.7,0,23-10.3,23-23v-44H445z"/>
<path class="st0" d="M131,153c0-12.7,10.3-23,23-23h103v93H131V153z M257,397V226H131v171H257z M257,400v92H154
	c-12.7,0-23-10.3-23-23v-69H257z"/>
<path class="st1" d="M551,122H351v377.6h200c15.5,0,28-10.4,28-23.2V145.2C579,132.4,566.5,122,551,122z"/>
<path class="st0" d="M151,122c-15.5,0-28,10.4-28,23.2v331.3c0,12.8,12.5,23.2,28,23.2h200V122H151z"/>
<rect x="417" y="114" class="st2" width="20" height="396"/>
<rect x="265" y="114" class="st1" width="20" height="396"/>
<path class="st0" d="M143,31c0-11,9-20,20-20h21c11,0,20,9,20,20v55h-61V31z"/>
<path class="st1" d="M498,31c0-11,9-20,20-20h21c11,0,20,9,20,20v55h-61V31z"/>
<polygon class="st3" points="365.3,428 363.1,428 320.7,443.2 320.7,459.7 345,452.2 345,500.5 365.3,500.5 "/>
<polygon class="st4" points="497.6,481.1 538.3,481.1 538.3,464.3 480.9,464.3 476.9,499.3 495.5,499.3 "/>
<path class="st3" d="M319.4,128c-2.9,5.6-4.4,11.7-4.4,18.4c0,10.6,2.8,19,8.2,25.2c5.4,6.2,12.7,9.3,21.7,9.3
	c7.1,0,13.3-2.6,18.6-7.8c-1.5,15.8-11,24.1-28.8,24.8l-4.5,0.1v17l5-0.1c15.6-0.6,27.6-5.8,36.1-15.6c8.5-9.7,12.7-23.1,12.7-40.2
	v-7.5c0-8.1-1.5-15.4-4.4-21.7c-1.3-3-3-5.6-4.8-7.9h-51.3C321.9,123.8,320.6,125.8,319.4,128z M339.2,132.2c2.7-3.7,6-5.6,10.1-5.6
	c4.4,0,7.9,1.9,10.5,5.7s3.9,9.1,3.9,16v8.4c-1.2,2.4-3,4.4-5.4,6.1c-2.3,1.7-5.1,2.5-8.4,2.5c-4.6,0-8.2-1.7-10.8-5.3
	c-2.5-3.6-3.8-8.2-3.8-13.8C335.3,140.6,336.6,135.9,339.2,132.2z"/>
<path class="st3" d="M164.4,128c-2.9,5.6-4.4,11.7-4.4,18.4c0,10.6,2.8,19,8.2,25.2s12.7,9.3,21.7,9.3c7.1,0,13.3-2.6,18.6-7.8
	c-1.5,15.8-11,24.1-28.8,24.8l-4.5,0.1v17l5-0.1c15.6-0.6,27.6-5.8,36.1-15.6c8.5-9.7,12.7-23.1,12.7-40.2v-7.5
	c0-8.1-1.5-15.4-4.4-21.7c-1.3-3-3-5.6-4.8-7.9h-51.3C166.9,123.8,165.6,125.8,164.4,128z M184.2,132.2c2.7-3.7,6-5.6,10.1-5.6
	c4.4,0,7.9,1.9,10.5,5.7s3.9,9.1,3.9,16v8.4c-1.2,2.4-3,4.4-5.4,6.1c-2.3,1.7-5.1,2.5-8.4,2.5c-4.6,0-8.2-1.7-10.8-5.3
	c-2.5-3.6-3.8-8.2-3.8-13.8C180.3,140.6,181.6,135.9,184.2,132.2z"/>
<path class="st4" d="M492.6,152.8h10.8c5.2,0,9-1.3,11.5-3.9c2.5-2.6,3.7-6,3.7-10.3c0-4.1-1.2-7.3-3.7-9.6
	c-2.4-2.3-5.8-3.4-10.1-3.4c-3.9,0-7.1,1.1-9.8,3.2c-2.6,2.1-3.9,4.9-3.9,8.3h-20.3c0-5.3,1.4-10.1,4.3-14.3
	c2.9-4.3,6.9-7.6,12.1-10s10.9-3.6,17.2-3.6c10.8,0,19.3,2.6,25.5,7.8c6.1,5.2,9.2,12.3,9.2,21.4c0,4.7-1.4,9-4.3,12.9
	c-2.9,3.9-6.6,7-11.3,9.1c5.8,2.1,10.1,5.2,12.9,9.3c2.9,4.1,4.3,9,4.3,14.6c0,9.1-3.3,16.4-10,21.9c-6.6,5.5-15.4,8.2-26.3,8.2
	c-10.2,0-18.6-2.7-25.1-8.1c-6.5-5.4-9.7-12.5-9.7-21.4h20.3c0,3.8,1.4,7,4.3,9.4s6.5,3.7,10.7,3.7c4.8,0,8.6-1.3,11.3-3.8
	c2.8-2.6,4.1-6,4.1-10.2c0-10.2-5.6-15.3-16.9-15.3h-10.8L492.6,152.8L492.6,152.8z"/>
<path class="st5" d="M229.9,317.7c0,14.2-2.9,25-8.8,32.5c-5.9,7.5-14.4,11.3-25.7,11.3c-11.2,0-19.7-3.7-25.6-11
	c-5.9-7.4-8.9-17.9-9.1-31.6v-18.8c0-14.3,3-25.1,8.9-32.6c6-7.4,14.5-11.1,25.7-11.1s19.7,3.7,25.6,11c5.9,7.3,8.9,17.8,9.1,31.6
	L229.9,317.7L229.9,317.7z M209.5,297c0-8.5-1.2-14.6-3.5-18.5s-5.9-5.8-10.8-5.8c-4.8,0-8.3,1.9-10.6,5.6s-3.4,9.4-3.6,17.2v24.9
	c0,8.3,1.1,14.6,3.4,18.6c2.3,4,6,6,11,6s8.6-1.9,10.8-5.8s3.4-9.8,3.4-17.9L209.5,297L209.5,297z"/>
<path class="st6" d="M532.1,351.5h11.6v16.4h-11.6V390h-20.3v-22.1h-42l-0.9-12.8l42.7-67.4h20.5V351.5z M489.1,351.5h22.6v-36.1
	l-1.3,2.3L489.1,351.5z"/>
<path class="st2" d="M351,523h228c15.5,0,28-10.4,28-23.2V122.2c0-12.8-12.5-23.2-28-23.2H351v23.2h200c15.5,0,28,10.4,28,23.2
	v331.3c0,12.8-12.5,23.2-28,23.2H351V523z"/>
<path class="st1" d="M351,499.8H151c-15.5,0-28-10.4-28-23.2V145.4c0-12.8,12.5-23.2,28-23.2h200V99H123c-15.5,0-28,10.4-28,23.2
	v377.6c0,12.8,12.5,23.2,28,23.2h228V499.8z"/>
<path class="st5" d="M388.9,317.7c0,14.2-2.9,25-8.8,32.5s-14.4,11.3-25.7,11.3c-11.2,0-19.7-3.7-25.6-11
	c-5.9-7.4-8.9-17.9-9.1-31.6v-18.8c0-14.3,3-25.1,8.9-32.6c6-7.4,14.5-11.1,25.7-11.1s19.7,3.7,25.6,11s8.9,17.8,9.1,31.6v18.7
	H388.9z M368.5,297c0-8.5-1.2-14.6-3.5-18.5s-5.9-5.8-10.8-5.8c-4.8,0-8.3,1.9-10.6,5.6c-2.3,3.7-3.4,9.4-3.6,17.2v24.9
	c0,8.3,1.1,14.6,3.4,18.6s6,6,11,6s8.6-1.9,10.8-5.8c2.2-3.9,3.4-9.8,3.4-17.9L368.5,297L368.5,297z"/>
<path class="st7" d="M351,361.3c1.1,0.1,2.2,0.1,3.3,0.1c11.3,0,19.9-3.8,25.7-11.3c5.9-7.5,8.8-18.3,8.8-32.5v-18.8
	c-0.1-13.7-3.2-24.3-9.1-31.6c-5.9-7.4-14.4-11-25.6-11c-1.1,0-2.2,0-3.2,0.1V273c1-0.2,2.1-0.3,3.2-0.3c4.9,0,8.5,1.9,10.8,5.8
	c2.3,3.8,3.5,10,3.5,18.5v24.3c-0.1,8-1.2,14-3.4,17.9c-2.2,3.9-5.8,5.8-10.8,5.8c-1.2,0-2.3-0.1-3.3-0.3v16.6H351z"/>
<polygon class="st3" points="210.3,428 208.1,428 165.7,443.2 165.7,459.7 190,452.2 190,500.5 210.3,500.5 "/>
</svg>
