<?xml version="1.0" encoding="utf-8"?>
<!-- Generator: Adobe Illustrator 19.0.0, SVG Export Plug-In . SVG Version: 6.00 Build 0)  -->
<svg version="1.1" id="Layer_1" xmlns="http://www.w3.org/2000/svg" xmlns:xlink="http://www.w3.org/1999/xlink" x="0px" y="0px"
	 viewBox="96 11 512 512" style="enable-background:new 96 11 512 512;" xml:space="preserve">
<style type="text/css">
	.st0{fill:#FF8C29;}
	.st1{fill:#FD6A33;}
	.st2{fill:#4ACFD9;}
	.st3{fill:#FFFFFF;}
	.st4{fill:#0295AA;}
	.st5{fill:#F0353D;}
	.st6{fill:#FFD1A9;}
</style>
<path class="st0" d="M582.5,431.1L401.9,250.4c-3.1-3.1-8.2-3.1-11.3,0l-78.3,78.3c-1.5,1.5-2.3,3.5-2.3,5.6s0.8,4.1,2.3,5.6
	l180.6,180.6c1.5,1.5,3.6,2.3,5.6,2.3c0.9,0,1.9-0.2,2.7-0.5c2.9-1.1,5-3.7,5.2-6.8l5.5-65.5l65.5-5.5c3.1-0.3,5.8-2.3,6.8-5.2
	C585.4,436.6,584.7,433.3,582.5,431.1z"/>
<path class="st1" d="M352.7,288.3l-40.4,40.4c-1.5,1.5-2.3,3.5-2.3,5.6s0.8,4.1,2.3,5.6l180.6,180.6c1.5,1.5,3.6,2.3,5.6,2.3
	c0.9,0,1.9-0.2,2.7-0.5c2.9-1.1,5-3.7,5.2-6.8l5.5-65.5l2.3-0.2L352.7,288.3z"/>
<path class="st0" d="M391.7,328.7l-78.3-78.3c-3.1-3.1-8.2-3.1-11.3,0L121.5,431.1c-2.2,2.2-2.9,5.5-1.8,8.4s3.7,5,6.8,5.2l65.5,5.5
	l5.5,65.5c0.3,3.1,2.3,5.8,5.2,6.8c0.9,0.3,1.8,0.5,2.7,0.5c2.1,0,4.1-0.8,5.6-2.3L391.7,340c1.5-1.5,2.3-3.5,2.3-5.6
	S393.2,330.2,391.7,328.7z"/>
<path class="st1" d="M353.4,290.4L192.1,451.7l5.3,63.9c0.3,3.1,2.3,5.8,5.2,6.8c0.9,0.3,1.8,0.5,2.7,0.5c2.1,0,4.1-0.8,5.6-2.3
	L391.7,340c1.5-1.5,2.3-3.5,2.3-5.6s-0.8-4.1-2.3-5.6L353.4,290.4z"/>
<path class="st2" d="M544.5,169L494,126.7l-11.4-64.9c-0.7-3.8-4-6.6-7.9-6.6h-65.9l-50.5-42.3c-3-2.5-7.3-2.5-10.3,0l-50.5,42.3
	h-65.9c-3.9,0-7.2,2.8-7.9,6.6l-11.4,64.9L162,169c-3,2.5-3.7,6.8-1.8,10.1l32.9,57.1l-11.4,64.9c-0.7,3.8,1.5,7.6,5.1,8.9
	l61.9,22.5l32.9,57.1c1.9,3.4,6,4.8,9.6,3.5l61.9-22.5l61.9,22.5c0.9,0.3,1.8,0.5,2.7,0.5c2.8,0,5.5-1.5,6.9-4l32.9-57.1l61.9-22.5
	c3.6-1.3,5.8-5.1,5.1-8.9l-11.4-64.9l32.9-57.1C548.2,175.8,547.4,171.5,544.5,169z"/>
<path class="st1" d="M352,79.5c-70.1,0-127.2,57.1-127.2,127.2S281.9,333.9,352,333.9s127.2-57.1,127.2-127.2S422.1,79.5,352,79.5z"
	/>
<path class="st3" d="M443.9,181.3c-1.1-3.3-4.1-5.5-7.6-5.5h-58.9l-18.2-56c-1.1-3.3-4.1-5.5-7.6-5.5s-6.5,2.2-7.6,5.5l-18.2,56
	h-58.9c-3.5,0-6.5,2.2-7.6,5.5s0.1,6.9,2.9,8.9l47.7,34.6l-18.2,56c-1.1,3.3,0.1,6.9,2.9,8.9c1.4,1,3,1.5,4.7,1.5
	c1.6,0,3.3-0.5,4.7-1.5l47.7-34.6l47.7,34.6c2.8,2,6.6,2,9.4,0s4-5.6,2.9-8.9l-18.2-56l47.7-34.6
	C443.8,188.2,444.9,184.6,443.9,181.3z"/>
<path class="st4" d="M348.1,12.9l-50.5,42.3h-65.9c-3.9,0-7.2,2.8-7.9,6.6l-11.4,64.9L162,169c-3,2.5-3.7,6.8-1.8,10.1l32.9,57.1
	l-11.4,64.9c-0.7,3.8,1.5,7.6,5.1,8.9l61.9,22.5l32.9,57.1c1.9,3.4,6,4.8,9.6,3.5L352,371V11.1C350.6,11.3,349.2,11.9,348.1,12.9z"
	/>
<path class="st5" d="M224.8,206.7c0,70.1,57.1,127.2,127.2,127.2V79.5C281.9,79.5,224.8,136.6,224.8,206.7z"/>
<path class="st6" d="M351.6,114.2c-3.5,0-6.5,2.2-7.6,5.5l-18.2,56h-58.9c-3.5,0-6.5,2.2-7.6,5.5s0.1,6.9,2.9,8.9l47.7,34.6
	l-18.2,56c-1.1,3.3,0.1,6.9,2.9,8.9c1.4,1,3,1.5,4.7,1.5c1.6,0,3.3-0.5,4.7-1.5l47.7-34.6l0.4,0.3v-141
	C351.9,114.3,351.7,114.2,351.6,114.2z"/>
</svg>
