<?xml version="1.0" encoding="utf-8"?>
<!-- Generator: Adobe Illustrator 19.0.0, SVG Export Plug-In . SVG Version: 6.00 Build 0)  -->
<svg version="1.1" id="Layer_1" xmlns="http://www.w3.org/2000/svg" xmlns:xlink="http://www.w3.org/1999/xlink" x="0px" y="0px"
	 viewBox="206 -206 512 512" style="enable-background:new 206 -206 512 512;" xml:space="preserve">
<style type="text/css">
	.st0{fill:#4ACFD9;}
	.st1{fill:#0295AA;}
	.st2{fill:#FF8C29;}
	.st3{fill:#FD6A33;}
	.st4{fill:#E6EAEA;}
	.st5{fill:#CDD4D5;}
	.st6{fill:#FFFFFF;}
</style>
<image style="display:none;overflow:visible;" width="225" height="225" xlink:href="1873AF9C.jpg"  transform="matrix(3.2237 0 0 2.8811 102.6667 -241.6667)">
</image>
<path class="st0" d="M686.6-100c-11.6,0-117,0-224.6,0v79.6c8.2,0.7,16.1,1.8,24.9,3.6c24.3,5.1,79.1,19.3,90.3,27.4
	c0,0,6.1,4.1,11.2,8.1c5.1,4.1,23.3,21.3,34.5,50.7c11.2,29.4-1,83.2-21.3,110.5c-20.3,27.4-53.7,41.6-104.5,45.6
	c-10.6,0.8-22.4,0.6-35-0.6V259c55.8,5.3,85.4-2.5,123.2-21.3c54.8-27.2,54.5-46.6,81.1-58.8c30.8-14.1,37.6-218.1,44.7-247.5
	C718.1-98,711-100,686.6-100z"/>
<path class="st1" d="M318,175.8c-32.3-22.1-53.2-52.7-59.3-96.1C252.6,36.3,283,9.5,306.3-5.7c23.3-15.2,62.9-20.3,102.4-18.3
	c23.3,1.9,38.8,2.2,53.2,3.5V-100c-119,0-240.7,0-240.7,0c-6.2,0-11.5,1.4-15.3,4.2v82.2c4.8,41.7,10.7,91.1,13.1,104.3
	c4.1,22.3,24.3,73,67.9,106.5c43.6,33.5,116.9,56.4,174.8,61.9c0.1,0,0.1,0,0.2,0v-34.1C414.3,220.4,356.1,201.9,318,175.8z"/>
<path class="st2" d="M486.9-16.8c-8.8-1.8-16.7-2.9-24.9-3.6V80.3c4.3,16.2,3.6,28.9,0,39.5v45.8c18.1-14.8,36.9-34.8,44.1-52.6
	c11.2-27.4,4.1-70,3-78.1c-1-8.1,2-5.1,6.1-5.1c4.1,0,22.3-3,36.5-7.1c14.2-4.1,25.4-12.2,25.4-12.2C566,2.4,511.2-11.8,486.9-16.8z
	"/>
<path class="st3" d="M437.2,154.5c-17.2,17.2-42.3,26.9-51.2,30.9c-5.1,2.3-1.6,10.5,3,11.2c9,1.3,27.5-3.1,46.1-12.7
	c7.5-3.8,17.1-10.3,26.9-18.4v-45.8C457.2,134.2,447.1,144.6,437.2,154.5z"/>
<path class="st3" d="M408.8-15.8c-0.6,6.4-1,14.7,13.2,35.5c18.2,26.6,29.4,21.3,39.9,60c0.1,0.2,0.1,0.4,0.2,0.6V-20.4
	c-14.5-1.3-29.9-1.6-53.2-3.5C408.8-23.9,409.2-20.6,408.8-15.8z"/>
<path class="st4" d="M462-206v140c18.1,0,35.6,0,51.3,0c42.8,0,96.5,14.4,135.7,62s13,163.9,16,237c1,60,2,73,12,73s41,0,41,0v-512
	H462z"/>
<path class="st5" d="M206-206v140h87.3c0,0,89.8,0,168.7,0v-140H206z"/>
<path class="st6" d="M509.5-126H462v30h47.5c6.9,0,12.5-6.7,12.5-15S516.4-126,509.5-126z"/>
<path class="st4" d="M255.4-126c-6.9,0-12.5,6.7-12.5,15s5.6,15,12.5,15H462v-30H255.4z"/>
<path class="st6" d="M509.5-181H462v30h47.5c6.9,0,12.5-6.7,12.5-15S516.4-181,509.5-181z"/>
<path class="st4" d="M255.4-181c-6.9,0-12.5,6.7-12.5,15s5.6,15,12.5,15H462v-30H255.4z"/>
<circle class="st3" cx="669" cy="-118" r="33"/>
</svg>
