<?xml version="1.0" encoding="utf-8"?>
<!-- Generator: Adobe Illustrator 19.0.0, SVG Export Plug-In . SVG Version: 6.00 Build 0)  -->
<svg version="1.1" id="Layer_1" xmlns="http://www.w3.org/2000/svg" xmlns:xlink="http://www.w3.org/1999/xlink" x="0px" y="0px"
	 viewBox="206 -206 512 512" style="enable-background:new 206 -206 512 512;" xml:space="preserve">
<style type="text/css">
	.st0{fill:#CDD4D5;}
	.st1{fill:#4ACFD9;}
	.st2{fill:#FFFFFF;}
	.st3{fill:#F0353D;}
	.st4{fill:#E6EAEA;}
	.st5{fill:#FF8C29;}
	.st6{fill:#0295AA;}
	.st7{fill:#FFD1A9;}
	.st8{fill:#687F82;}
	.st9{fill:#365558;}
	.st10{fill:#9BAAAB;}
</style>
<path class="st0" d="M448-88.4H217.1c-4.4,0-8,3.6-8,8v376.3c0,4.4,3.6,8,8,8H448c4.4,0,8-3.6,8-8V-80.4
	C456-84.8,452.4-88.4,448-88.4z"/>
<path class="st1" d="M448-88.4H217.1c-4.4,0-8,3.6-8,8v67.9H456v-67.9C456-84.8,452.4-88.4,448-88.4z"/>
<path class="st2" d="M242.8-38.2c-4.4,0-8-3.6-8-8v-8.6c0-4.4,3.6-8,8-8s8,3.6,8,8v8.6C250.8-41.7,247.2-38.2,242.8-38.2z"/>
<path class="st3" d="M395,70.9V22.8h-59.3c-10,0-19,6.3-22.5,15.6l-77,205.2c-1.1,2.9-0.4,6.4,2,8.7c0.8,0.8,1.8,1.3,2.8,1.7
	l29.9,11.2c0.9,0.3,1.9,0.5,2.8,0.5c3.2,0,6.3-2,7.5-5.2l32.6-87H395v-48.1h-63.1l20.4-54.5L395,70.9L395,70.9z"/>
<path class="st4" d="M476-140.2h230.9c4.4,0,8,3.6,8,8v376.3c0,4.4-3.6,8-8,8H476c-4.4,0-8-3.6-8-8v-376.3
	C468-136.6,471.6-140.2,476-140.2z"/>
<path class="st1" d="M476-140.2h230.9c4.4,0,8,3.6,8,8v67.9H468v-67.9C468-136.6,471.6-140.2,476-140.2z"/>
<path class="st2" d="M681.2-90c-4.4,0-8-3.6-8-8v-8.6c0-4.4,3.6-8,8-8s8,3.6,8,8v8.6C689.3-93.6,685.7-90,681.2-90z"/>
<path class="st5" d="M632.2,72.6c6.2-10.3,9.5-22.3,9.5-34.3c0-36.8-30-66.8-66.8-66.8h-77c-4.4,0-8,3.6-8,8v32.1c0,4.4,3.6,8,8,8
	h77c10.3,0,18.7,8.4,18.7,18.7S585.2,57,574.9,57h-77c-4.4,0-8,3.6-8,8v32.1c0,4.4,3.6,8,8,8h85.5c19.7,0,35.8,16.1,35.8,35.8
	s-16.1,35.8-35.8,35.8H498c-4.4,0-8,3.6-8,8v32.1c0,4.4,3.6,8,8,8h85.5c46.3,0,83.9-37.6,83.9-83.9
	C667.4,113.7,654.1,88.3,632.2,72.6z"/>
<path class="st5" d="M387.6-108.3v263.9c0,2.1,0.9,4.2,2.4,5.7c1.5,1.5,3.6,2.4,5.7,2.4h120.7c2.1,0,4.2-0.9,5.7-2.4
	c1.5-1.5,2.4-3.6,2.4-5.7l0-263.9c0-2.2-0.9-4.3-2.4-5.7c-1.5-1.5-3.5-2.4-5.7-2.4l-120.7,0c-2.1,0-4.2,0.9-5.7,2.4
	C388.4-112.5,387.6-110.4,387.6-108.3z"/>
<path class="st3" d="M455.5,163.7h60.9c2.1,0,4.2-0.9,5.7-2.4c1.5-1.5,2.4-3.6,2.4-5.7l0-263.9c0-2.2-0.9-4.3-2.4-5.7
	c-1.5-1.5-3.5-2.4-5.7-2.4h-60.9L455.5,163.7z"/>
<path class="st1" d="M426.4-108.3l0,263.9c0,4.5,3.6,8.1,8.1,8.1l43.1,0c2.1,0,4.2-0.9,5.7-2.4c1.5-1.5,2.4-3.6,2.4-5.7l0-263.9
	c0-2.2-0.9-4.3-2.4-5.7c-1.5-1.5-3.5-2.4-5.7-2.4h-43.1c-2.1,0-4.2,0.9-5.7,2.4C427.2-112.5,426.4-110.4,426.4-108.3z"/>
<path class="st6" d="M455.5,163.7h22.1c2.1,0,4.2-0.9,5.7-2.4c1.5-1.5,2.4-3.6,2.4-5.7l0-263.9c0-2.2-0.9-4.3-2.4-5.7
	c-1.5-1.5-3.5-2.4-5.7-2.4h-22.1L455.5,163.7z"/>
<g>
	<path class="st7" d="M456,254.2c2.7,0,5.2-1.4,6.7-3.6l60.4-90.5H388.9l60.4,90.5C450.8,252.9,453.3,254.2,456,254.2z"/>
	<path class="st7" d="M455.5,254.2c0.2,0,0.3,0,0.5,0c2.7,0,5.2-1.4,6.7-3.6l60.4-90.5h-67.6L455.5,254.2z"/>
</g>
<path class="st8" d="M456,254.2c2.7,0,5.2-1.4,6.7-3.6l25.9-38.8l-65.2,0l25.9,38.8C450.8,252.9,453.3,254.2,456,254.2z"/>
<path class="st9" d="M455.5,254.2c0.2,0,0.3,0,0.5,0c2.7,0,5.2-1.4,6.7-3.6l25.9-38.8l-33.1,0V254.2z"/>
<path class="st0" d="M387.6-108.3l136.9,0l0-86.2c0-2.2-0.9-4.3-2.4-5.7s-3.5-2.4-5.7-2.4l-120.7,0c-2.1,0-4.2,0.9-5.7,2.4
	c-1.5,1.5-2.4,3.6-2.4,5.7L387.6-108.3z"/>
<path class="st10" d="M455.5-108.3l69,0l0-86.2c0-2.2-0.9-4.3-2.4-5.7c-1.5-1.5-3.5-2.4-5.7-2.4h-60.9L455.5-108.3z"/>
<path class="st2" d="M433.8-171.7c1.5,1.5,2.4,3.5,2.4,5.7v30.5c0,4.5-3.6,8.1-8.1,8.1c-4.5,0-8.1-3.6-8.1-8.1V-166
	c0-4.5,3.6-8.1,8.1-8.1C430.3-174.1,432.3-173.2,433.8-171.7z"/>
</svg>
