<svg width="512" height="512" viewBox="0 0 512 512" fill="none" xmlns="http://www.w3.org/2000/svg">
<path fill-rule="evenodd" clip-rule="evenodd" d="M297.967 318.983L303.247 231L223.106 267.693L250.947 286.768L146.6 439.859L80.0768 394.517L0 512H30.9385L86.8028 430.04L153.326 475.382L272.036 301.217L297.967 318.983Z" fill="#BCD643"/>
<path fill-rule="evenodd" clip-rule="evenodd" d="M0 120H10.0392V136H0V120ZM20.0784 120H40.1569V136H20.0784V120ZM50.1961 120H70.2745V136H50.1961V120ZM80.3137 120H100.392V136H80.3137V120ZM110.431 120H130.51V136H110.431V120ZM140.549 120H160.627V136H140.549V120ZM170.667 120H190.745V136H170.667V120ZM200.784 120H220.863V136H200.784V120ZM230.902 120H250.98V136H230.902V120ZM471.843 120H491.922V136H471.843V120ZM501.961 120H512V136H501.961V120Z" fill="#4ACFD9"/>
<path fill-rule="evenodd" clip-rule="evenodd" d="M443 127.5C443 81.3842 405.616 44 359.5 44C313.384 44 276 81.3842 276 127.5C276 173.616 313.384 211 359.5 211C405.616 211 443 173.616 443 127.5ZM359.5 60C396.779 60 427 90.2208 427 127.5C427 164.779 396.779 195 359.5 195C322.221 195 292 164.779 292 127.5C292 90.2208 322.221 60 359.5 60Z" fill="#0295AA"/>
<path fill-rule="evenodd" clip-rule="evenodd" d="M359.5 115C366.404 115 372 120.596 372 127.5C372 134.404 366.404 140 359.5 140C352.596 140 347 134.404 347 127.5C347 120.596 352.596 115 359.5 115ZM359.5 95C377.449 95 392 109.551 392 127.5C392 145.449 377.449 160 359.5 160C341.551 160 327 145.449 327 127.5C327 109.551 341.551 95 359.5 95ZM407 127.5C407 101.266 385.734 80 359.5 80C333.266 80 312 101.266 312 127.5C312 153.734 333.266 175 359.5 175C385.734 175 407 153.734 407 127.5Z" fill="#4ACFD9"/>
<path fill-rule="evenodd" clip-rule="evenodd" d="M372 127.5C372 120.596 366.404 115 359.5 115C352.596 115 347 120.596 347 127.5C347 134.404 352.596 140 359.5 140C366.404 140 372 134.404 372 127.5Z" fill="#BCD643"/>
</svg>
