<?xml version="1.0" encoding="utf-8"?>
<!-- Generator: Adobe Illustrator 19.0.0, SVG Export Plug-In . SVG Version: 6.00 Build 0)  -->
<svg version="1.1" id="Layer_1" xmlns="http://www.w3.org/2000/svg" xmlns:xlink="http://www.w3.org/1999/xlink" x="0px" y="0px"
	 viewBox="96 11 512 512" style="enable-background:new 96 11 512 512;" xml:space="preserve">
<style type="text/css">
	.st0{fill:#BCD643;}
	.st1{fill:#FD6A33;}
	.st2{fill:#FF8C29;}
	.st3{fill:#9BAAAB;}
	.st4{fill:#CDD4D5;}
	.st5{fill:#E6EAEA;}
	.st6{fill:#FFFFFF;}
	.st7{fill:#FFD1A9;}
	.st8{fill:#E34C40;}
	.st9{fill:#365558;}
	.st10{fill:#0295AA;}
	.st11{fill:#4ACFD9;}
	.st12{fill:#F0353D;}
	.st13{fill:none;stroke:#E6EAEA;stroke-width:10;stroke-linecap:round;stroke-linejoin:round;stroke-miterlimit:10;}
</style>
<path class="st0" d="M582,11H352v512h230c14.4,0,26-11.6,26-26V37C608,22.6,596.4,11,582,11z"/>
<path class="st0" d="M122,11c-14.4,0-26,11.6-26,26v460c0,14.4,11.6,26,26,26h230V11H122z"/>
<g>
	<path class="st1" d="M175.4,310.1c0,44.3,35.9,80.2,80.2,80.2V229.9C211.3,229.9,175.4,265.8,175.4,310.1z"/>
	<path class="st2" d="M335.8,310.1c0-44.3-35.9-80.2-80.2-80.2v160.5C299.9,390.3,335.8,354.4,335.8,310.1z"/>
	<path class="st3" d="M205.4,310.1c0,27.7,22.5,50.2,50.2,50.2V259.9C227.9,259.9,205.4,282.4,205.4,310.1z"/>
	<path class="st4" d="M305.8,310.1c0-27.7-22.5-50.2-50.2-50.2v100.5C283.3,360.3,305.8,337.8,305.8,310.1z"/>
	<path class="st5" d="M215.4,310.1c0,22.2,18,40.2,40.2,40.2v-80.5C233.4,269.9,215.4,287.9,215.4,310.1z"/>
	<path class="st6" d="M295.8,310.1c0-22.2-18-40.2-40.2-40.2v80.5C277.8,350.3,295.8,332.3,295.8,310.1z"/>
	<path class="st7" d="M255.5,229.9v24.9c3.1,0,5.7-2.5,5.7-5.7v-18.6c0-0.2,0-0.3,0-0.4C259.3,230,257.4,229.9,255.5,229.9z"/>
	<path class="st2" d="M250.5,230c0,0.2,0,0.4,0,0.5v18.6c0,2.9,2.2,5.4,5.1,5.6v-24.9C253.9,229.9,252.2,229.9,250.5,230z"/>
	<path class="st1" d="M255.7,365.9v24.4c1.9,0,3.8-0.1,5.7-0.2v-18.5C261.3,368.5,258.8,365.9,255.7,365.9z"/>
	<path class="st7" d="M250.5,371.6v18.6c1.7,0.1,3.4,0.2,5.1,0.2V366C252.7,366.2,250.5,368.7,250.5,371.6z"/>
	<path class="st7" d="M195,304.4h-18.6c-0.3,0-0.5,0-0.8,0.1c-0.1,1.9-0.2,3.7-0.2,5.6h25.2C200.6,307,198.1,304.4,195,304.4z"/>
	<path class="st2" d="M195,315.8c3.1,0,5.7-2.5,5.7-5.7h-25.2c0,1.9,0.1,3.8,0.2,5.6c0.3,0,0.5,0.1,0.8,0.1H195z"/>
	<path class="st1" d="M317.4,304.4c-3.1,0-5.7,2.5-5.7,5.7h24.1l0,0c0-1.9-0.1-3.8-0.2-5.7H317.4z"/>
	<path class="st7" d="M317.4,315.8h18.2c0.1-1.9,0.2-3.8,0.2-5.7h-24.1C311.7,313.2,314.3,315.8,317.4,315.8z"/>
	<path class="st7" d="M216.9,262.8l-13.1-13.1c-0.1-0.1-0.3-0.2-0.5-0.4c-1.4,1.2-2.8,2.5-4.1,3.8l17.7,17.7
		C219.1,268.6,219.1,265,216.9,262.8z"/>
	<path class="st2" d="M208.9,270.8c2.2,2.2,5.8,2.2,8,0l-17.7-17.7c-1.3,1.3-2.6,2.7-3.8,4.1c0.1,0.2,0.3,0.3,0.4,0.5L208.9,270.8z"
		/>
	<path class="st1" d="M295.4,349.4l17.2,17.2c1.3-1.3,2.6-2.7,3.8-4.2l-13-13C301.2,347.2,297.6,347.2,295.4,349.4z"/>
	<path class="st7" d="M295.4,357.4l13,13c1.4-1.2,2.8-2.5,4.1-3.9l-17.2-17.2C293.2,351.6,293.2,355.2,295.4,357.4z"/>
	<path class="st7" d="M208.7,349.2l-13.1,13.1c-0.2,0.2-0.3,0.3-0.4,0.5c1.2,1.4,2.5,2.8,3.8,4.1l17.7-17.7
		C214.5,347,210.9,347,208.7,349.2z"/>
	<path class="st2" d="M216.7,357.2c2.2-2.2,2.2-5.8,0-8L199,366.9c1.3,1.3,2.7,2.6,4.1,3.8c0.2-0.1,0.3-0.2,0.5-0.4L216.7,357.2z"/>
	<path class="st1" d="M295.2,262.6c-2.2,2.2-2.2,5.8,0,8l17.2-17.2c-1.3-1.3-2.7-2.6-4.2-3.9L295.2,262.6z"/>
	<path class="st7" d="M295.2,270.6c2.2,2.2,5.8,2.2,8,0l13-13c-1.2-1.4-2.5-2.8-3.8-4.2L295.2,270.6z"/>
	<path class="st7" d="M238,251.4l-7.1-17.2c-0.1-0.1-0.1-0.3-0.2-0.4c-1.8,0.6-3.6,1.2-5.3,1.9l9.5,23
		C237.8,257.6,239.2,254.3,238,251.4z"/>
	<path class="st2" d="M227.5,255.7c1.2,2.9,4.5,4.3,7.4,3.1l-9.5-23c-1.7,0.7-3.5,1.5-5.2,2.3c0,0.2,0.1,0.3,0.2,0.5L227.5,255.7z"
		/>
	<path class="st1" d="M277.4,361.4l9.4,22.6c1.7-0.7,3.5-1.6,5.1-2.4l-7.1-17.1C283.6,361.6,280.3,360.2,277.4,361.4z"/>
	<path class="st7" d="M274.4,368.8l7.1,17.2l0,0c1.8-0.6,3.6-1.3,5.3-2l-9.4-22.6C274.5,362.6,273.2,365.9,274.4,368.8z"/>
	<path class="st7" d="M197.3,328l-17.2,7.1c-0.2,0.1-0.5,0.2-0.7,0.3c0.6,1.8,1.2,3.5,2,5.3l23.3-9.6
		C203.6,328.2,200.2,326.8,197.3,328z"/>
	<path class="st2" d="M201.7,338.5c2.9-1.2,4.3-4.5,3.1-7.4l-23.3,9.6c0.7,1.7,1.5,3.4,2.3,5.1c0.2-0.1,0.5-0.1,0.7-0.2L201.7,338.5
		z"/>
	<path class="st1" d="M310.4,281.2c-2.9,1.2-4.3,4.5-3.1,7.4l22.3-9.3c-0.7-1.8-1.5-3.5-2.4-5.2L310.4,281.2z"/>
	<path class="st7" d="M307.4,288.6c1.2,2.9,4.5,4.3,7.4,3.1l16.9-7c-0.6-1.8-1.3-3.6-2-5.3L307.4,288.6z"/>
	<path class="st7" d="M201.7,281.2l-17.2-7.1c-0.2-0.1-0.3-0.1-0.5-0.2c-0.8,1.7-1.7,3.4-2.4,5.1l23.1,9.6
		C205.9,285.7,204.6,282.4,201.7,281.2z"/>
	<path class="st2" d="M197.3,291.7c2.9,1.2,6.2-0.2,7.4-3.1l-23.1-9.6c-0.7,1.7-1.4,3.5-2,5.3c0.2,0.1,0.3,0.2,0.5,0.3L197.3,291.7z
		"/>
	<path class="st1" d="M307.4,331.1l22.5,9.3c0.7-1.7,1.4-3.5,2-5.3l-17.1-7.1C311.9,326.8,308.6,328.2,307.4,331.1z"/>
	<path class="st7" d="M310.4,338.5l17.1,7.1c0.8-1.7,1.6-3.4,2.3-5.2l-22.5-9.3C306.2,334,307.6,337.3,310.4,338.5z"/>
	<path class="st7" d="M227.1,364.1l-7.1,17.2c-0.1,0.2-0.2,0.4-0.2,0.6c1.7,0.8,3.4,1.6,5.1,2.3l9.7-23.1
		C231.7,359.9,228.3,361.2,227.1,364.1z"/>
	<path class="st2" d="M237.6,368.5c1.2-2.9-0.2-6.2-3.1-7.4l-9.6,23.2c1.7,0.7,3.5,1.4,5.3,2c0.1-0.2,0.2-0.4,0.3-0.6L237.6,368.5z"
		/>
	<path class="st1" d="M274,251c-1.2,2.9,0.2,6.2,3.1,7.4l9.3-22.4c-1.7-0.7-3.5-1.4-5.3-2L274,251z"/>
	<path class="st7" d="M277.1,258.4c2.9,1.2,6.2-0.2,7.4-3.1l7-17c-1.7-0.8-3.4-1.6-5.2-2.4L277.1,258.4z"/>
	<g>
		<path id="XMLID_4_" class="st8" d="M250.1,317.7c1-0.3,7.4,0.7,8.2,1.3c2.7,1.9,6.6,2.9,8.2,1s-0.1-5.3-2.6-7.8
			c-0.7-0.8-3.2-6.7-3-7.7c0.4-3.3-0.7-7.3-3.2-7.7c-2.5-0.4-4.8,3.1-5.4,6.1c-0.2,1-4.3,6.1-5.3,6.5c-3,1.4-5.8,4.3-4.9,6.6
			C243.1,318.4,247.2,318.6,250.1,317.7z"/>
		<path id="XMLID_3_" class="st8" d="M261.2,283.4c4,0.2,5.7,8.3,5,14.7c-0.2,2,4.5,13.5,5.4,15.4c0.6,1.1,1.5,2,2.6,2.6
			c-3.1-8.3-3.3-15-2.7-16.5c2.6-7.2,1.5-16.9-2.4-19.1c-2.6-1.5-8.4-2.1-12.1,3.9C258.2,283.5,259.7,283.2,261.2,283.4z"/>
		<path id="XMLID_2_" class="st8" d="M229.1,318.2c-1.9-3.6,4.4-9.1,10.2-11.8c1.9-0.8,9.4-10.7,10.6-12.3c0.7-1.1,1-2.3,1-3.6
			c-5.7,6.8-11.3,10.3-12.9,10.6c-7.5,1.3-15.4,7.2-15.4,11.7c0,3,2.4,8.3,9.4,8.5C230.7,320.7,229.7,319.6,229.1,318.2z"/>
		<path id="XMLID_1_" class="st8" d="M275.5,329.3c-2.2,3.4-10.1,0.8-15.3-3c-1.7-1.2-14-2.9-16-3c-1.3-0.1-2.5,0.3-3.6,1
			c8.7,1.5,14.6,4.6,15.7,5.8c4.9,5.9,13.9,9.7,17.8,7.5c2.6-1.5,6-6.2,2.7-12.4C276.9,326.6,276.5,328.1,275.5,329.3z"/>
	</g>
</g>
<g>
	<path class="st1" d="M398.3,253.4c-31.3,31.3-31.3,82.1,0,113.4l113.4-113.4C480.4,222.1,429.6,222.1,398.3,253.4z"/>
	<path class="st2" d="M398.2,366.9c31.4,31.3,82.2,31.3,113.5-0.1s31.3-82.1,0-113.4L398.2,366.9z"/>
	<path class="st3" d="M419.5,274.6c-19.6,19.6-19.6,51.4,0,71l71-71C470.9,255,439.1,255,419.5,274.6z"/>
	<path class="st4" d="M419.4,345.7c19.7,19.5,51.5,19.5,71.1-0.1c19.6-19.6,19.6-51.4,0-71L419.4,345.7z"/>
	<path class="st5" d="M426.6,281.7c-15.7,15.7-15.7,41.2,0,56.9l56.9-56.9C467.7,266,442.3,266,426.6,281.7z"/>
	<path class="st6" d="M426.5,338.6c15.8,15.6,41.2,15.6,56.9-0.1c15.7-15.7,15.7-41.2,0-56.9L426.5,338.6z"/>
	<path class="st7" d="M494,271c2.2,2.2,5.8,2.3,8.1,0l13.2-13.2c0.1-0.1,0.2-0.2,0.3-0.3c-1.3-1.4-2.5-2.8-3.9-4.2L494,271z"/>
	<path class="st2" d="M507.7,250.2l-13.2,13.2c-2.1,2.1-2.3,5.4-0.4,7.6l17.6-17.6c-1.3-1.1-2.5-2.3-3.7-3.5
		C507.9,250,507.8,250.2,507.7,250.2z"/>
	<path class="st1" d="M398.4,366.9c1.3,1.3,2.8,2.6,4.2,3.9l13.1-13.1c2.1-2.3,2.2-5.9,0-8.1L398.4,366.9z"/>
	<path class="st7" d="M407.9,350l-13.2,13.2c1.1,1.3,2.3,2.5,3.5,3.7l17.3-17.3C413.3,347.7,410,348,407.9,350z"/>
	<path class="st7" d="M403,250.1c-0.2-0.2-0.4-0.4-0.6-0.5c-1.4,1.3-2.8,2.5-4.1,3.8l17.8,17.8c2.2-2.2,2.3-5.8,0.1-8L403,250.1z"/>
	<path class="st2" d="M394.6,257.6c0.2,0.2,0.3,0.4,0.5,0.6l13.1,13.1c2.2,2.2,5.8,2.3,8.1,0l-17.8-17.8
		C397,254.8,395.8,256.2,394.6,257.6z"/>
	<path class="st1" d="M494.7,349.8l17,17c1.3-1.3,2.6-2.8,3.9-4.2l-12.9-12.9C500.6,347.6,496.9,347.5,494.7,349.8z"/>
	<path class="st7" d="M494.7,357.9l12.9,12.9c1.4-1.3,2.8-2.5,4.2-3.9l-17-17C492.5,352,492.5,355.7,494.7,357.9z"/>
	<path class="st7" d="M455.4,229.9v25c3.1,0,5.7-2.5,5.7-5.7v-18.5c0-0.1-0.1-0.4-0.1-0.6C459.2,230,457.3,229.9,455.4,229.9z"/>
	<path class="st2" d="M449.8,230.8v18.5c0,3.1,2.5,5.7,5.7,5.7l0-25c-1.8,0-3.7,0.1-5.6,0.2C449.8,230.4,449.9,230.6,449.8,230.8z"
		/>
	<path class="st1" d="M455.4,366.1v24.3c1.8,0,3.7-0.1,5.7-0.3v-18.4C461,368.6,458.5,366.1,455.4,366.1z"/>
	<path class="st7" d="M449.7,371.7v18.4c1.8,0.1,3.7,0.2,5.7,0.1v-24.3C452.3,366.1,449.7,368.6,449.7,371.7z"/>
	<path class="st7" d="M394.2,304.6h-18.5c-0.3,0-0.4,0-0.6,0.1c-0.1,1.8-0.2,3.7-0.2,5.6h25C399.9,307.2,397.3,304.6,394.2,304.6z"
		/>
	<path class="st2" d="M375,315.9c0.2,0.1,0.4,0.1,0.6,0.1h18.5c3.1,0,5.7-2.5,5.7-5.7h-25C374.8,312.1,374.9,314,375,315.9z"/>
	<path class="st1" d="M516.6,304.5c-3.1,0-5.7,2.5-5.7,5.7l24.3,0c0-1.8-0.1-3.7-0.2-5.7L516.6,304.5z"/>
	<path class="st7" d="M516.6,315.9H535c0.1-1.8,0.2-3.7,0.3-5.7l-24.3,0C510.9,313.3,513.5,315.9,516.6,315.9z"/>
	<path class="st7" d="M476.7,259.1c2.8,1.3,6.2-0.1,7.4-3l7.1-17.2c0-0.1,0.1-0.3,0.1-0.4c-1.7-0.8-3.4-1.7-5.1-2.4L476.7,259.1z"/>
	<path class="st2" d="M480.7,234.7l-7.1,17.1c-1.2,2.9,0.1,6.2,3,7.4l9.5-23c-1.7-0.7-3.5-1.4-5.3-2.1
		C480.8,234.3,480.8,234.5,480.7,234.7z"/>
	<path class="st1" d="M434.2,361.8l-9.3,22.6c1.7,0.7,3.6,1.3,5.3,1.9l7.1-17.1C438.4,366.3,437.1,363,434.2,361.8z"/>
	<path class="st7" d="M426.8,364.9l-7.1,17.2c1.7,0.8,3.5,1.6,5.2,2.3l9.3-22.6C431.3,360.6,428,362,426.8,364.9z"/>
	<path class="st7" d="M401.1,281.6l-17.2-7.1c-0.2-0.1-0.5-0.2-0.7-0.3c-0.8,1.7-1.6,3.3-2.3,5.2l23.3,9.7
		C405.4,286.2,404,282.8,401.1,281.6z"/>
	<path class="st2" d="M379,284.6c0.2,0.1,0.4,0.3,0.6,0.4l17.2,7.1c2.9,1.2,6.2-0.1,7.4-3l-23.3-9.7
		C380.3,281.1,379.6,282.8,379,284.6z"/>
	<path class="st1" d="M506.8,331.5l22.3,9.2c0.8-1.8,1.4-3.5,2-5.4l-16.9-6.9C511.3,327.2,508,328.6,506.8,331.5z"/>
	<path class="st7" d="M509.9,339l16.9,7c0.8-1.7,1.6-3.5,2.3-5.2l-22.3-9.3C505.6,334.4,507,337.8,509.9,339z"/>
	<path class="st7" d="M430.2,234.4c-0.1-0.2-0.1-0.3-0.2-0.5c-1.8,0.6-3.6,1.2-5.3,1.9l9.5,23.1c2.9-1.2,4.3-4.5,3.1-7.4
		L430.2,234.4z"/>
	<path class="st2" d="M419.5,238.1c0.1,0.2,0.1,0.4,0.1,0.6l7.1,17.2c1.2,2.9,4.5,4.2,7.4,3l-9.5-23.1
		C423,236.5,421.2,237.3,419.5,238.1z"/>
	<path class="st1" d="M476.8,361.6l9.3,22.5c1.7-0.7,3.5-1.5,5.2-2.3l-7.1-17.1C483,361.7,479.7,360.4,476.8,361.6z"/>
	<path class="st7" d="M473.7,369l7.1,17.1c1.8-0.6,3.5-1.3,5.3-2.1l-9.3-22.5C473.9,362.8,472.6,366.1,473.7,369z"/>
	<path class="st7" d="M396.7,328.2l-17.2,7.1c-0.2,0.1-0.4,0.1-0.6,0.3c0.6,1.8,1.3,3.5,2,5.2l23.2-9.5
		C402.9,328.4,399.6,327,396.7,328.2z"/>
	<path class="st2" d="M380.8,340.9c0.7,1.7,1.5,3.5,2.3,5.2c0.2-0.1,0.4-0.1,0.6-0.2l17.2-7.1c2.9-1.2,4.2-4.5,3-7.4L380.8,340.9z"
		/>
	<path class="st1" d="M509.8,281.3c-2.9,1.2-4.2,4.5-3,7.4l22.4-9.3c-0.7-1.7-1.5-3.5-2.3-5.2L509.8,281.3z"/>
	<path class="st7" d="M506.8,288.8c1.2,2.9,4.5,4.2,7.4,3l17-7.1c-0.6-1.8-1.3-3.5-2-5.4L506.8,288.8z"/>
	<g>
		<path class="st8" d="M457.8,302.7c-0.8,0.6-7.4,1.3-8.3,0.8c-3.1-1.1-7.1-1.1-8.1,1.2c-1,2.4,1.8,5.4,4.5,6.9
			c0.9,0.5,4.7,5.7,4.9,6.7c0.6,3.3,2.6,6.7,5.1,6.5c2.5-0.2,3.7-3.8,3.7-7.4c0.1-1.1,2.5-7,3.3-7.6c2.6-2.1,4.7-5.7,3.2-7.7
			C464.4,300.2,460.3,301,457.8,302.7z"/>
		<path class="st8" d="M474.2,292.9c1.5,0.2,2.8,1.1,3.7,2.3c2.7,3-1.8,9.9-6.9,13.9c-1.6,1.3-6.4,12.7-7.1,14.7
			c-0.4,1.2-0.4,2.5,0,3.7c3.7-8.1,8.3-12.9,9.8-13.6c6.9-3.3,13-10.9,11.8-15.2C484.7,295.8,481,291.3,474.2,292.9z"/>
		<path class="st8" d="M448.9,291.3c-6.2-4.4-16-5.8-19.2-2.6c-2.1,2.1-4.2,7.6,0.6,12.7c-0.5-1.3-0.4-2.8,0.1-4.2
			c1.2-3.9,9.5-3.3,15.6-1.1c1.9,0.8,14.2-0.9,16.2-1.2c1.3-0.3,2.3-0.9,3.3-1.8C456.7,293.7,450.3,292.2,448.9,291.3z"/>
		<path class="st8" d="M455.5,337.8c-4,0.8-7.7-6.6-8.7-12.9c-0.4-2.1-7.8-12-9.2-13.4c-0.8-1-2-1.6-3.3-1.8
			c5.1,7.2,7.1,13.6,7,15.2c-0.7,7.6,3,16.7,7.3,17.9c2.9,0.8,8.6-0.1,10.7-6.9C458.4,336.9,457.1,337.6,455.5,337.8z"/>
	</g>
</g>
<path class="st1" d="M348.1,378.5c-44.1,3.9-76.7,42.8-72.9,86.9c2.1,23.9,14.5,44.4,32.4,57.6h53.2L348.1,378.5z"/>
<path class="st2" d="M435,451.4c-3.9-44.1-42.8-76.7-86.9-72.9L360.8,523h41.9C424.4,506.9,437.5,480.3,435,451.4z"/>
<path class="st3" d="M305.1,462.8c2.4,27.6,26.8,48,54.4,45.6l-8.8-100C323.1,410.8,302.7,435.2,305.1,462.8z"/>
<path class="st4" d="M405.1,454c-2.4-27.6-26.8-48-54.4-45.6l8.8,100.1C387.1,506,407.5,481.6,405.1,454z"/>
<path class="st5" d="M315.1,461.9c1.9,22.1,21.5,38.5,43.6,36.5l-7-80.2C329.5,420.3,313.1,439.8,315.1,461.9z"/>
<path class="st6" d="M395.1,454.9c-1.9-22.1-21.5-38.5-43.6-36.5l7,80.2C380.7,496.5,397.1,477,395.1,454.9z"/>
<path class="st7" d="M348,378.5l2.2,24.8c3.1-0.3,5.5-3,5.2-6.2l-1.6-18.5c0-0.2,0-0.3,0-0.4C351.8,378.3,349.9,378.3,348,378.5z"/>
<path class="st2" d="M343,379c0,0.2,0,0.4,0,0.5l1.6,18.5c0.3,2.9,2.7,5.2,5.6,5.1l-2.2-24.8C346.4,378.6,344.7,378.8,343,379z"/>
<path class="st1" d="M366.3,519.1c-0.4-3.1-3.1-5.5-6.2-5.2l0.8,9h5.7L366.3,519.1z"/>
<path class="st7" d="M360,514.1c-2.9,0.5-4.8,3.1-4.6,6l0.3,2.9h5.1L360,514.1z"/>
<path class="st7" d="M294.2,458l-18.5,1.6c-0.3,0-0.5,0-0.8,0.2c0.1,1.9,0.1,3.7,0.3,5.6l25.1-2.2C300,460.1,297.3,457.7,294.2,458z
	"/>
<path class="st2" d="M295.2,469.4c3.1-0.3,5.5-3,5.2-6.2l-25.1,2.2c0.2,1.9,0.4,3.8,0.7,5.6c0.3,0,0.5,0.1,0.8,0L295.2,469.4z"/>
<path class="st1" d="M416.2,447.3c-3.1,0.3-5.5,3-5.2,6.2l24-2.1l0,0c-0.2-1.9-0.4-3.8-0.7-5.7L416.2,447.3z"/>
<path class="st7" d="M417.2,458.6l18.1-1.6c-0.1-1.9-0.1-3.8-0.3-5.7l-24,2.1C411.3,456.6,414.1,458.9,417.2,458.6z"/>
<path class="st7" d="M312.4,414.7l-14.2-11.9c-0.1-0.1-0.3-0.2-0.5-0.4c-1.3,1.3-2.6,2.7-3.8,4.1l19.2,16.1
	C315.1,420.2,314.8,416.7,312.4,414.7z"/>
<path class="st2" d="M305.1,423.3c2.4,2,6,1.7,8-0.7l-19.2-16.1c-1.2,1.4-2.4,2.9-3.4,4.4c0.1,0.2,0.3,0.3,0.4,0.5L305.1,423.3z"/>
<path class="st1" d="M398.2,494l18.6,15.6c1.2-1.4,2.4-2.9,3.4-4.5l-14.1-11.8C403.8,491.3,400.2,491.7,398.2,494z"/>
<path class="st7" d="M398.9,502l14.1,11.8c1.3-1.3,2.6-2.7,3.7-4.2L398.1,494C396.2,496.4,396.5,500,398.9,502z"/>
<path class="st7" d="M311.8,501.4l-11.9,14.2c-0.2,0.2-0.3,0.3-0.4,0.5c1.3,1.3,2.7,2.6,4.1,3.8l16.1-19.2
	C317.4,498.7,313.8,499.1,311.8,501.4z"/>
<path class="st2" d="M308.6,522.9l11.9-14.2c2-2.4,1.7-6-0.7-8l-16.1,19.2c1.3,1.1,2.6,2.1,4,3.1L308.6,522.9
	C308.5,523,308.5,522.9,308.6,522.9z"/>
<path class="st2" d="M308.5,523h-0.8c0.2,0.1,0.3,0.2,0.5,0.3C308.3,523.3,308.4,523.1,308.5,523z"/>
<path class="st1" d="M390.4,407.6c-2,2.4-1.7,6,0.7,8l15.6-18.6c-1.4-1.2-2.9-2.4-4.5-3.5L390.4,407.6z"/>
<path class="st7" d="M391.1,415.6c2.4,2,6,1.7,8-0.7l11.8-14.1c-1.3-1.3-2.7-2.6-4.2-3.9L391.1,415.6z"/>
<path class="st7" d="M332.4,401.4l-8.6-16.5c-0.1-0.1-0.1-0.3-0.2-0.4c-1.7,0.8-3.5,1.5-5.1,2.4L330,409
	C332.8,407.6,333.9,404.2,332.4,401.4z"/>
<path class="st2" d="M322.3,406.7c1.4,2.8,4.9,3.9,7.6,2.4L318.5,387c-1.6,0.8-3.4,1.8-5,2.7c0,0.2,0.1,0.3,0.2,0.5L322.3,406.7z"/>
<path class="st1" d="M389,510c-1.4-2.8-4.9-3.9-7.6-2.4l8.1,15.4h6.4L389,510z"/>
<path class="st7" d="M381.3,507.6c-2.8,1.4-3.8,4.9-2.3,7.6l4,7.8h6.4L381.3,507.6z"/>
<path class="st7" d="M298.6,481.3l-16.5,8.6c-0.2,0.1-0.5,0.2-0.7,0.4c0.8,1.7,1.5,3.4,2.5,5.1l22.4-11.6
	C304.9,481,301.4,479.9,298.6,481.3z"/>
<path class="st2" d="M303.9,491.4c2.8-1.4,3.9-4.9,2.4-7.6L284,495.4c0.8,1.6,1.8,3.3,2.7,4.9c0.2-0.1,0.5-0.1,0.7-0.3L303.9,491.4z
	"/>
<path class="st1" d="M407.2,424.8c-2.8,1.4-3.9,4.9-2.4,7.6l21.4-11.2c-0.9-1.7-1.8-3.4-2.8-5L407.2,424.8z"/>
<path class="st7" d="M404.8,432.4c1.4,2.8,4.9,3.9,7.6,2.4l16.2-8.5c-0.8-1.7-1.6-3.5-2.5-5.1L404.8,432.4z"/>
<path class="st7" d="M298.9,434.3l-17.8-5.6c-0.2-0.1-0.3-0.1-0.5-0.2c-0.6,1.8-1.4,3.5-1.9,5.3l23.9,7.5
	C303.5,438.4,301.9,435.3,298.9,434.3z"/>
<path class="st2" d="M295.4,445.2c3,0.9,6.2-0.7,7.1-3.7l-23.9-7.5c-0.5,1.8-1.1,3.6-1.5,5.5c0.2,0.1,0.3,0.2,0.5,0.3L295.4,445.2z"
	/>
<path class="st1" d="M408.5,474.8l23.2,7.3c0.5-1.8,1.1-3.6,1.5-5.5l-17.7-5.6C412.6,470.1,409.5,471.8,408.5,474.8z"/>
<path class="st7" d="M412.2,481.9l17.7,5.6c0.6-1.8,1.3-3.5,1.8-5.4l-23.2-7.3C407.6,477.8,409.3,480.9,412.2,481.9z"/>
<path class="st7" d="M338.6,511c-3-0.9-6.3,0.7-7.2,3.6l-2.6,8.3h6L338.6,511z"/>
<path class="st2" d="M342.3,518.1c0.9-3-0.7-6.2-3.7-7.1l-3.8,12h6L342.3,518.1z"/>
<path class="st1" d="M368.3,397.9c-0.9,3,0.7,6.2,3.7,7.1l7.3-23.1c-1.8-0.5-3.6-1.1-5.5-1.5L368.3,397.9z"/>
<path class="st7" d="M372,405c3,0.9,6.2-0.7,7.1-3.7l5.5-17.5c-1.8-0.6-3.5-1.3-5.4-1.9L372,405z"/>
<g>
	<path id="XMLID_12_" class="st8" d="M350.3,466.4c1-0.4,7.4,0,8.3,0.6c2.9,1.7,6.8,2.3,8.3,0.3c1.4-2-0.6-5.3-3.3-7.5
		c-0.8-0.7-3.8-6.4-3.7-7.4c0.1-3.3-1.3-7.2-3.9-7.4s-4.5,3.5-4.8,6.5c-0.1,1-3.7,6.5-4.7,6.9c-2.9,1.7-5.4,4.8-4.3,7
		C343.4,467.7,347.5,467.6,350.3,466.4z"/>
	<path id="XMLID_11_" class="st8" d="M358.3,431.3c4-0.2,6.4,7.8,6.3,14.2c0,2,5.7,13.1,6.7,14.9c0.7,1,1.7,1.9,2.8,2.4
		c-3.8-8-4.6-14.7-4.1-16.2c2-7.4,0-17-4.1-18.8c-2.7-1.3-8.6-1.4-11.7,4.9C355.4,431.7,356.8,431.2,358.3,431.3z"/>
	<path id="XMLID_10_" class="st8" d="M329.4,468.8c-2.2-3.4,3.6-9.5,9.1-12.6c1.8-1,8.4-11.5,9.5-13.2c0.6-1.2,0.8-2.4,0.7-3.7
		c-5.1,7.3-10.4,11.3-11.9,11.7c-7.4,2-14.7,8.5-14.3,13c0.3,3,3.1,8.1,10.1,7.6C331.2,471.1,330.1,470.1,329.4,468.8z"/>
	<path id="XMLID_9_" class="st8" d="M376.6,475.8c-1.9,3.6-10,1.7-15.5-1.6c-1.8-1-14.2-1.7-16.2-1.6c-1.3,0-2.5,0.5-3.5,1.3
		c8.8,0.7,14.9,3.3,16.1,4.4c5.4,5.4,14.7,8.4,18.4,5.9c2.5-1.7,5.4-6.7,1.6-12.6C377.8,473,377.5,474.5,376.6,475.8z"/>
</g>
<path class="st9" d="M155,184c-5.2,0-14.5,7.9-14.5,17.5S149.8,219,155,219h197v-35H155z"/>
<path class="st10" d="M563.5,201.5c0-9.6-9.3-17.5-14.5-17.5H352v35h197C554.2,219,563.5,211.1,563.5,201.5z"/>
<path class="st10" d="M352,200h-12.5c-9.3,0-16.9,4.7-16.9,10.5V523H352V200z"/>
<path class="st11" d="M381.4,210.5c0-5.8-7.6-10.5-16.9-10.5H352v323h29.4V210.5z"/>
<rect x="-462" y="11" class="st12" width="128" height="128"/>
<rect x="-334" y="11" class="st1" width="128" height="128"/>
<rect x="-206" y="11" class="st2" width="128" height="128"/>
<rect x="-78" y="11" class="st7" width="128" height="128"/>
<rect x="-462" y="139" class="st9" width="128" height="128"/>
<rect x="-334" y="139" class="st10" width="128" height="128"/>
<rect x="-206" y="139" class="st11" width="128" height="128"/>
<rect x="-462" y="267" class="st3" width="128" height="128"/>
<rect x="-334" y="267" class="st4" width="128" height="128"/>
<rect x="-206" y="267" class="st5" width="128" height="128"/>
<rect x="-78" y="267" class="st6" width="128" height="128"/>
<rect x="-462" y="395" class="st0" width="128" height="128"/>
<path class="st1" d="M172.4,391.7c-44.1,3.9-76.7,42.8-72.9,86.9c1.5,17,8.2,32.2,18.3,44.4h66.1L172.4,391.7z"/>
<path class="st2" d="M259.3,464.6c-3.9-44.1-42.8-76.7-86.9-72.9L183.9,523H241C254.1,507.3,261.2,486.6,259.3,464.6z"/>
<path class="st3" d="M129.4,476c2.4,27.6,26.8,48,54.4,45.6l-8.8-100C147.4,424,126.9,448.4,129.4,476z"/>
<path class="st4" d="M229.4,467.2c-2.4-27.6-26.8-48-54.4-45.6l8.8,100.1C211.4,519.2,231.8,494.8,229.4,467.2z"/>
<path class="st5" d="M139.3,475.1c1.9,22.1,21.5,38.5,43.6,36.5l-7-80.2C153.7,433.5,137.4,453,139.3,475.1z"/>
<path class="st6" d="M219.4,468.1c-1.9-22.1-21.5-38.5-43.6-36.5l7,80.2C205,509.7,221.4,490.2,219.4,468.1z"/>
<path class="st7" d="M172.3,391.7l2.2,24.8c3.1-0.3,5.5-3,5.2-6.2l-1.6-18.5c0-0.2,0-0.3,0-0.4C176.1,391.5,174.2,391.6,172.3,391.7
	z"/>
<path class="st2" d="M167.3,392.3c0,0.2,0,0.4,0,0.5l1.6,18.5c0.3,2.9,2.7,5.2,5.6,5.1l-2.2-24.8C170.7,391.9,169,392,167.3,392.3z"
	/>
<path class="st7" d="M118.5,471.2l-18.5,1.6c-0.3,0-0.5,0-0.8,0.2c0.1,1.9,0.1,3.7,0.3,5.6l25.1-2.2
	C124.3,473.3,121.6,471,118.5,471.2z"/>
<path class="st2" d="M119.5,482.6c3.1-0.3,5.5-3,5.2-6.2l-25.1,2.2c0.2,1.9,0.4,3.8,0.7,5.6c0.3,0,0.5,0.1,0.8,0L119.5,482.6z"/>
<path class="st1" d="M240.4,460.5c-3.1,0.3-5.5,3-5.2,6.2l24-2.1l0,0c-0.2-1.9-0.4-3.8-0.7-5.7L240.4,460.5z"/>
<path class="st7" d="M241.4,471.9l18.1-1.6c-0.1-1.9-0.1-3.8-0.3-5.7l-24,2.1C235.5,469.8,238.4,472.1,241.4,471.9z"/>
<path class="st7" d="M136.7,427.9L122.5,416c-0.1-0.1-0.3-0.2-0.5-0.4c-1.3,1.3-2.6,2.7-3.8,4.1l19.2,16.1
	C139.4,433.5,139.1,429.9,136.7,427.9z"/>
<path class="st2" d="M129.4,436.6c2.4,2,6,1.7,8-0.7l-19.2-16.1c-1.2,1.4-2.4,2.9-3.4,4.4c0.1,0.2,0.3,0.3,0.4,0.5L129.4,436.6z"/>
<path class="st1" d="M222.5,507.3l18.6,15.6c1.2-1.4,2.4-2.9,3.4-4.5l-14.1-11.8C228.1,504.6,224.5,504.9,222.5,507.3z"/>
<path class="st7" d="M241,522.8l-18.6-15.6c-1.9,2.5-1.6,6.1,0.8,8.1l9.2,7.8h8.4C240.9,522.9,241,522.9,241,522.8z"/>
<path class="st7" d="M144.1,514c-2.4-2-6-1.7-8,0.7l-7,8.3h7.4L144.1,514z"/>
<path class="st2" d="M144.8,521.9c2-2.4,1.7-6-0.7-8l-7.6,9h7.4L144.8,521.9z"/>
<path class="st1" d="M214.7,420.8c-2,2.4-1.7,6,0.7,8l15.6-18.6c-1.4-1.2-2.9-2.4-4.5-3.5L214.7,420.8z"/>
<path class="st7" d="M215.4,428.8c2.4,2,6,1.7,8-0.7l11.8-14.1c-1.3-1.3-2.7-2.6-4.2-3.9L215.4,428.8z"/>
<path class="st7" d="M156.7,414.7l-8.6-16.5c-0.1-0.1-0.1-0.3-0.2-0.4c-1.7,0.8-3.5,1.5-5.1,2.4l11.5,22.1
	C157.1,420.9,158.2,417.5,156.7,414.7z"/>
<path class="st2" d="M146.6,419.9c1.4,2.8,4.9,3.9,7.6,2.4l-11.5-22.1c-1.6,0.8-3.4,1.8-5,2.7c0,0.2,0.1,0.3,0.2,0.5L146.6,419.9z"
	/>
<path class="st1" d="M205.6,520.8l1.1,2.2h6.4C211.6,520.4,208.3,519.4,205.6,520.8z"/>
<path class="st7" d="M205.6,520.8c-1,0.5-1.8,1.3-2.3,2.2h3.4L205.6,520.8z"/>
<path class="st7" d="M122.9,494.5l-16.5,8.6c-0.2,0.1-0.5,0.2-0.7,0.4c0.8,1.7,1.5,3.4,2.5,5.1l22.4-11.6
	C129.2,494.2,125.7,493.1,122.9,494.5z"/>
<path class="st2" d="M128.2,504.6c2.8-1.4,3.9-4.9,2.4-7.6l-22.4,11.6c0.8,1.6,1.8,3.3,2.7,4.9c0.2-0.1,0.5-0.1,0.7-0.3L128.2,504.6
	z"/>
<path class="st1" d="M231.4,438c-2.8,1.4-3.9,4.9-2.4,7.6l21.4-11.2c-0.9-1.7-1.8-3.4-2.8-5L231.4,438z"/>
<path class="st7" d="M229.1,445.7c1.4,2.8,4.9,3.9,7.6,2.4l16.2-8.5c-0.8-1.7-1.6-3.5-2.5-5.1L229.1,445.7z"/>
<path class="st7" d="M123.2,447.5l-17.8-5.6c-0.2-0.1-0.3-0.1-0.5-0.2c-0.6,1.8-1.4,3.5-1.9,5.3l23.9,7.5
	C127.7,451.7,126.2,448.5,123.2,447.5z"/>
<path class="st2" d="M119.7,458.4c3,0.9,6.2-0.7,7.1-3.7l-23.9-7.5c-0.5,1.8-1.1,3.6-1.5,5.5c0.2,0.1,0.3,0.2,0.5,0.3L119.7,458.4z"
	/>
<path class="st1" d="M232.8,488l23.2,7.3c0.5-1.8,1.1-3.6,1.5-5.5l-17.7-5.6C236.9,483.3,233.8,485,232.8,488z"/>
<path class="st7" d="M236.5,495.1l17.7,5.6c0.6-1.8,1.3-3.5,1.8-5.4l-23.2-7.3C231.9,491,233.6,494.2,236.5,495.1z"/>
<path class="st1" d="M192.5,411.1c-0.9,3,0.7,6.2,3.7,7.1l7.3-23.1c-1.8-0.5-3.6-1.1-5.5-1.5L192.5,411.1z"/>
<path class="st7" d="M196.3,418.2c3,0.9,6.2-0.7,7.1-3.7l5.5-17.5c-1.8-0.6-3.5-1.3-5.4-1.9L196.3,418.2z"/>
<g>
	<path id="XMLID_8_" class="st8" d="M174.6,479.7c1-0.4,7.4,0,8.3,0.6c2.9,1.7,6.8,2.3,8.3,0.3c1.4-2-0.6-5.3-3.3-7.5
		c-0.8-0.7-3.8-6.4-3.7-7.4c0.1-3.3-1.3-7.2-3.9-7.4c-2.5-0.2-4.5,3.5-4.8,6.5c-0.1,1-3.7,6.5-4.7,6.9c-2.9,1.7-5.4,4.8-4.3,7
		C167.7,481,171.8,480.8,174.6,479.7z"/>
	<path id="XMLID_7_" class="st8" d="M182.6,444.5c4-0.2,6.4,7.8,6.3,14.2c0,2,5.7,13.1,6.7,14.9c0.7,1,1.7,1.9,2.8,2.4
		c-3.8-8-4.6-14.7-4.1-16.2c2-7.4,0-17-4.1-18.8c-2.7-1.3-8.6-1.4-11.7,4.9C179.6,444.9,181.1,444.5,182.6,444.5z"/>
	<path id="XMLID_6_" class="st8" d="M153.7,482c-2.2-3.4,3.6-9.5,9.1-12.6c1.8-1,8.4-11.5,9.5-13.2c0.6-1.2,0.8-2.4,0.7-3.7
		c-5.1,7.3-10.4,11.3-11.9,11.7c-7.4,2-14.7,8.5-14.3,13c0.3,3,3.1,8.1,10.1,7.6C155.5,484.4,154.4,483.3,153.7,482z"/>
	<path id="XMLID_5_" class="st8" d="M200.9,489c-1.9,3.6-10,1.7-15.5-1.6c-1.8-1-14.2-1.7-16.2-1.6c-1.3,0-2.5,0.5-3.5,1.3
		c8.8,0.7,14.9,3.3,16.1,4.4c5.4,5.4,14.7,8.4,18.4,5.9c2.5-1.7,5.4-6.7,1.6-12.6C202,486.2,201.8,487.7,200.9,489z"/>
</g>
<path class="st1" d="M504.8,461.7c-35.3,3.1-63.2,28.6-71,61.3h76.4L504.8,461.7z"/>
<path class="st2" d="M504.8,461.7l5.4,61.3h79.6C580.8,484.9,544.9,458.2,504.8,461.7z"/>
<path class="st3" d="M507.4,491.6c-19.5,1.7-35.4,14.4-42.2,31.4h45L507.4,491.6z"/>
<path class="st4" d="M507.4,491.6l2.8,31.4h48.3C550.4,502.9,530,489.6,507.4,491.6z"/>
<path class="st5" d="M508.3,501.4c-14.2,1.3-26,9.8-32.1,21.6h34L508.3,501.4z"/>
<path class="st6" d="M508.3,501.5l1.9,21.5h37.3C540.1,509,525,500.1,508.3,501.5z"/>
<path class="st7" d="M504.7,461.7l2.2,24.8c3.1-0.3,5.5-3,5.2-6.2l-1.6-18.5c0-0.2,0-0.3,0-0.4C508.5,461.5,506.6,461.5,504.7,461.7
	z"/>
<path class="st2" d="M499.7,462.2c0,0.2,0,0.4,0,0.5l1.6,18.5c0.3,2.9,2.7,5.2,5.6,5.1l-2.2-24.8C503.1,461.8,501.4,462,499.7,462.2
	z"/>
<path class="st7" d="M469.1,497.9L454.9,486c-0.1-0.1-0.3-0.2-0.5-0.4c-1.3,1.3-2.6,2.7-3.8,4.1l19.2,16.1
	C471.8,503.4,471.5,499.9,469.1,497.9z"/>
<path class="st2" d="M461.8,506.5c2.4,2,6,1.7,8-0.7l-19.2-16.1c-1.2,1.4-2.4,2.9-3.4,4.4c0.1,0.2,0.3,0.3,0.4,0.5L461.8,506.5z"/>
<path class="st1" d="M547.1,490.8c-2,2.4-1.7,6,0.7,8l15.6-18.6c-1.4-1.2-2.9-2.4-4.5-3.5L547.1,490.8z"/>
<path class="st7" d="M547.8,498.8c2.4,2,6,1.7,8-0.7l11.8-14.1c-1.3-1.3-2.7-2.6-4.2-3.9L547.8,498.8z"/>
<path class="st7" d="M489.1,484.7l-8.6-16.5c-0.1-0.1-0.1-0.3-0.2-0.4c-1.7,0.8-3.5,1.5-5.1,2.4l11.5,22.1
	C489.5,490.8,490.6,487.4,489.1,484.7z"/>
<path class="st2" d="M479,489.9c1.4,2.8,4.9,3.9,7.6,2.4l-11.5-22.1c-1.6,0.8-3.4,1.8-5,2.7c0,0.2,0.1,0.3,0.2,0.5L479,489.9z"/>
<path class="st1" d="M563.9,508c-2.8,1.4-3.9,4.9-2.4,7.6l21.4-11.2c-0.9-1.7-1.8-3.4-2.8-5L563.9,508z"/>
<path class="st7" d="M561.5,515.6c1.4,2.8,4.9,3.9,7.6,2.4l16.2-8.5c-0.8-1.7-1.6-3.5-2.5-5.1L561.5,515.6z"/>
<path class="st7" d="M455.6,517.5l-17.8-5.6c-0.2-0.1-0.3-0.1-0.5-0.2c-0.6,1.8-1.4,3.5-1.9,5.3l18.7,5.9h5.4
	C459.5,520.6,458,518.3,455.6,517.5z"/>
<path class="st7" d="M459.5,523h-5.4l5.1,1.6C459.4,524.1,459.5,523.5,459.5,523z"/>
<path class="st2" d="M435.4,517.1c-0.5,1.8-1.1,3.6-1.5,5.5c0.2,0.1,0.3,0.2,0.5,0.3l0.6,0.2h19.1L435.4,517.1z"/>
<path class="st1" d="M524.9,481.1c-0.9,3,0.7,6.2,3.7,7.1l7.3-23.1c-1.8-0.5-3.6-1.1-5.5-1.5L524.9,481.1z"/>
<path class="st7" d="M528.7,488.2c3,0.9,6.2-0.7,7.1-3.7l5.5-17.5c-1.8-0.6-3.5-1.3-5.4-1.9L528.7,488.2z"/>
<path class="st8" d="M522.7,510.9c-2.7-1.3-8.6-1.4-11.7,4.9c1.1-1,2.6-1.4,4.1-1.4c2.8-0.1,4.9,3.9,5.8,8.5h6.7
	C527.4,517.4,525.5,512.2,522.7,510.9z"/>
<path class="st8" d="M505.4,522.5c-0.1,0.2-0.3,0.3-0.4,0.5h0.4C505.4,522.8,505.4,522.7,505.4,522.5z"/>
<line class="st13" x1="366.7" y1="224" x2="366.7" y2="305.9"/>
<path class="st11" d="M543.3,196.5H351.8v10h191.6c2.8,0,5-2.2,5-5S546.1,196.5,543.3,196.5z"/>
<path class="st10" d="M158.7,196.5c-2.8,0-5,2.2-5,5s2.2,5,5,5h193.1v-10H158.7z"/>
</svg>
