<?xml version="1.0" encoding="utf-8"?>
<!-- Generator: Adobe Illustrator 19.0.0, SVG Export Plug-In . SVG Version: 6.00 Build 0)  -->
<svg version="1.1" id="Layer_1" xmlns="http://www.w3.org/2000/svg" xmlns:xlink="http://www.w3.org/1999/xlink" x="0px" y="0px"
	 viewBox="96 11 512 512" style="enable-background:new 96 11 512 512;" xml:space="preserve">
<style type="text/css">
	.st0{fill:#FD6A33;}
	.st1{fill:#FF8C29;}
	.st2{fill:#FFD1A9;}
	.st3{fill:#E6EAEA;}
	.st4{fill:#CDD4D5;}
	.st5{fill:#F0353D;}
	.st6{fill:#365558;}
	.st7{fill:#0295AA;}
	.st8{fill:#4ACFD9;}
	.st9{fill:#9BAAAB;}
	.st10{fill:#FFFFFF;}
	.st11{fill:#BCD643;}
	.st12{display:none;}
	.st13{display:inline;fill:#FF8C29;}
	.st14{display:inline;fill:#FD6A33;}
	.st15{display:inline;fill:#4ACFD9;}
	.st16{display:inline;fill:#0295AA;}
</style>
<path class="st0" d="M352,523v-81c-43.3,0-82.9-15.7-113.4-41.8L115.8,523H352z"/>
<path class="st0" d="M352,11H115.8l122.8,122.8C269.1,107.7,308.7,92,352,92V11z"/>
<path class="st0" d="M96,503.2l122.8-122.8c-26-30.5-41.8-70.2-41.8-113.4s15.7-82.9,41.8-113.4L96,30.8V503.2z"/>
<path class="st1" d="M352,442v81h236.2L465.4,400.2C434.9,426.3,395.3,442,352,442z"/>
<path class="st1" d="M352,11v81c43.3,0,82.9,15.7,113.4,41.8L588.2,11H352z"/>
<path class="st1" d="M485.2,153.6c26,30.5,41.8,70.2,41.8,113.4s-15.7,82.9-41.8,113.4L608,503.2V30.8L485.2,153.6z"/>
<path class="st2" d="M452.6,11H352v81c43.3,0,82.9,15.7,113.4,41.8l70.9-70.9C512,40.9,483.7,23.2,452.6,11z"/>
<path class="st2" d="M485.2,153.6c26,30.5,41.8,70.2,41.8,113.4s-15.7,82.9-41.8,113.4l70.9,70.9c22-24.3,39.7-52.6,51.9-83.7V166.4
	c-12.2-31-29.9-59.3-51.9-83.7L485.2,153.6z"/>
<path class="st2" d="M352,442v81h100.6c31-12.2,59.3-29.9,83.7-51.9l-70.9-70.9C434.9,426.3,395.3,442,352,442z"/>
<path class="st3" d="M527,267c0,96.5-78.5,175-175,175C448.6,442,527,363.6,527,267z"/>
<path class="st3" d="M527,267c0-96.6-78.4-175-175-175C448.5,92,527,170.5,527,267z"/>
<path class="st1" d="M251.4,523H352v-81c-43.3,0-82.9-15.7-113.4-41.8l-70.9,70.9C192,493.1,220.3,510.8,251.4,523z"/>
<path class="st1" d="M96,166.4v201.3c12.2,31,29.9,59.3,51.9,83.7l70.9-70.9c-26-30.5-41.8-70.2-41.8-113.4s15.7-82.9,41.8-113.4
	l-70.9-70.9C125.9,107,108.2,135.3,96,166.4z"/>
<path class="st1" d="M352,11H251.4c-31,12.2-59.3,29.9-83.7,51.9l70.9,70.9C269.1,107.7,308.7,92,352,92V11z"/>
<path class="st4" d="M177,267c0-96.5,78.5-175,175-175C255.4,92,177,170.4,177,267z"/>
<path class="st4" d="M177,267c0,96.6,78.4,175,175,175C255.5,442,177,363.5,177,267z"/>
<rect x="-521" y="-27" class="st5" width="128" height="128"/>
<rect x="-393" y="-27" class="st0" width="128" height="128"/>
<rect x="-265" y="-27" class="st1" width="128" height="128"/>
<rect x="-137" y="-27" class="st2" width="128" height="128"/>
<rect x="-521" y="101" class="st6" width="128" height="128"/>
<rect x="-393" y="101" class="st7" width="128" height="128"/>
<rect x="-265" y="101" class="st8" width="128" height="128"/>
<rect x="-521" y="229" class="st9" width="128" height="128"/>
<rect x="-393" y="229" class="st4" width="128" height="128"/>
<rect x="-265" y="229" class="st3" width="128" height="128"/>
<rect x="-137" y="229" class="st10" width="128" height="128"/>
<rect x="-521" y="357" class="st11" width="128" height="128"/>
<g class="st12">
	<path class="st13" d="M366.4,405.9l-0.3,0c-4.7,0.5-9.4,0.7-14.1,0.7V427c5.3,0,10.8-0.3,16.1-0.8l0.3,0c5.6-0.6,9.7-5.5,9.1-11.1
		C376.9,409.5,371.9,405.4,366.4,405.9z"/>
	<path class="st13" d="M444.7,136.7c-8.5-6.1-17.7-11.3-27.2-15.6c-5.1-2.3-11.1,0-13.4,5.1c-2.3,5.1,0,11.1,5.1,13.4
		c8.3,3.7,16.3,8.3,23.7,13.6c1.8,1.3,3.8,1.9,5.9,1.9c3.2,0,6.3-1.5,8.3-4.3C450.3,146.2,449.2,139.9,444.7,136.7z"/>
	<path class="st13" d="M367.1,107.7c-5-0.5-10-0.7-15.1-0.7v20.3c4.4,0,8.8,0.2,13.2,0.6c5.6,0.5,10.5-3.6,11.1-9.2
		C376.8,113.2,372.7,108.2,367.1,107.7z"/>
	<path class="st13" d="M433.8,380.2c-7.4,5.4-15.3,10-23.6,13.8c-5.1,2.3-7.3,8.4-5,13.5c1.7,3.7,5.4,5.9,9.2,5.9
		c1.4,0,2.9-0.3,4.2-0.9c9.5-4.4,18.6-9.7,27.1-15.8c4.5-3.3,5.6-9.6,2.3-14.2C444.7,377.9,438.4,376.9,433.8,380.2z"/>
	<path class="st13" d="M511.2,250.9l0-0.2c-0.6-5.6-5.6-9.6-11.1-9c-5.6,0.6-9.6,5.6-9.1,11.2c0,0,0,0.1,0,0.1
		c0.5,4.7,0.7,9.5,0.7,14.2c0,4.3-0.2,8.7-0.6,13c-0.5,5.6,3.6,10.5,9.2,11.1c0.3,0,0.6,0,1,0c5.2,0,9.6-3.9,10.1-9.2
		c0.5-4.9,0.7-9.9,0.7-14.9C512,261.7,511.7,256.3,511.2,250.9z"/>
	<path class="st13" d="M492.9,319c-5.1-2.3-11.1,0-13.4,5.1c-3.7,8.3-8.3,16.3-13.6,23.8c-3.3,4.6-2.2,10.9,2.4,14.2
		c1.8,1.3,3.8,1.9,5.9,1.9c3.2,0,6.3-1.5,8.3-4.3c6.1-8.5,11.3-17.7,15.6-27.2C500.3,327.3,498,321.3,492.9,319z"/>
	<path class="st13" d="M497.5,200.4c-4.4-9.5-9.7-18.6-15.8-27.1c-3.3-4.5-9.6-5.6-14.2-2.3c-4.5,3.3-5.6,9.6-2.3,14.2
		c5.4,7.4,10,15.3,13.8,23.6c1.7,3.7,5.4,5.9,9.2,5.9c1.4,0,2.9-0.3,4.2-0.9C497.6,211.5,499.8,205.5,497.5,200.4z"/>
	<path class="st14" d="M235.9,171.9c-4.6-3.3-10.9-2.2-14.2,2.4c-6.1,8.5-11.3,17.7-15.6,27.2c-2.3,5.1,0,11.1,5.1,13.4
		c1.4,0.6,2.8,0.9,4.2,0.9c3.9,0,7.6-2.2,9.3-6c3.7-8.3,8.3-16.3,13.6-23.7C241.5,181.5,240.4,175.2,235.9,171.9z"/>
	<path class="st14" d="M213,281c-0.5-4.7-0.7-9.4-0.7-14.1c0-4.4,0.2-8.8,0.6-13.1c0.5-5.6-3.6-10.5-9.2-11.1
		c-5.6-0.5-10.5,3.6-11.1,9.2c-0.5,5-0.7,10-0.7,15c0,5.4,0.3,10.8,0.8,16.2c0,0,0,0.1,0,0.1l10.1-1.1l-10.1,1.1
		c0.6,5.2,5,9.1,10.1,9.1c0.4,0,0.7,0,1.1-0.1C209.6,291.7,213.6,286.6,213,281C213,281.1,213,281,213,281z"/>
	<path class="st14" d="M336.8,117.9l-1-10.1c-5.6,0.6-9.7,5.5-9.1,11.1c0.5,5.2,4.9,9.1,10.1,9.1c0.3,0,0.7,0,1-0.1l0.1,0
		c4.7-0.5,9.4-0.7,14.1-0.7V107c-5.4,0-10.8,0.3-16.2,0.8L336.8,117.9z"/>
	<path class="st14" d="M327.6,415.2c-0.5,5.6,3.6,10.5,9.1,11.1c5,0.5,10.1,0.7,15.1,0.7c0,0,0.1,0,0.1,0v-20.3
		c-4.5,0-8.9-0.2-13.3-0.6C333.1,405.5,328.2,409.6,327.6,415.2z"/>
	<path class="st14" d="M294.8,394.4c-8.3-3.8-16.3-8.3-23.7-13.7c-4.6-3.3-10.9-2.2-14.2,2.4c-3.3,4.6-2.2,10.9,2.4,14.2
		c8.5,6.1,17.7,11.3,27.2,15.6c1.4,0.6,2.8,0.9,4.2,0.9c3.9,0,7.6-2.2,9.3-6C302.1,402.7,299.9,396.7,294.8,394.4z"/>
	<path class="st14" d="M285.5,121.5c-9.5,4.3-18.6,9.7-27.1,15.8c-4.5,3.3-5.6,9.6-2.3,14.2c2,2.7,5.1,4.2,8.2,4.2
		c2.1,0,4.1-0.6,6-1.9c7.4-5.4,15.4-10,23.6-13.8c5.1-2.3,7.3-8.4,5-13.5C296.6,121.4,290.6,119.2,285.5,121.5z"/>
	<path class="st14" d="M224.9,325c-2.3-5.1-8.4-7.3-13.5-5c-5.1,2.3-7.3,8.4-5,13.5c4.3,9.5,9.7,18.6,15.8,27.1
		c2,2.7,5.1,4.2,8.2,4.2c2.1,0,4.1-0.6,5.9-1.9c4.5-3.3,5.6-9.6,2.3-14.2C233.4,341.3,228.7,333.3,224.9,325z"/>
</g>
<g class="st12">
	<path class="st15" d="M400.7,75.6c0.8,0.2,1.7,0.3,2.5,0.3c4.5,0,8.5-3,9.7-7.5c1.4-5.3-1.9-10.8-7.2-12.2
		c-17.5-4.5-35.6-6.8-53.7-6.8c0,0,0,0-0.1,0v20c0,0,0,0,0.1,0C368.5,69.5,384.8,71.5,400.7,75.6z"/>
	<path class="st15" d="M408.1,477.1c5.3-1.4,8.5-6.9,7.1-12.2c-1.4-5.3-6.9-8.5-12.2-7.1c-3.6,1-7.3,1.8-11,2.6
		c-13.2,2.7-26.6,4.1-40,4.1v20c14.7,0,29.5-1.5,44-4.5C400.1,479.2,404.1,478.2,408.1,477.1z"/>
	<path class="st15" d="M562.9,213.9c-1.3-5.4-6.8-8.6-12.1-7.3c-5.4,1.3-8.6,6.8-7.3,12.1c0.7,2.7,1.3,5.5,1.9,8.3
		c2.7,13.2,4.1,26.7,4.1,40c0,15.5-1.8,30.9-5.5,46c-1.3,5.4,2,10.8,7.4,12.1c0.8,0.2,1.6,0.3,2.4,0.3c4.5,0,8.6-3.1,9.7-7.7
		c4-16.6,6-33.6,6-50.6c0-14.7-1.5-29.6-4.5-44.1C564.4,220,563.7,216.9,562.9,213.9z"/>
	<path class="st15" d="M464.9,81.2c-4.7-2.9-10.9-1.4-13.7,3.4c-2.9,4.7-1.4,10.9,3.3,13.7c27.2,16.5,50.3,39.6,66.6,66.7
		c1.9,3.1,5.2,4.8,8.6,4.8c1.8,0,3.5-0.5,5.2-1.4c4.7-2.9,6.2-9,3.4-13.7C520.2,124.8,494.8,99.4,464.9,81.2z"/>
	<path class="st15" d="M535.9,363.5c-4.8-2.8-10.9-1.2-13.7,3.5c-16.2,27.4-38.9,50.8-65.7,67.6c-4.7,2.9-6.1,9.1-3.2,13.8
		c1.9,3,5.2,4.7,8.5,4.7c1.8,0,3.6-0.5,5.3-1.5c29.6-18.5,54.6-44.2,72.4-74.4C542.2,372.5,540.6,366.3,535.9,363.5z"/>
	<path class="st16" d="M154.3,203.3c-5.3-1.5-10.8,1.7-12.3,7c-5,18.5-7.6,37.5-7.6,56.7c0,14.7,1.5,29.6,4.5,44.1
		c0.2,1,0.4,2,0.7,3c1,4.7,5.2,7.8,9.8,7.8c0.7,0,1.4-0.1,2.2-0.2c5.4-1.2,8.8-6.5,7.6-11.9c-0.2-0.9-0.4-1.8-0.6-2.8
		c-2.7-13.2-4.1-26.7-4.1-40c0-17.3,2.3-34.6,6.9-51.4C162.8,210.2,159.6,204.7,154.3,203.3z"/>
	<path class="st16" d="M301.9,55.3c-5.4,1.3-8.7,6.7-7.4,12c1.3,5.4,6.7,8.7,12,7.4c1.8-0.4,3.7-0.8,5.5-1.2
		c13.2-2.7,26.6-4.1,40-4.1v-20c-14.7,0-29.5,1.5-44,4.5C306,54.4,303.9,54.9,301.9,55.3z"/>
	<path class="st16" d="M297.8,456.9c-5.3-1.5-10.8,1.5-12.4,6.9c-1.5,5.3,1.5,10.8,6.9,12.4c19.4,5.6,39.5,8.4,59.7,8.4
		c0,0,0,0,0.1,0v-20c0,0,0,0-0.1,0C333.6,464.5,315.4,462,297.8,456.9z"/>
	<path class="st16" d="M184.8,162.1c16.9-27,40.3-49.7,67.6-65.7c4.8-2.8,6.4-8.9,3.6-13.7c-2.8-4.8-8.9-6.4-13.7-3.6
		c-30.1,17.6-55.8,42.6-74.4,72.3c-2.9,4.7-1.5,10.9,3.2,13.8c1.7,1,3.5,1.5,5.3,1.5C179.6,166.8,182.9,165.1,184.8,162.1z"/>
	<path class="st16" d="M244.7,432.7c-26.7-17.3-49.1-41-64.7-68.5c-2.7-4.8-8.8-6.5-13.6-3.8c-4.8,2.7-6.5,8.8-3.8,13.6
		c17.2,30.3,41.8,56.4,71.2,75.5c1.7,1.1,3.6,1.6,5.4,1.6c3.3,0,6.5-1.6,8.4-4.6C250.7,441.9,249.4,435.7,244.7,432.7z"/>
</g>
<path class="st1" d="M499.5,267c0-81.5-66-147.5-147.5-147.5v295C433.5,414.5,499.5,348.5,499.5,267z"/>
<path class="st0" d="M204.5,267c0,81.5,66,147.5,147.5,147.5v-295C270.5,119.5,204.5,185.5,204.5,267z"/>
<g>
	<path class="st8" d="M581.5,204.9c0-97.7-45.3-177-101.2-177s-93.5,79.2-93.5,177c0,44.4,24.7,98,49.6,134.5h109.8
		C567.8,306.9,581.5,258.7,581.5,204.9z"/>
	<path class="st7" d="M441.6,329.3c-22.3-33.9-44.9-83-44.9-124.5c0-95.2,35.9-167,83.6-167c23.3,0,45.6,16.6,62.9,46.8
		c18.3,31.9,28.3,74.6,28.3,120.2c0,47.6-11.2,92.6-30.9,124.5H441.6z"/>
	<path class="st8" d="M419.9,417.9c0,48.7,24.8,88.2,66.3,88.2s68.7-39.5,68.7-88.2c0-16-3-31-8.4-44H427.6
		C422.6,386.9,419.9,401.9,419.9,417.9z"/>
	<path class="st7" d="M486.2,496.1c-20.8,0-33.5-11.8-40.6-21.6c-10.1-14.2-15.7-34.3-15.7-56.6c0-12,1.7-23.6,4.9-34h104.8
		c3.5,10.4,5.3,22,5.3,34C544.9,463.2,520.2,496.1,486.2,496.1z"/>
</g>
<g>
	<path class="st7" d="M122.5,204.9c0-97.7,45.3-177,101.2-177s93.5,79.2,93.5,177c0,44.4-24.7,98-49.6,134.5H157.9
		C136.2,306.9,122.5,258.7,122.5,204.9z"/>
	<path class="st6" d="M163.4,329.3c-19.7-31.9-30.9-76.9-30.9-124.5c0-45.6,10.1-88.2,28.3-120.2c17.3-30.2,39.6-46.8,62.9-46.8
		c47.6,0,83.5,71.8,83.5,167c0,41.4-22.7,90.6-44.9,124.5H163.4z"/>
	<path class="st7" d="M284.1,417.9c0,48.7-24.8,88.2-66.3,88.2s-68.7-39.5-68.7-88.2c0-16,3-31,8.4-44h118.9
		C281.4,386.9,284.1,401.9,284.1,417.9z"/>
	<path class="st6" d="M217.8,496.1c-34,0-58.7-32.9-58.7-78.2c0-12,1.8-23.6,5.3-34h104.8c3.2,10.3,4.9,22,4.9,34
		c0,22.3-5.6,42.4-15.7,56.6C251.4,484.4,238.6,496.1,217.8,496.1z"/>
</g>
</svg>
