<?xml version="1.0" encoding="utf-8"?>
<!-- Generator: Adobe Illustrator 19.0.0, SVG Export Plug-In . SVG Version: 6.00 Build 0)  -->
<svg version="1.1" id="Layer_1" xmlns="http://www.w3.org/2000/svg" xmlns:xlink="http://www.w3.org/1999/xlink" x="0px" y="0px"
	 viewBox="96 11 512 512" style="enable-background:new 96 11 512 512;" xml:space="preserve">
<style type="text/css">
	.st0{fill:#4ACFD9;}
	.st1{fill:#0295AA;}
	.st2{fill:#365558;}
	.st3{fill:#BCD643;}
</style>
<polygon class="st0" points="96,11 96,487.5 215.5,312.1 263,344.4 263,11 "/>
<polygon class="st0" points="264,11 263,11 263,344.4 264,345.1 "/>
<polygon class="st0" points="236.6,423 168.4,523 263,523 263,441.1 "/>
<polygon class="st0" points="264,441.8 263,441.1 263,523 264,523 "/>
<polygon class="st0" points="340.2,493.7 273,447.9 273,523 434,523 434,356.1 "/>
<polygon class="st0" points="435,354.7 434,356.1 434,523 435,523 "/>
<polygon class="st0" points="337.6,480.5 273,435.8 273,447.9 340.2,493.7 434,356.1 434,338.4 "/>
<polygon class="st0" points="435,336.9 434,338.4 434,356.1 435,354.7 "/>
<polygon class="st0" points="608,11 444,11 444,120.1 590.6,53 578.3,258.6 525.2,222.3 444,341.5 444,523 608,523 "/>
<polygon class="st0" points="403.3,138.8 434,124.7 434,11 273,11 273,351.3 319.2,382.8 434,214.4 434,159.8 "/>
<polygon class="st0" points="435,124.2 435,11 434,11 434,124.7 "/>
<polygon class="st0" points="435,160.5 434,159.8 434,214.4 435,212.9 "/>
<polygon class="st0" points="319.2,382.8 273,351.3 273,363.6 321.8,396.2 434,231.5 434,214.4 "/>
<polygon class="st0" points="435,212.9 434,214.4 434,231.5 435,230.1 "/>
<polygon class="st0" points="423.2,140.3 434,135.4 434,124.7 403.3,138.8 434,159.8 434,147.6 "/>
<polygon class="st0" points="435,134.9 435,124.2 434,124.7 434,135.4 "/>
<polygon class="st0" points="435,148.3 434,147.6 434,159.8 435,160.5 "/>
<polygon class="st0" points="459.4,177.2 444,166.7 444,199.7 "/>
<polygon class="st1" points="96,11 96,487.5 215.5,312.1 263,344.4 263,11 "/>
<polygon class="st1" points="264,11 263,11 263,344.4 264,345.1 "/>
<polygon class="st1" points="236.6,423 168.4,523 263,523 263,441.1 "/>
<polygon class="st1" points="264,441.8 263,441.1 263,523 264,523 "/>
<polygon class="st1" points="340.2,493.7 273,447.9 273,523 434,523 434,356.1 "/>
<polygon class="st1" points="435,354.7 434,356.1 434,523 435,523 "/>
<polygon class="st1" points="435,336.9 434,338.4 434,356.1 435,354.7 "/>
<polygon class="st1" points="403.3,138.8 434,124.7 434,11 273,11 273,351.3 319.2,382.8 434,214.4 434,159.8 "/>
<polygon class="st1" points="435,124.2 435,11 434,11 434,124.7 "/>
<polygon class="st1" points="435,160.5 434,159.8 434,214.4 435,212.9 "/>
<polygon class="st1" points="435,212.9 434,214.4 434,231.5 435,230.1 "/>
<polygon class="st1" points="435,134.9 435,124.2 434,124.7 434,135.4 "/>
<polygon class="st1" points="435,148.3 434,147.6 434,159.8 435,160.5 "/>
<polygon class="st2" points="96,11 96,487.5 215.5,312.1 263,344.4 263,11 "/>
<polygon class="st2" points="264,11 263,11 263,344.4 264,345.1 "/>
<polygon class="st2" points="236.6,423 168.4,523 263,523 263,441.1 "/>
<polygon class="st2" points="264,441.8 263,441.1 263,523 264,523 "/>
<polygon class="st3" points="487.1,172 324.5,410.6 220.8,339.9 96,523 144.2,523 231.3,395.3 335,465.9 520,194.5 560.4,222.2 
	568.6,85 443.7,142.2 "/>
</svg>
