<?xml version="1.0" encoding="utf-8"?>
<!-- Generator: Adobe Illustrator 19.0.0, SVG Export Plug-In . SVG Version: 6.00 Build 0)  -->
<svg version="1.1" id="Layer_1" xmlns="http://www.w3.org/2000/svg" xmlns:xlink="http://www.w3.org/1999/xlink" x="0px" y="0px"
	 viewBox="96 11 512 512" style="enable-background:new 96 11 512 512;" xml:space="preserve">
<style type="text/css">
	.st0{display:none;fill:#0295AA;}
	.st1{fill:#0295AA;}
	.st2{fill:#4ACFD9;}
	.st3{fill:#FD6A33;}
	.st4{fill:#FF8C29;}
	.st5{fill:#E6EAEA;}
	.st6{fill:#CDD4D5;}
	.st7{fill:none;stroke:#FFD1A9;stroke-width:16;stroke-linecap:round;stroke-miterlimit:10;}
	.st8{fill:#F0353D;}
	.st9{fill:#FFD1A9;}
	.st10{fill:#365558;}
	.st11{fill:#9BAAAB;}
	.st12{fill:#FFFFFF;}
	.st13{fill:#BCD643;}
	.st14{fill:none;stroke:#FF8C29;stroke-width:15;stroke-linecap:round;stroke-miterlimit:10;}
	.st15{fill:none;stroke:#E6EAEA;stroke-width:15;stroke-linecap:round;stroke-miterlimit:10;}
	.st16{fill:none;stroke:#CDD4D5;stroke-width:15;stroke-linecap:round;stroke-miterlimit:10;}
</style>
<circle class="st0" cx="567.5" cy="62.2" r="188.5"/>
<path class="st1" d="M96,267c0,141.4,114.6,256,256,256V11C210.6,11,96,125.6,96,267z"/>
<path class="st2" d="M352,11v512c141.4,0,256-114.6,256-256S493.4,11,352,11z"/>
<path class="st3" d="M177,267c0,96.6,78.4,175,175,175V92C255.4,92,177,170.4,177,267z"/>
<path class="st4" d="M527,267c0-96.6-78.4-175-175-175v350C448.6,442,527,363.6,527,267z"/>
<path class="st2" d="M353,167c-55.1,0-100,44.9-100,100s44.9,100,100,100s100-44.9,100-100S408.1,167,353,167z"/>
<path class="st1" d="M253,267c0,54.9,44.4,99.5,99.1,100V167C297.4,167.5,253,212.1,253,267z"/>
<path class="st5" d="M352.8,183.4c-0.3,0-0.5,0-0.7,0v168.5c0.3,0,0.5,0,0.7,0c46.5,0,84.2-37.8,84.2-84.2S399.2,183.4,352.8,183.4z
	"/>
<path class="st6" d="M268.5,267.7c0,46.2,37.4,83.9,83.5,84.2V183.5C305.9,183.9,268.5,221.5,268.5,267.7z"/>
<path class="st4" d="M388.3,268.8c-1.5-4-3.7-6.9-6.6-8.7c-2.9-1.8-6.9-3-12-3.7l-17.5-2v22.8l4.2,0.6c3.2,0.4,5.5,0.8,6.7,1.2
	c1.2,0.4,2.1,1.2,2.5,2.2c0.4,1.1,0.6,2.9,0.6,5.5c0,2.8-0.4,4.7-1.1,6c-0.7,1.3-2.4,2.2-5,2.7c-1.8,0.4-4.5,0.6-8,0.7v35.4h8.5
	v-14.2c10-0.5,17.5-3,22.4-7.4c5-4.4,7.5-12.4,7.5-24C390.5,278.6,389.8,272.9,388.3,268.8z"/>
<path class="st4" d="M355.4,235.7c8.1,0,18,0.6,29.7,1.7v-19.8c-3-0.6-6.8-1.2-11.5-1.9c-4.7-0.6-9-1-13-1.1V200H352v35.7
	C353.1,235.7,354.2,235.7,355.4,235.7z"/>
<path class="st3" d="M347.2,296.2c-9.6,0-20.4-0.5-32.4-1.5v19.8c8.1,1.5,17.3,2.4,27.6,2.8v14.2h9.6v-35.4
	C350.6,296.2,349,296.2,347.2,296.2z"/>
<path class="st3" d="M342.5,214.7c-10.1,0.7-17.8,3.3-23,7.6c-5.3,4.4-7.9,11.7-7.9,22.1c0,9.2,1.5,16.3,4.6,21.1
	c3.1,4.9,9.1,7.9,18,9.2l17.8,2.4v-22.8l-6.8-0.8c-3.1-0.4-5.3-0.8-6.5-1.2c-1.2-0.4-2-1.2-2.3-2.2c-0.4-1.1-0.6-2.9-0.6-5.5
	c0-2.8,0.6-4.7,1.8-6c1.2-1.2,3.1-2.1,5.6-2.4c2-0.3,4.9-0.5,8.8-0.5V200h-9.6L342.5,214.7L342.5,214.7z"/>
<path class="st7" d="M393.5,132.2c35.2,10.8,64.6,35.1,82,66.8"/>
<rect x="-551.3" y="28" class="st8" width="128" height="128"/>
<rect x="-423.3" y="28" class="st3" width="128" height="128"/>
<rect x="-295.3" y="28" class="st4" width="128" height="128"/>
<rect x="-167.3" y="28" class="st9" width="128" height="128"/>
<rect x="-551.3" y="156" class="st10" width="128" height="128"/>
<rect x="-423.3" y="156" class="st1" width="128" height="128"/>
<rect x="-295.3" y="156" class="st2" width="128" height="128"/>
<rect x="-551.3" y="284" class="st11" width="128" height="128"/>
<rect x="-423.3" y="284" class="st6" width="128" height="128"/>
<rect x="-295.3" y="284" class="st5" width="128" height="128"/>
<rect x="-167.3" y="284" class="st12" width="128" height="128"/>
<rect x="-551.3" y="412" class="st13" width="128" height="128"/>
<path class="st14" d="M313.8,400.4c-35.2-10.8-64.6-35.1-82-66.8"/>
<path class="st15" d="M415,55.2c55.6,17.1,101.9,55.4,129.5,105.5"/>
<path class="st16" d="M289,478.8c-55.6-17.1-101.9-55.4-129.5-105.5"/>
</svg>
