<?xml version="1.0" encoding="utf-8"?>
<!-- Generator: Adobe Illustrator 19.0.0, SVG Export Plug-In . SVG Version: 6.00 Build 0)  -->
<svg version="1.1" id="Layer_1" xmlns="http://www.w3.org/2000/svg" xmlns:xlink="http://www.w3.org/1999/xlink" x="0px" y="0px"
	 viewBox="96 11 512 512" style="enable-background:new 96 11 512 512;" xml:space="preserve">
<style type="text/css">
	.st0{fill:#CDD4D5;}
	.st1{fill:#E6EAEA;}
	.st2{fill:#9BAAAB;}
	.st3{display:none;}
	.st4{fill:#4ACFD9;}
	.st5{fill:#0295AA;}
	.st6{fill:#365558;}
	.st7{fill:#F0353D;}
	.st8{fill:#FD6A33;}
	.st9{fill:#FF8C29;}
	.st10{fill:#FFD1A9;}
	.st11{fill:#FFFFFF;}
	.st12{fill:#BCD643;}
</style>
<path class="st0" d="M240.9,11C176.2,39.1,124.1,91.2,96,155.9V378c28.1,64.8,80.2,116.8,144.9,144.9H352V11H240.9z"/>
<path class="st1" d="M463.1,11H352v511.9h111c64.8-28,116.9-80.1,145-144.8V155.9C579.9,91.2,527.8,39.1,463.1,11z"/>
<path class="st2" d="M133.5,267c0,120.7,97.8,218.5,218.5,218.5v-437C231.3,48.5,133.5,146.3,133.5,267z"/>
<path class="st0" d="M570.5,267c0-120.7-97.8-218.5-218.5-218.5v437C472.7,485.5,570.5,387.7,570.5,267z"/>
<path class="st0" d="M193,267c0,87.8,71.2,159,159,159V108C264.2,108,193,179.2,193,267z"/>
<path class="st1" d="M511,267c0-87.8-71.2-159-159-159v318C439.8,426,511,354.8,511,267z"/>
<path class="st2" d="M254,267c0,54.1,43.9,98,98,98V169C297.9,169,254,212.9,254,267z"/>
<path class="st0" d="M450,267c0-54.1-43.9-98-98-98v196C406.1,365,450,321.1,450,267z"/>
<polygon class="st3" points="1260.7,-574 1002,-574 1002,-62 1514,-62 1514,-225.9 1260.7,-225.9 "/>
<rect x="1260.7" y="-574" class="st3" width="253.3" height="348.1"/>
<g class="st3">
	
		<text transform="matrix(1 0 0 1 1038.4224 -443.0488)" style="display:inline;fill:#CDD4D5; font-family:'Saira-Black'; font-size:64.1866px;">E = mc</text>
	
		<text transform="matrix(1 0 0 1 1231.1074 -464.4227)" style="display:inline;fill:#CDD4D5; font-family:'Saira-Black'; font-size:37.4208px;">2</text>
</g>
<g>
	<path class="st4" d="M471.6,15c-0.4,0.5-0.7,1-0.9,1.5c-1.5,3.6,0.4,8.2,5.2,13l15.9,15.9l41,40.8l40.8,41l15.9,15.9
		c4.8,4.8,9.4,6.7,13,5.2c0.5-0.2,1-0.5,1.5-0.9C576.4,89.5,529.5,42.6,471.6,15z"/>
	<path class="st4" d="M515,104l17.6-17.8l-28.8-28.8l-17.7,17.7H486L475.1,86c22.8,15.6,42.3,35.1,57.8,57.7l10.9-10.9v-0.1
		l17.7-17.7l-28.8-28.8L515,104z"/>
	<path class="st4" d="M431.8,129.6L387,174.4c26.5,10,47.6,31.1,57.6,57.6l44.8-44.8C475.5,163.4,455.6,143.5,431.8,129.6z"/>
	<path class="st4" d="M589.5,390.9l-15.9,15.9l-40.8,41l-41,40.8l-15.9,15.9c-4.8,4.8-6.7,9.4-5.2,13c0.2,0.5,0.5,1,0.9,1.5
		c57.9-27.6,104.8-74.5,132.4-132.4c-0.5-0.4-1-0.7-1.5-0.9C598.9,384.2,594.3,386.1,589.5,390.9z"/>
	<path class="st4" d="M543.9,401L543.9,401L533,390.1c-15.6,22.8-35.1,42.3-57.7,57.8l10.9,10.9h0.1l17.7,17.7l28.8-28.8L515,430
		v-0.1h0.1l17.7,17.7l28.8-28.8L543.9,401L543.9,401z"/>
	<path class="st4" d="M387,359.6l44.8,44.8c23.8-13.9,43.7-33.8,57.6-57.6L444.6,302C434.6,328.5,413.5,349.6,387,359.6z"/>
</g>
<g>
	<path class="st5" d="M582.7,11h-99.1c-5.8,0-10,1.4-12,4C529.5,42.6,576.4,89.5,604,147.4c2.6-2,4-6.2,4-12V36.3
		c0-6.8-2.7-13.1-7.3-18C595.8,13.7,589.5,11,582.7,11z"/>
	<path class="st5" d="M475.3,86.1l-43.4,43.4c23.8,13.9,43.7,33.8,57.6,57.6l43.4-43.4C517.5,121.1,497.9,101.5,475.3,86.1z"/>
	<path class="st5" d="M387,174.4l-5.9,5.9c-4.1,4.1-4.1,10.8,0,14.8l21.4,21.4l21.4,21.4c4,4.1,10.7,4.1,14.8,0l5.9-5.9
		C434.6,205.5,413.5,184.4,387,174.4z"/>
	<path class="st5" d="M604,386.6c-27.6,57.9-74.5,104.8-132.4,132.4c2,2.6,6.2,4,12,4h99.1c6.8,0,13.1-2.7,18-7.3
		c4.6-4.9,7.3-11.2,7.3-18v-99.1C608,392.8,606.6,388.6,604,386.6z"/>
	<path class="st5" d="M431.9,404.5l43.4,43.4c22.6-15.4,42.2-35,57.6-57.6l-43.4-43.4C475.6,370.7,455.7,390.6,431.9,404.5z"/>
	<path class="st5" d="M423.9,296.1l-21.4,21.4l-21.4,21.4c-4.1,4-4.1,10.7,0,14.8l5.9,5.9c26.5-10,47.6-31.1,57.6-57.6l-5.9-5.9
		C434.6,292,427.9,292,423.9,296.1z"/>
</g>
<g>
	<path class="st5" d="M217.7,75.2L200,57.5l-28.8,28.8L189,104v0.1h-0.1l-17.7-17.7l-28.8,28.8l17.7,17.7v0.1l10.9,10.9
		c15.6-22.8,35.1-42.3,57.7-57.8L217.7,75.2L217.7,75.2z"/>
	<path class="st5" d="M232.4,15C174.5,42.6,127.6,89.5,100,147.4c0.5,0.4,1,0.7,1.5,0.9c3.6,1.5,8.2-0.4,13-5.2l15.9-15.9l40.8-41
		l41-40.8l15.9-15.9c4.8-4.8,6.7-9.4,5.2-13C233.1,16,232.8,15.5,232.4,15z"/>
	<path class="st5" d="M214.6,187.2l44.8,44.8c10-26.5,31.1-47.6,57.6-57.6l-44.8-44.8C248.4,143.5,228.5,163.4,214.6,187.2z"/>
	<path class="st5" d="M212.2,488.6l-41-40.8l-40.8-41l-15.9-15.9c-4.8-4.8-9.4-6.7-13-5.2c-0.5,0.2-1,0.5-1.5,0.9
		c27.6,57.9,74.5,104.8,132.4,132.4c0.4-0.5,0.7-1,0.9-1.5c1.5-3.6-0.4-8.2-5.2-13L212.2,488.6z"/>
	<path class="st5" d="M171.1,390.3l-10.9,10.9v0.1L142.5,419l28.8,28.8L189,430h0.1v0.1l-17.7,17.7l28.8,28.8l17.7-17.7h0.1
		l10.9-10.9C206.1,432.4,186.6,412.9,171.1,390.3z"/>
	<path class="st5" d="M259.4,302l-44.8,44.8c13.9,23.8,33.8,43.7,57.6,57.6l44.8-44.8C290.5,349.6,269.4,328.5,259.4,302z"/>
</g>
<g>
	<path class="st6" d="M100,147.4C127.6,89.5,174.5,42.6,232.4,15c-2-2.6-6.2-4-12-4h-99.1c-6.8,0-13.1,2.7-18,7.3
		c-4.6,4.9-7.3,11.2-7.3,18v99.1C96,141.2,97.4,145.4,100,147.4z"/>
	<path class="st6" d="M317,174.4c-26.5,10-47.6,31.1-57.6,57.6l5.9,5.9c4.1,4.1,10.8,4.1,14.8,0l21.4-21.4l21.4-21.4
		c4.1-4,4.1-10.7,0-14.8L317,174.4z"/>
	<path class="st6" d="M232.4,519c-57.9-27.6-104.8-74.5-132.4-132.4c-2.6,2-4,6.2-4,12v99.1c0,6.8,2.7,13.1,7.3,18
		c4.9,4.6,11.2,7.3,18,7.3h99.1C226.2,523,230.4,521.6,232.4,519z"/>
	<path class="st6" d="M214.5,346.9l-43.4,43.4c15.4,22.6,35,42.2,57.6,57.6l43.4-43.4C248.3,390.6,228.4,370.7,214.5,346.9z"/>
	<path class="st6" d="M171.1,143.7l43.4,43.4c13.9-23.8,33.8-43.7,57.6-57.6l-43.4-43.4C206.1,101.5,186.5,121.1,171.1,143.7z"/>
	<path class="st6" d="M301.5,317.5l-21.4-21.4c-4-4.1-10.7-4.1-14.8,0l-5.9,5.9c10,26.5,31.1,47.6,57.6,57.6l5.9-5.9
		c4.1-4.1,4.1-10.8,0-14.8L301.5,317.5z"/>
</g>
<rect x="895.6" y="26" class="st7" width="128" height="128"/>
<rect x="1023.6" y="26" class="st8" width="128" height="128"/>
<rect x="1151.6" y="26" class="st9" width="128" height="128"/>
<rect x="1279.6" y="26" class="st10" width="128" height="128"/>
<rect x="895.6" y="154" class="st6" width="128" height="128"/>
<rect x="1023.6" y="154" class="st5" width="128" height="128"/>
<rect x="1151.6" y="154" class="st4" width="128" height="128"/>
<rect x="895.6" y="282" class="st2" width="128" height="128"/>
<rect x="1023.6" y="282" class="st0" width="128" height="128"/>
<rect x="1151.6" y="282" class="st1" width="128" height="128"/>
<rect x="1279.6" y="282" class="st11" width="128" height="128"/>
<rect x="895.6" y="410" class="st12" width="128" height="128"/>
</svg>
