<?xml version="1.0" encoding="utf-8"?>
<!-- Generator: Adobe Illustrator 19.0.0, SVG Export Plug-In . SVG Version: 6.00 Build 0)  -->
<svg version="1.1" id="Layer_1" xmlns="http://www.w3.org/2000/svg" xmlns:xlink="http://www.w3.org/1999/xlink" x="0px" y="0px"
	 viewBox="96 11 512 512" style="enable-background:new 96 11 512 512;" xml:space="preserve">
<style type="text/css">
	.st0{fill:#E6EAEA;}
	.st1{fill:#CDD4D5;}
	.st2{fill:#F0353D;}
	.st3{fill:#FD6A33;}
	.st4{fill:#FF8C29;}
	.st5{fill:#4ACFD9;}
	.st6{fill:#0295AA;}
	.st7{fill:#9BAAAB;}
</style>
<path class="st0" d="M533.7,11H170.3c-5.5,0-10,4.5-10,10.1v491.8c0,5.5,4.5,10.1,10,10.1h262c2.6,0,5.2-1,7.1-2.9L541,418.5
	c1.9-1.9,2.9-4.4,2.9-7.1V21.1C543.7,15.5,539.3,11,533.7,11z"/>
<path class="st1" d="M170.1,11c-5.5,0-10,4.5-10,10.1v491.8c0,5.5,4.5,10.1,10,10.1h181.8V11H170.1z"/>
<path class="st1" d="M449.6,162.7h-42.4c-14.7,0-26.6-11.9-26.6-26.6V93.7c0-14.7,11.9-26.6,26.6-26.6h42.4
	c14.7,0,26.6,11.9,26.6,26.6v42.4C476.1,150.8,464.2,162.7,449.6,162.7z"/>
<path class="st2" d="M415.5,132.4L415.5,132.4c-5.3-5.3-5.3-14.2,0-19.5l89.4-89.4c5.3-5.3,14.2-5.3,19.5,0l0,0
	c5.3,5.3,5.3,14.2,0,19.5L435,132.4C429.6,137.7,420.8,137.7,415.5,132.4z"/>
<path class="st2" d="M425.3,135.8L425.3,135.8c-7.5,0-13.8-6.2-13.8-13.8V45.4c0-7.5,6.2-13.8,13.8-13.8l0,0
	c7.5,0,13.8,6.2,13.8,13.8v76.8C438.9,129.7,432.8,135.8,425.3,135.8z"/>
<path class="st3" d="M258.6,374.3h-79.4c-1.3,0-2.4,1.5-2.4,3.3v26.7c0,1.8,1.1,3.3,2.4,3.3h79.4c1.3,0,2.4-1.5,2.4-3.3v-26.7
	C261,375.8,259.9,374.3,258.6,374.3z"/>
<path class="st4" d="M280.4,418.9H179.2c-1.3,0-2.4,1.5-2.4,3.3v26.7c0,1.8,1.1,3.3,2.4,3.3h101.2c1.3,0,2.4-1.5,2.4-3.3v-26.7
	C282.8,420.4,281.7,418.9,280.4,418.9z"/>
<path class="st5" d="M299.6,463.4H179.2c-1.3,0-2.4,1.5-2.4,3.3v26.7c0,1.8,1.1,3.3,2.4,3.3h120.4c1.3,0,2.4-1.5,2.4-3.3v-26.7
	C302,464.9,300.9,463.4,299.6,463.4z"/>
<path class="st2" d="M178.4,374.3c-0.9,0-1.6,1.5-1.6,3.3v26.7c0,1.8,0.7,3.3,1.6,3.3H221v-33.4L178.4,374.3L178.4,374.3z"/>
<path class="st3" d="M178.8,418.9c-1.1,0-2,1.5-2,3.3v26.7c0,1.8,0.9,3.3,2,3.3h52.9v-33.4L178.8,418.9L178.8,418.9z"/>
<path class="st6" d="M179.2,463.4c-1.4,0-2.5,1.5-2.5,3.3v26.7c0,1.8,1.1,3.3,2.5,3.3h64.4v-33.4L179.2,463.4L179.2,463.4z"/>
<path class="st3" d="M334.4,48.6H184.7c-1.3,0-2.4,1.5-2.4,3.3v26.7c0,1.8,1.1,3.3,2.4,3.3h149.7c1.3,0,2.4-1.5,2.4-3.3V52
	C336.8,50.1,335.7,48.6,334.4,48.6z"/>
<path class="st4" d="M334.8,93.1H184.7c-1.3,0-2.4,1.5-2.4,3.3v26.7c0,1.8,1.1,3.3,2.4,3.3h150.1c1.3,0,2.4-1.5,2.4-3.3V96.5
	C337.2,94.6,336.1,93.1,334.8,93.1z"/>
<path class="st5" d="M335.7,137.7h-151c-1.3,0-2.4,1.5-2.4,3.3v26.7c0,1.8,1.1,3.3,2.4,3.3h151c1.3,0,2.4-1.5,2.4-3.3V141
	C338.1,139.2,337,137.7,335.7,137.7z"/>
<path class="st2" d="M178.6,48.6c-1.3,0-2.4,1.5-2.4,3.3v26.7c0,1.8,1.1,3.3,2.4,3.3h87.2V48.6H178.6L178.6,48.6z"/>
<path class="st3" d="M178.6,93.1c-1.3,0-2.4,1.5-2.4,3.3v26.7c0,1.8,1.1,3.3,2.4,3.3h87.2V93.1H178.6L178.6,93.1z"/>
<path class="st6" d="M178.6,137.7c-1.3,0-2.4,1.5-2.4,3.3v26.7c0,1.8,1.1,3.3,2.4,3.3h87.2v-33.4L178.6,137.7L178.6,137.7z"/>
<path class="st1" d="M449.6,323.7h-42.4c-14.7,0-26.6-11.9-26.6-26.6v-42.4c0-14.7,11.9-26.6,26.6-26.6h42.4
	c14.7,0,26.6,11.9,26.6,26.6v42.4C476.1,311.8,464.2,323.7,449.6,323.7z"/>
<path class="st2" d="M415.5,289.6L415.5,289.6c-5.3-5.3-5.3-14.2,0-19.5l89.4-89.4c5.3-5.3,14.2-5.3,19.5,0l0,0
	c5.3,5.3,5.3,14.2,0,19.5L435,289.6C429.6,294.9,420.8,294.9,415.5,289.6z"/>
<path class="st2" d="M425.3,293.6L425.3,293.6c-7.5,0-13.8-6.2-13.8-13.8v-76.5c0-7.5,6.2-13.8,13.8-13.8l0,0
	c7.5,0,13.8,6.2,13.8,13.8V280C438.9,287.6,432.8,293.6,425.3,293.6z"/>
<path class="st3" d="M334.4,212.5H184.7c-1.3,0-2.4,1.5-2.4,3.3v26.7c0,1.8,1.1,3.3,2.4,3.3h149.7c1.3,0,2.4-1.5,2.4-3.3v-26.7
	C336.8,214,335.7,212.5,334.4,212.5z"/>
<path class="st4" d="M334.8,257H184.7c-1.3,0-2.4,1.5-2.4,3.3V287c0,1.8,1.1,3.3,2.4,3.3h150.1c1.3,0,2.4-1.5,2.4-3.3v-26.7
	C337.2,258.5,336.1,257,334.8,257z"/>
<path class="st5" d="M335.7,301.5h-151c-1.3,0-2.4,1.5-2.4,3.3v26.7c0,1.8,1.1,3.3,2.4,3.3h151c1.3,0,2.4-1.5,2.4-3.3v-26.7
	C338.1,303,337,301.5,335.7,301.5z"/>
<path class="st2" d="M178.6,212.5c-1.3,0-2.4,1.5-2.4,3.3v26.7c0,1.8,1.1,3.3,2.4,3.3h87.2v-33.4L178.6,212.5L178.6,212.5z"/>
<path class="st3" d="M178.6,257c-1.3,0-2.4,1.5-2.4,3.3V287c0,1.8,1.1,3.3,2.4,3.3h87.2V257H178.6L178.6,257z"/>
<path class="st6" d="M178.6,301.5c-1.3,0-2.4,1.5-2.4,3.3v26.7c0,1.8,1.1,3.3,2.4,3.3h87.2v-33.4L178.6,301.5L178.6,301.5z"/>
<path class="st1" d="M449.6,482.3h-42.4c-14.7,0-26.6-11.9-26.6-26.6v-42.4c0-14.7,11.9-26.6,26.6-26.6h42.4
	c14.7,0,26.6,11.9,26.6,26.6v42.4C476.1,470.4,464.2,482.3,449.6,482.3z"/>
<path class="st7" d="M432.1,421.4V523l0,0c2.6,0,5.2-1,7.1-2.9l101.6-101.6c1.9-1.9,2.9-4.4,2.9-7.1l0,0H442.1
	C436.7,411.3,432.1,415.8,432.1,421.4z"/>
</svg>
