<?xml version="1.0" encoding="utf-8"?>
<!-- Generator: Adobe Illustrator 19.0.0, SVG Export Plug-In . SVG Version: 6.00 Build 0)  -->
<svg version="1.1" id="Layer_1" xmlns="http://www.w3.org/2000/svg" xmlns:xlink="http://www.w3.org/1999/xlink" x="0px" y="0px"
	 viewBox="96 11 512 512" style="enable-background:new 96 11 512 512;" xml:space="preserve">
<style type="text/css">
	.st0{display:none;}
	.st1{fill:#F0353D;}
	.st2{fill:#FD6A33;}
	.st3{fill:#FF8C29;}
	.st4{fill:#FFD1A9;}
	.st5{fill:#365558;}
	.st6{fill:#0295AA;}
	.st7{fill:#4ACFD9;}
	.st8{fill:none;stroke:#000000;stroke-miterlimit:10;}
	.st9{fill:#9BAAAB;}
	.st10{fill:#CDD4D5;}
	.st11{fill:#E6EAEA;}
	.st12{fill:#FFFFFF;}
	.st13{fill:#BCD643;}
	.st14{fill:none;stroke:#4ACFD9;stroke-miterlimit:10;}
	.st15{fill:none;stroke:#FFFFFF;stroke-width:10;stroke-linecap:round;stroke-miterlimit:10;}
	.st16{fill:none;stroke:#FFD1A9;stroke-width:10;stroke-linecap:round;stroke-linejoin:round;stroke-miterlimit:10;}
	.st17{fill:none;stroke:#E6EAEA;stroke-width:10;stroke-linecap:round;stroke-miterlimit:10;}
	
		.st18{fill:none;stroke:#BCD643;stroke-width:15;stroke-linecap:round;stroke-linejoin:round;stroke-miterlimit:10;stroke-dasharray:15;}
</style>
<polygon class="st0" points="1164.7,-585 906,-585 906,-73 1418,-73 1418,-236.9 1164.7,-236.9 "/>
<rect x="1164.7" y="-585" class="st0" width="253.3" height="348.1"/>
<g class="st0">
	
		<text transform="matrix(1 0 0 1 942.4224 -454.0488)" style="display:inline;fill:#CDD4D5; font-family:'Saira-Black'; font-size:64.1866px;">E = mc</text>
	
		<text transform="matrix(1 0 0 1 1135.1074 -475.4227)" style="display:inline;fill:#CDD4D5; font-family:'Saira-Black'; font-size:37.4208px;">2</text>
</g>
<g>
	<rect x="-516" y="12" class="st1" width="128" height="128"/>
	<rect x="-388" y="12" class="st2" width="128" height="128"/>
	<rect x="-260" y="12" class="st3" width="128" height="128"/>
	<rect x="-132" y="12" class="st4" width="128" height="128"/>
	<rect x="-516" y="140" class="st5" width="128" height="128"/>
	<rect x="-388" y="140" class="st6" width="128" height="128"/>
	<rect x="-260" y="140" class="st7" width="128" height="128"/>
	<rect x="-132" y="140" class="st8" width="128" height="128"/>
	<rect x="-516" y="268" class="st9" width="128" height="128"/>
	<rect x="-388" y="268" class="st10" width="128" height="128"/>
	<rect x="-260" y="268" class="st11" width="128" height="128"/>
	<rect x="-132" y="268" class="st12" width="128" height="128"/>
	<rect x="-516" y="396" class="st13" width="128" height="128"/>
	<rect x="-388" y="396" class="st8" width="128" height="128"/>
	<rect x="-260" y="396" class="st8" width="128" height="128"/>
	<rect x="-132" y="396" class="st8" width="128" height="128"/>
</g>
<path class="st14" d="M308,75.5"/>
<path class="st3" d="M352,194.4v145.1c40,0,72.5-32.5,72.5-72.5S392.3,194.4,352,194.4z"/>
<path class="st2" d="M279.5,266.9c0,40,32.5,72.5,72.5,72.5v-145C312,194.4,279.5,226.9,279.5,266.9z"/>
<circle class="st7" cx="535.2" cy="450.5" r="72.5"/>
<path class="st15" d="M587.7,450.5c0,29-23.6,52.5-52.5,52.5"/>
<circle class="st6" cx="168.5" cy="450.5" r="72.5"/>
<path class="st16" d="M404.5,266.9c0,29-23.6,52.5-52.5,52.5"/>
<path class="st17" d="M221.1,448c0,29-23.6,52.5-52.5,52.5"/>
<circle class="st7" cx="535.2" cy="84.5" r="72.5"/>
<path class="st15" d="M587.7,84.5c0,29-23.6,52.5-52.5,52.5"/>
<circle class="st6" cx="168.6" cy="84.5" r="72.5"/>
<path class="st17" d="M221.2,82c0,29-23.6,52.5-52.5,52.5"/>
<line class="st18" x1="231.6" y1="147.4" x2="288.1" y2="204"/>
<line class="st18" x1="415.4" y1="337" x2="472" y2="393.5"/>
<line class="st18" x1="229.2" y1="382.2" x2="285.8" y2="325.7"/>
<line class="st18" x1="418.8" y1="198.3" x2="475.3" y2="141.8"/>
</svg>
