<?xml version="1.0" encoding="utf-8"?>
<!-- Generator: Adobe Illustrator 19.0.0, SVG Export Plug-In . SVG Version: 6.00 Build 0)  -->
<svg version="1.1" id="Layer_1" xmlns="http://www.w3.org/2000/svg" xmlns:xlink="http://www.w3.org/1999/xlink" x="0px" y="0px"
	 viewBox="96 11 512 512" style="enable-background:new 96 11 512 512;" xml:space="preserve">
<style type="text/css">
	.st0{fill:#F0353D;}
	.st1{fill:#FD6A33;}
	.st2{fill:#FF8C29;}
	.st3{fill:#FFD1A9;}
	.st4{fill:#365558;}
	.st5{fill:#0295AA;}
	.st6{fill:#4ACFD9;}
	.st7{fill:#9BAAAB;}
	.st8{fill:#CDD4D5;}
	.st9{fill:#E6EAEA;}
	.st10{fill:#FFFFFF;}
	.st11{fill:#BCD643;}
	.st12{fill:none;}
</style>
<rect x="796" y="55.1" class="st0" width="128" height="128"/>
<rect x="924" y="55.1" class="st1" width="128" height="128"/>
<rect x="1052" y="55.1" class="st2" width="128" height="128"/>
<rect x="1180" y="55.1" class="st3" width="128" height="128"/>
<rect x="796" y="183.1" class="st4" width="128" height="128"/>
<rect x="924" y="183.1" class="st5" width="128" height="128"/>
<rect x="1052" y="183.1" class="st6" width="128" height="128"/>
<rect x="796" y="311.1" class="st7" width="128" height="128"/>
<rect x="924" y="311.1" class="st8" width="128" height="128"/>
<rect x="1052" y="311.1" class="st9" width="128" height="128"/>
<rect x="1180" y="311.1" class="st10" width="128" height="128"/>
<rect x="796" y="439.1" class="st11" width="128" height="128"/>
<path class="st4" d="M348,523c-4.4,0-8-3.6-8-8V19c0-4.4,3.6-8,8-8c4.4,0,8,3.6,8,8v496C356,519.4,352.4,523,348,523z"/>
<path class="st3" d="M584.2,418.8H356v21.5h228.2c5.9,0,10.7-4.9,10.7-10.7S590.1,418.8,584.2,418.8z"/>
<path class="st2" d="M120.3,456.1c-5.7,0-10.4,4.7-10.4,10.4c0,5.7,4.7,10.4,10.4,10.4H340v-20.8H120.3z"/>
<path class="st3" d="M583.3,59.5H356V81h227.3c5.9,0,10.7-4.9,10.7-10.7C594.1,64.4,589.2,59.5,583.3,59.5z"/>
<path class="st2" d="M119.5,108.5c-5.7,0-10.4,4.7-10.4,10.4s4.7,10.4,10.4,10.4H340v-20.8H119.5z"/>
<path class="st10" d="M313.7,339.3h-0.4v11.6h-30.8V203.4h30.8v62.8h0.4c6.4-9.8,15.3-15.5,26.3-17v-74.9H120.7
	c-6,0-10.8,4.9-10.8,10.8v230.2c0,6,4.9,10.8,10.8,10.8H340v-73C328.5,353,319.7,348.3,313.7,339.3z M233.9,350.9l-9.9-31.1h-49.7
	l-9.8,31.1h-34l50.8-139.5h37.3L268.2,351L233.9,350.9L233.9,350.9z"/>
<path class="st10" d="M184.3,215.1h-0.9c-0.4,4.5-1.3,9-2.7,13.5L164,280.9h39.6l-16.6-52C185.7,225.1,184.8,220.5,184.3,215.1z"/>
<path class="st10" d="M365.7,236.2c-2.5-3.3-5.7-5.4-9.7-6.4v57.4c3.6-1.3,6.7-3.7,9.1-7.1c4-5.6,6-13.5,6-23.8
	C371.1,247.6,369.4,240.9,365.7,236.2z"/>
<path class="st10" d="M333.6,255c-6.8,0-12.5,2.6-17,7.7c-4.5,5.1-6.7,11.7-6.7,19.9v11.3c0,7.1,2,13,6.1,17.7s9.3,7,15.7,7
	c3,0,5.7-0.5,8.2-1.4v-61.5C338,255.3,335.9,255,333.6,255z"/>
<path class="st12" d="M502.4,306.4c-7.2,4.2-17.5,6.3-31.1,6.3c-15.9,0-28.6-4.8-38.4-14.4c-9.8-9.6-14.7-21.9-14.7-37.1
	c0-17.5,5.2-31.3,15.8-41.4c10.5-10.1,24.5-15.1,42.1-15.1c12.1,0,20.9,1.6,26.3,4.9v27c-6.6-4.9-14.1-7.5-22.2-7.5
	c-9.1,0-16.3,2.7-21.7,8c-5.3,5.3-8,12.7-8,22.1c0,9.1,2.5,16.2,7.7,21.5c5.1,5.2,12.1,7.8,21,7.8c7.9,0,15.7-2.5,23.2-7.5V306.4z"
	/>
<path class="st2" d="M582.9,127.6H356V205c2.1-0.3,4.1-0.5,6.3-0.5c13.3,0,23.5,4.6,30.7,13.7c7.2,9.1,10.7,21.6,10.7,37.4
	c0,17.2-4.2,31-12.6,41.3c-8.4,10.4-19.6,15.6-33.6,15.6c-0.6,0-1,0-1.6,0V388h226.9c6.2,0,11.2-5,11.2-11.2v-238
	C594.1,132.7,589,127.6,582.9,127.6z M502.4,236.4c-6.6-4.9-14.1-7.5-22.2-7.5c-9.1,0-16.3,2.7-21.7,8c-5.3,5.3-8,12.7-8,22.1
	c0,9.1,2.5,16.2,7.7,21.5c5.1,5.2,12.1,7.8,21,7.8c7.9,0,15.7-2.5,23.2-7.5v25.6c-7.2,4.2-17.5,6.3-31.1,6.3
	c-15.9,0-28.6-4.8-38.4-14.4c-9.8-9.6-14.7-21.9-14.7-37.1c0-17.5,5.2-31.3,15.8-41.4c10.5-10.1,24.5-15.1,42.1-15.1
	c12.1,0,20.9,1.6,26.3,4.9V236.4z M573.2,177.9H551v153h22.2v11.9h-37h-16.6v-11.9h20.5v-153h-20.5v-11.9h16.6h37V177.9z"/>
<path class="st1" d="M313.7,339.3h-0.4v11.6h-30.8V203.4h30.8v62.8h0.4c6.4-9.8,15.3-15.5,26.3-17v-74.9H120.7
	c-6,0-10.8,4.9-10.8,10.8v230.2c0,6,4.9,10.8,10.8,10.8H340v-73C328.5,353,319.7,348.3,313.7,339.3z M233.9,350.9l-9.9-31.1h-49.7
	l-9.8,31.1h-34l50.8-139.5h37.3L268.2,351L233.9,350.9L233.9,350.9z"/>
<path class="st1" d="M199.4,236.3h-0.8c-0.4,4.1-1.2,8.1-2.4,12.2l-15.1,47.2h35.8l-15-47C200.7,245.3,199.8,241.2,199.4,236.3z"/>
<path class="st2" d="M365.7,236.2c-2.5-3.3-5.7-5.4-9.7-6.4v57.4c3.6-1.3,6.7-3.7,9.1-7.1c4-5.6,6-13.5,6-23.8
	C371.1,247.6,369.4,240.9,365.7,236.2z"/>
<path class="st1" d="M334.2,272.3c-6.1,0-11.3,2.3-15.3,7c-4.1,4.6-6,10.6-6,18v10.2c0,6.4,1.8,11.7,5.5,16
	c3.7,4.2,8.4,6.3,14.2,6.3c2.7,0,5.1-0.5,7.4-1.3V273C338.2,272.6,336.3,272.3,334.2,272.3z"/>
<polygon class="st12" points="536.2,165.9 573.2,165.9 573.2,177.9 550.9,177.9 550.9,330.9 573.2,330.9 573.2,342.9 536.2,342.9 
	519.6,342.9 519.6,330.9 540.1,330.9 540.1,177.9 519.6,177.9 519.6,165.9 "/>
<polygon class="st12" points="536.2,165.9 573.2,165.9 573.2,177.9 550.9,177.9 550.9,330.9 573.2,330.9 573.2,342.9 536.2,342.9 
	519.6,342.9 519.6,330.9 540.1,330.9 540.1,177.9 519.6,177.9 519.6,165.9 "/>
<path class="st8" d="M-641.3,70.9h-230.9c-4.4,0-8,3.6-8,8v376.3c0,4.4,3.6,8,8,8h230.9c4.4,0,8-3.6,8-8V78.9
	C-633.2,74.4-636.8,70.9-641.3,70.9z"/>
<path class="st8" d="M-1049.2,150.6h230.9c4.4,0,8,3.6,8,8v376.3c0,4.4-3.6,8-8,8h-230.9c-4.4,0-8-3.6-8-8V158.6
	C-1057.3,154.2-1053.7,150.6-1049.2,150.6z"/>
</svg>
