<?xml version="1.0" encoding="utf-8"?>
<!-- Generator: Adobe Illustrator 19.0.0, SVG Export Plug-In . SVG Version: 6.00 Build 0)  -->
<svg version="1.1" id="Layer_1" xmlns="http://www.w3.org/2000/svg" xmlns:xlink="http://www.w3.org/1999/xlink" x="0px" y="0px"
	 viewBox="96 11 512 512" style="enable-background:new 96 11 512 512;" xml:space="preserve">
<style type="text/css">
	.st0{fill:#F0353D;}
	.st1{fill:#FD6A33;}
	.st2{fill:#FF8C29;}
	.st3{fill:#FFD1A9;}
	.st4{fill:#365558;}
	.st5{fill:#0295AA;}
	.st6{fill:#4ACFD9;}
	.st7{fill:#9BAAAB;}
	.st8{fill:#CDD4D5;}
	.st9{fill:#E6EAEA;}
	.st10{fill:#FFFFFF;}
	.st11{fill:#BCD643;}
	.st12{fill:none;}
	.st13{fill:#687F82;}
	.st14{fill:none;stroke:#687F82;stroke-width:9;stroke-miterlimit:10;}
</style>
<rect x="892" y="66.1" class="st0" width="128" height="128"/>
<rect x="1020" y="66.1" class="st1" width="128" height="128"/>
<rect x="1148" y="66.1" class="st2" width="128" height="128"/>
<rect x="1276" y="66.1" class="st3" width="128" height="128"/>
<rect x="892" y="194.1" class="st4" width="128" height="128"/>
<rect x="1020" y="194.1" class="st5" width="128" height="128"/>
<rect x="1148" y="194.1" class="st6" width="128" height="128"/>
<rect x="892" y="322.1" class="st7" width="128" height="128"/>
<rect x="1020" y="322.1" class="st8" width="128" height="128"/>
<rect x="1148" y="322.1" class="st9" width="128" height="128"/>
<rect x="1276" y="322.1" class="st10" width="128" height="128"/>
<rect x="892" y="450.1" class="st11" width="128" height="128"/>
<path class="st10" d="M257.6,142h-0.3v9.2h-24.4V34h24.4v49.9h0.3c5.1-7.8,12.1-12.3,20.9-13.5V11H104.4c-4.7,0-8.6,3.9-8.6,8.6
	v182.8c0,4.7,3.9,8.6,8.6,8.6h174.1v-57.9C269.3,152.8,262.4,149.1,257.6,142z M194.3,151.2l-7.9-24.7h-39.4l-7.8,24.7h-27
	l40.4-110.8h29.6l39.4,110.8L194.3,151.2L194.3,151.2L194.3,151.2z"/>
<path class="st10" d="M166.9,60.2h-0.6c-0.3,3.2-0.9,6.5-1.9,9.7l-12,37.5h28.4l-11.9-37.3C167.9,67.4,167.2,64.1,166.9,60.2z"/>
<path class="st10" d="M286,94.4c-1.9-2.5-4.4-4.2-7.5-4.9v44.1c2.8-1,5.2-2.9,7-5.4c3.1-4.3,4.6-10.4,4.6-18.3
	C290.1,103.1,288.7,98,286,94.4z"/>
<path class="st10" d="M273.9,88.8c-4.9,0-9,1.9-12.2,5.5c-3.2,3.7-4.8,8.4-4.8,14.3v8.1c0,5.1,1.4,9.3,4.4,12.7
	c2.9,3.4,6.7,5,11.3,5c2.2,0,4.1-0.4,5.9-1V89.3C277.1,89,275.6,88.8,273.9,88.8z"/>
<path class="st12" d="M391,148.3c-5.5,3.2-13.5,4.8-23.9,4.8c-12.2,0-22-3.7-29.5-11c-7.5-7.4-11.3-16.8-11.3-28.5
	c0-13.5,4-24,12.1-31.8c8-7.7,18.9-11.6,32.3-11.6c9.3,0,16.1,1.2,20.2,3.7v20.7c-5.1-3.8-10.8-5.7-17.1-5.7c-7,0-12.5,2.1-16.6,6.2
	c-4.1,4.1-6.2,9.8-6.2,17c0,7,1.9,12.5,5.9,16.5s9.3,6,16.1,6c6.1,0,12-1.9,17.9-5.7V148.3z"/>
<path class="st2" d="M452.8,11H278.5v59.4c1.6-0.2,3.2-0.4,4.9-0.4c10.2,0,18.1,3.5,23.6,10.5c5.5,7,8.2,16.6,8.2,28.8
	c0,13.2-3.2,23.8-9.7,31.8c-6.5,8-15.1,12-25.8,12c-0.4,0-0.8,0-1.2,0V211h174.3c4.7,0,8.6-3.9,8.6-8.6V19.6
	C461.4,14.9,457.5,11,452.8,11z M391,94.5c-5.1-3.8-10.8-5.7-17.1-5.7c-7,0-12.5,2.1-16.6,6.2c-4.1,4.1-6.2,9.8-6.2,17
	c0,7,1.9,12.5,5.9,16.5c3.9,4,9.3,6,16.1,6c6.1,0,12-1.9,17.9-5.7v19.6c-5.5,3.2-13.5,4.8-23.9,4.8c-12.2,0-22-3.7-29.5-11
	c-7.5-7.4-11.3-16.8-11.3-28.5c0-13.5,4-24,12.1-31.8c8-7.7,18.9-11.6,32.3-11.6c9.3,0,16.1,1.2,20.2,3.7V94.5z M445.3,49.6h-17.1
	v117.6h17.1v9.2H417h-12.8v-9.2H420V49.6h-15.8v-9.2H417h28.4V49.6z"/>
<path class="st1" d="M257.6,142h-0.3v9.2h-24.4V34h24.4v49.9h0.3c5.1-7.8,12.1-12.3,20.9-13.5V11H104.4c-4.7,0-8.6,3.9-8.6,8.6
	v182.8c0,4.7,3.9,8.6,8.6,8.6h174.1v-57.9C269.3,152.8,262.4,149.1,257.6,142z M194.3,151.2l-7.9-24.7h-39.4l-7.8,24.7h-27
	l40.4-110.8h29.6l39.4,110.8L194.3,151.2L194.3,151.2L194.3,151.2z"/>
<path class="st1" d="M166.9,60.2h-0.6c-0.3,3.2-0.9,6.5-1.9,9.7l-12,37.5h28.4l-11.9-37.3C167.9,67.4,167.2,64.1,166.9,60.2z"/>
<path class="st2" d="M286,94.4c-1.9-2.5-4.4-4.2-7.5-4.9v44.1c2.8-1,5.2-2.9,7-5.4c3.1-4.3,4.6-10.4,4.6-18.3
	C290.1,103.1,288.7,98,286,94.4z"/>
<path class="st1" d="M273.9,88.8c-4.9,0-9,1.9-12.2,5.5c-3.2,3.7-4.8,8.4-4.8,14.3v8.1c0,5.1,1.4,9.3,4.4,12.7c2.9,3.4,6.7,5,11.3,5
	c2.2,0,4.1-0.4,5.9-1V89.3C277.1,89,275.6,88.8,273.9,88.8z"/>
<polygon class="st12" points="417,40.4 445.3,40.4 445.3,49.6 428.2,49.6 428.2,167.2 445.3,167.2 445.3,176.4 417,176.4 
	404.2,176.4 404.2,167.2 420,167.2 420,49.6 404.2,49.6 404.2,40.4 "/>
<polygon class="st12" points="417,40.4 445.3,40.4 445.3,49.6 428.2,49.6 428.2,167.2 445.3,167.2 445.3,176.4 417,176.4 
	404.2,176.4 404.2,167.2 420,167.2 420,49.6 404.2,49.6 404.2,40.4 "/>
<g>
	<path class="st3" d="M239.9,154.4c-1.9,1.9-2.7,4.7-2.2,7.3L259,268.4l94.9-94.9l-106.7-21.3C244.6,151.7,241.8,152.5,239.9,154.4z
		"/>
	<path class="st3" d="M240.3,154.1c-0.1,0.1-0.3,0.2-0.4,0.3c-1.9,1.9-2.7,4.7-2.2,7.3L259,268.4l47.8-47.8L240.3,154.1z"/>
</g>
<g>
	<path class="st10" d="M430.9,391.6c3-3,6.5-4.4,7.8-3.1l33.5,33.3c1.3,1.3-0.1,4.8-3.1,7.8s-6.5,4.4-7.8,3.1l-33.4-33.4
		c-0.6-0.6-0.7-1.9-0.1-3.3l0,0l0,0C428.4,394.6,429.5,393,430.9,391.6z"/>
	<path class="st1" d="M543.7,360.4L357.1,173.7c-1.5-1.5-3.6-2.4-5.7-2.4s-4.2,0.9-5.7,2.4l-85.4,85.4c-1.5,1.5-2.4,3.6-2.4,5.7
		s0.9,4.2,2.4,5.7l186.6,186.7c1.6,1.6,3.6,2.4,5.7,2.4s4.1-0.8,5.7-2.4l85.4-85.4c1.5-1.5,2.4-3.6,2.4-5.7S545.2,361.9,543.7,360.4
		z"/>
	<path class="st0" d="M303.3,216.1l-43,43c-1.5,1.5-2.4,3.6-2.4,5.7s0.9,4.2,2.4,5.7l186.6,186.7c1.6,1.6,3.6,2.4,5.7,2.4
		s4.1-0.8,5.7-2.4l43-43L303.3,216.1z"/>
	<path class="st6" d="M516.2,387.8L329.6,201.2c-3.2-3.2-8.3-3.2-11.4,0l-30.5,30.5c-1.5,1.5-2.4,3.6-2.4,5.7s0.9,4.2,2.4,5.7
		l186.6,186.6c1.6,1.6,3.6,2.4,5.7,2.4s4.1-0.8,5.7-2.4l30.5-30.5c1.5-1.5,2.4-3.6,2.4-5.7S517.7,389.3,516.2,387.8z"/>
	<path class="st5" d="M303.3,216.1l-15.6,15.6c-1.5,1.5-2.4,3.6-2.4,5.7s0.9,4.2,2.4,5.7l186.6,186.6c1.6,1.6,3.6,2.4,5.7,2.4
		s4.1-0.8,5.7-2.4l15.6-15.6L303.3,216.1z"/>
	<path class="st13" d="M238.9,152.4c-1.9,1.9-2.7,4.7-2.2,7.3l9.1,45.7l46.1-46.1l-45.7-9.1C243.6,149.7,240.8,150.5,238.9,152.4z"
		/>
	<path class="st4" d="M239.3,152.1c-0.1,0.1-0.3,0.2-0.4,0.3c-1.9,1.9-2.7,4.7-2.2,7.3l9.1,45.7l23.5-23.4L239.3,152.1z"/>
	<path class="st8" d="M543.7,360.4l-96.8,96.8l61,61c1.6,1.6,3.6,2.4,5.7,2.4c2.1,0,4.1-0.8,5.7-2.4l85.3-85.4
		c1.5-1.5,2.4-3.6,2.4-5.7c0-2.1-0.9-4.2-2.4-5.7L543.7,360.4z"/>
	<path class="st7" d="M495.6,408.4l-48.8,48.8l61,61c1.6,1.6,3.6,2.4,5.7,2.4c2.1,0,4.1-0.8,5.7-2.4l43-43L495.6,408.4z"/>
	<path class="st10" d="M555.8,437.8c-2.1,0-4.1-0.8-5.7-2.4l-21.6-21.6c-3.2-3.2-3.2-8.3,0-11.4c3.2-3.2,8.3-3.2,11.4,0l21.6,21.6
		c3.2,3.2,3.2,8.3,0,11.4C559.9,437.1,557.9,437.8,555.8,437.8z"/>
</g>
<path class="st14" d="M239.7,151.2c0,0,0-3.8,0-9.8s5.3-5.5,8.3-6.9c3-1.4,9-9.7,1.7-14.4c-7.3-4.7-16-5.3-10-9s17.7-5.7,11.3-8
	c-6.3-2.3-14.3-4-10-7.2s14-3.6,10.7-6.4c-3.3-2.8-17-5.8-12.7-8.1c4.3-2.3,16.3-3,14.2-6.7c-2.2-3.7-9.2-1.5-11.8-4.6
	c-2.7-3.1,9-3.7,10.7-7.1c1.7-3.3-11.3-1.7-12.3-5.7s13.2-4.3,13.8-7c0.6-2.7-6.3-4-7.9-6.7C244,41,244,34,244,34"/>
</svg>
