<?xml version="1.0" encoding="utf-8"?>
<!-- Generator: Adobe Illustrator 19.0.0, SVG Export Plug-In . SVG Version: 6.00 Build 0)  -->
<svg version="1.1" id="Layer_1" xmlns="http://www.w3.org/2000/svg" xmlns:xlink="http://www.w3.org/1999/xlink" x="0px" y="0px"
	 viewBox="96 11 512 512" style="enable-background:new 96 11 512 512;" xml:space="preserve">
<style type="text/css">
	.st0{fill:#F0353D;}
	.st1{fill:#FD6A33;}
	.st2{fill:#FF8C29;}
	.st3{fill:#FFD1A9;}
	.st4{fill:#365558;}
	.st5{fill:#0295AA;}
	.st6{fill:#4ACFD9;}
	.st7{fill:#9BAAAB;}
	.st8{fill:#CDD4D5;}
	.st9{fill:#E6EAEA;}
	.st10{fill:#FFFFFF;}
	.st11{fill:#BCD643;}
	.st12{fill:none;}
</style>
<rect x="892" y="66.1" class="st0" width="128" height="128"/>
<rect x="1020" y="66.1" class="st1" width="128" height="128"/>
<rect x="1148" y="66.1" class="st2" width="128" height="128"/>
<rect x="1276" y="66.1" class="st3" width="128" height="128"/>
<rect x="892" y="194.1" class="st4" width="128" height="128"/>
<rect x="1020" y="194.1" class="st5" width="128" height="128"/>
<rect x="1148" y="194.1" class="st6" width="128" height="128"/>
<rect x="892" y="322.1" class="st7" width="128" height="128"/>
<rect x="1020" y="322.1" class="st8" width="128" height="128"/>
<rect x="1148" y="322.1" class="st9" width="128" height="128"/>
<rect x="1276" y="322.1" class="st10" width="128" height="128"/>
<rect x="892" y="450.1" class="st11" width="128" height="128"/>
<path class="st3" d="M596.4,448H351.9v23h244.5c6.3,0,11.5-5.2,11.5-11.5S602.7,448,596.4,448z"/>
<path class="st2" d="M108.6,448c-6.3,0-11.5,5.2-11.5,11.5s5.2,11.5,11.5,11.5h243.3v-23H108.6z"/>
<path class="st1" d="M595.8,500H351.9v23h243.9c6.3,0,11.5-5.2,11.5-11.5S602.1,500,595.8,500z"/>
<path class="st0" d="M108,500c-6.3,0-11.5,5.2-11.5,11.5S101.7,523,108,523h243.9v-23H108z"/>
<path class="st1" d="M596.1,11H351.9v23h244.2c6.3,0,11.5-5.2,11.5-11.5S602.4,11,596.1,11z"/>
<path class="st0" d="M108.3,11c-6.3,0-11.5,5.2-11.5,11.5S102,34,108.3,34h243.6V11H108.3z"/>
<path class="st3" d="M595.5,63H351.9v23h243.6c6.3,0,11.5-5.2,11.5-11.5S601.8,63,595.5,63z"/>
<path class="st2" d="M107.7,63c-6.3,0-11.5,5.2-11.5,11.5S101.4,86,107.7,86h244.2V63H107.7z"/>
<path class="st10" d="M322.8,318.7h-0.4v12.8h-34.1V168.1h34.1v69.6h0.4c7.1-10.9,16.9-17.2,29.1-18.8V136H109.1
	c-6.6,0-12,5.4-12,12v255c0,6.6,5.4,12,12,12h242.8v-80.8C339.1,333.8,329.4,328.6,322.8,318.7z M234.4,331.5l-11-34.4h-55
	l-10.9,34.4h-37.7L176.1,177h41.3l55,154.6h-38V331.5z"/>
<path class="st10" d="M196.2,204.6h-0.9c-0.4,4.5-1.3,9-2.7,13.5l-16.7,52.3h39.6l-16.6-52C197.6,214.6,196.7,210,196.2,204.6z"/>
<path class="st10" d="M362.3,252.3c-2.7-3.5-6.1-5.8-10.4-6.9v61.5c3.9-1.4,7.2-4,9.8-7.6c4.3-6,6.4-14.5,6.4-25.5
	C368.1,264.5,366.1,257.4,362.3,252.3z"/>
<path class="st10" d="M345.5,244.5c-6.8,0-12.5,2.6-17,7.7s-6.7,11.7-6.7,19.9v11.3c0,7.1,2,13,6.1,17.7s9.3,7,15.7,7
	c3,0,5.7-0.5,8.2-1.4v-61.5C349.9,244.8,347.8,244.5,345.5,244.5z"/>
<path class="st12" d="M508.8,327.5c-7.7,4.5-18.8,6.7-33.3,6.7c-17,0-30.7-5.1-41.2-15.4s-15.7-23.5-15.7-39.8
	c0-18.8,5.6-33.5,16.9-44.4c11.2-10.8,26.3-16.2,45.1-16.2c13,0,22.4,1.7,28.2,5.2v28.9c-7.1-5.3-15.1-8-23.8-8
	c-9.8,0-17.5,2.9-23.2,8.6s-8.6,13.6-8.6,23.7c0,9.8,2.7,17.4,8.2,23s13,8.4,22.5,8.4c8.5,0,16.8-2.7,24.9-8V327.5z"/>
<path class="st2" d="M595,136H351.9v82.9c2.2-0.3,4.4-0.5,6.8-0.5c14.2,0,25.2,4.9,32.9,14.7c7.7,9.8,11.5,23.1,11.5,40.1
	c0,18.4-4.5,33.2-13.5,44.3c-9,11.1-21,16.7-36,16.7c-0.6,0-1.1,0-1.7,0V415H595c6.6,0,12-5.4,12-12V148
	C607,141.4,601.6,136,595,136z M508.8,252.5c-7.1-5.3-15.1-8-23.8-8c-9.8,0-17.5,2.9-23.2,8.6s-8.6,13.6-8.6,23.7
	c0,9.8,2.7,17.4,8.2,23s13,8.4,22.5,8.4c8.5,0,16.8-2.7,24.9-8v27.4c-7.7,4.5-18.8,6.7-33.3,6.7c-17,0-30.7-5.1-41.2-15.4
	s-15.7-23.5-15.7-39.8c0-18.8,5.6-33.5,16.9-44.4c11.2-10.8,26.3-16.2,45.1-16.2c13,0,22.4,1.7,28.2,5.2V252.5z M584.6,189.8h-23.8
	v164h23.8v12.8H545h-17.8v-12.8h22v-164h-22V177H545h39.6V189.8z"/>
<path class="st1" d="M322.8,318.7h-0.4v12.8h-34.1V168.1h34.1v69.6h0.4c7.1-10.9,16.9-17.2,29.1-18.8V136H109.1c-6.6,0-12,5.4-12,12
	v255c0,6.6,5.4,12,12,12h242.8v-80.8C339.1,333.8,329.4,328.6,322.8,318.7z M234.4,331.5l-11-34.4h-55l-10.9,34.4h-37.7L176.1,177
	h41.3l55,154.6h-38V331.5z"/>
<path class="st1" d="M196.2,204.6h-0.9c-0.4,4.5-1.3,9-2.7,13.5l-16.7,52.3h39.6l-16.6-52C197.6,214.6,196.7,210,196.2,204.6z"/>
<path class="st2" d="M362.3,252.3c-2.7-3.5-6.1-5.8-10.4-6.9v61.5c3.9-1.4,7.2-4,9.8-7.6c4.3-6,6.4-14.5,6.4-25.5
	C368.1,264.5,366.1,257.4,362.3,252.3z"/>
<path class="st1" d="M345.5,244.5c-6.8,0-12.5,2.6-17,7.7s-6.7,11.7-6.7,19.9v11.3c0,7.1,2,13,6.1,17.7s9.3,7,15.7,7
	c3,0,5.7-0.5,8.2-1.4v-61.5C349.9,244.8,347.8,244.5,345.5,244.5z"/>
<polygon class="st12" points="545,177 584.6,177 584.6,189.8 560.7,189.8 560.7,353.8 584.6,353.8 584.6,366.7 545,366.7 
	527.2,366.7 527.2,353.8 549.2,353.8 549.2,189.8 527.2,189.8 527.2,177 "/>
<polygon class="st12" points="545,177 584.6,177 584.6,189.8 560.7,189.8 560.7,353.8 584.6,353.8 584.6,366.7 545,366.7 
	527.2,366.7 527.2,353.8 549.2,353.8 549.2,189.8 527.2,189.8 527.2,177 "/>
</svg>
