<?xml version="1.0" encoding="utf-8"?>
<!-- Generator: Adobe Illustrator 19.0.0, SVG Export Plug-In . SVG Version: 6.00 Build 0)  -->
<svg version="1.1" id="Layer_1" xmlns="http://www.w3.org/2000/svg" xmlns:xlink="http://www.w3.org/1999/xlink" x="0px" y="0px"
	 viewBox="206 -206 512 512" style="enable-background:new 206 -206 512 512;" xml:space="preserve">
<style type="text/css">
	.st0{fill:#9BAAAB;}
	.st1{fill:#CDD4D5;}
	.st2{fill:#365558;}
	.st3{fill:#FFFFFF;}
	.st4{fill:#FF8C29;}
	.st5{fill:#FFD1A9;}
	.st6{fill:#FD6A33;}
	.st7{fill:#687F82;}
	.st8{fill:#F0353D;}
	.st9{fill:#0295AA;}
	.st10{fill:#4ACFD9;}
	.st11{display:none;fill:#FFFFFF;}
</style>
<path class="st0" d="M707.7-201.8c-3-1.3-6.5-0.6-8.8,1.8l-62.8,62.8l10.9,10.9c12.4,12.4,12.4,32.6,0,45.1l-4.7,4.7
	C669.1-41,685,3.3,685,51.2c0,53.9-20.1,103.2-53.1,140.8v28.2h-30c-36.1,27.9-81.3,44.5-130.4,44.5c-64.9,0-123.1-29.1-162.3-75
	l-97.5,97.5c-2.3,2.3-3,5.8-1.8,8.8c1.3,3,4.2,5,7.5,5h487.2c4.5,0,8.1-3.6,8.1-8.1v-487.2C712.7-197.6,710.7-200.5,707.7-201.8z"/>
<path class="st1" d="M707.7-201.8c-3-1.3-6.5-0.6-8.8,1.8l-62.8,62.8l10.9,10.9c12.4,12.4,12.4,32.6,0,45.1l-4.7,4.7
	C669.1-41,685,3.3,685,51.2c0,53.9-20.1,103.2-53.1,140.8v28.2l78.5,78.5c1.5-1.5,2.4-3.5,2.4-5.7v-487.2
	C712.7-197.6,710.7-200.5,707.7-201.8z"/>
<path class="st2" d="M670.1,220.2c-4.5,0-8.1,3.6-8.1,8.1s3.6,8.1,8.1,8.1h42.6v-16.2H670.1z"/>
<path class="st2" d="M670.1,155.5c-4.5,0-8.1,3.6-8.1,8.1c0,4.5,3.6,8.1,8.1,8.1h42.6v-16.2H670.1z"/>
<path class="st2" d="M712.7,90.8h-31.4c-1,5.5-2.3,10.9-3.7,16.2h35.1V90.8z"/>
<path class="st2" d="M712.7,26.1h-29.2c0.6,5.3,1.1,10.7,1.3,16.2h27.9V26.1z"/>
<path class="st2" d="M712.7-38.5h-42.6c-1.6,0-3.1,0.5-4.3,1.3c2.2,4.9,4.3,9.8,6.1,14.9h40.8V-38.5z"/>
<path class="st2" d="M670.1-103.2c-4.5,0-8.1,3.6-8.1,8.1c0,4.5,3.6,8.1,8.1,8.1h42.6v-16.2H670.1z"/>
<path class="st3" d="M297.9,244.1c-3.2,3.2-3.2,8.3,0,11.4c3.2,3.2,8.3,3.2,11.4,0l33.8-33.8c-4.3-3.3-8.5-6.7-12.6-10.3
	L297.9,244.1z"/>
<path class="st4" d="M629.3-108.7l-33.8-33.8c-1.3-1.3-3-2-4.9-2s-3.6,0.7-4.9,2l-39,39c-2.7,2.7-2.7,7,0,9.7L580.6-60
	c1.3,1.3,3,2,4.9,2s3.6-0.7,4.9-2l39-39C632-101.7,632-106,629.3-108.7z"/>
<path class="st5" d="M629.3-99c2.7-2.7,2.7-7,0-9.7l-33.8-33.8c-1.3-1.3-3-2-4.9-2s-3.6,0.7-4.9,2l-6.2,6.2L623-92.6L629.3-99z"/>
<path class="st6" d="M346.6-142.5l-33.8,33.8c-1.3,1.3-2,3-2,4.9s0.7,3.6,2,4.9l39,39c2.7,2.7,7,2.7,9.7,0l33.8-33.8
	c1.3-1.3,2-3,2-4.9c0-1.8-0.7-3.6-2-4.9l-39-39C353.7-145.2,349.3-145.2,346.6-142.5z"/>
<path class="st5" d="M356.4-142.5c-2.7-2.7-7-2.7-9.7,0l-33.8,33.8c-1.3,1.3-2,3-2,4.9s0.7,3.6,2,4.9l6.2,6.2l43.5-43.5L356.4-142.5
	z"/>
<path class="st7" d="M485.6-178.3h-29.4c-3.8,0-6.9,3.1-6.9,6.8v40.4c0,3.8,3.1,6.8,6.9,6.8h29.4c3.8,0,6.9-3.1,6.9-6.8v-40.4
	C492.4-175.2,489.4-178.3,485.6-178.3z"/>
<path class="st1" d="M507.6-204h-73.5c-3.8,0-6.8,3.1-6.8,6.8v29.4c0,3.8,3.1,6.8,6.8,6.8h73.5c3.8,0,6.9-3.1,6.9-6.8v-29.4
	C514.5-200.9,511.4-204,507.6-204z"/>
<path class="st0" d="M434.1-204c-3.8,0-6.8,3.1-6.8,6.8v29.4c0,3.8,3.1,6.8,6.8,6.8h36.7V-204H434.1z"/>
<path class="st3" d="M500.2-168.2c-3.8,0-6.9-3.1-6.9-6.8v-14.7c0-3.8,3.1-6.8,6.9-6.8c3.8,0,6.9,3.1,6.9,6.8v14.7
	C507.1-171.2,504-168.2,500.2-168.2z"/>
<path class="st1" d="M470.8-134.1c-103,0-186.9,83.9-186.9,186.9s83.9,186.9,186.9,186.9s186.9-83.9,186.9-186.9
	S574-134.1,470.8-134.1z"/>
<path class="st0" d="M283.9,52.8c0,103,83.9,186.9,186.9,186.9v-373.9C367.8-134.1,283.9-50.3,283.9,52.8z"/>
<g>
	<path class="st5" d="M471.4-68.2v-17.3c-23.5,0-47.3,5.9-69.2,18.5l0,0l8.7,15.1C428.7-62.3,449.3-68.2,471.4-68.2L471.4-68.2z"/>
	<path class="st5" d="M471.4-50.9L471.4-50.9v-17.3l0,0c-22,0-42.6,5.9-60.4,16.2l8.7,15C434.8-45.8,452.5-50.9,471.4-50.9z"/>
	<path class="st5" d="M419.5-37l8.7,15c12.7-7.3,27.5-11.5,43.2-11.5l0,0v-17.3l0,0C452.5-50.9,434.8-45.8,419.5-37z"/>
	<path class="st5" d="M428.2-22l8.7,15c10.1-5.9,21.9-9.3,34.4-9.3l0,0v-17.3l0,0C455.7-33.5,440.9-29.3,428.2-22z"/>
	<path class="st5" d="M436.9-6.9l8.7,15c7.6-4.4,16.4-6.9,25.8-6.9l0,0v-17.3l0,0C458.8-16.2,447.1-12.8,436.9-6.9z"/>
	<path class="st5" d="M445.5,8.1l8.7,15c5-2.9,10.9-4.6,17.2-4.6l0,0V1.1l0,0C462,1.1,453.2,3.6,445.5,8.1z"/>
	<path class="st5" d="M454.2,23.1l17.2,29.6V18.5l0,0C465.1,18.5,459.3,20.1,454.2,23.1z"/>
	<path class="st5" d="M471.4-85.5v17.3c22,0,42.6,5.9,60.5,16.2l7.8-13.6l-4.2-4.2C516.3-79.8,494.5-85.5,471.4-85.5z"/>
	<path class="st5" d="M535.5-69.7l4.2,4.2l0.8-1.4C538.9-67.9,537.2-68.8,535.5-69.7z"/>
	<path class="st4" d="M471.4-50.9c18.9,0,36.6,5,51.8,13.9l8.7-15c-17.8-10.3-38.5-16.2-60.5-16.2V-50.9z"/>
	<path class="st6" d="M471.4-33.5c15.7,0,30.4,4.2,43.2,11.6l8.7-15c-15.3-8.8-32.9-14-51.8-14V-33.5z"/>
	<path class="st8" d="M471.4-16.2c12.6,0,24.4,3.4,34.5,9.3l8.7-15c-12.7-7.4-27.5-11.6-43.2-11.6V-16.2z"/>
	<path class="st2" d="M471.4,1.1c9.4,0,18.2,2.5,25.8,6.9l8.7-15c-10.1-5.9-21.9-9.3-34.5-9.3V1.1z"/>
	<path class="st9" d="M471.4,18.5c6.2,0,12.1,1.7,17.2,4.6l8.7-15c-7.6-4.4-16.4-6.9-25.8-6.9V18.5z"/>
	<path class="st10" d="M471.4,52.8l17.2-29.7c-5-2.9-10.9-4.6-17.2-4.6V52.8z"/>
	<path class="st5" d="M539.7-65.6L531.8-52c18.3,10.7,33.6,26,44.2,44.3l15.1-8.7c-3.4-6-7.3-11.7-11.7-17.2
		c-6.2-1.2-11.9-4.2-16.5-8.7L539.7-65.6z"/>
	<path class="st5" d="M540.5-67.1l-0.9,1.5L563-42.3c4.6,4.6,10.3,7.6,16.5,8.7C569-46.7,556-58.1,540.5-67.1z"/>
	<path class="st4" d="M531.8-52l-8.7,15c15.7,9.2,28.8,22.3,37.9,38l15-8.7C565.4-26.1,550.1-41.3,531.8-52z"/>
	<path class="st6" d="M523.2-36.9l-8.7,15c13.1,7.6,24,18.5,31.5,31.5l15-8.7C552-14.7,538.9-27.8,523.2-36.9z"/>
	<path class="st8" d="M514.5-21.9l-8.7,15c10.5,6.1,19.2,14.8,25.2,25.2l15-8.7C538.5-3.5,527.6-14.4,514.5-21.9z"/>
	<path class="st2" d="M505.9-6.9l-8.7,15c7.8,4.5,14.3,11.1,18.9,18.9l15-8.7C525,7.9,516.2-0.9,505.9-6.9z"/>
	<path class="st9" d="M497.2,8.1l-8.7,15c5.2,3,9.5,7.4,12.5,12.6l15-8.7C511.5,19.2,505,12.6,497.2,8.1z"/>
	<path class="st9" d="M488.5,23.1l-17.2,29.7L501,35.6C498.1,30.4,493.7,26.1,488.5,23.1z"/>
	<path class="st5" d="M592.3,52.8h17.3c0-23.5-5.9-47.3-18.5-69.2l0,0L576-7.7C586.4,10.1,592.3,30.7,592.3,52.8
		C592.3,52.7,592.3,52.7,592.3,52.8z"/>
	<path class="st4" d="M574.9,52.7L574.9,52.7h17.3l0,0c0-22-5.9-42.6-16.2-60.4l-15,8.7C569.9,16.2,574.9,33.9,574.9,52.7z"/>
	<path class="st6" d="M561.1,1l-15,8.7c7.4,12.7,11.5,27.4,11.5,43.1l0,0h17.3l0,0C574.9,33.9,569.9,16.2,561.1,1z"/>
	<path class="st8" d="M546.1,9.6l-15,8.7c5.9,10.1,9.3,21.8,9.3,34.4l0,0h17.3l0,0C557.6,37,553.4,22.3,546.1,9.6z"/>
	<path class="st2" d="M516,27c4.4,7.6,6.9,16.4,6.9,25.7l0,0h17.3l0,0c0-12.6-3.4-24.3-9.3-34.4L516,27z"/>
	<path class="st2" d="M501,35.6c2.9,5,4.6,10.8,4.6,17.1l0,0h17.3l0,0c0-9.4-2.5-18.2-6.9-25.7L501,35.6z"/>
	<path class="st2" d="M471.4,52.8h34.2l0,0c0-6.2-1.6-12-4.6-17.1L471.4,52.8z"/>
	<path class="st5" d="M592.3,52.8c0,22-5.9,42.6-16.2,60.4l15.1,8.7c11.8-20.4,18.5-43.9,18.5-69.2l0,0L592.3,52.8L592.3,52.8z"/>
	<path class="st4" d="M574.9,52.8c0,18.8-5.1,36.6-14,51.7l15,8.7c10.3-17.8,16.2-38.4,16.2-60.4H574.9z"/>
	<path class="st6" d="M557.6,52.8c0,15.7-4.2,30.4-11.6,43.1l15,8.7c8.8-15.3,13.9-32.9,14-51.7H557.6z"/>
	<path class="st8" d="M540.3,52.8c0,12.6-3.4,24.3-9.3,34.4l15,8.7c7.4-12.7,11.6-27.4,11.6-43.1H540.3z"/>
	<path class="st8" d="M516,78.5l15,8.7c5.9-10.1,9.3-21.9,9.3-34.4h-17.3C522.9,62.1,520.4,70.9,516,78.5z"/>
	<path class="st8" d="M501,69.9l15,8.7c4.4-7.6,6.9-16.4,6.9-25.7h-17.3C505.6,58.9,503.9,64.8,501,69.9z"/>
	<path class="st8" d="M501,69.9c2.9-5,4.6-10.9,4.6-17.1h-34.2L501,69.9z"/>
	<path class="st5" d="M531.8,157.4l8.7,15.1c20.4-11.7,38-28.8,50.6-50.6l0,0l-15-8.7C565.4,131.5,550.1,146.8,531.8,157.4z"/>
	<path class="st4" d="M576,113.2l-15-8.7c-9.1,15.7-22.2,28.8-37.9,37.9l8.7,15C550.1,146.8,565.4,131.5,576,113.2z"/>
	<path class="st6" d="M546.1,95.9c-7.5,13.1-18.5,24-31.5,31.5l8.7,15c15.7-9.1,28.8-22.2,37.9-37.9L546.1,95.9z"/>
	<path class="st6" d="M505.8,112.4l8.7,15c13.1-7.5,24-18.5,31.5-31.5l-15-8.7C524.9,97.6,516.2,106.3,505.8,112.4z"/>
	<path class="st6" d="M497.1,97.4l8.7,15c10.5-6.1,19.2-14.7,25.2-25.2l-15-8.7C511.5,86.3,504.9,92.8,497.1,97.4z"/>
	<path class="st6" d="M488.4,82.3l8.7,15c7.8-4.5,14.4-11,18.9-18.9l-15-8.7C498,75.1,493.6,79.4,488.4,82.3z"/>
	<path class="st6" d="M488.4,82.3c5.2-3,9.5-7.4,12.6-12.5l-29.6-17.2L488.4,82.3z"/>
	<path class="st5" d="M471.4,173.6V191c23.5,0,47.3-5.9,69.2-18.5l0,0l-8.8-15.2C514,167.7,493.4,173.6,471.4,173.6L471.4,173.6z"/>
	<path class="st4" d="M471.4,156.3L471.4,156.3v17.3l0,0c22,0,42.6-5.9,60.4-16.2l-8.7-15C507.8,151.2,490.2,156.3,471.4,156.3z"/>
	<path class="st6" d="M471.4,138.9L471.4,138.9v17.3l0,0c18.8,0,36.5-5,51.7-13.9l-8.7-15C501.8,134.8,487,138.9,471.4,138.9z"/>
	<path class="st6" d="M471.4,121.6L471.4,121.6v17.3l0,0c15.7,0,30.4-4.2,43.1-11.5l-8.7-15C495.6,118.2,483.9,121.6,471.4,121.6z"
		/>
	<path class="st6" d="M471.4,104.3L471.4,104.3v17.3l0,0c12.6,0,24.3-3.4,34.4-9.3l-8.7-15C489.6,101.7,480.7,104.3,471.4,104.3z"/>
	<path class="st6" d="M471.4,86.9L471.4,86.9v17.3l0,0c9.4,0,18.2-2.5,25.7-6.9l-8.7-15C483.4,85.3,477.6,86.9,471.4,86.9z"/>
	<path class="st6" d="M471.4,86.9L471.4,86.9c6.2,0,12-1.6,17.1-4.6l-17.1-29.6V86.9z"/>
	<path class="st5" d="M402.2,172.5c20.4,11.8,43.9,18.5,69.2,18.5l0,0v-17.4c-22,0-42.6-5.9-60.4-16.2L402.2,172.5z"/>
	<path class="st4" d="M419.5,142.4l-8.7,15c17.8,10.3,38.4,16.2,60.4,16.2v-17.3C452.5,156.3,434.8,151.2,419.5,142.4z"/>
	<path class="st4" d="M419.5,142.4c15.3,8.8,32.9,13.9,51.7,13.9v-17.3c-15.7,0-30.4-4.2-43.1-11.6L419.5,142.4z"/>
	<path class="st4" d="M428.2,127.4c12.7,7.4,27.4,11.5,43.1,11.6v-17.3c-12.6,0-24.3-3.4-34.4-9.3L428.2,127.4z"/>
	<path class="st4" d="M437,112.4c10.1,5.9,21.9,9.3,34.4,9.3v-17.3c-9.4,0-18.2-2.5-25.7-6.9L437,112.4z"/>
	<path class="st4" d="M445.5,97.3c7.6,4.4,16.4,6.9,25.7,6.9V86.9c-6.2,0-12-1.6-17.1-4.6L445.5,97.3z"/>
	<path class="st4" d="M471.4,86.9V52.7l-17.1,29.6C459.3,85.3,465.1,86.9,471.4,86.9z"/>
	<path class="st5" d="M366.7,113.2l-15.1,8.7c11.7,20.4,28.8,38,50.6,50.6l0,0l8.8-15.1C392.6,146.8,377.3,131.5,366.7,113.2z"/>
	<path class="st4" d="M381.7,104.5l-15,8.7c10.7,18.3,25.9,33.6,44.3,44.2l8.7-15C403.8,133.3,390.8,120.2,381.7,104.5z"/>
	<path class="st4" d="M396.7,95.9l-15,8.7c9.1,15.7,22.2,28.8,37.9,37.9l8.7-15C415.2,119.9,404.3,108.9,396.7,95.9z"/>
	<path class="st4" d="M411.7,87.2l-15,8.7c7.5,13.1,18.5,24,31.5,31.5l8.7-15C426.5,106.3,417.8,97.6,411.7,87.2z"/>
	<path class="st4" d="M426.7,78.5l-15,8.7c6.1,10.5,14.7,19.2,25.2,25.2l8.7-15C437.7,92.8,431.2,86.3,426.7,78.5z"/>
	<path class="st4" d="M441.7,69.9l-15,8.7c4.5,7.8,11.1,14.3,18.9,18.9l8.7-15C449.1,79.4,444.8,75.1,441.7,69.9z"/>
	<path class="st4" d="M454.2,82.3l17.2-29.6l-29.6,17.2C444.8,75.1,449.1,79.4,454.2,82.3z"/>
	<path class="st5" d="M333.1,52.7c0,23.5,5.9,47.3,18.5,69.2l0,0l15.1-8.7c-10.3-17.8-16.2-38.5-16.2-60.5H333.1z"/>
	<path class="st5" d="M367.8,52.7h-17.3c0,22,5.9,42.6,16.2,60.5l15-8.7C372.8,89.3,367.8,71.6,367.8,52.7z"/>
	<path class="st5" d="M367.8,52.7c0,18.9,5,36.6,13.9,51.8l15-8.7C389.3,83.2,385,68.5,385,52.7H367.8z"/>
	<path class="st5" d="M385.1,52.7c0,15.7,4.2,30.4,11.6,43.2l15-8.7c-5.9-10.1-9.3-21.9-9.3-34.4L385.1,52.7L385.1,52.7z"/>
	<path class="st5" d="M402.5,52.7c0,12.6,3.4,24.3,9.3,34.4l15-8.7c-4.4-7.6-6.9-16.4-6.9-25.8L402.5,52.7L402.5,52.7z"/>
	<path class="st5" d="M419.8,52.7c0,9.4,2.5,18.2,6.9,25.8l15-8.7c-2.9-5-4.6-10.9-4.6-17.2H419.8z"/>
	<path class="st5" d="M441.7,69.9l29.6-17.2h-34.2C437.1,58.9,438.8,64.8,441.7,69.9z"/>
	<path class="st5" d="M351.6-16.5C339.8,3.9,333,27.5,333,52.7l0,0h17.4c0-22,5.9-42.6,16.2-60.4L351.6-16.5z"/>
	<path class="st5" d="M381.7,1l-15-8.7c-10.3,17.8-16.2,38.5-16.2,60.4h17.3C367.8,33.9,372.8,16.2,381.7,1z"/>
	<path class="st5" d="M367.8,52.7h17.3c0-15.7,4.2-30.4,11.6-43.2l-15-8.7C372.8,16.2,367.8,33.9,367.8,52.7z"/>
	<path class="st5" d="M385.1,52.7h17.3c0-12.6,3.4-24.3,9.3-34.4l-15-8.7C389.3,22.3,385.1,37,385.1,52.7z"/>
	<path class="st5" d="M402.5,52.7h17.3c0-9.4,2.5-18.2,6.9-25.7l-15-8.7C405.8,28.4,402.5,40.1,402.5,52.7z"/>
	<path class="st5" d="M419.8,52.7h17.3c0-6.2,1.6-12,4.6-17.2l-15-8.7C422.3,34.5,419.8,43.3,419.8,52.7z"/>
	<path class="st5" d="M437.1,52.7h34.2l-29.6-17.2C438.8,40.6,437.1,46.5,437.1,52.7z"/>
	<path class="st5" d="M411-52l-8.7-15.1c-20.4,11.7-38,28.8-50.6,50.6l0,0l15.1,8.7C377.2-26.1,392.6-41.3,411-52z"/>
	<path class="st5" d="M419.6-37L411-52c-18.4,10.7-33.6,25.9-44.3,44.3l15,8.7C390.8-14.8,403.8-27.9,419.6-37z"/>
	<path class="st5" d="M381.7,1l15,8.7c7.5-13.1,18.5-24,31.5-31.5l-8.7-15C403.8-27.9,390.8-14.8,381.7,1z"/>
	<path class="st5" d="M396.7,9.6l15,8.7c6.1-10.5,14.7-19.2,25.2-25.2L428.2-22C415.2-14.4,404.3-3.5,396.7,9.6z"/>
	<path class="st5" d="M411.7,18.3l15,8.7c4.5-7.8,11.1-14.4,18.9-18.9l-8.7-15C426.5-0.9,417.7,7.8,411.7,18.3z"/>
	<path class="st5" d="M426.7,27l15,8.7c3-5.2,7.4-9.5,12.6-12.6l-8.7-15C437.7,12.6,431.2,19.1,426.7,27z"/>
	<path class="st5" d="M441.7,35.6l29.6,17.1l-17.2-29.6C449.1,26.1,444.8,30.4,441.7,35.6z"/>
</g>
<path class="st7" d="M527.9,159.3c-1.7-0.4-3.2-1.6-4.2-3.2l-57.9-98.5c-1.9-3.3-0.9-7.5,2.4-9.4c3.3-1.9,7.5-0.9,9.4,2.4l57.9,98.6
	c1.9,3.3,0.9,7.5-2.4,9.4C531.4,159.6,529.5,159.7,527.9,159.3z"/>
<path class="st11" d="M492.9,59.6c-3.8,0-6.9-3.1-6.9-6.9c0-8.3-6.8-15.2-15.2-15.2c-3.8,0-6.8-3.1-6.8-6.9s3.1-6.9,6.8-6.9
	c15.9,0,28.9,13,28.9,28.9C499.8,56.6,496.7,59.6,492.9,59.6z"/>
</svg>
