<?xml version="1.0" encoding="utf-8"?>
<!-- Generator: Adobe Illustrator 19.0.0, SVG Export Plug-In . SVG Version: 6.00 Build 0)  -->
<svg version="1.1" id="Layer_1" xmlns="http://www.w3.org/2000/svg" xmlns:xlink="http://www.w3.org/1999/xlink" x="0px" y="0px"
	 viewBox="206 -206 512 512" style="enable-background:new 206 -206 512 512;" xml:space="preserve">
<style type="text/css">
	.st0{display:none;}
	.st1{fill:#687F82;}
	.st2{fill:#FD6A33;}
	.st3{fill:#FF8C29;}
	.st4{fill:#0295AA;}
	.st5{fill:#4ACFD9;}
	.st6{fill:#9BAAAB;}
	.st7{fill:#CDD4D5;}
	.st8{fill:#365558;}
	.st9{fill:#FFFFFF;}
</style>
<rect id="XMLID_4_" x="206" y="-206" class="st0" width="512" height="512"/>
<path id="XMLID_10_" class="st1" d="M456.3,48.6l4.8,4.8c0.1-3.1,0.1-6.3-0.1-9.4L456.3,48.6z"/>
<path id="XMLID_11_" class="st2" d="M482.9,119.4c-4-5.7-7.7-6.3-9.9-6.3s-5.6-0.2-10.5,6.3l-54.3,68.7c-4,6.9-4.1,11.5-3,13.5
	c1.1,1.9,5.2,4.2,13.1,4.2l105.5,0c7.9,0,12-2.3,13.1-4.2c1.1-1.9,1-6.6-3-13.5L482.9,119.4z"/>
<path id="XMLID_3_" class="st3" d="M471.9,26.1c-2.2,0-1.8-19.2-9.6-32.6l-9.1-14.8c-6.9-11.2-5-17.1-4.2-20.7
	c1.5-6.5,13.9-15.3,25.5-19.6c19.9-7.4,19.5-15.3,26.8-17.6c7.3-2.2,11.6,2.2,12.7,4c1.1,1.9,1,6.4-2.9,13L482-6.5
	C478.2,0.1,471.3,14.4,471.9,26.1z"/>
<path id="XMLID_1_" class="st4" d="M556.6,213.3c-3,5.3-10.8,8.3-21.3,8.3l-124.7,0c-10.5,0-18.3-3-21.3-8.3
	c-3-5.3-1.8-13.5,3.5-22.6l62.5-108.2l0.1-0.2c10.1-18.7,10.6-46,1.7-65.3L449.6,4l-56.9-98.6c-1.9-3.3-3.3-6.5-4.1-9.5l-14.1-24.9
	c-0.5,0.8-1.1,1.5-1.5,2.4c-6.6,11.4-5.3,26.1,3.5,41.3l62.3,107.9c7.6,13.8,7.6,36.5,0,50.7l-62.3,108c-8.8,15.3-10.1,30-3.5,41.3
	c6.6,11.4,19.9,17.6,37.5,17.6l124.7,0c16.7,0,29.6-5.7,36.5-15.9l-15.1-26.1C558.7,204.3,558.8,209.6,556.6,213.3z"/>
<path id="XMLID_2_" class="st5" d="M535.3-144.2l-124.7,0c-16.4,0-29,5.4-36,15.3l14.1,24.9c-1.5-5.2-1.3-9.8,0.6-13.2
	c3-5.3,10.8-8.3,21.3-8.3l124.7,0c10.5,0,18.3,3,21.3,8.3c3,5.3,1.8,13.5-3.5,22.6l-62.4,108c-13.7,23.8-9.6,52.6,0,69.3l62.4,108
	c1.5,2.6,2.7,5.1,3.5,7.6l15.1,26.1c0.4-0.6,0.7-1.1,1.1-1.7c6.6-11.4,5.3-26.1-3.5-41.3L507,73.4c-7.1-12.3-9.5-34.1,0-50.6
	l62.4-108c8.8-15.3,10.1-30,3.5-41.3C566.2-137.9,552.9-144.2,535.3-144.2z"/>
<path id="XMLID_27_" class="st6" d="M708.7-197.7c-3-1.3-6.5-0.6-8.8,1.8l-99.6,99.6c-1.7,7.9-4.9,15.9-9.4,23.7l-62.4,108
	c-4.6,7.9-3.1,20.2,0,25.6l10.3,17.9l93.9-94.3v239.7h-33.5c-1.2,3.8-2.8,7.5-4.9,11.1c-0.7,1.2-1.4,2.3-1.9,3.1
	c-11.7,17.4-32,27-57.2,27l-124.7,0c0,0,0,0,0,0c-26.6,0-48.1-11-59.2-30.1c-11.1-19.2-9.8-43.3,3.5-66.3l27.1-47L212.7,291.2
	c-2.3,2.3-3,5.8-1.8,8.8c1.3,3,4.2,5,7.5,5h487.2c4.5,0,8.1-3.6,8.1-8.1v-487.2C713.7-193.5,711.7-196.5,708.7-197.7z"/>
<path id="XMLID_17_" class="st7" d="M708.7-197.7c-3-1.3-6.5-0.6-8.8,1.8l-99.6,99.6c-1.7,7.9-4.9,15.9-9.4,23.7l-62.4,108
	c-4.6,7.9-3.1,20.2,0,25.6l10.3,17.9l93.9-94.3v239.7l78.5,78.5c1.5-1.5,2.4-3.5,2.4-5.7v-487.2
	C713.7-193.5,711.7-196.5,708.7-197.7z"/>
<g id="XMLID_13_">
	<path id="XMLID_21_" class="st8" d="M663,232.3c0,4.5,3.6,8.1,8.1,8.1h42.6v-16.2h-42.6C666.7,224.2,663,227.8,663,232.3z"/>
	<path id="XMLID_20_" class="st8" d="M663,167.6c0,4.5,3.6,8.1,8.1,8.1h42.6v-16.2h-42.6C666.7,159.5,663,163.1,663,167.6z"/>
	<path id="XMLID_19_" class="st8" d="M663,102.9c0,4.5,3.6,8.1,8.1,8.1h42.6V94.8h-42.6C666.7,94.8,663,98.5,663,102.9z"/>
	<path id="XMLID_18_" class="st8" d="M663,38.2c0,4.5,3.6,8.1,8.1,8.1h42.6V30.2h-42.6C666.7,30.2,663,33.8,663,38.2z"/>
	<path id="XMLID_15_" class="st8" d="M663-26.4c0,4.5,3.6,8.1,8.1,8.1h42.6v-16.2h-42.6C666.7-34.5,663-30.9,663-26.4z"/>
	<path id="XMLID_14_" class="st8" d="M663-91.1c0,4.5,3.6,8.1,8.1,8.1h42.6v-16.2h-42.6C666.7-99.2,663-95.6,663-91.1z"/>
</g>
<path id="XMLID_22_" class="st9" d="M344,203l-45.1,45.1c-3.2,3.2-3.2,8.3,0,11.4c3.2,3.2,8.3,3.2,11.4,0l36-36
	C344.3,217,343.6,210.1,344,203z"/>
</svg>
