<?xml version="1.0" encoding="utf-8"?>
<!-- Generator: Adobe Illustrator 19.0.0, SVG Export Plug-In . SVG Version: 6.00 Build 0)  -->
<svg version="1.1" id="Layer_1" xmlns="http://www.w3.org/2000/svg" xmlns:xlink="http://www.w3.org/1999/xlink" x="0px" y="0px"
	 viewBox="206 -206 512 512" style="enable-background:new 206 -206 512 512;" xml:space="preserve">
<style type="text/css">
	.st0{display:none;}
	.st1{fill:#9BAAAB;}
	.st2{fill:#687F82;}
	.st3{fill:#FD6A33;}
	.st4{fill:#FF8C29;}
	.st5{fill:#0295AA;}
	.st6{fill:#4ACFD9;}
	.st7{fill:#FFD1A9;}
	.st8{fill:#F0353D;}
</style>
<rect id="XMLID_4_" x="206" y="-206" class="st0" width="512" height="512"/>
<path id="XMLID_65_" class="st1" d="M710.2-159H415c7.1,4.1,13,9.5,17.7,16h64.3v78h-69.1l-9.3,16h78.4v86.6h-90.9v-65L390,0.5v37.2
	h-21.3c-2.1,4.9-2.3,11-1.5,16H390v43l16,27.8V53.7h90.9v86.6h-81.7l9.3,16h72.4v86.6h-66.4c-5.5,6.8-12.4,12.2-20.6,16h300.2
	c4.4,0,8-3.6,8-8V-151C718.2-155.4,714.6-159,710.2-159z M603.8,242.9H513v-86.6h0h90.9V242.9z M603.8,140.3H513v0V53.7h90.9V140.3z
	 M603.8,37.7H513v-86.6h90.9V37.7z M603.8-64.9H513v-78h90.9V-64.9z M702.2,242.9h-82.3v-86.6h82.3V242.9z M702.2,140.3h-82.3V53.7
	h82.3V140.3z M702.2,37.7h-82.3v-86.6h82.3V37.7z M702.2-64.9h-82.3v-78h82.3V-64.9z"/>
<path id="XMLID_37_" class="st2" d="M503.9-159H415c7.1,4.1,13,9.5,17.7,16h64.3v78h-69.1l-9.3,16h78.4v86.6h-90.9v-65L390,0.5v37.2
	h-21.3c-2.1,4.9-2.3,11-1.5,16H390v43l16,27.8V53.7h90.9v86.6h-81.7l9.3,16h72.4v86.6h-66.4c-5.5,6.8-12.4,12.2-20.6,16h93.9V-159z"
	/>
<path id="XMLID_14_" class="st2" d="M296.3,48.6l4.8,4.8c0.1-3.1,0.1-6.3-0.1-9.4L296.3,48.6z"/>
<path id="XMLID_13_" class="st3" d="M322.9,119.4c-4-5.7-7.7-6.3-9.9-6.3c-2.2,0-5.6-0.2-10.5,6.3l-54.3,68.7
	c-4,6.9-4.1,11.5-3,13.5c1.1,1.9,5.2,4.2,13.1,4.2l105.5,0c7.9,0,12-2.3,13.1-4.2s1-6.6-3-13.5L322.9,119.4z"/>
<path id="XMLID_11_" class="st4" d="M341.3-79.2c-7.3,2.2-6.9,10.2-26.8,17.6c-11.6,4.3-24,13.1-25.5,19.6
	c-0.8,3.6-2.7,9.5,4.2,20.7l9.1,14.8c7.9,13.4,7.5,32.6,9.6,32.6c-0.6-11.7,6.3-26,10.1-32.6l29.2-55.6c3.8-6.6,3.9-11.2,2.9-13
	C352.9-77.1,348.6-81.5,341.3-79.2z"/>
<path id="XMLID_10_" class="st5" d="M396.6,213.3c-3,5.3-10.8,8.3-21.3,8.3l-124.7,0c-10.5,0-18.3-3-21.3-8.3
	c-3-5.3-1.8-13.5,3.5-22.6l62.5-108.2l0.1-0.2c10.1-18.7,10.6-46,1.7-65.3L289.6,4l-56.9-98.6c-1.9-3.3-3.3-6.5-4.1-9.5l-14.1-24.9
	c-0.5,0.8-1.1,1.5-1.5,2.4c-6.6,11.4-5.3,26.1,3.5,41.3l62.3,107.9c7.6,13.8,7.6,36.5,0,50.7l-62.3,108c-8.8,15.3-10.1,30-3.5,41.3
	c6.6,11.4,19.9,17.6,37.5,17.6l124.7,0c16.7,0,29.6-5.7,36.5-15.9l-15.1-26.1C398.7,204.3,398.8,209.6,396.6,213.3z"/>
<path id="XMLID_9_" class="st6" d="M347,73.4c-7.1-12.3-9.5-34.1,0-50.6l62.4-108c8.8-15.3,10.1-30,3.5-41.3
	c-6.6-11.4-19.9-17.6-37.5-17.6l-124.7,0c-16.4,0-29,5.4-36,15.3l14.1,24.9c-1.5-5.2-1.3-9.8,0.6-13.2c3-5.3,10.8-8.3,21.3-8.3
	l124.7,0c10.5,0,18.3,3,21.3,8.3c3,5.3,1.8,13.5-3.5,22.6l-62.4,108c-13.7,23.8-9.6,52.6,0,69.3l62.4,108c1.5,2.6,2.7,5.1,3.5,7.6
	l15.1,26.1c0.4-0.6,0.7-1.1,1.1-1.7c6.6-11.4,5.3-26.1-3.5-41.3L347,73.4z"/>
<path id="XMLID_16_" class="st7" d="M408.6-7c-10.5,0-19,8.5-19,19v68c0,10.5,8.5,19,19,19h106.2V-7H408.6z"/>
<path id="XMLID_17_" class="st8" d="M640,80V12c0-10.5-8.5-19-19-19H514.8V99H621C631.5,99,640,90.5,640,80z"/>
<rect id="XMLID_6_" x="447" y="-7" class="st4" width="59.8" height="106"/>
<rect id="XMLID_7_" x="506.8" y="-7" class="st3" width="59.8" height="106"/>
<g id="XMLID_5_">
	<path id="XMLID_22_" class="st8" d="M589.2-32c0-14.8,9.2-19.1,20.4-9.4L693.6,31c11.2,9.7,11.2,25.6,0,35.3l-83.9,72.4
		c-11.2,9.7-20.4,5.5-20.4-9.4V-32z"/>
</g>
</svg>
