<?xml version="1.0" encoding="utf-8"?>
<!-- Generator: Adobe Illustrator 19.0.0, SVG Export Plug-In . SVG Version: 6.00 Build 0)  -->
<svg version="1.1" id="Layer_1" xmlns="http://www.w3.org/2000/svg" xmlns:xlink="http://www.w3.org/1999/xlink" x="0px" y="0px"
	 viewBox="96 11 512 512" style="enable-background:new 96 11 512 512;" xml:space="preserve">
<style type="text/css">
	.st0{fill:#FF8C29;}
	.st1{fill:#FFD1A9;}
	.st2{fill:#FD6A33;}
	.st3{fill:#687F82;}
	.st4{fill:#CDD4D5;}
	.st5{fill:#9BAAAB;}
	.st6{fill:#FFFFFF;}
	.st7{display:none;fill:#4ACFD9;}
	.st8{display:none;fill:#0295AA;}
	.st9{display:none;fill:#FD6A33;}
	.st10{fill:#F0353D;}
	.st11{fill:#365558;}
	.st12{fill:#0295AA;}
	.st13{fill:#4ACFD9;}
	.st14{display:none;fill:#687F82;}
	.st15{display:none;fill:#FFFFFF;}
</style>
<polygon class="st0" points="516.4,141.7 516.4,150.9 525.6,141.7 "/>
<polygon class="st0" points="465.9,141.7 465.9,164.6 467.9,166.5 491.5,166.5 491.5,141.7 "/>
<polygon class="st0" points="500.8,166.5 491.5,166.5 491.5,175.8 "/>
<polygon class="st0" points="516.4,102.7 516.4,116.1 529.8,116.1 "/>
<polygon class="st0" points="491.5,91.2 475.7,91.2 465.9,101 465.9,116.1 491.5,116.1 "/>
<polygon class="st0" points="450.8,116.1 441.1,125.8 441.1,139.8 443,141.7 465.9,141.7 465.9,116.1 "/>
<rect x="491.5" y="116.1" class="st0" width="24.9" height="25.6"/>
<path class="st0" d="M505,91.2l-9-9c-1.2-1.2-2.7-1.9-4.4-2.2v11.2H505z"/>
<polygon class="st1" points="516.4,102.7 516.4,116.1 529.8,116.1 "/>
<polygon class="st1" points="479.3,91.2 491.5,103.5 491.5,91.2 "/>
<polygon class="st1" points="504.1,116.1 516.4,128.4 516.4,116.1 "/>
<path class="st1" d="M505,91.2l-9-9c-1.2-1.2-2.7-1.9-4.4-2.2v11.2H505z"/>
<polygon class="st2" points="239.3,101.7 228.9,91.2 213.7,91.2 213.7,116.1 239.3,116.1 "/>
<polygon class="st2" points="188.8,116.1 188.8,102 174.7,116.1 "/>
<polygon class="st2" points="239.3,163.9 239.3,141.7 213.7,141.7 213.7,166.5 236.7,166.5 "/>
<polygon class="st2" points="178.9,141.7 188.8,151.6 188.8,141.7 "/>
<polygon class="st2" points="203.8,166.5 213.7,176.5 213.7,166.5 "/>
<rect x="188.8" y="116.1" class="st2" width="24.8" height="25.6"/>
<polygon class="st2" points="253.7,116.1 239.3,116.1 239.3,141.7 261.5,141.7 264.1,139.1 264.1,126.5 "/>
<path class="st2" d="M208.6,82.2l-9,9h14.1V79.9C211.8,80,210,80.8,208.6,82.2z"/>
<polygon class="st1" points="213.7,91.2 213.7,102.8 225.3,91.2 "/>
<polygon class="st1" points="174.8,116.1 188.8,116.1 188.8,102.1 "/>
<polygon class="st1" points="200.4,116.1 188.8,116.1 188.8,127.7 "/>
<path class="st1" d="M208.7,82.2l-9,9h14V79.9C211.9,80,210.1,80.8,208.7,82.2z"/>
<path class="st3" d="M377,48.8c-0.1-4.4-3.6-7.9-8-7.9h-4v24.8h12V48.8z"/>
<path class="st3" d="M335.1,40.9c-4.4,0-8,3.6-8,7.9v16.9h13.1V40.9H335.1z"/>
<rect x="340.2" y="65.7" class="st3" width="24.9" height="25.6"/>
<rect x="365" y="40.8" class="st4" width="25.6" height="20.1"/>
<rect x="314.6" y="40.8" class="st4" width="25.6" height="20.1"/>
<path class="st4" d="M309.6,11.2c-4.4,0-7.9,3.6-7.9,7.9v21.7h12.9V11.2H309.6z"/>
<path class="st4" d="M402.4,19.1c0-4.3-3.6-7.9-8-7.9h-3.8v29.6h11.8V19.1z"/>
<rect x="340.2" y="11.2" class="st4" width="24.9" height="29.6"/>
<rect x="314.6" y="40.8" class="st5" width="25.6" height="20.1"/>
<path class="st5" d="M309.6,11.2c-4.4,0-7.9,3.6-7.9,7.9v21.7h12.9V11.2H309.6z"/>
<rect x="340.2" y="11.2" class="st5" width="11.8" height="29.6"/>
<path class="st6" d="M390.6,40.8V51c2-1.4,3.3-3.7,3.3-6.4v-3.8H390.6z"/>
<path class="st6" d="M377.9,40.8v3.8c0,4.3,3.6,7.9,8,7.9c1.8,0,3.4-0.6,4.7-1.5V40.8H377.9z"/>
<path class="st6" d="M393.9,27.6c0-2.6-1.3-4.9-3.3-6.3v19.5h3.3V27.6z"/>
<path class="st4" d="M441.1,111.1c-8.3-3.8-16.8-7-25.6-9.7v14.8h25.6V111.1z"/>
<path class="st4" d="M390.6,95.3c-8.4-1.5-16.9-2.6-25.6-3.1v23.9h25.6V95.3z"/>
<path class="st4" d="M340.2,92.1c-8.7,0.5-17.2,1.5-25.6,3v21h25.6V92.1z"/>
<path class="st4" d="M289.7,101c-8.8,2.7-17.3,5.8-25.6,9.5v5.6h25.6V101z"/>
<path class="st4" d="M491.5,143.1c-0.6-0.5-1.1-1-1.7-1.4h-23.9v24.8h25.6V143.1z"/>
<rect x="415.5" y="141.7" class="st4" width="25.6" height="24.8"/>
<rect x="365" y="141.7" class="st4" width="25.6" height="24.8"/>
<rect x="314.6" y="141.7" class="st4" width="25.6" height="24.8"/>
<rect x="264.1" y="141.7" class="st4" width="25.6" height="24.8"/>
<path class="st4" d="M239.3,141.7h-25.1c-0.2,0.2-0.4,0.3-0.5,0.5v24.4h25.6V141.7z"/>
<rect x="516.4" y="293" class="st4" width="25.6" height="24.8"/>
<rect x="465.9" y="293" class="st4" width="25.6" height="24.8"/>
<rect x="415.5" y="293" class="st4" width="25.6" height="24.8"/>
<rect x="365" y="293" class="st4" width="25.6" height="24.8"/>
<rect x="314.6" y="293" class="st4" width="25.6" height="24.8"/>
<rect x="264.1" y="293" class="st4" width="25.6" height="24.8"/>
<rect x="213.7" y="293" class="st4" width="25.6" height="24.8"/>
<rect x="163.2" y="293" class="st4" width="25.6" height="24.8"/>
<rect x="516.4" y="343.5" class="st4" width="25.6" height="24.8"/>
<rect x="465.9" y="343.5" class="st4" width="25.6" height="24.8"/>
<rect x="415.5" y="343.5" class="st4" width="25.6" height="24.8"/>
<rect x="365" y="343.5" class="st4" width="25.6" height="24.8"/>
<rect x="314.6" y="343.5" class="st4" width="25.6" height="24.8"/>
<rect x="264.1" y="343.5" class="st4" width="25.6" height="24.8"/>
<rect x="213.7" y="343.5" class="st4" width="25.6" height="24.8"/>
<rect x="163.2" y="343.5" class="st4" width="25.6" height="24.8"/>
<path class="st4" d="M542,409.5V394h-25.6v24.9h20.3C538.5,415.7,540.3,412.6,542,409.5z"/>
<rect x="465.9" y="393.9" class="st4" width="25.6" height="24.9"/>
<rect x="415.5" y="393.9" class="st4" width="25.6" height="24.9"/>
<rect x="365" y="393.9" class="st4" width="25.6" height="24.9"/>
<rect x="314.6" y="393.9" class="st4" width="25.6" height="24.9"/>
<rect x="264.1" y="393.9" class="st4" width="25.6" height="24.9"/>
<rect x="213.7" y="393.9" class="st4" width="25.6" height="24.9"/>
<path class="st4" d="M163.2,393.9v17.7c1.3,2.4,2.7,4.8,4.1,7.1h21.5v-24.9L163.2,393.9L163.2,393.9z"/>
<path class="st4" d="M516.4,444.4v2.5c0.7-0.8,1.4-1.7,2.1-2.5H516.4z"/>
<rect x="465.9" y="444.4" class="st4" width="25.6" height="24.9"/>
<rect x="415.5" y="444.4" class="st4" width="25.6" height="24.9"/>
<rect x="365" y="444.4" class="st4" width="25.6" height="24.9"/>
<rect x="314.6" y="444.4" class="st4" width="25.6" height="24.9"/>
<rect x="264.1" y="444.4" class="st4" width="25.6" height="24.9"/>
<rect x="213.7" y="444.4" class="st4" width="25.6" height="24.9"/>
<path class="st4" d="M185.5,444.4c1.1,1.3,2.2,2.6,3.3,3.9v-3.9H185.5z"/>
<path class="st4" d="M441.1,494.8h-25.6v18.8c8.8-2.7,17.3-6,25.6-9.7V494.8z"/>
<path class="st4" d="M390.6,494.8H365v28c8.7-0.5,17.2-1.6,25.6-3.1V494.8z"/>
<path class="st4" d="M314.6,494.8v25.1c8.4,1.5,16.9,2.5,25.6,2.9v-28L314.6,494.8L314.6,494.8z"/>
<path class="st4" d="M264.1,494.8v9.6c8.3,3.7,16.8,6.9,25.6,9.6v-19.2L264.1,494.8L264.1,494.8z"/>
<path class="st4" d="M209.5,469.2c1.4,1.2,2.8,2.4,4.2,3.6v-3.6H209.5z"/>
<rect x="289.7" y="469.2" class="st4" width="24.8" height="25.6"/>
<rect x="340.2" y="469.2" class="st4" width="24.9" height="25.6"/>
<rect x="390.6" y="469.2" class="st4" width="24.8" height="25.6"/>
<path class="st4" d="M441.1,469.2v25.6h17.6c2.4-1.4,4.8-2.8,7.2-4.3v-21.3H441.1z"/>
<path class="st4" d="M494.5,469.2h-3v2.6C492.5,471,493.5,470.1,494.5,469.2z"/>
<path class="st4" d="M239.3,469.2v22c2,1.2,4,2.4,6,3.6h18.8v-25.6H239.3z"/>
<rect x="239.3" y="418.8" class="st4" width="24.8" height="25.6"/>
<rect x="289.7" y="418.8" class="st4" width="24.8" height="25.6"/>
<rect x="340.2" y="418.8" class="st4" width="24.9" height="25.6"/>
<rect x="390.6" y="418.8" class="st4" width="24.8" height="25.6"/>
<rect x="441.1" y="418.8" class="st4" width="24.8" height="25.6"/>
<rect x="491.5" y="418.8" class="st4" width="24.9" height="25.6"/>
<rect x="188.8" y="418.8" class="st4" width="24.8" height="25.6"/>
<path class="st4" d="M145.1,368.3c2.6,8.8,5.7,17.3,9.3,25.6h8.8v-25.6H145.1z"/>
<rect x="188.8" y="368.3" class="st4" width="24.8" height="25.6"/>
<rect x="239.3" y="368.3" class="st4" width="24.8" height="25.6"/>
<rect x="289.7" y="368.3" class="st4" width="24.8" height="25.6"/>
<rect x="390.6" y="368.3" class="st4" width="24.8" height="25.6"/>
<rect x="441.1" y="368.3" class="st4" width="24.8" height="25.6"/>
<rect x="491.5" y="368.3" class="st4" width="24.9" height="25.6"/>
<path class="st4" d="M558.9,368.3h-17v25.6h7.6C553.2,385.7,556.3,377.1,558.9,368.3z"/>
<rect x="340.2" y="368.3" class="st4" width="24.9" height="25.6"/>
<path class="st4" d="M136.6,317.9c0.4,8.7,1.4,17.2,2.8,25.6h23.9v-25.6H136.6z"/>
<rect x="188.8" y="317.9" class="st4" width="24.8" height="25.6"/>
<rect x="239.3" y="317.9" class="st4" width="24.8" height="25.6"/>
<rect x="289.7" y="317.9" class="st4" width="24.8" height="25.6"/>
<rect x="441.1" y="317.9" class="st4" width="24.8" height="25.6"/>
<path class="st4" d="M567.4,317.9H542v25.6h22.7C566.1,335.1,567,326.6,567.4,317.9z"/>
<rect x="491.5" y="317.9" class="st4" width="24.9" height="25.6"/>
<rect x="390.6" y="317.9" class="st4" width="24.8" height="25.6"/>
<rect x="340.2" y="317.9" class="st4" width="24.9" height="25.6"/>
<rect x="516.4" y="242.6" class="st4" width="25.6" height="24.9"/>
<rect x="465.9" y="242.6" class="st4" width="25.6" height="24.9"/>
<rect x="415.5" y="242.6" class="st4" width="25.6" height="24.9"/>
<rect x="365" y="242.6" class="st4" width="25.6" height="24.9"/>
<rect x="314.6" y="242.6" class="st4" width="25.6" height="24.9"/>
<rect x="264.1" y="242.6" class="st4" width="25.6" height="24.9"/>
<rect x="213.7" y="242.6" class="st4" width="25.6" height="24.9"/>
<rect x="163.2" y="242.6" class="st4" width="25.6" height="24.9"/>
<path class="st4" d="M140,267.5c-1.6,8.4-2.7,16.9-3.3,25.6h26.4v-25.6H140z"/>
<rect x="188.8" y="267.5" class="st4" width="24.8" height="25.6"/>
<rect x="289.7" y="267.5" class="st4" width="24.8" height="25.6"/>
<path class="st4" d="M567.2,293c-0.6-8.7-1.7-17.2-3.3-25.6h-22V293H567.2z"/>
<rect x="491.5" y="267.5" class="st4" width="24.9" height="25.6"/>
<rect x="441.1" y="267.5" class="st4" width="24.8" height="25.6"/>
<rect x="390.6" y="267.5" class="st4" width="24.8" height="25.6"/>
<rect x="340.2" y="267.5" class="st4" width="24.9" height="25.6"/>
<rect x="239.3" y="267.5" class="st4" width="24.8" height="25.6"/>
<path class="st4" d="M542,205.5c-2.4-4.5-5-9-7.8-13.3h-17.8V217H542V205.5z"/>
<rect x="465.9" y="192.2" class="st4" width="25.6" height="24.8"/>
<rect x="415.5" y="192.2" class="st4" width="25.6" height="24.8"/>
<rect x="365" y="192.2" class="st4" width="25.6" height="24.8"/>
<rect x="314.6" y="192.2" class="st4" width="25.6" height="24.8"/>
<rect x="264.1" y="192.2" class="st4" width="25.6" height="24.8"/>
<rect x="213.7" y="192.2" class="st4" width="25.6" height="24.8"/>
<path class="st4" d="M188.8,192.2h-19c-2.3,3.7-4.5,7.4-6.6,11.2v13.7h25.6V192.2z"/>
<path class="st4" d="M156.3,217c-3.8,8.3-7.2,16.8-10,25.6h16.9V217H156.3z"/>
<rect x="188.8" y="217" class="st4" width="24.8" height="25.6"/>
<rect x="239.3" y="217" class="st4" width="24.8" height="25.6"/>
<rect x="289.7" y="217" class="st4" width="24.8" height="25.6"/>
<rect x="390.6" y="217" class="st4" width="24.8" height="25.6"/>
<rect x="441.1" y="217" class="st4" width="24.8" height="25.6"/>
<rect x="491.5" y="217" class="st4" width="24.9" height="25.6"/>
<path class="st4" d="M557.7,242.6c-2.8-8.8-6.1-17.3-10-25.6H542v25.6H557.7z"/>
<rect x="340.2" y="217" class="st4" width="24.9" height="25.6"/>
<path class="st4" d="M188.9,166.5C188.9,166.6,188.8,166.6,188.9,166.5l-0.1,25.6h24.8v-25.6H188.9z"/>
<rect x="239.3" y="166.5" class="st4" width="24.8" height="25.6"/>
<rect x="340.2" y="166.5" class="st4" width="24.9" height="25.6"/>
<rect x="390.6" y="166.5" class="st4" width="24.8" height="25.6"/>
<rect x="441.1" y="166.5" class="st4" width="24.8" height="25.6"/>
<path class="st4" d="M515.1,166.5h-23.6v25.7h24.9v-24.1C516,167.5,515.6,167,515.1,166.5z"/>
<rect x="289.7" y="166.5" class="st4" width="24.8" height="25.6"/>
<path class="st4" d="M451.4,116.1h-10.3v25.6h24.8v-17.3C461.2,121.5,456.4,118.7,451.4,116.1z"/>
<rect x="390.6" y="116.1" class="st4" width="24.8" height="25.6"/>
<rect x="340.2" y="116.1" class="st4" width="24.9" height="25.6"/>
<rect x="289.7" y="116.1" class="st4" width="24.8" height="25.6"/>
<path class="st4" d="M252.7,116.1c-4.6,2.4-9,4.9-13.4,7.6v18h24.8v-25.6H252.7z"/>
<rect x="314.6" y="192.2" class="st5" width="25.6" height="24.8"/>
<rect x="264.1" y="192.2" class="st5" width="25.6" height="24.8"/>
<rect x="213.7" y="192.2" class="st5" width="25.6" height="24.8"/>
<path class="st5" d="M169.8,192.2c-2.3,3.6-4.5,7.4-6.6,11.1V217h25.6v-24.8H169.8z"/>
<rect x="314.6" y="293" class="st5" width="25.6" height="24.8"/>
<rect x="264.1" y="293" class="st5" width="25.6" height="24.8"/>
<rect x="213.7" y="293" class="st5" width="25.6" height="24.8"/>
<rect x="163.2" y="293" class="st5" width="25.6" height="24.8"/>
<rect x="314.6" y="343.5" class="st5" width="25.6" height="24.8"/>
<rect x="264.1" y="343.5" class="st5" width="25.6" height="24.8"/>
<rect x="213.7" y="343.5" class="st5" width="25.6" height="24.8"/>
<rect x="163.2" y="343.5" class="st5" width="25.6" height="24.8"/>
<rect x="314.6" y="393.9" class="st5" width="25.6" height="24.9"/>
<rect x="264.1" y="393.9" class="st5" width="25.6" height="24.9"/>
<rect x="213.7" y="393.9" class="st5" width="25.6" height="24.9"/>
<path class="st5" d="M163.2,393.9v17.7c1.3,2.4,2.7,4.8,4.1,7.1h21.5v-24.9L163.2,393.9L163.2,393.9z"/>
<path class="st5" d="M314.6,494.8v25.1c8.4,1.5,16.9,2.5,25.6,2.9v-28L314.6,494.8L314.6,494.8z"/>
<path class="st5" d="M264.1,494.8v9.6c8.3,3.7,16.8,6.9,25.6,9.6v-19.2L264.1,494.8L264.1,494.8z"/>
<rect x="314.6" y="444.4" class="st5" width="25.6" height="24.9"/>
<rect x="264.1" y="444.4" class="st5" width="25.6" height="24.9"/>
<rect x="213.7" y="444.4" class="st5" width="25.6" height="24.9"/>
<path class="st5" d="M185.5,444.4c1.1,1.3,2.2,2.6,3.3,3.9v-3.9H185.5z"/>
<path class="st5" d="M239.3,469.2v22c2,1.2,4,2.4,6,3.6h18.8v-25.6H239.3z"/>
<rect x="289.7" y="469.2" class="st5" width="24.8" height="25.6"/>
<rect x="340.2" y="469.2" class="st5" width="11.8" height="25.6"/>
<path class="st5" d="M209.5,469.2c1.4,1.2,2.8,2.4,4.2,3.6v-3.6H209.5z"/>
<rect x="188.8" y="418.8" class="st5" width="24.8" height="25.6"/>
<rect x="289.7" y="418.8" class="st5" width="24.8" height="25.6"/>
<rect x="340.2" y="418.8" class="st5" width="11.8" height="25.6"/>
<rect x="239.3" y="418.8" class="st5" width="24.8" height="25.6"/>
<path class="st5" d="M145.1,368.3c2.6,8.8,5.7,17.3,9.3,25.6h8.8v-25.6H145.1z"/>
<rect x="188.8" y="368.3" class="st5" width="24.8" height="25.6"/>
<rect x="289.7" y="368.3" class="st5" width="24.8" height="25.6"/>
<rect x="340.2" y="368.3" class="st5" width="11.8" height="25.6"/>
<rect x="239.3" y="368.3" class="st5" width="24.8" height="25.6"/>
<path class="st5" d="M136.6,317.9c0.4,8.7,1.4,17.2,2.8,25.6h23.9v-25.6H136.6z"/>
<rect x="188.8" y="317.9" class="st5" width="24.8" height="25.6"/>
<rect x="239.3" y="317.9" class="st5" width="24.8" height="25.6"/>
<rect x="289.7" y="317.9" class="st5" width="24.8" height="25.6"/>
<rect x="340.2" y="317.9" class="st5" width="11.8" height="25.6"/>
<rect x="314.6" y="242.6" class="st5" width="25.6" height="24.9"/>
<rect x="264.1" y="242.6" class="st5" width="25.6" height="24.9"/>
<rect x="213.7" y="242.6" class="st5" width="25.6" height="24.9"/>
<rect x="163.2" y="242.6" class="st5" width="25.6" height="24.9"/>
<rect x="188.8" y="267.5" class="st5" width="24.8" height="25.6"/>
<rect x="340.2" y="267.5" class="st5" width="11.8" height="25.6"/>
<rect x="289.7" y="267.5" class="st5" width="24.8" height="25.6"/>
<rect x="239.3" y="267.5" class="st5" width="24.8" height="25.6"/>
<path class="st5" d="M140,267.5c-1.6,8.4-2.7,16.9-3.3,25.6h26.4v-25.6H140z"/>
<rect x="239.3" y="217" class="st5" width="24.8" height="25.6"/>
<rect x="340.2" y="217" class="st5" width="11.8" height="25.6"/>
<rect x="289.7" y="217" class="st5" width="24.8" height="25.6"/>
<rect x="188.8" y="217" class="st5" width="24.8" height="25.6"/>
<path class="st5" d="M156.2,217c-3.8,8.3-7.2,16.8-10,25.6h16.9V217H156.2z"/>
<rect x="314.6" y="141.7" class="st5" width="25.6" height="24.8"/>
<rect x="264.1" y="141.7" class="st5" width="25.6" height="24.8"/>
<path class="st5" d="M214.2,141.7c-0.2,0.1-0.3,0.3-0.5,0.4v24.4h25.6v-24.8L214.2,141.7L214.2,141.7z"/>
<path class="st5" d="M188.9,166.5C188.8,166.6,188.8,166.6,188.9,166.5v25.6h24.8v-25.6H188.9z"/>
<rect x="289.7" y="166.5" class="st5" width="24.8" height="25.6"/>
<rect x="340.2" y="166.5" class="st5" width="11.8" height="25.6"/>
<rect x="239.3" y="166.5" class="st5" width="24.8" height="25.6"/>
<path class="st5" d="M314.6,95.1v21h25.6v-24C331.5,92.6,323,93.6,314.6,95.1z"/>
<path class="st5" d="M264.1,110.5v5.6h25.6V101C280.9,103.6,272.4,106.8,264.1,110.5z"/>
<rect x="340.2" y="116.1" class="st5" width="11.8" height="25.6"/>
<rect x="289.7" y="116.1" class="st5" width="24.8" height="25.6"/>
<path class="st5" d="M252.6,116.1c-4.5,2.4-9,4.9-13.3,7.6v18h24.8v-25.6H252.6z"/>
<path class="st7" d="M448,157.7c-88.6,0-160.6,72-160.6,160.6s72,160.6,160.6,160.6s160.6-72.1,160.6-160.6S536.6,157.7,448,157.7z
	 M448,416.3c-54.1,0-98.1-44-98.1-98.1s44-98.1,98.1-98.1s98.1,44,98.1,98.1S502.1,416.3,448,416.3z"/>
<path class="st8" d="M350,318.3c0-54.1,44-98.1,98.1-98.1v-62.5c-88.6,0-160.6,72-160.6,160.6s72,160.6,160.6,160.6v-62.5
	C393.9,416.3,350,372.3,350,318.3z"/>
<path class="st9" d="M287.4,318.3v8h62.5v-8c0-54.1,44-98.1,98.1-98.1v-62.5C359.5,157.7,287.4,229.7,287.4,318.3z"/>
<path class="st1" d="M314.6,152.5v14.1h25.6v-18.2C331.6,149,323.1,150.4,314.6,152.5z"/>
<path class="st1" d="M277.6,166.5h12.1v-5.8C285.6,162.5,281.6,164.4,277.6,166.5z"/>
<path class="st1" d="M289.7,166.5v16.3c7.9-4,16.2-7.2,24.8-9.7v-6.6H289.7z"/>
<path class="st1" d="M352.6,166.5h-12.4v1.9c4.1-0.4,8.2-0.6,12.4-0.6V166.5z"/>
<path class="st1" d="M314.6,192.2v1.9c2.1-0.7,4.2-1.4,6.3-1.9H314.6z"/>
<polygon class="st1" points="286.1,192.2 289.7,198.4 289.7,192.2 "/>
<path class="st1" d="M289.7,182.9v9.2h24.8v-19C305.9,175.6,297.6,178.9,289.7,182.9z"/>
<path class="st1" d="M352.6,167.9c-4.2,0-8.3,0.2-12.4,0.6v20.1c4.1-0.4,8.2-0.6,12.4-0.6V167.9z"/>
<path class="st1" d="M320.9,192.2c-2.1,0.6-4.2,1.2-6.3,1.9v21.4c8.1-3.3,16.7-5.6,25.6-6.8v-16.5H320.9z"/>
<path class="st1" d="M311,217h-10.6l2.4,4.2C305.5,219.7,308.2,218.3,311,217z"/>
<path class="st1" d="M352.6,187.9c-4.2,0-8.3,0.2-12.4,0.6v3.6h12.4V187.9z"/>
<path class="st1" d="M314.6,215.5v1.5h25.6v-8.4C331.2,209.8,322.7,212.1,314.6,215.5z"/>
<path class="st1" d="M352.5,217h-12.3v11.8c4-0.6,8.1-1,12.3-1V217z"/>
<path class="st1" d="M311,217c-2.8,1.3-5.5,2.7-8.2,4.2l10,17.3c0.6-0.3,1.2-0.7,1.8-1V217H311z"/>
<path class="st1" d="M315.1,242.6l7.7,13.3c5.3-3.1,11.2-5.4,17.4-6.7v-6.6H315.1z"/>
<path class="st1" d="M312.8,238.6l1.8,3.1v-4.1C314,237.9,313.4,238.3,312.8,238.6z"/>
<path class="st1" d="M352.6,227.9c-4.2,0-8.4,0.3-12.4,1v13.7h12.4V227.9z"/>
<path class="st1" d="M322.8,255.9l6.7,11.5h10.7v-18.2C334,250.5,328.1,252.8,322.8,255.9z"/>
<path class="st1" d="M352.6,267.5h-12.4v2.4c3.9-1.3,8.1-2,12.4-2V267.5z"/>
<path class="st1" d="M340.2,269.9v16l4.1,7.1h8.3v-25.1C348.3,267.9,344.1,268.6,340.2,269.9z"/>
<path class="st1" d="M415.5,160.8v5.7h12C423.5,164.5,419.5,162.6,415.5,160.8z"/>
<path class="st1" d="M390.6,152.5c-8.3-2-16.8-3.4-25.6-4.1v18.2h25.6V152.5z"/>
<path class="st1" d="M352.6,166.5v1.4c4.2,0,8.3,0.2,12.4,0.6v-1.9h-12.4V166.5z"/>
<path class="st1" d="M390.6,166.5v6.6c8.6,2.4,17,5.7,24.8,9.7v-16.3H390.6z"/>
<polygon class="st0" points="415.5,192.2 415.5,198.6 419.2,192.2 "/>
<path class="st0" d="M384.3,192.2c2.1,0.6,4.2,1.2,6.3,1.9v-1.9H384.3z"/>
<path class="st0" d="M352.6,167.9v20c4.2,0,8.3,0.2,12.4,0.6v-20.1C360.9,168.1,356.8,167.9,352.6,167.9z"/>
<path class="st0" d="M390.6,173.2v19h24.8v-9.3C407.6,178.9,399.3,175.6,390.6,173.2z"/>
<path class="st2" d="M384.2,192.2H365v16.5c8.9,1.1,17.5,3.5,25.6,6.8v-21.4C388.5,193.4,386.3,192.8,384.2,192.2z"/>
<path class="st2" d="M404.9,217h-10.8c2.8,1.3,5.6,2.7,8.3,4.3L404.9,217z"/>
<path class="st2" d="M352.6,187.9v4.3H365v-3.6C360.9,188.1,356.8,187.9,352.6,187.9z"/>
<path class="st10" d="M394.1,217c-1.1-0.5-2.3-1-3.5-1.5v1.5H394.1z"/>
<path class="st10" d="M390.6,215.5c-8.1-3.4-16.7-5.7-25.6-6.8v8.3h25.6V215.5z"/>
<path class="st10" d="M352.6,217v10.9c4.2,0,8.4,0.3,12.4,1V217H352.6z"/>
<path class="st10" d="M402.4,221.3c-2.7-1.6-5.5-3-8.3-4.3h-3.5v20.6c0.6,0.3,1.2,0.7,1.8,1L402.4,221.3z"/>
<path class="st11" d="M390.1,242.6H365v6.6c6.2,1.3,12,3.6,17.4,6.7L390.1,242.6z"/>
<path class="st11" d="M352.6,227.9v14.7H365v-13.7C361,228.2,356.8,227.9,352.6,227.9z"/>
<path class="st11" d="M392.4,238.6c-0.6-0.3-1.2-0.7-1.8-1v4.1L392.4,238.6z"/>
<path class="st12" d="M382.4,255.9c-5.3-3.1-11.2-5.4-17.4-6.7v18.2h10.7L382.4,255.9z"/>
<path class="st12" d="M352.6,267.5v0.5c4.3,0,8.5,0.7,12.4,2v-2.5H352.6z"/>
<path class="st13" d="M352.6,267.9V293h8.3l4.1-7.1v-16.1C361.1,268.6,356.9,267.9,352.6,267.9z"/>
<path class="st1" d="M465.9,195v22H484C478.7,209.2,472.7,201.8,465.9,195z"/>
<path class="st1" d="M431.1,192.2c3.4,2.4,6.7,4.9,9.9,7.5v-7.5H431.1z"/>
<path class="st1" d="M458.7,217c2.5,3,4.9,6,7.2,9.2V217H458.7z"/>
<path class="st1" d="M463,192.2c-6.7-6.4-14-12.3-21.9-17.5v17.5H463z"/>
<path class="st0" d="M441.1,217v-17.3c-3.2-2.6-6.5-5.2-9.9-7.5h-11.9l-3.7,6.4v7.2c5.4,3.4,10.4,7.1,15.2,11.2L441.1,217L441.1,217
	z"/>
<path class="st0" d="M458.7,217H441v10.2c4.4,4.8,8.3,9.9,11.9,15.4h12l1-0.6v-15.8C463.6,223,461.3,220,458.7,217z"/>
<path class="st2" d="M438.8,257.7l2.3-1.3v-13.8h-13C432.1,247.3,435.7,252.3,438.8,257.7z"/>
<path class="st2" d="M415.5,205.9V217h15.2C425.9,212.9,420.8,209.2,415.5,205.9z"/>
<path class="st2" d="M404.9,217l-2.5,4.3c4.6,2.7,9,5.7,13.1,9.1V217L404.9,217L404.9,217z"/>
<path class="st2" d="M452.9,242.6c-3.5-5.5-7.5-10.6-11.9-15.4v15.4H452.9z"/>
<path class="st10" d="M421.9,267.5l16.9-9.8c-3.1-5.4-6.7-10.4-10.7-15.1h-12.6v16.2c2.1,2.7,4.1,5.6,5.9,8.6L421.9,267.5
	L421.9,267.5z"/>
<path class="st10" d="M421.5,267.7l0.4-0.3h-0.6C421.4,267.5,421.5,267.6,421.5,267.7z"/>
<path class="st10" d="M402.4,221.3l-10,17.3c2.1,1.2,4.2,2.6,6.2,4h16.9v-12.3C411.4,227,407,224,402.4,221.3z"/>
<path class="st11" d="M415.5,258.9v8.6h5.9C419.6,264.5,417.6,261.6,415.5,258.9z"/>
<path class="st11" d="M390.1,242.6l-7.7,13.3c2.9,1.7,5.7,3.6,8.2,5.8v-19.1H390.1z"/>
<path class="st11" d="M396.6,267.5c2.9,3.1,5.4,6.6,7.6,10.3l11.3-6.5v-3.7L396.6,267.5L396.6,267.5z"/>
<path class="st11" d="M398.6,242.6c-2-1.4-4.1-2.8-6.2-4l-1.8,3.1v0.9H398.6z"/>
<polygon class="st11" points="390.6,242.6 390.6,241.7 390.1,242.6 "/>
<path class="st12" d="M375.7,267.5h14.9v-5.8c-2.6-2.2-5.3-4.1-8.2-5.8L375.7,267.5z"/>
<path class="st12" d="M404.1,277.7c-2.1-3.7-4.7-7.1-7.5-10.3h-6v18L404.1,277.7z"/>
<polygon class="st12" points="365,293 365,300.3 377.6,293 "/>
<polygon class="st12" points="360.9,293 365,293 365,286 "/>
<path class="st1" d="M486.3,267.5h5.3v-24.9h-15.4C480.2,250.5,483.7,258.8,486.3,267.5z"/>
<path class="st1" d="M491.3,293c0.1,0.6,0.1,1.3,0.2,2v-2H491.3z"/>
<path class="st1" d="M511.4,293c-0.8-8.6-2.2-17.1-4.4-25.6h-15.5V293H511.4z"/>
<path class="st1" d="M498.4,242.6c-2-4.6-4.3-9.1-6.8-13.6v13.6H498.4z"/>
<path class="st0" d="M476.1,242.6h-10.2v24.9h20.3C483.7,258.8,480.3,250.5,476.1,242.6z"/>
<path class="st0" d="M492.1,307.4c0-4.2-0.2-8.4-0.6-12.5v12.5H492.1z"/>
<path class="st0" d="M471.2,293c0.6,4.7,0.9,9.5,0.9,14.4h19.4v-12.5c-0.1-0.6-0.1-1.3-0.2-1.9H471.2z"/>
<path class="st0" d="M465.2,267.5c0.2,0.7,0.5,1.4,0.7,2.1v-2.1H465.2z"/>
<polygon class="st0" points="464.9,242.6 465.9,242.6 465.9,242 "/>
<path class="st2" d="M438.8,257.7c0.8,1.4,1.5,2.8,2.3,4.2v-5.5L438.8,257.7z"/>
<path class="st2" d="M471.2,293h-5.3v14.4h6.2C472.1,302.5,471.8,297.8,471.2,293z"/>
<path class="st2" d="M465.2,267.5h-21.5c3.5,8,6,16.6,7.3,25.6h14.9v-23.5C465.7,268.8,465.5,268.1,465.2,267.5z"/>
<path class="st10" d="M443.8,267.5c-0.8-1.9-1.7-3.8-2.7-5.6v5.6H443.8z"/>
<path class="st10" d="M421.9,267.5H441v-5.6c-0.7-1.4-1.5-2.8-2.3-4.2L421.9,267.5z"/>
<path class="st10" d="M432.2,307.4h8.9V293h-10.2C431.7,297.7,432.2,302.5,432.2,307.4z"/>
<path class="st10" d="M451.1,293c-1.3-9-3.8-17.6-7.4-25.6H441V293H451.1z"/>
<path class="st11" d="M430.8,293h-15.3v14.4h16.6C432.1,302.5,431.6,297.7,430.8,293z"/>
<path class="st11" d="M404.1,277.7c2.8,4.8,4.9,9.9,6.2,15.3h5.1v-21.9L404.1,277.7z"/>
<path class="st11" d="M389.4,293c0.5,1.2,0.9,2.4,1.2,3.7V293H389.4z"/>
<path class="st11" d="M410.3,293c-1.4-5.5-3.5-10.6-6.2-15.3l-13.5,7.8v7.6h19.7V293z"/>
<path class="st11" d="M390.6,296.8c-0.4-1.3-0.8-2.6-1.3-3.8h-11.7l-12.7,7.3v7.2h25.6L390.6,296.8L390.6,296.8z"/>
<path class="st1" d="M487.4,343.5c-2.3,8.6-5.4,17-9.3,24.8h13.4v-24.8H487.4z"/>
<path class="st1" d="M500.1,368.3h-8.6v17.5C494.7,380.2,497.6,374.4,500.1,368.3z"/>
<path class="st1" d="M511.9,317.9h-20.1c-0.1,0.7-0.1,1.4-0.2,2.1v23.5h16.6C510,335.2,511.3,326.6,511.9,317.9z"/>
<path class="st0" d="M492,307.5h-0.5v10.4h0.1C491.9,314.5,492,311,492,307.5z"/>
<path class="st0" d="M472.1,307.5c0,3.5-0.2,7-0.5,10.4h19.9v-10.4H472.1z"/>
<path class="st0" d="M487.3,343.5h-20.8c-0.2,0.6-0.4,1.2-0.6,1.8v23.1H478C481.8,360.5,485,352.1,487.3,343.5z"/>
<polygon class="st0" points="458,368.3 465.9,372.9 465.9,368.3 "/>
<path class="st0" d="M491.6,317.9L491.6,317.9l-0.1,0.9C491.6,318.5,491.6,318.2,491.6,317.9z"/>
<path class="st2" d="M465.9,343.5v1.6c0.2-0.5,0.4-1.1,0.5-1.6H465.9z"/>
<path class="st2" d="M438.7,357.2l2.4,1.4v-5.7C440.3,354.3,439.5,355.8,438.7,357.2z"/>
<path class="st2" d="M472.1,307.5h-6.2v10.4h5.7C471.9,314.5,472.1,311,472.1,307.5z"/>
<path class="st2" d="M451.6,317.9c-0.9,8.9-3.1,17.5-6.2,25.6H466v-25.6H451.6z"/>
<path class="st10" d="M432.1,307.5c0,3.5-0.2,7-0.7,10.4h9.7v-10.4H432.1z"/>
<path class="st10" d="M421.4,347.2l17.3,10c0.8-1.4,1.6-2.9,2.4-4.4v-9.3h-17.7C422.8,344.8,422.1,346,421.4,347.2z"/>
<path class="st10" d="M451.6,317.9h-10.5v25.6h4.2C448.5,335.4,450.6,326.8,451.6,317.9z"/>
<polygon class="st10" points="415,343.5 415.5,343.8 415.5,343.5 "/>
<path class="st10" d="M423.4,343.5h-7.9v0.3l5.9,3.4C422.1,346,422.8,344.8,423.4,343.5z"/>
<path class="st10" d="M432.1,307.5h-16.6v10.4h15.9C431.9,314.5,432.1,311,432.1,307.5z"/>
<path class="st10" d="M411.2,317.9c-1.2,6.9-3.7,13.4-7.1,19.3l10.9,6.3h0.5v-25.6L411.2,317.9L411.2,317.9z"/>
<path class="st10" d="M411.2,317.9h-20.5c0,0.1-0.1,0.2-0.1,0.3v11.2l13.5,7.8C407.5,331.3,409.9,324.8,411.2,317.9z"/>
<polygon class="st10" points="365,307.5 365,314.7 370.7,317.9 390.6,317.9 390.6,307.5 "/>
<path class="st10" d="M390.7,317.9L390.7,317.9l-0.1,0.3C390.6,318.1,390.7,318,390.7,317.9z"/>
<path class="st1" d="M432.3,445.6c0.7-0.4,1.3-0.8,2-1.2h-2.7L432.3,445.6z"/>
<path class="st1" d="M486.6,393.9H466v24.9h0.9C474.1,411.3,480.7,403,486.6,393.9z"/>
<path class="st1" d="M436.5,418.8h4.6v-3.6C439.6,416.4,438.1,417.6,436.5,418.8z"/>
<path class="st1" d="M441.1,418.8v21.3c8.9-5.9,17.2-12.7,24.8-20.5v-0.9h-24.8V418.8z"/>
<path class="st1" d="M465.9,418.8v0.9c0.3-0.3,0.6-0.6,0.9-0.9H465.9z"/>
<path class="st1" d="M461.9,393.9h4v-5.3C464.6,390.4,463.3,392.2,461.9,393.9z"/>
<path class="st0" d="M435,393.9c-6,5.7-12.5,10.7-19.5,15.1v7.2l1.5,2.6h19.6c1.5-1.2,3-2.4,4.5-3.6v-21.3L435,393.9L435,393.9z"/>
<path class="st0" d="M458.1,368.3h-2.7c-4.1,6.9-8.9,13.4-14.3,19.4v6.2H462c1.4-1.7,2.7-3.5,4-5.3v-15.8L458.1,368.3z"/>
<path class="st2" d="M415.5,393.9V409c7-4.4,13.6-9.4,19.5-15.1H415.5z"/>
<path class="st2" d="M438.8,357.2c-2.2,3.9-4.7,7.6-7.5,11.1h9.8v-9.8L438.8,357.2z"/>
<path class="st2" d="M402.4,393.6l0.2,0.3h12.9v-9.4C411.4,387.9,407,390.9,402.4,393.6z"/>
<path class="st2" d="M455.4,368.3h-14.3v19.4C446.5,381.8,451.3,375.3,455.4,368.3z"/>
<path class="st2" d="M438.7,357.2l-17.3-10c-1.8,3.1-3.8,6-5.9,8.8v12.4h15.7C434,364.8,436.5,361.1,438.7,357.2z"/>
<path class="st2" d="M403.6,368.3c-3.5,3-7.3,5.6-11.3,8l10,17.3c4.6-2.7,9-5.7,13.2-9.1v-16.1L403.6,368.3L403.6,368.3z"/>
<path class="st2" d="M415.5,343.8V356c2.2-2.8,4.1-5.7,5.9-8.8L415.5,343.8z"/>
<path class="st2" d="M382.3,359l5.4,9.3h2.9v-15.2C388,355.3,385.2,357.3,382.3,359z"/>
<path class="st2" d="M403.6,368.3h-13v5.1l1.7,2.9C396.3,374,400.1,371.3,403.6,368.3z"/>
<path class="st2" d="M399.9,343.5H415l-10.9-6.3C402.8,339.4,401.4,341.5,399.9,343.5z"/>
<path class="st2" d="M373.4,343.5l8.9,15.4c2.9-1.7,5.7-3.7,8.3-5.8v-9.6H373.4z"/>
<path class="st2" d="M404.1,337.1l-13.5-7.8v14.2h9.2C401.4,341.5,402.8,339.3,404.1,337.1z"/>
<polygon class="st2" points="365,314.6 365,317.9 370.7,317.9 "/>
<polygon class="st2" points="358.6,317.9 365,329 365,317.9 "/>
<path class="st1" d="M431.6,444.4h-16.2v9.7c5.7-2.4,11.4-5.2,16.9-8.4L431.6,444.4z"/>
<path class="st1" d="M390.6,444.4h-11.7c-4.6,0.9-9.2,1.5-13.9,1.9v20.2c8.6-0.7,17.1-2,25.6-4.1V444.4z"/>
<path class="st1" d="M390.6,441.6v2.8h24.8v-12.5C407.6,435.9,399.3,439.2,390.6,441.6z"/>
<path class="st0" d="M352.6,444.4v2.5c4.2,0,8.3-0.2,12.4-0.6v-1.9H352.6z"/>
<path class="st0" d="M365,444.4v1.9c4.7-0.4,9.3-1.1,13.9-1.9H365z"/>
<polygon class="st0" points="415.5,416.4 415.5,418.8 416.9,418.8 "/>
<path class="st0" d="M395.9,418.8c-1.7,0.7-3.5,1.3-5.2,1.9v20.9c8.7-2.5,17-5.7,24.8-9.7v-13.1L395.9,418.8L395.9,418.8z"/>
<path class="st0" d="M352.6,426.9v17.5H365v-18.1C360.9,426.7,356.8,426.9,352.6,426.9z"/>
<path class="st2" d="M365,406.1v12.7h25.6v-19.4C382.6,402.7,374,405,365,406.1z"/>
<path class="st2" d="M395.9,418.8h-5.2v1.9C392.4,420.1,394.1,419.5,395.9,418.8z"/>
<path class="st2" d="M352.6,418.8v8.1c4.2,0,8.3-0.2,12.4-0.6v-7.5H352.6z"/>
<path class="st2" d="M401.7,393.9h0.8l-0.2-0.3C402.1,393.7,401.9,393.8,401.7,393.9z"/>
<path class="st2" d="M390.6,393.9H365v12.2c9-1.1,17.5-3.4,25.6-6.8V393.9z"/>
<path class="st2" d="M402.3,393.6l-10-17.3c-0.6,0.3-1.1,0.6-1.7,0.9v16.7h11C401.9,393.8,402.1,393.7,402.3,393.6z"/>
<path class="st2" d="M352.6,386.9v7H365v-8C361,386.6,356.8,386.9,352.6,386.9z"/>
<path class="st2" d="M382.3,358.9c-5.3,3.1-11.1,5.4-17.3,6.7v2.8h22.7L382.3,358.9z"/>
<path class="st2" d="M352.6,368.3v18.6c4.2,0,8.4-0.3,12.4-1v-17.6H352.6z"/>
<path class="st2" d="M392.3,376.2l-1.7-2.9v3.8C391.2,376.8,391.7,376.5,392.3,376.2z"/>
<path class="st2" d="M373.4,343.5h-4.8c-1.2,0.5-2.3,1-3.5,1.4v20.7c6.2-1.3,12-3.6,17.3-6.7L373.4,343.5z"/>
<path class="st2" d="M365,343.5v1.4c1.2-0.4,2.4-0.9,3.5-1.4H365z"/>
<polygon class="st2" points="358.6,317.9 352.6,317.9 352.6,343.5 365,343.5 365,329 "/>
<path class="st1" d="M326.3,444.4h-11.7v18c8.3,2,16.8,3.4,25.6,4.1v-20.2C335.5,445.9,330.8,445.3,326.3,444.4z"/>
<path class="st1" d="M273.5,444.4l-0.7,1.2c5.4,3.2,11.1,6,16.9,8.5v-9.7H273.5z"/>
<path class="st1" d="M289.7,431.9v12.5h24.8v-2.8C305.9,439.1,297.6,435.9,289.7,431.9z"/>
<polygon class="st0" points="289.7,418.8 289.7,416.2 288.2,418.8 "/>
<path class="st0" d="M352.5,444.4h-12.3v1.9c4.1,0.4,8.2,0.6,12.3,0.6V444.4z"/>
<path class="st0" d="M326.2,444.4c4.6,0.9,9.3,1.5,14,1.9v-1.9H326.2z"/>
<path class="st0" d="M309.2,418.8h-19.5V432c7.9,4,16.2,7.2,24.8,9.7v-20.9C312.8,420.1,311,419.5,309.2,418.8z"/>
<path class="st0" d="M352.5,426.9c-4.2,0-8.3-0.2-12.3-0.6v18.1h12.3V426.9z"/>
<path class="st0" d="M314.6,399.3v19.5h25.6v-12.7C331.2,405,322.6,402.7,314.6,399.3z"/>
<path class="st0" d="M309.2,418.8c1.8,0.7,3.5,1.3,5.3,1.9v-1.9H309.2z"/>
<path class="st0" d="M352.5,418.8h-12.3v7.5c4.1,0.4,8.2,0.6,12.3,0.6V418.8z"/>
<path class="st0" d="M302.5,393.9h1.1c-0.3-0.2-0.5-0.3-0.8-0.4L302.5,393.9z"/>
<path class="st0" d="M314.6,393.9v5.5c8.1,3.3,16.6,5.6,25.6,6.8V394L314.6,393.9L314.6,393.9z"/>
<path class="st0" d="M352.5,387c-4.2,0-8.3-0.3-12.3-1v7.9h12.3V387z"/>
<path class="st0" d="M312.8,376.3l-10,17.3c0.2,0.1,0.4,0.2,0.6,0.3h11.2v-16.7C314,377,313.4,376.6,312.8,376.3z"/>
<path class="st0" d="M322.9,359l-5.4,9.3h22.7v-2.7C334,364.4,328.2,362.1,322.9,359z"/>
<path class="st0" d="M312.9,376.3c0.6,0.3,1.1,0.6,1.7,0.9v-3.8L312.9,376.3z"/>
<path class="st0" d="M352.6,368.3h-12.4V386c4.1,0.6,8.2,1,12.4,1V368.3z"/>
<path class="st0" d="M336.5,343.5h-4.8l-8.9,15.4c5.4,3.1,11.2,5.4,17.4,6.7v-20.7C338.9,344.5,337.7,344,336.5,343.5z"/>
<path class="st0" d="M336.6,343.5c1.2,0.5,2.3,1,3.5,1.4v-1.4H336.6z"/>
<polygon class="st0" points="352.6,317.9 346.6,317.9 340.2,329 340.2,343.5 352.6,343.5 "/>
<path class="st1" d="M264.1,415.2v3.6h4.6C267.1,417.6,265.6,416.4,264.1,415.2z"/>
<path class="st1" d="M238.3,418.8h1v-24.9h-20.7C224.2,402.8,230.8,411.1,238.3,418.8z"/>
<path class="st1" d="M272.8,445.6l0.7-1.2h-2.7C271.5,444.8,272.1,445.2,272.8,445.6z"/>
<path class="st1" d="M239.3,418.8v1c7.4,7.5,15.7,14.4,24.8,20.4v-21.4H239.3z"/>
<path class="st1" d="M238.3,418.8c0.3,0.3,0.7,0.7,1,1v-1H238.3z"/>
<path class="st1" d="M243.3,393.9c-1.4-1.7-2.7-3.5-4-5.3v5.3H243.3z"/>
<path class="st0" d="M288.3,418.8l1.4-2.4V409c-7-4.3-13.5-9.4-19.5-15h-6.1v21.2c1.5,1.2,3,2.5,4.6,3.6H288.3z"/>
<path class="st0" d="M249.8,368.3h-2.7l-7.8,4.5v15.8c1.3,1.8,2.6,3.6,4,5.3h20.9v-6.3C258.7,381.8,253.9,375.3,249.8,368.3z"/>
<path class="st0" d="M266.4,357.2l-2.3,1.3v9.8h9.8C271.2,364.8,268.7,361.1,266.4,357.2z"/>
<path class="st0" d="M270.2,393.9c6,5.7,12.5,10.7,19.5,15.1v-15.1H270.2z"/>
<path class="st0" d="M249.8,368.3c4.1,6.9,8.9,13.4,14.3,19.4v-19.4H249.8z"/>
<path class="st0" d="M302.8,393.6c-4.6-2.7-9-5.7-13.1-9.1v9.4h12.9L302.8,393.6z"/>
<path class="st0" d="M266.5,357.2c2.2,3.9,4.7,7.6,7.5,11.1h15.7v-12.4c-2.2-2.8-4.1-5.7-5.9-8.8L266.5,357.2z"/>
<path class="st0" d="M312.9,376.3c-4-2.3-7.8-5-11.3-8h-11.9v16.1c4.1,3.4,8.5,6.4,13.2,9.1L312.9,376.3z"/>
<path class="st0" d="M322.9,359c-3-1.7-5.7-3.7-8.3-5.9v15.2h2.9L322.9,359z"/>
<path class="st0" d="M283.8,347.2c1.8,3.1,3.8,6,5.9,8.8v-12.2L283.8,347.2z"/>
<path class="st0" d="M301.6,368.3c3.5,3,7.3,5.6,11.3,8l1.7-2.9v-5.1H301.6z"/>
<path class="st0" d="M290.2,343.5h15.1c-1.5-2-2.9-4.1-4.2-6.3L290.2,343.5z"/>
<path class="st0" d="M331.9,343.5h-17.3v9.6c2.6,2.2,5.4,4.2,8.3,5.9L331.9,343.5z"/>
<path class="st0" d="M301.1,337.2c1.3,2.2,2.7,4.3,4.2,6.3h9.3v-14.1L301.1,337.2z"/>
<polygon class="st0" points="334.5,317.9 340.2,317.9 340.2,314.6 "/>
<polygon class="st0" points="346.5,317.9 340.2,317.9 340.2,328.9 "/>
<path class="st1" d="M217.8,343.5h-4.2v24.8H227C223.3,360.5,220.1,352.1,217.8,343.5z"/>
<path class="st1" d="M205.2,368.3c2.4,5.9,5.3,11.8,8.5,17.5v-17.5H205.2z"/>
<path class="st1" d="M213.5,317.9h-20.1c0.6,8.6,1.8,17.1,3.8,25.6h16.5v-23.6C213.6,319.2,213.6,318.6,213.5,317.9z"/>
<path class="st1" d="M213.7,319.9v23.6h4.2C215.8,335.9,214.4,328,213.7,319.9z"/>
<path class="st1" d="M238.6,343.5h-20.8c2.3,8.6,5.4,16.9,9.3,24.8h12.2v-23C239.1,344.8,238.8,344.1,238.6,343.5z"/>
<polygon class="st1" points="247.1,368.3 239.3,368.3 239.3,372.9 "/>
<path class="st1" d="M233.1,307.4h-19.4v10.5h19.9C233.3,314.4,233.1,310.9,233.1,307.4z"/>
<path class="st1" d="M213.5,317.9c0,0.7,0.1,1.3,0.2,2v-2H213.5z"/>
<path class="st1" d="M264.1,353v5.5l2.3-1.3C265.6,355.8,264.9,354.4,264.1,353z"/>
<path class="st1" d="M238.6,343.5c0.2,0.6,0.4,1.3,0.6,1.9v-1.9H238.6z"/>
<path class="st1" d="M233.6,317.9h5.7v-10.5h-6.2C233.1,310.9,233.3,314.4,233.6,317.9z"/>
<path class="st1" d="M259.8,343.5c-3.2-8.1-5.3-16.6-6.2-25.6h-14.3v25.6H259.8z"/>
<path class="st1" d="M283.8,347.2c-0.7-1.2-1.4-2.4-2-3.7h-17.7v9.3c0.8,1.5,1.5,3,2.4,4.4L283.8,347.2z"/>
<path class="st1" d="M273.1,307.5h-9v10.4h9.7C273.3,314.5,273.1,311,273.1,307.5z"/>
<path class="st1" d="M253.7,317.9c0.9,8.9,3.1,17.5,6.3,25.6h4.2v-25.6H253.7z"/>
<path class="st1" d="M273.1,307.4c0,3.6,0.2,7.1,0.7,10.5h15.9v-10.6h-16.6V307.4z"/>
<polygon class="st1" points="290,343.5 289.7,343.5 289.7,343.7 "/>
<path class="st1" d="M283.8,347.1l5.9-3.4v-0.2h-7.9C282.5,344.7,283.1,345.9,283.8,347.1z"/>
<path class="st1" d="M301.1,337.1c-3.4-5.9-5.8-12.3-7.1-19.2h-4.3v25.6h0.3L301.1,337.1z"/>
<path class="st1" d="M314.5,317.9H294c1.2,6.9,3.7,13.4,7.1,19.3l13.5-7.8v-11.2C314.6,318.1,314.5,318,314.5,317.9z"/>
<polygon class="st1" points="340.2,314.6 340.2,307.4 314.6,307.4 314.6,317.9 334.5,317.9 "/>
<path class="st1" d="M314.5,317.9c0,0.1,0.1,0.2,0.1,0.3L314.5,317.9L314.5,317.9z"/>
<path class="st1" d="M229.1,242.6h-15.4v24.9h5.3C221.5,258.8,224.9,250.5,229.1,242.6z"/>
<path class="st1" d="M213.7,293v1.9c0.1-0.6,0.1-1.3,0.2-1.9H213.7z"/>
<path class="st1" d="M198.1,267.5c-2.1,8.3-3.6,16.8-4.4,25.6h20v-25.6H198.1z"/>
<path class="st1" d="M206.8,242.6h6.9v-13.7C211.2,233.3,208.9,237.9,206.8,242.6z"/>
<path class="st1" d="M229.1,242.6c-4.1,7.9-7.6,16.2-10.1,24.9h20.3v-24.9H229.1z"/>
<path class="st1" d="M234,293h-20.1c-0.1,0.6-0.1,1.3-0.2,1.9v12.4h19.4C233.1,302.5,233.4,297.8,234,293z"/>
<path class="st1" d="M240,267.5h-0.7v2.1C239.5,268.8,239.7,268.1,240,267.5z"/>
<polygon class="st1" points="240.3,242.6 239.3,242 239.3,242.6 "/>
<path class="st1" d="M234,293c-0.6,4.7-0.9,9.5-0.9,14.4h6.2V293H234z"/>
<path class="st1" d="M264.1,256.2v5.7c0.8-1.5,1.5-2.9,2.4-4.4L264.1,256.2z"/>
<path class="st1" d="M261.5,267.5H240c-0.2,0.7-0.5,1.4-0.7,2.1v23.5h14.9C255.5,284.1,258,275.5,261.5,267.5z"/>
<path class="st1" d="M274.4,293h-10.3v14.4h9C273.1,302.5,273.6,297.7,274.4,293z"/>
<path class="st1" d="M266.5,257.7c-0.8,1.4-1.6,2.8-2.4,4.3v5.4h19.2L266.5,257.7z"/>
<path class="st1" d="M261.5,267.5c-3.6,8-6.1,16.6-7.4,25.6h10v-25.6H261.5z"/>
<path class="st1" d="M274.4,293c-0.9,4.6-1.3,9.4-1.3,14.4h16.6V293H274.4z"/>
<path class="st1" d="M301.1,277.7l-11.4-6.6V293h5.1C296.2,287.6,298.3,282.4,301.1,277.7z"/>
<path class="st1" d="M314.6,293v3.7c0.4-1.2,0.8-2.5,1.2-3.7H314.6z"/>
<path class="st1" d="M301.1,277.6c-2.8,4.8-4.9,10-6.2,15.5h19.7v-7.7L301.1,277.6z"/>
<path class="st1" d="M340.2,300.2l-12.4-7.2h-12c-0.5,1.2-0.9,2.4-1.2,3.7v10.7h25.6V300.2z"/>
<path class="st1" d="M264.1,192.2v7.5c3.2-2.6,6.5-5.2,10-7.5H264.1z"/>
<path class="st1" d="M221.2,217h18.1v-21.9C232.7,201.7,226.6,209.1,221.2,217z"/>
<path class="st1" d="M246.4,217h-7.2v9.2C241.5,223,243.9,219.9,246.4,217z"/>
<path class="st1" d="M242.3,192.2h21.9v-17.5C256.4,179.8,249.1,185.6,242.3,192.2z"/>
<path class="st1" d="M289.7,205.8v-7.4l-3.6-6.3h-12c-3.5,2.4-6.8,4.9-10,7.5v17.3h10.4C279.2,212.9,284.3,209.1,289.7,205.8z"/>
<path class="st1" d="M246.5,217c-2.5,3-4.9,6-7.2,9.2V242l1,0.6h12c3.5-5.5,7.5-10.6,11.9-15.5V217H246.5z"/>
<path class="st1" d="M289.7,217v-11.2c-5.4,3.3-10.5,7-15.2,11.2H289.7z"/>
<path class="st1" d="M277.1,242.6h-13v13.8l2.3,1.3C269.5,252.3,273.1,247.3,277.1,242.6z"/>
<path class="st1" d="M302.8,221.3l-2.5-4.3h-10.6v13.3C293.8,227,298.2,224,302.8,221.3z"/>
<path class="st1" d="M252.2,242.6h11.9v-15.5C259.8,232,255.8,237.1,252.2,242.6z"/>
<path class="st1" d="M277.2,242.6c-4,4.7-7.6,9.7-10.8,15.1l16.9,9.8h0.6c1.8-3,3.7-5.9,5.9-8.7v-16.2L277.2,242.6L277.2,242.6z"/>
<path class="st1" d="M283.7,267.7c0-0.1,0.1-0.2,0.2-0.3h-0.6L283.7,267.7z"/>
<path class="st1" d="M312.8,238.6l-10-17.4c-4.6,2.7-9,5.8-13.1,9.1v12.3h16.9C308.6,241.2,310.7,239.8,312.8,238.6z"/>
<path class="st1" d="M315.2,242.6h-0.6v19.2c2.6-2.2,5.4-4.2,8.3-5.9L315.2,242.6z"/>
<path class="st1" d="M284,267.5h5.8v-8.6C287.6,261.6,285.7,264.4,284,267.5z"/>
<path class="st1" d="M308.6,267.5h-18.9v3.7l11.4,6.6C303.2,274,305.8,270.6,308.6,267.5z"/>
<path class="st1" d="M312.9,238.6c-2.1,1.2-4.2,2.6-6.2,4h7.9v-1.1L312.9,238.6z"/>
<polygon class="st1" points="314.6,241.5 314.6,242.6 315.2,242.6 "/>
<path class="st1" d="M322.9,255.9c-3,1.7-5.7,3.6-8.3,5.8v5.8h15L322.9,255.9z"/>
<path class="st1" d="M308.6,267.5c-2.8,3.1-5.3,6.5-7.5,10.3l13.5,7.8v-18L308.6,267.5L308.6,267.5z"/>
<polygon class="st1" points="340.2,300.2 340.2,293 327.7,293 "/>
<polygon class="st1" points="344.3,293 340.2,285.9 340.2,293 "/>
<polygon class="st3" points="365,313.8 365,317.9 367.4,317.9 "/>
<path class="st3" d="M426.6,418.7l-11.1-19v19.1L426.6,418.7C426.6,418.8,426.6,418.7,426.6,418.7z"/>
<path class="st3" d="M408.3,418.8l4.6,7.9c0.7,1.1,1.6,2,2.6,2.7v-10.6H408.3z"/>
<polygon class="st3" points="364,343.5 365,345.2 365,343.5 "/>
<polygon class="st3" points="390.6,368.3 390.6,357.4 382.5,343.5 365,343.5 365,345.2 378.6,368.3 "/>
<polygon class="st3" points="412.1,393.9 397,368.3 390.6,368.3 390.6,388.8 393.7,393.9 "/>
<polygon class="st3" points="349,317.9 364,343.5 365,343.5 365,317.9 "/>
<path class="st14" d="M448,263.7c-30.1,0-54.6,24.5-54.6,54.6c0,30.1,24.5,54.6,54.6,54.6s54.6-24.5,54.6-54.6
	C502.6,288.2,478.1,263.7,448,263.7z"/>
<path class="st15" d="M473.4,326.2c-4.4,0-8-3.6-8-8c0-9.6-7.8-17.5-17.5-17.5c-4.4,0-7.9-3.6-7.9-8s3.6-8,7.9-8
	c18.4,0,33.4,15,33.4,33.4C481.4,322.7,477.8,326.2,473.4,326.2z"/>
<g id="Layer_2">
</g>
</svg>
