<?xml version="1.0" encoding="utf-8"?>
<!-- Generator: Adobe Illustrator 19.0.0, SVG Export Plug-In . SVG Version: 6.00 Build 0)  -->
<svg version="1.1" id="Layer_1" xmlns="http://www.w3.org/2000/svg" xmlns:xlink="http://www.w3.org/1999/xlink" x="0px" y="0px"
	 viewBox="96 11 512 512" style="enable-background:new 96 11 512 512;" xml:space="preserve">
<style type="text/css">
	.st0{fill:#FF8C29;}
	.st1{fill:#FD6A33;}
	.st2{fill:#687F82;}
	.st3{fill:#365558;}
	.st4{display:none;fill:#687F82;}
	.st5{display:none;fill:#365558;}
	.st6{fill:#F0353D;}
</style>
<path class="st0" d="M554.4,97c0-47.2-38.2-86-85.2-86h-103v180.5l188.2,188.2V97z"/>
<path class="st0" d="M366.2,523h103c14.2,0,27.6-3.6,39.3-9.8L366.2,370.8V523z"/>
<path class="st1" d="M178.3,437c0,47.3,38.3,86,85.2,86h103V371.1L178.3,182.9V437z"/>
<path class="st1" d="M366.5,11h-103c-21.5,0-41.2,8.2-56.2,21.6l159.2,159.2V11z"/>
<path class="st2" d="M495.7,140.5c-0.2-35.1-28.6-63.8-63.2-63.8h-66.6v114.5L495.7,321V140.5z"/>
<path class="st2" d="M365.8,460h66.7c6.9,0,13.5-1.1,19.7-3.2l-86.3-86.3V460H365.8z"/>
<path class="st3" d="M365.8,76.7h-66.6c-13.4,0-25.9,4.3-36.2,11.6l102.8,102.8V76.7z"/>
<path class="st3" d="M236,396.2c0,35.1,28.4,63.8,63.2,63.8h66.6v-89.6L236,240.6V396.2z"/>
<path class="st1" d="M150.7,218.6c0,7.9,10.9,14.3,24,14.3h2.9v-50.7l-26.9-26.9L150.7,218.6L150.7,218.6z"/>
<path class="st0" d="M177.9,233h2.9c13.1,0,24-6.4,24-14.3v-9.3l-26.9-26.9V233z"/>
<path class="st4" d="M882.1,198.6L774.4-47c-3-6-8.3-9-13.5-9v283h106.8C880.6,227,888.4,211.1,882.1,198.6z"/>
<path class="st5" d="M747.6-47L641.9,198.6c-6.1,12.7,1.6,28.4,14.1,28.4h104.9V-56C755.8-56,750.6-52.9,747.6-47z"/>
<path class="st1" d="M174.8,290.5c-13.1,0-24,6.5-24,14.3v98.3c0,7.9,10.9,14.3,24,14.3h2.9v-93.1c0.4-11.4,5.4-22.3,14.1-32.2
	c-3.2-0.9-7-1.6-10.9-1.6L174.8,290.5L174.8,290.5z"/>
<path class="st0" d="M191.8,292.2c-8.8,9.9-13.8,20.9-13.8,32.3v93h2.9c13.1,0,24-6.4,24-14.3v-98.3
	C204.9,299.3,199.5,294.5,191.8,292.2z"/>
<path class="st6" d="M170.1,23.7c-17-16.9-44.5-16.9-61.4,0c-16.9,17-16.9,44.5,0,61.4l425.2,425.2c17,16.9,44.4,16.9,61.4,0
	c16.9-17,16.9-44.5,0-61.4L170.1,23.7z"/>
</svg>
