<?xml version="1.0" encoding="utf-8"?>
<!-- Generator: Adobe Illustrator 19.0.0, SVG Export Plug-In . SVG Version: 6.00 Build 0)  -->
<svg version="1.1" id="Layer_1" xmlns="http://www.w3.org/2000/svg" xmlns:xlink="http://www.w3.org/1999/xlink" x="0px" y="0px"
	 viewBox="96 -54 512 640" style="enable-background:new 96 -54 512 640;" xml:space="preserve">
<style type="text/css">
	.st0{display:none;fill:#687F82;}
	.st1{display:none;fill:#365558;}
	.st2{display:none;fill:#F0353D;}
	.st3{display:none;fill:#BCD643;enable-background:new    ;}
	.st4{font-family:'Saira-Bold';}
	.st5{font-size:338.0789px;}
	.st6{fill:#F0353D;}
	.st7{fill:#FD6A33;}
	.st8{fill:#FF8C29;}
	.st9{fill:#FFD1A9;}
	.st10{fill:#365558;}
	.st11{fill:#0295AA;}
	.st12{fill:#4ACFD9;}
	.st13{fill:none;stroke:#000000;stroke-miterlimit:10;}
	.st14{fill:#9BAAAB;}
	.st15{fill:#CDD4D5;}
	.st16{fill:#E6EAEA;}
	.st17{fill:#FFFFFF;}
	.st18{fill:#BCD643;}
	.st19{display:none;fill:#F0353D;enable-background:new    ;}
	.st20{font-size:340.4162px;}
</style>
<path class="st0" d="M978.1,144.6L870.4-101c-3-6-8.3-9-13.5-9v283h106.8C976.6,173,984.4,157.1,978.1,144.6z"/>
<path class="st1" d="M843.6-101L737.9,144.6c-6.1,12.7,1.6,28.4,14.1,28.4h104.9v-283C851.8-110,846.6-106.9,843.6-101z"/>
<path class="st2" d="M457.6-8.3c-17-16.9-44.5-16.9-61.4,0c-16.9,17-16.9,44.5,0,61.4l425.2,425.2c17,16.9,44.4,16.9,61.4,0
	c16.9-17,16.9-44.5,0-61.4L457.6-8.3z"/>
<text transform="matrix(1.0064 0 0 1 427.1172 339.0186)" class="st3 st4 st5">A</text>
<g>
	<rect x="-610" y="-21" class="st6" width="128" height="128"/>
	<rect x="-482" y="-21" class="st7" width="128" height="128"/>
	<rect x="-354" y="-21" class="st8" width="128" height="128"/>
	<rect x="-226" y="-21" class="st9" width="128" height="128"/>
	<rect x="-610" y="107" class="st10" width="128" height="128"/>
	<rect x="-482" y="107" class="st11" width="128" height="128"/>
	<rect x="-354" y="107" class="st12" width="128" height="128"/>
	<rect x="-226" y="107" class="st13" width="128" height="128"/>
	<rect x="-610" y="235" class="st14" width="128" height="128"/>
	<rect x="-482" y="235" class="st15" width="128" height="128"/>
	<rect x="-354" y="235" class="st16" width="128" height="128"/>
	<rect x="-226" y="235" class="st17" width="128" height="128"/>
	<rect x="-610" y="363" class="st18" width="128" height="128"/>
	<rect x="-482" y="363" class="st13" width="128" height="128"/>
	<rect x="-354" y="363" class="st13" width="128" height="128"/>
	<rect x="-226" y="363" class="st13" width="128" height="128"/>
</g>
<path class="st0" d="M978.1,144.6L870.4-101c-3-6-8.3-9-13.5-9v283h106.8C976.6,173,984.4,157.1,978.1,144.6z"/>
<path class="st1" d="M843.6-101L737.9,144.6c-6.1,12.7,1.6,28.4,14.1,28.4h104.9v-283C851.8-110,846.6-106.9,843.6-101z"/>
<path class="st2" d="M457.6-8.3c-17-16.9-44.5-16.9-61.4,0c-16.9,17-16.9,44.5,0,61.4l425.2,425.2c17,16.9,44.4,16.9,61.4,0
	c16.9-17,16.9-44.5,0-61.4L457.6-8.3z"/>
<text transform="matrix(1 0 0 1 391.2085 340.5831)" class="st19 st4 st20">M</text>
<path class="st2" d="M699.7,407.3V40.4c0-12.4,8.7-24,22.3-32.5c0,0,45.9-32.6,55.6-38c8.4-4.7,22.3-2.2,22.3,20.5v465.5
	c0,23.8-12.5,27.5-22.3,21.5S722,439.7,722,439.7C709.3,432.4,699.7,419.7,699.7,407.3z"/>
<path class="st2" d="M388.3,40.7v366.8c0,12.4-8.7,24-22.3,32.5c0,0-45.9,32.6-55.6,38c-8.4,4.7-22.3,2.2-22.3-20.5V-7.9
	c0-23.8,12.5-27.5,22.3-21.5S366,8.3,366,8.3C378.7,15.6,388.3,28.3,388.3,40.7z"/>
<rect x="-610" y="-21" class="st6" width="128" height="128"/>
<rect x="-482" y="-21" class="st7" width="128" height="128"/>
<rect x="-354" y="-21" class="st8" width="128" height="128"/>
<rect x="-226" y="-21" class="st9" width="128" height="128"/>
<rect x="-610" y="107" class="st10" width="128" height="128"/>
<rect x="-482" y="107" class="st11" width="128" height="128"/>
<rect x="-354" y="107" class="st12" width="128" height="128"/>
<rect x="-226" y="107" class="st13" width="128" height="128"/>
<rect x="-610" y="235" class="st14" width="128" height="128"/>
<rect x="-482" y="235" class="st15" width="128" height="128"/>
<rect x="-354" y="235" class="st16" width="128" height="128"/>
<rect x="-226" y="235" class="st17" width="128" height="128"/>
<rect x="-610" y="363" class="st18" width="128" height="128"/>
<rect x="-482" y="363" class="st13" width="128" height="128"/>
<rect x="-354" y="363" class="st13" width="128" height="128"/>
<rect x="-226" y="363" class="st13" width="128" height="128"/>
<rect x="192" y="-43" class="st2" width="512" height="512"/>
<polygon class="st18" points="476.9,-57 419.1,-57 448,-107 "/>
<polygon class="st18" points="419.1,483 476.9,483 448,533 "/>
</svg>
