<?xml version="1.0" encoding="utf-8"?>
<!-- Generator: Adobe Illustrator 19.0.0, SVG Export Plug-In . SVG Version: 6.00 Build 0)  -->
<svg version="1.1" id="Layer_1" xmlns="http://www.w3.org/2000/svg" xmlns:xlink="http://www.w3.org/1999/xlink" x="0px" y="0px"
	 viewBox="96 11 512 512" style="enable-background:new 96 11 512 512;" xml:space="preserve">
<style type="text/css">
	.st0{fill:#E6EAEA;}
	.st1{fill:#CDD4D5;}
	.st2{fill:#FFD1A9;}
	.st3{fill:#FF8C29;}
	.st4{fill:#9BAAAB;}
	.st5{fill:#687F82;}
	.st6{fill:#365558;}
	.st7{fill:#F0353D;}
	.st8{fill:#0295AA;}
	.st9{fill:#FD6A33;}
	.st10{display:none;fill:#0295AA;}
	.st11{fill:#4ACFD9;}
	.st12{fill:#FFFFFF;}
</style>
<path class="st0" d="M394,355.8C394,355.8,394.1,355.7,394,355.8C394.1,355.7,394,355.8,394,355.8z"/>
<path class="st0" d="M429.3,320.5C429.3,320.5,429.4,320.4,429.3,320.5C429.4,320.4,429.3,320.5,429.3,320.5z"/>
<path class="st0" d="M395.7,365.2c-0.1,0.1-0.2,0.2-0.3,0.4C395.5,365.5,395.6,365.3,395.7,365.2z"/>
<path class="st0" d="M431.8,317.1C431.8,317.1,431.9,317.1,431.8,317.1C431.9,317.1,431.8,317.1,431.8,317.1z"/>
<path class="st0" d="M439,322c-0.1,0.1-0.1,0.1-0.2,0.2C438.8,322.1,438.9,322,439,322z"/>
<path class="st0" d="M390.7,358.3C390.7,358.3,390.7,358.2,390.7,358.3C390.7,358.2,390.7,358.3,390.7,358.3z"/>
<path class="st0" d="M600,14.2H104c-4.4,0-8,3.6-8,8v145.6c17.9-85.2,93.6-149.4,184-149.4c103.7,0,188,84.3,188,188
	c0,39.9-12.5,76.8-33.7,107.3l6.7,6.7c0,0,0,0,0,0c5.6-4.1,12.5-6.4,19.5-6.4c8.8,0,17.1,3.5,23.4,9.8l119.8,119.8l0.3,0.3
	c1.5,1.6,2.8,3.4,4,5.2V22.2C608,17.8,604.4,14.2,600,14.2z"/>
<path class="st0" d="M387.3,360.7C387.3,360.7,387.3,360.7,387.3,360.7c-30.4,21.2-67.4,33.7-107.3,33.7
	c-90.4,0-166.1-64.2-184-149.4v264.6c0,4.4,3.6,8,8,8h400.2l-107-107.1c-6.3-6.3-9.8-14.6-9.8-23.5c0-7.2,2.3-14,6.5-19.7
	c0,0,0,0,0,0L387.3,360.7z"/>
<path class="st0" d="M603.3,490.2L576,517.6h24c4.4,0,8-3.6,8-8v-25.2C606.7,486.5,605.1,488.5,603.3,490.2z"/>
<path class="st0" d="M438.8,322.2c-0.6,0.5-1.2,1.1-1.8,1.7C437.5,323.3,438.1,322.7,438.8,322.2z"/>
<path class="st0" d="M441,320.4c-0.7,0.5-1.3,1-2,1.6C439.6,321.4,440.3,320.9,441,320.4z"/>
<path class="st0" d="M394,367.4c0.4-0.6,0.9-1.2,1.4-1.8C394.9,366.2,394.4,366.8,394,367.4z"/>
<path class="st0" d="M397.3,363.6c-0.5,0.5-1,1.1-1.5,1.7C396.2,364.7,396.7,364.1,397.3,363.6z"/>
<path class="st0" d="M431.9,317.1c0.8-1.1,1.6-2.2,2.4-3.4l0,0C433.5,314.8,432.7,315.9,431.9,317.1z"/>
<path class="st0" d="M431.8,317.1c-0.8,1.1-1.6,2.2-2.4,3.3C430.2,319.3,431,318.2,431.8,317.1z"/>
<path class="st0" d="M387.3,360.7c1.1-0.8,2.2-1.6,3.4-2.4C389.5,359.1,388.4,359.9,387.3,360.7z"/>
<path class="st0" d="M394,355.8c-1.1,0.8-2.2,1.6-3.3,2.5C391.8,357.4,392.9,356.6,394,355.8z"/>
<path class="st1" d="M96,245v264.6c0,4.4,3.6,8,8,8h246.9V380.5c-21.9,8.9-45.8,13.9-70.9,13.9C189.6,394.4,113.9,330.2,96,245z"/>
<path class="st1" d="M280,18.4c25.1,0,49,4.9,70.9,13.9V14.2H104c-4.4,0-8,3.6-8,8v145.6C113.9,82.6,189.6,18.4,280,18.4z"/>
<path class="st2" d="M406.6,345.2c0.1-0.1,0.2-0.2,0.3-0.2C406.8,345,406.7,345.1,406.6,345.2z"/>
<path class="st2" d="M403.4,348.1c0.2-0.1,0.3-0.3,0.5-0.4C403.7,347.8,403.6,347.9,403.4,348.1z"/>
<path class="st2" d="M415.7,336.3c0.1-0.1,0.2-0.2,0.2-0.3C415.9,336.2,415.8,336.2,415.7,336.3z"/>
<path class="st2" d="M421.1,330.5c0.2-0.3,0.5-0.6,0.7-0.8C421.6,329.9,421.4,330.2,421.1,330.5z"/>
<path class="st2" d="M418.4,333.4c0.2-0.2,0.4-0.4,0.6-0.7C418.8,333,418.6,333.2,418.4,333.4z"/>
<path class="st2" d="M423.7,327.4c0.3-0.3,0.5-0.6,0.8-0.9C424.2,326.8,424,327.1,423.7,327.4z"/>
<path class="st2" d="M395.7,365.2c-0.1,0.1-0.2,0.2-0.3,0.4C395.5,365.5,395.6,365.3,395.7,365.2z"/>
<path class="st2" d="M439,322c-0.1,0.1-0.1,0.1-0.2,0.2C438.8,322.1,438.9,322,439,322z"/>
<path class="st2" d="M394,355.8C394.1,355.7,394.1,355.7,394,355.8C394.1,355.7,394.1,355.7,394,355.8z"/>
<path class="st2" d="M400.3,350.7c0.2-0.1,0.3-0.3,0.5-0.4C400.6,350.5,400.5,350.6,400.3,350.7z"/>
<path class="st2" d="M431.5,317.5c0.1-0.2,0.2-0.3,0.4-0.5C431.8,317.2,431.7,317.4,431.5,317.5z"/>
<path class="st2" d="M387.3,360.7c-30.4,21.2-67.4,33.7-107.3,33.7c-47.1,0-90.3-17.4-123.3-46.2l-14.2,16.1v106.9h315.4l-60.6-60.7
	c-6.3-6.3-9.8-14.6-9.8-23.5c0-7.2,2.3-14,6.5-19.7c0,0,0,0,0,0L387.3,360.7z"/>
<path class="st2" d="M426.3,324.3c0.3-0.3,0.5-0.6,0.8-0.9C426.8,323.7,426.5,324,426.3,324.3z"/>
<path class="st2" d="M460.2,260.1c-5.8,19.3-14.6,37.4-25.9,53.6c0,0,0,0,0,0l6.7,6.7c0,0,0,0,0,0c5.6-4.1,12.5-6.4,19.5-6.4
	c8.8,0,17.1,3.5,23.4,9.8l77.6,77.6V141.9L460.2,260.1z"/>
<path class="st2" d="M394,367.4c0.4-0.6,0.9-1.2,1.4-1.8C394.9,366.2,394.4,366.8,394,367.4z"/>
<path class="st2" d="M397.3,363.6c-0.5,0.5-1,1.1-1.5,1.7C396.2,364.7,396.7,364.1,397.3,363.6z"/>
<path class="st2" d="M441,320.4c-0.7,0.5-1.3,1-2,1.6C439.6,321.4,440.3,320.9,441,320.4z"/>
<path class="st2" d="M438.8,322.2c-0.6,0.5-1.2,1.1-1.8,1.7C437.5,323.3,438.1,322.7,438.8,322.2z"/>
<path class="st2" d="M434.3,313.7c-0.8,1.1-1.6,2.2-2.4,3.3C432.7,315.9,433.5,314.8,434.3,313.7z"/>
<path class="st2" d="M426.3,324.3c-0.6,0.7-1.2,1.5-1.8,2.2C425.1,325.8,425.7,325.1,426.3,324.3z"/>
<path class="st2" d="M431.5,317.5c-0.7,0.9-1.3,1.8-2,2.7C430.2,319.3,430.9,318.4,431.5,317.5z"/>
<path class="st2" d="M387.3,360.7L387.3,360.7c2.3-1.6,4.5-3.2,6.7-4.9C391.8,357.5,389.6,359.1,387.3,360.7z"/>
<path class="st2" d="M406.9,345c3-2.8,6-5.7,8.8-8.6C412.9,339.3,409.9,342.2,406.9,345z"/>
<path class="st2" d="M423.7,327.4c-0.6,0.7-1.2,1.5-1.9,2.2C422.5,328.9,423.1,328.2,423.7,327.4z"/>
<path class="st2" d="M403.4,348.1c-0.9,0.8-1.8,1.5-2.7,2.3C401.7,349.6,402.6,348.8,403.4,348.1z"/>
<path class="st2" d="M421.1,330.5c-0.7,0.8-1.4,1.5-2.1,2.3C419.7,332,420.4,331.2,421.1,330.5z"/>
<path class="st2" d="M406.6,345.2c-0.9,0.8-1.8,1.6-2.7,2.5C404.8,346.9,405.7,346,406.6,345.2z"/>
<path class="st2" d="M418.4,333.4c-0.8,0.9-1.6,1.8-2.5,2.6C416.8,335.2,417.6,334.3,418.4,333.4z"/>
<path class="st3" d="M156.7,348.2l-14.2,16.1v106.9h208.4v-90.7c-21.9,8.9-45.8,13.9-70.9,13.9C232.9,394.4,189.7,377,156.7,348.2z"
	/>
<path class="st4" d="M166.2,56.9h-19.4c-4.4,0-8,3.6-8,8v17.5C147,73,156.2,64.5,166.2,56.9z"/>
<path class="st4" d="M557.2,56.9H393.8c6.5,5,12.7,10.3,18.5,16.1h38.6v55.1c8.3,18,13.8,37.5,16,58V167h82.3v86.6h-82.3v-26.9
	c-2.2,20.4-7.7,39.8-15.9,57.8v30.9c3.1-0.9,6.3-1.4,9.5-1.4c2.2,0,4.3,0.2,6.4,0.6v-45h82.3v86.6h-32.8l16,16h16.8V389l16.1,16.1
	V64.9C565.2,60.5,561.7,56.9,557.2,56.9z M549.2,151h-82.3V73h82.3V151z"/>
<path class="st4" d="M445.5,458.8H360v-82.3c-5.2,2.5-10.5,4.7-16,6.7v75.6h-90.9v-66.3c-5.4-0.8-10.7-1.8-16-3v69.3h-82.3v-86.6
	h36.7c-8.7-4.7-17-10-24.8-15.9h-11.9v-9.8c-5.7-5.1-11-10.4-16-16.1v136.5c0,4.4,3.6,8,8,8h314.8L445.5,458.8z"/>
<path class="st4" d="M397.3,363.6c-0.6,0.6-1.2,1.3-1.8,1.9C396,364.8,396.6,364.2,397.3,363.6z"/>
<path class="st4" d="M390.7,358.3c0.1,0,0.1-0.1,0.2-0.1C390.8,358.2,390.7,358.2,390.7,358.3z"/>
<path class="st4" d="M387.3,360.7C387.3,360.7,387.3,360.7,387.3,360.7c-6,4.2-12.3,8-18.8,11.5H391c1.1-2.2,2.4-4.2,4-6.2
	c-0.4,0.4-0.7,0.9-1.1,1.3L387.3,360.7z"/>
<path class="st4" d="M395,366c0.2-0.2,0.3-0.4,0.4-0.6C395.3,365.7,395.2,365.9,395,366z"/>
<path class="st4" d="M393.5,356.2L393.5,356.2c-0.9,0.6-1.7,1.3-2.6,1.9C391.7,357.5,392.6,356.9,393.5,356.2z"/>
<path class="st4" d="M387.3,360.7c1.1-0.8,2.3-1.6,3.4-2.4C389.6,359.1,388.4,359.9,387.3,360.7z"/>
<path class="st5" d="M166.2,56.9h-19.4c-4.4,0-8,3.6-8,8v17.5C147,73,156.2,64.5,166.2,56.9z"/>
<path class="st5" d="M344,458.8h-90.9v-66.3c-5.4-0.8-10.7-1.8-16-3v69.3h-82.3v-86.6h36.7c-8.7-4.7-17-10-24.8-15.9h-11.9v-9.8
	c-5.7-5.1-11-10.4-16-16.1v136.5c0,4.4,3.6,8,8,8H351v-94.4c-2.3,0.9-4.6,1.9-7,2.7V458.8z"/>
<path class="st6" d="M558.4,153.1c-3.3-3-8.3-2.8-11.3,0.5L464.2,244c-2.4,11.6-5.8,22.8-10.2,33.4l10.4-10c0.1-0.1,0.2-0.2,0.4-0.4
	L559,164.4C561.9,161.2,561.6,156.1,558.4,153.1z"/>
<path class="st6" d="M140.9,363.1c-3,3.3-2.8,8.3,0.5,11.3c1.5,1.4,3.5,2.1,5.4,2.1c2.2,0,4.3-0.9,5.9-2.6l15.3-16.6
	c-4.3-3.2-8.4-6.6-12.4-10.1L140.9,363.1z"/>
<path class="st7" d="M143,335c-14.4,1.9-25.6,14.2-25.6,29.2c0,16.2,13.2,29.4,29.4,29.4c16.2,0,29.4-13.2,29.4-29.4
	c0-0.4,0-0.8,0-1.2C164.1,355,153,345.6,143,335z"/>
<g>
	<path class="st0" d="M280,75.3c-72.4,0-131.1,58.8-131.1,131.1S207.7,337.5,280,337.5c72.1,0,130.9-58.9,131.1-131.1
		C411.1,134.1,352.4,75.3,280,75.3z"/>
	<path class="st1" d="M393.7,141.2c-22.6-39.3-65.1-65.9-113.7-65.9c-72.4,0-131.1,58.8-131.1,131.1S207.7,337.5,280,337.5
		c48.5,0,91-26.7,113.7-66.2V141.2z"/>
	<path class="st2" d="M183,294.6c24,26.4,58.6,43,97,43c23.6,0,45.7-6.3,64.9-17.3l-101.6-93.8L183,294.6z"/>
	<path class="st3" d="M183,294.6c24,26.4,58.6,43,97,43c23.6,0,45.7-6.3,64.9-17.3l-101.6-93.8L183,294.6z"/>
	<path class="st4" d="M409.5,227.1h-3.4v0.1v-0.1v-56.5c-4.5-16-12.1-30.7-21.9-43.6v100.2H260.1V108.9h107.4
		C357.6,100,346.3,92.6,334,87h-73.9V76.9c-7.5,1.1-14.9,2.9-21.9,5.3V87H226c-12.3,5.6-23.6,13-33.5,21.9h45.7v118.3h-87.6
		c1.2,7.5,3,14.9,5.5,21.9h82.2v81.6c7.1,2.4,14.4,4.2,21.9,5.3v-87h124.1v36.6C397.1,268.8,406,248.8,409.5,227.1z"/>
	<path class="st5" d="M393.8,271.3V141.2h-0.1c-2.9-5-6-9.7-9.5-14.2v100.2H260.1V108.9h107.4C357.6,100,346.3,92.6,334,87h-73.9
		V76.9c-7.5,1.1-14.9,2.9-21.9,5.3V87H226c-12.3,5.6-23.6,13-33.5,21.9h45.7v118.3h-87.6c1.2,7.5,3,14.9,5.5,21.9h82.2v81.6
		c7.1,2.4,14.4,4.2,21.9,5.3v-87h124.1v36.6C387.8,281.1,390.9,276.3,393.8,271.3z"/>
	<path class="st6" d="M248.8,227.2c-2.9,0.1-5.7,1.4-7.7,3.5l-58.4,63.5c4.9,5.4,10.2,10.4,16,15l51-55.4l77.9,74.8
		c7.3-2.9,14.2-6.3,20.8-10.4l-91.6-88C254.6,228.2,251.7,227.1,248.8,227.2z"/>
	<path class="st8" d="M249.1,198c-22.1,0-40.2,18-40.2,40.2c0,22.1,18,40.2,40.2,40.2c22.2,0,40.2-18,40.2-40.2
		C289.3,216,271.3,198,249.1,198z"/>
</g>
<path class="st9" d="M352,393.6c16,0,29.1-13,29.4-28.9c-14.8,9.5-31,17-48.2,22.1C338.3,391,344.8,393.6,352,393.6z"/>
<path class="st7" d="M350.9,393.6v-13.1c-5.8,2.4-11.7,4.4-17.7,6.2C338,390.8,344.2,393.3,350.9,393.6z"/>
<path class="st6" d="M418.2,333.7c1.1-1.2,2.2-2.4,3.3-3.6C420.4,331.3,419.3,332.5,418.2,333.7z"/>
<path class="st6" d="M413.9,338.2c0.9-0.9,1.8-1.8,2.7-2.8C415.7,336.4,414.8,337.3,413.9,338.2z"/>
<path class="st6" d="M409.1,342.9c0.9-0.9,1.8-1.8,2.8-2.7C410.9,341.2,410,342.1,409.1,342.9z"/>
<path class="st6" d="M403.7,347.9c1.2-1.1,2.4-2.2,3.6-3.3C406.1,345.7,404.9,346.8,403.7,347.9z"/>
<polygon class="st6" points="426.6,334.3 426.6,334.3 418.9,341.9 "/>
<path class="st6" d="M421.5,330.1c-1.1,1.2-2.2,2.4-3.3,3.6c-0.5,0.6-1.1,1.2-1.6,1.7c-0.9,0.9-1.8,1.8-2.7,2.8
	c-0.7,0.7-1.4,1.4-2.1,2.1c-0.9,0.9-1.8,1.8-2.8,2.7c-0.6,0.5-1.2,1.1-1.7,1.6c-1.2,1.1-2.4,2.2-3.6,3.3c-0.2,0.1-0.3,0.3-0.5,0.4
	l4.7,4.7l11.1-11.1l7.6-7.6l-4.7-4.7C421.8,329.8,421.6,329.9,421.5,330.1z"/>
<path class="st6" d="M444.2,351.9l-17.6-17.6l-7.6,7.6L407.9,353l17.6,17.6c2.5,2.6,5.9,3.9,9.3,3.9c3.3,0,6.6-1.3,9.4-3.9
	C449.4,365.4,449.4,357.2,444.2,351.9z"/>
<polygon class="st6" points="407.9,353 407.9,353 418.9,341.9 "/>
<path class="st6" d="M407.3,344.6c0.6-0.5,1.2-1.1,1.7-1.6c0.9-0.9,1.8-1.8,2.8-2.7c0.7-0.7,1.4-1.4,2.1-2.1
	c0.9-0.9,1.8-1.8,2.7-2.8c0.5-0.6,1.1-1.2,1.6-1.7c1.1-1.2,2.2-2.4,3.3-3.6c0.1-0.2,0.3-0.3,0.4-0.5l-21.7-21.7
	c-5.2-5.2-13.5-5.2-18.7,0s-5.2,13.5,0,18.7l21.7,21.7c0.2-0.1,0.3-0.3,0.5-0.4C404.9,346.8,406.1,345.7,407.3,344.6z"/>
<path class="st6" d="M421.9,329.6L421.9,329.6c-0.2,0.2-0.3,0.3-0.4,0.5C421.6,329.9,421.8,329.8,421.9,329.6z"/>
<path class="st6" d="M403.7,347.9c-0.2,0.1-0.3,0.3-0.5,0.4l0,0C403.4,348.2,403.5,348,403.7,347.9z"/>
<path class="st6" d="M409.1,342.9c-0.6,0.5-1.2,1.1-1.7,1.6C407.9,344,408.5,343.5,409.1,342.9z"/>
<path class="st6" d="M411.8,340.3c0.7-0.7,1.4-1.4,2.1-2.1C413.2,338.9,412.5,339.6,411.8,340.3z"/>
<path class="st6" d="M418.2,333.7c-0.5,0.6-1.1,1.2-1.6,1.7C417.1,334.9,417.6,334.3,418.2,333.7z"/>
<path class="st8" d="M448,206.4c0-92.6-75.4-168-168-168s-168,75.4-168,168s75.4,168,168,168S448,299,448,206.4z M280,337.7
	c-72.3,0-131.1-58.8-131.1-131.1S207.6,75.4,280,75.4s131.1,58.8,131.1,131.1C410.9,278.7,352.1,337.7,280,337.7z"/>
<path class="st10" d="M376,87.5c-72.4,0-131.1,58.8-131.1,131.1S303.7,349.8,376,349.8c72.1,0,130.9-58.9,131.1-131.1
	C507.1,146.3,448.4,87.5,376,87.5z"/>
<path class="st11" d="M589.3,457.4L469.8,337.9c-2.5-2.5-5.8-3.9-9.3-3.9s-6.9,1.4-9.3,3.9l-39.8,39.8c-5.2,5.2-5.2,13.5,0,18.7
	l119.4,119.5c2.6,2.6,6,3.9,9.3,3.9c3.4,0,6.8-1.3,9.3-3.9l39.8-39.8c2.5-2.5,3.9-5.8,3.9-9.3C593.1,463.2,591.6,459.9,589.3,457.4z
	"/>
<path class="st12" d="M486.4,373c-5.2-5.2-13.5-5.2-18.7,0s-5.2,13.5,0,18.7L531,455c2.5,2.6,5.9,3.9,9.3,3.9c3.3,0,6.8-1.2,9.4-3.9
	c5.2-5.2,5.2-13.5,0-18.7L486.4,373z"/>
<g>
	<path class="st12" d="M227.7,105.6c-2.7,0-5.5,1-7.6,3.1l-28.6,28.6c-4.2,4.2-4.2,11,0,15.2c4.3,4.2,11,4.2,15.2,0l28.6-28.6
		c4.2-4.2,4.2-11,0-15.2C233.2,106.6,230.5,105.6,227.7,105.6z"/>
	<path class="st12" d="M242,148.4c-2.7,0-5.5,1-7.6,3.1L203,182.9c-4.2,4.2-4.2,11,0,15.2s11,4.2,15.2,0l31.4-31.4
		c4.2-4.2,4.2-11,0-15.2C247.5,149.4,244.8,148.4,242,148.4z"/>
</g>
<path class="st12" d="M337,118.4c-17.8-15.1-41.2-21.4-64.3-17.4c-5.5,1-9.3,6.4-8.3,11.9s6.4,9.3,11.9,8.3
	c16.9-2.9,34.3,1.9,47.5,13c2.5,2.1,5.4,2.7,8.4,2.2c2.4-0.5,4.5-1.6,6-3.5C341.8,128.5,341.3,122.2,337,118.4z"/>
</svg>
