<?xml version="1.0" encoding="utf-8"?>
<!-- Generator: Adobe Illustrator 19.0.0, SVG Export Plug-In . SVG Version: 6.00 Build 0)  -->
<svg version="1.1" id="Layer_1" xmlns="http://www.w3.org/2000/svg" xmlns:xlink="http://www.w3.org/1999/xlink" x="0px" y="0px"
	 viewBox="96 11 512 512" style="enable-background:new 96 11 512 512;" xml:space="preserve">
<style type="text/css">
	.st0{display:none;fill:#020202;}
	.st1{fill:#FD6A33;}
	.st2{fill:#FF8C29;}
	.st3{fill:#FFD1A9;}
	.st4{fill:#F0353D;}
	.st5{fill:#FFFFFF;}
	.st6{fill:#4ACFD9;}
	.st7{fill:#E6EAEA;}
	.st8{fill:#CDD4D5;}
	.st9{fill:#0295AA;}
	.st10{fill:#9BAAAB;}
	.st11{fill:#365558;}
</style>
<rect x="288" y="33" class="st0" width="512" height="512"/>
<path class="st1" d="M239,152.7h-5.7h-5.8c-7.4,0-13.4,6.1-13.4,13.4v57.7c0,7.4,6.1,13.4,13.4,13.4h5.8h5.7c3.3,0,6.2-2.7,6.2-6.2
	v-72.2C245.1,155.6,242.4,152.7,239,152.7z"/>
<path class="st2" d="M470.7,237.2H465c-3.3,0-6.2-2.7-6.2-6.2v-72.2c0-3.3,2.7-6.2,6.2-6.2h5.7h5.8c7.4,0,13.4,6.1,13.4,13.4v57.8
	c0,7.4-6.1,13.4-13.4,13.4L470.7,237.2L470.7,237.2z"/>
<path class="st2" d="M417.3,98.9h-42.4c-4.2,0-8.1-3.8-8.1-8.1v-1.9H352v133.5h3h5.6c1.7,0,3,1.4,3,2.9v5.6c0,1.7-1.4,3-3,3H355v0.1
	h-3v43.2h65.3c17,0,30.9-13.9,30.9-30.9V129.6C448.2,112.6,434.2,98.7,417.3,98.9z M406.1,230.8c0,1.8-1.5,3.2-3.2,3.2H386
	c-1.7,0-3.2-1.5-3.2-3.2v-5.2c0-1.8,1.5-3.2,3.2-3.2h16.8c1.8,0,3.2,1.5,3.2,3.2V230.8z M394.4,183.1c-8.5,0-15.4-6.9-15.4-15.4
	c0-8.5,6.9-15.4,15.4-15.4c8.5,0,15.4,6.9,15.4,15.4C409.8,176.2,402.9,183.1,394.4,183.1z"/>
<rect x="352" y="233.9" class="st2" width="3" height="0.1"/>
<path class="st2" d="M371.4,83.7c6.7-4.4,4.8-14.3-1.6-19.3c0,0-17.7,13.1-17.7,24.4c5.2,0,14.8,0,14.8,0S366,87.3,371.4,83.7z"/>
<path class="st1" d="M352,88.9h-14.8v1.7c0,4.7-4.8,8.1-9.3,8.1h-41.1c-17,0-30.9,13.9-30.9,30.9v116.8c0,17,13.9,30.9,30.9,30.9
	H352V234h-8.6c-1.7,0-3-1.4-3-3v-5.6c0-1.7,1.4-3,3-3h4.6h4.1V88.9z M321.2,231c0,1.7-1.4,3-3,3H301c-1.7,0-3-1.4-3-3v-5.6
	c0-1.7,1.4-3,3-3h17.2c1.6,0,3,1.4,3,3V231z M309.6,183c-8.5,0-15.4-6.9-15.4-15.4c0-8.5,6.9-15.4,15.4-15.4c8.5,0,15.4,7,15.4,15.4
	C325,176.1,318.1,183,309.6,183z"/>
<path class="st1" d="M347.9,66.6c-5.7,3.7-10.7,10-10.7,22.3c6.9,0,9.6,0,14.8,0c0-11.5,17.9-24.6,17.9-24.6
	C363.5,59.3,353.5,62.9,347.9,66.6z"/>
<path class="st3" d="M227.4,203.5c0.6,0.9,0.9,2.1,0.5,3.2c-1.5,6.4-0.3,13.1,3.3,18.3c1.2,1.7,0.8,4.2-0.7,5.5
	c-1.7,1.3-4.1,1-5.3-0.6c-5.1-7-6.7-16-4.6-24.6c0.5-2.1,2.5-3.4,4.6-2.9C226.3,202.3,226.8,202.8,227.4,203.5z"/>
<path class="st3" d="M479.2,202.3c2-0.5,4.1,0.9,4.6,2.9c2.2,8.6,0.5,17.6-4.6,24.6c-1.2,1.6-3.5,1.9-5.3,0.6
	c-1.5-1.3-2-3.7-0.7-5.5c3.6-5.3,4.9-11.9,3.3-18.3c-0.4-1.1-0.1-2.3,0.5-3.2C477.6,202.8,478.2,202.3,479.2,202.3z"/>
<path class="st4" d="M415.4,34.9l-17.3,16.7c-2.3,2.2-6,2.2-8.4-0.1c-2.3-2.3-2.3-5.9,0.1-8.1l17.3-16.7c2.3-2.2,6-2.2,8.4,0.1
	C417.7,29,417.7,32.6,415.4,34.9z"/>
<path class="st4" d="M429.3,70.2c-1.1,1.1-2.5,1.7-4.3,1.6l-22-0.1c-3.3,0-5.9-2.5-5.9-5.9c0-3.1,2.6-5.7,6-5.8l22,0.1
	c3.3,0,5.9,2.5,5.9,5.9C431.1,67.7,430.3,69.2,429.3,70.2z"/>
<path class="st4" d="M379.2,42.4c-1.1,1.1-2.5,1.7-4.3,1.6c-3.3,0-5.9-2.5-5.9-5.9l0.1-21.4c0-3.1,2.6-5.7,6-5.8
	c3.3,0,5.9,2.5,5.9,5.9L381,38.2C380.9,39.9,380.4,41.3,379.2,42.4z"/>
<polygon class="st5" points="352,443.5 352,436.6 370.5,412.1 403.7,342.5 420.1,345.4 450.6,367.3 433.5,419 378.3,475.4 
	352,475.4 "/>
<path class="st6" d="M352,293.6c10.9,0,14,2.1,17.5,9.5c5.5,11.4,11.4,23,5.4,29.1c-6.1,6.1-16,8.8-23,8.8v-47.4L352,293.6
	L352,293.6z"/>
<path class="st6" d="M352,345.7c0,0,10-0.4,12.8-2c2.7-1.6,10.7,45.7,9.7,59.6c-1,13.9-5.3,11.6-5.3,11.6L352,440.8V345.7z"/>
<polygon class="st7" points="352,443.2 352,436.6 333.5,412.1 300.3,342.5 283.9,345.4 253.4,367.3 270.5,419 325.7,475.4 
	352,475.1 "/>
<path class="st1" d="M352,465c40.4,0,73.1-67.5,73.1-113.1H456c0,56.3,12.9,145.5,62.7,145.5V523H352V465z"/>
<path class="st4" d="M352,465c-40.4,0-73.1-67.5-73.1-113.1H248c0,56.3-12.9,145.5-62.7,145.5V523H352V465z"/>
<path class="st8" d="M425,321.9c13.6,3.8,35.9,22.5,44.4,27.8c3.8,2.3,13.8,9.9,10,15.9c0,0-45.1-24.5-54.7-8.3
	c-9.6,16.2-16.7,31.1-26.5,45c-11.5,16.3-40.2,44.7-40.2,44.7c-3.2,0.7-3.7,0.5-4.7-0.2c-1.4-1.2-1.9-6.2-0.7-10.1l55.7-102.7
	C410.6,327.4,418,321.9,425,321.9"/>
<path class="st9" d="M352,293.6c-10.9,0-14,2.1-17.5,9.5c-5.5,11.4-11.4,23-5.4,29.1c6.1,6.1,16,8.8,23,8.8v-47.4L352,293.6
	L352,293.6z"/>
<path class="st9" d="M352,345.9c0,0-10-0.4-12.8-2.1c-2.7-1.7-10.7,45.7-9.7,59.6c1,13.9,5.3,11.6,5.3,11.6l17.2,25.8V345.9z"/>
<path class="st10" d="M279,321.9c6.9,0,14.4,5.5,16.6,12l55.7,102.7c1.2,4,0.7,8.4-0.7,10.1c-0.7,0.8-0.6,0.9-4.7,0.2
	c0,0-28.7-28.5-40.2-44.7c-9.8-14-16.9-28.8-26.5-45c-9.6-16.2-54.7,8.3-54.7,8.3c-3.6-6,6.2-13.5,10-15.9
	C243.1,344.4,265.4,325.8,279,321.9"/>
<circle class="st11" cx="352" cy="489.9" r="7.7"/>
</svg>
