<?xml version="1.0" encoding="utf-8"?>
<!-- Generator: Adobe Illustrator 19.0.0, SVG Export Plug-In . SVG Version: 6.00 Build 0)  -->
<svg version="1.1" id="Layer_1" xmlns="http://www.w3.org/2000/svg" xmlns:xlink="http://www.w3.org/1999/xlink" x="0px" y="0px"
	 viewBox="96 11 512 512" style="enable-background:new 96 11 512 512;" xml:space="preserve">
<style type="text/css">
	.st0{display:none;}
	.st1{display:inline;}
	.st2{fill:#687F82;}
	.st3{fill:#365558;}
	.st4{fill:#E6EAEA;}
	.st5{fill:#CDD4D5;}
	.st6{fill:#9BAAAB;}
	.st7{fill:#0295AA;}
	.st8{fill:#FF8C29;}
	.st9{fill:#FD6A33;}
	.st10{fill:#FFD1A9;}
	.st11{fill:#4ACFD9;}
	.st12{fill:#F0353D;}
	.st13{fill:#FFFFFF;}
</style>
<g id="Layer_3" class="st0">
	<rect x="1112" y="-791.4" class="st1" width="512" height="512.8"/>
</g>
<path class="st2" d="M530.2,52.8H174c-4.4,0-8,3.6-8,8v453.6c0,4.4,3.6,8,8,8h356.2c4.4,0,8-3.6,8-8V60.8
	C538.1,56.5,534.6,52.8,530.2,52.8z"/>
<path class="st3" d="M352.1,52.8H174c-4.4,0-8,3.6-8,8v453.6c0,4.4,3.6,8,8,8h178.1V52.8z"/>
<g>
	<path class="st4" d="M563.3,321.4H410.5c-2.2,0-4,1.9-4,4.4v143.7l49.2,53.9h107.6c2.2,0,4-1.9,4-4.4V325.9
		C567.3,323.4,565.5,321.4,563.3,321.4z"/>
	<path class="st5" d="M410.5,321.4c-2.2,0-4,1.9-4,4.4v143.7l49.2,53.9h28v-202L410.5,321.4L410.5,321.4z"/>
	<path id="SVGCleanerId_0" class="st6" d="M451.5,469.6h-45.2l49.2,53.9V474C455.7,471.6,453.8,469.6,451.5,469.6z"/>
	<g>
		<path class="st7" d="M539.5,365.5H434.2c-2.2,0-4-1.9-4-4.4s1.8-4.4,4-4.4h105.5c2.2,0,4,1.9,4,4.4S541.8,365.5,539.5,365.5z"/>
		<path class="st7" d="M539.5,403.3H434.2c-2.2,0-4-1.9-4-4.4s1.8-4.4,4-4.4h105.5c2.2,0,4,1.9,4,4.4S541.8,403.3,539.5,403.3z"/>
		<path class="st7" d="M539.5,440.9H434.2c-2.2,0-4-1.9-4-4.4s1.8-4.4,4-4.4h105.5c2.2,0,4,1.9,4,4.4S541.8,440.9,539.5,440.9z"/>
		<path class="st7" d="M539.5,478.8H434.2c-2.2,0-4-1.9-4-4.4s1.8-4.4,4-4.4h105.5c2.2,0,4,1.9,4,4.4
			C543.7,476.8,541.8,478.8,539.5,478.8z"/>
	</g>
	<g>
		<path class="st3" d="M434.2,356.8c-2.2,0-4,1.9-4,4.4s1.8,4.4,4,4.4h49.5v-8.8H434.2z"/>
		<path class="st3" d="M434.2,394.4c-2.2,0-4,1.9-4,4.4s1.8,4.4,4,4.4h49.5v-8.8H434.2L434.2,394.4z"/>
		<path class="st3" d="M430.2,436.6c0,2.5,1.8,4.4,4,4.4h49.5v-8.9h-49.5C431.8,432.3,430.2,434.3,430.2,436.6z"/>
		<path class="st3" d="M430.2,474.3c0,2.5,1.8,4.4,4,4.4h49.5v-8.9h-49.5C431.8,469.9,430.2,471.9,430.2,474.3z"/>
	</g>
	<g>
		<path id="SVGCleanerId_0_1_" class="st6" d="M451.5,469.6h-45.2l49.2,53.9V474C455.7,471.6,453.8,469.6,451.5,469.6z"/>
	</g>
</g>
<g>
	<path class="st4" d="M428.5,321.4H275.6c-2.2,0-4,1.9-4,4.4v143.7l49.2,53.9h107.6c2.2,0,4-1.9,4-4.4V325.9
		C432.5,323.4,430.7,321.4,428.5,321.4z"/>
	<path class="st5" d="M275.6,321.4c-2.2,0-4,1.9-4,4.4v143.7l49.2,53.9h28v-202L275.6,321.4L275.6,321.4z"/>
	<path id="SVGCleanerId_0_3_" class="st6" d="M316.8,469.6h-45.2l49.2,53.9V474C320.8,471.6,319,469.6,316.8,469.6z"/>
	<g>
		<path class="st6" d="M404.8,365.5H299.3c-2.2,0-4-1.9-4-4.4s1.8-4.4,4-4.4h105.5c2.2,0,4,1.9,4,4.4S407,365.5,404.8,365.5z"/>
		<path class="st6" d="M404.8,403.3H299.3c-2.2,0-4-1.9-4-4.4s1.8-4.4,4-4.4h105.5c2.2,0,4,1.9,4,4.4S407,403.3,404.8,403.3z"/>
		<path class="st6" d="M404.8,440.9H299.3c-2.2,0-4-1.9-4-4.4s1.8-4.4,4-4.4h105.5c2.2,0,4,1.9,4,4.4S407,440.9,404.8,440.9z"/>
		<path class="st6" d="M404.8,478.8H299.3c-2.2,0-4-1.9-4-4.4s1.8-4.4,4-4.4h105.5c2.2,0,4,1.9,4,4.4
			C408.8,476.8,407,478.8,404.8,478.8z"/>
	</g>
	<g>
		<path class="st7" d="M299.3,356.8c-2.2,0-4,1.9-4,4.4s1.8,4.4,4,4.4h49.5v-8.8H299.3z"/>
		<path class="st7" d="M299.3,394.4c-2.2,0-4,1.9-4,4.4s1.8,4.4,4,4.4h49.5v-8.8H299.3L299.3,394.4z"/>
		<path class="st7" d="M295.3,436.6c0,2.5,1.8,4.4,4,4.4h49.5v-8.9h-49.5C297,432.3,295.3,434.3,295.3,436.6z"/>
		<path class="st7" d="M295.3,474.3c0,2.5,1.8,4.4,4,4.4h49.5v-8.9h-49.5C297,469.9,295.3,471.9,295.3,474.3z"/>
	</g>
	<g>
		<path id="SVGCleanerId_0_2_" class="st6" d="M316.8,469.6h-45.2l49.2,53.9V474C320.8,471.6,319,469.6,316.8,469.6z"/>
	</g>
</g>
<g>
	<path class="st4" d="M293.6,321.4H140.8c-2.2,0-4,1.9-4,4.4v143.7l49.2,53.9h107.6c2.2,0,4-1.9,4-4.4V325.9
		C297.6,323.4,295.9,321.4,293.6,321.4z"/>
	<path class="st5" d="M140.8,321.4c-2.2,0-4,1.9-4,4.4v143.7l49.2,53.9h28v-202L140.8,321.4L140.8,321.4z"/>
	<path id="SVGCleanerId_0_5_" class="st6" d="M181.9,469.6h-45.2l49.2,53.9V474C185.9,471.6,184.3,469.6,181.9,469.6z"/>
	<g>
		<path class="st7" d="M270,365.5H164.4c-2.2,0-4-1.9-4-4.4s1.8-4.4,4-4.4H270c2.2,0,4,1.9,4,4.4S272.1,365.5,270,365.5z"/>
		<path class="st7" d="M270,403.3H164.4c-2.2,0-4-1.9-4-4.4s1.8-4.4,4-4.4H270c2.2,0,4,1.9,4,4.4S272.1,403.3,270,403.3z"/>
		<path class="st7" d="M270,440.9H164.4c-2.2,0-4-1.9-4-4.4s1.8-4.4,4-4.4H270c2.2,0,4,1.9,4,4.4S272.1,440.9,270,440.9z"/>
		<path class="st7" d="M270,478.8H164.4c-2.2,0-4-1.9-4-4.4s1.8-4.4,4-4.4H270c2.2,0,4,1.9,4,4.4C274,476.8,272.1,478.8,270,478.8z"
			/>
	</g>
	<g>
		<path class="st2" d="M164.4,356.8c-2.2,0-4,1.9-4,4.4s1.8,4.4,4,4.4H214v-8.8H164.4z"/>
		<path class="st2" d="M164.4,394.4c-2.2,0-4,1.9-4,4.4s1.8,4.4,4,4.4H214v-8.8H164.4L164.4,394.4z"/>
		<path class="st2" d="M160.4,436.6c0,2.5,1.8,4.4,4,4.4H214v-8.9h-49.5C162.3,432.3,160.4,434.3,160.4,436.6z"/>
		<path class="st2" d="M160.4,474.3c0,2.5,1.8,4.4,4,4.4H214v-8.9h-49.5C162.3,469.9,160.4,471.9,160.4,474.3z"/>
	</g>
	<g>
		<path id="SVGCleanerId_0_4_" class="st6" d="M181.9,469.6h-45.2l49.2,53.9V474C185.9,471.6,184.3,469.6,181.9,469.6z"/>
	</g>
</g>
<g>
	<path class="st4" d="M563.3,109.4H410.5c-2.2,0-4,1.9-4,4.4v143.8l49.2,53.9h107.6c2.2,0,4-1.9,4-4.4V113.8
		C567.3,111.4,565.5,109.4,563.3,109.4z"/>
	<path class="st5" d="M410.5,109.4c-2.2,0-4,1.9-4,4.4v143.8l49.2,53.9h28V109.4H410.5z"/>
	<path id="SVGCleanerId_0_11_" class="st6" d="M451.5,257.5h-45.2l49.3,53.9v-49.5C455.7,259.4,453.8,257.5,451.5,257.5z"/>
	<g>
		<path class="st8" d="M539.5,153.6H434.2c-2.2,0-4-1.9-4-4.4s1.8-4.4,4-4.4h105.5c2.2,0,4,1.9,4,4.4S541.8,153.6,539.5,153.6z"/>
		<path class="st8" d="M539.5,191.4H434.2c-2.2,0-4-1.9-4-4.4s1.8-4.4,4-4.4h105.5c2.2,0,4,1.9,4,4.4S541.8,191.4,539.5,191.4z"/>
		<path class="st8" d="M539.5,229.1H434.2c-2.2,0-4-1.9-4-4.4s1.8-4.4,4-4.4h105.5c2.2,0,4,1.9,4,4.4S541.8,229.1,539.5,229.1z"/>
		<path class="st8" d="M539.5,266.8H434.2c-2.2,0-4-1.9-4-4.4s1.8-4.4,4-4.4h105.5c2.2,0,4,1.9,4,4.4
			C543.7,264.8,541.8,266.8,539.5,266.8z"/>
	</g>
	<g>
		<path class="st9" d="M434.2,144.9c-2.2,0-4,1.9-4,4.4s1.8,4.4,4,4.4h49.5v-8.8L434.2,144.9L434.2,144.9z"/>
		<path class="st9" d="M434.2,182.6c-2.2,0-4,1.9-4,4.4s1.8,4.4,4,4.4h49.5v-8.9L434.2,182.6L434.2,182.6z"/>
		<path class="st9" d="M430.2,224.6c0,2.5,1.8,4.4,4,4.4h49.5v-8.9h-49.5C431.8,220.1,430.2,222.1,430.2,224.6z"/>
		<path class="st9" d="M430.2,262.3c0,2.5,1.8,4.4,4,4.4h49.5v-8.9h-49.5C431.8,257.8,430.2,259.8,430.2,262.3z"/>
	</g>
	<g>
		<path id="SVGCleanerId_0_10_" class="st6" d="M451.5,257.5h-45.2l49.3,53.9v-49.5C455.7,259.4,453.8,257.5,451.5,257.5z"/>
	</g>
</g>
<g>
	<path class="st4" d="M428.5,109.4H275.6c-2.2,0-4,1.9-4,4.4v143.8l49.1,53.9h107.6c2.2,0,4-1.9,4-4.4V113.8
		C432.5,111.4,430.7,109.4,428.5,109.4z"/>
	<path class="st5" d="M275.6,109.4c-2.2,0-4,1.9-4,4.4v143.8l49.1,53.9h28V109.4H275.6z"/>
	<path id="SVGCleanerId_0_9_" class="st6" d="M316.8,257.5h-45.2l49.2,53.9v-49.5C320.8,259.4,319,257.5,316.8,257.5z"/>
	<g>
		<path class="st10" d="M404.8,153.6H299.3c-2.2,0-4-1.9-4-4.4s1.8-4.4,4-4.4h105.5c2.2,0,4,1.9,4,4.4S407,153.6,404.8,153.6z"/>
		<path class="st10" d="M404.8,191.4H299.3c-2.2,0-4-1.9-4-4.4s1.8-4.4,4-4.4h105.5c2.2,0,4,1.9,4,4.4S407,191.4,404.8,191.4z"/>
		<path class="st10" d="M404.8,229.1H299.3c-2.2,0-4-1.9-4-4.4s1.8-4.4,4-4.4h105.5c2.2,0,4,1.9,4,4.4S407,229.1,404.8,229.1z"/>
		<path class="st10" d="M404.8,266.8H299.3c-2.2,0-4-1.9-4-4.4s1.8-4.4,4-4.4h105.5c2.2,0,4,1.9,4,4.4
			C408.8,264.8,407,266.8,404.8,266.8z"/>
	</g>
	<g>
		<path class="st8" d="M299.3,144.9c-2.2,0-4,1.9-4,4.4s1.8,4.4,4,4.4h49.5v-8.8L299.3,144.9L299.3,144.9z"/>
		<path class="st8" d="M299.3,182.6c-2.2,0-4,1.9-4,4.4s1.8,4.4,4,4.4h49.5v-8.9L299.3,182.6L299.3,182.6z"/>
		<path class="st8" d="M295.3,224.6c0,2.5,1.8,4.4,4,4.4h49.5v-8.9h-49.5C297,220.1,295.3,222.1,295.3,224.6z"/>
		<path class="st8" d="M295.3,262.3c0,2.5,1.8,4.4,4,4.4h49.5v-8.9h-49.5C297,257.8,295.3,259.8,295.3,262.3z"/>
	</g>
	<g>
		<path id="SVGCleanerId_0_8_" class="st6" d="M316.8,257.5h-45.2l49.2,53.9v-49.5C320.8,259.4,319,257.5,316.8,257.5z"/>
	</g>
</g>
<g>
	<path class="st4" d="M293.6,109.4H140.8c-2.2,0-4,1.9-4,4.4v143.8l49.2,53.9h107.6c2.2,0,4-1.9,4-4.4V113.8
		C297.6,111.4,295.9,109.4,293.6,109.4z"/>
	<path class="st5" d="M140.8,109.4c-2.2,0-4,1.9-4,4.4v143.8l49.2,53.9h28V109.4H140.8z"/>
	<path id="SVGCleanerId_0_7_" class="st6" d="M181.9,257.5h-45.2l49.2,53.9v-49.5C185.9,259.4,184.3,257.5,181.9,257.5z"/>
	<g>
		<path class="st11" d="M270,153.6H164.4c-2.2,0-4-1.9-4-4.4s1.8-4.4,4-4.4H270c2.2,0,4,1.9,4,4.4S272.1,153.6,270,153.6z"/>
		<path class="st11" d="M270,191.4H164.4c-2.2,0-4-1.9-4-4.4s1.8-4.4,4-4.4H270c2.2,0,4,1.9,4,4.4S272.1,191.4,270,191.4z"/>
		<path class="st11" d="M270,229.1H164.4c-2.2,0-4-1.9-4-4.4s1.8-4.4,4-4.4H270c2.2,0,4,1.9,4,4.4S272.1,229.1,270,229.1z"/>
		<path class="st11" d="M270,266.8H164.4c-2.2,0-4-1.9-4-4.4s1.8-4.4,4-4.4H270c2.2,0,4,1.9,4,4.4C274,264.8,272.1,266.8,270,266.8z
			"/>
	</g>
	<g>
		<path class="st7" d="M164.4,144.9c-2.2,0-4,1.9-4,4.4s1.8,4.4,4,4.4H214v-8.8L164.4,144.9L164.4,144.9z"/>
		<path class="st7" d="M164.4,182.6c-2.2,0-4,1.9-4,4.4s1.8,4.4,4,4.4H214v-8.9L164.4,182.6L164.4,182.6z"/>
		<path class="st7" d="M160.4,224.6c0,2.5,1.8,4.4,4,4.4H214v-8.9h-49.5C162.3,220.1,160.4,222.1,160.4,224.6z"/>
		<path class="st7" d="M160.4,262.3c0,2.5,1.8,4.4,4,4.4H214v-8.9h-49.5C162.3,257.8,160.4,259.8,160.4,262.3z"/>
	</g>
	<g>
		<path id="SVGCleanerId_0_6_" class="st6" d="M181.9,257.5h-45.2l49.2,53.9v-49.5C185.9,259.4,184.3,257.5,181.9,257.5z"/>
	</g>
</g>
<path class="st8" d="M436.9,52.8h-28.3c-7.2-24.9-30-42.4-56.5-42.4s-49.3,17.5-56.5,42.4h-28.3c-4.4,0-8,3.6-8,7.9v63.7
	c0,4.4,3.6,7.9,8,7.9h169.6c4.4,0,8-3.6,8-7.9V60.8C444.9,56.5,441.3,52.8,436.9,52.8z"/>
<path class="st12" d="M295.6,52.8h-28.3c-4.4,0-8,3.6-8,7.9v63.7c0,4.4,3.6,7.9,8,7.9h84.8V10.5C325.6,10.5,302.8,28,295.6,52.8z"/>
<path class="st13" d="M380.7,72.3c-3.8,0-7.2-2.8-7.8-6.6c-1.8-10.5-10.8-18.1-21.4-18.1c-4.4,0-8-3.6-8-8s3.6-8,8-8
	c18.4,0,34,13.2,37.1,31.3c0.7,4.3-2.2,8.4-6.5,9.2C381.6,72.3,381.2,72.3,380.7,72.3z"/>
</svg>
