<?xml version="1.0" encoding="utf-8"?>
<!-- Generator: Adobe Illustrator 19.0.0, SVG Export Plug-In . SVG Version: 6.00 Build 0)  -->
<svg version="1.1" id="Layer_1" xmlns="http://www.w3.org/2000/svg" xmlns:xlink="http://www.w3.org/1999/xlink" x="0px" y="0px"
	 viewBox="206 -206 512 512" style="enable-background:new 206 -206 512 512;" xml:space="preserve">
<style type="text/css">
	.st0{fill:#687F82;}
	.st1{fill:#CDD4D5;}
	.st2{fill:#9BAAAB;}
	.st3{fill:#FFFFFF;}
	.st4{fill:#E6EAEA;}
	.st5{fill:#4ACFD9;}
	.st6{fill:#0295AA;}
</style>
<path class="st0" d="M486.4-176.3h-33.9c-4.4,0-8,3.6-8,7.9v46.6c0,4.4,3.6,7.9,8,7.9h33.9c4.4,0,8-3.6,8-7.9v-46.6
	C494.3-172.8,490.8-176.3,486.4-176.3z"/>
<path class="st1" d="M511.8-206H427c-4.4,0-7.9,3.6-7.9,7.9v33.9c0,4.4,3.6,7.9,7.9,7.9h84.8c4.4,0,8-3.6,8-7.9v-33.9
	C519.8-202.4,516.2-206,511.8-206z"/>
<path class="st2" d="M427-206c-4.4,0-7.9,3.6-7.9,7.9v33.9c0,4.4,3.6,7.9,7.9,7.9h42.4V-206H427z"/>
<path class="st3" d="M503.3-164.7c-4.4,0-8-3.6-8-7.9v-17c0-4.4,3.6-7.9,8-7.9s8,3.6,8,7.9v17C511.3-168.2,507.7-164.7,503.3-164.7z
	"/>
<path class="st4" d="M469.4-125.4c-118.9,0-215.7,96.8-215.7,215.7S350.5,306,469.4,306s215.7-96.8,215.7-215.7
	S588.4-125.4,469.4-125.4z"/>
<path class="st1" d="M253.7,90.3c0,118.9,96.8,215.7,215.7,215.7v-431.4C350.5-125.4,253.7-28.7,253.7,90.3z"/>
<path class="st5" d="M469.4-70.3c-88.6,0-160.6,72-160.6,160.6s72,160.6,160.6,160.6S630,178.8,630,90.3S558-70.3,469.4-70.3z
	 M469.4,188.3c-54.1,0-98.1-44-98.1-98.1s44-98.1,98.1-98.1s98.1,44,98.1,98.1S523.5,188.3,469.4,188.3z"/>
<path class="st6" d="M371.4,90.3c0-54.1,44-98.1,98.1-98.1v-62.5c-88.6,0-160.6,72-160.6,160.6s72,160.6,160.6,160.6v-62.5
	C415.3,188.3,371.4,144.3,371.4,90.3z"/>
<path class="st0" d="M308.8,90.3v8h62.5v-8c0-54.1,44-98.1,98.1-98.1v-62.5C380.9-70.3,308.8,1.7,308.8,90.3z"/>
<path class="st0" d="M469.4,35.7c-30.1,0-54.6,24.5-54.6,54.6s24.5,54.6,54.6,54.6S524,120.4,524,90.3
	C524,60.2,499.5,35.7,469.4,35.7z"/>
<path class="st3" d="M494.8,98.2c-4.4,0-8-3.6-8-8c0-9.6-7.8-17.5-17.5-17.5c-4.4,0-7.9-3.6-7.9-8s3.6-8,7.9-8
	c18.4,0,33.4,15,33.4,33.4C502.8,94.7,499.2,98.2,494.8,98.2z"/>
</svg>
