<?xml version="1.0" encoding="utf-8"?>
<!-- Generator: Adobe Illustrator 19.0.0, SVG Export Plug-In . SVG Version: 6.00 Build 0)  -->
<svg version="1.1" id="Layer_1" xmlns="http://www.w3.org/2000/svg" xmlns:xlink="http://www.w3.org/1999/xlink" x="0px" y="0px"
	 viewBox="-703 270 512 512" style="enable-background:new -703 270 512 512;" xml:space="preserve">
<style type="text/css">
	.st0{fill:#E6EAEA;}
	.st1{fill:#9BAAAB;}
	.st2{fill:#CDD4D5;}
	.st3{fill:#687F82;}
	.st4{fill:#4ACFD9;}
	.st5{fill:#FF8C29;}
	.st6{fill:#F0353D;}
	.st7{fill:#FFFFFF;}
	.st8{fill:#FD6A33;}
	.st9{fill:#FFD1A9;}
</style>
<text transform="matrix(0.9049 0 0 1 -19.9131 667.6094)" style="font-family:'SegoeUIBlack'; font-size:276.9418px;">{...}</text>
<text transform="matrix(0.9049 0 0 1 -25.0001 953.3604)" style="font-family:'SegoeUIBlack'; font-size:276.9418px;">{ ; }</text>
<text transform="matrix(0.9049 0 0 1 -25.0001 387.4814)" style="font-family:'SegoeUIBlack'; font-size:276.9418px;">&lt;/&gt;</text>
<path class="st0" d="M-199,278.6h-496c-4.4,0-8,3.6-8,8V774c0,4.4,3.6,8,8,8h166.5c-5.5-5.1-9-12.5-9-20.6v-9.6
	c-21.4-7.6-36.8-28-36.8-52v-73.1c0-24,15.4-44.4,36.8-52v-88.8c0-30.4,24.7-55.1,55.1-55.1s55.1,24.7,55.1,55.1v49.7h52.7
	c14.7,0,28.6,5.8,39,16.2c10.4,10.4,16.1,24.2,16,38.9v170.7c0,8.1-3.5,15.5-9,20.6H-199c4.4,0,8-3.6,8-8V286.6
	C-191,282.2-194.6,278.6-199,278.6z"/>
<path class="st1" d="M-199,278.6h-496c-4.4,0-8,3.6-8,8v110.6h512V286.6C-191,282.2-194.6,278.6-199,278.6z"/>
<path class="st2" d="M-537.6,761.4v-9.6c-21.4-7.6-36.8-28-36.8-52v-73.1c0-24,15.4-44.4,36.8-52v-88.8c0-30.4,24.7-55.1,55.1-55.1
	c13.5,0,25.9,4.9,35.5,13V278.6h-248c-4.4,0-8,3.6-8,8V774c0,4.4,3.6,8,8,8h166.5C-534.1,776.9-537.6,769.5-537.6,761.4z"/>
<path class="st3" d="M-695,278.6c-4.4,0-8,3.6-8,8v110.6h256V278.6H-695z"/>
<path class="st4" d="M-438.4,304.2c-18.6,0-33.7,15.1-33.7,33.7s15.1,33.7,33.7,33.7s33.7-15.1,33.7-33.7S-419.9,304.2-438.4,304.2z
	"/>
<path class="st5" d="M-532.5,304.2c-18.6,0-33.7,15.1-33.7,33.7s15.1,33.7,33.7,33.7s33.7-15.1,33.7-33.7S-513.9,304.2-532.5,304.2z
	"/>
<path class="st6" d="M-626.6,304.2c-18.6,0-33.7,15.1-33.7,33.7s15.1,33.7,33.7,33.7c18.6,0,33.7-15.1,33.7-33.7
	S-608,304.2-626.6,304.2z"/>
<g>
	<path class="st7" d="M-276,328.8h-94c-4.4,0-8-3.6-8-8s3.6-8,8-8h94c4.4,0,8,3.6,8,8S-271.5,328.8-276,328.8z"/>
	<path class="st7" d="M-233.2,328.8h-17.1c-4.4,0-8-3.6-8-8s3.6-8,8-8h17.1c4.4,0,8,3.6,8,8S-228.8,328.8-233.2,328.8z"/>
</g>
<path class="st6" d="M-645.8,477.8c-3.8,7.4-5.7,19.1-5.7,35v22.7c0,16.4-6.1,24.6-18.2,24.6v30.3c12.2,0,18.2,8.1,18.2,24.3V639
	c0,15.1,1.9,26.4,5.8,33.7c3.9,7.3,10.2,12.8,18.9,16.2c8.7,3.5,20.6,5.2,35.7,5.2v-30.3c-7,0-12-1.7-15.1-5.1
	c-3-3.4-4.5-9.1-4.5-17.2v-17.2c0-13.1-1.5-23.6-4.6-31.6c-3.1-8-8-13.8-14.7-17.4v-0.5c6.9-3.6,11.8-9.3,14.8-17
	c3-7.8,4.5-17.8,4.5-30v-19.2c0-8,1.6-13.7,4.8-17c3.2-3.3,8.1-5,14.8-5v-30.3c-15.3,0-27.3,1.7-36,5.2
	C-635.8,464.9-642,470.4-645.8,477.8z"/>
<path class="st8" d="M-218.5,590.4c-12.2,0-18.2,8.2-18.2,24.6v22.7c0,15.9-1.9,27.5-5.7,35c-3.8,7.4-10,12.9-18.7,16.4
	s-20.7,5.2-36,5.2V664c6.8,0,11.7-1.7,14.9-5c3.1-3.3,4.7-9,4.7-17v-19.2c0-12.2,1.5-22.1,4.5-29.9s7.9-13.5,14.9-17.2v-0.5
	c-6.8-3.7-11.7-9.6-14.7-17.7c-3.1-8.1-4.6-18.6-4.6-31.4v-17c0-8-1.5-13.8-4.4-17.2c-2.9-3.5-8-5.2-15.2-5.2v-30.3
	c15.2,0,27.1,1.7,35.8,5.2c8.7,3.5,15,8.9,18.8,16.2c3.9,7.3,5.8,18.6,5.8,33.7v24.3c0,16.2,6.1,24.3,18.2,24.3L-218.5,590.4
	L-218.5,590.4z"/>
<path class="st8" d="M-374.7,555.6h-72.7v-69.7c0-19.3-15.7-35.1-35.1-35.1c-19.4,0-35.1,15.7-35.1,35.1v105.7h-1.7
	c-19.3,0-35.1,15.7-35.1,35.1v73.1c0,19.3,15.7,35.1,35.1,35.1h1.7v39c0,4.5,3.6,8.1,8.1,8.1h161.7c4.5,0,8.1-3.6,8.1-8.1V590.7
	C-339.6,571.4-355.3,555.6-374.7,555.6z"/>
<path class="st5" d="M-374.7,555.6h-72.7v-69.7c0-19.3-15.7-35.1-35.1-35.1c-19.4,0-35.1,15.7-35.1,35.1v105.7h-1.7
	c-19.3,0-35.1,15.7-35.1,35.1v73.1c0,19.3,15.7,35.1,35.1,35.1h1.7v26.5c0,4.5,3.6,8.1,8.1,8.1h161.7c4.5,0,8.1-3.6,8.1-8.1V590.7
	C-339.6,571.4-355.3,555.6-374.7,555.6z"/>
<g>
	<path class="st9" d="M-447.8,599.7c0.1,4.5,3.7,8.1,8.2,8.1s8.1-3.6,8.1-8.1v-44.1h-16.3L-447.8,599.7z"/>
	<path class="st9" d="M-405.5,599.7c0.1,4.5,3.7,8.1,8.2,8.1s8.1-3.6,8.1-8.1v-44.1h-16.3L-405.5,599.7z"/>
</g>
</svg>
