<?xml version="1.0" encoding="utf-8"?>
<!-- Generator: Adobe Illustrator 19.0.0, SVG Export Plug-In . SVG Version: 6.00 Build 0)  -->
<svg version="1.1" id="Layer_1" xmlns="http://www.w3.org/2000/svg" xmlns:xlink="http://www.w3.org/1999/xlink" x="0px" y="0px"
	 viewBox="96 11 512 512" style="enable-background:new 96 11 512 512;" xml:space="preserve">
<style type="text/css">
	.st0{fill:#E6EAEA;}
	.st1{fill:#CDD4D5;}
	.st2{fill:#9BAAAB;}
	.st3{fill:#687F82;}
	.st4{fill:#365558;}
	.st5{fill:#FFFFFF;}
	.st6{fill:#4ACFD9;}
	.st7{fill:#0295AA;}
	.st8{fill:#FF8C29;}
	.st9{fill:#FD6A33;}
	.st10{fill:#FFD1A9;}
</style>
<path class="st0" d="M373.3,367.4c0-24,15.4-44.4,36.8-52v-88.8c0-30.4,24.7-55.1,55.1-55.1c30.4,0,55.1,24.7,55.1,55.1v49.7H573
	c12,0,23.4,3.8,32.8,10.9V19.1c0-4.5-3.6-8.1-8.1-8.1H106.2c-4.5,0-8.1,3.6-8.1,8.1V433c0,4.5,3.6,8.1,8.1,8.1h267.1
	c0-0.2,0-0.4,0-0.5V367.4z"/>
<path class="st1" d="M373.3,424.9h-47.2c-4.5,0-8.1,3.6-8.1,8.1v81.9c0,4.5,3.6,8.1,8.1,8.1h51.7c4.5,0,8.1-3.6,8.1-8.1v-39.3
	c-7.9-9.5-12.7-21.8-12.7-35.1V424.9z"/>
<path class="st2" d="M410.1,492.5c-9.1-3.2-17.1-8.7-23.3-15.9h-95.2c-16.3,0-29.6,13.3-29.6,29.6v8.6c0,4.5,3.6,8.1,8.1,8.1h141.3
	c-0.8-2.6-1.3-5.4-1.3-8.4V492.5z"/>
<path class="st2" d="M326.1,424.9c-4.5,0-8.1,3.6-8.1,8.1v81.9c0,4.5,3.6,8.1,8.1,8.1H352v-98.1L326.1,424.9L326.1,424.9z"/>
<path class="st3" d="M291.6,476.7c-16.3,0-29.6,13.3-29.6,29.6v8.6c0,4.5,3.6,8.1,8.1,8.1H352v-46.3H291.6z"/>
<path class="st3" d="M373.3,367.4c0-2.4,0.2-4.8,0.5-7.2H98.2V433c0,4.5,3.6,8.1,8.1,8.1h267.1c0-0.2,0-0.4,0-0.5V367.4z"/>
<path class="st4" d="M364.9,402.3h-25.9c-4.5,0-8.1-3.6-8.1-8.1s3.6-8.1,8.1-8.1h25.9c4.5,0,8.1,3.6,8.1,8.1
	S369.4,402.3,364.9,402.3z"/>
<g>
	<path class="st5" d="M498.6,386.1h-86.2c-4.5,0-8.1,3.6-8.1,8.1c0,4.5,3.6,8.1,8.1,8.1h86.2c4.5,0,8.1-3.6,8.1-8.1
		C506.7,389.7,503.1,386.1,498.6,386.1z"/>
	<path class="st5" d="M563.3,386.1h-30.2c-4.5,0-8.1,3.6-8.1,8.1c0,4.5,3.6,8.1,8.1,8.1h30.2c4.5,0,8.1-3.6,8.1-8.1
		C571.4,389.7,567.7,386.1,563.3,386.1z"/>
</g>
<path class="st4" d="M352,333.3c-4.5,0-8.1-3.6-8.1-8.1V57.9c0-4.5,3.6-8.1,8.1-8.1c4.5,0,8.1,3.6,8.1,8.1v267.3
	C360.1,329.7,356.5,333.3,352,333.3z"/>
<path class="st4" d="M485.1,57.9c0-4.5-3.6-8.1-8.1-8.1s-8.1,3.6-8.1,8.1v113.8c5.7,0.4,11.1,1.6,16.2,3.6V57.9z"/>
<path class="st4" d="M227,333.3c-4.5,0-8.1-3.6-8.1-8.1V57.9c0-4.5,3.6-8.1,8.1-8.1c4.5,0,8.1,3.6,8.1,8.1v267.3
	C235,329.7,231.4,333.3,227,333.3z"/>
<path class="st2" d="M227,200.7c-28.2,0-51.2,23-51.2,51.2s23,51.2,51.2,51.2s51.2-23,51.2-51.2S255.2,200.7,227,200.7z"/>
<path class="st3" d="M175.8,251.9c0,28.2,23,51.2,51.2,51.2V200.7C198.7,200.7,175.8,223.7,175.8,251.9z"/>
<path class="st6" d="M403.2,131.2c0-28.2-23-51.2-51.2-51.2s-51.2,23-51.2,51.2c0,28.2,23,51.2,51.2,51.2S403.2,159.4,403.2,131.2z"
	/>
<path class="st7" d="M352,182.4V80c-28.2,0-51.2,23-51.2,51.2S323.8,182.4,352,182.4z"/>
<path class="st8" d="M520.3,226.6v31c5-7.9,7.9-17.3,7.9-27.3c0-19.2-10.6-35.9-26.3-44.7C513.2,195.8,520.3,210.4,520.3,226.6z"/>
<path class="st9" d="M574.3,296.3h-72.7v-69.7c0-19.3-15.7-35.1-35.1-35.1s-35.1,15.7-35.1,35.1v105.7h-1.7
	c-19.3,0-35.1,15.7-35.1,35.1v73.1c0,19.3,15.7,35.1,35.1,35.1h1.7v39c0,4.5,3.6,8.1,8.1,8.1h161.7c4.5,0,8.1-3.6,8.1-8.1V331.4
	C609.4,312.1,593.7,296.3,574.3,296.3z"/>
<path class="st8" d="M574.3,296.3h-72.7v-69.7c0-19.3-15.7-35.1-35.1-35.1s-35.1,15.7-35.1,35.1v105.7h-1.7
	c-19.3,0-35.1,15.7-35.1,35.1v73.1c0,19.3,15.7,35.1,35.1,35.1h1.7v26.5c0,4.5,3.6,8.1,8.1,8.1h161.7c4.5,0,8.1-3.6,8.1-8.1V331.4
	C609.4,312.1,593.7,296.3,574.3,296.3z"/>
<g>
	<path class="st10" d="M501.3,340.4c0,4.5,3.6,8.1,8.1,8.1s8.1-3.6,8.1-8.1v-44.1h-16.3L501.3,340.4L501.3,340.4z"/>
	<path class="st10" d="M543.6,340.4c0,4.5,3.6,8.1,8.1,8.1s8.1-3.6,8.1-8.1v-44.1h-16.3L543.6,340.4L543.6,340.4z"/>
</g>
</svg>
