<?xml version="1.0" encoding="utf-8"?>
<!-- Generator: Adobe Illustrator 19.0.0, SVG Export Plug-In . SVG Version: 6.00 Build 0)  -->
<svg version="1.1" id="Layer_1" xmlns="http://www.w3.org/2000/svg" xmlns:xlink="http://www.w3.org/1999/xlink" x="0px" y="0px"
	 viewBox="206 -206 512 512" style="enable-background:new 206 -206 512 512;" xml:space="preserve">
<style type="text/css">
	.st0{fill:#E6EAEA;}
	.st1{fill:#4ACFD9;}
	.st2{fill:#FFD1A9;}
	.st3{fill:#FFFFFF;}
	.st4{fill:#9BAAAB;}
	.st5{fill:#0295AA;}
	.st6{fill:#FD6A33;}
</style>
<path class="st0" d="M687-128.6l-222.3-77c-1.7-0.6-3.5-0.6-5.2,0l-222.3,77c-3.7,1.3-5.9,5.1-5.3,8.9l51.3,299.3
	c0.4,2.1,1.6,4,3.3,5.2l171,119.7c1.4,1,3,1.4,4.6,1.4c1.6,0,3.2-0.5,4.6-1.4l171-119.7c1.8-1.2,2.9-3.1,3.3-5.2l51.3-299.3
	C692.9-123.5,690.7-127.3,687-128.6z"/>
<path class="st1" d="M650.7-107.2l-186.1-64.4c-1.7-0.6-3.5-0.6-5.2,0l-186.1,64.4c-3.7,1.3-5.9,5.1-5.3,8.9L312.4,161
	c0.4,2.1,1.6,4,3.3,5.2l141.7,99.2c1.4,1,3,1.4,4.6,1.4c1.6,0,3.2-0.5,4.6-1.4l141.7-99.2c1.8-1.2,2.9-3.1,3.3-5.2L656-98.3
	C656.7-102.1,654.5-105.9,650.7-107.2z"/>
<path class="st2" d="M476.5,17.6c23.3-6.4,40.6-27.8,40.6-53.1c0-30.4-24.7-55-55-55s-55,24.7-55,55c0,25.3,17.2,46.7,40.6,53.1
	c-40,6.9-70.5,41.8-70.5,83.7v42.8c0,4.4,3.6,8,8,8H539c4.4,0,8-3.6,8-8v-42.8C547,59.4,516.5,24.5,476.5,17.6z"/>
<g>
	<path class="st3" d="M579.7,117.9c-0.5,0-0.9,0-1.4-0.1c-4.4-0.7-7.3-4.9-6.5-9.3l12.5-72.7c0.7-4.4,4.9-7.3,9.3-6.5
		c4.4,0.7,7.3,4.9,6.5,9.3l-12.5,72.7C586.9,115.1,583.5,117.9,579.7,117.9z"/>
	<path class="st3" d="M603.9-23.2c-0.5,0-0.9,0-1.4-0.1c-4.4-0.7-7.3-4.9-6.5-9.3l6.9-40.3l-45.2-15.6c-4.2-1.4-6.4-6-5-10.2
		c1.4-4.2,6-6.4,10.2-5l51.6,17.9c3.7,1.3,5.9,5.1,5.3,8.9l-8.1,47C611.1-26,607.7-23.2,603.9-23.2z"/>
	<path class="st3" d="M539-95.5c-0.9,0-1.8-0.1-2.6-0.4l-34.2-11.8c-4.2-1.4-6.4-6-5-10.2c1.4-4.2,6-6.4,10.2-5l34.2,11.8
		c4.2,1.4,6.4,6,5,10.2C545.4-97.5,542.3-95.5,539-95.5z"/>
</g>
<path class="st4" d="M459.4-205.6l-222.3,77c-3.7,1.3-5.9,5.1-5.3,8.9l51.3,299.3c0.4,2.1,1.6,4,3.3,5.2l171,119.7
	c1.4,1,3,1.4,4.6,1.4v-512C461.1-206,460.2-205.9,459.4-205.6z"/>
<path class="st5" d="M459.4-171.6l-186.1,64.4c-3.7,1.3-5.9,5.1-5.3,8.9L312.4,161c0.4,2.1,1.6,4,3.3,5.2l141.7,99.2
	c1.4,1,3,1.4,4.6,1.4v-438.9C461.1-172.1,460.2-171.9,459.4-171.6z"/>
<path class="st6" d="M407-35.5c0,25.3,17.2,46.7,40.6,53.1c-40,6.9-70.5,41.8-70.5,83.7v42.8c0,4.4,3.6,8,8,8h77V-90.6
	C431.6-90.6,407-65.9,407-35.5z"/>
</svg>
