<?xml version="1.0" encoding="utf-8"?>
<!-- Generator: Adobe Illustrator 19.0.0, SVG Export Plug-In . SVG Version: 6.00 Build 0)  -->
<svg version="1.1" id="Layer_1" xmlns="http://www.w3.org/2000/svg" xmlns:xlink="http://www.w3.org/1999/xlink" x="0px" y="0px"
	 viewBox="96 11 512 512" style="enable-background:new 96 11 512 512;" xml:space="preserve">
<style type="text/css">
	.st0{fill:#9BAAAB;}
	.st1{fill:#CDD4D5;}
	.st2{fill:#E6EAEA;}
	.st3{fill:#365558;}
	.st4{fill:#FF8C29;}
	.st5{fill:#0295AA;}
	.st6{fill:#F0353D;}
	.st7{fill:#4ACFD9;}
	.st8{fill:#FD6A33;}
	.st9{fill:#FFD1A9;}
</style>
<path class="st0" d="M349.8,223h1.2v-93h-58v41.9c0.6,0,1.2,0,1.8,0C323.9,171.8,347.8,194.4,349.8,223z"/>
<path class="st0" d="M349.9,276.6h1.1V226h-1.1c0,0.3,0,0.6,0,0.9V276.6z"/>
<rect x="293" y="400" class="st0" width="58" height="92"/>
<rect x="351" y="130" class="st1" width="58" height="93"/>
<path class="st1" d="M409,277v-51h-58v50.6h51.6C404.8,276.6,406.9,276.8,409,277z"/>
<rect x="351" y="400" class="st1" width="58" height="92"/>
<path class="st1" d="M548,492c12.7,0,23-10.3,23-23v-44H457.7v67H548z"/>
<path class="st1" d="M445,296.6c7.9,9.5,12.7,21.8,12.7,35.1V422H571V251H445V296.6z"/>
<path class="st1" d="M548,130H445v118h126v-95C571,140.3,560.7,130,548,130z"/>
<path class="st0" d="M203,440.8V400h-72v69c0,12.7,10.3,23,23,23h83.8C217.4,483.9,203,464,203,440.8z"/>
<path class="st0" d="M257,186.9V130H154c-12.7,0-23,10.3-23,23v70h108.9C240.9,208.8,247.3,196.1,257,186.9z"/>
<path class="st0" d="M239.7,315.7v-88.8c0-0.3,0-0.6,0-0.9H131v171h72v-29.3C203,343.7,218.4,323.3,239.7,315.7z"/>
<path class="st1" d="M551,122H351v154.6h51.6c30.4,0,55.1,24.7,55.1,55.1v167.9H551c15.5,0,28-10.4,28-23.2V145.2
	C579,132.4,566.5,122,551,122z"/>
<path class="st0" d="M203,440.8v-73.1c0-23.9,15.4-44.4,36.7-51.9v-88.8c0-30.4,24.7-55.1,55.1-55.1c30.4,0,55.1,24.7,55.1,55.1
	v49.7h1.1V122H151c-15.5,0-28,10.4-28,23.2v331.3c0,12.8,12.5,23.2,28,23.2h88.7v-7C218.4,485.2,203,464.7,203,440.8z"/>
<path class="st2" d="M437,114h-20v164.6c7.4,2,14.2,5.5,20,10.2V114z"/>
<path class="st1" d="M285,114h-20v66.6c6-3.9,12.7-6.6,20-7.9V114z"/>
<path class="st0" d="M143,31c0-11,9-20,20-20h21c11,0,20,9,20,20v55h-61V31z"/>
<path class="st1" d="M498,31c0-11,9-20,20-20h21c11,0,20,9,20,20v55h-61V31z"/>
<polygon class="st3" points="320.7,443.2 320.7,459.7 345,452.2 345,500.5 365.3,500.5 365.3,428 363.1,428 "/>
<polygon class="st4" points="497.6,481.1 538.3,481.1 538.3,464.3 480.9,464.3 476.9,499.3 495.5,499.3 "/>
<path class="st3" d="M371.3,199.3c8.5-9.7,12.7-23.1,12.7-40.2v-7.5c0-8.1-1.5-15.4-4.4-21.7c-1.3-3-3-5.6-4.8-7.9h-51.3
	c-1.6,1.8-2.9,3.8-4.1,6c-2.9,5.6-4.4,11.7-4.4,18.4c0,10.6,2.8,19,8.2,25.2s12.7,9.3,21.7,9.3c7.1,0,13.3-2.6,18.6-7.8
	c-1.3,13.7-8.7,21.8-22.3,24.1c3.1,4.8,5.5,10.2,7,15.9C357.6,210.8,365.3,206.2,371.3,199.3z M358.3,162.8
	c-2.3,1.7-5.1,2.5-8.4,2.5c-4.6,0-8.2-1.7-10.8-5.3c-2.5-3.6-3.8-8.2-3.8-13.8c0-5.6,1.3-10.3,3.9-14c2.7-3.7,6-5.6,10.1-5.6
	c4.4,0,7.9,1.9,10.5,5.7c2.6,3.8,3.9,9.1,3.9,16v8.4C362.5,159.1,360.7,161.1,358.3,162.8z"/>
<path class="st3" d="M216.3,199.3c8.5-9.7,12.7-23.1,12.7-40.2v-7.5c0-8.1-1.5-15.4-4.4-21.7c-1.3-3-3-5.6-4.8-7.9h-51.3
	c-1.6,1.8-2.9,3.8-4.1,6c-2.9,5.6-4.4,11.7-4.4,18.4c0,10.6,2.8,19,8.2,25.2c5.4,6.2,12.7,9.3,21.7,9.3c7.1,0,13.3-2.6,18.6-7.8
	c-1.5,15.8-11,24.1-28.8,24.8l-4.5,0.1v17l5-0.1C195.8,214.3,207.8,209.1,216.3,199.3z M208.7,156.7c-1.2,2.4-3,4.4-5.4,6.1
	c-2.3,1.7-5.1,2.5-8.4,2.5c-4.6,0-8.2-1.7-10.8-5.3c-2.5-3.6-3.8-8.2-3.8-13.8c0-5.6,1.3-10.3,3.9-14c2.7-3.7,6-5.6,10.1-5.6
	c4.4,0,7.9,1.9,10.5,5.7c2.6,3.8,3.9,9.1,3.9,16V156.7z"/>
<path class="st4" d="M492.6,152.8h10.8c5.2,0,9-1.3,11.5-3.9c2.5-2.6,3.7-6,3.7-10.3c0-4.1-1.2-7.3-3.7-9.6
	c-2.4-2.3-5.8-3.4-10.1-3.4c-3.9,0-7.1,1.1-9.8,3.2c-2.6,2.1-3.9,4.9-3.9,8.3h-20.3c0-5.3,1.4-10.1,4.3-14.3
	c2.9-4.3,6.9-7.6,12.1-10s10.9-3.6,17.2-3.6c10.8,0,19.3,2.6,25.5,7.8c6.1,5.2,9.2,12.3,9.2,21.4c0,4.7-1.4,9-4.3,12.9
	c-2.9,3.9-6.6,7-11.3,9.1c5.8,2.1,10.1,5.2,12.9,9.3c2.9,4.1,4.3,9,4.3,14.6c0,9.1-3.3,16.4-10,21.9c-6.6,5.5-15.4,8.2-26.3,8.2
	c-10.2,0-18.6-2.7-25.1-8.1c-6.5-5.4-9.7-12.5-9.7-21.4h20.3c0,3.8,1.4,7,4.3,9.4s6.5,3.7,10.7,3.7c4.8,0,8.6-1.3,11.3-3.8
	c2.8-2.6,4.1-6,4.1-10.2c0-10.2-5.6-15.3-16.9-15.3h-10.8L492.6,152.8L492.6,152.8z"/>
<path class="st5" d="M229.9,320.4c0-0.9,0-1.8,0-2.7L230,299c-0.2-13.8-3.2-24.3-9.1-31.6c-5.9-7.3-14.4-11-25.6-11
	s-19.7,3.7-25.7,11.1c-5.9,7.5-8.9,18.3-8.9,32.6v18.8c0.2,13.7,3.2,24.2,9.1,31.6c5.9,7.3,14.4,11,25.6,11c2.9,0,5.5-0.2,8-0.7
	C205.6,343.6,215.7,328.9,229.9,320.4z M206.2,339.2c-2.2,3.9-5.8,5.8-10.8,5.8s-8.7-2-11-6c-2.3-4-3.4-10.3-3.4-18.6v-24.9
	c0.2-7.8,1.3-13.5,3.6-17.2c2.3-3.7,5.8-5.6,10.6-5.6c4.9,0,8.5,1.9,10.8,5.8c2.3,3.9,3.5,10,3.5,18.5l0.1,24.3
	C209.6,329.4,208.4,335.3,206.2,339.2z"/>
<path class="st6" d="M532.1,351.5h11.6v16.4h-11.6V390h-20.3v-22.1h-42l-0.9-12.8l42.7-67.4h20.5V351.5z M489.1,351.5h22.6v-36.1
	l-1.3,2.3L489.1,351.5z"/>
<path class="st2" d="M579,99H351v23.2h200c15.5,0,28,10.4,28,23.2v331.3c0,12.8-12.5,23.2-28,23.2h-93.3v15c0,2.8-0.4,5.6-1.2,8.1
	H579c15.5,0,28-10.4,28-23.2V122.2C607,109.4,594.5,99,579,99z"/>
<path class="st1" d="M239.7,499.8H151c-15.5,0-28-10.4-28-23.2V145.4c0-12.8,12.5-23.2,28-23.2h200V99H123c-15.5,0-28,10.4-28,23.2
	v377.6c0,12.8,12.5,23.2,28,23.2h118c-0.8-2.6-1.2-5.3-1.2-8.1V499.8z"/>
<path class="st5" d="M354.2,272.7c4,0,7.2,1.3,9.4,3.9h21.5c-1.4-3.5-3.1-6.6-5.3-9.2c-5.9-7.3-14.4-11-25.6-11
	c-1.5,0-3,0.1-4.4,0.2v16.7C351.2,272.9,352.6,272.7,354.2,272.7z"/>
<path class="st7" d="M379.7,267.2c-5.9-7.4-14.4-11-25.6-11c-1.1,0-2.2,0-3.2,0.1V273c1-0.2,2.1-0.3,3.2-0.3c4,0,7.2,1.3,9.4,3.9
	h21.5C383.7,273.1,381.9,269.9,379.7,267.2z"/>
<path class="st3" d="M203,429.8l-37.3,13.4v16.5l24.3-7.5v48.3h20.3v-32.4c-4.6-8.1-7.3-17.4-7.3-27.4V429.8z"/>
<path class="st8" d="M402.6,296.6h-72.7v-69.7c0-19.3-15.7-35.1-35.1-35.1s-35.1,15.7-35.1,35.1v105.7h-1.7
	c-19.3,0-35.1,15.7-35.1,35.1v73.1c0,19.3,15.7,35.1,35.1,35.1h1.7v39c0,4.5,3.6,8.1,8.1,8.1h161.7c4.5,0,8.1-3.6,8.1-8.1V331.7
	C437.7,312.4,422,296.6,402.6,296.6z"/>
<path class="st4" d="M402.6,296.6h-72.7v-69.7c0-19.3-15.7-35.1-35.1-35.1s-35.1,15.7-35.1,35.1v105.7h-1.7
	c-19.3,0-35.1,15.7-35.1,35.1v73.1c0,19.3,15.7,35.1,35.1,35.1h1.7v26.5c0,4.5,3.6,8.1,8.1,8.1h161.7c4.5,0,8.1-3.6,8.1-8.1V331.7
	C437.7,312.4,422,296.6,402.6,296.6z"/>
<g>
	<path class="st9" d="M329.6,340.7c0,4.5,3.6,8.1,8.1,8.1c4.5,0,8.1-3.6,8.1-8.1v-44.1h-16.3V340.7z"/>
	<path class="st9" d="M371.9,340.7c0,4.5,3.6,8.1,8.1,8.1c4.5,0,8.1-3.6,8.1-8.1v-44.1h-16.3V340.7z"/>
</g>
</svg>
