<svg width="512" height="512" viewBox="0 0 512 512" fill="none" xmlns="http://www.w3.org/2000/svg">
<path d="M271.734 276.844C271.734 266.359 273.131 256.605 275.924 247.582C278.717 238.559 282.562 230.91 287.461 224.637C292.402 218.363 297.881 213.98 303.896 211.488L308.021 222.188C302.006 226.613 297.344 233.531 294.035 242.941C290.77 252.309 289.115 263.309 289.072 275.941V278.777C289.072 291.711 290.705 302.926 293.971 312.422C297.279 321.918 301.963 328.879 308.021 333.305L303.896 344.004C297.967 341.598 292.488 337.193 287.461 330.791C282.477 324.432 278.631 316.826 275.924 307.975C273.217 299.123 271.82 289.713 271.734 279.744V276.844ZM449.625 278.648C449.625 288.746 448.143 298.328 445.178 307.395C442.213 316.461 438.109 324.238 432.867 330.727C427.668 337.258 422.039 341.684 415.98 344.004L411.855 333.305C417.828 328.836 422.447 321.961 425.713 312.68C428.979 303.398 430.676 292.721 430.805 280.646V276.715C430.805 263.781 429.15 252.566 425.842 243.07C422.576 233.574 417.914 226.613 411.855 222.188L415.98 211.488C421.996 213.852 427.582 218.234 432.738 224.637C437.938 230.996 442.02 238.666 444.984 247.646C447.992 256.584 449.539 265.973 449.625 275.812V278.648ZM492.035 338.203C476.566 333.863 468.832 323.873 468.832 308.232V295.471C468.832 286.791 465.352 282.451 458.391 282.451V267.82C465.352 267.82 468.832 263.459 468.832 254.736V241.201C468.961 233.467 470.959 227.215 474.826 222.445C478.736 217.676 484.473 214.217 492.035 212.068L496.096 223.412C490.682 225.475 487.867 231.254 487.652 240.75V254.736C487.652 264.361 483.678 271.15 475.729 275.104C483.678 279.057 487.652 285.867 487.652 295.535V309.457C487.867 318.953 490.682 324.732 496.096 326.795L492.035 338.203ZM365.256 481.795C370.67 479.732 373.484 473.953 373.699 464.457V450.471C373.699 440.803 377.695 434.014 385.688 430.104C377.695 426.193 373.699 419.404 373.699 409.736V395.75C373.484 386.254 370.67 380.475 365.256 378.412L369.316 367.068C377.008 369.217 382.787 372.74 386.654 377.639C390.521 382.494 392.477 388.875 392.52 396.781V409.736C392.52 418.459 396 422.82 402.961 422.82V437.451C396 437.451 392.52 441.77 392.52 450.406V464.135C392.219 479.26 384.484 488.949 369.316 493.203L365.256 481.795Z" fill="#FF8C29"/>
<rect x="460" y="76" width="75" height="16" transform="rotate(90 460 76)" fill="#0295AA"/>
<rect x="68" y="76" width="75" height="16" transform="rotate(90 68 76)" fill="#0295AA"/>
<rect x="417" y="135" width="41" height="16" fill="#0295AA"/>
<rect x="58" y="135" width="41" height="16" fill="#0295AA"/>
<path fill-rule="evenodd" clip-rule="evenodd" d="M303 135L283 135L283 151L303 151L319 151L319 135L319 70L303 70L303 135ZM325 151L325 135L325 70L341 70L341 135L361 135L361 151L341 151L325 151ZM353 253L353 186L369 186L369 253L353 253Z" fill="#0295AA"/>
<path fill-rule="evenodd" clip-rule="evenodd" d="M173 135L153 135L153 151L173 151L189 151L189 135L189 70L173 70L173 135ZM195 70L195 135L195 151L211 151L231 151L231 135L211 135L211 70L195 70Z" fill="#0295AA"/>
<rect x="483" y="17" width="61" height="61" transform="rotate(90 483 17)" stroke="#FF8C29" stroke-width="18"/>
<rect x="353" y="17" width="61" height="61" transform="rotate(90 353 17)" stroke="#FF8C29" stroke-width="18"/>
<rect x="223" y="17" width="61" height="61" transform="rotate(90 223 17)" stroke="#FF8C29" stroke-width="18"/>
<rect x="90" y="17" width="61" height="61" transform="rotate(90 90 17)" stroke="#FF8C29" stroke-width="18"/>
<rect x="423" y="116" width="61" height="61" transform="rotate(90 423 116)" stroke="#0295AA" stroke-width="18"/>
<rect x="287" y="116" width="61" height="61" transform="rotate(90 287 116)" stroke="#0295AA" stroke-width="18"/>
<rect x="161" y="116" width="61" height="61" transform="rotate(90 161 116)" stroke="#0295AA" stroke-width="18"/>
<path d="M360 315L402.435 241.5H317.565L360 315Z" fill="#0295AA"/>
<path d="M199.964 261.652C205.495 260.025 209.805 257.341 212.896 253.6C216.149 249.859 217.776 245.711 217.776 241.156C217.776 237.577 216.8 234.893 214.848 233.104C212.896 231.152 210.131 230.176 206.552 230.176C201.835 230.176 197.687 231.803 194.108 235.056C190.529 238.309 188.089 242.783 186.788 248.476L177.76 285.32H218.02L214.116 300.936H173.856L142.868 424.888L141.892 428.792C151.977 433.021 161.737 439.04 171.172 446.848C168.407 445.221 164.096 443.595 158.24 441.968C152.547 440.341 146.121 438.959 138.964 437.82C133.433 454.087 125.869 466.368 116.272 474.664C106.837 482.96 95.4507 487.108 82.112 487.108C65.6827 487.108 53.2387 480.927 44.78 468.564C42.9907 464.172 42.096 459.699 42.096 455.144C42.096 448.312 44.6987 442.212 49.904 436.844C54.9467 431.476 61.7787 427.247 70.4 424.156C79.0213 421.065 88.5373 419.52 98.948 419.52C107.244 419.52 115.377 420.496 123.348 422.448L153.848 300.936H126.032L129.936 285.32H157.752L166.78 248.476C169.383 238.065 174.425 229.851 181.908 223.832C189.391 217.651 198.419 214.56 208.992 214.56C217.776 214.56 224.852 216.756 230.22 221.148C235.751 225.377 238.516 230.989 238.516 237.984C238.516 246.117 234.856 252.136 227.536 256.04C220.216 259.781 211.025 261.652 199.964 261.652ZM79.184 471.004C88.456 471.004 96.508 467.995 103.34 461.976C110.172 455.957 115.621 447.255 119.688 435.868C117.573 435.705 114.401 435.624 110.172 435.624C94.556 435.624 82.6813 437.739 74.548 441.968C66.252 446.197 62.104 451.809 62.104 458.804C62.104 460.268 62.2667 461.651 62.592 462.952C62.7547 464.253 62.9987 465.229 63.324 465.88C66.4147 469.296 71.7013 471.004 79.184 471.004Z" fill="#BCD643"/>
</svg>
