<svg width="512" height="512" viewBox="0 0 512 512" fill="none" xmlns="http://www.w3.org/2000/svg">
<path fill-rule="evenodd" clip-rule="evenodd" d="M127.329 41.0798C106.821 44.0813 85.7072 55.1158 71.2239 70.4003C62.5435 79.5619 58.9645 84.8079 53.4855 96.4037C44.8908 114.593 44.7841 115.4 44.3677 165.697L44 209.985L73.7079 209.639L103.416 209.292L109.627 206.423C119.398 201.911 127.153 192.388 129.246 182.332C129.843 179.466 129.646 179.249 124.932 177.57C119.217 175.536 111.619 169.817 107.587 164.515C92.3799 144.521 99.7442 115.007 122.776 103.64C128.854 100.641 129.965 100.432 139.763 100.439C149.505 100.447 150.703 100.671 156.722 103.618C176.973 113.534 185.613 137.894 175.96 157.866C172.386 165.262 163.442 173.933 156.348 176.88L150.744 179.209V183.81C150.744 200.737 140.208 217.02 124.067 225.041L115.529 229.284L79.8306 229.592L44.1315 229.899V252.769V275.64L101.672 275.936L159.213 276.231L165.834 278.816C174.592 282.235 181.944 287.781 187.19 294.923C193.704 303.795 195.777 310.224 196.34 323.305L196.818 334.42L200.586 335.552C205.707 337.09 215.394 343.764 218.785 348.091C238.291 372.975 225.003 407.955 193.837 413.765C177.369 416.834 158.967 406.995 151.092 390.908C148.492 385.596 148.253 384.178 148.253 374.098C148.253 363.685 148.429 362.731 151.509 356.459C155.417 348.502 164.362 339.714 171.234 337.083L175.892 335.3L175.437 328.186C174.645 315.821 167.46 305.296 155.861 299.511L151.242 297.207L97.6866 296.916L44.1315 296.625L44.1395 340.367C44.1435 365.723 44.5809 386.837 45.1807 390.6C46.7639 400.539 52.3068 415.692 57.6992 424.823C64.4018 436.175 80.6835 452.611 91.4593 458.901C101.436 464.725 112.081 468.882 122.363 470.97C129.145 472.347 137.074 472.543 176.151 472.296L221.984 472.008L227.249 469.227C234.095 465.611 240.077 459.391 243.31 452.53L245.897 447.036L246.193 411.327L246.489 375.617H256.359H266.229L266.525 411.327L266.821 447.036L269.406 452.53C272.53 459.169 278.908 465.75 285.706 469.348L290.734 472.008L336.567 472.296C375.644 472.543 383.573 472.347 390.356 470.97C408.352 467.316 424.374 458.806 437.94 445.696C458.863 425.476 468.543 402.289 468.574 372.319L468.587 359.532L436.952 359.833L405.317 360.135L399.677 362.912C394.136 365.64 386.882 372.422 386.886 374.871C386.888 375.556 389.369 377.415 392.4 379.004C406.441 386.359 414.947 403.533 412.715 420.02C411.013 432.591 401.861 444.969 389.947 450.815C383.836 453.812 382.695 454.028 372.935 454.028C363.67 454.028 361.821 453.721 356.776 451.351C350.169 448.247 341.919 440.886 338.508 435.052C330.439 421.246 331.024 404.259 340.021 391.15C344.074 385.243 351.806 379.124 358.002 376.918C362.571 375.291 362.986 374.842 364.972 369.384C369.403 357.199 381.28 345.603 393.859 341.177C398.777 339.447 402.889 339.211 433.963 338.884L468.587 338.521V329.101V319.681H458.306C441.916 319.681 430.299 315.099 419.668 304.442C414.508 299.268 408.746 289.702 406.436 282.474C405.927 280.877 403.94 280.726 383.611 280.726H361.345L359.047 286.285C350.503 306.952 327.764 316.665 306.676 308.657C298.329 305.486 287.519 294.681 284.231 286.219C281.294 278.663 280.997 264.751 283.622 257.752C294.185 229.599 329.737 221.888 350.532 243.239C353.413 246.198 356.673 250.903 358.05 254.09L360.48 259.716L392.005 259.733C429.738 259.753 427.699 259.116 428.853 271.228C429.791 281.076 432.75 287.021 439.118 291.848C445.387 296.602 452.171 298.705 461.229 298.705H468.587V246.764V194.824H434.678C403.095 194.824 400.353 194.683 394.688 192.769C374.437 185.93 361.975 168.288 361.975 146.459V140.144L357.117 139.498C345.711 137.98 332.74 127.829 327.306 116.166C324.937 111.082 324.628 109.211 324.62 99.9317C324.612 90.1888 324.838 88.9632 327.808 82.6764C331.613 74.6225 338.778 67.216 346.264 63.5971C379.197 47.6763 414.731 80.0723 401.8 114.229C399.249 120.97 392.801 129.155 387.382 132.532L382.795 135.391L383.185 142.383C383.918 155.514 392.422 167.301 404.407 171.796C409.47 173.696 412.059 173.847 439.328 173.847H468.78L468.342 147.627C467.962 124.887 467.622 120.375 465.786 113.632C456.839 80.7735 431.946 54.5604 400.294 44.6667C387.226 40.5813 379.316 40 336.81 40C291.881 40 289.299 40.3146 280.757 46.8322C274.226 51.8165 270.679 56.4922 268.316 63.2315C266.517 68.3637 266.323 71.4761 266.323 95.1891V121.462L272.954 124.358C303.417 137.663 304.34 181.617 274.473 196.73C258.622 204.752 240.509 201.817 227.867 189.177C208.199 169.511 214.525 135.381 239.892 124.302L246.506 121.414L246.202 93.4421L245.897 65.471L242.747 59.4778C238.741 51.8605 233.538 46.8422 225.97 43.2982L219.992 40.4994L176.649 40.3516C152.811 40.2707 130.617 40.5983 127.329 41.0798ZM217.187 59.0423C218.729 59.6266 221.28 61.3117 222.854 62.788C227.929 67.5436 228.461 70.1906 228.459 90.6603L228.457 109.421L224.046 112.215C217.156 116.579 208.104 126.971 204.076 135.142C187.956 167.839 205.402 206.743 240.967 217.406C244.817 218.56 250.21 219.188 256.359 219.197C273.14 219.222 286.992 213.115 298.935 200.424C307.17 191.673 311.778 182.247 313.855 169.896C315.211 161.835 315.213 159.904 313.877 151.961C311.179 135.92 301.164 120.126 288.673 112.215L284.262 109.421L284.26 90.7571C284.259 80.0234 284.707 70.8988 285.315 69.2816C286.888 65.0994 292.164 60.0901 296.17 58.9744C298.112 58.433 305.008 57.9885 311.494 57.9855L323.286 57.9795L319.201 62.6322C310.918 72.0645 306.178 85.642 306.178 99.9317C306.178 113.865 310.281 125.546 319.105 136.738C323.707 142.575 333.392 150.178 339.72 152.924C343.63 154.62 343.937 155.06 345.047 160.541C349.031 180.207 362.846 198.141 380.408 206.445C392.707 212.262 396.503 212.803 424.956 212.803H450.652V245.48C450.652 275.567 450.525 278.03 449.042 276.543C448.002 275.5 447.143 272.049 446.613 266.784C445.675 257.459 442.796 251.474 437.181 247.181C430.666 242.2 428.274 241.861 399.222 241.814L372.204 241.77L369.708 238.024C359.991 223.442 342.953 214.012 324.611 213.063C307.572 212.182 293.192 217.802 280.66 230.242C270.186 240.639 264.886 252.055 263.683 266.81C261.373 295.13 280.834 321.669 308.734 328.244C317.816 330.386 331.21 329.73 340.055 326.71C352.322 322.523 364.208 313.348 370.689 303.063L373.433 298.709L383.397 298.735L393.361 298.762L396.799 304.477C398.689 307.62 402.398 312.492 405.039 315.305L409.843 320.417L402.813 321.113C393.706 322.012 387.038 324.019 378.415 328.458C369.151 333.227 355.703 346.643 351.587 355.225C349.567 359.436 347.799 361.688 345.828 362.563C340.692 364.842 331.43 372.49 327.289 377.872C310.455 399.745 310.496 429.168 327.391 450.847L330.36 454.656L312.459 454.343C294.774 454.032 294.515 453.995 291.042 451.337C284.202 446.101 284.258 446.53 284.258 399.689V357.638H263.832C247.233 357.638 243.406 357.382 243.406 356.273C243.406 355.523 241.797 351.686 239.831 347.745C235.669 339.405 227.664 330.324 219.946 325.188C215.198 322.03 214.512 321.158 214.512 318.29C214.512 312.662 210.746 299.921 206.864 292.412C201.327 281.7 189.619 270.278 178.642 264.879C164.897 258.116 161.295 257.752 108.31 257.752H62.0663V252.757V247.763H87.7628C116.215 247.763 120.011 247.222 132.311 241.405C149.37 233.339 163.683 215.326 167.019 197.725C168.115 191.948 168.369 191.589 174.729 186.848C189.285 175.997 197.795 159.145 197.939 140.885C198.07 124.174 192.587 110.853 180.663 98.9158C169.047 87.2891 156.13 81.9522 139.6 81.9522C123.486 81.9522 110.059 87.6597 98.2765 99.5182C86.9138 110.956 81.5842 124.216 81.652 140.885C81.7138 156.209 87.7408 170.508 98.8165 181.612C107.803 190.62 107.416 190.828 81.7227 190.828H61.9048L62.2586 157.117L62.6113 123.405L65.8774 113.916C70.1339 101.545 75.603 92.4352 84.2465 83.3126C96.2927 70.6001 110.903 62.5773 127.472 59.5767C137.294 57.7977 212.715 57.3482 217.187 59.0423ZM429.812 84.722C444.437 100.414 450.652 117.936 450.652 143.47V155.868H431.671C416.956 155.868 412.058 155.539 409.87 154.406C406.726 152.775 401.821 147.364 401.847 145.553C401.856 144.908 403.709 142.583 405.964 140.386C421.743 125.01 426.86 98.9578 418.266 77.754L415.885 71.8797L419.652 74.8713C421.724 76.5164 426.297 80.9493 429.812 84.722ZM359.484 77.8708C344.732 81.5766 337.932 96.4327 344.787 109.984C348.549 117.422 353.999 121.135 362.004 121.716C370.069 122.3 375.738 120.065 380.797 114.302C387.962 106.143 388.393 95.0882 381.897 86.0985C377.421 79.9045 366.844 76.0209 359.484 77.8708ZM367.953 97.934C368.71 99.3533 368.71 100.51 367.953 101.929C366.071 105.455 359.982 103.929 359.982 99.9317C359.982 95.9342 366.071 94.408 367.953 97.934ZM132.311 118.971C127.854 120.282 121.835 125.724 119.749 130.326C117.265 135.809 117.281 144.816 119.784 149.733C120.84 151.809 123.532 155.162 125.764 157.184L129.826 160.862H139.783H149.741L153.802 157.184C159.423 152.094 161.704 147.203 161.704 140.242C161.704 124.683 147.595 114.473 132.311 118.971ZM142.573 137.089C143.231 137.749 143.769 139.322 143.769 140.585C143.769 142.6 143.278 142.883 139.783 142.883C136.289 142.883 135.798 142.6 135.798 140.585C135.798 137.91 137.513 135.891 139.783 135.891C140.66 135.891 141.916 136.43 142.573 137.089ZM246.894 140.781C239.049 144.422 234.439 151.854 234.439 160.862C234.439 173.697 243.557 182.837 256.359 182.837C269.142 182.837 278.305 173.767 278.258 161.162C278.208 147.946 269.173 138.855 256.142 138.909C253.163 138.921 249.15 139.733 246.894 140.781ZM259.303 158.31C259.96 159.104 260.351 160.789 260.172 162.056C259.903 163.959 259.242 164.358 256.359 164.358C253.477 164.358 252.815 163.959 252.546 162.056C252.157 159.299 253.944 156.867 256.359 156.867C257.321 156.867 258.646 157.516 259.303 158.31ZM314.149 250.075C312.231 250.684 308.597 253.248 306.074 255.772C296.681 265.17 297.417 279.981 307.699 288.479C316.891 296.073 329.768 295.124 337.927 286.25C346.402 277.034 346.107 264.543 337.202 255.617C330.757 249.156 322.949 247.278 314.149 250.075ZM324.54 268.311C325.401 269.175 326.105 270.491 326.105 271.236C326.105 272.866 323.41 275.731 321.878 275.731C320.448 275.731 317.138 272.714 317.138 271.41C317.138 269.912 320.239 266.742 321.705 266.742C322.403 266.742 323.678 267.448 324.54 268.311ZM148.082 316.049C149.871 316.798 152.59 318.908 154.124 320.736L156.915 324.06L154.078 326.024C148.329 330.006 138.999 340.782 135.983 346.924C127.78 363.629 127.469 384.134 135.19 399.357C146.222 421.111 167.782 433.774 191.131 432.216C201.99 431.491 211.493 428.174 220.739 421.88L228.461 416.624L228.445 429.332C228.43 440.636 228.182 442.473 226.203 445.943C224.978 448.089 222.712 450.786 221.165 451.936C218.426 453.973 217.219 454.035 174.924 454.309C125.166 454.63 123.034 454.375 106.405 446.096C90.5616 438.209 79.1112 427.024 71.1263 411.638C63.0606 396.097 62.7328 393.877 62.3104 351.894L61.9357 314.687H103.382C136.134 314.687 145.512 314.973 148.082 316.049ZM180.137 352.705C172.054 355.083 165.673 364.363 165.711 373.686C165.739 380.713 168.315 386.281 173.654 390.863C182.297 398.279 194.848 397.892 202.995 389.96C207.712 385.368 209.688 380.741 209.725 374.201C209.797 361.178 200.02 351.467 187.111 351.741C184.919 351.787 181.781 352.221 180.137 352.705ZM190.399 370.823C193.781 374.213 189.804 379.862 185.617 377.615C182.099 375.728 183.622 369.624 187.609 369.624C188.486 369.624 189.742 370.164 190.399 370.823ZM450.243 383.522C449.3 391.88 446.139 402.705 442.539 409.907C439.397 416.191 430.815 428.982 430.173 428.337C429.978 428.142 430.258 424.873 430.794 421.074C432.542 408.704 429.538 395.303 422.327 383.299L418.914 377.615H434.911H450.909L450.243 383.522ZM366.379 393.009C360.488 394.858 356.554 398.149 353.493 403.787C351.15 408.1 350.849 409.63 351.181 415.516C351.862 427.6 359.613 435.612 371.349 436.361C384.913 437.227 394.855 427.798 394.855 414.066C394.855 404.149 388.771 395.839 379.479 393.066C373.648 391.326 371.769 391.317 366.379 393.009ZM376.731 414.289C376.064 419.864 369.797 419.803 369.132 414.215C368.892 412.198 369.37 411.352 371.125 410.688C374.469 409.423 377.111 411.119 376.731 414.289Z" fill="#365558" stroke="#365558" stroke-width="2"/>
<path d="M246.159 437.253C246.159 456.583 230.489 472.253 211.159 472.253H141.187C86.8359 472.253 42.7757 428.253 42.7757 373.977L42.7757 137.023C42.7757 82.7467 86.8359 38.7471 141.187 38.7471H211.159C230.489 38.7471 246.159 54.4172 246.159 73.7471V127.195H256V53C256 33.67 240.33 18 221 18H131.346C70.9558 18 22 66.8884 22 127.195V383.805C22 444.112 70.9558 493 131.346 493H221C240.33 493 256 477.33 256 458V375.069H246.159V437.253Z" fill="#CDD4D5"/>
<path d="M362 124H382.786L382.786 139.055C382.786 157.833 398.009 173.055 416.786 173.055H490V194H409C383.043 194 362 172.957 362 147V124Z" fill="#CDD4D5"/>
<path d="M150 160H129.214L129.214 174.354C129.214 193.132 113.991 208.354 95.2137 208.354H22V229H103C128.957 229 150 207.957 150 182V160Z" fill="#CDD4D5"/>
<path d="M196 344H175.2L175.2 329.646C175.2 310.868 159.978 295.646 141.2 295.646H40V275L149 275C174.957 275 196 296.043 196 322V344Z" fill="#CDD4D5"/>
<path d="M362 389H382.786C382.786 372.342 396.29 358.839 412.948 358.839H490V338H409C383.043 338 362 359.043 362 385V389Z" fill="#CDD4D5"/>
<path d="M265.841 437.253C265.841 456.583 281.511 472.253 300.841 472.253H370.813C425.164 472.253 469.224 428.253 469.224 373.977L469.224 137.023C469.224 82.7467 425.164 38.7471 370.813 38.7471H300.841C281.511 38.7471 265.841 54.4172 265.841 73.7471V127.195H256V53C256 33.67 271.67 18 291 18H380.654C441.044 18 490 66.8884 490 127.195V383.805C490 444.112 441.044 493 380.654 493H291C271.67 493 256 477.33 256 458V375.069H265.841V437.253Z" fill="#CDD4D5"/>
<path d="M345 259V279.917H406.427C412.013 302.374 432.115 319 456.058 319H486V298.083H460.155C450.706 298.083 442.141 294.25 435.899 288.039C430.126 282.295 428.838 273.749 428.838 265.606C428.838 261.957 425.913 259 422.305 259H345Z" fill="#CDD4D5"/>
<path fill-rule="evenodd" clip-rule="evenodd" d="M364.252 121.047C376.656 121.047 386.71 110.992 386.71 98.5889C386.71 86.1858 376.656 76.131 364.252 76.131C351.849 76.131 341.794 86.1858 341.794 98.5889C341.794 110.992 351.849 121.047 364.252 121.047ZM364.252 139.047C386.597 139.047 404.71 120.933 404.71 98.5889C404.71 76.2446 386.597 58.131 364.252 58.131C341.908 58.131 323.794 76.2446 323.794 98.5889C323.794 120.933 341.908 139.047 364.252 139.047Z" fill="#CDD4D5"/>
<path fill-rule="evenodd" clip-rule="evenodd" d="M321.607 292.72C334.011 292.72 344.065 282.665 344.065 270.262C344.065 257.859 334.011 247.804 321.607 247.804C309.204 247.804 299.149 257.859 299.149 270.262C299.149 282.665 309.204 292.72 321.607 292.72ZM321.607 310.72C343.952 310.72 362.065 292.606 362.065 270.262C362.065 247.917 343.952 229.804 321.607 229.804C299.263 229.804 281.149 247.917 281.149 270.262C281.149 292.606 299.263 310.72 321.607 310.72Z" fill="#CDD4D5"/>
<path fill-rule="evenodd" clip-rule="evenodd" d="M256 182.28C268.403 182.28 278.458 172.226 278.458 159.822C278.458 147.419 268.403 137.364 256 137.364C243.597 137.364 233.542 147.419 233.542 159.822C233.542 172.226 243.597 182.28 256 182.28ZM256 200.28C278.344 200.28 296.458 182.167 296.458 159.822C296.458 137.478 278.344 119.364 256 119.364C233.656 119.364 215.542 137.478 215.542 159.822C215.542 182.167 233.656 200.28 256 200.28Z" fill="#CDD4D5"/>
<path fill-rule="evenodd" clip-rule="evenodd" d="M187.112 395.505C199.515 395.505 209.57 385.45 209.57 373.047C209.57 360.644 199.515 350.589 187.112 350.589C174.709 350.589 164.654 360.644 164.654 373.047C164.654 385.45 174.709 395.505 187.112 395.505ZM187.112 413.505C209.457 413.505 227.57 395.391 227.57 373.047C227.57 350.703 209.457 332.589 187.112 332.589C164.768 332.589 146.654 350.703 146.654 373.047C146.654 395.391 164.768 413.505 187.112 413.505Z" fill="#CDD4D5"/>
<path fill-rule="evenodd" clip-rule="evenodd" d="M373 435.963C385.403 435.963 395.458 425.908 395.458 413.505C395.458 401.102 385.403 391.047 373 391.047C360.597 391.047 350.542 401.102 350.542 413.505C350.542 425.908 360.597 435.963 373 435.963ZM373 453.963C395.344 453.963 413.458 435.849 413.458 413.505C413.458 391.161 395.344 373.047 373 373.047C350.656 373.047 332.542 391.161 332.542 413.505C332.542 435.849 350.656 453.963 373 453.963Z" fill="#CDD4D5"/>
<path fill-rule="evenodd" clip-rule="evenodd" d="M139 161.505C151.403 161.505 161.458 151.45 161.458 139.047C161.458 126.644 151.403 116.589 139 116.589C126.597 116.589 116.542 126.644 116.542 139.047C116.542 151.45 126.597 161.505 139 161.505ZM139 179.505C161.344 179.505 179.458 161.391 179.458 139.047C179.458 116.703 161.344 98.589 139 98.589C116.656 98.589 98.542 116.703 98.542 139.047C98.542 161.391 116.656 179.505 139 179.505Z" fill="#CDD4D5"/>
</svg>
