<svg width="512" height="512" viewBox="0 0 512 512" fill="none" xmlns="http://www.w3.org/2000/svg">
<path fill-rule="evenodd" clip-rule="evenodd" d="M374.5 335L316.5 335L316.5 295.685L374.5 295.685C386.374 295.685 396 284.872 396 271.534L396 121C396 107.662 386.374 96.8493 374.5 96.8493L172.5 96.8493L172.5 57.5342L374.5 57.5342C405.704 57.5343 431 85.9488 431 121L431 271.534C431 306.585 405.704 335 374.5 335Z" fill="#4ACFD9"/>
<path d="M67 78L180 13V143L67 78Z" fill="#4ACFD9"/>
<path d="M295.926 335H329C329 250.631 264.951 187 180 187V219.893C247.174 219.893 295.926 268.294 295.926 335Z" fill="#4ACFD9"/>
<path d="M180.487 285.458C215.078 285.458 229.832 300.261 229.832 334.967H262.729C262.729 281.744 233.533 252.451 180.487 252.451V285.458Z" fill="#0295AA"/>
<path d="M404.5 277.5C363.5 277.499 256.5 182 183 188C243.398 218.722 277.411 235.731 314.5 301L381 310C381 310 445.5 277.501 404.5 277.5Z" fill="#4ACFD9"/>
<path d="M236.773 375.285C233.613 372.403 229.46 370.866 225.191 370.998C220.922 371.13 216.871 372.922 213.894 375.995L174.533 416.609C165.059 414.794 146.012 408.836 126.406 389.214C106.799 369.525 100.861 350.365 99.1014 340.925L139.548 301.417C142.614 298.432 144.402 294.367 144.534 290.082C144.666 285.798 143.132 281.63 140.255 278.461L79.4786 211.408C76.6008 208.229 72.6012 206.3 68.3291 206.032C64.0571 205.764 59.8491 207.178 56.599 209.972L20.9062 240.685C18.0625 243.548 16.3652 247.359 16.1362 251.395C15.8895 255.521 11.1853 353.253 86.7158 429.069C152.608 495.165 235.145 500 257.877 500C261.199 500 263.239 499.901 263.782 499.868C267.803 499.642 271.6 497.932 274.44 495.066L305.034 459.237C307.821 455.978 309.233 451.757 308.969 447.471C308.704 443.185 306.786 439.171 303.619 436.281L236.773 375.285Z" fill="#BCD643"/>
</svg>
