<svg width="512" height="512" viewBox="0 0 512 512" fill="none" xmlns="http://www.w3.org/2000/svg">
<path fill-rule="evenodd" clip-rule="evenodd" d="M45.9924 363.919C38.4316 368.284 38.4316 375.361 45.9924 379.726L242.788 493.336C250.349 497.701 262.607 497.701 270.168 493.336L466.963 379.726C474.524 375.361 474.524 368.284 466.963 363.919L314.805 276.078L256.917 342.76L198.736 275.74L45.9924 363.919Z" fill="#FD6A33"/>
<path fill-rule="evenodd" clip-rule="evenodd" d="M45.9924 325.278C38.4316 329.643 38.4316 336.72 45.9924 341.085L242.788 454.695C250.349 459.06 262.607 459.06 270.168 454.695L466.963 341.085C474.524 336.72 474.524 329.643 466.963 325.278L337.151 250.337L256.917 342.76L176.39 250L45.9924 325.278Z" fill="#4ACFD9"/>
<path fill-rule="evenodd" clip-rule="evenodd" d="M256.595 342.389L176.473 250.094L45.6707 325.607C38.1098 329.971 38.1098 337.048 45.6706 341.413L242.466 455.023C246.358 457.27 251.495 458.36 256.595 458.294V342.389Z" fill="#0295AA"/>
<path fill-rule="evenodd" clip-rule="evenodd" d="M302.831 121.678V175.933H367L257 302.645L147 175.933H211.169V121.678H234.822V142.845H278.29V121.555H234.822V100.388H211.169V100.387H234.822H234.822H278.29V79.0969H234.822H234.822H211.169V57.8056H234.822H234.822H278.29V36.5153H234.822H211.169V36.5148H234.822V16.9994H278.29V36.5148H302.831V57.8061H278.29V79.0964H302.831V100.388H278.29V121.678H302.831ZM278.29 57.8061H234.822V79.0964H278.29V57.8061Z" fill="#FD6A33"/>
</svg>
