<svg width="512" height="512" viewBox="0 0 512 512" fill="none" xmlns="http://www.w3.org/2000/svg">
<rect x="161.724" y="115.273" width="189.095" height="204.459" fill="#CDD4D5"/>
<ellipse cx="256.271" cy="317.961" rx="94.5476" ry="50.2284" fill="#CDD4D5"/>
<rect x="161.724" y="115.273" width="94.5476" height="204.459" fill="#9BAAAB"/>
<path fill-rule="evenodd" clip-rule="evenodd" d="M161.722 318.05V317.872C161.812 290.172 204.108 267.732 256.27 267.732C256.27 267.732 256.27 267.732 256.27 267.732V368.189C256.27 368.189 256.27 368.189 256.27 368.189C204.108 368.189 161.812 345.749 161.722 318.05Z" fill="#9BAAAB"/>
<ellipse cx="256.271" cy="118.228" rx="94.5476" ry="50.2284" fill="#4ACFD9"/>
<path fill-rule="evenodd" clip-rule="evenodd" d="M350.404 172.004C345.921 197.528 305.487 217.506 256.27 217.506C207.053 217.506 166.619 197.528 162.135 172.004C161.862 173.56 161.722 175.136 161.722 176.73C161.722 204.471 204.053 226.959 256.27 226.959C308.487 226.959 350.817 204.471 350.817 176.73C350.817 175.136 350.678 173.56 350.404 172.004Z" fill="#E6EAEA"/>
<path fill-rule="evenodd" clip-rule="evenodd" d="M350.404 162.553C345.921 188.077 305.487 208.055 256.27 208.055C207.053 208.055 166.619 188.077 162.135 162.553C161.862 164.109 161.722 165.685 161.722 167.279C161.722 195.019 204.053 217.507 256.27 217.507C308.487 217.507 350.817 195.019 350.817 167.279C350.817 165.685 350.678 164.109 350.404 162.553Z" fill="#0295AA"/>
<path fill-rule="evenodd" clip-rule="evenodd" d="M350.404 248.828C345.921 274.352 305.487 294.33 256.27 294.33C207.053 294.33 166.619 274.352 162.135 248.828C161.862 250.384 161.722 251.961 161.722 253.554C161.722 281.295 204.053 303.783 256.27 303.783C308.487 303.783 350.817 281.295 350.817 253.554C350.817 251.961 350.678 250.384 350.404 248.828Z" fill="#E6EAEA"/>
<path fill-rule="evenodd" clip-rule="evenodd" d="M161.722 118.317V118.14C161.812 90.4401 204.108 68 256.27 68C256.27 68 256.27 68 256.27 68V168.457C256.27 168.457 256.27 168.457 256.27 168.457C204.108 168.457 161.812 146.017 161.722 118.317Z" fill="#365558"/>
<path fill-rule="evenodd" clip-rule="evenodd" d="M350.817 176.62C350.817 176.655 350.817 176.691 350.817 176.726C350.817 176.762 350.817 176.797 350.817 176.833V176.62ZM256.27 226.955C204.052 226.955 161.722 204.467 161.722 176.726C161.722 175.132 161.862 173.556 162.135 172C166.619 197.524 207.053 217.502 256.27 217.502V226.955Z" fill="#CDD4D5"/>
<path fill-rule="evenodd" clip-rule="evenodd" d="M350.817 253.448C350.817 253.483 350.817 253.519 350.817 253.554C350.817 253.59 350.817 253.625 350.817 253.661V253.448ZM256.27 303.783C204.052 303.783 161.722 281.295 161.722 253.554C161.722 251.961 161.862 250.384 162.135 248.828C166.619 274.352 207.053 294.33 256.27 294.33V303.783Z" fill="#CDD4D5"/>
<path fill-rule="evenodd" clip-rule="evenodd" d="M350.817 167.173C350.817 167.208 350.817 167.244 350.817 167.279C350.817 167.315 350.817 167.35 350.817 167.386V167.173ZM256.27 217.507C204.052 217.507 161.722 195.019 161.722 167.279C161.722 165.685 161.862 164.109 162.135 162.553C166.619 188.077 207.053 208.055 256.27 208.055V217.507Z" fill="#365558"/>
<path fill-rule="evenodd" clip-rule="evenodd" d="M351.587 240.553C347.104 266.077 306.67 286.055 257.453 286.055C208.236 286.055 167.802 266.077 163.318 240.553C163.045 242.109 162.905 243.685 162.905 245.279C162.905 273.019 205.236 295.507 257.453 295.507C309.67 295.507 352.001 273.019 352.001 245.279C352.001 243.685 351.861 242.109 351.587 240.553Z" fill="#0295AA"/>
<path fill-rule="evenodd" clip-rule="evenodd" d="M350.817 245.178C350.817 245.214 350.817 245.249 350.817 245.285C350.817 245.32 350.817 245.356 350.817 245.391V245.178ZM256.27 295.513C204.052 295.513 161.722 273.025 161.722 245.285C161.722 243.691 161.862 242.115 162.135 240.559C166.619 266.083 207.053 286.061 256.27 286.061V295.513Z" fill="#365558"/>
<path fill-rule="evenodd" clip-rule="evenodd" d="M78.0522 25.3555C78.0522 20.9372 81.634 17.3555 86.0522 17.3555H427.721C432.139 17.3555 435.721 20.9372 435.721 25.3555V390.801L435.72 390.801L334.469 396.06V496H86.0522C81.634 496 78.0522 492.418 78.0522 488V25.3555ZM365.91 252.618V334.37V336.421H365.843C363.81 367.585 315.614 392.518 256.456 392.518H256.454C248.598 392.518 240.935 392.078 233.548 391.242C185.309 385.785 148.83 363.446 147.067 336.421H147.002V334.729C147.001 334.635 147 334.541 147 334.446V334.294C147 334.2 147.001 334.105 147.002 334.011V260.168C147.001 260.048 147 259.928 147 259.808C147 259.688 147.001 259.567 147.002 259.447V250.598C147.001 250.524 147.001 250.45 147 250.376C147 250.33 147 250.284 147 250.238C147 250.117 147.001 249.997 147.002 249.877V171.229C147.001 171.109 147 170.989 147 170.868C147 170.748 147.001 170.628 147.002 170.508V160.291C147.001 160.171 147 160.051 147 159.931C147 159.811 147.001 159.69 147.002 159.57V103.507C147.001 103.412 147 103.318 147 103.223V103.072C147 102.977 147.001 102.883 147.002 102.788V99.7268H147.186C150.519 69.2051 198.166 45.0002 256.454 45.0002H256.456C314.744 45.0002 362.391 69.2051 365.724 99.7268H365.91V103.148V247.841C365.97 248.633 366 249.43 366 250.23C366 251.03 365.97 251.826 365.91 252.618Z" fill="#0295AA"/>
<path d="M332 395V496L335.911 494.662L433.696 394.35L435 389H338C334.686 389 332 391.686 332 395Z" fill="#4ACFD9"/>
<path fill-rule="evenodd" clip-rule="evenodd" d="M84.5273 16C80.3701 16 77 19.3574 77 23.5V488.5C77 492.643 80.3701 496 84.5273 496H257V392.516C256.727 392.516 256.453 392.518 256.179 392.518C197.021 392.518 148.825 367.586 146.792 336.42H146.725V334.729L146.723 334.445V334.295L146.725 334.012V260.162L146.723 259.811L146.725 259.459V250.59L146.723 250.238L146.725 249.887V171.225L146.723 170.873L146.725 170.521V160.283L146.723 159.932L146.725 159.58V103.506L146.723 103.223V103.072L146.725 102.789V99.7266H146.911C150.243 69.2051 197.89 45 256.179 45C256.453 45 256.727 45.002 257 45.002V16H84.5273Z" fill="#365558"/>
</svg>
