<svg width="512" height="512" viewBox="0 0 512 512" fill="none" xmlns="http://www.w3.org/2000/svg">
<rect x="214.553" y="52.002" width="83.8145" height="90.6244" fill="#CDD4D5"/>
<ellipse cx="256.46" cy="141.841" rx="41.9073" ry="22.2632" fill="#CDD4D5"/>
<rect x="214.553" y="52.002" width="41.9073" height="90.6244" fill="#9BAAAB"/>
<path fill-rule="evenodd" clip-rule="evenodd" d="M214.552 141.907V141.776C214.618 129.51 233.355 119.578 256.459 119.578C256.459 119.578 256.459 119.578 256.459 119.578V164.105C256.459 164.105 256.459 164.105 256.459 164.105C233.355 164.105 214.618 154.172 214.552 141.907Z" fill="#9BAAAB"/>
<ellipse cx="256.46" cy="53.3121" rx="41.9073" ry="22.2632" fill="#4ACFD9"/>
<path fill-rule="evenodd" clip-rule="evenodd" d="M298.183 77.1465C296.196 88.4598 278.274 97.3149 256.459 97.3149C234.644 97.3149 216.722 88.4598 214.735 77.1465C214.614 77.8361 214.552 78.5349 214.552 79.2413C214.552 91.5369 233.314 101.505 256.459 101.505C279.604 101.505 298.366 91.5369 298.366 79.2413C298.366 78.5349 298.304 77.8361 298.183 77.1465Z" fill="#E6EAEA"/>
<path fill-rule="evenodd" clip-rule="evenodd" d="M298.183 72.957C296.196 84.2703 278.274 93.1254 256.459 93.1254C234.644 93.1254 216.722 84.2703 214.735 72.957C214.614 73.6467 214.552 74.3454 214.552 75.0519C214.552 87.3475 233.314 97.3151 256.459 97.3151C279.604 97.3151 298.366 87.3475 298.366 75.0519C298.366 74.3454 298.304 73.6467 298.183 72.957Z" fill="#0295AA"/>
<path fill-rule="evenodd" clip-rule="evenodd" d="M298.183 111.199C296.196 122.513 278.274 131.368 256.459 131.368C234.644 131.368 216.722 122.513 214.735 111.199C214.614 111.889 214.552 112.588 214.552 113.294C214.552 125.59 233.314 135.557 256.459 135.557C279.604 135.557 298.366 125.59 298.366 113.294C298.366 112.588 298.304 111.889 298.183 111.199Z" fill="#E6EAEA"/>
<path fill-rule="evenodd" clip-rule="evenodd" d="M256.459 31.0488V75.5753C233.315 75.5752 214.552 65.6076 214.552 53.3121C214.552 41.0165 233.315 31.0489 256.459 31.0488Z" fill="#365558"/>
<path fill-rule="evenodd" clip-rule="evenodd" d="M256.459 101.505C256.459 101.505 256.459 101.505 256.459 101.505C233.315 101.505 214.552 91.5369 214.552 79.2413C214.552 78.5349 214.614 77.8361 214.735 77.1465C216.723 88.4598 234.644 97.3149 256.459 97.3149C256.459 97.3149 256.459 97.3149 256.459 97.3149V101.505Z" fill="#CDD4D5"/>
<path fill-rule="evenodd" clip-rule="evenodd" d="M256.459 135.557C256.459 135.557 256.459 135.557 256.459 135.557C233.315 135.557 214.552 125.59 214.552 113.294C214.552 112.588 214.614 111.889 214.735 111.199C216.723 122.513 234.644 131.368 256.459 131.368C256.459 131.368 256.459 131.368 256.459 131.368V135.557Z" fill="#CDD4D5"/>
<path fill-rule="evenodd" clip-rule="evenodd" d="M256.459 97.3151C256.459 97.3151 256.459 97.3151 256.459 97.3151C233.315 97.3151 214.552 87.3475 214.552 75.0519C214.552 74.3454 214.614 73.6467 214.735 72.957C216.723 84.2703 234.644 93.1254 256.459 93.1254C256.459 93.1254 256.459 93.1254 256.459 93.1254V97.3151Z" fill="#365558"/>
<path fill-rule="evenodd" clip-rule="evenodd" d="M298.708 107.531C296.72 118.845 278.798 127.7 256.983 127.7C235.168 127.7 217.247 118.845 215.259 107.531C215.138 108.221 215.076 108.92 215.076 109.626C215.076 121.922 233.839 131.889 256.983 131.889C280.128 131.889 298.891 121.922 298.891 109.626C298.891 108.92 298.829 108.221 298.708 107.531Z" fill="#0295AA"/>
<path fill-rule="evenodd" clip-rule="evenodd" d="M256.459 131.892C233.314 131.892 214.552 121.924 214.552 109.629C214.552 108.922 214.614 108.224 214.735 107.534C216.722 118.847 234.644 127.702 256.459 127.702V131.892Z" fill="#365558"/>
<path fill-rule="evenodd" clip-rule="evenodd" d="M177.467 16.6035C177.467 12.1852 181.049 8.60352 185.467 8.60352H328C332.418 8.60352 336 12.1852 336 16.6035V174.13L291.121 176.462V220.758H185.467C181.049 220.758 177.467 217.176 177.467 212.758V16.6035ZM305.056 46.7483C305.056 46.7087 305.057 46.6692 305.057 46.6296L305.056 46.5733L305.056 46.5109V45.1164H304.974C303.5 31.5865 282.38 20.8564 256.542 20.8564C247.257 20.8564 238.581 22.2422 231.207 24.6457C230.886 24.7502 230.568 24.8566 230.252 24.9649C217.627 29.2975 209.031 36.6601 208.109 45.1164H208.027V46.4626L208.027 46.5134V46.7467L208.027 46.7975V71.6396C208.027 71.6921 208.027 71.7447 208.027 71.7973C208.027 71.8499 208.027 71.9024 208.027 71.9549V76.4814C208.027 76.5372 208.026 76.593 208.026 76.6489C208.026 76.7047 208.027 76.7606 208.027 76.8163V111.713C208.027 111.751 208.027 111.79 208.027 111.828C208.027 111.855 208.027 111.882 208.027 111.908C208.027 111.92 208.027 111.932 208.027 111.943V115.924C208.027 115.973 208.027 116.022 208.027 116.071C208.027 116.12 208.027 116.169 208.027 116.218V148.941C208.027 148.98 208.027 149.02 208.026 149.06V149.176C208.027 149.195 208.027 149.215 208.027 149.234C208.027 149.255 208.027 149.275 208.027 149.295V150.029H208.056C208.902 162.978 227.731 173.499 251.686 174.764C253.283 174.848 254.902 174.891 256.541 174.891H256.541H256.542C282.762 174.891 304.124 163.841 305.026 150.029H305.056V149.118V112.88C305.083 112.529 305.096 112.177 305.096 111.823C305.096 111.469 305.083 111.117 305.056 110.766V46.7483Z" fill="#0295AA"/>
<path d="M290.026 179.328V220.755L291.76 220.162L335.102 175.699L335.68 173.328H296.026C292.712 173.328 290.026 176.014 290.026 179.328Z" fill="#4ACFD9"/>
<path fill-rule="evenodd" clip-rule="evenodd" d="M180.337 8C178.494 8 177 9.48834 177 11.3243V217.431C177 219.267 178.494 220.755 180.337 220.755H256.783V174.887C256.662 174.887 256.54 174.887 256.419 174.887H256.418H256.417C254.779 174.887 253.16 174.844 251.563 174.76C227.607 173.496 208.777 162.973 207.932 150.023H207.905V149.346C207.904 149.312 207.904 149.278 207.903 149.244V148.984C207.904 148.95 207.904 148.916 207.905 148.882V116.258C207.904 116.194 207.903 116.13 207.903 116.066C207.903 116.002 207.904 115.938 207.905 115.874V111.916C207.904 111.905 207.904 111.894 207.904 111.884C207.904 111.863 207.904 111.843 207.904 111.823C207.904 111.793 207.904 111.762 207.905 111.731V76.8141C207.904 76.7575 207.903 76.7009 207.903 76.6442C207.903 76.5875 207.904 76.5309 207.905 76.4743V71.9822C207.904 71.9204 207.903 71.8585 207.903 71.7965C207.903 71.7346 207.904 71.6726 207.905 71.6108V45.1109H207.988C209.464 31.5825 230.583 20.8538 256.418 20.8534H256.42C256.541 20.8534 256.662 20.8536 256.783 20.8541V8H180.337Z" fill="#365558"/>
<rect x="50" y="235" width="412" height="265.597" fill="#E6EAEA"/>
<path d="M74.6162 275.164H148.669V293.515H74.6162V275.164Z" fill="#365558"/>
<path d="M74.6162 409.736H148.669V428.087H74.6162V409.736Z" fill="#365558"/>
<path d="M417.95 308.807H343.897V327.158H417.95V308.807Z" fill="#365558"/>
<path d="M417.95 376.093H343.897V394.444H417.95V376.093Z" fill="#365558"/>
<path d="M171.109 275.164H417.95V293.515H171.109V275.164Z" fill="#365558"/>
<path d="M171.109 409.736H417.95V428.087H171.109V409.736Z" fill="#365558"/>
<path d="M321.457 308.807H74.6162V327.158H321.457V308.807Z" fill="#365558"/>
<path d="M321.457 376.093H74.6162V394.444H321.457V376.093Z" fill="#365558"/>
<path d="M245.161 342.45H74.6162V360.801H245.161V342.45Z" fill="#365558"/>
<path d="M245.161 443.379H74.6162V461.73H245.161V443.379Z" fill="#365558"/>
<path d="M417.95 342.45H267.601V360.801H417.95V342.45Z" fill="#365558"/>
<path d="M417.95 443.379H267.601V461.73H417.95V443.379Z" fill="#365558"/>
<circle cx="324.999" cy="320.998" r="106.5" transform="rotate(-45 324.999 320.998)" stroke="#FD6A33" stroke-width="26"/>
<rect x="393.588" y="404.438" width="22" height="23" transform="rotate(-45 393.588 404.438)" fill="#FD6A33"/>
<rect x="403.487" y="427.064" width="40" height="107" transform="rotate(-45 403.487 427.064)" fill="#FD6A33"/>
<circle cx="177" cy="115" r="30" fill="#F0353D"/>
<path d="M156 115H120V229" stroke="#F0353D" stroke-width="24"/>
<circle cx="120" cy="235" r="30" fill="#F0353D"/>
</svg>
