<svg width="512" height="512" viewBox="0 0 512 512" fill="none" xmlns="http://www.w3.org/2000/svg">
<path d="M12.0594 446.85C9.31354 445.276 9.31354 442.724 12.0594 441.15L83.5282 400.181C86.2741 398.606 90.7259 398.606 93.4718 400.181L164.941 441.15C167.686 442.724 167.686 445.276 164.941 446.85L93.4718 487.819C90.7259 489.394 86.2741 489.394 83.5282 487.819L12.0594 446.85Z" fill="#E6EAEA"/>
<path d="M179.059 446.85C176.314 445.276 176.314 442.724 179.059 441.15L250.528 400.181C253.274 398.606 257.726 398.606 260.472 400.181L331.941 441.15C334.686 442.724 334.686 445.276 331.941 446.85L260.472 487.819C257.726 489.394 253.274 489.394 250.528 487.819L179.059 446.85Z" fill="#E6EAEA"/>
<path d="M346.059 446.85C343.314 445.276 343.314 442.724 346.059 441.15L417.528 400.181C420.274 398.606 424.726 398.606 427.472 400.181L498.941 441.15C501.686 442.724 501.686 445.276 498.941 446.85L427.472 487.819C424.726 489.394 420.274 489.394 417.528 487.819L346.059 446.85Z" fill="#E6EAEA"/>
<path d="M12.0594 428.382C9.31354 426.79 9.31354 424.21 12.0594 422.618L83.5282 381.194C86.2741 379.602 90.7259 379.602 93.4718 381.194L164.941 422.618C167.686 424.21 167.686 426.79 164.941 428.382L93.4718 469.806C90.7259 471.398 86.2741 471.398 83.5282 469.806L12.0594 428.382Z" fill="#CDD4D5"/>
<path d="M179.059 428.382C176.314 426.79 176.314 424.21 179.059 422.618L250.528 381.194C253.274 379.602 257.726 379.602 260.472 381.194L331.941 422.618C334.686 424.21 334.686 426.79 331.941 428.382L260.472 469.806C257.726 471.398 253.274 471.398 250.528 469.806L179.059 428.382Z" fill="#CDD4D5"/>
<path d="M346.059 428.382C343.314 426.79 343.314 424.21 346.059 422.618L417.528 381.194C420.274 379.602 424.726 379.602 427.472 381.194L498.941 422.618C501.686 424.21 501.686 426.79 498.941 428.382L427.472 469.806C424.726 471.398 420.274 471.398 417.528 469.806L346.059 428.382Z" fill="#CDD4D5"/>
<path d="M12.0594 409.85C9.31354 408.276 9.31354 405.724 12.0594 404.15L83.5282 363.181C86.2741 361.606 90.7259 361.606 93.4718 363.181L164.941 404.15C167.686 405.724 167.686 408.276 164.941 409.85L93.4718 450.819C90.7259 452.394 86.2741 452.394 83.5282 450.819L12.0594 409.85Z" fill="#9BAAAB"/>
<path d="M179.059 409.85C176.314 408.276 176.314 405.724 179.059 404.15L250.528 363.181C253.274 361.606 257.726 361.606 260.472 363.181L331.941 404.15C334.686 405.724 334.686 408.276 331.941 409.85L260.472 450.819C257.726 452.394 253.274 452.394 250.528 450.819L179.059 409.85Z" fill="#9BAAAB"/>
<path d="M346.059 409.85C343.314 408.276 343.314 405.724 346.059 404.15L417.528 363.181C420.274 361.606 424.726 361.606 427.472 363.181L498.941 404.15C501.686 405.724 501.686 408.276 498.941 409.85L427.472 450.819C424.726 452.394 420.274 452.394 417.528 450.819L346.059 409.85Z" fill="#9BAAAB"/>
<path d="M12.0594 393.85C9.31354 392.276 9.31354 389.724 12.0594 388.15L83.5282 347.181C86.2741 345.606 90.7259 345.606 93.4718 347.181L164.941 388.15C167.686 389.724 167.686 392.276 164.941 393.85L93.4718 434.819C90.7259 436.394 86.2741 436.394 83.5282 434.819L12.0594 393.85Z" fill="#E6EAEA"/>
<path d="M179.059 393.85C176.314 392.276 176.314 389.724 179.059 388.15L250.528 347.181C253.274 345.606 257.726 345.606 260.472 347.181L331.941 388.15C334.686 389.724 334.686 392.276 331.941 393.85L260.472 434.819C257.726 436.394 253.274 436.394 250.528 434.819L179.059 393.85Z" fill="#E6EAEA"/>
<path d="M346.059 393.85C343.314 392.276 343.314 389.724 346.059 388.15L417.528 347.181C420.274 345.606 424.726 345.606 427.472 347.181L498.941 388.15C501.686 389.724 501.686 392.276 498.941 393.85L427.472 434.819C424.726 436.394 420.274 436.394 417.528 434.819L346.059 393.85Z" fill="#E6EAEA"/>
<path d="M12.0594 375.382C9.31354 373.79 9.31354 371.21 12.0594 369.618L83.5282 328.194C86.2741 326.602 90.7259 326.602 93.4718 328.194L164.941 369.618C167.686 371.21 167.686 373.79 164.941 375.382L93.4718 416.806C90.7259 418.398 86.2741 418.398 83.5282 416.806L12.0594 375.382Z" fill="#CDD4D5"/>
<path d="M179.059 375.382C176.314 373.79 176.314 371.21 179.059 369.618L250.528 328.194C253.274 326.602 257.726 326.602 260.472 328.194L331.941 369.618C334.686 371.21 334.686 373.79 331.941 375.382L260.472 416.806C257.726 418.398 253.274 418.398 250.528 416.806L179.059 375.382Z" fill="#CDD4D5"/>
<path d="M346.059 375.382C343.314 373.79 343.314 371.21 346.059 369.618L417.528 328.194C420.274 326.602 424.726 326.602 427.472 328.194L498.941 369.618C501.686 371.21 501.686 373.79 498.941 375.382L427.472 416.806C424.726 418.398 420.274 418.398 417.528 416.806L346.059 375.382Z" fill="#CDD4D5"/>
<path d="M12.0594 356.85C9.31354 355.276 9.31354 352.724 12.0594 351.15L83.5282 310.181C86.2741 308.606 90.7259 308.606 93.4718 310.181L164.941 351.15C167.686 352.724 167.686 355.276 164.941 356.85L93.4718 397.819C90.7259 399.394 86.2741 399.394 83.5282 397.819L12.0594 356.85Z" fill="#9BAAAB"/>
<path d="M179.059 356.85C176.314 355.276 176.314 352.724 179.059 351.15L250.528 310.181C253.274 308.606 257.726 308.606 260.472 310.181L331.941 351.15C334.686 352.724 334.686 355.276 331.941 356.85L260.472 397.819C257.726 399.394 253.274 399.394 250.528 397.819L179.059 356.85Z" fill="#9BAAAB"/>
<path d="M346.059 356.85C343.314 355.276 343.314 352.724 346.059 351.15L417.528 310.181C420.274 308.606 424.726 308.606 427.472 310.181L498.941 351.15C501.686 352.724 501.686 355.276 498.941 356.85L427.472 397.819C424.726 399.394 420.274 399.394 417.528 397.819L346.059 356.85Z" fill="#9BAAAB"/>
<path d="M12.0594 340.85C9.31354 339.276 9.31354 336.724 12.0594 335.15L83.5282 294.181C86.2741 292.606 90.7259 292.606 93.4718 294.181L164.941 335.15C167.686 336.724 167.686 339.276 164.941 340.85L93.4718 381.819C90.7259 383.394 86.2741 383.394 83.5282 381.819L12.0594 340.85Z" fill="#E6EAEA"/>
<path d="M179.059 340.85C176.314 339.276 176.314 336.724 179.059 335.15L250.528 294.181C253.274 292.606 257.726 292.606 260.472 294.181L331.941 335.15C334.686 336.724 334.686 339.276 331.941 340.85L260.472 381.819C257.726 383.394 253.274 383.394 250.528 381.819L179.059 340.85Z" fill="#E6EAEA"/>
<path d="M346.059 340.85C343.314 339.276 343.314 336.724 346.059 335.15L417.528 294.181C420.274 292.606 424.726 292.606 427.472 294.181L498.941 335.15C501.686 336.724 501.686 339.276 498.941 340.85L427.472 381.819C424.726 383.394 420.274 383.394 417.528 381.819L346.059 340.85Z" fill="#E6EAEA"/>
<path d="M12.0594 322.382C9.31354 320.79 9.31354 318.21 12.0594 316.618L83.5282 275.194C86.2741 273.602 90.7259 273.602 93.4718 275.194L164.941 316.618C167.686 318.21 167.686 320.79 164.941 322.382L93.4718 363.806C90.7259 365.398 86.2741 365.398 83.5282 363.806L12.0594 322.382Z" fill="#CDD4D5"/>
<path d="M179.059 322.382C176.314 320.79 176.314 318.21 179.059 316.618L250.528 275.194C253.274 273.602 257.726 273.602 260.472 275.194L331.941 316.618C334.686 318.21 334.686 320.79 331.941 322.382L260.472 363.806C257.726 365.398 253.274 365.398 250.528 363.806L179.059 322.382Z" fill="#CDD4D5"/>
<path d="M346.059 322.382C343.314 320.79 343.314 318.21 346.059 316.618L417.528 275.194C420.274 273.602 424.726 273.602 427.472 275.194L498.941 316.618C501.686 318.21 501.686 320.79 498.941 322.382L427.472 363.806C424.726 365.398 420.274 365.398 417.528 363.806L346.059 322.382Z" fill="#CDD4D5"/>
<path d="M12.0594 303.85C9.31354 302.276 9.31354 299.724 12.0594 298.15L83.5282 257.181C86.2741 255.606 90.7259 255.606 93.4718 257.181L164.941 298.15C167.686 299.724 167.686 302.276 164.941 303.85L93.4718 344.819C90.7259 346.394 86.2741 346.394 83.5282 344.819L12.0594 303.85Z" fill="#9BAAAB"/>
<path d="M179.059 303.85C176.314 302.276 176.314 299.724 179.059 298.15L250.528 257.181C253.274 255.606 257.726 255.606 260.472 257.181L331.941 298.15C334.686 299.724 334.686 302.276 331.941 303.85L260.472 344.819C257.726 346.394 253.274 346.394 250.528 344.819L179.059 303.85Z" fill="#9BAAAB"/>
<path d="M346.059 303.85C343.314 302.276 343.314 299.724 346.059 298.15L417.528 257.181C420.274 255.606 424.726 255.606 427.472 257.181L498.941 298.15C501.686 299.724 501.686 302.276 498.941 303.85L427.472 344.819C424.726 346.394 420.274 346.394 417.528 344.819L346.059 303.85Z" fill="#9BAAAB"/>
<path d="M12.0594 284.85C9.31354 283.276 9.31354 280.724 12.0594 279.15L83.5282 238.181C86.2741 236.606 90.7259 236.606 93.4718 238.181L164.941 279.15C167.686 280.724 167.686 283.276 164.941 284.85L93.4718 325.819C90.7259 327.394 86.2741 327.394 83.5282 325.819L12.0594 284.85Z" fill="#E6EAEA"/>
<path d="M179.059 284.85C176.314 283.276 176.314 280.724 179.059 279.15L250.528 238.181C253.274 236.606 257.726 236.606 260.472 238.181L331.941 279.15C334.686 280.724 334.686 283.276 331.941 284.85L260.472 325.819C257.726 327.394 253.274 327.394 250.528 325.819L179.059 284.85Z" fill="#E6EAEA"/>
<path d="M346.059 284.85C343.314 283.276 343.314 280.724 346.059 279.15L417.528 238.181C420.274 236.606 424.726 236.606 427.472 238.181L498.941 279.15C501.686 280.724 501.686 283.276 498.941 284.85L427.472 325.819C424.726 327.394 420.274 327.394 417.528 325.819L346.059 284.85Z" fill="#E6EAEA"/>
<path d="M12.0594 266.382C9.31354 264.79 9.31354 262.21 12.0594 260.618L83.5282 219.194C86.2741 217.602 90.7259 217.602 93.4718 219.194L164.941 260.618C167.686 262.21 167.686 264.79 164.941 266.382L93.4718 307.806C90.7259 309.398 86.2741 309.398 83.5282 307.806L12.0594 266.382Z" fill="#CDD4D5"/>
<path d="M179.059 266.382C176.314 264.79 176.314 262.21 179.059 260.618L250.528 219.194C253.274 217.602 257.726 217.602 260.472 219.194L331.941 260.618C334.686 262.21 334.686 264.79 331.941 266.382L260.472 307.806C257.726 309.398 253.274 309.398 250.528 307.806L179.059 266.382Z" fill="#CDD4D5"/>
<path d="M346.059 266.382C343.314 264.79 343.314 262.21 346.059 260.618L417.528 219.194C420.274 217.602 424.726 217.602 427.472 219.194L498.941 260.618C501.686 262.21 501.686 264.79 498.941 266.382L427.472 307.806C424.726 309.398 420.274 309.398 417.528 307.806L346.059 266.382Z" fill="#CDD4D5"/>
<path d="M12.0594 247.85C9.31354 246.276 9.31354 243.724 12.0594 242.15L83.5282 201.181C86.2741 199.606 90.7259 199.606 93.4718 201.181L164.941 242.15C167.686 243.724 167.686 246.276 164.941 247.85L93.4718 288.819C90.7259 290.394 86.2741 290.394 83.5282 288.819L12.0594 247.85Z" fill="#9BAAAB"/>
<path d="M179.059 247.85C176.314 246.276 176.314 243.724 179.059 242.15L250.528 201.181C253.274 199.606 257.726 199.606 260.472 201.181L331.941 242.15C334.686 243.724 334.686 246.276 331.941 247.85L260.472 288.819C257.726 290.394 253.274 290.394 250.528 288.819L179.059 247.85Z" fill="#9BAAAB"/>
<path d="M346.059 247.85C343.314 246.276 343.314 243.724 346.059 242.15L417.528 201.181C420.274 199.606 424.726 199.606 427.472 201.181L498.941 242.15C501.686 243.724 501.686 246.276 498.941 247.85L427.472 288.819C424.726 290.394 420.274 290.394 417.528 288.819L346.059 247.85Z" fill="#9BAAAB"/>
<path d="M12.0594 231.85C9.31354 230.276 9.31354 227.724 12.0594 226.15L83.5282 185.181C86.2741 183.606 90.7259 183.606 93.4718 185.181L164.941 226.15C167.686 227.724 167.686 230.276 164.941 231.85L93.4718 272.819C90.7259 274.394 86.2741 274.394 83.5282 272.819L12.0594 231.85Z" fill="#E6EAEA"/>
<path d="M179.059 231.85C176.314 230.276 176.314 227.724 179.059 226.15L250.528 185.181C253.274 183.606 257.726 183.606 260.472 185.181L331.941 226.15C334.686 227.724 334.686 230.276 331.941 231.85L260.472 272.819C257.726 274.394 253.274 274.394 250.528 272.819L179.059 231.85Z" fill="#E6EAEA"/>
<path d="M346.059 231.85C343.314 230.276 343.314 227.724 346.059 226.15L417.528 185.181C420.274 183.606 424.726 183.606 427.472 185.181L498.941 226.15C501.686 227.724 501.686 230.276 498.941 231.85L427.472 272.819C424.726 274.394 420.274 274.394 417.528 272.819L346.059 231.85Z" fill="#E6EAEA"/>
<path d="M12.0594 213.382C9.31354 211.79 9.31354 209.21 12.0594 207.618L83.5282 166.194C86.2741 164.602 90.7259 164.602 93.4718 166.194L164.941 207.618C167.686 209.21 167.686 211.79 164.941 213.382L93.4718 254.806C90.7259 256.398 86.2741 256.398 83.5282 254.806L12.0594 213.382Z" fill="#CDD4D5"/>
<path d="M179.059 213.382C176.314 211.79 176.314 209.21 179.059 207.618L250.528 166.194C253.274 164.602 257.726 164.602 260.472 166.194L331.941 207.618C334.686 209.21 334.686 211.79 331.941 213.382L260.472 254.806C257.726 256.398 253.274 256.398 250.528 254.806L179.059 213.382Z" fill="#CDD4D5"/>
<path d="M346.059 213.382C343.314 211.79 343.314 209.21 346.059 207.618L417.528 166.194C420.274 164.602 424.726 164.602 427.472 166.194L498.941 207.618C501.686 209.21 501.686 211.79 498.941 213.382L427.472 254.806C424.726 256.398 420.274 256.398 417.528 254.806L346.059 213.382Z" fill="#CDD4D5"/>
<path d="M12.0594 194.85C9.31354 193.276 9.31354 190.724 12.0594 189.15L83.5282 148.181C86.2741 146.606 90.7259 146.606 93.4718 148.181L164.941 189.15C167.686 190.724 167.686 193.276 164.941 194.85L93.4718 235.819C90.7259 237.394 86.2741 237.394 83.5282 235.819L12.0594 194.85Z" fill="#9BAAAB"/>
<path d="M179.059 194.85C176.314 193.276 176.314 190.724 179.059 189.15L250.528 148.181C253.274 146.606 257.726 146.606 260.472 148.181L331.941 189.15C334.686 190.724 334.686 193.276 331.941 194.85L260.472 235.819C257.726 237.394 253.274 237.394 250.528 235.819L179.059 194.85Z" fill="#9BAAAB"/>
<path d="M346.059 194.85C343.314 193.276 343.314 190.724 346.059 189.15L417.528 148.181C420.274 146.606 424.726 146.606 427.472 148.181L498.941 189.15C501.686 190.724 501.686 193.276 498.941 194.85L427.472 235.819C424.726 237.394 420.274 237.394 417.528 235.819L346.059 194.85Z" fill="#9BAAAB"/>
<path d="M12.0594 178.85C9.31354 177.276 9.31354 174.724 12.0594 173.15L83.5282 132.181C86.2741 130.606 90.7259 130.606 93.4718 132.181L164.941 173.15C167.686 174.724 167.686 177.276 164.941 178.85L93.4718 219.819C90.7259 221.394 86.2741 221.394 83.5282 219.819L12.0594 178.85Z" fill="#E6EAEA"/>
<path d="M179.059 178.85C176.314 177.276 176.314 174.724 179.059 173.15L250.528 132.181C253.274 130.606 257.726 130.606 260.472 132.181L331.941 173.15C334.686 174.724 334.686 177.276 331.941 178.85L260.472 219.819C257.726 221.394 253.274 221.394 250.528 219.819L179.059 178.85Z" fill="#E6EAEA"/>
<path d="M346.059 178.85C343.314 177.276 343.314 174.724 346.059 173.15L417.528 132.181C420.274 130.606 424.726 130.606 427.472 132.181L498.941 173.15C501.686 174.724 501.686 177.276 498.941 178.85L427.472 219.819C424.726 221.394 420.274 221.394 417.528 219.819L346.059 178.85Z" fill="#E6EAEA"/>
<path d="M12.0594 160.382C9.31354 158.79 9.31354 156.21 12.0594 154.618L83.5282 113.194C86.2741 111.602 90.7259 111.602 93.4718 113.194L164.941 154.618C167.686 156.21 167.686 158.79 164.941 160.382L93.4718 201.806C90.7259 203.398 86.2741 203.398 83.5282 201.806L12.0594 160.382Z" fill="#CDD4D5"/>
<path d="M179.059 160.382C176.314 158.79 176.314 156.21 179.059 154.618L250.528 113.194C253.274 111.602 257.726 111.602 260.472 113.194L331.941 154.618C334.686 156.21 334.686 158.79 331.941 160.382L260.472 201.806C257.726 203.398 253.274 203.398 250.528 201.806L179.059 160.382Z" fill="#CDD4D5"/>
<path d="M346.059 160.382C343.314 158.79 343.314 156.21 346.059 154.618L417.528 113.194C420.274 111.602 424.726 111.602 427.472 113.194L498.941 154.618C501.686 156.21 501.686 158.79 498.941 160.382L427.472 201.806C424.726 203.398 420.274 203.398 417.528 201.806L346.059 160.382Z" fill="#CDD4D5"/>
<path d="M12.0594 141.85C9.31354 140.276 9.31354 137.724 12.0594 136.15L83.5282 95.1805C86.2741 93.6065 90.7259 93.6065 93.4718 95.1805L164.941 136.15C167.686 137.724 167.686 140.276 164.941 141.85L93.4718 182.819C90.7259 184.394 86.2741 184.394 83.5282 182.819L12.0594 141.85Z" fill="#9BAAAB"/>
<path d="M179.059 141.85C176.314 140.276 176.314 137.724 179.059 136.15L250.528 95.1805C253.274 93.6065 257.726 93.6065 260.472 95.1805L331.941 136.15C334.686 137.724 334.686 140.276 331.941 141.85L260.472 182.819C257.726 184.394 253.274 184.394 250.528 182.819L179.059 141.85Z" fill="#9BAAAB"/>
<path d="M346.059 141.85C343.314 140.276 343.314 137.724 346.059 136.15L417.528 95.1805C420.274 93.6065 424.726 93.6065 427.472 95.1805L498.941 136.15C501.686 137.724 501.686 140.276 498.941 141.85L427.472 182.819C424.726 184.394 420.274 184.394 417.528 182.819L346.059 141.85Z" fill="#9BAAAB"/>
<path d="M26.1406 134V31.625H57.6406C66.6406 31.625 74.6797 33.6641 81.7578 37.7422C88.8828 41.7734 94.4375 47.5391 98.4219 55.0391C102.406 62.4922 104.398 70.9766 104.398 80.4922V85.2031C104.398 94.7188 102.43 103.18 98.4922 110.586C94.6016 117.992 89.0938 123.734 81.9688 127.812C74.8438 131.891 66.8047 133.953 57.8516 134H26.1406ZM47.2344 48.7109V117.055H57.4297C65.6797 117.055 71.9844 114.359 76.3438 108.969C80.7031 103.578 82.9297 95.8672 83.0234 85.8359V80.4219C83.0234 70.0156 80.8672 62.1406 76.5547 56.7969C72.2422 51.4062 65.9375 48.7109 57.6406 48.7109H47.2344ZM153.477 135.406C142.32 135.406 133.227 131.984 126.195 125.141C119.211 118.297 115.719 109.18 115.719 97.7891V95.8203C115.719 88.1797 117.195 81.3594 120.148 75.3594C123.102 69.3125 127.273 64.6719 132.664 61.4375C138.102 58.1562 144.289 56.5156 151.227 56.5156C161.633 56.5156 169.812 59.7969 175.766 66.3594C181.766 72.9219 184.766 82.2266 184.766 94.2734V102.57H136.32C136.977 107.539 138.945 111.523 142.227 114.523C145.555 117.523 149.75 119.023 154.812 119.023C162.641 119.023 168.758 116.188 173.164 110.516L183.148 121.695C180.102 126.008 175.977 129.383 170.773 131.82C165.57 134.211 159.805 135.406 153.477 135.406ZM151.156 72.9688C147.125 72.9688 143.844 74.3281 141.312 77.0469C138.828 79.7656 137.234 83.6562 136.531 88.7188H164.797V87.1016C164.703 82.6016 163.484 79.1328 161.141 76.6953C158.797 74.2109 155.469 72.9688 151.156 72.9688ZM215.07 57.9219L215.703 66.7109C221.141 59.9141 228.43 56.5156 237.57 56.5156C245.633 56.5156 251.633 58.8828 255.57 63.6172C259.508 68.3516 261.523 75.4297 261.617 84.8516V134H241.297V85.3438C241.297 81.0312 240.359 77.9141 238.484 75.9922C236.609 74.0234 233.492 73.0391 229.133 73.0391C223.414 73.0391 219.125 75.4766 216.266 80.3516V134H195.945V57.9219H215.07ZM318.289 112.977C318.289 110.492 317.047 108.547 314.562 107.141C312.125 105.688 308.188 104.398 302.75 103.273C284.656 99.4766 275.609 91.7891 275.609 80.2109C275.609 73.4609 278.398 67.8359 283.977 63.3359C289.602 58.7891 296.938 56.5156 305.984 56.5156C315.641 56.5156 323.352 58.7891 329.117 63.3359C334.93 67.8828 337.836 73.7891 337.836 81.0547H317.516C317.516 78.1484 316.578 75.7578 314.703 73.8828C312.828 71.9609 309.898 71 305.914 71C302.492 71 299.844 71.7734 297.969 73.3203C296.094 74.8672 295.156 76.8359 295.156 79.2266C295.156 81.4766 296.211 83.3047 298.32 84.7109C300.477 86.0703 304.086 87.2656 309.148 88.2969C314.211 89.2812 318.477 90.4062 321.945 91.6719C332.68 95.6094 338.047 102.43 338.047 112.133C338.047 119.07 335.07 124.695 329.117 129.008C323.164 133.273 315.477 135.406 306.055 135.406C299.68 135.406 294.008 134.281 289.039 132.031C284.117 129.734 280.25 126.617 277.438 122.68C274.625 118.695 273.219 114.406 273.219 109.812H292.484C292.672 113.422 294.008 116.188 296.492 118.109C298.977 120.031 302.305 120.992 306.477 120.992C310.367 120.992 313.297 120.266 315.266 118.812C317.281 117.312 318.289 115.367 318.289 112.977ZM386.211 135.406C375.055 135.406 365.961 131.984 358.93 125.141C351.945 118.297 348.453 109.18 348.453 97.7891V95.8203C348.453 88.1797 349.93 81.3594 352.883 75.3594C355.836 69.3125 360.008 64.6719 365.398 61.4375C370.836 58.1562 377.023 56.5156 383.961 56.5156C394.367 56.5156 402.547 59.7969 408.5 66.3594C414.5 72.9219 417.5 82.2266 417.5 94.2734V102.57H369.055C369.711 107.539 371.68 111.523 374.961 114.523C378.289 117.523 382.484 119.023 387.547 119.023C395.375 119.023 401.492 116.188 405.898 110.516L415.883 121.695C412.836 126.008 408.711 129.383 403.508 131.82C398.305 134.211 392.539 135.406 386.211 135.406ZM383.891 72.9688C379.859 72.9688 376.578 74.3281 374.047 77.0469C371.562 79.7656 369.969 83.6562 369.266 88.7188H397.531V87.1016C397.438 82.6016 396.219 79.1328 393.875 76.6953C391.531 74.2109 388.203 72.9688 383.891 72.9688Z" fill="#BCD643"/>
</svg>
