<svg width="512" height="512" viewBox="0 0 512 512" fill="none" xmlns="http://www.w3.org/2000/svg">
<path d="M268 317L247.083 317L247.083 255.573C224.626 249.987 208 229.885 208 205.942L208 176L228.917 176L228.917 201.845C228.917 211.294 232.75 219.859 238.961 226.101C244.705 231.874 253.251 233.162 261.394 233.162C265.043 233.162 268 236.087 268 239.695L268 317Z" fill="#FD6A33"/>
<path d="M424 318L403.083 318L403.083 256.573C380.626 250.987 364 230.885 364 206.942L364 177L384.917 177L384.917 202.845C384.917 212.294 388.75 220.859 394.961 227.101C400.705 232.874 409.251 234.162 417.394 234.162C421.043 234.162 424 237.087 424 240.695L424 318Z" fill="#FF8C29"/>
<path d="M87 318L107.917 318L107.917 256.573C130.374 250.987 147 230.885 147 206.942L147 177L126.083 177L126.083 202.845C126.083 212.294 122.25 220.859 116.039 227.101C110.295 232.874 101.749 234.162 93.6055 234.162C89.9574 234.162 87 237.087 87 240.695L87 318Z" fill="#FD6A33"/>
<rect x="36.0005" y="342.316" width="117.267" height="126.795" fill="#CDD4D5"/>
<ellipse cx="94.634" cy="468.012" rx="58.6335" ry="31.1491" fill="#CDD4D5"/>
<rect x="36.0005" y="342.316" width="58.6335" height="126.795" fill="#9BAAAB"/>
<path fill-rule="evenodd" clip-rule="evenodd" d="M36.0005 468.091V467.933C36.0807 450.767 62.301 436.863 94.6338 436.863C94.6339 436.863 94.634 436.863 94.634 436.863V499.161C94.634 499.161 94.6339 499.161 94.6338 499.161C62.301 499.161 36.0807 485.258 36.0005 468.091Z" fill="#9BAAAB"/>
<ellipse cx="94.634" cy="344.149" rx="58.6335" ry="31.1491" fill="#4ACFD9"/>
<path fill-rule="evenodd" clip-rule="evenodd" d="M153.011 377.496C150.23 393.324 125.155 405.713 94.634 405.713C64.1126 405.713 39.038 393.324 36.2568 377.496C36.0872 378.461 36.0005 379.439 36.0005 380.428C36.0005 397.631 62.2516 411.577 94.634 411.577C127.016 411.577 153.268 397.631 153.268 380.428C153.268 379.439 153.181 378.461 153.011 377.496Z" fill="#E6EAEA"/>
<path fill-rule="evenodd" clip-rule="evenodd" d="M153.011 371.633C150.23 387.461 125.155 399.85 94.634 399.85C64.1126 399.85 39.038 387.461 36.2568 371.633C36.0872 372.598 36.0005 373.576 36.0005 374.564C36.0005 391.768 62.2516 405.714 94.634 405.714C127.016 405.714 153.268 391.768 153.268 374.564C153.268 373.576 153.181 372.598 153.011 371.633Z" fill="#0295AA"/>
<path fill-rule="evenodd" clip-rule="evenodd" d="M153.011 425.137C150.23 440.965 125.155 453.354 94.634 453.354C64.1126 453.354 39.038 440.965 36.2568 425.137C36.0872 426.102 36.0005 427.08 36.0005 428.068C36.0005 445.272 62.2516 459.217 94.634 459.217C127.016 459.217 153.268 445.272 153.268 428.068C153.268 427.08 153.181 426.102 153.011 425.137Z" fill="#E6EAEA"/>
<path fill-rule="evenodd" clip-rule="evenodd" d="M36.0005 344.228V344.07C36.0807 326.903 62.301 313 94.6338 313C94.6339 313 94.634 313 94.634 313V375.298C94.634 375.298 94.6339 375.298 94.6338 375.298C62.301 375.298 36.0807 361.395 36.0005 344.228Z" fill="#365558"/>
<path fill-rule="evenodd" clip-rule="evenodd" d="M94.6338 411.577C94.6337 411.577 94.6336 411.577 94.6335 411.577C62.2511 411.577 36 397.631 36 380.428C36 379.439 36.0867 378.461 36.2563 377.496C39.0375 393.324 64.1121 405.713 94.6335 405.713C94.6336 405.713 94.6337 405.713 94.6338 405.713V411.577Z" fill="#CDD4D5"/>
<path fill-rule="evenodd" clip-rule="evenodd" d="M94.6338 459.217C94.6337 459.217 94.6336 459.217 94.6335 459.217C62.2511 459.217 36 445.272 36 428.068C36 427.08 36.0867 426.102 36.2563 425.137C39.0375 440.965 64.1121 453.354 94.6335 453.354C94.6336 453.354 94.6337 453.354 94.6338 453.354V459.217Z" fill="#CDD4D5"/>
<path fill-rule="evenodd" clip-rule="evenodd" d="M94.6338 405.714C94.6337 405.714 94.6336 405.714 94.6335 405.714C62.2511 405.714 36 391.768 36 374.564C36 373.576 36.0867 372.598 36.2563 371.633C39.0375 387.461 64.1121 399.85 94.6335 399.85C94.6336 399.85 94.6337 399.85 94.6338 399.85V405.714Z" fill="#365558"/>
<path fill-rule="evenodd" clip-rule="evenodd" d="M153.744 420.006C150.963 435.834 125.888 448.223 95.3669 448.223C64.8455 448.223 39.7709 435.834 36.9897 420.006C36.8201 420.971 36.7334 421.949 36.7334 422.938C36.7334 440.141 62.9845 454.087 95.3669 454.087C127.749 454.087 154 440.141 154 422.938C154 421.949 153.914 420.971 153.744 420.006Z" fill="#0295AA"/>
<path fill-rule="evenodd" clip-rule="evenodd" d="M94.6338 454.087C94.6337 454.087 94.6336 454.087 94.6335 454.087C62.2511 454.087 36 440.141 36 422.938C36 421.949 36.0867 420.971 36.2563 420.006C39.0375 435.834 64.1121 448.223 94.6335 448.223C94.6336 448.223 94.6337 448.223 94.6338 448.223V454.087Z" fill="#365558"/>
<rect x="197" y="342.316" width="117.267" height="126.795" fill="#CDD4D5"/>
<ellipse cx="255.634" cy="468.012" rx="58.6335" ry="31.1491" fill="#CDD4D5"/>
<rect x="197" y="342.316" width="58.6335" height="126.795" fill="#9BAAAB"/>
<path fill-rule="evenodd" clip-rule="evenodd" d="M197 468.091V467.933C197.081 450.767 223.301 436.863 255.634 436.863C255.634 436.863 255.634 436.863 255.634 436.863V499.161C255.634 499.161 255.634 499.161 255.634 499.161C223.301 499.161 197.081 485.258 197 468.091Z" fill="#9BAAAB"/>
<ellipse cx="255.634" cy="344.149" rx="58.6335" ry="31.1491" fill="#4ACFD9"/>
<path fill-rule="evenodd" clip-rule="evenodd" d="M314.011 377.496C311.23 393.324 286.155 405.713 255.634 405.713C225.113 405.713 200.038 393.324 197.257 377.496C197.087 378.461 197 379.439 197 380.428C197 397.631 223.252 411.577 255.634 411.577C288.016 411.577 314.268 397.631 314.268 380.428C314.268 379.439 314.181 378.461 314.011 377.496Z" fill="#E6EAEA"/>
<path fill-rule="evenodd" clip-rule="evenodd" d="M314.011 371.633C311.23 387.461 286.155 399.85 255.634 399.85C225.113 399.85 200.038 387.461 197.257 371.633C197.087 372.598 197 373.576 197 374.564C197 391.768 223.252 405.714 255.634 405.714C288.016 405.714 314.268 391.768 314.268 374.564C314.268 373.576 314.181 372.598 314.011 371.633Z" fill="#0295AA"/>
<path fill-rule="evenodd" clip-rule="evenodd" d="M314.011 425.137C311.23 440.965 286.155 453.354 255.634 453.354C225.113 453.354 200.038 440.965 197.257 425.137C197.087 426.102 197 427.08 197 428.068C197 445.272 223.252 459.217 255.634 459.217C288.016 459.217 314.268 445.272 314.268 428.068C314.268 427.08 314.181 426.102 314.011 425.137Z" fill="#E6EAEA"/>
<path fill-rule="evenodd" clip-rule="evenodd" d="M197 344.228V344.07C197.081 326.903 223.301 313 255.634 313C255.634 313 255.634 313 255.634 313V375.298C255.634 375.298 255.634 375.298 255.634 375.298C223.301 375.298 197.081 361.395 197 344.228Z" fill="#365558"/>
<path fill-rule="evenodd" clip-rule="evenodd" d="M255.634 411.577C255.634 411.577 255.634 411.577 255.634 411.577C223.251 411.577 197 397.631 197 380.428C197 379.439 197.087 378.461 197.256 377.496C200.038 393.324 225.112 405.713 255.634 405.713C255.634 405.713 255.634 405.713 255.634 405.713V411.577Z" fill="#CDD4D5"/>
<path fill-rule="evenodd" clip-rule="evenodd" d="M255.634 459.217C255.634 459.217 255.634 459.217 255.634 459.217C223.251 459.217 197 445.272 197 428.068C197 427.08 197.087 426.102 197.256 425.137C200.038 440.965 225.112 453.354 255.634 453.354C255.634 453.354 255.634 453.354 255.634 453.354V459.217Z" fill="#CDD4D5"/>
<path fill-rule="evenodd" clip-rule="evenodd" d="M255.634 405.714C255.634 405.714 255.634 405.714 255.634 405.714C223.251 405.714 197 391.768 197 374.564C197 373.576 197.087 372.598 197.256 371.633C200.038 387.461 225.112 399.85 255.634 399.85C255.634 399.85 255.634 399.85 255.634 399.85V405.714Z" fill="#365558"/>
<path fill-rule="evenodd" clip-rule="evenodd" d="M314.744 420.006C311.963 435.834 286.888 448.223 256.367 448.223C225.846 448.223 200.771 435.834 197.99 420.006C197.82 420.971 197.733 421.949 197.733 422.938C197.733 440.141 223.985 454.087 256.367 454.087C288.749 454.087 315 440.141 315 422.938C315 421.949 314.914 420.971 314.744 420.006Z" fill="#0295AA"/>
<path fill-rule="evenodd" clip-rule="evenodd" d="M255.634 454.087C255.634 454.087 255.634 454.087 255.634 454.087C223.251 454.087 197 440.141 197 422.938C197 421.949 197.087 420.971 197.256 420.006C200.038 435.834 225.112 448.223 255.634 448.223C255.634 448.223 255.634 448.223 255.634 448.223V454.087Z" fill="#365558"/>
<rect x="358" y="342.316" width="117.267" height="126.795" fill="#CDD4D5"/>
<ellipse cx="416.634" cy="468.012" rx="58.6335" ry="31.1491" fill="#CDD4D5"/>
<rect x="358" y="342.316" width="58.6335" height="126.795" fill="#9BAAAB"/>
<path fill-rule="evenodd" clip-rule="evenodd" d="M358 468.091V467.933C358.081 450.767 384.301 436.863 416.634 436.863C416.634 436.863 416.634 436.863 416.634 436.863V499.161C416.634 499.161 416.634 499.161 416.634 499.161C384.301 499.161 358.081 485.258 358 468.091Z" fill="#9BAAAB"/>
<ellipse cx="416.634" cy="344.149" rx="58.6335" ry="31.1491" fill="#4ACFD9"/>
<path fill-rule="evenodd" clip-rule="evenodd" d="M475.011 377.496C472.23 393.324 447.155 405.713 416.634 405.713C386.113 405.713 361.038 393.324 358.257 377.496C358.087 378.461 358 379.439 358 380.428C358 397.631 384.252 411.577 416.634 411.577C449.016 411.577 475.268 397.631 475.268 380.428C475.268 379.439 475.181 378.461 475.011 377.496Z" fill="#E6EAEA"/>
<path fill-rule="evenodd" clip-rule="evenodd" d="M475.011 371.633C472.23 387.461 447.155 399.85 416.634 399.85C386.113 399.85 361.038 387.461 358.257 371.633C358.087 372.598 358 373.576 358 374.564C358 391.768 384.252 405.714 416.634 405.714C449.016 405.714 475.268 391.768 475.268 374.564C475.268 373.576 475.181 372.598 475.011 371.633Z" fill="#0295AA"/>
<path fill-rule="evenodd" clip-rule="evenodd" d="M475.011 425.137C472.23 440.965 447.155 453.354 416.634 453.354C386.113 453.354 361.038 440.965 358.257 425.137C358.087 426.102 358 427.08 358 428.068C358 445.272 384.252 459.217 416.634 459.217C449.016 459.217 475.268 445.272 475.268 428.068C475.268 427.08 475.181 426.102 475.011 425.137Z" fill="#E6EAEA"/>
<path fill-rule="evenodd" clip-rule="evenodd" d="M358 344.228V344.07C358.081 326.903 384.301 313 416.634 313C416.634 313 416.634 313 416.634 313V375.298C416.634 375.298 416.634 375.298 416.634 375.298C384.301 375.298 358.081 361.395 358 344.228Z" fill="#365558"/>
<path fill-rule="evenodd" clip-rule="evenodd" d="M416.634 411.577C416.634 411.577 416.634 411.577 416.634 411.577C384.251 411.577 358 397.631 358 380.428C358 379.439 358.087 378.461 358.256 377.496C361.038 393.324 386.112 405.713 416.634 405.713C416.634 405.713 416.634 405.713 416.634 405.713V411.577Z" fill="#CDD4D5"/>
<path fill-rule="evenodd" clip-rule="evenodd" d="M416.634 459.217C416.634 459.217 416.634 459.217 416.634 459.217C384.251 459.217 358 445.272 358 428.068C358 427.08 358.087 426.102 358.256 425.137C361.038 440.965 386.112 453.354 416.634 453.354C416.634 453.354 416.634 453.354 416.634 453.354V459.217Z" fill="#CDD4D5"/>
<path fill-rule="evenodd" clip-rule="evenodd" d="M416.634 405.714C416.634 405.714 416.634 405.714 416.634 405.714C384.251 405.714 358 391.768 358 374.564C358 373.576 358.087 372.598 358.256 371.633C361.038 387.461 386.112 399.85 416.634 399.85C416.634 399.85 416.634 399.85 416.634 399.85V405.714Z" fill="#365558"/>
<path fill-rule="evenodd" clip-rule="evenodd" d="M475.744 420.006C472.963 435.834 447.888 448.223 417.367 448.223C386.846 448.223 361.771 435.834 358.99 420.006C358.82 420.971 358.733 421.949 358.733 422.938C358.733 440.141 384.985 454.087 417.367 454.087C449.749 454.087 476 440.141 476 422.938C476 421.949 475.914 420.971 475.744 420.006Z" fill="#0295AA"/>
<path fill-rule="evenodd" clip-rule="evenodd" d="M416.634 454.087C416.634 454.087 416.634 454.087 416.634 454.087C384.251 454.087 358 440.141 358 422.938C358 421.949 358.087 420.971 358.256 420.006C361.038 435.834 386.112 448.223 416.634 448.223C416.634 448.223 416.634 448.223 416.634 448.223V454.087Z" fill="#365558"/>
<path d="M43.7321 148.98C36.0893 144.573 36.0893 137.427 43.7321 133.02L242.661 18.3055C250.304 13.8982 262.696 13.8982 270.339 18.3055L469.268 133.02C476.911 137.427 476.911 144.573 469.268 148.98L270.339 263.695C262.696 268.102 250.304 268.102 242.661 263.695L43.7321 148.98Z" fill="#365558"/>
<path d="M43.7321 139.98C36.0893 135.573 36.0893 128.427 43.7321 124.02L242.661 9.30549C250.304 4.89817 262.696 4.89817 270.339 9.3055L469.268 124.02C476.911 128.427 476.911 135.573 469.268 139.98L270.339 254.695C262.696 259.102 250.304 259.102 242.661 254.695L43.7321 139.98Z" fill="#FFD1A9"/>
<path fill-rule="evenodd" clip-rule="evenodd" d="M256.598 6.06929C251.45 6.0023 246.266 7.10265 242.338 9.37034L43.7231 124.031C36.0923 128.436 36.0923 135.578 43.7231 139.984L242.338 254.644C246.266 256.912 251.45 258.012 256.598 257.945V6.06929Z" fill="#FF8C29"/>
</svg>
