<svg width="512" height="512" viewBox="0 0 512 512" fill="none" xmlns="http://www.w3.org/2000/svg">
<path fill-rule="evenodd" clip-rule="evenodd" d="M256 68C262.627 68 268 73.3726 268 80L268 264C268 270.627 262.627 276 256 276C249.373 276 244 270.627 244 264L244 80C244 73.3726 249.373 68 256 68Z" fill="#BCD643"/>
<path fill-rule="evenodd" clip-rule="evenodd" d="M134.998 359.327C130.95 354.08 131.923 346.544 137.171 342.497L213.671 283.497C218.919 279.45 226.455 280.423 230.502 285.671C234.549 290.919 233.576 298.454 228.328 302.502L151.828 361.501C146.58 365.549 139.045 364.575 134.998 359.327Z" fill="#F0353D"/>
<path fill-rule="evenodd" clip-rule="evenodd" d="M198 212C189.163 212 182 219.163 182 228V284C182 292.837 189.163 300 198 300H314C322.837 300 330 292.837 330 284V228C330 219.163 322.837 212 314 212H198ZM277 281H235V291H277V281Z" fill="#365558"/>
<path fill-rule="evenodd" clip-rule="evenodd" d="M256 212H314C322.837 212 330 219.163 330 228V284C330 292.837 322.837 300 314 300H256V291H277V281H256V212Z" fill="#0295AA"/>
<path d="M240 472.5L256 460.784V490L240 472.5ZM160.5 454L226.5 439L213 505L160.5 454ZM155.062 434.227L140.638 459.645L121.5 429L155.062 434.227ZM77.5 380.5L107.665 397.298L86.4831 417.457L77.5 380.5ZM73.054 348.216L46.9272 361.363L48 325.5L73.054 348.216ZM37 262.029L54.2123 291.245L25.3938 296.212C25.3938 296.212 36.9707 262.029 37 262.029ZM52.7495 231.265L23.6969 227.671L45.5 198L52.7495 231.265ZM70 140L68.7532 173.389L42.012 161.556L70 140ZM111.176 111.656C107.607 115.22 104.184 118.901 100.936 122.699L78.7592 103.621C82.5148 99.2729 86.4281 95.063 90.4914 91L111.176 111.656Z" fill="#F0353D"/>
<path d="M255.65 460.754C289.357 460.751 322.544 452.446 352.271 436.575C381.997 420.703 407.346 397.754 426.071 369.761C444.797 341.768 456.322 309.594 459.625 276.09C462.928 242.586 457.907 208.786 445.008 177.683C432.108 146.579 411.728 119.133 385.672 97.7758C359.615 76.4181 328.688 61.808 295.628 55.2394C262.569 48.6708 228.397 50.3465 196.141 60.1181C163.884 69.8897 134.539 87.4556 110.703 111.26L90 90.5827C117.24 63.3608 150.783 43.27 187.655 32.0901C224.528 20.9103 263.592 18.9867 301.387 26.4898C339.182 33.993 374.54 50.6911 404.33 75.1047C434.119 99.5184 457.419 130.894 472.165 166.451C486.912 202.008 492.65 240.649 488.87 278.951C485.091 317.252 471.911 354.031 450.498 386.029C429.086 418.027 400.102 444.255 366.114 462.391C332.126 480.527 294.184 490.01 255.65 490V460.754Z" fill="#BCD643"/>
<ellipse cx="218.5" cy="252" rx="18.5" ry="19" fill="#F0353D"/>
<ellipse cx="293.5" cy="252" rx="18.5" ry="19" fill="#F0353D"/>
</svg>
