<svg width="512" height="512" viewBox="0 0 512 512" fill="none" xmlns="http://www.w3.org/2000/svg">
<path d="M101.966 80H10V150H168V80H150.034L126 122L101.966 80Z" fill="#365558"/>
<path d="M101.966 252H10V322H168V252H150.034L126 294L101.966 252Z" fill="#365558"/>
<path d="M101.966 424H10V494H168V424H150.034L126 466L101.966 424Z" fill="#365558"/>
<rect x="10" y="152" width="158" height="9" fill="#CDD4D5"/>
<rect x="10" y="324" width="158" height="9" fill="#CDD4D5"/>
<rect x="10" y="496" width="158" height="9" fill="#CDD4D5"/>
<path d="M245.859 113.594H183V97H245.859V113.594ZM245.859 144.039H183V127.445H245.859V144.039Z" fill="#0295AA"/>
<path d="M245.859 285.594H183V269H245.859V285.594ZM245.859 316.039H183V299.445H245.859V316.039Z" fill="#0295AA"/>
<path d="M245.859 457.594H183V441H245.859V457.594ZM245.859 488.039H183V471.445H245.859V488.039Z" fill="#0295AA"/>
<path d="M115.167 62.753L115.167 6L136.833 6.00001L136.833 62.7531L152 62.7531L126 108L100 62.753L115.167 62.753Z" fill="#0295AA"/>
<path d="M115.167 234.753L115.167 178L136.833 178L136.833 234.753L152 234.753L126 280L100 234.753L115.167 234.753Z" fill="#0295AA"/>
<path d="M115.167 406.753L115.167 350L136.833 350L136.833 406.753L152 406.753L126 452L100 406.753L115.167 406.753Z" fill="#0295AA"/>
<path d="M135 28V6H10V28H135Z" fill="#0295AA"/>
<path d="M135 200V178H10V200H135Z" fill="#0295AA"/>
<path d="M135 372V350H10V372H135Z" fill="#0295AA"/>
<path fill-rule="evenodd" clip-rule="evenodd" d="M261.833 318.44L301.797 259.808L355.827 296.635L440.577 172.294L417.964 156.801L483.055 126.999L478.766 198.459L457.706 184.03L361.29 325.486L307.26 288.659L261.886 355.229H261.833V318.44Z" fill="#FF8C29"/>
<rect x="479" y="211" width="23" height="174" fill="#FF8C29"/>
<rect x="443" y="227" width="23" height="158" fill="#FF8C29"/>
<rect x="407" y="282" width="23" height="103" fill="#FF8C29"/>
<rect x="371" y="330" width="22" height="55" fill="#FF8C29"/>
<rect x="334" y="338" width="23" height="47" fill="#FF8C29"/>
<rect x="297" y="317" width="24" height="68" fill="#FF8C29"/>
<rect x="262" y="359" width="23" height="26" fill="#FF8C29"/>
</svg>
