<svg width="512" height="512" viewBox="0 0 512 512" fill="none" xmlns="http://www.w3.org/2000/svg">
<path d="M16.8233 323.192C8.21384 318.222 8.21385 310.164 16.8233 305.193L240.911 175.827C249.521 170.857 263.479 170.857 272.089 175.827L496.177 305.193C504.786 310.164 504.786 318.222 496.177 323.192L272.089 452.558C263.479 457.528 249.521 457.528 240.911 452.558L16.8233 323.192Z" fill="#365558"/>
<path d="M16.8233 265.815C8.21384 260.845 8.21385 252.787 16.8233 247.816L240.911 118.45C249.521 113.48 263.479 113.48 272.089 118.45L496.177 247.816C504.786 252.787 504.786 260.845 496.177 265.815L272.089 395.181C263.479 400.151 249.521 400.151 240.911 395.181L16.8233 265.815Z" fill="#0295AA"/>
<path fill-rule="evenodd" clip-rule="evenodd" d="M16.8233 190.441C8.21385 195.411 8.21384 203.469 16.8233 208.44L240.911 337.806C249.521 342.776 263.479 342.776 272.089 337.806L496.177 208.44C504.786 203.469 504.786 195.411 496.177 190.441L272.089 61.0747C263.479 56.1045 249.521 56.1045 240.911 61.0747L179.719 96.4011L214.35 116.394L274.058 81.9239L288.157 216.868L54.4063 208.729L120.979 170.297L86.3477 150.304L16.8233 190.441ZM169.718 102.174L96.3484 144.531L140.98 170.297L89.6164 199.949L277.017 206.474L265.714 98.2881L214.35 127.94L169.718 102.174Z" fill="#4ACFD9"/>
<path d="M48.5703 477H27.4766V374.625H48.5703V477ZM85.5547 400.922L86.1875 409.711C91.625 402.914 98.9141 399.516 108.055 399.516C116.117 399.516 122.117 401.883 126.055 406.617C129.992 411.352 132.008 418.43 132.102 427.852V477H111.781V428.344C111.781 424.031 110.844 420.914 108.969 418.992C107.094 417.023 103.977 416.039 99.6172 416.039C93.8984 416.039 89.6094 418.477 86.75 423.352V477H66.4297V400.922H85.5547ZM216.055 439.664C216.055 451.383 213.383 460.781 208.039 467.859C202.742 474.891 195.57 478.406 186.523 478.406C178.836 478.406 172.625 475.734 167.891 470.391V506.25H147.57V400.922H166.414L167.117 408.375C172.039 402.469 178.461 399.516 186.383 399.516C195.758 399.516 203.047 402.984 208.25 409.922C213.453 416.859 216.055 426.422 216.055 438.609V439.664ZM195.734 438.188C195.734 431.109 194.469 425.648 191.938 421.805C189.453 417.961 185.82 416.039 181.039 416.039C174.664 416.039 170.281 418.477 167.891 423.352V454.5C170.375 459.516 174.805 462.023 181.18 462.023C190.883 462.023 195.734 454.078 195.734 438.188ZM274.273 469.266C269.258 475.359 262.32 478.406 253.461 478.406C245.305 478.406 239.07 476.062 234.758 471.375C230.492 466.688 228.312 459.82 228.219 450.773V400.922H248.539V450.07C248.539 457.992 252.148 461.953 259.367 461.953C266.258 461.953 270.992 459.562 273.57 454.781V400.922H293.961V477H274.836L274.273 469.266ZM333.617 382.219V400.922H346.625V415.828H333.617V453.797C333.617 456.609 334.156 458.625 335.234 459.844C336.312 461.062 338.375 461.672 341.422 461.672C343.672 461.672 345.664 461.508 347.398 461.18V476.578C343.414 477.797 339.312 478.406 335.094 478.406C320.844 478.406 313.578 471.211 313.297 456.82V415.828H302.188V400.922H313.297V382.219H333.617Z" fill="#BCD643"/>
<path d="M214.35 127.941L89.7331 56L16.3633 98.3564L140.98 170.297L89.6161 199.95L277.016 206.475L265.713 98.2888L214.35 127.941Z" fill="#BCD643"/>
</svg>
