<svg width="512" height="512" viewBox="0 0 512 512" fill="none" xmlns="http://www.w3.org/2000/svg">
<rect x="47.4233" y="346.828" width="81.2932" height="87.8983" fill="#CDD4D5"/>
<ellipse cx="88.0699" cy="433.965" rx="40.6466" ry="21.5935" fill="#CDD4D5"/>
<rect x="47.4233" y="346.828" width="40.6466" height="87.8983" fill="#9BAAAB"/>
<path fill-rule="evenodd" clip-rule="evenodd" d="M47.4224 434.133V433.796C47.5928 421.948 65.7251 412.371 88.0678 412.371C88.0682 412.371 88.0686 412.371 88.069 412.371V455.558C88.0686 455.558 88.0682 455.558 88.0678 455.558C65.7251 455.558 47.5928 445.981 47.4224 434.133Z" fill="#9BAAAB"/>
<ellipse cx="88.0695" cy="348.097" rx="40.6466" ry="21.5935" fill="#4ACFD9"/>
<path fill-rule="evenodd" clip-rule="evenodd" d="M128.538 371.215C126.61 382.188 109.228 390.777 88.069 390.777C66.9102 390.777 49.5275 382.188 47.5999 371.215C47.4824 371.884 47.4224 372.561 47.4224 373.247C47.4224 385.172 65.6205 394.84 88.069 394.84C110.517 394.84 128.716 385.172 128.716 373.247C128.716 372.561 128.656 371.884 128.538 371.215Z" fill="#E6EAEA"/>
<path fill-rule="evenodd" clip-rule="evenodd" d="M128.538 367.154C126.61 378.127 109.228 386.716 88.069 386.716C66.9102 386.716 49.5275 378.127 47.5999 367.154C47.4824 367.823 47.4224 368.501 47.4224 369.186C47.4224 381.112 65.6205 390.78 88.069 390.78C110.517 390.78 128.716 381.112 128.716 369.186C128.716 368.501 128.656 367.823 128.538 367.154Z" fill="#0295AA"/>
<path fill-rule="evenodd" clip-rule="evenodd" d="M128.538 404.242C126.61 415.215 109.228 423.804 88.069 423.804C66.9102 423.804 49.5275 415.215 47.5999 404.242C47.4824 404.911 47.4224 405.589 47.4224 406.274C47.4224 418.2 65.6205 427.867 88.069 427.867C110.517 427.867 128.716 418.2 128.716 406.274C128.716 405.589 128.656 404.911 128.538 404.242Z" fill="#E6EAEA"/>
<path fill-rule="evenodd" clip-rule="evenodd" d="M88.0686 326.504V369.691C65.6202 369.691 47.4224 360.023 47.4224 348.097C47.4224 336.172 65.6202 326.504 88.0686 326.504Z" fill="#365558"/>
<path fill-rule="evenodd" clip-rule="evenodd" d="M128.716 373.176C128.716 373.199 128.716 373.222 128.716 373.245C128.716 373.268 128.716 373.29 128.716 373.313V373.176ZM88.0695 394.838C65.6211 394.838 47.4231 385.17 47.4231 373.245C47.4231 372.559 47.4832 371.882 47.6007 371.213C49.5282 382.186 66.9108 390.775 88.0695 390.775V394.838Z" fill="#CDD4D5"/>
<path fill-rule="evenodd" clip-rule="evenodd" d="M128.716 406.205C128.716 406.228 128.716 406.251 128.716 406.274C128.716 406.297 128.716 406.32 128.716 406.343V406.205ZM88.0695 427.867C65.6211 427.867 47.4231 418.2 47.4231 406.274C47.4231 405.589 47.4832 404.911 47.6007 404.242C49.5282 415.215 66.9108 423.804 88.0695 423.804V427.867Z" fill="#CDD4D5"/>
<path fill-rule="evenodd" clip-rule="evenodd" d="M128.716 369.117C128.716 369.14 128.716 369.163 128.716 369.186C128.716 369.209 128.716 369.232 128.716 369.255V369.117ZM88.0695 390.78C65.6211 390.78 47.4231 381.112 47.4231 369.186C47.4231 368.501 47.4832 367.823 47.6007 367.154C49.5282 378.127 66.9108 386.716 88.0695 386.716V390.78Z" fill="#365558"/>
<path fill-rule="evenodd" clip-rule="evenodd" d="M129.046 400.686C127.119 411.659 109.736 420.247 88.5773 420.247C67.4185 420.247 50.0358 411.659 48.1082 400.686C47.9907 401.354 47.9307 402.032 47.9307 402.717C47.9307 414.643 66.1288 424.311 88.5773 424.311C111.026 424.311 129.224 414.643 129.224 402.717C129.224 402.032 129.164 401.354 129.046 400.686Z" fill="#0295AA"/>
<path fill-rule="evenodd" clip-rule="evenodd" d="M128.716 402.649C128.716 402.672 128.716 402.694 128.716 402.717C128.716 402.74 128.716 402.763 128.716 402.786V402.649ZM88.0695 424.311C65.6211 424.311 47.4231 414.643 47.4231 402.717C47.4231 402.032 47.4832 401.354 47.6007 400.686C49.5282 411.658 66.9108 420.247 88.0695 420.247V424.311Z" fill="#365558"/>
<rect x="215.423" y="346.828" width="81.2932" height="87.8983" fill="#CDD4D5"/>
<ellipse cx="256.07" cy="433.965" rx="40.6466" ry="21.5935" fill="#CDD4D5"/>
<rect x="215.423" y="346.828" width="40.6466" height="87.8983" fill="#9BAAAB"/>
<path fill-rule="evenodd" clip-rule="evenodd" d="M215.422 434.133V433.796C215.593 421.948 233.725 412.371 256.068 412.371C256.068 412.371 256.069 412.371 256.069 412.371V455.558C256.069 455.558 256.068 455.558 256.068 455.558C233.725 455.558 215.593 445.981 215.422 434.133Z" fill="#9BAAAB"/>
<ellipse cx="256.069" cy="348.097" rx="40.6466" ry="21.5935" fill="#4ACFD9"/>
<path fill-rule="evenodd" clip-rule="evenodd" d="M296.538 371.215C294.61 382.188 277.228 390.777 256.069 390.777C234.91 390.777 217.527 382.188 215.6 371.215C215.482 371.884 215.422 372.561 215.422 373.247C215.422 385.172 233.62 394.84 256.069 394.84C278.517 394.84 296.716 385.172 296.716 373.247C296.716 372.561 296.656 371.884 296.538 371.215Z" fill="#E6EAEA"/>
<path fill-rule="evenodd" clip-rule="evenodd" d="M296.538 367.154C294.61 378.127 277.228 386.716 256.069 386.716C234.91 386.716 217.527 378.127 215.6 367.154C215.482 367.823 215.422 368.501 215.422 369.186C215.422 381.112 233.62 390.78 256.069 390.78C278.517 390.78 296.716 381.112 296.716 369.186C296.716 368.501 296.656 367.823 296.538 367.154Z" fill="#0295AA"/>
<path fill-rule="evenodd" clip-rule="evenodd" d="M296.538 404.242C294.61 415.215 277.228 423.804 256.069 423.804C234.91 423.804 217.527 415.215 215.6 404.242C215.482 404.911 215.422 405.589 215.422 406.274C215.422 418.2 233.62 427.867 256.069 427.867C278.517 427.867 296.716 418.2 296.716 406.274C296.716 405.589 296.656 404.911 296.538 404.242Z" fill="#E6EAEA"/>
<path fill-rule="evenodd" clip-rule="evenodd" d="M256.069 326.504V369.691C233.62 369.691 215.422 360.023 215.422 348.097C215.422 336.172 233.62 326.504 256.069 326.504Z" fill="#365558"/>
<path fill-rule="evenodd" clip-rule="evenodd" d="M296.716 373.176C296.716 373.199 296.716 373.222 296.716 373.245C296.716 373.268 296.716 373.29 296.716 373.313V373.176ZM256.07 394.838C233.621 394.838 215.423 385.17 215.423 373.245C215.423 372.559 215.483 371.882 215.601 371.213C217.528 382.186 234.911 390.775 256.07 390.775V394.838Z" fill="#CDD4D5"/>
<path fill-rule="evenodd" clip-rule="evenodd" d="M296.716 406.205C296.716 406.228 296.716 406.251 296.716 406.274C296.716 406.297 296.716 406.32 296.716 406.343V406.205ZM256.07 427.867C233.621 427.867 215.423 418.2 215.423 406.274C215.423 405.589 215.483 404.911 215.601 404.242C217.528 415.215 234.911 423.804 256.07 423.804V427.867Z" fill="#CDD4D5"/>
<path fill-rule="evenodd" clip-rule="evenodd" d="M296.716 369.117C296.716 369.14 296.716 369.163 296.716 369.186C296.716 369.209 296.716 369.232 296.716 369.255V369.117ZM256.07 390.78C233.621 390.78 215.423 381.112 215.423 369.186C215.423 368.501 215.483 367.823 215.601 367.154C217.528 378.127 234.911 386.716 256.07 386.716V390.78Z" fill="#365558"/>
<path fill-rule="evenodd" clip-rule="evenodd" d="M297.046 400.686C295.119 411.659 277.736 420.247 256.577 420.247C235.419 420.247 218.036 411.659 216.108 400.686C215.991 401.354 215.931 402.032 215.931 402.717C215.931 414.643 234.129 424.311 256.577 424.311C279.026 424.311 297.224 414.643 297.224 402.717C297.224 402.032 297.164 401.354 297.046 400.686Z" fill="#0295AA"/>
<path fill-rule="evenodd" clip-rule="evenodd" d="M296.716 402.649C296.716 402.672 296.716 402.694 296.716 402.717C296.716 402.74 296.716 402.763 296.716 402.786V402.649ZM256.07 424.311C233.621 424.311 215.423 414.643 215.423 402.717C215.423 402.032 215.483 401.354 215.601 400.686C217.528 411.658 234.911 420.247 256.07 420.247V424.311Z" fill="#365558"/>
<path fill-rule="evenodd" clip-rule="evenodd" d="M11.4521 312.734C11.4521 308.316 15.0339 304.734 19.4521 304.734H157.216C161.634 304.734 165.216 308.316 165.216 312.734V465.281L165.216 465.281L121.687 467.542V510.507H19.4522C15.0339 510.507 11.4521 506.925 11.4521 502.507V312.734ZM41.0938 341.531V341.7L41.0944 341.768V365.895C41.0942 365.921 41.094 365.946 41.0939 365.971C41.0939 365.989 41.0938 366.007 41.0938 366.025C41.0938 366.069 41.094 366.112 41.0944 366.155V370.599C41.0942 370.626 41.094 370.654 41.0939 370.681C41.0939 370.697 41.0938 370.713 41.0938 370.729C41.0938 370.772 41.094 370.816 41.0944 370.859V404.782L41.0943 404.848L41.0944 404.915V408.835C41.0942 408.86 41.094 408.884 41.0939 408.908C41.0939 408.927 41.0938 408.946 41.0938 408.965C41.0938 409.009 41.094 409.052 41.0944 409.095V440.839L41.0938 440.894V441.145L41.0944 441.2V441.902H41.122C41.9424 454.462 60.2047 464.668 83.4398 465.894C84.9884 465.976 86.5591 466.018 88.1481 466.018H88.1487H88.1493C113.581 466.018 134.3 455.299 135.175 441.902H135.204V441.02V405.873C135.23 405.533 135.243 405.19 135.243 404.847C135.243 404.503 135.23 404.16 135.204 403.82V341.775C135.205 341.722 135.205 341.669 135.205 341.616C135.205 341.563 135.205 341.509 135.204 341.456V340.146H135.125C133.693 327.024 113.209 316.618 88.1503 316.618H88.1487V316.618H88.1485C63.0894 316.618 42.6055 327.024 41.1735 340.146H41.0944V341.463L41.0938 341.531Z" fill="#0295AA"/>
<path d="M120.626 470.506V510.506L122.308 509.931L164.346 466.806L164.906 464.506H126.626C123.312 464.506 120.626 467.192 120.626 470.506Z" fill="#4ACFD9"/>
<path fill-rule="evenodd" clip-rule="evenodd" d="M14.2361 304.15C12.4489 304.15 11 305.594 11 307.375V507.281C11 509.062 12.4489 510.505 14.2361 510.505H88.3831V466.016C88.2656 466.016 88.148 466.016 88.0303 466.016H88.0296H88.0276C86.8364 466.016 85.6556 465.993 84.4866 465.947C60.6986 465.006 41.8355 454.671 41.0015 441.901H40.9755V441.292L40.9747 441.249V440.788L40.9755 440.745V409.106C40.975 409.059 40.9747 409.012 40.9747 408.965C40.9747 408.917 40.975 408.87 40.9755 408.823V404.987C40.975 404.941 40.9747 404.894 40.9747 404.848C40.9747 404.801 40.975 404.754 40.9755 404.708V370.87C40.975 370.823 40.9747 370.776 40.9747 370.728C40.9747 370.681 40.975 370.634 40.9755 370.586V366.167C40.975 366.119 40.9747 366.072 40.9747 366.025C40.9747 365.977 40.975 365.93 40.9755 365.883V341.783L40.9747 341.699V341.529L40.9755 341.446V340.145H41.0543C42.4859 327.023 62.97 316.616 88.0293 316.616H88.0296H88.0298C88.1476 316.616 88.2654 316.616 88.3831 316.617V304.15H14.2361Z" fill="#365558"/>
<path fill-rule="evenodd" clip-rule="evenodd" d="M179.452 312.734C179.452 308.316 183.034 304.734 187.452 304.734H325.216C329.634 304.734 333.216 308.316 333.216 312.734V465.281L333.216 465.281L289.687 467.542V510.507H187.452C183.034 510.507 179.452 506.925 179.452 502.507V312.734ZM209.094 341.531V341.7L209.094 341.768V365.895C209.094 365.92 209.094 365.945 209.094 365.97C209.094 365.988 209.094 366.007 209.094 366.025C209.094 366.069 209.094 366.112 209.094 366.155V370.599C209.094 370.625 209.094 370.65 209.094 370.676C209.094 370.694 209.094 370.711 209.094 370.729C209.094 370.772 209.094 370.816 209.094 370.859V404.781L209.094 404.848L209.094 404.915V408.835C209.094 408.879 209.094 408.922 209.094 408.965C209.094 409.009 209.094 409.052 209.094 409.095V440.839L209.094 440.894V441.145L209.094 441.2V441.902H209.122C209.942 454.462 228.205 464.668 251.44 465.894C252.988 465.976 254.559 466.018 256.148 466.018H256.149H256.149C281.581 466.018 302.3 455.299 303.175 441.902H303.204V441.02V405.873C303.23 405.533 303.243 405.19 303.243 404.847C303.243 404.503 303.23 404.16 303.204 403.82V341.775C303.205 341.748 303.205 341.722 303.205 341.696C303.205 341.669 303.205 341.643 303.205 341.616C303.205 341.585 303.205 341.554 303.205 341.523C303.205 341.501 303.205 341.479 303.204 341.457V340.146H303.125C301.693 327.024 281.209 316.618 256.15 316.618H256.149V316.618H256.148C231.089 316.618 210.605 327.024 209.174 340.146H209.094V341.463L209.094 341.531Z" fill="#0295AA"/>
<path d="M288.626 470.506V510.506L290.308 509.931L332.346 466.806L332.906 464.506H294.626C291.312 464.506 288.626 467.192 288.626 470.506Z" fill="#4ACFD9"/>
<path fill-rule="evenodd" clip-rule="evenodd" d="M182.236 304.15C180.449 304.15 179 305.594 179 307.375V507.281C179 509.062 180.449 510.505 182.236 510.505H256.383V466.016C256.266 466.016 256.148 466.016 256.03 466.016H256.03H256.028C254.836 466.016 253.656 465.993 252.487 465.947C228.699 465.006 209.836 454.671 209.001 441.901H208.975V441.292L208.975 441.249V440.788L208.975 440.745V409.106C208.975 409.059 208.975 409.012 208.975 408.965C208.975 408.917 208.975 408.87 208.975 408.823V404.982C208.975 404.938 208.975 404.893 208.975 404.848C208.975 404.803 208.975 404.758 208.975 404.713V370.87C208.975 370.823 208.975 370.776 208.975 370.728C208.975 370.681 208.975 370.634 208.975 370.586V366.167C208.975 366.119 208.975 366.072 208.975 366.025C208.975 365.977 208.975 365.93 208.975 365.883V341.783L208.975 341.699V341.529L208.975 341.446V340.145H209.054C210.486 327.023 230.97 316.616 256.029 316.616H256.03H256.03C256.148 316.616 256.265 316.616 256.383 316.617V304.15H182.236Z" fill="#365558"/>
<path fill-rule="evenodd" clip-rule="evenodd" d="M347.452 312.734C347.452 308.316 351.034 304.734 355.452 304.734H493.216C497.634 304.734 501.216 308.316 501.216 312.734V465.281L501.216 465.281L457.687 467.542V510.507H355.452C351.034 510.507 347.452 506.925 347.452 502.507V312.734ZM424.149 316.618V316.618C399.09 316.618 378.607 327.024 377.175 340.146H377.094V365.879C377.094 365.928 377.094 365.977 377.094 366.025C377.094 366.074 377.094 366.123 377.094 366.172V370.582C377.094 370.631 377.094 370.68 377.094 370.729C377.094 370.778 377.094 370.827 377.094 370.876V404.708C377.094 404.755 377.094 404.801 377.094 404.848C377.094 404.895 377.094 404.942 377.094 404.988V408.818C377.094 408.845 377.094 408.871 377.094 408.897C377.094 408.92 377.094 408.943 377.094 408.965C377.094 409.014 377.094 409.063 377.094 409.112V440.873C377.094 440.902 377.094 440.932 377.094 440.961C377.094 440.98 377.094 441 377.094 441.02C377.094 441.069 377.094 441.117 377.094 441.166V441.902H377.122C377.861 453.206 392.727 462.603 412.631 465.263C416.317 465.756 420.175 466.018 424.149 466.018H424.149C449.581 466.018 470.3 455.299 471.175 441.902H471.204V441.02V405.871C471.23 405.531 471.243 405.19 471.243 404.847C471.243 404.503 471.23 404.162 471.204 403.822V341.796L471.205 341.728C471.205 341.691 471.205 341.653 471.205 341.616C471.205 341.556 471.205 341.496 471.204 341.436V340.146H471.125C469.693 327.024 449.209 316.618 424.151 316.618H424.149Z" fill="#0295AA"/>
<path d="M456.626 470.506V510.506L458.308 509.931L500.346 466.806L500.906 464.506H462.626C459.312 464.506 456.626 467.192 456.626 470.506Z" fill="#4ACFD9"/>
<path fill-rule="evenodd" clip-rule="evenodd" d="M350.236 304.15C348.449 304.15 347 305.594 347 307.375V507.281C347 509.062 348.449 510.505 350.236 510.505H424.383V466.016C424.265 466.016 424.148 466.016 424.03 466.016H424.029L424.383 465.069V465.068L424.029 466.016C422.44 466.016 420.869 465.975 419.32 465.893C396.085 464.666 377.823 454.461 377.003 441.901H376.975V441.197L376.974 441.12V440.917L376.975 440.84V409.105C376.974 409.059 376.974 409.012 376.974 408.965C376.974 408.944 376.974 408.924 376.974 408.904C376.974 408.877 376.975 408.851 376.975 408.824V404.986C376.975 404.94 376.974 404.894 376.974 404.848C376.974 404.801 376.975 404.755 376.975 404.709V370.869C376.974 370.822 376.974 370.775 376.974 370.728C376.974 370.7 376.974 370.672 376.975 370.644C376.975 370.625 376.975 370.606 376.975 370.587V366.165C376.975 366.146 376.975 366.127 376.974 366.108C376.974 366.08 376.974 366.052 376.974 366.025C376.974 365.978 376.974 365.931 376.975 365.884V340.145H377.055C378.487 327.023 398.97 316.616 424.029 316.616H424.03C424.148 316.616 424.266 316.616 424.383 316.617V304.15H350.236Z" fill="#365558"/>
<path d="M10.172 141.884L30.18 131.148L45.308 180.192L127.292 12.32H148.764L44.088 227.04H36.28L10.172 141.884ZM263.877 71.856C270.383 71.856 275.019 73.076 277.785 75.516C280.713 77.956 282.177 80.9653 282.177 84.544C282.177 87.6347 281.119 90.644 279.005 93.572C276.89 96.3373 273.962 98.696 270.221 100.648C270.546 98.696 270.709 97.3133 270.709 96.5C270.709 93.572 269.977 91.376 268.513 89.912C267.049 88.2853 265.178 87.472 262.901 87.472C259.647 87.472 255.174 90.4813 249.481 96.5C243.95 102.356 234.434 114.068 220.933 131.636C220.607 131.961 220.445 132.205 220.445 132.368C224.349 146.032 227.439 155.873 229.717 161.892C231.994 167.911 234.434 172.303 237.037 175.068C239.802 177.671 243.299 178.972 247.529 178.972C249.318 178.972 250.701 178.891 251.677 178.728C248.098 185.885 242.161 189.464 233.865 189.464C229.31 189.464 225.487 188.244 222.397 185.804C219.306 183.201 216.459 179.297 213.857 174.092C211.417 168.724 208.651 160.997 205.561 150.912C194.011 165.064 183.763 175.149 174.817 181.168C166.033 187.024 155.785 189.952 144.073 189.952C133.825 189.952 125.935 187.837 120.405 183.608C114.711 179.379 111.865 173.279 111.865 165.308C111.865 157.663 114.305 151.4 119.185 146.52C124.065 141.64 130.409 139.2 138.217 139.2C144.886 139.2 150.498 141.071 155.053 144.812C159.77 148.553 162.779 153.596 164.081 159.94C161.478 158.151 158.469 156.768 155.053 155.792C151.637 154.816 148.302 154.328 145.049 154.328C140.494 154.328 136.834 155.304 134.069 157.256C131.303 159.045 129.921 161.567 129.921 164.82C129.921 167.748 131.222 170.107 133.825 171.896C136.427 173.523 140.25 174.336 145.293 174.336C151.311 174.336 156.842 172.953 161.885 170.188C167.09 167.423 172.458 163.031 177.989 157.012C183.682 150.993 190.921 142.372 199.705 131.148L198.241 126.024C194.825 114.312 192.222 106.097 190.433 101.38C188.806 96.6627 187.017 93.2467 185.065 91.132C183.275 89.0173 180.835 87.96 177.745 87.96C171.889 87.96 166.765 90.5627 162.373 95.768C167.253 79.8267 175.549 71.856 187.261 71.856C191.165 71.856 194.418 72.9947 197.021 75.272C199.786 77.3867 202.47 81.2907 205.073 86.984C207.838 92.6773 210.929 101.055 214.345 112.116C223.129 100.729 229.961 92.352 234.841 86.984C239.883 81.616 244.601 77.7933 248.993 75.516C253.385 73.076 258.346 71.856 263.877 71.856Z" fill="#FD6A33"/>
<circle cx="317" cy="138" r="30" fill="#F0353D"/>
<circle cx="426" cy="305" r="30" fill="#F0353D"/>
<path d="M333 138H425V284.5" stroke="#F0353D" stroke-width="24"/>
</svg>
