<svg width="512" height="512" viewBox="0 0 512 512" fill="none" xmlns="http://www.w3.org/2000/svg">
<path d="M16.8233 360.844C8.21384 355.874 8.21385 347.816 16.8233 342.846L240.911 213.48C249.521 208.509 263.479 208.509 272.089 213.48L496.177 342.846C504.786 347.816 504.786 355.874 496.177 360.844L272.089 490.21C263.479 495.181 249.521 495.181 240.911 490.21L16.8233 360.844Z" fill="#E6EAEA"/>
<path fill-rule="evenodd" clip-rule="evenodd" d="M256.634 210.132C250.826 210.056 244.977 211.298 240.545 213.857L16.457 343.222C7.84766 348.193 7.84766 356.251 16.457 361.22L240.545 490.587C244.977 493.146 250.826 494.386 256.634 494.31V210.132Z" fill="#4ACFD9"/>
<path d="M16.8233 303.467C8.21384 298.497 8.21385 290.439 16.8233 285.469L240.911 156.103C249.521 151.132 263.479 151.132 272.089 156.103L496.177 285.469C504.786 290.439 504.786 298.497 496.177 303.467L272.089 432.833C263.479 437.804 249.521 437.804 240.911 432.833L16.8233 303.467Z" fill="#CDD4D5"/>
<path fill-rule="evenodd" clip-rule="evenodd" d="M256.634 152.753C250.826 152.677 244.977 153.919 240.545 156.478L16.457 285.843C7.84766 290.814 7.84766 298.872 16.457 303.841L240.545 433.208C244.977 435.767 250.826 437.007 256.634 436.931V152.753Z" fill="#0295AA"/>
<path d="M16.8233 246.092C8.21384 241.122 8.21385 233.064 16.8233 228.094L240.911 98.7277C249.521 93.7574 263.479 93.7574 272.089 98.7277L496.177 228.094C504.786 233.064 504.786 241.122 496.177 246.092L272.089 375.458C263.479 380.429 249.521 380.429 240.911 375.458L16.8233 246.092Z" fill="#9BAAAB"/>
<path fill-rule="evenodd" clip-rule="evenodd" d="M256.634 95.3783C250.826 95.3021 244.977 96.5443 240.545 99.1029L16.457 228.468C7.84766 233.439 7.84766 241.497 16.457 246.466L240.545 375.833C244.977 378.392 250.826 379.632 256.634 379.556V95.3783Z" fill="#365558"/>
<path d="M83.9375 112.906H46.9531L39.9219 134H17.4922L55.6016 31.625H75.1484L113.469 134H91.0391L83.9375 112.906ZM52.6484 95.8203H78.2422L65.375 57.5L52.6484 95.8203ZM144.125 97.9297V134H123.031V31.625H162.969C170.656 31.625 177.406 33.0312 183.219 35.8438C189.078 38.6562 193.578 42.6641 196.719 47.8672C199.859 53.0234 201.43 58.9062 201.43 65.5156C201.43 75.5469 197.984 83.4688 191.094 89.2812C184.25 95.0469 174.758 97.9297 162.617 97.9297H144.125ZM144.125 80.8438H162.969C168.547 80.8438 172.789 79.5312 175.695 76.9062C178.648 74.2812 180.125 70.5312 180.125 65.6562C180.125 60.6406 178.648 56.5859 175.695 53.4922C172.742 50.3984 168.664 48.8047 163.461 48.7109H144.125V80.8438ZM238.414 134H217.32V31.625H238.414V134Z" fill="#BCD643"/>
</svg>
