<svg width="512" height="512" viewBox="0 0 512 512" fill="none" xmlns="http://www.w3.org/2000/svg">
<path fill-rule="evenodd" clip-rule="evenodd" d="M481.298 287.808L489.171 419L369.673 364.287L411.187 335.844L255.595 107.569L156.402 175.179L37 -0.000213623H83.1325L166.432 122.211L265.624 54.6009L442.634 314.298L481.298 287.808Z" fill="#F0353D"/>
<path d="M199.156 237.508C205.412 235.668 210.288 232.632 213.784 228.4C217.464 224.168 219.304 219.476 219.304 214.324C219.304 210.276 218.2 207.24 215.992 205.216C213.784 203.008 210.656 201.904 206.608 201.904C201.272 201.904 196.58 203.744 192.532 207.424C188.484 211.104 185.724 216.164 184.252 222.604L174.04 264.28H219.58L215.164 281.944H169.624L134.572 422.152L133.468 426.568C144.876 431.352 155.916 438.16 166.588 446.992C163.46 445.152 158.584 443.312 151.96 441.472C145.52 439.632 138.252 438.068 130.156 436.78C123.9 455.18 115.344 469.072 104.488 478.456C93.816 487.84 80.936 492.532 65.848 492.532C47.264 492.532 33.188 485.54 23.62 471.556C21.596 466.588 20.584 461.528 20.584 456.376C20.584 448.648 23.528 441.748 29.416 435.676C35.12 429.604 42.848 424.82 52.6 421.324C62.352 417.828 73.116 416.08 84.892 416.08C94.276 416.08 103.476 417.184 112.492 419.392L146.992 281.944H115.528L119.944 264.28H151.408L161.62 222.604C164.564 210.828 170.268 201.536 178.732 194.728C187.196 187.736 197.408 184.24 209.368 184.24C219.304 184.24 227.308 186.724 233.38 191.692C239.636 196.476 242.764 202.824 242.764 210.736C242.764 219.936 238.624 226.744 230.344 231.16C222.064 235.392 211.668 237.508 199.156 237.508ZM62.536 474.316C73.024 474.316 82.132 470.912 89.86 464.104C97.588 457.296 103.752 447.452 108.352 434.572C105.96 434.388 102.372 434.296 97.588 434.296C79.924 434.296 66.492 436.688 57.292 441.472C47.908 446.256 43.216 452.604 43.216 460.516C43.216 462.172 43.4 463.736 43.768 465.208C43.952 466.68 44.228 467.784 44.596 468.52C48.092 472.384 54.072 474.316 62.536 474.316Z" fill="#0295AA"/>
</svg>
