<svg width="512" height="512" viewBox="0 0 512 512" fill="none" xmlns="http://www.w3.org/2000/svg">
<path fill-rule="evenodd" clip-rule="evenodd" d="M452 443C452 453.493 443.493 462 433 462C422.507 462 414 453.493 414 443C414 432.507 422.507 424 433 424C443.493 424 452 432.507 452 443ZM470 443C470 463.435 453.435 480 433 480C412.565 480 396 463.435 396 443C396 422.565 412.565 406 433 406C453.435 406 470 422.565 470 443ZM433 273C443.493 273 452 264.493 452 254C452 243.507 443.493 235 433 235C422.507 235 414 243.507 414 254C414 264.493 422.507 273 433 273ZM433 291C453.435 291 470 274.435 470 254C470 233.565 453.435 217 433 217C412.565 217 396 233.565 396 254C396 274.435 412.565 291 433 291ZM433 84C443.493 84 452 75.4934 452 65C452 54.5066 443.493 46 433 46C422.507 46 414 54.5066 414 65C414 75.4934 422.507 84 433 84ZM433 102C453.435 102 470 85.4345 470 65C470 44.5655 453.435 28 433 28C412.565 28 396 44.5655 396 65C396 85.4345 412.565 102 433 102Z" fill="#FD6A33"/>
<rect x="327" y="246" width="77" height="19" fill="#FD6A33"/>
<path d="M292.912 191H194V210H301L419.347 91.435L405.912 78L292.912 191Z" fill="#FD6A33"/>
<path d="M291 48C271.67 48 256 63.67 256 83V173H266V102C266 82.67 281.67 67 301 67H364V48L291 48Z" fill="#FD6A33"/>
<path d="M159 121.5H140L140 156C140 174.778 124.778 190 106 190H42V209H112C137.957 209 159 187.957 159 162V121.5Z" fill="#0295AA"/>
<path d="M159 425.5H178L178 391C178 372.222 193.222 357 212 357H276V338H206C180.043 338 159 359.043 159 385V425.5Z" fill="#FD6A33"/>
<path d="M256 375V448C256 467.33 271.67 483 291 483H364V464H301C281.67 464 266 448.33 266 429V375L256 375Z" fill="#FD6A33"/>
<path d="M247 429C247 448.33 231.33 464 212 464H151C101.294 464 61 423.706 61 374L61 157C61 107.294 101.294 67 151 67H212C231.33 67 247 82.67 247 102V173H256V83C256 63.67 240.33 48 221 48H142C86.7715 48 42 92.7715 42 148V383C42 438.228 86.7715 483 142 483H221C240.33 483 256 467.33 256 448V375H247V429Z" fill="#0295AA"/>
<rect x="247" y="254" width="26" height="19" transform="rotate(-90 247 254)" fill="#FD6A33"/>
<rect x="247" y="320" width="26" height="19" transform="rotate(-90 247 320)" fill="#FD6A33"/>
<path fill-rule="evenodd" clip-rule="evenodd" d="M247 294V320H256V294H247ZM247 228V254H256V228H247Z" fill="#0295AA"/>
<rect x="42" y="301" width="74" height="19" fill="#0295AA"/>
<rect x="194" y="265" width="152" height="19" fill="#FD6A33"/>
<path d="M341 338H247V357H332.565L411.113 435.548L424.548 422.113L341 338Z" fill="#FD6A33"/>
</svg>
