<svg width="512" height="512" viewBox="0 0 512 512" fill="none" xmlns="http://www.w3.org/2000/svg">
<rect x="199" y="118" width="47" height="16" fill="#FD6A33"/>
<rect x="106" y="58" width="75" height="16" fill="#FD6A33"/>
<rect x="106" y="450" width="75" height="16" fill="#FD6A33"/>
<rect x="165" y="101" width="41" height="16" transform="rotate(-90 165 101)" fill="#FD6A33"/>
<rect x="165" y="460" width="41" height="16" transform="rotate(-90 165 460)" fill="#FD6A33"/>
<path fill-rule="evenodd" clip-rule="evenodd" d="M165 215V235H181V215V199H165H100V215H165ZM100 193H165H181V177V157H165V177H100V193Z" fill="#FD6A33"/>
<path fill-rule="evenodd" clip-rule="evenodd" d="M165 345V365H181V345V329H165H100V345L165 345ZM100 323L165 323H181V307V287H165V307L100 307V323Z" fill="#FD6A33"/>
<rect x="199" y="254" width="47" height="16" fill="#FD6A33"/>
<rect x="199" y="380" width="47" height="16" fill="#FD6A33"/>
<path d="M402 124.869H381.214L381.214 139.924C381.214 158.702 365.991 173.924 347.214 173.924H274V194.869H355C380.957 194.869 402 173.827 402 147.869V124.869Z" fill="#FF8C29"/>
<path d="M402 389.869H381.214C381.214 373.212 367.71 359.708 351.052 359.708H274V338.869H355C380.957 338.869 402 359.912 402 385.869V389.869Z" fill="#FF8C29"/>
<path d="M410 251.196V272.114H348.573C342.987 294.57 322.885 311.196 298.942 311.196H269V290.279H294.845C304.294 290.279 312.859 286.447 319.101 280.236C324.874 274.491 326.162 265.946 326.162 257.802C326.162 254.154 329.087 251.196 332.695 251.196H410Z" fill="#FF8C29"/>
<path fill-rule="evenodd" clip-rule="evenodd" d="M399.748 121.916C387.344 121.916 377.29 111.861 377.29 99.4581C377.29 87.0549 387.344 77.0001 399.748 77.0001C412.151 77.0001 422.206 87.0549 422.206 99.4581C422.206 111.861 412.151 121.916 399.748 121.916ZM399.748 139.916C377.403 139.916 359.29 121.802 359.29 99.4581C359.29 77.1138 377.403 59.0001 399.748 59.0001C422.092 59.0001 440.206 77.1138 440.206 99.4581C440.206 121.802 422.092 139.916 399.748 139.916Z" fill="#FFD1A9"/>
<path fill-rule="evenodd" clip-rule="evenodd" d="M433.393 284.916C420.989 284.916 410.935 274.861 410.935 262.458C410.935 250.055 420.989 240 433.393 240C445.796 240 455.851 250.055 455.851 262.458C455.851 274.861 445.796 284.916 433.393 284.916ZM433.393 302.916C411.048 302.916 392.935 284.802 392.935 262.458C392.935 240.114 411.048 222 433.393 222C455.737 222 473.851 240.114 473.851 262.458C473.851 284.802 455.737 302.916 433.393 302.916Z" fill="#FFD1A9"/>
<path fill-rule="evenodd" clip-rule="evenodd" d="M391 436.832C378.597 436.832 368.542 426.777 368.542 414.374C368.542 401.971 378.597 391.916 391 391.916C403.403 391.916 413.458 401.971 413.458 414.374C413.458 426.777 403.403 436.832 391 436.832ZM391 454.832C368.656 454.832 350.542 436.718 350.542 414.374C350.542 392.03 368.656 373.916 391 373.916C413.344 373.916 431.458 392.03 431.458 414.374C431.458 436.718 413.344 454.832 391 454.832Z" fill="#FFD1A9"/>
<rect x="47" y="35" width="61" height="61" stroke="#4ACFD9" stroke-width="18"/>
<rect x="47" y="165" width="61" height="61" stroke="#4ACFD9" stroke-width="18"/>
<rect x="47" y="295" width="61" height="61" stroke="#4ACFD9" stroke-width="18"/>
<rect x="47" y="428" width="61" height="61" stroke="#4ACFD9" stroke-width="18"/>
<rect x="236" y="42" width="40" height="429" rx="20" fill="#FF8C29"/>
<path d="M236 62C236 50.9543 244.954 42 256 42V471C244.954 471 236 462.046 236 451V62Z" fill="#FD6A33"/>
<rect x="146" y="95" width="61" height="61" stroke="#0295AA" stroke-width="18"/>
<rect x="146" y="231" width="61" height="61" stroke="#0295AA" stroke-width="18"/>
<rect x="146" y="357" width="61" height="61" stroke="#0295AA" stroke-width="18"/>
</svg>
