<svg width="512" height="512" viewBox="0 0 512 512" fill="none" xmlns="http://www.w3.org/2000/svg">
<path d="M16.8233 371.092C8.21384 366.122 8.21385 358.064 16.8233 353.094L240.911 223.728C249.521 218.757 263.479 218.757 272.089 223.728L496.177 353.094C504.786 358.064 504.786 366.122 496.177 371.092L272.089 500.458C263.479 505.429 249.521 505.429 240.911 500.458L16.8233 371.092Z" fill="#365558"/>
<path d="M16.8233 360.844C8.21384 355.874 8.21385 347.816 16.8233 342.846L240.911 213.48C249.521 208.509 263.479 208.509 272.089 213.48L496.177 342.846C504.786 347.816 504.786 355.874 496.177 360.844L272.089 490.21C263.479 495.181 249.521 495.181 240.911 490.21L16.8233 360.844Z" fill="#E6EAEA"/>
<path fill-rule="evenodd" clip-rule="evenodd" d="M256.634 210.13C250.826 210.055 244.977 211.296 240.545 213.855L16.4571 343.221C7.84764 348.191 7.84763 356.249 16.4571 361.219L240.545 490.585C244.977 493.144 250.826 494.385 256.634 494.31V210.13Z" fill="#4ACFD9"/>
<path fill-rule="evenodd" clip-rule="evenodd" d="M355.814 326.239C352.283 319.849 354.908 312.571 363.69 307.501C376.216 300.27 396.525 300.27 409.052 307.501C421.578 314.733 421.578 326.457 409.052 333.689C396.949 340.676 377.581 340.912 364.987 334.398L360.494 336.992C345.942 345.392 322.349 345.392 307.797 336.992L170.5 254.001L182.242 247.223L315.174 327.693C325.701 333.77 342.768 333.77 353.295 327.693L355.814 326.239ZM373.781 313.327C366.827 317.341 366.827 323.849 373.781 327.863C380.734 331.877 392.008 331.877 398.961 327.863C405.914 323.849 405.914 317.341 398.961 313.327C392.008 309.313 380.734 309.313 373.781 313.327Z" fill="#365558"/>
<path fill-rule="evenodd" clip-rule="evenodd" d="M219.036 403.049C221.683 398.281 219.729 392.846 213.174 389.062L78 307.501L89.6823 300.757L227.07 383.596C239.544 390.797 241.325 401.835 232.411 410.132C239.846 417.25 238.244 426.634 227.604 432.777C215.077 440.008 194.768 440.008 182.242 432.777C169.715 425.545 169.715 413.821 182.242 406.589C192.195 400.843 207.063 399.663 219.036 403.049ZM192.333 412.415C185.379 416.429 185.379 422.937 192.333 426.951C199.286 430.965 210.56 430.965 217.513 426.951C224.466 422.937 224.466 416.429 217.513 412.415C210.56 408.4 199.286 408.4 192.333 412.415Z" fill="#365558"/>
<path fill-rule="evenodd" clip-rule="evenodd" d="M171.043 304.725L286.41 374.643C278.924 381.767 280.511 391.176 291.173 397.331C303.699 404.562 324.008 404.562 336.535 397.331C349.061 390.099 349.061 378.375 336.535 371.143C326.199 365.177 310.566 364.133 298.377 368.012L173.868 292.816C171.845 291.649 168.548 291.659 166.503 292.84C161.937 295.476 156.424 297.824 149.968 297.815C142.986 297.805 136.036 296.273 130.739 293.215L116.5 285.001L105 292.001L121.309 301.311C134.732 309.06 155.322 310.185 171.043 304.725ZM301.263 391.505C294.31 387.491 294.31 380.983 301.263 376.969C308.217 372.954 319.49 372.954 326.444 376.969C333.397 380.983 333.397 387.491 326.444 391.505C319.49 395.519 308.217 395.519 301.263 391.505Z" fill="#365558"/>
<path fill-rule="evenodd" clip-rule="evenodd" d="M398.628 231.525H368.943V237.805H398.628V231.525ZM368.943 219.536H398.628V225.816H368.943V219.536ZM414.892 175.963C405.713 180.23 398.4 188.655 398.4 198.77V213.257H369.208V199.039C369.208 188.857 361.802 180.397 352.536 176.16C326.847 164.416 309 138.509 309 108.437C309 67.3267 342.355 34.0001 383.5 34.0001C424.645 34.0001 458 67.3267 458 108.437C458 138.342 440.351 164.128 414.892 175.963Z" fill="#FF8C29"/>
<path fill-rule="evenodd" clip-rule="evenodd" d="M383.785 34.0005C383.69 34.0002 383.595 34 383.5 34C342.355 34 309 67.3266 309 108.437C309 138.509 326.847 164.416 352.536 176.16C361.802 180.397 369.208 188.857 369.208 199.039V213.257H383.785V34.0005ZM383.785 219.536H368.943V225.816H383.785V219.536ZM383.785 231.525H368.943V237.805H383.785V231.525Z" fill="#FD6A33"/>
<path d="M248 178.359L297.306 152" stroke="#BCD643" stroke-width="18"/>
<path d="M235 103L289.643 110.303" stroke="#BCD643" stroke-width="18"/>
<path d="M251.757 34L300.418 61.7116" stroke="#BCD643" stroke-width="18"/>
</svg>
