<svg width="512" height="512" viewBox="0 0 512 512" fill="none" xmlns="http://www.w3.org/2000/svg">
<path d="M475 434C475.029 433.397 474.969 432.79 474.969 432.18C474.969 419.332 470.426 407.747 460.431 399.34C450.772 391.168 438.44 388 425.305 388C417.103 388 409.223 389.585 401.886 392.956L401.862 392.967L401.839 392.977C394.481 396.389 388.242 401.398 383.658 408.124L383.648 408.139L383.638 408.155C379.011 414.981 376.766 422.724 376.766 430.914V456H348V167H508V456H475V434Z" fill="#0295AA"/>
<path d="M38.7422 456V408.893L93.5351 389.266H113.32V456H164V167H4V456H38.7422Z" fill="#0295AA"/>
<path d="M255.487 456H278.571C280.81 452.954 282.583 450.123 283.891 447.508C286.516 442.258 287.828 437.102 287.828 432.039C287.828 422.805 284.898 415.656 279.039 410.594C273.227 405.531 265.047 403 254.5 403C247.609 403 241.445 404.477 236.008 407.43C230.57 410.336 226.352 414.367 223.352 419.523C222.959 420.209 222.592 420.905 222.252 421.609C220.032 426.204 218.922 431.204 218.922 436.609H239.312C239.312 431.453 240.625 427.305 243.25 424.164C245.922 420.977 249.555 419.383 254.148 419.383C258.414 419.383 261.695 420.695 263.992 423.32C266.289 425.898 267.438 429.461 267.438 434.008C267.438 437.336 266.336 440.852 264.133 444.555C262.206 447.864 259.324 451.679 255.487 456Z" fill="#0295AA"/>
<path d="M203.922 456H176V167H336V456H296.375C296.7 455.403 297.011 454.809 297.307 454.216C300.807 447.215 302.828 439.775 302.828 432.039C302.828 419.379 298.649 407.727 288.87 399.265C279.466 391.085 267.321 388 254.5 388C245.415 388 236.757 389.964 228.893 394.224C221.108 398.395 214.826 404.35 210.386 411.98L210.361 412.024L210.335 412.069C206.017 419.608 203.922 427.893 203.922 436.609V456Z" fill="#0295AA"/>
<path d="M448.617 456H413.633V446.594H424.461C424.606 446.594 424.75 446.593 424.894 446.591C429.831 446.52 433.508 445.232 435.922 442.727C436.464 442.164 436.946 441.562 437.37 440.92C438.889 438.616 439.648 435.796 439.648 432.461C439.648 428.336 438.406 425.125 435.922 422.828C433.484 420.531 430.109 419.383 425.797 419.383C421.906 419.383 418.648 420.461 416.023 422.617C413.398 424.727 412.086 427.492 412.086 430.914H391.766C391.766 425.57 393.195 420.789 396.055 416.57C396.205 416.349 396.359 416.13 396.516 415.914C399.382 411.962 403.26 408.853 408.148 406.586C413.352 404.195 419.07 403 425.305 403C436.133 403 444.617 405.602 450.758 410.805C456.898 415.961 459.969 423.086 459.969 432.18C459.969 436.191 458.922 439.928 456.827 443.391C456.474 443.974 456.092 444.55 455.68 445.117C453.355 448.319 450.441 450.916 446.939 452.909C446.844 452.963 446.749 453.016 446.654 453.069C446.234 453.302 445.805 453.526 445.368 453.743C445.059 453.895 444.747 454.043 444.43 454.188C444.722 454.292 445.01 454.399 445.294 454.509C445.976 454.772 446.637 455.05 447.276 455.344C447.734 455.555 448.181 455.774 448.617 456Z" fill="#0295AA"/>
<path d="M98.3203 506.781H78V428.453L53.7422 435.977V419.453L96.1406 404.266H98.3203V506.781Z" fill="#BCD643"/>
<path d="M291.133 506.781H220.961V492.859L254.078 457.562C258.625 452.594 261.977 448.258 264.133 444.555C266.336 440.852 267.438 437.336 267.438 434.008C267.438 429.461 266.289 425.898 263.992 423.32C261.695 420.695 258.414 419.383 254.148 419.383C249.555 419.383 245.922 420.977 243.25 424.164C240.625 427.305 239.312 431.453 239.312 436.609H218.922C218.922 430.375 220.398 424.68 223.352 419.523C226.352 414.367 230.57 410.336 236.008 407.43C241.445 404.477 247.609 403 254.5 403C265.047 403 273.227 405.531 279.039 410.594C284.898 415.656 287.828 422.805 287.828 432.039C287.828 437.102 286.516 442.258 283.891 447.508C281.266 452.758 276.766 458.875 270.391 465.859L247.117 490.398H291.133V506.781Z" fill="#BCD643"/>
<path d="M413.633 446.594H424.461C429.617 446.594 433.438 445.305 435.922 442.727C438.406 440.148 439.648 436.727 439.648 432.461C439.648 428.336 438.406 425.125 435.922 422.828C433.484 420.531 430.109 419.383 425.797 419.383C421.906 419.383 418.648 420.461 416.023 422.617C413.398 424.727 412.086 427.492 412.086 430.914H391.766C391.766 425.57 393.195 420.789 396.055 416.57C398.961 412.305 402.992 408.977 408.148 406.586C413.352 404.195 419.07 403 425.305 403C436.133 403 444.617 405.602 450.758 410.805C456.898 415.961 459.969 423.086 459.969 432.18C459.969 436.867 458.539 441.18 455.68 445.117C452.82 449.055 449.07 452.078 444.43 454.188C450.195 456.25 454.484 459.344 457.297 463.469C460.156 467.594 461.586 472.469 461.586 478.094C461.586 487.188 458.258 494.477 451.602 499.961C444.992 505.445 436.227 508.188 425.305 508.188C415.086 508.188 406.719 505.492 400.203 500.102C393.734 494.711 390.5 487.586 390.5 478.727H410.82C410.82 482.57 412.25 485.711 415.109 488.148C418.016 490.586 421.578 491.805 425.797 491.805C430.625 491.805 434.398 490.539 437.117 488.008C439.883 485.43 441.266 482.031 441.266 477.812C441.266 467.594 435.641 462.484 424.391 462.484H413.633V446.594Z" fill="#BCD643"/>
<path fill-rule="evenodd" clip-rule="evenodd" d="M256 388.014C268.267 388.248 279.834 391.406 288.87 399.266C298.649 407.727 302.828 419.379 302.828 432.039C302.828 439.775 300.808 447.215 297.307 454.217C297.011 454.809 296.7 455.404 296.375 456H336V167H256V388.014ZM475 434C475.01 433.795 475.009 433.588 475.004 433.381L474.988 432.912C474.979 432.668 474.969 432.424 474.969 432.18C474.969 419.332 470.426 407.746 460.431 399.34C450.772 391.168 438.44 388 425.305 388C417.103 388 409.223 389.584 401.886 392.955L401.862 392.967L401.839 392.977C394.481 396.389 388.242 401.398 383.658 408.125L383.648 408.139L383.638 408.154C379.011 414.982 376.766 422.725 376.766 430.914V456H348V167H508V456H475V434Z" fill="#4ACFD9"/>
<rect x="69" y="212" width="48" height="10" fill="#365558"/>
<rect width="47" height="10" transform="matrix(-1 0 0 1 268 227)" fill="#365558"/>
<rect x="414" y="213" width="48" height="10" fill="#365558"/>
<rect x="107" y="239" width="25" height="10" transform="rotate(-90 107 239)" fill="#365558"/>
<rect width="26" height="10" transform="matrix(4.37114e-08 -1 -1 -4.37114e-08 231 254)" fill="#365558"/>
<rect x="452" y="240" width="26" height="10" transform="rotate(-90 452 240)" fill="#365558"/>
<path fill-rule="evenodd" clip-rule="evenodd" d="M106.487 309.865V322.383L116.501 322.383L116.501 299.851H106.487V299.851L65.8047 299.851L65.8047 309.865L106.487 309.865ZM65.8047 296.095L106.487 296.095H116.501L116.501 273.563H106.487V286.081L65.8047 286.081L65.8047 296.095Z" fill="#365558"/>
<path fill-rule="evenodd" clip-rule="evenodd" d="M231.282 324.713V337.23L221.267 337.23V314.699H231.282V314.699L271.964 314.699L271.964 324.713L231.282 324.713ZM271.964 310.943L231.282 310.943H221.267V288.411L231.282 288.411V300.929L271.964 300.929L271.964 310.943Z" fill="#365558"/>
<path fill-rule="evenodd" clip-rule="evenodd" d="M451.343 310.713V323.23L461.358 323.23L461.358 300.699H451.343V300.699L410.661 300.699L410.661 310.713L451.343 310.713ZM410.661 296.943L451.343 296.943H461.358L461.358 274.411L451.343 274.411V286.929L410.661 286.929L410.661 296.943Z" fill="#365558"/>
<rect x="36" y="200" width="31" height="32" stroke="#365558" stroke-width="18"/>
<rect x="-9" y="9" width="31" height="32" transform="matrix(-1 0 0 1 293 206)" stroke="#365558" stroke-width="18"/>
<rect x="381" y="201" width="31" height="32" stroke="#365558" stroke-width="18"/>
<rect x="36" y="282" width="31" height="31" stroke="#365558" stroke-width="18"/>
<rect x="-9" y="9" width="31" height="31" transform="matrix(-1 0 0 1 293 288)" stroke="#365558" stroke-width="18"/>
<rect x="381" y="283" width="31" height="31" stroke="#365558" stroke-width="18"/>
<rect x="98" y="239" width="31" height="31" stroke="#365558" stroke-width="18"/>
<rect x="-9" y="9" width="31" height="32" transform="matrix(-1 0 0 1 231 244)" stroke="#365558" stroke-width="18"/>
<rect x="443" y="239" width="31" height="32" stroke="#365558" stroke-width="18"/>
<rect x="98" y="323" width="31" height="32" stroke="#365558" stroke-width="18"/>
<rect x="-9" y="9" width="31" height="32" transform="matrix(-1 0 0 1 231 329)" stroke="#365558" stroke-width="18"/>
<rect x="443" y="324" width="31" height="32" stroke="#365558" stroke-width="18"/>
<path d="M101 83.75V175H65.9998V83.75H41.4976L83.4998 11L125.502 83.75H101Z" fill="#F0353D"/>
<path d="M445 83.75V175H410V83.75H385.498L427.5 11L469.502 83.75H445Z" fill="#F0353D"/>
<path fill-rule="evenodd" clip-rule="evenodd" d="M299.502 130.25L257.5 203L215.498 130.25H240V8H275V130.25H299.502Z" fill="#BCD643"/>
</svg>
