<svg width="512" height="512" viewBox="0 0 512 512" fill="none" xmlns="http://www.w3.org/2000/svg">
<path d="M16.8233 354.341C8.21384 349.37 8.21385 341.312 16.8233 336.342L240.911 206.976C249.521 202.005 263.479 202.005 272.089 206.976L496.177 336.342C504.786 341.312 504.786 349.37 496.177 354.341L272.089 483.707C263.479 488.677 249.521 488.677 240.911 483.707L16.8233 354.341Z" fill="#365558"/>
<path d="M16.8233 344.092C8.21384 339.122 8.21385 331.064 16.8233 326.094L240.911 196.728C249.521 191.757 263.479 191.757 272.089 196.728L496.177 326.094C504.786 331.064 504.786 339.122 496.177 344.092L272.089 473.458C263.479 478.429 249.521 478.429 240.911 473.458L16.8233 344.092Z" fill="#4ACFD9"/>
<path fill-rule="evenodd" clip-rule="evenodd" d="M256.634 193.378C250.826 193.303 244.977 194.544 240.545 197.103L16.4571 326.469C7.84764 331.439 7.84763 339.497 16.4571 344.467L240.545 473.833C244.977 476.392 250.826 477.633 256.634 477.558V193.378Z" fill="#0295AA"/>
<path d="M101.502 111.75V203H66.5022V111.75H42L84.0022 39L126.004 111.75H101.502Z" fill="#BCD643"/>
<path d="M445.502 111.75V203H410.502V111.75H386L428.002 39L470.004 111.75H445.502Z" fill="#BCD643"/>
<path d="M274.502 111.75V203H239.502V111.75H215L257.002 39L299.004 111.75H274.502Z" fill="#BCD643"/>
</svg>
