<svg xmlns="http://www.w3.org/2000/svg" xmlns:xlink="http://www.w3.org/1999/xlink" viewBox="0 0 98 140"><defs><style>.cls-1,.cls-3{fill:none;}.cls-2{clip-path:url(#clip-path);}.cls-3{stroke:#2a96ff;stroke-miterlimit:10;stroke-width:0.5px;}.cls-4{fill:#fff;}.cls-5{fill:#e3493c;}</style><clipPath id="clip-path"><rect class="cls-1" x="144.54" y="59.59" width="600" height="600"/></clipPath></defs><title>aa-logo-vert-dark</title><g id="Layer_1" data-name="Layer 1"><g class="cls-2"><circle class="cls-3" cx="210.14" cy="243.28" r="277.97"/></g></g><g id="Layer_4" data-name="Layer 4"><path class="cls-4" d="M11.27,108.29l-.38-3H8.62l-.38,3h-3L7.49,93.1h4.57l2.28,15.19ZM9.83,96.08H9.68L8.9,102.6h1.71Z"/><path class="cls-4" d="M18,93.1h3.69a4.53,4.53,0,0,1,2.79.67,3.22,3.22,0,0,1,1,2.11,41.13,41.13,0,0,1,.19,4.82,41,41,0,0,1-.19,4.81,3.19,3.19,0,0,1-1,2.11,4.46,4.46,0,0,1-2.79.67H18Zm3.69,12.43a.89.89,0,0,0,.71-.22,2.31,2.31,0,0,0,.25-1.15c0-.61,0-1.77,0-3.46s0-2.85,0-3.47a2.31,2.31,0,0,0-.25-1.15.89.89,0,0,0-.71-.22H21v9.67Z"/><path class="cls-4" d="M31.16,108.29,29.11,93.1h3l1.25,12.06h.23L34.8,93.1h3l-2.05,15.19Z"/><path class="cls-4" d="M46.35,108.29l-.38-3H43.7l-.38,3h-3L42.57,93.1h4.57l2.28,15.19ZM44.91,96.08h-.15L44,102.6h1.7Z"/><path class="cls-4" d="M58.44,108.29l-2.36-7.62H56v7.62H53.12V93.1h2.8L58.09,100h.11V93.1h2.89v15.19Z"/><path class="cls-4" d="M70.19,108.36a6.43,6.43,0,0,1-1.12.11,4,4,0,0,1-2.61-.71,3.72,3.72,0,0,1-1.1-2.28,31.28,31.28,0,0,1-.26-4.78,29.46,29.46,0,0,1,.28-4.77,3.82,3.82,0,0,1,1.12-2.3,3.9,3.9,0,0,1,2.57-.71,7.72,7.72,0,0,1,1.18.1,3.21,3.21,0,0,1,.85.24v2.53a11.75,11.75,0,0,0-1.48-.11,1.48,1.48,0,0,0-1.05.29,2.16,2.16,0,0,0-.35,1.23c0,.62-.08,1.79-.08,3.5s0,2.87.08,3.5a2.15,2.15,0,0,0,.35,1.22,1.48,1.48,0,0,0,1.05.29,9.89,9.89,0,0,0,1.53-.11v2.47A4.23,4.23,0,0,1,70.19,108.36Z"/><path class="cls-4" d="M75,108.29V93.1h6.09v2.76H78v3.38h2.7V102H78v3.53h3.07v2.76Z"/><path class="cls-4" d="M85.08,93.1h3.69a4.55,4.55,0,0,1,2.79.67,3.16,3.16,0,0,1,1,2.11,38.45,38.45,0,0,1,.2,4.82,38.37,38.37,0,0,1-.2,4.81,3.14,3.14,0,0,1-1,2.11,4.48,4.48,0,0,1-2.79.67H85.08Zm3.69,12.43a.89.89,0,0,0,.71-.22,2.31,2.31,0,0,0,.25-1.15c0-.61,0-1.77,0-3.46s0-2.85,0-3.47a2.31,2.31,0,0,0-.25-1.15.89.89,0,0,0-.71-.22h-.69v9.67Z"/><path class="cls-5" d="M19.79,134.79l-2.1-5.3H9.08L7,134.79H5.24l7.15-18.23h2l7.16,18.23Zm-6.33-16.24h-.14L9.64,127.9h7.5Z"/><path class="cls-5" d="M26.41,134.79V116.56h1.7v16.58H37v1.65Z"/><path class="cls-5" d="M48.1,126.76V125.2h6.2v9.3c-.87.14-1.84.26-2.9.35s-2,.15-2.8.15a12.88,12.88,0,0,1-4.9-.69,3.89,3.89,0,0,1-2.15-2.6,22.5,22.5,0,0,1-.58-6,22.11,22.11,0,0,1,.6-6A3.87,3.87,0,0,1,43.72,117a13.15,13.15,0,0,1,4.88-.67c.88,0,1.85.05,2.92.14s2,.22,2.7.36v1.51a33.49,33.49,0,0,0-4.66-.42,18.69,18.69,0,0,0-4.55.37,2.7,2.7,0,0,0-1.81,1.93,18.81,18.81,0,0,0-.53,5.43,23.5,23.5,0,0,0,.39,5.13,3,3,0,0,0,1.59,2.09,10.15,10.15,0,0,0,4,.55c.56,0,1.25,0,2.07-.08s1.47-.12,2-.19v-6.41Z"/><path class="cls-5" d="M61.91,134.32A3.33,3.33,0,0,1,60,131.86a31.94,31.94,0,0,1-.41-6.19,31.89,31.89,0,0,1,.41-6.18A3.33,3.33,0,0,1,61.91,117a13.45,13.45,0,0,1,5.07-.67A13.42,13.42,0,0,1,72,117a3.33,3.33,0,0,1,1.89,2.47,31.89,31.89,0,0,1,.41,6.18,31.94,31.94,0,0,1-.41,6.19A3.33,3.33,0,0,1,72,134.32,13.38,13.38,0,0,1,67,135,13.4,13.4,0,0,1,61.91,134.32Zm9-1.29a2.34,2.34,0,0,0,1.37-1.86,29.55,29.55,0,0,0,.34-5.5,29.7,29.7,0,0,0-.34-5.5,2.32,2.32,0,0,0-1.37-1.85,13.69,13.69,0,0,0-4-.38,13.73,13.73,0,0,0-4,.38,2.32,2.32,0,0,0-1.37,1.85,28.82,28.82,0,0,0-.34,5.5,28.68,28.68,0,0,0,.34,5.5A2.34,2.34,0,0,0,63,133a13.73,13.73,0,0,0,4,.38A13.69,13.69,0,0,0,70.94,133Z"/><path class="cls-5" d="M82.89,134.91c-1.17-.07-2.18-.15-3-.25v-1.59c.91.08,1.93.16,3,.23s2,.11,2.76.11a17.72,17.72,0,0,0,2.32-.12,4,4,0,0,0,1.49-.49,1.67,1.67,0,0,0,.81-1.07,7.68,7.68,0,0,0,.2-1.92,9.6,9.6,0,0,0-.15-2.07,1.14,1.14,0,0,0-.71-.83,7.63,7.63,0,0,0-2-.42L83,126a4.91,4.91,0,0,1-2.42-.74,2.61,2.61,0,0,1-1-1.47,10.4,10.4,0,0,1-.23-2.45,5.81,5.81,0,0,1,.71-3.17,3.47,3.47,0,0,1,2-1.44,14.24,14.24,0,0,1,3.66-.37c1,0,2,0,3.09.1a19.49,19.49,0,0,1,2.44.29v1.51c-.7-.08-1.55-.16-2.54-.22s-1.9-.09-2.73-.09a15.54,15.54,0,0,0-2.52.16,4.18,4.18,0,0,0-1.51.5,1.74,1.74,0,0,0-.76,1,6,6,0,0,0-.19,1.72,6.83,6.83,0,0,0,.17,1.76,1.32,1.32,0,0,0,.67.82,4.9,4.9,0,0,0,1.57.39l4.51.47a10.3,10.3,0,0,1,2.69.56,2.23,2.23,0,0,1,1.25,1.43,9.9,9.9,0,0,1,.3,2.91,6.84,6.84,0,0,1-.72,3.54,3.17,3.17,0,0,1-2,1.47,14.17,14.17,0,0,1-3.38.32C85.14,135,84.05,135,82.89,134.91Z"/><path class="cls-5" d="M47.08,49.62c1.17-.36,8.61.83,9.61,1.53,3.13,2.21,7.71,3.41,9.55,1.15s-.08-6.13-3-9.1c-.88-.88-3.7-7.75-3.56-9,.42-3.87-.85-8.5-3.73-9s-5.61,3.66-6.3,7.16c-.24,1.22-5,7.11-6.14,7.62-3.48,1.62-6.77,5-5.73,7.69S43.7,50.65,47.08,49.62Z"/><path class="cls-5" d="M60,9.61c4.68.2,6.65,9.72,5.89,17.18-.24,2.37,5.27,15.71,6.24,17.91a7.29,7.29,0,0,0,3,3C71.63,38.07,71.32,30.32,72,28.51c3-8.4,1.71-19.69-2.85-22.32-3.07-1.77-9.79-2.48-14.07,4.56A6.91,6.91,0,0,1,60,9.61Z"/><path class="cls-5" d="M22.61,50.2C20.45,46,27.7,39.58,34.55,36.5c2.17-1,11-12.42,12.38-14.35A7.25,7.25,0,0,0,48,18C41.46,25.92,34.9,30.06,33,30.4,24.22,32,15.1,38.77,15.11,44c0,3.55,2.75,9.72,11,9.91A7,7,0,0,1,22.61,50.2Z"/><path class="cls-5" d="M76.72,63.11c-2.52,4-11.75.9-17.84-3.49C57,58.23,42.64,56.34,40.26,56.08a7.21,7.21,0,0,0-4.14,1.11c10.15,1.74,17,5.34,18.25,6.82,5.76,6.83,16.21,11.32,20.75,8.69,3.08-1.78,7-7.25,3.1-14.47A7,7,0,0,1,76.72,63.11Z"/></g></svg>