<svg xmlns="http://www.w3.org/2000/svg" xmlns:xlink="http://www.w3.org/1999/xlink" viewBox="0 0 120 24"><defs><style>.cls-1,.cls-3{fill:none;}.cls-2{clip-path:url(#clip-path);}.cls-3{stroke:#2a96ff;stroke-miterlimit:10;stroke-width:0.5px;}.cls-4{fill:#fff;}.cls-5{fill:#e3493c;}</style><clipPath id="clip-path"><rect class="cls-1" x="272.54" y="79.59" width="600" height="600"/></clipPath></defs><title>aa-logo-horiz-dark</title><g id="Layer_1" data-name="Layer 1"><g class="cls-2"><circle class="cls-3" cx="338.14" cy="263.28" r="277.97"/></g></g><g id="Layer_4" data-name="Layer 4"><path class="cls-4" d="M27.67,15.74l-.19-1.58H26.29l-.2,1.58H24.51L25.7,7.79h2.39l1.19,8Zm-.75-6.39h-.08l-.4,3.41h.89Z"/><path class="cls-4" d="M32.15,7.79h1.93a2.39,2.39,0,0,1,1.46.35,1.68,1.68,0,0,1,.54,1.11,21,21,0,0,1,.1,2.52,20.93,20.93,0,0,1-.1,2.51,1.68,1.68,0,0,1-.54,1.11,2.39,2.39,0,0,1-1.46.35H32.15Zm1.93,6.51a.46.46,0,0,0,.37-.12,1.19,1.19,0,0,0,.13-.6c0-.32,0-.93,0-1.81s0-1.5,0-1.82a1.19,1.19,0,0,0-.13-.6.46.46,0,0,0-.37-.12h-.36V14.3Z"/><path class="cls-4" d="M39.94,15.74,38.87,7.79h1.59l.66,6.31h.12l.61-6.31h1.57l-1.07,8Z"/><path class="cls-4" d="M48.8,15.74l-.19-1.58H47.42l-.2,1.58H45.64l1.19-7.95h2.39l1.19,8Zm-.75-6.39H48l-.4,3.41h.89Z"/><path class="cls-4" d="M56.06,15.74l-1.23-4h0v4h-1.5V7.79h1.47l1.13,3.61h.06V7.79h1.51v8Z"/><path class="cls-4" d="M63.14,15.77a3.11,3.11,0,0,1-.59.06,2.06,2.06,0,0,1-1.36-.37,1.94,1.94,0,0,1-.58-1.19,17.1,17.1,0,0,1-.13-2.5,14.22,14.22,0,0,1,.15-2.5,1.94,1.94,0,0,1,.58-1.2,2,2,0,0,1,1.34-.37,4.21,4.21,0,0,1,.62,0,1.86,1.86,0,0,1,.45.12V9.2a5.77,5.77,0,0,0-.78-.06.77.77,0,0,0-.55.15,1.22,1.22,0,0,0-.18.64c0,.33,0,.94,0,1.84s0,1.5,0,1.83a1.22,1.22,0,0,0,.18.64.77.77,0,0,0,.55.15,4.74,4.74,0,0,0,.8-.06v1.29A1.56,1.56,0,0,1,63.14,15.77Z"/><path class="cls-4" d="M66.59,15.74V7.79h3.19V9.23h-1.6V11h1.41v1.45H68.18V14.3h1.6v1.44Z"/><path class="cls-4" d="M72.79,7.79h1.92a2.4,2.4,0,0,1,1.47.35,1.67,1.67,0,0,1,.53,1.11,20.46,20.46,0,0,1,.11,2.52,20.38,20.38,0,0,1-.11,2.51,1.67,1.67,0,0,1-.53,1.11,2.4,2.4,0,0,1-1.47.35H72.79Zm1.92,6.51a.48.48,0,0,0,.38-.12,1.19,1.19,0,0,0,.13-.6c0-.32,0-.93,0-1.81s0-1.5,0-1.82a1.19,1.19,0,0,0-.13-.6.48.48,0,0,0-.38-.12h-.35V14.3Z"/><path class="cls-5" d="M85.6,15.74l-.91-2.31H80.93L80,15.74h-.76l3.11-7.95h.89l3.12,8ZM82.84,8.66h-.06l-1.61,4.08h3.27Z"/><path class="cls-5" d="M88.44,15.74V7.79h.74V15H93v.72Z"/><path class="cls-5" d="M97.86,12.24v-.68h2.7v4c-.37.06-.8.12-1.26.16s-.87.06-1.22.06a5.68,5.68,0,0,1-2.14-.3A1.71,1.71,0,0,1,95,14.4a9.76,9.76,0,0,1-.26-2.63A9.85,9.85,0,0,1,95,9.13,1.71,1.71,0,0,1,96,8a5.91,5.91,0,0,1,2.13-.29c.38,0,.81,0,1.27.06s.86.1,1.18.16v.66a13.61,13.61,0,0,0-2-.19,8.76,8.76,0,0,0-2,.16,1.21,1.21,0,0,0-.79.85,8.45,8.45,0,0,0-.23,2.37A10.48,10.48,0,0,0,95.66,14a1.27,1.27,0,0,0,.7.91,4.41,4.41,0,0,0,1.72.24l.9,0c.35,0,.64,0,.87-.09V12.24Z"/><path class="cls-5" d="M103.84,15.54a1.48,1.48,0,0,1-.83-1.08,13.91,13.91,0,0,1-.17-2.69,14,14,0,0,1,.17-2.7A1.48,1.48,0,0,1,103.84,8a6,6,0,0,1,2.21-.29,5.94,5.94,0,0,1,2.2.29,1.46,1.46,0,0,1,.83,1.08,13.75,13.75,0,0,1,.18,2.7,13.7,13.7,0,0,1-.18,2.69,1.46,1.46,0,0,1-.83,1.08,5.94,5.94,0,0,1-2.2.29A6,6,0,0,1,103.84,15.54Zm3.93-.57a1,1,0,0,0,.61-.81,13.62,13.62,0,0,0,.14-2.39,13.68,13.68,0,0,0-.14-2.4,1,1,0,0,0-.61-.81,8.84,8.84,0,0,0-3.45,0,1,1,0,0,0-.6.81,12.47,12.47,0,0,0-.15,2.4,12.42,12.42,0,0,0,.15,2.39,1,1,0,0,0,.6.81,8.84,8.84,0,0,0,3.45,0Z"/><path class="cls-5" d="M112.94,15.79c-.5,0-.94-.06-1.31-.11V15l1.33.1c.48,0,.88.05,1.2.05a8.75,8.75,0,0,0,1-.05,1.78,1.78,0,0,0,.65-.22.68.68,0,0,0,.35-.47,3.13,3.13,0,0,0,.09-.83,4.54,4.54,0,0,0-.06-.9.57.57,0,0,0-.31-.37,3.72,3.72,0,0,0-.88-.18l-2-.22a2.08,2.08,0,0,1-1.06-.32,1.18,1.18,0,0,1-.44-.64,5,5,0,0,1-.09-1.07,2.57,2.57,0,0,1,.3-1.38,1.56,1.56,0,0,1,.9-.63,6.12,6.12,0,0,1,1.59-.16c.45,0,.9,0,1.35,0s.81.08,1.07.13v.66c-.31,0-.68-.07-1.11-.1s-.83,0-1.19,0a6.52,6.52,0,0,0-1.1.07,1.88,1.88,0,0,0-.66.22.73.73,0,0,0-.33.44,2.52,2.52,0,0,0-.08.75,2.94,2.94,0,0,0,.07.77.61.61,0,0,0,.29.36,2.05,2.05,0,0,0,.69.16l2,.21a4.86,4.86,0,0,1,1.17.24,1,1,0,0,1,.55.63,4.24,4.24,0,0,1,.13,1.27,3,3,0,0,1-.31,1.54,1.36,1.36,0,0,1-.85.64,5.78,5.78,0,0,1-1.47.14C113.93,15.83,113.45,15.82,112.94,15.79Z"/><path class="cls-5" d="M11.36,13.89a7.43,7.43,0,0,1,2.52.4c.82.58,2,.89,2.5.3s0-1.61-.79-2.38a7.64,7.64,0,0,1-.93-2.35c.11-1-.23-2.23-1-2.35s-1.47,1-1.65,1.88a7.38,7.38,0,0,1-1.61,2c-.9.42-1.77,1.3-1.49,2S10.48,14.16,11.36,13.89Z"/><path class="cls-5" d="M14.75,3.42C16,3.47,16.49,6,16.29,7.91a26.16,26.16,0,0,0,1.64,4.69,1.88,1.88,0,0,0,.79.79,10.55,10.55,0,0,1-.84-5c.79-2.19.44-5.15-.75-5.84a2.71,2.71,0,0,0-3.68,1.2A1.8,1.8,0,0,1,14.75,3.42Z"/><path class="cls-5" d="M5,14C4.4,13,6.3,11.26,8.09,10.45,8.66,10.2,11,7.2,11.33,6.7a2,2,0,0,0,.29-1.09A10.62,10.62,0,0,1,7.68,8.86C5.38,9.27,3,11.05,3,12.42A2.71,2.71,0,0,0,5.87,15,1.88,1.88,0,0,1,5,14Z"/><path class="cls-5" d="M19.12,17.42c-.66,1-3.07.23-4.67-.92a25.88,25.88,0,0,0-4.87-.92,1.79,1.79,0,0,0-1.08.29,10.37,10.37,0,0,1,4.77,1.78c1.51,1.79,4.24,3,5.43,2.27a2.69,2.69,0,0,0,.81-3.78A1.83,1.83,0,0,1,19.12,17.42Z"/></g></svg>