<svg xmlns="http://www.w3.org/2000/svg" xmlns:xlink="http://www.w3.org/1999/xlink" viewBox="0 0 120 24"><defs><style>.cls-1,.cls-5{fill:none;}.cls-2{fill:#fff;}.cls-3{fill:#e3493c;}.cls-4{clip-path:url(#clip-path);}.cls-5{stroke:#2a96ff;stroke-miterlimit:10;stroke-width:0.5px;}</style><clipPath id="clip-path"><rect class="cls-1" x="272.54" y="79.59" width="600" height="600"/></clipPath></defs><title>sa-logo-horiz-dark</title><g id="Layer_1" data-name="Layer 1"><path class="cls-2" d="M26.68,15.46a5.24,5.24,0,0,1-.84-.16V13.83c.57,0,1,.06,1.28.06l.44,0a.37.37,0,0,0,.21-.12,1.23,1.23,0,0,0,.1-.62,3.73,3.73,0,0,0,0-.58.43.43,0,0,0-.16-.26,1.4,1.4,0,0,0-.4-.15L26.49,12a.85.85,0,0,1-.58-.65,5.25,5.25,0,0,1-.18-1.55A3.72,3.72,0,0,1,26,8.15a1.3,1.3,0,0,1,.72-.72,3.21,3.21,0,0,1,1.16-.18,5.81,5.81,0,0,1,.76,0l.54.09.24.06V8.94l-.35,0a6.52,6.52,0,0,0-.66,0,3.13,3.13,0,0,0-.51,0,.37.37,0,0,0-.23.09.35.35,0,0,0-.1.22,2.54,2.54,0,0,0,0,.46,1.49,1.49,0,0,0,.07.59c0,.1.14.16.31.2l.67.17a1.52,1.52,0,0,1,.56.25,1.19,1.19,0,0,1,.38.63,4.47,4.47,0,0,1,.15,1.29,4.53,4.53,0,0,1-.26,1.79,1.36,1.36,0,0,1-.68.76,3.26,3.26,0,0,1-1.14.17A6.16,6.16,0,0,1,26.68,15.46Z"/><path class="cls-2" d="M36.81,7.34v4.5a17.52,17.52,0,0,1-.11,2.32,1.52,1.52,0,0,1-.54,1,2.46,2.46,0,0,1-1.48.34,2.46,2.46,0,0,1-1.48-.34,1.52,1.52,0,0,1-.54-1,17.52,17.52,0,0,1-.11-2.32V7.34h1.81v5.12c0,.52,0,.87,0,1a.64.64,0,0,0,.07.33.35.35,0,0,0,.24.06c.12,0,.2,0,.23-.06A.61.61,0,0,0,35,13.5c0-.17,0-.52,0-1V7.34Z"/><path class="cls-2" d="M39.87,7.34h2.31a2.09,2.09,0,0,1,1.23.3,1.54,1.54,0,0,1,.56.9,7.66,7.66,0,0,1,.14,1.64A7.46,7.46,0,0,1,44,11.76a1.58,1.58,0,0,1-.55.93,2,2,0,0,1-1.25.33h-.5v2.41H39.87Zm2,4.05a.5.5,0,0,0,.29-.06c.06,0,.09-.14.11-.3a8,8,0,0,0,0-.85,8.33,8.33,0,0,0,0-.86c0-.16-.05-.25-.11-.29a.62.62,0,0,0-.29,0h-.19v2.41Z"/><path class="cls-2" d="M47,15.43V7.34h3.27V9H48.8v1.55h1.28v1.63H48.8V13.8h1.46v1.63Z"/><path class="cls-2" d="M55.87,15.43l-.56-2.64h-.25v2.64H53.25V7.34H55.6a2.13,2.13,0,0,1,1.22.29,1.42,1.42,0,0,1,.56.86,6.43,6.43,0,0,1,.15,1.57,7.18,7.18,0,0,1-.12,1.46,1.54,1.54,0,0,1-.47.87l.79,3Zm-.81-4.23h.22a.71.71,0,0,0,.3,0,.43.43,0,0,0,.11-.28,6.92,6.92,0,0,0,0-.79,6.74,6.74,0,0,0,0-.77A.43.43,0,0,0,55.58,9a.71.71,0,0,0-.3,0h-.22Z"/><path class="cls-3" d="M66,15.43l-.93-2.35H61.27l-.93,2.35h-.78l3.18-8.09h.9l3.18,8.09Zm-2.81-7.2h-.06l-1.64,4.15h3.33Z"/><path class="cls-3" d="M68.91,15.43V7.34h.76V14.7h3.92v.73Z"/><path class="cls-3" d="M78.49,11.87v-.69h2.75V15.3c-.38.07-.81.12-1.28.16a12,12,0,0,1-1.24.07,5.61,5.61,0,0,1-2.18-.31,1.72,1.72,0,0,1-1-1.15,10.14,10.14,0,0,1-.26-2.68,9.65,9.65,0,0,1,.27-2.68,1.72,1.72,0,0,1,1-1.16,5.86,5.86,0,0,1,2.17-.3q.59,0,1.29.06c.47.05.87.1,1.2.16v.67A15.47,15.47,0,0,0,79.14,8a8.44,8.44,0,0,0-2,.16,1.2,1.2,0,0,0-.8.86,8.27,8.27,0,0,0-.24,2.41,10,10,0,0,0,.18,2.27,1.29,1.29,0,0,0,.71.93,4.56,4.56,0,0,0,1.75.24l.91,0,.89-.08V11.87Z"/><path class="cls-3" d="M84.58,15.23a1.49,1.49,0,0,1-.84-1.1,14.16,14.16,0,0,1-.18-2.74,14.29,14.29,0,0,1,.18-2.75,1.47,1.47,0,0,1,.84-1.09,8.55,8.55,0,0,1,4.49,0,1.47,1.47,0,0,1,.84,1.09,14.29,14.29,0,0,1,.18,2.75,14.16,14.16,0,0,1-.18,2.74,1.49,1.49,0,0,1-.84,1.1,8.55,8.55,0,0,1-4.49,0Zm4-.58a1,1,0,0,0,.61-.82,13,13,0,0,0,.15-2.44A12.91,12.91,0,0,0,89.19,9a1,1,0,0,0-.61-.82,9.14,9.14,0,0,0-3.51,0,1,1,0,0,0-.61.82,12.91,12.91,0,0,0-.15,2.44,13,13,0,0,0,.15,2.44,1,1,0,0,0,.61.82,9.14,9.14,0,0,0,3.51,0Z"/><path class="cls-3" d="M93.84,15.49c-.51,0-1-.07-1.34-.12v-.7l1.36.1c.49,0,.9.05,1.22.05a9.15,9.15,0,0,0,1-.05,1.9,1.9,0,0,0,.66-.22.75.75,0,0,0,.36-.48,3.19,3.19,0,0,0,.09-.85,3.76,3.76,0,0,0-.07-.91.49.49,0,0,0-.31-.37,3.27,3.27,0,0,0-.89-.19l-2.06-.22a2.21,2.21,0,0,1-1.07-.33,1.13,1.13,0,0,1-.45-.65,4.48,4.48,0,0,1-.1-1.09,2.53,2.53,0,0,1,.31-1.4,1.53,1.53,0,0,1,.91-.65,6.38,6.38,0,0,1,1.62-.16c.46,0,.92,0,1.37,0a7.57,7.57,0,0,1,1.09.13V8.1c-.31,0-.69-.08-1.13-.1s-.84,0-1.21,0A6.65,6.65,0,0,0,94.12,8a1.81,1.81,0,0,0-.68.22.81.81,0,0,0-.34.45,3,3,0,0,0-.08.76,2.94,2.94,0,0,0,.08.78.61.61,0,0,0,.29.37,2.44,2.44,0,0,0,.7.17l2,.21a4.23,4.23,0,0,1,1.19.25,1,1,0,0,1,.56.63A4.39,4.39,0,0,1,98,13.16a3,3,0,0,1-.32,1.57,1.44,1.44,0,0,1-.86.66,6.45,6.45,0,0,1-1.5.14C94.84,15.53,94.36,15.51,93.84,15.49Z"/><g class="cls-4"><circle class="cls-5" cx="338.14" cy="263.28" r="277.97"/></g></g><g id="Layer_4" data-name="Layer 4"><path class="cls-3" d="M11.36,13.89a7.43,7.43,0,0,1,2.52.4c.82.58,2,.89,2.5.3s0-1.61-.79-2.38a7.64,7.64,0,0,1-.93-2.35c.11-1-.23-2.23-1-2.35s-1.47,1-1.65,1.88a7.38,7.38,0,0,1-1.61,2c-.9.42-1.77,1.3-1.49,2S10.48,14.16,11.36,13.89Z"/><path class="cls-3" d="M14.75,3.42C16,3.47,16.49,6,16.29,7.91a26.16,26.16,0,0,0,1.64,4.69,1.88,1.88,0,0,0,.79.79,10.55,10.55,0,0,1-.84-5c.79-2.19.44-5.15-.75-5.84a2.71,2.71,0,0,0-3.68,1.2A1.8,1.8,0,0,1,14.75,3.42Z"/><path class="cls-3" d="M5,14C4.4,13,6.3,11.26,8.09,10.45,8.66,10.2,11,7.2,11.33,6.7a2,2,0,0,0,.29-1.09A10.62,10.62,0,0,1,7.68,8.86C5.38,9.27,3,11.05,3,12.42A2.71,2.71,0,0,0,5.87,15,1.88,1.88,0,0,1,5,14Z"/><path class="cls-3" d="M19.12,17.42c-.66,1-3.07.23-4.67-.92a25.88,25.88,0,0,0-4.87-.92,1.79,1.79,0,0,0-1.08.29,10.37,10.37,0,0,1,4.77,1.78c1.51,1.79,4.24,3,5.43,2.27a2.69,2.69,0,0,0,.81-3.78A1.83,1.83,0,0,1,19.12,17.42Z"/></g></svg>
