<?xml version="1.0" encoding="UTF-8" standalone="no"?>
<svg
   xmlns:dc="http://purl.org/dc/elements/1.1/"
   xmlns:cc="http://creativecommons.org/ns#"
   xmlns:rdf="http://www.w3.org/1999/02/22-rdf-syntax-ns#"
   xmlns:svg="http://www.w3.org/2000/svg"
   xmlns="http://www.w3.org/2000/svg"
   xmlns:sodipodi="http://sodipodi.sourceforge.net/DTD/sodipodi-0.dtd"
   xmlns:inkscape="http://www.inkscape.org/namespaces/inkscape"
   version="1.1"
   id="svg2"
   xml:space="preserve"
   width="434.25333"
   height="289.57333"
   viewBox="0 0 434.25333 289.57333"
   sodipodi:docname="AScendEX logo stacked.eps"><metadata
     id="metadata8"><rdf:RDF><cc:Work
         rdf:about=""><dc:format>image/svg+xml</dc:format><dc:type
           rdf:resource="http://purl.org/dc/dcmitype/StillImage" /></cc:Work></rdf:RDF></metadata><defs
     id="defs6" /><sodipodi:namedview
     pagecolor="#ffffff"
     bordercolor="#666666"
     borderopacity="1"
     objecttolerance="10"
     gridtolerance="10"
     guidetolerance="10"
     inkscape:pageopacity="0"
     inkscape:pageshadow="2"
     inkscape:window-width="640"
     inkscape:window-height="480"
     id="namedview4" /><g
     id="g10"
     inkscape:groupmode="layer"
     inkscape:label="ink_ext_XXXXXX"
     transform="matrix(1.3333333,0,0,-1.3333333,0,289.57333)"><g
       id="g12"
       transform="scale(0.1)"><path
         d="M 2468.94,3.71875 V 532.871 h 344.14 V 459.859 H 2554.97 V 306.07 h 258.11 V 230.52 H 2554.97 V 80.7109 h 258.11 V 3.71875 h -344.14"
         style="fill:#6bcee4;fill-opacity:1;fill-rule:nonzero;stroke:none"
         id="path14" /><path
         d="M 2832.58,3.71875 3004.25,280.59 2852.45,532.871 h 90.37 l 76.26,-129.402 c 4.08,-6.75 11.68,-20.719 22.77,-41.918 l 5.42,-10.481 c 3.85,7.461 8.13,15.41 12.83,23.852 4.7,8.43 10.05,17.707 16.08,27.828 l 80.61,130.121 h 88.19 L 3090.28,282.031 3256.9,3.71875 h -95.06 l -88.55,150.00025 -1.44,2.531 c -9.64,18.07 -18.56,35.059 -26.75,50.961 -4.1,-8.191 -8.55,-16.691 -13.37,-25.473 -4.83,-8.808 -10,-17.777 -15.55,-26.937 L 2923.66,3.71875 h -91.08"
         style="fill:#6bcee4;fill-opacity:1;fill-rule:nonzero;stroke:none"
         id="path16" /><path
         d="M 174.773,229.68 242.16,408.012 308.273,229.68 Z m 106.54,290.922 H 203.441 L 0,0 H 87.4883 L 145.18,149.148 H 338.148 L 394.426,0 h 90.332 l -202.403,517.922 -1.042,2.68"
         style="fill:#1e2533;fill-opacity:1;fill-rule:nonzero;stroke:none"
         id="path18" /><path
         d="M 1124.67,148.109 C 1114.03,125.488 1099.05,107.789 1080.11,95.5 1061.2,83.2305 1039.71,77 1016.26,77 c -34.975,0 -64.6,12.582 -88.053,37.391 -23.512,24.859 -35.437,56.441 -35.437,93.839 0,36.969 11.761,68.442 34.945,93.54 23.098,25.011 51.586,37.691 84.675,37.691 25.82,0 48.28,-5.711 66.76,-16.973 18.47,-11.269 33.81,-28.578 45.59,-51.449 l 1.17,-2.277 h 84.74 l -1.84,5.527 c -14.98,44.941 -39.38,80.359 -72.52,105.281 -33.2,24.95 -72.88,37.602 -117.92,37.602 -28.839,0 -56.28,-5.684 -81.557,-16.891 -25.278,-11.211 -48.344,-27.883 -68.563,-49.531 -18.336,-19.77 -32.41,-41.941 -41.824,-65.871 -9.403,-23.957 -14.172,-49.981 -14.172,-77.348 0,-26.691 5.246,-53.199 15.601,-78.793 10.356,-25.59 24.907,-48.3474 43.247,-67.6286 19.312,-20.2696 41.199,-35.6797 65.07,-45.8203 C 960.035,5.14063 986.984,0 1016.26,0 c 46.46,0 86.48,12.4219 118.98,36.9102 32.42,24.4296 57.16,60.7812 73.55,108.0388 l 1.93,5.582 h -84.91 l -1.14,-2.422"
         style="fill:#1e2533;fill-opacity:1;fill-rule:nonzero;stroke:none"
         id="path20" /><path
         d="m 1309.54,249.02 c 8.46,27.48 23,49.609 43.29,65.859 21.52,17.25 47.33,25.992 76.7,25.992 28.64,0 53.54,-8.5 74.02,-25.25 19.35,-15.851 33.5,-38.242 42.11,-66.601 z M 1598,325.25 c -19.28,28.809 -44.11,51.582 -73.78,67.672 -29.68,16.098 -62.25,24.25 -96.8,24.25 -29.06,0 -56.27,-5.5 -80.86,-16.363 -24.58,-10.868 -46.95,-27.25 -66.45,-48.661 -18.33,-19.738 -32.4,-41.957 -41.82,-66.046 -9.41,-24.063 -14.19,-50.262 -14.19,-77.872 0,-26.691 5.26,-53.199 15.62,-78.781 10.34,-25.578 24.89,-48.3279 43.23,-67.6287 19.54,-20.5 41.68,-36.1015 65.78,-46.3515 C 1372.83,5.19922 1399.78,0 1428.82,0 c 43.14,0 81.54,11.7383 114.14,34.8984 32.51,23.1133 58.14,56.8633 76.19,100.3126 l 2.42,5.82 h -87.22 l -1.2,-2.152 c -10.83,-19.41 -25.51,-34.617 -43.65,-45.2071 -18.14,-10.5899 -38.55,-15.961 -60.68,-15.961 -30.95,0 -58.02,9.7813 -80.45,29.0701 -21.27,18.27 -35.2,42.207 -41.42,71.219 h 324.83 v 15.109 c 0,27.172 -2.76,51.731 -8.22,72.993 -5.5,21.347 -14.08,41.23 -25.56,59.148"
         style="fill:#1e2533;fill-opacity:1;fill-rule:nonzero;stroke:none"
         id="path22" /><path
         d="m 2309.82,114.969 c -25.22,-25.6604 -54.68,-38.6682 -87.58,-38.6682 -36.18,0 -67.19,12.9492 -92.15,38.4882 -25,25.563 -37.68,57.723 -37.68,95.563 0,35.937 12.67,66.777 37.64,91.636 24.97,24.871 55.52,37.473 90.78,37.473 34.28,0 64.33,-13.231 89.3,-39.332 25.02,-26.149 37.7,-58.02 37.7,-94.707 0,-34.352 -12.78,-64.781 -38.01,-90.453 z m 35.2,415.832 V 364.5 c -17.16,15.879 -35.92,28.141 -55.9,36.52 -22.83,9.55 -47.93,14.402 -74.62,14.402 -29.98,0 -57.1,-5.031 -80.6,-14.942 -23.54,-9.91 -45.5,-25.449 -65.25,-46.148 -18.12,-18.844 -32.27,-40.961 -42.04,-65.75 -9.76,-24.773 -14.72,-51.332 -14.72,-78.941 0,-59.27 19.82,-109.332 58.91,-148.7699 39.1,-39.4492 88.86,-59.46094 147.92,-59.46094 25.32,0 49.49,4.91015 71.85,14.58984 19.42,8.4102 37.46,20.4414 53.75,35.8203 V 10.1992 h 78.77 V 530.801 h -78.07"
         style="fill:#1e2533;fill-opacity:1;fill-rule:nonzero;stroke:none"
         id="path24" /><path
         d="m 639.496,341.039 c 2.496,0.199 4.934,0.473 7.598,0.473 8.515,0 16.379,-1.293 23.719,-3.614 16.433,-6.007 29.703,-18.597 36.375,-34.707 h 84.925 c -4.16,25.84 -18.105,49.098 -38.633,67.079 -7.757,8.019 -16.996,14.832 -27.777,20.402 -13.062,6.738 -27.769,11.359 -44.117,13.867 -10.66,2.082 -21.715,3.301 -33.137,3.301 -24.445,0 -47.586,-4.531 -67.879,-12.828 -1.886,-0.731 -3.695,-1.551 -5.527,-2.352 -0.984,-0.449 -1.984,-0.879 -2.953,-1.34 -9.508,-4.422 -18.336,-9.66 -26.293,-15.98 -26.406,-20.961 -39.606,-48.301 -39.606,-82 0,-24.668 8.024,-45.641 24.079,-62.879 16.046,-17.25 44.242,-34.231 84.582,-50.949 7.16,-3.192 17.375,-7.172 30.648,-11.942 39.27,-14.601 58.91,-32.109 58.91,-52.539 0,-15.3904 -5.508,-27.5388 -16.515,-36.4216 -11.016,-8.8906 -26.207,-13.3399 -45.579,-13.3399 -22.558,0 -40.996,4.9102 -55.328,14.7305 -0.441,0.3008 -0.886,0.5 -1.328,0.75 -13.644,10.0195 -24.051,24.449 -28.125,42.129 l -81.957,-0.16 C 476.492,105.898 481.852,89.75 490.633,74.9688 503.957,51.1016 521.461,32.9883 543.211,20.6992 566.352,7.60938 595.168,0.820313 629.523,0.140625 630.203,0.109375 630.867,0.0195313 631.551,0 V 0.0898438 C 632.762,0.0703125 633.926,0 635.152,0 c 48.028,0 85.711,10.6797 113.036,32.0391 27.332,21.3593 41,50.8828 41,88.5629 0,26 -7.5,47.699 -22.493,65.078 -14.992,17.379 -39.863,32.968 -74.625,46.769 -7.695,3.192 -18.582,7.301 -32.64,12.34 -44.578,16.18 -66.864,34.09 -66.864,53.731 0,2.921 0.336,5.66 0.836,8.32 8.809,17.851 25.75,30.961 46.094,34.199"
         style="fill:#1e2533;fill-opacity:1;fill-rule:nonzero;stroke:none"
         id="path26" /><path
         d="m 1824.13,408.379 c -93.88,0 -170.25,-76.367 -170.25,-170.238 V 1.41016 h 78.42 V 231.199 c 0,50.641 41.2,91.832 91.83,91.832 50.63,0 91.83,-41.191 91.83,-91.832 V 1.41016 h 78.41 V 238.141 c 0,93.871 -76.37,170.238 -170.24,170.238"
         style="fill:#1e2533;fill-opacity:1;fill-rule:nonzero;stroke:none"
         id="path28" /><path
         d="m 1001.67,1007.56 h 588.62 v 588.62 z M 1649.01,815.801 H 538.727 L 1554.92,1832.01 c 38.17,38.17 95.08,49.51 144.99,28.84 49.89,-20.67 82.14,-68.92 82.14,-122.92 V 948.852 c 0,-73.364 -59.69,-133.051 -133.04,-133.051"
         style="fill:#6bcee4;fill-opacity:1;fill-rule:nonzero;stroke:none"
         id="path30" /><path
         d="M 2413.46,815.801 H 1007.38 l 357.38,357.749 102.59,-165.99 h 887.4 v 889.37 l -572.81,-572.81 0.11,271.09 537.33,537.55 c 38.17,38.17 95.09,49.5 144.99,28.84 49.89,-20.67 82.13,-68.91 82.13,-122.92 V 948.852 c 0,-73.364 -59.67,-133.051 -133.04,-133.051"
         style="fill:#1e2533;fill-opacity:1;fill-rule:nonzero;stroke:none"
         id="path32" /><path
         d="m 1364.76,1173.55 -160.62,-166 h 262.99 z"
         style="fill:#1e2533;fill-opacity:1;fill-rule:nonzero;stroke:none"
         id="path34" /></g></g></svg>
