<?xml version="1.0" encoding="UTF-8" standalone="no"?>
<svg
   xmlns:dc="http://purl.org/dc/elements/1.1/"
   xmlns:cc="http://creativecommons.org/ns#"
   xmlns:rdf="http://www.w3.org/1999/02/22-rdf-syntax-ns#"
   xmlns:svg="http://www.w3.org/2000/svg"
   xmlns="http://www.w3.org/2000/svg"
   xmlns:sodipodi="http://sodipodi.sourceforge.net/DTD/sodipodi-0.dtd"
   xmlns:inkscape="http://www.inkscape.org/namespaces/inkscape"
   version="1.1"
   id="Layer_1"
   x="0px"
   y="0px"
   viewBox="206 -206 512 512"
   style="enable-background:new 206 -206 512 512;"
   xml:space="preserve"
   sodipodi:docname="binanceus.svg"
   inkscape:version="1.0.1 (3bc2e813f5, 2020-09-07)"
   inkscape:export-filename="E:\Superalgos\Projects\Foundations\Icons-SVG-Sources\exchanges\binanceus.png"
   inkscape:export-xdpi="100"
   inkscape:export-ydpi="100"><metadata
   id="metadata30"><rdf:RDF><cc:Work
       rdf:about=""><dc:format>image/svg+xml</dc:format><dc:type
         rdf:resource="http://purl.org/dc/dcmitype/StillImage" /><dc:title /></cc:Work></rdf:RDF></metadata><defs
   id="defs28" /><sodipodi:namedview
   pagecolor="#ffffff"
   bordercolor="#666666"
   borderopacity="1"
   objecttolerance="10"
   gridtolerance="10"
   guidetolerance="10"
   inkscape:pageopacity="0"
   inkscape:pageshadow="2"
   inkscape:window-width="1920"
   inkscape:window-height="1017"
   id="namedview26"
   showgrid="false"
   inkscape:zoom="0.5"
   inkscape:cx="117.51673"
   inkscape:cy="-28.353693"
   inkscape:window-x="-8"
   inkscape:window-y="-8"
   inkscape:window-maximized="1"
   inkscape:current-layer="Layer_1"
   inkscape:document-rotation="0" />
<style
   type="text/css"
   id="style2">
	.st0{display:none;}
	.st1{display:inline;}
	.st2{display:none;fill:#FFFFFF;}
	.st3{fill:#FF8C29;}
	.st4{fill:#FD6A33;}
</style>
<g
   id="Layer_3"
   class="st0">
	<rect
   x="1236"
   y="-1236.4"
   class="st1"
   width="512"
   height="512.8"
   id="rect4" />
</g>
<polygon
   id="Fill-612"
   class="st2"
   points="554.3,-114.1 664.1,-59.1 664.1,29.3 " />
<polygon
   id="Fill-613"
   class="st2"
   points="781,-114.1 670.8,29.3 670.8,-59.1 " />
<polygon
   class="st3"
   points="619.3,-48.7 462,-206 462,-90.3 561.5,9.2 "
   id="polygon9"
   style="fill:#f0353d;fill-opacity:1" />
<polygon
   class="st4"
   points="462,-206 304.7,-48.7 362.6,9.1 462,-90.3 462,-90.3 462,-206 "
   id="polygon11"
   style="fill:#0295aa;fill-opacity:1" />
<rect
   x="222.9"
   y="9.1"
   transform="matrix(0.7071 0.7071 -0.7071 0.7071 112.6315 -171.9316)"
   class="st4"
   width="81.8"
   height="81.8"
   id="rect13"
   style="fill:#0295aa;fill-opacity:1" />
<polygon
   class="st3"
   points="561.5,90.8 462,190.3 462,306 462,306 462,306 619.3,148.7 619.4,148.6 "
   id="polygon15"
   style="fill:#f0353d;fill-opacity:1" />
<polygon
   class="st4"
   points="462,190.3 462,190.3 362.6,90.9 304.6,148.6 304.7,148.7 462,306 462,306 "
   id="polygon17"
   style="fill:#0295aa;fill-opacity:1" />
<rect
   x="619.2"
   y="9.1"
   transform="matrix(0.7071 -0.7071 0.7071 0.7071 157.9827 481.4431)"
   class="st3"
   width="81.8"
   height="81.8"
   id="rect19"
   style="fill:#f0353d;fill-opacity:1" />
<polygon
   class="st3"
   points="520.7,50 520.7,50 520.7,50 462,-8.7 462,108.7 520.7,50 "
   id="polygon21"
   style="fill:#f0353d;fill-opacity:1" />
<polygon
   class="st4"
   points="462,-8.7 418.6,34.6 418.6,34.6 413.6,39.6 403.3,49.9 403.3,50 403.3,50.1 462,108.7 462,108.7   462,-8.7 "
   id="polygon23"
   style="fill:#0295aa;fill-opacity:1" />
<rect
   x="-424"
   y="-206"
   class="st3"
   width="128"
   height="128"
   id="rect18"
   style="fill:#f0353d" /><rect
   x="-296"
   y="-206"
   class="st4"
   width="128"
   height="128"
   id="rect20"
   style="fill:#fd6a33" /><rect
   x="-167.99998"
   y="-206"
   class="st5"
   width="128"
   height="128"
   id="rect22"
   style="fill:#ff8c29" /><rect
   x="-39.999939"
   y="-206"
   class="st6"
   width="128"
   height="128"
   id="rect24"
   style="fill:#ffd1a9" /><rect
   x="-424"
   y="-78"
   class="st1"
   width="128"
   height="128"
   id="rect26"
   style="fill:#365558" /><rect
   x="-296"
   y="-78"
   class="st0"
   width="128"
   height="128"
   id="rect28"
   style="fill:#0295aa" /><rect
   x="-167.99998"
   y="-78"
   class="st7"
   width="128"
   height="128"
   id="rect30"
   style="fill:#4acfd9" /><rect
   x="-424"
   y="50"
   class="st8"
   width="128"
   height="128"
   id="rect32"
   style="fill:#9baaab" /><rect
   x="-296"
   y="50"
   class="st9"
   width="128"
   height="128"
   id="rect34"
   style="fill:#cdd4d5" /><rect
   x="-167.99998"
   y="50"
   class="st10"
   width="128"
   height="128"
   id="rect36"
   style="fill:#e6eaea" /><rect
   x="-39.999939"
   y="50"
   class="st11"
   width="128"
   height="128"
   id="rect38"
   style="fill:#ffffff" /><rect
   x="-424"
   y="178"
   class="st12"
   width="128"
   height="128"
   id="rect40"
   style="fill:#bcd643" /><rect
   x="-306.07611"
   y="629.55963"
   class="st0"
   width="128"
   height="128"
   id="rect28-4"
   style="fill:#0295aa" /><rect
   x="-296"
   y="-78"
   class="st7"
   width="128"
   height="128"
   id="rect30-0"
   style="fill:#0295aa;fill-opacity:1" /><polygon
   class="st4"
   points="1.8,206.8 -3.4,190.9 -8.6,206.8 -25.4,206.9 -11.8,216.7 -17,232.7 -3.4,222.8 10.1,232.7 5,216.7 18.5,206.9 "
   id="polygon18"
   style="fill:#ffffff"
   transform="matrix(1.6985605,0,0,1.6985605,427.14344,-473.83619)" /><polygon
   class="st4"
   points="5,216.7 18.5,206.9 1.8,206.8 -3.4,190.9 -8.6,206.8 -25.4,206.9 -11.8,216.7 -17,232.7 -3.4,222.8 10.1,232.7 "
   id="polygon18-6"
   style="fill:#ffffff"
   transform="matrix(1.6985605,0,0,1.6985605,366.14344,-412.15512)" /><polygon
   class="st4"
   points="-25.4,206.9 -11.8,216.7 -17,232.7 -3.4,222.8 10.1,232.7 5,216.7 18.5,206.9 1.8,206.8 -3.4,190.9 -8.6,206.8 "
   id="polygon18-61"
   style="fill:#ffffff"
   transform="matrix(1.6985605,0,0,1.6985605,269.58844,-315.6762)" /><polygon
   class="st4"
   points="1.8,206.8 -3.4,190.9 -8.6,206.8 -25.4,206.9 -11.8,216.7 -17,232.7 -3.4,222.8 10.1,232.7 5,216.7 18.5,206.9 "
   id="polygon18-8"
   style="fill:#ffffff"
   transform="matrix(1.6985605,0,0,1.6985605,427.14344,-156.54099)" /><polygon
   class="st4"
   points="1.8,206.8 -3.4,190.9 -8.6,206.8 -25.4,206.9 -11.8,216.7 -17,232.7 -3.4,222.8 10.1,232.7 5,216.7 18.5,206.9 "
   id="polygon18-9"
   style="fill:#ffffff"
   transform="matrix(1.6985605,0,0,1.6985605,366.14344,-219.1857)" /><path
   id="polygon18-8-6"
   style="fill:#ffffff;stroke-width:1.69856"
   d="M 461.96602,8.67383 V 62.78711 L 439.06758,79.57812 447.72969,52.40234 424.8,35.75586 453.16524,35.58594 Z" /></svg>
