<?xml version="1.0" encoding="utf-8"?>
<!-- Generator: Adobe Illustrator 19.0.0, SVG Export Plug-In . SVG Version: 6.00 Build 0)  -->
<svg version="1.1" id="Layer_1" xmlns="http://www.w3.org/2000/svg" xmlns:xlink="http://www.w3.org/1999/xlink" x="0px" y="0px"
	 viewBox="206 -206 512 512" style="enable-background:new 206 -206 512 512;" xml:space="preserve">
<style type="text/css">
	.st0{display:none;}
	.st1{display:inline;}
	.st2{display:none;fill:#FFFFFF;}
	.st3{fill:#FF8C29;}
	.st4{fill:#FD6A33;}
</style>
<g id="Layer_3" class="st0">
	<rect x="1236" y="-1236.4" class="st1" width="512" height="512.8"/>
</g>
<polygon id="Fill-612" class="st2" points="554.3,-114.1 664.1,-59.1 664.1,29.3 "/>
<polygon id="Fill-613" class="st2" points="781,-114.1 670.8,29.3 670.8,-59.1 "/>
<polygon class="st3" points="619.3,-48.7 462,-206 462,-90.3 561.5,9.2 "/>
<polygon class="st4" points="462,-206 304.7,-48.7 362.6,9.1 462,-90.3 462,-90.3 462,-206 "/>
<rect x="222.9" y="9.1" transform="matrix(0.7071 0.7071 -0.7071 0.7071 112.6315 -171.9316)" class="st4" width="81.8" height="81.8"/>
<polygon class="st3" points="561.5,90.8 462,190.3 462,306 462,306 462,306 619.3,148.7 619.4,148.6 "/>
<polygon class="st4" points="462,190.3 462,190.3 362.6,90.9 304.6,148.6 304.7,148.7 462,306 462,306 "/>
<rect x="619.2" y="9.1" transform="matrix(0.7071 -0.7071 0.7071 0.7071 157.9827 481.4431)" class="st3" width="81.8" height="81.8"/>
<polygon class="st3" points="520.7,50 520.7,50 520.7,50 462,-8.7 462,108.7 520.7,50 "/>
<polygon class="st4" points="462,-8.7 418.6,34.6 418.6,34.6 413.6,39.6 403.3,49.9 403.3,50 403.3,50.1 462,108.7 462,108.7 
	462,-8.7 "/>
</svg>
