<svg width="512" height="512" viewBox="0 0 512 512" fill="none" xmlns="http://www.w3.org/2000/svg">
<g clip-path="url(#clip0_1_222)">
<path fill-rule="evenodd" clip-rule="evenodd" d="M259.883 104H90V407.931H259.883V104Z" fill="#0295AA"/>
<path fill-rule="evenodd" clip-rule="evenodd" d="M256 407.931H380.064V104H256V407.931Z" fill="#4ACFD9"/>
<path fill-rule="evenodd" clip-rule="evenodd" d="M487.975 140.459C488.386 219.391 447.618 247.324 447.618 247.324C524.747 293.297 511.06 374.98 511.06 374.98C503.013 431.375 482.394 455.552 446.444 478.142C407.85 502.16 358.33 510.783 309.28 510.36L256 510.641V379.583H363.205V324.722H256V289.405L363.205 184.263V140.194H256V0H7.24219C7.60618 -0.023139 7.97355 -0.0234015 8.34177 -2.56036e-05H299.587C331.572 -0.312575 363.253 5.60678 392.459 17.3523C492.557 58.9874 487.975 140.459 487.975 140.459ZM256 191.775V196.724L261.111 191.775H256Z" fill="#0295AA"/>
<path fill-rule="evenodd" clip-rule="evenodd" d="M256 509.68L8.2827 510.986C6.21927 511.102 4.18891 510.477 2.63641 509.247C1.08392 508.018 0.135884 506.284 0 504.426V5.52484C0.15043 3.66651 1.1131 1.93779 2.67685 0.717864C4.24059 -0.502063 6.27774 -1.11359 8.34144 -0.982569H299.587C301.194 -0.99827 302.8 -0.998245 304.405 -0.982544L256 -0.982544V139.218H114.254V190.801H256V195.75L114.254 333.011V378.616H256V509.68ZM256 323.753V288.435L219.991 323.753H256Z" fill="#365558"/>
</g>
<defs>
<clipPath id="clip0_1_222">
<rect width="512" height="512" fill="white"/>
</clipPath>
</defs>
</svg>
