<svg width="512" height="512" viewBox="0 0 512 512" fill="none" xmlns="http://www.w3.org/2000/svg">
<g clip-path="url(#clip0_1_630)">
<path fill-rule="evenodd" clip-rule="evenodd" d="M152.785 91.9273C185.265 79.5336 220.445 73.1877 256 73.3091V138.94C219.122 138.952 183.057 148.709 152.785 166.982V91.9273ZM256 446.257C241.809 446.252 227.58 444.805 213.615 441.889C174.589 433.742 139.885 414.605 115.066 387.546C90.2457 360.486 76.7467 327.071 76.7321 292.655V0H0V292.655C0 336.037 15.0141 378.445 43.1438 414.516C71.2734 450.587 111.255 478.702 158.033 495.303C189.243 506.38 222.543 512 256 512V446.257Z" fill="#0295AA"/>
<path fill-rule="evenodd" clip-rule="evenodd" d="M256 204.218C235.586 204.218 215.631 209.405 198.657 219.122C181.683 228.84 168.454 242.652 160.642 258.812C152.83 274.971 150.786 292.753 154.768 309.908C158.751 327.063 168.581 342.821 183.016 355.189C197.451 367.557 215.842 375.979 235.864 379.392C242.527 380.527 249.271 381.091 256 381.091L256 204.218Z" fill="#BCD643"/>
<path fill-rule="evenodd" clip-rule="evenodd" d="M256 74V139.631C259.124 139.63 262.255 139.699 265.388 139.839C305.501 141.627 343.752 154.903 374.01 177.537C404.269 200.171 424.783 230.853 432.265 264.667C439.747 298.481 433.764 333.468 415.274 364.021C396.784 394.574 366.859 418.924 330.293 433.168C306.813 442.316 281.467 446.956 256 446.948V512.691C272.689 512.691 289.416 511.293 305.943 508.476C355.602 500.013 401.217 479.122 437.019 448.446C472.822 417.77 497.203 378.686 507.081 336.138C516.959 293.589 511.889 249.486 492.513 209.406C473.137 169.325 440.325 135.068 398.226 110.966C356.127 86.8644 306.632 74 256 74Z" fill="#4ACFD9"/>
<path fill-rule="evenodd" clip-rule="evenodd" d="M256 381.782C269.489 381.782 282.915 379.516 295.499 375.05C314.359 368.357 330.479 357.021 341.82 342.478C353.161 327.935 359.215 310.837 359.215 293.346C359.224 281.73 356.56 270.226 351.376 259.493C346.192 248.76 338.59 239.008 329.004 230.795C319.418 222.581 308.036 216.067 295.509 211.625C282.983 207.184 269.557 204.902 256 204.909L256 381.782Z" fill="#BCD643"/>
</g>
<defs>
<clipPath id="clip0_1_630">
<rect width="512" height="512" fill="white"/>
</clipPath>
</defs>
</svg>
