<svg width="512" height="512" viewBox="0 0 512 512" fill="none" xmlns="http://www.w3.org/2000/svg">
<g clip-path="url(#clip0_311_99)">
<path d="M505.6 5.3C504.2 4.7 392.5 -10.6 256 36.7V250.8C401.6 148.8 501.5 11 505.6 5.3Z" fill="#BCD643"/>
<path d="M505.6 5.30005C502.1 13 415.8 202.2 256 329.1V500.6C292.5 491.1 332.6 473.2 376.2 443.4C523.4 328.9 519.7 80.4 505.6 5.30005Z" fill="#4ACFD9"/>
<path d="M19.3999 437.7C37.8999 457.4 122 535.6 256 500.6V329.1C189.6 381.9 110.5 423.9 19.3999 437.7Z" fill="#0295AA"/>
<path d="M0.900059 356.9C93.5001 346.5 180.9 303.4 256 250.8V36.7C214.6 51.1 170.8 71.2 127.2 99.3C11.0001 174.1 -4.39994 283.7 0.900059 356.9Z" fill="#BCD643"/>
<path d="M505.6 5.3C504.2 4.7 392.5 -10.6 256 36.7V250.8C401.6 148.8 501.5 11 505.6 5.3Z" fill="#4ACFD9"/>
<path d="M127.2 99.3C11.0001 174.1 -4.39994 283.7 0.900059 356.9C93.5001 346.5 180.9 303.4 256 250.8V36.7C214.6 51.1 170.8 71.2 127.2 99.3Z" fill="#0295AA"/>
</g>
<defs>
<clipPath id="clip0_311_99">
<rect width="512" height="512" fill="white"/>
</clipPath>
</defs>
</svg>
