<svg width="512" height="512" viewBox="0 0 512 512" fill="none" xmlns="http://www.w3.org/2000/svg">
<g clip-path="url(#clip0_1_425)">
<path fill-rule="evenodd" clip-rule="evenodd" d="M383.436 89.6607C383.436 89.6607 445.428 102.53 451.162 0H512V7.78922C512 55.6251 500.405 101.502 479.766 135.327C459.128 169.152 431.135 188.155 401.947 188.155H383.574V316.564C383.478 368.349 370.884 417.968 348.542 454.585C326.199 491.203 295.923 511.844 264.326 512L256 512V417.077C264.419 416.797 272.734 413.916 280.508 408.578C288.701 402.954 296.129 394.713 302.359 384.337C308.59 373.961 313.498 361.657 316.798 348.142C320.098 334.626 321.725 320.17 321.582 305.614V186.038H256V89.6607H321.289V0H383.436V89.6607Z" fill="#4ACFD9"/>
<path fill-rule="evenodd" clip-rule="evenodd" d="M256 89.6606H187.129V0H126.273V89.3784C65.1426 95.4744 61.1309 1.89087 61.1309 1.89087H2.53349e-07V6.01123C-0.00195287 53.4482 11.2891 99.0144 31.4727 133.016C51.6563 167.017 79.1387 186.769 108.072 188.07L125.705 188.86V316.564C125.703 342.23 128.785 367.646 134.777 391.358C140.77 415.072 149.553 436.618 160.627 454.766C171.701 472.915 184.848 487.311 199.316 497.131C213.785 506.951 229.293 512.004 244.953 512H256V417.077C255.547 417.093 255.092 417.1 254.639 417.1C245.758 417.1 236.963 414.203 228.771 408.578C220.578 402.954 213.15 394.713 206.92 384.337C200.689 373.961 195.781 361.657 192.48 348.142C189.182 334.626 187.555 320.17 187.697 305.614V186.038H256V89.6606Z" fill="#0295AA"/>
</g>
<defs>
<clipPath id="clip0_1_425">
<rect width="512" height="512" fill="white"/>
</clipPath>
</defs>
</svg>
