<svg width="512" height="512" viewBox="0 0 512 512" fill="none" xmlns="http://www.w3.org/2000/svg">
<g clip-path="url(#clip0_320_229)">
<path d="M32.2136 121.938H127.884L53.4972 260.542C53.4972 260.542 14.6113 260.058 2.72122 234.175C-0.609338 226.489 -0.888997 218.225 1.91727 210.419L32.2136 121.938Z" fill="#D53127"/>
<path fill-rule="evenodd" clip-rule="evenodd" d="M256 0H145.148L18.2078 347.314C18.2078 347.314 -27.2791 495.845 145.148 509.286C145.148 509.286 193.495 516.816 256 506.791V371.644C254.622 371.952 253.215 372.233 251.777 372.488C242.406 374.283 232.504 373.507 223.808 370.296C213.865 366.428 203.583 358.402 203.836 341.576C204.002 336.713 205.027 331.888 206.883 327.233L230.325 260.542H256V0Z" fill="#F47320"/>
<path fill-rule="evenodd" clip-rule="evenodd" d="M256 506.791C341.91 493.011 454.565 446.069 505.192 300.833C505.192 300.833 551.356 149.079 403.259 124.904L281.608 123.292L308.985 54.5065C311.507 48.2097 312.06 41.5507 310.599 35.062C309.139 28.5734 305.705 22.4351 300.573 17.1381C295.442 11.8411 288.754 7.53239 281.045 4.55652C273.336 1.58065 264.82 0.0202143 256.178 0H256V260.542H294.302C294.302 260.542 323.287 267.73 320.113 297.159C320.113 297.159 315.465 358.369 256 371.644V506.791Z" fill="#FF8C29"/>
<path d="M511.68 229.595C500.044 127.641 403.908 123.612 403.908 123.612L282.257 122L230 260.055H293.809C305.529 260.539 326.898 275.269 319.958 301.346" fill="url(#paint0_linear_320_229)"/>
</g>
<defs>
<linearGradient id="paint0_linear_320_229" x1="489.339" y1="365.974" x2="362.173" y2="109.809" gradientUnits="userSpaceOnUse">
<stop offset="0.41" stop-color="#FF8C29"/>
<stop offset="0.479167" stop-color="#FF8C29"/>
<stop offset="0.62" stop-color="#E95C22"/>
<stop offset="0.75" stop-color="#DC4125"/>
<stop offset="0.81" stop-color="#D53127"/>
</linearGradient>
<clipPath id="clip0_320_229">
<rect width="512" height="512" fill="white"/>
</clipPath>
</defs>
</svg>
