<?xml version="1.0" encoding="UTF-8" standalone="no"?>
<svg
   viewBox="0 0 511.99999 512.00001"
   version="1.1"
   id="svg169"
   width="512"
   height="512"
   xmlns="http://www.w3.org/2000/svg"
   xmlns:svg="http://www.w3.org/2000/svg">
  <defs
     id="defs173" />
  <linearGradient
     id="a"
     gradientUnits="userSpaceOnUse"
     x1="115.47"
     x2="70.160004"
     y1="113.94"
     y2="44.41">
    <stop
       offset=".41"
       stop-color="#f47320"
       id="stop152" />
    <stop
       offset=".5"
       stop-color="#f16d21"
       id="stop154" />
    <stop
       offset=".62"
       stop-color="#e95c22"
       id="stop156" />
    <stop
       offset=".75"
       stop-color="#dc4125"
       id="stop158" />
    <stop
       offset=".81"
       stop-color="#d53127"
       id="stop160" />
  </linearGradient>
  <g
     id="g258"
     transform="matrix(4.2313343,0,0,3.2233313,0.09778995,0)">
    <path
       d="M 7.59,37.83 H 30.2 l -17.58,43 c 0,0 -9.19,-0.15 -12,-8.18 A 12.76,12.76 0 0 1 0.43,65.28 Z"
       fill="#d53127"
       id="path163" />
    <path
       d="M 95.28,38.75 66.53,38.25 73,16.91 A 13.09,13.09 0 0 0 60.52,0 H 34.28 l -30,107.75 c 0,0 -10.75,46.08 30,50.25 0,0 64.42,13.17 85.09,-64.67 0,0 10.91,-47.08 -24.09,-54.58 z M 75.63,92.19 c 0,0 -1.15,19.88 -16.15,23.37 a 9.72,9.72 0 0 1 -6.61,-0.68 c -2.35,-1.2 -4.78,-3.69 -4.72,-8.91 a 16.82,16.82 0 0 1 0.72,-4.45 l 5.54,-20.69 h 15.12 c 0,0 6.85,2.23 6.1,11.36 z"
       fill="#f47320"
       id="path165" />
    <path
       d="M 120.75,71.63 C 118,40 95.28,38.75 95.28,38.75 L 66.53,38.25 54.18,81.08 h 15.08 c 2.77,0.15 7.82,4.72 6.18,12.81"
       fill="url(#a)"
       id="path167"
       style="fill:url(#a)" />
  </g>
</svg>
