<?xml version="1.0" encoding="utf-8"?>
<!-- Generator: Adobe Illustrator 19.0.0, SVG Export Plug-In . SVG Version: 6.00 Build 0)  -->
<svg version="1.1" id="Layer_1" xmlns="http://www.w3.org/2000/svg" xmlns:xlink="http://www.w3.org/1999/xlink" x="0px" y="0px"
	 viewBox="96 11 512 512" style="enable-background:new 96 11 512 512;" xml:space="preserve">
<style type="text/css">
	.st0{display:none;}
	.st1{display:inline;}
	.st2{display:none;fill:#FFFFFF;}
	.st3{fill:#F0353D;}
	.st4{fill:#0295AA;}
</style>
<g id="Layer_3" class="st0">
	<rect x="1538" y="-1431.4" class="st1" width="512" height="512.8"/>
</g>
<polygon id="Fill-612" class="st2" points="856.3,-309.1 966.1,-254.1 966.1,-165.7 "/>
<polygon id="Fill-613" class="st2" points="1083,-309.1 972.8,-165.7 972.8,-254.1 "/>
<path class="st3" d="M272.2,122.3h193.6c-0.1,2.6-1,5-2.5,7.1c-6.6,11.2-12.5,22.9-18.9,34.2c-9.1,16.1-17.6,32.6-26.9,48.7
	c-5.9,11.6-12.5,22.8-18.7,34.2c-37.6,0-75.3,0-112.9,0c-2,0-3.9,0.1-5.9,0.2c-1.6,4.3-4.4,8.1-6.6,12.2c-2.9,4.7-5.2,9.6-8,14.3
	c-3,6.3-7.1,11.9-10.2,18.1c-6.2,10.6-12,21.3-18.1,32c-6.4,10.9-12.6,22-18.7,33.2c-2.6,4-4.9,8.1-7.1,12.3
	c-12.7,22.2-25.1,44.5-37.8,66.7c-1.1,2.4-2.5,4.6-4.2,6.6c-21.8-0.1-43.6,0-65.4,0c-2.7,0.1-5.4,0.4-7.9,1.1c0-6,4-10.9,6.8-15.9
	c3.3-6.8,7.7-13.1,10.9-19.9c26.1-46.7,52-93.6,78-140.4c5.9-10.2,11-20.5,16.9-30.5c7.4-13.1,14.3-26.5,22-39.5
	c2.5-5.4,5.8-10.4,8.5-15.7c9.6-17.1,19-34.3,28.6-51.4C268.8,127,270.4,124.5,272.2,122.3L272.2,122.3z"/>
<path class="st4" d="M496.6,191.1c12.9-22.5,25.4-45.3,38.4-67.8H605c1,0.1,2,0.2,3,0.5c-2.3,3.5-4.3,7.3-6.3,10.9
	c-16.9,30.3-33.7,60.6-50.5,90.9c-7,12.3-13.6,25-20.7,37.2l-0.7,0.2l-0.1,1.5c-32.9,59-65.7,118-98.3,177.1
	c-64.2,0.1-128.4,0.1-192.6,0c3.7-7.6,8-14.9,12-22.4c18.3-33.6,37.1-67,55.1-100.6c39.5-0.1,78.9-0.1,118.4,0
	C448.5,276.4,472.4,233.6,496.6,191.1L496.6,191.1z"/>
</svg>
