<?xml version="1.0" encoding="UTF-8" standalone="no"?>
<svg
   viewBox="0 0 511.99999 512"
   version="1.1"
   id="svg430"
   width="512"
   height="512"
   xmlns="http://www.w3.org/2000/svg"
   xmlns:svg="http://www.w3.org/2000/svg">
  <defs
     id="defs434" />
  <g
     id="g532"
     transform="scale(2.1888761,1.8220641)">
    <path
       d="M 202,136.19 A 84.68,84.68 0 0 0 220.25,83.54 C 220.25,36.54 182.17,0 135.19,0 H 31.9 v 10.63 h 101 c 41.52,0 75.18,32.15 75.18,73.67 a 74.88,74.88 0 0 1 -14.8,44.81 z"
       fill="#55a49f"
       id="path398" />
    <path
       d="M 190.48,127.39 A 61.34,61.34 0 0 0 208.09,84.3 61.52,61.52 0 0 0 146.58,22.78 H 59.24 v 10.64 h 89.61 A 50.12,50.12 0 0 1 199,83.54 50,50 0 0 1 181.14,121.9 Z"
       fill="#4a8c89"
       id="path400" />
    <path
       d="M 173.63,119.37 C 188,113.09 199,99.41 199,83.54 199,61.73 178.28,44.05 156.47,44.05 H 80.5 v 6.07 h 75.19 c 18,0 35.69,14.63 35.69,32.66 0,14.61 -11.58,27 -25.57,31.15 z"
       fill="#5aaba5"
       id="path402" />
    <path
       d="M 1.52,270.37 H 18.23 V 281 H 1.52 Z"
       fill="#4a8c8a"
       id="path404" />
    <path
       d="m 18.23,249.1 h 66.83 v 7.59 H 18.23 Z"
       fill="#5aaba6"
       id="path406" />
    <path
       d="m 18.23,202.02 h 71.39 v 6.08 H 18.23 Z"
       fill="#4b8f8e"
       id="path408" />
    <path
       d="m 103.29,202.02 h 45.57 v 6.08 h -45.57 z"
       fill="#7cc6c7"
       id="path410" />
    <path
       d="m 31.9,180.75 h 24.3 v 6.08 H 31.9 Z"
       fill="#5ab5b4"
       id="path412" />
    <path
       d="m 69.87,180.75 h 78.98 v 6.08 H 69.87 Z"
       fill="#428989"
       id="path414" />
    <path
       d="m 95.69,85.06 h 51.64 v 6.08 H 95.69 Z"
       fill="#549391"
       id="path416" />
    <path
       d="M 34.94,44.05 H 63.8 v 6.08 H 34.94 Z"
       fill="#306563"
       id="path418" />
    <path
       d="m 42.53,66.83 h 106.32 v 6.08 H 42.53 Z"
       fill="#64b9b9"
       id="path420" />
    <path
       d="M 15.19,85.06 H 80.5 v 6.08 H 15.19 Z"
       fill="#7fd6d5"
       id="path422" />
    <path
       d="m 33.42,268.85 v 10.63 h 115.43 c 47,0 85.06,-36.56 85.06,-83.54 A 85.06,85.06 0 0 0 148.85,110.88 H 74.43 V 120 h 72.15 a 75.19,75.19 0 0 1 75.18,75.19 c 0,41.53 -33.66,73.67 -75.18,73.67 z"
       fill="#55a49f"
       id="path424" />
    <path
       d="m 51.64,133.66 v 10.64 h 110.88 a 50.12,50.12 0 0 1 50.13,50.12 50.13,50.13 0 0 1 -50.13,50.13 H 97.21 v 12.15 h 63 a 61.51,61.51 0 0 0 61.51,-61.52 61.52,61.52 0 0 0 -61.51,-61.52 z"
       fill="#4a8c89"
       id="path426" />
    <path
       d="m 83.54,156.45 v 6.07 h 85.82 c 18,0 35.69,14.63 35.69,32.66 0,18 -17.65,32.66 -35.69,32.66 H 0 v 7.59 h 170.12 c 21.81,0 42.53,-17.68 42.53,-39.49 0,-21.81 -20.72,-39.49 -42.53,-39.49 z"
       fill="#5aaba5"
       id="path428" />
  </g>
</svg>
