<svg width="512" height="512" viewBox="0 0 512 512" fill="none" xmlns="http://www.w3.org/2000/svg">
<g clip-path="url(#clip0_311_48)">
<path d="M438.826 248.147C464.761 220.837 478.84 187.028 478.773 152.215C478.773 66.5782 395.42 0 292.587 0H252.673V19.3685H287.574C378.457 19.3685 452.134 77.9479 452.134 153.6C452.19 183.011 440.827 211.649 419.739 235.247L438.826 248.147Z" fill="#CDD4D5"/>
<path d="M413.61 232.113C438.352 211.175 452.199 182.97 452.156 153.6C452.156 123.874 437.972 95.3657 412.723 74.3447C387.474 53.3236 353.228 41.5117 317.518 41.5068H252.173V60.8936H322.487C336.899 60.8864 351.172 63.2432 364.49 67.8294C377.808 72.4155 389.909 79.1411 400.104 87.6218C410.298 96.1025 418.385 106.172 423.902 117.255C429.419 128.339 432.259 140.218 432.259 152.215C432.278 165.536 428.787 178.699 422.032 190.775C415.278 202.851 405.424 213.547 393.166 222.11L413.61 232.113Z" fill="#9BAAAB"/>
<path d="M376.727 217.5C408.182 206.057 432.259 181.131 432.259 152.215C432.259 112.476 386.906 80.2617 339.166 80.2617H252.673V91.3216H337.459C376.859 91.3216 415.58 117.978 415.58 150.83C415.58 177.451 390.233 200.026 359.61 207.588L376.727 217.5Z" fill="#E6EAEA"/>
<path d="M252.673 368H322.673V379H252.673V368Z" fill="white"/>
<path d="M252.673 329.338H322.487V340.416H252.673V329.338Z" fill="#CDD4D5"/>
<path d="M252.673 155H318.673V166H252.673V155Z" fill="#9BAAAB"/>
<path d="M252.673 121.769H322.487V132.847H252.673V121.769Z" fill="white"/>
<path d="M253.5 489.88V509.248L322.487 509.23C425.364 509.23 508.673 442.616 508.673 357.015C508.673 336.662 503.857 316.509 494.5 297.705C485.144 278.901 471.429 261.816 454.14 247.424C436.851 233.033 416.326 221.617 393.737 213.828C371.148 206.039 346.937 202.03 322.487 202.03H252.673V218.648H317.518C361.164 218.652 403.021 233.088 433.881 258.781C464.741 284.473 482.078 319.317 482.078 355.649C482.078 431.319 408.401 489.88 317.518 489.88H253.5Z" fill="#CDD4D5"/>
<path d="M252.472 243.537V262.924H352.409C366.817 262.921 381.086 265.282 394.398 269.87C407.711 274.458 419.808 281.185 429.997 289.665C440.187 298.145 448.27 308.213 453.784 319.294C459.299 330.375 462.137 342.252 462.137 354.246C462.137 378.471 450.577 401.703 429.998 418.833C409.42 435.963 381.511 445.586 352.409 445.586H252.673V467.724H347.352C365.035 467.724 382.545 464.824 398.881 459.191C415.218 453.557 430.061 445.3 442.563 434.891C455.066 424.482 464.983 412.125 471.748 398.525C478.513 384.926 481.993 370.35 481.99 355.63C481.99 325.905 467.806 297.396 442.557 276.375C417.308 255.354 383.063 243.542 347.352 243.537H252.472Z" fill="#9BAAAB"/>
<path d="M252.673 285.062V296.122H273.456H367.381C406.781 296.122 445.502 322.779 445.502 355.631C445.502 388.428 406.868 415.139 367.381 415.139H252.673V428.969H369.045C416.784 428.969 462.138 396.755 462.138 357.015C462.138 317.276 416.784 285.062 369.045 285.062H252.673Z" fill="#E6EAEA"/>
<path d="M253 19.3685V0H66.8252V19.3685H253Z" fill="#9BAAAB"/>
<path d="M253 41.5068H126.669V60.8936H253V41.5068Z" fill="#365558"/>
<path d="M253.029 80.2617H173.205V91.3216H253.029V80.2617Z" fill="#365558"/>
<path d="M0.327148 492.631H36.9033V512H0.327148V492.631Z" fill="#365558"/>
<path d="M36.9033 453.876H183.186V467.705H36.9033V453.876Z" fill="#365558"/>
<path d="M36.9033 368.093H193.167V379.171H36.9033V368.093Z" fill="#E6EAEA"/>
<path d="M223 368H253V379H223V368Z" fill="#E6EAEA"/>
<path d="M66.8252 329.338H120.015V340.416H66.8252V329.338Z" fill="#365558"/>
<path d="M149.937 329.338H253V340.416H149.937V329.338Z" fill="#9BAAAB"/>
<path d="M207 155H253V166H207V155Z" fill="#365558"/>
<path d="M73.4795 80.2617H136.65V91.3399H73.4795V80.2617Z" fill="#365558"/>
<path d="M90 122H252.907V133.078H90V122Z" fill="#E6EAEA"/>
<path d="M30.249 154.985H173.205V166.063H30.249V154.985Z" fill="#365558"/>
<path d="M70.1523 509.23V489.862H253.5V509.217L70.1523 509.23Z" fill="#9BAAAB"/>
<path d="M159.918 202.03H253.287L253 218.648H159.918V202.03Z" fill="#9BAAAB"/>
<path d="M110.034 262.924V243.537H253.5V262.924H110.034Z" fill="#365558"/>
<path d="M209.781 445.586H253.5V467.724H209.781V445.586Z" fill="#365558"/>
<path d="M179.859 285.062V296.122H253V415.139H-3V428.969H253V415.139V296.122V285.062H179.859Z" fill="#365558"/>
</g>
<defs>
<clipPath id="clip0_311_48">
<rect width="512" height="512" fill="white"/>
</clipPath>
</defs>
</svg>
