<svg width="512" height="512" viewBox="0 0 512 512" fill="none" xmlns="http://www.w3.org/2000/svg">
<g clip-path="url(#clip0_320_75)">
<path fill-rule="evenodd" clip-rule="evenodd" d="M256 111H176.2C174.4 113.2 172.8 115.7 171.7 118.6C166.9 127.15 162.15 135.725 157.4 144.3C152.65 152.875 147.9 161.45 143.1 170C141.943 172.271 140.676 174.488 139.408 176.704C137.718 179.659 136.029 182.614 134.6 185.7C129.938 193.57 125.57 201.587 121.206 209.596C118.362 214.815 115.52 220.031 112.6 225.2C109.475 230.497 106.574 235.878 103.66 241.284C101.073 246.084 98.4748 250.903 95.7 255.7C87.0336 271.299 78.3784 286.91 69.7232 302.521C52.4117 333.743 35.1003 364.966 17.7 396.1C16.0445 399.618 14.0679 403.002 12.0885 406.391C10.2418 409.552 8.39279 412.718 6.8 416C6.20506 417.062 5.55593 418.12 4.90252 419.185C2.48075 423.132 0 427.175 0 431.9C2.5 431.2 5.2 430.9 7.9 430.8C15.1667 430.8 22.4333 430.789 29.7 430.778C44.2333 430.756 58.7667 430.733 73.3 430.8C75 428.8 76.4 426.6 77.5 424.2C83.8499 413.1 90.1248 401.975 96.3998 390.85C102.675 379.725 108.95 368.6 115.3 357.5C117.5 353.3 119.8 349.2 122.4 345.2C128.5 334 134.7 322.9 141.1 312C143.521 307.753 145.895 303.506 148.265 299.266C151.867 292.822 155.461 286.393 159.2 280C160.664 277.072 162.351 274.278 164.039 271.482C165.927 268.355 167.817 265.225 169.4 261.9C170.693 259.729 171.88 257.515 173.069 255.298C174.453 252.715 175.84 250.129 177.4 247.6C178.153 246.197 178.976 244.83 179.797 243.465C181.375 240.841 182.947 238.229 184 235.4L184.273 235.386C186.173 235.291 187.991 235.2 189.9 235.2H256V111Z" fill="#F0353D"/>
<path fill-rule="evenodd" clip-rule="evenodd" d="M256 307.529C240.64 307.537 225.278 307.561 209.9 307.6C199.124 327.714 188.062 347.757 176.992 367.814C169.57 381.261 162.145 394.714 154.8 408.2C153.404 410.818 151.971 413.411 150.541 416.001C147.872 420.832 145.209 425.652 142.8 430.6C180.533 430.659 218.266 430.683 256 430.673V307.529Z" fill="#0295AA"/>
<path fill-rule="evenodd" clip-rule="evenodd" d="M256 111.3V235.5H302.8C305.011 231.435 307.272 227.396 309.535 223.355C313.617 216.062 317.704 208.764 321.5 201.3C326.657 192.372 331.568 183.321 336.472 174.284C340.411 167.024 344.346 159.772 348.4 152.6C351.118 147.801 353.746 142.93 356.375 138.056C359.937 131.453 363.503 124.844 367.3 118.4C368.8 116.3 369.7 113.9 369.8 111.3H256Z" fill="#FD6A33"/>
<path fill-rule="evenodd" clip-rule="evenodd" d="M256 430.673C282.467 430.665 308.933 430.641 335.4 430.6C368 371.5 400.8 312.5 433.7 253.5L433.8 252L434.5 251.8C438.445 245.022 442.235 238.09 446.025 231.158C449.057 225.612 452.089 220.067 455.2 214.6L455.201 214.598C472.001 184.299 488.8 153.999 505.7 123.7C506.083 123.011 506.465 122.316 506.85 121.616C508.476 118.657 510.14 115.631 512 112.8C511 112.5 510 112.4 509 112.3H439C431.975 124.46 425.095 136.707 418.22 148.947C412.373 159.356 406.529 169.76 400.6 180.1C390.35 198.101 380.153 216.157 369.965 234.197C356.1 258.749 342.25 283.274 328.3 307.6C304.178 307.539 280.093 307.515 256 307.529V430.673Z" fill="#4ACFD9"/>
</g>
<defs>
<clipPath id="clip0_320_75">
<rect width="512" height="512" fill="white"/>
</clipPath>
</defs>
</svg>
