<?xml version="1.0" encoding="UTF-8" standalone="no"?>
<svg
   viewBox="0 0 512.00001 512.00001"
   version="1.1"
   id="svg1266"
   width="512"
   height="512"
   xmlns="http://www.w3.org/2000/svg"
   xmlns:svg="http://www.w3.org/2000/svg">
  <defs
     id="defs1270" />
  <g
     id="g1358"
     transform="scale(1.1469534)">
    <g
       fill="#149f49"
       fill-rule="evenodd"
       id="g1260">
      <path
         d="m 249.84,197.5 c -7.78,-1.23 -15.77,-0.8 -23.62,-0.87 -11.66,0 -23.32,0.15 -34.92,-0.07 q -0.21,31.65 0,63.29 c 14,-0.15 27.94,-0.07 41.91,-0.07 7.41,0 15,0.28 22.1,-2.38 a 30.07,30.07 0 0 0 19.23,-21.82 c 1.65,-8.35 0.79,-17.49 -4,-24.69 -4.54,-7.2 -12.49,-11.74 -20.7,-13.39 z"
         id="path1254" />
      <path
         d="M 223.2,0 C 99.93,0 0,99.93 0,223.2 0,346.47 99.93,446.4 223.2,446.4 346.47,446.4 446.4,346.47 446.4,223.2 446.4,99.93 346.47,0 223.2,0 Z m -93,262.3 c 11.88,0.21 23.25,-7.35 28.15,-18.08 a 33.23,33.23 0 0 0 2.88,-16.05 c 0.5,-10.66 -4.68,-21.53 -13.75,-27.36 -5,-3.6 -11.16,-5 -17.21,-5.4 -0.07,-8.43 0,-16.78 -0.07,-25.13 8.71,0.36 17.2,-3.67 23,-10.08 a 31.86,31.86 0 0 0 8,-23 c -1,-10.22 -7,-20.09 -16.27,-24.77 -4.47,-2.59 -9.58,-3.53 -14.69,-3.74 -0.15,-9.22 0,-18.36 -0.07,-27.51 39.67,-0.07 79.34,-0.14 119.08,0 15.77,1 31.76,6.56 43.49,17.43 a 50.33,50.33 0 0 1 15.12,27.79 c 1.73,12.74 0.58,26.64 -7.13,37.37 -4.89,7.63 -12.38,13.17 -20.37,17.35 12.38,4.75 23.47,13.46 29.66,25.34 8.5,16.28 8.28,36.87 -0.86,52.78 -6.27,11.16 -16.78,19.58 -28.51,24.48 -11.73,4.9 -24.77,6.62 -37.44,6.48 h -113 c -0.03,-9.33 0.04,-18.62 -0.03,-27.9 z m 186,102.88 c -25.27,0.29 -50.61,0.08 -76,0.15 -36.65,-0.07 -73.29,0.14 -109.94,-0.15 -0.22,-9.93 -0.22,-19.94 0,-29.95 38.3,-0.29 76.61,0 115,-0.07 23.62,0.07 47.31,-0.22 70.92,0.07 0.19,10.01 0.19,20.02 -0.03,29.95 z"
         id="path1256" />
      <path
         d="m 229.18,169.2 c 6.26,-0.14 12.6,0.58 18.64,-1.37 9.94,-2.81 18.87,-11.09 20.45,-21.6 1.44,-8.64 -0.21,-18.21 -6.26,-24.84 -6.41,-7.13 -16.35,-10.58 -25.78,-10.22 h -45.07 c 0.07,19.37 0.07,38.66 0,58 z"
         id="path1258" />
    </g>
    <path
       d="m 243.22,290.16 c 12.67,0.14 25.7,-1.44 37.44,-6.48 11.74,-5.04 22.24,-13.32 28.51,-24.48 9.14,-15.91 9.36,-36.5 0.86,-52.78 -6.19,-11.88 -17.28,-20.59 -29.66,-25.34 8,-4.18 15.48,-9.72 20.37,-17.35 7.71,-10.73 8.86,-24.63 7.13,-37.37 A 50.33,50.33 0 0 0 292.75,98.57 C 281,87.7 265,82.15 249.26,81.14 c -39.74,-0.14 -79.41,-0.07 -119.08,0 0.07,9.15 -0.08,18.29 0.07,27.51 5.11,0.21 10.22,1.15 14.69,3.74 9.28,4.68 15.26,14.55 16.27,24.77 a 31.86,31.86 0 0 1 -8,23 c -5.84,6.41 -14.33,10.44 -23,10.08 0.07,8.35 0,16.7 0.07,25.13 6.05,0.43 12.24,1.8 17.21,5.4 9.07,5.83 14.25,16.7 13.75,27.36 a 33.23,33.23 0 0 1 -2.88,16.05 c -4.9,10.73 -16.27,18.29 -28.15,18.08 0.07,9.28 0,18.57 0,27.86 z m 31.32,-54.58 a 30.07,30.07 0 0 1 -19.23,21.82 c -7.05,2.66 -14.69,2.38 -22.1,2.38 -14,0 -27.94,-0.08 -41.91,0.07 q -0.21,-31.65 0,-63.29 c 11.6,0.22 23.26,0.07 34.92,0.07 7.85,0.07 15.84,-0.36 23.62,0.87 8.21,1.65 16.13,6.19 20.66,13.39 4.83,7.2 5.69,16.34 4.04,24.69 z M 191.16,111.17 h 45.07 c 9.43,-0.36 19.37,3.09 25.78,10.22 6.05,6.63 7.7,16.2 6.26,24.84 -1.58,10.51 -10.51,18.79 -20.45,21.6 -6,1.95 -12.38,1.23 -18.64,1.37 h -38 c 0.05,-19.37 0.05,-38.66 -0.02,-58.03 z"
       fill="#ffffff"
       id="path1262" />
    <path
       d="m 245.23,335.16 c -38.37,0.07 -76.68,-0.22 -115,0.07 -0.22,10 -0.22,20 0,29.95 36.65,0.29 73.29,0.08 109.94,0.15 25.35,-0.07 50.69,0.14 76,-0.15 0.22,-9.93 0.22,-19.94 0,-29.95 -23.63,-0.29 -47.32,0 -70.94,-0.07 z"
       fill="#73c692"
       id="path1264" />
  </g>
</svg>
