<svg width="512" height="512" viewBox="0 0 512 512" fill="none" xmlns="http://www.w3.org/2000/svg">
<path fill-rule="evenodd" clip-rule="evenodd" d="M0 256C0 114.615 114.615 0 256 0V93.0364C220.409 92.9842 184.856 93.0469 149.303 93.1097H149.299C149.333 97.5483 149.322 101.985 149.311 106.427C149.295 112.488 149.28 118.56 149.379 124.662C155.24 124.903 161.101 125.981 166.228 128.952C176.86 134.32 183.742 145.64 184.889 157.362C185.444 167.023 182.144 176.511 175.713 183.742C169.061 191.094 159.323 195.716 149.333 195.303C149.373 200.092 149.373 204.88 149.373 209.68C149.373 214.48 149.373 219.292 149.414 224.126C156.353 224.585 163.418 226.191 169.153 230.32C179.556 237.006 185.497 249.474 184.923 261.7C185.368 268.016 184.233 274.342 181.62 280.109C176 292.416 162.959 301.087 149.333 300.846H149.31C149.357 307.053 149.349 313.265 149.342 319.487C149.336 323.934 149.33 328.386 149.345 332.846H256V384.421C247.576 384.414 239.154 384.399 230.735 384.384C203.607 384.336 176.502 384.288 149.402 384.493C149.15 395.974 149.15 407.455 149.402 418.844C176.348 419.058 203.288 419.035 230.231 419.013C238.82 419.006 247.41 418.998 256 418.999V512C114.615 512 0 397.385 0 256Z" fill="#0295AA"/>
<path fill-rule="evenodd" clip-rule="evenodd" d="M256 225.529C253.296 225.534 250.591 225.544 247.888 225.554C238.378 225.59 228.878 225.625 219.412 225.445C219.252 249.646 219.252 273.843 219.412 298.036C231.326 297.908 243.201 297.926 255.081 297.943C255.387 297.944 255.694 297.944 256 297.945V225.529Z" fill="#0295AA"/>
<path fill-rule="evenodd" clip-rule="evenodd" d="M281.354 124.07C273.215 122.67 264.856 123.16 256.643 123.08C244.444 123.08 232.246 123.251 220.11 123C219.963 147.004 219.963 171.004 220.11 195C234.757 194.83 249.341 194.921 263.956 194.921C271.708 194.921 279.649 195.239 287.077 192.213C292.088 190.264 296.561 186.964 300.08 182.622C303.598 178.281 306.047 173.04 307.195 167.39C308.922 157.891 308.022 147.493 303.011 139.302C298.261 131.111 289.944 125.947 281.354 124.07Z" fill="#0295AA"/>
<path fill-rule="evenodd" clip-rule="evenodd" d="M256 384.421C247.572 384.414 239.147 384.399 230.722 384.384C203.596 384.336 176.484 384.288 149.368 384.493C149.116 395.963 149.116 407.432 149.368 418.845C176.314 419.058 203.255 419.035 230.197 419.013C238.798 419.006 247.399 418.999 256 418.999V384.421Z" fill="#365558"/>
<path fill-rule="evenodd" clip-rule="evenodd" d="M256 0L256 93.0364C265.956 93.051 275.915 93.0746 285.878 93.1097C303.966 94.2566 322.305 100.634 335.759 113.101C344.816 121.585 350.897 132.762 353.101 144.975C355.085 159.587 353.766 175.53 344.923 187.837C339.315 196.588 330.724 202.942 321.56 207.736C335.759 213.184 348.479 223.174 355.578 236.8C365.328 255.472 365.075 279.088 354.592 297.336C347.401 310.136 335.346 319.794 321.892 325.414C308.439 331.034 293.482 333.007 278.951 332.846H256L256 384.421C264.431 384.429 272.865 384.428 281.302 384.413C291.676 384.444 302.062 384.414 312.451 384.384C329.19 384.336 345.934 384.288 362.644 384.493C362.862 395.974 362.862 407.455 362.609 418.844H362.667C344.09 419.058 325.481 419.035 306.845 419.013C296.404 419 285.955 418.988 275.498 419.016C268.999 419.004 262.499 418.999 256 418.999L256 512C397.385 512 512 397.385 512 256C512 114.615 397.385 0 256 0Z" fill="#4ACFD9"/>
<path fill-rule="evenodd" clip-rule="evenodd" d="M256 297.945C259.826 297.95 263.653 297.956 267.481 297.956C268.219 297.956 268.958 297.958 269.699 297.961C277.487 297.986 285.392 298.012 292.829 295.226C298.322 293.26 303.226 289.934 307.084 285.557C310.941 281.18 313.625 275.896 314.885 270.199C316.777 260.622 315.791 250.139 310.297 241.881C305.09 233.623 295.971 228.416 286.555 226.523C279.696 225.439 272.694 225.48 265.733 225.52C263.638 225.532 261.547 225.544 259.464 225.526C258.309 225.526 257.155 225.527 256 225.529V297.945Z" fill="#4ACFD9"/>
<path fill-rule="evenodd" clip-rule="evenodd" d="M256 418.999C262.488 418.999 268.976 419.004 275.464 419.017C285.902 418.988 296.339 419 306.773 419.013C325.403 419.035 344.025 419.058 362.632 418.845C362.885 407.455 362.885 395.974 362.632 384.493C345.908 384.288 329.157 384.336 312.415 384.384C302.026 384.414 291.641 384.444 281.267 384.413C272.843 384.428 264.42 384.429 256 384.421V418.999Z" fill="#0295AA"/>
<path fill-rule="evenodd" clip-rule="evenodd" d="M256 194.97L262.859 194.976C264.608 194.934 266.363 194.955 268.117 194.976C273.562 195.041 278.998 195.106 284.238 193.278C295.639 189.794 305.881 179.528 307.693 166.498C309.345 155.787 307.452 143.922 300.513 135.702C293.161 126.863 281.761 122.585 270.945 123.032H256V194.97Z" fill="#4ACFD9"/>
<path d="M278.652 332.772C293.184 332.932 308.128 331.12 321.594 325.34C335.059 319.559 347.102 310.062 354.293 297.262C364.776 279.014 365.029 255.398 355.28 236.726C348.18 223.1 335.46 213.11 321.261 207.662C330.437 202.868 339.016 196.514 344.624 187.763C353.467 175.456 354.786 159.513 352.802 144.901C350.598 132.688 344.517 121.511 335.46 113.027C321.984 100.56 303.632 94.1941 285.579 93.0356H256V194.036V298.008V332.772H278.652ZM314.574 270.171C313.315 275.868 310.631 281.151 306.773 285.528C302.916 289.905 298.011 293.232 292.518 295.198C284.432 298.249 275.67 297.927 267.171 297.927L256 298.008V225.417L259.153 225.497C259.153 225.497 277.321 225.084 286.244 226.495C295.661 228.388 304.745 233.595 309.941 241.853C315.48 250.111 316.467 260.594 314.574 270.171ZM256 127.479H270.634C281.45 127.066 292.851 131.023 300.203 139.201C307.142 146.805 309.034 157.781 307.383 167.691C305.571 179.745 295.328 189.242 283.928 192.465C277.046 194.702 269.728 193.876 262.548 194.036H256V127.479Z" fill="white"/>
<path d="M256 332.726V93.0357C256 93.0357 194.5 92.9554 149 93.0357C149.08 103.53 148.908 114.013 149.08 124.588C154.941 124.829 160.802 125.907 165.929 128.878C176.573 134.246 183.432 145.566 184.59 157.288C185.145 166.949 181.845 176.437 175.414 183.668C168.716 191.02 158.979 195.642 149.034 195.229C149.115 204.806 149.034 214.383 149.115 224.052C156.054 224.545 163.153 226.117 168.854 230.246C179.257 236.932 185.198 249.4 184.624 261.626C185.069 267.942 183.934 274.268 181.321 280.035C175.701 292.342 162.66 301.013 149.034 300.772C149.115 311.416 149.034 322.071 149.034 332.726H256ZM256 298.008C239.943 298.008 220.523 298.008 220.523 298.008C220.362 273.807 220.523 225.417 220.523 225.417C220.523 225.417 242.627 225.417 256 225.417V298.008ZM220.5 127.479H256V194.036H220.523C220.58 171.82 220.58 149.695 220.5 127.479Z" fill="#E6EAEA"/>
</svg>
