<svg width="512" height="512" viewBox="0 0 512 512" fill="none" xmlns="http://www.w3.org/2000/svg">
<g clip-path="url(#clip0_1_225)">
<path fill-rule="evenodd" clip-rule="evenodd" d="M421.027 199.521L456.768 239.035C460.783 243.555 463.02 249.645 462.993 255.98C462.966 262.314 460.678 268.381 456.625 272.859L256 494.666V398.357L374.945 266.853C377.527 263.972 378.975 260.081 378.975 256.026C378.975 251.971 377.527 248.08 374.945 245.199L368.846 238.456L421.027 199.521ZM355.312 223.493L256 113.696V17.0704L406.159 183.083L355.312 223.493ZM232.544 0C232.222 -0.0159331 231.9 -0.0239258 231.577 -0.0239258C231.254 -0.0239258 230.931 -0.0159331 230.609 0H232.544Z" fill="#0295AA"/>
<path fill-rule="evenodd" clip-rule="evenodd" d="M256 418.754L512 131.714L256 322.656V418.754Z" fill="#BCD643"/>
<path fill-rule="evenodd" clip-rule="evenodd" d="M256.879 495.69L247.824 505.701C245.806 507.932 243.41 509.703 240.773 510.911C238.136 512.119 235.31 512.74 232.456 512.74C229.601 512.74 226.775 512.119 224.138 510.911C221.501 509.703 219.105 507.932 217.087 505.701L7.40733 273.883C5.3772 271.659 3.76572 269.013 2.66598 266.097C1.56623 263.18 1 260.052 1 256.892C1 253.733 1.56623 250.604 2.66598 247.688C3.76572 244.772 5.3772 242.125 7.40733 239.901L217.087 8.0838C219.099 5.83933 221.493 4.05772 224.13 2.84186C226.768 1.62601 229.598 1 232.456 1C235.314 1 238.143 1.62601 240.781 2.84186C243.419 4.05772 245.813 5.83933 247.824 8.0838L256.879 18.0944V114.72L242.392 98.7033C241.108 97.2775 239.582 96.1462 237.901 95.3743C236.22 94.6024 234.419 94.205 232.599 94.205C230.779 94.205 228.977 94.6024 227.296 95.3743C225.616 96.1462 224.09 97.2775 222.806 98.7033L89.3731 246.223C88.0835 247.643 87.0602 249.33 86.362 251.188C85.6638 253.046 85.3044 255.038 85.3044 257.05C85.3044 259.062 85.6638 261.054 86.362 262.912C87.0602 264.77 88.0835 266.458 89.3731 267.877L222.806 415.397C225.411 418.251 228.931 419.852 232.599 419.852C236.266 419.852 239.786 418.251 242.392 415.397L256.879 399.381V495.69Z" fill="#365558"/>
<path fill-rule="evenodd" clip-rule="evenodd" d="M257 321.771L232.046 340.392L89 266L233.955 443.348L257 417.54V321.771Z" fill="#BCD643"/>
</g>
<defs>
<clipPath id="clip0_1_225">
<rect width="512" height="512" fill="white"/>
</clipPath>
</defs>
</svg>
