<svg width="512" height="512" viewBox="0 0 512 512" fill="none" xmlns="http://www.w3.org/2000/svg">
<path d="M364.924 394.72V0H391.371V394.72H364.924Z" fill="#FF8C29"/>
<path d="M56.6973 511.97H0V117.25H54.4174C80.8646 117.25 96.2747 160.491 96.2747 228.13C96.2747 271.913 86.3777 300.207 79.5275 309.628C87.7042 320.71 98.1709 345.651 98.1709 398.343C98.1709 472.052 80.8646 511.97 56.6973 511.97ZM52.324 186.006H26.447V276.925H52.324C63.5477 276.925 69.8277 258.627 69.8277 231.451C69.8277 204.304 63.5477 186.006 52.324 186.006ZM54.034 346.225H26.447V443.244H54.034C66.0242 443.244 71.7239 421.081 71.7239 394.448C71.7239 367.846 66.0136 346.225 54.034 346.225Z" fill="#CDD4D5"/>
<path d="M178.837 350.09V511.97H152.577V350.09L111.859 117.25H140.586L165.893 276.351L190.817 117.25H219.544L178.837 350.09Z" fill="#CDD4D5"/>
<path d="M294.523 511.97H237.826V117.25H292.243C318.69 117.25 334.1 160.491 334.1 228.13C334.1 271.913 324.203 300.207 317.353 309.628C325.53 320.71 335.997 345.651 335.997 398.343C335.997 472.052 318.69 511.97 294.523 511.97ZM290.15 186.006H264.273V276.925H290.15C301.373 276.925 307.653 258.627 307.653 231.451C307.653 204.304 301.373 186.006 290.15 186.006ZM291.86 346.225H264.273V443.244H291.86C303.85 443.244 309.55 421.081 309.55 394.448C309.55 367.846 303.85 346.225 291.86 346.225Z" fill="white"/>
<path d="M476.609 186.006V512H450.163V186.006H414.772V117.25H512V186.006H476.609Z" fill="white"/>
<rect width="18" height="395" transform="matrix(-1 0 0 1 256 117)" fill="#E6EAEA"/>
</svg>
