<?xml version="1.0" encoding="UTF-8" standalone="no"?>
<svg
   width="512"
   height="512"
   viewBox="0 0 512 512"
   fill="none"
   version="1.1"
   id="svg1483"
   sodipodi:docname="bybit.svg"
   inkscape:version="1.1.1 (3bf5ae0d25, 2021-09-20)"
   xmlns:inkscape="http://www.inkscape.org/namespaces/inkscape"
   xmlns:sodipodi="http://sodipodi.sourceforge.net/DTD/sodipodi-0.dtd"
   xmlns="http://www.w3.org/2000/svg"
   xmlns:svg="http://www.w3.org/2000/svg">
  <defs
     id="defs1487" />
  <sodipodi:namedview
     id="namedview1485"
     pagecolor="#ffffff"
     bordercolor="#666666"
     borderopacity="1.0"
     inkscape:pageshadow="2"
     inkscape:pageopacity="0.0"
     inkscape:pagecheckerboard="0"
     showgrid="false"
     fit-margin-top="0"
     fit-margin-left="0"
     fit-margin-right="0"
     fit-margin-bottom="0"
     inkscape:zoom="1.0149421"
     inkscape:cx="215.28322"
     inkscape:cy="290.16435"
     inkscape:window-width="1920"
     inkscape:window-height="1013"
     inkscape:window-x="-9"
     inkscape:window-y="-9"
     inkscape:window-maximized="1"
     inkscape:current-layer="svg1483" />
  <g
     id="g1574"
     transform="matrix(5.8850845,0,0,17.655172,0,-52.965516)"
     inkscape:export-filename="C:\Users\Piyantha.K\Documents\Superalgos\Projects\Foundations\Icons-SVG-Sources\exchanges\New folder\bybit.png"
     inkscape:export-xdpi="96"
     inkscape:export-ydpi="96">
    <path
       d="M 62.0083,25.3572 V 3 h 4.4939 v 22.3572 z"
       fill="#f7a600"
       id="path1473" />
    <path
       d="M 9.63407,31.9983 H 0 V 9.64111 h 9.24666 c 4.49394,0 7.11244,2.44919 7.11244,6.28029 0,2.4799 -1.6817,4.0825 -2.8457,4.6161 1.3894,0.6277 3.1679,2.0404 3.1679,5.0249 0,4.1749 -2.9407,6.4359 -7.04723,6.4359 z M 8.89096,13.5355 H 4.4939 v 5.1497 h 4.39706 c 1.90714,0 2.97424,-1.0364 2.97424,-2.5757 0,-1.5376 -1.0671,-2.574 -2.97424,-2.574 z m 0.29055,9.0749 H 4.4939 v 5.4952 h 4.68761 c 2.03739,0 3.00589,-1.2553 3.00589,-2.7638 0,-1.5068 -0.9703,-2.7314 -3.00589,-2.7314 z"
       fill="#ffffff"
       id="path1475" />
    <path
       d="m 30.3882,22.8293 v 9.169 H 25.926 v -9.169 L 19.0073,9.64111 h 4.8813 l 4.3002,9.01159 4.2351,-9.01159 h 4.8813 z"
       fill="#ffffff"
       id="path1477" />
    <path
       d="M 50.0457,31.9983 H 40.4116 V 9.64111 h 9.2467 c 4.4939,0 7.1124,2.44919 7.1124,6.28029 0,2.4799 -1.6817,4.0825 -2.8457,4.6161 1.3894,0.6277 3.168,2.0404 3.168,5.0249 0,4.1749 -2.9408,6.4359 -7.0473,6.4359 z M 49.3026,13.5355 h -4.3971 v 5.1497 h 4.3971 c 1.9071,0 2.9742,-1.0364 2.9742,-2.5757 0,-1.5376 -1.0671,-2.574 -2.9742,-2.574 z m 0.2905,9.0749 h -4.6876 v 5.4952 h 4.6876 c 2.0374,0 3.0059,-1.2553 3.0059,-2.7638 0,-1.5068 -0.9685,-2.7314 -3.0059,-2.7314 z"
       fill="#ffffff"
       id="path1479" />
    <path
       d="M 80.986,13.5355 V 32 H 76.4921 V 13.5355 H 70.4785 V 9.64111 h 16.5211 v 3.89439 z"
       fill="#ffffff"
       id="path1481" />
  </g>
</svg>
