<svg width="512" height="512" viewBox="0 0 512 512" fill="none" xmlns="http://www.w3.org/2000/svg">
<g clip-path="url(#clip0_1_448)">
<path fill-rule="evenodd" clip-rule="evenodd" d="M256 0H247.145C182.561 2.10832 121.171 28.5917 75.3199 74.1242C29.4689 119.657 2.55834 180.861 0 245.429V266.857C1.61094 305.685 12.0145 343.64 30.4267 377.863C50.8008 415.924 80.4966 448.194 116.736 471.656C152.975 495.117 194.574 509.003 237.64 512.013H512V512H256V448.037C231.705 448.055 207.618 443.456 185.024 434.477C161.532 425.141 140.116 411.253 122.01 393.611C103.904 375.97 89.4631 354.923 79.519 331.681C69.5749 308.439 64.3233 283.461 64.0662 258.183C63.8092 232.904 68.5517 207.824 78.0211 184.385C87.4905 160.946 101.5 139.61 119.244 121.604C136.988 103.598 158.116 89.2768 181.414 79.4647C204.712 69.6526 229.719 64.5428 254.999 64.4291C255.333 64.4183 255.666 64.4081 256 64.3986V0ZM256 112.007H254.141C251.935 112.212 249.727 112.362 247.518 112.511C243.726 112.768 239.933 113.024 236.145 113.567C210.318 117.087 185.949 127.615 165.682 144.007C147.71 158.449 133.467 176.994 124.151 198.084C114.835 219.174 110.719 242.192 112.147 265.204C113.575 288.215 120.507 310.548 132.359 330.324C144.211 350.1 160.638 366.742 180.258 378.851C201.917 392.285 226.775 399.684 252.255 400.28H256V335.99C248.333 335.824 240.711 335.01 233.414 332.717C215.387 327.263 199.827 315.694 189.412 300.002C181.78 288.464 177.29 275.135 176.384 261.331C175.478 247.527 178.189 233.726 184.249 221.29C190.309 208.855 199.507 198.215 210.937 190.421C222.366 182.628 235.631 177.951 249.421 176.852C251.608 176.695 253.802 176.587 256 176.513V112.007ZM256 223.857C250.289 223.837 244.674 225.333 239.73 228.193C234.787 231.054 230.691 235.175 227.862 240.137C225.017 245.178 223.57 250.888 223.671 256.676C223.771 262.464 225.416 268.12 228.434 273.06C230.879 277.079 234.186 280.504 238.117 283.088C242.048 285.672 246.504 287.35 251.163 288C252.771 288.175 254.385 288.289 256 288.344V223.857Z" fill="#0295AA"/>
<path fill-rule="evenodd" clip-rule="evenodd" d="M512 0H256V64.397C262.307 64.2156 268.614 64.2411 274.926 64.2666C277.142 64.2755 279.359 64.2844 281.577 64.2844H512V0ZM256 448.026V512H512V448.002H258.899C257.933 448.017 256.966 448.025 256 448.026ZM256 400.27V335.981C257.897 336.022 259.797 336.024 261.695 335.998H400.137C390.714 345.541 381.182 354.977 371.649 364.414C359.648 376.294 347.646 388.175 335.863 400.27H256ZM256 176.508V112.004H337.424C343.145 117.426 348.71 122.991 354.002 128.712C369.996 144.419 385.716 160.425 401.424 176.418H279.561C277.342 176.418 275.117 176.404 272.887 176.39C267.267 176.354 261.621 176.319 256 176.508ZM256 288.336V223.851H448.598C456.785 232.396 465.18 240.763 473.607 249.161C475.889 251.435 478.172 253.711 480.455 255.993L448.026 288.422C416.956 288.35 385.921 288.35 354.885 288.35C323.849 288.35 292.811 288.35 261.734 288.279C259.824 288.382 257.911 288.401 256 288.336ZM512 112.004H400.565C406.615 118.047 412.64 124.117 418.66 130.182C427.288 138.875 435.905 147.556 444.567 156.134C447.186 158.698 449.72 161.344 452.248 163.984C456.349 168.266 460.436 172.533 464.852 176.418C475.332 176.513 485.806 176.482 496.281 176.45C501.52 176.434 506.759 176.418 512 176.418V112.004ZM434.676 364.932C422.831 376.675 410.997 388.407 399.292 400.27H512V335.998H463.72C454.075 345.701 444.372 355.321 434.676 364.932Z" fill="#4ACFD9"/>
</g>
<defs>
<clipPath id="clip0_1_448">
<rect width="512" height="512" fill="white"/>
</clipPath>
</defs>
</svg>
