<svg width="512" height="512" viewBox="0 0 512 512" fill="none" xmlns="http://www.w3.org/2000/svg">
<g clip-path="url(#clip0_320_323)">
<path fill-rule="evenodd" clip-rule="evenodd" d="M256 0C244.092 0.304688 232.162 1.39893 220.292 3.29761C158.776 13.1372 102.853 43.9414 62.5024 90.2122C22.1519 136.483 0 195.21 0 255.912C0 316.614 22.1519 375.341 62.5024 421.612C102.853 467.883 158.776 498.687 220.292 508.526C232.162 510.425 244.092 511.519 256 511.824V404.482C232.131 403.426 208.815 396.928 187.945 385.474C165.085 372.929 145.931 354.861 132.328 333.011C118.725 311.162 111.132 286.268 110.282 260.73C109.432 235.193 115.353 209.873 127.474 187.211C139.595 164.55 157.508 145.312 179.485 131.351C201.463 117.39 226.763 109.178 252.947 107.507C253.965 107.442 254.982 107.387 256 107.342V0Z" fill="#0295AA"/>
<path fill-rule="evenodd" clip-rule="evenodd" d="M512 174.105L450.63 256.001L512 337.896C492.057 395.408 451.775 444.149 398.344 475.419C355.223 500.655 305.801 513.188 256 511.913V404.571C258.275 404.672 260.555 404.723 262.838 404.724C317.924 404.724 371.156 374.078 398.048 331.582L448.126 256.001L388.033 170.667C372.977 149.741 352.638 132.944 328.977 121.897C306.236 111.279 281.163 106.316 256 107.43L256 0.0883824C305.801 -1.18641 355.223 11.3461 398.344 36.5821C451.775 67.8524 492.057 116.593 512 174.105ZM6.10352e-05 256.175V255.826C6.10352e-05 255.884 0 255.942 0 256.001C0 256.059 6.10352e-05 256.117 6.10352e-05 256.175Z" fill="#4ACFD9"/>
</g>
<defs>
<clipPath id="clip0_320_323">
<rect width="512" height="512" fill="white"/>
</clipPath>
</defs>
</svg>
