<?xml version="1.0" encoding="UTF-8" standalone="no"?>
<svg
   xmlns:dc="http://purl.org/dc/elements/1.1/"
   xmlns:cc="http://creativecommons.org/ns#"
   xmlns:rdf="http://www.w3.org/1999/02/22-rdf-syntax-ns#"
   xmlns:svg="http://www.w3.org/2000/svg"
   xmlns="http://www.w3.org/2000/svg"
   xmlns:sodipodi="http://sodipodi.sourceforge.net/DTD/sodipodi-0.dtd"
   xmlns:inkscape="http://www.inkscape.org/namespaces/inkscape"
   version="1.1"
   id="Layer_1"
   x="0px"
   y="0px"
   viewBox="206 -206 512 512"
   style="enable-background:new 206 -206 512 512;"
   xml:space="preserve"
   sodipodi:docname="coinbasepro.svg"
   inkscape:version="1.0.1 (3bc2e813f5, 2020-09-07)"
   inkscape:export-filename="E:\Superalgos\Projects\Foundations\Icons-SVG-Sources\exchanges\coinbasepro.png"
   inkscape:export-xdpi="100"
   inkscape:export-ydpi="100"><metadata
   id="metadata30"><rdf:RDF><cc:Work
       rdf:about=""><dc:format>image/svg+xml</dc:format><dc:type
         rdf:resource="http://purl.org/dc/dcmitype/StillImage" /><dc:title></dc:title></cc:Work></rdf:RDF></metadata><defs
   id="defs28" /><sodipodi:namedview
   pagecolor="#ffffff"
   bordercolor="#666666"
   borderopacity="1"
   objecttolerance="10"
   gridtolerance="10"
   guidetolerance="10"
   inkscape:pageopacity="0"
   inkscape:pageshadow="2"
   inkscape:window-width="1920"
   inkscape:window-height="1017"
   id="namedview26"
   showgrid="false"
   inkscape:zoom="0.70710678"
   inkscape:cx="10.380813"
   inkscape:cy="332.42755"
   inkscape:window-x="-8"
   inkscape:window-y="-8"
   inkscape:window-maximized="1"
   inkscape:current-layer="Layer_1"
   inkscape:document-rotation="0" />
<style
   type="text/css"
   id="style2">
	.st0{display:none;}
	.st1{display:inline;}
	.st2{display:none;fill:#FFFFFF;}
	.st3{fill:#FF8C29;}
	.st4{fill:#FD6A33;}
</style>
<g
   id="Layer_3"
   class="st0">
	<rect
   x="1236"
   y="-1236.4"
   class="st1"
   width="512"
   height="512.8"
   id="rect4" />
</g>
<polygon
   id="Fill-612"
   class="st2"
   points="554.3,-114.1 664.1,-59.1 664.1,29.3 " />
<polygon
   id="Fill-613"
   class="st2"
   points="781,-114.1 670.8,29.3 670.8,-59.1 " />








<rect
   x="-424"
   y="-206"
   class="st3"
   width="128"
   height="128"
   id="rect18"
   style="fill:#f0353d" /><rect
   x="-296"
   y="-206"
   class="st4"
   width="128"
   height="128"
   id="rect20"
   style="fill:#fd6a33" /><rect
   x="-167.99998"
   y="-206"
   class="st5"
   width="128"
   height="128"
   id="rect22"
   style="fill:#ff8c29" /><rect
   x="-39.999939"
   y="-206"
   class="st6"
   width="128"
   height="128"
   id="rect24"
   style="fill:#ffd1a9" /><rect
   x="-424"
   y="-78"
   class="st1"
   width="128"
   height="128"
   id="rect26"
   style="fill:#365558" /><rect
   x="-296"
   y="-78"
   class="st0"
   width="128"
   height="128"
   id="rect28"
   style="fill:#0295aa" /><rect
   x="-167.99998"
   y="-78"
   class="st7"
   width="128"
   height="128"
   id="rect30"
   style="fill:#4acfd9" /><rect
   x="-424"
   y="50"
   class="st8"
   width="128"
   height="128"
   id="rect32"
   style="fill:#9baaab" /><rect
   x="-296"
   y="50"
   class="st9"
   width="128"
   height="128"
   id="rect34"
   style="fill:#cdd4d5" /><rect
   x="-167.99998"
   y="50"
   class="st10"
   width="128"
   height="128"
   id="rect36"
   style="fill:#e6eaea" /><rect
   x="-39.999939"
   y="50"
   class="st11"
   width="128"
   height="128"
   id="rect38"
   style="fill:#ffffff" /><rect
   x="-424"
   y="178"
   class="st12"
   width="128"
   height="128"
   id="rect40"
   style="fill:#bcd643" /><rect
   x="-306.07611"
   y="629.55963"
   class="st0"
   width="128"
   height="128"
   id="rect28-4"
   style="fill:#0295aa" /><rect
   x="-296"
   y="-78"
   class="st7"
   width="128"
   height="128"
   id="rect30-0"
   style="fill:#0295aa;fill-opacity:1" /><g
   id="g948"
   transform="matrix(1.2487805,0,0,1.2487805,-115.31498,-12.49647)"><circle
     style="fill:#365558;fill-opacity:1;stroke-width:1.11937"
     id="path878-4"
     cx="462.30301"
     cy="50.046001"
     r="205" /><path
     id="path878"
     style="fill:#e6eaea;fill-opacity:1;stroke-width:0.873651"
     d="M 256.30273,96.044922 A 160,160 0 0 0 96.302734,256.04492 a 160,160 0 0 0 159.999996,160 160,160 0 0 0 159.38086,-145.92969 h -80.6289 a 80,80 0 0 1 -78.75196,65.93165 80,80 0 0 1 -80,-80 80,80 0 0 1 79.94141,-80 80,80 0 0 1 0.0586,0 80,80 0 0 1 78.72657,65.7832 h 80.63867 A 160,160 0 0 0 256.30273,96.044922 Z"
     transform="translate(206,-206)" /></g></svg>
