<svg width="512" height="512" viewBox="0 0 512 512" fill="none" xmlns="http://www.w3.org/2000/svg">
<g clip-path="url(#clip0_1_242)">
<path fill-rule="evenodd" clip-rule="evenodd" d="M275.454 0C273.33 3.18262 272.341 6.98828 272.647 10.8022L272.35 85.4822C273.22 102.665 279.959 119.028 291.441 131.838L381.162 221.828C391.621 231.19 404.551 237.346 418.41 239.563H505.962C508.222 239.181 510.321 238.146 512 236.586L275.454 0ZM379.844 292.043C392.608 280.567 408.96 273.878 426.106 273.118L501.242 273.288C504.519 273.119 507.78 273.839 510.682 275.372L274.135 512C272.607 509.424 271.785 506.49 271.754 503.494V426.943C272.634 409.77 279.494 393.446 291.144 380.8L379.844 292.043ZM256 354.942V157.355H269.543L354.841 242.795L354.713 242.922C356.485 244.692 357.891 246.793 358.85 249.107C359.809 251.42 360.302 253.9 360.302 256.404C360.302 258.908 359.809 261.388 358.85 263.701C357.891 266.014 356.485 268.116 354.713 269.885L268.522 354.942H256Z" fill="#4ACFD9"/>
<path fill-rule="evenodd" clip-rule="evenodd" d="M274.11 512H274.178L274.135 512.043C274.127 512.028 274.119 512.014 274.11 512ZM256 157.368V354.972H241.479L156.436 269.483V242.432L242.032 157.368H256ZM131.008 220.06C118.145 231.425 101.837 238.136 84.7026 239.115L10.035 238.86C6.54368 239.079 3.06218 238.297 0 236.605L236.546 0C238.484 3.18735 239.321 6.92339 238.928 10.633V85.3192C237.967 102.443 231.186 118.725 219.708 131.466L131.008 220.06ZM219.283 380.661C230.69 393.432 237.409 409.708 238.332 426.808L239.225 502.771C239.255 505.685 238.705 508.576 237.61 511.277L1.02051 274.629C3.98069 273.235 7.23396 272.579 10.5028 272.715H84.405C101.525 273.676 117.802 280.459 130.541 291.94L219.283 380.661Z" fill="#0295AA"/>
</g>
<defs>
<clipPath id="clip0_1_242">
<rect width="512" height="512" fill="white"/>
</clipPath>
</defs>
</svg>
