<svg width="512" height="512" viewBox="0 0 512 512" fill="none" xmlns="http://www.w3.org/2000/svg">
<g clip-path="url(#clip0_311_119)">
<path fill-rule="evenodd" clip-rule="evenodd" d="M256 512V0C114.615 0 0 114.615 0 256C0 397.385 114.615 512 256 512Z" fill="#365558"/>
<path fill-rule="evenodd" clip-rule="evenodd" d="M255.805 56C255.805 56 255.805 56 255.805 56C202.813 56 151.992 77.0508 114.521 114.521C77.0508 151.992 56 202.813 56 255.805C56 308.796 77.0508 359.618 114.521 397.088C151.992 434.559 202.813 455.61 255.805 455.61C255.805 455.61 255.805 455.61 255.805 455.61V355.71C255.805 355.71 255.805 355.71 255.805 355.71C229.309 355.71 203.899 345.184 185.163 326.449C166.428 307.714 155.902 282.303 155.902 255.807C155.902 229.324 166.418 203.925 185.137 185.191C203.857 166.458 229.249 155.924 255.732 155.905H255.805C255.805 155.905 255.805 155.905 255.805 155.905V56Z" fill="#E6EAEA"/>
<path fill-rule="evenodd" clip-rule="evenodd" d="M222 510C232.606 511.32 243.412 512 254.378 512C396.745 512 512.155 397.385 512.155 256C512.155 114.615 396.745 0 254.378 0V510H222Z" fill="#0295AA"/>
<path fill-rule="evenodd" clip-rule="evenodd" d="M254.378 455.61C304.675 455.61 353.148 436.901 390.243 403.17C427.34 369.439 450.368 323.132 454.791 273.376H353.405C349.252 296.459 337.057 317.356 318.952 332.408C300.848 347.461 277.99 355.709 254.378 355.71V455.61ZM254.378 155.905C277.957 155.905 300.787 164.131 318.881 179.145C336.975 194.16 349.182 215.01 353.373 238.054H454.772C450.306 188.333 427.261 142.073 390.174 108.38C353.087 74.6867 304.643 56.0007 254.378 56V155.905Z" fill="white"/>
</g>
<defs>
<clipPath id="clip0_311_119">
<rect width="512" height="512" fill="white"/>
</clipPath>
</defs>
</svg>
