<svg width="512" height="512" viewBox="0 0 512 512" fill="none" xmlns="http://www.w3.org/2000/svg">
<g clip-path="url(#clip0_1_244)">
<path fill-rule="evenodd" clip-rule="evenodd" d="M269.441 159.818C297.008 159.818 323.478 170.266 343.185 188.925L512.017 351.524C495.469 388.071 470.868 420.674 439.936 447.05C386.141 491.401 331.149 511.42 264.654 511.42C261.766 511.422 258.881 511.378 256.001 511.289V444.356C258.88 444.479 261.765 444.54 264.654 444.539C296.364 444.442 327.586 436.964 355.685 422.736C383.784 408.508 407.936 387.948 426.105 362.789L294.577 236.431C287.968 230.065 279.045 226.459 269.722 226.387C264.975 226.35 260.316 227.231 256.001 228.931V160.65C260.435 160.098 264.923 159.818 269.441 159.818ZM256.001 359.781C260.608 360.393 265.276 360.711 269.978 360.725C297.667 360.81 324.278 350.336 344.049 331.57C344.781 330.862 347.64 327.836 352.694 322.429L303.487 275.117C298.434 280.782 295.774 283.743 295.441 284C288.763 290.431 279.726 294.041 270.306 294.041C265.334 294.041 260.469 293.035 256.001 291.14V359.781ZM256.001 66.8697C286.461 65.5705 316.854 71.1975 344.724 83.3466C375.099 96.5871 401.466 117.133 421.317 143.03C415.554 149.552 400.726 165.795 376.832 191.758L425.573 238.169L505.9 150.947C486.48 108.892 455.697 72.6887 416.798 46.1545C377.898 19.6203 332.324 3.73835 284.879 0.183349C272.12 -0.77266 259.353 -0.827691 246.676 7.62376e-08L256.001 7.62373e-08V66.8697Z" fill="#BCD643"/>
<path fill-rule="evenodd" clip-rule="evenodd" d="M255.984 67.5429V0.5802L282.225 0.5802C235.655 -2.4622 189.067 6.4982 147.201 26.5724C104.549 47.0242 68.3789 78.2539 42.5057 116.969C16.6325 155.683 2.01478 200.449 0.19375 246.544C-1.62728 292.64 9.4159 338.358 32.1589 378.877C54.9019 419.397 88.5019 453.217 129.416 476.771C167.85 498.897 211.4 511.195 255.984 512.578V445.553C225.668 444.26 196.038 436.128 169.469 421.756C140.38 406.021 115.931 383.33 98.4473 355.844C80.9639 328.357 71.0292 296.99 69.5888 264.728C68.1485 232.467 75.2505 200.385 90.2187 171.537C105.187 142.689 127.523 118.035 155.101 99.9222C182.678 81.8098 214.579 70.8417 247.766 68.0621C250.505 67.8328 253.245 67.6598 255.984 67.5429ZM255.984 292.128V360.862C233.455 357.869 212.388 347.862 196.073 332.159C186.363 322.856 178.646 311.784 173.367 299.579C168.088 287.374 165.352 274.278 165.314 261.044C165.277 247.81 167.941 234.699 173.151 222.467C178.361 210.234 186.016 199.121 195.674 189.768C212.153 174.143 233.361 164.268 255.984 161.452V229.826C251.821 231.467 247.977 233.872 244.68 236.952C238.176 243.382 234.571 252.052 234.658 261.057C234.745 270.062 238.518 278.665 245.145 284.974C248.301 288.018 251.984 290.43 255.984 292.128ZM256.059 512.58C258.911 512.668 261.768 512.711 264.628 512.709C267.701 512.709 270.749 512.666 273.773 512.58H256.059Z" fill="#BCD643"/>
</g>
<defs>
<clipPath id="clip0_1_244">
<rect width="512" height="512" fill="white"/>
</clipPath>
</defs>
</svg>
