<svg width="512" height="512" viewBox="0 0 512 512" fill="none" xmlns="http://www.w3.org/2000/svg">
<g clip-path="url(#clip0_1_476)">
<path fill-rule="evenodd" clip-rule="evenodd" d="M512 257.831V259.288C512.011 258.335 512 257.831 512 257.831ZM256 512V341.333H165.182V170.901L256 170.669V0H252.787V84.2346H164.954V0H84.2622V84.2346H0L0.371325 170.667H83.9194V340.982H0V424.835H84.2622V512H164.954V424.835H252.787V512H256Z" fill="#0295AA"/>
<path fill-rule="evenodd" clip-rule="evenodd" d="M438.192 112.801C473.982 136.797 510.229 180.189 512 257.831C512 257.831 514.142 356.569 428.452 404.326C403.642 417.957 375.904 425.007 347.76 424.835H333.478V512H256V341.333H348.246C366.366 341.524 384.026 335.479 398.403 324.164C407.429 316.86 414.814 307.647 420.054 297.15C426.812 283.898 430.275 269.139 430.136 254.183C429.996 239.228 426.259 224.539 419.254 211.422C414.516 202.446 408.095 194.519 400.359 188.098C392.624 181.677 383.727 176.888 374.181 174.007C365.915 171.542 357.34 170.337 348.731 170.432L256 170.669V0H333.45V84.2346H342.019C376.1 83.9838 409.515 93.9094 438.192 112.801Z" fill="#4ACFD9"/>
</g>
<defs>
<clipPath id="clip0_1_476">
<rect width="512" height="512" fill="white"/>
</clipPath>
</defs>
</svg>
