<svg width="512" height="512" viewBox="0 0 512 512" fill="none" xmlns="http://www.w3.org/2000/svg">
<g clip-path="url(#clip0_1_479)">
<path fill-rule="evenodd" clip-rule="evenodd" d="M255.999 187.74L239.326 171.05C236.764 168.485 232.611 168.485 230.049 171.05L149.951 251.23C147.389 253.795 147.389 257.953 149.951 260.517L230.151 340.8C232.713 343.364 236.867 343.364 239.428 340.8L255.999 324.212V187.74Z" fill="#0295AA"/>
<path fill-rule="evenodd" clip-rule="evenodd" d="M256 373.653L117.885 511.964H255.883C255.922 511.964 255.961 511.964 256 511.964V373.653Z" fill="#0295AA"/>
<path fill-rule="evenodd" clip-rule="evenodd" d="M65.7101 511.964H26.0961C19.2062 511.964 12.5958 509.237 7.70697 504.377C2.81816 499.517 0.0477141 492.919 0 486.022V25.9781C0.0382057 19.075 2.80446 12.4677 7.69429 7.59997C12.5841 2.73225 19.1999 -8.85929e-05 26.0961 1.73494e-05H252.25C253.5 -0.00540892 254.75 -0.00185213 256 0.0106722V95.684L100.445 251.387C99.2371 252.618 98.5606 254.275 98.5606 256C98.5606 257.725 99.2371 259.382 100.445 260.613L120.541 280.73L204.955 365.593C206.163 366.824 206.839 368.481 206.839 370.206C206.839 371.931 206.163 373.588 204.955 374.819L69.7582 510.155C68.6594 511.21 67.2283 511.849 65.7101 511.964Z" fill="#0295AA"/>
<path fill-rule="evenodd" clip-rule="evenodd" d="M255.746 324.214L319.273 260.622C321.835 258.057 321.835 253.899 319.273 251.335L255.746 187.743V324.214Z" fill="#4ACFD9"/>
<path fill-rule="evenodd" clip-rule="evenodd" d="M252 0.00244141H254.258C253.506 -0.000813239 252.753 -0.000814365 252 0.00244141ZM255.746 0.0131137V95.6865L337.387 13.9684C311.079 4.99991 283.519 0.291484 255.746 0.0131137Z" fill="#4ACFD9"/>
<path fill-rule="evenodd" clip-rule="evenodd" d="M255.746 511.967C312.686 512.158 368.053 493.27 413.028 458.311C458.034 423.327 490.041 374.265 503.944 318.948C517.847 263.632 512.845 205.249 489.735 153.111C466.626 100.972 426.74 58.082 376.44 31.281C375.17 30.5417 373.689 30.2504 372.234 30.4537C370.78 30.6571 369.435 31.3434 368.416 32.4027L263.851 137.021C262.645 138.249 261.969 139.902 261.969 141.625C261.969 143.347 262.645 145.001 263.851 146.229L348.537 231.254L368.778 251.154C369.984 252.382 370.66 254.036 370.66 255.758C370.66 257.481 369.984 259.134 368.778 260.362L348.537 280.732L255.746 373.654V511.967Z" fill="#4ACFD9"/>
</g>
<defs>
<clipPath id="clip0_1_479">
<rect width="512" height="512" fill="white"/>
</clipPath>
</defs>
</svg>
