<svg width="512" height="512" viewBox="0 0 512 512" fill="none" xmlns="http://www.w3.org/2000/svg">
<path fill-rule="evenodd" clip-rule="evenodd" d="M256 486.028C394.392 485.401 477.562 412.634 505.515 267.755C509.837 243.651 511.997 222.549 511.997 204.47H512C512 192.325 511.209 180.767 509.68 169.779L388.449 239.523C387.74 245.094 386.816 250.636 385.679 256.136C370.252 338.887 327.032 381.67 256 384.492V486.028ZM256 125.377H297.324C323.478 125.377 344.153 130.42 359.311 140.484L468.055 77.9313H468.054C466.473 76.2744 464.891 74.6738 463.228 73.0691C444.484 55.1778 421.488 42.3873 394.169 34.6598C373.604 28.8564 350.638 25.9666 325.193 25.9666H256V125.377Z" fill="#4ACFD9"/>
<path fill-rule="evenodd" clip-rule="evenodd" d="M256 211.724V312.104H278.173L294.283 211.724L256 211.724Z" fill="#BCD643"/>
<path fill-rule="evenodd" clip-rule="evenodd" d="M256 26H143.119L122.367 122.889L121.84 125.41H256V26ZM256 384.526C253.491 384.625 250.948 384.675 248.37 384.675H183.336L161.943 485.015L161.708 486.066H254.191C254.795 486.066 255.398 486.065 256 486.062V384.526Z" fill="#0295AA"/>
<path fill-rule="evenodd" clip-rule="evenodd" d="M256 211.758L103.086 211.758L62.2432 402.287L0 486.067H165.78L166.019 485.019L202.849 312.137H256V211.758Z" fill="#BCD643"/>
</svg>
