<svg width="512" height="512" viewBox="0 0 512 512" fill="none" xmlns="http://www.w3.org/2000/svg">
<g clip-path="url(#clip0_1_501)">
<path fill-rule="evenodd" clip-rule="evenodd" d="M0 256C0 114.617 114.617 0 256 0V90.6628C245.222 90.6627 234.418 91.7166 223.744 93.8398C191.672 100.219 162.212 115.966 139.089 139.089C115.966 162.212 100.219 191.672 93.8398 223.744C87.4602 255.817 90.7344 289.06 103.248 319.272C115.762 349.483 136.954 375.305 164.144 393.473C191.333 411.64 223.299 421.337 256 421.337V512C114.617 512 0 397.383 0 256Z" fill="#0295AA"/>
<path fill-rule="evenodd" clip-rule="evenodd" d="M256 0V90.6628C277.608 90.6629 299.115 94.8991 319.271 103.248C349.483 115.762 375.306 136.954 393.473 164.144C411.641 191.333 421.337 223.299 421.337 256C421.337 299.85 403.918 341.904 372.911 372.911C341.904 403.918 299.851 421.337 256 421.337V512C397.383 512 512 397.383 512 256C512 114.617 397.383 0 256 0Z" fill="#4ACFD9"/>
</g>
<defs>
<clipPath id="clip0_1_501">
<rect width="512" height="512" fill="white"/>
</clipPath>
</defs>
</svg>
