<?xml version="1.0" encoding="utf-8"?>
<!-- Generator: Adobe Illustrator 19.0.0, SVG Export Plug-In . SVG Version: 6.00 Build 0)  -->
<svg version="1.1" id="Layer_1" xmlns="http://www.w3.org/2000/svg" xmlns:xlink="http://www.w3.org/1999/xlink" x="0px" y="0px"
	 viewBox="-543 195 512 512" style="enable-background:new -543 195 512 512;" xml:space="preserve">
<style type="text/css">
	.st0{fill:#CDD4D5;}
	.st1{fill:#9BAAAB;}
	.st2{fill:#4ACFD9;}
	.st3{fill:#0295AA;}
	.st4{fill:#E6EAEA;}
	.st5{fill:none;stroke:#CDD4D5;stroke-width:10;stroke-linejoin:round;stroke-miterlimit:10;}
	.st6{fill:none;stroke:#E6EAEA;stroke-width:10;stroke-linejoin:round;stroke-miterlimit:10;}
	.st7{fill:#FF8C29;}
	.st8{fill:#FD6A33;}
	.st9{fill:#FFFFFF;}
</style>
<path class="st0" d="M-69,617.7h-214.6V650H-69c7.5,0,13.6-6.1,13.6-13.6v-5.1C-55.5,623.8-61.6,617.7-69,617.7z"/>
<path class="st1" d="M-501.6,617.7c-7.5,0-13.6,6.1-13.6,13.6v5.1c0,7.5,6.1,13.6,13.6,13.6h218v-32.3H-501.6L-501.6,617.7z"/>
<path class="st2" d="M-38.5,305.7l-202.1-100.3c-11.8-6.9-27.4-10.4-43-10.4v135.8h238.3C-31.4,330.8-24.9,314.5-38.5,305.7z"/>
<path class="st3" d="M-326.6,205.4l-206.6,100.3c-12.6,7.3-9.8,25.1,6.8,25.1h242.7V195C-299.2,195-314.8,198.5-326.6,205.4z"/>
<path class="st2" d="M-45.3,662.5h-238.3V706h238.4c7.5,0,13.6-6.1,13.6-13.6v-16.3C-31.7,668.7-37.8,662.5-45.3,662.5z"/>
<path class="st3" d="M-527.7,662.5c-7.5,0-13.6,6.1-13.6,13.6v16.3c0,7.5,6.1,13.6,13.6,13.6h244v-43.5H-527.7z"/>
<path class="st0" d="M-69,345.6h-214.6v36.2H-69c7.5,0,13.6-6.1,13.6-13.6v-9.1C-55.5,351.7-61.6,345.6-69,345.6z"/>
<path class="st1" d="M-501.6,345.6c-7.5,0-13.6,6.1-13.6,13.6v9.1c0,7.5,6.1,13.6,13.6,13.6h218v-36.2h-218V345.6z"/>
<circle class="st0" cx="-337.9" cy="364" r="12.5"/>
<circle class="st0" cx="-439.9" cy="364" r="12.5"/>
<circle class="st4" cx="-131.3" cy="363.7" r="12.5"/>
<circle class="st4" cx="-233.4" cy="363.7" r="12.5"/>
<polyline class="st5" points="-337.9,364 -337.9,300.3 -283.6,300.3 "/>
<polyline class="st5" points="-439.9,364 -439.9,300.3 -375.7,300.3 -375.7,267 -283.6,267 "/>
<polyline class="st6" points="-232.7,364 -232.7,300.3 -286.9,300.3 "/>
<polyline class="st6" points="-130.6,364 -130.6,300.3 -194.9,300.3 -194.9,267 -286.9,267 "/>
<path class="st7" d="M-283.6,212.4v109.3c30.2,0,54.6-24.5,54.6-54.6S-253.5,212.4-283.6,212.4z"/>
<path class="st8" d="M-338.3,267c0,30.2,24.5,54.6,54.6,54.6V212.3C-313.8,212.4-338.3,236.8-338.3,267z"/>
<path class="st9" d="M-263.2,264.6c4.7-2.4,7.6-6.6,6.9-13.6c-0.9-9.6-8.8-12.8-19.3-13.7V224h-8.1v13c-2.1,0-4.3,0.1-6.4,0.1V224
	h-8.1v13.3c-3,0.1-6.5,0-16.3,0v8.7c6.4-0.1,9.8-0.5,10.6,3.6v36.5c-0.5,3.3-3.1,2.8-8.9,2.7l-1.6,9.7c14.8,0,16.3,0.1,16.3,0.1V310
	h8.1v-11.2c2.2,0.1,4.4,0.1,6.4,0.1v11.2h8.1v-11.4c13.6-0.7,22.8-4.2,24-17C-250.7,271-255.5,266.4-263.2,264.6L-263.2,264.6z
	 M-290,246.4c4.6,0,19-1.4,19,8.1c0,9.1-14.4,8.1-19,8.1V246.4L-290,246.4z M-290,288.7v-17.9c5.5,0,22.3-1.5,22.3,8.9
	C-267.7,289.8-284.5,288.7-290,288.7L-290,288.7z"/>
<path class="st8" d="M-467.9,485.4v-74.1h33.7v8.8h-23.6v25.2h21v8.8h-21v31.2H-467.9z"/>
<path class="st8" d="M-394.7,485.4l-4.5-19h-20.9l-4.4,19h-10.1l18.2-74.1h14l18.1,74.1H-394.7z M-409.3,422.3h-0.6l-8.1,35.4h16.8
	L-409.3,422.3z"/>
<path class="st8" d="M-376,485.4v-74.1h10.2v65h22.3v9H-376z"/>
<path class="st8" d="M-335.1,485.4v-74.1h10.2v65h22.3v9H-335.1z"/>
<polygon class="st8" points="-284.2,476.7 -284.2,452.2 -283.7,452.2 -283.7,443.5 -284.2,443.5 -284.2,420.1 -283.7,420.1 
	-283.7,411.3 -294.3,411.3 -294.3,485.4 -283.7,485.4 -283.7,476.7 "/>
<path class="st7" d="M-257.1,480.2c2.7-3.4,4-8.3,4-14.4c0-5.2-0.8-9.3-2.5-12.2c-1.7-2.9-4.6-4.8-8.8-5.8v-0.4
	c3.7-0.9,6.4-2.8,8.1-5.6c1.7-2.8,2.6-6.7,2.6-11.8c0-6.2-1.4-10.8-4.1-13.9c-2.7-3.1-7.1-4.7-13.1-4.7h-12.7v8.8h9.8
	c2.7,0,4.7,0.4,6.1,1.1c1.4,0.7,2.4,1.9,3,3.6c0.5,1.7,0.8,4,0.8,7.1c0,4.2-0.8,7.2-2.3,9c-1.5,1.8-4.1,2.6-7.6,2.6h-9.8v8.7h10.2
	c3.8,0,6.5,0.9,8,2.7c1.5,1.8,2.3,5,2.3,9.6c0,3.2-0.3,5.6-0.9,7.3c-0.6,1.7-1.6,3-3.1,3.7c-1.5,0.8-3.6,1.1-6.3,1.1h-10.2v8.7h12.4
	C-264.5,485.4-259.8,483.7-257.1,480.2z"/>
<path class="st7" d="M-228.9,411.3l-18.2,74.1h10.1l4.4-19h20.9l4.5,19h10.3l-18.1-74.1H-228.9z M-230.5,457.7l8.1-35.4h0.6
	l8.1,35.4H-230.5z"/>
<path class="st7" d="M-175.4,475.6c-1.8-1.2-3-3.7-3.5-7.4c-0.5-3.7-0.8-10.3-0.8-19.8c0-9.5,0.3-16.1,0.8-19.8
	c0.5-3.7,1.7-6.2,3.5-7.4c1.8-1.2,5-1.8,9.6-1.8c2.9,0,6.2,0.3,10,1v-8.2c-1.4-0.5-3.2-0.9-5.4-1.2c-2.3-0.3-4.5-0.4-6.6-0.4
	c-6.5,0-11.3,1-14.4,3.1c-3.1,2-5.1,5.6-6.1,10.8c-1,5.1-1.6,13.2-1.6,24.1c0,11,0.5,19,1.6,24.2c1,5.1,3.1,8.7,6.1,10.7
	c3,2,7.8,3,14.4,3c2,0,4.2-0.1,6.5-0.4c2.3-0.3,4.3-0.6,5.8-1.1v-8.3c-2.8,0.6-6.2,1-10.2,1C-170.5,477.4-173.6,476.8-175.4,475.6z"
	/>
<polygon class="st7" points="-101.8,411.3 -112.4,411.3 -128.2,443.4 -135.3,443.4 -135.3,411.3 -145.4,411.3 -145.4,485.4 
	-135.3,485.4 -135.3,452.2 -128.2,452.2 -112.7,485.4 -101.6,485.4 -119.8,447.1 "/>
<path class="st8" d="M-474.7,588.4l-10.3-57.5h-0.5l-10.3,57.5h-13.2l-12.7-74.1h10.2l9.3,60.8h0.8l10.7-60.8h11.6l10.9,60.8h0.5
	l9-60.8h10.1l-12.7,74.1H-474.7z"/>
<path class="st8" d="M-435.9,586.3c-3.1-2-5-5.5-5.9-10.4c-0.9-4.9-1.3-13.1-1.3-24.5c0-11.4,0.4-19.6,1.3-24.5
	c0.9-4.9,2.8-8.4,5.9-10.4c3.1-2,8.1-3,15.2-3s12.2,1,15.2,3c3.1,2,5,5.5,5.9,10.4c0.9,4.9,1.3,13.1,1.3,24.5
	c0,11.4-0.4,19.6-1.3,24.5c-0.9,4.9-2.8,8.4-5.9,10.4c-3.1,2-8.1,3-15.2,3S-432.8,588.3-435.9,586.3z M-412.2,578.9
	c1.5-1,2.6-3.4,3.1-7.2c0.5-3.8,0.8-10.6,0.8-20.4c0-9.8-0.3-16.6-0.8-20.4c-0.5-3.8-1.5-6.2-3.1-7.2c-1.5-1-4.4-1.5-8.5-1.5
	c-4.1,0-6.9,0.5-8.4,1.5c-1.5,1-2.5,3.4-3,7.1c-0.5,3.7-0.8,10.6-0.8,20.5s0.3,16.7,0.8,20.5c0.5,3.7,1.5,6.1,3,7.1
	c1.5,1,4.3,1.5,8.4,1.5C-416.5,580.4-413.7,579.9-412.2,578.9z"/>
<path class="st8" d="M-354.2,588.4l-8.6-28.6h-0.6h-12.4v28.6H-386v-74.1h23.4c5.1,0,8.9,0.9,11.5,2.7c2.6,1.8,4.3,4.3,5.1,7.5
	c0.8,3.2,1.2,7.3,1.2,12.5c0,5.4-0.6,9.8-1.7,13.3c-1.1,3.5-3.4,6-6.7,7.5l9.7,30.6H-354.2z M-358.5,549.6c1.4-0.9,2.4-2.4,2.8-4.3
	c0.4-1.9,0.6-4.7,0.6-8.3c0-3.7-0.2-6.5-0.6-8.4c-0.4-1.9-1.3-3.2-2.7-4.1c-1.4-0.9-3.6-1.3-6.7-1.3h-10.8V551h10.7
	C-362.2,551-359.9,550.6-358.5,549.6z"/>
<path class="st8" d="M-300.2,588.4l-15.5-33.2h-7.1v33.2H-333v-74.1h10.1v32.1h7.1l15.7-32.1h10.7l-18,35.8l18.2,38.3H-300.2z"/>
<path d="M-283.8,534.5c0,1.2,0,2.3,0.1,3.4v-6.1C-283.7,532.6-283.8,533.5-283.8,534.5z"/>
<path class="st7" d="M-274.2,553.8l11.6,1.9c2.7,0.4,4.6,1,5.8,1.6c1.1,0.6,1.8,1.7,2.2,3.1c0.3,1.5,0.5,4,0.5,7.5
	c0,2.6-0.1,4.7-0.4,6.2c-0.3,1.6-0.9,2.8-1.7,3.7c-0.9,0.9-2.2,1.6-3.8,2c-1.6,0.4-3.8,0.6-6.5,0.6c-4.2,0-9.4-0.4-15.6-1.2v8.5
	c2.7,0.4,5.7,0.8,9.2,1.1c3.4,0.3,6.6,0.4,9.5,0.4c4.8,0,8.6-0.7,11.4-2c2.8-1.3,4.9-3.6,6.2-6.9c1.3-3.3,2-7.8,2-13.6
	c0-5.7-0.4-9.7-1.3-12.2c-1-2.6-2.4-4.4-4.1-5.5c-1.8-1.1-4.1-1.9-6.9-2.4l-11-1.8c-1.9-0.3-3.3-0.7-4.1-1.2
	c-0.8-0.5-1.4-1.5-1.7-2.8c-0.3-1.3-0.4-3.5-0.4-6.5c0-2.4,0.1-4.3,0.4-5.7c0.3-1.4,0.9-2.6,1.7-3.6c0.9-0.9,2.1-1.6,3.8-2
	c1.7-0.4,3.9-0.6,6.9-0.6c4.7,0,9.4,0.4,14,1.2v-8.3c-1.9-0.5-4.3-0.9-7.4-1.2c-3.1-0.3-6.1-0.5-9.1-0.5c-7,0-12.1,1.6-15.5,4.7
	c-2.9,2.7-4.6,7.3-4.9,13.6v6.1c0.2,4.5,0.8,8,1.8,10.5C-280.6,551.3-278.1,553.2-274.2,553.8z"/>
<path class="st7" d="M-199.1,517.2c-2.5-1.9-6.3-2.9-11.4-2.9h-22.7v74.1h10.1v-26.5h12.5c5.1,0,8.9-1,11.5-3c2.5-2,4.2-4.7,5-8
	c0.8-3.3,1.2-7.6,1.2-12.8c0-5.4-0.4-9.7-1.2-13C-194.9,521.8-196.5,519.2-199.1,517.2z M-203.7,547.2c-0.4,2-1.4,3.5-2.8,4.5
	c-1.4,1-3.7,1.5-6.7,1.5h-9.9v-29.9h9.9c3.1,0,5.3,0.5,6.7,1.5c1.4,1,2.3,2.4,2.7,4.4c0.4,2,0.6,5,0.6,9.1
	C-203,542.1-203.2,545.2-203.7,547.2z"/>
<path class="st7" d="M-174.3,514.3l-18.2,74.1h10.1l4.4-19h20.9l4.5,19h10.3l-18.1-74.1H-174.3z M-175.9,560.7l8.1-35.4h0.6
	l8.1,35.4H-175.9z"/>
<path class="st7" d="M-120.8,578.6c-1.8-1.2-3-3.7-3.5-7.4c-0.5-3.7-0.8-10.3-0.8-19.8c0-9.5,0.3-16.1,0.8-19.8
	c0.5-3.7,1.7-6.2,3.5-7.4c1.8-1.2,5-1.8,9.6-1.8c2.9,0,6.2,0.3,10,1v-8.2c-1.4-0.5-3.2-0.9-5.4-1.2c-2.3-0.3-4.5-0.4-6.6-0.4
	c-6.5,0-11.3,1-14.4,3.1c-3.1,2-5.1,5.6-6.1,10.8c-1,5.1-1.6,13.2-1.6,24.1c0,11,0.5,19,1.6,24.2c1,5.1,3.1,8.7,6.1,10.7
	c3,2,7.8,3,14.4,3c2,0,4.2-0.1,6.5-0.4c2.3-0.3,4.3-0.6,5.8-1.1v-8.3c-2.8,0.6-6.2,1-10.2,1C-115.9,580.4-119,579.8-120.8,578.6z"/>
<polygon class="st7" points="-90.8,588.4 -55.5,588.4 -55.5,579.6 -80.7,579.6 -80.7,555.3 -58.8,555.3 -58.8,546.5 -80.7,546.5 
	-80.7,523.1 -55.5,523.1 -55.5,514.3 -90.8,514.3 "/>
<text transform="matrix(1 0 0 1 86.77 160.4084)"><tspan x="0" y="0" style="font-family:'SairaCondensed-Medium'; font-size:107.6874px;">FALLBACK </tspan><tspan x="-48.8" y="103" style="font-family:'SairaCondensed-Medium'; font-size:107.6874px;">WORKSPACE</tspan></text>
</svg>
