<svg id="f715a602-9265-45b0-83a3-b922602f9a6c" data-name="svg2106" xmlns="http://www.w3.org/2000/svg" viewBox="0 0 512 512"><defs><style>.ac52c122-075c-4236-8d78-c11a718d6f85{fill:#f0353d;}</style></defs><title>gateio</title><path id="a09ee42f-0ea0-472c-b38b-e4edc4f18f56" data-name="path2104" class="ac52c122-075c-4236-8d78-c11a718d6f85" d="M200.61,252l-4.44-4.46a5.35,5.35,0,0,0-9.14,3.77V315a5.34,5.34,0,0,0,5.36,5.34h63.76a5.33,5.33,0,0,0,3.76-9.14,5.35,5.35,0,0,1,0-7.54l67.82-68a5.34,5.34,0,0,0,0-7.55h0L321.55,222a5.34,5.34,0,0,1,3.78-9.14h63.73a5.35,5.35,0,0,1,5.35,5.34V281.9a5.36,5.36,0,0,1-9.14,3.78L381,281.39a5.2,5.2,0,0,0-7.36-.17l-.17.17L259.15,395.66a5.39,5.39,0,0,1-7.57,0L111.7,255.79a5.34,5.34,0,0,1,0-7.54l0,0L305.37,54.65a5.38,5.38,0,0,0,0-7.56L259.79,1.56a5.37,5.37,0,0,0-7.57,0L1.56,252.23a5.36,5.36,0,0,0,0,7.56L252.22,510.44a5.37,5.37,0,0,0,7.57,0L510.44,259.79a5.34,5.34,0,0,0,0-7.54L363,104.79a5.35,5.35,0,0,0-7.55,0L208.22,252a5.34,5.34,0,0,1-7.54,0l0,0Z"/></svg>