<svg width="512" height="512" viewBox="0 0 512 512" fill="none" xmlns="http://www.w3.org/2000/svg">
<path fill-rule="evenodd" clip-rule="evenodd" d="M196.171 247.498L200.614 251.959L200.65 251.977C201.146 252.477 201.736 252.874 202.385 253.145C203.035 253.415 203.732 253.555 204.436 253.555C205.139 253.555 205.836 253.415 206.486 253.145C207.136 252.874 207.725 252.477 208.221 251.977L256 204.202V320.351H192.395C191.691 320.354 190.995 320.217 190.344 319.95C189.694 319.683 189.102 319.29 188.604 318.794C188.106 318.299 187.71 317.709 187.439 317.06C187.169 316.411 187.029 315.715 187.028 315.012V251.274C187.027 250.214 187.34 249.178 187.929 248.296C188.518 247.415 189.355 246.729 190.335 246.324C191.314 245.92 192.392 245.815 193.431 246.024C194.47 246.233 195.424 246.746 196.171 247.498ZM256 397.176C255.79 397.201 255.579 397.214 255.365 397.214C253.95 397.214 252.592 396.657 251.585 395.664L111.701 255.79C111.201 255.294 110.804 254.705 110.533 254.055C110.263 253.405 110.123 252.709 110.123 252.005C110.123 251.301 110.263 250.604 110.533 249.955C110.804 249.305 111.201 248.716 111.701 248.22L256 103.993V0C254.586 0.00141344 253.229 0.561095 252.225 1.55747L126.891 126.895L1.55759 252.233C0.559877 253.239 0 254.597 0 256.014C0 257.43 0.559877 258.789 1.55759 259.794L252.225 510.443C253.229 511.439 254.586 511.999 256 512V397.176Z" fill="#F0353D"/>
<path fill-rule="evenodd" clip-rule="evenodd" d="M256 204.202V320.351H256.147C257.21 320.359 258.251 320.05 259.137 319.462C260.023 318.874 260.712 318.035 261.117 317.052C261.522 316.069 261.624 314.987 261.41 313.946C261.195 312.905 260.674 311.952 259.914 311.209C258.917 310.207 258.358 308.851 258.358 307.438C258.358 306.025 258.917 304.669 259.914 303.667L327.735 235.668C328.231 235.172 328.624 234.584 328.893 233.936C329.161 233.288 329.299 232.594 329.299 231.892C329.299 231.191 329.161 230.497 328.893 229.849C328.624 229.201 328.231 228.612 327.735 228.117L321.554 221.964C320.798 221.219 320.281 220.265 320.069 219.225C319.858 218.184 319.961 217.104 320.367 216.123C320.772 215.141 321.461 214.303 322.345 213.715C323.229 213.127 324.269 212.816 325.33 212.822H389.055C390.473 212.822 391.833 213.384 392.837 214.385C393.842 215.385 394.408 216.743 394.413 218.161V281.9C394.41 282.957 394.094 283.991 393.504 284.869C392.915 285.747 392.078 286.432 391.101 286.835C390.123 287.239 389.047 287.344 388.01 287.138C386.972 286.932 386.019 286.423 385.27 285.675L380.964 281.388C380.478 280.879 379.893 280.474 379.246 280.197C378.598 279.92 377.901 279.778 377.197 279.778C376.493 279.778 375.796 279.92 375.149 280.197C374.502 280.474 373.917 280.879 373.431 281.388L259.146 395.664C258.29 396.507 257.182 397.036 256 397.176V512C256.002 512 256.004 512 256.005 512C257.422 512 258.781 511.44 259.786 510.443L510.444 259.794C511.441 258.792 512 257.436 512 256.023C512 254.61 511.441 253.254 510.444 252.252L362.971 104.79C361.967 103.793 360.61 103.233 359.195 103.233C357.78 103.233 356.423 103.793 355.419 104.79L256 204.202ZM256 2.68374e-06V103.993L305.372 54.6456C306.365 53.638 306.922 52.2801 306.922 50.8653C306.922 49.4505 306.365 48.0926 305.372 47.0851L259.786 1.55747C258.781 0.559834 257.422 0 256.005 0C256.004 0 256.002 8.94663e-07 256 2.68374e-06Z" fill="#FD6A33"/>
</svg>
