<?xml version="1.0" encoding="UTF-8" standalone="no"?>
<svg
   viewBox="0 0 512 512.00002"
   version="1.1"
   id="svg2106"
   sodipodi:docname="gateio.svg"
   width="512"
   height="512"
   inkscape:version="1.1.1 (3bf5ae0d25, 2021-09-20)"
   xmlns:inkscape="http://www.inkscape.org/namespaces/inkscape"
   xmlns:sodipodi="http://sodipodi.sourceforge.net/DTD/sodipodi-0.dtd"
   xmlns="http://www.w3.org/2000/svg"
   xmlns:svg="http://www.w3.org/2000/svg">
  <defs
     id="defs2110" />
  <sodipodi:namedview
     id="namedview2108"
     pagecolor="#ffffff"
     bordercolor="#666666"
     borderopacity="1.0"
     inkscape:pageshadow="2"
     inkscape:pageopacity="0.0"
     inkscape:pagecheckerboard="0"
     showgrid="false"
     fit-margin-top="0"
     fit-margin-left="0"
     fit-margin-right="0"
     fit-margin-bottom="0"
     inkscape:zoom="1.3838297"
     inkscape:cx="256.17314"
     inkscape:cy="256.17314"
     inkscape:window-width="1920"
     inkscape:window-height="1013"
     inkscape:window-x="-9"
     inkscape:window-y="-9"
     inkscape:window-maximized="1"
     inkscape:current-layer="svg2106" />
  <path
     d="m 200.61391,251.9592 -4.44338,-4.46134 a 5.3485188,5.3481202 0 0 0 -9.14277,3.77568 v 63.73862 a 5.3485188,5.3481202 0 0 0 5.3668,5.33898 h 63.75252 a 5.3302333,5.329836 0 0 0 3.76682,-9.14208 5.3485188,5.3481202 0 0 1 0,-7.54222 L 327.73495,235.668 a 5.339376,5.3389781 0 0 0 0,-7.55136 l -6.18051,-6.15263 a 5.339376,5.3389781 0 0 1 3.77596,-9.14208 h 63.72509 a 5.3576616,5.3572623 0 0 1 5.35766,5.33898 v 63.73862 a 5.3576616,5.3572623 0 0 1 -9.14277,3.77568 l -4.30624,-4.28764 a 5.2113773,5.2109889 0 0 0 -7.53364,0 L 259.14591,395.66364 a 5.3850899,5.3846885 0 0 1 -7.56107,0 L 111.7005,255.78973 a 5.3302333,5.329836 0 0 1 0,-7.56964 L 305.37174,54.645562 a 5.3850899,5.3846885 0 0 0 0,-7.560505 L 259.7859,1.5574699 a 5.3668044,5.3664043 0 0 0 -7.56107,0 L 1.5575879,252.23346 a 5.3668044,5.3664043 0 0 0 0,7.56051 L 252.22483,510.44253 a 5.3668044,5.3664043 0 0 0 7.56107,0 L 510.44401,259.79397 a 5.3485188,5.3481202 0 0 0 0,-7.54223 L 362.97117,104.7899 a 5.3576616,5.3572623 0 0 0 -7.55192,0 L 208.22069,251.97748 a 5.3302333,5.329836 0 0 1 -7.57021,0 z"
     fill="#de5959"
     id="path2104"
     style="stroke-width:0.914243"
     inkscape:export-filename="C:\Users\Piyantha.K\Documents\Superalgos\Projects\Foundations\Icons-SVG-Sources\exchanges\New folder\gateio.png"
     inkscape:export-xdpi="96"
     inkscape:export-ydpi="96" />
</svg>
