<?xml version="1.0" encoding="utf-8"?>
<!-- Generator: Adobe Illustrator 19.0.0, SVG Export Plug-In . SVG Version: 6.00 Build 0)  -->
<svg version="1.1" id="Layer_1" xmlns="http://www.w3.org/2000/svg" xmlns:xlink="http://www.w3.org/1999/xlink" x="0px" y="0px"
	 viewBox="96 11 512 512" style="enable-background:new 96 11 512 512;" xml:space="preserve">
<style type="text/css">
	.st0{display:none;}
	.st1{display:inline;}
	.st2{display:none;fill:#FFFFFF;}
	.st3{fill:#CDD4D5;}
	.st4{fill:#365558;}
	.st5{fill:#0295AA;}
	.st6{fill:#4ACFD9;}
	.st7{fill:#9BAAAB;}
</style>
<g id="Layer_3" class="st0">
	<rect x="1538" y="-1431.4" class="st1" width="512" height="512.8"/>
</g>
<polygon id="Fill-612" class="st2" points="856.3,-309.1 966.1,-254.1 966.1,-165.7 "/>
<polygon id="Fill-613" class="st2" points="1083,-309.1 972.8,-165.7 972.8,-254.1 "/>
<path class="st3" d="M282.5,128.4L259,220l-161,20.9L282.5,128.4z"/>
<path class="st4" d="M326,497.7l40-166.3L314.2,310L326,497.7z"/>
<path class="st4" d="M259,219.9l-42.2,87L98.4,241.1L259,219.9z"/>
<path class="st5" d="M326,497.7L314.2,310l-97.9-3.4L326,497.7z"/>
<path class="st6" d="M259,219.9l55.7,90l-97.9-3.3L259,219.9z"/>
<path class="st7" d="M282.5,128.4l133.3,16.7L259,220L282.5,128.4z"/>
<path class="st7" d="M561.5,86.8l-83.8,97.4l5.9-90.1L561.5,86.8z"/>
<path class="st6" d="M608,31l-46.5,55.8l36.3,4.4L608,31z"/>
<path class="st5" d="M516.4,137.3l81.5-46.2l-36.3-4.4L516.4,137.3z"/>
<path class="st5" d="M366.1,331.4l4-111.8L314.2,310L366.1,331.4z"/>
<path class="st6" d="M370,219.6L314.2,310L259,220L370,219.6z"/>
<path class="st3" d="M415.7,145.2L370,219.6L259,220L415.7,145.2z"/>
<path class="st4" d="M370,219.6l-4,111.8L468.3,436L370,219.6z"/>
<path class="st6" d="M521.8,377.5l-54-133.9l0.6,192.4L521.8,377.5z"/>
<path class="st6" d="M477.7,184.2l-10,59.4L370,219.6L477.7,184.2z"/>
<path class="st6" d="M527.2,264.8l-59.4-21.2l9.7-59.3L527.2,264.8z"/>
<path class="st6" d="M548.9,373.8L484.2,270h37L548.9,373.8z"/>
<path class="st3" d="M427.9,123l49.8,61.2l5.9-90.1L427.9,123z"/>
<path class="st5" d="M467.7,243.6L370,219.6L468.3,436L467.7,243.6z"/>
<path class="st4" d="M521.8,377.5l21.6,12.1L468.5,436L521.8,377.5z"/>
<path class="st4" d="M548.9,372.6l-81.2-128.9l54,134L548.9,372.6z"/>
<path class="st7" d="M427.9,123l-58,96.7l107.7-35.4L427.9,123z"/>
</svg>
