<svg width="512" height="512" viewBox="0 0 512 512" fill="none" xmlns="http://www.w3.org/2000/svg">
<g clip-path="url(#clip0_321_434)">
<path fill-rule="evenodd" clip-rule="evenodd" d="M256 9.66209C250.61 5.91277 245.289 2.7414 240.159 0.207381C240.159 0.207381 237.249 -0.921692 237.249 2.08917C234.485 114.41 164.248 162.108 104.493 202.688C88.7641 213.369 73.7613 223.558 60.9064 234.302C-80.5169 353.984 51.0126 484.956 184.87 509.043C223.439 516.003 217.772 509.455 201.563 490.725C186.22 472.997 161.431 444.353 155.771 405.921C148.254 354.272 201.249 309.273 251.802 266.347C253.204 265.157 254.603 263.968 256 262.781V9.66209Z" fill="#0295AA"/>
<path d="M410.1 206.413C409.518 206.037 408.354 206.037 407.19 206.413C407.19 206.413 407.19 206.413 406.608 206.789C404.28 224.478 374.017 262.867 336.187 297.868C207.568 416.797 280.898 474.003 322.219 504.865C346.081 522.93 322.219 504.865 382.164 486.423C386.82 484.918 498.562 446.529 510.784 359.591C523.006 274.91 439.781 221.844 410.1 206.413Z" fill="#4ACFD9"/>
<path fill-rule="evenodd" clip-rule="evenodd" d="M256 263.119C297.828 227.565 336.769 193.353 336.769 157.863C336.769 93.4573 294.637 36.8778 256 10V263.119Z" fill="#4ACFD9"/>
</g>
<defs>
<clipPath id="clip0_321_434">
<rect width="512" height="512" fill="white"/>
</clipPath>
</defs>
</svg>
