<svg id="b0abdc6f-70d7-4f05-9bd1-6e5c55301195" data-name="Layer 18" xmlns="http://www.w3.org/2000/svg" viewBox="0 0 512 512"><defs><style>.ef42bcdf-535e-4942-9068-091fb4c6cc77{fill:#365558;}.e3d5125e-99fc-42ee-82c6-8b154b64b720{fill:#4acfd9;}</style></defs><title>huobi</title><path class="ef42bcdf-535e-4942-9068-091fb4c6cc77" d="M308.17,157.7c0-73.45-35.69-136.76-62.9-157.45,0,0-2.08-1.25-1.8,1.81-2.5,142.59-74.84,180.5-114.69,232.29-60.68,74.7-49.29,184.24,25.27,244.78a171.5,171.5,0,0,0,55.26,30.13c48.73,13.61-11.39-23.88-19-103.16-9.3-96.36,117.88-169,117.88-248.4Z"/><path class="e3d5125e-99fc-42ee-82c6-8b154b64b720" d="M355.93,206.58a1.32,1.32,0,0,0-1.67-.42l-.41.42A263,263,0,0,1,308,297.8c-83.72,119-35.82,176.33-9,206.32,15.42,17.91,0,0,39-18.32a165.11,165.11,0,0,0,83.72-127,178.92,178.92,0,0,0-65.81-152.17Z"/></svg>