<?xml version="1.0" encoding="UTF-8" standalone="no"?>
<svg
   viewBox="0 0 512 512"
   version="1.1"
   id="svg2421"
   width="512"
   height="512"
   xmlns="http://www.w3.org/2000/svg"
   xmlns:svg="http://www.w3.org/2000/svg">
  <defs
     id="defs2425" />
  <g
     id="g2430"
     transform="matrix(3.2820513,0,0,3.2820458,0,8.5475459e-4)">
    <circle
       cx="78"
       cy="78"
       fill="#ffffff"
       id="circle2415"
       r="75.870003" />
    <path
       d="M 78,0 A 78,78 0 1 1 0,78 V 77.17 C 0.42,34.64 35.18,-0.11 78,0 Z m 1.66,5.66 C 38.24,5.67 5.88,38 5.71,77.55 5.53,117.49 38,150.35 78,150.21 c 19.81,-0.07 36.92,-7.08 50.92,-21.05 15.93,-15.89 22.91,-35.38 21.09,-57.7 A 69.24,69.24 0 0 0 129.2,27 C 115.09,13 97.93,5.92 79.64,5.66 Z"
       fill="#333333"
       id="path2417" />
    <path
       d="m 148.08,70.34 a 67.52,67.52 0 0 0 -20,-41.95 C 114.27,14.53 97.44,7.49 77.82,7.46 a 70.52,70.52 0 0 0 -0.47,141 c 19.54,0.14 36.49,-6.7 50.29,-20.52 15.85,-15.86 22.69,-35.23 20.44,-57.6 z M 108.45,23.13 a 2.15,2.15 0 1 1 -2.19,2.11 2.16,2.16 0 0 1 2.19,-2.11 z M 98.8,18.64 a 2.21,2.21 0 0 1 2.2,2.21 2.14,2.14 0 0 1 -2.2,2.08 2.08,2.08 0 0 1 -2.11,-2.05 v -0.1 A 2.16,2.16 0 0 1 98.8,18.64 Z M 88.64,15.88 A 2.44,2.44 0 0 1 90.83,18 2.32,2.32 0 0 1 88.47,20.17 2.16,2.16 0 0 1 86.39,18 2.22,2.22 0 0 1 88.64,15.88 Z M 78,15 A 2.14,2.14 0 1 1 75.87,17.16 2.16,2.16 0 0 1 78,15 Z M 67.49,15.89 A 2.23,2.23 0 0 1 69.6,18 2.14,2.14 0 0 1 67.45,20.14 H 67.37 A 2.12,2.12 0 0 1 65.27,18 2.22,2.22 0 0 1 67.45,15.88 Z m -10.28,2.75 a 2.15,2.15 0 0 1 2.12,2.16 2.08,2.08 0 0 1 -2,2.13 h -0.1 A 2.15,2.15 0 0 1 55,20.84 a 0.28,0.28 0 0 1 0,-0.09 2.22,2.22 0 0 1 2.21,-2.11 z m -9.66,4.49 a 2.1502384,2.1502384 0 1 1 0.3,4.29 h -0.3 a 2.15,2.15 0 0 1 0,-4.29 z m -8.63,6.07 a 2.19,2.19 0 0 1 2.14,2.16 2.15,2.15 0 0 1 -2.14,2.14 2.07,2.07 0 0 1 -2.15,-2 0.37,0.37 0 0 1 0,-0.11 2.14,2.14 0 0 1 2.05,-2.21 z m -7.46,7.49 a 2.16,2.16 0 0 1 2.08,2.21 2.14,2.14 0 0 1 -2.17,2.1 2.22,2.22 0 0 1 -2.15,-2.16 2.24,2.24 0 0 1 2.23,-2.15 z m -6.13,8.72 a 2.08,2.08 0 0 1 2.12,2 0.14,0.14 0 0 1 0,0.09 2.15,2.15 0 0 1 -2.11,2.18 2.24,2.24 0 0 1 -2.2,-2.21 2.18,2.18 0 0 1 2.18,-2.1 z M 20.85,55 A 2.18,2.18 0 0 1 23,57.19 v 0.05 A 2.17,2.17 0 0 1 18.67,57.11 2.2,2.2 0 0 1 20.85,55 Z m -2.8,10.23 a 2.22,2.22 0 0 1 2.21,2.19 2.16,2.16 0 0 1 -2.18,2.1 A 2.07,2.07 0 0 1 16,67.46 2.15,2.15 0 0 1 18.06,65.29 Z M 15,78 a 2.24,2.24 0 0 1 2.14,-2.18 2.14,2.14 0 0 1 2.16,2.12 2.11,2.11 0 0 1 -2,2.21 H 17.08 A 2.22,2.22 0 0 1 15,78 Z m 1,10.55 a 2.16,2.16 0 0 1 2.12,-2.16 2.23,2.23 0 0 1 2.19,2.21 2.14,2.14 0 0 1 -2.2,2.08 2.06,2.06 0 0 1 -2.11,-2 v -0.12 z m 4.9,12.38 a 2.16,2.16 0 0 1 -2.2,-2.09 2.24,2.24 0 0 1 2.19,-2.22 2.21,2.21 0 0 1 2.11,2.15 2.15,2.15 0 0 1 -2.14,2.14 z m 4.47,9.63 a 2.21,2.21 0 0 1 -2.18,-2.12 2.17,2.17 0 0 1 2.15,-2.17 h 0.05 a 2.08,2.08 0 0 1 2.12,2 0.41,0.41 0 0 1 0,0.11 2.12,2.12 0 0 1 -2.12,2.13 h -0.06 z m 0,-16.8 0.11,-0.39 h 22.8 c 5.92,0 5.92,0 5.92,-6 0,-5 0,-10 0,-15 0,-1.63 0.22,-2.39 2.17,-2.31 4.29,0.18 8.6,0.12 12.89,0 1.5,0 2,0.46 2,1.93 q -0.06,12.58 0,25.19 c 0,1.6 -0.5,2.41 -2.19,2.25 a 7.32,7.32 0 0 0 -1.48,0 C 65.66,99.64 65,98.89 65,97 c 0.09,-6.07 0,-12.13 0,-18.2 0,-1.67 -0.52,-2.44 -2.31,-2.44 -1.79,0 -2.38,0.56 -2.35,2.34 0.08,6.07 0,12.14 0.07,18.2 0,2 -0.61,2.56 -2.54,2.53 -6.14,-0.1 -12.3,0.28 -18.4,-0.17 -2.88,-0.21 -5.67,-1.83 -8.46,-2.93 -1.89,-0.74 -3.77,-1.71 -5.68,-2.59 z m 6.31,25.52 a 2.2,2.2 0 0 1 -2.44,-1.94 2,2 0 0 1 0,-0.34 2.33,2.33 0 0 1 2.26,-2.19 2.51,2.51 0 0 1 2.18,2.37 2.54,2.54 0 0 1 -2,2.09 z m 7.2,7.43 a 2.07,2.07 0 0 1 -2.07,-2.07 v -0.1 a 2.16,2.16 0 0 1 2.19,-2.13 2.21,2.21 0 0 1 2.14,2.17 2.13,2.13 0 0 1 -2.14,2.12 h -0.08 z m 8.78,6.09 a 2.08,2.08 0 0 1 -2.16,-2 0.22,0.22 0 0 1 0,-0.08 2.17,2.17 0 0 1 2.09,-2.23 h 0.06 a 2.19,2.19 0 0 1 2.14,2.16 2.12,2.12 0 0 1 -2.11,2.15 z m 9.62,4.47 a 2.15,2.15 0 0 1 -2.27,-2 c 0,0 0,-0.08 0,-0.12 a 2.25,2.25 0 0 1 2.17,-2.15 2.16,2.16 0 0 1 2.15,2.14 2.07,2.07 0 0 1 -2,2.12 z m -8.14,-32.49 c -1.9,-0.76 -3.72,-1.72 -5.58,-2.59 l 0.23,-0.61 H 73 c 4.52,0 3.94,0.4 4,-4 0,-13 0,-26.11 0,-39.16 0,-2.15 0.59,-2.8 2.74,-2.72 4.16,0.16 8.32,0.1 12.49,0 1.5,0 2.17,0.39 2.17,2 q 0,24.24 0,48.47 c 0,1.74 -0.74,2.28 -2.34,2 a 7.65,7.65 0 0 0 -1.66,-0.25 c -2.65,0.09 -2.66,0.11 -2.66,-2.67 v -40 c 0,-1.1 0.42,-2.52 -1.41,-2.81 -2.14,-0.34 -2.78,0.16 -2.78,2.4 v 40.64 c 0,2.76 0,2.77 -2.84,2.77 -7.06,0 -14.11,-0.1 -21.17,0 -4,0.16 -7,-2.13 -10.38,-3.47 z M 67.49,140 a 2.14,2.14 0 0 1 -2.21,-2.06 0.22,0.22 0 0 1 0,-0.08 2.17,2.17 0 1 1 2.21,2.14 z M 78,141 A 2.2,2.2 0 0 1 75.84,138.77 2.17,2.17 0 1 1 78,141 Z m 10.4,-1 a 2.15,2.15 0 0 1 -2,-2.19 2.1714742,2.1714742 0 0 1 4.34,0.16 2.14,2.14 0 0 1 -2.23,2 z m 10.39,-2.74 a 2.09,2.09 0 0 1 -2.12,-2 v -0.1 a 2.17,2.17 0 0 1 2.12,-2.16 2.23,2.23 0 0 1 2.19,2.21 2.15,2.15 0 0 1 -2.19,2.05 z m 9.65,-4.48 a 2.12,2.12 0 0 1 -2.17,-2.07 2.2,2.2 0 0 1 2.18,-2.21 2.15,2.15 0 0 1 2.11,2.18 2.09,2.09 0 0 1 -2,2.14 h -0.09 z m 1.81,-20.63 c 0.32,-3.18 -0.14,-47.87 -0.13,-61.42 0,-1.31 0.14,-2.53 -1.87,-2.5 -1.62,0 -2,0.59 -2,2.12 0.06,7 -0.11,59.68 -0.11,59.68 v 6.62 c -0.75,0.08 -1.36,0.19 -2,0.2 -9.16,0 -18.33,0.18 -27.48,-0.1 -2.3,-0.07 -4.59,-1.53 -6.83,-2.47 a 42.67,42.67 0 0 1 -7.44,-3.86 c 0.6,0 1.2,-0.11 1.8,-0.11 l 30.68,0.13 c 4.7,0 4.63,0 4.63,-4.52 V 44.11 c 0,-1.73 0.39,-2.53 2.35,-2.47 4.44,0.14 8.89,0.09 13.33,0 1.49,0 2,0.51 2,2 V 114 c 0,2.85 0,2.85 -2.94,2.86 -4.54,0 -4.47,-0.08 -4,-4.69 z m 6.85,14.54 a 2.15,2.15 0 0 1 -2.16,-2.11 2.23,2.23 0 0 1 2.21,-2.19 2.14,2.14 0 0 1 2.09,2.19 2,2 0 0 1 -2,2.12 h -0.15 z m 0.07,-93.2 a 2.15,2.15 0 0 1 -2.17,-2.07 0.17,0.17 0 0 1 0,-0.07 2.21,2.21 0 0 1 2.14,-2.16 2.13,2.13 0 0 1 2.15,2.12 2.07,2.07 0 0 1 -1.94,2.19 h -0.12 z m 7.4,85.72 a 2.15,2.15 0 0 1 0,-4.29 2.15,2.15 0 1 1 0,4.29 z m 0,-78.18 a 2.17,2.17 0 1 1 2.17,-2.17 2.17,2.17 0 0 1 -2.17,2.14 z M 140,67.43 a 2.06,2.06 0 0 1 -2,2.11 h -0.12 a 2.16,2.16 0 0 1 -2.17,-2.12 2.24,2.24 0 0 1 2.29,-2.19 2.15,2.15 0 0 1 2,2.2 z m -9.34,-22 a 2.17,2.17 0 0 1 2.16,2.13 2.23,2.23 0 0 1 -2.22,2.18 2.16,2.16 0 0 1 -2.08,-2.2 2.09,2.09 0 0 1 2,-2.13 h 0.15 z m 0,65.13 a 2.13,2.13 0 0 1 -2.13,-2.13 2.08,2.08 0 0 1 2,-2.15 h 0.11 a 2.15,2.15 0 0 1 2.21,2.11 v 0.05 a 2.19,2.19 0 0 1 -2.16,2.11 z M 135.14,55 A 2.14,2.14 0 1 1 133,57.11 2.19,2.19 0 0 1 135.14,55 Z m 0.07,45.91 a 2.16,2.16 0 0 1 -2.21,-2.07 2.1728898,2.1728898 0 1 1 4.33,-0.37 1.31,1.31 0 0 1 0,0.28 2.16,2.16 0 0 1 -2.12,2.16 z m 2.65,-10.25 a 2.18,2.18 0 0 1 -2.13,-2.15 2.23,2.23 0 0 1 2.27,-2.14 2.15,2.15 0 0 1 2,2.22 2.06,2.06 0 0 1 -2.06,2.07 z m 1,-10.56 a 2.07,2.07 0 0 1 -2.15,-2 0.49,0.49 0 0 1 0,-0.12 2,2 0 0 1 1.79,-2.19 h 0.14 a 2.29,2.29 0 0 1 2.45,2.12 V 78 A 2.08,2.08 0 0 1 139,80.1 h -0.13 z"
       fill="#004b6a"
       id="path2419" />
  </g>
</svg>
