<svg width="512" height="512" viewBox="0 0 512 512" fill="none" xmlns="http://www.w3.org/2000/svg">
<path d="M333.535 12.0842V104.074C390.651 133.232 426.617 191.843 426.715 256.049C426.715 320.255 390.749 378.964 333.535 408.122V499.719C439.678 465.947 511.804 367.478 511.999 256.049C511.902 144.522 439.775 45.8564 333.535 12.0842Z" fill="#0295AA"/>
<path fill-rule="evenodd" clip-rule="evenodd" d="M256 509.439C274.795 509.339 293.493 508.16 311.801 505.806V232.585C293.493 230.329 274.795 229.151 256 229.051V509.439Z" fill="#4ACFD9"/>
<path fill-rule="evenodd" clip-rule="evenodd" d="M256 511.991C256.016 511.991 256.032 511.991 256.048 511.991C274.86 511.893 293.574 509.635 311.898 505.414V417.056C293.964 423.437 275.055 426.677 256.048 426.775C256.032 426.775 256.016 426.775 256 426.775V511.991ZM256 345.192C276.353 345.181 296.023 338.113 311.8 325.361V186.639C296.023 173.887 276.353 166.819 256 166.808V345.192ZM256 85.2249C274.99 85.3284 293.882 88.568 311.8 94.8458V6.39015C293.492 2.27038 274.795 0.110699 256 0.00903321V85.2249Z" fill="#4ACFD9"/>
<path d="M178.464 12.3701C72.3214 46.0441 0.0974681 144.612 0 256.04C0 367.567 72.2239 466.135 178.464 499.907V407.917C121.348 378.759 85.3821 320.149 85.2846 255.942C85.2846 191.736 121.25 132.929 178.464 103.869V12.3701Z" fill="#365558"/>
<path fill-rule="evenodd" clip-rule="evenodd" d="M256 0.000255006C255.984 0.000168512 255.968 8.35104e-05 255.952 0C237.141 0.098175 218.427 2.3562 200.103 6.57772V94.9352C218.037 88.5538 236.946 85.3141 255.952 85.2159C255.968 85.216 255.984 85.216 256 85.2161V0.000255006ZM256 166.799C255.984 166.799 255.968 166.799 255.952 166.799C235.581 166.799 215.893 173.868 200.103 186.631V325.352C215.893 338.115 235.679 345.183 255.952 345.183C255.968 345.183 255.984 345.183 256 345.183V166.799ZM256 426.766C237.01 426.663 218.119 423.423 200.2 417.145V505.601C218.508 509.819 237.205 511.881 256 511.982V426.766Z" fill="#0295AA"/>
<path fill-rule="evenodd" clip-rule="evenodd" d="M256 229.042C255.984 229.042 255.967 229.042 255.951 229.042C237.139 229.14 218.425 230.319 200.004 232.675V505.896C218.328 508.154 237.139 509.332 255.951 509.43C255.967 509.43 255.984 509.43 256 509.43V229.042Z" fill="#0295AA"/>
</svg>
