<svg width="512" height="512" viewBox="0 0 512 512" fill="none" xmlns="http://www.w3.org/2000/svg">
<path d="M256.001 512C313.234 488.317 370.468 464.071 427.701 440.106L440.67 427.137L511.719 256L440.67 84.8635L362.855 148.864L407.12 256L362.855 363.137L255.719 407.401V512H256.001Z" fill="#0295AA"/>
<path d="M440.952 84.8634L427.982 71.6123C370.467 47.9295 313.233 23.9648 256 0V104.317L363.137 148.581L440.952 84.8634Z" fill="#FF8C29"/>
<path fill-rule="evenodd" clip-rule="evenodd" d="M256 363.136L331.841 331.841L363.137 256L331.841 180.44L256 148.863V363.136Z" fill="#0295AA"/>
<path d="M255.718 512C198.485 488.317 141.251 464.071 84.0176 440.106L71.0484 427.137L1.88634e-06 256L71.0484 84.8635L148.863 148.864L104.599 256L148.863 363.137L256 407.401V512H255.718Z" fill="#365558"/>
<path d="M70.7672 84.8634L83.7364 71.6123C141.252 47.9295 198.485 23.9648 255.719 0V104.317L148.582 148.581L70.7672 84.8634Z" fill="#FD6A33"/>
<path fill-rule="evenodd" clip-rule="evenodd" d="M255.719 363.136L179.877 331.841L148.582 256L179.877 180.44L255.719 148.863V363.136Z" fill="#365558"/>
</svg>
