<svg width="512" height="512" viewBox="0 0 512 512" fill="none" xmlns="http://www.w3.org/2000/svg">
<g clip-path="url(#clip0_1_568)">
<path d="M83.7148 66.1926C127.698 26.1686 184.276 2.75724 243.68 0V39.6236C194.776 42.3434 148.258 61.6434 111.792 94.3429L83.7148 66.1926Z" fill="#0295AA"/>
<path d="M0 243.663C2.71585 184.249 26.1328 127.658 66.1926 83.697L94.2142 111.792C61.5565 148.266 42.3016 194.778 39.6236 243.663H0Z" fill="#0295AA"/>
<path d="M66.1926 428.285C26.1142 384.336 2.69431 327.737 0 268.319H39.6236C42.335 317.234 61.5836 363.777 94.2142 400.318L66.1926 428.285Z" fill="#0295AA"/>
<path d="M243.663 512C184.245 509.301 127.649 485.882 83.6973 445.807L111.774 417.859C148.244 450.519 194.76 469.769 243.644 472.432L243.663 512Z" fill="#0295AA"/>
<path fill-rule="evenodd" clip-rule="evenodd" d="M256 78.8613C220.945 78.847 186.673 89.2298 157.519 108.696C128.366 128.163 105.64 155.839 92.2185 188.224C78.7966 220.608 75.281 256.245 82.1164 290.628C88.9519 325.011 105.831 356.594 130.619 381.382C155.407 406.17 186.99 423.049 221.373 429.885C232.832 432.163 244.43 433.291 256 433.286V413.502C224.876 413.491 194.454 404.252 168.58 386.954C142.705 369.655 122.541 345.073 110.635 316.316C98.729 287.559 95.6168 255.917 101.692 225.391C107.766 194.866 122.755 166.826 144.764 144.818C166.772 122.81 194.811 107.821 225.337 101.746C235.484 99.7268 245.754 98.7227 256 98.7191V78.8613Z" fill="#0295AA"/>
<path d="M428.285 445.863C384.305 485.892 327.725 509.304 268.319 512.055V472.358C317.204 469.695 363.719 450.446 400.19 417.786L428.285 445.863Z" fill="#4ACFD9"/>
<path d="M512 268.338C509.298 327.754 485.879 384.35 445.807 428.303L417.859 400.355C450.542 363.848 469.793 317.284 472.432 268.356L512 268.338Z" fill="#4ACFD9"/>
<path d="M445.734 83.7153C485.787 127.68 509.203 184.269 511.927 243.681H472.358C469.64 194.804 450.398 148.3 417.786 111.792L445.734 83.7153Z" fill="#4ACFD9"/>
<path d="M268.338 0C327.741 2.76183 384.317 26.1726 428.303 66.1926L400.208 94.3429C363.747 61.6472 317.236 42.3475 268.338 39.6236V0Z" fill="#4ACFD9"/>
<path fill-rule="evenodd" clip-rule="evenodd" d="M256 433.286C279.148 433.276 302.185 428.731 323.777 419.782C356.161 406.36 383.837 383.635 403.304 354.482C422.77 325.328 433.153 291.055 433.139 256C433.148 232.735 428.573 209.696 419.674 188.2C410.776 166.705 397.728 147.173 381.277 130.722C364.827 114.272 345.295 101.224 323.799 92.3253C302.304 83.4267 279.265 78.8515 256 78.8611V98.7188C276.579 98.7118 297.063 102.741 316.261 110.689C345.018 122.595 369.6 142.759 386.898 168.634C404.197 194.508 413.435 224.931 413.446 256.055C413.444 276.728 409.369 297.198 401.455 316.296C393.542 335.394 381.943 352.746 367.323 367.362C352.702 381.977 335.346 393.569 316.245 401.477C297.144 409.384 276.673 413.451 256 413.446V433.286Z" fill="#4ACFD9"/>
</g>
<defs>
<clipPath id="clip0_1_568">
<rect width="512" height="512" fill="white"/>
</clipPath>
</defs>
</svg>
