<?xml version="1.0" encoding="utf-8"?>
<!-- Generator: Adobe Illustrator 19.0.0, SVG Export Plug-In . SVG Version: 6.00 Build 0)  -->
<svg version="1.1" id="Layer_1" xmlns="http://www.w3.org/2000/svg" xmlns:xlink="http://www.w3.org/1999/xlink" x="0px" y="0px"
	 viewBox="206 -206 512 512" style="enable-background:new 206 -206 512 512;" xml:space="preserve">
<style type="text/css">
	.st0{display:none;}
	.st1{display:inline;}
	.st2{display:none;fill:#FFFFFF;}
	.st3{fill:#4ACFD9;}
	.st4{fill:#0295AA;}
</style>
<g id="Layer_3" class="st0">
	<rect x="1442" y="-1442.4" class="st1" width="512" height="512.8"/>
</g>
<polygon id="Fill-612" class="st2" points="760.3,-320.1 870.1,-265.1 870.1,-176.7 "/>
<polygon id="Fill-613" class="st2" points="987,-320.1 876.8,-176.7 876.8,-265.1 "/>
<path class="st3" d="M526.9-101.6l95.7,95.7c16.9,16.9,44.3,16.9,61.2,0c16.9-16.9,16.9-44.3,0-61.2L557.5-193.4
	c-16.8-16.8-44.5-16.7-61.2,0L462-159.2v122.4L526.9-101.6z"/>
<path class="st3" d="M483.6,50c0,23.9,19.4,43.3,43.3,43.3c23.9,0,43.3-19.4,43.3-43.3c0-23.9-19.4-43.3-43.3-43.3
	C503,6.7,483.6,26.1,483.6,50z"/>
<path class="st3" d="M683.8,105.9c-16.9-16.9-44.3-16.9-61.2,0l-95.7,95.7L462,136.7v122.4l34.3,34.3c16.7,16.7,44.4,16.8,61.2,0
	l126.3-126.3C700.7,150.3,700.7,122.8,683.8,105.9z"/>
<polygon class="st4" points="375.3,50 375.3,50 375.3,50 "/>
<path class="st4" d="M375.3,50L375.3,50L375.3,50L375.3,50L462-36.7v-122.4L314.1-11.2v-108.3c0-23.9-19.4-43.3-43.3-43.3
	c-23.9,0-43.3,19.4-43.3,43.3v339.1c0,23.9,19.4,43.3,43.3,43.3c23.8,0,43.3-19.5,43.3-43.3l0-108.3L462,259.2V136.7L375.3,50z"/>
</svg>
