<svg id="a8a34856-9d82-41c7-b465-16c79004e7e3" data-name="Layer 21" xmlns="http://www.w3.org/2000/svg" viewBox="0 0 512 512"><defs><style>.bda94e7e-fdbd-455b-bb7d-41f601c2b20a{fill:#bcd643;}</style></defs><title>kucoin</title><path class="bda94e7e-fdbd-455b-bb7d-41f601c2b20a" d="M320.91,104.4l95.7,95.7a43.27,43.27,0,1,0,61.2-61.2L351.51,12.6a43.55,43.55,0,0,0-61.2,0L256,46.8V169.2Z"/><path class="bda94e7e-fdbd-455b-bb7d-41f601c2b20a" d="M277.61,256a43.3,43.3,0,1,0,43.3-43.3A43.32,43.32,0,0,0,277.61,256Z"/><path class="bda94e7e-fdbd-455b-bb7d-41f601c2b20a" d="M477.81,311.9a43.27,43.27,0,0,0-61.2,0l-95.7,95.7L256,342.7V465.1l34.3,34.3a43.55,43.55,0,0,0,61.2,0l126.3-126.3A43.27,43.27,0,0,0,477.81,311.9Z"/><path class="bda94e7e-fdbd-455b-bb7d-41f601c2b20a" d="M169.31,256h0L256,169.3V46.9L108.11,194.8V86.5a43.3,43.3,0,0,0-86.6,0V425.6a43.3,43.3,0,0,0,86.6,0V317.3L256,465.2V342.7Z"/></svg>