<svg width="512" height="512" viewBox="0 0 512 512" fill="none" xmlns="http://www.w3.org/2000/svg">
<path fill-rule="evenodd" clip-rule="evenodd" d="M256 504.123C116.819 504.09 4 391.251 4 252.062C4 112.872 116.819 0.0332439 256 0V223.009L217.604 311.275H159.758L239.649 120H176.83L76 360.059H256V504.123Z" fill="#0295AA"/>
<path fill-rule="evenodd" clip-rule="evenodd" d="M256 504.123C395.21 504.123 508.062 391.271 508.062 252.062C508.062 112.852 395.21 0 256 0V222.963L300.776 120.029H376.247L412.049 360.088H344.258L339.341 311.304H279.838L262.158 360.088H256L256 504.123ZM339.341 265.457L331.771 161.095L290.997 265.457H339.341Z" fill="#4ACFD9"/>
</svg>
