<svg width="512" height="512" viewBox="0 0 512 512" fill="none" xmlns="http://www.w3.org/2000/svg">
<g clip-path="url(#clip0_1_371)">
<path d="M358.561 298.427C388.141 298.427 412.121 274.165 412.121 244.237C412.121 214.309 388.141 190.047 358.561 190.047C328.98 190.047 305 214.309 305 244.237C305 274.165 328.98 298.427 358.561 298.427Z" fill="#FFD1A9"/>
<path d="M504.973 324.29L503.399 321.824L502.98 321.142C497.104 311.909 495.321 309.968 492.488 305.719C453.301 245.391 475.701 206.624 493.327 186.847C495.478 184.434 497.472 181.601 499.308 179.398C501.994 176.29 504.301 172.874 506.18 169.221L506.495 168.696C510.055 161.585 511.854 153.723 511.74 145.772C510.57 132.722 504.559 120.584 494.889 111.743C485.22 102.902 472.593 98 459.491 98C446.39 98 433.762 102.902 424.093 111.743C414.424 120.584 408.413 132.722 407.242 145.772C407.24 154.468 409.442 163.023 413.642 170.637C414.272 171.896 417.262 175.883 417.577 176.565C418.214 177.565 418.952 178.496 419.78 179.345C421.6 181.601 423.563 183.739 425.655 185.745C430.858 191.534 435.398 197.886 439.19 204.683C446.708 220.091 449.829 237.274 448.209 254.342C446.589 271.409 440.292 287.699 430.009 301.417L417 320.093C416.585 320.631 416.2 321.192 415.845 321.772L415.531 322.191C410.254 330.55 407.537 340.269 407.714 350.152C408.885 363.201 414.896 375.34 424.565 384.18C434.235 393.021 446.862 397.923 459.963 397.923C473.065 397.923 485.692 393.021 495.362 384.18C505.031 375.34 511.042 363.201 512.213 350.152C512.202 341.054 509.756 332.124 505.131 324.29H504.973Z" fill="#FFD1A9"/>
<path fill-rule="evenodd" clip-rule="evenodd" d="M252 407.173C259.051 407.265 266.081 405.935 272.661 403.226C282.156 399.316 290.295 392.706 296.068 384.214C301.842 375.722 304.997 365.723 305.141 355.455C305.13 346.357 302.685 337.427 298.059 329.593L297.901 329.96L296.38 327.495L295.908 326.813C292.079 320.795 289.987 317.875 288.211 315.394C287.262 314.069 286.403 312.869 285.416 311.39C246.229 251.062 268.629 212.295 286.256 192.518C287.533 191.084 288.756 189.502 289.923 187.992C290.72 186.961 291.491 185.963 292.236 185.068C294.923 181.961 297.23 178.545 299.108 174.891L299.423 174.367C302.928 167.236 304.724 159.387 304.669 151.442C304.82 143.374 303.108 135.38 299.666 128.081C296.223 120.783 291.144 114.377 284.822 109.362C278.5 104.346 271.106 100.857 263.216 99.1656C259.518 98.3728 255.757 97.9848 252 98.0005V407.173Z" fill="#FFD1A9"/>
<path fill-rule="evenodd" clip-rule="evenodd" d="M256 98C251.741 98.0178 247.485 98.5543 243.33 99.6077C235.507 101.59 228.248 105.351 222.116 110.597C215.984 115.843 211.146 122.433 207.976 129.854C204.806 137.275 203.392 145.327 203.842 153.384C204.292 161.441 206.594 169.285 210.57 176.307C210.919 177.005 211.994 178.542 212.936 179.888C213.693 180.971 214.365 181.931 214.505 182.235C215.142 183.235 215.881 184.166 216.708 185.015C218.529 187.271 220.491 189.409 222.584 191.415C227.838 197.198 232.431 203.55 236.275 210.353C243.825 225.739 246.986 242.908 245.413 259.974C243.84 277.04 237.592 293.341 227.357 307.088C224.196 311.57 220.688 315.797 216.866 319.73L215.974 320.622C210.141 325.886 203.736 330.479 196.879 334.314C142.216 360.386 97.9934 324.347 97.9934 324.347L93.5344 320.674C90.2239 318.1 87.3993 314.956 85.1934 311.389C46.0066 251.061 68.4065 212.294 86.0328 192.517C87.3106 191.083 88.5329 189.502 89.6997 187.992C90.4967 186.96 91.2679 185.962 92.0131 185.068C94.6998 181.96 97.0067 178.544 98.8852 174.891L99.2 174.366C102.822 167.268 104.71 159.411 104.708 151.442C103.537 138.393 97.5263 126.254 87.8571 117.413C78.1879 108.573 65.5605 103.67 52.459 103.67C39.3575 103.67 26.7301 108.573 17.0609 117.413C7.39168 126.254 1.38051 138.393 0.209842 151.442C0.208009 160.138 2.40987 168.693 6.60984 176.307C6.95882 177.005 8.03332 178.542 8.97529 179.888C9.73246 180.971 10.404 181.931 10.5443 182.235C11.1818 183.235 11.9201 184.166 12.7475 185.015C14.568 187.271 16.5304 189.409 18.623 191.415C23.789 197.21 28.2932 203.561 32.0525 210.353C39.5707 225.761 42.6917 242.944 41.072 260.012C39.4522 277.079 33.1545 293.369 22.8721 307.088L16.2098 316.53C11.0854 321.429 7.00694 327.315 4.22089 333.834C1.43484 340.353 -0.00102848 347.369 5.52709e-07 354.458V355.665C0.185708 365.952 3.3924 375.957 9.22102 384.436C15.0496 392.914 23.2428 399.492 32.781 403.35C42.3193 407.207 52.7813 408.175 62.8653 406.132C72.9493 404.09 82.2101 399.127 89.4951 391.861C90.3317 391.281 91.0739 390.756 91.7758 390.259C93.2305 389.23 94.5126 388.324 96.1049 387.297C156.433 348.11 195.2 370.51 215.029 388.137C216.603 389.553 218.282 390.917 219.961 392.176C227.293 399.365 236.574 404.244 246.653 406.208C249.748 406.811 252.876 407.132 256 407.172V98Z" fill="#FF8C29"/>
</g>
<defs>
<clipPath id="clip0_1_371">
<rect width="512" height="512" fill="white"/>
</clipPath>
</defs>
</svg>
