<svg width="512" height="512" viewBox="0 0 512 512" fill="none" xmlns="http://www.w3.org/2000/svg">
<g clip-path="url(#clip0_316_510)">
<path d="M331.7 374H264H252.5H247.5H167.3C152.9 374 141.1 362.2 141.1 347.8V183.3C141.1 168.9 129.3 157.1 114.9 157.1H29.4002C15.0002 157.1 3.2002 168.9 3.2002 183.3V485.7C3.2002 500.1 15.0002 511.9 29.4002 511.9H249.5H252.5H264H331.8C346.2 511.9 358 500.1 358 485.7V400.2C357.9 385.8 346.1 374 331.7 374Z" fill="#4ACFD9"/>
<path d="M382.3 346.6C382.3 361 394.1 372.8 408.5 372.8H482.4C496.8 372.8 508.6 361 508.6 346.6V32.5999C508.6 18.1999 496.8 6.3999 482.4 6.3999H168.4C154 6.3999 142.2 18.1999 142.2 32.5999V104.6C142.2 119 154 130.8 168.4 130.8H224.2C238.6 130.8 250.4 142.6 250.4 157V238.2C250.4 252.9 262.4 264.9 277.1 264.9H356C370.4 264.9 382.2 276.7 382.2 291.1V346.6H382.3Z" fill="#4ACFD9"/>
<path fill-rule="evenodd" clip-rule="evenodd" d="M255.8 7H168.2C153.8 7 142 18.8 142 33.2V105.2C142 119.6 153.8 131.4 168.2 131.4H224C238.4 131.4 250.2 143.2 250.2 157.6V238.8C250.2 244.938 252.292 250.606 255.8 255.125V7Z" fill="#0295AA"/>
<path fill-rule="evenodd" clip-rule="evenodd" d="M255.8 374.6H252.3H247.3H167.1C152.7 374.6 140.9 362.8 140.9 348.4V183.9C140.9 169.5 129.1 157.7 114.7 157.7H29.2C14.8 157.7 3 169.5 3 183.9V486.3C3 500.7 14.8 512.5 29.2 512.5H249.3H252.3H255.8V374.6Z" fill="#0295AA"/>
</g>
<defs>
<clipPath id="clip0_316_510">
<rect width="512" height="512" fill="white"/>
</clipPath>
</defs>
</svg>
