<?xml version="1.0" encoding="utf-8"?>
<!-- Generator: Adobe Illustrator 19.0.0, SVG Export Plug-In . SVG Version: 6.00 Build 0)  -->
<svg version="1.1" id="Layer_1" xmlns="http://www.w3.org/2000/svg" xmlns:xlink="http://www.w3.org/1999/xlink" x="0px" y="0px"
	 viewBox="96 11 512 512" style="enable-background:new 96 11 512 512;" xml:space="preserve">
<style type="text/css">
	.st0{display:none;}
	.st1{display:inline;}
	.st2{display:none;fill:#FFFFFF;}
	.st3{fill:#4ACFD9;}
</style>
<g id="Layer_3" class="st0">
	<rect x="1538" y="-1431.4" class="st1" width="512" height="512.8"/>
</g>
<polygon id="Fill-612" class="st2" points="856.3,-309.1 966.1,-254.1 966.1,-165.7 "/>
<polygon id="Fill-613" class="st2" points="1083,-309.1 972.8,-165.7 972.8,-254.1 "/>
<image style="display:none;overflow:visible;" width="1300" height="1390" xlink:href="6203DDD5.jpg"  transform="matrix(1 0 0 1 -298 -269)">
</image>
<path class="st3" d="M427.7,385H263.3c-14.4,0-26.2-11.8-26.2-26.2V194.3c0-14.4-11.8-26.2-26.2-26.2h-85.5
	c-14.4,0-26.2,11.8-26.2,26.2v302.4c0,14.4,11.8,26.2,26.2,26.2h302.4c14.4,0,26.2-11.8,26.2-26.2v-85.5
	C453.9,396.8,442.1,385,427.7,385z"/>
<path class="st3" d="M478.3,357.6c0,14.4,11.8,26.2,26.2,26.2h73.9c14.4,0,26.2-11.8,26.2-26.2c0,0,0-314,0-314
	c0-14.4-11.8-26.2-26.2-26.2h-314c-14.4,0-26.2,11.8-26.2,26.2v72c0,14.4,11.8,26.2,26.2,26.2l55.8,0c14.4,0,26.2,11.8,26.2,26.2
	v81.2c0,14.7,12,26.7,26.7,26.7c0,0,78.9,0,78.9,0c14.4,0,26.2,11.8,26.2,26.2V357.6z"/>
</svg>
