<?xml version="1.0" encoding="utf-8"?>
<!-- Generator: Adobe Illustrator 19.0.0, SVG Export Plug-In . SVG Version: 6.00 Build 0)  -->
<svg version="1.1" id="Layer_1" xmlns="http://www.w3.org/2000/svg" xmlns:xlink="http://www.w3.org/1999/xlink" x="0px" y="0px"
	 viewBox="-703 270 512 512" style="enable-background:new -703 270 512 512;" xml:space="preserve">
<style type="text/css">
	.st0{fill:#0295AA;}
	.st1{fill:#365558;}
	.st2{fill:none;stroke:#FFFFFF;stroke-width:13;stroke-linecap:round;stroke-linejoin:round;stroke-miterlimit:10;}
	.st3{fill:#F0353D;}
	.st4{fill:#FD6A33;}
	.st5{fill:#FF8C29;}
	.st6{fill:#FFD1A9;}
	.st7{fill:#4ACFD9;}
	.st8{fill:#9BAAAB;}
	.st9{fill:#CDD4D5;}
	.st10{fill:#E6EAEA;}
	.st11{fill:#FFFFFF;}
	.st12{fill:#BCD643;}
</style>
<path class="st0" d="M-227.5,270H-447v512h219.5c20.1,0,36.5-16.4,36.5-36.5v-439C-191,286.4-207.4,270-227.5,270z"/>
<path class="st1" d="M-666.5,270c-20.1,0-36.5,16.4-36.5,36.5v439c0,20.1,16.4,36.5,36.5,36.5H-447V270H-666.5z"/>
<g>
	<path class="st2" d="M-664,477.4c0,0,0,22,0,50.1c0,28.1,17.7,44.9,31.5,44.9s32.4,0,32.4,0"/>
	<path class="st2" d="M-479.2,477.4c0,0,0,11.7,0,47.5s-20.3,49.7-40.6,49.7c-20.3,0-40.6-13.8-40.6-49.7s0-47.5,0-47.5"/>
	<path class="st2" d="M-351.4,574.6c0,0,0-11.7,0-47.5s-20.3-49.7-40.6-49.7c-20.3,0-40.6,13.8-40.6,49.7s0,47.5,0,47.5"/>
	<circle class="st2" cx="-258.5" cy="526" r="48.5"/>
</g>
<rect x="-1330.3" y="270" class="st3" width="128" height="128"/>
<rect x="-1202.3" y="270" class="st4" width="128" height="128"/>
<rect x="-1074.3" y="270" class="st5" width="128" height="128"/>
<rect x="-946.3" y="270" class="st6" width="128" height="128"/>
<rect x="-1330.3" y="398" class="st1" width="128" height="128"/>
<rect x="-1202.3" y="398" class="st0" width="128" height="128"/>
<rect x="-1074.3" y="398" class="st7" width="128" height="128"/>
<rect x="-1330.3" y="526" class="st8" width="128" height="128"/>
<rect x="-1202.3" y="526" class="st9" width="128" height="128"/>
<rect x="-1074.3" y="526" class="st10" width="128" height="128"/>
<rect x="-946.3" y="526" class="st11" width="128" height="128"/>
<rect x="-1330.3" y="654" class="st12" width="128" height="128"/>
</svg>
