<svg width="512" height="512" viewBox="0 0 512 512" fill="none" xmlns="http://www.w3.org/2000/svg">
<path fill-rule="evenodd" clip-rule="evenodd" d="M256 512V481C131.736 481 31 380.264 31 256C31 131.736 131.736 31 256 31V0C114.615 0 0 114.615 0 256C0 397.385 114.615 512 256 512Z" fill="#9BAAAB"/>
<path fill-rule="evenodd" clip-rule="evenodd" d="M256 31C131.736 31 31 131.736 31 256C31 380.264 131.736 481 256 481V31Z" fill="#E6EAEA"/>
<path fill-rule="evenodd" clip-rule="evenodd" d="M256 512V481C380.264 481 481 380.264 481 256C481 131.736 380.264 31 256 31V0C397.385 0 512 114.615 512 256C512 397.385 397.385 512 256 512Z" fill="#CDD4D5"/>
<path fill-rule="evenodd" clip-rule="evenodd" d="M256 31C380.264 31 481 131.736 481 256C481 380.264 380.264 481 256 481V31Z" fill="white"/>
<path d="M406.88 249.428C406.88 254.615 404.819 259.59 401.151 263.258C397.483 266.926 392.508 268.987 387.32 268.987C384.752 268.987 382.208 268.481 379.835 267.498C377.462 266.515 375.306 265.075 373.489 263.258C371.673 261.442 370.232 259.286 369.249 256.913C368.266 254.54 367.761 251.996 367.761 249.428C367.761 246.859 368.266 244.316 369.249 241.943C370.232 239.569 371.673 237.413 373.489 235.597C375.306 233.781 377.462 232.34 379.835 231.357C382.208 230.374 384.752 229.868 387.32 229.868C389.889 229.868 392.432 230.374 394.805 231.357C397.178 232.34 399.335 233.781 401.151 235.597C402.967 237.413 404.408 239.569 405.391 241.943C406.374 244.316 406.88 246.859 406.88 249.428ZM274.456 229.869H388.738V268.988H274.456V229.869ZM294.592 138.56C294.592 143.747 292.531 148.722 288.863 152.39C285.195 156.058 280.22 158.119 275.032 158.119C269.845 158.119 264.87 156.058 261.202 152.39C257.533 148.722 255.473 143.747 255.473 138.56C255.473 133.372 257.533 128.397 261.202 124.729C264.87 121.061 269.845 119 275.032 119C280.22 119 285.195 121.061 288.863 124.729C292.531 128.397 294.592 133.372 294.592 138.56ZM255.473 135.747H294.592V247.236H255.473V135.747ZM300.345 246.705C300.345 249.652 299.764 252.569 298.637 255.291C297.509 258.013 295.857 260.487 293.773 262.57C291.69 264.653 289.217 266.306 286.494 267.434C283.772 268.561 280.855 269.141 277.909 269.141C271.958 269.141 266.252 266.778 262.044 262.57C257.836 258.363 255.473 252.656 255.473 246.705C255.473 243.759 256.053 240.842 257.18 238.12C258.308 235.398 259.961 232.924 262.044 230.841C264.127 228.757 266.601 227.105 269.323 225.977C272.045 224.85 274.962 224.27 277.909 224.27C280.855 224.27 283.772 224.85 286.494 225.977C289.217 227.105 291.69 228.757 293.773 230.841C295.857 232.924 297.509 235.398 298.637 238.12C299.764 240.842 300.345 243.759 300.345 246.705Z" fill="#F0353D"/>
<path d="M124.56 268.987C135.362 268.987 144.119 260.23 144.119 249.428C144.119 238.625 135.362 229.868 124.56 229.868C113.757 229.868 105 238.625 105 249.428C105 260.23 113.757 268.987 124.56 268.987Z" fill="#365558"/>
<path d="M200.407 268.987C211.21 268.987 219.967 260.23 219.967 249.428C219.967 238.625 211.21 229.868 200.407 229.868C189.605 229.868 180.848 238.625 180.848 249.428C180.848 260.23 189.605 268.987 200.407 268.987Z" fill="#365558"/>
<path d="M201.592 229.868H123.167V268.987H201.592V229.868Z" fill="#365558"/>
<path d="M162.702 387.069C159.034 383.401 156.973 378.426 156.973 373.239C156.973 368.051 159.034 363.076 162.702 359.408C166.37 355.74 171.345 353.679 176.533 353.679C181.72 353.679 186.695 355.74 190.363 359.408C194.031 363.076 196.092 368.051 196.092 373.239C196.092 378.426 194.031 383.401 190.363 387.069C186.695 390.738 181.72 392.798 176.533 392.798C171.345 392.798 166.37 390.738 162.702 387.069ZM270.17 307.262L189.36 388.072L161.699 360.41L242.509 279.601L270.17 307.262ZM320.497 386.065C316.829 382.397 314.768 377.422 314.768 372.235C314.768 367.047 316.829 362.072 320.497 358.404C324.165 354.736 329.14 352.675 334.328 352.675C339.515 352.675 344.49 354.736 348.159 358.404C351.827 362.072 353.887 367.047 353.887 372.235C353.887 377.422 351.827 382.397 348.159 386.065C344.49 389.734 339.515 391.794 334.328 391.794C329.14 391.794 324.165 389.734 320.497 386.065ZM350.148 360.393L322.486 388.055L243.651 309.22L271.313 281.558L350.148 360.393ZM239.959 313.663C237.875 311.579 236.223 309.106 235.095 306.384C233.968 303.662 233.387 300.744 233.387 297.798C233.387 294.852 233.968 291.934 235.095 289.212C236.223 286.49 237.875 284.017 239.959 281.933C244.166 277.726 249.873 275.362 255.823 275.362C261.774 275.362 267.48 277.726 271.688 281.933C273.771 284.017 275.424 286.49 276.551 289.212C277.679 291.934 278.259 294.852 278.259 297.798C278.259 300.744 277.679 303.662 276.551 306.384C275.424 309.106 273.771 311.579 271.688 313.663C267.48 317.87 261.774 320.234 255.823 320.234C249.873 320.234 244.166 317.87 239.959 313.663Z" fill="#9BAAAB"/>
<path d="M124.56 269.119C135.362 269.119 144.119 260.362 144.119 249.56C144.119 238.757 135.362 230 124.56 230C113.757 230 105 238.757 105 249.56C105 260.362 113.757 269.119 124.56 269.119Z" fill="#365558"/>
<path d="M200.407 269.119C211.21 269.119 219.967 260.362 219.967 249.56C219.967 238.757 211.21 230 200.407 230C189.605 230 180.848 238.757 180.848 249.56C180.848 260.362 189.605 269.119 200.407 269.119Z" fill="#365558"/>
<path d="M201.592 230H123.167V269.119H201.592V230Z" fill="#365558"/>
<path fill-rule="evenodd" clip-rule="evenodd" d="M256.027 275.031C255.636 275.01 255.244 275 254.85 275C250.063 275 245.434 276.53 241.616 279.319L241.536 279.239L240.949 279.825C240.264 280.366 239.608 280.948 238.985 281.571C238.365 282.192 237.782 282.848 237.24 283.534L161.729 359.046L160.726 360.048L160.762 360.085C157.701 363.626 156 368.164 156 372.877C156 378.064 158.061 383.039 161.729 386.707C165.397 390.375 170.372 392.436 175.56 392.436C180.272 392.436 184.81 390.735 188.351 387.674L188.387 387.71L189.307 386.79C189.335 386.762 189.363 386.735 189.39 386.707C189.418 386.68 189.445 386.652 189.473 386.624L254.959 321.138L256.027 322.206V320.07V319.841V295.509V293.73V275.031Z" fill="#365558"/>
</svg>
