<?xml version="1.0" encoding="UTF-8" standalone="no"?>
<svg
   xmlns:dc="http://purl.org/dc/elements/1.1/"
   xmlns:cc="http://creativecommons.org/ns#"
   xmlns:rdf="http://www.w3.org/1999/02/22-rdf-syntax-ns#"
   xmlns:svg="http://www.w3.org/2000/svg"
   xmlns="http://www.w3.org/2000/svg"
   xmlns:sodipodi="http://sodipodi.sourceforge.net/DTD/sodipodi-0.dtd"
   xmlns:inkscape="http://www.inkscape.org/namespaces/inkscape"
   viewBox="0 0 512.00001 511.99998"
   version="1.1"
   id="svg36"
   sodipodi:docname="okex.svg"
   width="512"
   height="512"
   inkscape:version="1.0.1 (3bc2e813f5, 2020-09-07)"
   inkscape:export-filename="E:\Superalgos\Projects\Foundations\Icons-SVG-Sources\exchanges\okex.png"
   inkscape:export-xdpi="100"
   inkscape:export-ydpi="100">
  <metadata
     id="metadata42">
    <rdf:RDF>
      <cc:Work
         rdf:about="">
        <dc:format>image/svg+xml</dc:format>
        <dc:type
           rdf:resource="http://purl.org/dc/dcmitype/StillImage" />
        <dc:title />
      </cc:Work>
    </rdf:RDF>
  </metadata>
  <defs
     id="defs40" />
  <sodipodi:namedview
     pagecolor="#ffffff"
     bordercolor="#666666"
     borderopacity="1"
     objecttolerance="10"
     gridtolerance="10"
     guidetolerance="10"
     inkscape:pageopacity="0"
     inkscape:pageshadow="2"
     inkscape:window-width="1920"
     inkscape:window-height="1017"
     id="namedview38"
     showgrid="false"
     lock-margins="true"
     fit-margin-top="0"
     fit-margin-left="0"
     fit-margin-right="0"
     fit-margin-bottom="0"
     inkscape:zoom="0.53036163"
     inkscape:cx="304.91567"
     inkscape:cy="104.21699"
     inkscape:window-x="-8"
     inkscape:window-y="-8"
     inkscape:window-maximized="1"
     inkscape:current-layer="svg36"
     inkscape:document-rotation="0" />
  <path
     d="M 0,512 V 0"
     fill="#dbd9d9"
     id="path2"
     style="stroke-width:1.2779" />
  <path
     d="m 228.45498,228.44296 a 115.89518,115.88909 0 0 0 55.12976,0 116.08688,116.08077 0 0 1 85.0077,-85.00322 115.89518,115.88909 0 1 0 -225.15793,0 116.04853,116.04243 0 0 1 85.02047,85.00322 z"
     fill="#7abdf7"
     id="path4"
     style="stroke-width:1.2779" />
  <path
     d="m 283.58474,283.54426 a 115.89518,115.88909 0 0 0 -55.12976,0 116.08688,116.08077 0 0 1 -85.00769,85.00323 115.89518,115.88909 0 1 0 225.15792,0 116.04853,116.04243 0 0 1 -85.02047,-85.00323 z"
     fill="#0d74f5"
     id="path6"
     style="stroke-width:1.2779" />
  <path
     d="m 396.15732,140.10452 a 115.76739,115.7613 0 0 0 -27.55211,3.32244 116.02298,116.01687 0 0 1 -84.99491,84.99044 115.89518,115.88909 0 0 0 0,55.12686 116.04853,116.04243 0 0 1 84.99491,85.00323 115.89518,115.88909 0 1 0 27.55211,-228.46852 z"
     fill="#4494f7"
     id="path8"
     style="stroke-width:1.2779" />
  <path
     d="m 228.45498,283.54426 a 115.89518,115.88909 0 0 0 0,-55.12686 116.04853,116.04243 0 0 1 -85.00769,-84.99044 115.89518,115.88909 0 1 0 0,225.14608 116.06132,116.05521 0 0 1 85.00769,-85.02878 z"
     fill="#005cf4"
     id="path10"
     style="stroke-width:1.2779" />
  <path
     d="m 283.58474,228.44296 a 116.08688,116.08077 0 0 0 85.0077,-85.00322 116.08688,116.08077 0 0 0 -85.0077,85.00322 z"
     fill="#186ef9"
     id="path12"
     style="stroke-width:1.2779" />
  <path
     d="m 283.58474,283.54426 a 116.04853,116.04243 0 0 0 85.0077,85.00323 116.08688,116.08077 0 0 0 -85.0077,-85.00323 z"
     fill="#0246f2"
     id="path14"
     style="stroke-width:1.2779" />
  <path
     d="m 228.45498,228.44296 a 116.08688,116.08077 0 0 0 -85.00769,-85.00322 116.08688,116.08077 0 0 0 85.00769,85.00322 z"
     fill="#0046f8"
     id="path16"
     style="stroke-width:1.2779" />
  <path
     d="m 228.45498,283.54426 a 116.08688,116.08077 0 0 0 -85.00769,85.00323 116.08688,116.08077 0 0 0 85.00769,-85.00323 z"
     fill="#0729f1"
     id="path18"
     style="stroke-width:1.2779" />
  <path
     d="m 228.45498,228.44296 a 115.89518,115.88909 0 0 0 55.12976,0 116.08688,116.08077 0 0 1 85.0077,-85.00322 115.89518,115.88909 0 1 0 -225.15793,0 116.04853,116.04243 0 0 1 85.02047,85.00322 z"
     fill="#7abdf7"
     id="path20"
     style="stroke-width:1.2779;fill:#4acfd9;fill-opacity:1" />
  <path
     d="m 283.58474,283.54426 a 115.89518,115.88909 0 0 0 -55.12976,0 116.08688,116.08077 0 0 1 -85.00769,85.00323 115.89518,115.88909 0 1 0 225.15792,0 116.04853,116.04243 0 0 1 -85.02047,-85.00323 z"
     fill="#0d74f5"
     id="path22"
     style="stroke-width:1.2779;fill:#0295aa;fill-opacity:1" />
  <path
     d="m 396.15732,140.10452 a 115.76739,115.7613 0 0 0 -27.55211,3.32244 116.02298,116.01687 0 0 1 -84.99491,84.99044 115.89518,115.88909 0 0 0 0,55.12686 116.04853,116.04243 0 0 1 84.99491,85.00323 115.89518,115.88909 0 1 0 27.55211,-228.46852 z"
     fill="#4494f7"
     id="path24"
     style="stroke-width:1.2779;fill:#4acfd9;fill-opacity:1" />
  <path
     d="m 228.45498,283.54426 a 115.89518,115.88909 0 0 0 0,-55.12686 116.04853,116.04243 0 0 1 -85.00769,-84.99044 115.89518,115.88909 0 1 0 0,225.14608 116.06132,116.05521 0 0 1 85.00769,-85.02878 z"
     fill="#005cf4"
     id="path26"
     style="stroke-width:1.2779;fill:#0295aa;fill-opacity:1" />
  <path
     d="m 283.58474,228.44296 a 116.08688,116.08077 0 0 0 85.0077,-85.00322 116.08688,116.08077 0 0 0 -85.0077,85.00322 z"
     fill="#186ef9"
     id="path28"
     style="stroke-width:1.2779;fill:#0295aa;fill-opacity:1" />
  <path
     d="m 283.58474,283.54426 a 116.04853,116.04243 0 0 0 85.0077,85.00323 116.08688,116.08077 0 0 0 -85.0077,-85.00323 z"
     fill="#0246f2"
     id="path30"
     style="stroke-width:1.2779;fill:#365558;fill-opacity:1" />
  <path
     d="m 228.45498,228.44296 a 116.08688,116.08077 0 0 0 -85.00769,-85.00322 116.08688,116.08077 0 0 0 85.00769,85.00322 z"
     fill="#0046f8"
     id="path32"
     style="stroke-width:1.2779;fill:#365558;fill-opacity:1" />
  <path
     d="m 228.45498,283.54426 a 116.08688,116.08077 0 0 0 -85.00769,85.00323 116.08688,116.08077 0 0 0 85.00769,-85.00323 z"
     fill="#0729f1"
     id="path34"
     style="stroke-width:1.2779;fill:#365558;fill-opacity:1" />
  <rect
     x="-600"
     y="0"
     class="st3"
     width="128"
     height="128"
     id="rect18"
     style="fill:#f0353d" />
  <rect
     x="-472"
     y="0"
     class="st4"
     width="128"
     height="128"
     id="rect20"
     style="fill:#fd6a33" />
  <rect
     x="-344"
     y="0"
     class="st5"
     width="128"
     height="128"
     id="rect22"
     style="fill:#ff8c29" />
  <rect
     x="-215.99994"
     y="0"
     class="st6"
     width="128"
     height="128"
     id="rect24"
     style="fill:#ffd1a9" />
  <rect
     x="-600"
     y="128.00002"
     class="st1"
     width="128"
     height="128"
     id="rect26"
     style="fill:#365558" />
  <rect
     x="-472"
     y="128.00002"
     class="st0"
     width="128"
     height="128"
     id="rect28"
     style="fill:#0295aa" />
  <rect
     x="-344"
     y="128.00002"
     class="st7"
     width="128"
     height="128"
     id="rect30"
     style="fill:#4acfd9" />
  <rect
     x="-600"
     y="256"
     class="st8"
     width="128"
     height="128"
     id="rect32"
     style="fill:#9baaab" />
  <rect
     x="-472"
     y="256"
     class="st9"
     width="128"
     height="128"
     id="rect34"
     style="fill:#cdd4d5" />
  <rect
     x="-344"
     y="256"
     class="st10"
     width="128"
     height="128"
     id="rect36"
     style="fill:#e6eaea" />
  <rect
     x="-215.99994"
     y="256"
     class="st11"
     width="128"
     height="128"
     id="rect38"
     style="fill:#ffffff" />
  <rect
     x="-600"
     y="384"
     class="st12"
     width="128"
     height="128"
     id="rect40"
     style="fill:#bcd643" />
</svg>
