<svg width="512" height="512" viewBox="0 0 512 512" fill="none" xmlns="http://www.w3.org/2000/svg">
<g clip-path="url(#clip0_311_361)">
<path fill-rule="evenodd" clip-rule="evenodd" d="M256 231.742C265.249 231.741 274.497 230.632 283.545 228.417C288.606 207.839 299.203 189.039 314.188 174.054C329.173 159.07 347.974 148.474 368.553 143.413C372.724 126.355 372.964 108.572 369.254 91.4077C365.544 74.2433 357.982 58.1464 347.138 44.333C336.295 30.5196 322.454 19.351 306.661 11.6709C290.875 3.99454 273.553 0.00387573 256 -0.000106812V231.742Z" fill="#4ACFD9"/>
<path fill-rule="evenodd" clip-rule="evenodd" d="M256 0.0263672C238.443 0.0284286 221.116 4.01916 205.327 11.6973C189.534 19.3775 175.693 30.5461 164.849 44.3595C154.006 58.1729 146.443 74.2698 142.734 91.4342C139.024 108.599 139.263 126.382 143.434 143.44C164.018 148.494 182.823 159.089 197.811 174.073C212.799 189.058 223.397 207.862 228.455 228.443C237.503 230.658 246.751 231.767 256 231.769V0.0263672Z" fill="#7ABDF7"/>
<path fill-rule="evenodd" clip-rule="evenodd" d="M256 511.961C238.425 511.959 221.08 507.968 205.275 500.29C189.466 492.61 175.611 481.441 164.756 467.628C153.902 453.814 146.332 437.718 142.618 420.553C138.904 403.389 139.144 385.606 143.32 368.548C163.924 363.493 182.749 352.899 197.752 337.914C212.756 322.929 223.364 304.126 228.427 283.544C237.484 281.329 246.742 280.22 256 280.219V511.961Z" fill="#0295AA"/>
<path fill-rule="evenodd" clip-rule="evenodd" d="M256 511.961C273.575 511.959 290.92 507.968 306.725 500.29C322.534 492.61 336.389 481.441 347.244 467.628C358.098 453.814 365.668 437.718 369.382 420.553C373.096 403.389 372.856 385.606 368.68 368.548C348.076 363.493 329.251 352.899 314.248 337.914C299.244 322.929 288.636 304.126 283.573 283.544C274.516 281.329 265.258 280.22 256 280.219V511.961Z" fill="#4ACFD9"/>
<path d="M396.157 140.105C386.873 140.103 377.623 141.219 368.605 143.427C363.55 164.004 352.956 182.804 337.973 197.787C322.989 212.769 304.189 223.363 283.61 228.418C279.176 246.526 279.176 265.436 283.61 283.544C304.189 288.603 322.989 299.199 337.973 314.184C352.956 329.168 363.55 347.97 368.605 368.548C384.524 372.436 401.086 372.904 417.198 369.922C433.311 366.94 448.608 360.575 462.08 351.247C475.552 341.919 486.893 329.841 495.354 315.809C503.815 301.777 509.205 286.11 511.167 269.843C513.128 253.575 511.618 237.076 506.735 221.435C501.852 205.794 493.708 191.366 482.84 179.104C471.971 166.841 458.626 157.022 443.684 150.295C428.742 143.569 412.544 140.087 396.157 140.079V140.105Z" fill="#4494F7"/>
<path d="M228.455 283.544C232.889 265.436 232.889 246.525 228.455 228.417C207.876 223.362 189.074 212.769 174.088 197.786C159.103 182.804 148.506 164.004 143.447 143.427C126.388 139.256 108.604 139.016 91.439 142.726C74.2737 146.436 58.176 153.998 44.3618 164.841C30.5477 175.683 19.3785 189.524 11.6979 205.316C4.01739 221.108 0.0263672 238.439 0.0263672 256C0.0263672 273.561 4.01739 290.892 11.6979 306.684C19.3785 322.476 30.5477 336.316 44.3618 347.159C58.176 358.002 74.2737 365.564 91.439 369.274C108.604 372.983 126.388 372.744 143.447 368.573C148.501 347.989 159.096 329.182 174.081 314.193C189.067 299.204 207.872 288.604 228.455 283.544Z" fill="#005CF4"/>
<path d="M283.585 228.443C304.164 223.383 322.965 212.786 337.95 197.802C352.935 182.818 363.532 164.018 368.593 143.44C348.014 148.5 329.213 159.097 314.228 174.081C299.243 189.065 288.645 207.865 283.585 228.443Z" fill="#186EF9"/>
<path d="M283.585 283.544C288.642 304.124 299.237 322.926 314.223 337.911C329.209 352.896 348.012 363.491 368.593 368.548C363.532 347.97 352.935 329.17 337.95 314.186C322.965 299.201 304.164 288.605 283.585 283.544Z" fill="#0246F2"/>
<path d="M228.455 228.443C223.394 207.865 212.797 189.065 197.812 174.081C182.827 159.097 164.026 148.5 143.447 143.44C148.508 164.018 159.105 182.818 174.09 197.802C189.075 212.786 207.876 223.383 228.455 228.443Z" fill="#0046F8"/>
<path d="M228.455 283.544C207.876 288.605 189.075 299.201 174.09 314.186C159.105 329.17 148.508 347.97 143.447 368.548C164.026 363.487 182.827 352.891 197.812 337.907C212.797 322.922 223.394 304.122 228.455 283.544Z" fill="#0729F1"/>
<path d="M396.157 140.105C386.873 140.103 377.623 141.219 368.605 143.427C363.55 164.004 352.956 182.804 337.973 197.787C322.989 212.769 304.189 223.363 283.61 228.418C279.176 246.526 279.176 265.436 283.61 283.544C304.189 288.603 322.989 299.199 337.973 314.184C352.956 329.168 363.55 347.97 368.605 368.548C384.524 372.436 401.086 372.904 417.198 369.922C433.311 366.94 448.608 360.575 462.08 351.247C475.552 341.919 486.893 329.841 495.354 315.809C503.815 301.777 509.205 286.11 511.167 269.843C513.128 253.575 511.618 237.076 506.735 221.435C501.852 205.794 493.708 191.366 482.84 179.104C471.971 166.841 458.626 157.022 443.684 150.295C428.742 143.569 412.544 140.087 396.157 140.079V140.105Z" fill="#4ACFD9"/>
<path d="M228.455 283.544C232.889 265.436 232.889 246.525 228.455 228.417C207.876 223.362 189.074 212.769 174.088 197.786C159.103 182.804 148.506 164.004 143.447 143.427C126.388 139.256 108.604 139.016 91.439 142.726C74.2737 146.436 58.176 153.998 44.3618 164.841C30.5477 175.683 19.3785 189.524 11.6979 205.316C4.01739 221.108 0.0263672 238.439 0.0263672 256C0.0263672 273.561 4.01739 290.892 11.6979 306.684C19.3785 322.476 30.5477 336.316 44.3618 347.159C58.176 358.002 74.2737 365.564 91.439 369.274C108.604 372.983 126.388 372.744 143.447 368.573C148.501 347.989 159.096 329.182 174.081 314.193C189.067 299.204 207.872 288.604 228.455 283.544Z" fill="#0295AA"/>
<path d="M283.585 228.443C304.164 223.383 322.965 212.786 337.95 197.802C352.935 182.818 363.532 164.018 368.593 143.44C348.014 148.5 329.213 159.097 314.228 174.081C299.243 189.065 288.645 207.865 283.585 228.443Z" fill="#0295AA"/>
<path d="M283.585 283.544C288.642 304.124 299.237 322.926 314.223 337.911C329.209 352.896 348.012 363.491 368.593 368.548C363.532 347.97 352.935 329.17 337.95 314.186C322.965 299.201 304.164 288.605 283.585 283.544Z" fill="#0295AA"/>
<path d="M228.455 228.443C223.394 207.865 212.797 189.065 197.812 174.081C182.827 159.097 164.026 148.5 143.447 143.44C148.508 164.018 159.105 182.818 174.09 197.802C189.075 212.786 207.876 223.383 228.455 228.443Z" fill="#365558"/>
<path d="M228.455 283.544C207.876 288.605 189.075 299.201 174.09 314.186C159.105 329.17 148.508 347.97 143.447 368.548C164.026 363.487 182.827 352.891 197.812 337.907C212.797 322.922 223.394 304.122 228.455 283.544Z" fill="#365558"/>
<path fill-rule="evenodd" clip-rule="evenodd" d="M256 231.742C246.751 231.741 237.503 230.632 228.455 228.417C223.394 207.839 212.797 189.039 197.812 174.054C182.827 159.07 164.026 148.474 143.447 143.413C139.276 126.355 139.036 108.572 142.746 91.4077C146.456 74.2433 154.018 58.1464 164.862 44.333C175.705 30.5196 189.546 19.351 205.339 11.6708C221.125 3.99457 238.447 0.00384521 256 -0.00012207V231.742Z" fill="#0295AA"/>
</g>
<defs>
<clipPath id="clip0_311_361">
<rect width="512" height="512" fill="white"/>
</clipPath>
</defs>
</svg>
