<svg width="512" height="512" viewBox="0 0 512 512" fill="none" xmlns="http://www.w3.org/2000/svg">
<g clip-path="url(#clip0_321_391)">
<path fill-rule="evenodd" clip-rule="evenodd" d="M256 312.7H321.356C324.274 329.347 334.316 341.6 346.4 341.6C358.484 341.6 368.526 329.347 371.443 312.7H488.4V349C488.4 427.6 384.7 491.3 256.1 491.3C256.067 491.3 256.033 491.3 256 491.3V312.7Z" fill="#FFD1A9"/>
<path fill-rule="evenodd" clip-rule="evenodd" d="M259 313.1H193.644C190.726 329.747 180.684 342 168.6 342C156.516 342 146.474 329.747 143.557 313.1H26.6001V349.4C26.6001 428 130.3 491.7 258.9 491.7C258.933 491.7 258.967 491.7 259 491.7V313.1Z" fill="#FF8C29"/>
<path fill-rule="evenodd" clip-rule="evenodd" d="M259 170.9C242.3 170.9 226 172 210.1 174.2V68.2001C210.1 42.2001 188.9 21.1001 163 21.1001C133.8 21.1001 111.5 47.8001 117.1 76.7001L138.6 191.7C71.5002 216.5 26.7002 261.7 26.7002 313.2C26.7002 391.7 130.4 455.5 259 455.1V170.9Z" fill="#FD6A33"/>
<path fill-rule="evenodd" clip-rule="evenodd" d="M256 170.5C272.7 170.5 289 171.6 304.9 173.8V67.8002C304.9 41.8002 326.1 20.7002 352 20.7002C381.2 20.7002 403.5 47.4002 397.9 76.3002L376.4 191.3C443.5 216.1 488.3 261.3 488.3 312.8C488.3 391.3 384.6 455.1 256 454.7V170.5Z" fill="#FF8C29"/>
<path fill-rule="evenodd" clip-rule="evenodd" d="M352 0C394.2 0 426.1 38.5 418.3 80L400.5 177.8C462.7 205.6 509.8 252.7 509.8 312.3V348.6C509.8 397.9 477.2 439 431.6 466.8C385.7 494.9 323.8 511.6 256.4 511.6C256.266 511.6 256.133 511.6 256 511.6V491.2C384.37 491.035 488.2 427.298 488.2 348.9V312.6C488.2 261.1 443.8 216.3 376.7 191.1L398.2 76.3C403.8 47.4 381.6 20.7 352.3 20.7C326.3 20.7 305.2 41.9 305.2 67.8V173.8C298.2 172.7 291.5 172 284.5 171.6C275.3 170.9 265.6 170.5 256 170.5L256 149.7C256.033 149.7 256.066 149.7 256.1 149.7C265.7 149.7 275.3 150.1 284.6 150.8V67.4C284.6 30.4 314.6 0 352 0Z" fill="#FD6A33"/>
<path fill-rule="evenodd" clip-rule="evenodd" d="M163 0.399902C120.8 0.399902 88.9002 38.8999 96.7002 80.3999L114.5 178.2C52.3002 206 5.2002 253.1 5.2002 312.7V349C5.2002 398.3 37.8002 439.4 83.4002 467.2C129.3 495.3 191.2 512 258.6 512C258.734 512 258.867 512 259 512V491.6C130.63 491.434 26.8002 427.698 26.8002 349.3V313C26.8002 261.5 71.2002 216.7 138.3 191.5L116.8 76.6999C111.2 47.7999 133.4 21.0999 162.7 21.0999C188.7 21.0999 209.8 42.2999 209.8 68.1999V174.2C216.8 173.1 223.5 172.4 230.5 172C239.7 171.3 249.4 170.9 259 170.9L259 150.1C258.967 150.1 258.934 150.1 258.9 150.1C249.3 150.1 239.7 150.5 230.4 151.2V67.7999C230.4 30.7999 200.4 0.399902 163 0.399902Z" fill="#F0353D"/>
<path d="M195.8 312.9C195.8 334.4 184.3 351.8 169.9 351.8C155.5 351.8 144 334.4 144 312.9C144 291.4 155.5 274 169.9 274C184.3 274 195.8 291.4 195.8 312.9Z" fill="#365558"/>
<path d="M374 312.9C374 334.4 362.5 351.8 348.1 351.8C333.7 351.8 322.2 334.4 322.2 312.9C322.2 291.4 333.7 274 348.1 274C362.5 274 374 291.4 374 312.9Z" fill="#9BAAAB"/>
</g>
<defs>
<clipPath id="clip0_321_391">
<rect width="512" height="512" fill="white"/>
</clipPath>
</defs>
</svg>
