<?xml version="1.0" encoding="utf-8"?>
<!-- Generator: Adobe Illustrator 19.0.0, SVG Export Plug-In . SVG Version: 6.00 Build 0)  -->
<svg version="1.1" id="Layer_1" xmlns="http://www.w3.org/2000/svg" xmlns:xlink="http://www.w3.org/1999/xlink" x="0px" y="0px"
	 viewBox="-543 195 512 512" style="enable-background:new -543 195 512 512;" xml:space="preserve">
<style type="text/css">
	.st0{display:none;}
	.st1{fill:#623312;}
	.st2{fill:#FDDC90;}
	.st3{fill:#D1884E;}
</style>
<polygon class="st0" points="717.7,-379 459,-379 459,133 971,133 971,-30.9 717.7,-30.9 "/>
<rect x="717.7" y="-379" class="st0" width="253.3" height="348.1"/>
<g class="st0">
	
		<text transform="matrix(1 0 0 1 495.4224 -248.0488)" style="display:inline;fill:#CDD4D5; font-family:'Saira-Black'; font-size:64.1866px;">E = mc</text>
	
		<text transform="matrix(1 0 0 1 688.1074 -269.4227)" style="display:inline;fill:#CDD4D5; font-family:'Saira-Black'; font-size:37.4208px;">2</text>
</g>
<g>
	<path class="st1" d="M-446.3,275.4c-7.8-41.5,24.1-80,66.3-80c37.4,0,67.4,30.4,67.4,67.4v83.4c9.3-0.7,18.9-1.1,28.5-1.1
		c9.3,0,18.5,0.4,27.4,0.7v-83.4c0-37.4,30.4-67.4,67.4-67.4c42.2,0,74.1,38.5,66.3,80l-18.2,97.8c62.6,27.4,110,74.8,110,134.9V544
		c0,49.3-32.6,90.4-78.2,118.2C-155.1,690.3-217,707-284.4,707c-67.4,0-129.3-16.7-175.2-44.8c-45.6-27.8-78.2-68.9-78.2-118.2
		v-36.3c0-59.6,47.1-106.7,109.3-134.5L-446.3,275.4z M-164.4,386.2l21.5-114.5c5.6-28.9-16.7-55.6-45.9-55.6
		c-25.9,0-47.1,21.1-47.1,47.1v106c-6.7-0.7-13.7-1.5-20.7-2.2c-8.9-0.7-18.2-1.1-27.4-1.1c-9.6,0-19.3,0.4-28.5,1.1
		c-7,0.4-13.7,1.1-20.7,2.2v-106c0-25.9-21.1-47.1-47.1-47.1c-29.3,0-51.5,26.7-45.9,55.6l21.5,114.8
		c-67.1,25.2-111.5,70-111.5,121.5v36.3c0,78.5,104.1,142.3,232.7,142.3S-51,622.9-51,544.4v-36.3C-51.4,456.6-96.9,411-164.4,386.2
		z"/>
	<path class="st2" d="M-51.4,544.4c0,78.5-104.1,142.3-232.7,142.3s-232.3-63.7-232.3-142.3v-36.3h464.9V544.4z"/>
	<path class="st3" d="M-425.9,271.7c-5.6-28.9,16.7-55.6,45.9-55.6c25.9,0,47.1,21.1,47.1,47.1v106c15.9-2.2,32.2-3.3,48.9-3.3
		c16.3,0,32.6,1.1,48.2,3v-106c0-25.9,21.1-47.1,47.1-47.1c29.3,0,51.5,26.7,45.9,55.6l-21.5,114.5c67.8,24.8,113,70,113,121.9
		c0,78.5-104.1,142.3-232.7,142.3c-128.6,0.4-232.3-63.4-232.3-141.9c0-51.5,44.8-96.7,111.9-121.5L-425.9,271.7z"/>
	<path class="st1" d="M-348.5,498.1c0,21.5-11.5,38.9-25.9,38.9c-14.4,0-25.9-17.4-25.9-38.9s11.5-38.9,25.9-38.9
		C-360,459.2-348.5,476.6-348.5,498.1z"/>
	<path class="st1" d="M-170.3,498.1c0,21.5-11.5,38.9-25.9,38.9s-25.9-17.4-25.9-38.9s11.5-38.9,25.9-38.9S-170.3,476.6-170.3,498.1
		z"/>
</g>
</svg>
