<svg width="512" height="512" viewBox="0 0 512 512" fill="none" xmlns="http://www.w3.org/2000/svg">
<path d="M246.48 65.5117C246.48 65.5117 341.585 -22.0583 409.1 58.0138C441.067 95.7864 453.535 189.298 433.241 274.18C407.376 383.537 338.136 448.472 338.136 448.472C338.136 448.472 465.871 328.788 472.238 156.053C474.758 88.147 456.984 19.1095 378.194 8.21629C315.322 -0.130452 246.48 65.5117 246.48 65.5117Z" fill="#FFD1A9"/>
<path fill-rule="evenodd" clip-rule="evenodd" d="M256 479.303C281.643 503.516 300.029 511.99 300.029 511.99C300.029 511.99 281.165 500.19 256 470.944V479.303Z" fill="#FFD1A9"/>
<path fill-rule="evenodd" clip-rule="evenodd" d="M256 324.843C264.319 332.602 275.21 337.307 287.101 337.307C313.231 337.307 334.321 314.813 334.321 287.085C334.321 259.357 313.231 236.863 287.101 236.863C275.175 236.863 264.3 241.548 256 249.277V324.843Z" fill="#BCD643"/>
<path fill-rule="evenodd" clip-rule="evenodd" d="M256 118.025C292.498 121.394 329.798 129.428 367.154 141.464C471.413 175.396 505.243 241.862 511.045 255.03C511.696 256.525 512 257.328 512 257.328C512 257.328 511.702 256.521 511.045 255.03C503.143 236.874 444.061 116.657 256 92.5139V118.025Z" fill="#FFD1A9"/>
<path fill-rule="evenodd" clip-rule="evenodd" d="M256 249.21C246.092 258.417 239.844 271.959 239.844 287.051C239.844 302.116 246.108 315.636 256 324.843V249.21Z" fill="#BCD643"/>
<path fill-rule="evenodd" clip-rule="evenodd" d="M256 92.4844C241.193 90.5824 225.586 89.276 209.142 88.6619C133.138 85.974 79.1521 115.824 49.0423 139.167C-14.0547 187.66 0.0312649 251.729 4.56354 267.055C5.19301 269.251 5.66821 270.451 5.66821 270.451C5.66821 270.451 5.21436 269.256 4.56354 267.055C0.116562 251.544 -12.0301 186.378 81.2744 144.118C134.802 119.931 194.252 112.288 256 117.994V92.4844Z" fill="#FF8C29"/>
<path fill-rule="evenodd" clip-rule="evenodd" d="M145.199 66.4667C164.433 -18.4154 225.846 9.87864 225.846 9.87864C225.846 9.87864 164.035 -27.1866 132.731 42.2753C100.764 112.445 121.722 215.718 135.649 263.393C169.464 380.028 219.923 445.248 256 479.303V470.952C230.426 441.241 198.336 393.507 172.922 321.82C131.007 202.278 135.649 108.766 145.199 66.4667Z" fill="#FF8C29"/>
<path fill-rule="evenodd" clip-rule="evenodd" d="M256 57.139C249.912 62.1722 246.445 65.4778 246.445 65.4778C246.445 65.4778 249.915 62.2828 256 57.6714V57.139Z" fill="#FF8C29"/>
</svg>
