<?xml version="1.0" encoding="utf-8"?>
<!-- Generator: Adobe Illustrator 19.0.0, SVG Export Plug-In . SVG Version: 6.00 Build 0)  -->
<svg version="1.1" id="Layer_1" xmlns="http://www.w3.org/2000/svg" xmlns:xlink="http://www.w3.org/1999/xlink" x="0px" y="0px"
	 viewBox="206 -206 512 512" style="enable-background:new 206 -206 512 512;" xml:space="preserve">
<style type="text/css">
	.st0{display:none;}
	.st1{display:inline;}
	.st2{display:none;fill:#FFFFFF;}
	.st3{fill:#0295AA;}
	.st4{fill:#4ACFD9;}
</style>
<g id="Layer_3" class="st0">
	<rect x="1442" y="-1442.4" class="st1" width="512" height="512.8"/>
</g>
<polygon id="Fill-612" class="st2" points="760.3,-320.1 870.1,-265.1 870.1,-176.7 "/>
<polygon id="Fill-613" class="st2" points="987,-320.1 876.8,-176.7 876.8,-265.1 "/>
<g>
	<path class="st3" d="M335.6,124.2C335.6,124.2,335.6,124.3,335.6,124.2C335.6,124.3,335.6,124.3,335.6,124.2z"/>
	<path class="st3" d="M335.5,124.4C335.5,124.3,335.5,124.3,335.5,124.4C335.5,124.4,335.5,124.4,335.5,124.4
		C335.5,124.4,335.5,124.4,335.5,124.4z"/>
	<path class="st3" d="M335.5,124.4C335.5,124.4,335.5,124.4,335.5,124.4C335.5,124.4,335.5,124.4,335.5,124.4
		C335.5,124.4,335.5,124.4,335.5,124.4z"/>
	<path class="st3" d="M335.5,124.5C335.5,124.5,335.5,124.5,335.5,124.5C335.5,124.5,335.5,124.5,335.5,124.5L335.5,124.5z"/>
	<path class="st3" d="M335.5,124.4C335.5,124.4,335.5,124.4,335.5,124.4C335.5,124.4,335.5,124.4,335.5,124.4z"/>
	<path class="st3" d="M335.5,124.4C335.5,124.4,335.5,124.4,335.5,124.4C335.5,124.4,335.5,124.4,335.5,124.4
		C335.5,124.4,335.5,124.5,335.5,124.4C335.5,124.5,335.5,124.5,335.5,124.4z"/>
	<polygon class="st3" points="488.3,-66.8 462,-66.8 462,-39.1 	"/>
	<path class="st3" d="M335.5,124.4C335.5,124.4,335.5,124.4,335.5,124.4C335.5,124.4,335.5,124.4,335.5,124.4
		C335.5,124.4,335.5,124.4,335.5,124.4z"/>
	<path class="st3" d="M335.6,124.2C335.6,124.2,335.6,124.3,335.6,124.2c0,0.1,0,0.1,0,0.1c0,0,0,0,0,0c0,0,0,0,0,0c0,0,0,0,0,0
		c0,0,0,0,0,0c0,0,0,0,0,0c0,0,0,0,0,0c0,0,0,0,0,0c0,0,0,0,0,0.1c0,0,0,0,0,0c0,0,0,0,0,0h-36.3c-8.8,0-15-8.6-12.2-16.9
		c0-0.1,0.1-0.2,0.1-0.3c0,0,0,0.1,0,0.1c0.7-2.2,7.9-23.6,58-174.2h-77.9l-58.9,177.7c-9,27.1,10.8,55.4,39.6,55.9l0,0
		c30.9,0,152.6,0,151.8,0L457.8-9.8l-31.4,8.2L462-39.1v-27.7h-63.3C343.7,99.5,336.4,121.9,335.6,124.2z"/>
	<path class="st3" d="M335.5,124.4c0-0.1,0-0.1,0-0.1C335.6,124.3,335.6,124.3,335.5,124.4C335.5,124.3,335.5,124.3,335.5,124.4z"/>
	<path class="st3" d="M287.1,107.2C287.1,107.1,287.1,107.1,287.1,107.2L287.1,107.2z"/>
	<path class="st3" d="M287,107.3c0,0,0-0.1,0-0.1C287.1,107.2,287.1,107.3,287,107.3z"/>
	<path class="st3" d="M287.1,107.2C287.1,107.2,287.1,107.2,287.1,107.2C287.1,107.2,287.1,107.2,287.1,107.2z"/>
</g>
<path class="st4" d="M673-66.6l-166.7,0.3l19.9,64.7l-26.8-8.2L462,102.9v62.9h56.6l25-73.2h77.7c37.5,0,70.8-24.1,82.4-59.8
	L711.8,8C735.2-62.7,685.6-66.6,673-66.6z M638.7-8.4l-14,42c-3.5,10.5-13.4,17.6-24.5,17.6h-43.4l25.5-76.6h44.1
	c4.1,0,8,2,10.4,5.3C639.4-16.7,640-12.4,638.7-8.4z"/>
<polygon class="st3" points="441.1,165.8 462,165.8 462,102.9 "/>
</svg>
