<svg width="512" height="512" viewBox="0 0 512 512" fill="none" xmlns="http://www.w3.org/2000/svg">
<g clip-path="url(#clip0_320_2)">
<path fill-rule="evenodd" clip-rule="evenodd" d="M258 135.178L188.006 134.533H187.597C165.212 134.533 145.51 147.169 136.602 167.69C127.283 188.621 131.215 212.255 146.964 229.048L165.622 249.16L193.823 218.686L177.439 200.868C171.008 193.823 173.507 186.573 174.531 184.279C175.575 181.801 179.302 175.78 187.597 175.78H187.802L258 176.427V135.178ZM258 280.052C257.806 280.061 257.624 280.064 257.454 280.064C253.092 280.064 248.955 278.2 246.047 274.883L234.639 262.656L206.438 293.13L215.552 302.879C226.324 314.491 241.664 321.331 257.434 321.331C257.622 321.331 257.811 321.33 258 321.328V280.052Z" fill="#F0353D"/>
<path fill-rule="evenodd" clip-rule="evenodd" d="M258 187.4C257.675 187.395 257.35 187.392 257.024 187.392C240.231 187.392 224.277 194.437 212.869 206.869L144.466 280.863C127.877 298.68 123.74 323.564 133.489 345.743C143.032 367.309 163.758 380.785 187.392 380.785L258 380.136V332.457L187.392 333.107C180.552 333.107 177.848 328.54 177.029 326.472C175.985 324.403 174.326 318.812 179.303 313.406L247.706 239.411C250.184 236.708 253.297 235.274 256.819 235.274C257.162 235.274 257.56 235.288 258 235.33V187.4Z" fill="#F0353D"/>
<path fill-rule="evenodd" clip-rule="evenodd" d="M257 511.5C115.831 511.5 1 396.669 1 255.5C1 114.331 108 0.00927734 256 0.00927734V41.0001V41.0093C137.646 41.0093 42.4515 137.146 42.4515 255.5C42.4515 373.854 138.646 471 257 471V511.5Z" fill="#F0353D"/>
<path fill-rule="evenodd" clip-rule="evenodd" d="M256 321.153C256.477 321.165 256.955 321.172 257.434 321.172C272.978 321.172 288.113 314.536 298.476 303.129L365.629 230.158C380.785 213.959 384.512 190.755 375.603 170.029C366.49 148.894 346.583 135.623 323.584 135.623L256 135V176.249L323.359 176.869C332.677 176.869 336.63 184.119 337.654 186.413C338.903 189.117 340.971 196.162 335.176 202.367L268.022 275.337C264.294 279.269 259.727 279.904 257.454 279.904C256.966 279.904 256.481 279.881 256 279.835V321.153Z" fill="#FD6A33"/>
<path fill-rule="evenodd" clip-rule="evenodd" d="M258 380.162L325.379 379.543C349.423 379.338 370.558 365.453 380.102 343.068C389.83 321.093 385.898 296.64 369.718 279.232L350.652 258.506L318.109 293.753L334.493 311.57C338.855 316.342 337.606 321.523 336.357 324.206C335.537 326.07 332.424 331.866 324.949 331.866L258 332.483V380.162ZM258 235.308C258.271 235.291 258.544 235.282 258.819 235.282C260.683 235.282 264.205 235.692 267.114 238.805L281.204 254.144L313.747 218.898L302.339 206.467C291.137 194.445 275.388 187.4 259.024 187.4C258.682 187.4 258.341 187.403 258 187.409V235.308Z" fill="#FD6A33"/>
<path d="M257 511.5C398.169 511.5 513 396.669 513 255.5C513 114.331 404 0 256 0V41C380 41 471.548 137.146 471.548 255.5C471.548 373.854 373.227 471 257 471V511.5ZM256 41C374.354 41 471.548 137.146 471.548 255.5C471.548 373.854 375.354 471 257 471C373.227 471 471.548 373.854 471.548 255.5C471.548 137.146 380 41 256 41Z" fill="#FD6A33"/>
</g>
<defs>
<clipPath id="clip0_320_2">
<rect width="512" height="512" fill="white"/>
</clipPath>
</defs>
</svg>
