<svg width="512" height="512" viewBox="0 0 512 512" fill="none" xmlns="http://www.w3.org/2000/svg">
<g clip-path="url(#clip0_483_706)">
<path d="M504 4.2998H8C3.6 4.2998 0 7.8998 0 12.2998V499.7C0 504.1 3.6 507.7 8 507.7H504C508.4 507.7 512 504.1 512 499.7V12.2998C512 7.8998 508.4 4.2998 504 4.2998Z" fill="#CDD4D5"/>
<path d="M504 4.2998H8C3.6 4.2998 0 7.8998 0 12.2998V122.9H512V12.2998C512 7.8998 508.4 4.2998 504 4.2998Z" fill="#9BAAAB"/>
<path d="M8 4.2998C3.6 4.2998 0 7.8998 0 12.2998V499.7C0 504.1 3.6 507.7 8 507.7H256V4.2998H8Z" fill="#9BAAAB"/>
<path d="M8 4.2998C3.6 4.2998 0 7.8998 0 12.2998V122.9H256V4.2998H8Z" fill="#687F82"/>
<path d="M264.6 29.8999C246 29.8999 230.9 44.9999 230.9 63.5999C230.9 82.1999 246 97.2999 264.6 97.2999C283.2 97.2999 298.3 82.1999 298.3 63.5999C298.3 44.9999 283.1 29.8999 264.6 29.8999Z" fill="#4ACFD9"/>
<path d="M170.5 29.8999C151.9 29.8999 136.8 44.9999 136.8 63.5999C136.8 82.1999 151.9 97.2999 170.5 97.2999C189.1 97.2999 204.2 82.1999 204.2 63.5999C204.2 44.9999 189.1 29.8999 170.5 29.8999Z" fill="#FF8C29"/>
<path d="M76.4002 29.8999C57.8002 29.8999 42.7002 44.9999 42.7002 63.5999C42.7002 82.1999 57.8002 97.2999 76.4002 97.2999C95.0002 97.2999 110.1 82.1999 110.1 63.5999C110.1 44.9999 95.0002 29.8999 76.4002 29.8999Z" fill="#F0353D"/>
<path d="M427 54.5H333C328.6 54.5 325 50.9 325 46.5C325 42.1 328.6 38.5 333 38.5H427C431.4 38.5 435 42.1 435 46.5C435 50.9 431.5 54.5 427 54.5Z" fill="white"/>
<path d="M469.8 54.5H452.7C448.3 54.5 444.7 50.9 444.7 46.5C444.7 42.1 448.3 38.5 452.7 38.5H469.8C474.2 38.5 477.8 42.1 477.8 46.5C477.8 50.9 474.2 54.5 469.8 54.5Z" fill="white"/>
<path d="M123.414 351V293.969C123.414 284.008 119.605 279.027 111.988 279.027C108.277 279.027 105.445 280.46 103.492 283.324C101.539 286.124 100.562 289.737 100.562 294.164V351H58.9609V202.953H100.562V264.574H100.953C104.534 259.431 108.863 255.492 113.941 252.758C119.085 249.958 124.586 248.559 130.445 248.559C141.253 248.559 149.488 252.042 155.152 259.008C160.816 265.909 163.648 276.098 163.648 289.574V351H123.414ZM252.809 349.633C250.921 350.544 247.828 351.391 243.531 352.172C239.234 353.018 234.059 353.441 228.004 353.441C216.415 353.441 207.333 350.251 200.758 343.871C194.247 337.491 190.992 328.409 190.992 316.625V279.809H175.27V251H190.992V231.371L232.008 220.043V251H252.809V279.809H232.008V309.789C232.008 318.578 235.491 322.973 242.457 322.973C245.712 322.973 249.163 322.257 252.809 320.824V349.633Z" fill="#F0353D"/>
<path d="M336.371 349.633C334.483 350.544 331.391 351.391 327.094 352.172C322.797 353.018 317.621 353.441 311.566 353.441C299.978 353.441 290.896 350.251 284.32 343.871C277.81 337.491 274.555 328.409 274.555 316.625V279.809H258.832V251H274.555V231.371L315.57 220.043V251H336.371V279.809H315.57V309.789C315.57 318.578 319.053 322.973 326.02 322.973C329.275 322.973 332.725 322.257 336.371 320.824V349.633ZM462.152 297.973C462.152 308.91 460.297 318.578 456.586 326.977C452.875 335.375 447.634 341.885 440.863 346.508C434.092 351.13 426.475 353.441 418.012 353.441C406.293 353.441 397.406 349.177 391.352 340.648H390.961V396.996H349.359V251H390.961V264.574H391.352C394.672 259.561 398.969 255.655 404.242 252.855C409.516 249.991 415.505 248.559 422.211 248.559C435.102 248.559 444.965 252.855 451.801 261.449C458.702 270.043 462.152 282.217 462.152 297.973ZM419.965 299.242C419.965 292.927 418.728 287.979 416.254 284.398C413.845 280.818 410.102 279.027 405.023 279.027C400.596 279.027 397.016 280.915 394.281 284.691C391.547 288.467 390.18 293.643 390.18 300.219V302.172C390.18 308.487 391.352 313.533 393.695 317.309C396.039 321.085 399.555 322.973 404.242 322.973C409.255 322.973 413.129 320.922 415.863 316.82C418.598 312.654 419.965 306.794 419.965 299.242Z" fill="#FD6A33"/>
</g>
<defs>
<clipPath id="clip0_483_706">
<rect width="512" height="512" fill="white"/>
</clipPath>
</defs>
</svg>
