<svg width="512" height="512" viewBox="0 0 512 512" fill="none" xmlns="http://www.w3.org/2000/svg">
<g clip-path="url(#clip0_641_318)">
<path d="M140.701 141.801H135.001H129.201C121.801 141.801 115.801 147.901 115.801 155.201V212.901C115.801 220.301 121.901 226.301 129.201 226.301H135.001H140.701C144.001 226.301 146.901 223.601 146.901 220.101V147.901C146.801 144.701 144.101 141.801 140.701 141.801Z" fill="#FD6A33"/>
<path d="M372.4 226.303H366.7C363.4 226.303 360.5 223.603 360.5 220.103V147.903C360.5 144.603 363.2 141.703 366.7 141.703H372.4H378.2C385.6 141.703 391.6 147.803 391.6 155.103V212.903C391.6 220.303 385.5 226.303 378.2 226.303H372.4Z" fill="#FF8C29"/>
<path d="M318.999 88H276.599C272.399 88 268.499 84.2 268.499 79.9V78H253.699V211.5H256.699H262.299C263.999 211.5 265.299 212.9 265.299 214.4V220C265.299 221.7 263.899 223 262.299 223H256.699V223.1H253.699V266.3H318.999C335.999 266.3 349.899 252.4 349.899 235.4V118.7C349.899 101.7 335.899 87.8 318.999 88ZM307.799 219.9C307.799 221.7 306.299 223.1 304.599 223.1H287.699C285.999 223.1 284.499 221.6 284.499 219.9V214.7C284.499 212.9 285.999 211.5 287.699 211.5H304.499C306.299 211.5 307.699 213 307.699 214.7V219.9H307.799ZM296.099 172.2C287.599 172.2 280.699 165.3 280.699 156.8C280.699 148.3 287.599 141.4 296.099 141.4C304.599 141.4 311.499 148.3 311.499 156.8C311.499 165.3 304.599 172.2 296.099 172.2Z" fill="#FF8C29"/>
<path d="M256.699 223H253.699V223.1H256.699V223Z" fill="#FF8C29"/>
<path d="M273.101 72.8C279.801 68.4 277.901 58.5 271.501 53.5C271.501 53.5 253.801 66.6 253.801 77.9C259.001 77.9 268.601 77.9 268.601 77.9C268.601 77.9 267.701 76.4 273.101 72.8Z" fill="#FF8C29"/>
<path d="M253.7 78H238.9V79.7C238.9 84.4 234.1 87.8 229.6 87.8H188.5C171.5 87.8 157.6 101.7 157.6 118.7V235.5C157.6 252.5 171.5 266.4 188.5 266.4H253.7V223.1H245.1C243.4 223.1 242.1 221.7 242.1 220.1V214.5C242.1 212.8 243.5 211.5 245.1 211.5H249.7H253.8V78H253.7ZM222.9 220.1C222.9 221.8 221.5 223.1 219.9 223.1H202.7C201 223.1 199.7 221.7 199.7 220.1V214.5C199.7 212.8 201.1 211.5 202.7 211.5H219.9C221.5 211.5 222.9 212.9 222.9 214.5V220.1ZM211.3 172.1C202.8 172.1 195.9 165.2 195.9 156.7C195.9 148.2 202.8 141.3 211.3 141.3C219.8 141.3 226.7 148.3 226.7 156.7C226.7 165.2 219.8 172.1 211.3 172.1Z" fill="#FD6A33"/>
<path d="M249.6 55.6993C243.9 59.3993 238.9 65.6993 238.9 77.9993C245.8 77.9993 248.5 77.9993 253.7 77.9993C253.7 66.4993 271.6 53.3993 271.6 53.3993C265.2 48.3993 255.2 51.9993 249.6 55.6993Z" fill="#FD6A33"/>
<path d="M129.101 192.602C129.701 193.502 130.001 194.702 129.601 195.802C128.101 202.202 129.301 208.902 132.901 214.102C134.101 215.802 133.701 218.302 132.201 219.602C130.501 220.902 128.101 220.602 126.901 219.002C121.801 212.002 120.201 203.002 122.301 194.402C122.801 192.302 124.801 191.002 126.901 191.502C128.001 191.402 128.501 191.902 129.101 192.602Z" fill="#FFD1A9"/>
<path d="M380.9 191.399C382.9 190.899 385 192.299 385.5 194.299C387.7 202.899 386 211.899 380.9 218.899C379.7 220.499 377.4 220.799 375.6 219.499C374.1 218.199 373.6 215.799 374.9 213.999C378.5 208.699 379.8 202.099 378.2 195.699C377.8 194.599 378.1 193.399 378.7 192.499C379.3 191.899 379.9 191.399 380.9 191.399Z" fill="#FFD1A9"/>
<path d="M317.1 24.0018L299.8 40.7018C297.5 42.9018 293.8 42.9018 291.4 40.6018C289.1 38.3018 289.1 34.7018 291.5 32.5018L308.8 15.8018C311.1 13.6018 314.8 13.6018 317.2 15.9018C319.4 18.1018 319.4 21.7018 317.1 24.0018Z" fill="#F0353D"/>
<path d="M331.001 59.3016C329.901 60.4016 328.501 61.0016 326.701 60.9016L304.701 60.8016C301.401 60.8016 298.801 58.3016 298.801 54.9016C298.801 51.8016 301.401 49.2016 304.801 49.1016L326.801 49.2016C330.101 49.2016 332.701 51.7016 332.701 55.1016C332.801 56.8016 332.001 58.3016 331.001 59.3016Z" fill="#F0353D"/>
<path d="M280.899 31.5C279.799 32.6 278.399 33.2 276.599 33.1C273.299 33.1 270.699 30.6 270.699 27.2L270.799 5.8C270.799 2.7 273.399 0.1 276.799 0C280.099 0 282.699 2.5 282.699 5.9V27.3C282.599 29 282.099 30.4 280.899 31.5Z" fill="#F0353D"/>
<path d="M253.699 432.602V425.702L272.199 401.202L305.399 331.602L321.799 334.502L352.299 356.402L335.199 408.102L279.999 464.502H253.699V432.602Z" fill="white"/>
<path d="M253.7 282.703C264.6 282.703 267.7 284.803 271.2 292.203C276.7 303.603 282.6 315.203 276.6 321.303C270.5 327.403 260.6 330.103 253.6 330.103V282.703H253.7Z" fill="#FD6A33"/>
<path d="M253.699 334.801C253.699 334.801 263.699 334.401 266.499 332.801C269.199 331.201 277.199 378.501 276.199 392.401C275.199 406.301 270.899 404.001 270.899 404.001L253.699 429.901V334.801Z" fill="#FD6A33"/>
<path d="M253.7 432.302V425.702L235.2 401.202L202 331.602L185.6 334.502L155.1 356.402L172.2 408.102L227.4 464.502L253.7 464.202V432.302Z" fill="#E6EAEA"/>
<path d="M253.699 454.1C294.099 454.1 326.799 386.6 326.799 341H357.699C357.699 397.3 370.599 486.5 420.399 486.5V512.1H253.699V454.1Z" fill="#0295AA"/>
<path d="M253.7 454.1C213.3 454.1 180.6 386.6 180.6 341H149.7C149.7 397.3 136.8 486.5 87 486.5V512.1H253.7V454.1Z" fill="#365558"/>
<path d="M326.701 311C340.301 314.8 362.601 333.5 371.101 338.8C374.901 341.1 384.901 348.7 381.101 354.7C381.101 354.7 336.001 330.2 326.401 346.4C316.801 362.6 309.701 377.5 299.901 391.4C288.401 407.7 259.701 436.1 259.701 436.1C256.501 436.8 256.001 436.6 255.001 435.9C253.601 434.7 253.101 429.7 254.301 425.8L310.001 323.1C312.301 316.5 319.701 311 326.701 311Z" fill="#CDD4D5"/>
<path d="M253.7 282.703C242.8 282.703 239.7 284.803 236.2 292.203C230.7 303.603 224.8 315.203 230.8 321.303C236.9 327.403 246.8 330.103 253.8 330.103V282.703H253.7Z" fill="#F0353D"/>
<path d="M253.699 335.004C253.699 335.004 243.699 334.604 240.899 332.904C238.199 331.204 230.199 378.604 231.199 392.504C232.199 406.404 236.499 404.104 236.499 404.104L253.699 429.904V335.004Z" fill="#F0353D"/>
<path d="M180.701 311C187.601 311 195.101 316.5 197.301 323L253.001 425.7C254.201 429.7 253.701 434.1 252.301 435.8C251.601 436.6 251.701 436.7 247.601 436C247.601 436 218.901 407.5 207.401 391.3C197.601 377.3 190.501 362.5 180.901 346.3C171.301 330.1 126.201 354.6 126.201 354.6C122.601 348.6 132.401 341.1 136.201 338.7C144.801 333.5 167.101 314.9 180.701 311Z" fill="#9BAAAB"/>
<path d="M253.7 486.701C257.953 486.701 261.4 483.253 261.4 479.001C261.4 474.748 257.953 471.301 253.7 471.301C249.447 471.301 246 474.748 246 479.001C246 483.253 249.447 486.701 253.7 486.701Z" fill="#365558"/>
<path d="M130.409 411.256C51.1784 407.549 0 445.276 0 445.276C29.1224 434.096 93.6843 420.464 130.409 426.263C188.546 435.471 244.436 461.658 252.894 506.201C253.215 508.054 253.537 510.027 253.858 512V478.279C235.121 444.559 192.615 414.126 130.409 411.256Z" fill="#FD6A33"/>
<path d="M250.651 486.638C239.108 478.33 225.428 470.448 208.115 463.488C186.633 454.79 139.822 447.688 91.8353 450.706C48.658 453.44 13.9238 461.429 13.9238 465.264C13.9238 465.264 52.7192 461.429 91.8353 460.541C118.661 459.938 175.625 464.27 208.863 476.27C217.947 479.573 234.726 487.952 253.857 498C253.109 494.591 252.254 491.325 251.292 488.307C251.078 487.774 250.864 487.206 250.651 486.638Z" fill="#0295AA"/>
<path d="M377.306 411.256C456.536 407.549 507.715 445.276 507.715 445.276C478.592 434.096 414.031 420.464 377.306 426.263C319.168 435.471 263.279 461.658 254.821 506.201C254.5 508.054 254.178 510.027 253.857 512V478.279C272.594 444.559 315.1 414.126 377.306 411.256Z" fill="#FF8C29"/>
<path d="M257.064 486.638C268.607 478.33 282.287 470.448 299.6 463.488C321.082 454.79 367.893 447.688 415.88 450.706C459.057 453.44 493.791 461.429 493.791 465.264C493.791 465.264 454.996 461.429 415.88 460.541C389.054 459.938 332.09 464.27 298.852 476.271C289.768 479.573 272.988 487.952 253.858 498C254.606 494.591 255.461 491.325 256.423 488.307C256.637 487.774 256.85 487.206 257.064 486.638Z" fill="#4ACFD9"/>
<path d="M250.627 492.319C239.094 488.165 225.426 484.224 208.127 480.744C186.664 476.395 139.892 472.844 91.9467 474.353C48.8062 475.72 14.1016 479.715 14.1016 481.632C14.1016 481.632 52.8639 479.715 91.9467 479.271C118.749 478.969 175.665 481.135 208.875 487.135C217.951 488.786 234.716 492.976 253.83 498C253.083 496.296 252.229 494.662 251.268 493.153C251.054 492.887 250.84 492.603 250.627 492.319Z" fill="#0295AA"/>
<path d="M257.033 492.319C268.566 488.165 282.234 484.224 299.533 480.744C320.997 476.395 367.768 472.844 415.713 474.353C458.854 475.72 493.559 479.715 493.559 481.632C493.559 481.632 454.796 479.715 415.713 479.271C388.911 478.969 331.995 481.135 298.786 487.135C289.709 488.786 272.944 492.976 253.83 498C254.577 496.296 255.432 494.662 256.393 493.153C256.606 492.887 256.82 492.603 257.033 492.319Z" fill="#4ACFD9"/>
<path d="M250.627 495.633C239.094 493.902 225.426 492.26 208.127 490.81C186.664 488.998 139.892 487.518 91.9467 488.147C48.8062 488.717 14.1016 490.381 14.1016 491.18C14.1016 491.18 52.8639 490.381 91.9467 490.196C118.749 490.07 175.665 490.973 208.875 493.473C217.951 494.161 234.716 495.907 253.83 498C253.083 497.29 252.229 496.609 251.268 495.981C251.054 495.87 250.84 495.751 250.627 495.633Z" fill="#0295AA"/>
<path d="M257.033 495.633C268.566 493.902 282.234 492.26 299.533 490.81C320.997 488.998 367.768 487.518 415.713 488.147C458.854 488.717 493.559 490.381 493.559 491.18C493.559 491.18 454.796 490.381 415.713 490.196C388.911 490.07 331.995 490.973 298.786 493.473C289.709 494.161 272.944 495.907 253.83 498C254.577 497.29 255.432 496.609 256.393 495.981C256.606 495.87 256.82 495.751 257.033 495.633Z" fill="#4ACFD9"/>
<path d="M253.83 498H0V512H253.83V498Z" fill="#687F82"/>
<path d="M512 498H253.83V512H512V498Z" fill="#9BAAAB"/>
</g>
<defs>
<clipPath id="clip0_641_318">
<rect width="512" height="512" fill="white"/>
</clipPath>
</defs>
</svg>
