<svg width="512" height="512" viewBox="0 0 512 512" fill="none" xmlns="http://www.w3.org/2000/svg">
<path d="M199 361C195.623 361 184.842 352.66 174.841 317.37C172.892 310.523 171.204 303.543 169.775 295.774L199 295.937V295.774V271.961H198.994L165.619 272.072C162.891 252.188 161.073 230.198 160.683 207.417H198.87H199V183.715H198.87H160.813C161.203 160.934 162.891 138.943 165.749 119.06H198.74H198.87V95.489H198.74H169.645C171.074 87.8516 172.892 80.6091 174.711 73.8935C184.712 38.4715 195.363 30.8341 198.74 30.8341H198.87V7H198.74C96.3883 7 13 91.5386 13 195.566C13 299.593 96.5182 384.5 199 384.5V361ZM129.38 76.9221C138.732 62.3056 149.123 50.9811 160.683 43.0803C157.825 50.1911 154.968 58.0919 152.37 67.1778C149.902 75.8687 147.694 85.218 145.876 95.2256H119.379C122.496 88.7733 125.743 82.716 129.38 76.9221ZM137.563 183.715H98.8562C99.8953 160.802 103.662 138.943 110.156 119.06H142.369C139.511 139.075 137.823 161.066 137.563 183.715ZM142.239 271.94H110.027C103.662 252.057 99.6355 230.198 98.7262 207.285H137.433C137.823 229.934 139.511 251.925 142.239 271.94ZM117.82 52.5613C115.092 56.2483 112.494 60.0671 109.767 64.0175C103.662 73.6301 98.4665 84.0328 93.7905 95.2256H69.7612C82.8799 77.9755 99.1159 63.4907 117.82 52.5613ZM54.824 119.06H85.7374C79.8925 139.338 76.3855 161.066 75.6062 183.715H36.8995C38.3282 160.539 44.6928 138.548 54.824 119.06ZM54.824 271.94C44.6928 252.32 38.1983 230.461 36.6397 207.285H75.3464C76.2556 229.934 79.7626 251.662 85.4777 271.94H54.824ZM69.8911 295.774H93.9204C98.4665 306.835 103.792 317.37 109.897 326.983C112.494 331.065 115.092 335.015 117.95 338.439C99.1159 327.509 82.8799 313.024 69.8911 295.774ZM129.38 314.078C125.743 308.284 122.366 302.095 119.379 295.774H145.876C147.824 305.65 149.902 315.131 152.37 323.822C154.968 332.776 157.696 340.941 160.683 348.051C149.383 340.019 138.732 328.694 129.38 314.078Z" fill="#0295AA"/>
<rect x="385" y="301" width="127" height="102" rx="10" fill="#FFD1A9"/>
<rect x="251" y="412" width="127" height="100" rx="10" fill="#687F82"/>
<rect x="385" y="412" width="127" height="100" rx="10" fill="#BCD643"/>
<rect x="251" y="302" width="126.928" height="100.796" rx="10" fill="#F0353D"/>
<rect x="440" y="420" width="13" height="84" fill="white"/>
<rect x="405" y="468" width="12" height="84" transform="rotate(-90 405 468)" fill="white"/>
<path d="M385.066 195.487C385.066 91.635 301.366 7.13163 198.5 7V30.8242C202.02 30.9558 212.58 38.9849 222.489 73.8656C224.445 80.7101 226.139 87.6862 227.574 95.4521H199L198.5 119.013H231.746C234.483 139.02 236.309 160.87 236.7 183.641H198.5V207.382H236.5C236.109 230.285 234.238 252.406 231.5 272.281L199 272V296H227.5C225.936 303.503 224.314 310.264 222.489 317.109C212.45 352.121 202.39 360.868 199 361V384.5C199 384.5 232.431 379.094 234.931 377.893L235 360.15L234.931 290.3C234.931 290.3 235 282.292 243 282.292H363.5C363.5 282.292 382 262.27 385.066 195.487ZM342.955 271.83H311.926C317.793 251.56 321.313 229.841 322.095 207.202H360.947C359.643 230.368 353.124 252.349 342.955 271.83ZM342.955 119.013C353.124 138.625 359.643 160.475 361.208 183.641H322.356C321.443 161.001 317.923 139.283 312.187 119.013H342.955ZM327.832 95.1889H303.712C299.149 84.1324 293.804 73.6023 287.676 63.9937C285.069 59.9133 282.461 55.9646 279.593 52.5423C298.497 63.4672 314.925 77.946 327.832 95.1889ZM259.906 183.641C259.515 161.001 257.82 139.283 255.213 119.013H287.546C293.934 138.888 297.976 160.738 298.888 183.641H259.906ZM298.758 207.202C297.715 230.105 293.934 251.954 287.416 271.83H255.083C257.69 251.56 259.385 229.841 259.776 207.202H298.758ZM268.12 76.893C271.771 82.6845 275.16 88.8709 278.159 95.1889H251.562C249.607 85.317 247.521 75.84 245.044 67.1527C242.436 58.2022 239.698 50.0414 236.7 42.9337C248.042 50.9628 258.733 62.2826 268.12 76.893Z" fill="#4ACFD9"/>
</svg>
