<svg width="512" height="512" viewBox="0 0 512 512" fill="none" xmlns="http://www.w3.org/2000/svg">
<rect x="372.381" y="97" width="40" height="179.763" transform="rotate(60 372.381 97)" fill="#0295AA"/>
<path d="M372.457 409.227L392.457 374.586L231.829 281.847L211.829 316.488L372.457 409.227Z" fill="#0295AA"/>
<path d="M436.4 498.9C477.931 498.9 511.6 465.232 511.6 423.7C511.6 382.168 477.931 348.5 436.4 348.5C394.868 348.5 361.2 382.168 361.2 423.7C361.2 465.232 394.868 498.9 436.4 498.9Z" fill="#4ACFD9"/>
<path d="M393 423.5C393 399.8 412.3 380.5 436 380.5" stroke="white" stroke-width="20" stroke-miterlimit="10" stroke-linecap="round"/>
<path d="M436.4 150.4C477.931 150.4 511.6 116.732 511.6 75.2C511.6 33.6682 477.931 0 436.4 0C394.868 0 361.2 33.6682 361.2 75.2C361.2 116.732 394.868 150.4 436.4 150.4Z" fill="#4ACFD9"/>
<path d="M393 75C393 51.3 412.3 32 436 32" stroke="white" stroke-width="20" stroke-miterlimit="10" stroke-linecap="round"/>
<path d="M121.154 364.246C118.954 364.246 111.932 358.94 105.417 335.834C104.148 331.351 103.048 326.782 102.118 321.695L121.154 321.648V306.435L99.4105 306.176C97.6338 293.157 96.4493 278.759 96.1955 263.844H121.069H121.154L121.154 248.623L96.2801 248.325C96.5339 233.409 97.6338 219.011 99.4951 205.993L121.154 206.025V190.812L102.033 190.56C102.964 185.559 104.148 180.817 105.333 176.42C111.847 153.228 118.954 148.214 121.154 148.214V148.228V133C54.4854 133 0 187.973 0 256.084C0 324.195 54.3162 379.46 121.069 379.46H121.154V364.246ZM75.8058 178.403C81.8973 168.833 88.6657 161.419 96.1955 156.246C94.3342 160.901 92.4729 166.074 90.7808 172.023C89.1733 177.714 87.735 183.835 86.5506 190.387H69.2912C71.3217 186.163 73.4368 182.197 75.8058 178.403ZM81.1359 248.325H55.9237C56.6005 233.323 59.0541 219.011 63.2843 205.993H84.2662C82.4049 219.097 81.3051 233.496 81.1359 248.325ZM84.1816 306.09H63.1997C59.054 293.071 56.4313 278.759 55.8391 263.758H81.0513C81.3051 278.587 82.4049 292.985 84.1816 306.09ZM68.276 162.453C66.4993 164.867 64.8072 167.368 63.0305 169.954C59.054 176.248 55.6699 183.059 52.6241 190.387H36.9722C45.5173 179.093 56.0929 169.609 68.276 162.453ZM27.2427 205.993H47.3786C43.5714 219.27 41.2871 233.496 40.7794 248.325H15.5673C16.4979 233.151 20.6435 218.753 27.2427 205.993ZM27.2427 306.09C20.6435 293.244 16.4133 278.932 15.3981 263.758H40.6102C41.2025 278.587 43.4868 292.812 47.2094 306.09H27.2427ZM37.0568 321.695H52.7087C55.6699 328.937 59.1386 335.834 63.1151 342.128C64.8072 344.801 66.4993 347.387 68.3606 349.629C56.0929 342.473 45.5173 332.989 37.0568 321.695ZM75.8058 333.679C73.4368 329.885 71.2371 325.833 69.2912 321.695H86.5506C87.8196 328.161 89.1733 334.369 90.7808 340.059C92.4729 345.922 94.2496 351.267 96.1955 355.923C88.8349 350.664 81.8973 343.249 75.8058 333.679Z" fill="#0295AA"/>
<path d="M243 256.158C243 188.301 188.335 133.086 121.154 133L121.154 148.214C123.453 148.3 130.35 153.899 136.821 176.69C138.098 181.162 139.205 185.721 140.142 190.795H121.154V206.025L142.866 206.19C144.655 219.262 145.847 233.539 146.102 248.418L121.154 248.623V263.837L146.017 263.812C145.761 278.777 144.655 293.054 142.866 306.04L121.154 306.435V321.648H139.889C138.867 326.551 138.013 331.154 136.821 335.626C130.265 358.503 123.368 364.16 121.154 364.246L121.154 379.46C188.335 379.546 243 323.929 243 256.158ZM215.497 306.04H195.232C199.064 292.796 201.363 278.605 201.874 263.812H227.248C226.396 278.949 222.139 293.312 215.497 306.04ZM215.497 206.19C222.139 219.004 226.396 233.281 227.418 248.418H202.044C201.448 233.625 199.149 219.434 195.403 206.19H215.497ZM205.62 190.623H189.868C186.888 183.398 183.397 176.518 179.395 170.24C177.692 167.574 175.989 164.994 174.116 162.757C186.462 169.896 197.191 179.356 205.62 190.623ZM161.258 248.418C161.003 233.625 159.896 219.434 158.193 206.19H179.31C183.482 219.176 186.121 233.453 186.717 248.418H161.258ZM186.632 263.812C185.951 278.777 183.482 293.054 179.224 306.04H158.108C159.811 292.796 160.918 278.605 161.173 263.812H186.632ZM166.623 178.668C169.007 182.452 171.221 186.495 173.179 190.623H155.809C154.532 184.173 153.169 177.98 151.552 172.304C149.849 166.456 148.06 161.123 146.102 156.479C153.51 161.725 160.492 169.122 166.623 178.668ZM166.623 333.562C160.492 343.108 153.68 350.505 146.102 355.665C148.146 351.021 149.934 345.86 151.552 339.84C153.169 334.164 154.617 328.058 155.809 321.521H173.179C171.221 325.735 169.007 329.778 166.623 333.562ZM174.286 349.473C176.074 347.064 177.777 344.57 179.565 341.99C183.567 335.712 186.973 328.918 190.038 321.607H205.791C197.191 332.874 186.462 342.334 174.286 349.473Z" fill="#4ACFD9"/>
</svg>
