<svg width="512" height="512" viewBox="0 0 512 512" fill="none" xmlns="http://www.w3.org/2000/svg">
<g clip-path="url(#clip0_485_1308)">
<path d="M511.023 506.204L296.088 291.269C295.069 290.25 293.534 289.945 292.202 290.497C290.869 291.048 290 292.349 290 293.791V508.726C290 510.696 291.597 512.292 293.566 512.292H508.501C509.943 512.292 511.243 511.424 511.796 510.09C512.348 508.758 512.043 507.224 511.023 506.204ZM325.664 476.628V371.26L431.395 476.628H325.664Z" fill="#9BAAAB"/>
<path d="M403.557 398.737L378.44 423.854L431.396 476.628H325.664L291.045 511.248C291.691 511.893 292.582 512.293 293.567 512.293H508.502C509.944 512.293 511.244 511.424 511.796 510.091C512.349 508.758 512.043 507.224 511.023 506.204L403.557 398.737Z" fill="#687F82"/>
<path d="M322.098 489.942C320.128 489.942 318.532 491.539 318.532 493.509V512.292H325.664V493.509C325.664 491.539 324.068 489.942 322.098 489.942Z" fill="#365558"/>
<path d="M350.629 489.942C348.659 489.942 347.062 491.539 347.062 493.509V512.292H354.195V493.509C354.195 491.539 352.598 489.942 350.629 489.942Z" fill="#365558"/>
<path d="M379.16 489.942C377.19 489.942 375.594 491.539 375.594 493.509V512.292H382.727V493.509C382.727 491.539 381.13 489.942 379.16 489.942Z" fill="#365558"/>
<path d="M407.692 489.942C405.722 489.942 404.125 491.539 404.125 493.509V512.292H411.258V493.509C411.258 491.539 409.661 489.942 407.692 489.942Z" fill="#365558"/>
<path d="M436.222 489.942C434.253 489.942 432.656 491.539 432.656 493.509V512.292H439.789V493.509C439.789 491.539 438.192 489.942 436.222 489.942Z" fill="#365558"/>
<path d="M464.753 489.942C462.784 489.942 461.187 491.539 461.187 493.509V512.292H468.32V493.509C468.319 491.539 466.723 489.942 464.753 489.942Z" fill="#365558"/>
<path d="M365.846 388.657C364.933 388.657 364.02 388.309 363.324 387.613L310.066 334.355C308.673 332.962 308.673 330.704 310.066 329.311C311.459 327.919 313.717 327.919 315.109 329.311L368.367 382.569C369.76 383.962 369.76 386.22 368.367 387.613C367.671 388.309 366.759 388.657 365.846 388.657Z" fill="white"/>
<path d="M384.866 409.579C383.953 409.579 383.041 409.231 382.345 408.535L372.834 399.025C371.441 397.632 371.441 395.374 372.834 393.981C374.227 392.588 376.485 392.588 377.877 393.981L387.388 403.491C388.78 404.884 388.78 407.142 387.388 408.535C386.692 409.231 385.779 409.579 384.866 409.579Z" fill="white"/>
<path d="M484.124 381.101L401.805 298.782C401.137 298.114 400.23 297.738 399.284 297.738C398.338 297.738 397.431 298.114 396.762 298.782L359.103 336.441C358.434 337.111 358.059 338.017 358.059 338.963C358.059 339.909 358.434 340.816 359.103 341.485L441.422 423.803C442.118 424.5 443.031 424.848 443.943 424.848C444.856 424.848 445.769 424.5 446.465 423.803L484.124 386.145C484.793 385.476 485.168 384.569 485.168 383.623C485.168 382.677 484.793 381.77 484.124 381.101Z" fill="#FD6A33"/>
<path d="M378.093 317.451L359.103 336.441C358.434 337.11 358.058 338.017 358.058 338.963C358.058 339.909 358.434 340.816 359.103 341.485L441.421 423.803C442.117 424.499 443.03 424.847 443.943 424.847C444.855 424.847 445.768 424.499 446.464 423.803L465.455 404.813L378.093 317.451Z" fill="#F0353D"/>
<path d="M472.019 393.205L389.7 310.887C388.308 309.495 386.049 309.495 384.657 310.887L371.208 324.336C370.539 325.006 370.163 325.912 370.163 326.859C370.163 327.804 370.539 328.711 371.208 329.381L453.526 411.699C454.222 412.395 455.135 412.743 456.048 412.743C456.96 412.743 457.873 412.395 458.569 411.699L472.019 398.249C472.688 397.58 473.063 396.673 473.063 395.727C473.064 394.781 472.688 393.874 472.019 393.205Z" fill="#4ACFD9"/>
<path d="M378.093 317.451L371.208 324.336C370.539 325.005 370.163 325.912 370.163 326.858C370.163 327.804 370.539 328.711 371.208 329.38L453.526 411.698C454.222 412.394 455.135 412.742 456.048 412.742C456.96 412.742 457.873 412.394 458.569 411.698L465.455 404.813L378.093 317.451Z" fill="#0295AA"/>
<path d="M349.688 289.367C348.845 290.21 348.479 291.419 348.712 292.588L358.127 339.662L399.983 297.807L352.909 288.392C351.739 288.158 350.531 288.524 349.688 289.367Z" fill="#FFD1A9"/>
<path d="M349.858 289.216C349.802 289.266 349.742 289.313 349.688 289.367C348.845 290.21 348.479 291.419 348.712 292.588L358.127 339.662L379.216 318.573L349.858 289.216Z" fill="#FFD1A9"/>
<path d="M349.688 289.367C348.845 290.21 348.479 291.419 348.712 292.588L352.747 312.763L373.083 292.426L352.909 288.392C351.739 288.158 350.531 288.524 349.688 289.367Z" fill="#687F82"/>
<path d="M349.858 289.217C349.802 289.267 349.742 289.313 349.688 289.368C348.845 290.211 348.479 291.419 348.712 292.589L352.747 312.764L363.076 302.434L349.858 289.217Z" fill="#365558"/>
<path d="M484.124 381.101L441.421 423.804L468.32 450.703C469.017 451.399 469.93 451.747 470.842 451.747C471.754 451.747 472.667 451.399 473.364 450.703L511.023 413.044C511.692 412.375 512.067 411.468 512.067 410.522C512.067 409.576 511.691 408.669 511.023 408L484.124 381.101Z" fill="#CDD4D5"/>
<path d="M462.933 402.292L441.421 423.804L468.32 450.703C469.017 451.399 469.93 451.747 470.842 451.747C471.754 451.747 472.667 451.399 473.364 450.703L492.354 431.713L462.933 402.292Z" fill="#9BAAAB"/>
<path d="M489.48 415.286C488.568 415.286 487.655 414.938 486.959 414.242L477.448 404.731C476.056 403.338 476.056 401.08 477.448 399.687C478.841 398.295 481.099 398.295 482.491 399.687L492.002 409.198C493.395 410.591 493.395 412.849 492.002 414.242C491.306 414.938 490.394 415.286 489.48 415.286Z" fill="white"/>
<path d="M511.023 330.6L470.674 290.25C465.575 285.153 457.279 285.153 452.18 290.25L440.075 302.355C434.976 307.455 434.976 315.75 440.075 320.849L480.424 361.199C481.092 361.868 481.999 362.243 482.945 362.243C483.891 362.243 484.798 361.867 485.467 361.199L511.021 335.644C512.416 334.251 512.416 331.993 511.023 330.6Z" fill="#4ACFD9"/>
<path d="M482.947 362.243C483.893 362.243 484.8 361.868 485.469 361.199L511.023 335.645C512.416 334.252 512.416 331.994 511.023 330.601L484.124 303.702L453.526 334.3L480.425 361.199C481.094 361.868 482.001 362.243 482.947 362.243Z" fill="#FFD1A9"/>
<path d="M446.235 296.195L440.076 302.355C434.977 307.454 434.977 315.749 440.076 320.849L480.425 361.198C481.093 361.867 482 362.242 482.946 362.242C483.892 362.242 484.799 361.866 485.468 361.198L498.353 348.313L446.235 296.195Z" fill="#0295AA"/>
<path d="M468.932 318.893L453.525 334.299L480.424 361.199C481.093 361.867 482 362.243 482.946 362.243C483.892 362.243 484.799 361.867 485.468 361.199L498.352 348.314L468.932 318.893Z" fill="#FF8C29"/>
<path d="M492.361 336.688C491.448 336.688 490.536 336.34 489.84 335.644L479.08 324.884C477.687 323.491 477.687 321.233 479.08 319.84C480.473 318.448 482.731 318.448 484.123 319.84L494.883 330.6C496.275 331.993 496.275 334.251 494.883 335.644C494.187 336.34 493.274 336.688 492.361 336.688Z" fill="white"/>
<path d="M256 361C253.828 361 246.894 355.769 240.461 332.987C239.208 328.567 238.122 324.061 237.203 319.046L256 319V304L234.529 303.745C232.775 290.909 231.605 276.713 231.354 262.007H255.916H256L256 247L231.438 246.706C231.689 232 232.775 217.804 234.613 204.968L256 205V190L237.119 189.752C238.038 184.821 239.208 180.146 240.377 175.811C246.81 152.944 253.828 148 256 148V148.014V133C190.167 133 136.365 187.202 136.365 254.356C136.365 321.511 190 376 255.916 376H256V361ZM211.22 177.766C217.236 168.33 223.919 161.02 231.354 155.919C229.517 160.51 227.679 165.61 226.008 171.475C224.42 177.086 223 183.121 221.83 189.582H204.787C206.793 185.416 208.881 181.506 211.22 177.766ZM216.484 246.706H191.587C192.256 231.915 194.679 217.804 198.856 204.968H219.575C217.737 217.889 216.651 232.085 216.484 246.706ZM219.491 303.66H198.772C194.679 290.824 192.089 276.713 191.504 261.922H216.4C216.651 276.543 217.737 290.739 219.491 303.66ZM203.785 162.04C202.03 164.42 200.36 166.885 198.605 169.435C194.679 175.641 191.337 182.356 188.329 189.582H172.874C181.312 178.446 191.755 169.095 203.785 162.04ZM163.266 204.968H183.149C179.39 218.059 177.134 232.085 176.633 246.706H151.737C152.656 231.745 156.75 217.549 163.266 204.968ZM163.266 303.66C156.75 290.994 152.572 276.883 151.57 261.922H176.466C177.051 276.543 179.306 290.569 182.982 303.66H163.266ZM172.957 319.046H188.413C191.337 326.186 194.762 332.987 198.689 339.192C200.36 341.828 202.03 344.378 203.868 346.588C191.755 339.532 181.312 330.182 172.957 319.046ZM211.22 330.862C208.881 327.122 206.709 323.126 204.787 319.046H221.83C223.084 325.421 224.42 331.542 226.008 337.152C227.679 342.933 229.433 348.203 231.354 352.793C224.086 347.608 217.236 340.297 211.22 330.862Z" fill="#0295AA"/>
<path d="M157.5 152.5L5.70251 12.2663C4.74762 11.3681 3.3097 11.0991 2.06226 11.5854C0.813995 12.0712 0 13.2178 0 14.4883V203.858C0 205.594 1.49577 207 3.34027 207H121.5C121.5 207 134.5 167.5 157.5 152.5ZM33.4048 175.578V82.7429L132.438 175.578H33.4048Z" fill="#9BAAAB"/>
<path d="M106.362 106.951L82.8368 129.081L132.438 175.578H33.4049L0.979004 206.08C1.58351 206.648 2.41858 207 3.34083 207H122.206C127.5 191 135 179 157.5 152.5L106.362 106.951Z" fill="#687F82"/>
<path d="M30.0649 187.308C28.22 187.308 26.7246 188.715 26.7246 190.45V206.999H33.4052V190.45C33.4052 188.715 31.9098 187.308 30.0649 187.308Z" fill="#365558"/>
<path d="M56.788 187.308C54.9431 187.308 53.4478 188.715 53.4478 190.45V206.999H60.1287V190.45C60.1287 188.715 58.6329 187.308 56.788 187.308Z" fill="#365558"/>
<path d="M83.5117 187.308C81.6667 187.308 80.1714 188.715 80.1714 190.45V206.999H86.8523V190.45C86.8523 188.715 85.3566 187.308 83.5117 187.308Z" fill="#365558"/>
<path d="M110.236 187.308C108.391 187.308 106.896 188.715 106.896 190.45V206.999H113.576V190.45C113.576 188.715 112.08 187.308 110.236 187.308Z" fill="#365558"/>
<path d="M71.0404 98.0703C70.1855 98.0703 69.3306 97.7637 68.6785 97.1503L18.7943 50.2268C17.4898 48.9994 17.4898 47.0102 18.7943 45.7828C20.0987 44.5561 22.2139 44.5561 23.5179 45.7828L73.4022 92.7063C74.7066 93.9337 74.7066 95.9229 73.4022 97.1503C72.7502 97.7633 71.8957 98.0703 71.0404 98.0703Z" fill="white"/>
<path d="M88.8562 116.504C88.0013 116.504 87.1464 116.198 86.4943 115.584L77.5863 107.205C76.2818 105.977 76.2818 103.988 77.5863 102.761C78.8907 101.534 81.0059 101.534 82.3099 102.761L91.218 111.14C92.5224 112.368 92.5224 114.357 91.218 115.584C90.566 116.198 89.7115 116.504 88.8562 116.504Z" fill="white"/>
<path d="M181.826 91.4125L104.722 18.8853C104.096 18.2961 103.246 17.9653 102.361 17.9653C101.475 17.9653 100.625 18.2965 99.9988 18.8853L64.7255 52.065C64.0987 52.6546 63.7471 53.4533 63.7471 54.287C63.7471 55.1204 64.0991 55.9195 64.7255 56.5091L141.829 129.036C142.481 129.649 143.336 129.956 144.191 129.956C145.045 129.956 145.901 129.649 146.553 129.036L181.826 95.8566C182.453 95.267 182.804 94.4683 182.804 93.6346C182.804 92.8008 182.453 92.0021 181.826 91.4125Z" fill="#FD6A33"/>
<path d="M82.5123 35.3335L64.725 52.065C64.0982 52.6546 63.7466 53.4534 63.7466 54.2871C63.7466 55.1204 64.0986 55.9195 64.725 56.5091L141.829 129.036C142.481 129.649 143.336 129.956 144.19 129.956C145.045 129.956 145.9 129.649 146.552 129.036L164.339 112.304L82.5123 35.3335Z" fill="#F0353D"/>
<path d="M170.488 102.077L93.3841 29.5504C92.0796 28.3237 89.9645 28.3237 88.6604 29.5504L76.0629 41.4002C75.4361 41.9898 75.0845 42.7885 75.0845 43.6222C75.0845 44.4555 75.4365 45.2546 76.0629 45.8442L153.166 118.371C153.818 118.984 154.674 119.291 155.528 119.291C156.383 119.291 157.238 118.984 157.89 118.371L170.488 106.521C171.114 105.932 171.466 105.133 171.466 104.299C171.466 103.466 171.114 102.666 170.488 102.077Z" fill="#4ACFD9"/>
<path d="M82.5121 35.3335L76.0629 41.3999C75.4361 41.9895 75.0845 42.7882 75.0845 43.6219C75.0845 44.4552 75.4365 45.2543 76.0629 45.8439L153.166 118.371C153.818 118.984 154.674 119.291 155.528 119.291C156.383 119.291 157.238 118.984 157.89 118.371L164.339 112.304L82.5121 35.3335Z" fill="#0295AA"/>
<path d="M55.9067 10.5905C55.1171 11.3332 54.7741 12.3982 54.9931 13.4286L63.8115 54.9033L103.016 18.0262L58.9238 9.73114C57.8285 9.52476 56.6963 9.84736 55.9067 10.5905Z" fill="#FFD1A9"/>
<path d="M56.0666 10.458C56.0133 10.5019 55.9575 10.5431 55.9067 10.5909C55.1171 11.3337 54.7741 12.3986 54.9931 13.429L63.8115 54.9037L83.5643 36.3233L56.0666 10.458Z" fill="#FFD1A9"/>
<path d="M55.9067 10.59C55.1171 11.3328 54.7741 12.3977 54.9931 13.4281L58.7722 31.2032L77.8201 13.2854L58.9238 9.73066C57.8285 9.52427 56.6963 9.84687 55.9067 10.59Z" fill="#687F82"/>
<path d="M56.0666 10.458C56.0133 10.5019 55.9575 10.5431 55.9067 10.5909C55.1171 11.3337 54.7741 12.3986 54.9931 13.429L58.7722 31.2041L68.4468 22.1034L56.0666 10.458Z" fill="#365558"/>
<path d="M181.826 91.4126L141.829 129.036L162 148.5C161.146 148.5 162.652 149.113 162 148.5C162.854 148.5 184.348 132.613 185 132L203 123L207.021 119.557C207.648 118.967 207.999 118.168 207.999 117.335C207.999 116.501 207.647 115.702 207.021 115.113L181.826 91.4126Z" fill="#CDD4D5"/>
<path d="M161.978 110.083L141.829 129.037L162 148.5C165 147 185 132 185 132L161.978 110.083Z" fill="#9BAAAB"/>
<path d="M186.843 121.532C185.988 121.532 185.133 121.225 184.481 120.612L175.573 112.233C174.269 111.005 174.269 109.016 175.573 107.789C176.878 106.562 178.993 106.562 180.297 107.789L189.205 116.168C190.509 117.395 190.509 119.385 189.205 120.612C188.553 121.225 187.698 121.532 186.843 121.532Z" fill="white"/>
<path d="M207.021 46.9187L169.228 11.3685C164.452 6.87698 156.682 6.87737 151.906 11.3685L140.568 22.0336C135.792 26.5263 135.792 33.8352 140.568 38.3279L178.36 73.8781C178.987 74.4673 179.836 74.798 180.722 74.798C181.608 74.798 182.458 74.4669 183.084 73.8781L207.019 51.3631C208.326 50.1353 208.326 48.1461 207.021 46.9187Z" fill="#4ACFD9"/>
<path d="M180.723 74.7983C181.609 74.7983 182.459 74.4672 183.085 73.8783L207.021 51.3634C208.325 50.136 208.325 48.1468 207.021 46.9193L181.826 23.2197L153.166 50.1783L178.361 73.8783C178.988 74.4672 179.837 74.7983 180.723 74.7983Z" fill="#FFD1A9"/>
<path d="M146.338 16.6064L140.569 22.0331C135.793 26.5257 135.793 33.8347 140.569 38.3273L178.361 73.8775C178.988 74.4668 179.837 74.7975 180.723 74.7975C181.609 74.7975 182.459 74.4664 183.085 73.8775L195.153 62.5252L146.338 16.6064Z" fill="#0295AA"/>
<path d="M167.596 36.604L153.166 50.178L178.361 73.878C178.987 74.4672 179.837 74.7979 180.723 74.7979C181.609 74.7979 182.459 74.4668 183.085 73.878L195.153 62.5257L167.596 36.604Z" fill="#FF8C29"/>
<path d="M189.542 52.2827C188.687 52.2827 187.832 51.976 187.18 51.3627L177.102 41.8826C175.797 40.6552 175.797 38.666 177.102 37.4385C178.406 36.2119 180.521 36.2119 181.826 37.4385L191.903 46.9186C193.208 48.146 193.208 50.1353 191.903 51.3627C191.251 51.976 190.396 52.2827 189.542 52.2827Z" fill="white"/>
<rect x="256" y="304" width="15" height="15" fill="#4ACFD9"/>
<path d="M256 361C260.225 361.151 266.5 350.5 271 334V375.174C271 375.174 262 376.5 256 376V361Z" fill="#4ACFD9"/>
<path fill-rule="evenodd" clip-rule="evenodd" d="M256 132C321.965 132.085 376.14 184.094 376.14 251.085C376.14 272.467 372.971 271.721 372.14 271.525C372.081 271.511 372.033 271.5 372 271.5L360.34 270L359.5 268.5C360.497 266.268 360.476 265.973 360.33 263.969C360.28 263.279 360.216 262.386 360.173 261.141H338.5C330.5 259 326 261.141 328 265.5L330.5 282L320.377 278C323.534 269.194 321.807 263.989 320.824 262.034C320.524 261.436 320.293 261.141 320.293 261.141H299L283 249C282 247.5 270 242.5 270.5 252V261.141H256V245.943H280.497C280.246 231.255 279.075 217.16 277.319 204.255H256V189.057H274.644C273.724 184.047 272.638 179.547 271.383 175.132C265.029 152.632 258.257 147.453 256 147.368V132ZM360.34 245.943C359.337 231 355.157 216.906 348.635 204.255H328.904C332.583 217.33 334.84 231.34 335.426 245.943H360.34ZM323.47 188.887H338.937C330.66 177.764 320.126 168.425 308.003 161.377C309.842 163.585 311.514 166.132 313.186 168.764C317.116 174.962 320.544 181.755 323.47 188.887ZM292.369 204.255C294.041 217.33 295.128 231.34 295.378 245.943H320.377C319.791 231.17 317.199 217.075 313.103 204.255H292.369ZM307.083 188.887C305.16 184.811 302.987 180.821 300.646 177.085C294.626 167.66 287.77 160.358 280.497 155.179C282.419 159.764 284.175 165.028 285.847 170.802C287.436 176.406 288.774 182.519 290.028 188.887H307.083Z" fill="#4ACFD9"/>
</g>
<defs>
<clipPath id="clip0_485_1308">
<rect width="512" height="512" fill="white"/>
</clipPath>
</defs>
</svg>
