<svg width="512" height="512" viewBox="0 0 512 512" fill="none" xmlns="http://www.w3.org/2000/svg">
<g clip-path="url(#clip0_467_102)">
<path d="M0 317.2V364.8C65.6 298.5 156.5 257.3 256.9 257.3C356.4 257.3 446.6 297.7 512 362.9V315.6C443 257.5 354 222.4 256.9 222.4C159 222.4 69.2 258.1 0 317.2Z" fill="#365558"/>
<path d="M216.6 482C218.7 471.7 221.1 461.8 223.7 452.6C237.5 404.3 252.3 393.7 256.9 393.7V361.4C153.1 361.4 63.4999 423.2 22.8999 511.9H256.9V481.9H216.6V482ZM133.8 439.5C125.4 452.6 118 466.9 111.7 482H78.3999C96.4999 458.5 119 438.6 144.8 423.7C141 428.7 137.3 433.9 133.8 439.5ZM192.7 443.8C189.3 455.6 186.3 468.4 183.7 482H147C151.2 473.2 155.9 464.8 160.9 456.9C173.7 437 188.4 421.5 204.2 410.8C200.1 420.4 196.2 431.4 192.7 443.8Z" fill="#0295AA"/>
<path d="M256.9 361.5V393.8C261.4 393.8 276.3 404.4 290.1 452.7C292.7 461.9 295.1 471.7 297.2 482.1H256.9V512.1H490.9C450.4 423.3 360.7 361.5 256.9 361.5ZM330.1 482C327.5 468.4 324.5 455.6 321.1 443.8C317.6 431.4 313.7 420.5 309.6 410.9C325.4 421.6 340.1 437.1 352.9 457C358 464.9 362.6 473.3 366.8 482.1H330.1V482ZM402.2 482C395.9 466.8 388.6 452.6 380.1 439.5C376.5 434 372.8 428.7 369 423.7C394.8 438.6 417.4 458.5 435.4 482H402.2Z" fill="#4ACFD9"/>
<path d="M256.11 319C311.371 319 356.169 275.348 356.169 221.5C356.169 167.652 311.371 124 256.11 124C200.849 124 156.051 167.652 156.051 221.5C156.051 275.348 200.849 319 256.11 319Z" fill="#FFD1A9"/>
<path fill-rule="evenodd" clip-rule="evenodd" d="M169.284 270.886C205.05 260.967 189.365 222.79 201.139 187.71C229.832 220.8 346.597 210.506 350.68 254.074C353.889 244.34 357.759 234.152 357.759 223.353C357.759 168.483 311.37 124 256.11 124C200.849 124 154.242 168.243 156.051 223.353C156.051 240.774 161.352 256.65 169.284 270.886Z" fill="#FF8C29"/>
</g>
<defs>
<clipPath id="clip0_467_102">
<rect width="512" height="512" fill="white"/>
</clipPath>
</defs>
</svg>
