<svg width="512" height="512" viewBox="0 0 512 512" fill="none" xmlns="http://www.w3.org/2000/svg">
<g clip-path="url(#clip0_1102_61)">
<path d="M59 163.145V185.847C90.2872 154.226 133.641 134.576 181.526 134.576C228.981 134.576 272.001 153.844 303.193 184.941V162.381C270.284 134.671 227.836 117.931 181.526 117.931C134.833 117.931 92.0042 134.958 59 163.145Z" fill="#365558"/>
<path d="M162.305 241.744C163.307 236.832 164.451 232.11 165.691 227.722C172.273 204.686 179.332 199.63 181.526 199.63V184.225C132.019 184.225 89.2856 213.7 69.9219 256.005H181.526V241.696H162.305V241.744ZM122.814 221.474C118.808 227.722 115.279 234.542 112.274 241.744H96.392C105.025 230.536 115.756 221.045 128.061 213.939C126.248 216.323 124.484 218.803 122.814 221.474ZM150.906 223.525C149.285 229.153 147.854 235.258 146.614 241.744H129.11C131.113 237.547 133.355 233.541 135.739 229.773C141.844 220.282 148.855 212.889 156.391 207.786C154.435 212.365 152.575 217.611 150.906 223.525Z" fill="#0295AA"/>
<path d="M181.526 184.273V199.678C183.673 199.678 190.779 204.734 197.361 227.77C198.601 232.158 199.745 236.832 200.747 241.792H181.526V256.1H293.13C273.814 213.748 231.033 184.273 181.526 184.273ZM216.438 241.744C215.198 235.258 213.767 229.153 212.146 223.525C210.477 217.611 208.616 212.412 206.661 207.834C214.197 212.937 221.208 220.33 227.313 229.821C229.745 233.589 231.939 237.595 233.942 241.792H216.438V241.744ZM250.826 241.744C247.821 234.495 244.339 227.722 240.285 221.474C238.568 218.851 236.804 216.323 234.991 213.939C247.296 221.045 258.075 230.536 266.66 241.744H250.826Z" fill="#4ACFD9"/>
<path d="M181.148 164.003C207.504 164.003 228.87 143.184 228.87 117.502C228.87 91.8195 207.504 71 181.148 71C154.792 71 133.426 91.8195 133.426 117.502C133.426 143.184 154.792 164.003 181.148 164.003Z" fill="#FFD1A9"/>
<path fill-rule="evenodd" clip-rule="evenodd" d="M139.738 141.056C156.796 136.325 149.316 118.117 154.931 101.386C168.616 117.168 224.306 112.258 226.253 133.037C227.783 128.395 229.629 123.536 229.629 118.386C229.629 92.2155 207.504 71 181.149 71C154.793 71 132.564 92.1011 133.427 118.386C133.427 126.694 135.955 134.266 139.738 141.056Z" fill="#FF8C29"/>
<path d="M328.033 352.903L348.096 333.428L334.154 319.784C334.04 319.894 333.814 320.114 333.7 320.224C332.567 321.545 331.32 322.755 330.186 324.075C329.62 324.735 329.053 325.286 328.373 325.946C327.466 326.936 326.446 327.926 325.539 328.807C324.859 329.467 324.066 330.237 323.385 330.897C322.365 331.887 321.345 332.768 320.325 333.758C319.758 334.308 319.078 334.858 318.511 335.408C317.151 336.619 315.904 337.719 314.544 338.929C314.431 339.039 314.204 339.149 314.091 339.369L328.033 352.903Z" fill="#365558"/>
<path d="M318.399 335.409C318.966 334.858 319.646 334.308 320.212 333.758C321.233 332.768 322.253 331.888 323.273 330.897C323.953 330.237 324.746 329.467 325.426 328.807C326.447 327.816 327.353 326.936 328.26 325.946C328.827 325.286 329.394 324.736 330.074 324.075C331.321 322.865 332.454 321.545 333.588 320.224C333.701 320.114 333.814 319.894 334.041 319.784L318.399 304.6L298.336 324.075L313.978 339.26C314.092 339.15 314.318 339.04 314.432 338.82C315.792 337.719 317.152 336.619 318.399 335.409Z" fill="#365558"/>
<path d="M361.358 190.388C361.358 93.7817 280.2 15 180.679 15C81.1583 15 0 93.6717 0 190.388C0 287.105 81.1583 365.777 180.679 365.777C280.2 365.777 361.358 286.995 361.358 190.388ZM180.793 327.266C103.035 327.266 39.7857 265.869 39.7857 190.388C39.7857 114.908 103.035 53.5106 180.793 53.5106C258.55 53.5106 321.799 114.908 321.799 190.388C321.799 265.759 258.437 327.156 180.793 327.266Z" fill="#365558"/>
<path d="M379.38 322.095C373.826 316.703 364.872 316.703 359.317 322.095L316.471 363.686C313.751 366.217 312.277 369.738 312.277 373.369C312.277 377 313.751 380.521 316.471 383.051L444.896 507.826C447.617 510.356 451.131 511.787 454.984 511.787C458.725 511.787 462.352 510.356 464.959 507.716L507.805 466.124C510.639 463.484 511.999 459.963 511.999 456.442C511.999 453.031 510.639 449.4 507.805 446.759L379.38 322.095Z" fill="#4ACFD9"/>
<path d="M374.393 380.851C368.839 375.46 359.885 375.46 354.331 380.851C348.777 386.243 348.777 394.935 354.331 400.326L422.454 466.455C428.008 471.846 436.962 471.846 442.517 466.455C445.237 463.814 446.711 460.183 446.711 456.662C446.711 453.141 445.35 449.62 442.517 446.979L374.393 380.851Z" fill="white"/>
<path d="M120.718 271.371C122.191 269.28 122.531 266.97 122.191 264.329C121.738 261.248 120.037 258.497 116.977 256.737C101.108 247.384 90.2265 231.87 87.3928 214.045C86.486 208.324 80.7052 204.252 74.811 205.023C68.9168 205.903 64.7229 211.514 65.5163 217.236C69.3702 241.443 83.8789 262.458 105.415 275.002C110.743 278.083 117.544 276.432 120.718 271.371Z" fill="white" fill-opacity="0.75"/>
</g>
<defs>
<clipPath id="clip0_1102_61">
<rect width="512" height="512" fill="white"/>
</clipPath>
</defs>
</svg>
