<svg width="512" height="512" viewBox="0 0 512 512" fill="none" xmlns="http://www.w3.org/2000/svg">
<path d="M442 155.013C480.65 155.013 511.982 120.312 511.982 77.5065C511.982 34.7008 480.65 0 442 0C403.35 0 372.019 34.7008 372.019 77.5065C372.019 120.312 403.35 155.013 442 155.013Z" fill="#FFD1A9"/>
<path fill-rule="evenodd" clip-rule="evenodd" d="M409.779 37.993C409.779 83.938 494.601 5.74313 476.046 41.969C496.114 68.2735 483.601 94.1468 508.522 103.567C510.767 95.8296 511.981 87.5644 511.981 78.9798C512.884 34.765 480.649 0 442 0C403.351 0 371.116 34.765 372.019 78.9798C372.019 92.8281 375.111 34.017 409.779 37.993Z" fill="#0295AA"/>
<path d="M74.4408 145C115.532 145 148.844 112.541 148.844 72.5C148.844 32.4594 115.532 0 74.4408 0C33.3493 0 0.0380859 32.4594 0.0380859 72.5C0.0380859 112.541 33.3493 145 74.4408 145Z" fill="#FFD1A9"/>
<path fill-rule="evenodd" clip-rule="evenodd" d="M9.87791 109.223C36.4731 101.848 24.8102 73.4594 33.5649 47.3739C54.9005 71.9792 141.726 64.3253 144.762 96.7217C147.148 89.4837 150.026 81.9082 150.026 73.8782C150.026 33.0768 115.532 0 74.4407 0C33.3496 0 -1.30757 32.8985 0.0379073 73.8782C0.0379073 86.832 3.9795 98.6372 9.87791 109.223Z" fill="#FF8C29"/>
<path d="M79.9774 511.736C124.148 511.736 159.955 474.635 159.955 428.868C159.955 383.101 124.148 346 79.9774 346C35.8071 346 0 383.101 0 428.868C0 474.635 35.8071 511.736 79.9774 511.736Z" fill="#FFD1A9"/>
<path fill-rule="evenodd" clip-rule="evenodd" d="M9.95015 471.266C-7.04895 283.215 124.58 418.213 133.991 388.397C156.925 416.521 127.521 446.66 156.002 456.732C158.567 448.459 159.955 439.622 159.955 430.443C161.482 382.421 124.147 346 79.9774 346C35.8075 346 0 381.225 0 430.443C0 445.25 3.6098 459.166 9.95015 471.266Z" fill="#9BAAAB"/>
<path d="M431.995 511.74C476.175 511.74 511.99 474.638 511.99 428.87C511.99 383.102 476.175 346 431.995 346C387.815 346 352 383.102 352 428.87C352 474.638 387.815 511.74 431.995 511.74Z" fill="#FFD1A9"/>
<path fill-rule="evenodd" clip-rule="evenodd" d="M362.973 470.923C391.567 462.493 429.195 435.133 438.607 405.317C461.547 433.442 478.901 447.049 507.388 457.122C509.954 448.848 511.99 439.624 511.99 430.445C512.698 382.097 476.175 346 431.995 346C387.815 346 352 380.681 352 430.445C352 445.252 356.248 459.245 362.973 470.923Z" fill="#365558"/>
<path d="M113 238.967C113 316.865 177.009 381.342 256 382V97C177.009 97.5926 113 161.07 113 238.967Z" fill="#CDD4D5"/>
<path d="M257.249 98C256.789 98 256.46 98 256 98V383C256.46 383 256.789 383 257.249 383C335.452 383 399 319.035 399 240.467C399 161.899 335.32 98 257.249 98Z" fill="#E6EAEA"/>
<path d="M256 71C211.178 71 168.193 88.8053 136.499 120.499C104.805 152.193 87 195.178 87 240C87 284.822 104.805 327.807 136.499 359.501C168.193 391.195 211.178 409 256 409V381.743C218.407 381.743 182.354 366.81 155.772 340.228C129.19 313.646 114.257 277.593 114.257 240C114.257 202.407 129.19 166.354 155.772 139.772C182.354 113.19 218.407 98.2568 256 98.2568V71Z" fill="#0295AA"/>
<path d="M256 71C300.822 71 343.807 88.8053 375.501 120.499C407.195 152.193 425 195.178 425 240C425 284.822 407.195 327.807 375.501 359.501C343.807 391.195 300.822 409 256 409V381.743C293.593 381.743 329.646 366.81 356.228 340.228C382.81 313.646 397.743 277.593 397.743 240C397.743 202.407 382.81 166.354 356.228 139.772C329.646 113.19 293.593 98.2568 256 98.2568V71Z" fill="#4ACFD9"/>
<path d="M255.786 347.205C253.616 347.205 246.773 342.194 240.347 319.437C239.095 315.021 238.01 310.52 237.092 305.51H255.786H255.87V290.225H255.786H234.421C232.669 277.402 231.5 263.221 231.25 248.53H255.786H255.87V233.245H255.786H231.333C231.584 218.554 232.669 204.373 234.505 191.551H255.703H255.786V176.35H255.703H237.008C237.926 171.425 239.095 166.755 240.263 162.424C246.689 139.581 253.533 134.656 255.703 134.656H255.786V119.286H255.703C189.938 119.286 136.359 173.803 136.359 240.888C136.359 307.973 189.938 362.405 255.786 362.405H255.87L255.786 347.205C255.87 347.205 255.786 347.205 255.786 347.205ZM211.137 164.377C217.146 154.951 223.822 147.648 231.25 142.553C229.414 147.139 227.578 152.234 225.909 158.093C224.323 163.698 222.904 169.727 221.736 176.181H204.71C206.713 172.02 208.8 168.113 211.137 164.377ZM216.394 233.245H191.524C192.192 218.469 194.612 204.373 198.785 191.551H219.482C217.646 204.458 216.561 218.639 216.394 233.245ZM219.399 290.14H198.701C194.612 277.317 192.025 263.221 191.441 248.445H216.311C216.561 263.051 217.646 277.232 219.399 290.14ZM203.709 148.667C201.956 151.045 200.287 153.508 198.535 156.055C194.612 162.254 191.274 168.963 188.269 176.181H172.83C181.259 165.056 191.691 155.715 203.709 148.667ZM163.232 191.551H183.095C179.339 204.628 177.086 218.639 176.585 233.245H151.715C152.633 218.3 156.722 204.118 163.232 191.551ZM163.232 290.14C156.722 277.487 152.55 263.391 151.548 248.445H176.418C177.003 263.051 179.256 277.063 182.928 290.14H163.232ZM172.913 305.51H188.353C191.274 312.643 194.696 319.437 198.618 325.636C200.287 328.268 201.956 330.815 203.792 333.023C191.691 325.975 181.259 316.634 172.913 305.51ZM211.137 317.314C208.8 313.577 206.63 309.586 204.71 305.51H221.736C222.988 311.879 224.323 317.993 225.909 323.597C227.578 329.372 229.33 334.637 231.25 339.222C223.989 334.042 217.146 326.739 211.137 317.314Z" fill="#0295AA"/>
<path d="M376.063 240.588C376.063 173.753 322.139 119.37 255.869 119.286V134.618C258.137 134.703 264.94 139.87 271.324 162.318C272.584 166.723 273.676 171.212 274.6 176.21H255.869V191.373H277.287C279.051 204.248 280.227 218.31 280.479 232.965H255.869V248.128H280.395C280.143 262.867 279.051 276.928 277.287 289.719H255.869V304.967H274.6C273.592 309.795 272.5 314.454 271.324 318.859C264.856 341.392 258.053 346.474 255.869 346.559V361.722C322.139 361.807 376.063 307.339 376.063 240.588ZM348.933 289.719H328.943C332.723 276.674 334.99 262.697 335.494 248.128H360.524C359.684 263.036 355.485 277.183 348.933 289.719ZM348.933 191.373C355.485 203.994 359.684 218.056 360.692 232.965H335.662C335.074 218.395 332.807 204.418 329.111 191.373H348.933ZM339.19 176.04H323.651C320.712 168.925 317.268 162.148 313.32 155.965C311.64 153.339 309.961 150.797 308.113 148.595C320.292 155.626 330.875 164.944 339.19 176.04ZM295.43 232.965C295.178 218.395 294.086 204.418 292.406 191.373H313.236C317.352 204.164 319.956 218.225 320.544 232.965H295.43ZM320.46 248.128C319.788 262.867 317.352 276.928 313.152 289.719H292.322C294.002 276.674 295.094 262.697 295.346 248.128H320.46ZM300.721 164.266C303.073 167.993 305.257 171.974 307.189 176.04H290.054C288.794 169.687 287.45 163.588 285.855 157.998C284.175 152.237 282.411 146.985 280.479 142.411C287.786 147.578 294.674 154.863 300.721 164.266ZM300.721 316.826C294.674 326.229 287.954 333.514 280.479 338.596C282.495 334.022 284.259 328.94 285.855 323.01C287.45 317.419 288.878 311.405 290.054 304.967H307.189C305.257 309.118 303.073 313.099 300.721 316.826ZM308.281 332.497C310.045 330.125 311.724 327.669 313.488 325.128C317.436 318.944 320.796 312.252 323.819 305.052H339.358C330.875 316.149 320.292 325.467 308.281 332.497Z" fill="#4ACFD9"/>
<path d="M278.937 203.03C272.071 206.331 264.414 208.179 256.294 208.179C256.228 208.179 256.162 208.179 256.096 208.179V343.644H288.575C292.404 343.644 295.507 340.541 295.507 336.712L278.937 203.03Z" fill="#FF8C29"/>
<path d="M233.651 203.03L217.081 336.646C217.081 340.475 220.184 343.578 224.013 343.578H256.096V208.113C248.042 208.113 240.451 206.265 233.651 203.03Z" fill="#FD6A33"/>
<path d="M256.294 134.308C256.228 134.308 256.162 134.308 256.096 134.308V223.891C256.162 223.891 256.228 223.891 256.294 223.891C281.05 223.891 301.118 203.822 301.118 179.067C301.118 154.311 281.05 134.308 256.294 134.308Z" fill="#FF8C29"/>
<path d="M211.47 179.133C211.47 203.822 231.406 223.825 256.096 223.957V134.308C231.406 134.44 211.47 154.443 211.47 179.133Z" fill="#FD6A33"/>
</svg>
