<svg width="512" height="512" viewBox="0 0 512 512" fill="none" xmlns="http://www.w3.org/2000/svg">
<g clip-path="url(#clip0_288_309)">
<path d="M549.842 362.257L549.84 362.97L549.842 397.203L433.421 397.203C474.5 361 482.5 292.5 433.421 249L433.421 221.761C495.937 221.761 546.942 281.222 549.723 355.838H549.842V362.257Z" fill="#365558"/>
<path d="M446.5 262L450.079 251.121H436L446.5 262Z" fill="#FD6A33"/>
<path fill-rule="evenodd" clip-rule="evenodd" d="M446 261.5L450.078 245H429.084C436.247 251.442 439.936 255.055 446 261.5Z" fill="#FF8C29"/>
<path d="M511.671 168.721C511.671 217.168 483.5 253.5 441 255.939C437.5 250.5 423 240.5 414 235.5C407 232 400 229 388 226.5C379.899 225.07 379.065 225.003 370.348 224.654C370.723 225.28 370.388 225.229 369 224.6L369.5 224.62C369.791 224.632 370.073 224.643 370.348 224.654C368.696 221.898 353.263 206.029 353.263 168.721C353.263 120.274 388.724 81 432.467 81C476.21 81 511.671 120.274 511.671 168.721Z" fill="#FFD1A9"/>
<path fill-rule="evenodd" clip-rule="evenodd" d="M363.117 213.601C391.428 204.677 429.694 175.351 439.014 143.789C461.726 173.56 479.551 187.554 507.756 198.216C510.296 189.459 511.671 180.104 511.671 170.388C511.671 121.021 476.21 81 432.467 81C388.724 81 353.263 121.021 353.263 170.388C353.263 186.062 356.838 200.793 363.117 213.601Z" fill="#FD6A33"/>
<path d="M193.841 359.969L193.723 365.5L176.5 376L142 394.915H77.4206H-39L-38.9981 360.683L-39 359.969V353.551H-38.8817C-36.1006 278.935 14.9046 219.474 77.4206 219.474C139.937 219.474 190.942 278.935 193.723 353.551H193.841V359.969Z" fill="#FD6A33"/>
<path fill-rule="evenodd" clip-rule="evenodd" d="M73.6035 217.434C12.8758 219.546 -36.1611 278.905 -38.8821 353.056H-39V359.551L-38.9981 360.273L-39 394.915H73.6035V217.434Z" fill="#F0353D"/>
<path d="M61.5149 269.521H86.5644L94.0792 249.12H54L61.5149 269.521Z" fill="#0295AA"/>
<path d="M60.2265 269.521H78.3088L80.7188 360.821L69.2676 371.522L57.8164 360.821L60.2265 269.521Z" fill="#0295AA"/>
<path fill-rule="evenodd" clip-rule="evenodd" d="M73.084 372.986L73.7422 373.561L86.2054 362.621L83.5819 269.257H86.2054L94.0779 243H73.084V372.986Z" fill="#4ACFD9"/>
<path d="M76.4669 254.154C120.21 254.154 155.671 214.88 155.671 166.433C155.671 117.986 120.21 78.7122 76.4669 78.7122C32.7236 78.7122 -2.7373 117.986 -2.7373 166.433C-2.7373 214.88 32.7236 254.154 76.4669 254.154Z" fill="#FFD1A9"/>
<path fill-rule="evenodd" clip-rule="evenodd" d="M7.11665 211.313C7.11665 195.928 -18 58 83.014 141.501C151.756 58 142 195.928 151.756 195.928C154.296 187.171 155.671 177.816 155.671 168.101C155.671 118.733 120.21 78.7122 76.4669 78.7122C32.724 78.7122 -2.7373 118.733 -2.7373 168.101C-2.7373 183.774 7.11665 188 7.11665 211.313Z" fill="#687F82"/>
<path d="M257.01 219.998C372.5 219.998 270.83 244 270.83 321L252.5 331.5L254.5 330.354L218.5 350.842L100 420V456.606H252.5L252.655 448.5L321.5 408.5C359.5 429.5 395.5 420 415 409.5L414.02 456.606H252.5H100V420L218.5 350.842L254.5 330.354L100 420V400.82H100.159C103.91 300.189 172.698 219.998 257.01 219.998Z" fill="#4ACFD9"/>
<path d="M616.5 -479.926L702.304 -336.106L607.804 -306.106C690.304 -283.606 702.304 -336.106 702.304 -336.106L700.323 -258H538.804V-266.106L607.804 -306.106L702.304 -336.106L616.5 -479.926L557.134 -393.606L538.804 -383.106V-372.106L386.304 -283.606V-313.786H386.463C390.214 -414.417 459.002 -494.609 543.314 -494.609C568 -494.609 601.5 -497 616.5 -479.926Z" fill="#4ACFD9"/>
<path fill-rule="evenodd" clip-rule="evenodd" d="M253 217.001C170.486 219.857 103.857 300.126 100.16 400.397H100V409.179L100.003 410.155L100 419.235L253 331V393.5V449L242.5 443L240.042 454.5L238 457.001H253V217.001Z" fill="#0295AA"/>
<path d="M237.409 288.659H271.192L281.327 261.147H227.274L237.409 288.659Z" fill="#FD6A33"/>
<path d="M235.672 288.66H260.058V327.5L235.672 341V288.66Z" fill="#FD6A33"/>
<path fill-rule="evenodd" clip-rule="evenodd" d="M254.5 330L267.172 323.5V288.304H270.71L281.327 252.893H253.014L254.5 330Z" fill="#FF8C29"/>
<path d="M148.906 148.465C148.906 213.802 193.5 266.769 255.725 266.769C293 266.769 296 257 296 257C326 232 299.5 251 338.5 229.5C362 197 363 151 363 151C363 85.6629 314.719 30.1604 255.725 30.1604C196.73 30.1604 148.906 83.127 148.906 148.465Z" fill="#FF8C29"/>
<path fill-rule="evenodd" clip-rule="evenodd" d="M162.012 207.832C200.194 195.797 251.802 156.246 264.371 113.68C295.002 153.831 319.04 172.704 357.079 187.083C360.505 175.272 362.359 162.657 362.359 149.553C362.359 82.9744 314.534 29.0002 255.541 29.0002C196.547 29.0002 148.723 82.9744 148.723 149.553C148.723 170.691 153.544 190.558 162.012 207.832Z" fill="#365558"/>
<path fill-rule="evenodd" clip-rule="evenodd" d="M408.092 390.501C380.142 406.638 346.369 403.555 322.079 385.352L252.202 425.695L229.26 409.422L229.26 438.941L196.83 457.664L182.395 434.654L165.276 475.882L129.98 496.26L112.789 493.289L86.1058 486.163L91.5844 456.562L99.298 443.118L291.373 332.223C287.724 302.064 301.941 271.239 329.913 255.09C367.305 233.501 415.119 246.313 436.708 283.706C458.297 321.098 445.485 368.912 408.092 390.501ZM369.282 323.279C374.679 332.628 386.633 335.831 395.981 330.433C405.329 325.036 408.532 313.083 403.135 303.735C397.738 294.386 385.784 291.183 376.436 296.581C367.088 301.978 363.885 313.931 369.282 323.279Z" fill="#C4C4C4"/>
<path fill-rule="evenodd" clip-rule="evenodd" d="M436.708 283.705C415.119 246.313 367.305 233.501 329.913 255.09C301.941 271.239 287.724 302.064 291.373 332.223L99.298 443.118L91.5844 456.562L86.1135 486.121L369.009 322.791C363.998 313.519 367.25 301.884 376.436 296.581C385.622 291.277 397.324 294.278 402.848 303.254L436.708 283.705ZM407.866 390.631C407.941 390.588 408.017 390.544 408.092 390.501C408.168 390.457 408.243 390.414 408.318 390.37L407.866 390.631Z" fill="#A6BD3A"/>
<path fill-rule="evenodd" clip-rule="evenodd" d="M436.708 283.706L402.849 303.254C402.946 303.413 403.041 303.573 403.135 303.735C408.532 313.083 405.329 325.036 395.981 330.433C386.633 335.831 374.679 332.628 369.282 323.28C369.189 323.118 369.098 322.955 369.009 322.791L86.1135 486.121L86.1058 486.163L112.789 493.289L129.98 496.26L165.276 475.882L182.395 434.654L196.83 457.664L229.26 438.941L229.26 409.422L252.202 425.695L322.079 385.352C346.369 403.555 380.142 406.638 408.092 390.501C445.485 368.912 458.297 321.098 436.708 283.706Z" fill="#BCD444"/>
<mask id="mask0_288_309" style="mask-type:alpha" maskUnits="userSpaceOnUse" x="281" y="232" width="179" height="179">
<circle cx="370.494" cy="321.494" r="88.9395" transform="rotate(30 370.494 321.494)" fill="#C4C4C4"/>
</mask>
<g mask="url(#mask0_288_309)">
</g>
</g>
<defs>
<clipPath id="clip0_288_309">
<rect width="512" height="512" fill="white"/>
</clipPath>
</defs>
</svg>
