<svg width="512" height="512" viewBox="0 0 512 512" fill="none" xmlns="http://www.w3.org/2000/svg">
<g clip-path="url(#clip0_288_136)">
<path fill-rule="evenodd" clip-rule="evenodd" d="M249.733 238.065C149.566 241.325 68.6826 332.923 64.1945 447.348H64V457.37L64.0031 458.484L64 511.942H249.733V238.065Z" fill="#0295AA"/>
<path fill-rule="evenodd" clip-rule="evenodd" d="M249.5 245L338.5 255.5C340 267 341 275 349.3 291.6L252 460L251.5 479.5L253 486L259.501 512.5H333L359 467L357.5 458.5L362.5 460.5L427.5 348.5C437.499 348.5 435.734 454.283 435.734 454.283L435.734 464.305V474L435.734 512.5H249.5V245Z" fill="#0295AA"/>
<path d="M229.395 321.924H270.713L283.108 290.444H217L229.395 321.924Z" fill="#FD6A33"/>
<path d="M227.272 321.924H257.098L259 448L252 460L250 473L242.185 479.325L223.297 462.813L227.272 321.924Z" fill="#FD6A33"/>
<path fill-rule="evenodd" clip-rule="evenodd" d="M248.48 481.585L249.566 482.473L252 460L258.5 448.5L269 431L265.796 321.518H270.123L283.109 281H248.48V481.585Z" fill="#FF8C29"/>
<path d="M123.812 159.365C123.812 234.125 180.91 294.729 254.455 294.729C328 294.729 339 241 339 241C342.722 206.222 354.304 190.593 385.5 167C385.5 167 387 216 385.5 156.5C384 97 326.152 25 254 25C181.848 25 123.812 84.6049 123.812 159.365Z" fill="#FFD1A9"/>
<path d="M123.812 159.365C123.812 234.125 180.91 294.729 254.455 294.729C328 294.729 339 241 339 241C342.722 206.222 354.304 190.593 385.5 167C385.5 167 387 216 385.5 156.5C384 97 326.152 25 254 25C181.848 25 123.812 84.6049 123.812 159.365Z" stroke="black"/>
<path fill-rule="evenodd" clip-rule="evenodd" d="M142 229.5C188.698 215.729 249.882 170.596 265.254 121.891C265.254 121.891 300.8 165.8 356.3 194.3C359.545 188.015 364.546 182.785 385.5 167V158.5C383.321 91.6462 326.077 26.4933 254.455 25C182.304 25 122 84.5 123.812 162.938C123.812 187.124 130 210.5 142 229.5Z" fill="#365558"/>
<path fill-rule="evenodd" clip-rule="evenodd" d="M465.875 185.869C465.875 185.869 465.875 185.869 465.874 185.869C431.563 166.059 387.689 177.815 367.879 212.126C353.061 237.793 355.905 268.81 372.642 291.103L270.885 467.351L270.924 481.573L280.138 507.574L430.01 247.989C421.773 242.92 419.019 232.182 423.885 223.753C428.752 215.323 439.429 212.339 447.937 216.938L465.875 185.869Z" fill="#A6BD3A"/>
<path fill-rule="evenodd" clip-rule="evenodd" d="M367.999 211.92C367.959 211.989 367.919 212.057 367.879 212.126C367.84 212.195 367.8 212.264 367.76 212.333L367.999 211.92ZM280.138 507.574L280.151 507.609L304.624 501.03L319.649 495.504L338.347 463.117L333.036 422.5L355.064 434.163L372.245 404.404L358.702 380.948L384.399 383.354L421.418 319.235C449.072 322.556 477.325 309.511 492.132 283.864C511.942 249.552 500.186 205.679 465.875 185.869L447.937 216.938C448.087 217.019 448.236 217.102 448.384 217.188C456.962 222.141 459.901 233.109 454.949 241.687C449.996 250.265 439.028 253.204 430.45 248.251C430.301 248.166 430.155 248.078 430.01 247.989L280.138 507.574Z" fill="#BCD444"/>
</g>
<defs>
<clipPath id="clip0_288_136">
<rect width="512" height="512" fill="white"/>
</clipPath>
</defs>
</svg>
