<svg width="512" height="512" viewBox="0 0 512 512" fill="none" xmlns="http://www.w3.org/2000/svg">
<g clip-path="url(#clip0_470_223)">
<path d="M246 96H266V328H246V96Z" fill="#365558"/>
<path d="M0 96.9354V120C31.5187 87.8743 75.1934 67.9108 123.432 67.9108C171.239 67.9108 214.577 87.4867 246 119.079V96.1601C212.848 68.0077 170.086 51 123.432 51C76.3945 51 33.2484 68.2985 0 96.9354Z" fill="#365558"/>
<path d="M266 95.9354V119C297.519 86.8743 341.193 66.9108 389.432 66.9108C437.239 66.9108 480.577 86.4867 512 118.079V95.1601C478.848 67.0077 436.086 50 389.432 50C342.395 50 299.248 67.2985 266 95.9354Z" fill="#365558"/>
<path d="M0 371.57V406C66.2406 358.044 158.028 328.244 259.409 328.244C359.88 328.244 450.961 357.466 517 404.626V370.413C447.326 328.388 357.457 303 259.409 303C160.553 303 69.8758 328.822 0 371.57Z" fill="#365558"/>
<path d="M227.5 492C229.017 484.526 231.179 476.851 233.057 470.175C243.026 435.128 253.718 427 257.041 427V404C182.056 404 117.329 448.842 88 513.203L257.041 512V492H228H227.5ZM168.114 460.67C162.046 470.175 156.7 480.551 152.149 491.508H128.093C141.168 474.456 157.422 460.017 176.06 449.205C173.315 452.833 170.642 456.606 168.114 460.67ZM210.663 463.79C208.207 472.352 206.04 481.64 204.161 491.508H177.649C180.683 485.122 184.079 479.027 187.691 473.295C196.937 458.856 207.557 447.609 218.97 439.845C216.009 446.811 213.191 454.792 210.663 463.79Z" fill="#0295AA"/>
<path d="M257 404V427.163C260.231 427.163 270.928 434.765 280.836 469.402C282.703 476 284.492 484.542 286 492H257V512H425C395.923 448.319 331.523 404 257 404ZM309.554 490.414C307.687 480.661 305.533 471.482 303.092 463.02C300.579 454.127 297.779 446.311 294.836 439.426C306.179 447.1 316.733 458.215 325.923 472.486C329.585 478.151 332.887 484.175 335.903 490.486H309.554V490.414ZM361.318 490.414C356.795 479.514 351.554 469.331 345.451 459.936C342.867 455.992 340.21 452.191 337.482 448.606C356.005 459.291 372.231 473.562 385.154 490.414H361.318Z" fill="#4ACFD9"/>
<path d="M380.374 97.47C406.14 97.47 427.028 75.6506 427.028 48.735C427.028 21.8194 406.14 0 380.374 0C354.608 0 333.72 21.8194 333.72 48.735C333.72 75.6506 354.608 97.47 380.374 97.47Z" fill="#FFD1A9"/>
<path fill-rule="evenodd" clip-rule="evenodd" d="M339.891 73.4205C356.567 68.4626 349.254 49.3799 354.743 31.845C368.122 48.3849 422.566 43.2399 424.469 65.017C425.965 60.1516 427.77 55.0593 427.77 49.6614C427.77 22.2344 406.14 0 380.374 0C354.608 0 332.877 22.1146 333.721 49.6614C333.721 58.369 336.192 66.3046 339.891 73.4205Z" fill="#FF8C29"/>
<path d="M113.72 97.47C139.691 97.47 160.744 75.6506 160.744 48.735C160.744 21.8194 139.691 0 113.72 0C87.7503 0 66.6973 21.8194 66.6973 48.735C66.6973 75.6506 87.7503 97.47 113.72 97.47Z" fill="#FFD1A9"/>
<path fill-rule="evenodd" clip-rule="evenodd" d="M72.5475 73.6692C62.5528 -36.9241 139.945 42.4687 145.478 24.9338C158.962 41.4737 141.674 59.1982 158.419 65.1217C159.928 60.2563 160.744 55.0593 160.744 49.6614C161.641 21.4191 139.69 0 113.72 0C87.7505 0 66.6973 20.7162 66.6973 49.6614C66.6973 58.369 68.8197 66.5532 72.5475 73.6692Z" fill="#9BAAAB"/>
<path d="M255.498 132.562C275.103 132.562 290.996 116.094 290.996 95.7808C290.996 75.4673 275.103 59 255.498 59C235.893 59 220 75.4673 220 95.7808C220 116.094 235.893 132.562 255.498 132.562Z" fill="#FFD1A9"/>
<path fill-rule="evenodd" clip-rule="evenodd" d="M224.869 114.446C237.558 110.704 254.255 98.5607 258.432 85.327C268.611 97.8098 276.313 103.849 288.954 108.32C290.092 104.648 290.996 100.554 290.996 96.48C291.31 75.0211 275.102 59 255.498 59C235.893 59 220 74.3928 220 96.48C220 103.052 221.885 109.262 224.869 114.446Z" fill="#365558"/>
<path d="M258 205C203.985 205 160 248.985 160 303C160 357.015 203.985 401 258 401C312.015 401 356 357.015 356 303C356 248.985 312.015 205 258 205Z" fill="#4ACFD9"/>
<path d="M160 303C160 356.823 203.449 400.464 257.12 401V205C203.449 205.536 160 249.177 160 303Z" fill="#0295AA"/>
<path d="M257.809 220.121C257.541 220.121 257.35 220.121 257.082 220.121V385.228C257.35 385.228 257.541 385.228 257.809 385.228C303.364 385.228 340.382 348.172 340.382 302.655C340.382 257.139 303.287 220.121 257.809 220.121Z" fill="#E6EAEA"/>
<path d="M175.198 302.732C175.198 348.019 211.833 384.922 257.043 385.305V220.198C211.833 220.542 175.198 257.445 175.198 302.732Z" fill="#CDD4D5"/>
<path d="M271.131 282.175C267.149 284.089 262.709 285.161 258 285.161C257.962 285.161 257.924 285.161 257.885 285.161V363.714H276.72C278.94 363.714 280.739 361.915 280.739 359.695L271.131 282.175Z" fill="#FF8C29"/>
<path d="M244.87 282.175L235.261 359.656C235.261 361.877 237.06 363.676 239.281 363.676H257.885V285.123C253.215 285.123 248.813 284.051 244.87 282.175Z" fill="#FD6A33"/>
<path d="M258 242.324C257.962 242.324 257.924 242.324 257.885 242.324V294.272C257.924 294.272 257.962 294.272 258 294.272C272.356 294.272 283.993 282.634 283.993 268.279C283.993 253.923 272.356 242.324 258 242.324Z" fill="#FF8C29"/>
<path d="M232.007 268.317C232.007 282.634 243.568 294.234 257.885 294.31V242.324C243.568 242.401 232.007 254 232.007 268.317Z" fill="#FD6A33"/>
<path d="M113.801 239.225C112.533 239.225 108.488 236.168 104.734 222.857C104.003 220.274 103.369 217.641 102.833 214.711L113.801 214.684V205.919L101.273 205.77C100.25 198.269 99.5675 189.974 99.4212 181.381H113.752H113.801V172.613L99.47 172.441C99.6162 163.848 100.25 155.553 101.322 148.052L113.801 148.071V139.306L102.785 139.161C103.321 136.28 104.003 133.548 104.686 131.015C108.439 117.654 112.533 114.765 113.801 114.765V114.773V106C75.3907 106 44 137.671 44 176.911C44 216.151 75.2933 247.99 113.752 247.99H113.801V239.225ZM87.6741 132.158C91.1836 126.644 95.0831 122.372 99.4212 119.392C98.3489 122.074 97.2765 125.055 96.3017 128.482C95.3755 131.76 94.5469 135.287 93.8645 139.062H83.9208C85.0907 136.628 86.3093 134.343 87.6741 132.158ZM90.7449 172.441H76.2194C76.6093 163.798 78.0229 155.553 80.4601 148.052H92.5484C91.4761 155.602 90.8424 163.897 90.7449 172.441ZM92.4997 205.72H80.4113C78.0229 198.22 76.5118 189.974 76.1706 181.332H90.6962C90.8424 189.875 91.4761 198.17 92.4997 205.72ZM83.3359 122.969C82.3123 124.359 81.3374 125.8 80.3138 127.29C78.0229 130.916 76.0732 134.84 74.3184 139.062H65.3009C70.2239 132.555 76.3169 127.091 83.3359 122.969ZM59.6954 148.052H71.2963C69.1028 155.702 67.7868 163.897 67.4943 172.441H52.9688C53.505 163.699 55.8934 155.404 59.6954 148.052ZM59.6954 205.72C55.8934 198.319 53.4562 190.074 52.8713 181.332H67.3968C67.738 189.875 69.0541 198.071 71.1988 205.72H59.6954ZM65.3496 214.711H74.3671C76.0732 218.883 78.0716 222.857 80.3626 226.483C81.3374 228.022 82.3123 229.512 83.3847 230.804C76.3169 226.681 70.224 221.217 65.3496 214.711ZM87.6741 221.615C86.3093 219.429 85.0419 217.095 83.9208 214.711H93.8645C94.5956 218.436 95.3755 222.012 96.3017 225.29C97.2765 228.668 98.3001 231.748 99.4212 234.43C95.1806 231.4 91.1836 227.128 87.6741 221.615Z" fill="#0295AA"/>
<path d="M184 176.954C184 137.86 152.506 106.05 113.801 106L113.801 114.765C115.126 114.814 119.099 118.04 122.827 131.171C123.563 133.747 124.201 136.373 124.74 139.297H113.801V148.071L126.31 148.166C127.34 155.697 128.027 163.922 128.174 172.494L113.801 172.613V181.377L128.125 181.363C127.978 189.985 127.34 198.21 126.31 205.692L113.801 205.919V214.684H124.595C124.006 217.508 123.514 220.16 122.827 222.736C119.05 235.916 115.077 239.176 113.801 239.225L113.801 247.99C152.506 248.04 184 215.998 184 176.954ZM168.155 205.692H156.48C158.687 198.061 160.012 189.886 160.306 181.363H174.925C174.434 190.084 171.981 198.359 168.155 205.692ZM168.155 148.166C171.981 155.549 174.434 163.774 175.023 172.494H160.404C160.061 163.972 158.736 155.796 156.578 148.166H168.155ZM162.465 139.198H153.389C151.672 135.035 149.661 131.072 147.355 127.455C146.374 125.919 145.393 124.432 144.314 123.144C151.427 127.256 157.608 132.707 162.465 139.198ZM136.906 172.494C136.759 163.972 136.121 155.796 135.14 148.166H147.306C149.71 155.648 151.231 163.873 151.574 172.494H136.906ZM151.525 181.363C151.133 189.985 149.71 198.21 147.257 205.692H135.091C136.072 198.061 136.71 189.886 136.857 181.363H151.525ZM139.997 132.31C141.37 134.49 142.646 136.819 143.774 139.198H133.767C133.031 135.481 132.246 131.914 131.314 128.644C130.333 125.274 129.303 122.202 128.174 119.527C132.442 122.549 136.465 126.81 139.997 132.31ZM139.997 221.547C136.465 227.047 132.54 231.308 128.174 234.281C129.352 231.606 130.382 228.633 131.314 225.164C132.246 221.894 133.08 218.376 133.767 214.61H143.774C142.646 217.038 141.37 219.367 139.997 221.547ZM144.412 230.714C145.442 229.326 146.423 227.889 147.453 226.403C149.759 222.786 151.721 218.872 153.487 214.66H162.563C157.608 221.151 151.427 226.601 144.412 230.714Z" fill="#4ACFD9"/>
<path d="M388.801 239.225C387.533 239.225 383.488 236.168 379.734 222.857C379.003 220.274 378.369 217.641 377.833 214.711L388.801 214.684V205.919L376.273 205.77C375.25 198.269 374.567 189.974 374.421 181.381H388.752H388.801V172.613L374.47 172.441C374.616 163.848 375.25 155.553 376.322 148.052L388.801 148.071V139.306L377.785 139.161C378.321 136.28 379.003 133.548 379.686 131.015C383.439 117.654 387.533 114.765 388.801 114.765V114.773V106C350.391 106 319 137.671 319 176.911C319 216.151 350.293 247.99 388.752 247.99H388.801V239.225ZM362.674 132.158C366.184 126.644 370.083 122.372 374.421 119.392C373.349 122.074 372.277 125.055 371.302 128.482C370.376 131.76 369.547 135.287 368.864 139.062H358.921C360.091 136.628 361.309 134.343 362.674 132.158ZM365.745 172.441H351.219C351.609 163.798 353.023 155.553 355.46 148.052H367.548C366.476 155.602 365.842 163.897 365.745 172.441ZM367.5 205.72H355.411C353.023 198.22 351.512 189.974 351.171 181.332H365.696C365.842 189.875 366.476 198.17 367.5 205.72ZM358.336 122.969C357.312 124.359 356.337 125.8 355.314 127.29C353.023 130.916 351.073 134.84 349.318 139.062H340.301C345.224 132.555 351.317 127.091 358.336 122.969ZM334.695 148.052H346.296C344.103 155.702 342.787 163.897 342.494 172.441H327.969C328.505 163.699 330.893 155.404 334.695 148.052ZM334.695 205.72C330.893 198.319 328.456 190.074 327.871 181.332H342.397C342.738 189.875 344.054 198.071 346.199 205.72H334.695ZM340.35 214.711H349.367C351.073 218.883 353.072 222.857 355.363 226.483C356.337 228.022 357.312 229.512 358.385 230.804C351.317 226.681 345.224 221.217 340.35 214.711ZM362.674 221.615C361.309 219.429 360.042 217.095 358.921 214.711H368.864C369.596 218.436 370.376 222.012 371.302 225.29C372.277 228.668 373.3 231.748 374.421 234.43C370.181 231.4 366.184 227.128 362.674 221.615Z" fill="#0295AA"/>
<path d="M459 176.954C459 137.86 427.506 106.05 388.801 106L388.801 114.765C390.126 114.814 394.099 118.04 397.827 131.171C398.563 133.747 399.201 136.373 399.74 139.297H388.801V148.071L401.31 148.166C402.34 155.697 403.027 163.922 403.174 172.494L388.801 172.613V181.377L403.125 181.363C402.978 189.985 402.34 198.21 401.31 205.692L388.801 205.919V214.684H399.595C399.006 217.508 398.514 220.16 397.827 222.736C394.05 235.916 390.077 239.176 388.801 239.225L388.801 247.99C427.506 248.04 459 215.998 459 176.954ZM443.155 205.692H431.48C433.687 198.061 435.012 189.886 435.306 181.363H449.925C449.434 190.084 446.981 198.359 443.155 205.692ZM443.155 148.166C446.981 155.549 449.434 163.774 450.023 172.494H435.404C435.061 163.972 433.736 155.796 431.578 148.166H443.155ZM437.465 139.198H428.389C426.672 135.035 424.661 131.072 422.355 127.455C421.374 125.919 420.393 124.432 419.314 123.144C426.427 127.256 432.608 132.707 437.465 139.198ZM411.906 172.494C411.759 163.972 411.121 155.796 410.14 148.166H422.306C424.71 155.648 426.231 163.873 426.574 172.494H411.906ZM426.525 181.363C426.133 189.985 424.71 198.21 422.257 205.692H410.091C411.072 198.061 411.71 189.886 411.857 181.363H426.525ZM414.997 132.31C416.37 134.49 417.646 136.819 418.774 139.198H408.767C408.031 135.481 407.246 131.914 406.314 128.644C405.333 125.274 404.303 122.202 403.174 119.527C407.442 122.549 411.465 126.81 414.997 132.31ZM414.997 221.547C411.465 227.047 407.54 231.308 403.174 234.281C404.352 231.606 405.382 228.633 406.314 225.164C407.246 221.894 408.08 218.376 408.767 214.61H418.774C417.646 217.038 416.37 219.367 414.997 221.547ZM419.412 230.714C420.442 229.326 421.423 227.889 422.453 226.403C424.759 222.786 426.721 218.872 428.487 214.66H437.563C432.608 221.151 426.427 226.601 419.412 230.714Z" fill="#4ACFD9"/>
</g>
<defs>
<clipPath id="clip0_470_223">
<rect width="512" height="512" fill="white"/>
</clipPath>
</defs>
</svg>
