<svg width="512" height="512" viewBox="0 0 512 512" fill="none" xmlns="http://www.w3.org/2000/svg">
<path d="M79 505C35.4533 505 0 469.547 0 426C0 382.453 35.4533 347 79 347C122.547 347 158 382.418 158 426C158 469.583 122.547 505 79 505ZM79 353.912C39.2493 353.912 6.94742 386.214 6.94742 425.964C6.94742 465.715 39.2493 498.017 79 498.017C118.751 498.017 151.053 465.715 151.053 426C151.053 386.285 118.751 353.912 79 353.912Z" fill="#0295AA"/>
<path d="M448.5 127C413.497 127 385 98.5027 385 63.5C385 28.4973 413.497 0 448.5 0C483.503 0 512 28.4685 512 63.5C512 98.5315 483.503 127 448.5 127ZM448.5 5.55553C416.548 5.55553 390.584 31.5197 390.584 63.4712C390.584 95.4227 416.548 121.387 448.5 121.387C480.451 121.387 506.416 95.4227 506.416 63.5C506.416 31.5773 480.451 5.55553 448.5 5.55553Z" fill="#4ACFD9"/>
<path d="M255.811 367.169C318.219 367.169 368.811 314.748 368.811 250.084C368.811 185.42 318.219 133 255.811 133C193.402 133 142.811 185.42 142.811 250.084C142.811 314.748 193.402 367.169 255.811 367.169Z" fill="#FFD1A9"/>
<path fill-rule="evenodd" clip-rule="evenodd" d="M158.311 309.5C198.702 297.589 251.855 258.934 265.151 216.807C297.555 256.543 322.07 275.769 362.311 290C365.935 278.311 368.811 265.278 368.811 252.31C369.811 184 318.218 133 255.811 133C193.403 133 142.811 182 142.811 252.31C142.811 273.23 148.811 293 158.311 309.5Z" fill="#365558"/>
<path d="M435 510C398.068 510 368 479.932 368 443C368 406.068 398.068 376 435 376C471.932 376 502 406.038 502 443C502 479.962 471.932 510 435 510ZM435 381.862C401.287 381.862 373.892 409.257 373.892 442.97C373.892 476.682 401.287 504.078 435 504.078C468.713 504.078 496.108 476.682 496.108 443C496.108 409.318 468.713 381.862 435 381.862Z" fill="#4ACFD9"/>
<path d="M434.187 499.132C465.202 499.132 490.345 473.807 490.345 442.566C490.345 411.325 465.202 386 434.187 386C403.171 386 378.028 411.325 378.028 442.566C378.028 473.807 403.171 499.132 434.187 499.132Z" fill="#FFD1A9"/>
<path fill-rule="evenodd" clip-rule="evenodd" d="M385.456 471.218C405.53 465.464 396.726 443.315 403.334 422.962C419.438 442.16 484.973 436.188 487.265 461.464C489.066 455.817 491.238 449.907 491.238 443.641C491.238 411.807 465.202 386 434.187 386C403.172 386 377.013 411.668 378.029 443.641C378.029 453.748 381.004 462.959 385.456 471.218Z" fill="#FF8C29"/>
<path d="M449.685 115.133C475.642 115.133 496.685 91.828 496.685 63.0795C496.685 34.3309 475.642 11.0256 449.685 11.0256C423.727 11.0256 402.685 34.3309 402.685 63.0795C402.685 91.828 423.727 115.133 449.685 115.133Z" fill="#FFD1A9"/>
<path fill-rule="evenodd" clip-rule="evenodd" d="M421.684 33.0256C407.685 11.0255 488.185 -7.47442 484.685 47.0256C498.162 64.6918 477.447 73.6986 494.184 80.0256C495.684 75.0256 496.592 69.8336 496.685 64.0689C497.184 33.0256 476.185 11.0255 449.685 11.0255C423.685 10.0256 397.396 38.5817 402.684 65.0256C403.684 70.0256 398.684 37.0256 421.684 33.0256Z" fill="#CDD4D5"/>
<path d="M79 491.654C111.576 491.654 137.984 462.406 137.984 426.327C137.984 390.248 111.576 361 79 361C46.4238 361 20.0156 390.248 20.0156 426.327C20.0156 462.406 46.4238 491.654 79 491.654Z" fill="#FFD1A9"/>
<path fill-rule="evenodd" clip-rule="evenodd" d="M51.8427 393.023C51.8427 431.748 123.335 365.841 107.696 396.374C124.61 418.545 114.064 440.352 135.069 448.292C136.961 441.771 137.984 434.804 137.984 427.569C138.745 390.302 111.576 361 79 361C46.4242 361 19.2545 390.302 20.0156 427.569C20.0156 439.241 22.6221 389.671 51.8427 393.023Z" fill="#0295AA"/>
<path d="M256 384.63C181.585 384.63 121 324.129 121 249.815C121 175.502 181.585 115 256 115C256 115 256 386 256 384.63V386V372.713V384.63ZM256 126.795C188.072 126.795 132.872 181.919 132.872 249.754C132.872 317.589 188.072 372.713 256 372.713V386V384.63C256 386 256 115 256 115V126.795Z" fill="#0295AA"/>
<path d="M256.001 384.63C330.416 384.63 391.001 324.129 391.001 249.815C391.001 175.502 330.416 115 256.001 115C256.001 115 256.001 386 256.001 384.63V386V372.713V384.63ZM256.001 126.795C323.929 126.795 379.129 181.919 379.129 249.754C379.129 317.589 323.929 372.713 256.001 372.713V386V384.63C256.001 386 256.001 115 256.001 115V126.795Z" fill="#4ACFD9"/>
<rect x="57.9072" y="81.0493" width="20" height="130.478" transform="rotate(-45 57.9072 81.0493)" fill="#0295AA"/>
<rect x="152.456" y="331.911" width="20" height="44.7263" transform="rotate(45 152.456 331.911)" fill="#0295AA"/>
<rect x="334.536" y="356.678" width="20" height="68.6811" transform="rotate(-45 334.536 356.678)" fill="#4ACFD9"/>
<rect x="355.767" y="163.688" width="20" height="76.6389" transform="rotate(-135 355.767 163.688)" fill="#4ACFD9"/>
<path d="M41 85C18.3998 85 0 66.6002 0 44C0 21.3998 18.3998 3 41 3C63.6002 3 82 21.3812 82 44C82 66.6188 63.6002 85 41 85ZM41 6.58704C20.3699 6.58704 3.60562 23.3513 3.60562 43.9814C3.60562 64.6115 20.3699 81.3758 41 81.3758C61.6301 81.3758 78.3944 64.6115 78.3944 44C78.3944 23.3885 61.6301 6.58704 41 6.58704Z" fill="#0295AA"/>
<path d="M41.2161 79.0955C59.6935 79.0955 74.6723 63.5752 74.6723 44.43C74.6723 25.2847 59.6935 9.7644 41.2161 9.7644C22.7387 9.7644 7.75977 25.2847 7.75977 44.43C7.75977 63.5752 22.7387 79.0955 41.2161 79.0955Z" fill="#FFD1A9"/>
<path fill-rule="evenodd" clip-rule="evenodd" d="M11.9221 62.1658C4.81104 -16.5 59.8744 39.9727 63.811 27.5C73.4049 39.2649 61.1046 51.8725 73.0187 56.0859C74.0917 52.6251 74.6723 48.9285 74.6723 45.0889C75.311 25 59.6933 9.7644 41.2161 9.7644C22.7388 9.7644 7.75977 24.5 7.75977 45.0889C7.75977 51.2827 9.26982 57.1042 11.9221 62.1658Z" fill="#687F82"/>
</svg>
