<svg width="512" height="512" viewBox="0 0 512 512" fill="none" xmlns="http://www.w3.org/2000/svg">
<g clip-path="url(#clip0_573_61)">
<path d="M255 345.788V511.5H512.5V296L465.503 132.009L362.889 251.725L255 345.788Z" fill="#FFD1A9"/>
<path d="M149.706 241L48.9041 378.964L0 275.491V511.5H255V368.618L149.706 241Z" fill="#FF8C29"/>
<path d="M40.5 360.121L0 294V270L50 350L143.211 246.297C144.67 244.711 146.707 243.779 148.862 243.711C151.027 243.643 153.108 244.449 154.663 245.941L256.001 343.225L357.154 246.118L451.046 143.693C455.389 137.577 471.976 139.664 474.001 145.5C477.264 148.492 513.501 254.5 513.501 254.5L511.5 304L460.501 156.5L368.8 257.142C368.686 257.268 368.566 257.39 368.443 257.508L261.554 360.121C258.452 363.099 253.552 363.099 250.449 360.121L149.467 263.179L60 360.121C57 363 52.5 365 49.5 365C46.5 365 42.5 363 40.5 360.121Z" fill="#365558"/>
<path d="M50.772 324.944C34.564 324.944 21.377 338.13 21.377 354.339C21.377 370.548 34.564 383.734 50.772 383.734C66.98 383.734 80.167 370.548 80.167 354.339C80.167 338.13 66.98 324.944 50.772 324.944Z" fill="#F0353D"/>
<path d="M256 324.944C239.792 324.944 226.605 338.13 226.605 354.339C226.605 370.548 239.792 383.734 256 383.734C272.208 383.734 285.395 370.548 285.395 354.339C285.395 338.13 272.208 324.944 256 324.944Z" fill="#FD6A33"/>
<path d="M226.605 354.337C226.605 370.187 239.217 383.139 254.931 383.705V324.97C239.217 325.535 226.605 338.488 226.605 354.337Z" fill="#F0353D"/>
<path d="M362.889 222.33C346.681 222.33 333.494 235.516 333.494 251.725C333.494 267.934 346.681 281.12 362.889 281.12C379.097 281.12 392.284 267.934 392.284 251.725C392.284 235.516 379.097 222.33 362.889 222.33Z" fill="#4ACFD9"/>
<path d="M149.395 227C133.187 227 120 240.186 120 256.395C120 272.604 133.187 285.79 149.395 285.79C165.603 285.79 178.79 272.604 178.79 256.395C178.79 240.186 165.603 227 149.395 227Z" fill="#4ACFD9"/>
<path d="M456.953 119.716C440.745 119.716 427.558 132.902 427.558 149.111C427.558 165.32 440.745 178.506 456.953 178.506C473.161 178.506 486.348 165.32 486.348 149.111C486.348 132.902 473.161 119.716 456.953 119.716Z" fill="#4ACFD9"/>
<path d="M309.384 469.722C308.667 467.934 307.189 466.861 305.51 466.912C304.234 466.963 303.249 467.653 302.353 468.675C296.935 474.88 290.756 479.886 283.837 483.666C276.516 487.675 268.814 490.076 260.709 490.918C258.761 491.123 256.836 491.225 254.888 491.25V500.802C257.776 500.572 260.687 500.444 263.575 500.036C266.508 499.601 269.441 498.989 272.307 498.222C274.993 497.507 277.658 496.588 280.277 495.541C286.524 493.038 292.368 489.565 297.808 485.223C301.682 482.133 305.309 478.66 308.6 474.804C309.764 473.425 310.055 471.407 309.384 469.722Z" fill="#0295AA"/>
<path d="M245.752 490.612C239.729 489.718 233.908 487.956 228.311 485.274C220.295 481.444 213.22 476.03 207.018 469.109C205.496 467.398 203.011 467.295 201.444 468.853C199.608 470.692 199.496 473.782 201.264 475.774C209.481 484.993 219.042 491.787 229.968 496.052C237.916 499.167 246.088 500.674 254.507 500.853C254.641 500.853 254.775 500.827 254.932 500.827V491.276C251.865 491.276 248.797 491.072 245.752 490.612Z" fill="#4ACFD9"/>
<path d="M288.896 457.31C287.24 455.394 284.665 455.42 282.963 457.386C279.157 461.753 274.746 465.15 269.731 467.474C265.343 469.517 260.798 470.615 256.074 470.794C255.693 470.819 255.312 470.819 254.932 470.819V480.243C258.021 480.192 260.663 479.911 263.305 479.349C273.179 477.23 281.687 472.122 288.784 464.001C290.441 462.085 290.486 459.174 288.896 457.31Z" fill="#0295AA"/>
<path d="M247.789 470.155C241.923 469.032 236.55 466.529 231.714 462.596C229.945 461.166 228.333 459.48 226.698 457.846C225.78 456.927 224.795 456.339 223.586 456.416C221.818 456.518 220.519 457.514 219.892 459.429C219.288 461.319 219.623 463.056 220.9 464.486C223.743 467.704 226.9 470.462 230.348 472.76C238.072 477.868 246.401 480.345 254.909 480.243V470.819C252.536 470.845 250.163 470.615 247.789 470.155Z" fill="#4ACFD9"/>
<path d="M277.343 444.285C275.687 442.472 273.134 442.472 271.522 444.336C270.044 446.047 268.388 447.529 266.552 448.729C262.88 451.13 259.006 452.33 254.909 452.355V461.728C255.155 461.728 255.402 461.728 255.648 461.728C257.685 461.753 260.596 461.268 263.44 460.323C268.791 458.561 273.448 455.42 277.366 450.874C278.978 449.035 278.933 446.047 277.343 444.285Z" fill="#0295AA"/>
<path d="M251.685 452.151C247.588 451.564 243.893 449.904 240.602 447.094C239.595 446.226 238.677 445.179 237.692 444.285C236.483 443.187 235.117 442.983 233.684 443.596C232.251 444.209 231.378 445.434 231.109 447.146C230.796 449.112 231.535 450.568 232.766 451.845C235.117 454.322 237.669 456.39 240.535 457.999C244.811 460.4 249.334 461.651 254.909 461.728V452.355C253.857 452.355 252.782 452.304 251.685 452.151Z" fill="#4ACFD9"/>
<path d="M6.31813 252.545C6.85673 253.898 7.97234 254.712 9.24239 254.676C10.2076 254.64 10.9539 254.12 11.6331 253.349C15.7421 248.666 20.4246 244.891 25.6637 242.046C31.208 239.026 37.0372 237.225 43.1684 236.602C44.6419 236.451 46.0983 236.378 47.5715 236.362L47.5889 229.138C45.4041 229.307 43.2027 229.398 41.0176 229.702C38.7986 230.025 36.5793 230.483 34.4105 231.057C32.3773 231.593 30.3606 232.284 28.3776 233.071C23.6488 234.952 19.223 237.568 15.1005 240.842C12.1655 243.172 9.41612 245.792 6.92 248.703C6.03699 249.743 5.8132 251.269 6.31813 252.545Z" fill="#0295AA"/>
<path d="M54.4789 236.861C59.0322 237.548 63.4315 238.891 67.6599 240.929C73.7148 243.841 79.0558 247.948 83.7336 253.194C84.8819 254.491 86.7612 254.572 87.9494 253.397C89.3412 252.01 89.4315 249.673 88.0974 248.163C81.8998 241.176 74.6818 236.021 66.4264 232.776C60.4209 230.405 54.2432 229.25 47.8768 229.1C47.7752 229.1 47.6736 229.119 47.5551 229.119L47.5377 236.342C49.8575 236.348 52.1769 236.508 54.4789 236.861Z" fill="#4ACFD9"/>
<path d="M21.7892 261.969C23.0388 263.42 24.9861 263.406 26.2765 261.922C29.163 258.626 32.505 256.065 36.3021 254.316C39.6246 252.779 43.064 251.957 46.6371 251.83C46.925 251.812 47.2129 251.813 47.5007 251.813L47.5179 244.686C45.181 244.719 43.1825 244.927 41.1834 245.347C33.7122 246.932 27.2685 250.78 21.886 256.909C20.6295 258.354 20.5904 260.556 21.7892 261.969Z" fill="#0295AA"/>
<path d="M52.9016 252.328C57.336 253.189 61.3953 255.091 65.0456 258.074C66.3807 259.159 67.5968 260.437 68.8299 261.676C69.5225 262.373 70.2665 262.819 71.181 262.763C72.5189 262.689 73.5028 261.938 73.9804 260.491C74.441 259.063 74.1901 257.749 73.2276 256.665C71.083 254.226 68.7004 252.134 66.097 250.39C60.2645 246.513 53.97 244.624 47.5353 244.686L47.5182 251.813C49.3131 251.798 51.1076 251.976 52.9016 252.328Z" fill="#4ACFD9"/>
<path d="M30.5026 271.84C31.7524 273.214 33.6827 273.219 34.9052 271.812C36.0259 270.52 37.2816 269.403 38.6723 268.499C41.4536 266.69 44.3852 265.789 47.4839 265.777L47.5009 258.689C47.3147 258.689 47.1284 258.688 46.9421 258.688C45.4013 258.665 43.1992 259.026 41.047 259.736C36.9969 261.059 33.4692 263.426 30.4977 266.857C29.2752 268.244 29.3036 270.504 30.5026 271.84Z" fill="#0295AA"/>
<path d="M49.922 265.938C53.0196 266.389 55.8105 267.651 58.2945 269.782C59.0549 270.44 59.7473 271.234 60.4907 271.912C61.4031 272.744 62.4356 272.901 63.5204 272.441C64.6052 271.98 65.2678 271.054 65.4741 269.761C65.7147 268.274 65.1586 267.172 64.2296 266.204C62.4562 264.326 60.5296 262.757 58.3651 261.535C55.1353 259.712 51.7172 258.757 47.5011 258.689L47.484 265.777C48.2799 265.779 49.0926 265.82 49.922 265.938Z" fill="#4ACFD9"/>
<path d="M150 123.5C133.792 123.5 120.605 136.686 120.605 152.895C120.605 169.104 150 222 150 222C150 222 179.395 169.104 179.395 152.895C179.395 136.686 166.207 123.5 150 123.5Z" fill="#F0353D"/>
<path d="M194.981 140.706C192.081 140.879 189.98 138.778 190.232 135.871C190.465 133.204 190.357 130.585 189.862 128.057C188.873 123 186.702 118.794 183.35 115.399L191.292 107.458C191.495 107.66 191.697 107.863 191.9 108.066C193.599 109.722 195.584 112.529 197.124 115.671C200.037 121.569 201.209 128.064 200.583 135.142C200.352 138.027 197.783 140.522 194.981 140.706Z" fill="#0295AA"/>
<path d="M242.9 146.108C240.813 147.008 238.693 146.68 237.345 145.247C236.331 144.147 236.091 142.756 236.203 141.161C236.901 131.489 235.966 122.189 233.395 113.303C230.682 103.89 226.309 95.5061 220.302 88.0902C218.859 86.3064 217.35 84.6266 215.758 82.9922L223.738 75.0122C225.938 77.596 228.242 80.113 230.292 82.8462C232.358 85.6377 234.275 88.5787 236.008 91.592C237.635 94.4143 239.074 97.3888 240.368 100.433C243.45 107.697 245.387 115.438 246.266 123.57C246.891 129.36 246.993 135.265 246.497 141.213C246.309 143.329 244.864 145.256 242.9 146.108Z" fill="#0295AA"/>
<path d="M207.471 75.9012C201.678 71.605 195.326 68.2049 188.391 65.7624C178.469 62.2571 168.007 60.8657 157.016 61.4677C154.307 61.6256 152.14 59.6295 152.132 57.0118C152.134 53.9339 154.629 51.2518 157.779 51.0649C172.384 50.2256 186.082 52.5436 198.806 58.1233C208.073 62.1713 216.181 67.7545 223.382 74.6563C223.494 74.7688 223.585 74.9027 223.717 75.034L215.717 83.0342C213.147 80.4649 210.407 78.0667 207.471 75.9012Z" fill="#4ACFD9"/>
<path d="M215.134 139.514C212.147 139.774 210.05 137.634 210.317 134.566C210.888 127.732 210.138 121.222 207.982 115.125C206.103 109.781 203.294 105.11 199.558 101.071C199.266 100.736 198.953 100.423 198.64 100.11L206.63 92.1199C209.129 94.7057 211.065 97.1179 212.763 99.7683C219.09 109.69 221.761 121.022 220.715 133.748C220.455 136.736 218.023 139.241 215.134 139.514Z" fill="#0295AA"/>
<path d="M192.192 94.6624C186.346 90.7077 179.752 88.3248 172.403 87.5941C169.722 87.3199 166.957 87.3915 164.216 87.4014C162.676 87.4082 161.359 87.0795 160.413 86.005C159.022 84.4415 158.775 82.5187 159.863 80.3834C160.948 78.2883 162.69 77.1076 164.959 76.9703C170.042 76.6381 175 76.9545 179.814 77.9009C190.564 80.0558 199.606 84.929 206.628 92.1222L198.698 100.051C196.737 98.0473 194.561 96.2582 192.192 94.6624Z" fill="#4ACFD9"/>
<path d="M180.327 113.005C176.378 110.069 171.843 108.397 166.655 108.054C165.06 107.956 163.386 108.087 161.788 108.03C159.825 107.961 158.502 106.99 157.826 105.258C157.151 103.525 157.474 101.735 158.724 100.034C160.156 98.0748 162.032 97.4405 164.167 97.3741C168.278 97.2134 172.206 97.5744 176.001 98.595C181.664 100.118 186.543 102.839 191.293 107.457L183.212 115.538C182.328 114.654 181.381 113.795 180.327 113.005Z" fill="#4ACFD9"/>
<path d="M459.558 57.0806C450.356 57.0806 442.87 64.5664 442.87 73.7684C442.87 82.9703 459.558 113 459.558 113C459.558 113 476.246 82.9703 476.246 73.7684C476.246 64.5664 468.759 57.0806 459.558 57.0806Z" fill="#F0353D"/>
<path d="M406.908 70.4828C408.093 70.9939 409.296 70.8079 410.062 69.9943C410.637 69.3701 410.774 68.5799 410.71 67.6743C410.314 62.1836 410.845 56.9043 412.304 51.8591C413.845 46.5154 416.327 41.7559 419.737 37.5459C420.556 36.5332 421.413 35.5795 422.317 34.6517L417.786 30.1214C416.538 31.5882 415.23 33.0172 414.066 34.5688C412.893 36.1536 411.805 37.8232 410.821 39.5339C409.897 41.1361 409.08 42.8248 408.345 44.5529C406.596 48.6767 405.496 53.0713 404.997 57.6883C404.642 60.975 404.584 64.3275 404.866 67.7039C404.973 68.9053 405.793 69.9991 406.908 70.4828Z" fill="#0295AA"/>
<path d="M427.022 30.6264C430.311 28.1874 433.917 26.2571 437.853 24.8705C443.487 22.8805 449.425 22.0906 455.666 22.4324C457.203 22.522 458.434 21.3888 458.438 19.9027C458.437 18.1554 457.021 16.6327 455.232 16.5266C446.941 16.0501 439.165 17.3661 431.941 20.5337C426.68 22.8318 422.077 26.0014 417.989 29.9196C417.925 29.9835 417.873 30.0596 417.799 30.1341L422.341 34.6758C423.799 33.2172 425.355 31.8558 427.022 30.6264Z" fill="#4ACFD9"/>
<path d="M422.671 66.7397C424.367 66.8876 425.558 65.6725 425.406 63.9311C425.082 60.0509 425.508 56.3555 426.732 52.8939C427.799 49.8605 429.393 47.2086 431.514 44.9157C431.68 44.7255 431.858 44.5477 432.035 44.3699L427.499 39.8339C426.081 41.3019 424.982 42.6713 424.018 44.176C420.426 49.8088 418.91 56.242 419.503 63.4667C419.651 65.1626 421.031 66.5849 422.671 66.7397Z" fill="#0295AA"/>
<path d="M435.695 41.277C439.014 39.0318 442.758 37.679 446.93 37.2642C448.452 37.1086 450.022 37.1492 451.577 37.1548C452.452 37.1587 453.2 36.972 453.737 36.3621C454.527 35.4745 454.667 34.3829 454.049 33.1706C453.433 31.9812 452.444 31.3109 451.156 31.233C448.27 31.0444 445.456 31.224 442.722 31.7613C436.619 32.9847 431.486 35.7512 427.5 39.8348L432.002 44.3363C433.115 43.1986 434.35 42.1829 435.695 41.277Z" fill="#4ACFD9"/>
<path d="M434.113 67.4165C435.759 67.5143 436.952 66.3214 436.809 64.6712C436.676 63.1575 436.738 61.6706 437.019 60.2352C437.58 57.3643 438.813 54.9766 440.716 53.0494L436.207 48.5409C436.092 48.656 435.977 48.7711 435.862 48.8862C434.898 49.8261 433.771 51.4199 432.896 53.2034C431.243 56.5519 430.577 60.2395 430.933 64.2574C431.064 65.8954 432.522 67.3118 434.113 67.4165Z" fill="#0295AA"/>
<path d="M442.432 51.6904C444.674 50.0236 447.248 49.074 450.193 48.8792C451.099 48.8237 452.049 48.8984 452.956 48.866C454.071 48.8268 454.822 48.2754 455.205 47.2919C455.589 46.3084 455.405 45.2919 454.696 44.3262C453.883 43.2142 452.818 42.8541 451.606 42.8164C449.272 42.7252 447.042 42.9301 444.887 43.5095C441.673 44.3742 438.903 45.9189 436.206 48.5405L440.794 53.1282C441.296 52.6263 441.833 52.1387 442.432 51.6904Z" fill="#4ACFD9"/>
<path d="M272.5 425.464C272.5 435.129 264.665 442.964 255 442.964C245.335 442.964 237.5 435.129 237.5 425.464C237.5 415.799 255 385.964 255 385.964C255 385.964 272.5 415.799 272.5 425.464Z" fill="#BCD643"/>
<path d="M33.9622 286.157C33.9798 278.866 40.0381 272.97 47.4939 272.988C54.9497 273.006 60.9797 278.931 60.9622 286.222C60.9447 293.513 47.3907 315.988 47.3907 315.988C47.3907 315.988 33.9447 293.448 33.9622 286.157Z" fill="#BCD643"/>
</g>
<defs>
<clipPath id="clip0_573_61">
<rect width="512" height="512" fill="white"/>
</clipPath>
</defs>
</svg>
