<svg width="512" height="512" viewBox="0 0 512 512" fill="none" xmlns="http://www.w3.org/2000/svg">
<g clip-path="url(#clip0_641_277)">
<path d="M511.171 435.478C509.5 431.098 506.053 428.47 502.135 428.595C499.158 428.72 496.86 430.41 494.771 432.912C482.131 448.116 467.716 460.379 451.577 469.639C434.497 479.463 416.53 485.344 397.623 487.409C393.079 487.909 388.587 488.159 384.043 488.222V511.622C390.781 511.059 397.571 510.746 404.308 509.745C411.15 508.682 417.993 507.18 424.678 505.303C430.946 503.551 437.161 501.299 443.272 498.733C457.844 492.602 471.476 484.093 484.168 473.456C493.204 465.885 501.665 457.376 509.343 447.928C512.059 444.55 512.738 439.607 511.171 435.478Z" fill="#0295AA"/>
<path d="M362.731 486.657C348.681 484.468 335.101 480.15 322.044 473.581C303.345 464.196 286.84 450.931 272.373 433.975C268.821 429.783 263.024 429.533 259.367 433.35C255.085 437.855 254.823 445.425 258.95 450.306C278.118 472.893 300.42 489.536 325.909 499.984C344.45 507.618 363.514 511.309 383.153 511.747C383.466 511.747 383.78 511.684 384.145 511.684V488.284C376.99 488.284 369.834 487.784 362.731 486.657Z" fill="#4ACFD9"/>
<path d="M463.38 405.066C459.515 400.373 453.508 400.436 449.539 405.254C440.659 415.953 430.37 424.274 418.671 429.968C408.433 434.973 397.831 437.664 386.81 438.102C385.922 438.164 385.034 438.164 384.146 438.164V461.252C391.354 461.127 397.517 460.438 403.681 459.062C426.714 453.869 446.561 441.355 463.118 421.459C466.983 416.766 467.088 409.633 463.38 405.066Z" fill="#0295AA"/>
<path d="M367.481 436.537C353.797 433.784 341.262 427.653 329.98 418.017C325.854 414.513 322.093 410.384 318.281 406.38C316.139 404.127 313.841 402.688 311.021 402.876C306.894 403.126 303.865 405.566 302.403 410.259C300.992 414.889 301.776 419.143 304.753 422.647C311.386 430.531 318.751 437.288 326.794 442.919C344.813 455.433 364.243 461.502 384.09 461.251V438.164C378.554 438.226 373.018 437.663 367.481 436.537Z" fill="#4ACFD9"/>
<path d="M436.426 373.158C432.561 368.716 426.607 368.716 422.847 373.283C419.399 377.475 415.534 381.104 411.251 384.045C402.686 389.926 393.65 392.867 384.092 392.929V415.892C384.666 415.892 385.241 415.892 385.815 415.892C390.568 415.954 397.358 414.766 403.991 412.451C416.474 408.133 427.338 400.438 436.479 389.3C440.239 384.796 440.135 377.475 436.426 373.158Z" fill="#0295AA"/>
<path d="M376.568 392.429C367.01 390.99 358.392 386.923 350.714 380.041C348.364 377.913 346.222 375.348 343.924 373.158C341.104 370.468 337.918 369.967 334.575 371.469C331.232 372.97 329.195 375.974 328.568 380.166C327.837 384.983 329.561 388.55 332.433 391.678C337.918 397.747 343.872 402.815 350.557 406.757C360.533 412.638 371.084 415.704 384.089 415.892V392.93C381.634 392.93 379.127 392.804 376.568 392.429Z" fill="#4ACFD9"/>
<path fill-rule="evenodd" clip-rule="evenodd" d="M423.969 327.187C423.969 350.649 405.655 369.734 383.145 369.734C360.636 369.734 342.321 350.649 342.321 327.187C342.321 308.542 368.106 248.174 378.691 224.178C380.421 220.256 385.868 220.256 387.599 224.178C398.184 248.174 423.969 308.542 423.969 327.187ZM382.378 305.995C368.867 305.995 357.914 317.41 357.914 331.491C357.914 345.572 368.867 356.987 382.378 356.987C395.888 356.987 406.841 345.572 406.841 331.491C406.841 317.41 395.888 305.995 382.378 305.995Z" fill="#BCD643"/>
<path d="M183.023 212.316C177.744 212.63 173.92 208.805 174.379 203.514C174.804 198.662 174.606 193.895 173.706 189.293C171.906 180.088 167.954 172.433 161.854 166.255L176.308 151.8C176.677 152.169 177.046 152.538 177.415 152.908C180.507 155.921 184.12 161.031 186.924 166.748C192.224 177.484 194.358 189.306 193.218 202.188C192.798 207.439 188.123 211.98 183.023 212.316Z" fill="#0295AA"/>
<path d="M270.238 222.144C266.44 223.783 262.581 223.186 260.128 220.578C258.282 218.577 257.846 216.043 258.049 213.14C259.32 195.537 257.618 178.611 252.938 162.436C248 145.304 240.042 130.045 229.107 116.548C226.482 113.301 223.735 110.244 220.838 107.269L235.362 92.745C239.366 97.4477 243.559 102.029 247.291 107.003C251.051 112.084 254.54 117.437 257.694 122.921C260.656 128.058 263.274 133.472 265.63 139.013C271.239 152.233 274.766 166.323 276.364 181.125C277.503 191.662 277.688 202.41 276.785 213.235C276.443 217.087 273.813 220.593 270.238 222.144Z" fill="#0295AA"/>
<path d="M205.754 94.364C195.21 86.5446 183.649 80.3562 171.027 75.9107C152.967 69.5307 133.927 66.9982 113.921 68.0939C108.992 68.3813 105.047 64.7482 105.033 59.9839C105.037 54.3818 109.577 49.5002 115.311 49.16C141.892 47.6324 166.824 51.8514 189.983 62.0069C206.85 69.3746 221.606 79.5364 234.713 92.0982C234.918 92.303 235.084 92.5467 235.322 92.7857L220.762 107.347C216.085 102.67 211.097 98.3054 205.754 94.364Z" fill="#4ACFD9"/>
<path d="M219.705 210.144C214.268 210.618 210.451 206.722 210.938 201.139C211.976 188.699 210.612 176.852 206.687 165.754C203.267 156.029 198.155 147.527 191.355 140.176C190.825 139.566 190.254 138.996 189.684 138.426L204.227 123.883C208.776 128.59 212.299 132.98 215.389 137.804C226.906 155.863 231.766 176.488 229.863 199.65C229.389 205.088 224.963 209.647 219.705 210.144Z" fill="#0295AA"/>
<path d="M177.946 128.51C167.307 121.312 155.304 116.975 141.928 115.645C137.049 115.146 132.016 115.276 127.028 115.294C124.225 115.307 121.827 114.708 120.106 112.753C117.574 109.907 117.124 106.407 119.105 102.521C121.08 98.7077 124.25 96.5588 128.38 96.309C137.631 95.7043 146.655 96.2802 155.417 98.0026C174.984 101.925 191.441 110.794 204.22 123.887L189.788 138.318C186.219 134.671 182.259 131.414 177.946 128.51Z" fill="#4ACFD9"/>
<path d="M156.351 161.895C149.163 156.552 140.909 153.507 131.468 152.883C128.564 152.705 125.517 152.944 122.608 152.84C119.036 152.715 116.627 150.947 115.398 147.794C114.168 144.641 114.757 141.382 117.031 138.286C119.638 134.721 123.052 133.566 126.939 133.445C134.421 133.153 141.57 133.81 148.478 135.667C158.784 138.44 167.664 143.392 176.309 151.797L161.601 166.505C159.992 164.896 158.269 163.333 156.351 161.895Z" fill="#4ACFD9"/>
<rect x="80.9648" y="468.43" width="52.4072" height="43.5697" fill="#BCD643"/>
<rect x="107.168" y="373.666" width="2.91151" height="99.121" fill="#BCD643"/>
<rect x="359" y="140.733" width="48" height="66.6238" fill="#F0353D"/>
<rect x="380.332" y="9" width="2.66667" height="137.79" fill="#F0353D"/>
<path fill-rule="evenodd" clip-rule="evenodd" d="M107.17 169.508C78.1731 170.069 54.7627 192.906 54.7627 220.898C54.7627 244.249 91.0765 321.765 103.869 348.347C105.109 350.924 107.973 351.721 110.218 350.738H107.17V246.435C90.4406 245.398 77.2055 232.033 77.2055 215.699C77.2055 199.364 90.4406 185.999 107.17 184.962V169.508Z" fill="#F0353D"/>
<path fill-rule="evenodd" clip-rule="evenodd" d="M107.169 169.497C136.166 170.059 159.576 192.895 159.576 220.887C159.576 244.238 123.262 321.754 110.47 348.336C109.23 350.912 106.367 351.71 104.123 350.728H107.169V246.424C123.899 245.387 137.133 232.022 137.133 215.688C137.133 199.353 123.899 185.988 107.169 184.951V169.497ZM106.234 169.487H105.916C105.969 169.486 106.022 169.486 106.075 169.486C106.128 169.486 106.181 169.486 106.234 169.487Z" fill="#FD6A33"/>
</g>
<defs>
<clipPath id="clip0_641_277">
<rect width="512" height="512" fill="white"/>
</clipPath>
</defs>
</svg>
