<svg width="512" height="512" viewBox="0 0 512 512" fill="none" xmlns="http://www.w3.org/2000/svg">
<g clip-path="url(#clip0_567_805)">
<path d="M108 0H176C198.091 0 216 17.9086 216 40V176C216 198.091 198.091 216 176 216H108V0Z" fill="white"/>
<path d="M417 232.216C417 162.123 360.536 105.089 291.143 105L291.143 120.715C293.518 120.804 300.641 126.588 307.326 150.13C308.645 154.749 309.788 159.458 310.756 164.699H291.143V180.431L313.57 180.601C315.417 194.104 316.648 208.851 316.912 224.22L291.143 224.433V240.147L316.824 240.122C316.56 255.58 315.417 270.327 313.57 283.742L291.143 284.149V299.864H310.495C309.439 304.927 308.557 309.682 307.326 314.302C300.553 337.933 293.43 343.776 291.143 343.865L291.143 359.58C360.536 359.669 417 302.22 417 232.216ZM388.592 283.742H367.66C371.618 270.061 373.992 255.402 374.52 240.122H400.729C399.85 255.758 395.452 270.594 388.592 283.742ZM388.592 180.601C395.452 193.838 399.85 208.585 400.905 224.22H374.696C374.08 208.94 371.706 194.282 367.836 180.601H388.592ZM378.39 164.521H362.119C359.041 157.059 355.435 149.952 351.301 143.467C349.542 140.713 347.783 138.048 345.848 135.738C358.601 143.111 369.683 152.884 378.39 164.521ZM332.567 224.22C332.304 208.94 331.16 194.282 329.401 180.601H351.213C355.523 194.015 358.249 208.762 358.865 224.22H332.567ZM358.777 240.122C358.073 255.58 355.523 270.327 351.125 283.742H329.313C331.072 270.061 332.216 255.402 332.479 240.122H358.777ZM338.108 152.173C340.571 156.082 342.858 160.257 344.88 164.521H326.939C325.619 157.858 324.212 151.462 322.541 145.599C320.782 139.558 318.935 134.05 316.912 129.253C324.564 134.672 331.776 142.312 338.108 152.173ZM338.108 312.17C331.776 322.031 324.74 329.671 316.912 335.001C319.023 330.204 320.87 324.873 322.541 318.655C324.212 312.792 325.707 306.484 326.939 299.732H344.88C342.858 304.085 340.571 308.261 338.108 312.17ZM346.024 328.605C347.871 326.117 349.63 323.541 351.477 320.876C355.61 314.391 359.129 307.372 362.295 299.821H378.566C369.683 311.459 358.601 321.231 346.024 328.605Z" fill="#4ACFD9"/>
<path d="M291.142 343.865C288.87 343.865 281.617 338.384 274.888 314.517C273.577 309.886 272.441 305.166 271.48 299.912L291.142 299.864V284.149L268.683 283.882C266.848 270.434 265.625 255.561 265.362 240.155H291.055H291.142L291.142 224.433L265.45 224.124C265.712 208.717 266.848 193.845 268.771 180.397L291.142 180.431V164.716L271.392 164.456C272.354 159.291 273.577 154.393 274.801 149.851C281.53 125.895 288.87 120.715 291.142 120.715V120.729V105C249.72 105 236 119 236 119V164.278V180.397H253.04C250.5 193.5 249.72 207.5 249.807 224.124C239.654 224.124 236 224.433 236 224.433C231.28 229.5 228.704 232.04 217.655 232.139H213.5H166C166 302.494 222.104 359.58 291.055 359.58H291.142V343.865ZM244.301 151.899C250.594 142.014 257.585 134.355 265.362 129.012C263.44 133.821 261.517 139.164 259.769 145.309C258.109 151.187 256.623 157.51 255.4 164.278H236C238.097 159.914 241.855 155.818 244.301 151.899ZM252.953 283.792H231.28C226.998 270.345 224.289 255.561 223.677 240.066H249.72C249.982 255.383 251.118 270.256 252.953 283.792ZM194.14 283.792C187.323 270.523 182.954 255.74 181.905 240.066H207.947C208.559 255.383 210.918 270.078 214.764 283.792H194.14ZM204.277 299.912H220.444C223.503 307.393 227.086 314.517 231.193 321.018C232.941 323.779 234.689 326.451 236.611 328.766C223.94 321.375 213.016 311.578 204.277 299.912ZM244.301 312.291C241.855 308.372 239.582 304.186 237.572 299.912H255.4C256.711 306.591 258.109 313.003 259.769 318.881C261.517 324.937 263.352 330.458 265.362 335.267C257.759 329.835 250.594 322.176 244.301 312.291Z" fill="#0295AA"/>
<path d="M320 376.5C360.48 363.172 380.693 352.799 404.5 320H417V512H360.706C338.73 512 320.869 494.271 320.707 472.295L320 376.5Z" fill="#E6EAEA"/>
<path d="M416 320H472C494.091 320 512 337.909 512 360V472C512 494.091 494.091 512 472 512H416V320Z" fill="white"/>
<path fill-rule="evenodd" clip-rule="evenodd" d="M353.964 363.314C352.63 363.892 351.047 364.579 349 365.5V446.2H379V466.2V486.2H416V465.6V355.2C416 355.09 415.91 355.001 415.8 355.001L390.5 355.2L369 355.2C360.371 360.534 358.819 361.208 353.964 363.314Z" fill="#365558"/>
<path fill-rule="evenodd" clip-rule="evenodd" d="M466.726 355.084C475.733 355.148 483 362.468 483 371.474V446.2H453V466.2V486.2H416V465.6V355.2C416 355.09 416.09 355.001 416.2 355.002L441.5 355.2L455 355L466.726 355.084Z" fill="#365558"/>
<path d="M108 0H40C17.9086 0 0 17.9086 0 40V176C0 198.091 17.9086 216 40 216H108V0Z" fill="#E6EAEA"/>
<path fill-rule="evenodd" clip-rule="evenodd" d="M108 33.0141C107.977 33.0059 107.951 33.0016 107.925 33.0018L79.5481 33.225L64.4059 33L51.3081 33.0938C41.1757 33.1664 33 41.4009 33 51.5336V135.6H66.6492V158.1V180.6H108V33.0141Z" fill="#365558"/>
<path fill-rule="evenodd" clip-rule="evenodd" d="M165.067 33.0942C175.199 33.1666 183.375 41.4009 183.375 51.5336V135.6H149.625V158.1V180.6H108V157.425V33.225C108 33.101 108.101 33.0008 108.225 33.0018L136.688 33.225L151.875 33L165.067 33.0942Z" fill="#365558"/>
</g>
<defs>
<clipPath id="clip0_567_805">
<rect width="512" height="512" fill="white"/>
</clipPath>
</defs>
</svg>
