<?xml version="1.0" encoding="utf-8"?>
<!-- Generator: Adobe Illustrator 19.0.0, SVG Export Plug-In . SVG Version: 6.00 Build 0)  -->
<svg version="1.1" id="Layer_1" xmlns="http://www.w3.org/2000/svg" xmlns:xlink="http://www.w3.org/1999/xlink" x="0px" y="0px"
	 viewBox="96 11 512 512" style="enable-background:new 96 11 512 512;" xml:space="preserve">
<style type="text/css">
	.st0{fill:#9BAAAB;}
	.st1{fill:#687F82;}
	.st2{fill:#CDD4D5;}
	.st3{fill:#4ACFD9;}
	.st4{fill:#0295AA;}
	.st5{fill:#FFD1A9;}
	.st6{fill:#FD6A33;}
	.st7{fill:#FFFFFF;}
	.st8{fill:#F0353D;}
</style>
<path class="st0" d="M232.3,361.6h-42.8c-4.4,0-8,3.6-8,8v42.8c0,4.4,3.6,8,8,8h42.8c4.4,0,8-3.6,8-8v-42.8
	C240.3,365.2,236.7,361.6,232.3,361.6z"/>
<path class="st1" d="M232.3,361.6h-8.6v58.8h8.6c4.4,0,8-3.6,8-8v-42.8C240.3,365.2,236.7,361.6,232.3,361.6z"/>
<path class="st2" d="M108.6,311.3c-3,1.7-4.5,5-4,8.2L130.3,482c0.6,3.9,4,6.8,7.9,6.8h56.1c4.4,0,8-3.6,8-8V310.3h-89.6
	C111.3,310.3,109.9,310.6,108.6,311.3z"/>
<path class="st3" d="M206.6,207.7h-94.1c-4.4,0-8,3.6-8,8v102.6c0,4.4,3.6,8,8,8h102.1V215.7C214.6,211.3,211.1,207.7,206.6,207.7z"
	/>
<path class="st4" d="M104.6,258.4v59.9c0,4.4,3.6,8,8,8h102.1v-67.9H104.6z"/>
<path class="st5" d="M475.6,37.6c-2.6-1.4-5.7-1.3-8.2,0.3L202.3,209l-0.2,116l265.1,179.6c1.4,0.9,2.9,1.4,4.5,1.4
	c1.3,0,2.6-0.3,3.8-0.9c2.6-1.4,4.3-4.1,4.3-7.1V44.7C479.7,41.7,478.1,39,475.6,37.6z"/>
<path class="st6" d="M202.2,258.4l-0.1,66.5l265.1,179.6c1.4,0.9,2.9,1.4,4.5,1.4c1.3,0,2.6-0.3,3.8-0.9c2.6-1.4,4.3-4.1,4.3-7.1
	V258.4H202.2L202.2,258.4z"/>
<path class="st3" d="M505.9,11h-77c-4.4,0-8,3.6-8,8v496c0,4.4,3.6,8,8,8h77c4.4,0,8-3.6,8-8V19C513.9,14.6,510.3,11,505.9,11z"/>
<path class="st4" d="M420.9,258.4V515c0,4.4,3.6,8,8,8h77c4.4,0,8-3.6,8-8V258.4H420.9z"/>
<g>
	<path class="st7" d="M480.3,163.9c-4.4,0-8-3.6-8-8V53.2c0-4.4,3.6-8,8-8s8,3.6,8,8v102.6C488.3,160.3,484.7,163.9,480.3,163.9z"/>
	<path class="st7" d="M480.3,240.8c-4.4,0-8-3.6-8-8V190c0-4.4,3.6-8,8-8s8,3.6,8,8v42.8C488.3,237.2,484.7,240.8,480.3,240.8z"/>
</g>
<g>
	<path class="st8" d="M591.4,266.5h-34.2c-4.4,0-8-3.6-8-8c0-4.4,3.6-8,8-8h34.2c4.4,0,8,3.6,8,8
		C599.4,262.9,595.9,266.5,591.4,266.5z"/>
	<path class="st8" d="M537.8,193.8c-2.8,0-5.5-1.4-7-4c-2.2-3.8-0.9-8.7,2.9-11l29.6-17.1c3.8-2.2,8.7-0.9,11,2.9
		c2.2,3.8,0.9,8.7-2.9,11l-29.6,17.1C540.5,193.4,539.1,193.8,537.8,193.8z"/>
	<path class="st8" d="M567.4,356.3c-1.4,0-2.7-0.3-4-1.1l-29.6-17.1c-3.8-2.2-5.1-7.1-2.9-11c2.2-3.8,7.1-5.1,11-2.9l29.6,17.1
		c3.8,2.2,5.1,7.1,2.9,11C572.8,354.8,570.1,356.3,567.4,356.3z"/>
</g>
</svg>
