<?xml version="1.0" encoding="UTF-8" standalone="no"?>
<svg
   xmlns:dc="http://purl.org/dc/elements/1.1/"
   xmlns:cc="http://creativecommons.org/ns#"
   xmlns:rdf="http://www.w3.org/1999/02/22-rdf-syntax-ns#"
   xmlns:svg="http://www.w3.org/2000/svg"
   xmlns="http://www.w3.org/2000/svg"
   xmlns:sodipodi="http://sodipodi.sourceforge.net/DTD/sodipodi-0.dtd"
   xmlns:inkscape="http://www.inkscape.org/namespaces/inkscape"
   version="1.1"
   id="Layer_1"
   x="0px"
   y="0px"
   viewBox="96 11 512 512"
   style="enable-background:new 96 11 512 512;"
   xml:space="preserve"
   sodipodi:docname="announcement-formula.svg"
   inkscape:version="1.0.1 (3bc2e813f5, 2020-09-07)"
   inkscape:export-filename="E:\Superalgos\Projects\Superalgos\Icons\announcement-formula.png"
   inkscape:export-xdpi="100"
   inkscape:export-ydpi="100"><metadata
   id="metadata60"><rdf:RDF><cc:Work
       rdf:about=""><dc:format>image/svg+xml</dc:format><dc:type
         rdf:resource="http://purl.org/dc/dcmitype/StillImage" /><dc:title /></cc:Work></rdf:RDF></metadata><defs
   id="defs58" /><sodipodi:namedview
   pagecolor="#ffffff"
   bordercolor="#666666"
   borderopacity="1"
   objecttolerance="10"
   gridtolerance="10"
   guidetolerance="10"
   inkscape:pageopacity="0"
   inkscape:pageshadow="2"
   inkscape:window-width="1920"
   inkscape:window-height="1017"
   id="namedview56"
   showgrid="false"
   inkscape:zoom="0.41503906"
   inkscape:cx="-585.46721"
   inkscape:cy="513.54613"
   inkscape:window-x="-8"
   inkscape:window-y="-8"
   inkscape:window-maximized="1"
   inkscape:current-layer="g83"
   inkscape:document-rotation="0" />
<style
   type="text/css"
   id="style2">
	.st0{display:none;}
	.st1{display:inline;}
	.st2{fill:#E6EAEA;}
	.st3{fill:#CDD4D5;}
	.st4{fill:#9BAAAB;}
	.st5{fill:#4ACFD9;}
	.st6{fill:#0295AA;}
	.st7{fill:#FF8C29;}
	.st8{fill:#FFFFFF;}
	.st9{fill:#FD6A33;}
	.st10{fill:#F0353D;}
</style>
<rect
   style="fill:#9baaab;fill-opacity:1"
   id="rect1726"
   width="19.512657"
   height="36.811314"
   x="152.86136"
   y="419.60275" /><g
   id="Layer_3"
   class="st0">
	<rect
   x="714"
   y="-607.4"
   class="st1"
   width="512"
   height="512.8"
   id="rect4" />
</g>


<g
   id="g83"
   transform="matrix(0.62695312,0,0,0.62695312,32.124612,192.89649)"><path
     class="st0"
     d="m 232.3,361.6 h -42.8 c -4.4,0 -8,3.6 -8,8 v 42.8 c 0,4.4 3.6,8 8,8 h 42.8 c 4.4,0 8,-3.6 8,-8 v -42.8 c 0,-4.4 -3.6,-8 -8,-8 z"
     id="path4" /><path
     class="st1"
     d="m 232.3,361.6 h -8.6 v 58.8 h 8.6 c 4.4,0 8,-3.6 8,-8 v -42.8 c 0,-4.4 -3.6,-8 -8,-8 z"
     id="path6"
     style="fill:#687f82;fill-opacity:1" /><path
     class="st2"
     d="m 108.6,311.3 c -3,1.7 -4.5,5 -4,8.2 L 130.3,482 c 0.6,3.9 4,6.8 7.9,6.8 h 56.1 c 4.4,0 8,-3.6 8,-8 V 310.3 h -89.6 c -1.4,0 -2.8,0.3 -4.1,1 z"
     id="path8"
     style="fill:#cdd4d5;fill-opacity:1" /><path
     class="st3"
     d="m 206.6,207.7 h -94.1 c -4.4,0 -8,3.6 -8,8 v 102.6 c 0,4.4 3.6,8 8,8 H 214.6 V 215.7 c 0,-4.4 -3.5,-8 -8,-8 z"
     id="path10"
     style="fill:#9baaab;fill-opacity:1" /><path
     class="st4"
     d="m 104.6,258.4 v 59.9 c 0,4.4 3.6,8 8,8 h 102.1 v -67.9 z"
     id="path12-6"
     style="fill:#365558;fill-opacity:1" /><path
     class="st5"
     d="m 475.6,37.6 c -2.6,-1.4 -5.7,-1.3 -8.2,0.3 L 202.3,209 202.1,325 467.2,504.6 c 1.4,0.9 2.9,1.4 4.5,1.4 1.3,0 2.6,-0.3 3.8,-0.9 2.6,-1.4 4.3,-4.1 4.3,-7.1 V 44.7 c -0.1,-3 -1.7,-5.7 -4.2,-7.1 z"
     id="path14-5"
     style="fill:#4acfd9;fill-opacity:1" /><path
     class="st6"
     d="m 202.2,258.4 -0.1,66.5 265.1,179.6 c 1.4,0.9 2.9,1.4 4.5,1.4 1.3,0 2.6,-0.3 3.8,-0.9 2.6,-1.4 4.3,-4.1 4.3,-7.1 V 258.4 Z"
     id="path16-2"
     style="fill:#0295aa;fill-opacity:1" /><path
     class="st3"
     d="m 505.9,11 h -77 c -4.4,0 -8,3.6 -8,8 v 496 c 0,4.4 3.6,8 8,8 h 77 c 4.4,0 8,-3.6 8,-8 V 19 c 0,-4.4 -3.6,-8 -8,-8 z"
     id="path18-4"
     style="fill:#9baaab;fill-opacity:1" /><path
     class="st4"
     d="M 420.9,258.4 V 515 c 0,4.4 3.6,8 8,8 h 77 c 4.4,0 8,-3.6 8,-8 V 258.4 Z"
     id="path20"
     style="fill:#365558;fill-opacity:1" /><g
     id="g26"
     style="fill:#fffff8;fill-opacity:1"><path
       class="st7"
       d="m 480.3,163.9 c -4.4,0 -8,-3.6 -8,-8 V 53.2 c 0,-4.4 3.6,-8 8,-8 4.4,0 8,3.6 8,8 v 102.6 c 0,4.5 -3.6,8.1 -8,8.1 z"
       id="path22-7"
       style="fill:#fffff8;fill-opacity:1" /><path
       class="st7"
       d="m 480.3,240.8 c -4.4,0 -8,-3.6 -8,-8 V 190 c 0,-4.4 3.6,-8 8,-8 4.4,0 8,3.6 8,8 v 42.8 c 0,4.4 -3.6,8 -8,8 z"
       id="path24-8"
       style="fill:#fffff8;fill-opacity:1" /></g><g
     id="g34"
     style="fill:#f0353d;fill-opacity:1"><path
       class="st8"
       d="m 591.4,266.5 h -34.2 c -4.4,0 -8,-3.6 -8,-8 0,-4.4 3.6,-8 8,-8 h 34.2 c 4.4,0 8,3.6 8,8 0,4.4 -3.5,8 -8,8 z"
       id="path28-3"
       style="fill:#f0353d;fill-opacity:1" /><path
       class="st8"
       d="m 537.8,193.8 c -2.8,0 -5.5,-1.4 -7,-4 -2.2,-3.8 -0.9,-8.7 2.9,-11 l 29.6,-17.1 c 3.8,-2.2 8.7,-0.9 11,2.9 2.2,3.8 0.9,8.7 -2.9,11 l -29.6,17.1 c -1.3,0.7 -2.7,1.1 -4,1.1 z"
       id="path30"
       style="fill:#f0353d;fill-opacity:1" /><path
       class="st8"
       d="m 567.4,356.3 c -1.4,0 -2.7,-0.3 -4,-1.1 l -29.6,-17.1 c -3.8,-2.2 -5.1,-7.1 -2.9,-11 2.2,-3.8 7.1,-5.1 11,-2.9 l 29.6,17.1 c 3.8,2.2 5.1,7.1 2.9,11 -1.6,2.5 -4.3,4 -7,4 z"
       id="path32"
       style="fill:#f0353d;fill-opacity:1" /></g><path
     class="st0"
     d="m 409.83283,524.78262 h -68.26667 c -7.01806,0 -12.76012,5.74206 -12.76012,12.76013 v 68.26666 c 0,7.01807 5.74206,12.76013 12.76012,12.76013 h 68.26667 c 7.01807,0 12.76013,-5.74206 12.76013,-12.76013 v -68.26666 c 0,-7.01807 -5.74206,-12.76013 -12.76013,-12.76013 z"
     id="path4-1"
     style="fill:#9baaab;stroke-width:1.59502"
     sodipodi:nodetypes="sssssssss" /></g><g
   id="g53">
	<path
   class="st3"
   d="M 556.3,117.3 501.7,62.7 c -2.8,-2.8 -7.4,-2.8 -10.2,0 L 305.6,248.5 c -0.4,0.4 -0.7,0.8 -1,1.2 l -60.1,92.9 c -1.9,2.9 -1.5,6.6 1,9.1 l 21.9,21.9 c 1.4,1.4 3.3,2.1 5.1,2.1 1.4,0 2.7,-0.4 3.9,-1.2 L 335.71503,336.1272 369.3,314.4 c 0.4,-0.3 0.8,-0.6 1.2,-1 L 556.3,127.6 c 2.8,-2.9 2.8,-7.5 0,-10.3 z"
   id="path37"
   sodipodi:nodetypes="ssccccssscccscs" />
	<path
   class="st7"
   d="M594.6,24.4c-17.9-17.9-47-17.9-64.9,0l-43.7,43.7c-2.8,2.8-2.8,7.4,0,10.2l54.6,54.6c1.4,1.4,3.3,2.1,5.1,2.1   s3.7-0.7,5.1-2.1l43.7-43.7c8.7-8.7,13.4-20.2,13.4-32.4C608,44.6,603.2,33.1,594.6,24.4z"
   id="path39" />
	<path
   class="st8"
   d="M534.8,69.6c-1.9,0-3.7-0.7-5.1-2.1c-2.8-2.8-2.8-7.4,0-10.2l16.4-16.4c2.8-2.8,7.4-2.8,10.2,0   c2.8,2.8,2.8,7.4,0,10.2l-16.4,16.4C538.5,68.9,536.6,69.6,534.8,69.6z"
   id="path41" />
	<path
   class="st9"
   d="M589.1,139.2L479.8,29.9c-2.8-2.8-7.4-2.8-10.2,0l-27.3,27.3c-2.8,2.8-2.8,7.4,0,10.2l109.3,109.3   c1.4,1.4,3.3,2.1,5.1,2.1c1.9,0,3.7-0.7,5.1-2.1l27.3-27.3c1.4-1.4,2.1-3.2,2.1-5.1C591.2,142.4,590.5,140.5,589.1,139.2z"
   id="path43" />
	<path
   class="st10"
   d="M534.7,84.7l-37.6,37.6l54.4,54.4c1.4,1.4,3.3,2.1,5.1,2.1c1.9,0,3.7-0.7,5.1-2.1l27.3-27.3   c1.4-1.4,2.1-3.2,2.1-5.1c0-1.9-0.8-3.8-2.1-5.1L534.7,84.7z"
   id="path45" />
	<g
   id="g51">
		<path
   class="st8"
   d="M338.1,266.3c-1.9,0-3.7-0.7-5.1-2.1c-2.8-2.8-2.8-7.4,0-10.2l21.9-21.9c2.8-2.8,7.4-2.8,10.2,0    c2.8,2.8,2.8,7.4,0,10.2l-21.9,21.9C341.8,265.6,339.9,266.3,338.1,266.3z"
   id="path47" />
		<path
   class="st8"
   d="M381.8,222.6c-1.9,0-3.7-0.7-5.1-2.1c-2.8-2.8-2.8-7.4,0-10.2l76.5-76.5c2.8-2.8,7.4-2.8,10.2,0    c2.8,2.8,2.8,7.4,0,10.2l-76.5,76.5C385.5,221.9,383.6,222.6,381.8,222.6z"
   id="path49" />
	</g>
</g><path
   class="st0"
   d="m 271,492.99765 h -42.8 c -4.4,0 -8,3.6 -8,8 v 42.8 c 0,4.4 3.6,8 8,8 H 271 c 4.4,0 8,-3.6 8,-8 v -42.8 c 0,-4.4 -3.6,-8 -8,-8 z"
   id="path4-8"
   style="fill:#9baaab" /><path
   class="st0"
   d="m 433.03294,464.68706 h -42.8 c -4.4,0 -8,3.6 -8,8 v 42.8 c 0,4.4 3.6,8 8,8 h 42.8 c 4.4,0 8,-3.6 8,-8 v -42.8 c 0,-4.4 -3.6,-8 -8,-8 z"
   id="path4-89"
   style="fill:#9baaab" /></svg>
