<svg width="512" height="512" viewBox="0 0 512 512" fill="none" xmlns="http://www.w3.org/2000/svg">
<rect x="16" y="193.636" width="78.5463" height="84.9282" fill="#CDD4D5"/>
<ellipse cx="55.2732" cy="277.828" rx="39.2732" ry="20.8639" fill="#CDD4D5"/>
<rect x="16" y="193.636" width="39.2732" height="84.9282" fill="#9BAAAB"/>
<path fill-rule="evenodd" clip-rule="evenodd" d="M55.2732 256.964V298.692C33.5832 298.692 16 289.351 16 277.828C16 266.305 33.5832 256.964 55.2732 256.964Z" fill="#9BAAAB"/>
<ellipse cx="55.2751" cy="194.864" rx="39.2732" ry="20.8639" fill="#4ACFD9"/>
<path fill-rule="evenodd" clip-rule="evenodd" d="M94.3747 217.2C92.5119 227.802 75.7167 236.101 55.2732 236.101C34.8296 236.101 18.0344 227.802 16.1716 217.2C16.0581 217.847 16 218.502 16 219.164C16 230.687 33.5832 240.028 55.2732 240.028C76.9631 240.028 94.5463 230.687 94.5463 219.164C94.5463 218.502 94.4883 217.847 94.3747 217.2Z" fill="#E6EAEA"/>
<path fill-rule="evenodd" clip-rule="evenodd" d="M94.3747 213.273C92.5119 223.875 75.7167 232.174 55.2732 232.174C34.8296 232.174 18.0344 223.875 16.1716 213.273C16.0581 213.92 16 214.575 16 215.237C16 226.76 33.5832 236.101 55.2732 236.101C76.9631 236.101 94.5463 226.76 94.5463 215.237C94.5463 214.575 94.4883 213.92 94.3747 213.273Z" fill="#0295AA"/>
<path fill-rule="evenodd" clip-rule="evenodd" d="M94.3747 249.11C92.5119 259.712 75.7167 268.011 55.2732 268.011C34.8296 268.011 18.0344 259.712 16.1716 249.11C16.0581 249.757 16 250.412 16 251.074C16 262.597 33.5832 271.938 55.2732 271.938C76.9631 271.938 94.5463 262.597 94.5463 251.074C94.5463 250.412 94.4883 249.757 94.3747 249.11Z" fill="#E6EAEA"/>
<path fill-rule="evenodd" clip-rule="evenodd" d="M55.2732 174V215.728C33.5832 215.728 16 206.387 16 194.864C16 183.341 33.5832 174 55.2732 174Z" fill="#365558"/>
<path fill-rule="evenodd" clip-rule="evenodd" d="M55.2715 240.028C33.5815 240.028 15.9983 230.687 15.9983 219.164C15.9983 218.502 16.0564 217.847 16.17 217.2C18.0328 227.802 34.828 236.101 55.2715 236.101V240.028Z" fill="#CDD4D5"/>
<path fill-rule="evenodd" clip-rule="evenodd" d="M94.5505 250.998C94.5507 251.024 94.5508 251.05 94.5508 251.076C94.5508 251.102 94.5507 251.128 94.5505 251.154V250.998ZM55.2774 271.94C33.5875 271.94 16.0045 262.599 16.0045 251.076C16.0045 250.414 16.0625 249.759 16.1761 249.112C18.0389 259.714 34.8339 268.013 55.2774 268.013V271.94Z" fill="#CDD4D5"/>
<path fill-rule="evenodd" clip-rule="evenodd" d="M55.2715 236.102C55.2712 236.102 55.271 236.102 55.2707 236.102C33.5807 236.102 15.9975 226.761 15.9975 215.238C15.9975 214.576 16.0556 213.921 16.1692 213.274C18.032 223.876 34.8272 232.175 55.2707 232.175C55.271 232.175 55.2712 232.175 55.2715 232.175V236.102Z" fill="#365558"/>
<path fill-rule="evenodd" clip-rule="evenodd" d="M94.8669 245.674C93.0041 256.276 76.2089 264.574 55.7653 264.574C35.3218 264.574 18.5266 256.276 16.6638 245.674C16.5503 246.32 16.4922 246.975 16.4922 247.637C16.4922 259.16 34.0754 268.501 55.7653 268.501C77.4553 268.501 95.0385 259.16 95.0385 247.637C95.0385 246.975 94.9804 246.32 94.8669 245.674Z" fill="#0295AA"/>
<path fill-rule="evenodd" clip-rule="evenodd" d="M55.2715 268.504C33.5815 268.504 15.9983 259.163 15.9983 247.64C15.9983 246.978 16.0564 246.323 16.17 245.677C18.0328 256.279 34.828 264.577 55.2715 264.577V268.504Z" fill="#365558"/>
<rect x="148.963" y="193.636" width="78.5463" height="84.9282" fill="#CDD4D5"/>
<ellipse cx="188.236" cy="277.828" rx="39.2732" ry="20.8639" fill="#CDD4D5"/>
<rect x="148.963" y="193.636" width="39.2732" height="84.9282" fill="#9BAAAB"/>
<path fill-rule="evenodd" clip-rule="evenodd" d="M188.233 256.964V298.692C166.544 298.691 148.961 289.35 148.961 277.828C148.961 266.305 166.544 256.964 188.233 256.964Z" fill="#9BAAAB"/>
<ellipse cx="188.238" cy="194.864" rx="39.2732" ry="20.8639" fill="#4ACFD9"/>
<path fill-rule="evenodd" clip-rule="evenodd" d="M227.336 217.2C225.473 227.802 208.678 236.101 188.234 236.101C167.791 236.101 150.995 227.802 149.133 217.2C149.019 217.847 148.961 218.502 148.961 219.164C148.961 230.687 166.544 240.028 188.234 240.028C209.924 240.028 227.507 230.687 227.507 219.164C227.507 218.502 227.449 217.847 227.336 217.2Z" fill="#E6EAEA"/>
<path fill-rule="evenodd" clip-rule="evenodd" d="M227.336 213.273C225.473 223.875 208.678 232.174 188.234 232.174C167.791 232.174 150.995 223.875 149.133 213.273C149.019 213.92 148.961 214.575 148.961 215.237C148.961 226.76 166.544 236.101 188.234 236.101C209.924 236.101 227.507 226.76 227.507 215.237C227.507 214.575 227.449 213.92 227.336 213.273Z" fill="#0295AA"/>
<path fill-rule="evenodd" clip-rule="evenodd" d="M227.336 249.11C225.473 259.712 208.678 268.011 188.234 268.011C167.791 268.011 150.995 259.712 149.133 249.11C149.019 249.757 148.961 250.412 148.961 251.074C148.961 262.597 166.544 271.938 188.234 271.938C209.924 271.938 227.507 262.597 227.507 251.074C227.507 250.412 227.449 249.757 227.336 249.11Z" fill="#E6EAEA"/>
<path fill-rule="evenodd" clip-rule="evenodd" d="M188.233 174V215.728C166.544 215.727 148.961 206.387 148.961 194.864C148.961 183.341 166.544 174 188.233 174Z" fill="#365558"/>
<path fill-rule="evenodd" clip-rule="evenodd" d="M227.508 219.087C227.508 219.113 227.508 219.138 227.508 219.164C227.508 219.189 227.508 219.215 227.508 219.24V219.087ZM188.234 240.028C166.545 240.028 148.961 230.686 148.961 219.164C148.961 218.502 149.02 217.847 149.133 217.2C150.996 227.802 167.791 236.1 188.234 236.101V240.028Z" fill="#CDD4D5"/>
<path fill-rule="evenodd" clip-rule="evenodd" d="M188.238 271.94C188.238 271.94 188.238 271.94 188.238 271.94C166.548 271.94 148.964 262.599 148.964 251.076C148.964 250.414 149.023 249.759 149.136 249.112C150.999 259.714 167.794 268.013 188.238 268.013C188.238 268.013 188.238 268.013 188.238 268.013V271.94Z" fill="#CDD4D5"/>
<path fill-rule="evenodd" clip-rule="evenodd" d="M227.51 215.162C227.51 215.187 227.51 215.213 227.51 215.238C227.51 215.263 227.51 215.289 227.51 215.314V215.162ZM188.236 236.102C166.547 236.102 148.963 226.761 148.963 215.238C148.963 214.576 149.022 213.921 149.135 213.274C150.998 223.876 167.793 232.175 188.236 232.175V236.102Z" fill="#365558"/>
<path fill-rule="evenodd" clip-rule="evenodd" d="M227.83 245.674C225.967 256.276 209.172 264.574 188.728 264.574C168.285 264.574 151.49 256.276 149.627 245.674C149.513 246.32 149.455 246.975 149.455 247.637C149.455 259.16 167.038 268.501 188.728 268.501C210.418 268.501 228.001 259.16 228.001 247.637C228.001 246.975 227.943 246.32 227.83 245.674Z" fill="#0295AA"/>
<path fill-rule="evenodd" clip-rule="evenodd" d="M227.508 247.564C227.508 247.589 227.508 247.615 227.508 247.64C227.508 247.666 227.508 247.691 227.508 247.717V247.564ZM188.234 268.504C166.545 268.504 148.961 259.163 148.961 247.64C148.961 246.978 149.02 246.323 149.133 245.677C150.996 256.279 167.791 264.577 188.234 264.577V268.504Z" fill="#365558"/>
<path fill-rule="evenodd" clip-rule="evenodd" d="M69.3784 220C61.4374 220 55 226.431 55 234.364V284.636C55 292.569 61.4374 299 69.3784 299H173.622C181.563 299 188 292.569 188 284.636V234.364C188 226.431 181.563 220 173.622 220H69.3784ZM140.372 281.943H102.628V290.92H140.372V281.943Z" fill="#365558"/>
<path fill-rule="evenodd" clip-rule="evenodd" d="M121.924 219.805H174.031C181.969 219.805 188.405 226.24 188.405 234.179V284.489C188.405 292.428 181.969 298.863 174.031 298.863H121.924V290.778H140.79V281.794H121.924V219.805Z" fill="#0295AA"/>
<circle cx="88" cy="256" r="17" fill="#F0353D"/>
<circle cx="156" cy="256" r="17" fill="#F0353D"/>
<rect x="282.002" y="193.636" width="78.5463" height="84.9282" fill="#CDD4D5"/>
<ellipse cx="321.275" cy="277.828" rx="39.2732" ry="20.8639" fill="#CDD4D5"/>
<rect x="282.002" y="193.636" width="39.2732" height="84.9282" fill="#9BAAAB"/>
<path fill-rule="evenodd" clip-rule="evenodd" d="M321.275 256.964V298.692C299.585 298.692 282.002 289.351 282.002 277.828C282.002 266.305 299.585 256.964 321.275 256.964Z" fill="#9BAAAB"/>
<ellipse cx="321.277" cy="194.864" rx="39.2732" ry="20.8639" fill="#4ACFD9"/>
<path fill-rule="evenodd" clip-rule="evenodd" d="M360.377 217.2C358.514 227.802 341.719 236.101 321.275 236.101C300.832 236.101 284.036 227.802 282.174 217.2C282.06 217.847 282.002 218.502 282.002 219.164C282.002 230.687 299.585 240.028 321.275 240.028C342.965 240.028 360.548 230.687 360.548 219.164C360.548 218.502 360.49 217.847 360.377 217.2Z" fill="#E6EAEA"/>
<path fill-rule="evenodd" clip-rule="evenodd" d="M360.377 213.273C358.514 223.875 341.719 232.174 321.275 232.174C300.832 232.174 284.036 223.875 282.174 213.273C282.06 213.92 282.002 214.575 282.002 215.237C282.002 226.76 299.585 236.101 321.275 236.101C342.965 236.101 360.548 226.76 360.548 215.237C360.548 214.575 360.49 213.92 360.377 213.273Z" fill="#0295AA"/>
<path fill-rule="evenodd" clip-rule="evenodd" d="M360.377 249.11C358.514 259.712 341.719 268.011 321.275 268.011C300.832 268.011 284.036 259.712 282.174 249.11C282.06 249.757 282.002 250.412 282.002 251.074C282.002 262.597 299.585 271.938 321.275 271.938C342.965 271.938 360.548 262.597 360.548 251.074C360.548 250.412 360.49 249.757 360.377 249.11Z" fill="#E6EAEA"/>
<path fill-rule="evenodd" clip-rule="evenodd" d="M321.275 174V215.728C299.585 215.728 282.002 206.387 282.002 194.864C282.002 183.341 299.585 174 321.275 174Z" fill="#365558"/>
<path fill-rule="evenodd" clip-rule="evenodd" d="M321.273 240.028C299.583 240.028 282 230.687 282 219.164C282 218.502 282.058 217.847 282.172 217.2C284.035 227.802 300.83 236.101 321.273 236.101V240.028Z" fill="#CDD4D5"/>
<path fill-rule="evenodd" clip-rule="evenodd" d="M360.552 250.998C360.553 251.024 360.553 251.05 360.553 251.076C360.553 251.102 360.553 251.128 360.552 251.154V250.998ZM321.279 271.94C299.589 271.94 282.006 262.599 282.006 251.076C282.006 250.414 282.064 249.759 282.178 249.112C284.041 259.714 300.836 268.013 321.279 268.013V271.94Z" fill="#CDD4D5"/>
<path fill-rule="evenodd" clip-rule="evenodd" d="M321.273 236.102C321.273 236.102 321.273 236.102 321.273 236.102C299.583 236.102 281.999 226.761 281.999 215.238C281.999 214.576 282.058 213.921 282.171 213.274C284.034 223.876 300.829 232.175 321.273 232.175C321.273 232.175 321.273 232.175 321.273 232.175V236.102Z" fill="#365558"/>
<path fill-rule="evenodd" clip-rule="evenodd" d="M360.869 245.674C359.006 256.276 342.211 264.574 321.767 264.574C301.324 264.574 284.529 256.276 282.666 245.674C282.552 246.32 282.494 246.975 282.494 247.637C282.494 259.16 300.077 268.501 321.767 268.501C343.457 268.501 361.04 259.16 361.04 247.637C361.04 246.975 360.982 246.32 360.869 245.674Z" fill="#0295AA"/>
<path fill-rule="evenodd" clip-rule="evenodd" d="M321.273 268.504C299.583 268.504 282 259.163 282 247.64C282 246.978 282.058 246.323 282.172 245.677C284.035 256.279 300.83 264.577 321.273 264.577V268.504Z" fill="#365558"/>
<rect x="414.965" y="193.636" width="78.5463" height="84.9282" fill="#CDD4D5"/>
<ellipse cx="454.238" cy="277.828" rx="39.2732" ry="20.8639" fill="#CDD4D5"/>
<rect x="414.965" y="193.636" width="39.2732" height="84.9282" fill="#9BAAAB"/>
<path fill-rule="evenodd" clip-rule="evenodd" d="M454.235 256.964V298.692C432.546 298.691 414.963 289.35 414.963 277.828C414.963 266.305 432.546 256.964 454.235 256.964Z" fill="#9BAAAB"/>
<ellipse cx="454.24" cy="194.864" rx="39.2732" ry="20.8639" fill="#4ACFD9"/>
<path fill-rule="evenodd" clip-rule="evenodd" d="M493.338 217.2C491.475 227.802 474.68 236.101 454.236 236.101C433.793 236.101 416.997 227.802 415.135 217.2C415.021 217.847 414.963 218.502 414.963 219.164C414.963 230.687 432.546 240.028 454.236 240.028C475.926 240.028 493.509 230.687 493.509 219.164C493.509 218.502 493.451 217.847 493.338 217.2Z" fill="#E6EAEA"/>
<path fill-rule="evenodd" clip-rule="evenodd" d="M493.338 213.273C491.475 223.875 474.68 232.174 454.236 232.174C433.793 232.174 416.997 223.875 415.135 213.273C415.021 213.92 414.963 214.575 414.963 215.237C414.963 226.76 432.546 236.101 454.236 236.101C475.926 236.101 493.509 226.76 493.509 215.237C493.509 214.575 493.451 213.92 493.338 213.273Z" fill="#0295AA"/>
<path fill-rule="evenodd" clip-rule="evenodd" d="M493.338 249.11C491.475 259.712 474.68 268.011 454.236 268.011C433.793 268.011 416.997 259.712 415.135 249.11C415.021 249.757 414.963 250.412 414.963 251.074C414.963 262.597 432.546 271.938 454.236 271.938C475.926 271.938 493.509 262.597 493.509 251.074C493.509 250.412 493.451 249.757 493.338 249.11Z" fill="#E6EAEA"/>
<path fill-rule="evenodd" clip-rule="evenodd" d="M454.235 174V215.728C432.546 215.727 414.963 206.387 414.963 194.864C414.963 183.341 432.546 174 454.235 174Z" fill="#365558"/>
<path fill-rule="evenodd" clip-rule="evenodd" d="M493.51 219.087C493.51 219.113 493.51 219.138 493.51 219.164C493.51 219.189 493.51 219.215 493.51 219.24V219.087ZM454.236 240.028C432.547 240.028 414.963 230.686 414.963 219.164C414.963 218.502 415.022 217.847 415.135 217.2C416.998 227.802 433.793 236.1 454.236 236.101V240.028Z" fill="#CDD4D5"/>
<path fill-rule="evenodd" clip-rule="evenodd" d="M454.24 271.94C454.24 271.94 454.24 271.94 454.24 271.94C432.55 271.94 414.966 262.599 414.966 251.076C414.966 250.414 415.025 249.759 415.138 249.112C417.001 259.714 433.796 268.013 454.24 268.013C454.24 268.013 454.24 268.013 454.24 268.013V271.94Z" fill="#CDD4D5"/>
<path fill-rule="evenodd" clip-rule="evenodd" d="M493.511 215.162C493.512 215.187 493.512 215.213 493.512 215.238C493.512 215.263 493.512 215.289 493.511 215.314V215.162ZM454.238 236.102C432.548 236.102 414.965 226.761 414.965 215.238C414.965 214.576 415.023 213.921 415.137 213.274C417 223.876 433.795 232.175 454.238 232.175V236.102Z" fill="#365558"/>
<path fill-rule="evenodd" clip-rule="evenodd" d="M493.832 245.674C491.969 256.276 475.174 264.574 454.73 264.574C434.287 264.574 417.491 256.276 415.629 245.674C415.515 246.32 415.457 246.975 415.457 247.637C415.457 259.16 433.04 268.501 454.73 268.501C476.42 268.501 494.003 259.16 494.003 247.637C494.003 246.975 493.945 246.32 493.832 245.674Z" fill="#0295AA"/>
<path fill-rule="evenodd" clip-rule="evenodd" d="M493.51 247.564C493.51 247.589 493.51 247.615 493.51 247.64C493.51 247.666 493.51 247.691 493.51 247.717V247.564ZM454.236 268.504C432.547 268.504 414.963 259.163 414.963 247.64C414.963 246.978 415.022 246.323 415.135 245.677C416.998 256.279 433.793 264.577 454.236 264.577V268.504Z" fill="#365558"/>
<path fill-rule="evenodd" clip-rule="evenodd" d="M335.38 220C327.439 220 321.002 226.431 321.002 234.364V284.636C321.002 292.569 327.439 299 335.38 299H439.624C447.565 299 454.002 292.569 454.002 284.636V234.364C454.002 226.431 447.565 220 439.624 220H335.38ZM406.374 281.943H368.63V290.92H406.374V281.943Z" fill="#365558"/>
<path fill-rule="evenodd" clip-rule="evenodd" d="M387.926 219.805H440.033C447.971 219.805 454.407 226.24 454.407 234.179V284.489C454.407 292.428 447.971 298.863 440.033 298.863H387.926V290.778H406.792V281.794H387.926V219.805Z" fill="#0295AA"/>
<circle cx="354.002" cy="256" r="17" fill="#F0353D"/>
<circle cx="422.002" cy="256" r="17" fill="#F0353D"/>
<rect x="16" y="35.6357" width="78.5463" height="84.9282" fill="#CDD4D5"/>
<ellipse cx="55.2732" cy="119.828" rx="39.2732" ry="20.8639" fill="#CDD4D5"/>
<rect x="16" y="35.6357" width="39.2732" height="84.9282" fill="#9BAAAB"/>
<path fill-rule="evenodd" clip-rule="evenodd" d="M55.2732 98.9639V140.692C33.5832 140.692 16 131.351 16 119.828C16 108.305 33.5832 98.9639 55.2732 98.9639Z" fill="#9BAAAB"/>
<ellipse cx="55.2751" cy="36.8639" rx="39.2732" ry="20.8639" fill="#4ACFD9"/>
<path fill-rule="evenodd" clip-rule="evenodd" d="M94.3747 59.2002C92.5119 69.8022 75.7167 78.1005 55.2732 78.1005C34.8296 78.1005 18.0344 69.8022 16.1716 59.2002C16.0581 59.8466 16 60.5016 16 61.1637C16 72.6865 33.5832 82.0276 55.2732 82.0276C76.9631 82.0276 94.5463 72.6865 94.5463 61.1637C94.5463 60.5016 94.4883 59.8466 94.3747 59.2002Z" fill="#E6EAEA"/>
<path fill-rule="evenodd" clip-rule="evenodd" d="M94.3747 55.2734C92.5119 65.8754 75.7167 74.1738 55.2732 74.1738C34.8296 74.1738 18.0344 65.8754 16.1716 55.2734C16.0581 55.9198 16 56.5748 16 57.237C16 68.7598 33.5832 78.1008 55.2732 78.1008C76.9631 78.1008 94.5463 68.7598 94.5463 57.237C94.5463 56.5748 94.4883 55.9198 94.3747 55.2734Z" fill="#0295AA"/>
<path fill-rule="evenodd" clip-rule="evenodd" d="M94.3747 91.1104C92.5119 101.712 75.7167 110.011 55.2732 110.011C34.8296 110.011 18.0344 101.712 16.1716 91.1104C16.0581 91.7568 16 92.4117 16 93.0739C16 104.597 33.5832 113.938 55.2732 113.938C76.9631 113.938 94.5463 104.597 94.5463 93.0739C94.5463 92.4117 94.4883 91.7568 94.3747 91.1104Z" fill="#E6EAEA"/>
<path fill-rule="evenodd" clip-rule="evenodd" d="M55.2732 16V57.7277C33.5832 57.7277 16 48.3867 16 36.8639C16 25.3411 33.5832 16 55.2732 16Z" fill="#365558"/>
<path fill-rule="evenodd" clip-rule="evenodd" d="M55.2715 82.0276C33.5815 82.0276 15.9983 72.6865 15.9983 61.1637C15.9983 60.5016 16.0564 59.8466 16.17 59.2002C18.0327 69.8022 34.8279 78.1005 55.2715 78.1005V82.0276Z" fill="#CDD4D5"/>
<path fill-rule="evenodd" clip-rule="evenodd" d="M94.5505 92.9975C94.5507 93.0236 94.5508 93.0497 94.5508 93.0758C94.5508 93.1019 94.5507 93.128 94.5505 93.1541V92.9975ZM55.2774 113.94C33.5875 113.94 16.0045 104.599 16.0045 93.0758C16.0045 92.4137 16.0625 91.7587 16.1761 91.1123C18.0389 101.714 34.8339 110.013 55.2774 110.013V113.94Z" fill="#CDD4D5"/>
<path fill-rule="evenodd" clip-rule="evenodd" d="M55.2715 78.1018C55.2712 78.1018 55.271 78.1018 55.2707 78.1018C33.5807 78.1018 15.9975 68.7607 15.9975 57.2379C15.9975 56.5758 16.0556 55.9208 16.1692 55.2744C18.032 65.8764 34.8272 74.1748 55.2707 74.1748C55.271 74.1748 55.2712 74.1748 55.2715 74.1748V78.1018Z" fill="#365558"/>
<path fill-rule="evenodd" clip-rule="evenodd" d="M94.8669 87.6738C93.0041 98.2758 76.2089 106.574 55.7653 106.574C35.3218 106.574 18.5266 98.2758 16.6638 87.6738C16.5503 88.3202 16.4922 88.9752 16.4922 89.6374C16.4922 101.16 34.0754 110.501 55.7653 110.501C77.4553 110.501 95.0385 101.16 95.0385 89.6374C95.0385 88.9752 94.9804 88.3202 94.8669 87.6738Z" fill="#0295AA"/>
<path fill-rule="evenodd" clip-rule="evenodd" d="M55.2715 110.504C33.5815 110.504 15.9983 101.163 15.9983 89.6403C15.9983 88.9781 16.0564 88.3232 16.17 87.6768C18.0327 98.2788 34.8279 106.577 55.2715 106.577V110.504Z" fill="#365558"/>
<rect x="148.963" y="35.6357" width="78.5463" height="84.9282" fill="#CDD4D5"/>
<ellipse cx="188.236" cy="119.828" rx="39.2732" ry="20.8639" fill="#CDD4D5"/>
<rect x="148.963" y="35.6357" width="39.2732" height="84.9282" fill="#9BAAAB"/>
<path fill-rule="evenodd" clip-rule="evenodd" d="M188.233 98.9639V140.692C166.544 140.691 148.961 131.35 148.961 119.828C148.961 108.305 166.544 98.9641 188.233 98.9639Z" fill="#9BAAAB"/>
<ellipse cx="188.238" cy="36.8639" rx="39.2732" ry="20.8639" fill="#4ACFD9"/>
<path fill-rule="evenodd" clip-rule="evenodd" d="M227.336 59.2002C225.473 69.8022 208.678 78.1005 188.234 78.1005C167.791 78.1005 150.995 69.8022 149.133 59.2002C149.019 59.8466 148.961 60.5016 148.961 61.1637C148.961 72.6865 166.544 82.0276 188.234 82.0276C209.924 82.0276 227.507 72.6865 227.507 61.1637C227.507 60.5016 227.449 59.8466 227.336 59.2002Z" fill="#E6EAEA"/>
<path fill-rule="evenodd" clip-rule="evenodd" d="M227.336 55.2734C225.473 65.8754 208.678 74.1738 188.234 74.1738C167.791 74.1738 150.995 65.8754 149.133 55.2734C149.019 55.9198 148.961 56.5748 148.961 57.237C148.961 68.7598 166.544 78.1008 188.234 78.1008C209.924 78.1008 227.507 68.7598 227.507 57.237C227.507 56.5748 227.449 55.9198 227.336 55.2734Z" fill="#0295AA"/>
<path fill-rule="evenodd" clip-rule="evenodd" d="M227.336 91.1104C225.473 101.712 208.678 110.011 188.234 110.011C167.791 110.011 150.995 101.712 149.133 91.1104C149.019 91.7568 148.961 92.4117 148.961 93.0739C148.961 104.597 166.544 113.938 188.234 113.938C209.924 113.938 227.507 104.597 227.507 93.0739C227.507 92.4117 227.449 91.7568 227.336 91.1104Z" fill="#E6EAEA"/>
<path fill-rule="evenodd" clip-rule="evenodd" d="M188.233 16V57.7277C166.544 57.7275 148.961 48.3865 148.961 36.8639C148.961 25.3412 166.544 16.0003 188.233 16Z" fill="#365558"/>
<path fill-rule="evenodd" clip-rule="evenodd" d="M227.508 61.0874C227.508 61.1128 227.508 61.1383 227.508 61.1637C227.508 61.1892 227.508 61.2146 227.508 61.24V61.0874ZM188.234 82.0276C166.545 82.0275 148.962 72.6865 148.962 61.1637C148.962 60.5016 149.02 59.8466 149.133 59.2002C150.996 69.8022 167.791 78.1005 188.234 78.1005V82.0276Z" fill="#CDD4D5"/>
<path fill-rule="evenodd" clip-rule="evenodd" d="M188.238 113.94C188.238 113.94 188.238 113.94 188.238 113.94C166.548 113.94 148.964 104.599 148.964 93.0758C148.964 92.4137 149.023 91.7587 149.136 91.1123C150.999 101.714 167.794 110.013 188.238 110.013C188.238 110.013 188.238 110.013 188.238 110.013V113.94Z" fill="#CDD4D5"/>
<path fill-rule="evenodd" clip-rule="evenodd" d="M227.51 57.1619C227.51 57.1872 227.51 57.2126 227.51 57.2379C227.51 57.2633 227.51 57.2887 227.51 57.314V57.1619ZM188.236 78.1018C166.547 78.1017 148.963 68.7607 148.963 57.2379C148.963 56.5758 149.022 55.9208 149.135 55.2744C150.998 65.8764 167.793 74.1747 188.236 74.1748V78.1018Z" fill="#365558"/>
<path fill-rule="evenodd" clip-rule="evenodd" d="M227.83 87.6738C225.967 98.2758 209.172 106.574 188.728 106.574C168.285 106.574 151.49 98.2758 149.627 87.6738C149.513 88.3202 149.455 88.9752 149.455 89.6374C149.455 101.16 167.038 110.501 188.728 110.501C210.418 110.501 228.001 101.16 228.001 89.6374C228.001 88.9752 227.943 88.3202 227.83 87.6738Z" fill="#0295AA"/>
<path fill-rule="evenodd" clip-rule="evenodd" d="M227.508 89.564C227.508 89.5894 227.508 89.6148 227.508 89.6403C227.508 89.6657 227.508 89.6912 227.508 89.7166V89.564ZM188.234 110.504C166.545 110.504 148.962 101.163 148.962 89.6403C148.962 88.9781 149.02 88.3232 149.133 87.6768C150.996 98.2787 167.791 106.577 188.234 106.577V110.504Z" fill="#365558"/>
<path d="M418.214 495.077C462.222 488.792 496 451.016 496 405.35C496 359.355 461.766 321.365 417.303 315.484C410.517 271.171 367.066 237 314.5 237C261.934 237 218.483 271.171 211.697 315.484C167.234 321.365 133 359.355 133 405.35C133 451.016 166.778 488.792 210.786 495.077V496H418.214V495.077Z" fill="#365558"/>
<path fill-rule="evenodd" clip-rule="evenodd" d="M315 496H418.214V495.077C462.222 488.791 496 451.016 496 405.35C496 359.355 461.766 321.365 417.303 315.484C410.538 271.311 367.341 237.217 315 237.001V496Z" fill="#0295AA"/>
<path d="M265.938 439.906H228.953L221.922 461H199.492L237.602 358.625H257.148L295.469 461H273.039L265.938 439.906ZM234.648 422.82H260.242L247.375 384.5L234.648 422.82ZM326.125 424.93V461H305.031V358.625H344.969C352.656 358.625 359.406 360.031 365.219 362.844C371.078 365.656 375.578 369.664 378.719 374.867C381.859 380.023 383.43 385.906 383.43 392.516C383.43 402.547 379.984 410.469 373.094 416.281C366.25 422.047 356.758 424.93 344.617 424.93H326.125ZM326.125 407.844H344.969C350.547 407.844 354.789 406.531 357.695 403.906C360.648 401.281 362.125 397.531 362.125 392.656C362.125 387.641 360.648 383.586 357.695 380.492C354.742 377.398 350.664 375.805 345.461 375.711H326.125V407.844ZM420.414 461H399.32V358.625H420.414V461Z" fill="#E6EAEA"/>
<path fill-rule="evenodd" clip-rule="evenodd" d="M69.3784 62C61.4374 62 55 68.4308 55 76.3636V126.636C55 134.569 61.4374 141 69.3784 141H173.622C181.563 141 188 134.569 188 126.636V76.3636C188 68.4308 181.563 62 173.622 62H69.3784ZM140.372 123.943H102.628V132.92H140.372V123.943Z" fill="#365558"/>
<path fill-rule="evenodd" clip-rule="evenodd" d="M121.924 61.8048H174.031C181.969 61.8048 188.405 68.2404 188.405 76.1791V126.489C188.405 134.428 181.969 140.863 174.031 140.863H121.924V132.778H140.79V123.794H121.924V61.8048Z" fill="#0295AA"/>
<circle cx="88" cy="98" r="17" fill="#F0353D"/>
<circle cx="156" cy="98" r="17" fill="#F0353D"/>
<rect x="282.002" y="35.6357" width="78.5463" height="84.9282" fill="#CDD4D5"/>
<ellipse cx="321.275" cy="119.828" rx="39.2732" ry="20.8639" fill="#CDD4D5"/>
<rect x="282.002" y="35.6357" width="39.2732" height="84.9282" fill="#9BAAAB"/>
<path fill-rule="evenodd" clip-rule="evenodd" d="M321.275 98.9639V140.692C299.585 140.692 282.002 131.351 282.002 119.828C282.002 108.305 299.585 98.9639 321.275 98.9639Z" fill="#9BAAAB"/>
<ellipse cx="321.277" cy="36.8639" rx="39.2732" ry="20.8639" fill="#4ACFD9"/>
<path fill-rule="evenodd" clip-rule="evenodd" d="M360.377 59.2002C358.514 69.8022 341.719 78.1005 321.275 78.1005C300.832 78.1005 284.036 69.8022 282.174 59.2002C282.06 59.8466 282.002 60.5016 282.002 61.1637C282.002 72.6865 299.585 82.0276 321.275 82.0276C342.965 82.0276 360.548 72.6865 360.548 61.1637C360.548 60.5016 360.49 59.8466 360.377 59.2002Z" fill="#E6EAEA"/>
<path fill-rule="evenodd" clip-rule="evenodd" d="M360.377 55.2734C358.514 65.8754 341.719 74.1738 321.275 74.1738C300.832 74.1738 284.036 65.8754 282.174 55.2734C282.06 55.9198 282.002 56.5748 282.002 57.237C282.002 68.7598 299.585 78.1008 321.275 78.1008C342.965 78.1008 360.548 68.7598 360.548 57.237C360.548 56.5748 360.49 55.9198 360.377 55.2734Z" fill="#0295AA"/>
<path fill-rule="evenodd" clip-rule="evenodd" d="M360.377 91.1104C358.514 101.712 341.719 110.011 321.275 110.011C300.832 110.011 284.036 101.712 282.174 91.1104C282.06 91.7568 282.002 92.4117 282.002 93.0739C282.002 104.597 299.585 113.938 321.275 113.938C342.965 113.938 360.548 104.597 360.548 93.0739C360.548 92.4117 360.49 91.7568 360.377 91.1104Z" fill="#E6EAEA"/>
<path fill-rule="evenodd" clip-rule="evenodd" d="M321.275 16V57.7277C299.585 57.7277 282.002 48.3867 282.002 36.8639C282.002 25.3411 299.585 16 321.275 16Z" fill="#365558"/>
<path fill-rule="evenodd" clip-rule="evenodd" d="M321.273 82.0276C299.583 82.0276 282 72.6865 282 61.1637C282 60.5015 282.058 59.8466 282.172 59.2002C284.035 69.8022 300.83 78.1005 321.273 78.1005V82.0276Z" fill="#CDD4D5"/>
<path fill-rule="evenodd" clip-rule="evenodd" d="M360.552 92.9975C360.553 93.0236 360.553 93.0497 360.553 93.0758C360.553 93.1019 360.553 93.128 360.552 93.1541V92.9975ZM321.279 113.94C299.589 113.94 282.006 104.599 282.006 93.0758C282.006 92.4137 282.064 91.7587 282.178 91.1123C284.041 101.714 300.836 110.013 321.279 110.013V113.94Z" fill="#CDD4D5"/>
<path fill-rule="evenodd" clip-rule="evenodd" d="M321.273 78.1018C321.273 78.1018 321.273 78.1018 321.273 78.1018C299.583 78.1018 281.999 68.7607 281.999 57.2379C281.999 56.5758 282.058 55.9208 282.171 55.2744C284.034 65.8764 300.829 74.1747 321.273 74.1747C321.273 74.1747 321.273 74.1747 321.273 74.1747V78.1018Z" fill="#365558"/>
<path fill-rule="evenodd" clip-rule="evenodd" d="M360.869 87.6738C359.006 98.2758 342.211 106.574 321.767 106.574C301.324 106.574 284.529 98.2758 282.666 87.6738C282.552 88.3202 282.494 88.9752 282.494 89.6374C282.494 101.16 300.077 110.501 321.767 110.501C343.457 110.501 361.04 101.16 361.04 89.6374C361.04 88.9752 360.982 88.3202 360.869 87.6738Z" fill="#0295AA"/>
<path fill-rule="evenodd" clip-rule="evenodd" d="M321.273 110.504C299.583 110.504 282 101.163 282 89.6403C282 88.9781 282.058 88.3232 282.172 87.6768C284.035 98.2788 300.83 106.577 321.273 106.577V110.504Z" fill="#365558"/>
<rect x="414.965" y="35.6357" width="78.5463" height="84.9282" fill="#CDD4D5"/>
<ellipse cx="454.238" cy="119.828" rx="39.2732" ry="20.8639" fill="#CDD4D5"/>
<rect x="414.965" y="35.6357" width="39.2732" height="84.9282" fill="#9BAAAB"/>
<path fill-rule="evenodd" clip-rule="evenodd" d="M454.235 98.9639V140.692C432.546 140.691 414.963 131.35 414.963 119.828C414.963 108.305 432.546 98.9641 454.235 98.9639Z" fill="#9BAAAB"/>
<ellipse cx="454.24" cy="36.8639" rx="39.2732" ry="20.8639" fill="#4ACFD9"/>
<path fill-rule="evenodd" clip-rule="evenodd" d="M493.338 59.2002C491.475 69.8022 474.68 78.1005 454.236 78.1005C433.793 78.1005 416.997 69.8022 415.135 59.2002C415.021 59.8466 414.963 60.5016 414.963 61.1637C414.963 72.6865 432.546 82.0276 454.236 82.0276C475.926 82.0276 493.509 72.6865 493.509 61.1637C493.509 60.5016 493.451 59.8466 493.338 59.2002Z" fill="#E6EAEA"/>
<path fill-rule="evenodd" clip-rule="evenodd" d="M493.338 55.2734C491.475 65.8754 474.68 74.1738 454.236 74.1738C433.793 74.1738 416.997 65.8754 415.135 55.2734C415.021 55.9198 414.963 56.5748 414.963 57.237C414.963 68.7598 432.546 78.1008 454.236 78.1008C475.926 78.1008 493.509 68.7598 493.509 57.237C493.509 56.5748 493.451 55.9198 493.338 55.2734Z" fill="#0295AA"/>
<path fill-rule="evenodd" clip-rule="evenodd" d="M493.338 91.1104C491.475 101.712 474.68 110.011 454.236 110.011C433.793 110.011 416.997 101.712 415.135 91.1104C415.021 91.7568 414.963 92.4117 414.963 93.0739C414.963 104.597 432.546 113.938 454.236 113.938C475.926 113.938 493.509 104.597 493.509 93.0739C493.509 92.4117 493.451 91.7568 493.338 91.1104Z" fill="#E6EAEA"/>
<path fill-rule="evenodd" clip-rule="evenodd" d="M454.235 16V57.7277C432.546 57.7275 414.963 48.3865 414.963 36.8639C414.963 25.3412 432.546 16.0003 454.235 16Z" fill="#365558"/>
<path fill-rule="evenodd" clip-rule="evenodd" d="M493.51 61.0874C493.51 61.1128 493.51 61.1383 493.51 61.1637C493.51 61.1892 493.51 61.2146 493.51 61.24V61.0874ZM454.236 82.0276C432.547 82.0275 414.963 72.6865 414.963 61.1637C414.963 60.5015 415.022 59.8466 415.135 59.2002C416.998 69.8022 433.793 78.1005 454.236 78.1005V82.0276Z" fill="#CDD4D5"/>
<path fill-rule="evenodd" clip-rule="evenodd" d="M454.24 113.94C454.24 113.94 454.24 113.94 454.24 113.94C432.55 113.94 414.966 104.599 414.966 93.0758C414.966 92.4137 415.025 91.7587 415.138 91.1123C417.001 101.714 433.796 110.013 454.24 110.013C454.24 110.013 454.24 110.013 454.24 110.013V113.94Z" fill="#CDD4D5"/>
<path fill-rule="evenodd" clip-rule="evenodd" d="M493.511 57.1619C493.512 57.1872 493.512 57.2126 493.512 57.2379C493.512 57.2633 493.512 57.2887 493.511 57.314V57.1619ZM454.238 78.1018C432.548 78.1017 414.965 68.7607 414.965 57.2379C414.965 56.5758 415.023 55.9208 415.137 55.2744C417 65.8764 433.795 74.1747 454.238 74.1747V78.1018Z" fill="#365558"/>
<path fill-rule="evenodd" clip-rule="evenodd" d="M493.832 87.6738C491.969 98.2758 475.174 106.574 454.73 106.574C434.287 106.574 417.491 98.2758 415.629 87.6738C415.515 88.3202 415.457 88.9752 415.457 89.6374C415.457 101.16 433.04 110.501 454.73 110.501C476.42 110.501 494.003 101.16 494.003 89.6374C494.003 88.9752 493.945 88.3202 493.832 87.6738Z" fill="#0295AA"/>
<path fill-rule="evenodd" clip-rule="evenodd" d="M493.51 89.564C493.51 89.5894 493.51 89.6148 493.51 89.6403C493.51 89.6657 493.51 89.6912 493.51 89.7166V89.564ZM454.236 110.504C432.547 110.504 414.963 101.163 414.963 89.6403C414.963 88.9781 415.022 88.3232 415.135 87.6768C416.998 98.2787 433.793 106.577 454.236 106.577V110.504Z" fill="#365558"/>
<path fill-rule="evenodd" clip-rule="evenodd" d="M335.38 62C327.439 62 321.002 68.4308 321.002 76.3636V126.636C321.002 134.569 327.439 141 335.38 141H439.624C447.565 141 454.002 134.569 454.002 126.636V76.3636C454.002 68.4308 447.565 62 439.624 62H335.38ZM406.374 123.943H368.63V132.92H406.374V123.943Z" fill="#365558"/>
<path fill-rule="evenodd" clip-rule="evenodd" d="M387.926 61.8048H440.033C447.971 61.8048 454.407 68.2404 454.407 76.1791V126.489C454.407 134.428 447.971 140.863 440.033 140.863H387.926V132.778H406.792V123.794H387.926V61.8048Z" fill="#0295AA"/>
<circle cx="354.002" cy="98" r="17" fill="#F0353D"/>
<circle cx="422.002" cy="98" r="17" fill="#F0353D"/>
</svg>
