<svg width="512" height="512" viewBox="0 0 512 512" fill="none" xmlns="http://www.w3.org/2000/svg">
<rect x="16.002" y="46.8643" width="123.465" height="133.497" fill="#CDD4D5"/>
<ellipse cx="77.7346" cy="179.205" rx="61.7326" ry="32.7954" fill="#CDD4D5"/>
<rect x="16.002" y="46.8643" width="61.7326" height="133.497" fill="#9BAAAB"/>
<path fill-rule="evenodd" clip-rule="evenodd" d="M77.7326 146.409V212C43.6386 212 16 197.317 16 179.205C16 161.092 43.6386 146.409 77.7326 146.409Z" fill="#9BAAAB"/>
<ellipse cx="77.7365" cy="48.7954" rx="61.7326" ry="32.7954" fill="#4ACFD9"/>
<path fill-rule="evenodd" clip-rule="evenodd" d="M139.195 83.9053C136.267 100.57 109.867 113.614 77.7326 113.614C45.5978 113.614 19.1978 100.57 16.2698 83.9053C16.0913 84.9213 16 85.9508 16 86.9916C16 105.104 43.6386 119.787 77.7326 119.787C111.827 119.787 139.465 105.104 139.465 86.9916C139.465 85.9508 139.374 84.9213 139.195 83.9053Z" fill="#E6EAEA"/>
<path fill-rule="evenodd" clip-rule="evenodd" d="M139.195 77.7334C136.267 94.3985 109.867 107.442 77.7326 107.442C45.5978 107.442 19.1978 94.3985 16.2698 77.7334C16.0913 78.7494 16 79.7789 16 80.8198C16 98.9322 43.6386 113.615 77.7326 113.615C111.827 113.615 139.465 98.9322 139.465 80.8198C139.465 79.7789 139.374 78.7494 139.195 77.7334Z" fill="#0295AA"/>
<path fill-rule="evenodd" clip-rule="evenodd" d="M139.195 134.064C136.267 150.73 109.867 163.774 77.7326 163.774C45.5978 163.774 19.1978 150.73 16.2698 134.064C16.0913 135.08 16 136.11 16 137.151C16 155.263 43.6386 169.946 77.7326 169.946C111.827 169.946 139.465 155.263 139.465 137.151C139.465 136.11 139.374 135.08 139.195 134.064Z" fill="#E6EAEA"/>
<path fill-rule="evenodd" clip-rule="evenodd" d="M77.7326 16V81.5909C43.6386 81.5909 16 66.9079 16 48.7954C16 30.683 43.6386 16 77.7326 16Z" fill="#365558"/>
<path fill-rule="evenodd" clip-rule="evenodd" d="M139.465 86.9365C139.465 86.9545 139.465 86.9726 139.465 86.9906C139.465 87.0087 139.465 87.0268 139.465 87.0448V86.9365ZM77.7322 119.786C43.6382 119.786 15.9996 105.103 15.9996 86.9906C15.9996 85.9498 16.0909 84.9203 16.2694 83.9043C19.1974 100.569 45.5974 113.613 77.7322 113.613V119.786Z" fill="#CDD4D5"/>
<path fill-rule="evenodd" clip-rule="evenodd" d="M139.472 136.999C139.472 137.05 139.473 137.101 139.473 137.153C139.473 137.204 139.472 137.255 139.472 137.306V136.999ZM77.7394 169.948C43.6457 169.948 16.0074 155.265 16.0074 137.153C16.0074 136.112 16.0987 135.082 16.2772 134.066C19.2052 150.731 45.6049 163.775 77.7394 163.775V169.948Z" fill="#CDD4D5"/>
<path fill-rule="evenodd" clip-rule="evenodd" d="M139.465 80.767C139.465 80.7853 139.465 80.8035 139.465 80.8217C139.465 80.8399 139.465 80.8581 139.465 80.8764V80.767ZM77.7322 113.617C43.6382 113.617 15.9996 98.9341 15.9996 80.8217C15.9996 79.7809 16.0909 78.7514 16.2694 77.7354C19.1974 94.4004 45.5974 107.444 77.7322 107.444V113.617Z" fill="#365558"/>
<path fill-rule="evenodd" clip-rule="evenodd" d="M139.969 128.662C137.041 145.327 110.641 158.371 78.506 158.371C46.3713 158.371 19.9712 145.327 17.0432 128.662C16.8647 129.678 16.7734 130.708 16.7734 131.748C16.7734 149.861 44.4121 164.544 78.506 164.544C112.6 164.544 140.239 149.861 140.239 131.748C140.239 130.708 140.147 129.678 139.969 128.662Z" fill="#0295AA"/>
<path fill-rule="evenodd" clip-rule="evenodd" d="M139.465 131.698C139.465 131.716 139.465 131.734 139.465 131.752C139.465 131.77 139.465 131.789 139.465 131.807V131.698ZM77.7322 164.548C43.6382 164.548 15.9996 149.865 15.9996 131.752C15.9996 130.712 16.0909 129.682 16.2694 128.666C19.1974 145.331 45.5974 158.375 77.7322 158.375V164.548Z" fill="#365558"/>
<rect x="225.002" y="46.8643" width="123.465" height="133.497" fill="#CDD4D5"/>
<ellipse cx="286.735" cy="179.205" rx="61.7326" ry="32.7954" fill="#CDD4D5"/>
<rect x="225.002" y="46.8643" width="61.7326" height="133.497" fill="#9BAAAB"/>
<path fill-rule="evenodd" clip-rule="evenodd" d="M286.733 146.409V212C252.639 212 225 197.317 225 179.205C225 161.092 252.639 146.409 286.733 146.409Z" fill="#9BAAAB"/>
<ellipse cx="286.737" cy="48.7954" rx="61.7326" ry="32.7954" fill="#4ACFD9"/>
<path fill-rule="evenodd" clip-rule="evenodd" d="M348.195 83.9053C345.267 100.57 318.867 113.614 286.733 113.614C254.598 113.614 228.198 100.57 225.27 83.9053C225.091 84.9213 225 85.9508 225 86.9916C225 105.104 252.639 119.787 286.733 119.787C320.827 119.787 348.465 105.104 348.465 86.9916C348.465 85.9508 348.374 84.9213 348.195 83.9053Z" fill="#E6EAEA"/>
<path fill-rule="evenodd" clip-rule="evenodd" d="M348.195 77.7334C345.267 94.3985 318.867 107.442 286.733 107.442C254.598 107.442 228.198 94.3985 225.27 77.7334C225.091 78.7494 225 79.7789 225 80.8198C225 98.9322 252.639 113.615 286.733 113.615C320.827 113.615 348.465 98.9322 348.465 80.8198C348.465 79.7789 348.374 78.7494 348.195 77.7334Z" fill="#0295AA"/>
<path fill-rule="evenodd" clip-rule="evenodd" d="M348.195 134.064C345.267 150.73 318.867 163.774 286.733 163.774C254.598 163.774 228.198 150.73 225.27 134.064C225.091 135.08 225 136.11 225 137.151C225 155.263 252.639 169.946 286.733 169.946C320.827 169.946 348.465 155.263 348.465 137.151C348.465 136.11 348.374 135.08 348.195 134.064Z" fill="#E6EAEA"/>
<path fill-rule="evenodd" clip-rule="evenodd" d="M286.733 16V81.5909C252.639 81.5909 225 66.9079 225 48.7954C225 30.683 252.639 16 286.733 16Z" fill="#365558"/>
<path fill-rule="evenodd" clip-rule="evenodd" d="M348.465 86.9365C348.465 86.9545 348.465 86.9726 348.465 86.9906C348.465 87.0087 348.465 87.0268 348.465 87.0448V86.9365ZM286.732 119.786C252.638 119.786 225 105.103 225 86.9906C225 85.9498 225.091 84.9203 225.269 83.9043C228.197 100.569 254.597 113.613 286.732 113.613V119.786Z" fill="#CDD4D5"/>
<path fill-rule="evenodd" clip-rule="evenodd" d="M348.472 136.999C348.472 137.05 348.473 137.101 348.473 137.153C348.473 137.204 348.472 137.255 348.472 137.306V136.999ZM286.739 169.948C252.646 169.948 225.007 155.265 225.007 137.153C225.007 136.112 225.099 135.082 225.277 134.066C228.205 150.731 254.605 163.775 286.739 163.775V169.948Z" fill="#CDD4D5"/>
<path fill-rule="evenodd" clip-rule="evenodd" d="M348.465 80.767C348.465 80.7853 348.465 80.8035 348.465 80.8217C348.465 80.8399 348.465 80.8581 348.465 80.8764V80.767ZM286.732 113.617C252.638 113.617 225 98.9341 225 80.8217C225 79.7809 225.091 78.7514 225.269 77.7354C228.197 94.4004 254.597 107.444 286.732 107.444V113.617Z" fill="#365558"/>
<path fill-rule="evenodd" clip-rule="evenodd" d="M348.969 128.662C346.041 145.327 319.641 158.371 287.506 158.371C255.371 158.371 228.971 145.327 226.043 128.662C225.865 129.678 225.773 130.708 225.773 131.748C225.773 149.861 253.412 164.544 287.506 164.544C321.6 164.544 349.239 149.861 349.239 131.748C349.239 130.708 349.147 129.678 348.969 128.662Z" fill="#0295AA"/>
<path fill-rule="evenodd" clip-rule="evenodd" d="M348.465 131.698C348.465 131.716 348.465 131.734 348.465 131.752C348.465 131.77 348.465 131.789 348.465 131.807V131.698ZM286.732 164.548C252.638 164.548 225 149.865 225 131.752C225 130.712 225.091 129.682 225.269 128.666C228.197 145.331 254.597 158.375 286.732 158.375V164.548Z" fill="#365558"/>
<path d="M418.214 495.077C462.222 488.792 496 451.016 496 405.35C496 359.355 461.766 321.365 417.303 315.484C410.517 271.171 367.066 237 314.5 237C261.934 237 218.483 271.171 211.697 315.484C167.234 321.365 133 359.355 133 405.35C133 451.016 166.778 488.792 210.786 495.077V496H418.214V495.077Z" fill="#365558"/>
<path fill-rule="evenodd" clip-rule="evenodd" d="M315 496H418.214V495.077C462.222 488.791 496 451.016 496 405.35C496 359.355 461.766 321.365 417.303 315.484C410.538 271.311 367.341 237.217 315 237.001V496Z" fill="#0295AA"/>
<path d="M265.938 439.906H228.953L221.922 461H199.492L237.602 358.625H257.148L295.469 461H273.039L265.938 439.906ZM234.648 422.82H260.242L247.375 384.5L234.648 422.82ZM326.125 424.93V461H305.031V358.625H344.969C352.656 358.625 359.406 360.031 365.219 362.844C371.078 365.656 375.578 369.664 378.719 374.867C381.859 380.023 383.43 385.906 383.43 392.516C383.43 402.547 379.984 410.469 373.094 416.281C366.25 422.047 356.758 424.93 344.617 424.93H326.125ZM326.125 407.844H344.969C350.547 407.844 354.789 406.531 357.695 403.906C360.648 401.281 362.125 397.531 362.125 392.656C362.125 387.641 360.648 383.586 357.695 380.492C354.742 377.398 350.664 375.805 345.461 375.711H326.125V407.844ZM420.414 461H399.32V358.625H420.414V461Z" fill="#E6EAEA"/>
<path fill-rule="evenodd" clip-rule="evenodd" d="M100.595 88.2705C88.116 88.2705 78 98.3645 78 110.816V189.725C78 202.177 88.1159 212.271 100.595 212.271H264.405C276.884 212.271 287 202.177 287 189.725V110.816C287 98.3645 276.884 88.2705 264.405 88.2705H100.595ZM212.155 185.498H152.845V199.589H212.155V185.498Z" fill="#365558"/>
<path fill-rule="evenodd" clip-rule="evenodd" d="M182.5 88.0002H264.406C276.884 88.0002 287 98.1162 287 110.595V189.676C287 202.155 276.884 212.271 264.406 212.271H182.5V199.561H212.156V185.439H182.5V88.0002Z" fill="#0295AA"/>
<circle cx="129.5" cy="144.771" r="26.5" fill="#F0353D"/>
<circle cx="235.5" cy="144.771" r="26.5" fill="#F0353D"/>
</svg>
