<svg width="512" height="512" viewBox="0 0 512 512" fill="none" xmlns="http://www.w3.org/2000/svg">
<path d="M86 151V364C86 376.703 96.2975 387 109 387H164" stroke="#FF8C29" stroke-width="20"/>
<path d="M200 147V336.5" stroke="#FF8C29" stroke-width="20"/>
<path d="M312 147V278" stroke="#FF8C29" stroke-width="20"/>
<path d="M426 141.5V338" stroke="#FF8C29" stroke-width="20"/>
<path d="M418.214 495.077C462.222 488.792 496 451.016 496 405.35C496 359.355 461.766 321.365 417.303 315.484C410.517 271.171 367.066 237 314.5 237C261.934 237 218.483 271.171 211.697 315.484C167.234 321.365 133 359.355 133 405.35C133 451.016 166.778 488.792 210.786 495.077V496H418.214V495.077Z" fill="#365558"/>
<path fill-rule="evenodd" clip-rule="evenodd" d="M315 496H418.214V495.077C462.222 488.791 496 451.016 496 405.35C496 359.355 461.766 321.365 417.303 315.484C410.538 271.311 367.341 237.217 315 237.001V496Z" fill="#0295AA"/>
<path d="M265.938 439.906H228.953L221.922 461H199.492L237.602 358.625H257.148L295.469 461H273.039L265.938 439.906ZM234.648 422.82H260.242L247.375 384.5L234.648 422.82ZM326.125 424.93V461H305.031V358.625H344.969C352.656 358.625 359.406 360.031 365.219 362.844C371.078 365.656 375.578 369.664 378.719 374.867C381.859 380.023 383.43 385.906 383.43 392.516C383.43 402.547 379.984 410.469 373.094 416.281C366.25 422.047 356.758 424.93 344.617 424.93H326.125ZM326.125 407.844H344.969C350.547 407.844 354.789 406.531 357.695 403.906C360.648 401.281 362.125 397.531 362.125 392.656C362.125 387.641 360.648 383.586 357.695 380.492C354.742 377.398 350.664 375.805 345.461 375.711H326.125V407.844ZM420.414 461H399.32V358.625H420.414V461Z" fill="#E6EAEA"/>
<rect x="40.002" y="45.5049" width="90.0229" height="97.3373" fill="#CDD4D5"/>
<ellipse cx="85.0134" cy="141.998" rx="45.0115" ry="23.9123" fill="#CDD4D5"/>
<rect x="40.002" y="45.5049" width="45.0115" height="97.3373" fill="#9BAAAB"/>
<path fill-rule="evenodd" clip-rule="evenodd" d="M40 142.051V141.946C40.0534 128.763 60.1852 118.086 85.0113 118.086C85.0114 118.086 85.0114 118.086 85.0115 118.086V165.911C85.0114 165.911 85.0114 165.911 85.0113 165.911C60.1852 165.911 40.0534 155.233 40 142.051Z" fill="#9BAAAB"/>
<ellipse cx="85.0154" cy="46.9123" rx="45.0115" ry="23.9123" fill="#4ACFD9"/>
<path fill-rule="evenodd" clip-rule="evenodd" d="M129.826 72.5127C127.691 84.6638 108.442 94.1746 85.0115 94.1746C61.5808 94.1746 42.3316 84.6638 40.1967 72.5127C40.0665 73.2535 40 74.0042 40 74.7631C40 87.9695 60.1523 98.6754 85.0115 98.6754C109.871 98.6754 130.023 87.9695 130.023 74.7631C130.023 74.0042 129.956 73.2535 129.826 72.5127Z" fill="#E6EAEA"/>
<path fill-rule="evenodd" clip-rule="evenodd" d="M129.826 68.0127C127.691 80.1638 108.442 89.6746 85.0115 89.6746C61.5808 89.6746 42.3316 80.1638 40.1967 68.0127C40.0665 68.7535 40 69.5042 40 70.2631C40 83.4695 60.1523 94.1754 85.0115 94.1754C109.871 94.1754 130.023 83.4695 130.023 70.2631C130.023 69.5042 129.956 68.7535 129.826 68.0127Z" fill="#0295AA"/>
<path fill-rule="evenodd" clip-rule="evenodd" d="M129.826 109.086C127.691 121.237 108.442 130.748 85.0115 130.748C61.5808 130.748 42.3316 121.237 40.1967 109.086C40.0665 109.827 40 110.577 40 111.336C40 124.543 60.1523 135.249 85.0115 135.249C109.871 135.249 130.023 124.543 130.023 111.336C130.023 110.577 129.956 109.827 129.826 109.086Z" fill="#E6EAEA"/>
<path fill-rule="evenodd" clip-rule="evenodd" d="M85.0115 23V70.8247C60.1523 70.8247 40 60.1187 40 46.9123C40 33.7059 60.1523 23 85.0115 23Z" fill="#365558"/>
<path fill-rule="evenodd" clip-rule="evenodd" d="M85.0117 98.6744C85.0115 98.6744 85.0113 98.6744 85.0111 98.6744C60.152 98.6744 39.9997 87.9685 39.9997 74.7621C39.9997 74.0032 40.0662 73.2526 40.1964 72.5117C42.3313 84.6628 61.5805 94.1737 85.0111 94.1737C85.0113 94.1737 85.0115 94.1737 85.0117 94.1737V98.6744Z" fill="#CDD4D5"/>
<path fill-rule="evenodd" clip-rule="evenodd" d="M130.027 111.212C130.027 111.254 130.027 111.296 130.027 111.337C130.027 111.379 130.027 111.421 130.027 111.462V111.212ZM85.0153 135.25C60.1564 135.249 40.0044 124.544 40.0044 111.337C40.0044 110.578 40.071 109.828 40.2011 109.087C42.3361 121.238 61.5849 130.749 85.0153 130.749V135.25Z" fill="#CDD4D5"/>
<path fill-rule="evenodd" clip-rule="evenodd" d="M85.0117 94.1754C85.0115 94.1754 85.0113 94.1754 85.0111 94.1754C60.152 94.1754 39.9997 83.4695 39.9997 70.2631C39.9997 69.5042 40.0662 68.7535 40.1964 68.0127C42.3313 80.1638 61.5805 89.6746 85.0111 89.6746C85.0113 89.6746 85.0115 89.6746 85.0117 89.6746V94.1754Z" fill="#365558"/>
<path fill-rule="evenodd" clip-rule="evenodd" d="M130.391 105.146C128.256 117.298 109.007 126.808 85.5759 126.808C62.1453 126.808 42.8961 117.298 40.7612 105.146C40.631 105.887 40.5645 106.638 40.5645 107.397C40.5645 120.603 60.7168 131.309 85.5759 131.309C110.435 131.309 130.587 120.603 130.587 107.397C130.587 106.638 130.521 105.887 130.391 105.146Z" fill="#0295AA"/>
<path fill-rule="evenodd" clip-rule="evenodd" d="M85.0117 131.312C85.0115 131.312 85.0113 131.312 85.0111 131.312C60.152 131.312 39.9997 120.606 39.9997 107.4C39.9997 106.641 40.0662 105.89 40.1964 105.149C42.3313 117.301 61.5805 126.811 85.0111 126.811C85.0113 126.811 85.0115 126.811 85.0117 126.811V131.312Z" fill="#365558"/>
<rect x="154.002" y="45.5049" width="90.0229" height="97.3373" fill="#CDD4D5"/>
<ellipse cx="199.013" cy="141.998" rx="45.0115" ry="23.9123" fill="#CDD4D5"/>
<rect x="154.002" y="45.5049" width="45.0115" height="97.3373" fill="#9BAAAB"/>
<path fill-rule="evenodd" clip-rule="evenodd" d="M154 142.051V141.946C154.053 128.763 174.185 118.086 199.011 118.086C199.011 118.086 199.011 118.086 199.011 118.086V165.911C199.011 165.911 199.011 165.911 199.011 165.911C174.185 165.911 154.053 155.233 154 142.051Z" fill="#9BAAAB"/>
<ellipse cx="199.015" cy="46.9123" rx="45.0115" ry="23.9123" fill="#4ACFD9"/>
<path fill-rule="evenodd" clip-rule="evenodd" d="M243.826 72.5127C241.691 84.6638 222.442 94.1746 199.011 94.1746C175.581 94.1746 156.332 84.6638 154.197 72.5127C154.067 73.2535 154 74.0042 154 74.7631C154 87.9695 174.152 98.6754 199.011 98.6754C223.871 98.6754 244.023 87.9695 244.023 74.7631C244.023 74.0042 243.956 73.2535 243.826 72.5127Z" fill="#E6EAEA"/>
<path fill-rule="evenodd" clip-rule="evenodd" d="M243.826 68.0127C241.691 80.1638 222.442 89.6746 199.011 89.6746C175.581 89.6746 156.332 80.1638 154.197 68.0127C154.067 68.7535 154 69.5042 154 70.2631C154 83.4695 174.152 94.1754 199.011 94.1754C223.871 94.1754 244.023 83.4695 244.023 70.2631C244.023 69.5042 243.956 68.7535 243.826 68.0127Z" fill="#0295AA"/>
<path fill-rule="evenodd" clip-rule="evenodd" d="M243.826 109.086C241.691 121.237 222.442 130.748 199.011 130.748C175.581 130.748 156.332 121.237 154.197 109.086C154.067 109.827 154 110.577 154 111.336C154 124.543 174.152 135.249 199.011 135.249C223.871 135.249 244.023 124.543 244.023 111.336C244.023 110.577 243.956 109.827 243.826 109.086Z" fill="#E6EAEA"/>
<path fill-rule="evenodd" clip-rule="evenodd" d="M199.011 23V70.8247C174.152 70.8247 154 60.1187 154 46.9123C154 33.7059 174.152 23 199.011 23Z" fill="#365558"/>
<path fill-rule="evenodd" clip-rule="evenodd" d="M199.012 98.6744C199.012 98.6744 199.011 98.6744 199.011 98.6744C174.152 98.6744 154 87.9685 154 74.7621C154 74.0032 154.066 73.2526 154.196 72.5117C156.331 84.6628 175.581 94.1737 199.011 94.1737C199.011 94.1737 199.012 94.1737 199.012 94.1737V98.6744Z" fill="#CDD4D5"/>
<path fill-rule="evenodd" clip-rule="evenodd" d="M244.027 111.212C244.027 111.254 244.027 111.296 244.027 111.337C244.027 111.379 244.027 111.421 244.027 111.462V111.212ZM199.015 135.25C174.156 135.249 154.004 124.544 154.004 111.337C154.004 110.578 154.071 109.828 154.201 109.087C156.336 121.238 175.585 130.749 199.015 130.749V135.25Z" fill="#CDD4D5"/>
<path fill-rule="evenodd" clip-rule="evenodd" d="M199.012 94.1754C199.012 94.1754 199.011 94.1754 199.011 94.1754C174.152 94.1754 154 83.4695 154 70.2631C154 69.5042 154.066 68.7535 154.196 68.0127C156.331 80.1638 175.581 89.6746 199.011 89.6746C199.011 89.6746 199.012 89.6746 199.012 89.6746V94.1754Z" fill="#365558"/>
<path fill-rule="evenodd" clip-rule="evenodd" d="M244.391 105.146C242.256 117.298 223.007 126.808 199.576 126.808C176.145 126.808 156.896 117.298 154.761 105.146C154.631 105.887 154.564 106.638 154.564 107.397C154.564 120.603 174.717 131.309 199.576 131.309C224.435 131.309 244.587 120.603 244.587 107.397C244.587 106.638 244.521 105.887 244.391 105.146Z" fill="#0295AA"/>
<path fill-rule="evenodd" clip-rule="evenodd" d="M199.012 131.312C199.012 131.312 199.011 131.312 199.011 131.312C174.152 131.312 154 120.606 154 107.4C154 106.641 154.066 105.89 154.196 105.149C156.331 117.301 175.581 126.811 199.011 126.811C199.011 126.811 199.012 126.811 199.012 126.811V131.312Z" fill="#365558"/>
<rect x="268.002" y="45.5049" width="90.0229" height="97.3373" fill="#CDD4D5"/>
<ellipse cx="313.013" cy="141.998" rx="45.0115" ry="23.9123" fill="#CDD4D5"/>
<rect x="268.002" y="45.5049" width="45.0115" height="97.3373" fill="#9BAAAB"/>
<path fill-rule="evenodd" clip-rule="evenodd" d="M268 142.051V141.946C268.053 128.763 288.185 118.086 313.011 118.086C313.011 118.086 313.011 118.086 313.011 118.086V165.911C313.011 165.911 313.011 165.911 313.011 165.911C288.185 165.911 268.053 155.233 268 142.051Z" fill="#9BAAAB"/>
<ellipse cx="313.015" cy="46.9123" rx="45.0115" ry="23.9123" fill="#4ACFD9"/>
<path fill-rule="evenodd" clip-rule="evenodd" d="M357.826 72.5127C355.691 84.6638 336.442 94.1746 313.011 94.1746C289.581 94.1746 270.332 84.6638 268.197 72.5127C268.067 73.2535 268 74.0042 268 74.7631C268 87.9695 288.152 98.6754 313.011 98.6754C337.871 98.6754 358.023 87.9695 358.023 74.7631C358.023 74.0042 357.956 73.2535 357.826 72.5127Z" fill="#E6EAEA"/>
<path fill-rule="evenodd" clip-rule="evenodd" d="M357.826 68.0127C355.691 80.1638 336.442 89.6746 313.011 89.6746C289.581 89.6746 270.332 80.1638 268.197 68.0127C268.067 68.7535 268 69.5042 268 70.2631C268 83.4695 288.152 94.1754 313.011 94.1754C337.871 94.1754 358.023 83.4695 358.023 70.2631C358.023 69.5042 357.956 68.7535 357.826 68.0127Z" fill="#0295AA"/>
<path fill-rule="evenodd" clip-rule="evenodd" d="M357.826 109.086C355.691 121.237 336.442 130.748 313.011 130.748C289.581 130.748 270.332 121.237 268.197 109.086C268.067 109.827 268 110.577 268 111.336C268 124.543 288.152 135.249 313.011 135.249C337.871 135.249 358.023 124.543 358.023 111.336C358.023 110.577 357.956 109.827 357.826 109.086Z" fill="#E6EAEA"/>
<path fill-rule="evenodd" clip-rule="evenodd" d="M313.011 23V70.8247C288.152 70.8247 268 60.1187 268 46.9123C268 33.7059 288.152 23 313.011 23Z" fill="#365558"/>
<path fill-rule="evenodd" clip-rule="evenodd" d="M313.012 98.6744C313.012 98.6744 313.011 98.6744 313.011 98.6744C288.152 98.6744 268 87.9685 268 74.7621C268 74.0032 268.066 73.2526 268.196 72.5117C270.331 84.6628 289.581 94.1737 313.011 94.1737C313.011 94.1737 313.012 94.1737 313.012 94.1737V98.6744Z" fill="#CDD4D5"/>
<path fill-rule="evenodd" clip-rule="evenodd" d="M358.027 111.212C358.027 111.254 358.027 111.296 358.027 111.337C358.027 111.379 358.027 111.421 358.027 111.462V111.212ZM313.015 135.25C288.156 135.249 268.004 124.544 268.004 111.337C268.004 110.578 268.071 109.828 268.201 109.087C270.336 121.238 289.585 130.749 313.015 130.749V135.25Z" fill="#CDD4D5"/>
<path fill-rule="evenodd" clip-rule="evenodd" d="M313.012 94.1754C313.012 94.1754 313.011 94.1754 313.011 94.1754C288.152 94.1754 268 83.4695 268 70.2631C268 69.5042 268.066 68.7535 268.196 68.0127C270.331 80.1638 289.581 89.6746 313.011 89.6746C313.011 89.6746 313.012 89.6746 313.012 89.6746V94.1754Z" fill="#365558"/>
<path fill-rule="evenodd" clip-rule="evenodd" d="M358.391 105.146C356.256 117.298 337.007 126.808 313.576 126.808C290.145 126.808 270.896 117.298 268.761 105.146C268.631 105.887 268.564 106.638 268.564 107.397C268.564 120.603 288.717 131.309 313.576 131.309C338.435 131.309 358.587 120.603 358.587 107.397C358.587 106.638 358.521 105.887 358.391 105.146Z" fill="#0295AA"/>
<path fill-rule="evenodd" clip-rule="evenodd" d="M313.012 131.312C313.012 131.312 313.011 131.312 313.011 131.312C288.152 131.312 268 120.606 268 107.4C268 106.641 268.066 105.89 268.196 105.149C270.331 117.301 289.581 126.811 313.011 126.811C313.011 126.811 313.012 126.811 313.012 126.811V131.312Z" fill="#365558"/>
<rect x="382.002" y="45.5049" width="90.0229" height="97.3373" fill="#CDD4D5"/>
<ellipse cx="427.013" cy="141.998" rx="45.0115" ry="23.9123" fill="#CDD4D5"/>
<rect x="382.002" y="45.5049" width="45.0115" height="97.3373" fill="#9BAAAB"/>
<path fill-rule="evenodd" clip-rule="evenodd" d="M382 142.051V141.946C382.053 128.763 402.185 118.086 427.011 118.086C427.011 118.086 427.011 118.086 427.011 118.086V165.911C427.011 165.911 427.011 165.911 427.011 165.911C402.185 165.911 382.053 155.233 382 142.051Z" fill="#9BAAAB"/>
<ellipse cx="427.015" cy="46.9123" rx="45.0115" ry="23.9123" fill="#4ACFD9"/>
<path fill-rule="evenodd" clip-rule="evenodd" d="M471.826 72.5127C469.691 84.6638 450.442 94.1746 427.011 94.1746C403.581 94.1746 384.332 84.6638 382.197 72.5127C382.067 73.2535 382 74.0042 382 74.7631C382 87.9695 402.152 98.6754 427.011 98.6754C451.871 98.6754 472.023 87.9695 472.023 74.7631C472.023 74.0042 471.956 73.2535 471.826 72.5127Z" fill="#E6EAEA"/>
<path fill-rule="evenodd" clip-rule="evenodd" d="M471.826 68.0127C469.691 80.1638 450.442 89.6746 427.011 89.6746C403.581 89.6746 384.332 80.1638 382.197 68.0127C382.067 68.7535 382 69.5042 382 70.2631C382 83.4695 402.152 94.1754 427.011 94.1754C451.871 94.1754 472.023 83.4695 472.023 70.2631C472.023 69.5042 471.956 68.7535 471.826 68.0127Z" fill="#0295AA"/>
<path fill-rule="evenodd" clip-rule="evenodd" d="M471.826 109.086C469.691 121.237 450.442 130.748 427.011 130.748C403.581 130.748 384.332 121.237 382.197 109.086C382.067 109.827 382 110.577 382 111.336C382 124.543 402.152 135.249 427.011 135.249C451.871 135.249 472.023 124.543 472.023 111.336C472.023 110.577 471.956 109.827 471.826 109.086Z" fill="#E6EAEA"/>
<path fill-rule="evenodd" clip-rule="evenodd" d="M427.011 23V70.8247C402.152 70.8247 382 60.1187 382 46.9123C382 33.7059 402.152 23 427.011 23Z" fill="#365558"/>
<path fill-rule="evenodd" clip-rule="evenodd" d="M427.012 98.6744C427.012 98.6744 427.011 98.6744 427.011 98.6744C402.152 98.6744 382 87.9685 382 74.7621C382 74.0032 382.066 73.2526 382.196 72.5117C384.331 84.6628 403.581 94.1737 427.011 94.1737C427.011 94.1737 427.012 94.1737 427.012 94.1737V98.6744Z" fill="#CDD4D5"/>
<path fill-rule="evenodd" clip-rule="evenodd" d="M472.027 111.212C472.027 111.254 472.027 111.296 472.027 111.337C472.027 111.379 472.027 111.421 472.027 111.462V111.212ZM427.015 135.25C402.156 135.249 382.004 124.544 382.004 111.337C382.004 110.578 382.071 109.828 382.201 109.087C384.336 121.238 403.585 130.749 427.015 130.749V135.25Z" fill="#CDD4D5"/>
<path fill-rule="evenodd" clip-rule="evenodd" d="M427.012 94.1754C427.012 94.1754 427.011 94.1754 427.011 94.1754C402.152 94.1754 382 83.4695 382 70.2631C382 69.5042 382.066 68.7535 382.196 68.0127C384.331 80.1638 403.581 89.6746 427.011 89.6746C427.011 89.6746 427.012 89.6746 427.012 89.6746V94.1754Z" fill="#365558"/>
<path fill-rule="evenodd" clip-rule="evenodd" d="M472.391 105.146C470.256 117.298 451.007 126.808 427.576 126.808C404.145 126.808 384.896 117.298 382.761 105.146C382.631 105.887 382.564 106.638 382.564 107.397C382.564 120.603 402.717 131.309 427.576 131.309C452.435 131.309 472.587 120.603 472.587 107.397C472.587 106.638 472.521 105.887 472.391 105.146Z" fill="#0295AA"/>
<path fill-rule="evenodd" clip-rule="evenodd" d="M427.012 131.312C427.012 131.312 427.011 131.312 427.011 131.312C402.152 131.312 382 120.606 382 107.4C382 106.641 382.066 105.89 382.196 105.149C384.331 117.301 403.581 126.811 427.011 126.811C427.011 126.811 427.012 126.811 427.012 126.811V131.312Z" fill="#365558"/>
</svg>
