<?xml version="1.0" encoding="utf-8"?>
<!-- Generator: Adobe Illustrator 19.0.0, SVG Export Plug-In . SVG Version: 6.00 Build 0)  -->
<svg version="1.1" id="Layer_1" xmlns="http://www.w3.org/2000/svg" xmlns:xlink="http://www.w3.org/1999/xlink" x="0px" y="0px"
	 viewBox="-49 141 512 512" style="enable-background:new -49 141 512 512;" xml:space="preserve">
<style type="text/css">
	.st0{display:none;fill:#E6EAEA;}
	.st1{display:none;fill:#4ACFD9;}
	.st2{display:none;fill:#0295AA;}
	.st3{display:none;fill:#FFFFFF;}
	.st4{fill:#687F82;}
	.st5{fill:#365558;}
	.st6{fill:#E6EAEA;}
	.st7{fill:#FF8C29;}
	.st8{fill:#F0353D;}
	.st9{fill:#FFFFFF;}
	.st10{fill:#9BAAAB;}
	.st11{fill:#0295AA;}
	.st12{fill:none;stroke:#BCD643;stroke-width:13;stroke-linecap:round;stroke-linejoin:round;stroke-miterlimit:10;}
	.st13{fill:#FD6A33;}
</style>
<path class="st0" d="M-49.8,307.3h-288.3c-4.4,0-7.9,3.6-7.9,8v390.1c0,4.4,3.6,8,7.9,8h207.8c2.1,0,4.1-0.8,5.6-2.3l80.6-80.6
	c1.5-1.5,2.3-3.5,2.3-5.6V315.3C-41.9,310.9-45.4,307.3-49.8,307.3z M-194,606.1c-55.9,0-101.2-45.3-101.2-101.2
	s45.3-101.2,101.2-101.2S-92.8,449-92.8,504.9S-138.1,606.1-194,606.1z"/>
<path class="st1" d="M-92.8,504.9c0-55.8-45.4-101.2-101.2-101.2s-101.2,45.4-101.2,101.2s45.4,101.2,101.2,101.2
	S-92.8,560.7-92.8,504.9z"/>
<path class="st2" d="M-295.2,504.9c0,55.8,45.4,101.2,101.2,101.2V403.6C-249.8,403.6-295.2,449.1-295.2,504.9z"/>
<path class="st3" d="M-157.2,463.2l-68.6,68.6l-19.8-19.8c-3.1-3.1-8.1-3.1-11.2,0c-3.1,3.1-3.1,8.1,0,11.2l25.4,25.4
	c1.6,1.6,3.6,2.3,5.6,2.3s4.1-0.8,5.6-2.3l74.2-74.2c3.1-3.1,3.1-8.1,0-11.2S-154.1,460.1-157.2,463.2z"/>
<path class="st4" d="M266.7,313c-4.7-4.3-7.3-10.2-7.3-16.6c0-6,2.4-11.8,6.7-16l44.5-43.4c3.5-3.4,7.9-5.6,12.6-6.3v-39.3
	c-0.1-4.4-3.6-8-8-8H-41c-4.4,0-8,3.6-8,8V645c0,4.4,3.6,8,8,8h356.2c4.4,0,8-3.6,8-8V361.7c-4.5-0.8-8.7-2.8-12-6.1L266.7,313z
	 M137.1,516c-55.9,0-101.2-45.3-101.2-101.2c0-55.9,45.3-101.2,101.2-101.2c55.9,0,101.2,45.3,101.2,101.2
	C238.3,470.8,193,516,137.1,516z"/>
<path class="st5" d="M35.9,414.9c0-55.9,45.3-101.2,101.2-101.2V183.4H-41c-4.4,0-8,3.6-8,8V645c0,4.4,3.6,8,8,8h178.1V516.1
	C81.2,516.1,35.9,470.8,35.9,414.9z"/>
<path class="st6" d="M259.4,296.4c0-6,2.4-11.8,6.7-16l22.5-22v-33.1c-0.1-4.4-3.6-8-8-8H-7.7c-4.4,0-7.9,3.6-7.9,8v390.1
	c0,4.4,3.6,8,7.9,8h207.8c2.1,0,4.1-0.8,5.6-2.3l80.6-80.6c1.5-1.5,2.3-3.5,2.3-5.6V333.9L266.7,313
	C262.1,308.7,259.4,302.7,259.4,296.4z"/>
<path class="st7" d="M221.9,183.4h-28.3c-7.2-24.9-30-42.4-56.5-42.4s-49.3,17.5-56.5,42.4H52.3c-4.4,0-8,3.6-8,7.9V255
	c0,4.4,3.6,7.9,8,7.9h169.6c4.4,0,8-3.6,8-7.9v-63.6C229.9,187,226.3,183.4,221.9,183.4z"/>
<path class="st8" d="M80.6,183.4H52.3c-4.4,0-8,3.6-8,7.9V255c0,4.4,3.6,7.9,8,7.9h84.8V141C110.6,141,87.8,158.5,80.6,183.4z"/>
<path class="st9" d="M166.3,202.8c-3.8,0-7.2-2.8-7.8-6.6c-1.8-10.5-10.8-18.1-21.4-18.1c-4.4,0-8-3.6-8-8s3.6-8,8-8
	c18.4,0,34,13.2,37.1,31.3c0.7,4.3-2.2,8.4-6.5,9.2C167.2,202.8,166.8,202.8,166.3,202.8z"/>
<path class="st10" d="M200.7,542.8v80.6l0,0c2.1,0,4.1-0.8,5.6-2.3l80.6-80.6c1.5-1.5,2.3-3.5,2.3-5.6l0,0h-80.6
	C204.3,534.8,200.7,538.3,200.7,542.8z"/>
<path class="st5" d="M128.3,532.1L1.3,416.7c-5.5-5-5.5-13.2,0-18.2L128.5,283c2.3-2,5.3-3.1,8.2-3v255.2
	C133.6,535.2,130.6,534.1,128.3,532.1z"/>
<path class="st11" d="M144.7,283c-2.3-1.9-5.1-3-8-3v255.1c2.9,0,5.8-1,8-3l127-115.3c5.5-5,5.5-13.2,0-18.2L144.7,283z"/>
<line class="st12" x1="136.7" y1="565.5" x2="136.5" y2="407.6"/>
<path class="st7" d="M134.4,593.7c-5.1,0-9.3,4.1-9.3,9.3l-7.7,40.8c0,5.1,4.1,9.3,9.3,9.3h9.8v-59.3h-2.1V593.7z"/>
<path class="st7" d="M117.4,574.3c0,10.6,8.6,19.2,19.1,19.3v-38.6C126,555.1,117.4,563.7,117.4,574.3z"/>
<path class="st13" d="M155.9,574.3c0-10.6-8.6-19.3-19.3-19.3h-0.1v38.7h0.1C147.3,593.7,155.9,585.1,155.9,574.3z"/>
<path class="st13" d="M155.9,643.7l-7.7-40.8c0-5.1-4.1-9.3-9.3-9.3h-2.5v59.3h10.2C151.8,652.9,155.9,648.8,155.9,643.7z"/>
<path class="st8" d="M328.6,251.2c-0.5-0.5-1.2-0.8-2-0.8s-1.4,0.2-2,0.8l-44.4,43.3c-0.5,0.5-0.8,1.2-0.8,1.9
	c0,0.8,0.3,1.4,0.9,1.9l44.8,42.9c0.6,0.6,1.2,0.8,2,0.8c0.3,0,0.8-0.1,1.1-0.2c1-0.4,1.6-1.4,1.6-2.5v-85.8c0-0.8-0.3-1.4-0.8-1.9
	L328.6,251.2z"/>
<path class="st8" d="M463,412.4c0-72.2-60-131-133.8-131H324v31.1h5.2c56.3,0,102.1,44.8,102.1,99.9c0,49.8-37.3,91.1-86.1,98.7
	v31.4C411.5,534.6,463,479.3,463,412.4z"/>
<g>
	<path class="st4" d="M-213.8,168.4H-570c-4.4,0-8,3.6-8,8V630c0,4.4,3.6,8,8,8h356.2c4.4,0,8-3.6,8-8V176.4
		C-205.9,172-209.4,168.4-213.8,168.4z M-391.9,501.1c-55.9,0-101.2-45.3-101.2-101.2s45.3-101.2,101.2-101.2
		c55.9,0,101.2,45.3,101.2,101.2S-336,501.1-391.9,501.1z"/>
	<path class="st5" d="M-493.1,399.9c0-55.9,45.3-101.2,101.2-101.2V168.4H-570c-4.4,0-8,3.6-8,8V630c0,4.4,3.6,8,8,8h178.1V501.1
		C-447.8,501.1-493.1,455.8-493.1,399.9z"/>
	<path class="st6" d="M-248.4,202.3h-288.3c-4.4,0-7.9,3.6-7.9,8v390.1c0,4.4,3.6,8,7.9,8h207.8c2.1,0,4.1-0.8,5.6-2.3l80.6-80.6
		c1.5-1.5,2.3-3.5,2.3-5.6V210.3C-240.5,205.9-244,202.3-248.4,202.3z"/>
	<path class="st7" d="M-307.1,168.4h-28.3c-7.2-24.9-30-42.4-56.5-42.4s-49.3,17.5-56.5,42.4h-28.3c-4.4,0-8,3.6-8,7.9V240
		c0,4.4,3.6,7.9,8,7.9h169.6c4.4,0,8-3.6,8-7.9v-63.6C-299.1,172-302.7,168.4-307.1,168.4z"/>
	<path class="st8" d="M-448.4,168.4h-28.3c-4.4,0-8,3.6-8,7.9V240c0,4.4,3.6,7.9,8,7.9h84.8V126C-418.4,126-441.2,143.5-448.4,168.4
		z"/>
	<path class="st9" d="M-362.7,187.8c-3.8,0-7.2-2.8-7.8-6.6c-1.8-10.5-10.8-18.1-21.4-18.1c-4.4,0-8-3.6-8-8s3.6-8,8-8
		c18.4,0,34,13.2,37.1,31.3c0.7,4.3-2.2,8.4-6.5,9.2C-361.8,187.8-362.2,187.8-362.7,187.8z"/>
	<path class="st10" d="M-328.3,527.8v80.6l0,0c2.1,0,4.1-0.8,5.6-2.3l80.6-80.6c1.5-1.5,2.3-3.5,2.3-5.6l0,0h-80.6
		C-324.7,519.8-328.3,523.3-328.3,527.8z"/>
	<path class="st5" d="M-400.7,517.1l-127-115.4c-5.5-5-5.5-13.2,0-18.2L-400.5,268c2.3-2,5.3-3.1,8.2-3v255.2
		C-395.4,520.2-398.4,519.1-400.7,517.1z"/>
	<path class="st11" d="M-257.3,383.5c5.5,5,5.5,13.2,0,18.2l-127,115.3c-2.3,2-5.1,3-8,3V265c2.9,0,5.8,1.1,8,3L-257.3,383.5z"/>
	<line class="st12" x1="-392.3" y1="550.5" x2="-392.5" y2="392.6"/>
	<path class="st7" d="M-394.6,578.7c-5.1,0-9.3,4.1-9.3,9.3l-7.7,40.8c0,5.1,4.1,9.3,9.3,9.3h9.8v-59.3h-2.1V578.7z"/>
	<path class="st7" d="M-411.6,559.3c0,10.6,8.6,19.2,19.1,19.3v-38.6C-403,540.1-411.6,548.7-411.6,559.3z"/>
	<path class="st13" d="M-373.1,559.3c0-10.6-8.6-19.3-19.3-19.3h-0.1v38.7h0.1C-381.7,578.7-373.1,570.1-373.1,559.3z"/>
	<path class="st13" d="M-373.1,628.7l-7.7-40.8c0-5.1-4.1-9.3-9.3-9.3h-2.5v59.3h10.2C-377.2,637.9-373.1,633.8-373.1,628.7z"/>
</g>
</svg>
