<?xml version="1.0" encoding="utf-8"?>
<!-- Generator: Adobe Illustrator 19.0.0, SVG Export Plug-In . SVG Version: 6.00 Build 0)  -->
<svg version="1.1" id="Layer_1" xmlns="http://www.w3.org/2000/svg" xmlns:xlink="http://www.w3.org/1999/xlink" x="0px" y="0px"
	 viewBox="96 11 512 512" style="enable-background:new 96 11 512 512;" xml:space="preserve">
<style type="text/css">
	.st0{fill:#45CCD3;}
	.st1{fill:#0197A5;}
	.st2{fill:#9BAAAB;}
	.st3{fill:#FD6A33;}
	.st4{fill:#F0353D;}
	.st5{fill:#4ACFD9;}
	.st6{fill:#0295AA;}
</style>
<path class="st0" d="M222.8,81.5C207.4,51.6,229.1,16,262.7,16h178.5c33.5,0,55.2,35.5,40,65.4l-88,172.5
	c-2.9,5.7-2.9,12.4-0.1,18.1l89.3,180.6c14.7,29.8-6.9,64.8-40.1,64.9L262.1,518c-33.4,0.1-55.2-35-40.3-64.9l89.8-181
	c2.8-5.7,2.8-12.5-0.1-18.2L222.8,81.5z M262.7,40.8c-15.1,0-24.8,16-17.9,29.4l88.6,172.4c6.5,12.7,6.6,27.7,0.3,40.5l-89.8,181
	c-6.7,13.4,3.1,29.1,18.1,29.1l180.1-0.5c14.9,0,24.6-15.7,18-29.1L370.8,283c-6.3-12.7-6.2-27.7,0.3-40.4l88-172.5
	c6.8-13.4-2.9-29.3-17.9-29.3H262.7z"/>
<path class="st1" d="M226.5,35.1c-9.2,12.9-11.6,30.6-3.3,46.6l88.5,172.1c2.9,5.7,3,12.4,0.1,18.1l-89.7,180.8
	c-14.8,29.9,7,64.9,40.3,64.8l180-0.5c15.5,0,28.5-7.6,36.4-18.8L461.8,467c3.4,12.4-5.8,25.3-19.4,25.4l-180,0.5
	c-15,0-24.7-15.7-18.1-29.1L334,283c6.3-12.8,6.2-27.8-0.3-40.5L245.2,70.4c-0.6-1.2-1.1-2.4-1.4-3.6L226.5,35.1z"/>
<rect x="343" y="93" class="st2" width="18" height="278"/>
<path class="st3" d="M351.8,112.1h48l-36.4,137.7c-3.1,11.9-4.5,20.9,1.3,35.4l15,39h-27.9V112.1z"/>
<path class="st4" d="M351.8,112.1h-46.4l34.3,138.2c2.9,11.6,3.6,20.4-1.1,34.4l-13.5,39.4h26.7V112.1z"/>
<path class="st5" d="M352,472l29.4-35.3h-58.9L352,472z"/>
<path class="st6" d="M352,429l23.4-28.5h-46.8L352,429z"/>
</svg>
