<?xml version="1.0" encoding="utf-8"?>
<!-- Generator: Adobe Illustrator 19.0.0, SVG Export Plug-In . SVG Version: 6.00 Build 0)  -->
<svg version="1.1" id="Layer_1" xmlns="http://www.w3.org/2000/svg" xmlns:xlink="http://www.w3.org/1999/xlink" x="0px" y="0px"
	 viewBox="96 11 512 512" style="enable-background:new 96 11 512 512;" xml:space="preserve">
<style type="text/css">
	.st0{display:none;fill:#9BAAAB;}
	.st1{display:none;fill:#FFD1A9;}
	.st2{fill:#CDD4D5;}
	.st3{fill:#FF8C29;}
	.st4{fill:#9BAAAB;}
	.st5{fill:#FD6A33;}
	.st6{fill:#FFFFFF;}
	.st7{fill:#FFD1A9;}
	.st8{fill:#0295AA;}
	.st9{fill:#365558;}
	.st10{display:none;fill:#F0353D;}
	.st11{display:none;fill:#FF8C29;}
	.st12{display:none;fill:#365558;}
</style>
<polygon class="st0" points="447.8,212.7 311.7,265.4 175.5,212.7 312,159.3 "/>
<polygon class="st0" points="585.3,74.3 721.8,127.7 585.7,180.4 449.5,127.7 "/>
<path class="st1" d="M96.1,171.8c0-7.9,6.5-14.3,14.3-14.3h81.3c7.9,0,14.3,6.5,14.3,14.3c0,0,0-0.8,0,9c0,9.9,3.5,17.6,17.6,17.6
	c14,0,343.4,0,343.4,0c7.9,0,14.3,6.5,14.3,14.3v296.5c0,7.9-6.5,14.3-14.3,14.3H110.3c-7.9,0-14.3-6.5-14.3-14.3V171.8"/>
<g id="Layer_2_1_">
	<polygon class="st0" points="488.3,47.5 587.3,86.2 488.6,124.4 389.9,86.2 	"/>
	<polygon class="st2" points="489.2,44.2 403.9,77.2 403.9,182.8 489.2,149.8 	"/>
	<polygon class="st3" points="403.9,77.5 489.2,110.5 489.2,216.1 403.9,183.1 	"/>
	<polygon class="st4" points="489.2,44.2 574.6,77.2 574.6,182.8 489.2,149.8 	"/>
	<polygon class="st5" points="574.6,77.5 489.2,110.5 489.2,216.1 574.6,183.1 	"/>
	<polyline class="st2" points="489.2,44.5 522.4,11 608,44.5 574.6,77.5 	"/>
	<polyline class="st6" points="403.9,77.5 375.4,44.6 461.3,11.5 489.2,44.2 	"/>
	<polyline class="st7" points="403.9,77.7 375.8,49 461.4,82.4 489.2,110.7 	"/>
	<polyline class="st3" points="489.2,110.7 522.1,82.6 607.9,49.4 574.6,77.4 	"/>
	<path class="st6" d="M466.2,169.8c-4.7-1.8-9.4-3.6-14.1-5.4l-5.6-2.1c-1.9-0.7-3.9-1.5-5.8-2.2c-4.5-1.7-9.1-3.5-13.6-5.1
		c-4-1.3-7.4-6.8-7.4-10.1c0.2-7.5,0.2-15.2,0.1-22.7c0-3.3,0-6.5,0-9.8c0-3.7,1.9-5.8,5-5.8c1,0,2.2,0.3,3.4,0.7l1.4,0.5
		c3.1,1.2,6.3,2.4,9.5,3.7c0.7,0.3,1.3,0.4,1.7,0.4c0.8,0,1.2-0.3,1.5-0.6c0.6-0.7,0.7-1.6,0.6-2.3c-0.1-1.7-0.1-3.5,0-5.3
		c0.1-1.4,0.8-1.4,1.1-1.4c0.4,0,0.9,0.1,1.4,0.3c2.1,0.8,3.4,2.5,3.4,4.4v0.5c0,1.4,0.1,2.9-0.1,4.2c-0.3,2.6,0.8,4.1,3.4,5
		c3.4,1.1,6.8,2.6,10.1,3.9l0.8,0.3c4.9,2,8.9,7.5,8.9,12.3c0,11.2,0,22.4,0,33.3c-0.1,2.6-1.4,4.1-3.7,4.1
		C467.8,170.5,466.9,170.3,466.2,169.8z M452.9,152.9c0,2.8,2.1,3.4,2.9,3.7c0.3,0.1,0.5,0.2,0.8,0.3c0.1,0.1,0.3,0.1,0.4,0.2
		c0.2,0.1,0.4,0.2,0.5,0.2c0.4,0.1,0.7,0.2,1,0.4c0.6,0.3,1.1,0.4,1.5,0.4c0.5,0,2-0.2,2-2.4c0-1.8-0.9-3-2.7-3.6
		c-0.8-0.2-1.6-0.5-2.7-1c-0.5-0.2-1.1-0.4-1.7-0.4C454.5,150.5,453,150.7,452.9,152.9z M441.7,146.5c-0.4,0.4-0.7,1.1-0.7,2
		c0.1,2.6,2,3.2,2.8,3.5c0.3,0.1,1.5,0.5,1.5,0.5c0.2,0.1,0.7,0.3,1.4,0.3h0.2c1.1-0.1,2.1-0.8,2.5-1.8c0.4-1.3-0.1-3.1-2-3.8
		c0,0-1.4-0.4-2.5-0.8c-0.7-0.3-1.2-0.4-1.7-0.4C442.6,146,442.1,146.3,441.7,146.5z M430.5,142.2c-0.4,0.4-0.7,1.1-0.7,2
		c0.1,2.5,1.7,3.2,2.9,3.5l1.8,0.4c0.7,0.3,1.3,0.5,1.9,0.5l0,0c0.7,0,1.1-0.3,1.4-0.5c0.4-0.5,0.7-1.1,0.7-2
		c-0.1-2.5-1.7-3.1-2.9-3.5c0,0-3.1-0.9-3.7-0.9C431.1,141.6,430.7,141.9,430.5,142.2z M451.9,135.3c0,2.9,2.2,6,5.2,7.1
		c0.8,0.3,1.5,0.4,2.1,0.4l0,0c2.3,0,4-1.7,4-4.2c0-2.9-2.2-6-5.2-7.1c-0.8-0.3-1.5-0.4-2.1-0.4
		C453.5,131.1,451.9,132.8,451.9,135.3z M429.9,123.4c-0.8,0.8-1.1,1.9-1.1,3.2c0.1,3,2.2,5.9,5.2,7.1c0.7,0.3,1.4,0.4,2,0.4l0,0
		c1.1,0,2.1-0.4,2.8-1.1c0.8-0.8,1.1-1.9,1.1-3.2c-0.1-3-2.2-5.9-5.2-7.1c-0.7-0.3-1.4-0.4-2-0.4
		C431.6,122.2,430.6,122.6,429.9,123.4z"/>
	<path class="st6" d="M479.7,163.1c-0.3-0.1-0.6-0.2-0.9-0.3c-0.4-0.2-0.9-0.4-1.4-0.5c-0.8-0.2-1-0.5-1-1.4c0-2.3,0-4.7,0-7.1
		c0-0.9,0-3.8,0-3.8l0,0v-1.6c0-1.9,0-3.7,0-5.6c0-0.3,0-0.7,0-1c0-0.4,0-0.9,0-1.2c0.3,0.2,0.8,0.3,1.2,0.5
		c0.3,0.1,0.7,0.3,1.1,0.4c2.4,1,3.9,3,4,5.3c0.1,5.3,0.1,10.2,0,14.8c-0.1,1.9-1.1,1.9-1.5,1.9S480.3,163.4,479.7,163.1z"/>
	<path class="st6" d="M413.3,138.5c-2.5-1-4-3-4.1-5.3c-0.1-4.8-0.1-9.8,0-14.8c0-2,1.1-2,1.5-2c0.4,0,0.9,0.1,1.4,0.3
		c0.3,0.1,0.6,0.2,0.9,0.3c0.4,0.2,0.9,0.4,1.4,0.5c0.9,0.3,1.1,0.6,1.1,1.6c0,2.3,0,4.7,0,7c0,0.9,0,1.8,0,2.7c0,2.7,0,5.5,0,8.3
		c0,0.8,0,1.5-0.1,2C414.9,139.1,414.1,138.8,413.3,138.5z"/>
	<polygon class="st8" points="403.9,156.5 489.2,189.5 489.2,205.5 403.9,172.5 	"/>
	<polygon class="st9" points="574.6,156.5 489.2,189.5 489.2,205.5 574.6,172.5 	"/>
	<path class="st10" d="M358.6,196.7c-0.9-2.3,0.2-4.9,2.5-5.9l17.2-7c2.3-0.9,4.9,0.2,5.9,2.5c0.9,2.3-0.2,4.9-2.5,5.9l-17.3,7.1
		C362.1,200.1,359.6,199,358.6,196.7z"/>
	<path class="st10" d="M382.4,219.7c-2.3-1-3.4-3.6-2.5-5.9l6.5-15.5c1-2.3,3.6-3.4,5.9-2.5c2.3,1,3.4,3.6,2.5,5.9l-6.5,15.5
		c-0.5,1.1-1.4,2-2.5,2.5C384.8,220.2,383.6,220.2,382.4,219.7z"/>
	<path class="st10" d="M377.2,176.1l-15.5-6.5c-2.3-1-3.4-3.6-2.5-5.9c1-2.3,3.6-3.4,5.9-2.5l15.5,6.5c2.3,1,3.4,3.6,2.5,5.9
		c-0.5,1.1-1.4,2-2.5,2.5C379.5,176.5,378.4,176.5,377.2,176.1z"/>
</g>
<polygon class="st0" points="409.7,119.1 267.8,174 125.9,119.1 268.2,63.4 "/>
<path class="st6" d="M372.9,195.4c-0.1-0.7-0.1-1.8-0.1-2.9c0-4,0-8,0-11.9c0-1.3,0-2.6,0-3.9c0-3.3,0-6.7,0-10.1
	c0-1.4,0.3-1.9,1.6-2.3c0.7-0.2,1.4-0.5,2-0.8c0.4-0.2,0.8-0.3,1.3-0.5c0.8-0.2,1.5-0.4,2-0.4c0.6,0,2.2,0,2.2,2.8
	c0.1,7.2,0.1,14.3,0,21.2c-0.1,3.3-2.3,6.2-5.9,7.6C374.9,194.7,373.7,195.2,372.9,195.4z"/>
<g>
	<polygon class="st4" points="266.9,210.5 389.5,257.9 389.5,106.2 266.9,58.7 	"/>
	<polygon class="st5" points="389.5,258.4 266.9,305.8 266.9,154 389.5,106.5 	"/>
	<polygon class="st2" points="266.9,210.5 144.2,257.9 144.2,106.2 266.9,58.7 	"/>
	<polygon class="st3" points="144.2,258.4 266.9,305.8 266.9,154 144.2,106.5 	"/>
	<polyline class="st6" points="144.2,106.5 96.2,59.1 219.1,11 266.9,59.1 	"/>
	<polyline class="st2" points="266.9,58.7 307.1,11.7 430.4,59.4 389.5,106.5 	"/>
	<polyline class="st3" points="266.9,154.4 306.8,113.7 429.9,65.6 389.5,106.9 	"/>
	<polyline class="st7" points="144.2,106.5 96.3,66.3 219.7,113.9 266.9,154.4 	"/>
	<path class="st6" d="M296.6,240.3c-3.3,0-5.2-2.2-5.3-5.9c0-15.8,0-31.8,0-47.9c0-7,5.7-14.9,12.8-17.7l1.1-0.5
		c4.8-1.9,9.7-3.9,14.6-5.6c3.8-1.3,5.3-3.4,4.9-7.1c-0.2-1.9-0.1-4-0.1-6V149c0.1-2.8,2-5.2,4.9-6.3c0.8-0.3,1.5-0.5,2-0.5
		c0.5,0,1.6,0,1.6,2c0.1,2.6,0.2,5.2,0,7.7c-0.1,0.9,0,2.4,0.9,3.3c0.4,0.4,1,0.9,2.1,0.9c0.7,0,1.5-0.2,2.5-0.6
		c4.5-1.9,9.2-3.6,13.6-5.3l2-0.8c1.7-0.6,3.4-1,4.9-1c4.5,0,7.2,3.1,7.2,8.4c0,4.7,0,9.4,0,14.1c-0.1,10.7-0.1,21.8,0.2,32.6
		c0.1,4.9-4.9,12.7-10.6,14.6c-6.5,2.2-13.1,4.8-19.5,7.3c-2.7,1.1-5.6,2.2-8.3,3.2l-8,3.1c-6.7,2.6-13.6,5.2-20.3,7.8
		C298.9,240,297.7,240.3,296.6,240.3z M316.1,211.6c-0.8,0-1.6,0.3-2.4,0.6c-1.6,0.7-2.8,1.2-3.9,1.5c-2.7,0.9-3.9,2.6-3.9,5.2
		c0.1,3.2,2.2,3.4,2.9,3.4c0.6,0,1.3-0.2,2.2-0.5c0.5-0.2,0.9-0.4,1.5-0.5c0.2-0.1,0.5-0.2,0.8-0.3c0.2-0.1,0.4-0.2,0.5-0.2
		c0.4-0.2,0.7-0.3,1.1-0.4c1.3-0.4,4.2-1.3,4.2-5.3C318.9,211.8,316.8,211.6,316.1,211.6z M333,205.1c-0.7,0-1.4,0.2-2.4,0.6
		c-1.5,0.5-3.5,1.2-3.5,1.2c-2.8,1-3.5,3.5-2.9,5.4c0.5,1.4,2,2.5,3.5,2.6h0.2c0.9,0,1.7-0.3,2-0.4c0,0,1.6-0.6,2.1-0.8
		c1.2-0.5,4-1.3,4.1-5c0-1.3-0.3-2.3-0.9-2.9C334.7,205.5,334,205.1,333,205.1z M349.4,198.8c-0.9,0-5.3,1.3-5.3,1.3
		c-1.6,0.6-4.1,1.5-4.2,5.1c0,1.3,0.3,2.2,0.9,2.9c0.4,0.4,1,0.8,2,0.8l0,0c0.9,0,1.8-0.4,2.7-0.8l2.6-0.5c1.6-0.5,4.1-1.5,4.2-5.1
		c0-1.3-0.3-2.2-0.9-2.8C351,199.2,350.4,198.8,349.4,198.8z M314.8,183.7c-0.9,0-2,0.2-3.1,0.6c-4.2,1.6-7.4,6-7.4,10.3
		c0,3.5,2.4,6,5.7,6l0,0c0.9,0,2-0.2,3.1-0.6c4.2-1.6,7.4-6,7.4-10.3C320.6,186.1,318.2,183.7,314.8,183.7z M348.1,170.9
		c-0.9,0-2,0.2-2.9,0.5c-4.3,1.6-7.4,5.9-7.5,10.2c0,1.8,0.5,3.4,1.6,4.5c1,1,2.5,1.6,4.1,1.6l0,0c0.9,0,2-0.2,2.9-0.5
		c4.3-1.6,7.4-5.9,7.5-10.2c0-1.8-0.5-3.4-1.6-4.5C351.2,171.4,349.7,170.9,348.1,170.9z"/>
	<path class="st6" d="M278.4,230.2c-0.6,0-2.1,0-2.2-2.7c-0.1-6.6-0.2-13.6,0-21.2c0.1-3.4,2.3-6.3,5.7-7.7c0.6-0.2,1.2-0.5,1.6-0.6
		c0.6-0.2,1.3-0.5,1.7-0.7c0,0.5,0,1.1,0,1.7c0,0.5,0,0.9,0,1.4c0,2.7,0,5.3,0,8v2.3l0,0c0,0,0,4.2,0,5.5c0,3.4,0,6.8,0,10.2
		c0,1.3-0.3,1.7-1.5,2c-0.7,0.2-1.4,0.5-2,0.8c-0.4,0.2-0.8,0.3-1.3,0.5C279.7,230.1,279,230.2,278.4,230.2z"/>
	<polygon class="st8" points="389.5,243.2 266.9,290.6 266.9,267.5 389.5,220.1 	"/>
	<polygon class="st9" points="144.2,243.2 266.9,290.6 266.9,267.5 144.2,220.1 	"/>
</g>
<path class="st10" d="M446.2,281.5l-24.8-10.2c-3.3-1.4-4.9-5.1-3.5-8.5c1.4-3.3,5.1-4.9,8.5-3.5l24.8,10.1c3.3,1.4,4.9,5.1,3.5,8.5
	C453.3,281.3,449.6,282.8,446.2,281.5z"/>
<path class="st10" d="M415.5,311c-1.6-0.6-2.8-1.9-3.5-3.5l-9.3-22.3c-1.4-3.3,0.2-7.1,3.5-8.5c3.3-1.4,7.1,0.2,8.5,3.5l9.3,22.3
	c1.4,3.3-0.2,7.1-3.5,8.5C418.8,311.7,417,311.7,415.5,311z"/>
<path class="st10" d="M423,248.3c-1.6-0.6-2.8-1.9-3.5-3.5c-1.4-3.3,0.2-7.1,3.5-8.5l22.3-9.3c3.3-1.4,7.1,0.2,8.5,3.5
	c1.4,3.3-0.2,7.1-3.5,8.5l-22.3,9.3C426.2,248.9,424.6,248.9,423,248.3z"/>
<path class="st11" d="M564.8,523.7H108.1c-7.9,0-13.1-5.7-11.7-12.5l26.2-129.6c1.4-6.9,8.9-12.5,16.9-12.5H596
	c7.9,0,13.1,5.7,11.7,12.5l-26.2,129.6C580.4,518,572.7,523.7,564.8,523.7z"/>
<path class="st12" d="M123.3,508.3c-1.9,0-3.5-0.6-4.6-1.8c-1.1-1.2-1.5-2.9-1.2-4.7l1.3-6.1c1.8-4.7,5.6-8.3,8.2-8.3h435.6
	c1.9,0,3.5,0.6,4.6,1.8c1.1,1.2,1.5,2.9,1.2,4.7l-1.3,6.1c-0.8,4.4-4.6,8.3-9.4,8.3H123.3z"/>
<g id="Layer_2_2_">
	<polygon class="st0" points="404.2,236.7 572.2,302.4 404.6,367.2 237.1,302.4 	"/>
	<polygon class="st2" points="405.7,231.1 260.9,287.1 260.9,466.3 405.7,410.3 	"/>
	<polygon class="st3" points="260.9,287.6 405.7,343.6 405.7,522.9 260.9,466.9 	"/>
	<polygon class="st4" points="405.7,231.1 550.6,287.1 550.6,466.3 405.7,410.3 	"/>
	<polygon class="st5" points="550.6,287.6 405.7,343.6 405.7,522.9 550.6,466.9 	"/>
	<polyline class="st2" points="405.7,231.6 462.1,174.8 607.3,231.6 550.6,287.6 	"/>
	<polyline class="st6" points="260.9,287.6 212.6,231.9 358.3,175.6 405.7,231.1 	"/>
	<polyline class="st7" points="260.9,288.1 213.2,239.2 358.5,296 405.7,344.1 	"/>
	<polyline class="st3" points="405.7,344.1 461.5,296.3 607.1,240 550.6,287.5 	"/>
	<path class="st6" d="M366.7,444.3c-8-3.1-16-6.1-24-9.2l-9.4-3.6c-3.2-1.2-6.6-2.5-9.8-3.8c-7.6-3-15.4-6-23-8.6
		c-6.8-2.2-12.6-11.5-12.5-17.2c0.3-12.8,0.3-25.8,0.2-38.5c0-5.6,0-11.1,0-16.7c0-6.3,3.1-9.9,8.5-9.9c1.8,0,3.7,0.5,5.7,1.2
		l2.4,0.9c5.3,2,10.7,4.1,16.1,6.3c1.2,0.6,2.1,0.7,3,0.7c1.3,0,2-0.6,2.5-1c1-1.1,1.1-2.8,1-3.9c-0.2-3-0.1-6,0-9.1
		c0.1-2.4,1.3-2.4,1.9-2.4c0.6,0,1.5,0.2,2.4,0.6c3.5,1.4,5.7,4.2,5.8,7.5v0.8c0,2.4,0.1,4.9-0.1,7.1c-0.5,4.4,1.3,6.9,5.7,8.4
		c5.7,1.9,11.6,4.4,17.2,6.6l1.3,0.6c8.3,3.3,15.1,12.7,15.1,20.9c0,19,0,37.9,0,56.6c-0.1,4.4-2.3,6.9-6.2,6.9
		C369.3,445.6,367.9,445.2,366.7,444.3z M344.1,415.6c0,4.7,3.5,5.8,5,6.3c0.5,0.1,0.8,0.3,1.3,0.5c0.2,0.1,0.5,0.2,0.6,0.3
		c0.4,0.2,0.6,0.3,0.9,0.4c0.6,0.2,1.2,0.4,1.8,0.6c1,0.5,1.9,0.6,2.6,0.6c0.8,0,3.3-0.3,3.4-4.1c0-3.1-1.5-5.1-4.6-6.1
		c-1.3-0.4-2.8-0.9-4.6-1.8c-0.9-0.4-1.9-0.7-2.9-0.7C346.8,411.6,344.3,411.9,344.1,415.6z M325.1,404.8c-0.7,0.7-1.1,1.9-1.1,3.4
		c0.1,4.4,3.4,5.4,4.8,5.9c0.6,0.2,2.5,0.9,2.5,0.9c0.3,0.1,1.2,0.5,2.3,0.5h0.3c1.9-0.1,3.6-1.4,4.2-3.1c0.7-2.2-0.1-5.2-3.4-6.4
		c0,0-2.4-0.7-4.2-1.4c-1.2-0.5-2-0.7-2.9-0.7C326.5,404,325.7,404.5,325.1,404.8z M306,397.5c-0.7,0.7-1.1,1.9-1.1,3.3
		c0.1,4.3,3,5.4,4.9,6l3.1,0.6c1.1,0.5,2.1,0.9,3.2,0.9l0,0c1.1,0,1.9-0.5,2.3-0.9c0.7-0.8,1.1-1.9,1.1-3.4c-0.1-4.3-3-5.3-4.9-6
		c0,0-5.2-1.5-6.3-1.5C307.1,396.6,306.3,397,306,397.5z M342.3,385.8c0,5,3.8,10.2,8.8,12.1c1.3,0.5,2.5,0.7,3.6,0.7l0,0
		c4,0,6.8-3,6.8-7.1c0-5-3.8-10.2-8.8-12.1c-1.3-0.5-2.5-0.7-3.6-0.7C345.1,378.7,342.3,381.6,342.3,385.8z M304.9,365.5
		c-1.3,1.4-1.9,3.2-1.9,5.4c0.1,5.1,3.8,10.1,8.9,12c1.1,0.5,2.3,0.6,3.4,0.6l0,0c1.9,0,3.6-0.7,4.8-1.9c1.3-1.4,1.9-3.2,1.9-5.4
		c-0.1-5.1-3.8-10.1-8.9-12c-1.1-0.5-2.3-0.6-3.4-0.6C307.9,363.6,306.1,364.2,304.9,365.5z"/>
	<path class="st6" d="M389.6,433c-0.6-0.2-1-0.4-1.5-0.6c-0.7-0.4-1.6-0.6-2.4-0.9c-1.4-0.4-1.8-0.9-1.8-2.4c0-4,0-8.1,0-12
		c0-1.6,0-6.5,0-6.5l0,0v-2.7c0-3.1,0-6.3,0-9.4c0-0.6,0-1.1,0-1.7c0-0.7,0-1.5,0-2c0.6,0.3,1.3,0.6,2,0.8c0.6,0.2,1.2,0.5,1.9,0.7
		c4.1,1.7,6.7,5.1,6.8,9.1c0.2,9.1,0.1,17.3,0,25.1c-0.1,3.1-1.9,3.1-2.6,3.1C391.4,433.7,390.6,433.5,389.6,433z"/>
	<path class="st6" d="M276.8,391.3c-4.3-1.7-6.8-5.1-6.9-9c-0.1-8.1-0.1-16.6,0-25.1c0-3.3,1.9-3.3,2.6-3.3c0.6,0,1.5,0.2,2.4,0.5
		c0.6,0.2,1,0.4,1.5,0.6c0.7,0.4,1.6,0.6,2.4,0.9c1.5,0.5,1.9,1,1.9,2.7c0,4,0,8.1,0,11.9c0,1.6,0,3.1,0,4.6c0,4.6,0,9.3,0,14.1
		c0,1.3,0,2.6-0.1,3.4C279.6,392.3,278.2,391.7,276.8,391.3z"/>
	<polygon class="st8" points="260.9,421.7 405.7,477.7 405.7,504.9 260.9,448.9 	"/>
	<polygon class="st9" points="550.6,421.7 405.7,477.7 405.7,504.9 550.6,448.9 	"/>
	<path class="st10" d="M184.1,489.9c-1.6-4,0.3-8.3,4.2-10l29.2-11.9c4-1.6,8.3,0.3,10,4.2c1.6,4-0.3,8.3-4.2,10l-29.3,12
		C190,495.8,185.6,493.9,184.1,489.9z"/>
	<path class="st10" d="M224.4,529c-4-1.7-5.8-6.1-4.2-10l11-26.3c1.7-4,6.1-5.8,10-4.2c4,1.7,5.8,6.1,4.2,10l-11,26.3
		c-0.8,1.9-2.3,3.4-4.2,4.2C228.5,529.8,226.4,529.9,224.4,529z"/>
	<path class="st10" d="M215.5,455l-26.3-11c-4-1.7-5.8-6.1-4.2-10c1.7-4,6.1-5.8,10-4.2l26.3,11c4,1.7,5.8,6.1,4.2,10
		c-0.8,1.9-2.3,3.4-4.2,4.2C219.5,455.7,217.6,455.7,215.5,455z"/>
</g>
</svg>
