<?xml version="1.0" encoding="utf-8"?>
<!-- Generator: Adobe Illustrator 19.0.0, SVG Export Plug-In . SVG Version: 6.00 Build 0)  -->
<svg version="1.1" id="Layer_1" xmlns="http://www.w3.org/2000/svg" xmlns:xlink="http://www.w3.org/1999/xlink" x="0px" y="0px"
	 viewBox="96 11 512 512" style="enable-background:new 96 11 512 512;" xml:space="preserve">
<style type="text/css">
	.st0{display:none;fill:#9BAAAB;}
	.st1{display:none;fill:#FFD1A9;}
	.st2{display:none;fill:#F0353D;}
	.st3{display:none;fill:#FF8C29;}
	.st4{display:none;fill:#365558;}
	.st5{fill:#F0353D;}
	.st6{fill:#FD6A33;}
	.st7{fill:#FF8C29;}
	.st8{fill:#FFD1A9;}
	.st9{fill:#365558;}
	.st10{fill:#0295AA;}
	.st11{fill:#4ACFD9;}
	.st12{fill:#9BAAAB;}
	.st13{fill:#CDD4D5;}
	.st14{fill:#E6EAEA;}
	.st15{fill:#FFFFFF;}
	.st16{fill:#BCD643;}
</style>
<polygon class="st0" points="447.8,212.7 311.7,265.4 175.5,212.7 312,159.3 "/>
<polygon class="st0" points="585.3,74.3 721.8,127.7 585.7,180.4 449.5,127.7 "/>
<path class="st1" d="M96.1,171.8c0-7.9,6.5-14.3,14.3-14.3h81.3c7.9,0,14.3,6.5,14.3,14.3c0,0,0-0.8,0,9c0,9.9,3.5,17.6,17.6,17.6
	c14,0,343.4,0,343.4,0c7.9,0,14.3,6.5,14.3,14.3v296.5c0,7.9-6.5,14.3-14.3,14.3H110.3c-7.9,0-14.3-6.5-14.3-14.3V171.8"/>
<polygon class="st0" points="409.7,119.1 267.8,174 125.9,119.1 268.2,63.4 "/>
<path class="st2" d="M446.2,281.5l-24.8-10.2c-3.3-1.4-4.9-5.1-3.5-8.5c1.4-3.3,5.1-4.9,8.5-3.5l24.8,10.1c3.3,1.4,4.9,5.1,3.5,8.5
	C453.3,281.3,449.6,282.8,446.2,281.5z"/>
<path class="st2" d="M415.5,311c-1.6-0.6-2.8-1.9-3.5-3.5l-9.3-22.3c-1.4-3.3,0.2-7.1,3.5-8.5c3.3-1.4,7.1,0.2,8.5,3.5l9.3,22.3
	c1.4,3.3-0.2,7.1-3.5,8.5C418.8,311.7,417,311.7,415.5,311z"/>
<path class="st2" d="M423,248.3c-1.6-0.6-2.8-1.9-3.5-3.5c-1.4-3.3,0.2-7.1,3.5-8.5l22.3-9.3c3.3-1.4,7.1,0.2,8.5,3.5
	c1.4,3.3-0.2,7.1-3.5,8.5l-22.3,9.3C426.2,248.9,424.6,248.9,423,248.3z"/>
<path class="st3" d="M564.8,523.7H108.1c-7.9,0-13.1-5.7-11.7-12.5l26.2-129.6c1.4-6.9,8.9-12.5,16.9-12.5H596
	c7.9,0,13.1,5.7,11.7,12.5l-26.2,129.6C580.4,518,572.7,523.7,564.8,523.7z"/>
<path class="st4" d="M123.3,508.3c-1.9,0-3.5-0.6-4.6-1.8c-1.1-1.2-1.5-2.9-1.2-4.7l1.3-6.1c1.8-4.7,5.6-8.3,8.2-8.3h435.6
	c1.9,0,3.5,0.6,4.6,1.8c1.1,1.2,1.5,2.9,1.2,4.7l-1.3,6.1c-0.8,4.4-4.6,8.3-9.4,8.3H123.3z"/>
<polygon class="st0" points="404.2,236.7 572.2,302.4 404.6,367.2 237.1,302.4 "/>
<path class="st5" d="M597.6,385.5c-19.9,12.7-38.8,24.4-55.9,35l-0.2,0.1c-14,8.4-26.2,8.4-30.8,8.4c-5,0-9.6-0.5-13.7-1.6
	c-1.9-0.3-3.4-0.6-4.8-0.9c-0.7,0.5-1.4,1-2.1,1.5c-11.6,7.3-32.4,12.5-50.4,12.5c-3.8,0-7.4-0.3-11-0.8
	c-14.3,6.6-31.5,10.3-48.6,10.3c-8.3,0-14.8-1-20.1-3.1c-2.7-0.5-5.3-1-8-1.6v21.4c8.6-3.1,16.5-3.5,19.4-3.5
	c4.2,0,7.7,0.7,10.9,1.3c6,1.5,11.2,2.4,16,3.1c11.4,1.8,12.4,5.4,3.8,10.7c-11,6.7-23.1,7.2-26.8,7.2c-3.3,0-6.6-0.3-9.9-1.1
	c-1.7-0.5-3.7-0.8-6.1-1.1c-1-0.2-2-0.3-3.1-0.7c-0.6-0.2-1.6-0.3-2.1-0.5c-0.7-0.1-1.3-0.3-1.9-0.4v36.2c4.7,0.9,9.5,1.8,14.2,2.8
	c2.8,1.6,8.1,2.3,13.9,2.3c17.5,0,34.8-4.6,47.4-12.2c51.9-32.7,104.9-66.1,157.9-99.5C599.4,402.5,603.2,392.9,597.6,385.5z"/>
<path class="st5" d="M349.4,481.3c-5.4-0.8-18.2-2.8-5-11.1c2.5-1.5,5.1-2.6,7.6-3.5v-21.4c-10.2-2-20.4-4-30.6-6
	c-13.9-2.7-27.8-5.4-41.6-8.1l-32.4-6.3c-10.5-2-21.9-4.2-33.9-6.7l-3.4-0.7c-8.6-1.7-17.3-3.5-26-5.2
	c-18.1,11.3-36.4,22.7-54.8,33.9c-16.4,10.1-16,26.4,8.3,30.3c27.4,4.6,54,9.9,79.9,15.1c11,2.3,22.4,4.6,33.7,6.7l32.5,6.3
	c22.7,4.4,45.6,8.9,68.4,13.3v-36.2C351.2,481.6,350.4,481.4,349.4,481.3z M265.6,449.9c-4.1,2.6-8.9,4.6-14.6,6
	c-3.4,0.8-8,1.6-13,1.6c-5,0-8.3-0.8-12-1.6l-12-1.1c-7-1.1-16.8-3.1-5.3-10.6c4.1-2.6,8.9-4.6,14.3-5.9c3-0.8,7.6-1.6,13-1.6
	c5,0,24.3,2.6,24.3,2.6C267,440.6,277.1,442.4,265.6,449.9z M326,464.7c-7.2,2.9-18.7,5.2-27.3,5.4h-1.3c-5,0-8.2-0.7-9.1-0.8
	c0,0-6.7-1.3-8.7-1.6c-4.7-1-16.9-2.8-5.2-10.4c4.4-2.8,9.2-4.7,14.6-6c3.3-0.5,8.6-1.5,13.6-1.5c3.8,0,6.7,0.5,10.9,1.3
	c6.1,1.1,14.9,2.4,14.9,2.4C340.1,455.6,335.6,460.8,326,464.7z"/>
<path class="st5" d="M596.1,436.4c-2.6-0.5-4.7-1-6.7-1.3c-2.6-0.5-5.1-1-6.9-1.5c-1.6,1-3.6,2.3-5.7,3.6c-1.6,1-3.1,2-4.7,2.9
	c-8.8,5.5-17.6,11.1-26.4,16.6l-7.5,4.7c0,0-13.7,8.6-18.1,11.4c-11.1,7-22.5,14.2-33.6,21.2c-4.1,2.6-4,3.6,1.2,4.2
	c3,0.5,6,1,8.3,1.6c1.6,0.3,3.1,0.7,5.1,1c2.9,0.8,6.1,1.1,9.5,1.1s11.3,0,20.5-5.5c22.1-13.7,45.5-28.2,70-44.1
	C611.9,445.3,609.8,439.3,596.1,436.4z"/>
<path class="st5" d="M121.3,399.7c-6.3,4-12.6,8-18.7,12c-10.4,6.8-8.3,12.9,6.3,15.8c5,0.8,9.7,1.8,13.1,2.3c2.7-1.5,6.4-3.7,10-6
	c8.7-5.5,17.4-11,26-16.4c-7.8-1.4-15.7-2.8-23.6-4.2C129.2,402.3,125,401.1,121.3,399.7z"/>
<path class="st2" d="M184.1,489.9c-1.6-4,0.3-8.3,4.2-10l29.2-11.9c4-1.6,8.3,0.3,10,4.2c1.6,4-0.3,8.3-4.2,10l-29.3,12
	C190,495.8,185.6,493.9,184.1,489.9z"/>
<path class="st2" d="M224.4,529c-4-1.7-5.8-6.1-4.2-10l11-26.3c1.7-4,6.1-5.8,10-4.2c4,1.7,5.8,6.1,4.2,10l-11,26.3
	c-0.8,1.9-2.3,3.4-4.2,4.2C228.5,529.8,226.4,529.9,224.4,529z"/>
<path class="st2" d="M215.5,455l-26.3-11c-4-1.7-5.8-6.1-4.2-10c1.7-4,6.1-5.8,10-4.2l26.3,11c4,1.7,5.8,6.1,4.2,10
	c-0.8,1.9-2.3,3.4-4.2,4.2C219.5,455.7,217.6,455.7,215.5,455z"/>
<rect x="790" y="16" class="st5" width="128" height="128"/>
<rect x="918" y="16" class="st6" width="128" height="128"/>
<rect x="1046" y="16" class="st7" width="128" height="128"/>
<rect x="1174" y="16" class="st8" width="128" height="128"/>
<rect x="790" y="144" class="st9" width="128" height="128"/>
<rect x="918" y="144" class="st10" width="128" height="128"/>
<rect x="1046" y="144" class="st11" width="128" height="128"/>
<rect x="790" y="272" class="st12" width="128" height="128"/>
<rect x="918" y="272" class="st13" width="128" height="128"/>
<rect x="1046" y="272" class="st14" width="128" height="128"/>
<rect x="1174" y="272" class="st15" width="128" height="128"/>
<rect x="790" y="400" class="st16" width="128" height="128"/>
<path class="st6" d="M590,284.3c-17.1,10.9-33.4,20.9-48.3,30.1l-0.2,0.1c-14,8.4-26.2,8.4-30.8,8.4c-4.2,0-8.1-0.4-11.7-1.1
	c0,3.4-3,7.3-8.9,11c-11.6,7.3-32.4,12.5-50.4,12.5c-5,0-9.7-0.5-14.2-1.3c-5.5-1.1-9.5-2.8-11.9-4.8c-10.6,3.1-22.1,4.7-33.5,4.7
	c-8.3,0-14.8-1-20.1-3.1c-2.7-0.5-5.3-1-8-1.6v32.3c8.6-3.1,16.5-3.5,19.4-3.5c4.2,0,7.7,0.7,10.9,1.3c6,1.5,11.2,2.4,16,3.1
	c11.4,1.8,12.4,5.4,3.8,10.7c-11,6.7-23.1,7.2-26.8,7.2c-3.3,0-6.6-0.3-9.9-1.1c-1.7-0.5-3.7-0.8-6.1-1.1c-1-0.2-2-0.3-3.1-0.7
	c-0.6-0.2-1.6-0.3-2.1-0.5c-0.7-0.1-1.3-0.3-1.9-0.4v36.2c4.7,0.9,9.5,1.8,14.2,2.8c2.8,1.6,8.1,2.3,13.9,2.3
	c17.5,0,34.8-4.6,47.4-12.2c51.9-32.7,104.9-66.1,157.9-99.5C603.6,304.8,604.6,292,590,284.3z"/>
<path class="st5" d="M349.4,386.3c-5.4-0.8-18.2-2.8-5-11.1c2.5-1.5,5.1-2.6,7.6-3.5v-32.3c-10.3-2-20.6-4-30.9-6
	c-13.8-2.7-27.6-5.4-41.4-8.1l-32.4-6.3c-10.5-2-21.9-4.2-33.9-6.7l-3.5-0.7c-4.2-0.8-8.5-1.7-12.7-2.5
	c-22.3,14.1-45.1,28.2-68.1,42.2c-16.4,10.1-16,26.4,8.3,30.3c27.4,4.6,54,9.9,79.9,15.1c11,2.3,22.4,4.6,33.7,6.7l32.5,6.3
	c22.7,4.4,45.6,8.9,68.4,13.3v-36.2C351.2,386.5,350.4,386.4,349.4,386.3z M265.6,354.9c-4.1,2.6-8.9,4.6-14.6,6
	c-3.4,0.8-8,1.6-13,1.6c-5,0-8.3-0.8-12-1.6l-12-1.1c-7-1.1-16.8-3.1-5.3-10.6c4.1-2.6,8.9-4.6,14.3-5.9c3-0.8,7.6-1.6,13-1.6
	c5,0,24.3,2.6,24.3,2.6C267,345.6,277.1,347.4,265.6,354.9z M326,369.7c-7.2,2.9-18.7,5.2-27.3,5.4h-1.3c-5,0-8.2-0.7-9.1-0.8
	c0,0-6.7-1.3-8.7-1.6c-4.7-1-16.9-2.8-5.2-10.4c4.4-2.8,9.2-4.7,14.6-6c3.3-0.5,8.6-1.5,13.6-1.5c3.8,0,6.7,0.5,10.9,1.3
	c6.1,1.1,14.9,2.4,14.9,2.4C340.1,360.6,335.6,365.8,326,369.7z"/>
<path class="st6" d="M467.3,308.3c0.2,0,0.4,0,0.6,0c-0.1-0.1-0.1-0.2-0.2-0.3L467.3,308.3z"/>
<path class="st6" d="M596.1,341.4c-2.6-0.5-4.7-1-6.7-1.3c-2.6-0.5-5.1-1-6.9-1.5c-1.6,1-3.6,2.3-5.7,3.6c-1.6,1-3.1,2-4.7,2.9
	c-8.8,5.5-17.6,11.1-26.4,16.6l-7.5,4.7c0,0-13.7,8.6-18.1,11.4c-11.1,7-22.5,14.2-33.6,21.2c-4.1,2.6-4,3.6,1.2,4.2
	c3,0.5,6,1,8.3,1.6c1.6,0.3,3.1,0.7,5.1,1c2.9,0.8,6.1,1.1,9.5,1.1s11.3,0,20.5-5.5c22.1-13.7,45.5-28.2,70-44.1
	C611.9,350.3,609.8,344.3,596.1,341.4z"/>
<path class="st6" d="M133.3,297c-10.5,6.6-20.8,13.2-30.8,19.6c-10.4,6.8-8.3,12.9,6.3,15.8c5,0.8,9.7,1.8,13.1,2.3
	c2.7-1.5,6.4-3.7,10-6c13.2-8.3,26.4-16.6,39.3-24.7c0,0,0.1-0.1,0.1-0.1c-12.2-2.3-24.5-4.6-37-6.7
	C133.9,297.1,133.6,297.1,133.3,297z"/>
<path class="st7" d="M597.6,184.5c-19.9,12.7-38.8,24.4-55.9,35l-0.2,0.1c-14,8.4-26.2,8.4-30.8,8.4c-5,0-9.6-0.5-13.7-1.6
	c-1.9-0.3-3.4-0.6-4.8-0.9c-0.7,0.5-1.4,1-2.1,1.5c-11.6,7.3-32.4,12.5-50.4,12.5c-3.8,0-7.4-0.3-11-0.8
	c-14.3,6.6-31.5,10.3-48.6,10.3c-8.3,0-14.8-1-20.1-3.1c-2.7-0.5-5.3-1-8-1.6v21.4c8.6-3.1,16.5-3.5,19.4-3.5
	c4.2,0,7.7,0.7,10.9,1.3c6,1.5,11.2,2.4,16,3.1c11.4,1.8,12.4,5.4,3.8,10.7c-11,6.7-23.1,7.2-26.8,7.2c-3.3,0-6.6-0.3-9.9-1.1
	c-1.7-0.5-3.7-0.8-6.1-1.1c-1-0.2-2-0.3-3.1-0.7c-0.6-0.2-1.6-0.3-2.1-0.5c-0.7-0.1-1.3-0.3-1.9-0.4v36.2c4.7,0.9,9.5,1.8,14.2,2.8
	c2.8,1.6,8.1,2.3,13.9,2.3c17.5,0,34.8-4.6,47.4-12.2c51.9-32.7,104.9-66.1,157.9-99.5C599.4,201.5,603.2,191.9,597.6,184.5z"/>
<path class="st6" d="M349.4,280.3c-5.4-0.8-18.2-2.8-5-11.1c2.5-1.5,5.1-2.6,7.6-3.5v-21.4c-10.3-2-20.7-4-31-6.1
	c-13.8-2.7-27.6-5.4-41.2-8l-32.4-6.3c-10.5-2-21.9-4.2-33.9-6.7l-3.5-0.7c-8.6-1.7-17.2-3.5-26-5.2c-18.1,11.3-36.4,22.7-54.8,33.9
	c-16.4,10.1-16,26.4,8.3,30.3c27.4,4.6,54,9.9,79.9,15.1c11,2.3,22.4,4.6,33.7,6.7l32.5,6.3c22.7,4.4,45.6,8.9,68.4,13.3v-36.2
	C351.2,280.6,350.4,280.4,349.4,280.3z M265.6,248.9c-4.1,2.6-8.9,4.6-14.6,6c-3.4,0.8-8,1.6-13,1.6c-5,0-8.3-0.8-12-1.6l-12-1.1
	c-7-1.1-16.8-3.1-5.3-10.6c4.1-2.6,8.9-4.6,14.3-5.9c3-0.8,7.6-1.6,13-1.6c5,0,24.3,2.6,24.3,2.6C267,239.6,277.1,241.4,265.6,248.9
	z M326,263.7c-7.2,2.9-18.7,5.2-27.3,5.4h-1.3c-5,0-8.2-0.7-9.1-0.8c0,0-6.7-1.3-8.7-1.6c-4.7-1-16.9-2.8-5.2-10.4
	c4.4-2.8,9.2-4.7,14.6-6c3.3-0.5,8.6-1.5,13.6-1.5c3.8,0,6.7,0.5,10.9,1.3c6.1,1.1,14.9,2.4,14.9,2.4
	C340.1,254.6,335.6,259.8,326,263.7z"/>
<path class="st7" d="M596.1,235.4c-2.6-0.5-4.7-1-6.7-1.3c-2.6-0.5-5.1-1-6.9-1.5c-1.6,1-3.6,2.3-5.7,3.6c-1.6,1-3.1,2-4.7,2.9
	c-8.8,5.5-17.6,11.1-26.4,16.6l-7.5,4.7c0,0-13.7,8.6-18.1,11.4c-11.1,7-22.5,14.2-33.6,21.2c-4.1,2.6-4,3.6,1.2,4.2
	c3,0.5,6,1,8.3,1.6c1.6,0.3,3.1,0.7,5.1,1c2.9,0.8,6.1,1.1,9.5,1.1c3.3,0,11.3,0,20.5-5.5c22.1-13.7,45.5-28.2,70-44.1
	C611.9,244.3,609.8,238.3,596.1,235.4z"/>
<path class="st7" d="M121.3,198.7c-6.3,4-12.6,8-18.7,12c-10.4,6.8-8.3,12.9,6.3,15.8c5,0.8,9.7,1.8,13.1,2.3c2.7-1.5,6.4-3.7,10-6
	c8.7-5.5,17.4-11,26-16.4c-7.8-1.4-15.7-2.8-23.6-4.2C129.3,201.3,125,200.1,121.3,198.7z"/>
<path class="st8" d="M575.7,78.5l-4.3-1c-19.3-3.9-38.9-8.1-59.3-11.6c-15.9-2.6-16.9-7-2.4-14.8c7-3.9,13.6-8.3,20.3-12.5l2.3-1.5
	c8.9-5.9,6.6-10.7-5.4-13.2c-3.1-0.7-6.4-1-9.3-1c-2.9,0-8.4,0-15.5,4.2c-8.9,5.4-17.9,10.7-25.3,16c-2.7,2-7.8,4.9-15.4,6.8
	c-3.4,0.8-8.3,1.8-14.1,1.8c-3.8,0-7.4-0.3-11.3-1.3c-18-3.9-37-7.5-55.1-11.1l-8.3-1.6c-6.5-1.2-13.4-2-20.6-2.1v49
	c14.2,3.9,15.6,12,2.8,20.3c-0.9,0.6-1.8,1.1-2.8,1.6v64c8.6-3.1,16.5-3.5,19.4-3.5c4.2,0,7.7,0.7,10.9,1.3c6,1.5,11.2,2.4,16,3.1
	c11.4,1.8,12.4,5.4,3.8,10.7c-11,6.7-23.1,7.2-26.8,7.2c-3.3,0-6.6-0.3-9.9-1.1c-1.7-0.5-3.7-0.8-6.1-1.1c-1-0.2-2-0.3-3.1-0.7
	c-0.6-0.2-1.6-0.3-2.1-0.5c-0.7-0.1-1.3-0.3-1.9-0.4v36.2c4.7,0.9,9.5,1.8,14.2,2.8c2.8,1.6,8.1,2.3,13.9,2.3
	c17.5,0,34.8-4.6,47.4-12.2c51.9-32.7,104.9-66.1,157.9-99.5C608.3,100.8,603.9,84.4,575.7,78.5z M490.1,131.9
	c-11.6,7.3-32.4,12.5-50.4,12.5c-5,0-9.7-0.5-14.2-1.3c-17.1-3.4-19.8-12.5-5.8-21.3c11.9-7.5,32.4-12.5,50.4-12.5
	c5,0,9.7,0.5,14.2,1.3C501.4,114,504,123.1,490.1,131.9z"/>
<path class="st7" d="M349.4,185.3c-5.4-0.8-18.2-2.8-5-11.1c2.5-1.5,5.1-2.6,7.6-3.5v-64c-5.6,3.1-12.7,5.7-20.9,7.8
	c-8.8,2.1-18.8,3.4-27.1,3.4c-5,0-9.9-0.3-13.6-1.1c-17.5-3.4-20.3-12.2-6.5-21.2c5.9-3.7,14-7,23.8-9.4c9-2.3,18.8-3.4,27.1-3.4
	c5,0,9.9,0.3,13.6,1.1c1.3,0.3,2.5,0.5,3.7,0.9v-49c-0.6,0-1.3,0-1.9,0c-24.2,0-48.5,6.3-66.1,17.4c-15.5,9.8-31,19.5-46.5,29.3
	c-35,22.3-71.4,45.3-108.3,67.7c-16.4,10.1-16,26.4,8.3,30.3c27.4,4.6,54,9.9,79.9,15.1c11,2.3,22.4,4.6,33.7,6.7l32.5,6.3
	c22.7,4.4,45.6,8.9,68.4,13.3v-36.2C351.2,185.5,350.4,185.4,349.4,185.3z M265.6,153.9c-4.1,2.6-8.9,4.6-14.6,6
	c-3.4,0.8-8,1.6-13,1.6c-5,0-8.3-0.8-12-1.6l-12-1.1c-7-1.1-16.8-3.1-5.3-10.6c4.1-2.6,8.9-4.6,14.3-5.9c3-0.8,7.6-1.6,13-1.6
	c5,0,24.3,2.6,24.3,2.6C267,144.6,277.1,146.4,265.6,153.9z M326,168.7c-7.2,2.9-18.7,5.2-27.3,5.4h-1.3c-5,0-8.2-0.7-9.1-0.8
	c0,0-6.7-1.3-8.7-1.6c-4.7-1-16.9-2.8-5.2-10.4c4.4-2.8,9.2-4.7,14.6-6c3.3-0.5,8.6-1.5,13.6-1.5c3.8,0,6.7,0.5,10.9,1.3
	c6.1,1.1,14.9,2.4,14.9,2.4C340.1,159.6,335.6,164.8,326,168.7z"/>
<path class="st8" d="M501.3,204.8c-2-0.3-3.6-0.7-5.1-1c-2.3-0.7-5.3-1.1-8.3-1.6c-5.2-0.7-5.4-1.6-1.2-4.2
	c11.1-7,22.5-14.2,33.6-21.2c4.4-2.8,18.1-11.4,18.1-11.4l0,0l7.5-4.7c8.8-5.5,17.6-11.1,26.4-16.6c1.6-1,3.1-2,4.7-2.9
	c2.1-1.3,4.1-2.6,5.7-3.6c1.7,0.5,4.3,1,6.9,1.5c2,0.3,4.1,0.8,6.7,1.3c13.7,2.9,15.9,9,5.2,16c-24.5,16-47.9,30.4-70,44.1
	c-9.2,5.5-17.1,5.5-20.5,5.5C507.4,206,504.1,205.6,501.3,204.8z"/>
<path class="st8" d="M216.5,69c-3-0.5-6-1-8.3-1.6c-1.6-0.3-3.1-0.7-5.1-1c-3.4-0.5-6.6-0.8-9.6-0.8c-3.3,0-11.7,0-21,5.9
	c-24.2,15-47.7,29.8-70,44.1c-10.4,6.8-8.3,12.9,6.3,15.8c5,0.8,9.7,1.8,13.1,2.3c2.7-1.5,6.4-3.7,10-6
	c13.2-8.3,26.4-16.6,39.3-24.7c4.4-2.8,8.5-5.4,12.9-8.1c10.9-6.8,22.2-14,33.3-21C222,70.8,221.9,69.9,216.5,69z"/>
</svg>
