<?xml version="1.0" encoding="utf-8"?>
<!-- Generator: Adobe Illustrator 19.0.0, SVG Export Plug-In . SVG Version: 6.00 Build 0)  -->
<svg version="1.1" id="Layer_1" xmlns="http://www.w3.org/2000/svg" xmlns:xlink="http://www.w3.org/1999/xlink" x="0px" y="0px"
	 viewBox="206 -206 512 512" style="enable-background:new 206 -206 512 512;" xml:space="preserve">
<style type="text/css">
	.st0{display:none;}
	.st1{display:inline;fill:#9BAAAB;}
	.st2{display:none;fill:#FFD1A9;}
	.st3{fill:#E6EAEA;}
	.st4{fill:#CDD4D5;}
	.st5{fill:#9BAAAB;}
	.st6{fill:#4ACFD9;}
	.st7{fill:#0295AA;}
	.st8{fill:#365558;}
	.st9{fill:#FD6A33;}
	.st10{fill:#F0353D;}
	.st11{fill:#FFFFFF;}
	.st12{fill:none;stroke:#F0353D;stroke-width:10;stroke-linecap:round;stroke-linejoin:round;}
</style>
<rect x="622.6" y="-627" class="st0" width="513" height="512"/>
<g class="st0">
	<ellipse transform="matrix(0.5268 -0.85 0.85 0.5268 785.8727 664.8201)" class="st1" cx="990" cy="-373.4" rx="18.8" ry="11.4"/>
	
		<ellipse transform="matrix(0.5268 -0.85 0.85 0.5268 787.5573 629.8184)" class="st1" cx="959.4" cy="-392.4" rx="18.8" ry="11.4"/>
	<ellipse transform="matrix(0.5268 -0.85 0.85 0.5268 789.0763 594.972)" class="st1" cx="928.9" cy="-411.2" rx="18.8" ry="11.4"/>
	<ellipse class="st1" cx="888" cy="-524.8" rx="10.2" ry="16.9"/>
	<ellipse class="st1" cx="920.3" cy="-524.8" rx="10.2" ry="16.9"/>
	<ellipse class="st1" cx="952.6" cy="-524.8" rx="10.2" ry="16.9"/>
	
		<ellipse transform="matrix(0.5268 -0.85 0.85 0.5268 832.4231 667.0457)" class="st1" cx="1015.3" cy="-414.1" rx="18.8" ry="11.4"/>
	
		<ellipse transform="matrix(0.5268 -0.85 0.85 0.5268 834.1075 632.0438)" class="st1" cx="984.7" cy="-433.1" rx="18.8" ry="11.4"/>
	<ellipse transform="matrix(0.5268 -0.85 0.85 0.5268 835.6779 597.0878)" class="st1" cx="954.1" cy="-452" rx="18.8" ry="11.4"/>
	<ellipse class="st1" cx="888" cy="-481.7" rx="10.2" ry="16.9"/>
	<ellipse class="st1" cx="920.3" cy="-481.7" rx="10.2" ry="16.9"/>
	<ellipse class="st1" cx="952.6" cy="-481.7" rx="10.2" ry="16.9"/>
</g>
<ellipse class="st2" cx="797" cy="-397" rx="11.1" ry="19.3"/>
<path class="st2" d="M889.5-397c0-10.3-4.6-18.8-10.5-19.3v38.6C884.8-378.3,889.5-386.7,889.5-397z"/>
<path class="st2" d="M878.5-416.4c-0.2,0-0.4,0-0.6,0.1v38.6c0.2,0,0.4,0.1,0.6,0.1s0.4,0,0.6-0.1v-38.6
	C878.8-416.3,878.7-416.4,878.5-416.4z"/>
<path class="st2" d="M867.5-397c0,10.3,4.6,18.7,10.4,19.3v-38.6C872-415.7,867.5-407.3,867.5-397z"/>
<ellipse class="st2" cx="960" cy="-397" rx="11.1" ry="19.3"/>
<ellipse class="st2" cx="797" cy="-322.9" rx="11.1" ry="19.3"/>
<path class="st2" d="M889.5-322.9c0-10.3-4.6-18.8-10.5-19.3v38.6C884.8-304.2,889.5-312.6,889.5-322.9z"/>
<path class="st2" d="M878.5-342.3c-0.2,0-0.4,0-0.6,0.1v38.6c0.2,0,0.4,0.1,0.6,0.1s0.4,0,0.6-0.1v-38.6
	C878.8-342.3,878.7-342.3,878.5-342.3z"/>
<path class="st2" d="M867.5-322.9c0,10.3,4.6,18.7,10.4,19.3v-38.6C872-341.6,867.5-333.2,867.5-322.9z"/>
<ellipse class="st2" cx="960" cy="-322.9" rx="11.1" ry="19.3"/>
<ellipse class="st2" cx="797" cy="-248.9" rx="11.1" ry="19.3"/>
<path class="st2" d="M889.5-248.9c0-10.3-4.6-18.8-10.5-19.3v38.6C884.8-230.1,889.5-238.5,889.5-248.9z"/>
<path class="st2" d="M878.5-268.2c-0.2,0-0.4,0-0.6,0.1v38.6c0.2,0,0.4,0.1,0.6,0.1s0.4,0,0.6-0.1v-38.6
	C878.8-268.2,878.7-268.2,878.5-268.2z"/>
<path class="st2" d="M867.5-248.9c0,10.3,4.6,18.7,10.4,19.3v-38.6C872-267.6,867.5-259.2,867.5-248.9z"/>
<ellipse class="st2" cx="960" cy="-248.9" rx="11.1" ry="19.3"/>
<ellipse class="st2" cx="797" cy="-174.8" rx="11.1" ry="19.3"/>
<path class="st2" d="M889.5-174.8c0-10.3-4.6-18.8-10.5-19.3v38.6C884.8-156,889.5-164.5,889.5-174.8z"/>
<path class="st2" d="M878.5-194.1c-0.2,0-0.4,0-0.6,0.1v38.6c0.2,0,0.4,0.1,0.6,0.1s0.4,0,0.6-0.1V-194
	C878.8-194.1,878.7-194.1,878.5-194.1z"/>
<path class="st2" d="M867.5-174.8c0,10.3,4.6,18.7,10.4,19.3v-38.6C872-193.5,867.5-185.1,867.5-174.8z"/>
<ellipse class="st2" cx="960" cy="-174.8" rx="11.1" ry="19.3"/>
<g>
	<path class="st3" d="M406.3,75.6H232.5c-2.5,0-4.6,2.2-4.6,5v163.5l56,61.3h122.4c2.5,0,4.6-2.2,4.6-5V80.6
		C410.9,77.8,408.8,75.6,406.3,75.6z"/>
	<path class="st4" d="M232.5,75.6c-2.5,0-4.6,2.2-4.6,5v163.5l56,61.3h31.8V75.6H232.5z"/>
	<path id="SVGCleanerId_0" class="st5" d="M279.3,244.2h-51.4l56,61.3v-56.3C283.9,246.4,281.9,244.2,279.3,244.2z"/>
	<g>
		<path class="st6" d="M379.4,125.8h-120c-2.5,0-4.6-2.2-4.6-5s2.1-5,4.6-5h120c2.5,0,4.6,2.2,4.6,5
			C384,123.6,381.9,125.8,379.4,125.8z"/>
		<path class="st6" d="M379.4,168.7h-120c-2.5,0-4.6-2.2-4.6-5c0-2.8,2.1-5,4.6-5h120c2.5,0,4.6,2.2,4.6,5
			C384,166.5,381.9,168.7,379.4,168.7z"/>
		<path class="st6" d="M379.4,211.6h-120c-2.5,0-4.6-2.2-4.6-5c0-2.8,2.1-5,4.6-5h120c2.5,0,4.6,2.2,4.6,5S381.9,211.6,379.4,211.6z
			"/>
		<path class="st6" d="M379.4,254.5h-120c-2.5,0-4.6-2.2-4.6-5c0-2.8,2.1-5,4.6-5h120c2.5,0,4.6,2.2,4.6,5
			C384,252.2,381.9,254.5,379.4,254.5z"/>
	</g>
	<g>
		<path class="st7" d="M259.4,115.8c-2.5,0-4.6,2.2-4.6,5s2.1,5,4.6,5h56.3v-10H259.4z"/>
		<path class="st7" d="M259.4,158.7c-2.5,0-4.6,2.2-4.6,5c0,2.8,2.1,5,4.6,5h56.3v-10.1L259.4,158.7L259.4,158.7z"/>
		<path class="st7" d="M254.8,206.6c0,2.8,2.1,5,4.6,5h56.3v-10.1h-56.3C256.8,201.5,254.8,203.8,254.8,206.6z"/>
		<path class="st7" d="M254.8,249.5c0,2.8,2.1,5,4.6,5h56.3v-10.1h-56.3C256.8,244.4,254.8,246.7,254.8,249.5z"/>
	</g>
	<g>
		<path id="SVGCleanerId_0_1_" class="st5" d="M279.3,244.2h-51.4l56,61.3v-56.3C283.9,246.4,281.9,244.2,279.3,244.2z"/>
	</g>
</g>
<g>
	<path class="st3" d="M579.2-205.9h-40.5V186h40.5c35.3,0,64.1-28.9,64.1-64.1v-263.6C643.3-177.1,614.5-205.9,579.2-205.9z"/>
	<path class="st4" d="M498-205.9c-35.3,0-64.1,28.9-64.1,64.1v263.6c0,35.3,28.8,64.1,64.1,64.1h40.5V-206L498-205.9L498-205.9z"/>
	<path class="st7" d="M579.2-181.2h-40.5v78.7h40.5c21.7,0,39.4-17.6,39.4-39.4l0,0C618.5-163.5,600.9-181.2,579.2-181.2z"/>
	<path class="st8" d="M498-181.2c-21.7,0-39.4,17.6-39.4,39.4l0,0c0,21.7,17.6,39.4,39.4,39.4h40.5v-78.7L498-181.2L498-181.2z"/>
	<path class="st9" d="M538.4,112.2v47.3h34.5c18.5,0,33.5-15,33.5-33.5l0,0C606.5,116.8,572.4,112.2,538.4,112.2z"/>
	<path class="st10" d="M470.5,126L470.5,126c0,18.5,15,33.5,33.5,33.5h34.5v-47.3C504.5,112.2,470.5,116.8,470.5,126z"/>
	<path class="st7" d="M481.8-79.9h-13.2c-9.2,0-16.8,7.6-16.8,16.8v9.3c0,9.2,7.6,16.8,16.8,16.8h13.2c9.2,0,16.8-7.6,16.8-16.8
		v-9.3C498.5-72.3,491-79.9,481.8-79.9z"/>
	<path class="st6" d="M545.4-79.9h-6.8V-37h6.8c9.2,0,16.8-7.6,16.8-16.8v-9.4C562.1-72.3,554.6-79.9,545.4-79.9z"/>
	<path class="st7" d="M532.1-79.9c-9.2,0-16.8,7.6-16.8,16.8v9.3c0,9.2,7.6,16.8,16.8,16.8h6.5v-42.9H532.1L532.1-79.9z"/>
	<path class="st6" d="M608.9-36.9h-13.2c-9.2,0-16.8-7.5-16.8-16.8v-9.4c0-9.2,7.5-16.8,16.8-16.8h13.2c9.2,0,16.8,7.6,16.8,16.8
		v9.3C625.7-44.5,618.2-36.9,608.9-36.9z"/>
	<path class="st7" d="M481.8-17.1h-13.2c-9.2,0-16.8,7.6-16.8,16.8V9c0,9.2,7.6,16.8,16.8,16.8h13.2c9.2,0,16.8-7.6,16.8-16.8v-9.4
		C498.5-9.5,491-17.1,481.8-17.1z"/>
	<path class="st6" d="M545.4-17.1h-6.8v42.9h6.8c9.2,0,16.8-7.6,16.8-16.8v-9.4C562.1-9.5,554.6-17.1,545.4-17.1z"/>
	<path class="st7" d="M532.1-17.1c-9.2,0-16.8,7.6-16.8,16.8V9c0,9.2,7.6,16.8,16.8,16.8h6.5V-17L532.1-17.1L532.1-17.1z"/>
	<path class="st6" d="M608.9,25.8h-13.2c-9.2,0-16.8-7.6-16.8-16.8v-9.4c0-9.2,7.5-16.8,16.8-16.8h13.2c9.2,0,16.8,7.6,16.8,16.8
		v9.3C625.7,18.2,618.2,25.8,608.9,25.8z"/>
	<path class="st7" d="M481.8,45.6h-13.2c-9.2,0-16.8,7.6-16.8,16.8v9.3c0,9.2,7.6,16.8,16.8,16.8h13.2c9.2,0,16.8-7.6,16.8-16.8
		v-9.3C498.5,53.2,491,45.6,481.8,45.6z"/>
	<path class="st6" d="M545.4,45.6h-6.8v42.9h6.8c9.2,0,16.8-7.6,16.8-16.8v-9.3C562.1,53.2,554.6,45.6,545.4,45.6z"/>
	<path class="st7" d="M532.1,45.6c-9.2,0-16.8,7.6-16.8,16.8v9.3c0,9.2,7.6,16.8,16.8,16.8h6.5v-43L532.1,45.6L532.1,45.6z"/>
	<path class="st6" d="M608.9,88.5h-13.2c-9.2,0-16.8-7.5-16.8-16.8v-9.3c0-9.2,7.5-16.8,16.8-16.8h13.2c9.2,0,16.8,7.5,16.8,16.8
		v9.3C625.7,81,618.2,88.5,608.9,88.5z"/>
	<path class="st11" d="M623.3-155.8c-1.2-0.7-2-2-2.1-3.4c-1.2-7.9-5.7-14.9-12.5-19.2c-2.3-1.4-2.9-4.4-1.6-6.5
		c1.3-2.1,4.4-2.9,6.5-1.6c9.2,5.7,15.4,15.1,16.8,25.9c0.4,2.6-1.4,5-4,5.4C625.4-154.9,624.3-155.2,623.3-155.8z"/>
	<path class="st11" d="M453.5,130.2c1.2,0.7,2,2,2.1,3.4c1.2,7.9,5.7,14.9,12.5,19.2c2.3,1.4,2.9,4.4,1.6,6.5
		c-1.4,2.2-4.4,2.9-6.5,1.6c-9.2-5.7-15.4-15.1-16.8-25.9c-0.4-2.6,1.4-5,4-5.4C451.6,129.3,452.6,129.6,453.5,130.2z"/>
</g>
<g>
	<g>
		<g>
			<g>
				<path class="st12" d="M316.2,62c2.1-38.8,21.2-60.2,67.8-60.2h35.6"/>
				<g>
					
						<rect x="303" y="48.1" transform="matrix(-0.9998 -1.790475e-002 1.790475e-002 -0.9998 631.1568 128.3443)" class="st10" width="26.4" height="26.4"/>
				</g>
				<g>
					<circle class="st10" cx="418.9" cy="1.7" r="15"/>
				</g>
			</g>
		</g>
	</g>
</g>
<g>
	<g>
		<g>
			<g>
				<path class="st12" d="M427.9,1.5h-16.5c-43.5,0-67.7-18.5-67.7-68l-0.1-8.6c0-43.5,18.5-67.7,68-67.7l-0.1-0.2l7.6,0.1"/>
				<g>
					<circle class="st10" cx="418.3" cy="-142.9" r="15"/>
				</g>
			</g>
		</g>
	</g>
</g>
<g>
	<g>
		<path class="st12" d="M538.4,198.5l0,11.3l0.2-0.1c0,49.5,24.2,68,67.7,68l38.1-0.2c49.5,0,68-24.2,68-67.7V-72.9h-0.2
			c0-43.8-18.9-63.3-53.4-67.2"/>
		<g>
			
				<rect x="525.2" y="186" transform="matrix(-1 -4.191709e-003 4.191709e-003 -1 1075.9828 400.6611)" class="st10" width="26.4" height="26.4"/>
		</g>
		<g>
			<circle class="st10" cx="659.5" cy="-140" r="15"/>
		</g>
	</g>
</g>
</svg>
