<?xml version="1.0" encoding="utf-8"?>
<!-- Generator: Adobe Illustrator 19.0.0, SVG Export Plug-In . SVG Version: 6.00 Build 0)  -->
<svg version="1.1" id="Layer_1" xmlns="http://www.w3.org/2000/svg" xmlns:xlink="http://www.w3.org/1999/xlink" x="0px" y="0px"
	 viewBox="206 -206 512 512" style="enable-background:new 206 -206 512 512;" xml:space="preserve">
<style type="text/css">
	.st0{display:none;fill:#9BAAAB;}
	.st1{display:none;fill:#687F82;}
	.st2{fill:#4ACFD9;}
	.st3{fill:#0295AA;}
	.st4{fill:#CDD4D5;}
	.st5{fill:#FF8C29;}
	.st6{fill:#FD6A33;}
	.st7{fill:#F0353D;}
	.st8{fill:#FFFFFF;}
</style>
<path class="st0" d="M1033.4-520.6H311.5c-7.8,0-14.1,6.3-14.1,14.1v706.8c0,7.8,6.3,14.1,14.1,14.1h721.8c7.8,0,14.1-6.3,14.1-14.1
	v-706.8C1047.4-514.3,1041.1-520.6,1033.4-520.6z M846.3-174.7H686.5V-327h159.8V-174.7z M874.5-327h144.7v152.3H874.5V-327z
	 M686.5-355.2v-137.2h159.8v137.2H686.5z M658.4-355.2H498.6v-137.2h159.8V-355.2L658.4-355.2z M658.4-327v152.3H498.6V-327H658.4z
	 M470.4-174.7H325.6V-327h144.7v152.3H470.4z M325.6-146.5h144.7V5.8H325.6V-146.5z M498.6-146.5h159.8V5.8H498.6V-146.5z
	 M658.4,33.9v152.3H498.6V33.9H658.4L658.4,33.9z M686.5,33.9h159.8v152.3H686.5V33.9L686.5,33.9z M686.5,5.7v-152.2h159.8V5.8
	L686.5,5.7L686.5,5.7z M874.5-146.5h144.7V5.8H874.5V-146.5z M1019.3-355.2H874.5v-137.2h144.7L1019.3-355.2L1019.3-355.2z
	 M470.4-492.4v137.2H325.6v-137.2H470.4z M325.6,33.9h144.7v152.3H325.6V33.9z M874.5,186.2V33.9h144.7v152.3H874.5z"/>
<path class="st1" d="M311.5-520.6c-7.8,0-14.1,6.3-14.1,14.1v706.8c0,7.8,6.3,14.1,14.1,14.1h359v-735H311.5z M470.4,186.2H325.6
	V33.9h144.7v152.3H470.4z M470.4,5.7H325.6v-152.2h144.7V5.7H470.4z M470.4-174.7H325.6V-327h144.7v152.3H470.4z M470.4-355.2H325.6
	v-137.2h144.7v137.2H470.4z M658.4,186.2H498.6V33.9h159.8V186.2L658.4,186.2z M658.4,5.7H498.6v-152.2h159.8V5.7L658.4,5.7z
	 M658.4-174.7H498.6V-327h159.8V-174.7L658.4-174.7z M498.6-355.2v-137.2h159.8v137.2H498.6z"/>
<path class="st2" d="M307.5,107c-54.9,0-99.5,44.7-99.5,99.5s44.7,99.5,99.5,99.5s99.5-44.7,99.5-99.5S362.4,107,307.5,107z"/>
<path class="st3" d="M208,206.5c0,53.7,42.7,97.5,95.9,99.4V107.1C250.7,109,208,152.9,208,206.5z"/>
<path class="st4" d="M611.8-154.4c-2.8-2.8-7.4-2.8-10.2,0L415.7,31.4c-0.4,0.4-0.6,0.8-0.9,1.2l-60.1,92.9c-1.8,2.8-1.4,6.6,1,9.1
	l9.5,9.5l272.6-272.6L611.8-154.4L611.8-154.4z"/>
<path class="st4" d="M382.6,158.6c1.4,0,2.8-0.4,4-1.1l92.9-60.1c0.4-0.3,0.8-0.6,1.2-0.9L666.5-89.3c2.8-2.8,2.8-7.4,0-10.2
	l-28.8-28.8L365,144.2l12.3,12.3C378.8,157.9,380.7,158.6,382.6,158.6z"/>
<path class="st5" d="M704.7-192.6c-17.9-17.9-47-17.9-64.9,0l-43.7,43.7c-2.8,2.8-2.8,7.4,0,10.2L650.7-84c1.4,1.4,3.3,2.1,5.1,2.1
	s3.7-0.7,5.1-2.1l43.7-43.7c8.7-8.7,13.4-20.2,13.4-32.4C718.1-172.4,713.3-184,704.7-192.6z"/>
<path class="st6" d="M699.2-77.8L589.9-187.1c-2.8-2.8-7.4-2.8-10.2,0l-27.3,27.3c-2.8,2.8-2.8,7.4,0,10.2L661.7-40.3
	c1.4,1.4,3.3,2.1,5.1,2.1s3.7-0.7,5.1-2.1l27.3-27.3c1.3-1.3,2.1-3.3,2.1-5.1C701.3-74.6,700.6-76.5,699.2-77.8z"/>
<path class="st7" d="M644.8-132.3l-37.5,37.5l54.4,54.4c1.4,1.4,3.3,2.1,5.1,2.1s3.7-0.7,5.1-2.1l27.3-27.3c1.3-1.3,2.1-3.3,2.1-5.1
	c0-2-0.8-3.7-2.1-5.1L644.8-132.3z"/>
<g>
	<path class="st8" d="M448.1,49.2c-1.8,0-3.7-0.7-5.1-2.1c-2.8-2.8-2.8-7.4,0-10.2l21.8-21.8c2.8-2.8,7.4-2.8,10.2,0s2.8,7.4,0,10.2
		l-21.8,21.8C451.9,48.6,450,49.3,448.1,49.2z"/>
	<path class="st8" d="M491.8,5.5c-1.8,0-3.7-0.7-5.1-2.1c-2.8-2.8-2.8-7.4,0-10.2l76.5-76.5c2.8-2.8,7.4-2.8,10.2,0s2.8,7.4,0,10.2
		L496.9,3.4C495.6,4.9,493.7,5.6,491.8,5.5z"/>
</g>
</svg>
