<?xml version="1.0" encoding="utf-8"?>
<!-- Generator: Adobe Illustrator 19.0.0, SVG Export Plug-In . SVG Version: 6.00 Build 0)  -->
<svg version="1.1" id="Layer_1" xmlns="http://www.w3.org/2000/svg" xmlns:xlink="http://www.w3.org/1999/xlink" x="0px" y="0px"
	 viewBox="206 -206 512 512" style="enable-background:new 206 -206 512 512;" xml:space="preserve">
<style type="text/css">
	.st0{fill:#9BAAAB;}
	.st1{fill:#687F82;}
	.st2{fill:#FD6A33;}
	.st3{fill:#F0353D;}
</style>
<path class="st0" d="M797.5-304.2H135.4c-7.1,0-12.9,5.8-12.9,12.9V357c0,7.1,5.8,12.9,12.9,12.9h662.1c7.1,0,12.9-5.8,12.9-12.9
	v-648.3C810.4-298.4,804.6-304.2,797.5-304.2z M625.9,13.1H479.4v-139.7h146.6V13.1z M651.8-126.6h132.8V13.1H651.8V-126.6z
	 M479.4-152.4v-125.9h146.6v125.9H479.4z M453.5-152.4H307v-125.9h146.6V-152.4z M453.5-126.6V13.1H307v-139.7H453.5z M281.1,13.1
	H148.3v-139.7h132.8V13.1z M148.3,38.9h132.8v139.7H148.3V38.9z M307,38.9h146.6v139.7H307V38.9z M453.5,204.5v139.7H307V204.5
	L453.5,204.5L453.5,204.5z M479.4,204.5h146.6v139.7H479.4L479.4,204.5L479.4,204.5z M479.4,178.6V38.9h146.6v139.7L479.4,178.6
	L479.4,178.6z M651.8,38.9h132.8v139.7H651.8V38.9z M784.6-152.4H651.8v-125.9h132.8V-152.4z M281.1-278.3v125.9H148.3v-125.9H281.1
	z M148.3,204.5h132.8v139.7H148.3V204.5z M651.8,344.1V204.5h132.8v139.7H651.8z"/>
<path class="st1" d="M135.4-304.2c-7.1,0-12.9,5.8-12.9,12.9V357c0,7.1,5.8,12.9,12.9,12.9h329.3v-674.1H135.4z M281.1,344.1H148.3
	V204.5h132.8V344.1z M281.1,178.6H148.3V38.9h132.8V178.6z M281.1,13.1H148.3v-139.7h132.8V13.1z M281.1-152.4H148.3v-125.9h132.8
	V-152.4z M453.5,344.1H307V204.5h146.6V344.1z M453.5,178.6H307V38.9h146.6V178.6z M453.5,13.1H307v-139.7h146.6V13.1z M307-152.4
	v-125.9h146.6v125.9H307z"/>
<path class="st2" d="M466.4-22.9c-26.1,0-47.4,21.3-47.4,47.4s21.3,47.4,47.4,47.4c26.1,0,47.4-21.3,47.4-47.4
	S492.6-22.9,466.4-22.9z"/>
<path class="st3" d="M419,24.5c0,25.6,20.3,46.5,45.7,47.4v-94.7C439.4-21.9,419-1,419,24.5z"/>
</svg>
