<?xml version="1.0" encoding="utf-8"?>
<!-- Generator: Adobe Illustrator 19.0.0, SVG Export Plug-In . SVG Version: 6.00 Build 0)  -->
<svg version="1.1" id="Layer_1" xmlns="http://www.w3.org/2000/svg" xmlns:xlink="http://www.w3.org/1999/xlink" x="0px" y="0px"
	 viewBox="96 11 512 512" style="enable-background:new 96 11 512 512;" xml:space="preserve">
<style type="text/css">
	.st0{fill:#F0353D;}
	.st1{fill:#FD6A33;}
	.st2{fill:#FF8C29;}
	.st3{fill:#FFD1A9;}
	.st4{fill:#365558;}
	.st5{fill:#0295AA;}
	.st6{fill:#4ACFD9;}
	.st7{fill:#9BAAAB;}
	.st8{fill:#CDD4D5;}
	.st9{fill:#E6EAEA;}
	.st10{fill:#FFFFFF;}
	.st11{fill:#BCD643;}
</style>
<rect x="-504" y="11" class="st0" width="128" height="128"/>
<rect x="-376" y="11" class="st1" width="128" height="128"/>
<rect x="-248" y="11" class="st2" width="128" height="128"/>
<rect x="-120" y="11" class="st3" width="128" height="128"/>
<rect x="-504" y="139" class="st4" width="128" height="128"/>
<rect x="-376" y="139" class="st5" width="128" height="128"/>
<rect x="-248" y="139" class="st6" width="128" height="128"/>
<rect x="-504" y="267" class="st7" width="128" height="128"/>
<rect x="-376" y="267" class="st8" width="128" height="128"/>
<rect x="-248" y="267" class="st9" width="128" height="128"/>
<rect x="-120" y="267" class="st10" width="128" height="128"/>
<rect x="-504" y="395" class="st11" width="128" height="128"/>
<path class="st4" d="M594.6,523L594.6,523c7.4,0,13.4-6,13.4-13.3v0C608,517,602,523,594.6,523z"/>
<path class="st4" d="M96,509.6L96,509.6c0,7.4,6,13.4,13.3,13.4h0C102,523,96,517,96,509.6z"/>
<path class="st4" d="M96,509.6c0,7.4,6,13.4,13.4,13.4h485.3c7.4,0,13.4-6,13.4-13.4V497H96V509.6z"/>
<path class="st3" d="M511.3,344c-30.2-54.1-60.7-139.3-60-158C452,167.3,472,11,472,11H352c2,69,7.3,195,49.3,261.7
	s68,109.5,80.3,151.2c15.4,52.1,9.7,99.1,9.7,99.1H540C540,523,547,408,511.3,344z"/>
<path class="st2" d="M594.6,523L594.6,523c7.4,0,13.4-6,13.4-13.3c0,0,0,0,0,0C608,517,602,523,594.6,523z"/>
<path class="st2" d="M540.4,228c-4.9-62.7,30.9-217,30.9-217H484c0,0-46,103-26.7,237C473.4,359.5,544,455.3,550,523h44.6
	c7.4,0,13.4-6,13.4-13.4c0-15,0-37.9,0-42.3c0-6.7-4-38-24.7-72.3C562.7,360.7,545.3,290.7,540.4,228z"/>
<path class="st1" d="M594.7,11L594.7,11c7.3,0,13.3,6,13.3,13.4c0,0,0,0,0,0C608,17,602,11,594.7,11z"/>
<path class="st1" d="M594.6,11H550c0,0-26.7,93-25.3,181c1.3,88,33.3,134.7,58,176c24.7,41.3,25.3,78,25.3,57.3
	c0-18.4,0-331.9,0-401C608,17,602,11,594.6,11z"/>
<path class="st3" d="M222.4,423.9c12.3-41.8,38.3-84.6,80.3-151.2S350,80,352,11H232c0,0,20,156.3,20.7,175
	c0.7,18.7-29.8,103.9-60,158C157,408,164,523,164,523h48.7C212.7,523,207,476,222.4,423.9z"/>
<path class="st2" d="M96,509.6C96,509.6,96,509.7,96,509.6c0,7.4,6,13.4,13.3,13.4h0C102,523,96,517,96,509.6z"/>
<path class="st2" d="M220,11h-87.3c0,0,35.9,154.3,30.9,217s-22.3,132.7-42.9,167C100,429.3,96,460.7,96,467.3c0,4.4,0,27.3,0,42.3
	c0,7.4,6,13.4,13.4,13.4H154c6-67.7,76.6-163.5,92.7-275C266,114,220,11,220,11z"/>
<path class="st1" d="M109.4,11L109.4,11C102,11,96,17,96,24.3c0,0,0,0,0,0C96,17,102,11,109.4,11z"/>
<path class="st1" d="M121.3,368c24.7-41.3,56.7-88,58-176C180.7,104,154,11,154,11h-44.6C102,11,96,17,96,24.4c0,69,0,382.6,0,401
	C96,446,96.7,409.3,121.3,368z"/>
<path class="st4" d="M109.4,11L109.4,11C102,11,96,17,96,24.3v0C96,17,102,11,109.4,11z"/>
<path class="st4" d="M150,162c51,0,47-19.9,54-37c5.5-13.5,19.5-14.5,27,3c5.7,13.3,16.5,32.5,55.5,32.5c42.5,0,55.5-26.1,56.5-37.5
	c0.5-5.6,4.7-9,9-9.2V11H109.4C102,11,96,17,96,24.4V125C96,125,102.5,162,150,162z"/>
<path class="st5" d="M594.7,11L594.7,11c7.3,0,13.3,6,13.3,13.4c0,0,0,0,0,0C608,17,602,11,594.7,11z"/>
<path class="st5" d="M594.6,11H352v102.8c4.5-0.2,9.1,2.9,10.1,10.5c2,15,19.9,39.7,62.4,39.7c40.5,0,50-31.5,52-40.5s16-12.5,18-1
	c2.1,11.9,14.5,44,57.5,44c40,0,56-19,56-47c0-15.5,0-69.7,0-95.1C608,17,602,11,594.6,11z"/>
<path class="st5" d="M150,128.3c51,0,47-19.9,54-37c5.5-13.5,19.5-14.5,27,3c5.7,13.3,16.5,32.5,55.5,32.5
	c42.5,0,55.5-26.1,56.5-37.5c0.5-5.6,4.7-9,9-9.2V11H109.4C102,11,96,17,96,24.4v67C96,91.3,102.5,128.3,150,128.3z"/>
<path class="st6" d="M594.6,11H352v69.1c4.5-0.2,9.1,2.9,10.1,10.5c2,15,19.9,39.7,62.4,39.7c40.5,0,50-31.5,52-40.5s16-12.5,18-1
	c2.1,11.9,14.5,44,57.5,44c40,0,56-19,56-47c0-10.2,0-37,0-61.5C608,17,602,11,594.6,11z"/>
</svg>
