<?xml version="1.0" encoding="utf-8"?>
<!-- Generator: Adobe Illustrator 19.0.0, SVG Export Plug-In . SVG Version: 6.00 Build 0)  -->
<svg version="1.1" id="Layer_1" xmlns="http://www.w3.org/2000/svg" xmlns:xlink="http://www.w3.org/1999/xlink" x="0px" y="0px"
	 viewBox="96 11 512 512" style="enable-background:new 96 11 512 512;" xml:space="preserve">
<style type="text/css">
	.st0{display:none;}
	.st1{fill:#F0353D;}
	.st2{fill:#FD6A33;}
	.st3{fill:#FF8C29;}
	.st4{fill:#FFD1A9;}
	.st5{fill:#365558;}
	.st6{fill:#0295AA;}
	.st7{fill:#4ACFD9;}
	.st8{fill:none;stroke:#000000;stroke-miterlimit:10;}
	.st9{fill:#9BAAAB;}
	.st10{fill:#CDD4D5;}
	.st11{fill:#E6EAEA;}
	.st12{fill:#FFFFFF;}
	.st13{fill:#BCD643;}
</style>
<polygon class="st0" points="1260.7,-574 1002,-574 1002,-62 1514,-62 1514,-225.9 1260.7,-225.9 "/>
<rect x="1260.7" y="-574" class="st0" width="253.3" height="348.1"/>
<g class="st0">
	
		<text transform="matrix(1 0 0 1 1038.4224 -443.0488)" style="display:inline;fill:#CDD4D5; font-family:'Saira-Black'; font-size:64.1866px;">E = mc</text>
	
		<text transform="matrix(1 0 0 1 1231.1074 -464.4227)" style="display:inline;fill:#CDD4D5; font-family:'Saira-Black'; font-size:37.4208px;">2</text>
</g>
<g>
	<rect x="-601" y="-216.9" class="st1" width="128" height="128"/>
	<rect x="-473" y="-216.9" class="st2" width="128" height="128"/>
	<rect x="-345" y="-216.9" class="st3" width="128" height="128"/>
	<rect x="-217" y="-216.9" class="st4" width="128" height="128"/>
	<rect x="-601" y="-88.9" class="st5" width="128" height="128"/>
	<rect x="-473" y="-88.9" class="st6" width="128" height="128"/>
	<rect x="-345" y="-88.9" class="st7" width="128" height="128"/>
	<rect x="-217" y="-88.9" class="st8" width="128" height="128"/>
	<rect x="-601" y="39.1" class="st9" width="128" height="128"/>
	<rect x="-473" y="39.1" class="st10" width="128" height="128"/>
	<rect x="-345" y="39.1" class="st11" width="128" height="128"/>
	<rect x="-217" y="39.1" class="st12" width="128" height="128"/>
	<rect x="-601" y="167.1" class="st13" width="128" height="128"/>
	<rect x="-473" y="167.1" class="st8" width="128" height="128"/>
	<rect x="-345" y="167.1" class="st8" width="128" height="128"/>
	<rect x="-217" y="167.1" class="st8" width="128" height="128"/>
</g>
<path class="st7" d="M484,395.7c-5.1,0-9.8-3-12.9-7.7L352,199v118l90.8,142c3.1,4.7,7.9,7.7,12.8,7.7h48.2v-70.9H484z"/>
<path class="st6" d="M271.6,71.4c-3.1-4.9-7.9-7.7-12.8-7.7h-58.7V137H229c4.9,0,9.7,3,12.8,7.7L352,317V199L271.6,71.4z"/>
<path class="st2" d="M238.9,387.8c-3.1,4.9-7.9,7.7-12.8,7.7h-25.2c-0.3,0-0.5,0-0.8,0v70.9h54.5c4.9,0,9.7-3,12.8-7.7l56.8-95
	l-37.3-58.4L238.9,387.8z"/>
<path class="st3" d="M451,63.6c-4.9,0-9.7,3-12.8,7.7l-52.4,89.9l37.5,59.6l44.8-76.2c3.1-4.7,7.9-7.7,12.8-7.7h22.9V63.6H451z"/>
<polygon class="st2" points="96.2,430.6 200.5,523 200.5,338.4 "/>
<polygon class="st7" points="503.7,523 608,430.7 503.7,338.4 "/>
<polygon class="st3" points="503.5,195.6 607.8,103.4 503.5,11 "/>
<polygon class="st13" points="96,103.3 96.2,103.4 96.2,103.1 "/>
<polygon class="st6" points="200.3,11 96.2,103.1 96.2,103.4 200.3,195.6 "/>
</svg>
