<?xml version="1.0" encoding="iso-8859-1"?>
<!-- Generator: Adobe Illustrator 19.0.0, SVG Export Plug-In . SVG Version: 6.00 Build 0)  -->
<svg version="1.1" id="Layer_1" xmlns="http://www.w3.org/2000/svg" xmlns:xlink="http://www.w3.org/1999/xlink" x="0px" y="0px"
	 viewBox="0 0 512 512" style="enable-background:new 0 0 512 512;" xml:space="preserve">
<path style="fill:#4ACFD9;" d="M499.604,0H12.396C7.931,0,4.312,3.62,4.312,8.084v495.832c0,4.465,3.62,8.084,8.084,8.084h487.208
	c4.465,0,8.084-3.62,8.084-8.084V8.084C507.688,3.62,504.069,0,499.604,0z"/>
<path style="fill:#0295AA;" d="M12.396,0C7.931,0,4.312,3.62,4.312,8.084v495.832c0,4.465,3.62,8.084,8.084,8.084h244.837V0H12.396z
	"/>
<path style="fill:#CDD4D5;" d="M505.203,407.541L397.413,304.063c-3.104-2.981-8-3.006-11.135-0.059l-101.072,95.008
	l-132.589-184.38c-1.519-2.113-3.962-3.364-6.563-3.364c-0.013,0-0.026,0-0.039,0c-2.616,0.013-5.063,1.29-6.57,3.428L5.787,404.405
	c-0.96,1.364-1.476,2.99-1.476,4.657v94.855c0,4.465,3.62,8.084,8.084,8.084h487.208c4.465,0,8.084-3.62,8.084-8.084v-90.543
	C507.688,411.172,506.79,409.065,505.203,407.541z"/>
<path style="fill:#FFD1A9;" d="M335.764,155.217c-37.741,0-68.446,30.705-68.446,68.446s30.705,68.446,68.446,68.446
	s68.446-30.705,68.446-68.446S373.506,155.217,335.764,155.217z"/>
<g>
	<path style="fill:#FF8C29;" d="M267.318,223.663c0,37.741,30.705,68.446,68.446,68.446V155.217
		C298.023,155.217,267.318,185.922,267.318,223.663z"/>
	<path style="fill:#FF8C29;" d="M507.688,431.158H4.312v72.758c0,4.465,3.62,8.084,8.084,8.084h487.208
		c4.465,0,8.084-3.62,8.084-8.084V431.158z"/>
</g>
<g>
	<path style="fill:#FFFFFF;" d="M452.177,98.088c-4.465,0-8.084-3.62-8.084-8.084c0-9.807-7.979-17.785-17.785-17.785
		s-17.785,7.979-17.785,17.785c0,4.465-3.62,8.084-8.084,8.084c-4.465,0-8.084-3.62-8.084-8.084c0-9.807-7.979-17.785-17.785-17.785
		c-9.807,0-17.785,7.979-17.785,17.785c0,4.465-3.62,8.084-8.084,8.084c-4.465,0-8.084-3.62-8.084-8.084
		c0-9.807-7.979-17.785-17.785-17.785s-17.785,7.979-17.785,17.785c0,4.465-3.62,8.084-8.084,8.084s-8.084-3.62-8.084-8.084
		c0-18.722,15.232-33.954,33.954-33.954c10.351,0,19.637,4.657,25.869,11.985c6.232-7.329,15.517-11.985,25.869-11.985
		c10.351,0,19.637,4.657,25.869,11.985c6.232-7.329,15.518-11.985,25.869-11.985c18.722,0,33.954,15.232,33.954,33.954
		C460.261,94.469,456.641,98.088,452.177,98.088z"/>
	<path style="fill:#FFFFFF;" d="M171.924,167.074c-4.465,0-8.084-3.62-8.084-8.084c0-9.807-7.979-17.785-17.785-17.785
		c-9.807,0-17.785,7.979-17.785,17.785c0,4.465-3.62,8.084-8.084,8.084s-8.084-3.62-8.084-8.084c0-9.807-7.979-17.785-17.785-17.785
		s-17.785,7.979-17.785,17.785c0,4.465-3.62,8.084-8.084,8.084s-8.084-3.62-8.084-8.084c0-18.722,15.232-33.954,33.954-33.954
		c10.352,0,19.637,4.657,25.869,11.985c6.232-7.329,15.517-11.985,25.869-11.985c18.722,0,33.954,15.232,33.954,33.954
		C180.008,163.454,176.389,167.074,171.924,167.074z"/>
</g>
<path style="fill:#9BAAAB;" d="M152.618,214.631c-1.519-2.113-3.962-3.364-6.563-3.364c-0.013,0-0.026,0-0.039,0
	c-2.616,0.013-5.063,1.29-6.57,3.428L5.787,404.405c-0.96,1.364-1.476,2.99-1.476,4.657v94.855c0,4.465,3.62,8.084,8.084,8.084
	h244.837V360.112L152.618,214.631z"/>
<path style="fill:#FD6A33;" d="M4.312,431.158v72.758c0,4.465,3.62,8.084,8.084,8.084h244.837v-80.842H4.312z"/>
<path style="fill:#CDD4D5;" d="M152.618,214.631c-1.519-2.113-3.962-3.364-6.563-3.364c-0.013,0-0.026,0-0.039,0
	c-2.616,0.013-5.063,1.29-6.57,3.428l-48.847,69.33h111.919L152.618,214.631z"/>
<path style="fill:#E6EAEA;" d="M397.413,304.063c-3.104-2.981-8-3.006-11.135-0.059l-61.309,57.63h132.413L397.413,304.063z"/>
<g>
</g>
<g>
</g>
<g>
</g>
<g>
</g>
<g>
</g>
<g>
</g>
<g>
</g>
<g>
</g>
<g>
</g>
<g>
</g>
<g>
</g>
<g>
</g>
<g>
</g>
<g>
</g>
<g>
</g>
</svg>
