<?xml version="1.0" encoding="utf-8"?>
<!-- Generator: Adobe Illustrator 19.0.0, SVG Export Plug-In . SVG Version: 6.00 Build 0)  -->
<svg version="1.1" id="Layer_1" xmlns="http://www.w3.org/2000/svg" xmlns:xlink="http://www.w3.org/1999/xlink" x="0px" y="0px"
	 viewBox="206 -206 512 512" style="enable-background:new 206 -206 512 512;" xml:space="preserve">
<style type="text/css">
	.st0{fill:#CDD4D5;}
	.st1{fill:#9BAAAB;}
	.st2{fill:#FD6A33;}
	.st3{fill:#FF8C29;}
	.st4{fill:#4ACFD9;}
	.st5{fill:#0295AA;}
	.st6{fill:#FFD1A9;}
	.st7{fill:#E6EAEA;}
	.st8{fill:none;stroke:#CDD4D5;stroke-width:10;stroke-linejoin:round;stroke-miterlimit:10;}
	.st9{fill:none;stroke:#E6EAEA;stroke-width:10;stroke-linejoin:round;stroke-miterlimit:10;}
	.st10{fill:#FFFFFF;}
</style>
<path class="st0" d="M680,217.7H465.4V250H680c7.5,0,13.6-6.1,13.6-13.6v-5.1C693.5,223.8,687.4,217.7,680,217.7z"/>
<path class="st1" d="M247.4,217.7c-7.5,0-13.6,6.1-13.6,13.6v5.1c0,7.5,6.1,13.6,13.6,13.6h218v-32.3H247.4z"/>
<path class="st2" d="M324.4-1.2h-30.6c-7.5,0-13.6,6.1-13.6,13.6l-2,191.4c0,7.5,6.1,13.6,13.6,13.6h34.6c7.5,0,13.6-6.1,13.6-13.6
	l-2-191.4C338,4.9,331.9-1.2,324.4-1.2z"/>
<path class="st2" d="M427.4-1.2h-30.6c-7.5,0-13.6,6.1-13.6,13.6l-4,191.4c0,7.5,6.1,13.6,13.6,13.6h36.6c7.5,0,13.6-6.1,13.6-13.6
	l-2-191.4C441,4.9,434.9-1.2,427.4-1.2z"/>
<path class="st3" d="M532.1-1.2h-33.8c-6.6,0-12,5.4-12,12l-2,194.6c0,6.6,5.4,12,12,12h37.8c6.6,0,12-5.4,12-12l-2-194.6
	C544.1,4.2,538.7-1.2,532.1-1.2z"/>
<path class="st3" d="M635.1-1.2h-33.8c-6.6,0-12,5.4-12,12l-2,194.6c0,6.6,5.4,12,12,12h37.8c6.6,0,12-5.4,12-12l-2-194.6
	C647.1,4.2,641.7-1.2,635.1-1.2z"/>
<path class="st4" d="M710.5-77.3L508.4-177.6c-11.8-6.9-27.4-10.4-43-10.4v135.8h238.3C717.6-52.2,724.1-68.5,710.5-77.3z"/>
<path class="st5" d="M422.4-177.6L215.8-77.3c-12.6,7.3-9.8,25.1,6.8,25.1h242.7V-188C449.8-188,434.2-184.5,422.4-177.6z"/>
<path class="st4" d="M703.7,262.5H465.4V306h238.4c7.5,0,13.6-6.1,13.6-13.6v-16.3C717.3,268.7,711.2,262.5,703.7,262.5z"/>
<path class="st5" d="M221.3,262.5c-7.5,0-13.6,6.1-13.6,13.6v16.3c0,7.5,6.1,13.6,13.6,13.6h244v-43.5H221.3z"/>
<path class="st0" d="M680-37.4H465.4v36.2H680c7.5,0,13.6-6.1,13.6-13.6v-9.1C693.5-31.3,687.4-37.4,680-37.4z"/>
<path class="st1" d="M247.4-37.4c-7.5,0-13.6,6.1-13.6,13.6v9.1c0,7.5,6.1,13.6,13.6,13.6h218v-36.2H247.4z"/>
<path class="st6" d="M630.5,203L630.5,203c-3,0-5.5-2.5-5.5-5.5V20.3c0-3,2.5-5.5,5.5-5.5l0,0c3,0,5.5,2.5,5.5,5.5v177.2
	C636,200.5,633.5,203,630.5,203z"/>
<path class="st6" d="M528.5,203L528.5,203c-3,0-5.5-2.5-5.5-5.5V20.3c0-3,2.5-5.5,5.5-5.5l0,0c3,0,5.5,2.5,5.5,5.5v177.2
	C534,200.5,531.5,203,528.5,203z"/>
<path class="st3" d="M424.4,202.2L424.4,202.2c-3,0-5.5-2.5-5.5-5.5V19.5c0-3,2.5-5.5,5.5-5.5l0,0c3,0,5.5,2.5,5.5,5.5v177.2
	C429.9,199.7,427.4,202.2,424.4,202.2z"/>
<path class="st3" d="M322.4,202.2L322.4,202.2c-3,0-5.5-2.5-5.5-5.5V19.5c0-3,2.5-5.5,5.5-5.5l0,0c3,0,5.5,2.5,5.5,5.5v177.2
	C327.9,199.7,325.4,202.2,322.4,202.2z"/>
<circle class="st0" cx="411.1" cy="-19" r="12.5"/>
<circle class="st0" cx="309.1" cy="-19" r="12.5"/>
<circle class="st7" cx="617.7" cy="-19.3" r="12.5"/>
<circle class="st7" cx="515.6" cy="-19.3" r="12.5"/>
<polyline class="st8" points="411.1,-19 411.1,-82.7 465.4,-82.7 "/>
<polyline class="st8" points="309.1,-19 309.1,-82.7 373.3,-82.7 373.3,-116 465.4,-116 "/>
<polyline class="st9" points="516.3,-19 516.3,-82.7 462.1,-82.7 "/>
<polyline class="st9" points="618.4,-19 618.4,-82.7 554.1,-82.7 554.1,-116 462.1,-116 "/>
<path class="st3" d="M465.4-170.6v109.3c30.2,0,54.6-24.5,54.6-54.6S495.5-170.6,465.4-170.6z"/>
<path class="st2" d="M410.7-116c0,30.2,24.5,54.6,54.6,54.6v-109.3C435.2-170.6,410.7-146.2,410.7-116z"/>
<path class="st10" d="M485.8-118.4c4.7-2.4,7.6-6.6,6.9-13.6c-0.9-9.6-8.8-12.8-19.3-13.7v-13.3h-8.1v13c-2.1,0-4.3,0.1-6.4,0.1
	v-13.1h-8.1v13.3c-3,0.1-6.5,0-16.3,0v8.7c6.4-0.1,9.8-0.5,10.6,3.6v36.5c-0.5,3.3-3.1,2.8-8.9,2.7l-1.6,9.7
	c14.8,0,16.3,0.1,16.3,0.1v11.4h8.1v-11.2c2.2,0.1,4.4,0.1,6.4,0.1v11.2h8.1v-11.4c13.6-0.7,22.8-4.2,24-17
	C498.3-112,493.5-116.6,485.8-118.4L485.8-118.4z M459-136.6c4.6,0,19-1.4,19,8.1c0,9.1-14.4,8.1-19,8.1V-136.6L459-136.6z
	 M459-94.3v-17.9c5.5,0,22.3-1.5,22.3,8.9C481.3-93.2,464.5-94.3,459-94.3L459-94.3z"/>
</svg>
