<?xml version="1.0" encoding="utf-8"?>
<!-- Generator: Adobe Illustrator 19.0.0, SVG Export Plug-In . SVG Version: 6.00 Build 0)  -->
<svg version="1.1" id="Layer_1" xmlns="http://www.w3.org/2000/svg" xmlns:xlink="http://www.w3.org/1999/xlink" x="0px" y="0px"
	 viewBox="96 11 512 512" style="enable-background:new 96 11 512 512;" xml:space="preserve">
<style type="text/css">
	.st0{display:none;fill:#365558;}
	.st1{fill:#CDD4D5;}
	.st2{fill:#9BAAAB;}
	.st3{fill:#0295AA;}
	.st4{fill:#4ACFD9;}
	.st5{fill:#FF8C29;}
	.st6{fill:#FD6A33;}
	.st7{fill:#E6EAEA;}
	.st8{fill:none;stroke:#CDD4D5;stroke-width:10;stroke-linejoin:round;stroke-miterlimit:10;}
	.st9{fill:none;stroke:#E6EAEA;stroke-width:10;stroke-linejoin:round;stroke-miterlimit:10;}
	.st10{fill:#FFFFFF;}
	.st11{fill:#FFD1A9;}
</style>
<circle class="st0" cx="558" cy="61" r="256"/>
<path class="st1" d="M1209.6,373.7h-132.7v20h132.7c4.6,0,8.4-3.8,8.4-8.4v-3.2C1218,377.5,1214.2,373.7,1209.6,373.7z"/>
<path class="st2" d="M942.2,373.7c-4.6,0-8.4,3.8-8.4,8.4v3.2c0,4.6,3.8,8.4,8.4,8.4H1077v-20H942.2z"/>
<path class="st3" d="M989.8,238.4h-18.9c-4.6,0-8.4,3.8-8.4,8.4l-1.2,118.3c0,4.6,3.8,8.4,8.4,8.4h21.4c4.6,0,8.4-3.8,8.4-8.4
	l-1.2-118.3C998.2,242.2,994.4,238.4,989.8,238.4z"/>
<path class="st3" d="M1053.5,238.4h-18.9c-4.6,0-8.4,3.8-8.4,8.4l-2.5,118.3c0,4.6,3.8,8.4,8.4,8.4h22.6c4.6,0,8.4-3.8,8.4-8.4
	l-1.2-118.3C1061.9,242.2,1058.1,238.4,1053.5,238.4z"/>
<path class="st4" d="M1118.2,238.4h-20.9c-4.1,0-7.4,3.3-7.4,7.4l-1.2,120.3c0,4.1,3.3,7.4,7.4,7.4h23.3c4.1,0,7.4-3.3,7.4-7.4
	l-1.2-120.3C1125.6,241.7,1122.3,238.4,1118.2,238.4z"/>
<path class="st4" d="M1181.9,238.4H1161c-4.1,0-7.4,3.3-7.4,7.4l-1.2,120.3c0,4.1,3.3,7.4,7.4,7.4h23.3c4.1,0,7.4-3.3,7.4-7.4
	l-1.2-120.3C1189.3,241.7,1186,238.4,1181.9,238.4z"/>
<path class="st5" d="M1228.5,191.3l-125-62c-7.3-4.3-17-6.4-26.6-6.4v84h147.3C1232.9,206.9,1236.9,196.8,1228.5,191.3z"/>
<path class="st6" d="M1050.4,129.3l-127.7,62c-7.8,4.5-6,15.5,4.2,15.5H1077v-84C1067.3,122.9,1057.7,125,1050.4,129.3z"/>
<path class="st5" d="M1224.3,401.4h-147.4v26.9h147.4c4.6,0,8.4-3.8,8.4-8.4v-10.1C1232.7,405.2,1228.9,401.4,1224.3,401.4z"/>
<path class="st6" d="M926.1,401.4c-4.6,0-8.4,3.8-8.4,8.4v10.1c0,4.6,3.8,8.4,8.4,8.4H1077v-26.9H926.1z"/>
<path class="st1" d="M1209.6,216h-132.7v22.4h132.7c4.6,0,8.4-3.8,8.4-8.4v-5.6C1218,219.8,1214.2,216,1209.6,216z"/>
<path class="st2" d="M942.2,216c-4.6,0-8.4,3.8-8.4,8.4v5.6c0,4.6,3.8,8.4,8.4,8.4H1077V216H942.2z"/>
<path class="st7" d="M1180.1,364.6h-2.1c-1.3,0-2.4-1.1-2.4-2.4V250.6c0-1.3,1.1-2.4,2.4-2.4h2.1c1.3,0,2.4,1.1,2.4,2.4v111.7
	C1182.4,363.6,1181.4,364.6,1180.1,364.6z"/>
<path class="st7" d="M1117,364.6h-2.1c-1.3,0-2.4-1.1-2.4-2.4V250.6c0-1.3,1.1-2.4,2.4-2.4h2.1c1.3,0,2.4,1.1,2.4,2.4v111.7
	C1119.4,363.6,1118.3,364.6,1117,364.6z"/>
<path class="st1" d="M1052.6,364.1h-2.1c-1.3,0-2.4-1.1-2.4-2.4V250.1c0-1.3,1.1-2.4,2.4-2.4h2.1c1.3,0,2.4,1.1,2.4,2.4v111.6
	C1055,363.1,1053.9,364.1,1052.6,364.1z"/>
<path class="st1" d="M989.6,364.1h-2.1c-1.3,0-2.4-1.1-2.4-2.4V250.1c0-1.3,1.1-2.4,2.4-2.4h2.1c1.3,0,2.4,1.1,2.4,2.4v111.6
	C991.9,363.1,990.9,364.1,989.6,364.1z"/>
<circle class="st1" cx="1043.4" cy="227.4" r="7.7"/>
<circle class="st1" cx="980.3" cy="227.4" r="7.7"/>
<circle class="st7" cx="1171.1" cy="227.2" r="7.7"/>
<circle class="st7" cx="1108" cy="227.2" r="7.7"/>
<polyline class="st8" points="1043.4,227.4 1043.4,188 1076.9,188 "/>
<polyline class="st8" points="980.3,227.4 980.3,188 1020,188 1020,167.4 1076.9,167.4 "/>
<polyline class="st9" points="1108.4,227.4 1108.4,188 1074.9,188 "/>
<polyline class="st9" points="1171.5,227.4 1171.5,188 1131.8,188 1131.8,167.4 1074.9,167.4 "/>
<path class="st4" d="M1076.9,133.6v67.5c18.7,0,33.8-15.1,33.8-33.8C1110.7,148.8,1095.6,133.6,1076.9,133.6z"/>
<path class="st3" d="M1043.2,167.4c0,18.7,15.1,33.8,33.8,33.8v-67.5C1058.3,133.6,1043.2,148.8,1043.2,167.4z"/>
<path class="st10" d="M1089.5,165.9c2.9-1.5,4.7-4.1,4.3-8.4c-0.6-5.9-5.4-7.9-11.9-8.5v-8.2h-5v8c-1.3,0-2.6,0-4,0.1v-8.1h-5v8.2
	c-1.9,0.1-4,0-10.1,0v5.4c4-0.1,6.1-0.3,6.5,2.2v22.5c-0.3,2-1.9,1.7-5.5,1.7l-1,6c9.2,0,10.1,0,10.1,0v7.1h5v-7c1.4,0,2.7,0,4,0
	v6.9h5v-7.1c8.4-0.5,14.1-2.6,14.8-10.5C1097.3,169.9,1094.3,167.1,1089.5,165.9L1089.5,165.9z M1073,154.8c2.8,0,11.7-0.9,11.7,5
	c0,5.7-8.9,5-11.7,5V154.8L1073,154.8z M1073,180.8v-11c3.4,0,13.8-0.9,13.8,5.5C1086.8,181.5,1076.4,180.8,1073,180.8L1073,180.8z"
	/>
<path class="st6" d="M257.1,412.2h-20.7c-5.1,0-9.2,4.2-9.2,9.2l-0.5,50c12.8,7.2,26.2,13.3,40.3,18.3l-0.7-68.3
	C266.3,416.3,262.1,412.2,257.1,412.2z"/>
<path class="st6" d="M326.9,412.2h-20.8c-5.1,0-9.2,4.2-9.2,9.2l-1.6,76.5c13.5,3,27.3,5,41.5,5.8l-0.8-82.4
	C336,416.3,331.9,412.2,326.9,412.2z"/>
<path class="st5" d="M397.7,412.2h-22.9c-4.4,0-8.1,3.6-8.1,8.1l-0.8,83.5c13.9-0.7,27.5-2.6,40.7-5.5l-0.8-78.1
	C405.8,415.9,402.1,412.2,397.7,412.2z"/>
<path class="st5" d="M467.4,412.2h-22.9c-4.4,0-8.1,3.6-8.1,8.1l-0.7,69.9c14-4.8,27.5-10.9,40.3-18l-0.5-51.9
	C475.5,415.9,471.9,412.2,467.4,412.2z"/>
<path class="st4" d="M518.3,360.7l-136.8-67.9c-8-4.7-18.6-7-29.1-7v91.9h161.3C523.2,377.7,527.6,366.7,518.3,360.7z"/>
<path class="st3" d="M183.6,360.7c-8.5,5-6.6,17,4.6,17h164.3v-91.9c-10.6,0-21.2,2.3-29.2,7L183.6,360.7z"/>
<path class="st1" d="M497.8,387.7H352.5v24.5h145.3c5.1,0,9.2-4.2,9.2-9.2v-6.2C506.9,391.9,502.8,387.7,497.8,387.7z"/>
<path class="st2" d="M205,387.7c-5.1,0-9.2,4.2-9.2,9.2v6.1c0,5.1,4.2,9.2,9.2,9.2h147.5v-24.6L205,387.7L205,387.7z"/>
<path class="st11" d="M465.9,423h-3.2c-1.2,0-2.1,1-2.1,2.1v55c2.5-1.2,5-2.4,7.5-3.6v-51.4C468.1,424,467.1,423,465.9,423z"/>
<path class="st11" d="M396.9,423h-3.2c-1.2,0-2.1,1-2.1,2.1v76.1c2.5-0.4,5-0.8,7.5-1.3v-74.8C399,424,398,423,396.9,423z"/>
<path class="st5" d="M326.3,422.5h-3.2c-1.2,0-2.1,1-2.1,2.1v77.7c2.5,0.3,5,0.6,7.5,0.8v-78.5C328.5,423.4,327.5,422.5,326.3,422.5
	z"/>
<path class="st5" d="M257.3,422.5h-3.2c-1.2,0-2.1,1-2.1,2.1v59.3c2.5,1.1,5,2.1,7.5,3v-62.3C259.4,423.4,258.5,422.5,257.3,422.5z"
	/>
<circle class="st1" cx="315.8" cy="400.1" r="8.5"/>
<circle class="st1" cx="246.7" cy="400.1" r="8.5"/>
<circle class="st7" cx="455.6" cy="399.9" r="8.5"/>
<circle class="st7" cx="386.5" cy="399.9" r="8.5"/>
<polyline class="st8" points="315.8,400.1 315.8,357.1 352.5,357.1 "/>
<polyline class="st8" points="246.7,400.1 246.7,357.1 290.2,357.1 290.2,334.5 352.5,334.5 "/>
<polyline class="st9" points="387,400.1 387,357.1 350.3,357.1 "/>
<polyline class="st9" points="456,400.1 456,357.1 412.5,357.1 412.5,334.5 350.3,334.5 "/>
<path class="st5" d="M352.5,297.6v73.9c20.5,0,37-16.5,37-37S373,297.6,352.5,297.6z"/>
<path class="st6" d="M315.6,334.5c0,20.5,16.5,37,37,37v-73.9C332.1,297.6,315.6,314.1,315.6,334.5z"/>
<path class="st10" d="M366.3,332.9c3.1-1.6,5.2-4.4,4.7-9.3c-0.6-6.5-6-8.7-13.1-9.3v-9h-5.5v8.8c-1.4,0-2.9,0-4.4,0.1v-8.8h-5.5v9
	c-2,0.1-4.4,0-11,0v5.9c4.4-0.1,6.7-0.4,7.1,2.4v24.6c-0.4,2.2-2.1,1.9-6,1.9l-1.1,6.6c10.1,0,11,0,11,0v7.7h5.5v-7.7
	c1.5,0,2.9,0,4.4,0v7.6h5.5v-7.7c9.3-0.5,15.4-2.8,16.2-11.5C374.8,337.2,371.5,334.1,366.3,332.9z M348.2,320.6
	c3.1,0,12.8-1,12.8,5.5c0,6.2-9.7,5.5-12.8,5.5V320.6z M348.2,349.2v-12.1c3.7,0,15.1-1.1,15.1,6C363.3,350,351.9,349.2,348.2,349.2
	z"/>
<path class="st6" d="M542.6,240.3c-4.4,2.5-5.9,8.2-3.4,12.5l10.3,17.9c2.5,4.4,8.2,5.9,12.5,3.4l46-25.9c0-15.1-1.3-30-3.9-44.4
	L542.6,240.3z"/>
<path class="st6" d="M507.6,179.9c-4.4,2.5-5.9,8.2-3.4,12.5l10.3,17.9c2.5,4.4,8.2,5.9,12.5,3.4l70.3-38.6
	c-4-13.6-9.2-26.7-15.3-39.2L507.6,179.9z"/>
<path class="st5" d="M468.9,131l11.4,19.7c2.2,3.8,7.2,5.2,11.1,2.9l76.5-43.2c-7.4-11.6-15.7-22.6-24.9-32.8l-71.1,42.2
	C468.1,122.2,466.6,127.2,468.9,131z"/>
<path class="st5" d="M434.1,70.7l11.4,19.7c2.2,3.8,7.2,5.2,11.1,2.9l65.3-36.8c-11-9.7-22.8-18.5-35.3-26.3l-49.5,29.3
	C433.1,61.8,431.8,66.8,434.1,70.7z"/>
<path class="st4" d="M364,52.2l9.6,152.5c-0.1,9.3,3.2,19.6,8.5,28.7l79.6-46L380.9,47.7C376.2,39.6,364.5,41.3,364,52.2z"/>
<path class="st3" d="M543.8,329.6l-82.2-142.2l-79.6,46c5.2,9.1,12.6,17.1,20.6,21.6l128.7,87.1C539.8,347,549.5,339.4,543.8,329.6z
	"/>
<path class="st1" d="M406.4,41l-5.3,3c-4.4,2.6-6,8.3-3.4,12.6l72.6,125.8l21.2-12.2L418.9,44.4C416.5,40,410.8,38.5,406.4,41z"/>
<path class="st2" d="M565.3,298l-73.8-127.8l-21.3,12.3L544,310.2c2.5,4.4,8.2,5.9,12.5,3.4l5.3-3
	C566.3,308.1,567.8,302.4,565.3,298z"/>
<path class="st11" d="M444.1,66.4l1.6,2.8c0.5,1.1,1.9,1.3,2.8,0.8l52.3-30.2c-2.2-1.6-4.5-3.1-6.7-4.7l-49.2,28.3
	C443.9,64.1,443.6,65.5,444.1,66.4z"/>
<path class="st11" d="M478.6,126.3l1.6,2.8c0.5,1.1,1.9,1.3,2.8,0.8l69.9-40.4c-1.5-2-3.1-3.9-4.7-5.8l-68.8,39.7
	C478.5,124,478.1,125.3,478.6,126.3z"/>
<path class="st5" d="M514.3,184.8c-1.1,0.5-1.3,1.9-0.8,2.8l1.6,2.8c0.5,1.1,1.9,1.3,2.8,0.8l70.8-40.8c-1-2.3-1.9-4.6-3-6.9
	L514.3,184.8z"/>
<path class="st5" d="M548.8,244.5c-1.1,0.5-1.3,1.9-0.8,2.8l1.6,2.8c0.5,1.1,1.9,1.3,2.8,0.8l54.1-31.2c-0.3-2.7-0.6-5.4-1-8
	L548.8,244.5z"/>
<circle class="st1" cx="499.5" cy="208" r="8.5"/>
<circle class="st1" cx="534" cy="267.8" r="8.5"/>
<circle class="st7" cx="429.4" cy="87" r="8.5"/>
<circle class="st7" cx="464" cy="146.9" r="8.5"/>
<polyline class="st8" points="499.5,208 462.1,229.5 443.8,197.7 "/>
<polyline class="st8" points="534,267.8 496.6,289.3 474.9,251.7 455.4,262.9 424.1,209 "/>
<polyline class="st9" points="463.9,146.3 426.5,167.9 444.9,199.6 "/>
<polyline class="st9" points="429.4,86.5 392,108.1 413.6,145.7 394.2,157 425.4,210.9 "/>
<path class="st5" d="M405.8,176.9c-17.7,10.3-23.8,32.9-13.5,50.6l64.1-37C446.1,172.7,423.5,166.7,405.8,176.9z"/>
<path class="st6" d="M392.2,227.5c10.2,17.7,32.9,23.7,50.5,13.6c17.7-10.2,23.8-32.8,13.5-50.5L392.2,227.5z"/>
<path class="st10" d="M451.5,198.4l-6.6,3.8c-0.7-1.3-1.4-2.6-2.1-3.8l6.6-3.8l-2.8-4.8l-6.7,3.8c-5.1-7.7-10.1-11.9-18.1-8.3
	c-6.4,3-7.5,7.5-6,12.6c-2.9-2-6.4-2.2-10.3,0.5c-5.3,3.8-4.5,9.5-1.5,15.9l-7.8,4.5l2.8,4.8l7.6-4.4c0.7,1.2,1.5,2.5,2.2,3.7
	l-7.7,4.4l2.8,4.8l7.8-4.5c1.1,1.7,2.2,3.8,5.5,9.6l5.1-2.9c-2.2-3.7-3.6-5.6-1.5-7.4l21.4-12.4c2-0.8,2.7,0.9,4.6,4.4l6.2-2.3
	c-5-8.9-5.4-9.8-5.4-9.8l6.7-3.8L451.5,198.4z M414.3,219.7c-1.5-2.7-7.3-10.7-1.7-13.9c5.3-3.1,9.6,5.7,11.1,8.4L414.3,219.7z
	 M428.6,211.4c-1.9-3.2-8.5-12.5-2.3-16.1c5.9-3.3,11,6.9,12.8,10.1L428.6,211.4z"/>
<path class="st6" d="M257.7,89.2L268,71.3c2.5-4.4,1-10.1-3.4-12.5l-47.5-28.1c-12.5,7.8-24.3,16.6-35.2,26.3l63.2,35.6
	C249.5,95.2,255.2,93.7,257.7,89.2z"/>
<path class="st6" d="M222.8,149.6l10.3-17.9c2.5-4.4,1-10.1-3.4-12.5l-68.6-41.5c-9.3,10.4-17.8,21.6-25.3,33.5l74.4,41.9
	C214.6,155.6,220.3,154.1,222.8,149.6z"/>
<path class="st5" d="M187.4,211l11.4-19.8c2.2-3.8,0.9-8.9-2.9-11.1l-74-43.8c-6,12.3-11,25.2-15,38.5l69.5,39.1
	C180.2,216.2,185.2,214.8,187.4,211z"/>
<path class="st5" d="M152.5,271.4l11.4-19.7c2.2-3.8,0.9-8.9-2.9-11.1l-61.1-36.2c-2.5,14.2-3.8,28.9-3.8,43.8c0,0.2,0,0.5,0,0.7
	l45.2,25.5C145.3,276.6,150.3,275.2,152.5,271.4z"/>
<path class="st4" d="M159.2,328.8c-4.7,8.2,2.7,17.5,12.5,12.5l127.2-84.5c8.1-4.6,15.4-12.5,20.6-21.7l-79.6-46L159.2,328.8z"/>
<path class="st3" d="M322,46.9l-82.2,142.2l79.6,46c5.3-9.2,8.5-19.5,8.5-28.7l11.1-155C339.1,41.5,327.6,37.2,322,46.9z"/>
<path class="st1" d="M137.3,297.6c-2.5,4.4-1,10.1,3.4,12.5l5.3,3c4.4,2.6,10.1,1.1,12.5-3.3L231.1,184l-21.3-12.3L137.3,297.6z"/>
<path class="st2" d="M301.6,43.8l-5.3-3c-4.4-2.5-10.1-1-12.5,3.4L210,171.9l21.3,12.3l73.7-127.7C307.5,52,306,46.3,301.6,43.8z"/>
<path class="st11" d="M144,264.6l1.6-2.8c0.5-1,0.2-2.3-0.8-2.8l-48.1-27.8c-0.2,2.8-0.3,5.6-0.4,8.4l44.8,25.8
	C142.1,266,143.4,265.6,144,264.6z"/>
<path class="st11" d="M178.4,204.8l1.6-2.8c0.5-1,0.2-2.3-0.8-2.8l-67.5-39c-0.9,2.4-1.7,4.8-2.5,7.2l66.4,38.3
	C176.5,206.1,177.9,205.7,178.4,204.8z"/>
<path class="st5" d="M214.1,144l1.6-2.8c0.5-1,0.2-2.3-0.8-2.8l-70-40.4c-1.5,2-2.9,4.1-4.3,6.1l70.7,40.8
	C212.2,145.3,213.5,145,214.1,144z"/>
<path class="st5" d="M248.6,84.2l1.6-2.8c0.5-1,0.2-2.3-0.8-2.8l-55.2-31.9c-2.1,1.6-4.1,3.3-6.2,5L245.7,85
	C246.7,85.6,248.1,85.2,248.6,84.2z"/>
<circle class="st1" cx="238.7" cy="146.1" r="8.5"/>
<circle class="st1" cx="273.2" cy="86.3" r="8.5"/>
<circle class="st7" cx="169" cy="267.3" r="8.5"/>
<circle class="st7" cx="203.6" cy="207.4" r="8.5"/>
<polyline class="st8" points="238.7,146.1 276.1,167.7 257.7,199.4 "/>
<polyline class="st8" points="273.2,86.3 310.6,107.9 288.9,145.5 308.4,156.8 277.2,210.7 "/>
<polyline class="st9" points="203.1,207.8 240.5,229.3 258.8,197.6 "/>
<polyline class="st9" points="168.6,267.6 205.9,289.1 227.7,251.5 247.2,262.8 278.4,208.8 "/>
<path class="st5" d="M258.7,242.8c17.7,10.2,40.3,4.2,50.5-13.5l-64-37.1C235,209.9,241,232.5,258.7,242.8z"/>
<path class="st6" d="M295.7,178.7c-17.7-10.2-40.3-4.2-50.5,13.5l64.1,37C319.5,211.5,313.4,188.9,295.7,178.7z"/>
<path class="st10" d="M305.3,202.6l-5.1-2.9c-2.1,3.8-3,6-5.7,5l-21.3-12.4c-1.8-1.4-0.6-2.8,1.4-6.1l-5.2-4.3
	c-5,8.7-5.5,9.5-5.5,9.5l-6.7-3.8l-2.8,4.8l6.7,3.8c-0.8,1.2-1.5,2.6-2.2,3.7l-6.6-3.8l-2.8,4.8l6.7,3.8c-4.2,8.3-5.2,14.8,1.9,19.8
	c5.6,4.1,10,2.8,13.7-1.1c-0.2,3.6,1.3,6.7,5.7,8.7c6,2.8,10.5-0.8,14.6-6.7l7.8,4.5l2.8-4.8l-7.6-4.4c0.7-1.2,1.4-2.5,2.1-3.8
	l7.7,4.4l2.8-4.8l-7.8-4.5C300.8,210.5,302,208.4,305.3,202.6z M264.4,215.7c-6-3.4,0.4-12.8,2.3-16.1l10.5,6
	C275.4,208.9,270.6,219.3,264.4,215.7z M280.3,222.3c-5.3-3.1,0.1-11.1,1.7-13.9l9.5,5.5C290,216.6,285.9,225.5,280.3,222.3z"/>
</svg>
