<?xml version="1.0" encoding="utf-8"?>
<!-- Generator: Adobe Illustrator 19.0.0, SVG Export Plug-In . SVG Version: 6.00 Build 0)  -->
<svg version="1.1" id="Layer_1" xmlns="http://www.w3.org/2000/svg" xmlns:xlink="http://www.w3.org/1999/xlink" x="0px" y="0px"
	 viewBox="96 11 512 512" style="enable-background:new 96 11 512 512;" xml:space="preserve">
<style type="text/css">
	.st0{fill:#F0353D;}
	.st1{fill:#FD6A33;}
	.st2{fill:#FF8C29;}
	.st3{fill:#FFD1A9;}
	.st4{fill:#365558;}
	.st5{fill:#0295AA;}
	.st6{fill:#4ACFD9;}
	.st7{fill:#9BAAAB;}
	.st8{fill:#CDD4D5;}
	.st9{fill:#E6EAEA;}
	.st10{fill:#FFFFFF;}
	.st11{fill:#BCD643;}
</style>
<rect x="-425" y="-16" class="st0" width="128" height="128"/>
<rect x="-297" y="-16" class="st1" width="128" height="128"/>
<rect x="-169" y="-16" class="st2" width="128" height="128"/>
<rect x="-41" y="-16" class="st3" width="128" height="128"/>
<rect x="-425" y="112" class="st4" width="128" height="128"/>
<rect x="-297" y="112" class="st5" width="128" height="128"/>
<rect x="-169" y="112" class="st6" width="128" height="128"/>
<rect x="-425" y="240" class="st7" width="128" height="128"/>
<rect x="-297" y="240" class="st8" width="128" height="128"/>
<rect x="-169" y="240" class="st9" width="128" height="128"/>
<rect x="-41" y="240" class="st10" width="128" height="128"/>
<rect x="-425" y="368" class="st11" width="128" height="128"/>
<path class="st1" d="M294.3,420.3h-49.2c-5.8,0-10.5-4.7-10.5-10.5V127.9c0-5.8,4.7-10.5,10.5-10.5h49.2c5.8,0,10.5,4.7,10.5,10.5
	v0.8c0,5.8-4.7,10.5-10.5,10.5h-23.1c-5.2,0-9.5,4.3-9.5,9.5V389c0,5.2,4.3,9.5,9.5,9.5h23.1c5.8,0,10.5,4.7,10.5,10.5v0.8
	C304.8,415.6,300.1,420.3,294.3,420.3z"/>
<path class="st2" d="M458.9,420.3h-49.2c-5.8,0-10.5-4.7-10.5-10.5V409c0-5.8,4.7-10.5,10.5-10.5h23.1c5.2,0,9.5-4.3,9.5-9.5V148.7
	c0-5.2-4.3-9.5-9.5-9.5h-23.1c-5.8,0-10.5-4.7-10.5-10.5v-0.8c0-5.8,4.7-10.5,10.5-10.5h49.2c5.8,0,10.5,4.7,10.5,10.5v281.9
	C469.4,415.6,464.7,420.3,458.9,420.3z"/>
<path class="st11" d="M363.6,22.5l-0.8,45.4c-0.2,6.1-5,10.9-11.3,11.1c-6.1,0-10.9-4.8-10.7-10.9l0.8-45.4
	c0.2-6.1,5-10.9,11.3-11.1C358.8,11.6,363.6,16.4,363.6,22.5z"/>
<path class="st11" d="M429.1,51.1c0,2.9-1.1,5.7-3.4,7.8l-29.4,29.2c-4.4,4.4-11.3,4.4-15.6,0c-4.2-4.2-4-11.1,0.4-15.6l29.4-29.2
	c4.4-4.4,11.3-4.4,15.6,0C428.3,45.4,429.3,48.4,429.1,51.1z"/>
<path class="st11" d="M325.5,80.7c0,2.9-1.1,5.7-3.4,7.8c-4.4,4.4-11.3,4.4-15.6,0l-28.4-28.6c-4.2-4.2-4-11.1,0.4-15.6
	c4.4-4.4,11.3-4.4,15.6,0l28.4,28.6C324.3,75.1,325.5,77.8,325.5,80.7z"/>
<path class="st11" d="M340.6,511.5l0.8-45.4c0.2-6.1,5-10.9,11.3-11.1c6.1,0,10.9,4.8,10.7,10.9l-0.8,45.4
	c-0.2,6.1-5,10.9-11.3,11.1C345.4,522.4,340.6,517.6,340.6,511.5z"/>
<path class="st11" d="M275.2,482.9c0-2.9,1.1-5.7,3.4-7.8l29.4-29.2c4.4-4.4,11.3-4.4,15.6,0c4.2,4.2,4,11.1-0.4,15.6l-29.4,29.2
	c-4.4,4.4-11.3,4.4-15.6,0C276,488.6,275,485.6,275.2,482.9z"/>
<path class="st11" d="M378.8,453.3c0-2.9,1.1-5.7,3.4-7.8c4.4-4.4,11.3-4.4,15.6,0l28.4,28.6c4.2,4.2,4,11.1-0.4,15.6
	c-4.4,4.4-11.3,4.4-15.6,0l-28.4-28.6C380,458.9,378.8,456.2,378.8,453.3z"/>
<path class="st7" d="M143.2,266.1c0.1-13.3-10.7-24.3-23.9-24.3h-0.1v48.1C132.4,289.8,143.1,279.1,143.2,266.1z"/>
<path class="st4" d="M96,265.7c-0.1,13.3,10.7,24.1,24,24.2c0.1,0,0.1,0,0.2,0v-48.1C106.8,241.7,96.1,252.4,96,265.7z"/>
<path class="st7" d="M213.2,267.3c0.1-13.3-10.7-24.3-23.9-24.3h-0.1v48.1C202.4,291,213.2,280.3,213.2,267.3z"/>
<path class="st4" d="M166,266.9c-0.1,13.3,10.7,24.1,24,24.2c0.1,0,0.1,0,0.2,0V243C176.9,242.9,166.1,253.6,166,266.9z"/>
<path class="st7" d="M538,265.5c0.1-13.3-10.7-24.3-23.9-24.3H514v48.1C527.1,289.2,537.9,278.6,538,265.5z"/>
<path class="st4" d="M490.8,265.1c-0.1,13.3,10.7,24.1,24,24.2c0.1,0,0.1,0,0.2,0v-48.1C501.6,241.1,490.8,251.9,490.8,265.1z"/>
<path class="st7" d="M608,266.7c0.1-13.3-10.7-24.3-23.9-24.3H584v48C597.2,290.4,607.9,279.7,608,266.7z"/>
<path class="st4" d="M560.8,266.3c-0.1,13.3,10.7,24.1,24,24.2c0.1,0,0.1,0,0.2,0v-48.1C571.6,242.3,560.9,253,560.8,266.3z"/>
</svg>
