<?xml version="1.0" encoding="utf-8"?>
<!-- Generator: Adobe Illustrator 19.0.0, SVG Export Plug-In . SVG Version: 6.00 Build 0)  -->
<svg version="1.1" id="Layer_1" xmlns="http://www.w3.org/2000/svg" xmlns:xlink="http://www.w3.org/1999/xlink" x="0px" y="0px"
	 viewBox="96 11 512 512" style="enable-background:new 96 11 512 512;" xml:space="preserve">
<style type="text/css">
	.st0{fill:#F0353D;}
	.st1{fill:#FD6A33;}
	.st2{fill:#FF8C29;}
	.st3{fill:#FFD1A9;}
	.st4{fill:#365558;}
	.st5{fill:#0295AA;}
	.st6{fill:#4ACFD9;}
	.st7{fill:#9BAAAB;}
	.st8{fill:#CDD4D5;}
	.st9{fill:#E6EAEA;}
	.st10{fill:#FFFFFF;}
	.st11{fill:#BCD643;}
	.st12{display:none;}
	.st13{display:inline;fill:#365558;}
</style>
<rect x="-445" y="11" class="st0" width="128" height="128"/>
<rect x="-317" y="11" class="st1" width="128" height="128"/>
<rect x="-189" y="11" class="st2" width="128" height="128"/>
<rect x="-61" y="11" class="st3" width="128" height="128"/>
<rect x="-445" y="139" class="st4" width="128" height="128"/>
<rect x="-317" y="139" class="st5" width="128" height="128"/>
<rect x="-189" y="139" class="st6" width="128" height="128"/>
<rect x="-445" y="267" class="st7" width="128" height="128"/>
<rect x="-317" y="267" class="st8" width="128" height="128"/>
<rect x="-189" y="267" class="st9" width="128" height="128"/>
<rect x="-61" y="267" class="st10" width="128" height="128"/>
<rect x="-445" y="395" class="st11" width="128" height="128"/>
<path class="st2" d="M474.9,157.3h-5.7h-5.6c-3.4,0-6.1,2.8-6.1,6.1v8.1c2.9,12.3,4.4,25.1,4.4,38.2c0,10-0.9,19.8-2.6,29.3
	c1.1,1.1,2.6,1.8,4.3,1.8h5.6h5.7c7.2,0,13.2-5.9,13.2-13.2v-57.1C488.1,163.3,482.2,157.3,474.9,157.3z"/>
<path class="st2" d="M447,134.6c0-13.6-9-25.2-21.3-29c8.5,10.7,15.6,22.4,21.3,34.9V134.6z"/>
<path class="st3" d="M477.6,206.4c2-0.5,4,0.9,4.5,2.9c2.2,8.5,0.5,17.4-4.5,24.3c-1.2,1.6-3.5,1.9-5.2,0.6c-1.5-1.3-2-3.7-0.7-5.4
	c3.6-5.2,4.8-11.7,3.3-18.1c-0.4-1.1-0.1-2.3,0.5-3.2C476,206.9,476.6,206.4,477.6,206.4z"/>
<path class="st0" d="M397.5,57.6l17.1-16.5c2.3-2.3,2.3-5.8,0.1-8c-2.4-2.3-6-2.3-8.3-0.1l-17.1,16.5c-2.4,2.2-2.4,5.7-0.1,8
	C391.6,59.8,395.2,59.8,397.5,57.6z"/>
<path class="st0" d="M402.4,77.4l21.7,0.1c1.7,0.1,3.1-0.5,4.2-1.6c1-0.9,1.8-2.4,1.7-4.1c0-3.3-2.5-5.8-5.8-5.8l-21.7-0.1
	c-3.3,0.1-5.9,2.6-5.9,5.7C396.6,74.9,399.1,77.4,402.4,77.4z"/>
<path class="st0" d="M374.7,50.1c1.7,0.1,3.1-0.5,4.2-1.6c1.1-1.1,1.6-2.5,1.7-4.1l0.1-21.1c0-3.3-2.5-5.8-5.8-5.8
	c-3.3,0.1-5.9,2.6-5.9,5.7l-0.1,21.1C368.9,47.6,371.4,50.1,374.7,50.1z"/>
<polygon class="st10" points="403,344.8 370.3,413.5 352,437.7 352,444.5 352,476 378,476 432.5,420.3 449.3,369.3 419.2,347.7 "/>
<path class="st6" d="M352,441.8l17-25.5c0,0,4.2,2.2,5.2-11.5c0.6-8.6-2.3-30.4-5.2-44.9c-5.5,2.8-11.2,5.2-17,7.4V441.8z"/>
<path class="st9" d="M256,373.4l15.5,46.9L326,476l26-0.3v-31.5v-6.5l-18.3-24.2L316,376.2c-7.2,1-14.6,1.5-22.1,1.5
	C280.9,377.7,268.2,376.2,256,373.4z"/>
<path class="st9" d="M284.8,347.7l-30.1,21.6l1.3,4.1c12.2,2.8,24.8,4.3,37.9,4.3c7.5,0,14.8-0.5,22.1-1.5l-15-31.4L284.8,347.7z"/>
<path class="st1" d="M454.7,354h-30.5c0,45.1-32.3,111.7-72.2,111.7V523h164.6v-25.3C467.4,497.7,454.7,409.6,454.7,354z"/>
<path class="st0" d="M187.4,497.7V523H352v-57.3c-33.4,0-61.5-46.7-69.7-88.4c-11.5-0.8-22.6-2.7-33.4-5.7
	C246.4,426.4,231.7,497.7,187.4,497.7z"/>
<path class="st0" d="M249.3,354c0,5.6-0.1,11.5-0.4,17.6c10.7,3,21.9,4.9,33.4,5.7c-1.6-8.1-2.5-16-2.5-23.3H249.3z"/>
<path class="st8" d="M467.9,351.9c-8.4-5.2-30.4-23.6-43.8-27.4c-6.9,0-14.2,5.4-16.5,11.8l-55,101.4c-1.2,3.9-0.7,8.8,0.7,10
	c0.9,0.7,1.4,0.9,4.6,0.2c0,0,28.3-28,39.7-44.1c9.7-13.7,16.7-28.4,26.2-44.4s54,8.2,54,8.2C481.5,361.7,471.7,354.2,467.9,351.9z"
	/>
<path class="st5" d="M329.8,404.8c1,13.7,5.2,11.5,5.2,11.5l17,25.5v-74.5c-6.3,2.3-12.7,4.3-19.4,5.8
	C330.7,385.4,329.3,398.6,329.8,404.8z"/>
<path class="st7" d="M226.1,367.6c0,0,1.7-0.9,4.5-2.3c-1.7-0.7-3.4-1.4-5.1-2.2C225.1,364.7,225.2,366.2,226.1,367.6z"/>
<path class="st7" d="M290.5,377.7c5.1,9.1,10,17.8,15.8,26.1c11.4,16,39.7,44.1,39.7,44.1c4,0.7,3.9,0.6,4.6-0.2
	c1.4-1.7,1.9-6.1,0.7-10L317.8,376c-7.8,1.1-15.8,1.7-23.9,1.7C292.8,377.7,291.6,377.7,290.5,377.7z"/>
<path class="st1" d="M176,152.6c-0.9-0.3-1.9-0.5-2.9-0.5h-8.8h-9c-11.5,0-20.8,9.4-20.8,20.8v89.7c0,11.5,9.4,20.8,20.8,20.8h9h8.8
	c3.8,0,7.2-2.3,8.7-5.6c-12.1-19.8-19-43.1-19-67.9C162.8,189.3,167.5,169.9,176,152.6z"/>
<path class="st1" d="M182.7,161.6c0-4-2.8-7.7-6.7-9c-8.4,17.3-13.2,36.7-13.2,57.2c0,24.9,6.9,48.1,19,67.9c0.6-1.2,0.9-2.6,0.9-4
	V161.6z"/>
<path class="st2" d="M457.5,171.5v63.2c0,1.7,0.7,3.2,1.8,4.3c1.7-9.5,2.6-19.3,2.6-29.3C461.9,196.5,460.4,183.7,457.5,171.5z"/>
<path class="st2" d="M425,209.8c0-52.8-31.3-98.3-76.3-119.1v238.2C393.6,308,424.9,262.5,425,209.8z"/>
<path class="st2" d="M366.7,94.3c0,0-0.9-1.5,4.5-5c6.6-4.3,4.7-14.1-1.6-19.1c0,0-15.6,11.5-17.3,22.2c1.2,0.6,2.4,1.2,3.6,1.9
	C360.9,94.3,366.7,94.3,366.7,94.3z"/>
<path class="st2" d="M355.9,94.3c-1.2-0.6-2.4-1.3-3.6-1.9c-0.1,0.6-0.2,1.3-0.2,1.9C353.2,94.3,354.5,94.3,355.9,94.3z"/>
<path class="st4" d="M427.7,260.4h-12.9c-2.7,6.3-5.8,12.3-9.3,18.1h22.2c2.7,0,5-2.2,5-5v-8C432.7,262.7,430.5,260.4,427.7,260.4z"
	/>
<path class="st4" d="M401.5,260.4c-2.7,0-5,2.2-5,5v8c0,2.7,2.4,5,5,5h3.9c3.6-5.8,6.7-11.8,9.3-18.1H401.5z"/>
<path class="st4" d="M438.5,175.4c0-13.2-10.7-23.9-23.9-23.9c-1.1,0-2.1,0.1-3.2,0.2c6.9,14,11.4,29.3,13,45.5
	C432.7,193.5,438.5,185.1,438.5,175.4z"/>
<path class="st4" d="M390.7,175.4c0,13.2,10.7,23.9,23.9,23.9c3.5,0,6.8-0.8,9.8-2.1c-1.5-16.2-6.1-31.6-13-45.5
	C399.7,153.3,390.7,163.3,390.7,175.4z"/>
<path class="st4" d="M362,260.4h-13.4v17.9H362c2.5,0,4.7-2,4.7-4.7v-8.7C366.8,262.6,364.7,260.4,362,260.4z"/>
<path class="st1" d="M293.9,78.7c19.5,0,38.1,4.3,54.8,12V53h-23v2.7c0,7.2-7.4,12.6-14.5,12.6h-63.9c-26.4,0-48,21.6-48,48v2.8
	C223.2,94.2,256.8,78.7,293.9,78.7z"/>
<path class="st1" d="M199.5,300.6c1.5,25.1,22.5,45,47.9,45h101.3v-16.8c-16.7,7.7-35.2,12-54.8,12
	C256.8,340.9,223.3,325.4,199.5,300.6z"/>
<path class="st1" d="M293.9,78.7c-37.1,0-70.7,15.5-94.5,40.4v178.6c0,1,0,2,0.1,3c23.9,24.8,57.4,40.3,94.4,40.3
	c19.5,0,38.1-4.3,54.8-12V90.7C332,83,313.4,78.7,293.9,78.7z"/>
<path class="st4" d="M296.1,260.4h-26.7c-2.5,0-4.7,2-4.7,4.7v8.7c0,2.5,2,4.7,4.7,4.7h26.7c2.5,0,4.7-2,4.7-4.7v-8.7
	C300.8,262.6,298.6,260.4,296.1,260.4z"/>
<path class="st4" d="M282.8,151.4c-13.2,0-23.9,10.7-23.9,23.9s10.7,23.9,23.9,23.9s23.9-10.7,23.9-23.9
	C306.7,162.2,296,151.4,282.8,151.4z"/>
<path class="st4" d="M330.6,265.1v8.7c0,2.5,2,4.7,4.7,4.7h13.4v-18.1h-13.4C332.8,260.4,330.6,262.4,330.6,265.1z"/>
<path class="st3" d="M155.9,236.2c0.6-1.7,0.2-3.6-0.8-5c-0.9-1.1-1.7-1.9-3.3-1.7c-3.1-0.8-6.3,1.3-7.1,4.6
	c-3.3,13.4-0.8,27.4,7.1,38.2c1.9,2.5,5.5,3,8.2,0.9c2.4-2,3-5.8,1.1-8.5C155.5,256.5,153.6,246.1,155.9,236.2z"/>
<path class="st6" d="M364.6,346c-2.7,1.6-12.6,2-12.6,2v19.3c5.8-2.2,11.5-4.6,17-7.4C367.3,351.4,365.6,345.4,364.6,346z"/>
<path class="st5" d="M339.4,346c-1.5-0.9-4.5,12.5-6.8,27.2c6.6-1.6,13.1-3.5,19.4-5.8v-19.2C352,348.1,342.1,347.7,339.4,346z"/>
<circle class="st4" cx="352" cy="490.3" r="7.6"/>
<path class="st4" d="M458.1,355.2l-36.5-36.5c-5.7,6.7-12,13-18.7,18.7l36.5,36.5c2.5,2.6,5.9,3.9,9.3,3.9c3.4,0,6.7-1.3,9.4-3.9
	C463.3,368.7,463.3,360.4,458.1,355.2z"/>
<path class="st4" d="M395.4,311.2c-5.2,5.2-5.2,13.5,0,18.7l7.5,7.5c6.7-5.7,13-12,18.7-18.7l-7.5-7.5
	C408.9,306,400.6,306,395.4,311.2z"/>
<path class="st5" d="M293.9,41.7c-92.6,0-168,75.4-168,168s75.4,168,168,168s168-75.4,168-168S386.5,41.7,293.9,41.7z M293.9,340.9
	c-18.1,0-35.3-3.7-51-10.3c-2-0.8-3.9-1.7-5.8-2.6s-3.8-1.9-5.7-2.9c-1.9-1-3.7-2.1-5.5-3.2c-0.9-0.5-1.8-1.1-2.7-1.7
	c-1.8-1.1-3.5-2.3-5.2-3.5c-2.6-1.8-5.1-3.7-7.5-5.8c-2.4-2-4.8-4.1-7.1-6.3c-1.5-1.4-3-2.9-4.5-4.5c-2.2-2.3-4.3-4.6-6.3-7.1
	c-2-2.4-3.9-4.9-5.8-7.5c-0.6-0.9-1.2-1.7-1.8-2.6c-1.2-1.7-2.3-3.5-3.4-5.3s-2.1-3.6-3.2-5.5c-1.5-2.8-2.9-5.6-4.2-8.5
	c-1.8-3.9-3.3-7.8-4.7-11.9c-0.7-2-1.3-4.1-1.9-6.2c-1.8-6.2-3.1-12.6-3.9-19.2c-0.3-2.2-0.5-4.4-0.7-6.6c-0.3-3.3-0.4-6.7-0.4-10.1
	c0-72.3,58.8-131.1,131.1-131.1S425,137.5,425,209.8C424.9,282,366.1,340.9,293.9,340.9z"/>
<path class="st6" d="M603.2,460.6L483.7,341.2c-2.5-2.5-5.8-3.9-9.3-3.9s-6.9,1.4-9.3,3.9L425.3,381c-5.2,5.2-5.2,13.5,0,18.7
	l119.4,119.4c2.6,2.6,6,3.9,9.3,3.9c3.4,0,6.8-1.3,9.3-3.9l39.8-39.8c2.5-2.5,3.9-5.8,3.9-9.3C607,466.4,605.6,463.1,603.2,460.6z"
	/>
<path class="st10" d="M554.2,462.2c-3.4,0-6.8-1.3-9.3-3.9L481.6,395c-5.2-5.2-5.2-13.5,0-18.7s13.5-5.2,18.7,0l63.3,63.3
	c5.2,5.2,5.2,13.5,0,18.7C561,460.9,557.6,462.2,554.2,462.2z"/>
<g class="st12">
	<path class="st13" d="M367.9,266.6l-28.6,28.6c-4.2,4.2-4.2,11,0,15.2c2.1,2.1,4.8,3.1,7.6,3.1c2.7,0,5.5-1,7.6-3.1l28.6-28.6
		c4.2-4.2,4.2-11,0-15.2C378.8,262.4,372.1,262.4,367.9,266.6z"/>
	<path class="st13" d="M356.4,220.9L325,252.3c-4.2,4.2-4.2,11,0,15.2c2.1,2.1,4.8,3.1,7.6,3.1c2.7,0,5.5-1,7.6-3.1l31.4-31.4
		c4.2-4.2,4.2-11,0-15.2C367.4,216.7,360.6,216.7,356.4,220.9z"/>
</g>
<path class="st10" d="M303.5,117.6c17.1,1,33,9.7,43.3,23.5c2,2.6,4.6,3.9,7.7,4.1c2.5,0.1,4.7-0.5,6.6-2c4.5-3.5,5.5-9.8,2.1-14.4
	C349.4,110,328,98.5,304.6,97.1c-5.6-0.3-10.5,4.1-10.8,9.7C293.5,112.4,297.9,117.3,303.5,117.6z"/>
<path class="st6" d="M274.9,302c-17.1-1-33-9.7-43.3-23.5c-2-2.6-4.6-3.9-7.7-4.1c-2.5-0.1-4.7,0.5-6.6,2c-4.5,3.5-5.5,9.8-2.1,14.4
	c13.9,18.8,35.2,30.2,58.6,31.6c5.6,0.3,10.5-4.1,10.8-9.7C284.9,307.2,280.5,302.3,274.9,302z"/>
</svg>
