<?xml version="1.0" encoding="utf-8"?>
<!-- Generator: Adobe Illustrator 19.0.0, SVG Export Plug-In . SVG Version: 6.00 Build 0)  -->
<svg version="1.1" id="Layer_1" xmlns="http://www.w3.org/2000/svg" xmlns:xlink="http://www.w3.org/1999/xlink" x="0px" y="0px"
	 viewBox="96 11 512 512" style="enable-background:new 96 11 512 512;" xml:space="preserve">
<style type="text/css">
	.st0{display:none;fill:#9BAAAB;}
	.st1{fill:#FFD1A9;}
	.st2{fill:#CDD4D5;}
	.st3{fill:#FF8C29;}
	.st4{fill:#9BAAAB;}
	.st5{fill:#FD6A33;}
	.st6{fill:#FFFFFF;}
	.st7{fill:#0295AA;}
	.st8{fill:#365558;}
	.st9{display:none;fill:#F0353D;}
</style>
<polygon class="st0" points="543.8,223.7 407.7,276.4 271.5,223.7 408,170.3 "/>
<polygon class="st0" points="681.3,85.3 817.8,138.7 681.7,191.4 545.5,138.7 "/>
<path class="st1" d="M96.1,171.4c0-7.9,6.5-14.3,14.3-14.3h81.3c7.9,0,14.3,6.5,14.3,14.3c0,0,0-0.8,0,9c0,9.9,3.5,17.6,17.6,17.6
	c14,0,343.4,0,343.4,0c7.9,0,14.3,6.5,14.3,14.3v296.5c0,7.9-6.5,14.3-14.3,14.3H110.3c-7.9,0-14.3-6.5-14.3-14.3L96.1,171.4"/>
<g id="Layer_2_1_">
	<polygon class="st0" points="458,56.3 582,104.9 458.3,152.8 334.6,104.9 	"/>
	<polygon class="st2" points="459.1,52.2 352.1,93.6 352.1,225.9 459.1,184.6 	"/>
	<polygon class="st3" points="352.1,93.9 459.1,135.3 459.1,267.8 352.1,226.3 	"/>
	<polygon class="st4" points="459.1,52.2 566.1,93.6 566.1,225.9 459.1,184.6 	"/>
	<polygon class="st5" points="566.1,93.9 459.1,135.3 459.1,267.8 566.1,226.3 	"/>
	<polyline class="st2" points="459.1,52.6 500.8,10.6 608,52.6 566.1,93.9 	"/>
	<polyline class="st6" points="352.1,93.9 316.5,52.8 424.1,11.2 459.1,52.2 	"/>
	<polyline class="st1" points="352.1,94.3 316.9,58.2 424.3,100.1 459.1,135.6 	"/>
	<polyline class="st3" points="459.1,135.6 500.3,100.4 607.9,58.8 566.1,93.9 	"/>
	<path class="st6" d="M430.3,209.8c-5.9-2.3-11.8-4.5-17.7-6.8l-7-2.7c-2.4-0.9-4.9-1.8-7.2-2.8c-5.6-2.2-11.3-4.4-17-6.4
		c-5-1.6-9.3-8.5-9.2-12.7c0.2-9.4,0.2-19.1,0.1-28.4c0-4.1,0-8.2,0-12.3c0-4.6,2.3-7.3,6.3-7.3c1.3,0,2.7,0.3,4.2,0.9l1.8,0.7
		c3.9,1.5,7.9,3,11.9,4.6c0.9,0.4,1.6,0.5,2.2,0.5c1,0,1.5-0.4,1.8-0.8c0.8-0.8,0.8-2.1,0.8-2.9c-0.1-2.2-0.1-4.4,0-6.7
		c0.1-1.8,1-1.8,1.4-1.8c0.5,0,1.1,0.1,1.8,0.4c2.6,1,4.2,3.1,4.3,5.5v0.6c0,1.8,0.1,3.6-0.1,5.3c-0.3,3.3,1,5.1,4.2,6.2
		c4.2,1.4,8.5,3.2,12.7,4.9l1,0.4c6.2,2.5,11.1,9.4,11.1,15.4c0,14,0,28,0,41.8c-0.1,3.2-1.7,5.1-4.6,5.1
		C432.2,210.6,431.2,210.3,430.3,209.8z M413.6,188.5c0,3.5,2.6,4.3,3.7,4.6c0.3,0.1,0.6,0.2,1,0.3c0.1,0.1,0.3,0.1,0.5,0.2
		c0.3,0.1,0.5,0.2,0.7,0.3c0.5,0.1,0.9,0.3,1.3,0.5c0.8,0.3,1.4,0.5,1.9,0.5c0.6,0,2.5-0.2,2.5-3c0-2.3-1.1-3.8-3.4-4.5
		c-1-0.3-2.1-0.7-3.4-1.3c-0.7-0.3-1.4-0.5-2.1-0.5C415.6,185.5,413.7,185.8,413.6,188.5z M399.6,180.5c-0.5,0.5-0.8,1.4-0.8,2.5
		c0.1,3.2,2.5,4,3.6,4.4c0.4,0.1,1.8,0.7,1.8,0.7c0.2,0.1,0.9,0.3,1.7,0.3h0.2c1.4-0.1,2.7-1,3.1-2.3c0.5-1.6-0.1-3.8-2.5-4.7
		c0,0-1.8-0.5-3.1-1c-0.9-0.3-1.5-0.5-2.1-0.5C400.6,179.8,400,180.3,399.6,180.5z M385.4,175.1c-0.5,0.5-0.8,1.4-0.8,2.5
		c0.1,3.1,2.2,4,3.6,4.4l2.3,0.5c0.8,0.3,1.6,0.7,2.4,0.7l0,0c0.8,0,1.4-0.3,1.7-0.7c0.5-0.6,0.8-1.4,0.8-2.5
		c-0.1-3.1-2.2-3.9-3.6-4.4c0,0-3.8-1.1-4.6-1.1C386.3,174.4,385.7,174.8,385.4,175.1z M412.3,166.5c0,3.7,2.8,7.5,6.5,9
		c1,0.3,1.8,0.5,2.7,0.5l0,0c2.9,0,5-2.2,5-5.3c0-3.7-2.8-7.5-6.5-9c-1-0.3-1.8-0.5-2.7-0.5C414.3,161.3,412.3,163.3,412.3,166.5z
		 M384.7,151.5c-1,1-1.4,2.4-1.4,4c0.1,3.8,2.8,7.5,6.6,8.9c0.8,0.3,1.7,0.5,2.5,0.5l0,0c1.4,0,2.7-0.5,3.6-1.4c1-1,1.4-2.4,1.4-4
		c-0.1-3.8-2.8-7.5-6.6-8.9c-0.8-0.3-1.7-0.5-2.5-0.5C386.9,150,385.6,150.5,384.7,151.5z"/>
	<path class="st6" d="M447.2,201.3c-0.4-0.1-0.8-0.3-1.1-0.4c-0.5-0.3-1.2-0.5-1.8-0.7c-1-0.3-1.3-0.7-1.3-1.8c0-2.9,0-5.9,0-8.9
		c0-1.2,0-4.8,0-4.8l0,0v-2c0-2.3,0-4.6,0-7c0-0.4,0-0.8,0-1.2c0-0.5,0-1.1,0-1.5c0.4,0.2,1,0.4,1.5,0.6c0.4,0.1,0.9,0.3,1.4,0.5
		c3,1.2,4.9,3.8,5,6.7c0.1,6.7,0.1,12.8,0,18.5c-0.1,2.3-1.4,2.3-1.9,2.3C448.5,201.8,447.9,201.8,447.2,201.3z"/>
	<path class="st6" d="M363.9,170.5c-3.1-1.2-5.1-3.8-5.1-6.6c-0.1-6-0.1-12.2,0-18.5c0-2.5,1.4-2.5,1.9-2.5s1.1,0.1,1.8,0.3
		c0.4,0.1,0.8,0.3,1.1,0.4c0.5,0.3,1.2,0.5,1.8,0.7c1.1,0.3,1.4,0.8,1.4,2c0,2.9,0,5.9,0,8.8c0,1.2,0,2.3,0,3.4c0,3.4,0,6.9,0,10.4
		c0,1,0,1.9-0.1,2.5C366,171.3,364.9,170.8,363.9,170.5z"/>
	<polygon class="st7" points="352.1,193 459.1,234.3 459.1,254.4 352.1,213.1 	"/>
	<polygon class="st8" points="566.1,193 459.1,234.3 459.1,254.4 566.1,213.1 	"/>
	<path class="st9" d="M295.4,243.4c-1.2-2.9,0.2-6.2,3.1-7.4l21.6-8.8c2.9-1.2,6.2,0.2,7.4,3.1c1.2,2.9-0.2,6.2-3.1,7.4l-21.7,8.9
		C299.8,247.8,296.6,246.3,295.4,243.4z"/>
	<path class="st9" d="M325.2,272.3c-2.9-1.2-4.3-4.5-3.1-7.4l8.1-19.4c1.2-2.9,4.5-4.3,7.4-3.1s4.3,4.5,3.1,7.4l-8.1,19.4
		c-0.6,1.4-1.7,2.5-3.1,3.1C328.2,272.9,326.6,272.9,325.2,272.3z"/>
	<path class="st9" d="M318.7,217.5l-19.4-8.1c-2.9-1.2-4.3-4.5-3.1-7.4c1.2-2.9,4.5-4.3,7.4-3.1L323,207c2.9,1.2,4.3,4.5,3.1,7.4
		c-0.6,1.4-1.7,2.5-3.1,3.1S320.2,218.1,318.7,217.5z"/>
</g>
<g id="Layer_2">
	<polygon class="st0" points="409.7,221.8 267.8,276.6 125.9,221.8 268.2,166 	"/>
	<polygon class="st2" points="266.9,313.1 389.5,360.5 389.5,208.8 266.9,161.3 	"/>
	<polygon class="st3" points="389.5,361 266.9,408.4 266.9,256.6 389.5,209.1 	"/>
	<polygon class="st4" points="266.9,313.1 144.2,360.5 144.2,208.8 266.9,161.3 	"/>
	<polygon class="st5" points="144.2,361 266.9,408.4 266.9,256.6 144.2,209.1 	"/>
	<polyline class="st2" points="144.2,209.1 96.2,161.8 219.1,113.6 266.9,161.8 	"/>
	<polyline class="st6" points="266.9,161.3 307.1,114.3 430.4,162 389.5,209.1 	"/>
	<polyline class="st1" points="266.9,257 306.8,216.3 429.9,168.3 389.5,209.5 	"/>
	<polyline class="st3" points="144.2,209.1 96.3,168.9 219.7,216.5 266.9,257 	"/>
	<path class="st6" d="M296.6,342.9c-3.3,0-5.2-2.2-5.3-5.9c0-15.8,0-31.8,0-47.9c0-7,5.7-14.9,12.8-17.7l1.1-0.5
		c4.8-1.9,9.7-3.9,14.6-5.6c3.8-1.3,5.3-3.4,4.9-7.1c-0.2-1.9-0.1-4-0.1-6v-0.6c0.1-2.8,2-5.2,4.9-6.3c0.8-0.3,1.5-0.5,2-0.5
		s1.6,0,1.6,2c0.1,2.6,0.2,5.2,0,7.7c-0.1,0.9,0,2.4,0.9,3.3c0.4,0.4,1,0.9,2.1,0.9c0.7,0,1.5-0.2,2.5-0.6c4.5-1.9,9.2-3.6,13.6-5.3
		l2-0.8c1.7-0.6,3.4-1,4.9-1c4.5,0,7.2,3.1,7.2,8.4c0,4.7,0,9.4,0,14.1c-0.1,10.7-0.1,21.8,0.2,32.6c0.1,4.9-4.9,12.7-10.6,14.6
		c-6.5,2.2-13.1,4.8-19.5,7.3c-2.7,1.1-5.6,2.2-8.3,3.2l-8,3.1c-6.7,2.6-13.6,5.2-20.3,7.8C298.9,342.6,297.7,342.9,296.6,342.9z
		 M316.1,314.3c-0.8,0-1.6,0.3-2.4,0.6c-1.6,0.7-2.8,1.2-3.9,1.5c-2.7,0.9-3.9,2.6-3.9,5.2c0.1,3.2,2.2,3.4,2.9,3.4
		c0.6,0,1.3-0.2,2.2-0.5c0.5-0.2,0.9-0.4,1.5-0.5c0.2-0.1,0.5-0.2,0.8-0.3c0.2-0.1,0.4-0.2,0.5-0.2c0.4-0.2,0.7-0.3,1.1-0.4
		c1.3-0.4,4.2-1.3,4.2-5.3C318.9,314.4,316.8,314.3,316.1,314.3z M333,307.8c-0.7,0-1.4,0.2-2.4,0.6c-1.5,0.5-3.5,1.2-3.5,1.2
		c-2.8,1-3.5,3.5-2.9,5.4c0.5,1.4,2,2.5,3.5,2.6h0.2c0.9,0,1.7-0.3,2-0.4c0,0,1.6-0.6,2.1-0.8c1.2-0.5,4-1.3,4.1-5
		c0-1.3-0.3-2.3-0.9-2.9C334.7,308.1,334,307.8,333,307.8z M349.4,301.4c-0.9,0-5.3,1.3-5.3,1.3c-1.6,0.6-4.1,1.5-4.2,5.1
		c0,1.3,0.3,2.2,0.9,2.9c0.4,0.4,1,0.8,2,0.8l0,0c0.9,0,1.8-0.4,2.7-0.8l2.6-0.5c1.6-0.5,4.1-1.5,4.2-5.1c0-1.3-0.3-2.2-0.9-2.8
		C351,301.9,350.4,301.4,349.4,301.4z M314.8,286.4c-0.9,0-2,0.2-3.1,0.6c-4.2,1.6-7.4,6-7.4,10.3c0,3.5,2.4,6,5.7,6l0,0
		c0.9,0,2-0.2,3.1-0.6c4.2-1.6,7.4-6,7.4-10.3C320.6,288.8,318.2,286.4,314.8,286.4z M348.1,273.5c-0.9,0-2,0.2-2.9,0.5
		c-4.3,1.6-7.4,5.9-7.5,10.2c0,1.8,0.5,3.4,1.6,4.5c1,1,2.5,1.6,4.1,1.6l0,0c0.9,0,2-0.2,2.9-0.5c4.3-1.6,7.4-5.9,7.5-10.2
		c0-1.8-0.5-3.4-1.6-4.5C351.2,274,349.7,273.5,348.1,273.5z"/>
	<path class="st6" d="M278.4,332.9c-0.6,0-2.1,0-2.2-2.7c-0.1-6.6-0.2-13.6,0-21.2c0.1-3.4,2.3-6.3,5.7-7.7c0.6-0.2,1.2-0.5,1.6-0.6
		c0.6-0.2,1.3-0.5,1.7-0.7c0,0.5,0,1.1,0,1.7c0,0.5,0,0.9,0,1.4c0,2.7,0,5.3,0,8v2.3l0,0c0,0,0,4.2,0,5.5c0,3.4,0,6.8,0,10.2
		c0,1.3-0.3,1.7-1.5,2c-0.7,0.2-1.4,0.5-2,0.8c-0.4,0.2-0.8,0.3-1.3,0.5C279.7,332.8,279,332.9,278.4,332.9z"/>
	<path class="st6" d="M372.9,298c-0.1-0.7-0.1-1.8-0.1-2.9c0-4,0-8,0-11.9c0-1.3,0-2.6,0-3.9c0-3.3,0-6.7,0-10.1
		c0-1.4,0.3-1.9,1.6-2.3c0.7-0.2,1.4-0.5,2-0.8c0.4-0.2,0.8-0.3,1.3-0.5c0.8-0.2,1.5-0.4,2-0.4c0.6,0,2.2,0,2.2,2.8
		c0.1,7.2,0.1,14.3,0,21.2c-0.1,3.3-2.3,6.2-5.9,7.6C374.9,297.4,373.7,297.9,372.9,298z"/>
	<polygon class="st7" points="389.5,345.9 266.9,393.3 266.9,370.1 389.5,322.8 	"/>
	<polygon class="st8" points="144.2,345.9 266.9,393.3 266.9,370.1 144.2,322.8 	"/>
	<path class="st9" d="M446.2,384.1l-24.8-10.2c-3.3-1.4-4.9-5.1-3.5-8.5c1.4-3.3,5.1-4.9,8.5-3.5l24.8,10.1c3.3,1.4,4.9,5.1,3.5,8.5
		C453.3,383.9,449.6,385.4,446.2,384.1z"/>
	<path class="st9" d="M415.5,413.6c-1.6-0.6-2.8-1.9-3.5-3.5l-9.3-22.3c-1.4-3.3,0.2-7.1,3.5-8.5s7.1,0.2,8.5,3.5l9.3,22.3
		c1.4,3.3-0.2,7.1-3.5,8.5C418.8,414.4,417,414.4,415.5,413.6z"/>
	<path class="st9" d="M423,350.9c-1.6-0.6-2.8-1.9-3.5-3.5c-1.4-3.3,0.2-7.1,3.5-8.5l22.3-9.3c3.3-1.4,7.1,0.2,8.5,3.5
		s-0.2,7.1-3.5,8.5l-22.3,9.3C426.2,351.5,424.6,351.5,423,350.9z"/>
</g>
<path class="st3" d="M564.8,523.3H108.1c-7.9,0-13.1-5.7-11.7-12.5l26.2-129.6c1.4-6.9,8.9-12.5,16.9-12.5H596
	c7.9,0,13.1,5.7,11.7,12.5l-26.2,129.6C580.4,517.7,572.7,523.3,564.8,523.3z"/>
<path class="st8" d="M123.3,507.9c-1.9,0-3.5-0.6-4.6-1.8c-1.1-1.2-1.5-2.9-1.2-4.7l1.3-6.1c1.8-4.7,5.6-8.3,8.2-8.3h435.6
	c1.9,0,3.5,0.6,4.6,1.8c1.1,1.2,1.5,2.9,1.2,4.7l-1.3,6.1c-0.8,4.4-4.6,8.3-9.4,8.3H123.3z"/>
</svg>
