<?xml version="1.0" encoding="utf-8"?>
<!-- Generator: Adobe Illustrator 19.0.0, SVG Export Plug-In . SVG Version: 6.00 Build 0)  -->
<svg version="1.1" id="Layer_1" xmlns="http://www.w3.org/2000/svg" xmlns:xlink="http://www.w3.org/1999/xlink" x="0px" y="0px"
	 viewBox="96 11 512 512" style="enable-background:new 96 11 512 512;" xml:space="preserve">
<style type="text/css">
	.st0{display:none;}
	.st1{display:inline;}
	.st2{fill:#E6EAEA;}
	.st3{fill:#FF8C29;}
	.st4{fill:#CDD4D5;}
	.st5{fill:#FD6A33;}
	.st6{fill:#9BAAAB;}
	.st7{fill:#4ACFD9;}
	.st8{fill:#0295AA;}
</style>
<g id="Layer_1_1_">
	<g id="Layer_3" class="st0">
		<path class="st1" d="M96,10.6v512.8h512V10.6H96z M397.4,467.7h-50.8l-89.5-106.5V77.1c0-4.8,3.3-8.7,7.3-8.7h133V467.7z"/>
		<path class="st1" d="M257.1,77.1v284.1l89.5,106.5h50.8V68.4h-133C260.4,68.3,257.1,72.2,257.1,77.1z"/>
	</g>
	<g>
		<path class="st2" d="M223.6,80.3H96v370.2h127.6c3.9,0,7.1-3.6,7.1-8.1v-354C230.7,83.9,227.5,80.3,223.6,80.3z"/>
		<path class="st3" d="M191.8,145H96v16.2h95.8c4.1,0,7.4-3.6,7.4-8.1C199.1,148.7,195.8,145,191.8,145z"/>
		<path class="st3" d="M191.8,214.1H96v16.2h95.8c4.1,0,7.4-3.6,7.4-8.1C199.1,217.7,195.8,214.1,191.8,214.1z"/>
		<path class="st3" d="M191.8,283.2H96v16.2h95.8c4.1,0,7.4-3.6,7.4-8.1C199.1,286.8,195.8,283.2,191.8,283.2z"/>
		<path class="st3" d="M191.8,352.3H96v16.2h95.8c4.1,0,7.4-3.6,7.4-8.1C199.1,355.9,195.8,352.3,191.8,352.3z"/>
	</g>
	<g>
		<path class="st4" d="M473.9,80.3c-4.1,0-7.4,3.6-7.4,8.1v263.3l90.2,98.8H608V80.3L473.9,80.3L473.9,80.3z"/>
		<g>
			<path class="st5" d="M509.9,153.1c0,4.5,3.3,8.1,7.4,8.1H608V145h-90.7C513.2,145,509.9,148.7,509.9,153.1z"/>
			<path class="st5" d="M509.9,222.2c0,4.5,3.3,8.1,7.4,8.1H608v-16.2h-90.7C513.2,214.1,509.9,217.7,509.9,222.2z"/>
			<path class="st5" d="M509.9,291.3c0,4.5,3.3,8.1,7.4,8.1H608v-16.2h-90.7C513.2,283.2,509.9,286.8,509.9,291.3z"/>
			<path class="st5" d="M509.9,360.4c0,4.5,3.3,8.1,7.4,8.1H608v-16.2h-90.7C513.2,352.3,509.9,355.9,509.9,360.4z"/>
		</g>
		<g>
			<path class="st6" d="M549.3,351.7h-82.8l90.2,98.8v-90.7C556.7,355.4,553.4,351.7,549.3,351.7z"/>
		</g>
	</g>
	<path class="st7" d="M279.5,210.6h-61.8c-12.4,0-24.1,4.9-33,13.7s-13.7,20.5-13.7,33c0,25.7,20.9,46.6,46.6,46.6h61.8
		c12.4,0,24.1-4.9,33-13.7c8.8-8.8,13.7-20.5,13.7-33c0-12.4-4.9-24.1-13.7-33C303.6,215.5,291.9,210.6,279.5,210.6z M217.7,233.8
		h61.8c12.9,0,23.4,10.5,23.4,23.4c0,12.9-10.5,23.4-23.4,23.4h-30.9l0,0h-30.9c-12.9,0-23.4-10.5-23.4-23.4
		C194.2,244.3,204.7,233.8,217.7,233.8z"/>
	<path class="st7" d="M488.2,210.6h-61.8c-12.4,0-24.1,4.9-33,13.7c-8.8,8.8-13.7,20.5-13.7,33c0,12.4,4.9,24.1,13.7,33
		c8.8,8.8,20.5,13.7,33,13.7h61.8c12.4,0,24.1-4.9,33-13.7c8.9-8.8,13.7-20.5,13.7-33c0-12.4-4.9-24.1-13.7-33
		C512.3,215.5,500.6,210.6,488.2,210.6z M488.2,280.7h-30.9h-30.9c-12.9,0-23.4-10.5-23.4-23.4c0-12.9,10.5-23.4,23.4-23.4h61.8
		c12.9,0,23.4,10.5,23.4,23.4C511.6,270.2,501.1,280.7,488.2,280.7z"/>
	<path class="st8" d="M418.7,245.7H286.8c-6.4,0-11.6,5.2-11.6,11.6c0,3.1,1.2,6,3.4,8.2c2.2,2.2,5.1,3.4,8.2,3.4h131.9
		c3.1,0,6-1.2,8.2-3.4s3.4-5.1,3.4-8.2c0-3.1-1.2-6-3.4-8.2C424.7,246.9,421.8,245.7,418.7,245.7z"/>
	<g>
		<path class="st5" d="M357.2,199.7c-0.7,0.7-1.7,1.1-2.7,1.1c-2.1,0-3.9-1.7-3.9-3.9v-30.6c0-2.1,1.7-3.9,3.9-3.9
			c2.1,0,3.9,1.7,3.9,3.9V197C358.3,198.1,357.9,199,357.2,199.7z"/>
		<path class="st5" d="M340.7,206.6c-1.5,1.5-4,1.5-5.5,0L313.6,185c-1.5-1.5-1.5-4,0-5.5s4-1.5,5.5,0l21.6,21.6
			C342.2,202.6,342.2,205.1,340.7,206.6z"/>
		<path class="st5" d="M395.3,184.9l-21.6,21.6c-1.5,1.5-4,1.5-5.5,0s-1.5-4,0-5.5l21.6-21.6c1.5-1.5,4-1.5,5.5,0
			C396.8,181,396.8,183.4,395.3,184.9z"/>
	</g>
</g>
<g id="Layer_2">
</g>
</svg>
