<?xml version="1.0" encoding="utf-8"?>
<!-- Generator: Adobe Illustrator 19.0.0, SVG Export Plug-In . SVG Version: 6.00 Build 0)  -->
<svg version="1.1" id="Layer_1" xmlns="http://www.w3.org/2000/svg" xmlns:xlink="http://www.w3.org/1999/xlink" x="0px" y="0px"
	 viewBox="206 -206 512 512" style="enable-background:new 206 -206 512 512;" xml:space="preserve">
<style type="text/css">
	.st0{display:none;fill:#9BAAAB;}
	.st1{display:none;}
	.st2{display:inline;}
	.st3{fill:#9BAAAB;}
	.st4{fill:#365558;}
	.st5{fill:#0295AA;}
	.st6{fill:#E6EAEA;}
	.st7{fill:#CDD4D5;}
	.st8{fill:#4ACFD9;}
	.st9{fill:#FFFFFF;}
</style>
<polygon class="st0" points="658,65.5 477,135.5 296,65.5 477.5,-5.5 "/>
<g id="Layer_3_1_" class="st1">
	<polygon class="st2" points="1289,-440.4 777,-440.4 777,72.4 890.9,72.4 890.9,-320.5 1081,-320.5 1081,72.4 1289,72.4 	"/>
	<rect x="890.9" y="-320.5" class="st2" width="190.1" height="392.9"/>
</g>
<path id="SVGCleanerId_0_3_" class="st0" d="M850.1-14h-71.9l78.3,85.8V-7C856.5-10.9,853.7-14,850.1-14z"/>
<path class="st3" d="M663.7,144.3v-265.7c0-3.4-2.5-7-5.5-8.2L549.7-169v277.9l108.5,39.5C661.2,149.5,663.7,147.7,663.7,144.3z"/>
<path class="st4" d="M449-205.7c-3-1.1-5.5,0.7-5.5,4V-4l67.7,98.8l38.5,14v-277.9L449-205.7z"/>
<g>
	<path class="st5" d="M481.6-145.1c-3-1.1-5.5,0.7-5.5,4s2.5,7,5.5,8.1l68.1,24.8v-12.1L481.6-145.1z"/>
	<path class="st5" d="M481.6-93.3c-3-1.1-5.5,0.7-5.5,4s2.5,7,5.5,8.1l68.1,24.8v-12.2L481.6-93.3L481.6-93.3z"/>
	<path class="st5" d="M476-37.4c0,3.4,2.5,7,5.5,8.1l68.1,24.8v-12.2l-68.1-24.8C478.5-42.6,476-40.8,476-37.4z"/>
	<path class="st5" d="M476,14.4c0,3.4,2.5,7,5.5,8.1l68.1,24.8V35.1l-68.1-24.8C478.5,9.2,476,11.1,476,14.4z"/>
</g>
<g>
	<path class="st4" d="M623.3-87.5c0-3.4-2.5-7-5.5-8.1l-68.1-24.8v12.1l68.1,24.8C620.8-82.3,623.3-84.1,623.3-87.5z"/>
	<path class="st4" d="M623.3-35.6c0-3.4-2.5-7-5.5-8.1v-0.1l-68.1-24.8v12.2l68.1,24.8C620.8-30.5,623.3-32.2,623.3-35.6z"/>
	<path class="st4" d="M623.3,16.3c0-3.4-2.4-7-5.5-8.2l-68.1-24.8v12.2l68.1,24.8C620.8,21.4,623.3,19.6,623.3,16.3z"/>
	<path class="st4" d="M623.3,68c0-3.3-2.4-6.9-5.5-8.2l-68.1-24.8v12.2l68.1,24.8C620.8,73.2,623.3,71.4,623.3,68z"/>
</g>
<g>
	<path id="SVGCleanerId_0_2_" class="st3" d="M505.6,4.3l-62.1-22.6l67.7,98.8v-68C511.1,9.1,508.7,5.4,505.6,4.3z"/>
</g>
<g>
	<path class="st6" d="M1091.5,77.1v-307.4c0-3.9-2.9-7.1-6.4-7.1H959.6V84.1h125.5C1088.6,84.1,1091.5,81,1091.5,77.1z"/>
	<path class="st7" d="M843.1-237.4c-3.5,0-6.4,3.1-6.4,7V-1.7L915,84.1h44.5v-321.5H843.1z"/>
	<g>
		<path class="st5" d="M880.8-181.1c-3.5,0-6.4,3.1-6.4,7c0,3.9,2.9,7,6.4,7h78.8v-14H880.8z"/>
		<path class="st5" d="M880.8-121.1c-3.5,0-6.4,3.1-6.4,7s2.9,7,6.4,7h78.8v-14.1L880.8-121.1L880.8-121.1z"/>
		<path class="st5" d="M874.4-54.1c0,3.9,2.9,7,6.4,7h78.8v-14.1h-78.8C877.2-61.2,874.4-58,874.4-54.1z"/>
		<path class="st5" d="M874.4,5.8c0,3.9,2.9,7,6.4,7h78.8V-1.3h-78.8C877.2-1.2,874.4,2,874.4,5.8z"/>
	</g>
	<g>
		<path class="st8" d="M1044.8-174c0-3.9-2.9-7-6.4-7h-78.8v14h78.8C1041.9-167,1044.8-170.1,1044.8-174z"/>
		<path class="st8" d="M1044.8-114c0-3.9-2.9-7-6.4-7v-0.1h-78.8v14.1h78.8C1041.9-107,1044.8-110.1,1044.8-114z"/>
		<path class="st8" d="M1044.8-54c0-3.9-2.8-7.1-6.4-7.1h-78.8V-47h78.8C1041.9-47,1044.8-50.1,1044.8-54z"/>
		<path class="st8" d="M1044.8,5.9c0-3.8-2.8-7-6.4-7.1h-78.8v14.1h78.8C1041.9,12.9,1044.8,9.8,1044.8,5.9z"/>
	</g>
	<g>
		<path id="SVGCleanerId_0_4_" class="st3" d="M908.6-1.7h-71.9L915,84.1V5.4C915,1.5,912.2-1.7,908.6-1.7z"/>
	</g>
</g>
<path class="st7" d="M606.6,197.2V-68.5c0-3.4-2.5-7-5.5-8.2l-108.5-39.5v277.9l108.5,39.5C604.1,202.3,606.6,200.5,606.6,197.2z"/>
<path class="st3" d="M391.9-152.8c-3-1.1-5.5,0.7-5.5,4V48.9l67.7,98.8l38.5,14v-277.9L391.9-152.8z"/>
<g>
	<path class="st5" d="M424.5-92.3c-3-1.1-5.5,0.7-5.5,4c0,3.4,2.5,7,5.5,8.1l68.1,24.8v-12.1L424.5-92.3z"/>
	<path class="st5" d="M424.5-40.4c-3-1.1-5.5,0.7-5.5,4s2.5,7,5.5,8.1l68.1,24.8v-12.2L424.5-40.4L424.5-40.4z"/>
	<path class="st5" d="M419,15.5c0,3.4,2.5,7,5.5,8.1l68.1,24.8V36.1l-68.1-24.8C421.4,10.2,419,12.1,419,15.5z"/>
	<path class="st5" d="M419,67.2c0,3.4,2.5,7,5.5,8.1l68.1,24.8V87.9l-68.1-24.8C421.4,62.1,419,63.9,419,67.2z"/>
</g>
<g>
	<path class="st5" d="M566.3-34.6c0-3.4-2.5-7-5.5-8.1l-68.1-24.8v12.1l68.1,24.8C563.8-29.5,566.3-31.2,566.3-34.6z"/>
	<path class="st5" d="M566.3,17.2c0-3.4-2.5-7-5.5-8.1V9.1l-68.1-24.8v12.2l68.1,24.8C563.8,22.4,566.3,20.6,566.3,17.2z"/>
	<path class="st5" d="M566.3,69.1c0-3.4-2.4-7-5.5-8.2l-68.1-24.8v12.2l68.1,24.8C563.8,74.2,566.3,72.5,566.3,69.1z"/>
	<path class="st5" d="M566.3,120.9c0-3.3-2.4-6.9-5.5-8.2l-68.1-24.8v12.2l68.1,24.8C563.8,126,566.3,124.3,566.3,120.9z"/>
</g>
<g>
	<path id="SVGCleanerId_0_5_" class="st3" d="M448.5,28.4L386.4,5.8l67.7,98.8v-68C454.1,33.2,451.7,29.6,448.5,28.4z"/>
</g>
<path class="st6" d="M549.6,248.2V-17.5c0-3.4-2.5-7-5.5-8.2L435.6-65.1v277.9l108.5,39.5C547.1,253.4,549.6,251.6,549.6,248.2z"/>
<path class="st7" d="M334.9-101.8c-3-1.1-5.5,0.7-5.5,4V99.9l67.7,98.8l38.5,14V-65.2L334.9-101.8z"/>
<g>
	<path class="st5" d="M367.5-41.3c-3-1.1-5.5,0.7-5.5,4c0,3.4,2.5,7,5.5,8.1l68.1,24.8v-12.1L367.5-41.3z"/>
	<path class="st5" d="M367.5,10.6c-3-1.1-5.5,0.7-5.5,4s2.5,7,5.5,8.1l68.1,24.8V35.3L367.5,10.6L367.5,10.6z"/>
	<path class="st5" d="M361.9,66.5c0,3.4,2.5,7,5.5,8.1l68.1,24.8V87.2l-68.1-24.8C364.4,61.3,361.9,63.1,361.9,66.5z"/>
	<path class="st5" d="M361.9,118.3c0,3.4,2.5,7,5.5,8.1l68.1,24.8V139l-68.1-24.8C364.4,113.1,361.9,115,361.9,118.3z"/>
</g>
<g>
	<path class="st8" d="M509.2-26.6c0-3.4-2.5-7-5.5-8.1l-68.1-24.8v12.1l68.1,24.8C506.7-21.5,509.2-23.3,509.2-26.6z"/>
	<path class="st8" d="M509.2,25.2c0-3.4-2.5-7-5.5-8.1v-0.1L435.6-7.7V4.5l68.1,24.8C506.7,30.4,509.2,28.6,509.2,25.2z"/>
	<path class="st8" d="M509.2,77.1c0-3.4-2.4-7-5.5-8.2l-68.1-24.8v12.2l68.1,24.8C506.7,82.2,509.2,80.5,509.2,77.1z"/>
	<path class="st8" d="M509.2,128.9c0-3.3-2.4-6.9-5.5-8.2l-68.1-24.8v12.2l68.1,24.8C506.7,134,509.2,132.2,509.2,128.9z"/>
</g>
<g>
	<path id="SVGCleanerId_0_6_" class="st3" d="M391.5,50.8l-62.1-22.6L397,127v-68C397,55.6,394.6,51.9,391.5,50.8z"/>
</g>
<path class="st9" d="M480.6,301.6V35.9c0-3.4-2.5-7-5.5-8.2L366.5-11.7v277.9L475,305.7C478,306.8,480.6,305,480.6,301.6z"/>
<path class="st6" d="M265.8-48.4c-3-1.1-5.5,0.7-5.5,4v197.7l67.7,98.8l38.5,14V-11.7L265.8-48.4z"/>
<g>
	<path class="st5" d="M298.4,12.2c-3-1.1-5.5,0.7-5.5,4s2.5,7,5.5,8.1l68.1,24.8V37L298.4,12.2z"/>
	<path class="st5" d="M298.4,64c-3-1.1-5.5,0.7-5.5,4s2.5,7,5.5,8.1l68.1,24.8V88.7L298.4,64L298.4,64z"/>
	<path class="st5" d="M292.9,119.9c0,3.4,2.5,7,5.5,8.1l68.1,24.8v-12.2l-68.1-24.8C295.3,114.7,292.9,116.6,292.9,119.9z"/>
	<path class="st5" d="M292.9,171.7c0,3.4,2.5,7,5.5,8.1l68.1,24.8v-12.2l-68.1-24.8C295.3,166.5,292.9,168.4,292.9,171.7z"/>
</g>
<g>
	<path class="st8" d="M440.2,69.9c0-3.4-2.5-7-5.5-8.1L366.5,37v12.1l68.1,24.8C437.7,75,440.2,73.2,440.2,69.9z"/>
	<path class="st8" d="M440.2,121.7c0-3.4-2.5-7-5.5-8.1v-0.1l-68.1-24.8V101l68.1,24.8C437.7,126.9,440.2,125.1,440.2,121.7z"/>
	<path class="st8" d="M440.2,173.6c0-3.4-2.4-7-5.5-8.2l-68.1-24.8v12.2l68.1,24.8C437.7,178.7,440.2,177,440.2,173.6z"/>
	<path class="st8" d="M440.2,225.4c0-3.3-2.4-6.9-5.5-8.2l-68.1-24.8v12.2l68.1,24.8C437.7,230.5,440.2,228.7,440.2,225.4z"/>
</g>
<g>
	<path id="SVGCleanerId_0_7_" class="st3" d="M322.5,176l-62.1-22.6l67.7,98.8v-68C328,180.8,325.6,177.1,322.5,176z"/>
</g>
</svg>
