<?xml version="1.0" encoding="utf-8"?>
<!-- Generator: Adobe Illustrator 19.0.0, SVG Export Plug-In . SVG Version: 6.00 Build 0)  -->
<svg version="1.1" id="Layer_1" xmlns="http://www.w3.org/2000/svg" xmlns:xlink="http://www.w3.org/1999/xlink" x="0px" y="0px"
	 viewBox="96 11 512 512" style="enable-background:new 96 11 512 512;" xml:space="preserve">
<style type="text/css">
	.st0{display:none;fill:#9BAAAB;}
	.st1{fill:#FFD1A9;}
	.st2{display:none;}
	.st3{display:inline;}
	.st4{fill:#E6EAEA;}
	.st5{fill:#FF8C29;}
	.st6{fill:#CDD4D5;}
	.st7{fill:#FD6A33;}
	.st8{fill:#9BAAAB;}
	.st9{fill:#4ACFD9;}
	.st10{fill:#0295AA;}
	.st11{fill:#365558;}
</style>
<polygon class="st0" points="543.8,223.7 407.7,276.4 271.5,223.7 408,170.3 "/>
<polygon class="st0" points="681.3,85.3 817.8,138.7 681.7,191.4 545.5,138.7 "/>
<path class="st1" d="M96.1,171.4c0-7.9,6.5-14.3,14.3-14.3h81.3c7.9,0,14.3,6.5,14.3,14.3c0,0,0-0.8,0,9c0,9.9,3.5,17.6,17.6,17.6
	c14,0,343.4,0,343.4,0c7.9,0,14.3,6.5,14.3,14.3v296.5c0,7.9-6.5,14.3-14.3,14.3H110.3c-7.9,0-14.3-6.5-14.3-14.3L96.1,171.4"/>
<g id="Layer_1_1_">
	<g id="Layer_3" class="st2">
		<path class="st3" d="M96-57.4v512.8h512V-57.4H96z M397.4,399.7h-50.8l-89.5-106.5V9.1c0-4.8,3.3-8.7,7.3-8.7h133V399.7z"/>
		<path class="st3" d="M257.1,9.1v284.1l89.5,106.5h50.8V0.4h-133C260.4,0.3,257.1,4.2,257.1,9.1z"/>
	</g>
	<g>
		<path class="st4" d="M223.6,12.3H96v370.2h127.6c3.9,0,7.1-3.6,7.1-8.1v-354C230.7,15.9,227.5,12.3,223.6,12.3z"/>
		<path class="st5" d="M191.8,77H96v16.2h95.8c4.1,0,7.4-3.6,7.4-8.1C199.1,80.7,195.8,77,191.8,77z"/>
		<path class="st5" d="M191.8,146.1H96v16.2h95.8c4.1,0,7.4-3.6,7.4-8.1C199.1,149.7,195.8,146.1,191.8,146.1z"/>
		<path class="st5" d="M191.8,215.2H96v16.2h95.8c4.1,0,7.4-3.6,7.4-8.1C199.1,218.8,195.8,215.2,191.8,215.2z"/>
		<path class="st5" d="M191.8,284.3H96v16.2h95.8c4.1,0,7.4-3.6,7.4-8.1C199.1,287.9,195.8,284.3,191.8,284.3z"/>
	</g>
	<g>
		<path class="st6" d="M473.9,12.3c-4.1,0-7.4,3.6-7.4,8.1v263.3l90.2,98.8H608V12.3L473.9,12.3L473.9,12.3z"/>
		<g>
			<path class="st7" d="M509.9,85.1c0,4.5,3.3,8.1,7.4,8.1H608V77h-90.7C513.2,77,509.9,80.7,509.9,85.1z"/>
			<path class="st7" d="M509.9,154.2c0,4.5,3.3,8.1,7.4,8.1H608v-16.2h-90.7C513.2,146.1,509.9,149.7,509.9,154.2z"/>
			<path class="st7" d="M509.9,223.3c0,4.5,3.3,8.1,7.4,8.1H608v-16.2h-90.7C513.2,215.2,509.9,218.8,509.9,223.3z"/>
			<path class="st7" d="M509.9,292.4c0,4.5,3.3,8.1,7.4,8.1H608v-16.2h-90.7C513.2,284.3,509.9,287.9,509.9,292.4z"/>
		</g>
		<g>
			<path class="st8" d="M549.3,283.7h-82.8l90.2,98.8v-90.7C556.7,287.4,553.4,283.7,549.3,283.7z"/>
		</g>
	</g>
	<path class="st9" d="M279.5,142.6h-61.8c-12.4,0-24.1,4.9-33,13.7s-13.7,20.5-13.7,33c0,25.7,20.9,46.6,46.6,46.6h61.8
		c12.4,0,24.1-4.9,33-13.7c8.8-8.8,13.7-20.5,13.7-33c0-12.4-4.9-24.1-13.7-33C303.6,147.5,291.9,142.6,279.5,142.6z M217.7,165.8
		h61.8c12.9,0,23.4,10.5,23.4,23.4c0,12.9-10.5,23.4-23.4,23.4h-30.9l0,0h-30.9c-12.9,0-23.4-10.5-23.4-23.4
		C194.2,176.3,204.7,165.8,217.7,165.8z"/>
	<path class="st9" d="M488.2,142.6h-61.8c-12.4,0-24.1,4.9-33,13.7c-8.8,8.8-13.7,20.5-13.7,33c0,12.4,4.9,24.1,13.7,33
		c8.8,8.8,20.5,13.7,33,13.7h61.8c12.4,0,24.1-4.9,33-13.7s13.7-20.5,13.7-33c0-12.4-4.9-24.1-13.7-33
		C512.3,147.5,500.6,142.6,488.2,142.6z M488.2,212.7h-30.9h-30.9c-12.9,0-23.4-10.5-23.4-23.4s10.5-23.4,23.4-23.4h61.8
		c12.9,0,23.4,10.5,23.4,23.4S501.1,212.7,488.2,212.7z"/>
	<path class="st10" d="M418.7,177.7H286.8c-6.4,0-11.6,5.2-11.6,11.6c0,3.1,1.2,6,3.4,8.2c2.2,2.2,5.1,3.4,8.2,3.4h131.9
		c3.1,0,6-1.2,8.2-3.4c2.2-2.2,3.4-5.1,3.4-8.2c0-3.1-1.2-6-3.4-8.2C424.7,178.9,421.8,177.7,418.7,177.7z"/>
	<g>
		<path class="st7" d="M357.2,131.7c-0.7,0.7-1.7,1.1-2.7,1.1c-2.1,0-3.9-1.7-3.9-3.9V98.3c0-2.1,1.7-3.9,3.9-3.9
			c2.1,0,3.9,1.7,3.9,3.9V129C358.3,130.1,357.9,131,357.2,131.7z"/>
		<path class="st7" d="M340.7,138.6c-1.5,1.5-4,1.5-5.5,0L313.6,117c-1.5-1.5-1.5-4,0-5.5s4-1.5,5.5,0l21.6,21.6
			C342.2,134.6,342.2,137.1,340.7,138.6z"/>
		<path class="st7" d="M395.3,116.9l-21.6,21.6c-1.5,1.5-4,1.5-5.5,0s-1.5-4,0-5.5l21.6-21.6c1.5-1.5,4-1.5,5.5,0
			C396.8,113,396.8,115.4,395.3,116.9z"/>
	</g>
</g>
<g id="Layer_2">
</g>
<path class="st5" d="M564.8,523.3H108.1c-7.9,0-13.1-7-11.7-15.4l26.2-159.5c1.4-8.5,8.9-15.4,16.9-15.4H596c7.9,0,13.1,7,11.7,15.4
	L581.5,508C580.4,516.3,572.7,523.3,564.8,523.3z"/>
<path class="st11" d="M123.3,504.4c-1.9,0-3.5-0.7-4.6-2.2s-1.5-3.6-1.2-5.8l1.3-7.5c1.8-5.8,5.6-10.2,8.2-10.2h435.6
	c1.9,0,3.5,0.7,4.6,2.2c1.1,1.5,1.5,3.6,1.2,5.8l-1.3,7.5c-0.8,5.4-4.6,10.2-9.4,10.2H123.3z"/>
</svg>
