<?xml version="1.0" encoding="utf-8"?>
<!-- Generator: Adobe Illustrator 19.0.0, SVG Export Plug-In . SVG Version: 6.00 Build 0)  -->
<svg version="1.1" id="Layer_1" xmlns="http://www.w3.org/2000/svg" xmlns:xlink="http://www.w3.org/1999/xlink" x="0px" y="0px"
	 viewBox="206 -206 512 512" style="enable-background:new 206 -206 512 512;" xml:space="preserve">
<style type="text/css">
	.st0{fill:#E6EAEA;}
	.st1{fill:#CDD4D5;}
	.st2{fill:#9BAAAB;}
	.st3{fill:#FF8C29;}
	.st4{fill:#F0353D;}
	.st5{fill:#FD6A33;}
	.st6{fill:#FFFFFF;}
</style>
<g>
	<path class="st0" d="M418.5,55.9H211.5c-3,0-5.5,2.4-5.5,5.5v177.9l66.7,66.7h145.8c3,0,5.5-2.4,5.5-5.5V61.4
		C424,58.4,421.6,55.9,418.5,55.9z"/>
	<path class="st1" d="M211.5,55.9c-3,0-5.5,2.4-5.5,5.5v177.9l66.7,66.7h37.9V55.9H211.5z"/>
	<path id="SVGCleanerId_0" class="st2" d="M267.2,239.3H206l66.7,66.7v-61.2C272.7,241.7,270.3,239.3,267.2,239.3z"/>
	<g>
		<path class="st3" d="M386.5,99.7h-77.2v10.9h77.2c3,0,5.5-2.4,5.5-5.5C391.9,102.1,389.5,99.7,386.5,99.7z"/>
		<path class="st3" d="M243.5,99.7c-3,0-5.5,2.4-5.5,5.5c0,3,2.4,5.5,5.5,5.5h65.7V99.7H243.5z"/>
		<path class="st3" d="M386.5,146.3h-77.2v10.9h77.2c3,0,5.5-2.4,5.5-5.5C391.9,148.8,389.5,146.3,386.5,146.3z"/>
		<path class="st3" d="M243.5,146.3c-3,0-5.5,2.4-5.5,5.5s2.4,5.5,5.5,5.5h65.7v-10.9H243.5z"/>
		<path class="st3" d="M386.5,193h-77.2v10.9h77.2c3,0,5.5-2.4,5.5-5.5C391.9,195.4,389.5,193,386.5,193z"/>
		<path class="st3" d="M243.5,193c-3,0-5.5,2.4-5.5,5.5s2.4,5.5,5.5,5.5h65.7V193H243.5z"/>
		<path class="st3" d="M386.5,239.7h-77.2v10.9h77.2c3,0,5.5-2.4,5.5-5.5S389.5,239.7,386.5,239.7z"/>
		<path class="st3" d="M243.5,239.7c-3,0-5.5,2.4-5.5,5.5c0,3,2.4,5.5,5.5,5.5h65.7v-10.9H243.5z"/>
	</g>
	<g>
		<rect x="309.3" y="99.7" class="st4" width="1.4" height="10.9"/>
		<path class="st4" d="M243.5,99.7c-3,0-5.5,2.4-5.5,5.5c0,3,2.4,5.5,5.5,5.5h65.7V99.7H243.5z"/>
		<rect x="309.3" y="146.3" class="st4" width="1.4" height="10.9"/>
		<path class="st4" d="M243.5,146.3c-3,0-5.5,2.4-5.5,5.5c0,3,2.4,5.5,5.5,5.5h65.7v-10.9H243.5z"/>
		<rect x="309.3" y="193" class="st4" width="1.4" height="10.9"/>
		<path class="st4" d="M243.5,193c-3,0-5.5,2.4-5.5,5.5c0,3,2.4,5.5,5.5,5.5h65.7V193H243.5z"/>
		<rect x="309.3" y="239.7" class="st4" width="1.4" height="10.9"/>
		<path class="st4" d="M243.5,239.7c-3,0-5.5,2.4-5.5,5.5c0,3,2.4,5.5,5.5,5.5h65.7v-10.9H243.5z"/>
	</g>
	<g>
		<polygon class="st2" points="272.7,306 272.7,300.2 266.9,300.2 		"/>
		<path class="st2" d="M267.2,239.3H206l60.9,60.9h5.8v-55.4C272.7,241.7,270.3,239.3,267.2,239.3z"/>
	</g>
</g>
<g>
	<path class="st1" d="M611.8-154.4c-2.8-2.8-7.4-2.8-10.2,0L415.7,31.4c-0.4,0.4-0.6,0.8-0.9,1.2l-60.1,92.9c-1.8,2.8-1.4,6.6,1,9.1
		l9.5,9.5l272.6-272.6L611.8-154.4L611.8-154.4z"/>
	<path class="st1" d="M382.6,158.6c1.4,0,2.8-0.4,4-1.1l92.9-60.1c0.4-0.3,0.8-0.6,1.2-0.9L666.5-89.3c2.8-2.8,2.8-7.4,0-10.2
		l-28.8-28.8L365,144.2l12.3,12.3C378.8,157.9,380.7,158.6,382.6,158.6z"/>
	<path class="st3" d="M704.7-192.6c-17.9-17.9-47-17.9-64.9,0l-43.7,43.7c-2.8,2.8-2.8,7.4,0,10.2L650.7-84c1.4,1.4,3.3,2.1,5.1,2.1
		s3.7-0.7,5.1-2.1l43.7-43.7c8.7-8.7,13.4-20.2,13.4-32.4C718.1-172.4,713.3-184,704.7-192.6z"/>
	<path class="st5" d="M699.2-77.8L589.9-187.1c-2.8-2.8-7.4-2.8-10.2,0l-27.3,27.3c-2.8,2.8-2.8,7.4,0,10.2L661.7-40.3
		c1.4,1.4,3.3,2.1,5.1,2.1s3.7-0.7,5.1-2.1l27.3-27.3c1.3-1.3,2.1-3.3,2.1-5.1C701.3-74.6,700.6-76.5,699.2-77.8z"/>
	<path class="st4" d="M644.8-132.3l-37.5,37.5l54.4,54.4c1.4,1.4,3.3,2.1,5.1,2.1s3.7-0.7,5.1-2.1l27.3-27.3
		c1.3-1.3,2.1-3.3,2.1-5.1c0-2-0.8-3.7-2.1-5.1L644.8-132.3z"/>
	<g>
		<path class="st6" d="M448.1,49.2c-1.8,0-3.7-0.7-5.1-2.1c-2.8-2.8-2.8-7.4,0-10.2l21.8-21.8c2.8-2.8,7.4-2.8,10.2,0
			s2.8,7.4,0,10.2l-21.8,21.8C451.9,48.6,450,49.3,448.1,49.2z"/>
		<path class="st6" d="M491.8,5.5c-1.8,0-3.7-0.7-5.1-2.1c-2.8-2.8-2.8-7.4,0-10.2l76.5-76.5c2.8-2.8,7.4-2.8,10.2,0s2.8,7.4,0,10.2
			L496.9,3.4C495.6,4.9,493.7,5.6,491.8,5.5z"/>
	</g>
</g>
</svg>
