<?xml version="1.0" encoding="utf-8"?>
<!-- Generator: Adobe Illustrator 19.0.0, SVG Export Plug-In . SVG Version: 6.00 Build 0)  -->
<svg version="1.1" id="Layer_1" xmlns="http://www.w3.org/2000/svg" xmlns:xlink="http://www.w3.org/1999/xlink" x="0px" y="0px"
	 viewBox="96 11 512 512" style="enable-background:new 96 11 512 512;" xml:space="preserve">
<style type="text/css">
	.st0{fill:#FD6A33;}
	.st1{fill:#F0353D;}
	.st2{fill:#4ACFD9;}
	.st3{fill:#0295AA;}
	.st4{fill:#FFD1A9;}
	.st5{fill:#687F82;}
	.st6{fill:#365558;}
	.st7{fill:#CDD4D5;}
	.st8{fill:#9BAAAB;}
	.st9{fill:#FFFFFF;}
	.st10{fill:#FF8C29;}
	.st11{fill:#E6EAEA;}
</style>
<g>
	<path class="st0" d="M469.8,69.9c-1.4-1.4-3.3-2.2-5.3-2.2s-3.9,0.8-5.3,2.2L286.5,243.6c-1.4,1.4-2.2,3.3-2.2,5.3s0.8,3.9,2.2,5.3
		l79.4,79c1.4,1.4,3.3,2.2,5.3,2.2s3.9-0.8,5.3-2.2l172.8-173.6c1.5-1.5,2.2-3.4,2.2-5.3c0-1.9-0.7-3.8-2.2-5.3L469.8,69.9z"/>
	<path class="st1" d="M509.2,109.1L325.9,293.4l40.1,39.9c1.4,1.4,3.3,2.2,5.3,2.2s3.9-0.8,5.3-2.2l172.7-173.7
		c1.5-1.5,2.2-3.4,2.2-5.3c0-1.9-0.7-3.8-2.2-5.3L509.2,109.1z"/>
	<path class="st2" d="M495.4,95.3c-1.4-1.4-3.3-2.2-5.3-2.2s-3.9,0.8-5.3,2.2L312,269c-2.9,2.9-2.9,7.7,0,10.6l28.4,28.2
		c1.4,1.4,3.3,2.2,5.3,2.2s3.9-0.8,5.3-2.2l172.8-173.6c1.5-1.5,2.2-3.4,2.2-5.3c0-1.9-0.7-3.8-2.2-5.3L495.4,95.3z"/>
	<path class="st3" d="M509.2,109.1L325.9,293.4l14.5,14.5c1.4,1.4,3.3,2.2,5.3,2.2s3.9-0.8,5.3-2.2l172.8-173.7
		c1.5-1.5,2.2-3.4,2.2-5.3c0-1.9-0.7-3.8-2.2-5.3L509.2,109.1z"/>
	<g>
		<path class="st4" d="M264.9,346.6c-0.5,2.5,0.3,5,2.1,6.8c1.8,1.8,4.3,2.5,6.8,2l99-20.1l-88.3-87.8L264.9,346.6z"/>
		<path class="st4" d="M266.6,353c0.1,0.1,0.2,0.2,0.3,0.4c1.8,1.8,4.3,2.5,6.8,2l99-20.1L328.2,291L266.6,353z"/>
	</g>
	<path class="st5" d="M264.9,346.6c-0.5,2.5,0.3,5,2.1,6.8c1.8,1.8,4.3,2.5,6.8,2l42.4-8.6l-42.9-42.7L264.9,346.6z"/>
	<path class="st6" d="M266.6,353c0.1,0.1,0.2,0.2,0.3,0.4c1.8,1.8,4.3,2.5,6.8,2l42.4-8.6l-21.8-21.7L266.6,353z"/>
	<path class="st7" d="M608,97.5c0-1.9-0.7-3.8-2.2-5.3l-79.4-79c-1.4-1.4-3.3-2.2-5.3-2.2s-3.9,0.8-5.3,2.2L475.2,54l84.7,84.3
		c1.8,1.8,3.3,3.9,4.4,6.2l41.5-41.7C607.2,101.4,608,99.4,608,97.5z"/>
	<path class="st7" d="M475.1,54l-15.9,16l90.1,89.6l15-15c-1.1-2.3-2.6-4.4-4.4-6.2L475.1,54z"/>
	<path class="st8" d="M608,97.5c0-1.9-0.7-3.8-2.2-5.3l-40.1-39.9l-45.9,46.1l40.1,39.9c1.8,1.8,3.3,3.9,4.4,6.2l41.5-41.7
		C607.2,101.4,608,99.4,608,97.5z"/>
	<path class="st8" d="M519.8,98.5l-15.9,16l45.4,45.2l15-15c-1.1-2.3-2.6-4.4-4.4-6.2L519.8,98.5z"/>
	<path class="st9" d="M509,83.9l20-20.1c1.5-1.5,2.2-3.4,2.2-5.3c0-1.9-0.7-3.8-2.2-5.3c-2.9-2.9-7.7-2.9-10.6,0l-20,20.1
		c-0.7,0.7-1.2,1.5-1.6,2.3l9.9,9.9C507.5,85.1,508.3,84.5,509,83.9z"/>
	<path class="st9" d="M498.4,83.9c2.3,2.2,5.6,2.8,8.3,1.5l-9.9-9.9C495.6,78.3,496.1,81.6,498.4,83.9z"/>
</g>
<g>
	<path class="st6" d="M248.7,150.4c-75.7,0-137.3-61.6-137.3-137.3S173-124.2,248.7-124.2S386.1-62.6,386.1,13.1
		S324.4,150.4,248.7,150.4z M248.7-112.2c-69.1,0-125.3,56.2-125.3,125.3s56.2,125.3,125.3,125.3S374,82.2,374,13.1
		S317.8-112.2,248.7-112.2z"/>
	<path class="st3" d="M248.7,91.1c-1.6,0-6.7-3.7-11.5-20.4c-0.9-3.2-1.7-6.5-2.4-10.2h13.9h0.1V49.3h-0.1h-15.9
		c-1.3-9.4-2.2-19.8-2.4-30.6h18.3h0.1V7.5h-0.1h-18.2c0.2-10.8,1-21.2,2.4-30.6h15.8h0.1v-11.1h-0.1h-13.9c0.7-3.6,1.6-7,2.4-10.2
		c4.8-16.7,9.9-20.4,11.5-20.4h0.1V-76h-0.1c-49.1,0-89,40-89,89.1s40,89.1,89.1,89.1h0.1L248.7,91.1
		C248.8,91.1,248.7,91.1,248.7,91.1z M215.4-43c4.5-6.9,9.5-12.3,15-16c-1.4,3.4-2.7,7.1-4,11.4c-1.2,4.1-2.2,8.5-3.1,13.3h-12.7
		C212.1-37.4,213.7-40.2,215.4-43z M219.3,7.5h-18.6c0.5-10.8,2.3-21.2,5.4-30.6h15.4C220.3-13.6,219.5-3.2,219.3,7.5z M221.6,49.2
		h-15.4c-3.1-9.4-5-19.7-5.4-30.6h18.6C219.5,29.4,220.3,39.8,221.6,49.2z M209.9-54.5c-1.3,1.7-2.6,3.5-3.9,5.4
		c-2.9,4.5-5.4,9.5-7.7,14.8h-11.5C193.1-42.5,200.9-49.3,209.9-54.5z M179.7-23.1h14.8c-2.8,9.6-4.5,19.9-4.9,30.6h-18.6
		C171.8-3.4,174.8-13.8,179.7-23.1z M179.7,49.2c-4.9-9.3-8-19.6-8.7-30.6h18.6c0.4,10.7,2.1,21,4.9,30.6H179.7z M186.9,60.5h11.5
		c2.2,5.2,4.7,10.2,7.7,14.8c1.2,1.9,2.5,3.8,3.9,5.4C200.9,75.5,193.1,68.6,186.9,60.5z M215.4,69.1c-1.7-2.7-3.4-5.7-4.8-8.7h12.7
		c0.9,4.7,1.9,9.2,3.1,13.3c1.2,4.2,2.6,8.1,4,11.5C225,81.4,219.9,76.1,215.4,69.1z"/>
	<path class="st2" d="M337.9,13.1c0-49.1-40-89.1-89.1-89.1v11.3c1.7,0.1,6.7,3.9,11.5,20.4c0.9,3.2,1.7,6.5,2.4,10.2h-13.9v11.1
		h15.9c1.3,9.5,2.2,19.8,2.4,30.6h-18.2v11.1H267c-0.2,10.8-1,21.2-2.3,30.6h-15.9v11.2h13.9c-0.7,3.5-1.6,7-2.4,10.2
		c-4.8,16.6-9.8,20.3-11.5,20.4v11.1C297.9,102.2,337.9,62.2,337.9,13.1z M317.8,49.2H303c2.8-9.6,4.5-19.9,4.9-30.6h18.6
		C325.7,29.6,322.6,40,317.8,49.2z M317.8-23.1c4.9,9.3,8,19.6,8.7,30.6h-18.6c-0.4-10.7-2.1-21-4.9-30.6
		C303.1-23.1,317.8-23.1,317.8-23.1z M310.5-34.3H299c-2.2-5.2-4.7-10.2-7.7-14.8c-1.2-1.9-2.5-3.8-3.9-5.4
		C296.5-49.3,304.4-42.5,310.5-34.3z M278.1,7.5c-0.2-10.7-1-21-2.2-30.6h15.4c3.1,9.4,5,19.7,5.4,30.6H278.1z M296.7,18.7
		c-0.5,10.8-2.3,21.2-5.4,30.6h-15.4c1.2-9.6,2.1-19.9,2.2-30.6H296.7z M282-43c1.7,2.7,3.4,5.7,4.8,8.7h-12.7
		c-0.9-4.7-1.9-9.2-3.1-13.3c-1.2-4.2-2.6-8.1-4-11.5C272.4-55.2,277.6-49.9,282-43z M282,69.1c-4.5,6.9-9.5,12.3-15,16
		c1.5-3.4,2.8-7.1,4-11.5c1.2-4.1,2.2-8.5,3.1-13.3h12.7C285.4,63.5,283.8,66.4,282,69.1z M287.6,80.7c1.3-1.7,2.6-3.5,3.9-5.4
		c2.9-4.5,5.4-9.5,7.7-14.8h11.5C304.4,68.6,296.5,75.5,287.6,80.7z"/>
	<path class="st0" d="M380.7-7.4c-11.3,0-20.5,9.2-20.5,20.5s9.2,20.5,20.5,20.5c11.3,0,20.5-9.2,20.5-20.5S392-7.4,380.7-7.4z"/>
	<path class="st0" d="M248.7,124c-11.3,0-20.5,9.2-20.5,20.5s9.2,20.5,20.5,20.5s20.5-9.2,20.5-20.5
		C269.3,133.2,260.1,124,248.7,124z"/>
	<path class="st1" d="M228.2,144.5c0,11.1,8.8,20.1,19.7,20.5v-41C237,124.4,228.2,133.4,228.2,144.5z"/>
	<path class="st0" d="M248-140c-11.3,0-20.5,9.2-20.5,20.5s9.2,20.5,20.5,20.5c11.3,0,20.5-9.2,20.5-20.5S259.4-140,248-140z"/>
	<path class="st1" d="M227.5-119.5c0,11.1,8.8,20.1,19.7,20.5v-41C236.3-139.6,227.5-130.6,227.5-119.5z"/>
	<path class="st1" d="M117.6-7.4c-11.3,0-20.5,9.2-20.5,20.5s9.2,20.5,20.5,20.5s20.5-9.2,20.5-20.5S128.9-7.4,117.6-7.4z"/>
</g>
<path class="st7" d="M394.4,460.8l-64.2-61.6c-1.8-1.8-4.8-1.8-6.6,0l-60.2,56.6l-79-109.8c-0.9-1.3-2.4-2-3.9-2c0,0,0,0,0,0
	c-1.6,0-3,0.8-3.9,2l-79.6,113c-0.6,0.8-0.9,1.8-0.9,2.8v56.5c0,2.7,2.2,4.8,4.8,4.8H391c2.7,0,4.8-2.2,4.8-4.8l12.1-43.1
	C408,473.8,395.3,461.7,394.4,460.8z"/>
<path class="st10" d="M608,474.8H96v43.3c0,2.7,3.7,4.8,8.2,4.8h495.6c4.5,0,8.2-2.2,8.2-4.8V474.8z"/>
<path class="st8" d="M184.3,345.9c-0.9-1.3-2.4-2-3.9-2c0,0,0,0,0,0c-1.6,0-3,0.8-3.9,2l-79.6,113c-0.6,0.8-0.9,1.8-0.9,2.8v56.5
	c0,2.7,2.2,4.8,4.8,4.8h145.9v-90.5L184.3,345.9z"/>
<path class="st0" d="M96,474.8v43.3c0,2.7,2.2,4.8,4.8,4.8h145.9v-48.2H96z"/>
<path class="st7" d="M184.3,345.9c-0.9-1.3-2.4-2-3.9-2c0,0,0,0,0,0c-1.6,0-3,0.8-3.9,2l-29.1,41.3h66.7L184.3,345.9z"/>
<path class="st11" d="M330.2,399.1c-1.8-1.8-4.8-1.8-6.6,0L287,433.4h78.9L330.2,399.1z"/>
<g>
	<g>
		<path class="st8" d="M557.4,379l18-29.4v-60.7c0-1.2-0.8-2.1-1.9-2.1l-36.8,0v94.3h18.8C556.5,381.1,557.4,380.2,557.4,379z"/>
		<path class="st6" d="M502.6,286.8c-1,0-1.9,0.9-1.9,2v67l22.9,25.1h13.1v-94.2H502.6z"/>
		<g>
			<path class="st3" d="M513.6,303.3c-1,0-1.9,0.9-1.9,2s0.8,2.1,1.9,2.1h23.1v-4.1H513.6z"/>
			<path class="st3" d="M513.6,320.9c-1,0-1.9,0.9-1.9,2c0,1.1,0.8,2.1,1.9,2.1h23.1v-4.2L513.6,320.9L513.6,320.9z"/>
			<path class="st3" d="M511.7,340.6c0,1.2,0.8,2.1,1.9,2.1h23.1v-4.2h-23.1C512.6,338.5,511.7,339.4,511.7,340.6z"/>
			<path class="st3" d="M511.7,358.1c0,1.2,0.8,2.1,1.9,2.1h23.1V356h-23.1C512.6,356.1,511.7,357,511.7,358.1z"/>
		</g>
		<g>
			<path class="st6" d="M561.7,305.4c0-1.2-0.8-2.1-1.9-2.1h-23.1v4.1h23.1C560.8,307.4,561.7,306.5,561.7,305.4z"/>
			<path class="st6" d="M561.7,323c0-1.2-0.8-2.1-1.9-2.1v0h-23.1v4.2h23.1C560.8,325,561.7,324.1,561.7,323z"/>
			<path class="st6" d="M561.7,340.6c0-1.2-0.8-2.1-1.9-2.1h-23.1v4.2h23.1C560.8,342.6,561.7,341.7,561.7,340.6z"/>
			<path class="st6" d="M561.7,358.1c0-1.1-0.8-2-1.9-2.1h-23.1v4.2h23.1C560.8,360.2,561.7,359.3,561.7,358.1z"/>
		</g>
	</g>
	<g>
		<path id="SVGCleanerId_0_2_" class="st8" d="M521.8,285.1h-21.1l22.9,25.1v-23C523.6,286.1,522.8,285.1,521.8,285.1z"/>
	</g>
	<path class="st7" d="M556,356.1v-90.1c0-1.2-0.8-2.1-1.9-2.1h-36.8v94.3h36.8C555.2,358.1,556,357.2,556,356.1z"/>
	<path class="st8" d="M483.2,263.9c-1,0-1.9,0.9-1.9,2v67l22.9,25.1h13.1v-94.2H483.2z"/>
	<g>
		<path class="st3" d="M494.2,280.3c-1,0-1.9,0.9-1.9,2c0,1.2,0.8,2.1,1.9,2.1h23.1v-4.1H494.2z"/>
		<path class="st3" d="M494.2,297.9c-1,0-1.9,0.9-1.9,2c0,1.1,0.8,2.1,1.9,2.1h23.1v-4.2L494.2,297.9L494.2,297.9z"/>
		<path class="st3" d="M492.4,317.6c0,1.2,0.8,2.1,1.9,2.1h23.1v-4.2h-23.1C493.2,315.5,492.4,316.4,492.4,317.6z"/>
		<path class="st3" d="M492.4,335.1c0,1.2,0.8,2.1,1.9,2.1h23.1V333h-23.1C493.2,333.1,492.4,334,492.4,335.1z"/>
	</g>
	<g>
		<path class="st3" d="M542.3,282.4c0-1.2-0.8-2.1-1.9-2.1h-23.1v4.1h23.1C541.5,284.4,542.3,283.6,542.3,282.4z"/>
		<path class="st3" d="M542.3,300c0-1.2-0.8-2.1-1.9-2.1l0,0h-23.1v4.2h23.1C541.5,302.1,542.3,301.1,542.3,300z"/>
		<path class="st3" d="M542.3,317.6c0-1.2-0.8-2.1-1.9-2.1h-23.1v4.2h23.1C541.5,319.6,542.3,318.7,542.3,317.6z"/>
		<path class="st3" d="M542.3,335.1c0-1.1-0.8-2-1.9-2.1h-23.1v4.2h23.1C541.5,337.2,542.3,336.3,542.3,335.1z"/>
	</g>
	<g>
		<path id="SVGCleanerId_0_5_" class="st8" d="M502.4,300.3h-21.1l22.9,25.1v-23.1C504.3,301.3,503.5,300.4,502.4,300.3z"/>
	</g>
	<path class="st11" d="M536.7,368.4v-90.1c0-1.2-0.8-2.1-1.9-2.1l-36.8,0v94.2h36.8C535.8,370.5,536.7,369.5,536.7,368.4z"/>
	<path class="st7" d="M463.9,276.2c-1,0-1.9,0.9-1.9,2v67l22.9,25.1H498v-94.2H463.9z"/>
	<g>
		<path class="st3" d="M474.9,292.7c-1,0-1.9,0.9-1.9,2c0,1.2,0.8,2.1,1.9,2.1H498v-4.1H474.9z"/>
		<path class="st3" d="M474.9,310.3c-1,0-1.9,0.9-1.9,2c0,1.1,0.8,2.1,1.9,2.1H498v-4.2L474.9,310.3L474.9,310.3z"/>
		<path class="st3" d="M473,330c0,1.2,0.8,2.1,1.9,2.1H498v-4.2h-23.1C473.9,327.9,473,328.8,473,330z"/>
		<path class="st3" d="M473,347.5c0,1.2,0.8,2.1,1.9,2.1H498v-4.2h-23.1C473.9,345.4,473,346.4,473,347.5z"/>
	</g>
	<g>
		<path class="st2" d="M523,294.6c0-1.2-0.8-2.1-1.9-2.1H498v4.1h23.1C522.1,296.6,523,295.7,523,294.6z"/>
		<path class="st2" d="M523,312.1c0-1.2-0.8-2.1-1.9-2.1v0l-23.1,0v4.2h23.1C522.1,314.2,523,313.3,523,312.1z"/>
		<path class="st2" d="M523,329.7c0-1.2-0.8-2.1-1.9-2.1H498v4.2h23.1C522.1,331.8,523,330.9,523,329.7z"/>
		<path class="st2" d="M523,347.3c0-1.1-0.8-2-1.9-2.1H498v4.2h23.1C522.1,349.3,523,348.4,523,347.3z"/>
	</g>
	<g>
		<path id="SVGCleanerId_0_6_" class="st8" d="M483.1,315H462l22.9,25.1v-23.1C484.9,315.9,484.1,314.9,483.1,315z"/>
	</g>
	<path class="st9" d="M513.3,389v-90.1c0-1.2-0.8-2.1-1.9-2.1l-36.8,0v94.2h36.8C512.4,391.1,513.3,390.2,513.3,389z"/>
	<path class="st11" d="M440.4,296.8c-1,0-1.9,0.9-1.9,2v67l22.9,25.1h13.1v-94.2H440.4z"/>
	<g>
		<path class="st3" d="M451.5,313.4c-1,0-1.9,0.9-1.9,2c0,1.1,0.8,2.1,1.9,2.1h23.1v-4.1H451.5z"/>
		<path class="st3" d="M451.5,330.9c-1,0-1.9,0.9-1.9,2c0,1.1,0.8,2.1,1.9,2.1h23.1v-4.2L451.5,330.9L451.5,330.9z"/>
		<path class="st3" d="M449.6,350.6c0,1.2,0.8,2.1,1.9,2.1h23.1v-4.2h-23.1C450.4,348.5,449.6,349.4,449.6,350.6z"/>
		<path class="st3" d="M449.6,368.1c0,1.2,0.8,2.1,1.9,2.1h23.1v-4.2h-23.1C450.4,366.1,449.6,367,449.6,368.1z"/>
	</g>
	<g>
		<path class="st2" d="M499.6,315.4c0-1.2-0.8-2.1-1.9-2.1h-23.1v4.1h23.1C498.7,317.5,499.6,316.6,499.6,315.4z"/>
		<path class="st2" d="M499.6,333c0-1.2-0.8-2.1-1.9-2.1v0h-23.1v4.2h23.1C498.7,335.1,499.6,334.2,499.6,333z"/>
		<path class="st2" d="M499.6,350.6c0-1.2-0.8-2.1-1.9-2.1h-23.1v4.2h23.1C498.7,352.6,499.6,351.8,499.6,350.6z"/>
		<path class="st2" d="M499.6,368.1c0-1.1-0.8-2-1.9-2.1h-23.1v4.2h23.1C498.7,370.2,499.6,369.3,499.6,368.1z"/>
	</g>
	<g>
		<path id="SVGCleanerId_0_7_" class="st8" d="M459.7,365.9h-21.1l22.9,25.1V368C461.5,366.9,460.7,365.9,459.7,365.9z"/>
	</g>
	<path class="st2" d="M574.8,330.7h-73.4v97.7h37.4c11.1,0,11.1-13.1,11.1-23.1l36-63.5C585.8,335.7,580.9,330.7,574.8,330.7z"/>
	<path class="st3" d="M429.8,330.7c-6.1,0-11.1,5-11.1,11.1l24,63.5c0,8.5,2,23.1,11.1,23.1h47.6v-97.7H429.8L429.8,330.7z"/>
	<path class="st4" d="M470.9,411.8c-9.2,0-16.6,7.4-16.6,16.6s7.4,16.6,16.6,16.6c9.2,0,16.6-7.4,16.6-16.6S480,411.8,470.9,411.8z"
		/>
	<circle class="st10" cx="470.9" cy="428.4" r="9.5"/>
	<path class="st4" d="M523.6,445c-9.2,0-16.6-7.4-16.6-16.6s7.4-16.6,16.6-16.6c9.2,0,16.6,7.4,16.6,16.6S532.8,445,523.6,445z"/>
	<circle class="st10" cx="523.6" cy="428.4" r="9.5"/>
	<polygon class="st10" points="579.4,353.1 499,353.1 499,368.5 570.8,368.5 	"/>
	<polygon class="st0" points="422.9,353.1 428.7,368.5 501.4,368.5 501.4,353.1 	"/>
	<path class="st10" d="M604.4,461.5H400.1c-2.3,0-4.3-1.9-4.3-4.3v-7.8c0-2.3,1.9-4.3,4.3-4.3h204.3c2.3,0,4.3,1.9,4.3,4.3v7.8
		C608.7,459.6,606.8,461.5,604.4,461.5z"/>
	<g>
		<path class="st5" d="M436.6,475.1h-14.1c-1.5,0-2.7-1.2-2.7-2.7v-8.4c0-1.5,1.2-2.7,2.7-2.7h14.1c1.5,0,2.7,1.2,2.7,2.7v8.4
			C439.2,473.9,438.1,475.1,436.6,475.1z"/>
		<path class="st5" d="M485.1,475.1H471c-1.5,0-2.7-1.2-2.7-2.7v-8.4c0-1.5,1.2-2.7,2.7-2.7h14.1c1.5,0,2.7,1.2,2.7,2.7v8.4
			C487.7,473.9,486.5,475.1,485.1,475.1z"/>
		<path class="st5" d="M533.6,475.1h-14.1c-1.5,0-2.7-1.2-2.7-2.7v-8.4c0-1.5,1.2-2.7,2.7-2.7h14.1c1.5,0,2.7,1.2,2.7,2.7v8.4
			C536.2,473.9,535,475.1,533.6,475.1z"/>
		<path class="st5" d="M582.1,475.1h-14.1c-1.5,0-2.7-1.2-2.7-2.7v-8.4c0-1.5,1.2-2.7,2.7-2.7h14.1c1.5,0,2.7,1.2,2.7,2.7v8.4
			C584.7,473.9,583.5,475.1,582.1,475.1z"/>
	</g>
</g>
</svg>
