<?xml version="1.0" encoding="utf-8"?>
<!-- Generator: Adobe Illustrator 19.0.0, SVG Export Plug-In . SVG Version: 6.00 Build 0)  -->
<svg version="1.1" id="Layer_1" xmlns="http://www.w3.org/2000/svg" xmlns:xlink="http://www.w3.org/1999/xlink" x="0px" y="0px"
	 viewBox="96 11 512 512" style="enable-background:new 96 11 512 512;" xml:space="preserve">
<style type="text/css">
	.st0{fill:#9BAAAB;}
	.st1{fill:#FD6A33;}
	.st2{fill:#FF8C29;}
	.st3{fill:#F0353D;}
	.st4{fill:#0295AA;}
</style>
<rect x="326.9" y="129.7" class="st0" width="22.6" height="154.3"/>
<rect x="438.6" y="339.5" class="st0" width="22" height="85.5"/>
<rect x="550.2" y="109" class="st0" width="22" height="187.7"/>
<path class="st1" d="M291,164.3V389h93.5V164.3H291z M354.5,361.7c-4.4,3.7-10.3,5.5-17.6,5.5c-6.8,0-12.4-1.8-16.8-5.4
	c-4.3-3.6-6.5-8.4-6.5-14.3h13.6c0,2.6,1,4.7,2.9,6.3c1.9,1.6,4.3,2.4,7.1,2.4c3.2,0,5.7-0.8,7.6-2.5c1.8-1.7,2.8-4,2.8-6.8
	c0-6.8-3.8-10.2-11.3-10.2h-7.2V326h7.2c3.4,0,6-0.9,7.7-2.6c1.7-1.7,2.5-4,2.5-6.9c0-2.8-0.8-4.9-2.5-6.4c-1.6-1.5-3.9-2.3-6.8-2.3
	c-2.6,0-4.8,0.7-6.5,2.2c-1.8,1.4-2.6,3.3-2.6,5.5h-13.6c0-3.6,1-6.8,2.9-9.6c1.9-2.8,4.6-5.1,8.1-6.7c3.5-1.6,7.3-2.4,11.5-2.4
	c7.2,0,12.9,1.7,17,5.2c4.1,3.4,6.2,8.2,6.2,14.3c0,3.1-1,6-2.9,8.6c-1.9,2.6-4.4,4.7-7.5,6.1c3.9,1.4,6.7,3.4,8.6,6.2
	c1.9,2.8,2.9,6,2.9,9.8C361.2,353.1,359,358,354.5,361.7z"/>
<path class="st2" d="M402.6,129.6v224.7h93.5V129.6H402.6z M474.2,332h-46.9v-9.3l22.1-23.6c3-3.3,5.3-6.2,6.7-8.7
	c1.5-2.5,2.2-4.8,2.2-7c0-3-0.8-5.4-2.3-7.1c-1.5-1.8-3.7-2.6-6.6-2.6c-3.1,0-5.5,1.1-7.3,3.2c-1.8,2.1-2.6,4.9-2.6,8.3H426
	c0-4.2,1-8,3-11.4c2-3.4,4.8-6.1,8.5-8.1c3.6-2,7.8-3,12.4-3c7,0,12.5,1.7,16.4,5.1c3.9,3.4,5.9,8.2,5.9,14.3
	c0,3.4-0.9,6.8-2.6,10.3c-1.8,3.5-4.8,7.6-9,12.3L444.8,321h29.4V332z"/>
<path class="st2" d="M514.1,172.3v224.7h93.5V172.3H514.1z M572,376.6h-13.6v-52.3l-16.2,5v-11l28.3-10.1h1.5V376.6z"/>
<path class="st3" d="M427.3,322.7l22-23.5v-25.6c-0.2,0-0.3,0-0.5,0c-0.2,0-0.4,0-0.5,0c-0.2,0-0.4,0.1-0.5,0.1
	c-0.2,0-0.3,0-0.5,0.1c-0.2,0-0.3,0.1-0.5,0.1c-0.2,0-0.3,0.1-0.5,0.1c-0.2,0.1-0.3,0.1-0.5,0.2c-0.1,0.1-0.3,0.1-0.4,0.2
	c-0.2,0.1-0.3,0.2-0.5,0.3c-0.1,0.1-0.2,0.1-0.4,0.2c-0.2,0.1-0.3,0.2-0.5,0.3c-0.1,0.1-0.2,0.1-0.3,0.2c-0.2,0.1-0.4,0.3-0.5,0.5
	c-0.1,0.1-0.1,0.1-0.2,0.2c-0.2,0.2-0.5,0.5-0.7,0.7c-1.8,2.1-2.6,4.9-2.6,8.3H426c0-4.2,1-8,3-11.4c2-3.4,4.8-6.1,8.5-8.1
	c0.4-0.2,0.9-0.5,1.4-0.7c0.1-0.1,0.3-0.1,0.4-0.2c0.3-0.1,0.7-0.3,1-0.4c0.2-0.1,0.4-0.1,0.5-0.2c0.3-0.1,0.6-0.2,0.9-0.3
	c0.2-0.1,0.4-0.1,0.6-0.2c0.3-0.1,0.6-0.2,0.9-0.2c0.2-0.1,0.4-0.1,0.7-0.1c0.3-0.1,0.6-0.1,0.9-0.2c0.2,0,0.5-0.1,0.7-0.1
	c0.3,0,0.6-0.1,0.9-0.1c0.3,0,0.5,0,0.8-0.1c0.3,0,0.6-0.1,0.8-0.1c0.3,0,0.6,0,0.8,0c0.2,0,0.4,0,0.7,0V129.6h-46.8v224.7h46.8V332
	h-22V322.7z"/>
<path class="st3" d="M448.7,262.7c-0.3,0-0.6,0-0.8,0C448.1,262.7,448.4,262.7,448.7,262.7z"/>
<path class="st3" d="M442.2,263.7c-0.2,0.1-0.4,0.1-0.6,0.2C441.8,263.8,442,263.7,442.2,263.7z"/>
<path class="st3" d="M443.8,263.3c-0.2,0-0.5,0.1-0.7,0.1C443.3,263.4,443.5,263.3,443.8,263.3z"/>
<path class="st3" d="M440.7,264.1c-0.2,0.1-0.4,0.1-0.5,0.2C440.3,264.3,440.5,264.2,440.7,264.1z"/>
<path class="st3" d="M445.4,263c-0.2,0-0.5,0.1-0.7,0.1C444.9,263.1,445.1,263,445.4,263z"/>
<path class="st3" d="M447,262.8c-0.3,0-0.5,0-0.8,0.1C446.5,262.8,446.7,262.8,447,262.8z"/>
<path class="st3" d="M445.8,274.3c0.2-0.1,0.3-0.1,0.5-0.2C446.1,274.1,445.9,274.2,445.8,274.3z"/>
<path class="st3" d="M446.7,273.9c0.2,0,0.3-0.1,0.5-0.1C447.1,273.9,446.9,273.9,446.7,273.9z"/>
<path class="st3" d="M447.8,273.7c0.2,0,0.4-0.1,0.5-0.1C448.1,273.7,447.9,273.7,447.8,273.7z"/>
<path class="st3" d="M449.3,273.6c-0.2,0-0.3,0-0.5,0C449,273.6,449.2,273.6,449.3,273.6L449.3,273.6z"/>
<polygon class="st3" points="449.3,299.2 449.3,299.2 427.3,322.7 "/>
<path class="st3" d="M439.1,264.8c-0.1,0.1-0.3,0.1-0.4,0.2C438.9,264.9,439,264.8,439.1,264.8z"/>
<path class="st3" d="M444.8,274.7c0.2-0.1,0.3-0.2,0.5-0.3C445.2,274.5,445,274.6,444.8,274.7z"/>
<path class="st3" d="M442.2,276.8c0.2-0.3,0.5-0.5,0.7-0.7C442.7,276.3,442.4,276.5,442.2,276.8z"/>
<path class="st3" d="M443.1,275.9c0.2-0.2,0.4-0.3,0.5-0.5C443.5,275.6,443.3,275.7,443.1,275.9z"/>
<path class="st3" d="M444,275.2c0.2-0.1,0.3-0.2,0.5-0.3C444.3,275,444.1,275.1,444,275.2z"/>
<polygon class="st3" points="449.3,316.3 444.8,321 449.3,321 "/>
<path class="st4" d="M127,11H96v512h31l38-23.5L127,476l38-23l-38-23l38-23.5L127,383l38-23l-38-23l38-23.5L127,290l38-23l-38-23
	l38-23.5L127,197l38-23l-38-23l38-23.5L127,104l38-23l-38-23l38-23.5L127,11z"/>
<circle class="st4" cx="262" cy="283" r="10"/>
<circle class="st4" cx="223.1" cy="283" r="10"/>
<circle class="st4" cx="183" cy="283" r="10"/>
</svg>
