<svg width="512" height="512" viewBox="0 0 512 512" fill="none" xmlns="http://www.w3.org/2000/svg">
<circle cx="255.397" cy="256.5" r="190.086" fill="#4ACFD9"/>
<path fill-rule="evenodd" clip-rule="evenodd" d="M256.001 66.4148C255.799 66.4141 255.598 66.4138 255.397 66.4138C150.415 66.4138 65.3105 151.518 65.3105 256.5C65.3105 361.482 150.415 446.587 255.397 446.587C255.598 446.587 255.799 446.586 256.001 446.586V66.4148Z" fill="#0295AA"/>
<path d="M233.061 476.788C110.096 471.335 13.6746 368.326 16.893 244.765C19.3218 151.517 72.7897 70.9597 154.243 38.4147L244.646 32.0018L185.89 59.235C100.524 83.3606 37.5952 151.896 35.1638 245.241C32.2083 358.711 120.187 471.601 233.061 476.788Z" fill="#F0353D"/>
<path d="M124.68 156.156C155.371 89.5465 184.081 64.7621 244.646 32.0015C142.162 31.6139 106.239 42.3987 69.8464 74.563C95.5617 62.2623 109.901 54.7784 137.766 58.752C123.784 93.0029 123.66 115.499 124.68 156.156Z" fill="#F0353D"/>
<path d="M269.62 21.7586C397.746 27.4399 498.214 134.772 494.86 263.518C492.329 360.679 432.327 444.228 347.455 478.139L257.549 485.21L319.972 449.823C408.921 424.685 473.289 360.284 475.822 263.022C478.902 144.791 387.231 27.1632 269.62 21.7586Z" fill="#BCD643"/>
<path d="M382.549 355.845C350.57 425.25 320.656 451.075 257.55 485.21C364.334 485.614 401.765 474.377 439.685 440.863C412.89 453.68 397.949 461.478 368.915 457.337C383.483 421.649 383.613 398.209 382.549 355.845Z" fill="#BCD643"/>
<circle cx="255.397" cy="256.5" r="164.742" fill="#E6EAEA"/>
<path fill-rule="evenodd" clip-rule="evenodd" d="M256.001 91.7599C255.799 91.7592 255.598 91.7588 255.397 91.7588C164.413 91.7588 90.6553 165.516 90.6553 256.5C90.6553 347.485 164.413 421.242 255.397 421.242C255.598 421.242 255.799 421.242 256.001 421.241V91.7599Z" fill="#CDD4D5"/>
<path d="M119.621 243.828C124.484 173.027 183.415 117.104 255.397 117.104C327.379 117.104 386.309 173.027 391.173 243.828H368.173C363.361 185.715 314.707 140.054 255.397 140.054C196.086 140.054 147.432 185.715 142.62 243.828H119.621Z" fill="#F0353D"/>
<path fill-rule="evenodd" clip-rule="evenodd" d="M256 140.054C315.037 140.363 363.378 185.911 368.174 243.827H391.173C386.323 173.224 327.708 117.415 256 117.104V140.054Z" fill="#4ACFD9"/>
<path d="M280.335 268.493C271.612 281.544 253.983 285.069 240.96 276.365C227.937 267.661 224.451 250.025 233.174 236.973C241.897 223.922 259.525 220.397 272.548 229.101C285.571 237.805 289.057 255.441 280.335 268.493Z" fill="#FF8C29"/>
<path d="M332.498 140.121L273.482 245.856L257.375 235.091L332.498 140.121Z" fill="#FF8C29"/>
<path fill-rule="evenodd" clip-rule="evenodd" d="M333.402 139.272L265.352 225.269C253.611 221.737 240.462 226.068 233.295 236.792C224.505 249.944 228.041 267.731 241.192 276.521C241.303 276.595 241.414 276.668 241.526 276.74L333.402 139.272Z" fill="#FD6A33"/>
</svg>
