<?xml version="1.0" encoding="utf-8"?>
<!-- Generator: Adobe Illustrator 19.0.0, SVG Export Plug-In . SVG Version: 6.00 Build 0)  -->
<svg version="1.1" id="Layer_1" xmlns="http://www.w3.org/2000/svg" xmlns:xlink="http://www.w3.org/1999/xlink" x="0px" y="0px"
	 viewBox="96 11 512 512" style="enable-background:new 96 11 512 512;" xml:space="preserve">
<style type="text/css">
	.st0{fill:#45CCD3;}
	.st1{fill:#0197A5;}
	.st2{fill:#9BAAAB;}
	.st3{fill:#FD6A33;}
	.st4{fill:#F0353D;}
	.st5{fill:#4ACFD9;}
	.st6{fill:#0295AA;}
</style>
<path class="st0" d="M222.8,81.5C207.4,51.6,229.1,16,262.7,16h178.5c33.5,0,55.2,35.5,40,65.4l-88,172.5
	c-2.9,5.7-2.9,12.4-0.1,18.1l89.3,180.6c14.7,29.8-6.9,64.8-40.1,64.9L262.1,518c-33.4,0.1-55.2-35-40.3-64.9l89.8-181
	c2.8-5.7,2.8-12.5-0.1-18.2L222.8,81.5z M262.7,40.8c-15.1,0-24.8,16-17.9,29.4l88.6,172.4c6.5,12.7,6.6,27.7,0.3,40.5l-89.8,181
	c-6.7,13.4,3.1,29.1,18.1,29.1l180.1-0.5c14.9,0,24.6-15.7,18-29.1L370.8,283c-6.3-12.7-6.2-27.7,0.3-40.4l88-172.5
	c6.8-13.4-2.9-29.3-17.9-29.3H262.7z"/>
<path class="st1" d="M226.5,34.9c-9.2,12.9-11.6,30.6-3.4,46.6l88.6,172.3c2.9,5.7,3,12.4,0.1,18.2l-89.8,181
	c-14.9,29.9,7,65,40.4,64.9l180.2-0.5c15.5,0,28.5-7.7,36.4-18.8l-17.1-31.4c3.4,12.4-5.9,25.4-19.4,25.4l-180.2,0.5
	c-15,0-24.8-15.7-18.1-29.1l89.8-181c6.3-12.8,6.2-27.8-0.3-40.5L245.2,70.1c-0.6-1.2-1.1-2.4-1.4-3.6L226.5,34.9z"/>
<rect x="343" y="163.2" class="st2" width="18" height="278.2"/>
<path class="st3" d="M352,422h48l-35.4-137.8c-3.1-11.9-5.5-24.5,0.3-35.4l16-39.1H352V422z"/>
<path class="st4" d="M352,422h-46.5l34.4-138.4c2.9-11.6,3.8-24.6-0.1-34.4l-15.5-39.5H352V422z"/>
<path class="st5" d="M352,139l29.4-36h-58.9L352,139z"/>
<path class="st6" d="M352,96l23.4-29.3h-46.8L352,96z"/>
</svg>
