<?xml version="1.0" encoding="utf-8"?>
<!-- Generator: Adobe Illustrator 19.0.0, SVG Export Plug-In . SVG Version: 6.00 Build 0)  -->
<svg version="1.1" id="Layer_1" xmlns="http://www.w3.org/2000/svg" xmlns:xlink="http://www.w3.org/1999/xlink" x="0px" y="0px"
	 viewBox="96 11 512 512" style="enable-background:new 96 11 512 512;" xml:space="preserve">
<style type="text/css">
	.st0{display:none;fill:#0295AA;}
	.st1{fill:#365558;}
	.st2{fill:#E6EAEA;}
	.st3{fill:#CDD4D5;}
	.st4{fill:#9BAAAB;}
	.st5{fill:#FF8C29;}
	.st6{fill:#4ACFD9;}
	.st7{fill:#0295AA;}
	.st8{fill:#F0353D;}
	.st9{fill:#BCD643;}
	.st10{fill:#FD6A33;}
	.st11{fill:#FFD1A9;}
	.st12{fill:#FFFFFF;}
</style>
<circle class="st0" cx="759.5" cy="84.2" r="188.5"/>
<ellipse class="st1" cx="160.9" cy="256.7" rx="6.1" ry="12.6"/>
<path class="st2" d="M412.9,46h-96v441.9h95.9c5-2.2,9.9-4.5,14.7-7V53C422.8,50.5,417.9,48.2,412.9,46z"/>
<path class="st3" d="M221.1,46C165.2,70.3,120.3,115.2,96,171.1v191.7c24.3,55.9,69.2,100.8,125.1,125.1h95.8V46H221.1z"/>
<path class="st3" d="M317,78.4C317,78.4,316.9,78.4,317,78.4l-0.1,377.2c0,0,0.1,0,0.1,0c41.3,0,79.5-13.3,110.6-35.8V114.2
	C396.5,91.7,358.3,78.4,317,78.4z"/>
<path class="st4" d="M128.4,267c0,104.1,84.3,188.5,188.5,188.6V78.4C212.7,78.5,128.4,162.9,128.4,267z"/>
<path class="st2" d="M317,129.7C317,129.7,316.9,129.7,317,129.7l-0.1,274.6c0,0,0.1,0,0.1,0c45.4,0,85.6-22,110.6-56V185.7
	C402.6,151.8,362.4,129.7,317,129.7z"/>
<path class="st3" d="M179.7,267c0,75.8,61.4,137.2,137.2,137.3V129.7C241.1,129.8,179.7,191.2,179.7,267z"/>
<path class="st3" d="M317,182.4C317,182.4,316.9,182.4,317,182.4l-0.1,169.2c0,0,0.1,0,0.1,0c46.7,0,84.6-37.9,84.6-84.6
	C401.6,220.3,363.7,182.4,317,182.4z"/>
<path class="st4" d="M232.4,267c0,46.7,37.8,84.5,84.5,84.6V182.4C270.2,182.5,232.4,220.3,232.4,267z"/>
<path class="st5" d="M423.3,110.7c1.5,1,2.9,2,4.3,3.1v-7.4L423.3,110.7z"/>
<path class="st5" d="M423.4,423.2l4.2,4.2v-7.1C426.2,421.2,424.8,422.2,423.4,423.2z"/>
<g>
	<path class="st6" d="M420.2,49.5c-0.3,0.4-0.6,0.9-0.8,1.3c-1.3,3.1,0.3,7.1,4.5,11.2l3.6,3.6V53.1
		C425.2,51.9,422.7,50.6,420.2,49.5z"/>
	<path class="st6" d="M385.9,148.4l-38.7,38.7c22.9,8.6,41.1,26.8,49.7,49.7l30.7-30.7v-20.2C416.4,170.8,402.2,157.9,385.9,148.4z"
		/>
	<path class="st6" d="M424,472c-4.1,4.1-5.8,8.1-4.5,11.2c0.2,0.4,0.4,0.9,0.8,1.3c2.5-1.2,4.9-2.4,7.4-3.7v-12.5L424,472z"/>
	<path class="st6" d="M396.9,297.2c-8.6,22.9-26.8,41.1-49.7,49.7l38.7,38.7c16.3-9.5,30.5-22.4,41.7-37.6v-20.2L396.9,297.2z"/>
</g>
<g>
	<path class="st7" d="M420.2,49.5c2.5,1.2,4.9,2.4,7.4,3.7v-7C424.1,46.6,421.6,47.7,420.2,49.5z"/>
	<path class="st7" d="M423.4,110.8L386,148.3c16.3,9.5,30.5,22.3,41.6,37.4v-72C426.2,112.8,424.8,111.8,423.4,110.8z"/>
	<path class="st7" d="M347.2,187.1l-5.1,5.1c-3.5,3.5-3.5,9.3,0,12.8l18.5,18.5l18.5,18.5c3.5,3.5,9.2,3.5,12.8,0l5.1-5.1
		C388.3,213.9,370.1,195.7,347.2,187.1z"/>
	<path class="st7" d="M420.2,484.5c1.4,1.8,3.9,2.9,7.4,3.3v-7C425.2,482.1,422.7,483.4,420.2,484.5z"/>
	<path class="st7" d="M386,385.7l37.5,37.5c1.4-1,2.8-1.9,4.2-2.9v-72C416.4,363.4,402.3,376.2,386,385.7z"/>
	<path class="st7" d="M379.1,292.1l-18.5,18.5l-18.5,18.5c-3.5,3.5-3.5,9.2,0,12.8l5.1,5.1c22.9-8.6,41.1-26.8,49.7-49.7l-5.1-5.1
		C388.3,288.6,382.5,288.6,379.1,292.1z"/>
</g>
<path class="st8" d="M117.8,488h85.6c0.6,0,1.1,0,1.6,0h-88.2C117.1,488,117.5,488,117.8,488z"/>
<g>
	<path class="st7" d="M213.8,49.5c-50,23.8-90.5,64.3-114.3,114.3c0.4,0.3,0.9,0.6,1.3,0.8c3.1,1.3,7.1-0.3,11.2-4.5l13.7-13.7
		l35.2-35.4l35.4-35.2L210,62c4.1-4.1,5.8-8.1,4.5-11.2C214.4,50.3,214.1,49.9,213.8,49.5z"/>
	<path class="st7" d="M185.8,86.1L160.9,111l15.4,15.3v0.1h-0.1l-15.3-15.3L136.1,136l15.3,15.3v0.1l9.4,9.4
		c13.5-19.7,30.3-36.5,49.8-49.9l-9.5-9.5L185.8,86.1z"/>
	<path class="st7" d="M198.4,198.1l38.7,38.7c8.6-22.9,26.8-41.1,49.7-49.7l-38.7-38.7C227.6,160.4,210.4,177.6,198.4,198.1z"/>
	<path class="st7" d="M196.3,458.3l-35.4-35.2l-35.2-35.4L112,374c-4.1-4.1-8.1-5.8-11.2-4.5c-0.4,0.2-0.9,0.4-1.3,0.8
		c23.8,50,64.3,90.5,114.3,114.3c0.3-0.4,0.6-0.9,0.8-1.3c1.3-3.1-0.3-7.1-4.5-11.2L196.3,458.3z"/>
	<path class="st7" d="M160.8,373.4l-9.4,9.4v0.1l-15.3,15.3l24.9,24.9l15.3-15.4h0.1v0.1l-15.3,15.3L186,448l15.3-15.3h0.1l9.4-9.4
		C191,409.8,174.2,393,160.8,373.4z"/>
	<path class="st7" d="M237.1,297.2l-38.7,38.7c12,20.5,29.2,37.7,49.7,49.7l38.7-38.7C263.9,338.3,245.7,320.1,237.1,297.2z"/>
</g>
<g>
	<path class="st1" d="M203.4,46h-85.6c-5.9,0-11.3,2.3-15.5,6.3c-4,4.2-6.3,9.7-6.3,15.5v85.6c0,5,1.2,8.6,3.5,10.4
		c23.8-50,64.3-90.5,114.3-114.3C212.1,47.3,208.4,46,203.4,46z"/>
	<path class="st1" d="M160.8,160.6l37.5,37.5c12-20.5,29.2-37.7,49.7-49.7l-37.5-37.5C191,124.1,174.1,141,160.8,160.6z"/>
	<path class="st1" d="M286.8,187.1c-22.9,8.6-41.1,26.8-49.7,49.7l5.1,5.1c3.5,3.5,9.3,3.5,12.8,0l18.5-18.5l18.5-18.5
		c3.5-3.5,3.5-9.2,0-12.8L286.8,187.1z"/>
	<path class="st1" d="M213.8,484.5c-50-23.8-90.5-64.3-114.3-114.3c-2.2,1.7-3.5,5.4-3.5,10.4v85.6c0,5.9,2.3,11.3,6.3,15.5
		c4,3.8,9.1,6,14.5,6.3H205C209.2,487.7,212.2,486.5,213.8,484.5z"/>
	<path class="st1" d="M198.3,336l-37.5,37.5c13.3,19.5,30.2,36.4,49.7,49.7l37.5-37.5C227.5,373.7,210.3,356.5,198.3,336z"/>
	<path class="st1" d="M273.4,310.6l-18.5-18.5c-3.5-3.5-9.2-3.5-12.8,0l-5.1,5.1c8.6,22.9,26.8,41.1,49.7,49.7l5.1-5.1
		c3.5-3.5,3.5-9.3,0-12.8L273.4,310.6z"/>
</g>
<path class="st1" d="M592,487.3h13.1c1.6,0,2.9-1.3,2.9-2.9V52.2c0-1.6-1.3-2.9-2.9-2.9H592c-1.6,0-2.9,1.3-2.9,2.9v432.1
	C589.1,485.9,590.4,487.3,592,487.3z"/>
<path class="st9" d="M572.5,48L453.2,13c-3.5-0.8-5.6,2.5-5.6,5.6v496.8c0,3.1,2.3,6.4,5.6,5.6l119.3-33c3.2-1,5.6-2.5,5.6-5.6V53.6
	C578.1,50.5,575.3,48.7,572.5,48z"/>
<ellipse class="st1" cx="474.7" cy="257.7" rx="6.1" ry="12.6"/>
<rect x="-463" y="11" class="st8" width="128" height="128"/>
<rect x="-335" y="11" class="st10" width="128" height="128"/>
<rect x="-207" y="11" class="st5" width="128" height="128"/>
<rect x="-79" y="11" class="st11" width="128" height="128"/>
<rect x="-463" y="139" class="st1" width="128" height="128"/>
<rect x="-335" y="139" class="st7" width="128" height="128"/>
<rect x="-207" y="139" class="st6" width="128" height="128"/>
<rect x="-463" y="267" class="st4" width="128" height="128"/>
<rect x="-335" y="267" class="st3" width="128" height="128"/>
<rect x="-207" y="267" class="st2" width="128" height="128"/>
<rect x="-79" y="267" class="st12" width="128" height="128"/>
<rect x="-463" y="395" class="st9" width="128" height="128"/>
</svg>
