<?xml version="1.0" encoding="utf-8"?>
<!-- Generator: Adobe Illustrator 19.0.0, SVG Export Plug-In . SVG Version: 6.00 Build 0)  -->
<svg version="1.1" id="Layer_1" xmlns="http://www.w3.org/2000/svg" xmlns:xlink="http://www.w3.org/1999/xlink" x="0px" y="0px"
	 viewBox="96 11 512 512" style="enable-background:new 96 11 512 512;" xml:space="preserve">
<style type="text/css">
	.st0{fill:#CDD4D5;}
	.st1{fill:#9BAAAB;}
	.st2{fill:#FD6A33;}
	.st3{fill:#FF8C29;}
	.st4{fill:#4ACFD9;}
	.st5{fill:#0295AA;}
	.st6{fill:#FFD1A9;}
	.st7{fill:#E6EAEA;}
	.st8{fill:none;stroke:#CDD4D5;stroke-width:10;stroke-linejoin:round;stroke-miterlimit:10;}
	.st9{fill:none;stroke:#E6EAEA;stroke-width:10;stroke-linejoin:round;stroke-miterlimit:10;}
	.st10{fill:#FFFFFF;}
	.st11{fill:#365558;}
	.st12{fill:none;stroke:#BCD643;stroke-width:13;stroke-linecap:round;stroke-linejoin:round;stroke-miterlimit:10;}
</style>
<g>
	<path class="st0" d="M503,459.1H353.8v22.5H503c5.2,0,9.5-4.2,9.5-9.5v-3.5C512.4,463.3,508.1,459.1,503,459.1z"/>
	<path class="st1" d="M202.2,459.1c-5.2,0-9.5,4.2-9.5,9.5v3.5c0,5.2,4.2,9.5,9.5,9.5h151.6v-22.5L202.2,459.1L202.2,459.1z"/>
	<path class="st2" d="M255.7,306.9h-21.3c-5.2,0-9.5,4.2-9.5,9.5l-1.4,133.1c0,5.2,4.2,9.5,9.5,9.5h24.1c5.2,0,9.5-4.2,9.5-9.5
		l-1.4-133.1C265.2,311.1,260.9,306.9,255.7,306.9z"/>
	<path class="st2" d="M327.4,306.9h-21.3c-5.2,0-9.5,4.2-9.5,9.5l-2.8,133.1c0,5.2,4.2,9.5,9.5,9.5h25.4c5.2,0,9.5-4.2,9.5-9.5
		l-1.4-133.1C336.8,311.1,332.6,306.9,327.4,306.9z"/>
	<path class="st3" d="M400.2,306.9h-23.5c-4.6,0-8.3,3.8-8.3,8.3l-1.4,135.3c0,4.6,3.8,8.3,8.3,8.3h26.3c4.6,0,8.3-3.8,8.3-8.3
		l-1.4-135.3C408.5,310.6,404.7,306.9,400.2,306.9z"/>
	<path class="st3" d="M471.8,306.9h-23.5c-4.6,0-8.3,3.8-8.3,8.3l-1.4,135.3c0,4.6,3.8,8.3,8.3,8.3h26.3c4.6,0,8.3-3.8,8.3-8.3
		l-1.4-135.3C480.1,310.6,476.4,306.9,471.8,306.9z"/>
	<path class="st4" d="M524.2,254l-140.5-69.7c-8.2-4.8-19.1-7.2-29.9-7.2v94.4h165.7C529.1,271.4,533.7,260.1,524.2,254z"/>
	<path class="st5" d="M323.9,184.2L180.2,254c-8.8,5.1-6.8,17.5,4.7,17.5h168.8V177C342.9,177,332.1,179.4,323.9,184.2z"/>
	<path class="st4" d="M519.5,490.3H353.8v30.2h165.8c5.2,0,9.5-4.2,9.5-9.5v-11.3C528.9,494.6,524.7,490.3,519.5,490.3z"/>
	<path class="st5" d="M184,490.3c-5.2,0-9.5,4.2-9.5,9.5V511c0,5.2,4.2,9.5,9.5,9.5h169.7v-30.2H184z"/>
	<path class="st0" d="M503,281.7H353.8v25.2H503c5.2,0,9.5-4.2,9.5-9.5v-6.3C512.4,286,508.1,281.7,503,281.7z"/>
	<path class="st1" d="M202.2,281.7c-5.2,0-9.5,4.2-9.5,9.5v6.3c0,5.2,4.2,9.5,9.5,9.5h151.6v-25.2L202.2,281.7L202.2,281.7z"/>
	<path class="st6" d="M468.6,448.9L468.6,448.9c-2.1,0-3.8-1.7-3.8-3.8V321.8c0-2.1,1.7-3.8,3.8-3.8l0,0c2.1,0,3.8,1.7,3.8,3.8
		v123.2C472.4,447.1,470.7,448.9,468.6,448.9z"/>
	<path class="st6" d="M397.7,448.9L397.7,448.9c-2.1,0-3.8-1.7-3.8-3.8V321.8c0-2.1,1.7-3.8,3.8-3.8l0,0c2.1,0,3.8,1.7,3.8,3.8
		v123.2C401.5,447.1,399.7,448.9,397.7,448.9z"/>
	<path class="st3" d="M325.3,448.3L325.3,448.3c-2.1,0-3.8-1.7-3.8-3.8V321.3c0-2.1,1.7-3.8,3.8-3.8l0,0c2.1,0,3.8,1.7,3.8,3.8
		v123.2C329.1,446.6,327.4,448.3,325.3,448.3z"/>
	<path class="st3" d="M254.3,448.3L254.3,448.3c-2.1,0-3.8-1.7-3.8-3.8V321.3c0-2.1,1.7-3.8,3.8-3.8l0,0c2.1,0,3.8,1.7,3.8,3.8
		v123.2C258.2,446.6,256.4,448.3,254.3,448.3z"/>
	<circle class="st0" cx="316" cy="294.5" r="8.7"/>
	<circle class="st0" cx="245.1" cy="294.5" r="8.7"/>
	<circle class="st7" cx="459.7" cy="294.3" r="8.7"/>
	<circle class="st7" cx="388.7" cy="294.3" r="8.7"/>
	<polyline class="st8" points="316,294.5 316,250.2 353.8,250.2 	"/>
	<polyline class="st8" points="245.1,294.5 245.1,250.2 289.7,250.2 289.7,227.1 353.8,227.1 	"/>
	<polyline class="st9" points="389.2,294.5 389.2,250.2 351.5,250.2 	"/>
	<polyline class="st9" points="460.2,294.5 460.2,250.2 415.5,250.2 415.5,227.1 351.5,227.1 	"/>
	<path class="st3" d="M353.8,189.1v76c21,0,38-17,38-38S374.7,189.1,353.8,189.1z"/>
	<path class="st2" d="M315.7,227.1c0,21,17,38,38,38v-76C332.8,189.1,315.7,206.1,315.7,227.1z"/>
	<path class="st10" d="M368,225.4c3.3-1.7,5.3-4.6,4.8-9.5c-0.6-6.7-6.1-8.9-13.4-9.5v-9.2h-5.6v9c-1.5,0-3,0.1-4.5,0.1v-9.1h-5.6
		v9.2c-2.1,0.1-4.5,0-11.3,0v6c4.5-0.1,6.8-0.3,7.4,2.5v25.4c-0.3,2.3-2.2,1.9-6.2,1.9l-1.1,6.7c10.3,0,11.3,0.1,11.3,0.1v7.9h5.6
		v-7.8c1.5,0.1,3.1,0.1,4.5,0.1v7.8h5.6v-7.9c9.5-0.5,15.9-2.9,16.7-11.8C376.7,229.8,373.3,226.6,368,225.4L368,225.4z
		 M349.3,212.7c3.2,0,13.2-1,13.2,5.6c0,6.3-10,5.6-13.2,5.6V212.7L349.3,212.7z M349.3,242.2v-12.4c3.8,0,15.5-1,15.5,6.2
		C364.8,242.9,353.1,242.2,349.3,242.2L349.3,242.2z"/>
</g>
<g>
	<path class="st11" d="M337.1,16.7L103.6,80.5c-10.1,2.8-10.1,7.3,0,10.1l233.5,63.9c4.1,1.1,9.6,1.7,15.1,1.7V15
		C346.7,15,341.2,15.6,337.1,16.7z"/>
	<path class="st5" d="M600.4,90.6c10.1-2.8,10.1-7.3,0-10.1L366.9,16.7c-4.1-1.1-9.4-1.7-14.8-1.7v141.2c5.4,0,10.7-0.6,14.8-1.7
		L600.4,90.6z"/>
	<path class="st5" d="M242.5,197.7c0-22.1,48.9-40,109.3-40c0,0,0.1,0,0.1,0v-9.1v-41.4v-40c0,0-0.1,0-0.1,0
		c-60.4,0-109.3,17.9-109.3,40v41.4V197.7"/>
	<path class="st4" d="M461.4,197.7c0-22.1-48.9-40-109.3-40c0,0-0.1,0-0.1,0v-9.1v-41.4v-40c0,0,0.1,0,0.1,0
		c60.4,0,109.3,17.9,109.3,40v41.4V197.7"/>
	<path class="st6" d="M531,183.6c0,15.6,12.6,28.3,28.2,28.4v-56.9C543.6,155.3,531,168,531,183.6z"/>
	<path class="st3" d="M587.9,183.6c0-15.7-12.7-28.5-28.5-28.5c-0.1,0-0.1,0-0.2,0v56.9c0.1,0,0.1,0,0.2,0
		C575.2,212.1,587.9,199.3,587.9,183.6z"/>
	<line class="st12" x1="559.4" y1="155.2" x2="559.2" y2="63.1"/>
	<path class="st6" d="M556,212.1c-7.5,0-13.7,6.1-13.7,13.7L531,285.8c0,7.5,6.1,13.7,13.7,13.7h14.6v-87.4H556z"/>
	<path class="st3" d="M587.9,285.8l-11.4-60.1c0-7.5-6.1-13.7-13.7-13.7h-3.6v87.4h15C581.7,299.5,587.9,293.3,587.9,285.8z"/>
</g>
</svg>
