<?xml version="1.0" encoding="utf-8"?>
<!-- Generator: Adobe Illustrator 19.0.0, SVG Export Plug-In . SVG Version: 6.00 Build 0)  -->
<svg version="1.1" id="Layer_1" xmlns="http://www.w3.org/2000/svg" xmlns:xlink="http://www.w3.org/1999/xlink" x="0px" y="0px"
	 viewBox="206 -206 512 512" style="enable-background:new 206 -206 512 512;" xml:space="preserve">
<style type="text/css">
	.st0{fill:#CDD4D5;}
	.st1{fill:#9BAAAB;}
	.st2{fill:#E6EAEA;}
	.st3{fill:none;stroke:#CDD4D5;stroke-width:10;stroke-linejoin:round;stroke-miterlimit:10;}
	.st4{fill:none;stroke:#E6EAEA;stroke-width:10;stroke-linejoin:round;stroke-miterlimit:10;}
	.st5{fill:#FF8C29;}
	.st6{fill:#FD6A33;}
	.st7{fill:#FFD1A9;}
	.st8{fill:#FFFFFF;}
	.st9{fill:#365558;}
	.st10{fill:#687F82;}
	.st11{fill:#4ACFD9;}
	.st12{fill:#0295AA;}
</style>
<path class="st0" d="M679.2,218.3H464.6v32.3h214.6c7.5,0,13.6-6.1,13.6-13.6v-5.1C692.7,224.4,686.6,218.3,679.2,218.3z"/>
<path class="st1" d="M246.6,218.3c-7.5,0-13.6,6.1-13.6,13.6v5.1c0,7.5,6.1,13.6,13.6,13.6h218v-32.3L246.6,218.3L246.6,218.3z"/>
<path class="st0" d="M709.7-76.7L507.6-177c-11.8-6.9-27.4-10.4-43-10.4v135.8h238.3C716.8-51.6,723.3-67.9,709.7-76.7z"/>
<path class="st1" d="M421.6-177L215-76.7c-12.6,7.3-9.8,25.1,6.8,25.1h242.7v-135.8C449-187.4,433.4-183.9,421.6-177z"/>
<path class="st0" d="M702.9,263.1H464.6v43.5H703c7.5,0,13.6-6.1,13.6-13.6v-16.3C716.5,269.4,710.4,263.1,702.9,263.1z"/>
<path class="st1" d="M220.5,263.1c-7.5,0-13.6,6.1-13.6,13.6V293c0,7.5,6.1,13.6,13.6,13.6h244v-43.5H220.5z"/>
<path class="st0" d="M679.2-36.8H464.6v36.2h214.6c7.5,0,13.6-6.1,13.6-13.6v-9.1C692.7-30.7,686.6-36.8,679.2-36.8z"/>
<path class="st1" d="M246.6-36.8c-7.5,0-13.6,6.1-13.6,13.6v9.1c0,7.5,6.1,13.6,13.6,13.6h218v-36.2L246.6-36.8L246.6-36.8z"/>
<circle class="st0" cx="410.3" cy="-18.4" r="12.5"/>
<circle class="st0" cx="308.3" cy="-18.4" r="12.5"/>
<circle class="st2" cx="616.9" cy="-18.7" r="12.5"/>
<circle class="st2" cx="514.8" cy="-18.7" r="12.5"/>
<polyline class="st3" points="410.3,-18.4 410.3,-82.1 464.6,-82.1 "/>
<polyline class="st3" points="308.3,-18.4 308.3,-82.1 372.5,-82.1 372.5,-115.4 464.6,-115.4 "/>
<polyline class="st4" points="515.5,-18.4 515.5,-82.1 461.3,-82.1 "/>
<polyline class="st4" points="617.6,-18.4 617.6,-82.1 553.3,-82.1 553.3,-115.4 461.3,-115.4 "/>
<path class="st5" d="M464.6-170v109.3c30.2,0,54.6-24.5,54.6-54.6S494.7-170,464.6-170z"/>
<path class="st6" d="M409.9-115.4c0,30.2,24.5,54.6,54.6,54.6v-109.3C434.4-170,409.9-145.6,409.9-115.4z"/>
<path class="st7" d="M556.9,0.4"/>
<g>
	<path class="st8" d="M448.8-103.9l-4.7,9.8c-0.6,1.4-1,2.4-1,3.2c0,1.5,1.1,2.5,3.4,3.1v1.6h-23.1v-1.6c1.4-0.3,2.4-0.7,3.1-1.4
		c0.7-0.7,1.5-2,2.5-4l25.6-53.6c0.8-1.7,1.2-3.1,1.2-4.1c0-1.6-1-2.7-3-3.4v-1.6h24.7v1.6c-2,0.6-3,1.6-3,3c0,1,0.3,2.1,1,3.4
		l26.6,53.7c1.1,2.3,2.1,3.8,3,4.7c0.9,0.8,2,1.4,3.4,1.7v1.6h-25.7v-1.6c2.3-0.4,3.4-1.4,3.4-3.2c0-0.7-0.3-1.8-1-3.2l-4.8-9.8
		 M480.5-103.9l-15.7-34.4l-16,34.4"/>
</g>
<path class="st8" d="M500.3-108.7h-71.6c-1.4,0-2.5,1.1-2.5,2.5v1c0,1.4,1.1,2.5,2.5,2.5h71.6c1.4,0,2.5-1.1,2.5-2.5v-1
	C502.8-107.5,501.6-108.7,500.3-108.7z"/>
<path class="st8" d="M496.6-117.2h-64c-1.1,0-2,0.9-2,2v1c0,1.1,0.9,2,2,2h64c1.1,0,2-0.9,2-2v-1
	C498.6-116.3,497.7-117.2,496.6-117.2z"/>
<g>
	<g>
		<path class="st5" d="M410.8,11.5h-69.3v26.8h69.3c2.4,0,4.4-2.3,4.4-5V16.6C415.1,13.8,413.2,11.5,410.8,11.5z"/>
		<path class="st6" d="M272.3,11.5c-2.4,0-4.4,2.3-4.4,5v16.7c0,2.8,2,5,4.4,5h69.2V11.5H272.3z"/>
		<rect x="274.5" y="21.5" class="st9" width="6.3" height="16.8"/>
		<rect x="288.3" y="21.5" class="st9" width="9.5" height="16.8"/>
		<rect x="308.9" y="21.5" class="st9" width="12.7" height="16.8"/>
		<rect x="341.5" y="21.5" class="st9" width="0.1" height="16.8"/>
		<rect x="335.5" y="21.5" class="st9" width="6" height="16.8"/>
		<rect x="402.3" y="21.5" class="st10" width="6.3" height="16.8"/>
		<rect x="385.3" y="21.5" class="st10" width="9.5" height="16.8"/>
		<rect x="361.5" y="21.5" class="st10" width="12.7" height="16.8"/>
		<rect x="341.6" y="21.5" class="st10" width="6" height="16.8"/>
	</g>
	<g>
		<path class="st5" d="M419.2,45.3h-69.3V72h69.3c2.4,0,4.4-2.3,4.4-5V50.3C423.5,47.5,421.6,45.3,419.2,45.3z"/>
		<path class="st6" d="M280.7,45.3c-2.4,0-4.4,2.3-4.4,5V67c0,2.8,2,5,4.4,5h69.2V45.3H280.7z"/>
		<rect x="282.8" y="55.2" class="st9" width="6.3" height="16.8"/>
		<rect x="296.7" y="55.2" class="st9" width="9.5" height="16.8"/>
		<rect x="317.3" y="55.2" class="st9" width="12.7" height="16.8"/>
		<rect x="349.9" y="55.2" class="st9" width="0.1" height="16.8"/>
		<rect x="343.8" y="55.2" class="st9" width="6" height="16.8"/>
		<rect x="410.7" y="55.2" class="st10" width="6.3" height="16.8"/>
		<rect x="393.6" y="55.2" class="st10" width="9.5" height="16.8"/>
		<rect x="369.9" y="55.2" class="st10" width="12.7" height="16.8"/>
		<rect x="350" y="55.2" class="st10" width="6" height="16.8"/>
	</g>
	<g>
		<path class="st5" d="M415,79h-69.3v26.8H415c2.4,0,4.4-2.3,4.4-5V84C419.3,81.2,417.4,79,415,79z"/>
		<path class="st6" d="M276.5,79c-2.4,0-4.4,2.3-4.4,5v16.7c0,2.8,2,5,4.4,5h69.2V79H276.5z"/>
		<rect x="278.6" y="88.9" class="st9" width="6.3" height="16.8"/>
		<rect x="292.5" y="88.9" class="st9" width="9.5" height="16.8"/>
		<rect x="313.1" y="88.9" class="st9" width="12.7" height="16.8"/>
		<rect x="345.7" y="88.9" class="st9" width="0.1" height="16.8"/>
		<rect x="339.6" y="88.9" class="st9" width="6" height="16.8"/>
		<rect x="406.5" y="88.9" class="st10" width="6.3" height="16.8"/>
		<rect x="389.4" y="88.9" class="st10" width="9.5" height="16.8"/>
		<rect x="365.7" y="88.9" class="st10" width="12.7" height="16.8"/>
		<rect x="345.8" y="88.9" class="st10" width="6" height="16.8"/>
	</g>
	<g>
		<path class="st5" d="M409.5,112.7h-69.3v26.8h69.3c2.4,0,4.4-2.3,4.4-5v-16.7C413.9,114.9,411.9,112.7,409.5,112.7z"/>
		<path class="st6" d="M271,112.7c-2.4,0-4.4,2.3-4.4,5v16.7c0,2.8,2,5,4.4,5h69.2v-26.8H271z"/>
		<rect x="273.2" y="122.6" class="st9" width="6.3" height="16.8"/>
		<rect x="287" y="122.6" class="st9" width="9.5" height="16.8"/>
		<rect x="307.6" y="122.6" class="st9" width="12.7" height="16.8"/>
		<rect x="340.2" y="122.6" class="st9" width="0.1" height="16.8"/>
		<rect x="334.2" y="122.6" class="st9" width="6" height="16.8"/>
		<rect x="401" y="122.6" class="st10" width="6.3" height="16.8"/>
		<rect x="384" y="122.6" class="st10" width="9.5" height="16.8"/>
		<rect x="360.3" y="122.6" class="st10" width="12.7" height="16.8"/>
		<rect x="340.3" y="122.6" class="st10" width="6" height="16.8"/>
	</g>
	<g>
		<path class="st5" d="M417.4,146.2h-69.3V173h69.3c2.4,0,4.4-2.3,4.4-5v-16.7C421.8,148.5,419.8,146.2,417.4,146.2z"/>
		<path class="st6" d="M278.9,146.2c-2.4,0-4.4,2.3-4.4,5V168c0,2.8,2,5,4.4,5h69.2v-26.8H278.9z"/>
		<rect x="281.1" y="156.2" class="st9" width="6.3" height="16.8"/>
		<rect x="294.9" y="156.2" class="st9" width="9.5" height="16.8"/>
		<rect x="315.5" y="156.2" class="st9" width="12.7" height="16.8"/>
		<rect x="348.1" y="156.2" class="st9" width="0.1" height="16.8"/>
		<rect x="342.1" y="156.2" class="st9" width="6" height="16.8"/>
		<rect x="408.9" y="156.2" class="st10" width="6.3" height="16.8"/>
		<rect x="391.9" y="156.2" class="st10" width="9.5" height="16.8"/>
		<rect x="368.1" y="156.2" class="st10" width="12.7" height="16.8"/>
		<rect x="348.2" y="156.2" class="st10" width="6" height="16.8"/>
	</g>
	<g>
		<path class="st5" d="M411.9,179.9h-69.3v26.8h69.3c2.4,0,4.4-2.3,4.4-5V185C416.3,182.2,414.3,179.9,411.9,179.9z"/>
		<path class="st6" d="M273.4,179.9c-2.4,0-4.4,2.3-4.4,5v16.7c0,2.8,2,5,4.4,5h69.2v-26.8H273.4z"/>
		<rect x="275.6" y="189.9" class="st9" width="6.3" height="16.8"/>
		<rect x="289.5" y="189.9" class="st9" width="9.5" height="16.8"/>
		<rect x="310" y="189.9" class="st9" width="12.7" height="16.8"/>
		<rect x="342.7" y="189.9" class="st9" width="0.1" height="16.8"/>
		<rect x="336.6" y="189.9" class="st9" width="6" height="16.8"/>
		<rect x="403.4" y="189.9" class="st10" width="6.3" height="16.8"/>
		<rect x="386.4" y="189.9" class="st10" width="9.5" height="16.8"/>
		<rect x="362.7" y="189.9" class="st10" width="12.7" height="16.8"/>
		<rect x="342.7" y="189.9" class="st10" width="6" height="16.8"/>
	</g>
</g>
<g>
	<path class="st11" d="M653.8,11.5h-69.3v26.8h69.3c2.4,0,4.4-2.3,4.4-5V16.6C658.1,13.8,656.2,11.5,653.8,11.5z"/>
	<path class="st12" d="M515.3,11.5c-2.4,0-4.4,2.3-4.4,5v16.7c0,2.8,2,5,4.4,5h69.2V11.5H515.3z"/>
	<rect x="517.5" y="21.5" class="st9" width="6.3" height="16.8"/>
	<rect x="531.3" y="21.5" class="st9" width="9.5" height="16.8"/>
	<rect x="551.9" y="21.5" class="st9" width="12.7" height="16.8"/>
	<rect x="584.5" y="21.5" class="st9" width="0.1" height="16.8"/>
	<rect x="578.5" y="21.5" class="st9" width="6" height="16.8"/>
	<rect x="645.3" y="21.5" class="st10" width="6.3" height="16.8"/>
	<rect x="628.3" y="21.5" class="st10" width="9.5" height="16.8"/>
	<rect x="604.5" y="21.5" class="st10" width="12.7" height="16.8"/>
	<rect x="584.6" y="21.5" class="st10" width="6" height="16.8"/>
</g>
<g>
	<path class="st11" d="M656.9,45.3h-69.3V72h69.3c2.4,0,4.4-2.3,4.4-5V50.3C661.3,47.5,659.3,45.3,656.9,45.3z"/>
	<path class="st12" d="M518.4,45.3c-2.4,0-4.4,2.3-4.4,5V67c0,2.8,2,5,4.4,5h69.2V45.3H518.4z"/>
	<rect x="520.6" y="55.2" class="st9" width="6.3" height="16.8"/>
	<rect x="534.5" y="55.2" class="st9" width="9.5" height="16.8"/>
	<rect x="555" y="55.2" class="st9" width="12.7" height="16.8"/>
	<rect x="587.7" y="55.2" class="st9" width="0.1" height="16.8"/>
	<rect x="581.6" y="55.2" class="st9" width="6" height="16.8"/>
	<rect x="648.4" y="55.2" class="st10" width="6.3" height="16.8"/>
	<rect x="631.4" y="55.2" class="st10" width="9.5" height="16.8"/>
	<rect x="607.7" y="55.2" class="st10" width="12.7" height="16.8"/>
	<rect x="587.7" y="55.2" class="st10" width="6" height="16.8"/>
</g>
<g>
	<path class="st11" d="M657.7,79h-69.3v26.8h69.3c2.4,0,4.4-2.3,4.4-5V84C662,81.2,660.1,79,657.7,79z"/>
	<path class="st12" d="M519.2,79c-2.4,0-4.4,2.3-4.4,5v16.7c0,2.8,2,5,4.4,5h69.2V79H519.2z"/>
	<rect x="521.4" y="88.9" class="st9" width="6.3" height="16.8"/>
	<rect x="535.2" y="88.9" class="st9" width="9.5" height="16.8"/>
	<rect x="555.8" y="88.9" class="st9" width="12.7" height="16.8"/>
	<rect x="588.4" y="88.9" class="st9" width="0.1" height="16.8"/>
	<rect x="582.4" y="88.9" class="st9" width="6" height="16.8"/>
	<rect x="649.2" y="88.9" class="st10" width="6.3" height="16.8"/>
	<rect x="632.2" y="88.9" class="st10" width="9.5" height="16.8"/>
	<rect x="608.4" y="88.9" class="st10" width="12.7" height="16.8"/>
	<rect x="588.5" y="88.9" class="st10" width="6" height="16.8"/>
</g>
<g>
	<path class="st11" d="M653.9,112.7h-69.3v26.8h69.3c2.4,0,4.4-2.3,4.4-5v-16.7C658.3,114.9,656.3,112.7,653.9,112.7z"/>
	<path class="st12" d="M515.4,112.7c-2.4,0-4.4,2.3-4.4,5v16.7c0,2.8,2,5,4.4,5h69.2v-26.8H515.4z"/>
	<rect x="517.6" y="122.6" class="st9" width="6.3" height="16.8"/>
	<rect x="531.5" y="122.6" class="st9" width="9.5" height="16.8"/>
	<rect x="552" y="122.6" class="st9" width="12.7" height="16.8"/>
	<rect x="584.6" y="122.6" class="st9" width="0.1" height="16.8"/>
	<rect x="578.6" y="122.6" class="st9" width="6" height="16.8"/>
	<rect x="645.4" y="122.6" class="st10" width="6.3" height="16.8"/>
	<rect x="628.4" y="122.6" class="st10" width="9.5" height="16.8"/>
	<rect x="604.7" y="122.6" class="st10" width="12.7" height="16.8"/>
	<rect x="584.7" y="122.6" class="st10" width="6" height="16.8"/>
</g>
<g>
	<path class="st11" d="M649.4,146.4h-69.3v26.8h69.3c2.4,0,4.4-2.3,4.4-5v-16.7C653.7,148.6,651.8,146.4,649.4,146.4z"/>
	<path class="st12" d="M510.9,146.4c-2.4,0-4.4,2.3-4.4,5v16.7c0,2.8,2,5,4.4,5h69.2v-26.8H510.9z"/>
	<rect x="513.1" y="156.3" class="st9" width="6.3" height="16.8"/>
	<rect x="526.9" y="156.3" class="st9" width="9.5" height="16.8"/>
	<rect x="547.5" y="156.3" class="st9" width="12.7" height="16.8"/>
	<rect x="580.1" y="156.3" class="st9" width="0.1" height="16.8"/>
	<rect x="574.1" y="156.3" class="st9" width="6" height="16.8"/>
	<rect x="640.9" y="156.3" class="st10" width="6.3" height="16.8"/>
	<rect x="623.8" y="156.3" class="st10" width="9.5" height="16.8"/>
	<rect x="600.1" y="156.3" class="st10" width="12.7" height="16.8"/>
	<rect x="580.2" y="156.3" class="st10" width="6" height="16.8"/>
</g>
<g>
	<path class="st11" d="M652.5,180.1h-69.3v26.8h69.3c2.4,0,4.4-2.3,4.4-5v-16.7C656.9,182.3,654.9,180.1,652.5,180.1z"/>
	<path class="st12" d="M514,180.1c-2.4,0-4.4,2.3-4.4,5v16.7c0,2.8,2,5,4.4,5h69.2v-26.8H514z"/>
	<rect x="516.2" y="190" class="st9" width="6.3" height="16.8"/>
	<rect x="530.1" y="190" class="st9" width="9.5" height="16.8"/>
	<rect x="550.6" y="190" class="st9" width="12.7" height="16.8"/>
	<rect x="583.2" y="190" class="st9" width="0.1" height="16.8"/>
	<rect x="577.2" y="190" class="st9" width="6" height="16.8"/>
	<rect x="644" y="190" class="st10" width="6.3" height="16.8"/>
	<rect x="627" y="190" class="st10" width="9.5" height="16.8"/>
	<rect x="603.3" y="190" class="st10" width="12.7" height="16.8"/>
	<rect x="583.3" y="190" class="st10" width="6" height="16.8"/>
</g>
</svg>
