<?xml version="1.0" encoding="utf-8"?>
<!-- Generator: Adobe Illustrator 19.0.0, SVG Export Plug-In . SVG Version: 6.00 Build 0)  -->
<svg version="1.1" id="Layer_1" xmlns="http://www.w3.org/2000/svg" xmlns:xlink="http://www.w3.org/1999/xlink" x="0px" y="0px"
	 viewBox="96 11 512 512" style="enable-background:new 96 11 512 512;" xml:space="preserve">
<style type="text/css">
	.st0{fill:#CDD4D5;}
	.st1{fill:#9BAAAB;}
	.st2{fill:#E6EAEA;}
	.st3{fill:none;stroke:#CDD4D5;stroke-width:10;stroke-linejoin:round;stroke-miterlimit:10;}
	.st4{fill:none;stroke:#E6EAEA;stroke-width:10;stroke-linejoin:round;stroke-miterlimit:10;}
	.st5{fill:#FF8C29;}
	.st6{fill:#FD6A33;}
	.st7{fill:#FFD1A9;}
	.st8{fill:#FFFFFF;}
	.st9{fill:#0295AA;}
	.st10{fill:#365558;}
	.st11{fill:#4ACFD9;}
	.st12{fill:none;stroke:#BCD643;stroke-width:13;stroke-linecap:round;stroke-linejoin:round;stroke-miterlimit:10;}
</style>
<path class="st0" d="M570,425.7H355.4V458H570c7.5,0,13.6-6.1,13.6-13.6v-5.1C583.5,431.8,577.4,425.7,570,425.7z"/>
<path class="st1" d="M137.4,425.7c-7.5,0-13.6,6.1-13.6,13.6v5.1c0,7.5,6.1,13.6,13.6,13.6h218v-32.3L137.4,425.7L137.4,425.7z"/>
<path class="st0" d="M600.5,130.7L398.4,30.4C386.6,23.5,371,20,355.4,20v135.8h238.3C607.6,155.8,614.1,139.5,600.5,130.7z"/>
<path class="st1" d="M312.4,30.4L105.8,130.7c-12.6,7.3-9.8,25.1,6.8,25.1h242.7V20C339.8,20,324.2,23.5,312.4,30.4z"/>
<path class="st0" d="M593.7,470.5H355.4V514h238.4c7.5,0,13.6-6.1,13.6-13.6v-16.3C607.3,476.8,601.2,470.5,593.7,470.5z"/>
<path class="st1" d="M111.3,470.5c-7.5,0-13.6,6.1-13.6,13.6v16.3c0,7.5,6.1,13.6,13.6,13.6h244v-43.5H111.3z"/>
<path class="st0" d="M570,170.6H355.4v36.2H570c7.5,0,13.6-6.1,13.6-13.6v-9.1C583.5,176.7,577.4,170.6,570,170.6z"/>
<path class="st1" d="M137.4,170.6c-7.5,0-13.6,6.1-13.6,13.6v9.1c0,7.5,6.1,13.6,13.6,13.6h218v-36.2L137.4,170.6L137.4,170.6z"/>
<circle class="st0" cx="301.1" cy="189" r="12.5"/>
<circle class="st0" cx="199.1" cy="189" r="12.5"/>
<circle class="st2" cx="507.7" cy="188.7" r="12.5"/>
<circle class="st2" cx="405.6" cy="188.7" r="12.5"/>
<polyline class="st3" points="301.1,189 301.1,125.3 355.4,125.3 "/>
<polyline class="st3" points="199.1,189 199.1,125.3 263.3,125.3 263.3,92 355.4,92 "/>
<polyline class="st4" points="406.3,189 406.3,125.3 352.1,125.3 "/>
<polyline class="st4" points="508.4,189 508.4,125.3 444.1,125.3 444.1,92 352.1,92 "/>
<path class="st5" d="M355.4,37.4v109.3c30.2,0,54.6-24.5,54.6-54.6S385.5,37.4,355.4,37.4z"/>
<path class="st6" d="M300.7,92c0,30.2,24.5,54.6,54.6,54.6V37.3C325.2,37.4,300.7,61.8,300.7,92z"/>
<path class="st7" d="M447.7,207.8"/>
<g>
	<path class="st8" d="M339.6,103.5l-4.7,9.8c-0.6,1.4-1,2.4-1,3.2c0,1.5,1.1,2.5,3.4,3.1v1.6h-23.1v-1.6c1.4-0.3,2.4-0.7,3.1-1.4
		c0.7-0.7,1.5-2,2.5-4l25.6-53.6c0.8-1.7,1.2-3.1,1.2-4.1c0-1.6-1-2.7-3-3.4v-1.6h24.7v1.6c-2,0.6-3,1.6-3,3c0,1,0.3,2.1,1,3.4
		l26.6,53.7c1.1,2.3,2.1,3.8,3,4.7c0.9,0.8,2,1.4,3.4,1.7v1.6h-25.7v-1.6c2.3-0.4,3.4-1.4,3.4-3.2c0-0.7-0.3-1.8-1-3.2l-4.8-9.8
		 M371.3,103.5l-15.7-34.4l-16,34.4"/>
</g>
<path class="st8" d="M391.1,98.7h-71.6c-1.4,0-2.5,1.1-2.5,2.5v1c0,1.4,1.1,2.5,2.5,2.5h71.6c1.4,0,2.5-1.1,2.5-2.5v-1
	C393.6,99.9,392.4,98.7,391.1,98.7z"/>
<path class="st8" d="M387.4,90.2h-64c-1.1,0-2,0.9-2,2v1c0,1.1,0.9,2,2,2h64c1.1,0,2-0.9,2-2v-1C389.4,91.1,388.5,90.2,387.4,90.2z"
	/>
<polygon class="st0" points="355.2,430.3 475,476.5 475,328.4 355.2,282.1 "/>
<polygon class="st1" points="355.2,430.3 235.5,476.5 235.5,328.4 355.2,282.1 "/>
<polyline class="st0" points="235.5,328.8 188.6,282.5 308.7,235.6 355.2,282.5 "/>
<polyline class="st8" points="355.2,282.1 394.5,236.3 514.9,282.8 475,328.8 "/>
<g>
	<path id="SVGCleanerId_0_7_" class="st1" d="M284.5,355.5l-33.1-12l36,52.6v-36.3C287.5,358.1,286.2,356.1,284.5,355.5z"/>
</g>
<polygon class="st5" points="475,477 355.2,523.3 355.2,375.1 475,328.8 "/>
<polygon class="st6" points="235.5,477 355.2,523.3 355.2,375.1 235.5,328.8 "/>
<polygon class="st9" points="475,462.2 355.2,508.4 355.2,485.9 475,439.7 "/>
<polygon class="st10" points="235.5,462.2 355.2,508.4 355.2,485.9 235.5,439.7 "/>
<polyline class="st7" points="355.2,375.5 394.3,335.8 514.4,288.8 475,329.2 "/>
<polyline class="st5" points="235.5,328.7 188.8,289.5 309.2,336 355.2,375.5 "/>
<g>
	<path class="st2" d="M452.5,441.8v-93.3c0-1.1-0.9-1.8-1.9-1.5l-38.1,13.8v97.5l38.1-13.8C451.6,444.3,452.5,443,452.5,441.8z"/>
	<path class="st0" d="M377,373.8c-1.1,0.4-1.9,1.7-1.9,2.8V446l23.8,17.4l13.5-4.9V361L377,373.8z"/>
	<g>
		<path class="st9" d="M388.5,386.7c-1.1,0.4-1.9,1.7-1.9,2.8s0.9,1.8,1.9,1.5l23.9-8.7V378L388.5,386.7z"/>
		<path class="st9" d="M388.5,404.9c-1.1,0.4-1.9,1.7-1.9,2.8c0,1.1,0.9,1.8,1.9,1.5l23.9-8.7v-4.3L388.5,404.9L388.5,404.9z"/>
		<path class="st9" d="M386.6,426c0,1.1,0.9,1.8,1.9,1.5l23.9-8.7v-4.3l-23.9,8.7C387.5,423.5,386.6,424.8,386.6,426z"/>
		<path class="st9" d="M386.6,444.2c0,1.1,0.9,1.8,1.9,1.5l23.9-8.7v-4.3l-23.9,8.7C387.5,441.7,386.6,443,386.6,444.2z"/>
	</g>
	<g>
		<path class="st11" d="M438.2,370.7c0-1.1-0.9-1.8-1.9-1.5l-23.9,8.7v4.3l23.9-8.7C437.4,373.2,438.2,372,438.2,370.7z"/>
		<path class="st11" d="M438.2,388.9c0-1.1-0.9-1.8-1.9-1.5l0,0l-23.9,8.7v4.3l23.9-8.7C437.4,391.4,438.2,390.2,438.2,388.9z"/>
		<path class="st11" d="M438.2,407.1c0-1.1-0.8-1.8-1.9-1.5l-23.9,8.7v4.3l23.9-8.7C437.4,409.6,438.2,408.4,438.2,407.1z"/>
		<path class="st11" d="M438.2,425.4c0-1.1-0.8-1.8-1.9-1.5l-23.9,8.7v4.3l23.9-8.7C437.4,427.8,438.2,426.6,438.2,425.4z"/>
	</g>
	<g>
		<path id="SVGCleanerId_0_8_" class="st1" d="M396.9,438.1l-21.8,8l23.8,17.4v-23.9C398.9,438.4,398,437.7,396.9,438.1z"/>
	</g>
</g>
<path class="st10" d="M328.6,229.8l-73.8,121.1c-3.2,5.3-1.5,6.9,3.7,3.7l121.1-73.8c2.1-1.3,4.6-3.4,6.9-5.7l-52.3-52.3
	C332,225.1,329.9,227.6,328.6,229.8z"/>
<path class="st9" d="M465.9,147.2c3.2-5.3,1.5-6.9-3.7-3.7l-121.1,73.8c-2.1,1.3-4.6,3.3-6.8,5.6l52.3,52.3c2.2-2.2,4.3-4.7,5.6-6.8
	L465.9,147.2z"/>
<path class="st9" d="M354.3,334.3c-7.4-7.4,7-33.9,32.1-59.1c0,0,0,0,0,0l-3-3l-14-14L356,244.7c0,0,0,0,0,0
	c-25.2,25.2-39.6,51.7-32.1,59.1l14,14L354.3,334.3"/>
<path class="st11" d="M445.7,243c-7.4-7.4-33.9,7-59.1,32.1c0,0,0,0,0,0l-3-3l-14-14L356,244.7c0,0,0,0,0,0
	c25.2-25.2,51.7-39.6,59.1-32.1l14,14L445.7,243"/>
<g>
	<path class="st7" d="M385.5,252.1c0,9.2,7.4,16.7,16.7,16.8v-33.6C393,235.4,385.5,242.9,385.5,252.1z"/>
	<path class="st5" d="M419.1,252.1c0-9.3-7.5-16.8-16.8-16.8c0,0-0.1,0-0.1,0v33.6c0,0,0.1,0,0.1,0
		C411.6,268.9,419.1,261.4,419.1,252.1z"/>
	<line class="st12" x1="402.3" y1="235.3" x2="402.2" y2="181"/>
	<path class="st7" d="M400.3,268.9c-4.4,0-8.1,3.6-8.1,8.1l-6.7,35.5c0,4.4,3.6,8.1,8.1,8.1h8.6v-51.6H400.3z"/>
	<path class="st5" d="M419.1,312.5l-6.7-35.5c0-4.4-3.6-8.1-8.1-8.1h-2.1v51.6h8.9C415.5,320.5,419.1,316.9,419.1,312.5z"/>
</g>
</svg>
