<?xml version="1.0" encoding="utf-8"?>
<!-- Generator: Adobe Illustrator 19.0.0, SVG Export Plug-In . SVG Version: 6.00 Build 0)  -->
<svg version="1.1" id="Layer_1" xmlns="http://www.w3.org/2000/svg" xmlns:xlink="http://www.w3.org/1999/xlink" x="0px" y="0px"
	 viewBox="206 -206 512 512" style="enable-background:new 206 -206 512 512;" xml:space="preserve">
<style type="text/css">
	.st0{display:none;}
	.st1{display:inline;}
	.st2{fill:#CDD4D5;}
	.st3{fill:#0295AA;}
	.st4{fill:#FFFFFF;}
	.st5{fill:#FF8C29;}
	.st6{fill:#FD6A33;}
	.st7{fill:#9BAAAB;}
	.st8{fill:#365558;}
	.st9{fill:#BCD643;}
	.st10{fill:#FFD1A9;}
	.st11{fill:#F0353D;}
</style>
<g id="Layer_3" class="st0">
	<rect x="824" y="-824.4" class="st1" width="512" height="512.8"/>
</g>
<path class="st2" d="M386.3-78.1c-3.7-3.8-7.1-7.4-10.6-11c-0.4-0.4-1.2-0.8-1.7-0.7c-5.3,0.9-10.6,1.9-16.5,3
	c-3.1-7.7-6.2-15.5-9.4-23.5c4-2.6,7.5-5.2,11.3-7.4c2.8-1.6,4-3.2,3.5-6.6c-0.5-3.5,0.2-7.2,0.3-10.7c0-0.6-0.5-1.3-1-1.6
	c-3.9-2.8-7.7-5.6-11.7-8.2c-1.2-0.8-1.7-1.5-1.2-2.9c1.8-4.7,3.6-9.4,5.5-14.1c0.8-1.9,1.7-3.8,2.7-5.6c0.8-1.4,1.4-2.5,3.7-1.8
	c4.4,1.3,9,1.9,13.5,2.7c0.6,0.1,1.6-0.1,2.1-0.5c3.3-3.1,6.9-6,9.9-9.5c0.9-1,0.5-3.6,0.2-5.3c-0.6-3.8-1.6-7.5-2.2-11.3
	c-0.1-0.6,0.8-1.7,1.4-2.1c4.3-2,8.6-3.9,12.9-5.6c2.5-1,5.2-1.9,7.8-2.6c0.6-0.2,1.9,0.4,2.3,1c2.6,3.9,4.9,7.9,7.5,11.8
	c0.6,0.8,2,1.1,3.1,1.2c4.1,0.2,8.3,0.3,12.6,0.3c0.8,0,1.8-0.6,2.2-1.1c2.8-3.8,5.5-7.7,8.2-11.7c0.6-0.9,1.1-1.4,2.3-1
	c4.7,1.8,9.5,3.5,14.1,5.4c2.4,1,4.4,2.5,6.8,3.5c1.5,0.6,1.4,1.6,1.1,2.8c-1,4.7-2,9.3-2.9,14c-0.1,0.6,0.1,1.6,0.6,2
	c2.9,3.1,5.9,6,8.9,9.1c1,1,1.7,1.5,3.4,1.1c4.9-1.1,9.9-1.8,15.6-2.8c3.1,7.7,6.2,15.6,9.5,23.6c-4.4,2.8-8.3,5.4-12.5,7.9
	c-1.7,1-2.7,2-2.5,4.4c0.3,3.8,0,7.7-0.2,11.5c-0.1,1.5,0.3,2.5,1.6,3.3c3.9,2.5,7.7,5,11.4,7.6c0.5,0.3,1.1,1.3,1,1.7
	c-2.4,6-4.8,11.9-7.2,17.8c-0.5,1-1.4,2-1.6,3c-0.6,2-1.7,1.8-3.3,1.5c-4.2-1-8.5-1.9-12.8-2.6c-1.1-0.2-2.6,0.2-3.4,1
	c-3,2.8-5.6,6-8.7,8.6c-1.4,1.1-1.4,2.1-1.1,3.3c0.8,4.6,1.9,9.1,2.6,13.7c0.1,0.8-1,2.1-1.8,2.5c-2.3,1.4-4.7,2.5-7.2,3.4
	c-4.8,1.8-9.7,3.4-14.5,5.1c-3-4.8-5.6-9.1-8.5-13.4c-0.5-0.8-1.3-1.4-2.8-1.2c-4.3,0.3-8.7-0.2-13-0.1c-0.9,0-1.9,0.7-2.5,1.4
	c-2.5,3.4-4.9,6.9-7.3,10.5c-1,1.5-1.7,2-3.7,1.4c-7.4-2.1-14-5.3-20.4-9c-0.5-0.2-0.9-1.4-0.8-1.9C384-68.1,385.2-73.3,386.3-78.1z
	 M379.2-109.2c8.6,23.1,36.2,38.9,64.1,27.7c28.3-11.4,36.2-41.5,27.7-63.6c-9.2-23.8-37.1-38.7-64-28
	C379.8-162.7,369.3-132.4,379.2-109.2z"/>
<path class="st3" d="M379.2-109.2c-9.9-23.2,0.6-53.5,27.7-64.1c26.9-10.6,54.9,4.4,64,28c8.6,22.2,0.6,52.3-27.7,63.6
	C415.4-70.3,387.8-86.1,379.2-109.2z M435-102.3c13.2-5.2,21.1-20.3,15.1-35c-6.4-16.1-23.6-19.7-35-15.2
	c-11.7,4.6-21.3,19.2-15.2,35.1C405.3-103.5,421.2-96.8,435-102.3z"/>
<path class="st4" d="M451.9-150c-1.3,0-2.5-0.6-3.3-1.6c-4.8-5.7-11.8-9-19.2-9c-2.5,0-4.4-2-4.4-4.4c0-2.4,2-4.4,4.4-4.4
	c10,0,19.5,4.4,25.9,12.2c1.6,1.8,1.3,4.6-0.6,6.2C453.9-150.3,452.9-150,451.9-150z"/>
<g>
	<path class="st5" d="M444.8,93.7c1.2-4,3.3-4.8,6.7-5.3c8.1-1.4,16.1-3,24.8-4.6c0-14.8,0-29.2,0-43.5c-9.5-2.1-18-4.2-26.5-5.5
		c-2.9-0.5-3.9-1.8-4.8-4c-2.9-6.7-5.7-13.3-8.3-20c-0.4-1-0.2-2.6,0.4-3.6c4.4-6.9,8.9-13.7,13.4-20.4c1.1-1.7,2-3.1,0-5.1
		c-3.1-3.1-5.5-6.9-8.6-9.9c-6.3-6-12.7-11.7-19-17.6c-1.6-1.5-2.7-1-4.2,0.1c-6.8,4.5-13.5,9.1-20.4,13.3c-1.2,0.7-3.1,0.9-4.4,0.4
		c-6.7-2.6-13.2-5.5-19.7-8.5c-1.7-0.8-3.8-2.3-4.1-3.8c-1.7-7.8-2.9-15.7-4.6-23.4c-0.2-1.2-1.8-2.9-3-3c-4.7-0.6-9.4-0.9-14.1-0.8
		c-1.8,0-3.6,0.1-5.4,0.1v48.9c0.2,0,0.3,0,0.5,0c49.7,0.2,84.6,41.7,84.1,85.3c-0.4,40.8-32.1,83.6-84.4,83.8c-0.1,0-0.2,0-0.2,0
		v49.2c1.4,0.1,2.8,0.1,4.2,0.2c4.5,0.1,9.1-0.2,13.7-0.9c1.7-0.2,4.2-1.6,4.5-2.9c1.8-7.8,2.9-15.7,4.6-23.4c0.4-2,1-3.5,3.9-4.4
		c6.6-2.1,12.7-5.6,19.2-8.1c1.7-0.6,4.4-0.4,6,0.6c6.4,3.9,12.5,8.1,18.6,12.3c2.2,1.5,4.1,2.5,6.2-0.3c1.1-1.5,3.1-2.4,4.5-3.8
		c7.7-7.9,15.3-15.7,22.9-23.7c0.5-0.5,0.1-2.4-0.5-3.3c-4.4-6.5-8.8-13-13.4-19.5c-1.5-2.1-1.5-4-0.4-6.4
		C440,105.9,443,100,444.8,93.7z"/>
	<path class="st6" d="M258.8,61.7c-1-43.1,34.6-84.3,84.3-84.3v-48.9c-6.3,0.2-12.5,0.4-18.8,0.7c-1.3,0.1-3.4,1.4-3.7,2.4
		c-1.4,6.4-2.2,13-3.7,19.4c-0.6,3-1.5,7.2-3.7,8.4c-6.9,3.7-14.4,6.1-21.7,8.9c-1,0.4-2.6,0.1-3.6-0.5c-6.7-4.1-13.5-8.1-19.7-12.9
		c-3.2-2.5-4.9-1.3-7.1,0.6c-2.7,2.3-5.4,4.6-7.9,7.2c-6,6.2-11.7,12.6-17.6,18.9c-1.8,2-1.4,3.3,0,5.4c4.6,6.7,9.1,13.6,13.4,20.4
		c0.6,0.9,0.9,2.3,0.5,3.2c-2.4,5.6-5.9,11-7.4,16.8c-1.4,5.7-4.4,7.5-9.8,8.3c-7.4,1-14.7,2.9-22.7,4.6c0,14.8,0,29.2,0,43.4
		c10.1,2.1,19.2,3.8,28.2,5.7c0.9,0.2,1.9,1.3,2.2,2.1c3.3,7.9,6.4,15.8,9.9,24.2c-4.8,7-9.9,14.5-15,22.1c-0.6,0.9-0.6,2.8,0,3.6
		c7.9,9.9,16.4,19.4,26.8,27c3,2.2,4.4,1.7,6.8,0c6-4.1,12.1-8.2,18.3-12c1.3-0.8,3.5-1.3,4.8-0.7c6.9,2.7,13.5,6.2,20.5,8.4
		c2.5,0.8,3.3,2.1,3.7,3.7c1.8,8.6,3.3,17.3,5,26.8c7.2,0.3,14.6,0.8,22,1v-49.2C291.6,146.5,257.7,103.9,258.8,61.7z"/>
	<path class="st2" d="M343.6-22.6c-0.2,0-0.3,0-0.5,0v38.2h0.1c21.1,0.1,46.2,16.8,46.2,46.4c0,27.3-22,46.2-46.2,46.2v38.3
		c0.1,0,0.2,0,0.2,0c52.3-0.2,84-43.1,84.4-83.8C428.2,19.1,393.3-22.4,343.6-22.6z"/>
	<path class="st7" d="M343,108.1c-25.4,0-46.4-20.8-46.2-46.3c0.2-29.2,24.8-46.2,46.2-46.2v-38.2c-49.7,0-85.3,41.2-84.3,84.4
		c-1.1,42.2,32.7,84.8,84.3,84.7V108.1C343.1,108.1,343,108.1,343,108.1z"/>
	<path class="st4" d="M387.1,22.8c-1.8,0-3.6-0.8-4.8-2.3c-6.9-8.2-16.9-12.9-27.6-12.9c-3.5,0-6.4-2.9-6.4-6.4s2.9-6.4,6.4-6.4
		c14.4,0,28,6.4,37.2,17.5c2.2,2.7,1.9,6.7-0.8,8.9C390,22.3,388.6,22.8,387.1,22.8z"/>
	<path class="st3" d="M343.1,182c1.3,0,2.5,0.1,3.8,0.1c0.3,0,0.7,0,1,0c1,0,2.1,0,3.2-0.1c0.3-1.6,0.6-3.2,0.9-4.8
		c0.6-3.3,1.2-6.6,1.9-9.9c0.3-1.4,0.6-2.7,1.1-3.9c-3.8,0.5-7.8,0.7-11.8,0.7L343.1,182L343.1,182z"/>
	<path class="st3" d="M354.8-37.1c-0.4-1-0.8-2-1-3.2c-1.1-4.6-1.9-9.3-2.8-13.7c-0.1-0.5-0.2-0.9-0.2-1.4c-0.8,0-1.6,0-2.4,0h-0.8
		c-1.4,0-2.9,0-4.4,0.1v17.5C347.1-37.8,351-37.6,354.8-37.1z"/>
	<path class="st3" d="M419.5-26.4c-0.2-0.2-0.2-0.2-0.4-0.4c-4.5,3-8.7,5.7-13,8.4c-0.8,0.5-1.6,1-2.5,1.4c3.6,2.7,6.9,5.7,10.1,9
		c3,3.1,5.9,6.4,8.5,9.8c0.3-0.7,0.7-1.4,1.1-2.1c2.9-4.6,6-9.3,9-13.8c-0.6-0.8-1.3-1.5-1.8-2.1C427-19.7,423.3-22.9,419.5-26.4z"
		/>
	<path class="st3" d="M422.2,125.2c-5.1,6.8-11.1,13-18,18.3c1,0.4,2,0.9,2.9,1.4c4.3,2.6,8.4,5.3,12.5,8.1c3.9-4,8.2-8.3,12.6-13
		c-2.5-3.5-5-7.2-7.6-11C423.5,127.8,422.7,126.4,422.2,125.2z"/>
	<path class="st3" d="M460.4,54.1c-4.5-1-9-1.9-13.2-2.5c-1.7-0.2-3.3-0.6-4.8-1.3c0.6,4.5,0.9,9.1,0.9,13.7c0,4-0.3,7.9-0.8,11.8
		c1.9-0.8,4-1.4,6.2-1.7c3.9-0.7,7.8-1.4,11.8-2.1L460.4,54.1z"/>
	<path class="st8" d="M233,52.7c-2.9,0.4-5.9,1-9.1,1.7v18c5.4,1.1,10.6,2.1,15.8,3.3c0.8,0.2,1.5,0.4,2.2,0.6
		c-0.5-4.3-0.7-8.7-0.6-13c-0.1-4.3,0.2-8.7,0.6-13C239.4,51.4,236.3,52.2,233,52.7z"/>
	<path class="st8" d="M331.3-45l-0.1,0.3c-0.5,2.1-1,4.8-2.2,7.7c4.4-0.6,8.7-0.9,13.2-0.9h0.4c0.2,0,0.3,0,0.5,0v-17.5
		c-3.3,0.1-6.6,0.2-9.9,0.3C332.6-51.8,332.1-48.5,331.3-45z"/>
	<path class="st8" d="M342.6,164.2H342c-4.1,0-8.2-0.2-12.2-0.7c0.4,1,0.6,2.1,0.9,3.1c1,5,2,9.9,2.9,15c3.2,0.2,6.4,0.2,9.5,0.4
		v-17.8C343,164.2,342.7,164.2,342.6,164.2z"/>
	<path class="st8" d="M262.4,125.6c0,0-2.8,4.1-3.8,5.6c-2.1,3.1-4.3,6.3-6.4,9.5c3.7,4.2,7.8,8.6,12.5,12.6c4.4-2.9,8.7-5.7,13-8.4
		c0.9-0.6,1.8-1,2.8-1.4c-3.7-2.8-7.2-5.9-10.4-9.2C267.2,131.5,264.8,128.7,262.4,125.6z"/>
	<path class="st8" d="M274.2-20.6c-3.3-2-6.6-4-9.9-6.2c-0.4,0.3-0.7,0.7-1,1c-3.1,3.3-6.2,6.7-9.2,9.9c-0.6,0.6-1.3,1.4-1.8,2.1
		c3,4.6,6,9.2,8.8,13.6c0.3,0.6,0.6,1.1,1,1.7c2.5-3.2,5.1-6.2,7.9-9.1c3.3-3.4,6.8-6.5,10.5-9.4c-0.7-0.3-1.4-0.7-2.1-1.1
		C276.9-18.9,275.6-19.7,274.2-20.6z"/>
</g>
<path class="st3" d="M700.5,224H461.9v82h238.6c9.6,0,17.5-7.9,17.5-17.5v-47C718,231.9,710.1,224,700.5,224z"/>
<path class="st8" d="M223.5,224c-9.6,0-17.5,7.9-17.5,17.5v47c0,9.6,7.9,17.5,17.5,17.5h238.4v-82H223.5z"/>
<path class="st9" d="M238.8,237.5h-11.5c-4.5,0-8.3,3.7-8.3,8.3v39.5c0,4.5,3.7,8.3,8.3,8.3h11.5c4.5,0,8.3-3.7,8.3-8.3v-39.5
	C247,241.2,243.3,237.5,238.8,237.5z"/>
<path class="st9" d="M276.8,237.5h-11.5c-4.5,0-8.3,3.7-8.3,8.3v39.5c0,4.5,3.7,8.3,8.3,8.3h11.5c4.5,0,8.3-3.7,8.3-8.3v-39.5
	C285,241.2,281.3,237.5,276.8,237.5z"/>
<path class="st9" d="M314.8,237.5h-11.5c-4.5,0-8.3,3.7-8.3,8.3v39.5c0,4.5,3.7,8.3,8.3,8.3h11.5c4.5,0,8.3-3.7,8.3-8.3v-39.5
	C323,241.2,319.3,237.5,314.8,237.5z"/>
<path class="st9" d="M352.8,237.5h-11.5c-4.5,0-8.3,3.7-8.3,8.3v39.5c0,4.5,3.7,8.3,8.3,8.3h11.5c4.5,0,8.3-3.7,8.3-8.3v-39.5
	C361,241.2,357.3,237.5,352.8,237.5z"/>
<path class="st9" d="M391.7,237.5h-11.5c-4.5,0-8.3,3.7-8.3,8.3v39.5c0,4.5,3.7,8.3,8.3,8.3h11.5c4.5,0,8.3-3.7,8.3-8.3v-39.5
	C399.9,241.2,396.2,237.5,391.7,237.5z"/>
<path class="st10" d="M429.7,237.5h-11.5c-4.5,0-8.3,3.7-8.3,8.3v39.5c0,4.5,3.7,8.3,8.3,8.3h11.5c4.5,0,8.3-3.7,8.3-8.3v-39.5
	C437.9,241.2,434.2,237.5,429.7,237.5z"/>
<path class="st10" d="M467.7,237.5h-5.8v56h5.8c4.5,0,8.3-3.7,8.3-8.3v-39.5C475.9,241.2,472.2,237.5,467.7,237.5z"/>
<path class="st10" d="M456.2,237.5c-4.5,0-8.3,3.7-8.3,8.3v39.5c0,4.5,3.7,8.3,8.3,8.3h5.8v-56H456.2z"/>
<path class="st5" d="M505.7,293.5h-11.5c-4.5,0-8.3-3.7-8.3-8.3v-39.5c0-4.5,3.7-8.3,8.3-8.3h11.5c4.5,0,8.3,3.7,8.3,8.3v39.5
	C513.9,289.8,510.2,293.5,505.7,293.5z"/>
<path class="st5" d="M543.7,293h-11.5c-4.5,0-8.3-3.7-8.3-8.3v-39.5c0-4.5,3.7-8.3,8.3-8.3h11.5c4.5,0,8.3,3.7,8.3,8.3v39.5
	C551.9,289.3,548.2,293,543.7,293z"/>
<path class="st6" d="M581.7,293h-11.5c-4.5,0-8.3-3.7-8.3-8.3v-39.5c0-4.5,3.7-8.3,8.3-8.3h11.5c4.5,0,8.3,3.7,8.3,8.3v39.5
	C589.9,289.3,586.2,293,581.7,293z"/>
<path class="st6" d="M620.6,293h-11.5c-4.5,0-8.3-3.7-8.3-8.3v-39.5c0-4.5,3.7-8.3,8.3-8.3h11.5c4.5,0,8.3,3.7,8.3,8.3v39.5
	C628.8,289.3,625.1,293,620.6,293z"/>
<path class="st11" d="M658.6,293h-11.5c-4.5,0-8.3-3.7-8.3-8.3v-39.5c0-4.5,3.7-8.3,8.3-8.3h11.5c4.5,0,8.3,3.7,8.3,8.3v39.5
	C666.8,289.3,663.1,293,658.6,293z"/>
<path class="st11" d="M696.6,293h-11.5c-4.5,0-8.3-3.7-8.3-8.3v-39.5c0-4.5,3.7-8.3,8.3-8.3h11.5c4.5,0,8.3,3.7,8.3,8.3v39.5
	C704.8,289.3,701.1,293,696.6,293z"/>
<path class="st9" d="M588.8,89.8L588.8,89.8c-12.2,7-27.9,2.8-34.9-9.3L498-16.2c-7-12.2-2.8-27.9,9.3-34.9l0,0
	c12.2-7,27.9-2.8,34.9,9.3L598.1,55C605.1,67.1,600.9,82.8,588.8,89.8z"/>
<path class="st9" d="M563.3,89.8L563.3,89.8c-12.2-7-16.4-22.7-9.3-34.9l105.5-182.7c7-12.2,22.7-16.4,34.9-9.3l0,0
	c12.2,7,16.4,22.7,9.3,34.9L598.2,80.5C591.1,92.7,575.4,96.9,563.3,89.8z"/>
<path class="st4" d="M514.9-41.6c0.7,1.1,0.9,2.4,0.5,3.6c-2.1,7.1-1,14.8,3.1,21c1.4,2.1,0.8,4.8-1.3,6.1s-4.8,0.8-6.1-1.3
	c-5.5-8.3-7.1-18.7-4.1-28.3c0.6-2.3,3.1-3.6,5.5-2.9C513.5-43.1,514.3-42.5,514.9-41.6z"/>
<path class="st4" d="M690.2-128.4c2.4-0.7,4.9,0.6,5.5,2.9c3,9.6,1.4,20-4.1,28.3c-1.3,2-4.1,2.6-6.1,1.3c-2-1.3-2.6-4-1.3-6.1
	c4.1-6.2,5.2-13.8,3.1-21c-0.4-1.2-0.2-2.6,0.5-3.6C688.3-127.5,689.1-128.1,690.2-128.4z"/>
</svg>
