<?xml version="1.0" encoding="utf-8"?>
<!-- Generator: Adobe Illustrator 19.0.0, SVG Export Plug-In . SVG Version: 6.00 Build 0)  -->
<svg version="1.1" id="Layer_1" xmlns="http://www.w3.org/2000/svg" xmlns:xlink="http://www.w3.org/1999/xlink" x="0px" y="0px"
	 viewBox="96 11 512 512" style="enable-background:new 96 11 512 512;" xml:space="preserve">
<style type="text/css">
	.st0{fill:#4ACFD9;}
	.st1{fill:#0295AA;}
	.st2{fill:#E6EAEA;}
	.st3{fill:#CDD4D5;}
	.st4{fill:#FF8C29;}
	.st5{fill:#FD6A33;}
	.st6{display:none;fill:#0295AA;}
	.st7{fill:#F0353D;}
	.st8{fill:#FFD1A9;}
	.st9{fill:#365558;}
	.st10{fill:none;stroke:#000000;stroke-miterlimit:10;}
	.st11{fill:#9BAAAB;}
	.st12{fill:#FFFFFF;}
	.st13{fill:#BCD643;}
</style>
<path class="st0" d="M519.3,288.3c0.1,0.4,0.3,0.9,0.4,1.3C519.5,289.1,519.3,288.8,519.3,288.3z"/>
<path class="st0" d="M520.3,291.4c0.2,0.4,0.4,0.8,0.6,1.2C520.8,292.1,520.6,291.8,520.3,291.4z"/>
<path class="st0" d="M518.7,285.1c0.1,0.5,0.1,1,0.2,1.4C518.8,286,518.7,285.6,518.7,285.1z"/>
<path class="st0" d="M428.6,357c-0.1-0.2-0.2-0.3-0.4-0.5C428.3,356.8,428.5,356.8,428.6,357z"/>
<path class="st0" d="M429.7,358.3c0.1,0.2,0.3,0.3,0.5,0.5C430,358.5,429.8,358.3,429.7,358.3z"/>
<path class="st0" d="M431.3,359.6c0.1,0.2,0.3,0.4,0.5,0.5C431.7,359.9,431.5,359.8,431.3,359.6z"/>
<path class="st0" d="M363.4,449.2c0,0-0.1-0.1-0.2-0.1C363.2,449.1,363.3,449.1,363.4,449.2z"/>
<path class="st0" d="M358.8,446.3c0.2,0.1,0.4,0.3,0.5,0.4C359.2,446.5,359,446.5,358.8,446.3z"/>
<path class="st0" d="M360.8,447.8c0.2,0.1,0.4,0.2,0.6,0.4C361.2,448,361,447.9,360.8,447.8z"/>
<path class="st0" d="M365.7,450.3h0.1H365.7z"/>
<path class="st0" d="M518.6,283.3c0,0.5,0,1,0.1,1.5C518.6,284.3,518.6,283.8,518.6,283.3z"/>
<path class="st0" d="M352.1,12.3C352,12.3,352,12.4,352.1,12.3L352,34.9c13.7,0.6,27,2.7,39.4,6.4c15.2,4.5,28.8,11.4,40.4,20.5
	c12,9.4,21.6,21.3,28.5,35.3c6.9,14,10.4,30.3,10.4,48.2c0,17-3.1,32.5-9.2,46.2c-5.7,12.7-12.9,24.5-21.6,35.1
	c-8.2,10-17.1,19.5-26.6,28.2c-8.4,7.7-16.4,15.4-23.6,23c-6.5,6.8-11.8,13.9-16,21.1c-3.2,5.6-4.8,11.6-4.8,18.5
	c0,6.9,0.8,13.1,2.4,18.4c1.9,6.5,3.8,11.9,5.6,16.1l5,11.8c15-10.5,31.5-14.4,44.1-10.5c-10.4-17.8,1.3-45.8,27-63.6
	c23.8-16.4,51.4-18.6,65.7-6.2c-0.4-16.6,19.3-32,45.4-34.7c18.2-1.9,34.7,2.8,44,11.4C603.6,122.8,490.5,12.3,352.1,12.3z"/>
<path class="st0" d="M353.1,398c2.8-6.3,6.6-12.5,11.4-18.4H352v18C352.4,397.8,352.8,397.9,353.1,398z"/>
<path class="st0" d="M363.8,193.1c6.2-7,11.5-14.3,15.6-21.9c3.3-6,4.9-12.5,4.9-19.9c0-6.1-1.1-11.2-3.2-15.5c-2.2-4.4-5.2-8-9-11
	c-4.2-3.3-9-5.7-14.7-7.4c-1.8-0.5-3.6-1-5.5-1.4v89.5C356.1,201.5,360.1,197.3,363.8,193.1z"/>
<path class="st0" d="M96.1,268.3c0,128.6,95.4,235.4,219.1,253.3c-4-8.1-5.5-18.6-3.8-29.7c-3.4-2-6.6-4.5-9.6-7.3l-0.2-0.2
	c-10.2-9.9-15.6-22.6-15.6-36.8c0-14.4,5.4-27.1,15.6-36.8c10-9.9,22.6-15.1,36.4-15.1c4.9,0,9.6,0.7,14.1,1.9v-18h-54.2l-4.7-13.5
	c-2.1-6.1-3.9-13.5-5.4-22.6c-1.5-9-2.3-18.1-2.3-27.1c0-15.3,3.2-29.5,9.4-42.1c5.6-11.3,12.6-22,20.9-31.8
	c7.8-9.2,16.4-18.2,25.6-26.7c3.7-3.4,7.2-6.8,10.7-10.3v-89.5c-4.6-0.9-9.4-1.4-14.4-1.4c-26.9,0-49.6,10.4-69.7,31.9l-34.6,37.1
	V71.2l9.4-5.9c32.4-20.4,66.7-30.7,101.8-30.7c2.5,0,5,0.1,7.5,0.2V12.4C210.9,12.4,96.1,127.3,96.1,268.3z"/>
<path class="st0" d="M518.6,283.3C518.5,283.2,518.5,283.2,518.6,283.3C518.5,283.3,518.6,283.3,518.6,283.3
	C518.6,283.3,518.6,283.3,518.6,283.3z"/>
<path class="st0" d="M357,444.9c0.6,0.5,1.2,1,1.8,1.5C358.2,445.9,357.6,445.4,357,444.9z"/>
<path class="st0" d="M360.8,447.8c-0.5-0.3-0.9-0.7-1.4-1C359.8,447,360.3,447.5,360.8,447.8z"/>
<path class="st0" d="M357,444.8c-0.6-0.6-1.1-1.2-1.6-1.7C355.9,443.8,356.5,444.3,357,444.8z"/>
<path class="st0" d="M363.2,449c-0.6-0.3-1.2-0.6-1.8-1C361.9,448.5,362.5,448.8,363.2,449z"/>
<path class="st0" d="M365.7,450.3c-0.8-0.3-1.6-0.7-2.3-1C364.1,449.6,364.9,450,365.7,450.3z"/>
<path class="st0" d="M519.8,290c0.1,0.3,0.2,0.6,0.4,1C520.1,290.6,519.8,290.3,519.8,290z"/>
<path class="st0" d="M518.8,286.9c0.1,0.4,0.2,0.8,0.3,1.1C519.1,287.6,519,287.3,518.8,286.9z"/>
<path class="st0" d="M429.7,358.1c-0.3-0.4-0.7-0.7-1-1.1C429,357.5,429.3,357.8,429.7,358.1z"/>
<path class="st0" d="M428.2,356.5c-0.4-0.5-0.9-1.1-1.3-1.7C427.3,355.5,427.8,356,428.2,356.5z"/>
<path class="st0" d="M426.9,354.8c-0.4-0.6-0.7-1.1-1.1-1.7C426.1,353.8,426.5,354.3,426.9,354.8z"/>
<path class="st0" d="M431.3,359.8c-0.4-0.4-0.8-0.7-1.1-1C430.5,359,430.9,359.5,431.3,359.8z"/>
<path class="st0" d="M519.2,288c0,0.1,0,0.2,0.1,0.3C519.2,288.1,519.2,288.1,519.2,288z"/>
<path class="st0" d="M519.7,289.6c0,0.1,0.1,0.3,0.1,0.4C519.8,289.9,519.7,289.8,519.7,289.6z"/>
<path class="st0" d="M518.8,286.5c0,0.1,0,0.3,0.1,0.4C518.8,286.8,518.8,286.6,518.8,286.5z"/>
<path class="st0" d="M520.2,291c0.1,0.1,0.1,0.3,0.2,0.4C520.3,291.3,520.3,291.1,520.2,291z"/>
<path class="st0" d="M521,292.6c0.1,0.1,0.2,0.3,0.2,0.4C521.1,292.9,521,292.6,521,292.6z"/>
<path class="st1" d="M96.1,268.3c0,128.8,95.3,235.3,219.1,253.3c-4-8.1-5.5-18.6-3.8-29.7c-3.4-2-6.6-4.5-9.6-7.3l-0.2-0.2
	c-10.2-9.9-15.6-22.6-15.6-36.8c0-14.4,5.4-27.1,15.6-36.8c10-9.9,22.6-15.1,36.4-15.1c4.1,0,8,0.5,11.8,1.4v-17.5h-52l-4.7-13.5
	c-2.1-6.1-3.9-13.5-5.4-22.6c-1.5-9-2.3-18.1-2.3-27.1c0-15.3,3.2-29.5,9.4-42.1c5.6-11.3,12.6-22,20.9-31.8
	c7.8-9.2,16.4-18.2,25.6-26.7c2.9-2.7,5.7-5.3,8.4-8v-92.2c-3.9-0.7-8-1-12.1-1c-26.9,0-49.6,10.4-69.7,31.9l-34.6,37.1V71.2
	l9.4-5.9c32.4-20.4,66.7-30.7,101.8-30.7c1.8,0,3.5,0,5.2,0.1V12.3C209.6,13.8,96.1,127.8,96.1,268.3z"/>
<path class="st2" d="M519.2,288.1c0.1,0.3,0.2,0.6,0.3,0.9C519.3,288.6,519.3,288.4,519.2,288.1z"/>
<path class="st2" d="M520.2,291c0.1,0.3,0.2,0.5,0.3,0.8C520.3,291.5,520.3,291.3,520.2,291z"/>
<path class="st2" d="M519.6,289.4c0.1,0.4,0.3,0.8,0.4,1.2C519.8,290.1,519.7,289.8,519.6,289.4z"/>
<path class="st2" d="M520.8,292.3c0.1,0.2,0.2,0.4,0.3,0.7C521,292.6,520.8,292.5,520.8,292.3z"/>
<path class="st2" d="M365.7,450.3h0.1H365.7z"/>
<path class="st2" d="M363.4,449.2c0,0-0.1-0.1-0.2-0.1C363.2,449.1,363.3,449.1,363.4,449.2z"/>
<path class="st2" d="M360.8,447.8c0.2,0.1,0.4,0.2,0.6,0.4C361.2,448,361,447.9,360.8,447.8z"/>
<path class="st2" d="M358.8,446.3c0.2,0.1,0.4,0.3,0.5,0.4C359.2,446.5,359,446.5,358.8,446.3z"/>
<path class="st2" d="M355.4,443.1c-1.3-1.4-2.4-3-3.4-4.6v4.9C353.1,443.3,354.2,443.1,355.4,443.1z"/>
<path class="st2" d="M349.7,443.8c0.8-0.2,1.6-0.3,2.3-0.4v-4.9c-1-1.7-1.7-3.4-2.3-5.3V443.8z"/>
<path class="st2" d="M428.6,357c-0.1-0.2-0.2-0.3-0.4-0.5C428.3,356.8,428.5,356.8,428.6,357z"/>
<path class="st2" d="M431.3,359.6c0.1,0.2,0.3,0.4,0.5,0.5C431.7,359.9,431.5,359.8,431.3,359.6z"/>
<path class="st2" d="M518.6,283.5c0-0.1,0-0.2,0-0.3c0,0,0,0,0,0C518.5,283.3,518.6,283.4,518.6,283.5z"/>
<path class="st2" d="M518.6,283.5c0,0.4,0,0.9,0.1,1.3C518.6,284.4,518.6,284,518.6,283.5z"/>
<path class="st2" d="M381.1,135.8c-2.2-4.4-5.2-8-9-11c-4.2-3.3-9-5.7-14.7-7.4c-1.8-0.5-3.6-1-5.5-1.4v89.5
	c4.1-4.2,8.1-8.3,11.8-12.5c6.2-7,11.5-14.3,15.6-21.9c3.3-6,4.9-12.5,4.9-19.9C384.4,145.2,383.3,140.2,381.1,135.8z"/>
<path class="st2" d="M349.7,115.7V208c0.8-0.8,1.6-1.6,2.3-2.3v-89.5C351.2,115.9,350.4,115.8,349.7,115.7z"/>
<path class="st2" d="M364.5,379.6H352v18c0.4,0.1,0.8,0.2,1.1,0.3C355.9,391.8,359.7,385.5,364.5,379.6z"/>
<path class="st2" d="M349.7,379.6v17.4c0.8,0.2,1.6,0.4,2.3,0.6v-18H349.7z"/>
<path class="st2" d="M443.4,72.4c6.7,7.2,12.4,15.5,16.9,24.6c6.9,14,10.4,30.3,10.4,48.2c0,17-3.1,32.5-9.2,46.2
	c-5.7,12.7-12.9,24.5-21.6,35.1c-8.2,10-17.1,19.5-26.6,28.2c-8.4,7.7-16.4,15.4-23.6,23c-6.5,6.8-11.8,13.9-16,21.1
	c-3.2,5.6-4.8,11.6-4.8,18.5c0,6.9,0.8,13.1,2.4,18.4c1.9,6.5,3.8,11.9,5.6,16.1l5,11.8c15-10.5,31.5-14.4,44.1-10.5
	c-10.4-17.8,1.3-45.8,27-63.6c23.8-16.4,51.4-18.6,65.7-6.2c-0.5-16.4,19.4-31.8,45.3-34.6c0.8-0.1,1.6-0.2,2.5-0.2
	C559.5,170.6,511,104.5,443.4,72.4z"/>
<path class="st2" d="M429.7,358.3c0.1,0.2,0.3,0.3,0.5,0.5C430,358.5,429.8,358.3,429.7,358.3z"/>
<path class="st2" d="M360.8,447.8c-0.5-0.3-0.9-0.7-1.4-1C359.8,447,360.3,447.5,360.8,447.8z"/>
<path class="st2" d="M357,444.9c0.6,0.5,1.2,1,1.8,1.5C358.2,445.9,357.6,445.4,357,444.9z"/>
<path class="st2" d="M365.7,450.3c-0.8-0.3-1.6-0.7-2.3-1C364.1,449.6,364.9,450,365.7,450.3z"/>
<path class="st2" d="M363.2,449c-0.6-0.3-1.2-0.6-1.8-1C361.9,448.5,362.5,448.8,363.2,449z"/>
<path class="st2" d="M357,444.8c-0.6-0.6-1.1-1.1-1.6-1.7C355.9,443.8,356.4,444.3,357,444.8z"/>
<path class="st2" d="M518.8,286.8c0.1,0.3,0.1,0.6,0.2,0.9C519,287.4,519,287.1,518.8,286.8z"/>
<path class="st2" d="M518.7,285.1c0,0.4,0.1,0.9,0.2,1.3C518.8,286,518.7,285.5,518.7,285.1z"/>
<path class="st2" d="M431.3,359.8c-0.4-0.4-0.8-0.7-1.1-1C430.5,359,430.9,359.5,431.3,359.8z"/>
<path class="st2" d="M428.2,356.5c-0.4-0.5-0.9-1.1-1.3-1.7C427.3,355.5,427.8,356,428.2,356.5z"/>
<path class="st2" d="M426.9,354.8c-0.4-0.6-0.7-1.1-1.1-1.7C426.1,353.8,426.5,354.3,426.9,354.8z"/>
<path class="st2" d="M429.7,358.1c-0.3-0.4-0.7-0.7-1-1.1C429,357.5,429.3,357.8,429.7,358.1z"/>
<path class="st2" d="M519.1,287.6c0,0.1,0.1,0.3,0.1,0.4C519.2,288,519.2,287.8,519.1,287.6z"/>
<path class="st2" d="M519.5,289.1c0,0.1,0.1,0.2,0.1,0.3C519.6,289.3,519.5,289.1,519.5,289.1z"/>
<path class="st2" d="M520,290.6c0.1,0.1,0.1,0.3,0.2,0.4C520.2,290.9,520.1,290.6,520,290.6z"/>
<path class="st2" d="M518.8,286.4c0,0.1,0.1,0.3,0.1,0.4C518.8,286.6,518.8,286.5,518.8,286.4z"/>
<path class="st2" d="M520.6,291.8c0.1,0.2,0.2,0.3,0.2,0.5C520.7,292.1,520.6,291.9,520.6,291.8z"/>
<path class="st2" d="M521.1,292.9c0.1,0.2,0.2,0.3,0.3,0.5C521.3,293.3,521.2,293.1,521.1,292.9z"/>
<path class="st3" d="M268,146.6l-34.6,37.1V87.3c-58.8,38.6-97.7,105.1-97.7,180.5c0,99.2,67.3,183,158.7,208
	c-5.5-8.2-8.3-17.8-8.3-28.1c0-14.4,5.4-27.1,15.6-36.8c10-9.9,22.6-15.1,36.4-15.1c4,0,7.8,0.4,11.5,1.3v-17.4h-51.7l-4.7-13.5
	c-2.1-6.1-3.9-13.5-5.4-22.6c-1.5-9-2.3-18.1-2.3-27.1c0-15.3,3.2-29.5,9.4-42.1c5.6-11.3,12.6-22,20.9-31.8
	c7.8-9.2,16.4-18.2,25.6-26.7c2.8-2.6,5.5-5.1,8.1-7.7v-92.5c-3.8-0.6-7.8-0.9-11.8-0.9C310.8,114.7,288,125.1,268,146.6z"/>
<path class="st4" d="M428.7,357c-0.1-0.1-0.2-0.2-0.3-0.2C428.5,356.9,428.5,357,428.7,357z"/>
<path class="st4" d="M428.4,356.8c-0.1-0.1-0.1-0.2-0.2-0.3C428.2,356.7,428.3,356.7,428.4,356.8z"/>
<path class="st4" d="M431.8,360.2c-0.2-0.2-0.5-0.4-0.7-0.6C431.3,359.8,431.5,360,431.8,360.2z"/>
<path class="st4" d="M430.2,358.6c-0.2-0.2-0.4-0.4-0.6-0.6C429.8,358.3,430,358.5,430.2,358.6z"/>
<path class="st4" d="M426.9,354.8c-0.3-0.5-0.7-1-1-1.6C426.2,353.8,426.5,354.3,426.9,354.8z"/>
<path class="st4" d="M429.6,358c-0.3-0.3-0.6-0.7-0.9-1C429,357.5,429.3,357.8,429.6,358z"/>
<path class="st4" d="M428.2,356.5c-0.4-0.5-0.9-1.1-1.3-1.7C427.3,355.5,427.7,356,428.2,356.5z"/>
<path class="st4" d="M431.1,359.5c-0.3-0.3-0.6-0.6-0.9-0.8C430.5,359,430.8,359.3,431.1,359.5z"/>
<path class="st5" d="M325.1,132L325.1,132L325.1,132C325.1,132,325.1,132,325.1,132L325.1,132z"/>
<circle class="st6" cx="663.5" cy="73.2" r="188.5"/>
<path class="st4" d="M369.8,447.7c0-9-3.2-16.5-9.5-22.4c-2.6-2.6-5.4-4.6-8.3-6.2v57c2.9-1.5,5.7-3.4,8.3-5.9
	C366.7,464,369.8,456.5,369.8,447.7z"/>
<path class="st5" d="M337.9,415.7c-8.6,0-16.1,3.2-22.4,9.5c-6.3,5.9-9.5,13.4-9.5,22.4c0,8.8,3.2,16.3,9.5,22.4
	c6.5,6.1,14,9.2,22.4,9.2c5,0,9.7-1.1,14.1-3.3v-57C347.7,416.8,343,415.7,337.9,415.7z"/>
<path class="st4" d="M442.3,105.9c-5.6-11.3-13.2-20.8-22.9-28.3c-9.7-7.6-21-13.3-33.8-17.1c-10.6-3.2-21.9-5-33.7-5.6v40.9
	c3.8,0.6,7.6,1.4,11.2,2.5c8.1,2.4,15.1,6,21.3,10.8c6.1,4.8,11,10.7,14.5,17.8c3.5,7.1,5.3,15.2,5.3,24.5c0,10.7-2.4,20.6-7.3,29.5
	s-11,17.5-18.3,25.6c-7.3,8.2-15.2,16.2-23.9,24.2c-1,0.9-1.9,1.8-2.9,2.7v64.9c1.1-3.2,2.6-6.4,4.3-9.4c5-8.6,11.3-16.9,18.8-24.9
	c7.6-8,15.8-16,24.6-24c8.8-8.1,17-16.7,24.6-26c7.6-9.3,13.9-19.5,18.8-30.6c5-11.1,7.5-23.8,7.5-38
	C450.7,130.4,447.9,117.2,442.3,105.9z"/>
<path class="st4" d="M358.3,359.6c-2.1-5-4.2-11.1-6.3-18.3v18.3H358.3z"/>
<path class="st5" d="M253.3,82.3v50.6c23.8-25.5,51.9-38.3,84.3-38.3c4.9,0,9.7,0.4,14.4,1.1V54.9c-2.5-0.1-5-0.2-7.5-0.2
	C313.1,54.7,282.7,63.9,253.3,82.3z"/>
<path class="st5" d="M331,255.5c-7.3,8.6-13.4,17.9-18.3,27.8c-4.9,9.9-7.3,21-7.3,33.2c0,7.9,0.7,15.8,2,23.7
	c1.3,8,2.9,14.4,4.6,19.4h40v-18.3c0,0,0,0,0,0c-2.1-7.2-3.2-15.2-3.2-24c0-6.7,1.1-13.1,3.2-19.1v-64.9
	C344.5,240.4,337.5,247.8,331,255.5z"/>
<g>
	<rect x="-524" y="94.5" class="st7" width="128" height="128"/>
	<rect x="-396" y="94.5" class="st5" width="128" height="128"/>
	<rect x="-268" y="94.5" class="st4" width="128" height="128"/>
	<rect x="-140" y="94.5" class="st8" width="128" height="128"/>
	<rect x="-524" y="222.5" class="st9" width="128" height="128"/>
	<rect x="-396" y="222.5" class="st1" width="128" height="128"/>
	<rect x="-268" y="222.5" class="st0" width="128" height="128"/>
	<rect x="-140" y="222.5" class="st10" width="128" height="128"/>
	<rect x="-524" y="350.5" class="st11" width="128" height="128"/>
	<rect x="-396" y="350.5" class="st3" width="128" height="128"/>
	<rect x="-268" y="350.5" class="st2" width="128" height="128"/>
	<rect x="-140" y="350.5" class="st12" width="128" height="128"/>
	<rect x="-524" y="478.5" class="st13" width="128" height="128"/>
	<rect x="-396" y="478.5" class="st10" width="128" height="128"/>
	<rect x="-268" y="478.5" class="st10" width="128" height="128"/>
	<rect x="-140" y="478.5" class="st10" width="128" height="128"/>
</g>
</svg>
