<?xml version="1.0" encoding="utf-8"?>
<!-- Generator: Adobe Illustrator 19.0.0, SVG Export Plug-In . SVG Version: 6.00 Build 0)  -->
<svg version="1.1" id="Layer_1" xmlns="http://www.w3.org/2000/svg" xmlns:xlink="http://www.w3.org/1999/xlink" x="0px" y="0px"
	 viewBox="96 11 512 512" style="enable-background:new 96 11 512 512;" xml:space="preserve">
<style type="text/css">
	.st0{display:none;}
	.st1{display:inline;}
	.st2{fill:#F0353D;}
	.st3{fill:#FD6A33;}
	.st4{fill:#FF8C29;}
	.st5{fill:#FFD1A9;}
	.st6{fill:#365558;}
	.st7{fill:#0295AA;}
	.st8{fill:#4ACFD9;}
	.st9{fill:#9BAAAB;}
	.st10{fill:#CDD4D5;}
	.st11{fill:#E6EAEA;}
	.st12{fill:#FFFFFF;}
	.st13{fill:#BCD643;}
</style>
<g id="Layer_3" class="st0">
	<polygon class="st1" points="398,-185.9 398,-70 608,-70 608,-61 689,-61 689,326.9 910,326.9 910,-185.9 	"/>
	<rect x="398" y="-70" class="st1" width="210" height="9"/>
	<rect x="608" y="-61" class="st1" width="81" height="387.9"/>
	<polygon class="st1" points="398,-61 398,22 448,22 448,326.9 608,326.9 608,-61 	"/>
	<rect x="398" y="22" class="st1" width="50" height="304.9"/>
</g>
<rect x="-477" y="22" class="st2" width="128" height="128"/>
<rect x="-349" y="22" class="st3" width="128" height="128"/>
<rect x="-221" y="22" class="st4" width="128" height="128"/>
<rect x="-93" y="22" class="st5" width="128" height="128"/>
<rect x="-477" y="150" class="st6" width="128" height="128"/>
<rect x="-349" y="150" class="st7" width="128" height="128"/>
<rect x="-221" y="150" class="st8" width="128" height="128"/>
<rect x="-477" y="278" class="st9" width="128" height="128"/>
<rect x="-349" y="278" class="st10" width="128" height="128"/>
<rect x="-221" y="278" class="st11" width="128" height="128"/>
<rect x="-93" y="278" class="st12" width="128" height="128"/>
<rect x="-477" y="406" class="st13" width="128" height="128"/>
<path class="st2" d="M280.8,413c-3,0.7-5.1,2.7-4.7,5.1c0.3,2.1,3,3.4,6.1,2.7c3-0.7,5.1-2.7,4.7-4.7
	C286.6,414,283.8,412.6,280.8,413z"/>
<path class="st2" d="M261.5,415.6c-3,0-5.4,1.7-5.4,3.7c0,2.4,2.4,4,5.8,3.7c3,0,5.4-1.7,5.4-3.7C267.3,417,264.6,415.3,261.5,415.6
	z"/>
<path class="st2" d="M235.1,414.7L235.1,414.7c-0.7,2.1,1.3,4.4,4.4,5.1c2.7,1,5.8,0,6.4-2.1c0.6-2.1-1.3-4.4-4.4-5.4
	C238.9,411.6,235.9,412.6,235.1,414.7z"/>
<path class="st3" d="M348.7,17.4C205.5,17.4,96,126.1,96,269.3c0,114.5,72.1,212.4,175,246.9c13.2,2.4,17.9-5.8,17.9-12.5
	c0-6.4-0.3-41.7-0.3-63.4c0,0-72.3,15.5-87.4-30.8c0,0-11.8-30-28.7-37.8c0,0-23.6-16.2,1.7-15.9c0,0,25.7,2.1,39.8,26.6
	c22.6,39.8,60.5,28.4,75.3,21.6c2.4-16.5,9.1-28,16.5-34.8c-57.7-6.4-115.9-14.8-115.9-114.1c0-28.4,7.8-42.6,24.4-60.8
	c-2.7-6.7-11.5-34.4,2.7-70.1c21.6-6.7,71.2,27.9,71.2,27.9c20.4-5.7,42.3-8.7,64-8.8v-126C350.9,17.4,349.8,17.4,348.7,17.4z"/>
<path class="st2" d="M196.3,373.4c-1.3,1-1,3.4,0.7,5.4c1.7,1.7,4,2.4,5.4,1c1.3-1,1-3.4-0.7-5.4
	C200.1,372.8,197.7,372.1,196.3,373.4z"/>
<path class="st2" d="M185.2,365.1c-0.7,1.3,0.3,3,2.4,4c1.7,1,3.7,0.7,4.4-0.7c0.7-1.3-0.3-3-2.4-4
	C187.6,363.7,185.9,364,185.2,365.1z"/>
<path class="st2" d="M206.9,386.6c-1.7,1-1.7,3.7,0,6.1c1.7,2.4,4.4,3.4,5.8,2.4c1.7-1.3,1.7-4,0-6.4
	C211.2,386.3,208.5,385.3,206.9,386.6z"/>
<path class="st2" d="M218.6,401.8c-1.7,1.3-1,4.4,1.3,6.4c2.4,2.4,5.4,2.7,6.7,1c1.3-1.3,0.7-4.4-1.3-6.4
	C223.1,400.5,220,400.2,218.6,401.8z"/>
<path class="st4" d="M352,17.4v126c0.3,0,0.6,0,0.8,0c22,0,44.2,3,64.8,8.8c0,0,49.7-34.7,71.2-27.9c14.1,35.8,5.4,63.4,2.7,70.1
	c16.5,18.3,26.6,32.5,26.6,60.8c0,99.6-60.8,107.6-118.5,114.1c9.5,8.2,17.5,23.6,17.5,47.9c0,34.8-0.3,77.8-0.3,86.3
	c0,6.7,4.7,14.9,17.9,12.5C538,481.7,608,383.7,608,269.3C608,127.2,493.7,19.1,352,17.4z"/>
</svg>
