<?xml version="1.0" encoding="utf-8"?>
<!-- Generator: Adobe Illustrator 19.0.0, SVG Export Plug-In . SVG Version: 6.00 Build 0)  -->
<svg version="1.1" id="Layer_1" xmlns="http://www.w3.org/2000/svg" xmlns:xlink="http://www.w3.org/1999/xlink" x="0px" y="0px"
	 viewBox="96 11 512 512" style="enable-background:new 96 11 512 512;" xml:space="preserve">
<style type="text/css">
	.st0{fill:#9BAAAB;}
	.st1{fill:#FD6A33;}
	.st2{fill:#FF8C29;}
	.st3{fill:#F0353D;}
	.st4{fill:#0295AA;}
</style>
<rect x="145.6" y="11" class="st0" width="30" height="205.1"/>
<rect x="294" y="290" class="st0" width="29.2" height="113.6"/>
<rect x="442.4" y="224.2" class="st0" width="29.2" height="165.5"/>
<rect x="97.9" y="57" class="st1" width="124.3" height="252.7"/>
<rect x="246.2" y="11" class="st2" width="124.3" height="298.7"/>
<rect x="394.4" y="308.3" class="st2" width="124.3" height="214.7"/>
<path class="st3" d="M307.5,259.3c-0.4,0-0.8,0-1.1,0C306.7,259.3,307.1,259.3,307.5,259.3z"/>
<path class="st3" d="M298.8,260.6c-0.3,0.1-0.5,0.1-0.8,0.3C298.3,260.7,298.6,260.6,298.8,260.6z"/>
<path class="st3" d="M301,260.1c-0.3,0-0.7,0.1-0.9,0.1C300.3,260.2,300.6,260.1,301,260.1z"/>
<path class="st3" d="M296.8,261.1c-0.3,0.1-0.5,0.1-0.7,0.3C296.3,261.4,296.6,261.3,296.8,261.1z"/>
<path class="st3" d="M303.1,259.7c-0.3,0-0.7,0.1-0.9,0.1C302.4,259.8,302.7,259.7,303.1,259.7z"/>
<path class="st3" d="M305.2,259.4c-0.4,0-0.7,0-1.1,0.1C304.5,259.4,304.8,259.4,305.2,259.4z"/>
<path class="st3" d="M303.6,274.7c0.3-0.1,0.4-0.1,0.7-0.3C304,274.4,303.7,274.6,303.6,274.7z"/>
<path class="st3" d="M304.8,274.2c0.3,0,0.4-0.1,0.7-0.1C305.3,274.2,305.1,274.2,304.8,274.2z"/>
<path class="st3" d="M306.3,273.9c0.3,0,0.5-0.1,0.7-0.1C306.7,273.9,306.4,273.9,306.3,273.9z"/>
<path class="st3" d="M308.3,273.8c-0.3,0-0.4,0-0.7,0C307.9,273.8,308.1,273.8,308.3,273.8L308.3,273.8z"/>
<path class="st3" d="M294.7,262.1c-0.1,0.1-0.4,0.1-0.5,0.3C294.4,262.2,294.6,262.1,294.7,262.1z"/>
<path class="st3" d="M302.3,275.2c0.3-0.1,0.4-0.3,0.7-0.4C302.8,275,302.5,275.1,302.3,275.2z"/>
<path class="st3" d="M298.8,278c0.3-0.4,0.7-0.7,0.9-0.9C299.5,277.4,299.1,277.6,298.8,278z"/>
<path class="st3" d="M300,276.8c0.3-0.3,0.5-0.4,0.7-0.7C300.6,276.4,300.3,276.6,300,276.8z"/>
<path class="st3" d="M301.2,275.9c0.3-0.1,0.4-0.3,0.7-0.4C301.6,275.6,301.4,275.8,301.2,275.9z"/>
<path class="st4" d="M577,523h31V11h-31l-38,23.5L577,58l-38,23l38,23l-38,23.5l38,23.5l-38,23l38,23l-38,23.5l38,23.5l-38,23l38,23
	l-38,23.5l38,23.5l-38,23l38,23l-38,23.5l38,23.5l-38,23l38,23l-38,23.5L577,523z"/>
</svg>
