<?xml version="1.0" encoding="utf-8"?>
<!-- Generator: Adobe Illustrator 19.0.0, SVG Export Plug-In . SVG Version: 6.00 Build 0)  -->
<svg version="1.1" id="Hits" xmlns="http://www.w3.org/2000/svg" xmlns:xlink="http://www.w3.org/1999/xlink" x="0px" y="0px"
	 viewBox="96 11 512 512" style="enable-background:new 96 11 512 512;" xml:space="preserve">
<style type="text/css">
	.st0{fill:#4ACFD9;}
	.st1{display:none;fill:#0295AA;}
	.st2{display:none;}
	.st3{display:inline;fill:#0295AA;}
	.st4{fill:#0295AA;}
	.st5{fill:#E6EAEA;}
	.st6{fill:#365558;}
	.st7{fill:#F0353D;}
	.st8{fill:#FD6A33;}
	.st9{fill:#FF8C29;}
	.st10{fill:#FFD1A9;}
	.st11{fill:#9BAAAB;}
	.st12{fill:#CDD4D5;}
	.st13{fill:#FFFFFF;}
	.st14{fill:#BCD643;}
</style>
<path class="st0" d="M352,11C210.9,11,96,125.9,96,267s114.9,256,256,256s256-114.9,256-256S493.1,11,352,11z M352,482.7
	c-119.1,0-215.7-96.6-215.7-215.7S232.9,51.3,352,51.3S567.7,147.9,567.7,267S471.1,482.7,352,482.7z"/>
<g id="bak_7_">
	<path id="thumbs_9_" class="st1" d="M203.8,240.4c52.3-0.2,96.7-10,98.3-11.5c19-16,74-66.5,87.3-124.4c3.2-14,1.1-27.8,5.3-41.4
		c2.1-4.6,19-24.3,37.9,5.2c19,29.6-4.2,120.4-4.2,120.4s-4.8,10.2,45.9,10c7.9,0,21.4,0,27.8,0c8.4,0,40,5.9,37.9,30.9
		c-2.1,25-25.2,27.2-25.2,27.2s37.9,4.6,37.9,27.2s-6.3,34.1-42.1,34.1c0,0,37.9,4.6,31.7,34.1c-6.3,29.6-40,22.8-40,22.8
		s21.1,14.3,16.9,31.8s-12.7,25-46.4,27.2s-175-18.8-175-43.8c0-5.5-36.6-2.1-94-2.5C203.8,388,194.4,240.4,203.8,240.4z"/>
	<g class="st2">
		<path class="st3" d="M352,43.2c30.3,0,59.6,5.9,87.2,17.6c26.7,11.3,50.6,27.4,71.2,48c20.6,20.6,36.7,44.5,48,71.2
			c11.7,27.6,17.6,56.9,17.6,87.2s-5.9,59.6-17.6,87.2c-11.3,26.7-27.4,50.6-48,71.2c-20.6,20.6-44.5,36.7-71.2,48
			c-27.6,11.7-56.9,17.6-87.2,17.6s-59.6-5.9-87.2-17.6c-26.7-11.3-50.6-27.4-71.2-48s-36.7-44.5-48-71.2
			c-11.7-27.6-17.6-56.9-17.6-87.2s5.9-59.6,17.6-87.2c11.3-26.7,27.4-50.6,48-71.2s44.5-36.7,71.2-48
			C292.4,49.1,321.7,43.2,352,43.2 M352,11.2c-141.4,0-256,114.6-256,256s114.6,256,256,256s256-114.6,256-256S493.4,11.2,352,11.2
			L352,11.2z"/>
	</g>
</g>
<path class="st4" d="M302.4,229.9c-1.5,1.4-42.8,10.4-91.5,10.7c-8.7,0,0,137.3,0,137.2c53.4,0.3,87.5-2.9,87.5,2.3
	c0,9.6,22.5,18.6,51.1,25.7V181C331.6,204.2,312,221.8,302.4,229.9z"/>
<path class="st0" d="M535.8,281.3c0-21.1-35.3-25.3-35.3-25.3s21.6-2.1,23.5-25.3s-27.5-28.8-35.3-28.8c-6,0-18.6,0-25.9,0
	c-47.2,0.2-42.8-9.3-42.8-9.3s21.6-84.6,3.9-112.1c-17.7-27.4-33.4-9.1-35.3-4.8c-3.9,12.6-1.9,25.5-4.9,38.5
	c-5.6,24.5-19.3,47.6-34.2,66.9v224.8c40.6,10.1,93.4,16.3,111.8,15.1c31.4-2.1,39.3-9.1,43.2-25.3c3.9-16.3-15.7-29.6-15.7-29.6
	s31.4,6.3,37.3-21.2c5.8-27.5-29.5-31.8-29.5-31.8C530,313.1,535.8,302.4,535.8,281.3z"/>
<path class="st5" d="M281.3,425.7H176l-5.3-206.3h110.5c4,0,7.2,3.2,7.2,7.2v191.9C288.5,422.5,285.3,425.7,281.3,425.7z"/>
<path class="st6" d="M241.9,425.7h-65.8c-18.1-35.1-29.4-72.3-39.3-108.4c-9-32.7-14.6-61.4-17.7-97.9c41,0,81.9,0,122.9,0
	c4,0,7.2,3.2,7.2,7.2v191.9C249.1,422.5,245.8,425.7,241.9,425.7z"/>
<g>
	<ellipse class="st0" cx="216.1" cy="301" rx="16.3" ry="16.3"/>
	<ellipse class="st0" cx="215" cy="252.5" rx="16.3" ry="16.3"/>
</g>
<g>
	<g>
		<path class="st4" d="M511,208.1c3.8,2.2,7,5.4,9.6,9c2.5,3.7,4.6,8,4.8,13.1c0,2.5-0.5,5-1.3,7.2c-0.9,2.2-2,4.2-3.3,6.1
			c-2.7,3.6-5.9,6.7-9.8,8.8c1.9-4,3.7-7.7,5.2-11.4c0.7-1.8,1.4-3.7,1.8-5.4c0.1-0.4,0.2-0.9,0.3-1.3s0.1-0.9,0.2-1.3l0.1-0.6v-0.6
			c0-0.4,0.1-0.8,0-1.3c-0.1-3.3-1.2-7-2.7-10.7C514.5,215.9,512.7,212.1,511,208.1z"/>
	</g>
	<g>
		<path class="st4" d="M521.9,262.6c2.3,0.7,4.3,1.9,6.2,3.5c1.9,1.5,3.4,3.4,4.8,5.5c1.3,2.1,2.3,4.4,2.9,6.9
			c0.3,1.2,0.5,2.5,0.6,3.7c0.1,0.6,0.1,1.2,0.1,1.9c0,0.6,0,1.2,0,1.8l-0.1,1.7c0,0.6-0.1,1.2-0.1,1.8c-0.2,1.2-0.3,2.5-0.7,3.7
			c-0.6,2.4-1.5,4.7-2.8,6.9c-1.3,2.1-2.9,4-4.7,5.6c-1.8,1.5-3.9,2.9-6.2,3.5c2.8-3.7,4.7-7.5,6-11.4c0.6-1.9,1.1-3.9,1.3-5.8
			c0.1-1,0.2-2,0.3-3c0-0.5,0.1-1,0.1-1.5s0-1.1,0-1.6c0.1-1.1,0.1-2,0-3c0-1-0.1-2-0.2-2.9c-0.3-1.9-0.7-3.9-1.3-5.8
			C526.7,270,524.7,266.3,521.9,262.6z"/>
	</g>
	<g>
		<path class="st4" d="M515.8,320.1c3.7,2.5,6.6,5.9,9,9.7c1.2,1.9,2.1,4,2.8,6.2s1.1,4.7,1,7.2c-0.1,1.3-0.3,2.6-0.6,3.8
			c-0.4,1.2-0.8,2.4-1.3,3.4c-1.1,2.1-2.5,4-4,5.7c-3.1,3.3-6.8,5.9-11,7.4c2.4-3.7,4.8-7.1,6.7-10.5s3.4-6.9,3.5-10.1
			c0.2-3.3-0.8-7.1-2-10.9C518.8,328.1,517.3,324.3,515.8,320.1z"/>
	</g>
	<g>
		<path class="st4" d="M498.5,375.2c1.8,0.9,3.2,2.4,4.5,3.9s2.3,3.3,3.1,5.1c0.8,1.9,1.3,3.8,1.6,5.9c0.2,1,0.2,2,0.2,3.1
			s-0.1,2.3-0.3,3.3c-0.9,4.3-3.2,7.9-5.8,10.8c-1.3,1.5-2.8,2.7-4.3,3.9c-1.6,1.1-3.2,2.1-5,2.9c1.9-3.3,3.8-6.4,5.4-9.5
			s2.8-6.2,3.3-9.1c0.1-0.7,0.2-1.4,0.2-2.1c0-0.8,0-1.6-0.1-2.4c-0.1-1.6-0.3-3.3-0.5-4.9C500.2,382.5,499.4,379.1,498.5,375.2z"/>
	</g>
</g>
<path class="st4" d="M136.3,267c0-118.4,95.3-214.4,213.4-215.7V11C209.6,12.3,96,126.5,96,267s113.6,254.7,253.7,256v-40.3
	C231.6,481.4,136.3,385.3,136.3,267z"/>
<rect x="-510" y="11" class="st7" width="128" height="128"/>
<rect x="-382" y="11" class="st8" width="128" height="128"/>
<rect x="-254" y="11" class="st9" width="128" height="128"/>
<rect x="-126" y="11" class="st10" width="128" height="128"/>
<rect x="-510" y="139" class="st6" width="128" height="128"/>
<rect x="-382" y="139" class="st4" width="128" height="128"/>
<rect x="-254" y="139" class="st0" width="128" height="128"/>
<rect x="-510" y="267" class="st11" width="128" height="128"/>
<rect x="-382" y="267" class="st12" width="128" height="128"/>
<rect x="-254" y="267" class="st5" width="128" height="128"/>
<rect x="-126" y="267" class="st13" width="128" height="128"/>
<rect x="-510" y="395" class="st14" width="128" height="128"/>
</svg>
