<?xml version="1.0" encoding="utf-8"?>
<!-- Generator: Adobe Illustrator 19.0.0, SVG Export Plug-In . SVG Version: 6.00 Build 0)  -->
<svg version="1.1" id="Layer_1" xmlns="http://www.w3.org/2000/svg" xmlns:xlink="http://www.w3.org/1999/xlink" x="0px" y="0px"
	 viewBox="96 11 512 512" style="enable-background:new 96 11 512 512;" xml:space="preserve">
<style type="text/css">
	.st0{fill:#FD6A33;}
	.st1{fill:#F0353D;}
	.st2{fill:#FFBA7E;}
	.st3{fill:#FF8C29;}
	.st4{fill:#CDD4D5;}
	.st5{fill:#0295AA;}
	.st6{fill:#365558;}
	.st7{fill:#9BAAAB;}
	.st8{fill:#FFFFFF;}
	.st9{fill:#4ACFD9;}
	.st10{fill:#FFD1A9;}
	.st11{fill:#E6EAEA;}
	.st12{fill:#BCD643;}
</style>
<rect x="96" y="11" class="st0" width="512" height="512"/>
<rect x="96" y="11" class="st1" width="256" height="512"/>
<rect x="96" y="11" class="st2" width="512" height="122.1"/>
<rect x="96" y="11" class="st3" width="256" height="122.1"/>
<path class="st4" d="M196.2,358.4c-33.2,0-60.2,27-60.2,60.2s27,60.2,60.2,60.2c33.2,0,60.2-27,60.2-60.2S229.2,358.4,196.2,358.4z"
	/>
<path class="st5" d="M352,60.2c-115.3,0-209.2,93.9-209.2,209.2S236.7,478.6,352,478.6s209.2-93.9,209.2-209.2S467.3,60.2,352,60.2z
	"/>
<path class="st6" d="M142.8,269.4c0,115.3,93.9,209.2,209.2,209.2V60.2C236.7,60.2,142.8,154.1,142.8,269.4z"/>
<path class="st7" d="M352,128c-78.1,0-141.4,63.5-141.4,141.4S274.1,410.8,352,410.8s141.4-63.5,141.4-141.4S430.1,128,352,128z"/>
<path class="st6" d="M210.6,269.4c0,78.1,63.5,141.4,141.4,141.4V128C273.9,128,210.6,191.5,210.6,269.4z"/>
<path class="st8" d="M398.8,314.9c-12.3,12.8-29.1,19.9-46.8,19.9c-7,0-12.6,5.7-12.6,12.6c0,7,5.7,12.6,12.6,12.6
	c24.6,0,47.9-9.8,65.1-27.5c4.9-5.1,4.7-13.1-0.3-18C411.7,309.7,403.7,309.9,398.8,314.9z"/>
<path class="st8" d="M351.8,178.7c-7,0-12.6,5.7-12.6,12.6c0,7,5.7,12.6,12.6,12.6c36,0,65.3,29.2,65.3,65.3
	c0,5.8-0.8,11.5-2.2,17.1c-1.7,6.8,2.2,13.7,9,15.6c1.1,0.3,2.2,0.5,3.3,0.5c5.7,0,10.7-3.6,12.2-9.3c2.1-7.7,3.2-15.6,3.2-23.7
	C442.5,219.4,401.8,178.7,351.8,178.7z"/>
<circle class="st9" cx="352" cy="267" r="159"/>
<path class="st5" d="M193,267c0,87.8,71.2,159,159,159V108C264.2,108,193,179.2,193,267z"/>
<path class="st4" d="M352,426c56.2,0,105.6-29.2,133.9-73.2l-26.1-25.1c-2.4-2.3-6.1-2.3-8.6,0l-77.7,73L271.6,259
	c-1.2-1.6-3-2.6-5-2.6c0,0,0,0,0,0c-2,0-3.9,1-5,2.6l-53.3,75.7C233.6,388.7,288.4,426,352,426z"/>
<path class="st10" d="M412.4,213.3c-29,0-52.6,23.6-52.6,52.6c0,29,23.6,52.6,52.6,52.6c29,0,52.6-23.6,52.6-52.6
	S441.4,213.3,412.4,213.3z"/>
<path class="st8" d="M296.6,190.1c-8,0-15.1,3.6-19.9,9.2c-4.8-5.6-11.9-9.2-19.9-9.2c-14.4,0-26.1,11.7-26.1,26.1
	c0,3.4,2.8,6.2,6.2,6.2c3.4,0,6.2-2.8,6.2-6.2c0-7.5,6.1-13.7,13.7-13.7c7.5,0,13.7,6.1,13.7,13.7c0,3.4,2.8,6.2,6.2,6.2
	c3.4,0,6.2-2.8,6.2-6.2c0-7.5,6.1-13.7,13.7-13.7c7.5,0,13.7,6.1,13.7,13.7c0,3.4,2.8,6.2,6.2,6.2s6.2-2.8,6.2-6.2
	C322.7,201.8,310.9,190.1,296.6,190.1z"/>
<path class="st7" d="M271.6,259c-1.2-1.6-3-2.6-5-2.6c0,0,0,0,0,0c-2,0-3.9,1-5,2.6l-53.3,75.7C233.6,388.7,288.4,426,352,426v-55.2
	L271.6,259z"/>
<path class="st0" d="M338.3,425.4c4.5,0.4,9.1,0.6,13.7,0.6v-0.6H338.3z"/>
<path class="st4" d="M266.6,256.4C266.5,256.4,266.5,256.4,266.6,256.4c-2,0-3.9,1-5.1,2.6l-37.5,53.3h86L271.6,259
	C270.4,257.4,268.6,256.4,266.6,256.4z"/>
<path class="st11" d="M459.7,327.7c-2.4-2.3-6.1-2.3-8.6,0L404.1,372h67.4c5.3-6,10.1-12.4,14.5-19.2L459.7,327.7z"/>
<rect x="796" y="55.1" class="st1" width="128" height="128"/>
<rect x="924" y="55.1" class="st0" width="128" height="128"/>
<rect x="1052" y="55.1" class="st3" width="128" height="128"/>
<rect x="1180" y="55.1" class="st10" width="128" height="128"/>
<rect x="796" y="183.1" class="st6" width="128" height="128"/>
<rect x="924" y="183.1" class="st5" width="128" height="128"/>
<rect x="1052" y="183.1" class="st9" width="128" height="128"/>
<rect x="796" y="311.1" class="st7" width="128" height="128"/>
<rect x="924" y="311.1" class="st4" width="128" height="128"/>
<rect x="1052" y="311.1" class="st11" width="128" height="128"/>
<rect x="1180" y="311.1" class="st8" width="128" height="128"/>
<rect x="796" y="439.1" class="st12" width="128" height="128"/>
</svg>
