<svg width="512" height="512" viewBox="0 0 512 512" fill="none" xmlns="http://www.w3.org/2000/svg">
<path d="M50.1719 89H41.4531V31.2031L23.9688 37.625V29.75L48.8125 20.4219H50.1719V89ZM147.948 59.8906C147.948 70.0469 146.213 77.5938 142.744 82.5312C139.276 87.4688 133.854 89.9375 126.479 89.9375C119.198 89.9375 113.807 87.5312 110.307 82.7188C106.807 77.875 104.994 70.6562 104.869 61.0625V49.4844C104.869 39.4531 106.604 32 110.073 27.125C113.541 22.25 118.979 19.8125 126.385 19.8125C133.729 19.8125 139.135 22.1719 142.604 26.8906C146.073 31.5781 147.854 38.8281 147.948 48.6406V59.8906ZM139.276 48.0312C139.276 40.6875 138.244 35.3438 136.182 32C134.119 28.625 130.854 26.9375 126.385 26.9375C121.948 26.9375 118.713 28.6094 116.682 31.9531C114.651 35.2969 113.604 40.4375 113.541 47.375V61.25C113.541 68.625 114.604 74.0781 116.729 77.6094C118.885 81.1094 122.135 82.8594 126.479 82.8594C130.76 82.8594 133.932 81.2031 135.994 77.8906C138.088 74.5781 139.182 69.3594 139.276 62.2344V48.0312ZM217.129 89H208.411V31.2031L190.926 37.625V29.75L215.77 20.4219H217.129V89ZM314.905 59.8906C314.905 70.0469 313.171 77.5938 309.702 82.5312C306.233 87.4688 300.811 89.9375 293.436 89.9375C286.155 89.9375 280.764 87.5312 277.264 82.7188C273.764 77.875 271.952 70.6562 271.827 61.0625V49.4844C271.827 39.4531 273.561 32 277.03 27.125C280.499 22.25 285.936 19.8125 293.342 19.8125C300.686 19.8125 306.092 22.1719 309.561 26.8906C313.03 31.5781 314.811 38.8281 314.905 48.6406V59.8906ZM306.233 48.0312C306.233 40.6875 305.202 35.3438 303.139 32C301.077 28.625 297.811 26.9375 293.342 26.9375C288.905 26.9375 285.671 28.6094 283.639 31.9531C281.608 35.2969 280.561 40.4375 280.499 47.375V61.25C280.499 68.625 281.561 74.0781 283.686 77.6094C285.842 81.1094 289.092 82.8594 293.436 82.8594C297.717 82.8594 300.889 81.2031 302.952 77.8906C305.046 74.5781 306.139 69.3594 306.233 62.2344V48.0312ZM384.087 89H375.368V31.2031L357.884 37.625V29.75L382.728 20.4219H384.087V89ZM481.862 59.8906C481.862 70.0469 480.128 77.5938 476.659 82.5312C473.191 87.4688 467.769 89.9375 460.394 89.9375C453.112 89.9375 447.722 87.5312 444.222 82.7188C440.722 77.875 438.909 70.6562 438.784 61.0625V49.4844C438.784 39.4531 440.519 32 443.987 27.125C447.456 22.25 452.894 19.8125 460.3 19.8125C467.644 19.8125 473.05 22.1719 476.519 26.8906C479.987 31.5781 481.769 38.8281 481.862 48.6406V59.8906ZM473.191 48.0312C473.191 40.6875 472.159 35.3438 470.097 32C468.034 28.625 464.769 26.9375 460.3 26.9375C455.862 26.9375 452.628 28.6094 450.597 31.9531C448.566 35.2969 447.519 40.4375 447.456 47.375V61.25C447.456 68.625 448.519 74.0781 450.644 77.6094C452.8 81.1094 456.05 82.8594 460.394 82.8594C464.675 82.8594 467.847 81.2031 469.909 77.8906C472.003 74.5781 473.097 69.3594 473.191 62.2344V48.0312Z" fill="#F0353D"/>
<path d="M50.1719 351H41.4531V293.203L23.9688 299.625V291.75L48.8125 282.422H50.1719V351ZM133.651 351H124.932V293.203L107.448 299.625V291.75L132.291 282.422H133.651V351ZM217.129 351H208.411V293.203L190.926 299.625V291.75L215.77 282.422H217.129V351ZM314.905 321.891C314.905 332.047 313.171 339.594 309.702 344.531C306.233 349.469 300.811 351.938 293.436 351.938C286.155 351.938 280.764 349.531 277.264 344.719C273.764 339.875 271.952 332.656 271.827 323.062V311.484C271.827 301.453 273.561 294 277.03 289.125C280.499 284.25 285.936 281.812 293.342 281.812C300.686 281.812 306.092 284.172 309.561 288.891C313.03 293.578 314.811 300.828 314.905 310.641V321.891ZM306.233 310.031C306.233 302.688 305.202 297.344 303.139 294C301.077 290.625 297.811 288.938 293.342 288.938C288.905 288.938 285.671 290.609 283.639 293.953C281.608 297.297 280.561 302.438 280.499 309.375V323.25C280.499 330.625 281.561 336.078 283.686 339.609C285.842 343.109 289.092 344.859 293.436 344.859C297.717 344.859 300.889 343.203 302.952 339.891C305.046 336.578 306.139 331.359 306.233 324.234V310.031ZM384.087 351H375.368V293.203L357.884 299.625V291.75L382.728 282.422H384.087V351ZM481.862 321.891C481.862 332.047 480.128 339.594 476.659 344.531C473.191 349.469 467.769 351.938 460.394 351.938C453.112 351.938 447.722 349.531 444.222 344.719C440.722 339.875 438.909 332.656 438.784 323.062V311.484C438.784 301.453 440.519 294 443.987 289.125C447.456 284.25 452.894 281.812 460.3 281.812C467.644 281.812 473.05 284.172 476.519 288.891C479.987 293.578 481.769 300.828 481.862 310.641V321.891ZM473.191 310.031C473.191 302.688 472.159 297.344 470.097 294C468.034 290.625 464.769 288.938 460.3 288.938C455.862 288.938 452.628 290.609 450.597 293.953C448.566 297.297 447.519 302.438 447.456 309.375V323.25C447.456 330.625 448.519 336.078 450.644 339.609C452.8 343.109 456.05 344.859 460.394 344.859C464.675 344.859 467.847 343.203 469.909 339.891C472.003 336.578 473.097 331.359 473.191 324.234V310.031Z" fill="#F0353D"/>
<path d="M64.4688 199.891C64.4688 210.047 62.7344 217.594 59.2656 222.531C55.7969 227.469 50.375 229.938 43 229.938C35.7188 229.938 30.3281 227.531 26.8281 222.719C23.3281 217.875 21.5156 210.656 21.3906 201.062V189.484C21.3906 179.453 23.125 172 26.5938 167.125C30.0625 162.25 35.5 159.812 42.9062 159.812C50.25 159.812 55.6562 162.172 59.125 166.891C62.5938 171.578 64.375 178.828 64.4688 188.641V199.891ZM55.7969 188.031C55.7969 180.688 54.7656 175.344 52.7031 172C50.6406 168.625 47.375 166.938 42.9062 166.938C38.4688 166.938 35.2344 168.609 33.2031 171.953C31.1719 175.297 30.125 180.438 30.0625 187.375V201.25C30.0625 208.625 31.125 214.078 33.25 217.609C35.4062 221.109 38.6562 222.859 43 222.859C47.2812 222.859 50.4531 221.203 52.5156 217.891C54.6094 214.578 55.7031 209.359 55.7969 202.234V188.031ZM133.651 229H124.932V171.203L107.448 177.625V169.75L132.291 160.422H133.651V229ZM217.129 229H208.411V171.203L190.926 177.625V169.75L215.77 160.422H217.129V229ZM314.905 199.891C314.905 210.047 313.171 217.594 309.702 222.531C306.233 227.469 300.811 229.938 293.436 229.938C286.155 229.938 280.764 227.531 277.264 222.719C273.764 217.875 271.952 210.656 271.827 201.062V189.484C271.827 179.453 273.561 172 277.03 167.125C280.499 162.25 285.936 159.812 293.342 159.812C300.686 159.812 306.092 162.172 309.561 166.891C313.03 171.578 314.811 178.828 314.905 188.641V199.891ZM306.233 188.031C306.233 180.688 305.202 175.344 303.139 172C301.077 168.625 297.811 166.938 293.342 166.938C288.905 166.938 285.671 168.609 283.639 171.953C281.608 175.297 280.561 180.438 280.499 187.375V201.25C280.499 208.625 281.561 214.078 283.686 217.609C285.842 221.109 289.092 222.859 293.436 222.859C297.717 222.859 300.889 221.203 302.952 217.891C305.046 214.578 306.139 209.359 306.233 202.234V188.031ZM384.087 229H375.368V171.203L357.884 177.625V169.75L382.728 160.422H384.087V229ZM467.566 229H458.847V171.203L441.362 177.625V169.75L466.206 160.422H467.566V229Z" fill="#0295AA"/>
<path d="M64.4688 459.891C64.4688 470.047 62.7344 477.594 59.2656 482.531C55.7969 487.469 50.375 489.938 43 489.938C35.7188 489.938 30.3281 487.531 26.8281 482.719C23.3281 477.875 21.5156 470.656 21.3906 461.062V449.484C21.3906 439.453 23.125 432 26.5938 427.125C30.0625 422.25 35.5 419.812 42.9062 419.812C50.25 419.812 55.6562 422.172 59.125 426.891C62.5938 431.578 64.375 438.828 64.4688 448.641V459.891ZM55.7969 448.031C55.7969 440.688 54.7656 435.344 52.7031 432C50.6406 428.625 47.375 426.938 42.9062 426.938C38.4688 426.938 35.2344 428.609 33.2031 431.953C31.1719 435.297 30.125 440.438 30.0625 447.375V461.25C30.0625 468.625 31.125 474.078 33.25 477.609C35.4062 481.109 38.6562 482.859 43 482.859C47.2812 482.859 50.4531 481.203 52.5156 477.891C54.6094 474.578 55.7031 469.359 55.7969 462.234V448.031ZM147.948 459.891C147.948 470.047 146.213 477.594 142.744 482.531C139.276 487.469 133.854 489.938 126.479 489.938C119.198 489.938 113.807 487.531 110.307 482.719C106.807 477.875 104.994 470.656 104.869 461.062V449.484C104.869 439.453 106.604 432 110.073 427.125C113.541 422.25 118.979 419.812 126.385 419.812C133.729 419.812 139.135 422.172 142.604 426.891C146.073 431.578 147.854 438.828 147.948 448.641V459.891ZM139.276 448.031C139.276 440.688 138.244 435.344 136.182 432C134.119 428.625 130.854 426.938 126.385 426.938C121.948 426.938 118.713 428.609 116.682 431.953C114.651 435.297 113.604 440.438 113.541 447.375V461.25C113.541 468.625 114.604 474.078 116.729 477.609C118.885 481.109 122.135 482.859 126.479 482.859C130.76 482.859 133.932 481.203 135.994 477.891C138.088 474.578 139.182 469.359 139.276 462.234V448.031ZM217.129 489H208.411V431.203L190.926 437.625V429.75L215.77 420.422H217.129V489ZM314.905 459.891C314.905 470.047 313.171 477.594 309.702 482.531C306.233 487.469 300.811 489.938 293.436 489.938C286.155 489.938 280.764 487.531 277.264 482.719C273.764 477.875 271.952 470.656 271.827 461.062V449.484C271.827 439.453 273.561 432 277.03 427.125C280.499 422.25 285.936 419.812 293.342 419.812C300.686 419.812 306.092 422.172 309.561 426.891C313.03 431.578 314.811 438.828 314.905 448.641V459.891ZM306.233 448.031C306.233 440.688 305.202 435.344 303.139 432C301.077 428.625 297.811 426.938 293.342 426.938C288.905 426.938 285.671 428.609 283.639 431.953C281.608 435.297 280.561 440.438 280.499 447.375V461.25C280.499 468.625 281.561 474.078 283.686 477.609C285.842 481.109 289.092 482.859 293.436 482.859C297.717 482.859 300.889 481.203 302.952 477.891C305.046 474.578 306.139 469.359 306.233 462.234V448.031ZM384.087 489H375.368V431.203L357.884 437.625V429.75L382.728 420.422H384.087V489ZM467.566 489H458.847V431.203L441.362 437.625V429.75L466.206 420.422H467.566V489Z" fill="#0295AA"/>
<circle cx="255.5" cy="251.5" r="197.5" fill="#4ACFD9"/>
<path fill-rule="evenodd" clip-rule="evenodd" d="M256.127 54.001C255.918 54.0003 255.709 54 255.5 54C146.424 54 58 142.424 58 251.5C58 360.576 146.424 449 255.5 449C255.709 449 255.918 449 256.127 448.999V54.001Z" fill="#0295AA"/>
<circle cx="255.5" cy="251.5" r="171.5" fill="#E6EAEA"/>
<path fill-rule="evenodd" clip-rule="evenodd" d="M256.127 80.3344C255.918 80.3336 255.709 80.3333 255.5 80.3333C160.967 80.3333 84.3335 156.967 84.3335 251.5C84.3335 346.033 160.967 422.667 255.5 422.667C255.709 422.667 255.918 422.666 256.127 422.665V80.3344Z" fill="#CDD4D5"/>
<path d="M114 238C119.069 164.81 180.483 107 255.5 107C330.517 107 391.931 164.81 397 238H373.031C368.016 177.927 317.311 130.724 255.5 130.724C193.689 130.724 142.984 177.927 137.969 238H114Z" fill="#F0353D"/>
<path fill-rule="evenodd" clip-rule="evenodd" d="M256.127 130.512C317.466 130.833 367.692 178.158 372.675 238.332H396.571C391.532 164.976 330.631 106.99 256.127 106.667V130.512Z" fill="#4ACFD9"/>
<path d="M281.411 263.96C272.348 277.521 254.032 281.183 240.501 272.139C226.97 263.096 223.348 244.772 232.411 231.211C241.474 217.651 259.79 213.989 273.321 223.032C286.852 232.075 290.474 250.4 281.411 263.96Z" fill="#FF8C29"/>
<path d="M335.608 130.582L274.291 240.44L257.556 229.256L335.608 130.582Z" fill="#FF8C29"/>
<path fill-rule="evenodd" clip-rule="evenodd" d="M336.547 129.699L265.843 219.051C253.645 215.381 239.983 219.881 232.536 231.023C223.403 244.687 227.077 263.168 240.742 272.301C240.857 272.378 240.973 272.454 241.089 272.529L336.547 129.699Z" fill="#FD6A33"/>
</svg>
