<?xml version="1.0" encoding="utf-8"?>
<!-- Generator: Adobe Illustrator 19.0.0, SVG Export Plug-In . SVG Version: 6.00 Build 0)  -->
<svg version="1.1" id="Layer_1" xmlns="http://www.w3.org/2000/svg" xmlns:xlink="http://www.w3.org/1999/xlink" x="0px" y="0px"
	 viewBox="96 11 512 512" style="enable-background:new 96 11 512 512;" xml:space="preserve">
<style type="text/css">
	.st0{fill:#687F82;}
	.st1{fill:#FFFFFF;}
	.st2{fill:#4ACFD9;}
	.st3{fill:#0295AA;}
	.st4{fill:#FFD1A9;}
	.st5{fill:#FF8C29;}
	.st6{fill:#F0353D;}
</style>
<path class="st0" d="M482.7,53.7C455,26.1,418.3,11,379.3,11c-0.3,0-0.6,0-0.9,0C298,11.5,232.6,77.9,232.6,159.2v36.3
	c0,4.4,3.5,7.9,7.9,7.9h42.1c4.4,0,7.9-3.5,7.9-7.9v-36.6c0-49.2,39.5-89.6,88-90.1c23.9-0.2,46.4,8.9,63.4,25.7
	s26.4,39.2,26.4,63.1v75.2c0,15.7,12.5,28.9,27.9,29.4c0.4,0,0.7,0,1.1,0c7.5,0,14.6-2.9,20.1-8.1c5.7-5.5,8.8-12.9,8.8-20.8v-75.7
	C526,118.4,510.6,81.5,482.7,53.7z"/>
<g>
	<path class="st1" d="M505,199.2c-4.4,0-7.9-3.5-7.9-7.9v-33.6c0-18-3.9-35.2-11.7-51.2c-1.9-3.9-0.3-8.6,3.6-10.5
		c3.9-1.9,8.6-0.3,10.5,3.7c8.8,18.2,13.3,37.7,13.3,58.1v33.6C512.9,195.7,509.3,199.2,505,199.2z"/>
	<path class="st1" d="M467.9,76.5c-2,0-4-0.8-5.6-2.3C454,66,444.7,59,434.5,53.6c-16.8-9-35.9-13.7-55.2-13.7
		c-4.4,0-7.9-3.5-7.9-7.9s3.5-7.9,7.9-7.9c21.8,0,43.5,5.4,62.6,15.6c11.5,6.1,22.1,14,31.5,23.3c3.1,3.1,3.1,8.1,0,11.2
		C471.9,75.7,469.9,76.5,467.9,76.5z"/>
</g>
<path class="st2" d="M528.6,225.5H230c-21.7,0-39.4,17.7-39.4,39.4v250.2c0,4.4,3.5,7.9,7.9,7.9h361.7c4.4,0,7.9-3.5,7.9-7.9V264.9
	C568,243.2,550.4,225.5,528.6,225.5z"/>
<path class="st3" d="M230,225.5c-21.7,0-39.4,17.7-39.4,39.4v250.2c0,4.4,3.5,7.9,7.9,7.9h180.8V225.5H230z"/>
<path class="st4" d="M393.6,361.3c23-6.3,39.9-27.3,39.9-52.2c0-29.9-24.3-54.1-54.1-54.1s-54.1,24.3-54.1,54.1
	c0,24.9,16.9,46,39.9,52.2c-39.3,6.8-69.3,41.1-69.3,82.3v42.1c0,4.4,3.5,7.9,7.9,7.9H455c4.4,0,7.9-3.5,7.9-7.9v-42.1
	C462.9,402.4,432.9,368.1,393.6,361.3z"/>
<path class="st5" d="M325.2,309.1c0,24.9,16.9,46,39.9,52.2c-39.3,6.8-69.3,41.1-69.3,82.3v42.1c0,4.4,3.5,7.9,7.9,7.9h75.7V254.9
	C349.5,254.9,325.2,279.2,325.2,309.1z"/>
<g>
	<path class="st6" d="M176.5,202.1h-32.7c-4.4,0-7.9-3.5-7.9-7.9c0-4.4,3.5-7.9,7.9-7.9h32.7c4.4,0,7.9,3.5,7.9,7.9
		C184.4,198.6,180.9,202.1,176.5,202.1z"/>
	<path class="st6" d="M185.7,175.3c-2,0-4-0.8-5.6-2.3l-20.8-20.8c-3.1-3.1-3.1-8.1,0-11.2s8.1-3.1,11.1,0l20.8,20.8
		c3.1,3.1,3.1,8.1,0,11.2C189.7,174.5,187.7,175.3,185.7,175.3z"/>
	<path class="st6" d="M164.7,249.7c-2,0-4-0.8-5.6-2.3c-3.1-3.1-3.1-8.1,0-11.1l20.8-20.8c3.1-3.1,8.1-3.1,11.2,0
		c3.1,3.1,3.1,8.1,0,11.1l-20.8,20.8C168.7,248.9,166.7,249.7,164.7,249.7z"/>
</g>
</svg>
