<?xml version="1.0" encoding="iso-8859-1"?>
<!-- Generator: Adobe Illustrator 19.0.0, SVG Export Plug-In . SVG Version: 6.00 Build 0)  -->
<svg version="1.1" id="Layer_1" xmlns="http://www.w3.org/2000/svg" xmlns:xlink="http://www.w3.org/1999/xlink" x="0px" y="0px"
	 viewBox="0 0 512 512" style="enable-background:new 0 0 512 512;" xml:space="preserve">
<path style="fill:#FFD1A9;" d="M509.968,300.618c-1.159-1.316-28.9-32.616-74.026-64.333
	C394.058,206.846,328.84,171.754,256,171.754s-138.058,35.092-179.942,64.532c-45.126,31.717-72.866,63.016-74.026,64.333
	c-2.709,3.08-2.709,7.693,0,10.773c1.159,1.316,28.9,32.616,74.026,64.333C117.942,405.163,183.16,440.255,256,440.255
	s138.058-35.092,179.942-64.532c45.126-31.717,72.866-63.016,74.026-64.333C512.677,308.311,512.677,303.698,509.968,300.618z"/>
<path style="fill:#4ACFD9;" d="M256,184.798c-66.833,0-121.206,54.373-121.206,121.206S189.167,427.21,256,427.21
	s121.206-54.373,121.206-121.206S322.833,184.798,256,184.798z"/>
<path style="fill:#FD6A33;" d="M300.061,267.824c-8.087-4.325-22.145-6.421-44.061,6.784c-21.915-13.203-35.975-11.11-44.061-6.784
	c-10.492,5.616-16.27,17.631-16.27,33.832c0,30.319,49.836,67.646,55.518,71.804c1.433,1.048,3.123,1.572,4.813,1.572
	c1.69,0,3.38-0.524,4.813-1.572c5.682-4.158,55.518-41.485,55.518-71.804C316.331,285.455,310.554,273.44,300.061,267.824z"/>
<path style="fill:#FF8C29;" d="M76.058,236.285c-45.126,31.717-72.866,63.016-74.026,64.333c-2.709,3.08-2.709,7.693,0,10.773
	c1.159,1.316,28.9,32.616,74.026,64.333c41.675,29.293,106.456,64.168,178.855,64.515V171.77
	C182.513,172.118,117.733,206.993,76.058,236.285z"/>
<path style="fill:#0295AA;" d="M134.794,306.004c0,66.47,53.785,120.605,120.119,121.192V184.812
	C188.579,185.399,134.794,239.534,134.794,306.004z"/>
<path style="fill:#F0353D;" d="M211.939,267.824c-10.492,5.616-16.27,17.631-16.27,33.832c0,30.319,49.836,67.646,55.518,71.804
	c1.125,0.823,2.409,1.311,3.726,1.487V273.97C233.622,261.486,219.89,263.571,211.939,267.824z"/>
<g>
	<path style="fill:#FFFFFF;" d="M336.442,314.157c-4.504,0-8.153-3.649-8.153-8.153c0-9.46-1.807-18.661-5.37-27.347
		c-1.709-4.166,0.283-8.928,4.448-10.637c4.164-1.712,8.928,0.283,10.637,4.448c4.373,10.659,6.591,21.942,6.591,33.535
		C344.595,310.508,340.945,314.157,336.442,314.157z"/>
	<path style="fill:#FFFFFF;" d="M313.179,257.629c-2.102,0-4.203-0.808-5.798-2.422c-13.702-13.86-31.949-21.492-51.38-21.492
		c-4.504,0-8.153-3.649-8.153-8.153c0-4.504,3.649-8.153,8.153-8.153c23.822,0,46.187,9.353,62.977,26.336
		c3.165,3.201,3.136,8.363-0.066,11.529C317.322,256.845,315.25,257.629,313.179,257.629z"/>
</g>
<g>
	<path style="fill:#F0353D;" d="M256,144.577c-4.504,0-8.153-3.649-8.153-8.153V79.898c0-4.504,3.649-8.153,8.153-8.153
		c4.504,0,8.153,3.649,8.153,8.153v56.527C264.153,140.928,260.504,144.577,256,144.577z"/>
	<path style="fill:#F0353D;" d="M340.782,167.298c-1.383,0-2.785-0.352-4.069-1.094c-3.899-2.251-5.235-7.238-2.984-11.137
		l28.263-48.953c2.249-3.9,7.235-5.235,11.137-2.984c3.899,2.251,5.235,7.238,2.984,11.137L347.85,163.22
		C346.34,165.837,343.6,167.298,340.782,167.298z"/>
	<path style="fill:#F0353D;" d="M171.218,167.298c-2.818,0-5.558-1.462-7.068-4.078l-28.263-48.953
		c-2.251-3.899-0.915-8.886,2.984-11.137c3.898-2.25,8.887-0.916,11.137,2.984l28.263,48.953c2.251,3.899,0.915,8.886-2.984,11.137
		C174.003,166.946,172.601,167.298,171.218,167.298z"/>
</g>
<g>
</g>
<g>
</g>
<g>
</g>
<g>
</g>
<g>
</g>
<g>
</g>
<g>
</g>
<g>
</g>
<g>
</g>
<g>
</g>
<g>
</g>
<g>
</g>
<g>
</g>
<g>
</g>
<g>
</g>
</svg>
