<?xml version="1.0" encoding="utf-8"?>
<!-- Generator: Adobe Illustrator 19.0.0, SVG Export Plug-In . SVG Version: 6.00 Build 0)  -->
<svg version="1.1" id="Layer_1" xmlns="http://www.w3.org/2000/svg" xmlns:xlink="http://www.w3.org/1999/xlink" x="0px" y="0px"
	 viewBox="96 11 512 512" style="enable-background:new 96 11 512 512;" xml:space="preserve">
<style type="text/css">
	.st0{display:none;fill:#9BAAAB;}
	.st1{fill:#FFD1A9;}
	.st2{fill:#FF8C29;}
	.st3{fill:#4ACFD9;}
	.st4{fill:#FD6A33;}
	.st5{fill:#0295AA;}
	.st6{fill:#F0353D;}
	.st7{fill:#FFFFFF;}
	.st8{fill:#365558;}
</style>
<polygon class="st0" points="543.8,223.7 407.7,276.4 271.5,223.7 408,170.3 "/>
<polygon class="st0" points="681.3,85.3 817.8,138.7 681.7,191.4 545.5,138.7 "/>
<path class="st1" d="M96.1,171.1c0-7.9,6.5-14.3,14.3-14.3h81.3c7.9,0,14.3,6.5,14.3,14.3c0,0,0-0.8,0,9c0,9.9,3.5,17.6,17.6,17.6
	c14,0,343.4,0,343.4,0c7.9,0,14.3,6.5,14.3,14.3v296.5c0,7.9-6.5,14.3-14.3,14.3H110.3c-7.9,0-14.3-6.5-14.3-14.3L96.1,171.1"/>
<path class="st2" d="M606,239.9c-1.2-1.3-28.9-32.6-74-64.3C490.1,146.1,424.8,111,352,111s-138.1,35.1-179.9,64.5
	c-45.1,31.7-72.9,63-74,64.3c-2.7,3.1-2.7,7.7,0,10.8c1.2,1.3,28.9,32.6,74,64.3c41.9,29.4,107.1,64.5,179.9,64.5
	s138.1-35.1,179.9-64.5c45.1-31.7,72.9-63,74-64.3C608.7,247.6,608.7,243,606,239.9z"/>
<path class="st3" d="M352,124.1c-66.8,0-121.2,54.4-121.2,121.2S285.2,366.5,352,366.5s121.2-54.4,121.2-121.2
	S418.8,124.1,352,124.1z"/>
<path class="st4" d="M396.1,207.1c-8.1-4.3-22.1-6.4-44.1,6.8c-21.9-13.2-36-11.1-44.1-6.8c-10.5,5.6-16.3,17.6-16.3,33.8
	c0,30.3,49.8,67.6,55.5,71.8c1.4,1,3.1,1.6,4.8,1.6s3.4-0.5,4.8-1.6c5.7-4.2,55.5-41.5,55.5-71.8
	C412.3,224.7,406.6,212.7,396.1,207.1z"/>
<path class="st4" d="M172.1,175.5c-45.1,31.7-72.9,63-74,64.3c-2.7,3.1-2.7,7.7,0,10.8c1.2,1.3,28.9,32.6,74,64.3
	c41.7,29.3,106.5,64.2,178.9,64.5V111C278.5,111.4,213.7,146.2,172.1,175.5z"/>
<path class="st5" d="M230.8,245.3c0,66.5,53.8,120.6,120.1,121.2V124.1C284.6,124.7,230.8,178.8,230.8,245.3z"/>
<path class="st6" d="M307.9,207.1c-10.5,5.6-16.3,17.6-16.3,33.8c0,30.3,49.8,67.6,55.5,71.8c1.1,0.8,2.4,1.3,3.7,1.5v-101
	C329.6,200.7,315.9,202.8,307.9,207.1z"/>
<g>
	<path class="st7" d="M432.4,253.4c-4.5,0-8.2-3.6-8.2-8.2c0-9.5-1.8-18.7-5.4-27.3c-1.7-4.2,0.3-8.9,4.4-10.6
		c4.2-1.7,8.9,0.3,10.6,4.4c4.4,10.7,6.6,21.9,6.6,33.5C440.6,249.8,436.9,253.4,432.4,253.4z"/>
	<path class="st7" d="M409.2,196.9c-2.1,0-4.2-0.8-5.8-2.4C389.7,180.6,371.4,173,352,173c-4.5,0-8.2-3.6-8.2-8.2s3.6-8.2,8.2-8.2
		c23.8,0,46.2,9.4,63,26.3c3.2,3.2,3.1,8.4-0.1,11.5C413.3,196.1,411.3,196.9,409.2,196.9z"/>
</g>
<g>
	<path class="st6" d="M352,83.8c-4.5,0-8.2-3.6-8.2-8.2V19.2c0-4.5,3.6-8.2,8.2-8.2s8.2,3.6,8.2,8.2v56.5
		C360.2,80.2,356.5,83.8,352,83.8z"/>
	<path class="st6" d="M436.8,106.6c-1.4,0-2.8-0.4-4.1-1.1c-3.9-2.3-5.2-7.2-3-11.1l28.3-49c2.2-3.9,7.2-5.2,11.1-3
		c3.9,2.3,5.2,7.2,3,11.1l-28.3,49C442.3,105.1,439.6,106.6,436.8,106.6z"/>
	<path class="st6" d="M267.2,106.6c-2.8,0-5.6-1.5-7.1-4.1l-28.3-49c-2.3-3.9-0.9-8.9,3-11.1c3.9-2.3,8.9-0.9,11.1,3l28.3,49
		c2.3,3.9,0.9,8.9-3,11.1C270,106.2,268.6,106.6,267.2,106.6z"/>
</g>
<path class="st2" d="M564.8,523H108.1c-7.9,0-13.1-7.5-11.7-16.5l26.2-171c1.4-9.1,8.9-16.5,16.9-16.5H596c7.9,0,13.1,7.5,11.7,16.5
	l-26.2,171C580.4,515.5,572.7,523,564.8,523z"/>
<path class="st8" d="M123.3,502.7c-1.9,0-3.5-0.8-4.6-2.4s-1.5-3.8-1.2-6.2l1.3-8c1.8-6.2,5.6-11,8.2-11h435.6
	c1.9,0,3.5,0.8,4.6,2.4s1.5,3.8,1.2,6.2l-1.3,8c-0.8,5.8-4.6,11-9.4,11H123.3z"/>
</svg>
