<?xml version="1.0" encoding="utf-8"?>
<!-- Generator: Adobe Illustrator 19.0.0, SVG Export Plug-In . SVG Version: 6.00 Build 0)  -->
<svg version="1.1" id="Layer_1" xmlns="http://www.w3.org/2000/svg" xmlns:xlink="http://www.w3.org/1999/xlink" x="0px" y="0px"
	 viewBox="96 11 512 512" style="enable-background:new 96 11 512 512;" xml:space="preserve">
<style type="text/css">
	.st0{fill:#E6EAEA;}
	.st1{fill:#FD6A33;}
	.st2{fill:#FF8C29;}
	.st3{fill:#4ACFD9;}
	.st4{fill:#CDD4D5;}
	.st5{fill:#F0353D;}
	.st6{fill:#0295AA;}
	.st7{fill:#365558;}
	.st8{fill:#9BAAAB;}
	.st9{fill:#687F82;}
	.st10{fill:#FFFFFF;}
	.st11{fill:#FFD1A9;}
	.st12{fill:none;stroke:#BCD643;stroke-width:13;stroke-linecap:round;stroke-linejoin:round;stroke-miterlimit:10;}
</style>
<g>
	<path class="st0" d="M501.9,295.9H202.1c-2.7,0-4.8,2.2-4.8,4.8v217.4c0,2.7,2.2,4.8,4.8,4.8h299.8c2.7,0,4.8-2.2,4.8-4.8V300.8
		C506.7,298.1,504.6,295.9,501.9,295.9z"/>
	<path class="st1" d="M385.6,311.8H225.4c-2.7,0-4.8,2.2-4.8,4.8v38.8c0,2.7,2.2,4.8,4.8,4.8h160.2c2.7,0,4.8-2.2,4.8-4.8v-38.8
		C390.4,313.9,388.3,311.8,385.6,311.8z"/>
	<path class="st2" d="M429.5,376.4H225.4c-2.7,0-4.8,2.2-4.8,4.8V420c0,2.7,2.2,4.8,4.8,4.8h204.1c2.7,0,4.8-2.2,4.8-4.8v-38.8
		C434.4,378.5,432.2,376.4,429.5,376.4z"/>
	<path class="st3" d="M468.3,441H225.4c-2.7,0-4.8,2.2-4.8,4.8v38.8c0,2.7,2.2,4.8,4.8,4.8h242.9c2.7,0,4.8-2.2,4.8-4.8v-38.8
		C473.1,443.1,471,441,468.3,441z"/>
	<path class="st4" d="M202.1,295.9c-2.7,0-4.8,2.2-4.8,4.8v217.4c0,2.7,2.2,4.8,4.8,4.8H352V295.9H202.1z"/>
	<path class="st5" d="M225.4,311.8c-2.7,0-4.8,2.2-4.8,4.8v38.8c0,2.7,2.2,4.8,4.8,4.8H352v-48.5L225.4,311.8L225.4,311.8z"/>
	<path class="st1" d="M225.4,376.4c-2.7,0-4.8,2.2-4.8,4.8V420c0,2.7,2.2,4.8,4.8,4.8H352v-48.5L225.4,376.4L225.4,376.4z"/>
	<path class="st6" d="M225.4,441c-2.7,0-4.8,2.2-4.8,4.8v38.8c0,2.7,2.2,4.8,4.8,4.8H352V441L225.4,441L225.4,441z"/>
	<path class="st7" d="M352,523c-2.7,0-4.8-2.2-4.8-4.8V285.6c0-2.7,2.2-4.8,4.8-4.8c2.7,0,4.8,2.2,4.8,4.8v232.6
		C356.8,520.8,354.7,523,352,523z"/>
	<path class="st8" d="M383,213.6h-64.6c-2.7,0-4.8,2.2-4.8,4.8v45.7c0,1.7,0.8,3.2,2.2,4.1l33.6,21.5c0.8,0.5,1.7,0.8,2.6,0.8
		c1,0,1.9-0.3,2.8-0.9l31-21.5c1.3-0.9,2.1-2.4,2.1-4v-45.7C387.9,215.7,385.7,213.6,383,213.6z"/>
	<path class="st9" d="M318.4,213.6c-2.7,0-4.8,2.2-4.8,4.8v45.7c0,1.7,0.8,3.2,2.2,4.1l33.6,21.5c0.8,0.5,1.7,0.8,2.6,0.8v-76.9
		H318.4z"/>
	<path class="st10" d="M362.3,256.8c-2.7,0-4.8-2.2-4.8-4.8v-18.1c0-2.7,2.2-4.8,4.8-4.8c2.7,0,4.8,2.2,4.8,4.8V252
		C367.2,254.7,365,256.8,362.3,256.8z"/>
</g>
<g>
	<path class="st7" d="M336.1,16.7L102.6,80.5c-10.1,2.8-10.1,7.3,0,10.1l233.5,63.9c4.1,1.1,9.6,1.7,15.1,1.7V15
		C345.7,15,340.2,15.6,336.1,16.7z"/>
	<path class="st6" d="M599.4,90.6c10.1-2.8,10.1-7.3,0-10.1L365.9,16.7c-4.1-1.1-9.4-1.7-14.8-1.7v141.2c5.4,0,10.7-0.6,14.8-1.7
		L599.4,90.6z"/>
	<path class="st6" d="M241.5,197.7c0-22.1,48.9-40,109.3-40c0,0,0.1,0,0.1,0v-9.1v-41.4v-40c0,0-0.1,0-0.1,0
		c-60.4,0-109.3,17.9-109.3,40v41.4V197.7"/>
	<path class="st3" d="M460.4,197.7c0-22.1-48.9-40-109.3-40c0,0-0.1,0-0.1,0v-9.1v-41.4v-40c0,0,0.1,0,0.1,0
		c60.4,0,109.3,17.9,109.3,40v41.4V197.7"/>
	<path class="st11" d="M530,183.6c0,15.6,12.6,28.3,28.2,28.4v-56.9C542.6,155.3,530,168,530,183.6z"/>
	<path class="st2" d="M586.9,183.6c0-15.7-12.7-28.5-28.5-28.5c-0.1,0-0.1,0-0.2,0v56.9c0.1,0,0.1,0,0.2,0
		C574.2,212.1,586.9,199.3,586.9,183.6z"/>
	<line class="st12" x1="558.4" y1="155.2" x2="558.2" y2="63.1"/>
	<path class="st11" d="M555,212.1c-7.5,0-13.7,6.1-13.7,13.7L530,285.8c0,7.5,6.1,13.7,13.7,13.7h14.6v-87.4H555z"/>
	<path class="st2" d="M586.9,285.8l-11.4-60.1c0-7.5-6.1-13.7-13.7-13.7h-3.6v87.4h15C580.7,299.5,586.9,293.3,586.9,285.8z"/>
</g>
</svg>
