<?xml version="1.0" encoding="utf-8"?>
<!-- Generator: Adobe Illustrator 19.0.0, SVG Export Plug-In . SVG Version: 6.00 Build 0)  -->
<svg version="1.1" id="Layer_1" xmlns="http://www.w3.org/2000/svg" xmlns:xlink="http://www.w3.org/1999/xlink" x="0px" y="0px"
	 viewBox="96 11 512 512" style="enable-background:new 96 11 512 512;" xml:space="preserve">
<style type="text/css">
	.st0{display:none;fill:#9BAAAB;}
	.st1{display:none;}
	.st2{display:inline;}
	.st3{fill:#FF8C29;}
	.st4{fill:#687F82;}
	.st5{fill:#365558;}
	.st6{fill:#0295AA;}
	.st7{fill:#4ACFD9;}
	.st8{fill:#FFD1A9;}
	.st9{fill:none;stroke:#BCD643;stroke-width:13;stroke-linecap:round;stroke-linejoin:round;stroke-miterlimit:10;}
	.st10{fill:#E6EAEA;}
	.st11{fill:#FD6A33;}
	.st12{fill:#CDD4D5;}
	.st13{fill:#F0353D;}
	.st14{fill:#9BAAAB;}
	.st15{fill:#FFFFFF;}
</style>
<polygon class="st0" points="1056,-118.5 875,-48.5 694,-118.5 875.5,-189.5 "/>
<g id="Layer_3_1_" class="st1">
	<polygon class="st2" points="1687,-624.4 1175,-624.4 1175,-111.6 1288.9,-111.6 1288.9,-504.5 1479,-504.5 1479,-111.6 
		1687,-111.6 	"/>
	<rect x="1288.9" y="-504.5" class="st2" width="190.1" height="392.9"/>
</g>
<path id="SVGCleanerId_0_3_" class="st0" d="M1248.1-198h-71.9l78.3,85.8V-191C1254.5-194.9,1251.7-198,1248.1-198z"/>
<path class="st3" d="M597.6,502.8H106.3c-5.6,0-10.3-2.8-10.3-6.4v-11.5c0-3.5,4.6-6.4,10.3-6.4h491.4c5.6,0,10.3,2.8,10.3,6.4v11.5
	C607.9,499.9,603.3,502.8,597.6,502.8z"/>
<g>
	<path class="st4" d="M145.4,523h-21c-2.2,0-4-1.8-4-4v-12.4c0-2.2,1.8-4,4-4h21c2.2,0,4,1.8,4,4V519
		C149.3,521.2,147.6,523,145.4,523z"/>
	<path class="st4" d="M217.4,523h-20.9c-2.2,0-4-1.8-4-4v-12.4c0-2.2,1.8-4,4-4h20.9c2.2,0,4,1.8,4,4V519
		C221.3,521.2,219.5,523,217.4,523z"/>
	<path class="st4" d="M289.4,523h-20.9c-2.2,0-4-1.8-4-4v-12.4c0-2.2,1.8-4,4-4h20.9c2.2,0,4,1.8,4,4V519
		C293.3,521.2,291.6,523,289.4,523z"/>
	<path class="st4" d="M361.4,523h-21c-2.2,0-4-1.8-4-4v-12.4c0-2.2,1.8-4,4-4h21c2.2,0,4,1.8,4,4V519
		C365.3,521.2,363.6,523,361.4,523z"/>
</g>
<g>
	<path class="st5" d="M337.1,12.7L103.6,76.6c-10.1,2.8-10.1,7.3,0,10.1l233.5,63.9c4.1,1.1,9.6,1.7,15.1,1.7V11
		C346.7,11,341.2,11.6,337.1,12.7z"/>
	<path class="st6" d="M600.4,86.6c10.1-2.8,10.1-7.3,0-10.1L366.9,12.7c-4.1-1.1-9.4-1.7-14.8-1.7v141.2c5.4,0,10.7-0.6,14.8-1.7
		L600.4,86.6z"/>
	<path class="st6" d="M242.5,193.7c0-22.1,48.9-40,109.3-40h0.1v-9.1v-41.4v-40h-0.1c-60.4,0-109.3,17.9-109.3,40v41.4L242.5,193.7"
		/>
	<path class="st7" d="M461.4,193.7c0-22.1-48.9-40-109.3-40H352v-9.1v-41.4v-40h0.1c60.4,0,109.3,17.9,109.3,40v41.4L461.4,193.7"/>
	<path class="st8" d="M531,179.6c0,15.6,12.6,28.3,28.2,28.4v-56.9C543.6,151.3,531,164,531,179.6z"/>
	<path class="st3" d="M587.9,179.6c0-15.7-12.7-28.5-28.5-28.5c-0.1,0-0.1,0-0.2,0V208c0.1,0,0.1,0,0.2,0
		C575.2,208.1,587.9,195.3,587.9,179.6z"/>
	<line class="st9" x1="559.4" y1="151.2" x2="559.2" y2="59.1"/>
	<path class="st8" d="M556,208.1c-7.5,0-13.7,6.1-13.7,13.7l-11.3,60c0,7.5,6.1,13.7,13.7,13.7h14.6v-87.4H556z"/>
	<path class="st3" d="M587.9,281.8l-11.4-60.1c0-7.5-6.1-13.7-13.7-13.7h-3.6v87.4h15C581.7,295.5,587.9,289.3,587.9,281.8z"/>
</g>
<path class="st4" d="M436.7,523h-21c-2.2,0-4-1.8-4-4v-12.4c0-2.2,1.8-4,4-4h21c2.2,0,4,1.8,4,4V519
	C440.6,521.2,438.9,523,436.7,523z"/>
<path class="st4" d="M508.7,523h-20.9c-2.2,0-4-1.8-4-4v-12.4c0-2.2,1.8-4,4-4h20.9c2.2,0,4,1.8,4,4V519
	C512.7,521.2,510.9,523,508.7,523z"/>
<path class="st4" d="M580.8,523h-20.9c-2.2,0-4-1.8-4-4v-12.4c0-2.2,1.8-4,4-4h20.9c2.2,0,4,1.8,4,4V519
	C584.7,521.2,582.9,523,580.8,523z"/>
<g>
	<path class="st10" d="M489.3,251.9H218c-2.4,0-4.4,2-4.4,4.4V453c0,2.4,2,4.4,4.4,4.4h271.3c2.4,0,4.4-2,4.4-4.4V256.3
		C493.7,253.9,491.7,251.9,489.3,251.9z"/>
	<path class="st11" d="M384.1,266.2h-145c-2.4,0-4.4,2-4.4,4.4v35.1c0,2.4,2,4.4,4.4,4.4h145c2.4,0,4.4-2,4.4-4.4v-35.1
		C388.5,268.2,386.5,266.2,384.1,266.2z"/>
	<path class="st3" d="M423.8,324.7H239.1c-2.4,0-4.4,2-4.4,4.4v35.1c0,2.4,2,4.4,4.4,4.4h184.8c2.4,0,4.4-2,4.4-4.4v-35.1
		C428.2,326.7,426.3,324.7,423.8,324.7z"/>
	<path class="st7" d="M458.9,383.2H239.1c-2.4,0-4.4,2-4.4,4.4v35.1c0,2.4,2,4.4,4.4,4.4h219.8c2.4,0,4.4-2,4.4-4.4v-35.1
		C463.3,385.1,461.3,383.2,458.9,383.2z"/>
	<path class="st12" d="M218,251.9c-2.4,0-4.4,2-4.4,4.4V453c0,2.4,2,4.4,4.4,4.4h135.6V251.9H218z"/>
	<path class="st13" d="M239.1,266.2c-2.4,0-4.4,2-4.4,4.4v35.1c0,2.4,2,4.4,4.4,4.4h114.6v-43.8L239.1,266.2L239.1,266.2z"/>
	<path class="st11" d="M239.1,324.7c-2.4,0-4.4,2-4.4,4.4v35.1c0,2.4,2,4.4,4.4,4.4h114.6v-43.8L239.1,324.7L239.1,324.7z"/>
	<path class="st6" d="M239.1,383.2c-2.4,0-4.4,2-4.4,4.4v35.1c0,2.4,2,4.4,4.4,4.4h114.6v-43.8L239.1,383.2L239.1,383.2z"/>
	<path class="st5" d="M353.7,457.4c-2.4,0-4.4-2-4.4-4.4V242.6c0-2.4,2-4.4,4.4-4.4c2.4,0,4.4,2,4.4,4.4V453
		C358.1,455.5,356.1,457.4,353.7,457.4z"/>
	<path class="st14" d="M381.7,177.4h-58.5c-2.4,0-4.4,2-4.4,4.4v41.3c0,1.5,0.8,2.9,2,3.7l30.4,19.5c0.7,0.5,1.5,0.7,2.4,0.7
		c0.9,0,1.7-0.3,2.5-0.8l28.1-19.5c1.2-0.8,1.9-2.2,1.9-3.6v-41.3C386.1,179.3,384.2,177.4,381.7,177.4z"/>
	<path class="st4" d="M323.3,177.4c-2.4,0-4.4,2-4.4,4.4v41.3c0,1.5,0.8,2.9,2,3.7l30.4,19.5c0.7,0.5,1.5,0.7,2.4,0.7v-69.6H323.3z"
		/>
	<path class="st15" d="M363,216.5c-2.4,0-4.4-2-4.4-4.4v-16.4c0-2.4,2-4.4,4.4-4.4c2.4,0,4.4,2,4.4,4.4v16.4
		C367.4,214.6,365.4,216.5,363,216.5z"/>
</g>
</svg>
