<?xml version="1.0" encoding="utf-8"?>
<!-- Generator: Adobe Illustrator 19.0.0, SVG Export Plug-In . SVG Version: 6.00 Build 0)  -->
<svg version="1.1" id="Layer_1" xmlns="http://www.w3.org/2000/svg" xmlns:xlink="http://www.w3.org/1999/xlink" x="0px" y="0px"
	 viewBox="96 11 512 512" style="enable-background:new 96 11 512 512;" xml:space="preserve">
<style type="text/css">
	.st0{display:none;fill:#020202;}
	.st1{fill:#FD6A33;}
	.st2{fill:#FF8C29;}
	.st3{fill:#FFD1A9;}
	.st4{fill:#F0353D;}
	.st5{fill:#4ACFD9;}
	.st6{fill:#0295AA;}
	.st7{fill:#365558;}
	.st8{fill:#9BAAAB;}
	.st9{fill:#BCD643;}
	.st10{fill:#CDD4D5;}
	.st11{fill:#E6EAEA;}
	.st12{fill:#FFFFFF;}
	.st13{fill:none;stroke:#BCD643;stroke-width:13;stroke-linecap:round;stroke-linejoin:round;stroke-miterlimit:10;}
</style>
<rect x="96" y="11" class="st0" width="512" height="512"/>
<path class="st1" d="M239,152.8h-5.7h-5.8c-7.4,0-13.4,6.1-13.4,13.4v57.7c0,7.4,6.1,13.4,13.4,13.4h5.8h5.7c3.3,0,6.2-2.7,6.2-6.2
	v-72.2C245.1,155.7,242.4,152.8,239,152.8z"/>
<path class="st2" d="M470.7,237.3H465c-3.3,0-6.2-2.7-6.2-6.2v-72.2c0-3.3,2.7-6.2,6.2-6.2h5.7h5.8c7.4,0,13.4,6.1,13.4,13.4v57.8
	c0,7.4-6.1,13.4-13.4,13.4H470.7L470.7,237.3z"/>
<path class="st2" d="M417.3,99h-42.4c-4.2,0-8.1-3.8-8.1-8.1V89H352v133.5h3h5.6c1.7,0,3,1.4,3,2.9v5.6c0,1.7-1.4,3-3,3H355v0.1h-3
	v43.2h65.3c17,0,30.9-13.9,30.9-30.9V129.7C448.2,112.7,434.2,98.8,417.3,99z M406.1,230.9c0,1.8-1.5,3.2-3.2,3.2H386
	c-1.7,0-3.2-1.5-3.2-3.2v-5.2c0-1.8,1.5-3.2,3.2-3.2h16.8c1.8,0,3.2,1.5,3.2,3.2v5.2H406.1z M394.4,183.2c-8.5,0-15.4-6.9-15.4-15.4
	s6.9-15.4,15.4-15.4s15.4,6.9,15.4,15.4C409.8,176.3,402.9,183.2,394.4,183.2z"/>
<rect x="352" y="233.9" class="st2" width="3" height="0.1"/>
<path class="st2" d="M371.4,83.8c6.7-4.4,4.8-14.3-1.6-19.3c0,0-17.7,13.1-17.7,24.4c5.2,0,14.8,0,14.8,0S366,87.4,371.4,83.8z"/>
<path class="st1" d="M352,89h-14.8v1.7c0,4.7-4.8,8.1-9.3,8.1h-41.1c-17,0-30.9,13.9-30.9,30.9v116.8c0,17,13.9,30.9,30.9,30.9H352
	v-43.3h-8.6c-1.7,0-3-1.4-3-3v-5.6c0-1.7,1.4-3,3-3h4.6h4.1V89H352z M321.2,231.1c0,1.7-1.4,3-3,3H301c-1.7,0-3-1.4-3-3v-5.6
	c0-1.7,1.4-3,3-3h17.2c1.6,0,3,1.4,3,3V231.1z M309.6,183.1c-8.5,0-15.4-6.9-15.4-15.4s6.9-15.4,15.4-15.4s15.4,7,15.4,15.4
	C325,176.2,318.1,183.1,309.6,183.1z"/>
<path class="st1" d="M347.9,66.7c-5.7,3.7-10.7,10-10.7,22.3c6.9,0,9.6,0,14.8,0c0-11.5,17.9-24.6,17.9-24.6
	C363.5,59.3,353.5,63,347.9,66.7z"/>
<path class="st3" d="M227.4,203.6c0.6,0.9,0.9,2.1,0.5,3.2c-1.5,6.4-0.3,13.1,3.3,18.3c1.2,1.7,0.8,4.2-0.7,5.5
	c-1.7,1.3-4.1,1-5.3-0.6c-5.1-7-6.7-16-4.6-24.6c0.5-2.1,2.5-3.4,4.6-2.9C226.3,202.4,226.8,202.9,227.4,203.6z"/>
<path class="st3" d="M479.2,202.4c2-0.5,4.1,0.9,4.6,2.9c2.2,8.6,0.5,17.6-4.6,24.6c-1.2,1.6-3.5,1.9-5.3,0.6
	c-1.5-1.3-2-3.7-0.7-5.5c3.6-5.3,4.9-11.9,3.3-18.3c-0.4-1.1-0.1-2.3,0.5-3.2C477.6,202.9,478.2,202.4,479.2,202.4z"/>
<path class="st4" d="M415.4,35l-17.3,16.7c-2.3,2.2-6,2.2-8.4-0.1c-2.3-2.3-2.3-5.9,0.1-8.1l17.3-16.7c2.3-2.2,6-2.2,8.4,0.1
	C417.7,29.1,417.7,32.6,415.4,35z"/>
<path class="st4" d="M429.3,70.3c-1.1,1.1-2.5,1.7-4.3,1.6l-22-0.1c-3.3,0-5.9-2.5-5.9-5.9c0-3.1,2.6-5.7,6-5.8l22,0.1
	c3.3,0,5.9,2.5,5.9,5.9C431.1,67.8,430.3,69.3,429.3,70.3z"/>
<path class="st5" d="M352,293.6c10.9,0,14,2.1,17.5,9.5c5.5,11.4,11.4,23,5.4,29.1c-6.1,6.1-16,8.8-23,8.8v-47.4H352L352,293.6z"/>
<path class="st5" d="M352,345.8c0,0,10-0.4,12.8-2c2.7-1.6,10.7,45.7,9.7,59.6s-5.3,61.6-5.3,61.6L352,490.8V345.8z"/>
<path class="st6" d="M352,293.6c-10.9,0-14,2.1-17.5,9.5c-5.5,11.4-11.4,23-5.4,29.1c6.1,6.1,16,8.8,23,8.8v-47.4H352L352,293.6z"/>
<path class="st6" d="M352,345.9c0,0-10-0.4-12.8-2.1c-2.7-1.7-10.7,45.7-9.7,59.6s5.3,61.6,5.3,61.6l17.2,25.8V345.9z"/>
<path class="st7" d="M338.9,12.3L133.8,62.1c-8.9,2.2-8.9,5.7,0,7.8l205.1,49.8c3.6,0.9,8.4,1.3,13.2,1.3V11
	C347.4,11,342.6,11.4,338.9,12.3z"/>
<path class="st6" d="M570.3,69.9c8.9-2.2,8.9-5.7,0-7.8L365.2,12.3c-3.6-0.9-8.3-1.3-13-1.3v110c4.7,0,9.4-0.4,13-1.3L570.3,69.9z"
	/>
<path class="st8" d="M425,321.9c13.6,3.8,17.9,44.5,80.4,44.5C588,366.4,588,485,588,523c-39.9,0-210.6,0-235.9,0
	c0-25.4-0.1-17.4-0.1-23.1c0-6.3,0-14.6,0-21.4c0,0,35-45.8,43.7-67.5c8.7-21.7,12.6-77,12.6-77C410.6,327.4,418,321.9,425,321.9"/>
<path class="st7" d="M279,321.9c7,0,14.4,5.5,16.7,12.1c0,0,4,55.3,12.6,77c8.7,21.7,43.7,67.5,43.7,67.5c0,6.9,0,15.2,0,21.4
	c0,5.6-0.1-2.3-0.1,23.1c-25.3,0-196,0-235.9,0c0-38,0-156.6,82.6-156.6C261.1,366.4,265.4,325.7,279,321.9"/>
<circle class="st9" cx="352" cy="500.9" r="14.9"/>
<rect x="-546" y="-121.5" class="st4" width="128" height="128"/>
<rect x="-418" y="-121.5" class="st1" width="128" height="128"/>
<rect x="-290" y="-121.5" class="st2" width="128" height="128"/>
<rect x="-162" y="-121.5" class="st3" width="128" height="128"/>
<rect x="-546" y="6.5" class="st7" width="128" height="128"/>
<rect x="-418" y="6.5" class="st6" width="128" height="128"/>
<rect x="-290" y="6.5" class="st5" width="128" height="128"/>
<rect x="-546" y="134.5" class="st8" width="128" height="128"/>
<rect x="-418" y="134.5" class="st10" width="128" height="128"/>
<rect x="-290" y="134.5" class="st11" width="128" height="128"/>
<rect x="-162" y="134.5" class="st12" width="128" height="128"/>
<rect x="-546" y="262.5" class="st9" width="128" height="128"/>
<path class="st6" d="M255.9,149.3c0-15.7,43-28.4,96-28.4c0,0,0.1,0,0.1,0v-6.4V85.2V56.8c0,0-0.1,0-0.1,0c-53,0-96,12.7-96,28.4
	v29.4V149.3"/>
<path class="st5" d="M448.2,149.3c0-15.7-43-28.4-96-28.4c0,0-0.1,0-0.1,0v-6.4V85.2V56.8c0,0,0.1,0,0.1,0c53,0,96,12.7,96,28.4
	v29.4V149.3"/>
<path class="st3" d="M509.3,159.2c0,13.7,11.1,24.9,24.8,25v-50C520.4,134.3,509.3,145.4,509.3,159.2z"/>
<path class="st2" d="M559.3,159.2c0-13.8-11.2-25-25-25c-0.1,0-0.1,0-0.2,0v50c0.1,0,0.1,0,0.2,0C548.1,184.2,559.3,173,559.3,159.2
	z"/>
<line class="st13" x1="534.3" y1="134.2" x2="534.1" y2="53.3"/>
<path class="st3" d="M531.3,184.2c-6.6,0-12,5.4-12,12l-10,52.8c0,6.6,5.4,12,12,12h12.8v-76.8H531.3z"/>
<path class="st2" d="M559.3,249l-10-52.8c0-6.6-5.4-12-12-12h-3.2V261h13.2C553.9,261,559.3,255.6,559.3,249z"/>
</svg>
