<?xml version="1.0" encoding="utf-8"?>
<!-- Generator: Adobe Illustrator 19.0.0, SVG Export Plug-In . SVG Version: 6.00 Build 0)  -->
<svg version="1.1" id="Layer_1" xmlns="http://www.w3.org/2000/svg" xmlns:xlink="http://www.w3.org/1999/xlink" x="0px" y="0px"
	 viewBox="96 11 512 512" style="enable-background:new 96 11 512 512;" xml:space="preserve">
<style type="text/css">
	.st0{display:none;}
	.st1{display:inline;}
	.st2{fill:#4ACFD9;}
	.st3{fill:#0295AA;}
	.st4{fill:#FD6A33;}
	.st5{fill:#365558;}
	.st6{fill:#FFD1A9;}
	.st7{fill:#FF8C29;}
	.st8{fill:none;stroke:#BCD643;stroke-width:13;stroke-linecap:round;stroke-linejoin:round;stroke-miterlimit:10;}
</style>
<g id="Layer_3" class="st0">
	<rect x="1400" y="-758.4" class="st1" width="512" height="512.8"/>
</g>
<path class="st2" d="M340.4,297.2l-47.3-47.3c-9.5-9.5-22.2-14.7-35.6-14.7c-13.5,0-26.1,5.2-35.6,14.7c-19.7,19.7-19.7,51.6,0,71.3
	l47.3,47.3c9.5,9.5,22.2,14.7,35.6,14.7s26.1-5.2,35.6-14.7s14.7-22.2,14.7-35.6C355.2,319.4,349.9,306.7,340.4,297.2z M275.4,267.7
	l47.3,47.3c9.9,9.9,9.9,26,0,35.8c-9.9,9.9-26,9.9-35.8,0l-23.6-23.6l0,0l-23.7-23.7c-9.9-9.9-9.9-26,0-35.8
	C249.5,257.8,265.6,257.8,275.4,267.7z"/>
<path class="st2" d="M480.9,437.6l-47.3-47.3c-9.5-9.5-22.2-14.7-35.6-14.7c-13.5,0-26.1,5.2-35.6,14.7s-14.7,22.2-14.7,35.6
	c0,13.5,5.2,26.1,14.7,35.6l47.3,47.3c9.5,9.5,22.2,14.7,35.6,14.7c13.5,0,26.1-5.2,35.6-14.7c9.5-9.5,14.7-22.2,14.7-35.6
	C495.7,459.9,490.4,447.1,480.9,437.6z M427.4,491.3l-23.6-23.6L380.1,444c-9.9-9.9-9.9-26,0-35.8c9.9-9.9,26-9.9,35.8,0l47.3,47.3
	c9.9,9.9,9.9,26,0,35.8C453.3,501.1,437.3,501.1,427.4,491.3z"/>
<path class="st3" d="M411.2,421.1L308,318c-5-5-13.1-5-18.1,0c-2.4,2.4-3.8,5.6-3.8,9.1c0,3.4,1.3,6.6,3.8,9.1l103.2,103.2
	c2.4,2.4,5.6,3.8,9.1,3.8c3.4,0,6.6-1.3,9.1-3.8c2.4-2.4,3.8-5.6,3.8-9.1C415,426.8,413.6,423.6,411.2,421.1z"/>
<g>
	<path class="st4" d="M416.2,322.2c-1.9,0-3.9-0.7-5.3-2.2c-3-3-3-7.7,0-10.7l42.3-42.3c3-3,7.7-3,10.7,0s3,7.7,0,10.7L421.6,320
		C420.1,321.5,418.2,322.2,416.2,322.2z"/>
	<path class="st4" d="M384,308.9c-4.2,0-7.6-3.4-7.6-7.6v-59.8c0-4.2,3.4-7.6,7.6-7.6s7.6,3.4,7.6,7.6v59.8
		C391.6,305.5,388.2,308.9,384,308.9z"/>
	<path class="st4" d="M489.4,354.4h-59.8c-4.2,0-7.6-3.4-7.6-7.6s3.4-7.6,7.6-7.6h59.8c4.2,0,7.6,3.4,7.6,7.6
		C497,351.1,493.6,354.4,489.4,354.4z"/>
</g>
<g>
	<path class="st4" d="M287.9,435.5c1.9,0,3.9,0.7,5.3,2.2c3,3,3,7.7,0,10.7l-42.3,42.3c-3,3-7.7,3-10.7,0s-3-7.7,0-10.7l42.3-42.3
		C284,436.1,285.9,435.5,287.9,435.5z"/>
	<path class="st4" d="M320.1,448.8c4.2,0,7.6,3.4,7.6,7.6v59.8c0,4.2-3.4,7.6-7.6,7.6s-7.6-3.4-7.6-7.6v-59.8
		C312.6,452.1,315.9,448.8,320.1,448.8z"/>
	<path class="st4" d="M214.7,403.1h59.8c4.2,0,7.6,3.4,7.6,7.6s-3.4,7.6-7.6,7.6h-59.8c-4.2,0-7.6-3.4-7.6-7.6
		C207.1,406.6,210.5,403.1,214.7,403.1z"/>
</g>
<g>
	<path class="st5" d="M336.1,22.6L102.6,86.4c-10.1,2.8-10.1,7.3,0,10.1l233.5,63.9c4.1,1.1,9.6,1.7,15.1,1.7V20.9
		C345.7,20.9,340.2,21.4,336.1,22.6z"/>
	<path class="st3" d="M599.4,96.5c10.1-2.8,10.1-7.3,0-10.1L366,22.6c-4.1-1.1-9.4-1.7-14.8-1.7v141.2c5.4,0,10.7-0.6,14.8-1.7
		L599.4,96.5z"/>
	<path class="st3" d="M241.6,203.6c0-22.1,48.9-40,109.3-40c0,0,0.1,0,0.1,0v-9.1v-41.4V73c0,0-0.1,0-0.1,0
		c-60.4,0-109.3,17.9-109.3,40v41.4V203.6"/>
	<path class="st2" d="M460.4,203.6c0-22.1-48.9-40-109.3-40c0,0-0.1,0-0.1,0v-9.1v-41.4V73c0,0,0.1,0,0.1,0
		c60.4,0,109.3,17.9,109.3,40v41.4V203.6"/>
	<path class="st6" d="M530,189.5c0,15.6,12.6,28.3,28.2,28.4v-56.9C542.6,161.2,530,173.9,530,189.5z"/>
	<path class="st7" d="M586.9,189.5c0-15.7-12.7-28.5-28.5-28.5c-0.1,0-0.1,0-0.2,0V218c0.1,0,0.1,0,0.2,0
		C574.2,218,586.9,205.2,586.9,189.5z"/>
	<line class="st8" x1="558.5" y1="161.1" x2="558.2" y2="69"/>
	<path class="st6" d="M555.1,218c-7.5,0-13.7,6.1-13.7,13.7L530,291.7c0,7.5,6.1,13.7,13.7,13.7h14.6V218H555.1z"/>
	<path class="st7" d="M586.9,291.7l-11.4-60.1c0-7.5-6.1-13.7-13.7-13.7h-3.6v87.4h15C580.8,305.4,586.9,299.2,586.9,291.7z"/>
</g>
</svg>
