<?xml version="1.0" encoding="utf-8"?>
<!-- Generator: Adobe Illustrator 19.0.0, SVG Export Plug-In . SVG Version: 6.00 Build 0)  -->
<svg version="1.1" id="Layer_1" xmlns="http://www.w3.org/2000/svg" xmlns:xlink="http://www.w3.org/1999/xlink" x="0px" y="0px"
	 viewBox="96 11 512 512" style="enable-background:new 96 11 512 512;" xml:space="preserve">
<style type="text/css">
	.st0{display:none;fill:#020202;}
	.st1{fill:#F0353D;}
	.st2{fill:#FD6A33;}
	.st3{fill:#FF8C29;}
	.st4{fill:#FFD1A9;}
	.st5{fill:#365558;}
	.st6{fill:#0295AA;}
	.st7{fill:#4ACFD9;}
	.st8{fill:none;stroke:#000000;stroke-miterlimit:10;}
	.st9{fill:#9BAAAB;}
	.st10{fill:#CDD4D5;}
	.st11{fill:#E6EAEA;}
	.st12{fill:#FFFFFF;}
	.st13{fill:#BCD643;}
</style>
<rect x="494" y="-173" class="st0" width="512" height="512"/>
<g>
	<rect x="-544" y="-7" class="st1" width="128" height="128"/>
	<rect x="-416" y="-7" class="st2" width="128" height="128"/>
	<rect x="-288" y="-7" class="st3" width="128" height="128"/>
	<rect x="-160" y="-7" class="st4" width="128" height="128"/>
	<rect x="-544" y="121" class="st5" width="128" height="128"/>
	<rect x="-416" y="121" class="st6" width="128" height="128"/>
	<rect x="-288" y="121" class="st7" width="128" height="128"/>
	<rect x="-160" y="121" class="st8" width="128" height="128"/>
	<rect x="-544" y="249" class="st9" width="128" height="128"/>
	<rect x="-416" y="249" class="st10" width="128" height="128"/>
	<rect x="-288" y="249" class="st11" width="128" height="128"/>
	<rect x="-160" y="249" class="st12" width="128" height="128"/>
	<rect x="-544" y="377" class="st13" width="128" height="128"/>
	<rect x="-416" y="377" class="st8" width="128" height="128"/>
	<rect x="-288" y="377" class="st8" width="128" height="128"/>
	<rect x="-160" y="377" class="st8" width="128" height="128"/>
</g>
<path class="st4" d="M444.4,124"/>
<path class="st13" d="M107,472h490c6,0,11,4.9,11,11l0,0c0,6-4.9,11-11,11H107c-6,0-11-4.9-11-11l0,0C96,476.9,101,472,107,472z"/>
<g>
	<path class="st4" d="M480.6,85.8H223.4c-3.9,0-7.1,3.2-7.1,7.1v152.4l136.8-136.8l134.7,134.9V93C487.7,89,484.5,85.8,480.6,85.8z"
		/>
	<path class="st4" d="M413.4,262.3v154.9H293V262.3h-76.7v178.6c0,3.9,3.2,7.1,7.1,7.1h185.4c1.8,0,3.7-0.7,5-2.1l71.9-71.9
		c1.3-1.3,2.1-3.1,2.1-5V262.3H413.4z"/>
	<path class="st3" d="M352,85.8H223.3c-3.9,0-7.1,3.2-7.1,7.1v152.5L352,109.6V85.8z"/>
	<path class="st3" d="M293,262.3h-76.8v178.6c0,3.9,3.2,7.1,7.1,7.1H352v-30.8h-59V262.3z"/>
	<path class="st2" d="M408.7,376.3v71.9l0,0c1.8,0,3.7-0.7,5-2.1l71.9-71.9c1.3-1.3,2.1-3.1,2.1-5l0,0h-71.9
		C411.9,369.1,408.7,372.3,408.7,376.3z"/>
	<rect x="313" y="240.4" class="st13" width="80.3" height="156.8"/>
	<polygon class="st13" points="458.3,242.3 353.1,136.8 247.7,242.3 	"/>
</g>
</svg>
