<?xml version="1.0" encoding="utf-8"?>
<!-- Generator: Adobe Illustrator 19.0.0, SVG Export Plug-In . SVG Version: 6.00 Build 0)  -->
<svg version="1.1" id="Layer_1" xmlns="http://www.w3.org/2000/svg" xmlns:xlink="http://www.w3.org/1999/xlink" x="0px" y="0px"
	 viewBox="96 11 512 512" style="enable-background:new 96 11 512 512;" xml:space="preserve">
<style type="text/css">
	.st0{display:none;fill:#020202;}
	.st1{fill:#FFD1A9;}
	.st2{fill:#F0353D;}
	.st3{fill:#FF8C29;}
	.st4{fill:#FD6A33;}
</style>
<rect x="494" y="-173" class="st0" width="512" height="512"/>
<path class="st1" d="M444.4,124"/>
<path class="st2" d="M107,40h490c6,0,11,4.9,11,11l0,0c0,6.1-4.9,11-11,11H107c-6,0-11-4.9-11-11l0,0C96,44.9,101,40,107,40z"/>
<path class="st1" d="M225.3,341.2"/>
<path class="st1" d="M583.4,339.5"/>
<g>
	<path class="st1" d="M139.2,335.5h68.1v87.6h42.3v-101c-0.1-2.3-1.9-4.1-4.1-4.1H100.1c-2.2,0-4,1.8-4,4v101.1h43.2L139.2,335.5
		L139.2,335.5z"/>
	<path class="st1" d="M173.3,510.1l-77.3-77.4v86.2c0,2.2,1.8,4,4,4h104.9c1,0,2.1-0.4,2.8-1.2l40.7-40.7c0.7-0.7,1.2-1.8,1.2-2.8
		v-44.4L173.3,510.1z"/>
	<path class="st3" d="M96,518.9c0,2.2,1.8,4,4,4h72.8v-13.3L96,432.7V518.9z"/>
	<path class="st3" d="M139.2,335.5h33.6V318H100c-2.2,0-4,1.8-4,4v101.1h43.2V335.5z"/>
	<path class="st4" d="M204.9,482.3V523c1,0,2.1-0.4,2.8-1.2l40.7-40.7c0.7-0.7,1.2-1.8,1.2-2.8h-40.7
		C206.7,478.3,204.9,480.1,204.9,482.3z"/>
	<path class="st1" d="M225.1,339.6"/>
	<rect x="150.5" y="346.8" class="st2" width="45.4" height="88.7"/>
	<polygon class="st2" points="113.8,434.4 173.3,494.1 232.9,434.4 	"/>
</g>
<g>
	<path class="st1" d="M318.4,335.5h68.1v87.6h42.3v-101c-0.1-2.3-1.9-4.1-4.1-4.1H279.3c-2.2,0-4,1.8-4,4v101.1h43.2V335.5
		L318.4,335.5z"/>
	<path class="st1" d="M387,521.7l40.7-40.7c0.7-0.7,1.2-1.8,1.2-2.8v-44.4l-76.3,76.3l-77.3-77.4v86.2c0,2.2,1.8,4,4,4h104.9
		C385.1,522.9,386.2,522.5,387,521.7z"/>
	<path class="st3" d="M275.2,518.9c0,2.2,1.8,4,4,4H352v-13.3l-76.8-76.9V518.9z"/>
	<path class="st3" d="M318.4,335.5H352V318h-72.8c-2.2,0-4,1.8-4,4v101.1h43.2V335.5z"/>
	<path class="st4" d="M427.6,481.1c0.7-0.7,1.2-1.8,1.2-2.8h-40.7c-2.2-0.1-4,1.8-4,4V523c1,0,2.1-0.4,2.8-1.2L427.6,481.1z"/>
	<path class="st1" d="M404.3,339.6"/>
	<rect x="329.7" y="346.8" class="st2" width="45.4" height="88.7"/>
	<polygon class="st2" points="293,434.4 352.5,494.1 412.1,434.4 	"/>
</g>
<g>
	<path class="st1" d="M497.6,335.5h68.1v87.6H608v-101c-0.1-2.3-1.9-4.1-4.1-4.1H458.4c-2.2,0-4,1.8-4,4v101.1h43.2V335.5
		L497.6,335.5z"/>
	<path class="st1" d="M458.4,522.9h104.9c1,0,2.1-0.4,2.8-1.2l40.7-40.7c0.7-0.7,1.2-1.8,1.2-2.8v-44.4l-76.3,76.3l-77.3-77.4v86.2
		C454.4,521.1,456.2,522.9,458.4,522.9z"/>
	<path class="st3" d="M458.4,522.9h72.8v-13.3l-76.8-76.9v86.2C454.4,521.1,456.2,522.9,458.4,522.9z"/>
	<path class="st3" d="M497.6,335.5h33.6V318h-72.8c-2.2,0-4,1.8-4,4v101.1h43.2V335.5z"/>
	<path class="st4" d="M606.8,481.1c0.7-0.7,1.2-1.8,1.2-2.8h-40.7c-2.2-0.1-4,1.8-4,4V523c1,0,2.1-0.4,2.8-1.2L606.8,481.1z"/>
	<path class="st1" d="M583.4,339.6"/>
	<rect x="508.9" y="346.8" class="st2" width="45.4" height="88.7"/>
	<polygon class="st2" points="472.2,434.4 531.7,494.1 591.3,434.4 	"/>
</g>
<path class="st1" d="M225.3,115.2"/>
<path class="st1" d="M583.4,113.5"/>
<g>
	<path class="st1" d="M139.2,109.5h68.1v87.6h42.3v-101c-0.1-2.3-1.9-4.1-4.1-4.1H100.1c-2.2,0-4,1.8-4,4v101.1h43.2L139.2,109.5
		L139.2,109.5z"/>
	<path class="st1" d="M173.3,284.1l-77.3-77.4v86.2c0,2.2,1.8,4,4,4h104.9c1,0,2.1-0.4,2.8-1.2l40.7-40.7c0.7-0.7,1.2-1.8,1.2-2.8
		v-44.4L173.3,284.1z"/>
	<path class="st3" d="M96,292.9c0,2.2,1.8,4,4,4h72.8v-13.3L96,206.7V292.9z"/>
	<path class="st3" d="M139.2,109.5h33.6V92H100c-2.2,0-4,1.8-4,4v101.1h43.2V109.5z"/>
	<path class="st4" d="M204.9,256.3V297c1,0,2.1-0.4,2.8-1.2l40.7-40.7c0.7-0.7,1.2-1.8,1.2-2.8h-40.7
		C206.7,252.3,204.9,254.1,204.9,256.3z"/>
	<path class="st1" d="M225.1,113.6"/>
	<rect x="150.5" y="120.8" class="st2" width="45.4" height="88.7"/>
	<polygon class="st2" points="113.8,208.4 173.3,268.1 232.9,208.4 	"/>
</g>
<g>
	<path class="st1" d="M318.4,109.5h68.1v87.6h42.3v-101c-0.1-2.3-1.9-4.1-4.1-4.1H279.3c-2.2,0-4,1.8-4,4v101.1h43.2V109.5
		L318.4,109.5z"/>
	<path class="st1" d="M387,295.7l40.7-40.7c0.7-0.7,1.2-1.8,1.2-2.8v-44.4l-76.3,76.3l-77.3-77.4v86.2c0,2.2,1.8,4,4,4h104.9
		C385.1,296.9,386.2,296.5,387,295.7z"/>
	<path class="st3" d="M275.2,292.9c0,2.2,1.8,4,4,4H352v-13.3l-76.8-76.9V292.9z"/>
	<path class="st3" d="M318.4,109.5H352V92h-72.8c-2.2,0-4,1.8-4,4v101.1h43.2V109.5z"/>
	<path class="st4" d="M427.6,255.1c0.7-0.7,1.2-1.8,1.2-2.8h-40.7c-2.2-0.1-4,1.8-4,4V297c1,0,2.1-0.4,2.8-1.2L427.6,255.1z"/>
	<path class="st1" d="M404.3,113.6"/>
	<rect x="329.7" y="120.8" class="st2" width="45.4" height="88.7"/>
	<polygon class="st2" points="293,208.4 352.5,268.1 412.1,208.4 	"/>
</g>
<g>
	<path class="st1" d="M497.6,109.5h68.1v87.6H608v-101c-0.1-2.3-1.9-4.1-4.1-4.1H458.4c-2.2,0-4,1.8-4,4v101.1h43.2V109.5
		L497.6,109.5z"/>
	<path class="st1" d="M458.4,296.9h104.9c1,0,2.1-0.4,2.8-1.2l40.7-40.7c0.7-0.7,1.2-1.8,1.2-2.8v-44.4l-76.3,76.3l-77.3-77.4v86.2
		C454.4,295.1,456.2,296.9,458.4,296.9z"/>
	<path class="st3" d="M458.4,296.9h72.8v-13.3l-76.8-76.9v86.2C454.4,295.1,456.2,296.9,458.4,296.9z"/>
	<path class="st3" d="M497.6,109.5h33.6V92h-72.8c-2.2,0-4,1.8-4,4v101.1h43.2V109.5z"/>
	<path class="st4" d="M606.8,255.1c0.7-0.7,1.2-1.8,1.2-2.8h-40.7c-2.2-0.1-4,1.8-4,4V297c1,0,2.1-0.4,2.8-1.2L606.8,255.1z"/>
	<path class="st1" d="M583.4,113.6"/>
	<rect x="508.9" y="120.8" class="st2" width="45.4" height="88.7"/>
	<polygon class="st2" points="472.2,208.4 531.7,268.1 591.3,208.4 	"/>
</g>
</svg>
