<?xml version="1.0" encoding="utf-8"?>
<!-- Generator: Adobe Illustrator 19.0.0, SVG Export Plug-In . SVG Version: 6.00 Build 0)  -->
<svg version="1.1" id="Layer_1" xmlns="http://www.w3.org/2000/svg" xmlns:xlink="http://www.w3.org/1999/xlink" x="0px" y="0px"
	 viewBox="96 11 512 512" style="enable-background:new 96 11 512 512;" xml:space="preserve">
<style type="text/css">
	.st0{fill:#BCD643;}
	.st1{fill:#FD6A33;}
	.st2{fill:#FF8C29;}
	.st3{fill:#9BAAAB;}
	.st4{fill:#CDD4D5;}
	.st5{fill:#E6EAEA;}
	.st6{fill:#FFFFFF;}
	.st7{fill:#FFD1A9;}
	.st8{fill:#E34C40;}
	.st9{fill:#365558;}
	.st10{fill:#0295AA;}
	.st11{fill:#4ACFD9;}
	.st12{fill:none;stroke:#E6EAEA;stroke-width:10;stroke-linecap:round;stroke-linejoin:round;stroke-miterlimit:10;}
</style>
<path class="st0" d="M582,10.2H352v512h230c14.4,0,26-11.6,26-26v-460C608,21.8,596.4,10.2,582,10.2z"/>
<path class="st0" d="M122,10.2c-14.4,0-26,11.6-26,26v460c0,14.4,11.6,26,26,26h230v-512H122z"/>
<g>
	<path class="st1" d="M175.4,309.3c0,44.3,35.9,80.2,80.2,80.2V229.1C211.3,229.1,175.4,265,175.4,309.3z"/>
	<path class="st2" d="M335.8,309.3c0-44.3-35.9-80.2-80.2-80.2v160.5C299.9,389.5,335.8,353.6,335.8,309.3z"/>
	<path class="st3" d="M205.4,309.3c0,27.7,22.5,50.2,50.2,50.2V259.1C227.9,259.1,205.4,281.6,205.4,309.3z"/>
	<path class="st4" d="M305.8,309.3c0-27.7-22.5-50.2-50.2-50.2v100.5C283.3,359.5,305.8,337,305.8,309.3z"/>
	<path class="st5" d="M215.4,309.3c0,22.2,18,40.2,40.2,40.2V269C233.4,269.1,215.4,287.1,215.4,309.3z"/>
	<path class="st6" d="M295.8,309.3c0-22.2-18-40.2-40.2-40.2v80.5C277.8,349.5,295.8,331.5,295.8,309.3z"/>
	<path class="st7" d="M255.5,229.1V254c3.1,0,5.7-2.5,5.7-5.7v-18.6c0-0.2,0-0.3,0-0.4C259.3,229.2,257.4,229.1,255.5,229.1z"/>
	<path class="st2" d="M250.5,229.2c0,0.2,0,0.4,0,0.5v18.6c0,2.9,2.2,5.4,5.1,5.6V229C253.9,229.1,252.2,229.1,250.5,229.2z"/>
	<path class="st1" d="M255.7,365.1v24.4c1.9,0,3.8-0.1,5.7-0.2v-18.5C261.3,367.7,258.8,365.1,255.7,365.1z"/>
	<path class="st7" d="M250.5,370.8v18.6c1.7,0.1,3.4,0.2,5.1,0.2v-24.4C252.7,365.4,250.5,367.9,250.5,370.8z"/>
	<path class="st7" d="M195,303.6h-18.6c-0.3,0-0.5,0-0.8,0.1c-0.1,1.9-0.2,3.7-0.2,5.6h25.2C200.6,306.2,198.1,303.6,195,303.6z"/>
	<path class="st2" d="M195,315c3.1,0,5.7-2.5,5.7-5.7h-25.2c0,1.9,0.1,3.8,0.2,5.6c0.3,0,0.5,0.1,0.8,0.1H195z"/>
	<path class="st1" d="M317.4,303.6c-3.1,0-5.7,2.5-5.7,5.7h24.1l0,0c0-1.9-0.1-3.8-0.2-5.7H317.4z"/>
	<path class="st7" d="M317.4,315h18.2c0.1-1.9,0.2-3.8,0.2-5.7h-24.1C311.7,312.4,314.3,315,317.4,315z"/>
	<path class="st7" d="M216.9,262l-13.1-13.1c-0.1-0.1-0.3-0.2-0.5-0.4c-1.4,1.2-2.8,2.5-4.1,3.8l17.7,17.7
		C219.1,267.8,219.1,264.2,216.9,262z"/>
	<path class="st2" d="M208.9,270c2.2,2.2,5.8,2.2,8,0l-17.7-17.7c-1.3,1.3-2.6,2.7-3.8,4.1c0.1,0.2,0.3,0.3,0.4,0.5L208.9,270z"/>
	<path class="st1" d="M295.4,348.6l17.2,17.2c1.3-1.3,2.6-2.7,3.8-4.2l-13-13C301.2,346.4,297.6,346.4,295.4,348.6z"/>
	<path class="st7" d="M295.4,356.6l13,13c1.4-1.2,2.8-2.5,4.1-3.9l-17.2-17.2C293.2,350.8,293.2,354.4,295.4,356.6z"/>
	<path class="st7" d="M208.7,348.4l-13.1,13.1c-0.2,0.2-0.3,0.3-0.4,0.5c1.2,1.4,2.5,2.8,3.8,4.1l17.7-17.7
		C214.5,346.2,210.9,346.2,208.7,348.4z"/>
	<path class="st2" d="M216.7,356.4c2.2-2.2,2.2-5.8,0-8L199,366.1c1.3,1.3,2.7,2.6,4.1,3.8c0.2-0.1,0.3-0.2,0.5-0.4L216.7,356.4z"/>
	<path class="st1" d="M295.2,261.8c-2.2,2.2-2.2,5.8,0,8l17.2-17.2c-1.3-1.3-2.7-2.6-4.2-3.9L295.2,261.8z"/>
	<path class="st7" d="M295.2,269.8c2.2,2.2,5.8,2.2,8,0l13-13c-1.2-1.4-2.5-2.8-3.8-4.2L295.2,269.8z"/>
	<path class="st7" d="M238,250.6l-7.1-17.2c-0.1-0.1-0.1-0.3-0.2-0.4c-1.8,0.6-3.6,1.2-5.3,1.9l9.5,23
		C237.8,256.8,239.2,253.5,238,250.6z"/>
	<path class="st2" d="M227.5,254.9c1.2,2.9,4.5,4.3,7.4,3.1l-9.5-23c-1.7,0.7-3.5,1.5-5.2,2.3c0,0.2,0.1,0.3,0.2,0.5L227.5,254.9z"
		/>
	<path class="st1" d="M277.4,360.6l9.4,22.6c1.7-0.7,3.5-1.6,5.1-2.4l-7.1-17.1C283.6,360.8,280.3,359.4,277.4,360.6z"/>
	<path class="st7" d="M274.4,368l7.1,17.2l0,0c1.8-0.6,3.6-1.3,5.3-2l-9.4-22.6C274.5,361.8,273.2,365.1,274.4,368z"/>
	<path class="st7" d="M197.3,327.2l-17.2,7.1c-0.2,0.1-0.5,0.2-0.7,0.3c0.6,1.8,1.2,3.5,2,5.3l23.3-9.6
		C203.6,327.4,200.2,326,197.3,327.2z"/>
	<path class="st2" d="M201.7,337.7c2.9-1.2,4.3-4.5,3.1-7.4l-23.3,9.6c0.7,1.7,1.5,3.4,2.3,5.1c0.2-0.1,0.5-0.1,0.7-0.2L201.7,337.7
		z"/>
	<path class="st1" d="M310.4,280.4c-2.9,1.2-4.3,4.5-3.1,7.4l22.3-9.3c-0.7-1.8-1.5-3.5-2.4-5.2L310.4,280.4z"/>
	<path class="st7" d="M307.4,287.8c1.2,2.9,4.5,4.3,7.4,3.1l16.9-7c-0.6-1.8-1.3-3.6-2-5.3L307.4,287.8z"/>
	<path class="st7" d="M201.7,280.4l-17.2-7.1c-0.2-0.1-0.3-0.1-0.5-0.2c-0.8,1.7-1.7,3.4-2.4,5.1l23.1,9.6
		C205.9,284.9,204.6,281.6,201.7,280.4z"/>
	<path class="st2" d="M197.3,290.9c2.9,1.2,6.2-0.2,7.4-3.1l-23.1-9.6c-0.7,1.7-1.4,3.5-2,5.3c0.2,0.1,0.3,0.2,0.5,0.3L197.3,290.9z
		"/>
	<path class="st1" d="M307.4,330.3l22.5,9.3c0.7-1.7,1.4-3.5,2-5.3l-17.1-7.1C311.9,326,308.6,327.4,307.4,330.3z"/>
	<path class="st7" d="M310.4,337.7l17.1,7.1c0.8-1.7,1.6-3.4,2.3-5.2l-22.5-9.3C306.2,333.2,307.6,336.5,310.4,337.7z"/>
	<path class="st7" d="M227.1,363.3l-7.1,17.2c-0.1,0.2-0.2,0.4-0.2,0.6c1.7,0.8,3.4,1.6,5.1,2.3l9.7-23.1
		C231.7,359.1,228.3,360.4,227.1,363.3z"/>
	<path class="st2" d="M237.6,367.7c1.2-2.9-0.2-6.2-3.1-7.4l-9.6,23.2c1.7,0.7,3.5,1.4,5.3,2c0.1-0.2,0.2-0.4,0.3-0.6L237.6,367.7z"
		/>
	<path class="st1" d="M274,250.2c-1.2,2.9,0.2,6.2,3.1,7.4l9.3-22.4c-1.7-0.7-3.5-1.4-5.3-2L274,250.2z"/>
	<path class="st7" d="M277.1,257.6c2.9,1.2,6.2-0.2,7.4-3.1l7-17c-1.7-0.8-3.4-1.6-5.2-2.4L277.1,257.6z"/>
	<g>
		<path id="XMLID_4_" class="st8" d="M250.1,316.9c1-0.3,7.4,0.7,8.2,1.3c2.7,1.9,6.6,2.9,8.2,1s-0.1-5.3-2.6-7.8
			c-0.7-0.8-3.2-6.7-3-7.7c0.4-3.3-0.7-7.3-3.2-7.7c-2.5-0.4-4.8,3.1-5.4,6.1c-0.2,1-4.3,6.1-5.3,6.5c-3,1.4-5.8,4.3-4.9,6.6
			C243.1,317.6,247.2,317.8,250.1,316.9z"/>
		<path id="XMLID_3_" class="st8" d="M261.2,282.6c4,0.2,5.7,8.3,5,14.7c-0.2,2,4.5,13.5,5.4,15.4c0.6,1.1,1.5,2,2.6,2.6
			c-3.1-8.3-3.3-15-2.7-16.5c2.6-7.2,1.5-16.9-2.4-19.1c-2.6-1.5-8.4-2.1-12.1,3.9C258.2,282.7,259.7,282.4,261.2,282.6z"/>
		<path id="XMLID_2_" class="st8" d="M229.1,317.4c-1.9-3.6,4.4-9.1,10.2-11.8c1.9-0.8,9.4-10.7,10.6-12.3c0.7-1.1,1-2.3,1-3.6
			c-5.7,6.8-11.3,10.3-12.9,10.6c-7.5,1.3-15.4,7.2-15.4,11.7c0,3,2.4,8.3,9.4,8.5C230.7,319.9,229.7,318.8,229.1,317.4z"/>
		<path id="XMLID_1_" class="st8" d="M275.5,328.5c-2.2,3.4-10.1,0.8-15.3-3c-1.7-1.2-14-2.9-16-3c-1.3-0.1-2.5,0.3-3.6,1
			c8.7,1.5,14.6,4.6,15.7,5.8c4.9,5.9,13.9,9.7,17.8,7.5c2.6-1.5,6-6.2,2.7-12.4C276.9,325.8,276.5,327.3,275.5,328.5z"/>
	</g>
</g>
<g>
	<path class="st1" d="M398.3,252.6c-31.3,31.3-31.3,82.1,0,113.4l113.4-113.4C480.4,221.3,429.6,221.3,398.3,252.6z"/>
	<path class="st2" d="M398.2,366.1c31.4,31.3,82.2,31.3,113.5-0.1s31.3-82.1,0-113.4L398.2,366.1z"/>
	<path class="st3" d="M419.5,273.8c-19.6,19.6-19.6,51.4,0,71l71-71C470.9,254.2,439.1,254.2,419.5,273.8z"/>
	<path class="st4" d="M419.4,344.9c19.7,19.5,51.5,19.5,71.1-0.1s19.6-51.4,0-71L419.4,344.9z"/>
	<path class="st5" d="M426.6,280.9c-15.7,15.7-15.7,41.2,0,56.9l56.9-56.9C467.7,265.2,442.3,265.2,426.6,280.9z"/>
	<path class="st6" d="M426.5,337.8c15.8,15.6,41.2,15.6,56.9-0.1c15.7-15.7,15.7-41.2,0-56.9L426.5,337.8z"/>
	<path class="st7" d="M494,270.2c2.2,2.2,5.8,2.3,8.1,0l13.2-13.2c0.1-0.1,0.2-0.2,0.3-0.3c-1.3-1.4-2.5-2.8-3.9-4.2L494,270.2z"/>
	<path class="st2" d="M507.7,249.4l-13.2,13.2c-2.1,2.1-2.3,5.4-0.4,7.6l17.6-17.6c-1.3-1.1-2.5-2.3-3.7-3.5
		C507.9,249.2,507.8,249.4,507.7,249.4z"/>
	<path class="st1" d="M398.4,366.1c1.3,1.3,2.8,2.6,4.2,3.9l13.1-13.1c2.1-2.3,2.2-5.9,0-8.1L398.4,366.1z"/>
	<path class="st7" d="M407.9,349.2l-13.2,13.2c1.1,1.3,2.3,2.5,3.5,3.7l17.3-17.3C413.3,346.9,410,347.2,407.9,349.2z"/>
	<path class="st7" d="M403,249.3c-0.2-0.2-0.4-0.4-0.6-0.5c-1.4,1.3-2.8,2.5-4.1,3.8l17.8,17.8c2.2-2.2,2.3-5.8,0.1-8L403,249.3z"/>
	<path class="st2" d="M394.6,256.8c0.2,0.2,0.3,0.4,0.5,0.6l13.1,13.1c2.2,2.2,5.8,2.3,8.1,0l-17.8-17.8
		C397,254,395.8,255.4,394.6,256.8z"/>
	<path class="st1" d="M494.7,349l17,17c1.3-1.3,2.6-2.8,3.9-4.2l-12.9-12.9C500.6,346.8,496.9,346.7,494.7,349z"/>
	<path class="st7" d="M494.7,357.1l12.9,12.9c1.4-1.3,2.8-2.5,4.2-3.9l-17-17C492.5,351.2,492.5,354.9,494.7,357.1z"/>
	<path class="st7" d="M455.4,229.1v25c3.1,0,5.7-2.5,5.7-5.7v-18.5c0-0.1-0.1-0.4-0.1-0.6C459.2,229.2,457.3,229.1,455.4,229.1z"/>
	<path class="st2" d="M449.8,230v18.5c0,3.1,2.5,5.7,5.7,5.7v-25c-1.8,0-3.7,0.1-5.6,0.2C449.8,229.6,449.9,229.8,449.8,230z"/>
	<path class="st1" d="M455.4,365.3v24.3c1.8,0,3.7-0.1,5.7-0.3v-18.4C461,367.8,458.5,365.3,455.4,365.3z"/>
	<path class="st7" d="M449.7,370.9v18.4c1.8,0.1,3.7,0.2,5.7,0.1v-24.3C452.3,365.3,449.7,367.8,449.7,370.9z"/>
	<path class="st7" d="M394.2,303.8h-18.5c-0.3,0-0.4,0-0.6,0.1c-0.1,1.8-0.2,3.7-0.2,5.6h25C399.9,306.4,397.3,303.8,394.2,303.8z"
		/>
	<path class="st2" d="M375,315.1c0.2,0.1,0.4,0.1,0.6,0.1h18.5c3.1,0,5.7-2.5,5.7-5.7h-25C374.8,311.3,374.9,313.2,375,315.1z"/>
	<path class="st1" d="M516.6,303.7c-3.1,0-5.7,2.5-5.7,5.7h24.3c0-1.8-0.1-3.7-0.2-5.7H516.6z"/>
	<path class="st7" d="M516.6,315.1H535c0.1-1.8,0.2-3.7,0.3-5.7H511C510.9,312.5,513.5,315.1,516.6,315.1z"/>
	<path class="st7" d="M476.7,258.3c2.8,1.3,6.2-0.1,7.4-3l7.1-17.2c0-0.1,0.1-0.3,0.1-0.4c-1.7-0.8-3.4-1.7-5.1-2.4L476.7,258.3z"/>
	<path class="st2" d="M480.7,233.9l-7.1,17.1c-1.2,2.9,0.1,6.2,3,7.4l9.5-23c-1.7-0.7-3.5-1.4-5.3-2.1
		C480.8,233.5,480.8,233.7,480.7,233.9z"/>
	<path class="st1" d="M434.2,361l-9.3,22.6c1.7,0.7,3.6,1.3,5.3,1.9l7.1-17.1C438.4,365.5,437.1,362.2,434.2,361z"/>
	<path class="st7" d="M426.8,364.1l-7.1,17.2c1.7,0.8,3.5,1.6,5.2,2.3l9.3-22.6C431.3,359.8,428,361.2,426.8,364.1z"/>
	<path class="st7" d="M401.1,280.8l-17.2-7.1c-0.2-0.1-0.5-0.2-0.7-0.3c-0.8,1.7-1.6,3.3-2.3,5.2l23.3,9.7
		C405.4,285.4,404,282,401.1,280.8z"/>
	<path class="st2" d="M379,283.8c0.2,0.1,0.4,0.3,0.6,0.4l17.2,7.1c2.9,1.2,6.2-0.1,7.4-3l-23.3-9.7
		C380.3,280.3,379.6,282,379,283.8z"/>
	<path class="st1" d="M506.8,330.7l22.3,9.2c0.8-1.8,1.4-3.5,2-5.4l-16.9-6.9C511.3,326.4,508,327.8,506.8,330.7z"/>
	<path class="st7" d="M509.9,338.2l16.9,7c0.8-1.7,1.6-3.5,2.3-5.2l-22.3-9.3C505.6,333.6,507,337,509.9,338.2z"/>
	<path class="st7" d="M430.2,233.6c-0.1-0.2-0.1-0.3-0.2-0.5c-1.8,0.6-3.6,1.2-5.3,1.9l9.5,23.1c2.9-1.2,4.3-4.5,3.1-7.4
		L430.2,233.6z"/>
	<path class="st2" d="M419.5,237.3c0.1,0.2,0.1,0.4,0.1,0.6l7.1,17.2c1.2,2.9,4.5,4.2,7.4,3l-9.5-23.1
		C423,235.7,421.2,236.5,419.5,237.3z"/>
	<path class="st1" d="M476.8,360.8l9.3,22.5c1.7-0.7,3.5-1.5,5.2-2.3l-7.1-17.1C483,360.9,479.7,359.6,476.8,360.8z"/>
	<path class="st7" d="M473.7,368.2l7.1,17.1c1.8-0.6,3.5-1.3,5.3-2.1l-9.3-22.5C473.9,362,472.6,365.3,473.7,368.2z"/>
	<path class="st7" d="M396.7,327.4l-17.2,7.1c-0.2,0.1-0.4,0.1-0.6,0.3c0.6,1.8,1.3,3.5,2,5.2l23.2-9.5
		C402.9,327.6,399.6,326.2,396.7,327.4z"/>
	<path class="st2" d="M380.8,340.1c0.7,1.7,1.5,3.5,2.3,5.2c0.2-0.1,0.4-0.1,0.6-0.2l17.2-7.1c2.9-1.2,4.2-4.5,3-7.4L380.8,340.1z"
		/>
	<path class="st1" d="M509.8,280.5c-2.9,1.2-4.2,4.5-3,7.4l22.4-9.3c-0.7-1.7-1.5-3.5-2.3-5.2L509.8,280.5z"/>
	<path class="st7" d="M506.8,288c1.2,2.9,4.5,4.2,7.4,3l17-7.1c-0.6-1.8-1.3-3.5-2-5.4L506.8,288z"/>
	<g>
		<path class="st8" d="M457.8,301.9c-0.8,0.6-7.4,1.3-8.3,0.8c-3.1-1.1-7.1-1.1-8.1,1.2c-1,2.4,1.8,5.4,4.5,6.9
			c0.9,0.5,4.7,5.7,4.9,6.7c0.6,3.3,2.6,6.7,5.1,6.5s3.7-3.8,3.7-7.4c0.1-1.1,2.5-7,3.3-7.6c2.6-2.1,4.7-5.7,3.2-7.7
			C464.4,299.4,460.3,300.2,457.8,301.9z"/>
		<path class="st8" d="M474.2,292.1c1.5,0.2,2.8,1.1,3.7,2.3c2.7,3-1.8,9.9-6.9,13.9c-1.6,1.3-6.4,12.7-7.1,14.7
			c-0.4,1.2-0.4,2.5,0,3.7c3.7-8.1,8.3-12.9,9.8-13.6c6.9-3.3,13-10.9,11.8-15.2C484.7,295,481,290.5,474.2,292.1z"/>
		<path class="st8" d="M448.9,290.5c-6.2-4.4-16-5.8-19.2-2.6c-2.1,2.1-4.2,7.6,0.6,12.7c-0.5-1.3-0.4-2.8,0.1-4.2
			c1.2-3.9,9.5-3.3,15.6-1.1c1.9,0.8,14.2-0.9,16.2-1.2c1.3-0.3,2.3-0.9,3.3-1.8C456.7,292.9,450.3,291.4,448.9,290.5z"/>
		<path class="st8" d="M455.5,337c-4,0.8-7.7-6.6-8.7-12.9c-0.4-2.1-7.8-12-9.2-13.4c-0.8-1-2-1.6-3.3-1.8c5.1,7.2,7.1,13.6,7,15.2
			c-0.7,7.6,3,16.7,7.3,17.9c2.9,0.8,8.6-0.1,10.7-6.9C458.4,336.1,457.1,336.8,455.5,337z"/>
	</g>
</g>
<path class="st1" d="M348.1,377.7c-44.1,3.9-76.7,42.8-72.9,86.9c2.1,23.9,14.5,44.4,32.4,57.6h53.2L348.1,377.7z"/>
<path class="st2" d="M435,450.6c-3.9-44.1-42.8-76.7-86.9-72.9l12.7,144.5h41.9C424.4,506.1,437.5,479.5,435,450.6z"/>
<path class="st3" d="M305.1,462c2.4,27.6,26.8,48,54.4,45.6l-8.8-100C323.1,410,302.7,434.4,305.1,462z"/>
<path class="st4" d="M405.1,453.2c-2.4-27.6-26.8-48-54.4-45.6l8.8,100.1C387.1,505.2,407.5,480.8,405.1,453.2z"/>
<path class="st5" d="M315.1,461.1c1.9,22.1,21.5,38.5,43.6,36.5l-7-80.2C329.5,419.5,313.1,439,315.1,461.1z"/>
<path class="st6" d="M395.1,454.1c-1.9-22.1-21.5-38.5-43.6-36.5l7,80.2C380.7,495.7,397.1,476.2,395.1,454.1z"/>
<path class="st7" d="M348,377.7l2.2,24.8c3.1-0.3,5.5-3,5.2-6.2l-1.6-18.5c0-0.2,0-0.3,0-0.4C351.8,377.5,349.9,377.5,348,377.7z"/>
<path class="st2" d="M343,378.2c0,0.2,0,0.4,0,0.5l1.6,18.5c0.3,2.9,2.7,5.2,5.6,5.1l-2.2-24.8C346.4,377.8,344.7,378,343,378.2z"/>
<path class="st1" d="M366.3,518.3c-0.4-3.1-3.1-5.5-6.2-5.2l0.8,9h5.7L366.3,518.3z"/>
<path class="st7" d="M360,513.3c-2.9,0.5-4.8,3.1-4.6,6l0.3,2.9h5.1L360,513.3z"/>
<path class="st7" d="M294.2,457.2l-18.5,1.6c-0.3,0-0.5,0-0.8,0.2c0.1,1.9,0.1,3.7,0.3,5.6l25.1-2.2
	C300,459.3,297.3,456.9,294.2,457.2z"/>
<path class="st2" d="M295.2,468.6c3.1-0.3,5.5-3,5.2-6.2l-25.1,2.2c0.2,1.9,0.4,3.8,0.7,5.6c0.3,0,0.5,0.1,0.8,0L295.2,468.6z"/>
<path class="st1" d="M416.2,446.5c-3.1,0.3-5.5,3-5.2,6.2l24-2.1l0,0c-0.2-1.9-0.4-3.8-0.7-5.7L416.2,446.5z"/>
<path class="st7" d="M417.2,457.8l18.1-1.6c-0.1-1.9-0.1-3.8-0.3-5.7l-24,2.1C411.3,455.8,414.1,458.1,417.2,457.8z"/>
<path class="st7" d="M312.4,413.9L298.2,402c-0.1-0.1-0.3-0.2-0.5-0.4c-1.3,1.3-2.6,2.7-3.8,4.1l19.2,16.1
	C315.1,419.4,314.8,415.9,312.4,413.9z"/>
<path class="st2" d="M305.1,422.5c2.4,2,6,1.7,8-0.7l-19.2-16.1c-1.2,1.4-2.4,2.9-3.4,4.4c0.1,0.2,0.3,0.3,0.4,0.5L305.1,422.5z"/>
<path class="st1" d="M398.2,493.2l18.6,15.6c1.2-1.4,2.4-2.9,3.4-4.5l-14.1-11.8C403.8,490.5,400.2,490.9,398.2,493.2z"/>
<path class="st7" d="M398.9,501.2L413,513c1.3-1.3,2.6-2.7,3.7-4.2l-18.6-15.6C396.2,495.6,396.5,499.2,398.9,501.2z"/>
<path class="st7" d="M311.8,500.6l-11.9,14.2c-0.2,0.2-0.3,0.3-0.4,0.5c1.3,1.3,2.7,2.6,4.1,3.8l16.1-19.2
	C317.4,497.9,313.8,498.3,311.8,500.6z"/>
<path class="st2" d="M308.6,522.1l11.9-14.2c2-2.4,1.7-6-0.7-8l-16.1,19.2c1.3,1.1,2.6,2.1,4,3.1L308.6,522.1
	C308.5,522.2,308.5,522.1,308.6,522.1z"/>
<path class="st2" d="M308.5,522.2h-0.8c0.2,0.1,0.3,0.2,0.5,0.3C308.3,522.5,308.4,522.3,308.5,522.2z"/>
<path class="st1" d="M390.4,406.8c-2,2.4-1.7,6,0.7,8l15.6-18.6c-1.4-1.2-2.9-2.4-4.5-3.5L390.4,406.8z"/>
<path class="st7" d="M391.1,414.8c2.4,2,6,1.7,8-0.7l11.8-14.1c-1.3-1.3-2.7-2.6-4.2-3.9L391.1,414.8z"/>
<path class="st7" d="M332.4,400.6l-8.6-16.5c-0.1-0.1-0.1-0.3-0.2-0.4c-1.7,0.8-3.5,1.5-5.1,2.4l11.5,22.1
	C332.8,406.8,333.9,403.4,332.4,400.6z"/>
<path class="st2" d="M322.3,405.9c1.4,2.8,4.9,3.9,7.6,2.4l-11.4-22.1c-1.6,0.8-3.4,1.8-5,2.7c0,0.2,0.1,0.3,0.2,0.5L322.3,405.9z"
	/>
<path class="st1" d="M389,509.2c-1.4-2.8-4.9-3.9-7.6-2.4l8.1,15.4h6.4L389,509.2z"/>
<path class="st7" d="M381.3,506.8c-2.8,1.4-3.8,4.9-2.3,7.6l4,7.8h6.4L381.3,506.8z"/>
<path class="st7" d="M298.6,480.5l-16.5,8.6c-0.2,0.1-0.5,0.2-0.7,0.4c0.8,1.7,1.5,3.4,2.5,5.1l22.4-11.6
	C304.9,480.2,301.4,479.1,298.6,480.5z"/>
<path class="st2" d="M303.9,490.6c2.8-1.4,3.9-4.9,2.4-7.6L284,494.6c0.8,1.6,1.8,3.3,2.7,4.9c0.2-0.1,0.5-0.1,0.7-0.3L303.9,490.6z
	"/>
<path class="st1" d="M407.2,424c-2.8,1.4-3.9,4.9-2.4,7.6l21.4-11.2c-0.9-1.7-1.8-3.4-2.8-5L407.2,424z"/>
<path class="st7" d="M404.8,431.6c1.4,2.8,4.9,3.9,7.6,2.4l16.2-8.5c-0.8-1.7-1.6-3.5-2.5-5.1L404.8,431.6z"/>
<path class="st7" d="M298.9,433.5l-17.8-5.6c-0.2-0.1-0.3-0.1-0.5-0.2c-0.6,1.8-1.4,3.5-1.9,5.3l23.9,7.5
	C303.5,437.6,301.9,434.5,298.9,433.5z"/>
<path class="st2" d="M295.4,444.4c3,0.9,6.2-0.7,7.1-3.7l-23.9-7.5c-0.5,1.8-1.1,3.6-1.5,5.5c0.2,0.1,0.3,0.2,0.5,0.3L295.4,444.4z"
	/>
<path class="st1" d="M408.5,474l23.2,7.3c0.5-1.8,1.1-3.6,1.5-5.5l-17.7-5.6C412.6,469.3,409.5,471,408.5,474z"/>
<path class="st7" d="M412.2,481.1l17.7,5.6c0.6-1.8,1.3-3.5,1.8-5.4l-23.2-7.3C407.6,477,409.3,480.1,412.2,481.1z"/>
<path class="st7" d="M338.6,510.2c-3-0.9-6.3,0.7-7.2,3.6l-2.6,8.3h6L338.6,510.2z"/>
<path class="st2" d="M342.3,517.3c0.9-3-0.7-6.2-3.7-7.1l-3.8,12h6L342.3,517.3z"/>
<path class="st1" d="M368.3,397.1c-0.9,3,0.7,6.2,3.7,7.1l7.3-23.1c-1.8-0.5-3.6-1.1-5.5-1.5L368.3,397.1z"/>
<path class="st7" d="M372,404.2c3,0.9,6.2-0.7,7.1-3.7l5.5-17.5c-1.8-0.6-3.5-1.3-5.4-1.9L372,404.2z"/>
<g>
	<path id="XMLID_12_" class="st8" d="M350.3,465.6c1-0.4,7.4,0,8.3,0.6c2.9,1.7,6.8,2.3,8.3,0.3c1.4-2-0.6-5.3-3.3-7.5
		c-0.8-0.7-3.8-6.4-3.7-7.4c0.1-3.3-1.3-7.2-3.9-7.4s-4.5,3.5-4.8,6.5c-0.1,1-3.7,6.5-4.7,6.9c-2.9,1.7-5.4,4.8-4.3,7
		C343.4,466.9,347.5,466.8,350.3,465.6z"/>
	<path id="XMLID_11_" class="st8" d="M358.3,430.5c4-0.2,6.4,7.8,6.3,14.2c0,2,5.7,13.1,6.7,14.9c0.7,1,1.7,1.9,2.8,2.4
		c-3.8-8-4.6-14.7-4.1-16.2c2-7.4,0-17-4.1-18.8c-2.7-1.3-8.6-1.4-11.7,4.9C355.4,430.9,356.8,430.4,358.3,430.5z"/>
	<path id="XMLID_10_" class="st8" d="M329.4,468c-2.2-3.4,3.6-9.5,9.1-12.6c1.8-1,8.4-11.5,9.5-13.2c0.6-1.2,0.8-2.4,0.7-3.7
		c-5.1,7.3-10.4,11.3-11.9,11.7c-7.4,2-14.7,8.5-14.3,13c0.3,3,3.1,8.1,10.1,7.6C331.2,470.3,330.1,469.3,329.4,468z"/>
	<path id="XMLID_9_" class="st8" d="M376.6,475c-1.9,3.6-10,1.7-15.5-1.6c-1.8-1-14.2-1.7-16.2-1.6c-1.3,0-2.5,0.5-3.5,1.3
		c8.8,0.7,14.9,3.3,16.1,4.4c5.4,5.4,14.7,8.4,18.4,5.9c2.5-1.7,5.4-6.7,1.6-12.6C377.8,472.2,377.5,473.7,376.6,475z"/>
</g>
<path class="st9" d="M155,183.2c-5.2,0-14.5,7.9-14.5,17.5s9.3,17.5,14.5,17.5h197v-35H155z"/>
<path class="st10" d="M563.5,200.7c0-9.6-9.3-17.5-14.5-17.5H352v35h197C554.2,218.2,563.5,210.3,563.5,200.7z"/>
<path class="st10" d="M352,199.2h-12.5c-9.3,0-16.9,4.7-16.9,10.5v312.5H352V199.2z"/>
<path class="st11" d="M381.4,209.7c0-5.8-7.6-10.5-16.9-10.5H352v323h29.4V209.7z"/>
<path class="st1" d="M172.4,390.9c-44.1,3.9-76.7,42.8-72.9,86.9c1.5,17,8.2,32.2,18.3,44.4h66.1L172.4,390.9z"/>
<path class="st2" d="M259.3,463.8c-3.9-44.1-42.8-76.7-86.9-72.9l11.5,131.3H241C254.1,506.5,261.2,485.8,259.3,463.8z"/>
<path class="st3" d="M129.4,475.2c2.4,27.6,26.8,48,54.4,45.6l-8.8-100C147.4,423.2,126.9,447.6,129.4,475.2z"/>
<path class="st4" d="M229.4,466.4c-2.4-27.6-26.8-48-54.4-45.6l8.8,100.1C211.4,518.4,231.8,494,229.4,466.4z"/>
<path class="st5" d="M139.3,474.3c1.9,22.1,21.5,38.5,43.6,36.5l-7-80.2C153.7,432.7,137.4,452.2,139.3,474.3z"/>
<path class="st6" d="M219.4,467.3c-1.9-22.1-21.5-38.5-43.6-36.5l7,80.2C205,508.9,221.4,489.4,219.4,467.3z"/>
<path class="st7" d="M172.3,390.9l2.2,24.8c3.1-0.3,5.5-3,5.2-6.2l-1.6-18.5c0-0.2,0-0.3,0-0.4C176.1,390.7,174.2,390.8,172.3,390.9
	z"/>
<path class="st2" d="M167.3,391.5c0,0.2,0,0.4,0,0.5l1.6,18.5c0.3,2.9,2.7,5.2,5.6,5.1l-2.2-24.8C170.7,391.1,169,391.2,167.3,391.5
	z"/>
<path class="st7" d="M118.5,470.4L100,472c-0.3,0-0.5,0-0.8,0.2c0.1,1.9,0.1,3.7,0.3,5.6l25.1-2.2
	C124.3,472.5,121.6,470.2,118.5,470.4z"/>
<path class="st2" d="M119.5,481.8c3.1-0.3,5.5-3,5.2-6.2l-25.1,2.2c0.2,1.9,0.4,3.8,0.7,5.6c0.3,0,0.5,0.1,0.8,0L119.5,481.8z"/>
<path class="st1" d="M240.4,459.7c-3.1,0.3-5.5,3-5.2,6.2l24-2.1l0,0c-0.2-1.9-0.4-3.8-0.7-5.7L240.4,459.7z"/>
<path class="st7" d="M241.4,471.1l18.1-1.6c-0.1-1.9-0.1-3.8-0.3-5.7l-24,2.1C235.5,469,238.4,471.3,241.4,471.1z"/>
<path class="st7" d="M136.7,427.1l-14.2-11.9c-0.1-0.1-0.3-0.2-0.5-0.4c-1.3,1.3-2.6,2.7-3.8,4.1l19.2,16.1
	C139.4,432.7,139.1,429.1,136.7,427.1z"/>
<path class="st2" d="M129.4,435.8c2.4,2,6,1.7,8-0.7L118.2,419c-1.2,1.4-2.4,2.9-3.4,4.4c0.1,0.2,0.3,0.3,0.4,0.5L129.4,435.8z"/>
<path class="st1" d="M222.5,506.5l18.6,15.6c1.2-1.4,2.4-2.9,3.4-4.5l-14.1-11.8C228.1,503.8,224.5,504.1,222.5,506.5z"/>
<path class="st7" d="M241,522l-18.6-15.6c-1.9,2.5-1.6,6.1,0.8,8.1l9.2,7.8h8.4C240.9,522.1,241,522.1,241,522z"/>
<path class="st7" d="M144.1,513.2c-2.4-2-6-1.7-8,0.7l-7,8.3h7.4L144.1,513.2z"/>
<path class="st2" d="M144.8,521.1c2-2.4,1.7-6-0.7-8l-7.6,9h7.4L144.8,521.1z"/>
<path class="st1" d="M214.7,420c-2,2.4-1.7,6,0.7,8l15.6-18.6c-1.4-1.2-2.9-2.4-4.5-3.5L214.7,420z"/>
<path class="st7" d="M215.4,428c2.4,2,6,1.7,8-0.7l11.8-14.1c-1.3-1.3-2.7-2.6-4.2-3.9L215.4,428z"/>
<path class="st7" d="M156.7,413.9l-8.6-16.5c-0.1-0.1-0.1-0.3-0.2-0.4c-1.7,0.8-3.5,1.5-5.1,2.4l11.5,22.1
	C157.1,420.1,158.2,416.7,156.7,413.9z"/>
<path class="st2" d="M146.6,419.1c1.4,2.8,4.9,3.9,7.6,2.4l-11.5-22.1c-1.6,0.8-3.4,1.8-5,2.7c0,0.2,0.1,0.3,0.2,0.5L146.6,419.1z"
	/>
<path class="st1" d="M205.6,520l1.1,2.2h6.4C211.6,519.6,208.3,518.6,205.6,520z"/>
<path class="st7" d="M205.6,520c-1,0.5-1.8,1.3-2.3,2.2h3.4L205.6,520z"/>
<path class="st7" d="M122.9,493.7l-16.5,8.6c-0.2,0.1-0.5,0.2-0.7,0.4c0.8,1.7,1.5,3.4,2.5,5.1l22.4-11.6
	C129.2,493.4,125.7,492.3,122.9,493.7z"/>
<path class="st2" d="M128.2,503.8c2.8-1.4,3.9-4.9,2.4-7.6l-22.4,11.6c0.8,1.6,1.8,3.3,2.7,4.9c0.2-0.1,0.5-0.1,0.7-0.3L128.2,503.8
	z"/>
<path class="st1" d="M231.4,437.2c-2.8,1.4-3.9,4.9-2.4,7.6l21.4-11.2c-0.9-1.7-1.8-3.4-2.8-5L231.4,437.2z"/>
<path class="st7" d="M229.1,444.9c1.4,2.8,4.9,3.9,7.6,2.4l16.2-8.5c-0.8-1.7-1.6-3.5-2.5-5.1L229.1,444.9z"/>
<path class="st7" d="M123.2,446.7l-17.8-5.6c-0.2-0.1-0.3-0.1-0.5-0.2c-0.6,1.8-1.4,3.5-1.9,5.3l23.9,7.5
	C127.7,450.9,126.2,447.7,123.2,446.7z"/>
<path class="st2" d="M119.7,457.6c3,0.9,6.2-0.7,7.1-3.7l-23.9-7.5c-0.5,1.8-1.1,3.6-1.5,5.5c0.2,0.1,0.3,0.2,0.5,0.3L119.7,457.6z"
	/>
<path class="st1" d="M232.8,487.2l23.2,7.3c0.5-1.8,1.1-3.6,1.5-5.5l-17.7-5.6C236.9,482.5,233.8,484.2,232.8,487.2z"/>
<path class="st7" d="M236.5,494.3l17.7,5.6c0.6-1.8,1.3-3.5,1.8-5.4l-23.2-7.3C231.9,490.2,233.6,493.4,236.5,494.3z"/>
<path class="st1" d="M192.5,410.3c-0.9,3,0.7,6.2,3.7,7.1l7.3-23.1c-1.8-0.5-3.6-1.1-5.5-1.5L192.5,410.3z"/>
<path class="st7" d="M196.3,417.4c3,0.9,6.2-0.7,7.1-3.7l5.5-17.5c-1.8-0.6-3.5-1.3-5.4-1.9L196.3,417.4z"/>
<g>
	<path id="XMLID_8_" class="st8" d="M174.6,478.9c1-0.4,7.4,0,8.3,0.6c2.9,1.7,6.8,2.3,8.3,0.3c1.4-2-0.6-5.3-3.3-7.5
		c-0.8-0.7-3.8-6.4-3.7-7.4c0.1-3.3-1.3-7.2-3.9-7.4c-2.5-0.2-4.5,3.5-4.8,6.5c-0.1,1-3.7,6.5-4.7,6.9c-2.9,1.7-5.4,4.8-4.3,7
		C167.7,480.2,171.8,480,174.6,478.9z"/>
	<path id="XMLID_7_" class="st8" d="M182.6,443.7c4-0.2,6.4,7.8,6.3,14.2c0,2,5.7,13.1,6.7,14.9c0.7,1,1.7,1.9,2.8,2.4
		c-3.8-8-4.6-14.7-4.1-16.2c2-7.4,0-17-4.1-18.8c-2.7-1.3-8.6-1.4-11.7,4.9C179.6,444.1,181.1,443.7,182.6,443.7z"/>
	<path id="XMLID_6_" class="st8" d="M153.7,481.2c-2.2-3.4,3.6-9.5,9.1-12.6c1.8-1,8.4-11.5,9.5-13.2c0.6-1.2,0.8-2.4,0.7-3.7
		c-5.1,7.3-10.4,11.3-11.9,11.7c-7.4,2-14.7,8.5-14.3,13c0.3,3,3.1,8.1,10.1,7.6C155.5,483.6,154.4,482.5,153.7,481.2z"/>
	<path id="XMLID_5_" class="st8" d="M200.9,488.2c-1.9,3.6-10,1.7-15.5-1.6c-1.8-1-14.2-1.7-16.2-1.6c-1.3,0-2.5,0.5-3.5,1.3
		c8.8,0.7,14.9,3.3,16.1,4.4c5.4,5.4,14.7,8.4,18.4,5.9c2.5-1.7,5.4-6.7,1.6-12.6C202,485.4,201.8,486.9,200.9,488.2z"/>
</g>
<path class="st1" d="M504.8,460.9c-35.3,3.1-63.2,28.6-71,61.3h76.4L504.8,460.9z"/>
<path class="st2" d="M504.8,460.9l5.4,61.3h79.6C580.8,484.1,544.9,457.4,504.8,460.9z"/>
<path class="st3" d="M507.4,490.8c-19.5,1.7-35.4,14.4-42.2,31.4h45L507.4,490.8z"/>
<path class="st4" d="M507.4,490.8l2.8,31.4h48.3C550.4,502.1,530,488.8,507.4,490.8z"/>
<path class="st5" d="M508.3,500.6c-14.2,1.3-26,9.8-32.1,21.6h34L508.3,500.6z"/>
<path class="st6" d="M508.3,500.7l1.9,21.5h37.3C540.1,508.2,525,499.3,508.3,500.7z"/>
<path class="st7" d="M504.7,460.9l2.2,24.8c3.1-0.3,5.5-3,5.2-6.2l-1.6-18.5c0-0.2,0-0.3,0-0.4C508.5,460.7,506.6,460.7,504.7,460.9
	z"/>
<path class="st2" d="M499.7,461.4c0,0.2,0,0.4,0,0.5l1.6,18.5c0.3,2.9,2.7,5.2,5.6,5.1l-2.2-24.8C503.1,461,501.4,461.2,499.7,461.4
	z"/>
<path class="st7" d="M469.1,497.1l-14.2-11.9c-0.1-0.1-0.3-0.2-0.5-0.4c-1.3,1.3-2.6,2.7-3.8,4.1l19.2,16.1
	C471.8,502.6,471.5,499.1,469.1,497.1z"/>
<path class="st2" d="M461.8,505.7c2.4,2,6,1.7,8-0.7l-19.2-16.1c-1.2,1.4-2.4,2.9-3.4,4.4c0.1,0.2,0.3,0.3,0.4,0.5L461.8,505.7z"/>
<path class="st1" d="M547.1,490c-2,2.4-1.7,6,0.7,8l15.6-18.6c-1.4-1.2-2.9-2.4-4.5-3.5L547.1,490z"/>
<path class="st7" d="M547.8,498c2.4,2,6,1.7,8-0.7l11.8-14.1c-1.3-1.3-2.7-2.6-4.2-3.9L547.8,498z"/>
<path class="st7" d="M489.1,483.9l-8.6-16.5c-0.1-0.1-0.1-0.3-0.2-0.4c-1.7,0.8-3.5,1.5-5.1,2.4l11.5,22.1
	C489.5,490,490.6,486.6,489.1,483.9z"/>
<path class="st2" d="M479,489.1c1.4,2.8,4.9,3.9,7.6,2.4l-11.5-22.1c-1.6,0.8-3.4,1.8-5,2.7c0,0.2,0.1,0.3,0.2,0.5L479,489.1z"/>
<path class="st1" d="M563.9,507.2c-2.8,1.4-3.9,4.9-2.4,7.6l21.4-11.2c-0.9-1.7-1.8-3.4-2.8-5L563.9,507.2z"/>
<path class="st7" d="M561.5,514.8c1.4,2.8,4.9,3.9,7.6,2.4l16.2-8.5c-0.8-1.7-1.6-3.5-2.5-5.1L561.5,514.8z"/>
<path class="st7" d="M455.6,516.7l-17.8-5.6c-0.2-0.1-0.3-0.1-0.5-0.2c-0.6,1.8-1.4,3.5-1.9,5.3l18.7,5.9h5.4
	C459.5,519.8,458,517.5,455.6,516.7z"/>
<path class="st7" d="M459.5,522.2h-5.4l5.1,1.6C459.4,523.3,459.5,522.7,459.5,522.2z"/>
<path class="st2" d="M435.4,516.3c-0.5,1.8-1.1,3.6-1.5,5.5c0.2,0.1,0.3,0.2,0.5,0.3l0.6,0.2h19.1L435.4,516.3z"/>
<path class="st1" d="M524.9,480.3c-0.9,3,0.7,6.2,3.7,7.1l7.3-23.1c-1.8-0.5-3.6-1.1-5.5-1.5L524.9,480.3z"/>
<path class="st7" d="M528.7,487.4c3,0.9,6.2-0.7,7.1-3.7l5.5-17.5c-1.8-0.6-3.5-1.3-5.4-1.9L528.7,487.4z"/>
<path class="st8" d="M522.7,510.1c-2.7-1.3-8.6-1.4-11.7,4.9c1.1-1,2.6-1.4,4.1-1.4c2.8-0.1,4.9,3.9,5.8,8.5h6.7
	C527.4,516.6,525.5,511.4,522.7,510.1z"/>
<path class="st8" d="M505.4,521.7c-0.1,0.2-0.3,0.3-0.4,0.5h0.4C505.4,522,505.4,521.9,505.4,521.7z"/>
<line class="st12" x1="366.7" y1="223.2" x2="366.7" y2="305.1"/>
<path class="st11" d="M543.3,195.7H351.8v10h191.6c2.8,0,5-2.2,5-5S546.1,195.7,543.3,195.7z"/>
<path class="st10" d="M158.7,195.7c-2.8,0-5,2.2-5,5s2.2,5,5,5h193.1v-10H158.7z"/>
</svg>
