<?xml version="1.0" encoding="utf-8"?>
<!-- Generator: Adobe Illustrator 19.0.0, SVG Export Plug-In . SVG Version: 6.00 Build 0)  -->
<svg version="1.1" id="Layer_1" xmlns="http://www.w3.org/2000/svg" xmlns:xlink="http://www.w3.org/1999/xlink" x="0px" y="0px"
	 viewBox="96 11 512 512" style="enable-background:new 96 11 512 512;" xml:space="preserve">
<style type="text/css">
	.st0{fill:#FF8C29;}
	.st1{fill:#FD6A33;}
	.st2{fill:#365558;}
	.st3{fill:#687F82;}
	.st4{fill:#4ACFD9;}
	.st5{fill:#0295AA;}
	.st6{fill:#FFD1A9;}
	.st7{fill:none;stroke:#BCD643;stroke-width:13;stroke-linecap:round;stroke-linejoin:round;stroke-miterlimit:10;}
</style>
<g>
	<g>
		<path class="st0" d="M594.9,317.1h-71.3v28.3h71.3c2.5,0,4.5-2.4,4.5-5.3v-17.7C599.4,319.5,597.4,317.1,594.9,317.1z"/>
		<path class="st1" d="M452.2,317.1c-2.5,0-4.5,2.4-4.5,5.3V340c0,2.9,2,5.3,4.5,5.3h71.3v-28.2H452.2z"/>
		<rect x="454.5" y="327.6" class="st2" width="6.6" height="17.7"/>
		<rect x="468.8" y="327.6" class="st2" width="9.8" height="17.7"/>
		<rect x="490" y="327.6" class="st2" width="13" height="17.7"/>
		<rect x="523.6" y="327.6" class="st2" width="0.1" height="17.7"/>
		<rect x="517.4" y="327.6" class="st2" width="6.2" height="17.7"/>
		<rect x="586.2" y="327.6" class="st3" width="6.6" height="17.7"/>
		<rect x="568.6" y="327.6" class="st3" width="9.8" height="17.7"/>
		<rect x="544.2" y="327.6" class="st3" width="13" height="17.7"/>
		<rect x="523.6" y="327.6" class="st3" width="6.2" height="17.7"/>
	</g>
	<g>
		<path class="st0" d="M603.5,352.6h-71.3v28.3h71.3c2.5,0,4.5-2.4,4.5-5.3v-17.7C608,355,606,352.6,603.5,352.6z"/>
		<path class="st1" d="M460.8,352.6c-2.5,0-4.5,2.4-4.5,5.3v17.7c0,2.9,2,5.3,4.5,5.3h71.3v-28.3H460.8z"/>
		<rect x="463.1" y="363.2" class="st2" width="6.6" height="17.7"/>
		<rect x="477.4" y="363.2" class="st2" width="9.8" height="17.7"/>
		<rect x="498.6" y="363.2" class="st2" width="13" height="17.7"/>
		<rect x="532.2" y="363.2" class="st2" width="0.1" height="17.7"/>
		<rect x="526" y="363.2" class="st2" width="6.2" height="17.7"/>
		<rect x="594.8" y="363.2" class="st3" width="6.6" height="17.7"/>
		<rect x="577.3" y="363.2" class="st3" width="9.8" height="17.7"/>
		<rect x="552.8" y="363.2" class="st3" width="13" height="17.7"/>
		<rect x="532.3" y="363.2" class="st3" width="6.2" height="17.7"/>
	</g>
	<g>
		<path class="st0" d="M599.2,388.2h-71.3v28.3h71.3c2.5,0,4.5-2.4,4.5-5.3v-17.7C603.7,390.6,601.7,388.2,599.2,388.2z"/>
		<path class="st1" d="M456.6,388.2c-2.5,0-4.5,2.4-4.5,5.3v17.6c0,2.9,2,5.3,4.5,5.3h71.3v-28.2H456.6z"/>
		<rect x="458.8" y="398.7" class="st2" width="6.6" height="17.7"/>
		<rect x="473.1" y="398.7" class="st2" width="9.8" height="17.7"/>
		<rect x="494.2" y="398.7" class="st2" width="13" height="17.7"/>
		<rect x="527.8" y="398.7" class="st2" width="0.1" height="17.7"/>
		<rect x="521.6" y="398.7" class="st2" width="6.2" height="17.7"/>
		<rect x="590.4" y="398.7" class="st3" width="6.6" height="17.7"/>
		<rect x="572.9" y="398.7" class="st3" width="9.8" height="17.7"/>
		<rect x="548.5" y="398.7" class="st3" width="13" height="17.7"/>
		<rect x="527.9" y="398.7" class="st3" width="6.2" height="17.7"/>
	</g>
	<g>
		<path class="st0" d="M593.6,423.7h-71.3V452h71.3c2.5,0,4.5-2.4,4.5-5.3v-17.6C598,426.1,596,423.7,593.6,423.7z"/>
		<path class="st1" d="M450.9,423.7c-2.5,0-4.5,2.4-4.5,5.3v17.6c0,2.9,2,5.3,4.5,5.3h71.4v-28.3
			C522.3,423.7,450.9,423.7,450.9,423.7z"/>
		<rect x="453.2" y="434.3" class="st2" width="6.6" height="17.7"/>
		<rect x="467.5" y="434.3" class="st2" width="9.8" height="17.7"/>
		<rect x="488.6" y="434.3" class="st2" width="13" height="17.7"/>
		<rect x="522.2" y="434.3" class="st2" width="0.1" height="17.7"/>
		<rect x="516" y="434.3" class="st2" width="6.2" height="17.7"/>
		<rect x="584.9" y="434.3" class="st3" width="6.6" height="17.7"/>
		<rect x="567.3" y="434.3" class="st3" width="9.8" height="17.7"/>
		<rect x="542.9" y="434.3" class="st3" width="13" height="17.7"/>
		<rect x="522.3" y="434.3" class="st3" width="6.2" height="17.7"/>
	</g>
	<g>
		<path class="st0" d="M601.7,459.1h-71.4v28.3h71.3c2.5,0,4.5-2.4,4.5-5.3v-17.6C606.2,461.5,604.2,459.1,601.7,459.1z"/>
		<path class="st1" d="M459.1,459.1c-2.5,0-4.5,2.4-4.5,5.3V482c0,2.9,2,5.3,4.5,5.3h71.3V459L459.1,459.1L459.1,459.1z"/>
		<rect x="461.3" y="469.7" class="st2" width="6.6" height="17.7"/>
		<rect x="475.6" y="469.7" class="st2" width="9.8" height="17.7"/>
		<rect x="496.7" y="469.7" class="st2" width="13" height="17.7"/>
		<rect x="530.3" y="469.7" class="st2" width="0.1" height="17.7"/>
		<rect x="524.1" y="469.7" class="st2" width="6.2" height="17.7"/>
		<rect x="593" y="469.7" class="st3" width="6.6" height="17.7"/>
		<rect x="575.4" y="469.7" class="st3" width="9.8" height="17.7"/>
		<rect x="551" y="469.7" class="st3" width="13" height="17.7"/>
		<rect x="530.5" y="469.7" class="st3" width="6.2" height="17.7"/>
	</g>
	<g>
		<path class="st0" d="M596.1,494.7h-71.3V523h71.3c2.5,0,4.5-2.4,4.5-5.3v-17.6C600.6,497.1,598.5,494.7,596.1,494.7z"/>
		<path class="st1" d="M453.4,494.7c-2.5,0-4.5,2.4-4.5,5.3v17.6c0,2.9,2,5.3,4.5,5.3h71.3v-28.2H453.4z"/>
		<rect x="455.7" y="505.2" class="st2" width="6.6" height="17.7"/>
		<rect x="470" y="505.2" class="st2" width="9.8" height="17.7"/>
		<rect x="491.2" y="505.2" class="st2" width="13" height="17.7"/>
		<rect x="524.8" y="505.2" class="st2" width="0.1" height="17.7"/>
		<rect x="518.5" y="505.2" class="st2" width="6.2" height="17.7"/>
		<rect x="587.4" y="505.2" class="st3" width="6.6" height="17.7"/>
		<rect x="569.8" y="505.2" class="st3" width="9.8" height="17.7"/>
		<rect x="545.4" y="505.2" class="st3" width="13" height="17.7"/>
		<rect x="524.8" y="505.2" class="st3" width="6.2" height="17.7"/>
	</g>
</g>
<g>
	<g>
		<path class="st4" d="M423.9,317h-71.3v28.3h71.3c2.5,0,4.5-2.4,4.5-5.3v-17.6C428.4,319.4,426.4,317,423.9,317z"/>
		<path class="st5" d="M281.2,317c-2.5,0-4.5,2.4-4.5,5.3v17.6c0,2.9,2,5.3,4.5,5.3h71.3v-28.3C352.6,317,281.2,317,281.2,317z"/>
		<rect x="283.5" y="327.5" class="st2" width="6.6" height="17.7"/>
		<rect x="297.8" y="327.5" class="st2" width="9.8" height="17.7"/>
		<rect x="319" y="327.5" class="st2" width="13" height="17.7"/>
		<rect x="352.6" y="327.5" class="st2" width="0.1" height="17.7"/>
		<rect x="346.3" y="327.5" class="st2" width="6.2" height="17.7"/>
		<rect x="415.2" y="327.5" class="st3" width="6.6" height="17.7"/>
		<rect x="397.7" y="327.5" class="st3" width="9.8" height="17.7"/>
		<rect x="373.2" y="327.5" class="st3" width="13" height="17.7"/>
		<rect x="352.7" y="327.5" class="st3" width="6.2" height="17.7"/>
	</g>
	<g>
		<path class="st4" d="M416.9,352.5h-71.3v28.3h71.3c2.5,0,4.5-2.4,4.5-5.3v-17.7C421.4,354.9,419.3,352.5,416.9,352.5z"/>
		<path class="st5" d="M274.2,352.5c-2.5,0-4.5,2.4-4.5,5.3v17.6c0,2.9,2,5.3,4.5,5.3h71.3v-28.3h-71.3V352.5z"/>
		<rect x="276.5" y="363.1" class="st2" width="6.6" height="17.7"/>
		<rect x="290.7" y="363.1" class="st2" width="9.8" height="17.7"/>
		<rect x="311.9" y="363.1" class="st2" width="13" height="17.7"/>
		<rect x="345.5" y="363.1" class="st2" width="0.1" height="17.7"/>
		<rect x="339.3" y="363.1" class="st2" width="6.2" height="17.7"/>
		<rect x="408.1" y="363.1" class="st3" width="6.6" height="17.7"/>
		<rect x="390.6" y="363.1" class="st3" width="9.8" height="17.7"/>
		<rect x="366.1" y="363.1" class="st3" width="13" height="17.7"/>
		<rect x="345.6" y="363.1" class="st3" width="6.2" height="17.7"/>
	</g>
	<g>
		<path class="st4" d="M427.9,388.1h-71.3v28.3h71.3c2.5,0,4.5-2.4,4.5-5.3v-17.6C432.4,390.5,430.4,388.1,427.9,388.1z"/>
		<path class="st5" d="M285.3,388.1c-2.5,0-4.5,2.4-4.5,5.3V411c0,2.9,2,5.3,4.5,5.3h71.3V388h-71.3V388.1z"/>
		<rect x="287.5" y="398.6" class="st2" width="6.6" height="17.7"/>
		<rect x="301.8" y="398.6" class="st2" width="9.8" height="17.7"/>
		<rect x="323" y="398.6" class="st2" width="13" height="17.7"/>
		<rect x="356.6" y="398.6" class="st2" width="0.1" height="17.7"/>
		<rect x="350.4" y="398.6" class="st2" width="6.2" height="17.7"/>
		<rect x="419.2" y="398.6" class="st3" width="6.6" height="17.7"/>
		<rect x="401.7" y="398.6" class="st3" width="9.8" height="17.7"/>
		<rect x="377.2" y="398.6" class="st3" width="13" height="17.7"/>
		<rect x="356.7" y="398.6" class="st3" width="6.2" height="17.7"/>
	</g>
	<g>
		<path class="st4" d="M413.8,423.6h-71.3v28.3h71.3c2.5,0,4.5-2.4,4.5-5.3V429C418.2,426,416.2,423.6,413.8,423.6z"/>
		<path class="st5" d="M271.1,423.6c-2.5,0-4.5,2.4-4.5,5.3v17.6c0,2.9,2,5.3,4.5,5.3h71.3v-28.3h-71.3V423.6z"/>
		<rect x="273.3" y="434.2" class="st2" width="6.6" height="17.7"/>
		<rect x="287.7" y="434.2" class="st2" width="9.8" height="17.7"/>
		<rect x="308.8" y="434.2" class="st2" width="13" height="17.7"/>
		<rect x="342.4" y="434.2" class="st2" width="0.1" height="17.7"/>
		<rect x="336.2" y="434.2" class="st2" width="6.2" height="17.7"/>
		<rect x="405" y="434.2" class="st3" width="6.6" height="17.7"/>
		<rect x="387.5" y="434.2" class="st3" width="9.8" height="17.7"/>
		<rect x="363.1" y="434.2" class="st3" width="13" height="17.7"/>
		<rect x="342.5" y="434.2" class="st3" width="6.2" height="17.7"/>
	</g>
	<g>
		<path class="st4" d="M419.4,459.2h-71.3v28.3h71.3c2.5,0,4.5-2.4,4.5-5.3v-17.6C423.9,461.6,421.9,459.2,419.4,459.2z"/>
		<path class="st5" d="M276.7,459.2c-2.5,0-4.5,2.4-4.5,5.3v17.6c0,2.9,2,5.3,4.5,5.3H348v-28.3C348,459.2,276.7,459.2,276.7,459.2z
			"/>
		<rect x="279" y="469.7" class="st2" width="6.6" height="17.7"/>
		<rect x="293.3" y="469.7" class="st2" width="9.8" height="17.7"/>
		<rect x="314.4" y="469.7" class="st2" width="13" height="17.7"/>
		<rect x="348" y="469.7" class="st2" width="0.1" height="17.7"/>
		<rect x="341.8" y="469.7" class="st2" width="6.2" height="17.7"/>
		<rect x="410.6" y="469.7" class="st3" width="6.6" height="17.7"/>
		<rect x="393.1" y="469.7" class="st3" width="9.8" height="17.7"/>
		<rect x="368.7" y="469.7" class="st3" width="13" height="17.7"/>
		<rect x="348.1" y="469.7" class="st3" width="6.2" height="17.7"/>
	</g>
	<g>
		<path class="st4" d="M412.3,494.7H341V523h71.3c2.5,0,4.5-2.4,4.5-5.3v-17.6C416.8,497.1,414.8,494.7,412.3,494.7z"/>
		<path class="st5" d="M269.6,494.7c-2.5,0-4.5,2.4-4.5,5.3v17.6c0,2.9,2,5.3,4.5,5.3h71.3v-28.3h-71.3V494.7z"/>
		<rect x="271.9" y="505.3" class="st2" width="6.6" height="17.7"/>
		<rect x="286.2" y="505.3" class="st2" width="9.8" height="17.7"/>
		<rect x="307.4" y="505.3" class="st2" width="13" height="17.7"/>
		<rect x="341" y="505.3" class="st2" width="0.1" height="17.7"/>
		<rect x="334.7" y="505.3" class="st2" width="6.2" height="17.7"/>
		<rect x="403.6" y="505.3" class="st3" width="6.6" height="17.7"/>
		<rect x="386.1" y="505.3" class="st3" width="9.8" height="17.7"/>
		<rect x="361.6" y="505.3" class="st3" width="13" height="17.7"/>
		<rect x="341.1" y="505.3" class="st3" width="6.2" height="17.7"/>
	</g>
</g>
<g>
	<path class="st2" d="M220,155.5L98.7,354.6c-5.3,8.6-2.5,11.4,6.1,6.1l199.1-121.4c3.5-2.2,7.6-5.6,11.4-9.3l-85.9-85.9
		C225.6,147.9,222.2,152,220,155.5z"/>
	<path class="st5" d="M445.8,19.8c5.3-8.6,2.5-11.4-6.1-6.1L240.5,135c-3.5,2.1-7.5,5.5-11.2,9.1l85.9,85.9c3.7-3.7,7-7.7,9.1-11.2
		L445.8,19.8z"/>
	<path class="st5" d="M262.2,327.4c-12.2-12.2,11.4-55.7,52.8-97.1c0,0,0,0,0.1-0.1l-5-5l-22.9-22.9L265,180.1c0,0,0,0-0.1,0.1
		c-41.4,41.4-65.1,84.9-52.8,97.1l22.9,22.9L262.2,327.4"/>
	<path class="st4" d="M412.4,177.2c-12.2-12.2-55.7,11.4-97.1,52.8c0,0,0,0-0.1,0.1l-5-5l-22.9-22.9L265.1,180c0,0,0,0,0.1-0.1
		c41.4-41.4,84.9-65.1,97.1-52.8l22.9,22.9L412.4,177.2"/>
	<g>
		<path class="st6" d="M139.4,359.6c0,15.2,12.2,27.5,27.4,27.6V332C151.7,332.1,139.4,344.4,139.4,359.6z"/>
		<path class="st0" d="M194.7,359.6c0-15.3-12.4-27.6-27.6-27.6c-0.1,0-0.1,0-0.2,0v55.2c0.1,0,0.1,0,0.2,0
			C182.3,387.2,194.7,374.9,194.7,359.6z"/>
		<line class="st7" x1="167" y1="332" x2="166.8" y2="242.6"/>
		<path class="st6" d="M163.7,387.2c-7.3,0-13.3,6-13.3,13.3l-11,58.3c0,7.3,6,13.3,13.3,13.3h14.1v-84.8H163.7z"/>
		<path class="st0" d="M194.7,458.8l-11-58.3c0-7.3-6-13.3-13.3-13.3h-3.5V472h14.6C188.7,472,194.7,466.1,194.7,458.8z"/>
	</g>
</g>
<g>
	<path class="st0" d="M596.3,277.3H525v28.3h71.3c2.5,0,4.5-2.4,4.5-5.3v-17.7C600.8,279.7,598.8,277.3,596.3,277.3z"/>
	<path class="st1" d="M453.5,277.3c-2.5,0-4.5,2.4-4.5,5.3v17.6c0,2.9,2,5.3,4.5,5.3h71.3v-28.2H453.5z"/>
	<rect x="455.9" y="287.8" class="st2" width="6.6" height="17.7"/>
	<rect x="470.2" y="287.8" class="st2" width="9.8" height="17.7"/>
	<rect x="491.4" y="287.8" class="st2" width="13" height="17.7"/>
	<rect x="525" y="287.8" class="st2" width="0.1" height="17.7"/>
	<rect x="518.8" y="287.8" class="st2" width="6.2" height="17.7"/>
	<rect x="587.6" y="287.8" class="st3" width="6.6" height="17.7"/>
	<rect x="570" y="287.8" class="st3" width="9.8" height="17.7"/>
	<rect x="545.5" y="287.8" class="st3" width="13" height="17.7"/>
	<rect x="525" y="287.8" class="st3" width="6.2" height="17.7"/>
</g>
<g>
	<path class="st0" d="M573.6,244.1l-66-27.1l-10.7,26.2l66,27.1c2.3,0.9,5.1-0.5,6.2-3.2l6.7-16.4C576.8,248,575.9,245,573.6,244.1z
		"/>
	<path class="st1" d="M441.6,189.9c-2.3-0.9-5.1,0.5-6.2,3.2l-6.7,16.4c-1.1,2.7-0.2,5.7,2.2,6.6l66,27.1l10.7-26.2L441.6,189.9z"/>
	
		<rect x="436.1" y="201.2" transform="matrix(-0.9252 -0.3794 0.3794 -0.9252 766.1608 571.0945)" class="st2" width="6.6" height="17.7"/>
	
		<rect x="449.2" y="207.2" transform="matrix(-0.9252 -0.3794 0.3794 -0.9252 792.194 588.2906)" class="st2" width="9.8" height="17.7"/>
	
		<rect x="468.7" y="215.9" transform="matrix(-0.9252 -0.3794 0.3794 -0.9252 829.5246 612.9492)" class="st2" width="13" height="17.7"/>
	
		<rect x="500.2" y="226.2" transform="matrix(-0.9252 -0.3794 0.3794 -0.9252 873.9774 642.3123)" class="st2" width="0.1" height="17.7"/>
	
		<rect x="494.3" y="225" transform="matrix(-0.9252 -0.3794 0.3794 -0.9252 868.8199 638.9056)" class="st2" width="6.2" height="17.7"/>
	
		<rect x="557.9" y="251.2" transform="matrix(-0.9252 -0.3794 0.3794 -0.9252 981.7941 713.5302)" class="st3" width="6.6" height="17.7"/>
	
		<rect x="541.6" y="245.1" transform="matrix(-0.9252 -0.3794 0.3794 -0.9252 955.7609 696.334)" class="st3" width="9.8" height="17.7"/>
	
		<rect x="518.8" y="236.4" transform="matrix(-0.9252 -0.3794 0.3794 -0.9252 918.2666 671.5673)" class="st3" width="13" height="17.7"/>
	
		<rect x="500.1" y="227.4" transform="matrix(-0.9252 -0.3794 0.3794 -0.9252 879.1349 645.7191)" class="st3" width="6.2" height="17.7"/>
</g>
<g>
	<path class="st4" d="M458.8,238.6h-71.3v28.3h71.3c2.5,0,4.5-2.4,4.5-5.3V244C463.3,241,461.3,238.6,458.8,238.6z"/>
	<path class="st5" d="M316.1,238.6c-2.5,0-4.5,2.4-4.5,5.3v17.6c0,2.9,2,5.3,4.5,5.3h71.3v-28.3
		C387.4,238.6,316.1,238.6,316.1,238.6z"/>
	<rect x="318.4" y="249.1" class="st2" width="6.6" height="17.7"/>
	<rect x="332.7" y="249.1" class="st2" width="9.8" height="17.7"/>
	<rect x="353.8" y="249.1" class="st2" width="13" height="17.7"/>
	<rect x="387.4" y="249.1" class="st2" width="0.1" height="17.7"/>
	<rect x="381.2" y="249.1" class="st2" width="6.2" height="17.7"/>
	<rect x="450" y="249.1" class="st3" width="6.6" height="17.7"/>
	<rect x="432.5" y="249.1" class="st3" width="9.8" height="17.7"/>
	<rect x="408.1" y="249.1" class="st3" width="13" height="17.7"/>
	<rect x="387.5" y="249.1" class="st3" width="6.2" height="17.7"/>
</g>
<g>
	<path class="st4" d="M434.2,277.3h-71.3v28.3h71.3c2.5,0,4.5-2.4,4.5-5.3v-17.6C438.7,279.7,436.7,277.3,434.2,277.3z"/>
	<path class="st5" d="M291.5,277.3c-2.5,0-4.5,2.4-4.5,5.3v17.6c0,2.9,2,5.3,4.5,5.3h71.3v-28.3h-71.3V277.3z"/>
	<rect x="293.8" y="287.9" class="st2" width="6.6" height="17.7"/>
	<rect x="308.1" y="287.9" class="st2" width="9.8" height="17.7"/>
	<rect x="329.3" y="287.9" class="st2" width="13" height="17.7"/>
	<rect x="362.9" y="287.9" class="st2" width="0.1" height="17.7"/>
	<rect x="356.6" y="287.9" class="st2" width="6.2" height="17.7"/>
	<rect x="425.5" y="287.9" class="st3" width="6.6" height="17.7"/>
	<rect x="408" y="287.9" class="st3" width="9.8" height="17.7"/>
	<rect x="383.5" y="287.9" class="st3" width="13" height="17.7"/>
	<rect x="363" y="287.9" class="st3" width="6.2" height="17.7"/>
</g>
</svg>
