<?xml version="1.0" encoding="utf-8"?>
<!-- Generator: Adobe Illustrator 19.0.0, SVG Export Plug-In . SVG Version: 6.00 Build 0)  -->
<svg version="1.1" id="Layer_1" xmlns="http://www.w3.org/2000/svg" xmlns:xlink="http://www.w3.org/1999/xlink" x="0px" y="0px"
	 viewBox="96 11 512 512" style="enable-background:new 96 11 512 512;" xml:space="preserve">
<style type="text/css">
	.st0{display:none;fill:#020202;}
	.st1{fill:#F0353D;}
	.st2{fill:#FD6A33;}
	.st3{fill:#FF8C29;}
	.st4{fill:#FFD1A9;}
	.st5{fill:#365558;}
	.st6{fill:#0295AA;}
	.st7{fill:#4ACFD9;}
	.st8{fill:none;stroke:#000000;stroke-miterlimit:10;}
	.st9{fill:#9BAAAB;}
	.st10{fill:#CDD4D5;}
	.st11{fill:#E6EAEA;}
	.st12{fill:#FFFFFF;}
	.st13{fill:#BCD643;}
</style>
<rect x="494" y="-173" class="st0" width="512" height="512"/>
<g>
	<rect x="-478" y="10.9" class="st1" width="128" height="128"/>
	<rect x="-350" y="10.9" class="st2" width="128" height="128"/>
	<rect x="-222" y="10.9" class="st3" width="128" height="128"/>
	<rect x="-94" y="10.9" class="st4" width="128" height="128"/>
	<rect x="-478" y="138.9" class="st5" width="128" height="128"/>
	<rect x="-350" y="138.9" class="st6" width="128" height="128"/>
	<rect x="-222" y="138.9" class="st7" width="128" height="128"/>
	<rect x="-94" y="138.9" class="st8" width="128" height="128"/>
	<rect x="-478" y="266.9" class="st9" width="128" height="128"/>
	<rect x="-350" y="266.9" class="st10" width="128" height="128"/>
	<rect x="-222" y="266.9" class="st11" width="128" height="128"/>
	<rect x="-94" y="266.9" class="st12" width="128" height="128"/>
	<rect x="-478" y="394.9" class="st13" width="128" height="128"/>
	<rect x="-350" y="394.9" class="st8" width="128" height="128"/>
	<rect x="-222" y="394.9" class="st8" width="128" height="128"/>
	<rect x="-94" y="394.9" class="st8" width="128" height="128"/>
</g>
<polygon class="st1" points="608,266.9 608,523.5 421,523.5 486.7,468 519.2,463.5 537,435.7 548.6,421.4 560.2,369.9 576.2,344.9 
	581.2,310.1 597.4,282.1 "/>
<polygon class="st13" points="96,274.4 96,523.5 273.2,523.5 215.3,472 189,453.9 183,422.6 153.9,386.9 147,346.9 125,329.9 
	106,292.9 "/>
<path class="st4" d="M479.6,85.8H222.4c-3.9,0-7.1,3.2-7.1,7.1v348c0,3.9,3.2,7.1,7.1,7.1h185.4c1.8,0,3.7-0.7,5-2.1l71.9-71.9
	c1.3-1.3,2.1-3.1,2.1-5V93C486.7,89,483.5,85.8,479.6,85.8z"/>
<path class="st3" d="M222.3,85.8c-3.9,0-7.1,3.2-7.1,7.1v348c0,3.9,3.2,7.1,7.1,7.1H351V85.8H222.3z"/>
<path class="st2" d="M407.7,376.3v71.9l0,0c1.8,0,3.7-0.7,5-2.1l71.9-71.9c1.3-1.3,2.1-3.1,2.1-5l0,0h-71.9
	C410.9,369.1,407.7,372.3,407.7,376.3z"/>
<path class="st4" d="M443.4,124"/>
</svg>
