<?xml version="1.0" encoding="utf-8"?>
<!-- Generator: Adobe Illustrator 19.0.0, SVG Export Plug-In . SVG Version: 6.00 Build 0)  -->
<svg version="1.1" id="Layer_1" xmlns="http://www.w3.org/2000/svg" xmlns:xlink="http://www.w3.org/1999/xlink" x="0px" y="0px"
	 viewBox="206 -206 512 512" style="enable-background:new 206 -206 512 512;" xml:space="preserve">
<style type="text/css">
	.st0{fill:#FFFFFF;}
	.st1{fill:#E6EAEA;}
	.st2{fill:#FF8C29;}
	.st3{fill:#FD6A33;}
	.st4{fill:#9BAAAB;}
	.st5{fill:#FFD1A9;}
	.st6{fill:#365558;}
	.st7{fill:#687F82;}
	.st8{fill:#0295AA;}
	.st9{fill:#4ACFD9;}
</style>
<path class="st0" d="M646.8-205.8H277.2c-5.5,0-9.9,5-9.9,11.2v364.1l124.1,136.5h255.4c5.5,0,9.9-5,9.9-11.2v-489.4
	C656.5-200.8,652.3-205.8,646.8-205.8z"/>
<path class="st1" d="M277.5-205.8c-5.6,0-10.2,5-10.2,11.2v364.1l124.1,136.5h70.5V-206L277.5-205.8L277.5-205.8z"/>
<g>
	<path class="st2" d="M603-94H337.2c-5.6,0-10.2-5-10.2-11.2s4.6-11.2,10.2-11.2H603c5.6,0,10.2,5,10.2,11.2
		C613.2-98.9,608.6-94,603-94z"/>
	<path class="st2" d="M603,1.6H337.2c-5.6,0-10.2-5-10.2-11.2s4.6-11.2,10.2-11.2H603c5.6,0,10.2,5,10.2,11.2
		C613.2-3.3,608.6,1.6,603,1.6z"/>
	<path class="st2" d="M603,97.1H337.2c-5.6,0-10.2-5-10.2-11.2s4.6-11.2,10.2-11.2H603c5.6,0,10.2,5,10.2,11.2
		C613.2,92,608.6,97.1,603,97.1z"/>
	<path class="st2" d="M603,192.6H337.2c-5.6,0-10.2-5-10.2-11.2s4.6-11.2,10.2-11.2H603c5.6,0,10.2,5,10.2,11.2
		S608.6,192.6,603,192.6z"/>
</g>
<g>
	<path class="st3" d="M337.2-116.3c-5.6,0-10.2,5-10.2,11.2S331.6-94,337.2-94h124.8v-22.3H337.2z"/>
	<path class="st3" d="M337.2-20.8c-5.6,0-10.2,5-10.2,11.2s4.6,11.2,10.2,11.2h124.8v-22.3H337.2z"/>
	<path class="st3" d="M327.1,85.9c0,6.1,4.6,11.2,10.2,11.2h124.8V74.8H337.2C331.6,74.8,327.1,79.7,327.1,85.9z"/>
	<path class="st3" d="M327.1,181.4c0,6.1,4.6,11.2,10.2,11.2h124.8v-22.3H337.2C331.6,170.3,327.1,175.2,327.1,181.4z"/>
</g>
<g>
	<path id="SVGCleanerId_0_1_" class="st4" d="M381.3,169.5H267.5L391.5,306V180.7C391.5,174.4,387,169.5,381.3,169.5z"/>
</g>
<path class="st5" d="M669.3,84"/>
<g>
	<g>
		<g>
			<path class="st2" d="M791.5-66.5H691.3v38.8h100.2c3.5,0,6.3-3.3,6.3-7.3v-24.2C797.8-63.2,795-66.5,791.5-66.5z"/>
			<path class="st3" d="M591.1-66.5c-3.5,0-6.3,3.3-6.3,7.3V-35c0,4,2.8,7.3,6.3,7.3h100.2v-38.8H591.1z"/>
			<rect x="594.3" y="-52" class="st6" width="9.2" height="24.3"/>
			<rect x="614.4" y="-52" class="st6" width="13.8" height="24.3"/>
			<rect x="644.1" y="-52" class="st6" width="18.3" height="24.3"/>
			<rect x="691.3" y="-52" class="st6" width="0.1" height="24.3"/>
			<rect x="682.6" y="-52" class="st6" width="8.7" height="24.3"/>
			<rect x="779.2" y="-52" class="st7" width="9.2" height="24.3"/>
			<rect x="754.6" y="-52" class="st7" width="13.8" height="24.3"/>
			<rect x="720.3" y="-52" class="st7" width="18.3" height="24.3"/>
			<rect x="691.4" y="-52" class="st7" width="8.7" height="24.3"/>
		</g>
		<g>
			<path class="st2" d="M803.6-17.8H703.4V21h100.2c3.5,0,6.3-3.3,6.3-7.3v-24.2C809.9-14.5,807.1-17.8,803.6-17.8z"/>
			<path class="st3" d="M603.2-17.8c-3.5,0-6.3,3.3-6.3,7.3v24.2c0,4,2.8,7.3,6.3,7.3h100.2v-38.8H603.2z"/>
			<rect x="606.4" y="-3.3" class="st6" width="9.2" height="24.3"/>
			<rect x="626.5" y="-3.3" class="st6" width="13.8" height="24.3"/>
			<rect x="656.2" y="-3.3" class="st6" width="18.3" height="24.3"/>
			<rect x="703.4" y="-3.3" class="st6" width="0.1" height="24.3"/>
			<rect x="694.7" y="-3.3" class="st6" width="8.7" height="24.3"/>
			<rect x="791.3" y="-3.3" class="st7" width="9.2" height="24.3"/>
			<rect x="766.7" y="-3.3" class="st7" width="13.8" height="24.3"/>
			<rect x="732.4" y="-3.3" class="st7" width="18.3" height="24.3"/>
			<rect x="703.5" y="-3.3" class="st7" width="8.7" height="24.3"/>
		</g>
		<g>
			<path class="st2" d="M797.5,31H697.3v38.8h100.2c3.5,0,6.3-3.3,6.3-7.3V38.3C803.8,34.3,801,31,797.5,31z"/>
			<path class="st3" d="M597.2,31c-3.5,0-6.3,3.3-6.3,7.3v24.2c0,4,2.8,7.3,6.3,7.3h100.2V31H597.2z"/>
			<rect x="600.3" y="45.5" class="st6" width="9.2" height="24.3"/>
			<rect x="620.4" y="45.5" class="st6" width="13.8" height="24.3"/>
			<rect x="650.1" y="45.5" class="st6" width="18.3" height="24.3"/>
			<rect x="697.3" y="45.5" class="st6" width="0.1" height="24.3"/>
			<rect x="688.6" y="45.5" class="st6" width="8.7" height="24.3"/>
			<rect x="785.2" y="45.5" class="st7" width="9.2" height="24.3"/>
			<rect x="760.6" y="45.5" class="st7" width="13.8" height="24.3"/>
			<rect x="726.3" y="45.5" class="st7" width="18.3" height="24.3"/>
			<rect x="697.4" y="45.5" class="st7" width="8.7" height="24.3"/>
		</g>
		<g>
			<path class="st2" d="M789.6,79.7H689.4v38.8h100.2c3.5,0,6.3-3.3,6.3-7.3V87C795.9,83,793.1,79.7,789.6,79.7z"/>
			<path class="st3" d="M589.3,79.7c-3.5,0-6.3,3.3-6.3,7.3v24.2c0,4,2.8,7.3,6.3,7.3h100.2V79.7C689.5,79.7,589.3,79.7,589.3,79.7z
				"/>
			<rect x="592.5" y="94.2" class="st6" width="9.2" height="24.3"/>
			<rect x="612.5" y="94.2" class="st6" width="13.8" height="24.3"/>
			<rect x="642.2" y="94.2" class="st6" width="18.3" height="24.3"/>
			<rect x="689.4" y="94.2" class="st6" width="0.1" height="24.3"/>
			<rect x="680.7" y="94.2" class="st6" width="8.7" height="24.3"/>
			<rect x="777.4" y="94.2" class="st7" width="9.2" height="24.3"/>
			<rect x="752.7" y="94.2" class="st7" width="13.8" height="24.3"/>
			<rect x="718.4" y="94.2" class="st7" width="18.3" height="24.3"/>
			<rect x="689.5" y="94.2" class="st7" width="8.7" height="24.3"/>
		</g>
		<g>
			<path class="st2" d="M801,128.3H700.8v38.8H801c3.5,0,6.3-3.3,6.3-7.3v-24.2C807.4,131.6,804.5,128.3,801,128.3z"/>
			<path class="st3" d="M600.7,128.3c-3.5,0-6.3,3.3-6.3,7.3v24.2c0,4,2.8,7.3,6.3,7.3h100.2v-38.8H600.7z"/>
			<rect x="603.9" y="142.8" class="st6" width="9.2" height="24.3"/>
			<rect x="623.9" y="142.8" class="st6" width="13.8" height="24.3"/>
			<rect x="653.6" y="142.8" class="st6" width="18.3" height="24.3"/>
			<rect x="700.8" y="142.8" class="st6" width="0.1" height="24.3"/>
			<rect x="692.1" y="142.8" class="st6" width="8.7" height="24.3"/>
			<rect x="788.8" y="142.8" class="st7" width="9.2" height="24.3"/>
			<rect x="764.1" y="142.8" class="st7" width="13.8" height="24.3"/>
			<rect x="729.8" y="142.8" class="st7" width="18.3" height="24.3"/>
			<rect x="701" y="142.8" class="st7" width="8.7" height="24.3"/>
		</g>
		<g>
			<path class="st2" d="M793.2,177.1H693v38.8h100.2c3.5,0,6.3-3.3,6.3-7.3v-24.2C799.5,180.4,796.6,177.1,793.2,177.1z"/>
			<path class="st3" d="M592.8,177.1c-3.5,0-6.3,3.3-6.3,7.3v24.1c0,4,2.8,7.3,6.3,7.3H693v-38.7H592.8z"/>
			<rect x="596" y="191.5" class="st6" width="9.2" height="24.3"/>
			<rect x="616" y="191.5" class="st6" width="13.8" height="24.3"/>
			<rect x="645.8" y="191.5" class="st6" width="18.3" height="24.3"/>
			<rect x="693" y="191.5" class="st6" width="0.1" height="24.3"/>
			<rect x="684.2" y="191.5" class="st6" width="8.7" height="24.3"/>
			<rect x="780.9" y="191.5" class="st7" width="9.2" height="24.3"/>
			<rect x="756.2" y="191.5" class="st7" width="13.8" height="24.3"/>
			<rect x="721.9" y="191.5" class="st7" width="18.3" height="24.3"/>
			<rect x="693.1" y="191.5" class="st7" width="8.7" height="24.3"/>
		</g>
	</g>
	<path class="st5" d="M714.8,232.9"/>
	<path class="st5" d="M961.9,212.2c-7.4-8.4-18.9-43.4-36.1-54.4c-26.9-27.2-66.9-53.5-80.3-62.8c-5.6-3.8-14.3-7.7-23.1-12v112.5
		l-14.9-23.4v106.6c26.1,5.4,49.9,10.1,53.3,10.8c6.4,1.3,11.2,6.8,11.2,6.8l24.7,26.5l88.1-85.3C985,237.5,969.2,220.7,961.9,212.2
		z"/>
	<path class="st5" d="M822.5,83c-5.2-2.6-10.3-5.3-14.9-8.4V144c0.5,0.7,0.9,1.3,1.2,1.9c4.2,7.5,2.9,13.5-1.2,17.2v9l14.9,23.4V83z
		"/>
	<path class="st5" d="M763.7,62.6c-13.1,12.5,0.8,29.5,0.8,29.5s33.7,37.4,43,51.9V74.5c-3.9-2.5-7.6-5.2-11.4-7.7
		C785.9,59.9,771.6,55.1,763.7,62.6z"/>
	<path class="st5" d="M795.7,177.1c-12.8,10.4-18,11.6-32.9,13.8c-10.5,1.6-51.1,4-68.9,5.3c-17.8,1.3-33.4,4.3-33.4,4.3
		s-48.6-24-67.8-36.1c-20.6-10.5-26.6-6.2-35.3,4c-8.7,10.2-3.4,25.7,4.7,32.5c3.2,2.6,29.9,33.6,54.6,47.1
		c5.3,5.4,19.7,11.4,35.3,14.4c4.8,0.1,47.6,5.3,79,7c14.6,0.9,53.7,4.2,76.7,9.1V172.1l-3.3-5.2
		C801.5,170.4,798.2,174.9,795.7,177.1z"/>
	<path class="st5" d="M804.3,166.9l3.3,5.2v-9C806.7,163.9,805.6,165.3,804.3,166.9z"/>
	<path class="st2" d="M925.8,294.6l-24.1-25.5c-4.2-4.6-15.8-15.5-33-18.9l-1.1-0.2c-22.3-4.5-42.7-8.7-60.1-12.3v20.5
		c16.6,3.5,35.6,7.4,56.2,11.5l1.1,0.2c11.7,2.3,19.8,10.3,22,12.8l0.1,0.1l0.1,0.1l24.3,25.7L925.8,294.6z"/>
	<path class="st2" d="M807.5,258v-20.5c-23.8-4.9-41.9-9-52.1-11.7c-18.2-4.7-25.3-5.6-40.3-3.2c-15,2.5-15.8,19.7-0.5,20.2
		c15.2,0.4,9.3-4.5,35.9,2.5C761.3,248.3,781.5,252.8,807.5,258z"/>
	<path class="st7" d="M961.1,403.8h101V248.9c0,0-36.3-40.4-39.1-43.2c-2.8-2.8-7.4-4.6-12,0S893.9,318.8,893.9,318.8l-6.8,6.7
		L961.1,403.8z"/>
	<path class="st8" d="M964.2,407.9h101V253c0,0-20.7-24.5-23.6-27.4c-2.8-2.8-7.5-4.6-12,0c-4.6,4.6-117.1,113.1-117.1,113.1
		l-6.8,6.7L964.2,407.9z"/>
	<circle class="st5" cx="945.5" cy="345.9" r="14.3"/>
	<circle class="st5" cx="977.2" cy="317.3" r="14.3"/>
</g>
<g>
	<g>
		<g>
			<path class="st9" d="M346-37.2H245.8V1.6H346c3.5,0,6.3-3.3,6.3-7.3v-24.2C352.3-33.9,349.4-37.2,346-37.2z"/>
			<path class="st8" d="M145.6-37.2c-3.5,0-6.3,3.3-6.3,7.3v24.2c0,4,2.8,7.3,6.3,7.3h100.2v-38.8C245.8-37.2,145.6-37.2,145.6-37.2
				z"/>
			<rect x="148.8" y="-22.8" class="st6" width="9.2" height="24.3"/>
			<rect x="168.8" y="-22.8" class="st6" width="13.8" height="24.3"/>
			<rect x="198.6" y="-22.8" class="st6" width="18.3" height="24.3"/>
			<rect x="245.8" y="-22.8" class="st6" width="0.1" height="24.3"/>
			<rect x="237" y="-22.8" class="st6" width="8.7" height="24.3"/>
			<rect x="333.7" y="-22.8" class="st7" width="9.2" height="24.3"/>
			<rect x="309.1" y="-22.8" class="st7" width="13.8" height="24.3"/>
			<rect x="274.7" y="-22.8" class="st7" width="18.3" height="24.3"/>
			<rect x="245.9" y="-22.8" class="st7" width="8.7" height="24.3"/>
		</g>
		<g>
			<path class="st9" d="M336.1,11.5H235.9v38.8h100.2c3.5,0,6.3-3.3,6.3-7.3V18.8C342.4,14.8,339.5,11.5,336.1,11.5z"/>
			<path class="st8" d="M135.7,11.5c-3.5,0-6.3,3.3-6.3,7.3V43c0,4,2.8,7.3,6.3,7.3h100.2V11.5H135.7z"/>
			<rect x="138.9" y="26" class="st6" width="9.2" height="24.3"/>
			<rect x="158.9" y="26" class="st6" width="13.8" height="24.3"/>
			<rect x="188.7" y="26" class="st6" width="18.3" height="24.3"/>
			<rect x="235.9" y="26" class="st6" width="0.1" height="24.3"/>
			<rect x="227.1" y="26" class="st6" width="8.7" height="24.3"/>
			<rect x="323.8" y="26" class="st7" width="9.2" height="24.3"/>
			<rect x="299.2" y="26" class="st7" width="13.8" height="24.3"/>
			<rect x="264.8" y="26" class="st7" width="18.3" height="24.3"/>
			<rect x="236" y="26" class="st7" width="8.7" height="24.3"/>
		</g>
		<g>
			<path class="st9" d="M351.6,60.3H251.4v38.8h100.2c3.5,0,6.3-3.3,6.3-7.3V67.6C357.9,63.6,355.1,60.3,351.6,60.3z"/>
			<path class="st8" d="M151.3,60.3c-3.5,0-6.3,3.3-6.3,7.3v24.2c0,4,2.8,7.3,6.3,7.3h100.2V60.3H151.3z"/>
			<rect x="154.4" y="74.7" class="st6" width="9.2" height="24.3"/>
			<rect x="174.5" y="74.7" class="st6" width="13.8" height="24.3"/>
			<rect x="204.2" y="74.7" class="st6" width="18.3" height="24.3"/>
			<rect x="251.4" y="74.7" class="st6" width="0.1" height="24.3"/>
			<rect x="242.7" y="74.7" class="st6" width="8.7" height="24.3"/>
			<rect x="339.3" y="74.7" class="st7" width="9.2" height="24.3"/>
			<rect x="314.7" y="74.7" class="st7" width="13.8" height="24.3"/>
			<rect x="280.4" y="74.7" class="st7" width="18.3" height="24.3"/>
			<rect x="251.5" y="74.7" class="st7" width="8.7" height="24.3"/>
		</g>
		<g>
			<path class="st9" d="M331.7,109H231.5v38.8h100.2c3.5,0,6.3-3.3,6.3-7.3v-24.2C338,112.3,335.2,109,331.7,109z"/>
			<path class="st8" d="M131.3,109c-3.5,0-6.3,3.3-6.3,7.3v24.2c0,4,2.8,7.3,6.3,7.3h100.2V109H131.3z"/>
			<rect x="134.5" y="123.5" class="st6" width="9.2" height="24.3"/>
			<rect x="154.6" y="123.5" class="st6" width="13.8" height="24.3"/>
			<rect x="184.3" y="123.5" class="st6" width="18.3" height="24.3"/>
			<rect x="231.5" y="123.5" class="st6" width="0.1" height="24.3"/>
			<rect x="222.8" y="123.5" class="st6" width="8.7" height="24.3"/>
			<rect x="319.4" y="123.5" class="st7" width="9.2" height="24.3"/>
			<rect x="294.8" y="123.5" class="st7" width="13.8" height="24.3"/>
			<rect x="260.5" y="123.5" class="st7" width="18.3" height="24.3"/>
			<rect x="231.6" y="123.5" class="st7" width="8.7" height="24.3"/>
		</g>
		<g>
			<path class="st9" d="M339.6,157.8H239.4v38.8h100.2c3.5,0,6.3-3.3,6.3-7.3v-24.2C345.9,161.1,343.1,157.8,339.6,157.8z"/>
			<path class="st8" d="M139.2,157.8c-3.5,0-6.3,3.3-6.3,7.3v24.2c0,4,2.8,7.3,6.3,7.3h100.2v-38.8
				C239.4,157.8,139.2,157.8,139.2,157.8z"/>
			<rect x="142.4" y="172.2" class="st6" width="9.2" height="24.3"/>
			<rect x="162.5" y="172.2" class="st6" width="13.8" height="24.3"/>
			<rect x="192.2" y="172.2" class="st6" width="18.3" height="24.3"/>
			<rect x="239.4" y="172.2" class="st6" width="0.1" height="24.3"/>
			<rect x="230.7" y="172.2" class="st6" width="8.7" height="24.3"/>
			<rect x="327.3" y="172.2" class="st7" width="9.2" height="24.3"/>
			<rect x="302.7" y="172.2" class="st7" width="13.8" height="24.3"/>
			<rect x="268.4" y="172.2" class="st7" width="18.3" height="24.3"/>
			<rect x="239.5" y="172.2" class="st7" width="8.7" height="24.3"/>
		</g>
		<g>
			<path class="st9" d="M329.7,206.5H229.5v38.8h100.2c3.5,0,6.3-3.3,6.3-7.3v-24.2C336,209.8,333.2,206.5,329.7,206.5z"/>
			<path class="st8" d="M129.3,206.5c-3.5,0-6.3,3.3-6.3,7.3V238c0,4,2.8,7.3,6.3,7.3h100.2v-38.8H129.3z"/>
			<rect x="132.5" y="221" class="st6" width="9.2" height="24.3"/>
			<rect x="152.5" y="221" class="st6" width="13.8" height="24.3"/>
			<rect x="182.3" y="221" class="st6" width="18.3" height="24.3"/>
			<rect x="229.5" y="221" class="st6" width="0.1" height="24.3"/>
			<rect x="220.7" y="221" class="st6" width="8.7" height="24.3"/>
			<rect x="317.4" y="221" class="st7" width="9.2" height="24.3"/>
			<rect x="292.8" y="221" class="st7" width="13.8" height="24.3"/>
			<rect x="258.5" y="221" class="st7" width="18.3" height="24.3"/>
			<rect x="229.6" y="221" class="st7" width="8.7" height="24.3"/>
		</g>
	</g>
	<path class="st2" d="M54.5,359.4l22.3-24.3c0,0,4.4-5,10.2-6.2c3.1-0.6,24.6-5,48.4-10.2l-0.9-105.3c-3.7-3.3-5-8.7-1.3-15.7
		c0.3-0.5,0.6-1.1,1.1-1.7l-0.5-63.1c-11.1,7.6-26.3,13.2-34.3,18.9c-12.2,8.5-48.3,32.8-72.6,57.8c-15.7,10.1-25.8,41.9-32.4,49.7
		c-6.6,7.8-20.9,23.2-20.9,23.2L54.5,359.4z"/>
	<path class="st2" d="M173.2,148.4c0,0,12.6-15.5,0.5-26.9c-7.3-6.8-20.4-2.3-29.5,4.1c-3.4,2.5-6.8,4.8-10.2,7.1l0.5,63.1
		C142.7,182.7,173.2,148.4,173.2,148.4z"/>
	<path class="st3" d="M276.9,302.7c14.2-3,27.3-8.4,32-13.4c22.4-12.5,46.5-40.9,49.4-43.3c7.4-6.3,12-20.4,4.1-29.6
		c-8-9.3-13.4-13.1-32.2-3.4c-17.4,11.1-61.4,33.4-61.4,33.4s-14.2-2.7-30.4-3.7c-16.2-1.1-53.1-3-62.7-4.4
		c-13.5-1.9-18.3-2.9-30.1-12.3c-3.5-2.8-8.4-10.2-11.1-12.6l0.9,105.1c21-4.6,56.4-7.9,69.8-8.8
		C233.6,307.8,272.5,302.8,276.9,302.7z"/>
	<path class="st5" d="M219.4,276.2"/>
	<path class="st5" d="M41.2,346.4l21.9-23.6l0.1-0.1l0.1-0.1c2-2.2,9.4-9.6,19.9-11.8l1-0.2c18.8-3.9,36-7.6,51.1-10.9l-0.1-18.7
		c-15.8,3.4-34.3,7.5-54.6,11.6l-1,0.2C63.9,296,53.5,306,49.7,310.3l-21.8,23.5L41.2,346.4z"/>
	<path class="st5" d="M187.1,287.9c24.2-6.5,18.8-2,32.6-2.6c13.9-0.5,13-16.1-0.6-18.3c-13.6-2.1-20.2-1.3-36.7,3.1
		c-9.3,2.5-25.8,6.4-47.3,11l0.1,18.7C158.9,294.8,177.3,290.5,187.1,287.9z"/>
	<path class="st7" d="M63.4,361.6l-6.3-6c0,0-103.2-97.8-107.4-102c-4.3-4.2-8.3-2.5-10.9,0.1c-2.6,2.6-35.3,39.7-35.3,39.7l1.2,141
		l91.9-0.7L63.4,361.6z"/>
	<path class="st8" d="M46.7,380l-6.3-6c0,0-103.2-97.8-107.4-102c-4.2-4.2-8.3-2.5-10.9,0.1c-2.6,2.6-21.2,25.1-21.2,25.1l1.1,141
		l91.9-0.7L46.7,380z"/>
	<circle class="st5" cx="10.4" cy="380.7" r="13"/>
	<circle class="st5" cx="-18.6" cy="355" r="13"/>
	<path class="st5" d="M219.3,278.7"/>
</g>
</svg>
