<?xml version="1.0" encoding="utf-8"?>
<!-- Generator: Adobe Illustrator 19.0.0, SVG Export Plug-In . SVG Version: 6.00 Build 0)  -->
<svg version="1.1" id="Layer_1" xmlns="http://www.w3.org/2000/svg" xmlns:xlink="http://www.w3.org/1999/xlink" x="0px" y="0px"
	 viewBox="96 11 512 512" style="enable-background:new 96 11 512 512;" xml:space="preserve">
<style type="text/css">
	.st0{display:none;}
	.st1{fill:#F0353D;}
	.st2{fill:#FD6A33;}
	.st3{fill:#FF8C29;}
	.st4{fill:#FFD1A9;}
	.st5{fill:#365558;}
	.st6{fill:#0295AA;}
	.st7{fill:#4ACFD9;}
	.st8{fill:none;stroke:#000000;stroke-miterlimit:10;}
	.st9{fill:#9BAAAB;}
	.st10{fill:#CDD4D5;}
	.st11{fill:#E6EAEA;}
	.st12{fill:#FFFFFF;}
	.st13{fill:#BCD643;}
	.st14{fill:none;stroke:#4ACFD9;stroke-miterlimit:10;}
</style>
<polygon class="st0" points="972.7,-607 714,-607 714,-95 1226,-95 1226,-258.9 972.7,-258.9 "/>
<rect x="972.7" y="-607" class="st0" width="253.3" height="348.1"/>
<g class="st0">
	
		<text transform="matrix(1 0 0 1 750.4224 -476.0488)" style="display:inline;fill:#CDD4D5; font-family:'Saira-Black'; font-size:64.1866px;">E = mc</text>
	
		<text transform="matrix(1 0 0 1 943.1075 -497.4227)" style="display:inline;fill:#CDD4D5; font-family:'Saira-Black'; font-size:37.4208px;">2</text>
</g>
<g>
	<rect x="-530" y="-10" class="st1" width="128" height="128"/>
	<rect x="-402" y="-10" class="st2" width="128" height="128"/>
	<rect x="-274" y="-10" class="st3" width="128" height="128"/>
	<rect x="-146" y="-10" class="st4" width="128" height="128"/>
	<rect x="-530" y="118" class="st5" width="128" height="128"/>
	<rect x="-402" y="118" class="st6" width="128" height="128"/>
	<rect x="-274" y="118" class="st7" width="128" height="128"/>
	<rect x="-146" y="118" class="st8" width="128" height="128"/>
	<rect x="-530" y="246" class="st9" width="128" height="128"/>
	<rect x="-402" y="246" class="st10" width="128" height="128"/>
	<rect x="-274" y="246" class="st11" width="128" height="128"/>
	<rect x="-146" y="246" class="st12" width="128" height="128"/>
	<rect x="-530" y="374" class="st13" width="128" height="128"/>
	<rect x="-402" y="374" class="st8" width="128" height="128"/>
	<rect x="-274" y="374" class="st8" width="128" height="128"/>
	<rect x="-146" y="374" class="st8" width="128" height="128"/>
</g>
<path class="st14" d="M213,69.5"/>
<path class="st10" d="M549.5,11c32.3,0,58.5,26.2,58.5,58.5c0,20.2-10.2,38-25.8,48.5h-278c15.6-10.5,25.8-28.3,25.8-48.5
	c0-32.3-26.2-58.5-58.5-58.5H549.5z"/>
<path class="st6" d="M154.5,523c32.3,0,58.5-26.2,58.5-58.5v-395c0-32.3,26.2-58.5,58.5-58.5h278C517.2,11,491,37.2,491,69.5v395
	c0,32.3-26.2,58.5-58.5,58.5H154.5z"/>
<path class="st10" d="M432.5,523c-32.3,0-58.5-26.2-58.5-58.5c0-15.6,6.1-29.8,16.1-40.3h-278c-10,10.5-16.1,24.7-16.1,40.3
	c0,32.3,26.2,58.5,58.5,58.5H432.5z"/>
<path class="st7" d="M294.5,523c32.3,0,58.5-26.2,58.5-58.5v-395c0-32.3,26.2-58.5,58.5-58.5h138C517.2,11,491,37.2,491,69.5v395
	c0,32.3-26.2,58.5-58.5,58.5H294.5z"/>
<path class="st11" d="M432.5,523c-32.3,0-58.5-26.2-58.5-58.5c0-15.6,6.1-29.8,16.1-40.3h-138c-10,10.5-16.1,24.7-16.1,40.3
	c0,32.3,26.2,58.5,58.5,58.5H432.5z"/>
<path class="st11" d="M286.4,136.8l-54.5,54.5c-4.6,4.6-4.6,12,0,16.6l0,0c4.6,4.6,12,4.6,16.6,0l54.5-54.5c4.6-4.6,4.6-12,0-16.6
	C298.4,132.2,290.9,132.2,286.4,136.8z"/>
<path class="st11" d="M248.4,191.3c-4.6-4.6-12-4.6-16.6,0l0,0c-4.6,4.6-4.6,12,0,16.6l54.5,54.5c4.6,4.6,12,4.6,16.6,0v0
	c4.6-4.6,4.6-12,0-16.6L248.4,191.3z"/>
<circle class="st11" cx="311.9" cy="200.1" r="13.5"/>
<path class="st12" d="M353,186.5v27c7.5,0,13.5-6.1,13.5-13.5C366.5,192.6,360.4,186.5,353,186.5z"/>
<path class="st11" d="M339.4,200.1c0,7.5,6.1,13.5,13.5,13.5v-27C345.5,186.5,339.4,192.6,339.4,200.1z"/>
<circle class="st12" cx="395.5" cy="200.1" r="13.5"/>
<path class="st12" d="M474.9,191.3L474.9,191.3c4.6,4.6,4.6,12,0,16.6l-54.5,54.5c-4.6,4.6-12,4.6-16.6,0l0,0
	c-4.6-4.6-4.6-12,0-16.6l54.5-54.5C462.9,186.8,470.4,186.8,474.9,191.3z"/>
<path class="st12" d="M474.9,207.8L474.9,207.8c-4.6,4.6-12,4.6-16.6,0l-54.5-54.5c-4.6-4.6-4.6-12,0-16.6v0c4.6-4.6,12-4.6,16.6,0
	l54.5,54.5C479.5,195.8,479.5,203.3,474.9,207.8z"/>
</svg>
