<?xml version="1.0" encoding="utf-8"?>
<!-- Generator: Adobe Illustrator 19.0.0, SVG Export Plug-In . SVG Version: 6.00 Build 0)  -->
<svg version="1.1" id="Layer_1" xmlns="http://www.w3.org/2000/svg" xmlns:xlink="http://www.w3.org/1999/xlink" x="0px" y="0px"
	 viewBox="96 11 512 512" style="enable-background:new 96 11 512 512;" xml:space="preserve">
<style type="text/css">
	.st0{fill:#0295AA;}
	.st1{fill:#365558;}
	.st2{fill:#4ACFD9;}
	.st3{fill:#E6EAEA;}
	.st4{fill:#FD6A33;}
	.st5{fill:#FF8C29;}
	.st6{fill:#F0353D;}
	.st7{fill:#FFD1A9;}
	.st8{fill:#9BAAAB;}
	.st9{fill:#CDD4D5;}
	.st10{fill:#FFFFFF;}
	.st11{fill:#BCD643;}
	.st12{fill:#E34C40;}
</style>
<path class="st0" d="M316.2,130c-0.1,0-22.9,5.5-47.8,24.4c1.3,3.6,2,7.3,2,11.1c0,14.9-6.1,28.8-17.6,40.3
	c-12.3,12.3-24.9,15.5-34,15.9c-4.7,11.8-7.9,23.4-9.5,33.6C194.4,347.8,159.9,372,154,442.4c-4.4,51.6,27.4,80.6,55.9,80.6h142.2
	V130H316.2z"/>
<path class="st1" d="M321.6,93.3c-5.8,0-10.4,5.6-10.4,12.4v12c0,6.8,4.7,12.4,10.4,12.4h30.3V93.3H321.6z"/>
<path class="st0" d="M382.1,93.3c5.8,0,10.4,5.6,10.4,12.4v12c0,6.8-4.7,12.4-10.4,12.4h-30.3V93.3H382.1z"/>
<path class="st0" d="M312.2,11.9c-14.9-3.1-27.7,1.1-25.9,18.4c2,19.6,20.5,34,27.4,46.4c4.8,8.6,7.6,16.5,19.4,16.5h18.7
	c0,0,0-68.3,0-76.7C337.9,16.6,324.9,14.5,312.2,11.9z"/>
<path class="st2" d="M197,435.7c1.3,1.7,1.9,3.9,1.8,6.6c-0.9,13.8,2.7,27.3,9.9,37c2.4,3.2,2.4,8.4,0,11.6s-6.2,3.2-8.6,0
	c-9.8-13.2-14.7-31.5-13.4-50c0.3-4.5,3.3-7.8,6.7-7.4C194.6,433.5,195.9,434.4,197,435.7z"/>
<path class="st2" d="M388.1,130h-35.9v393h142.2c28.5,0,60.3-29,55.9-80.6c-5.9-70.4-40.4-94.6-55.3-187.1
	c-4.7-29.1-21.5-68.8-51.1-94.4C416.2,136.8,388.2,130,388.1,130z"/>
<path class="st2" d="M352.2,16.6c0,8.4,0,76.7,0,76.7h18.7c11.8,0,14.6-7.9,19.4-16.5c6.9-12.4,25.5-26.8,27.4-46.4
	c1.7-17.3-11-21.5-25.9-18.4C379.1,14.5,366.1,16.6,352.2,16.6z"/>
<path class="st3" d="M513.1,433.5c3.4-0.4,6.4,2.9,6.7,7.4c1.3,18.5-3.6,36.8-13.4,50c-2.4,3.2-6.2,3.2-8.6,0
	c-2.4-3.2-2.4-8.4,0-11.6c7.2-9.7,10.8-23.2,9.9-37c-0.1-2.7,0.5-4.9,1.8-6.6C510.4,434.4,511.8,433.5,513.1,433.5z"/>
<path class="st4" d="M141.2,145.4c-6.4-3.4-9.5-7.9-9.5-13.3c0-14.2,11.7-28.9,35.1-44.1c1.8-1.3,2.7-2.7,2.7-4.4c0-1.8-1-3.9-3-6.3
	c-2.5-2.9-4.7-4.4-6.5-4.4c-1.1,0-2.2,0.5-3.3,1.6C116.2,103.3,96,131.9,96,160.4c0,10.2,3.1,19.4,9.3,27.8
	c6.5,9.1,13.7,13.6,21.5,13.6c7.8,0,15.1-3.4,21.8-10.1c7.8-7.8,11.7-16.5,11.7-26.1C160.2,158.7,153.9,151.9,141.2,145.4z"/>
<path class="st4" d="M257.1,88c1.8-1.3,2.7-2.7,2.7-4.4c0-1.8-1-3.9-3-6.3c-2.5-2.9-4.7-4.4-6.5-4.4c-1.1,0-2.2,0.5-3.3,1.6
	c-40.5,28.7-60.7,57.3-60.7,85.7c0,10.2,3.1,19.4,9.3,27.8c6.5,9.1,13.6,13.6,21.2,13.6c7.8,0,15.1-3.4,21.8-10.1
	c7.8-7.8,11.7-16.5,11.7-26.1c0-6.9-6.3-13.6-18.8-20.1c-6.4-3.4-9.5-7.9-9.5-13.3C222,117.9,233.7,103.2,257.1,88z"/>
<path class="st5" d="M517.9,52.4c0,28.5-20.2,57.1-60.7,85.7c-1.1,1.1-2.2,1.6-3.3,1.6c-1.8,0-4-1.5-6.5-4.4c-2-2.4-3-4.4-3-6.3
	c0-1.6,0.9-3.1,2.7-4.4c23.4-15.2,35.1-29.9,35.1-44.1c0-5.4-3.2-9.9-9.5-13.3c-12.5-6.5-18.8-13.2-18.8-20.1
	c0-9.6,3.9-18.3,11.7-26.1c6.7-6.7,14-10.1,21.8-10.1c7.6,0,14.8,4.5,21.5,13.6C514.9,33,517.9,42.2,517.9,52.4z M608.3,52.4
	c0,28.5-20.2,57.1-60.7,85.7c-1.1,1.1-2.2,1.6-3.3,1.6c-1.8,0-4-1.5-6.5-4.4c-2-2.4-3-4.4-3-6.3c0-1.6,0.9-3.1,2.7-4.4
	c23.4-15.2,35.1-29.9,35.1-44.1c0-5.4-3.2-9.9-9.5-13.3c-12.5-6.5-18.8-13.2-18.8-20.1c0-9.6,3.9-18.3,11.7-26.1
	c6.7-6.7,14-10.1,21.8-10.1c7.6,0,14.7,4.5,21.2,13.6C605.2,33,608.3,42.2,608.3,52.4z"/>
<rect x="-530" y="28" class="st6" width="128" height="128"/>
<rect x="-402" y="28" class="st4" width="128" height="128"/>
<rect x="-274" y="28" class="st5" width="128" height="128"/>
<rect x="-146" y="28" class="st7" width="128" height="128"/>
<rect x="-530" y="156" class="st1" width="128" height="128"/>
<rect x="-402" y="156" class="st0" width="128" height="128"/>
<rect x="-274" y="156" class="st2" width="128" height="128"/>
<rect x="-530" y="284" class="st8" width="128" height="128"/>
<rect x="-402" y="284" class="st9" width="128" height="128"/>
<rect x="-274" y="284" class="st3" width="128" height="128"/>
<rect x="-146" y="284" class="st10" width="128" height="128"/>
<rect x="-530" y="412" class="st11" width="128" height="128"/>
<g>
	<path class="st4" d="M239.6,352.6c0,61.8,50.1,111.9,111.9,111.9V240.8C289.6,240.8,239.6,290.9,239.6,352.6z"/>
	<path class="st5" d="M463.3,352.6c0-61.8-50.1-111.9-111.9-111.9v223.7C413.2,464.5,463.3,414.4,463.3,352.6z"/>
	<path class="st8" d="M281.4,352.6c0,38.6,31.4,70,70,70V282.6C312.8,282.6,281.4,314,281.4,352.6z"/>
	<path class="st9" d="M421.4,352.6c0-38.6-31.4-70-70-70v140.1C390,422.7,421.4,391.2,421.4,352.6z"/>
	<path class="st3" d="M295.3,352.6c0,30.9,25.2,56.1,56.1,56.1V296.5C320.5,296.5,295.3,321.7,295.3,352.6z"/>
	<path class="st10" d="M407.5,352.6c0-30.9-25.2-56.1-56.1-56.1v112.2C382.3,408.7,407.5,383.6,407.5,352.6z"/>
	<path class="st7" d="M351.3,240.8v34.8c4.3,0,7.9-3.6,7.9-7.9v-25.9c0-0.2,0-0.4,0-0.6C356.6,240.9,354,240.8,351.3,240.8z"/>
	<path class="st5" d="M344.3,241c0,0.2,0,0.5,0,0.7v25.9c0,4.1,3.1,7.5,7.1,7.9v-34.8C349,240.8,346.7,240.9,344.3,241z"/>
	<path class="st4" d="M351.5,430.5v34c2.7,0,5.3-0.1,7.9-0.3v-25.8C359.4,434,355.8,430.5,351.5,430.5z"/>
	<path class="st7" d="M344.3,438.4v25.9c2.4,0.1,4.7,0.2,7.1,0.2v-34C347.4,430.9,344.3,434.3,344.3,438.4z"/>
	<path class="st7" d="M266.9,344.7H241c-0.4,0-0.7,0-1.1,0.1c-0.2,2.6-0.3,5.2-0.3,7.8h35.2C274.8,348.3,271.2,344.7,266.9,344.7z"
		/>
	<path class="st5" d="M266.9,360.5c4.3,0,7.9-3.6,7.9-7.9h-35.2c0,2.6,0.1,5.2,0.3,7.8c0.4,0.1,0.7,0.1,1.1,0.1H266.9z"/>
	<path class="st4" d="M437.5,344.7c-4.3,0-7.9,3.6-7.9,7.9h33.6v0c0-2.7-0.1-5.3-0.3-7.9H437.5z"/>
	<path class="st7" d="M437.5,360.5H463c0.2-2.6,0.3-5.2,0.3-7.9h-33.6C429.6,357,433.2,360.5,437.5,360.5z"/>
	<path class="st7" d="M297.4,286.7l-18.3-18.3c-0.2-0.2-0.4-0.3-0.6-0.5c-2,1.7-3.9,3.5-5.8,5.3l24.7,24.7
		C300.5,294.8,300.5,289.8,297.4,286.7z"/>
	<path class="st5" d="M286.3,297.9c3.1,3.1,8.1,3.1,11.2,0l-24.7-24.7c-1.9,1.8-3.6,3.7-5.3,5.7c0.2,0.2,0.4,0.5,0.6,0.7
		L286.3,297.9z"/>
	<path class="st4" d="M407,407.4l23.9,23.9c1.9-1.9,3.6-3.8,5.3-5.8l-18.1-18.1C415.1,404.3,410,404.3,407,407.4z"/>
	<path class="st7" d="M407,418.6l18.2,18.2c2-1.7,3.9-3.5,5.8-5.4L407,407.4C403.9,410.5,403.9,415.5,407,418.6z"/>
	<path class="st7" d="M286,407.1l-18.3,18.3c-0.2,0.2-0.4,0.5-0.6,0.7c1.7,2,3.5,3.9,5.3,5.7l24.7-24.7
		C294.1,404.1,289.1,404.1,286,407.1z"/>
	<path class="st5" d="M297.2,418.3c3.1-3.1,3.1-8.1,0-11.2l-24.7,24.7c1.8,1.8,3.8,3.6,5.7,5.3c0.2-0.2,0.5-0.3,0.7-0.5L297.2,418.3
		z"/>
	<path class="st4" d="M406.7,286.4c-3.1,3.1-3.1,8.1,0,11.2l23.9-23.9c-1.9-1.9-3.8-3.6-5.8-5.4L406.7,286.4z"/>
	<path class="st7" d="M406.7,297.6c3.1,3.1,8.1,3.1,11.2,0l18.1-18.1c-1.7-2-3.5-3.9-5.4-5.8L406.7,297.6z"/>
	<path class="st7" d="M326.8,270.8l-9.9-23.9c-0.1-0.2-0.2-0.4-0.2-0.5c-2.5,0.8-5,1.7-7.4,2.7l13.3,32.1
		C326.6,279.4,328.5,274.8,326.8,270.8z"/>
	<path class="st5" d="M312.2,276.8c1.7,4,6.3,5.9,10.3,4.3L309.3,249c-2.4,1-4.8,2.1-7.2,3.2c0.1,0.2,0.1,0.4,0.2,0.6L312.2,276.8z"
		/>
	<path class="st4" d="M381.8,424.2l13.1,31.5c2.4-1,4.8-2.2,7.2-3.4l-9.9-23.9C390.5,424.4,385.8,422.5,381.8,424.2z"/>
	<path class="st7" d="M377.6,434.5l9.9,23.9c0,0,0,0,0,0.1c2.5-0.9,5-1.8,7.4-2.8l-13.1-31.5C377.8,425.8,375.9,430.5,377.6,434.5z"
		/>
	<path class="st7" d="M270.2,377.6l-23.9,9.9c-0.3,0.1-0.6,0.3-0.9,0.5c0.8,2.5,1.7,4.9,2.7,7.3l32.5-13.5
		C278.8,377.9,274.2,376,270.2,377.6z"/>
	<path class="st5" d="M276.2,392.2c4-1.7,5.9-6.3,4.3-10.3L248,395.4c1,2.4,2.1,4.8,3.3,7.1c0.3-0.1,0.7-0.2,1-0.3L276.2,392.2z"/>
	<path class="st4" d="M427.9,312.3c-4,1.7-5.9,6.3-4.3,10.3l31.1-12.9c-1-2.4-2.1-4.8-3.3-7.2L427.9,312.3z"/>
	<path class="st7" d="M423.6,322.7c1.7,4,6.3,5.9,10.3,4.3l23.6-9.8c-0.8-2.5-1.7-5-2.8-7.4L423.6,322.7z"/>
	<path class="st7" d="M276.2,312.3l-23.9-9.9c-0.2-0.1-0.5-0.2-0.7-0.2c-1.2,2.3-2.3,4.7-3.3,7.1l32.2,13.4
		C282.2,318.6,280.3,314,276.2,312.3z"/>
	<path class="st5" d="M270.2,326.9c4,1.7,8.7-0.3,10.3-4.3l-32.2-13.4c-1,2.4-1.9,4.9-2.8,7.4c0.2,0.1,0.5,0.2,0.7,0.4L270.2,326.9z
		"/>
	<path class="st4" d="M423.6,381.9l31.4,13c1-2.4,1.9-4.9,2.7-7.4l-23.8-9.9C429.9,376,425.3,377.9,423.6,381.9z"/>
	<path class="st7" d="M427.9,392.2l23.9,9.9c1.2-2.4,2.2-4.8,3.2-7.2l-31.4-13C421.9,385.9,423.9,390.6,427.9,392.2z"/>
	<path class="st7" d="M311.7,428l-9.9,23.9c-0.1,0.3-0.2,0.6-0.3,0.9c2.3,1.2,4.7,2.3,7.1,3.3l13.4-32.3
		C318.1,422,313.4,423.9,311.7,428z"/>
	<path class="st5" d="M326.3,434c1.7-4-0.3-8.7-4.3-10.3L308.7,456c2.4,1,4.9,1.9,7.4,2.7c0.1-0.3,0.3-0.5,0.4-0.8L326.3,434z"/>
	<path class="st4" d="M377.1,270.3c-1.7,4,0.3,8.7,4.3,10.3l13-31.3c-2.4-1-4.9-1.9-7.4-2.8L377.1,270.3z"/>
	<path class="st7" d="M381.3,280.6c4,1.7,8.7-0.3,10.3-4.3l9.8-23.7c-2.4-1.2-4.7-2.3-7.2-3.3L381.3,280.6z"/>
	<g>
		<path id="XMLID_4_" class="st12" d="M343.7,363.3c1.4-0.4,10.3,1,11.5,1.8c3.7,2.6,9.2,4.1,11.4,1.4c2.2-2.7-0.1-7.3-3.6-10.9
			c-1-1.1-4.4-9.3-4.3-10.7c0.5-4.6-1-10.2-4.5-10.7c-3.4-0.5-6.7,4.4-7.5,8.6c-0.3,1.5-6,8.5-7.3,9.1c-4.2,1.9-8.1,5.9-6.8,9.2
			C333.9,364.2,339.7,364.5,343.7,363.3z"/>
		<path id="XMLID_3_" class="st12" d="M359.2,315.4c5.6,0.2,7.9,11.6,7,20.5c-0.3,2.8,6.3,18.8,7.5,21.4c0.8,1.6,2.1,2.8,3.6,3.7
			c-4.3-11.6-4.6-20.9-3.8-23c3.6-10,2-23.5-3.4-26.7c-3.7-2.1-11.7-3-16.8,5.4C355,315.6,357.1,315.1,359.2,315.4z"/>
		<path id="XMLID_2_" class="st12" d="M314.5,363.9c-2.6-5,6.1-12.7,14.3-16.4c2.6-1.2,13.1-14.9,14.8-17.1c0.9-1.5,1.4-3.2,1.3-5
			c-7.9,9.5-15.7,14.4-18,14.8c-10.5,1.8-21.4,10-21.4,16.3c0,4.2,3.3,11.6,13.1,11.8C316.7,367.5,315.2,365.9,314.5,363.9z"/>
		<path id="XMLID_1_" class="st12" d="M379.2,379.4c-3,4.7-14,1.1-21.3-4.2c-2.3-1.7-19.5-4-22.3-4.2c-1.7-0.1-3.5,0.4-5,1.3
			c12.1,2.1,20.4,6.4,21.8,8.2c6.9,8.2,19.4,13.5,24.8,10.4c3.7-2.1,8.4-8.7,3.7-17.3C381.1,375.6,380.5,377.7,379.2,379.4z"/>
	</g>
</g>
</svg>
