<?xml version="1.0" encoding="utf-8"?>
<!-- Generator: Adobe Illustrator 19.0.0, SVG Export Plug-In . SVG Version: 6.00 Build 0)  -->
<svg version="1.1" id="Layer_1" xmlns="http://www.w3.org/2000/svg" xmlns:xlink="http://www.w3.org/1999/xlink" x="0px" y="0px"
	 viewBox="96 11 512 512" style="enable-background:new 96 11 512 512;" xml:space="preserve">
<style type="text/css">
	.st0{display:none;fill:#020202;}
	.st1{fill:#FFD1A9;}
	.st2{fill:#FF8C29;}
	.st3{fill:#FD6A33;}
</style>
<rect x="590" y="-162" class="st0" width="512" height="512"/>
<path class="st1" d="M196.2,440.9V160.6h-93c-3.9,0-7.1,3.2-7.1,7.1v348c0,3.9,3.2,7.1,7.1,7.1h185.4c1.8,0,3.7-0.7,5-2.1l52.7-52.7
	h-123C208.4,468,196.2,455.8,196.2,440.9z"/>
<path class="st2" d="M196.2,440.9V160.6h-93.1c-3.9,0-7.1,3.2-7.1,7.1v348c0,3.9,3.2,7.1,7.1,7.1h128.7V468h-8.5
	C208.4,468,196.2,455.8,196.2,440.9z"/>
<path class="st3" d="M288.5,523c1.8,0,3.7-0.7,5-2.1l52.9-52.9h-57.9V523z"/>
<path class="st1" d="M324.2,198.8"/>
<path class="st1" d="M316.4,366.1V86.2h-93.8c-3.9,0-7.1,3.2-7.1,7.1v348c0,3.9,3.2,7.1,7.1,7.1H408c1.8,0,3.7-0.7,5-2.1l53.1-53.1
	H343.5C328.6,393.2,316.4,381,316.4,366.1z"/>
<path class="st2" d="M316.4,366.1V86.2h-93.9c-3.9,0-7.1,3.2-7.1,7.1v348c0,3.9,3.2,7.1,7.1,7.1h128.7v-55.2h-7.7
	C328.6,393.2,316.4,381,316.4,366.1z"/>
<path class="st3" d="M407.9,448.6c1.8,0,3.7-0.7,5-2.1l53.3-53.3h-58.3V448.6z"/>
<g>
	<path class="st1" d="M600.8,11H343.6c-3.9,0-7.1,3.2-7.1,7.1v348c0,3.9,3.2,7.1,7.1,7.1H529c1.8,0,3.7-0.7,5-2.1l71.9-71.9
		c1.3-1.3,2.1-3.1,2.1-5v-276C607.9,14.2,604.7,11,600.8,11z"/>
	<path class="st2" d="M343.5,11c-3.9,0-7.1,3.2-7.1,7.1v348c0,3.9,3.2,7.1,7.1,7.1h128.7V11H343.5z"/>
	<path class="st3" d="M528.9,301.5v71.9l0,0c1.8,0,3.7-0.7,5-2.1l71.9-71.9c1.3-1.3,2.1-3.1,2.1-5l0,0H536
		C532.1,294.3,528.9,297.5,528.9,301.5z"/>
</g>
<path class="st1" d="M564.6,49.2"/>
</svg>
