<?xml version="1.0" encoding="utf-8"?>
<!-- Generator: Adobe Illustrator 19.0.0, SVG Export Plug-In . SVG Version: 6.00 Build 0)  -->
<svg version="1.1" id="Layer_1" xmlns="http://www.w3.org/2000/svg" xmlns:xlink="http://www.w3.org/1999/xlink" x="0px" y="0px"
	 viewBox="96 11 512 512" style="enable-background:new 96 11 512 512;" xml:space="preserve">
<style type="text/css">
	.st0{display:none;}
	.st1{fill:#F0353D;}
	.st2{fill:#FD6A33;}
	.st3{fill:#FF8C29;}
	.st4{fill:#FFD1A9;}
	.st5{fill:#365558;}
	.st6{fill:#0295AA;}
	.st7{fill:#4ACFD9;}
	.st8{fill:none;stroke:#000000;stroke-miterlimit:10;}
	.st9{fill:#9BAAAB;}
	.st10{fill:#CDD4D5;}
	.st11{fill:#E6EAEA;}
	.st12{fill:#FFFFFF;}
	.st13{fill:#BCD643;}
	.st14{fill:none;stroke:#FFD1A9;stroke-width:10;stroke-linecap:round;stroke-linejoin:round;stroke-miterlimit:10;}
	
		.st15{fill:none;stroke:#BCD643;stroke-width:15;stroke-linecap:round;stroke-linejoin:round;stroke-miterlimit:10;stroke-dasharray:11,30;}
	.st16{fill:none;stroke:#FFFFFF;stroke-width:10;stroke-linecap:round;stroke-miterlimit:10;}
	.st17{fill:none;stroke:#4ACFD9;stroke-miterlimit:10;}
</style>
<polygon class="st0" points="1452.7,-552 1194,-552 1194,-40 1706,-40 1706,-203.9 1452.7,-203.9 "/>
<rect x="1452.7" y="-552" class="st0" width="253.3" height="348.1"/>
<g class="st0">
	
		<text transform="matrix(1 0 0 1 1230.4224 -421.0488)" style="display:inline;fill:#CDD4D5; font-family:'Saira-Black'; font-size:64.1866px;">E = mc</text>
	
		<text transform="matrix(1 0 0 1 1423.1074 -442.4227)" style="display:inline;fill:#CDD4D5; font-family:'Saira-Black'; font-size:37.4208px;">2</text>
</g>
<g>
	<rect x="-698" y="45" class="st1" width="128" height="128"/>
	<rect x="-570" y="45" class="st2" width="128" height="128"/>
	<rect x="-442" y="45" class="st3" width="128" height="128"/>
	<rect x="-314" y="45" class="st4" width="128" height="128"/>
	<rect x="-698" y="173" class="st5" width="128" height="128"/>
	<rect x="-570" y="173" class="st6" width="128" height="128"/>
	<rect x="-442" y="173" class="st7" width="128" height="128"/>
	<rect x="-314" y="173" class="st8" width="128" height="128"/>
	<rect x="-698" y="301" class="st9" width="128" height="128"/>
	<rect x="-570" y="301" class="st10" width="128" height="128"/>
	<rect x="-442" y="301" class="st11" width="128" height="128"/>
	<rect x="-314" y="301" class="st12" width="128" height="128"/>
	<rect x="-698" y="429" class="st13" width="128" height="128"/>
	<rect x="-570" y="429" class="st8" width="128" height="128"/>
	<rect x="-442" y="429" class="st8" width="128" height="128"/>
	<rect x="-314" y="429" class="st8" width="128" height="128"/>
</g>
<g>
	<path class="st3" d="M351.7,223.7v82.8c22.8,0,41.4-18.5,41.4-41.4C393,242.3,374.7,223.7,351.7,223.7z"/>
	<path class="st2" d="M310.3,265.1c0,22.8,18.5,41.4,41.4,41.4v-82.8C328.8,223.7,310.3,242.2,310.3,265.1z"/>
	<path class="st14" d="M381.9,255.4c5.2,15.7-3.4,32.6-19.1,37.8"/>
	<g>
		<path class="st7" d="M566.6,222.3v82.8c22.8,0,41.4-18.5,41.4-41.4S589.5,222.3,566.6,222.3z"/>
		<path class="st6" d="M525.2,263.7c0,22.8,18.5,41.4,41.4,41.4v-82.8C543.8,222.3,525.2,240.9,525.2,263.7z"/>
		<line class="st15" x1="411.7" y1="265.1" x2="511.3" y2="265.1"/>
		<path class="st16" d="M597.8,256.2c3.9,16.1-5.9,32.3-21.9,36.2"/>
	</g>
	<path class="st17" d="M346.8,395.2"/>
	<path class="st7" d="M137.4,226.7v82.8c22.8,0,41.4-18.5,41.4-41.4C178.8,245.3,160.2,226.7,137.4,226.7z"/>
	<path class="st6" d="M96,268.1c0,22.8,18.5,41.4,41.4,41.4v-82.8C114.5,226.7,96,245.3,96,268.1z"/>
	<line class="st15" x1="292.3" y1="266.7" x2="192.7" y2="266.7"/>
	<path class="st16" d="M168.6,260.6c3.9,16.1-5.9,32.3-21.9,36.2"/>
	<path class="st7" d="M348.7,11v82.8c22.8,0,41.4-18.5,41.4-41.4S371.5,11,348.7,11z"/>
	<path class="st6" d="M307.3,52.4c0,22.8,18.5,41.4,41.4,41.4V11C325.9,11,307.3,29.5,307.3,52.4z"/>
	<line class="st15" x1="350.1" y1="207.3" x2="350.1" y2="107.7"/>
	<path class="st16" d="M379.9,44.8c3.9,16.1-5.9,32.3-21.9,36.2"/>
	<path class="st7" d="M353.1,440.2V523c22.8,0,41.4-18.5,41.4-41.4C394.5,458.8,375.9,440.2,353.1,440.2z"/>
	<path class="st6" d="M311.7,481.6c0,22.8,18.5,41.4,41.4,41.4v-82.8C330.3,440.2,311.7,458.8,311.7,481.6z"/>
	<line class="st15" x1="351.7" y1="326.7" x2="351.7" y2="426.3"/>
	<path class="st16" d="M384.3,474.1c3.9,16.1-5.9,32.3-21.9,36.2"/>
	<path class="st7" d="M501.4,71.5v82.8c22.8,0,41.4-18.5,41.4-41.4S524.3,71.5,501.4,71.5z"/>
	<path class="st6" d="M460,112.9c0,22.8,18.5,41.4,41.4,41.4V71.5C478.6,71.5,460,90.1,460,112.9z"/>
	<line class="st15" x1="392.9" y1="223.5" x2="463.3" y2="153.1"/>
	<path class="st16" d="M532.6,105.4c3.9,16.1-5.9,32.3-21.9,36.2"/>
	<path class="st7" d="M201,378.2v82.8c22.8,0,41.4-18.5,41.4-41.4C242.4,396.7,223.8,378.2,201,378.2z"/>
	<path class="st6" d="M159.6,419.5c0,22.8,18.5,41.4,41.4,41.4v-82.8C178.2,378.2,159.6,396.7,159.6,419.5z"/>
	<line class="st15" x1="309.6" y1="309" x2="239.2" y2="379.4"/>
	<path class="st16" d="M232.2,412c3.9,16.1-5.9,32.3-21.9,36.2"/>
	<path class="st7" d="M197.9,76.2V159c22.8,0,41.4-18.5,41.4-41.4S220.7,76.2,197.9,76.2z"/>
	<path class="st6" d="M156.5,117.6c0,22.8,18.5,41.4,41.4,41.4V76.2C175.1,76.2,156.5,94.7,156.5,117.6z"/>
	<line class="st15" x1="308.5" y1="226.1" x2="238.1" y2="155.7"/>
	<path class="st16" d="M229.1,110c3.9,16.1-5.9,32.3-21.9,36.2"/>
	<path class="st7" d="M504.5,376.6v82.8c22.8,0,41.4-18.5,41.4-41.4C545.9,395.2,527.4,376.6,504.5,376.6z"/>
	<path class="st6" d="M463.2,418c0,22.8,18.5,41.4,41.4,41.4v-82.8C481.7,376.6,463.2,395.2,463.2,418z"/>
	<line class="st15" x1="394" y1="309.4" x2="464.4" y2="379.8"/>
	<path class="st16" d="M535.8,410.4c3.9,16.1-5.9,32.3-21.9,36.2"/>
</g>
</svg>
