<?xml version="1.0" encoding="iso-8859-1"?>
<!-- Generator: Adobe Illustrator 19.0.0, SVG Export Plug-In . SVG Version: 6.00 Build 0)  -->
<svg version="1.1" id="Layer_1" xmlns="http://www.w3.org/2000/svg" xmlns:xlink="http://www.w3.org/1999/xlink" x="0px" y="0px"
	 viewBox="0 0 512 512" style="enable-background:new 0 0 512 512;" xml:space="preserve">
<path style="fill:#E6EAEA;" d="M501.76,0H10.24C5.775,0,2.156,3.62,2.156,8.084v413.912c0,4.465,3.62,8.084,8.084,8.084h491.52
	c4.466,0,8.084-3.62,8.084-8.084V8.084C509.844,3.62,506.226,0,501.76,0z"/>
<path style="fill:#CDD4D5;" d="M281.869,413.912h-51.739c-4.465,0-8.084,3.62-8.084,8.084v81.92c0,4.465,3.62,8.084,8.084,8.084
	h51.739c4.466,0,8.084-3.62,8.084-8.084v-81.92C289.954,417.531,286.335,413.912,281.869,413.912z"/>
<g>
	<path style="fill:#9BAAAB;" d="M316.362,465.651H195.638c-16.345,0-29.642,13.297-29.642,29.642v8.623
		c0,4.465,3.62,8.084,8.084,8.084h163.84c4.466,0,8.084-3.62,8.084-8.084v-8.623C346.004,478.947,332.706,465.651,316.362,465.651z"
		/>
	<path style="fill:#9BAAAB;" d="M230.131,413.912c-4.465,0-8.084,3.62-8.084,8.084v81.92c0,4.465,3.62,8.084,8.084,8.084H256
		v-98.088H230.131z"/>
</g>
<g>
	<path style="fill:#687F82;" d="M195.638,465.651c-16.345,0-29.642,13.297-29.642,29.642v8.623c0,4.465,3.62,8.084,8.084,8.084H256
		v-46.349H195.638z"/>
	<path style="fill:#687F82;" d="M509.844,349.238H2.156v72.758c0,4.465,3.62,8.084,8.084,8.084h491.52
		c4.465,0,8.084-3.62,8.084-8.084V349.238z"/>
</g>
<path style="fill:#365558;" d="M268.935,391.276h-25.869c-4.465,0-8.084-3.618-8.084-8.084s3.62-8.084,8.084-8.084h25.869
	c4.465,0,8.084,3.618,8.084,8.084S273.399,391.276,268.935,391.276z"/>
<g>
	<path style="fill:#FFFFFF;" d="M402.594,391.276h-86.232c-4.465,0-8.084-3.618-8.084-8.084s3.62-8.084,8.084-8.084h86.232
		c4.465,0,8.084,3.618,8.084,8.084S407.058,391.276,402.594,391.276z"/>
	<path style="fill:#FFFFFF;" d="M467.267,391.276h-30.181c-4.465,0-8.084-3.618-8.084-8.084s3.62-8.084,8.084-8.084h30.181
		c4.465,0,8.084,3.618,8.084,8.084S471.732,391.276,467.267,391.276z"/>
</g>
<g>
	<path style="fill:#365558;" d="M256,322.29c-4.465,0-8.084-3.618-8.084-8.084V46.888c0-4.466,3.62-8.084,8.084-8.084
		c4.465,0,8.084,3.618,8.084,8.084v267.318C264.084,318.672,260.465,322.29,256,322.29z"/>
	<path style="fill:#365558;" d="M381.036,322.29c-4.465,0-8.084-3.618-8.084-8.084V46.888c0-4.466,3.62-8.084,8.084-8.084
		s8.084,3.618,8.084,8.084v267.318C389.12,318.672,385.5,322.29,381.036,322.29z"/>
	<path style="fill:#365558;" d="M130.964,322.29c-4.465,0-8.084-3.618-8.084-8.084V46.888c0-4.466,3.62-8.084,8.084-8.084
		c4.465,0,8.084,3.618,8.084,8.084v267.318C139.048,318.672,135.429,322.29,130.964,322.29z"/>
</g>
<path style="fill:#9BAAAB;" d="M130.964,189.709c-28.231,0-51.2,22.969-51.2,51.2s22.969,51.2,51.2,51.2s51.2-22.969,51.2-51.2
	S159.195,189.709,130.964,189.709z"/>
<path style="fill:#687F82;" d="M79.764,240.909c0,28.231,22.969,51.2,51.2,51.2v-102.4
	C102.733,189.709,79.764,212.678,79.764,240.909z"/>
<path style="fill:#4ACFD9;" d="M256,68.985c-28.231,0-51.2,22.969-51.2,51.2s22.969,51.2,51.2,51.2c28.231,0,51.2-22.969,51.2-51.2
	S284.231,68.985,256,68.985z"/>
<path style="fill:#0295AA;" d="M256,171.385v-102.4c-28.231,0-51.2,22.969-51.2,51.2S227.769,171.385,256,171.385z"/>
<path id="SVGCleanerId_0" style="fill:#FF8C29;" d="M381.036,168.152c-28.231,0-51.2,22.969-51.2,51.2s22.969,51.2,51.2,51.2
	c28.231,0,51.2-22.969,51.2-51.2S409.267,168.152,381.036,168.152z"/>
<g>
	<path id="SVGCleanerId_0_1_" style="fill:#FF8C29;" d="M381.036,168.152c-28.231,0-51.2,22.969-51.2,51.2s22.969,51.2,51.2,51.2
		c28.231,0,51.2-22.969,51.2-51.2S409.267,168.152,381.036,168.152z"/>
</g>
<path style="fill:#FD6A33;" d="M329.836,219.352c0,28.231,22.969,51.2,51.2,51.2v-102.4
	C352.805,168.152,329.836,191.12,329.836,219.352z"/>
<g>
</g>
<g>
</g>
<g>
</g>
<g>
</g>
<g>
</g>
<g>
</g>
<g>
</g>
<g>
</g>
<g>
</g>
<g>
</g>
<g>
</g>
<g>
</g>
<g>
</g>
<g>
</g>
<g>
</g>
</svg>
