<?xml version="1.0" encoding="utf-8"?>
<!-- Generator: Adobe Illustrator 19.0.0, SVG Export Plug-In . SVG Version: 6.00 Build 0)  -->
<svg version="1.1" id="Layer_1" xmlns="http://www.w3.org/2000/svg" xmlns:xlink="http://www.w3.org/1999/xlink" x="0px" y="0px"
	 viewBox="96 11 512 512" style="enable-background:new 96 11 512 512;" xml:space="preserve">
<style type="text/css">
	.st0{fill:#9BAAAB;}
	.st1{fill:#FF8C29;}
	.st2{fill:#FD6A33;}
	.st3{fill:#F0353D;}
</style>
<rect x="168.7" y="63" class="st0" width="33.8" height="231"/>
<rect x="336" y="377" class="st0" width="33" height="128"/>
<rect x="503" y="32" class="st0" width="33" height="281"/>
<path class="st1" d="M115,114.8v336.4h140V114.8H115z M210.1,410.2c-6.6,5.5-15.4,8.2-26.3,8.2c-10.2,0-18.6-2.7-25.1-8.1
	c-6.5-5.4-9.7-12.5-9.7-21.4h20.3c0,3.8,1.4,7,4.3,9.4c2.9,2.4,6.5,3.7,10.7,3.7c4.8,0,8.6-1.3,11.3-3.8c2.8-2.6,4.1-6,4.1-10.2
	c0-10.2-5.6-15.3-16.9-15.3h-10.8v-15.9H183c5.2,0,9-1.3,11.5-3.9c2.5-2.6,3.7-6,3.7-10.3c0-4.1-1.2-7.3-3.7-9.6
	c-2.4-2.3-5.8-3.4-10.1-3.4c-3.9,0-7.1,1.1-9.8,3.2c-2.6,2.1-3.9,4.9-3.9,8.3h-20.3c0-5.3,1.4-10.1,4.3-14.3
	c2.9-4.3,6.9-7.6,12.1-10c5.2-2.4,10.9-3.6,17.2-3.6c10.8,0,19.3,2.6,25.5,7.8c6.1,5.2,9.2,12.3,9.2,21.4c0,4.7-1.4,9-4.3,12.9
	c-2.9,3.9-6.6,7-11.3,9.1c5.8,2.1,10.1,5.2,12.9,9.3c2.9,4.1,4.3,9,4.3,14.6C220.1,397.4,216.8,404.7,210.1,410.2z"/>
<path class="st2" d="M282,62.8v336.4h140V62.8H282z M389.2,365.8H319v-13.9l33.1-35.3c4.5-5,7.9-9.3,10.1-13
	c2.2-3.7,3.3-7.2,3.3-10.5c0-4.5-1.1-8.1-3.4-10.7c-2.3-2.6-5.6-3.9-9.8-3.9c-4.6,0-8.2,1.6-10.9,4.8c-2.6,3.1-3.9,7.3-3.9,12.4H317
	c0-6.2,1.5-11.9,4.4-17.1c3-5.2,7.2-9.2,12.7-12.1c5.4-3,11.6-4.4,18.5-4.4c10.5,0,18.7,2.5,24.5,7.6c5.9,5.1,8.8,12.2,8.8,21.4
	c0,5.1-1.3,10.2-3.9,15.5s-7.1,11.4-13.5,18.4l-23.3,24.5h44V365.8z"/>
<path class="st1" d="M449,126.8v336.4h140V126.8H449z M535.6,432.5h-20.3v-78.3l-24.3,7.5v-16.5l42.4-15.2h2.2V432.5z"/>
<path class="st3" d="M319,351.9l33-35.1v-38.3c-0.3,0-0.5,0-0.8,0c-0.2,0-0.5,0-0.7,0c-0.3,0-0.6,0.1-0.9,0.1
	c-0.2,0-0.5,0.1-0.7,0.1c-0.3,0.1-0.6,0.1-0.8,0.2c-0.2,0.1-0.4,0.1-0.6,0.2c-0.3,0.1-0.5,0.2-0.8,0.3c-0.2,0.1-0.4,0.1-0.6,0.2
	c-0.3,0.1-0.5,0.3-0.8,0.4c-0.2,0.1-0.3,0.2-0.5,0.3c-0.3,0.2-0.5,0.3-0.8,0.5c-0.1,0.1-0.3,0.2-0.4,0.3c-0.3,0.2-0.5,0.4-0.8,0.7
	c-0.1,0.1-0.2,0.2-0.3,0.3c-0.4,0.3-0.7,0.7-1,1.1c-2.6,3.1-3.9,7.3-3.9,12.4H317c0-6.2,1.5-11.9,4.4-17.1c3-5.2,7.2-9.2,12.7-12.1
	c0.7-0.4,1.4-0.7,2-1c0.2-0.1,0.4-0.2,0.6-0.3c0.5-0.2,1-0.4,1.5-0.6c0.3-0.1,0.5-0.2,0.8-0.3c0.5-0.2,0.9-0.3,1.4-0.5
	c0.3-0.1,0.6-0.2,0.9-0.3c0.4-0.1,0.9-0.3,1.3-0.4c0.3-0.1,0.6-0.1,1-0.2c0.4-0.1,0.9-0.2,1.3-0.3c0.3-0.1,0.7-0.1,1-0.2
	c0.4-0.1,0.9-0.1,1.3-0.2c0.4,0,0.7-0.1,1.1-0.1c0.5,0,0.9-0.1,1.4-0.1c0.4,0,0.7,0,1.1,0c0.4,0,0.7,0,1.1,0V62.8h-70v336.4h70
	v-33.4h-33V351.9z"/>
<polygon class="st3" points="352,342.2 345.2,349.4 352,349.4 "/>
<polygon class="st3" points="352,316.7 352,316.7 319,351.9 "/>
<path class="st3" d="M343.6,262.9c-0.3,0.1-0.6,0.1-1,0.2C343,263.1,343.3,263,343.6,262.9z"/>
<path class="st3" d="M346.6,279.4c0.3-0.1,0.5-0.2,0.8-0.3C347.1,279.2,346.9,279.3,346.6,279.4z"/>
<path class="st3" d="M346,262.5c-0.3,0.1-0.7,0.1-1,0.2C345.3,262.6,345.7,262.5,346,262.5z"/>
<path class="st3" d="M350.9,262c-0.4,0-0.7,0-1.1,0C350.2,262.1,350.5,262.1,350.9,262z"/>
<path class="st3" d="M341.3,263.5c-0.3,0.1-0.6,0.2-0.9,0.3C340.7,263.7,341,263.6,341.3,263.5z"/>
<path class="st3" d="M348.4,262.2c-0.4,0-0.7,0.1-1.1,0.1C347.7,262.3,348.1,262.2,348.4,262.2z"/>
<path class="st3" d="M348,278.9c0.3-0.1,0.6-0.2,0.8-0.2C348.6,278.8,348.3,278.8,348,278.9z"/>
<path class="st3" d="M342.7,281.8c0.3-0.2,0.5-0.5,0.8-0.7C343.2,281.3,343,281.5,342.7,281.8z"/>
<path class="st3" d="M343.9,280.8c0.3-0.2,0.5-0.4,0.8-0.5C344.4,280.4,344.2,280.6,343.9,280.8z"/>
<path class="st3" d="M345.2,280c0.3-0.1,0.5-0.3,0.8-0.4C345.7,279.7,345.5,279.9,345.2,280z"/>
<path class="st3" d="M349.6,278.6c0.3,0,0.6-0.1,0.9-0.1C350.2,278.5,349.9,278.5,349.6,278.6z"/>
<path class="st3" d="M339,264.2c-0.3,0.1-0.5,0.2-0.8,0.3C338.5,264.4,338.8,264.3,339,264.2z"/>
<path class="st3" d="M336.8,265.1c-0.2,0.1-0.4,0.2-0.6,0.3C336.3,265.3,336.6,265.2,336.8,265.1z"/>
<path class="st3" d="M352,278.4c-0.3,0-0.5,0-0.8,0C351.5,278.4,351.7,278.4,352,278.4L352,278.4z"/>
<path class="st3" d="M341.3,283.2c0.3-0.4,0.7-0.8,1-1.1C342,282.4,341.7,282.8,341.3,283.2z"/>
</svg>
