<?xml version="1.0" encoding="iso-8859-1"?>
<!-- Generator: Adobe Illustrator 19.0.0, SVG Export Plug-In . SVG Version: 6.00 Build 0)  -->
<svg version="1.1" id="Layer_1" xmlns="http://www.w3.org/2000/svg" xmlns:xlink="http://www.w3.org/1999/xlink" x="0px" y="0px"
	 viewBox="0 0 512 512" style="enable-background:new 0 0 512 512;" xml:space="preserve">
<path style="fill:#4ACFD9;" d="M256,0C150.805,0,65.223,85.582,65.223,190.777c0,102.704,177.06,309.63,184.597,318.389
	c1.549,1.799,3.806,2.834,6.18,2.834c2.374,0,4.631-1.035,6.18-2.834c7.538-8.759,184.597-215.685,184.597-318.389
	C446.777,85.582,361.195,0,256,0z"/>
<path style="fill:#E6EAEA;" d="M256,43.482c-81.219,0-147.295,66.076-147.295,147.295S174.781,338.072,256,338.072
	s147.295-66.076,147.295-147.295S337.219,43.482,256,43.482z"/>
<path style="fill:#0295AA;" d="M65.223,190.777c0,102.704,177.06,309.63,184.597,318.389c1.549,1.799,3.806,2.834,6.18,2.834V0
	C150.805,0,65.223,85.582,65.223,190.777z"/>
<path style="fill:#CDD4D5;" d="M108.705,190.777c0,81.219,66.076,147.295,147.295,147.295V43.482
	C174.781,43.482,108.705,109.558,108.705,190.777z"/>
<path style="fill:#FD6A33;" d="M350.222,144.027c-3.558-1.361-7.581-0.075-9.693,3.094l-60.875,91.312
	c-1.668,2.502-1.823,5.719-0.405,8.369c1.419,2.65,4.182,4.306,7.189,4.306h47.83c4.057,0,7.497-2.983,8.071-6.999l13.045-91.312
	C355.922,149.027,353.779,145.386,350.222,144.027z"/>
<g>
	<path style="fill:#FF8C29;" d="M347.312,121.749c-16.484,0-29.894,13.411-29.894,29.894s13.41,29.894,29.894,29.894
		c16.484,0,29.894-13.411,29.894-29.894S363.796,121.749,347.312,121.749z"/>
	<path style="fill:#FF8C29;" d="M232.346,238.433l-60.875-91.312c-2.111-3.169-6.134-4.451-9.693-3.094
		c-3.557,1.359-5.699,4.999-5.161,8.768l13.045,91.312c0.574,4.017,4.013,6.999,8.071,6.999h47.83c3.007,0,5.77-1.656,7.189-4.306
		C234.169,244.152,234.013,240.936,232.346,238.433z"/>
</g>
<path style="fill:#F0353D;" d="M164.688,121.749c-16.484,0-29.894,13.411-29.894,29.894s13.41,29.894,29.894,29.894
	s29.894-13.411,29.894-29.894S181.172,121.749,164.688,121.749z"/>
<path style="fill:#FF8C29;" d="M290.072,241.303l-26.089-126.098c-0.783-3.785-4.118-6.501-7.983-6.501
	c-3.867,0-7.201,2.715-7.983,6.501l-26.089,126.098c-0.497,2.401,0.113,4.898,1.661,6.799c1.548,1.901,3.87,3.006,6.322,3.006
	h52.178c2.452,0,4.774-1.104,6.322-3.006C289.959,246.201,290.569,243.704,290.072,241.303z"/>
<g>
	<path style="fill:#FD6A33;" d="M248.017,115.205l-26.089,126.098c-0.497,2.401,0.113,4.898,1.661,6.799
		c1.548,1.901,3.87,3.006,6.322,3.006H256V108.705C252.133,108.705,248.799,111.42,248.017,115.205z"/>
	<path style="fill:#FD6A33;" d="M256,82.616c-16.484,0-29.894,13.411-29.894,29.894s13.41,29.894,29.894,29.894
		c16.484,0,29.894-13.411,29.894-29.894S272.484,82.616,256,82.616z"/>
</g>
<path style="fill:#F0353D;" d="M226.106,112.51c0,16.483,13.41,29.894,29.894,29.894V82.616
	C239.516,82.616,226.106,96.027,226.106,112.51z"/>
<path style="fill:#FF8C29;" d="M169.58,282.089c0,4.504,3.65,8.153,8.153,8.153h156.535c4.503,0,8.153-3.649,8.153-8.153v-47.83
	H169.58V282.089z"/>
<path style="fill:#FD6A33;" d="M169.58,234.259v47.83c0,4.504,3.65,8.153,8.153,8.153H256v-55.983H169.58z"/>
<path style="fill:#FFFFFF;" d="M321.223,281.546c-4.503,0-8.153-3.649-8.153-8.153v-21.741c0-4.504,3.65-8.153,8.153-8.153
	c4.503,0,8.153,3.649,8.153,8.153v21.741C329.376,277.896,325.725,281.546,321.223,281.546z"/>
<g>
</g>
<g>
</g>
<g>
</g>
<g>
</g>
<g>
</g>
<g>
</g>
<g>
</g>
<g>
</g>
<g>
</g>
<g>
</g>
<g>
</g>
<g>
</g>
<g>
</g>
<g>
</g>
<g>
</g>
</svg>
