<?xml version="1.0" encoding="utf-8"?>
<!-- Generator: Adobe Illustrator 19.0.0, SVG Export Plug-In . SVG Version: 6.00 Build 0)  -->
<svg version="1.1" id="Layer_1" xmlns="http://www.w3.org/2000/svg" xmlns:xlink="http://www.w3.org/1999/xlink" x="0px" y="0px"
	 viewBox="206 -206 512 512" style="enable-background:new 206 -206 512 512;" xml:space="preserve">
<style type="text/css">
	.st0{fill:#FF8C29;}
	.st1{fill:#FD6A33;}
	.st2{fill:#687F82;}
	.st3{fill:#365558;}
	.st4{display:none;fill:#687F82;}
	.st5{display:none;fill:#365558;}
	.st6{fill:#FFD1A9;}
	.st7{fill:#4ACFD9;}
	.st8{fill:#0295AA;}
	.st9{fill:#9BAAAB;}
	.st10{fill:#F0353D;}
</style>
<path class="st0" d="M576.5-206h-103v512h103c46.8,0,85.2-38.7,85.2-86v-340C661.7-167.2,623.5-206,576.5-206z"/>
<path class="st1" d="M370.8-206c-46.8,0-85.2,38.7-85.2,86v340c0,47.3,38.3,86,85.2,86h103v-512H370.8L370.8-206z"/>
<path class="st2" d="M539.8-140.3h-66.6V243h66.6c34.8,0,63.2-28.7,63.2-63.8V-76.5C602.8-111.6,574.4-140.3,539.8-140.3z"/>
<path class="st3" d="M406.5-140.3c-34.8,0-63.2,28.7-63.2,63.8v255.7c0,35.1,28.4,63.8,63.2,63.8h66.6v-383.3L406.5-140.3
	L406.5-140.3z"/>
<path class="st1" d="M299-109.4c-3.2-0.9-7-1.6-10.9-1.6H282c-13.1,0-24,6.5-24,14.3V1.6c0,7.9,10.9,14.3,24,14.3h2.9v-93.1
	C285.3-88.6,290.2-99.5,299-109.4z"/>
<path class="st0" d="M312.1,1.7v-98.3c0-5.6-5.4-10.4-13.1-12.7c-8.8,9.9-13.8,20.9-13.8,32.3v93h2.9C301.2,16,312.1,9.6,312.1,1.7z
	"/>
<path class="st4" d="M594.1,165.6L486.4-80c-3-6-8.3-9-13.5-9v283h106.8C592.6,194,600.4,178.1,594.1,165.6z"/>
<path class="st5" d="M459.6-80L353.9,165.6c-6.1,12.7,1.6,28.4,14.1,28.4h104.9V-89C467.8-89,462.6-85.9,459.6-80z"/>
<path class="st6" d="M328.3,199.3c3,1.9,5.1,5.3,5.3,9.1c3,21.3,14.5,40.2,31.7,51.8c5.8,3.8,7.3,11.8,4.1,17.5
	c-3.6,5.9-11.1,7.8-16.6,4.4c-23.4-15.4-39-40.7-42.6-69.7c-0.9-7,3.6-13.5,10.2-14.5C323.4,196.8,325.9,197.8,328.3,199.3z"/>
<path class="st6" d="M631.5-99c-3-1.9-5.1-5.3-5.3-9.1c-3-21.3-14.5-40.2-31.7-51.8c-5.8-3.8-7.3-11.8-4.1-17.5
	c3.6-5.9,11.1-7.8,16.6-4.4c23.4,15.4,39,40.7,42.6,69.7c0.9,7-3.6,13.5-10.2,14.5C636.3-96.5,633.8-97.3,631.5-99z"/>
<path class="st1" d="M299.1,75.1c-3.2-0.9-7-1.6-10.9-1.6h-6.1c-13.1,0-24,6.5-24,14.3v98.3c0,7.9,10.9,14.3,24,14.3h2.9v-93.1
	C285.4,95.9,290.4,85,299.1,75.1z"/>
<path class="st0" d="M312.2,186.2V87.9c0-5.6-5.4-10.4-13.1-12.7c-8.8,9.9-13.8,20.9-13.8,32.3v93h2.9
	C301.3,200.5,312.2,194.1,312.2,186.2z"/>
<path class="st7" d="M513.5-100.3c-0.9-1-2.2-1.6-3.6-1.6h-71.8c-1.4,0-2.7,0.6-3.6,1.6c-0.9,1-1.4,2.3-1.3,3.7l7,93.7
	c0.2,2.5,2.3,4.5,4.9,4.5h56.6c2.5,0,4.6-1.9,4.9-4.5l8.2-93.7C514.9-98,514.4-99.3,513.5-100.3z"/>
<path class="st6" d="M506.5-4.1h-66.9l-13,83.3c-0.2,1,0,2,0.5,2.9l41.1,82.2V68.9c-4.9-2-8.5-6.8-8.5-12.4c0-7.4,6-13.3,13.3-13.3
	c7.4,0,13.3,6,13.3,13.3c0,5.6-3.5,10.4-8.5,12.4v95.4L519,82.1c0.5-0.9,0.6-1.9,0.5-2.9L506.5-4.1z"/>
<path class="st8" d="M438.1-101.9c-1.4,0-2.7,0.6-3.6,1.6c-0.9,1-1.4,2.3-1.3,3.7l7,93.7c0.2,2.5,2.3,4.5,4.9,4.5h28v-103.4H438.1z"
	/>
<path class="st0" d="M439.6-4.1l-13,83.3c-0.2,1,0,2,0.5,2.9l41.1,82.2V68.9c-4.9-2-8.5-6.8-8.5-12.4c0-7.4,6-13.3,13.3-13.3V-4.1
	L439.6-4.1L439.6-4.1z"/>
<path class="st9" d="M543.3,188.9H402.8c-2.7,0-4.9-2.2-4.9-4.9c0-2.7,2.2-4.9,4.9-4.9h140.5c2.7,0,4.9,2.2,4.9,4.9
	C548.2,186.7,546,188.9,543.3,188.9z"/>
<g>
	<path class="st10" d="M402.8,166.1h-26c-2.7,0-4.9,2.2-4.9,4.9v26c0,2.7,2.2,4.9,4.9,4.9h26c2.7,0,4.9-2.2,4.9-4.9v-26
		C407.7,168.3,405.5,166.1,402.8,166.1z"/>
	<path class="st10" d="M569.3,166.1h-26c-2.7,0-4.9,2.2-4.9,4.9v26c0,2.7,2.2,4.9,4.9,4.9h26c2.7,0,4.9-2.2,4.9-4.9v-26
		C574.2,168.3,572,166.1,569.3,166.1z"/>
</g>
<path class="st9" d="M473.1,178.5c-68.7,0-124.6-55.9-124.6-124.6c0-2.7,2.2-4.9,4.9-4.9c2.7,0,4.9,2.2,4.9,4.9
	c0,63.3,51.5,114.8,114.8,114.8s114.8-51.5,114.8-114.8c0-2.7,2.2-4.9,4.9-4.9c2.7,0,4.9,2.2,4.9,4.9
	C597.6,122.6,541.7,178.5,473.1,178.5z"/>
</svg>
