<?xml version="1.0" encoding="utf-8"?>
<!-- Generator: Adobe Illustrator 19.0.0, SVG Export Plug-In . SVG Version: 6.00 Build 0)  -->
<svg version="1.1" id="Layer_1" xmlns="http://www.w3.org/2000/svg" xmlns:xlink="http://www.w3.org/1999/xlink" x="0px" y="0px"
	 viewBox="96 11 512 512" style="enable-background:new 96 11 512 512;" xml:space="preserve">
<style type="text/css">
	.st0{fill:#FFD1A9;}
	.st1{fill:none;stroke:#4ACFD9;stroke-width:15;stroke-linecap:round;stroke-miterlimit:10;}
	.st2{fill:#9BAAAB;}
	.st3{fill:#FD6A33;}
	.st4{fill:#FF8C29;}
	.st5{fill:#4ACFD9;}
	.st6{fill:#0295AA;}
	.st7{fill:#365558;}
	.st8{fill:none;stroke:#FD6A33;stroke-width:20;stroke-miterlimit:10;}
	.st9{fill:none;stroke:#FF8C29;stroke-width:20;stroke-miterlimit:10;}
</style>
<path class="st0" d="M328.2,101.4c0-4.3,3.5-7.8,7.8-7.8h44.3c4.3,0,7.8,3.5,7.8,7.8c0,0,0-0.4,0,4.9s1.9,9.6,9.6,9.6
	c7.6,0,187.4,0,187.4,0c4.3,0,7.8,3.5,7.8,7.8v161.7c0,4.3-3.5,7.8-7.8,7.8H336c-4.3,0-7.8-3.5-7.8-7.8L328.2,101.4"/>
<path class="st1" d="M463.6,237.2c11.4-17.1,26.8-38.9,23.9-61s-15-36.5-11.5-55.7"/>
<circle class="st2" cx="476.1" cy="120.5" r="15.2"/>
<path class="st3" d="M486.1,54.6l0-29.7c0-1.5,1.3-2.8,2.8-2.8h1.4c1.5,0,2.8,1.3,2.8,2.8v29.7c0,1.5-1.3,2.8-2.8,2.8h-1.4
	C487.3,57.4,486.1,56.1,486.1,54.6z"/>
<path class="st4" d="M472,48.9V19.2c0-1.5,1.3-2.8,2.8-2.8h1.4c1.5,0,2.8,1.3,2.8,2.8v29.7c0,1.5-1.3,2.8-2.8,2.8h-1.4
	C473.2,51.7,472,50.4,472,48.9z"/>
<path class="st3" d="M462.8,53.8l0-28.3c0-1.9-1.6-3.5-3.5-3.5l0,0c-1.9,0-3.5,1.6-3.5,3.5v28.3c0,1.9,1.6,3.5,3.5,3.5l0,0
	C461.3,57.4,462.8,55.8,462.8,53.8z"/>
<path class="st5" d="M502.3,120.1c7,0,12.6-5.7,12.6-12.6V72.1c0-7-5.7-12.6-12.6-12.6h-27.2v60.6H502.3z"/>
<path class="st6" d="M435.2,72.1v35.3c0,7,5.7,12.6,12.6,12.6l27.2,0V59.5h-27.2C440.9,59.5,435.2,65.2,435.2,72.1z"/>
<path class="st6" d="M493.2,65.6c3.3,0,6-2.7,6.1-6.1v-5.1c0-3.3-2.7-6-6.1-6.1h-18.2v17.2L493.2,65.6z"/>
<path class="st7" d="M450.8,54.4v5.1c0,3.3,2.7,6,6.1,6.1h18.2V48.4h-18.2C453.6,48.4,450.9,51.1,450.8,54.4z"/>
<path class="st4" d="M584.4,293.3H335.3c-4.3,0-7.2-3.5-6.4-7.8l14.3-80.9c0.8-4.3,4.9-7.8,9.2-7.8h249.1c4.3,0,7.2,3.5,6.4,7.8
	l-14.3,80.9C592.9,289.8,588.7,293.3,584.4,293.3z"/>
<path class="st7" d="M343,283.7c-1,0-1.9-0.4-2.5-1.1c-0.6-0.8-0.8-1.8-0.6-3l0.7-3.8c1-3,3.1-5.2,4.5-5.2h237.7
	c1,0,1.9,0.4,2.5,1.1c0.6,0.8,0.8,1.8,0.6,3l-0.7,3.8c-0.4,2.8-2.5,5.2-5.1,5.2H343z"/>
<g>
	<g>
		<line class="st8" x1="249.5" y1="166" x2="127.5" y2="166"/>
		<g>
			<polygon class="st3" points="244.6,202.5 244.6,129.6 281,166 			"/>
		</g>
		<g>
			<polygon class="st3" points="132.4,202.5 132.4,129.6 96,166 			"/>
		</g>
	</g>
</g>
<g>
	<g>
		<line class="st9" x1="453.4" y1="371.5" x2="453.4" y2="491.5"/>
		<g>
			<polygon class="st4" points="489.8,376.4 417,376.4 453.4,340 			"/>
		</g>
		<g>
			<polygon class="st4" points="489.8,486.6 417,486.6 453.4,523 			"/>
		</g>
	</g>
</g>
</svg>
