<?xml version="1.0" encoding="utf-8"?>
<!-- Generator: Adobe Illustrator 19.0.0, SVG Export Plug-In . SVG Version: 6.00 Build 0)  -->
<svg version="1.1" id="Layer_1" xmlns="http://www.w3.org/2000/svg" xmlns:xlink="http://www.w3.org/1999/xlink" x="0px" y="0px"
	 viewBox="96 11 512 512" style="enable-background:new 96 11 512 512;" xml:space="preserve">
<style type="text/css">
	.st0{display:none;fill:#FFD1A9;}
	.st1{display:none;fill:#FF8C29;}
	.st2{display:none;fill:#FFFFFF;}
	.st3{display:none;fill:#F0353D;}
	.st4{fill:#0295AA;}
	.st5{fill:#365558;}
	.st6{fill:#4ACFD9;}
	.st7{fill:#FD6A33;}
	.st8{fill:#F0353D;}
	.st9{fill:#FFFFFF;}
	.st10{fill:#FF8C29;}
	.st11{fill:#FFD1A9;}
	.st12{fill:#9BAAAB;}
</style>
<path class="st0" d="M543,174.1c-63.4,0-114.9,51.5-114.9,114.9S479.6,403.9,543,403.9S657.9,352.4,657.9,289S606.4,174.1,543,174.1
	z"/>
<path class="st1" d="M428.1,289c0,63.4,51.5,114.9,114.9,114.9V174.1C479.6,174.1,428.1,225.6,428.1,289z"/>
<path class="st2" d="M615.6,271.4c-3.3,0-6.4-2.1-7.6-5.3c-5.9-16.7-18.4-30.9-34.4-38.8c-4-2-5.6-6.8-3.6-10.7
	c2-4,6.8-5.6,10.7-3.6c19.6,9.8,35.1,27.2,42.4,47.8c1.5,4.2-0.7,8.8-4.9,10.2C617.4,271.2,616.5,271.4,615.6,271.4z"/>
<path class="st3" d="M586.4,281.8l-65-50.4c-2.4-1.9-5.7-2.2-8.4-0.9c-2.7,1.3-4.5,4.1-4.5,7.2v102.6c0,3.1,1.8,5.9,4.6,7.2
	c1.1,0.5,2.3,0.8,3.5,0.8c1.8,0,3.6-0.6,5-1.8l65-52.2c1.9-1.5,3-3.9,3-6.3C589.5,285.6,588.3,283.3,586.4,281.8z"/>
<path class="st4" d="M375.3,274.8c5.1,4.1,10,8.2,14.9,12.1c0.5,0.5,2,0.5,2.8,0.2c6.2-2.3,12.5-4.8,18.5-7.4
	c1.3-0.5,2.3-0.3,3.3,0.5c3.3,2.8,6.7,5.4,10.2,8.2c2.6,2.1,5.1,4.3,7.7,6.4c-1.6,2.3-3.1,4.3-4.8,6.2c-7.1,8.7-13.8,17.6-21.2,26.3
	c-9.8,11.8-21.7,21.8-34,30.7c-3.3,2.3-7.1,3.9-10.7,5.4c-4.8,1.8-9.2,0.8-13.3-2.3c-2.1-1.6-4.3-3-6.6-4.4v51.7
	c0.5,0,1.1-0.2,1.8-0.2c16.1,0,29.2,13.3,29.2,29.5c0,16.1-13.1,29.2-29.4,29.2c-0.5,0-1,0-1.5,0v37.1c2.1,1.1,4.3,3,6.1,4.8
	c1,1,2.3,1.8,3.6,2.8c5.4,3.6,11.2,5.3,17.4,3.3c3.9-1.1,6.6-4.3,9.2-7.1c10-10.8,19.9-21.5,29.5-32.5c7.4-8.4,14.1-17.4,19.4-27.4
	c4.6-8.7,5.9-14.3-2.1-23.5c-2.3-2.6-4.9-4.8-7.2-7.2c-2-2.3-4.3-4.8-5.1-7.6c-0.8-3-0.8-6.6,0.2-9.5c2.1-6.4,5.1-12.6,7.9-18.7
	c5.9-12.5,13.8-23.6,22.3-34.3c7.2-8.7,14.3-17.2,21.7-26.1c6.4,5.3,12.6,10.2,18.5,15.3c0.5,0.5,0.7,1.8,0.5,2.8
	c-0.8,5.7-1.8,11.5-3,17.2c-0.5,3-0.3,5.1,2.6,6.7c1.6,0.8,2.8,2.3,4.3,3.4c2.8,2.3,5.7,4.6,8.5,7.1c20.4-25.1,40.5-49.9,60.7-74.9
	c-40.4-33-80.8-65.8-121.5-98.8C415.7,224.9,395.5,249.8,375.3,274.8z M464.9,271.7c9.4,0,16.6,6.7,16.6,15.9
	c0.2,8.7-6.9,15.6-15.4,15.6c-8.9,0-16.1-7.1-16.1-15.9C450,279.2,457.4,271.7,464.9,271.7z"/>
<path class="st5" d="M314.4,437.5c0.2-15.4,12.5-27.9,27.7-28.9v-51.7c-1.8-1-3.4-2.1-5.3-3c-5.3-2.8-10.7-3-15.4,0.7
	c-4.8,3.4-9.4,7.2-13.3,11.5c-7.9,8.5-15.4,17.4-22.3,26.8c-7.4,9.8-14.1,20-20.8,30.4c-2.8,4.3-2.6,9-1,13.6c1.6,4.8,5.1,8.4,9,11
	c7.2,4.9,11.8,11.5,13.6,20c0.3,2,1.1,3.8,2,5.6c3.1,7.7,8.9,13,15.3,17.9c6.7,5.3,14.3,8.5,22.8,8.7c5.7,0.2,11,1.6,15.6,4.3v-37.1
	C326.4,466.5,314.4,453.7,314.4,437.5z"/>
<path class="st4" d="M492.5,217.1c-1-0.7-1.9-1.4-2.8-2.3l-1.6-1.6c-7.6-7.6-7.6-19.9,0-27.5l10.5-10.5
	c-9.2-6.1-18.7-11.9-28.4-17.4c-8.2,10-16.3,19.9-24.3,29.9c15.4,12.5,30.8,25,46.2,37.5C491.8,222.5,491.9,219.7,492.5,217.1z"/>
<path class="st4" d="M537.8,254.1h-0.2c-5.5,0-10.6-2.2-14.5-6c-1.9-1.9-3.3-4-4.3-6.2c-1.6,0.5-3.2,0.8-4.8,0.9
	c17.9,14.5,35.9,29,53.9,43.5c8-10.2,16.1-20,24.1-29.9c-7.5-8.5-15.4-16.7-23.4-24.6l-16.4,16.4C548.4,252,543.2,254.1,537.8,254.1
	z"/>
<path class="st6" d="M344,408.6c-0.5,0-1.1,0-1.8,0.2v58.6c0.5,0,1,0,1.5,0c16.3,0,29.4-13,29.4-29.2
	C373,421.9,359.9,408.7,344,408.6z"/>
<path class="st4" d="M314.4,437.5c-0.2,16.1,12,29.1,27.7,29.7v-58.6C326.9,409.5,314.4,422.2,314.4,437.5z"/>
<path class="st5" d="M481.7,287.6c0,8.5-7.1,15.6-15.6,15.6c-8.9,0-16.1-7.1-16.1-15.9c0-8,7.4-15.6,14.9-15.6
	C474.6,271.7,481.7,278.5,481.7,287.6z"/>
<path class="st7" d="M265.5,227.7c-39.2,34.8-78.1,69.3-117.2,103.9c21.3,24.1,42.7,48.1,64,72.2c4.9-4.4,9.7-8.5,14.3-12.8
	c0.5-0.5,0.8-1.8,0.7-2.6c-1.3-6.6-2.8-13-4.3-19.4c-0.3-1.5-0.2-2.3,1-3.3c3.3-2.8,6.4-5.7,9.8-8.7c2.5-2.1,4.9-4.3,7.6-6.6
	c1.8,2,3.6,3.8,5.4,5.6c7.6,8.4,6.7,8.7,13,18.2c4.8,7.2,2.6,5.4,5.4,9.2l32.3-36.3c-6.2-5.1-6.7-4.4-11.8-10.2
	c-7.4-8.4-5.6-5.9-13.1-14.6c6.1-5.4,12-10.8,18.1-15.9c0.5-0.5,2-0.3,2.8-0.2c5.6,1.8,11.2,3.6,16.6,5.9c2.8,1,4.9,1.1,7.1-1.3
	c1-1.3,2.8-2.5,4.1-3.6c2.8-2.5,5.4-4.9,8.4-7.4C308.2,275.8,286.8,251.8,265.5,227.7z M254.7,318.9c-1.5,8.7-9.4,14.6-18.4,13.3
	c-7.9-1.1-14.1-9.7-13-17.2c1.6-9.4,9.4-15.3,18.4-13.8C250.5,302.3,256.1,310.4,254.7,318.9z"/>
<path class="st7" d="M218.6,229.4v0.2c0,5.5-2.2,10.6-6,14.5c-1.9,1.9-4,3.3-6.2,4.3c1,3.2,1.1,6.6,0.5,9.8
	c15.9-14.1,31.8-28.2,47.8-42.3c-8.5-9.7-16.9-19.2-25.4-28.7c-9.1,5.7-17.9,11.7-26.5,17.9l9.9,9.9
	C216.4,218.8,218.6,223.9,218.6,229.4z"/>
<path class="st7" d="M181.5,274.6c-0.7,1-1.4,1.9-2.3,2.8l-1.6,1.6c-7.6,7.6-19.9,7.6-27.5,0l-14.8-14.8
	c-8.1,8.6-15.9,17.5-23.4,26.8c8.5,9.7,16.9,19,25.4,28.7c16.7-14.9,33.5-29.8,50.2-44.6C185.6,275.3,183.5,275.1,181.5,274.6z"/>
<path class="st5" d="M236.4,332.1c8.7,1.3,16.9-4.4,18.4-13.3c1.3-8.5-4.4-16.4-13-17.9c-9-1.5-16.7,4.4-18.4,13.8
	C222.3,322.4,228.6,330.7,236.4,332.1z"/>
<path class="st8" d="M258.3,143.4L246,173.3c-1.6,3.9-6.1,5.9-10.2,4.3c-3.9-1.6-5.9-6.1-4.3-10.2l12.1-29.9
	c1.6-3.9,6.1-5.9,10.2-4.3C257.9,135.1,259.7,139.5,258.3,143.4z"/>
<path class="st8" d="M293.7,180.5c-0.8,1.8-2.3,3.4-4.3,4.3L262.7,196c-3.9,1.6-8.5-0.2-10.2-4.3c-1.6-3.9,0.2-8.5,4.3-10.2
	l26.8-11.2c3.9-1.6,8.5,0.2,10.2,4.3C294.7,176.4,294.5,178.7,293.7,180.5z"/>
<path class="st8" d="M203.8,171.3c1.6,4.1,6.2,5.9,10.2,4.3c2-0.8,3.4-2.5,4.3-4.3c0.8-1.8,0.8-3.8,0-5.9L207,138.7
	c-1.6-4.1-6.2-5.9-10.2-4.3c-4.1,1.6-5.9,6.2-4.3,10.2L203.8,171.3z"/>
<path class="st9" d="M300.8,427.9c1.5,1.5,2.3,3.4,2.1,5.6c-1,11.8,3.1,23.6,11.5,32c2.8,2.8,2.8,7.2,0,10s-7.2,2.8-10,0
	c-11.5-11.5-17.1-27.3-15.6-43.2c0.3-3.9,3.8-6.7,7.7-6.4C298,426.1,299.5,426.8,300.8,427.9z"/>
<path class="st4" d="M492.5,217.1c-1-0.7-1.9-1.4-2.8-2.3l-1.6-1.6c-7.6-7.6-7.6-19.9,0-27.5l10.5-10.5
	c-9.2-6.1-18.7-11.9-28.4-17.4c-8.2,10-16.3,19.9-24.3,29.9c15.4,12.5,30.8,25,46.2,37.5C491.8,222.5,491.9,219.7,492.5,217.1z"/>
<path class="st4" d="M537.8,254.1h-0.2c-5.5,0-10.6-2.2-14.5-6c-1.9-1.9-3.3-4-4.3-6.2c-1.6,0.5-3.2,0.8-4.8,0.9
	c17.9,14.5,35.9,29,53.9,43.5c8-10.2,16.1-20,24.1-29.9c-7.5-8.5-15.4-16.7-23.4-24.6l-16.4,16.4C548.4,252,543.2,254.1,537.8,254.1
	z"/>
<path class="st6" d="M547.8,251.5l17.6,14.3l7.1-8.7c-4.7-5-9.5-10-14.4-14.8l-5.9,5.9C550.9,249.5,549.4,250.6,547.8,251.5z"/>
<path class="st6" d="M473.6,176.8l-7.1,8.7l16,13c0.2-4.6,2.1-9.1,5.5-12.6C483.3,182.7,478.5,179.7,473.6,176.8z"/>
<path class="st10" d="M181.5,274.6c-0.7,1-1.4,1.9-2.3,2.8l-1.6,1.6c-7.6,7.6-19.9,7.6-27.5,0l-14.8-14.8
	c-8.1,8.6-15.9,17.5-23.4,26.8c8.5,9.7,16.9,19,25.4,28.7c16.7-14.9,33.5-29.8,50.2-44.6C185.6,275.3,183.5,275.1,181.5,274.6z"/>
<path class="st10" d="M218.6,229.4v0.2c0,5.5-2.2,10.6-6,14.5c-1.9,1.9-4,3.3-6.2,4.3c1,3.2,1.1,6.6,0.5,9.8
	c15.9-14.1,31.8-28.2,47.8-42.3c-8.5-9.7-16.9-19.2-25.4-28.7c-9.1,5.7-17.9,11.7-26.5,17.9l9.9,9.9
	C216.4,218.8,218.6,223.9,218.6,229.4z"/>
<path class="st11" d="M234.1,214.7l-7.4-8.4c-4.6,3-9.1,6.1-13.5,9.3c3.2,3.5,5.1,8,5.3,12.9L234.1,214.7z"/>
<path class="st11" d="M145.8,274.6c-4.9,5.3-9.8,10.7-14.5,16.2l7.4,8.4l18-15.9c-2.4-0.9-4.6-2.4-6.6-4.3L145.8,274.6z"/>
<g>
	<circle class="st12" cx="625.8" cy="107.6" r="24.2"/>
	<path class="st7" d="M538.6,162.8c-1.7-1.7-4.6-1.7-6.3,0l-33.5,33.5c-1.7,1.7-1.7,4.6,0,6.3l1.6,1.6c1.7,1.7,4.6,1.7,6.3,0
		l33.5-33.5c1.8-1.8,1.8-4.5,0-6.3L538.6,162.8z"/>
	<path class="st10" d="M548,185.1c-1.7-1.7-4.6-1.7-6.3,0l-33.5,33.5c-1.7,1.7-1.7,4.6,0,6.3l1.6,1.6c1.7,1.7,4.6,1.7,6.3,0
		l33.5-33.5c1.8-1.8,1.8-4.5,0-6.3L548,185.1z"/>
	<path class="st7" d="M565.6,197.8l-31.9,31.9c-2.1,2.1-2.1,5.7,0,7.9c2.1,2.1,5.7,2.1,7.9,0l31.9-31.9c2.1-2.1,2.1-5.7,0-7.9
		C571.2,195.5,567.9,195.5,565.6,197.8z"/>
	<path class="st6" d="M595.7,78.7c-7.9-7.9-20.6-7.8-28.4,0l-39.8,39.8c-7.9,7.9-7.8,20.6,0,28.4l30.6,30.6l68.3-68.3l-30.6-30.6
		L595.7,78.7z"/>
	<path class="st4" d="M626.3,109.3l-68.3,68.3l30.6,30.6c8,7.8,20.7,7.9,28.6,0l39.8-39.8c7.9-7.9,7.8-20.6,0-28.4L626.3,109.3z"/>
	<path class="st4" d="M530.7,150.2l-5.7,5.7c-3.7,3.7-3.7,9.8,0,13.7l20.5,20.5l19.4-19.4l-20.4-20.6
		C540.7,146.5,534.6,146.5,530.7,150.2z"/>
	<path class="st5" d="M565,170.6L545.7,190l20.5,20.5c3.7,3.7,9.8,3.7,13.5,0l5.7-5.7c3.7-3.7,3.7-9.8,0-13.7L565,170.6z"/>
</g>
<g>
	<circle class="st12" cx="72.1" cy="141.4" r="24.2"/>
	<path class="st7" d="M135.2,227c-1.8-1.8-4.5-1.8-6.3,0l-1.6,1.6c-1.7,1.7-1.7,4.6,0,6.3l33.5,33.5c1.7,1.7,4.6,1.7,6.3,0l1.6-1.6
		c1.7-1.7,1.7-4.6,0-6.3L135.2,227z"/>
	<path class="st10" d="M157.5,217.6c-1.8-1.8-4.5-1.8-6.3,0l-1.6,1.6c-1.7,1.7-1.7,4.6,0,6.3l33.5,33.5c1.7,1.7,4.6,1.7,6.3,0
		l1.6-1.6c1.7-1.7,1.7-4.6,0-6.3L157.5,217.6z"/>
	<path class="st7" d="M170.1,193.7c-2.1-2.1-5.7-2.1-7.9,0c-2.3,2.3-2.3,5.6,0,7.9l31.9,31.9c2.1,2.1,5.7,2.1,7.9,0
		c2.1-2.1,2.1-5.7,0-7.9L170.1,193.7z"/>
	<path class="st6" d="M43,171.4l0.1,0.1c-7.9,7.9-7.8,20.6,0,28.4l39.8,39.8c7.9,7.9,20.6,7.8,28.4,0l30.6-30.6l-68.3-68.3L43,171.4
		z"/>
	<path class="st4" d="M132.9,110.1c-7.9-7.9-20.6-7.8-28.4,0l-30.8,30.8l68.3,68.3l30.6-30.6c7.8-8,7.9-20.7,0-28.6L132.9,110.1z"/>
	<path class="st4" d="M114.7,222.7c-3.7,3.7-3.7,9.8,0,13.7l5.7,5.7c3.7,3.7,9.8,3.7,13.7,0l20.5-20.5l-19.4-19.4L114.7,222.7z"/>
	<path class="st5" d="M169.2,181.7c-3.7-3.7-9.8-3.7-13.7,0l-20.4,20.4l19.4,19.4L175,201c3.7-3.7,3.7-9.8,0-13.5L169.2,181.7z"/>
</g>
<g>
	<circle class="st12" cx="-83" cy="209.2" r="24.2"/>
	<path class="st7" d="M-188.2,193.3h-47.3c-2.4,0-4.5-2.1-4.5-4.5v-2.2c0-2.4,2.1-4.5,4.5-4.5h47.3c2.4,0,4.5,2.1,4.5,4.5v2.2
		C-183.7,191.4-185.6,193.3-188.2,193.3z"/>
	<path class="st10" d="M-197.3,215.8h-47.3c-2.4,0-4.5-2.1-4.5-4.5v-2.2c0-2.4,2.1-4.5,4.5-4.5h47.3c2.4,0,4.5,2.1,4.5,4.5v2.2
		C-192.8,213.9-194.7,215.8-197.3,215.8z"/>
	<path class="st7" d="M-189.3,230.4h-45.1c-3,0-5.6,2.5-5.6,5.6l0,0c0,3,2.5,5.6,5.6,5.6h45.1c3,0,5.6-2.5,5.6-5.6l0,0
		C-183.7,232.8-186.1,230.4-189.3,230.4z"/>
	<path class="st6" d="M-83.8,167.5c0-11.2-9.1-20.1-20.1-20.1h-56.2c-11.2,0-20.1,9.1-20.1,20.1v43.3h96.5v-43.3H-83.8z"/>
	<path class="st4" d="M-160.1,274.4h56.2c11.2,0,20.1-9.1,20.1-20.1v-43.5h-96.5v43.3C-180.2,265.3-171.3,274.4-160.1,274.4z"/>
	<path class="st4" d="M-170.7,181.8c0-5.3-4.3-9.6-9.7-9.7h-8.1c-5.3,0-9.6,4.3-9.7,9.7v29h27.4L-170.7,181.8z"/>
	<path class="st5" d="M-188.3,249.4h8.1c5.3,0,9.6-4.3,9.7-9.7v-28.8h-27.4v29C-197.9,245.1-193.6,249.4-188.3,249.4z"/>
</g>
<path class="st7" d="M-160.1,289.4c-15.9,0-29.6-10.9-33.8-25.7c-4.8-1.1-9-3.6-12.3-7.2h-28.1c-5.4,0-10.6-2.1-14.5-6l-0.1-0.1
	c-3.9-3.9-6-9-6-14.5c0-2.6,0.5-5.1,1.4-7.4c-6.2-3.3-10.5-9.8-10.5-17.3v-2.2c0-7.1,3.8-13.2,9.4-16.7c-0.2-1.2-0.3-2.4-0.3-3.6
	v-2.2c0-10.7,8.7-19.5,19.5-19.5h27.1c3.5-4.7,8.6-8.2,14.5-9.5c4.3-14.6,17.7-25.3,33.7-25.3h56.2c14,0,35.1,13.4,35.1,30.5
	l0.1,9.8c14.5,5.7,24.9,19.9,24.9,36.5c0,16.6-10.4,30.9-25,36.6v8.5c0,19.3-15.7,35.1-35.1,35.1H-160.1z"/>
</svg>
