<?xml version="1.0" encoding="utf-8"?>
<!-- Generator: Adobe Illustrator 19.0.0, SVG Export Plug-In . SVG Version: 6.00 Build 0)  -->
<svg version="1.1" id="Layer_1" xmlns="http://www.w3.org/2000/svg" xmlns:xlink="http://www.w3.org/1999/xlink" x="0px" y="0px"
	 viewBox="96 11 512 512" style="enable-background:new 96 11 512 512;" xml:space="preserve">
<style type="text/css">
	.st0{fill:#FF8C29;}
	.st1{fill:#FD6A33;}
	.st2{fill:#FFD1A9;}
	.st3{fill:#9BAAAB;}
	.st4{fill:#4ACFD9;}
	.st5{fill:#0295AA;}
	.st6{fill:#365558;}
</style>
<path class="st0" d="M477.6,357.7c-5.4,0-10.6-2.1-14.5-6l-0.1-0.1c-3.9-3.9-6-9-6-14.5c0-2.6,0.5-5.1,1.4-7.4
	c-6.2-3.3-10.5-9.8-10.5-17.3v-2.2c0-7.1,3.8-13.2,9.4-16.7c-0.2-1.2-0.3-2.4-0.3-3.6v-2.2c0-10.7,8.7-19.5,19.5-19.5h27.1
	c2.7-3.6,6.3-6.5,10.5-8.2v-58c0-28.7-23.7-52.1-52.1-52h-64.4v23.4c0,5.4-2.1,10.6-6,14.5l-0.1,0.1c-3.9,3.9-9,6-14.5,6
	c-2.6,0-5.1-0.5-7.4-1.4c-3.3,6.2-9.8,10.5-17.3,10.5H352v155.1h7.7v0.1h6.8c2.9,0,5.2,2.3,5.1,5.1v9.3c0,2.9-2.3,5.1-5.1,5.1h-6.8
	h-4.6H352v73h110.1c28.7,0,52.1-23.3,52.1-52.1v-35.2c-3.2-1.4-6.1-3.4-8.5-5.9H477.6z M423.6,240.2c14.3,0,26,11.6,26,26
	c0,14.3-11.6,26-26,26c-14.5,0-26-11.6-26-26S409.2,240.2,423.6,240.2z M443.1,372.5c0,3.1-2.6,5.5-5.5,5.5h-28.3
	c-2.9,0-5.4-2.6-5.5-5.5v-8.7c0-3.1,2.6-5.5,5.5-5.5h28.3c3.1,0,5.5,2.6,5.5,5.5V372.5z"/>
<path class="st1" d="M337.7,358.2v-0.1H352v-155h-1.8c-7.1,0-13.2-3.8-16.7-9.4c-1.2,0.2-2.4,0.3-3.6,0.3h-2.2
	c-10.7,0-19.5-8.7-19.5-19.5v-24.6H242c-28.7,0-52.1,23.3-52.1,52.1v58.4c3.2,1.4,6.1,3.4,8.5,5.9h28.1c5.4,0,10.6,2.1,14.5,6
	l0.1,0.1c3.9,3.9,6,9,6,14.5c0,2.6-0.5,5.1-1.4,7.4c6.2,3.3,10.5,9.8,10.5,17.3v2.2c0,7.1-3.8,13.2-9.4,16.7
	c0.2,1.2,0.3,2.4,0.3,3.6v2.2c0,10.7-8.7,19.5-19.5,19.5h-27.1c-2.7,3.6-6.3,6.5-10.6,8.2v34.8c0,28.7,23.3,52.1,52.1,52.1h110v-73
	h-14.5c-2.9,0-5-2.3-5-5.1v-9.5C332.5,360.4,334.8,358.2,337.7,358.2z M300,372.8c0,2.9-2.3,5.1-5.1,5.1h-29.1
	c-2.9,0-5.1-2.3-5.1-5.1v-9.5c0-2.9,2.3-5.1,5.1-5.1h29.1c2.8,0,5.1,2.3,5.1,4.9V372.8z M280.4,292c-14.3,0-26-11.6-26-26
	s11.6-26,26-26c14.5,0,26,11.8,26,26C306.4,280.4,294.7,292,280.4,292z"/>
<path class="st2" d="M143,332.1c0.6-1.9,0.1-4-0.9-5.5c-1-1.2-1.9-1.9-3.7-1.8c-3.3-1-6.8,1.3-7.7,4.9c-3.6,14.5-0.9,29.7,7.7,41.5
	c2.2,2.7,6,3.2,9,1c2.7-2.2,3.3-6.3,1.3-9.2C142.5,354.1,140.4,342.8,143,332.1z"/>
<path class="st2" d="M566.4,324.7c-1.8,0-2.7,0.8-3.7,1.8c-1,1.5-1.5,3.7-0.9,5.5c2.6,10.9,0.5,21.9-5.6,30.8c-2,2.9-1.3,7,1.3,9.2
	c2.9,2.2,6.9,1.8,9-1c8.6-11.8,11.4-27,7.7-41.5C573.2,326.2,569.7,323.8,566.4,324.7z"/>
<g>
	<circle class="st3" cx="629" cy="310.3" r="24.2"/>
	<path class="st1" d="M523.8,283.2h-47.3c-2.4,0-4.5,2.1-4.5,4.5v2.2c0,2.4,2.1,4.5,4.5,4.5h47.3c2.5,0,4.5-1.9,4.5-4.5v-2.2
		C528.3,285.3,526.2,283.2,523.8,283.2z"/>
	<path class="st0" d="M514.8,305.7h-47.3c-2.4,0-4.5,2.1-4.5,4.5v2.2c0,2.4,2.1,4.5,4.5,4.5h47.3c2.5,0,4.5-1.9,4.5-4.5v-2.2
		C519.2,307.8,517.1,305.7,514.8,305.7z"/>
	<path class="st1" d="M522.7,331.5h-45.1c-3,0-5.6,2.5-5.6,5.6c0,3,2.5,5.6,5.6,5.6h45.1c3,0,5.6-2.5,5.6-5.6
		C528.3,333.9,525.9,331.5,522.7,331.5z"/>
	<path class="st4" d="M608.1,248.5h-56.2c-11.2,0-20.1,9.1-20.1,20.1v43.3h96.5v-43.3h-0.2C628.2,257.4,619.1,248.5,608.1,248.5z"/>
	<path class="st5" d="M531.6,355.2c0.2,11.2,9.1,20.2,20.2,20.2h56.2c11.2,0,20.1-9.1,20.1-20.1v-43.5h-96.5V355.2z"/>
	<path class="st5" d="M531.6,273.2h-8.1c-5.3,0-9.6,4.3-9.7,9.7v29h27.4l0.2-29C541.4,277.7,537.1,273.4,531.6,273.2z"/>
	<path class="st6" d="M514.1,340.9c0,5.3,4.3,9.6,9.6,9.6h8.1c5.3,0,9.6-4.3,9.7-9.7v-28.8h-27.4V340.9z"/>
</g>
<g>
	<circle class="st3" cx="75.2" cy="313.7" r="24.2"/>
	<path class="st1" d="M227.7,329.6h-47.3c-2.5,0-4.5,1.9-4.5,4.5v2.2c0,2.4,2.1,4.5,4.5,4.5h47.3c2.4,0,4.5-2.1,4.5-4.5v-2.2
		C232.1,331.7,230.1,329.6,227.7,329.6z"/>
	<path class="st0" d="M236.7,307.1h-47.3c-2.5,0-4.5,1.9-4.5,4.5v2.2c0,2.4,2.1,4.5,4.5,4.5h47.3c2.4,0,4.5-2.1,4.5-4.5v-2.2
		C241.2,309.2,239.1,307.1,236.7,307.1z"/>
	<path class="st1" d="M226.6,281.3h-45.1c-3,0-5.6,2.5-5.6,5.6c0,3.2,2.4,5.6,5.6,5.6h45.1c3,0,5.6-2.5,5.6-5.6
		S229.6,281.3,226.6,281.3z"/>
	<path class="st4" d="M75.9,355.4H76c0,11.2,9.1,20.1,20.1,20.1h56.2c11.2,0,20.1-9.1,20.1-20.1v-43.3H75.9V355.4z"/>
	<path class="st5" d="M152.3,248.5H96.1c-11.2,0-20.1,9.1-20.1,20.1v43.5h96.5v-43.3C172.4,257.6,163.5,248.5,152.3,248.5z"/>
	<path class="st5" d="M162.8,341.1c0,5.3,4.3,9.6,9.7,9.7h8.1c5.3,0,9.6-4.3,9.7-9.7v-29H163L162.8,341.1z"/>
	<path class="st6" d="M180.5,273.5h-8.1c-5.3,0-9.6,4.3-9.7,9.7v28.8h27.4v-29C190.1,277.8,185.8,273.5,180.5,273.5z"/>
</g>
<g>
	<circle class="st3" cx="350.3" cy="22.1" r="24.2"/>
	<path class="st1" d="M329.9,122.8h-2.2c-2.4,0-4.5,2.1-4.5,4.5v47.3c0,2.4,2.1,4.5,4.5,4.5h2.2c2.4,0,4.5-2.1,4.5-4.5v-47.3
		C334.4,124.7,332.5,122.8,329.9,122.8z"/>
	<path class="st0" d="M352.4,131.9h-2.2c-2.4,0-4.5,2.1-4.5,4.5v47.3c0,2.4,2.1,4.5,4.5,4.5h2.2c2.4,0,4.5-2.1,4.5-4.5v-47.3
		C356.9,133.8,354.9,131.9,352.4,131.9z"/>
	<path class="st1" d="M377.1,122.8c-3.2,0-5.6,2.4-5.6,5.6v45.1c0,3,2.5,5.6,5.6,5.6c3,0,5.6-2.5,5.6-5.6v-45.1
		C382.7,125.3,380.1,122.8,377.1,122.8z"/>
	<path class="st4" d="M308.6,22.9c-11.2,0-20.1,9.1-20.1,20.1v56.2c0,11.2,9.1,20.1,20.1,20.1h43.3V22.7h-43.3V22.9z"/>
	<path class="st5" d="M395.4,22.9h-43.5v96.5h43.3c11.2-0.2,20.2-9.1,20.2-20.2V43C415.5,31.8,406.4,22.9,395.4,22.9z"/>
	<path class="st5" d="M313.2,119.4v8.1c0,5.3,4.3,9.6,9.7,9.7h29v-27.4l-29-0.2C317.7,109.7,313.4,114,313.2,119.4z"/>
	<path class="st6" d="M380.8,109.6h-28.8V137h29c5.3,0,9.6-4.3,9.6-9.6v-8.1C390.5,114,386.2,109.7,380.8,109.6z"/>
</g>
</svg>
