<?xml version="1.0" encoding="utf-8"?>
<!-- Generator: Adobe Illustrator 19.0.0, SVG Export Plug-In . SVG Version: 6.00 Build 0)  -->
<svg version="1.1" id="Layer_1" xmlns="http://www.w3.org/2000/svg" xmlns:xlink="http://www.w3.org/1999/xlink" x="0px" y="0px"
	 viewBox="-49 141 512 512" style="enable-background:new -49 141 512 512;" xml:space="preserve">
<style type="text/css">
	.st0{display:none;fill:#FFD1A9;}
	.st1{display:none;fill:#FF8C29;}
	.st2{display:none;fill:#FFFFFF;}
	.st3{display:none;fill:#F0353D;}
	.st4{fill:#E6EAEA;}
	.st5{fill:#CDD4D5;}
	.st6{fill:#FFD1A9;}
	.st7{fill:#FF8C29;}
	.st8{fill:#9BAAAB;}
	.st9{fill:#687F82;}
	.st10{fill:#365558;}
	.st11{fill:#F0353D;}
	.st12{fill:#FD6A33;}
	.st13{fill:#4ACFD9;}
	.st14{fill:#0295AA;}
</style>
<path class="st0" d="M590,326.1c-63.4,0-114.9,51.5-114.9,114.9S526.6,555.9,590,555.9S704.9,504.4,704.9,441S653.4,326.1,590,326.1
	z"/>
<path class="st1" d="M475.1,441c0,63.4,51.5,114.9,114.9,114.9V326.1C526.6,326.1,475.1,377.6,475.1,441z"/>
<path class="st2" d="M662.6,423.4c-3.3,0-6.4-2.1-7.6-5.3c-5.9-16.7-18.4-30.9-34.4-38.8c-4-2-5.6-6.8-3.6-10.7
	c2-4,6.8-5.6,10.7-3.6c19.6,9.8,35.1,27.2,42.4,47.8c1.5,4.2-0.7,8.8-4.9,10.2C664.4,423.2,663.5,423.4,662.6,423.4z"/>
<path class="st3" d="M633.4,433.8l-65-50.4c-2.4-1.9-5.7-2.2-8.4-0.9s-4.5,4.1-4.5,7.2v102.6c0,3.1,1.8,5.9,4.6,7.2
	c1.1,0.5,2.3,0.8,3.5,0.8c1.8,0,3.6-0.6,5-1.8l65-52.2c1.9-1.5,3-3.9,3-6.3C636.5,437.6,635.3,435.3,633.4,433.8z"/>
<g>
	<path class="st4" d="M295.5,353.1h27.2c3.5-4.7,8.6-8.2,14.5-9.5c4.3-14.6,17.7-25.3,33.7-25.3h56.2c6,0,13.2,2.4,19.6,6.5V168.4
		c0.2-4.1-3.2-7.4-7.3-7.4H-25.8c-4.1,0-7.4,3.3-7.4,7.4v156.4c5.7-4,12.6-6.3,20.1-6.3h56.2c15.9,0,29.6,10.9,33.8,25.7
		c4.8,1.1,9,3.6,12.3,7.2h28.1c5.4,0,10.6,2.1,14.5,6l0.1,0.1c3.9,3.9,6,9,6,14.5c0,2.6-0.5,5.1-1.4,7.4c6.2,3.3,10.5,9.8,10.5,17.3
		v2.2c0,7.1-3.8,13.2-9.4,16.7c0.2,1.2,0.3,2.4,0.3,3.6v2.2c0,10.7-8.7,19.5-19.5,19.5H91.3c-3.5,4.7-8.6,8.2-14.5,9.5
		c-4.3,14.6-17.7,25.3-33.7,25.3h-56.2c-6.1,0-13.6-2.6-20.1-6.9v156.9c0,4.1,3.3,7.4,7.4,7.4h465.1c4.1,0,7.4-3.3,7.4-7.4V469.5
		c-5.6,3.8-12.3,6-19.6,6h-56.2c-15.9,0-29.6-10.9-33.8-25.7c-4.8-1.1-9-3.6-12.3-7.2h-28.1c-5.4,0-10.6-2.1-14.5-6l-0.1-0.1
		c-3.9-3.9-6-9-6-14.5c0-2.6,0.5-5.1,1.4-7.4c-6.2-3.3-10.5-9.8-10.5-17.3V395c0-7.1,3.8-13.2,9.4-16.7c-0.2-1.2-0.3-2.4-0.3-3.6
		v-2.2C276.1,362,284.9,353.1,295.5,353.1z"/>
	<path class="st5" d="M-25.8,160.9c-4.1,0-7.4,3.3-7.4,7.4v156.4c5.7-4,12.6-6.3,20.1-6.3h56.2c15.9,0,29.6,10.9,33.8,25.7
		c4.8,1.1,9,3.6,12.3,7.2h28.1c5.4,0,10.6,2.1,14.5,6l0.1,0.1c3.9,3.9,6,9,6,14.5c0,2.6-0.5,5.1-1.4,7.4c6.2,3.3,10.5,9.8,10.5,17.3
		v2.2c0,7.1-3.8,13.2-9.4,16.7c0.2,1.2,0.3,2.4,0.3,3.6v2.2c0,10.7-8.7,19.5-19.5,19.5H91.3c-3.5,4.7-8.6,8.2-14.5,9.5
		c-4.3,14.6-17.7,25.3-33.7,25.3h-56.2c-6.1,0-13.6-2.6-20.1-6.9v156.9c0,4.1,3.3,7.4,7.4,7.4h231.6V160.9H-25.8z"/>
	<path class="st6" d="M371,475.5c-15.9,0-29.6-10.9-33.8-25.7c-4.8-1.1-9-3.6-12.3-7.2h-28.1c-5.4,0-10.6-2.1-14.5-6l-0.1-0.1
		c-3.9-3.9-6-9-6-14.5c0-0.7,0-1.3,0.1-2L206.9,481l-69-63.7c0,0.5,0.1,1,0.1,1.6v2.2c0,10.7-8.7,19.5-19.5,19.5H91.4
		c-3.5,4.7-8.6,8.2-14.5,9.5c-4.3,14.6-17.7,25.3-33.7,25.3H22.6l-12.2,13.8v100.2h393.1v-114L371,475.5L371,475.5z"/>
	<polygon class="st6" points="403.5,280.8 371,318.5 403.5,318.5 	"/>
	<path class="st7" d="M137.9,417.5c0,0.5,0.1,1.1,0.1,1.6v2.2c0,10.7-8.7,19.5-19.5,19.5H91.4c-3.5,4.7-8.6,8.2-14.5,9.5
		c-4.3,14.6-17.7,25.3-33.7,25.3H22.6l-12.2,13.8v100.2H206V480.3L137.9,417.5z"/>
	<path class="st8" d="M406.8,318.5V208.5c0-4.3-3.3-7.6-7.4-7.6h-385c-4.1,0-7.4,3.3-7.4,7.4v110.1H22v-14.3h77.2v47.1h15.1v-47.1
		h85.2v81.3h-56c2.2,3.2,3.5,7,3.5,11.1v2.2c0,0.6,0,1.1-0.1,1.7h52.5v81.3h-85.2v-41H99.1v41H21.8v-6.3H6.9v109.9
		c0,4.1,3.3,7.4,7.4,7.4h385c4.1,0,7.4-3.3,7.4-7.4V475.5h-15.1v6.3h-77.2v-39.1h-15.1v39h-85.2v-81.3h53c-0.1-1-0.2-1.9-0.2-3v-2.2
		c0-3.5,0.9-6.8,2.6-9.7h-55.4v-81.3h85.2v49h15.1v-49h77.2v14.3L406.8,318.5L406.8,318.5z M99.1,215.9v73.3H21.9v-73.3H99.1
		L99.1,215.9L99.1,215.9z M98.9,578H21.8v-81.3h77.2V578z M199.5,578h-85.2v-81.3h85.2V578z M314.5,496.7h77.2V578h-77.2V496.7z
		 M199.5,289.3h-85.2v-73.3h85.2V289.3z M299.5,496.7V578h-85.2v-81.3H299.5z M299.5,289.3h-85.2v-73.3h85.2V289.3z M314.8,289.3
		v-73.3H392v73.3H314.8z"/>
	<path class="st9" d="M14.4,200.9c-4.1,0-7.4,3.3-7.4,7.4v110.1h15.1v-14.3h77.2v47.1h15.1v-47.1h85.2v81.3h-56
		c2.2,3.2,3.5,7,3.5,11.1v2.2c0,0.5,0,1-0.1,1.5h52.5v81.3h-85.2v-40.9H99.1v40.9H21.9v-6.1H6.8v109.9c0,4.1,3.3,7.4,7.4,7.4h191.6
		V200.9H14.4z M99.1,578H21.9v-81.3h77.2V578z M199.5,578h-85.2v-81.3h85.2V578z M99.1,289.3H21.9v-73.3h77.2V289.3z M199.5,289.3
		h-85.4v-73.3h85.4V289.3z"/>
	<path class="st10" d="M276.1,422c0-2.6,0.5-5.1,1.4-7.4c-0.8-0.4-1.6-0.9-2.4-1.5l-68.3,65.6l-67.3-64.7c-0.6,0.5-1.3,0.9-2,1.4
		c0.2,1.2,0.3,2.4,0.3,3.6v2.2c0,3.5-0.9,6.8-2.6,9.6l66.1,63.5c3,2.8,7.4,2.8,10.4,0l66.3-63.6C276.9,428.2,276.1,425.2,276.1,422z
		"/>
	<path class="st10" d="M8.9,488c-2.8,3-2.6,7.8,0.4,10.6c1.3,1.3,3.2,2,5,2c2,0,4.1-0.7,5.4-2.6l20.9-22.7h-20L8.9,488z"/>
	<path class="st10" d="M385.3,318.5l15.3-16.7c3-3,2.6-7.8-0.4-10.6c-3-3-7.8-2.6-10.6,0.4l-25.2,27.6c2.1-0.4,4.3-0.6,6.5-0.6
		L385.3,318.5L385.3,318.5z"/>
	<path class="st11" d="M-13.1,489.2c0,15.2,12.5,27.5,27.5,27.5c15.2,0,27.5-12.3,27.5-27.5c0-5-1.3-9.7-3.7-13.8H-9.5
		C-11.9,479.5-13.1,484.2-13.1,489.2z"/>
	<path class="st12" d="M206.9,461.7c-15.2,0-27.5,12.3-27.5,27.5s12.5,27.5,27.5,27.5c15.2,0,27.5-12.3,27.5-27.5
		S222,461.7,206.9,461.7z"/>
	<path class="st11" d="M179.4,489.2c0,14.9,11.9,27,26.6,27.5v-55C191,462.3,179.4,474.3,179.4,489.2z"/>
	<path class="st13" d="M422.8,296.8c0.2-15.2-12.3-27.5-27.5-27.5s-27.5,12.2-27.5,27.5c0,8.9,4.2,16.7,10.7,21.8H412
		C418.5,313.5,422.8,305.5,422.8,296.8z"/>
	<g>
		<circle class="st8" cx="448" cy="395.3" r="24.2"/>
		<path class="st12" d="M342.9,368.1h-47.3c-2.4,0-4.5,2.1-4.5,4.5v2.2c0,2.4,2.1,4.5,4.5,4.5h47.3c2.5,0,4.5-1.9,4.5-4.5v-2.2
			C347.4,370.3,345.3,368.1,342.9,368.1z"/>
		<path class="st7" d="M333.9,390.7h-47.3c-2.4,0-4.5,2.1-4.5,4.5v2.2c0,2.4,2.1,4.5,4.5,4.5h47.3c2.5,0,4.5-1.9,4.5-4.5v-2.2
			C338.3,392.8,336.3,390.7,333.9,390.7z"/>
		<path class="st12" d="M341.8,416.5h-45.1c-3,0-5.6,2.5-5.6,5.6c0,3,2.5,5.6,5.6,5.6h45.1c3,0,5.6-2.5,5.6-5.6
			C347.4,418.8,345,416.5,341.8,416.5z"/>
		<path class="st13" d="M427.2,333.5H371c-11.2,0-20.1,9.1-20.1,20.1v43.3h96.5v-43.3h-0.2C447.3,342.3,438.2,333.5,427.2,333.5z"/>
		<path class="st14" d="M350.6,440.3c0.2,11.2,9.1,20.2,20.2,20.2H427c11.2,0,20.1-9.1,20.1-20.1v-43.5h-96.5L350.6,440.3
			L350.6,440.3z"/>
		<path class="st14" d="M350.6,358.1h-8.1c-5.3,0-9.6,4.3-9.7,9.7v29h27.4l0.2-29C360.5,362.6,356.1,358.3,350.6,358.1z"/>
		<path class="st10" d="M333.1,425.8c0,5.3,4.3,9.6,9.6,9.6h8.1c5.3,0,9.6-4.3,9.7-9.7V397h-27.4L333.1,425.8L333.1,425.8z"/>
	</g>
	<g>
		<circle class="st8" cx="-34.1" cy="398.7" r="24.2"/>
		<path class="st12" d="M118.5,414.5H71.2c-2.5,0-4.5,1.9-4.5,4.5v2.2c0,2.4,2.1,4.5,4.5,4.5h47.3c2.4,0,4.5-2.1,4.5-4.5V419
			C122.9,416.7,120.9,414.5,118.5,414.5z"/>
		<path class="st7" d="M127.5,392H80.2c-2.5,0-4.5,1.9-4.5,4.5v2.2c0,2.4,2.1,4.5,4.5,4.5h47.3c2.4,0,4.5-2.1,4.5-4.5v-2.2
			C132,394.2,129.9,392,127.5,392z"/>
		<path class="st12" d="M117.4,366.3H72.3c-3,0-5.6,2.5-5.6,5.6c0,3.2,2.4,5.6,5.6,5.6h45.1c3,0,5.6-2.5,5.6-5.6
			C122.9,368.8,120.4,366.3,117.4,366.3z"/>
		<path class="st13" d="M-33.3,440.3h0.2c0,11.2,9.1,20.1,20.1,20.1h56.2c11.2,0,20.1-9.1,20.1-20.1V397h-96.5L-33.3,440.3
			L-33.3,440.3z"/>
		<path class="st14" d="M43.1,333.5h-56.2c-11.2,0-20.1,9.1-20.1,20.1V397h96.5v-43.3C63.1,342.5,54.3,333.5,43.1,333.5z"/>
		<path class="st14" d="M53.6,426c0,5.3,4.3,9.6,9.7,9.7h8.1c5.3,0,9.6-4.3,9.7-9.7v-29H53.8L53.6,426z"/>
		<path class="st10" d="M71.3,358.5h-8.1c-5.3,0-9.6,4.3-9.7,9.7V397h27.4v-29C80.9,362.8,76.6,358.5,71.3,358.5z"/>
	</g>
</g>
</svg>
