<?xml version="1.0" encoding="utf-8"?>
<!-- Generator: Adobe Illustrator 19.0.0, SVG Export Plug-In . SVG Version: 6.00 Build 0)  -->
<svg version="1.1" id="Layer_1" xmlns="http://www.w3.org/2000/svg" xmlns:xlink="http://www.w3.org/1999/xlink" x="0px" y="0px"
	 viewBox="96 11 512 512" style="enable-background:new 96 11 512 512;" xml:space="preserve">
<style type="text/css">
	.st0{fill:#FD6A33;}
	.st1{fill:#F0353D;}
	.st2{fill:#E6EAEA;}
	.st3{fill:#9BAAAB;}
	.st4{fill:#CDD4D5;}
	.st5{fill:#687F82;}
	.st6{fill:#4ACFD9;}
	.st7{fill:#FF8C29;}
	.st8{fill:#FFFFFF;}
</style>
<g>
	<path class="st0" d="M656.9,677.9l-81.2-77c-4.7-4.4-10.8-6.8-17.2-6.6s-12.4,2.8-16.8,7.5s-6.8,10.8-6.6,17.2
		c0.2,6.4,2.8,12.4,7.5,16.8l62.3,59l-61.8,55.3c-4.8,4.3-7.6,10.2-8,16.6c-0.4,6.4,1.8,12.6,6.1,17.4c4.6,5.1,11.1,8,17.9,8l0,0
		c5.9,0,11.6-2.2,16-6.1l81.2-72.7c5-4.5,7.9-10.9,8-17.6C664.5,689,661.8,682.5,656.9,677.9z"/>
	<path class="st0" d="M498.5,606.1c-11.5-6.6-26.2-2.6-32.8,8.8L384.5,756c-6.6,11.5-2.6,26.2,8.8,32.8c3.6,2.1,7.8,3.2,12,3.2
		c8.6,0,16.6-4.6,20.9-12.1L507.3,639c3.2-5.6,4.1-12.1,2.4-18.3C508,614.5,504,609.3,498.5,606.1z"/>
</g>
<g>
	<path class="st1" d="M384.4,756.1c-6.6,11.5-2.6,26.2,8.8,32.8c3.6,2.1,7.8,3.2,12,3.2c8.6,0,16.6-4.6,20.9-12.1l21.9-38v-96.4
		L384.4,756.1z"/>
	<path class="st1" d="M360.9,619.1c0.2-6.4-2.2-12.5-6.6-17.2s-10.4-7.3-16.8-7.5c-6.4-0.2-12.5,2.2-17.2,6.6l-81.2,77
		c-4.9,4.6-7.6,11.1-7.5,17.8s3,13.1,8,17.6l81.2,72.7c4.4,4,10.1,6.1,16,6.1l0,0c6.8,0,13.4-2.9,17.9-8c8.8-9.9,8-25.1-1.9-34
		L291,694.9l62.3-59C358,631.5,360.7,625.5,360.9,619.1z"/>
</g>
<text transform="matrix(0.9049 0 0 1 779.0869 408.6094)" style="font-family:'SegoeUIBlack'; font-size:276.9418px;">{...}</text>
<text transform="matrix(0.9049 0 0 1 773.9999 694.3604)" style="font-family:'SegoeUIBlack'; font-size:276.9418px;">{ ; }</text>
<text transform="matrix(0.9049 0 0 1 773.9999 128.4814)" style="font-family:'SegoeUIBlack'; font-size:276.9418px;">&lt;/&gt;</text>
<g>
	<path class="st1" d="M-674.7,201.3c-3.8,7.4-5.7,19.1-5.7,35V259c0,16.4-6.1,24.6-18.2,24.6v30.3c12.2,0,18.2,8.1,18.2,24.3v24.3
		c0,15.1,1.9,26.4,5.8,33.7c3.9,7.3,10.2,12.8,18.9,16.2c8.7,3.5,20.6,5.2,35.7,5.2v-30.3c-7,0-12-1.7-15.1-5.1
		c-3-3.4-4.5-9.1-4.5-17.2v-17.2c0-13.1-1.5-23.6-4.6-31.6s-8-13.8-14.7-17.4v-0.5c6.9-3.6,11.8-9.3,14.8-17c3-7.8,4.5-17.8,4.5-30
		V232c0-8,1.6-13.7,4.8-17s8.1-5,14.8-5v-30.3c-15.3,0-27.3,1.7-36,5.2C-664.6,188.4-670.9,193.8-674.7,201.3z"/>
	<path class="st1" d="M-546.5,330.3c-5.3-4.9-12.3-7.4-21-7.4c-8.9,0-16,2.5-21.2,7.4c-5.3,4.9-7.9,11.3-7.9,19.3
		c0,7.8,2.7,14.3,8,19.5c5.3,5.3,12.2,7.9,20.6,7.9c9.2,0,16.4-2.5,21.7-7.6c5.2-5,7.8-11.7,7.8-19.9
		C-538.5,341.6-541.2,335.2-546.5,330.3z"/>
	<path class="st0" d="M-458.4,349.5c0-7.9-2.7-14.4-8-19.3c-5.1-4.7-11.7-7.1-19.8-7.3v54c8.4-0.3,15.1-2.8,20-7.5
		C-461,364.4-458.4,357.7-458.4,349.5z"/>
	<path class="st1" d="M-487.4,322.9c-8.9,0-16,2.5-21.2,7.4c-5.3,4.9-7.9,11.3-7.9,19.3c0,7.8,2.7,14.3,8,19.5
		c5.3,5.3,12.2,7.9,20.6,7.9c0.6,0,1.1,0,1.7,0v-54C-486.6,322.9-487,322.9-487.4,322.9z"/>
	<path class="st0" d="M-378.2,349.5c0,8.2-2.6,14.8-7.8,19.9c-5.2,5-12.4,7.6-21.7,7.6c-8.4,0-15.3-2.6-20.6-7.9s-8-11.8-8-19.5
		c0-7.9,2.6-14.4,7.9-19.3c5.3-4.9,12.3-7.4,21.2-7.4c8.6,0,15.6,2.5,21,7.4C-380.9,335.2-378.2,341.6-378.2,349.5z"/>
	<path class="st0" d="M-276.3,313.8c-12.2,0-18.2,8.2-18.2,24.6v22.7c0,15.9-1.9,27.5-5.7,35c-3.8,7.4-10,12.9-18.7,16.4
		c-8.7,3.5-20.7,5.2-36,5.2v-30.3c6.8,0,11.7-1.7,14.9-5c3.1-3.3,4.7-9,4.7-17v-19.2c0-12.2,1.5-22.1,4.5-29.9s7.9-13.5,14.9-17.2
		v-0.5c-6.8-3.7-11.7-9.6-14.7-17.7c-3.1-8.1-4.6-18.6-4.6-31.4v-17c0-8-1.5-13.8-4.4-17.2c-2.9-3.5-8-5.2-15.2-5.2v-30.3
		c15.2,0,27.1,1.7,35.8,5.2c8.7,3.5,15,8.9,18.8,16.2c3.9,7.3,5.8,18.6,5.8,33.7v24.3c0,16.2,6.1,24.3,18.2,24.3v30.3H-276.3z"/>
</g>
<g>
	<path class="st2" d="M600,15.3H104c-4.4,0-8,3.6-8,8v487.4c0,4.4,3.6,8,8,8h496c4.4,0,8-3.6,8-8V23.3C608,18.9,604.4,15.3,600,15.3
		z"/>
	<path class="st3" d="M600,15.3H104c-4.4,0-8,3.6-8,8v110.6h512V23.3C608,18.9,604.4,15.3,600,15.3z"/>
	<path class="st4" d="M104,15.3c-4.4,0-8,3.6-8,8v487.4c0,4.4,3.6,8,8,8h248V15.3H104z"/>
	<path class="st5" d="M104,15.3c-4.4,0-8,3.6-8,8v110.6h256V15.3H104z"/>
	<path class="st6" d="M360.6,40.9c-18.6,0-33.7,15.1-33.7,33.7s15.1,33.7,33.7,33.7s33.7-15.1,33.7-33.7S379.1,40.9,360.6,40.9z"/>
	<path class="st7" d="M266.5,40.9c-18.6,0-33.7,15.1-33.7,33.7s15.1,33.7,33.7,33.7s33.7-15.1,33.7-33.7S285.1,40.9,266.5,40.9z"/>
	<path class="st1" d="M172.4,40.9c-18.6,0-33.7,15.1-33.7,33.7s15.1,33.7,33.7,33.7s33.7-15.1,33.7-33.7S191,40.9,172.4,40.9z"/>
	<g>
		<path class="st8" d="M523,65.5h-94c-4.4,0-8-3.6-8-8s3.6-8,8-8h94c4.4,0,8,3.6,8,8S527.5,65.5,523,65.5z"/>
		<path class="st8" d="M565.8,65.5h-17.1c-4.4,0-8-3.6-8-8s3.6-8,8-8h17.1c4.4,0,8,3.6,8,8S570.2,65.5,565.8,65.5z"/>
	</g>
	<g>
		<path class="st1" d="M173.2,214.5c-3.8,7.4-5.7,19.1-5.7,35v22.7c0,16.4-6.1,24.6-18.2,24.6v30.3c12.2,0,18.2,8.1,18.2,24.3v24.3
			c0,15.1,1.9,26.4,5.8,33.7c3.9,7.3,10.2,12.8,18.9,16.2c8.7,3.5,20.6,5.2,35.7,5.2v-30.3c-7,0-12-1.7-15.1-5.1
			c-3-3.4-4.5-9.1-4.5-17.2V361c0-13.1-1.5-23.6-4.6-31.6s-8-13.8-14.7-17.4v-0.5c6.9-3.6,11.8-9.3,14.8-17c3-7.8,4.5-17.8,4.5-30
			v-19.2c0-8,1.6-13.7,4.8-17s8.1-5,14.8-5V193c-15.3,0-27.3,1.7-36,5.2C183.2,201.6,177,207.1,173.2,214.5z"/>
		<polygon class="st0" points="351.1,419 357.1,419 374.6,350.1 351.1,350.1 		"/>
		<path class="st0" d="M372.3,294.8c5.3-5,7.9-11.6,7.9-19.8c0-7.9-2.7-14.4-8-19.3c-5.3-4.9-12.3-7.4-21-7.4c0,0,0,0-0.1,0v53.9
			C360,302.2,367.1,299.7,372.3,294.8z"/>
		<polygon class="st1" points="327.5,350.1 315.1,419 351.1,419 351.1,350.1 		"/>
		<path class="st1" d="M322,275c0,7.8,2.7,14.2,8.1,19.5c5.4,5.2,12.2,7.8,20.6,7.8c0.1,0,0.3,0,0.4,0v-53.9
			c-8.9,0-15.9,2.5-21.2,7.4C324.7,260.6,322,267.1,322,275z"/>
		<path class="st0" d="M550.5,327.1c-12.2,0-18.2,8.2-18.2,24.6v22.7c0,15.9-1.9,27.5-5.7,35c-3.8,7.4-10,12.9-18.7,16.4
			s-20.7,5.2-36,5.2v-30.3c6.8,0,11.7-1.7,14.9-5c3.1-3.3,4.7-9,4.7-17v-19.2c0-12.2,1.5-22.1,4.5-29.9s7.9-13.5,14.9-17.2v-0.5
			c-6.8-3.7-11.7-9.6-14.7-17.7c-3.1-8.1-4.6-18.6-4.6-31.4v-17c0-8-1.5-13.8-4.4-17.2c-2.9-3.5-8-5.2-15.2-5.2v-30.3
			c15.2,0,27.1,1.7,35.8,5.2c8.7,3.5,15,8.9,18.8,16.2c3.9,7.3,5.8,18.6,5.8,33.7v24.3c0,16.2,6.1,24.3,18.2,24.3L550.5,327.1
			L550.5,327.1z"/>
	</g>
</g>
<g>
	<polygon class="st1" points="-698,34.5 -576.8,90.4 -576.8,50.9 -662.8,19 -662.8,18.4 -576.8,-13.5 -576.8,-53 -698,2.1 	"/>
	<polygon class="st0" points="-423.7,-100.4 -469.6,-100.4 -486.2,-57.1 -486.2,62.5 	"/>
	<polygon class="st1" points="-510.4,125.7 -486.2,62.5 -486.2,-57.1 -556.3,125.7 	"/>
	<path class="st0" d="M-398.1,87.7V47.8l85.7-31.5v-0.6l-85.7-31.6v-39.9l121.3,55.2v32.3L-398.1,87.7z"/>
</g>
</svg>
