<?xml version="1.0" encoding="utf-8"?>
<!-- Generator: Adobe Illustrator 19.0.0, SVG Export Plug-In . SVG Version: 6.00 Build 0)  -->
<svg version="1.1" id="Annualized_Rate_of_Return" xmlns="http://www.w3.org/2000/svg" xmlns:xlink="http://www.w3.org/1999/xlink"
	 x="0px" y="0px" viewBox="96 11 512 512" style="enable-background:new 96 11 512 512;" xml:space="preserve">
<style type="text/css">
	.st0{fill:#E6EAEA;}
	.st1{fill:#CDD4D5;}
	.st2{fill:#687F82;}
	.st3{fill:#4ACFD9;}
	.st4{fill:#0295AA;}
	.st5{fill:#FF8C29;}
	.st6{fill:#FFFFFF;}
	.st7{fill:#FD6A33;}
	.st8{fill:#9BAAAB;}
	.st9{fill:#365558;}
</style>
<path class="st0" d="M286.1,406.9c-6.6-1.5-13.3-2.7-19.6-3.9c-15.9-2.8-20.9-13.9-22.2-22.7c-3-19.5-1.6-38.5,0.1-53l0-0.3l0-0.3
	c1.4-9.6,9.4-18,19.1-20c7.2-1.4,14.7-2.9,22.5-4.3c0.8-1.8,1.5-3.6,2.3-5.4c1.1-2.5,2.1-4.9,3.1-7.3c-1.7-2.6-3.4-5.1-5.2-7.8
	c-3.2-4.8-6.5-9.7-10-15l-8.9-13.6l61.5-61.5l13.6,8.8c2.3,1.5,4.6,3,6.9,4.4c5.3,3.3,10.7,6.8,15.9,10.6c4.4-2.2,8.7-3.7,12.7-5
	c1.6-7.5,3-14.4,4.3-21.1l0.1-0.3c3.7-18.4,18.8-20.6,23.3-20.8l0.4,0c4-0.1,8-0.3,12-0.5c6.7-0.3,13.7-0.6,20.7-0.7
	c0.5,0,1.2,0,1.8,0c4.8,0,9.2,0.4,13.5,0.7c20.3,1.5,24.3,16.8,25.1,23.3c0.8,6.4,2.3,13,4,19.9c4.2,1.9,8.3,3.8,12.2,5.3l0.1,0
	c3.3-2,6.5-4.3,10-6.8c3.2-2.2,6.5-4.5,9.9-6.8V74.4c-0.1-4.7-3.9-8.6-8.6-8.6H104.6c-4.7,0-8.6,3.8-8.6,8.6v329
	c0,4.7,3.8,8.6,8.6,8.6h183.5c-0.3-0.8-0.6-1.5-0.9-2.3C286.8,408.7,286.5,407.8,286.1,406.9z"/>
<path class="st1" d="M286.1,406.9c-6.6-1.5-13.3-2.7-19.6-3.9c-15.9-2.8-20.9-13.9-22.2-22.7c-3-19.5-1.6-38.5,0.1-53l0-0.3l0-0.3
	c1.4-9.6,9.4-18,19.1-20c7.2-1.4,14.7-2.9,22.5-4.3c0.8-1.8,1.5-3.6,2.3-5.4c1.1-2.5,2.1-4.9,3.1-7.3c-1.7-2.6-3.4-5.1-5.2-7.8
	c-3.2-4.8-6.5-9.7-10-15l-8.9-13.6l38.3-38.3V65.8h-201c-4.7,0-8.6,3.8-8.6,8.6v329c0,4.7,3.8,8.6,8.6,8.6h183.5
	c-0.3-0.8-0.6-1.5-0.9-2.3C286.8,408.7,286.5,407.8,286.1,406.9z"/>
<rect x="159.4" y="184" class="st2" width="73.1" height="73.1"/>
<rect x="159.4" y="293.7" class="st2" width="73.1" height="73.1"/>
<path class="st3" d="M323.9,11h-36.5c-4.7,0-8.6,3.8-8.6,8.6v109.7c0,4.7,3.8,8.6,8.6,8.6H324c4.7,0,8.6-3.8,8.6-8.6V19.6
	C332.5,14.8,328.7,11,323.9,11z"/>
<path class="st4" d="M287.4,11c-4.7,0-8.6,3.8-8.6,8.6v109.7c0,4.7,3.8,8.6,8.6,8.6h18.3V11.1L287.4,11L287.4,11z"/>
<path class="st3" d="M461,11h-36.6c-4.7,0-8.6,3.8-8.6,8.6v109.7c0,4.7,3.8,8.6,8.6,8.6H461c4.7,0,8.6-3.8,8.6-8.6V19.6
	C469.6,14.8,465.7,11,461,11z"/>
<path class="st4" d="M186.9,11h-36.6c-4.7,0-8.6,3.8-8.6,8.6v109.7c0,4.7,3.8,8.6,8.6,8.6h36.6c4.7,0,8.6-3.8,8.6-8.6V19.6
	C195.4,14.8,191.6,11,186.9,11z"/>
<g>
	<path class="st5" d="M559.7,394.6c1.5-5,4.1-6,8.4-6.6c10.2-1.8,20.2-3.8,31.1-5.8c0-18.6,0-36.6,0-54.6
		c-11.9-2.6-22.6-5.3-33.2-6.9c-3.6-0.6-4.9-2.3-6-5c-3.6-8.4-7.2-16.7-10.4-25.1c-0.5-1.3-0.3-3.3,0.5-4.5
		c5.5-8.7,11.2-17.2,16.8-25.6c1.4-2.1,2.5-3.9,0-6.4c-3.9-3.9-6.9-8.7-10.8-12.4c-7.9-7.5-15.9-14.7-23.8-22.1
		c-2-1.9-3.4-1.3-5.3,0.1c-8.5,5.6-16.9,11.4-25.6,16.7c-1.5,0.9-3.9,1.1-5.5,0.5c-8.4-3.3-16.6-6.9-24.7-10.7
		c-2.1-1-4.8-2.9-5.1-4.8c-2.1-9.8-3.6-19.7-5.8-29.4c-0.3-1.5-2.3-3.6-3.8-3.8c-5.9-0.8-11.8-1.1-17.7-1c-2.3,0-4.5,0.1-6.8,0.1
		v61.3c0.3,0,0.4,0,0.6,0c62.4,0.3,106.1,52.3,105.5,107c-0.5,51.2-40.3,104.9-105.9,105.1c-0.1,0-0.3,0-0.3,0v61.7
		c1.8,0.1,3.5,0.1,5.3,0.3c5.6,0.1,11.4-0.3,17.2-1.1c2.1-0.3,5.3-2,5.6-3.6c2.3-9.8,3.6-19.7,5.8-29.4c0.5-2.5,1.3-4.4,4.9-5.5
		c8.3-2.6,15.9-7,24.1-10.2c2.1-0.8,5.5-0.5,7.5,0.8c8,4.9,15.7,10.2,23.3,15.4c2.8,1.9,5.1,3.1,7.8-0.4c1.4-1.9,3.9-3,5.6-4.8
		c9.7-9.9,19.2-19.7,28.7-29.7c0.6-0.6,0.1-3-0.6-4.1c-5.5-8.2-11-16.3-16.8-24.5c-1.9-2.6-1.9-5-0.5-8
		C553.7,409.9,557.5,402.5,559.7,394.6z"/>
	<path class="st1" d="M432.7,248.7c-0.3,0-0.4,0-0.6,0v47.9h0.1c26.5,0.1,58,21.1,58,58.2c0,34.2-27.6,58-58,58v48
		c0.1,0,0.3,0,0.3,0c65.6-0.3,105.4-54.1,105.9-105.1C538.9,301,495.1,249,432.7,248.7z"/>
	<path class="st6" d="M487.3,305.7c-2.3,0-4.5-1-6-2.9c-8.7-10.3-21.2-16.2-34.6-16.2c-4.4,0-8-3.6-8-8s3.6-8,8-8
		c18.1,0,35.1,8,46.7,22c2.8,3.4,2.4,8.4-1,11.2C491,305.1,489.2,305.7,487.3,305.7z"/>
	<path class="st4" d="M432.1,505.4c1.6,0,3.1,0.1,4.8,0.1c0.4,0,0.9,0,1.3,0c1.3,0,2.6,0,4-0.1c0.4-2,0.8-4,1.1-6
		c0.8-4.1,1.5-8.3,2.4-12.4c0.4-1.8,0.8-3.4,1.4-4.9c-4.8,0.6-9.8,0.9-14.8,0.9L432.1,505.4L432.1,505.4z"/>
	<path class="st4" d="M446.8,230.5c-0.5-1.3-1-2.5-1.3-4c-1.4-5.8-2.4-11.7-3.5-17.2c-0.1-0.6-0.3-1.1-0.3-1.8c-1,0-2,0-3,0h-1
		c-1.8,0-3.6,0-5.5,0.1v22C437.1,229.7,442,229.9,446.8,230.5z"/>
	<path class="st4" d="M528,244c-0.3-0.3-0.3-0.3-0.5-0.5c-5.6,3.8-10.9,7.2-16.3,10.5c-1,0.6-2,1.3-3.1,1.8
		c4.5,3.4,8.7,7.2,12.7,11.3c3.8,3.9,7.4,8,10.7,12.3c0.4-0.9,0.9-1.8,1.4-2.6c3.6-5.8,7.5-11.7,11.3-17.3c-0.8-1-1.6-1.9-2.3-2.6
		C537.4,252.4,532.7,248.4,528,244z"/>
	<path class="st4" d="M531.4,434.2c-6.4,8.5-13.9,16.3-22.6,23c1.3,0.5,2.5,1.1,3.6,1.8c5.4,3.3,10.5,6.6,15.7,10.2
		c4.9-5,10.3-10.4,15.8-16.3c-3.1-4.4-6.3-9-9.5-13.8C533,437.4,532,435.7,531.4,434.2z"/>
	<path class="st4" d="M579.3,345c-5.6-1.3-11.3-2.4-16.6-3.1c-2.1-0.3-4.1-0.8-6-1.6c0.8,5.6,1.1,11.4,1.1,17.2c0,5-0.4,9.9-1,14.8
		c2.4-1,5-1.8,7.8-2.1c4.9-0.9,9.8-1.8,14.8-2.6L579.3,345z"/>
</g>
<g>
	<path class="st7" d="M326.2,354.5C325,300.4,369.6,248.7,432,248.7v-61.3c-7.9,0.3-15.7,0.5-23.6,0.9c-1.6,0.1-4.3,1.8-4.6,3
		c-1.8,8-2.8,16.3-4.6,24.3c-0.8,3.8-1.9,9-4.6,10.5c-8.7,4.6-18.1,7.7-27.2,11.2c-1.3,0.5-3.3,0.1-4.5-0.6
		c-8.4-5.1-16.9-10.2-24.7-16.2c-4-3.1-6.1-1.6-8.9,0.8c-3.4,2.9-6.8,5.8-9.9,9c-7.5,7.8-14.7,15.8-22.1,23.7
		c-2.3,2.5-1.8,4.1,0,6.8c5.8,8.4,11.4,17.1,16.8,25.6c0.8,1.1,1.1,2.9,0.6,4c-3,7-7.4,13.8-9.3,21.1c-1.8,7.2-5.5,9.4-12.3,10.4
		c-9.3,1.3-18.4,3.6-28.5,5.8c0,18.6,0,36.6,0,54.4c12.7,2.6,24.1,4.8,35.4,7.2c1.1,0.3,2.4,1.6,2.8,2.6c4.1,9.9,8,19.8,12.4,30.4
		c-6,8.8-12.4,18.2-18.8,27.7c-0.8,1.1-0.8,3.5,0,4.5c9.9,12.4,20.6,24.3,33.6,33.9c3.8,2.8,5.5,2.1,8.5,0
		c7.5-5.1,15.2-10.3,23-15.1c1.6-1,4.4-1.6,6-0.9c8.7,3.4,16.9,7.8,25.7,10.5c3.1,1,4.1,2.6,4.6,4.6c2.3,10.8,4.1,21.7,6.3,33.6
		c9,0.4,18.3,1,27.6,1.3v-61.7C367.4,460.9,324.9,407.4,326.2,354.5z"/>
	<path class="st8" d="M431.9,412.7c-31.9,0-58.2-26.1-58-58.1c0.3-36.6,31.1-58,58-58v-47.9c-62.4,0-107,51.7-105.8,105.9
		c-1.4,52.9,41,106.4,105.8,106.3L431.9,412.7C432,412.7,431.9,412.7,431.9,412.7z"/>
	<path class="st9" d="M293.9,343.2c-3.6,0.5-7.4,1.3-11.4,2.1v22.6c6.8,1.4,13.3,2.6,19.8,4.1c1,0.3,1.9,0.5,2.8,0.8
		c-0.6-5.4-0.9-10.9-0.8-16.3c-0.1-5.4,0.3-10.9,0.8-16.3C301.9,341.6,298,342.6,293.9,343.2z"/>
	<path class="st9" d="M417.2,220.6l-0.1,0.4c-0.6,2.6-1.3,6-2.8,9.7c5.5-0.8,10.9-1.1,16.6-1.1h0.5c0.3,0,0.4,0,0.6,0v-22
		c-4.1,0.1-8.3,0.3-12.4,0.4C418.8,212.1,418.2,216.2,417.2,220.6z"/>
	<path class="st9" d="M431.4,483.1h-0.8c-5.1,0-10.3-0.3-15.3-0.9c0.5,1.3,0.8,2.6,1.1,3.9c1.3,6.3,2.5,12.4,3.6,18.8
		c4,0.3,8,0.3,11.9,0.5v-22.3C431.9,483.1,431.5,483.1,431.4,483.1z"/>
	<path class="st9" d="M330.8,434.7c0,0-3.5,5.1-4.8,7c-2.6,3.9-5.4,7.9-8,11.9c4.6,5.3,9.8,10.8,15.7,15.8
		c5.5-3.6,10.9-7.2,16.3-10.5c1.1-0.8,2.3-1.3,3.5-1.8c-4.6-3.5-9-7.4-13-11.5C336.8,442.1,333.8,438.5,330.8,434.7z"/>
	<path class="st9" d="M345.6,251.2c-4.1-2.5-8.3-5-12.4-7.8c-0.5,0.4-0.9,0.9-1.3,1.3c-3.9,4.1-7.8,8.4-11.5,12.4
		c-0.8,0.8-1.6,1.8-2.3,2.6c3.8,5.8,7.5,11.5,11,17.1c0.4,0.8,0.8,1.4,1.3,2.1c3.1-4,6.4-7.8,9.9-11.4c4.1-4.3,8.5-8.2,13.2-11.8
		c-0.9-0.4-1.8-0.9-2.6-1.4C348.9,253.4,347.3,252.4,345.6,251.2z"/>
</g>
</svg>
