<?xml version="1.0" encoding="utf-8"?>
<!-- Generator: Adobe Illustrator 19.0.0, SVG Export Plug-In . SVG Version: 6.00 Build 0)  -->
<svg version="1.1" id="Layer_1" xmlns="http://www.w3.org/2000/svg" xmlns:xlink="http://www.w3.org/1999/xlink" x="0px" y="0px"
	 viewBox="206 -206 512 512" style="enable-background:new 206 -206 512 512;" xml:space="preserve">
<style type="text/css">
	.st0{fill:#CDD4D5;}
	.st1{fill:#9BAAAB;}
	.st2{fill:#4ACFD9;}
	.st3{fill:#0295AA;}
	.st4{fill:#365558;}
	.st5{fill:#687F82;}
	.st6{fill:#FF8C29;}
	.st7{fill:#FD6A33;}
	.st8{fill:#F0353D;}
	.st9{fill:none;stroke:#F0353D;stroke-width:10;stroke-linecap:round;stroke-linejoin:round;}
	.st10{fill:#FFFFFF;}
</style>
<path class="st0" d="M500-48.5h-40.5v26H500c6.6,0,12-5.4,12-12v-2C512-43.1,506.6-48.5,500-48.5z"/>
<path class="st1" d="M419-48.5c-6.6,0-12,5.4-12,12v2c0,6.6,5.4,12,12,12h40.5v-26H419z"/>
<path class="st2" d="M500-22.6h-40.5V8.7H500c6.6,0,12-6.5,12-14.5v-2.4C512-16.1,506.6-22.6,500-22.6z"/>
<path class="st3" d="M419-22.6c-6.6,0-12,6.5-12,14.5v2.4c0,8,5.4,14.5,12,14.5h40.5v-31.4H419z"/>
<path class="st3" d="M500,8.7h-40.5v31.4H500c6.6,0,12-6.5,12-14.5v-2.4C512,15.3,506.6,8.7,500,8.7z"/>
<path class="st4" d="M419,8.7c-6.6,0-12,6.5-12,14.5v2.4c0,8,5.4,14.5,12,14.5h40.5V8.7H419z"/>
<path class="st1" d="M520,40.1h-60.5v31.4H520c6.6,0,12-6.5,12-14.5v-2.4C532,46.6,526.6,40.1,520,40.1z"/>
<path class="st5" d="M399,40.1c-6.6,0-12,6.5-12,14.5V57c0,8,5.4,14.5,12,14.5h60.5V40.1H399z"/>
<path class="st0" d="M500,71.5h-40.5v104H490c6.6,0,12-5.4,12-12l10-80C512,76.9,506.6,71.5,500,71.5z"/>
<path class="st1" d="M419,71.5c-6.6,0-12,5.4-12,12l10,80c0,6.6,5.4,12,12,12h30.5v-104C459.5,71.5,419,71.5,419,71.5z"/>
<path class="st5" d="M500,175.5h-40.5v26H500c6.6,0,12-5.4,12-12v-2C512,180.9,506.6,175.5,500,175.5z"/>
<path class="st4" d="M419,175.5c-6.6,0-12,5.4-12,12v2c0,6.6,5.4,12,12,12h40.5v-26H419z"/>
<path class="st6" d="M477.3,201.5h-17.8v64h7.8c6.6,0,12-5.4,12-12l10-40C489.3,206.9,483.8,201.5,477.3,201.5z"/>
<path class="st7" d="M441.8,201.5c-6.6,0-12,5.4-12,12l10,40c0,6.6,5.4,12,12,12h7.8v-64H441.8z"/>
<path class="st0" d="M455-104.5c32,0,57,7.8,57,45.7c0,8,0,23.8,0,23.8v0.5c0,6.6-5.4,12-12,12h-2c-6.6,0-12-5.4-12-12v-1
	c0,0,0-16.2,0-23.5c0-12.5-8.5-19.5-31-19.5c-7.4,0-12-5.4-12-12v-2C443-99.1,448-104.5,455-104.5z"/>
<path class="st8" d="M399.5-164.5l24.1,24.3c3.2,3.3,3.2,8.4-0.1,11.7c-3.3,3.2-8.4,3.2-11.7-0.1l-24.1-24.2
	c-3.2-3.3-3.2-8.4,0.1-11.7C391.1-167.7,396.2-167.7,399.5-164.5z"/>
<path class="st8" d="M450.3-183.8c1.5,1.5,2.4,3.6,2.4,5.9l-0.1,30.8c0,4.6-3.7,8.2-8.4,8.2c-4.6,0-8.2-3.7-8.2-8.4l0.1-30.8
	c0-4.6,3.7-8.2,8.4-8.2C446.8-186.4,448.9-185.4,450.3-183.8z"/>
<path class="st8" d="M410.3-113.9c1.5,1.5,2.4,3.6,2.4,5.9c0,4.6-3.7,8.2-8.4,8.2l-30.8-0.1c-4.6,0-8.2-3.7-8.2-8.4
	c0-4.6,3.7-8.2,8.4-8.2l30.8,0.1C406.8-116.2,408.7-115.4,410.3-113.9z"/>
<g>
	<g>
		<path class="st9" d="M461,292.7c0,0-83,0-156,0c-47.5,0-68-30.2-68-67.7c0-70.4,0-167,0-224.8c0-43.5,18.5-67.7,68-67.7
			c80,0,126.7,0,126.7,0"/>
		<g>
			<rect x="447.1" y="279.5" class="st8" width="26.4" height="26.4"/>
		</g>
		<g>
			<circle class="st8" cx="431" cy="-67.5" r="15"/>
		</g>
	</g>
</g>
<path class="st10" d="M500,86c1.3,1.7,1.9,3.9,1.6,6.2l-4.3,30.5c-0.6,4.5-4.8,7.6-9.4,7c-4.5-0.6-7.6-4.8-7-9.4l4.3-30.5
	c0.6-4.5,4.8-7.6,9.4-7C496.9,82.9,498.9,84.2,500,86z"/>
</svg>
