<?xml version="1.0" encoding="utf-8"?>
<!-- Generator: Adobe Illustrator 19.0.0, SVG Export Plug-In . SVG Version: 6.00 Build 0)  -->
<svg version="1.1" xmlns="http://www.w3.org/2000/svg" xmlns:xlink="http://www.w3.org/1999/xlink" x="0px" y="0px"
	 viewBox="206 -206 512 512" style="enable-background:new 206 -206 512 512;" xml:space="preserve">
<style type="text/css">
	.st0{display:none;}
	.st1{display:inline;}
	.st2{display:none;fill:#9BAAAB;}
	.st3{fill:#E6EAEA;}
	.st4{fill:#CDD4D5;}
	.st5{fill:#4ACFD9;}
	.st6{fill:#0295AA;}
	.st7{fill:#9BAAAB;}
	.st8{fill:#FF8C29;}
	.st9{fill:#FD6A33;}
	.st10{fill:#FFFFFF;}
	.st11{fill:#FFD1A9;}
	.st12{fill:#365558;}
	.st13{fill:#F0353D;}
</style>
<g id="Layer_1">
	<g id="Layer_3" class="st0">
		<rect x="206" y="-206.4" class="st1" width="512" height="512.8"/>
	</g>
	<path id="SVGCleanerId_0" class="st2" d="M279.1,220h-71.9l78.3,85.8V227C285.5,223.1,282.7,220,279.1,220z"/>
	<path class="st3" d="M454.4-15.5h-242c-3.5,0-6.4,3.1-6.4,7v228.7l78.3,85.8h170.1c3.5,0,6.4-3.1,6.4-7V-8.4
		C460.8-12.3,457.9-15.5,454.4-15.5z"/>
	<path class="st4" d="M212.4-15.5c-3.5,0-6.4,3.1-6.4,7v228.7l78.3,85.8h44.5V-15.5H212.4z"/>
	<g>
		<path class="st5" d="M417.9,54.8H250.1c-3.5,0-6.4-3.1-6.4-7s2.9-7,6.4-7h167.8c3.5,0,6.4,3.1,6.4,7
			C424.3,51.7,421.5,54.8,417.9,54.8z"/>
		<path class="st5" d="M417.9,114.8H250.1c-3.5,0-6.4-3.1-6.4-7c0-3.9,2.9-7,6.4-7h167.8c3.5,0,6.4,3.1,6.4,7
			C424.3,111.7,421.5,114.8,417.9,114.8z"/>
		<path class="st5" d="M417.9,174.8H250.1c-3.5,0-6.4-3.1-6.4-7c0-3.9,2.9-7,6.4-7h167.8c3.5,0,6.4,3.1,6.4,7
			C424.3,171.6,421.5,174.8,417.9,174.8z"/>
		<path class="st5" d="M417.9,234.8H250.1c-3.5,0-6.4-3.1-6.4-7s2.9-7,6.4-7h167.8c3.5,0,6.4,3.1,6.4,7S421.5,234.8,417.9,234.8z"/>
	</g>
	<g>
		<path class="st6" d="M250.1,40.8c-3.5,0-6.4,3.1-6.4,7s2.9,7,6.4,7h78.8V40.8H250.1z"/>
		<path class="st6" d="M250.1,100.8c-3.5,0-6.4,3.1-6.4,7c0,3.9,2.9,7,6.4,7h78.8v-14.1H250.1z"/>
		<path class="st6" d="M243.7,167.8c0,3.9,2.9,7,6.4,7h78.8v-14.1h-78.8C246.5,160.7,243.7,163.9,243.7,167.8z"/>
		<path class="st6" d="M243.7,227.7c0,3.9,2.9,7,6.4,7h78.8v-14.1h-78.8C246.5,220.7,243.7,223.9,243.7,227.7z"/>
	</g>
	<g>
		<path id="SVGCleanerId_0_1_" class="st7" d="M277.9,220.2H206l78.3,85.8v-78.7C284.3,223.4,281.5,220.2,277.9,220.2z"/>
	</g>
</g>
<g id="Layer_2">
	<polygon class="st2" points="643,-46 462,24 281,-46 462.5,-117 	"/>
	<polygon class="st4" points="460.8,70.6 617.3,131.1 617.3,-62.5 460.8,-123.1 	"/>
	<polygon class="st8" points="617.3,131.7 460.8,192.2 460.8,-1.5 617.3,-62 	"/>
	<polygon class="st7" points="460.8,70.6 304.3,131.1 304.3,-62.5 460.8,-123.1 	"/>
	<polygon class="st9" points="304.3,131.7 460.8,192.2 460.8,-1.5 304.3,-62 	"/>
	<polyline class="st4" points="304.3,-62 243,-122.5 399.9,-183.9 460.8,-122.5 	"/>
	<polyline class="st10" points="460.8,-123.1 512.1,-183 669.5,-122.2 617.3,-62 	"/>
	<polyline class="st11" points="460.8,-1 511.8,-52.9 668.8,-114.3 617.3,-61.5 	"/>
	<polyline class="st8" points="304.3,-62.1 243.2,-113.4 400.6,-52.6 460.8,-1 	"/>
	<path class="st10" d="M498.8,108.7c-4.2,0-6.6-2.8-6.7-7.5c0-20.1,0-40.6,0-61.1c0-8.9,7.3-19,16.3-22.6l1.4-0.6
		c6.1-2.4,12.4-5,18.6-7.1c4.8-1.6,6.7-4.3,6.2-9.1c-0.2-2.4-0.1-5.1-0.1-7.7l0-0.9c0.1-3.6,2.5-6.6,6.3-8.1c1-0.4,1.9-0.6,2.6-0.6
		c0.7,0,2,0,2.1,2.6c0.1,3.3,0.2,6.6,0,9.8c-0.1,1.2,0,3,1.1,4.2c0.5,0.5,1.3,1.1,2.7,1.1c0.9,0,1.9-0.2,3.2-0.8
		c5.8-2.4,11.7-4.6,17.4-6.8l2.6-1c2.2-0.8,4.3-1.3,6.2-1.3c5.8,0,9.2,3.9,9.2,10.7c0,6,0,12,0,18c-0.1,13.7-0.1,27.8,0.2,41.6
		c0.1,6.2-6.2,16.2-13.5,18.6c-8.3,2.8-16.7,6.1-24.9,9.3c-3.5,1.4-7.1,2.8-10.6,4.1l-10.2,3.9c-8.6,3.3-17.3,6.6-25.9,9.9
		C501.7,108.3,500.2,108.7,498.8,108.7z M523.6,72c-1,0-2.1,0.4-3.1,0.8c-2,0.9-3.6,1.5-5,1.9c-3.4,1.1-5,3.3-5,6.6
		c0.1,4.1,2.8,4.4,3.7,4.4c0.8,0,1.7-0.2,2.8-0.7c0.6-0.3,1.2-0.5,1.9-0.7c0.3-0.1,0.6-0.2,1-0.4c0.2-0.1,0.5-0.2,0.7-0.3
		c0.5-0.2,0.9-0.4,1.4-0.5c1.6-0.5,5.4-1.7,5.4-6.8C527.2,72.3,524.5,72,523.6,72z M545.2,63.7c-0.9,0-1.8,0.3-3.1,0.8
		c-1.9,0.7-4.5,1.5-4.5,1.5c-3.6,1.3-4.5,4.5-3.7,6.9c0.6,1.8,2.5,3.2,4.5,3.3l0.3,0c1.2,0,2.2-0.4,2.5-0.5c0,0,2.1-0.8,2.7-1
		c1.5-0.6,5.1-1.7,5.2-6.4c0-1.7-0.4-2.9-1.2-3.7C547.3,64.3,546.4,63.7,545.2,63.7z M566.1,55.7c-1.2,0-6.8,1.6-6.8,1.6
		c-2.1,0.8-5.2,1.9-5.3,6.5c0,1.6,0.4,2.8,1.2,3.7c0.5,0.5,1.3,1,2.5,1h0c1.2,0,2.3-0.5,3.5-1l3.3-0.7c2.1-0.7,5.2-1.9,5.3-6.5
		c0-1.6-0.4-2.8-1.2-3.6C568.2,56.2,567.4,55.7,566.1,55.7z M522,36.4c-1.2,0-2.5,0.3-3.9,0.8c-5.4,2.1-9.5,7.7-9.5,13.1
		c0,4.5,3,7.7,7.3,7.7l0,0c1.2,0,2.5-0.3,3.9-0.8c5.4-2.1,9.5-7.7,9.5-13.1C529.3,39.5,526.3,36.4,522,36.4z M564.5,20.1
		c-1.2,0-2.5,0.2-3.7,0.7c-5.5,2.1-9.5,7.5-9.6,13c0,2.3,0.7,4.3,2.1,5.8c1.3,1.3,3.2,2.1,5.2,2.1l0,0c1.2,0,2.5-0.2,3.7-0.7
		c5.5-2.1,9.5-7.5,9.6-13c0-2.3-0.7-4.3-2.1-5.8C568.4,20.8,566.5,20.1,564.5,20.1z"/>
	<path class="st10" d="M475.5,95.8c-0.8,0-2.7,0-2.8-3.4c-0.1-8.4-0.2-17.3,0-27.1c0.1-4.3,2.9-8,7.3-9.8c0.8-0.3,1.5-0.6,2.1-0.8
		c0.8-0.3,1.6-0.6,2.2-0.9c0,0.6,0,1.4,0,2.2c0,0.6,0,1.2,0,1.8c0,3.4,0,6.8,0,10.2l0,2.9l0,0c0,0,0,5.3,0,7c0,4.3,0,8.7,0,13
		c0,1.6-0.4,2.2-1.9,2.6c-0.9,0.3-1.8,0.6-2.6,1c-0.5,0.2-1,0.4-1.6,0.6C477.2,95.6,476.3,95.8,475.5,95.8z"/>
	<path class="st10" d="M596.1,51.4c-0.1-0.9-0.1-2.3-0.1-3.7c0-5.1,0-10.2,0-15.2c0-1.7,0-3.3,0-5c0-4.2,0-8.6,0-12.9
		c0-1.8,0.4-2.4,2-2.9c0.9-0.3,1.8-0.6,2.6-1c0.5-0.2,1-0.4,1.6-0.6c1-0.3,1.9-0.5,2.6-0.5c0.8,0,2.8,0,2.8,3.6
		c0.1,9.2,0.1,18.3,0,27.1c-0.1,4.2-2.9,7.9-7.5,9.7C598.6,50.5,597.1,51.1,596.1,51.4z"/>
	<polygon class="st6" points="617.3,112.3 460.8,172.8 460.8,143.4 617.3,82.9 	"/>
	<polygon class="st12" points="304.3,112.3 460.8,172.8 460.8,143.4 304.3,82.9 	"/>
	<path class="st13" d="M689.6,161.2l-31.7-13c-4.2-1.8-6.2-6.5-4.5-10.8c1.8-4.2,6.5-6.2,10.8-4.5l31.6,12.9
		c4.2,1.8,6.2,6.5,4.5,10.8C698.6,160.9,693.9,162.9,689.6,161.2z"/>
	<path class="st13" d="M650.4,198.8c-2-0.8-3.6-2.4-4.5-4.5L634,165.9c-1.8-4.2,0.2-9,4.5-10.8c4.2-1.8,9,0.2,10.8,4.5l11.9,28.4
		c1.8,4.2-0.2,9-4.5,10.8C654.6,199.8,652.3,199.7,650.4,198.8z"/>
	<path class="st13" d="M660,118.8c-2-0.8-3.6-2.4-4.5-4.5c-1.8-4.2,0.2-9,4.5-10.8l28.4-11.9c4.2-1.8,9,0.2,10.8,4.5
		c1.8,4.2-0.2,9-4.5,10.8l-28.4,11.9C664.1,119.6,662,119.6,660,118.8z"/>
</g>
</svg>
