<?xml version="1.0" encoding="utf-8"?>
<!-- Generator: Adobe Illustrator 19.0.0, SVG Export Plug-In . SVG Version: 6.00 Build 0)  -->
<svg version="1.1" id="Layer_1" xmlns="http://www.w3.org/2000/svg" xmlns:xlink="http://www.w3.org/1999/xlink" x="0px" y="0px"
	 viewBox="96 11 512 512" style="enable-background:new 96 11 512 512;" xml:space="preserve">
<style type="text/css">
	.st0{display:none;fill:#9BAAAB;}
	.st1{display:none;fill:#F0353D;}
	.st2{fill:#365558;}
	.st3{fill:#4ACFD9;}
	.st4{fill:#0295AA;}
	.st5{fill:#FD6A33;}
	.st6{fill:#FF8C29;}
	.st7{fill:none;stroke:#FFD1A9;stroke-width:12;stroke-linecap:round;stroke-linejoin:round;stroke-miterlimit:10;}
</style>
<polygon class="st0" points="348.7,288.1 486.9,342.2 349,395.5 211.2,342.2 "/>
<path class="st1" d="M167.6,496.4c-1.3-3.3,0.2-6.8,3.5-8.2l24-9.8c3.3-1.3,6.8,0.2,8.2,3.5c1.3,3.3-0.2,6.8-3.5,8.2l-24.1,9.9
	C172.5,501.3,168.8,499.7,167.6,496.4z"/>
<path class="st1" d="M200.8,528.6c-3.3-1.4-4.8-5-3.5-8.2l9-21.6c1.4-3.3,5-4.8,8.2-3.5c3.3,1.4,4.8,5,3.5,8.2l-9,21.6
	c-0.7,1.6-1.9,2.8-3.5,3.5C204.1,529.2,202.4,529.3,200.8,528.6z"/>
<path class="st1" d="M193.4,467.7l-21.6-9c-3.3-1.4-4.8-5-3.5-8.2c1.4-3.3,5-4.8,8.2-3.5l21.6,9c3.3,1.4,4.8,5,3.5,8.2
	c-0.7,1.6-1.9,2.8-3.5,3.5C196.7,468.3,195.2,468.3,193.4,467.7z"/>
<path class="st2" d="M565.7,10.9H385.9c13.8,12.6,26.5,29.4,37.5,50h122.9c6.6,0,12,5.4,12,12v122c0,6.6-5.4,12-12,12h-80.7
	c1.9,16.2,3,32.8,3.5,49.6h96.5c23.3,0,42.3-19.1,42.3-42.3v-161C608,29.9,589,10.9,565.7,10.9z"/>
<path class="st2" d="M318.4,10.9H138.3C115,10.9,96,29.9,96,53.3v161c0,23.3,19,42.3,42.3,42.3H235c0.5-16.8,1.7-33.4,3.6-49.6
	h-81.7c-6.6,0-12-5.4-12-12v-122c0-6.6,5.4-12,12-12h123.9C291.9,40.4,304.5,23.6,318.4,10.9z"/>
<rect x="332.1" y="206.9" class="st2" width="39.8" height="49.6"/>
<path class="st2" d="M156.8,472.2c-6.6,0-12-5.4-12-12V317.6c0-6.6,5.4-12,12-12h78.7c-0.6-10.3-0.8-20.8-0.8-31.2
	c0-6,0.1-11.9,0.3-17.8h-92.3c-25.7,0-46.7,21-46.7,46.7v173c0,25.7,21,46.7,46.7,46.7h54.2c-5.9-16.4-9.2-33.4-9.8-50.8H156.8z"/>
<path class="st2" d="M280,486.2c-1.1-2.1-2.3-4.3-3.3-6.5c-15.4,11.5-27.8,26.3-36.4,43.4h71.1c18.4,0,34.3-10.7,42-26.3h-67.6
	L280,486.2z"/>
<path class="st2" d="M427.4,479c-1.1,2.2-2.3,4.5-3.4,6.6l-5.6,10.6h-46.4v0.6h-9.2c7.6,15.5,23.6,26.3,42,26.3h59.4
	C455.4,505.7,442.8,490.7,427.4,479z"/>
<path class="st2" d="M561.3,256.6h-92.2c0.2,5.7,0.3,11.4,0.3,17.2c0,10.7-0.3,21.3-0.9,31.8h78.8c6.6,0,12,5.4,12,12v142.6
	c0,6.6-5.4,12-12,12H517c-0.7,17.4-4.1,34.4-10.1,50.8h54.5c25.7,0,46.7-21,46.7-46.7v-173C608,277.6,587,256.6,561.3,256.6z"/>
<path class="st2" d="M409.2,466.7c-0.8-1.2-1.4-2.6-1.7-4l-0.9,2.3L409.2,466.7z"/>
<path class="st2" d="M362.7,496.8h9.2v-0.6h-9.5C362.5,496.4,362.6,496.6,362.7,496.8z"/>
<path class="st3" d="M140,16c-5,0-19,4.3-19,9c0,0.8,0.4,1.3,1.6,2.6s24.6,24.6,25.8,25.8s3.3,2.6,6.4,2.6c1.3,0,52.7,0,128.8,0
	c9-15.8,18.9-29.2,29.6-40H140z"/>
<path class="st3" d="M565,16H391.1c10.7,10.8,20.6,24.2,29.6,40c76.3,0,128.3,0,129.5,0c3.2,0,5.2-1.4,6.4-2.6s24.5-24.5,25.8-25.8
	s1.6-1.8,1.6-2.6C584,20.3,570,16,565,16z"/>
<path class="st4" d="M154.8,211.9c-3.2,0-5.2,1.4-6.4,2.6c-1.2,1.2-24.5,24.5-25.8,25.8s-1.6,1.8-1.6,2.6c0,4.7,14,9,19,9h95.2
	c0.5-13.5,1.5-26.9,2.9-40C187.6,211.9,155.7,211.9,154.8,211.9z"/>
<path class="st4" d="M582.4,240.3c-1.2-1.3-24.6-24.6-25.8-25.8s-3.3-2.6-6.4-2.6c-1,0-33.3,0-84.1,0c1.4,13.1,2.3,26.5,2.8,40h96
	c5,0,19-4.3,19-9C584,242.1,583.5,241.6,582.4,240.3z"/>
<path class="st4" d="M352,211.9c-6.7,0-13.3,0-19.8,0v40H352h19.9v-40C365.3,211.9,358.7,211.9,352,211.9z"/>
<path class="st3" d="M563.9,143.9c0,61.7,0,50.6,0,52.2c0,3.2,1.4,5.2,2.6,6.4s24.5,24.5,25.8,25.8c1.3,1.3,1.8,1.6,2.6,1.6
	c4.7,0,9-14,9-19v-67v-87c0-5-4.3-19-9-19c-0.8,0-1.3,0.4-2.6,1.6c-1.3,1.2-24.6,24.6-25.8,25.8c-1.2,1.2-2.6,3.3-2.6,6.4
	C563.9,73.3,563.9,98.9,563.9,143.9z"/>
<path class="st4" d="M140.9,143.9c0-61.7,0-70.6,0-72.2c0-3.2-1.4-5.2-2.6-6.4s-24.5-24.5-25.8-25.8s-1.8-1.6-2.6-1.6
	c-4.7,0-9,14-9,19v87v67c0,5,4.3,19,9,19c0.8,0,1.3-0.4,2.6-1.6s24.6-24.6,25.8-25.8s2.6-3.3,2.6-6.4
	C140.9,194.5,140.9,188.9,140.9,143.9z"/>
<path class="st3" d="M234.8,260.9H222h-82c-5,0-19,4.3-19,9c0,0.8,0.4,1.3,1.6,2.6c1.2,1.3,24.6,24.6,25.8,25.8
	c1.2,1.2,3.3,2.6,6.4,2.6c1.6,0,39.2,0,67.2,0c4.7,0,9.1,0,13.3,0c-0.4-8.8-0.6-17.6-0.6-26.5C234.7,269.9,234.7,265.4,234.8,260.9z
	"/>
<path class="st3" d="M334,269.9c0-1-0.7-2.1-1.8-3v5.9c0.1-0.1,0.2-0.2,0.2-0.2C333.6,271.3,334,270.8,334,269.9z"/>
<path class="st4" d="M154.8,476.9C154.8,476.9,154.8,476.9,154.8,476.9c-3.2,0-5.2,1.4-6.4,2.6c-1.2,1.2-24.5,24.5-25.8,25.8
	s-1.6,1.8-1.6,2.6c0,4.7,14,9,19,9h54.8c-4.2-13-6.7-26.4-7.5-40C171.1,476.9,160.9,476.9,154.8,476.9z"/>
<path class="st4" d="M323.8,496.8h-38.1l-5.6-10.6c-1.1-2.1-2.2-4.3-3.3-6.5c0,0,0,0,0,0c-13.5,10.1-24.8,22.8-33.1,37.3H315
	c5,0,19-4.3,19-9c0-0.8-0.4-1.3-1.6-2.6C331.9,504.9,328.3,501.2,323.8,496.8z"/>
<path class="st4" d="M276.4,479.1c0.1,0.2,0.2,0.4,0.3,0.6c0,0,0,0,0,0C276.6,479.5,276.5,479.3,276.4,479.1z"/>
<path class="st4" d="M276.4,479.1c0.1,0.2,0.2,0.4,0.3,0.6C276.6,479.5,276.5,479.3,276.4,479.1L276.4,479.1z"/>
<path class="st4" d="M140.9,388.9c0-61.7,0-70.6,0-72.2c0-3.2-1.4-5.2-2.6-6.4s-24.5-24.5-25.8-25.8s-1.8-1.6-2.6-1.6
	c-4.7,0-9,14-9,19v87v87c0,5,4.3,19,9,19c0.8,0,1.3-0.4,2.6-1.6s24.6-24.6,25.8-25.8s2.6-3.3,2.6-6.4
	C140.9,459.6,140.9,433.9,140.9,388.9z"/>
<path class="st3" d="M582.4,272.5c1.3-1.3,1.6-1.8,1.6-2.6c0-4.7-14-9-19-9h-83h-12.8c0.1,4.3,0.1,8.6,0.1,12.9
	c0,9.1-0.2,18.2-0.6,27.1c4.2,0,8.6,0,13.3,0c38.7,0,58.6,0,68.2,0c0,0,0,0,0,0c3.2,0,5.2-1.4,6.4-2.6S581.1,273.8,582.4,272.5z"/>
<path class="st4" d="M427.4,479C427.4,479,427.4,479,427.4,479c-1.1,2.2-2.2,4.5-3.4,6.6l-5.6,10.6h-24.6c-4.7,4.7-8.6,8.6-9.2,9.2
	c-1.3,1.3-1.6,1.8-1.6,2.6c0,4.7,14,9,19,9h58.8C452.3,502.1,441,489.3,427.4,479z"/>
<path class="st4" d="M582.4,505.3c-1.2-1.3-24.6-24.6-25.8-25.8c-1.2-1.2-3.3-2.6-6.4-2.6c0,0,0,0,0,0c-6.1,0-16.5,0-33.4,0
	c-0.9,13.6-3.5,27-7.7,40H565c5,0,19-4.3,19-9C584,507.1,583.5,506.6,582.4,505.3z"/>
<path class="st3" d="M563.9,388.9c0,61.7,0,70.6,0,72.2c0,3.2,1.4,5.2,2.6,6.4s24.5,24.5,25.8,25.8c1.3,1.3,1.8,1.6,2.6,1.6
	c4.7,0,9-14,9-19v-87v-87c0-5-4.3-19-9-19c-0.8,0-1.3,0.4-2.6,1.6c-1.3,1.2-24.6,24.6-25.8,25.8c-1.2,1.2-2.6,3.3-2.6,6.4
	C563.9,318.3,563.9,343.9,563.9,388.9z"/>
<path class="st2" d="M395.4,258.9c19.7,0,25,0,25,0v-5.3h-48.5v21C378.2,265.9,386.4,258.9,395.4,258.9z"/>
<path class="st2" d="M299.7,253.6c0,0-29.3,3,9.4,3c9.4,0,16.9,2.2,23.1,5.7v-8.7H299.7z"/>
<path class="st2" d="M332.1,253.6v8.7c19.3,10.9,24.2,34.5,23.9,42.3c-0.3,10.3,4.7,12,4,0c-0.4-6.5,4.3-19.5,11.8-30v-21H332.1z"/>
<g>
	<path class="st5" d="M278.6,116.2c-15.1,44.4-24,98.9-24,158c0,80.6,16.7,153,43,202.4h54.2v-337
		C324.7,139.6,299.4,131,278.6,116.2z"/>
	<path class="st2" d="M206.9,466.4c0,20.1,4.1,39,11.4,56.4c11.3-26.7,30.4-49.3,54.4-64.9c-11.1-27.1-19.8-58.3-25.2-91.9
		C222.4,391.9,206.9,427.4,206.9,466.4z"/>
	<path class="st6" d="M449.3,273.6c0-59.1-8.9-113.7-24-158c-20.8,14.8-45.9,23.4-73.2,23.4v337h54.2
		C432.7,426.6,449.3,354.2,449.3,273.6z"/>
	<path class="st4" d="M352.1,11.2v113.2c25.5,0,49.1-8.6,68-23C402.8,57.1,379.2,25,352.1,11.2z"/>
	<path class="st2" d="M284.2,101.2c18.9,14.5,42.4,23,68,23v-113C325.1,25,301.4,57.1,284.2,101.2z"/>
	<path class="st4" d="M456.6,365.2c-5.6,33.4-14.1,64.8-25.2,91.9c24,15.7,43,38.3,54.4,64.9c7.3-17.4,11.4-36.4,11.4-56.4
		C497.1,426.8,481.7,391.3,456.6,365.2z"/>
	<path class="st3" d="M352.1,181.4v65.2c18,0,32.6-14.6,32.6-32.6S370.1,181.4,352.1,181.4z"/>
	<path class="st4" d="M319.1,213.9c0,18,14.6,32.6,32.6,32.6v-65.2C333.7,181.4,319.1,195.9,319.1,213.9z"/>
	<path class="st7" d="M410.6,167.8c7.2,32.7,11,68.7,11,106c0,56-8.6,109.5-24.2,152.3"/>
</g>
</svg>
