<?xml version="1.0" encoding="utf-8"?>
<!-- Generator: Adobe Illustrator 19.0.0, SVG Export Plug-In . SVG Version: 6.00 Build 0)  -->
<svg version="1.1" id="Layer_1" xmlns="http://www.w3.org/2000/svg" xmlns:xlink="http://www.w3.org/1999/xlink" x="0px" y="0px"
	 viewBox="96 11 512 512" style="enable-background:new 96 11 512 512;" xml:space="preserve">
<style type="text/css">
	.st0{fill:#0295AA;}
	.st1{fill:#365558;}
	.st2{fill:#F0353D;}
	.st3{fill:#FD6A33;}
	.st4{fill:#FF8C29;}
	.st5{fill:#FFD1A9;}
	.st6{fill:#4ACFD9;}
	.st7{fill:#9BAAAB;}
	.st8{fill:#CDD4D5;}
	.st9{fill:#E6EAEA;}
	.st10{fill:#FFFFFF;}
	.st11{fill:#BCD643;}
	.st12{fill:#687F82;}
</style>
<path class="st0" d="M352,11v103.4c25.6,0,50-3.9,68.1-13C402.8,57,379.1,24.8,352,11z"/>
<path class="st1" d="M283.9,101.2c18.9,11,42.5,13,68.1,13V11C324.9,24.8,301.2,57,283.9,101.2z"/>
<path class="st1" d="M206.7,466.5c0,20.1,4.1,39.1,11.4,56.5c11.3-26.8,30.5-49.4,54.5-65c-11.1-27.2-19.8-58.4-25.3-92.1
	C222.2,391.9,206.7,427.4,206.7,466.5z"/>
<path class="st0" d="M456.7,365.7c-5.6,33.5-14.1,64.9-25.3,92.1c24,15.7,43.1,38.4,54.5,65c7.3-17.4,11.4-36.5,11.4-56.5
	C497.3,427.4,481.8,391.9,456.7,365.7z"/>
<rect x="-450" y="33" class="st2" width="128" height="128"/>
<rect x="-322" y="33" class="st3" width="128" height="128"/>
<rect x="-194" y="33" class="st4" width="128" height="128"/>
<rect x="-66" y="33" class="st5" width="128" height="128"/>
<rect x="-450" y="161" class="st1" width="128" height="128"/>
<rect x="-322" y="161" class="st0" width="128" height="128"/>
<rect x="-194" y="161" class="st6" width="128" height="128"/>
<rect x="-450" y="289" class="st7" width="128" height="128"/>
<rect x="-322" y="289" class="st8" width="128" height="128"/>
<rect x="-194" y="289" class="st9" width="128" height="128"/>
<rect x="-66" y="289" class="st10" width="128" height="128"/>
<rect x="-450" y="417" class="st11" width="128" height="128"/>
<path class="st5" d="M322.8,48.1"/>
<g>
	<path class="st4" d="M441.4,276.4H352V311h89.4c3.1,0,5.6-2.9,5.6-6.5v-21.6C447,279.4,444.5,276.4,441.4,276.4z"/>
	<path class="st3" d="M262.6,276.4c-3.1,0-5.6,2.9-5.6,6.5v21.6c0,3.5,2.5,6.5,5.6,6.5H352v-34.6L262.6,276.4L262.6,276.4z"/>
	<rect x="265.4" y="289.4" class="st1" width="8.3" height="21.7"/>
	<rect x="283.3" y="289.4" class="st1" width="12.3" height="21.7"/>
	<rect x="309.9" y="289.4" class="st1" width="16.3" height="21.7"/>
	<rect x="352" y="289.4" class="st1" width="0.1" height="21.7"/>
	<rect x="344.2" y="289.4" class="st1" width="7.8" height="21.7"/>
	<rect x="430.5" y="289.4" class="st12" width="8.3" height="21.7"/>
	<rect x="408.5" y="289.4" class="st12" width="12.3" height="21.7"/>
	<rect x="377.8" y="289.4" class="st12" width="16.3" height="21.7"/>
	<rect x="352.1" y="289.4" class="st12" width="7.8" height="21.7"/>
</g>
<g>
	<path class="st4" d="M441.5,224.6H352v34.6h89.4c3.1,0,5.6-2.9,5.6-6.5v-21.6C447,227.6,444.5,224.6,441.5,224.6z"/>
	<path class="st3" d="M262.6,224.6c-3.1,0-5.6,2.9-5.6,6.5v21.6c0,3.5,2.5,6.5,5.6,6.5H352v-34.6L262.6,224.6L262.6,224.6z"/>
	<rect x="265.4" y="237.5" class="st1" width="8.3" height="21.7"/>
	<rect x="283.4" y="237.5" class="st1" width="12.3" height="21.7"/>
	<rect x="309.9" y="237.5" class="st1" width="16.3" height="21.7"/>
	<rect x="352" y="237.5" class="st1" width="0.1" height="21.7"/>
	<rect x="344.2" y="237.5" class="st1" width="7.8" height="21.7"/>
	<rect x="430.5" y="237.5" class="st12" width="8.3" height="21.7"/>
	<rect x="408.5" y="237.5" class="st12" width="12.3" height="21.7"/>
	<rect x="377.9" y="237.5" class="st12" width="16.3" height="21.7"/>
	<rect x="352.1" y="237.5" class="st12" width="7.8" height="21.7"/>
</g>
<g>
	<path class="st4" d="M437,327.9h-85v32.9h85c3,0,5.4-2.7,5.4-6.2v-20.5C442.4,330.8,440,327.9,437,327.9z"/>
	<path class="st3" d="M267,327.9c-3,0-5.4,2.7-5.4,6.2v20.5c0,3.3,2.4,6.2,5.4,6.2h85v-32.9L267,327.9L267,327.9z"/>
	<rect x="269.6" y="340.3" class="st1" width="7.9" height="20.6"/>
	<rect x="286.6" y="340.3" class="st1" width="11.7" height="20.6"/>
	<rect x="311.9" y="340.3" class="st1" width="15.5" height="20.6"/>
	<rect x="352" y="340.3" class="st1" width="0.1" height="20.6"/>
	<rect x="344.6" y="340.3" class="st1" width="7.4" height="20.6"/>
	<rect x="426.7" y="340.3" class="st12" width="7.9" height="20.6"/>
	<rect x="405.7" y="340.3" class="st12" width="11.7" height="20.6"/>
	<rect x="376.6" y="340.3" class="st12" width="15.5" height="20.6"/>
	<rect x="352" y="340.3" class="st12" width="7.4" height="20.6"/>
</g>
<g>
	<path class="st4" d="M428,374.9h-76.1v29.4h76c2.7,0,4.8-2.5,4.8-5.5v-18.3C432.8,377.4,430.7,374.9,428,374.9z"/>
	<path class="st3" d="M276.1,374.9c-2.7,0-4.8,2.5-4.8,5.5v18.4c0,3,2.1,5.5,4.8,5.5h76V375C352.1,374.9,276.1,374.9,276.1,374.9z"
		/>
	<rect x="278.4" y="385.9" class="st1" width="7" height="18.4"/>
	<rect x="293.7" y="385.9" class="st1" width="10.4" height="18.4"/>
	<rect x="316.1" y="385.9" class="st1" width="13.9" height="18.4"/>
	<rect x="351.9" y="385.9" class="st1" width="0.1" height="18.4"/>
	<rect x="345.3" y="385.9" class="st1" width="6.6" height="18.4"/>
	<rect x="418.8" y="385.9" class="st12" width="7" height="18.4"/>
	<rect x="400" y="385.9" class="st12" width="10.4" height="18.4"/>
	<rect x="374" y="385.9" class="st12" width="13.9" height="18.4"/>
	<rect x="352.1" y="385.9" class="st12" width="6.6" height="18.4"/>
</g>
<g>
	<path class="st4" d="M415.3,419.7H352v24.5h63.3c2.2,0,4-2,4-4.6v-15.3C419.4,421.8,417.5,419.7,415.3,419.7z"/>
	<path class="st3" d="M288.7,419.7c-2.2,0-4,2-4,4.6v15.3c0,2.5,1.8,4.6,4,4.6H352v-24.5L288.7,419.7L288.7,419.7z"/>
	<rect x="290.7" y="428.9" class="st1" width="5.9" height="15.4"/>
	<rect x="303.3" y="428.9" class="st1" width="8.7" height="15.4"/>
	<rect x="322.2" y="428.9" class="st1" width="11.5" height="15.4"/>
	<rect x="352" y="428.9" class="st1" width="0.1" height="15.4"/>
	<rect x="346.5" y="428.9" class="st1" width="5.5" height="15.4"/>
	<rect x="407.6" y="428.9" class="st12" width="5.9" height="15.4"/>
	<rect x="391.9" y="428.9" class="st12" width="8.7" height="15.4"/>
	<rect x="370.3" y="428.9" class="st12" width="11.5" height="15.4"/>
	<rect x="352.1" y="428.9" class="st12" width="5.5" height="15.4"/>
</g>
<g>
	<path class="st4" d="M403.5,456.8H352v19.9h51.5c1.8,0,3.2-1.7,3.2-3.8v-12.4C406.7,458.5,405.3,456.8,403.5,456.8z"/>
	<path class="st3" d="M300.5,456.8c-1.8,0-3.2,1.7-3.2,3.8V473c0,2,1.4,3.8,3.2,3.8H352v-19.9H300.5z"/>
	<rect x="302.1" y="464.2" class="st1" width="4.8" height="12.5"/>
	<rect x="312.5" y="464.2" class="st1" width="7.1" height="12.5"/>
	<rect x="327.8" y="464.2" class="st1" width="9.4" height="12.5"/>
	<rect x="352" y="464.2" class="st1" width="0.1" height="12.5"/>
	<rect x="347.5" y="464.2" class="st1" width="4.5" height="12.5"/>
	<rect x="397.2" y="464.2" class="st12" width="4.8" height="12.5"/>
	<rect x="384.5" y="464.2" class="st12" width="7.1" height="12.5"/>
	<rect x="366.9" y="464.2" class="st12" width="9.4" height="12.5"/>
	<rect x="352.1" y="464.2" class="st12" width="4.5" height="12.5"/>
</g>
<g>
	<path class="st6" d="M428.5,131.4h-76.5V161h76.5c2.7,0,4.8-2.5,4.8-5.6V137C433.4,134,431.2,131.4,428.5,131.4z"/>
	<path class="st0" d="M275.5,131.4c-2.7,0-4.8,2.5-4.8,5.6v18.5c0,3,2.1,5.6,4.8,5.6h76.5v-29.6
		C351.9,131.4,275.5,131.4,275.5,131.4z"/>
	<rect x="277.9" y="142.4" class="st1" width="7.1" height="18.6"/>
	<rect x="293.3" y="142.4" class="st1" width="10.5" height="18.6"/>
	<rect x="315.9" y="142.4" class="st1" width="13.9" height="18.6"/>
	<rect x="351.9" y="142.4" class="st1" width="0.1" height="18.6"/>
	<rect x="345.3" y="142.4" class="st1" width="6.7" height="18.6"/>
	<rect x="419.1" y="142.4" class="st12" width="7.1" height="18.6"/>
	<rect x="400.3" y="142.4" class="st12" width="10.5" height="18.6"/>
	<rect x="374.2" y="142.4" class="st12" width="13.9" height="18.6"/>
	<rect x="352.1" y="142.4" class="st12" width="6.7" height="18.6"/>
</g>
<g>
	<path class="st6" d="M437.4,176h-85.3v33h85.3c3,0,5.4-2.8,5.4-6.2v-20.6C442.8,178.9,440.4,176,437.4,176z"/>
	<path class="st0" d="M266.6,176c-3,0-5.4,2.8-5.4,6.2v20.6c0,3.4,2.4,6.2,5.4,6.2h85.3v-33L266.6,176L266.6,176z"/>
	<rect x="269.3" y="188.4" class="st1" width="7.9" height="20.7"/>
	<rect x="286.5" y="188.4" class="st1" width="11.7" height="20.7"/>
	<rect x="311.8" y="188.4" class="st1" width="15.6" height="20.7"/>
	<rect x="352.1" y="188.4" class="st1" width="0.1" height="20.7"/>
	<rect x="344.5" y="188.4" class="st1" width="7.4" height="20.7"/>
	<rect x="427" y="188.4" class="st12" width="7.9" height="20.7"/>
	<rect x="406" y="188.4" class="st12" width="11.7" height="20.7"/>
	<rect x="376.7" y="188.4" class="st12" width="15.6" height="20.7"/>
	<rect x="352.2" y="188.4" class="st12" width="7.4" height="20.7"/>
</g>
</svg>
