<?xml version="1.0" encoding="utf-8"?>
<!-- Generator: Adobe Illustrator 19.0.0, SVG Export Plug-In . SVG Version: 6.00 Build 0)  -->
<svg version="1.1" id="Layer_1" xmlns="http://www.w3.org/2000/svg" xmlns:xlink="http://www.w3.org/1999/xlink" x="0px" y="0px"
	 viewBox="96 11 512 512" style="enable-background:new 96 11 512 512;" xml:space="preserve">
<style type="text/css">
	.st0{fill:#F0353D;}
	.st1{fill:#FD6A33;}
	.st2{fill:#FF8C29;}
	.st3{fill:#FFD1A9;}
	.st4{fill:#365558;}
	.st5{fill:#0295AA;}
	.st6{fill:#4ACFD9;}
	.st7{fill:#9BAAAB;}
	.st8{fill:#CDD4D5;}
	.st9{fill:#E6EAEA;}
	.st10{fill:#FFFFFF;}
	.st11{fill:#BCD643;}
	.st12{display:none;fill:#9BAAAB;}
	.st13{display:none;fill:#F0353D;}
	.st14{fill:none;stroke:#FFD1A9;stroke-width:12;stroke-linecap:round;stroke-linejoin:round;stroke-miterlimit:10;}
</style>
<rect x="-659" y="-25.1" class="st0" width="128" height="128"/>
<rect x="-531" y="-25.1" class="st1" width="128" height="128"/>
<rect x="-403" y="-25.1" class="st2" width="128" height="128"/>
<rect x="-275" y="-25.1" class="st3" width="128" height="128"/>
<rect x="-659" y="102.9" class="st4" width="128" height="128"/>
<rect x="-531" y="102.9" class="st5" width="128" height="128"/>
<rect x="-403" y="102.9" class="st6" width="128" height="128"/>
<rect x="-659" y="230.9" class="st7" width="128" height="128"/>
<rect x="-531" y="230.9" class="st8" width="128" height="128"/>
<rect x="-403" y="230.9" class="st9" width="128" height="128"/>
<rect x="-275" y="230.9" class="st10" width="128" height="128"/>
<rect x="-659" y="358.9" class="st11" width="128" height="128"/>
<path class="st3" d="M430.1,105"/>
<polygon class="st12" points="348.7,288.1 486.9,342.2 349,395.5 211.2,342.2 "/>
<path class="st13" d="M167.6,496.4c-1.3-3.3,0.2-6.8,3.5-8.2l24-9.8c3.3-1.3,6.8,0.2,8.2,3.5c1.3,3.3-0.2,6.8-3.5,8.2l-24.1,9.9
	C172.5,501.3,168.8,499.7,167.6,496.4z"/>
<path class="st13" d="M200.8,528.6c-3.3-1.4-4.8-5-3.5-8.2l9-21.6c1.4-3.3,5-4.8,8.2-3.5c3.3,1.4,4.8,5,3.5,8.2l-9,21.6
	c-0.7,1.6-1.9,2.8-3.5,3.5C204.1,529.2,202.4,529.3,200.8,528.6z"/>
<path class="st13" d="M193.4,467.7l-21.6-9c-3.3-1.4-4.8-5-3.5-8.2c1.4-3.3,5-4.8,8.2-3.5l21.6,9c3.3,1.4,4.8,5,3.5,8.2
	c-0.7,1.6-1.9,2.8-3.5,3.5C196.7,468.3,195.2,468.3,193.4,467.7z"/>
<path class="st2" d="M560.2,273.8c0-59.1-8.9-113.7-24-158c-20.8,14.8-45.9,23.4-73.2,23.4v337h54.2
	C543.5,426.8,560.2,354.4,560.2,273.8z"/>
<path class="st14" d="M521.5,168c7.2,32.7,11,68.7,11,106c0,56-8.6,109.5-24.2,152.3"/>
<path class="st1" d="M389.3,115.8c-15.1,44.4-24,98.9-24,158c0,80.6,16.7,153,43,202.4h54.2v-337C435.4,139.2,410,130.6,389.3,115.8
	z"/>
<path class="st5" d="M463,11.5v113.2c25.5,0,49.1-8.6,68-23C513.7,57.4,490,25.2,463,11.5z"/>
<path class="st4" d="M395,101.5c18.9,14.5,42.4,23,68,23v-113C436,25.2,412.3,57.4,395,101.5z"/>
<path class="st4" d="M317.5,466c0,20.1,4.1,39,11.4,56.4c11.3-26.7,30.4-49.3,54.4-64.9c-11.1-27.1-19.8-58.3-25.2-91.9
	C333.1,391.6,317.5,427,317.5,466z"/>
<path class="st5" d="M567.5,365.4c-5.6,33.4-14.1,64.8-25.2,91.9c24,15.7,43,38.3,54.4,64.9c7.3-17.4,11.4-36.4,11.4-56.4
	C608,427,592.5,391.6,567.5,365.4z"/>
<path class="st6" d="M463,181.6v65.2c18,0,32.6-14.6,32.6-32.6S481,181.6,463,181.6z"/>
<path class="st5" d="M430,214.1c0,18,14.6,32.6,32.6,32.6v-65.2C444.6,181.6,430,196.2,430,214.1z"/>
<path class="st1" d="M142.7,244.3h-6.2h-6.3c-8.1,0-14.7,6.7-14.7,14.7v63.3c0,8.1,6.7,14.7,14.7,14.7h6.3h6.2c3.7,0,6.8-3,6.8-6.8
	V251C149.5,247.5,146.5,244.3,142.7,244.3z"/>
<path class="st2" d="M353.7,188.8c-4.6-2.3-9.8-3.7-15.3-3.6h-46.6c-4.6,0-8.9-4.2-8.9-8.9v-18.4c0-8.9-7.3-16.2-16.2-16.2v179h5
	v0.1h4.4c1.9,0,3.4,1.5,3.3,3.3v6.1c0,1.9-1.5,3.3-3.3,3.3h-4.4h-3h-2V381h57.4c6.1-9.9,13.3-19.1,21.5-27.7l6.1-6.4
	c-2.9-23.2-4.4-47.2-4.4-71.6C347.3,245.6,349.5,216.5,353.7,188.8z M326,330c0,2-1.7,3.6-3.6,3.6H304c-1.9,0-3.5-1.7-3.6-3.6v-5.7
	c0-2,1.7-3.6,3.6-3.6h18.4c2,0,3.6,1.7,3.6,3.6V330z M313.3,277.7c-9.4,0-16.9-7.6-16.9-16.9s7.6-16.9,16.9-16.9s16.9,7.6,16.9,16.9
	S322.6,277.7,313.3,277.7z"/>
<path class="st1" d="M254,330.2V324c0-1.9,1.5-3.3,3.3-3.3v-0.1h9.4v-179c-8.9,0-16.1,7.3-16.3,16.2v18.4c0,5.1-5.2,8.9-10.2,8.9
	h-45.1c-18.7,0-33.9,15.2-33.9,33.9v128.1c0,18.7,15.2,33.9,33.9,33.9h71.6v-47.5h-9.4C255.4,333.5,254,332,254,330.2z M232.9,330.2
	c0,1.9-1.5,3.3-3.3,3.3h-18.9c-1.9,0-3.3-1.5-3.3-3.3V324c0-1.9,1.5-3.3,3.3-3.3h18.9c1.8,0,3.3,1.5,3.3,3.2L232.9,330.2
	L232.9,330.2z M220.1,277.6c-9.3,0-16.9-7.6-16.9-16.9s7.6-16.9,16.9-16.9c9.4,0,16.9,7.7,16.9,16.9
	C237,270,229.4,277.6,220.1,277.6z"/>
<path class="st3" d="M130,300.1c0.7,1,1,2.3,0.6,3.6c-1.7,7-0.3,14.3,3.7,20.1c1.3,1.9,0.9,4.6-0.8,6c-1.9,1.4-4.4,1.1-5.8-0.7
	c-5.6-7.7-7.3-17.6-5-27c0.6-2.3,2.8-3.8,5-3.2C128.8,298.8,129.4,299.3,130,300.1z"/>
<path class="st0" d="M272,17.2L271.6,41c-0.1,3.2-2.6,5.7-5.9,5.8c-3.2,0-5.7-2.5-5.6-5.7l0.4-23.8c0.1-3.2,2.6-5.7,5.9-5.8
	C269.5,11.5,272,14,272,17.2z"/>
<path class="st0" d="M306.3,32.2c0,1.5-0.6,3-1.8,4.1l-15.4,15.3c-2.3,2.3-5.9,2.3-8.2,0c-2.2-2.2-2.1-5.8,0.2-8.2l15.4-15.3
	c2.3-2.3,5.9-2.3,8.2,0C305.9,29.2,306.4,30.8,306.3,32.2z"/>
<path class="st0" d="M252,47.7c0,1.5-0.6,3-1.8,4.1c-2.3,2.3-5.9,2.3-8.2,0l-14.9-15c-2.2-2.2-2.1-5.8,0.2-8.2
	c2.3-2.3,5.9-2.3,8.2,0l14.9,15C251.4,44.8,252,46.2,252,47.7z"/>
<path class="st9" d="M305.9,89.1v45.1c0,5.6-4.6,10.1-10.1,10.1c-5.6,0-10.1-4.6-10.1-10.1c0,0,0-37.7,0-49.8
	c0-16.1-8.7-21.9-18.9-21.9v133.7h85.8c3.1-22.5,7.5-44.1,13.3-64.5C351.7,112.1,330.7,96.9,305.9,89.1z"/>
<path class="st8" d="M247,84.5c0,16.7,0,49.7,0,49.7c0,5.6-4.6,10.1-10.1,10.1s-10.1-4.6-10.1-10.1V89.3
	c-46,14.9-78.9,54.9-78.9,101.8c0,1.8,0,3.4,0.1,5.1h118.7V62.5C255.4,62.5,247,67.8,247,84.5z"/>
<path class="st8" d="M266.7,196.3v28.6c27.8,0.1,58.9,2.1,82.4,4.1c0.9-11.1,2-22,3.5-32.7H266.7z"/>
<path class="st7" d="M146,196.3c-7.3,0-13.3,6-13.3,13.3v9.4c0,7.3,4.6,15.8,13.3,13.3c0,0,67.9-7.6,119.9-7.6c0.3,0,0.5,0,0.8,0
	v-28.6H146V196.3z"/>
<path class="st5" d="M302.8,434.6H266v88h42.9c-6.3-17.7-9.4-36.2-9.4-55C299.5,456.3,300.6,445.3,302.8,434.6z"/>
<path class="st4" d="M108.5,434.6c-6.9,0-12.5,5.6-12.5,12.5V510c0,6.9,5.6,12.5,12.5,12.5h157.6v-88H108.5V434.6z"/>
<path class="st5" d="M155.2,391h-16.9c-6.9,0-12.5,5.6-12.5,12.5v68.7c0,6.9,5.6,12.5,12.5,12.5h16.9c6.9,0,12.5-5.6,12.5-12.5
	v-68.7C167.7,396.6,162.1,391,155.2,391z"/>
<path class="st2" d="M146.7,450.8c-0.1,0-0.2,0-0.2,0v28.4c0.1,0,0.2,0,0.2,0c7.8,0,14.2-6.4,14.2-14.2S154.5,450.8,146.7,450.8z"/>
<path class="st1" d="M132.6,465c0,7.7,6.2,14,13.9,14.2v-28.3C138.7,451,132.6,457.3,132.6,465z"/>
</svg>
