<?xml version="1.0" encoding="utf-8"?>
<!-- Generator: Adobe Illustrator 19.0.0, SVG Export Plug-In . SVG Version: 6.00 Build 0)  -->
<svg version="1.1" id="Layer_1" xmlns="http://www.w3.org/2000/svg" xmlns:xlink="http://www.w3.org/1999/xlink" x="0px" y="0px"
	 viewBox="96 11 512 512" style="enable-background:new 96 11 512 512;" xml:space="preserve">
<style type="text/css">
	.st0{fill:#FF8C29;}
	.st1{fill:#FD6A33;}
	.st2{fill:#FFD1A9;}
	.st3{fill:#F0353D;}
	.st4{fill:#4ACFD9;}
	.st5{fill:#0295AA;}
	.st6{fill:#365558;}
	.st7{fill:#9BAAAB;}
	.st8{fill:#BCD643;}
	.st9{fill:none;stroke:#BCD643;stroke-width:13;stroke-linecap:round;stroke-linejoin:round;stroke-miterlimit:10;}
	.st10{display:none;fill:#9BAAAB;}
	.st11{display:none;fill:#F0353D;}
	.st12{fill:none;stroke:#FFD1A9;stroke-width:12;stroke-linecap:round;stroke-linejoin:round;stroke-miterlimit:10;}
</style>
<path class="st0" d="M195.1,281.7h-4.9c-6.2,0-11.3-5.1-11.3-11.3v-48.8c0-6.2,5.1-11.3,11.3-11.3h4.9h4.8c3,0,5.2,2.4,5.2,5.2v61
	c0,3-2.4,5.2-5.2,5.2H195.1L195.1,281.7z"/>
<path class="st0" d="M214.1,190.8v98.6c0,14.4,11.7,26.1,26.1,26.1h55.2V279h-2.5v-0.1h-4.7c-1.4,0-2.5-1.1-2.5-2.5v-4.7
	c0-1.3,1.1-2.4,2.5-2.4h4.7h2.5V156.4h-12.5v1.6c0,3.6-3.3,6.8-6.8,6.8h-35.8C225.9,164.7,214.1,176.4,214.1,190.8z M249.7,276.3
	v-4.4c0-1.4,1.2-2.7,2.7-2.7h14.2c1.4,0,2.7,1.2,2.7,2.7v4.4c0,1.4-1.3,2.7-2.7,2.7h-14.3C250.9,279,249.6,277.8,249.7,276.3
	L249.7,276.3z M246.5,223c0-7.2,5.8-13,13-13c7.2,0,13,5.8,13,13s-5.8,13-13,13C252.3,236,246.5,230.2,246.5,223z"/>
<rect x="292.8" y="278.8" class="st0" width="2.5" height="0.1"/>
<path class="st0" d="M282.7,156.3c0,0,8.1,0,12.5,0c0-9.5-15-20.6-15-20.6c-5.4,4.2-7,12.6-1.4,16.3
	C283.5,155.1,282.7,156.3,282.7,156.3z"/>
<path class="st1" d="M355.6,165.2c-1.7-0.3-3.4-0.5-5.2-0.5h-34.7c-3.8,0-7.9-2.9-7.9-6.8v-1.4h-12.5h-0.1v112.8h3.5h3.9
	c1.4,0,2.5,1.1,2.5,2.5v4.7c0,1.4-1.1,2.5-2.5,2.5h-7.3v36.6h51.5c-1-13.7-1.5-27.7-1.5-41.7C345.3,236.1,348.8,199.4,355.6,165.2z
	 M340.9,276.5c0,1.4-1.1,2.5-2.5,2.5h-14.5c-1.4,0-2.5-1.1-2.5-2.5v-4.7c0-1.4,1.2-2.5,2.5-2.5h14.5c1.4,0,2.5,1.1,2.5,2.5V276.5z
	 M331.1,235.9c-7.2,0-13-5.8-13-13c0-7.1,5.8-13,13-13s13,5.8,13,13S338.3,235.9,331.1,235.9z"/>
<path class="st1" d="M280.2,135.7c0,0,15.1,11.1,15.1,20.8c4.4,0,6.7,0,12.5,0c0-10.4-4.2-15.7-9-18.8
	C294.1,134.5,285.6,131.3,280.2,135.7z"/>
<path class="st2" d="M189.8,253.1c0.5,0.8,0.8,1.8,0.4,2.7c-1.4,5.4-0.3,11,2.8,15.5c1.1,1.5,0.7,3.5-0.6,4.6
	c-1.5,1.1-3.5,0.8-4.5-0.5c-4.3-5.9-5.7-13.5-3.9-20.8c0.4-1.7,2.2-2.9,3.9-2.4C188.7,252.2,189.2,252.6,189.8,253.1z"/>
<path class="st3" d="M241.7,104c2-1.9,5.2-1.9,7.1-0.1l14.6,14.1c2,1.9,2,4.9,0.1,6.8c-2,1.9-5.2,1.9-7.1,0.1l-14.6-14.1
	C239.8,108.8,239.8,105.8,241.7,104z"/>
<path class="st3" d="M228.6,137.1c0-2.9,2.2-5,5-5l18.6-0.1c2.9,0.1,5.1,2.3,5.1,4.9c0,2.9-2.2,5-5,5l-18.6,0.1
	c-1.5,0.1-2.7-0.4-3.6-1.4C229.2,139.8,228.5,138.5,228.6,137.1z"/>
<path class="st4" d="M295.3,329.2L295.3,329.2l0.1,40c-5.9,0-14.3-2.3-19.4-7.4c-5.1-5.2-0.1-15,4.6-24.6
	C283.5,331,286.1,329.2,295.3,329.2L295.3,329.2z"/>
<path class="st4" d="M295.3,495.8L280.8,474c0,0-3.6-40.3-4.5-52s5.9-51.7,8.2-50.3c2.4,1.4,10.8,1.7,10.8,1.7V495.8z"/>
<path class="st5" d="M310.1,337.3c-3-6.3-5.6-8-14.8-8h-0.1v40c5.9,0,14.3-2.3,19.4-7.4C319.7,356.7,314.8,346.9,310.1,337.3z"/>
<path class="st5" d="M312.3,397.7c-2-13.6-4.8-26.9-6.2-26.1c-2.4,1.4-10.8,1.8-10.8,1.8v122.4l3.9-5.9c-1.1-7.9-1.7-15.8-1.7-23.9
	C297.5,442.1,302.6,419,312.3,397.7z"/>
<path class="st6" d="M371.1,107.3l-64.7-15.7c-3.1-0.8-7.2-1.1-11.1-1.1v92.9c4.1,0,8.1-0.3,11.1-1.1l48.2-11.7
	c4-21.5,9.3-42.1,15.8-61.3L371.1,107.3z"/>
<path class="st5" d="M284.2,182.4c3,0.8,7,1.1,11,1.1V90.5c-4,0-7.9,0.3-11,1.1L111,133.7c-7.5,1.8-7.5,4.7,0,6.6L284.2,182.4z"/>
<path class="st7" d="M233.7,353.1c5.9,0,12.2,4.6,14.1,10.2c0,0,3.3,46.7,10.6,65c7.3,18.3,36.9,57,36.9,57c0,5.7,0,12.8,0,18.1
	c0,4.8-0.1-1.9-0.1,19.5c-21.4,0-165.5,0-199.2,0c0-32.1,0-132.3,69.8-132.3C218.6,390.7,222.2,356.4,233.7,353.1"/>
<path class="st6" d="M295.3,485.4c0,5.8,0,12.8,0,18.1c0,4.7,0.1-1.9,0.1,19.5c2.5,0,6.7,0,12.3,0c-4.9-13.4-8.1-27.3-9.4-41.5
	C296.4,484,295.3,485.4,295.3,485.4z"/>
<path class="st6" d="M471,496.2h-74.7l-5.6-10.6c-1.1-2.1-2.3-4.3-3.4-6.5c-15.6,11.6-28.1,26.6-36.7,43.9c51.4,0,121.8,0,144,0
	c0-6.6,0-16-0.6-26.8h-11.5H471z"/>
<path class="st8" d="M295.3,491.7c-7,0-12.6,5.6-12.6,12.6s5.6,12.6,12.6,12.6c3.6,0,6.8-1.5,9-3.8c-2-6.8-3.6-13.6-4.7-20.5
	C298.3,492,296.9,491.7,295.3,491.7z"/>
<path class="st5" d="M295.4,129.2L295.4,129.2l-0.1,24V178v5.4h0.1c21.7,0,41.4,2.5,55.9,6.6c2.6-17.5,6-34.5,10.1-50.7
	C346.8,133.2,322.7,129.2,295.4,129.2z"/>
<path class="st4" d="M214.1,207.4v-29.3v-24.8c0-13.3,36.3-24,81.1-24h0.1v24V178v5.4h-0.1C250.4,183.4,214.1,194.1,214.1,207.4"/>
<path class="st2" d="M141.5,194.6v42.2c11.6-0.1,20.9-9.5,20.9-21.1C162.5,204.1,153.1,194.7,141.5,194.6z"/>
<path class="st0" d="M141.4,236.8c0.1,0,0.1,0,0.2,0v-42.2c-0.1,0-0.1,0-0.2,0c-11.7,0-21.1,9.5-21.1,21.1
	C120.2,227.4,129.7,236.8,141.4,236.8z"/>
<line class="st9" x1="141.5" y1="126.3" x2="141.4" y2="194.6"/>
<path class="st2" d="M141.5,236.8v64.9h10.8c5.6,0,10.1-4.6,10.1-10.1L154,247c0-5.6-4.6-10.1-10.1-10.1H141.5z"/>
<path class="st0" d="M130.4,301.7h11.1v-64.9h-2.7c-5.6,0-10.1,4.6-10.1,10.1l-8.4,44.6C120.2,297.1,124.8,301.7,130.4,301.7z"/>
<polygon class="st10" points="348.7,288.1 486.9,342.2 349,395.5 211.2,342.2 "/>
<path class="st11" d="M167.6,496.4c-1.3-3.3,0.2-6.8,3.5-8.2l24-9.8c3.3-1.3,6.8,0.2,8.2,3.5c1.3,3.3-0.2,6.8-3.5,8.2l-24.1,9.9
	C172.5,501.3,168.8,499.7,167.6,496.4z"/>
<path class="st11" d="M200.8,528.6c-3.3-1.4-4.8-5-3.5-8.2l9-21.6c1.4-3.3,5-4.8,8.2-3.5c3.3,1.4,4.8,5,3.5,8.2l-9,21.6
	c-0.7,1.6-1.9,2.8-3.5,3.5C204.1,529.2,202.4,529.3,200.8,528.6z"/>
<path class="st11" d="M193.4,467.7l-21.6-9c-3.3-1.4-4.8-5-3.5-8.2c1.4-3.3,5-4.8,8.2-3.5l21.6,9c3.3,1.4,4.8,5,3.5,8.2
	c-0.7,1.6-1.9,2.8-3.5,3.5C196.7,468.3,195.2,468.3,193.4,467.7z"/>
<path class="st2" d="M430.1,105"/>
<g>
	<path class="st1" d="M389.5,116.4c-15.1,44.4-24,98.9-24,158c0,80.6,16.7,153,43,202.4h54.2v-337
		C435.6,139.8,410.3,131.2,389.5,116.4z"/>
	<path class="st6" d="M317.8,466.6c0,20.1,4.1,39,11.4,56.4c11.3-26.7,30.4-49.3,54.4-64.9c-11.1-27.1-19.8-58.3-25.2-91.9
		C333.3,392.2,317.8,427.6,317.8,466.6z"/>
</g>
<g>
	<path class="st0" d="M560.2,273.8c0-59.1-8.9-113.7-24-158c-20.8,14.8-45.9,23.4-73.2,23.4v337h54.2
		C543.5,426.8,560.2,354.4,560.2,273.8z"/>
	<path class="st5" d="M463,11.5v113.2c25.5,0,49.1-8.6,68-23C513.7,57.4,490,25.2,463,11.5z"/>
	<path class="st6" d="M395,101.5c18.9,14.5,42.4,23,68,23v-113C436,25.2,412.3,57.4,395,101.5z"/>
	<path class="st5" d="M567.5,365.4c-5.6,33.4-14.1,64.8-25.2,91.9c24,15.7,43,38.3,54.4,64.9c7.3-17.4,11.4-36.4,11.4-56.4
		C608,427,592.5,391.6,567.5,365.4z"/>
	<path class="st4" d="M463,181.6v65.2c18,0,32.6-14.6,32.6-32.6S481,181.6,463,181.6z"/>
	<path class="st5" d="M430,214.1c0,18,14.6,32.6,32.6,32.6v-65.2C444.6,181.6,430,196.2,430,214.1z"/>
	<path class="st12" d="M521.5,168c7.2,32.7,11,68.7,11,106c0,56-8.6,109.5-24.2,152.3"/>
</g>
</svg>
