<?xml version="1.0" encoding="utf-8"?>
<!-- Generator: Adobe Illustrator 19.0.0, SVG Export Plug-In . SVG Version: 6.00 Build 0)  -->
<svg version="1.1" id="Layer_1" xmlns="http://www.w3.org/2000/svg" xmlns:xlink="http://www.w3.org/1999/xlink" x="0px" y="0px"
	 viewBox="96 11 512 512" style="enable-background:new 96 11 512 512;" xml:space="preserve">
<style type="text/css">
	.st0{fill:#F0353D;}
	.st1{fill:#FD6A33;}
	.st2{fill:#FF8C29;}
	.st3{fill:#FFD1A9;}
	.st4{fill:#365558;}
	.st5{fill:#0295AA;}
	.st6{fill:#4ACFD9;}
	.st7{fill:#9BAAAB;}
	.st8{fill:#CDD4D5;}
	.st9{fill:#E6EAEA;}
	.st10{fill:#FFFFFF;}
	.st11{fill:#BCD643;}
	.st12{fill:none;stroke:#FFD1A9;stroke-width:12;stroke-linecap:round;stroke-linejoin:round;stroke-miterlimit:10;}
	.st13{fill:none;stroke:#BCD643;stroke-width:13;stroke-linecap:round;stroke-linejoin:round;stroke-miterlimit:10;}
</style>
<rect x="-659" y="-25.1" class="st0" width="128" height="128"/>
<rect x="-531" y="-25.1" class="st1" width="128" height="128"/>
<rect x="-403" y="-25.1" class="st2" width="128" height="128"/>
<rect x="-275" y="-25.1" class="st3" width="128" height="128"/>
<rect x="-659" y="102.9" class="st4" width="128" height="128"/>
<rect x="-531" y="102.9" class="st5" width="128" height="128"/>
<rect x="-403" y="102.9" class="st6" width="128" height="128"/>
<rect x="-659" y="230.9" class="st7" width="128" height="128"/>
<rect x="-531" y="230.9" class="st8" width="128" height="128"/>
<rect x="-403" y="230.9" class="st9" width="128" height="128"/>
<rect x="-275" y="230.9" class="st10" width="128" height="128"/>
<rect x="-659" y="358.9" class="st11" width="128" height="128"/>
<g>
	<path class="st2" d="M448,323.4c0-47.4-7.1-91.3-19.2-126.9c-16.7,11.9-36.9,18.8-58.8,18.8v270.6h43.5
		C434.6,446.2,448,388.1,448,323.4z"/>
	<path class="st12" d="M416.9,238.4c5.8,26.3,8.8,55.1,8.8,85.1c0,45-6.9,87.9-19.4,122.3"/>
	<path class="st1" d="M311.1,196.5c-12.1,35.7-19.2,79.4-19.2,126.9c0,64.7,13.4,122.8,34.5,162.5h43.5V215.3
		C348.1,215.3,327.8,208.4,311.1,196.5z"/>
	<path class="st5" d="M369.9,112.7v90.9c20.5,0,39.4-6.9,54.6-18.4C410.6,149.6,391.6,123.8,369.9,112.7z"/>
	<path class="st4" d="M315.4,185c15.1,11.6,34.1,18.4,54.6,18.4v-90.7C348.2,123.8,329.2,149.6,315.4,185z"/>
	<path class="st4" d="M253.5,477.7c0,16.1,3.3,31.3,9.1,45.3c9.1-21.5,24.4-39.6,43.7-52.1c-8.9-21.8-15.9-46.8-20.3-73.8
		C266,417.9,253.5,446.4,253.5,477.7z"/>
	<path class="st5" d="M453.8,396.9c-4.5,26.8-11.3,52-20.3,73.8c19.2,12.6,34.5,30.8,43.7,52.1c5.8-13.9,9.1-29.2,9.1-45.3
		C486.4,446.4,473.9,417.9,453.8,396.9z"/>
	<path class="st6" d="M369.9,249.3v52.3c14.4,0,26.2-11.7,26.2-26.2C396.1,261,384.4,249.3,369.9,249.3z"/>
	<path class="st5" d="M343.8,275.5c0,14.4,11.7,26.2,26.2,26.2v-52.3C355.5,249.3,343.8,261,343.8,275.5z"/>
	<path class="st3" d="M430.1,105"/>
	<g>
		<circle class="st9" cx="308.2" cy="101.2" r="9.7"/>
		<path class="st4" d="M276.6,94.7l-57.8,109.2c-2.5,4.7-0.9,6.1,3.5,3.1l101.4-70.6c1.8-1.3,3.9-3.2,5.7-5.3l-48.2-42.7
			C279.3,90.5,277.6,92.8,276.6,94.7z"/>
		<path class="st5" d="M391.6,15.7c2.5-4.7,0.9-6.1-3.5-3.1L286.8,83.2c-1.8,1.2-3.8,3.1-5.6,5.2l48.2,42.7c1.8-2.1,3.5-4.3,4.5-6.2
			L391.6,15.7z"/>
		<path class="st5" d="M304.4,184.3c-6.9-6.1,4.2-29.8,24.8-53.1c0,0,0,0,0-0.1l-2.8-2.5l-12.9-11.4l-12.4-11c0,0,0,0,0,0.1
			c-20.6,23.2-31.7,47-24.8,53.1l12.9,11.4L304.4,184.3"/>
		<path class="st6" d="M379,100c-6.9-6.1-29.1,7.8-49.7,31.1c0,0,0,0,0,0.1l-2.8-2.5l-12.9-11.4l-12.4-11c0,0,0,0,0-0.1
			c20.6-23.2,42.8-37.1,49.7-31.1l12.9,11.4L379,100"/>
		<g>
			<path class="st3" d="M231.5,221.8c0.5,8,7.3,14.2,15.4,13.7l-1.8-29.2C237,206.8,231,213.7,231.5,221.8z"/>
			<path class="st2" d="M260.7,220c-0.5-8.1-7.4-14.2-15.5-13.7c-0.1,0-0.1,0-0.1,0l1.8,29.2c0.1,0,0.1,0,0.1,0
				C255,235,261.2,228,260.7,220z"/>
			<line class="st13" x1="245.2" y1="206.3" x2="242.2" y2="159"/>
			<path class="st3" d="M245.2,235.6c-3.8,0.2-6.8,3.6-6.6,7.4l-4,31.2c0.2,3.8,3.6,6.8,7.4,6.6l7.5-0.5l-2.7-44.9L245.2,235.6
				L245.2,235.6z"/>
			<path class="st2" d="M263.9,272.4l-7.7-30.5c-0.2-3.8-3.6-6.8-7.4-6.6l-1.9,0.1l2.7,44.9l7.7-0.5
				C261.1,279.6,264.1,276.3,263.9,272.4z"/>
		</g>
	</g>
</g>
</svg>
