<?xml version="1.0" encoding="utf-8"?>
<!-- Generator: Adobe Illustrator 19.0.0, SVG Export Plug-In . SVG Version: 6.00 Build 0)  -->
<svg version="1.1" id="Layer_1" xmlns="http://www.w3.org/2000/svg" xmlns:xlink="http://www.w3.org/1999/xlink" x="0px" y="0px"
	 viewBox="96 11 512 512" style="enable-background:new 96 11 512 512;" xml:space="preserve">
<style type="text/css">
	.st0{fill:#0295AA;}
	.st1{fill:#365558;}
	.st2{fill:#4ACFD9;}
	.st3{fill:#E6EAEA;}
	.st4{fill:#CDD4D5;}
	.st5{fill:#F0353D;}
	.st6{fill:#FD6A33;}
	.st7{fill:#FF8C29;}
	.st8{fill:#FFD1A9;}
	.st9{fill:#9BAAAB;}
	.st10{fill:#FFFFFF;}
	.st11{fill:#BCD643;}
	.st12{fill:#E34C40;}
</style>
<path class="st0" d="M316.2,130c-0.1,0-22.9,5.5-47.8,24.4c1.3,3.6,2,7.3,2,11.1c0,14.9-6.1,28.8-17.6,40.3
	c-12.3,12.3-24.9,15.5-34,15.9c-4.7,11.8-7.9,23.4-9.5,33.6C194.4,347.8,159.9,372,154,442.4c-4.4,51.6,27.4,80.6,55.9,80.6h142.2
	V130H316.2z"/>
<path class="st1" d="M321.6,93.3c-5.8,0-10.4,5.6-10.4,12.4v12c0,6.8,4.7,12.4,10.4,12.4h30.3V93.3H321.6z"/>
<path class="st0" d="M382.1,93.3c5.8,0,10.4,5.6,10.4,12.4v12c0,6.8-4.7,12.4-10.4,12.4h-30.3V93.3H382.1z"/>
<path class="st0" d="M312.2,11.9c-14.9-3.1-27.7,1.1-25.9,18.4c2,19.6,20.5,34,27.4,46.4c4.8,8.6,7.6,16.5,19.4,16.5h18.7
	c0,0,0-68.3,0-76.7C337.9,16.6,324.9,14.5,312.2,11.9z"/>
<path class="st2" d="M197,435.7c1.3,1.7,1.9,3.9,1.8,6.6c-0.9,13.8,2.7,27.3,9.9,37c2.4,3.2,2.4,8.4,0,11.6s-6.2,3.2-8.6,0
	c-9.8-13.2-14.7-31.5-13.4-50c0.3-4.5,3.3-7.8,6.7-7.4C194.6,433.5,195.9,434.4,197,435.7z"/>
<path class="st2" d="M388.1,130h-35.9v393h142.2c28.5,0,60.3-29,55.9-80.6c-5.9-70.4-40.4-94.6-55.3-187.1
	c-4.7-29.1-21.5-68.8-51.1-94.4C416.2,136.8,388.2,130,388.1,130z"/>
<path class="st2" d="M352.2,16.6c0,8.4,0,76.7,0,76.7h18.7c11.8,0,14.6-7.9,19.4-16.5c6.9-12.4,25.5-26.8,27.4-46.4
	c1.7-17.3-11-21.5-25.9-18.4C379.1,14.5,366.1,16.6,352.2,16.6z"/>
<path class="st3" d="M513.1,433.5c3.4-0.4,6.4,2.9,6.7,7.4c1.3,18.5-3.6,36.8-13.4,50c-2.4,3.2-6.2,3.2-8.6,0
	c-2.4-3.2-2.4-8.4,0-11.6c7.2-9.7,10.8-23.2,9.9-37c-0.1-2.7,0.5-4.9,1.8-6.6C510.4,434.4,511.8,433.5,513.1,433.5z"/>
<path class="st3" d="M351.9,197.8V413c59.4,0,107.5-48.2,107.5-107.5S411.1,197.8,351.9,197.8z"/>
<path class="st4" d="M244.4,305.1c0,59.4,48.2,107.5,107.5,107.5V197.5C292.6,197.7,244.4,245.6,244.4,305.1z"/>
<path class="st5" d="M141.2,145.4c-6.4-3.4-9.5-7.9-9.5-13.3c0-14.2,11.7-28.9,35.1-44.1c1.8-1.3,2.7-2.7,2.7-4.4c0-1.8-1-3.9-3-6.3
	c-2.5-2.9-4.7-4.4-6.5-4.4c-1.1,0-2.2,0.5-3.3,1.6C116.2,103.3,96,131.9,96,160.4c0,10.2,3.1,19.4,9.3,27.8
	c6.5,9.1,13.7,13.6,21.5,13.6c7.8,0,15.1-3.4,21.8-10.1c7.8-7.8,11.7-16.5,11.7-26.1C160.2,158.7,153.9,151.9,141.2,145.4z"/>
<path class="st5" d="M257.1,88c1.8-1.3,2.7-2.7,2.7-4.4c0-1.8-1-3.9-3-6.3c-2.5-2.9-4.7-4.4-6.5-4.4c-1.1,0-2.2,0.5-3.3,1.6
	c-40.5,28.7-60.7,57.3-60.7,85.7c0,10.2,3.1,19.4,9.3,27.8c6.5,9.1,13.6,13.6,21.2,13.6c7.8,0,15.1-3.4,21.8-10.1
	c7.8-7.8,11.7-16.5,11.7-26.1c0-6.9-6.3-13.6-18.8-20.1c-6.4-3.4-9.5-7.9-9.5-13.3C222,117.9,233.7,103.2,257.1,88z"/>
<path class="st6" d="M517.9,52.4c0,28.5-20.2,57.1-60.7,85.7c-1.1,1.1-2.2,1.6-3.3,1.6c-1.8,0-4-1.5-6.5-4.4c-2-2.4-3-4.4-3-6.3
	c0-1.6,0.9-3.1,2.7-4.4c23.4-15.2,35.1-29.9,35.1-44.1c0-5.4-3.2-9.9-9.5-13.3c-12.5-6.5-18.8-13.2-18.8-20.1
	c0-9.6,3.9-18.3,11.7-26.1c6.7-6.7,14-10.1,21.8-10.1c7.6,0,14.8,4.5,21.5,13.6C514.9,33,517.9,42.2,517.9,52.4z M608.3,52.4
	c0,28.5-20.2,57.1-60.7,85.7c-1.1,1.1-2.2,1.6-3.3,1.6c-1.8,0-4-1.5-6.5-4.4c-2-2.4-3-4.4-3-6.3c0-1.6,0.9-3.1,2.7-4.4
	c23.4-15.2,35.1-29.9,35.1-44.1c0-5.4-3.2-9.9-9.5-13.3c-12.5-6.5-18.8-13.2-18.8-20.1c0-9.6,3.9-18.3,11.7-26.1
	c6.7-6.7,14-10.1,21.8-10.1c7.6,0,14.7,4.5,21.2,13.6C605.2,33,608.3,42.2,608.3,52.4z"/>
<rect x="-530" y="28" class="st5" width="128" height="128"/>
<rect x="-402" y="28" class="st6" width="128" height="128"/>
<rect x="-274" y="28" class="st7" width="128" height="128"/>
<rect x="-146" y="28" class="st8" width="128" height="128"/>
<rect x="-530" y="156" class="st1" width="128" height="128"/>
<rect x="-402" y="156" class="st0" width="128" height="128"/>
<rect x="-274" y="156" class="st2" width="128" height="128"/>
<rect x="-530" y="284" class="st9" width="128" height="128"/>
<rect x="-402" y="284" class="st4" width="128" height="128"/>
<rect x="-274" y="284" class="st3" width="128" height="128"/>
<rect x="-146" y="284" class="st10" width="128" height="128"/>
<rect x="-530" y="412" class="st11" width="128" height="128"/>
<g>
	<path class="st6" d="M271.8,307c0,44.3,35.9,80.2,80.2,80.2V226.8C307.7,226.8,271.8,262.7,271.8,307z"/>
	<path class="st7" d="M432.2,307c0-44.3-35.9-80.2-80.2-80.2v160.5C396.3,387.2,432.2,351.3,432.2,307z"/>
	<path class="st9" d="M301.8,307c0,27.7,22.5,50.2,50.2,50.2V256.8C324.3,256.8,301.8,279.3,301.8,307z"/>
	<path class="st4" d="M402.2,307c0-27.7-22.5-50.2-50.2-50.2v100.5C379.7,357.2,402.2,334.7,402.2,307z"/>
	<path class="st3" d="M311.8,307c0,22.2,18,40.2,40.2,40.2v-80.5C329.8,266.8,311.8,284.8,311.8,307z"/>
	<path class="st10" d="M392.2,307c0-22.2-18-40.2-40.2-40.2v80.5C374.2,347.2,392.2,329.2,392.2,307z"/>
	<path class="st8" d="M351.9,226.8v24.9c3.1,0,5.7-2.5,5.7-5.7v-18.6c0-0.2,0-0.3,0-0.4C355.7,226.9,353.8,226.8,351.9,226.8z"/>
	<path class="st7" d="M346.9,226.9c0,0.2,0,0.4,0,0.5v18.6c0,2.9,2.2,5.4,5.1,5.6v-24.9C350.3,226.8,348.6,226.8,346.9,226.9z"/>
	<path class="st6" d="M352.1,362.8v24.4c1.9,0,3.8-0.1,5.7-0.2v-18.5C357.7,365.4,355.2,362.8,352.1,362.8z"/>
	<path class="st8" d="M346.9,368.5v18.6c1.7,0.1,3.4,0.2,5.1,0.2v-24.4C349.1,363.1,346.9,365.6,346.9,368.5z"/>
	<path class="st8" d="M291.4,301.3h-18.6c-0.3,0-0.5,0-0.8,0.1c-0.1,1.9-0.2,3.7-0.2,5.6H297C297,303.9,294.5,301.3,291.4,301.3z"/>
	<path class="st7" d="M291.4,312.7c3.1,0,5.7-2.5,5.7-5.7h-25.2c0,1.9,0.1,3.8,0.2,5.6c0.3,0,0.5,0.1,0.8,0.1H291.4z"/>
	<path class="st6" d="M413.8,301.3c-3.1,0-5.7,2.5-5.7,5.7h24.1v0c0-1.9-0.1-3.8-0.2-5.7H413.8z"/>
	<path class="st8" d="M413.8,312.7H432c0.1-1.9,0.2-3.8,0.2-5.7h-24.1C408.1,310.1,410.7,312.7,413.8,312.7z"/>
	<path class="st8" d="M313.3,259.7l-13.1-13.1c-0.1-0.1-0.3-0.2-0.5-0.4c-1.4,1.2-2.8,2.5-4.1,3.8l17.7,17.7
		C315.5,265.5,315.5,261.9,313.3,259.7z"/>
	<path class="st7" d="M305.3,267.7c2.2,2.2,5.8,2.2,8,0L295.6,250c-1.3,1.3-2.6,2.7-3.8,4.1c0.1,0.2,0.3,0.3,0.4,0.5L305.3,267.7z"
		/>
	<path class="st6" d="M391.8,346.3l17.2,17.2c1.3-1.3,2.6-2.7,3.8-4.2l-13-13C397.6,344.1,394,344.1,391.8,346.3z"/>
	<path class="st8" d="M391.8,354.3l13,13c1.4-1.2,2.8-2.5,4.1-3.9l-17.2-17.2C389.6,348.5,389.6,352.1,391.8,354.3z"/>
	<path class="st8" d="M305.1,346.1l-13.1,13.1c-0.2,0.2-0.3,0.3-0.4,0.5c1.2,1.4,2.5,2.8,3.8,4.1l17.7-17.7
		C310.9,343.9,307.3,343.9,305.1,346.1z"/>
	<path class="st7" d="M313.1,354.1c2.2-2.2,2.2-5.8,0-8l-17.7,17.7c1.3,1.3,2.7,2.6,4.1,3.8c0.2-0.1,0.3-0.2,0.5-0.4L313.1,354.1z"
		/>
	<path class="st6" d="M391.6,259.5c-2.2,2.2-2.2,5.8,0,8l17.2-17.2c-1.3-1.3-2.7-2.6-4.2-3.9L391.6,259.5z"/>
	<path class="st8" d="M391.6,267.5c2.2,2.2,5.8,2.2,8,0l13-13c-1.2-1.4-2.5-2.8-3.8-4.2L391.6,267.5z"/>
	<path class="st8" d="M334.4,248.3l-7.1-17.2c-0.1-0.1-0.1-0.3-0.2-0.4c-1.8,0.6-3.6,1.2-5.3,1.9l9.5,23
		C334.2,254.5,335.6,251.2,334.4,248.3z"/>
	<path class="st7" d="M323.9,252.6c1.2,2.9,4.5,4.3,7.4,3.1l-9.5-23c-1.7,0.7-3.5,1.5-5.2,2.3c0,0.2,0.1,0.3,0.2,0.5L323.9,252.6z"
		/>
	<path class="st6" d="M373.8,358.3l9.4,22.6c1.7-0.7,3.5-1.6,5.1-2.4l-7.1-17.1C380,358.5,376.7,357.1,373.8,358.3z"/>
	<path class="st8" d="M370.8,365.7l7.1,17.2c0,0,0,0,0,0c1.8-0.6,3.6-1.3,5.3-2l-9.4-22.6C370.9,359.5,369.6,362.8,370.8,365.7z"/>
	<path class="st8" d="M293.7,324.9l-17.2,7.1c-0.2,0.1-0.5,0.2-0.7,0.3c0.6,1.8,1.2,3.5,2,5.3l23.3-9.6
		C300,325.1,296.6,323.7,293.7,324.9z"/>
	<path class="st7" d="M298.1,335.4c2.9-1.2,4.3-4.5,3.1-7.4l-23.3,9.6c0.7,1.7,1.5,3.4,2.3,5.1c0.2-0.1,0.5-0.1,0.7-0.2L298.1,335.4
		z"/>
	<path class="st6" d="M406.8,278.1c-2.9,1.2-4.3,4.5-3.1,7.4l22.3-9.3c-0.7-1.8-1.5-3.5-2.4-5.2L406.8,278.1z"/>
	<path class="st8" d="M403.8,285.5c1.2,2.9,4.5,4.3,7.4,3.1l16.9-7c-0.6-1.8-1.3-3.6-2-5.3L403.8,285.5z"/>
	<path class="st8" d="M298.1,278.1l-17.2-7.1c-0.2-0.1-0.3-0.1-0.5-0.2c-0.8,1.7-1.7,3.4-2.4,5.1l23.1,9.6
		C302.3,282.6,301,279.3,298.1,278.1z"/>
	<path class="st7" d="M293.7,288.6c2.9,1.2,6.2-0.2,7.4-3.1l-23.1-9.6c-0.7,1.7-1.4,3.5-2,5.3c0.2,0.1,0.3,0.2,0.5,0.3L293.7,288.6z
		"/>
	<path class="st6" d="M403.8,328l22.5,9.3c0.7-1.7,1.4-3.5,2-5.3l-17.1-7.1C408.3,323.7,405,325.1,403.8,328z"/>
	<path class="st8" d="M406.8,335.4l17.1,7.1c0.8-1.7,1.6-3.4,2.3-5.2l-22.5-9.3C402.6,330.9,404,334.2,406.8,335.4z"/>
	<path class="st8" d="M323.5,361l-7.1,17.2c-0.1,0.2-0.2,0.4-0.2,0.6c1.7,0.8,3.4,1.6,5.1,2.3L331,358
		C328.1,356.8,324.7,358.1,323.5,361z"/>
	<path class="st7" d="M334,365.4c1.2-2.9-0.2-6.2-3.1-7.4l-9.6,23.2c1.7,0.7,3.5,1.4,5.3,2c0.1-0.2,0.2-0.4,0.3-0.6L334,365.4z"/>
	<path class="st6" d="M370.4,247.9c-1.2,2.9,0.2,6.2,3.1,7.4l9.3-22.4c-1.7-0.7-3.5-1.4-5.3-2L370.4,247.9z"/>
	<path class="st8" d="M373.5,255.3c2.9,1.2,6.2-0.2,7.4-3.1l7-17c-1.7-0.8-3.4-1.6-5.2-2.4L373.5,255.3z"/>
	<g>
		<path id="XMLID_4_" class="st12" d="M346.5,314.6c1-0.3,7.4,0.7,8.2,1.3c2.7,1.9,6.6,2.9,8.2,1s-0.1-5.3-2.6-7.8
			c-0.7-0.8-3.2-6.7-3-7.7c0.4-3.3-0.7-7.3-3.2-7.7c-2.5-0.4-4.8,3.1-5.4,6.1c-0.2,1-4.3,6.1-5.3,6.5c-3,1.4-5.8,4.3-4.9,6.6
			C339.5,315.3,343.6,315.5,346.5,314.6z"/>
		<path id="XMLID_3_" class="st12" d="M357.6,280.3c4,0.2,5.7,8.3,5,14.7c-0.2,2,4.5,13.5,5.4,15.4c0.6,1.1,1.5,2,2.6,2.6
			c-3.1-8.3-3.3-15-2.7-16.5c2.6-7.2,1.5-16.9-2.4-19.1c-2.6-1.5-8.4-2.1-12.1,3.9C354.6,280.4,356.1,280.1,357.6,280.3z"/>
		<path id="XMLID_2_" class="st12" d="M325.5,315.1c-1.9-3.6,4.4-9.1,10.2-11.8c1.9-0.8,9.4-10.7,10.6-12.3c0.7-1.1,1-2.3,1-3.6
			c-5.7,6.8-11.3,10.3-12.9,10.6c-7.5,1.3-15.4,7.2-15.4,11.7c0,3,2.4,8.3,9.4,8.5C327.1,317.6,326.1,316.5,325.5,315.1z"/>
		<path id="XMLID_1_" class="st12" d="M371.9,326.2c-2.2,3.4-10.1,0.8-15.3-3c-1.7-1.2-14-2.9-16-3c-1.3-0.1-2.5,0.3-3.6,1
			c8.7,1.5,14.6,4.6,15.7,5.8c4.9,5.9,13.9,9.7,17.8,7.5c2.6-1.5,6-6.2,2.7-12.4C373.3,323.5,372.9,325,371.9,326.2z"/>
	</g>
</g>
</svg>
