<?xml version="1.0" encoding="utf-8"?>
<!-- Generator: Adobe Illustrator 19.0.0, SVG Export Plug-In . SVG Version: 6.00 Build 0)  -->
<svg version="1.1" id="Layer_1" xmlns="http://www.w3.org/2000/svg" xmlns:xlink="http://www.w3.org/1999/xlink" x="0px" y="0px"
	 viewBox="206 -206 512 512" style="enable-background:new 206 -206 512 512;" xml:space="preserve">
<style type="text/css">
	.st0{display:none;}
	.st1{display:inline;}
	.st2{fill:#E6EAEA;}
	.st3{fill:#CDD4D5;}
	.st4{fill:#9BAAAB;}
	.st5{fill:#4ACFD9;}
	.st6{fill:#0295AA;}
	.st7{fill:#365558;}
	.st8{fill:#687F82;}
	.st9{fill:#FF8C29;}
	.st10{fill:#F0353D;}
	.st11{fill:#FD6A33;}
	.st12{fill:#FFD1A9;}
	.st13{fill:#FFFFFF;}
</style>
<g id="Layer_3" class="st0">
	<rect x="618" y="-618.4" class="st1" width="512" height="512.8"/>
</g>
<g>
	<path class="st2" d="M335.3,115.5h243.2c3.5,0,6.4-3.1,6.4-7v-228.7L506.6-206H335.4c-3.5,0-6.4,3.1-6.4,7v307.5
		C328.9,112.4,331.8,115.5,335.3,115.5z"/>
	<path class="st3" d="M578.5,115.5c3.5,0,6.4-3.1,6.4-7v-228.7L506.6-206h-44.5v321.5H578.5z"/>
	<path id="SVGCleanerId_0" class="st4" d="M513-120.2h71.9L506.6-206v78.8C506.6-123.3,509.4-120.2,513-120.2z"/>
	<g>
		<path class="st5" d="M373,45.3h167.8c3.5,0,6.4,3.1,6.4,7s-2.9,7-6.4,7H373c-3.5,0-6.4-3.1-6.4-7S369.5,45.3,373,45.3z"/>
		<path class="st5" d="M373-14.7h167.8c3.5,0,6.4,3.1,6.4,7s-2.9,7-6.4,7H373c-3.5,0-6.4-3.1-6.4-7S369.5-14.7,373-14.7z"/>
		<path class="st5" d="M373-74.7h167.8c3.5,0,6.4,3.1,6.4,7s-2.9,7-6.4,7H373c-3.5,0-6.4-3.1-6.4-7S369.5-74.7,373-74.7z"/>
		<path class="st5" d="M373-134.7h167.8c3.5,0,6.4,3.1,6.4,7c0,3.9-2.9,7-6.4,7H373c-3.5,0-6.4-3.1-6.4-7
			C366.6-131.5,369.5-134.7,373-134.7z"/>
	</g>
	<g>
		<path class="st6" d="M540.8,59.3c3.5,0,6.4-3.1,6.4-7s-2.9-7-6.4-7h-78.7v14H540.8z"/>
		<path class="st6" d="M540.8-0.7c3.5,0,6.4-3.1,6.4-7s-2.9-7-6.4-7h-78.7v14.1L540.8-0.7L540.8-0.7z"/>
		<path class="st6" d="M547.2-67.7c0-3.9-2.9-7-6.4-7h-78.7v14.1h78.8C544.4-60.6,547.2-63.8,547.2-67.7z"/>
		<path class="st6" d="M547.2-127.7c0-3.9-2.9-7-6.4-7h-78.7v14.1h78.8C544.4-120.6,547.2-123.8,547.2-127.7z"/>
	</g>
	<g>
		<path id="SVGCleanerId_0_1_" class="st4" d="M513-120.2h71.9L506.6-206v78.8C506.6-123.3,509.4-120.2,513-120.2z"/>
	</g>
</g>
<g>
	<path class="st5" d="M708.1,97.7V16.6c0-2.8-2.3-5.1-5.1-5.1H467.9c-2.8,0-5.1,2.3-5.1,5.1v81.1c0,2.8,2.3,5.1,5.1,5.1h235.1
		C705.9,102.7,708.1,100.5,708.1,97.7z"/>
	<path class="st7" d="M551.4,97.7V16.6c0-2.8-2.3-5.1-5.1-5.1h-78.4c-2.8,0-5.1,2.3-5.1,5.1v81.1c0,2.8,2.3,5.1,5.1,5.1h78.4
		C549.1,102.7,551.4,100.5,551.4,97.7z"/>
	<path class="st6" d="M629.8,97.7V16.6c0-2.8-2.3-5.1-5.1-5.1h-78.4c-2.8,0-5.1,2.3-5.1,5.1v81.1c0,2.8,2.3,5.1,5.1,5.1h78.4
		C627.5,102.7,629.8,100.5,629.8,97.7z"/>
	<path class="st3" d="M665.6,200.5c0-1.3-0.5-2.6-1.5-3.6L497.8,30.6c-1-1-2.3-1.5-3.6-1.5c-1.3,0-2.6,0.5-3.6,1.5L433.3,88
		c-2,2-2,5.2,0,7.2l166.3,166.3c0.9,1,2.2,1.5,3.6,1.5c1.3,0,2.6-0.5,3.6-1.5l57.3-57.3C665,203.1,665.6,201.8,665.6,200.5z"/>
	<path class="st8" d="M553.2,86l-55.4-55.4c-1-1-2.3-1.5-3.6-1.5c-1.3,0-2.6,0.5-3.6,1.5L433.3,88c-2,2-2,5.2,0,7.2l55.4,55.4
		c2,2,5.2,2,7.2,0l57.3-57.3C555.2,91.2,555.2,88,553.2,86z"/>
	<path class="st4" d="M610.1,145c0-1.3-0.5-2.6-1.5-3.6L553.2,86c-1-1-2.3-1.5-3.6-1.5c-1.3,0-2.6,0.5-3.6,1.5l-57.3,57.3
		c-2,2-2,5.2,0,7.2l55.4,55.4c0.9,1,2.2,1.5,3.6,1.5s2.6-0.5,3.6-1.5l57.3-57.3C609.6,147.7,610.1,146.4,610.1,145z"/>
	<path class="st9" d="M505.4,300.4V65.2c0-2.8-2.3-5.1-5.1-5.1h-81.1c-2.8,0-5.1,2.3-5.1,5.1v235.1c0,2.8,2.3,5.1,5.1,5.1h81.1
		C503.2,305.4,505.4,303.2,505.4,300.4z"/>
	<path class="st10" d="M505.4,143.6V65.2c0-2.8-2.3-5.1-5.1-5.1h-81.1c-2.8,0-5.1,2.3-5.1,5.1v78.4c0,2.8,2.3,5.1,5.1,5.1h81.1
		C503.2,148.7,505.4,146.4,505.4,143.6z"/>
	<path class="st11" d="M505.4,222v-78.4c0-2.8-2.3-5.1-5.1-5.1h-81.1c-2.8,0-5.1,2.3-5.1,5.1V222c0,2.8,2.3,5.1,5.1,5.1h81.1
		C503.2,227.1,505.4,224.8,505.4,222z"/>
	<path class="st12" d="M519,57.1c0-31.1-25.3-56.4-56.4-56.4S406.1,26,406.1,57.1s25.3,56.4,56.4,56.4
		C493.6,113.6,519,88.2,519,57.1z"/>
	<path class="st9" d="M462.5,113.6V0.7c-31.1,0-56.4,25.3-56.4,56.4C406.1,88.2,431.4,113.6,462.5,113.6z"/>
	<path class="st8" d="M497.3,57.1c0-19.2-15.6-34.8-34.8-34.8S427.7,38,427.7,57.1s15.6,34.8,34.8,34.8S497.3,76.3,497.3,57.1z"/>
	<path class="st7" d="M462.5,22.3c-19.2,0-34.8,15.6-34.8,34.8s15.6,34.8,34.8,34.8V22.3z"/>
	<path class="st13" d="M482.5,57.1c0,11-8.9,19.9-19.9,19.9c-2.8,0-5.1-2.3-5.1-5.1c0-2.8,2.3-5.1,5.1-5.1c5.4,0,9.8-4.4,9.8-9.8
		c0-2.8,2.3-5.1,5.1-5.1S482.5,54.3,482.5,57.1z"/>
</g>
</svg>
