<?xml version="1.0" encoding="utf-8"?>
<!-- Generator: Adobe Illustrator 19.0.0, SVG Export Plug-In . SVG Version: 6.00 Build 0)  -->
<svg version="1.1" id="Layer_1" xmlns="http://www.w3.org/2000/svg" xmlns:xlink="http://www.w3.org/1999/xlink" x="0px" y="0px"
	 viewBox="206 -206 512 512" style="enable-background:new 206 -206 512 512;" xml:space="preserve">
<style type="text/css">
	.st0{display:none;}
	.st1{display:inline;}
	.st2{fill:#FFD1A9;}
	.st3{fill:#E6EAEA;}
	.st4{fill:#CDD4D5;}
	.st5{fill:#9BAAAB;}
	.st6{fill:#4ACFD9;}
	.st7{fill:#0295AA;}
	.st8{fill:#FF8C29;}
	.st9{fill:#365558;}
</style>
<g id="Layer_3" class="st0">
	<rect x="618" y="-618.4" class="st1" width="512" height="512.8"/>
</g>
<path class="st2" d="M244.2-70.8c0-6.7,5.5-12.2,12.2-12.2h69c6.7,0,12.2,5.5,12.2,12.2c0,0,0-0.7,0,7.7s3,14.9,14.9,14.9
	s291.7,0,291.7,0c6.7,0,12.2,5.5,12.2,12.2v251.8c0,6.7-5.5,12.2-12.2,12.2H256.3c-6.7,0-12.2-5.5-12.2-12.2V-70.8"/>
<g>
	<path class="st3" d="M605.7,218.3l32.1-244.8c0.5-3.5-2.3-6.9-6.2-7.4L401.4-64.1L304.7,3.4l-22.6,172.3c-0.5,3.5,2.3,6.9,6.2,7.4
		l309.6,40.6C601.8,224.3,605.3,221.8,605.7,218.3z"/>
	<path class="st4" d="M637.8-26.5c0.5-3.5-2.3-6.9-6.2-7.4L401.4-64.1L304.7,3.4l-5.9,44.8l323.6,42.4L637.8-26.5z"/>
	<path id="SVGCleanerId_0" class="st5" d="M391.9,8.3l9.5-72.4L304.7,3.4L384,13.8C387.9,14.3,391.4,11.9,391.9,8.3z"/>
	<g>
		<path class="st6" d="M540,171.1L562.2,2.2c0.5-3.5,4-6,7.9-5.5s6.7,3.8,6.2,7.4l-22.1,168.9c-0.5,3.5-4,6-7.9,5.5
			C542.3,177.9,539.6,174.6,540,171.1z"/>
		<path class="st6" d="M479.6,163.2L501.8-5.8c0.5-3.5,4-6,7.9-5.5c3.9,0.5,6.7,3.8,6.2,7.4L493.7,165c-0.5,3.5-4,6-7.9,5.5
			S479.2,166.7,479.6,163.2z"/>
		<path class="st6" d="M419.2,155.2l22.1-168.9c0.5-3.5,4-6,7.9-5.5c3.9,0.5,6.7,3.8,6.2,7.4l-22.1,168.9c-0.5,3.5-4,6-7.9,5.5
			S418.8,158.8,419.2,155.2z"/>
		<path class="st6" d="M358.8,147.3L381-21.6c0.5-3.5,4-6,7.9-5.5c3.9,0.5,6.7,3.8,6.2,7.4l-22.1,168.9c-0.5,3.5-4,6-7.9,5.5
			C361.2,154.2,358.4,150.8,358.8,147.3z"/>
	</g>
	<g>
		<path class="st7" d="M576.3,4c0.5-3.5-2.3-6.9-6.2-7.4s-7.4,2-7.9,5.5l-10.4,79.2l14.1,1.8L576.3,4z"/>
		<path class="st7" d="M515.9-3.9c0.5-3.5-2.3-6.9-6.2-7.4c-3.9-0.5-7.4,2-7.9,5.5l-10.4,79.2l14.2,1.9L515.9-3.9L515.9-3.9z"/>
		<path class="st7" d="M449.3-19.2c-3.9-0.5-7.4,2-7.9,5.5L431,65.5l14.2,1.9l10.4-79.3C456-15.4,453.2-18.7,449.3-19.2z"/>
		<path class="st7" d="M388.9-27.1c-3.9-0.5-7.4,2-7.9,5.5l-10.4,79.2l14.2,1.9l10.4-79.3C395.6-23.4,392.8-26.6,388.9-27.1z"/>
	</g>
	<g>
		<path id="SVGCleanerId_0_1_" class="st5" d="M391.9,8.3l9.5-72.4L304.7,3.4L384,13.8C387.9,14.3,391.4,11.9,391.9,8.3z"/>
	</g>
</g>
<path class="st8" d="M643.1,228H255.3c-6.7,0-11.2-5.5-10-12.2l22.2-125.9c1.2-6.7,7.6-12.2,14.3-12.2h387.8c6.7,0,11.2,5.5,10,12.2
	l-22.2,125.9C656.3,222.5,649.8,228,643.1,228z"/>
<path class="st9" d="M267.3,213c-1.6,0-3-0.6-3.9-1.7c-0.9-1.2-1.3-2.8-1-4.6l1.1-5.9c1.5-4.6,4.8-8.1,7-8.1h370
	c1.6,0,3,0.6,3.9,1.7c0.9,1.2,1.3,2.8,1,4.6l-1.1,5.9c-0.7,4.3-3.9,8.1-8,8.1H267.3z"/>
</svg>
