<?xml version="1.0" encoding="utf-8"?>
<!-- Generator: Adobe Illustrator 19.0.0, SVG Export Plug-In . SVG Version: 6.00 Build 0)  -->
<svg version="1.1" id="Layer_1" xmlns="http://www.w3.org/2000/svg" xmlns:xlink="http://www.w3.org/1999/xlink" x="0px" y="0px"
	 viewBox="96 10 512 513" style="enable-background:new 96 10 512 513;" xml:space="preserve">
<style type="text/css">
	.st0{fill:#FFD1A9;}
	.st1{fill:#0295AA;}
	.st2{fill:#FF8C29;}
	.st3{fill:#365558;}
</style>
<path class="st0" d="M588.3,69.8l-230-57.5c-4.1-1-8.5-1-12.6,0l-230,57.5C104.1,72.7,96,83.1,96,95v401.7c0,14.4,11.6,26,26,26h460
	c14.4,0,26-11.6,26-26V95C608,83.1,599.9,72.7,588.3,69.8z M449.4,154.4c3-5.2,7.2-9.2,12.7-12.1c5.4-3,11.6-4.4,18.5-4.4
	c10.5,0,18.7,2.5,24.5,7.6c5.9,5.1,8.8,12.2,8.8,21.4c0,5.1-1.3,10.2-3.9,15.5s-7.1,11.4-13.5,18.4l-23.3,24.5h44v16.4H447v-13.9
	l33.1-35.3c4.5-5,7.9-9.3,10.1-13c2.2-3.7,3.3-7.2,3.3-10.5c0-4.5-1.1-8.1-3.4-10.7c-2.3-2.6-5.6-3.9-9.8-3.9
	c-4.6,0-8.2,1.6-10.9,4.8c-2.6,3.1-3.9,7.3-3.9,12.4h-20.4C444.9,165.3,446.4,159.6,449.4,154.4z M194.7,154.4l42.4-15.2h2.2v102.5
	H219v-78.3l-24.3,7.5V154.4z M248.6,462.2c-6.6,5.5-15.4,8.2-26.3,8.2c-10.2,0-18.6-2.7-25.1-8.1c-6.5-5.4-9.7-12.5-9.7-21.4h20.3
	c0,3.8,1.4,7,4.3,9.4c2.9,2.4,6.5,3.7,10.7,3.7c4.8,0,8.6-1.3,11.3-3.8c2.8-2.6,4.1-6,4.1-10.2c0-10.2-5.6-15.3-16.9-15.3h-10.8
	v-15.9h10.8c5.2,0,9-1.3,11.5-3.9s3.7-6,3.7-10.3c0-4.1-1.2-7.3-3.7-9.6c-2.4-2.3-5.8-3.4-10.1-3.4c-3.9,0-7.1,1.1-9.8,3.2
	c-2.6,2.1-3.9,4.9-3.9,8.3h-20.3c0-5.3,1.4-10.1,4.3-14.3c2.9-4.3,6.9-7.6,12.1-10c5.2-2.4,10.9-3.6,17.2-3.6
	c10.8,0,19.3,2.6,25.5,7.8c6.1,5.2,9.2,12.3,9.2,21.4c0,4.7-1.4,9-4.3,12.9c-2.9,3.9-6.6,7-11.3,9.1c5.8,2.1,10.1,5.2,12.9,9.3
	c2.9,4.1,4.3,9,4.3,14.6C258.6,449.4,255.3,456.7,248.6,462.2z M352.5,142c-19.6,0-35.5-15.9-35.5-35.5S332.9,71,352.5,71
	S388,86.9,388,106.5S372.1,142,352.5,142z M518.7,446.9h-11.6V469h-20.3v-22.1h-42l-0.9-12.8l42.7-67.4h20.5v63.8h11.6V446.9z"/>
<path class="st0" d="M212.1,450.4c2.9,2.4,6.5,3.7,10.7,3.7c4.8,0,8.6-1.3,11.3-3.8c2.8-2.6,4.1-6,4.1-10.2c0-0.1,0-0.1,0-0.2
	c0,4.2-1.4,7.5-4.1,10.1c-2.7,2.5-6.5,3.8-11.3,3.8c-4.2,0-7.8-1.2-10.7-3.7c-2.9-2.4-4.3-5.6-4.3-9.4h-20.3c0,0.1,0,0.2,0,0.3h20.3
	C207.8,444.8,209.3,447.9,212.1,450.4z"/>
<path class="st0" d="M254.3,425.7c2.8,4.1,4.3,8.9,4.3,14.5c0-0.1,0-0.1,0-0.2c0-5.6-1.4-10.5-4.3-14.6c-2.8-4-6.9-7.1-12.5-9.2
	c-0.1,0.1-0.2,0.1-0.3,0.2C247.2,418.5,251.5,421.6,254.3,425.7z"/>
<path class="st0" d="M205.1,368.8c5.2-2.4,10.9-3.6,17.2-3.6c10.8,0,19.3,2.6,25.5,7.8c6.1,5.1,9.2,12.2,9.2,21.2c0,0,0-0.1,0-0.1
	c0-9.1-3.1-16.2-9.2-21.4c-6.1-5.2-14.6-7.8-25.5-7.8c-6.2,0-12,1.2-17.2,3.6c-5.2,2.4-9.2,5.7-12.1,10c-2.9,4.2-4.3,9-4.3,14.3h0
	c0.1-5.2,1.5-9.9,4.3-14C196,374.5,200,371.2,205.1,368.8z"/>
<path class="st0" d="M232.9,404.9c2.5-2.6,3.7-6,3.7-10.3c0,0,0-0.1,0-0.1c0,4.2-1.3,7.6-3.7,10.1c-2.5,2.6-6.3,3.9-11.5,3.9h-10.8
	v0.3h10.8C226.6,408.8,230.4,407.5,232.9,404.9z"/>
<rect x="507.1" y="430.2" class="st0" width="11.6" height="0.3"/>
<polygon class="st0" points="507.1,366.6 507.1,366.3 486.5,366.3 443.9,433.8 443.9,434 486.5,366.6 "/>
<polygon class="st0" points="464.1,430.2 486.8,430.2 486.8,394 485.4,396.4 "/>
<path class="st1" d="M317,106.5c0-19.4,15.6-35.2,35-35.5V10.7L115.7,69.8C104.1,72.7,96,83.1,96,95v401.7c0,14.4,11.6,26,26,26h230
	V142C332.6,141.7,317,125.9,317,106.5z M194.7,154.4l42.4-15.2h2.2v102.5H219v-78.3l-24.3,7.5V154.4z M248.6,462.2
	c-6.6,5.5-15.4,8.2-26.3,8.2c-10.2,0-18.6-2.7-25.1-8.1c-6.5-5.4-9.7-12.5-9.7-21.4h20.3c0,3.8,1.4,7,4.3,9.4
	c2.9,2.4,6.5,3.7,10.7,3.7c4.8,0,8.6-1.3,11.3-3.8c2.8-2.6,4.1-6,4.1-10.2c0-10.2-5.6-15.3-16.9-15.3h-10.8v-15.9h10.8
	c5.2,0,9-1.3,11.5-3.9s3.7-6,3.7-10.3c0-4.1-1.2-7.3-3.7-9.6c-2.4-2.3-5.8-3.4-10.1-3.4c-3.9,0-7.1,1.1-9.8,3.2
	c-2.6,2.1-3.9,4.9-3.9,8.3h-20.3c0-5.3,1.4-10.1,4.3-14.3c2.9-4.3,6.9-7.6,12.1-10c5.2-2.4,10.9-3.6,17.2-3.6
	c10.8,0,19.3,2.6,25.5,7.8c6.1,5.2,9.2,12.3,9.2,21.4c0,4.7-1.4,9-4.3,12.9c-2.9,3.9-6.6,7-11.3,9.1c5.8,2.1,10.1,5.2,12.9,9.3
	c2.9,4.1,4.3,9,4.3,14.6C258.6,449.4,255.3,456.7,248.6,462.2z"/>
<path class="st1" d="M232.9,404.9c2.5-2.6,3.7-6,3.7-10.3c0,0,0-0.1,0-0.1c0,4.2-1.3,7.6-3.7,10.1c-2.5,2.6-6.3,3.9-11.5,3.9h-10.8
	v0.3h10.8C226.6,408.8,230.4,407.5,232.9,404.9z"/>
<path class="st1" d="M205.1,368.8c5.2-2.4,10.9-3.6,17.2-3.6c10.8,0,19.3,2.6,25.5,7.8c6.1,5.1,9.2,12.2,9.2,21.2c0,0,0-0.1,0-0.1
	c0-9.1-3.1-16.2-9.2-21.4c-6.1-5.2-14.6-7.8-25.5-7.8c-6.2,0-12,1.2-17.2,3.6c-5.2,2.4-9.2,5.7-12.1,10c-2.9,4.2-4.3,9-4.3,14.3h0
	c0.1-5.2,1.5-9.9,4.3-14C196,374.5,200,371.2,205.1,368.8z"/>
<path class="st1" d="M212.1,450.4c2.9,2.4,6.5,3.7,10.7,3.7c4.8,0,8.6-1.3,11.3-3.8c2.8-2.6,4.1-6,4.1-10.2c0-0.1,0-0.1,0-0.2
	c0,4.2-1.4,7.5-4.1,10.1c-2.7,2.5-6.5,3.8-11.3,3.8c-4.2,0-7.8-1.2-10.7-3.7c-2.9-2.4-4.3-5.6-4.3-9.4h-20.3c0,0.1,0,0.2,0,0.3h20.3
	C207.8,444.8,209.3,447.9,212.1,450.4z"/>
<path class="st1" d="M254.3,425.7c2.8,4.1,4.3,8.9,4.3,14.5c0-0.1,0-0.1,0-0.2c0-5.6-1.4-10.5-4.3-14.6c-2.8-4-6.9-7.1-12.5-9.2
	c-0.1,0.1-0.2,0.1-0.3,0.2C247.2,418.5,251.5,421.6,254.3,425.7z"/>
<path class="st2" d="M352,298v225h230c14.4,0,26-11.6,26-26V298H352z M518.7,446.9h-11.6V469h-20.3v-22.1h-42l-0.9-12.8l42.7-67.4
	h20.5v63.8h11.6V446.9z"/>
<polygon class="st2" points="464.1,430.5 486.8,430.5 486.8,394.3 485.4,396.6 "/>
<path class="st3" d="M96,298v199c0,14.4,11.6,26,26,26h230V298H96z M248.6,462.2c-6.6,5.5-15.4,8.2-26.3,8.2
	c-10.2,0-18.6-2.7-25.1-8.1c-6.5-5.4-9.7-12.5-9.7-21.4h20.3c0,3.8,1.4,7,4.3,9.4c2.9,2.4,6.5,3.7,10.7,3.7c4.8,0,8.6-1.3,11.3-3.8
	c2.8-2.6,4.1-6,4.1-10.2c0-10.2-5.6-15.3-16.9-15.3h-10.8v-15.9h10.8c5.2,0,9-1.3,11.5-3.9s3.7-6,3.7-10.3c0-4.1-1.2-7.3-3.7-9.6
	c-2.4-2.3-5.8-3.4-10.1-3.4c-3.9,0-7.1,1.1-9.8,3.2c-2.6,2.1-3.9,4.9-3.9,8.3h-20.3c0-5.3,1.4-10.1,4.3-14.3
	c2.9-4.3,6.9-7.6,12.1-10c5.2-2.4,10.9-3.6,17.2-3.6c10.8,0,19.3,2.6,25.5,7.8c6.1,5.2,9.2,12.3,9.2,21.4c0,4.7-1.4,9-4.3,12.9
	c-2.9,3.9-6.6,7-11.3,9.1c5.8,2.1,10.1,5.2,12.9,9.3c2.9,4.1,4.3,9,4.3,14.6C258.6,449.4,255.3,456.7,248.6,462.2z"/>
</svg>
