<?xml version="1.0" encoding="utf-8"?>
<!-- Generator: Adobe Illustrator 19.0.0, SVG Export Plug-In . SVG Version: 6.00 Build 0)  -->
<svg version="1.1" id="Layer_1" xmlns="http://www.w3.org/2000/svg" xmlns:xlink="http://www.w3.org/1999/xlink" x="0px" y="0px"
	 viewBox="206 -206 512 512" style="enable-background:new 206 -206 512 512;" xml:space="preserve">
<style type="text/css">
	.st0{fill:#687F82;}
	.st1{fill:#365558;}
	.st2{display:none;fill:#E6EAEA;}
	.st3{fill:#E6EAEA;}
	.st4{fill:#FF8C29;}
	.st5{fill:#F0353D;}
	.st6{fill:#FFFFFF;}
	.st7{display:none;fill:#4ACFD9;}
	.st8{display:none;fill:#0295AA;}
	.st9{display:none;fill:#FFFFFF;}
	.st10{fill:#9BAAAB;}
	.st11{fill:#CDD4D5;}
</style>
<path class="st0" d="M648.6-163.6H292.4c-4.4,0-8,3.6-8,8V298c0,4.4,3.6,8,8,8h356.2c4.4,0,8-3.6,8-8v-453.6
	C656.5-160,653-163.6,648.6-163.6z M470.5,169.1c-55.9,0-101.2-45.3-101.2-101.2S414.6-33.3,470.5-33.3S571.7,12,571.7,67.9
	S526.4,169.1,470.5,169.1z"/>
<path class="st1" d="M369.3,67.9c0-55.9,45.3-101.2,101.2-101.2v-130.3H292.4c-4.4,0-8,3.6-8,8V298c0,4.4,3.6,8,8,8h178.1V169.1
	C414.6,169.1,369.3,123.8,369.3,67.9z"/>
<path class="st2" d="M-96.8,155.3h-288.3c-4.4,0-7.9,3.6-7.9,8v390.1c0,4.4,3.6,8,7.9,8h207.8c2.1,0,4.1-0.8,5.6-2.3l80.6-80.6
	c1.5-1.5,2.3-3.5,2.3-5.6V163.3C-88.9,158.9-92.4,155.3-96.8,155.3z M-241,454.1c-55.9,0-101.2-45.3-101.2-101.2
	s45.3-101.2,101.2-101.2s101.2,45.3,101.2,101.2S-185.1,454.1-241,454.1z"/>
<path class="st3" d="M614-129.7H325.7c-4.4,0-7.9,3.6-7.9,8v390.1c0,4.4,3.6,8,7.9,8h207.8c2.1,0,4.1-0.8,5.6-2.3l80.6-80.6
	c1.5-1.5,2.3-3.5,2.3-5.6v-309.6C621.9-126.1,618.4-129.7,614-129.7z"/>
<path class="st4" d="M555.3-163.6H527c-7.2-24.9-30-42.4-56.5-42.4s-49.3,17.5-56.5,42.4h-28.3c-4.4,0-8,3.6-8,7.9V-92
	c0,4.4,3.6,7.9,8,7.9h169.6c4.4,0,8-3.6,8-7.9v-63.6C563.3-160,559.7-163.6,555.3-163.6z"/>
<path class="st5" d="M414-163.6h-28.3c-4.4,0-8,3.6-8,7.9V-92c0,4.4,3.6,7.9,8,7.9h84.8V-206C444-206,421.2-188.5,414-163.6z"/>
<path class="st6" d="M499.7-144.2c-3.8,0-7.2-2.8-7.8-6.6c-1.8-10.5-10.8-18.1-21.4-18.1c-4.4,0-8-3.6-8-8s3.6-8,8-8
	c18.4,0,34,13.2,37.1,31.3c0.7,4.3-2.2,8.4-6.5,9.2C500.6-144.2,500.2-144.2,499.7-144.2z"/>
<path class="st7" d="M-139.8,352.9c0-55.8-45.4-101.2-101.2-101.2s-101.2,45.4-101.2,101.2s45.4,101.2,101.2,101.2
	S-139.8,408.7-139.8,352.9z"/>
<path class="st8" d="M-342.2,352.9c0,55.8,45.4,101.2,101.2,101.2V251.6C-296.8,251.6-342.2,297.1-342.2,352.9z"/>
<path class="st9" d="M-204.2,311.2l-68.6,68.6l-19.8-19.8c-3.1-3.1-8.1-3.1-11.2,0s-3.1,8.1,0,11.2l25.4,25.4
	c1.6,1.6,3.6,2.3,5.6,2.3s4.1-0.8,5.6-2.3l74.2-74.2c3.1-3.1,3.1-8.1,0-11.2S-201.1,308.1-204.2,311.2z"/>
<path class="st5" d="M468.1,20c0.3,0,0.8-0.1,1.1-0.2c1-0.4,1.6-1.4,1.6-2.5v-85.8c0-0.8-0.3-1.4-0.8-1.9l-0.4-0.4
	c-0.5-0.5-1.2-0.8-2-0.8s-1.4,0.2-2,0.8l-44.4,43.3c-0.5,0.5-0.8,1.2-0.8,1.9c0,0.8,0.3,1.4,0.9,1.9l44.8,42.9
	C466.7,19.8,467.3,20,468.1,20z"/>
<path class="st10" d="M371.7,90.4c0-27.2,10.8-51.9,28.5-70.1l70.7,70v101.3C415.8,190,371.7,145.3,371.7,90.4z"/>
<path class="st11" d="M471,90.4V-10.8c1,0,1.9,0,2.9,0c56.5,0,102.2,45.3,102.2,101.2s-45.8,101.2-102.2,101.2c-1,0-2,0-3,0V90.3
	L471,90.4z"/>
<path class="st6" d="M527.1,103.4c-4.4,0-8.1,3.6-8.1,8c0,9.6-7.9,17.5-17.7,17.5c-4.4,0-8,3.6-8,8s3.6,8,8,8
	c18.6,0,33.7-15,33.7-33.4C535.1,106.9,531.5,103.4,527.1,103.4z"/>
<path class="st1" d="M475.6,96L475.6,96c3.2-3.1,3.2-8.3,0-11.4l-52.7-52.2c-3.2-3.1-8.3-3.1-11.5,0l0,0c-3.2,3.1-3.2,8.3,0,11.4
	L464.1,96C467.3,99.1,472.5,99.1,475.6,96z"/>
<path class="st1" d="M469.9,98.5L469.9,98.5c-4.4,0-8.1-3.6-8.1-8.1V45.6c0-4.4,3.6-8.1,8.1-8.1l0,0c4.4,0,8.1,3.6,8.1,8.1v44.8
	C478,94.9,474.3,98.5,469.9,98.5z"/>
<path class="st5" d="M572.1,90.4c0-55.1-45.8-99.9-102.1-99.9h-5.2v-31.1h5.2c73.8,0,133.8,58.8,133.8,131
	c0,71.9-59.5,130.5-132.9,131v-31.1C526.8,189.8,572.1,145.2,572.1,90.4z"/>
<path class="st5" d="M417.2,210.9l-7.2-3l24.2-23.8l3.1,1c10.7,3.5,21.6,5.2,32.7,5.2c0.3,0,0.6,0,1,0v31.1c-0.3,0-0.6,0-1,0
	C451.7,221.5,433.9,217.9,417.2,210.9z"/>
<path class="st10" d="M534.1,195.8v80.6l0,0c2.1,0,4.1-0.8,5.6-2.3l80.6-80.6c1.5-1.5,2.3-3.5,2.3-5.6l0,0H542
	C537.7,187.8,534.1,191.4,534.1,195.8z"/>
</svg>
