<?xml version="1.0" encoding="utf-8"?>
<!-- Generator: Adobe Illustrator 19.0.0, SVG Export Plug-In . SVG Version: 6.00 Build 0)  -->
<svg version="1.1" id="Layer_1" xmlns="http://www.w3.org/2000/svg" xmlns:xlink="http://www.w3.org/1999/xlink" x="0px" y="0px"
	 viewBox="206 -206 512 512" style="enable-background:new 206 -206 512 512;" xml:space="preserve">
<style type="text/css">
	.st0{fill:#687F82;}
	.st1{fill:#365558;}
	.st2{fill:#E6EAEA;}
	.st3{fill:#9BAAAB;}
	.st4{fill:#FF8C29;}
	.st5{fill:#F0353D;}
	.st6{fill:#FFFFFF;}
	.st7{fill:#0295AA;}
	.st8{fill:#CDD4D5;}
</style>
<path class="st0" d="M640.1-163.6H283.9c-4.4,0-8,3.6-8,7.9V298c0,4.4,3.6,8,8,8h356.2c4.4,0,8-3.6,8-8v-453.6
	C648-160,644.5-163.6,640.1-163.6z"/>
<path class="st1" d="M283.9-163.6c-4.4,0-8,3.6-8,7.9V298c0,4.4,3.6,8,8,8H462v-469.6H283.9z"/>
<path class="st2" d="M606.2-129.7H317.9c-4.4,0-7.9,3.6-7.9,8v390.1c0,4.4,3.6,8,7.9,8h207.8c2.1,0,4.1-0.8,5.6-2.3l80.6-80.6
	c1.5-1.5,2.3-3.5,2.3-5.6v-309.6C614.1-126.1,610.6-129.7,606.2-129.7z"/>
<path class="st3" d="M525.6,195.8v80.6l0,0c2.1,0,4.1-0.8,5.6-2.3l80.6-80.6c1.5-1.5,2.3-3.5,2.3-5.6l0,0h-80.6
	C529.2,187.8,525.6,191.4,525.6,195.8z"/>
<path class="st4" d="M546.8-163.6h-28.3c-7.2-24.9-30-42.4-56.5-42.4s-49.3,17.5-56.5,42.4h-28.3c-4.4,0-8,3.6-8,7.9V-92
	c0,4.4,3.6,7.9,8,7.9h169.6c4.4,0,8-3.6,8-7.9v-63.6C554.8-160,551.2-163.6,546.8-163.6z"/>
<path class="st5" d="M405.5-163.6h-28.3c-4.4,0-8,3.6-8,7.9V-92c0,4.4,3.6,7.9,8,7.9H462V-206C435.5-206,412.7-188.5,405.5-163.6z"
	/>
<path class="st6" d="M491.2-144.2c-3.8,0-7.2-2.8-7.8-6.6c-1.8-10.5-10.8-18.1-21.4-18.1c-4.4,0-8-3.6-8-8s3.6-8,8-8
	c18.4,0,34,13.2,37.1,31.3c0.7,4.3-2.2,8.4-6.5,9.2C492.1-144.2,491.7-144.2,491.2-144.2z"/>
<path class="st7" d="M359,89c0-55.1,45.3-99.9,101-99.9h5.2V-42H460c-73,0-132.4,58.8-132.4,131c0,71.9,58.9,130.5,131.4,131v-31.1
	C403.8,188.3,359,143.7,359,89z"/>
<path class="st7" d="M511.2,209.4l7.1-3l-23.9-23.8l-3,1c-10.5,3.5-21.4,5.2-32.3,5.2c-0.3,0-0.6,0-0.9,0V220c0.3,0,0.6,0,0.9,0
	C477.2,220,494.7,216.4,511.2,209.4z"/>
<path class="st7" d="M465.7,19.5c-0.3,0-0.8-0.1-1.1-0.2c-1-0.4-1.6-1.4-1.6-2.5V-69c0-0.8,0.3-1.4,0.8-1.9l0.4-0.4
	c0.5-0.5,1.2-0.8,1.9-0.8s1.4,0.2,1.9,0.8L511.9-28c0.5,0.5,0.8,1.2,0.8,1.9c0,0.8-0.3,1.4-0.9,1.9l-44.3,42.9
	C467.1,19.3,466.4,19.5,465.7,19.5z"/>
<g>
	<path class="st8" d="M561,88.8c0-27.2-10.7-51.9-28.2-70.1l-70,70V190C517.3,188.4,561,143.7,561,88.8z"/>
	<path class="st3" d="M462.7,88.8V-12.4c-1,0-1.9,0-2.9,0c-55.9,0-101.2,45.3-101.2,101.2S403.9,190,459.8,190c1,0,2,0,3,0
		L462.7,88.8L462.7,88.8z"/>
	<path class="st6" d="M406.2,101.8c4.4,0,8,3.6,8,8c0,9.6,7.8,17.5,17.5,17.5c4.4,0,7.9,3.6,7.9,8s-3.6,8-7.9,8
		c-18.4,0-33.4-15-33.4-33.4C398.3,105.3,401.8,101.8,406.2,101.8z"/>
	<path class="st1" d="M457.2,94.4L457.2,94.4c-3.1-3.1-3.1-8.3,0-11.4l52.2-52.2c3.1-3.1,8.3-3.1,11.4,0v0c3.1,3.1,3.1,8.3,0,11.4
		l-52.2,52.2C465.4,97.5,460.3,97.5,457.2,94.4z"/>
	<path class="st1" d="M462.9,96.8L462.9,96.8c-4.4,0-8.1-3.6-8.1-8.1V44c0-4.4,3.6-8.1,8.1-8.1l0,0c4.4,0,8.1,3.6,8.1,8.1v44.8
		C470.9,93.2,467.3,96.8,462.9,96.8z"/>
</g>
</svg>
