<?xml version="1.0" encoding="utf-8"?>
<!-- Generator: Adobe Illustrator 19.0.0, SVG Export Plug-In . SVG Version: 6.00 Build 0)  -->
<svg version="1.1" id="Layer_1" xmlns="http://www.w3.org/2000/svg" xmlns:xlink="http://www.w3.org/1999/xlink" x="0px" y="0px"
	 viewBox="96 11 512 512" style="enable-background:new 96 11 512 512;" xml:space="preserve">
<style type="text/css">
	.st0{fill:#0295AA;}
	.st1{fill:#365558;}
	.st2{fill:#E6EAEA;}
	.st3{fill:#4ACFD9;}
	.st4{fill:#FF8C29;}
	.st5{fill:#FD6A33;}
	.st6{fill:#687F82;}
	.st7{fill:#FFD1A9;}
	.st8{fill:#9BAAAB;}
	.st9{fill:#CDD4D5;}
	.st10{fill:#FFFFFF;}
	.st11{fill:#E34C40;}
</style>
<path class="st0" d="M262.9,125c-28.7,24.9-48.6,59-61.6,97c-17.5,51.2-57.8,78.6-57.8,114.3c0,28.5,13.2,80.4,70.4,80.4H352V95
	h-34.9C317,95,289.8,101.6,262.9,125z"/>
<path class="st1" d="M322.5,68.1c-5.6,0-10.1,4.1-10.1,9.1V86c0,5,4.6,9.1,10.1,9.1h29.4v-27H322.5z"/>
<path class="st0" d="M381.3,68.1c5.6,0,10.1,4.1,10.1,9.1V86c0,5-4.6,9.1-10.1,9.1h-29.4v-27H381.3z"/>
<path class="st0" d="M313.4,12.1c-14.5-2.4-26.9,0.9-25.2,14.2c1.9,15.1,20,19.6,26.7,29.1c4.7,6.6,7.3,12.7,18.8,12.7h18.2
	c0,0,0-45.9,0-52.4C338.3,15.7,325.7,14.1,313.4,12.1z"/>
<path class="st2" d="M183.2,321.9c1.3,1.7,1.9,3.9,1.8,6.6c-0.9,13.8,2.7,27.3,9.9,37c2.4,3.2,2.4,8.4,0,11.6s-6.2,3.2-8.6,0
	c-9.8-13.2-14.7-31.5-13.4-50c0.3-4.5,3.3-7.8,6.7-7.4C180.8,319.7,182.2,320.6,183.2,321.9z"/>
<path class="st3" d="M386.9,95H352v321.7h138.1c57.2,0,70.4-51.9,70.4-80.4c0-35.7-40.3-63.1-57.8-114.3c-13-38-32.9-72.1-61.6-97
	C414.2,101.6,387,95,386.9,95z"/>
<path class="st3" d="M352.1,15.7c0,6.5,0,52.4,0,52.4h18.2c11.5,0,14.1-6.1,18.8-12.7c6.7-9.5,24.8-14,26.7-29.1
	c1.7-13.3-10.7-16.6-25.2-14.2C378.3,14.1,365.7,15.7,352.1,15.7z"/>
<path class="st2" d="M524.4,319.7c3.4-0.4,6.4,2.9,6.7,7.4c1.3,18.5-3.6,36.8-13.4,50c-2.4,3.2-6.2,3.2-8.6,0s-2.4-8.4,0-11.6
	c7.2-9.7,10.8-23.2,9.9-37c-0.1-2.7,0.5-4.9,1.8-6.6C521.8,320.6,523.2,319.7,524.4,319.7z"/>
<g>
	<g>
		<path class="st4" d="M432.7,495.5h-75.2v27.2h75.2c1.5,0,2.7-1.2,2.7-2.7v-21.8C435.4,496.7,434.2,495.5,432.7,495.5z"/>
		<rect x="337.3" y="495.5" class="st5" width="20.3" height="27.2"/>
		<path class="st5" d="M282.4,495.5c-1.5,0-2.7,1.2-2.7,2.7V520c0,1.5,1.2,2.7,2.7,2.7h54.9v-27.2H282.4L282.4,495.5z"/>
	</g>
	<rect x="403.4" y="504.8" class="st6" width="10" height="17.9"/>
	<rect x="421.4" y="504.8" class="st6" width="6.7" height="17.9"/>
	<rect x="378.4" y="504.8" class="st6" width="13.4" height="17.9"/>
	<rect x="301.3" y="504.8" class="st1" width="10" height="17.9"/>
	<rect x="286.7" y="504.8" class="st1" width="6.7" height="17.9"/>
	<rect x="323" y="504.8" class="st1" width="13.4" height="17.9"/>
	<rect x="357.6" y="504.8" class="st6" width="6.9" height="17.9"/>
	<rect x="351.1" y="504.8" class="st1" width="6.5" height="17.9"/>
	<g>
		<path class="st4" d="M423.3,461.3h-75.2v27.2h75.2c1.5,0,2.7-1.2,2.7-2.7V464C426,462.6,424.9,461.3,423.3,461.3z"/>
		<rect x="337.3" y="461.3" class="st5" width="11" height="27.2"/>
		<path class="st5" d="M273.1,461.3c-1.5,0-2.7,1.2-2.7,2.7v21.8c0,1.5,1.2,2.7,2.7,2.7h64.2v-27.1L273.1,461.3L273.1,461.3z"/>
	</g>
	<rect x="394" y="470.7" class="st6" width="10" height="17.9"/>
	<rect x="412" y="470.7" class="st6" width="6.7" height="17.9"/>
	<rect x="368.9" y="470.7" class="st6" width="13.4" height="17.9"/>
	<rect x="291.9" y="470.7" class="st1" width="10" height="17.9"/>
	<rect x="277.3" y="470.7" class="st1" width="6.7" height="17.9"/>
	<rect x="313.7" y="470.7" class="st1" width="13.4" height="17.9"/>
	<rect x="348.3" y="470.7" class="st6" width="6.9" height="17.9"/>
	<rect x="341.8" y="470.7" class="st1" width="6.5" height="17.9"/>
	<g>
		<path class="st4" d="M429.5,427.2h-75.2v27.2h75.2c1.5,0,2.7-1.2,2.7-2.7v-21.8C432.2,428.4,431,427.2,429.5,427.2z"/>
		<rect x="337.3" y="427.2" class="st5" width="17.1" height="27.2"/>
		<path class="st5" d="M279.2,427.2c-1.5,0-2.7,1.2-2.7,2.7v21.8c0,1.5,1.2,2.7,2.7,2.7h58.1v-27.2H279.2L279.2,427.2z"/>
	</g>
	<rect x="400.2" y="436.7" class="st6" width="10" height="17.9"/>
	<rect x="418.1" y="436.7" class="st6" width="6.7" height="17.9"/>
	<rect x="375.1" y="436.7" class="st6" width="13.4" height="17.9"/>
	<rect x="298.1" y="436.7" class="st1" width="10" height="17.9"/>
	<rect x="283.4" y="436.7" class="st1" width="6.7" height="17.9"/>
	<rect x="319.8" y="436.7" class="st1" width="13.4" height="17.9"/>
	<rect x="354.4" y="436.7" class="st6" width="6.9" height="17.9"/>
	<rect x="347.9" y="436.7" class="st1" width="6.5" height="17.9"/>
</g>
<g>
	<g>
		<path class="st4" d="M258.3,495.1h-75.2v27.2h75.2c1.5,0,2.7-1.2,2.7-2.7v-21.8C261,496.2,259.8,495.1,258.3,495.1z"/>
		<rect x="162.9" y="495.1" class="st5" width="20.3" height="27.2"/>
		<path class="st5" d="M108,495.1c-1.5,0-2.7,1.2-2.7,2.7v21.8c0,1.5,1.2,2.7,2.7,2.7h54.9v-27.2L108,495.1L108,495.1z"/>
	</g>
	<rect x="229" y="504.4" class="st6" width="10" height="17.9"/>
	<rect x="247" y="504.4" class="st6" width="6.7" height="17.9"/>
	<rect x="204" y="504.4" class="st6" width="13.4" height="17.9"/>
	<rect x="126.9" y="504.4" class="st1" width="10" height="17.9"/>
	<rect x="112.3" y="504.4" class="st1" width="6.7" height="17.9"/>
	<rect x="148.6" y="504.4" class="st1" width="13.4" height="17.9"/>
	<rect x="183.2" y="504.4" class="st6" width="6.9" height="17.9"/>
	<rect x="176.7" y="504.4" class="st1" width="6.5" height="17.9"/>
	<g>
		<path class="st4" d="M248.9,460.9h-75.2v27.2h75.2c1.5,0,2.7-1.2,2.7-2.7v-21.8C251.6,462.1,250.5,460.9,248.9,460.9z"/>
		<rect x="162.9" y="460.9" class="st5" width="11" height="27.2"/>
		<path class="st5" d="M98.7,460.9c-1.5,0-2.7,1.2-2.7,2.7v21.8c0,1.5,1.2,2.7,2.7,2.7h64.2v-27.2H98.7L98.7,460.9z"/>
	</g>
	<rect x="219.6" y="470.3" class="st6" width="10" height="17.9"/>
	<rect x="237.6" y="470.3" class="st6" width="6.7" height="17.9"/>
	<rect x="194.6" y="470.3" class="st6" width="13.4" height="17.9"/>
	<rect x="117.6" y="470.3" class="st1" width="10" height="17.9"/>
	<rect x="102.9" y="470.3" class="st1" width="6.7" height="17.9"/>
	<rect x="139.3" y="470.3" class="st1" width="13.4" height="17.9"/>
	<rect x="173.9" y="470.3" class="st6" width="6.9" height="17.9"/>
	<rect x="167.4" y="470.3" class="st1" width="6.5" height="17.9"/>
	<g>
		<path class="st7" d="M159.7,419.2"/>
		<path class="st4" d="M255.1,426.8H180V454h75.2c1.5,0,2.7-1.2,2.7-2.7v-21.8C257.8,428,256.6,426.8,255.1,426.8z"/>
		<rect x="162.9" y="426.8" class="st5" width="17.1" height="27.2"/>
		<path class="st5" d="M104.8,426.8c-1.5,0-2.7,1.2-2.7,2.7v21.9c0,1.5,1.2,2.7,2.7,2.7h58.1v-27.2L104.8,426.8L104.8,426.8z"/>
	</g>
	<rect x="225.8" y="436.1" class="st6" width="10" height="17.9"/>
	<rect x="243.7" y="436.1" class="st6" width="6.7" height="17.9"/>
	<rect x="200.7" y="436.1" class="st6" width="13.4" height="17.9"/>
	<rect x="123.7" y="436.1" class="st1" width="10" height="17.9"/>
	<rect x="109" y="436.1" class="st1" width="6.7" height="17.9"/>
	<rect x="145.4" y="436.1" class="st1" width="13.4" height="17.9"/>
	<rect x="180" y="436.1" class="st6" width="6.9" height="17.9"/>
	<rect x="173.5" y="436.1" class="st1" width="6.5" height="17.9"/>
</g>
<g>
	<g>
		<path class="st4" d="M605.3,494.6h-75.2v27.2h75.2c1.5,0,2.7-1.2,2.7-2.7v-21.8C607.9,495.7,606.7,494.6,605.3,494.6z"/>
		<rect x="509.8" y="494.6" class="st5" width="20.3" height="27.2"/>
		<path class="st5" d="M455,494.6c-1.5,0-2.7,1.2-2.7,2.7v21.8c0,1.5,1.2,2.7,2.7,2.7h54.9v-27.2L455,494.6L455,494.6z"/>
	</g>
	<rect x="576" y="503.9" class="st6" width="10" height="17.9"/>
	<rect x="593.9" y="503.9" class="st6" width="6.7" height="17.9"/>
	<rect x="550.9" y="503.9" class="st6" width="13.4" height="17.9"/>
	<rect x="473.8" y="503.9" class="st1" width="10" height="17.9"/>
	<rect x="459.2" y="503.9" class="st1" width="6.7" height="17.9"/>
	<rect x="495.6" y="503.9" class="st1" width="13.4" height="17.9"/>
	<rect x="530.1" y="503.9" class="st6" width="6.9" height="17.9"/>
	<rect x="523.6" y="503.9" class="st1" width="6.5" height="17.9"/>
	<g>
		<path class="st4" d="M595.9,460.4h-75.2v27.2h75.2c1.5,0,2.7-1.2,2.7-2.7v-21.8C598.6,461.7,597.4,460.4,595.9,460.4z"/>
		<rect x="509.8" y="460.4" class="st5" width="11" height="27.2"/>
		<path class="st5" d="M445.7,460.4c-1.5,0-2.7,1.2-2.7,2.7v21.8c0,1.5,1.2,2.7,2.7,2.7h64.2v-27.2H445.7L445.7,460.4z"/>
	</g>
	<rect x="566.5" y="469.8" class="st6" width="10" height="17.9"/>
	<rect x="584.5" y="469.8" class="st6" width="6.7" height="17.9"/>
	<rect x="541.5" y="469.8" class="st6" width="13.4" height="17.9"/>
	<rect x="464.5" y="469.8" class="st1" width="10" height="17.9"/>
	<rect x="449.8" y="469.8" class="st1" width="6.7" height="17.9"/>
	<rect x="486.2" y="469.8" class="st1" width="13.4" height="17.9"/>
	<rect x="520.8" y="469.8" class="st6" width="6.9" height="17.9"/>
	<rect x="514.3" y="469.8" class="st1" width="6.5" height="17.9"/>
	<g>
		<path class="st7" d="M506.6,418.7"/>
		<path class="st4" d="M602.1,426.3h-75.2v27.2h75.2c1.5,0,2.7-1.2,2.7-2.7V429C604.7,427.5,603.5,426.3,602.1,426.3z"/>
		<rect x="509.8" y="426.3" class="st5" width="17.1" height="27.2"/>
		<path class="st5" d="M451.8,426.3c-1.5,0-2.7,1.2-2.7,2.7v21.8c0,1.5,1.2,2.7,2.7,2.7h58.1v-27.1L451.8,426.3L451.8,426.3z"/>
	</g>
	<rect x="572.8" y="435.6" class="st6" width="10" height="17.9"/>
	<rect x="590.6" y="435.6" class="st6" width="6.7" height="17.9"/>
	<rect x="547.6" y="435.6" class="st6" width="13.4" height="17.9"/>
	<rect x="470.6" y="435.6" class="st1" width="10" height="17.9"/>
	<rect x="455.9" y="435.6" class="st1" width="6.7" height="17.9"/>
	<rect x="492.4" y="435.6" class="st1" width="13.4" height="17.9"/>
	<rect x="526.9" y="435.6" class="st6" width="6.9" height="17.9"/>
	<rect x="520.4" y="435.6" class="st1" width="6.5" height="17.9"/>
</g>
<g>
	<path class="st5" d="M261.2,255.1c0,49.7,40.3,90,90,90v-180C301.5,165.1,261.2,205.3,261.2,255.1z"/>
	<path class="st4" d="M441.2,255.1c0-49.7-40.3-90-90-90v180.1C400.9,345.1,441.2,304.8,441.2,255.1z"/>
	<path class="st8" d="M294.9,255.1c0,31.1,25.2,56.3,56.3,56.3V198.7C320.1,198.7,294.9,224,294.9,255.1z"/>
	<path class="st9" d="M407.5,255.1c0-31.1-25.2-56.3-56.3-56.3v112.8C382.3,311.4,407.5,286.1,407.5,255.1z"/>
	<path class="st2" d="M306.1,255.1c0,24.9,20.2,45.1,45.1,45.1v-90.3C326.3,209.9,306.1,230.1,306.1,255.1z"/>
	<path class="st10" d="M396.3,255.1c0-24.9-20.2-45.1-45.1-45.1v90.3C376.1,300.2,396.3,280,396.3,255.1z"/>
	<path class="st7" d="M351.1,165.1V193c3.5,0,6.4-2.8,6.4-6.4v-20.9c0-0.2,0-0.3,0-0.4C355.4,165.2,353.2,165.1,351.1,165.1z"/>
	<path class="st4" d="M345.5,165.2c0,0.2,0,0.4,0,0.6v20.9c0,3.3,2.5,6.1,5.7,6.3v-27.9C349.3,165.1,347.4,165.1,345.5,165.2z"/>
	<path class="st5" d="M351.2,317.7v27.4c2.1,0,4.3-0.1,6.4-0.2v-20.8C357.6,320.6,354.8,317.7,351.2,317.7z"/>
	<path class="st7" d="M345.5,324.1v20.9c1.9,0.1,3.8,0.2,5.7,0.2v-27.4C347.9,318,345.5,320.7,345.5,324.1z"/>
	<path class="st7" d="M283.1,248.7h-20.8c-0.3,0-0.6,0-0.9,0.1c-0.1,2.1-0.2,4.2-0.2,6.3h28.3C289.5,251.6,286.7,248.7,283.1,248.7z
		"/>
	<path class="st4" d="M283.1,261.5c3.5,0,6.4-2.8,6.4-6.4h-28.3c0,2.1,0.1,4.3,0.2,6.3c0.3,0,0.6,0.1,0.9,0.1H283.1z"/>
	<path class="st5" d="M420.6,248.7c-3.5,0-6.4,2.8-6.4,6.4h27l0,0c0-2.1-0.1-4.3-0.2-6.4H420.6z"/>
	<path class="st7" d="M420.6,261.5H441c0.1-2.1,0.2-4.3,0.2-6.4h-27C414.2,258.5,417,261.5,420.6,261.5z"/>
	<path class="st7" d="M307.8,202l-14.7-14.7c-0.1-0.1-0.3-0.2-0.6-0.4c-1.6,1.3-3.1,2.8-4.6,4.3l19.9,19.9
		C310.2,208.5,310.2,204.4,307.8,202z"/>
	<path class="st4" d="M298.8,211c2.5,2.5,6.5,2.5,9,0l-19.9-19.9c-1.5,1.5-2.9,3-4.3,4.6c0.1,0.2,0.3,0.3,0.4,0.6L298.8,211z"/>
	<path class="st5" d="M395.9,299.2l19.3,19.3c1.5-1.5,2.9-3,4.3-4.7l-14.6-14.6C402.4,296.7,398.3,296.7,395.9,299.2z"/>
	<path class="st7" d="M395.9,308.1l14.6,14.6c1.6-1.3,3.1-2.8,4.6-4.4l-19.2-19.2C393.4,301.6,393.4,305.7,395.9,308.1z"/>
	<path class="st7" d="M298.6,298.9l-14.7,14.7c-0.2,0.2-0.3,0.3-0.4,0.6c1.3,1.6,2.8,3.1,4.3,4.6l19.9-19.9
		C305.1,296.5,301,296.5,298.6,298.9z"/>
	<path class="st4" d="M307.5,307.9c2.5-2.5,2.5-6.5,0-9l-19.9,19.9c1.5,1.5,3,2.9,4.6,4.3c0.2-0.1,0.3-0.2,0.6-0.4L307.5,307.9z"/>
	<path class="st5" d="M395.6,201.8c-2.5,2.5-2.5,6.5,0,9l19.3-19.3c-1.5-1.5-3-2.9-4.7-4.4L395.6,201.8z"/>
	<path class="st7" d="M395.6,210.7c2.5,2.5,6.5,2.5,9,0l14.6-14.6c-1.3-1.6-2.8-3.1-4.3-4.7L395.6,210.7z"/>
	<path class="st7" d="M331.4,189.2l-8-19.3c-0.1-0.1-0.1-0.3-0.2-0.4c-2,0.7-4,1.3-5.9,2.1l10.7,25.8
		C331.2,196.1,332.8,192.4,331.4,189.2z"/>
	<path class="st4" d="M319.7,194c1.3,3.3,5,4.8,8.3,3.5l-10.7-25.8c-1.9,0.8-3.9,1.7-5.8,2.6c0,0.2,0.1,0.3,0.2,0.6L319.7,194z"/>
	<path class="st5" d="M375.7,312.6l10.5,25.4c1.9-0.8,3.9-1.8,5.7-2.7l-8-19.2C382.6,312.9,378.9,311.3,375.7,312.6z"/>
	<path class="st7" d="M372.2,320.9l8,19.3l0,0c2-0.7,4-1.5,5.9-2.2l-10.5-25.4C372.4,314,371,317.7,372.2,320.9z"/>
	<path class="st7" d="M285.8,275.1l-19.3,8c-0.2,0.1-0.6,0.2-0.8,0.3c0.7,2,1.3,3.9,2.2,5.9l26.1-10.8
		C292.7,275.4,289,273.8,285.8,275.1z"/>
	<path class="st4" d="M290.7,286.9c3.3-1.3,4.8-5,3.5-8.3L268,289.4c0.8,1.9,1.7,3.8,2.6,5.7c0.2-0.1,0.6-0.1,0.8-0.2L290.7,286.9z"
		/>
	<path class="st5" d="M412.7,222.6c-3.3,1.3-4.8,5-3.5,8.3l25-10.4c-0.8-2-1.7-3.9-2.7-5.8L412.7,222.6z"/>
	<path class="st7" d="M409.3,230.9c1.3,3.3,5,4.8,8.3,3.5l19-7.9c-0.7-2-1.5-4-2.2-5.9L409.3,230.9z"/>
	<path class="st7" d="M290.7,222.6l-19.3-8c-0.2-0.1-0.3-0.1-0.6-0.2c-0.9,1.9-1.9,3.8-2.7,5.7l25.9,10.8
		C295.4,227.7,293.9,224,290.7,222.6z"/>
	<path class="st4" d="M285.8,234.4c3.3,1.3,7-0.2,8.3-3.5l-25.9-10.8c-0.8,1.9-1.6,3.9-2.2,5.9c0.2,0.1,0.3,0.2,0.6,0.3L285.8,234.4
		z"/>
	<path class="st5" d="M409.3,278.6l25.2,10.4c0.8-1.9,1.6-3.9,2.2-5.9l-19.2-8C414.4,273.8,410.7,275.4,409.3,278.6z"/>
	<path class="st7" d="M412.7,286.9l19.2,8c0.9-1.9,1.8-3.8,2.6-5.8l-25.2-10.4C408,281.9,409.6,285.6,412.7,286.9z"/>
	<path class="st7" d="M319.2,315.7l-8,19.3c-0.1,0.2-0.2,0.4-0.2,0.7c1.9,0.9,3.8,1.8,5.7,2.6l10.8-26
		C324.4,310.9,320.6,312.4,319.2,315.7z"/>
	<path class="st4" d="M331,320.6c1.3-3.3-0.2-7-3.5-8.3l-10.8,26c1.9,0.8,3.9,1.6,5.9,2.2c0.1-0.2,0.2-0.4,0.3-0.7L331,320.6z"/>
	<path class="st5" d="M371.8,188.7c-1.3,3.3,0.2,7,3.5,8.3l10.4-25.1c-1.9-0.8-3.9-1.6-5.9-2.2L371.8,188.7z"/>
	<path class="st7" d="M375.3,197c3.3,1.3,7-0.2,8.3-3.5l7.9-19.1c-1.9-0.9-3.8-1.8-5.8-2.7L375.3,197z"/>
	<g>
		<path id="XMLID_4_" class="st11" d="M345,263.6c1.1-0.3,8.3,0.8,9.2,1.5c3,2.1,7.4,3.3,9.2,1.1c1.8-2.1-0.1-5.9-2.9-8.8
			c-0.8-0.9-3.6-7.5-3.4-8.6c0.4-3.7-0.8-8.2-3.6-8.6c-2.8-0.4-5.4,3.5-6.1,6.8c-0.2,1.1-4.8,6.8-5.9,7.3c-3.4,1.6-6.5,4.8-5.5,7.4
			C337.1,264.4,341.8,264.6,345,263.6z"/>
		<path id="XMLID_3_" class="st11" d="M357.5,225.1c4.5,0.2,6.4,9.3,5.6,16.5c-0.2,2.2,5,15.1,6.1,17.3c0.7,1.2,1.7,2.2,2.9,2.9
			c-3.5-9.3-3.7-16.8-3-18.5c2.9-8.1,1.7-19-2.7-21.4c-2.9-1.7-9.4-2.4-13.6,4.4C354.1,225.2,355.8,224.9,357.5,225.1z"/>
		<path id="XMLID_2_" class="st11" d="M321.5,264.2c-2.1-4,4.9-10.2,11.4-13.2c2.1-0.9,10.5-12,11.9-13.8c0.8-1.2,1.1-2.6,1.1-4
			c-6.4,7.6-12.7,11.6-14.5,11.9c-8.4,1.5-17.3,8.1-17.3,13.1c0,3.4,2.7,9.3,10.5,9.5C323.3,267,322,265.7,321.5,264.2z"/>
		<path id="XMLID_1_" class="st11" d="M373.5,276.6c-2.5,3.8-11.3,0.9-17.2-3.4c-1.9-1.3-15.7-3.3-18-3.4c-1.5-0.1-2.8,0.3-4,1.1
			c9.8,1.7,16.4,5.2,17.6,6.5c5.5,6.6,15.6,10.9,20,8.4c2.9-1.7,6.7-7,3-13.9C375.1,273.6,374.7,275.3,373.5,276.6z"/>
	</g>
</g>
</svg>
