<?xml version="1.0" encoding="utf-8"?>
<!-- Generator: Adobe Illustrator 19.0.0, SVG Export Plug-In . SVG Version: 6.00 Build 0)  -->
<svg version="1.1" id="Layer_1" xmlns="http://www.w3.org/2000/svg" xmlns:xlink="http://www.w3.org/1999/xlink" x="0px" y="0px"
	 viewBox="206 -206 512 512" style="enable-background:new 206 -206 512 512;" xml:space="preserve">
<style type="text/css">
	.st0{display:none;fill:#FD6A33;}
	.st1{fill:#FD6A33;}
	.st2{display:none;fill:#FF8C29;}
	.st3{fill:#FF8C29;}
	.st4{display:none;fill:#365558;}
	.st5{display:none;fill:#687F82;}
	.st6{fill:none;stroke:#365558;stroke-width:15;stroke-miterlimit:10;}
</style>
<path class="st0" d="M343.2,210.3L282.3,22.6c-0.5-1.7-0.8-3.5-0.8-5.4c-0.1,2.2,0.2,4.4,0.8,6.4l60.9,187.7
	c2.5,8,11.5,14.4,19.9,14.4H462v-1h-98.9C354.7,224.7,345.7,218.3,343.2,210.3z"/>
<path class="st1" d="M449.5-115.7L289.9,0.3c-5,3.7-8.2,10.4-8.4,16.9c0,1.8,0.3,3.7,0.8,5.4l60.9,187.7c2.5,8,11.5,14.4,19.9,14.4
	H462v-344.1C457.4-119.4,452.9-118.3,449.5-115.7z"/>
<path class="st2" d="M641.2,22.6l-60.9,187.7c-2.7,8-11.5,14.4-19.9,14.4H462v1h98.4c8.4,0,17.2-6.5,19.9-14.4l60.9-187.7
	c0.7-2,1-4.2,0.9-6.5C642.1,19,641.8,20.8,641.2,22.6z"/>
<path class="st3" d="M580.3,210.3l60.9-187.7c0.6-1.7,0.9-3.6,0.9-5.4c-0.2-6.4-3.4-13.2-8.4-16.8L474-115.7
	c-3.3-2.4-7.7-3.7-12-3.7v344.1h98.4C568.8,224.7,577.6,218.3,580.3,210.3z"/>
<path class="st4" d="M-161.6-157.9L-328.6-36.4c15.2,4.8,26.3,19,26.3,35.8c0,20.8-16.8,37.6-37.6,37.6c-4.3,0-8.5-0.8-12.4-2.2
	l62.1,190.9c6.8-9,17.6-14.7,29.8-14.7c20.8,0,37.6,16.8,37.6,37.6c0,10.9-4.7,20.8-12,27.6H-124v-396.7
	C-144.8-120.4-161.5-137.1-161.6-157.9z"/>
<path class="st5" d="M-140.2-173.5l-21.4,15.6c0,20.6,16.8,37.5,37.6,37.5v-57.9C-129.8-178.3-135.7-176.7-140.2-173.5z"/>
<path class="st5" d="M-302.3-0.6c0-16.8-11-31-26.3-35.8l-21.7,15.7c-8.9,6.5-13.4,20.3-10,30.8l8.1,24.8c3.9,1.4,8,2.2,12.4,2.2
	C-319.2,36.9-302.3,20.1-302.3-0.6z"/>
<path class="st5" d="M-222.9,248.6c0-20.8-16.8-37.6-37.6-37.6c-12.2,0-22.9,5.8-29.8,14.7l10.3,31.5c3.4,10.5,15.1,19,26.1,19h19
	C-227.6,269.3-222.9,259.5-222.9,248.6z"/>
<path class="st5" d="M92,39.4c-20.8,0-37.6-16.8-37.6-37.6c0-17.7,12.3-32.6,28.8-36.5L-86.5-157.9c0,20.6-16.8,37.5-37.6,37.5
	v396.6h103.5c-5.6-6.6-9-15.1-9-24.4c0-20.8,16.8-37.6,37.6-37.6c13.6,0,25.6,7.2,32.2,18.1l63.2-194.6C99.8,38.8,96,39.4,92,39.4z"
	/>
<path class="st4" d="M-86.4-157.9l-21.4-15.6c-4.4-3.3-10.3-4.8-16.2-4.8v57.9C-103.2-120.4-86.5-137.1-86.4-157.9z"/>
<path class="st4" d="M102.3-20.7L83.1-34.7C66.6-30.7,54.3-15.8,54.3,1.8c0,20.8,16.8,37.6,37.6,37.6c3.9,0,7.7-0.6,11.4-1.8l9-27.6
	C115.8-0.5,111.3-14.3,102.3-20.7z"/>
<path class="st4" d="M8,214.1c-20.8,0-37.6,16.8-37.6,37.6c0,9.4,3.4,17.9,9,24.4H5.8c11,0,22.7-8.5,26.1-19l8.1-25
	C33.6,221.3,21.7,214.1,8,214.1z"/>
<path class="st6" d="M691.2-22.5L476.3-178.6c-9.1-6.6-23.9-6.6-32.9,0L228.5-22.5c-9.1,6.6-13.7,20.7-10.2,31.3l82.1,252.6
	c3.5,10.7,15.4,19.4,26.7,19.4h265.6c11.2,0,23.2-8.7,26.7-19.4L701.4,8.8C704.9-1.9,700.3-15.9,691.2-22.5z M641.2,22.6
	l-60.9,187.7c-2.7,8-11.5,14.4-19.9,14.4H462h-98.9c-8.4,0-17.4-6.5-19.9-14.4L282.3,22.6c-2.5-8,0.9-18.4,7.6-23.3l159.6-116
	c3.4-2.5,8-3.7,12.5-3.7c4.3,0,8.7,1.3,12,3.7l159.7,116C640.5,4.2,643.9,14.7,641.2,22.6z"/>
<path class="st0" d="M-296.1-0.7c-6.7,4.9-10.1,15.3-7.6,23.3l60.9,187.7c2.5,8,11.5,14.4,19.9,14.4h98.9v-345.2
	c-4.6,0-9.1,1.1-12.5,3.7L-296.1-0.7z"/>
<path class="st2" d="M47.7-0.7l-159.7-116c-3.3-2.4-7.7-3.7-12-3.7v345.2h98.4c8.4,0,17.2-6.5,19.9-14.4L55.2,22.6
	C57.9,14.7,54.5,4.2,47.7-0.7z"/>
</svg>
