<?xml version="1.0" encoding="utf-8"?>
<!-- Generator: Adobe Illustrator 19.0.0, SVG Export Plug-In . SVG Version: 6.00 Build 0)  -->
<svg version="1.1" id="Layer_1" xmlns="http://www.w3.org/2000/svg" xmlns:xlink="http://www.w3.org/1999/xlink" x="0px" y="0px"
	 viewBox="206 -206 512 512" style="enable-background:new 206 -206 512 512;" xml:space="preserve">
<style type="text/css">
	.st0{fill:#4ACFD9;}
	.st1{fill:#0295AA;}
	.st2{fill:#365558;}
	.st3{fill:#687F82;}
	.st4{fill:#FF8C29;}
	.st5{fill:#FD6A33;}
	.st6{fill:#FFD1A9;}
	.st7{fill:#E6EAEA;}
	.st8{fill:#CDD4D5;}
	.st9{fill:#F0353D;}
</style>
<path class="st0" d="M406.3-146h-49.8V77.4L387.3,24c-8.4-21.1-12.8-43.8-12.8-67.2C374.6-80.5,385.7-116,406.3-146z"/>
<path class="st1" d="M356.5-146H223.9c-9.8,0-17.9,8-17.9,17.9v265.3c0,9.8,8,17.9,17.9,17.9h87.8l44.8-77.6V-146z"/>
<path class="st2" d="M356.5-100.9h-95c-5.7,0-10.3,4.6-10.3,10.3V99.5c0,5.7,4.6,10.3,10.3,10.3h76.3l18.7-32.4V-100.9z"/>
<path class="st3" d="M383.8-100.9h-27.2V77.2L387.3,24c-8.4-21.1-12.8-43.8-12.8-67.2C374.6-63.1,377.7-82.5,383.8-100.9z"/>
<path class="st4" d="M556.2-205.1V50.3l36.8,63.8c71.6-16.6,125-80.8,125-157.5C718-132.7,645.6-205.1,556.2-205.1z"/>
<path class="st5" d="M394.6-43.3c0,15.3,2.1,30.2,6.1,44.2l31.2-54c7.1-12.2,17.7-19.6,29.5-20.6h2.8c12.8,0,24.6,7.5,32.3,20.4
	l59.9,103.9V-205C467-205.1,394.6-132.7,394.6-43.3z"/>
<path class="st4" d="M456.9-73.1c1.5-0.3,3-0.6,4.5-0.7h2.8c12.8,0,24.6,7.5,32.3,20.4l59.8,103.6V-147
	C509.3-147,469.7-115.8,456.9-73.1z"/>
<path class="st6" d="M556.2-147V50.3l5.7,9.8c54.7-2.9,98-48.2,98-103.5C659.8-100.5,613.4-147,556.2-147z"/>
<path class="st7" d="M479.2-43.2c-4.1-6.9-9.4-10.6-15.1-10.6v346.2h178.6c8,0,13.9-2.7,16.7-7.7c2.9-4.9,2.3-11.5-1.8-18.4
	L479.2-43.2z"/>
<path class="st8" d="M449.2-43.2L270.6,266.1c-4.1,6.9-4.7,13.5-1.8,18.4c2.9,4.9,8.8,7.7,16.7,7.7h178.6V-54
	C458.4-54,453.1-50.1,449.2-43.2z"/>
<path class="st5" d="M472.7,59.5c-2.2-3.7-5-5.7-8.2-5.7v187.6h96.8c4.3,0,7.5-1.4,9.1-4.2c1.6-2.7,1.3-6.2-0.8-9.9L472.7,59.5z"/>
<path class="st9" d="M456.3,59.8l-96.8,167.7c-2.2,3.7-2.5,7.3-0.8,9.9c1.6,2.7,4.8,4.2,9.1,4.2h96.8V53.9
	C461.3,53.9,458.4,55.9,456.3,59.8z"/>
<path class="st0" d="M-210.9-215h-132.6V85.9h132.6c9.8,0,17.9-8,17.9-17.9v-265.3C-193-207-201-215-210.9-215z"/>
<path class="st1" d="M-476.1-215c-9.8,0-17.9,8-17.9,17.9V68.1c0,9.8,8,17.9,17.9,17.9h132.6v-301H-476.1z"/>
<path class="st4" d="M-143.8-162.1v323.4C-54.4,161.5,18,89.1,18-0.3S-54.4-162.1-143.8-162.1z"/>
<path class="st5" d="M-305.4-0.3c0,89.4,72.4,161.8,161.8,161.8v-323.4C-233-162.1-305.4-89.7-305.4-0.3z"/>
<path class="st2" d="M-438.5-169.9c-5.7,0-10.3,4.6-10.3,10.3V30.5c0,5.7,4.6,10.3,10.3,10.3h95v-210.6H-438.5z"/>
<path class="st3" d="M-238.1,30.5v-190.1c0-5.7-4.6-10.3-10.3-10.3h-95V40.8h95C-242.7,40.8-238.1,36.1-238.1,30.5z"/>
<path class="st4" d="M-143.8-103.9c-57.2,0-103.6,46.4-103.6,103.6s46.4,103.6,103.6,103.6l0,0V-103.9L-143.8-103.9z"/>
<path class="st6" d="M-40.2-0.3c0-57.2-46.4-103.6-103.6-103.6v207.2C-86.5,103.4-40.2,56.9-40.2-0.3z"/>
<path class="st7" d="M-220.8-52.2c-4.1-6.9-9.4-10.6-15.1-10.6v346.2h178.6c8,0,13.9-2.7,16.7-7.7c2.9-4.9,2.3-11.5-1.8-18.4
	L-220.8-52.2z"/>
<path class="st8" d="M-250.8-52.2l-178.6,309.3c-4.1,6.9-4.7,13.5-1.8,18.4c2.9,4.9,8.8,7.7,16.7,7.7h178.6V-63
	C-241.6-63-246.9-59.1-250.8-52.2z"/>
<path class="st5" d="M-227.3,50.5c-2.2-3.7-5-5.7-8.2-5.7v187.6h96.8c4.3,0,7.5-1.4,9.1-4.2c1.6-2.7,1.3-6.2-0.8-9.9L-227.3,50.5z"
	/>
<path class="st9" d="M-243.7,50.8l-96.8,167.7c-2.2,3.7-2.5,7.3-0.8,9.9c1.6,2.7,4.8,4.2,9.1,4.2h96.8V44.9
	C-238.7,44.9-241.6,46.9-243.7,50.8z"/>
</svg>
