<?xml version="1.0" encoding="utf-8"?>
<!-- Generator: Adobe Illustrator 19.0.0, SVG Export Plug-In . SVG Version: 6.00 Build 0)  -->
<svg version="1.1" id="Layer_1" xmlns="http://www.w3.org/2000/svg" xmlns:xlink="http://www.w3.org/1999/xlink" x="0px" y="0px"
	 viewBox="96 11 512 512" style="enable-background:new 96 11 512 512;" xml:space="preserve">
<style type="text/css">
	.st0{fill:#9BAAAB;}
	.st1{fill:#CDD4D5;}
	.st2{fill:#E6EAEA;}
	.st3{fill:#FFFFFF;}
	.st4{fill:#0295AA;}
	.st5{fill:#365558;}
	.st6{fill:#4ACFD9;}
	.st7{fill:#FF8C29;}
	.st8{fill:#FD6A33;}
	.st9{fill:#BCD643;}
</style>
<rect x="103.3" y="553.2" class="st0" width="128" height="128"/>
<rect x="231.3" y="553.2" class="st1" width="128" height="128"/>
<rect x="359.3" y="553.2" class="st2" width="128" height="128"/>
<rect x="487.3" y="553.2" class="st3" width="128" height="128"/>
<circle class="st4" cx="857" cy="482" r="41"/>
<ellipse class="st4" cx="979.5" cy="423" rx="72.5" ry="49"/>
<ellipse class="st4" cx="1072" cy="185" rx="256" ry="174"/>
<g>
	<g>
		<path class="st5" d="M-568,456c14.3,0,26,11.7,26,26s-11.7,26-26,26s-26-11.7-26-26S-582.3,456-568,456 M-568,441
			c-22.6,0-41,18.4-41,41s18.4,41,41,41s41-18.4,41-41S-545.4,441-568,441L-568,441z"/>
	</g>
</g>
<g>
	<g>
		<path class="st5" d="M-445.5,389c16.2,0,31.8,4.3,42.9,11.8c5.5,3.7,14.6,11.5,14.6,22.2s-9.2,18.5-14.6,22.2
			c-11.1,7.5-26.7,11.8-42.9,11.8s-31.8-4.3-42.9-11.8c-5.5-3.7-14.6-11.5-14.6-22.2s9.2-18.5,14.6-22.2
			C-477.3,393.3-461.7,389-445.5,389 M-445.5,374c-40,0-72.5,21.9-72.5,49s32.5,49,72.5,49s72.5-21.9,72.5-49S-405.5,374-445.5,374
			L-445.5,374z"/>
	</g>
</g>
<g>
	<g>
		<path class="st5" d="M-353,26c33.2,0,65.3,4.4,95.5,13.1c29,8.3,54.9,20.2,77.1,35.3c44.1,30,68.4,69.3,68.4,110.6
			s-24.3,80.6-68.4,110.6c-22.2,15.1-48.1,27-77.1,35.3c-30.2,8.7-62.3,13.1-95.5,13.1s-65.3-4.4-95.5-13.1
			c-29-8.3-54.9-20.2-77.1-35.3c-44.1-30-68.4-69.3-68.4-110.6s24.3-80.6,68.4-110.6c22.2-15.1,48.1-27,77.1-35.3
			C-418.3,30.4-386.2,26-353,26 M-353,11c-141.4,0-256,77.9-256,174s114.6,174,256,174s256-77.9,256-174S-211.6,11-353,11L-353,11z"
			/>
	</g>
</g>
<path class="st1" d="M295.1,15.3C283.2,12.5,270.8,11,258,11C168.7,11,96,83.6,96,173c0,2.2,0.1,4.4,0.1,6.6
	C99.7,99.2,183.6,32.5,295.1,15.3z"/>
<path class="st6" d="M125.6,266.3c16.9,23.9,40.1,43.1,67.2,55C165.2,306.4,142.2,287.6,125.6,266.3z"/>
<path class="st6" d="M326.1,283.2v-47.6c0-28.1,22.9-51,51-51c16.1,0,30.5,7.5,39.9,19.3c1.9-10,3-20.3,3-30.9
	c-0.1-76.6-53.5-140.8-124.8-157.7C183.6,32.5,99.7,99.2,96.1,179.6c1.3,32.2,12,62,29.5,86.6c16.6,21.4,39.6,40.1,67.2,55
	c18.1,8,37.9,12.7,58.8,13.5C263.3,304.9,292.2,283.7,326.1,283.2z"/>
<path class="st2" d="M257.6,37.6c-0.5,0-0.8,0-1.2,0v272.9c0.5,0,0.8,0,1.2,0c3.1,0,6.1-0.1,9.1-0.3c14.7-16.3,35.8-26.7,59.4-27
	v-47.6c0-28.1,22.9-51,51-51c5.7,0,11.2,1,16.3,2.7c0.4-4.3,0.6-8.7,0.6-13.2C394,99,332.8,37.6,257.6,37.6z"/>
<path class="st1" d="M121.1,174.1c0,74.8,60.5,135.8,135.2,136.4V37.7C181.6,38.3,121.1,99.3,121.1,174.1z"/>
<path class="st7" d="M304.4,161.9c-4.7-2.9-11.3-4.8-19.5-6l-28.4-3.2v36.9l6.9,0.9c5.2,0.6,8.9,1.3,11,2c2,0.7,3.3,1.8,4.1,3.6
	c0.7,1.7,1,4.7,1,8.9c0,4.5-0.6,7.6-1.8,9.7c-1.2,2.1-3.9,3.6-8.2,4.4c-2.9,0.6-7.3,1-12.9,1.2v57.3h13.8v-23.1
	c16.1-0.8,28.2-4.8,36.3-12c8.1-7.1,12.1-20.1,12.1-39c-0.1-11.7-1.4-21-3.7-27.5C312.7,169.4,309.1,164.7,304.4,161.9z"/>
<path class="st7" d="M270.2,88.2V64.5h-13.8v57.8c1.7-0.1,3.5-0.1,5.5-0.1c13.1,0,29.2,0.9,48.1,2.8V93c-4.8-1-11.1-2-18.7-3
	C283.7,89,276.7,88.4,270.2,88.2z"/>
<path class="st8" d="M196,217.8v32c13.1,2.4,28,3.9,44.7,4.5v23.1h15.6v-57.2c-2.3,0-4.9,0-7.8,0C232.9,220.2,215.5,219.4,196,217.8
	z"/>
<path class="st8" d="M240.9,88.4c-16.4,1.2-28.8,5.3-37.2,12.3c-8.5,7-12.7,19-12.7,35.7c0,15,2.5,26.4,7.4,34.2
	c5,8,14.6,12.8,29.2,14.9l28.8,3.9v-36.9l-11-1.3c-5.1-0.6-8.5-1.3-10.5-2c-1.8-0.7-3.2-1.8-3.8-3.6c-0.6-1.7-0.9-4.7-0.9-8.9
	c0-4.5,0.9-7.6,2.9-9.7c1.8-2,5-3.3,9.1-3.9c3.2-0.5,8-0.8,14.2-0.8V64.7h-15.6L240.9,88.4z"/>
<path class="st2" d="M460.8,364.2v97.6c0,19.9-16.2,36.1-36.1,36.1h-48.8v25h48.8c33.8,0,61.1-27.4,61.1-61.1v-97.6
	c0-10.1-2.4-19.7-6.8-28.1c-7.8,3-15.9,5.8-24.2,8.3C458.6,350.1,460.8,356.9,460.8,364.2z"/>
<path class="st1" d="M424.7,303.1h-48.8v25h48.8c12.6,0,23.7,6.5,30.1,16.3c8.3-2.5,16.4-5.2,24.2-8.3
	C468.9,316.5,448.3,303.1,424.7,303.1z"/>
<path class="st0" d="M291,364.3c0-3.5,0.5-6.9,1.4-10c-8.4-1.4-16.6-3-24.6-4.9c-1.2,4.8-1.8,9.8-1.8,14.9v9.9
	c8.9,0.5,17.3,2.1,25,4.6V364.3z"/>
<path class="st1" d="M327.1,498c-18.2,0-33.2-13.5-35.7-31c-7.5,2.5-15.8,4.1-24.6,4.7c4.7,29.1,29.9,51.2,60.3,51.2h48.8v-25H327.1
	z"/>
<path class="st0" d="M291,461.9v-83c-7.7-2.5-16.1-4.1-25-4.6v87.7c0,3.4,0.3,6.6,0.8,9.9c8.7-0.6,17-2.2,24.6-4.7
	C291.1,465.3,291,463.6,291,461.9z"/>
<path class="st1" d="M327.1,328.2h48.8v-25h-48.8c-28.6,0-52.6,19.7-59.3,46.2c8,1.9,16.2,3.5,24.6,4.9
	C296.8,339.2,310.7,328.2,327.1,328.2z"/>
<path class="st1" d="M607.1,199.3c-1.1,9.5-3.4,18.8-6.7,27.9C607.2,219.5,609.4,208.9,607.1,199.3z"/>
<path class="st1" d="M355.1,385.2c-11.9,11.9-11.9,31.8,0,43.7c12.1,12.1,31.6,12.1,43.7,0l102.6-102.6
	c-34.3,16.8-74.8,27.9-118.9,31.5L355.1,385.2z"/>
<path class="st9" d="M600.4,227.2c3.3-9,5.6-18.3,6.7-27.9c-1.3-5.3-4-10.3-8-14.4c-11.9-11.9-31.8-11.9-43.7,0L382.5,357.8
	c44-3.6,84.6-14.7,118.9-31.5l97.7-97.7C599.5,228.1,600,227.7,600.4,227.2z"/>
<path class="st1" d="M346.1,358.9v48.3c0,17.1,14.1,31,31,31c16.9,0,30.8-13.9,31-30.5v-52.9c-18.1,2.7-36.8,4.2-56.1,4.2
	C350,359,348.1,359,346.1,358.9z"/>
<path class="st9" d="M377.1,204.6c-17.1,0-31,14.1-31,31v123.3c2,0,3.9,0.1,5.9,0.1c19.3,0,38-1.5,56.1-4.2V235.6
	C408.1,218.5,394,204.6,377.1,204.6z"/>
<g>
	<g>
		<path class="st5" d="M137,456c14.3,0,26,11.7,26,26s-11.7,26-26,26s-26-11.7-26-26S122.7,456,137,456 M137,441
			c-22.6,0-41,18.4-41,41s18.4,41,41,41s41-18.4,41-41S159.6,441,137,441L137,441z"/>
	</g>
</g>
<g>
	<g>
		<path class="st5" d="M259.5,389c16.2,0,31.8,4.3,42.9,11.8c5.5,3.7,14.6,11.5,14.6,22.2s-9.2,18.5-14.6,22.2
			c-11.1,7.5-26.7,11.8-42.9,11.8s-31.8-4.3-42.9-11.8c-5.5-3.7-14.6-11.5-14.6-22.2s9.2-18.5,14.6-22.2
			C227.7,393.3,243.3,389,259.5,389 M259.5,374c-40,0-72.5,21.9-72.5,49s32.5,49,72.5,49s72.5-21.9,72.5-49S299.5,374,259.5,374
			L259.5,374z"/>
	</g>
</g>
<g>
	<g>
		<path class="st5" d="M352,26c33.2,0,65.3,4.4,95.5,13.1c29,8.3,54.9,20.2,77.1,35.3c44.1,30,68.4,69.3,68.4,110.6
			s-24.3,80.6-68.4,110.6c-22.2,15.1-48.1,27-77.1,35.3c-30.2,8.7-62.3,13.1-95.5,13.1s-65.3-4.4-95.5-13.1
			c-29-8.3-54.9-20.2-77.1-35.3c-44.1-30-68.4-69.3-68.4-110.6s24.3-80.6,68.4-110.6c22.2-15.1,48.1-27,77.1-35.3
			C286.7,30.4,318.8,26,352,26 M352,11C210.6,11,96,88.9,96,185s114.6,174,256,174s256-77.9,256-174S493.4,11,352,11L352,11z"/>
	</g>
</g>
</svg>
