<?xml version="1.0" encoding="utf-8"?>
<!-- Generator: Adobe Illustrator 19.0.0, SVG Export Plug-In . SVG Version: 6.00 Build 0)  -->
<svg version="1.1" id="Layer_1" xmlns="http://www.w3.org/2000/svg" xmlns:xlink="http://www.w3.org/1999/xlink" x="0px" y="0px"
	 viewBox="96 11 512 512" style="enable-background:new 96 11 512 512;" xml:space="preserve">
<style type="text/css">
	.st0{fill:#FFD1A9;}
	.st1{fill:#FF8C29;}
	.st2{fill:#FD6A33;}
	.st3{fill:#F0353D;}
	.st4{fill:#E6EAEA;}
	.st5{fill:#FFFFFF;}
	.st6{fill:#9BAAAB;}
	.st7{fill:#CDD4D5;}
</style>
<rect x="204.3" y="100.9" transform="matrix(-0.7071 0.7071 -0.7071 -0.7071 461.8539 30.444)" class="st0" width="40.6" height="20"/>
<rect x="185.9" y="119.4" transform="matrix(0.7071 0.7071 -0.7071 0.7071 156.1735 -97.6176)" class="st1" width="20" height="40.7"/>
<rect x="232.6" y="129.2" transform="matrix(-0.7071 0.7071 -0.7071 -0.7071 530.1531 58.7037)" class="st1" width="40.6" height="20"/>
<rect x="214.2" y="147.6" transform="matrix(0.7071 0.7071 -0.7071 0.7071 184.4331 -109.336)" class="st2" width="20" height="40.7"/>
<path class="st2" d="M259.7,174.7l41.9,41.8l21.3-21.3c4.1-4.1,4.1-10.8,0-14.8l-34.4-34.4L259.7,174.7z"/>
<path class="st3" d="M231.1,203.5l34.4,34.4c4.1,4.1,10.8,4.1,14.8,0l21.4-21.4l-41.8-41.8L231.1,203.5z"/>
<rect x="246.8" y="143.4" transform="matrix(-0.7071 0.7071 -0.7071 -0.7071 564.3528 72.954)" class="st1" width="40.6" height="20"/>
<rect x="228.3" y="161.7" transform="matrix(0.7071 0.7071 -0.7071 0.7071 198.5129 -115.2158)" class="st2" width="20" height="40.7"/>
<rect x="218.5" y="115.1" transform="matrix(-0.7071 0.7071 -0.7071 -0.7071 496.0534 44.6944)" class="st0" width="40.6" height="20"/>
<rect x="200.1" y="133.4" transform="matrix(0.7071 0.7071 -0.7071 0.7071 170.2533 -103.4975)" class="st1" width="20" height="40.7"/>
<rect x="174.3" y="68.4" transform="matrix(-0.7071 0.7071 -0.7071 -0.7071 389.381 0.4992)" class="st4" width="40.6" height="25"/>
<rect x="153.4" y="89.2" transform="matrix(0.7071 0.7071 -0.7071 0.7071 126.0581 -85.1954)" class="st5" width="25" height="40.7"/>
<rect x="190.2" y="86.8" transform="matrix(-0.7071 0.7071 -0.7071 -0.7071 427.7541 16.435)" class="st6" width="40.6" height="20"/>
<rect x="171.8" y="105.2" transform="matrix(0.7071 0.7071 -0.7071 0.7071 141.9937 -91.7792)" class="st7" width="20" height="40.7"/>
<path class="st6" d="M220.5,11.1l-99-0.1c-6.8,0-13.2,2.6-18,7.5l0,0l0,0L138,53l0,0l0,0c4.8-4.8,11.2-7.5,18-7.5l56.3,0.1l15.9-16
	c4.9-4.9,6.7-9.5,5.2-13C232,13,227.4,11.1,220.5,11.1z"/>
<path class="st7" d="M96,36.4v99.1c0,6.9,2,11.5,5.5,12.9c3.6,1.5,8.2-0.4,13-5.2l15.9-15.9V70.9c0-6.8,2.6-13.1,7.4-18l-34.5-34.5
	C98.7,23.3,96,29.6,96,36.4z"/>
<path class="st6" d="M212.3,45.5L156,45.4c-6.8,0-13.2,2.6-18,7.5l0,0l0,0l33.4,33.4L212.3,45.5z"/>
<path class="st7" d="M130.6,127.3l40.9-40.9L138.1,53c-4.8,4.8-7.5,11.2-7.4,18L130.6,127.3z"/>
<rect x="487.8" y="129.6" transform="matrix(-0.7071 -0.7071 0.7071 -0.7071 768.696 597.6479)" class="st0" width="40.6" height="20"/>
<rect x="469.3" y="90.6" transform="matrix(-0.7071 0.7071 -0.7071 -0.7071 896.6339 -149.5546)" class="st1" width="20" height="40.7"/>
<rect x="459.6" y="157.9" transform="matrix(-0.7071 -0.7071 0.7071 -0.7071 700.4185 625.9601)" class="st1" width="40.6" height="20"/>
<rect x="441" y="118.9" transform="matrix(-0.7071 0.7071 -0.7071 -0.7071 868.3961 -81.308)" class="st2" width="20" height="40.7"/>
<path class="st2" d="M444.3,174.7l-41.8,41.9l21.3,21.3c4.1,4.1,10.8,4.1,14.8,0l34.4-34.4L444.3,174.7z"/>
<path class="st3" d="M415.5,146.1l-34.4,34.4c-4.1,4.1-4.1,10.8,0,14.8l21.4,21.4l41.8-41.8L415.5,146.1z"/>
<rect x="445.3" y="172.1" transform="matrix(-0.7071 -0.7071 0.7071 -0.7071 666.1592 640.0665)" class="st1" width="40.6" height="20"/>
<rect x="427" y="133" transform="matrix(-0.7071 0.7071 -0.7071 -0.7071 854.398 -47.2348)" class="st2" width="20" height="40.7"/>
<rect x="473.6" y="143.8" transform="matrix(-0.7071 -0.7071 0.7071 -0.7071 734.4367 611.754)" class="st0" width="40.6" height="20"/>
<rect x="455.2" y="104.7" transform="matrix(-0.7071 0.7071 -0.7071 -0.7071 882.6357 -115.4814)" class="st1" width="20" height="40.7"/>
<rect x="517.8" y="97.1" transform="matrix(-0.7071 -0.7071 0.7071 -0.7071 841.1162 567.576)" class="st4" width="40.6" height="25"/>
<rect x="496.9" y="60.5" transform="matrix(-0.7071 0.7071 -0.7071 -0.7071 926.8381 -222.1708)" class="st5" width="25" height="40.7"/>
<rect x="501.9" y="115.5" transform="matrix(-0.7071 -0.7071 0.7071 -0.7071 802.7141 583.4416)" class="st6" width="40.6" height="20"/>
<rect x="483.5" y="76.4" transform="matrix(-0.7071 0.7071 -0.7071 -0.7071 910.8734 -183.7278)" class="st7" width="20" height="40.7"/>
<path class="st6" d="M607.9,135.5l0.1-99c0-6.8-2.6-13.2-7.5-18l0,0l0,0L566,53l0,0l0,0c4.8,4.8,7.5,11.2,7.5,18l-0.1,56.3l16,15.9
	c4.9,4.9,9.5,6.7,13,5.2C606,147,607.9,142.4,607.9,135.5z"/>
<path class="st7" d="M582.6,11h-99.1c-6.9,0-11.5,2-12.9,5.5c-1.5,3.6,0.4,8.2,5.2,13l15.9,15.9h56.4c6.8,0,13.1,2.6,18,7.4
	l34.5-34.5C595.7,13.7,589.4,11,582.6,11z"/>
<path class="st6" d="M573.5,127.3l0.1-56.3c0-6.8-2.6-13.2-7.5-18l0,0l0,0l-33.4,33.4L573.5,127.3z"/>
<path class="st7" d="M491.7,45.6l40.9,40.9L566,53.1c-4.8-4.8-11.2-7.5-18-7.4L491.7,45.6z"/>
<rect x="459.1" y="412.1" transform="matrix(0.7071 -0.7071 0.7071 0.7071 -158.0808 462.6091)" class="st0" width="40.6" height="20"/>
<rect x="498.1" y="372.9" transform="matrix(-0.7071 -0.7071 0.7071 -0.7071 589.2455 1030.6549)" class="st1" width="20" height="40.7"/>
<rect x="430.8" y="383.9" transform="matrix(0.7071 -0.7071 0.7071 0.7071 -146.3752 434.3186)" class="st1" width="40.6" height="20"/>
<rect x="469.8" y="344.7" transform="matrix(-0.7071 -0.7071 0.7071 -0.7071 560.9549 962.4301)" class="st2" width="20" height="40.7"/>
<path class="st2" d="M444.3,358.3l-41.9-41.8l-21.3,21.3c-4.1,4.1-4.1,10.8,0,14.8l34.4,34.4L444.3,358.3z"/>
<path class="st3" d="M472.9,329.5l-34.4-34.4c-4.1-4.1-10.8-4.1-14.8,0l-21.4,21.4l41.8,41.8L472.9,329.5z"/>
<rect x="416.6" y="369.6" transform="matrix(0.7071 -0.7071 0.7071 0.7071 -140.4725 420.1526)" class="st1" width="40.6" height="20"/>
<rect x="455.7" y="330.6" transform="matrix(-0.7071 -0.7071 0.7071 -0.7071 546.7597 928.4385)" class="st2" width="20" height="40.7"/>
<rect x="444.9" y="397.9" transform="matrix(0.7071 -0.7071 0.7071 0.7071 -152.1781 448.4432)" class="st0" width="40.6" height="20"/>
<rect x="483.9" y="358.9" transform="matrix(-0.7071 -0.7071 0.7071 -0.7071 575.0502 996.6633)" class="st1" width="20" height="40.7"/>
<rect x="489.1" y="439.6" transform="matrix(0.7071 -0.7071 0.7071 0.7071 -170.4843 492.6284)" class="st4" width="40.6" height="25"/>
<rect x="525.6" y="403.1" transform="matrix(-0.7071 -0.7071 0.7071 -0.7071 619.2353 1103.3599)" class="st5" width="25" height="40.7"/>
<rect x="473.2" y="426.2" transform="matrix(0.7071 -0.7071 0.7071 0.7071 -163.8835 476.7337)" class="st6" width="40.6" height="20"/>
<rect x="512.2" y="387.1" transform="matrix(-0.7071 -0.7071 0.7071 -0.7071 603.3407 1064.8878)" class="st7" width="20" height="40.7"/>
<path class="st6" d="M483.5,521.9l99,0.1c6.8,0,13.2-2.6,18-7.5l0,0l0,0L566,480l0,0l0,0c-4.8,4.8-11.2,7.5-18,7.5l-56.3-0.1
	l-15.9,16c-4.9,4.9-6.7,9.5-5.2,13C472,520,476.6,521.9,483.5,521.9z"/>
<path class="st7" d="M608,496.6v-99.1c0-6.9-2-11.5-5.5-12.9c-3.6-1.5-8.2,0.4-13,5.2l-15.9,15.9v56.4c0,6.8-2.6,13.1-7.4,18
	l34.5,34.5C605.3,509.7,608,503.4,608,496.6z"/>
<path class="st6" d="M491.7,487.5l56.3,0.1c6.8,0,13.2-2.6,18-7.5l0,0l0,0l-33.4-33.4L491.7,487.5z"/>
<path class="st7" d="M573.4,405.7l-40.9,40.9l33.4,33.4c4.8-4.8,7.5-11.2,7.4-18L573.4,405.7z"/>
<rect x="175.6" y="383.4" transform="matrix(0.7071 0.7071 -0.7071 0.7071 335.5309 -23.2868)" class="st0" width="40.6" height="20"/>
<rect x="214.7" y="401.7" transform="matrix(0.7071 -0.7071 0.7071 0.7071 -232.6386 282.5173)" class="st1" width="20" height="40.7"/>
<rect x="203.9" y="355.1" transform="matrix(0.7071 0.7071 -0.7071 0.7071 323.8036 -51.5682)" class="st1" width="40.6" height="20"/>
<rect x="243" y="373.5" transform="matrix(0.7071 -0.7071 0.7071 0.7071 -204.3699 294.2138)" class="st2" width="20" height="40.7"/>
<path class="st2" d="M259.7,358.3l41.8-41.9l-21.3-21.3c-4.1-4.1-10.8-4.1-14.8,0l-34.4,34.4L259.7,358.3z"/>
<path class="st3" d="M288.5,386.9l34.4-34.4c4.1-4.1,4.1-10.8,0-14.8l-21.4-21.4l-41.8,41.8L288.5,386.9z"/>
<rect x="218.1" y="340.9" transform="matrix(0.7071 0.7071 -0.7071 0.7071 317.9605 -65.7589)" class="st1" width="40.6" height="20"/>
<rect x="257" y="359.3" transform="matrix(0.7071 -0.7071 0.7071 0.7071 -190.2564 300.012)" class="st2" width="20" height="40.7"/>
<rect x="189.8" y="369.2" transform="matrix(0.7071 0.7071 -0.7071 0.7071 329.6879 -37.4774)" class="st0" width="40.6" height="20"/>
<rect x="228.8" y="387.6" transform="matrix(0.7071 -0.7071 0.7071 0.7071 -218.5251 288.3156)" class="st1" width="20" height="40.7"/>
<rect x="145.6" y="410.9" transform="matrix(0.7071 0.7071 -0.7071 0.7071 347.9871 6.7107)" class="st4" width="40.6" height="25"/>
<rect x="182.1" y="431.8" transform="matrix(0.7071 -0.7071 0.7071 0.7071 -262.7173 270.0064)" class="st5" width="25" height="40.7"/>
<rect x="161.5" y="397.5" transform="matrix(0.7071 0.7071 -0.7071 0.7071 341.4153 -9.196)" class="st6" width="40.6" height="20"/>
<rect x="200.5" y="415.9" transform="matrix(0.7071 -0.7071 0.7071 0.7071 -246.7936 276.6191)" class="st7" width="20" height="40.7"/>
<path class="st6" d="M96.1,397.5l-0.1,99c0,6.8,2.6,13.2,7.5,18l0,0l0,0L138,480l0,0l0,0c-4.8-4.8-7.5-11.2-7.5-18l0.1-56.3
	l-16-15.9c-4.9-4.9-9.5-6.7-13-5.2C98,386,96.1,390.6,96.1,397.5z"/>
<path class="st7" d="M121.4,522h99.1c6.9,0,11.5-2,12.9-5.5c1.5-3.6-0.4-8.2-5.2-13l-15.9-15.9h-56.4c-6.8,0-13.1-2.6-18-7.4
	l-34.5,34.5C108.3,519.3,114.6,522,121.4,522z"/>
<path class="st6" d="M130.5,405.7l-0.1,56.3c0,6.8,2.6,13.2,7.5,18l0,0l0,0l33.4-33.4L130.5,405.7z"/>
<path class="st7" d="M212.3,487.4l-40.9-40.9L138,479.9c4.8,4.8,11.2,7.5,18,7.4L212.3,487.4z"/>
</svg>
