<?xml version="1.0" encoding="utf-8"?>
<!-- Generator: Adobe Illustrator 19.0.0, SVG Export Plug-In . SVG Version: 6.00 Build 0)  -->
<svg version="1.1" id="Layer_1" xmlns="http://www.w3.org/2000/svg" xmlns:xlink="http://www.w3.org/1999/xlink" x="0px" y="0px"
	 viewBox="96 11 512 512" style="enable-background:new 96 11 512 512;" xml:space="preserve">
<style type="text/css">
	.st0{display:none;fill:#020202;}
	.st1{fill:#FD6A33;}
	.st2{fill:#FF8C29;}
	.st3{fill:#CDD4D5;}
	.st4{fill:#9BAAAB;}
	.st5{fill:#4ACFD9;}
	.st6{fill:#0295AA;}
	.st7{fill:#365558;}
	.st8{fill:#FFD1A9;}
	.st9{fill:#F0353D;}
</style>
<rect x="302" y="-195" class="st0" width="512" height="512"/>
<path class="st1" d="M250.5,157.4h-5.6h-5.7c-7.3,0-13.2,6-13.2,13.2v57c0,7.3,6,13.2,13.2,13.2h5.7h5.6c3.3,0,6.1-2.7,6.1-6.1
	v-71.3C256.6,160.3,253.9,157.4,250.5,157.4z"/>
<path class="st2" d="M479.3,240.8h-5.6c-3.3,0-6.1-2.7-6.1-6.1v-71.3c0-3.3,2.7-6.1,6.1-6.1h5.6h5.7c7.3,0,13.2,6,13.2,13.2v57.1
	c0,7.3-6,13.2-13.2,13.2H479.3z"/>
<path class="st2" d="M457.1,134.6v115.3c0,16.8-13.7,30.5-30.5,30.5h-64.5V65.1l0,0c8,0,14.6,6.6,14.6,14.6v16.6c0,4.2,3.9,8,8,8
	h41.9C443.3,104.1,457.1,117.8,457.1,134.6z M395.7,237.7h16.6c1.7,0,3.2-1.4,3.2-3.2v-5.1c0-1.7-1.4-3.2-3.2-3.2h-16.6
	c-1.7,0-3.2,1.4-3.2,3.2v5.1C392.5,236.2,394,237.7,395.7,237.7z M404,187.4c8.4,0,15.2-6.8,15.2-15.2c0-8.4-6.8-15.2-15.2-15.2
	c-8.4,0-15.2,6.8-15.2,15.2C388.8,180.6,395.6,187.4,404,187.4z M370.6,226.2h-8.5v11.4h8.5c1.6,0,3-1.3,3-3v-5.5
	C373.6,227.6,372.3,226.2,370.6,226.2z"/>
<path class="st1" d="M362.1,64.9v215.5h-64.4c-16.8,0-30.5-13.7-30.5-30.5V134.6c0-16.8,13.7-30.5,30.5-30.5h40.6
	c4.5,0,9.2-3.4,9.2-8V79.5C347.6,71.5,354.1,64.9,362.1,64.9z M328.7,226.2h-17c-1.6,0-3,1.3-3,3v5.5c0,1.6,1.3,3,3,3h17
	c1.6,0,3-1.3,3-3v-5.5C331.7,227.6,330.3,226.2,328.7,226.2z M320.2,156.9c-8.4,0-15.2,6.8-15.2,15.2c0,8.4,6.8,15.2,15.2,15.2
	c8.4,0,15.2-6.8,15.2-15.2C335.4,163.8,328.6,156.9,320.2,156.9z M353.6,226.2c-1.6,0-3,1.3-3,3v5.5c0,1.6,1.3,3,3,3h8.5v-11.5
	H353.6z"/>
<path class="st3" d="M362.2,311.5c-0.1,0-0.1,0-0.1,0v18.3h0.1c5.1,0,9.2-4.1,9.2-9.2S367.3,311.5,362.2,311.5z"/>
<path class="st4" d="M353.1,320.8c0,5,4,9.1,9,9.2v-18.4C357.1,311.6,353.1,315.8,353.1,320.8z"/>
<path class="st5" d="M362.3,353.6c-0.1,0-0.2,0-0.2,0v27.2c0.1,0,0.2,0,0.2,0c7.5,0,13.6-6.1,13.6-13.6
	C375.9,359.8,369.8,353.6,362.3,353.6z"/>
<path class="st6" d="M348.8,367.3c0,7.4,5.9,13.4,13.3,13.6v-27.1C354.7,353.8,348.8,359.8,348.8,367.3z"/>
<path class="st5" d="M362.3,394c-0.1,0-0.2,0-0.2,0V421c0.1,0,0.2,0,0.2,0c7.5,0,13.6-6.1,13.6-13.6C375.9,400,369.8,394,362.3,394z
	"/>
<path class="st6" d="M348.8,407.5c0,7.4,5.9,13.4,13.3,13.6V394C354.7,394,348.8,400.1,348.8,407.5z"/>
<path class="st5" d="M362.3,434.3c-0.1,0-0.2,0-0.2,0v27.1c0.1,0,0.2,0,0.2,0c7.5,0,13.6-6.1,13.6-13.6
	C375.9,440.3,369.8,434.3,362.3,434.3z"/>
<path class="st6" d="M348.8,447.8c0,7.4,5.9,13.4,13.3,13.6v-27.1C354.7,434.3,348.8,440.3,348.8,447.8z"/>
<path class="st7" d="M309.8,357c-1.6-4.9-7-8.9-12.2-8.9h-36.2c-5.2,0-7.2,3.6-4.5,8l10.9,18c2.7,4.4,2.7,11.6,0.1,16.1L256.8,409
	c-2.6,4.4-1.7,11,1.9,14.6l98.2,96.5c1.5,1.4,2.6,2.1,3.4,2.1c1.1,0,1.4-1.6,0.5-4.5L309.8,357z"/>
<path class="st4" d="M354.8,309c-0.5-0.2-1-0.4-1.4-0.5l-26.8-7.7c-2.5-0.7-4.9-0.4-6.8,1c-1.8,1.4-2.8,3.6-2.8,6.2v22.5
	c0,2.6,1,4.9,2.8,6.3c1.3,1,2.8,1.5,4.4,1.5c0.8,0,1.6-0.1,2.4-0.3l26.4-7c-2.8-2.5-4.6-6.2-4.6-10.3
	C348.4,315.8,351,311.5,354.8,309z"/>
<path class="st6" d="M426.7,348h36.2c5.2,0,7.2,3.6,4.5,8l-10.9,18c-2.7,4.4-2.7,11.6-0.1,16.1l11.1,18.8c2.6,4.4,1.7,11-1.9,14.6
	L367.4,520c-1.5,1.4-2.6,2.1-3.4,2.1c-1.1,0-1.4-1.6-0.5-4.5l51-160.8C416.1,352,421.6,348,426.7,348"/>
<path class="st3" d="M376.3,320.8c0-4.9-2.6-9.2-6.4-11.7c0.5-0.2,1-0.4,1.4-0.5l26.8-7.7c2.5-0.7,4.9-0.4,6.8,1
	c1.8,1.4,2.8,3.6,2.8,6.2v22.5c0,2.6-1,4.9-2.8,6.3c-1.3,1-2.8,1.5-4.4,1.5c-0.8,0-1.6-0.1-2.4-0.3l-26.4-7
	C374.5,328.4,376.3,324.8,376.3,320.8z"/>
<path class="st8" d="M239.1,207.6c0.6,0.9,0.9,2.1,0.5,3.2c-1.5,6.3-0.3,12.9,3.3,18.1c1.2,1.7,0.8,4.1-0.7,5.4
	c-1.7,1.3-4,1-5.2-0.6c-5-6.9-6.6-15.8-4.5-24.3c0.5-2.1,2.5-3.4,4.5-2.9C238,206.4,238.5,206.9,239.1,207.6z"/>
<path class="st8" d="M487.7,206.4c2-0.5,4,0.9,4.5,2.9c2.2,8.5,0.5,17.4-4.5,24.3c-1.2,1.6-3.5,1.9-5.2,0.6c-1.5-1.3-2-3.7-0.7-5.4
	c3.6-5.2,4.8-11.7,3.3-18.1c-0.4-1.1-0.1-2.3,0.5-3.2C486.1,206.9,486.7,206.4,487.7,206.4z"/>
<path class="st9" d="M367.4,17.5L367,41.3c-0.1,3.2-2.6,5.7-5.9,5.8c-3.2,0-5.7-2.5-5.6-5.7l0.4-23.8c0.1-3.2,2.6-5.7,5.9-5.8
	C364.9,11.8,367.4,14.3,367.4,17.5z"/>
<path class="st9" d="M401.7,32.5c0,1.5-0.6,3-1.8,4.1l-15.4,15.3c-2.3,2.3-5.9,2.3-8.2,0c-2.2-2.2-2.1-5.8,0.2-8.2l15.4-15.3
	c2.3-2.3,5.9-2.3,8.2,0C401.3,29.5,401.8,31.1,401.7,32.5z"/>
<path class="st9" d="M347.4,48c0,1.5-0.6,3-1.8,4.1c-2.3,2.3-5.9,2.3-8.2,0l-14.9-15c-2.2-2.2-2.1-5.8,0.2-8.2
	c2.3-2.3,5.9-2.3,8.2,0l14.9,15C346.8,45.1,347.4,46.5,347.4,48z"/>
</svg>
