<?xml version="1.0" encoding="utf-8"?>
<!-- Generator: Adobe Illustrator 19.0.0, SVG Export Plug-In . SVG Version: 6.00 Build 0)  -->
<svg version="1.1" id="Layer_1" xmlns="http://www.w3.org/2000/svg" xmlns:xlink="http://www.w3.org/1999/xlink" x="0px" y="0px"
	 viewBox="96 11 512 512" style="enable-background:new 96 11 512 512;" xml:space="preserve">
<style type="text/css">
	.st0{fill:#0295AA;}
	.st1{fill:#365558;}
	.st2{fill:#E6EAEA;}
	.st3{fill:#4ACFD9;}
	.st4{fill:#FF8C29;}
	.st5{fill:#FD6A33;}
	.st6{fill:#687F82;}
	.st7{fill:#FFD1A9;}
	.st8{fill:#9BAAAB;}
	.st9{fill:#CDD4D5;}
	.st10{fill:#FFFFFF;}
	.st11{fill:#E34C40;}
</style>
<path class="st0" d="M261.9,126c-28.7,24.9-48.6,59-61.6,97c-17.5,51.2-57.8,78.6-57.8,114.3c0,28.5,13.2,80.4,70.4,80.4H351V96
	h-34.9C316,96,288.8,102.6,261.9,126z"/>
<path class="st1" d="M321.5,69.1c-5.6,0-10.1,4.1-10.1,9.1V87c0,5,4.6,9.1,10.1,9.1h29.4v-27H321.5z"/>
<path class="st0" d="M380.3,69.1c5.6,0,10.1,4.1,10.1,9.1V87c0,5-4.6,9.1-10.1,9.1h-29.4v-27H380.3z"/>
<path class="st0" d="M312.4,13.1c-14.5-2.4-26.9,0.9-25.2,14.2c1.9,15.1,20,19.6,26.7,29.1c4.7,6.6,7.3,12.7,18.8,12.7h18.2
	c0,0,0-45.9,0-52.4C337.3,16.7,324.7,15.1,312.4,13.1z"/>
<path class="st2" d="M182.2,322.9c1.3,1.7,1.9,3.9,1.8,6.6c-0.9,13.8,2.7,27.3,9.9,37c2.4,3.2,2.4,8.4,0,11.6s-6.2,3.2-8.6,0
	c-9.8-13.2-14.7-31.5-13.4-50c0.3-4.5,3.3-7.8,6.7-7.4C179.8,320.7,181.2,321.6,182.2,322.9z"/>
<path class="st3" d="M385.9,96H351v321.7h138.1c57.2,0,70.4-51.9,70.4-80.4c0-35.7-40.3-63.1-57.8-114.3c-13-38-32.9-72.1-61.6-97
	C413.2,102.6,386,96,385.9,96z"/>
<path class="st3" d="M351.1,16.7c0,6.5,0,52.4,0,52.4h18.2c11.5,0,14.1-6.1,18.8-12.7c6.7-9.5,24.8-14,26.7-29.1
	c1.7-13.3-10.7-16.6-25.2-14.2C377.3,15.1,364.7,16.7,351.1,16.7z"/>
<path class="st2" d="M523.4,320.7c3.4-0.4,6.4,2.9,6.7,7.4c1.3,18.5-3.6,36.8-13.4,50c-2.4,3.2-6.2,3.2-8.6,0s-2.4-8.4,0-11.6
	c7.2-9.7,10.8-23.2,9.9-37c-0.1-2.7,0.5-4.9,1.8-6.6C520.8,321.6,522.2,320.7,523.4,320.7z"/>
<g>
	<g>
		<path class="st4" d="M431.7,496.5h-75.2v27.2h75.2c1.5,0,2.7-1.2,2.7-2.7v-21.8C434.4,497.7,433.2,496.5,431.7,496.5z"/>
		<rect x="336.3" y="496.5" class="st5" width="20.3" height="27.2"/>
		<path class="st5" d="M281.4,496.5c-1.5,0-2.7,1.2-2.7,2.7V521c0,1.5,1.2,2.7,2.7,2.7h54.9v-27.2H281.4L281.4,496.5z"/>
	</g>
	<rect x="402.4" y="505.8" class="st6" width="10" height="17.9"/>
	<rect x="420.4" y="505.8" class="st6" width="6.7" height="17.9"/>
	<rect x="377.4" y="505.8" class="st6" width="13.4" height="17.9"/>
	<rect x="300.3" y="505.8" class="st1" width="10" height="17.9"/>
	<rect x="285.7" y="505.8" class="st1" width="6.7" height="17.9"/>
	<rect x="322" y="505.8" class="st1" width="13.4" height="17.9"/>
	<rect x="356.6" y="505.8" class="st6" width="6.9" height="17.9"/>
	<rect x="350.1" y="505.8" class="st1" width="6.5" height="17.9"/>
	<g>
		<path class="st4" d="M422.3,462.3h-75.2v27.2h75.2c1.5,0,2.7-1.2,2.7-2.7V465C425,463.6,423.9,462.3,422.3,462.3z"/>
		<rect x="336.3" y="462.3" class="st5" width="11" height="27.2"/>
		<path class="st5" d="M272.1,462.3c-1.5,0-2.7,1.2-2.7,2.7v21.8c0,1.5,1.2,2.7,2.7,2.7h64.2v-27.1L272.1,462.3L272.1,462.3z"/>
	</g>
	<rect x="393" y="471.7" class="st6" width="10" height="17.9"/>
	<rect x="411" y="471.7" class="st6" width="6.7" height="17.9"/>
	<rect x="367.9" y="471.7" class="st6" width="13.4" height="17.9"/>
	<rect x="290.9" y="471.7" class="st1" width="10" height="17.9"/>
	<rect x="276.3" y="471.7" class="st1" width="6.7" height="17.9"/>
	<rect x="312.7" y="471.7" class="st1" width="13.4" height="17.9"/>
	<rect x="347.3" y="471.7" class="st6" width="6.9" height="17.9"/>
	<rect x="340.8" y="471.7" class="st1" width="6.5" height="17.9"/>
	<g>
		<path class="st4" d="M428.5,428.2h-75.2v27.2h75.2c1.5,0,2.7-1.2,2.7-2.7v-21.8C431.2,429.4,430,428.2,428.5,428.2z"/>
		<rect x="336.3" y="428.2" class="st5" width="17.1" height="27.2"/>
		<path class="st5" d="M278.2,428.2c-1.5,0-2.7,1.2-2.7,2.7v21.8c0,1.5,1.2,2.7,2.7,2.7h58.1v-27.2H278.2L278.2,428.2z"/>
	</g>
	<rect x="399.2" y="437.7" class="st6" width="10" height="17.9"/>
	<rect x="417.1" y="437.7" class="st6" width="6.7" height="17.9"/>
	<rect x="374.1" y="437.7" class="st6" width="13.4" height="17.9"/>
	<rect x="297.1" y="437.7" class="st1" width="10" height="17.9"/>
	<rect x="282.4" y="437.7" class="st1" width="6.7" height="17.9"/>
	<rect x="318.8" y="437.7" class="st1" width="13.4" height="17.9"/>
	<rect x="353.4" y="437.7" class="st6" width="6.9" height="17.9"/>
	<rect x="346.9" y="437.7" class="st1" width="6.5" height="17.9"/>
</g>
<g>
	<g>
		<path class="st4" d="M257.3,496.1h-75.2v27.2h75.2c1.5,0,2.7-1.2,2.7-2.7v-21.8C260,497.2,258.8,496.1,257.3,496.1z"/>
		<rect x="161.9" y="496.1" class="st5" width="20.3" height="27.2"/>
		<path class="st5" d="M107,496.1c-1.5,0-2.7,1.2-2.7,2.7v21.8c0,1.5,1.2,2.7,2.7,2.7h54.9v-27.2L107,496.1L107,496.1z"/>
	</g>
	<rect x="228" y="505.4" class="st6" width="10" height="17.9"/>
	<rect x="246" y="505.4" class="st6" width="6.7" height="17.9"/>
	<rect x="203" y="505.4" class="st6" width="13.4" height="17.9"/>
	<rect x="125.9" y="505.4" class="st1" width="10" height="17.9"/>
	<rect x="111.3" y="505.4" class="st1" width="6.7" height="17.9"/>
	<rect x="147.6" y="505.4" class="st1" width="13.4" height="17.9"/>
	<rect x="182.2" y="505.4" class="st6" width="6.9" height="17.9"/>
	<rect x="175.7" y="505.4" class="st1" width="6.5" height="17.9"/>
	<g>
		<path class="st4" d="M247.9,461.9h-75.2v27.2h75.2c1.5,0,2.7-1.2,2.7-2.7v-21.8C250.6,463.1,249.5,461.9,247.9,461.9z"/>
		<rect x="161.9" y="461.9" class="st5" width="11" height="27.2"/>
		<path class="st5" d="M97.7,461.9c-1.5,0-2.7,1.2-2.7,2.7v21.8c0,1.5,1.2,2.7,2.7,2.7h64.2v-27.2H97.7L97.7,461.9z"/>
	</g>
	<rect x="218.6" y="471.3" class="st6" width="10" height="17.9"/>
	<rect x="236.6" y="471.3" class="st6" width="6.7" height="17.9"/>
	<rect x="193.6" y="471.3" class="st6" width="13.4" height="17.9"/>
	<rect x="116.6" y="471.3" class="st1" width="10" height="17.9"/>
	<rect x="101.9" y="471.3" class="st1" width="6.7" height="17.9"/>
	<rect x="138.3" y="471.3" class="st1" width="13.4" height="17.9"/>
	<rect x="172.9" y="471.3" class="st6" width="6.9" height="17.9"/>
	<rect x="166.4" y="471.3" class="st1" width="6.5" height="17.9"/>
	<g>
		<path class="st7" d="M158.7,420.2"/>
		<path class="st4" d="M254.1,427.8H179V455h75.2c1.5,0,2.7-1.2,2.7-2.7v-21.8C256.8,429,255.6,427.8,254.1,427.8z"/>
		<rect x="161.9" y="427.8" class="st5" width="17.1" height="27.2"/>
		<path class="st5" d="M103.8,427.8c-1.5,0-2.7,1.2-2.7,2.7v21.9c0,1.5,1.2,2.7,2.7,2.7h58.1v-27.2L103.8,427.8L103.8,427.8z"/>
	</g>
	<rect x="224.8" y="437.1" class="st6" width="10" height="17.9"/>
	<rect x="242.7" y="437.1" class="st6" width="6.7" height="17.9"/>
	<rect x="199.7" y="437.1" class="st6" width="13.4" height="17.9"/>
	<rect x="122.7" y="437.1" class="st1" width="10" height="17.9"/>
	<rect x="108" y="437.1" class="st1" width="6.7" height="17.9"/>
	<rect x="144.4" y="437.1" class="st1" width="13.4" height="17.9"/>
	<rect x="179" y="437.1" class="st6" width="6.9" height="17.9"/>
	<rect x="172.5" y="437.1" class="st1" width="6.5" height="17.9"/>
</g>
<g>
	<g>
		<path class="st4" d="M604.3,495.6h-75.2v27.2h75.2c1.5,0,2.7-1.2,2.7-2.7v-21.8C606.9,496.7,605.7,495.6,604.3,495.6z"/>
		<rect x="508.8" y="495.6" class="st5" width="20.3" height="27.2"/>
		<path class="st5" d="M454,495.6c-1.5,0-2.7,1.2-2.7,2.7v21.8c0,1.5,1.2,2.7,2.7,2.7h54.9v-27.2L454,495.6L454,495.6z"/>
	</g>
	<rect x="575" y="504.9" class="st6" width="10" height="17.9"/>
	<rect x="592.9" y="504.9" class="st6" width="6.7" height="17.9"/>
	<rect x="549.9" y="504.9" class="st6" width="13.4" height="17.9"/>
	<rect x="472.8" y="504.9" class="st1" width="10" height="17.9"/>
	<rect x="458.2" y="504.9" class="st1" width="6.7" height="17.9"/>
	<rect x="494.6" y="504.9" class="st1" width="13.4" height="17.9"/>
	<rect x="529.1" y="504.9" class="st6" width="6.9" height="17.9"/>
	<rect x="522.6" y="504.9" class="st1" width="6.5" height="17.9"/>
	<g>
		<path class="st4" d="M594.9,461.4h-75.2v27.2h75.2c1.5,0,2.7-1.2,2.7-2.7v-21.8C597.6,462.7,596.4,461.4,594.9,461.4z"/>
		<rect x="508.8" y="461.4" class="st5" width="11" height="27.2"/>
		<path class="st5" d="M444.7,461.4c-1.5,0-2.7,1.2-2.7,2.7v21.8c0,1.5,1.2,2.7,2.7,2.7h64.2v-27.2H444.7L444.7,461.4z"/>
	</g>
	<rect x="565.5" y="470.8" class="st6" width="10" height="17.9"/>
	<rect x="583.5" y="470.8" class="st6" width="6.7" height="17.9"/>
	<rect x="540.5" y="470.8" class="st6" width="13.4" height="17.9"/>
	<rect x="463.5" y="470.8" class="st1" width="10" height="17.9"/>
	<rect x="448.8" y="470.8" class="st1" width="6.7" height="17.9"/>
	<rect x="485.2" y="470.8" class="st1" width="13.4" height="17.9"/>
	<rect x="519.8" y="470.8" class="st6" width="6.9" height="17.9"/>
	<rect x="513.3" y="470.8" class="st1" width="6.5" height="17.9"/>
	<g>
		<path class="st7" d="M505.6,419.7"/>
		<path class="st4" d="M601.1,427.3h-75.2v27.2h75.2c1.5,0,2.7-1.2,2.7-2.7V430C603.7,428.5,602.5,427.3,601.1,427.3z"/>
		<rect x="508.8" y="427.3" class="st5" width="17.1" height="27.2"/>
		<path class="st5" d="M450.8,427.3c-1.5,0-2.7,1.2-2.7,2.7v21.8c0,1.5,1.2,2.7,2.7,2.7h58.1v-27.1L450.8,427.3L450.8,427.3z"/>
	</g>
	<rect x="571.8" y="436.6" class="st6" width="10" height="17.9"/>
	<rect x="589.6" y="436.6" class="st6" width="6.7" height="17.9"/>
	<rect x="546.6" y="436.6" class="st6" width="13.4" height="17.9"/>
	<rect x="469.6" y="436.6" class="st1" width="10" height="17.9"/>
	<rect x="454.9" y="436.6" class="st1" width="6.7" height="17.9"/>
	<rect x="491.4" y="436.6" class="st1" width="13.4" height="17.9"/>
	<rect x="525.9" y="436.6" class="st6" width="6.9" height="17.9"/>
	<rect x="519.4" y="436.6" class="st1" width="6.5" height="17.9"/>
</g>
<g>
	<path class="st5" d="M260.2,256.1c0,49.7,40.3,90,90,90v-180C300.5,166.1,260.2,206.3,260.2,256.1z"/>
	<path class="st4" d="M440.2,256.1c0-49.7-40.3-90-90-90v180.1C399.9,346.1,440.2,305.8,440.2,256.1z"/>
	<path class="st8" d="M293.9,256.1c0,31.1,25.2,56.3,56.3,56.3V199.7C319.1,199.7,293.9,225,293.9,256.1z"/>
	<path class="st9" d="M406.5,256.1c0-31.1-25.2-56.3-56.3-56.3v112.8C381.3,312.4,406.5,287.1,406.5,256.1z"/>
	<path class="st2" d="M305.1,256.1c0,24.9,20.2,45.1,45.1,45.1v-90.3C325.3,210.9,305.1,231.1,305.1,256.1z"/>
	<path class="st10" d="M395.3,256.1c0-24.9-20.2-45.1-45.1-45.1v90.3C375.1,301.2,395.3,281,395.3,256.1z"/>
	<path class="st7" d="M350.1,166.1V194c3.5,0,6.4-2.8,6.4-6.4v-20.9c0-0.2,0-0.3,0-0.4C354.4,166.2,352.2,166.1,350.1,166.1z"/>
	<path class="st4" d="M344.5,166.2c0,0.2,0,0.4,0,0.6v20.9c0,3.3,2.5,6.1,5.7,6.3v-27.9C348.3,166.1,346.4,166.1,344.5,166.2z"/>
	<path class="st5" d="M350.2,318.7v27.4c2.1,0,4.3-0.1,6.4-0.2v-20.8C356.6,321.6,353.8,318.7,350.2,318.7z"/>
	<path class="st7" d="M344.5,325.1v20.9c1.9,0.1,3.8,0.2,5.7,0.2v-27.4C346.9,319,344.5,321.7,344.5,325.1z"/>
	<path class="st7" d="M282.1,249.7h-20.8c-0.3,0-0.6,0-0.9,0.1c-0.1,2.1-0.2,4.2-0.2,6.3h28.3C288.5,252.6,285.7,249.7,282.1,249.7z
		"/>
	<path class="st4" d="M282.1,262.5c3.5,0,6.4-2.8,6.4-6.4h-28.3c0,2.1,0.1,4.3,0.2,6.3c0.3,0,0.6,0.1,0.9,0.1H282.1z"/>
	<path class="st5" d="M419.6,249.7c-3.5,0-6.4,2.8-6.4,6.4h27l0,0c0-2.1-0.1-4.3-0.2-6.4H419.6z"/>
	<path class="st7" d="M419.6,262.5H440c0.1-2.1,0.2-4.3,0.2-6.4h-27C413.2,259.5,416,262.5,419.6,262.5z"/>
	<path class="st7" d="M306.8,203l-14.7-14.7c-0.1-0.1-0.3-0.2-0.6-0.4c-1.6,1.3-3.1,2.8-4.6,4.3l19.9,19.9
		C309.2,209.5,309.2,205.4,306.8,203z"/>
	<path class="st4" d="M297.8,212c2.5,2.5,6.5,2.5,9,0l-19.9-19.9c-1.5,1.5-2.9,3-4.3,4.6c0.1,0.2,0.3,0.3,0.4,0.6L297.8,212z"/>
	<path class="st5" d="M394.9,300.2l19.3,19.3c1.5-1.5,2.9-3,4.3-4.7l-14.6-14.6C401.4,297.7,397.3,297.7,394.9,300.2z"/>
	<path class="st7" d="M394.9,309.1l14.6,14.6c1.6-1.3,3.1-2.8,4.6-4.4l-19.2-19.2C392.4,302.6,392.4,306.7,394.9,309.1z"/>
	<path class="st7" d="M297.6,299.9l-14.7,14.7c-0.2,0.2-0.3,0.3-0.4,0.6c1.3,1.6,2.8,3.1,4.3,4.6l19.9-19.9
		C304.1,297.5,300,297.5,297.6,299.9z"/>
	<path class="st4" d="M306.5,308.9c2.5-2.5,2.5-6.5,0-9l-19.9,19.9c1.5,1.5,3,2.9,4.6,4.3c0.2-0.1,0.3-0.2,0.6-0.4L306.5,308.9z"/>
	<path class="st5" d="M394.6,202.8c-2.5,2.5-2.5,6.5,0,9l19.3-19.3c-1.5-1.5-3-2.9-4.7-4.4L394.6,202.8z"/>
	<path class="st7" d="M394.6,211.7c2.5,2.5,6.5,2.5,9,0l14.6-14.6c-1.3-1.6-2.8-3.1-4.3-4.7L394.6,211.7z"/>
	<path class="st7" d="M330.4,190.2l-8-19.3c-0.1-0.1-0.1-0.3-0.2-0.4c-2,0.7-4,1.3-5.9,2.1l10.7,25.8
		C330.2,197.1,331.8,193.4,330.4,190.2z"/>
	<path class="st4" d="M318.7,195c1.3,3.3,5,4.8,8.3,3.5l-10.7-25.8c-1.9,0.8-3.9,1.7-5.8,2.6c0,0.2,0.1,0.3,0.2,0.6L318.7,195z"/>
	<path class="st5" d="M374.7,313.6l10.5,25.4c1.9-0.8,3.9-1.8,5.7-2.7l-8-19.2C381.6,313.9,377.9,312.3,374.7,313.6z"/>
	<path class="st7" d="M371.2,321.9l8,19.3l0,0c2-0.7,4-1.5,5.9-2.2l-10.5-25.4C371.4,315,370,318.7,371.2,321.9z"/>
	<path class="st7" d="M284.8,276.1l-19.3,8c-0.2,0.1-0.6,0.2-0.8,0.3c0.7,2,1.3,3.9,2.2,5.9l26.1-10.8
		C291.7,276.4,288,274.8,284.8,276.1z"/>
	<path class="st4" d="M289.7,287.9c3.3-1.3,4.8-5,3.5-8.3L267,290.4c0.8,1.9,1.7,3.8,2.6,5.7c0.2-0.1,0.6-0.1,0.8-0.2L289.7,287.9z"
		/>
	<path class="st5" d="M411.7,223.6c-3.3,1.3-4.8,5-3.5,8.3l25-10.4c-0.8-2-1.7-3.9-2.7-5.8L411.7,223.6z"/>
	<path class="st7" d="M408.3,231.9c1.3,3.3,5,4.8,8.3,3.5l19-7.9c-0.7-2-1.5-4-2.2-5.9L408.3,231.9z"/>
	<path class="st7" d="M289.7,223.6l-19.3-8c-0.2-0.1-0.3-0.1-0.6-0.2c-0.9,1.9-1.9,3.8-2.7,5.7l25.9,10.8
		C294.4,228.7,292.9,225,289.7,223.6z"/>
	<path class="st4" d="M284.8,235.4c3.3,1.3,7-0.2,8.3-3.5l-25.9-10.8c-0.8,1.9-1.6,3.9-2.2,5.9c0.2,0.1,0.3,0.2,0.6,0.3L284.8,235.4
		z"/>
	<path class="st5" d="M408.3,279.6l25.2,10.4c0.8-1.9,1.6-3.9,2.2-5.9l-19.2-8C413.4,274.8,409.7,276.4,408.3,279.6z"/>
	<path class="st7" d="M411.7,287.9l19.2,8c0.9-1.9,1.8-3.8,2.6-5.8l-25.2-10.4C407,282.9,408.6,286.6,411.7,287.9z"/>
	<path class="st7" d="M318.2,316.7l-8,19.3c-0.1,0.2-0.2,0.4-0.2,0.7c1.9,0.9,3.8,1.8,5.7,2.6l10.8-26
		C323.4,311.9,319.6,313.4,318.2,316.7z"/>
	<path class="st4" d="M330,321.6c1.3-3.3-0.2-7-3.5-8.3l-10.8,26c1.9,0.8,3.9,1.6,5.9,2.2c0.1-0.2,0.2-0.4,0.3-0.7L330,321.6z"/>
	<path class="st5" d="M370.8,189.7c-1.3,3.3,0.2,7,3.5,8.3l10.4-25.1c-1.9-0.8-3.9-1.6-5.9-2.2L370.8,189.7z"/>
	<path class="st7" d="M374.3,198c3.3,1.3,7-0.2,8.3-3.5l7.9-19.1c-1.9-0.9-3.8-1.8-5.8-2.7L374.3,198z"/>
	<g>
		<path id="XMLID_4_" class="st11" d="M344,264.6c1.1-0.3,8.3,0.8,9.2,1.5c3,2.1,7.4,3.3,9.2,1.1c1.8-2.1-0.1-5.9-2.9-8.8
			c-0.8-0.9-3.6-7.5-3.4-8.6c0.4-3.7-0.8-8.2-3.6-8.6c-2.8-0.4-5.4,3.5-6.1,6.8c-0.2,1.1-4.8,6.8-5.9,7.3c-3.4,1.6-6.5,4.8-5.5,7.4
			C336.1,265.4,340.8,265.6,344,264.6z"/>
		<path id="XMLID_3_" class="st11" d="M356.5,226.1c4.5,0.2,6.4,9.3,5.6,16.5c-0.2,2.2,5,15.1,6.1,17.3c0.7,1.2,1.7,2.2,2.9,2.9
			c-3.5-9.3-3.7-16.8-3-18.5c2.9-8.1,1.7-19-2.7-21.4c-2.9-1.7-9.4-2.4-13.6,4.4C353.1,226.2,354.8,225.9,356.5,226.1z"/>
		<path id="XMLID_2_" class="st11" d="M320.5,265.2c-2.1-4,4.9-10.2,11.4-13.2c2.1-0.9,10.5-12,11.9-13.8c0.8-1.2,1.1-2.6,1.1-4
			c-6.4,7.6-12.7,11.6-14.5,11.9c-8.4,1.5-17.3,8.1-17.3,13.1c0,3.4,2.7,9.3,10.5,9.5C322.3,268,321,266.7,320.5,265.2z"/>
		<path id="XMLID_1_" class="st11" d="M372.5,277.6c-2.5,3.8-11.3,0.9-17.2-3.4c-1.9-1.3-15.7-3.3-18-3.4c-1.5-0.1-2.8,0.3-4,1.1
			c9.8,1.7,16.4,5.2,17.6,6.5c5.5,6.6,15.6,10.9,20,8.4c2.9-1.7,6.7-7,3-13.9C374.1,274.6,373.7,276.3,372.5,277.6z"/>
	</g>
</g>
</svg>
