<svg width="512" height="512" viewBox="0 0 512 512" fill="none" xmlns="http://www.w3.org/2000/svg">
<path d="M44 512C19.6995 512 0 492.301 0 468V294.83H121.168L158.626 228.648L256.769 378.6L317.385 279.651L328.577 294.83H366.016C374.798 308.803 390.35 318.107 408.101 318.107C435.537 318.107 457.779 295.865 457.779 268.429C457.779 240.992 435.537 218.75 408.101 218.75C389.194 218.75 372.776 229.304 364.38 244.83H353.831L313.547 190.199L255.372 285.163L155.529 132.612L92.0144 244.83H0V44C0 19.6995 19.6995 0 44 0H468C492.301 0 512 19.6995 512 44V468C512 492.301 492.301 512 468 512H44Z" fill="#0295AA"/>
<path d="M408.101 268.107C408.093 268.107 408.077 268.108 408.056 268.112C408.033 268.117 408.003 268.125 407.971 268.138C407.922 268.159 407.892 268.183 407.873 268.201C407.855 268.219 407.831 268.249 407.81 268.299C407.808 268.305 407.805 268.312 407.803 268.319C407.8 268.325 407.798 268.332 407.796 268.338C407.783 268.381 407.779 268.416 407.779 268.429C407.779 268.445 407.785 268.499 407.81 268.558C407.831 268.608 407.855 268.638 407.873 268.656C407.881 268.663 407.89 268.672 407.901 268.68C407.918 268.693 407.941 268.706 407.971 268.719C408.03 268.744 408.084 268.75 408.101 268.75C408.118 268.75 408.171 268.744 408.231 268.719C408.26 268.707 408.283 268.693 408.3 268.68C408.312 268.672 408.321 268.663 408.329 268.656C408.336 268.648 408.345 268.638 408.355 268.625C408.367 268.608 408.38 268.586 408.391 268.558C408.417 268.499 408.423 268.445 408.423 268.429C408.423 268.412 408.417 268.358 408.391 268.299C408.371 268.249 408.347 268.219 408.329 268.201C408.322 268.195 408.315 268.188 408.306 268.181C408.297 268.174 408.286 268.167 408.274 268.159C408.261 268.152 408.247 268.145 408.231 268.138C408.171 268.113 408.118 268.107 408.101 268.107Z" fill="#0295AA"/>
<path fill-rule="evenodd" clip-rule="evenodd" d="M314.699 217.035L255.791 313.194L156.458 161.423L100.761 259.83H0.183594V279.83H112.422L157.697 199.837L256.35 350.569L316.234 252.816L336.153 279.83H375.341C380.056 293.381 392.943 303.107 408.101 303.107C427.253 303.107 442.779 287.581 442.779 268.429C442.779 249.276 427.253 233.75 408.101 233.75C391.917 233.75 378.322 244.837 374.497 259.83H346.255L314.699 217.035ZM422.779 268.429C422.779 276.535 416.207 283.107 408.101 283.107C399.994 283.107 393.423 276.535 393.423 268.429C393.423 260.322 399.994 253.75 408.101 253.75C416.207 253.75 422.779 260.322 422.779 268.429Z" fill="#0295AA"/>
<path d="M468 512H256V377.425L256.769 378.6L317.385 279.651L328.577 294.83H366.016C374.798 308.803 390.35 318.107 408.101 318.107C435.537 318.107 457.779 295.865 457.779 268.429C457.779 240.992 435.537 218.75 408.101 218.75C389.194 218.75 372.776 229.304 364.38 244.83H353.831L313.547 190.199L256 284.138V0H468C492.3 0 512 19.6997 512 44V468C512 492.3 492.3 512 468 512Z" fill="#4ACFD9"/>
<path d="M408.101 268.107C408.093 268.107 408.077 268.108 408.056 268.112C408.033 268.117 408.003 268.125 407.971 268.138C407.922 268.159 407.892 268.183 407.873 268.201C407.855 268.219 407.831 268.249 407.81 268.299C407.805 268.312 407.8 268.325 407.796 268.338C407.783 268.381 407.779 268.416 407.779 268.429C407.779 268.445 407.785 268.499 407.81 268.558C407.831 268.608 407.855 268.638 407.873 268.656C407.892 268.674 407.922 268.698 407.971 268.719C408.03 268.744 408.084 268.75 408.101 268.75C408.118 268.75 408.171 268.744 408.231 268.719C408.262 268.706 408.285 268.692 408.302 268.679C408.313 268.671 408.322 268.663 408.329 268.656C408.339 268.646 408.352 268.631 408.364 268.611C408.373 268.596 408.383 268.579 408.391 268.558C408.417 268.499 408.423 268.445 408.423 268.429C408.423 268.412 408.417 268.358 408.391 268.299C408.371 268.249 408.347 268.219 408.329 268.201C408.322 268.195 408.315 268.188 408.306 268.181C408.288 268.167 408.264 268.152 408.231 268.138C408.171 268.113 408.118 268.107 408.101 268.107Z" fill="#4ACFD9"/>
<path fill-rule="evenodd" clip-rule="evenodd" d="M256 312.853L314.699 217.035L346.255 259.83H374.497C378.322 244.837 391.917 233.75 408.101 233.75C427.253 233.75 442.779 249.276 442.779 268.429C442.779 287.581 427.253 303.107 408.101 303.107C392.943 303.107 380.056 293.381 375.341 279.83H336.153L316.234 252.816L256.35 350.569L256 350.034V312.853ZM422.779 268.429C422.779 276.535 416.207 283.107 408.101 283.107C399.994 283.107 393.423 276.535 393.423 268.429C393.423 260.322 399.994 253.75 408.101 253.75C416.207 253.75 422.779 260.322 422.779 268.429Z" fill="#4ACFD9"/>
<path fill-rule="evenodd" clip-rule="evenodd" d="M255.791 313.194L156.458 161.423L100.761 259.83H0.183594V279.83H112.422L157.697 199.837L256.35 350.569L316.234 252.816L336.153 279.83H375.341C380.056 293.381 392.943 303.107 408.101 303.107C427.253 303.107 442.779 287.581 442.779 268.429C442.779 249.277 427.253 233.751 408.101 233.751C391.917 233.751 378.322 244.837 374.497 259.83H346.255L314.699 217.035L255.791 313.194ZM422.779 268.429C422.779 276.535 416.207 283.107 408.101 283.107C399.994 283.107 393.423 276.535 393.423 268.429C393.423 260.322 399.994 253.751 408.101 253.751C416.207 253.751 422.779 260.322 422.779 268.429Z" fill="#F0353D"/>
</svg>
