<?xml version="1.0" encoding="utf-8"?>
<!-- Generator: Adobe Illustrator 19.0.0, SVG Export Plug-In . SVG Version: 6.00 Build 0)  -->
<svg version="1.1" id="Layer_1" xmlns="http://www.w3.org/2000/svg" xmlns:xlink="http://www.w3.org/1999/xlink" x="0px" y="0px"
	 viewBox="206 -206 512 512" style="enable-background:new 206 -206 512 512;" xml:space="preserve">
<style type="text/css">
	.st0{fill:#365558;}
	.st1{fill:#687F82;}
	.st2{fill:#FF8C29;}
	.st3{fill:#FFFFFF;}
	.st4{fill:#F0353D;}
	.st5{fill:#FFD1A9;}
	.st6{fill:#FD6A33;}
	.st7{fill:#0295AA;}
	.st8{fill:#4ACFD9;}
</style>
<path class="st0" d="M422.3,144.9c0.4-6.1,3.6-11,8.8-13.4c3.5-1.7,7.2-1.9,10-1.9h21c0-27.5,0-56.4,0-74.7c-2,1-26.4,0.8-38.3,5.5
	c-11.9,4.7-19.9,18.1-24.5,31.8c-2.3,6.7-2.9,13.7-0.7,20.6c6.3,20.3,10.8,40.9,10,62.5c-0.1,4,1.6,7.1,4.8,10.2h6.9
	c0.2-5.6,0.5-11.3,0.7-17.1C421.4,159.7,422.2,146.5,422.3,144.9z"/>
<path class="st1" d="M524.5,92.2c-4.7-13.7-12.6-27.1-24.5-31.8c-10.8-4.3-31.7-4.5-37.1-5.3v74.5h0.1h22c3.6,0,8.3,0.3,12.2,3
	c2.6,1.8,5.8,5.3,6.2,11.6c0,0.9,0.1,1.6,0.1,2.3c0.1,2,0.2,3.9,0.4,7.6c0.4,10,0.9,20.5,1.3,31.3h5.2c3.2-3.1,4.9-6.2,4.8-10.2
	c-0.8-21.6,3.7-42.2,10-62.5C527.4,105.9,526.8,99,524.5,92.2z"/>
<path class="st2" d="M493.9,154.7c-0.2-4.9-0.3-6.5-0.5-9.8c-0.2-3.3-1.7-5-8.4-5c-3.2,0-12.7,0-22,0c-10.4,0-20.6,0-21.8,0
	c-4.1,0-8.5,0.6-8.8,5.7c-0.1,1.5-0.9,14.6-1.2,23.4c-1.2,28.1-2.4,56.2-3.6,84.3c-0.4,9.2-1,18.4-0.8,27.6
	c0.3,13.9,8,22.6,22.5,24.4c4.5,0.6,9.1,0.8,13.7,0.8c4.5,0,9-0.3,13.5-0.8c13.6-1.6,20.5-9,22.3-21.8c0.4-2.5,0.4-5,0.3-7.5
	C497.3,235.5,495.6,195.1,493.9,154.7z M477.9,284.9c-4.2,3.4-9.6,5.2-15,5.2c-5.4,0-10.8-1.7-14.9-5.1c-9.9-8.1-9-21.6,2-28.5
	c3.5-2.2,7.4-3.4,13-3.6c0.6,0,1.2,0,1.9,0c6.1,0.2,12.7,3,17.1,9.5C486.8,269.8,485.1,278.9,477.9,284.9z"/>
<path class="st3" d="M493.9,154.7c-0.2-4.9-0.3-6.5-0.5-9.8c-0.2-3.3-1.7-5-8.4-5c-3.2,0-12.7,0-22,0c-10.4,0-20.6,0-21.8,0
	c-4.1,0-8.5,0.6-8.8,5.7c-0.1,1.5-0.9,14.6-1.2,23.4c-1.2,28.1-2.4,56.2-3.6,84.3c-0.4,9.2-1,18.4-0.8,27.6
	c0.3,13.9,8,22.6,22.5,24.4c4.4,0.5,8.9,0.8,13.5,0.8c0.1,0,0.2,0,0.3,0c4.5,0,9-0.3,13.5-0.8c13.6-1.6,20.5-9,22.3-21.8
	c0.4-2.5,0.4-5,0.3-7.5C497.3,235.5,495.6,195.1,493.9,154.7z"/>
<path class="st3" d="M464.8,252.9c-0.1,0-0.1,0-0.2,0c-0.6,0-1.1,0-1.7,0c-5.6,0.2-9.4,1.4-13,3.6c-11,6.9-11.9,20.4-2,28.5
	c4.2,3.4,9.5,5.1,14.9,5.1c0,0,0,0,0,0c5.4,0,10.9-1.7,15-5.2c7.2-6,8.9-15.1,3.9-22.5C477.4,255.9,470.8,253.1,464.8,252.9z"/>
<path class="st4" d="M462.8,55.2c-0.6-0.1-1-0.2-1.2-0.3c0,18.4,0,47.2,0,74.7h1.2V55.2z"/>
<path class="st4" d="M462.8,185.6v-55.9h-1.2c0,21.3,0,41.8,0,55.9H462.8z"/>
<g>
	<path class="st5" d="M493.8,154.7c-0.2-4.9-0.3-6.5-0.5-9.8c-0.2-3.3-1.7-5-8.4-5c-3.2,0-12.7,0-22,0V253c0.6,0,1.2,0,1.9,0
		c6.1,0.2,12.7,3,17.1,9.5c5,7.3,3.3,16.5-3.9,22.5c-4.2,3.4-9.6,5.2-15,5.2v16c4.5,0,9-0.3,13.5-0.8c13.6-1.6,20.5-9,22.3-21.8
		c0.4-2.5,0.4-5,0.3-7.5C497.2,235.5,495.5,195.1,493.8,154.7z"/>
</g>
<g>
	<path class="st2" d="M432.2,145.6c-0.1,1.5-0.9,14.6-1.2,23.4c-1.2,28.1-2.4,56.2-3.6,84.3c-0.4,9.2-1,18.4-0.8,27.6
		c0.3,13.9,8,22.6,22.5,24.4c4.5,0.6,9.1,0.8,13.7,0.8v-16c-5.4,0-10.8-1.7-14.9-5.1c-9.9-8.1-9-21.6,2-28.5c3.5-2.2,7.4-3.4,13-3.6
		V139.9c-10.4,0-20.6,0-21.8,0C436.9,139.9,432.5,140.4,432.2,145.6z"/>
</g>
<path class="st2" d="M479.5,129.6c0-7.9,0-15.8,0-23.8c0,0,0,0,0,0c0-18.2,0-36.5,0-54.7c0-4.9-2.2-6.9-7.3-7c-3.1,0-6.3,0-9.4,0
	v85.4h0.1H479.5z"/>
<path class="st2" d="M471,167.2c6.7,0,8.6-1.7,8.6-8.1c0-9.8,0-19.6,0-29.5h-16.6h-0.1v37.5C465.6,167.2,468.3,167.2,471,167.2z"/>
<path class="st6" d="M462.8,44.2c-2.8,0-5.6,0-8.4,0c-6.7,0-8.6,1.7-8.6,8.1c0,19.4,0,38.8,0,58.2c0,6.4,0,12.8,0,19.2h17V44.2z"/>
<path class="st6" d="M445.9,159.9c0,5.2,2.2,7.2,7.6,7.2c3.1,0,6.2,0,9.4,0v-37.5h-17C445.9,139.7,445.9,149.8,445.9,159.9z"/>
<path class="st7" d="M453.6-6.7c-8.4-0.1-16.8-0.1-25.2,0c-3.3,0-5.1,1.9-5.1,5c-0.1,4.7-0.1,9.5,0,14.2c0.1,3.6,1.9,5.3,5.8,5.3
	c4,0.1,8,0,12,0c4,0,8,0,12,0c4.2-0.1,5.9-1.8,5.9-5.8c0-4.5,0-8.9,0-13.4C458.9-4.7,457.1-6.6,453.6-6.7z"/>
<path class="st8" d="M491.4,37.9c-4.1,0-8.2,0.1-12.3,0c-3.8-0.1-5.7-1.8-5.7-5.4c-0.1-4.6-0.1-9.3,0-13.9c0-3.3,1.8-5.2,5.2-5.2
	c8.4-0.1,16.8-0.1,25.2,0c3.4,0,5.2,1.9,5.2,5.2c0.1,4.6,0.1,9.3,0,13.9c-0.1,3.6-1.9,5.3-5.7,5.4C499.3,38,495.3,37.9,491.4,37.9z"
	/>
<path class="st7" d="M425.6-110.6c-2.4-3.2-5-3.7-8.4-1.5c-6.6,4.2-13.2,8.5-19.8,12.8c-3.2,2.1-3.7,4.5-1.6,7.5
	c2.7,3.9,5.5,7.7,8.3,11.5c2.1,2.8,4.7,3.3,7.7,1.4c6.9-4.4,13.7-8.8,20.5-13.3c1.3-0.9,2-2.5,3-3.8c-0.8-1.5-1.2-2.7-2-3.7
	C430.8-103.4,428.2-107,425.6-110.6z"/>
<path class="st8" d="M538-75.4c-0.6,1.4-1,2.6-1.6,3.5c-2.7,3.9-5.5,7.7-8.3,11.5c-2.1,2.8-4.7,3.3-7.7,1.5
	c-6.9-4.4-13.7-8.8-20.5-13.3c-2.8-1.9-3.3-4.3-1.3-7.1c2.8-4,5.6-7.9,8.5-11.8c2-2.7,4.6-3.2,7.5-1.4c7,4.4,13.9,8.9,20.7,13.5
	C536.4-78.2,537.1-76.6,538-75.4z"/>
<path class="st7" d="M289.3-200.8c-4.8-0.5-9.6-0.9-14.3-1.4c-3.9-0.4-6.1,1.1-6.5,4.8c-0.9,7.6-1.6,15.2-2.3,22.2
	c-0.2,4.6,1.1,6.2,5.3,6.7c4.8,0.5,9.6,1,14.3,1.3c3.5,0.3,5.7-1.4,6.1-4.7c0.8-7.7,1.6-15.4,2.3-23.1
	C294.5-198.5,292.8-200.4,289.3-200.8z"/>
<path class="st8" d="M666.1-155.6c0.3,5.2-0.9,6.7-5.9,7.2c-4.6,0.5-9.2,0.9-13.7,1.3c-3.5,0.3-5.7-1.5-6-4.7
	c-0.8-7.6-1.6-15.2-2.3-22.8c-0.4-3.7,1.3-5.6,5.2-6.1c4.9-0.5,9.8-1,14.6-1.4c3.4-0.3,5.5,1.4,5.9,4.9
	C664.7-169.9,665.4-162.5,666.1-155.6z"/>
<path class="st7" d="M387.6-154.7c-0.9-0.8-2.2-1.2-3.6-2c-1.4,0.8-2.9,1.2-3.9,2.2c-5.9,5.4-11.6,10.9-17.4,16.4
	c-2.6,2.5-2.6,4.9-0.1,7.4c3.5,3.4,7,6.8,10.6,10.1c2.4,2.2,5.3,2.2,7.6,0c5.9-5.5,11.8-11.1,17.6-16.6c2.4-2.3,2.4-4.9,0.1-7.2
	C394.9-147.9,391.3-151.4,387.6-154.7z"/>
<path class="st8" d="M571.9-114.5c-0.7,1.3-1.1,2.7-2.1,3.6c-3.5,3.5-7.1,6.9-10.8,10.3c-2.4,2.2-5.2,2.1-7.6-0.1
	c-5.9-5.5-11.8-11-17.6-16.6c-2.3-2.3-2.3-4.9,0-7.2c3.5-3.4,7-6.8,10.6-10.1c2.6-2.4,5.2-2.3,7.8,0.1c5.8,5.4,11.6,10.9,17.3,16.5
	C570.6-117.1,571.1-115.8,571.9-114.5z"/>
<path class="st7" d="M350.4-180.8c-4-2.5-8.2-4.7-12.4-6.9c-3.3-1.7-5.9-1.1-7.8,2c-4.1,6.6-8.1,13.2-12.1,19.9
	c-1.9,3.2-1.2,5.6,2.3,7.6c4,2.3,8.1,4.5,12.2,6.7c3.4,1.8,6,1.2,8-2c4-6.5,8-13.1,11.9-19.6c0.5-0.9,0.8-1.9,1.6-3.6
	C352.9-178.2,351.9-179.9,350.4-180.8z"/>
<path class="st8" d="M615.5-142.3c-0.8,1-1.6,2.7-2.9,3.4c-4.4,2.7-8.9,5.1-13.5,7.5c-2.8,1.5-5.5,0.8-7.1-1.8
	c-4.3-6.8-8.4-13.7-12.5-20.6c-1.6-2.7-0.9-5.2,1.9-6.8c4.5-2.6,9-5,13.5-7.4c2.7-1.4,5.3-0.7,6.9,1.8c4.3,6.9,8.5,13.9,12.7,20.9
	C615-144.6,615.1-143.7,615.5-142.3z"/>
<path class="st7" d="M449-58.5c-0.7-2.2-2.4-3.3-5.1-3.3c-0.5,0.1-1.3,0.2-2.1,0.4c-7.6,2.1-15.1,4.1-22.7,6.2
	c-3.8,1.1-5.1,3.2-4.1,6.8c1.3,4.4,2.6,8.8,4,13.1c1.1,3.4,3.4,4.7,7,3.7c7.9-2.1,15.7-4.2,23.6-6.5c3.3-0.9,4.6-3.1,3.8-6.3
	C452-49,450.5-53.8,449-58.5z"/>
<path class="st8" d="M517.6-29.1c-1.5,4.6-3,10.1-4.9,15.3c-0.9,2.4-3.4,3-5.9,2.3c-8.2-2.2-16.3-4.4-24.4-6.7
	c-2.8-0.8-4.1-2.9-3.4-5.7c1.3-5,2.8-9.9,4.5-14.8c0.9-2.6,3.2-3.7,6.2-3c8.3,2.1,16.5,4.4,24.7,6.7
	C516.7-34.2,517.7-32.3,517.6-29.1z"/>
</svg>
