<?xml version="1.0" encoding="utf-8"?>
<!-- Generator: Adobe Illustrator 19.0.0, SVG Export Plug-In . SVG Version: 6.00 Build 0)  -->
<svg version="1.1" id="Layer_1" xmlns="http://www.w3.org/2000/svg" xmlns:xlink="http://www.w3.org/1999/xlink" x="0px" y="0px"
	 viewBox="206 -206 512 512" style="enable-background:new 206 -206 512 512;" xml:space="preserve">
<style type="text/css">
	.st0{fill:#CDD4D5;}
	.st1{fill:#FD6A33;}
	.st2{fill:#E6EAEA;}
	.st3{fill:#FF8C29;}
	.st4{fill:#0295AA;}
	.st5{fill:#4ACFD9;}
	.st6{fill:#FFFFFF;}
	.st7{fill:#F0353D;}
	.st8{fill:#FFD1A9;}
	.st9{fill:#687F82;}
	.st10{fill:#365558;}
	.st11{fill:#9BAAAB;}
</style>
<g>
	<path class="st0" d="M373.1-63.1L233.5,38.3c12.7,4,22,15.9,22,30c0,17.4-14.1,31.4-31.4,31.4c-3.6,0-7.1-0.7-10.3-1.7l51.9,159.5
		c5.7-7.5,14.7-12.3,24.9-12.3c17.4,0,31.4,14.1,31.4,31.4c0,9.1-3.9,17.4-10.1,23.1h92.7V-31.7C387.2-31.8,373.1-45.8,373.1-63.1z"
		/>
	<path class="st1" d="M391-76.1l-17.9,13c0.1,17.3,14.1,31.3,31.4,31.3v-48.4C399.6-80.2,394.8-78.8,391-76.1z"/>
	<path class="st1" d="M255.5,68.2c0-14.1-9.3-26-22-30l-18.2,13.3c-7.5,5.4-11.2,17-8.4,25.6l6.7,20.7c3.3,1.1,6.7,1.7,10.3,1.7
		C241.4,99.7,255.5,85.6,255.5,68.2z"/>
	<path class="st1" d="M321.8,276.5c0-17.4-14.1-31.4-31.4-31.4c-10.2,0-19.2,4.8-24.9,12.3l8.5,26.3c2.9,8.8,12.6,15.9,21.9,15.9
		h15.8C318,293.9,321.8,285.6,321.8,276.5z"/>
	<path class="st2" d="M585,101.8c-17.3,0-31.4-14.1-31.4-31.4c0-14.8,10.2-27.2,24-30.6l-141.7-103c-0.1,17.3-14.1,31.3-31.4,31.3
		v331.4H491c-4.7-5.5-7.5-12.6-7.5-20.4c0-17.4,14.1-31.4,31.4-31.4c11.4,0,21.4,6.1,26.9,15.1l52.8-162.6
		C591.6,101.3,588.4,101.8,585,101.8z"/>
	<path class="st3" d="M435.9-63.1l-17.9-13c-3.7-2.7-8.6-4-13.5-4v48.4C421.8-31.8,435.9-45.8,435.9-63.1z"/>
	<path class="st3" d="M593.7,51.5l-16.1-11.7c-13.8,3.4-24,15.7-24,30.6c0,17.4,14.1,31.4,31.4,31.4c3.3,0,6.5-0.5,9.5-1.5l7.5-23.1
		C604.9,68.4,601.1,56.9,593.7,51.5z"/>
	<path class="st3" d="M514.9,247.8c-17.4,0-31.4,14.1-31.4,31.4c0,7.8,2.9,14.9,7.5,20.4h22.1c9.2,0,19-7.1,21.9-15.9l6.8-20.8
		C536.2,253.8,526.3,247.8,514.9,247.8z"/>
	<path class="st4" d="M260.6,68.2c-5.7,4.1-8.5,12.9-6.3,19.5l51,156.9c2.1,6.6,9.6,12,16.6,12h82.7V-31.8c-3.8,0-7.5,1-10.5,3.1
		L260.6,68.2z"/>
	<path class="st5" d="M548,68.2l-133.4-97c-2.8-2-6.4-3-10.1-3.1v288.5h82.3c7,0,14.4-5.4,16.6-12l51-156.9
		C556.5,81.1,553.6,72.3,548,68.2z"/>
</g>
<path class="st6" d="M582.8-24.6c-3-3-4.4-6.5-3.1-7.8L613-65.9c1.3-1.3,4.8,0.1,7.8,3.1c3,3,4.4,6.5,3.1,7.8l-33.4,33.4
	c-0.6,0.6-1.9,0.7-3.3,0.1l0,0l0,0C585.8-22.1,584.2-23.2,582.8-24.6z"/>
<path class="st3" d="M551.6-137.4L364.9,49.2c-1.5,1.5-2.4,3.6-2.4,5.7s0.9,4.2,2.4,5.7l85.4,85.4c1.5,1.5,3.6,2.4,5.7,2.4
	c2.1,0,4.2-0.9,5.7-2.4L648.4-40.6c1.6-1.6,2.4-3.6,2.4-5.7s-0.8-4.1-2.4-5.7L563-137.4c-1.5-1.5-3.6-2.4-5.7-2.4
	S553.1-138.9,551.6-137.4z"/>
<path class="st7" d="M407.3,103l43,43c1.5,1.5,3.6,2.4,5.7,2.4c2.1,0,4.2-0.9,5.7-2.4L648.4-40.6c1.6-1.6,2.4-3.6,2.4-5.7
	c0-2.1-0.8-4.1-2.4-5.7l-43-43L407.3,103z"/>
<path class="st5" d="M579-109.9L392.4,76.7c-3.2,3.2-3.2,8.3,0,11.4l30.5,30.5c1.5,1.5,3.6,2.4,5.7,2.4c2.1,0,4.2-0.9,5.7-2.4
	L620.9-68c1.6-1.6,2.4-3.6,2.4-5.7c0-2.1-0.8-4.1-2.4-5.7l-30.5-30.5c-1.5-1.5-3.6-2.4-5.7-2.4C582.6-112.3,580.5-111.4,579-109.9z"
	/>
<path class="st4" d="M407.3,103l15.6,15.6c1.5,1.5,3.6,2.4,5.7,2.4c2.1,0,4.2-0.9,5.7-2.4L620.9-68c1.6-1.6,2.4-3.6,2.4-5.7
	c0-2.1-0.8-4.1-2.4-5.7L605.3-95L407.3,103z"/>
<g>
	<path class="st8" d="M343.6,167.4c1.9,1.9,4.7,2.7,7.3,2.2l106.7-21.3l-94.9-94.9l-21.3,106.7C340.9,162.7,341.7,165.5,343.6,167.4
		z"/>
	<path class="st8" d="M343.3,167c0.1,0.1,0.2,0.3,0.3,0.4c1.9,1.9,4.7,2.7,7.3,2.2l106.7-21.3l-47.8-47.8L343.3,167z"/>
</g>
<path class="st9" d="M343.6,167.4c1.9,1.9,4.7,2.7,7.3,2.2l45.7-9.1l-46.1-46.1l-9.1,45.7C340.9,162.7,341.7,165.5,343.6,167.4z"/>
<path class="st10" d="M343.3,167c0.1,0.1,0.2,0.3,0.3,0.4c1.9,1.9,4.7,2.7,7.3,2.2l45.7-9.1L373.2,137L343.3,167z"/>
<path class="st0" d="M551.6-137.4l96.8,96.8l61-61c1.6-1.6,2.4-3.6,2.4-5.7s-0.8-4.1-2.4-5.7L624-198.3c-1.5-1.5-3.6-2.4-5.7-2.4
	c-2.1,0-4.2,0.9-5.7,2.4L551.6-137.4z"/>
<path class="st11" d="M599.6-89.3l48.8,48.8l61-61c1.6-1.6,2.4-3.6,2.4-5.7s-0.8-4.1-2.4-5.7l-43-43L599.6-89.3z"/>
<path class="st6" d="M629-149.5c0,2.1-0.8,4.1-2.4,5.7l-21.6,21.6c-3.2,3.2-8.3,3.2-11.4,0c-3.2-3.2-3.2-8.3,0-11.4l21.6-21.6
	c3.2-3.2,8.3-3.2,11.4,0C628.3-153.6,629-151.6,629-149.5z"/>
</svg>
