<?xml version="1.0" encoding="utf-8"?>
<!-- Generator: Adobe Illustrator 19.0.0, SVG Export Plug-In . SVG Version: 6.00 Build 0)  -->
<svg version="1.1" id="Layer_1" xmlns="http://www.w3.org/2000/svg" xmlns:xlink="http://www.w3.org/1999/xlink" x="0px" y="0px"
	 viewBox="96 11 512 512" style="enable-background:new 96 11 512 512;" xml:space="preserve">
<style type="text/css">
	.st0{fill:#F0353D;}
	.st1{fill:#FD6A33;}
	.st2{fill:#FF8C29;}
	.st3{fill:#FFD1A9;}
	.st4{fill:#365558;}
	.st5{fill:#0295AA;}
	.st6{fill:#4ACFD9;}
	.st7{fill:#9BAAAB;}
	.st8{fill:#CDD4D5;}
	.st9{fill:#E6EAEA;}
	.st10{fill:#FFFFFF;}
	.st11{fill:#BCD643;}
</style>
<rect x="-434" y="39" class="st0" width="128" height="128"/>
<rect x="-306" y="39" class="st1" width="128" height="128"/>
<rect x="-178" y="39" class="st2" width="128" height="128"/>
<path class="st3" d="M78,142V39H-50v128H76.2c-0.2-2.2-0.3-4.3-0.3-6.5C75.9,154.3,76.6,148.1,78,142z"/>
<path class="st3" d="M78,142c-1.4,6.1-2.1,12.3-2.1,18.5c0,2.2,0.1,4.4,0.3,6.5H78V142z"/>
<rect x="-434" y="167" class="st4" width="128" height="128"/>
<rect x="-306" y="167" class="st5" width="128" height="128"/>
<rect x="-178" y="167" class="st6" width="128" height="128"/>
<rect x="-434" y="295" class="st7" width="128" height="128"/>
<rect x="-306" y="295" class="st8" width="128" height="128"/>
<rect x="-178" y="295" class="st9" width="128" height="128"/>
<rect x="-50" y="295" class="st10" width="128" height="128"/>
<rect x="-434" y="423" class="st11" width="128" height="128"/>
<path class="st8" d="M167.4,167.9c-0.1-0.6-0.1-1.3-0.2-1.9C167.3,166.6,167.3,167.2,167.4,167.9z"/>
<path class="st8" d="M167.8,170.6c-0.1-0.7-0.2-1.5-0.3-2.3C167.6,169.1,167.7,169.8,167.8,170.6z"/>
<path class="st8" d="M167,162.7c0-0.8,0-1.6,0-2.4C167,161.1,167,161.9,167,162.7z"/>
<path class="st8" d="M167,160.3c0-1,0-2,0.1-2.9C167,158.3,167,159.3,167,160.3z"/>
<path class="st8" d="M167.2,165.1c0-0.6-0.1-1.1-0.1-1.7C167.1,164,167.1,164.6,167.2,165.1z"/>
<path class="st8" d="M168.2,172.9c-0.1-0.5-0.2-1-0.3-1.4C168,171.9,168.1,172.4,168.2,172.9z"/>
<path class="st8" d="M167.1,156.4c0-0.7,0.1-1.4,0.1-2.1C167.2,155,167.1,155.7,167.1,156.4z"/>
<path class="st8" d="M172.9,187.7c-0.1-0.3-0.2-0.5-0.4-0.8C172.7,187.1,172.8,187.4,172.9,187.7z"/>
<path class="st8" d="M173.9,189.7c-0.1-0.3-0.3-0.5-0.4-0.8C173.6,189.2,173.8,189.4,173.9,189.7z"/>
<path class="st8" d="M169.4,178.2c-0.2-0.7-0.4-1.4-0.5-2C169.1,176.8,169.2,177.5,169.4,178.2z"/>
<path class="st8" d="M168.7,175.3c-0.1-0.5-0.2-0.9-0.3-1.4C168.5,174.3,168.6,174.8,168.7,175.3z"/>
<path class="st8" d="M170.8,182.5c-0.1-0.3-0.2-0.7-0.3-1C170.6,181.9,170.7,182.2,170.8,182.5z"/>
<path class="st8" d="M170.1,180.4c-0.1-0.4-0.2-0.7-0.3-1.1C169.9,179.6,170,180,170.1,180.4z"/>
<path class="st8" d="M168.2,146.4c0.1-0.6,0.2-1.1,0.3-1.7C168.4,145.2,168.3,145.8,168.2,146.4z"/>
<path class="st8" d="M167.6,150.3c0.1-0.9,0.3-1.8,0.4-2.8C167.9,148.5,167.7,149.4,167.6,150.3z"/>
<path class="st8" d="M240.6,11c-25.6,11.1-49.2,26.1-70.1,44c4.2,1.9,8.2,4.9,11.9,9.3l0.2,0.3c5.1,6.1,7.6,12.5,7.6,19.1
	c0,4.7-1.4,13.7-11,20.6l-0.4,0.3l-0.4,0.3c-15.5,10.1-22.9,18.5-25.2,24c6.6,3.6,12,7.5,16.3,11.7c7-28,29-55.4,65.6-81.5
	c4.5-3.9,10.1-6,15.8-6c7.9,0,15.1,3.8,21.6,11.3l0.2,0.3c5.1,6.1,7.6,12.5,7.6,19.1c0,4.7-1.4,13.7-11,20.6l-0.4,0.3l-0.4,0.3
	c-17.7,11.5-23.3,19.6-25.1,23.9c18.2,10,27.4,22.4,27.4,36.7c0,14.8-6.1,28.8-17.5,40.2c-13.2,13.2-26.8,16-35.9,16
	c-9.9,0-24.4-3.8-37.3-21.9c-2.1-2.8-3.9-5.8-5.5-8.8c0,0,0,0,0,0c-2.8,5.3-6.5,10.3-11.1,14.9c-13.2,13.2-26.8,16-35.9,16
	c-8.5,0-20.3-2.7-31.6-14.5V378c28,64.8,80,116.8,144.6,144.9h110.9V11H240.6z"/>
<path class="st8" d="M167.3,153.3c0.1-0.8,0.1-1.5,0.2-2.3C167.4,151.8,167.4,152.5,167.3,153.3z"/>
<path class="st8" d="M168.8,143.4c0.1-0.6,0.3-1.1,0.4-1.7C169,142.2,168.9,142.8,168.8,143.4z"/>
<path class="st8" d="M167.6,150.3c0,0.2,0,0.5-0.1,0.7C167.6,150.8,167.6,150.6,167.6,150.3z"/>
<path class="st8" d="M169.5,140.5L169.5,140.5c-0.1,0.4-0.2,0.8-0.3,1.2C169.3,141.3,169.4,140.9,169.5,140.5z"/>
<path class="st8" d="M167.3,153.3c0,0.3-0.1,0.7-0.1,1C167.2,154,167.3,153.6,167.3,153.3z"/>
<path class="st8" d="M174.6,191c-0.2-0.4-0.4-0.9-0.7-1.3C174.1,190.1,174.3,190.6,174.6,191z"/>
<path class="st8" d="M168.7,175.3c0.1,0.3,0.1,0.6,0.2,0.9C168.8,175.9,168.8,175.6,168.7,175.3z"/>
<path class="st8" d="M168.8,143.4c-0.1,0.4-0.2,0.9-0.3,1.3C168.6,144.2,168.7,143.8,168.8,143.4z"/>
<path class="st8" d="M168.2,146.4c-0.1,0.4-0.1,0.8-0.2,1.2C168.1,147.2,168.1,146.8,168.2,146.4z"/>
<path class="st8" d="M167.4,167.9c0,0.1,0,0.3,0,0.4C167.4,168.2,167.4,168,167.4,167.9z"/>
<path class="st8" d="M167.8,170.6c0,0.3,0.1,0.6,0.1,0.9C167.9,171.1,167.8,170.9,167.8,170.6z"/>
<path class="st8" d="M170.1,180.4c0.1,0.4,0.3,0.8,0.4,1.2C170.3,181.2,170.2,180.8,170.1,180.4z"/>
<path class="st8" d="M167.1,156.4c0,0.3,0,0.6,0,0.9C167.1,157,167.1,156.7,167.1,156.4z"/>
<path class="st8" d="M169.4,178.2c0.1,0.4,0.2,0.7,0.3,1.1C169.6,178.9,169.5,178.6,169.4,178.2z"/>
<path class="st8" d="M168.2,172.9c0.1,0.3,0.1,0.6,0.2,1C168.3,173.5,168.2,173.2,168.2,172.9z"/>
<path class="st8" d="M167.2,165.1c0,0.3,0,0.5,0.1,0.8C167.2,165.7,167.2,165.4,167.2,165.1z"/>
<path class="st8" d="M167,162.7c0,0.2,0,0.5,0,0.7C167.1,163.2,167,162.9,167,162.7z"/>
<path class="st8" d="M172.9,187.7c0.2,0.4,0.4,0.9,0.6,1.3C173.3,188.5,173.1,188.1,172.9,187.7z"/>
<path class="st8" d="M170.8,182.5c0.5,1.5,1.1,2.9,1.7,4.3C171.9,185.4,171.3,184,170.8,182.5z"/>
<path class="st9" d="M559.9,153.8c-4.5,3.9-10.1,6-15.8,6c-7.9,0-15.1-3.8-21.6-11.3l-0.2-0.3c-5.1-6.2-7.6-12.4-7.6-19.1
	c0-8.1,4-15.6,11-20.6l0.4-0.3l0.4-0.3c15.5-10.1,22.9-18.5,25.2-24c-6.6-3.6-12.1-7.6-16.3-11.8c-7,28.2-28.9,55.6-65.6,81.7
	c-4.5,3.9-10.1,6-15.8,6c-7.9,0-15.1-3.8-21.6-11.3l-0.2-0.3c-5.1-6.2-7.6-12.4-7.6-19.1c0-8.1,4-15.6,11-20.6l0.4-0.3l0.4-0.3
	c15.5-10.1,22.9-18.5,25.2-24c-18.2-10-27.5-22.4-27.5-36.8c0-13.1,4.7-25.5,13.8-36.1h-96.3v511.9h110.8
	c64.7-28,116.6-80.1,144.7-144.8V155.9c-4.3-10-9.3-19.7-14.7-29.1C583.1,135.9,572.4,144.9,559.9,153.8z"/>
<path class="st7" d="M167.5,168.3c0.1,0.8,0.2,1.5,0.3,2.3C167.7,169.8,167.6,169.1,167.5,168.3z"/>
<path class="st7" d="M168.4,173.8c0.1,0.5,0.2,0.9,0.3,1.4C168.6,174.8,168.5,174.3,168.4,173.8z"/>
<path class="st7" d="M167.2,165.9c0.1,0.7,0.1,1.3,0.2,1.9C167.3,167.2,167.3,166.6,167.2,165.9z"/>
<path class="st7" d="M167.9,171.4c0.1,0.5,0.2,1,0.3,1.4C168.1,172.4,168,171.9,167.9,171.4z"/>
<path class="st7" d="M167.8,149.2C167.8,149.2,167.8,149.2,167.8,149.2c-0.4,2.7-0.6,5.4-0.7,8C167.2,154.6,167.4,151.9,167.8,149.2
	z"/>
<path class="st7" d="M167,157.5c0,0.9,0,1.8,0,2.7C167,159.3,167,158.4,167,157.5z"/>
<path class="st7" d="M168.9,176.1c0.2,0.7,0.3,1.4,0.5,2C169.2,177.5,169.1,176.8,168.9,176.1z"/>
<path class="st7" d="M167,160.3c0,0.8,0,1.6,0,2.4C167,161.9,167,161.1,167,160.3z"/>
<path class="st7" d="M167.1,163.4c0,0.6,0.1,1.1,0.1,1.7C167.1,164.6,167.1,164,167.1,163.4z"/>
<path class="st7" d="M173.5,188.9c0.1,0.3,0.3,0.5,0.4,0.8C173.8,189.4,173.6,189.2,173.5,188.9z"/>
<path class="st7" d="M170.5,181.5c0.1,0.3,0.2,0.7,0.3,1C170.7,182.2,170.6,181.9,170.5,181.5z"/>
<path class="st7" d="M271.7,63.6c0.2,0.2,0.4,0.5,0.7,0.7l0.2,0.3c5.1,6.1,7.6,12.5,7.6,19.1c0,4.7-1.4,13.7-11,20.6l-0.4,0.3
	l-0.4,0.3c-17.7,11.5-23.3,19.6-25.1,23.9c18.2,10,27.4,22.4,27.4,36.7c0,14.8-6.1,28.8-17.5,40.2c-13.2,13.2-26.8,16-35.9,16
	c-9.9,0-24.4-3.8-37.3-21.9c-2.1-2.8-3.9-5.8-5.5-8.8c0,0,0,0,0,0c-2.8,5.3-6.5,10.3-11.1,14.9c-8.6,8.7-17.5,12.8-25.1,14.7
	c-3.2,15-4.9,30.5-4.9,46.4c0,120.7,97.6,218.5,218,218.5v-437C323.3,48.5,296.4,53.8,271.7,63.6z"/>
<path class="st7" d="M172.6,186.9c0.1,0.3,0.2,0.5,0.4,0.8C172.8,187.4,172.7,187.1,172.6,186.9z"/>
<path class="st7" d="M169.8,179.3c0.1,0.4,0.2,0.7,0.3,1.1C170,180,169.9,179.6,169.8,179.3z"/>
<path class="st7" d="M167.2,165.1c0,0.3,0,0.5,0.1,0.8C167.2,165.7,167.2,165.4,167.2,165.1z"/>
<path class="st7" d="M167,162.7c0,0.2,0,0.5,0,0.7C167.1,163.2,167,162.9,167,162.7z"/>
<path class="st7" d="M167.1,157.2c0,0.1,0,0.2,0,0.3C167,157.4,167.1,157.3,167.1,157.2z"/>
<path class="st7" d="M167.4,167.9c0,0.1,0,0.3,0,0.4C167.4,168.2,167.4,168,167.4,167.9z"/>
<path class="st7" d="M167.8,170.6c0,0.3,0.1,0.6,0.1,0.9C167.9,171.1,167.8,170.9,167.8,170.6z"/>
<path class="st7" d="M172.9,187.7c0.2,0.4,0.4,0.9,0.6,1.3C173.3,188.5,173.1,188.1,172.9,187.7z"/>
<path class="st7" d="M170.8,182.5c0.5,1.5,1.1,2.9,1.7,4.3C171.9,185.4,171.3,184,170.8,182.5z"/>
<path class="st7" d="M174.6,191c-0.2-0.4-0.4-0.9-0.7-1.3C174.1,190.1,174.3,190.6,174.6,191z"/>
<path class="st7" d="M169.4,178.2c0.1,0.4,0.2,0.7,0.3,1.1C169.6,178.9,169.5,178.6,169.4,178.2z"/>
<path class="st7" d="M168.7,175.3c0.1,0.3,0.1,0.6,0.2,0.9C168.8,175.9,168.8,175.6,168.7,175.3z"/>
<path class="st7" d="M168.2,172.9c0.1,0.3,0.1,0.6,0.2,1C168.3,173.5,168.2,173.2,168.2,172.9z"/>
<path class="st7" d="M170.1,180.4c0.1,0.4,0.3,0.8,0.4,1.2C170.3,181.2,170.2,180.8,170.1,180.4z"/>
<path class="st8" d="M522.5,148.4l-0.2-0.3c-5.1-6.2-7.6-12.4-7.6-19.1c0-2,0.3-4,0.8-6c-1.6-1.9-3.3-3.7-5-5.5
	c-10.6,12.3-24.1,24.4-40.7,36.3c-4.5,3.9-10.1,6-15.8,6c-7.9,0-15.1-3.8-21.6-11.3l-0.2-0.3c-5.1-6.2-7.6-12.4-7.6-19.1
	c0-8.1,4-15.6,11-20.6l0.4-0.3l0.4-0.3c15.5-10.1,22.9-18.5,25.2-24c-8.7-4.8-15.3-10.1-19.9-15.9c-27.5-12.5-58-19.5-90.1-19.5v437
	c120.4,0,218-97.8,218-218.5c0-39.1-10.2-75.7-28.1-107.4C534.5,158.8,528.2,155,522.5,148.4z"/>
<path class="st8" d="M257.7,138.7c8.7,7.9,13.1,16.8,13.1,26.7c0,14.8-6.1,28.8-17.5,40.2c-13.2,13.2-26.8,16-35.9,16
	c-4.8,0-10.6-0.9-16.8-3.8c-5,15.5-7.8,32-7.8,49.2c0,87.8,71,159,158.6,159V108C316.4,108,284,119.4,257.7,138.7z"/>
<path class="st9" d="M432.3,148.4l-0.2-0.3c-5.1-6.2-7.6-12.4-7.6-19.1c0-1,0.1-2.1,0.2-3.1c-21.9-11.5-46.8-18-73.3-18v318
	c87.6,0,158.6-71.2,158.6-159c0-42.9-16.9-81.8-44.5-110.4c-3.6,2-7.6,3.1-11.7,3.1C446.1,159.8,438.8,155.9,432.3,148.4z"/>
<path class="st7" d="M253.6,267c0,54.1,43.8,98,97.8,98V169C297.4,169,253.6,212.9,253.6,267z"/>
<path class="st8" d="M449.2,267c0-54.1-43.8-98-97.8-98v196C405.4,365,449.2,321.1,449.2,267z"/>
<path class="st6" d="M551.7,83.9c-6.6-3.6-12.1-7.6-16.3-11.8c-1.1,4.4-2.6,8.9-4.4,13.3l0.9,0.9l10,10.1
	C547.3,91.3,550.3,87.1,551.7,83.9z"/>
<path class="st6" d="M581.8,136.5l6.6,6.6c4.8,4.8,9.4,6.7,13,5.2c0.5-0.2,1-0.5,1.5-0.9c-3.3-7-7-13.8-10.8-20.5
	C588.8,130.1,585.4,133.3,581.8,136.5z"/>
<path class="st6" d="M531.6,86.2l-0.7-0.7c-0.4,0.9-0.8,1.8-1.2,2.7L531.6,86.2z"/>
<path class="st6" d="M525.7,108.4l0.4-0.3l0.4-0.3c6.4-4.2,11.5-8.1,15.3-11.6l-10.1-10.1l-2.1,2.1c-4.5,9.8-10.8,19.4-18.9,29
	c1.7,1.8,3.3,3.6,4.9,5.4C517.1,117.1,520.6,112.1,525.7,108.4z"/>
<path class="st6" d="M432.3,148.4l-0.2-0.3c-3.5-4.2-5.7-8.4-6.8-12.8l-38.9,39c26.4,10,47.5,31.1,57.5,57.6l44.7-44.8
	c-6.5-11.1-14.2-21.3-23.1-30.5c-3.6,2-7.5,3-11.5,3C446.1,159.8,438.8,155.9,432.3,148.4z"/>
<path class="st6" d="M588.4,390.9l-15.9,15.9l-40.7,41l-40.9,40.8L475,504.5c-4.8,4.8-6.7,9.4-5.2,13c0.2,0.5,0.5,1,0.9,1.5
	c57.8-27.6,104.6-74.5,132.1-132.4c-0.5-0.4-1-0.7-1.5-0.9C597.8,384.2,593.2,386.1,588.4,390.9z"/>
<path class="st6" d="M542.9,401L542.9,401L532,390.1c-15.6,22.8-35,42.3-57.6,57.8l10.9,10.9h0.1l17.7,17.7l28.7-28.8L514.1,430
	v-0.1h0.1l17.7,17.7l28.7-28.8L542.9,401L542.9,401z"/>
<path class="st6" d="M386.3,359.6l44.7,44.8c23.7-13.9,43.6-33.8,57.5-57.6L443.8,302C433.8,328.5,412.8,349.6,386.3,359.6z"/>
<path class="st5" d="M525.1,13c2,2.9,3.8,5.9,5.4,8.9c2-3.8,4.5-7.5,7.4-10.9h-14.3c0.4,0.5,0.9,1.1,1.3,1.7L525.1,13z"/>
<path class="st5" d="M592,126.9c3.9,6.7,7.5,13.5,10.8,20.5c2.6-2,4-6.2,4-12v-25.6C602.6,115.6,597.6,121.2,592,126.9z"/>
<path class="st5" d="M522.3,148.2c-5.1-6.2-7.6-12.4-7.6-19.1c0-2.2,0.3-4.4,0.9-6.4c-1.6-1.8-3.2-3.6-4.9-5.4
	c-10.6,12.4-24.3,24.6-41,36.6c-1.3,1.1-2.7,2-4.1,2.9c8.8,9.2,16.6,19.4,23,30.4l36.2-36.3c-0.8-0.8-1.5-1.6-2.3-2.4L522.3,148.2z"
	/>
<path class="st5" d="M386.3,174.4l-5.9,5.9c-4.1,4.1-4.1,10.8,0,14.8l21.4,21.4l21.4,21.4c4,4.1,10.7,4.1,14.8,0l5.9-5.9
	C433.8,205.5,412.8,184.4,386.3,174.4z"/>
<path class="st5" d="M602.9,386.6c-27.5,57.9-74.3,104.8-132.1,132.4c2,2.6,6.2,4,12,4h98.9c6.8,0,13.1-2.7,18-7.3
	c4.6-4.9,7.3-11.2,7.3-18v-99.1C606.9,392.8,605.5,388.6,602.9,386.6z"/>
<path class="st5" d="M431.1,404.5l43.3,43.4c22.5-15.4,42.1-35,57.5-57.6l-43.3-43.4C474.7,370.7,454.9,390.6,431.1,404.5z"/>
<path class="st5" d="M423.2,296.1l-21.4,21.4l-21.4,21.4c-4.1,4-4.1,10.7,0,14.8l5.9,5.9c26.4-10,47.5-31.1,57.5-57.6l-5.9-5.9
	C433.8,292,427.2,292,423.2,296.1z"/>
<path class="st5" d="M179.2,104.3l-0.4,0.3l-0.4,0.3c-13.9,9.1-21.3,16.7-24.3,22.2l5.7,5.7c3.7,2.4,6.9,5,9.7,7.7
	c-0.1,0.6-0.3,1.1-0.4,1.7l0,0c3-13.1,9.3-26.1,18.8-38.9l-3.6-3.7C182.9,101.2,181.2,102.8,179.2,104.3z"/>
<path class="st5" d="M142.3,115.2l11.8,11.8c3-5.5,10.4-13.1,24.3-22.2l0.4-0.3l0.4-0.3c2-1.5,3.7-3,5-4.6L171,86.4L142.3,115.2z"/>
<path class="st5" d="M159.8,132.7l0.2,0.2v0.1l9.1,9.1c0.1-0.6,0.3-1.1,0.4-1.7C166.7,137.8,163.5,135.2,159.8,132.7z"/>
<path class="st5" d="M199.8,57.5l-13.1,13.1c2.3,4.2,3.5,8.6,3.5,13c0,3.7-0.9,10-5.8,15.9l3.6,3.6c7.4-9.9,16.8-19.7,28-29.4
	L199.8,57.5z"/>
<path class="st5" d="M186.7,70.6L171,86.3l13.3,13.2c4.9-5.9,5.8-12.2,5.8-15.9C190.1,79.2,189,74.9,186.7,70.6z"/>
<path class="st5" d="M233,16.5c-0.2-0.5-0.5-1-0.9-1.5c-22.3,10.7-42.9,24.2-61.5,40.1c4.1,1.9,8,4.9,11.7,9.2l0.2,0.3
	c1.7,2,3,4,4.1,6.1l25.3-25.2l15.9-15.9C232.6,24.7,234.5,20.1,233,16.5z"/>
<path class="st5" d="M271.8,129.6c-4.8,2.8-9.5,5.9-14,9.2c8.6,7.9,12.9,16.8,12.9,26.6c0,14.8-6.1,28.8-17.5,40.2
	c-3.8,3.8-7.7,6.8-11.4,9L259,232c10-26.5,31-47.6,57.5-57.6L271.8,129.6z"/>
<path class="st5" d="M211.9,488.6L171,447.8l-40.7-41l-15.9-15.9c-4.8-4.8-9.4-6.7-13-5.2c-0.5,0.2-1,0.5-1.5,0.9
	c27.5,57.9,74.3,104.8,132.1,132.4c0.4-0.5,0.7-1,0.9-1.5c1.5-3.6-0.4-8.2-5.2-13L211.9,488.6z"/>
<path class="st5" d="M170.9,390.3l-10.9,10.9v0.1L142.4,419l28.7,28.8l17.7-17.8h0.1v0.1l-17.7,17.7l28.7,28.8l17.7-17.7h0.1
	l10.9-10.9C205.9,432.4,186.4,412.9,170.9,390.3z"/>
<path class="st5" d="M259,302l-44.7,44.8c13.9,23.8,33.7,43.7,57.5,57.6l44.7-44.8C290.1,349.6,269,328.5,259,302z"/>
<path class="st4" d="M144.9,58.9c4.5-3.9,10.1-6,15.8-6c3.4,0,6.7,0.7,9.9,2.2c18.5-15.9,39.2-29.5,61.5-40.1c-2-2.6-6.2-4-12-4
	h-98.9c-6.8,0-13.1,2.7-18,7.3c-4.6,4.9-7.3,11.2-7.3,18v69.3C107.2,89.9,123.6,74.2,144.9,58.9z"/>
<path class="st4" d="M322.4,180.3l-5.9-5.9c-26.4,10-47.5,31.1-57.5,57.6l5.9,5.9c4.1,4.1,10.8,4.1,14.8,0l21.4-21.4l21.4-21.4
	C326.5,191.1,326.5,184.4,322.4,180.3z"/>
<path class="st4" d="M232.1,519c-57.8-27.6-104.6-74.5-132.1-132.4c-2.6,2-4,6.2-4,12v99.1c0,6.8,2.7,13.1,7.3,18
	c4.9,4.6,11.2,7.3,18,7.3h98.9C225.9,523,230.1,521.6,232.1,519z"/>
<path class="st4" d="M214.2,346.9l-43.3,43.4c15.4,22.6,34.9,42.2,57.5,57.6l43.3-43.4C248,390.6,228.1,370.7,214.2,346.9z"/>
<path class="st4" d="M243.3,128.7c5.7,3.1,10.5,6.5,14.4,10c4.5-3.3,9.2-6.4,14-9.2l-15.6-15.7C247.9,120.6,244.6,125.6,243.3,128.7
	z"/>
<path class="st4" d="M301,317.5l-21.4-21.4c-4-4.1-10.7-4.1-14.8,0L259,302c10,26.5,31,47.6,57.5,57.6l5.9-5.9
	c4.1-4.1,4.1-10.8,0-14.8L301,317.5z"/>
<path class="st0" d="M141.9,145.5c-6.4-3.4-9.5-7.9-9.5-13.3c0-14.2,11.7-28.9,35-44.1c1.8-1.3,2.7-2.7,2.7-4.4c0-1.8-1-3.9-3-6.3
	c-2.5-2.9-4.7-4.4-6.5-4.4c-1.1,0-2.2,0.5-3.3,1.6C117,103.4,96.8,132,96.8,160.5c0,10.2,3.1,19.4,9.3,27.8
	c6.5,9.1,13.7,13.6,21.5,13.6s15.1-3.4,21.8-10.1c7.8-7.8,11.7-16.5,11.7-26.1C160.9,158.8,154.6,152,141.9,145.5z"/>
<path class="st0" d="M257.6,88.1c1.8-1.3,2.7-2.7,2.7-4.4c0-1.8-1-3.9-3-6.3c-2.5-2.9-4.7-4.4-6.5-4.4c-1.1,0-2.2,0.5-3.3,1.6
	c-40.4,28.7-60.6,57.3-60.6,85.7c0,10.2,3.1,19.4,9.3,27.8c6.5,9.1,13.6,13.6,21.2,13.6c7.8,0,15.1-3.4,21.8-10.1
	c7.8-7.8,11.7-16.5,11.7-26.1c0-6.9-6.3-13.6-18.8-20.1c-6.4-3.4-9.5-7.9-9.5-13.3C222.6,118,234.2,103.3,257.6,88.1z"/>
<path class="st1" d="M517.8,52.5c0,28.5-20.2,57.1-60.6,85.7c-1.1,1.1-2.2,1.6-3.3,1.6c-1.8,0-4-1.5-6.5-4.4c-2-2.4-3-4.4-3-6.3
	c0-1.6,0.9-3.1,2.7-4.4c23.3-15.2,35-29.9,35-44.1c0-5.4-3.2-9.9-9.5-13.3c-12.5-6.5-18.8-13.2-18.8-20.1c0-9.6,3.9-18.3,11.7-26.1
	c6.7-6.7,14-10.1,21.8-10.1c7.6,0,14.8,4.5,21.5,13.6C514.8,33.1,517.8,42.3,517.8,52.5z M608,52.5c0,28.5-20.2,57.1-60.6,85.7
	c-1.1,1.1-2.2,1.6-3.3,1.6c-1.8,0-4-1.5-6.5-4.4c-2-2.4-3-4.4-3-6.3c0-1.6,0.9-3.1,2.7-4.4c23.3-15.2,35-29.9,35-44.1
	c0-5.4-3.2-9.9-9.5-13.3c-12.5-6.5-18.8-13.2-18.8-20.1c0-9.6,3.9-18.3,11.7-26.1c6.7-6.7,14-10.1,21.8-10.1
	c7.6,0,14.7,4.5,21.2,13.6C604.9,33.1,608,42.3,608,52.5z"/>
</svg>
