<?xml version="1.0" encoding="utf-8"?>
<!-- Generator: Adobe Illustrator 19.0.0, SVG Export Plug-In . SVG Version: 6.00 Build 0)  -->
<svg version="1.1" id="Layer_1" xmlns="http://www.w3.org/2000/svg" xmlns:xlink="http://www.w3.org/1999/xlink" x="0px" y="0px"
	 viewBox="96 11 512 512" style="enable-background:new 96 11 512 512;" xml:space="preserve">
<style type="text/css">
	.st0{fill:#F0353D;}
	.st1{fill:#FD6A33;}
	.st2{fill:#FF8C29;}
	.st3{fill:#FFD1A9;}
	.st4{fill:#365558;}
	.st5{fill:#0295AA;}
	.st6{fill:#4ACFD9;}
	.st7{fill:#9BAAAB;}
	.st8{fill:#CDD4D5;}
	.st9{fill:#E6EAEA;}
	.st10{fill:#FFFFFF;}
	.st11{fill:#BCD643;}
	.st12{fill:none;}
</style>
<rect x="892" y="66.1" class="st0" width="128" height="128"/>
<rect x="1020" y="66.1" class="st1" width="128" height="128"/>
<rect x="1148" y="66.1" class="st2" width="128" height="128"/>
<rect x="1276" y="66.1" class="st3" width="128" height="128"/>
<rect x="892" y="194.1" class="st4" width="128" height="128"/>
<rect x="1020" y="194.1" class="st5" width="128" height="128"/>
<rect x="1148" y="194.1" class="st6" width="128" height="128"/>
<rect x="892" y="322.1" class="st7" width="128" height="128"/>
<rect x="1020" y="322.1" class="st8" width="128" height="128"/>
<rect x="1148" y="322.1" class="st9" width="128" height="128"/>
<rect x="1276" y="322.1" class="st10" width="128" height="128"/>
<rect x="892" y="450.1" class="st11" width="128" height="128"/>
<path class="st10" d="M257.8,454h-0.3v9.2h-24.4V346h24.4v49.9h0.3c5.1-7.8,12.1-12.3,20.9-13.5V323H104.6c-4.7,0-8.6,3.9-8.6,8.6
	v182.8c0,4.7,3.9,8.6,8.6,8.6h174.1v-57.9C269.5,464.8,262.6,461.1,257.8,454z M194.4,463.1l-7.9-24.7h-39.4l-7.8,24.7h-27
	l40.4-110.8h29.6l39.4,110.8L194.4,463.1L194.4,463.1L194.4,463.1z"/>
<path class="st10" d="M167.1,372.1h-0.6c-0.3,3.2-0.9,6.5-1.9,9.7l-12,37.5h28.4L169,382C168.1,379.3,167.4,376,167.1,372.1z"/>
<path class="st10" d="M286.1,406.3c-1.9-2.5-4.4-4.2-7.5-4.9v44.1c2.8-1,5.2-2.9,7-5.4c3.1-4.3,4.6-10.4,4.6-18.3
	C290.3,415.1,288.9,410,286.1,406.3z"/>
<path class="st10" d="M274.1,400.8c-4.9,0-9,1.9-12.2,5.5c-3.2,3.7-4.8,8.4-4.8,14.3v8.1c0,5.1,1.4,9.3,4.4,12.7
	c2.9,3.4,6.7,5,11.3,5c2.2,0,4.1-0.4,5.9-1v-44.1C277.3,401,275.7,400.8,274.1,400.8z"/>
<path class="st12" d="M391.2,460.3c-5.5,3.2-13.5,4.8-23.9,4.8c-12.2,0-22-3.7-29.5-11c-7.5-7.4-11.3-16.8-11.3-28.5
	c0-13.5,4-24,12.1-31.8c8-7.7,18.9-11.6,32.3-11.6c9.3,0,16.1,1.2,20.2,3.7v20.7c-5.1-3.8-10.8-5.7-17.1-5.7c-7,0-12.5,2.1-16.6,6.2
	c-4.1,4.1-6.2,9.8-6.2,17c0,7,1.9,12.5,5.9,16.5c3.9,4,9.3,6,16.1,6c6.1,0,12-1.9,17.9-5.7V460.3z"/>
<path class="st2" d="M453,323H278.7v59.4c1.6-0.2,3.2-0.4,4.9-0.4c10.2,0,18.1,3.5,23.6,10.5c5.5,7,8.2,16.6,8.2,28.8
	c0,13.2-3.2,23.8-9.7,31.8c-6.5,8-15.1,12-25.8,12c-0.4,0-0.8,0-1.2,0V523H453c4.7,0,8.6-3.9,8.6-8.6V331.6
	C461.6,326.8,457.7,323,453,323z M391.2,406.5c-5.1-3.8-10.8-5.7-17.1-5.7c-7,0-12.5,2.1-16.6,6.2c-4.1,4.1-6.2,9.8-6.2,17
	c0,7,1.9,12.5,5.9,16.5s9.3,6,16.1,6c6.1,0,12-1.9,17.9-5.7v19.6c-5.5,3.2-13.5,4.8-23.9,4.8c-12.2,0-22-3.7-29.5-11
	c-7.5-7.4-11.3-16.8-11.3-28.5c0-13.5,4-24,12.1-31.8c8-7.7,18.9-11.6,32.3-11.6c9.3,0,16.1,1.2,20.2,3.7V406.5z M445.5,361.5h-17.1
	v117.6h17.1v9.2h-28.4h-12.8v-9.2h15.8V361.5h-15.8v-9.2h12.8h28.4V361.5z"/>
<path class="st1" d="M257.8,454h-0.3v9.2h-24.4V346h24.4v49.9h0.3c5.1-7.8,12.1-12.3,20.9-13.5V323H104.6c-4.7,0-8.6,3.9-8.6,8.6
	v182.8c0,4.7,3.9,8.6,8.6,8.6h174.1v-57.9C269.5,464.8,262.6,461.1,257.8,454z M194.4,463.1l-7.9-24.7h-39.4l-7.8,24.7h-27
	l40.4-110.8h29.6l39.4,110.8L194.4,463.1L194.4,463.1L194.4,463.1z"/>
<path class="st1" d="M167.1,372.1h-0.6c-0.3,3.2-0.9,6.5-1.9,9.7l-12,37.5h28.4L169,382C168.1,379.3,167.4,376,167.1,372.1z"/>
<path class="st2" d="M286.1,406.3c-1.9-2.5-4.4-4.2-7.5-4.9v44.1c2.8-1,5.2-2.9,7-5.4c3.1-4.3,4.6-10.4,4.6-18.3
	C290.3,415.1,288.9,410,286.1,406.3z"/>
<path class="st1" d="M274.1,400.8c-4.9,0-9,1.9-12.2,5.5c-3.2,3.7-4.8,8.4-4.8,14.3v8.1c0,5.1,1.4,9.3,4.4,12.7
	c2.9,3.4,6.7,5,11.3,5c2.2,0,4.1-0.4,5.9-1v-44.1C277.3,401,275.7,400.8,274.1,400.8z"/>
<polygon class="st12" points="417.1,352.4 445.5,352.4 445.5,361.5 428.4,361.5 428.4,479.1 445.5,479.1 445.5,488.4 417.1,488.4 
	404.4,488.4 404.4,479.1 420.1,479.1 420.1,361.5 404.4,361.5 404.4,352.4 "/>
<polygon class="st12" points="417.1,352.4 445.5,352.4 445.5,361.5 428.4,361.5 428.4,479.1 445.5,479.1 445.5,488.4 417.1,488.4 
	404.4,488.4 404.4,479.1 420.1,479.1 420.1,361.5 404.4,361.5 404.4,352.4 "/>
<path class="st8" d="M556.3,118.1l-54.6-54.6c-2.8-2.8-7.4-2.8-10.2,0L305.6,249.3c-0.4,0.4-0.7,0.8-1,1.2l-60.1,92.9
	c-1.9,2.9-1.5,6.6,1,9.1l21.9,21.9c1.4,1.4,3.3,2.1,5.1,2.1c1.4,0,2.7-0.4,3.9-1.2l92.9-60.1c0.4-0.3,0.8-0.6,1.2-1l185.8-185.8
	C559.1,125.5,559.1,120.9,556.3,118.1z"/>
<path class="st2" d="M594.6,25.2c-17.9-17.9-47-17.9-64.9,0l-43.7,43.7c-2.8,2.8-2.8,7.4,0,10.2l54.6,54.6c1.4,1.4,3.3,2.1,5.1,2.1
	s3.7-0.7,5.1-2.1l43.7-43.7c8.7-8.7,13.4-20.2,13.4-32.4C608,45.4,603.2,33.9,594.6,25.2z"/>
<path class="st10" d="M534.8,70.4c-1.9,0-3.7-0.7-5.1-2.1c-2.8-2.8-2.8-7.4,0-10.2l16.4-16.4c2.8-2.8,7.4-2.8,10.2,0
	c2.8,2.8,2.8,7.4,0,10.2l-16.4,16.4C538.5,69.7,536.6,70.4,534.8,70.4z"/>
<path class="st1" d="M589.1,140L479.8,30.7c-2.8-2.8-7.4-2.8-10.2,0L442.2,58c-2.8,2.8-2.8,7.4,0,10.2l109.3,109.3
	c1.4,1.4,3.3,2.1,5.1,2.1c1.9,0,3.7-0.7,5.1-2.1l27.3-27.3c1.4-1.4,2.1-3.2,2.1-5.1C591.2,143.2,590.5,141.3,589.1,140z"/>
<path class="st0" d="M534.7,85.5l-37.6,37.6l54.4,54.4c1.4,1.4,3.3,2.1,5.1,2.1c1.9,0,3.7-0.7,5.1-2.1l27.3-27.3
	c1.4-1.4,2.1-3.2,2.1-5.1c0-1.9-0.8-3.8-2.1-5.1L534.7,85.5z"/>
<g>
	<path class="st10" d="M338.1,267.1c-1.9,0-3.7-0.7-5.1-2.1c-2.8-2.8-2.8-7.4,0-10.2l21.9-21.9c2.8-2.8,7.4-2.8,10.2,0
		c2.8,2.8,2.8,7.4,0,10.2L343.2,265C341.8,266.4,339.9,267.1,338.1,267.1z"/>
	<path class="st10" d="M381.8,223.4c-1.9,0-3.7-0.7-5.1-2.1c-2.8-2.8-2.8-7.4,0-10.2l76.5-76.5c2.8-2.8,7.4-2.8,10.2,0
		c2.8,2.8,2.8,7.4,0,10.2l-76.5,76.5C385.5,222.7,383.6,223.4,381.8,223.4z"/>
</g>
</svg>
