<?xml version="1.0" encoding="utf-8"?>
<!-- Generator: Adobe Illustrator 19.0.0, SVG Export Plug-In . SVG Version: 6.00 Build 0)  -->
<svg version="1.1" xmlns="http://www.w3.org/2000/svg" xmlns:xlink="http://www.w3.org/1999/xlink" x="0px" y="0px"
	 viewBox="206 -206 512 512" style="enable-background:new 206 -206 512 512;" xml:space="preserve">
<style type="text/css">
	.st0{fill:#FF8C29;}
	.st1{fill:#FFD1A9;}
	.st2{fill:#FD6A33;}
	.st3{fill:#687F82;}
	.st4{fill:#CDD4D5;}
	.st5{fill:#9BAAAB;}
	.st6{fill:#FFFFFF;}
	.st7{display:none;fill:#4ACFD9;}
	.st8{display:none;fill:#0295AA;}
	.st9{display:none;fill:#FD6A33;}
	.st10{fill:#F0353D;}
	.st11{fill:#365558;}
	.st12{fill:#0295AA;}
	.st13{fill:#4ACFD9;}
	.st14{display:none;fill:#687F82;}
	.st15{display:none;fill:#FFFFFF;}
</style>
<g id="Layer_1">
	<path class="st0" d="M652.3-96l-39-39c-1.5-1.5-3.5-2.3-5.6-2.3s-4.1,0.8-5.6,2.3l-45,45c-3.1,3.1-3.1,8.1,0,11.2l39,39
		c1.5,1.5,3.5,2.3,5.6,2.3s4.1-0.8,5.6-2.3l45-45C655.4-87.9,655.4-92.9,652.3-96z"/>
	<path class="st1" d="M652.3-84.8c3.1-3.1,3.1-8.1,0-11.2l-39-39c-1.5-1.5-3.5-2.3-5.6-2.3s-4.1,0.8-5.6,2.3l-7.2,7.2L645-77.5
		L652.3-84.8z"/>
	<path class="st2" d="M326-135l-39,39c-1.5,1.5-2.3,3.5-2.3,5.6s0.8,4.1,2.3,5.6l45,45c3.1,3.1,8.1,3.1,11.2,0l39-39
		c1.5-1.5,2.3-3.5,2.3-5.6s-0.8-4.1-2.3-5.6l-45-45C334.2-138.1,329.1-138.1,326-135z"/>
	<path class="st1" d="M337.3-135c-3.1-3.1-8.1-3.1-11.2,0l-39,39c-1.5,1.5-2.3,3.5-2.3,5.6s0.8,4.1,2.3,5.6l7.2,7.2l50.2-50.2
		L337.3-135z"/>
	<path class="st3" d="M486.4-176.3h-33.9c-4.4,0-8,3.6-8,7.9v46.6c0,4.4,3.6,7.9,8,7.9h33.9c4.4,0,8-3.6,8-7.9v-46.6
		C494.3-172.8,490.8-176.3,486.4-176.3z"/>
	<path class="st4" d="M511.8-206H427c-4.4,0-7.9,3.6-7.9,7.9v33.9c0,4.4,3.6,7.9,7.9,7.9h84.8c4.4,0,8-3.6,8-7.9v-33.9
		C519.8-202.4,516.2-206,511.8-206z"/>
	<path class="st5" d="M427-206c-4.4,0-7.9,3.6-7.9,7.9v33.9c0,4.4,3.6,7.9,7.9,7.9h42.4V-206H427z"/>
	<path class="st6" d="M503.3-164.7c-4.4,0-8-3.6-8-7.9v-17c0-4.4,3.6-7.9,8-7.9s8,3.6,8,7.9v17C511.3-168.2,507.7-164.7,503.3-164.7
		z"/>
	<path class="st4" d="M469.4-125.4c-118.9,0-215.7,96.8-215.7,215.7S350.5,306,469.4,306s215.7-96.8,215.7-215.7
		S588.4-125.4,469.4-125.4z"/>
	<path class="st5" d="M253.7,90.3c0,118.9,96.8,215.7,215.7,215.7v-431.4C350.5-125.4,253.7-28.7,253.7,90.3z"/>
	<path class="st7" d="M469.4-70.3c-88.6,0-160.6,72-160.6,160.6s72,160.6,160.6,160.6S630,178.8,630,90.3S558-70.3,469.4-70.3z
		 M469.4,188.3c-54.1,0-98.1-44-98.1-98.1s44-98.1,98.1-98.1s98.1,44,98.1,98.1S523.5,188.3,469.4,188.3z"/>
	<path class="st8" d="M371.4,90.3c0-54.1,44-98.1,98.1-98.1v-62.5c-88.6,0-160.6,72-160.6,160.6s72,160.6,160.6,160.6v-62.5
		C415.3,188.3,371.4,144.3,371.4,90.3z"/>
	<path class="st9" d="M308.8,90.3v8h62.5v-8c0-54.1,44-98.1,98.1-98.1v-62.5C380.9-70.3,308.8,1.7,308.8,90.3z"/>
	<g>
		<path class="st1" d="M470-49.3v-20c-27.1,0-54.6,6.8-79.8,21.3c0,0,0,0,0,0l10,17.4C420.8-42.5,444.6-49.3,470-49.3
			C470-49.3,470-49.3,470-49.3z"/>
		<path class="st1" d="M470-29.3C470-29.3,470-29.3,470-29.3l0-20c0,0,0,0,0,0c-25.4,0-49.2,6.8-69.7,18.7l10,17.3
			C427.8-23.5,448.2-29.3,470-29.3z"/>
		<path class="st1" d="M410.2-13.3l10,17.3C434.9-4.4,451.9-9.3,470-9.3c0,0,0,0,0,0v-20c0,0,0,0,0,0
			C448.2-29.3,427.8-23.5,410.2-13.3z"/>
		<path class="st1" d="M420.2,4l10,17.3c11.7-6.8,25.3-10.7,39.7-10.7c0,0,0,0,0,0v-20c0,0,0,0,0,0C451.9-9.3,434.9-4.4,420.2,4z"/>
		<path class="st1" d="M430.2,21.4l10,17.3c8.8-5.1,18.9-8,29.8-8c0,0,0,0,0,0v-20c0,0,0,0,0,0C455.5,10.7,442,14.6,430.2,21.4z"/>
		<path class="st1" d="M440.2,38.7l10,17.3c5.8-3.4,12.6-5.3,19.8-5.3c0,0,0,0,0,0v-20c0,0,0,0,0,0C459.2,30.7,449,33.6,440.2,38.7z
			"/>
		<path class="st1" d="M450.2,56L470,90.2V50.7c0,0,0,0,0,0C462.8,50.7,456.1,52.6,450.2,56z"/>
		<path class="st1" d="M549.8-47.9c-23.5-13.6-50.7-21.4-79.8-21.4c0,0,0,0,0,0v20c25.4,0,49.2,6.8,69.8,18.7L549.8-47.9z"/>
		<path class="st0" d="M529.8-13.3l10-17.3c-20.5-11.9-44.4-18.7-69.8-18.7v20C491.8-29.3,512.2-23.5,529.8-13.3z"/>
		<path class="st2" d="M470-9.3c18.1,0,35.1,4.9,49.8,13.4l10-17.3c-17.6-10.2-38-16.1-59.8-16.1V-9.3z"/>
		<path class="st10" d="M470,10.7c14.5,0,28.1,3.9,39.8,10.7l10-17.3C505.1-4.4,488.1-9.3,470-9.3V10.7z"/>
		<path class="st11" d="M470,30.7c10.8,0,21,2.9,29.8,8l10-17.3c-11.7-6.8-25.3-10.7-39.8-10.7V30.7z"/>
		<path class="st12" d="M470,50.7c7.2,0,14,2,19.8,5.3l10-17.3c-8.8-5.1-18.9-8-29.8-8V50.7z"/>
		<path class="st13" d="M470,90.3L489.8,56c-5.8-3.4-12.6-5.3-19.8-5.3V90.3z"/>
		<path class="st1" d="M590.8,20.5l17.4-10C594.7-13.1,575-33.4,549.8-48c0,0,0,0,0,0l-10,17.4C560.9-18.3,578.6-0.6,590.8,20.5z"/>
		<path class="st0" d="M573.5,30.5l17.3-10c-12.3-21.2-29.9-38.8-51-51.1l-10,17.3C547.9-2.7,563,12.4,573.5,30.5z"/>
		<path class="st2" d="M529.8-13.2l-10,17.3c15.1,8.8,27.7,21.3,36.4,36.4l17.3-10C563,12.4,547.9-2.7,529.8-13.2z"/>
		<path class="st10" d="M519.8,4.1l-10,17.3c12.1,7,22.1,17.1,29.1,29.1l17.3-10C547.5,25.4,534.9,12.8,519.8,4.1z"/>
		<path class="st11" d="M509.8,21.4l-10,17.3c9,5.2,16.5,12.8,21.8,21.8l17.3-10C531.9,38.5,521.8,28.4,509.8,21.4z"/>
		<path class="st12" d="M499.8,38.7l-10,17.3c6,3.5,11,8.5,14.4,14.5l17.3-10C516.3,51.5,508.8,43.9,499.8,38.7z"/>
		<path class="st12" d="M489.8,56L470,90.3l34.2-19.8C500.8,64.5,495.8,59.5,489.8,56z"/>
		<path class="st1" d="M609.5,90.3h20c0-27.1-6.8-54.6-21.3-79.8c0,0,0,0,0,0l-17.4,10C602.7,41,609.5,64.8,609.5,90.3
			C609.5,90.2,609.5,90.2,609.5,90.3z"/>
		<path class="st0" d="M589.5,90.2C589.5,90.2,589.5,90.2,589.5,90.2l20,0c0,0,0,0,0,0c0-25.4-6.8-49.2-18.7-69.7l-17.3,10
			C583.7,48.1,589.5,68.5,589.5,90.2z"/>
		<path class="st2" d="M573.5,30.5l-17.3,10c8.5,14.6,13.3,31.6,13.3,49.7c0,0,0,0,0,0h20c0,0,0,0,0,0
			C589.5,68.5,583.7,48.1,573.5,30.5z"/>
		<path class="st10" d="M556.2,40.5l-17.3,10c6.8,11.7,10.7,25.2,10.7,39.7c0,0,0,0,0,0h20c0,0,0,0,0,0
			C569.5,72.1,564.7,55.1,556.2,40.5z"/>
		<path class="st11" d="M521.5,60.5c5.1,8.8,8,18.9,8,29.7c0,0,0,0,0,0h20c0,0,0,0,0,0c0-14.5-3.9-28-10.7-39.7L521.5,60.5z"/>
		<path class="st11" d="M504.2,70.5c3.4,5.8,5.3,12.5,5.3,19.7c0,0,0,0,0,0h20c0,0,0,0,0,0c0-10.8-2.9-21-8-29.7L504.2,70.5z"/>
		<path class="st11" d="M470,90.3h39.5c0,0,0,0,0,0c0-7.2-1.9-13.9-5.3-19.7L470,90.3z"/>
		<path class="st1" d="M609.5,90.3c0,25.4-6.8,49.2-18.7,69.7l17.4,10c13.6-23.5,21.4-50.7,21.4-79.8c0,0,0,0,0,0H609.5z"/>
		<path class="st0" d="M589.5,90.3c0,21.7-5.9,42.2-16.1,59.7l17.3,10c11.9-20.5,18.7-44.3,18.7-69.7H589.5z"/>
		<path class="st2" d="M569.5,90.3c0,18.1-4.9,35.1-13.4,49.7l17.3,10c10.2-17.6,16-38,16.1-59.7H569.5z"/>
		<path class="st10" d="M549.5,90.3c0,14.5-3.9,28-10.7,39.7l17.3,10c8.5-14.6,13.4-31.6,13.4-49.7H549.5z"/>
		<path class="st10" d="M521.5,120l17.3,10c6.8-11.7,10.7-25.3,10.7-39.7h-20C529.5,101.1,526.6,111.2,521.5,120z"/>
		<path class="st10" d="M504.2,110l17.3,10c5.1-8.8,8-18.9,8-29.7h-20C509.5,97.4,507.6,104.2,504.2,110z"/>
		<path class="st10" d="M504.2,110c3.4-5.8,5.3-12.6,5.3-19.7H470L504.2,110z"/>
		<path class="st1" d="M539.7,211l10,17.4c23.5-13.5,43.9-33.2,58.4-58.4c0,0,0,0,0,0L590.8,160C578.5,181.1,560.9,198.8,539.7,211z
			"/>
		<path class="st0" d="M590.8,160l-17.3-10c-10.5,18.1-25.6,33.2-43.7,43.7l10,17.3C560.9,198.8,578.5,181.1,590.8,160z"/>
		<path class="st2" d="M556.2,140c-8.7,15.1-21.3,27.7-36.4,36.4l10,17.3c18.1-10.5,33.2-25.6,43.7-43.7L556.2,140z"/>
		<path class="st2" d="M509.7,159.1l10,17.3c15.1-8.7,27.7-21.3,36.4-36.4l-17.3-10C531.8,142,521.8,152.1,509.7,159.1z"/>
		<path class="st2" d="M499.7,141.8l10,17.3c12.1-7,22.1-17,29.1-29.1l-17.3-10C516.3,129,508.7,136.5,499.7,141.8z"/>
		<path class="st2" d="M489.7,124.4l10,17.3c9-5.2,16.6-12.7,21.8-21.8l-17.3-10C500.7,116,495.7,121,489.7,124.4z"/>
		<path class="st2" d="M489.7,124.4c6-3.5,11-8.5,14.5-14.4L470,90.2L489.7,124.4z"/>
		<path class="st1" d="M470,229.7v20.1c27.1,0,54.6-6.8,79.8-21.3c0,0,0,0,0,0L539.7,211C519.2,222.9,495.4,229.7,470,229.7
			C470,229.7,470,229.7,470,229.7z"/>
		<path class="st0" d="M470,209.7C470,209.7,470,209.7,470,209.7l0,20c0,0,0,0,0,0c25.4,0,49.2-6.8,69.7-18.7l-10-17.3
			C512.1,203.9,491.7,209.7,470,209.7z"/>
		<path class="st2" d="M470,189.7C470,189.7,470,189.7,470,189.7l0,20c0,0,0,0,0,0c21.7,0,42.1-5.8,59.7-16l-10-17.3
			C505.1,184.9,488.1,189.7,470,189.7z"/>
		<path class="st2" d="M470,169.7C470,169.7,470,169.7,470,169.7l0,20c0,0,0,0,0,0c18.1,0,35.1-4.9,49.7-13.3l-10-17.3
			C498,165.8,484.5,169.7,470,169.7z"/>
		<path class="st2" d="M470,149.7C470,149.7,470,149.7,470,149.7l0,20c0,0,0,0,0,0c14.5,0,28-3.9,39.7-10.7l-10-17.3
			C491,146.8,480.8,149.7,470,149.7z"/>
		<path class="st2" d="M470,129.7C470,129.7,470,129.7,470,129.7l0,20c0,0,0,0,0,0c10.8,0,21-2.9,29.7-8l-10-17.3
			C483.9,127.8,477.2,129.7,470,129.7z"/>
		<path class="st2" d="M470,129.7C470,129.7,470,129.7,470,129.7c7.2,0,13.9-1.9,19.7-5.3L470,90.3V129.7z"/>
		<path class="st1" d="M390.2,228.4c23.5,13.6,50.7,21.4,79.8,21.4c0,0,0,0,0,0v-20.1c-25.4,0-49.2-6.8-69.7-18.7L390.2,228.4z"/>
		<path class="st0" d="M410.2,193.7l-10,17.3c20.5,11.9,44.3,18.7,69.7,18.7v-20C448.2,209.7,427.8,203.9,410.2,193.7z"/>
		<path class="st0" d="M410.2,193.7c17.6,10.2,38,16,59.7,16v-20c-18.1,0-35.1-4.9-49.7-13.4L410.2,193.7z"/>
		<path class="st0" d="M420.2,176.4c14.6,8.5,31.6,13.3,49.7,13.4v-20c-14.5,0-28-3.9-39.7-10.7L420.2,176.4z"/>
		<path class="st0" d="M430.3,159.1c11.7,6.8,25.3,10.7,39.7,10.7v-20c-10.8,0-21-2.9-29.7-8L430.3,159.1z"/>
		<path class="st0" d="M440.2,141.7c8.8,5.1,18.9,8,29.7,8v-20c-7.2,0-13.9-1.9-19.7-5.3L440.2,141.7z"/>
		<path class="st0" d="M470,129.7V90.2l-19.7,34.2C456.1,127.8,462.8,129.7,470,129.7z"/>
		<path class="st1" d="M349.2,160l-17.4,10c13.5,23.5,33.2,43.9,58.4,58.4c0,0,0,0,0,0l10.1-17.4C379.1,198.8,361.5,181.1,349.2,160
			z"/>
		<path class="st0" d="M366.5,150l-17.3,10c12.3,21.1,29.9,38.8,51.1,51l10-17.3C392.1,183.2,377,168.1,366.5,150z"/>
		<path class="st0" d="M383.8,140l-17.3,10c10.5,18.1,25.6,33.2,43.7,43.7l10-17.3C405.2,167.7,392.6,155.1,383.8,140z"/>
		<path class="st0" d="M401.2,130l-17.3,10c8.7,15.1,21.3,27.7,36.4,36.4l10-17.3C418.2,152.1,408.2,142,401.2,130z"/>
		<path class="st0" d="M418.5,120l-17.3,10c7,12.1,17,22.1,29.1,29.1l10-17.3C431.2,136.5,423.7,129,418.5,120z"/>
		<path class="st0" d="M435.8,110l-17.3,10c5.2,9,12.8,16.5,21.8,21.8l10-17.3C444.3,121,439.3,116,435.8,110z"/>
		<path class="st0" d="M450.2,124.4L470,90.2L435.8,110C439.3,116,444.3,121,450.2,124.4z"/>
		<path class="st1" d="M310.5,90.2c0,27.1,6.8,54.6,21.3,79.8c0,0,0,0,0,0l17.4-10c-11.9-20.5-18.7-44.4-18.7-69.8H310.5z"/>
		<path class="st1" d="M350.5,90.2h-20c0,25.4,6.8,49.2,18.7,69.8l17.3-10C356.3,132.4,350.5,112,350.5,90.2z"/>
		<path class="st1" d="M350.5,90.2c0,21.8,5.8,42.2,16,59.8l17.3-10c-8.5-14.6-13.4-31.6-13.4-49.8H350.5z"/>
		<path class="st1" d="M370.5,90.2c0,18.1,4.9,35.1,13.4,49.8l17.3-10c-6.8-11.7-10.7-25.3-10.7-39.7H370.5z"/>
		<path class="st1" d="M390.5,90.2c0,14.5,3.9,28,10.7,39.7l17.3-10c-5.1-8.8-8-18.9-8-29.8H390.5z"/>
		<path class="st1" d="M410.5,90.2c0,10.8,2.9,21,8,29.8l17.3-10c-3.4-5.8-5.3-12.6-5.3-19.8H410.5z"/>
		<path class="st1" d="M435.8,110L470,90.2h-39.5C430.5,97.4,432.4,104.2,435.8,110z"/>
		<path class="st1" d="M331.8,10.4c-13.6,23.5-21.4,50.7-21.4,79.8c0,0,0,0,0,0h20.1c0-25.4,6.8-49.2,18.7-69.7L331.8,10.4z"/>
		<path class="st1" d="M366.5,30.5l-17.3-10c-11.9,20.5-18.7,44.4-18.7,69.7h20C350.5,68.5,356.3,48.1,366.5,30.5z"/>
		<path class="st1" d="M350.5,90.2h20c0-18.1,4.9-35.1,13.4-49.8l-17.3-10C356.3,48.1,350.5,68.5,350.5,90.2z"/>
		<path class="st1" d="M370.5,90.2h20c0-14.5,3.9-28,10.7-39.7l-17.3-10C375.3,55.1,370.5,72.1,370.5,90.2z"/>
		<path class="st1" d="M390.5,90.2h20c0-10.8,2.9-21,8-29.7l-17.3-10C394.4,62.2,390.5,75.7,390.5,90.2z"/>
		<path class="st1" d="M410.5,90.2h20c0-7.2,1.9-13.9,5.3-19.8l-17.3-10C413.4,69.2,410.5,79.4,410.5,90.2z"/>
		<path class="st1" d="M430.5,90.2H470l-34.2-19.8C432.4,76.3,430.5,83,430.5,90.2z"/>
		<path class="st1" d="M400.3-30.6l-10-17.4c-23.5,13.5-43.9,33.2-58.4,58.4c0,0,0,0,0,0l17.4,10C361.4-0.7,379.1-18.3,400.3-30.6z"
			/>
		<path class="st1" d="M410.3-13.3l-10-17.3c-21.2,12.3-38.8,29.9-51.1,51.1l17.3,10C377,12.3,392.1-2.8,410.3-13.3z"/>
		<path class="st1" d="M366.5,30.5l17.3,10c8.7-15.1,21.3-27.7,36.4-36.4l-10-17.3C392.1-2.8,377,12.3,366.5,30.5z"/>
		<path class="st1" d="M383.8,40.5l17.3,10c7-12.1,17-22.1,29.1-29.1L420.2,4C405.2,12.8,392.6,25.4,383.8,40.5z"/>
		<path class="st1" d="M401.2,50.5l17.3,10c5.2-9,12.8-16.6,21.8-21.8l-10-17.3C418.2,28.4,408.1,38.4,401.2,50.5z"/>
		<path class="st1" d="M418.5,60.5l17.3,10c3.5-6,8.5-11,14.5-14.5l-10-17.3C431.2,43.9,423.7,51.4,418.5,60.5z"/>
		<path class="st1" d="M435.8,70.5L470,90.2L450.2,56C444.3,59.5,439.3,64.5,435.8,70.5z"/>
	</g>
	<path class="st3" d="M535.2,213.2c-2-0.5-3.7-1.8-4.9-3.7L463.5,95.8c-2.2-3.8-1-8.7,2.8-10.9c3.8-2.2,8.7-1,10.9,2.8L544,201.5
		c2.2,3.8,1,8.7-2.8,10.9C539.3,213.5,537.1,213.7,535.2,213.2z"/>
	<path class="st14" d="M469.4,35.7c-30.1,0-54.6,24.5-54.6,54.6s24.5,54.6,54.6,54.6S524,120.4,524,90.3
		C524,60.2,499.5,35.7,469.4,35.7z"/>
	<path class="st15" d="M494.8,98.2c-4.4,0-8-3.6-8-8c0-9.6-7.8-17.5-17.5-17.5c-4.4,0-7.9-3.6-7.9-8s3.6-8,7.9-8
		c18.4,0,33.4,15,33.4,33.4C502.8,94.7,499.2,98.2,494.8,98.2z"/>
</g>
<g id="Layer_2">
</g>
</svg>
