<?xml version="1.0" encoding="utf-8"?>
<!-- Generator: Adobe Illustrator 19.0.0, SVG Export Plug-In . SVG Version: 6.00 Build 0)  -->
<svg version="1.1" id="Layer_1" xmlns="http://www.w3.org/2000/svg" xmlns:xlink="http://www.w3.org/1999/xlink" x="0px" y="0px"
	 viewBox="32 11 640 512" style="enable-background:new 32 11 640 512;" xml:space="preserve">
<style type="text/css">
	.st0{display:none;fill:#687F82;}
	.st1{display:none;fill:#365558;}
	.st2{display:none;fill:#F0353D;}
	.st3{display:none;fill:#BCD643;enable-background:new    ;}
	.st4{font-family:'Saira-Bold';}
	.st5{font-size:338.0789px;}
	.st6{fill:#F0353D;}
	.st7{fill:#FD6A33;}
	.st8{fill:#FF8C29;}
	.st9{fill:#FFD1A9;}
	.st10{fill:#365558;}
	.st11{fill:#0295AA;}
	.st12{fill:#4ACFD9;}
	.st13{fill:none;stroke:#000000;stroke-miterlimit:10;}
	.st14{fill:#9BAAAB;}
	.st15{fill:#CDD4D5;}
	.st16{fill:#E6EAEA;}
	.st17{fill:#FFFFFF;}
	.st18{fill:#BCD643;}
	.st19{display:none;fill:#F0353D;enable-background:new    ;}
	.st20{font-size:340.4162px;}
</style>
<path class="st0" d="M882.1,198.6L774.4-47c-3-6-8.3-9-13.5-9v283h106.8C880.6,227,888.4,211.1,882.1,198.6z"/>
<path class="st1" d="M747.6-47L641.9,198.6c-6.1,12.7,1.6,28.4,14.1,28.4h104.9V-56C755.8-56,750.6-52.9,747.6-47z"/>
<path class="st2" d="M361.6,45.7c-17-16.9-44.5-16.9-61.4,0c-16.9,17-16.9,44.5,0,61.4l425.2,425.2c17,16.9,44.4,16.9,61.4,0
	c16.9-17,16.9-44.5,0-61.4L361.6,45.7z"/>
<text transform="matrix(1.0064 0 0 1 331.1172 393.0186)" class="st3 st4 st5">A</text>
<g>
	<rect x="-706" y="33" class="st6" width="128" height="128"/>
	<rect x="-578" y="33" class="st7" width="128" height="128"/>
	<rect x="-450" y="33" class="st8" width="128" height="128"/>
	<rect x="-322" y="33" class="st9" width="128" height="128"/>
	<rect x="-706" y="161" class="st10" width="128" height="128"/>
	<rect x="-578" y="161" class="st11" width="128" height="128"/>
	<rect x="-450" y="161" class="st12" width="128" height="128"/>
	<rect x="-322" y="161" class="st13" width="128" height="128"/>
	<rect x="-706" y="289" class="st14" width="128" height="128"/>
	<rect x="-578" y="289" class="st15" width="128" height="128"/>
	<rect x="-450" y="289" class="st16" width="128" height="128"/>
	<rect x="-322" y="289" class="st17" width="128" height="128"/>
	<rect x="-706" y="417" class="st18" width="128" height="128"/>
	<rect x="-578" y="417" class="st13" width="128" height="128"/>
	<rect x="-450" y="417" class="st13" width="128" height="128"/>
	<rect x="-322" y="417" class="st13" width="128" height="128"/>
</g>
<path class="st0" d="M882.1,198.6L774.4-47c-3-6-8.3-9-13.5-9v283h106.8C880.6,227,888.4,211.1,882.1,198.6z"/>
<path class="st1" d="M747.6-47L641.9,198.6c-6.1,12.7,1.6,28.4,14.1,28.4h104.9V-56C755.8-56,750.6-52.9,747.6-47z"/>
<path class="st2" d="M361.6,45.7c-17-16.9-44.5-16.9-61.4,0c-16.9,17-16.9,44.5,0,61.4l425.2,425.2c17,16.9,44.4,16.9,61.4,0
	c16.9-17,16.9-44.5,0-61.4L361.6,45.7z"/>
<text transform="matrix(1 0 0 1 295.2085 394.5831)" class="st19 st4 st20">M</text>
<path class="st2" d="M603.7,461.3V94.4c0-12.4,8.7-24,22.3-32.5c0,0,45.9-32.6,55.6-38c8.4-4.7,22.3-2.2,22.3,20.5v465.5
	c0,23.8-12.5,27.5-22.3,21.5S626,493.7,626,493.7C613.3,486.4,603.7,473.7,603.7,461.3z"/>
<path class="st2" d="M292.3,94.7v366.8c0,12.4-8.7,24-22.3,32.5c0,0-45.9,32.6-55.6,38c-8.4,4.7-22.3,2.2-22.3-20.5V46.1
	c0-23.8,12.5-27.5,22.3-21.5S270,62.3,270,62.3C282.7,69.6,292.3,82.3,292.3,94.7z"/>
<rect x="-706" y="33" class="st6" width="128" height="128"/>
<rect x="-578" y="33" class="st7" width="128" height="128"/>
<rect x="-450" y="33" class="st8" width="128" height="128"/>
<rect x="-322" y="33" class="st9" width="128" height="128"/>
<rect x="-706" y="161" class="st10" width="128" height="128"/>
<rect x="-578" y="161" class="st11" width="128" height="128"/>
<rect x="-450" y="161" class="st12" width="128" height="128"/>
<rect x="-322" y="161" class="st13" width="128" height="128"/>
<rect x="-706" y="289" class="st14" width="128" height="128"/>
<rect x="-578" y="289" class="st15" width="128" height="128"/>
<rect x="-450" y="289" class="st16" width="128" height="128"/>
<rect x="-322" y="289" class="st17" width="128" height="128"/>
<rect x="-706" y="417" class="st18" width="128" height="128"/>
<rect x="-578" y="417" class="st13" width="128" height="128"/>
<rect x="-450" y="417" class="st13" width="128" height="128"/>
<rect x="-322" y="417" class="st13" width="128" height="128"/>
<rect x="96" y="11" class="st2" width="512" height="512"/>
<polygon class="st18" points="622,295.9 622,238.1 672,267 "/>
<polygon class="st18" points="82,238.1 82,295.9 32,267 "/>
</svg>
