<?xml version="1.0" encoding="iso-8859-1"?>
<!-- Generator: Adobe Illustrator 19.0.0, SVG Export Plug-In . SVG Version: 6.00 Build 0)  -->
<svg version="1.1" id="Layer_1" xmlns="http://www.w3.org/2000/svg" xmlns:xlink="http://www.w3.org/1999/xlink" x="0px" y="0px"
	 viewBox="0 0 512 512" style="enable-background:new 0 0 512 512;" xml:space="preserve">
<path style="fill:#E6EAEA;" d="M503.983,4.276H8.017C3.588,4.276,0,7.865,0,12.292v487.415c0,4.427,3.588,8.017,8.017,8.017h495.967
	c4.428,0,8.017-3.589,8.017-8.017V12.292C512,7.865,508.412,4.276,503.983,4.276z"/>
<path style="fill:#CDD4D5;" d="M8.017,4.276C3.588,4.276,0,7.865,0,12.292v487.415c0,4.427,3.588,8.017,8.017,8.017h246.914V4.276
	H8.017z"/>
<polygon style="fill:#FFD1A9;" points="46.497,354.338 46.497,461.228 465.503,461.228 465.503,132.008 362.889,251.724 
	256,345.787 144.835,243.173 "/>
<polygon style="fill:#FF8C29;" points="144.835,243.173 46.497,354.338 46.497,461.228 254.931,461.228 254.931,344.8 "/>
<path style="fill:#9BAAAB;" d="M461.228,47.031H50.772c-4.428,0-8.017,3.589-8.017,8.017v401.904c0,4.427,3.588,8.017,8.017,8.017
	h410.455c4.428,0,8.017-3.589,8.017-8.017V55.048C469.244,50.621,465.656,47.031,461.228,47.031z M354.873,243.708h-90.856v-86.58
	h90.856V243.708z M370.906,157.127h82.305v86.58h-82.305V157.127z M264.017,141.094V63.065h90.856v78.029H264.017z M247.983,141.094
	h-90.856V63.065h90.856V141.094z M247.983,157.127v86.58h-90.856v-86.58H247.983z M141.094,243.708H58.789v-86.58h82.305V243.708z
	 M58.789,259.741h82.305v86.58H58.789V259.741z M157.127,259.741h90.856v86.58h-90.856V259.741z M247.983,362.355v86.58h-90.856
	v-86.58H247.983z M264.017,362.355h90.856v86.58h-90.856V362.355z M264.017,346.322v-86.58h90.856v86.58H264.017z M370.906,259.741
	h82.305v86.58h-82.305V259.741z M453.211,141.094h-82.305V63.065h82.305V141.094z M141.094,63.065v78.029H58.789V63.065H141.094z
	 M58.789,362.355h82.305v86.58H58.789V362.355z M370.906,448.935v-86.58h82.305v86.58H370.906z"/>
<path style="fill:#687F82;" d="M50.772,47.031c-4.428,0-8.017,3.589-8.017,8.017v401.904c0,4.427,3.588,8.017,8.017,8.017h204.159
	V47.031H50.772z M141.094,448.935H58.789v-86.58h82.305V448.935z M141.094,346.322H58.789v-86.58h82.305V346.322z M141.094,243.708
	H58.789v-86.58h82.305V243.708z M141.094,141.094H58.789V63.065h82.305V141.094z M247.983,448.935h-90.856v-86.58h90.856V448.935z
	 M247.983,346.322h-90.856v-86.58h90.856V346.322z M247.983,243.708h-90.856v-86.58h90.856V243.708z M157.127,141.094V63.065h90.856
	v78.029H157.127z"/>
<path style="fill:#365558;" d="M50.77,366.63c-1.94,0-3.885-0.7-5.426-2.116c-3.258-2.998-3.47-8.069-0.471-11.328l98.338-106.889
	c1.459-1.586,3.496-2.518,5.651-2.586c2.165-0.068,4.246,0.738,5.801,2.23l101.338,97.284l101.153-97.107l93.891-102.425
	c2.991-3.263,8.062-3.484,11.327-0.493c3.263,2.992,3.484,8.063,0.492,11.327L368.8,257.142c-0.114,0.126-0.234,0.248-0.357,0.366
	L261.554,360.121c-3.102,2.978-8.002,2.978-11.105,0l-100.982-96.942L56.673,364.042C55.092,365.759,52.934,366.63,50.77,366.63z"/>
<path style="fill:#F0353D;" d="M50.772,324.944c-16.208,0-29.395,13.186-29.395,29.395c0,16.209,13.187,29.395,29.395,29.395
	s29.395-13.186,29.395-29.395C80.167,338.13,66.98,324.944,50.772,324.944z"/>
<path style="fill:#0295AA;" d="M149.111,222.33c-16.208,0-29.395,13.186-29.395,29.395s13.187,29.395,29.395,29.395
	s29.395-13.186,29.395-29.395S165.318,222.33,149.111,222.33z"/>
<path style="fill:#FD6A33;" d="M256,324.944c-16.208,0-29.395,13.186-29.395,29.395c0,16.209,13.187,29.395,29.395,29.395
	s29.395-13.186,29.395-29.395C285.395,338.13,272.208,324.944,256,324.944z"/>
<path style="fill:#F0353D;" d="M226.605,354.338c0,15.85,12.612,28.802,28.326,29.368v-58.735
	C239.217,325.536,226.605,338.489,226.605,354.338z"/>
<g>
	<path style="fill:#4ACFD9;" d="M362.889,222.33c-16.208,0-29.395,13.186-29.395,29.395s13.187,29.395,29.395,29.395
		c16.208,0,29.395-13.186,29.395-29.395S379.097,222.33,362.889,222.33z"/>
	<path style="fill:#4ACFD9;" d="M456.952,119.716c-16.208,0-29.395,13.186-29.395,29.395s13.187,29.395,29.395,29.395
		c16.208,0,29.395-13.186,29.395-29.395S473.16,119.716,456.952,119.716z"/>
</g>
<g>
</g>
<g>
</g>
<g>
</g>
<g>
</g>
<g>
</g>
<g>
</g>
<g>
</g>
<g>
</g>
<g>
</g>
<g>
</g>
<g>
</g>
<g>
</g>
<g>
</g>
<g>
</g>
<g>
</g>
</svg>
