<?xml version="1.0" encoding="utf-8"?>
<!-- Generator: Adobe Illustrator 19.0.0, SVG Export Plug-In . SVG Version: 6.00 Build 0)  -->
<svg version="1.1" id="Layer_1" xmlns="http://www.w3.org/2000/svg" xmlns:xlink="http://www.w3.org/1999/xlink" x="0px" y="0px"
	 viewBox="96 11 512 512" style="enable-background:new 96 11 512 512;" xml:space="preserve">
<style type="text/css">
	.st0{display:none;}
	.st1{display:inline;fill:#E6EAEA;}
	.st2{display:inline;fill:#CDD4D5;}
	.st3{display:inline;fill:#9BAAAB;}
	.st4{display:inline;fill:#FFFFFF;}
	.st5{fill:#0295AA;}
	.st6{fill:#365558;}
	.st7{fill:#4ACFD9;}
	.st8{fill:#FD6A33;}
	.st9{fill:#F0353D;}
	.st10{fill:#FFFFFF;}
	.st11{fill:#FF8C29;}
	.st12{fill:#FFD1A9;}
</style>
<g id="Layer_2">
</g>
<g id="Layer_4" class="st0">
	<path class="st1" d="M1010.4-395.9H517.5c-4.4,0-8,3.6-8,8V97.9c0,4.4,3.6,8,8,8h492.9c4.4,0,8-3.6,8-8v-485.8
		C1018.4-392.3,1014.8-395.9,1010.4-395.9z"/>
	<path class="st2" d="M517.5-395.9c-4.4,0-8,3.6-8,8V97.9c0,4.4,3.6,8,8,8h245.4v-501.8H517.5L517.5-395.9z"/>
	<polygon class="st2" points="555.7,64.3 555.7,60.8 972.2,60.8 972.2,-157.3 919.1,-1.1 764,55.7 656.9,-43.3 	"/>
	<polygon class="st3" points="657.5,-46.5 555.7,54.3 555.7,50.8 762.9,50.8 756,47.3 	"/>
	<path class="st4" d="M967.9-353.3H560c-4.4,0-8,3.6-8,8V55.3c0,4.4,3.6,8,8,8h407.9c4.4,0,8-3.6,8-8v-400.6
		C975.9-349.7,972.3-353.3,967.9-353.3z M862.2-157.3h-90.3v-86.3h90.3V-157.3z M878.2-243.6H960v86.3h-81.8V-243.6z M771.9-259.6
		v-77.8h90.3v77.8C862.2-259.6,771.9-259.6,771.9-259.6z M756-259.6h-90.3v-77.8H756V-259.6L756-259.6z M756-243.6v86.3h-90.3v-86.3
		H756z M649.8-157.3H568v-86.3h81.8V-157.3L649.8-157.3z M568-141.3h81.8V-55H568V-141.3L568-141.3z M665.7-141.3H756V-55h-90.3
		V-141.3z M756-39v86.3h-90.3V-39H756L756-39z M771.9-39h90.3v86.3h-90.3V-39L771.9-39z M771.9-55v-86.3h90.3V-55H771.9L771.9-55z
		 M878.2-141.3H960V-55h-81.8V-141.3z M960-259.6h-81.8v-77.8H960V-259.6z M649.8-337.3v77.8H568v-77.8H649.8z M568-39h81.8v86.3
		H568V-39L568-39z M878.2,47.3V-39H960v86.3C960,47.3,878.2,47.3,878.2,47.3z"/>
	<path class="st1" d="M560-353.3c-4.4,0-8,3.6-8,8V55.3c0,4.4,3.6,8,8,8h202.9v-416.5L560-353.3L560-353.3z M649.8,47.3H568V-39
		h81.8V47.3L649.8,47.3z M649.8-55H568v-86.3h81.8V-55L649.8-55z M649.8-157.3H568v-86.3h81.8V-157.3L649.8-157.3z M649.8-259.6H568
		v-77.8h81.8V-259.6L649.8-259.6z M756,47.3h-90.3V-39H756V47.3L756,47.3z M756-55h-90.3v-86.3H756V-55L756-55z M756-157.3h-90.3
		v-86.3H756V-157.3L756-157.3z M665.7-259.6v-77.8H756v77.8C756-259.6,665.7-259.6,665.7-259.6z"/>
</g>
<path class="st5" d="M853.3-290c-21.5,26.5-43,52.9-64.4,79.4c5.4,4.3,10.6,8.7,15.8,12.8c0.6,0.5,2.1,0.5,2.9,0.2
	c6.6-2.5,13.2-5.1,19.7-7.8c1.4-0.6,2.4-0.4,3.5,0.5c3.5,3,7.1,5.8,10.8,8.7c2.7,2.2,5.4,4.5,8.1,6.7c-1.8,2.4-3.3,4.6-5,6.6
	c-7.5,9.3-14.7,18.7-22.4,27.9c-10.5,12.5-22.9,23.2-36.1,32.6c-3.4,2.4-7.4,4.2-11.3,5.7c-5,2-9.7,0.8-14.1-2.4
	c-2.3-1.7-4.6-3.2-6.9-4.7V-69c0.6,0,1.2-0.1,1.9-0.1c17.1,0,30.9,14.1,30.9,31.3c0,17.1-13.9,31-31.2,30.9c-0.5,0-1,0-1.6,0v39.4
	c2.3,1.3,4.5,3.1,6.5,5.1c1.1,1.1,2.5,2,3.8,2.9c5.7,3.9,11.8,5.6,18.5,3.4c4.1-1.2,6.9-4.5,9.7-7.4c10.6-11.4,21-22.8,31.4-34.4
	c7.9-8.9,15-18.5,20.6-29.1c4.9-9.2,6.2-15.1-2.3-24.9c-2.4-2.7-5.3-5-7.6-7.7c-2.1-2.5-4.6-5-5.4-8c-0.9-3.1-0.8-7,0.2-10.1
	c2.3-6.8,5.4-13.4,8.4-19.9c6.2-13.2,14.6-25.1,23.7-36.4c7.6-9.2,15.2-18.3,23-27.7c6.8,5.5,13.4,10.7,19.7,16.1
	c0.6,0.5,0.7,2,0.6,2.9c-0.9,6.1-2,12.2-3.2,18.3c-0.6,3.1-0.4,5.4,2.7,7.1c1.7,0.9,3,2.4,4.5,3.6c3,2.5,6.1,4.9,9.1,7.4
	c21.5-26.6,43-52.9,64.4-79.4C939.3-220.3,896.4-255.1,853.3-290z M885.1-180.6c-9.4,0-17-7.4-17-16.9c0-8.5,7.8-16.5,15.9-16.5
	c10,0,17.6,7.2,17.6,16.9C901.6-187.9,894.2-180.6,885.1-180.6z"/>
<path class="st6" d="M724.4-38.2c0.1-16.3,13.2-29.6,29.4-30.6v-54.8c-1.9-1.1-3.7-2.2-5.6-3.2c-5.5-2.9-11.3-3.1-16.4,0.7
	c-5,3.7-9.9,7.6-14.1,12.1c-8.3,9.1-16.3,18.5-23.7,28.4c-7.8,10.4-14.9,21.3-22.1,32.1c-3,4.5-2.8,9.5-1,14.5
	c1.8,5.1,5.4,8.8,9.5,11.7c7.7,5.2,12.5,12.1,14.5,21.2c0.4,2.1,1.2,4,2.1,5.9c3.3,8.1,9.4,13.8,16.1,19c7.1,5.6,15.1,9,24.2,9.2
	c6.1,0.1,11.6,1.7,16.5,4.6V-6.8C737.1-7.4,724.3-21.1,724.4-38.2z"/>
<path class="st5" d="M863.9-303c8.6-10.6,17.1-21,25.7-31.6c48.8,27.7,91.7,62.4,128.9,104.6c-8.5,10.5-17,20.9-25.6,31.6
	C949.8-233.2,906.9-268,863.9-303z"/>
<path class="st7" d="M755.7-68.8c-0.6,0-1.2,0-1.9,0.1v62.1c0.5,0,1,0,1.6,0c17.3,0,31.2-13.8,31.2-30.9
	C786.5-54.8,772.6-68.7,755.7-68.8z"/>
<path class="st5" d="M724.4-38.2c-0.1,17.1,12.7,30.8,29.4,31.5v-62.1C737.5-67.8,724.4-54.5,724.4-38.2z"/>
<path class="st6" d="M901.6-197.1c0,9.1-7.4,16.5-16.5,16.6c-9.4,0-17-7.4-17-16.9c0-8.5,7.8-16.5,15.9-16.5
	C894.1-213.9,901.6-206.7,901.6-197.1z"/>
<path class="st8" d="M693.9-144.8c-7.9-8.9-5.9-6.2-13.9-15.4c6.5-5.8,12.7-11.4,19.1-16.9c0.6-0.5,2.1-0.4,2.9-0.1
	c5.9,2,11.8,3.9,17.6,6.2c2.9,1.1,5.3,1.3,7.5-1.4c1.1-1.4,2.9-2.6,4.3-3.8c2.9-2.6,5.8-5.2,8.8-7.9c-22.7-25.6-45.3-51-67.9-76.5
	c-41.5,36.8-82.9,73.4-124.3,110.2c22.7,25.6,45.3,51,67.8,76.5c5.2-4.7,10.3-9,15.2-13.6c0.6-0.5,0.8-2,0.7-2.8
	c-1.4-6.9-2.9-13.8-4.6-20.6c-0.3-1.6-0.1-2.4,1.1-3.4c3.5-3,6.8-6.1,10.4-9.2c2.6-2.3,5.3-4.6,8-6.9c2,2.1,3.9,4,5.7,6
	c8,8.8,7.1,9.2,13.7,19.3c5,7.6,2.8,5.7,5.7,9.7l34.3-38.4C699.9-139.3,699.3-138.6,693.9-144.8z M661.1-163.9
	c-1.6,9.3-10,15.5-19.4,14.1c-8.4-1.3-15-10.3-13.7-18.3c1.7-9.9,9.9-16.2,19.5-14.6C656.6-181.4,662.6-172.9,661.1-163.9z"/>
<path class="st8" d="M634.1-303.5c-47.6,29.9-89,66.6-124.2,110.2c9,10.3,17.9,20.2,27,30.4c41.4-36.8,82.7-73.4,124.2-110.2
	C652-283.3,643.1-293.4,634.1-303.5z"/>
<path class="st6" d="M641.7-149.9c9.3,1.4,17.9-4.7,19.4-14.1c1.4-9-4.7-17.4-13.7-19c-9.5-1.6-17.8,4.7-19.5,14.6
	C626.7-160.2,633.4-151.3,641.7-149.9z"/>
<path class="st9" d="M664.8-349.8l-13,31.7c-1.8,4.2-6.5,6.2-10.8,4.5c-4.2-1.8-6.2-6.5-4.5-10.8l12.9-31.6
	c1.8-4.2,6.5-6.2,10.8-4.5C664.5-358.8,666.5-354.1,664.8-349.8z"/>
<path class="st9" d="M702.4-310.6c-0.8,2-2.4,3.6-4.5,4.5l-28.4,11.9c-4.2,1.8-9-0.2-10.8-4.5c-1.8-4.2,0.2-9,4.5-10.8l28.4-11.9
	c4.2-1.8,9,0.2,10.8,4.5C703.4-314.8,703.3-312.5,702.4-310.6z"/>
<path class="st9" d="M622.4-320.2c-0.8,2-2.4,3.6-4.5,4.5c-4.2,1.8-9-0.2-10.8-4.5l-11.9-28.4c-1.8-4.2,0.2-9,4.5-10.8
	c4.2-1.8,9,0.2,10.8,4.5l11.9,28.4C623.2-324.3,623.2-322.2,622.4-320.2z"/>
<path class="st10" d="M709.9-48.3c1.6,1.6,2.4,3.6,2.2,6c-1.1,12.6,3.3,25,12.2,33.9c2.9,2.9,2.9,7.7,0,10.6s-7.7,2.9-10.6,0
	c-12.1-12.1-18.1-28.8-16.6-45.8c0.4-4.1,4-7.1,8.2-6.8C707-50.3,708.6-49.5,709.9-48.3z"/>
<path class="st5" d="M863.9-303c8.6-10.6,17.1-21,25.7-31.6c48.8,27.7,91.7,62.4,128.9,104.6c-8.5,10.5-17,20.9-25.6,31.6
	C949.8-233.2,906.9-268,863.9-303z"/>
<path class="st7" d="M885.7-305.3l7.5-9.2c38.7,23.4,73.9,51.9,104.8,85l-7.5,9.2L885.7-305.3z"/>
<path class="st11" d="M634.1-303.5c-47.6,29.9-89,66.6-124.2,110.2c9,10.3,17.9,20.2,27,30.4c41.4-36.8,82.7-73.4,124.2-110.2
	C652-283.3,643.1-293.4,634.1-303.5z"/>
<path class="st12" d="M530.4-193.6c29.3-34.4,63.2-64.5,101-89.6l7.9,8.8l-101.1,89.6L530.4-193.6z"/>
</svg>
