<?xml version="1.0" encoding="utf-8"?>
<!-- Generator: Adobe Illustrator 19.0.0, SVG Export Plug-In . SVG Version: 6.00 Build 0)  -->
<svg version="1.1" id="Layer_1" xmlns="http://www.w3.org/2000/svg" xmlns:xlink="http://www.w3.org/1999/xlink" x="0px" y="0px"
	 viewBox="96 11 512 512" style="enable-background:new 96 11 512 512;" xml:space="preserve">
<style type="text/css">
	.st0{display:none;fill:#9BAAAB;}
	.st1{display:none;}
	.st2{display:inline;}
	.st3{fill:#FD6A33;}
	.st4{fill:#FF8C29;}
	.st5{fill:#FFD1A9;}
	.st6{fill:#F0353D;}
	.st7{fill:#E6EAEA;}
	.st8{fill:#CDD4D5;}
	.st9{fill:#9BAAAB;}
	.st10{fill:#0295AA;}
	.st11{fill:#365558;}
	.st12{fill:#4ACFD9;}
	.st13{fill:#FFFFFF;}
	.st14{display:none;fill:#F0353D;}
</style>
<polygon class="st0" points="960,-129.5 779,-59.5 598,-129.5 779.5,-200.5 "/>
<g id="Layer_3_1_" class="st1">
	<polygon class="st2" points="1591,-635.4 1079,-635.4 1079,-122.6 1192.9,-122.6 1192.9,-515.5 1383,-515.5 1383,-122.6 
		1591,-122.6 	"/>
	<rect x="1192.9" y="-515.5" class="st2" width="190.1" height="392.9"/>
</g>
<path id="SVGCleanerId_0_3_" class="st0" d="M1152.1-209h-71.9l78.3,85.8V-202C1158.5-205.9,1155.7-209,1152.1-209z"/>
<path class="st3" d="M270.6,163.7h-4.1h-4.1c-5.3,0-9.6,4.4-9.6,9.6v41.5c0,5.3,4.4,9.6,9.6,9.6h4.1h4.1c2.4,0,4.5-2,4.5-4.5v-52
	C275.1,165.8,273.1,163.7,270.6,163.7z"/>
<path class="st4" d="M437.4,224.5h-4.1c-2.4,0-4.5-2-4.5-4.5v-52c0-2.4,2-4.5,4.5-4.5h4.1h4.1c5.3,0,9.6,4.4,9.6,9.6v41.6
	c0,5.3-4.4,9.6-9.6,9.6H437.4L437.4,224.5z"/>
<path class="st4" d="M399,125h-30.6c-3,0-5.8-2.8-5.8-5.8V107c0-5.8-4.8-10.6-10.6-10.6v117.4h3.3v0.1h2.9c1.2,0,2.2,1,2.2,2.2v4
	c0,1.2-1,2.2-2.2,2.2h-2.9h-2H352v31.2h47c12.3,0,22.2-10,22.2-22.2v-84C421.3,134.9,411.2,124.9,399,125z M390.9,220
	c0,1.3-1.1,2.4-2.4,2.4h-12.1c-1.2,0-2.3-1.1-2.4-2.4v-3.7c0-1.3,1.1-2.4,2.4-2.4h12.1c1.3,0,2.4,1.1,2.4,2.4V220z M382.6,185.6
	c-6.2,0-11.1-5-11.1-11.1s5-11.1,11.1-11.1c6.1,0,11.1,5,11.1,11.1S388.7,185.6,382.6,185.6z"/>
<path class="st3" d="M343.7,220.1V216c0-1.2,1-2.2,2.2-2.2v-0.1h6.2V96.4c-5.8,0-10.6,4.8-10.7,10.6v12.1c0,3.3-3.4,5.8-6.7,5.8H305
	c-12.3,0-22.2,10-22.2,22.2v84c0,12.3,10,22.2,22.2,22.2h47v-31.2h-6.2C344.6,222.2,343.7,221.3,343.7,220.1z M329.8,220.1
	c0,1.2-1,2.2-2.2,2.2h-12.4c-1.2,0-2.2-1-2.2-2.2V216c0-1.2,1-2.2,2.2-2.2h12.4c1.2,0,2.2,1,2.2,2.1V220.1L329.8,220.1z
	 M321.4,185.6c-6.1,0-11.1-5-11.1-11.1c0-6.1,5-11.1,11.1-11.1c6.2,0,11.1,5.1,11.1,11.1C332.5,180.6,327.5,185.6,321.4,185.6z"/>
<path class="st5" d="M262.3,200.3c0.5,0.7,0.7,1.5,0.4,2.4c-1.1,4.6-0.2,9.4,2.4,13.2c0.9,1.2,0.6,3-0.5,3.9
	c-1.2,0.9-2.9,0.7-3.8-0.5c-3.7-5.1-4.8-11.5-3.3-17.7c0.4-1.5,1.8-2.5,3.3-2.1C261.5,199.5,261.9,199.8,262.3,200.3z"/>
<path class="st5" d="M443.6,199.5c1.4-0.4,2.9,0.7,3.3,2.1c1.6,6.2,0.4,12.7-3.3,17.7c-0.9,1.2-2.6,1.4-3.8,0.5
	c-1.1-0.9-1.4-2.7-0.5-3.9c2.6-3.8,3.5-8.5,2.4-13.2c-0.3-0.8-0.1-1.7,0.4-2.4C442.4,199.8,442.8,199.5,443.6,199.5z"/>
<path class="st6" d="M355.5,14.7l-0.3,15.6c-0.1,2.1-1.7,3.7-3.9,3.8c-2.1,0-3.7-1.6-3.7-3.7l0.3-15.6c0.1-2.1,1.7-3.7,3.9-3.8
	C353.8,11,355.5,12.6,355.5,14.7z"/>
<path class="st6" d="M378,24.6c0,1-0.4,2-1.2,2.7l-10.1,10c-1.5,1.5-3.9,1.5-5.4,0c-1.4-1.4-1.4-3.8,0.1-5.4l10.1-10
	c1.5-1.5,3.9-1.5,5.4,0C377.7,22.6,378,23.7,378,24.6z"/>
<path class="st6" d="M342.4,34.7c0,1-0.4,2-1.2,2.7c-1.5,1.5-3.9,1.5-5.4,0l-9.8-9.8c-1.4-1.4-1.4-3.8,0.1-5.4
	c1.5-1.5,3.9-1.5,5.4,0l9.8,9.8C342,32.8,342.4,33.8,342.4,34.7z"/>
<path class="st7" d="M429.8,128.8c0.1-31-21.7-57.3-52.1-66.9v29.6c0,3.7-3,6.6-6.6,6.6c-3.7,0-6.6-3-6.6-6.6c0,0,0-24.7,0-32.7
	c0-10.6-5.7-14.4-12.4-14.4v87.7h77.7C429.8,131.1,429.8,129.9,429.8,128.8z"/>
<path class="st8" d="M339.1,58.9c0,11,0,32.6,0,32.6c0,3.7-3,6.6-6.6,6.6s-6.6-3-6.6-6.6V62c-30.2,9.8-51.8,36-51.8,66.8
	c0,1.2,0,2.2,0.1,3.3H352V44.5C344.6,44.5,339.1,47.9,339.1,58.9z"/>
<path class="st8" d="M430.1,132.2H352V151c35,0.1,78.1,5,78.1,5c6.1,2.2,8.7-3.9,8.7-8.7v-6.2C438.9,136.2,434.9,132.2,430.1,132.2z
	"/>
<path class="st9" d="M272.8,132.2c-4.8,0-8.7,3.9-8.7,8.7v6.2c0,4.8,3,10.4,8.7,8.7c0,0,44.5-5,78.7-5c0.2,0,0.3,0,0.5,0v-18.8
	h-79.2V132.2z"/>
<path class="st10" d="M455.9,288.6H351.5v57.7h104.2c4.5,0,8.2-3.7,8.2-8.2v-41.3C464.1,292.3,460.4,288.6,455.9,288.6z"/>
<path class="st11" d="M248.2,288.6c-4.5,0-8.2,3.7-8.2,8.2V338c0,4.5,3.7,8.2,8.2,8.2h103.4v-57.7L248.2,288.6L248.2,288.6z"/>
<path class="st10" d="M278.8,260h-11.1c-4.5,0-8.2,3.7-8.2,8.2v45.1c0,4.5,3.7,8.2,8.2,8.2h11.1c4.5,0,8.2-3.7,8.2-8.2v-45.1
	C287,263.6,283.4,260,278.8,260z"/>
<path class="st4" d="M273.3,299.2c-0.1,0-0.1,0-0.1,0v18.6c0.1,0,0.1,0,0.1,0c5.1,0,9.3-4.2,9.3-9.3
	C282.6,303.4,278.4,299.2,273.3,299.2z"/>
<path class="st3" d="M264,308.5c0,5.1,4.1,9.2,9.1,9.3v-18.6C268,299.3,264,303.5,264,308.5z"/>
<path class="st12" d="M436.4,321.4h-11.1c-4.5,0-8.2-3.7-8.2-8.2v-45.1c0-4.5,3.7-8.2,8.2-8.2h11.1c4.5,0,8.2,3.7,8.2,8.2v45.1
	C444.6,317.8,440.9,321.4,436.4,321.4z"/>
<path class="st4" d="M430.7,299.2c-0.1,0-0.1,0-0.1,0v18.6c0.1,0,0.1,0,0.1,0c5.1,0,9.3-4.2,9.3-9.3
	C440,303.4,435.9,299.2,430.7,299.2z"/>
<path class="st3" d="M421.6,308.5c0,5.1,4.1,9.2,9.1,9.3v-18.6C425.6,299.3,421.6,303.5,421.6,308.5z"/>
<g id="Layer_2">
	<polygon class="st0" points="470.4,368.1 352.4,413.7 234.4,368.1 352.8,321.8 	"/>
	<polygon class="st8" points="351.7,444.1 453.6,483.5 453.6,357.4 351.7,317.9 	"/>
	<polygon class="st4" points="453.6,483.9 351.7,523.4 351.7,397.1 453.6,357.6 	"/>
	<polygon class="st9" points="351.7,444.1 249.6,483.5 249.6,357.4 351.7,317.9 	"/>
	<polygon class="st3" points="249.6,483.9 351.7,523.4 351.7,397.1 249.6,357.6 	"/>
	<polyline class="st8" points="249.6,357.6 209.7,318.2 311.9,278.2 351.7,318.2 	"/>
	<polyline class="st13" points="351.7,317.9 385.1,278.8 487.6,318.4 453.6,357.6 	"/>
	<polyline class="st5" points="351.7,397.4 384.9,363.6 487.2,323.6 453.6,357.9 	"/>
	<polyline class="st4" points="249.6,357.6 209.8,324.2 312.4,363.8 351.7,397.4 	"/>
	<path class="st13" d="M376.4,468.9c-2.7,0-4.3-1.8-4.4-4.9c0-13.1,0-26.4,0-39.8c0-5.8,4.7-12.4,10.6-14.7l0.9-0.4
		c4-1.6,8.1-3.2,12.1-4.7c3.2-1.1,4.4-2.8,4.1-5.9c-0.2-1.6-0.1-3.3-0.1-5V393c0.1-2.3,1.7-4.3,4.1-5.2c0.7-0.2,1.2-0.4,1.7-0.4
		s1.3,0,1.3,1.7c0.1,2.2,0.2,4.3,0,6.4c-0.1,0.7,0,2,0.7,2.7c0.3,0.3,0.8,0.7,1.7,0.7c0.6,0,1.2-0.2,2.1-0.5c3.7-1.6,7.7-3,11.3-4.4
		l1.7-0.7c1.4-0.5,2.8-0.8,4.1-0.8c3.7,0,6,2.6,6,7c0,3.9,0,7.8,0,11.7c-0.1,8.9-0.1,18.1,0.2,27.1c0.1,4.1-4.1,10.6-8.8,12.1
		c-5.4,1.8-10.9,4-16.2,6.1c-2.2,0.9-4.7,1.8-6.9,2.7l-6.7,2.6c-5.6,2.2-11.3,4.3-16.9,6.5C378.3,468.6,377.3,468.9,376.4,468.9z
		 M392.6,445c-0.7,0-1.3,0.2-2,0.5c-1.3,0.6-2.3,1-3.2,1.2c-2.2,0.7-3.2,2.2-3.2,4.3c0.1,2.7,1.8,2.8,2.4,2.8c0.5,0,1.1-0.2,1.8-0.4
		c0.4-0.2,0.7-0.3,1.2-0.4c0.2-0.1,0.4-0.2,0.7-0.2c0.2-0.1,0.3-0.2,0.4-0.2c0.3-0.2,0.6-0.2,0.9-0.3c1.1-0.3,3.5-1.1,3.5-4.4
		C394.9,445.2,393.2,445,392.6,445z M406.6,439.6c-0.6,0-1.2,0.2-2,0.5c-1.2,0.4-2.9,1-2.9,1c-2.3,0.8-2.9,2.9-2.4,4.5
		c0.4,1.2,1.7,2.1,2.9,2.2h0.2c0.7,0,1.4-0.2,1.7-0.3c0,0,1.3-0.5,1.7-0.7c1-0.4,3.3-1.1,3.4-4.2c0-1.1-0.2-1.9-0.7-2.4
		C408.1,439.9,407.5,439.6,406.6,439.6z M420.3,434.4c-0.7,0-4.4,1.1-4.4,1.1c-1.3,0.5-3.4,1.2-3.5,4.2c0,1.1,0.2,1.8,0.7,2.4
		c0.3,0.3,0.8,0.7,1.7,0.7l0,0c0.7,0,1.5-0.3,2.2-0.7l2.2-0.4c1.3-0.4,3.4-1.2,3.5-4.2c0-1.1-0.2-1.8-0.7-2.3
		C421.6,434.7,421.1,434.4,420.3,434.4z M391.5,421.8c-0.7,0-1.7,0.2-2.6,0.5c-3.5,1.3-6.2,5-6.2,8.6c0,2.9,2,5,4.7,5l0,0
		c0.7,0,1.7-0.2,2.6-0.5c3.5-1.3,6.2-5,6.2-8.6C396.3,423.8,394.3,421.8,391.5,421.8z M419.2,411.2c-0.7,0-1.7,0.2-2.4,0.4
		c-3.6,1.3-6.2,4.9-6.2,8.5c0,1.5,0.4,2.8,1.3,3.7c0.8,0.8,2.1,1.3,3.4,1.3l0,0c0.7,0,1.7-0.2,2.4-0.4c3.6-1.3,6.2-4.9,6.2-8.5
		c0-1.5-0.4-2.8-1.3-3.7C421.8,411.6,420.5,411.2,419.2,411.2z"/>
	<path class="st13" d="M361.2,460.5c-0.5,0-1.7,0-1.8-2.2c-0.1-5.5-0.2-11.3,0-17.6c0.1-2.8,1.9-5.2,4.7-6.4c0.5-0.2,1-0.4,1.3-0.5
		c0.5-0.2,1.1-0.4,1.4-0.6c0,0.4,0,0.9,0,1.4c0,0.4,0,0.7,0,1.2c0,2.2,0,4.4,0,6.7v1.9l0,0c0,0,0,3.5,0,4.6c0,2.8,0,5.7,0,8.5
		c0,1.1-0.2,1.4-1.2,1.7c-0.6,0.2-1.2,0.4-1.7,0.7c-0.3,0.2-0.7,0.2-1.1,0.4C362.3,460.4,361.7,460.5,361.2,460.5z"/>
	<path class="st13" d="M439.8,431.5c-0.1-0.6-0.1-1.5-0.1-2.4c0-3.3,0-6.7,0-9.9c0-1.1,0-2.2,0-3.2c0-2.7,0-5.6,0-8.4
		c0-1.2,0.2-1.6,1.3-1.9c0.6-0.2,1.2-0.4,1.7-0.7c0.3-0.2,0.7-0.2,1.1-0.4c0.7-0.2,1.2-0.3,1.7-0.3c0.5,0,1.8,0,1.8,2.3
		c0.1,6,0.1,11.9,0,17.6c-0.1,2.7-1.9,5.2-4.9,6.3C441.5,431,440.5,431.4,439.8,431.5z"/>
	<polygon class="st10" points="453.6,471.3 351.7,510.7 351.7,491.5 453.6,452.1 	"/>
	<polygon class="st11" points="249.6,471.3 351.7,510.7 351.7,491.5 249.6,452.1 	"/>
	<path class="st14" d="M500.8,503.1l-20.6-8.5c-2.7-1.2-4.1-4.2-2.9-7.1c1.2-2.7,4.2-4.1,7.1-2.9l20.6,8.4c2.7,1.2,4.1,4.2,2.9,7.1
		C506.7,503,503.6,504.2,500.8,503.1z"/>
	<path class="st14" d="M475.3,527.7c-1.3-0.5-2.3-1.6-2.9-2.9l-7.7-18.5c-1.2-2.7,0.2-5.9,2.9-7.1c2.7-1.2,5.9,0.2,7.1,2.9l7.7,18.5
		c1.2,2.7-0.2,5.9-2.9,7.1C478,528.3,476.5,528.3,475.3,527.7z"/>
	<path class="st14" d="M481.5,475.5c-1.3-0.5-2.3-1.6-2.9-2.9c-1.2-2.7,0.2-5.9,2.9-7.1l18.5-7.7c2.7-1.2,5.9,0.2,7.1,2.9
		c1.2,2.7-0.2,5.9-2.9,7.1l-18.5,7.7C484.2,476,482.8,476,481.5,475.5z"/>
</g>
</svg>
