<?xml version="1.0" encoding="utf-8"?>
<!-- Generator: Adobe Illustrator 19.0.0, SVG Export Plug-In . SVG Version: 6.00 Build 0)  -->
<svg version="1.1" id="Layer_1" xmlns="http://www.w3.org/2000/svg" xmlns:xlink="http://www.w3.org/1999/xlink" x="0px" y="0px"
	 viewBox="-49 141 512 512" style="enable-background:new -49 141 512 512;" xml:space="preserve">
<style type="text/css">
	.st0{display:none;}
	.st1{display:inline;}
	.st2{fill:#9BAAAB;}
	.st3{fill:#365558;}
	.st4{fill:#0295AA;}
	.st5{fill:#CDD4D5;}
	.st6{fill:#E6EAEA;}
	.st7{fill:#4ACFD9;}
	.st8{fill:#FFFFFF;}
	.st9{fill:#FFD1A9;}
	.st10{fill:#FF8C29;}
</style>
<g id="Layer_3" class="st0">
	<rect x="1000" y="-281.4" class="st1" width="512" height="512.8"/>
</g>
<g>
	<path class="st2" d="M233.4,542l77.6-29.4l89.5-115.3c1.7-2.2,1.5-5.2-0.4-6.8l-70-54.2l-139,179.2l35.8,27.8
		C228.8,544.8,231.7,544.3,233.4,542z"/>
	<path class="st3" d="M265.2,286c-1.9-1.5-4.9-1-6.6,1.1l-98.9,127.4l6.5,81.6l24.8,19.3l139-179.1L265.2,286z"/>
	<g>
		<path class="st4" d="M261.9,333.6c-1.9-1.5-4.9-1-6.6,1.1c-1.7,2.1-1.5,5.2,0.5,6.7l43.9,34.1l6.1-7.8L261.9,333.6z"/>
		<path class="st4" d="M235.9,367c-1.9-1.5-4.9-1-6.6,1.1c-1.7,2.1-1.5,5.2,0.5,6.7l43.9,34.1l6.1-7.9L235.9,367L235.9,367z"/>
		<path class="st4" d="M203.3,401.6c-1.7,2.2-1.5,5.2,0.5,6.7l43.9,34.1l6.1-7.9l-43.9-34.1C208,398.9,205,399.4,203.3,401.6z"/>
		<path class="st4" d="M177.4,434.9c-1.7,2.2-1.5,5.2,0.5,6.7l43.9,34.1l6.1-7.9L184,433.7C182.1,432.3,179,432.9,177.4,434.9z"/>
	</g>
	<g>
		<path class="st3" d="M350.1,408.4c1.7-2.2,1.5-5.2-0.5-6.7l-43.9-34.1l-6.1,7.8l43.9,34.1C345.5,411.1,348.5,410.6,350.1,408.4z"
			/>
		<path class="st3" d="M324.2,441.9c1.7-2.2,1.5-5.2-0.5-6.7l0.1-0.1L279.8,401l-6.1,7.9l43.9,34.1
			C319.6,444.5,322.5,444.1,324.2,441.9z"/>
		<path class="st3" d="M298.2,475.4c1.7-2.2,1.5-5.2-0.4-6.8l-43.9-34.1l-6.1,7.9l43.9,34.1C293.6,478,296.6,477.4,298.2,475.4z"/>
		<path class="st3" d="M272.4,508.6c1.7-2.1,1.4-5.1-0.4-6.8L228,467.7l-6.1,7.9l43.9,34.1C267.7,511.3,270.7,510.8,272.4,508.6z"/>
	</g>
</g>
<g>
	<path id="SVGCleanerId_0_2_" class="st2" d="M242.9,294.9h-50.7l55.2,60.5V300C247.4,297.2,245.4,294.9,242.9,294.9z"/>
</g>
<g>
	<path class="st5" d="M290.6,486.7l61.8-207.8c0.8-2.7-0.5-5.4-2.9-6.2l-84.8-25.2l-64.7,217.4l84.8,25.2
		C287.3,490.8,289.8,489.3,290.6,486.7z"/>
	<path class="st2" d="M186,224.2c-2.3-0.7-4.9,0.8-5.7,3.4l-46,154.6l35.6,73.7l30.1,9l64.7-217.3L186,224.2z"/>
	<g>
		<path class="st4" d="M200.2,269.7c-2.3-0.7-4.9,0.8-5.7,3.4c-0.8,2.7,0.5,5.4,2.9,6.1l53.3,15.9l2.8-9.5L200.2,269.7z"/>
		<path class="st4" d="M188.1,310.3c-2.3-0.7-4.9,0.8-5.7,3.4c-0.8,2.6,0.5,5.4,2.9,6.1l53.3,15.9l2.9-9.6L188.1,310.3L188.1,310.3z
			"/>
		<path class="st4" d="M170.3,354.3c-0.8,2.7,0.5,5.4,2.9,6.1l53.3,15.9l2.9-9.6L176,350.8C173.6,350.1,171.1,351.7,170.3,354.3z"/>
		<path class="st4" d="M158.3,394.7c-0.8,2.7,0.5,5.4,2.9,6.1l53.3,15.9l2.9-9.6L164,391.2C161.6,390.6,159,392.2,158.3,394.7z"/>
	</g>
	<g>
		<path class="st4" d="M309.6,307.5c0.8-2.7-0.5-5.4-2.9-6.1l-53.3-15.9l-2.8,9.5l53.3,15.9C306.3,311.6,308.8,310.2,309.6,307.5z"
			/>
		<path class="st4" d="M297.6,348c0.8-2.7-0.5-5.4-2.9-6.1l0,0l-53.3-15.9l-2.9,9.6l53.3,15.9C294.2,352.3,296.8,350.7,297.6,348z"
			/>
		<path class="st4" d="M285.5,388.6c0.8-2.7-0.5-5.4-2.9-6.2l-53.3-15.9l-2.9,9.6l53.3,15.9C282.2,392.7,284.7,391.3,285.5,388.6z"
			/>
		<path class="st4" d="M273.4,429.1c0.8-2.6-0.5-5.3-2.9-6.2l-53.3-15.9l-2.9,9.6l53.3,15.9C270.1,433.3,272.6,431.8,273.4,429.1z"
			/>
	</g>
</g>
<g>
	<path id="SVGCleanerId_0_5_" class="st2" d="M196.3,331.5h-50.7l55.2,60.5v-55.5C200.9,333.8,198.9,331.6,196.3,331.5z"/>
</g>
<g>
	<path class="st6" d="M291.3,456.5l-76.6-202.8c-1-2.6-3.6-4-6-3.2L126,281.9L206.1,494l82.8-31.3
		C291.2,461.9,292.3,459.1,291.3,456.5z"/>
	<path class="st5" d="M49.1,311c-2.2,0.8-3.4,3.6-2.5,6.2l57,150.9l73,37.1L206,494L125.9,282L49.1,311z"/>
	<g>
		<path class="st4" d="M88,338.7c-2.2,0.8-3.4,3.6-2.5,6.2c1,2.6,3.6,4,6,3.1l52-19.6l-3.5-9.3L88,338.7z"/>
		<path class="st4" d="M102.9,378.3c-2.2,0.8-3.4,3.6-2.5,6.2c1,2.5,3.6,4,6,3.1l52-19.6l-3.5-9.4L102.9,378.3L102.9,378.3z"/>
		<path class="st4" d="M115.3,424.2c1,2.6,3.6,4,6,3.1l52-19.6l-3.5-9.4l-52,19.6C115.5,418.7,114.4,421.5,115.3,424.2z"/>
		<path class="st4" d="M130.3,463.6c1,2.6,3.6,4,6,3.1l52-19.6l-3.5-9.4l-52,19.6C130.5,458.2,129.3,461.1,130.3,463.6z"/>
	</g>
	<g>
		<path class="st7" d="M197.7,302.1c-1-2.6-3.6-4-6-3.1l-52,19.6l3.5,9.3l52-19.6C197.6,307.4,198.7,304.6,197.7,302.1z"/>
		<path class="st7" d="M212.6,341.5c-1-2.6-3.6-4-6-3.1l0-0.1l-52,19.7l3.5,9.4l52-19.6C212.5,346.9,213.6,344.2,212.6,341.5z"/>
		<path class="st7" d="M227.6,381.2c-1-2.6-3.6-4-6-3.2l-52,19.6l3.5,9.4l52-19.6C227.5,386.5,228.6,383.7,227.6,381.2z"/>
		<path class="st7" d="M242.5,420.7c-1-2.5-3.6-3.9-6-3.2l-52,19.6l3.5,9.4l52-19.6C242.4,426,243.5,423.2,242.5,420.7z"/>
	</g>
</g>
<g>
	<path class="st8" d="M296,437.2L142.7,283.9c-2-2-4.9-2.1-6.8-0.4l-62.6,62.7l160.3,160.3l62.6-62.6
		C298.1,442.2,298,439.2,296,437.2z"/>
	<path class="st6" d="M15.3,404.3c-1.7,1.7-1.6,4.7,0.3,6.6L129.6,525l81.8,3.7l22.2-22.2L73.3,346.3L15.3,404.3z"/>
	<g>
		<path class="st4" d="M62.2,413.6c-1.7,1.7-1.6,4.7,0.3,6.6c1.9,1.9,4.9,2.1,6.7,0.4l39.3-39.3l-7-7L62.2,413.6z"/>
		<path class="st4" d="M92.1,443.6c-1.7,1.7-1.6,4.7,0.3,6.6s4.9,2.1,6.7,0.4l39.3-39.3l-7.1-7.1L92.1,443.6L92.1,443.6z"/>
		<path class="st4" d="M122.4,480c2,2,4.9,2.1,6.7,0.4l39.3-39.3l-7.1-7.1L122,473.3C120.3,475.2,120.5,478.1,122.4,480z"/>
		<path class="st4" d="M152.3,510c2,2,4.9,2.1,6.7,0.4l39.3-39.3l-7.1-7.1l-39.3,39.3C150.1,505.1,150.4,508,152.3,510z"/>
	</g>
	<g>
		<path class="st7" d="M147.6,335.4c-2-2-4.9-2.1-6.7-0.4l-39.3,39.3l7,7l39.3-39.3C149.6,340.3,149.5,337.3,147.6,335.4z"/>
		<path class="st7" d="M177.4,365.2c-2-2-4.9-2.1-6.7-0.4l-0.1-0.1l-39.3,39.3l7.1,7.1l39.3-39.3
			C179.5,370.2,179.4,367.2,177.4,365.2z"/>
		<path class="st7" d="M207.4,395.2c-2-2-4.9-2.1-6.8-0.4l-39.3,39.3l7.1,7.1l39.3-39.3C209.4,400.1,209.4,397.2,207.4,395.2z"/>
		<path class="st7" d="M237.2,425c-1.9-1.9-4.9-2.1-6.8-0.4l-39.3,39.3l7.1,7.1l39.3-39.3C239.3,429.9,239.1,426.9,237.2,425z"/>
	</g>
</g>
<circle class="st6" cx="196.8" cy="596.3" r="18.5"/>
<path class="st3" d="M227.3,649.3L455.4,594c9.9-2.4,9.9-6.4,0-8.8L227.3,530c-4.1-1-9.4-1.5-14.7-1.4v122.3
	C217.9,650.8,223.3,650.3,227.3,649.3z"/>
<path class="st4" d="M-29.9,585.2c-9.9,2.4-9.9,6.4,0,8.8l228.1,55.3c4,1,9.3,1.5,14.5,1.5V528.5c-5.2,0-10.5,0.5-14.5,1.5
	L-29.9,585.2z"/>
<path class="st4" d="M319.7,496.9c0,17.4-47.8,31.5-106.8,31.5c0,0,0,0-0.1,0v7.1v32.7v31.5c0,0,0,0,0.1,0
	c59,0,106.8-14.1,106.8-31.5v-32.7V496.9"/>
<path class="st7" d="M105.9,496.9c0,17.4,47.8,31.5,106.8,31.5c0,0,0,0,0.1,0v7.1v32.7v31.5c0,0,0,0-0.1,0
	c-59,0-106.8-14.1-106.8-31.5v-32.7V496.9"/>
<path class="st9" d="M350.2,653c15.3,0,27.7-12.3,27.8-27.6h-55.6C322.5,640.7,334.9,653,350.2,653z"/>
<path class="st10" d="M350.2,597.4c-15.4,0-27.8,12.4-27.8,27.8c0,0.1,0,0.1,0,0.2H378c0-0.1,0-0.1,0-0.2
	C378,609.8,365.5,597.4,350.2,597.4z"/>
<path class="st9" d="M378,628.5c0,7.3,6,13.3,13.3,13.3l58.7,11.1c7.3,0,13.3-6,13.3-13.3v-14.2h-85.4v3.1L378,628.5L378,628.5z"/>
<path class="st10" d="M450,597.4l-58.7,11.1c-7.3,0-13.3,6-13.3,13.3v3.6h85.4v-14.7C463.4,603.4,457.4,597.4,450,597.4z"/>
</svg>
