<?xml version="1.0" encoding="utf-8"?>
<!-- Generator: Adobe Illustrator 19.0.0, SVG Export Plug-In . SVG Version: 6.00 Build 0)  -->
<svg version="1.1" id="Layer_1" xmlns="http://www.w3.org/2000/svg" xmlns:xlink="http://www.w3.org/1999/xlink" x="0px" y="0px"
	 viewBox="96 11 512 512" style="enable-background:new 96 11 512 512;" xml:space="preserve">
<style type="text/css">
	.st0{display:none;fill:#FFD1A9;}
	.st1{display:none;fill:#FF8C29;}
	.st2{display:none;fill:#FFFFFF;}
	.st3{display:none;fill:#F0353D;}
	.st4{fill:#F0353D;}
	.st5{fill:#FD6A33;}
	.st6{fill:#FF8C29;}
	.st7{fill:#FFD1A9;}
	.st8{fill:#365558;}
	.st9{fill:#0295AA;}
	.st10{fill:#4ACFD9;}
	.st11{fill:#9BAAAB;}
	.st12{fill:#CDD4D5;}
	.st13{fill:#E6EAEA;}
	.st14{fill:#FFFFFF;}
	.st15{fill:#BCD643;}
	.st16{fill:none;stroke:#BCD643;stroke-width:40;stroke-miterlimit:10;}
</style>
<path class="st0" d="M351,152.1c-63.4,0-114.9,51.5-114.9,114.9S287.6,381.9,351,381.9S465.9,330.4,465.9,267S414.4,152.1,351,152.1
	z"/>
<path class="st1" d="M236.1,267c0,63.4,51.5,114.9,114.9,114.9V152.1C287.6,152.1,236.1,203.6,236.1,267z"/>
<path class="st2" d="M423.6,249.4c-3.3,0-6.4-2.1-7.6-5.3c-5.9-16.7-18.4-30.9-34.4-38.8c-4-2-5.6-6.8-3.6-10.7
	c2-4,6.8-5.6,10.7-3.6c19.6,9.8,35.1,27.2,42.4,47.8c1.5,4.2-0.7,8.8-4.9,10.2C425.4,249.2,424.5,249.4,423.6,249.4z"/>
<path class="st3" d="M394.4,259.8l-65-50.4c-2.4-1.9-5.7-2.2-8.4-0.9c-2.7,1.3-4.5,4.1-4.5,7.2v102.6c0,3.1,1.8,5.9,4.6,7.2
	c1.1,0.5,2.3,0.8,3.5,0.8c1.8,0,3.6-0.6,5-1.8l65-52.2c1.9-1.5,3-3.9,3-6.3C397.5,263.6,396.3,261.3,394.4,259.8z"/>
<rect x="-501.3" y="11" class="st4" width="128" height="128"/>
<rect x="-373.3" y="11" class="st5" width="128" height="128"/>
<rect x="-245.3" y="11" class="st6" width="128" height="128"/>
<rect x="-117.3" y="11" class="st7" width="128" height="128"/>
<rect x="-501.3" y="139" class="st8" width="128" height="128"/>
<rect x="-373.3" y="139" class="st9" width="128" height="128"/>
<rect x="-245.3" y="139" class="st10" width="128" height="128"/>
<rect x="-501.3" y="267" class="st11" width="128" height="128"/>
<rect x="-373.3" y="267" class="st12" width="128" height="128"/>
<rect x="-245.3" y="267" class="st13" width="128" height="128"/>
<rect x="-117.3" y="267" class="st14" width="128" height="128"/>
<rect x="-501.3" y="395" class="st15" width="128" height="128"/>
<path class="st16" d="M141,523c0-70.7,57.3-128,128-128h130c70.7,0,128-57.3,128-128s-57.3-128-128-128H269
	c-70.7,0-128-57.3-128-128"/>
<path class="st10" d="M269,295v200c55.2,0,100-44.8,100-100C369,339.8,324.2,295,269,295z"/>
<path class="st9" d="M169,395c0,55.2,44.8,100,100,100V295C213.8,295,169,339.8,169,395z"/>
<path class="st10" d="M527,217v100c27.6,0,50-22.4,50-50C577,239.4,554.6,217,527,217z"/>
<path class="st9" d="M477,267c0,27.6,22.4,50,50,50V217C499.4,217,477,239.4,477,267z"/>
<path class="st10" d="M269,89v100c27.6,0,50-22.4,50-50C319,111.4,296.6,89,269,89z"/>
<path class="st9" d="M219,139c0,27.6,22.4,50,50,50V89C241.4,89,219,111.4,219,139z"/>
<g>
	<path class="st7" d="M302.7,460.4c28.6-6.3,48.9-24.7,45.2-41.1c-3.6-16.4-29.2-22.2-57.8-15.9c-13,2.9-27.1,13.6-36.1,23.2
		l7.1,32.1C272,463,287,463.9,302.7,460.4z"/>
	<path class="st6" d="M261.6,428.1c7.5-7.7,18.9-16.4,29.7-18.8c24.7-5.5,45.3-0.3,48.1,12.1c1.3,6-1.7,12.8-8.5,19
		c-7.2,6.6-17.7,11.6-29.5,14.2c-12.3,2.7-24.6,2.4-34-0.9L261.6,428.1z"/>
	<path class="st7" d="M230,426.9c-14.2,3.1-24.2,13-21.5,25.1c2.7,12.1,16,17.5,30.2,14.4c4.7-1,8.9-2.9,12.3-5.3l-7.7-34.8
		C239.2,425.7,234.6,425.9,230,426.9z"/>
	<path class="st6" d="M213.2,450.9c-1.2-5.4,1.1-9.4,3.3-11.8c3.1-3.4,8-6,13.8-7.3c3.1-0.7,6.2-0.9,9.1-0.7l6,27.2
		c-2.5,1.5-5.4,2.6-8.5,3.3C225,464.2,215.1,459.7,213.2,450.9z"/>
	<path class="st7" d="M273,326.2c28.6-6.3,54.7,1.8,58.3,18.2s-17.1,32.5-45.7,38.8c-13,2.9-30.3-0.9-42.6-5.8l-7.1-32.1
		C244.1,336.8,257.3,329.6,273,326.2z"/>
	<path class="st7" d="M221.2,387.2c-14.2,3.1-27.4-1.6-30.1-13.7c-2.7-12.1,7.1-22.7,21.4-25.8c4.7-1,9.3-1.1,13.4-0.4l7.7,34.8
		C230.1,384.4,225.9,386.2,221.2,387.2z"/>
	<path class="st5" d="M243.6,346.3c7.1-6.9,18.2-12.4,30.5-15.1c11.8-2.6,23.4-2.5,32.8,0.4c8.8,2.8,14.4,7.6,15.7,13.6
		c2.7,12.4-13.8,25.8-38.5,31.2c-10.8,2.4-24.8-0.7-34.8-4.5L243.6,346.3z"/>
	<path class="st5" d="M212.6,352c3.1-0.7,6.2-0.9,9.1-0.6l6,27.2c-2.5,1.4-5.4,2.5-8.5,3.2c-5.8,1.3-11.3,1-15.6-0.8
		c-2.9-1.3-6.7-3.9-7.9-9.3C193.7,362.9,200.8,354.6,212.6,352z"/>
</g>
</svg>
