<?xml version="1.0" encoding="utf-8"?>
<!-- Generator: Adobe Illustrator 19.0.0, SVG Export Plug-In . SVG Version: 6.00 Build 0)  -->
<svg version="1.1" id="Layer_1" xmlns="http://www.w3.org/2000/svg" xmlns:xlink="http://www.w3.org/1999/xlink" x="0px" y="0px"
	 viewBox="96 11 512 512" style="enable-background:new 96 11 512 512;" xml:space="preserve">
<style type="text/css">
	.st0{fill:#CDD4D5;}
	.st1{fill:#4ACFD9;}
	.st2{fill:#9BAAAB;}
	.st3{fill:#0295AA;}
	.st4{display:none;fill:#FFD1A9;}
	.st5{display:none;fill:#FF8C29;}
	.st6{display:none;fill:#FFFFFF;}
	.st7{display:none;fill:#F0353D;}
	.st8{fill:#FF8C29;}
	.st9{fill:#FFFFFF;}
	.st10{fill:#F0353D;}
	.st11{fill:#BCD643;}
	.st12{fill:#687F82;}
</style>
<path class="st0" d="M599,59.1c4.4,0,8-3.6,8-8V25.4c0-4.4-3.6-8-8-8H103c-4.4,0-8,3.6-8,8v25.7c0,4.4,3.6,8,8,8h39v26.7h-39
	c-4.4,0-8,3.6-8,8v342c0,4.4,3.6,8,8,8h39v26.7h-39c-4.4,0-8,3.6-8,8v29.9c0,4.4,3.6,8,8,8h496c4.4,0,8-3.6,8-8v-29.9
	c0-4.4-3.6-8-8-8h-39v-26.7h39c4.4,0,8-3.6,8-8v-342c0-4.4-3.6-8-8-8h-39V59.1H599z M470.2,85.8V59.1h31v26.7L470.2,85.8L470.2,85.8
	z M501.2,443.9v26.7h-31v-26.7L501.2,443.9L501.2,443.9z M380.4,85.8V59.1h31v26.7L380.4,85.8L380.4,85.8z M290.6,85.8V59.1h31v26.7
	L290.6,85.8L290.6,85.8z M290.6,443.9h31v0v26.7 M200.8,85.8V59.1h31v26.7L200.8,85.8L200.8,85.8z M231.8,443.9v26.7h-31v-26.7
	L231.8,443.9L231.8,443.9z"/>
<path class="st1" d="M599,120H103c-4.4,0-8,3.6-8,8V406c0,4.4,3.6,8,8,8h496c4.4,0,8-3.6,8-8V128C607,123.6,603.4,120,599,120z"/>
<path class="st2" d="M103,17.4c-4.4,0-8,3.6-8,8v25.7c0,4.4,3.6,8,8,8h39v26.7h-39c-4.4,0-8,3.6-8,8v342c0,4.4,3.6,8,8,8h39v26.7
	h-39c-4.4,0-8,3.6-8,8v29.9c0,4.4,3.6,8,8,8h248V17.4H103z M231.8,470.6h-31v-26.7h31V470.6z M231.8,85.8h-31V59.1h31V85.8z
	 M290.6,85.8V59.1h31v26.7L290.6,85.8L290.6,85.8z"/>
<path class="st3" d="M103,120c-4.4,0-8,3.6-8,8V406c0,4.4,3.6,8,8,8h248V120H103z"/>
<path class="st4" d="M351,152.1c-63.4,0-114.9,51.5-114.9,114.9S287.6,381.9,351,381.9S465.9,330.4,465.9,267S414.4,152.1,351,152.1
	z"/>
<path class="st5" d="M236.1,267c0,63.4,51.5,114.9,114.9,114.9V152.1C287.6,152.1,236.1,203.6,236.1,267z"/>
<path class="st6" d="M423.6,249.4c-3.3,0-6.4-2.1-7.6-5.3c-5.9-16.7-18.4-30.9-34.4-38.8c-4-2-5.6-6.8-3.6-10.7
	c2-4,6.8-5.6,10.7-3.6c19.6,9.8,35.1,27.2,42.4,47.8c1.5,4.2-0.7,8.8-4.9,10.2C425.4,249.2,424.5,249.4,423.6,249.4z"/>
<path class="st7" d="M394.4,259.8l-65-50.4c-2.4-1.9-5.7-2.2-8.4-0.9c-2.7,1.3-4.5,4.1-4.5,7.2v102.6c0,3.1,1.8,5.9,4.6,7.2
	c1.1,0.5,2.3,0.8,3.5,0.8c1.8,0,3.6-0.6,5-1.8l65-52.2c1.9-1.5,3-3.9,3-6.3C397.5,263.6,396.3,261.3,394.4,259.8z"/>
<g>
	<path class="st8" d="M350.3,154.3c-30.5-0.1-59,11.9-80.6,33.4s-33.4,50.2-33.5,80.7c0,30.4,11.9,59,33.5,80.7
		c21.5,21.5,50.2,33.4,80.7,33.5c30.5,0.1,59-11.9,80.7-33.5c21.5-21.5,33.4-50.2,33.5-80.7c0.1-30.5-11.9-59-33.5-80.7
		S380.8,154.2,350.3,154.3z"/>
	<g>
		<path class="st9" d="M414.6,267.7c-4.6,0-8.9-3.3-9.7-8.3c-0.5-3-1.2-6-2.2-8.9c-1.7-5.2,1-10.7,6.1-12.3c5.2-1.7,10.7,1,12.3,6.1
			c1.4,3.9,2.4,7.9,3,12c0.9,5.3-2.8,10.4-8.1,11.3C415.8,267.7,415.2,267.8,414.6,267.7z"/>
		<path class="st9" d="M400.4,236.4c-2.8,0-5.5-1.2-7.5-3.6c-10.6-12.7-26.1-19.9-42.6-20c-5.3,0-9.8-4.5-9.8-9.8
			c0-5.3,4.5-9.8,9.8-9.8c22.3,0,43.3,9.9,57.5,26.9c3.5,4.1,2.9,10.2-1.3,13.7C404.7,235.7,402.7,236.4,400.4,236.4z"/>
	</g>
	<path class="st10" d="M397.3,268.9l-11,0v-5.8c0-5.3-4.5-9.8-9.8-9.8s-9.8,4.5-9.8,9.8v5.8l-32.7,0v-5.8c0-5.3-4.5-9.8-9.8-9.8
		s-9.8,4.5-9.8,9.8v5.8l-11,0c-5.3,0-9.8,4.5-9.8,9.8c0,5.3,4.5,9.8,9.8,9.8l11,0v73.6c0,5.3,4.5,9.8,9.8,9.8c5.3,0,9.8-4.5,9.8-9.8
		v-73.6l32.7,0v73.6c0,5.3,4.5,9.8,9.8,9.8c5.3,0,9.8-4.5,9.8-9.8v-73.6l11,0c5.3,0,9.8-4.5,9.8-9.8
		C407.1,273.4,402.7,269,397.3,268.9z"/>
	<g>
		<path class="st11" d="M183.1,296h-40.7c-5.5,0-9.9-4.4-9.8-9.8s4.4-9.9,9.8-9.8h40.7c5.5,0,9.9,4.4,9.8,9.8
			C192.9,291.7,188.5,296.1,183.1,296z"/>
		<path class="st11" d="M168.5,355.2c-2.5,0-5.1-0.9-7-2.9c-3.8-3.8-3.8-10,0-13.8l25.9-25.9c3.8-3.8,10-3.8,13.8,0s3.8,10,0,13.8
			l-25.9,25.9C173.6,354.3,171,355.2,168.5,355.2z"/>
		<path class="st11" d="M194.2,262.8c-2.5,0-5.1-0.9-7-2.9L161.3,234c-3.8-3.8-3.8-10,0-13.8s10-3.8,13.8,0l25.9,25.9
			c3.8,3.8,3.8,10,0,13.8C199.1,261.8,196.6,262.7,194.2,262.8z"/>
		<path class="st11" d="M550,296l-40.7,0c-5.5,0-9.9-4.4-9.8-9.8c0-5.5,4.4-9.9,9.8-9.8l40.7,0c5.5,0,9.9,4.4,9.8,9.8
			C559.8,291.7,555.4,296.1,550,296z"/>
		<path class="st11" d="M523.9,355.2c-2.5,0-5.1-0.9-7-2.9l-25.9-25.9c-3.8-3.8-3.8-10,0-13.8c3.8-3.8,10-3.8,13.8,0l25.9,25.9
			c3.8,3.8,3.8,10,0,13.8C528.8,354.2,526.4,355.2,523.9,355.2z"/>
		<path class="st11" d="M498.1,262.7c-2.5,0-5.1-0.9-7-2.9c-3.8-3.8-3.8-10,0-13.8l26-26c3.8-3.8,10-3.8,13.8,0s3.8,10,0,13.8
			L505,259.7C503.1,261.8,500.6,262.7,498.1,262.7z"/>
	</g>
	<path class="st8" d="M360.3,491.8h-9.8V523h9.8c6.6,0,12-5.4,12-12v-7.3C372.3,497.1,366.8,491.8,360.3,491.8z"/>
	<path class="st10" d="M341.3,491.8c-6.6,0-12,5.4-12,12v7.3c0,6.6,5.4,12,12,12h9.2v-31.3H341.3z"/>
	<path class="st0" d="M398.4,370.4h-96.2c-6.2,0-11.3,6.2-11.3,14l0.1,104.4c0,7.8,5.1,14,11.3,14l96.2,0c3.2,0,6-1.6,7.9-4
		c2.1-2.5,3.3-6.1,3.2-9.9V384.5C409.7,376.6,404.6,370.4,398.4,370.4z"/>
	<path class="st2" d="M350.3,370.4l0.1,132.4h48.1c3.2,0,6-1.6,7.9-4c2.1-2.5,3.3-6.1,3.2-9.9l0-104.5c0-7.8-5.1-14-11.3-14
		L350.3,370.4z"/>
	<rect x="291" y="422.6" class="st12" width="118.6" height="28"/>
	<rect x="290.9" y="422.6" class="st2" width="59.4" height="28"/>
</g>
</svg>
