<?xml version="1.0" encoding="utf-8"?>
<!-- Generator: Adobe Illustrator 19.0.0, SVG Export Plug-In . SVG Version: 6.00 Build 0)  -->
<svg version="1.1" id="Layer_1" xmlns="http://www.w3.org/2000/svg" xmlns:xlink="http://www.w3.org/1999/xlink" x="0px" y="0px"
	 viewBox="206 -206 512 512" style="enable-background:new 206 -206 512 512;" xml:space="preserve">
<style type="text/css">
	.st0{fill:#E6EAEA;}
	.st1{fill:#4ACFD9;}
	.st2{fill:#FFD1A9;}
	.st3{fill:#FFFFFF;}
	.st4{fill:#9BAAAB;}
	.st5{fill:#0295AA;}
	.st6{fill:#FD6A33;}
	.st7{fill:#687F82;}
	.st8{fill:#FF8C29;}
	.st9{fill:#F0353D;}
</style>
<path class="st0" d="M611.8-152.1l-148.9-51.6c-1.1-0.4-2.3-0.4-3.5,0l-148.9,51.6c-2.5,0.9-4,3.4-3.6,6l34.4,200.5
	c0.3,1.4,1.1,2.7,2.2,3.5L458,138.1c0.9,0.7,2,0.9,3.1,0.9c1.1,0,2.1-0.3,3.1-0.9l114.6-80.2c1.2-0.8,1.9-2.1,2.2-3.5l34.4-200.5
	C615.7-148.7,614.3-151.2,611.8-152.1z"/>
<path class="st1" d="M587.5-137.7l-124.7-43.1c-1.1-0.4-2.3-0.4-3.5,0l-124.7,43.1c-2.5,0.9-4,3.4-3.6,6L360.8,42
	c0.3,1.4,1.1,2.7,2.2,3.5l94.9,66.5c0.9,0.7,2,0.9,3.1,0.9c1.1,0,2.1-0.3,3.1-0.9L559,45.4c1.2-0.8,1.9-2.1,2.2-3.5L591-131.8
	C591.5-134.3,590-136.9,587.5-137.7z"/>
<path class="st2" d="M470.7-54.1c15.6-4.3,27.2-18.6,27.2-35.6c0-20.4-16.5-36.9-36.9-36.9c-20.3,0-36.9,16.5-36.9,36.9
	c0,17,11.5,31.3,27.2,35.6c-26.8,4.6-47.2,28-47.2,56.1v28.7c0,2.9,2.4,5.4,5.4,5.4h103c2.9,0,5.4-2.4,5.4-5.4V2
	C518-26.1,497.5-49.5,470.7-54.1z"/>
<g>
	<path class="st3" d="M539.9,13.1c-0.3,0-0.6,0-0.9-0.1c-2.9-0.5-4.9-3.3-4.4-6.2l8.4-48.7c0.5-2.9,3.3-4.9,6.2-4.4
		c2.9,0.5,4.9,3.3,4.4,6.2l-8.4,48.7C544.7,11.2,542.4,13.1,539.9,13.1z"/>
	<path class="st3" d="M556.1-81.5c-0.3,0-0.6,0-0.9-0.1c-2.9-0.5-4.9-3.3-4.4-6.2l4.6-27l-30.3-10.5c-2.8-0.9-4.3-4-3.4-6.8
		s4-4.3,6.8-3.4l34.6,12c2.5,0.9,4,3.4,3.6,6l-5.4,31.5C560.9-83.3,558.6-81.5,556.1-81.5z"/>
	<path class="st3" d="M512.6-129.9c-0.6,0-1.2-0.1-1.7-0.3l-22.9-7.9c-2.8-0.9-4.3-4-3.4-6.8c0.9-2.8,4-4.3,6.8-3.4l22.9,7.9
		c2.8,0.9,4.3,4,3.4,6.8C516.9-131.2,514.8-129.9,512.6-129.9z"/>
</g>
<path class="st4" d="M459.3-203.7l-148.9,51.6c-2.5,0.9-4,3.4-3.6,6l34.4,200.5c0.3,1.4,1.1,2.7,2.2,3.5l114.6,80.2
	c0.9,0.7,2,0.9,3.1,0.9V-204C460.4-203.9,459.8-203.9,459.3-203.7z"/>
<path class="st5" d="M459.3-180.9l-124.7,43.1c-2.5,0.9-4,3.4-3.6,6L360.8,42c0.3,1.4,1.1,2.7,2.2,3.5l94.9,66.5
	c0.9,0.7,2,0.9,3.1,0.9v-294.1C460.4-181.2,459.8-181.1,459.3-180.9z"/>
<path class="st6" d="M424.2-89.7c0,17,11.5,31.3,27.2,35.6c-26.8,4.6-47.2,28-47.2,56.1v28.7c0,2.9,2.4,5.4,5.4,5.4h51.6v-162.6
	C440.6-126.6,424.2-110.1,424.2-89.7z"/>
<g>
	<path class="st7" d="M640,101.1c-12-12-28-18.6-44.9-18.6c-0.1,0-0.3,0-0.4,0c-34.9,0.2-63.4,29.1-63.4,64.4v15.8
		c0,1.9,1.5,3.4,3.4,3.4H553c1.9,0,3.4-1.5,3.4-3.4v-15.9c0-21.4,17.1-38.9,38.2-39.1c10.4-0.1,20.1,3.9,27.5,11.2
		c7.4,7.3,11.5,17.1,11.5,27.4v32.7c0,6.8,5.4,12.5,12.1,12.8c0.2,0,0.3,0,0.5,0c3.3,0,6.4-1.2,8.7-3.5c2.5-2.4,3.8-5.6,3.8-9v-32.9
		C658.8,129.2,652.1,113.1,640,101.1z"/>
	<g>
		<path class="st3" d="M649.6,164.3c-1.9,0-3.4-1.5-3.4-3.4v-14.6c0-7.8-1.7-15.3-5.1-22.3c-0.8-1.7-0.1-3.8,1.6-4.6
			c1.7-0.8,3.8-0.1,4.6,1.6c3.8,7.9,5.8,16.4,5.8,25.3v14.6C653.1,162.8,651.5,164.3,649.6,164.3z"/>
		<path class="st3" d="M633.5,111c-0.9,0-1.7-0.3-2.4-1c-3.6-3.6-7.7-6.6-12.1-8.9c-7.3-3.9-15.6-6-24-6c-1.9,0-3.4-1.5-3.4-3.4
			s1.5-3.4,3.4-3.4c9.5,0,18.9,2.3,27.2,6.8c5,2.7,9.6,6.1,13.7,10.1c1.3,1.3,1.3,3.5,0,4.8C635.3,110.6,634.4,111,633.5,111z"/>
	</g>
	<path class="st1" d="M659.9,175.7H530.2c-9.4,0-17.1,7.7-17.1,17.1v108.7c0,1.9,1.5,3.4,3.4,3.4h157.2c1.9,0,3.4-1.5,3.4-3.4V192.8
		C677,183.4,669.4,175.7,659.9,175.7z"/>
	<path class="st5" d="M530.2,175.7c-9.4,0-17.1,7.7-17.1,17.1v108.7c0,1.9,1.5,3.4,3.4,3.4H595V175.7H530.2z"/>
	<path class="st2" d="M601.2,234.7c10-2.7,17.3-11.9,17.3-22.7c0-13-10.6-23.5-23.5-23.5c-13,0-23.5,10.6-23.5,23.5
		c0,10.8,7.4,20,17.3,22.7c-17.1,2.9-30.1,17.9-30.1,35.8v18.3c0,1.9,1.5,3.4,3.4,3.4h65.8c1.9,0,3.4-1.5,3.4-3.4v-18.3
		C631.4,252.6,618.3,237.7,601.2,234.7z"/>
	<path class="st8" d="M571.5,212c0,10.8,7.4,20,17.3,22.7c-17.1,2.9-30.1,17.9-30.1,35.8v18.3c0,1.9,1.5,3.4,3.4,3.4H595V188.5
		C582.1,188.5,571.5,199.1,571.5,212z"/>
	<g>
		<path class="st9" d="M506.9,165.5h-14.2c-1.9,0-3.4-1.5-3.4-3.4s1.5-3.4,3.4-3.4h14.2c1.9,0,3.4,1.5,3.4,3.4
			S508.8,165.5,506.9,165.5z"/>
		<path class="st9" d="M510.9,153.9c-0.9,0-1.8-0.3-2.4-1l-9-9c-1.3-1.3-1.3-3.5,0-4.8c1.3-1.3,3.5-1.3,4.8,0l9,9
			c1.3,1.3,1.3,3.5,0,4.8C512.6,153.6,511.8,153.9,510.9,153.9z"/>
		<path class="st9" d="M501.8,186.2c-0.9,0-1.8-0.3-2.4-1c-1.3-1.3-1.3-3.5,0-4.8l9-9c1.3-1.3,3.5-1.3,4.8,0c1.3,1.3,1.3,3.5,0,4.8
			l-9,9C503.5,185.9,502.6,186.2,501.8,186.2z"/>
	</g>
</g>
<g>
	<path class="st7" d="M257.6,146.2v32.9c0,3.4,1.4,6.7,3.8,9c2.4,2.3,5.4,3.5,8.7,3.5c0.2,0,0.3,0,0.5,0c6.7-0.2,12.1-6,12.1-12.8
		v-32.7c0-10.4,4.1-20.1,11.5-27.4c7.4-7.3,17.2-11.3,27.5-11.2c21.1,0.2,38.2,17.8,38.2,39.1v15.9c0,1.9,1.5,3.4,3.4,3.4h18.3
		c1.9,0,3.4-1.5,3.4-3.4v-15.8c0-35.3-28.4-64.2-63.4-64.4c-0.1,0-0.3,0-0.4,0c-16.9,0-32.9,6.6-44.9,18.6
		C264.2,113.1,257.6,129.2,257.6,146.2z"/>
	<g>
		<path class="st3" d="M263.3,160.9v-14.6c0-8.9,1.9-17.4,5.8-25.3c0.8-1.7,2.9-2.4,4.6-1.6c1.7,0.8,2.4,2.9,1.6,4.6
			c-3.4,6.9-5.1,14.4-5.1,22.3v14.6c0,1.9-1.5,3.4-3.4,3.4C264.8,164.3,263.3,162.8,263.3,160.9z"/>
		<path class="st3" d="M280.4,110c-1.3-1.3-1.3-3.5,0-4.8c4.1-4.1,8.7-7.5,13.7-10.1c8.3-4.4,17.7-6.8,27.2-6.8
			c1.9,0,3.4,1.5,3.4,3.4s-1.5,3.4-3.4,3.4c-8.4,0-16.7,2.1-24,6c-4.4,2.4-8.5,5.4-12.1,8.9c-0.7,0.7-1.5,1-2.4,1
			C281.9,111,281.1,110.6,280.4,110z"/>
	</g>
	<path class="st1" d="M239.3,192.8v108.7c0,1.9,1.5,3.4,3.4,3.4h157.2c1.9,0,3.4-1.5,3.4-3.4V192.8c0-9.4-7.7-17.1-17.1-17.1H256.4
		C247,175.7,239.3,183.4,239.3,192.8z"/>
	<path class="st5" d="M321.3,175.7V305h78.6c1.9,0,3.4-1.5,3.4-3.4V192.8c0-9.4-7.7-17.1-17.1-17.1H321.3z"/>
	<path class="st2" d="M285,270.5v18.3c0,1.9,1.5,3.4,3.4,3.4h65.8c1.9,0,3.4-1.5,3.4-3.4v-18.3c0-17.9-13-32.8-30.1-35.8
		c10-2.7,17.3-11.9,17.3-22.7c0-13-10.6-23.5-23.5-23.5s-23.5,10.6-23.5,23.5c0,10.8,7.4,20,17.3,22.7
		C298,237.7,285,252.6,285,270.5z"/>
	<path class="st8" d="M321.3,188.5v103.7h32.9c1.9,0,3.4-1.5,3.4-3.4v-18.3c0-17.9-13-32.8-30.1-35.8c10-2.7,17.3-11.9,17.3-22.7
		C344.8,199.1,334.3,188.5,321.3,188.5z"/>
	<g>
		<path class="st9" d="M406,162.1c0-1.9,1.5-3.4,3.4-3.4h14.2c1.9,0,3.4,1.5,3.4,3.4s-1.5,3.4-3.4,3.4h-14.2
			C407.5,165.5,406,164,406,162.1z"/>
		<path class="st9" d="M403,152.9c-1.3-1.3-1.3-3.5,0-4.8l9-9c1.3-1.3,3.5-1.3,4.8,0c1.3,1.3,1.3,3.5,0,4.8l-9,9
			c-0.7,0.7-1.5,1-2.4,1C404.6,153.9,403.7,153.6,403,152.9z"/>
		<path class="st9" d="M412.2,185.2l-9-9c-1.3-1.3-1.3-3.5,0-4.8c1.3-1.3,3.5-1.3,4.8,0l9,9c1.3,1.3,1.3,3.5,0,4.8
			c-0.7,0.7-1.5,1-2.4,1S412.8,185.9,412.2,185.2z"/>
	</g>
</g>
</svg>
