<?xml version="1.0" encoding="utf-8"?>
<!-- Generator: Adobe Illustrator 19.0.0, SVG Export Plug-In . SVG Version: 6.00 Build 0)  -->
<svg version="1.1" id="Layer_1" xmlns="http://www.w3.org/2000/svg" xmlns:xlink="http://www.w3.org/1999/xlink" x="0px" y="0px"
	 viewBox="206 -206 512 512" style="enable-background:new 206 -206 512 512;" xml:space="preserve">
<style type="text/css">
	.st0{fill:#FF8C29;}
	.st1{fill:#FD6A33;}
	.st2{fill:#365558;}
	.st3{fill:#687F82;}
	.st4{fill:#4ACFD9;}
	.st5{fill:#0295AA;}
	.st6{fill:#F0353D;}
	.st7{fill:#E6EAEA;}
	.st8{fill:#FFD1A9;}
	.st9{fill:#FFFFFF;}
	.st10{fill:#9BAAAB;}
</style>
<g>
	<path class="st0" d="M540.3,176.4h-70.5v27.3h70.5c2.4,0,4.4-2.3,4.4-5.1v-17C544.8,178.7,542.8,176.4,540.3,176.4z"/>
	<path class="st1" d="M399.3,176.4c-2.4,0-4.4,2.3-4.4,5.1v17c0,2.8,2,5.1,4.4,5.1h70.5v-27.3H399.3z"/>
	<rect x="401.6" y="186.5" class="st2" width="6.5" height="17.1"/>
	<rect x="415.7" y="186.5" class="st2" width="9.7" height="17.1"/>
	<rect x="436.6" y="186.5" class="st2" width="12.9" height="17.1"/>
	<rect x="469.8" y="186.5" class="st2" width="0.1" height="17.1"/>
	<rect x="463.6" y="186.5" class="st2" width="6.2" height="17.1"/>
	<rect x="531.7" y="186.5" class="st3" width="6.5" height="17.1"/>
	<rect x="514.3" y="186.5" class="st3" width="9.7" height="17.1"/>
	<rect x="490.2" y="186.5" class="st3" width="12.9" height="17.1"/>
	<rect x="469.9" y="186.5" class="st3" width="6.2" height="17.1"/>
</g>
<g>
	<path class="st0" d="M534.8,210.7h-70.5v27.3h70.5c2.4,0,4.4-2.3,4.4-5.1v-17C539.2,213,537.2,210.7,534.8,210.7z"/>
	<path class="st1" d="M393.8,210.7c-2.4,0-4.4,2.3-4.4,5.1v17c0,2.8,2,5.1,4.4,5.1h70.5v-27.3H393.8z"/>
	<rect x="396" y="220.8" class="st2" width="6.5" height="17.1"/>
	<rect x="410.1" y="220.8" class="st2" width="9.7" height="17.1"/>
	<rect x="431" y="220.8" class="st2" width="12.9" height="17.1"/>
	<rect x="464.2" y="220.8" class="st2" width="0.1" height="17.1"/>
	<rect x="458.1" y="220.8" class="st2" width="6.2" height="17.1"/>
	<rect x="526.1" y="220.8" class="st3" width="6.5" height="17.1"/>
	<rect x="508.8" y="220.8" class="st3" width="9.7" height="17.1"/>
	<rect x="484.6" y="220.8" class="st3" width="12.9" height="17.1"/>
	<rect x="464.3" y="220.8" class="st3" width="6.2" height="17.1"/>
</g>
<g>
	<path class="st0" d="M542.8,244.8h-70.5v27.3h70.5c2.4,0,4.4-2.3,4.4-5.1v-17C547.2,247.2,545.2,244.8,542.8,244.8z"/>
	<path class="st1" d="M401.8,244.8c-2.4,0-4.4,2.3-4.4,5.1v17c0,2.8,2,5.1,4.4,5.1h70.5v-27.3H401.8z"/>
	<rect x="404" y="255" class="st2" width="6.5" height="17.1"/>
	<rect x="418.1" y="255" class="st2" width="9.7" height="17.1"/>
	<rect x="439.1" y="255" class="st2" width="12.9" height="17.1"/>
	<rect x="472.3" y="255" class="st2" width="0.1" height="17.1"/>
	<rect x="466.1" y="255" class="st2" width="6.2" height="17.1"/>
	<rect x="534.1" y="255" class="st3" width="6.5" height="17.1"/>
	<rect x="516.8" y="255" class="st3" width="9.7" height="17.1"/>
	<rect x="492.7" y="255" class="st3" width="12.9" height="17.1"/>
	<rect x="472.4" y="255" class="st3" width="6.2" height="17.1"/>
</g>
<g>
	<path class="st0" d="M537.2,279.1h-70.5v27.3h70.5c2.4,0,4.4-2.3,4.4-5.1v-17C541.7,281.5,539.7,279.1,537.2,279.1z"/>
	<path class="st1" d="M396.2,279.1c-2.4,0-4.4,2.3-4.4,5.1v17c0,2.8,2,5.1,4.4,5.1h70.5v-27.3H396.2z"/>
	<rect x="398.5" y="289.3" class="st2" width="6.5" height="17.1"/>
	<rect x="412.6" y="289.3" class="st2" width="9.7" height="17.1"/>
	<rect x="433.5" y="289.3" class="st2" width="12.9" height="17.1"/>
	<rect x="466.7" y="289.3" class="st2" width="0.1" height="17.1"/>
	<rect x="460.6" y="289.3" class="st2" width="6.2" height="17.1"/>
	<rect x="528.6" y="289.3" class="st3" width="6.5" height="17.1"/>
	<rect x="511.3" y="289.3" class="st3" width="9.7" height="17.1"/>
	<rect x="487.1" y="289.3" class="st3" width="12.9" height="17.1"/>
	<rect x="466.8" y="289.3" class="st3" width="6.2" height="17.1"/>
</g>
<g>
	<path class="st4" d="M371.8,108.7h-70.5V136h70.5c2.4,0,4.4-2.3,4.4-5.1v-17C376.3,111,374.3,108.7,371.8,108.7z"/>
	<path class="st5" d="M230.8,108.7c-2.4,0-4.4,2.3-4.4,5.1v17c0,2.8,2,5.1,4.4,5.1h70.5v-27.3H230.8z"/>
	<rect x="233.1" y="118.9" class="st2" width="6.5" height="17.1"/>
	<rect x="247.2" y="118.9" class="st2" width="9.7" height="17.1"/>
	<rect x="268.1" y="118.9" class="st2" width="12.9" height="17.1"/>
	<rect x="301.3" y="118.9" class="st2" width="0.1" height="17.1"/>
	<rect x="295.2" y="118.9" class="st2" width="6.2" height="17.1"/>
	<rect x="363.2" y="118.9" class="st3" width="6.5" height="17.1"/>
	<rect x="345.8" y="118.9" class="st3" width="9.7" height="17.1"/>
	<rect x="321.7" y="118.9" class="st3" width="12.9" height="17.1"/>
	<rect x="301.4" y="118.9" class="st3" width="6.2" height="17.1"/>
</g>
<g>
	<path class="st4" d="M364.8,143h-70.5v27.3h70.5c2.4,0,4.4-2.3,4.4-5.1v-17C369.3,145.3,367.3,143,364.8,143z"/>
	<path class="st5" d="M223.9,143c-2.4,0-4.4,2.3-4.4,5.1v17c0,2.8,2,5.1,4.4,5.1h70.5V143H223.9z"/>
	<rect x="226.1" y="153.2" class="st2" width="6.5" height="17.1"/>
	<rect x="240.2" y="153.2" class="st2" width="9.7" height="17.1"/>
	<rect x="261.1" y="153.2" class="st2" width="12.9" height="17.1"/>
	<rect x="294.3" y="153.2" class="st2" width="0.1" height="17.1"/>
	<rect x="288.2" y="153.2" class="st2" width="6.2" height="17.1"/>
	<rect x="356.2" y="153.2" class="st3" width="6.5" height="17.1"/>
	<rect x="338.9" y="153.2" class="st3" width="9.7" height="17.1"/>
	<rect x="314.7" y="153.2" class="st3" width="12.9" height="17.1"/>
	<rect x="294.4" y="153.2" class="st3" width="6.2" height="17.1"/>
</g>
<g>
	<path class="st4" d="M375.8,177.3h-70.5v27.3h70.5c2.4,0,4.4-2.3,4.4-5.1v-17C380.2,179.6,378.2,177.3,375.8,177.3z"/>
	<path class="st5" d="M234.8,177.3c-2.4,0-4.4,2.3-4.4,5.1v17c0,2.8,2,5.1,4.4,5.1h70.5v-27.3H234.8z"/>
	<rect x="237" y="187.5" class="st2" width="6.5" height="17.1"/>
	<rect x="251.1" y="187.5" class="st2" width="9.7" height="17.1"/>
	<rect x="272.1" y="187.5" class="st2" width="12.9" height="17.1"/>
	<rect x="305.3" y="187.5" class="st2" width="0.1" height="17.1"/>
	<rect x="299.1" y="187.5" class="st2" width="6.2" height="17.1"/>
	<rect x="367.1" y="187.5" class="st3" width="6.5" height="17.1"/>
	<rect x="349.8" y="187.5" class="st3" width="9.7" height="17.1"/>
	<rect x="325.7" y="187.5" class="st3" width="12.9" height="17.1"/>
	<rect x="305.4" y="187.5" class="st3" width="6.2" height="17.1"/>
</g>
<g>
	<path class="st4" d="M361.8,211.6h-70.5v27.3h70.5c2.4,0,4.4-2.3,4.4-5.1v-17C366.2,213.9,364.2,211.6,361.8,211.6z"/>
	<path class="st5" d="M220.8,211.6c-2.4,0-4.4,2.3-4.4,5.1v17c0,2.8,2,5.1,4.4,5.1h70.5v-27.3H220.8z"/>
	<rect x="223" y="221.8" class="st2" width="6.5" height="17.1"/>
	<rect x="237.1" y="221.8" class="st2" width="9.7" height="17.1"/>
	<rect x="258.1" y="221.8" class="st2" width="12.9" height="17.1"/>
	<rect x="291.3" y="221.8" class="st2" width="0.1" height="17.1"/>
	<rect x="285.1" y="221.8" class="st2" width="6.2" height="17.1"/>
	<rect x="353.1" y="221.8" class="st3" width="6.5" height="17.1"/>
	<rect x="335.8" y="221.8" class="st3" width="9.7" height="17.1"/>
	<rect x="311.7" y="221.8" class="st3" width="12.9" height="17.1"/>
	<rect x="291.3" y="221.8" class="st3" width="6.2" height="17.1"/>
</g>
<g>
	<path class="st4" d="M367.3,245.9h-70.5v27.3h70.5c2.4,0,4.4-2.3,4.4-5.1v-17C371.8,248.2,369.8,245.9,367.3,245.9z"/>
	<path class="st5" d="M226.3,245.9c-2.4,0-4.4,2.3-4.4,5.1v17c0,2.8,2,5.1,4.4,5.1h70.5v-27.3H226.3z"/>
	<rect x="228.6" y="256.1" class="st2" width="6.5" height="17.1"/>
	<rect x="242.7" y="256.1" class="st2" width="9.7" height="17.1"/>
	<rect x="263.6" y="256.1" class="st2" width="12.9" height="17.1"/>
	<rect x="296.8" y="256.1" class="st2" width="0.1" height="17.1"/>
	<rect x="290.7" y="256.1" class="st2" width="6.2" height="17.1"/>
	<rect x="358.7" y="256.1" class="st3" width="6.5" height="17.1"/>
	<rect x="341.4" y="256.1" class="st3" width="9.7" height="17.1"/>
	<rect x="317.2" y="256.1" class="st3" width="12.9" height="17.1"/>
	<rect x="296.9" y="256.1" class="st3" width="6.2" height="17.1"/>
</g>
<g>
	<path class="st4" d="M360.4,280.2h-70.5v27.3h70.5c2.4,0,4.4-2.3,4.4-5.1v-17C364.8,282.5,362.8,280.2,360.4,280.2z"/>
	<path class="st5" d="M219.4,280.2c-2.4,0-4.4,2.3-4.4,5.1v17c0,2.8,2,5.1,4.4,5.1h70.5v-27.3H219.4z"/>
	<rect x="221.6" y="290.4" class="st2" width="6.5" height="17.1"/>
	<rect x="235.7" y="290.4" class="st2" width="9.7" height="17.1"/>
	<rect x="256.6" y="290.4" class="st2" width="12.9" height="17.1"/>
	<rect x="289.8" y="290.4" class="st2" width="0.1" height="17.1"/>
	<rect x="283.7" y="290.4" class="st2" width="6.2" height="17.1"/>
	<rect x="351.7" y="290.4" class="st3" width="6.5" height="17.1"/>
	<rect x="334.4" y="290.4" class="st3" width="9.7" height="17.1"/>
	<rect x="310.2" y="290.4" class="st3" width="12.9" height="17.1"/>
	<rect x="289.9" y="290.4" class="st3" width="6.2" height="17.1"/>
</g>
<g>
	<path class="st1" d="M700.4,142.7h-70.5v27.3h70.5c2.4,0,4.4-2.3,4.4-5.1v-17C704.8,145,702.8,142.7,700.4,142.7z"/>
	<path class="st6" d="M559.4,142.7c-2.4,0-4.4,2.3-4.4,5.1v17c0,2.8,2,5.1,4.4,5.1h70.5v-27.3H559.4z"/>
	<rect x="561.6" y="152.8" class="st2" width="6.5" height="17.1"/>
	<rect x="575.7" y="152.8" class="st2" width="9.7" height="17.1"/>
	<rect x="596.6" y="152.8" class="st2" width="12.9" height="17.1"/>
	<rect x="629.9" y="152.8" class="st2" width="0.1" height="17.1"/>
	<rect x="623.7" y="152.8" class="st2" width="6.2" height="17.1"/>
	<rect x="691.7" y="152.8" class="st3" width="6.5" height="17.1"/>
	<rect x="674.4" y="152.8" class="st3" width="9.7" height="17.1"/>
	<rect x="650.2" y="152.8" class="st3" width="12.9" height="17.1"/>
	<rect x="629.9" y="152.8" class="st3" width="6.2" height="17.1"/>
</g>
<g>
	<path class="st1" d="M703.1,177h-70.5v27.3h70.5c2.4,0,4.4-2.3,4.4-5.1v-17C707.6,179.3,705.6,177,703.1,177z"/>
	<path class="st6" d="M562.1,177c-2.4,0-4.4,2.3-4.4,5.1v17c0,2.8,2,5.1,4.4,5.1h70.5V177H562.1z"/>
	<rect x="564.4" y="187.1" class="st2" width="6.5" height="17.1"/>
	<rect x="578.5" y="187.1" class="st2" width="9.7" height="17.1"/>
	<rect x="599.4" y="187.1" class="st2" width="12.9" height="17.1"/>
	<rect x="632.6" y="187.1" class="st2" width="0.1" height="17.1"/>
	<rect x="626.5" y="187.1" class="st2" width="6.2" height="17.1"/>
	<rect x="694.5" y="187.1" class="st3" width="6.5" height="17.1"/>
	<rect x="677.2" y="187.1" class="st3" width="9.7" height="17.1"/>
	<rect x="653" y="187.1" class="st3" width="12.9" height="17.1"/>
	<rect x="632.7" y="187.1" class="st3" width="6.2" height="17.1"/>
</g>
<g>
	<path class="st1" d="M704.6,211.3h-70.5v27.3h70.5c2.4,0,4.4-2.3,4.4-5.1v-17C709.1,213.6,707.1,211.3,704.6,211.3z"/>
	<path class="st6" d="M563.6,211.3c-2.4,0-4.4,2.3-4.4,5.1v17c0,2.8,2,5.1,4.4,5.1h70.5v-27.3H563.6z"/>
	<rect x="565.9" y="221.4" class="st2" width="6.5" height="17.1"/>
	<rect x="580" y="221.4" class="st2" width="9.7" height="17.1"/>
	<rect x="600.9" y="221.4" class="st2" width="12.9" height="17.1"/>
	<rect x="634.1" y="221.4" class="st2" width="0.1" height="17.1"/>
	<rect x="628" y="221.4" class="st2" width="6.2" height="17.1"/>
	<rect x="696" y="221.4" class="st3" width="6.5" height="17.1"/>
	<rect x="678.6" y="221.4" class="st3" width="9.7" height="17.1"/>
	<rect x="654.5" y="221.4" class="st3" width="12.9" height="17.1"/>
	<rect x="634.2" y="221.4" class="st3" width="6.2" height="17.1"/>
</g>
<g>
	<path class="st1" d="M705.6,245.5h-70.5v27.3h70.5c2.4,0,4.4-2.3,4.4-5.1v-17C710.1,247.8,708.1,245.5,705.6,245.5z"/>
	<path class="st6" d="M564.6,245.5c-2.4,0-4.4,2.3-4.4,5.1v17c0,2.8,2,5.1,4.4,5.1h70.5v-27.3H564.6z"/>
	<rect x="566.9" y="255.6" class="st2" width="6.5" height="17.1"/>
	<rect x="581" y="255.6" class="st2" width="9.7" height="17.1"/>
	<rect x="601.9" y="255.6" class="st2" width="12.9" height="17.1"/>
	<rect x="635.1" y="255.6" class="st2" width="0.1" height="17.1"/>
	<rect x="629" y="255.6" class="st2" width="6.2" height="17.1"/>
	<rect x="697" y="255.6" class="st3" width="6.5" height="17.1"/>
	<rect x="679.6" y="255.6" class="st3" width="9.7" height="17.1"/>
	<rect x="655.5" y="255.6" class="st3" width="12.9" height="17.1"/>
	<rect x="635.2" y="255.6" class="st3" width="6.2" height="17.1"/>
</g>
<g>
	<path class="st1" d="M707.1,279.8h-70.5V307h70.5c2.4,0,4.4-2.3,4.4-5.1v-17C711.5,282.1,709.5,279.8,707.1,279.8z"/>
	<path class="st6" d="M566.1,279.8c-2.4,0-4.4,2.3-4.4,5.1v17c0,2.8,2,5.1,4.4,5.1h70.5v-27.3H566.1z"/>
	<rect x="568.3" y="289.9" class="st2" width="6.5" height="17.1"/>
	<rect x="582.4" y="289.9" class="st2" width="9.7" height="17.1"/>
	<rect x="603.4" y="289.9" class="st2" width="12.9" height="17.1"/>
	<rect x="636.6" y="289.9" class="st2" width="0.1" height="17.1"/>
	<rect x="630.4" y="289.9" class="st2" width="6.2" height="17.1"/>
	<rect x="698.5" y="289.9" class="st3" width="6.5" height="17.1"/>
	<rect x="681.1" y="289.9" class="st3" width="9.7" height="17.1"/>
	<rect x="657" y="289.9" class="st3" width="12.9" height="17.1"/>
	<rect x="636.7" y="289.9" class="st3" width="6.2" height="17.1"/>
</g>
<path class="st7" d="M611.8-155.2l-148.9-51.6c-1.1-0.4-2.3-0.4-3.5,0l-148.9,51.6c-2.5,0.9-4,3.4-3.6,6l34.4,200.5
	c0.3,1.4,1.1,2.7,2.2,3.5L458,135c0.9,0.7,2,0.9,3.1,0.9c1.1,0,2.1-0.3,3.1-0.9l114.6-80.2c1.2-0.8,1.9-2.1,2.2-3.5l34.4-200.5
	C615.7-151.8,614.3-154.3,611.8-155.2z"/>
<path class="st4" d="M587.5-140.8L462.8-184c-1.1-0.4-2.3-0.4-3.5,0l-124.7,43.1c-2.5,0.9-4,3.4-3.6,6l29.7,173.7
	c0.3,1.4,1.1,2.7,2.2,3.5l94.9,66.5c0.9,0.7,2,0.9,3.1,0.9c1.1,0,2.1-0.3,3.1-0.9L559,42.3c1.2-0.8,1.9-2.1,2.2-3.5L591-134.9
	C591.5-137.4,590-140,587.5-140.8z"/>
<path class="st8" d="M470.7-57.2c15.6-4.3,27.2-18.6,27.2-35.6c0-20.4-16.5-36.9-36.9-36.9c-20.3,0-36.9,16.5-36.9,36.9
	c0,17,11.5,31.3,27.2,35.6c-26.8,4.6-47.2,28-47.2,56.1v28.7c0,2.9,2.4,5.4,5.4,5.4h103c2.9,0,5.4-2.4,5.4-5.4V-1.1
	C518-29.2,497.5-52.6,470.7-57.2z"/>
<g>
	<path class="st9" d="M539.9,10c-0.3,0-0.6,0-0.9-0.1c-2.9-0.5-4.9-3.3-4.4-6.2L543-45c0.5-2.9,3.3-4.9,6.2-4.4
		c2.9,0.5,4.9,3.3,4.4,6.2l-8.4,48.7C544.7,8.1,542.4,10,539.9,10z"/>
	<path class="st9" d="M556.1-84.6c-0.3,0-0.6,0-0.9-0.1c-2.9-0.5-4.9-3.3-4.4-6.2l4.6-27l-30.3-10.5c-2.8-0.9-4.3-4-3.4-6.8
		s4-4.3,6.8-3.4l34.6,12c2.5,0.9,4,3.4,3.6,6L561.3-89C560.9-86.4,558.6-84.6,556.1-84.6z"/>
	<path class="st9" d="M512.6-133c-0.6,0-1.2-0.1-1.7-0.3l-22.9-7.9c-2.8-0.9-4.3-4-3.4-6.8c0.9-2.8,4-4.3,6.8-3.4l22.9,7.9
		c2.8,0.9,4.3,4,3.4,6.8C516.9-134.3,514.8-133,512.6-133z"/>
</g>
<path class="st10" d="M459.3-206.8l-148.9,51.6c-2.5,0.9-4,3.4-3.6,6l34.4,200.5c0.3,1.4,1.1,2.7,2.2,3.5L457.9,135
	c0.9,0.7,2,0.9,3.1,0.9v-343.1C460.4-207,459.8-207,459.3-206.8z"/>
<path class="st5" d="M459.3-184l-124.7,43.1c-2.5,0.9-4,3.4-3.6,6l29.7,173.7c0.3,1.4,1.1,2.7,2.2,3.5l94.9,66.5
	c0.9,0.7,2,0.9,3.1,0.9v-294.1C460.4-184.3,459.8-184.2,459.3-184z"/>
<path class="st1" d="M424.2-92.8c0,17,11.5,31.3,27.2,35.6c-26.8,4.6-47.2,28-47.2,56.1v28.7c0,2.9,2.4,5.4,5.4,5.4h51.6v-162.6
	C440.6-129.7,424.2-113.2,424.2-92.8z"/>
</svg>
