<?xml version="1.0" encoding="utf-8"?>
<!-- Generator: Adobe Illustrator 19.0.0, SVG Export Plug-In . SVG Version: 6.00 Build 0)  -->
<svg version="1.1" id="Layer_1" xmlns="http://www.w3.org/2000/svg" xmlns:xlink="http://www.w3.org/1999/xlink" x="0px" y="0px"
	 viewBox="-703 270 512 512" style="enable-background:new -703 270 512 512;" xml:space="preserve">
<style type="text/css">
	.st0{fill:#E6EAEA;}
	.st1{fill:#9BAAAB;}
	.st2{fill:#CDD4D5;}
	.st3{fill:#687F82;}
	.st4{fill:#FFFFFF;}
	.st5{enable-background:new    ;}
	.st6{fill:#F0353D;}
	.st7{fill:#FD6A33;}
</style>
<path class="st0" d="M-199-325.7h-496c-4.4,0-8,3.6-8,8v487.4c0,4.4,3.6,8,8,8h496c4.4,0,8-3.6,8-8v-487.4
	C-191-322.1-194.6-325.7-199-325.7z"/>
<path class="st1" d="M-199-325.7h-496c-4.4,0-8,3.6-8,8v110.6h512v-110.6C-191-322.1-194.6-325.7-199-325.7z"/>
<path class="st2" d="M-695-325.7c-4.4,0-8,3.6-8,8v487.4c0,4.4,3.6,8,8,8h248v-503.4H-695z"/>
<path class="st3" d="M-695-325.7c-4.4,0-8,3.6-8,8v110.6h256v-118.6H-695z"/>
<g>
	<path class="st4" d="M-276-275.5h-94c-4.4,0-8-3.6-8-8s3.6-8,8-8h94c4.4,0,8,3.6,8,8S-271.5-275.5-276-275.5z"/>
	<path class="st4" d="M-233.2-275.5h-17.1c-4.4,0-8-3.6-8-8s3.6-8,8-8h17.1c4.4,0,8,3.6,8,8S-228.8-275.5-233.2-275.5z"/>
</g>
<g class="st5">
	<path d="M150,953.4H95.8L83.3,886c-1.6-8.1-2.3-15.3-2.3-21.5h-0.7c-0.9,9.6-1.8,16.5-2.7,20.7L64,953.4H9.9l-33.2-138.5h52.4
		l10.8,80.6l1.8,18h0.7c1.1-10.5,1.8-16.7,2.2-18.5l16-80.1h49.7l13.8,80.1l1.1,9.6l0.6,8.7h0.7l0.4-3.9l11.1-94.4H185L150,953.4z"
		/>
	<path d="M372,879.7l40.4,73.7h-60l-13.5-31.5c-1.6-3.5-3.3-8.3-5.3-14.5h-0.5c-1.7,6.1-2.8,9.9-3.3,11.3c-0.5,1.4-5.3,13-14.3,34.7
		H256l41.6-69.8l-39.2-68.7h60.2l13.5,32.2c1.8,3.7,3.6,8.7,5.4,15.1h0.5c2.4-7.8,4-13,5-15.4l12.7-31.9h56.9L372,879.7z"/>
	<path d="M11.8,1350.7c-4.9,0-10.2-0.5-15.8-1.4c-5.6-0.9-10.6-2.3-15.1-4.1v-43.4c2,1.7,5.1,3.3,9.1,4.7c4,1.4,7.9,2.2,11.4,2.2
		c9.7,0,16.2-4.2,19.3-12.7l4-10.8l-52.4-137.9h57.6l15.2,66.8c2.9,12.4,4.5,20.8,4.8,25.2h0.5c0.2-2,0.6-4.2,1-6.6
		c0.4-2.4,6.8-30.9,19-85.3h50.7l-46.1,142.4c-6.9,21.8-15.5,37.5-25.8,46.9C39.2,1346,26.7,1350.7,11.8,1350.7z"/>
	<path d="M260,1245.8h51.6v39.9h-120v-26.6l56.3-71.9h-51v-39.9h113.7v32.7L260,1245.8z"/>
</g>
<text transform="matrix(0.9049 0 0 1 -25.0001 387.4814)" style="font-family:'SegoeUIBlack'; font-size:276.9418px;">&lt;/&gt;</text>
<g>
	<path class="st6" d="M-1402.6,438.1c-3.8,7.4-5.7,19.1-5.7,35v22.7c0,16.4-6.1,24.6-18.2,24.6v30.3c12.2,0,18.2,8.1,18.2,24.3v24.3
		c0,15.1,1.9,26.4,5.8,33.7c3.9,7.3,10.2,12.8,18.9,16.2c8.7,3.5,20.6,5.2,35.7,5.2v-30.3c-7,0-12-1.7-15.1-5.1
		c-3-3.4-4.5-9.1-4.5-17.2v-17.2c0-13.1-1.5-23.6-4.6-31.6c-3.1-8-8-13.8-14.7-17.4v-0.5c6.9-3.6,11.8-9.3,14.8-17
		c3-7.8,4.5-17.8,4.5-30v-19.3c0-8,1.6-13.7,4.8-17c3.2-3.3,8.1-5,14.8-5v-30.3c-15.3,0-27.3,1.7-36,5.2
		C-1392.5,425.3-1398.8,430.6-1402.6,438.1z"/>
	<path class="st6" d="M-1274.4,567.1c-5.3-4.9-12.3-7.4-21-7.4c-8.9,0-16,2.5-21.2,7.4c-5.3,4.9-7.9,11.3-7.9,19.3
		c0,7.8,2.7,14.3,8,19.5c5.3,5.3,12.2,7.9,20.6,7.9c9.2,0,16.4-2.5,21.7-7.6c5.2-5,7.8-11.7,7.8-19.9
		C-1266.4,578.5-1269.1,572-1274.4,567.1z"/>
	<path class="st7" d="M-1186.3,586.3c0-7.9-2.7-14.4-8-19.3c-5.1-4.7-11.7-7.1-19.8-7.3v54c8.4-0.3,15.1-2.8,20-7.5
		C-1188.9,601.3-1186.3,594.5-1186.3,586.3z"/>
	<path class="st6" d="M-1215.3,559.8c-8.9,0-16,2.5-21.2,7.4c-5.3,4.9-7.9,11.3-7.9,19.3c0,7.8,2.7,14.3,8,19.5
		c5.3,5.3,12.2,7.9,20.6,7.9c0.6,0,1.1,0,1.7,0v-54C-1214.5,559.8-1214.9,559.8-1215.3,559.8z"/>
	<path class="st7" d="M-1106.1,586.3c0,8.2-2.6,14.8-7.8,19.9c-5.2,5-12.4,7.6-21.7,7.6c-8.4,0-15.3-2.6-20.6-7.9
		c-5.3-5.3-8-11.8-8-19.5c0-7.9,2.6-14.4,7.9-19.3c5.3-4.9,12.3-7.4,21.2-7.4c8.6,0,15.6,2.5,21,7.4
		C-1108.8,572-1106.1,578.5-1106.1,586.3z"/>
	<path class="st7" d="M-1004.2,550.6c-12.2,0-18.2,8.2-18.2,24.6V598c0,15.9-1.9,27.5-5.7,35c-3.8,7.4-10,12.9-18.7,16.4
		c-8.7,3.5-20.7,5.2-36,5.2v-30.3c6.8,0,11.7-1.7,14.9-5c3.1-3.3,4.7-9,4.7-17V583c0-12.2,1.5-22.1,4.5-29.9s7.9-13.5,14.9-17.2
		v-0.5c-6.8-3.7-11.7-9.6-14.7-17.7c-3.1-8.1-4.6-18.6-4.6-31.4v-17c0-8-1.5-13.8-4.4-17.2c-2.9-3.5-8-5.2-15.2-5.2v-30.3
		c15.2,0,27.1,1.7,35.8,5.2s15,8.9,18.8,16.2c3.9,7.3,5.8,18.6,5.8,33.7V496c0,16.2,6.1,24.3,18.2,24.3L-1004.2,550.6L-1004.2,550.6
		z"/>
</g>
<g>
	<polygon class="st6" points="-1425.9,271.3 -1304.7,327.3 -1304.7,287.8 -1390.7,255.8 -1390.7,255.2 -1304.7,223.3 -1304.7,183.8 
		-1425.9,238.9 	"/>
	<polygon class="st7" points="-1151.6,136.4 -1197.5,136.4 -1214.1,179.8 -1214.1,299.3 	"/>
	<polygon class="st6" points="-1238.3,362.5 -1214.1,299.3 -1214.1,179.8 -1284.2,362.5 	"/>
	<path class="st7" d="M-1126,324.5v-39.9l85.7-31.5v-0.6l-85.7-31.6V181l121.3,55.2v32.3L-1126,324.5z"/>
</g>
<text transform="matrix(0.9049 0 0 1 511 882.3604)" class="st5"><tspan x="0" y="0" style="font-family:'SegoeUIBlack'; font-size:276.9418px;">w x  </tspan><tspan x="0" y="332.3" style="font-family:'SegoeUIBlack'; font-size:276.9418px;">y z</tspan></text>
<path class="st0" d="M-447,270v512c141.4,0,256-114.6,256-256S-305.6,270-447,270z"/>
<path class="st2" d="M-703,526c0,141.4,114.6,256,256,256V270C-588.4,270-703,384.6-703,526z"/>
<path class="st6" d="M-562.9,526.7c0-21.5,3-42,8.9-61.7c5.9-19.7,15-39,27.2-57.9h-41.1c-27.2,35.9-40.9,75.8-40.9,119.7
	c0,23.5,3.3,44.9,10,64.2c6.7,19.3,17,37.3,31.1,54.1h41.1c-12.3-18.5-21.5-37.3-27.4-56.3C-559.9,569.6-562.9,548.9-562.9,526.7z"
	/>
<path class="st7" d="M-368.7,462.4h-56.9l-12.7,31.9c-1,2.4-2.7,7.6-5,15.4h-0.5c-1.1-3.8-2.1-7.1-3.2-9.9v57
	c1.7,5.2,3.3,9.4,4.7,12.6l13.5,31.5h60l-40.4-73.7L-368.7,462.4z"/>
<path class="st6" d="M-449.2,494.6l-13.5-32.2h-60.2l39.2,68.7l-41.6,69.8h59.6c9.1-21.7,13.8-33.3,14.3-34.7
	c0.5-1.4,1.6-5.2,3.3-11.3h0.5c0.2,0.6,0.4,1.3,0.6,1.9v-57C-447.7,497.9-448.5,496.1-449.2,494.6z"/>
<path class="st7" d="M-285.2,526.7c0,23.7-3.4,45.2-10.1,64.5s-17.1,37.2-31,53.8h-41.1c24.4-36.2,36.6-75.6,36.6-118.3
	c0-21-2.9-41.4-8.7-61.1c-5.8-19.7-15-39.2-27.6-58.6h41.1C-298.9,442.7-285.2,482.6-285.2,526.7z"/>
<text transform="matrix(0.9049 0 0 1 516.0869 596.6094)" style="font-family:'SegoeUIBlack'; font-size:276.9418px;">(x)</text>
</svg>
