<?xml version="1.0" encoding="utf-8"?>
<!-- Generator: Adobe Illustrator 19.0.0, SVG Export Plug-In . SVG Version: 6.00 Build 0)  -->
<svg version="1.1" id="Layer_1" xmlns="http://www.w3.org/2000/svg" xmlns:xlink="http://www.w3.org/1999/xlink" x="0px" y="0px"
	 viewBox="-703 270 512 512" style="enable-background:new -703 270 512 512;" xml:space="preserve">
<style type="text/css">
	.st0{display:none;fill:#E6EAEA;}
	.st1{display:none;fill:#9BAAAB;}
	.st2{display:none;fill:#CDD4D5;}
	.st3{display:none;fill:#687F82;}
	.st4{fill:#F0353D;}
	.st5{fill:#FD6A33;}
	.st6{fill:#E6EAEA;}
	.st7{fill:#CDD4D5;}
	.st8{fill:#4ACFD9;}
	.st9{fill:#0295AA;}
	.st10{fill:#FF8C29;}
	.st11{fill:#FFD1A9;}
	.st12{display:none;}
	.st13{display:inline;fill:#FFFFFF;}
	.st14{display:inline;fill:#E6EAEA;}
	.st15{display:inline;fill:#FD6A33;}
	.st16{display:inline;fill:#FF8C29;}
	.st17{display:inline;fill:#4ACFD9;}
	.st18{display:inline;fill:#0295AA;}
</style>
<path class="st0" d="M-199,270h-496c-4.4,0-8,3.6-8,8v487.4c0,4.4,3.6,8,8,8h496c4.4,0,8-3.6,8-8V278C-191,273.6-194.6,270-199,270z
	"/>
<path class="st1" d="M-199,270h-496c-4.4,0-8,3.6-8,8v110.6h512V278C-191,273.6-194.6,270-199,270z"/>
<path class="st2" d="M-695,270c-4.4,0-8,3.6-8,8v487.4c0,4.4,3.6,8,8,8h248V270H-695z"/>
<path class="st3" d="M-695,270c-4.4,0-8,3.6-8,8v110.6h256V270H-695z"/>
<text transform="matrix(0.9049 0 0 1 -25.0001 387.4814)" style="font-family:'SegoeUIBlack'; font-size:276.9418px;">&lt;/&gt;</text>
<g>
	<path class="st4" d="M-1402.6,438.1c-3.8,7.4-5.7,19.1-5.7,35v22.7c0,16.4-6.1,24.6-18.2,24.6v30.3c12.2,0,18.2,8.1,18.2,24.3v24.3
		c0,15.1,1.9,26.4,5.8,33.7c3.9,7.3,10.2,12.8,18.9,16.2c8.7,3.5,20.6,5.2,35.7,5.2v-30.3c-7,0-12-1.7-15.1-5.1
		c-3-3.4-4.5-9.1-4.5-17.2v-17.2c0-13.1-1.5-23.6-4.6-31.6c-3.1-8-8-13.8-14.7-17.4v-0.5c6.9-3.6,11.8-9.3,14.8-17
		c3-7.8,4.5-17.8,4.5-30v-19.3c0-8,1.6-13.7,4.8-17c3.2-3.3,8.1-5,14.8-5v-30.3c-15.3,0-27.3,1.7-36,5.2
		C-1392.5,425.3-1398.8,430.6-1402.6,438.1z"/>
	<path class="st4" d="M-1274.4,567.1c-5.3-4.9-12.3-7.4-21-7.4c-8.9,0-16,2.5-21.2,7.4c-5.3,4.9-7.9,11.3-7.9,19.3
		c0,7.8,2.7,14.3,8,19.5c5.3,5.3,12.2,7.9,20.6,7.9c9.2,0,16.4-2.5,21.7-7.6c5.2-5,7.8-11.7,7.8-19.9
		C-1266.4,578.5-1269.1,572-1274.4,567.1z"/>
	<path class="st5" d="M-1186.3,586.3c0-7.9-2.7-14.4-8-19.3c-5.1-4.7-11.7-7.1-19.8-7.3v54c8.4-0.3,15.1-2.8,20-7.5
		C-1188.9,601.3-1186.3,594.5-1186.3,586.3z"/>
	<path class="st4" d="M-1215.3,559.8c-8.9,0-16,2.5-21.2,7.4c-5.3,4.9-7.9,11.3-7.9,19.3c0,7.8,2.7,14.3,8,19.5
		c5.3,5.3,12.2,7.9,20.6,7.9c0.6,0,1.1,0,1.7,0v-54C-1214.5,559.8-1214.9,559.8-1215.3,559.8z"/>
	<path class="st5" d="M-1106.1,586.3c0,8.2-2.6,14.8-7.8,19.9c-5.2,5-12.4,7.6-21.7,7.6c-8.4,0-15.3-2.6-20.6-7.9
		c-5.3-5.3-8-11.8-8-19.5c0-7.9,2.6-14.4,7.9-19.3c5.3-4.9,12.3-7.4,21.2-7.4c8.6,0,15.6,2.5,21,7.4
		C-1108.8,572-1106.1,578.5-1106.1,586.3z"/>
	<path class="st5" d="M-1004.2,550.6c-12.2,0-18.2,8.2-18.2,24.6V598c0,15.9-1.9,27.5-5.7,35c-3.8,7.4-10,12.9-18.7,16.4
		c-8.7,3.5-20.7,5.2-36,5.2v-30.3c6.8,0,11.7-1.7,14.9-5c3.1-3.3,4.7-9,4.7-17V583c0-12.2,1.5-22.1,4.5-29.9s7.9-13.5,14.9-17.2
		v-0.5c-6.8-3.7-11.7-9.6-14.7-17.7c-3.1-8.1-4.6-18.6-4.6-31.4v-17c0-8-1.5-13.8-4.4-17.2c-2.9-3.5-8-5.2-15.2-5.2v-30.3
		c15.2,0,27.1,1.7,35.8,5.2s15,8.9,18.8,16.2c3.9,7.3,5.8,18.6,5.8,33.7V496c0,16.2,6.1,24.3,18.2,24.3L-1004.2,550.6L-1004.2,550.6
		z"/>
</g>
<g>
	<polygon class="st4" points="-1425.9,271.3 -1304.7,327.3 -1304.7,287.8 -1390.7,255.8 -1390.7,255.2 -1304.7,223.3 -1304.7,183.8 
		-1425.9,238.9 	"/>
	<polygon class="st5" points="-1151.6,136.4 -1197.5,136.4 -1214.1,179.8 -1214.1,299.3 	"/>
	<polygon class="st4" points="-1238.3,362.5 -1214.1,299.3 -1214.1,179.8 -1284.2,362.5 	"/>
	<path class="st5" d="M-1126,324.5v-39.9l85.7-31.5v-0.6l-85.7-31.6V181l121.3,55.2v32.3L-1126,324.5z"/>
</g>
<text transform="matrix(0.9049 0 0 1 511 882.3604)" style="enable-background:new    ;"><tspan x="0" y="0" style="font-family:'SegoeUIBlack'; font-size:276.9418px;">w x  </tspan><tspan x="0" y="332.3" style="font-family:'SegoeUIBlack'; font-size:276.9418px;">y z</tspan></text>
<path class="st6" d="M-1186.3-498V14c141.4,0,256-114.6,256-256S-1044.9-498-1186.3-498z"/>
<path class="st7" d="M-1442.3-242c0,141.4,114.6,256,256,256v-512C-1327.7-498-1442.3-383.3-1442.3-242z"/>
<path class="st4" d="M-1302.2-241.3c0-21.5,3-42,8.9-61.7c5.9-19.7,15-39,27.2-57.9h-41.1c-27.2,35.9-40.9,75.8-40.9,119.7
	c0,23.5,3.3,44.9,10,64.2c6.7,19.3,17,37.3,31.1,54.1h41.1c-12.3-18.5-21.5-37.3-27.4-56.3C-1299.2-198.4-1302.2-219-1302.2-241.3z"
	/>
<path class="st5" d="M-1108-305.5h-56.9l-12.7,31.9c-1,2.4-2.7,7.6-5,15.4h-0.5c-1.1-3.8-2.1-7.1-3.2-9.9v57
	c1.7,5.2,3.3,9.4,4.7,12.6l13.5,31.5h60l-40.4-73.7L-1108-305.5z"/>
<path class="st4" d="M-1188.5-273.3l-13.5-32.2h-60.2l39.2,68.7l-41.6,69.8h59.6c9.1-21.7,13.8-33.3,14.3-34.7
	c0.5-1.4,1.6-5.2,3.3-11.3h0.5c0.2,0.6,0.4,1.3,0.6,1.9v-57C-1187-270.1-1187.8-271.8-1188.5-273.3z"/>
<path class="st5" d="M-1024.5-241.3c0,23.7-3.4,45.2-10.1,64.5s-17.1,37.2-31,53.8h-41.1c24.4-36.2,36.6-75.6,36.6-118.3
	c0-21-2.9-41.4-8.7-61.1c-5.8-19.7-15-39.2-27.6-58.6h41.1C-1038.1-325.3-1024.5-285.4-1024.5-241.3z"/>
<text transform="matrix(0.9049 0 0 1 516.0869 596.6094)" style="font-family:'SegoeUIBlack'; font-size:276.9418px;">(x)</text>
<path class="st1" d="M-695,782h496c4.4,0,8-3.6,8-8V663.4h-512V774C-703,778.4-699.4,782-695,782z"/>
<path class="st2" d="M-199,782c4.4,0,8-3.6,8-8V663.4h-256V782H-199z"/>
<path class="st4" d="M-257.8,397.4l50.1,91.4h-74.4l-16.7-39.1c-1.9-4.4-4.1-10.3-6.5-18h-0.6c-2.1,7.6-3.5,12.3-4.1,14
	c-0.6,1.7-6.5,16.1-17.8,43h-73.9l51.6-86.6l-48.6-85.2h74.7l16.7,39.9c2.2,4.6,4.5,10.9,6.7,18.8h0.6c2.9-9.7,5-16.1,6.2-19.1
	L-278,317h70.6L-257.8,397.4z"/>
<path class="st8" d="M-654.3,522.5c-6.1,0-12.6-0.6-19.6-1.8c-7-1.2-13.2-2.9-18.7-5.1v-53.9c2.5,2.1,6.3,4.1,11.3,5.9
	c5,1.8,9.7,2.7,14.2,2.7c12,0,20-5.3,24-15.8l5-13.4L-703,270h71.5l18.8,82.9c3.6,15.4,5.6,25.8,5.9,31.2h0.6
	c0.3-2.5,0.7-5.2,1.3-8.2c0.6-3,8.4-38.3,23.6-105.9h62.9l-57.2,176.7c-8.6,27.1-19.3,46.5-32,58.2
	C-620.3,516.6-635.8,522.5-654.3,522.5z"/>
<path class="st9" d="M-618.1,732.5h64.1V782H-703v-33.1l69.8-89.3h-63.3v-49.5h141v40.6L-618.1,732.5z"/>
<g>
	<path class="st5" d="M-227,555.6h-72.7v-69.7c0-19.3-15.7-35.1-35.1-35.1s-35.1,15.7-35.1,35.1v105.7h-1.7
		c-19.3,0-35.1,15.7-35.1,35.1v73.1c0,19.3,15.7,35.1,35.1,35.1h1.7v39c0,4.5,3.6,8.1,8.1,8.1h161.7c4.5,0,8.1-3.6,8.1-8.1V590.7
		C-191.9,571.4-207.6,555.6-227,555.6z"/>
	<path class="st10" d="M-227,555.6h-72.7v-69.7c0-19.3-15.7-35.1-35.1-35.1s-35.1,15.7-35.1,35.1v105.7h-1.7
		c-19.3,0-35.1,15.7-35.1,35.1v73.1c0,19.3,15.7,35.1,35.1,35.1h1.7v26.5c0,4.5,3.6,8.1,8.1,8.1h161.7c4.5,0,8.1-3.6,8.1-8.1V590.7
		C-191.9,571.4-207.6,555.6-227,555.6z"/>
	<g>
		<path class="st11" d="M-300.1,599.7L-300.1,599.7c0.1,4.5,3.7,8.1,8.2,8.1s8.1-3.6,8.1-8.1v-44.1h-16.3L-300.1,599.7L-300.1,599.7
			z"/>
		<path class="st11" d="M-257.8,599.7L-257.8,599.7c0.1,4.5,3.7,8.1,8.2,8.1c4.5,0,8.1-3.6,8.1-8.1v-44.1h-16.3L-257.8,599.7
			L-257.8,599.7z"/>
	</g>
</g>
<g class="st12">
	<path class="st13" d="M-202.7-75.2h-147.8V8.2h147.8c6.6,0,12-5.4,12-12v-59.4C-190.7-69.8-196.1-75.2-202.7-75.2z"/>
	<path class="st14" d="M-495.9-75.2c-6.6,0-12,5.4-12,12v59.4c0,6.6,5.4,12,12,12h145.5v-83.4L-495.9-75.2L-495.9-75.2z"/>
	<circle class="st15" cx="-442.5" cy="-33.5" r="11.5"/>
	<circle class="st15" cx="-350.5" cy="-33.5" r="11.5"/>
	<circle class="st16" cx="-258.5" cy="-33.5" r="11.5"/>
	<path class="st17" d="M-350,14h145c10.5,0,19-8.5,19-19v-57c0-10.5-8.5-19-19-19h-145v10h145c5,0,9,4,9,9v57c0,5-4,9-9,9h-145V14z"
		/>
	<path class="st18" d="M-350,4h-145c-5,0-9-4-9-9v-57c0-5,4-9,9-9h145v-10h-145c-10.5,0-19,8.5-19,19v57c0,10.5,8.5,19,19,19h145V4z
		"/>
	<path class="st16" d="M-350-22c6.1-0.3,11-5.3,11-11.5s-4.9-11.2-11-11.5V-22z"/>
</g>
</svg>
