<?xml version="1.0" encoding="utf-8"?>
<!-- Generator: Adobe Illustrator 19.0.0, SVG Export Plug-In . SVG Version: 6.00 Build 0)  -->
<svg version="1.1" id="Layer_1" xmlns="http://www.w3.org/2000/svg" xmlns:xlink="http://www.w3.org/1999/xlink" x="0px" y="0px"
	 viewBox="96 11 512 512" style="enable-background:new 96 11 512 512;" xml:space="preserve">
<style type="text/css">
	.st0{fill:#FFD1A9;}
	.st1{fill:#FFFFFF;}
	.st2{fill:#4ACFD9;}
	.st3{fill:#0295AA;}
	.st4{fill:#FD6A33;}
	.st5{fill:#FF8C29;}
	.st6{fill:#9BAAAB;}
	.st7{fill:#365558;}
	.st8{fill:#CDD4D5;}
</style>
<path class="st0" d="M116.4,358.5c-1.4-0.9-2.9-1.3-4.7-0.9c-4,0.6-6.8,4.3-6.2,8.3c2.2,16.6,11.7,31.1,25.9,39.9
	c3.2,2,7.8,0.9,10-2.5c2-3.2,1-7.8-2.5-10c-10.5-6.6-17.5-17.4-19.3-29.6C119.5,361.6,118.2,359.6,116.4,358.5z"/>
<path class="st1" d="M343.8,391.7c-0.8-0.1-1.7-0.1-2.5-0.2C342.2,391.6,343,391.7,343.8,391.7z"/>
<path class="st1" d="M328.7,389.2c-0.6-0.2-1.2-0.4-1.8-0.5C327.5,388.9,328.1,389,328.7,389.2z"/>
<path class="st1" d="M352.8,391.8c-1.3,0.1-2.6,0.1-3.9,0.1C350.2,391.9,351.5,391.9,352.8,391.8z"/>
<path class="st1" d="M356.6,391.5c-0.8,0.1-1.5,0.1-2.3,0.2C355.1,391.6,355.9,391.6,356.6,391.5z"/>
<path class="st1" d="M339.8,391.3c-0.7-0.1-1.5-0.2-2.2-0.3C338.4,391.2,339.1,391.3,339.8,391.3z"/>
<path class="st1" d="M332.3,390.1c-0.6-0.2-1.2-0.3-1.9-0.4C331,389.8,331.7,390,332.3,390.1z"/>
<path class="st1" d="M336,390.8c-0.7-0.1-1.3-0.2-2-0.4C334.6,390.6,335.3,390.7,336,390.8z"/>
<path class="st1" d="M360.4,391c-0.6,0.1-1.2,0.2-1.8,0.2C359.2,391.2,359.8,391.1,360.4,391z"/>
<path class="st1" d="M348.9,391.9c-1.3,0-2.5,0-3.8-0.1C346.4,391.9,347.6,391.9,348.9,391.9z"/>
<path class="st1" d="M364.1,390.4c-0.4,0.1-0.9,0.1-1.4,0.3C363.1,390.6,363.6,390.5,364.1,390.4z"/>
<path class="st1" d="M384.8,382.9c-0.1,0-0.1,0.1-0.2,0.1C384.7,383,384.8,382.9,384.8,382.9z"/>
<path class="st1" d="M381.6,384.5c-0.1,0-0.2,0.1-0.3,0.1C381.4,384.6,381.5,384.6,381.6,384.5z"/>
<path class="st1" d="M388,381.1C388,381.1,387.9,381.2,388,381.1C387.9,381.2,388,381.1,388,381.1z"/>
<path class="st1" d="M378.3,386c-0.2,0.1-0.3,0.1-0.5,0.2C377.9,386.2,378.1,386.1,378.3,386z"/>
<path class="st1" d="M367.8,389.5c-0.4,0.1-0.8,0.2-1.2,0.3C367,389.7,367.4,389.6,367.8,389.5z"/>
<path class="st1" d="M371.3,388.5c-0.3,0.1-0.6,0.2-0.9,0.3C370.7,388.7,371,388.6,371.3,388.5z"/>
<path class="st1" d="M374.8,387.4c-0.2,0-0.4,0.1-0.7,0.2C374.3,387.6,374.6,387.5,374.8,387.4z"/>
<path class="st1" d="M325.2,388.1c-0.6-0.2-1.1-0.4-1.7-0.6C324,387.7,324.6,387.9,325.2,388.1z"/>
<path class="st1" d="M321.8,386.9c-0.6-0.2-1.1-0.4-1.6-0.6C320.7,386.5,321.2,386.7,321.8,386.9z"/>
<path class="st1" d="M312,382.4c-0.5-0.3-0.9-0.6-1.3-0.8C311.1,381.9,311.5,382.1,312,382.4z"/>
<path class="st1" d="M314.7,383.8c-0.3-0.2-0.7-0.4-1.1-0.5C314,383.4,314.3,383.6,314.7,383.8z"/>
<path class="st1" d="M314.7,383.8c0.1,0.1,0.3,0.1,0.4,0.2C315,383.9,314.8,383.9,314.7,383.8z"/>
<path class="st1" d="M305.9,378.6c-0.3-0.2-0.6-0.4-0.9-0.7C305.2,378.2,305.5,378.4,305.9,378.6z"/>
<path class="st1" d="M318.4,385.5c-0.5-0.2-1-0.5-1.6-0.7C317.4,385.1,317.9,385.3,318.4,385.5z"/>
<path class="st1" d="M308.9,380.5c-0.4-0.2-0.8-0.5-1.2-0.8C308.1,380,308.5,380.3,308.9,380.5z"/>
<path class="st1" d="M513.1,55.6h-159v-1.1H189.6c-34.1,0-62,27.9-62,62v223c0,34.1,27.9,62,62,62h82.8c2.1-3.9,4.5-7.8,7.3-11.4
	c5.1-6.9,11.2-12.9,18-17.9c-15.5-14-25.3-34.3-25.3-56.8c0-42.2,34.3-76.5,76.5-76.5s76.5,34.3,76.5,76.5
	c0,21.4-8.9,40.8-23.1,54.7c7.9,5.4,15,12.2,20.8,20c2.7,3.6,5.2,7.5,7.3,11.4h82.8c34.1,0,62-27.9,61.9-62V117.6
	C575.1,83.5,547.2,55.6,513.1,55.6z"/>
<path class="st1" d="M513.1,55.6c34.1,0,62,27.9,62,62v-1.1c0-34.1-27.9-62-62-62h-159v1.1H513.1z"/>
<path class="st1" d="M402.3,370.1c-4.3,4.2-9.1,7.9-14.3,11c0,0,0,0-0.1,0c-1,0.6-2,1.2-3.1,1.7c-0.1,0-0.1,0.1-0.2,0.1
	c-1,0.5-2,1.1-3.1,1.5c-0.1,0-0.2,0.1-0.3,0.1c-1,0.5-2,0.9-3,1.3c-0.2,0.1-0.3,0.1-0.5,0.2c-1,0.4-1.9,0.8-2.9,1.1
	c-0.2,0.1-0.5,0.2-0.7,0.2c-0.9,0.3-1.9,0.6-2.8,0.9c-0.3,0.1-0.6,0.2-0.9,0.3c-0.9,0.3-1.8,0.5-2.7,0.7c-0.4,0.1-0.8,0.2-1.2,0.3
	c-0.8,0.2-1.6,0.4-2.5,0.6c-0.5,0.1-1,0.2-1.4,0.3c-0.8,0.1-1.5,0.3-2.3,0.4c-0.6,0.1-1.2,0.2-1.8,0.2c-0.7,0.1-1.3,0.2-2,0.2
	c-0.8,0.1-1.5,0.1-2.3,0.2c-0.5,0-1,0.1-1.6,0.1c-1.3,0.1-2.6,0.1-3.9,0.1s-2.5,0-3.8-0.1c-0.4,0-0.8-0.1-1.3-0.1
	c-0.8-0.1-1.7-0.1-2.5-0.2c-0.5-0.1-1-0.1-1.5-0.2c-0.7-0.1-1.5-0.2-2.2-0.3c-0.5-0.1-1.1-0.2-1.6-0.3c-0.7-0.1-1.4-0.2-2-0.4
	c-0.6-0.1-1.1-0.2-1.7-0.4c-0.6-0.1-1.3-0.3-1.9-0.4c-0.6-0.1-1.1-0.3-1.7-0.4c-0.6-0.2-1.2-0.3-1.8-0.5c-0.6-0.2-1.1-0.4-1.7-0.5
	c-0.6-0.2-1.2-0.4-1.7-0.6c-0.6-0.2-1.1-0.4-1.7-0.6c-0.6-0.2-1.1-0.4-1.6-0.6c-0.6-0.2-1.1-0.5-1.7-0.7c-0.5-0.2-1-0.5-1.6-0.7
	c-0.6-0.3-1.2-0.5-1.7-0.8c-0.5-0.2-1-0.5-1.5-0.7c-0.6-0.3-1.2-0.6-1.7-0.9s-0.9-0.5-1.3-0.8c-0.6-0.3-1.2-0.7-1.7-1
	c-0.4-0.2-0.8-0.5-1.2-0.8c-0.6-0.4-1.2-0.8-1.8-1.2c-0.3-0.2-0.6-0.4-0.9-0.7c-2.5-1.8-4.9-3.7-7.2-5.8c-6.8,5.1-12.8,11.1-18,17.9
	c-2.7,3.6-5.2,7.5-7.3,11.4h158c-2.1-3.9-4.5-7.8-7.3-11.4C417.2,382.3,410.2,375.6,402.3,370.1z"/>
<path class="st1" d="M349,239.1c-42.2,0-76.6,34.1-76.6,76.3c0,22.5,9.8,42.8,25.3,56.8c2.3,2.1,4.7,4,7.2,5.8
	c0.3,0.2,0.6,0.4,1,0.6c0.6,0.4,1.2,0.8,1.8,1.2c0.4,0.3,0.8,0.5,1.2,0.8c0.6,0.4,1.2,0.7,1.7,1c0.4,0.3,0.9,0.5,1.3,0.8
	c0.6,0.3,1.2,0.6,1.7,0.9s1,0.5,1.5,0.7c0.6,0.3,1.1,0.6,1.7,0.8c0.5,0.2,1,0.5,1.6,0.7c0.6,0.2,1.1,0.5,1.7,0.7
	c0.5,0.2,1.1,0.4,1.6,0.6c0.6,0.2,1.1,0.4,1.7,0.6c0.6,0.2,1.2,0.4,1.7,0.6c0.6,0.2,1.1,0.4,1.7,0.5c0.6,0.2,1.2,0.4,1.8,0.5
	c0.6,0.2,1.1,0.3,1.7,0.4c0.6,0.2,1.3,0.3,1.9,0.4c0.6,0.1,1.1,0.2,1.7,0.4c0.7,0.1,1.3,0.2,2,0.4c0.5,0.1,1.1,0.2,1.6,0.3
	c0.7,0.1,1.5,0.2,2.2,0.3c0.5,0.1,1,0.1,1.5,0.2c0.8,0.1,1.7,0.1,2.5,0.2c0.4,0,0.8,0.1,1.3,0.1c1.3,0.1,2.5,0.1,3.8,0.1
	s2.6,0,3.9-0.1c0.5,0,1-0.1,1.6-0.1c0.8-0.1,1.5-0.1,2.3-0.2c0.7-0.1,1.3-0.2,2-0.2c0.6-0.1,1.2-0.1,1.8-0.2
	c0.8-0.1,1.5-0.3,2.3-0.4c0.5-0.1,1-0.2,1.4-0.3c0.8-0.2,1.7-0.4,2.5-0.6c0.4-0.1,0.8-0.2,1.2-0.3c0.9-0.2,1.8-0.5,2.7-0.7
	c0.3-0.1,0.6-0.2,0.9-0.3c0.9-0.3,1.9-0.6,2.8-0.9c0.2-0.1,0.5-0.2,0.7-0.2c1-0.4,2-0.7,2.9-1.1c0.2-0.1,0.3-0.1,0.5-0.2
	c1-0.4,2-0.9,3-1.3c0.1,0,0.2-0.1,0.3-0.1c1-0.5,2.1-1,3.1-1.5c0.1,0,0.1-0.1,0.2-0.1c1-0.6,2.1-1.1,3.1-1.7c0,0,0,0,0.1,0
	c5.2-3.1,10-6.8,14.3-11c14.3-13.9,23.1-33.3,23.1-54.7C425.5,273.4,391.2,239.1,349,239.1z"/>
<path class="st1" d="M387.9,381.2c-1,0.6-2,1.2-3.1,1.7C385.9,382.4,386.9,381.8,387.9,381.2z"/>
<path class="st1" d="M374.2,387.6c-1,0.3-1.9,0.6-2.8,0.9C372.3,388.2,373.3,387.9,374.2,387.6z"/>
<path class="st1" d="M377.8,386.2c-1,0.4-2,0.8-2.9,1.1C375.9,387,376.8,386.6,377.8,386.2z"/>
<path class="st1" d="M381.3,384.7c-1,0.5-2,0.9-3,1.3C379.3,385.6,380.3,385.2,381.3,384.7z"/>
<path class="st1" d="M370.4,388.8c-0.8,0.2-1.7,0.5-2.7,0.7C368.6,389.3,369.5,389.1,370.4,388.8z"/>
<path class="st1" d="M384.6,383c-1,0.5-2,1.1-3.1,1.5C382.6,384.1,383.6,383.5,384.6,383z"/>
<path class="st1" d="M366.6,389.8c-0.8,0.2-1.6,0.4-2.5,0.6C365,390.2,365.8,390,366.6,389.8z"/>
<path class="st1" d="M362.7,390.6c-0.8,0.1-1.5,0.3-2.3,0.4C361.2,390.9,361.9,390.8,362.7,390.6z"/>
<path class="st1" d="M313.7,383.3c-0.6-0.3-1.2-0.6-1.7-0.9C312.5,382.7,313.1,383,313.7,383.3z"/>
<path class="st1" d="M358.6,391.3c-0.6,0-1.3,0.1-2,0.2C357.3,391.5,357.9,391.4,358.6,391.3z"/>
<path class="st1" d="M310.6,381.6c-0.6-0.4-1.2-0.7-1.7-1C309.4,380.9,310,381.3,310.6,381.6z"/>
<path class="st1" d="M320.1,386.3c-0.5-0.3-1.1-0.5-1.7-0.7C319,385.8,319.5,386.1,320.1,386.3z"/>
<path class="st1" d="M316.9,384.8c-0.6-0.3-1.2-0.5-1.7-0.8C315.7,384.3,316.3,384.6,316.9,384.8z"/>
<path class="st1" d="M304.9,378c-2.5-1.8-4.9-3.8-7.2-5.8C300,374.3,302.4,376.2,304.9,378z"/>
<path class="st1" d="M388,381.1c5.2-3.1,10-6.8,14.3-11l0,0C398,374.3,393.2,378,388,381.1z"/>
<path class="st1" d="M307.7,379.8c-0.6-0.4-1.2-0.8-1.8-1.2C306.5,379,307.1,379.4,307.7,379.8z"/>
<path class="st1" d="M323.5,387.5c-0.6-0.2-1.1-0.4-1.7-0.6C322.3,387.1,322.9,387.3,323.5,387.5z"/>
<path class="st1" d="M345.1,391.8c-0.4,0-0.8-0.1-1.3-0.1C344.3,391.7,344.7,391.8,345.1,391.8z"/>
<path class="st1" d="M341.3,391.5c-0.5-0.1-1-0.1-1.5-0.2C340.3,391.4,340.8,391.5,341.3,391.5z"/>
<path class="st1" d="M354.4,391.7c-0.6,0-1.1,0.1-1.6,0.1C353.4,391.8,353.9,391.7,354.4,391.7z"/>
<path class="st1" d="M337.6,391.1c-0.5-0.1-1-0.2-1.6-0.3C336.5,390.9,337.1,391,337.6,391.1z"/>
<path class="st1" d="M330.4,389.6c-0.5-0.1-1.1-0.3-1.7-0.4C329.3,389.3,329.8,389.5,330.4,389.6z"/>
<path class="st1" d="M334,390.4c-0.6-0.1-1.1-0.2-1.7-0.4C332.9,390.2,333.4,390.3,334,390.4z"/>
<path class="st1" d="M326.9,388.7c-0.6-0.2-1.1-0.4-1.7-0.5C325.8,388.3,326.3,388.5,326.9,388.7z"/>
<path class="st2" d="M134,89.2c10.6,0,22,0,34,0c62.9,0,110.2,0,111.1,0c1.8,0,2.9-0.8,3.6-1.5c0.7-0.7,13.8-13.7,14.5-14.4
	c0.7-0.7,0.9-1,0.9-1.5c0-2.6-7.8-5-10.7-5H168h-15.4C144.8,72.7,138.4,80.3,134,89.2z"/>
<path class="st2" d="M95.4,89.2c11,0,24.1,0,38.6,0c4.4-8.9,10.8-16.5,18.7-22.4H99.8C97,73.7,95.4,81.3,95.4,89.2z"/>
<path class="st3" d="M168,199.1h119.4c2.8,0,10.7-2.4,10.7-5c0-0.4-0.2-0.7-0.9-1.5c-0.7-0.7-13.8-13.8-14.5-14.5
	c-0.7-0.7-1.9-1.5-3.6-1.5c-0.9,0-48.2,0-111.1,0c-14.4,0-28,0-40.4,0v22.5H168z"/>
<path class="st3" d="M95.4,199.1h32.2v-22.5c-12,0-22.8,0-32.2,0V199.1z"/>
<path class="st2" d="M306.1,80.8c-0.4,0-0.7,0.2-1.5,0.9c-0.7,0.7-13.8,13.8-14.5,14.5s-1.5,1.9-1.5,3.6c0,0.9,0,15.2,0,40.4
	c0,25.6,0,28.9,0,29.2c0,0,0,0,0,0c0,0,0,0,0,0.1c0,1.8,0.8,2.9,1.5,3.6s13.7,13.7,14.5,14.5c0.7,0.7,1,0.9,1.5,0.9
	c2.6,0,5-7.8,5-10.7v-37.6V91.5C311.1,88.7,308.7,80.8,306.1,80.8z"/>
<path class="st2" d="M138.9,236.5C138.9,236.5,138.9,236.5,138.9,236.5c1.8,0,2.9-0.8,3.6-1.5s13.7-13.7,14.5-14.5s0.9-1,0.9-1.5
	c0-2.6-7.8-5-10.7-5h-19.6v22.5C133.4,236.5,136.9,236.5,138.9,236.5z"/>
<path class="st2" d="M95.4,236.5c15,0,25.3,0,32.2,0V214H95.4V236.5z"/>
<path class="st3" d="M130.3,357.7h16.9c2.8,0,10.7-2.4,10.7-5c0-0.4-0.2-0.7-0.9-1.5c-0.7-0.7-13.8-13.8-14.5-14.5
	c-0.7-0.7-1.9-1.5-3.6-1.5c0,0,0,0,0,0c-2,0-5.5,0-11.3,0v4.3C127.6,345.8,128.6,351.9,130.3,357.7z"/>
<path class="st3" d="M95.4,357.7h34.9c-1.8-5.8-2.7-11.9-2.7-18.2v-4.3c-6.9,0-17.2,0-32.2,0V357.7z"/>
<path class="st2" d="M162.7,227.3c-0.7,0.7-13.8,13.8-14.5,14.5c-0.7,0.7-1.5,1.9-1.5,3.6c0,0.9,0,15.2,0,40.5c0,34.6,0,39.6,0,40.5
	c0,1.8,0.8,2.9,1.5,3.6c0.7,0.7,13.7,13.7,14.5,14.5c0.8,0.8,1,0.9,1.5,0.9c2.6,0,5-7.8,5-10.7v-48.8v-48.8c0-2.8-2.4-10.7-5-10.7
	C163.8,226.4,163.5,226.6,162.7,227.3z"/>
<path class="st2" d="M299.1,215.8h-46.5h-44.9c-2.8,0-10.7,2.4-10.7,5c0,0.4,0.2,0.7,0.9,1.5c0.7,0.7,13.8,13.8,14.5,14.5
	s1.9,1.5,3.6,1.5c1,0,14.9,0,36.6,0c21.6,0,32.8,0,38.2,0c0,0,0,0,0,0c1.8,0,2.9-0.8,3.6-1.5s13.7-13.7,14.5-14.5s0.9-1,0.9-1.5
	C309.8,218.2,302,215.8,299.1,215.8z"/>
<path class="st3" d="M214.4,335.2c-1.8,0-2.9,0.8-3.6,1.5s-13.7,13.7-14.5,14.5s-0.9,1-0.9,1.5c0,2.6,7.8,5,10.7,5H251h34.3
	c-4.5-6.8-8-14.3-10.1-22.4c-6.2-0.1-14.1-0.1-24.3-0.1C230.8,335.2,219.9,335.2,214.4,335.2z"/>
<path class="st2" d="M316,228.1c-0.4,0-0.7,0.2-1.5,0.9c-0.7,0.7-13.8,13.8-14.5,14.5s-1.5,1.9-1.5,3.6c0,0.4,0,4.1,0,10.7
	c6.6-5.8,14.2-10.4,22.4-13.7v-5.3h0.1C321,236,318.6,228.1,316,228.1z"/>
<path class="st3" d="M189.1,226.4c-2.6,0-5,7.8-5,10.7v48.8v48.8c0,2.8,2.4,10.7,5,10.7c0.4,0,0.7-0.2,1.5-0.9
	c0.8-0.7,13.8-13.8,14.5-14.5s1.5-1.9,1.5-3.6c0-0.9,0-15.3,0-40.5c0-34.6,0-39.6,0-40.5c0-1.8-0.8-2.9-1.5-3.6
	s-13.7-13.7-14.5-14.5S189.6,226.4,189.1,226.4z"/>
<path class="st3" d="M575.1,335.1c-10.4,0-21.5,0-33.2,0c-62.9,0-110.2,0-111.1,0c-1.8,0-2.9,0.8-3.6,1.5c-0.3,0.3-4,4-7.5,7.5
	c-1.6,3.8-3.4,7.5-5.5,11c2.5,1.4,6.5,2.5,8.3,2.5h119.4h30.8c1.5-5.4,2.4-11.1,2.4-17V335.1z"/>
<path class="st3" d="M575.1,335.1v5.5c0,5.9-0.8,11.6-2.4,17h34.7v-22.5C597.8,335.1,586.9,335.1,575.1,335.1z"/>
<path class="st2" d="M542,225.3H422.6c-2.8,0-10.7,2.4-10.7,5c0,0.4,0.2,0.7,0.9,1.5c0.7,0.8,13.8,13.8,14.5,14.5s1.9,1.5,3.6,1.5
	c0.9,0,48.2,0,111.1,0c11.6,0,22.7,0,33.1,0v-22.5H542z"/>
<path class="st2" d="M575.1,225.3v22.5c11.8,0,22.7,0,32.3,0v-22.5H575.1z"/>
<path class="st3" d="M407.1,238.5c-0.8-0.8-1-0.9-1.5-0.9c-2.6,0-5,7.8-5,10.7v10.9c10.9,9.9,18.9,23,22.5,37.7c0-3.4,0-7.1,0-11
	c0-25.5,0-28.8,0-29.2c0,0,0,0,0-0.1c0-1.8-0.8-2.9-1.5-3.6C420.9,252.3,407.9,239.3,407.1,238.5z"/>
<path class="st3" d="M571.1,187.8C571.1,187.8,571.1,187.8,571.1,187.8c-1.8,0-2.9,0.8-3.6,1.5c-0.7,0.7-13.7,13.7-14.5,14.5
	s-0.9,1-0.9,1.5c0,2.6,7.8,5,10.7,5h12.3v-22.5C573.4,187.8,572.1,187.8,571.1,187.8z"/>
<path class="st3" d="M575.1,187.8v22.5h32.3v-22.5C590.4,187.8,580.6,187.8,575.1,187.8z"/>
<path class="st2" d="M552.9,70.2c-0.5,0.5-0.8,1-0.8,1.5c0,0.4,0.2,0.7,0.9,1.5c0.6,0.8,12.8,12.8,14.3,14.4
	C563.6,80.9,558.7,75.1,552.9,70.2z"/>
<path class="st2" d="M562.8,66.7c-2.2,0-7.8,1.5-9.9,3.5c5.8,4.9,10.6,10.7,14.3,17.4c0.1,0.1,0.1,0.1,0.1,0.1
	c0.7,0.7,1.9,1.5,3.6,1.5c0,0,0,0,0,0c3.9,0,13.8,0,36.3,0c-0.2-8-1.9-15.6-4.9-22.5H562.8z"/>
<path class="st3" d="M547.3,197.1c0.7-0.7,13.8-13.8,14.5-14.5c0.7-0.7,1.5-1.9,1.5-3.6c0-0.9,0-15.3,0-40.5c0-34.6,0-39.6,0-40.5
	c0-1.8-0.8-2.9-1.5-3.6c-0.7-0.7-13.7-13.7-14.5-14.5c-0.8-0.8-1-0.9-1.5-0.9c-2.6,0-5,7.8-5,10.7v48.8v48.8c0,2.8,2.4,10.7,5,10.7
	C546.2,198,546.5,197.8,547.3,197.1z"/>
<path class="st3" d="M514,210.3c2.8,0,10.7-2.4,10.7-5c0-0.4-0.2-0.7-0.9-1.5c-0.7-0.7-13.8-13.8-14.5-14.5s-1.9-1.5-3.6-1.5
	c-0.9,0-14.9,0-36.6,0c-21.6,0-32.8,0-38.2,0c0,0,0,0,0,0c-1.8,0-2.9,0.8-3.6,1.5s-13.7,13.7-14.5,14.5s-0.9,1-0.9,1.5
	c0,2.6,7.8,5,10.7,5h46.5H514z"/>
<path class="st2" d="M469.1,89.2c20.1,0,31,0,36.6,0c0,0,0,0,0,0c1.8,0,2.9-0.8,3.6-1.5C510,87,523,74,523.8,73.2
	c0.8-0.8,0.9-1,0.9-1.5c0-2.6-7.8-5-10.7-5h-44.9h-46.5c-2.8,0-10.7,2.4-10.7,5c0,0.4,0.2,0.7,0.9,1.5c0.7,0.7,13.8,13.8,14.5,14.5
	c0.7,0.7,1.9,1.5,3.6,1.5c0,0,0,0,0,0C436.3,89.2,447.5,89.2,469.1,89.2z"/>
<path class="st3" d="M407.1,79.9c-0.8-0.8-1-0.9-1.5-0.9c-2.6,0-5,7.8-5,10.7v48.8v48.8c0,2.8,2.4,10.7,5,10.7
	c0.4,0,0.7-0.2,1.5-0.9c0.7-0.7,13.8-13.8,14.5-14.5c0.7-0.7,1.5-1.9,1.5-3.6c0-0.9,0-15.3,0-40.5c0-34.6,0-39.6,0-40.5
	c0-1.8-0.8-2.9-1.5-3.6C420.9,93.7,407.9,80.7,407.1,79.9z"/>
<path class="st2" d="M530.9,198c2.6,0,5-7.8,5-10.7v-48.8V89.7c0-2.8-2.4-10.7-5-10.7c-0.4,0-0.7,0.2-1.5,0.9
	c-0.7,0.7-13.8,13.8-14.5,14.5c-0.7,0.7-1.5,1.9-1.5,3.6c0,0.9,0,15.3,0,40.5c0,34.6,0,39.6,0,40.5c0,1.8,0.8,2.9,1.5,3.6
	s13.7,13.7,14.5,14.5C530.2,197.9,530.4,198,530.9,198z"/>
<path class="st4" d="M189.6,54.5h164.5v-26H156.4c-33.5,0-61,27.4-61,61v275c0,33.5,27.4,61,61,61h107.3c1.7-8.4,4.7-16.4,8.7-24
	h-82.8c-34.1,0-62-27.9-62-62v-223C127.6,82.4,155.5,54.5,189.6,54.5z"/>
<path class="st5" d="M575.1,340.6v-1.1c0.1,34.1-27.8,62-61.9,62h-82.8c0.2,0.4,0.4,0.7,0.6,1.1h82.2
	C547.3,402.6,575.2,374.7,575.1,340.6z"/>
<path class="st5" d="M546.4,28.5H354.1v1.1h192.3c33.5,0,61,27.5,61,61v-1.1C607.4,56,579.9,28.5,546.4,28.5z"/>
<path class="st5" d="M546.4,29.6H354.1v24.9h159c34.1,0,62,27.9,62,62v1.1v221.9v1.1c0.1,34.1-27.8,62-61.9,62H431
	c3.8,7.3,6.5,14.9,8.1,22.9h107.3c33.5,0,61-27.4,61-61V90.6C607.4,57.1,579.9,29.6,546.4,29.6z"/>
<path class="st6" d="M354.1,28.5L354.1,28.5V60l0,0V28.5z"/>
<g>
	<path class="st4" d="M320.2,45.6c0,19.1,15.2,34.6,34,34.6V11C335.4,11,320.2,26.5,320.2,45.6z"/>
	<path class="st5" d="M354.3,11v69.2c18.8,0,34-15.5,34-34.6S373.1,11,354.3,11z"/>
	<path class="st7" d="M342.2,45.6c0,6.9,5.4,12.6,12,12.6V33C347.6,33,342.2,38.6,342.2,45.6z"/>
	<path class="st7" d="M366.3,45.6c0-6.9-5.4-12.6-12-12.6l0,0v25.2l0,0C360.9,58.2,366.3,52.5,366.3,45.6z"/>
</g>
<path class="st0" d="M574.9,51.4c-3.2-2-7.8-0.9-10,2.5c-2,3.2-1,7.8,2.5,10c10.5,6.6,17.5,17.4,19.3,29.6c0.1,2.1,1.4,4.1,3.2,5.2
	c1.4,1,2.9,1.4,4.7,0.9c4-0.6,6.8-4.3,6.2-8.3C598.6,74.7,589.1,60.2,574.9,51.4z"/>
<path class="st8" d="M348.9,258.3c-31.1,0-56.5,25.3-56.5,56.5s25.3,56.5,56.5,56.5s56.5-25.3,56.5-56.5S380.1,258.3,348.9,258.3z"
	/>
<path class="st8" d="M282.5,512.4c0.1,5.1,4.2,9.1,9.3,9.1h119.9c5.1,0,9.3-4.2,9.3-9.3v-2.4H282.5V512.4z"/>
<path class="st8" d="M295.7,401.5c-8.7,11.6-13.9,26.1-13.9,41.7c0,0.1,0,0.1,0,0.2l0.7,66.4H421v-66.6c0-15.6-5.2-30.1-13.9-41.7
	H295.7z"/>
<path class="st8" d="M314.9,383.9c10.2,5.1,21.8,8,34,8c13.3,0,25.7-3.4,36.6-9.4c-10.1-5.7-21.7-8.9-34.1-8.9
	C338,373.6,325.6,377.4,314.9,383.9z"/>
<path class="st8" d="M385.5,382.5c-10.9,6-23.3,9.4-36.6,9.4c-12.2,0-23.7-2.9-34-8c-7.4,4.6-14,10.6-19.2,17.6h111.4
	C401.3,393.8,393.9,387.3,385.5,382.5z"/>
<g>
	<path class="st6" d="M292.4,314.8c0,31.1,25.3,56.5,56.5,56.5c0.8,0,1.7,0,2.5-0.1V258.4c-0.8,0-1.6-0.1-2.5-0.1
		C317.8,258.3,292.4,283.6,292.4,314.8z"/>
	<path class="st6" d="M282.5,512.4c0.1,5.1,4.2,9.1,9.3,9.1h59.6v-11.7h-68.9V512.4z"/>
	<path class="st6" d="M281.8,443.2c0,0.1,0,0.1,0,0.2l0.7,66.4h68.9V401.5h-55.7C287,413.1,281.8,427.6,281.8,443.2z"/>
	<path class="st6" d="M338.5,391.2c-0.2,0-0.4-0.1-0.7-0.1C338,391.1,338.3,391.2,338.5,391.2z"/>
	<path class="st6" d="M328.5,389.1c-0.5-0.1-0.9-0.3-1.4-0.4C327.5,388.9,328,389,328.5,389.1z"/>
	<path class="st6" d="M335,390.6c-0.4-0.1-0.7-0.1-1.1-0.2C334.3,390.5,334.6,390.6,335,390.6z"/>
	<path class="st6" d="M331.6,390c-0.4-0.2-0.9-0.3-1.4-0.4C330.7,389.7,331.1,389.8,331.6,390z"/>
	<path class="st6" d="M324.8,388c-0.5-0.2-1-0.3-1.5-0.5C323.8,387.7,324.3,387.9,324.8,388z"/>
	<path class="st6" d="M318.7,385.6c-0.6-0.2-1.1-0.4-1.7-0.7C317.5,385.2,318.1,385.4,318.7,385.6z"/>
	<path class="st6" d="M322.2,387c-0.8-0.3-1.7-0.6-2.6-1C320.4,386.4,321.3,386.7,322.2,387z"/>
	<path class="st6" d="M316.2,384.5c-0.4-0.2-0.8-0.4-1.3-0.6C315.3,384.1,315.8,384.3,316.2,384.5z"/>
	<path class="st6" d="M341.8,391.6c-0.2-0.1-0.4-0.1-0.7-0.1C341.3,391.5,341.6,391.6,341.8,391.6z"/>
	<path class="st6" d="M351.4,391.8c-0.8,0-1.7,0.1-2.5,0.1C349.7,391.9,350.6,391.9,351.4,391.8z"/>
	<path class="st6" d="M344.9,391.8c0.2,0,0.5,0,0.7,0C345.4,391.8,345.2,391.8,344.9,391.8z"/>
	<path class="st6" d="M345.6,391.8c-0.2,0-0.5,0-0.7,0c-1-0.1-2.1-0.1-3.1-0.2c-0.2,0-0.5,0-0.7-0.1c-0.9-0.1-1.7-0.2-2.6-0.3
		c-0.2,0-0.5-0.1-0.7-0.1c-0.9-0.1-1.9-0.3-2.8-0.5c-0.4-0.1-0.7-0.1-1.1-0.2c-0.8-0.2-1.5-0.3-2.3-0.5c-0.5-0.1-1-0.2-1.4-0.4
		c-0.6-0.1-1.2-0.3-1.7-0.5c-0.5-0.1-0.9-0.3-1.4-0.4c-0.8-0.2-1.5-0.5-2.2-0.7c-0.5-0.2-1-0.4-1.5-0.5c-0.4-0.1-0.7-0.3-1.1-0.4
		c-0.9-0.3-1.8-0.7-2.6-1c-0.3-0.1-0.6-0.2-0.9-0.4c-0.6-0.2-1.1-0.5-1.7-0.7c-0.2-0.1-0.5-0.2-0.7-0.4c-0.4-0.2-0.9-0.4-1.3-0.6
		c-7.6,4.6-14.2,10.6-19.4,17.6h55.7v-9.7c-0.8,0-1.7,0.1-2.5,0.1C347.8,391.9,346.7,391.9,345.6,391.8z"/>
	<path class="st6" d="M316.1,384.5c0.2,0.1,0.5,0.2,0.7,0.4c0.8,0.3,1.3,0.5,1.9,0.7c0.3,0.1,0.6,0.3,0.9,0.4c0.9,0.4,1.8,0.7,2.6,1
		c0.4,0.1,0.7,0.3,1.1,0.4c0.5,0.2,1,0.4,1.5,0.5c0.7,0.2,1.5,0.5,2.2,0.7c0.5,0.1,0.9,0.3,1.4,0.4c0.6,0.2,1.1,0.3,1.7,0.5
		c0.5,0.1,1,0.2,1.4,0.4c0.8,0.2,1.5,0.3,2.3,0.5c0.4,0.1,0.7,0.1,1.1,0.2c0.9,0.2,1.9,0.3,2.8,0.5c0.2,0,0.5,0.1,0.7,0.1
		c0.9,0.1,1.7,0.2,2.6,0.3c0.2,0,0.5,0.1,0.7,0.1c1,0.1,2.1,0.2,3.1,0.2c0.2,0,0.5,0,0.7,0c1.1,0,2.2,0.1,3.3,0.1
		c0.8,0,1.7,0,2.5-0.1v-18.2c-13.4,0-25.8,3.8-36.5,10.3C315.2,384.1,315.7,384.3,316.1,384.5z"/>
	<path class="st6" d="M316.3,384.6c0.2,0.1,0.5,0.2,0.7,0.4C316.8,384.8,316.5,384.7,316.3,384.6z"/>
	<path class="st6" d="M341.1,391.5c-0.8-0.1-1.7-0.2-2.6-0.3C339.4,391.3,340.2,391.4,341.1,391.5z"/>
	<path class="st6" d="M344.9,391.8c-1-0.1-2-0.1-3.1-0.2C342.8,391.7,343.9,391.7,344.9,391.8z"/>
	<path class="st6" d="M348.9,391.9c-1.1,0-2.2,0-3.3-0.1C346.7,391.9,347.8,391.9,348.9,391.9z"/>
	<path class="st6" d="M330.2,389.6c-0.6-0.2-1.2-0.3-1.7-0.5C329,389.3,329.6,389.5,330.2,389.6z"/>
	<path class="st6" d="M333.9,390.4c-0.8-0.2-1.5-0.3-2.3-0.5C332.4,390.1,333.2,390.3,333.9,390.4z"/>
	<path class="st6" d="M327.1,388.7c-0.8-0.2-1.5-0.5-2.2-0.7C325.6,388.3,326.3,388.5,327.1,388.7z"/>
	<path class="st6" d="M319.6,386c-0.3-0.1-0.6-0.2-0.9-0.4C319,385.8,319.3,385.9,319.6,386z"/>
	<path class="st6" d="M323.3,387.5c-0.4-0.2-0.7-0.3-1.1-0.4C322.6,387.2,322.9,387.4,323.3,387.5z"/>
	<path class="st6" d="M337.8,391.1c-0.9-0.1-1.9-0.3-2.8-0.5C335.9,390.8,336.9,391,337.8,391.1z"/>
</g>
</svg>
