<?xml version="1.0" encoding="utf-8"?>
<!-- Generator: Adobe Illustrator 19.0.0, SVG Export Plug-In . SVG Version: 6.00 Build 0)  -->
<svg version="1.1" id="Layer_1" xmlns="http://www.w3.org/2000/svg" xmlns:xlink="http://www.w3.org/1999/xlink" x="0px" y="0px"
	 viewBox="96 11 512 512" style="enable-background:new 96 11 512 512;" xml:space="preserve">
<style type="text/css">
	.st0{display:none;}
	.st1{display:inline;}
	.st2{fill:#F0353D;}
	.st3{display:none;fill:#FFFFFF;}
	.st4{fill:#FFFFFF;}
	.st5{font-family:'SegoeUIBlack';}
	.st6{font-size:317.871px;}
	.st7{display:none;fill:#365558;enable-background:new    ;}
	.st8{font-size:278.7243px;}
</style>
<g id="Layer_3" class="st0">
	<path class="st1" d="M2678.7,99.1c-44.6-34.5-86.6-67.1-161.3-67.1c-19.3,0-36.6,2.5-52.4,7v205.8h512v-97.6
		c-31.9,14-69.9,24.6-120.5,24.6C2772.5,171.8,2724.8,134.9,2678.7,99.1z"/>
	<path class="st1" d="M2693.4,80.2c44.9,34.8,87.3,67.6,163.1,67.6c51.6,0,88.6-11.7,120.5-27V-268h-512V14.3
		c16.8-4.2,34.3-6.3,52.4-6.3C2600.3,8,2647.6,44.7,2693.4,80.2z"/>
	<path class="st1" d="M2856.5,147.8c-75.8,0-118.2-32.9-163.1-67.7c-45.8-35.5-93.1-72.2-176-72.2c-18.2,0-35.6,2.1-52.4,6.3v24.7
		c15.8-4.5,33.1-7,52.4-7c74.6,0,116.7,32.6,161.3,67.1c46.1,35.7,93.8,72.7,177.8,72.7c50.5,0,88.6-10.6,120.5-24.6v-26.4
		C2945.2,136.1,2908.2,147.8,2856.5,147.8z"/>
</g>
<g id="Layer_5" class="st0">
</g>
<circle class="st2" cx="352" cy="267" r="256"/>
<path class="st3" d="M448,434c-86,0-156-70-156-156s70-156,156-156s156,70,156,156S534,434,448,434z"/>
<text transform="matrix(1 0 0 1 194.7202 376.1513)" class="st4 st5 st6">M</text>
<text transform="matrix(1 0 0 1 370.0356 375.4248)" class="st7 st5 st8">L</text>
</svg>
