<?xml version="1.0" encoding="utf-8"?>
<!-- Generator: Adobe Illustrator 19.0.0, SVG Export Plug-In . SVG Version: 6.00 Build 0)  -->
<svg version="1.1" id="Layer_1" xmlns="http://www.w3.org/2000/svg" xmlns:xlink="http://www.w3.org/1999/xlink" x="0px" y="0px"
	 viewBox="96 11 512 512" style="enable-background:new 96 11 512 512;" xml:space="preserve">
<style type="text/css">
	.st0{display:none;}
	.st1{display:inline;}
	.st2{display:none;fill:#FFFFFF;}
	.st3{display:none;fill:#FFFFFF;enable-background:new    ;}
	.st4{font-family:'SegoeUIBlack';}
	.st5{font-size:317.871px;}
	.st6{display:none;fill:#365558;enable-background:new    ;}
	.st7{font-size:278.7243px;}
	.st8{fill:#FFD1A9;}
	.st9{fill:#FF8C29;}
	.st10{fill:#365558;}
	.st11{fill:none;}
	.st12{fill:#F0353D;}
	.st13{fill:#FFFFFF;}
	.st14{font-size:642.2471px;}
</style>
<g id="Layer_3" class="st0">
	<path class="st1" d="M2870.7,121.1c-44.6-34.5-86.6-67.1-161.3-67.1c-19.3,0-36.6,2.5-52.4,7v205.8h512v-97.6
		c-31.9,14-69.9,24.6-120.5,24.6C2964.5,193.8,2916.8,156.9,2870.7,121.1z"/>
	<path class="st1" d="M2885.4,102.2c44.9,34.8,87.3,67.6,163.1,67.6c51.6,0,88.6-11.7,120.5-27V-246h-512V36.3
		c16.8-4.2,34.3-6.3,52.4-6.3C2792.3,30,2839.6,66.7,2885.4,102.2z"/>
	<path class="st1" d="M3048.5,169.8c-75.8,0-118.2-32.9-163.1-67.7c-45.8-35.5-93.1-72.2-176-72.2c-18.2,0-35.6,2.1-52.4,6.3v24.7
		c15.8-4.5,33.1-7,52.4-7c74.6,0,116.7,32.6,161.3,67.1c46.1,35.7,93.8,72.7,177.8,72.7c50.5,0,88.6-10.6,120.5-24.6v-26.4
		C3137.2,158.1,3100.2,169.8,3048.5,169.8z"/>
</g>
<g id="Layer_5" class="st0">
</g>
<path class="st2" d="M640,456c-86,0-156-70-156-156s70-156,156-156s156,70,156,156S726,456,640,456z"/>
<text transform="matrix(1 0 0 1 386.7202 398.1513)" class="st3 st4 st5">M</text>
<text transform="matrix(1 0 0 1 562.0356 397.4248)" class="st6 st4 st7">L</text>
<path class="st8" d="M696.9,977L493.7,625.1c-10.2-17.6-27.9-26.4-45.7-26.4v104.7h45.6l-10.9,196.3H448V922
	c14.6,0,26.4,3.8,35.4,11.3s13.5,17.3,13.5,29.4c0,12.3-4.4,22.3-13.3,30.1s-20.7,11.8-35.6,11.8v51.5h203.2
	C691.8,1056.1,717.2,1012.2,696.9,977z"/>
<path class="st9" d="M398.9,962.7c0-12.1,4.4-21.9,13.3-29.4S433,922,448,922v-22.3h-35.9L401,703.4h47V598.7
	c-17.8,0-35.5,8.8-45.7,26.4L199.1,977c-20.3,35.2,5.1,79.1,45.7,79.1H448v-51.5c-14.5,0-26.3-4-35.4-12
	C403.4,984.6,398.9,974.7,398.9,962.7z"/>
<g>
	<path class="st10" d="M448,620.7c11.1,0,21.1,5.7,26.6,15.4L677.8,988c5.6,9.6,5.6,21.1,0,30.8c-5.6,9.6-15.5,15.4-26.6,15.4H244.8
		c-11.1,0-21.1-5.7-26.6-15.4c-5.6-9.6-5.6-21.1,0-30.8l203.2-351.9C426.9,626.5,436.9,620.7,448,620.7 M448,598.7
		c-17.8,0-35.5,8.8-45.7,26.4L199.1,977c-20.3,35.2,5.1,79.1,45.7,79.1h406.3c40.6,0,66-44,45.7-79.1L493.7,625.1
		C483.5,607.5,465.8,598.7,448,598.7L448,598.7z"/>
</g>
<text transform="matrix(1 0 0 1 369.4541 999.2084)" class="st10 st4" style="font-size:422.6153px;">!</text>
<path class="st11" d="M415.6,281.1l68.1,112.5H382.6l-22.7-48.1c-2.6-5.4-5.6-12.7-8.9-22.1h-0.8c-2.9,9.4-4.7,15.1-5.6,17.2
	c-0.8,2.1-8.9,19.8-24.1,52.9H220L290.2,287l-66-104.8h101.5l22.7,49.1c3,5.6,6.1,13.3,9.1,23.1h0.8c4-12,6.8-19.8,8.5-23.5
	l21.5-48.7h96L415.6,281.1z"/>
<path class="st11" d="M415.6,281.1l68.1,112.5H382.6l-22.7-48.1c-2.6-5.4-5.6-12.7-8.9-22.1h-0.8c-2.9,9.4-4.7,15.1-5.6,17.2
	c-0.8,2.1-8.9,19.8-24.1,52.9H220L290.2,287l-66-104.8h101.5l22.7,49.1c3,5.6,6.1,13.3,9.1,23.1h0.8c4-12,6.8-19.8,8.5-23.5
	l21.5-48.7h96L415.6,281.1z"/>
<g>
	<path class="st10" d="M449.3,32L587,169.7v194.7L449.3,502H254.7L117,364.3V169.7L254.7,32H449.3 M458,11H246L96,161v212l150,150
		h212l150-150V161L458,11L458,11z"/>
</g>
<polygon class="st12" points="254,503.5 115.5,365 115.5,169 254,30.5 450,30.5 588.5,169 588.5,365 450,503.5 "/>
<g>
	<text transform="matrix(0.7071 -0.7071 0.7071 0.7071 325.7228 565.3597)" class="st13 st4 st14">+</text>
</g>
</svg>
