<?xml version="1.0" encoding="utf-8"?>
<!-- Generator: Adobe Illustrator 19.0.0, SVG Export Plug-In . SVG Version: 6.00 Build 0)  -->
<svg version="1.1" id="Layer_1" xmlns="http://www.w3.org/2000/svg" xmlns:xlink="http://www.w3.org/1999/xlink" x="0px" y="0px"
	 viewBox="-779 493 360 96" style="enable-background:new -779 493 360 96;" xml:space="preserve">
<style type="text/css">
	.st0{fill:#FFFFFF;}
	.st1{fill:#E3493C;}
</style>
<title>Superalgos-logo-horz</title>
<path class="st0" d="M-673.7,559.9c-1.2-0.1-2.4-0.3-3.6-0.6v-4.4c2,0.3,3.9,0.4,5.9,0.4c0.8,0,1.7,0,2.5-0.2c0.5-0.1,1-0.4,1.4-0.8
	c0.4-0.5,0.6-1,0.7-1.6c0.1-0.9,0.2-1.9,0.2-2.8c0-1.2,0-2.4-0.2-3.6c-0.1-0.6-0.4-1.1-0.8-1.5c-0.7-0.4-1.5-0.7-2.2-0.8l-4.4-0.9
	c-1.4-0.3-2.4-1.3-2.8-2.6c-0.5-2.1-0.8-4.4-0.7-6.6c-0.1-2.1,0.3-4.2,1-6.2c0.5-1.4,1.6-2.5,2.9-3.2c1.5-0.7,3.2-1,4.9-0.9
	c1.3,0,2.7,0.1,4,0.3c1.2,0.2,2,0.4,2.6,0.5v4.5c-0.7-0.1-1.4-0.2-2.1-0.3c-1-0.1-2-0.1-3-0.1c-0.9,0-1.9,0.1-2.8,0.3
	c-0.6,0.1-1.1,0.5-1.4,0.9c-0.3,0.5-0.5,1-0.6,1.6c-0.1,0.9-0.2,1.7-0.2,2.6c0,1,0,2,0.2,3c0.1,0.5,0.3,0.9,0.6,1.3
	c0.4,0.3,0.9,0.5,1.5,0.6l3.9,0.8c1,0.2,1.9,0.6,2.8,1.2c0.8,0.7,1.4,1.6,1.6,2.6c0.5,1.9,0.7,3.8,0.6,5.8c0.1,2.3-0.2,4.6-0.9,6.8
	c-0.4,1.4-1.4,2.6-2.7,3.4c-1.5,0.7-3.2,1.1-4.9,1C-671.1,560.1-672.4,560-673.7,559.9z"/>
<path class="st0" d="M-635.1,523.9V544c0.1,3.4-0.1,6.8-0.5,10.1c-0.2,1.7-1,3.4-2.3,4.5c-1.2,0.9-3.2,1.4-6,1.4
	c-2.8,0-4.8-0.5-6-1.4c-1.3-1.1-2.1-2.8-2.3-4.5c-0.4-3.4-0.6-6.8-0.5-10.2v-20.1h5.3v22.3c0,2.9,0.1,4.9,0.2,6.1
	c0,0.9,0.3,1.7,0.9,2.3c0.7,0.5,1.6,0.7,2.4,0.6c0.9,0.1,1.7-0.1,2.5-0.6c0.6-0.6,0.9-1.5,0.9-2.3c0.1-1.1,0.2-3.2,0.2-6.1v-22.3
	H-635.1z"/>
<path class="st0" d="M-625.5,523.9h9.2c1.8-0.1,3.6,0.4,5.1,1.4c1.2,1,2,2.3,2.3,3.8c0.4,2.2,0.6,4.3,0.5,6.5c0,2.1-0.1,4.3-0.5,6.4
	c-0.3,1.5-1.1,2.9-2.3,3.9c-1.5,1.1-3.3,1.6-5.2,1.5h-3.9v12.3h-5.3V523.9z M-617.1,542.6c0.8,0.1,1.6-0.1,2.3-0.6
	c0.5-0.5,0.9-1.2,0.9-2c0.2-1.4,0.3-2.9,0.2-4.4c0-1.4,0-2.9-0.2-4.3c-0.1-0.8-0.4-1.5-0.9-2c-0.7-0.5-1.5-0.7-2.3-0.6h-3.1v13.9
	H-617.1z"/>
<path class="st0" d="M-599.7,559.7v-35.7h14.1v4.8h-8.7v10.5h7.6v4.8h-7.6v10.8h8.7v4.8L-599.7,559.7z"/>
<path class="st0" d="M-564.2,559.7l-3.3-13.3h-4v13.3h-5.3v-35.7h9.4c1.8-0.1,3.6,0.3,5.1,1.3c1.2,0.9,2,2.2,2.2,3.7
	c0.4,2.1,0.6,4.2,0.5,6.3c0.1,2.2-0.2,4.3-0.6,6.4c-0.3,1.5-1.3,2.8-2.6,3.6l3.9,14.4H-564.2z M-565.9,541.1
	c0.5-0.5,0.9-1.2,0.9-1.9c0.2-1.3,0.3-2.7,0.2-4c0-1.3,0-2.7-0.2-4c-0.1-0.7-0.4-1.4-1-1.9c-0.7-0.4-1.5-0.6-2.3-0.6h-3.2v12.9h3.3
	C-567.4,541.8-566.6,541.6-565.9,541.1z"/>
<path class="st1" d="M-535.8,559.7l-1.5-8.6h-7l-1.5,8.6h-5.2l6.4-35.7h7.7l6.5,35.7H-535.8z M-540.7,529.8h-0.3l-2.8,16.6h5.8
	L-540.7,529.8z"/>
<path class="st1" d="M-522,559.7v-35.7h5.3v30.9h7.8v4.9H-522z"/>
<path class="st1" d="M-492.1,544.4v-4.7h8.1V559c-1.2,0.3-2.4,0.6-3.6,0.8c-1.3,0.2-2.7,0.3-4,0.3c-2.7,0-4.7-0.5-6-1.4
	c-1.3-1-2.2-2.7-2.8-5.3c-0.6-3.8-0.9-7.7-0.8-11.6c-0.1-3.9,0.2-7.8,0.8-11.6c0.5-2.5,1.5-4.3,2.9-5.3c1.4-1,3.5-1.4,6.3-1.4
	c1.2,0,2.4,0.1,3.7,0.3c1.2,0.2,2.3,0.4,3.5,0.7v4.5c-1-0.2-2-0.3-3.1-0.4c-0.8-0.1-1.6-0.2-2.4-0.2c-1.4-0.1-2.9,0.1-4.2,0.7
	c-0.8,0.4-1.3,1.6-1.6,3.3c-0.4,3.1-0.6,6.3-0.5,9.4c0,4.2,0.1,7.2,0.3,9c0,1.3,0.4,2.6,1.2,3.6c0.8,0.7,1.9,1.1,3,0.9
	c0.9,0,1.8-0.1,2.7-0.3v-10.7H-492.1z"/>
<path class="st1" d="M-472.3,558.6c-1.3-1-2.1-2.7-2.4-5c-0.4-3.9-0.6-7.8-0.5-11.7c-0.1-3.9,0.1-7.8,0.5-11.7c0.1-1.9,1-3.7,2.4-5
	c1.3-1,3.3-1.5,6.3-1.5s5,0.5,6.3,1.5c1.4,1.3,2.3,3.1,2.4,5c0.4,3.9,0.6,7.8,0.5,11.7c0.1,3.9-0.1,7.8-0.5,11.7
	c-0.3,2.4-1.1,4-2.4,5s-3.4,1.5-6.3,1.5C-469,560.1-471.1,559.6-472.3,558.6z M-463.4,554.6c0.5-0.5,0.8-1.6,1-3.3s0.3-4.9,0.3-9.5
	c0-4.5-0.1-7.7-0.3-9.5c-0.2-1.8-0.5-2.9-1-3.3c-0.8-0.5-1.7-0.8-2.6-0.7c-0.9-0.1-1.9,0.1-2.6,0.7c-0.5,0.4-0.8,1.5-1,3.3
	c-0.2,1.8-0.3,4.9-0.3,9.5c0,4.5,0.1,7.7,0.3,9.5s0.5,2.9,1,3.3c0.8,0.5,1.7,0.8,2.6,0.7C-465.1,555.4-464.2,555.1-463.4,554.6z"/>
<path class="st1" d="M-444.3,559.9c-1.2-0.1-2.4-0.3-3.6-0.6v-4.4c2,0.3,3.9,0.4,5.9,0.4c0.8,0,1.7,0,2.5-0.2c0.5-0.1,1-0.4,1.4-0.8
	c0.4-0.5,0.6-1,0.6-1.6c0.1-0.9,0.2-1.9,0.2-2.8c0-1.2,0-2.4-0.2-3.6c-0.1-0.6-0.4-1.1-0.8-1.5c-0.7-0.4-1.4-0.7-2.2-0.8l-4.4-0.9
	c-1.4-0.2-2.5-1.3-2.8-2.6c-0.5-2.1-0.8-4.4-0.7-6.6c-0.1-2.1,0.3-4.2,1-6.2c0.5-1.4,1.5-2.5,2.9-3.2c1.5-0.7,3.2-1,4.9-0.9
	c1.3,0,2.7,0.1,4,0.3c1.2,0.2,2,0.4,2.6,0.5v4.5c-0.7-0.1-1.4-0.2-2.1-0.3c-1-0.1-2-0.1-3-0.1c-0.9,0-1.9,0.1-2.8,0.3
	c-0.6,0.1-1.1,0.5-1.4,0.9c-0.3,0.5-0.5,1-0.6,1.6c-0.1,0.9-0.2,1.7-0.2,2.6c0,1,0,2,0.2,3c0,0.5,0.3,0.9,0.6,1.3
	c0.4,0.3,0.9,0.5,1.5,0.6l3.9,0.8c1,0.2,1.9,0.6,2.8,1.2c0.8,0.7,1.4,1.6,1.6,2.6c0.5,1.9,0.7,3.8,0.6,5.8c0.1,2.3-0.2,4.6-0.9,6.8
	c-0.4,1.4-1.4,2.6-2.7,3.4c-1.5,0.7-3.2,1.1-4.9,1C-441.7,560.1-443,560-444.3,559.9z"/>
<path class="st1" d="M-732.3,552c1.2-0.4,9.1,0.9,10.1,1.6c3.3,2.3,8.1,3.6,10.1,1.2s-0.1-6.5-3.2-9.6c-0.9-0.9-3.9-8.2-3.8-9.5
	c0.4-4.1-0.9-9-3.9-9.5c-3-0.5-5.9,3.9-6.6,7.6c-0.3,1.3-5.3,7.5-6.5,8c-3.7,1.7-7.1,5.2-6,8.1C-740.9,552.8-735.8,553-732.3,552z"
	/>
<path class="st1" d="M-718.6,509.8c4.9,0.2,7,10.3,6.2,18.1c-0.3,2.5,5.6,16.6,6.6,18.9c0.7,1.4,1.8,2.5,3.2,3.2
	c-3.8-10.2-4.1-18.4-3.4-20.3c3.2-8.8,1.8-20.8-3-23.5c-3.3-1.9-10.3-2.6-14.8,4.8C-722.3,509.9-720.5,509.5-718.6,509.8z"/>
<path class="st1" d="M-758.1,552.6c-2.3-4.4,5.4-11.2,12.6-14.5c2.3-1,11.6-13.1,13.1-15.1c0.8-1.3,1.2-2.8,1.2-4.4
	c-7,8.3-13.9,12.7-15.9,13.1c-9.3,1.6-18.9,8.8-18.9,14.3c0,3.7,2.9,10.3,11.6,10.5C-756.1,555.7-757.4,554.3-758.1,552.6z"/>
<path class="st1" d="M-701,566.2c-2.7,4.2-12.4,1-18.8-3.7c-2.1-1.5-17.2-3.5-19.7-3.7c-1.5-0.1-3.1,0.3-4.4,1.2
	c10.7,1.8,18,5.6,19.3,7.2c6.1,7.2,17.1,11.9,21.9,9.2c3.2-1.9,7.4-7.6,3.3-15.3C-699.3,562.9-699.8,564.7-701,566.2z"/>
</svg>
