<?xml version="1.0" encoding="utf-8"?>
<!-- Generator: Adobe Illustrator 19.0.0, SVG Export Plug-In . SVG Version: 6.00 Build 0)  -->
<svg version="1.1" id="Layer_1" xmlns="http://www.w3.org/2000/svg" xmlns:xlink="http://www.w3.org/1999/xlink" x="0px" y="0px"
	 viewBox="206 -206 512 512" style="enable-background:new 206 -206 512 512;" xml:space="preserve">
<style type="text/css">
	.st0{display:none;}
	.st1{display:inline;}
	.st2{fill:#0295AA;}
	.st3{fill:#365558;}
	.st4{fill:#4ACFD9;}
	.st5{fill:#E6EAEA;}
	.st6{fill:#CDD4D5;}
</style>
<g id="Layer_3" class="st0">
	<rect x="1030" y="-1030.4" class="st1" width="512" height="512.8"/>
</g>
<path class="st2" d="M462-206v21.3c129.4,0,234.7,105.3,234.7,234.7S591.4,284.7,462,284.7V306c141.4,0,256-114.6,256-256
	S603.4-206,462-206z"/>
<path class="st3" d="M227.3,50c0-129.4,105.3-234.7,234.7-234.7V-206C320.6-206,206-91.4,206,50s114.6,256,256,256v-21.3
	C332.6,284.7,227.3,179.4,227.3,50z"/>
<path class="st4" d="M623.3-45.1c-5.7-9.6-12.3-18.8-19.9-27.5L462,68.9v47.4L623.3-45.1z"/>
<path class="st2" d="M366.9,211.4l95.1-95.1V68.9L339.4,191.5C348.1,199,357.3,205.7,366.9,211.4z"/>
<path class="st4" d="M581.7-93.9c-8.9-7.4-18.2-13.8-28-19.3L462-21.5v47.3L581.7-93.9z"/>
<path class="st2" d="M318.1,169.7L462,25.8v-47.3L298.8,141.7C304.3,151.5,310.7,160.9,318.1,169.7z"/>
<path class="st4" d="M524.1-126.7c-12.5-4.4-25.3-7.4-38.3-9L462-111.9v47.3L524.1-126.7z"/>
<path class="st2" d="M285.3,112.1L462-64.6v-47.3L276.3,73.8C278,86.8,280.9,99.6,285.3,112.1z"/>
<path class="st2" d="M275.7,31.4l167.7-167.7c-41.5,4.1-82,22.1-113.8,53.9C297.8-50.6,279.8-10.2,275.7,31.4z"/>
<path class="st4" d="M647,21.5c-2-12.7-5.2-25.3-9.8-37.5L462,159.2v47.3L647,21.5z"/>
<path class="st2" d="M433.5,235l28.5-28.5v-47.3l-66,66C408.2,229.8,420.8,233.1,433.5,235z"/>
<path id="Fill-498" class="st4" d="M648.7,62.9L474.9,236.7c43.5-3,86.3-21.1,119.5-54.3C627.7,149.1,645.8,106.4,648.7,62.9"/>
<polygon class="st5" points="521.4,-13.2 521.4,-61 462,-18.2 462,29.5 "/>
<rect x="462" y="115.5" class="st5" width="151.1" height="60.1"/>
<polygon class="st5" points="472.3,-107.6 462,-107.6 462,-33.7 "/>
<polygon class="st6" points="441.2,115.5 452.2,36.6 462,29.5 462,-18.2 459.6,-16.5 462,-33.7 462,-107.6 396.6,-107.6 380.4,40.5 
	332.2,75.2 332.2,123 374.7,92.4 365.6,175.6 441.2,175.6 462,175.6 462,115.5 "/>
<polygon class="st2" points="618.8,109.7 462,109.7 462,121.2 607.3,121.2 607.3,169.8 462,169.8 462,181.3 618.8,181.3 "/>
<polygon class="st2" points="465.6,-101.8 462,-75.9 462,-11.1 515.6,-49.7 515.6,-16.1 462,22.5 462,36.7 527.1,-10.2 527.1,-72.2 
	467.1,-29 478.9,-113.4 462,-113.4 462,-101.8 "/>
<polygon class="st3" points="372,169.8 381.8,80.1 338,111.7 338,78.1 385.9,43.7 401.7,-101.8 462,-101.8 462,-113.4 391.5,-113.4 
	375,37.3 326.5,72.2 326.5,134.2 367.6,104.6 359.2,181.3 462,181.3 462,169.8 "/>
<polygon class="st2" points="446.8,33.4 434.6,121.2 462,121.2 462,109.7 447.8,109.7 457.5,39.9 462,36.7 462,22.5 "/>
<polygon class="st2" points="462,-11.1 462,-75.9 452,-3.9 "/>
</svg>
