<?xml version="1.0" encoding="utf-8"?>
<!-- Generator: Adobe Illustrator 19.0.0, SVG Export Plug-In . SVG Version: 6.00 Build 0)  -->
<svg version="1.1" id="Layer_1" xmlns="http://www.w3.org/2000/svg" xmlns:xlink="http://www.w3.org/1999/xlink" x="0px" y="0px"
	 viewBox="206 -206 512 512" style="enable-background:new 206 -206 512 512;" xml:space="preserve">
<style type="text/css">
	.st0{display:none;}
	.st1{display:inline;}
	.st2{display:none;fill:#FFFFFF;}
	.st3{fill:#FFFFFF;}
	.st4{fill:#9BAAAB;}
	.st5{fill:#365558;}
	.st6{fill:#FF8C29;}
	.st7{fill:#FD6A33;}
</style>
<g id="Layer_3" class="st0">
	<rect x="1030" y="-1030.4" class="st1" width="512" height="512.8"/>
</g>
<path id="Fill-638" class="st2" d="M668-399.2c134.1,0,243.2,109.1,243.2,243.2S802.1,87.2,668,87.2S424.8-21.9,424.8-156
	S533.9-399.2,668-399.2"/>
<path class="st3" d="M462-206L462-206L462-206v512c141.4,0,256-114.6,256-256S603.4-206,462-206z"/>
<path class="st3" d="M462-206C320.6-206,206-91.4,206,50s114.6,256,256,256V-206L462-206z"/>
<path class="st4" d="M571.6,184.5V51.3l-71.1,71.2l-11,11l-26.9,26.9l-0.5-0.5V306l0,0l0,0c39.2,0,76.4-8.8,109.6-24.6
	c2.7-1.2,5.3-2.6,8-3.9c16.3-8.4,31.7-18.6,45.7-30.2c1.2-1,2.3-1.9,3.5-2.9c20-17.1,37.3-37.3,51.1-59.8H571.6V184.5z"/>
<path class="st5" d="M462,159.9l-26.5-26.5l-11-11l-74.2-74.2v136.3H244.2c13.7,22.2,30.8,42.2,50.4,59.2c1.5,1.3,3.1,2.6,4.7,3.9
	c14.1,11.6,29.4,21.8,45.8,30.2c1.7,0.9,3.5,1.8,5.2,2.6C384,296.8,421.9,306,462,306l0,0V159.9z"/>
<path class="st6" d="M689.8-66.9c-8.4-16.4-18.5-31.7-30.2-45.8c-9.3-11.4-19.7-22-30.9-31.6c-17.2-14.8-36.4-27.3-57.1-37.1
	C538.4-197.2,501.2-206,462-206l0,0l0,0V84l0.5,0.5L571.6-24.7l57.1-57.1v215.2h75.4c9-26.1,13.9-54.2,13.9-83.4
	C718,7.9,707.8-31.9,689.8-66.9z"/>
<path class="st7" d="M462-206c-40,0-77.9,9.2-111.7,25.6c-20.2,9.8-38.9,22.2-55.7,36.7c-10.8,9.3-20.7,19.5-29.8,30.5
	c-11.7,14-21.8,29.4-30.2,45.7C216.3-32.3,206,7.6,206,50c0,29.2,4.9,57.3,13.9,83.4h74.7V-83.4L462,84V-206L462-206z"/>
</svg>
