<?xml version="1.0" encoding="utf-8"?>
<!-- Generator: Adobe Illustrator 19.0.0, SVG Export Plug-In . SVG Version: 6.00 Build 0)  -->
<svg version="1.1" id="Layer_1" xmlns="http://www.w3.org/2000/svg" xmlns:xlink="http://www.w3.org/1999/xlink" x="0px" y="0px"
	 viewBox="206 -206 512 512" style="enable-background:new 206 -206 512 512;" xml:space="preserve">
<style type="text/css">
	.st0{display:none;}
	.st1{display:inline;}
	.st2{fill:#4ACFD9;}
	.st3{fill:#0295AA;}
	.st4{fill:#FFFFFF;stroke:#FFFFFF;stroke-width:4;stroke-miterlimit:10;}
	.st5{fill:#E6EAEA;stroke:#E6EAEA;stroke-width:4;stroke-miterlimit:10;}
</style>
<g id="Layer_3" class="st0">
	<rect x="1030" y="-1030.4" class="st1" width="512" height="512.8"/>
</g>
<path class="st2" d="M462-206v512c141.4,0,256-114.6,256-256S603.4-206,462-206z"/>
<path class="st3" d="M206,50c0,141.4,114.6,256,256,256v-512C320.6-206,206-91.4,206,50z"/>
<polygon class="st4" points="577.8,-50 491.9,-112.4 462,-112.4 462,-106.9 490,-106.9 573,-46.6 604.8,50.9 573.1,148.4 
	490.1,208.7 462,208.7 462,214.4 491.9,214.4 577.8,152 610.6,51 "/>
<polygon class="st5" points="387.5,208.7 304.5,148.4 272.8,50.9 304.5,-46.6 387.5,-106.9 462,-106.9 462,-112.4 385.7,-112.4 
	299.8,-50 267,51 299.8,152 385,213.9 385.7,214.4 462,214.4 462,208.7 "/>
<path class="st5" d="M385.1-122c-6.8,0-12.3,5.5-12.3,12.3s5.5,12.3,12.3,12.3s12.3-5.5,12.3-12.3S391.9-122,385.1-122z"/>
<path id="Fill-710" class="st4" d="M503-109.7c0,6.8-5.5,12.3-12.3,12.3s-12.3-5.5-12.3-12.3s5.5-12.3,12.3-12.3
	S503-116.5,503-109.7"/>
<path class="st5" d="M386,197.4c-6.8,0-12.3,5.5-12.3,12.3c0,6.8,5.5,12.3,12.3,12.3s12.3-5.5,12.3-12.3
	C398.3,202.9,392.8,197.4,386,197.4z"/>
<path class="st5" d="M301.5,138c-6.8,0-12.3,5.5-12.3,12.3s5.5,12.3,12.3,12.3s12.3-5.5,12.3-12.3S308.3,138,301.5,138z"/>
<path class="st5" d="M269.9,38.6c-6.8,0-12.3,5.5-12.3,12.3c0,6.8,5.5,12.3,12.3,12.3s12.3-5.5,12.3-12.3
	C282.2,44.1,276.7,38.6,269.9,38.6z"/>
<path class="st5" d="M301.5-60.3c-6.8,0-12.3,5.5-12.3,12.3s5.5,12.3,12.3,12.3s12.3-5.5,12.3-12.3S308.3-60.3,301.5-60.3z"/>
<path id="Fill-720" class="st4" d="M595.4,50.7c0,6.8,5.5,12.3,12.3,12.3S620,57.5,620,50.7s-5.5-12.3-12.3-12.3
	S595.4,43.9,595.4,50.7"/>
<path id="Fill-722" class="st4" d="M563.7-48.3c0,6.8,5.5,12.3,12.3,12.3s12.3-5.5,12.3-12.3s-5.5-12.3-12.3-12.3
	S563.7-55,563.7-48.3"/>
<path id="Fill-724" class="st4" d="M503.8,209.7c0,6.8-5.5,12.3-12.3,12.3s-12.3-5.5-12.3-12.3s5.5-12.3,12.3-12.3
	S503.8,202.9,503.8,209.7"/>
<polygon class="st4" points="520.4,-27.7 462,-45.3 462,-39.3 520.7,-21.7 573.1,-44 573.1,145.6 520.7,123.3 462,140.9 462,146.9 
	520.4,129.3 578.8,154.1 578.8,154.1 578.8,-52.5 "/>
<polygon class="st5" points="443.2,146.6 374.6,123.6 373.7,123.3 304.3,145.8 304.3,-44.1 372.8,-22 373.7,-21.7 443.2,-45 
	462,-39.3 462,-45.3 444,-50.7 443.1,-51 373.7,-27.7 298.7,-51.9 298.7,153.5 373.7,129.3 443.1,152.6 462,146.9 462,140.9 "/>
<polygon class="st4" points="607.6,47.9 462,48 462,53.6 607.6,53.5 "/>
<polygon class="st5" points="269.9,48.1 269.9,53.7 462,53.6 462,48 "/>
<polygon class="st4" points="523.6,-24.6 491.6,-115.5 462,-77.1 462,-67.8 489.7,-103.8 517.5,-24.8 486.7,43.2 462,-12.5 462,1.3 
	483.6,50 462,99.5 462,113.4 486.7,57 517.5,126.3 490.5,203.9 462,168.5 462,177.5 492.6,215.4 523.6,126.1 489.8,50 "/>
<path class="st5" d="M446.4,149.1l15.6-35.7v-14l-18.7,42.8l-36.5-91.4l36.5-91.7L462,1.3v-13.8l-15.6-35.1L462-67.8v-9.2
	l-19.1,24.8l-59.8-63.6L371-26l-73.3,76.9l73.4,76.6l13,88.3l58.9-61.9l19,23.6v-9L446.4,149.1z M387-103.5l52.8,56.1l-36.1,90.7
	l-27.1-68.4L387-103.5z M305.4,50.9l67.3-70.5l28,70.5l-28,70.2L305.4,50.9z M387.9,203.6l-11.3-77l27.1-68l36.1,90.4L387.9,203.6z"
	/>
<polygon id="Fill-732" class="st4" points="522.8,127.9 518.3,124.6 572.5,50.9 518.3,-23.1 522.8,-26.4 579.5,50.9 "/>
<path class="st5" d="M372.8-37c-6.8,0-12.3,5.5-12.3,12.3s5.5,12.3,12.3,12.3s12.3-5.5,12.3-12.3S379.6-37,372.8-37z"/>
<path class="st5" d="M443.2-60.3c-6.8,0-12.3,5.5-12.3,12.3s5.5,12.3,12.3,12.3s12.3-5.5,12.3-12.3S450-60.3,443.2-60.3z"/>
<path id="Fill-738" class="st4" d="M529.3-33.4c-4.8-4.8-12.6-4.8-17.4,0c-4.8,4.8-4.8,12.6,0,17.4c4.8,4.8,12.6,4.8,17.4,0
	S534.1-28.6,529.3-33.4"/>
<path class="st5" d="M301.5,37.7c-6.8,0-12.3,5.5-12.3,12.3s5.5,12.3,12.3,12.3s12.3-5.5,12.3-12.3S308.3,37.7,301.5,37.7z"/>
<path class="st5" d="M401.4,37.7c-6.8,0-12.3,5.5-12.3,12.3s5.5,12.3,12.3,12.3s12.3-5.5,12.3-12.3S408.2,37.7,401.4,37.7z"/>
<path id="Fill-744" class="st4" d="M497.2,50c0-6.8-5.5-12.3-12.3-12.3s-12.3,5.5-12.3,12.3s5.5,12.3,12.3,12.3S497.2,56.8,497.2,50
	"/>
<path id="Fill-746" class="st4" d="M588.3,50.9c0-6.8-5.5-12.3-12.3-12.3s-12.3,5.5-12.3,12.3s5.5,12.3,12.3,12.3
	S588.3,57.7,588.3,50.9"/>
<path id="Fill-748" class="st4" d="M532.9,126.3c0-6.8-5.5-12.3-12.3-12.3s-12.3,5.5-12.3,12.3s5.5,12.3,12.3,12.3
	S532.9,133.1,532.9,126.3"/>
<path id="Fill-750" class="st4" d="M666.4,188.2c0-9.6-7.8-17.4-17.4-17.4c-9.6,0-17.4,7.8-17.4,17.4c0,9.6,7.8,17.4,17.4,17.4
	C658.6,205.6,666.4,197.8,666.4,188.2"/>
<path class="st5" d="M438.4,138.6c-6.3,2.6-9.2,9.9-6.5,16.1c2.6,6.3,9.9,9.2,16.1,6.5c6.3-2.6,9.2-9.9,6.5-16.1
	C451.8,138.8,444.6,135.9,438.4,138.6z"/>
<path class="st5" d="M368.1,114.9c-6.3,2.6-9.2,9.9-6.5,16.1c2.6,6.3,9.9,9.2,16.1,6.5c6.3-2.6,9.2-9.9,6.5-16.1
	C381.5,115.2,374.3,112.3,368.1,114.9z"/>
<polygon id="Fill-756" class="st4" points="647.7,190.7 574.1,152.7 576.7,147.7 650.3,185.7 "/>
</svg>
