<?xml version="1.0" encoding="utf-8"?>
<!-- Generator: Adobe Illustrator 19.0.0, SVG Export Plug-In . SVG Version: 6.00 Build 0)  -->
<svg version="1.1" id="Layer_1" xmlns="http://www.w3.org/2000/svg" xmlns:xlink="http://www.w3.org/1999/xlink" x="0px" y="0px"
	 viewBox="96 11 512 512" style="enable-background:new 96 11 512 512;" xml:space="preserve">
<style type="text/css">
	.st0{display:none;}
	.st1{display:inline;}
	.st2{fill:#FFFFFF;}
	.st3{fill:#F0353D;}
	.st4{fill:#687F82;}
	.st5{fill:#9BAAAB;}
	.st6{fill:#BCD643;}
</style>
<g id="Layer_3" class="st0">
	<rect x="1299" y="-84" class="st1" width="512" height="512.8"/>
</g>
<path class="st2" d="M1278.5,503h-413c-27.2,0-49.5-22.3-49.5-49.5v-413C816,13.3,838.3-9,865.5-9h413c27.2,0,49.5,22.3,49.5,49.5
	v413C1328,480.7,1305.7,503,1278.5,503z"/>
<g id="Layer_5" class="st0">
</g>
<path class="st3" d="M1174.7,55.7c-10.5,0-80.3,0-90.7,0c0,43.9,0,206.3,0,250.1c11,0,80.9,0,90.7,0
	C1174.7,261.7,1174.7,99.2,1174.7,55.7z"/>
<path class="st0" d="M1662.7,421.9c14.8,10,91.3-43,127.1-33c56.6,16,111.1,61.5,119.3,138.8c7,65.9,6.5,166.1,32.3,221.2
	c38.7,82.7,122.8,89.5,185.8,75.5c26.3-5.9,32.1-21.3,32.1-21.3v-12.8c0,0-22.6,18.5-86.4,10.6c-35.7-4.4-81-12.4-109.7-59.6
	c-42.4-69.7-39.1-164.6-43.4-213.6c-6.7-74.6-52.8-158.4-130-164.8S1662.7,421.9,1662.7,421.9z"/>
<rect x="877.4" y="403.8" class="st4" width="18.5" height="90.6"/>
<rect x="877.4" y="140.7" class="st5" width="18.5" height="64"/>
<path class="st6" d="M932,204.7c-10.5,0-80.3,0-90.7,0c0,35,0,164.2,0,199.1c11,0,80.9,0,90.7,0C932,368.6,932,239.5,932,204.7z"/>
<rect x="994.5" y="214.8" class="st4" width="18.5" height="162.9"/>
<rect x="994.5" y="29.7" class="st5" width="18.5" height="26"/>
<path class="st6" d="M1049.1,55.7c-10.5,0-80.3,0-90.7,0c0,35,0,124.2,0,159.1c11,0,80.9,0,90.7,0
	C1049.1,179.6,1049.1,90.5,1049.1,55.7z"/>
<rect x="1120.1" y="304.2" class="st4" width="18.5" height="124.5"/>
<rect x="1250" y="305.9" class="st4" width="18.5" height="72.9"/>
<rect x="1250.1" y="119.2" class="st5" width="18.5" height="16"/>
<path class="st6" d="M1304.7,135.2c-10.5,0-80.3,0-90.7,0c0,23.9,0,146.8,0,170.6c11,0,80.9,0,90.7,0
	C1304.7,281.8,1304.7,158.9,1304.7,135.2z"/>
<path class="st3" d="M522.9,50.6c-16,0-122.3,0-138.1,0c0,66.9,0,314.1,0,380.8c16.7,0,123.2,0,138.1,0
	C522.9,364.3,522.9,116.9,522.9,50.6z"/>
<rect x="248.6" y="292.8" class="st4" width="28.2" height="130"/>
<rect x="248.6" y="11" class="st5" width="28.2" height="39.6"/>
<path class="st6" d="M331.7,50.6c-16,0-122.3,0-138.1,0c0,53.3,0,189.1,0,242.3c16.7,0,123.2,0,138.1,0
	C331.7,239.2,331.7,103.6,331.7,50.6z"/>
<rect x="439.8" y="429.1" class="st4" width="28.2" height="93.9"/>
</svg>
