<?xml version="1.0" encoding="utf-8"?>
<!-- Generator: Adobe Illustrator 19.0.0, SVG Export Plug-In . SVG Version: 6.00 Build 0)  -->
<svg version="1.1" id="Layer_1" xmlns="http://www.w3.org/2000/svg" xmlns:xlink="http://www.w3.org/1999/xlink" x="0px" y="0px"
	 viewBox="96 11 512 512" style="enable-background:new 96 11 512 512;" xml:space="preserve">
<style type="text/css">
	.st0{display:none;}
	.st1{display:inline;}
	.st2{fill:none;stroke:#BCD643;stroke-width:60;stroke-linecap:round;stroke-miterlimit:10;}
	.st3{fill:none;stroke:#FD6A33;stroke-width:60;stroke-linecap:round;stroke-miterlimit:10;}
	.st4{fill:none;stroke:#4ACFD9;stroke-width:60;stroke-linecap:round;stroke-miterlimit:10;}
	.st5{fill:none;stroke:#F0353D;stroke-width:60;stroke-miterlimit:10;}
	.st6{fill:#FFFFFF;}
	.st7{fill:none;stroke:#BCD643;stroke-width:40;stroke-linecap:round;stroke-miterlimit:10;}
	.st8{fill:none;stroke:#FD6A33;stroke-width:40;stroke-linecap:round;stroke-miterlimit:10;}
	.st9{fill:none;stroke:#4ACFD9;stroke-width:40;stroke-linecap:round;stroke-miterlimit:10;}
	.st10{fill:none;stroke:#687F82;stroke-width:40;stroke-linecap:round;stroke-miterlimit:10;}
	.st11{fill:#F0353D;}
</style>
<g id="Layer_3" class="st0">
	<rect x="1372" y="-390" class="st1" width="512" height="512.8"/>
</g>
<path class="st2" d="M96,375.9c82-60,117.9-155.1,134-234c14-68.7,39.3-93.3,61.3-87.4s31.3,37.3,51.3,40
	c39.7,5.3,45.2-36.9,63.3-52.3c35.6-30.3,34,81.7,54,121.7s66,25.8,96,13.9c18.5-7.3,35.2-23.3,52-24.1"/>
<path class="st3" d="M96,377.9c170-34,248-152,308-198s116.5-33.6,168,38c9.6,13.4,21.8,25.6,36,36.5"/>
<path class="st4" d="M96,439.9c126-12,254-42,352-96c51.9-28.6,104.5-60,160-87"/>
<path class="st5" d="M96,496.9c162.4-13.1,346.3-61,546-100.1"/>
<path class="st6" d="M-215.5,594h-413c-27.2,0-49.5-22.3-49.5-49.5v-413c0-27.2,22.3-49.5,49.5-49.5h413c27.2,0,49.5,22.3,49.5,49.5
	v413C-166,571.7-188.3,594-215.5,594z"/>
<path class="st7" d="M-678,446.9c82-60,117.9-155.1,134-234c14-68.7,39.3-93.3,61.3-87.4s31.3,37.3,51.3,40
	c39.7,5.3,45.2-36.9,63.3-52.3c35.6-30.3,34,81.7,54,121.7s66,25.8,96,13.9c18.5-7.3,35.2-23.3,52-24.1"/>
<path class="st8" d="M-678,398.9c170-34,248-152,308-198s116.5-33.6,168,38c9.6,13.4,21.8,25.6,36,36.5"/>
<path class="st9" d="M-678,480.9c126-12,254-42,352-96c51.9-28.6,104.5-60,160-87"/>
<path class="st10" d="M-678,527.9c152.3-13.1,324.7-61,512-100.1"/>
<path class="st11" d="M965,248.1h66.9c58.9,0,107.1,36.1,107.1,80.2v120.4H965V248.1z"/>
</svg>
