<?xml version="1.0" encoding="utf-8"?>
<!-- Generator: Adobe Illustrator 19.0.0, SVG Export Plug-In . SVG Version: 6.00 Build 0)  -->
<svg version="1.1" id="Layer_1" xmlns="http://www.w3.org/2000/svg" xmlns:xlink="http://www.w3.org/1999/xlink" x="0px" y="0px"
	 viewBox="96 11 512 512" style="enable-background:new 96 11 512 512;" xml:space="preserve">
<style type="text/css">
	.st0{display:none;}
	.st1{display:inline;}
	.st2{fill:#FF8C29;}
	.st3{fill:#FD6A33;}
	.st4{fill:#FFFFFF;}
	.st5{fill:#BCD643;}
	.st6{fill:none;stroke:#0295AA;stroke-width:20;stroke-linecap:round;stroke-miterlimit:10;}
	.st7{fill:#4ACFD9;}
	.st8{fill:#0295AA;}
	.st9{fill:#687F82;}
</style>
<g id="Layer_3" class="st0">
	<path class="st1" d="M1980,36.2c-31.9,14-69.9,24.6-120.5,24.6c-12.6,0-24.4-0.8-35.5-2.4v75.4h156V36.2z"/>
	<path class="st1" d="M1681.7-11.9c-44.6-34.5-86.6-67.1-161.3-67.1c-19.3,0-36.6,2.5-52.4,7v205.8h356V58.4
		C1761.2,49.7,1720.9,18.5,1681.7-11.9z"/>
	<path class="st1" d="M1468-379v276h52.4H1824V34.2c11,1.7,22.8,2.6,35.5,2.6c51.6,0,88.6-11.7,120.5-27V-379H1468z"/>
	<path class="st1" d="M1520.4-103H1468v6.3C1484.8-100.9,1502.3-103,1520.4-103z"/>
	<path class="st1" d="M1520.4-103c82.9,0,130.2,36.7,176,72.2c37.4,29,73,56.5,127.6,65V-103H1520.4z"/>
	<path class="st1" d="M1520.4-103.1c-2.3,0-4.6,0-6.8,0.1h14C1525.2-103.1,1522.8-103.1,1520.4-103.1z"/>
	<path class="st1" d="M1859.5,36.8c-12.7,0-24.5-0.9-35.5-2.7v24.2c11.1,1.5,22.9,2.4,35.5,2.4c50.5,0,88.6-10.6,120.5-24.6V9.7
		C1948.2,25.1,1911.2,36.8,1859.5,36.8z"/>
	<path class="st1" d="M1696.4-30.9c-44.5-34.5-90.3-70-168.8-72.1h-14c-15.7,0.5-30.9,2.5-45.6,6.2v24.7c15.8-4.5,33.1-7,52.4-7
		c74.6,0,116.7,32.6,161.3,67.1c39.2,30.3,79.5,61.6,142.3,70.3V34.1C1769.4,25.7,1733.8-1.9,1696.4-30.9z"/>
</g>
<g id="Layer_5" class="st0">
</g>
<path class="st2" d="M289.7,463.5c-70.1,0-111.4-55.9-151.4-110c-13.5-18.3-27.3-36.8-42.3-53.7V523h512V150.2
	c-68.6,8.7-111,81.3-155.7,157.8C407.7,384.5,361.6,463.5,289.7,463.5z"/>
<path class="st3" d="M563.5-48.8H141.6C113.8-48.8,91-5.8,91,46.6v97.1c21.6,21,39.9,45.5,57.3,68.6
	c39.4,52.2,76.7,101.5,140.6,101.5c64.2,0,105.8-69.7,149.9-143.7c24.4-40.8,49.5-83.2,79.6-115.4c28.5-30.6,58-48.1,89.6-53.3
	C599.4-28.4,582.7-48.8,563.5-48.8z"/>
<path class="st4" d="M1338.5,523h-413c-27.2,0-49.5-22.3-49.5-49.5v-413c0-27.2,22.3-49.5,49.5-49.5h413c27.2,0,49.5,22.3,49.5,49.5
	v413C1388,500.7,1365.7,523,1338.5,523z"/>
<path class="st5" d="M1039.4,396.8c-22.2-18.7-54-18.5-75.9-1.1l29.7,24.9c5.1,4.3,5.7,11.8,1.5,16.9c-4.3,5.1-11.8,5.7-16.9,1.5
	l-29.7-24.9c-13.3,24.6-8,55.9,14.2,74.6c25.4,21.3,63.2,18,84.5-7.4C1068.1,455.9,1064.8,418.1,1039.4,396.8z"/>
<line class="st6" x1="1205.7" y1="285.3" x2="1205.7" y2="499.2"/>
<path class="st7" d="M1235,289.9h-57.4c-11.8,0-21.5,9.7-21.5,21.5v22.8c0,11.8,9.7,21.5,21.5,21.5h57.4c11.8,0,21.5-9.7,21.5-21.5
	v-22.8C1256.5,299.6,1246.8,289.9,1235,289.9z"/>
<line class="st6" x1="1327.2" y1="285.3" x2="1327.2" y2="499.2"/>
<path class="st7" d="M1356.4,361.6H1299c-11.8,0-21.5,9.7-21.5,21.5v22.8c0,11.8,9.7,21.5,21.5,21.5h57.5c11.8,0,21.5-9.7,21.4-21.5
	v-22.8C1377.9,371.3,1368.2,361.6,1356.4,361.6z"/>
<path class="st8" d="M1069.7,223.2c-70.1,0-111.4-29-151.4-57.1c-13.5-9.5-27.3-19.1-42.3-27.9v115.9h512V60.6
	c-68.6,4.5-111,42.2-155.7,81.9C1187.7,182.2,1141.6,223.2,1069.7,223.2z"/>
<path class="st9" d="M1338.5,11h-413C898.3,11,876,33.3,876,60.5v50.4c21.1,10.9,39.1,23.6,56.1,35.6
	c38.6,27.1,75.1,52.7,137.6,52.7c62.8,0,103.6-36.2,146.7-74.6c23.9-21.2,48.5-43.2,77.9-59.9c27.9-15.9,56.7-25,87.7-27.7
	C1373.7,21.6,1357.3,11,1338.5,11z"/>
<path class="st2" d="M940,274.1L940,274.1l-0.1,83c22.6-0.1,41.2-18.5,41.3-41C981.3,293.1,962.8,274.2,940,274.1z"/>
<path class="st3" d="M899.7,315.4c-0.1,23,18.4,41.6,41.4,41.7c0.1,0,0.2,0,0.3,0v-83C918.4,274,899.8,292.5,899.7,315.4z"/>
<path class="st2" d="M1060.9,276.1L1060.9,276.1l-0.1,83c22.6-0.1,41.2-18.5,41.3-41C1102.2,295.1,1083.7,276.2,1060.9,276.1z"/>
<path class="st3" d="M1020.6,317.4c-0.1,23,18.4,41.6,41.4,41.7c0.1,0,0.2,0,0.3,0v-83C1039.3,276,1020.7,294.5,1020.6,317.4z"/>
</svg>
