<?xml version="1.0" encoding="utf-8"?>
<!-- Generator: Adobe Illustrator 19.0.0, SVG Export Plug-In . SVG Version: 6.00 Build 0)  -->
<svg version="1.1" id="Layer_1" xmlns="http://www.w3.org/2000/svg" xmlns:xlink="http://www.w3.org/1999/xlink" x="0px" y="0px"
	 viewBox="96 11 512 512" style="enable-background:new 96 11 512 512;" xml:space="preserve">
<style type="text/css">
	.st0{display:none;}
	.st1{display:inline;}
	.st2{fill:#FFFFFF;}
	.st3{fill:#F0353D;}
	.st4{fill:#BCD643;}
	.st5{fill:#687F82;}
	.st6{fill:#9BAAAB;}
</style>
<g id="Layer_3" class="st0">
	<rect x="1203" y="-95" class="st1" width="512" height="512.8"/>
</g>
<path class="st2" d="M2702.5-727.3h-413c-27.2,0-49.5-22.3-49.5-49.5v-413c0-27.2,22.3-49.5,49.5-49.5h413
	c27.2,0,49.5,22.3,49.5,49.5v413C2752-749.6,2729.7-727.3,2702.5-727.3z"/>
<g id="Layer_5" class="st0">
</g>
<path class="st0" d="M1566.7,410.9c14.8,10,91.3-43,127.1-33c56.6,16,111.1,61.5,119.3,138.8c7,65.9,6.5,166.1,32.3,221.2
	c38.7,82.7,122.8,89.5,185.8,75.5c26.3-5.9,32.1-21.3,32.1-21.3v-12.8c0,0-22.6,18.5-86.4,10.6c-35.7-4.4-81-12.4-109.7-59.6
	c-42.4-69.7-39.1-164.6-43.4-213.6c-6.7-74.6-52.8-158.4-130-164.8S1566.7,410.9,1566.7,410.9z"/>
<path class="st3" d="M2733.1-945.1c-10.5,0-30.3,0-40.7,0c0,35,0,154.2,0,189.1c11,0,30.9,0,40.7,0
	C2733.1-791.2,2733.1-910.4,2733.1-945.1z"/>
<path class="st3" d="M2672.1-945.1c-10.5,0-30.3,0-40.7,0c0,35,0,114.2,0,149.1c11,0,30.9,0,40.7,0
	C2672.1-831.2,2672.1-910.4,2672.1-945.1z"/>
<path class="st3" d="M2611.1-945.1c-10.5,0-30.3,0-40.7,0c0,35,0,54.2,0,89.1c11,0,30.9,0,40.7,0
	C2611.1-891.2,2611.1-910.4,2611.1-945.1z"/>
<path class="st3" d="M2509.3-945.1c0,35,0-5.8,0,29.1c11,0,30.9,0,40.7,0c0-35.2,0,5.7,0-29.1"/>
<path class="st4" d="M2303.5-1210.7c-10.5,0-30.3,0-40.7,0c0,35,0,184.2,0,219.1c11,0,30.9,0,40.7,0
	C2303.5-1026.8,2303.5-1175.9,2303.5-1210.7z"/>
<path class="st4" d="M2364.3-1180.7c-10.5,0-30.3,0-40.7,0c0,35,0,154.2,0,189.1c11,0,30.9,0,40.7,0
	C2364.3-1026.8,2364.3-1145.9,2364.3-1180.7z"/>
<path class="st4" d="M2425-1120.7c-10.5,0-30.3,0-40.7,0c0,35,0,94.2,0,129.1c11,0,30.9,0,40.7,0
	C2425-1026.8,2425-1085.9,2425-1120.7z"/>
<path class="st4" d="M2485.8-1050.7c-10.5,0-30.3,0-40.7,0c0,35,0,24.2,0,59.1c11,0,30.9,0,40.7,0
	C2485.8-1026.8,2485.8-1015.9,2485.8-1050.7z"/>
<rect x="2241" y="-977.6" class="st5" width="257.4" height="18.5"/>
<rect x="2498.5" y="-977.6" class="st6" width="254.5" height="18.5"/>
<path class="st3" d="M817,331.6c-20.9,0-60.4,0-81.2,0c0,69.8,0,307.5,0,377.1c21.9,0,61.6,0,81.2,0C817,638.6,817,400.8,817,331.6z
	"/>
<path class="st3" d="M695.4,331.6c-20.9,0-60.4,0-81.2,0c0,69.8,0,227.7,0,297.3c21.9,0,61.6,0,81.2,0
	C695.4,558.8,695.4,400.8,695.4,331.6z"/>
<path class="st3" d="M593.8,331.6c-20.9,0-80.4,0-101.2,0c0,69.8,0,108.1,0,177.7c21.9,0,81.6,0,101.2,0
	C593.8,439.1,593.8,400.8,593.8,331.6z"/>
<path class="st3" d="M370.7,331.6c0,69.8,0-11.6,0,58c21.9,0,81.6,0,101.2,0c0-70.2,0,11.4,0-58"/>
<path class="st4" d="M-39.7-198c-20.9,0-60.4,0-81.2,0c0,69.8,0,367.3,0,436.9c21.9,0,61.6,0,81.2,0
	C-39.7,168.7-39.7-128.6-39.7-198z"/>
<path class="st4" d="M81.6-138.2c-20.9,0-60.4,0-81.2,0c0,69.8,0,307.5,0,377.1c21.9,0,61.6,0,81.2,0
	C81.6,168.7,81.6-68.8,81.6-138.2z"/>
<path class="st4" d="M222.6,11c-20.9,0-80.4,0-101.2,0c0,61.8,0,166.3,0,227.9c21.9,0,81.6,0,101.2,0
	C222.6,176.8,222.6,72.4,222.6,11z"/>
<path class="st4" d="M343.9,121.1c-20.9,0-80.4,0-101.2,0c0,69.8,0,48.3,0,117.9c21.9,0,81.6,0,101.2,0
	C343.9,168.7,343.9,190.5,343.9,121.1z"/>
<rect x="96" y="256.8" class="st5" width="257.4" height="56.9"/>
<rect x="353.5" y="256.8" class="st6" width="254.5" height="56.9"/>
</svg>
