<?xml version="1.0" encoding="utf-8"?>
<!-- Generator: Adobe Illustrator 19.0.0, SVG Export Plug-In . SVG Version: 6.00 Build 0)  -->
<svg version="1.1" id="Layer_1" xmlns="http://www.w3.org/2000/svg" xmlns:xlink="http://www.w3.org/1999/xlink" x="0px" y="0px"
	 viewBox="96 11 512 512" style="enable-background:new 96 11 512 512;" xml:space="preserve">
<style type="text/css">
	.st0{display:none;}
	.st1{display:inline;}
	.st2{fill:#FFFFFF;}
	.st3{fill:none;stroke:#CDD4D5;stroke-width:11;stroke-miterlimit:10;}
	.st4{fill:#F0353D;}
	.st5{fill:#BCD643;}
	.st6{fill:#0295AA;}
	.st7{fill:#9BAAAB;}
	.st8{fill:#FF8C29;}
	.st9{fill:none;stroke:#CDD4D5;stroke-width:30;stroke-miterlimit:10;}
</style>
<g id="Layer_3" class="st0">
	<rect x="398" y="-184" class="st1" width="512" height="512.8"/>
</g>
<g id="Layer_5" class="st0">
</g>
<path class="st0" d="M199.7,103.6c14.8,10,91.3-43,127.1-33c56.6,16,111.1,61.5,119.3,138.8c7,65.9,6.5,166.1,32.3,221.2
	c38.7,82.7,122.8,89.5,185.8,75.5c26.3-5.9,32.1-21.3,32.1-21.3V472c0,0-22.6,18.5-86.4,10.6c-35.7-4.4-81-12.4-109.7-59.6
	c-42.4-69.7-39.1-164.6-43.4-213.6C450.1,134.8,404,51,326.8,44.6S199.7,103.6,199.7,103.6z"/>
<path class="st2" d="M1936,518h-413c-27.2,0-49.5-22.3-49.5-49.5v-413c0-27.2,22.3-49.5,49.5-49.5h413c27.2,0,49.5,22.3,49.5,49.5
	v413C1985.5,495.7,1963.2,518,1936,518z"/>
<line class="st3" x1="1509.9" y1="86.3" x2="1509.9" y2="242.3"/>
<line class="st3" x1="1570.6" y1="246.3" x2="1570.6" y2="295.3"/>
<line class="st3" x1="1632.5" y1="222.3" x2="1632.5" y2="384.3"/>
<line class="st3" x1="1693.2" y1="334.3" x2="1693.2" y2="384.3"/>
<line class="st3" x1="1753.9" y1="384.3" x2="1753.9" y2="275.3"/>
<line class="st3" x1="1814.6" y1="287.3" x2="1814.6" y2="384.3"/>
<line class="st3" x1="1875.3" y1="384.3" x2="1875.3" y2="215.3"/>
<line class="st3" x1="1936" y1="238.3" x2="1936" y2="384.3"/>
<path class="st4" d="M1550.2,246.3c11,0,30.9,0,40.7,0c0-35.2,0-84.4,0-119.1c-10.5,0-30.3,0-40.7,0
	C1550.2,162.1,1550.2,211.3,1550.2,246.3z"/>
<path class="st4" d="M1612.1,355.5c11,0,30.9,0,40.7,0c0-35.2,0-74.4,0-109.1c-10.5,0-30.3,0-40.7,0
	C1612.1,281.3,1612.1,320.5,1612.1,355.5z"/>
<path class="st4" d="M1915.6,354.5c11,0,30.9,0,40.7,0c0-35.2,0-54.4,0-89.1c-10.5,0-30.3,0-40.7,0
	C1915.6,300.5,1915.6,319.7,1915.6,354.5z"/>
<path class="st4" d="M1794.2,374.5c11,0,30.9,0,40.7,0c0-35.2,0-24.4,0-59.1c-10.5,0-30.3,0-40.7,0
	C1794.2,350.5,1794.2,339.7,1794.2,374.5z"/>
<path class="st4" d="M1672.8,361.6c0,5,0,6.7,0,6.8c0,1.7,0,3.7,0,6.1c11,0,30.9,0,40.7,0c0-2.5,0-4.6,0-6.3c0-5,0-6.8,0-6.8
	c0-1.6,0-3.6,0-6h-40.7C1672.8,357.9,1672.8,359.9,1672.8,361.6z"/>
<path class="st5" d="M1489.5,215.3c11,0,30.9,0,40.7,0c0-35.2,0-54.3,0-89.1c-10.5,0-30.3,0-40.7,0
	C1489.5,161.1,1489.5,180.3,1489.5,215.3z"/>
<path class="st5" d="M1854.9,374.5c11,0,30.9,0,40.7,0c0-35.2,0-74.3,0-109.1c-10.5,0-30.3,0-40.7,0
	C1854.9,300.5,1854.9,339.7,1854.9,374.5z"/>
<path class="st5" d="M1733.5,374.5c11,0,30.9,0,40.7,0c0-35.2,0-24.3,0-59.1c-10.5,0-30.3,0-40.7,0
	C1733.5,350.5,1733.5,339.7,1733.5,374.5z"/>
<rect x="1714" y="394.3" class="st6" width="95.6" height="123.8"/>
<path class="st7" d="M1473.5,394.3v74.3c0,27.2,22.3,49.5,49.5,49.5h191V394.3H1473.5z"/>
<rect x="1809.6" y="394.3" class="st8" width="95.6" height="123.8"/>
<path class="st4" d="M1905.1,518h30.9c27.2,0,49.5-22.3,49.5-49.5v-74.3h-80.4V518z"/>
<line class="st3" x1="-288.2" y1="-176.9" x2="-288.2" y2="76"/>
<line class="st3" x1="-156.9" y1="82.5" x2="-156.9" y2="161.9"/>
<line class="st3" x1="-22.9" y1="43.6" x2="-22.9" y2="306.2"/>
<line class="st9" x1="185.8" y1="306.2" x2="185.8" y2="129.5"/>
<line class="st9" x1="342.9" y1="148.9" x2="342.9" y2="306.2"/>
<line class="st9" x1="499.9" y1="306.2" x2="499.9" y2="32.2"/>
<path class="st4" d="M-201,82.5c23.8,0,66.9,0,88.1,0c0-57.1,0-136.8,0-193.1c-22.7,0-65.6,0-88.1,0C-201-53.9-201,25.9-201,82.5z"
	/>
<path class="st4" d="M-67.1,259.5c23.8,0,66.9,0,88.1,0c0-57.1,0-120.6,0-176.9c-22.7,0-65.6,0-88.1,0
	C-67.1,139.4-67.1,202.9-67.1,259.5z"/>
<path class="st4" d="M290.1,290.5c28.5,0,80,0,105.3,0c0-57.1,0-39.6,0-95.8c-27.2,0-78.4,0-105.3,0
	C290.1,251.4,290.1,233.9,290.1,290.5z"/>
<path class="st5" d="M-332.4,32.2c23.8,0,66.9,0,88.1,0c0-57.1,0-88,0-144.4c-22.7,0-65.6,0-88.1,0
	C-332.4-55.5-332.4-24.4-332.4,32.2z"/>
<path class="st5" d="M447.1,290.5c28.5,0,80,0,105.3,0c0-57.1,0-120.4,0-176.9c-27.2,0-78.4,0-105.3,0
	C447.1,170.3,447.1,233.9,447.1,290.5z"/>
<path class="st5" d="M133,290.5c28.5,0,80,0,105.3,0c0-57.1,0-39.4,0-95.8c-27.2,0-78.4,0-105.3,0C133,251.4,133,233.9,133,290.5z"
	/>
<rect x="153.5" y="322.4" class="st6" width="206.9" height="200.6"/>
<path class="st7" d="M-367,322.4v120.4c0,44.1,48.2,80.2,107.1,80.2h413.3V322.4H-367z"/>
<rect x="360.3" y="322.4" class="st8" width="206.9" height="200.6"/>
<path class="st4" d="M567,523h66.9c58.9,0,107.1-36.1,107.1-80.2V322.4H567V523z"/>
</svg>
