<?xml version="1.0" encoding="utf-8"?>
<!-- Generator: Adobe Illustrator 19.0.0, SVG Export Plug-In . SVG Version: 6.00 Build 0)  -->
<svg version="1.1" id="Layer_1" xmlns="http://www.w3.org/2000/svg" xmlns:xlink="http://www.w3.org/1999/xlink" x="0px" y="0px"
	 viewBox="96 11 512 512" style="enable-background:new 96 11 512 512;" xml:space="preserve">
<style type="text/css">
	.st0{fill:#FD6A33;}
	.st1{fill:#F0353D;}
	.st2{fill:#4ACFD9;}
	.st3{fill:#0295AA;}
	.st4{fill:#FFD1A9;}
	.st5{fill:#687F82;}
	.st6{fill:#365558;}
	.st7{fill:#CDD4D5;}
	.st8{fill:#9BAAAB;}
	.st9{fill:#FFFFFF;}
</style>
<g>
	<path class="st0" d="M401.7,98.5c-2.1-2.1-4.9-3.3-7.9-3.3s-5.8,1.2-7.9,3.3L129.3,356.6c-2.1,2.1-3.3,4.9-3.3,7.9s1.2,5.8,3.3,7.9
		l118,117.4c2.1,2.1,4.9,3.3,7.9,3.3c3,0,5.8-1.2,7.9-3.3l256.8-258c2.2-2.2,3.3-5.1,3.3-7.9s-1-5.6-3.3-7.9L401.7,98.5z"/>
	<path class="st1" d="M460.2,156.8L187.8,430.6l59.6,59.3c2.1,2.1,4.9,3.3,7.9,3.3s5.8-1.2,7.9-3.3l256.6-258.1
		c2.2-2.2,3.3-5.1,3.3-7.9s-1-5.6-3.3-7.9L460.2,156.8z"/>
	<path class="st2" d="M439.7,136.3c-2.1-2.1-4.9-3.3-7.9-3.3s-5.8,1.2-7.9,3.3L167.2,394.4c-4.3,4.3-4.3,11.4,0,15.8l42.2,41.9
		c2.1,2.1,4.9,3.3,7.9,3.3s5.8-1.2,7.9-3.3l256.8-258c2.2-2.2,3.3-5.1,3.3-7.9s-1-5.6-3.3-7.9L439.7,136.3z"/>
	<path class="st3" d="M460.2,156.8L187.8,430.6l21.5,21.5c2.1,2.1,4.9,3.3,7.9,3.3s5.8-1.2,7.9-3.3L481.9,194
		c2.2-2.2,3.3-5.1,3.3-7.9s-1-5.6-3.3-7.9L460.2,156.8z"/>
	<g>
		<path class="st4" d="M97.2,509.7c-0.7,3.7,0.4,7.4,3.1,10.1c2.7,2.7,6.4,3.7,10.1,3l147.1-29.9L126.3,362.4L97.2,509.7z"/>
		<path class="st4" d="M99.7,519.2c0.1,0.1,0.3,0.3,0.4,0.6c2.7,2.7,6.4,3.7,10.1,3l147.1-29.9l-66.1-65.8L99.7,519.2z"/>
	</g>
	<path class="st5" d="M97.2,509.7c-0.7,3.7,0.4,7.4,3.1,10.1c2.7,2.7,6.4,3.7,10.1,3l63-12.8l-63.7-63.5L97.2,509.7z"/>
	<path class="st6" d="M99.7,519.2c0.1,0.1,0.3,0.3,0.4,0.6c2.7,2.7,6.4,3.7,10.1,3l63-12.8l-32.4-32.2L99.7,519.2z"/>
	<path class="st7" d="M607,139.5c0-2.8-1-5.6-3.3-7.9l-118-117.4c-2.1-2.1-4.9-3.3-7.9-3.3s-5.8,1.2-7.9,3.3l-60.3,60.6l125.9,125.3
		c2.7,2.7,4.9,5.8,6.5,9.2l61.7-62C605.8,145.3,607,142.4,607,139.5z"/>
	<path class="st7" d="M409.5,74.9l-23.6,23.8l133.9,133.1l22.3-22.3c-1.6-3.4-3.9-6.5-6.5-9.2L409.5,74.9z"/>
	<path class="st8" d="M607,139.5c0-2.8-1-5.6-3.3-7.9l-59.6-59.3L476,140.9l59.6,59.3c2.7,2.7,4.9,5.8,6.5,9.2l61.7-62
		C605.8,145.3,607,142.4,607,139.5z"/>
	<path class="st8" d="M476,141l-23.6,23.8l67.5,67.2l22.3-22.3c-1.6-3.4-3.9-6.5-6.5-9.2L476,141z"/>
	<path class="st9" d="M459.9,119.3l29.7-29.9c2.2-2.2,3.3-5.1,3.3-7.9s-1-5.6-3.3-7.9c-4.3-4.3-11.4-4.3-15.8,0l-29.7,29.9
		c-1,1-1.8,2.2-2.4,3.4l14.7,14.7C457.7,121.1,458.9,120.2,459.9,119.3z"/>
	<path class="st9" d="M444.2,119.3c3.4,3.3,8.3,4.2,12.3,2.2l-14.7-14.7C440,111,440.7,115.9,444.2,119.3z"/>
</g>
</svg>
