<?xml version="1.0" encoding="utf-8"?>
<!-- Generator: Adobe Illustrator 19.0.0, SVG Export Plug-In . SVG Version: 6.00 Build 0)  -->
<svg version="1.1" id="Layer_1" xmlns="http://www.w3.org/2000/svg" xmlns:xlink="http://www.w3.org/1999/xlink" x="0px" y="0px"
	 viewBox="96 11 512 512" style="enable-background:new 96 11 512 512;" xml:space="preserve">
<style type="text/css">
	.st0{fill:#9BAAAB;}
	.st1{fill:#BCD643;}
	.st2{fill:#F0353D;}
</style>
<g>
	<path class="st0" d="M340.4,334.9L340.4,334.9L340.4,334.9c-5,3.8-11.1,6.1-17.8,6.1c-16,0-29.3-13.1-29.3-29.3v-45.4h-28.1
		c-13.6,0-24.7,11.1-24.7,24.7v92.3c0,13.6,11.1,24.7,24.7,24.7H302h18.8H352v-84.7l-6.3,6.2C344.2,331.6,342.4,333.4,340.4,334.9z"
		/>
	<path class="st1" d="M352,11C210.6,11,96,125.6,96,267s114.6,256,256,256v-72.4h-31.2H302h-36.8c-37.1,0-67.3-30.2-67.3-67.3V291
		c-0.1-17.9,6.9-34.8,19.6-47.5c12.7-12.8,29.7-19.8,47.7-19.8h28.1v-74.4c0-16,13.1-29.3,29.3-29.3c16,0,29.3,13.1,29.3,29.3v74.3
		h0.1V11z"/>
	<path class="st2" d="M340.4,334.9C340.3,334.9,340.3,334.9,340.4,334.9L340.4,334.9L340.4,334.9z"/>
	<path class="st2" d="M350.2,321.4c0,0.1-0.1,0.2-0.1,0.2C350.2,321.6,350.2,321.5,350.2,321.4z"/>
	<path class="st2" d="M347,327.8L347,327.8L347,327.8z"/>
	<path class="st2" d="M349.3,323.7c0,0,0,0.1-0.1,0.1C349.3,323.8,349.3,323.7,349.3,323.7z"/>
	<path class="st0" d="M356.3,319l-4.3,4.3V408h5.6c13.6,0,24.7-11.1,24.7-24.7V293L356.3,319z"/>
	<path class="st1" d="M352,11v212.8h4.3l0,0h1.3c3.5,0,7,0.3,10.5,0.8l0,0l123.2-123.2c11.3-11.3,30.1-11.3,41.3,0
		c11.3,11.3,11.3,30.1,0,41.3l-116,116c5.4,9.8,8.2,20.9,8.2,32.4v92.3c0,37.1-30.2,67.3-67.3,67.3H352V523
		c141.4,0,256-114.6,256-256S493.4,11,352,11z"/>
	<polygon class="st2" points="352,223.8 356.3,223.8 356.3,223.8 	"/>
</g>
</svg>
