<?xml version="1.0" encoding="utf-8"?>
<!-- Generator: Adobe Illustrator 19.0.0, SVG Export Plug-In . SVG Version: 6.00 Build 0)  -->
<svg version="1.1" id="Layer_1" xmlns="http://www.w3.org/2000/svg" xmlns:xlink="http://www.w3.org/1999/xlink" x="0px" y="0px"
	 viewBox="96 11 512 512" style="enable-background:new 96 11 512 512;" xml:space="preserve">
<style type="text/css">
	.st0{fill:#9BAAAB;}
	.st1{fill:#687F82;}
	.st2{fill:#FD6A33;}
	.st3{fill:#F0353D;}
	.st4{fill:#FFBA7E;}
	.st5{fill:#FF8C29;}
	.st6{fill:#CDD4D5;}
	.st7{fill:#4ACFD9;}
	.st8{fill:#0295AA;}
	.st9{fill:#365558;}
	.st10{fill:#FFFFFF;}
</style>
<g>
	<g>
		<path class="st0" d="M217.2,77.5h-60.8c-4.5,0-8.1,3.6-8.1,8.1v43.5c0,4.5,3.6,8.1,8.1,8.1h60.8c4.5,0,8.1-3.6,8.1-8.1V85.6
			C225.4,81.2,221.7,77.5,217.2,77.5z"/>
		<path class="st0" d="M438.3,127.8l-13.1-82.6c-0.6-4-4.1-6.9-8-6.9H286.8c-4.1,0-7.4,2.9-8,6.9l-13.1,82.6
			c-0.4,2.3,0.3,4.8,1.8,6.6s3.9,2.8,6.2,2.8h156.5c2.4,0,4.7-1,6.2-2.8C438,132.6,438.7,130.3,438.3,127.8z"/>
	</g>
	<path class="st1" d="M286.8,38.4c-4.1,0-7.4,2.9-8,6.9l-13.1,82.6c-0.4,2.3,0.3,4.8,1.8,6.6s3.9,2.8,6.2,2.8H352v-99L286.8,38.4
		L286.8,38.4z"/>
	<path class="st2" d="M599.9,137H104.1c-4.5,0-8.1,3.6-8.1,8.1v369.7c0,4.5,3.6,8.1,8.1,8.1h495.7c4.5,0,8.1-3.6,8.1-8.1V145.1
		C608,140.7,604.4,137,599.9,137z"/>
	<path class="st3" d="M104.1,137c-4.5,0-8.1,3.6-8.1,8.1v369.7c0,4.5,3.6,8.1,8.1,8.1H352V137H104.1z"/>
	<path class="st4" d="M599.9,137H104.1c-4.5,0-8.1,3.6-8.1,8.1v99.5h512v-99.5C608,140.7,604.4,137,599.9,137z"/>
	<path class="st5" d="M104.1,137c-4.5,0-8.1,3.6-8.1,8.1v99.5h256V137H104.1z"/>
	<path class="st6" d="M237.6,397.4c-24.4,0-44.3,19.9-44.3,44.3s19.9,44.3,44.3,44.3s44.3-19.9,44.3-44.3S261.9,397.4,237.6,397.4z"
		/>
	<path class="st7" d="M352.3,177.9c-84.9,0-154,69.1-154,154s69.1,154,154,154s154-69.1,154-154S437.2,177.9,352.3,177.9z"/>
	<path class="st8" d="M198.3,331.9c0,84.9,69.1,154,154,154v-308C267.4,177.9,198.3,247,198.3,331.9z"/>
	<path class="st0" d="M352.3,227.8c-57.5,0-104.1,46.8-104.1,104.1S295,436,352.3,436s104.1-46.8,104.1-104.1
		S409.8,227.8,352.3,227.8z"/>
	<path class="st9" d="M248.2,331.9c0,57.5,46.8,104.1,104.1,104.1V227.8C294.9,227.8,248.2,274.5,248.2,331.9z"/>
	<path class="st10" d="M378.3,391.2c-1.4-1-2.7-2.3-3.8-3.7c-6.6-8.3-5.3-20.3,3-27.1c2.7-2.2,5.1-4.7,7-7.4
		c12.4-16.9,8.7-40.8-8.3-53.2c-8.6-6.3-10.5-18.4-4.2-27s18.4-10.5,27-4.2c34.2,25,41.7,73.1,16.7,107.3
		c-3.9,5.3-8.6,10.2-13.9,14.6C395.1,396.1,385.4,396.4,378.3,391.2z"/>
	<polygon class="st10" points="299.2,108.4 305.4,69.3 398.6,69.3 404.8,108.4 	"/>
	<g>
		<path class="st3" d="M524.5,83.1h-37c-4.9,0-8.9-4-8.9-8.9s4-8.9,8.9-8.9h37.2c4.9,0,8.9,4,8.9,8.9
			C533.5,79.1,529.5,83.1,524.5,83.1z"/>
		<path class="st3" d="M500.7,137c-2.3,0-4.6-0.9-6.3-2.7l-23.6-23.6c-3.4-3.4-3.4-9.1,0-12.7c3.4-3.4,9.1-3.4,12.7,0l23.6,23.6
			c3.4,3.4,3.4,9.1,0,12.7C505.2,136.1,502.9,137,500.7,137z"/>
		<path class="st3" d="M477.3,52.7c-2.3,0-4.6-0.9-6.3-2.7c-3.4-3.4-3.4-9.1,0-12.7l23.6-23.6c3.4-3.4,9.1-3.4,12.7,0
			c3.4,3.4,3.4,9.1,0,12.7l-23.7,23.7C481.9,51.8,479.5,52.7,477.3,52.7z"/>
	</g>
</g>
</svg>
