<?xml version="1.0" encoding="utf-8"?>
<!-- Generator: Adobe Illustrator 19.0.0, SVG Export Plug-In . SVG Version: 6.00 Build 0)  -->
<svg version="1.1" id="Layer_1" xmlns="http://www.w3.org/2000/svg" xmlns:xlink="http://www.w3.org/1999/xlink" x="0px" y="0px"
	 viewBox="96 11 512 512" style="enable-background:new 96 11 512 512;" xml:space="preserve">
<style type="text/css">
	.st0{fill:#0295AA;}
	.st1{fill:#365558;}
	.st2{fill:none;}
	.st3{fill:#4ACFD9;}
</style>
<g>
	<path class="st0" d="M584.8,476.2H352V523h232.6c12.9,0,23.4-10.5,23.4-23.4C608,486.8,597.8,476.5,584.8,476.2z"/>
	<path class="st1" d="M119.4,476.2c-12.9,0-23.4,10.5-23.4,23.4s10.5,23.4,23.4,23.4H352v-46.8H119.4z"/>
	<path class="st0" d="M584.8,11H352v46.8h232.6c12.9,0,23.4-10.5,23.4-23.4C608,21.6,597.8,11.3,584.8,11z"/>
	<path class="st1" d="M119.4,11C106.5,11,96,21.5,96,34.4s10.5,23.4,23.4,23.4H352V11H119.4z"/>
	<path class="st0" d="M321.7,295.2H209.4v110.4h-61.1V134.5h61.1v108.1h112.3V134.5H352v-37H112.3c-8.9,0-16.3,7.3-16.3,16.3v306.5
		c0,8.9,7.3,16.3,16.3,16.3H352v-30.9h-30.3V295.2z"/>
	<polygon class="st2" points="383,405.6 321.7,405.6 321.7,295.2 209.4,295.2 209.4,405.6 148.4,405.6 148.4,134.5 209.4,134.5 
		209.4,242.6 321.7,242.6 321.7,134.5 383,134.5 	"/>
	<polygon class="st2" points="383,405.6 321.7,405.6 321.7,295.2 209.4,295.2 209.4,405.6 148.4,405.6 148.4,134.5 209.4,134.5 
		209.4,242.6 321.7,242.6 321.7,134.5 383,134.5 	"/>
	<path class="st2" d="M560.4,128.4v277.1h-59.5V195.7c-3.3,2.9-7.2,5.6-11.6,8.2c-4.5,2.6-9.2,4.9-14.3,7c-5,2.1-10.3,3.8-15.7,5.3
		c-5.4,1.5-10.8,2.5-16.1,3.1V169c15.5-4.5,30.1-10.3,43.9-17.4c13.7-7.1,26.2-14.8,37.2-23.3L560.4,128.4L560.4,128.4z"/>
	<path class="st2" d="M560.4,128.4v277.1h-59.5V195.7c-3.3,2.9-7.2,5.6-11.6,8.2c-4.5,2.6-9.2,4.9-14.3,7c-5,2.1-10.3,3.8-15.7,5.3
		c-5.4,1.5-10.8,2.5-16.1,3.1V169c15.5-4.5,30.1-10.3,43.9-17.4c13.7-7.1,26.2-14.8,37.2-23.3L560.4,128.4L560.4,128.4z"/>
	<path class="st3" d="M591.8,97.5H352v37h31v271.1h-31v30.9h239.8c8.9,0,16.3-7.3,16.3-16.3V113.8C608,104.8,600.7,97.5,591.8,97.5z
		 M560.4,405.6h-59.5V195.7c-3.3,2.9-7.2,5.6-11.6,8.2c-4.5,2.6-9.2,4.9-14.3,7c-5,2.1-10.3,3.8-15.7,5.3
		c-5.4,1.5-10.8,2.5-16.1,3.1V169c15.5-4.5,30.1-10.3,43.9-17.4c13.7-7.1,26.2-14.8,37.2-23.3h36.1L560.4,405.6L560.4,405.6z"/>
</g>
</svg>
