<?xml version="1.0" encoding="utf-8"?>
<!-- Generator: Adobe Illustrator 19.0.0, SVG Export Plug-In . SVG Version: 6.00 Build 0)  -->
<svg version="1.1" id="Layer_1" xmlns="http://www.w3.org/2000/svg" xmlns:xlink="http://www.w3.org/1999/xlink" x="0px" y="0px"
	 viewBox="96 11 512 512" style="enable-background:new 96 11 512 512;" xml:space="preserve">
<style type="text/css">
	.st0{fill:#FF8C29;}
	.st1{fill:#FD6A33;}
	.st2{fill:#F0353D;}
	.st3{fill:none;}
</style>
<g>
	<path class="st0" d="M596,97.5H351.8v153.4l29,81.6h-29v104H596c6.6,0,12-5.4,12-12v-315C608,102.9,602.6,97.5,596,97.5z
		 M497.7,319.2c-9,11.2-21.1,16.8-36.2,16.8c-13.6,0-24-5.2-31-15.6h-0.4v12.9h-34.2V169.1h34.2v70h0.4
		c8.4-12.9,20.5-19.4,36.1-19.4c14.3,0,25.3,4.9,33,14.7s11.6,23.3,11.6,40.3C511.3,293.2,506.7,308.1,497.7,319.2z M584.6,166.3
		L584.6,166.3h-12.7c-3.4,0-6.2,2.8-6.2,6.2v171.2c0,3.7,3,6.6,6.6,6.6h12.2v17.8H545h-17.8v-17.8h10.3c3.7,0,6.8-3,6.8-6.8V172.1
		c0-3.2-2.6-5.8-5.8-5.8h-11.2v-17.8H545h39.6V166.3z"/>
	<path class="st0" d="M453.4,245.9c-6.9,0-12.5,2.6-17.1,7.7c-4.5,5.1-6.8,11.8-6.8,20V285c0,7.1,2.1,13.1,6.2,17.8
		c4.1,4.7,9.4,7,15.8,7c7.8,0,13.8-3,18.1-9c4.3-6,6.4-14.6,6.4-25.6c0-9.2-2-16.3-5.9-21.5C466.3,248.5,460.7,245.9,453.4,245.9z"
		/>
	<g>
		<path class="st1" d="M584.8,476.2H352V523h232.6c12.9,0,23.4-10.5,23.4-23.4C608,486.8,597.8,476.5,584.8,476.2z"/>
		<path class="st2" d="M119.4,476.2c-12.9,0-23.4,10.5-23.4,23.4s10.5,23.4,23.4,23.4H352v-46.8H119.4z"/>
	</g>
	<g>
		<path class="st1" d="M584.8,11H352v46.8h232.6c12.9,0,23.4-10.5,23.4-23.4C608,21.6,597.8,11.3,584.8,11z"/>
		<path class="st2" d="M119.4,11C106.5,11,96,21.5,96,34.4s10.5,23.4,23.4,23.4H352V11H119.4z"/>
	</g>
	<path class="st3" d="M165.4,281.5c-8.4,0-15.4-2.6-21-7.7c-5.6-5.2-8.4-11.5-8.4-19.1c0-7.7,2.9-14.1,8.6-19.1
		c5.8-4.9,12.9-7.4,21.6-7.4c8.7,0,15.8,2.5,21.4,7.5c5.5,5,8.3,11.3,8.3,19c0,7.9-2.8,14.3-8.5,19.3
		C181.8,279,174.4,281.5,165.4,281.5z"/>
	<path class="st3" d="M165.4,281.5c-8.4,0-15.4-2.6-21-7.7c-5.6-5.2-8.4-11.5-8.4-19.1c0-7.7,2.9-14.1,8.6-19.1
		c5.8-4.9,12.9-7.4,21.6-7.4c8.7,0,15.8,2.5,21.4,7.5c5.5,5,8.3,11.3,8.3,19c0,7.9-2.8,14.3-8.5,19.3
		C181.8,279,174.4,281.5,165.4,281.5z"/>
	<path class="st1" d="M352.2,252V97.5H108c-6.6,0-12,5.4-12,12v315c0,6.6,5.4,12,12,12h244.2v-104h-9.5l-11-34.6h-55.2l-10.9,34.6
		h-37.9l56.5-155.3h41.5L352.2,252z M187.4,274c-5.7,5-13,7.5-22,7.5c-8.4,0-15.4-2.6-21-7.7c-5.6-5.2-8.4-11.5-8.4-19.1
		c0-7.7,2.9-14.1,8.6-19.1c5.8-4.9,12.9-7.4,21.6-7.4c8.7,0,15.8,2.5,21.4,7.5c5.5,5,8.3,11.3,8.3,19
		C195.9,262.5,193.1,269,187.4,274z"/>
	<path class="st1" d="M304.4,204.9h-0.9c-0.4,4.5-1.3,9.1-2.7,13.5L283.9,271h39.8L307,218.9C305.7,215,304.9,210.3,304.4,204.9z"/>
</g>
</svg>
