<svg id="Layer_1" data-name="Layer 1" xmlns="http://www.w3.org/2000/svg" viewBox="0 0 792 366"><defs><style>.cls-1{font-size:14.28px;font-family:Saira-SemiBold, Saira;letter-spacing:0.1em;}.cls-1,.cls-23,.cls-28,.cls-46,.cls-65,.cls-70,.cls-76,.cls-88{fill:#666;}.cls-1,.cls-89,.cls-90,.cls-91,.cls-92{font-weight:700;}.cls-2{letter-spacing:0.05em;}.cls-3{letter-spacing:-0.03em;}.cls-4{letter-spacing:0.05em;}.cls-5{letter-spacing:0.04em;}.cls-6{letter-spacing:0.05em;}.cls-7{letter-spacing:0.05em;}.cls-8{letter-spacing:0.04em;}.cls-9{letter-spacing:0.05em;}.cls-10{letter-spacing:0.05em;}.cls-11{letter-spacing:0.05em;}.cls-12{letter-spacing:0.06em;}.cls-13{letter-spacing:0.04em;}.cls-14{letter-spacing:0.03em;}.cls-15{letter-spacing:0.04em;}.cls-16{letter-spacing:0.04em;}.cls-17{letter-spacing:0.07em;}.cls-18{letter-spacing:0.04em;}.cls-19{letter-spacing:0.05em;}.cls-20{letter-spacing:0.05em;}.cls-21{letter-spacing:0.05em;}.cls-22,.cls-93,.cls-94,.cls-95,.cls-96,.cls-97,.cls-98{fill:none;stroke:#666;stroke-miterlimit:10;}.cls-23,.cls-28,.cls-46,.cls-65,.cls-70,.cls-76,.cls-89,.cls-90,.cls-91,.cls-92{font-size:12px;}.cls-23,.cls-76{font-family:SairaExtraCondensed-Light, Saira ExtraCondensed;}.cls-23{letter-spacing:0.05em;}.cls-24{letter-spacing:0.06em;}.cls-25{letter-spacing:0.06em;}.cls-26{letter-spacing:0.05em;}.cls-27,.cls-76,.cls-89{letter-spacing:0.05em;}.cls-28,.cls-46,.cls-65,.cls-70{font-family:SairaExtraCondensed-Medium, Saira ExtraCondensed;}.cls-28,.cls-55{letter-spacing:0.05em;}.cls-29{letter-spacing:0.05em;}.cls-30{letter-spacing:0.04em;}.cls-31{letter-spacing:0.05em;}.cls-32,.cls-65{letter-spacing:0.05em;}.cls-33{letter-spacing:0.05em;}.cls-34,.cls-90{letter-spacing:0.05em;}.cls-35,.cls-91{letter-spacing:0.05em;}.cls-36{letter-spacing:0.05em;}.cls-37{letter-spacing:0.05em;}.cls-38{letter-spacing:0.04em;}.cls-39{letter-spacing:0.04em;}.cls-40{letter-spacing:0.05em;}.cls-41{letter-spacing:0.06em;}.cls-42{letter-spacing:0.04em;}.cls-43{letter-spacing:0.04em;}.cls-44{letter-spacing:0.05em;}.cls-45{letter-spacing:0.06em;}.cls-46{letter-spacing:0.05em;}.cls-47{letter-spacing:0.05em;}.cls-48{letter-spacing:0.06em;}.cls-49{letter-spacing:0.06em;}.cls-50{letter-spacing:0.04em;}.cls-51{letter-spacing:0.04em;}.cls-52{letter-spacing:0.05em;}.cls-53{letter-spacing:0.06em;}.cls-54{letter-spacing:0.06em;}.cls-56{letter-spacing:0.05em;}.cls-57{letter-spacing:0.05em;}.cls-58{letter-spacing:0.04em;}.cls-59{letter-spacing:0.04em;}.cls-60{letter-spacing:0.05em;}.cls-61{letter-spacing:0.05em;}.cls-62{letter-spacing:0.05em;}.cls-63{letter-spacing:0.04em;}.cls-64{letter-spacing:0.05em;}.cls-66{letter-spacing:0.05em;}.cls-67{letter-spacing:0.04em;}.cls-68{letter-spacing:0.04em;}.cls-69{letter-spacing:0.04em;}.cls-70{letter-spacing:0.08em;}.cls-71{letter-spacing:0.03em;}.cls-72{letter-spacing:0.04em;}.cls-73{letter-spacing:0.04em;}.cls-74{letter-spacing:0.04em;}.cls-75{letter-spacing:0.04em;}.cls-77{letter-spacing:0.04em;}.cls-78{letter-spacing:0.07em;}.cls-79{letter-spacing:0.06em;}.cls-80{letter-spacing:0.05em;}.cls-81{letter-spacing:0.05em;}.cls-82{letter-spacing:0.05em;}.cls-83{letter-spacing:0.05em;}.cls-84{letter-spacing:0.05em;}.cls-85{letter-spacing:0.06em;}.cls-86{letter-spacing:0.06em;}.cls-87{letter-spacing:0.05em;}.cls-89,.cls-90,.cls-91,.cls-92{fill:#fff;font-family:SairaExtraCondensed-Bold, Saira ExtraCondensed;}.cls-92{letter-spacing:0.05em;}.cls-93{stroke-dasharray:4.21 6.32;}.cls-94{stroke-dasharray:4.02 6.03;}.cls-95{stroke-dasharray:4.34 6.51;}.cls-96{stroke-dasharray:3.85 5.78;}.cls-97{stroke-dasharray:4.16 6.24;}.cls-98{stroke-dasharray:3.79 5.69;}</style></defs><title>AATeamAuth0FunctionFlow</title><text class="cls-1" transform="translate(14.07 29.34)">A<tspan class="cls-2" x="11.19" y="0">A </tspan><tspan class="cls-3" x="25.94" y="0">T</tspan><tspan class="cls-4" x="33.83" y="0">e</tspan><tspan class="cls-5" x="42.49" y="0">a</tspan><tspan class="cls-2" x="51.11" y="0">m </tspan><tspan class="cls-6" x="68.47" y="0">M</tspan><tspan class="cls-7" x="81.93" y="0">o</tspan><tspan class="cls-8" x="90.8" y="0">du</tspan><tspan class="cls-9" x="108.72" y="0">l</tspan><tspan class="cls-2" x="113.29" y="0">e </tspan><tspan class="cls-10" x="126.17" y="0">A</tspan><tspan class="cls-11" x="136.67" y="0">u</tspan><tspan class="cls-12" x="145.91" y="0">t</tspan><tspan class="cls-13" x="152.27" y="0">h</tspan><tspan class="cls-2" x="161.35" y="0">0 </tspan><tspan class="cls-14" x="175.78" y="0">F</tspan><tspan class="cls-15" x="184.44" y="0">u</tspan><tspan class="cls-16" x="193.46" y="0">n</tspan><tspan class="cls-17" x="202.52" y="0">c</tspan><tspan class="cls-12" x="210.05" y="0">t</tspan><tspan class="cls-18" x="216.41" y="0">i</tspan><tspan class="cls-9" x="220.97" y="0">o</tspan><tspan class="cls-2" x="229.78" y="0">n </tspan><tspan class="cls-19" x="243.18" y="0">F</tspan><tspan class="cls-20" x="252.11" y="0">l</tspan><tspan class="cls-21" x="256.69" y="0">o</tspan><tspan class="cls-2" x="265.54" y="0">w</tspan></text><ellipse class="cls-22" cx="390.44" cy="99.14" rx="42.38" ry="25.17"/><text class="cls-23" transform="translate(378.19 103.88)">A<tspan class="cls-24" x="5.41" y="0">U</tspan><tspan class="cls-25" x="11.22" y="0">T</tspan><tspan class="cls-26" x="15.93" y="0">H</tspan><tspan class="cls-27" x="21.66" y="0">0</tspan></text><text class="cls-28" transform="translate(347.98 270.99)">a<tspan class="cls-29" x="4.92" y="0">p</tspan><tspan class="cls-30" x="10.14" y="0">i</tspan><tspan class="cls-31" x="12.77" y="0">.</tspan><tspan class="cls-32" x="15.66" y="0">a</tspan><tspan class="cls-33" x="20.58" y="0">lg</tspan><tspan class="cls-34" x="28.48" y="0">o</tspan><tspan class="cls-35" x="33.63" y="0">c</tspan><tspan class="cls-36" x="37.81" y="0">o</tspan><tspan class="cls-26" x="42.93" y="0">m</tspan><tspan class="cls-37" x="50.64" y="0">m</tspan><tspan class="cls-38" x="58.36" y="0">u</tspan><tspan class="cls-39" x="63.56" y="0">n</tspan><tspan class="cls-40" x="68.78" y="0">i</tspan><tspan class="cls-41" x="71.54" y="0">t</tspan><tspan class="cls-42" x="75.08" y="0">y</tspan><tspan class="cls-43" x="80.28" y="0">.</tspan><tspan class="cls-44" x="83.07" y="0">o</tspan><tspan class="cls-45" x="88.18" y="0">r</tspan><tspan class="cls-27" x="91.91" y="0">g</tspan></text><text class="cls-46" transform="translate(378.61 151.99)">D<tspan class="cls-47" x="5.55" y="0">O</tspan><tspan class="cls-48" x="11.21" y="0">M</tspan><tspan class="cls-49" x="18.86" y="0">A</tspan><tspan class="cls-50" x="24.47" y="0">I</tspan><tspan class="cls-51" x="27.33" y="0">N</tspan><tspan class="cls-27" x="33.02" y="0">:</tspan><tspan class="cls-52"><tspan x="-44.8" y="17.14">a</tspan><tspan class="cls-53" x="-39.84" y="17.14">d</tspan><tspan class="cls-54" x="-34.52" y="17.14">v</tspan><tspan class="cls-55" x="-29.61" y="17.14">a</tspan><tspan x="-24.69" y="17.14">n</tspan><tspan class="cls-56" x="-19.44" y="17.14">c</tspan><tspan class="cls-34" x="-15.27" y="17.14">ed</tspan><tspan class="cls-32" x="-5" y="17.14">a</tspan><tspan class="cls-33" x="-0.08" y="17.14">lg</tspan><tspan class="cls-57" x="7.83" y="17.14">o</tspan><tspan class="cls-58" x="13.03" y="17.14">s</tspan><tspan class="cls-38" x="17.29" y="17.14">1</tspan><tspan class="cls-59" x="20.73" y="17.14">.</tspan><tspan class="cls-60" x="23.5" y="17.14">e</tspan><tspan class="cls-42" x="28.46" y="17.14">u</tspan><tspan class="cls-31" x="33.67" y="17.14">.</tspan><tspan class="cls-61" x="36.56" y="17.14">a</tspan><tspan class="cls-40" x="41.48" y="17.14">ut</tspan><tspan class="cls-62" x="50.33" y="17.14">h</tspan><tspan class="cls-63" x="55.6" y="17.14">0</tspan><tspan class="cls-59" x="60.87" y="17.14">.</tspan><tspan class="cls-64" x="63.64" y="17.14">c</tspan><tspan class="cls-36" x="67.82" y="17.14">o</tspan><tspan class="cls-27" x="72.93" y="17.14">m</tspan></tspan></text><text class="cls-65" transform="translate(639.82 160.37)">a<tspan class="cls-33" x="4.92" y="0">lg</tspan><tspan class="cls-34" x="12.83" y="0">o</tspan><tspan class="cls-64" x="17.97" y="0">c</tspan><tspan class="cls-36" x="22.16" y="0">o</tspan><tspan class="cls-26" x="27.27" y="0">m</tspan><tspan class="cls-37" x="34.98" y="0">m</tspan><tspan class="cls-42" x="42.7" y="0">u</tspan><tspan class="cls-39" x="47.91" y="0">n</tspan><tspan class="cls-66" x="53.13" y="0">i</tspan><tspan class="cls-41" x="55.88" y="0">t</tspan><tspan class="cls-42" x="59.42" y="0">y</tspan><tspan class="cls-43" x="64.63" y="0">.</tspan><tspan class="cls-44" x="67.41" y="0">o</tspan><tspan class="cls-45" x="72.52" y="0">r</tspan><tspan class="cls-27" x="76.25" y="0" xml:space="preserve">g  </tspan><tspan class="cls-67" x="86.5" y="0">(</tspan><tspan class="cls-34" x="89.68" y="0">S</tspan><tspan class="cls-68" x="94.64" y="0">P</tspan><tspan class="cls-69" x="99.75" y="0">A</tspan><tspan class="cls-34" x="105.25" y="0">)</tspan></text><rect class="cls-22" x="608.49" y="42.1" width="159.25" height="281.8"/><text class="cls-70" transform="translate(29.86 157.37)">A<tspan class="cls-71" x="5.87" y="0">A</tspan><tspan class="cls-72" x="11.22" y="0">W</tspan><tspan class="cls-73" x="18.93" y="0">e</tspan><tspan class="cls-74" x="23.87" y="0">b</tspan><tspan class="cls-31" x="29.03" y="0">.</tspan><tspan class="cls-32" x="31.92" y="0">a</tspan><tspan class="cls-33" x="36.84" y="0">lg</tspan><tspan class="cls-34" x="44.75" y="0">o</tspan><tspan class="cls-64" x="49.9" y="0">c</tspan><tspan class="cls-36" x="54.08" y="0">o</tspan><tspan class="cls-26" x="59.19" y="0">m</tspan><tspan class="cls-37" x="66.9" y="0">m</tspan><tspan class="cls-38" x="74.62" y="0">u</tspan><tspan class="cls-39" x="79.83" y="0">n</tspan><tspan class="cls-40" x="85.05" y="0">i</tspan><tspan class="cls-41" x="87.8" y="0">t</tspan><tspan class="cls-42" x="91.34" y="0">y</tspan><tspan class="cls-74" x="96.55" y="0">.</tspan><tspan class="cls-36" x="99.33" y="0">o</tspan><tspan class="cls-45" x="104.44" y="0">r</tspan><tspan class="cls-27" x="108.17" y="0" xml:space="preserve">g  </tspan><tspan class="cls-67" x="118.42" y="0">(</tspan><tspan class="cls-27" x="121.6" y="0">S</tspan><tspan class="cls-75" x="126.56" y="0">P</tspan><tspan class="cls-69" x="131.68" y="0">A</tspan><tspan class="cls-27" x="137.17" y="0">)</tspan></text><rect class="cls-22" x="19.49" y="44.77" width="159.25" height="276.46"/><text class="cls-76" transform="translate(372.98 222.32)"> <tspan class="cls-77" x="2.57" y="0">G</tspan><tspan class="cls-78" x="7.82" y="0">R</tspan><tspan class="cls-79" x="13.52" y="0">A</tspan><tspan class="cls-80" x="19.06" y="0">P</tspan><tspan class="cls-81" x="24.25" y="0">H</tspan><tspan class="cls-82" x="29.98" y="0">Q</tspan><tspan x="35.61" y="0">L</tspan><tspan class="cls-79"><tspan x="-3.43" y="17.14">A</tspan><tspan class="cls-64" x="2.1" y="17.14">P</tspan><tspan class="cls-27" x="7.27" y="17.14">I </tspan><tspan class="cls-83" x="12.63" y="17.14">S</tspan><tspan class="cls-84" x="17.51" y="17.14">E</tspan><tspan class="cls-85" x="22.29" y="17.14">R</tspan><tspan class="cls-86" x="27.86" y="17.14">V</tspan><tspan class="cls-87" x="33.02" y="17.14">E</tspan><tspan class="cls-34" x="37.79" y="17.14">R</tspan></tspan></text><rect class="cls-22" x="362.29" y="201.87" width="61.42" height="55.28"/><rect class="cls-22" x="324.25" y="69.87" width="142.66" height="109.43"/><line class="cls-22" x1="140" y1="77.5" x2="335.03" y2="77.5"/><polygon class="cls-88" points="332.22 81.2 333.8 77.5 332.22 73.8 341 77.5 332.22 81.2"/><line class="cls-22" x1="334" y1="96.5" x2="138.97" y2="96.5"/><polygon class="cls-88" points="141.78 92.8 140.21 96.5 141.78 100.2 133 96.5 141.78 92.8"/><circle class="cls-88" cx="139" cy="76.51" r="8.14"/><text class="cls-89" transform="translate(137.08 80.9)">1</text><line class="cls-22" x1="140" y1="215.5" x2="359.03" y2="215.5"/><polygon class="cls-88" points="356.22 219.2 357.8 215.5 356.22 211.8 365 215.5 356.22 219.2"/><circle class="cls-88" cx="139" cy="214.51" r="8.14"/><text class="cls-89" transform="translate(136.42 218.9)">5</text><line class="cls-22" x1="140" y1="288.5" x2="645.03" y2="288.5"/><polygon class="cls-88" points="642.22 292.2 643.79 288.5 642.22 284.8 651 288.5 642.22 292.2"/><circle class="cls-88" cx="139" cy="287.51" r="8.14"/><text class="cls-90" transform="translate(136.57 291.9)">7</text><line class="cls-22" x1="140" y1="114.5" x2="335.03" y2="114.5"/><polygon class="cls-88" points="332.22 118.2 333.8 114.5 332.22 110.8 341 114.5 332.22 118.2"/><circle class="cls-88" cx="139" cy="113.51" r="8.14"/><text class="cls-90" transform="translate(136.51 117.9)">3</text><circle class="cls-88" cx="335" cy="97.51" r="8.14"/><text class="cls-89" transform="translate(332.42 101.9)">2</text><line class="cls-22" x1="451" y1="116.5" x2="646.03" y2="116.5"/><polygon class="cls-88" points="643.22 120.2 644.79 116.5 643.22 112.8 652 116.5 643.22 120.2"/><line class="cls-22" x1="645" y1="96.5" x2="449.97" y2="96.5"/><polygon class="cls-88" points="452.78 92.8 451.2 96.5 452.78 100.2 444 96.5 452.78 92.8"/><circle class="cls-88" cx="450" cy="115.51" r="8.14"/><text class="cls-89" transform="translate(447.33 119.9)">9</text><circle class="cls-88" cx="646" cy="97.51" r="8.14"/><text class="cls-90" transform="translate(643.26 101.9)">8</text><line class="cls-22" x1="429" y1="239.5" x2="648.03" y2="239.5"/><polygon class="cls-88" points="645.22 243.2 646.79 239.5 645.22 235.8 654 239.5 645.22 243.2"/><line class="cls-22" x1="647" y1="216.5" x2="427.97" y2="216.5"/><polygon class="cls-88" points="430.78 212.8 429.2 216.5 430.78 220.2 422 216.5 430.78 212.8"/><circle class="cls-88" cx="428" cy="238.51" r="8.14"/><text class="cls-91" transform="translate(424.17 242.9)">1<tspan class="cls-27" x="3.82" y="0">1</tspan></text><circle class="cls-88" cx="648" cy="217.51" r="8.14"/><text class="cls-92" transform="translate(643.39 221.9)">1<tspan class="cls-27" x="3.79" y="0">0</tspan></text><line class="cls-22" x1="334" y1="133.5" x2="138.97" y2="133.5"/><polygon class="cls-88" points="141.78 129.8 140.21 133.5 141.78 137.2 133 133.5 141.78 129.8"/><circle class="cls-88" cx="335" cy="134.51" r="8.14"/><text class="cls-89" transform="translate(332.32 138.9)">4</text><line class="cls-22" x1="356" y1="238.5" x2="142.97" y2="238.5"/><polygon class="cls-88" points="145.78 234.8 144.21 238.5 145.78 242.2 137 238.5 145.78 234.8"/><circle class="cls-88" cx="357" cy="239.51" r="8.14"/><text class="cls-89" transform="translate(354.33 243.9)">6</text><line class="cls-22" x1="661" y1="288.51" x2="663" y2="288.51"/><line class="cls-93" x1="669.32" y1="288.51" x2="718.84" y2="288.51"/><polyline class="cls-22" points="722 288.51 724 288.51 724 286.51"/><line class="cls-94" x1="724" y1="280.48" x2="724" y2="102.53"/><polyline class="cls-22" points="724 99.51 724 97.51 722 97.51"/><line class="cls-95" x1="715.49" y1="97.51" x2="675.36" y2="97.51"/><line class="cls-22" x1="672.11" y1="97.51" x2="670.11" y2="97.51"/><polygon class="cls-88" points="672.92 93.81 671.35 97.51 672.92 101.22 664.14 97.51 672.92 93.81"/><line class="cls-22" x1="116.03" y1="216.51" x2="114.03" y2="216.51"/><line class="cls-96" x1="108.25" y1="216.51" x2="91.89" y2="216.51"/><polyline class="cls-22" points="89 216.51 87 216.51 87 214.51"/><line class="cls-97" x1="87" y1="208.28" x2="87" y2="138.63"/><polyline class="cls-22" points="87 135.51 87 133.51 89 133.51"/><line class="cls-98" x1="94.69" y1="133.51" x2="120.3" y2="133.51"/><line class="cls-22" x1="123.14" y1="133.51" x2="125.14" y2="133.51"/><polygon class="cls-88" points="113.22 212.81 114.8 216.51 113.22 220.22 122 216.51 113.22 212.81"/></svg>