<svg id="Layer_1" data-name="Layer 1" xmlns="http://www.w3.org/2000/svg" viewBox="0 0 792 226"><defs><style>.cls-1,.cls-44{fill:none;stroke:#666;stroke-miterlimit:10;}.cls-2{font-size:14.28px;font-family:Saira-SemiBold, Saira;letter-spacing:0.1em;}.cls-102,.cls-118,.cls-2,.cls-26,.cls-45,.cls-52,.cls-58,.cls-61,.cls-70,.cls-88,.cls-93,.cls-98,.cls-99{fill:#666;}.cls-119,.cls-120,.cls-2{font-weight:700;}.cls-3{letter-spacing:0.05em;}.cls-4{letter-spacing:-0.03em;}.cls-5{letter-spacing:0.05em;}.cls-6{letter-spacing:0.04em;}.cls-7{letter-spacing:0.05em;}.cls-8{letter-spacing:0.05em;}.cls-9{letter-spacing:0.04em;}.cls-10{letter-spacing:0.05em;}.cls-11{letter-spacing:0.05em;}.cls-12{letter-spacing:0.04em;}.cls-13{letter-spacing:0.04em;}.cls-14{letter-spacing:0.05em;}.cls-15{letter-spacing:0.06em;}.cls-16{letter-spacing:0.06em;}.cls-17{letter-spacing:0.04em;}.cls-18{letter-spacing:0.04em;}.cls-19{letter-spacing:0.06em;}.cls-20{letter-spacing:0.06em;}.cls-21{letter-spacing:0.07em;}.cls-22{letter-spacing:0.06em;}.cls-23{letter-spacing:0.04em;}.cls-24{letter-spacing:0.06em;}.cls-25{letter-spacing:0.05em;}.cls-102,.cls-119,.cls-120,.cls-26,.cls-45,.cls-52,.cls-58,.cls-61,.cls-70,.cls-88,.cls-93,.cls-98,.cls-99{font-size:12px;}.cls-26,.cls-45,.cls-52,.cls-58,.cls-99{font-family:SairaExtraCondensed-Light, Saira ExtraCondensed;}.cls-26,.cls-83{letter-spacing:0.05em;}.cls-27{letter-spacing:0.05em;}.cls-28{letter-spacing:0.05em;}.cls-29{letter-spacing:0.05em;}.cls-30{letter-spacing:0.06em;}.cls-102,.cls-120,.cls-31{letter-spacing:0.05em;}.cls-119,.cls-32,.cls-99{letter-spacing:0.05em;}.cls-33{letter-spacing:0.04em;}.cls-34{letter-spacing:0.07em;}.cls-35{letter-spacing:0.06em;}.cls-36{letter-spacing:0.05em;}.cls-37{letter-spacing:0.05em;}.cls-38{letter-spacing:0.05em;}.cls-39{letter-spacing:0.05em;}.cls-40{letter-spacing:0.06em;}.cls-41{letter-spacing:0.06em;}.cls-42{letter-spacing:0.04em;}.cls-43{letter-spacing:0.05em;}.cls-44{stroke-width:0.25px;}.cls-45{letter-spacing:0.06em;}.cls-46{letter-spacing:0.06em;}.cls-47{letter-spacing:0.06em;}.cls-48{letter-spacing:0.05em;}.cls-49{letter-spacing:0.05em;}.cls-50{letter-spacing:0.06em;}.cls-51{letter-spacing:0.04em;}.cls-52{letter-spacing:0.05em;}.cls-53{letter-spacing:0.04em;}.cls-54{letter-spacing:0.04em;}.cls-55{letter-spacing:0.06em;}.cls-56{letter-spacing:0.05em;}.cls-57{letter-spacing:0.06em;}.cls-58{letter-spacing:0.05em;}.cls-59{letter-spacing:0.06em;}.cls-60{letter-spacing:0.05em;}.cls-102,.cls-61,.cls-70,.cls-88,.cls-93,.cls-98{font-family:SairaExtraCondensed-Medium, Saira ExtraCondensed;}.cls-61{letter-spacing:0.06em;}.cls-62{letter-spacing:0.04em;}.cls-63{letter-spacing:0.07em;}.cls-64{letter-spacing:0.06em;}.cls-65,.cls-88{letter-spacing:0.05em;}.cls-66{letter-spacing:0.05em;}.cls-67{letter-spacing:0.05em;}.cls-68{letter-spacing:0.04em;}.cls-69{letter-spacing:0.05em;}.cls-70{letter-spacing:0.05em;}.cls-71{letter-spacing:0.05em;}.cls-72{letter-spacing:0.04em;}.cls-73{letter-spacing:0.04em;}.cls-74{letter-spacing:0.05em;}.cls-75{letter-spacing:0.05em;}.cls-76{letter-spacing:0.05em;}.cls-77,.cls-98{letter-spacing:0.05em;}.cls-78{letter-spacing:0.05em;}.cls-79{letter-spacing:0.05em;}.cls-80{letter-spacing:0.05em;}.cls-81{letter-spacing:0.05em;}.cls-82{letter-spacing:0.04em;}.cls-84{letter-spacing:0.06em;}.cls-85{letter-spacing:0.04em;}.cls-86{letter-spacing:0.04em;}.cls-87{letter-spacing:0.06em;}.cls-89{letter-spacing:0.04em;}.cls-90{letter-spacing:0.05em;}.cls-91{letter-spacing:0.04em;}.cls-92{letter-spacing:0.06em;}.cls-93{letter-spacing:0.08em;}.cls-94{letter-spacing:0.03em;}.cls-95{letter-spacing:0.04em;}.cls-96{letter-spacing:0.04em;}.cls-97{letter-spacing:0.05em;}.cls-100{letter-spacing:0.06em;}.cls-101{letter-spacing:0.06em;}.cls-103{letter-spacing:0.04em;}.cls-104{letter-spacing:0.05em;}.cls-105{letter-spacing:0.06em;}.cls-106{letter-spacing:0.05em;}.cls-107{letter-spacing:0.05em;}.cls-108{letter-spacing:0.04em;}.cls-109{letter-spacing:0.04em;}.cls-110{letter-spacing:0.05em;}.cls-111{letter-spacing:0.05em;}.cls-112{letter-spacing:0.04em;}.cls-113{letter-spacing:0.06em;}.cls-114{letter-spacing:0.05em;}.cls-115{letter-spacing:0.04em;}.cls-116{letter-spacing:0.04em;}.cls-117{letter-spacing:0.04em;}.cls-119,.cls-120{fill:#fff;font-family:SairaExtraCondensed-Bold, Saira ExtraCondensed;}</style></defs><title>AATeamDemoArchiteture</title><rect class="cls-1" x="25.49" y="76.58" width="202.21" height="68.84"/><text class="cls-2" transform="translate(21.82 29.34)">A<tspan class="cls-3" x="11.19" y="0">A </tspan><tspan class="cls-4" x="25.94" y="0">T</tspan><tspan class="cls-5" x="33.83" y="0">e</tspan><tspan class="cls-6" x="42.49" y="0">a</tspan><tspan class="cls-3" x="51.11" y="0">m </tspan><tspan class="cls-7" x="68.47" y="0">M</tspan><tspan class="cls-8" x="81.93" y="0">o</tspan><tspan class="cls-9" x="90.8" y="0">du</tspan><tspan class="cls-10" x="108.72" y="0">l</tspan><tspan class="cls-3" x="113.29" y="0">e </tspan><tspan class="cls-11" x="126.17" y="0">D</tspan><tspan class="cls-12" x="136.67" y="0">e</tspan><tspan class="cls-13" x="145.21" y="0">m</tspan><tspan class="cls-14" x="158.26" y="0">o </tspan><tspan class="cls-15" x="171.37" y="0">A</tspan><tspan class="cls-16" x="182.09" y="0">r</tspan><tspan class="cls-17" x="188.57" y="0">c</tspan><tspan class="cls-18" x="195.78" y="0">h</tspan><tspan class="cls-19" x="204.79" y="0">i</tspan><tspan class="cls-20" x="209.5" y="0">t</tspan><tspan class="cls-11" x="215.92" y="0">e</tspan><tspan class="cls-21" x="224.56" y="0">c</tspan><tspan class="cls-22" x="232.09" y="0">t</tspan><tspan class="cls-23" x="238.45" y="0">u</tspan><tspan class="cls-24" x="247.48" y="0">r</tspan><tspan class="cls-25" x="253.96" y="0">e</tspan></text><text class="cls-26" transform="translate(158.94 97.7)">P<tspan class="cls-27" x="5.19" y="0">R</tspan><tspan class="cls-28" x="10.61" y="0">I</tspan><tspan class="cls-29" x="13.37" y="0">S</tspan><tspan class="cls-30" x="18.25" y="0">M</tspan><tspan class="cls-31" x="25.6" y="0">A</tspan><tspan class="cls-32"><tspan x="-4.4" y="17.14"> </tspan><tspan class="cls-33" x="-1.83" y="17.14">G</tspan><tspan class="cls-34" x="3.42" y="17.14">R</tspan><tspan class="cls-35" x="9.13" y="17.14">A</tspan><tspan class="cls-36" x="14.66" y="17.14">P</tspan><tspan class="cls-37" x="19.85" y="17.14">H</tspan><tspan class="cls-38" x="25.59" y="17.14">Q</tspan><tspan x="31.22" y="17.14">L</tspan></tspan><tspan class="cls-29"><tspan x="-0.62" y="34.27">S</tspan><tspan class="cls-39" x="4.26" y="34.27">E</tspan><tspan class="cls-40" x="9.03" y="34.27">R</tspan><tspan class="cls-41" x="14.61" y="34.27">V</tspan><tspan class="cls-42" x="19.74" y="34.27">I</tspan><tspan class="cls-43" x="22.46" y="34.27">C</tspan><tspan class="cls-32" x="26.9" y="34.27">E</tspan></tspan></text><rect class="cls-44" x="143.85" y="83.25" width="61.42" height="55.28"/><ellipse class="cls-44" cx="76.73" cy="109.87" rx="44.25" ry="12.75"/><text class="cls-45" transform="translate(49.83 114.03)">P<tspan class="cls-46" x="5.28" y="0">O</tspan><tspan class="cls-47" x="11.04" y="0">S</tspan><tspan class="cls-48" x="16.07" y="0">T</tspan><tspan class="cls-33" x="20.71" y="0">G</tspan><tspan class="cls-49" x="25.96" y="0">R</tspan><tspan class="cls-50" x="31.41" y="0">E</tspan><tspan class="cls-31" x="36.29" y="0">S </tspan><tspan class="cls-51" x="43.74" y="0">D</tspan><tspan class="cls-32" x="49.16" y="0">B</tspan></text><ellipse class="cls-44" cx="344.87" cy="174.29" rx="42.38" ry="25.17"/><text class="cls-52" transform="translate(307 179.03)">N<tspan class="cls-53" x="5.74" y="0">G</tspan><tspan class="cls-54" x="10.96" y="0">I</tspan><tspan class="cls-40" x="13.62" y="0">N</tspan><tspan class="cls-32" x="19.52" y="0">X </tspan><tspan class="cls-55" x="27.39" y="0">W</tspan><tspan class="cls-56" x="34.84" y="0">E</tspan><tspan class="cls-32" x="39.62" y="0">B </tspan><tspan class="cls-29" x="47.61" y="0">S</tspan><tspan class="cls-56" x="52.48" y="0">E</tspan><tspan class="cls-40" x="57.26" y="0">R</tspan><tspan class="cls-57" x="62.83" y="0">V</tspan><tspan class="cls-56" x="67.99" y="0">E</tspan><tspan class="cls-32" x="72.77" y="0">R</tspan></text><ellipse class="cls-44" cx="471.87" cy="41.29" rx="42.38" ry="25.17"/><text class="cls-58" transform="translate(459.62 46.03)">A<tspan class="cls-59" x="5.41" y="0">U</tspan><tspan class="cls-40" x="11.22" y="0">T</tspan><tspan class="cls-60" x="15.93" y="0">H</tspan><tspan class="cls-32" x="21.66" y="0">0</tspan></text><text class="cls-61" transform="translate(28.3 72.37)">V<tspan class="cls-62" x="5.35" y="0">i</tspan><tspan class="cls-63" x="7.99" y="0">r</tspan><tspan class="cls-64" x="11.89" y="0">t</tspan><tspan class="cls-32" x="15.43" y="0">u</tspan><tspan class="cls-65" x="20.71" y="0">a</tspan><tspan class="cls-32" x="25.63" y="0">l </tspan><tspan class="cls-66" x="30.84" y="0">M</tspan><tspan class="cls-67" x="38.4" y="0">a</tspan><tspan class="cls-31" x="43.35" y="0">c</tspan><tspan class="cls-68" x="47.51" y="0">h</tspan><tspan class="cls-62" x="52.73" y="0">i</tspan><tspan class="cls-69" x="55.37" y="0">n</tspan><tspan class="cls-32" x="60.63" y="0">e</tspan></text><text class="cls-70" transform="translate(27.54 159.37)">t<tspan class="cls-71" x="3.53" y="0">e</tspan><tspan class="cls-38" x="8.58" y="0">a</tspan><tspan class="cls-72" x="13.5" y="0">m</tspan><tspan class="cls-73" x="21.18" y="0">-</tspan><tspan class="cls-65" x="25.02" y="0">a</tspan><tspan class="cls-74" x="29.94" y="0">pi</tspan><tspan class="cls-75" x="37.83" y="0">2</tspan><tspan class="cls-76" x="42.78" y="0">.</tspan><tspan class="cls-77" x="45.67" y="0">a</tspan><tspan class="cls-78" x="50.59" y="0">lg</tspan><tspan class="cls-32" x="58.5" y="0">o</tspan><tspan class="cls-79" x="63.64" y="0">c</tspan><tspan class="cls-80" x="67.83" y="0">o</tspan><tspan class="cls-60" x="72.94" y="0">m</tspan><tspan class="cls-81" x="80.65" y="0">m</tspan><tspan class="cls-82" x="88.37" y="0">u</tspan><tspan class="cls-68" x="93.58" y="0">n</tspan><tspan class="cls-83" x="98.79" y="0">i</tspan><tspan class="cls-84" x="101.55" y="0">t</tspan><tspan class="cls-85" x="105.09" y="0">y</tspan><tspan class="cls-86" x="110.3" y="0">.</tspan><tspan class="cls-80" x="113.08" y="0">o</tspan><tspan class="cls-87" x="118.19" y="0">r</tspan><tspan class="cls-32" x="121.92" y="0">g</tspan></text><text class="cls-88" transform="translate(404.54 113.37)">a<tspan class="cls-74" x="4.92" y="0">p</tspan><tspan class="cls-89" x="10.14" y="0">i</tspan><tspan class="cls-76" x="12.77" y="0">.</tspan><tspan class="cls-77" x="15.66" y="0">a</tspan><tspan class="cls-78" x="20.58" y="0">lg</tspan><tspan class="cls-31" x="28.48" y="0">o</tspan><tspan class="cls-79" x="33.63" y="0">c</tspan><tspan class="cls-80" x="37.81" y="0">o</tspan><tspan class="cls-60" x="42.93" y="0">m</tspan><tspan class="cls-81" x="50.64" y="0">m</tspan><tspan class="cls-82" x="58.36" y="0">u</tspan><tspan class="cls-68" x="63.56" y="0">n</tspan><tspan class="cls-90" x="68.78" y="0">i</tspan><tspan class="cls-64" x="71.54" y="0">t</tspan><tspan class="cls-85" x="75.08" y="0">y</tspan><tspan class="cls-91" x="80.28" y="0">.</tspan><tspan class="cls-28" x="83.07" y="0">o</tspan><tspan class="cls-92" x="88.18" y="0">r</tspan><tspan class="cls-32" x="91.91" y="0">g</tspan></text><text class="cls-93" transform="translate(406.41 163.37)">A<tspan class="cls-94" x="5.87" y="0">A</tspan><tspan class="cls-95" x="11.22" y="0">W</tspan><tspan class="cls-96" x="18.93" y="0">e</tspan><tspan class="cls-86" x="23.87" y="0">b</tspan><tspan class="cls-76" x="29.03" y="0">.</tspan><tspan class="cls-77" x="31.92" y="0">a</tspan><tspan class="cls-78" x="36.84" y="0">lg</tspan><tspan class="cls-31" x="44.75" y="0">o</tspan><tspan class="cls-97" x="49.9" y="0">c</tspan><tspan class="cls-80" x="54.08" y="0">o</tspan><tspan class="cls-60" x="59.19" y="0">m</tspan><tspan class="cls-81" x="66.9" y="0">m</tspan><tspan class="cls-82" x="74.62" y="0">u</tspan><tspan class="cls-68" x="79.83" y="0">n</tspan><tspan class="cls-90" x="85.05" y="0">i</tspan><tspan class="cls-64" x="87.8" y="0">t</tspan><tspan class="cls-85" x="91.34" y="0">y</tspan><tspan class="cls-86" x="96.55" y="0">.</tspan><tspan class="cls-80" x="99.33" y="0">o</tspan><tspan class="cls-92" x="104.44" y="0">r</tspan><tspan class="cls-32" x="108.17" y="0">g</tspan></text><text class="cls-98" transform="translate(408.37 191.37)">a<tspan class="cls-78" x="4.92" y="0">lg</tspan><tspan class="cls-31" x="12.83" y="0">o</tspan><tspan class="cls-97" x="17.97" y="0">c</tspan><tspan class="cls-80" x="22.16" y="0">o</tspan><tspan class="cls-60" x="27.27" y="0">m</tspan><tspan class="cls-81" x="34.98" y="0">m</tspan><tspan class="cls-85" x="42.7" y="0">u</tspan><tspan class="cls-68" x="47.91" y="0">n</tspan><tspan class="cls-83" x="53.13" y="0">i</tspan><tspan class="cls-64" x="55.88" y="0">t</tspan><tspan class="cls-85" x="59.42" y="0">y</tspan><tspan class="cls-91" x="64.63" y="0">.</tspan><tspan class="cls-28" x="67.41" y="0">o</tspan><tspan class="cls-92" x="72.52" y="0">r</tspan><tspan class="cls-32" x="76.25" y="0">g</tspan></text><rect class="cls-1" x="297.49" y="76.58" width="97.46" height="131.17"/><rect class="cls-1" x="564.49" y="77.58" width="184.19" height="126.65"/><rect class="cls-44" x="576.98" y="84" width="159.21" height="7.86"/><rect class="cls-44" x="577.98" y="101" width="159.21" height="91.01"/><rect class="cls-44" x="588.98" y="116.99" width="27.24" height="65.02"/><rect class="cls-44" x="697.98" y="116.02" width="27.24" height="38.99"/><text class="cls-99" transform="translate(316.54 103.7)"> <tspan class="cls-33" x="2.57" y="0">G</tspan><tspan class="cls-34" x="7.82" y="0">R</tspan><tspan class="cls-35" x="13.52" y="0">A</tspan><tspan class="cls-36" x="19.06" y="0">P</tspan><tspan class="cls-37" x="24.25" y="0">H</tspan><tspan class="cls-38" x="29.98" y="0">Q</tspan><tspan x="35.61" y="0">L</tspan><tspan class="cls-35"><tspan x="-3.43" y="17.14">A</tspan><tspan class="cls-97" x="2.1" y="17.14">P</tspan><tspan class="cls-32" x="7.27" y="17.14">I </tspan><tspan class="cls-29" x="12.63" y="17.14">S</tspan><tspan class="cls-56" x="17.51" y="17.14">E</tspan><tspan class="cls-100" x="22.29" y="17.14">R</tspan><tspan class="cls-101" x="27.86" y="17.14">V</tspan><tspan class="cls-39" x="33.02" y="17.14">E</tspan><tspan class="cls-31" x="37.79" y="17.14">R</tspan></tspan></text><rect class="cls-44" x="305.85" y="83.25" width="61.42" height="55.28"/><text class="cls-61" transform="translate(300.3 72.37)">V<tspan class="cls-62" x="5.35" y="0">i</tspan><tspan class="cls-63" x="7.99" y="0">r</tspan><tspan class="cls-64" x="11.89" y="0">t</tspan><tspan class="cls-32" x="15.43" y="0">u</tspan><tspan class="cls-65" x="20.71" y="0">a</tspan><tspan class="cls-32" x="25.63" y="0">l </tspan><tspan class="cls-66" x="30.84" y="0">M</tspan><tspan class="cls-67" x="38.4" y="0">a</tspan><tspan class="cls-31" x="43.35" y="0">c</tspan><tspan class="cls-68" x="47.51" y="0">h</tspan><tspan class="cls-62" x="52.73" y="0">i</tspan><tspan class="cls-69" x="55.37" y="0">n</tspan><tspan class="cls-32" x="60.63" y="0">e</tspan></text><text class="cls-102" transform="translate(671.05 75.37)">U<tspan class="cls-64" x="5.7" y="0">s</tspan><tspan class="cls-96" x="10.18" y="0">e</tspan><tspan class="cls-32" x="15.12" y="0">r </tspan><tspan class="cls-95" x="21.25" y="0">W</tspan><tspan class="cls-103" x="28.96" y="0">e</tspan><tspan class="cls-32" x="33.91" y="0">b </tspan><tspan class="cls-104" x="41.66" y="0">B</tspan><tspan class="cls-105" x="47.1" y="0">r</tspan><tspan class="cls-106" x="50.84" y="0">o</tspan><tspan class="cls-105" x="56" y="0">w</tspan><tspan class="cls-84" x="63.09" y="0">s</tspan><tspan class="cls-96" x="67.57" y="0">e</tspan><tspan class="cls-32" x="72.51" y="0">r</tspan></text><text class="cls-102" transform="translate(608.32 177.37)">S<tspan class="cls-62" x="4.96" y="0">i</tspan><tspan class="cls-107" x="7.59" y="0">n</tspan><tspan class="cls-95" x="12.86" y="0">g</tspan><tspan class="cls-78" x="18.03" y="0">l</tspan><tspan class="cls-108" x="20.71" y="0">e</tspan><tspan class="cls-109" x="25.66" y="0">-</tspan><tspan class="cls-110" x="29.47" y="0">P</tspan><tspan class="cls-67" x="34.8" y="0">a</tspan><tspan class="cls-111" x="39.75" y="0">g</tspan><tspan class="cls-32" x="44.97" y="0">e </tspan><tspan class="cls-112" x="52.48" y="0">W</tspan><tspan class="cls-96" x="60.19" y="0">e</tspan><tspan class="cls-32" x="65.13" y="0">b </tspan><tspan class="cls-113" x="72.88" y="0">A</tspan><tspan class="cls-114" x="78.52" y="0">p</tspan><tspan class="cls-32" x="83.75" y="0">p </tspan><tspan class="cls-115" x="91.5" y="0">(</tspan><tspan x="94.69" y="0">S</tspan><tspan class="cls-116" x="99.64" y="0">P</tspan><tspan class="cls-117" x="104.76" y="0">A</tspan><tspan x="110.25" y="0">)</tspan></text><line class="cls-1" x1="376.97" y1="93.5" x2="546.03" y2="93.5"/><polygon class="cls-118" points="543.22 97.2 544.79 93.5 543.22 89.8 552 93.5 543.22 97.2"/><line class="cls-1" x1="385.97" y1="166.5" x2="555.03" y2="166.5"/><polygon class="cls-118" points="552.22 170.2 553.79 166.5 552.22 162.8 561 166.5 552.22 170.2"/><line class="cls-1" x1="384.97" y1="180.5" x2="554.03" y2="180.5"/><polygon class="cls-118" points="551.22 184.2 552.79 180.5 551.22 176.8 560 180.5 551.22 184.2"/><line class="cls-1" x1="552" y1="125.5" x2="382.94" y2="125.5"/><polygon class="cls-118" points="385.74 121.8 384.17 125.5 385.74 129.2 376.96 125.5 385.74 121.8"/><line class="cls-1" x1="379.37" y1="78.38" x2="423.18" y2="53.14"/><polygon class="cls-118" points="422.6 57.75 422.11 53.75 418.9 51.33 428.36 50.16 422.6 57.75"/><line class="cls-1" x1="434.1" y1="60.12" x2="390.28" y2="85.36"/><polygon class="cls-118" points="390.87 80.75 391.35 84.75 394.56 87.17 385.11 88.34 390.87 80.75"/><line class="cls-1" x1="517.98" y1="46.01" x2="563.26" y2="68.53"/><polygon class="cls-118" points="559.09 70.6 562.15 67.98 562.39 63.97 568.6 71.19 559.09 70.6"/><line class="cls-1" x1="563.48" y1="81.49" x2="518.21" y2="58.97"/><polygon class="cls-118" points="522.37 56.9 519.31 59.52 519.07 63.53 512.86 56.31 522.37 56.9"/><line class="cls-1" x1="209.97" y1="93.5" x2="288.03" y2="93.5"/><polygon class="cls-118" points="285.22 97.2 286.8 93.5 285.22 89.8 294 93.5 285.22 97.2"/><line class="cls-1" x1="294" y1="125.5" x2="215.94" y2="125.5"/><polygon class="cls-118" points="218.74 121.8 217.17 125.5 218.74 129.2 209.97 125.5 218.74 121.8"/><line class="cls-1" x1="123.97" y1="100" x2="134.03" y2="100"/><polygon class="cls-118" points="131.22 103.7 132.79 100 131.22 96.3 140 100 131.22 103.7"/><line class="cls-1" x1="140" y1="118.5" x2="129.94" y2="118.5"/><polygon class="cls-118" points="132.74 114.8 131.17 118.5 132.74 122.2 123.97 118.5 132.74 114.8"/><circle class="cls-118" cx="37.5" cy="93.5" r="8.14"/><text class="cls-119" transform="translate(35.58 97.89)">1</text><circle class="cls-118" cx="147.5" cy="88" r="8.14"/><text class="cls-119" transform="translate(144.92 92.39)">2</text><circle class="cls-118" cx="311.36" cy="88.64" r="8.14"/><text class="cls-120" transform="translate(308.87 93.03)">3</text><circle class="cls-118" cx="347.72" cy="159.64" r="8.14"/><text class="cls-119" transform="translate(345.04 164.03)">4</text><circle class="cls-118" cx="395.5" cy="110.5" r="8.14"/><text class="cls-119" transform="translate(392.92 114.89)">5</text><circle class="cls-118" cx="396" cy="155.5" r="8.14"/><text class="cls-119" transform="translate(393.33 159.89)">6</text><circle class="cls-118" cx="396.79" cy="191.14" r="8.14"/><text class="cls-120" transform="translate(394.36 195.53)">7</text><circle class="cls-118" cx="658.5" cy="142" r="8.14"/><text class="cls-119" transform="translate(655.83 146.39)">9</text><circle class="cls-118" cx="470" cy="21" r="8.14"/><text class="cls-120" transform="translate(467.26 25.39)">8</text></svg>