<?xml version="1.0" encoding="utf-8"?>
<!-- Generator: Adobe Illustrator 25.4.1, SVG Export Plug-In . SVG Version: 6.00 Build 0)  -->
<svg version="1.1" id="Layer_1" xmlns="http://www.w3.org/2000/svg" xmlns:xlink="http://www.w3.org/1999/xlink" x="0px" y="0px"
	 viewBox="0 0 512 512" style="enable-background:new 0 0 512 512;" xml:space="preserve">
<style type="text/css">
	.st0{display:none;fill:#020202;}
	.st1{fill:#FD6A33;}
	.st2{fill:#FF8C29;}
	.st3{fill:#CDD4D5;}
	.st4{fill:#9BAAAB;}
	.st5{fill:#4ACFD9;}
	.st6{fill:#0295AA;}
	.st7{fill:#365558;}
	.st8{fill:#FFD1A9;}
	.st9{fill:#F0353D;}
</style>
<rect y="0" class="st0" width="512" height="512"/>
<g>
	<path class="st1" d="M14.5,84.8h-3.1H8.2c-4,0-7.3,3.3-7.3,7.3v31.4c0,4,3.3,7.3,7.3,7.3h3.1h3.1c1.8,0,3.4-1.5,3.4-3.4V88.1
		C17.8,86.3,16.3,84.8,14.5,84.8z"/>
	<path class="st2" d="M140.5,130.7h-3.1c-1.8,0-3.4-1.5-3.4-3.4V88.1c0-1.8,1.5-3.4,3.4-3.4h3.1h3.1c4,0,7.3,3.3,7.3,7.3v31.4
		c0,4-3.3,7.3-7.3,7.3H140.5z"/>
	<path class="st2" d="M128.2,72.2v63.5c0,9.3-7.5,16.8-16.8,16.8H75.9V33.9l0,0c4.4,0,8,3.6,8,8v9.1c0,2.3,2.1,4.4,4.4,4.4h23.1
		C120.6,55.4,128.2,63,128.2,72.2z M94.4,129h9.1c0.9,0,1.8-0.8,1.8-1.8v-2.8c0-0.9-0.8-1.8-1.8-1.8h-9.1c-0.9,0-1.8,0.8-1.8,1.8
		v2.8C92.7,128.2,93.5,129,94.4,129z M99,101.3c4.6,0,8.4-3.7,8.4-8.4s-3.7-8.4-8.4-8.4c-4.6,0-8.4,3.7-8.4,8.4
		C90.6,97.5,94.4,101.3,99,101.3z M80.6,122.7h-4.7v6.3h4.7c0.9,0,1.7-0.7,1.7-1.7v-3C82.3,123.4,81.5,122.7,80.6,122.7z"/>
	<path class="st1" d="M75.9,33.8v118.7H40.5c-9.3,0-16.8-7.5-16.8-16.8V72.2c0-9.3,7.5-16.8,16.8-16.8h22.4c2.5,0,5.1-1.9,5.1-4.4
		v-9.1C67.9,37.5,71.5,33.8,75.9,33.8z M57.5,122.7h-9.4c-0.9,0-1.7,0.7-1.7,1.7v3c0,0.9,0.7,1.7,1.7,1.7h9.4c0.9,0,1.7-0.7,1.7-1.7
		v-3C59.2,123.4,58.4,122.7,57.5,122.7z M52.9,84.5c-4.6,0-8.4,3.7-8.4,8.4s3.7,8.4,8.4,8.4c4.6,0,8.4-3.7,8.4-8.4
		C61.2,88.3,57.5,84.5,52.9,84.5z M71.2,122.7c-0.9,0-1.7,0.7-1.7,1.7v3c0,0.9,0.7,1.7,1.7,1.7h4.7v-6.3H71.2z"/>
	<path class="st3" d="M76,169.6C75.9,169.6,75.9,169.6,76,169.6l-0.1,10.1H76c2.8,0,5.1-2.3,5.1-5.1S78.8,169.6,76,169.6z"/>
	<path class="st4" d="M71,174.7c0,2.8,2.2,5,5,5.1v-10.1C73.2,169.7,71,171.9,71,174.7z"/>
	<path class="st5" d="M76,192.8c-0.1,0-0.1,0-0.1,0v15c0.1,0,0.1,0,0.1,0c4.1,0,7.5-3.4,7.5-7.5C83.5,196.2,80.2,192.8,76,192.8z"/>
	<path class="st6" d="M68.6,200.3c0,4.1,3.2,7.4,7.3,7.5v-14.9C71.9,192.9,68.6,196.2,68.6,200.3z"/>
	<path class="st5" d="M76,215c-0.1,0-0.1,0-0.1,0v14.9c0.1,0,0.1,0,0.1,0c4.1,0,7.5-3.4,7.5-7.5C83.5,218.4,80.2,215,76,215z"/>
	<path class="st6" d="M68.6,222.5c0,4.1,3.2,7.4,7.3,7.5v-14.9C71.9,215.1,68.6,218.4,68.6,222.5z"/>
	<path class="st5" d="M76,237.2c-0.1,0-0.1,0-0.1,0v14.9c0.1,0,0.1,0,0.1,0c4.1,0,7.5-3.4,7.5-7.5C83.5,240.6,80.2,237.2,76,237.2z"
		/>
	<path class="st6" d="M68.6,244.7c0,4.1,3.2,7.4,7.3,7.5v-14.9C71.9,237.3,68.6,240.6,68.6,244.7z"/>
	<path class="st7" d="M47.1,194.6c-0.9-2.7-3.9-4.9-6.7-4.9H20.5c-2.9,0-4,2-2.5,4.4l6,9.9c1.5,2.4,1.5,6.4,0.1,8.9l-6.1,10.4
		c-1.4,2.4-0.9,6.1,1,8l54.1,53.1c0.8,0.8,1.4,1.2,1.9,1.2c0.6,0,0.8-0.9,0.3-2.5L47.1,194.6z"/>
	<path class="st4" d="M71.9,168.3c-0.3-0.1-0.6-0.2-0.8-0.3l-14.8-4.2c-1.4-0.4-2.7-0.2-3.7,0.6c-1,0.8-1.5,2-1.5,3.4v12.4
		c0,1.4,0.6,2.7,1.5,3.5c0.7,0.6,1.5,0.8,2.4,0.8c0.4,0,0.9-0.1,1.3-0.2l14.5-3.9c-1.5-1.4-2.5-3.4-2.5-5.7
		C68.4,172,69.8,169.6,71.9,168.3z"/>
	<path class="st6" d="M111.5,189.7h19.9c2.9,0,4,2,2.5,4.4l-6,9.9c-1.5,2.4-1.5,6.4-0.1,8.9l6.1,10.4c1.4,2.4,0.9,6.1-1,8
		l-54.1,53.1c-0.8,0.8-1.4,1.2-1.9,1.2c-0.6,0-0.8-0.9-0.3-2.5l28.1-88.6C105.7,191.9,108.7,189.7,111.5,189.7"/>
	<path class="st3" d="M83.7,174.7c0-2.7-1.4-5.1-3.5-6.4c0.3-0.1,0.6-0.2,0.8-0.3l14.8-4.2c1.4-0.4,2.7-0.2,3.7,0.6
		c1,0.8,1.5,2,1.5,3.4v12.4c0,1.4-0.6,2.7-1.5,3.5c-0.7,0.6-1.5,0.8-2.4,0.8c-0.4,0-0.9-0.1-1.3-0.2l-14.5-3.9
		C82.8,178.9,83.7,177,83.7,174.7z"/>
	<path class="st8" d="M8.2,112.4c0.3,0.5,0.5,1.2,0.3,1.8c-0.8,3.5-0.2,7.1,1.8,10c0.7,0.9,0.4,2.3-0.4,3c-0.9,0.7-2.2,0.6-2.9-0.3
		c-2.8-3.8-3.6-8.7-2.5-13.4c0.3-1.2,1.4-1.9,2.5-1.6C7.6,111.8,7.9,112,8.2,112.4z"/>
	<path class="st8" d="M145.1,111.8c1.1-0.3,2.2,0.5,2.5,1.6c1.2,4.7,0.3,9.6-2.5,13.4c-0.7,0.9-1.9,1-2.9,0.3c-0.8-0.7-1.1-2-0.4-3
		c2-2.9,2.6-6.4,1.8-10c-0.2-0.6-0.1-1.3,0.3-1.8C144.2,112,144.5,111.8,145.1,111.8z"/>
	<path class="st9" d="M78.8,7.7l-0.2,13.1c-0.1,1.8-1.4,3.1-3.2,3.2c-1.8,0-3.1-1.4-3.1-3.1l0.2-13.1c0.1-1.8,1.4-3.1,3.2-3.2
		C77.5,4.6,78.8,6,78.8,7.7z"/>
	<path class="st9" d="M97.7,16c0,0.8-0.3,1.7-1,2.3l-8.5,8.4c-1.3,1.3-3.2,1.3-4.5,0c-1.2-1.2-1.2-3.2,0.1-4.5l8.5-8.4
		c1.3-1.3,3.2-1.3,4.5,0C97.5,14.3,97.8,15.2,97.7,16z"/>
	<path class="st9" d="M67.8,24.5c0,0.8-0.3,1.7-1,2.3c-1.3,1.3-3.2,1.3-4.5,0l-8.2-8.3c-1.2-1.2-1.2-3.2,0.1-4.5
		c1.3-1.3,3.2-1.3,4.5,0l8.2,8.3C67.5,22.9,67.8,23.7,67.8,24.5z"/>
</g>
<g>
	<path class="st1" d="M373.4,84.8h-3.1h-3.1c-4,0-7.3,3.3-7.3,7.3v31.4c0,4,3.3,7.3,7.3,7.3h3.1h3.1c1.8,0,3.4-1.5,3.4-3.4V88.1
		C376.7,86.3,375.3,84.8,373.4,84.8z"/>
	<path class="st2" d="M499.4,130.7h-3.1c-1.8,0-3.4-1.5-3.4-3.4V88.1c0-1.8,1.5-3.4,3.4-3.4h3.1h3.1c4,0,7.3,3.3,7.3,7.3v31.4
		c0,4-3.3,7.3-7.3,7.3H499.4z"/>
	<path class="st2" d="M487.2,72.2v63.5c0,9.3-7.5,16.8-16.8,16.8h-35.5V33.9l0,0c4.4,0,8,3.6,8,8v9.1c0,2.3,2.1,4.4,4.4,4.4h23.1
		C479.6,55.4,487.2,63,487.2,72.2z M453.3,129h9.1c0.9,0,1.8-0.8,1.8-1.8v-2.8c0-0.9-0.8-1.8-1.8-1.8h-9.1c-0.9,0-1.8,0.8-1.8,1.8
		v2.8C451.6,128.2,452.4,129,453.3,129z M457.9,101.3c4.6,0,8.4-3.7,8.4-8.4s-3.7-8.4-8.4-8.4c-4.6,0-8.4,3.7-8.4,8.4
		C449.5,97.5,453.3,101.3,457.9,101.3z M439.5,122.7h-4.7v6.3h4.7c0.9,0,1.7-0.7,1.7-1.7v-3C441.2,123.4,440.5,122.7,439.5,122.7z"
		/>
	<path class="st1" d="M434.8,33.8v118.7h-35.5c-9.3,0-16.8-7.5-16.8-16.8V72.2c0-9.3,7.5-16.8,16.8-16.8h22.4c2.5,0,5.1-1.9,5.1-4.4
		v-9.1C426.9,37.5,430.4,33.8,434.8,33.8z M416.4,122.7h-9.4c-0.9,0-1.7,0.7-1.7,1.7v3c0,0.9,0.7,1.7,1.7,1.7h9.4
		c0.9,0,1.7-0.7,1.7-1.7v-3C418.1,123.4,417.3,122.7,416.4,122.7z M411.8,84.5c-4.6,0-8.4,3.7-8.4,8.4s3.7,8.4,8.4,8.4
		c4.6,0,8.4-3.7,8.4-8.4C420.1,88.3,416.4,84.5,411.8,84.5z M430.2,122.7c-0.9,0-1.7,0.7-1.7,1.7v3c0,0.9,0.7,1.7,1.7,1.7h4.7v-6.3
		H430.2z"/>
	<path class="st3" d="M434.9,169.6C434.8,169.6,434.8,169.6,434.9,169.6l-0.1,10.1h0.1c2.8,0,5.1-2.3,5.1-5.1
		S437.7,169.6,434.9,169.6z"/>
	<path class="st4" d="M429.9,174.7c0,2.8,2.2,5,5,5.1v-10.1C432.1,169.7,429.9,171.9,429.9,174.7z"/>
	<path class="st5" d="M435,192.8c-0.1,0-0.1,0-0.1,0v15c0.1,0,0.1,0,0.1,0c4.1,0,7.5-3.4,7.5-7.5C442.4,196.2,439.1,192.8,435,192.8
		z"/>
	<path class="st6" d="M427.5,200.3c0,4.1,3.2,7.4,7.3,7.5v-14.9C430.8,192.9,427.5,196.2,427.5,200.3z"/>
	<path class="st5" d="M435,215c-0.1,0-0.1,0-0.1,0v14.9c0.1,0,0.1,0,0.1,0c4.1,0,7.5-3.4,7.5-7.5C442.4,218.4,439.1,215,435,215z"/>
	<path class="st6" d="M427.5,222.5c0,4.1,3.2,7.4,7.3,7.5v-14.9C430.8,215.1,427.5,218.4,427.5,222.5z"/>
	<path class="st5" d="M435,237.2c-0.1,0-0.1,0-0.1,0v14.9c0.1,0,0.1,0,0.1,0c4.1,0,7.5-3.4,7.5-7.5
		C442.4,240.6,439.1,237.2,435,237.2z"/>
	<path class="st6" d="M427.5,244.7c0,4.1,3.2,7.4,7.3,7.5v-14.9C430.8,237.3,427.5,240.6,427.5,244.7z"/>
	<path class="st7" d="M406,194.6c-0.9-2.7-3.9-4.9-6.7-4.9h-19.9c-2.9,0-4,2-2.5,4.4l6,9.9c1.5,2.4,1.5,6.4,0.1,8.9l-6.1,10.4
		c-1.4,2.4-0.9,6.1,1,8l54.1,53.1c0.8,0.8,1.4,1.2,1.9,1.2c0.6,0,0.8-0.9,0.3-2.5L406,194.6z"/>
	<path class="st4" d="M430.8,168.3c-0.3-0.1-0.6-0.2-0.8-0.3l-14.8-4.2c-1.4-0.4-2.7-0.2-3.7,0.6c-1,0.8-1.5,2-1.5,3.4v12.4
		c0,1.4,0.6,2.7,1.5,3.5c0.7,0.6,1.5,0.8,2.4,0.8c0.4,0,0.9-0.1,1.3-0.2l14.5-3.9c-1.5-1.4-2.5-3.4-2.5-5.7
		C427.3,172,428.7,169.6,430.8,168.3z"/>
	<path class="st6" d="M470.4,189.7h19.9c2.9,0,4,2,2.5,4.4l-6,9.9c-1.5,2.4-1.5,6.4-0.1,8.9l6.1,10.4c1.4,2.4,0.9,6.1-1,8
		l-54.1,53.1c-0.8,0.8-1.4,1.2-1.9,1.2c-0.6,0-0.8-0.9-0.3-2.5l28.1-88.6C464.6,191.9,467.6,189.7,470.4,189.7"/>
	<path class="st3" d="M442.7,174.7c0-2.7-1.4-5.1-3.5-6.4c0.3-0.1,0.6-0.2,0.8-0.3l14.8-4.2c1.4-0.4,2.7-0.2,3.7,0.6
		c1,0.8,1.5,2,1.5,3.4v12.4c0,1.4-0.6,2.7-1.5,3.5c-0.7,0.6-1.5,0.8-2.4,0.8c-0.4,0-0.9-0.1-1.3-0.2l-14.5-3.9
		C441.7,178.9,442.7,177,442.7,174.7z"/>
	<path class="st8" d="M367.1,112.4c0.3,0.5,0.5,1.2,0.3,1.8c-0.8,3.5-0.2,7.1,1.8,10c0.7,0.9,0.4,2.3-0.4,3
		c-0.9,0.7-2.2,0.6-2.9-0.3c-2.8-3.8-3.6-8.7-2.5-13.4c0.3-1.2,1.4-1.9,2.5-1.6C366.5,111.8,366.8,112,367.1,112.4z"/>
	<path class="st8" d="M504,111.8c1.1-0.3,2.2,0.5,2.5,1.6c1.2,4.7,0.3,9.6-2.5,13.4c-0.7,0.9-1.9,1-2.9,0.3c-0.8-0.7-1.1-2-0.4-3
		c2-2.9,2.6-6.4,1.8-10c-0.2-0.6-0.1-1.3,0.3-1.8C503.1,112,503.5,111.8,504,111.8z"/>
	<path class="st9" d="M437.8,7.7l-0.2,13.1c-0.1,1.8-1.4,3.1-3.2,3.2c-1.8,0-3.1-1.4-3.1-3.1l0.2-13.1c0.1-1.8,1.4-3.1,3.2-3.2
		C436.4,4.6,437.8,6,437.8,7.7z"/>
	<path class="st9" d="M456.7,16c0,0.8-0.3,1.7-1,2.3l-8.5,8.4c-1.3,1.3-3.2,1.3-4.5,0c-1.2-1.2-1.2-3.2,0.1-4.5l8.5-8.4
		c1.3-1.3,3.2-1.3,4.5,0C456.4,14.3,456.7,15.2,456.7,16z"/>
	<path class="st9" d="M426.7,24.5c0,0.8-0.3,1.7-1,2.3c-1.3,1.3-3.2,1.3-4.5,0l-8.2-8.3c-1.2-1.2-1.2-3.2,0.1-4.5
		c1.3-1.3,3.2-1.3,4.5,0l8.2,8.3C426.4,22.9,426.7,23.7,426.7,24.5z"/>
</g>
<path class="st1" d="M144.4,145.6h-5.6h-5.7c-7.3,0-13.2,6-13.2,13.2v57c0,7.3,6,13.2,13.2,13.2h5.7h5.6c3.3,0,6.1-2.7,6.1-6.1
	v-71.3C150.5,148.4,147.8,145.6,144.4,145.6z"/>
<path class="st2" d="M373.2,229h-5.6c-3.3,0-6.1-2.7-6.1-6.1v-71.3c0-3.3,2.7-6.1,6.1-6.1h5.6h5.7c7.3,0,13.2,6,13.2,13.2v57.1
	c0,7.3-6,13.2-13.2,13.2H373.2z"/>
<path class="st2" d="M351,122.8v115.3c0,16.8-13.7,30.5-30.5,30.5H256V53.2l0,0c8,0,14.6,6.6,14.6,14.6v16.6c0,4.2,3.9,8,8,8h41.9
	C337.2,92.3,351,106,351,122.8z M289.6,225.9h16.6c1.7,0,3.2-1.4,3.2-3.2v-5.1c0-1.7-1.4-3.2-3.2-3.2h-16.6c-1.7,0-3.2,1.4-3.2,3.2
	v5.1C286.4,224.4,287.9,225.9,289.6,225.9z M297.9,175.6c8.4,0,15.2-6.8,15.2-15.2s-6.8-15.2-15.2-15.2c-8.4,0-15.2,6.8-15.2,15.2
	C282.7,168.8,289.5,175.6,297.9,175.6z M264.5,214.4H256v11.4h8.5c1.6,0,3-1.3,3-3v-5.5C267.5,215.8,266.2,214.4,264.5,214.4z"/>
<path class="st1" d="M256,53.1v215.5h-64.4c-16.8,0-30.5-13.7-30.5-30.5V122.8c0-16.8,13.7-30.5,30.5-30.5h40.6c4.5,0,9.2-3.4,9.2-8
	V67.7C241.5,59.7,248,53.1,256,53.1z M222.6,214.4h-17c-1.6,0-3,1.3-3,3v5.5c0,1.6,1.3,3,3,3h17c1.6,0,3-1.3,3-3v-5.5
	C225.6,215.8,224.2,214.4,222.6,214.4z M214.1,145.1c-8.4,0-15.2,6.8-15.2,15.2c0,8.4,6.8,15.2,15.2,15.2c8.4,0,15.2-6.8,15.2-15.2
	C229.3,152,222.5,145.1,214.1,145.1z M247.5,214.4c-1.6,0-3,1.3-3,3v5.5c0,1.6,1.3,3,3,3h8.5v-11.5H247.5z"/>
<path class="st3" d="M256.1,299.7c-0.1,0-0.1,0-0.1,0V318h0.1c5.1,0,9.2-4.1,9.2-9.2S261.2,299.7,256.1,299.7z"/>
<path class="st4" d="M247,308.9c0,5,4,9.1,9,9.2v-18.4C251,299.8,247,303.9,247,308.9z"/>
<path class="st5" d="M256.2,341.8c-0.1,0-0.2,0-0.2,0V369c0.1,0,0.2,0,0.2,0c7.5,0,13.6-6.1,13.6-13.6
	C269.8,347.9,263.7,341.8,256.2,341.8z"/>
<path class="st6" d="M242.7,355.4c0,7.4,5.9,13.4,13.3,13.6v-27.1C248.6,342,242.7,348,242.7,355.4z"/>
<path class="st5" d="M256.2,382.1c-0.1,0-0.2,0-0.2,0v27.1c0.1,0,0.2,0,0.2,0c7.5,0,13.6-6.1,13.6-13.6
	C269.8,388.2,263.7,382.1,256.2,382.1z"/>
<path class="st6" d="M242.7,395.7c0,7.4,5.9,13.4,13.3,13.6v-27.1C248.6,382.2,242.7,388.3,242.7,395.7z"/>
<path class="st5" d="M256.2,422.4c-0.1,0-0.2,0-0.2,0v27.1c0.1,0,0.2,0,0.2,0c7.5,0,13.6-6.1,13.6-13.6
	C269.8,428.5,263.7,422.4,256.2,422.4z"/>
<path class="st6" d="M242.7,436c0,7.4,5.9,13.4,13.3,13.6v-27.1C248.6,422.5,242.7,428.5,242.7,436z"/>
<path class="st7" d="M203.7,345.1c-1.6-4.9-7-8.9-12.2-8.9h-36.2c-5.2,0-7.2,3.6-4.5,8l10.9,18c2.7,4.4,2.7,11.6,0.1,16.1
	l-11.1,18.8c-2.6,4.4-1.7,11,1.9,14.6l98.2,96.5c1.5,1.4,2.6,2.1,3.4,2.1c1.1,0,1.4-1.6,0.5-4.5L203.7,345.1z"/>
<path class="st4" d="M248.7,297.2c-0.5-0.2-1-0.4-1.4-0.5l-26.8-7.7c-2.5-0.7-4.9-0.4-6.8,1c-1.8,1.4-2.8,3.6-2.8,6.2v22.5
	c0,2.6,1,4.9,2.8,6.3c1.3,1,2.8,1.5,4.4,1.5c0.8,0,1.6-0.1,2.4-0.3l26.4-7c-2.8-2.5-4.6-6.2-4.6-10.3
	C242.3,304,244.9,299.7,248.7,297.2z"/>
<path class="st6" d="M320.6,336.2h36.2c5.2,0,7.2,3.6,4.5,8l-10.9,18c-2.7,4.4-2.7,11.6-0.1,16.1l11.1,18.8c2.6,4.4,1.7,11-1.9,14.6
	l-98.2,96.5c-1.5,1.4-2.6,2.1-3.4,2.1c-1.1,0-1.4-1.6-0.5-4.5l51-160.8C310,340.2,315.5,336.2,320.6,336.2"/>
<path class="st3" d="M270.2,308.9c0-4.9-2.6-9.2-6.4-11.7c0.5-0.2,1-0.4,1.4-0.5L292,289c2.5-0.7,4.9-0.4,6.8,1
	c1.8,1.4,2.8,3.6,2.8,6.2v22.5c0,2.6-1,4.9-2.8,6.3c-1.3,1-2.8,1.5-4.4,1.5c-0.8,0-1.6-0.1-2.4-0.3l-26.4-7
	C268.4,316.6,270.2,313,270.2,308.9z"/>
<path class="st8" d="M133,195.8c0.6,0.9,0.9,2.1,0.5,3.2c-1.5,6.3-0.3,12.9,3.3,18.1c1.2,1.7,0.8,4.1-0.7,5.4c-1.7,1.3-4,1-5.2-0.6
	c-5-6.9-6.6-15.8-4.5-24.3c0.5-2.1,2.5-3.4,4.5-2.9C131.9,194.6,132.4,195.1,133,195.8z"/>
<path class="st8" d="M381.6,194.6c2-0.5,4,0.9,4.5,2.9c2.2,8.5,0.5,17.4-4.5,24.3c-1.2,1.6-3.5,1.9-5.2,0.6c-1.5-1.3-2-3.7-0.7-5.4
	c3.6-5.2,4.8-11.7,3.3-18.1c-0.4-1.1-0.1-2.3,0.5-3.2C380,195.1,380.6,194.6,381.6,194.6z"/>
<path class="st9" d="M261.3,5.7l-0.4,23.8c-0.1,3.2-2.6,5.7-5.9,5.8c-3.2,0-5.7-2.5-5.6-5.7l0.4-23.8c0.1-3.2,2.6-5.7,5.9-5.8
	C258.8,0,261.3,2.5,261.3,5.7z"/>
<path class="st9" d="M295.6,20.7c0,1.5-0.6,3-1.8,4.1l-15.4,15.3c-2.3,2.3-5.9,2.3-8.2,0c-2.2-2.2-2.1-5.8,0.2-8.2l15.4-15.3
	c2.3-2.3,5.9-2.3,8.2,0C295.2,17.7,295.7,19.3,295.6,20.7z"/>
<path class="st9" d="M241.3,36.2c0,1.5-0.6,3-1.8,4.1c-2.3,2.3-5.9,2.3-8.2,0l-14.9-15c-2.2-2.2-2.1-5.8,0.2-8.2
	c2.3-2.3,5.9-2.3,8.2,0l14.9,15C240.7,33.3,241.3,34.7,241.3,36.2z"/>
</svg>
