<svg width="512" height="512" viewBox="0 0 512 512" fill="none" xmlns="http://www.w3.org/2000/svg">
<g clip-path="url(#clip0_153_519)">
<path fill-rule="evenodd" clip-rule="evenodd" d="M234.802 215H26.0889V321.766H195.591C205.073 310.169 218.762 301.223 234.802 296.521V215Z" fill="#9BAAAB"/>
<path d="M417 34.2322C365 34.2324 450.717 34 235 34V57.195C235 57.195 391.65 57.7749 417 57.7749C442.35 57.7749 442.35 57.7749 442.35 80.6222V138.61C442.35 161.225 442.35 161.225 417 161.225C391.65 161.225 235 161.573 235 161.573V185C235 185 365 184.42 417 184.42C469 184.42 469 184.42 469 138.61V80.6222C469 34.2322 469 34.2319 417 34.2322Z" fill="#0295AA"/>
<rect x="26" y="57" width="209" height="107" fill="#9BAAAB"/>
<rect x="235" y="57" width="207" height="104" fill="#CDD4D5"/>
<rect x="66" y="86" width="189" height="40" rx="18" fill="#E6EAEA"/>
<ellipse cx="376.5" cy="106" rx="37.5" ry="32" fill="#365558"/>
<path fill-rule="evenodd" clip-rule="evenodd" d="M234.781 126.05H238.915C248.856 126.05 256.915 117.991 256.915 108.05V104.801C256.915 94.8597 248.856 86.8008 238.915 86.8008H234.781V126.05Z" fill="#365558"/>
<rect x="66" y="249" width="189" height="37" rx="18" fill="#E6EAEA"/>
<path d="M339.736 304H294V327.658H339.736C358.387 327.658 373.569 342.988 373.569 361.82V454.18C373.569 473.012 358.387 488.342 339.736 488.342H294V512H339.736C371.414 512 397 486.071 397 454.18V361.82C397.093 329.834 371.414 304 339.736 304Z" fill="#CDD4D5"/>
<path d="M247.376 488.342C228.363 488.342 212.885 473.012 212.885 454.18V361.82C212.885 342.988 228.363 327.658 247.376 327.658H294V304H247.376C215.083 304 189 329.929 189 361.82V454.18C189 486.166 215.178 512 247.376 512H294V488.342H247.376Z" fill="#9BAAAB"/>
<path d="M273.419 423.445C262.194 412.226 262.194 393.465 273.419 382.246L462.359 193.414C473.585 182.195 492.356 182.195 503.581 193.414C514.806 204.633 514.806 223.393 503.581 234.612L314.641 423.445C303.227 434.852 284.833 434.852 273.419 423.445Z" fill="#BCD643"/>
<path d="M294 432C277.645 432 264 418.85 264 402.672V240.328C264 224.339 277.452 211 294 211C310.355 211 324 224.15 324 240.328V403.145C323.806 418.85 310.355 432 294 432Z" fill="#BCD643"/>
<path fill-rule="evenodd" clip-rule="evenodd" d="M403.692 243.887C396.869 237.617 387.281 233.715 376.662 233.715C355.95 233.715 339.159 248.559 339.159 266.87C339.159 277.716 345.049 287.345 354.156 293.394L403.692 243.887Z" fill="#C4C4C4"/>
<path fill-rule="evenodd" clip-rule="evenodd" d="M254.369 256.375C251.225 251.124 245.481 247.609 238.915 247.609H234.781V286.859H238.915C245.481 286.859 251.225 283.344 254.369 278.093V256.375Z" fill="#9BAAAB"/>
<path fill-rule="evenodd" clip-rule="evenodd" d="M254.369 229.214V293.71C247.566 294.156 241.008 295.313 234.802 297.091V217.41H257.123C255.346 221.082 254.369 225.068 254.369 229.214ZM351.282 296.266L430.183 217.41H330.979C332.748 221.07 333.723 225.051 333.723 229.214V293.645C339.786 293.974 345.665 294.869 351.282 296.266ZM442.428 321.767H424.094L442.428 303.443V321.767Z" fill="#CDD4D5"/>
<path fill-rule="evenodd" clip-rule="evenodd" d="M405.689 344.527C409.678 344.522 413.394 344.52 416.779 344.52C443.827 344.52 456.789 344.52 463 338.044C468.716 332.086 468.716 320.646 468.716 298.679V277.878L442.077 304.502C441.901 318.935 440.28 320.974 425.307 321.262L404.841 341.715C405.148 342.644 405.431 343.582 405.689 344.527ZM452.53 195.782L430.253 218.047C426.84 217.791 422.443 217.791 416.779 217.791C405.57 217.791 368.657 217.677 330.997 217.55C325.043 205.662 310.678 197.261 294.244 197.261C277.777 197.261 263.629 205.618 257.632 217.293C243.829 217.243 235 217.21 235 217.21V194C379.496 194 388.578 194.105 394.554 194.173C397.488 194.207 399.674 194.232 416.779 194.232C433.503 194.232 444.842 194.232 452.53 195.782ZM235 345.1V342.754C238.593 341.87 243.534 342.008 250.125 342.192C251.53 342.232 253.009 342.273 254.567 342.307V345.016C242.48 345.066 235 345.1 235 345.1Z" fill="#0295AA"/>
<rect x="87" y="273" width="9" height="9" fill="#BCD643"/>
<rect x="87" y="110" width="9" height="9" fill="#BCD643"/>
<rect x="105" y="273" width="9" height="9" fill="#BCD643"/>
<rect x="105" y="110" width="9" height="9" fill="#BCD643"/>
<rect x="123" y="272" width="9" height="9" fill="#F0353D"/>
<rect x="123" y="110" width="9" height="9" fill="#F0353D"/>
<rect x="141" y="272" width="9" height="9" fill="#BCD643"/>
<rect x="141" y="110" width="9" height="9" fill="#BCD643"/>
<rect x="159" y="272" width="9" height="9" fill="#BCD643"/>
<rect x="159" y="110" width="9" height="9" fill="#BCD643"/>
<rect x="159" y="254" width="9" height="9" fill="#BCD643"/>
<rect x="159" y="92" width="9" height="9" fill="#BCD643"/>
<rect x="141" y="254" width="9" height="9" fill="#F0353D"/>
<rect x="141" y="92" width="9" height="9" fill="#F0353D"/>
<rect x="123" y="255" width="9" height="9" fill="#BCD643"/>
<rect x="123" y="92" width="9" height="9" fill="#BCD643"/>
<rect x="105" y="255" width="9" height="9" fill="#BCD643"/>
<rect x="105" y="92" width="9" height="9" fill="#BCD643"/>
<rect x="87" y="255" width="9" height="9" fill="#F0353D"/>
<rect x="87" y="92" width="9" height="9" fill="#F0353D"/>
<path fill-rule="evenodd" clip-rule="evenodd" d="M254.746 258.596C251.727 252.889 245.73 249 238.824 249H235.255V286.249H238.824C245.73 286.249 251.727 282.361 254.746 276.653V258.596Z" fill="#365558"/>
<path fill-rule="evenodd" clip-rule="evenodd" d="M77.891 344.594H74.0872L52.1783 344.594C0 344.595 0 344.594 4.58414e-06 298.258L1.03143e-05 240.337C1.24787e-05 218.459 1.36083e-05 207.041 5.7033 201.083C11.9284 194.579 24.948 194.579 52.1783 194.579C104.357 194.579 234.803 194 234.803 194V217.427C234.803 217.427 75.0064 217.168 52.1783 217.168C29.3503 217.168 26.0892 228.753 26.0892 240.337L26.0892 299.995C26.0892 309.842 39.1338 321.426 52.1783 321.426H195.943C190.082 328.295 185.785 336.136 183.475 344.594C104 344.594 85.0201 344.594 77.891 344.594ZM230.247 344.594C231.75 344.594 233.269 344.594 234.803 344.594V342.256C232.934 342.715 231.43 343.448 230.247 344.594Z" fill="#365558"/>
<path d="M74.1495 185C80.2239 185 86.2984 185 235 185L235 161.769L52.2222 161.769C39.1667 161.769 26.1111 150.154 26.1111 140.281L26.1111 80.4616C26.1111 68.8462 29.375 57.2308 52.2222 57.2308L235 57.2308L235 34C235 34 104.444 34.5808 52.2222 34.5808C-4.27421e-07 34.5808 -4.2742e-07 34.5808 1.03075e-05 80.4616L4.58112e-06 138.538C0 185 0 185 52.2222 185L74.1495 185Z" fill="#365558"/>
</g>
<defs>
<clipPath id="clip0_153_519">
<rect width="512" height="512" fill="white"/>
</clipPath>
</defs>
</svg>
