<svg width="512" height="512" viewBox="0 0 512 512" fill="none" xmlns="http://www.w3.org/2000/svg">
<rect x="240" y="59" width="212" height="119" fill="#CDD4D5"/>
<rect x="27" y="59" width="213" height="119" fill="#9BAAAB"/>
<path d="M77.7805 205C83.9067 205 90.0328 205 240 205L240 178.538L55.6667 178.538C42.5 178.538 29.3333 165.308 29.3333 154.062L29.3333 85.9231C29.3333 72.6923 32.625 59.4615 55.6667 59.4615L240 59.4615L240 33C240 33 108.333 33.6615 55.6667 33.6616C3 33.6616 3 33.6616 3 85.9231L2.99999 152.077C3 205 3 205 55.6667 205L77.7805 205Z" fill="#365558"/>
<path fill-rule="evenodd" clip-rule="evenodd" d="M240.553 260.222V241H29.3945V361.33H203.219C204.217 322.968 218.061 287.847 240.553 260.222Z" fill="#9BAAAB"/>
<path d="M425.111 33.2645C372.222 33.2648 459.405 33 240 33V59.4209C240 59.4209 399.328 60.0814 425.111 60.0814C450.894 60.0814 450.894 60.0814 450.894 86.1061V152.158C450.894 177.919 450.894 177.919 425.111 177.919C399.328 177.919 240 178.315 240 178.315V205C240 205 372.222 204.339 425.111 204.339C478 204.339 478 204.339 478 152.158V86.1061C478 33.2645 478 33.2642 425.111 33.2645Z" fill="#0295AA"/>
<rect x="70" y="93" width="192" height="45" rx="18" fill="#E6EAEA"/>
<ellipse cx="384" cy="115.5" rx="39" ry="35.5" fill="#365558"/>
<path fill-rule="evenodd" clip-rule="evenodd" d="M240 137.819H244.445C254.386 137.819 262.445 129.76 262.445 119.819V111C262.445 101.059 254.386 93 244.445 93H240V137.819Z" fill="#365558"/>
<ellipse cx="384" cy="299.5" rx="39" ry="37.5" fill="#C4C4C4"/>
<path d="M369 270V473C396.317 473 422.516 462.306 441.832 443.271C461.148 424.236 472 398.419 472 371.5C472 344.581 461.148 318.764 441.832 299.729C422.516 280.694 396.317 270 369 270Z" fill="white"/>
<path d="M370.959 230.213H370.301C369.221 230.213 368.152 230.213 367.083 230.213H366.209C365.18 230.213 364.152 230.284 363.124 230.345H362.61C361.438 230.416 360.266 230.487 359.104 230.588H358.908C357.654 230.689 356.42 230.811 355.176 230.943H355.125C320.165 234.794 287.871 251.217 264.418 277.07C240.966 302.924 228 336.394 228 371.081C228 405.768 240.966 439.238 264.418 465.092C287.871 490.945 320.165 507.368 355.125 511.219H355.176C356.41 511.351 357.654 511.473 358.908 511.574H359.104C360.266 511.676 361.438 511.747 362.61 511.818H363.124C364.152 511.878 365.18 511.919 366.209 511.949H367.083C368.111 511.949 369.221 511.949 370.301 512H371V488.275C339.457 488.275 309.206 475.92 286.902 453.926C264.598 431.933 252.067 402.103 252.067 371C252.067 339.897 264.598 310.067 286.902 288.074C309.206 266.08 339.457 253.725 371 253.725V253.725V230L370.959 230.213Z" fill="#F0353D"/>
<path d="M509.996 370.3C509.811 333.036 495.087 297.361 469.042 271.071C442.997 244.782 407.748 230.016 371 230V253.688C401.677 253.688 431.097 266.045 452.788 288.042C474.48 310.038 486.666 339.872 486.666 370.98C486.666 402.088 474.48 431.921 452.788 453.918C431.097 475.914 401.677 488.272 371 488.272V512C407.87 511.981 443.224 497.115 469.289 470.671C495.354 444.227 509.996 408.368 509.996 370.98C510.006 370.726 509.996 370.493 509.996 370.3Z" fill="#FF8C29"/>
<path d="M268 371.97C267.992 385.366 270.599 398.632 275.671 411.01C280.743 423.389 288.181 434.637 297.561 444.112C306.94 453.587 318.077 461.104 330.335 466.232C342.593 471.36 355.731 474 369 474V270C342.213 270 316.523 280.743 297.582 299.866C278.641 318.989 268 344.926 268 371.97V371.97Z" fill="#E6EAEA"/>
<path d="M390.43 376.058C386.661 369.906 383.944 363.14 382.395 356.052C383.33 347.531 380.406 337.095 373.763 336.055C372.11 335.852 370.436 336.21 369 337.075V391.876C371.259 392.38 373.49 393.009 375.683 393.761C382.743 398.674 392.926 401.313 397.262 396.319C401.598 391.325 397.262 382.581 390.43 376.058Z" fill="#FD6A33"/>
<path d="M360.687 352.098C356.746 358.594 351.604 364.373 345.504 369.159C337.034 372.729 328.868 380.237 331.503 386.221C334.138 392.205 346.274 392.808 354.57 390.476C360.09 390.396 365.602 390.908 371 392V337C365.957 339.649 361.955 346.472 360.687 352.098Z" fill="#E3493C"/>
<path d="M384.329 302.027C395.225 302.466 399.531 323.993 397.761 340.311C401.229 354.077 406.028 367.462 412.088 380.27C413.666 383.173 416.077 385.521 419 387C413.049 373.655 410.523 358.999 411.655 344.396C418.567 325.719 415.489 300.485 405.105 294.613C393.535 288.721 379.238 293.132 373.191 304.437C373.111 304.561 373.047 304.695 373 304.835C376.302 302.504 380.34 301.503 384.329 302.027V302.027Z" fill="#FD6A33"/>
<path d="M321.715 348.327C301.738 351.773 281 366.756 281 378.273C281.621 390.848 292.647 400.532 305.677 399.977H305.998C302.535 398.198 299.845 395.2 298.441 391.554C293.208 383.13 309.727 368.54 325.313 361.698C330.265 359.602 350.602 334.371 353.479 330.179C355.202 327.437 356.078 324.243 355.995 321C346.955 332.783 335.187 342.164 321.715 348.327V348.327Z" fill="#E3493C"/>
<path d="M424.468 410.643C424.343 410.417 424.201 410.202 424.042 410C424.345 413.94 423.147 417.847 420.7 420.894C415.017 429.421 394.27 422.852 380.524 413.04C376.762 411.958 372.921 410.962 369 410.051V421.903C369.466 422.22 369.992 422.505 370.408 422.821C383.41 438.07 406.875 448.322 417.119 442.201C419.679 440.686 421.912 438.65 423.68 436.216C425.448 433.783 426.715 431.004 427.403 428.05C428.091 425.096 428.185 422.028 427.681 419.035C427.176 416.042 426.083 413.186 424.468 410.643V410.643Z" fill="#FD6A33"/>
<path d="M337.627 406.02C334.238 405.864 330.877 406.64 328 408.243C342.593 409.595 356.632 413.963 369 421V410.339C358.66 408.286 348.18 406.843 337.627 406.02Z" fill="#E3493C"/>
<path d="M369 254C337.97 254 308.21 266.432 286.269 288.561C264.327 310.691 252 340.704 252 372C252 403.296 264.327 433.309 286.269 455.439C308.21 477.568 337.97 490 369 490V490V474.698C341.994 474.698 316.093 463.878 296.997 444.618C277.901 425.359 267.172 399.237 267.172 372C267.172 344.763 277.901 318.641 296.997 299.382C316.093 280.122 341.994 269.302 369 269.302V269.302V254Z" fill="#FD6A33"/>
<path d="M451.736 288.063C430.254 266.232 401.237 253.99 371 254V269.302C397.55 269.302 423.012 280.122 441.786 299.382C460.56 318.641 471.107 344.763 471.107 372C471.107 399.237 460.56 425.359 441.786 444.618C423.012 463.878 397.55 474.698 371 474.698V490C393.812 490.008 416.11 483.053 435.057 470.02C454.005 456.988 468.744 438.468 477.401 416.816C486.057 395.164 488.239 371.36 483.669 348.432C479.099 325.504 467.983 304.49 451.736 288.063V288.063Z" fill="#FFD1A9"/>
<path fill-rule="evenodd" clip-rule="evenodd" d="M204.398 361.161H55.7896C42.5922 361.161 29.3948 347.879 29.3948 336.589L29.3948 268.187C29.3948 254.905 32.6942 241.623 55.7896 241.623H240.553V215.059C240.553 215.059 108.579 215.723 55.7896 215.723C29.3404 215.723 16.143 215.723 9.55796 222.321C3.00001 228.893 3.00001 242.009 3.00001 268.187L3 334.597C3 387.725 3.00002 387.725 55.7896 387.725L77.9551 387.724L81.7961 387.724C89.4807 387.724 110.788 387.724 205.444 387.725C204.663 381.235 204.261 374.629 204.261 367.929C204.261 365.662 204.307 363.405 204.398 361.161Z" fill="#365558"/>
<path fill-rule="evenodd" clip-rule="evenodd" d="M477.871 246.234C476.698 215.95 469.701 215.337 427.952 215.324C446.473 222.591 463.35 233.131 477.871 246.234ZM308.959 215.07C290.324 215.063 267.809 215.059 240.554 215.059V241.582C240.554 241.582 249.57 241.619 263.657 241.677C277.115 230.528 292.385 221.49 308.959 215.07Z" fill="#0295AA"/>
<path fill-rule="evenodd" clip-rule="evenodd" d="M231.285 277.746H88.0859C78.1448 277.746 70.0859 285.805 70.0859 295.746V302.638C70.0859 312.579 78.1448 320.638 88.0859 320.638H211.187C215.812 305.268 222.633 290.849 231.285 277.746Z" fill="#E6EAEA"/>
<rect x="85" y="305" width="9" height="9" fill="#BCD643"/>
<rect x="85" y="120" width="9" height="9" fill="#BCD643"/>
<rect x="103" y="305" width="9" height="9" fill="#BCD643"/>
<rect x="103" y="120" width="9" height="9" fill="#BCD643"/>
<rect x="121" y="305" width="9" height="9" fill="#F0353D"/>
<rect x="121" y="120" width="9" height="9" fill="#F0353D"/>
<rect x="139" y="305" width="9" height="9" fill="#BCD643"/>
<rect x="139" y="120" width="9" height="9" fill="#BCD643"/>
<rect x="157" y="305" width="9" height="9" fill="#BCD643"/>
<rect x="157" y="120" width="9" height="9" fill="#BCD643"/>
<rect x="157" y="287" width="9" height="9" fill="#BCD643"/>
<rect x="157" y="102" width="9" height="9" fill="#BCD643"/>
<rect x="139" y="287" width="9" height="9" fill="#F0353D"/>
<rect x="139" y="102" width="9" height="9" fill="#F0353D"/>
<rect x="121" y="287" width="9" height="9" fill="#BCD643"/>
<rect x="121" y="102" width="9" height="9" fill="#BCD643"/>
<rect x="103" y="287" width="9" height="9" fill="#BCD643"/>
<rect x="103" y="102" width="9" height="9" fill="#BCD643"/>
<rect x="85" y="287" width="9" height="9" fill="#F0353D"/>
<rect x="85" y="102" width="9" height="9" fill="#F0353D"/>
</svg>
