<svg width="512" height="512" viewBox="0 0 512 512" fill="none" xmlns="http://www.w3.org/2000/svg">
<rect x="26" y="255" width="218" height="122" fill="#9BAAAB"/>
<rect x="70" y="293" width="198" height="41" rx="18" fill="#E6EAEA"/>
<path d="M512 477.54L511.998 478.244L512 512H266L266.002 478.244L266 477.54V471.211H266.125C269.063 397.633 322.951 339 389 339C455.049 339 508.937 397.633 511.875 471.211H512V477.54Z" fill="#4ACFD9"/>
<path d="M79.7271 403C85.9308 403 92.1345 403 244 403L244 376.077L57.3333 376.077C44 376.077 30.6667 362.615 30.6667 351.173L30.6667 281.846C30.6667 268.385 34 254.923 57.3333 254.923L244 254.923L244 228C244 228 110.667 228.673 57.3333 228.673C4 228.673 4 228.673 4.00001 281.846L4 349.154C4 403 4 403 57.3333 403L79.7271 403Z" fill="#365558"/>
<rect x="31" y="70" width="213" height="128" fill="#9BAAAB"/>
<path fill-rule="evenodd" clip-rule="evenodd" d="M458.803 70.1201H243.928V193.204H336.791C352.026 184.572 369.635 179.644 388.395 179.644C407.155 179.644 424.765 184.572 439.999 193.204H458.803V70.1201Z" fill="#CDD4D5"/>
<path d="M79.7271 219C85.9308 219 92.1345 219 244 219L244 191.923L57.3333 191.923C44 191.923 30.6667 178.385 30.6667 166.877L30.6667 97.1539C30.6667 83.6154 34 70.0769 57.3333 70.0769L244 70.0769L244 43C244 43 110.667 43.6769 57.3333 43.6769C4 43.6769 4 43.6769 4.00001 97.1539L4 164.846C4 219 4 219 57.3333 219L79.7271 219Z" fill="#365558"/>
<rect x="70" y="104" width="198" height="45" rx="18" fill="#E6EAEA"/>
<ellipse cx="391.5" cy="126.5" rx="39.5" ry="37.5" fill="#365558"/>
<path fill-rule="evenodd" clip-rule="evenodd" d="M244 149.467H248.732C258.674 149.467 266.732 141.408 266.732 131.467V122C266.732 112.059 258.674 104 248.732 104H244V149.467Z" fill="#365558"/>
<path fill-rule="evenodd" clip-rule="evenodd" d="M245 336.467H249.732C259.674 336.467 267.732 328.408 267.732 318.467V309C267.732 299.059 259.674 291 249.732 291H245V336.467Z" fill="#365558"/>
<ellipse cx="391.5" cy="313" rx="39.5" ry="38" fill="#C4C4C4"/>
<path fill-rule="evenodd" clip-rule="evenodd" d="M245.16 336.263H249.893C259.834 336.263 267.893 328.204 267.893 318.263V308.796C267.893 298.855 259.834 290.796 249.893 290.796H245.16V336.263Z" fill="#9BAAAB"/>
<path fill-rule="evenodd" clip-rule="evenodd" d="M385 338C320.823 340.071 269 398.266 266.125 470.962H266V477.329L266.002 478.037L266 512H385V338Z" fill="#0295AA"/>
<path d="M388 371C434.944 371 473 332.496 473 285C473 237.504 434.944 199 388 199C341.056 199 303 237.504 303 285C303 332.496 341.056 371 388 371Z" fill="#FFD1A9"/>
<path fill-rule="evenodd" clip-rule="evenodd" d="M313.575 326C343.958 317.386 385.025 289.077 395.026 258.61C419.401 287.348 438.529 300.857 468.799 311.149C471.525 302.695 473 293.665 473 284.287C473 236.632 434.944 198 388 198C341.056 198 303 236.632 303 284.287C303 299.416 306.836 313.636 313.575 326Z" fill="#365558"/>
<path d="M372.875 395H399.125L407 371H365L372.875 395Z" fill="#FD6A33"/>
<path d="M374.42 391H392.58L395 480.51L383.5 491L372 480.51L374.42 391Z" fill="#FD6A33"/>
<path fill-rule="evenodd" clip-rule="evenodd" d="M385 495.44L385.721 496L399.375 485.358L396.501 394.541H399.375L408 369H385V495.44Z" fill="#FF8C29"/>
<path fill-rule="evenodd" clip-rule="evenodd" d="M409.134 43.2024C412.172 43.2418 414.435 43.2712 432.146 43.2711C485.923 43.2707 485.923 43.271 485.923 97.4279V165.124C485.923 191.815 485.923 205.185 479.238 211.882C476.737 214.387 473.301 215.959 468.58 216.945C459.813 206.545 449.059 197.875 436.904 191.518C458.362 191.415 458.362 189.821 458.362 165.124V97.4279C458.362 84.0149 458.362 77.347 455.028 74.0323C451.733 70.7554 445.179 70.7554 432.146 70.7554C405.93 70.7554 243.928 70.0784 243.928 70.0784V43C393.542 43 402.947 43.1221 409.134 43.2024ZM339.536 191.702C291.685 191.812 243.928 191.931 243.928 191.931V219.281C243.928 219.281 271.428 219.142 306.529 218.991C315.506 207.782 326.738 198.457 339.536 191.702Z" fill="#0295AA"/>
<path fill-rule="evenodd" clip-rule="evenodd" d="M464.897 355.484C473.847 345.984 481.03 334.816 485.923 322.5V349.122C485.923 358.909 485.923 366.896 485.589 373.414C479.201 366.763 472.277 360.756 464.897 355.484ZM288.023 375.684C262.47 375.745 243.928 375.791 243.928 375.791V403C243.928 403 253.208 402.954 267.868 402.885C273.696 393.003 280.462 383.882 288.023 375.684ZM243.928 227.626C265.495 227.626 284.149 227.628 300.299 227.633C294.905 235.934 290.663 245.045 287.8 254.743C262.362 254.642 243.928 254.565 243.928 254.565V227.626Z" fill="#0295AA"/>
<path fill-rule="evenodd" clip-rule="evenodd" d="M286.828 376.786C293.896 368.429 301.77 360.923 310.313 354.421C293.681 335.867 283.565 311.352 283.565 284.473C283.565 274.147 285.058 264.17 287.84 254.746H243.928V376.786H286.828Z" fill="#CDD4D5"/>
<rect x="87" y="318" width="9" height="9" fill="#BCD643"/>
<rect x="88" y="131" width="9" height="9" fill="#BCD643"/>
<rect x="105" y="318" width="9" height="9" fill="#BCD643"/>
<rect x="106" y="131" width="9" height="9" fill="#BCD643"/>
<rect x="123" y="318" width="9" height="9" fill="#F0353D"/>
<rect x="124" y="131" width="9" height="9" fill="#F0353D"/>
<rect x="141" y="318" width="9" height="9" fill="#BCD643"/>
<rect x="142" y="131" width="9" height="9" fill="#BCD643"/>
<rect x="159" y="318" width="9" height="9" fill="#BCD643"/>
<rect x="160" y="131" width="9" height="9" fill="#BCD643"/>
<rect x="159" y="300" width="9" height="9" fill="#BCD643"/>
<rect x="160" y="113" width="9" height="9" fill="#BCD643"/>
<rect x="141" y="300" width="9" height="9" fill="#F0353D"/>
<rect x="142" y="113" width="9" height="9" fill="#F0353D"/>
<rect x="123" y="300" width="9" height="9" fill="#BCD643"/>
<rect x="124" y="113" width="9" height="9" fill="#BCD643"/>
<rect x="105" y="300" width="9" height="9" fill="#BCD643"/>
<rect x="106" y="113" width="9" height="9" fill="#BCD643"/>
<rect x="87" y="300" width="9" height="9" fill="#F0353D"/>
<rect x="88" y="113" width="9" height="9" fill="#F0353D"/>
<path fill-rule="evenodd" clip-rule="evenodd" d="M244 334H245C254.941 334 263 325.941 263 316V311C263 301.059 254.941 293 245 293H244V334Z" fill="#365558"/>
</svg>
